{
  "header": {
    "PPQ": 960,
    "timeSignature": [
      4,
      4
    ],
    "bpm": 260.00026000026,
    "name": ""
  },
  "startTime": 0,
  "duration": 55.384559999999965,
  "tracks": [
    {
      "startTime": 0,
      "duration": 0,
      "length": 0,
      "notes": [],
      "controlChanges": {
        "6": [
          {
            "number": 6,
            "time": 0,
            "value": 0.09448818897637795
          },
          {
            "number": 6,
            "time": 0,
            "value": 0.09448818897637795
          },
          {
            "number": 6,
            "time": 0,
            "value": 0.09448818897637795
          },
          {
            "number": 6,
            "time": 0,
            "value": 0.09448818897637795
          },
          {
            "number": 6,
            "time": 0,
            "value": 0.09448818897637795
          },
          {
            "number": 6,
            "time": 0,
            "value": 0.09448818897637795
          },
          {
            "number": 6,
            "time": 0,
            "value": 0.09448818897637795
          },
          {
            "number": 6,
            "time": 0,
            "value": 0.09448818897637795
          },
          {
            "number": 6,
            "time": 0,
            "value": 0.09448818897637795
          },
          {
            "number": 6,
            "time": 0,
            "value": 0.09448818897637795
          },
          {
            "number": 6,
            "time": 0,
            "value": 0.09448818897637795
          },
          {
            "number": 6,
            "time": 0,
            "value": 0.09448818897637795
          },
          {
            "number": 6,
            "time": 0,
            "value": 0.09448818897637795
          },
          {
            "number": 6,
            "time": 0,
            "value": 0.09448818897637795
          },
          {
            "number": 6,
            "time": 0,
            "value": 0.09448818897637795
          },
          {
            "number": 6,
            "time": 0,
            "value": 0.09448818897637795
          }
        ],
        "38": [
          {
            "number": 38,
            "time": 0,
            "value": 0
          },
          {
            "number": 38,
            "time": 0,
            "value": 0
          },
          {
            "number": 38,
            "time": 0,
            "value": 0
          },
          {
            "number": 38,
            "time": 0,
            "value": 0
          },
          {
            "number": 38,
            "time": 0,
            "value": 0
          },
          {
            "number": 38,
            "time": 0,
            "value": 0
          },
          {
            "number": 38,
            "time": 0,
            "value": 0
          },
          {
            "number": 38,
            "time": 0,
            "value": 0
          },
          {
            "number": 38,
            "time": 0,
            "value": 0
          },
          {
            "number": 38,
            "time": 0,
            "value": 0
          },
          {
            "number": 38,
            "time": 0,
            "value": 0
          },
          {
            "number": 38,
            "time": 0,
            "value": 0
          },
          {
            "number": 38,
            "time": 0,
            "value": 0
          },
          {
            "number": 38,
            "time": 0,
            "value": 0
          },
          {
            "number": 38,
            "time": 0,
            "value": 0
          },
          {
            "number": 38,
            "time": 0,
            "value": 0
          }
        ],
        "100": [
          {
            "number": 100,
            "time": 0,
            "value": 0
          },
          {
            "number": 100,
            "time": 0,
            "value": 0
          },
          {
            "number": 100,
            "time": 0,
            "value": 0
          },
          {
            "number": 100,
            "time": 0,
            "value": 0
          },
          {
            "number": 100,
            "time": 0,
            "value": 0
          },
          {
            "number": 100,
            "time": 0,
            "value": 0
          },
          {
            "number": 100,
            "time": 0,
            "value": 0
          },
          {
            "number": 100,
            "time": 0,
            "value": 0
          },
          {
            "number": 100,
            "time": 0,
            "value": 0
          },
          {
            "number": 100,
            "time": 0,
            "value": 0
          },
          {
            "number": 100,
            "time": 0,
            "value": 0
          },
          {
            "number": 100,
            "time": 0,
            "value": 0
          },
          {
            "number": 100,
            "time": 0,
            "value": 0
          },
          {
            "number": 100,
            "time": 0,
            "value": 0
          },
          {
            "number": 100,
            "time": 0,
            "value": 0
          },
          {
            "number": 100,
            "time": 0,
            "value": 0
          }
        ],
        "101": [
          {
            "number": 101,
            "time": 0,
            "value": 0
          },
          {
            "number": 101,
            "time": 0,
            "value": 0
          },
          {
            "number": 101,
            "time": 0,
            "value": 0
          },
          {
            "number": 101,
            "time": 0,
            "value": 0
          },
          {
            "number": 101,
            "time": 0,
            "value": 0
          },
          {
            "number": 101,
            "time": 0,
            "value": 0
          },
          {
            "number": 101,
            "time": 0,
            "value": 0
          },
          {
            "number": 101,
            "time": 0,
            "value": 0
          },
          {
            "number": 101,
            "time": 0,
            "value": 0
          },
          {
            "number": 101,
            "time": 0,
            "value": 0
          },
          {
            "number": 101,
            "time": 0,
            "value": 0
          },
          {
            "number": 101,
            "time": 0,
            "value": 0
          },
          {
            "number": 101,
            "time": 0,
            "value": 0
          },
          {
            "number": 101,
            "time": 0,
            "value": 0
          },
          {
            "number": 101,
            "time": 0,
            "value": 0
          },
          {
            "number": 101,
            "time": 0,
            "value": 0
          }
        ]
      },
      "id": 0
    },
    {
      "startTime": 7.384607999999999,
      "duration": 55.38455999999996,
      "length": 268,
      "notes": [
        {
          "name": "E2",
          "midi": 40,
          "time": 7.384607999999999,
          "velocity": 0.7480314960629921,
          "duration": 0.23076899999999956
        },
        {
          "name": "E2",
          "midi": 40,
          "time": 7.615376999999999,
          "velocity": 0.7480314960629921,
          "duration": 0.11538450000000022
        },
        {
          "name": "E2",
          "midi": 40,
          "time": 7.730761499999999,
          "velocity": 0.7480314960629921,
          "duration": 0.23076899999999956
        },
        {
          "name": "E2",
          "midi": 40,
          "time": 7.9615304999999985,
          "velocity": 0.7480314960629921,
          "duration": 0.11538449999999933
        },
        {
          "name": "E2",
          "midi": 40,
          "time": 8.076914999999998,
          "velocity": 0.7480314960629921,
          "duration": 0.11538449999999933
        },
        {
          "name": "E2",
          "midi": 40,
          "time": 8.192299499999997,
          "velocity": 0.7480314960629921,
          "duration": 0.11538449999999933
        },
        {
          "name": "B3",
          "midi": 59,
          "time": 8.307683999999997,
          "velocity": 0.7480314960629921,
          "duration": 0.23076900000000045
        },
        {
          "name": "E3",
          "midi": 52,
          "time": 8.307683999999997,
          "velocity": 0.7480314960629921,
          "duration": 0.23076900000000045
        },
        {
          "name": "E2",
          "midi": 40,
          "time": 8.538452999999997,
          "velocity": 0.7480314960629921,
          "duration": 0.11538449999999933
        },
        {
          "name": "A#3",
          "midi": 58,
          "time": 8.653837499999996,
          "velocity": 0.7480314960629921,
          "duration": 0.23076900000000045
        },
        {
          "name": "E3",
          "midi": 52,
          "time": 8.653837499999996,
          "velocity": 0.7480314960629921,
          "duration": 0.23076900000000045
        },
        {
          "name": "E2",
          "midi": 40,
          "time": 8.884606499999997,
          "velocity": 0.7480314960629921,
          "duration": 0.11538449999999933
        },
        {
          "name": "A3",
          "midi": 57,
          "time": 8.999990999999996,
          "velocity": 0.7480314960629921,
          "duration": 0.23076900000000045
        },
        {
          "name": "E3",
          "midi": 52,
          "time": 8.999990999999996,
          "velocity": 0.7480314960629921,
          "duration": 0.23076900000000045
        },
        {
          "name": "E2",
          "midi": 40,
          "time": 9.230759999999997,
          "velocity": 0.7480314960629921,
          "duration": 0.23076900000000045
        },
        {
          "name": "E2",
          "midi": 40,
          "time": 9.461528999999997,
          "velocity": 0.7480314960629921,
          "duration": 0.11538449999999933
        },
        {
          "name": "E2",
          "midi": 40,
          "time": 9.576913499999996,
          "velocity": 0.7480314960629921,
          "duration": 0.23076900000000045
        },
        {
          "name": "E2",
          "midi": 40,
          "time": 9.807682499999997,
          "velocity": 0.7480314960629921,
          "duration": 0.11538449999999933
        },
        {
          "name": "E2",
          "midi": 40,
          "time": 9.923066999999996,
          "velocity": 0.7480314960629921,
          "duration": 0.11538449999999933
        },
        {
          "name": "E2",
          "midi": 40,
          "time": 10.038451499999995,
          "velocity": 0.7480314960629921,
          "duration": 0.11538449999999933
        },
        {
          "name": "B3",
          "midi": 59,
          "time": 10.153835999999995,
          "velocity": 0.7480314960629921,
          "duration": 0.23076900000000045
        },
        {
          "name": "E3",
          "midi": 52,
          "time": 10.153835999999995,
          "velocity": 0.7480314960629921,
          "duration": 0.23076900000000045
        },
        {
          "name": "E2",
          "midi": 40,
          "time": 10.384604999999995,
          "velocity": 0.7480314960629921,
          "duration": 0.11538449999999933
        },
        {
          "name": "A#3",
          "midi": 58,
          "time": 10.499989499999995,
          "velocity": 0.7480314960629921,
          "duration": 0.23076900000000045
        },
        {
          "name": "E3",
          "midi": 52,
          "time": 10.499989499999995,
          "velocity": 0.7480314960629921,
          "duration": 0.23076900000000045
        },
        {
          "name": "E2",
          "midi": 40,
          "time": 10.730758499999995,
          "velocity": 0.7480314960629921,
          "duration": 0.11538449999999933
        },
        {
          "name": "A3",
          "midi": 57,
          "time": 10.846142999999994,
          "velocity": 0.7480314960629921,
          "duration": 0.23076900000000045
        },
        {
          "name": "E3",
          "midi": 52,
          "time": 10.846142999999994,
          "velocity": 0.7480314960629921,
          "duration": 0.23076900000000045
        },
        {
          "name": "E2",
          "midi": 40,
          "time": 11.076911999999995,
          "velocity": 0.7480314960629921,
          "duration": 0.23076900000000045
        },
        {
          "name": "E2",
          "midi": 40,
          "time": 11.307680999999995,
          "velocity": 0.7480314960629921,
          "duration": 0.11538449999999933
        },
        {
          "name": "E2",
          "midi": 40,
          "time": 11.423065499999995,
          "velocity": 0.7480314960629921,
          "duration": 0.23076900000000045
        },
        {
          "name": "E2",
          "midi": 40,
          "time": 11.653834499999995,
          "velocity": 0.7480314960629921,
          "duration": 0.11538449999999933
        },
        {
          "name": "E2",
          "midi": 40,
          "time": 11.769218999999994,
          "velocity": 0.7480314960629921,
          "duration": 0.11538449999999933
        },
        {
          "name": "E2",
          "midi": 40,
          "time": 11.884603499999994,
          "velocity": 0.7480314960629921,
          "duration": 0.11538449999999933
        },
        {
          "name": "B3",
          "midi": 59,
          "time": 11.999987999999993,
          "velocity": 0.7480314960629921,
          "duration": 0.23076900000000045
        },
        {
          "name": "E3",
          "midi": 52,
          "time": 11.999987999999993,
          "velocity": 0.7480314960629921,
          "duration": 0.23076900000000045
        },
        {
          "name": "E2",
          "midi": 40,
          "time": 12.230756999999993,
          "velocity": 0.7480314960629921,
          "duration": 0.11538449999999933
        },
        {
          "name": "A#3",
          "midi": 58,
          "time": 12.346141499999993,
          "velocity": 0.7480314960629921,
          "duration": 0.23076900000000045
        },
        {
          "name": "E3",
          "midi": 52,
          "time": 12.346141499999993,
          "velocity": 0.7480314960629921,
          "duration": 0.23076900000000045
        },
        {
          "name": "E2",
          "midi": 40,
          "time": 12.576910499999993,
          "velocity": 0.7480314960629921,
          "duration": 0.11538449999999933
        },
        {
          "name": "A3",
          "midi": 57,
          "time": 12.692294999999993,
          "velocity": 0.7480314960629921,
          "duration": 0.23076900000000045
        },
        {
          "name": "E3",
          "midi": 52,
          "time": 12.692294999999993,
          "velocity": 0.7480314960629921,
          "duration": 0.23076900000000045
        },
        {
          "name": "E2",
          "midi": 40,
          "time": 12.923063999999993,
          "velocity": 0.7480314960629921,
          "duration": 0.23076900000000045
        },
        {
          "name": "E2",
          "midi": 40,
          "time": 13.153832999999993,
          "velocity": 0.7480314960629921,
          "duration": 0.11538449999999933
        },
        {
          "name": "E2",
          "midi": 40,
          "time": 13.269217499999993,
          "velocity": 0.7480314960629921,
          "duration": 0.23076900000000045
        },
        {
          "name": "E2",
          "midi": 40,
          "time": 13.499986499999993,
          "velocity": 0.7480314960629921,
          "duration": 0.11538449999999933
        },
        {
          "name": "E2",
          "midi": 40,
          "time": 13.615370999999993,
          "velocity": 0.7480314960629921,
          "duration": 0.11538449999999933
        },
        {
          "name": "E2",
          "midi": 40,
          "time": 13.730755499999992,
          "velocity": 0.7480314960629921,
          "duration": 0.11538449999999933
        },
        {
          "name": "B3",
          "midi": 59,
          "time": 13.846139999999991,
          "velocity": 0.7480314960629921,
          "duration": 0.23076900000000045
        },
        {
          "name": "E3",
          "midi": 52,
          "time": 13.846139999999991,
          "velocity": 0.7480314960629921,
          "duration": 0.23076900000000045
        },
        {
          "name": "E2",
          "midi": 40,
          "time": 14.076908999999992,
          "velocity": 0.7480314960629921,
          "duration": 0.11538449999999933
        },
        {
          "name": "A#3",
          "midi": 58,
          "time": 14.192293499999991,
          "velocity": 0.7480314960629921,
          "duration": 0.23076900000000045
        },
        {
          "name": "E3",
          "midi": 52,
          "time": 14.192293499999991,
          "velocity": 0.7480314960629921,
          "duration": 0.23076900000000045
        },
        {
          "name": "E2",
          "midi": 40,
          "time": 14.423062499999991,
          "velocity": 0.7480314960629921,
          "duration": 0.11538449999999933
        },
        {
          "name": "A3",
          "midi": 57,
          "time": 14.53844699999999,
          "velocity": 0.7480314960629921,
          "duration": 0.23076900000000045
        },
        {
          "name": "E3",
          "midi": 52,
          "time": 14.53844699999999,
          "velocity": 0.7480314960629921,
          "duration": 0.23076900000000045
        },
        {
          "name": "G3",
          "midi": 55,
          "time": 14.769215999999991,
          "velocity": 0.7480314960629921,
          "duration": 1.6153829999999996
        },
        {
          "name": "D3",
          "midi": 50,
          "time": 14.769215999999991,
          "velocity": 0.7480314960629921,
          "duration": 1.6153829999999996
        },
        {
          "name": "G2",
          "midi": 43,
          "time": 14.769215999999991,
          "velocity": 0.7480314960629921,
          "duration": 1.6153829999999996
        },
        {
          "name": "E2",
          "midi": 40,
          "time": 16.38459899999999,
          "velocity": 0.7480314960629921,
          "duration": 0.23076899999999867
        },
        {
          "name": "G3",
          "midi": 55,
          "time": 16.61536799999999,
          "velocity": 0.7480314960629921,
          "duration": 1.6153830000000013
        },
        {
          "name": "D3",
          "midi": 50,
          "time": 16.61536799999999,
          "velocity": 0.7480314960629921,
          "duration": 1.6153830000000013
        },
        {
          "name": "G2",
          "midi": 43,
          "time": 16.61536799999999,
          "velocity": 0.7480314960629921,
          "duration": 1.6153830000000013
        },
        {
          "name": "E2",
          "midi": 40,
          "time": 18.23075099999999,
          "velocity": 0.7480314960629921,
          "duration": 0.23076899999999867
        },
        {
          "name": "G3",
          "midi": 55,
          "time": 18.46151999999999,
          "velocity": 0.7480314960629921,
          "duration": 1.6153830000000013
        },
        {
          "name": "D3",
          "midi": 50,
          "time": 18.46151999999999,
          "velocity": 0.7480314960629921,
          "duration": 1.6153830000000013
        },
        {
          "name": "G2",
          "midi": 43,
          "time": 18.46151999999999,
          "velocity": 0.7480314960629921,
          "duration": 1.6153830000000013
        },
        {
          "name": "E2",
          "midi": 40,
          "time": 20.07690299999999,
          "velocity": 0.7480314960629921,
          "duration": 0.23076899999999867
        },
        {
          "name": "G3",
          "midi": 55,
          "time": 20.30767199999999,
          "velocity": 0.7480314960629921,
          "duration": 0.3461534999999998
        },
        {
          "name": "D3",
          "midi": 50,
          "time": 20.30767199999999,
          "velocity": 0.7480314960629921,
          "duration": 0.3461534999999998
        },
        {
          "name": "G2",
          "midi": 43,
          "time": 20.30767199999999,
          "velocity": 0.7480314960629921,
          "duration": 0.3461534999999998
        },
        {
          "name": "G3",
          "midi": 55,
          "time": 20.65382549999999,
          "velocity": 0.7480314960629921,
          "duration": 0.3461534999999998
        },
        {
          "name": "D3",
          "midi": 50,
          "time": 20.65382549999999,
          "velocity": 0.7480314960629921,
          "duration": 0.3461534999999998
        },
        {
          "name": "G2",
          "midi": 43,
          "time": 20.65382549999999,
          "velocity": 0.7480314960629921,
          "duration": 0.3461534999999998
        },
        {
          "name": "G3",
          "midi": 55,
          "time": 20.99997899999999,
          "velocity": 0.7480314960629921,
          "duration": 0.3461534999999998
        },
        {
          "name": "D3",
          "midi": 50,
          "time": 20.99997899999999,
          "velocity": 0.7480314960629921,
          "duration": 0.3461534999999998
        },
        {
          "name": "G2",
          "midi": 43,
          "time": 20.99997899999999,
          "velocity": 0.7480314960629921,
          "duration": 0.3461534999999998
        },
        {
          "name": "G3",
          "midi": 55,
          "time": 21.34613249999999,
          "velocity": 0.7480314960629921,
          "duration": 0.3461534999999998
        },
        {
          "name": "D3",
          "midi": 50,
          "time": 21.34613249999999,
          "velocity": 0.7480314960629921,
          "duration": 0.3461534999999998
        },
        {
          "name": "G2",
          "midi": 43,
          "time": 21.34613249999999,
          "velocity": 0.7480314960629921,
          "duration": 0.3461534999999998
        },
        {
          "name": "G3",
          "midi": 55,
          "time": 21.69228599999999,
          "velocity": 0.7480314960629921,
          "duration": 0.23076899999999867
        },
        {
          "name": "D3",
          "midi": 50,
          "time": 21.69228599999999,
          "velocity": 0.7480314960629921,
          "duration": 0.23076899999999867
        },
        {
          "name": "G2",
          "midi": 43,
          "time": 21.69228599999999,
          "velocity": 0.7480314960629921,
          "duration": 0.23076899999999867
        },
        {
          "name": "G3",
          "midi": 55,
          "time": 21.923054999999987,
          "velocity": 0.7480314960629921,
          "duration": 0.23076899999999867
        },
        {
          "name": "D3",
          "midi": 50,
          "time": 21.923054999999987,
          "velocity": 0.7480314960629921,
          "duration": 0.23076899999999867
        },
        {
          "name": "G2",
          "midi": 43,
          "time": 21.923054999999987,
          "velocity": 0.7480314960629921,
          "duration": 0.23076899999999867
        },
        {
          "name": "E2",
          "midi": 40,
          "time": 22.153823999999986,
          "velocity": 0.7480314960629921,
          "duration": 0.23076899999999867
        },
        {
          "name": "E2",
          "midi": 40,
          "time": 22.384592999999985,
          "velocity": 0.7480314960629921,
          "duration": 0.11538450000000111
        },
        {
          "name": "E2",
          "midi": 40,
          "time": 22.499977499999986,
          "velocity": 0.7480314960629921,
          "duration": 0.23076899999999867
        },
        {
          "name": "E2",
          "midi": 40,
          "time": 22.730746499999984,
          "velocity": 0.7480314960629921,
          "duration": 0.11538450000000111
        },
        {
          "name": "E2",
          "midi": 40,
          "time": 22.846130999999986,
          "velocity": 0.7480314960629921,
          "duration": 0.11538450000000111
        },
        {
          "name": "E2",
          "midi": 40,
          "time": 22.961515499999987,
          "velocity": 0.7480314960629921,
          "duration": 0.11538450000000111
        },
        {
          "name": "B3",
          "midi": 59,
          "time": 23.076899999999988,
          "velocity": 0.7480314960629921,
          "duration": 0.23076899999999867
        },
        {
          "name": "E3",
          "midi": 52,
          "time": 23.076899999999988,
          "velocity": 0.7480314960629921,
          "duration": 0.23076899999999867
        },
        {
          "name": "E2",
          "midi": 40,
          "time": 23.307668999999986,
          "velocity": 0.7480314960629921,
          "duration": 0.11538450000000111
        },
        {
          "name": "A#3",
          "midi": 58,
          "time": 23.423053499999988,
          "velocity": 0.7480314960629921,
          "duration": 0.23076899999999867
        },
        {
          "name": "E3",
          "midi": 52,
          "time": 23.423053499999988,
          "velocity": 0.7480314960629921,
          "duration": 0.23076899999999867
        },
        {
          "name": "E2",
          "midi": 40,
          "time": 23.653822499999986,
          "velocity": 0.7480314960629921,
          "duration": 0.11538450000000111
        },
        {
          "name": "A3",
          "midi": 57,
          "time": 23.769206999999987,
          "velocity": 0.7480314960629921,
          "duration": 0.23076899999999867
        },
        {
          "name": "E3",
          "midi": 52,
          "time": 23.769206999999987,
          "velocity": 0.7480314960629921,
          "duration": 0.23076899999999867
        },
        {
          "name": "E2",
          "midi": 40,
          "time": 23.999975999999986,
          "velocity": 0.7480314960629921,
          "duration": 0.23076899999999867
        },
        {
          "name": "E2",
          "midi": 40,
          "time": 24.230744999999985,
          "velocity": 0.7480314960629921,
          "duration": 0.11538450000000111
        },
        {
          "name": "E2",
          "midi": 40,
          "time": 24.346129499999986,
          "velocity": 0.7480314960629921,
          "duration": 0.23076899999999867
        },
        {
          "name": "E2",
          "midi": 40,
          "time": 24.576898499999984,
          "velocity": 0.7480314960629921,
          "duration": 0.11538450000000111
        },
        {
          "name": "E2",
          "midi": 40,
          "time": 24.692282999999986,
          "velocity": 0.7480314960629921,
          "duration": 0.11538450000000111
        },
        {
          "name": "E2",
          "midi": 40,
          "time": 24.807667499999987,
          "velocity": 0.7480314960629921,
          "duration": 0.11538450000000111
        },
        {
          "name": "B3",
          "midi": 59,
          "time": 24.923051999999988,
          "velocity": 0.7480314960629921,
          "duration": 0.23076899999999867
        },
        {
          "name": "E3",
          "midi": 52,
          "time": 24.923051999999988,
          "velocity": 0.7480314960629921,
          "duration": 0.23076899999999867
        },
        {
          "name": "E2",
          "midi": 40,
          "time": 25.153820999999986,
          "velocity": 0.7480314960629921,
          "duration": 0.11538450000000111
        },
        {
          "name": "A#3",
          "midi": 58,
          "time": 25.269205499999988,
          "velocity": 0.7480314960629921,
          "duration": 0.23076899999999867
        },
        {
          "name": "E3",
          "midi": 52,
          "time": 25.269205499999988,
          "velocity": 0.7480314960629921,
          "duration": 0.23076899999999867
        },
        {
          "name": "E2",
          "midi": 40,
          "time": 25.499974499999986,
          "velocity": 0.7480314960629921,
          "duration": 0.11538450000000111
        },
        {
          "name": "A3",
          "midi": 57,
          "time": 25.615358999999987,
          "velocity": 0.7480314960629921,
          "duration": 0.23076899999999867
        },
        {
          "name": "E3",
          "midi": 52,
          "time": 25.615358999999987,
          "velocity": 0.7480314960629921,
          "duration": 0.23076899999999867
        },
        {
          "name": "E2",
          "midi": 40,
          "time": 25.846127999999986,
          "velocity": 0.7480314960629921,
          "duration": 0.23076899999999867
        },
        {
          "name": "E2",
          "midi": 40,
          "time": 26.076896999999985,
          "velocity": 0.7480314960629921,
          "duration": 0.11538450000000111
        },
        {
          "name": "E2",
          "midi": 40,
          "time": 26.192281499999986,
          "velocity": 0.7480314960629921,
          "duration": 0.23076899999999867
        },
        {
          "name": "E2",
          "midi": 40,
          "time": 26.423050499999984,
          "velocity": 0.7480314960629921,
          "duration": 0.11538450000000111
        },
        {
          "name": "E2",
          "midi": 40,
          "time": 26.538434999999986,
          "velocity": 0.7480314960629921,
          "duration": 0.11538450000000111
        },
        {
          "name": "E2",
          "midi": 40,
          "time": 26.653819499999987,
          "velocity": 0.7480314960629921,
          "duration": 0.11538450000000111
        },
        {
          "name": "B3",
          "midi": 59,
          "time": 26.769203999999988,
          "velocity": 0.7480314960629921,
          "duration": 0.23076899999999867
        },
        {
          "name": "E3",
          "midi": 52,
          "time": 26.769203999999988,
          "velocity": 0.7480314960629921,
          "duration": 0.23076899999999867
        },
        {
          "name": "E2",
          "midi": 40,
          "time": 26.999972999999986,
          "velocity": 0.7480314960629921,
          "duration": 0.11538450000000111
        },
        {
          "name": "A#3",
          "midi": 58,
          "time": 27.115357499999988,
          "velocity": 0.7480314960629921,
          "duration": 0.23076899999999867
        },
        {
          "name": "E3",
          "midi": 52,
          "time": 27.115357499999988,
          "velocity": 0.7480314960629921,
          "duration": 0.23076899999999867
        },
        {
          "name": "E2",
          "midi": 40,
          "time": 27.346126499999986,
          "velocity": 0.7480314960629921,
          "duration": 0.11538450000000111
        },
        {
          "name": "A3",
          "midi": 57,
          "time": 27.461510999999987,
          "velocity": 0.7480314960629921,
          "duration": 0.23076899999999867
        },
        {
          "name": "E3",
          "midi": 52,
          "time": 27.461510999999987,
          "velocity": 0.7480314960629921,
          "duration": 0.23076899999999867
        },
        {
          "name": "E2",
          "midi": 40,
          "time": 27.692279999999986,
          "velocity": 0.7480314960629921,
          "duration": 0.23076899999999867
        },
        {
          "name": "E2",
          "midi": 40,
          "time": 27.923048999999985,
          "velocity": 0.7480314960629921,
          "duration": 0.11538450000000111
        },
        {
          "name": "E2",
          "midi": 40,
          "time": 28.038433499999986,
          "velocity": 0.7480314960629921,
          "duration": 0.23076899999999867
        },
        {
          "name": "E2",
          "midi": 40,
          "time": 28.269202499999984,
          "velocity": 0.7480314960629921,
          "duration": 0.11538450000000111
        },
        {
          "name": "E2",
          "midi": 40,
          "time": 28.384586999999986,
          "velocity": 0.7480314960629921,
          "duration": 0.11538450000000111
        },
        {
          "name": "E2",
          "midi": 40,
          "time": 28.499971499999987,
          "velocity": 0.7480314960629921,
          "duration": 0.11538450000000111
        },
        {
          "name": "B3",
          "midi": 59,
          "time": 28.615355999999988,
          "velocity": 0.7480314960629921,
          "duration": 0.23076899999999867
        },
        {
          "name": "E3",
          "midi": 52,
          "time": 28.615355999999988,
          "velocity": 0.7480314960629921,
          "duration": 0.23076899999999867
        },
        {
          "name": "E2",
          "midi": 40,
          "time": 28.846124999999986,
          "velocity": 0.7480314960629921,
          "duration": 0.11538450000000111
        },
        {
          "name": "A#3",
          "midi": 58,
          "time": 28.961509499999988,
          "velocity": 0.7480314960629921,
          "duration": 0.23076899999999867
        },
        {
          "name": "E3",
          "midi": 52,
          "time": 28.961509499999988,
          "velocity": 0.7480314960629921,
          "duration": 0.23076899999999867
        },
        {
          "name": "E2",
          "midi": 40,
          "time": 29.192278499999986,
          "velocity": 0.7480314960629921,
          "duration": 0.11538450000000111
        },
        {
          "name": "A3",
          "midi": 57,
          "time": 29.307662999999987,
          "velocity": 0.7480314960629921,
          "duration": 0.23076899999999867
        },
        {
          "name": "E3",
          "midi": 52,
          "time": 29.307662999999987,
          "velocity": 0.7480314960629921,
          "duration": 0.23076899999999867
        },
        {
          "name": "G3",
          "midi": 55,
          "time": 29.538431999999986,
          "velocity": 0.7480314960629921,
          "duration": 1.6153830000000013
        },
        {
          "name": "D3",
          "midi": 50,
          "time": 29.538431999999986,
          "velocity": 0.7480314960629921,
          "duration": 1.6153830000000013
        },
        {
          "name": "G2",
          "midi": 43,
          "time": 29.538431999999986,
          "velocity": 0.7480314960629921,
          "duration": 1.6153830000000013
        },
        {
          "name": "E2",
          "midi": 40,
          "time": 31.153814999999987,
          "velocity": 0.7480314960629921,
          "duration": 0.23076899999999867
        },
        {
          "name": "G3",
          "midi": 55,
          "time": 31.384583999999986,
          "velocity": 0.7480314960629921,
          "duration": 1.6153829999999978
        },
        {
          "name": "D3",
          "midi": 50,
          "time": 31.384583999999986,
          "velocity": 0.7480314960629921,
          "duration": 1.6153829999999978
        },
        {
          "name": "G2",
          "midi": 43,
          "time": 31.384583999999986,
          "velocity": 0.7480314960629921,
          "duration": 1.6153829999999978
        },
        {
          "name": "E2",
          "midi": 40,
          "time": 32.999966999999984,
          "velocity": 0.7480314960629921,
          "duration": 0.23076900000000222
        },
        {
          "name": "G3",
          "midi": 55,
          "time": 33.230735999999986,
          "velocity": 0.7480314960629921,
          "duration": 1.6153830000000013
        },
        {
          "name": "D3",
          "midi": 50,
          "time": 33.230735999999986,
          "velocity": 0.7480314960629921,
          "duration": 1.6153830000000013
        },
        {
          "name": "G2",
          "midi": 43,
          "time": 33.230735999999986,
          "velocity": 0.7480314960629921,
          "duration": 1.6153830000000013
        },
        {
          "name": "E2",
          "midi": 40,
          "time": 34.84611899999999,
          "velocity": 0.7480314960629921,
          "duration": 0.23076900000000222
        },
        {
          "name": "G3",
          "midi": 55,
          "time": 35.07688799999999,
          "velocity": 0.7480314960629921,
          "duration": 0.3461534999999998
        },
        {
          "name": "D3",
          "midi": 50,
          "time": 35.07688799999999,
          "velocity": 0.7480314960629921,
          "duration": 0.3461534999999998
        },
        {
          "name": "G2",
          "midi": 43,
          "time": 35.07688799999999,
          "velocity": 0.7480314960629921,
          "duration": 0.3461534999999998
        },
        {
          "name": "G3",
          "midi": 55,
          "time": 35.42304149999999,
          "velocity": 0.7480314960629921,
          "duration": 0.3461534999999998
        },
        {
          "name": "D3",
          "midi": 50,
          "time": 35.42304149999999,
          "velocity": 0.7480314960629921,
          "duration": 0.3461534999999998
        },
        {
          "name": "G2",
          "midi": 43,
          "time": 35.42304149999999,
          "velocity": 0.7480314960629921,
          "duration": 0.3461534999999998
        },
        {
          "name": "G3",
          "midi": 55,
          "time": 35.76919499999999,
          "velocity": 0.7480314960629921,
          "duration": 0.3461534999999998
        },
        {
          "name": "D3",
          "midi": 50,
          "time": 35.76919499999999,
          "velocity": 0.7480314960629921,
          "duration": 0.3461534999999998
        },
        {
          "name": "G2",
          "midi": 43,
          "time": 35.76919499999999,
          "velocity": 0.7480314960629921,
          "duration": 0.3461534999999998
        },
        {
          "name": "G3",
          "midi": 55,
          "time": 36.11534849999999,
          "velocity": 0.7480314960629921,
          "duration": 0.3461534999999998
        },
        {
          "name": "D3",
          "midi": 50,
          "time": 36.11534849999999,
          "velocity": 0.7480314960629921,
          "duration": 0.3461534999999998
        },
        {
          "name": "G2",
          "midi": 43,
          "time": 36.11534849999999,
          "velocity": 0.7480314960629921,
          "duration": 0.3461534999999998
        },
        {
          "name": "G3",
          "midi": 55,
          "time": 36.46150199999999,
          "velocity": 0.7480314960629921,
          "duration": 0.23076900000000222
        },
        {
          "name": "D3",
          "midi": 50,
          "time": 36.46150199999999,
          "velocity": 0.7480314960629921,
          "duration": 0.23076900000000222
        },
        {
          "name": "G2",
          "midi": 43,
          "time": 36.46150199999999,
          "velocity": 0.7480314960629921,
          "duration": 0.23076900000000222
        },
        {
          "name": "G3",
          "midi": 55,
          "time": 36.69227099999999,
          "velocity": 0.7480314960629921,
          "duration": 0.23076900000000222
        },
        {
          "name": "D3",
          "midi": 50,
          "time": 36.69227099999999,
          "velocity": 0.7480314960629921,
          "duration": 0.23076900000000222
        },
        {
          "name": "G2",
          "midi": 43,
          "time": 36.69227099999999,
          "velocity": 0.7480314960629921,
          "duration": 0.23076900000000222
        },
        {
          "name": "E2",
          "midi": 40,
          "time": 36.92303999999999,
          "velocity": 0.7480314960629921,
          "duration": 0.23076900000000222
        },
        {
          "name": "E2",
          "midi": 40,
          "time": 37.153808999999995,
          "velocity": 0.7480314960629921,
          "duration": 0.11538449999999756
        },
        {
          "name": "E2",
          "midi": 40,
          "time": 37.26919349999999,
          "velocity": 0.7480314960629921,
          "duration": 0.23076900000000222
        },
        {
          "name": "E2",
          "midi": 40,
          "time": 37.499962499999995,
          "velocity": 0.7480314960629921,
          "duration": 0.11538449999999756
        },
        {
          "name": "E2",
          "midi": 40,
          "time": 37.61534699999999,
          "velocity": 0.7480314960629921,
          "duration": 0.11538449999999756
        },
        {
          "name": "E2",
          "midi": 40,
          "time": 37.73073149999999,
          "velocity": 0.7480314960629921,
          "duration": 0.11538449999999756
        },
        {
          "name": "B3",
          "midi": 59,
          "time": 37.84611599999999,
          "velocity": 0.7480314960629921,
          "duration": 0.23076900000000222
        },
        {
          "name": "E3",
          "midi": 52,
          "time": 37.84611599999999,
          "velocity": 0.7480314960629921,
          "duration": 0.23076900000000222
        },
        {
          "name": "E2",
          "midi": 40,
          "time": 38.07688499999999,
          "velocity": 0.7480314960629921,
          "duration": 0.11538449999999756
        },
        {
          "name": "A#3",
          "midi": 58,
          "time": 38.19226949999999,
          "velocity": 0.7480314960629921,
          "duration": 0.23076900000000222
        },
        {
          "name": "E3",
          "midi": 52,
          "time": 38.19226949999999,
          "velocity": 0.7480314960629921,
          "duration": 0.23076900000000222
        },
        {
          "name": "E2",
          "midi": 40,
          "time": 38.42303849999999,
          "velocity": 0.7480314960629921,
          "duration": 0.11538449999999756
        },
        {
          "name": "A3",
          "midi": 57,
          "time": 38.53842299999999,
          "velocity": 0.7480314960629921,
          "duration": 0.23076900000000222
        },
        {
          "name": "E3",
          "midi": 52,
          "time": 38.53842299999999,
          "velocity": 0.7480314960629921,
          "duration": 0.23076900000000222
        },
        {
          "name": "E2",
          "midi": 40,
          "time": 38.76919199999999,
          "velocity": 0.7480314960629921,
          "duration": 0.23076900000000222
        },
        {
          "name": "E2",
          "midi": 40,
          "time": 38.99996099999999,
          "velocity": 0.7480314960629921,
          "duration": 0.11538449999999756
        },
        {
          "name": "E2",
          "midi": 40,
          "time": 39.11534549999999,
          "velocity": 0.7480314960629921,
          "duration": 0.23076900000000222
        },
        {
          "name": "E2",
          "midi": 40,
          "time": 39.34611449999999,
          "velocity": 0.7480314960629921,
          "duration": 0.11538449999999756
        },
        {
          "name": "E2",
          "midi": 40,
          "time": 39.46149899999999,
          "velocity": 0.7480314960629921,
          "duration": 0.11538449999999756
        },
        {
          "name": "E2",
          "midi": 40,
          "time": 39.57688349999999,
          "velocity": 0.7480314960629921,
          "duration": 0.11538449999999756
        },
        {
          "name": "B3",
          "midi": 59,
          "time": 39.692267999999984,
          "velocity": 0.7480314960629921,
          "duration": 0.23076900000000222
        },
        {
          "name": "E3",
          "midi": 52,
          "time": 39.692267999999984,
          "velocity": 0.7480314960629921,
          "duration": 0.23076900000000222
        },
        {
          "name": "E2",
          "midi": 40,
          "time": 39.92303699999999,
          "velocity": 0.7480314960629921,
          "duration": 0.11538449999999756
        },
        {
          "name": "A#3",
          "midi": 58,
          "time": 40.038421499999984,
          "velocity": 0.7480314960629921,
          "duration": 0.23076900000000222
        },
        {
          "name": "E3",
          "midi": 52,
          "time": 40.038421499999984,
          "velocity": 0.7480314960629921,
          "duration": 0.23076900000000222
        },
        {
          "name": "E2",
          "midi": 40,
          "time": 40.269190499999986,
          "velocity": 0.7480314960629921,
          "duration": 0.11538449999999756
        },
        {
          "name": "A3",
          "midi": 57,
          "time": 40.384574999999984,
          "velocity": 0.7480314960629921,
          "duration": 0.23076900000000222
        },
        {
          "name": "E3",
          "midi": 52,
          "time": 40.384574999999984,
          "velocity": 0.7480314960629921,
          "duration": 0.23076900000000222
        },
        {
          "name": "E2",
          "midi": 40,
          "time": 40.615343999999986,
          "velocity": 0.7480314960629921,
          "duration": 0.23076900000000222
        },
        {
          "name": "E2",
          "midi": 40,
          "time": 40.84611299999999,
          "velocity": 0.7480314960629921,
          "duration": 0.11538449999999756
        },
        {
          "name": "E2",
          "midi": 40,
          "time": 40.961497499999986,
          "velocity": 0.7480314960629921,
          "duration": 0.23076900000000222
        },
        {
          "name": "E2",
          "midi": 40,
          "time": 41.19226649999999,
          "velocity": 0.7480314960629921,
          "duration": 0.11538449999999756
        },
        {
          "name": "E2",
          "midi": 40,
          "time": 41.307650999999986,
          "velocity": 0.7480314960629921,
          "duration": 0.11538449999999756
        },
        {
          "name": "E2",
          "midi": 40,
          "time": 41.42303549999998,
          "velocity": 0.7480314960629921,
          "duration": 0.11538449999999756
        },
        {
          "name": "B3",
          "midi": 59,
          "time": 41.53841999999998,
          "velocity": 0.7480314960629921,
          "duration": 0.23076900000000222
        },
        {
          "name": "E3",
          "midi": 52,
          "time": 41.53841999999998,
          "velocity": 0.7480314960629921,
          "duration": 0.23076900000000222
        },
        {
          "name": "E2",
          "midi": 40,
          "time": 41.76918899999998,
          "velocity": 0.7480314960629921,
          "duration": 0.11538449999999756
        },
        {
          "name": "A#3",
          "midi": 58,
          "time": 41.88457349999998,
          "velocity": 0.7480314960629921,
          "duration": 0.23076900000000222
        },
        {
          "name": "E3",
          "midi": 52,
          "time": 41.88457349999998,
          "velocity": 0.7480314960629921,
          "duration": 0.23076900000000222
        },
        {
          "name": "E2",
          "midi": 40,
          "time": 42.11534249999998,
          "velocity": 0.7480314960629921,
          "duration": 0.11538449999999756
        },
        {
          "name": "A3",
          "midi": 57,
          "time": 42.23072699999998,
          "velocity": 0.7480314960629921,
          "duration": 0.23076900000000222
        },
        {
          "name": "E3",
          "midi": 52,
          "time": 42.23072699999998,
          "velocity": 0.7480314960629921,
          "duration": 0.23076900000000222
        },
        {
          "name": "E2",
          "midi": 40,
          "time": 42.46149599999998,
          "velocity": 0.7480314960629921,
          "duration": 0.23076900000000222
        },
        {
          "name": "E2",
          "midi": 40,
          "time": 42.692264999999985,
          "velocity": 0.7480314960629921,
          "duration": 0.11538449999999756
        },
        {
          "name": "E2",
          "midi": 40,
          "time": 42.80764949999998,
          "velocity": 0.7480314960629921,
          "duration": 0.23076900000000222
        },
        {
          "name": "E2",
          "midi": 40,
          "time": 43.038418499999985,
          "velocity": 0.7480314960629921,
          "duration": 0.11538449999999756
        },
        {
          "name": "E2",
          "midi": 40,
          "time": 43.15380299999998,
          "velocity": 0.7480314960629921,
          "duration": 0.11538449999999756
        },
        {
          "name": "E2",
          "midi": 40,
          "time": 43.26918749999998,
          "velocity": 0.7480314960629921,
          "duration": 0.11538449999999756
        },
        {
          "name": "B3",
          "midi": 59,
          "time": 43.38457199999998,
          "velocity": 0.7480314960629921,
          "duration": 0.23076900000000222
        },
        {
          "name": "E3",
          "midi": 52,
          "time": 43.38457199999998,
          "velocity": 0.7480314960629921,
          "duration": 0.23076900000000222
        },
        {
          "name": "E2",
          "midi": 40,
          "time": 43.61534099999998,
          "velocity": 0.7480314960629921,
          "duration": 0.11538449999999756
        },
        {
          "name": "A#3",
          "midi": 58,
          "time": 43.73072549999998,
          "velocity": 0.7480314960629921,
          "duration": 0.23076900000000222
        },
        {
          "name": "E3",
          "midi": 52,
          "time": 43.73072549999998,
          "velocity": 0.7480314960629921,
          "duration": 0.23076900000000222
        },
        {
          "name": "E2",
          "midi": 40,
          "time": 43.96149449999998,
          "velocity": 0.7480314960629921,
          "duration": 0.11538449999999756
        },
        {
          "name": "A3",
          "midi": 57,
          "time": 44.07687899999998,
          "velocity": 0.7480314960629921,
          "duration": 0.23076900000000222
        },
        {
          "name": "E3",
          "midi": 52,
          "time": 44.07687899999998,
          "velocity": 0.7480314960629921,
          "duration": 0.23076900000000222
        },
        {
          "name": "D4",
          "midi": 62,
          "time": 44.30764799999998,
          "velocity": 0.7480314960629921,
          "duration": 1.8461519999999965
        },
        {
          "name": "A3",
          "midi": 57,
          "time": 44.30764799999998,
          "velocity": 0.7480314960629921,
          "duration": 1.8461519999999965
        },
        {
          "name": "D3",
          "midi": 50,
          "time": 44.30764799999998,
          "velocity": 0.7480314960629921,
          "duration": 1.8461519999999965
        },
        {
          "name": "C4",
          "midi": 60,
          "time": 46.153799999999976,
          "velocity": 0.7480314960629921,
          "duration": 1.8461519999999965
        },
        {
          "name": "G3",
          "midi": 55,
          "time": 46.153799999999976,
          "velocity": 0.7480314960629921,
          "duration": 1.8461519999999965
        },
        {
          "name": "C3",
          "midi": 48,
          "time": 46.153799999999976,
          "velocity": 0.7480314960629921,
          "duration": 1.8461519999999965
        },
        {
          "name": "E2",
          "midi": 40,
          "time": 47.99995199999997,
          "velocity": 0.7480314960629921,
          "duration": 0.23076900000000222
        },
        {
          "name": "E2",
          "midi": 40,
          "time": 48.230720999999974,
          "velocity": 0.7480314960629921,
          "duration": 0.11538449999999756
        },
        {
          "name": "E2",
          "midi": 40,
          "time": 48.34610549999997,
          "velocity": 0.7480314960629921,
          "duration": 0.23076900000000222
        },
        {
          "name": "E2",
          "midi": 40,
          "time": 48.576874499999974,
          "velocity": 0.7480314960629921,
          "duration": 0.11538449999999756
        },
        {
          "name": "E2",
          "midi": 40,
          "time": 48.69225899999997,
          "velocity": 0.7480314960629921,
          "duration": 0.11538449999999756
        },
        {
          "name": "E2",
          "midi": 40,
          "time": 48.80764349999997,
          "velocity": 0.7480314960629921,
          "duration": 0.11538449999999756
        },
        {
          "name": "B3",
          "midi": 59,
          "time": 48.92302799999997,
          "velocity": 0.7480314960629921,
          "duration": 0.23076900000000222
        },
        {
          "name": "E3",
          "midi": 52,
          "time": 48.92302799999997,
          "velocity": 0.7480314960629921,
          "duration": 0.23076900000000222
        },
        {
          "name": "E2",
          "midi": 40,
          "time": 49.15379699999997,
          "velocity": 0.7480314960629921,
          "duration": 0.11538449999999756
        },
        {
          "name": "A#3",
          "midi": 58,
          "time": 49.269181499999966,
          "velocity": 0.7480314960629921,
          "duration": 0.23076900000000222
        },
        {
          "name": "E3",
          "midi": 52,
          "time": 49.269181499999966,
          "velocity": 0.7480314960629921,
          "duration": 0.23076900000000222
        },
        {
          "name": "E2",
          "midi": 40,
          "time": 49.49995049999997,
          "velocity": 0.7480314960629921,
          "duration": 0.11538449999999756
        },
        {
          "name": "A3",
          "midi": 57,
          "time": 49.615334999999966,
          "velocity": 0.7480314960629921,
          "duration": 0.23076900000000222
        },
        {
          "name": "E3",
          "midi": 52,
          "time": 49.615334999999966,
          "velocity": 0.7480314960629921,
          "duration": 0.23076900000000222
        },
        {
          "name": "E2",
          "midi": 40,
          "time": 49.84610399999997,
          "velocity": 0.7480314960629921,
          "duration": 0.23076900000000222
        },
        {
          "name": "E2",
          "midi": 40,
          "time": 50.07687299999997,
          "velocity": 0.7480314960629921,
          "duration": 0.11538449999999756
        },
        {
          "name": "E2",
          "midi": 40,
          "time": 50.19225749999997,
          "velocity": 0.7480314960629921,
          "duration": 0.23076900000000222
        },
        {
          "name": "E2",
          "midi": 40,
          "time": 50.42302649999997,
          "velocity": 0.7480314960629921,
          "duration": 0.11538449999999756
        },
        {
          "name": "E2",
          "midi": 40,
          "time": 50.53841099999997,
          "velocity": 0.7480314960629921,
          "duration": 0.11538449999999756
        },
        {
          "name": "E2",
          "midi": 40,
          "time": 50.653795499999966,
          "velocity": 0.7480314960629921,
          "duration": 0.11538449999999756
        },
        {
          "name": "B3",
          "midi": 59,
          "time": 50.76917999999996,
          "velocity": 0.7480314960629921,
          "duration": 0.23076900000000222
        },
        {
          "name": "E3",
          "midi": 52,
          "time": 50.76917999999996,
          "velocity": 0.7480314960629921,
          "duration": 0.23076900000000222
        },
        {
          "name": "E2",
          "midi": 40,
          "time": 50.999948999999965,
          "velocity": 0.7480314960629921,
          "duration": 0.11538449999999756
        },
        {
          "name": "A#3",
          "midi": 58,
          "time": 51.11533349999996,
          "velocity": 0.7480314960629921,
          "duration": 0.23076900000000222
        },
        {
          "name": "E3",
          "midi": 52,
          "time": 51.11533349999996,
          "velocity": 0.7480314960629921,
          "duration": 0.23076900000000222
        },
        {
          "name": "E2",
          "midi": 40,
          "time": 51.346102499999965,
          "velocity": 0.7480314960629921,
          "duration": 0.11538449999999756
        },
        {
          "name": "A3",
          "midi": 57,
          "time": 51.46148699999996,
          "velocity": 0.7480314960629921,
          "duration": 0.23076900000000222
        },
        {
          "name": "E3",
          "midi": 52,
          "time": 51.46148699999996,
          "velocity": 0.7480314960629921,
          "duration": 0.23076900000000222
        },
        {
          "name": "D4",
          "midi": 62,
          "time": 51.692255999999965,
          "velocity": 0.7480314960629921,
          "duration": 1.8461519999999965
        },
        {
          "name": "A3",
          "midi": 57,
          "time": 51.692255999999965,
          "velocity": 0.7480314960629921,
          "duration": 1.8461519999999965
        },
        {
          "name": "D3",
          "midi": 50,
          "time": 51.692255999999965,
          "velocity": 0.7480314960629921,
          "duration": 1.8461519999999965
        },
        {
          "name": "C4",
          "midi": 60,
          "time": 53.53840799999996,
          "velocity": 0.7480314960629921,
          "duration": 1.8461519999999965
        },
        {
          "name": "G3",
          "midi": 55,
          "time": 53.53840799999996,
          "velocity": 0.7480314960629921,
          "duration": 1.8461519999999965
        },
        {
          "name": "C3",
          "midi": 48,
          "time": 53.53840799999996,
          "velocity": 0.7480314960629921,
          "duration": 1.8461519999999965
        }
      ],
      "controlChanges": {
        "7": [
          {
            "number": 7,
            "time": 0,
            "value": 0.8110236220472441
          },
          {
            "number": 7,
            "time": 0,
            "value": 0.8110236220472441
          }
        ],
        "10": [
          {
            "number": 10,
            "time": 0,
            "value": 0.49606299212598426
          },
          {
            "number": 10,
            "time": 0,
            "value": 0.49606299212598426
          }
        ],
        "11": [
          {
            "number": 11,
            "time": 0,
            "value": 1
          },
          {
            "number": 11,
            "time": 0,
            "value": 1
          }
        ],
        "91": [
          {
            "number": 91,
            "time": 0,
            "value": 0
          },
          {
            "number": 91,
            "time": 0,
            "value": 0
          }
        ],
        "92": [
          {
            "number": 92,
            "time": 0,
            "value": 0
          },
          {
            "number": 92,
            "time": 0,
            "value": 0
          }
        ],
        "93": [
          {
            "number": 93,
            "time": 0,
            "value": 0
          },
          {
            "number": 93,
            "time": 0,
            "value": 0
          }
        ],
        "95": [
          {
            "number": 95,
            "time": 0,
            "value": 0
          },
          {
            "number": 95,
            "time": 0,
            "value": 0
          }
        ]
      },
      "id": 1,
      "instrumentNumber": 30,
      "instrument": "distortion guitar",
      "instrumentFamily": "guitar",
      "channelNumber": 1,
      "isPercussion": false
    },
    {
      "startTime": 0,
      "duration": 55.384559999999965,
      "length": 205,
      "notes": [
        {
          "name": "E2",
          "midi": 40,
          "time": 0,
          "velocity": 0.7480314960629921,
          "duration": 0.23076899999999997
        },
        {
          "name": "E2",
          "midi": 40,
          "time": 0.23076899999999997,
          "velocity": 0.7480314960629921,
          "duration": 0.11538449999999997
        },
        {
          "name": "E2",
          "midi": 40,
          "time": 0.34615349999999995,
          "velocity": 0.7480314960629921,
          "duration": 0.23076899999999995
        },
        {
          "name": "E2",
          "midi": 40,
          "time": 0.5769224999999999,
          "velocity": 0.7480314960629921,
          "duration": 0.1153845
        },
        {
          "name": "E2",
          "midi": 40,
          "time": 0.6923069999999999,
          "velocity": 0.7480314960629921,
          "duration": 0.1153845
        },
        {
          "name": "E2",
          "midi": 40,
          "time": 0.8076914999999999,
          "velocity": 0.7480314960629921,
          "duration": 0.1153845
        },
        {
          "name": "E2",
          "midi": 40,
          "time": 0.9230759999999999,
          "velocity": 0.7480314960629921,
          "duration": 0.2307689999999999
        },
        {
          "name": "E2",
          "midi": 40,
          "time": 1.1538449999999998,
          "velocity": 0.7480314960629921,
          "duration": 0.230769
        },
        {
          "name": "E2",
          "midi": 40,
          "time": 1.3846139999999998,
          "velocity": 0.7480314960629921,
          "duration": 0.230769
        },
        {
          "name": "D2",
          "midi": 38,
          "time": 1.6153829999999998,
          "velocity": 0.7480314960629921,
          "duration": 0.230769
        },
        {
          "name": "E2",
          "midi": 40,
          "time": 1.8461519999999998,
          "velocity": 0.7480314960629921,
          "duration": 0.23076899999999978
        },
        {
          "name": "E2",
          "midi": 40,
          "time": 2.0769209999999996,
          "velocity": 0.7480314960629921,
          "duration": 0.11538449999999978
        },
        {
          "name": "E2",
          "midi": 40,
          "time": 2.1923054999999994,
          "velocity": 0.7480314960629921,
          "duration": 0.230769
        },
        {
          "name": "E2",
          "midi": 40,
          "time": 2.4230744999999994,
          "velocity": 0.7480314960629921,
          "duration": 0.11538449999999978
        },
        {
          "name": "E2",
          "midi": 40,
          "time": 2.538458999999999,
          "velocity": 0.7480314960629921,
          "duration": 0.11538449999999978
        },
        {
          "name": "E2",
          "midi": 40,
          "time": 2.653843499999999,
          "velocity": 0.7480314960629921,
          "duration": 0.11538449999999978
        },
        {
          "name": "E2",
          "midi": 40,
          "time": 2.7692279999999987,
          "velocity": 0.7480314960629921,
          "duration": 0.230769
        },
        {
          "name": "E2",
          "midi": 40,
          "time": 2.9999969999999987,
          "velocity": 0.7480314960629921,
          "duration": 0.230769
        },
        {
          "name": "E2",
          "midi": 40,
          "time": 3.2307659999999987,
          "velocity": 0.7480314960629921,
          "duration": 0.230769
        },
        {
          "name": "D2",
          "midi": 38,
          "time": 3.4615349999999987,
          "velocity": 0.7480314960629921,
          "duration": 0.230769
        },
        {
          "name": "E2",
          "midi": 40,
          "time": 3.6923039999999987,
          "velocity": 0.7480314960629921,
          "duration": 0.230769
        },
        {
          "name": "E2",
          "midi": 40,
          "time": 3.9230729999999987,
          "velocity": 0.7480314960629921,
          "duration": 0.11538450000000022
        },
        {
          "name": "E2",
          "midi": 40,
          "time": 4.038457499999999,
          "velocity": 0.7480314960629921,
          "duration": 0.23076899999999956
        },
        {
          "name": "E2",
          "midi": 40,
          "time": 4.2692264999999985,
          "velocity": 0.7480314960629921,
          "duration": 0.11538450000000022
        },
        {
          "name": "E2",
          "midi": 40,
          "time": 4.384610999999999,
          "velocity": 0.7480314960629921,
          "duration": 0.11538450000000022
        },
        {
          "name": "E2",
          "midi": 40,
          "time": 4.499995499999999,
          "velocity": 0.7480314960629921,
          "duration": 0.11538450000000022
        },
        {
          "name": "E2",
          "midi": 40,
          "time": 4.615379999999999,
          "velocity": 0.7480314960629921,
          "duration": 0.23076899999999956
        },
        {
          "name": "E2",
          "midi": 40,
          "time": 4.846148999999999,
          "velocity": 0.7480314960629921,
          "duration": 0.23076899999999956
        },
        {
          "name": "E2",
          "midi": 40,
          "time": 5.076917999999998,
          "velocity": 0.7480314960629921,
          "duration": 0.23076899999999956
        },
        {
          "name": "D2",
          "midi": 38,
          "time": 5.307686999999998,
          "velocity": 0.7480314960629921,
          "duration": 0.23076899999999956
        },
        {
          "name": "E2",
          "midi": 40,
          "time": 5.538455999999997,
          "velocity": 0.7480314960629921,
          "duration": 0.23076899999999956
        },
        {
          "name": "E2",
          "midi": 40,
          "time": 5.769224999999997,
          "velocity": 0.7480314960629921,
          "duration": 0.11538450000000022
        },
        {
          "name": "E2",
          "midi": 40,
          "time": 5.884609499999997,
          "velocity": 0.7480314960629921,
          "duration": 0.23076899999999956
        },
        {
          "name": "E2",
          "midi": 40,
          "time": 6.115378499999997,
          "velocity": 0.7480314960629921,
          "duration": 0.11538450000000022
        },
        {
          "name": "E2",
          "midi": 40,
          "time": 6.230762999999997,
          "velocity": 0.7480314960629921,
          "duration": 0.11538450000000022
        },
        {
          "name": "E2",
          "midi": 40,
          "time": 6.346147499999997,
          "velocity": 0.7480314960629921,
          "duration": 0.11538450000000022
        },
        {
          "name": "E2",
          "midi": 40,
          "time": 6.461531999999997,
          "velocity": 0.7480314960629921,
          "duration": 0.23076899999999956
        },
        {
          "name": "E2",
          "midi": 40,
          "time": 6.692300999999997,
          "velocity": 0.7480314960629921,
          "duration": 0.23076899999999956
        },
        {
          "name": "E2",
          "midi": 40,
          "time": 6.9230699999999965,
          "velocity": 0.7480314960629921,
          "duration": 0.23076899999999956
        },
        {
          "name": "D2",
          "midi": 38,
          "time": 7.153838999999996,
          "velocity": 0.7480314960629921,
          "duration": 0.23076899999999956
        },
        {
          "name": "E1",
          "midi": 28,
          "time": 7.384607999999996,
          "velocity": 0.7480314960629921,
          "duration": 0.23076899999999956
        },
        {
          "name": "E1",
          "midi": 28,
          "time": 7.615376999999995,
          "velocity": 0.7480314960629921,
          "duration": 0.11538450000000022
        },
        {
          "name": "E1",
          "midi": 28,
          "time": 7.730761499999995,
          "velocity": 0.7480314960629921,
          "duration": 0.23076899999999956
        },
        {
          "name": "E1",
          "midi": 28,
          "time": 7.961530499999995,
          "velocity": 0.7480314960629921,
          "duration": 0.11538449999999933
        },
        {
          "name": "E1",
          "midi": 28,
          "time": 8.076914999999994,
          "velocity": 0.7480314960629921,
          "duration": 0.11538449999999933
        },
        {
          "name": "E1",
          "midi": 28,
          "time": 8.192299499999994,
          "velocity": 0.7480314960629921,
          "duration": 0.11538449999999933
        },
        {
          "name": "E1",
          "midi": 28,
          "time": 8.307683999999993,
          "velocity": 0.7480314960629921,
          "duration": 0.3461534999999998
        },
        {
          "name": "E1",
          "midi": 28,
          "time": 8.653837499999993,
          "velocity": 0.7480314960629921,
          "duration": 0.3461534999999998
        },
        {
          "name": "E1",
          "midi": 28,
          "time": 8.999990999999993,
          "velocity": 0.7480314960629921,
          "duration": 0.23076900000000045
        },
        {
          "name": "E1",
          "midi": 28,
          "time": 9.230759999999993,
          "velocity": 0.7480314960629921,
          "duration": 0.23076900000000045
        },
        {
          "name": "E1",
          "midi": 28,
          "time": 9.461528999999993,
          "velocity": 0.7480314960629921,
          "duration": 0.11538449999999933
        },
        {
          "name": "E1",
          "midi": 28,
          "time": 9.576913499999993,
          "velocity": 0.7480314960629921,
          "duration": 0.23076900000000045
        },
        {
          "name": "E1",
          "midi": 28,
          "time": 9.807682499999993,
          "velocity": 0.7480314960629921,
          "duration": 0.11538449999999933
        },
        {
          "name": "E1",
          "midi": 28,
          "time": 9.923066999999993,
          "velocity": 0.7480314960629921,
          "duration": 0.11538449999999933
        },
        {
          "name": "E1",
          "midi": 28,
          "time": 10.038451499999992,
          "velocity": 0.7480314960629921,
          "duration": 0.11538449999999933
        },
        {
          "name": "E1",
          "midi": 28,
          "time": 10.153835999999991,
          "velocity": 0.7480314960629921,
          "duration": 0.3461534999999998
        },
        {
          "name": "E1",
          "midi": 28,
          "time": 10.499989499999991,
          "velocity": 0.7480314960629921,
          "duration": 0.3461534999999998
        },
        {
          "name": "E1",
          "midi": 28,
          "time": 10.84614299999999,
          "velocity": 0.7480314960629921,
          "duration": 0.23076900000000045
        },
        {
          "name": "E1",
          "midi": 28,
          "time": 11.076911999999991,
          "velocity": 0.7480314960629921,
          "duration": 0.23076900000000045
        },
        {
          "name": "E1",
          "midi": 28,
          "time": 11.307680999999992,
          "velocity": 0.7480314960629921,
          "duration": 0.11538449999999933
        },
        {
          "name": "E1",
          "midi": 28,
          "time": 11.423065499999991,
          "velocity": 0.7480314960629921,
          "duration": 0.23076900000000045
        },
        {
          "name": "E1",
          "midi": 28,
          "time": 11.653834499999991,
          "velocity": 0.7480314960629921,
          "duration": 0.11538449999999933
        },
        {
          "name": "E1",
          "midi": 28,
          "time": 11.76921899999999,
          "velocity": 0.7480314960629921,
          "duration": 0.11538449999999933
        },
        {
          "name": "E1",
          "midi": 28,
          "time": 11.88460349999999,
          "velocity": 0.7480314960629921,
          "duration": 0.11538449999999933
        },
        {
          "name": "E1",
          "midi": 28,
          "time": 11.99998799999999,
          "velocity": 0.7480314960629921,
          "duration": 0.3461534999999998
        },
        {
          "name": "E1",
          "midi": 28,
          "time": 12.34614149999999,
          "velocity": 0.7480314960629921,
          "duration": 0.3461534999999998
        },
        {
          "name": "E1",
          "midi": 28,
          "time": 12.692294999999989,
          "velocity": 0.7480314960629921,
          "duration": 0.23076900000000045
        },
        {
          "name": "E1",
          "midi": 28,
          "time": 12.92306399999999,
          "velocity": 0.7480314960629921,
          "duration": 0.23076900000000045
        },
        {
          "name": "E1",
          "midi": 28,
          "time": 13.15383299999999,
          "velocity": 0.7480314960629921,
          "duration": 0.11538449999999933
        },
        {
          "name": "E1",
          "midi": 28,
          "time": 13.26921749999999,
          "velocity": 0.7480314960629921,
          "duration": 0.23076900000000045
        },
        {
          "name": "E1",
          "midi": 28,
          "time": 13.49998649999999,
          "velocity": 0.7480314960629921,
          "duration": 0.11538449999999933
        },
        {
          "name": "E1",
          "midi": 28,
          "time": 13.615370999999989,
          "velocity": 0.7480314960629921,
          "duration": 0.11538449999999933
        },
        {
          "name": "E1",
          "midi": 28,
          "time": 13.730755499999988,
          "velocity": 0.7480314960629921,
          "duration": 0.11538449999999933
        },
        {
          "name": "E1",
          "midi": 28,
          "time": 13.846139999999988,
          "velocity": 0.7480314960629921,
          "duration": 0.3461534999999998
        },
        {
          "name": "E1",
          "midi": 28,
          "time": 14.192293499999987,
          "velocity": 0.7480314960629921,
          "duration": 0.3461534999999998
        },
        {
          "name": "E1",
          "midi": 28,
          "time": 14.538446999999987,
          "velocity": 0.7480314960629921,
          "duration": 0.23076900000000045
        },
        {
          "name": "G1",
          "midi": 31,
          "time": 14.769215999999988,
          "velocity": 0.7480314960629921,
          "duration": 1.6153829999999996
        },
        {
          "name": "E1",
          "midi": 28,
          "time": 16.384598999999987,
          "velocity": 0.7480314960629921,
          "duration": 0.23076899999999867
        },
        {
          "name": "G1",
          "midi": 31,
          "time": 16.615367999999986,
          "velocity": 0.7480314960629921,
          "duration": 1.6153830000000013
        },
        {
          "name": "E1",
          "midi": 28,
          "time": 18.230750999999987,
          "velocity": 0.7480314960629921,
          "duration": 0.23076899999999867
        },
        {
          "name": "G1",
          "midi": 31,
          "time": 18.461519999999986,
          "velocity": 0.7480314960629921,
          "duration": 1.6153830000000013
        },
        {
          "name": "E1",
          "midi": 28,
          "time": 20.076902999999987,
          "velocity": 0.7480314960629921,
          "duration": 0.23076899999999867
        },
        {
          "name": "G1",
          "midi": 31,
          "time": 20.307671999999986,
          "velocity": 0.7480314960629921,
          "duration": 0.3461534999999998
        },
        {
          "name": "G1",
          "midi": 31,
          "time": 20.653825499999986,
          "velocity": 0.7480314960629921,
          "duration": 0.3461534999999998
        },
        {
          "name": "G1",
          "midi": 31,
          "time": 20.999978999999986,
          "velocity": 0.7480314960629921,
          "duration": 0.3461534999999998
        },
        {
          "name": "G1",
          "midi": 31,
          "time": 21.346132499999985,
          "velocity": 0.7480314960629921,
          "duration": 0.3461534999999998
        },
        {
          "name": "G1",
          "midi": 31,
          "time": 21.692285999999985,
          "velocity": 0.7480314960629921,
          "duration": 0.23076899999999867
        },
        {
          "name": "G1",
          "midi": 31,
          "time": 21.923054999999984,
          "velocity": 0.7480314960629921,
          "duration": 0.23076899999999867
        },
        {
          "name": "E1",
          "midi": 28,
          "time": 22.153823999999982,
          "velocity": 0.7480314960629921,
          "duration": 0.23076899999999867
        },
        {
          "name": "E1",
          "midi": 28,
          "time": 22.38459299999998,
          "velocity": 0.7480314960629921,
          "duration": 0.11538450000000111
        },
        {
          "name": "E1",
          "midi": 28,
          "time": 22.499977499999982,
          "velocity": 0.7480314960629921,
          "duration": 0.23076899999999867
        },
        {
          "name": "E1",
          "midi": 28,
          "time": 22.73074649999998,
          "velocity": 0.7480314960629921,
          "duration": 0.11538450000000111
        },
        {
          "name": "E1",
          "midi": 28,
          "time": 22.846130999999982,
          "velocity": 0.7480314960629921,
          "duration": 0.11538450000000111
        },
        {
          "name": "E1",
          "midi": 28,
          "time": 22.961515499999983,
          "velocity": 0.7480314960629921,
          "duration": 0.11538450000000111
        },
        {
          "name": "E1",
          "midi": 28,
          "time": 23.076899999999984,
          "velocity": 0.7480314960629921,
          "duration": 0.3461534999999998
        },
        {
          "name": "E1",
          "midi": 28,
          "time": 23.423053499999984,
          "velocity": 0.7480314960629921,
          "duration": 0.3461534999999998
        },
        {
          "name": "E1",
          "midi": 28,
          "time": 23.769206999999984,
          "velocity": 0.7480314960629921,
          "duration": 0.23076899999999867
        },
        {
          "name": "E1",
          "midi": 28,
          "time": 23.999975999999982,
          "velocity": 0.7480314960629921,
          "duration": 0.23076899999999867
        },
        {
          "name": "E1",
          "midi": 28,
          "time": 24.23074499999998,
          "velocity": 0.7480314960629921,
          "duration": 0.11538450000000111
        },
        {
          "name": "E1",
          "midi": 28,
          "time": 24.346129499999982,
          "velocity": 0.7480314960629921,
          "duration": 0.23076899999999867
        },
        {
          "name": "E1",
          "midi": 28,
          "time": 24.57689849999998,
          "velocity": 0.7480314960629921,
          "duration": 0.11538450000000111
        },
        {
          "name": "E1",
          "midi": 28,
          "time": 24.692282999999982,
          "velocity": 0.7480314960629921,
          "duration": 0.11538450000000111
        },
        {
          "name": "E1",
          "midi": 28,
          "time": 24.807667499999983,
          "velocity": 0.7480314960629921,
          "duration": 0.11538450000000111
        },
        {
          "name": "E1",
          "midi": 28,
          "time": 24.923051999999984,
          "velocity": 0.7480314960629921,
          "duration": 0.3461534999999998
        },
        {
          "name": "E1",
          "midi": 28,
          "time": 25.269205499999984,
          "velocity": 0.7480314960629921,
          "duration": 0.3461534999999998
        },
        {
          "name": "E1",
          "midi": 28,
          "time": 25.615358999999984,
          "velocity": 0.7480314960629921,
          "duration": 0.23076899999999867
        },
        {
          "name": "E1",
          "midi": 28,
          "time": 25.846127999999982,
          "velocity": 0.7480314960629921,
          "duration": 0.23076899999999867
        },
        {
          "name": "E1",
          "midi": 28,
          "time": 26.07689699999998,
          "velocity": 0.7480314960629921,
          "duration": 0.11538450000000111
        },
        {
          "name": "E1",
          "midi": 28,
          "time": 26.192281499999982,
          "velocity": 0.7480314960629921,
          "duration": 0.23076899999999867
        },
        {
          "name": "E1",
          "midi": 28,
          "time": 26.42305049999998,
          "velocity": 0.7480314960629921,
          "duration": 0.11538450000000111
        },
        {
          "name": "E1",
          "midi": 28,
          "time": 26.538434999999982,
          "velocity": 0.7480314960629921,
          "duration": 0.11538450000000111
        },
        {
          "name": "E1",
          "midi": 28,
          "time": 26.653819499999983,
          "velocity": 0.7480314960629921,
          "duration": 0.11538450000000111
        },
        {
          "name": "E1",
          "midi": 28,
          "time": 26.769203999999984,
          "velocity": 0.7480314960629921,
          "duration": 0.3461534999999998
        },
        {
          "name": "E1",
          "midi": 28,
          "time": 27.115357499999984,
          "velocity": 0.7480314960629921,
          "duration": 0.3461534999999998
        },
        {
          "name": "E1",
          "midi": 28,
          "time": 27.461510999999984,
          "velocity": 0.7480314960629921,
          "duration": 0.23076899999999867
        },
        {
          "name": "E1",
          "midi": 28,
          "time": 27.692279999999982,
          "velocity": 0.7480314960629921,
          "duration": 0.23076899999999867
        },
        {
          "name": "E1",
          "midi": 28,
          "time": 27.92304899999998,
          "velocity": 0.7480314960629921,
          "duration": 0.11538450000000111
        },
        {
          "name": "E1",
          "midi": 28,
          "time": 28.038433499999982,
          "velocity": 0.7480314960629921,
          "duration": 0.23076899999999867
        },
        {
          "name": "E1",
          "midi": 28,
          "time": 28.26920249999998,
          "velocity": 0.7480314960629921,
          "duration": 0.11538450000000111
        },
        {
          "name": "E1",
          "midi": 28,
          "time": 28.384586999999982,
          "velocity": 0.7480314960629921,
          "duration": 0.11538450000000111
        },
        {
          "name": "E1",
          "midi": 28,
          "time": 28.499971499999983,
          "velocity": 0.7480314960629921,
          "duration": 0.11538450000000111
        },
        {
          "name": "E1",
          "midi": 28,
          "time": 28.615355999999984,
          "velocity": 0.7480314960629921,
          "duration": 0.3461534999999998
        },
        {
          "name": "E1",
          "midi": 28,
          "time": 28.961509499999984,
          "velocity": 0.7480314960629921,
          "duration": 0.3461534999999998
        },
        {
          "name": "E1",
          "midi": 28,
          "time": 29.307662999999984,
          "velocity": 0.7480314960629921,
          "duration": 0.23076899999999867
        },
        {
          "name": "G1",
          "midi": 31,
          "time": 29.538431999999982,
          "velocity": 0.7480314960629921,
          "duration": 1.6153830000000013
        },
        {
          "name": "E1",
          "midi": 28,
          "time": 31.153814999999984,
          "velocity": 0.7480314960629921,
          "duration": 0.23076899999999867
        },
        {
          "name": "G1",
          "midi": 31,
          "time": 31.384583999999982,
          "velocity": 0.7480314960629921,
          "duration": 1.6153830000000013
        },
        {
          "name": "E1",
          "midi": 28,
          "time": 32.999966999999984,
          "velocity": 0.7480314960629921,
          "duration": 0.23076900000000222
        },
        {
          "name": "G1",
          "midi": 31,
          "time": 33.230735999999986,
          "velocity": 0.7480314960629921,
          "duration": 1.6153830000000013
        },
        {
          "name": "E1",
          "midi": 28,
          "time": 34.84611899999999,
          "velocity": 0.7480314960629921,
          "duration": 0.23076900000000222
        },
        {
          "name": "G1",
          "midi": 31,
          "time": 35.07688799999999,
          "velocity": 0.7480314960629921,
          "duration": 0.3461534999999998
        },
        {
          "name": "G1",
          "midi": 31,
          "time": 35.42304149999999,
          "velocity": 0.7480314960629921,
          "duration": 0.3461534999999998
        },
        {
          "name": "G1",
          "midi": 31,
          "time": 35.76919499999999,
          "velocity": 0.7480314960629921,
          "duration": 0.3461534999999998
        },
        {
          "name": "G1",
          "midi": 31,
          "time": 36.11534849999999,
          "velocity": 0.7480314960629921,
          "duration": 0.3461534999999998
        },
        {
          "name": "G1",
          "midi": 31,
          "time": 36.46150199999999,
          "velocity": 0.7480314960629921,
          "duration": 0.23076900000000222
        },
        {
          "name": "G1",
          "midi": 31,
          "time": 36.69227099999999,
          "velocity": 0.7480314960629921,
          "duration": 0.23076900000000222
        },
        {
          "name": "E1",
          "midi": 28,
          "time": 36.92303999999999,
          "velocity": 0.7480314960629921,
          "duration": 0.23076900000000222
        },
        {
          "name": "E1",
          "midi": 28,
          "time": 37.153808999999995,
          "velocity": 0.7480314960629921,
          "duration": 0.11538449999999756
        },
        {
          "name": "E1",
          "midi": 28,
          "time": 37.26919349999999,
          "velocity": 0.7480314960629921,
          "duration": 0.23076900000000222
        },
        {
          "name": "E1",
          "midi": 28,
          "time": 37.499962499999995,
          "velocity": 0.7480314960629921,
          "duration": 0.11538449999999756
        },
        {
          "name": "E1",
          "midi": 28,
          "time": 37.61534699999999,
          "velocity": 0.7480314960629921,
          "duration": 0.11538449999999756
        },
        {
          "name": "E1",
          "midi": 28,
          "time": 37.73073149999999,
          "velocity": 0.7480314960629921,
          "duration": 0.11538449999999756
        },
        {
          "name": "E1",
          "midi": 28,
          "time": 37.84611599999999,
          "velocity": 0.7480314960629921,
          "duration": 0.23076900000000222
        },
        {
          "name": "E1",
          "midi": 28,
          "time": 38.07688499999999,
          "velocity": 0.7480314960629921,
          "duration": 0.11538449999999756
        },
        {
          "name": "E1",
          "midi": 28,
          "time": 38.19226949999999,
          "velocity": 0.7480314960629921,
          "duration": 0.23076900000000222
        },
        {
          "name": "E1",
          "midi": 28,
          "time": 38.42303849999999,
          "velocity": 0.7480314960629921,
          "duration": 0.11538449999999756
        },
        {
          "name": "E1",
          "midi": 28,
          "time": 38.53842299999999,
          "velocity": 0.7480314960629921,
          "duration": 0.23076900000000222
        },
        {
          "name": "E1",
          "midi": 28,
          "time": 38.76919199999999,
          "velocity": 0.7480314960629921,
          "duration": 0.23076900000000222
        },
        {
          "name": "E1",
          "midi": 28,
          "time": 38.99996099999999,
          "velocity": 0.7480314960629921,
          "duration": 0.11538449999999756
        },
        {
          "name": "E1",
          "midi": 28,
          "time": 39.11534549999999,
          "velocity": 0.7480314960629921,
          "duration": 0.23076900000000222
        },
        {
          "name": "E1",
          "midi": 28,
          "time": 39.34611449999999,
          "velocity": 0.7480314960629921,
          "duration": 0.11538449999999756
        },
        {
          "name": "E1",
          "midi": 28,
          "time": 39.46149899999999,
          "velocity": 0.7480314960629921,
          "duration": 0.11538449999999756
        },
        {
          "name": "E1",
          "midi": 28,
          "time": 39.57688349999999,
          "velocity": 0.7480314960629921,
          "duration": 0.11538449999999756
        },
        {
          "name": "E1",
          "midi": 28,
          "time": 39.692267999999984,
          "velocity": 0.7480314960629921,
          "duration": 0.23076900000000222
        },
        {
          "name": "E1",
          "midi": 28,
          "time": 39.92303699999999,
          "velocity": 0.7480314960629921,
          "duration": 0.11538449999999756
        },
        {
          "name": "E1",
          "midi": 28,
          "time": 40.038421499999984,
          "velocity": 0.7480314960629921,
          "duration": 0.23076900000000222
        },
        {
          "name": "E1",
          "midi": 28,
          "time": 40.269190499999986,
          "velocity": 0.7480314960629921,
          "duration": 0.11538449999999756
        },
        {
          "name": "E1",
          "midi": 28,
          "time": 40.384574999999984,
          "velocity": 0.7480314960629921,
          "duration": 0.23076900000000222
        },
        {
          "name": "E1",
          "midi": 28,
          "time": 40.615343999999986,
          "velocity": 0.7480314960629921,
          "duration": 0.23076900000000222
        },
        {
          "name": "E1",
          "midi": 28,
          "time": 40.84611299999999,
          "velocity": 0.7480314960629921,
          "duration": 0.11538449999999756
        },
        {
          "name": "E1",
          "midi": 28,
          "time": 40.961497499999986,
          "velocity": 0.7480314960629921,
          "duration": 0.23076900000000222
        },
        {
          "name": "E1",
          "midi": 28,
          "time": 41.19226649999999,
          "velocity": 0.7480314960629921,
          "duration": 0.11538449999999756
        },
        {
          "name": "E1",
          "midi": 28,
          "time": 41.307650999999986,
          "velocity": 0.7480314960629921,
          "duration": 0.11538449999999756
        },
        {
          "name": "E1",
          "midi": 28,
          "time": 41.42303549999998,
          "velocity": 0.7480314960629921,
          "duration": 0.11538449999999756
        },
        {
          "name": "E1",
          "midi": 28,
          "time": 41.53841999999998,
          "velocity": 0.7480314960629921,
          "duration": 0.23076900000000222
        },
        {
          "name": "E1",
          "midi": 28,
          "time": 41.76918899999998,
          "velocity": 0.7480314960629921,
          "duration": 0.11538449999999756
        },
        {
          "name": "E1",
          "midi": 28,
          "time": 41.88457349999998,
          "velocity": 0.7480314960629921,
          "duration": 0.23076900000000222
        },
        {
          "name": "E1",
          "midi": 28,
          "time": 42.11534249999998,
          "velocity": 0.7480314960629921,
          "duration": 0.11538449999999756
        },
        {
          "name": "E1",
          "midi": 28,
          "time": 42.23072699999998,
          "velocity": 0.7480314960629921,
          "duration": 0.23076900000000222
        },
        {
          "name": "E1",
          "midi": 28,
          "time": 42.46149599999998,
          "velocity": 0.7480314960629921,
          "duration": 0.23076900000000222
        },
        {
          "name": "E1",
          "midi": 28,
          "time": 42.692264999999985,
          "velocity": 0.7480314960629921,
          "duration": 0.11538449999999756
        },
        {
          "name": "E1",
          "midi": 28,
          "time": 42.80764949999998,
          "velocity": 0.7480314960629921,
          "duration": 0.23076900000000222
        },
        {
          "name": "E1",
          "midi": 28,
          "time": 43.038418499999985,
          "velocity": 0.7480314960629921,
          "duration": 0.11538449999999756
        },
        {
          "name": "E1",
          "midi": 28,
          "time": 43.15380299999998,
          "velocity": 0.7480314960629921,
          "duration": 0.11538449999999756
        },
        {
          "name": "E1",
          "midi": 28,
          "time": 43.26918749999998,
          "velocity": 0.7480314960629921,
          "duration": 0.11538449999999756
        },
        {
          "name": "E1",
          "midi": 28,
          "time": 43.38457199999998,
          "velocity": 0.7480314960629921,
          "duration": 0.23076900000000222
        },
        {
          "name": "E1",
          "midi": 28,
          "time": 43.61534099999998,
          "velocity": 0.7480314960629921,
          "duration": 0.11538449999999756
        },
        {
          "name": "E1",
          "midi": 28,
          "time": 43.73072549999998,
          "velocity": 0.7480314960629921,
          "duration": 0.23076900000000222
        },
        {
          "name": "E1",
          "midi": 28,
          "time": 43.96149449999998,
          "velocity": 0.7480314960629921,
          "duration": 0.11538449999999756
        },
        {
          "name": "E1",
          "midi": 28,
          "time": 44.07687899999998,
          "velocity": 0.7480314960629921,
          "duration": 0.23076900000000222
        },
        {
          "name": "D2",
          "midi": 38,
          "time": 44.30764799999998,
          "velocity": 0.7480314960629921,
          "duration": 1.8461519999999965
        },
        {
          "name": "C2",
          "midi": 36,
          "time": 46.153799999999976,
          "velocity": 0.7480314960629921,
          "duration": 1.8461519999999965
        },
        {
          "name": "E1",
          "midi": 28,
          "time": 47.99995199999997,
          "velocity": 0.7480314960629921,
          "duration": 0.23076900000000222
        },
        {
          "name": "E1",
          "midi": 28,
          "time": 48.230720999999974,
          "velocity": 0.7480314960629921,
          "duration": 0.11538449999999756
        },
        {
          "name": "E1",
          "midi": 28,
          "time": 48.34610549999997,
          "velocity": 0.7480314960629921,
          "duration": 0.23076900000000222
        },
        {
          "name": "E1",
          "midi": 28,
          "time": 48.576874499999974,
          "velocity": 0.7480314960629921,
          "duration": 0.11538449999999756
        },
        {
          "name": "E1",
          "midi": 28,
          "time": 48.69225899999997,
          "velocity": 0.7480314960629921,
          "duration": 0.11538449999999756
        },
        {
          "name": "E1",
          "midi": 28,
          "time": 48.80764349999997,
          "velocity": 0.7480314960629921,
          "duration": 0.11538449999999756
        },
        {
          "name": "E1",
          "midi": 28,
          "time": 48.92302799999997,
          "velocity": 0.7480314960629921,
          "duration": 0.23076900000000222
        },
        {
          "name": "E1",
          "midi": 28,
          "time": 49.15379699999997,
          "velocity": 0.7480314960629921,
          "duration": 0.11538449999999756
        },
        {
          "name": "E1",
          "midi": 28,
          "time": 49.269181499999966,
          "velocity": 0.7480314960629921,
          "duration": 0.23076900000000222
        },
        {
          "name": "E1",
          "midi": 28,
          "time": 49.49995049999997,
          "velocity": 0.7480314960629921,
          "duration": 0.11538449999999756
        },
        {
          "name": "E1",
          "midi": 28,
          "time": 49.615334999999966,
          "velocity": 0.7480314960629921,
          "duration": 0.23076900000000222
        },
        {
          "name": "E1",
          "midi": 28,
          "time": 49.84610399999997,
          "velocity": 0.7480314960629921,
          "duration": 0.23076900000000222
        },
        {
          "name": "E1",
          "midi": 28,
          "time": 50.07687299999997,
          "velocity": 0.7480314960629921,
          "duration": 0.11538449999999756
        },
        {
          "name": "E1",
          "midi": 28,
          "time": 50.19225749999997,
          "velocity": 0.7480314960629921,
          "duration": 0.23076900000000222
        },
        {
          "name": "E1",
          "midi": 28,
          "time": 50.42302649999997,
          "velocity": 0.7480314960629921,
          "duration": 0.11538449999999756
        },
        {
          "name": "E1",
          "midi": 28,
          "time": 50.53841099999997,
          "velocity": 0.7480314960629921,
          "duration": 0.23076900000000222
        },
        {
          "name": "E1",
          "midi": 28,
          "time": 50.76917999999997,
          "velocity": 0.7480314960629921,
          "duration": 0.23076900000000222
        },
        {
          "name": "E1",
          "midi": 28,
          "time": 50.99994899999997,
          "velocity": 0.7480314960629921,
          "duration": 0.11538449999999756
        },
        {
          "name": "E1",
          "midi": 28,
          "time": 51.11533349999997,
          "velocity": 0.7480314960629921,
          "duration": 0.23076900000000222
        },
        {
          "name": "E1",
          "midi": 28,
          "time": 51.34610249999997,
          "velocity": 0.7480314960629921,
          "duration": 0.11538449999999756
        },
        {
          "name": "E1",
          "midi": 28,
          "time": 51.46148699999997,
          "velocity": 0.7480314960629921,
          "duration": 0.23076900000000222
        },
        {
          "name": "D2",
          "midi": 38,
          "time": 51.69225599999997,
          "velocity": 0.7480314960629921,
          "duration": 1.8461519999999965
        },
        {
          "name": "C2",
          "midi": 36,
          "time": 53.53840799999997,
          "velocity": 0.7480314960629921,
          "duration": 1.8461519999999965
        }
      ],
      "controlChanges": {
        "7": [
          {
            "number": 7,
            "time": 0,
            "value": 0.8110236220472441
          },
          {
            "number": 7,
            "time": 0,
            "value": 0.8110236220472441
          }
        ],
        "10": [
          {
            "number": 10,
            "time": 0,
            "value": 0.49606299212598426
          },
          {
            "number": 10,
            "time": 0,
            "value": 0.49606299212598426
          }
        ],
        "11": [
          {
            "number": 11,
            "time": 0,
            "value": 1
          },
          {
            "number": 11,
            "time": 0,
            "value": 1
          }
        ],
        "91": [
          {
            "number": 91,
            "time": 0,
            "value": 0
          },
          {
            "number": 91,
            "time": 0,
            "value": 0
          }
        ],
        "92": [
          {
            "number": 92,
            "time": 0,
            "value": 0
          },
          {
            "number": 92,
            "time": 0,
            "value": 0
          }
        ],
        "93": [
          {
            "number": 93,
            "time": 0,
            "value": 0
          },
          {
            "number": 93,
            "time": 0,
            "value": 0
          }
        ],
        "95": [
          {
            "number": 95,
            "time": 0,
            "value": 0
          },
          {
            "number": 95,
            "time": 0,
            "value": 0
          }
        ]
      },
      "id": 2,
      "instrumentNumber": 34,
      "instrument": "electric bass (pick)",
      "instrumentFamily": "bass",
      "channelNumber": 3,
      "isPercussion": false
    },
    {
      "startTime": 3.6923039999999996,
      "duration": 55.384559999999645,
      "length": 860,
      "notes": [
        {
          "name": "D2",
          "midi": 38,
          "time": 3.6923039999999996,
          "velocity": 0.7480314960629921,
          "duration": 0.11538449999999978
        },
        {
          "name": "D2",
          "midi": 38,
          "time": 3.8076884999999994,
          "velocity": 0.7480314960629921,
          "duration": 0.11538449999999978
        },
        {
          "name": "D2",
          "midi": 38,
          "time": 3.923072999999999,
          "velocity": 0.7480314960629921,
          "duration": 0.11538449999999978
        },
        {
          "name": "D2",
          "midi": 38,
          "time": 4.038457499999999,
          "velocity": 0.7480314960629921,
          "duration": 0.11538450000000022
        },
        {
          "name": "D2",
          "midi": 38,
          "time": 4.153841999999999,
          "velocity": 0.7480314960629921,
          "duration": 0.11538450000000022
        },
        {
          "name": "D2",
          "midi": 38,
          "time": 4.269226499999999,
          "velocity": 0.7480314960629921,
          "duration": 0.11538450000000022
        },
        {
          "name": "D2",
          "midi": 38,
          "time": 4.384611,
          "velocity": 0.7480314960629921,
          "duration": 0.11538450000000022
        },
        {
          "name": "D2",
          "midi": 38,
          "time": 4.4999955,
          "velocity": 0.7480314960629921,
          "duration": 0.11538450000000022
        },
        {
          "name": "D2",
          "midi": 38,
          "time": 4.61538,
          "velocity": 0.7480314960629921,
          "duration": 0.11538450000000022
        },
        {
          "name": "D2",
          "midi": 38,
          "time": 4.7307645,
          "velocity": 0.7480314960629921,
          "duration": 0.11538450000000022
        },
        {
          "name": "D2",
          "midi": 38,
          "time": 4.8461490000000005,
          "velocity": 0.7480314960629921,
          "duration": 0.11538450000000022
        },
        {
          "name": "D2",
          "midi": 38,
          "time": 4.961533500000001,
          "velocity": 0.7480314960629921,
          "duration": 0.11538450000000022
        },
        {
          "name": "D2",
          "midi": 38,
          "time": 5.076918000000001,
          "velocity": 0.7480314960629921,
          "duration": 0.11538450000000022
        },
        {
          "name": "D2",
          "midi": 38,
          "time": 5.192302500000001,
          "velocity": 0.7480314960629921,
          "duration": 0.11538450000000022
        },
        {
          "name": "D2",
          "midi": 38,
          "time": 5.307687000000001,
          "velocity": 0.7480314960629921,
          "duration": 0.11538450000000022
        },
        {
          "name": "D2",
          "midi": 38,
          "time": 5.423071500000002,
          "velocity": 0.7480314960629921,
          "duration": 0.11538450000000022
        },
        {
          "name": "D2",
          "midi": 38,
          "time": 5.538456000000002,
          "velocity": 0.7480314960629921,
          "duration": 0.11538450000000022
        },
        {
          "name": "D2",
          "midi": 38,
          "time": 5.653840500000002,
          "velocity": 0.7480314960629921,
          "duration": 0.11538450000000022
        },
        {
          "name": "D2",
          "midi": 38,
          "time": 5.769225000000002,
          "velocity": 0.7480314960629921,
          "duration": 0.11538450000000022
        },
        {
          "name": "D2",
          "midi": 38,
          "time": 5.8846095000000025,
          "velocity": 0.7480314960629921,
          "duration": 0.11538450000000022
        },
        {
          "name": "D2",
          "midi": 38,
          "time": 5.999994000000003,
          "velocity": 0.7480314960629921,
          "duration": 0.11538450000000022
        },
        {
          "name": "D2",
          "midi": 38,
          "time": 6.115378500000003,
          "velocity": 0.7480314960629921,
          "duration": 0.11538450000000022
        },
        {
          "name": "D2",
          "midi": 38,
          "time": 6.230763000000003,
          "velocity": 0.7480314960629921,
          "duration": 0.11538450000000022
        },
        {
          "name": "D2",
          "midi": 38,
          "time": 6.346147500000003,
          "velocity": 0.7480314960629921,
          "duration": 0.11538450000000022
        },
        {
          "name": "D2",
          "midi": 38,
          "time": 6.461532000000004,
          "velocity": 0.7480314960629921,
          "duration": 0.11538450000000022
        },
        {
          "name": "D2",
          "midi": 38,
          "time": 6.576916500000004,
          "velocity": 0.7480314960629921,
          "duration": 0.11538450000000022
        },
        {
          "name": "D2",
          "midi": 38,
          "time": 6.692301000000004,
          "velocity": 0.7480314960629921,
          "duration": 0.11538450000000022
        },
        {
          "name": "D2",
          "midi": 38,
          "time": 6.807685500000004,
          "velocity": 0.7480314960629921,
          "duration": 0.11538450000000022
        },
        {
          "name": "D2",
          "midi": 38,
          "time": 6.9230700000000045,
          "velocity": 0.7480314960629921,
          "duration": 0.11538450000000022
        },
        {
          "name": "D2",
          "midi": 38,
          "time": 7.038454500000005,
          "velocity": 0.7480314960629921,
          "duration": 0.11538450000000022
        },
        {
          "name": "D2",
          "midi": 38,
          "time": 7.153839000000005,
          "velocity": 0.7480314960629921,
          "duration": 0.11538450000000022
        },
        {
          "name": "D2",
          "midi": 38,
          "time": 7.269223500000005,
          "velocity": 0.7480314960629921,
          "duration": 0.11538450000000022
        },
        {
          "name": "F#2",
          "midi": 42,
          "time": 7.384608000000005,
          "velocity": 0.7480314960629921,
          "duration": 0.11538450000000022
        },
        {
          "name": "C2",
          "midi": 36,
          "time": 7.384608000000005,
          "velocity": 0.7480314960629921,
          "duration": 0.11538450000000022
        },
        {
          "name": "F#2",
          "midi": 42,
          "time": 7.499992500000006,
          "velocity": 0.7480314960629921,
          "duration": 0.11538450000000022
        },
        {
          "name": "F#2",
          "midi": 42,
          "time": 7.615377000000006,
          "velocity": 0.7480314960629921,
          "duration": 0.11538450000000022
        },
        {
          "name": "D2",
          "midi": 38,
          "time": 7.615377000000006,
          "velocity": 0.7480314960629921,
          "duration": 0.11538450000000022
        },
        {
          "name": "D2",
          "midi": 38,
          "time": 7.615377000000006,
          "velocity": 0.7480314960629921,
          "duration": 0.11538450000000022
        },
        {
          "name": "D2",
          "midi": 38,
          "time": 7.615377000000006,
          "velocity": 0.7480314960629921,
          "duration": 0.11538450000000022
        },
        {
          "name": "F#2",
          "midi": 42,
          "time": 7.730761500000006,
          "velocity": 0.7480314960629921,
          "duration": 0.11538450000000022
        },
        {
          "name": "F#2",
          "midi": 42,
          "time": 7.846146000000006,
          "velocity": 0.7480314960629921,
          "duration": 0.11538450000000022
        },
        {
          "name": "C2",
          "midi": 36,
          "time": 7.846146000000006,
          "velocity": 0.7480314960629921,
          "duration": 0.11538450000000022
        },
        {
          "name": "F#2",
          "midi": 42,
          "time": 7.9615305000000065,
          "velocity": 0.7480314960629921,
          "duration": 0.11538450000000022
        },
        {
          "name": "F#2",
          "midi": 42,
          "time": 8.076915000000007,
          "velocity": 0.7480314960629921,
          "duration": 0.11538449999999933
        },
        {
          "name": "D2",
          "midi": 38,
          "time": 8.076915000000007,
          "velocity": 0.7480314960629921,
          "duration": 0.11538449999999933
        },
        {
          "name": "D2",
          "midi": 38,
          "time": 8.076915000000007,
          "velocity": 0.7480314960629921,
          "duration": 0.11538449999999933
        },
        {
          "name": "D2",
          "midi": 38,
          "time": 8.076915000000007,
          "velocity": 0.7480314960629921,
          "duration": 0.11538449999999933
        },
        {
          "name": "F#2",
          "midi": 42,
          "time": 8.192299500000006,
          "velocity": 0.7480314960629921,
          "duration": 0.11538449999999933
        },
        {
          "name": "F#2",
          "midi": 42,
          "time": 8.307684000000005,
          "velocity": 0.7480314960629921,
          "duration": 0.11538449999999933
        },
        {
          "name": "C2",
          "midi": 36,
          "time": 8.307684000000005,
          "velocity": 0.7480314960629921,
          "duration": 0.11538449999999933
        },
        {
          "name": "F#2",
          "midi": 42,
          "time": 8.423068500000005,
          "velocity": 0.7480314960629921,
          "duration": 0.11538449999999933
        },
        {
          "name": "F#2",
          "midi": 42,
          "time": 8.538453000000004,
          "velocity": 0.7480314960629921,
          "duration": 0.11538449999999933
        },
        {
          "name": "D2",
          "midi": 38,
          "time": 8.538453000000004,
          "velocity": 0.7480314960629921,
          "duration": 0.11538449999999933
        },
        {
          "name": "D2",
          "midi": 38,
          "time": 8.538453000000004,
          "velocity": 0.7480314960629921,
          "duration": 0.11538449999999933
        },
        {
          "name": "D2",
          "midi": 38,
          "time": 8.538453000000004,
          "velocity": 0.7480314960629921,
          "duration": 0.11538449999999933
        },
        {
          "name": "F#2",
          "midi": 42,
          "time": 8.653837500000003,
          "velocity": 0.7480314960629921,
          "duration": 0.11538449999999933
        },
        {
          "name": "F#2",
          "midi": 42,
          "time": 8.769222000000003,
          "velocity": 0.7480314960629921,
          "duration": 0.11538449999999933
        },
        {
          "name": "C2",
          "midi": 36,
          "time": 8.769222000000003,
          "velocity": 0.7480314960629921,
          "duration": 0.11538449999999933
        },
        {
          "name": "F#2",
          "midi": 42,
          "time": 8.884606500000002,
          "velocity": 0.7480314960629921,
          "duration": 0.11538449999999933
        },
        {
          "name": "F#2",
          "midi": 42,
          "time": 8.999991000000001,
          "velocity": 0.7480314960629921,
          "duration": 0.11538449999999933
        },
        {
          "name": "D2",
          "midi": 38,
          "time": 8.999991000000001,
          "velocity": 0.7480314960629921,
          "duration": 0.11538449999999933
        },
        {
          "name": "D2",
          "midi": 38,
          "time": 8.999991000000001,
          "velocity": 0.7480314960629921,
          "duration": 0.11538449999999933
        },
        {
          "name": "D2",
          "midi": 38,
          "time": 8.999991000000001,
          "velocity": 0.7480314960629921,
          "duration": 0.11538449999999933
        },
        {
          "name": "F#2",
          "midi": 42,
          "time": 9.1153755,
          "velocity": 0.7480314960629921,
          "duration": 0.11538449999999933
        },
        {
          "name": "F#2",
          "midi": 42,
          "time": 9.23076,
          "velocity": 0.7480314960629921,
          "duration": 0.11538449999999933
        },
        {
          "name": "C2",
          "midi": 36,
          "time": 9.23076,
          "velocity": 0.7480314960629921,
          "duration": 0.11538449999999933
        },
        {
          "name": "F#2",
          "midi": 42,
          "time": 9.3461445,
          "velocity": 0.7480314960629921,
          "duration": 0.11538449999999933
        },
        {
          "name": "F#2",
          "midi": 42,
          "time": 9.461528999999999,
          "velocity": 0.7480314960629921,
          "duration": 0.11538449999999933
        },
        {
          "name": "D2",
          "midi": 38,
          "time": 9.461528999999999,
          "velocity": 0.7480314960629921,
          "duration": 0.11538449999999933
        },
        {
          "name": "D2",
          "midi": 38,
          "time": 9.461528999999999,
          "velocity": 0.7480314960629921,
          "duration": 0.11538449999999933
        },
        {
          "name": "D2",
          "midi": 38,
          "time": 9.461528999999999,
          "velocity": 0.7480314960629921,
          "duration": 0.11538449999999933
        },
        {
          "name": "F#2",
          "midi": 42,
          "time": 9.576913499999998,
          "velocity": 0.7480314960629921,
          "duration": 0.11538449999999933
        },
        {
          "name": "F#2",
          "midi": 42,
          "time": 9.692297999999997,
          "velocity": 0.7480314960629921,
          "duration": 0.11538449999999933
        },
        {
          "name": "C2",
          "midi": 36,
          "time": 9.692297999999997,
          "velocity": 0.7480314960629921,
          "duration": 0.11538449999999933
        },
        {
          "name": "F#2",
          "midi": 42,
          "time": 9.807682499999997,
          "velocity": 0.7480314960629921,
          "duration": 0.11538449999999933
        },
        {
          "name": "F#2",
          "midi": 42,
          "time": 9.923066999999996,
          "velocity": 0.7480314960629921,
          "duration": 0.11538449999999933
        },
        {
          "name": "D2",
          "midi": 38,
          "time": 9.923066999999996,
          "velocity": 0.7480314960629921,
          "duration": 0.11538449999999933
        },
        {
          "name": "D2",
          "midi": 38,
          "time": 9.923066999999996,
          "velocity": 0.7480314960629921,
          "duration": 0.11538449999999933
        },
        {
          "name": "D2",
          "midi": 38,
          "time": 9.923066999999996,
          "velocity": 0.7480314960629921,
          "duration": 0.11538449999999933
        },
        {
          "name": "F#2",
          "midi": 42,
          "time": 10.038451499999995,
          "velocity": 0.7480314960629921,
          "duration": 0.11538449999999933
        },
        {
          "name": "F#2",
          "midi": 42,
          "time": 10.153835999999995,
          "velocity": 0.7480314960629921,
          "duration": 0.11538449999999933
        },
        {
          "name": "C2",
          "midi": 36,
          "time": 10.153835999999995,
          "velocity": 0.7480314960629921,
          "duration": 0.11538449999999933
        },
        {
          "name": "F#2",
          "midi": 42,
          "time": 10.269220499999994,
          "velocity": 0.7480314960629921,
          "duration": 0.11538449999999933
        },
        {
          "name": "F#2",
          "midi": 42,
          "time": 10.384604999999993,
          "velocity": 0.7480314960629921,
          "duration": 0.11538449999999933
        },
        {
          "name": "D2",
          "midi": 38,
          "time": 10.384604999999993,
          "velocity": 0.7480314960629921,
          "duration": 0.11538449999999933
        },
        {
          "name": "D2",
          "midi": 38,
          "time": 10.384604999999993,
          "velocity": 0.7480314960629921,
          "duration": 0.11538449999999933
        },
        {
          "name": "D2",
          "midi": 38,
          "time": 10.384604999999993,
          "velocity": 0.7480314960629921,
          "duration": 0.11538449999999933
        },
        {
          "name": "F#2",
          "midi": 42,
          "time": 10.499989499999993,
          "velocity": 0.7480314960629921,
          "duration": 0.11538449999999933
        },
        {
          "name": "F#2",
          "midi": 42,
          "time": 10.615373999999992,
          "velocity": 0.7480314960629921,
          "duration": 0.11538449999999933
        },
        {
          "name": "C2",
          "midi": 36,
          "time": 10.615373999999992,
          "velocity": 0.7480314960629921,
          "duration": 0.11538449999999933
        },
        {
          "name": "F#2",
          "midi": 42,
          "time": 10.730758499999991,
          "velocity": 0.7480314960629921,
          "duration": 0.11538449999999933
        },
        {
          "name": "F#2",
          "midi": 42,
          "time": 10.84614299999999,
          "velocity": 0.7480314960629921,
          "duration": 0.11538449999999933
        },
        {
          "name": "D2",
          "midi": 38,
          "time": 10.84614299999999,
          "velocity": 0.7480314960629921,
          "duration": 0.11538449999999933
        },
        {
          "name": "D2",
          "midi": 38,
          "time": 10.84614299999999,
          "velocity": 0.7480314960629921,
          "duration": 0.11538449999999933
        },
        {
          "name": "D2",
          "midi": 38,
          "time": 10.84614299999999,
          "velocity": 0.7480314960629921,
          "duration": 0.11538449999999933
        },
        {
          "name": "F#2",
          "midi": 42,
          "time": 10.96152749999999,
          "velocity": 0.7480314960629921,
          "duration": 0.11538449999999933
        },
        {
          "name": "F#2",
          "midi": 42,
          "time": 11.07691199999999,
          "velocity": 0.7480314960629921,
          "duration": 0.11538449999999933
        },
        {
          "name": "C2",
          "midi": 36,
          "time": 11.07691199999999,
          "velocity": 0.7480314960629921,
          "duration": 0.11538449999999933
        },
        {
          "name": "F#2",
          "midi": 42,
          "time": 11.192296499999989,
          "velocity": 0.7480314960629921,
          "duration": 0.11538449999999933
        },
        {
          "name": "F#2",
          "midi": 42,
          "time": 11.307680999999988,
          "velocity": 0.7480314960629921,
          "duration": 0.11538449999999933
        },
        {
          "name": "D2",
          "midi": 38,
          "time": 11.307680999999988,
          "velocity": 0.7480314960629921,
          "duration": 0.11538449999999933
        },
        {
          "name": "D2",
          "midi": 38,
          "time": 11.307680999999988,
          "velocity": 0.7480314960629921,
          "duration": 0.11538449999999933
        },
        {
          "name": "D2",
          "midi": 38,
          "time": 11.307680999999988,
          "velocity": 0.7480314960629921,
          "duration": 0.11538449999999933
        },
        {
          "name": "F#2",
          "midi": 42,
          "time": 11.423065499999987,
          "velocity": 0.7480314960629921,
          "duration": 0.11538449999999933
        },
        {
          "name": "F#2",
          "midi": 42,
          "time": 11.538449999999987,
          "velocity": 0.7480314960629921,
          "duration": 0.11538449999999933
        },
        {
          "name": "C2",
          "midi": 36,
          "time": 11.538449999999987,
          "velocity": 0.7480314960629921,
          "duration": 0.11538449999999933
        },
        {
          "name": "F#2",
          "midi": 42,
          "time": 11.653834499999986,
          "velocity": 0.7480314960629921,
          "duration": 0.11538449999999933
        },
        {
          "name": "F#2",
          "midi": 42,
          "time": 11.769218999999985,
          "velocity": 0.7480314960629921,
          "duration": 0.11538449999999933
        },
        {
          "name": "D2",
          "midi": 38,
          "time": 11.769218999999985,
          "velocity": 0.7480314960629921,
          "duration": 0.11538449999999933
        },
        {
          "name": "D2",
          "midi": 38,
          "time": 11.769218999999985,
          "velocity": 0.7480314960629921,
          "duration": 0.11538449999999933
        },
        {
          "name": "D2",
          "midi": 38,
          "time": 11.769218999999985,
          "velocity": 0.7480314960629921,
          "duration": 0.11538449999999933
        },
        {
          "name": "F#2",
          "midi": 42,
          "time": 11.884603499999985,
          "velocity": 0.7480314960629921,
          "duration": 0.11538449999999933
        },
        {
          "name": "F#2",
          "midi": 42,
          "time": 11.999987999999984,
          "velocity": 0.7480314960629921,
          "duration": 0.11538449999999933
        },
        {
          "name": "C2",
          "midi": 36,
          "time": 11.999987999999984,
          "velocity": 0.7480314960629921,
          "duration": 0.11538449999999933
        },
        {
          "name": "F#2",
          "midi": 42,
          "time": 12.115372499999983,
          "velocity": 0.7480314960629921,
          "duration": 0.11538449999999933
        },
        {
          "name": "F#2",
          "midi": 42,
          "time": 12.230756999999983,
          "velocity": 0.7480314960629921,
          "duration": 0.11538449999999933
        },
        {
          "name": "D2",
          "midi": 38,
          "time": 12.230756999999983,
          "velocity": 0.7480314960629921,
          "duration": 0.11538449999999933
        },
        {
          "name": "D2",
          "midi": 38,
          "time": 12.230756999999983,
          "velocity": 0.7480314960629921,
          "duration": 0.11538449999999933
        },
        {
          "name": "D2",
          "midi": 38,
          "time": 12.230756999999983,
          "velocity": 0.7480314960629921,
          "duration": 0.11538449999999933
        },
        {
          "name": "F#2",
          "midi": 42,
          "time": 12.346141499999982,
          "velocity": 0.7480314960629921,
          "duration": 0.11538449999999933
        },
        {
          "name": "F#2",
          "midi": 42,
          "time": 12.461525999999981,
          "velocity": 0.7480314960629921,
          "duration": 0.11538449999999933
        },
        {
          "name": "C2",
          "midi": 36,
          "time": 12.461525999999981,
          "velocity": 0.7480314960629921,
          "duration": 0.11538449999999933
        },
        {
          "name": "F#2",
          "midi": 42,
          "time": 12.57691049999998,
          "velocity": 0.7480314960629921,
          "duration": 0.11538449999999933
        },
        {
          "name": "F#2",
          "midi": 42,
          "time": 12.69229499999998,
          "velocity": 0.7480314960629921,
          "duration": 0.11538449999999933
        },
        {
          "name": "D2",
          "midi": 38,
          "time": 12.69229499999998,
          "velocity": 0.7480314960629921,
          "duration": 0.11538449999999933
        },
        {
          "name": "D2",
          "midi": 38,
          "time": 12.69229499999998,
          "velocity": 0.7480314960629921,
          "duration": 0.11538449999999933
        },
        {
          "name": "D2",
          "midi": 38,
          "time": 12.69229499999998,
          "velocity": 0.7480314960629921,
          "duration": 0.11538449999999933
        },
        {
          "name": "F#2",
          "midi": 42,
          "time": 12.80767949999998,
          "velocity": 0.7480314960629921,
          "duration": 0.11538449999999933
        },
        {
          "name": "F#2",
          "midi": 42,
          "time": 12.923063999999979,
          "velocity": 0.7480314960629921,
          "duration": 0.11538449999999933
        },
        {
          "name": "C2",
          "midi": 36,
          "time": 12.923063999999979,
          "velocity": 0.7480314960629921,
          "duration": 0.11538449999999933
        },
        {
          "name": "F#2",
          "midi": 42,
          "time": 13.038448499999978,
          "velocity": 0.7480314960629921,
          "duration": 0.11538449999999933
        },
        {
          "name": "F#2",
          "midi": 42,
          "time": 13.153832999999977,
          "velocity": 0.7480314960629921,
          "duration": 0.11538449999999933
        },
        {
          "name": "D2",
          "midi": 38,
          "time": 13.153832999999977,
          "velocity": 0.7480314960629921,
          "duration": 0.11538449999999933
        },
        {
          "name": "D2",
          "midi": 38,
          "time": 13.153832999999977,
          "velocity": 0.7480314960629921,
          "duration": 0.11538449999999933
        },
        {
          "name": "D2",
          "midi": 38,
          "time": 13.153832999999977,
          "velocity": 0.7480314960629921,
          "duration": 0.11538449999999933
        },
        {
          "name": "F#2",
          "midi": 42,
          "time": 13.269217499999977,
          "velocity": 0.7480314960629921,
          "duration": 0.11538449999999933
        },
        {
          "name": "F#2",
          "midi": 42,
          "time": 13.384601999999976,
          "velocity": 0.7480314960629921,
          "duration": 0.11538449999999933
        },
        {
          "name": "C2",
          "midi": 36,
          "time": 13.384601999999976,
          "velocity": 0.7480314960629921,
          "duration": 0.11538449999999933
        },
        {
          "name": "F#2",
          "midi": 42,
          "time": 13.499986499999975,
          "velocity": 0.7480314960629921,
          "duration": 0.11538449999999933
        },
        {
          "name": "F#2",
          "midi": 42,
          "time": 13.615370999999975,
          "velocity": 0.7480314960629921,
          "duration": 0.11538449999999933
        },
        {
          "name": "D2",
          "midi": 38,
          "time": 13.615370999999975,
          "velocity": 0.7480314960629921,
          "duration": 0.11538449999999933
        },
        {
          "name": "D2",
          "midi": 38,
          "time": 13.615370999999975,
          "velocity": 0.7480314960629921,
          "duration": 0.11538449999999933
        },
        {
          "name": "D2",
          "midi": 38,
          "time": 13.615370999999975,
          "velocity": 0.7480314960629921,
          "duration": 0.11538449999999933
        },
        {
          "name": "F#2",
          "midi": 42,
          "time": 13.730755499999974,
          "velocity": 0.7480314960629921,
          "duration": 0.11538449999999933
        },
        {
          "name": "F#2",
          "midi": 42,
          "time": 13.846139999999973,
          "velocity": 0.7480314960629921,
          "duration": 0.11538449999999933
        },
        {
          "name": "C2",
          "midi": 36,
          "time": 13.846139999999973,
          "velocity": 0.7480314960629921,
          "duration": 0.11538449999999933
        },
        {
          "name": "F#2",
          "midi": 42,
          "time": 13.961524499999973,
          "velocity": 0.7480314960629921,
          "duration": 0.11538449999999933
        },
        {
          "name": "F#2",
          "midi": 42,
          "time": 14.076908999999972,
          "velocity": 0.7480314960629921,
          "duration": 0.11538449999999933
        },
        {
          "name": "D2",
          "midi": 38,
          "time": 14.076908999999972,
          "velocity": 0.7480314960629921,
          "duration": 0.11538449999999933
        },
        {
          "name": "D2",
          "midi": 38,
          "time": 14.076908999999972,
          "velocity": 0.7480314960629921,
          "duration": 0.11538449999999933
        },
        {
          "name": "D2",
          "midi": 38,
          "time": 14.076908999999972,
          "velocity": 0.7480314960629921,
          "duration": 0.11538449999999933
        },
        {
          "name": "F#2",
          "midi": 42,
          "time": 14.192293499999971,
          "velocity": 0.7480314960629921,
          "duration": 0.11538449999999933
        },
        {
          "name": "F#2",
          "midi": 42,
          "time": 14.30767799999997,
          "velocity": 0.7480314960629921,
          "duration": 0.11538449999999933
        },
        {
          "name": "C2",
          "midi": 36,
          "time": 14.30767799999997,
          "velocity": 0.7480314960629921,
          "duration": 0.11538449999999933
        },
        {
          "name": "F#2",
          "midi": 42,
          "time": 14.42306249999997,
          "velocity": 0.7480314960629921,
          "duration": 0.11538449999999933
        },
        {
          "name": "F#2",
          "midi": 42,
          "time": 14.53844699999997,
          "velocity": 0.7480314960629921,
          "duration": 0.11538449999999933
        },
        {
          "name": "D2",
          "midi": 38,
          "time": 14.53844699999997,
          "velocity": 0.7480314960629921,
          "duration": 0.11538449999999933
        },
        {
          "name": "D2",
          "midi": 38,
          "time": 14.53844699999997,
          "velocity": 0.7480314960629921,
          "duration": 0.11538449999999933
        },
        {
          "name": "D2",
          "midi": 38,
          "time": 14.53844699999997,
          "velocity": 0.7480314960629921,
          "duration": 0.11538449999999933
        },
        {
          "name": "F#2",
          "midi": 42,
          "time": 14.653831499999969,
          "velocity": 0.7480314960629921,
          "duration": 0.11538449999999933
        },
        {
          "name": "F#2",
          "midi": 42,
          "time": 14.769215999999968,
          "velocity": 0.7480314960629921,
          "duration": 0.11538449999999933
        },
        {
          "name": "C2",
          "midi": 36,
          "time": 14.769215999999968,
          "velocity": 0.7480314960629921,
          "duration": 0.11538449999999933
        },
        {
          "name": "F#2",
          "midi": 42,
          "time": 14.884600499999967,
          "velocity": 0.7480314960629921,
          "duration": 0.11538449999999933
        },
        {
          "name": "F#2",
          "midi": 42,
          "time": 14.999984999999967,
          "velocity": 0.7480314960629921,
          "duration": 0.11538449999999933
        },
        {
          "name": "D2",
          "midi": 38,
          "time": 14.999984999999967,
          "velocity": 0.7480314960629921,
          "duration": 0.11538449999999933
        },
        {
          "name": "D2",
          "midi": 38,
          "time": 14.999984999999967,
          "velocity": 0.7480314960629921,
          "duration": 0.11538449999999933
        },
        {
          "name": "D2",
          "midi": 38,
          "time": 14.999984999999967,
          "velocity": 0.7480314960629921,
          "duration": 0.11538449999999933
        },
        {
          "name": "F#2",
          "midi": 42,
          "time": 15.115369499999966,
          "velocity": 0.7480314960629921,
          "duration": 0.11538449999999933
        },
        {
          "name": "F#2",
          "midi": 42,
          "time": 15.230753999999965,
          "velocity": 0.7480314960629921,
          "duration": 0.11538449999999933
        },
        {
          "name": "C2",
          "midi": 36,
          "time": 15.230753999999965,
          "velocity": 0.7480314960629921,
          "duration": 0.11538449999999933
        },
        {
          "name": "F#2",
          "midi": 42,
          "time": 15.346138499999965,
          "velocity": 0.7480314960629921,
          "duration": 0.11538449999999933
        },
        {
          "name": "F#2",
          "midi": 42,
          "time": 15.461522999999964,
          "velocity": 0.7480314960629921,
          "duration": 0.11538449999999933
        },
        {
          "name": "D2",
          "midi": 38,
          "time": 15.461522999999964,
          "velocity": 0.7480314960629921,
          "duration": 0.11538449999999933
        },
        {
          "name": "D2",
          "midi": 38,
          "time": 15.461522999999964,
          "velocity": 0.7480314960629921,
          "duration": 0.11538449999999933
        },
        {
          "name": "D2",
          "midi": 38,
          "time": 15.461522999999964,
          "velocity": 0.7480314960629921,
          "duration": 0.11538449999999933
        },
        {
          "name": "F#2",
          "midi": 42,
          "time": 15.576907499999963,
          "velocity": 0.7480314960629921,
          "duration": 0.11538449999999933
        },
        {
          "name": "F#2",
          "midi": 42,
          "time": 15.692291999999963,
          "velocity": 0.7480314960629921,
          "duration": 0.11538449999999933
        },
        {
          "name": "C2",
          "midi": 36,
          "time": 15.692291999999963,
          "velocity": 0.7480314960629921,
          "duration": 0.11538449999999933
        },
        {
          "name": "F#2",
          "midi": 42,
          "time": 15.807676499999962,
          "velocity": 0.7480314960629921,
          "duration": 0.11538449999999933
        },
        {
          "name": "F#2",
          "midi": 42,
          "time": 15.923060999999961,
          "velocity": 0.7480314960629921,
          "duration": 0.11538450000000111
        },
        {
          "name": "D2",
          "midi": 38,
          "time": 15.923060999999961,
          "velocity": 0.7480314960629921,
          "duration": 0.11538450000000111
        },
        {
          "name": "D2",
          "midi": 38,
          "time": 15.923060999999961,
          "velocity": 0.7480314960629921,
          "duration": 0.11538450000000111
        },
        {
          "name": "D2",
          "midi": 38,
          "time": 15.923060999999961,
          "velocity": 0.7480314960629921,
          "duration": 0.11538450000000111
        },
        {
          "name": "F#2",
          "midi": 42,
          "time": 16.038445499999963,
          "velocity": 0.7480314960629921,
          "duration": 0.11538450000000111
        },
        {
          "name": "F#2",
          "midi": 42,
          "time": 16.153829999999964,
          "velocity": 0.7480314960629921,
          "duration": 0.11538450000000111
        },
        {
          "name": "C2",
          "midi": 36,
          "time": 16.153829999999964,
          "velocity": 0.7480314960629921,
          "duration": 0.11538450000000111
        },
        {
          "name": "F#2",
          "midi": 42,
          "time": 16.269214499999965,
          "velocity": 0.7480314960629921,
          "duration": 0.11538450000000111
        },
        {
          "name": "F#2",
          "midi": 42,
          "time": 16.384598999999966,
          "velocity": 0.7480314960629921,
          "duration": 0.11538450000000111
        },
        {
          "name": "D2",
          "midi": 38,
          "time": 16.384598999999966,
          "velocity": 0.7480314960629921,
          "duration": 0.11538450000000111
        },
        {
          "name": "D2",
          "midi": 38,
          "time": 16.384598999999966,
          "velocity": 0.7480314960629921,
          "duration": 0.11538450000000111
        },
        {
          "name": "D2",
          "midi": 38,
          "time": 16.384598999999966,
          "velocity": 0.7480314960629921,
          "duration": 0.11538450000000111
        },
        {
          "name": "F#2",
          "midi": 42,
          "time": 16.499983499999967,
          "velocity": 0.7480314960629921,
          "duration": 0.11538450000000111
        },
        {
          "name": "F#2",
          "midi": 42,
          "time": 16.615367999999968,
          "velocity": 0.7480314960629921,
          "duration": 0.11538450000000111
        },
        {
          "name": "C2",
          "midi": 36,
          "time": 16.615367999999968,
          "velocity": 0.7480314960629921,
          "duration": 0.11538450000000111
        },
        {
          "name": "F#2",
          "midi": 42,
          "time": 16.73075249999997,
          "velocity": 0.7480314960629921,
          "duration": 0.11538450000000111
        },
        {
          "name": "F#2",
          "midi": 42,
          "time": 16.84613699999997,
          "velocity": 0.7480314960629921,
          "duration": 0.11538450000000111
        },
        {
          "name": "D2",
          "midi": 38,
          "time": 16.84613699999997,
          "velocity": 0.7480314960629921,
          "duration": 0.11538450000000111
        },
        {
          "name": "D2",
          "midi": 38,
          "time": 16.84613699999997,
          "velocity": 0.7480314960629921,
          "duration": 0.11538450000000111
        },
        {
          "name": "D2",
          "midi": 38,
          "time": 16.84613699999997,
          "velocity": 0.7480314960629921,
          "duration": 0.11538450000000111
        },
        {
          "name": "F#2",
          "midi": 42,
          "time": 16.96152149999997,
          "velocity": 0.7480314960629921,
          "duration": 0.11538450000000111
        },
        {
          "name": "F#2",
          "midi": 42,
          "time": 17.076905999999973,
          "velocity": 0.7480314960629921,
          "duration": 0.11538450000000111
        },
        {
          "name": "C2",
          "midi": 36,
          "time": 17.076905999999973,
          "velocity": 0.7480314960629921,
          "duration": 0.11538450000000111
        },
        {
          "name": "F#2",
          "midi": 42,
          "time": 17.192290499999974,
          "velocity": 0.7480314960629921,
          "duration": 0.11538450000000111
        },
        {
          "name": "F#2",
          "midi": 42,
          "time": 17.307674999999975,
          "velocity": 0.7480314960629921,
          "duration": 0.11538450000000111
        },
        {
          "name": "D2",
          "midi": 38,
          "time": 17.307674999999975,
          "velocity": 0.7480314960629921,
          "duration": 0.11538450000000111
        },
        {
          "name": "D2",
          "midi": 38,
          "time": 17.307674999999975,
          "velocity": 0.7480314960629921,
          "duration": 0.11538450000000111
        },
        {
          "name": "D2",
          "midi": 38,
          "time": 17.307674999999975,
          "velocity": 0.7480314960629921,
          "duration": 0.11538450000000111
        },
        {
          "name": "F#2",
          "midi": 42,
          "time": 17.423059499999976,
          "velocity": 0.7480314960629921,
          "duration": 0.11538450000000111
        },
        {
          "name": "F#2",
          "midi": 42,
          "time": 17.538443999999977,
          "velocity": 0.7480314960629921,
          "duration": 0.11538450000000111
        },
        {
          "name": "C2",
          "midi": 36,
          "time": 17.538443999999977,
          "velocity": 0.7480314960629921,
          "duration": 0.11538450000000111
        },
        {
          "name": "F#2",
          "midi": 42,
          "time": 17.653828499999978,
          "velocity": 0.7480314960629921,
          "duration": 0.11538450000000111
        },
        {
          "name": "F#2",
          "midi": 42,
          "time": 17.76921299999998,
          "velocity": 0.7480314960629921,
          "duration": 0.11538450000000111
        },
        {
          "name": "D2",
          "midi": 38,
          "time": 17.76921299999998,
          "velocity": 0.7480314960629921,
          "duration": 0.11538450000000111
        },
        {
          "name": "D2",
          "midi": 38,
          "time": 17.76921299999998,
          "velocity": 0.7480314960629921,
          "duration": 0.11538450000000111
        },
        {
          "name": "D2",
          "midi": 38,
          "time": 17.76921299999998,
          "velocity": 0.7480314960629921,
          "duration": 0.11538450000000111
        },
        {
          "name": "F#2",
          "midi": 42,
          "time": 17.88459749999998,
          "velocity": 0.7480314960629921,
          "duration": 0.11538450000000111
        },
        {
          "name": "F#2",
          "midi": 42,
          "time": 17.99998199999998,
          "velocity": 0.7480314960629921,
          "duration": 0.11538450000000111
        },
        {
          "name": "C2",
          "midi": 36,
          "time": 17.99998199999998,
          "velocity": 0.7480314960629921,
          "duration": 0.11538450000000111
        },
        {
          "name": "F#2",
          "midi": 42,
          "time": 18.115366499999983,
          "velocity": 0.7480314960629921,
          "duration": 0.11538450000000111
        },
        {
          "name": "F#2",
          "midi": 42,
          "time": 18.230750999999984,
          "velocity": 0.7480314960629921,
          "duration": 0.11538450000000111
        },
        {
          "name": "D2",
          "midi": 38,
          "time": 18.230750999999984,
          "velocity": 0.7480314960629921,
          "duration": 0.11538450000000111
        },
        {
          "name": "D2",
          "midi": 38,
          "time": 18.230750999999984,
          "velocity": 0.7480314960629921,
          "duration": 0.11538450000000111
        },
        {
          "name": "D2",
          "midi": 38,
          "time": 18.230750999999984,
          "velocity": 0.7480314960629921,
          "duration": 0.11538450000000111
        },
        {
          "name": "F#2",
          "midi": 42,
          "time": 18.346135499999985,
          "velocity": 0.7480314960629921,
          "duration": 0.11538450000000111
        },
        {
          "name": "F#2",
          "midi": 42,
          "time": 18.461519999999986,
          "velocity": 0.7480314960629921,
          "duration": 0.11538450000000111
        },
        {
          "name": "C2",
          "midi": 36,
          "time": 18.461519999999986,
          "velocity": 0.7480314960629921,
          "duration": 0.11538450000000111
        },
        {
          "name": "F#2",
          "midi": 42,
          "time": 18.576904499999987,
          "velocity": 0.7480314960629921,
          "duration": 0.11538450000000111
        },
        {
          "name": "F#2",
          "midi": 42,
          "time": 18.692288999999988,
          "velocity": 0.7480314960629921,
          "duration": 0.11538450000000111
        },
        {
          "name": "D2",
          "midi": 38,
          "time": 18.692288999999988,
          "velocity": 0.7480314960629921,
          "duration": 0.11538450000000111
        },
        {
          "name": "D2",
          "midi": 38,
          "time": 18.692288999999988,
          "velocity": 0.7480314960629921,
          "duration": 0.11538450000000111
        },
        {
          "name": "D2",
          "midi": 38,
          "time": 18.692288999999988,
          "velocity": 0.7480314960629921,
          "duration": 0.11538450000000111
        },
        {
          "name": "F#2",
          "midi": 42,
          "time": 18.80767349999999,
          "velocity": 0.7480314960629921,
          "duration": 0.11538450000000111
        },
        {
          "name": "F#2",
          "midi": 42,
          "time": 18.92305799999999,
          "velocity": 0.7480314960629921,
          "duration": 0.11538450000000111
        },
        {
          "name": "C2",
          "midi": 36,
          "time": 18.92305799999999,
          "velocity": 0.7480314960629921,
          "duration": 0.11538450000000111
        },
        {
          "name": "F#2",
          "midi": 42,
          "time": 19.03844249999999,
          "velocity": 0.7480314960629921,
          "duration": 0.11538450000000111
        },
        {
          "name": "F#2",
          "midi": 42,
          "time": 19.153826999999993,
          "velocity": 0.7480314960629921,
          "duration": 0.11538450000000111
        },
        {
          "name": "D2",
          "midi": 38,
          "time": 19.153826999999993,
          "velocity": 0.7480314960629921,
          "duration": 0.11538450000000111
        },
        {
          "name": "D2",
          "midi": 38,
          "time": 19.153826999999993,
          "velocity": 0.7480314960629921,
          "duration": 0.11538450000000111
        },
        {
          "name": "D2",
          "midi": 38,
          "time": 19.153826999999993,
          "velocity": 0.7480314960629921,
          "duration": 0.11538450000000111
        },
        {
          "name": "F#2",
          "midi": 42,
          "time": 19.269211499999994,
          "velocity": 0.7480314960629921,
          "duration": 0.11538450000000111
        },
        {
          "name": "F#2",
          "midi": 42,
          "time": 19.384595999999995,
          "velocity": 0.7480314960629921,
          "duration": 0.11538450000000111
        },
        {
          "name": "C2",
          "midi": 36,
          "time": 19.384595999999995,
          "velocity": 0.7480314960629921,
          "duration": 0.11538450000000111
        },
        {
          "name": "F#2",
          "midi": 42,
          "time": 19.499980499999996,
          "velocity": 0.7480314960629921,
          "duration": 0.11538450000000111
        },
        {
          "name": "F#2",
          "midi": 42,
          "time": 19.615364999999997,
          "velocity": 0.7480314960629921,
          "duration": 0.11538450000000111
        },
        {
          "name": "D2",
          "midi": 38,
          "time": 19.615364999999997,
          "velocity": 0.7480314960629921,
          "duration": 0.11538450000000111
        },
        {
          "name": "D2",
          "midi": 38,
          "time": 19.615364999999997,
          "velocity": 0.7480314960629921,
          "duration": 0.11538450000000111
        },
        {
          "name": "D2",
          "midi": 38,
          "time": 19.615364999999997,
          "velocity": 0.7480314960629921,
          "duration": 0.11538450000000111
        },
        {
          "name": "F#2",
          "midi": 42,
          "time": 19.730749499999998,
          "velocity": 0.7480314960629921,
          "duration": 0.11538450000000111
        },
        {
          "name": "F#2",
          "midi": 42,
          "time": 19.846134,
          "velocity": 0.7480314960629921,
          "duration": 0.11538450000000111
        },
        {
          "name": "C2",
          "midi": 36,
          "time": 19.846134,
          "velocity": 0.7480314960629921,
          "duration": 0.11538450000000111
        },
        {
          "name": "F#2",
          "midi": 42,
          "time": 19.9615185,
          "velocity": 0.7480314960629921,
          "duration": 0.11538450000000111
        },
        {
          "name": "F#2",
          "midi": 42,
          "time": 20.076903,
          "velocity": 0.7480314960629921,
          "duration": 0.11538450000000111
        },
        {
          "name": "D2",
          "midi": 38,
          "time": 20.076903,
          "velocity": 0.7480314960629921,
          "duration": 0.11538450000000111
        },
        {
          "name": "D2",
          "midi": 38,
          "time": 20.076903,
          "velocity": 0.7480314960629921,
          "duration": 0.11538450000000111
        },
        {
          "name": "D2",
          "midi": 38,
          "time": 20.076903,
          "velocity": 0.7480314960629921,
          "duration": 0.11538450000000111
        },
        {
          "name": "F#2",
          "midi": 42,
          "time": 20.192287500000003,
          "velocity": 0.7480314960629921,
          "duration": 0.11538450000000111
        },
        {
          "name": "C#3",
          "midi": 49,
          "time": 20.307672000000004,
          "velocity": 0.7480314960629921,
          "duration": 0.3461534999999998
        },
        {
          "name": "C#3",
          "midi": 49,
          "time": 20.307672000000004,
          "velocity": 0.7480314960629921,
          "duration": 0.3461534999999998
        },
        {
          "name": "D2",
          "midi": 38,
          "time": 20.307672000000004,
          "velocity": 0.7480314960629921,
          "duration": 0.3461534999999998
        },
        {
          "name": "D2",
          "midi": 38,
          "time": 20.307672000000004,
          "velocity": 0.7480314960629921,
          "duration": 0.3461534999999998
        },
        {
          "name": "D2",
          "midi": 38,
          "time": 20.307672000000004,
          "velocity": 0.7480314960629921,
          "duration": 0.3461534999999998
        },
        {
          "name": "D#2",
          "midi": 39,
          "time": 20.653825500000004,
          "velocity": 0.7480314960629921,
          "duration": 0.3461534999999998
        },
        {
          "name": "D#2",
          "midi": 39,
          "time": 20.653825500000004,
          "velocity": 0.7480314960629921,
          "duration": 0.3461534999999998
        },
        {
          "name": "D2",
          "midi": 38,
          "time": 20.653825500000004,
          "velocity": 0.7480314960629921,
          "duration": 0.3461534999999998
        },
        {
          "name": "D2",
          "midi": 38,
          "time": 20.653825500000004,
          "velocity": 0.7480314960629921,
          "duration": 0.3461534999999998
        },
        {
          "name": "D2",
          "midi": 38,
          "time": 20.653825500000004,
          "velocity": 0.7480314960629921,
          "duration": 0.3461534999999998
        },
        {
          "name": "C#3",
          "midi": 49,
          "time": 20.999979000000003,
          "velocity": 0.7480314960629921,
          "duration": 0.3461534999999998
        },
        {
          "name": "C#3",
          "midi": 49,
          "time": 20.999979000000003,
          "velocity": 0.7480314960629921,
          "duration": 0.3461534999999998
        },
        {
          "name": "D2",
          "midi": 38,
          "time": 20.999979000000003,
          "velocity": 0.7480314960629921,
          "duration": 0.3461534999999998
        },
        {
          "name": "D2",
          "midi": 38,
          "time": 20.999979000000003,
          "velocity": 0.7480314960629921,
          "duration": 0.3461534999999998
        },
        {
          "name": "D2",
          "midi": 38,
          "time": 20.999979000000003,
          "velocity": 0.7480314960629921,
          "duration": 0.3461534999999998
        },
        {
          "name": "C#3",
          "midi": 49,
          "time": 21.346132500000003,
          "velocity": 0.7480314960629921,
          "duration": 0.3461534999999998
        },
        {
          "name": "C#3",
          "midi": 49,
          "time": 21.346132500000003,
          "velocity": 0.7480314960629921,
          "duration": 0.3461534999999998
        },
        {
          "name": "D2",
          "midi": 38,
          "time": 21.346132500000003,
          "velocity": 0.7480314960629921,
          "duration": 0.3461534999999998
        },
        {
          "name": "D2",
          "midi": 38,
          "time": 21.346132500000003,
          "velocity": 0.7480314960629921,
          "duration": 0.3461534999999998
        },
        {
          "name": "D2",
          "midi": 38,
          "time": 21.346132500000003,
          "velocity": 0.7480314960629921,
          "duration": 0.3461534999999998
        },
        {
          "name": "C#3",
          "midi": 49,
          "time": 21.692286000000003,
          "velocity": 0.7480314960629921,
          "duration": 0.23076899999999867
        },
        {
          "name": "C#3",
          "midi": 49,
          "time": 21.692286000000003,
          "velocity": 0.7480314960629921,
          "duration": 0.23076899999999867
        },
        {
          "name": "D2",
          "midi": 38,
          "time": 21.692286000000003,
          "velocity": 0.7480314960629921,
          "duration": 0.23076899999999867
        },
        {
          "name": "D2",
          "midi": 38,
          "time": 21.692286000000003,
          "velocity": 0.7480314960629921,
          "duration": 0.23076899999999867
        },
        {
          "name": "D2",
          "midi": 38,
          "time": 21.692286000000003,
          "velocity": 0.7480314960629921,
          "duration": 0.23076899999999867
        },
        {
          "name": "C#3",
          "midi": 49,
          "time": 21.923055,
          "velocity": 0.7480314960629921,
          "duration": 0.23076899999999867
        },
        {
          "name": "C#3",
          "midi": 49,
          "time": 21.923055,
          "velocity": 0.7480314960629921,
          "duration": 0.23076899999999867
        },
        {
          "name": "D2",
          "midi": 38,
          "time": 21.923055,
          "velocity": 0.7480314960629921,
          "duration": 0.23076899999999867
        },
        {
          "name": "D2",
          "midi": 38,
          "time": 21.923055,
          "velocity": 0.7480314960629921,
          "duration": 0.23076899999999867
        },
        {
          "name": "D2",
          "midi": 38,
          "time": 21.923055,
          "velocity": 0.7480314960629921,
          "duration": 0.23076899999999867
        },
        {
          "name": "F#2",
          "midi": 42,
          "time": 22.153824,
          "velocity": 0.7480314960629921,
          "duration": 0.11538450000000111
        },
        {
          "name": "C2",
          "midi": 36,
          "time": 22.153824,
          "velocity": 0.7480314960629921,
          "duration": 0.11538450000000111
        },
        {
          "name": "F#2",
          "midi": 42,
          "time": 22.2692085,
          "velocity": 0.7480314960629921,
          "duration": 0.11538450000000111
        },
        {
          "name": "F#2",
          "midi": 42,
          "time": 22.384593000000002,
          "velocity": 0.7480314960629921,
          "duration": 0.11538450000000111
        },
        {
          "name": "D2",
          "midi": 38,
          "time": 22.384593000000002,
          "velocity": 0.7480314960629921,
          "duration": 0.11538450000000111
        },
        {
          "name": "D2",
          "midi": 38,
          "time": 22.384593000000002,
          "velocity": 0.7480314960629921,
          "duration": 0.11538450000000111
        },
        {
          "name": "D2",
          "midi": 38,
          "time": 22.384593000000002,
          "velocity": 0.7480314960629921,
          "duration": 0.11538450000000111
        },
        {
          "name": "F#2",
          "midi": 42,
          "time": 22.499977500000004,
          "velocity": 0.7480314960629921,
          "duration": 0.11538450000000111
        },
        {
          "name": "F#2",
          "midi": 42,
          "time": 22.615362000000005,
          "velocity": 0.7480314960629921,
          "duration": 0.11538450000000111
        },
        {
          "name": "C2",
          "midi": 36,
          "time": 22.615362000000005,
          "velocity": 0.7480314960629921,
          "duration": 0.11538450000000111
        },
        {
          "name": "F#2",
          "midi": 42,
          "time": 22.730746500000006,
          "velocity": 0.7480314960629921,
          "duration": 0.11538450000000111
        },
        {
          "name": "F#2",
          "midi": 42,
          "time": 22.846131000000007,
          "velocity": 0.7480314960629921,
          "duration": 0.11538450000000111
        },
        {
          "name": "D2",
          "midi": 38,
          "time": 22.846131000000007,
          "velocity": 0.7480314960629921,
          "duration": 0.11538450000000111
        },
        {
          "name": "D2",
          "midi": 38,
          "time": 22.846131000000007,
          "velocity": 0.7480314960629921,
          "duration": 0.11538450000000111
        },
        {
          "name": "D2",
          "midi": 38,
          "time": 22.846131000000007,
          "velocity": 0.7480314960629921,
          "duration": 0.11538450000000111
        },
        {
          "name": "F#2",
          "midi": 42,
          "time": 22.961515500000008,
          "velocity": 0.7480314960629921,
          "duration": 0.11538450000000111
        },
        {
          "name": "F#2",
          "midi": 42,
          "time": 23.07690000000001,
          "velocity": 0.7480314960629921,
          "duration": 0.11538450000000111
        },
        {
          "name": "C2",
          "midi": 36,
          "time": 23.07690000000001,
          "velocity": 0.7480314960629921,
          "duration": 0.11538450000000111
        },
        {
          "name": "F#2",
          "midi": 42,
          "time": 23.19228450000001,
          "velocity": 0.7480314960629921,
          "duration": 0.11538450000000111
        },
        {
          "name": "F#2",
          "midi": 42,
          "time": 23.30766900000001,
          "velocity": 0.7480314960629921,
          "duration": 0.11538450000000111
        },
        {
          "name": "D2",
          "midi": 38,
          "time": 23.30766900000001,
          "velocity": 0.7480314960629921,
          "duration": 0.11538450000000111
        },
        {
          "name": "D2",
          "midi": 38,
          "time": 23.30766900000001,
          "velocity": 0.7480314960629921,
          "duration": 0.11538450000000111
        },
        {
          "name": "D2",
          "midi": 38,
          "time": 23.30766900000001,
          "velocity": 0.7480314960629921,
          "duration": 0.11538450000000111
        },
        {
          "name": "F#2",
          "midi": 42,
          "time": 23.423053500000012,
          "velocity": 0.7480314960629921,
          "duration": 0.11538450000000111
        },
        {
          "name": "F#2",
          "midi": 42,
          "time": 23.538438000000014,
          "velocity": 0.7480314960629921,
          "duration": 0.11538450000000111
        },
        {
          "name": "C2",
          "midi": 36,
          "time": 23.538438000000014,
          "velocity": 0.7480314960629921,
          "duration": 0.11538450000000111
        },
        {
          "name": "F#2",
          "midi": 42,
          "time": 23.653822500000015,
          "velocity": 0.7480314960629921,
          "duration": 0.11538450000000111
        },
        {
          "name": "F#2",
          "midi": 42,
          "time": 23.769207000000016,
          "velocity": 0.7480314960629921,
          "duration": 0.11538450000000111
        },
        {
          "name": "D2",
          "midi": 38,
          "time": 23.769207000000016,
          "velocity": 0.7480314960629921,
          "duration": 0.11538450000000111
        },
        {
          "name": "D2",
          "midi": 38,
          "time": 23.769207000000016,
          "velocity": 0.7480314960629921,
          "duration": 0.11538450000000111
        },
        {
          "name": "D2",
          "midi": 38,
          "time": 23.769207000000016,
          "velocity": 0.7480314960629921,
          "duration": 0.11538450000000111
        },
        {
          "name": "F#2",
          "midi": 42,
          "time": 23.884591500000017,
          "velocity": 0.7480314960629921,
          "duration": 0.11538450000000111
        },
        {
          "name": "F#2",
          "midi": 42,
          "time": 23.999976000000018,
          "velocity": 0.7480314960629921,
          "duration": 0.11538450000000111
        },
        {
          "name": "C2",
          "midi": 36,
          "time": 23.999976000000018,
          "velocity": 0.7480314960629921,
          "duration": 0.11538450000000111
        },
        {
          "name": "F#2",
          "midi": 42,
          "time": 24.11536050000002,
          "velocity": 0.7480314960629921,
          "duration": 0.11538450000000111
        },
        {
          "name": "F#2",
          "midi": 42,
          "time": 24.23074500000002,
          "velocity": 0.7480314960629921,
          "duration": 0.11538450000000111
        },
        {
          "name": "D2",
          "midi": 38,
          "time": 24.23074500000002,
          "velocity": 0.7480314960629921,
          "duration": 0.11538450000000111
        },
        {
          "name": "D2",
          "midi": 38,
          "time": 24.23074500000002,
          "velocity": 0.7480314960629921,
          "duration": 0.11538450000000111
        },
        {
          "name": "D2",
          "midi": 38,
          "time": 24.23074500000002,
          "velocity": 0.7480314960629921,
          "duration": 0.11538450000000111
        },
        {
          "name": "F#2",
          "midi": 42,
          "time": 24.34612950000002,
          "velocity": 0.7480314960629921,
          "duration": 0.11538450000000111
        },
        {
          "name": "F#2",
          "midi": 42,
          "time": 24.461514000000022,
          "velocity": 0.7480314960629921,
          "duration": 0.11538450000000111
        },
        {
          "name": "C2",
          "midi": 36,
          "time": 24.461514000000022,
          "velocity": 0.7480314960629921,
          "duration": 0.11538450000000111
        },
        {
          "name": "F#2",
          "midi": 42,
          "time": 24.576898500000024,
          "velocity": 0.7480314960629921,
          "duration": 0.11538450000000111
        },
        {
          "name": "F#2",
          "midi": 42,
          "time": 24.692283000000025,
          "velocity": 0.7480314960629921,
          "duration": 0.11538450000000111
        },
        {
          "name": "D2",
          "midi": 38,
          "time": 24.692283000000025,
          "velocity": 0.7480314960629921,
          "duration": 0.11538450000000111
        },
        {
          "name": "D2",
          "midi": 38,
          "time": 24.692283000000025,
          "velocity": 0.7480314960629921,
          "duration": 0.11538450000000111
        },
        {
          "name": "D2",
          "midi": 38,
          "time": 24.692283000000025,
          "velocity": 0.7480314960629921,
          "duration": 0.11538450000000111
        },
        {
          "name": "F#2",
          "midi": 42,
          "time": 24.807667500000026,
          "velocity": 0.7480314960629921,
          "duration": 0.11538450000000111
        },
        {
          "name": "F#2",
          "midi": 42,
          "time": 24.923052000000027,
          "velocity": 0.7480314960629921,
          "duration": 0.11538450000000111
        },
        {
          "name": "C2",
          "midi": 36,
          "time": 24.923052000000027,
          "velocity": 0.7480314960629921,
          "duration": 0.11538450000000111
        },
        {
          "name": "F#2",
          "midi": 42,
          "time": 25.038436500000028,
          "velocity": 0.7480314960629921,
          "duration": 0.11538450000000111
        },
        {
          "name": "F#2",
          "midi": 42,
          "time": 25.15382100000003,
          "velocity": 0.7480314960629921,
          "duration": 0.11538450000000111
        },
        {
          "name": "D2",
          "midi": 38,
          "time": 25.15382100000003,
          "velocity": 0.7480314960629921,
          "duration": 0.11538450000000111
        },
        {
          "name": "D2",
          "midi": 38,
          "time": 25.15382100000003,
          "velocity": 0.7480314960629921,
          "duration": 0.11538450000000111
        },
        {
          "name": "D2",
          "midi": 38,
          "time": 25.15382100000003,
          "velocity": 0.7480314960629921,
          "duration": 0.11538450000000111
        },
        {
          "name": "F#2",
          "midi": 42,
          "time": 25.26920550000003,
          "velocity": 0.7480314960629921,
          "duration": 0.11538450000000111
        },
        {
          "name": "F#2",
          "midi": 42,
          "time": 25.38459000000003,
          "velocity": 0.7480314960629921,
          "duration": 0.11538450000000111
        },
        {
          "name": "C2",
          "midi": 36,
          "time": 25.38459000000003,
          "velocity": 0.7480314960629921,
          "duration": 0.11538450000000111
        },
        {
          "name": "F#2",
          "midi": 42,
          "time": 25.499974500000032,
          "velocity": 0.7480314960629921,
          "duration": 0.11538450000000111
        },
        {
          "name": "F#2",
          "midi": 42,
          "time": 25.615359000000034,
          "velocity": 0.7480314960629921,
          "duration": 0.11538450000000111
        },
        {
          "name": "D2",
          "midi": 38,
          "time": 25.615359000000034,
          "velocity": 0.7480314960629921,
          "duration": 0.11538450000000111
        },
        {
          "name": "D2",
          "midi": 38,
          "time": 25.615359000000034,
          "velocity": 0.7480314960629921,
          "duration": 0.11538450000000111
        },
        {
          "name": "D2",
          "midi": 38,
          "time": 25.615359000000034,
          "velocity": 0.7480314960629921,
          "duration": 0.11538450000000111
        },
        {
          "name": "F#2",
          "midi": 42,
          "time": 25.730743500000035,
          "velocity": 0.7480314960629921,
          "duration": 0.11538450000000111
        },
        {
          "name": "F#2",
          "midi": 42,
          "time": 25.846128000000036,
          "velocity": 0.7480314960629921,
          "duration": 0.11538450000000111
        },
        {
          "name": "C2",
          "midi": 36,
          "time": 25.846128000000036,
          "velocity": 0.7480314960629921,
          "duration": 0.11538450000000111
        },
        {
          "name": "F#2",
          "midi": 42,
          "time": 25.961512500000037,
          "velocity": 0.7480314960629921,
          "duration": 0.11538450000000111
        },
        {
          "name": "F#2",
          "midi": 42,
          "time": 26.076897000000038,
          "velocity": 0.7480314960629921,
          "duration": 0.11538450000000111
        },
        {
          "name": "D2",
          "midi": 38,
          "time": 26.076897000000038,
          "velocity": 0.7480314960629921,
          "duration": 0.11538450000000111
        },
        {
          "name": "D2",
          "midi": 38,
          "time": 26.076897000000038,
          "velocity": 0.7480314960629921,
          "duration": 0.11538450000000111
        },
        {
          "name": "D2",
          "midi": 38,
          "time": 26.076897000000038,
          "velocity": 0.7480314960629921,
          "duration": 0.11538450000000111
        },
        {
          "name": "F#2",
          "midi": 42,
          "time": 26.19228150000004,
          "velocity": 0.7480314960629921,
          "duration": 0.11538450000000111
        },
        {
          "name": "F#2",
          "midi": 42,
          "time": 26.30766600000004,
          "velocity": 0.7480314960629921,
          "duration": 0.11538450000000111
        },
        {
          "name": "C2",
          "midi": 36,
          "time": 26.30766600000004,
          "velocity": 0.7480314960629921,
          "duration": 0.11538450000000111
        },
        {
          "name": "F#2",
          "midi": 42,
          "time": 26.42305050000004,
          "velocity": 0.7480314960629921,
          "duration": 0.11538450000000111
        },
        {
          "name": "F#2",
          "midi": 42,
          "time": 26.538435000000042,
          "velocity": 0.7480314960629921,
          "duration": 0.11538450000000111
        },
        {
          "name": "D2",
          "midi": 38,
          "time": 26.538435000000042,
          "velocity": 0.7480314960629921,
          "duration": 0.11538450000000111
        },
        {
          "name": "D2",
          "midi": 38,
          "time": 26.538435000000042,
          "velocity": 0.7480314960629921,
          "duration": 0.11538450000000111
        },
        {
          "name": "D2",
          "midi": 38,
          "time": 26.538435000000042,
          "velocity": 0.7480314960629921,
          "duration": 0.11538450000000111
        },
        {
          "name": "F#2",
          "midi": 42,
          "time": 26.653819500000044,
          "velocity": 0.7480314960629921,
          "duration": 0.11538450000000111
        },
        {
          "name": "F#2",
          "midi": 42,
          "time": 26.769204000000045,
          "velocity": 0.7480314960629921,
          "duration": 0.11538450000000111
        },
        {
          "name": "C2",
          "midi": 36,
          "time": 26.769204000000045,
          "velocity": 0.7480314960629921,
          "duration": 0.11538450000000111
        },
        {
          "name": "F#2",
          "midi": 42,
          "time": 26.884588500000046,
          "velocity": 0.7480314960629921,
          "duration": 0.11538450000000111
        },
        {
          "name": "F#2",
          "midi": 42,
          "time": 26.999973000000047,
          "velocity": 0.7480314960629921,
          "duration": 0.11538450000000111
        },
        {
          "name": "D2",
          "midi": 38,
          "time": 26.999973000000047,
          "velocity": 0.7480314960629921,
          "duration": 0.11538450000000111
        },
        {
          "name": "D2",
          "midi": 38,
          "time": 26.999973000000047,
          "velocity": 0.7480314960629921,
          "duration": 0.11538450000000111
        },
        {
          "name": "D2",
          "midi": 38,
          "time": 26.999973000000047,
          "velocity": 0.7480314960629921,
          "duration": 0.11538450000000111
        },
        {
          "name": "F#2",
          "midi": 42,
          "time": 27.115357500000048,
          "velocity": 0.7480314960629921,
          "duration": 0.11538450000000111
        },
        {
          "name": "F#2",
          "midi": 42,
          "time": 27.23074200000005,
          "velocity": 0.7480314960629921,
          "duration": 0.11538450000000111
        },
        {
          "name": "C2",
          "midi": 36,
          "time": 27.23074200000005,
          "velocity": 0.7480314960629921,
          "duration": 0.11538450000000111
        },
        {
          "name": "F#2",
          "midi": 42,
          "time": 27.34612650000005,
          "velocity": 0.7480314960629921,
          "duration": 0.11538450000000111
        },
        {
          "name": "F#2",
          "midi": 42,
          "time": 27.46151100000005,
          "velocity": 0.7480314960629921,
          "duration": 0.11538450000000111
        },
        {
          "name": "D2",
          "midi": 38,
          "time": 27.46151100000005,
          "velocity": 0.7480314960629921,
          "duration": 0.11538450000000111
        },
        {
          "name": "D2",
          "midi": 38,
          "time": 27.46151100000005,
          "velocity": 0.7480314960629921,
          "duration": 0.11538450000000111
        },
        {
          "name": "D2",
          "midi": 38,
          "time": 27.46151100000005,
          "velocity": 0.7480314960629921,
          "duration": 0.11538450000000111
        },
        {
          "name": "F#2",
          "midi": 42,
          "time": 27.576895500000052,
          "velocity": 0.7480314960629921,
          "duration": 0.11538450000000111
        },
        {
          "name": "F#2",
          "midi": 42,
          "time": 27.692280000000054,
          "velocity": 0.7480314960629921,
          "duration": 0.11538450000000111
        },
        {
          "name": "C2",
          "midi": 36,
          "time": 27.692280000000054,
          "velocity": 0.7480314960629921,
          "duration": 0.11538450000000111
        },
        {
          "name": "F#2",
          "midi": 42,
          "time": 27.807664500000055,
          "velocity": 0.7480314960629921,
          "duration": 0.11538450000000111
        },
        {
          "name": "F#2",
          "midi": 42,
          "time": 27.923049000000056,
          "velocity": 0.7480314960629921,
          "duration": 0.11538450000000111
        },
        {
          "name": "D2",
          "midi": 38,
          "time": 27.923049000000056,
          "velocity": 0.7480314960629921,
          "duration": 0.11538450000000111
        },
        {
          "name": "D2",
          "midi": 38,
          "time": 27.923049000000056,
          "velocity": 0.7480314960629921,
          "duration": 0.11538450000000111
        },
        {
          "name": "D2",
          "midi": 38,
          "time": 27.923049000000056,
          "velocity": 0.7480314960629921,
          "duration": 0.11538450000000111
        },
        {
          "name": "F#2",
          "midi": 42,
          "time": 28.038433500000057,
          "velocity": 0.7480314960629921,
          "duration": 0.11538450000000111
        },
        {
          "name": "F#2",
          "midi": 42,
          "time": 28.153818000000058,
          "velocity": 0.7480314960629921,
          "duration": 0.11538450000000111
        },
        {
          "name": "C2",
          "midi": 36,
          "time": 28.153818000000058,
          "velocity": 0.7480314960629921,
          "duration": 0.11538450000000111
        },
        {
          "name": "F#2",
          "midi": 42,
          "time": 28.26920250000006,
          "velocity": 0.7480314960629921,
          "duration": 0.11538450000000111
        },
        {
          "name": "F#2",
          "midi": 42,
          "time": 28.38458700000006,
          "velocity": 0.7480314960629921,
          "duration": 0.11538450000000111
        },
        {
          "name": "D2",
          "midi": 38,
          "time": 28.38458700000006,
          "velocity": 0.7480314960629921,
          "duration": 0.11538450000000111
        },
        {
          "name": "D2",
          "midi": 38,
          "time": 28.38458700000006,
          "velocity": 0.7480314960629921,
          "duration": 0.11538450000000111
        },
        {
          "name": "D2",
          "midi": 38,
          "time": 28.38458700000006,
          "velocity": 0.7480314960629921,
          "duration": 0.11538450000000111
        },
        {
          "name": "F#2",
          "midi": 42,
          "time": 28.49997150000006,
          "velocity": 0.7480314960629921,
          "duration": 0.11538450000000111
        },
        {
          "name": "F#2",
          "midi": 42,
          "time": 28.615356000000062,
          "velocity": 0.7480314960629921,
          "duration": 0.11538450000000111
        },
        {
          "name": "C2",
          "midi": 36,
          "time": 28.615356000000062,
          "velocity": 0.7480314960629921,
          "duration": 0.11538450000000111
        },
        {
          "name": "F#2",
          "midi": 42,
          "time": 28.730740500000064,
          "velocity": 0.7480314960629921,
          "duration": 0.11538450000000111
        },
        {
          "name": "F#2",
          "midi": 42,
          "time": 28.846125000000065,
          "velocity": 0.7480314960629921,
          "duration": 0.11538450000000111
        },
        {
          "name": "D2",
          "midi": 38,
          "time": 28.846125000000065,
          "velocity": 0.7480314960629921,
          "duration": 0.11538450000000111
        },
        {
          "name": "D2",
          "midi": 38,
          "time": 28.846125000000065,
          "velocity": 0.7480314960629921,
          "duration": 0.11538450000000111
        },
        {
          "name": "D2",
          "midi": 38,
          "time": 28.846125000000065,
          "velocity": 0.7480314960629921,
          "duration": 0.11538450000000111
        },
        {
          "name": "F#2",
          "midi": 42,
          "time": 28.961509500000066,
          "velocity": 0.7480314960629921,
          "duration": 0.11538450000000111
        },
        {
          "name": "F#2",
          "midi": 42,
          "time": 29.076894000000067,
          "velocity": 0.7480314960629921,
          "duration": 0.11538450000000111
        },
        {
          "name": "C2",
          "midi": 36,
          "time": 29.076894000000067,
          "velocity": 0.7480314960629921,
          "duration": 0.11538450000000111
        },
        {
          "name": "F#2",
          "midi": 42,
          "time": 29.192278500000068,
          "velocity": 0.7480314960629921,
          "duration": 0.11538450000000111
        },
        {
          "name": "F#2",
          "midi": 42,
          "time": 29.30766300000007,
          "velocity": 0.7480314960629921,
          "duration": 0.11538450000000111
        },
        {
          "name": "D2",
          "midi": 38,
          "time": 29.30766300000007,
          "velocity": 0.7480314960629921,
          "duration": 0.11538450000000111
        },
        {
          "name": "D2",
          "midi": 38,
          "time": 29.30766300000007,
          "velocity": 0.7480314960629921,
          "duration": 0.11538450000000111
        },
        {
          "name": "D2",
          "midi": 38,
          "time": 29.30766300000007,
          "velocity": 0.7480314960629921,
          "duration": 0.11538450000000111
        },
        {
          "name": "F#2",
          "midi": 42,
          "time": 29.42304750000007,
          "velocity": 0.7480314960629921,
          "duration": 0.11538450000000111
        },
        {
          "name": "F#2",
          "midi": 42,
          "time": 29.53843200000007,
          "velocity": 0.7480314960629921,
          "duration": 0.11538450000000111
        },
        {
          "name": "C2",
          "midi": 36,
          "time": 29.53843200000007,
          "velocity": 0.7480314960629921,
          "duration": 0.11538450000000111
        },
        {
          "name": "F#2",
          "midi": 42,
          "time": 29.653816500000072,
          "velocity": 0.7480314960629921,
          "duration": 0.11538450000000111
        },
        {
          "name": "F#2",
          "midi": 42,
          "time": 29.769201000000074,
          "velocity": 0.7480314960629921,
          "duration": 0.11538450000000111
        },
        {
          "name": "D2",
          "midi": 38,
          "time": 29.769201000000074,
          "velocity": 0.7480314960629921,
          "duration": 0.11538450000000111
        },
        {
          "name": "D2",
          "midi": 38,
          "time": 29.769201000000074,
          "velocity": 0.7480314960629921,
          "duration": 0.11538450000000111
        },
        {
          "name": "D2",
          "midi": 38,
          "time": 29.769201000000074,
          "velocity": 0.7480314960629921,
          "duration": 0.11538450000000111
        },
        {
          "name": "F#2",
          "midi": 42,
          "time": 29.884585500000075,
          "velocity": 0.7480314960629921,
          "duration": 0.11538450000000111
        },
        {
          "name": "F#2",
          "midi": 42,
          "time": 29.999970000000076,
          "velocity": 0.7480314960629921,
          "duration": 0.11538450000000111
        },
        {
          "name": "C2",
          "midi": 36,
          "time": 29.999970000000076,
          "velocity": 0.7480314960629921,
          "duration": 0.11538450000000111
        },
        {
          "name": "F#2",
          "midi": 42,
          "time": 30.115354500000077,
          "velocity": 0.7480314960629921,
          "duration": 0.11538450000000111
        },
        {
          "name": "F#2",
          "midi": 42,
          "time": 30.230739000000078,
          "velocity": 0.7480314960629921,
          "duration": 0.11538450000000111
        },
        {
          "name": "D2",
          "midi": 38,
          "time": 30.230739000000078,
          "velocity": 0.7480314960629921,
          "duration": 0.11538450000000111
        },
        {
          "name": "D2",
          "midi": 38,
          "time": 30.230739000000078,
          "velocity": 0.7480314960629921,
          "duration": 0.11538450000000111
        },
        {
          "name": "D2",
          "midi": 38,
          "time": 30.230739000000078,
          "velocity": 0.7480314960629921,
          "duration": 0.11538450000000111
        },
        {
          "name": "F#2",
          "midi": 42,
          "time": 30.34612350000008,
          "velocity": 0.7480314960629921,
          "duration": 0.11538450000000111
        },
        {
          "name": "F#2",
          "midi": 42,
          "time": 30.46150800000008,
          "velocity": 0.7480314960629921,
          "duration": 0.11538450000000111
        },
        {
          "name": "C2",
          "midi": 36,
          "time": 30.46150800000008,
          "velocity": 0.7480314960629921,
          "duration": 0.11538450000000111
        },
        {
          "name": "F#2",
          "midi": 42,
          "time": 30.57689250000008,
          "velocity": 0.7480314960629921,
          "duration": 0.11538450000000111
        },
        {
          "name": "F#2",
          "midi": 42,
          "time": 30.692277000000082,
          "velocity": 0.7480314960629921,
          "duration": 0.11538450000000111
        },
        {
          "name": "D2",
          "midi": 38,
          "time": 30.692277000000082,
          "velocity": 0.7480314960629921,
          "duration": 0.11538450000000111
        },
        {
          "name": "D2",
          "midi": 38,
          "time": 30.692277000000082,
          "velocity": 0.7480314960629921,
          "duration": 0.11538450000000111
        },
        {
          "name": "D2",
          "midi": 38,
          "time": 30.692277000000082,
          "velocity": 0.7480314960629921,
          "duration": 0.11538450000000111
        },
        {
          "name": "F#2",
          "midi": 42,
          "time": 30.807661500000084,
          "velocity": 0.7480314960629921,
          "duration": 0.11538450000000111
        },
        {
          "name": "F#2",
          "midi": 42,
          "time": 30.923046000000085,
          "velocity": 0.7480314960629921,
          "duration": 0.11538450000000111
        },
        {
          "name": "C2",
          "midi": 36,
          "time": 30.923046000000085,
          "velocity": 0.7480314960629921,
          "duration": 0.11538450000000111
        },
        {
          "name": "F#2",
          "midi": 42,
          "time": 31.038430500000086,
          "velocity": 0.7480314960629921,
          "duration": 0.11538450000000111
        },
        {
          "name": "F#2",
          "midi": 42,
          "time": 31.153815000000087,
          "velocity": 0.7480314960629921,
          "duration": 0.11538450000000111
        },
        {
          "name": "D2",
          "midi": 38,
          "time": 31.153815000000087,
          "velocity": 0.7480314960629921,
          "duration": 0.11538450000000111
        },
        {
          "name": "D2",
          "midi": 38,
          "time": 31.153815000000087,
          "velocity": 0.7480314960629921,
          "duration": 0.11538450000000111
        },
        {
          "name": "D2",
          "midi": 38,
          "time": 31.153815000000087,
          "velocity": 0.7480314960629921,
          "duration": 0.11538450000000111
        },
        {
          "name": "F#2",
          "midi": 42,
          "time": 31.269199500000088,
          "velocity": 0.7480314960629921,
          "duration": 0.11538450000000111
        },
        {
          "name": "F#2",
          "midi": 42,
          "time": 31.38458400000009,
          "velocity": 0.7480314960629921,
          "duration": 0.11538450000000111
        },
        {
          "name": "C2",
          "midi": 36,
          "time": 31.38458400000009,
          "velocity": 0.7480314960629921,
          "duration": 0.11538450000000111
        },
        {
          "name": "F#2",
          "midi": 42,
          "time": 31.49996850000009,
          "velocity": 0.7480314960629921,
          "duration": 0.11538450000000111
        },
        {
          "name": "F#2",
          "midi": 42,
          "time": 31.61535300000009,
          "velocity": 0.7480314960629921,
          "duration": 0.11538450000000111
        },
        {
          "name": "D2",
          "midi": 38,
          "time": 31.61535300000009,
          "velocity": 0.7480314960629921,
          "duration": 0.11538450000000111
        },
        {
          "name": "D2",
          "midi": 38,
          "time": 31.61535300000009,
          "velocity": 0.7480314960629921,
          "duration": 0.11538450000000111
        },
        {
          "name": "D2",
          "midi": 38,
          "time": 31.61535300000009,
          "velocity": 0.7480314960629921,
          "duration": 0.11538450000000111
        },
        {
          "name": "F#2",
          "midi": 42,
          "time": 31.730737500000092,
          "velocity": 0.7480314960629921,
          "duration": 0.11538450000000111
        },
        {
          "name": "F#2",
          "midi": 42,
          "time": 31.846122000000094,
          "velocity": 0.7480314960629921,
          "duration": 0.11538450000000111
        },
        {
          "name": "C2",
          "midi": 36,
          "time": 31.846122000000094,
          "velocity": 0.7480314960629921,
          "duration": 0.11538450000000111
        },
        {
          "name": "F#2",
          "midi": 42,
          "time": 31.961506500000095,
          "velocity": 0.7480314960629921,
          "duration": 0.11538450000000111
        },
        {
          "name": "F#2",
          "midi": 42,
          "time": 32.076891000000096,
          "velocity": 0.7480314960629921,
          "duration": 0.11538449999999756
        },
        {
          "name": "D2",
          "midi": 38,
          "time": 32.076891000000096,
          "velocity": 0.7480314960629921,
          "duration": 0.11538449999999756
        },
        {
          "name": "D2",
          "midi": 38,
          "time": 32.076891000000096,
          "velocity": 0.7480314960629921,
          "duration": 0.11538449999999756
        },
        {
          "name": "D2",
          "midi": 38,
          "time": 32.076891000000096,
          "velocity": 0.7480314960629921,
          "duration": 0.11538449999999756
        },
        {
          "name": "F#2",
          "midi": 42,
          "time": 32.19227550000009,
          "velocity": 0.7480314960629921,
          "duration": 0.11538449999999756
        },
        {
          "name": "F#2",
          "midi": 42,
          "time": 32.30766000000009,
          "velocity": 0.7480314960629921,
          "duration": 0.11538449999999756
        },
        {
          "name": "C2",
          "midi": 36,
          "time": 32.30766000000009,
          "velocity": 0.7480314960629921,
          "duration": 0.11538449999999756
        },
        {
          "name": "F#2",
          "midi": 42,
          "time": 32.42304450000009,
          "velocity": 0.7480314960629921,
          "duration": 0.11538449999999756
        },
        {
          "name": "F#2",
          "midi": 42,
          "time": 32.538429000000086,
          "velocity": 0.7480314960629921,
          "duration": 0.11538449999999756
        },
        {
          "name": "D2",
          "midi": 38,
          "time": 32.538429000000086,
          "velocity": 0.7480314960629921,
          "duration": 0.11538449999999756
        },
        {
          "name": "D2",
          "midi": 38,
          "time": 32.538429000000086,
          "velocity": 0.7480314960629921,
          "duration": 0.11538449999999756
        },
        {
          "name": "D2",
          "midi": 38,
          "time": 32.538429000000086,
          "velocity": 0.7480314960629921,
          "duration": 0.11538449999999756
        },
        {
          "name": "F#2",
          "midi": 42,
          "time": 32.65381350000008,
          "velocity": 0.7480314960629921,
          "duration": 0.11538449999999756
        },
        {
          "name": "F#2",
          "midi": 42,
          "time": 32.76919800000008,
          "velocity": 0.7480314960629921,
          "duration": 0.11538449999999756
        },
        {
          "name": "C2",
          "midi": 36,
          "time": 32.76919800000008,
          "velocity": 0.7480314960629921,
          "duration": 0.11538449999999756
        },
        {
          "name": "F#2",
          "midi": 42,
          "time": 32.88458250000008,
          "velocity": 0.7480314960629921,
          "duration": 0.11538449999999756
        },
        {
          "name": "F#2",
          "midi": 42,
          "time": 32.999967000000076,
          "velocity": 0.7480314960629921,
          "duration": 0.11538449999999756
        },
        {
          "name": "D2",
          "midi": 38,
          "time": 32.999967000000076,
          "velocity": 0.7480314960629921,
          "duration": 0.11538449999999756
        },
        {
          "name": "D2",
          "midi": 38,
          "time": 32.999967000000076,
          "velocity": 0.7480314960629921,
          "duration": 0.11538449999999756
        },
        {
          "name": "D2",
          "midi": 38,
          "time": 32.999967000000076,
          "velocity": 0.7480314960629921,
          "duration": 0.11538449999999756
        },
        {
          "name": "F#2",
          "midi": 42,
          "time": 33.115351500000074,
          "velocity": 0.7480314960629921,
          "duration": 0.11538449999999756
        },
        {
          "name": "F#2",
          "midi": 42,
          "time": 33.23073600000007,
          "velocity": 0.7480314960629921,
          "duration": 0.11538449999999756
        },
        {
          "name": "C2",
          "midi": 36,
          "time": 33.23073600000007,
          "velocity": 0.7480314960629921,
          "duration": 0.11538449999999756
        },
        {
          "name": "F#2",
          "midi": 42,
          "time": 33.34612050000007,
          "velocity": 0.7480314960629921,
          "duration": 0.11538449999999756
        },
        {
          "name": "F#2",
          "midi": 42,
          "time": 33.461505000000066,
          "velocity": 0.7480314960629921,
          "duration": 0.11538449999999756
        },
        {
          "name": "D2",
          "midi": 38,
          "time": 33.461505000000066,
          "velocity": 0.7480314960629921,
          "duration": 0.11538449999999756
        },
        {
          "name": "D2",
          "midi": 38,
          "time": 33.461505000000066,
          "velocity": 0.7480314960629921,
          "duration": 0.11538449999999756
        },
        {
          "name": "D2",
          "midi": 38,
          "time": 33.461505000000066,
          "velocity": 0.7480314960629921,
          "duration": 0.11538449999999756
        },
        {
          "name": "F#2",
          "midi": 42,
          "time": 33.576889500000064,
          "velocity": 0.7480314960629921,
          "duration": 0.11538449999999756
        },
        {
          "name": "F#2",
          "midi": 42,
          "time": 33.69227400000006,
          "velocity": 0.7480314960629921,
          "duration": 0.11538449999999756
        },
        {
          "name": "C2",
          "midi": 36,
          "time": 33.69227400000006,
          "velocity": 0.7480314960629921,
          "duration": 0.11538449999999756
        },
        {
          "name": "F#2",
          "midi": 42,
          "time": 33.80765850000006,
          "velocity": 0.7480314960629921,
          "duration": 0.11538449999999756
        },
        {
          "name": "F#2",
          "midi": 42,
          "time": 33.92304300000006,
          "velocity": 0.7480314960629921,
          "duration": 0.11538449999999756
        },
        {
          "name": "D2",
          "midi": 38,
          "time": 33.92304300000006,
          "velocity": 0.7480314960629921,
          "duration": 0.11538449999999756
        },
        {
          "name": "D2",
          "midi": 38,
          "time": 33.92304300000006,
          "velocity": 0.7480314960629921,
          "duration": 0.11538449999999756
        },
        {
          "name": "D2",
          "midi": 38,
          "time": 33.92304300000006,
          "velocity": 0.7480314960629921,
          "duration": 0.11538449999999756
        },
        {
          "name": "F#2",
          "midi": 42,
          "time": 34.038427500000054,
          "velocity": 0.7480314960629921,
          "duration": 0.11538449999999756
        },
        {
          "name": "F#2",
          "midi": 42,
          "time": 34.15381200000005,
          "velocity": 0.7480314960629921,
          "duration": 0.11538449999999756
        },
        {
          "name": "C2",
          "midi": 36,
          "time": 34.15381200000005,
          "velocity": 0.7480314960629921,
          "duration": 0.11538449999999756
        },
        {
          "name": "F#2",
          "midi": 42,
          "time": 34.26919650000005,
          "velocity": 0.7480314960629921,
          "duration": 0.11538449999999756
        },
        {
          "name": "F#2",
          "midi": 42,
          "time": 34.38458100000005,
          "velocity": 0.7480314960629921,
          "duration": 0.11538449999999756
        },
        {
          "name": "D2",
          "midi": 38,
          "time": 34.38458100000005,
          "velocity": 0.7480314960629921,
          "duration": 0.11538449999999756
        },
        {
          "name": "D2",
          "midi": 38,
          "time": 34.38458100000005,
          "velocity": 0.7480314960629921,
          "duration": 0.11538449999999756
        },
        {
          "name": "D2",
          "midi": 38,
          "time": 34.38458100000005,
          "velocity": 0.7480314960629921,
          "duration": 0.11538449999999756
        },
        {
          "name": "F#2",
          "midi": 42,
          "time": 34.499965500000044,
          "velocity": 0.7480314960629921,
          "duration": 0.11538449999999756
        },
        {
          "name": "F#2",
          "midi": 42,
          "time": 34.61535000000004,
          "velocity": 0.7480314960629921,
          "duration": 0.11538449999999756
        },
        {
          "name": "C2",
          "midi": 36,
          "time": 34.61535000000004,
          "velocity": 0.7480314960629921,
          "duration": 0.11538449999999756
        },
        {
          "name": "F#2",
          "midi": 42,
          "time": 34.73073450000004,
          "velocity": 0.7480314960629921,
          "duration": 0.11538449999999756
        },
        {
          "name": "F#2",
          "midi": 42,
          "time": 34.84611900000004,
          "velocity": 0.7480314960629921,
          "duration": 0.11538449999999756
        },
        {
          "name": "D2",
          "midi": 38,
          "time": 34.84611900000004,
          "velocity": 0.7480314960629921,
          "duration": 0.11538449999999756
        },
        {
          "name": "D2",
          "midi": 38,
          "time": 34.84611900000004,
          "velocity": 0.7480314960629921,
          "duration": 0.11538449999999756
        },
        {
          "name": "D2",
          "midi": 38,
          "time": 34.84611900000004,
          "velocity": 0.7480314960629921,
          "duration": 0.11538449999999756
        },
        {
          "name": "F#2",
          "midi": 42,
          "time": 34.961503500000035,
          "velocity": 0.7480314960629921,
          "duration": 0.11538449999999756
        },
        {
          "name": "C#3",
          "midi": 49,
          "time": 35.07688800000003,
          "velocity": 0.7480314960629921,
          "duration": 0.3461534999999998
        },
        {
          "name": "C#3",
          "midi": 49,
          "time": 35.07688800000003,
          "velocity": 0.7480314960629921,
          "duration": 0.3461534999999998
        },
        {
          "name": "D2",
          "midi": 38,
          "time": 35.07688800000003,
          "velocity": 0.7480314960629921,
          "duration": 0.3461534999999998
        },
        {
          "name": "D2",
          "midi": 38,
          "time": 35.07688800000003,
          "velocity": 0.7480314960629921,
          "duration": 0.3461534999999998
        },
        {
          "name": "D2",
          "midi": 38,
          "time": 35.07688800000003,
          "velocity": 0.7480314960629921,
          "duration": 0.3461534999999998
        },
        {
          "name": "C#3",
          "midi": 49,
          "time": 35.42304150000003,
          "velocity": 0.7480314960629921,
          "duration": 0.3461534999999998
        },
        {
          "name": "C#3",
          "midi": 49,
          "time": 35.42304150000003,
          "velocity": 0.7480314960629921,
          "duration": 0.3461534999999998
        },
        {
          "name": "D2",
          "midi": 38,
          "time": 35.42304150000003,
          "velocity": 0.7480314960629921,
          "duration": 0.3461534999999998
        },
        {
          "name": "D2",
          "midi": 38,
          "time": 35.42304150000003,
          "velocity": 0.7480314960629921,
          "duration": 0.3461534999999998
        },
        {
          "name": "D2",
          "midi": 38,
          "time": 35.42304150000003,
          "velocity": 0.7480314960629921,
          "duration": 0.3461534999999998
        },
        {
          "name": "C#3",
          "midi": 49,
          "time": 35.76919500000003,
          "velocity": 0.7480314960629921,
          "duration": 0.3461534999999998
        },
        {
          "name": "C#3",
          "midi": 49,
          "time": 35.76919500000003,
          "velocity": 0.7480314960629921,
          "duration": 0.3461534999999998
        },
        {
          "name": "D2",
          "midi": 38,
          "time": 35.76919500000003,
          "velocity": 0.7480314960629921,
          "duration": 0.3461534999999998
        },
        {
          "name": "D2",
          "midi": 38,
          "time": 35.76919500000003,
          "velocity": 0.7480314960629921,
          "duration": 0.3461534999999998
        },
        {
          "name": "D2",
          "midi": 38,
          "time": 35.76919500000003,
          "velocity": 0.7480314960629921,
          "duration": 0.3461534999999998
        },
        {
          "name": "C#3",
          "midi": 49,
          "time": 36.11534850000003,
          "velocity": 0.7480314960629921,
          "duration": 0.3461534999999998
        },
        {
          "name": "C#3",
          "midi": 49,
          "time": 36.11534850000003,
          "velocity": 0.7480314960629921,
          "duration": 0.3461534999999998
        },
        {
          "name": "D2",
          "midi": 38,
          "time": 36.11534850000003,
          "velocity": 0.7480314960629921,
          "duration": 0.3461534999999998
        },
        {
          "name": "D2",
          "midi": 38,
          "time": 36.11534850000003,
          "velocity": 0.7480314960629921,
          "duration": 0.3461534999999998
        },
        {
          "name": "D2",
          "midi": 38,
          "time": 36.11534850000003,
          "velocity": 0.7480314960629921,
          "duration": 0.3461534999999998
        },
        {
          "name": "C#3",
          "midi": 49,
          "time": 36.46150200000003,
          "velocity": 0.7480314960629921,
          "duration": 0.23076900000000222
        },
        {
          "name": "C#3",
          "midi": 49,
          "time": 36.46150200000003,
          "velocity": 0.7480314960629921,
          "duration": 0.23076900000000222
        },
        {
          "name": "D2",
          "midi": 38,
          "time": 36.46150200000003,
          "velocity": 0.7480314960629921,
          "duration": 0.23076900000000222
        },
        {
          "name": "D2",
          "midi": 38,
          "time": 36.46150200000003,
          "velocity": 0.7480314960629921,
          "duration": 0.23076900000000222
        },
        {
          "name": "D2",
          "midi": 38,
          "time": 36.46150200000003,
          "velocity": 0.7480314960629921,
          "duration": 0.23076900000000222
        },
        {
          "name": "C#3",
          "midi": 49,
          "time": 36.692271000000034,
          "velocity": 0.7480314960629921,
          "duration": 0.23076900000000222
        },
        {
          "name": "C#3",
          "midi": 49,
          "time": 36.692271000000034,
          "velocity": 0.7480314960629921,
          "duration": 0.23076900000000222
        },
        {
          "name": "D2",
          "midi": 38,
          "time": 36.692271000000034,
          "velocity": 0.7480314960629921,
          "duration": 0.23076900000000222
        },
        {
          "name": "D2",
          "midi": 38,
          "time": 36.692271000000034,
          "velocity": 0.7480314960629921,
          "duration": 0.23076900000000222
        },
        {
          "name": "D2",
          "midi": 38,
          "time": 36.692271000000034,
          "velocity": 0.7480314960629921,
          "duration": 0.23076900000000222
        },
        {
          "name": "F#2",
          "midi": 42,
          "time": 36.923040000000036,
          "velocity": 0.7480314960629921,
          "duration": 0.11538449999999756
        },
        {
          "name": "C2",
          "midi": 36,
          "time": 36.923040000000036,
          "velocity": 0.7480314960629921,
          "duration": 0.11538449999999756
        },
        {
          "name": "F#2",
          "midi": 42,
          "time": 37.03842450000003,
          "velocity": 0.7480314960629921,
          "duration": 0.11538449999999756
        },
        {
          "name": "F#2",
          "midi": 42,
          "time": 37.15380900000003,
          "velocity": 0.7480314960629921,
          "duration": 0.11538449999999756
        },
        {
          "name": "D2",
          "midi": 38,
          "time": 37.15380900000003,
          "velocity": 0.7480314960629921,
          "duration": 0.11538449999999756
        },
        {
          "name": "D2",
          "midi": 38,
          "time": 37.15380900000003,
          "velocity": 0.7480314960629921,
          "duration": 0.11538449999999756
        },
        {
          "name": "D2",
          "midi": 38,
          "time": 37.15380900000003,
          "velocity": 0.7480314960629921,
          "duration": 0.11538449999999756
        },
        {
          "name": "F#2",
          "midi": 42,
          "time": 37.26919350000003,
          "velocity": 0.7480314960629921,
          "duration": 0.11538449999999756
        },
        {
          "name": "F#2",
          "midi": 42,
          "time": 37.384578000000026,
          "velocity": 0.7480314960629921,
          "duration": 0.11538449999999756
        },
        {
          "name": "C2",
          "midi": 36,
          "time": 37.384578000000026,
          "velocity": 0.7480314960629921,
          "duration": 0.11538449999999756
        },
        {
          "name": "F#2",
          "midi": 42,
          "time": 37.499962500000024,
          "velocity": 0.7480314960629921,
          "duration": 0.11538449999999756
        },
        {
          "name": "F#2",
          "midi": 42,
          "time": 37.61534700000002,
          "velocity": 0.7480314960629921,
          "duration": 0.11538449999999756
        },
        {
          "name": "D2",
          "midi": 38,
          "time": 37.61534700000002,
          "velocity": 0.7480314960629921,
          "duration": 0.11538449999999756
        },
        {
          "name": "D2",
          "midi": 38,
          "time": 37.61534700000002,
          "velocity": 0.7480314960629921,
          "duration": 0.11538449999999756
        },
        {
          "name": "D2",
          "midi": 38,
          "time": 37.61534700000002,
          "velocity": 0.7480314960629921,
          "duration": 0.11538449999999756
        },
        {
          "name": "F#2",
          "midi": 42,
          "time": 37.73073150000002,
          "velocity": 0.7480314960629921,
          "duration": 0.11538449999999756
        },
        {
          "name": "F#2",
          "midi": 42,
          "time": 37.846116000000016,
          "velocity": 0.7480314960629921,
          "duration": 0.11538449999999756
        },
        {
          "name": "C2",
          "midi": 36,
          "time": 37.846116000000016,
          "velocity": 0.7480314960629921,
          "duration": 0.11538449999999756
        },
        {
          "name": "F#2",
          "midi": 42,
          "time": 37.961500500000014,
          "velocity": 0.7480314960629921,
          "duration": 0.11538449999999756
        },
        {
          "name": "F#2",
          "midi": 42,
          "time": 38.07688500000001,
          "velocity": 0.7480314960629921,
          "duration": 0.11538449999999756
        },
        {
          "name": "D2",
          "midi": 38,
          "time": 38.07688500000001,
          "velocity": 0.7480314960629921,
          "duration": 0.11538449999999756
        },
        {
          "name": "D2",
          "midi": 38,
          "time": 38.07688500000001,
          "velocity": 0.7480314960629921,
          "duration": 0.11538449999999756
        },
        {
          "name": "D2",
          "midi": 38,
          "time": 38.07688500000001,
          "velocity": 0.7480314960629921,
          "duration": 0.11538449999999756
        },
        {
          "name": "F#2",
          "midi": 42,
          "time": 38.19226950000001,
          "velocity": 0.7480314960629921,
          "duration": 0.11538449999999756
        },
        {
          "name": "F#2",
          "midi": 42,
          "time": 38.30765400000001,
          "velocity": 0.7480314960629921,
          "duration": 0.11538449999999756
        },
        {
          "name": "C2",
          "midi": 36,
          "time": 38.30765400000001,
          "velocity": 0.7480314960629921,
          "duration": 0.11538449999999756
        },
        {
          "name": "F#2",
          "midi": 42,
          "time": 38.423038500000004,
          "velocity": 0.7480314960629921,
          "duration": 0.11538449999999756
        },
        {
          "name": "F#2",
          "midi": 42,
          "time": 38.538423,
          "velocity": 0.7480314960629921,
          "duration": 0.11538449999999756
        },
        {
          "name": "D2",
          "midi": 38,
          "time": 38.538423,
          "velocity": 0.7480314960629921,
          "duration": 0.11538449999999756
        },
        {
          "name": "D2",
          "midi": 38,
          "time": 38.538423,
          "velocity": 0.7480314960629921,
          "duration": 0.11538449999999756
        },
        {
          "name": "D2",
          "midi": 38,
          "time": 38.538423,
          "velocity": 0.7480314960629921,
          "duration": 0.11538449999999756
        },
        {
          "name": "F#2",
          "midi": 42,
          "time": 38.6538075,
          "velocity": 0.7480314960629921,
          "duration": 0.11538449999999756
        },
        {
          "name": "F#2",
          "midi": 42,
          "time": 38.769192,
          "velocity": 0.7480314960629921,
          "duration": 0.11538449999999756
        },
        {
          "name": "C2",
          "midi": 36,
          "time": 38.769192,
          "velocity": 0.7480314960629921,
          "duration": 0.11538449999999756
        },
        {
          "name": "F#2",
          "midi": 42,
          "time": 38.884576499999994,
          "velocity": 0.7480314960629921,
          "duration": 0.11538449999999756
        },
        {
          "name": "F#2",
          "midi": 42,
          "time": 38.99996099999999,
          "velocity": 0.7480314960629921,
          "duration": 0.11538449999999756
        },
        {
          "name": "D2",
          "midi": 38,
          "time": 38.99996099999999,
          "velocity": 0.7480314960629921,
          "duration": 0.11538449999999756
        },
        {
          "name": "D2",
          "midi": 38,
          "time": 38.99996099999999,
          "velocity": 0.7480314960629921,
          "duration": 0.11538449999999756
        },
        {
          "name": "D2",
          "midi": 38,
          "time": 38.99996099999999,
          "velocity": 0.7480314960629921,
          "duration": 0.11538449999999756
        },
        {
          "name": "F#2",
          "midi": 42,
          "time": 39.11534549999999,
          "velocity": 0.7480314960629921,
          "duration": 0.11538449999999756
        },
        {
          "name": "F#2",
          "midi": 42,
          "time": 39.23072999999999,
          "velocity": 0.7480314960629921,
          "duration": 0.11538449999999756
        },
        {
          "name": "C2",
          "midi": 36,
          "time": 39.23072999999999,
          "velocity": 0.7480314960629921,
          "duration": 0.11538449999999756
        },
        {
          "name": "F#2",
          "midi": 42,
          "time": 39.346114499999985,
          "velocity": 0.7480314960629921,
          "duration": 0.11538449999999756
        },
        {
          "name": "F#2",
          "midi": 42,
          "time": 39.46149899999998,
          "velocity": 0.7480314960629921,
          "duration": 0.11538449999999756
        },
        {
          "name": "D2",
          "midi": 38,
          "time": 39.46149899999998,
          "velocity": 0.7480314960629921,
          "duration": 0.11538449999999756
        },
        {
          "name": "D2",
          "midi": 38,
          "time": 39.46149899999998,
          "velocity": 0.7480314960629921,
          "duration": 0.11538449999999756
        },
        {
          "name": "D2",
          "midi": 38,
          "time": 39.46149899999998,
          "velocity": 0.7480314960629921,
          "duration": 0.11538449999999756
        },
        {
          "name": "F#2",
          "midi": 42,
          "time": 39.57688349999998,
          "velocity": 0.7480314960629921,
          "duration": 0.11538449999999756
        },
        {
          "name": "F#2",
          "midi": 42,
          "time": 39.69226799999998,
          "velocity": 0.7480314960629921,
          "duration": 0.11538449999999756
        },
        {
          "name": "C2",
          "midi": 36,
          "time": 39.69226799999998,
          "velocity": 0.7480314960629921,
          "duration": 0.11538449999999756
        },
        {
          "name": "F#2",
          "midi": 42,
          "time": 39.807652499999975,
          "velocity": 0.7480314960629921,
          "duration": 0.11538449999999756
        },
        {
          "name": "F#2",
          "midi": 42,
          "time": 39.92303699999997,
          "velocity": 0.7480314960629921,
          "duration": 0.11538449999999756
        },
        {
          "name": "D2",
          "midi": 38,
          "time": 39.92303699999997,
          "velocity": 0.7480314960629921,
          "duration": 0.11538449999999756
        },
        {
          "name": "D2",
          "midi": 38,
          "time": 39.92303699999997,
          "velocity": 0.7480314960629921,
          "duration": 0.11538449999999756
        },
        {
          "name": "D2",
          "midi": 38,
          "time": 39.92303699999997,
          "velocity": 0.7480314960629921,
          "duration": 0.11538449999999756
        },
        {
          "name": "F#2",
          "midi": 42,
          "time": 40.03842149999997,
          "velocity": 0.7480314960629921,
          "duration": 0.11538449999999756
        },
        {
          "name": "F#2",
          "midi": 42,
          "time": 40.15380599999997,
          "velocity": 0.7480314960629921,
          "duration": 0.11538449999999756
        },
        {
          "name": "C2",
          "midi": 36,
          "time": 40.15380599999997,
          "velocity": 0.7480314960629921,
          "duration": 0.11538449999999756
        },
        {
          "name": "F#2",
          "midi": 42,
          "time": 40.269190499999965,
          "velocity": 0.7480314960629921,
          "duration": 0.11538449999999756
        },
        {
          "name": "F#2",
          "midi": 42,
          "time": 40.38457499999996,
          "velocity": 0.7480314960629921,
          "duration": 0.11538449999999756
        },
        {
          "name": "D2",
          "midi": 38,
          "time": 40.38457499999996,
          "velocity": 0.7480314960629921,
          "duration": 0.11538449999999756
        },
        {
          "name": "D2",
          "midi": 38,
          "time": 40.38457499999996,
          "velocity": 0.7480314960629921,
          "duration": 0.11538449999999756
        },
        {
          "name": "D2",
          "midi": 38,
          "time": 40.38457499999996,
          "velocity": 0.7480314960629921,
          "duration": 0.11538449999999756
        },
        {
          "name": "F#2",
          "midi": 42,
          "time": 40.49995949999996,
          "velocity": 0.7480314960629921,
          "duration": 0.11538449999999756
        },
        {
          "name": "F#2",
          "midi": 42,
          "time": 40.61534399999996,
          "velocity": 0.7480314960629921,
          "duration": 0.11538449999999756
        },
        {
          "name": "C2",
          "midi": 36,
          "time": 40.61534399999996,
          "velocity": 0.7480314960629921,
          "duration": 0.11538449999999756
        },
        {
          "name": "F#2",
          "midi": 42,
          "time": 40.730728499999955,
          "velocity": 0.7480314960629921,
          "duration": 0.11538449999999756
        },
        {
          "name": "F#2",
          "midi": 42,
          "time": 40.84611299999995,
          "velocity": 0.7480314960629921,
          "duration": 0.11538449999999756
        },
        {
          "name": "D2",
          "midi": 38,
          "time": 40.84611299999995,
          "velocity": 0.7480314960629921,
          "duration": 0.11538449999999756
        },
        {
          "name": "D2",
          "midi": 38,
          "time": 40.84611299999995,
          "velocity": 0.7480314960629921,
          "duration": 0.11538449999999756
        },
        {
          "name": "D2",
          "midi": 38,
          "time": 40.84611299999995,
          "velocity": 0.7480314960629921,
          "duration": 0.11538449999999756
        },
        {
          "name": "F#2",
          "midi": 42,
          "time": 40.96149749999995,
          "velocity": 0.7480314960629921,
          "duration": 0.11538449999999756
        },
        {
          "name": "F#2",
          "midi": 42,
          "time": 41.07688199999995,
          "velocity": 0.7480314960629921,
          "duration": 0.11538449999999756
        },
        {
          "name": "C2",
          "midi": 36,
          "time": 41.07688199999995,
          "velocity": 0.7480314960629921,
          "duration": 0.11538449999999756
        },
        {
          "name": "F#2",
          "midi": 42,
          "time": 41.192266499999945,
          "velocity": 0.7480314960629921,
          "duration": 0.11538449999999756
        },
        {
          "name": "F#2",
          "midi": 42,
          "time": 41.30765099999994,
          "velocity": 0.7480314960629921,
          "duration": 0.11538449999999756
        },
        {
          "name": "D2",
          "midi": 38,
          "time": 41.30765099999994,
          "velocity": 0.7480314960629921,
          "duration": 0.11538449999999756
        },
        {
          "name": "D2",
          "midi": 38,
          "time": 41.30765099999994,
          "velocity": 0.7480314960629921,
          "duration": 0.11538449999999756
        },
        {
          "name": "D2",
          "midi": 38,
          "time": 41.30765099999994,
          "velocity": 0.7480314960629921,
          "duration": 0.11538449999999756
        },
        {
          "name": "F#2",
          "midi": 42,
          "time": 41.42303549999994,
          "velocity": 0.7480314960629921,
          "duration": 0.11538449999999756
        },
        {
          "name": "F#2",
          "midi": 42,
          "time": 41.53841999999994,
          "velocity": 0.7480314960629921,
          "duration": 0.11538449999999756
        },
        {
          "name": "C2",
          "midi": 36,
          "time": 41.53841999999994,
          "velocity": 0.7480314960629921,
          "duration": 0.11538449999999756
        },
        {
          "name": "F#2",
          "midi": 42,
          "time": 41.653804499999936,
          "velocity": 0.7480314960629921,
          "duration": 0.11538449999999756
        },
        {
          "name": "F#2",
          "midi": 42,
          "time": 41.76918899999993,
          "velocity": 0.7480314960629921,
          "duration": 0.11538449999999756
        },
        {
          "name": "D2",
          "midi": 38,
          "time": 41.76918899999993,
          "velocity": 0.7480314960629921,
          "duration": 0.11538449999999756
        },
        {
          "name": "D2",
          "midi": 38,
          "time": 41.76918899999993,
          "velocity": 0.7480314960629921,
          "duration": 0.11538449999999756
        },
        {
          "name": "D2",
          "midi": 38,
          "time": 41.76918899999993,
          "velocity": 0.7480314960629921,
          "duration": 0.11538449999999756
        },
        {
          "name": "F#2",
          "midi": 42,
          "time": 41.88457349999993,
          "velocity": 0.7480314960629921,
          "duration": 0.11538449999999756
        },
        {
          "name": "F#2",
          "midi": 42,
          "time": 41.99995799999993,
          "velocity": 0.7480314960629921,
          "duration": 0.11538449999999756
        },
        {
          "name": "C2",
          "midi": 36,
          "time": 41.99995799999993,
          "velocity": 0.7480314960629921,
          "duration": 0.11538449999999756
        },
        {
          "name": "F#2",
          "midi": 42,
          "time": 42.115342499999926,
          "velocity": 0.7480314960629921,
          "duration": 0.11538449999999756
        },
        {
          "name": "F#2",
          "midi": 42,
          "time": 42.23072699999992,
          "velocity": 0.7480314960629921,
          "duration": 0.11538449999999756
        },
        {
          "name": "D2",
          "midi": 38,
          "time": 42.23072699999992,
          "velocity": 0.7480314960629921,
          "duration": 0.11538449999999756
        },
        {
          "name": "D2",
          "midi": 38,
          "time": 42.23072699999992,
          "velocity": 0.7480314960629921,
          "duration": 0.11538449999999756
        },
        {
          "name": "D2",
          "midi": 38,
          "time": 42.23072699999992,
          "velocity": 0.7480314960629921,
          "duration": 0.11538449999999756
        },
        {
          "name": "F#2",
          "midi": 42,
          "time": 42.34611149999992,
          "velocity": 0.7480314960629921,
          "duration": 0.11538449999999756
        },
        {
          "name": "F#2",
          "midi": 42,
          "time": 42.46149599999992,
          "velocity": 0.7480314960629921,
          "duration": 0.11538449999999756
        },
        {
          "name": "C2",
          "midi": 36,
          "time": 42.46149599999992,
          "velocity": 0.7480314960629921,
          "duration": 0.11538449999999756
        },
        {
          "name": "F#2",
          "midi": 42,
          "time": 42.576880499999916,
          "velocity": 0.7480314960629921,
          "duration": 0.11538449999999756
        },
        {
          "name": "F#2",
          "midi": 42,
          "time": 42.692264999999914,
          "velocity": 0.7480314960629921,
          "duration": 0.11538449999999756
        },
        {
          "name": "D2",
          "midi": 38,
          "time": 42.692264999999914,
          "velocity": 0.7480314960629921,
          "duration": 0.11538449999999756
        },
        {
          "name": "D2",
          "midi": 38,
          "time": 42.692264999999914,
          "velocity": 0.7480314960629921,
          "duration": 0.11538449999999756
        },
        {
          "name": "D2",
          "midi": 38,
          "time": 42.692264999999914,
          "velocity": 0.7480314960629921,
          "duration": 0.11538449999999756
        },
        {
          "name": "F#2",
          "midi": 42,
          "time": 42.80764949999991,
          "velocity": 0.7480314960629921,
          "duration": 0.11538449999999756
        },
        {
          "name": "F#2",
          "midi": 42,
          "time": 42.92303399999991,
          "velocity": 0.7480314960629921,
          "duration": 0.11538449999999756
        },
        {
          "name": "C2",
          "midi": 36,
          "time": 42.92303399999991,
          "velocity": 0.7480314960629921,
          "duration": 0.11538449999999756
        },
        {
          "name": "F#2",
          "midi": 42,
          "time": 43.038418499999906,
          "velocity": 0.7480314960629921,
          "duration": 0.11538449999999756
        },
        {
          "name": "F#2",
          "midi": 42,
          "time": 43.153802999999904,
          "velocity": 0.7480314960629921,
          "duration": 0.11538449999999756
        },
        {
          "name": "D2",
          "midi": 38,
          "time": 43.153802999999904,
          "velocity": 0.7480314960629921,
          "duration": 0.11538449999999756
        },
        {
          "name": "D2",
          "midi": 38,
          "time": 43.153802999999904,
          "velocity": 0.7480314960629921,
          "duration": 0.11538449999999756
        },
        {
          "name": "D2",
          "midi": 38,
          "time": 43.153802999999904,
          "velocity": 0.7480314960629921,
          "duration": 0.11538449999999756
        },
        {
          "name": "F#2",
          "midi": 42,
          "time": 43.2691874999999,
          "velocity": 0.7480314960629921,
          "duration": 0.11538449999999756
        },
        {
          "name": "F#2",
          "midi": 42,
          "time": 43.3845719999999,
          "velocity": 0.7480314960629921,
          "duration": 0.11538449999999756
        },
        {
          "name": "C2",
          "midi": 36,
          "time": 43.3845719999999,
          "velocity": 0.7480314960629921,
          "duration": 0.11538449999999756
        },
        {
          "name": "F#2",
          "midi": 42,
          "time": 43.4999564999999,
          "velocity": 0.7480314960629921,
          "duration": 0.11538449999999756
        },
        {
          "name": "F#2",
          "midi": 42,
          "time": 43.615340999999894,
          "velocity": 0.7480314960629921,
          "duration": 0.11538449999999756
        },
        {
          "name": "D2",
          "midi": 38,
          "time": 43.615340999999894,
          "velocity": 0.7480314960629921,
          "duration": 0.11538449999999756
        },
        {
          "name": "D2",
          "midi": 38,
          "time": 43.615340999999894,
          "velocity": 0.7480314960629921,
          "duration": 0.11538449999999756
        },
        {
          "name": "D2",
          "midi": 38,
          "time": 43.615340999999894,
          "velocity": 0.7480314960629921,
          "duration": 0.11538449999999756
        },
        {
          "name": "F#2",
          "midi": 42,
          "time": 43.73072549999989,
          "velocity": 0.7480314960629921,
          "duration": 0.11538449999999756
        },
        {
          "name": "F#2",
          "midi": 42,
          "time": 43.84610999999989,
          "velocity": 0.7480314960629921,
          "duration": 0.11538449999999756
        },
        {
          "name": "C2",
          "midi": 36,
          "time": 43.84610999999989,
          "velocity": 0.7480314960629921,
          "duration": 0.11538449999999756
        },
        {
          "name": "F#2",
          "midi": 42,
          "time": 43.96149449999989,
          "velocity": 0.7480314960629921,
          "duration": 0.11538449999999756
        },
        {
          "name": "F#2",
          "midi": 42,
          "time": 44.076878999999884,
          "velocity": 0.7480314960629921,
          "duration": 0.11538449999999756
        },
        {
          "name": "D2",
          "midi": 38,
          "time": 44.076878999999884,
          "velocity": 0.7480314960629921,
          "duration": 0.11538449999999756
        },
        {
          "name": "D2",
          "midi": 38,
          "time": 44.076878999999884,
          "velocity": 0.7480314960629921,
          "duration": 0.11538449999999756
        },
        {
          "name": "D2",
          "midi": 38,
          "time": 44.076878999999884,
          "velocity": 0.7480314960629921,
          "duration": 0.11538449999999756
        },
        {
          "name": "F#2",
          "midi": 42,
          "time": 44.19226349999988,
          "velocity": 0.7480314960629921,
          "duration": 0.11538449999999756
        },
        {
          "name": "F#2",
          "midi": 42,
          "time": 44.30764799999988,
          "velocity": 0.7480314960629921,
          "duration": 0.11538449999999756
        },
        {
          "name": "C2",
          "midi": 36,
          "time": 44.30764799999988,
          "velocity": 0.7480314960629921,
          "duration": 0.11538449999999756
        },
        {
          "name": "F#2",
          "midi": 42,
          "time": 44.42303249999988,
          "velocity": 0.7480314960629921,
          "duration": 0.11538449999999756
        },
        {
          "name": "F#2",
          "midi": 42,
          "time": 44.538416999999875,
          "velocity": 0.7480314960629921,
          "duration": 0.11538449999999756
        },
        {
          "name": "D2",
          "midi": 38,
          "time": 44.538416999999875,
          "velocity": 0.7480314960629921,
          "duration": 0.11538449999999756
        },
        {
          "name": "D2",
          "midi": 38,
          "time": 44.538416999999875,
          "velocity": 0.7480314960629921,
          "duration": 0.11538449999999756
        },
        {
          "name": "D2",
          "midi": 38,
          "time": 44.538416999999875,
          "velocity": 0.7480314960629921,
          "duration": 0.11538449999999756
        },
        {
          "name": "F#2",
          "midi": 42,
          "time": 44.65380149999987,
          "velocity": 0.7480314960629921,
          "duration": 0.11538449999999756
        },
        {
          "name": "F#2",
          "midi": 42,
          "time": 44.76918599999987,
          "velocity": 0.7480314960629921,
          "duration": 0.11538449999999756
        },
        {
          "name": "C2",
          "midi": 36,
          "time": 44.76918599999987,
          "velocity": 0.7480314960629921,
          "duration": 0.11538449999999756
        },
        {
          "name": "F#2",
          "midi": 42,
          "time": 44.88457049999987,
          "velocity": 0.7480314960629921,
          "duration": 0.11538449999999756
        },
        {
          "name": "F#2",
          "midi": 42,
          "time": 44.999954999999865,
          "velocity": 0.7480314960629921,
          "duration": 0.11538449999999756
        },
        {
          "name": "D2",
          "midi": 38,
          "time": 44.999954999999865,
          "velocity": 0.7480314960629921,
          "duration": 0.11538449999999756
        },
        {
          "name": "D2",
          "midi": 38,
          "time": 44.999954999999865,
          "velocity": 0.7480314960629921,
          "duration": 0.11538449999999756
        },
        {
          "name": "D2",
          "midi": 38,
          "time": 44.999954999999865,
          "velocity": 0.7480314960629921,
          "duration": 0.11538449999999756
        },
        {
          "name": "F#2",
          "midi": 42,
          "time": 45.11533949999986,
          "velocity": 0.7480314960629921,
          "duration": 0.11538449999999756
        },
        {
          "name": "F#2",
          "midi": 42,
          "time": 45.23072399999986,
          "velocity": 0.7480314960629921,
          "duration": 0.11538449999999756
        },
        {
          "name": "C2",
          "midi": 36,
          "time": 45.23072399999986,
          "velocity": 0.7480314960629921,
          "duration": 0.11538449999999756
        },
        {
          "name": "F#2",
          "midi": 42,
          "time": 45.34610849999986,
          "velocity": 0.7480314960629921,
          "duration": 0.11538449999999756
        },
        {
          "name": "F#2",
          "midi": 42,
          "time": 45.461492999999855,
          "velocity": 0.7480314960629921,
          "duration": 0.11538449999999756
        },
        {
          "name": "D2",
          "midi": 38,
          "time": 45.461492999999855,
          "velocity": 0.7480314960629921,
          "duration": 0.11538449999999756
        },
        {
          "name": "D2",
          "midi": 38,
          "time": 45.461492999999855,
          "velocity": 0.7480314960629921,
          "duration": 0.11538449999999756
        },
        {
          "name": "D2",
          "midi": 38,
          "time": 45.461492999999855,
          "velocity": 0.7480314960629921,
          "duration": 0.11538449999999756
        },
        {
          "name": "F#2",
          "midi": 42,
          "time": 45.57687749999985,
          "velocity": 0.7480314960629921,
          "duration": 0.11538449999999756
        },
        {
          "name": "F#2",
          "midi": 42,
          "time": 45.69226199999985,
          "velocity": 0.7480314960629921,
          "duration": 0.11538449999999756
        },
        {
          "name": "C2",
          "midi": 36,
          "time": 45.69226199999985,
          "velocity": 0.7480314960629921,
          "duration": 0.11538449999999756
        },
        {
          "name": "F#2",
          "midi": 42,
          "time": 45.80764649999985,
          "velocity": 0.7480314960629921,
          "duration": 0.11538449999999756
        },
        {
          "name": "F#2",
          "midi": 42,
          "time": 45.923030999999845,
          "velocity": 0.7480314960629921,
          "duration": 0.11538449999999756
        },
        {
          "name": "D2",
          "midi": 38,
          "time": 45.923030999999845,
          "velocity": 0.7480314960629921,
          "duration": 0.11538449999999756
        },
        {
          "name": "D2",
          "midi": 38,
          "time": 45.923030999999845,
          "velocity": 0.7480314960629921,
          "duration": 0.11538449999999756
        },
        {
          "name": "D2",
          "midi": 38,
          "time": 45.923030999999845,
          "velocity": 0.7480314960629921,
          "duration": 0.11538449999999756
        },
        {
          "name": "F#2",
          "midi": 42,
          "time": 46.03841549999984,
          "velocity": 0.7480314960629921,
          "duration": 0.11538449999999756
        },
        {
          "name": "F#2",
          "midi": 42,
          "time": 46.15379999999984,
          "velocity": 0.7480314960629921,
          "duration": 0.11538449999999756
        },
        {
          "name": "C2",
          "midi": 36,
          "time": 46.15379999999984,
          "velocity": 0.7480314960629921,
          "duration": 0.11538449999999756
        },
        {
          "name": "F#2",
          "midi": 42,
          "time": 46.26918449999984,
          "velocity": 0.7480314960629921,
          "duration": 0.11538449999999756
        },
        {
          "name": "F#2",
          "midi": 42,
          "time": 46.384568999999836,
          "velocity": 0.7480314960629921,
          "duration": 0.11538449999999756
        },
        {
          "name": "D2",
          "midi": 38,
          "time": 46.384568999999836,
          "velocity": 0.7480314960629921,
          "duration": 0.11538449999999756
        },
        {
          "name": "D2",
          "midi": 38,
          "time": 46.384568999999836,
          "velocity": 0.7480314960629921,
          "duration": 0.11538449999999756
        },
        {
          "name": "D2",
          "midi": 38,
          "time": 46.384568999999836,
          "velocity": 0.7480314960629921,
          "duration": 0.11538449999999756
        },
        {
          "name": "F#2",
          "midi": 42,
          "time": 46.49995349999983,
          "velocity": 0.7480314960629921,
          "duration": 0.11538449999999756
        },
        {
          "name": "F#2",
          "midi": 42,
          "time": 46.61533799999983,
          "velocity": 0.7480314960629921,
          "duration": 0.11538449999999756
        },
        {
          "name": "C2",
          "midi": 36,
          "time": 46.61533799999983,
          "velocity": 0.7480314960629921,
          "duration": 0.11538449999999756
        },
        {
          "name": "F#2",
          "midi": 42,
          "time": 46.73072249999983,
          "velocity": 0.7480314960629921,
          "duration": 0.11538449999999756
        },
        {
          "name": "F#2",
          "midi": 42,
          "time": 46.846106999999826,
          "velocity": 0.7480314960629921,
          "duration": 0.11538449999999756
        },
        {
          "name": "D2",
          "midi": 38,
          "time": 46.846106999999826,
          "velocity": 0.7480314960629921,
          "duration": 0.11538449999999756
        },
        {
          "name": "D2",
          "midi": 38,
          "time": 46.846106999999826,
          "velocity": 0.7480314960629921,
          "duration": 0.11538449999999756
        },
        {
          "name": "D2",
          "midi": 38,
          "time": 46.846106999999826,
          "velocity": 0.7480314960629921,
          "duration": 0.11538449999999756
        },
        {
          "name": "F#2",
          "midi": 42,
          "time": 46.96149149999982,
          "velocity": 0.7480314960629921,
          "duration": 0.11538449999999756
        },
        {
          "name": "F#2",
          "midi": 42,
          "time": 47.07687599999982,
          "velocity": 0.7480314960629921,
          "duration": 0.11538449999999756
        },
        {
          "name": "C2",
          "midi": 36,
          "time": 47.07687599999982,
          "velocity": 0.7480314960629921,
          "duration": 0.11538449999999756
        },
        {
          "name": "F#2",
          "midi": 42,
          "time": 47.19226049999982,
          "velocity": 0.7480314960629921,
          "duration": 0.11538449999999756
        },
        {
          "name": "F#2",
          "midi": 42,
          "time": 47.307644999999816,
          "velocity": 0.7480314960629921,
          "duration": 0.11538449999999756
        },
        {
          "name": "D2",
          "midi": 38,
          "time": 47.307644999999816,
          "velocity": 0.7480314960629921,
          "duration": 0.11538449999999756
        },
        {
          "name": "D2",
          "midi": 38,
          "time": 47.307644999999816,
          "velocity": 0.7480314960629921,
          "duration": 0.11538449999999756
        },
        {
          "name": "D2",
          "midi": 38,
          "time": 47.307644999999816,
          "velocity": 0.7480314960629921,
          "duration": 0.11538449999999756
        },
        {
          "name": "F#2",
          "midi": 42,
          "time": 47.423029499999814,
          "velocity": 0.7480314960629921,
          "duration": 0.11538449999999756
        },
        {
          "name": "F#2",
          "midi": 42,
          "time": 47.53841399999981,
          "velocity": 0.7480314960629921,
          "duration": 0.11538449999999756
        },
        {
          "name": "C2",
          "midi": 36,
          "time": 47.53841399999981,
          "velocity": 0.7480314960629921,
          "duration": 0.11538449999999756
        },
        {
          "name": "F#2",
          "midi": 42,
          "time": 47.65379849999981,
          "velocity": 0.7480314960629921,
          "duration": 0.11538449999999756
        },
        {
          "name": "F#2",
          "midi": 42,
          "time": 47.769182999999806,
          "velocity": 0.7480314960629921,
          "duration": 0.11538449999999756
        },
        {
          "name": "D2",
          "midi": 38,
          "time": 47.769182999999806,
          "velocity": 0.7480314960629921,
          "duration": 0.11538449999999756
        },
        {
          "name": "D2",
          "midi": 38,
          "time": 47.769182999999806,
          "velocity": 0.7480314960629921,
          "duration": 0.11538449999999756
        },
        {
          "name": "D2",
          "midi": 38,
          "time": 47.769182999999806,
          "velocity": 0.7480314960629921,
          "duration": 0.11538449999999756
        },
        {
          "name": "F#2",
          "midi": 42,
          "time": 47.884567499999804,
          "velocity": 0.7480314960629921,
          "duration": 0.11538449999999756
        },
        {
          "name": "F#2",
          "midi": 42,
          "time": 47.9999519999998,
          "velocity": 0.7480314960629921,
          "duration": 0.11538449999999756
        },
        {
          "name": "C2",
          "midi": 36,
          "time": 47.9999519999998,
          "velocity": 0.7480314960629921,
          "duration": 0.11538449999999756
        },
        {
          "name": "F#2",
          "midi": 42,
          "time": 48.1153364999998,
          "velocity": 0.7480314960629921,
          "duration": 0.11538449999999756
        },
        {
          "name": "F#2",
          "midi": 42,
          "time": 48.2307209999998,
          "velocity": 0.7480314960629921,
          "duration": 0.11538449999999756
        },
        {
          "name": "D2",
          "midi": 38,
          "time": 48.2307209999998,
          "velocity": 0.7480314960629921,
          "duration": 0.11538449999999756
        },
        {
          "name": "D2",
          "midi": 38,
          "time": 48.2307209999998,
          "velocity": 0.7480314960629921,
          "duration": 0.11538449999999756
        },
        {
          "name": "D2",
          "midi": 38,
          "time": 48.2307209999998,
          "velocity": 0.7480314960629921,
          "duration": 0.11538449999999756
        },
        {
          "name": "F#2",
          "midi": 42,
          "time": 48.346105499999794,
          "velocity": 0.7480314960629921,
          "duration": 0.11538449999999756
        },
        {
          "name": "F#2",
          "midi": 42,
          "time": 48.46148999999979,
          "velocity": 0.7480314960629921,
          "duration": 0.11538449999999756
        },
        {
          "name": "C2",
          "midi": 36,
          "time": 48.46148999999979,
          "velocity": 0.7480314960629921,
          "duration": 0.11538449999999756
        },
        {
          "name": "F#2",
          "midi": 42,
          "time": 48.57687449999979,
          "velocity": 0.7480314960629921,
          "duration": 0.11538449999999756
        },
        {
          "name": "F#2",
          "midi": 42,
          "time": 48.69225899999979,
          "velocity": 0.7480314960629921,
          "duration": 0.11538449999999756
        },
        {
          "name": "D2",
          "midi": 38,
          "time": 48.69225899999979,
          "velocity": 0.7480314960629921,
          "duration": 0.11538449999999756
        },
        {
          "name": "D2",
          "midi": 38,
          "time": 48.69225899999979,
          "velocity": 0.7480314960629921,
          "duration": 0.11538449999999756
        },
        {
          "name": "D2",
          "midi": 38,
          "time": 48.69225899999979,
          "velocity": 0.7480314960629921,
          "duration": 0.11538449999999756
        },
        {
          "name": "F#2",
          "midi": 42,
          "time": 48.807643499999784,
          "velocity": 0.7480314960629921,
          "duration": 0.11538449999999756
        },
        {
          "name": "F#2",
          "midi": 42,
          "time": 48.92302799999978,
          "velocity": 0.7480314960629921,
          "duration": 0.11538449999999756
        },
        {
          "name": "C2",
          "midi": 36,
          "time": 48.92302799999978,
          "velocity": 0.7480314960629921,
          "duration": 0.11538449999999756
        },
        {
          "name": "F#2",
          "midi": 42,
          "time": 49.03841249999978,
          "velocity": 0.7480314960629921,
          "duration": 0.11538449999999756
        },
        {
          "name": "F#2",
          "midi": 42,
          "time": 49.15379699999978,
          "velocity": 0.7480314960629921,
          "duration": 0.11538449999999756
        },
        {
          "name": "D2",
          "midi": 38,
          "time": 49.15379699999978,
          "velocity": 0.7480314960629921,
          "duration": 0.11538449999999756
        },
        {
          "name": "D2",
          "midi": 38,
          "time": 49.15379699999978,
          "velocity": 0.7480314960629921,
          "duration": 0.11538449999999756
        },
        {
          "name": "D2",
          "midi": 38,
          "time": 49.15379699999978,
          "velocity": 0.7480314960629921,
          "duration": 0.11538449999999756
        },
        {
          "name": "F#2",
          "midi": 42,
          "time": 49.269181499999775,
          "velocity": 0.7480314960629921,
          "duration": 0.11538449999999756
        },
        {
          "name": "F#2",
          "midi": 42,
          "time": 49.38456599999977,
          "velocity": 0.7480314960629921,
          "duration": 0.11538449999999756
        },
        {
          "name": "C2",
          "midi": 36,
          "time": 49.38456599999977,
          "velocity": 0.7480314960629921,
          "duration": 0.11538449999999756
        },
        {
          "name": "F#2",
          "midi": 42,
          "time": 49.49995049999977,
          "velocity": 0.7480314960629921,
          "duration": 0.11538449999999756
        },
        {
          "name": "F#2",
          "midi": 42,
          "time": 49.61533499999977,
          "velocity": 0.7480314960629921,
          "duration": 0.11538449999999756
        },
        {
          "name": "D2",
          "midi": 38,
          "time": 49.61533499999977,
          "velocity": 0.7480314960629921,
          "duration": 0.11538449999999756
        },
        {
          "name": "D2",
          "midi": 38,
          "time": 49.61533499999977,
          "velocity": 0.7480314960629921,
          "duration": 0.11538449999999756
        },
        {
          "name": "D2",
          "midi": 38,
          "time": 49.61533499999977,
          "velocity": 0.7480314960629921,
          "duration": 0.11538449999999756
        },
        {
          "name": "F#2",
          "midi": 42,
          "time": 49.730719499999765,
          "velocity": 0.7480314960629921,
          "duration": 0.11538449999999756
        },
        {
          "name": "F#2",
          "midi": 42,
          "time": 49.84610399999976,
          "velocity": 0.7480314960629921,
          "duration": 0.11538449999999756
        },
        {
          "name": "C2",
          "midi": 36,
          "time": 49.84610399999976,
          "velocity": 0.7480314960629921,
          "duration": 0.11538449999999756
        },
        {
          "name": "F#2",
          "midi": 42,
          "time": 49.96148849999976,
          "velocity": 0.7480314960629921,
          "duration": 0.11538449999999756
        },
        {
          "name": "F#2",
          "midi": 42,
          "time": 50.07687299999976,
          "velocity": 0.7480314960629921,
          "duration": 0.11538449999999756
        },
        {
          "name": "D2",
          "midi": 38,
          "time": 50.07687299999976,
          "velocity": 0.7480314960629921,
          "duration": 0.11538449999999756
        },
        {
          "name": "D2",
          "midi": 38,
          "time": 50.07687299999976,
          "velocity": 0.7480314960629921,
          "duration": 0.11538449999999756
        },
        {
          "name": "D2",
          "midi": 38,
          "time": 50.07687299999976,
          "velocity": 0.7480314960629921,
          "duration": 0.11538449999999756
        },
        {
          "name": "F#2",
          "midi": 42,
          "time": 50.192257499999755,
          "velocity": 0.7480314960629921,
          "duration": 0.11538449999999756
        },
        {
          "name": "F#2",
          "midi": 42,
          "time": 50.30764199999975,
          "velocity": 0.7480314960629921,
          "duration": 0.11538449999999756
        },
        {
          "name": "C2",
          "midi": 36,
          "time": 50.30764199999975,
          "velocity": 0.7480314960629921,
          "duration": 0.11538449999999756
        },
        {
          "name": "F#2",
          "midi": 42,
          "time": 50.42302649999975,
          "velocity": 0.7480314960629921,
          "duration": 0.11538449999999756
        },
        {
          "name": "F#2",
          "midi": 42,
          "time": 50.53841099999975,
          "velocity": 0.7480314960629921,
          "duration": 0.11538449999999756
        },
        {
          "name": "D2",
          "midi": 38,
          "time": 50.53841099999975,
          "velocity": 0.7480314960629921,
          "duration": 0.11538449999999756
        },
        {
          "name": "D2",
          "midi": 38,
          "time": 50.53841099999975,
          "velocity": 0.7480314960629921,
          "duration": 0.11538449999999756
        },
        {
          "name": "D2",
          "midi": 38,
          "time": 50.53841099999975,
          "velocity": 0.7480314960629921,
          "duration": 0.11538449999999756
        },
        {
          "name": "F#2",
          "midi": 42,
          "time": 50.653795499999745,
          "velocity": 0.7480314960629921,
          "duration": 0.11538449999999756
        },
        {
          "name": "F#2",
          "midi": 42,
          "time": 50.76917999999974,
          "velocity": 0.7480314960629921,
          "duration": 0.11538449999999756
        },
        {
          "name": "C2",
          "midi": 36,
          "time": 50.76917999999974,
          "velocity": 0.7480314960629921,
          "duration": 0.11538449999999756
        },
        {
          "name": "F#2",
          "midi": 42,
          "time": 50.88456449999974,
          "velocity": 0.7480314960629921,
          "duration": 0.11538449999999756
        },
        {
          "name": "F#2",
          "midi": 42,
          "time": 50.99994899999974,
          "velocity": 0.7480314960629921,
          "duration": 0.11538449999999756
        },
        {
          "name": "D2",
          "midi": 38,
          "time": 50.99994899999974,
          "velocity": 0.7480314960629921,
          "duration": 0.11538449999999756
        },
        {
          "name": "D2",
          "midi": 38,
          "time": 50.99994899999974,
          "velocity": 0.7480314960629921,
          "duration": 0.11538449999999756
        },
        {
          "name": "D2",
          "midi": 38,
          "time": 50.99994899999974,
          "velocity": 0.7480314960629921,
          "duration": 0.11538449999999756
        },
        {
          "name": "F#2",
          "midi": 42,
          "time": 51.115333499999736,
          "velocity": 0.7480314960629921,
          "duration": 0.11538449999999756
        },
        {
          "name": "F#2",
          "midi": 42,
          "time": 51.23071799999973,
          "velocity": 0.7480314960629921,
          "duration": 0.11538449999999756
        },
        {
          "name": "C2",
          "midi": 36,
          "time": 51.23071799999973,
          "velocity": 0.7480314960629921,
          "duration": 0.11538449999999756
        },
        {
          "name": "F#2",
          "midi": 42,
          "time": 51.34610249999973,
          "velocity": 0.7480314960629921,
          "duration": 0.11538449999999756
        },
        {
          "name": "F#2",
          "midi": 42,
          "time": 51.46148699999973,
          "velocity": 0.7480314960629921,
          "duration": 0.11538449999999756
        },
        {
          "name": "D2",
          "midi": 38,
          "time": 51.46148699999973,
          "velocity": 0.7480314960629921,
          "duration": 0.11538449999999756
        },
        {
          "name": "D2",
          "midi": 38,
          "time": 51.46148699999973,
          "velocity": 0.7480314960629921,
          "duration": 0.11538449999999756
        },
        {
          "name": "D2",
          "midi": 38,
          "time": 51.46148699999973,
          "velocity": 0.7480314960629921,
          "duration": 0.11538449999999756
        },
        {
          "name": "F#2",
          "midi": 42,
          "time": 51.576871499999726,
          "velocity": 0.7480314960629921,
          "duration": 0.11538449999999756
        },
        {
          "name": "F#2",
          "midi": 42,
          "time": 51.69225599999972,
          "velocity": 0.7480314960629921,
          "duration": 0.11538449999999756
        },
        {
          "name": "C2",
          "midi": 36,
          "time": 51.69225599999972,
          "velocity": 0.7480314960629921,
          "duration": 0.11538449999999756
        },
        {
          "name": "F#2",
          "midi": 42,
          "time": 51.80764049999972,
          "velocity": 0.7480314960629921,
          "duration": 0.11538449999999756
        },
        {
          "name": "F#2",
          "midi": 42,
          "time": 51.92302499999972,
          "velocity": 0.7480314960629921,
          "duration": 0.11538449999999756
        },
        {
          "name": "D2",
          "midi": 38,
          "time": 51.92302499999972,
          "velocity": 0.7480314960629921,
          "duration": 0.11538449999999756
        },
        {
          "name": "D2",
          "midi": 38,
          "time": 51.92302499999972,
          "velocity": 0.7480314960629921,
          "duration": 0.11538449999999756
        },
        {
          "name": "D2",
          "midi": 38,
          "time": 51.92302499999972,
          "velocity": 0.7480314960629921,
          "duration": 0.11538449999999756
        },
        {
          "name": "F#2",
          "midi": 42,
          "time": 52.038409499999716,
          "velocity": 0.7480314960629921,
          "duration": 0.11538449999999756
        },
        {
          "name": "F#2",
          "midi": 42,
          "time": 52.15379399999971,
          "velocity": 0.7480314960629921,
          "duration": 0.11538449999999756
        },
        {
          "name": "C2",
          "midi": 36,
          "time": 52.15379399999971,
          "velocity": 0.7480314960629921,
          "duration": 0.11538449999999756
        },
        {
          "name": "F#2",
          "midi": 42,
          "time": 52.26917849999971,
          "velocity": 0.7480314960629921,
          "duration": 0.11538449999999756
        },
        {
          "name": "F#2",
          "midi": 42,
          "time": 52.38456299999971,
          "velocity": 0.7480314960629921,
          "duration": 0.11538449999999756
        },
        {
          "name": "D2",
          "midi": 38,
          "time": 52.38456299999971,
          "velocity": 0.7480314960629921,
          "duration": 0.11538449999999756
        },
        {
          "name": "D2",
          "midi": 38,
          "time": 52.38456299999971,
          "velocity": 0.7480314960629921,
          "duration": 0.11538449999999756
        },
        {
          "name": "D2",
          "midi": 38,
          "time": 52.38456299999971,
          "velocity": 0.7480314960629921,
          "duration": 0.11538449999999756
        },
        {
          "name": "F#2",
          "midi": 42,
          "time": 52.499947499999706,
          "velocity": 0.7480314960629921,
          "duration": 0.11538449999999756
        },
        {
          "name": "F#2",
          "midi": 42,
          "time": 52.615331999999704,
          "velocity": 0.7480314960629921,
          "duration": 0.11538449999999756
        },
        {
          "name": "C2",
          "midi": 36,
          "time": 52.615331999999704,
          "velocity": 0.7480314960629921,
          "duration": 0.11538449999999756
        },
        {
          "name": "F#2",
          "midi": 42,
          "time": 52.7307164999997,
          "velocity": 0.7480314960629921,
          "duration": 0.11538449999999756
        },
        {
          "name": "F#2",
          "midi": 42,
          "time": 52.8461009999997,
          "velocity": 0.7480314960629921,
          "duration": 0.11538449999999756
        },
        {
          "name": "D2",
          "midi": 38,
          "time": 52.8461009999997,
          "velocity": 0.7480314960629921,
          "duration": 0.11538449999999756
        },
        {
          "name": "D2",
          "midi": 38,
          "time": 52.8461009999997,
          "velocity": 0.7480314960629921,
          "duration": 0.11538449999999756
        },
        {
          "name": "D2",
          "midi": 38,
          "time": 52.8461009999997,
          "velocity": 0.7480314960629921,
          "duration": 0.11538449999999756
        },
        {
          "name": "F#2",
          "midi": 42,
          "time": 52.9614854999997,
          "velocity": 0.7480314960629921,
          "duration": 0.11538449999999756
        },
        {
          "name": "F#2",
          "midi": 42,
          "time": 53.076869999999694,
          "velocity": 0.7480314960629921,
          "duration": 0.11538449999999756
        },
        {
          "name": "C2",
          "midi": 36,
          "time": 53.076869999999694,
          "velocity": 0.7480314960629921,
          "duration": 0.11538449999999756
        },
        {
          "name": "F#2",
          "midi": 42,
          "time": 53.19225449999969,
          "velocity": 0.7480314960629921,
          "duration": 0.11538449999999756
        },
        {
          "name": "F#2",
          "midi": 42,
          "time": 53.30763899999969,
          "velocity": 0.7480314960629921,
          "duration": 0.11538449999999756
        },
        {
          "name": "D2",
          "midi": 38,
          "time": 53.30763899999969,
          "velocity": 0.7480314960629921,
          "duration": 0.11538449999999756
        },
        {
          "name": "D2",
          "midi": 38,
          "time": 53.30763899999969,
          "velocity": 0.7480314960629921,
          "duration": 0.11538449999999756
        },
        {
          "name": "D2",
          "midi": 38,
          "time": 53.30763899999969,
          "velocity": 0.7480314960629921,
          "duration": 0.11538449999999756
        },
        {
          "name": "F#2",
          "midi": 42,
          "time": 53.42302349999969,
          "velocity": 0.7480314960629921,
          "duration": 0.11538449999999756
        },
        {
          "name": "F#2",
          "midi": 42,
          "time": 53.538407999999684,
          "velocity": 0.7480314960629921,
          "duration": 0.11538449999999756
        },
        {
          "name": "C2",
          "midi": 36,
          "time": 53.538407999999684,
          "velocity": 0.7480314960629921,
          "duration": 0.11538449999999756
        },
        {
          "name": "F#2",
          "midi": 42,
          "time": 53.65379249999968,
          "velocity": 0.7480314960629921,
          "duration": 0.11538449999999756
        },
        {
          "name": "F#2",
          "midi": 42,
          "time": 53.76917699999968,
          "velocity": 0.7480314960629921,
          "duration": 0.11538449999999756
        },
        {
          "name": "D2",
          "midi": 38,
          "time": 53.76917699999968,
          "velocity": 0.7480314960629921,
          "duration": 0.11538449999999756
        },
        {
          "name": "D2",
          "midi": 38,
          "time": 53.76917699999968,
          "velocity": 0.7480314960629921,
          "duration": 0.11538449999999756
        },
        {
          "name": "D2",
          "midi": 38,
          "time": 53.76917699999968,
          "velocity": 0.7480314960629921,
          "duration": 0.11538449999999756
        },
        {
          "name": "F#2",
          "midi": 42,
          "time": 53.88456149999968,
          "velocity": 0.7480314960629921,
          "duration": 0.11538449999999756
        },
        {
          "name": "F#2",
          "midi": 42,
          "time": 53.999945999999674,
          "velocity": 0.7480314960629921,
          "duration": 0.11538449999999756
        },
        {
          "name": "C2",
          "midi": 36,
          "time": 53.999945999999674,
          "velocity": 0.7480314960629921,
          "duration": 0.11538449999999756
        },
        {
          "name": "F#2",
          "midi": 42,
          "time": 54.11533049999967,
          "velocity": 0.7480314960629921,
          "duration": 0.11538449999999756
        },
        {
          "name": "F#2",
          "midi": 42,
          "time": 54.23071499999967,
          "velocity": 0.7480314960629921,
          "duration": 0.11538449999999756
        },
        {
          "name": "D2",
          "midi": 38,
          "time": 54.23071499999967,
          "velocity": 0.7480314960629921,
          "duration": 0.11538449999999756
        },
        {
          "name": "D2",
          "midi": 38,
          "time": 54.23071499999967,
          "velocity": 0.7480314960629921,
          "duration": 0.11538449999999756
        },
        {
          "name": "D2",
          "midi": 38,
          "time": 54.23071499999967,
          "velocity": 0.7480314960629921,
          "duration": 0.11538449999999756
        },
        {
          "name": "F#2",
          "midi": 42,
          "time": 54.34609949999967,
          "velocity": 0.7480314960629921,
          "duration": 0.11538449999999756
        },
        {
          "name": "F#2",
          "midi": 42,
          "time": 54.461483999999665,
          "velocity": 0.7480314960629921,
          "duration": 0.11538449999999756
        },
        {
          "name": "C2",
          "midi": 36,
          "time": 54.461483999999665,
          "velocity": 0.7480314960629921,
          "duration": 0.11538449999999756
        },
        {
          "name": "F#2",
          "midi": 42,
          "time": 54.57686849999966,
          "velocity": 0.7480314960629921,
          "duration": 0.11538449999999756
        },
        {
          "name": "F#2",
          "midi": 42,
          "time": 54.69225299999966,
          "velocity": 0.7480314960629921,
          "duration": 0.11538449999999756
        },
        {
          "name": "D2",
          "midi": 38,
          "time": 54.69225299999966,
          "velocity": 0.7480314960629921,
          "duration": 0.11538449999999756
        },
        {
          "name": "D2",
          "midi": 38,
          "time": 54.69225299999966,
          "velocity": 0.7480314960629921,
          "duration": 0.11538449999999756
        },
        {
          "name": "D2",
          "midi": 38,
          "time": 54.69225299999966,
          "velocity": 0.7480314960629921,
          "duration": 0.11538449999999756
        },
        {
          "name": "F#2",
          "midi": 42,
          "time": 54.80763749999966,
          "velocity": 0.7480314960629921,
          "duration": 0.11538449999999756
        },
        {
          "name": "F#2",
          "midi": 42,
          "time": 54.923021999999655,
          "velocity": 0.7480314960629921,
          "duration": 0.11538449999999756
        },
        {
          "name": "C2",
          "midi": 36,
          "time": 54.923021999999655,
          "velocity": 0.7480314960629921,
          "duration": 0.11538449999999756
        },
        {
          "name": "F#2",
          "midi": 42,
          "time": 55.03840649999965,
          "velocity": 0.7480314960629921,
          "duration": 0.11538449999999756
        },
        {
          "name": "F#2",
          "midi": 42,
          "time": 55.15379099999965,
          "velocity": 0.7480314960629921,
          "duration": 0.11538449999999756
        },
        {
          "name": "D2",
          "midi": 38,
          "time": 55.15379099999965,
          "velocity": 0.7480314960629921,
          "duration": 0.11538449999999756
        },
        {
          "name": "D2",
          "midi": 38,
          "time": 55.15379099999965,
          "velocity": 0.7480314960629921,
          "duration": 0.11538449999999756
        },
        {
          "name": "D2",
          "midi": 38,
          "time": 55.15379099999965,
          "velocity": 0.7480314960629921,
          "duration": 0.11538449999999756
        },
        {
          "name": "F#2",
          "midi": 42,
          "time": 55.26917549999965,
          "velocity": 0.7480314960629921,
          "duration": 0.11538449999999756
        }
      ],
      "controlChanges": {
        "7": [
          {
            "number": 7,
            "time": 0,
            "value": 1
          }
        ],
        "10": [
          {
            "number": 10,
            "time": 0,
            "value": 0.49606299212598426
          }
        ],
        "11": [
          {
            "number": 11,
            "time": 0,
            "value": 1
          }
        ],
        "91": [
          {
            "number": 91,
            "time": 0,
            "value": 0
          }
        ],
        "92": [
          {
            "number": 92,
            "time": 0,
            "value": 0
          }
        ],
        "93": [
          {
            "number": 93,
            "time": 0,
            "value": 0
          }
        ],
        "95": [
          {
            "number": 95,
            "time": 0,
            "value": 0
          }
        ]
      },
      "id": 3,
      "instrumentNumber": 0,
      "instrument": "standard kit",
      "instrumentFamily": "drums",
      "channelNumber": 9,
      "isPercussion": true
    },
    {
      "startTime": 22.384593,
      "duration": 51.69225599999992,
      "length": 65,
      "notes": [
        {
          "name": "D5",
          "midi": 74,
          "time": 22.384593,
          "velocity": 0.7480314960629921,
          "duration": 0.346153499999982
        },
        {
          "name": "A4",
          "midi": 69,
          "time": 22.384593,
          "velocity": 0.7480314960629921,
          "duration": 0.346153499999982
        },
        {
          "name": "D5",
          "midi": 74,
          "time": 22.73074649999998,
          "velocity": 0.7480314960629921,
          "duration": 0.3461534999999998
        },
        {
          "name": "A4",
          "midi": 69,
          "time": 22.73074649999998,
          "velocity": 0.7480314960629921,
          "duration": 0.3461534999999998
        },
        {
          "name": "G4",
          "midi": 67,
          "time": 23.07689999999998,
          "velocity": 0.7480314960629921,
          "duration": 0.3461534999999998
        },
        {
          "name": "A4",
          "midi": 69,
          "time": 23.42305349999998,
          "velocity": 0.7480314960629921,
          "duration": 0.3461534999999998
        },
        {
          "name": "G4",
          "midi": 67,
          "time": 23.76920699999998,
          "velocity": 0.7480314960629921,
          "duration": 0.23076899999999867
        },
        {
          "name": "D5",
          "midi": 74,
          "time": 24.230744999999978,
          "velocity": 0.7480314960629921,
          "duration": 0.346153499999982
        },
        {
          "name": "A4",
          "midi": 69,
          "time": 24.230744999999978,
          "velocity": 0.7480314960629921,
          "duration": 0.346153499999982
        },
        {
          "name": "D5",
          "midi": 74,
          "time": 24.57689849999996,
          "velocity": 0.7480314960629921,
          "duration": 0.3461534999999998
        },
        {
          "name": "A4",
          "midi": 69,
          "time": 24.57689849999996,
          "velocity": 0.7480314960629921,
          "duration": 0.3461534999999998
        },
        {
          "name": "G4",
          "midi": 67,
          "time": 24.92305199999996,
          "velocity": 0.7480314960629921,
          "duration": 0.3461534999999998
        },
        {
          "name": "E4",
          "midi": 64,
          "time": 25.26920549999996,
          "velocity": 0.7480314960629921,
          "duration": 0.5769225000000056
        },
        {
          "name": "D5",
          "midi": 74,
          "time": 26.076896999999963,
          "velocity": 0.7480314960629921,
          "duration": 0.346153499999982
        },
        {
          "name": "A4",
          "midi": 69,
          "time": 26.076896999999963,
          "velocity": 0.7480314960629921,
          "duration": 0.346153499999982
        },
        {
          "name": "D5",
          "midi": 74,
          "time": 26.423050499999945,
          "velocity": 0.7480314960629921,
          "duration": 0.3461534999999998
        },
        {
          "name": "A4",
          "midi": 69,
          "time": 26.423050499999945,
          "velocity": 0.7480314960629921,
          "duration": 0.3461534999999998
        },
        {
          "name": "G4",
          "midi": 67,
          "time": 26.769203999999945,
          "velocity": 0.7480314960629921,
          "duration": 0.3461534999999998
        },
        {
          "name": "A4",
          "midi": 69,
          "time": 27.115357499999945,
          "velocity": 0.7480314960629921,
          "duration": 0.3461534999999998
        },
        {
          "name": "G4",
          "midi": 67,
          "time": 27.461510999999945,
          "velocity": 0.7480314960629921,
          "duration": 0.23076899999999867
        },
        {
          "name": "D5",
          "midi": 74,
          "time": 27.923048999999942,
          "velocity": 0.7480314960629921,
          "duration": 0.346153499999982
        },
        {
          "name": "A4",
          "midi": 69,
          "time": 27.923048999999942,
          "velocity": 0.7480314960629921,
          "duration": 0.346153499999982
        },
        {
          "name": "D5",
          "midi": 74,
          "time": 28.269202499999924,
          "velocity": 0.7480314960629921,
          "duration": 0.3461534999999998
        },
        {
          "name": "A4",
          "midi": 69,
          "time": 28.269202499999924,
          "velocity": 0.7480314960629921,
          "duration": 0.3461534999999998
        },
        {
          "name": "G4",
          "midi": 67,
          "time": 28.615355999999924,
          "velocity": 0.7480314960629921,
          "duration": 0.3461534999999998
        },
        {
          "name": "E4",
          "midi": 64,
          "time": 28.961509499999924,
          "velocity": 0.7480314960629921,
          "duration": 0.5769225000000056
        },
        {
          "name": "D5",
          "midi": 74,
          "time": 37.153808999999924,
          "velocity": 0.7480314960629921,
          "duration": 0.3461535000000211
        },
        {
          "name": "A4",
          "midi": 69,
          "time": 37.153808999999924,
          "velocity": 0.7480314960629921,
          "duration": 0.3461535000000211
        },
        {
          "name": "D5",
          "midi": 74,
          "time": 37.499962499999945,
          "velocity": 0.7480314960629921,
          "duration": 0.3461534999999998
        },
        {
          "name": "A4",
          "midi": 69,
          "time": 37.499962499999945,
          "velocity": 0.7480314960629921,
          "duration": 0.3461534999999998
        },
        {
          "name": "G4",
          "midi": 67,
          "time": 37.846115999999945,
          "velocity": 0.7480314960629921,
          "duration": 0.3461534999999998
        },
        {
          "name": "A4",
          "midi": 69,
          "time": 38.192269499999945,
          "velocity": 0.7480314960629921,
          "duration": 0.3461534999999998
        },
        {
          "name": "G4",
          "midi": 67,
          "time": 38.538422999999945,
          "velocity": 0.7480314960629921,
          "duration": 0.23076900000000222
        },
        {
          "name": "D5",
          "midi": 74,
          "time": 38.99996099999995,
          "velocity": 0.7480314960629921,
          "duration": 0.3461535000000211
        },
        {
          "name": "A4",
          "midi": 69,
          "time": 38.99996099999995,
          "velocity": 0.7480314960629921,
          "duration": 0.3461535000000211
        },
        {
          "name": "D5",
          "midi": 74,
          "time": 39.34611449999997,
          "velocity": 0.7480314960629921,
          "duration": 0.3461534999999998
        },
        {
          "name": "A4",
          "midi": 69,
          "time": 39.34611449999997,
          "velocity": 0.7480314960629921,
          "duration": 0.3461534999999998
        },
        {
          "name": "G4",
          "midi": 67,
          "time": 39.69226799999997,
          "velocity": 0.7480314960629921,
          "duration": 0.3461534999999998
        },
        {
          "name": "E4",
          "midi": 64,
          "time": 40.03842149999997,
          "velocity": 0.7480314960629921,
          "duration": 0.5769224999999523
        },
        {
          "name": "D5",
          "midi": 74,
          "time": 40.846112999999924,
          "velocity": 0.7480314960629921,
          "duration": 0.3461535000000211
        },
        {
          "name": "A4",
          "midi": 69,
          "time": 40.846112999999924,
          "velocity": 0.7480314960629921,
          "duration": 0.3461535000000211
        },
        {
          "name": "D5",
          "midi": 74,
          "time": 41.192266499999945,
          "velocity": 0.7480314960629921,
          "duration": 0.3461534999999998
        },
        {
          "name": "A4",
          "midi": 69,
          "time": 41.192266499999945,
          "velocity": 0.7480314960629921,
          "duration": 0.3461534999999998
        },
        {
          "name": "G4",
          "midi": 67,
          "time": 41.538419999999945,
          "velocity": 0.7480314960629921,
          "duration": 0.3461534999999998
        },
        {
          "name": "A4",
          "midi": 69,
          "time": 41.884573499999945,
          "velocity": 0.7480314960629921,
          "duration": 0.3461534999999998
        },
        {
          "name": "G4",
          "midi": 67,
          "time": 42.230726999999945,
          "velocity": 0.7480314960629921,
          "duration": 0.23076900000000222
        },
        {
          "name": "D5",
          "midi": 74,
          "time": 42.69226499999995,
          "velocity": 0.7480314960629921,
          "duration": 0.3461535000000211
        },
        {
          "name": "A4",
          "midi": 69,
          "time": 42.69226499999995,
          "velocity": 0.7480314960629921,
          "duration": 0.3461535000000211
        },
        {
          "name": "D5",
          "midi": 74,
          "time": 43.03841849999997,
          "velocity": 0.7480314960629921,
          "duration": 0.3461534999999998
        },
        {
          "name": "A4",
          "midi": 69,
          "time": 43.03841849999997,
          "velocity": 0.7480314960629921,
          "duration": 0.3461534999999998
        },
        {
          "name": "G4",
          "midi": 67,
          "time": 43.38457199999997,
          "velocity": 0.7480314960629921,
          "duration": 0.3461534999999998
        },
        {
          "name": "E4",
          "midi": 64,
          "time": 43.73072549999997,
          "velocity": 0.7480314960629921,
          "duration": 0.5769224999999523
        },
        {
          "name": "D5",
          "midi": 74,
          "time": 48.230720999999924,
          "velocity": 0.7480314960629921,
          "duration": 0.3461535000000211
        },
        {
          "name": "A4",
          "midi": 69,
          "time": 48.230720999999924,
          "velocity": 0.7480314960629921,
          "duration": 0.3461535000000211
        },
        {
          "name": "D5",
          "midi": 74,
          "time": 48.576874499999946,
          "velocity": 0.7480314960629921,
          "duration": 0.3461534999999998
        },
        {
          "name": "A4",
          "midi": 69,
          "time": 48.576874499999946,
          "velocity": 0.7480314960629921,
          "duration": 0.3461534999999998
        },
        {
          "name": "G4",
          "midi": 67,
          "time": 48.923027999999945,
          "velocity": 0.7480314960629921,
          "duration": 0.3461534999999998
        },
        {
          "name": "A4",
          "midi": 69,
          "time": 49.269181499999945,
          "velocity": 0.7480314960629921,
          "duration": 0.3461534999999998
        },
        {
          "name": "G4",
          "midi": 67,
          "time": 49.615334999999945,
          "velocity": 0.7480314960629921,
          "duration": 0.23076900000000222
        },
        {
          "name": "D5",
          "midi": 74,
          "time": 50.07687299999995,
          "velocity": 0.7480314960629921,
          "duration": 0.3461535000000211
        },
        {
          "name": "A4",
          "midi": 69,
          "time": 50.07687299999995,
          "velocity": 0.7480314960629921,
          "duration": 0.3461535000000211
        },
        {
          "name": "D5",
          "midi": 74,
          "time": 50.42302649999997,
          "velocity": 0.7480314960629921,
          "duration": 0.3461534999999998
        },
        {
          "name": "A4",
          "midi": 69,
          "time": 50.42302649999997,
          "velocity": 0.7480314960629921,
          "duration": 0.3461534999999998
        },
        {
          "name": "G4",
          "midi": 67,
          "time": 50.76917999999997,
          "velocity": 0.7480314960629921,
          "duration": 0.3461534999999998
        },
        {
          "name": "E4",
          "midi": 64,
          "time": 51.11533349999997,
          "velocity": 0.7480314960629921,
          "duration": 0.5769224999999523
        }
      ],
      "controlChanges": {
        "7": [
          {
            "number": 7,
            "time": 0,
            "value": 0.8740157480314961
          },
          {
            "number": 7,
            "time": 0,
            "value": 0.8740157480314961
          }
        ],
        "10": [
          {
            "number": 10,
            "time": 0,
            "value": 0.49606299212598426
          },
          {
            "number": 10,
            "time": 0,
            "value": 0.49606299212598426
          }
        ],
        "11": [
          {
            "number": 11,
            "time": 0,
            "value": 1
          },
          {
            "number": 11,
            "time": 0,
            "value": 1
          }
        ],
        "91": [
          {
            "number": 91,
            "time": 0,
            "value": 0
          },
          {
            "number": 91,
            "time": 0,
            "value": 0
          }
        ],
        "92": [
          {
            "number": 92,
            "time": 0,
            "value": 0
          },
          {
            "number": 92,
            "time": 0,
            "value": 0
          }
        ],
        "93": [
          {
            "number": 93,
            "time": 0,
            "value": 0
          },
          {
            "number": 93,
            "time": 0,
            "value": 0
          }
        ],
        "95": [
          {
            "number": 95,
            "time": 0,
            "value": 0
          },
          {
            "number": 95,
            "time": 0,
            "value": 0
          }
        ]
      },
      "id": 4,
      "instrumentNumber": 30,
      "instrument": "distortion guitar",
      "instrumentFamily": "guitar",
      "channelNumber": 5,
      "isPercussion": false
    }
  ]
}