{
  "header": {
    "PPQ": 120,
    "timeSignature": [
      4,
      4
    ],
    "bpm": 109.99990833340972,
    "name": "WalkThis Way"
  },
  "startTime": 0,
  "duration": 196.36379999999963,
  "tracks": [
    {
      "startTime": 0,
      "duration": 0,
      "length": 0,
      "notes": [],
      "controlChanges": {},
      "id": 0,
      "name": "WalkThis Way"
    },
    {
      "startTime": 0,
      "duration": 196.36379999999963,
      "length": 1260,
      "notes": [
        {
          "name": "A#2",
          "midi": 46,
          "time": 0,
          "velocity": 0.7874015748031497,
          "duration": 0.545455
        },
        {
          "name": "C2",
          "midi": 36,
          "time": 0,
          "velocity": 0.7874015748031497,
          "duration": 0.545455
        },
        {
          "name": "F#2",
          "midi": 42,
          "time": 0.2727275,
          "velocity": 0.7874015748031497,
          "duration": 0.2727275
        },
        {
          "name": "F#2",
          "midi": 42,
          "time": 0.545455,
          "velocity": 0.7874015748031497,
          "duration": 0.2727275
        },
        {
          "name": "D2",
          "midi": 38,
          "time": 0.545455,
          "velocity": 0.7874015748031497,
          "duration": 0.545455
        },
        {
          "name": "F#2",
          "midi": 42,
          "time": 0.8181825,
          "velocity": 0.7874015748031497,
          "duration": 0.2727275
        },
        {
          "name": "C2",
          "midi": 36,
          "time": 0.95454625,
          "velocity": 0.7874015748031497,
          "duration": 0.13636375
        },
        {
          "name": "F#2",
          "midi": 42,
          "time": 1.09091,
          "velocity": 0.7874015748031497,
          "duration": 0.27272750000000023
        },
        {
          "name": "C2",
          "midi": 36,
          "time": 1.09091,
          "velocity": 0.7874015748031497,
          "duration": 0.13636375000000012
        },
        {
          "name": "F#2",
          "midi": 42,
          "time": 1.3636375000000003,
          "velocity": 0.7874015748031497,
          "duration": 0.2727275
        },
        {
          "name": "C2",
          "midi": 36,
          "time": 1.3636375000000003,
          "velocity": 0.7874015748031497,
          "duration": 0.2727275
        },
        {
          "name": "F#2",
          "midi": 42,
          "time": 1.6363650000000003,
          "velocity": 0.7874015748031497,
          "duration": 0.2727275
        },
        {
          "name": "D2",
          "midi": 38,
          "time": 1.6363650000000003,
          "velocity": 0.7874015748031497,
          "duration": 0.2727275
        },
        {
          "name": "F#2",
          "midi": 42,
          "time": 1.9090925000000003,
          "velocity": 0.7874015748031497,
          "duration": 0.2727274999999998
        },
        {
          "name": "A#2",
          "midi": 46,
          "time": 2.18182,
          "velocity": 0.7874015748031497,
          "duration": 0.5454550000000005
        },
        {
          "name": "C2",
          "midi": 36,
          "time": 2.18182,
          "velocity": 0.7874015748031497,
          "duration": 0.5454550000000005
        },
        {
          "name": "F#2",
          "midi": 42,
          "time": 2.4545475000000003,
          "velocity": 0.7874015748031497,
          "duration": 0.27272750000000023
        },
        {
          "name": "F#2",
          "midi": 42,
          "time": 2.7272750000000006,
          "velocity": 0.7874015748031497,
          "duration": 0.27272750000000023
        },
        {
          "name": "D2",
          "midi": 38,
          "time": 2.7272750000000006,
          "velocity": 0.7874015748031497,
          "duration": 0.5454550000000005
        },
        {
          "name": "F#2",
          "midi": 42,
          "time": 3.000002500000001,
          "velocity": 0.7874015748031497,
          "duration": 0.27272750000000023
        },
        {
          "name": "C2",
          "midi": 36,
          "time": 3.136366250000001,
          "velocity": 0.7874015748031497,
          "duration": 0.13636375000000012
        },
        {
          "name": "F#2",
          "midi": 42,
          "time": 3.272730000000001,
          "velocity": 0.7874015748031497,
          "duration": 0.27272750000000023
        },
        {
          "name": "C2",
          "midi": 36,
          "time": 3.272730000000001,
          "velocity": 0.7874015748031497,
          "duration": 0.13636375000000012
        },
        {
          "name": "F#2",
          "midi": 42,
          "time": 3.5454575000000013,
          "velocity": 0.7874015748031497,
          "duration": 0.27272750000000023
        },
        {
          "name": "C2",
          "midi": 36,
          "time": 3.5454575000000013,
          "velocity": 0.7874015748031497,
          "duration": 0.27272750000000023
        },
        {
          "name": "F#2",
          "midi": 42,
          "time": 3.8181850000000015,
          "velocity": 0.7874015748031497,
          "duration": 0.27272750000000023
        },
        {
          "name": "D2",
          "midi": 38,
          "time": 3.8181850000000015,
          "velocity": 0.7874015748031497,
          "duration": 0.27272750000000023
        },
        {
          "name": "F#2",
          "midi": 42,
          "time": 4.090912500000002,
          "velocity": 0.7874015748031497,
          "duration": 0.27272750000000023
        },
        {
          "name": "A#2",
          "midi": 46,
          "time": 4.363640000000002,
          "velocity": 0.7874015748031497,
          "duration": 0.5454550000000005
        },
        {
          "name": "C2",
          "midi": 36,
          "time": 4.363640000000002,
          "velocity": 0.7874015748031497,
          "duration": 0.5454550000000005
        },
        {
          "name": "F#2",
          "midi": 42,
          "time": 4.636367500000002,
          "velocity": 0.7874015748031497,
          "duration": 0.27272750000000023
        },
        {
          "name": "F#2",
          "midi": 42,
          "time": 4.909095000000002,
          "velocity": 0.7874015748031497,
          "duration": 0.27272750000000023
        },
        {
          "name": "D2",
          "midi": 38,
          "time": 4.909095000000002,
          "velocity": 0.7874015748031497,
          "duration": 0.5454550000000005
        },
        {
          "name": "F#2",
          "midi": 42,
          "time": 5.181822500000003,
          "velocity": 0.7874015748031497,
          "duration": 0.27272750000000023
        },
        {
          "name": "C2",
          "midi": 36,
          "time": 5.318186250000003,
          "velocity": 0.7874015748031497,
          "duration": 0.13636375000000012
        },
        {
          "name": "F#2",
          "midi": 42,
          "time": 5.454550000000003,
          "velocity": 0.7874015748031497,
          "duration": 0.27272750000000023
        },
        {
          "name": "C2",
          "midi": 36,
          "time": 5.454550000000003,
          "velocity": 0.7874015748031497,
          "duration": 0.13636375000000012
        },
        {
          "name": "F#2",
          "midi": 42,
          "time": 5.727277500000003,
          "velocity": 0.7874015748031497,
          "duration": 0.27272750000000023
        },
        {
          "name": "C2",
          "midi": 36,
          "time": 5.727277500000003,
          "velocity": 0.7874015748031497,
          "duration": 0.27272750000000023
        },
        {
          "name": "F#2",
          "midi": 42,
          "time": 6.000005000000003,
          "velocity": 0.7874015748031497,
          "duration": 0.27272750000000023
        },
        {
          "name": "D2",
          "midi": 38,
          "time": 6.000005000000003,
          "velocity": 0.7874015748031497,
          "duration": 0.27272750000000023
        },
        {
          "name": "F#2",
          "midi": 42,
          "time": 6.272732500000004,
          "velocity": 0.7874015748031497,
          "duration": 0.27272750000000023
        },
        {
          "name": "A#2",
          "midi": 46,
          "time": 6.545460000000004,
          "velocity": 0.7874015748031497,
          "duration": 0.5454550000000005
        },
        {
          "name": "C2",
          "midi": 36,
          "time": 6.545460000000004,
          "velocity": 0.7874015748031497,
          "duration": 0.5454550000000005
        },
        {
          "name": "F#2",
          "midi": 42,
          "time": 6.818187500000004,
          "velocity": 0.7874015748031497,
          "duration": 0.27272750000000023
        },
        {
          "name": "F#2",
          "midi": 42,
          "time": 7.090915000000004,
          "velocity": 0.7874015748031497,
          "duration": 0.27272750000000023
        },
        {
          "name": "D2",
          "midi": 38,
          "time": 7.090915000000004,
          "velocity": 0.7874015748031497,
          "duration": 0.5454550000000005
        },
        {
          "name": "F#2",
          "midi": 42,
          "time": 7.3636425000000045,
          "velocity": 0.7874015748031497,
          "duration": 0.27272750000000023
        },
        {
          "name": "C2",
          "midi": 36,
          "time": 7.500006250000005,
          "velocity": 0.7874015748031497,
          "duration": 0.13636375000000012
        },
        {
          "name": "F#2",
          "midi": 42,
          "time": 7.636370000000005,
          "velocity": 0.7874015748031497,
          "duration": 0.27272750000000023
        },
        {
          "name": "C2",
          "midi": 36,
          "time": 7.636370000000005,
          "velocity": 0.7874015748031497,
          "duration": 0.13636375000000012
        },
        {
          "name": "F#2",
          "midi": 42,
          "time": 7.909097500000005,
          "velocity": 0.7874015748031497,
          "duration": 0.27272750000000023
        },
        {
          "name": "C2",
          "midi": 36,
          "time": 7.909097500000005,
          "velocity": 0.7874015748031497,
          "duration": 0.27272750000000023
        },
        {
          "name": "F#2",
          "midi": 42,
          "time": 8.181825000000005,
          "velocity": 0.7874015748031497,
          "duration": 0.27272750000000023
        },
        {
          "name": "D2",
          "midi": 38,
          "time": 8.181825000000005,
          "velocity": 0.7874015748031497,
          "duration": 0.27272750000000023
        },
        {
          "name": "F#2",
          "midi": 42,
          "time": 8.454552500000005,
          "velocity": 0.7874015748031497,
          "duration": 0.27272750000000023
        },
        {
          "name": "A#2",
          "midi": 46,
          "time": 8.727280000000006,
          "velocity": 0.7874015748031497,
          "duration": 0.5454550000000005
        },
        {
          "name": "C2",
          "midi": 36,
          "time": 8.727280000000006,
          "velocity": 0.7874015748031497,
          "duration": 0.5454550000000005
        },
        {
          "name": "F#2",
          "midi": 42,
          "time": 9.000007500000006,
          "velocity": 0.7874015748031497,
          "duration": 0.27272750000000023
        },
        {
          "name": "F#2",
          "midi": 42,
          "time": 9.272735000000006,
          "velocity": 0.7874015748031497,
          "duration": 0.27272750000000023
        },
        {
          "name": "D2",
          "midi": 38,
          "time": 9.272735000000006,
          "velocity": 0.7874015748031497,
          "duration": 0.5454549999999987
        },
        {
          "name": "F#2",
          "midi": 42,
          "time": 9.545462500000006,
          "velocity": 0.7874015748031497,
          "duration": 0.27272749999999846
        },
        {
          "name": "C2",
          "midi": 36,
          "time": 9.681826250000006,
          "velocity": 0.7874015748031497,
          "duration": 0.13636374999999923
        },
        {
          "name": "F#2",
          "midi": 42,
          "time": 9.818190000000005,
          "velocity": 0.7874015748031497,
          "duration": 0.27272749999999846
        },
        {
          "name": "C2",
          "midi": 36,
          "time": 9.818190000000005,
          "velocity": 0.7874015748031497,
          "duration": 0.13636374999999923
        },
        {
          "name": "F#2",
          "midi": 42,
          "time": 10.090917500000003,
          "velocity": 0.7874015748031497,
          "duration": 0.27272750000000023
        },
        {
          "name": "C2",
          "midi": 36,
          "time": 10.090917500000003,
          "velocity": 0.7874015748031497,
          "duration": 0.27272750000000023
        },
        {
          "name": "F#2",
          "midi": 42,
          "time": 10.363645000000004,
          "velocity": 0.7874015748031497,
          "duration": 0.27272750000000023
        },
        {
          "name": "D2",
          "midi": 38,
          "time": 10.363645000000004,
          "velocity": 0.7874015748031497,
          "duration": 0.27272750000000023
        },
        {
          "name": "F#2",
          "midi": 42,
          "time": 10.636372500000004,
          "velocity": 0.7874015748031497,
          "duration": 0.27272750000000023
        },
        {
          "name": "A#2",
          "midi": 46,
          "time": 10.909100000000004,
          "velocity": 0.7874015748031497,
          "duration": 0.5454550000000005
        },
        {
          "name": "C2",
          "midi": 36,
          "time": 10.909100000000004,
          "velocity": 0.7874015748031497,
          "duration": 0.5454550000000005
        },
        {
          "name": "F#2",
          "midi": 42,
          "time": 11.181827500000004,
          "velocity": 0.7874015748031497,
          "duration": 0.27272750000000023
        },
        {
          "name": "F#2",
          "midi": 42,
          "time": 11.454555000000004,
          "velocity": 0.7874015748031497,
          "duration": 0.27272750000000023
        },
        {
          "name": "D2",
          "midi": 38,
          "time": 11.454555000000004,
          "velocity": 0.7874015748031497,
          "duration": 0.5454549999999987
        },
        {
          "name": "F#2",
          "midi": 42,
          "time": 11.727282500000005,
          "velocity": 0.7874015748031497,
          "duration": 0.27272749999999846
        },
        {
          "name": "C2",
          "midi": 36,
          "time": 11.863646250000004,
          "velocity": 0.7874015748031497,
          "duration": 0.13636374999999923
        },
        {
          "name": "F#2",
          "midi": 42,
          "time": 12.000010000000003,
          "velocity": 0.7874015748031497,
          "duration": 0.27272749999999846
        },
        {
          "name": "C2",
          "midi": 36,
          "time": 12.000010000000003,
          "velocity": 0.7874015748031497,
          "duration": 0.13636374999999923
        },
        {
          "name": "A#2",
          "midi": 46,
          "time": 12.272737500000002,
          "velocity": 0.7874015748031497,
          "duration": 0.27272750000000023
        },
        {
          "name": "D2",
          "midi": 38,
          "time": 12.272737500000002,
          "velocity": 0.7874015748031497,
          "duration": 0.27272750000000023
        },
        {
          "name": "D2",
          "midi": 38,
          "time": 12.818192500000002,
          "velocity": 0.7874015748031497,
          "duration": 0.27272750000000023
        },
        {
          "name": "F#2",
          "midi": 42,
          "time": 12.818192500000002,
          "velocity": 0.7874015748031497,
          "duration": 0.27272750000000023
        },
        {
          "name": "A3",
          "midi": 57,
          "time": 13.090920000000002,
          "velocity": 0.7874015748031497,
          "duration": 0.27272750000000023
        },
        {
          "name": "F#2",
          "midi": 42,
          "time": 13.090920000000002,
          "velocity": 0.7874015748031497,
          "duration": 0.27272750000000023
        },
        {
          "name": "C2",
          "midi": 36,
          "time": 13.090920000000002,
          "velocity": 0.7874015748031497,
          "duration": 0.27272750000000023
        },
        {
          "name": "F#2",
          "midi": 42,
          "time": 13.363647500000003,
          "velocity": 0.7874015748031497,
          "duration": 0.27272750000000023
        },
        {
          "name": "F#2",
          "midi": 42,
          "time": 13.636375000000003,
          "velocity": 0.7874015748031497,
          "duration": 0.27272750000000023
        },
        {
          "name": "D2",
          "midi": 38,
          "time": 13.636375000000003,
          "velocity": 0.7874015748031497,
          "duration": 0.27272750000000023
        },
        {
          "name": "F#2",
          "midi": 42,
          "time": 13.909102500000003,
          "velocity": 0.7874015748031497,
          "duration": 0.27272750000000023
        },
        {
          "name": "F#2",
          "midi": 42,
          "time": 14.181830000000003,
          "velocity": 0.7874015748031497,
          "duration": 0.27272750000000023
        },
        {
          "name": "F#2",
          "midi": 42,
          "time": 14.454557500000004,
          "velocity": 0.7874015748031497,
          "duration": 0.27272750000000023
        },
        {
          "name": "C2",
          "midi": 36,
          "time": 14.454557500000004,
          "velocity": 0.7874015748031497,
          "duration": 0.27272750000000023
        },
        {
          "name": "F#2",
          "midi": 42,
          "time": 14.727285000000004,
          "velocity": 0.7874015748031497,
          "duration": 0.27272749999999846
        },
        {
          "name": "D2",
          "midi": 38,
          "time": 14.727285000000004,
          "velocity": 0.7874015748031497,
          "duration": 0.27272749999999846
        },
        {
          "name": "C2",
          "midi": 36,
          "time": 14.863648750000003,
          "velocity": 0.7874015748031497,
          "duration": 0.13636374999999923
        },
        {
          "name": "F#2",
          "midi": 42,
          "time": 15.000012500000002,
          "velocity": 0.7874015748031497,
          "duration": 0.27272750000000023
        },
        {
          "name": "F#2",
          "midi": 42,
          "time": 15.272740000000002,
          "velocity": 0.7874015748031497,
          "duration": 0.27272750000000023
        },
        {
          "name": "C2",
          "midi": 36,
          "time": 15.272740000000002,
          "velocity": 0.7874015748031497,
          "duration": 0.27272750000000023
        },
        {
          "name": "F#2",
          "midi": 42,
          "time": 15.545467500000003,
          "velocity": 0.7874015748031497,
          "duration": 0.27272750000000023
        },
        {
          "name": "F#2",
          "midi": 42,
          "time": 15.818195000000003,
          "velocity": 0.7874015748031497,
          "duration": 0.27272749999999846
        },
        {
          "name": "D2",
          "midi": 38,
          "time": 15.818195000000003,
          "velocity": 0.7874015748031497,
          "duration": 0.27272749999999846
        },
        {
          "name": "F#2",
          "midi": 42,
          "time": 16.0909225,
          "velocity": 0.7874015748031497,
          "duration": 0.27272749999999846
        },
        {
          "name": "F#2",
          "midi": 42,
          "time": 16.36365,
          "velocity": 0.7874015748031497,
          "duration": 0.27272749999999846
        },
        {
          "name": "F#2",
          "midi": 42,
          "time": 16.6363775,
          "velocity": 0.7874015748031497,
          "duration": 0.27272749999999846
        },
        {
          "name": "C2",
          "midi": 36,
          "time": 16.6363775,
          "velocity": 0.7874015748031497,
          "duration": 0.27272749999999846
        },
        {
          "name": "F#2",
          "midi": 42,
          "time": 16.909104999999997,
          "velocity": 0.7874015748031497,
          "duration": 0.272727500000002
        },
        {
          "name": "D2",
          "midi": 38,
          "time": 16.909104999999997,
          "velocity": 0.7874015748031497,
          "duration": 0.272727500000002
        },
        {
          "name": "C2",
          "midi": 36,
          "time": 17.045468749999998,
          "velocity": 0.7874015748031497,
          "duration": 0.136363750000001
        },
        {
          "name": "F#2",
          "midi": 42,
          "time": 17.1818325,
          "velocity": 0.7874015748031497,
          "duration": 0.27272749999999846
        },
        {
          "name": "F#2",
          "midi": 42,
          "time": 17.454559999999997,
          "velocity": 0.7874015748031497,
          "duration": 0.27272749999999846
        },
        {
          "name": "C2",
          "midi": 36,
          "time": 17.454559999999997,
          "velocity": 0.7874015748031497,
          "duration": 0.27272749999999846
        },
        {
          "name": "F#2",
          "midi": 42,
          "time": 17.727287499999996,
          "velocity": 0.7874015748031497,
          "duration": 0.27272749999999846
        },
        {
          "name": "F#2",
          "midi": 42,
          "time": 18.000014999999994,
          "velocity": 0.7874015748031497,
          "duration": 0.27272749999999846
        },
        {
          "name": "D2",
          "midi": 38,
          "time": 18.000014999999994,
          "velocity": 0.7874015748031497,
          "duration": 0.27272749999999846
        },
        {
          "name": "F#2",
          "midi": 42,
          "time": 18.272742499999993,
          "velocity": 0.7874015748031497,
          "duration": 0.27272749999999846
        },
        {
          "name": "F#2",
          "midi": 42,
          "time": 18.54546999999999,
          "velocity": 0.7874015748031497,
          "duration": 0.27272749999999846
        },
        {
          "name": "F#2",
          "midi": 42,
          "time": 18.81819749999999,
          "velocity": 0.7874015748031497,
          "duration": 0.27272749999999846
        },
        {
          "name": "C2",
          "midi": 36,
          "time": 18.81819749999999,
          "velocity": 0.7874015748031497,
          "duration": 0.27272749999999846
        },
        {
          "name": "F#2",
          "midi": 42,
          "time": 19.090924999999988,
          "velocity": 0.7874015748031497,
          "duration": 0.272727500000002
        },
        {
          "name": "D2",
          "midi": 38,
          "time": 19.090924999999988,
          "velocity": 0.7874015748031497,
          "duration": 0.272727500000002
        },
        {
          "name": "C2",
          "midi": 36,
          "time": 19.22728874999999,
          "velocity": 0.7874015748031497,
          "duration": 0.136363750000001
        },
        {
          "name": "F#2",
          "midi": 42,
          "time": 19.36365249999999,
          "velocity": 0.7874015748031497,
          "duration": 0.27272749999999846
        },
        {
          "name": "F#2",
          "midi": 42,
          "time": 19.63637999999999,
          "velocity": 0.7874015748031497,
          "duration": 0.27272749999999846
        },
        {
          "name": "C2",
          "midi": 36,
          "time": 19.63637999999999,
          "velocity": 0.7874015748031497,
          "duration": 0.27272749999999846
        },
        {
          "name": "F#2",
          "midi": 42,
          "time": 19.909107499999987,
          "velocity": 0.7874015748031497,
          "duration": 0.27272749999999846
        },
        {
          "name": "F#2",
          "midi": 42,
          "time": 20.181834999999985,
          "velocity": 0.7874015748031497,
          "duration": 0.27272749999999846
        },
        {
          "name": "D2",
          "midi": 38,
          "time": 20.181834999999985,
          "velocity": 0.7874015748031497,
          "duration": 0.27272749999999846
        },
        {
          "name": "F#2",
          "midi": 42,
          "time": 20.454562499999984,
          "velocity": 0.7874015748031497,
          "duration": 0.27272749999999846
        },
        {
          "name": "F#2",
          "midi": 42,
          "time": 20.727289999999982,
          "velocity": 0.7874015748031497,
          "duration": 0.27272749999999846
        },
        {
          "name": "F#2",
          "midi": 42,
          "time": 21.00001749999998,
          "velocity": 0.7874015748031497,
          "duration": 0.27272749999999846
        },
        {
          "name": "C2",
          "midi": 36,
          "time": 21.00001749999998,
          "velocity": 0.7874015748031497,
          "duration": 0.27272749999999846
        },
        {
          "name": "F#2",
          "midi": 42,
          "time": 21.27274499999998,
          "velocity": 0.7874015748031497,
          "duration": 0.272727500000002
        },
        {
          "name": "D2",
          "midi": 38,
          "time": 21.27274499999998,
          "velocity": 0.7874015748031497,
          "duration": 0.272727500000002
        },
        {
          "name": "C2",
          "midi": 36,
          "time": 21.40910874999998,
          "velocity": 0.7874015748031497,
          "duration": 0.136363750000001
        },
        {
          "name": "F#2",
          "midi": 42,
          "time": 21.54547249999998,
          "velocity": 0.7874015748031497,
          "duration": 0.27272749999999846
        },
        {
          "name": "F#2",
          "midi": 42,
          "time": 21.81819999999998,
          "velocity": 0.7874015748031497,
          "duration": 0.27272749999999846
        },
        {
          "name": "C2",
          "midi": 36,
          "time": 21.81819999999998,
          "velocity": 0.7874015748031497,
          "duration": 0.27272749999999846
        },
        {
          "name": "F#2",
          "midi": 42,
          "time": 22.090927499999978,
          "velocity": 0.7874015748031497,
          "duration": 0.27272749999999846
        },
        {
          "name": "F#2",
          "midi": 42,
          "time": 22.363654999999977,
          "velocity": 0.7874015748031497,
          "duration": 0.27272749999999846
        },
        {
          "name": "D2",
          "midi": 38,
          "time": 22.363654999999977,
          "velocity": 0.7874015748031497,
          "duration": 0.27272749999999846
        },
        {
          "name": "F#2",
          "midi": 42,
          "time": 22.636382499999975,
          "velocity": 0.7874015748031497,
          "duration": 0.27272749999999846
        },
        {
          "name": "F#2",
          "midi": 42,
          "time": 22.909109999999973,
          "velocity": 0.7874015748031497,
          "duration": 0.27272749999999846
        },
        {
          "name": "F#2",
          "midi": 42,
          "time": 23.181837499999972,
          "velocity": 0.7874015748031497,
          "duration": 0.27272749999999846
        },
        {
          "name": "C2",
          "midi": 36,
          "time": 23.181837499999972,
          "velocity": 0.7874015748031497,
          "duration": 0.27272749999999846
        },
        {
          "name": "F#2",
          "midi": 42,
          "time": 23.45456499999997,
          "velocity": 0.7874015748031497,
          "duration": 0.272727500000002
        },
        {
          "name": "D2",
          "midi": 38,
          "time": 23.45456499999997,
          "velocity": 0.7874015748031497,
          "duration": 0.272727500000002
        },
        {
          "name": "C2",
          "midi": 36,
          "time": 23.59092874999997,
          "velocity": 0.7874015748031497,
          "duration": 0.136363750000001
        },
        {
          "name": "F#2",
          "midi": 42,
          "time": 23.727292499999972,
          "velocity": 0.7874015748031497,
          "duration": 0.27272749999999846
        },
        {
          "name": "F#2",
          "midi": 42,
          "time": 24.00001999999997,
          "velocity": 0.7874015748031497,
          "duration": 0.27272749999999846
        },
        {
          "name": "C2",
          "midi": 36,
          "time": 24.00001999999997,
          "velocity": 0.7874015748031497,
          "duration": 0.27272749999999846
        },
        {
          "name": "F#2",
          "midi": 42,
          "time": 24.27274749999997,
          "velocity": 0.7874015748031497,
          "duration": 0.27272749999999846
        },
        {
          "name": "F#2",
          "midi": 42,
          "time": 24.545474999999968,
          "velocity": 0.7874015748031497,
          "duration": 0.27272749999999846
        },
        {
          "name": "D2",
          "midi": 38,
          "time": 24.545474999999968,
          "velocity": 0.7874015748031497,
          "duration": 0.27272749999999846
        },
        {
          "name": "F#2",
          "midi": 42,
          "time": 24.818202499999966,
          "velocity": 0.7874015748031497,
          "duration": 0.27272749999999846
        },
        {
          "name": "F#2",
          "midi": 42,
          "time": 25.090929999999965,
          "velocity": 0.7874015748031497,
          "duration": 0.27272749999999846
        },
        {
          "name": "F#2",
          "midi": 42,
          "time": 25.363657499999963,
          "velocity": 0.7874015748031497,
          "duration": 0.27272749999999846
        },
        {
          "name": "C2",
          "midi": 36,
          "time": 25.363657499999963,
          "velocity": 0.7874015748031497,
          "duration": 0.27272749999999846
        },
        {
          "name": "F#2",
          "midi": 42,
          "time": 25.63638499999996,
          "velocity": 0.7874015748031497,
          "duration": 0.272727500000002
        },
        {
          "name": "D2",
          "midi": 38,
          "time": 25.63638499999996,
          "velocity": 0.7874015748031497,
          "duration": 0.272727500000002
        },
        {
          "name": "C2",
          "midi": 36,
          "time": 25.772748749999963,
          "velocity": 0.7874015748031497,
          "duration": 0.136363750000001
        },
        {
          "name": "F#2",
          "midi": 42,
          "time": 25.909112499999964,
          "velocity": 0.7874015748031497,
          "duration": 0.27272749999999846
        },
        {
          "name": "F#2",
          "midi": 42,
          "time": 26.181839999999962,
          "velocity": 0.7874015748031497,
          "duration": 0.27272749999999846
        },
        {
          "name": "C2",
          "midi": 36,
          "time": 26.181839999999962,
          "velocity": 0.7874015748031497,
          "duration": 0.27272749999999846
        },
        {
          "name": "F#2",
          "midi": 42,
          "time": 26.45456749999996,
          "velocity": 0.7874015748031497,
          "duration": 0.27272749999999846
        },
        {
          "name": "F#2",
          "midi": 42,
          "time": 26.72729499999996,
          "velocity": 0.7874015748031497,
          "duration": 0.27272749999999846
        },
        {
          "name": "D2",
          "midi": 38,
          "time": 26.72729499999996,
          "velocity": 0.7874015748031497,
          "duration": 0.27272749999999846
        },
        {
          "name": "F#2",
          "midi": 42,
          "time": 27.000022499999957,
          "velocity": 0.7874015748031497,
          "duration": 0.27272749999999846
        },
        {
          "name": "F#2",
          "midi": 42,
          "time": 27.272749999999956,
          "velocity": 0.7874015748031497,
          "duration": 0.27272749999999846
        },
        {
          "name": "F#2",
          "midi": 42,
          "time": 27.545477499999954,
          "velocity": 0.7874015748031497,
          "duration": 0.27272749999999846
        },
        {
          "name": "C2",
          "midi": 36,
          "time": 27.545477499999954,
          "velocity": 0.7874015748031497,
          "duration": 0.27272749999999846
        },
        {
          "name": "F#2",
          "midi": 42,
          "time": 27.818204999999953,
          "velocity": 0.7874015748031497,
          "duration": 0.272727500000002
        },
        {
          "name": "D2",
          "midi": 38,
          "time": 27.818204999999953,
          "velocity": 0.7874015748031497,
          "duration": 0.272727500000002
        },
        {
          "name": "C2",
          "midi": 36,
          "time": 27.954568749999954,
          "velocity": 0.7874015748031497,
          "duration": 0.136363750000001
        },
        {
          "name": "F#2",
          "midi": 42,
          "time": 28.090932499999955,
          "velocity": 0.7874015748031497,
          "duration": 0.27272749999999846
        },
        {
          "name": "F#2",
          "midi": 42,
          "time": 28.363659999999953,
          "velocity": 0.7874015748031497,
          "duration": 0.27272749999999846
        },
        {
          "name": "C2",
          "midi": 36,
          "time": 28.363659999999953,
          "velocity": 0.7874015748031497,
          "duration": 0.27272749999999846
        },
        {
          "name": "F#2",
          "midi": 42,
          "time": 28.63638749999995,
          "velocity": 0.7874015748031497,
          "duration": 0.27272749999999846
        },
        {
          "name": "F#2",
          "midi": 42,
          "time": 28.90911499999995,
          "velocity": 0.7874015748031497,
          "duration": 0.27272749999999846
        },
        {
          "name": "D2",
          "midi": 38,
          "time": 28.90911499999995,
          "velocity": 0.7874015748031497,
          "duration": 0.27272749999999846
        },
        {
          "name": "F#2",
          "midi": 42,
          "time": 29.18184249999995,
          "velocity": 0.7874015748031497,
          "duration": 0.27272749999999846
        },
        {
          "name": "F#2",
          "midi": 42,
          "time": 29.454569999999947,
          "velocity": 0.7874015748031497,
          "duration": 0.27272749999999846
        },
        {
          "name": "F#2",
          "midi": 42,
          "time": 29.727297499999946,
          "velocity": 0.7874015748031497,
          "duration": 0.27272749999999846
        },
        {
          "name": "C2",
          "midi": 36,
          "time": 29.727297499999946,
          "velocity": 0.7874015748031497,
          "duration": 0.27272749999999846
        },
        {
          "name": "E3",
          "midi": 52,
          "time": 30.000024999999944,
          "velocity": 0.7874015748031497,
          "duration": 0.5454549999999969
        },
        {
          "name": "F#2",
          "midi": 42,
          "time": 30.000024999999944,
          "velocity": 0.7874015748031497,
          "duration": 0.5454549999999969
        },
        {
          "name": "D2",
          "midi": 38,
          "time": 30.000024999999944,
          "velocity": 0.7874015748031497,
          "duration": 0.27272749999999846
        },
        {
          "name": "A3",
          "midi": 57,
          "time": 30.54547999999994,
          "velocity": 0.7874015748031497,
          "duration": 0.27272749999999846
        },
        {
          "name": "A#2",
          "midi": 46,
          "time": 30.54547999999994,
          "velocity": 0.7874015748031497,
          "duration": 0.5454549999999969
        },
        {
          "name": "C2",
          "midi": 36,
          "time": 30.54547999999994,
          "velocity": 0.7874015748031497,
          "duration": 0.5454549999999969
        },
        {
          "name": "F#2",
          "midi": 42,
          "time": 30.81820749999994,
          "velocity": 0.7874015748031497,
          "duration": 0.27272749999999846
        },
        {
          "name": "F#2",
          "midi": 42,
          "time": 31.090934999999938,
          "velocity": 0.7874015748031497,
          "duration": 0.27272749999999846
        },
        {
          "name": "D2",
          "midi": 38,
          "time": 31.090934999999938,
          "velocity": 0.7874015748031497,
          "duration": 0.5454550000000005
        },
        {
          "name": "F#2",
          "midi": 42,
          "time": 31.363662499999936,
          "velocity": 0.7874015748031497,
          "duration": 0.272727500000002
        },
        {
          "name": "C2",
          "midi": 36,
          "time": 31.500026249999937,
          "velocity": 0.7874015748031497,
          "duration": 0.136363750000001
        },
        {
          "name": "F#2",
          "midi": 42,
          "time": 31.63638999999994,
          "velocity": 0.7874015748031497,
          "duration": 0.272727500000002
        },
        {
          "name": "C2",
          "midi": 36,
          "time": 31.63638999999994,
          "velocity": 0.7874015748031497,
          "duration": 0.136363750000001
        },
        {
          "name": "F#2",
          "midi": 42,
          "time": 31.90911749999994,
          "velocity": 0.7874015748031497,
          "duration": 0.27272749999999846
        },
        {
          "name": "C2",
          "midi": 36,
          "time": 31.90911749999994,
          "velocity": 0.7874015748031497,
          "duration": 0.27272749999999846
        },
        {
          "name": "E3",
          "midi": 52,
          "time": 32.18184499999994,
          "velocity": 0.7874015748031497,
          "duration": 0.272727500000002
        },
        {
          "name": "F#2",
          "midi": 42,
          "time": 32.18184499999994,
          "velocity": 0.7874015748031497,
          "duration": 0.272727500000002
        },
        {
          "name": "D2",
          "midi": 38,
          "time": 32.18184499999994,
          "velocity": 0.7874015748031497,
          "duration": 0.272727500000002
        },
        {
          "name": "F#2",
          "midi": 42,
          "time": 32.45457249999994,
          "velocity": 0.7874015748031497,
          "duration": 0.272727500000002
        },
        {
          "name": "A#2",
          "midi": 46,
          "time": 32.72729999999994,
          "velocity": 0.7874015748031497,
          "duration": 0.545455000000004
        },
        {
          "name": "C2",
          "midi": 36,
          "time": 32.72729999999994,
          "velocity": 0.7874015748031497,
          "duration": 0.545455000000004
        },
        {
          "name": "F#2",
          "midi": 42,
          "time": 33.000027499999945,
          "velocity": 0.7874015748031497,
          "duration": 0.272727500000002
        },
        {
          "name": "F#2",
          "midi": 42,
          "time": 33.27275499999995,
          "velocity": 0.7874015748031497,
          "duration": 0.272727500000002
        },
        {
          "name": "D2",
          "midi": 38,
          "time": 33.27275499999995,
          "velocity": 0.7874015748031497,
          "duration": 0.545455000000004
        },
        {
          "name": "F#2",
          "midi": 42,
          "time": 33.54548249999995,
          "velocity": 0.7874015748031497,
          "duration": 0.272727500000002
        },
        {
          "name": "C2",
          "midi": 36,
          "time": 33.68184624999995,
          "velocity": 0.7874015748031497,
          "duration": 0.136363750000001
        },
        {
          "name": "F#2",
          "midi": 42,
          "time": 33.81820999999995,
          "velocity": 0.7874015748031497,
          "duration": 0.272727500000002
        },
        {
          "name": "C2",
          "midi": 36,
          "time": 33.81820999999995,
          "velocity": 0.7874015748031497,
          "duration": 0.136363750000001
        },
        {
          "name": "F#2",
          "midi": 42,
          "time": 34.09093749999995,
          "velocity": 0.7874015748031497,
          "duration": 0.272727500000002
        },
        {
          "name": "C2",
          "midi": 36,
          "time": 34.09093749999995,
          "velocity": 0.7874015748031497,
          "duration": 0.272727500000002
        },
        {
          "name": "F#2",
          "midi": 42,
          "time": 34.363664999999955,
          "velocity": 0.7874015748031497,
          "duration": 0.272727500000002
        },
        {
          "name": "D2",
          "midi": 38,
          "time": 34.363664999999955,
          "velocity": 0.7874015748031497,
          "duration": 0.272727500000002
        },
        {
          "name": "F#2",
          "midi": 42,
          "time": 34.63639249999996,
          "velocity": 0.7874015748031497,
          "duration": 0.272727500000002
        },
        {
          "name": "A#2",
          "midi": 46,
          "time": 34.90911999999996,
          "velocity": 0.7874015748031497,
          "duration": 0.545455000000004
        },
        {
          "name": "C2",
          "midi": 36,
          "time": 34.90911999999996,
          "velocity": 0.7874015748031497,
          "duration": 0.545455000000004
        },
        {
          "name": "F#2",
          "midi": 42,
          "time": 35.18184749999996,
          "velocity": 0.7874015748031497,
          "duration": 0.272727500000002
        },
        {
          "name": "F#2",
          "midi": 42,
          "time": 35.45457499999996,
          "velocity": 0.7874015748031497,
          "duration": 0.272727500000002
        },
        {
          "name": "D2",
          "midi": 38,
          "time": 35.45457499999996,
          "velocity": 0.7874015748031497,
          "duration": 0.545455000000004
        },
        {
          "name": "F#2",
          "midi": 42,
          "time": 35.727302499999965,
          "velocity": 0.7874015748031497,
          "duration": 0.272727500000002
        },
        {
          "name": "C2",
          "midi": 36,
          "time": 35.863666249999966,
          "velocity": 0.7874015748031497,
          "duration": 0.136363750000001
        },
        {
          "name": "F#2",
          "midi": 42,
          "time": 36.00002999999997,
          "velocity": 0.7874015748031497,
          "duration": 0.272727500000002
        },
        {
          "name": "C2",
          "midi": 36,
          "time": 36.00002999999997,
          "velocity": 0.7874015748031497,
          "duration": 0.136363750000001
        },
        {
          "name": "F#2",
          "midi": 42,
          "time": 36.27275749999997,
          "velocity": 0.7874015748031497,
          "duration": 0.272727500000002
        },
        {
          "name": "C2",
          "midi": 36,
          "time": 36.27275749999997,
          "velocity": 0.7874015748031497,
          "duration": 0.272727500000002
        },
        {
          "name": "E3",
          "midi": 52,
          "time": 36.54548499999997,
          "velocity": 0.7874015748031497,
          "duration": 0.272727500000002
        },
        {
          "name": "F#2",
          "midi": 42,
          "time": 36.54548499999997,
          "velocity": 0.7874015748031497,
          "duration": 0.272727500000002
        },
        {
          "name": "D2",
          "midi": 38,
          "time": 36.54548499999997,
          "velocity": 0.7874015748031497,
          "duration": 0.272727500000002
        },
        {
          "name": "F#2",
          "midi": 42,
          "time": 36.81821249999997,
          "velocity": 0.7874015748031497,
          "duration": 0.272727500000002
        },
        {
          "name": "A#2",
          "midi": 46,
          "time": 37.090939999999975,
          "velocity": 0.7874015748031497,
          "duration": 0.545455000000004
        },
        {
          "name": "C2",
          "midi": 36,
          "time": 37.090939999999975,
          "velocity": 0.7874015748031497,
          "duration": 0.545455000000004
        },
        {
          "name": "F#2",
          "midi": 42,
          "time": 37.36366749999998,
          "velocity": 0.7874015748031497,
          "duration": 0.272727500000002
        },
        {
          "name": "F#2",
          "midi": 42,
          "time": 37.63639499999998,
          "velocity": 0.7874015748031497,
          "duration": 0.272727500000002
        },
        {
          "name": "D2",
          "midi": 38,
          "time": 37.63639499999998,
          "velocity": 0.7874015748031497,
          "duration": 0.545455000000004
        },
        {
          "name": "F#2",
          "midi": 42,
          "time": 37.90912249999998,
          "velocity": 0.7874015748031497,
          "duration": 0.272727500000002
        },
        {
          "name": "C2",
          "midi": 36,
          "time": 38.04548624999998,
          "velocity": 0.7874015748031497,
          "duration": 0.136363750000001
        },
        {
          "name": "F#2",
          "midi": 42,
          "time": 38.18184999999998,
          "velocity": 0.7874015748031497,
          "duration": 0.272727500000002
        },
        {
          "name": "C2",
          "midi": 36,
          "time": 38.18184999999998,
          "velocity": 0.7874015748031497,
          "duration": 0.136363750000001
        },
        {
          "name": "A3",
          "midi": 57,
          "time": 38.454577499999985,
          "velocity": 0.7874015748031497,
          "duration": 0.272727500000002
        },
        {
          "name": "A#2",
          "midi": 46,
          "time": 38.454577499999985,
          "velocity": 0.7874015748031497,
          "duration": 0.272727500000002
        },
        {
          "name": "D2",
          "midi": 38,
          "time": 38.454577499999985,
          "velocity": 0.7874015748031497,
          "duration": 0.272727500000002
        },
        {
          "name": "D2",
          "midi": 38,
          "time": 39.00003249999999,
          "velocity": 0.7874015748031497,
          "duration": 0.272727500000002
        },
        {
          "name": "F#2",
          "midi": 42,
          "time": 39.00003249999999,
          "velocity": 0.7874015748031497,
          "duration": 0.272727500000002
        },
        {
          "name": "A3",
          "midi": 57,
          "time": 39.27275999999999,
          "velocity": 0.7874015748031497,
          "duration": 0.272727500000002
        },
        {
          "name": "F#2",
          "midi": 42,
          "time": 39.27275999999999,
          "velocity": 0.7874015748031497,
          "duration": 0.272727500000002
        },
        {
          "name": "C2",
          "midi": 36,
          "time": 39.27275999999999,
          "velocity": 0.7874015748031497,
          "duration": 0.272727500000002
        },
        {
          "name": "F#2",
          "midi": 42,
          "time": 39.54548749999999,
          "velocity": 0.7874015748031497,
          "duration": 0.272727500000002
        },
        {
          "name": "F#2",
          "midi": 42,
          "time": 39.818214999999995,
          "velocity": 0.7874015748031497,
          "duration": 0.272727500000002
        },
        {
          "name": "D2",
          "midi": 38,
          "time": 39.818214999999995,
          "velocity": 0.7874015748031497,
          "duration": 0.272727500000002
        },
        {
          "name": "F#2",
          "midi": 42,
          "time": 40.0909425,
          "velocity": 0.7874015748031497,
          "duration": 0.272727500000002
        },
        {
          "name": "F#2",
          "midi": 42,
          "time": 40.36367,
          "velocity": 0.7874015748031497,
          "duration": 0.272727500000002
        },
        {
          "name": "F#2",
          "midi": 42,
          "time": 40.6363975,
          "velocity": 0.7874015748031497,
          "duration": 0.272727500000002
        },
        {
          "name": "C2",
          "midi": 36,
          "time": 40.6363975,
          "velocity": 0.7874015748031497,
          "duration": 0.272727500000002
        },
        {
          "name": "F#2",
          "midi": 42,
          "time": 40.909125,
          "velocity": 0.7874015748031497,
          "duration": 0.272727500000002
        },
        {
          "name": "D2",
          "midi": 38,
          "time": 40.909125,
          "velocity": 0.7874015748031497,
          "duration": 0.272727500000002
        },
        {
          "name": "C2",
          "midi": 36,
          "time": 41.045488750000004,
          "velocity": 0.7874015748031497,
          "duration": 0.136363750000001
        },
        {
          "name": "F#2",
          "midi": 42,
          "time": 41.181852500000005,
          "velocity": 0.7874015748031497,
          "duration": 0.272727500000002
        },
        {
          "name": "F#2",
          "midi": 42,
          "time": 41.45458000000001,
          "velocity": 0.7874015748031497,
          "duration": 0.272727500000002
        },
        {
          "name": "C2",
          "midi": 36,
          "time": 41.45458000000001,
          "velocity": 0.7874015748031497,
          "duration": 0.272727500000002
        },
        {
          "name": "F#2",
          "midi": 42,
          "time": 41.72730750000001,
          "velocity": 0.7874015748031497,
          "duration": 0.272727500000002
        },
        {
          "name": "F#2",
          "midi": 42,
          "time": 42.00003500000001,
          "velocity": 0.7874015748031497,
          "duration": 0.272727500000002
        },
        {
          "name": "D2",
          "midi": 38,
          "time": 42.00003500000001,
          "velocity": 0.7874015748031497,
          "duration": 0.272727500000002
        },
        {
          "name": "F#2",
          "midi": 42,
          "time": 42.27276250000001,
          "velocity": 0.7874015748031497,
          "duration": 0.272727500000002
        },
        {
          "name": "F#2",
          "midi": 42,
          "time": 42.545490000000015,
          "velocity": 0.7874015748031497,
          "duration": 0.272727500000002
        },
        {
          "name": "F#2",
          "midi": 42,
          "time": 42.81821750000002,
          "velocity": 0.7874015748031497,
          "duration": 0.272727500000002
        },
        {
          "name": "C2",
          "midi": 36,
          "time": 42.81821750000002,
          "velocity": 0.7874015748031497,
          "duration": 0.272727500000002
        },
        {
          "name": "F#2",
          "midi": 42,
          "time": 43.09094500000002,
          "velocity": 0.7874015748031497,
          "duration": 0.272727500000002
        },
        {
          "name": "D2",
          "midi": 38,
          "time": 43.09094500000002,
          "velocity": 0.7874015748031497,
          "duration": 0.272727500000002
        },
        {
          "name": "C2",
          "midi": 36,
          "time": 43.22730875000002,
          "velocity": 0.7874015748031497,
          "duration": 0.136363750000001
        },
        {
          "name": "F#2",
          "midi": 42,
          "time": 43.36367250000002,
          "velocity": 0.7874015748031497,
          "duration": 0.272727500000002
        },
        {
          "name": "F#2",
          "midi": 42,
          "time": 43.63640000000002,
          "velocity": 0.7874015748031497,
          "duration": 0.272727500000002
        },
        {
          "name": "C2",
          "midi": 36,
          "time": 43.63640000000002,
          "velocity": 0.7874015748031497,
          "duration": 0.272727500000002
        },
        {
          "name": "F#2",
          "midi": 42,
          "time": 43.909127500000025,
          "velocity": 0.7874015748031497,
          "duration": 0.272727500000002
        },
        {
          "name": "F#2",
          "midi": 42,
          "time": 44.18185500000003,
          "velocity": 0.7874015748031497,
          "duration": 0.272727500000002
        },
        {
          "name": "D2",
          "midi": 38,
          "time": 44.18185500000003,
          "velocity": 0.7874015748031497,
          "duration": 0.272727500000002
        },
        {
          "name": "F#2",
          "midi": 42,
          "time": 44.45458250000003,
          "velocity": 0.7874015748031497,
          "duration": 0.272727500000002
        },
        {
          "name": "F#2",
          "midi": 42,
          "time": 44.72731000000003,
          "velocity": 0.7874015748031497,
          "duration": 0.272727500000002
        },
        {
          "name": "F#2",
          "midi": 42,
          "time": 45.00003750000003,
          "velocity": 0.7874015748031497,
          "duration": 0.272727500000002
        },
        {
          "name": "C2",
          "midi": 36,
          "time": 45.00003750000003,
          "velocity": 0.7874015748031497,
          "duration": 0.272727500000002
        },
        {
          "name": "F#2",
          "midi": 42,
          "time": 45.272765000000035,
          "velocity": 0.7874015748031497,
          "duration": 0.272727500000002
        },
        {
          "name": "D2",
          "midi": 38,
          "time": 45.272765000000035,
          "velocity": 0.7874015748031497,
          "duration": 0.272727500000002
        },
        {
          "name": "C2",
          "midi": 36,
          "time": 45.409128750000036,
          "velocity": 0.7874015748031497,
          "duration": 0.136363750000001
        },
        {
          "name": "F#2",
          "midi": 42,
          "time": 45.54549250000004,
          "velocity": 0.7874015748031497,
          "duration": 0.272727500000002
        },
        {
          "name": "F#2",
          "midi": 42,
          "time": 45.81822000000004,
          "velocity": 0.7874015748031497,
          "duration": 0.272727500000002
        },
        {
          "name": "C2",
          "midi": 36,
          "time": 45.81822000000004,
          "velocity": 0.7874015748031497,
          "duration": 0.272727500000002
        },
        {
          "name": "F#2",
          "midi": 42,
          "time": 46.09094750000004,
          "velocity": 0.7874015748031497,
          "duration": 0.272727500000002
        },
        {
          "name": "F#2",
          "midi": 42,
          "time": 46.36367500000004,
          "velocity": 0.7874015748031497,
          "duration": 0.272727500000002
        },
        {
          "name": "D2",
          "midi": 38,
          "time": 46.36367500000004,
          "velocity": 0.7874015748031497,
          "duration": 0.272727500000002
        },
        {
          "name": "F#2",
          "midi": 42,
          "time": 46.636402500000045,
          "velocity": 0.7874015748031497,
          "duration": 0.272727500000002
        },
        {
          "name": "F#2",
          "midi": 42,
          "time": 46.90913000000005,
          "velocity": 0.7874015748031497,
          "duration": 0.272727500000002
        },
        {
          "name": "G4",
          "midi": 67,
          "time": 47.18185750000005,
          "velocity": 0.7874015748031497,
          "duration": 0.136363750000001
        },
        {
          "name": "F#2",
          "midi": 42,
          "time": 47.18185750000005,
          "velocity": 0.7874015748031497,
          "duration": 0.272727500000002
        },
        {
          "name": "C2",
          "midi": 36,
          "time": 47.18185750000005,
          "velocity": 0.7874015748031497,
          "duration": 0.272727500000002
        },
        {
          "name": "G4",
          "midi": 67,
          "time": 47.31822125000005,
          "velocity": 0.7874015748031497,
          "duration": 0.136363750000001
        },
        {
          "name": "G4",
          "midi": 67,
          "time": 47.45458500000005,
          "velocity": 0.7874015748031497,
          "duration": 0.136363750000001
        },
        {
          "name": "F#2",
          "midi": 42,
          "time": 47.45458500000005,
          "velocity": 0.7874015748031497,
          "duration": 0.272727500000002
        },
        {
          "name": "D2",
          "midi": 38,
          "time": 47.45458500000005,
          "velocity": 0.7874015748031497,
          "duration": 0.272727500000002
        },
        {
          "name": "G4",
          "midi": 67,
          "time": 47.59094875000005,
          "velocity": 0.7874015748031497,
          "duration": 0.136363750000001
        },
        {
          "name": "C2",
          "midi": 36,
          "time": 47.59094875000005,
          "velocity": 0.7874015748031497,
          "duration": 0.136363750000001
        },
        {
          "name": "G4",
          "midi": 67,
          "time": 47.72731250000005,
          "velocity": 0.7874015748031497,
          "duration": 0.136363750000001
        },
        {
          "name": "F#2",
          "midi": 42,
          "time": 47.72731250000005,
          "velocity": 0.7874015748031497,
          "duration": 0.272727500000002
        },
        {
          "name": "G4",
          "midi": 67,
          "time": 47.863676250000054,
          "velocity": 0.7874015748031497,
          "duration": 0.136363750000001
        },
        {
          "name": "A3",
          "midi": 57,
          "time": 48.000040000000055,
          "velocity": 0.7874015748031497,
          "duration": 0.272727500000002
        },
        {
          "name": "F#2",
          "midi": 42,
          "time": 48.000040000000055,
          "velocity": 0.7874015748031497,
          "duration": 0.272727500000002
        },
        {
          "name": "C2",
          "midi": 36,
          "time": 48.000040000000055,
          "velocity": 0.7874015748031497,
          "duration": 0.272727500000002
        },
        {
          "name": "F#2",
          "midi": 42,
          "time": 48.27276750000006,
          "velocity": 0.7874015748031497,
          "duration": 0.272727500000002
        },
        {
          "name": "F#2",
          "midi": 42,
          "time": 48.54549500000006,
          "velocity": 0.7874015748031497,
          "duration": 0.272727500000002
        },
        {
          "name": "D2",
          "midi": 38,
          "time": 48.54549500000006,
          "velocity": 0.7874015748031497,
          "duration": 0.272727500000002
        },
        {
          "name": "F#2",
          "midi": 42,
          "time": 48.81822250000006,
          "velocity": 0.7874015748031497,
          "duration": 0.272727500000002
        },
        {
          "name": "F#2",
          "midi": 42,
          "time": 49.09095000000006,
          "velocity": 0.7874015748031497,
          "duration": 0.272727500000002
        },
        {
          "name": "F#2",
          "midi": 42,
          "time": 49.363677500000065,
          "velocity": 0.7874015748031497,
          "duration": 0.272727500000002
        },
        {
          "name": "C2",
          "midi": 36,
          "time": 49.363677500000065,
          "velocity": 0.7874015748031497,
          "duration": 0.272727500000002
        },
        {
          "name": "F#2",
          "midi": 42,
          "time": 49.63640500000007,
          "velocity": 0.7874015748031497,
          "duration": 0.272727500000002
        },
        {
          "name": "D2",
          "midi": 38,
          "time": 49.63640500000007,
          "velocity": 0.7874015748031497,
          "duration": 0.272727500000002
        },
        {
          "name": "C2",
          "midi": 36,
          "time": 49.77276875000007,
          "velocity": 0.7874015748031497,
          "duration": 0.136363750000001
        },
        {
          "name": "F#2",
          "midi": 42,
          "time": 49.90913250000007,
          "velocity": 0.7874015748031497,
          "duration": 0.272727500000002
        },
        {
          "name": "F#2",
          "midi": 42,
          "time": 50.18186000000007,
          "velocity": 0.7874015748031497,
          "duration": 0.272727500000002
        },
        {
          "name": "C2",
          "midi": 36,
          "time": 50.18186000000007,
          "velocity": 0.7874015748031497,
          "duration": 0.272727500000002
        },
        {
          "name": "F#2",
          "midi": 42,
          "time": 50.45458750000007,
          "velocity": 0.7874015748031497,
          "duration": 0.272727500000002
        },
        {
          "name": "F#2",
          "midi": 42,
          "time": 50.727315000000075,
          "velocity": 0.7874015748031497,
          "duration": 0.272727500000002
        },
        {
          "name": "D2",
          "midi": 38,
          "time": 50.727315000000075,
          "velocity": 0.7874015748031497,
          "duration": 0.272727500000002
        },
        {
          "name": "F#2",
          "midi": 42,
          "time": 51.00004250000008,
          "velocity": 0.7874015748031497,
          "duration": 0.272727500000002
        },
        {
          "name": "F#2",
          "midi": 42,
          "time": 51.27277000000008,
          "velocity": 0.7874015748031497,
          "duration": 0.272727500000002
        },
        {
          "name": "F#2",
          "midi": 42,
          "time": 51.54549750000008,
          "velocity": 0.7874015748031497,
          "duration": 0.272727500000002
        },
        {
          "name": "C2",
          "midi": 36,
          "time": 51.54549750000008,
          "velocity": 0.7874015748031497,
          "duration": 0.272727500000002
        },
        {
          "name": "F#2",
          "midi": 42,
          "time": 51.81822500000008,
          "velocity": 0.7874015748031497,
          "duration": 0.272727500000002
        },
        {
          "name": "D2",
          "midi": 38,
          "time": 51.81822500000008,
          "velocity": 0.7874015748031497,
          "duration": 0.272727500000002
        },
        {
          "name": "C2",
          "midi": 36,
          "time": 51.954588750000084,
          "velocity": 0.7874015748031497,
          "duration": 0.136363750000001
        },
        {
          "name": "F#2",
          "midi": 42,
          "time": 52.090952500000085,
          "velocity": 0.7874015748031497,
          "duration": 0.272727500000002
        },
        {
          "name": "F#2",
          "midi": 42,
          "time": 52.36368000000009,
          "velocity": 0.7874015748031497,
          "duration": 0.272727500000002
        },
        {
          "name": "C2",
          "midi": 36,
          "time": 52.36368000000009,
          "velocity": 0.7874015748031497,
          "duration": 0.272727500000002
        },
        {
          "name": "F#2",
          "midi": 42,
          "time": 52.63640750000009,
          "velocity": 0.7874015748031497,
          "duration": 0.272727500000002
        },
        {
          "name": "F#2",
          "midi": 42,
          "time": 52.90913500000009,
          "velocity": 0.7874015748031497,
          "duration": 0.272727500000002
        },
        {
          "name": "D2",
          "midi": 38,
          "time": 52.90913500000009,
          "velocity": 0.7874015748031497,
          "duration": 0.272727500000002
        },
        {
          "name": "F#2",
          "midi": 42,
          "time": 53.18186250000009,
          "velocity": 0.7874015748031497,
          "duration": 0.272727500000002
        },
        {
          "name": "F#2",
          "midi": 42,
          "time": 53.454590000000096,
          "velocity": 0.7874015748031497,
          "duration": 0.272727500000002
        },
        {
          "name": "F#2",
          "midi": 42,
          "time": 53.7273175000001,
          "velocity": 0.7874015748031497,
          "duration": 0.272727500000002
        },
        {
          "name": "C2",
          "midi": 36,
          "time": 53.7273175000001,
          "velocity": 0.7874015748031497,
          "duration": 0.272727500000002
        },
        {
          "name": "F#2",
          "midi": 42,
          "time": 54.0000450000001,
          "velocity": 0.7874015748031497,
          "duration": 0.272727500000002
        },
        {
          "name": "D2",
          "midi": 38,
          "time": 54.0000450000001,
          "velocity": 0.7874015748031497,
          "duration": 0.272727500000002
        },
        {
          "name": "C2",
          "midi": 36,
          "time": 54.1364087500001,
          "velocity": 0.7874015748031497,
          "duration": 0.136363750000001
        },
        {
          "name": "F#2",
          "midi": 42,
          "time": 54.2727725000001,
          "velocity": 0.7874015748031497,
          "duration": 0.272727500000002
        },
        {
          "name": "F#2",
          "midi": 42,
          "time": 54.545500000000104,
          "velocity": 0.7874015748031497,
          "duration": 0.272727500000002
        },
        {
          "name": "C2",
          "midi": 36,
          "time": 54.545500000000104,
          "velocity": 0.7874015748031497,
          "duration": 0.272727500000002
        },
        {
          "name": "F#2",
          "midi": 42,
          "time": 54.818227500000106,
          "velocity": 0.7874015748031497,
          "duration": 0.272727500000002
        },
        {
          "name": "F#2",
          "midi": 42,
          "time": 55.09095500000011,
          "velocity": 0.7874015748031497,
          "duration": 0.272727500000002
        },
        {
          "name": "D2",
          "midi": 38,
          "time": 55.09095500000011,
          "velocity": 0.7874015748031497,
          "duration": 0.272727500000002
        },
        {
          "name": "F#2",
          "midi": 42,
          "time": 55.36368250000011,
          "velocity": 0.7874015748031497,
          "duration": 0.272727500000002
        },
        {
          "name": "A3",
          "midi": 57,
          "time": 55.63641000000011,
          "velocity": 0.7874015748031497,
          "duration": 0.136363750000001
        },
        {
          "name": "C2",
          "midi": 36,
          "time": 55.63641000000011,
          "velocity": 0.7874015748031497,
          "duration": 0.272727500000002
        },
        {
          "name": "D2",
          "midi": 38,
          "time": 55.909137500000114,
          "velocity": 0.7874015748031497,
          "duration": 0.136363750000001
        },
        {
          "name": "D2",
          "midi": 38,
          "time": 56.045501250000115,
          "velocity": 0.7874015748031497,
          "duration": 0.136363750000001
        },
        {
          "name": "D2",
          "midi": 38,
          "time": 56.181865000000116,
          "velocity": 0.7874015748031497,
          "duration": 0.136363750000001
        },
        {
          "name": "D2",
          "midi": 38,
          "time": 56.31822875000012,
          "velocity": 0.7874015748031497,
          "duration": 0.136363750000001
        },
        {
          "name": "D2",
          "midi": 38,
          "time": 56.45459250000012,
          "velocity": 0.7874015748031497,
          "duration": 0.136363750000001
        },
        {
          "name": "D2",
          "midi": 38,
          "time": 56.59095625000012,
          "velocity": 0.7874015748031497,
          "duration": 0.136363750000001
        },
        {
          "name": "A3",
          "midi": 57,
          "time": 56.72732000000012,
          "velocity": 0.7874015748031497,
          "duration": 0.272727500000002
        },
        {
          "name": "F#2",
          "midi": 42,
          "time": 56.72732000000012,
          "velocity": 0.7874015748031497,
          "duration": 0.272727500000002
        },
        {
          "name": "C2",
          "midi": 36,
          "time": 56.72732000000012,
          "velocity": 0.7874015748031497,
          "duration": 0.272727500000002
        },
        {
          "name": "F#2",
          "midi": 42,
          "time": 57.00004750000012,
          "velocity": 0.7874015748031497,
          "duration": 0.272727500000002
        },
        {
          "name": "F#2",
          "midi": 42,
          "time": 57.272775000000124,
          "velocity": 0.7874015748031497,
          "duration": 0.272727500000002
        },
        {
          "name": "D2",
          "midi": 38,
          "time": 57.272775000000124,
          "velocity": 0.7874015748031497,
          "duration": 0.272727500000002
        },
        {
          "name": "F#2",
          "midi": 42,
          "time": 57.545502500000126,
          "velocity": 0.7874015748031497,
          "duration": 0.272727500000002
        },
        {
          "name": "F#2",
          "midi": 42,
          "time": 57.81823000000013,
          "velocity": 0.7874015748031497,
          "duration": 0.272727500000002
        },
        {
          "name": "F#2",
          "midi": 42,
          "time": 58.09095750000013,
          "velocity": 0.7874015748031497,
          "duration": 0.272727500000002
        },
        {
          "name": "C2",
          "midi": 36,
          "time": 58.09095750000013,
          "velocity": 0.7874015748031497,
          "duration": 0.272727500000002
        },
        {
          "name": "F#2",
          "midi": 42,
          "time": 58.36368500000013,
          "velocity": 0.7874015748031497,
          "duration": 0.272727500000002
        },
        {
          "name": "D2",
          "midi": 38,
          "time": 58.36368500000013,
          "velocity": 0.7874015748031497,
          "duration": 0.272727500000002
        },
        {
          "name": "C2",
          "midi": 36,
          "time": 58.50004875000013,
          "velocity": 0.7874015748031497,
          "duration": 0.136363750000001
        },
        {
          "name": "F#2",
          "midi": 42,
          "time": 58.636412500000134,
          "velocity": 0.7874015748031497,
          "duration": 0.272727500000002
        },
        {
          "name": "A3",
          "midi": 57,
          "time": 58.909140000000136,
          "velocity": 0.7874015748031497,
          "duration": 0.272727500000002
        },
        {
          "name": "F#2",
          "midi": 42,
          "time": 58.909140000000136,
          "velocity": 0.7874015748031497,
          "duration": 0.272727500000002
        },
        {
          "name": "C2",
          "midi": 36,
          "time": 58.909140000000136,
          "velocity": 0.7874015748031497,
          "duration": 0.272727500000002
        },
        {
          "name": "F#2",
          "midi": 42,
          "time": 59.18186750000014,
          "velocity": 0.7874015748031497,
          "duration": 0.272727500000002
        },
        {
          "name": "F#2",
          "midi": 42,
          "time": 59.45459500000014,
          "velocity": 0.7874015748031497,
          "duration": 0.272727500000002
        },
        {
          "name": "D2",
          "midi": 38,
          "time": 59.45459500000014,
          "velocity": 0.7874015748031497,
          "duration": 0.272727500000002
        },
        {
          "name": "F#2",
          "midi": 42,
          "time": 59.72732250000014,
          "velocity": 0.7874015748031497,
          "duration": 0.272727500000002
        },
        {
          "name": "F#2",
          "midi": 42,
          "time": 60.000050000000144,
          "velocity": 0.7874015748031497,
          "duration": 0.272727500000002
        },
        {
          "name": "F#2",
          "midi": 42,
          "time": 60.272777500000146,
          "velocity": 0.7874015748031497,
          "duration": 0.272727500000002
        },
        {
          "name": "C2",
          "midi": 36,
          "time": 60.272777500000146,
          "velocity": 0.7874015748031497,
          "duration": 0.272727500000002
        },
        {
          "name": "F#2",
          "midi": 42,
          "time": 60.54550500000015,
          "velocity": 0.7874015748031497,
          "duration": 0.272727500000002
        },
        {
          "name": "D2",
          "midi": 38,
          "time": 60.54550500000015,
          "velocity": 0.7874015748031497,
          "duration": 0.272727500000002
        },
        {
          "name": "C2",
          "midi": 36,
          "time": 60.68186875000015,
          "velocity": 0.7874015748031497,
          "duration": 0.136363750000001
        },
        {
          "name": "F#2",
          "midi": 42,
          "time": 60.81823250000015,
          "velocity": 0.7874015748031497,
          "duration": 0.272727500000002
        },
        {
          "name": "A3",
          "midi": 57,
          "time": 61.09096000000015,
          "velocity": 0.7874015748031497,
          "duration": 0.272727500000002
        },
        {
          "name": "F#2",
          "midi": 42,
          "time": 61.09096000000015,
          "velocity": 0.7874015748031497,
          "duration": 0.272727500000002
        },
        {
          "name": "C2",
          "midi": 36,
          "time": 61.09096000000015,
          "velocity": 0.7874015748031497,
          "duration": 0.272727500000002
        },
        {
          "name": "F#2",
          "midi": 42,
          "time": 61.363687500000154,
          "velocity": 0.7874015748031497,
          "duration": 0.272727500000002
        },
        {
          "name": "F#2",
          "midi": 42,
          "time": 61.636415000000156,
          "velocity": 0.7874015748031497,
          "duration": 0.272727500000002
        },
        {
          "name": "D2",
          "midi": 38,
          "time": 61.636415000000156,
          "velocity": 0.7874015748031497,
          "duration": 0.272727500000002
        },
        {
          "name": "F#2",
          "midi": 42,
          "time": 61.90914250000016,
          "velocity": 0.7874015748031497,
          "duration": 0.272727500000002
        },
        {
          "name": "F#2",
          "midi": 42,
          "time": 62.18187000000016,
          "velocity": 0.7874015748031497,
          "duration": 0.272727500000002
        },
        {
          "name": "F#2",
          "midi": 42,
          "time": 62.45459750000016,
          "velocity": 0.7874015748031497,
          "duration": 0.272727500000002
        },
        {
          "name": "C2",
          "midi": 36,
          "time": 62.45459750000016,
          "velocity": 0.7874015748031497,
          "duration": 0.272727500000002
        },
        {
          "name": "F#2",
          "midi": 42,
          "time": 62.727325000000164,
          "velocity": 0.7874015748031497,
          "duration": 0.272727500000002
        },
        {
          "name": "D2",
          "midi": 38,
          "time": 62.727325000000164,
          "velocity": 0.7874015748031497,
          "duration": 0.272727500000002
        },
        {
          "name": "C2",
          "midi": 36,
          "time": 62.863688750000165,
          "velocity": 0.7874015748031497,
          "duration": 0.136363750000001
        },
        {
          "name": "F#2",
          "midi": 42,
          "time": 63.000052500000166,
          "velocity": 0.7874015748031497,
          "duration": 0.272727500000002
        },
        {
          "name": "A3",
          "midi": 57,
          "time": 63.27278000000017,
          "velocity": 0.7874015748031497,
          "duration": 0.272727500000002
        },
        {
          "name": "F#2",
          "midi": 42,
          "time": 63.27278000000017,
          "velocity": 0.7874015748031497,
          "duration": 0.272727500000002
        },
        {
          "name": "C2",
          "midi": 36,
          "time": 63.27278000000017,
          "velocity": 0.7874015748031497,
          "duration": 0.272727500000002
        },
        {
          "name": "F#2",
          "midi": 42,
          "time": 63.54550750000017,
          "velocity": 0.7874015748031497,
          "duration": 0.272727500000002
        },
        {
          "name": "F#2",
          "midi": 42,
          "time": 63.81823500000017,
          "velocity": 0.7874015748031497,
          "duration": 0.272727500000002
        },
        {
          "name": "D2",
          "midi": 38,
          "time": 63.81823500000017,
          "velocity": 0.7874015748031497,
          "duration": 0.272727500000002
        },
        {
          "name": "F#2",
          "midi": 42,
          "time": 64.09096250000017,
          "velocity": 0.7874015748031497,
          "duration": 0.272727500000002
        },
        {
          "name": "F#2",
          "midi": 42,
          "time": 64.36369000000018,
          "velocity": 0.7874015748031497,
          "duration": 0.272727500000002
        },
        {
          "name": "F#2",
          "midi": 42,
          "time": 64.63641750000018,
          "velocity": 0.7874015748031497,
          "duration": 0.272727500000002
        },
        {
          "name": "C2",
          "midi": 36,
          "time": 64.63641750000018,
          "velocity": 0.7874015748031497,
          "duration": 0.272727500000002
        },
        {
          "name": "F#2",
          "midi": 42,
          "time": 64.90914500000018,
          "velocity": 0.7874015748031497,
          "duration": 0.272727500000002
        },
        {
          "name": "D2",
          "midi": 38,
          "time": 64.90914500000018,
          "velocity": 0.7874015748031497,
          "duration": 0.272727500000002
        },
        {
          "name": "C2",
          "midi": 36,
          "time": 65.04550875000018,
          "velocity": 0.7874015748031497,
          "duration": 0.136363750000001
        },
        {
          "name": "F#2",
          "midi": 42,
          "time": 65.18187250000018,
          "velocity": 0.7874015748031497,
          "duration": 0.272727500000002
        },
        {
          "name": "A3",
          "midi": 57,
          "time": 65.45460000000018,
          "velocity": 0.7874015748031497,
          "duration": 0.272727500000002
        },
        {
          "name": "F#2",
          "midi": 42,
          "time": 65.45460000000018,
          "velocity": 0.7874015748031497,
          "duration": 0.272727500000002
        },
        {
          "name": "C2",
          "midi": 36,
          "time": 65.45460000000018,
          "velocity": 0.7874015748031497,
          "duration": 0.272727500000002
        },
        {
          "name": "F#2",
          "midi": 42,
          "time": 65.72732750000019,
          "velocity": 0.7874015748031497,
          "duration": 0.272727500000002
        },
        {
          "name": "F#2",
          "midi": 42,
          "time": 66.00005500000019,
          "velocity": 0.7874015748031497,
          "duration": 0.272727500000002
        },
        {
          "name": "D2",
          "midi": 38,
          "time": 66.00005500000019,
          "velocity": 0.7874015748031497,
          "duration": 0.272727500000002
        },
        {
          "name": "F#2",
          "midi": 42,
          "time": 66.27278250000019,
          "velocity": 0.7874015748031497,
          "duration": 0.272727500000002
        },
        {
          "name": "F#2",
          "midi": 42,
          "time": 66.54551000000019,
          "velocity": 0.7874015748031497,
          "duration": 0.272727500000002
        },
        {
          "name": "F#2",
          "midi": 42,
          "time": 66.8182375000002,
          "velocity": 0.7874015748031497,
          "duration": 0.272727500000002
        },
        {
          "name": "C2",
          "midi": 36,
          "time": 66.8182375000002,
          "velocity": 0.7874015748031497,
          "duration": 0.272727500000002
        },
        {
          "name": "F#2",
          "midi": 42,
          "time": 67.0909650000002,
          "velocity": 0.7874015748031497,
          "duration": 0.272727500000002
        },
        {
          "name": "D2",
          "midi": 38,
          "time": 67.0909650000002,
          "velocity": 0.7874015748031497,
          "duration": 0.272727500000002
        },
        {
          "name": "C2",
          "midi": 36,
          "time": 67.2273287500002,
          "velocity": 0.7874015748031497,
          "duration": 0.136363750000001
        },
        {
          "name": "F#2",
          "midi": 42,
          "time": 67.3636925000002,
          "velocity": 0.7874015748031497,
          "duration": 0.272727500000002
        },
        {
          "name": "A3",
          "midi": 57,
          "time": 67.6364200000002,
          "velocity": 0.7874015748031497,
          "duration": 0.272727500000002
        },
        {
          "name": "F#2",
          "midi": 42,
          "time": 67.6364200000002,
          "velocity": 0.7874015748031497,
          "duration": 0.272727500000002
        },
        {
          "name": "C2",
          "midi": 36,
          "time": 67.6364200000002,
          "velocity": 0.7874015748031497,
          "duration": 0.272727500000002
        },
        {
          "name": "F#2",
          "midi": 42,
          "time": 67.9091475000002,
          "velocity": 0.7874015748031497,
          "duration": 0.272727500000002
        },
        {
          "name": "F#2",
          "midi": 42,
          "time": 68.1818750000002,
          "velocity": 0.7874015748031497,
          "duration": 0.272727500000002
        },
        {
          "name": "D2",
          "midi": 38,
          "time": 68.1818750000002,
          "velocity": 0.7874015748031497,
          "duration": 0.272727500000002
        },
        {
          "name": "F#2",
          "midi": 42,
          "time": 68.4546025000002,
          "velocity": 0.7874015748031497,
          "duration": 0.272727500000002
        },
        {
          "name": "F#2",
          "midi": 42,
          "time": 68.72733000000021,
          "velocity": 0.7874015748031497,
          "duration": 0.272727500000002
        },
        {
          "name": "F#2",
          "midi": 42,
          "time": 69.00005750000021,
          "velocity": 0.7874015748031497,
          "duration": 0.272727500000002
        },
        {
          "name": "C2",
          "midi": 36,
          "time": 69.00005750000021,
          "velocity": 0.7874015748031497,
          "duration": 0.272727500000002
        },
        {
          "name": "F#2",
          "midi": 42,
          "time": 69.27278500000021,
          "velocity": 0.7874015748031497,
          "duration": 0.272727500000002
        },
        {
          "name": "D2",
          "midi": 38,
          "time": 69.27278500000021,
          "velocity": 0.7874015748031497,
          "duration": 0.272727500000002
        },
        {
          "name": "C2",
          "midi": 36,
          "time": 69.40914875000021,
          "velocity": 0.7874015748031497,
          "duration": 0.136363750000001
        },
        {
          "name": "F#2",
          "midi": 42,
          "time": 69.54551250000021,
          "velocity": 0.7874015748031497,
          "duration": 0.272727500000002
        },
        {
          "name": "A3",
          "midi": 57,
          "time": 69.81824000000022,
          "velocity": 0.7874015748031497,
          "duration": 0.272727500000002
        },
        {
          "name": "F#2",
          "midi": 42,
          "time": 69.81824000000022,
          "velocity": 0.7874015748031497,
          "duration": 0.272727500000002
        },
        {
          "name": "C2",
          "midi": 36,
          "time": 69.81824000000022,
          "velocity": 0.7874015748031497,
          "duration": 0.272727500000002
        },
        {
          "name": "F#2",
          "midi": 42,
          "time": 70.09096750000022,
          "velocity": 0.7874015748031497,
          "duration": 0.272727500000002
        },
        {
          "name": "F#2",
          "midi": 42,
          "time": 70.36369500000022,
          "velocity": 0.7874015748031497,
          "duration": 0.272727500000002
        },
        {
          "name": "D2",
          "midi": 38,
          "time": 70.36369500000022,
          "velocity": 0.7874015748031497,
          "duration": 0.272727500000002
        },
        {
          "name": "F#2",
          "midi": 42,
          "time": 70.63642250000022,
          "velocity": 0.7874015748031497,
          "duration": 0.272727500000002
        },
        {
          "name": "F#2",
          "midi": 42,
          "time": 70.90915000000022,
          "velocity": 0.7874015748031497,
          "duration": 0.272727500000002
        },
        {
          "name": "F#2",
          "midi": 42,
          "time": 71.18187750000023,
          "velocity": 0.7874015748031497,
          "duration": 0.272727500000002
        },
        {
          "name": "C2",
          "midi": 36,
          "time": 71.18187750000023,
          "velocity": 0.7874015748031497,
          "duration": 0.272727500000002
        },
        {
          "name": "F#2",
          "midi": 42,
          "time": 71.45460500000023,
          "velocity": 0.7874015748031497,
          "duration": 0.272727500000002
        },
        {
          "name": "D2",
          "midi": 38,
          "time": 71.45460500000023,
          "velocity": 0.7874015748031497,
          "duration": 0.272727500000002
        },
        {
          "name": "C2",
          "midi": 36,
          "time": 71.59096875000023,
          "velocity": 0.7874015748031497,
          "duration": 0.136363750000001
        },
        {
          "name": "F#2",
          "midi": 42,
          "time": 71.72733250000023,
          "velocity": 0.7874015748031497,
          "duration": 0.272727500000002
        },
        {
          "name": "A3",
          "midi": 57,
          "time": 72.00006000000023,
          "velocity": 0.7874015748031497,
          "duration": 0.272727500000002
        },
        {
          "name": "F#2",
          "midi": 42,
          "time": 72.00006000000023,
          "velocity": 0.7874015748031497,
          "duration": 0.272727500000002
        },
        {
          "name": "C2",
          "midi": 36,
          "time": 72.00006000000023,
          "velocity": 0.7874015748031497,
          "duration": 0.272727500000002
        },
        {
          "name": "F#2",
          "midi": 42,
          "time": 72.27278750000023,
          "velocity": 0.7874015748031497,
          "duration": 0.272727500000002
        },
        {
          "name": "F#2",
          "midi": 42,
          "time": 72.54551500000024,
          "velocity": 0.7874015748031497,
          "duration": 0.272727500000002
        },
        {
          "name": "D2",
          "midi": 38,
          "time": 72.54551500000024,
          "velocity": 0.7874015748031497,
          "duration": 0.272727500000002
        },
        {
          "name": "F#2",
          "midi": 42,
          "time": 72.81824250000024,
          "velocity": 0.7874015748031497,
          "duration": 0.272727500000002
        },
        {
          "name": "F#2",
          "midi": 42,
          "time": 73.09097000000024,
          "velocity": 0.7874015748031497,
          "duration": 0.272727500000002
        },
        {
          "name": "F#2",
          "midi": 42,
          "time": 73.36369750000024,
          "velocity": 0.7874015748031497,
          "duration": 0.272727500000002
        },
        {
          "name": "C2",
          "midi": 36,
          "time": 73.36369750000024,
          "velocity": 0.7874015748031497,
          "duration": 0.272727500000002
        },
        {
          "name": "F#2",
          "midi": 42,
          "time": 73.63642500000024,
          "velocity": 0.7874015748031497,
          "duration": 0.272727500000002
        },
        {
          "name": "D2",
          "midi": 38,
          "time": 73.63642500000024,
          "velocity": 0.7874015748031497,
          "duration": 0.272727500000002
        },
        {
          "name": "C2",
          "midi": 36,
          "time": 73.77278875000025,
          "velocity": 0.7874015748031497,
          "duration": 0.136363750000001
        },
        {
          "name": "F#2",
          "midi": 42,
          "time": 73.90915250000025,
          "velocity": 0.7874015748031497,
          "duration": 0.272727500000002
        },
        {
          "name": "A#2",
          "midi": 46,
          "time": 74.18188000000025,
          "velocity": 0.7874015748031497,
          "duration": 0.545455000000004
        },
        {
          "name": "C2",
          "midi": 36,
          "time": 74.18188000000025,
          "velocity": 0.7874015748031497,
          "duration": 0.545455000000004
        },
        {
          "name": "F#2",
          "midi": 42,
          "time": 74.45460750000025,
          "velocity": 0.7874015748031497,
          "duration": 0.272727500000002
        },
        {
          "name": "F#2",
          "midi": 42,
          "time": 74.72733500000025,
          "velocity": 0.7874015748031497,
          "duration": 0.272727500000002
        },
        {
          "name": "D2",
          "midi": 38,
          "time": 74.72733500000025,
          "velocity": 0.7874015748031497,
          "duration": 0.545455000000004
        },
        {
          "name": "F#2",
          "midi": 42,
          "time": 75.00006250000025,
          "velocity": 0.7874015748031497,
          "duration": 0.272727500000002
        },
        {
          "name": "C2",
          "midi": 36,
          "time": 75.13642625000026,
          "velocity": 0.7874015748031497,
          "duration": 0.136363750000001
        },
        {
          "name": "F#2",
          "midi": 42,
          "time": 75.27279000000026,
          "velocity": 0.7874015748031497,
          "duration": 0.272727500000002
        },
        {
          "name": "C2",
          "midi": 36,
          "time": 75.27279000000026,
          "velocity": 0.7874015748031497,
          "duration": 0.136363750000001
        },
        {
          "name": "F#2",
          "midi": 42,
          "time": 75.54551750000026,
          "velocity": 0.7874015748031497,
          "duration": 0.272727500000002
        },
        {
          "name": "C2",
          "midi": 36,
          "time": 75.54551750000026,
          "velocity": 0.7874015748031497,
          "duration": 0.272727500000002
        },
        {
          "name": "F#2",
          "midi": 42,
          "time": 75.81824500000026,
          "velocity": 0.7874015748031497,
          "duration": 0.272727500000002
        },
        {
          "name": "D2",
          "midi": 38,
          "time": 75.81824500000026,
          "velocity": 0.7874015748031497,
          "duration": 0.272727500000002
        },
        {
          "name": "F#2",
          "midi": 42,
          "time": 76.09097250000026,
          "velocity": 0.7874015748031497,
          "duration": 0.272727500000002
        },
        {
          "name": "A#2",
          "midi": 46,
          "time": 76.36370000000026,
          "velocity": 0.7874015748031497,
          "duration": 0.545455000000004
        },
        {
          "name": "C2",
          "midi": 36,
          "time": 76.36370000000026,
          "velocity": 0.7874015748031497,
          "duration": 0.545455000000004
        },
        {
          "name": "F#2",
          "midi": 42,
          "time": 76.63642750000027,
          "velocity": 0.7874015748031497,
          "duration": 0.272727500000002
        },
        {
          "name": "F#2",
          "midi": 42,
          "time": 76.90915500000027,
          "velocity": 0.7874015748031497,
          "duration": 0.272727500000002
        },
        {
          "name": "D2",
          "midi": 38,
          "time": 76.90915500000027,
          "velocity": 0.7874015748031497,
          "duration": 0.545455000000004
        },
        {
          "name": "F#2",
          "midi": 42,
          "time": 77.18188250000027,
          "velocity": 0.7874015748031497,
          "duration": 0.272727500000002
        },
        {
          "name": "C2",
          "midi": 36,
          "time": 77.31824625000027,
          "velocity": 0.7874015748031497,
          "duration": 0.136363750000001
        },
        {
          "name": "F#2",
          "midi": 42,
          "time": 77.45461000000027,
          "velocity": 0.7874015748031497,
          "duration": 0.272727500000002
        },
        {
          "name": "C2",
          "midi": 36,
          "time": 77.45461000000027,
          "velocity": 0.7874015748031497,
          "duration": 0.136363750000001
        },
        {
          "name": "F#2",
          "midi": 42,
          "time": 77.72733750000027,
          "velocity": 0.7874015748031497,
          "duration": 0.272727500000002
        },
        {
          "name": "C2",
          "midi": 36,
          "time": 77.72733750000027,
          "velocity": 0.7874015748031497,
          "duration": 0.272727500000002
        },
        {
          "name": "F#2",
          "midi": 42,
          "time": 78.00006500000028,
          "velocity": 0.7874015748031497,
          "duration": 0.272727500000002
        },
        {
          "name": "D2",
          "midi": 38,
          "time": 78.00006500000028,
          "velocity": 0.7874015748031497,
          "duration": 0.272727500000002
        },
        {
          "name": "F#2",
          "midi": 42,
          "time": 78.27279250000028,
          "velocity": 0.7874015748031497,
          "duration": 0.272727500000002
        },
        {
          "name": "A#2",
          "midi": 46,
          "time": 78.54552000000028,
          "velocity": 0.7874015748031497,
          "duration": 0.545455000000004
        },
        {
          "name": "C2",
          "midi": 36,
          "time": 78.54552000000028,
          "velocity": 0.7874015748031497,
          "duration": 0.545455000000004
        },
        {
          "name": "F#2",
          "midi": 42,
          "time": 78.81824750000028,
          "velocity": 0.7874015748031497,
          "duration": 0.272727500000002
        },
        {
          "name": "F#2",
          "midi": 42,
          "time": 79.09097500000028,
          "velocity": 0.7874015748031497,
          "duration": 0.272727500000002
        },
        {
          "name": "D2",
          "midi": 38,
          "time": 79.09097500000028,
          "velocity": 0.7874015748031497,
          "duration": 0.545455000000004
        },
        {
          "name": "F#2",
          "midi": 42,
          "time": 79.36370250000029,
          "velocity": 0.7874015748031497,
          "duration": 0.272727500000002
        },
        {
          "name": "C2",
          "midi": 36,
          "time": 79.50006625000029,
          "velocity": 0.7874015748031497,
          "duration": 0.136363750000001
        },
        {
          "name": "F#2",
          "midi": 42,
          "time": 79.63643000000029,
          "velocity": 0.7874015748031497,
          "duration": 0.272727500000002
        },
        {
          "name": "C2",
          "midi": 36,
          "time": 79.63643000000029,
          "velocity": 0.7874015748031497,
          "duration": 0.136363750000001
        },
        {
          "name": "F#2",
          "midi": 42,
          "time": 79.90915750000029,
          "velocity": 0.7874015748031497,
          "duration": 0.272727500000002
        },
        {
          "name": "C2",
          "midi": 36,
          "time": 79.90915750000029,
          "velocity": 0.7874015748031497,
          "duration": 0.272727500000002
        },
        {
          "name": "F#2",
          "midi": 42,
          "time": 80.18188500000029,
          "velocity": 0.7874015748031497,
          "duration": 0.272727500000002
        },
        {
          "name": "D2",
          "midi": 38,
          "time": 80.18188500000029,
          "velocity": 0.7874015748031497,
          "duration": 0.272727500000002
        },
        {
          "name": "F#2",
          "midi": 42,
          "time": 80.4546125000003,
          "velocity": 0.7874015748031497,
          "duration": 0.272727500000002
        },
        {
          "name": "A#2",
          "midi": 46,
          "time": 80.7273400000003,
          "velocity": 0.7874015748031497,
          "duration": 0.545455000000004
        },
        {
          "name": "C2",
          "midi": 36,
          "time": 80.7273400000003,
          "velocity": 0.7874015748031497,
          "duration": 0.545455000000004
        },
        {
          "name": "F#2",
          "midi": 42,
          "time": 81.0000675000003,
          "velocity": 0.7874015748031497,
          "duration": 0.272727500000002
        },
        {
          "name": "F#2",
          "midi": 42,
          "time": 81.2727950000003,
          "velocity": 0.7874015748031497,
          "duration": 0.272727500000002
        },
        {
          "name": "D2",
          "midi": 38,
          "time": 81.2727950000003,
          "velocity": 0.7874015748031497,
          "duration": 0.545455000000004
        },
        {
          "name": "F#2",
          "midi": 42,
          "time": 81.5455225000003,
          "velocity": 0.7874015748031497,
          "duration": 0.272727500000002
        },
        {
          "name": "C2",
          "midi": 36,
          "time": 81.6818862500003,
          "velocity": 0.7874015748031497,
          "duration": 0.136363750000001
        },
        {
          "name": "F#2",
          "midi": 42,
          "time": 81.8182500000003,
          "velocity": 0.7874015748031497,
          "duration": 0.272727500000002
        },
        {
          "name": "C2",
          "midi": 36,
          "time": 81.8182500000003,
          "velocity": 0.7874015748031497,
          "duration": 0.136363750000001
        },
        {
          "name": "A#2",
          "midi": 46,
          "time": 82.0909775000003,
          "velocity": 0.7874015748031497,
          "duration": 0.272727500000002
        },
        {
          "name": "D2",
          "midi": 38,
          "time": 82.0909775000003,
          "velocity": 0.7874015748031497,
          "duration": 0.272727500000002
        },
        {
          "name": "D2",
          "midi": 38,
          "time": 82.63643250000031,
          "velocity": 0.7874015748031497,
          "duration": 0.272727500000002
        },
        {
          "name": "F#2",
          "midi": 42,
          "time": 82.63643250000031,
          "velocity": 0.7874015748031497,
          "duration": 0.272727500000002
        },
        {
          "name": "A3",
          "midi": 57,
          "time": 82.90916000000031,
          "velocity": 0.7874015748031497,
          "duration": 0.272727500000002
        },
        {
          "name": "F#2",
          "midi": 42,
          "time": 82.90916000000031,
          "velocity": 0.7874015748031497,
          "duration": 0.272727500000002
        },
        {
          "name": "C2",
          "midi": 36,
          "time": 82.90916000000031,
          "velocity": 0.7874015748031497,
          "duration": 0.272727500000002
        },
        {
          "name": "F#2",
          "midi": 42,
          "time": 83.18188750000031,
          "velocity": 0.7874015748031497,
          "duration": 0.272727500000002
        },
        {
          "name": "F#2",
          "midi": 42,
          "time": 83.45461500000032,
          "velocity": 0.7874015748031497,
          "duration": 0.272727500000002
        },
        {
          "name": "D2",
          "midi": 38,
          "time": 83.45461500000032,
          "velocity": 0.7874015748031497,
          "duration": 0.272727500000002
        },
        {
          "name": "F#2",
          "midi": 42,
          "time": 83.72734250000032,
          "velocity": 0.7874015748031497,
          "duration": 0.272727500000002
        },
        {
          "name": "F#2",
          "midi": 42,
          "time": 84.00007000000032,
          "velocity": 0.7874015748031497,
          "duration": 0.272727500000002
        },
        {
          "name": "F#2",
          "midi": 42,
          "time": 84.27279750000032,
          "velocity": 0.7874015748031497,
          "duration": 0.272727500000002
        },
        {
          "name": "C2",
          "midi": 36,
          "time": 84.27279750000032,
          "velocity": 0.7874015748031497,
          "duration": 0.272727500000002
        },
        {
          "name": "F#2",
          "midi": 42,
          "time": 84.54552500000032,
          "velocity": 0.7874015748031497,
          "duration": 0.272727500000002
        },
        {
          "name": "D2",
          "midi": 38,
          "time": 84.54552500000032,
          "velocity": 0.7874015748031497,
          "duration": 0.272727500000002
        },
        {
          "name": "C2",
          "midi": 36,
          "time": 84.68188875000033,
          "velocity": 0.7874015748031497,
          "duration": 0.136363750000001
        },
        {
          "name": "F#2",
          "midi": 42,
          "time": 84.81825250000033,
          "velocity": 0.7874015748031497,
          "duration": 0.272727500000002
        },
        {
          "name": "F#2",
          "midi": 42,
          "time": 85.09098000000033,
          "velocity": 0.7874015748031497,
          "duration": 0.272727500000002
        },
        {
          "name": "C2",
          "midi": 36,
          "time": 85.09098000000033,
          "velocity": 0.7874015748031497,
          "duration": 0.272727500000002
        },
        {
          "name": "F#2",
          "midi": 42,
          "time": 85.36370750000033,
          "velocity": 0.7874015748031497,
          "duration": 0.272727500000002
        },
        {
          "name": "F#2",
          "midi": 42,
          "time": 85.63643500000033,
          "velocity": 0.7874015748031497,
          "duration": 0.272727500000002
        },
        {
          "name": "D2",
          "midi": 38,
          "time": 85.63643500000033,
          "velocity": 0.7874015748031497,
          "duration": 0.272727500000002
        },
        {
          "name": "F#2",
          "midi": 42,
          "time": 85.90916250000033,
          "velocity": 0.7874015748031497,
          "duration": 0.272727500000002
        },
        {
          "name": "F#2",
          "midi": 42,
          "time": 86.18189000000034,
          "velocity": 0.7874015748031497,
          "duration": 0.272727500000002
        },
        {
          "name": "F#2",
          "midi": 42,
          "time": 86.45461750000034,
          "velocity": 0.7874015748031497,
          "duration": 0.272727500000002
        },
        {
          "name": "C2",
          "midi": 36,
          "time": 86.45461750000034,
          "velocity": 0.7874015748031497,
          "duration": 0.272727500000002
        },
        {
          "name": "F#2",
          "midi": 42,
          "time": 86.72734500000034,
          "velocity": 0.7874015748031497,
          "duration": 0.272727500000002
        },
        {
          "name": "D2",
          "midi": 38,
          "time": 86.72734500000034,
          "velocity": 0.7874015748031497,
          "duration": 0.272727500000002
        },
        {
          "name": "C2",
          "midi": 36,
          "time": 86.86370875000034,
          "velocity": 0.7874015748031497,
          "duration": 0.136363750000001
        },
        {
          "name": "F#2",
          "midi": 42,
          "time": 87.00007250000034,
          "velocity": 0.7874015748031497,
          "duration": 0.272727500000002
        },
        {
          "name": "F#2",
          "midi": 42,
          "time": 87.27280000000034,
          "velocity": 0.7874015748031497,
          "duration": 0.272727500000002
        },
        {
          "name": "C2",
          "midi": 36,
          "time": 87.27280000000034,
          "velocity": 0.7874015748031497,
          "duration": 0.272727500000002
        },
        {
          "name": "F#2",
          "midi": 42,
          "time": 87.54552750000035,
          "velocity": 0.7874015748031497,
          "duration": 0.272727500000002
        },
        {
          "name": "F#2",
          "midi": 42,
          "time": 87.81825500000035,
          "velocity": 0.7874015748031497,
          "duration": 0.272727500000002
        },
        {
          "name": "D2",
          "midi": 38,
          "time": 87.81825500000035,
          "velocity": 0.7874015748031497,
          "duration": 0.272727500000002
        },
        {
          "name": "F#2",
          "midi": 42,
          "time": 88.09098250000035,
          "velocity": 0.7874015748031497,
          "duration": 0.272727500000002
        },
        {
          "name": "F#2",
          "midi": 42,
          "time": 88.36371000000035,
          "velocity": 0.7874015748031497,
          "duration": 0.272727500000002
        },
        {
          "name": "F#2",
          "midi": 42,
          "time": 88.63643750000035,
          "velocity": 0.7874015748031497,
          "duration": 0.272727500000002
        },
        {
          "name": "C2",
          "midi": 36,
          "time": 88.63643750000035,
          "velocity": 0.7874015748031497,
          "duration": 0.272727500000002
        },
        {
          "name": "F#2",
          "midi": 42,
          "time": 88.90916500000036,
          "velocity": 0.7874015748031497,
          "duration": 0.272727500000002
        },
        {
          "name": "D2",
          "midi": 38,
          "time": 88.90916500000036,
          "velocity": 0.7874015748031497,
          "duration": 0.272727500000002
        },
        {
          "name": "C2",
          "midi": 36,
          "time": 89.04552875000036,
          "velocity": 0.7874015748031497,
          "duration": 0.136363750000001
        },
        {
          "name": "F#2",
          "midi": 42,
          "time": 89.18189250000036,
          "velocity": 0.7874015748031497,
          "duration": 0.272727500000002
        },
        {
          "name": "F#2",
          "midi": 42,
          "time": 89.45462000000036,
          "velocity": 0.7874015748031497,
          "duration": 0.272727500000002
        },
        {
          "name": "C2",
          "midi": 36,
          "time": 89.45462000000036,
          "velocity": 0.7874015748031497,
          "duration": 0.272727500000002
        },
        {
          "name": "F#2",
          "midi": 42,
          "time": 89.72734750000036,
          "velocity": 0.7874015748031497,
          "duration": 0.272727500000002
        },
        {
          "name": "F#2",
          "midi": 42,
          "time": 90.00007500000036,
          "velocity": 0.7874015748031497,
          "duration": 0.272727500000002
        },
        {
          "name": "D2",
          "midi": 38,
          "time": 90.00007500000036,
          "velocity": 0.7874015748031497,
          "duration": 0.272727500000002
        },
        {
          "name": "F#2",
          "midi": 42,
          "time": 90.27280250000037,
          "velocity": 0.7874015748031497,
          "duration": 0.272727500000002
        },
        {
          "name": "F#2",
          "midi": 42,
          "time": 90.54553000000037,
          "velocity": 0.7874015748031497,
          "duration": 0.272727500000002
        },
        {
          "name": "F#2",
          "midi": 42,
          "time": 90.81825750000037,
          "velocity": 0.7874015748031497,
          "duration": 0.272727500000002
        },
        {
          "name": "C2",
          "midi": 36,
          "time": 90.81825750000037,
          "velocity": 0.7874015748031497,
          "duration": 0.272727500000002
        },
        {
          "name": "F#2",
          "midi": 42,
          "time": 91.09098500000037,
          "velocity": 0.7874015748031497,
          "duration": 0.272727500000002
        },
        {
          "name": "D2",
          "midi": 38,
          "time": 91.09098500000037,
          "velocity": 0.7874015748031497,
          "duration": 0.272727500000002
        },
        {
          "name": "C2",
          "midi": 36,
          "time": 91.22734875000037,
          "velocity": 0.7874015748031497,
          "duration": 0.136363750000001
        },
        {
          "name": "F#2",
          "midi": 42,
          "time": 91.36371250000037,
          "velocity": 0.7874015748031497,
          "duration": 0.272727500000002
        },
        {
          "name": "F#2",
          "midi": 42,
          "time": 91.63644000000038,
          "velocity": 0.7874015748031497,
          "duration": 0.272727500000002
        },
        {
          "name": "C2",
          "midi": 36,
          "time": 91.63644000000038,
          "velocity": 0.7874015748031497,
          "duration": 0.272727500000002
        },
        {
          "name": "F#2",
          "midi": 42,
          "time": 91.90916750000038,
          "velocity": 0.7874015748031497,
          "duration": 0.272727500000002
        },
        {
          "name": "F#2",
          "midi": 42,
          "time": 92.18189500000038,
          "velocity": 0.7874015748031497,
          "duration": 0.272727500000002
        },
        {
          "name": "D2",
          "midi": 38,
          "time": 92.18189500000038,
          "velocity": 0.7874015748031497,
          "duration": 0.272727500000002
        },
        {
          "name": "F#2",
          "midi": 42,
          "time": 92.45462250000038,
          "velocity": 0.7874015748031497,
          "duration": 0.272727500000002
        },
        {
          "name": "F#2",
          "midi": 42,
          "time": 92.72735000000038,
          "velocity": 0.7874015748031497,
          "duration": 0.272727500000002
        },
        {
          "name": "F#2",
          "midi": 42,
          "time": 93.00007750000039,
          "velocity": 0.7874015748031497,
          "duration": 0.272727500000002
        },
        {
          "name": "C2",
          "midi": 36,
          "time": 93.00007750000039,
          "velocity": 0.7874015748031497,
          "duration": 0.272727500000002
        },
        {
          "name": "F#2",
          "midi": 42,
          "time": 93.27280500000039,
          "velocity": 0.7874015748031497,
          "duration": 0.272727500000002
        },
        {
          "name": "D2",
          "midi": 38,
          "time": 93.27280500000039,
          "velocity": 0.7874015748031497,
          "duration": 0.272727500000002
        },
        {
          "name": "C2",
          "midi": 36,
          "time": 93.40916875000039,
          "velocity": 0.7874015748031497,
          "duration": 0.136363750000001
        },
        {
          "name": "F#2",
          "midi": 42,
          "time": 93.54553250000039,
          "velocity": 0.7874015748031497,
          "duration": 0.272727500000002
        },
        {
          "name": "F#2",
          "midi": 42,
          "time": 93.8182600000004,
          "velocity": 0.7874015748031497,
          "duration": 0.272727500000002
        },
        {
          "name": "C2",
          "midi": 36,
          "time": 93.8182600000004,
          "velocity": 0.7874015748031497,
          "duration": 0.272727500000002
        },
        {
          "name": "F#2",
          "midi": 42,
          "time": 94.0909875000004,
          "velocity": 0.7874015748031497,
          "duration": 0.272727500000002
        },
        {
          "name": "F#2",
          "midi": 42,
          "time": 94.3637150000004,
          "velocity": 0.7874015748031497,
          "duration": 0.272727500000002
        },
        {
          "name": "D2",
          "midi": 38,
          "time": 94.3637150000004,
          "velocity": 0.7874015748031497,
          "duration": 0.272727500000002
        },
        {
          "name": "F#2",
          "midi": 42,
          "time": 94.6364425000004,
          "velocity": 0.7874015748031497,
          "duration": 0.272727500000002
        },
        {
          "name": "F#2",
          "midi": 42,
          "time": 94.9091700000004,
          "velocity": 0.7874015748031497,
          "duration": 0.272727500000002
        },
        {
          "name": "F#2",
          "midi": 42,
          "time": 95.1818975000004,
          "velocity": 0.7874015748031497,
          "duration": 0.272727500000002
        },
        {
          "name": "C2",
          "midi": 36,
          "time": 95.1818975000004,
          "velocity": 0.7874015748031497,
          "duration": 0.272727500000002
        },
        {
          "name": "F#2",
          "midi": 42,
          "time": 95.4546250000004,
          "velocity": 0.7874015748031497,
          "duration": 0.272727500000002
        },
        {
          "name": "D2",
          "midi": 38,
          "time": 95.4546250000004,
          "velocity": 0.7874015748031497,
          "duration": 0.272727500000002
        },
        {
          "name": "C2",
          "midi": 36,
          "time": 95.5909887500004,
          "velocity": 0.7874015748031497,
          "duration": 0.136363750000001
        },
        {
          "name": "F#2",
          "midi": 42,
          "time": 95.7273525000004,
          "velocity": 0.7874015748031497,
          "duration": 0.272727500000002
        },
        {
          "name": "F#2",
          "midi": 42,
          "time": 96.00008000000041,
          "velocity": 0.7874015748031497,
          "duration": 0.272727500000002
        },
        {
          "name": "C2",
          "midi": 36,
          "time": 96.00008000000041,
          "velocity": 0.7874015748031497,
          "duration": 0.272727500000002
        },
        {
          "name": "F#2",
          "midi": 42,
          "time": 96.27280750000041,
          "velocity": 0.7874015748031497,
          "duration": 0.272727500000002
        },
        {
          "name": "F#2",
          "midi": 42,
          "time": 96.54553500000041,
          "velocity": 0.7874015748031497,
          "duration": 0.272727500000002
        },
        {
          "name": "D2",
          "midi": 38,
          "time": 96.54553500000041,
          "velocity": 0.7874015748031497,
          "duration": 0.272727500000002
        },
        {
          "name": "F#2",
          "midi": 42,
          "time": 96.81826250000042,
          "velocity": 0.7874015748031497,
          "duration": 0.272727500000002
        },
        {
          "name": "F#2",
          "midi": 42,
          "time": 97.09099000000042,
          "velocity": 0.7874015748031497,
          "duration": 0.272727500000002
        },
        {
          "name": "F#2",
          "midi": 42,
          "time": 97.36371750000042,
          "velocity": 0.7874015748031497,
          "duration": 0.272727500000002
        },
        {
          "name": "C2",
          "midi": 36,
          "time": 97.36371750000042,
          "velocity": 0.7874015748031497,
          "duration": 0.272727500000002
        },
        {
          "name": "F#2",
          "midi": 42,
          "time": 97.63644500000042,
          "velocity": 0.7874015748031497,
          "duration": 0.272727500000002
        },
        {
          "name": "D2",
          "midi": 38,
          "time": 97.63644500000042,
          "velocity": 0.7874015748031497,
          "duration": 0.272727500000002
        },
        {
          "name": "C2",
          "midi": 36,
          "time": 97.77280875000042,
          "velocity": 0.7874015748031497,
          "duration": 0.136363750000001
        },
        {
          "name": "F#2",
          "midi": 42,
          "time": 97.90917250000042,
          "velocity": 0.7874015748031497,
          "duration": 0.272727500000002
        },
        {
          "name": "F#2",
          "midi": 42,
          "time": 98.18190000000043,
          "velocity": 0.7874015748031497,
          "duration": 0.272727500000002
        },
        {
          "name": "C2",
          "midi": 36,
          "time": 98.18190000000043,
          "velocity": 0.7874015748031497,
          "duration": 0.272727500000002
        },
        {
          "name": "F#2",
          "midi": 42,
          "time": 98.45462750000043,
          "velocity": 0.7874015748031497,
          "duration": 0.272727500000002
        },
        {
          "name": "F#2",
          "midi": 42,
          "time": 98.72735500000043,
          "velocity": 0.7874015748031497,
          "duration": 0.272727500000002
        },
        {
          "name": "D2",
          "midi": 38,
          "time": 98.72735500000043,
          "velocity": 0.7874015748031497,
          "duration": 0.272727500000002
        },
        {
          "name": "F#2",
          "midi": 42,
          "time": 99.00008250000043,
          "velocity": 0.7874015748031497,
          "duration": 0.272727500000002
        },
        {
          "name": "F#2",
          "midi": 42,
          "time": 99.27281000000043,
          "velocity": 0.7874015748031497,
          "duration": 0.272727500000002
        },
        {
          "name": "F#2",
          "midi": 42,
          "time": 99.54553750000044,
          "velocity": 0.7874015748031497,
          "duration": 0.272727500000002
        },
        {
          "name": "C2",
          "midi": 36,
          "time": 99.54553750000044,
          "velocity": 0.7874015748031497,
          "duration": 0.272727500000002
        },
        {
          "name": "E3",
          "midi": 52,
          "time": 99.81826500000044,
          "velocity": 0.7874015748031497,
          "duration": 0.545455000000004
        },
        {
          "name": "F#2",
          "midi": 42,
          "time": 99.81826500000044,
          "velocity": 0.7874015748031497,
          "duration": 0.545455000000004
        },
        {
          "name": "D2",
          "midi": 38,
          "time": 99.81826500000044,
          "velocity": 0.7874015748031497,
          "duration": 0.272727500000002
        },
        {
          "name": "A3",
          "midi": 57,
          "time": 100.36372000000044,
          "velocity": 0.7874015748031497,
          "duration": 0.272727500000002
        },
        {
          "name": "A#2",
          "midi": 46,
          "time": 100.36372000000044,
          "velocity": 0.7874015748031497,
          "duration": 0.545455000000004
        },
        {
          "name": "C2",
          "midi": 36,
          "time": 100.36372000000044,
          "velocity": 0.7874015748031497,
          "duration": 0.545455000000004
        },
        {
          "name": "F#2",
          "midi": 42,
          "time": 100.63644750000044,
          "velocity": 0.7874015748031497,
          "duration": 0.272727500000002
        },
        {
          "name": "F#2",
          "midi": 42,
          "time": 100.90917500000045,
          "velocity": 0.7874015748031497,
          "duration": 0.272727500000002
        },
        {
          "name": "D2",
          "midi": 38,
          "time": 100.90917500000045,
          "velocity": 0.7874015748031497,
          "duration": 0.545455000000004
        },
        {
          "name": "F#2",
          "midi": 42,
          "time": 101.18190250000045,
          "velocity": 0.7874015748031497,
          "duration": 0.272727500000002
        },
        {
          "name": "C2",
          "midi": 36,
          "time": 101.31826625000045,
          "velocity": 0.7874015748031497,
          "duration": 0.136363750000001
        },
        {
          "name": "F#2",
          "midi": 42,
          "time": 101.45463000000045,
          "velocity": 0.7874015748031497,
          "duration": 0.272727500000002
        },
        {
          "name": "C2",
          "midi": 36,
          "time": 101.45463000000045,
          "velocity": 0.7874015748031497,
          "duration": 0.136363750000001
        },
        {
          "name": "F#2",
          "midi": 42,
          "time": 101.72735750000045,
          "velocity": 0.7874015748031497,
          "duration": 0.272727500000002
        },
        {
          "name": "C2",
          "midi": 36,
          "time": 101.72735750000045,
          "velocity": 0.7874015748031497,
          "duration": 0.272727500000002
        },
        {
          "name": "E3",
          "midi": 52,
          "time": 102.00008500000045,
          "velocity": 0.7874015748031497,
          "duration": 0.272727500000002
        },
        {
          "name": "F#2",
          "midi": 42,
          "time": 102.00008500000045,
          "velocity": 0.7874015748031497,
          "duration": 0.272727500000002
        },
        {
          "name": "D2",
          "midi": 38,
          "time": 102.00008500000045,
          "velocity": 0.7874015748031497,
          "duration": 0.272727500000002
        },
        {
          "name": "F#2",
          "midi": 42,
          "time": 102.27281250000046,
          "velocity": 0.7874015748031497,
          "duration": 0.272727500000002
        },
        {
          "name": "A#2",
          "midi": 46,
          "time": 102.54554000000046,
          "velocity": 0.7874015748031497,
          "duration": 0.545455000000004
        },
        {
          "name": "C2",
          "midi": 36,
          "time": 102.54554000000046,
          "velocity": 0.7874015748031497,
          "duration": 0.545455000000004
        },
        {
          "name": "F#2",
          "midi": 42,
          "time": 102.81826750000046,
          "velocity": 0.7874015748031497,
          "duration": 0.272727500000002
        },
        {
          "name": "F#2",
          "midi": 42,
          "time": 103.09099500000046,
          "velocity": 0.7874015748031497,
          "duration": 0.272727500000002
        },
        {
          "name": "D2",
          "midi": 38,
          "time": 103.09099500000046,
          "velocity": 0.7874015748031497,
          "duration": 0.545455000000004
        },
        {
          "name": "F#2",
          "midi": 42,
          "time": 103.36372250000046,
          "velocity": 0.7874015748031497,
          "duration": 0.272727500000002
        },
        {
          "name": "C2",
          "midi": 36,
          "time": 103.50008625000046,
          "velocity": 0.7874015748031497,
          "duration": 0.136363750000001
        },
        {
          "name": "F#2",
          "midi": 42,
          "time": 103.63645000000047,
          "velocity": 0.7874015748031497,
          "duration": 0.272727500000002
        },
        {
          "name": "C2",
          "midi": 36,
          "time": 103.63645000000047,
          "velocity": 0.7874015748031497,
          "duration": 0.136363750000001
        },
        {
          "name": "F#2",
          "midi": 42,
          "time": 103.90917750000047,
          "velocity": 0.7874015748031497,
          "duration": 0.272727500000002
        },
        {
          "name": "C2",
          "midi": 36,
          "time": 103.90917750000047,
          "velocity": 0.7874015748031497,
          "duration": 0.272727500000002
        },
        {
          "name": "F#2",
          "midi": 42,
          "time": 104.18190500000047,
          "velocity": 0.7874015748031497,
          "duration": 0.272727500000002
        },
        {
          "name": "D2",
          "midi": 38,
          "time": 104.18190500000047,
          "velocity": 0.7874015748031497,
          "duration": 0.272727500000002
        },
        {
          "name": "F#2",
          "midi": 42,
          "time": 104.45463250000047,
          "velocity": 0.7874015748031497,
          "duration": 0.272727500000002
        },
        {
          "name": "A#2",
          "midi": 46,
          "time": 104.72736000000047,
          "velocity": 0.7874015748031497,
          "duration": 0.545455000000004
        },
        {
          "name": "C2",
          "midi": 36,
          "time": 104.72736000000047,
          "velocity": 0.7874015748031497,
          "duration": 0.545455000000004
        },
        {
          "name": "F#2",
          "midi": 42,
          "time": 105.00008750000048,
          "velocity": 0.7874015748031497,
          "duration": 0.272727500000002
        },
        {
          "name": "F#2",
          "midi": 42,
          "time": 105.27281500000048,
          "velocity": 0.7874015748031497,
          "duration": 0.272727500000002
        },
        {
          "name": "D2",
          "midi": 38,
          "time": 105.27281500000048,
          "velocity": 0.7874015748031497,
          "duration": 0.545455000000004
        },
        {
          "name": "F#2",
          "midi": 42,
          "time": 105.54554250000048,
          "velocity": 0.7874015748031497,
          "duration": 0.272727500000002
        },
        {
          "name": "C2",
          "midi": 36,
          "time": 105.68190625000048,
          "velocity": 0.7874015748031497,
          "duration": 0.136363750000001
        },
        {
          "name": "F#2",
          "midi": 42,
          "time": 105.81827000000048,
          "velocity": 0.7874015748031497,
          "duration": 0.272727500000002
        },
        {
          "name": "C2",
          "midi": 36,
          "time": 105.81827000000048,
          "velocity": 0.7874015748031497,
          "duration": 0.136363750000001
        },
        {
          "name": "F#2",
          "midi": 42,
          "time": 106.09099750000048,
          "velocity": 0.7874015748031497,
          "duration": 0.272727500000002
        },
        {
          "name": "C2",
          "midi": 36,
          "time": 106.09099750000048,
          "velocity": 0.7874015748031497,
          "duration": 0.272727500000002
        },
        {
          "name": "E3",
          "midi": 52,
          "time": 106.36372500000049,
          "velocity": 0.7874015748031497,
          "duration": 0.272727500000002
        },
        {
          "name": "F#2",
          "midi": 42,
          "time": 106.36372500000049,
          "velocity": 0.7874015748031497,
          "duration": 0.272727500000002
        },
        {
          "name": "D2",
          "midi": 38,
          "time": 106.36372500000049,
          "velocity": 0.7874015748031497,
          "duration": 0.272727500000002
        },
        {
          "name": "F#2",
          "midi": 42,
          "time": 106.63645250000049,
          "velocity": 0.7874015748031497,
          "duration": 0.272727500000002
        },
        {
          "name": "A#2",
          "midi": 46,
          "time": 106.90918000000049,
          "velocity": 0.7874015748031497,
          "duration": 0.545455000000004
        },
        {
          "name": "C2",
          "midi": 36,
          "time": 106.90918000000049,
          "velocity": 0.7874015748031497,
          "duration": 0.545455000000004
        },
        {
          "name": "F#2",
          "midi": 42,
          "time": 107.18190750000049,
          "velocity": 0.7874015748031497,
          "duration": 0.272727500000002
        },
        {
          "name": "F#2",
          "midi": 42,
          "time": 107.4546350000005,
          "velocity": 0.7874015748031497,
          "duration": 0.272727500000002
        },
        {
          "name": "D2",
          "midi": 38,
          "time": 107.4546350000005,
          "velocity": 0.7874015748031497,
          "duration": 0.545455000000004
        },
        {
          "name": "F#2",
          "midi": 42,
          "time": 107.7273625000005,
          "velocity": 0.7874015748031497,
          "duration": 0.272727500000002
        },
        {
          "name": "C2",
          "midi": 36,
          "time": 107.8637262500005,
          "velocity": 0.7874015748031497,
          "duration": 0.136363750000001
        },
        {
          "name": "F#2",
          "midi": 42,
          "time": 108.0000900000005,
          "velocity": 0.7874015748031497,
          "duration": 0.272727500000002
        },
        {
          "name": "C2",
          "midi": 36,
          "time": 108.0000900000005,
          "velocity": 0.7874015748031497,
          "duration": 0.136363750000001
        },
        {
          "name": "A3",
          "midi": 57,
          "time": 108.2728175000005,
          "velocity": 0.7874015748031497,
          "duration": 0.272727500000002
        },
        {
          "name": "A#2",
          "midi": 46,
          "time": 108.2728175000005,
          "velocity": 0.7874015748031497,
          "duration": 0.272727500000002
        },
        {
          "name": "D2",
          "midi": 38,
          "time": 108.2728175000005,
          "velocity": 0.7874015748031497,
          "duration": 0.272727500000002
        },
        {
          "name": "D2",
          "midi": 38,
          "time": 108.8182725000005,
          "velocity": 0.7874015748031497,
          "duration": 0.272727500000002
        },
        {
          "name": "F#2",
          "midi": 42,
          "time": 108.8182725000005,
          "velocity": 0.7874015748031497,
          "duration": 0.272727500000002
        },
        {
          "name": "A3",
          "midi": 57,
          "time": 109.0910000000005,
          "velocity": 0.7874015748031497,
          "duration": 0.272727500000002
        },
        {
          "name": "F#2",
          "midi": 42,
          "time": 109.0910000000005,
          "velocity": 0.7874015748031497,
          "duration": 0.272727500000002
        },
        {
          "name": "C2",
          "midi": 36,
          "time": 109.0910000000005,
          "velocity": 0.7874015748031497,
          "duration": 0.272727500000002
        },
        {
          "name": "F#2",
          "midi": 42,
          "time": 109.36372750000051,
          "velocity": 0.7874015748031497,
          "duration": 0.272727500000002
        },
        {
          "name": "F#2",
          "midi": 42,
          "time": 109.63645500000051,
          "velocity": 0.7874015748031497,
          "duration": 0.272727500000002
        },
        {
          "name": "D2",
          "midi": 38,
          "time": 109.63645500000051,
          "velocity": 0.7874015748031497,
          "duration": 0.272727500000002
        },
        {
          "name": "F#2",
          "midi": 42,
          "time": 109.90918250000051,
          "velocity": 0.7874015748031497,
          "duration": 0.272727500000002
        },
        {
          "name": "F#2",
          "midi": 42,
          "time": 110.18191000000051,
          "velocity": 0.7874015748031497,
          "duration": 0.272727500000002
        },
        {
          "name": "F#2",
          "midi": 42,
          "time": 110.45463750000052,
          "velocity": 0.7874015748031497,
          "duration": 0.272727500000002
        },
        {
          "name": "C2",
          "midi": 36,
          "time": 110.45463750000052,
          "velocity": 0.7874015748031497,
          "duration": 0.272727500000002
        },
        {
          "name": "F#2",
          "midi": 42,
          "time": 110.72736500000052,
          "velocity": 0.7874015748031497,
          "duration": 0.272727500000002
        },
        {
          "name": "D2",
          "midi": 38,
          "time": 110.72736500000052,
          "velocity": 0.7874015748031497,
          "duration": 0.272727500000002
        },
        {
          "name": "C2",
          "midi": 36,
          "time": 110.86372875000052,
          "velocity": 0.7874015748031497,
          "duration": 0.136363750000001
        },
        {
          "name": "F#2",
          "midi": 42,
          "time": 111.00009250000052,
          "velocity": 0.7874015748031497,
          "duration": 0.272727500000002
        },
        {
          "name": "F#2",
          "midi": 42,
          "time": 111.27282000000052,
          "velocity": 0.7874015748031497,
          "duration": 0.272727500000002
        },
        {
          "name": "C2",
          "midi": 36,
          "time": 111.27282000000052,
          "velocity": 0.7874015748031497,
          "duration": 0.272727500000002
        },
        {
          "name": "F#2",
          "midi": 42,
          "time": 111.54554750000052,
          "velocity": 0.7874015748031497,
          "duration": 0.272727500000002
        },
        {
          "name": "F#2",
          "midi": 42,
          "time": 111.81827500000053,
          "velocity": 0.7874015748031497,
          "duration": 0.272727500000002
        },
        {
          "name": "D2",
          "midi": 38,
          "time": 111.81827500000053,
          "velocity": 0.7874015748031497,
          "duration": 0.272727500000002
        },
        {
          "name": "F#2",
          "midi": 42,
          "time": 112.09100250000053,
          "velocity": 0.7874015748031497,
          "duration": 0.272727500000002
        },
        {
          "name": "F#2",
          "midi": 42,
          "time": 112.36373000000053,
          "velocity": 0.7874015748031497,
          "duration": 0.272727500000002
        },
        {
          "name": "F#2",
          "midi": 42,
          "time": 112.63645750000053,
          "velocity": 0.7874015748031497,
          "duration": 0.272727500000002
        },
        {
          "name": "C2",
          "midi": 36,
          "time": 112.63645750000053,
          "velocity": 0.7874015748031497,
          "duration": 0.272727500000002
        },
        {
          "name": "F#2",
          "midi": 42,
          "time": 112.90918500000053,
          "velocity": 0.7874015748031497,
          "duration": 0.272727500000002
        },
        {
          "name": "D2",
          "midi": 38,
          "time": 112.90918500000053,
          "velocity": 0.7874015748031497,
          "duration": 0.272727500000002
        },
        {
          "name": "C2",
          "midi": 36,
          "time": 113.04554875000053,
          "velocity": 0.7874015748031497,
          "duration": 0.136363750000001
        },
        {
          "name": "F#2",
          "midi": 42,
          "time": 113.18191250000054,
          "velocity": 0.7874015748031497,
          "duration": 0.272727500000002
        },
        {
          "name": "F#2",
          "midi": 42,
          "time": 113.45464000000054,
          "velocity": 0.7874015748031497,
          "duration": 0.272727500000002
        },
        {
          "name": "C2",
          "midi": 36,
          "time": 113.45464000000054,
          "velocity": 0.7874015748031497,
          "duration": 0.272727500000002
        },
        {
          "name": "F#2",
          "midi": 42,
          "time": 113.72736750000054,
          "velocity": 0.7874015748031497,
          "duration": 0.272727500000002
        },
        {
          "name": "F#2",
          "midi": 42,
          "time": 114.00009500000054,
          "velocity": 0.7874015748031497,
          "duration": 0.272727500000002
        },
        {
          "name": "D2",
          "midi": 38,
          "time": 114.00009500000054,
          "velocity": 0.7874015748031497,
          "duration": 0.272727500000002
        },
        {
          "name": "F#2",
          "midi": 42,
          "time": 114.27282250000054,
          "velocity": 0.7874015748031497,
          "duration": 0.272727500000002
        },
        {
          "name": "F#2",
          "midi": 42,
          "time": 114.54555000000055,
          "velocity": 0.7874015748031497,
          "duration": 0.272727500000002
        },
        {
          "name": "F#2",
          "midi": 42,
          "time": 114.81827750000055,
          "velocity": 0.7874015748031497,
          "duration": 0.272727500000002
        },
        {
          "name": "C2",
          "midi": 36,
          "time": 114.81827750000055,
          "velocity": 0.7874015748031497,
          "duration": 0.272727500000002
        },
        {
          "name": "F#2",
          "midi": 42,
          "time": 115.09100500000055,
          "velocity": 0.7874015748031497,
          "duration": 0.272727500000002
        },
        {
          "name": "D2",
          "midi": 38,
          "time": 115.09100500000055,
          "velocity": 0.7874015748031497,
          "duration": 0.272727500000002
        },
        {
          "name": "C2",
          "midi": 36,
          "time": 115.22736875000055,
          "velocity": 0.7874015748031497,
          "duration": 0.136363750000001
        },
        {
          "name": "F#2",
          "midi": 42,
          "time": 115.36373250000055,
          "velocity": 0.7874015748031497,
          "duration": 0.272727500000002
        },
        {
          "name": "F#2",
          "midi": 42,
          "time": 115.63646000000055,
          "velocity": 0.7874015748031497,
          "duration": 0.272727500000002
        },
        {
          "name": "C2",
          "midi": 36,
          "time": 115.63646000000055,
          "velocity": 0.7874015748031497,
          "duration": 0.272727500000002
        },
        {
          "name": "F#2",
          "midi": 42,
          "time": 115.90918750000056,
          "velocity": 0.7874015748031497,
          "duration": 0.272727500000002
        },
        {
          "name": "F#2",
          "midi": 42,
          "time": 116.18191500000056,
          "velocity": 0.7874015748031497,
          "duration": 0.272727500000002
        },
        {
          "name": "D2",
          "midi": 38,
          "time": 116.18191500000056,
          "velocity": 0.7874015748031497,
          "duration": 0.272727500000002
        },
        {
          "name": "F#2",
          "midi": 42,
          "time": 116.45464250000056,
          "velocity": 0.7874015748031497,
          "duration": 0.272727500000002
        },
        {
          "name": "F#2",
          "midi": 42,
          "time": 116.72737000000056,
          "velocity": 0.7874015748031497,
          "duration": 0.272727500000002
        },
        {
          "name": "G4",
          "midi": 67,
          "time": 117.00009750000056,
          "velocity": 0.7874015748031497,
          "duration": 0.136363750000001
        },
        {
          "name": "F#2",
          "midi": 42,
          "time": 117.00009750000056,
          "velocity": 0.7874015748031497,
          "duration": 0.272727500000002
        },
        {
          "name": "C2",
          "midi": 36,
          "time": 117.00009750000056,
          "velocity": 0.7874015748031497,
          "duration": 0.272727500000002
        },
        {
          "name": "G4",
          "midi": 67,
          "time": 117.13646125000056,
          "velocity": 0.7874015748031497,
          "duration": 0.136363750000001
        },
        {
          "name": "G4",
          "midi": 67,
          "time": 117.27282500000057,
          "velocity": 0.7874015748031497,
          "duration": 0.136363750000001
        },
        {
          "name": "F#2",
          "midi": 42,
          "time": 117.27282500000057,
          "velocity": 0.7874015748031497,
          "duration": 0.272727500000002
        },
        {
          "name": "D2",
          "midi": 38,
          "time": 117.27282500000057,
          "velocity": 0.7874015748031497,
          "duration": 0.272727500000002
        },
        {
          "name": "G4",
          "midi": 67,
          "time": 117.40918875000057,
          "velocity": 0.7874015748031497,
          "duration": 0.136363750000001
        },
        {
          "name": "C2",
          "midi": 36,
          "time": 117.40918875000057,
          "velocity": 0.7874015748031497,
          "duration": 0.136363750000001
        },
        {
          "name": "G4",
          "midi": 67,
          "time": 117.54555250000057,
          "velocity": 0.7874015748031497,
          "duration": 0.136363750000001
        },
        {
          "name": "F#2",
          "midi": 42,
          "time": 117.54555250000057,
          "velocity": 0.7874015748031497,
          "duration": 0.272727500000002
        },
        {
          "name": "G4",
          "midi": 67,
          "time": 117.68191625000057,
          "velocity": 0.7874015748031497,
          "duration": 0.136363750000001
        },
        {
          "name": "A3",
          "midi": 57,
          "time": 117.81828000000057,
          "velocity": 0.7874015748031497,
          "duration": 0.272727500000002
        },
        {
          "name": "F#2",
          "midi": 42,
          "time": 117.81828000000057,
          "velocity": 0.7874015748031497,
          "duration": 0.272727500000002
        },
        {
          "name": "C2",
          "midi": 36,
          "time": 117.81828000000057,
          "velocity": 0.7874015748031497,
          "duration": 0.272727500000002
        },
        {
          "name": "F#2",
          "midi": 42,
          "time": 118.09100750000057,
          "velocity": 0.7874015748031497,
          "duration": 0.272727500000002
        },
        {
          "name": "F#2",
          "midi": 42,
          "time": 118.36373500000057,
          "velocity": 0.7874015748031497,
          "duration": 0.272727500000002
        },
        {
          "name": "D2",
          "midi": 38,
          "time": 118.36373500000057,
          "velocity": 0.7874015748031497,
          "duration": 0.272727500000002
        },
        {
          "name": "F#2",
          "midi": 42,
          "time": 118.63646250000058,
          "velocity": 0.7874015748031497,
          "duration": 0.272727500000002
        },
        {
          "name": "F#2",
          "midi": 42,
          "time": 118.90919000000058,
          "velocity": 0.7874015748031497,
          "duration": 0.272727500000002
        },
        {
          "name": "F#2",
          "midi": 42,
          "time": 119.18191750000058,
          "velocity": 0.7874015748031497,
          "duration": 0.272727500000002
        },
        {
          "name": "C2",
          "midi": 36,
          "time": 119.18191750000058,
          "velocity": 0.7874015748031497,
          "duration": 0.272727500000002
        },
        {
          "name": "F#2",
          "midi": 42,
          "time": 119.45464500000058,
          "velocity": 0.7874015748031497,
          "duration": 0.272727500000002
        },
        {
          "name": "D2",
          "midi": 38,
          "time": 119.45464500000058,
          "velocity": 0.7874015748031497,
          "duration": 0.272727500000002
        },
        {
          "name": "C2",
          "midi": 36,
          "time": 119.59100875000058,
          "velocity": 0.7874015748031497,
          "duration": 0.136363750000001
        },
        {
          "name": "F#2",
          "midi": 42,
          "time": 119.72737250000058,
          "velocity": 0.7874015748031497,
          "duration": 0.272727500000002
        },
        {
          "name": "F#2",
          "midi": 42,
          "time": 120.00010000000059,
          "velocity": 0.7874015748031497,
          "duration": 0.272727500000002
        },
        {
          "name": "C2",
          "midi": 36,
          "time": 120.00010000000059,
          "velocity": 0.7874015748031497,
          "duration": 0.272727500000002
        },
        {
          "name": "F#2",
          "midi": 42,
          "time": 120.27282750000059,
          "velocity": 0.7874015748031497,
          "duration": 0.272727500000002
        },
        {
          "name": "F#2",
          "midi": 42,
          "time": 120.54555500000059,
          "velocity": 0.7874015748031497,
          "duration": 0.272727500000002
        },
        {
          "name": "D2",
          "midi": 38,
          "time": 120.54555500000059,
          "velocity": 0.7874015748031497,
          "duration": 0.272727500000002
        },
        {
          "name": "F#2",
          "midi": 42,
          "time": 120.81828250000059,
          "velocity": 0.7874015748031497,
          "duration": 0.272727500000002
        },
        {
          "name": "F#2",
          "midi": 42,
          "time": 121.0910100000006,
          "velocity": 0.7874015748031497,
          "duration": 0.272727500000002
        },
        {
          "name": "F#2",
          "midi": 42,
          "time": 121.3637375000006,
          "velocity": 0.7874015748031497,
          "duration": 0.272727500000002
        },
        {
          "name": "C2",
          "midi": 36,
          "time": 121.3637375000006,
          "velocity": 0.7874015748031497,
          "duration": 0.272727500000002
        },
        {
          "name": "F#2",
          "midi": 42,
          "time": 121.6364650000006,
          "velocity": 0.7874015748031497,
          "duration": 0.272727500000002
        },
        {
          "name": "D2",
          "midi": 38,
          "time": 121.6364650000006,
          "velocity": 0.7874015748031497,
          "duration": 0.272727500000002
        },
        {
          "name": "C2",
          "midi": 36,
          "time": 121.7728287500006,
          "velocity": 0.7874015748031497,
          "duration": 0.136363750000001
        },
        {
          "name": "F#2",
          "midi": 42,
          "time": 121.9091925000006,
          "velocity": 0.7874015748031497,
          "duration": 0.272727500000002
        },
        {
          "name": "F#2",
          "midi": 42,
          "time": 122.1819200000006,
          "velocity": 0.7874015748031497,
          "duration": 0.272727500000002
        },
        {
          "name": "C2",
          "midi": 36,
          "time": 122.1819200000006,
          "velocity": 0.7874015748031497,
          "duration": 0.272727500000002
        },
        {
          "name": "F#2",
          "midi": 42,
          "time": 122.4546475000006,
          "velocity": 0.7874015748031497,
          "duration": 0.272727500000002
        },
        {
          "name": "F#2",
          "midi": 42,
          "time": 122.7273750000006,
          "velocity": 0.7874015748031497,
          "duration": 0.272727500000002
        },
        {
          "name": "D2",
          "midi": 38,
          "time": 122.7273750000006,
          "velocity": 0.7874015748031497,
          "duration": 0.272727500000002
        },
        {
          "name": "F#2",
          "midi": 42,
          "time": 123.00010250000061,
          "velocity": 0.7874015748031497,
          "duration": 0.272727500000002
        },
        {
          "name": "F#2",
          "midi": 42,
          "time": 123.27283000000061,
          "velocity": 0.7874015748031497,
          "duration": 0.272727500000002
        },
        {
          "name": "F#2",
          "midi": 42,
          "time": 123.54555750000061,
          "velocity": 0.7874015748031497,
          "duration": 0.272727500000002
        },
        {
          "name": "C2",
          "midi": 36,
          "time": 123.54555750000061,
          "velocity": 0.7874015748031497,
          "duration": 0.272727500000002
        },
        {
          "name": "F#2",
          "midi": 42,
          "time": 123.81828500000061,
          "velocity": 0.7874015748031497,
          "duration": 0.272727500000002
        },
        {
          "name": "D2",
          "midi": 38,
          "time": 123.81828500000061,
          "velocity": 0.7874015748031497,
          "duration": 0.272727500000002
        },
        {
          "name": "C2",
          "midi": 36,
          "time": 123.95464875000062,
          "velocity": 0.7874015748031497,
          "duration": 0.136363750000001
        },
        {
          "name": "F#2",
          "midi": 42,
          "time": 124.09101250000062,
          "velocity": 0.7874015748031497,
          "duration": 0.272727500000002
        },
        {
          "name": "F#2",
          "midi": 42,
          "time": 124.36374000000062,
          "velocity": 0.7874015748031497,
          "duration": 0.272727500000002
        },
        {
          "name": "C2",
          "midi": 36,
          "time": 124.36374000000062,
          "velocity": 0.7874015748031497,
          "duration": 0.272727500000002
        },
        {
          "name": "F#2",
          "midi": 42,
          "time": 124.63646750000062,
          "velocity": 0.7874015748031497,
          "duration": 0.272727500000002
        },
        {
          "name": "F#2",
          "midi": 42,
          "time": 124.90919500000062,
          "velocity": 0.7874015748031497,
          "duration": 0.272727500000002
        },
        {
          "name": "D2",
          "midi": 38,
          "time": 124.90919500000062,
          "velocity": 0.7874015748031497,
          "duration": 0.272727500000002
        },
        {
          "name": "F#2",
          "midi": 42,
          "time": 125.18192250000062,
          "velocity": 0.7874015748031497,
          "duration": 0.272727500000002
        },
        {
          "name": "A3",
          "midi": 57,
          "time": 125.45465000000063,
          "velocity": 0.7874015748031497,
          "duration": 0.136363750000001
        },
        {
          "name": "C2",
          "midi": 36,
          "time": 125.45465000000063,
          "velocity": 0.7874015748031497,
          "duration": 0.272727500000002
        },
        {
          "name": "D2",
          "midi": 38,
          "time": 125.72737750000063,
          "velocity": 0.7874015748031497,
          "duration": 0.136363750000001
        },
        {
          "name": "D2",
          "midi": 38,
          "time": 125.86374125000063,
          "velocity": 0.7874015748031497,
          "duration": 0.136363750000001
        },
        {
          "name": "D2",
          "midi": 38,
          "time": 126.00010500000063,
          "velocity": 0.7874015748031497,
          "duration": 0.136363750000001
        },
        {
          "name": "D2",
          "midi": 38,
          "time": 126.13646875000063,
          "velocity": 0.7874015748031497,
          "duration": 0.136363750000001
        },
        {
          "name": "D2",
          "midi": 38,
          "time": 126.27283250000063,
          "velocity": 0.7874015748031497,
          "duration": 0.136363750000001
        },
        {
          "name": "D2",
          "midi": 38,
          "time": 126.40919625000063,
          "velocity": 0.7874015748031497,
          "duration": 0.136363750000001
        },
        {
          "name": "A3",
          "midi": 57,
          "time": 126.54556000000063,
          "velocity": 0.7874015748031497,
          "duration": 0.272727500000002
        },
        {
          "name": "F#2",
          "midi": 42,
          "time": 126.54556000000063,
          "velocity": 0.7874015748031497,
          "duration": 0.272727500000002
        },
        {
          "name": "C2",
          "midi": 36,
          "time": 126.54556000000063,
          "velocity": 0.7874015748031497,
          "duration": 0.272727500000002
        },
        {
          "name": "F#2",
          "midi": 42,
          "time": 126.81828750000064,
          "velocity": 0.7874015748031497,
          "duration": 0.272727500000002
        },
        {
          "name": "F#2",
          "midi": 42,
          "time": 127.09101500000064,
          "velocity": 0.7874015748031497,
          "duration": 0.272727500000002
        },
        {
          "name": "D2",
          "midi": 38,
          "time": 127.09101500000064,
          "velocity": 0.7874015748031497,
          "duration": 0.272727500000002
        },
        {
          "name": "F#2",
          "midi": 42,
          "time": 127.36374250000064,
          "velocity": 0.7874015748031497,
          "duration": 0.272727500000002
        },
        {
          "name": "F#2",
          "midi": 42,
          "time": 127.63647000000064,
          "velocity": 0.7874015748031497,
          "duration": 0.272727500000002
        },
        {
          "name": "F#2",
          "midi": 42,
          "time": 127.90919750000064,
          "velocity": 0.7874015748031497,
          "duration": 0.2727274999999878
        },
        {
          "name": "C2",
          "midi": 36,
          "time": 127.90919750000064,
          "velocity": 0.7874015748031497,
          "duration": 0.2727274999999878
        },
        {
          "name": "F#2",
          "midi": 42,
          "time": 128.18192500000063,
          "velocity": 0.7874015748031497,
          "duration": 0.2727274999999736
        },
        {
          "name": "D2",
          "midi": 38,
          "time": 128.18192500000063,
          "velocity": 0.7874015748031497,
          "duration": 0.2727274999999736
        },
        {
          "name": "C2",
          "midi": 36,
          "time": 128.31828875000062,
          "velocity": 0.7874015748031497,
          "duration": 0.1363637499999868
        },
        {
          "name": "F#2",
          "midi": 42,
          "time": 128.4546525000006,
          "velocity": 0.7874015748031497,
          "duration": 0.272727500000002
        },
        {
          "name": "A3",
          "midi": 57,
          "time": 128.7273800000006,
          "velocity": 0.7874015748031497,
          "duration": 0.272727500000002
        },
        {
          "name": "F#2",
          "midi": 42,
          "time": 128.7273800000006,
          "velocity": 0.7874015748031497,
          "duration": 0.272727500000002
        },
        {
          "name": "C2",
          "midi": 36,
          "time": 128.7273800000006,
          "velocity": 0.7874015748031497,
          "duration": 0.272727500000002
        },
        {
          "name": "F#2",
          "midi": 42,
          "time": 129.0001075000006,
          "velocity": 0.7874015748031497,
          "duration": 0.272727500000002
        },
        {
          "name": "F#2",
          "midi": 42,
          "time": 129.2728350000006,
          "velocity": 0.7874015748031497,
          "duration": 0.272727500000002
        },
        {
          "name": "D2",
          "midi": 38,
          "time": 129.2728350000006,
          "velocity": 0.7874015748031497,
          "duration": 0.272727500000002
        },
        {
          "name": "F#2",
          "midi": 42,
          "time": 129.5455625000006,
          "velocity": 0.7874015748031497,
          "duration": 0.272727500000002
        },
        {
          "name": "F#2",
          "midi": 42,
          "time": 129.81829000000062,
          "velocity": 0.7874015748031497,
          "duration": 0.272727500000002
        },
        {
          "name": "F#2",
          "midi": 42,
          "time": 130.09101750000062,
          "velocity": 0.7874015748031497,
          "duration": 0.272727500000002
        },
        {
          "name": "C2",
          "midi": 36,
          "time": 130.09101750000062,
          "velocity": 0.7874015748031497,
          "duration": 0.272727500000002
        },
        {
          "name": "F#2",
          "midi": 42,
          "time": 130.36374500000062,
          "velocity": 0.7874015748031497,
          "duration": 0.2727274999999736
        },
        {
          "name": "D2",
          "midi": 38,
          "time": 130.36374500000062,
          "velocity": 0.7874015748031497,
          "duration": 0.2727274999999736
        },
        {
          "name": "C2",
          "midi": 36,
          "time": 130.5001087500006,
          "velocity": 0.7874015748031497,
          "duration": 0.1363637499999868
        },
        {
          "name": "F#2",
          "midi": 42,
          "time": 130.6364725000006,
          "velocity": 0.7874015748031497,
          "duration": 0.272727500000002
        },
        {
          "name": "A3",
          "midi": 57,
          "time": 130.9092000000006,
          "velocity": 0.7874015748031497,
          "duration": 0.272727500000002
        },
        {
          "name": "F#2",
          "midi": 42,
          "time": 130.9092000000006,
          "velocity": 0.7874015748031497,
          "duration": 0.272727500000002
        },
        {
          "name": "C2",
          "midi": 36,
          "time": 130.9092000000006,
          "velocity": 0.7874015748031497,
          "duration": 0.272727500000002
        },
        {
          "name": "F#2",
          "midi": 42,
          "time": 131.1819275000006,
          "velocity": 0.7874015748031497,
          "duration": 0.272727500000002
        },
        {
          "name": "F#2",
          "midi": 42,
          "time": 131.4546550000006,
          "velocity": 0.7874015748031497,
          "duration": 0.272727500000002
        },
        {
          "name": "D2",
          "midi": 38,
          "time": 131.4546550000006,
          "velocity": 0.7874015748031497,
          "duration": 0.272727500000002
        },
        {
          "name": "F#2",
          "midi": 42,
          "time": 131.7273825000006,
          "velocity": 0.7874015748031497,
          "duration": 0.272727500000002
        },
        {
          "name": "F#2",
          "midi": 42,
          "time": 132.0001100000006,
          "velocity": 0.7874015748031497,
          "duration": 0.272727500000002
        },
        {
          "name": "F#2",
          "midi": 42,
          "time": 132.2728375000006,
          "velocity": 0.7874015748031497,
          "duration": 0.272727500000002
        },
        {
          "name": "C2",
          "midi": 36,
          "time": 132.2728375000006,
          "velocity": 0.7874015748031497,
          "duration": 0.272727500000002
        },
        {
          "name": "F#2",
          "midi": 42,
          "time": 132.5455650000006,
          "velocity": 0.7874015748031497,
          "duration": 0.2727274999999736
        },
        {
          "name": "D2",
          "midi": 38,
          "time": 132.5455650000006,
          "velocity": 0.7874015748031497,
          "duration": 0.2727274999999736
        },
        {
          "name": "C2",
          "midi": 36,
          "time": 132.6819287500006,
          "velocity": 0.7874015748031497,
          "duration": 0.1363637499999868
        },
        {
          "name": "F#2",
          "midi": 42,
          "time": 132.81829250000058,
          "velocity": 0.7874015748031497,
          "duration": 0.272727500000002
        },
        {
          "name": "A3",
          "midi": 57,
          "time": 133.09102000000058,
          "velocity": 0.7874015748031497,
          "duration": 0.272727500000002
        },
        {
          "name": "F#2",
          "midi": 42,
          "time": 133.09102000000058,
          "velocity": 0.7874015748031497,
          "duration": 0.272727500000002
        },
        {
          "name": "C2",
          "midi": 36,
          "time": 133.09102000000058,
          "velocity": 0.7874015748031497,
          "duration": 0.272727500000002
        },
        {
          "name": "F#2",
          "midi": 42,
          "time": 133.36374750000058,
          "velocity": 0.7874015748031497,
          "duration": 0.272727500000002
        },
        {
          "name": "F#2",
          "midi": 42,
          "time": 133.6364750000006,
          "velocity": 0.7874015748031497,
          "duration": 0.272727500000002
        },
        {
          "name": "D2",
          "midi": 38,
          "time": 133.6364750000006,
          "velocity": 0.7874015748031497,
          "duration": 0.272727500000002
        },
        {
          "name": "F#2",
          "midi": 42,
          "time": 133.9092025000006,
          "velocity": 0.7874015748031497,
          "duration": 0.272727500000002
        },
        {
          "name": "F#2",
          "midi": 42,
          "time": 134.1819300000006,
          "velocity": 0.7874015748031497,
          "duration": 0.272727500000002
        },
        {
          "name": "F#2",
          "midi": 42,
          "time": 134.4546575000006,
          "velocity": 0.7874015748031497,
          "duration": 0.272727500000002
        },
        {
          "name": "C2",
          "midi": 36,
          "time": 134.4546575000006,
          "velocity": 0.7874015748031497,
          "duration": 0.272727500000002
        },
        {
          "name": "F#2",
          "midi": 42,
          "time": 134.7273850000006,
          "velocity": 0.7874015748031497,
          "duration": 0.2727274999999736
        },
        {
          "name": "D2",
          "midi": 38,
          "time": 134.7273850000006,
          "velocity": 0.7874015748031497,
          "duration": 0.2727274999999736
        },
        {
          "name": "C2",
          "midi": 36,
          "time": 134.86374875000058,
          "velocity": 0.7874015748031497,
          "duration": 0.1363637499999868
        },
        {
          "name": "F#2",
          "midi": 42,
          "time": 135.00011250000057,
          "velocity": 0.7874015748031497,
          "duration": 0.272727500000002
        },
        {
          "name": "A3",
          "midi": 57,
          "time": 135.27284000000057,
          "velocity": 0.7874015748031497,
          "duration": 0.272727500000002
        },
        {
          "name": "F#2",
          "midi": 42,
          "time": 135.27284000000057,
          "velocity": 0.7874015748031497,
          "duration": 0.272727500000002
        },
        {
          "name": "C2",
          "midi": 36,
          "time": 135.27284000000057,
          "velocity": 0.7874015748031497,
          "duration": 0.272727500000002
        },
        {
          "name": "F#2",
          "midi": 42,
          "time": 135.54556750000057,
          "velocity": 0.7874015748031497,
          "duration": 0.272727500000002
        },
        {
          "name": "F#2",
          "midi": 42,
          "time": 135.81829500000057,
          "velocity": 0.7874015748031497,
          "duration": 0.272727500000002
        },
        {
          "name": "D2",
          "midi": 38,
          "time": 135.81829500000057,
          "velocity": 0.7874015748031497,
          "duration": 0.272727500000002
        },
        {
          "name": "F#2",
          "midi": 42,
          "time": 136.09102250000058,
          "velocity": 0.7874015748031497,
          "duration": 0.272727500000002
        },
        {
          "name": "F#2",
          "midi": 42,
          "time": 136.36375000000058,
          "velocity": 0.7874015748031497,
          "duration": 0.272727500000002
        },
        {
          "name": "F#2",
          "midi": 42,
          "time": 136.63647750000058,
          "velocity": 0.7874015748031497,
          "duration": 0.272727500000002
        },
        {
          "name": "C2",
          "midi": 36,
          "time": 136.63647750000058,
          "velocity": 0.7874015748031497,
          "duration": 0.272727500000002
        },
        {
          "name": "F#2",
          "midi": 42,
          "time": 136.90920500000058,
          "velocity": 0.7874015748031497,
          "duration": 0.2727274999999736
        },
        {
          "name": "D2",
          "midi": 38,
          "time": 136.90920500000058,
          "velocity": 0.7874015748031497,
          "duration": 0.2727274999999736
        },
        {
          "name": "C2",
          "midi": 36,
          "time": 137.04556875000057,
          "velocity": 0.7874015748031497,
          "duration": 0.1363637499999868
        },
        {
          "name": "F#2",
          "midi": 42,
          "time": 137.18193250000056,
          "velocity": 0.7874015748031497,
          "duration": 0.272727500000002
        },
        {
          "name": "A3",
          "midi": 57,
          "time": 137.45466000000056,
          "velocity": 0.7874015748031497,
          "duration": 0.272727500000002
        },
        {
          "name": "F#2",
          "midi": 42,
          "time": 137.45466000000056,
          "velocity": 0.7874015748031497,
          "duration": 0.272727500000002
        },
        {
          "name": "C2",
          "midi": 36,
          "time": 137.45466000000056,
          "velocity": 0.7874015748031497,
          "duration": 0.272727500000002
        },
        {
          "name": "F#2",
          "midi": 42,
          "time": 137.72738750000056,
          "velocity": 0.7874015748031497,
          "duration": 0.272727500000002
        },
        {
          "name": "F#2",
          "midi": 42,
          "time": 138.00011500000056,
          "velocity": 0.7874015748031497,
          "duration": 0.272727500000002
        },
        {
          "name": "D2",
          "midi": 38,
          "time": 138.00011500000056,
          "velocity": 0.7874015748031497,
          "duration": 0.272727500000002
        },
        {
          "name": "F#2",
          "midi": 42,
          "time": 138.27284250000056,
          "velocity": 0.7874015748031497,
          "duration": 0.272727500000002
        },
        {
          "name": "F#2",
          "midi": 42,
          "time": 138.54557000000057,
          "velocity": 0.7874015748031497,
          "duration": 0.272727500000002
        },
        {
          "name": "F#2",
          "midi": 42,
          "time": 138.81829750000057,
          "velocity": 0.7874015748031497,
          "duration": 0.272727500000002
        },
        {
          "name": "C2",
          "midi": 36,
          "time": 138.81829750000057,
          "velocity": 0.7874015748031497,
          "duration": 0.272727500000002
        },
        {
          "name": "F#2",
          "midi": 42,
          "time": 139.09102500000057,
          "velocity": 0.7874015748031497,
          "duration": 0.2727274999999736
        },
        {
          "name": "D2",
          "midi": 38,
          "time": 139.09102500000057,
          "velocity": 0.7874015748031497,
          "duration": 0.2727274999999736
        },
        {
          "name": "C2",
          "midi": 36,
          "time": 139.22738875000056,
          "velocity": 0.7874015748031497,
          "duration": 0.1363637499999868
        },
        {
          "name": "F#2",
          "midi": 42,
          "time": 139.36375250000054,
          "velocity": 0.7874015748031497,
          "duration": 0.272727500000002
        },
        {
          "name": "A3",
          "midi": 57,
          "time": 139.63648000000055,
          "velocity": 0.7874015748031497,
          "duration": 0.272727500000002
        },
        {
          "name": "F#2",
          "midi": 42,
          "time": 139.63648000000055,
          "velocity": 0.7874015748031497,
          "duration": 0.272727500000002
        },
        {
          "name": "C2",
          "midi": 36,
          "time": 139.63648000000055,
          "velocity": 0.7874015748031497,
          "duration": 0.272727500000002
        },
        {
          "name": "A3",
          "midi": 57,
          "time": 140.04557125000053,
          "velocity": 0.7874015748031497,
          "duration": 0.272727500000002
        },
        {
          "name": "C2",
          "midi": 36,
          "time": 140.04557125000053,
          "velocity": 0.7874015748031497,
          "duration": 0.272727500000002
        },
        {
          "name": "A3",
          "midi": 57,
          "time": 140.45466250000052,
          "velocity": 0.7874015748031497,
          "duration": 0.272727500000002
        },
        {
          "name": "C2",
          "midi": 36,
          "time": 140.45466250000052,
          "velocity": 0.7874015748031497,
          "duration": 0.272727500000002
        },
        {
          "name": "F#2",
          "midi": 42,
          "time": 140.72739000000053,
          "velocity": 0.7874015748031497,
          "duration": 0.272727500000002
        },
        {
          "name": "F#2",
          "midi": 42,
          "time": 141.00011750000053,
          "velocity": 0.7874015748031497,
          "duration": 0.272727500000002
        },
        {
          "name": "C2",
          "midi": 36,
          "time": 141.00011750000053,
          "velocity": 0.7874015748031497,
          "duration": 0.272727500000002
        },
        {
          "name": "F#2",
          "midi": 42,
          "time": 141.27284500000053,
          "velocity": 0.7874015748031497,
          "duration": 0.2727274999999736
        },
        {
          "name": "D2",
          "midi": 38,
          "time": 141.27284500000053,
          "velocity": 0.7874015748031497,
          "duration": 0.2727274999999736
        },
        {
          "name": "C2",
          "midi": 36,
          "time": 141.40920875000052,
          "velocity": 0.7874015748031497,
          "duration": 0.1363637499999868
        },
        {
          "name": "F#2",
          "midi": 42,
          "time": 141.5455725000005,
          "velocity": 0.7874015748031497,
          "duration": 0.272727500000002
        },
        {
          "name": "A3",
          "midi": 57,
          "time": 141.8183000000005,
          "velocity": 0.7874015748031497,
          "duration": 0.272727500000002
        },
        {
          "name": "F#2",
          "midi": 42,
          "time": 141.8183000000005,
          "velocity": 0.7874015748031497,
          "duration": 0.272727500000002
        },
        {
          "name": "C2",
          "midi": 36,
          "time": 141.8183000000005,
          "velocity": 0.7874015748031497,
          "duration": 0.272727500000002
        },
        {
          "name": "A3",
          "midi": 57,
          "time": 142.2273912500005,
          "velocity": 0.7874015748031497,
          "duration": 0.272727500000002
        },
        {
          "name": "C2",
          "midi": 36,
          "time": 142.2273912500005,
          "velocity": 0.7874015748031497,
          "duration": 0.272727500000002
        },
        {
          "name": "A3",
          "midi": 57,
          "time": 142.63648250000048,
          "velocity": 0.7874015748031497,
          "duration": 0.272727500000002
        },
        {
          "name": "C2",
          "midi": 36,
          "time": 142.63648250000048,
          "velocity": 0.7874015748031497,
          "duration": 0.272727500000002
        },
        {
          "name": "F#2",
          "midi": 42,
          "time": 142.90921000000048,
          "velocity": 0.7874015748031497,
          "duration": 0.272727500000002
        },
        {
          "name": "F#2",
          "midi": 42,
          "time": 143.1819375000005,
          "velocity": 0.7874015748031497,
          "duration": 0.272727500000002
        },
        {
          "name": "C2",
          "midi": 36,
          "time": 143.1819375000005,
          "velocity": 0.7874015748031497,
          "duration": 0.272727500000002
        },
        {
          "name": "F#2",
          "midi": 42,
          "time": 143.4546650000005,
          "velocity": 0.7874015748031497,
          "duration": 0.2727274999999736
        },
        {
          "name": "D2",
          "midi": 38,
          "time": 143.4546650000005,
          "velocity": 0.7874015748031497,
          "duration": 0.2727274999999736
        },
        {
          "name": "C2",
          "midi": 36,
          "time": 143.59102875000048,
          "velocity": 0.7874015748031497,
          "duration": 0.1363637499999868
        },
        {
          "name": "F#2",
          "midi": 42,
          "time": 143.72739250000046,
          "velocity": 0.7874015748031497,
          "duration": 0.272727500000002
        },
        {
          "name": "F#2",
          "midi": 42,
          "time": 144.00012000000046,
          "velocity": 0.7874015748031497,
          "duration": 0.272727500000002
        },
        {
          "name": "C2",
          "midi": 36,
          "time": 144.00012000000046,
          "velocity": 0.7874015748031497,
          "duration": 0.272727500000002
        },
        {
          "name": "F#2",
          "midi": 42,
          "time": 144.27284750000047,
          "velocity": 0.7874015748031497,
          "duration": 0.272727500000002
        },
        {
          "name": "F#2",
          "midi": 42,
          "time": 144.54557500000047,
          "velocity": 0.7874015748031497,
          "duration": 0.272727500000002
        },
        {
          "name": "D2",
          "midi": 38,
          "time": 144.54557500000047,
          "velocity": 0.7874015748031497,
          "duration": 0.272727500000002
        },
        {
          "name": "F#2",
          "midi": 42,
          "time": 144.81830250000047,
          "velocity": 0.7874015748031497,
          "duration": 0.272727500000002
        },
        {
          "name": "F#2",
          "midi": 42,
          "time": 145.09103000000047,
          "velocity": 0.7874015748031497,
          "duration": 0.272727500000002
        },
        {
          "name": "F#2",
          "midi": 42,
          "time": 145.36375750000047,
          "velocity": 0.7874015748031497,
          "duration": 0.272727500000002
        },
        {
          "name": "C2",
          "midi": 36,
          "time": 145.36375750000047,
          "velocity": 0.7874015748031497,
          "duration": 0.272727500000002
        },
        {
          "name": "F#2",
          "midi": 42,
          "time": 145.63648500000048,
          "velocity": 0.7874015748031497,
          "duration": 0.2727274999999736
        },
        {
          "name": "D2",
          "midi": 38,
          "time": 145.63648500000048,
          "velocity": 0.7874015748031497,
          "duration": 0.2727274999999736
        },
        {
          "name": "C2",
          "midi": 36,
          "time": 145.77284875000046,
          "velocity": 0.7874015748031497,
          "duration": 0.1363637499999868
        },
        {
          "name": "F#2",
          "midi": 42,
          "time": 145.90921250000045,
          "velocity": 0.7874015748031497,
          "duration": 0.272727500000002
        },
        {
          "name": "F#2",
          "midi": 42,
          "time": 146.18194000000045,
          "velocity": 0.7874015748031497,
          "duration": 0.272727500000002
        },
        {
          "name": "C2",
          "midi": 36,
          "time": 146.18194000000045,
          "velocity": 0.7874015748031497,
          "duration": 0.272727500000002
        },
        {
          "name": "F#2",
          "midi": 42,
          "time": 146.45466750000045,
          "velocity": 0.7874015748031497,
          "duration": 0.272727500000002
        },
        {
          "name": "F#2",
          "midi": 42,
          "time": 146.72739500000046,
          "velocity": 0.7874015748031497,
          "duration": 0.272727500000002
        },
        {
          "name": "D2",
          "midi": 38,
          "time": 146.72739500000046,
          "velocity": 0.7874015748031497,
          "duration": 0.272727500000002
        },
        {
          "name": "F#2",
          "midi": 42,
          "time": 147.00012250000046,
          "velocity": 0.7874015748031497,
          "duration": 0.272727500000002
        },
        {
          "name": "F#2",
          "midi": 42,
          "time": 147.27285000000046,
          "velocity": 0.7874015748031497,
          "duration": 0.272727500000002
        },
        {
          "name": "F#2",
          "midi": 42,
          "time": 147.54557750000046,
          "velocity": 0.7874015748031497,
          "duration": 0.272727500000002
        },
        {
          "name": "C2",
          "midi": 36,
          "time": 147.54557750000046,
          "velocity": 0.7874015748031497,
          "duration": 0.272727500000002
        },
        {
          "name": "F#2",
          "midi": 42,
          "time": 147.81830500000046,
          "velocity": 0.7874015748031497,
          "duration": 0.2727274999999736
        },
        {
          "name": "D2",
          "midi": 38,
          "time": 147.81830500000046,
          "velocity": 0.7874015748031497,
          "duration": 0.2727274999999736
        },
        {
          "name": "C2",
          "midi": 36,
          "time": 147.95466875000045,
          "velocity": 0.7874015748031497,
          "duration": 0.1363637499999868
        },
        {
          "name": "F#2",
          "midi": 42,
          "time": 148.09103250000044,
          "velocity": 0.7874015748031497,
          "duration": 0.272727500000002
        },
        {
          "name": "F#2",
          "midi": 42,
          "time": 148.36376000000044,
          "velocity": 0.7874015748031497,
          "duration": 0.272727500000002
        },
        {
          "name": "C2",
          "midi": 36,
          "time": 148.36376000000044,
          "velocity": 0.7874015748031497,
          "duration": 0.272727500000002
        },
        {
          "name": "F#2",
          "midi": 42,
          "time": 148.63648750000044,
          "velocity": 0.7874015748031497,
          "duration": 0.272727500000002
        },
        {
          "name": "F#2",
          "midi": 42,
          "time": 148.90921500000044,
          "velocity": 0.7874015748031497,
          "duration": 0.272727500000002
        },
        {
          "name": "D2",
          "midi": 38,
          "time": 148.90921500000044,
          "velocity": 0.7874015748031497,
          "duration": 0.272727500000002
        },
        {
          "name": "F#2",
          "midi": 42,
          "time": 149.18194250000045,
          "velocity": 0.7874015748031497,
          "duration": 0.272727500000002
        },
        {
          "name": "F#2",
          "midi": 42,
          "time": 149.45467000000045,
          "velocity": 0.7874015748031497,
          "duration": 0.272727500000002
        },
        {
          "name": "F#2",
          "midi": 42,
          "time": 149.72739750000045,
          "velocity": 0.7874015748031497,
          "duration": 0.272727500000002
        },
        {
          "name": "C2",
          "midi": 36,
          "time": 149.72739750000045,
          "velocity": 0.7874015748031497,
          "duration": 0.272727500000002
        },
        {
          "name": "F#2",
          "midi": 42,
          "time": 150.00012500000045,
          "velocity": 0.7874015748031497,
          "duration": 0.2727274999999736
        },
        {
          "name": "D2",
          "midi": 38,
          "time": 150.00012500000045,
          "velocity": 0.7874015748031497,
          "duration": 0.2727274999999736
        },
        {
          "name": "C2",
          "midi": 36,
          "time": 150.13648875000044,
          "velocity": 0.7874015748031497,
          "duration": 0.1363637499999868
        },
        {
          "name": "F#2",
          "midi": 42,
          "time": 150.27285250000043,
          "velocity": 0.7874015748031497,
          "duration": 0.272727500000002
        },
        {
          "name": "F#2",
          "midi": 42,
          "time": 150.54558000000043,
          "velocity": 0.7874015748031497,
          "duration": 0.272727500000002
        },
        {
          "name": "C2",
          "midi": 36,
          "time": 150.54558000000043,
          "velocity": 0.7874015748031497,
          "duration": 0.272727500000002
        },
        {
          "name": "F#2",
          "midi": 42,
          "time": 150.81830750000043,
          "velocity": 0.7874015748031497,
          "duration": 0.272727500000002
        },
        {
          "name": "F#2",
          "midi": 42,
          "time": 151.09103500000043,
          "velocity": 0.7874015748031497,
          "duration": 0.272727500000002
        },
        {
          "name": "D2",
          "midi": 38,
          "time": 151.09103500000043,
          "velocity": 0.7874015748031497,
          "duration": 0.272727500000002
        },
        {
          "name": "F#2",
          "midi": 42,
          "time": 151.36376250000043,
          "velocity": 0.7874015748031497,
          "duration": 0.272727500000002
        },
        {
          "name": "F#2",
          "midi": 42,
          "time": 151.63649000000044,
          "velocity": 0.7874015748031497,
          "duration": 0.272727500000002
        },
        {
          "name": "F#2",
          "midi": 42,
          "time": 151.90921750000044,
          "velocity": 0.7874015748031497,
          "duration": 0.272727500000002
        },
        {
          "name": "C2",
          "midi": 36,
          "time": 151.90921750000044,
          "velocity": 0.7874015748031497,
          "duration": 0.272727500000002
        },
        {
          "name": "E3",
          "midi": 52,
          "time": 152.18194500000044,
          "velocity": 0.7874015748031497,
          "duration": 0.545455000000004
        },
        {
          "name": "F#2",
          "midi": 42,
          "time": 152.18194500000044,
          "velocity": 0.7874015748031497,
          "duration": 0.545455000000004
        },
        {
          "name": "D2",
          "midi": 38,
          "time": 152.18194500000044,
          "velocity": 0.7874015748031497,
          "duration": 0.272727500000002
        },
        {
          "name": "A3",
          "midi": 57,
          "time": 152.72740000000044,
          "velocity": 0.7874015748031497,
          "duration": 0.272727500000002
        },
        {
          "name": "A#2",
          "midi": 46,
          "time": 152.72740000000044,
          "velocity": 0.7874015748031497,
          "duration": 0.545455000000004
        },
        {
          "name": "C2",
          "midi": 36,
          "time": 152.72740000000044,
          "velocity": 0.7874015748031497,
          "duration": 0.545455000000004
        },
        {
          "name": "F#2",
          "midi": 42,
          "time": 153.00012750000045,
          "velocity": 0.7874015748031497,
          "duration": 0.272727500000002
        },
        {
          "name": "F#2",
          "midi": 42,
          "time": 153.27285500000045,
          "velocity": 0.7874015748031497,
          "duration": 0.272727500000002
        },
        {
          "name": "D2",
          "midi": 38,
          "time": 153.27285500000045,
          "velocity": 0.7874015748031497,
          "duration": 0.5454549999999756
        },
        {
          "name": "F#2",
          "midi": 42,
          "time": 153.54558250000045,
          "velocity": 0.7874015748031497,
          "duration": 0.2727274999999736
        },
        {
          "name": "C2",
          "midi": 36,
          "time": 153.68194625000044,
          "velocity": 0.7874015748031497,
          "duration": 0.1363637499999868
        },
        {
          "name": "F#2",
          "midi": 42,
          "time": 153.81831000000042,
          "velocity": 0.7874015748031497,
          "duration": 0.2727274999999736
        },
        {
          "name": "C2",
          "midi": 36,
          "time": 153.81831000000042,
          "velocity": 0.7874015748031497,
          "duration": 0.1363637499999868
        },
        {
          "name": "F#2",
          "midi": 42,
          "time": 154.0910375000004,
          "velocity": 0.7874015748031497,
          "duration": 0.272727500000002
        },
        {
          "name": "C2",
          "midi": 36,
          "time": 154.0910375000004,
          "velocity": 0.7874015748031497,
          "duration": 0.272727500000002
        },
        {
          "name": "E3",
          "midi": 52,
          "time": 154.3637650000004,
          "velocity": 0.7874015748031497,
          "duration": 0.272727500000002
        },
        {
          "name": "F#2",
          "midi": 42,
          "time": 154.3637650000004,
          "velocity": 0.7874015748031497,
          "duration": 0.272727500000002
        },
        {
          "name": "D2",
          "midi": 38,
          "time": 154.3637650000004,
          "velocity": 0.7874015748031497,
          "duration": 0.272727500000002
        },
        {
          "name": "F#2",
          "midi": 42,
          "time": 154.6364925000004,
          "velocity": 0.7874015748031497,
          "duration": 0.272727500000002
        },
        {
          "name": "A#2",
          "midi": 46,
          "time": 154.9092200000004,
          "velocity": 0.7874015748031497,
          "duration": 0.545455000000004
        },
        {
          "name": "C2",
          "midi": 36,
          "time": 154.9092200000004,
          "velocity": 0.7874015748031497,
          "duration": 0.545455000000004
        },
        {
          "name": "F#2",
          "midi": 42,
          "time": 155.1819475000004,
          "velocity": 0.7874015748031497,
          "duration": 0.272727500000002
        },
        {
          "name": "F#2",
          "midi": 42,
          "time": 155.4546750000004,
          "velocity": 0.7874015748031497,
          "duration": 0.272727500000002
        },
        {
          "name": "D2",
          "midi": 38,
          "time": 155.4546750000004,
          "velocity": 0.7874015748031497,
          "duration": 0.5454549999999756
        },
        {
          "name": "F#2",
          "midi": 42,
          "time": 155.7274025000004,
          "velocity": 0.7874015748031497,
          "duration": 0.2727274999999736
        },
        {
          "name": "C2",
          "midi": 36,
          "time": 155.8637662500004,
          "velocity": 0.7874015748031497,
          "duration": 0.1363637499999868
        },
        {
          "name": "F#2",
          "midi": 42,
          "time": 156.00013000000038,
          "velocity": 0.7874015748031497,
          "duration": 0.2727274999999736
        },
        {
          "name": "C2",
          "midi": 36,
          "time": 156.00013000000038,
          "velocity": 0.7874015748031497,
          "duration": 0.1363637499999868
        },
        {
          "name": "F#2",
          "midi": 42,
          "time": 156.27285750000036,
          "velocity": 0.7874015748031497,
          "duration": 0.272727500000002
        },
        {
          "name": "C2",
          "midi": 36,
          "time": 156.27285750000036,
          "velocity": 0.7874015748031497,
          "duration": 0.272727500000002
        },
        {
          "name": "F#2",
          "midi": 42,
          "time": 156.54558500000036,
          "velocity": 0.7874015748031497,
          "duration": 0.272727500000002
        },
        {
          "name": "D2",
          "midi": 38,
          "time": 156.54558500000036,
          "velocity": 0.7874015748031497,
          "duration": 0.272727500000002
        },
        {
          "name": "F#2",
          "midi": 42,
          "time": 156.81831250000036,
          "velocity": 0.7874015748031497,
          "duration": 0.272727500000002
        },
        {
          "name": "A#2",
          "midi": 46,
          "time": 157.09104000000036,
          "velocity": 0.7874015748031497,
          "duration": 0.545455000000004
        },
        {
          "name": "C2",
          "midi": 36,
          "time": 157.09104000000036,
          "velocity": 0.7874015748031497,
          "duration": 0.545455000000004
        },
        {
          "name": "F#2",
          "midi": 42,
          "time": 157.36376750000036,
          "velocity": 0.7874015748031497,
          "duration": 0.272727500000002
        },
        {
          "name": "F#2",
          "midi": 42,
          "time": 157.63649500000037,
          "velocity": 0.7874015748031497,
          "duration": 0.272727500000002
        },
        {
          "name": "D2",
          "midi": 38,
          "time": 157.63649500000037,
          "velocity": 0.7874015748031497,
          "duration": 0.5454549999999756
        },
        {
          "name": "F#2",
          "midi": 42,
          "time": 157.90922250000037,
          "velocity": 0.7874015748031497,
          "duration": 0.2727274999999736
        },
        {
          "name": "C2",
          "midi": 36,
          "time": 158.04558625000035,
          "velocity": 0.7874015748031497,
          "duration": 0.1363637499999868
        },
        {
          "name": "F#2",
          "midi": 42,
          "time": 158.18195000000034,
          "velocity": 0.7874015748031497,
          "duration": 0.2727274999999736
        },
        {
          "name": "C2",
          "midi": 36,
          "time": 158.18195000000034,
          "velocity": 0.7874015748031497,
          "duration": 0.1363637499999868
        },
        {
          "name": "F#2",
          "midi": 42,
          "time": 158.45467750000032,
          "velocity": 0.7874015748031497,
          "duration": 0.272727500000002
        },
        {
          "name": "C2",
          "midi": 36,
          "time": 158.45467750000032,
          "velocity": 0.7874015748031497,
          "duration": 0.272727500000002
        },
        {
          "name": "E3",
          "midi": 52,
          "time": 158.72740500000032,
          "velocity": 0.7874015748031497,
          "duration": 0.272727500000002
        },
        {
          "name": "F#2",
          "midi": 42,
          "time": 158.72740500000032,
          "velocity": 0.7874015748031497,
          "duration": 0.272727500000002
        },
        {
          "name": "D2",
          "midi": 38,
          "time": 158.72740500000032,
          "velocity": 0.7874015748031497,
          "duration": 0.272727500000002
        },
        {
          "name": "F#2",
          "midi": 42,
          "time": 159.00013250000032,
          "velocity": 0.7874015748031497,
          "duration": 0.272727500000002
        },
        {
          "name": "A#2",
          "midi": 46,
          "time": 159.27286000000032,
          "velocity": 0.7874015748031497,
          "duration": 0.545455000000004
        },
        {
          "name": "C2",
          "midi": 36,
          "time": 159.27286000000032,
          "velocity": 0.7874015748031497,
          "duration": 0.545455000000004
        },
        {
          "name": "F#2",
          "midi": 42,
          "time": 159.54558750000032,
          "velocity": 0.7874015748031497,
          "duration": 0.272727500000002
        },
        {
          "name": "F#2",
          "midi": 42,
          "time": 159.81831500000033,
          "velocity": 0.7874015748031497,
          "duration": 0.272727500000002
        },
        {
          "name": "D2",
          "midi": 38,
          "time": 159.81831500000033,
          "velocity": 0.7874015748031497,
          "duration": 0.5454549999999756
        },
        {
          "name": "F#2",
          "midi": 42,
          "time": 160.09104250000033,
          "velocity": 0.7874015748031497,
          "duration": 0.2727274999999736
        },
        {
          "name": "C2",
          "midi": 36,
          "time": 160.2274062500003,
          "velocity": 0.7874015748031497,
          "duration": 0.1363637499999868
        },
        {
          "name": "F#2",
          "midi": 42,
          "time": 160.3637700000003,
          "velocity": 0.7874015748031497,
          "duration": 0.2727274999999736
        },
        {
          "name": "C2",
          "midi": 36,
          "time": 160.3637700000003,
          "velocity": 0.7874015748031497,
          "duration": 0.1363637499999868
        },
        {
          "name": "A3",
          "midi": 57,
          "time": 160.63649750000027,
          "velocity": 0.7874015748031497,
          "duration": 0.272727500000002
        },
        {
          "name": "A#2",
          "midi": 46,
          "time": 160.63649750000027,
          "velocity": 0.7874015748031497,
          "duration": 0.272727500000002
        },
        {
          "name": "D2",
          "midi": 38,
          "time": 160.63649750000027,
          "velocity": 0.7874015748031497,
          "duration": 0.272727500000002
        },
        {
          "name": "D2",
          "midi": 38,
          "time": 161.18195250000028,
          "velocity": 0.7874015748031497,
          "duration": 0.272727500000002
        },
        {
          "name": "F#2",
          "midi": 42,
          "time": 161.18195250000028,
          "velocity": 0.7874015748031497,
          "duration": 0.272727500000002
        },
        {
          "name": "A3",
          "midi": 57,
          "time": 161.45468000000028,
          "velocity": 0.7874015748031497,
          "duration": 0.272727500000002
        },
        {
          "name": "A#2",
          "midi": 46,
          "time": 161.45468000000028,
          "velocity": 0.7874015748031497,
          "duration": 0.545455000000004
        },
        {
          "name": "C2",
          "midi": 36,
          "time": 161.45468000000028,
          "velocity": 0.7874015748031497,
          "duration": 0.545455000000004
        },
        {
          "name": "F#2",
          "midi": 42,
          "time": 161.72740750000028,
          "velocity": 0.7874015748031497,
          "duration": 0.272727500000002
        },
        {
          "name": "F#2",
          "midi": 42,
          "time": 162.00013500000028,
          "velocity": 0.7874015748031497,
          "duration": 0.272727500000002
        },
        {
          "name": "D2",
          "midi": 38,
          "time": 162.00013500000028,
          "velocity": 0.7874015748031497,
          "duration": 0.5454549999999756
        },
        {
          "name": "F#2",
          "midi": 42,
          "time": 162.2728625000003,
          "velocity": 0.7874015748031497,
          "duration": 0.2727274999999736
        },
        {
          "name": "C2",
          "midi": 36,
          "time": 162.40922625000027,
          "velocity": 0.7874015748031497,
          "duration": 0.1363637499999868
        },
        {
          "name": "F#2",
          "midi": 42,
          "time": 162.54559000000026,
          "velocity": 0.7874015748031497,
          "duration": 0.2727274999999736
        },
        {
          "name": "C2",
          "midi": 36,
          "time": 162.54559000000026,
          "velocity": 0.7874015748031497,
          "duration": 0.1363637499999868
        },
        {
          "name": "F#2",
          "midi": 42,
          "time": 162.81831750000023,
          "velocity": 0.7874015748031497,
          "duration": 0.272727500000002
        },
        {
          "name": "C2",
          "midi": 36,
          "time": 162.81831750000023,
          "velocity": 0.7874015748031497,
          "duration": 0.272727500000002
        },
        {
          "name": "E3",
          "midi": 52,
          "time": 163.09104500000024,
          "velocity": 0.7874015748031497,
          "duration": 0.272727500000002
        },
        {
          "name": "F#2",
          "midi": 42,
          "time": 163.09104500000024,
          "velocity": 0.7874015748031497,
          "duration": 0.272727500000002
        },
        {
          "name": "D2",
          "midi": 38,
          "time": 163.09104500000024,
          "velocity": 0.7874015748031497,
          "duration": 0.272727500000002
        },
        {
          "name": "F#2",
          "midi": 42,
          "time": 163.36377250000024,
          "velocity": 0.7874015748031497,
          "duration": 0.272727500000002
        },
        {
          "name": "A#2",
          "midi": 46,
          "time": 163.63650000000024,
          "velocity": 0.7874015748031497,
          "duration": 0.545455000000004
        },
        {
          "name": "C2",
          "midi": 36,
          "time": 163.63650000000024,
          "velocity": 0.7874015748031497,
          "duration": 0.545455000000004
        },
        {
          "name": "F#2",
          "midi": 42,
          "time": 163.90922750000024,
          "velocity": 0.7874015748031497,
          "duration": 0.272727500000002
        },
        {
          "name": "F#2",
          "midi": 42,
          "time": 164.18195500000024,
          "velocity": 0.7874015748031497,
          "duration": 0.272727500000002
        },
        {
          "name": "D2",
          "midi": 38,
          "time": 164.18195500000024,
          "velocity": 0.7874015748031497,
          "duration": 0.5454549999999756
        },
        {
          "name": "F#2",
          "midi": 42,
          "time": 164.45468250000025,
          "velocity": 0.7874015748031497,
          "duration": 0.2727274999999736
        },
        {
          "name": "C2",
          "midi": 36,
          "time": 164.59104625000023,
          "velocity": 0.7874015748031497,
          "duration": 0.1363637499999868
        },
        {
          "name": "F#2",
          "midi": 42,
          "time": 164.72741000000022,
          "velocity": 0.7874015748031497,
          "duration": 0.2727274999999736
        },
        {
          "name": "C2",
          "midi": 36,
          "time": 164.72741000000022,
          "velocity": 0.7874015748031497,
          "duration": 0.1363637499999868
        },
        {
          "name": "F#2",
          "midi": 42,
          "time": 165.0001375000002,
          "velocity": 0.7874015748031497,
          "duration": 0.272727500000002
        },
        {
          "name": "C2",
          "midi": 36,
          "time": 165.0001375000002,
          "velocity": 0.7874015748031497,
          "duration": 0.272727500000002
        },
        {
          "name": "F#2",
          "midi": 42,
          "time": 165.2728650000002,
          "velocity": 0.7874015748031497,
          "duration": 0.272727500000002
        },
        {
          "name": "D2",
          "midi": 38,
          "time": 165.2728650000002,
          "velocity": 0.7874015748031497,
          "duration": 0.272727500000002
        },
        {
          "name": "F#2",
          "midi": 42,
          "time": 165.5455925000002,
          "velocity": 0.7874015748031497,
          "duration": 0.272727500000002
        },
        {
          "name": "A#2",
          "midi": 46,
          "time": 165.8183200000002,
          "velocity": 0.7874015748031497,
          "duration": 0.545455000000004
        },
        {
          "name": "C2",
          "midi": 36,
          "time": 165.8183200000002,
          "velocity": 0.7874015748031497,
          "duration": 0.545455000000004
        },
        {
          "name": "F#2",
          "midi": 42,
          "time": 166.0910475000002,
          "velocity": 0.7874015748031497,
          "duration": 0.272727500000002
        },
        {
          "name": "F#2",
          "midi": 42,
          "time": 166.3637750000002,
          "velocity": 0.7874015748031497,
          "duration": 0.272727500000002
        },
        {
          "name": "D2",
          "midi": 38,
          "time": 166.3637750000002,
          "velocity": 0.7874015748031497,
          "duration": 0.5454549999999756
        },
        {
          "name": "F#2",
          "midi": 42,
          "time": 166.6365025000002,
          "velocity": 0.7874015748031497,
          "duration": 0.2727274999999736
        },
        {
          "name": "C2",
          "midi": 36,
          "time": 166.7728662500002,
          "velocity": 0.7874015748031497,
          "duration": 0.1363637499999868
        },
        {
          "name": "F#2",
          "midi": 42,
          "time": 166.90923000000018,
          "velocity": 0.7874015748031497,
          "duration": 0.2727274999999736
        },
        {
          "name": "C2",
          "midi": 36,
          "time": 166.90923000000018,
          "velocity": 0.7874015748031497,
          "duration": 0.1363637499999868
        },
        {
          "name": "F#2",
          "midi": 42,
          "time": 167.18195750000015,
          "velocity": 0.7874015748031497,
          "duration": 0.272727500000002
        },
        {
          "name": "C2",
          "midi": 36,
          "time": 167.18195750000015,
          "velocity": 0.7874015748031497,
          "duration": 0.272727500000002
        },
        {
          "name": "E3",
          "midi": 52,
          "time": 167.45468500000015,
          "velocity": 0.7874015748031497,
          "duration": 0.272727500000002
        },
        {
          "name": "F#2",
          "midi": 42,
          "time": 167.45468500000015,
          "velocity": 0.7874015748031497,
          "duration": 0.272727500000002
        },
        {
          "name": "D2",
          "midi": 38,
          "time": 167.45468500000015,
          "velocity": 0.7874015748031497,
          "duration": 0.272727500000002
        },
        {
          "name": "F#2",
          "midi": 42,
          "time": 167.72741250000016,
          "velocity": 0.7874015748031497,
          "duration": 0.272727500000002
        },
        {
          "name": "A#2",
          "midi": 46,
          "time": 168.00014000000016,
          "velocity": 0.7874015748031497,
          "duration": 0.545455000000004
        },
        {
          "name": "C2",
          "midi": 36,
          "time": 168.00014000000016,
          "velocity": 0.7874015748031497,
          "duration": 0.545455000000004
        },
        {
          "name": "F#2",
          "midi": 42,
          "time": 168.27286750000016,
          "velocity": 0.7874015748031497,
          "duration": 0.272727500000002
        },
        {
          "name": "F#2",
          "midi": 42,
          "time": 168.54559500000016,
          "velocity": 0.7874015748031497,
          "duration": 0.272727500000002
        },
        {
          "name": "D2",
          "midi": 38,
          "time": 168.54559500000016,
          "velocity": 0.7874015748031497,
          "duration": 0.5454549999999756
        },
        {
          "name": "F#2",
          "midi": 42,
          "time": 168.81832250000016,
          "velocity": 0.7874015748031497,
          "duration": 0.2727274999999736
        },
        {
          "name": "C2",
          "midi": 36,
          "time": 168.95468625000015,
          "velocity": 0.7874015748031497,
          "duration": 0.1363637499999868
        },
        {
          "name": "F#2",
          "midi": 42,
          "time": 169.09105000000014,
          "velocity": 0.7874015748031497,
          "duration": 0.2727274999999736
        },
        {
          "name": "C2",
          "midi": 36,
          "time": 169.09105000000014,
          "velocity": 0.7874015748031497,
          "duration": 0.1363637499999868
        },
        {
          "name": "A3",
          "midi": 57,
          "time": 169.3637775000001,
          "velocity": 0.7874015748031497,
          "duration": 0.272727500000002
        },
        {
          "name": "A#2",
          "midi": 46,
          "time": 169.3637775000001,
          "velocity": 0.7874015748031497,
          "duration": 0.272727500000002
        },
        {
          "name": "D2",
          "midi": 38,
          "time": 169.3637775000001,
          "velocity": 0.7874015748031497,
          "duration": 0.272727500000002
        },
        {
          "name": "D2",
          "midi": 38,
          "time": 169.90923250000012,
          "velocity": 0.7874015748031497,
          "duration": 0.272727500000002
        },
        {
          "name": "F#2",
          "midi": 42,
          "time": 169.90923250000012,
          "velocity": 0.7874015748031497,
          "duration": 0.272727500000002
        },
        {
          "name": "A3",
          "midi": 57,
          "time": 170.18196000000012,
          "velocity": 0.7874015748031497,
          "duration": 0.272727500000002
        },
        {
          "name": "A#2",
          "midi": 46,
          "time": 170.18196000000012,
          "velocity": 0.7874015748031497,
          "duration": 0.545455000000004
        },
        {
          "name": "C2",
          "midi": 36,
          "time": 170.18196000000012,
          "velocity": 0.7874015748031497,
          "duration": 0.545455000000004
        },
        {
          "name": "F#2",
          "midi": 42,
          "time": 170.45468750000012,
          "velocity": 0.7874015748031497,
          "duration": 0.272727500000002
        },
        {
          "name": "F#2",
          "midi": 42,
          "time": 170.72741500000012,
          "velocity": 0.7874015748031497,
          "duration": 0.272727500000002
        },
        {
          "name": "D2",
          "midi": 38,
          "time": 170.72741500000012,
          "velocity": 0.7874015748031497,
          "duration": 0.5454549999999756
        },
        {
          "name": "F#2",
          "midi": 42,
          "time": 171.00014250000012,
          "velocity": 0.7874015748031497,
          "duration": 0.2727274999999736
        },
        {
          "name": "C2",
          "midi": 36,
          "time": 171.1365062500001,
          "velocity": 0.7874015748031497,
          "duration": 0.1363637499999868
        },
        {
          "name": "F#2",
          "midi": 42,
          "time": 171.2728700000001,
          "velocity": 0.7874015748031497,
          "duration": 0.2727274999999736
        },
        {
          "name": "C2",
          "midi": 36,
          "time": 171.2728700000001,
          "velocity": 0.7874015748031497,
          "duration": 0.1363637499999868
        },
        {
          "name": "F#2",
          "midi": 42,
          "time": 171.54559750000007,
          "velocity": 0.7874015748031497,
          "duration": 0.272727500000002
        },
        {
          "name": "C2",
          "midi": 36,
          "time": 171.54559750000007,
          "velocity": 0.7874015748031497,
          "duration": 0.272727500000002
        },
        {
          "name": "E3",
          "midi": 52,
          "time": 171.81832500000007,
          "velocity": 0.7874015748031497,
          "duration": 0.272727500000002
        },
        {
          "name": "F#2",
          "midi": 42,
          "time": 171.81832500000007,
          "velocity": 0.7874015748031497,
          "duration": 0.272727500000002
        },
        {
          "name": "D2",
          "midi": 38,
          "time": 171.81832500000007,
          "velocity": 0.7874015748031497,
          "duration": 0.272727500000002
        },
        {
          "name": "F#2",
          "midi": 42,
          "time": 172.09105250000007,
          "velocity": 0.7874015748031497,
          "duration": 0.272727500000002
        },
        {
          "name": "A#2",
          "midi": 46,
          "time": 172.36378000000008,
          "velocity": 0.7874015748031497,
          "duration": 0.545455000000004
        },
        {
          "name": "C2",
          "midi": 36,
          "time": 172.36378000000008,
          "velocity": 0.7874015748031497,
          "duration": 0.545455000000004
        },
        {
          "name": "F#2",
          "midi": 42,
          "time": 172.63650750000008,
          "velocity": 0.7874015748031497,
          "duration": 0.272727500000002
        },
        {
          "name": "F#2",
          "midi": 42,
          "time": 172.90923500000008,
          "velocity": 0.7874015748031497,
          "duration": 0.272727500000002
        },
        {
          "name": "D2",
          "midi": 38,
          "time": 172.90923500000008,
          "velocity": 0.7874015748031497,
          "duration": 0.5454549999999756
        },
        {
          "name": "F#2",
          "midi": 42,
          "time": 173.18196250000008,
          "velocity": 0.7874015748031497,
          "duration": 0.2727274999999736
        },
        {
          "name": "C2",
          "midi": 36,
          "time": 173.31832625000007,
          "velocity": 0.7874015748031497,
          "duration": 0.1363637499999868
        },
        {
          "name": "F#2",
          "midi": 42,
          "time": 173.45469000000006,
          "velocity": 0.7874015748031497,
          "duration": 0.2727274999999736
        },
        {
          "name": "C2",
          "midi": 36,
          "time": 173.45469000000006,
          "velocity": 0.7874015748031497,
          "duration": 0.1363637499999868
        },
        {
          "name": "F#2",
          "midi": 42,
          "time": 173.72741750000003,
          "velocity": 0.7874015748031497,
          "duration": 0.272727500000002
        },
        {
          "name": "C2",
          "midi": 36,
          "time": 173.72741750000003,
          "velocity": 0.7874015748031497,
          "duration": 0.272727500000002
        },
        {
          "name": "F#2",
          "midi": 42,
          "time": 174.00014500000003,
          "velocity": 0.7874015748031497,
          "duration": 0.272727500000002
        },
        {
          "name": "D2",
          "midi": 38,
          "time": 174.00014500000003,
          "velocity": 0.7874015748031497,
          "duration": 0.272727500000002
        },
        {
          "name": "F#2",
          "midi": 42,
          "time": 174.27287250000003,
          "velocity": 0.7874015748031497,
          "duration": 0.272727500000002
        },
        {
          "name": "A#2",
          "midi": 46,
          "time": 174.54560000000004,
          "velocity": 0.7874015748031497,
          "duration": 0.545455000000004
        },
        {
          "name": "C2",
          "midi": 36,
          "time": 174.54560000000004,
          "velocity": 0.7874015748031497,
          "duration": 0.545455000000004
        },
        {
          "name": "F#2",
          "midi": 42,
          "time": 174.81832750000004,
          "velocity": 0.7874015748031497,
          "duration": 0.272727500000002
        },
        {
          "name": "F#2",
          "midi": 42,
          "time": 175.09105500000004,
          "velocity": 0.7874015748031497,
          "duration": 0.272727500000002
        },
        {
          "name": "D2",
          "midi": 38,
          "time": 175.09105500000004,
          "velocity": 0.7874015748031497,
          "duration": 0.5454549999999756
        },
        {
          "name": "F#2",
          "midi": 42,
          "time": 175.36378250000004,
          "velocity": 0.7874015748031497,
          "duration": 0.2727274999999736
        },
        {
          "name": "C2",
          "midi": 36,
          "time": 175.50014625000003,
          "velocity": 0.7874015748031497,
          "duration": 0.1363637499999868
        },
        {
          "name": "F#2",
          "midi": 42,
          "time": 175.63651000000002,
          "velocity": 0.7874015748031497,
          "duration": 0.2727274999999736
        },
        {
          "name": "C2",
          "midi": 36,
          "time": 175.63651000000002,
          "velocity": 0.7874015748031497,
          "duration": 0.1363637499999868
        },
        {
          "name": "F#2",
          "midi": 42,
          "time": 175.9092375,
          "velocity": 0.7874015748031497,
          "duration": 0.272727500000002
        },
        {
          "name": "C2",
          "midi": 36,
          "time": 175.9092375,
          "velocity": 0.7874015748031497,
          "duration": 0.272727500000002
        },
        {
          "name": "E3",
          "midi": 52,
          "time": 176.181965,
          "velocity": 0.7874015748031497,
          "duration": 0.272727500000002
        },
        {
          "name": "F#2",
          "midi": 42,
          "time": 176.181965,
          "velocity": 0.7874015748031497,
          "duration": 0.272727500000002
        },
        {
          "name": "D2",
          "midi": 38,
          "time": 176.181965,
          "velocity": 0.7874015748031497,
          "duration": 0.272727500000002
        },
        {
          "name": "F#2",
          "midi": 42,
          "time": 176.4546925,
          "velocity": 0.7874015748031497,
          "duration": 0.272727500000002
        },
        {
          "name": "A#2",
          "midi": 46,
          "time": 176.72742,
          "velocity": 0.7874015748031497,
          "duration": 0.545455000000004
        },
        {
          "name": "C2",
          "midi": 36,
          "time": 176.72742,
          "velocity": 0.7874015748031497,
          "duration": 0.545455000000004
        },
        {
          "name": "F#2",
          "midi": 42,
          "time": 177.0001475,
          "velocity": 0.7874015748031497,
          "duration": 0.272727500000002
        },
        {
          "name": "F#2",
          "midi": 42,
          "time": 177.272875,
          "velocity": 0.7874015748031497,
          "duration": 0.272727500000002
        },
        {
          "name": "D2",
          "midi": 38,
          "time": 177.272875,
          "velocity": 0.7874015748031497,
          "duration": 0.5454549999999756
        },
        {
          "name": "F#2",
          "midi": 42,
          "time": 177.5456025,
          "velocity": 0.7874015748031497,
          "duration": 0.2727274999999736
        },
        {
          "name": "C2",
          "midi": 36,
          "time": 177.68196625,
          "velocity": 0.7874015748031497,
          "duration": 0.1363637499999868
        },
        {
          "name": "F#2",
          "midi": 42,
          "time": 177.81832999999997,
          "velocity": 0.7874015748031497,
          "duration": 0.2727274999999736
        },
        {
          "name": "C2",
          "midi": 36,
          "time": 177.81832999999997,
          "velocity": 0.7874015748031497,
          "duration": 0.1363637499999868
        },
        {
          "name": "A3",
          "midi": 57,
          "time": 178.09105749999995,
          "velocity": 0.7874015748031497,
          "duration": 0.272727500000002
        },
        {
          "name": "A#2",
          "midi": 46,
          "time": 178.09105749999995,
          "velocity": 0.7874015748031497,
          "duration": 0.272727500000002
        },
        {
          "name": "D2",
          "midi": 38,
          "time": 178.09105749999995,
          "velocity": 0.7874015748031497,
          "duration": 0.272727500000002
        },
        {
          "name": "D2",
          "midi": 38,
          "time": 178.63651249999995,
          "velocity": 0.7874015748031497,
          "duration": 0.272727500000002
        },
        {
          "name": "F#2",
          "midi": 42,
          "time": 178.63651249999995,
          "velocity": 0.7874015748031497,
          "duration": 0.272727500000002
        },
        {
          "name": "A3",
          "midi": 57,
          "time": 178.90923999999995,
          "velocity": 0.7874015748031497,
          "duration": 0.272727500000002
        },
        {
          "name": "A#2",
          "midi": 46,
          "time": 178.90923999999995,
          "velocity": 0.7874015748031497,
          "duration": 0.545455000000004
        },
        {
          "name": "C2",
          "midi": 36,
          "time": 178.90923999999995,
          "velocity": 0.7874015748031497,
          "duration": 0.545455000000004
        },
        {
          "name": "F#2",
          "midi": 42,
          "time": 179.18196749999996,
          "velocity": 0.7874015748031497,
          "duration": 0.272727500000002
        },
        {
          "name": "F#2",
          "midi": 42,
          "time": 179.45469499999996,
          "velocity": 0.7874015748031497,
          "duration": 0.272727500000002
        },
        {
          "name": "D2",
          "midi": 38,
          "time": 179.45469499999996,
          "velocity": 0.7874015748031497,
          "duration": 0.5454549999999756
        },
        {
          "name": "F#2",
          "midi": 42,
          "time": 179.72742249999996,
          "velocity": 0.7874015748031497,
          "duration": 0.2727274999999736
        },
        {
          "name": "C2",
          "midi": 36,
          "time": 179.86378624999995,
          "velocity": 0.7874015748031497,
          "duration": 0.1363637499999868
        },
        {
          "name": "F#2",
          "midi": 42,
          "time": 180.00014999999993,
          "velocity": 0.7874015748031497,
          "duration": 0.2727274999999736
        },
        {
          "name": "C2",
          "midi": 36,
          "time": 180.00014999999993,
          "velocity": 0.7874015748031497,
          "duration": 0.1363637499999868
        },
        {
          "name": "F#2",
          "midi": 42,
          "time": 180.2728774999999,
          "velocity": 0.7874015748031497,
          "duration": 0.272727500000002
        },
        {
          "name": "C2",
          "midi": 36,
          "time": 180.2728774999999,
          "velocity": 0.7874015748031497,
          "duration": 0.272727500000002
        },
        {
          "name": "E3",
          "midi": 52,
          "time": 180.5456049999999,
          "velocity": 0.7874015748031497,
          "duration": 0.272727500000002
        },
        {
          "name": "F#2",
          "midi": 42,
          "time": 180.5456049999999,
          "velocity": 0.7874015748031497,
          "duration": 0.272727500000002
        },
        {
          "name": "D2",
          "midi": 38,
          "time": 180.5456049999999,
          "velocity": 0.7874015748031497,
          "duration": 0.272727500000002
        },
        {
          "name": "F#2",
          "midi": 42,
          "time": 180.8183324999999,
          "velocity": 0.7874015748031497,
          "duration": 0.272727500000002
        },
        {
          "name": "A#2",
          "midi": 46,
          "time": 181.0910599999999,
          "velocity": 0.7874015748031497,
          "duration": 0.545455000000004
        },
        {
          "name": "C2",
          "midi": 36,
          "time": 181.0910599999999,
          "velocity": 0.7874015748031497,
          "duration": 0.545455000000004
        },
        {
          "name": "F#2",
          "midi": 42,
          "time": 181.36378749999992,
          "velocity": 0.7874015748031497,
          "duration": 0.272727500000002
        },
        {
          "name": "F#2",
          "midi": 42,
          "time": 181.63651499999992,
          "velocity": 0.7874015748031497,
          "duration": 0.272727500000002
        },
        {
          "name": "D2",
          "midi": 38,
          "time": 181.63651499999992,
          "velocity": 0.7874015748031497,
          "duration": 0.5454549999999756
        },
        {
          "name": "F#2",
          "midi": 42,
          "time": 181.90924249999992,
          "velocity": 0.7874015748031497,
          "duration": 0.2727274999999736
        },
        {
          "name": "C2",
          "midi": 36,
          "time": 182.0456062499999,
          "velocity": 0.7874015748031497,
          "duration": 0.1363637499999868
        },
        {
          "name": "F#2",
          "midi": 42,
          "time": 182.1819699999999,
          "velocity": 0.7874015748031497,
          "duration": 0.2727274999999736
        },
        {
          "name": "C2",
          "midi": 36,
          "time": 182.1819699999999,
          "velocity": 0.7874015748031497,
          "duration": 0.1363637499999868
        },
        {
          "name": "F#2",
          "midi": 42,
          "time": 182.45469749999987,
          "velocity": 0.7874015748031497,
          "duration": 0.272727500000002
        },
        {
          "name": "C2",
          "midi": 36,
          "time": 182.45469749999987,
          "velocity": 0.7874015748031497,
          "duration": 0.272727500000002
        },
        {
          "name": "F#2",
          "midi": 42,
          "time": 182.72742499999987,
          "velocity": 0.7874015748031497,
          "duration": 0.272727500000002
        },
        {
          "name": "D2",
          "midi": 38,
          "time": 182.72742499999987,
          "velocity": 0.7874015748031497,
          "duration": 0.272727500000002
        },
        {
          "name": "F#2",
          "midi": 42,
          "time": 183.00015249999987,
          "velocity": 0.7874015748031497,
          "duration": 0.272727500000002
        },
        {
          "name": "A#2",
          "midi": 46,
          "time": 183.27287999999987,
          "velocity": 0.7874015748031497,
          "duration": 0.545455000000004
        },
        {
          "name": "C2",
          "midi": 36,
          "time": 183.27287999999987,
          "velocity": 0.7874015748031497,
          "duration": 0.545455000000004
        },
        {
          "name": "F#2",
          "midi": 42,
          "time": 183.54560749999987,
          "velocity": 0.7874015748031497,
          "duration": 0.272727500000002
        },
        {
          "name": "F#2",
          "midi": 42,
          "time": 183.81833499999988,
          "velocity": 0.7874015748031497,
          "duration": 0.272727500000002
        },
        {
          "name": "D2",
          "midi": 38,
          "time": 183.81833499999988,
          "velocity": 0.7874015748031497,
          "duration": 0.5454549999999756
        },
        {
          "name": "F#2",
          "midi": 42,
          "time": 184.09106249999988,
          "velocity": 0.7874015748031497,
          "duration": 0.2727274999999736
        },
        {
          "name": "C2",
          "midi": 36,
          "time": 184.22742624999987,
          "velocity": 0.7874015748031497,
          "duration": 0.1363637499999868
        },
        {
          "name": "F#2",
          "midi": 42,
          "time": 184.36378999999985,
          "velocity": 0.7874015748031497,
          "duration": 0.2727274999999736
        },
        {
          "name": "C2",
          "midi": 36,
          "time": 184.36378999999985,
          "velocity": 0.7874015748031497,
          "duration": 0.1363637499999868
        },
        {
          "name": "F#2",
          "midi": 42,
          "time": 184.63651749999983,
          "velocity": 0.7874015748031497,
          "duration": 0.272727500000002
        },
        {
          "name": "C2",
          "midi": 36,
          "time": 184.63651749999983,
          "velocity": 0.7874015748031497,
          "duration": 0.272727500000002
        },
        {
          "name": "E3",
          "midi": 52,
          "time": 184.90924499999983,
          "velocity": 0.7874015748031497,
          "duration": 0.272727500000002
        },
        {
          "name": "F#2",
          "midi": 42,
          "time": 184.90924499999983,
          "velocity": 0.7874015748031497,
          "duration": 0.272727500000002
        },
        {
          "name": "D2",
          "midi": 38,
          "time": 184.90924499999983,
          "velocity": 0.7874015748031497,
          "duration": 0.272727500000002
        },
        {
          "name": "F#2",
          "midi": 42,
          "time": 185.18197249999983,
          "velocity": 0.7874015748031497,
          "duration": 0.272727500000002
        },
        {
          "name": "A#2",
          "midi": 46,
          "time": 185.45469999999983,
          "velocity": 0.7874015748031497,
          "duration": 0.545455000000004
        },
        {
          "name": "C2",
          "midi": 36,
          "time": 185.45469999999983,
          "velocity": 0.7874015748031497,
          "duration": 0.545455000000004
        },
        {
          "name": "F#2",
          "midi": 42,
          "time": 185.72742749999983,
          "velocity": 0.7874015748031497,
          "duration": 0.272727500000002
        },
        {
          "name": "F#2",
          "midi": 42,
          "time": 186.00015499999984,
          "velocity": 0.7874015748031497,
          "duration": 0.272727500000002
        },
        {
          "name": "D2",
          "midi": 38,
          "time": 186.00015499999984,
          "velocity": 0.7874015748031497,
          "duration": 0.5454549999999756
        },
        {
          "name": "F#2",
          "midi": 42,
          "time": 186.27288249999984,
          "velocity": 0.7874015748031497,
          "duration": 0.2727274999999736
        },
        {
          "name": "C2",
          "midi": 36,
          "time": 186.40924624999982,
          "velocity": 0.7874015748031497,
          "duration": 0.1363637499999868
        },
        {
          "name": "F#2",
          "midi": 42,
          "time": 186.5456099999998,
          "velocity": 0.7874015748031497,
          "duration": 0.2727274999999736
        },
        {
          "name": "C2",
          "midi": 36,
          "time": 186.5456099999998,
          "velocity": 0.7874015748031497,
          "duration": 0.1363637499999868
        },
        {
          "name": "A3",
          "midi": 57,
          "time": 186.81833749999979,
          "velocity": 0.7874015748031497,
          "duration": 0.272727500000002
        },
        {
          "name": "A#2",
          "midi": 46,
          "time": 186.81833749999979,
          "velocity": 0.7874015748031497,
          "duration": 0.272727500000002
        },
        {
          "name": "D2",
          "midi": 38,
          "time": 186.81833749999979,
          "velocity": 0.7874015748031497,
          "duration": 0.272727500000002
        },
        {
          "name": "D2",
          "midi": 38,
          "time": 187.3637924999998,
          "velocity": 0.7874015748031497,
          "duration": 0.272727500000002
        },
        {
          "name": "F#2",
          "midi": 42,
          "time": 187.3637924999998,
          "velocity": 0.7874015748031497,
          "duration": 0.272727500000002
        },
        {
          "name": "A3",
          "midi": 57,
          "time": 187.6365199999998,
          "velocity": 0.7874015748031497,
          "duration": 0.272727500000002
        },
        {
          "name": "A#2",
          "midi": 46,
          "time": 187.6365199999998,
          "velocity": 0.7874015748031497,
          "duration": 0.545455000000004
        },
        {
          "name": "C2",
          "midi": 36,
          "time": 187.6365199999998,
          "velocity": 0.7874015748031497,
          "duration": 0.545455000000004
        },
        {
          "name": "F#2",
          "midi": 42,
          "time": 187.9092474999998,
          "velocity": 0.7874015748031497,
          "duration": 0.272727500000002
        },
        {
          "name": "F#2",
          "midi": 42,
          "time": 188.1819749999998,
          "velocity": 0.7874015748031497,
          "duration": 0.272727500000002
        },
        {
          "name": "D2",
          "midi": 38,
          "time": 188.1819749999998,
          "velocity": 0.7874015748031497,
          "duration": 0.5454549999999756
        },
        {
          "name": "F#2",
          "midi": 42,
          "time": 188.4547024999998,
          "velocity": 0.7874015748031497,
          "duration": 0.2727274999999736
        },
        {
          "name": "C2",
          "midi": 36,
          "time": 188.59106624999978,
          "velocity": 0.7874015748031497,
          "duration": 0.1363637499999868
        },
        {
          "name": "F#2",
          "midi": 42,
          "time": 188.72742999999977,
          "velocity": 0.7874015748031497,
          "duration": 0.2727274999999736
        },
        {
          "name": "C2",
          "midi": 36,
          "time": 188.72742999999977,
          "velocity": 0.7874015748031497,
          "duration": 0.1363637499999868
        },
        {
          "name": "F#2",
          "midi": 42,
          "time": 189.00015749999974,
          "velocity": 0.7874015748031497,
          "duration": 0.272727500000002
        },
        {
          "name": "C2",
          "midi": 36,
          "time": 189.00015749999974,
          "velocity": 0.7874015748031497,
          "duration": 0.272727500000002
        },
        {
          "name": "E3",
          "midi": 52,
          "time": 189.27288499999975,
          "velocity": 0.7874015748031497,
          "duration": 0.272727500000002
        },
        {
          "name": "F#2",
          "midi": 42,
          "time": 189.27288499999975,
          "velocity": 0.7874015748031497,
          "duration": 0.272727500000002
        },
        {
          "name": "D2",
          "midi": 38,
          "time": 189.27288499999975,
          "velocity": 0.7874015748031497,
          "duration": 0.272727500000002
        },
        {
          "name": "F#2",
          "midi": 42,
          "time": 189.54561249999975,
          "velocity": 0.7874015748031497,
          "duration": 0.272727500000002
        },
        {
          "name": "A#2",
          "midi": 46,
          "time": 189.81833999999975,
          "velocity": 0.7874015748031497,
          "duration": 0.545455000000004
        },
        {
          "name": "C2",
          "midi": 36,
          "time": 189.81833999999975,
          "velocity": 0.7874015748031497,
          "duration": 0.545455000000004
        },
        {
          "name": "F#2",
          "midi": 42,
          "time": 190.09106749999975,
          "velocity": 0.7874015748031497,
          "duration": 0.272727500000002
        },
        {
          "name": "F#2",
          "midi": 42,
          "time": 190.36379499999975,
          "velocity": 0.7874015748031497,
          "duration": 0.272727500000002
        },
        {
          "name": "D2",
          "midi": 38,
          "time": 190.36379499999975,
          "velocity": 0.7874015748031497,
          "duration": 0.5454549999999756
        },
        {
          "name": "F#2",
          "midi": 42,
          "time": 190.63652249999976,
          "velocity": 0.7874015748031497,
          "duration": 0.2727274999999736
        },
        {
          "name": "C2",
          "midi": 36,
          "time": 190.77288624999974,
          "velocity": 0.7874015748031497,
          "duration": 0.1363637499999868
        },
        {
          "name": "F#2",
          "midi": 42,
          "time": 190.90924999999973,
          "velocity": 0.7874015748031497,
          "duration": 0.2727274999999736
        },
        {
          "name": "C2",
          "midi": 36,
          "time": 190.90924999999973,
          "velocity": 0.7874015748031497,
          "duration": 0.1363637499999868
        },
        {
          "name": "F#2",
          "midi": 42,
          "time": 191.1819774999997,
          "velocity": 0.7874015748031497,
          "duration": 0.272727500000002
        },
        {
          "name": "C2",
          "midi": 36,
          "time": 191.1819774999997,
          "velocity": 0.7874015748031497,
          "duration": 0.272727500000002
        },
        {
          "name": "F#2",
          "midi": 42,
          "time": 191.4547049999997,
          "velocity": 0.7874015748031497,
          "duration": 0.272727500000002
        },
        {
          "name": "D2",
          "midi": 38,
          "time": 191.4547049999997,
          "velocity": 0.7874015748031497,
          "duration": 0.272727500000002
        },
        {
          "name": "F#2",
          "midi": 42,
          "time": 191.7274324999997,
          "velocity": 0.7874015748031497,
          "duration": 0.272727500000002
        },
        {
          "name": "A#2",
          "midi": 46,
          "time": 192.0001599999997,
          "velocity": 0.7874015748031497,
          "duration": 0.545455000000004
        },
        {
          "name": "C2",
          "midi": 36,
          "time": 192.0001599999997,
          "velocity": 0.7874015748031497,
          "duration": 0.545455000000004
        },
        {
          "name": "F#2",
          "midi": 42,
          "time": 192.2728874999997,
          "velocity": 0.7874015748031497,
          "duration": 0.272727500000002
        },
        {
          "name": "F#2",
          "midi": 42,
          "time": 192.5456149999997,
          "velocity": 0.7874015748031497,
          "duration": 0.272727500000002
        },
        {
          "name": "D2",
          "midi": 38,
          "time": 192.5456149999997,
          "velocity": 0.7874015748031497,
          "duration": 0.5454549999999756
        },
        {
          "name": "F#2",
          "midi": 42,
          "time": 192.81834249999972,
          "velocity": 0.7874015748031497,
          "duration": 0.2727274999999736
        },
        {
          "name": "C2",
          "midi": 36,
          "time": 192.9547062499997,
          "velocity": 0.7874015748031497,
          "duration": 0.1363637499999868
        },
        {
          "name": "F#2",
          "midi": 42,
          "time": 193.0910699999997,
          "velocity": 0.7874015748031497,
          "duration": 0.2727274999999736
        },
        {
          "name": "C2",
          "midi": 36,
          "time": 193.0910699999997,
          "velocity": 0.7874015748031497,
          "duration": 0.1363637499999868
        },
        {
          "name": "F#2",
          "midi": 42,
          "time": 193.36379749999966,
          "velocity": 0.7874015748031497,
          "duration": 0.272727500000002
        },
        {
          "name": "C2",
          "midi": 36,
          "time": 193.36379749999966,
          "velocity": 0.7874015748031497,
          "duration": 0.272727500000002
        },
        {
          "name": "E3",
          "midi": 52,
          "time": 193.63652499999966,
          "velocity": 0.7874015748031497,
          "duration": 0.272727500000002
        },
        {
          "name": "F#2",
          "midi": 42,
          "time": 193.63652499999966,
          "velocity": 0.7874015748031497,
          "duration": 0.272727500000002
        },
        {
          "name": "D2",
          "midi": 38,
          "time": 193.63652499999966,
          "velocity": 0.7874015748031497,
          "duration": 0.272727500000002
        },
        {
          "name": "F#2",
          "midi": 42,
          "time": 193.90925249999967,
          "velocity": 0.7874015748031497,
          "duration": 0.272727500000002
        },
        {
          "name": "A#2",
          "midi": 46,
          "time": 194.18197999999967,
          "velocity": 0.7874015748031497,
          "duration": 0.545455000000004
        },
        {
          "name": "C2",
          "midi": 36,
          "time": 194.18197999999967,
          "velocity": 0.7874015748031497,
          "duration": 0.545455000000004
        },
        {
          "name": "F#2",
          "midi": 42,
          "time": 194.45470749999967,
          "velocity": 0.7874015748031497,
          "duration": 0.272727500000002
        },
        {
          "name": "F#2",
          "midi": 42,
          "time": 194.72743499999967,
          "velocity": 0.7874015748031497,
          "duration": 0.272727500000002
        },
        {
          "name": "D2",
          "midi": 38,
          "time": 194.72743499999967,
          "velocity": 0.7874015748031497,
          "duration": 0.5454549999999756
        },
        {
          "name": "F#2",
          "midi": 42,
          "time": 195.00016249999967,
          "velocity": 0.7874015748031497,
          "duration": 0.2727274999999736
        },
        {
          "name": "C2",
          "midi": 36,
          "time": 195.13652624999966,
          "velocity": 0.7874015748031497,
          "duration": 0.1363637499999868
        },
        {
          "name": "F#2",
          "midi": 42,
          "time": 195.27288999999965,
          "velocity": 0.7874015748031497,
          "duration": 0.2727274999999736
        },
        {
          "name": "C2",
          "midi": 36,
          "time": 195.27288999999965,
          "velocity": 0.7874015748031497,
          "duration": 0.1363637499999868
        },
        {
          "name": "A3",
          "midi": 57,
          "time": 195.54561749999962,
          "velocity": 0.7874015748031497,
          "duration": 0.272727500000002
        },
        {
          "name": "A#2",
          "midi": 46,
          "time": 195.54561749999962,
          "velocity": 0.7874015748031497,
          "duration": 0.272727500000002
        },
        {
          "name": "D2",
          "midi": 38,
          "time": 195.54561749999962,
          "velocity": 0.7874015748031497,
          "duration": 0.272727500000002
        },
        {
          "name": "D2",
          "midi": 38,
          "time": 196.09107249999963,
          "velocity": 0.7874015748031497,
          "duration": 0.272727500000002
        },
        {
          "name": "F#2",
          "midi": 42,
          "time": 196.09107249999963,
          "velocity": 0.7874015748031497,
          "duration": 0.272727500000002
        }
      ],
      "controlChanges": {
        "7": [
          {
            "number": 7,
            "time": 0,
            "value": 1
          }
        ]
      },
      "id": 1,
      "name": "Drums",
      "channelNumber": 9,
      "isPercussion": true
    },
    {
      "startTime": 4.50000375,
      "duration": 196.0910724999983,
      "length": 369,
      "notes": [
        {
          "name": "A#2",
          "midi": 46,
          "time": 4.50000375,
          "velocity": 0.7874015748031497,
          "duration": 0.13636375000000012
        },
        {
          "name": "B2",
          "midi": 47,
          "time": 4.6363675,
          "velocity": 0.7874015748031497,
          "duration": 0.13636375000000012
        },
        {
          "name": "E3",
          "midi": 52,
          "time": 4.7727312500000005,
          "velocity": 0.7874015748031497,
          "duration": 0.13636375000000012
        },
        {
          "name": "A2",
          "midi": 45,
          "time": 5.045458750000001,
          "velocity": 0.7874015748031497,
          "duration": 0.13636375000000012
        },
        {
          "name": "A#2",
          "midi": 46,
          "time": 5.181822500000001,
          "velocity": 0.7874015748031497,
          "duration": 0.13636375000000012
        },
        {
          "name": "B2",
          "midi": 47,
          "time": 5.318186250000001,
          "velocity": 0.7874015748031497,
          "duration": 0.13636375000000012
        },
        {
          "name": "E3",
          "midi": 52,
          "time": 5.454550000000001,
          "velocity": 0.7874015748031497,
          "duration": 0.27272750000000023
        },
        {
          "name": "E2",
          "midi": 40,
          "time": 5.727277500000001,
          "velocity": 0.7874015748031497,
          "duration": 0.27272750000000023
        },
        {
          "name": "A2",
          "midi": 45,
          "time": 6.545460000000002,
          "velocity": 0.7874015748031497,
          "duration": 0.13636375000000012
        },
        {
          "name": "A#2",
          "midi": 46,
          "time": 6.681823750000002,
          "velocity": 0.7874015748031497,
          "duration": 0.13636375000000012
        },
        {
          "name": "B2",
          "midi": 47,
          "time": 6.818187500000002,
          "velocity": 0.7874015748031497,
          "duration": 0.13636375000000012
        },
        {
          "name": "E3",
          "midi": 52,
          "time": 6.954551250000002,
          "velocity": 0.7874015748031497,
          "duration": 0.13636375000000012
        },
        {
          "name": "A2",
          "midi": 45,
          "time": 7.227278750000003,
          "velocity": 0.7874015748031497,
          "duration": 0.13636375000000012
        },
        {
          "name": "A#2",
          "midi": 46,
          "time": 7.363642500000003,
          "velocity": 0.7874015748031497,
          "duration": 0.13636375000000012
        },
        {
          "name": "B2",
          "midi": 47,
          "time": 7.500006250000003,
          "velocity": 0.7874015748031497,
          "duration": 0.13636375000000012
        },
        {
          "name": "E3",
          "midi": 52,
          "time": 7.636370000000003,
          "velocity": 0.7874015748031497,
          "duration": 0.27272750000000023
        },
        {
          "name": "G2",
          "midi": 43,
          "time": 7.909097500000003,
          "velocity": 0.7874015748031497,
          "duration": 0.13636374999999923
        },
        {
          "name": "E2",
          "midi": 40,
          "time": 8.045461250000002,
          "velocity": 0.7874015748031497,
          "duration": 0.13636374999999923
        },
        {
          "name": "E3",
          "midi": 52,
          "time": 8.181825000000002,
          "velocity": 1,
          "duration": 0.5454550000000005
        },
        {
          "name": "A2",
          "midi": 45,
          "time": 8.727280000000002,
          "velocity": 0.7874015748031497,
          "duration": 0.13636374999999923
        },
        {
          "name": "A#2",
          "midi": 46,
          "time": 8.863643750000001,
          "velocity": 0.7874015748031497,
          "duration": 0.13636374999999923
        },
        {
          "name": "B2",
          "midi": 47,
          "time": 9.0000075,
          "velocity": 0.7874015748031497,
          "duration": 0.13636374999999923
        },
        {
          "name": "E3",
          "midi": 52,
          "time": 9.13637125,
          "velocity": 0.7874015748031497,
          "duration": 0.13636374999999923
        },
        {
          "name": "A2",
          "midi": 45,
          "time": 9.409098749999998,
          "velocity": 0.7874015748031497,
          "duration": 0.13636374999999923
        },
        {
          "name": "A#2",
          "midi": 46,
          "time": 9.545462499999998,
          "velocity": 0.7874015748031497,
          "duration": 0.13636374999999923
        },
        {
          "name": "B2",
          "midi": 47,
          "time": 9.681826249999997,
          "velocity": 0.7874015748031497,
          "duration": 0.13636374999999923
        },
        {
          "name": "E3",
          "midi": 52,
          "time": 9.818189999999996,
          "velocity": 0.7874015748031497,
          "duration": 0.27272750000000023
        },
        {
          "name": "E2",
          "midi": 40,
          "time": 10.090917499999996,
          "velocity": 0.7874015748031497,
          "duration": 0.27272750000000023
        },
        {
          "name": "A2",
          "midi": 45,
          "time": 10.909099999999997,
          "velocity": 0.7874015748031497,
          "duration": 0.13636374999999923
        },
        {
          "name": "A#2",
          "midi": 46,
          "time": 11.045463749999996,
          "velocity": 0.7874015748031497,
          "duration": 0.13636374999999923
        },
        {
          "name": "B2",
          "midi": 47,
          "time": 11.181827499999995,
          "velocity": 0.7874015748031497,
          "duration": 0.13636374999999923
        },
        {
          "name": "E3",
          "midi": 52,
          "time": 11.318191249999995,
          "velocity": 0.7874015748031497,
          "duration": 0.13636374999999923
        },
        {
          "name": "A2",
          "midi": 45,
          "time": 11.590918749999993,
          "velocity": 0.7874015748031497,
          "duration": 0.13636374999999923
        },
        {
          "name": "A#2",
          "midi": 46,
          "time": 11.727282499999992,
          "velocity": 0.7874015748031497,
          "duration": 0.13636374999999923
        },
        {
          "name": "B2",
          "midi": 47,
          "time": 11.863646249999992,
          "velocity": 0.7874015748031497,
          "duration": 0.13636374999999923
        },
        {
          "name": "E3",
          "midi": 52,
          "time": 12.00000999999999,
          "velocity": 0.7874015748031497,
          "duration": 0.27272749999999846
        },
        {
          "name": "A3",
          "midi": 57,
          "time": 12.27273749999999,
          "velocity": 0.7874015748031497,
          "duration": 1.0909099999999938
        },
        {
          "name": "E3",
          "midi": 52,
          "time": 12.27273749999999,
          "velocity": 0.7874015748031497,
          "duration": 1.0909099999999938
        },
        {
          "name": "A2",
          "midi": 45,
          "time": 12.27273749999999,
          "velocity": 0.7874015748031497,
          "duration": 1.0909099999999938
        },
        {
          "name": "C3",
          "midi": 48,
          "time": 13.090919999999985,
          "velocity": 0.7874015748031497,
          "duration": 0.13636374999999923
        },
        {
          "name": "A2",
          "midi": 45,
          "time": 30.54547999999998,
          "velocity": 0.7874015748031497,
          "duration": 0.136363750000001
        },
        {
          "name": "A#2",
          "midi": 46,
          "time": 30.68184374999998,
          "velocity": 0.7874015748031497,
          "duration": 0.136363750000001
        },
        {
          "name": "B2",
          "midi": 47,
          "time": 30.818207499999982,
          "velocity": 0.7874015748031497,
          "duration": 0.136363750000001
        },
        {
          "name": "E3",
          "midi": 52,
          "time": 30.954571249999983,
          "velocity": 0.7874015748031497,
          "duration": 0.136363750000001
        },
        {
          "name": "A2",
          "midi": 45,
          "time": 31.227298749999985,
          "velocity": 0.7874015748031497,
          "duration": 0.136363750000001
        },
        {
          "name": "A#2",
          "midi": 46,
          "time": 31.363662499999986,
          "velocity": 0.7874015748031497,
          "duration": 0.136363750000001
        },
        {
          "name": "B2",
          "midi": 47,
          "time": 31.500026249999987,
          "velocity": 0.7874015748031497,
          "duration": 0.136363750000001
        },
        {
          "name": "E3",
          "midi": 52,
          "time": 31.636389999999988,
          "velocity": 0.7874015748031497,
          "duration": 0.27272749999999846
        },
        {
          "name": "E2",
          "midi": 40,
          "time": 31.909117499999986,
          "velocity": 0.7874015748031497,
          "duration": 0.272727500000002
        },
        {
          "name": "A2",
          "midi": 45,
          "time": 32.727299999999985,
          "velocity": 0.7874015748031497,
          "duration": 0.136363750000001
        },
        {
          "name": "A#2",
          "midi": 46,
          "time": 32.863663749999986,
          "velocity": 0.7874015748031497,
          "duration": 0.136363750000001
        },
        {
          "name": "B2",
          "midi": 47,
          "time": 33.00002749999999,
          "velocity": 0.7874015748031497,
          "duration": 0.136363750000001
        },
        {
          "name": "E3",
          "midi": 52,
          "time": 33.13639124999999,
          "velocity": 0.7874015748031497,
          "duration": 0.136363750000001
        },
        {
          "name": "A2",
          "midi": 45,
          "time": 33.40911874999999,
          "velocity": 0.7874015748031497,
          "duration": 0.136363750000001
        },
        {
          "name": "A#2",
          "midi": 46,
          "time": 33.54548249999999,
          "velocity": 0.7874015748031497,
          "duration": 0.136363750000001
        },
        {
          "name": "B2",
          "midi": 47,
          "time": 33.68184624999999,
          "velocity": 0.7874015748031497,
          "duration": 0.136363750000001
        },
        {
          "name": "E3",
          "midi": 52,
          "time": 33.81820999999999,
          "velocity": 0.7874015748031497,
          "duration": 0.272727500000002
        },
        {
          "name": "G2",
          "midi": 43,
          "time": 34.090937499999995,
          "velocity": 0.7874015748031497,
          "duration": 0.136363750000001
        },
        {
          "name": "E2",
          "midi": 40,
          "time": 34.22730125,
          "velocity": 0.7874015748031497,
          "duration": 0.136363750000001
        },
        {
          "name": "E3",
          "midi": 52,
          "time": 34.363665,
          "velocity": 1,
          "duration": 0.5454549999999969
        },
        {
          "name": "A2",
          "midi": 45,
          "time": 34.909119999999994,
          "velocity": 0.7874015748031497,
          "duration": 0.136363750000001
        },
        {
          "name": "A#2",
          "midi": 46,
          "time": 35.045483749999995,
          "velocity": 0.7874015748031497,
          "duration": 0.136363750000001
        },
        {
          "name": "B2",
          "midi": 47,
          "time": 35.181847499999996,
          "velocity": 0.7874015748031497,
          "duration": 0.136363750000001
        },
        {
          "name": "E3",
          "midi": 52,
          "time": 35.31821125,
          "velocity": 0.7874015748031497,
          "duration": 0.136363750000001
        },
        {
          "name": "A2",
          "midi": 45,
          "time": 35.59093875,
          "velocity": 0.7874015748031497,
          "duration": 0.136363750000001
        },
        {
          "name": "A#2",
          "midi": 46,
          "time": 35.7273025,
          "velocity": 0.7874015748031497,
          "duration": 0.136363750000001
        },
        {
          "name": "B2",
          "midi": 47,
          "time": 35.86366625,
          "velocity": 0.7874015748031497,
          "duration": 0.136363750000001
        },
        {
          "name": "E3",
          "midi": 52,
          "time": 36.00003,
          "velocity": 0.7874015748031497,
          "duration": 0.272727500000002
        },
        {
          "name": "E2",
          "midi": 40,
          "time": 36.272757500000004,
          "velocity": 0.7874015748031497,
          "duration": 0.272727500000002
        },
        {
          "name": "A2",
          "midi": 45,
          "time": 37.09094,
          "velocity": 0.7874015748031497,
          "duration": 0.136363750000001
        },
        {
          "name": "A#2",
          "midi": 46,
          "time": 37.227303750000004,
          "velocity": 0.7874015748031497,
          "duration": 0.136363750000001
        },
        {
          "name": "B2",
          "midi": 47,
          "time": 37.363667500000005,
          "velocity": 0.7874015748031497,
          "duration": 0.136363750000001
        },
        {
          "name": "E3",
          "midi": 52,
          "time": 37.500031250000006,
          "velocity": 0.7874015748031497,
          "duration": 0.136363750000001
        },
        {
          "name": "A2",
          "midi": 45,
          "time": 37.77275875000001,
          "velocity": 0.7874015748031497,
          "duration": 0.136363750000001
        },
        {
          "name": "A#2",
          "midi": 46,
          "time": 37.90912250000001,
          "velocity": 0.7874015748031497,
          "duration": 0.136363750000001
        },
        {
          "name": "B2",
          "midi": 47,
          "time": 38.04548625000001,
          "velocity": 0.7874015748031497,
          "duration": 0.136363750000001
        },
        {
          "name": "E3",
          "midi": 52,
          "time": 38.18185000000001,
          "velocity": 0.7874015748031497,
          "duration": 0.272727500000002
        },
        {
          "name": "A3",
          "midi": 57,
          "time": 38.45457750000001,
          "velocity": 0.7874015748031497,
          "duration": 1.090910000000001
        },
        {
          "name": "E3",
          "midi": 52,
          "time": 38.45457750000001,
          "velocity": 0.7874015748031497,
          "duration": 1.090910000000001
        },
        {
          "name": "A2",
          "midi": 45,
          "time": 38.45457750000001,
          "velocity": 0.7874015748031497,
          "duration": 1.090910000000001
        },
        {
          "name": "C3",
          "midi": 48,
          "time": 39.27276000000001,
          "velocity": 0.7874015748031497,
          "duration": 0.136363750000001
        },
        {
          "name": "A4",
          "midi": 69,
          "time": 56.72732000000002,
          "velocity": 0.7874015748031497,
          "duration": 1.6363650000000334
        },
        {
          "name": "D#4",
          "midi": 63,
          "time": 56.72732000000002,
          "velocity": 0.7874015748031497,
          "duration": 1.6363650000000334
        },
        {
          "name": "A2",
          "midi": 45,
          "time": 74.18188000000009,
          "velocity": 0.7874015748031497,
          "duration": 0.136363750000001
        },
        {
          "name": "A#2",
          "midi": 46,
          "time": 74.3182437500001,
          "velocity": 0.7874015748031497,
          "duration": 0.136363750000001
        },
        {
          "name": "B2",
          "midi": 47,
          "time": 74.4546075000001,
          "velocity": 0.7874015748031497,
          "duration": 0.136363750000001
        },
        {
          "name": "E3",
          "midi": 52,
          "time": 74.5909712500001,
          "velocity": 0.7874015748031497,
          "duration": 0.136363750000001
        },
        {
          "name": "A2",
          "midi": 45,
          "time": 74.8636987500001,
          "velocity": 0.7874015748031497,
          "duration": 0.136363750000001
        },
        {
          "name": "A#2",
          "midi": 46,
          "time": 75.0000625000001,
          "velocity": 0.7874015748031497,
          "duration": 0.136363750000001
        },
        {
          "name": "B2",
          "midi": 47,
          "time": 75.1364262500001,
          "velocity": 0.7874015748031497,
          "duration": 0.136363750000001
        },
        {
          "name": "E3",
          "midi": 52,
          "time": 75.2727900000001,
          "velocity": 0.7874015748031497,
          "duration": 0.272727500000002
        },
        {
          "name": "E2",
          "midi": 40,
          "time": 75.5455175000001,
          "velocity": 0.7874015748031497,
          "duration": 0.272727500000002
        },
        {
          "name": "A2",
          "midi": 45,
          "time": 76.36370000000011,
          "velocity": 0.7874015748031497,
          "duration": 0.136363750000001
        },
        {
          "name": "A#2",
          "midi": 46,
          "time": 76.50006375000011,
          "velocity": 0.7874015748031497,
          "duration": 0.136363750000001
        },
        {
          "name": "B2",
          "midi": 47,
          "time": 76.63642750000011,
          "velocity": 0.7874015748031497,
          "duration": 0.136363750000001
        },
        {
          "name": "E3",
          "midi": 52,
          "time": 76.77279125000011,
          "velocity": 0.7874015748031497,
          "duration": 0.136363750000001
        },
        {
          "name": "A2",
          "midi": 45,
          "time": 77.04551875000011,
          "velocity": 0.7874015748031497,
          "duration": 0.136363750000001
        },
        {
          "name": "A#2",
          "midi": 46,
          "time": 77.18188250000011,
          "velocity": 0.7874015748031497,
          "duration": 0.136363750000001
        },
        {
          "name": "B2",
          "midi": 47,
          "time": 77.31824625000012,
          "velocity": 0.7874015748031497,
          "duration": 0.136363750000001
        },
        {
          "name": "E3",
          "midi": 52,
          "time": 77.45461000000012,
          "velocity": 0.7874015748031497,
          "duration": 0.272727500000002
        },
        {
          "name": "G2",
          "midi": 43,
          "time": 77.72733750000012,
          "velocity": 0.7874015748031497,
          "duration": 0.136363750000001
        },
        {
          "name": "E2",
          "midi": 40,
          "time": 77.86370125000012,
          "velocity": 0.7874015748031497,
          "duration": 0.136363750000001
        },
        {
          "name": "E3",
          "midi": 52,
          "time": 78.00006500000012,
          "velocity": 1,
          "duration": 0.545455000000004
        },
        {
          "name": "A2",
          "midi": 45,
          "time": 78.54552000000012,
          "velocity": 0.7874015748031497,
          "duration": 0.136363750000001
        },
        {
          "name": "A#2",
          "midi": 46,
          "time": 78.68188375000013,
          "velocity": 0.7874015748031497,
          "duration": 0.136363750000001
        },
        {
          "name": "B2",
          "midi": 47,
          "time": 78.81824750000013,
          "velocity": 0.7874015748031497,
          "duration": 0.136363750000001
        },
        {
          "name": "E3",
          "midi": 52,
          "time": 78.95461125000013,
          "velocity": 0.7874015748031497,
          "duration": 0.136363750000001
        },
        {
          "name": "A2",
          "midi": 45,
          "time": 79.22733875000013,
          "velocity": 0.7874015748031497,
          "duration": 0.136363750000001
        },
        {
          "name": "A#2",
          "midi": 46,
          "time": 79.36370250000013,
          "velocity": 0.7874015748031497,
          "duration": 0.136363750000001
        },
        {
          "name": "B2",
          "midi": 47,
          "time": 79.50006625000013,
          "velocity": 0.7874015748031497,
          "duration": 0.136363750000001
        },
        {
          "name": "E3",
          "midi": 52,
          "time": 79.63643000000013,
          "velocity": 0.7874015748031497,
          "duration": 0.272727500000002
        },
        {
          "name": "E2",
          "midi": 40,
          "time": 79.90915750000013,
          "velocity": 0.7874015748031497,
          "duration": 0.272727500000002
        },
        {
          "name": "A2",
          "midi": 45,
          "time": 80.72734000000014,
          "velocity": 0.7874015748031497,
          "duration": 0.136363750000001
        },
        {
          "name": "A#2",
          "midi": 46,
          "time": 80.86370375000014,
          "velocity": 0.7874015748031497,
          "duration": 0.136363750000001
        },
        {
          "name": "B2",
          "midi": 47,
          "time": 81.00006750000014,
          "velocity": 0.7874015748031497,
          "duration": 0.136363750000001
        },
        {
          "name": "E3",
          "midi": 52,
          "time": 81.13643125000014,
          "velocity": 0.7874015748031497,
          "duration": 0.136363750000001
        },
        {
          "name": "A2",
          "midi": 45,
          "time": 81.40915875000015,
          "velocity": 0.7874015748031497,
          "duration": 0.136363750000001
        },
        {
          "name": "A#2",
          "midi": 46,
          "time": 81.54552250000015,
          "velocity": 0.7874015748031497,
          "duration": 0.136363750000001
        },
        {
          "name": "B2",
          "midi": 47,
          "time": 81.68188625000015,
          "velocity": 0.7874015748031497,
          "duration": 0.136363750000001
        },
        {
          "name": "E3",
          "midi": 52,
          "time": 81.81825000000015,
          "velocity": 0.7874015748031497,
          "duration": 0.272727500000002
        },
        {
          "name": "A3",
          "midi": 57,
          "time": 82.09097750000015,
          "velocity": 0.7874015748031497,
          "duration": 1.090910000000008
        },
        {
          "name": "E3",
          "midi": 52,
          "time": 82.09097750000015,
          "velocity": 0.7874015748031497,
          "duration": 1.090910000000008
        },
        {
          "name": "A2",
          "midi": 45,
          "time": 82.09097750000015,
          "velocity": 0.7874015748031497,
          "duration": 1.090910000000008
        },
        {
          "name": "C3",
          "midi": 48,
          "time": 82.90916000000016,
          "velocity": 0.7874015748031497,
          "duration": 0.136363750000001
        },
        {
          "name": "A2",
          "midi": 45,
          "time": 100.36372000000016,
          "velocity": 0.7874015748031497,
          "duration": 0.136363750000001
        },
        {
          "name": "A#2",
          "midi": 46,
          "time": 100.50008375000016,
          "velocity": 0.7874015748031497,
          "duration": 0.136363750000001
        },
        {
          "name": "B2",
          "midi": 47,
          "time": 100.63644750000016,
          "velocity": 0.7874015748031497,
          "duration": 0.136363750000001
        },
        {
          "name": "E3",
          "midi": 52,
          "time": 100.77281125000016,
          "velocity": 0.7874015748031497,
          "duration": 0.136363750000001
        },
        {
          "name": "A2",
          "midi": 45,
          "time": 101.04553875000016,
          "velocity": 0.7874015748031497,
          "duration": 0.136363750000001
        },
        {
          "name": "A#2",
          "midi": 46,
          "time": 101.18190250000016,
          "velocity": 0.7874015748031497,
          "duration": 0.136363750000001
        },
        {
          "name": "B2",
          "midi": 47,
          "time": 101.31826625000016,
          "velocity": 0.7874015748031497,
          "duration": 0.136363750000001
        },
        {
          "name": "E3",
          "midi": 52,
          "time": 101.45463000000017,
          "velocity": 0.7874015748031497,
          "duration": 0.272727500000002
        },
        {
          "name": "E2",
          "midi": 40,
          "time": 101.72735750000017,
          "velocity": 0.7874015748031497,
          "duration": 0.272727500000002
        },
        {
          "name": "A2",
          "midi": 45,
          "time": 102.54554000000017,
          "velocity": 0.7874015748031497,
          "duration": 0.136363750000001
        },
        {
          "name": "A#2",
          "midi": 46,
          "time": 102.68190375000017,
          "velocity": 0.7874015748031497,
          "duration": 0.136363750000001
        },
        {
          "name": "B2",
          "midi": 47,
          "time": 102.81826750000018,
          "velocity": 0.7874015748031497,
          "duration": 0.136363750000001
        },
        {
          "name": "E3",
          "midi": 52,
          "time": 102.95463125000018,
          "velocity": 0.7874015748031497,
          "duration": 0.136363750000001
        },
        {
          "name": "A2",
          "midi": 45,
          "time": 103.22735875000018,
          "velocity": 0.7874015748031497,
          "duration": 0.136363750000001
        },
        {
          "name": "A#2",
          "midi": 46,
          "time": 103.36372250000018,
          "velocity": 0.7874015748031497,
          "duration": 0.136363750000001
        },
        {
          "name": "B2",
          "midi": 47,
          "time": 103.50008625000018,
          "velocity": 0.7874015748031497,
          "duration": 0.136363750000001
        },
        {
          "name": "E3",
          "midi": 52,
          "time": 103.63645000000018,
          "velocity": 0.7874015748031497,
          "duration": 0.272727500000002
        },
        {
          "name": "G2",
          "midi": 43,
          "time": 103.90917750000018,
          "velocity": 0.7874015748031497,
          "duration": 0.136363750000001
        },
        {
          "name": "E2",
          "midi": 40,
          "time": 104.04554125000018,
          "velocity": 0.7874015748031497,
          "duration": 0.136363750000001
        },
        {
          "name": "E3",
          "midi": 52,
          "time": 104.18190500000019,
          "velocity": 1,
          "duration": 0.545455000000004
        },
        {
          "name": "A2",
          "midi": 45,
          "time": 104.72736000000019,
          "velocity": 0.7874015748031497,
          "duration": 0.136363750000001
        },
        {
          "name": "A#2",
          "midi": 46,
          "time": 104.86372375000019,
          "velocity": 0.7874015748031497,
          "duration": 0.136363750000001
        },
        {
          "name": "B2",
          "midi": 47,
          "time": 105.00008750000019,
          "velocity": 0.7874015748031497,
          "duration": 0.136363750000001
        },
        {
          "name": "E3",
          "midi": 52,
          "time": 105.13645125000019,
          "velocity": 0.7874015748031497,
          "duration": 0.136363750000001
        },
        {
          "name": "A2",
          "midi": 45,
          "time": 105.4091787500002,
          "velocity": 0.7874015748031497,
          "duration": 0.136363750000001
        },
        {
          "name": "A#2",
          "midi": 46,
          "time": 105.5455425000002,
          "velocity": 0.7874015748031497,
          "duration": 0.136363750000001
        },
        {
          "name": "B2",
          "midi": 47,
          "time": 105.6819062500002,
          "velocity": 0.7874015748031497,
          "duration": 0.136363750000001
        },
        {
          "name": "E3",
          "midi": 52,
          "time": 105.8182700000002,
          "velocity": 0.7874015748031497,
          "duration": 0.272727500000002
        },
        {
          "name": "E2",
          "midi": 40,
          "time": 106.0909975000002,
          "velocity": 0.7874015748031497,
          "duration": 0.272727500000002
        },
        {
          "name": "A2",
          "midi": 45,
          "time": 106.9091800000002,
          "velocity": 0.7874015748031497,
          "duration": 0.136363750000001
        },
        {
          "name": "A#2",
          "midi": 46,
          "time": 107.0455437500002,
          "velocity": 0.7874015748031497,
          "duration": 0.136363750000001
        },
        {
          "name": "B2",
          "midi": 47,
          "time": 107.18190750000021,
          "velocity": 0.7874015748031497,
          "duration": 0.136363750000001
        },
        {
          "name": "E3",
          "midi": 52,
          "time": 107.31827125000021,
          "velocity": 0.7874015748031497,
          "duration": 0.136363750000001
        },
        {
          "name": "A2",
          "midi": 45,
          "time": 107.59099875000021,
          "velocity": 0.7874015748031497,
          "duration": 0.136363750000001
        },
        {
          "name": "A#2",
          "midi": 46,
          "time": 107.72736250000021,
          "velocity": 0.7874015748031497,
          "duration": 0.136363750000001
        },
        {
          "name": "B2",
          "midi": 47,
          "time": 107.86372625000021,
          "velocity": 0.7874015748031497,
          "duration": 0.136363750000001
        },
        {
          "name": "E3",
          "midi": 52,
          "time": 108.00009000000021,
          "velocity": 0.7874015748031497,
          "duration": 0.272727500000002
        },
        {
          "name": "A3",
          "midi": 57,
          "time": 108.27281750000022,
          "velocity": 0.7874015748031497,
          "duration": 1.090910000000008
        },
        {
          "name": "E3",
          "midi": 52,
          "time": 108.27281750000022,
          "velocity": 0.7874015748031497,
          "duration": 1.090910000000008
        },
        {
          "name": "A2",
          "midi": 45,
          "time": 108.27281750000022,
          "velocity": 0.7874015748031497,
          "duration": 1.090910000000008
        },
        {
          "name": "C3",
          "midi": 48,
          "time": 109.09100000000022,
          "velocity": 0.7874015748031497,
          "duration": 0.136363750000001
        },
        {
          "name": "A4",
          "midi": 69,
          "time": 126.54556000000022,
          "velocity": 0.7874015748031497,
          "duration": 1.636365000000012
        },
        {
          "name": "D#4",
          "midi": 63,
          "time": 126.54556000000022,
          "velocity": 0.7874015748031497,
          "duration": 1.636365000000012
        },
        {
          "name": "A4",
          "midi": 69,
          "time": 135.27284000000023,
          "velocity": 0.7874015748031497,
          "duration": 1.636365000000012
        },
        {
          "name": "D#4",
          "midi": 63,
          "time": 135.27284000000023,
          "velocity": 0.7874015748031497,
          "duration": 1.636365000000012
        },
        {
          "name": "E2",
          "midi": 40,
          "time": 152.72740000000024,
          "velocity": 0.7874015748031497,
          "duration": 0.1363637499999868
        },
        {
          "name": "G2",
          "midi": 43,
          "time": 152.86376375000023,
          "velocity": 0.7874015748031497,
          "duration": 0.1363637499999868
        },
        {
          "name": "G#2",
          "midi": 44,
          "time": 153.00012750000022,
          "velocity": 0.7874015748031497,
          "duration": 0.1363637499999868
        },
        {
          "name": "E3",
          "midi": 52,
          "time": 153.1364912500002,
          "velocity": 0.7874015748031497,
          "duration": 0.1363637499999868
        },
        {
          "name": "A2",
          "midi": 45,
          "time": 153.40921875000018,
          "velocity": 0.7874015748031497,
          "duration": 0.1363637499999868
        },
        {
          "name": "A#2",
          "midi": 46,
          "time": 153.54558250000017,
          "velocity": 0.7874015748031497,
          "duration": 0.1363637499999868
        },
        {
          "name": "B2",
          "midi": 47,
          "time": 153.68194625000015,
          "velocity": 0.7874015748031497,
          "duration": 0.1363637499999868
        },
        {
          "name": "E3",
          "midi": 52,
          "time": 153.81831000000014,
          "velocity": 0.7874015748031497,
          "duration": 0.272727500000002
        },
        {
          "name": "E2",
          "midi": 40,
          "time": 154.09103750000014,
          "velocity": 0.7874015748031497,
          "duration": 0.272727500000002
        },
        {
          "name": "E2",
          "midi": 40,
          "time": 154.90922000000015,
          "velocity": 0.7874015748031497,
          "duration": 0.1363637499999868
        },
        {
          "name": "G2",
          "midi": 43,
          "time": 155.04558375000013,
          "velocity": 0.7874015748031497,
          "duration": 0.1363637499999868
        },
        {
          "name": "G#2",
          "midi": 44,
          "time": 155.18194750000012,
          "velocity": 0.7874015748031497,
          "duration": 0.1363637499999868
        },
        {
          "name": "E3",
          "midi": 52,
          "time": 155.3183112500001,
          "velocity": 0.7874015748031497,
          "duration": 0.1363637499999868
        },
        {
          "name": "A2",
          "midi": 45,
          "time": 155.59103875000008,
          "velocity": 0.7874015748031497,
          "duration": 0.1363637499999868
        },
        {
          "name": "A#2",
          "midi": 46,
          "time": 155.72740250000007,
          "velocity": 0.7874015748031497,
          "duration": 0.1363637499999868
        },
        {
          "name": "B2",
          "midi": 47,
          "time": 155.86376625000005,
          "velocity": 0.7874015748031497,
          "duration": 0.1363637499999868
        },
        {
          "name": "E3",
          "midi": 52,
          "time": 156.00013000000004,
          "velocity": 0.7874015748031497,
          "duration": 0.272727500000002
        },
        {
          "name": "A3",
          "midi": 57,
          "time": 156.27285750000004,
          "velocity": 0.7874015748031497,
          "duration": 0.545455000000004
        },
        {
          "name": "E3",
          "midi": 52,
          "time": 156.27285750000004,
          "velocity": 0.7874015748031497,
          "duration": 0.545455000000004
        },
        {
          "name": "A2",
          "midi": 45,
          "time": 156.27285750000004,
          "velocity": 0.7874015748031497,
          "duration": 0.545455000000004
        },
        {
          "name": "E2",
          "midi": 40,
          "time": 157.09104000000005,
          "velocity": 0.7874015748031497,
          "duration": 0.1363637499999868
        },
        {
          "name": "G2",
          "midi": 43,
          "time": 157.22740375000004,
          "velocity": 0.7874015748031497,
          "duration": 0.1363637499999868
        },
        {
          "name": "G#2",
          "midi": 44,
          "time": 157.36376750000002,
          "velocity": 0.7874015748031497,
          "duration": 0.1363637499999868
        },
        {
          "name": "E3",
          "midi": 52,
          "time": 157.50013125,
          "velocity": 0.7874015748031497,
          "duration": 0.1363637499999868
        },
        {
          "name": "A2",
          "midi": 45,
          "time": 157.77285874999998,
          "velocity": 0.7874015748031497,
          "duration": 0.1363637499999868
        },
        {
          "name": "A#2",
          "midi": 46,
          "time": 157.90922249999997,
          "velocity": 0.7874015748031497,
          "duration": 0.1363637499999868
        },
        {
          "name": "B2",
          "midi": 47,
          "time": 158.04558624999996,
          "velocity": 0.7874015748031497,
          "duration": 0.1363637499999868
        },
        {
          "name": "E3",
          "midi": 52,
          "time": 158.18194999999994,
          "velocity": 0.7874015748031497,
          "duration": 0.272727500000002
        },
        {
          "name": "E2",
          "midi": 40,
          "time": 158.45467749999995,
          "velocity": 0.7874015748031497,
          "duration": 0.272727500000002
        },
        {
          "name": "E2",
          "midi": 40,
          "time": 159.27285999999995,
          "velocity": 0.7874015748031497,
          "duration": 0.1363637499999868
        },
        {
          "name": "G2",
          "midi": 43,
          "time": 159.40922374999994,
          "velocity": 0.7874015748031497,
          "duration": 0.1363637499999868
        },
        {
          "name": "G#2",
          "midi": 44,
          "time": 159.54558749999993,
          "velocity": 0.7874015748031497,
          "duration": 0.1363637499999868
        },
        {
          "name": "E3",
          "midi": 52,
          "time": 159.6819512499999,
          "velocity": 0.7874015748031497,
          "duration": 0.1363637499999868
        },
        {
          "name": "A2",
          "midi": 45,
          "time": 159.95467874999989,
          "velocity": 0.7874015748031497,
          "duration": 0.1363637499999868
        },
        {
          "name": "A#2",
          "midi": 46,
          "time": 160.09104249999987,
          "velocity": 0.7874015748031497,
          "duration": 0.1363637499999868
        },
        {
          "name": "B2",
          "midi": 47,
          "time": 160.22740624999986,
          "velocity": 0.7874015748031497,
          "duration": 0.1363637499999868
        },
        {
          "name": "E3",
          "midi": 52,
          "time": 160.36376999999985,
          "velocity": 0.7874015748031497,
          "duration": 0.272727500000002
        },
        {
          "name": "A3",
          "midi": 57,
          "time": 160.63649749999985,
          "velocity": 0.7874015748031497,
          "duration": 0.545455000000004
        },
        {
          "name": "E3",
          "midi": 52,
          "time": 160.63649749999985,
          "velocity": 0.7874015748031497,
          "duration": 0.545455000000004
        },
        {
          "name": "A2",
          "midi": 45,
          "time": 160.63649749999985,
          "velocity": 0.7874015748031497,
          "duration": 0.545455000000004
        },
        {
          "name": "E2",
          "midi": 40,
          "time": 161.45467999999985,
          "velocity": 0.7874015748031497,
          "duration": 0.1363637499999868
        },
        {
          "name": "G2",
          "midi": 43,
          "time": 161.59104374999984,
          "velocity": 0.7874015748031497,
          "duration": 0.1363637499999868
        },
        {
          "name": "G#2",
          "midi": 44,
          "time": 161.72740749999983,
          "velocity": 0.7874015748031497,
          "duration": 0.1363637499999868
        },
        {
          "name": "E3",
          "midi": 52,
          "time": 161.86377124999981,
          "velocity": 0.7874015748031497,
          "duration": 0.1363637499999868
        },
        {
          "name": "A2",
          "midi": 45,
          "time": 162.1364987499998,
          "velocity": 0.7874015748031497,
          "duration": 0.1363637499999868
        },
        {
          "name": "A#2",
          "midi": 46,
          "time": 162.27286249999977,
          "velocity": 0.7874015748031497,
          "duration": 0.1363637499999868
        },
        {
          "name": "B2",
          "midi": 47,
          "time": 162.40922624999976,
          "velocity": 0.7874015748031497,
          "duration": 0.1363637499999868
        },
        {
          "name": "E3",
          "midi": 52,
          "time": 162.54558999999975,
          "velocity": 0.7874015748031497,
          "duration": 0.272727500000002
        },
        {
          "name": "E2",
          "midi": 40,
          "time": 162.81831749999975,
          "velocity": 0.7874015748031497,
          "duration": 0.272727500000002
        },
        {
          "name": "E2",
          "midi": 40,
          "time": 163.63649999999976,
          "velocity": 0.7874015748031497,
          "duration": 0.1363637499999868
        },
        {
          "name": "G2",
          "midi": 43,
          "time": 163.77286374999974,
          "velocity": 0.7874015748031497,
          "duration": 0.1363637499999868
        },
        {
          "name": "G#2",
          "midi": 44,
          "time": 163.90922749999973,
          "velocity": 0.7874015748031497,
          "duration": 0.1363637499999868
        },
        {
          "name": "E3",
          "midi": 52,
          "time": 164.04559124999972,
          "velocity": 0.7874015748031497,
          "duration": 0.1363637499999868
        },
        {
          "name": "A2",
          "midi": 45,
          "time": 164.3183187499997,
          "velocity": 0.7874015748031497,
          "duration": 0.1363637499999868
        },
        {
          "name": "A#2",
          "midi": 46,
          "time": 164.45468249999968,
          "velocity": 0.7874015748031497,
          "duration": 0.1363637499999868
        },
        {
          "name": "B2",
          "midi": 47,
          "time": 164.59104624999966,
          "velocity": 0.7874015748031497,
          "duration": 0.1363637499999868
        },
        {
          "name": "E3",
          "midi": 52,
          "time": 164.72740999999965,
          "velocity": 0.7874015748031497,
          "duration": 0.272727500000002
        },
        {
          "name": "A3",
          "midi": 57,
          "time": 165.00013749999965,
          "velocity": 0.7874015748031497,
          "duration": 0.545455000000004
        },
        {
          "name": "E3",
          "midi": 52,
          "time": 165.00013749999965,
          "velocity": 0.7874015748031497,
          "duration": 0.545455000000004
        },
        {
          "name": "A2",
          "midi": 45,
          "time": 165.00013749999965,
          "velocity": 0.7874015748031497,
          "duration": 0.545455000000004
        },
        {
          "name": "E2",
          "midi": 40,
          "time": 165.81831999999966,
          "velocity": 0.7874015748031497,
          "duration": 0.1363637499999868
        },
        {
          "name": "G2",
          "midi": 43,
          "time": 165.95468374999965,
          "velocity": 0.7874015748031497,
          "duration": 0.1363637499999868
        },
        {
          "name": "G#2",
          "midi": 44,
          "time": 166.09104749999963,
          "velocity": 0.7874015748031497,
          "duration": 0.1363637499999868
        },
        {
          "name": "E3",
          "midi": 52,
          "time": 166.22741124999962,
          "velocity": 0.7874015748031497,
          "duration": 0.1363637499999868
        },
        {
          "name": "A2",
          "midi": 45,
          "time": 166.5001387499996,
          "velocity": 0.7874015748031497,
          "duration": 0.1363637499999868
        },
        {
          "name": "A#2",
          "midi": 46,
          "time": 166.63650249999958,
          "velocity": 0.7874015748031497,
          "duration": 0.1363637499999868
        },
        {
          "name": "B2",
          "midi": 47,
          "time": 166.77286624999957,
          "velocity": 0.7874015748031497,
          "duration": 0.1363637499999868
        },
        {
          "name": "E3",
          "midi": 52,
          "time": 166.90922999999955,
          "velocity": 0.7874015748031497,
          "duration": 0.272727500000002
        },
        {
          "name": "E2",
          "midi": 40,
          "time": 167.18195749999956,
          "velocity": 0.7874015748031497,
          "duration": 0.272727500000002
        },
        {
          "name": "E2",
          "midi": 40,
          "time": 168.00013999999956,
          "velocity": 0.7874015748031497,
          "duration": 0.1363637499999868
        },
        {
          "name": "G2",
          "midi": 43,
          "time": 168.13650374999955,
          "velocity": 0.7874015748031497,
          "duration": 0.1363637499999868
        },
        {
          "name": "G#2",
          "midi": 44,
          "time": 168.27286749999953,
          "velocity": 0.7874015748031497,
          "duration": 0.1363637499999868
        },
        {
          "name": "E3",
          "midi": 52,
          "time": 168.40923124999952,
          "velocity": 0.7874015748031497,
          "duration": 0.1363637499999868
        },
        {
          "name": "A2",
          "midi": 45,
          "time": 168.6819587499995,
          "velocity": 0.7874015748031497,
          "duration": 0.1363637499999868
        },
        {
          "name": "A#2",
          "midi": 46,
          "time": 168.81832249999948,
          "velocity": 0.7874015748031497,
          "duration": 0.1363637499999868
        },
        {
          "name": "B2",
          "midi": 47,
          "time": 168.95468624999947,
          "velocity": 0.7874015748031497,
          "duration": 0.1363637499999868
        },
        {
          "name": "E3",
          "midi": 52,
          "time": 169.09104999999946,
          "velocity": 0.7874015748031497,
          "duration": 0.272727500000002
        },
        {
          "name": "A3",
          "midi": 57,
          "time": 169.36377749999946,
          "velocity": 0.7874015748031497,
          "duration": 0.545455000000004
        },
        {
          "name": "E3",
          "midi": 52,
          "time": 169.36377749999946,
          "velocity": 0.7874015748031497,
          "duration": 0.545455000000004
        },
        {
          "name": "A2",
          "midi": 45,
          "time": 169.36377749999946,
          "velocity": 0.7874015748031497,
          "duration": 0.545455000000004
        },
        {
          "name": "E2",
          "midi": 40,
          "time": 170.18195999999946,
          "velocity": 0.7874015748031497,
          "duration": 0.1363637499999868
        },
        {
          "name": "G2",
          "midi": 43,
          "time": 170.31832374999945,
          "velocity": 0.7874015748031497,
          "duration": 0.1363637499999868
        },
        {
          "name": "G#2",
          "midi": 44,
          "time": 170.45468749999944,
          "velocity": 0.7874015748031497,
          "duration": 0.1363637499999868
        },
        {
          "name": "E3",
          "midi": 52,
          "time": 170.59105124999942,
          "velocity": 0.7874015748031497,
          "duration": 0.1363637499999868
        },
        {
          "name": "A2",
          "midi": 45,
          "time": 170.8637787499994,
          "velocity": 0.7874015748031497,
          "duration": 0.1363637499999868
        },
        {
          "name": "A#2",
          "midi": 46,
          "time": 171.00014249999938,
          "velocity": 0.7874015748031497,
          "duration": 0.1363637499999868
        },
        {
          "name": "B2",
          "midi": 47,
          "time": 171.13650624999937,
          "velocity": 0.7874015748031497,
          "duration": 0.1363637499999868
        },
        {
          "name": "E3",
          "midi": 52,
          "time": 171.27286999999936,
          "velocity": 0.7874015748031497,
          "duration": 0.272727500000002
        },
        {
          "name": "E2",
          "midi": 40,
          "time": 171.54559749999936,
          "velocity": 0.7874015748031497,
          "duration": 0.272727500000002
        },
        {
          "name": "E2",
          "midi": 40,
          "time": 172.36377999999937,
          "velocity": 0.7874015748031497,
          "duration": 0.1363637499999868
        },
        {
          "name": "G2",
          "midi": 43,
          "time": 172.50014374999935,
          "velocity": 0.7874015748031497,
          "duration": 0.1363637499999868
        },
        {
          "name": "G#2",
          "midi": 44,
          "time": 172.63650749999934,
          "velocity": 0.7874015748031497,
          "duration": 0.1363637499999868
        },
        {
          "name": "E3",
          "midi": 52,
          "time": 172.77287124999933,
          "velocity": 0.7874015748031497,
          "duration": 0.1363637499999868
        },
        {
          "name": "A2",
          "midi": 45,
          "time": 173.0455987499993,
          "velocity": 0.7874015748031497,
          "duration": 0.1363637499999868
        },
        {
          "name": "A#2",
          "midi": 46,
          "time": 173.1819624999993,
          "velocity": 0.7874015748031497,
          "duration": 0.1363637499999868
        },
        {
          "name": "B2",
          "midi": 47,
          "time": 173.31832624999927,
          "velocity": 0.7874015748031497,
          "duration": 0.1363637499999868
        },
        {
          "name": "E3",
          "midi": 52,
          "time": 173.45468999999926,
          "velocity": 0.7874015748031497,
          "duration": 0.272727500000002
        },
        {
          "name": "A3",
          "midi": 57,
          "time": 173.72741749999926,
          "velocity": 0.7874015748031497,
          "duration": 0.545455000000004
        },
        {
          "name": "E3",
          "midi": 52,
          "time": 173.72741749999926,
          "velocity": 0.7874015748031497,
          "duration": 0.545455000000004
        },
        {
          "name": "A2",
          "midi": 45,
          "time": 173.72741749999926,
          "velocity": 0.7874015748031497,
          "duration": 0.545455000000004
        },
        {
          "name": "E2",
          "midi": 40,
          "time": 174.54559999999927,
          "velocity": 0.7874015748031497,
          "duration": 0.1363637499999868
        },
        {
          "name": "G2",
          "midi": 43,
          "time": 174.68196374999926,
          "velocity": 0.7874015748031497,
          "duration": 0.1363637499999868
        },
        {
          "name": "G#2",
          "midi": 44,
          "time": 174.81832749999924,
          "velocity": 0.7874015748031497,
          "duration": 0.1363637499999868
        },
        {
          "name": "E3",
          "midi": 52,
          "time": 174.95469124999923,
          "velocity": 0.7874015748031497,
          "duration": 0.1363637499999868
        },
        {
          "name": "A2",
          "midi": 45,
          "time": 175.2274187499992,
          "velocity": 0.7874015748031497,
          "duration": 0.1363637499999868
        },
        {
          "name": "A#2",
          "midi": 46,
          "time": 175.3637824999992,
          "velocity": 0.7874015748031497,
          "duration": 0.1363637499999868
        },
        {
          "name": "B2",
          "midi": 47,
          "time": 175.50014624999918,
          "velocity": 0.7874015748031497,
          "duration": 0.1363637499999868
        },
        {
          "name": "E3",
          "midi": 52,
          "time": 175.63650999999916,
          "velocity": 0.7874015748031497,
          "duration": 0.272727500000002
        },
        {
          "name": "E2",
          "midi": 40,
          "time": 175.90923749999916,
          "velocity": 0.7874015748031497,
          "duration": 0.272727500000002
        },
        {
          "name": "E2",
          "midi": 40,
          "time": 176.72741999999917,
          "velocity": 0.7874015748031497,
          "duration": 0.1363637499999868
        },
        {
          "name": "G2",
          "midi": 43,
          "time": 176.86378374999916,
          "velocity": 0.7874015748031497,
          "duration": 0.1363637499999868
        },
        {
          "name": "G#2",
          "midi": 44,
          "time": 177.00014749999914,
          "velocity": 0.7874015748031497,
          "duration": 0.1363637499999868
        },
        {
          "name": "E3",
          "midi": 52,
          "time": 177.13651124999913,
          "velocity": 0.7874015748031497,
          "duration": 0.1363637499999868
        },
        {
          "name": "A2",
          "midi": 45,
          "time": 177.4092387499991,
          "velocity": 0.7874015748031497,
          "duration": 0.1363637499999868
        },
        {
          "name": "A#2",
          "midi": 46,
          "time": 177.5456024999991,
          "velocity": 0.7874015748031497,
          "duration": 0.1363637499999868
        },
        {
          "name": "B2",
          "midi": 47,
          "time": 177.68196624999908,
          "velocity": 0.7874015748031497,
          "duration": 0.1363637499999868
        },
        {
          "name": "E3",
          "midi": 52,
          "time": 177.81832999999907,
          "velocity": 0.7874015748031497,
          "duration": 0.272727500000002
        },
        {
          "name": "A3",
          "midi": 57,
          "time": 178.09105749999907,
          "velocity": 0.7874015748031497,
          "duration": 0.545455000000004
        },
        {
          "name": "E3",
          "midi": 52,
          "time": 178.09105749999907,
          "velocity": 0.7874015748031497,
          "duration": 0.545455000000004
        },
        {
          "name": "A2",
          "midi": 45,
          "time": 178.09105749999907,
          "velocity": 0.7874015748031497,
          "duration": 0.545455000000004
        },
        {
          "name": "E2",
          "midi": 40,
          "time": 178.90923999999907,
          "velocity": 0.7874015748031497,
          "duration": 0.1363637499999868
        },
        {
          "name": "G2",
          "midi": 43,
          "time": 179.04560374999906,
          "velocity": 0.7874015748031497,
          "duration": 0.1363637499999868
        },
        {
          "name": "G#2",
          "midi": 44,
          "time": 179.18196749999905,
          "velocity": 0.7874015748031497,
          "duration": 0.1363637499999868
        },
        {
          "name": "E3",
          "midi": 52,
          "time": 179.31833124999903,
          "velocity": 0.7874015748031497,
          "duration": 0.1363637499999868
        },
        {
          "name": "A2",
          "midi": 45,
          "time": 179.591058749999,
          "velocity": 0.7874015748031497,
          "duration": 0.1363637499999868
        },
        {
          "name": "A#2",
          "midi": 46,
          "time": 179.727422499999,
          "velocity": 0.7874015748031497,
          "duration": 0.1363637499999868
        },
        {
          "name": "B2",
          "midi": 47,
          "time": 179.86378624999898,
          "velocity": 0.7874015748031497,
          "duration": 0.1363637499999868
        },
        {
          "name": "E3",
          "midi": 52,
          "time": 180.00014999999897,
          "velocity": 0.7874015748031497,
          "duration": 0.272727500000002
        },
        {
          "name": "E2",
          "midi": 40,
          "time": 180.27287749999897,
          "velocity": 0.7874015748031497,
          "duration": 0.272727500000002
        },
        {
          "name": "E2",
          "midi": 40,
          "time": 181.09105999999898,
          "velocity": 0.7874015748031497,
          "duration": 0.1363637499999868
        },
        {
          "name": "G2",
          "midi": 43,
          "time": 181.22742374999896,
          "velocity": 0.7874015748031497,
          "duration": 0.1363637499999868
        },
        {
          "name": "G#2",
          "midi": 44,
          "time": 181.36378749999895,
          "velocity": 0.7874015748031497,
          "duration": 0.1363637499999868
        },
        {
          "name": "E3",
          "midi": 52,
          "time": 181.50015124999894,
          "velocity": 0.7874015748031497,
          "duration": 0.1363637499999868
        },
        {
          "name": "A2",
          "midi": 45,
          "time": 181.7728787499989,
          "velocity": 0.7874015748031497,
          "duration": 0.1363637499999868
        },
        {
          "name": "A#2",
          "midi": 46,
          "time": 181.9092424999989,
          "velocity": 0.7874015748031497,
          "duration": 0.1363637499999868
        },
        {
          "name": "B2",
          "midi": 47,
          "time": 182.04560624999888,
          "velocity": 0.7874015748031497,
          "duration": 0.1363637499999868
        },
        {
          "name": "E3",
          "midi": 52,
          "time": 182.18196999999887,
          "velocity": 0.7874015748031497,
          "duration": 0.272727500000002
        },
        {
          "name": "A3",
          "midi": 57,
          "time": 182.45469749999887,
          "velocity": 0.7874015748031497,
          "duration": 0.545455000000004
        },
        {
          "name": "E3",
          "midi": 52,
          "time": 182.45469749999887,
          "velocity": 0.7874015748031497,
          "duration": 0.545455000000004
        },
        {
          "name": "A2",
          "midi": 45,
          "time": 182.45469749999887,
          "velocity": 0.7874015748031497,
          "duration": 0.545455000000004
        },
        {
          "name": "E2",
          "midi": 40,
          "time": 183.27287999999888,
          "velocity": 0.7874015748031497,
          "duration": 0.1363637499999868
        },
        {
          "name": "G2",
          "midi": 43,
          "time": 183.40924374999886,
          "velocity": 0.7874015748031497,
          "duration": 0.1363637499999868
        },
        {
          "name": "G#2",
          "midi": 44,
          "time": 183.54560749999885,
          "velocity": 0.7874015748031497,
          "duration": 0.1363637499999868
        },
        {
          "name": "E3",
          "midi": 52,
          "time": 183.68197124999884,
          "velocity": 0.7874015748031497,
          "duration": 0.1363637499999868
        },
        {
          "name": "A2",
          "midi": 45,
          "time": 183.9546987499988,
          "velocity": 0.7874015748031497,
          "duration": 0.1363637499999868
        },
        {
          "name": "A#2",
          "midi": 46,
          "time": 184.0910624999988,
          "velocity": 0.7874015748031497,
          "duration": 0.1363637499999868
        },
        {
          "name": "B2",
          "midi": 47,
          "time": 184.22742624999879,
          "velocity": 0.7874015748031497,
          "duration": 0.1363637499999868
        },
        {
          "name": "E3",
          "midi": 52,
          "time": 184.36378999999877,
          "velocity": 0.7874015748031497,
          "duration": 0.272727500000002
        },
        {
          "name": "E2",
          "midi": 40,
          "time": 184.63651749999877,
          "velocity": 0.7874015748031497,
          "duration": 0.272727500000002
        },
        {
          "name": "E2",
          "midi": 40,
          "time": 185.45469999999878,
          "velocity": 0.7874015748031497,
          "duration": 0.1363637499999868
        },
        {
          "name": "G2",
          "midi": 43,
          "time": 185.59106374999877,
          "velocity": 0.7874015748031497,
          "duration": 0.1363637499999868
        },
        {
          "name": "G#2",
          "midi": 44,
          "time": 185.72742749999875,
          "velocity": 0.7874015748031497,
          "duration": 0.1363637499999868
        },
        {
          "name": "E3",
          "midi": 52,
          "time": 185.86379124999874,
          "velocity": 0.7874015748031497,
          "duration": 0.1363637499999868
        },
        {
          "name": "A2",
          "midi": 45,
          "time": 186.13651874999871,
          "velocity": 0.7874015748031497,
          "duration": 0.1363637499999868
        },
        {
          "name": "A#2",
          "midi": 46,
          "time": 186.2728824999987,
          "velocity": 0.7874015748031497,
          "duration": 0.1363637499999868
        },
        {
          "name": "B2",
          "midi": 47,
          "time": 186.4092462499987,
          "velocity": 0.7874015748031497,
          "duration": 0.1363637499999868
        },
        {
          "name": "E3",
          "midi": 52,
          "time": 186.54560999999867,
          "velocity": 0.7874015748031497,
          "duration": 0.272727500000002
        },
        {
          "name": "A3",
          "midi": 57,
          "time": 186.81833749999868,
          "velocity": 0.7874015748031497,
          "duration": 0.545455000000004
        },
        {
          "name": "E3",
          "midi": 52,
          "time": 186.81833749999868,
          "velocity": 0.7874015748031497,
          "duration": 0.545455000000004
        },
        {
          "name": "A2",
          "midi": 45,
          "time": 186.81833749999868,
          "velocity": 0.7874015748031497,
          "duration": 0.545455000000004
        },
        {
          "name": "E2",
          "midi": 40,
          "time": 187.63651999999868,
          "velocity": 0.7874015748031497,
          "duration": 0.1363637499999868
        },
        {
          "name": "G2",
          "midi": 43,
          "time": 187.77288374999867,
          "velocity": 0.7874015748031497,
          "duration": 0.1363637499999868
        },
        {
          "name": "G#2",
          "midi": 44,
          "time": 187.90924749999866,
          "velocity": 0.7874015748031497,
          "duration": 0.1363637499999868
        },
        {
          "name": "E3",
          "midi": 52,
          "time": 188.04561124999864,
          "velocity": 0.7874015748031497,
          "duration": 0.1363637499999868
        },
        {
          "name": "A2",
          "midi": 45,
          "time": 188.31833874999862,
          "velocity": 0.7874015748031497,
          "duration": 0.1363637499999868
        },
        {
          "name": "A#2",
          "midi": 46,
          "time": 188.4547024999986,
          "velocity": 0.7874015748031497,
          "duration": 0.1363637499999868
        },
        {
          "name": "B2",
          "midi": 47,
          "time": 188.5910662499986,
          "velocity": 0.7874015748031497,
          "duration": 0.1363637499999868
        },
        {
          "name": "E3",
          "midi": 52,
          "time": 188.72742999999858,
          "velocity": 0.7874015748031497,
          "duration": 0.272727500000002
        },
        {
          "name": "E2",
          "midi": 40,
          "time": 189.00015749999858,
          "velocity": 0.7874015748031497,
          "duration": 0.272727500000002
        },
        {
          "name": "E2",
          "midi": 40,
          "time": 189.81833999999859,
          "velocity": 0.7874015748031497,
          "duration": 0.1363637499999868
        },
        {
          "name": "G2",
          "midi": 43,
          "time": 189.95470374999857,
          "velocity": 0.7874015748031497,
          "duration": 0.1363637499999868
        },
        {
          "name": "G#2",
          "midi": 44,
          "time": 190.09106749999856,
          "velocity": 0.7874015748031497,
          "duration": 0.1363637499999868
        },
        {
          "name": "E3",
          "midi": 52,
          "time": 190.22743124999855,
          "velocity": 0.7874015748031497,
          "duration": 0.1363637499999868
        },
        {
          "name": "A2",
          "midi": 45,
          "time": 190.50015874999852,
          "velocity": 0.7874015748031497,
          "duration": 0.1363637499999868
        },
        {
          "name": "A#2",
          "midi": 46,
          "time": 190.6365224999985,
          "velocity": 0.7874015748031497,
          "duration": 0.1363637499999868
        },
        {
          "name": "B2",
          "midi": 47,
          "time": 190.7728862499985,
          "velocity": 0.7874015748031497,
          "duration": 0.1363637499999868
        },
        {
          "name": "E3",
          "midi": 52,
          "time": 190.90924999999848,
          "velocity": 0.7874015748031497,
          "duration": 0.272727500000002
        },
        {
          "name": "A3",
          "midi": 57,
          "time": 191.18197749999848,
          "velocity": 0.7874015748031497,
          "duration": 0.545455000000004
        },
        {
          "name": "E3",
          "midi": 52,
          "time": 191.18197749999848,
          "velocity": 0.7874015748031497,
          "duration": 0.545455000000004
        },
        {
          "name": "A2",
          "midi": 45,
          "time": 191.18197749999848,
          "velocity": 0.7874015748031497,
          "duration": 0.545455000000004
        },
        {
          "name": "E2",
          "midi": 40,
          "time": 192.0001599999985,
          "velocity": 0.7874015748031497,
          "duration": 0.1363637499999868
        },
        {
          "name": "G2",
          "midi": 43,
          "time": 192.13652374999847,
          "velocity": 0.7874015748031497,
          "duration": 0.1363637499999868
        },
        {
          "name": "G#2",
          "midi": 44,
          "time": 192.27288749999846,
          "velocity": 0.7874015748031497,
          "duration": 0.1363637499999868
        },
        {
          "name": "E3",
          "midi": 52,
          "time": 192.40925124999845,
          "velocity": 0.7874015748031497,
          "duration": 0.1363637499999868
        },
        {
          "name": "A2",
          "midi": 45,
          "time": 192.68197874999842,
          "velocity": 0.7874015748031497,
          "duration": 0.1363637499999868
        },
        {
          "name": "A#2",
          "midi": 46,
          "time": 192.8183424999984,
          "velocity": 0.7874015748031497,
          "duration": 0.1363637499999868
        },
        {
          "name": "B2",
          "midi": 47,
          "time": 192.9547062499984,
          "velocity": 0.7874015748031497,
          "duration": 0.1363637499999868
        },
        {
          "name": "E3",
          "midi": 52,
          "time": 193.09106999999838,
          "velocity": 0.7874015748031497,
          "duration": 0.272727500000002
        },
        {
          "name": "E2",
          "midi": 40,
          "time": 193.36379749999838,
          "velocity": 0.7874015748031497,
          "duration": 0.272727500000002
        },
        {
          "name": "E2",
          "midi": 40,
          "time": 194.1819799999984,
          "velocity": 0.7874015748031497,
          "duration": 0.1363637499999868
        },
        {
          "name": "G2",
          "midi": 43,
          "time": 194.31834374999838,
          "velocity": 0.7874015748031497,
          "duration": 0.1363637499999868
        },
        {
          "name": "G#2",
          "midi": 44,
          "time": 194.45470749999836,
          "velocity": 0.7874015748031497,
          "duration": 0.1363637499999868
        },
        {
          "name": "E3",
          "midi": 52,
          "time": 194.59107124999835,
          "velocity": 0.7874015748031497,
          "duration": 0.1363637499999868
        },
        {
          "name": "A2",
          "midi": 45,
          "time": 194.86379874999832,
          "velocity": 0.7874015748031497,
          "duration": 0.1363637499999868
        },
        {
          "name": "A#2",
          "midi": 46,
          "time": 195.0001624999983,
          "velocity": 0.7874015748031497,
          "duration": 0.1363637499999868
        },
        {
          "name": "B2",
          "midi": 47,
          "time": 195.1365262499983,
          "velocity": 0.7874015748031497,
          "duration": 0.1363637499999868
        },
        {
          "name": "E3",
          "midi": 52,
          "time": 195.27288999999828,
          "velocity": 0.7874015748031497,
          "duration": 0.272727500000002
        },
        {
          "name": "A3",
          "midi": 57,
          "time": 195.5456174999983,
          "velocity": 0.7874015748031497,
          "duration": 0.545455000000004
        },
        {
          "name": "E3",
          "midi": 52,
          "time": 195.5456174999983,
          "velocity": 0.7874015748031497,
          "duration": 0.545455000000004
        },
        {
          "name": "A2",
          "midi": 45,
          "time": 195.5456174999983,
          "velocity": 0.7874015748031497,
          "duration": 0.545455000000004
        }
      ],
      "controlChanges": {
        "1": [
          {
            "number": 1,
            "time": 56.74550183333336,
            "value": 0.015748031496062992
          },
          {
            "number": 1,
            "time": 56.81822916666669,
            "value": 0.031496062992125984
          },
          {
            "number": 1,
            "time": 56.945502000000026,
            "value": 0.07874015748031496
          },
          {
            "number": 1,
            "time": 57.09095666666669,
            "value": 0.12598425196850394
          },
          {
            "number": 1,
            "time": 57.18186583333336,
            "value": 0.1732283464566929
          },
          {
            "number": 1,
            "time": 57.236411333333365,
            "value": 0.2283464566929134
          },
          {
            "number": 1,
            "time": 57.5818661666667,
            "value": 0.2440944881889764
          },
          {
            "number": 1,
            "time": 57.76368450000003,
            "value": 0.25984251968503935
          },
          {
            "number": 1,
            "time": 57.927321000000035,
            "value": 0.2755905511811024
          },
          {
            "number": 1,
            "time": 58.05459383333337,
            "value": 0.29133858267716534
          },
          {
            "number": 1,
            "time": 58.20004850000004,
            "value": 0.2992125984251969
          },
          {
            "number": 1,
            "time": 58.21823033333337,
            "value": 0.30708661417322836
          },
          {
            "number": 1,
            "time": 58.23641216666671,
            "value": 0.3228346456692913
          },
          {
            "number": 1,
            "time": 58.25459400000005,
            "value": 0.33070866141732286
          },
          {
            "number": 1,
            "time": 58.26368491666671,
            "value": 0.3700787401574803
          },
          {
            "number": 1,
            "time": 58.27277583333338,
            "value": 0.41732283464566927
          },
          {
            "number": 1,
            "time": 58.29095766666671,
            "value": 0.4251968503937008
          },
          {
            "number": 1,
            "time": 58.30913950000005,
            "value": 0.4409448818897638
          },
          {
            "number": 1,
            "time": 58.38186683333339,
            "value": 0.4566929133858268
          },
          {
            "number": 1,
            "time": 58.47277600000006,
            "value": 0.47244094488188976
          },
          {
            "number": 1,
            "time": 58.52732150000006,
            "value": 0.48031496062992124
          },
          {
            "number": 1,
            "time": 58.5455033333334,
            "value": 0.49606299212598426
          },
          {
            "number": 1,
            "time": 58.56368516666674,
            "value": 0.5039370078740157
          },
          {
            "number": 1,
            "time": 58.581867000000074,
            "value": 0.5118110236220472
          },
          {
            "number": 1,
            "time": 58.59095791666674,
            "value": 0.5196850393700787
          },
          {
            "number": 1,
            "time": 58.609139750000075,
            "value": 0.5275590551181102
          },
          {
            "number": 1,
            "time": 58.62732158333341,
            "value": 0.5433070866141733
          },
          {
            "number": 1,
            "time": 58.63641250000008,
            "value": 0.5511811023622047
          },
          {
            "number": 1,
            "time": 58.64550341666674,
            "value": 0.5669291338582677
          },
          {
            "number": 1,
            "time": 58.65459433333341,
            "value": 0.5826771653543307
          },
          {
            "number": 1,
            "time": 58.66368525000007,
            "value": 0.5905511811023622
          },
          {
            "number": 1,
            "time": 58.69095800000007,
            "value": 0.5984251968503937
          },
          {
            "number": 1,
            "time": 58.745503500000076,
            "value": 0.6062992125984252
          },
          {
            "number": 1,
            "time": 58.80004900000008,
            "value": 0.6220472440944882
          },
          {
            "number": 1,
            "time": 58.818230833333416,
            "value": 0.6299212598425197
          }
        ],
        "7": [
          {
            "number": 7,
            "time": 0,
            "value": 1
          }
        ],
        "32": [
          {
            "number": 32,
            "time": 4.36364,
            "value": 0.23622047244094488
          }
        ]
      },
      "id": 2,
      "name": "Overdrive Guitar",
      "instrumentNumber": 29,
      "instrument": "overdriven guitar",
      "instrumentFamily": "guitar",
      "channelNumber": 2,
      "isPercussion": false
    },
    {
      "startTime": 6.2727325,
      "duration": 152.72739999999982,
      "length": 681,
      "notes": [
        {
          "name": "E2",
          "midi": 40,
          "time": 6.2727325,
          "velocity": 0.7874015748031497,
          "duration": 0.022727291666666538
        },
        {
          "name": "E2",
          "midi": 40,
          "time": 10.6363725,
          "velocity": 0.7874015748031497,
          "duration": 0.022727291666667426
        },
        {
          "name": "E2",
          "midi": 40,
          "time": 12.818192500000002,
          "velocity": 0.7874015748031497,
          "duration": 0.022727291666667426
        },
        {
          "name": "C3",
          "midi": 48,
          "time": 13.090920000000002,
          "velocity": 0.7874015748031497,
          "duration": 0.13636374999999923
        },
        {
          "name": "C3",
          "midi": 48,
          "time": 13.227283750000002,
          "velocity": 0.7874015748031497,
          "duration": 0.13636374999999923
        },
        {
          "name": "C3",
          "midi": 48,
          "time": 13.3636475,
          "velocity": 0.7874015748031497,
          "duration": 0.13636374999999923
        },
        {
          "name": "G3",
          "midi": 55,
          "time": 13.50001125,
          "velocity": 0.7874015748031497,
          "duration": 0.27272750000000023
        },
        {
          "name": "G3",
          "midi": 55,
          "time": 13.77273875,
          "velocity": 0.7874015748031497,
          "duration": 0.13636374999999923
        },
        {
          "name": "A3",
          "midi": 57,
          "time": 13.9091025,
          "velocity": 0.7874015748031497,
          "duration": 0.13636374999999923
        },
        {
          "name": "G3",
          "midi": 55,
          "time": 14.045466249999999,
          "velocity": 0.7874015748031497,
          "duration": 0.13636374999999923
        },
        {
          "name": "C3",
          "midi": 48,
          "time": 14.181829999999998,
          "velocity": 0.7874015748031497,
          "duration": 0.13636374999999923
        },
        {
          "name": "C4",
          "midi": 60,
          "time": 14.318193749999997,
          "velocity": 0.7874015748031497,
          "duration": 0.13636374999999923
        },
        {
          "name": "G3",
          "midi": 55,
          "time": 14.454557499999996,
          "velocity": 0.7874015748031497,
          "duration": 0.13636374999999923
        },
        {
          "name": "G3",
          "midi": 55,
          "time": 14.590921249999996,
          "velocity": 0.7874015748031497,
          "duration": 0.13636374999999923
        },
        {
          "name": "A#3",
          "midi": 58,
          "time": 14.727284999999995,
          "velocity": 0.7874015748031497,
          "duration": 0.13636374999999923
        },
        {
          "name": "G3",
          "midi": 55,
          "time": 14.863648749999994,
          "velocity": 0.7874015748031497,
          "duration": 0.13636374999999923
        },
        {
          "name": "A3",
          "midi": 57,
          "time": 15.000012499999993,
          "velocity": 0.7874015748031497,
          "duration": 0.13636374999999923
        },
        {
          "name": "G3",
          "midi": 55,
          "time": 15.136376249999993,
          "velocity": 0.7874015748031497,
          "duration": 0.13636374999999923
        },
        {
          "name": "C3",
          "midi": 48,
          "time": 15.272739999999992,
          "velocity": 0.7874015748031497,
          "duration": 0.13636374999999923
        },
        {
          "name": "C3",
          "midi": 48,
          "time": 15.409103749999991,
          "velocity": 0.7874015748031497,
          "duration": 0.13636374999999923
        },
        {
          "name": "C3",
          "midi": 48,
          "time": 15.54546749999999,
          "velocity": 0.7874015748031497,
          "duration": 0.13636374999999923
        },
        {
          "name": "G3",
          "midi": 55,
          "time": 15.68183124999999,
          "velocity": 0.7874015748031497,
          "duration": 0.27272750000000023
        },
        {
          "name": "G3",
          "midi": 55,
          "time": 15.95455874999999,
          "velocity": 0.7874015748031497,
          "duration": 0.136363750000001
        },
        {
          "name": "A3",
          "midi": 57,
          "time": 16.09092249999999,
          "velocity": 0.7874015748031497,
          "duration": 0.136363750000001
        },
        {
          "name": "G3",
          "midi": 55,
          "time": 16.22728624999999,
          "velocity": 0.7874015748031497,
          "duration": 0.136363750000001
        },
        {
          "name": "C3",
          "midi": 48,
          "time": 16.363649999999993,
          "velocity": 0.7874015748031497,
          "duration": 0.136363750000001
        },
        {
          "name": "C4",
          "midi": 60,
          "time": 16.500013749999994,
          "velocity": 0.7874015748031497,
          "duration": 0.136363750000001
        },
        {
          "name": "G3",
          "midi": 55,
          "time": 16.636377499999995,
          "velocity": 0.7874015748031497,
          "duration": 0.136363750000001
        },
        {
          "name": "G3",
          "midi": 55,
          "time": 16.772741249999996,
          "velocity": 0.7874015748031497,
          "duration": 0.136363750000001
        },
        {
          "name": "A#3",
          "midi": 58,
          "time": 16.909104999999997,
          "velocity": 0.7874015748031497,
          "duration": 0.136363750000001
        },
        {
          "name": "G3",
          "midi": 55,
          "time": 17.045468749999998,
          "velocity": 0.7874015748031497,
          "duration": 0.136363750000001
        },
        {
          "name": "A3",
          "midi": 57,
          "time": 17.1818325,
          "velocity": 0.7874015748031497,
          "duration": 0.136363750000001
        },
        {
          "name": "G3",
          "midi": 55,
          "time": 17.31819625,
          "velocity": 0.7874015748031497,
          "duration": 0.136363750000001
        },
        {
          "name": "C3",
          "midi": 48,
          "time": 17.45456,
          "velocity": 0.7874015748031497,
          "duration": 0.136363750000001
        },
        {
          "name": "C3",
          "midi": 48,
          "time": 17.59092375,
          "velocity": 0.7874015748031497,
          "duration": 0.136363750000001
        },
        {
          "name": "C3",
          "midi": 48,
          "time": 17.727287500000003,
          "velocity": 0.7874015748031497,
          "duration": 0.136363750000001
        },
        {
          "name": "G3",
          "midi": 55,
          "time": 17.863651250000004,
          "velocity": 0.7874015748031497,
          "duration": 0.27272749999999846
        },
        {
          "name": "G3",
          "midi": 55,
          "time": 18.136378750000002,
          "velocity": 0.7874015748031497,
          "duration": 0.136363750000001
        },
        {
          "name": "A3",
          "midi": 57,
          "time": 18.272742500000003,
          "velocity": 0.7874015748031497,
          "duration": 0.136363750000001
        },
        {
          "name": "G3",
          "midi": 55,
          "time": 18.409106250000004,
          "velocity": 0.7874015748031497,
          "duration": 0.136363750000001
        },
        {
          "name": "C3",
          "midi": 48,
          "time": 18.545470000000005,
          "velocity": 0.7874015748031497,
          "duration": 0.136363750000001
        },
        {
          "name": "C4",
          "midi": 60,
          "time": 18.681833750000006,
          "velocity": 0.7874015748031497,
          "duration": 0.136363750000001
        },
        {
          "name": "G3",
          "midi": 55,
          "time": 18.818197500000007,
          "velocity": 0.7874015748031497,
          "duration": 0.136363750000001
        },
        {
          "name": "G3",
          "midi": 55,
          "time": 18.95456125000001,
          "velocity": 0.7874015748031497,
          "duration": 0.136363750000001
        },
        {
          "name": "A#3",
          "midi": 58,
          "time": 19.09092500000001,
          "velocity": 0.7874015748031497,
          "duration": 0.136363750000001
        },
        {
          "name": "G3",
          "midi": 55,
          "time": 19.22728875000001,
          "velocity": 0.7874015748031497,
          "duration": 0.136363750000001
        },
        {
          "name": "A3",
          "midi": 57,
          "time": 19.36365250000001,
          "velocity": 0.7874015748031497,
          "duration": 0.136363750000001
        },
        {
          "name": "G3",
          "midi": 55,
          "time": 19.500016250000012,
          "velocity": 0.7874015748031497,
          "duration": 0.136363750000001
        },
        {
          "name": "C3",
          "midi": 48,
          "time": 19.636380000000013,
          "velocity": 0.7874015748031497,
          "duration": 0.136363750000001
        },
        {
          "name": "C3",
          "midi": 48,
          "time": 19.772743750000014,
          "velocity": 0.7874015748031497,
          "duration": 0.136363750000001
        },
        {
          "name": "C3",
          "midi": 48,
          "time": 19.909107500000015,
          "velocity": 0.7874015748031497,
          "duration": 0.136363750000001
        },
        {
          "name": "G3",
          "midi": 55,
          "time": 20.045471250000016,
          "velocity": 0.7874015748031497,
          "duration": 0.27272749999999846
        },
        {
          "name": "G3",
          "midi": 55,
          "time": 20.318198750000015,
          "velocity": 0.7874015748031497,
          "duration": 0.136363750000001
        },
        {
          "name": "A3",
          "midi": 57,
          "time": 20.454562500000016,
          "velocity": 0.7874015748031497,
          "duration": 0.136363750000001
        },
        {
          "name": "G3",
          "midi": 55,
          "time": 20.590926250000017,
          "velocity": 0.7874015748031497,
          "duration": 0.136363750000001
        },
        {
          "name": "C3",
          "midi": 48,
          "time": 20.727290000000018,
          "velocity": 0.7874015748031497,
          "duration": 0.136363750000001
        },
        {
          "name": "C4",
          "midi": 60,
          "time": 20.86365375000002,
          "velocity": 0.7874015748031497,
          "duration": 0.136363750000001
        },
        {
          "name": "G3",
          "midi": 55,
          "time": 21.00001750000002,
          "velocity": 0.7874015748031497,
          "duration": 0.136363750000001
        },
        {
          "name": "G3",
          "midi": 55,
          "time": 21.13638125000002,
          "velocity": 0.7874015748031497,
          "duration": 0.136363750000001
        },
        {
          "name": "A#3",
          "midi": 58,
          "time": 21.27274500000002,
          "velocity": 0.7874015748031497,
          "duration": 0.136363750000001
        },
        {
          "name": "G3",
          "midi": 55,
          "time": 21.409108750000023,
          "velocity": 0.7874015748031497,
          "duration": 0.136363750000001
        },
        {
          "name": "A3",
          "midi": 57,
          "time": 21.545472500000024,
          "velocity": 0.7874015748031497,
          "duration": 0.136363750000001
        },
        {
          "name": "G3",
          "midi": 55,
          "time": 21.681836250000025,
          "velocity": 0.7874015748031497,
          "duration": 0.136363750000001
        },
        {
          "name": "C3",
          "midi": 48,
          "time": 21.818200000000026,
          "velocity": 0.7874015748031497,
          "duration": 0.136363750000001
        },
        {
          "name": "C3",
          "midi": 48,
          "time": 21.954563750000027,
          "velocity": 0.7874015748031497,
          "duration": 0.136363750000001
        },
        {
          "name": "C3",
          "midi": 48,
          "time": 22.090927500000028,
          "velocity": 0.7874015748031497,
          "duration": 0.136363750000001
        },
        {
          "name": "G3",
          "midi": 55,
          "time": 22.22729125000003,
          "velocity": 0.7874015748031497,
          "duration": 0.27272749999999846
        },
        {
          "name": "G3",
          "midi": 55,
          "time": 22.500018750000027,
          "velocity": 0.7874015748031497,
          "duration": 0.136363750000001
        },
        {
          "name": "A3",
          "midi": 57,
          "time": 22.63638250000003,
          "velocity": 0.7874015748031497,
          "duration": 0.136363750000001
        },
        {
          "name": "G3",
          "midi": 55,
          "time": 22.77274625000003,
          "velocity": 0.7874015748031497,
          "duration": 0.136363750000001
        },
        {
          "name": "C3",
          "midi": 48,
          "time": 22.90911000000003,
          "velocity": 0.7874015748031497,
          "duration": 0.136363750000001
        },
        {
          "name": "C4",
          "midi": 60,
          "time": 23.04547375000003,
          "velocity": 0.7874015748031497,
          "duration": 0.136363750000001
        },
        {
          "name": "G3",
          "midi": 55,
          "time": 23.181837500000032,
          "velocity": 0.7874015748031497,
          "duration": 0.136363750000001
        },
        {
          "name": "G3",
          "midi": 55,
          "time": 23.318201250000033,
          "velocity": 0.7874015748031497,
          "duration": 0.136363750000001
        },
        {
          "name": "A#3",
          "midi": 58,
          "time": 23.454565000000034,
          "velocity": 0.7874015748031497,
          "duration": 0.136363750000001
        },
        {
          "name": "G3",
          "midi": 55,
          "time": 23.590928750000035,
          "velocity": 0.7874015748031497,
          "duration": 0.136363750000001
        },
        {
          "name": "A3",
          "midi": 57,
          "time": 23.727292500000036,
          "velocity": 0.7874015748031497,
          "duration": 0.136363750000001
        },
        {
          "name": "G3",
          "midi": 55,
          "time": 23.863656250000037,
          "velocity": 0.7874015748031497,
          "duration": 0.136363750000001
        },
        {
          "name": "C3",
          "midi": 48,
          "time": 24.00002000000004,
          "velocity": 0.7874015748031497,
          "duration": 0.136363750000001
        },
        {
          "name": "C3",
          "midi": 48,
          "time": 24.13638375000004,
          "velocity": 0.7874015748031497,
          "duration": 0.136363750000001
        },
        {
          "name": "C3",
          "midi": 48,
          "time": 24.27274750000004,
          "velocity": 0.7874015748031497,
          "duration": 0.136363750000001
        },
        {
          "name": "G3",
          "midi": 55,
          "time": 24.40911125000004,
          "velocity": 0.7874015748031497,
          "duration": 0.27272749999999846
        },
        {
          "name": "G3",
          "midi": 55,
          "time": 24.68183875000004,
          "velocity": 0.7874015748031497,
          "duration": 0.136363750000001
        },
        {
          "name": "A3",
          "midi": 57,
          "time": 24.81820250000004,
          "velocity": 0.7874015748031497,
          "duration": 0.136363750000001
        },
        {
          "name": "G3",
          "midi": 55,
          "time": 24.954566250000042,
          "velocity": 0.7874015748031497,
          "duration": 0.136363750000001
        },
        {
          "name": "C3",
          "midi": 48,
          "time": 25.090930000000043,
          "velocity": 0.7874015748031497,
          "duration": 0.136363750000001
        },
        {
          "name": "C4",
          "midi": 60,
          "time": 25.227293750000044,
          "velocity": 0.7874015748031497,
          "duration": 0.136363750000001
        },
        {
          "name": "G3",
          "midi": 55,
          "time": 25.363657500000045,
          "velocity": 0.7874015748031497,
          "duration": 0.136363750000001
        },
        {
          "name": "G3",
          "midi": 55,
          "time": 25.500021250000046,
          "velocity": 0.7874015748031497,
          "duration": 0.136363750000001
        },
        {
          "name": "A#3",
          "midi": 58,
          "time": 25.636385000000047,
          "velocity": 0.7874015748031497,
          "duration": 0.136363750000001
        },
        {
          "name": "G3",
          "midi": 55,
          "time": 25.772748750000048,
          "velocity": 0.7874015748031497,
          "duration": 0.136363750000001
        },
        {
          "name": "A3",
          "midi": 57,
          "time": 25.90911250000005,
          "velocity": 0.7874015748031497,
          "duration": 0.136363750000001
        },
        {
          "name": "G3",
          "midi": 55,
          "time": 26.04547625000005,
          "velocity": 0.7874015748031497,
          "duration": 0.136363750000001
        },
        {
          "name": "C3",
          "midi": 48,
          "time": 26.18184000000005,
          "velocity": 0.7874015748031497,
          "duration": 0.136363750000001
        },
        {
          "name": "C3",
          "midi": 48,
          "time": 26.318203750000052,
          "velocity": 0.7874015748031497,
          "duration": 0.136363750000001
        },
        {
          "name": "C3",
          "midi": 48,
          "time": 26.454567500000053,
          "velocity": 0.7874015748031497,
          "duration": 0.136363750000001
        },
        {
          "name": "G3",
          "midi": 55,
          "time": 26.590931250000054,
          "velocity": 0.7874015748031497,
          "duration": 0.27272749999999846
        },
        {
          "name": "G3",
          "midi": 55,
          "time": 26.863658750000052,
          "velocity": 0.7874015748031497,
          "duration": 0.136363750000001
        },
        {
          "name": "A3",
          "midi": 57,
          "time": 27.000022500000053,
          "velocity": 0.7874015748031497,
          "duration": 0.136363750000001
        },
        {
          "name": "G3",
          "midi": 55,
          "time": 27.136386250000054,
          "velocity": 0.7874015748031497,
          "duration": 0.136363750000001
        },
        {
          "name": "C3",
          "midi": 48,
          "time": 27.272750000000055,
          "velocity": 0.7874015748031497,
          "duration": 0.136363750000001
        },
        {
          "name": "C4",
          "midi": 60,
          "time": 27.409113750000056,
          "velocity": 0.7874015748031497,
          "duration": 0.136363750000001
        },
        {
          "name": "G3",
          "midi": 55,
          "time": 27.545477500000057,
          "velocity": 0.7874015748031497,
          "duration": 0.136363750000001
        },
        {
          "name": "G3",
          "midi": 55,
          "time": 27.68184125000006,
          "velocity": 0.7874015748031497,
          "duration": 0.136363750000001
        },
        {
          "name": "A#3",
          "midi": 58,
          "time": 27.81820500000006,
          "velocity": 0.7874015748031497,
          "duration": 0.136363750000001
        },
        {
          "name": "G3",
          "midi": 55,
          "time": 27.95456875000006,
          "velocity": 0.7874015748031497,
          "duration": 0.136363750000001
        },
        {
          "name": "A3",
          "midi": 57,
          "time": 28.09093250000006,
          "velocity": 0.7874015748031497,
          "duration": 0.136363750000001
        },
        {
          "name": "G3",
          "midi": 55,
          "time": 28.227296250000062,
          "velocity": 0.7874015748031497,
          "duration": 0.136363750000001
        },
        {
          "name": "C3",
          "midi": 48,
          "time": 28.363660000000063,
          "velocity": 0.7874015748031497,
          "duration": 0.136363750000001
        },
        {
          "name": "C3",
          "midi": 48,
          "time": 28.500023750000064,
          "velocity": 0.7874015748031497,
          "duration": 0.136363750000001
        },
        {
          "name": "C3",
          "midi": 48,
          "time": 28.636387500000065,
          "velocity": 0.7874015748031497,
          "duration": 0.136363750000001
        },
        {
          "name": "G3",
          "midi": 55,
          "time": 28.772751250000066,
          "velocity": 0.7874015748031497,
          "duration": 0.27272749999999846
        },
        {
          "name": "G3",
          "midi": 55,
          "time": 29.045478750000065,
          "velocity": 0.7874015748031497,
          "duration": 0.136363750000001
        },
        {
          "name": "A3",
          "midi": 57,
          "time": 29.181842500000066,
          "velocity": 0.7874015748031497,
          "duration": 0.136363750000001
        },
        {
          "name": "G3",
          "midi": 55,
          "time": 29.318206250000067,
          "velocity": 0.7874015748031497,
          "duration": 0.136363750000001
        },
        {
          "name": "C3",
          "midi": 48,
          "time": 29.454570000000068,
          "velocity": 0.7874015748031497,
          "duration": 0.136363750000001
        },
        {
          "name": "C4",
          "midi": 60,
          "time": 29.59093375000007,
          "velocity": 0.7874015748031497,
          "duration": 0.136363750000001
        },
        {
          "name": "G3",
          "midi": 55,
          "time": 29.72729750000007,
          "velocity": 0.7874015748031497,
          "duration": 0.136363750000001
        },
        {
          "name": "G3",
          "midi": 55,
          "time": 29.86366125000007,
          "velocity": 0.7874015748031497,
          "duration": 0.136363750000001
        },
        {
          "name": "A3",
          "midi": 57,
          "time": 30.000025000000072,
          "velocity": 0.7874015748031497,
          "duration": 0.5454550000000005
        },
        {
          "name": "E3",
          "midi": 52,
          "time": 30.000025000000072,
          "velocity": 0.7874015748031497,
          "duration": 0.5454550000000005
        },
        {
          "name": "A2",
          "midi": 45,
          "time": 30.000025000000072,
          "velocity": 0.7874015748031497,
          "duration": 0.5454550000000005
        },
        {
          "name": "E2",
          "midi": 40,
          "time": 32.454572500000076,
          "velocity": 0.7874015748031497,
          "duration": 0.022727291666669203
        },
        {
          "name": "E2",
          "midi": 40,
          "time": 36.81821250000008,
          "velocity": 0.7874015748031497,
          "duration": 0.022727291666669203
        },
        {
          "name": "E2",
          "midi": 40,
          "time": 39.00003250000008,
          "velocity": 0.7874015748031497,
          "duration": 0.022727291666669203
        },
        {
          "name": "C3",
          "midi": 48,
          "time": 39.27276000000008,
          "velocity": 0.7874015748031497,
          "duration": 0.136363750000001
        },
        {
          "name": "C3",
          "midi": 48,
          "time": 39.409123750000084,
          "velocity": 0.7874015748031497,
          "duration": 0.136363750000001
        },
        {
          "name": "C3",
          "midi": 48,
          "time": 39.545487500000085,
          "velocity": 0.7874015748031497,
          "duration": 0.136363750000001
        },
        {
          "name": "G3",
          "midi": 55,
          "time": 39.681851250000086,
          "velocity": 0.7874015748031497,
          "duration": 0.272727500000002
        },
        {
          "name": "G3",
          "midi": 55,
          "time": 39.95457875000009,
          "velocity": 0.7874015748031497,
          "duration": 0.136363750000001
        },
        {
          "name": "A3",
          "midi": 57,
          "time": 40.09094250000009,
          "velocity": 0.7874015748031497,
          "duration": 0.136363750000001
        },
        {
          "name": "G3",
          "midi": 55,
          "time": 40.22730625000009,
          "velocity": 0.7874015748031497,
          "duration": 0.136363750000001
        },
        {
          "name": "C3",
          "midi": 48,
          "time": 40.36367000000009,
          "velocity": 0.7874015748031497,
          "duration": 0.136363750000001
        },
        {
          "name": "C4",
          "midi": 60,
          "time": 40.50003375000009,
          "velocity": 0.7874015748031497,
          "duration": 0.136363750000001
        },
        {
          "name": "G3",
          "midi": 55,
          "time": 40.63639750000009,
          "velocity": 0.7874015748031497,
          "duration": 0.136363750000001
        },
        {
          "name": "G3",
          "midi": 55,
          "time": 40.772761250000094,
          "velocity": 0.7874015748031497,
          "duration": 0.136363750000001
        },
        {
          "name": "A#3",
          "midi": 58,
          "time": 40.909125000000095,
          "velocity": 0.7874015748031497,
          "duration": 0.136363750000001
        },
        {
          "name": "G3",
          "midi": 55,
          "time": 41.045488750000096,
          "velocity": 0.7874015748031497,
          "duration": 0.136363750000001
        },
        {
          "name": "A3",
          "midi": 57,
          "time": 41.1818525000001,
          "velocity": 0.7874015748031497,
          "duration": 0.136363750000001
        },
        {
          "name": "G3",
          "midi": 55,
          "time": 41.3182162500001,
          "velocity": 0.7874015748031497,
          "duration": 0.136363750000001
        },
        {
          "name": "C3",
          "midi": 48,
          "time": 41.4545800000001,
          "velocity": 0.7874015748031497,
          "duration": 0.136363750000001
        },
        {
          "name": "C3",
          "midi": 48,
          "time": 41.5909437500001,
          "velocity": 0.7874015748031497,
          "duration": 0.136363750000001
        },
        {
          "name": "C3",
          "midi": 48,
          "time": 41.7273075000001,
          "velocity": 0.7874015748031497,
          "duration": 0.136363750000001
        },
        {
          "name": "G3",
          "midi": 55,
          "time": 41.8636712500001,
          "velocity": 0.7874015748031497,
          "duration": 0.272727500000002
        },
        {
          "name": "G3",
          "midi": 55,
          "time": 42.136398750000104,
          "velocity": 0.7874015748031497,
          "duration": 0.136363750000001
        },
        {
          "name": "A3",
          "midi": 57,
          "time": 42.272762500000105,
          "velocity": 0.7874015748031497,
          "duration": 0.136363750000001
        },
        {
          "name": "G3",
          "midi": 55,
          "time": 42.40912625000011,
          "velocity": 0.7874015748031497,
          "duration": 0.136363750000001
        },
        {
          "name": "C3",
          "midi": 48,
          "time": 42.54549000000011,
          "velocity": 0.7874015748031497,
          "duration": 0.136363750000001
        },
        {
          "name": "C4",
          "midi": 60,
          "time": 42.68185375000011,
          "velocity": 0.7874015748031497,
          "duration": 0.136363750000001
        },
        {
          "name": "G3",
          "midi": 55,
          "time": 42.81821750000011,
          "velocity": 0.7874015748031497,
          "duration": 0.136363750000001
        },
        {
          "name": "G3",
          "midi": 55,
          "time": 42.95458125000011,
          "velocity": 0.7874015748031497,
          "duration": 0.136363750000001
        },
        {
          "name": "A#3",
          "midi": 58,
          "time": 43.09094500000011,
          "velocity": 0.7874015748031497,
          "duration": 0.136363750000001
        },
        {
          "name": "G3",
          "midi": 55,
          "time": 43.22730875000011,
          "velocity": 0.7874015748031497,
          "duration": 0.136363750000001
        },
        {
          "name": "A3",
          "midi": 57,
          "time": 43.36367250000011,
          "velocity": 0.7874015748031497,
          "duration": 0.136363750000001
        },
        {
          "name": "G3",
          "midi": 55,
          "time": 43.500036250000115,
          "velocity": 0.7874015748031497,
          "duration": 0.136363750000001
        },
        {
          "name": "C3",
          "midi": 48,
          "time": 43.636400000000116,
          "velocity": 0.7874015748031497,
          "duration": 0.136363750000001
        },
        {
          "name": "C3",
          "midi": 48,
          "time": 43.77276375000012,
          "velocity": 0.7874015748031497,
          "duration": 0.136363750000001
        },
        {
          "name": "C3",
          "midi": 48,
          "time": 43.90912750000012,
          "velocity": 0.7874015748031497,
          "duration": 0.136363750000001
        },
        {
          "name": "G3",
          "midi": 55,
          "time": 44.04549125000012,
          "velocity": 0.7874015748031497,
          "duration": 0.272727500000002
        },
        {
          "name": "G3",
          "midi": 55,
          "time": 44.31821875000012,
          "velocity": 0.7874015748031497,
          "duration": 0.136363750000001
        },
        {
          "name": "A3",
          "midi": 57,
          "time": 44.45458250000012,
          "velocity": 0.7874015748031497,
          "duration": 0.136363750000001
        },
        {
          "name": "G3",
          "midi": 55,
          "time": 44.59094625000012,
          "velocity": 0.7874015748031497,
          "duration": 0.136363750000001
        },
        {
          "name": "C3",
          "midi": 48,
          "time": 44.727310000000124,
          "velocity": 0.7874015748031497,
          "duration": 0.136363750000001
        },
        {
          "name": "C4",
          "midi": 60,
          "time": 44.863673750000125,
          "velocity": 0.7874015748031497,
          "duration": 0.136363750000001
        },
        {
          "name": "G3",
          "midi": 55,
          "time": 45.000037500000126,
          "velocity": 0.7874015748031497,
          "duration": 0.136363750000001
        },
        {
          "name": "G3",
          "midi": 55,
          "time": 45.13640125000013,
          "velocity": 0.7874015748031497,
          "duration": 0.136363750000001
        },
        {
          "name": "A#3",
          "midi": 58,
          "time": 45.27276500000013,
          "velocity": 0.7874015748031497,
          "duration": 0.136363750000001
        },
        {
          "name": "G3",
          "midi": 55,
          "time": 45.40912875000013,
          "velocity": 0.7874015748031497,
          "duration": 0.136363750000001
        },
        {
          "name": "A3",
          "midi": 57,
          "time": 45.54549250000013,
          "velocity": 0.7874015748031497,
          "duration": 0.136363750000001
        },
        {
          "name": "G3",
          "midi": 55,
          "time": 45.68185625000013,
          "velocity": 0.7874015748031497,
          "duration": 0.136363750000001
        },
        {
          "name": "C3",
          "midi": 48,
          "time": 45.81822000000013,
          "velocity": 0.7874015748031497,
          "duration": 0.136363750000001
        },
        {
          "name": "C3",
          "midi": 48,
          "time": 45.95458375000013,
          "velocity": 0.7874015748031497,
          "duration": 0.136363750000001
        },
        {
          "name": "C3",
          "midi": 48,
          "time": 46.090947500000134,
          "velocity": 0.7874015748031497,
          "duration": 0.136363750000001
        },
        {
          "name": "G3",
          "midi": 55,
          "time": 46.227311250000135,
          "velocity": 0.7874015748031497,
          "duration": 0.272727500000002
        },
        {
          "name": "G3",
          "midi": 55,
          "time": 46.50003875000014,
          "velocity": 0.7874015748031497,
          "duration": 0.136363750000001
        },
        {
          "name": "A3",
          "midi": 57,
          "time": 46.63640250000014,
          "velocity": 0.7874015748031497,
          "duration": 0.136363750000001
        },
        {
          "name": "G3",
          "midi": 55,
          "time": 46.77276625000014,
          "velocity": 0.7874015748031497,
          "duration": 0.136363750000001
        },
        {
          "name": "C3",
          "midi": 48,
          "time": 46.90913000000014,
          "velocity": 0.7874015748031497,
          "duration": 0.136363750000001
        },
        {
          "name": "C4",
          "midi": 60,
          "time": 47.04549375000014,
          "velocity": 0.7874015748031497,
          "duration": 0.136363750000001
        },
        {
          "name": "G3",
          "midi": 55,
          "time": 47.18185750000014,
          "velocity": 0.7874015748031497,
          "duration": 0.136363750000001
        },
        {
          "name": "G3",
          "midi": 55,
          "time": 47.31822125000014,
          "velocity": 0.7874015748031497,
          "duration": 0.136363750000001
        },
        {
          "name": "A#3",
          "midi": 58,
          "time": 47.454585000000144,
          "velocity": 0.7874015748031497,
          "duration": 0.136363750000001
        },
        {
          "name": "G3",
          "midi": 55,
          "time": 47.590948750000145,
          "velocity": 0.7874015748031497,
          "duration": 0.136363750000001
        },
        {
          "name": "A3",
          "midi": 57,
          "time": 47.727312500000146,
          "velocity": 0.7874015748031497,
          "duration": 0.136363750000001
        },
        {
          "name": "G3",
          "midi": 55,
          "time": 47.86367625000015,
          "velocity": 0.7874015748031497,
          "duration": 0.136363750000001
        },
        {
          "name": "C3",
          "midi": 48,
          "time": 48.00004000000015,
          "velocity": 0.7874015748031497,
          "duration": 0.136363750000001
        },
        {
          "name": "C3",
          "midi": 48,
          "time": 48.13640375000015,
          "velocity": 0.7874015748031497,
          "duration": 0.136363750000001
        },
        {
          "name": "C3",
          "midi": 48,
          "time": 48.27276750000015,
          "velocity": 0.7874015748031497,
          "duration": 0.136363750000001
        },
        {
          "name": "G3",
          "midi": 55,
          "time": 48.40913125000015,
          "velocity": 0.7874015748031497,
          "duration": 0.272727500000002
        },
        {
          "name": "G3",
          "midi": 55,
          "time": 48.68185875000015,
          "velocity": 0.7874015748031497,
          "duration": 0.136363750000001
        },
        {
          "name": "A3",
          "midi": 57,
          "time": 48.818222500000154,
          "velocity": 0.7874015748031497,
          "duration": 0.136363750000001
        },
        {
          "name": "G3",
          "midi": 55,
          "time": 48.954586250000155,
          "velocity": 0.7874015748031497,
          "duration": 0.136363750000001
        },
        {
          "name": "C3",
          "midi": 48,
          "time": 49.090950000000156,
          "velocity": 0.7874015748031497,
          "duration": 0.136363750000001
        },
        {
          "name": "C4",
          "midi": 60,
          "time": 49.22731375000016,
          "velocity": 0.7874015748031497,
          "duration": 0.136363750000001
        },
        {
          "name": "G3",
          "midi": 55,
          "time": 49.36367750000016,
          "velocity": 0.7874015748031497,
          "duration": 0.136363750000001
        },
        {
          "name": "G3",
          "midi": 55,
          "time": 49.50004125000016,
          "velocity": 0.7874015748031497,
          "duration": 0.136363750000001
        },
        {
          "name": "A#3",
          "midi": 58,
          "time": 49.63640500000016,
          "velocity": 0.7874015748031497,
          "duration": 0.136363750000001
        },
        {
          "name": "G3",
          "midi": 55,
          "time": 49.77276875000016,
          "velocity": 0.7874015748031497,
          "duration": 0.136363750000001
        },
        {
          "name": "A3",
          "midi": 57,
          "time": 49.90913250000016,
          "velocity": 0.7874015748031497,
          "duration": 0.136363750000001
        },
        {
          "name": "G3",
          "midi": 55,
          "time": 50.04549625000016,
          "velocity": 0.7874015748031497,
          "duration": 0.136363750000001
        },
        {
          "name": "C3",
          "midi": 48,
          "time": 50.181860000000164,
          "velocity": 0.7874015748031497,
          "duration": 0.136363750000001
        },
        {
          "name": "C3",
          "midi": 48,
          "time": 50.318223750000165,
          "velocity": 0.7874015748031497,
          "duration": 0.136363750000001
        },
        {
          "name": "C3",
          "midi": 48,
          "time": 50.454587500000166,
          "velocity": 0.7874015748031497,
          "duration": 0.136363750000001
        },
        {
          "name": "G3",
          "midi": 55,
          "time": 50.59095125000017,
          "velocity": 0.7874015748031497,
          "duration": 0.272727500000002
        },
        {
          "name": "G3",
          "midi": 55,
          "time": 50.86367875000017,
          "velocity": 0.7874015748031497,
          "duration": 0.136363750000001
        },
        {
          "name": "A3",
          "midi": 57,
          "time": 51.00004250000017,
          "velocity": 0.7874015748031497,
          "duration": 0.136363750000001
        },
        {
          "name": "G3",
          "midi": 55,
          "time": 51.13640625000017,
          "velocity": 0.7874015748031497,
          "duration": 0.136363750000001
        },
        {
          "name": "C3",
          "midi": 48,
          "time": 51.27277000000017,
          "velocity": 0.7874015748031497,
          "duration": 0.136363750000001
        },
        {
          "name": "C4",
          "midi": 60,
          "time": 51.40913375000017,
          "velocity": 0.7874015748031497,
          "duration": 0.136363750000001
        },
        {
          "name": "G3",
          "midi": 55,
          "time": 51.545497500000174,
          "velocity": 0.7874015748031497,
          "duration": 0.136363750000001
        },
        {
          "name": "G3",
          "midi": 55,
          "time": 51.681861250000175,
          "velocity": 0.7874015748031497,
          "duration": 0.136363750000001
        },
        {
          "name": "A#3",
          "midi": 58,
          "time": 51.818225000000176,
          "velocity": 0.7874015748031497,
          "duration": 0.136363750000001
        },
        {
          "name": "G3",
          "midi": 55,
          "time": 51.95458875000018,
          "velocity": 0.7874015748031497,
          "duration": 0.136363750000001
        },
        {
          "name": "A3",
          "midi": 57,
          "time": 52.09095250000018,
          "velocity": 0.7874015748031497,
          "duration": 0.136363750000001
        },
        {
          "name": "G3",
          "midi": 55,
          "time": 52.22731625000018,
          "velocity": 0.7874015748031497,
          "duration": 0.136363750000001
        },
        {
          "name": "C3",
          "midi": 48,
          "time": 52.36368000000018,
          "velocity": 0.7874015748031497,
          "duration": 0.136363750000001
        },
        {
          "name": "C3",
          "midi": 48,
          "time": 52.50004375000018,
          "velocity": 0.7874015748031497,
          "duration": 0.136363750000001
        },
        {
          "name": "C3",
          "midi": 48,
          "time": 52.63640750000018,
          "velocity": 0.7874015748031497,
          "duration": 0.136363750000001
        },
        {
          "name": "G3",
          "midi": 55,
          "time": 52.77277125000018,
          "velocity": 0.7874015748031497,
          "duration": 0.272727500000002
        },
        {
          "name": "G3",
          "midi": 55,
          "time": 53.045498750000185,
          "velocity": 0.7874015748031497,
          "duration": 0.136363750000001
        },
        {
          "name": "A3",
          "midi": 57,
          "time": 53.181862500000186,
          "velocity": 0.7874015748031497,
          "duration": 0.136363750000001
        },
        {
          "name": "G3",
          "midi": 55,
          "time": 53.31822625000019,
          "velocity": 0.7874015748031497,
          "duration": 0.136363750000001
        },
        {
          "name": "C3",
          "midi": 48,
          "time": 53.45459000000019,
          "velocity": 0.7874015748031497,
          "duration": 0.136363750000001
        },
        {
          "name": "C4",
          "midi": 60,
          "time": 53.59095375000019,
          "velocity": 0.7874015748031497,
          "duration": 0.136363750000001
        },
        {
          "name": "G3",
          "midi": 55,
          "time": 53.72731750000019,
          "velocity": 0.7874015748031497,
          "duration": 0.136363750000001
        },
        {
          "name": "G3",
          "midi": 55,
          "time": 53.86368125000019,
          "velocity": 0.7874015748031497,
          "duration": 0.136363750000001
        },
        {
          "name": "A#3",
          "midi": 58,
          "time": 54.00004500000019,
          "velocity": 0.7874015748031497,
          "duration": 0.136363750000001
        },
        {
          "name": "G3",
          "midi": 55,
          "time": 54.13640875000019,
          "velocity": 0.7874015748031497,
          "duration": 0.136363750000001
        },
        {
          "name": "A3",
          "midi": 57,
          "time": 54.272772500000194,
          "velocity": 0.7874015748031497,
          "duration": 0.136363750000001
        },
        {
          "name": "G3",
          "midi": 55,
          "time": 54.409136250000195,
          "velocity": 0.7874015748031497,
          "duration": 0.136363750000001
        },
        {
          "name": "C3",
          "midi": 48,
          "time": 54.545500000000196,
          "velocity": 0.7874015748031497,
          "duration": 0.136363750000001
        },
        {
          "name": "C3",
          "midi": 48,
          "time": 54.6818637500002,
          "velocity": 0.7874015748031497,
          "duration": 0.136363750000001
        },
        {
          "name": "C3",
          "midi": 48,
          "time": 54.8182275000002,
          "velocity": 0.7874015748031497,
          "duration": 0.136363750000001
        },
        {
          "name": "G3",
          "midi": 55,
          "time": 54.9545912500002,
          "velocity": 0.7874015748031497,
          "duration": 0.272727500000002
        },
        {
          "name": "G3",
          "midi": 55,
          "time": 55.2273187500002,
          "velocity": 0.7874015748031497,
          "duration": 0.136363750000001
        },
        {
          "name": "A3",
          "midi": 57,
          "time": 55.3636825000002,
          "velocity": 0.7874015748031497,
          "duration": 0.136363750000001
        },
        {
          "name": "G3",
          "midi": 55,
          "time": 55.5000462500002,
          "velocity": 0.7874015748031497,
          "duration": 0.136363750000001
        },
        {
          "name": "C3",
          "midi": 48,
          "time": 55.636410000000204,
          "velocity": 0.7874015748031497,
          "duration": 0.136363750000001
        },
        {
          "name": "C4",
          "midi": 60,
          "time": 55.772773750000205,
          "velocity": 0.7874015748031497,
          "duration": 0.136363750000001
        },
        {
          "name": "G3",
          "midi": 55,
          "time": 55.909137500000206,
          "velocity": 0.7874015748031497,
          "duration": 0.136363750000001
        },
        {
          "name": "G3",
          "midi": 55,
          "time": 56.04550125000021,
          "velocity": 0.7874015748031497,
          "duration": 0.136363750000001
        },
        {
          "name": "A#3",
          "midi": 58,
          "time": 56.18186500000021,
          "velocity": 0.7874015748031497,
          "duration": 0.136363750000001
        },
        {
          "name": "G3",
          "midi": 55,
          "time": 56.31822875000021,
          "velocity": 0.7874015748031497,
          "duration": 0.136363750000001
        },
        {
          "name": "A3",
          "midi": 57,
          "time": 56.45459250000021,
          "velocity": 0.7874015748031497,
          "duration": 0.136363750000001
        },
        {
          "name": "G3",
          "midi": 55,
          "time": 56.59095625000021,
          "velocity": 0.7874015748031497,
          "duration": 0.136363750000001
        },
        {
          "name": "G3",
          "midi": 55,
          "time": 56.72732000000021,
          "velocity": 0.7874015748031497,
          "duration": 0.272727500000002
        },
        {
          "name": "C3",
          "midi": 48,
          "time": 56.72732000000021,
          "velocity": 0.7874015748031497,
          "duration": 0.272727500000002
        },
        {
          "name": "A3",
          "midi": 57,
          "time": 57.136411250000215,
          "velocity": 0.7874015748031497,
          "duration": 0.272727500000002
        },
        {
          "name": "C3",
          "midi": 48,
          "time": 57.136411250000215,
          "velocity": 0.7874015748031497,
          "duration": 0.272727500000002
        },
        {
          "name": "A#3",
          "midi": 58,
          "time": 57.54550250000022,
          "velocity": 0.7874015748031497,
          "duration": 0.5454549999999969
        },
        {
          "name": "C3",
          "midi": 48,
          "time": 57.54550250000022,
          "velocity": 0.7874015748031497,
          "duration": 0.5454549999999969
        },
        {
          "name": "D#4",
          "midi": 63,
          "time": 58.909140000000214,
          "velocity": 0.7874015748031497,
          "duration": 0.272727500000002
        },
        {
          "name": "F3",
          "midi": 53,
          "time": 58.909140000000214,
          "velocity": 0.7874015748031497,
          "duration": 0.272727500000002
        },
        {
          "name": "D4",
          "midi": 62,
          "time": 59.31823125000022,
          "velocity": 0.7874015748031497,
          "duration": 0.272727500000002
        },
        {
          "name": "F3",
          "midi": 53,
          "time": 59.31823125000022,
          "velocity": 0.7874015748031497,
          "duration": 0.272727500000002
        },
        {
          "name": "D#4",
          "midi": 63,
          "time": 59.72732250000022,
          "velocity": 0.7874015748031497,
          "duration": 0.5454549999999969
        },
        {
          "name": "F3",
          "midi": 53,
          "time": 59.72732250000022,
          "velocity": 0.7874015748031497,
          "duration": 0.5454549999999969
        },
        {
          "name": "G3",
          "midi": 55,
          "time": 61.090960000000216,
          "velocity": 0.7874015748031497,
          "duration": 0.272727500000002
        },
        {
          "name": "C3",
          "midi": 48,
          "time": 61.090960000000216,
          "velocity": 0.7874015748031497,
          "duration": 0.272727500000002
        },
        {
          "name": "A3",
          "midi": 57,
          "time": 61.50005125000022,
          "velocity": 0.7874015748031497,
          "duration": 0.272727500000002
        },
        {
          "name": "C3",
          "midi": 48,
          "time": 61.50005125000022,
          "velocity": 0.7874015748031497,
          "duration": 0.272727500000002
        },
        {
          "name": "A#3",
          "midi": 58,
          "time": 61.90914250000022,
          "velocity": 0.7874015748031497,
          "duration": 0.5454549999999969
        },
        {
          "name": "C3",
          "midi": 48,
          "time": 61.90914250000022,
          "velocity": 0.7874015748031497,
          "duration": 0.5454549999999969
        },
        {
          "name": "D#4",
          "midi": 63,
          "time": 63.27278000000022,
          "velocity": 0.7874015748031497,
          "duration": 0.272727500000002
        },
        {
          "name": "F3",
          "midi": 53,
          "time": 63.27278000000022,
          "velocity": 0.7874015748031497,
          "duration": 0.272727500000002
        },
        {
          "name": "D4",
          "midi": 62,
          "time": 63.68187125000022,
          "velocity": 0.7874015748031497,
          "duration": 0.272727500000002
        },
        {
          "name": "F3",
          "midi": 53,
          "time": 63.68187125000022,
          "velocity": 0.7874015748031497,
          "duration": 0.272727500000002
        },
        {
          "name": "D#4",
          "midi": 63,
          "time": 64.09096250000022,
          "velocity": 0.7874015748031497,
          "duration": 0.545455000000004
        },
        {
          "name": "F3",
          "midi": 53,
          "time": 64.09096250000022,
          "velocity": 0.7874015748031497,
          "duration": 0.545455000000004
        },
        {
          "name": "C3",
          "midi": 48,
          "time": 65.45460000000023,
          "velocity": 0.7874015748031497,
          "duration": 0.136363750000001
        },
        {
          "name": "C3",
          "midi": 48,
          "time": 65.59096375000023,
          "velocity": 0.7874015748031497,
          "duration": 0.136363750000001
        },
        {
          "name": "C3",
          "midi": 48,
          "time": 65.72732750000023,
          "velocity": 0.7874015748031497,
          "duration": 0.136363750000001
        },
        {
          "name": "G3",
          "midi": 55,
          "time": 65.86369125000023,
          "velocity": 0.7874015748031497,
          "duration": 0.272727500000002
        },
        {
          "name": "G3",
          "midi": 55,
          "time": 66.13641875000023,
          "velocity": 0.7874015748031497,
          "duration": 0.136363750000001
        },
        {
          "name": "A3",
          "midi": 57,
          "time": 66.27278250000023,
          "velocity": 0.7874015748031497,
          "duration": 0.136363750000001
        },
        {
          "name": "G3",
          "midi": 55,
          "time": 66.40914625000023,
          "velocity": 0.7874015748031497,
          "duration": 0.136363750000001
        },
        {
          "name": "C3",
          "midi": 48,
          "time": 66.54551000000023,
          "velocity": 0.7874015748031497,
          "duration": 0.136363750000001
        },
        {
          "name": "C4",
          "midi": 60,
          "time": 66.68187375000024,
          "velocity": 0.7874015748031497,
          "duration": 0.136363750000001
        },
        {
          "name": "G3",
          "midi": 55,
          "time": 66.81823750000024,
          "velocity": 0.7874015748031497,
          "duration": 0.136363750000001
        },
        {
          "name": "G3",
          "midi": 55,
          "time": 66.95460125000024,
          "velocity": 0.7874015748031497,
          "duration": 0.136363750000001
        },
        {
          "name": "A#3",
          "midi": 58,
          "time": 67.09096500000024,
          "velocity": 0.7874015748031497,
          "duration": 0.136363750000001
        },
        {
          "name": "G3",
          "midi": 55,
          "time": 67.22732875000024,
          "velocity": 0.7874015748031497,
          "duration": 0.136363750000001
        },
        {
          "name": "A3",
          "midi": 57,
          "time": 67.36369250000024,
          "velocity": 0.7874015748031497,
          "duration": 0.136363750000001
        },
        {
          "name": "G3",
          "midi": 55,
          "time": 67.50005625000024,
          "velocity": 0.7874015748031497,
          "duration": 0.136363750000001
        },
        {
          "name": "C3",
          "midi": 48,
          "time": 67.63642000000024,
          "velocity": 0.7874015748031497,
          "duration": 0.136363750000001
        },
        {
          "name": "C3",
          "midi": 48,
          "time": 67.77278375000024,
          "velocity": 0.7874015748031497,
          "duration": 0.136363750000001
        },
        {
          "name": "C3",
          "midi": 48,
          "time": 67.90914750000024,
          "velocity": 0.7874015748031497,
          "duration": 0.136363750000001
        },
        {
          "name": "G3",
          "midi": 55,
          "time": 68.04551125000025,
          "velocity": 0.7874015748031497,
          "duration": 0.272727500000002
        },
        {
          "name": "G3",
          "midi": 55,
          "time": 68.31823875000025,
          "velocity": 0.7874015748031497,
          "duration": 0.136363750000001
        },
        {
          "name": "A3",
          "midi": 57,
          "time": 68.45460250000025,
          "velocity": 0.7874015748031497,
          "duration": 0.136363750000001
        },
        {
          "name": "G3",
          "midi": 55,
          "time": 68.59096625000025,
          "velocity": 0.7874015748031497,
          "duration": 0.136363750000001
        },
        {
          "name": "C3",
          "midi": 48,
          "time": 68.72733000000025,
          "velocity": 0.7874015748031497,
          "duration": 0.136363750000001
        },
        {
          "name": "C4",
          "midi": 60,
          "time": 68.86369375000025,
          "velocity": 0.7874015748031497,
          "duration": 0.136363750000001
        },
        {
          "name": "G3",
          "midi": 55,
          "time": 69.00005750000025,
          "velocity": 0.7874015748031497,
          "duration": 0.136363750000001
        },
        {
          "name": "G3",
          "midi": 55,
          "time": 69.13642125000025,
          "velocity": 0.7874015748031497,
          "duration": 0.136363750000001
        },
        {
          "name": "A#3",
          "midi": 58,
          "time": 69.27278500000025,
          "velocity": 0.7874015748031497,
          "duration": 0.136363750000001
        },
        {
          "name": "G3",
          "midi": 55,
          "time": 69.40914875000026,
          "velocity": 0.7874015748031497,
          "duration": 0.136363750000001
        },
        {
          "name": "A3",
          "midi": 57,
          "time": 69.54551250000026,
          "velocity": 0.7874015748031497,
          "duration": 0.136363750000001
        },
        {
          "name": "G3",
          "midi": 55,
          "time": 69.68187625000026,
          "velocity": 0.7874015748031497,
          "duration": 0.136363750000001
        },
        {
          "name": "C3",
          "midi": 48,
          "time": 69.81824000000026,
          "velocity": 0.7874015748031497,
          "duration": 0.136363750000001
        },
        {
          "name": "C3",
          "midi": 48,
          "time": 69.95460375000026,
          "velocity": 0.7874015748031497,
          "duration": 0.136363750000001
        },
        {
          "name": "C3",
          "midi": 48,
          "time": 70.09096750000026,
          "velocity": 0.7874015748031497,
          "duration": 0.136363750000001
        },
        {
          "name": "G3",
          "midi": 55,
          "time": 70.22733125000026,
          "velocity": 0.7874015748031497,
          "duration": 0.272727500000002
        },
        {
          "name": "G3",
          "midi": 55,
          "time": 70.50005875000026,
          "velocity": 0.7874015748031497,
          "duration": 0.136363750000001
        },
        {
          "name": "A3",
          "midi": 57,
          "time": 70.63642250000026,
          "velocity": 0.7874015748031497,
          "duration": 0.136363750000001
        },
        {
          "name": "G3",
          "midi": 55,
          "time": 70.77278625000027,
          "velocity": 0.7874015748031497,
          "duration": 0.136363750000001
        },
        {
          "name": "C3",
          "midi": 48,
          "time": 70.90915000000027,
          "velocity": 0.7874015748031497,
          "duration": 0.136363750000001
        },
        {
          "name": "C4",
          "midi": 60,
          "time": 71.04551375000027,
          "velocity": 0.7874015748031497,
          "duration": 0.136363750000001
        },
        {
          "name": "G3",
          "midi": 55,
          "time": 71.18187750000027,
          "velocity": 0.7874015748031497,
          "duration": 0.136363750000001
        },
        {
          "name": "G3",
          "midi": 55,
          "time": 71.31824125000027,
          "velocity": 0.7874015748031497,
          "duration": 0.136363750000001
        },
        {
          "name": "A#3",
          "midi": 58,
          "time": 71.45460500000027,
          "velocity": 0.7874015748031497,
          "duration": 0.136363750000001
        },
        {
          "name": "G3",
          "midi": 55,
          "time": 71.59096875000027,
          "velocity": 0.7874015748031497,
          "duration": 0.136363750000001
        },
        {
          "name": "A3",
          "midi": 57,
          "time": 71.72733250000027,
          "velocity": 0.7874015748031497,
          "duration": 0.136363750000001
        },
        {
          "name": "G3",
          "midi": 55,
          "time": 71.86369625000027,
          "velocity": 0.7874015748031497,
          "duration": 0.136363750000001
        },
        {
          "name": "C3",
          "midi": 48,
          "time": 72.00006000000027,
          "velocity": 0.7874015748031497,
          "duration": 0.136363750000001
        },
        {
          "name": "C3",
          "midi": 48,
          "time": 72.13642375000028,
          "velocity": 0.7874015748031497,
          "duration": 0.136363750000001
        },
        {
          "name": "C3",
          "midi": 48,
          "time": 72.27278750000028,
          "velocity": 0.7874015748031497,
          "duration": 0.136363750000001
        },
        {
          "name": "G3",
          "midi": 55,
          "time": 72.40915125000028,
          "velocity": 0.7874015748031497,
          "duration": 0.272727500000002
        },
        {
          "name": "G3",
          "midi": 55,
          "time": 72.68187875000028,
          "velocity": 0.7874015748031497,
          "duration": 0.136363750000001
        },
        {
          "name": "A3",
          "midi": 57,
          "time": 72.81824250000028,
          "velocity": 0.7874015748031497,
          "duration": 0.136363750000001
        },
        {
          "name": "G3",
          "midi": 55,
          "time": 72.95460625000028,
          "velocity": 0.7874015748031497,
          "duration": 0.136363750000001
        },
        {
          "name": "C3",
          "midi": 48,
          "time": 73.09097000000028,
          "velocity": 0.7874015748031497,
          "duration": 0.136363750000001
        },
        {
          "name": "C4",
          "midi": 60,
          "time": 73.22733375000028,
          "velocity": 0.7874015748031497,
          "duration": 0.136363750000001
        },
        {
          "name": "G3",
          "midi": 55,
          "time": 73.36369750000028,
          "velocity": 0.7874015748031497,
          "duration": 0.136363750000001
        },
        {
          "name": "G3",
          "midi": 55,
          "time": 73.50006125000029,
          "velocity": 0.7874015748031497,
          "duration": 0.136363750000001
        },
        {
          "name": "A#3",
          "midi": 58,
          "time": 73.63642500000029,
          "velocity": 0.7874015748031497,
          "duration": 0.136363750000001
        },
        {
          "name": "G3",
          "midi": 55,
          "time": 73.77278875000029,
          "velocity": 0.7874015748031497,
          "duration": 0.136363750000001
        },
        {
          "name": "A3",
          "midi": 57,
          "time": 73.90915250000029,
          "velocity": 0.7874015748031497,
          "duration": 0.136363750000001
        },
        {
          "name": "G3",
          "midi": 55,
          "time": 74.04551625000029,
          "velocity": 0.7874015748031497,
          "duration": 0.136363750000001
        },
        {
          "name": "E2",
          "midi": 40,
          "time": 76.09097250000029,
          "velocity": 0.7874015748031497,
          "duration": 0.022727291666669203
        },
        {
          "name": "E2",
          "midi": 40,
          "time": 80.4546125000003,
          "velocity": 0.7874015748031497,
          "duration": 0.022727291666669203
        },
        {
          "name": "E2",
          "midi": 40,
          "time": 82.6364325000003,
          "velocity": 0.7874015748031497,
          "duration": 0.022727291666669203
        },
        {
          "name": "C3",
          "midi": 48,
          "time": 82.9091600000003,
          "velocity": 0.7874015748031497,
          "duration": 0.136363750000001
        },
        {
          "name": "C3",
          "midi": 48,
          "time": 83.0455237500003,
          "velocity": 0.7874015748031497,
          "duration": 0.136363750000001
        },
        {
          "name": "C3",
          "midi": 48,
          "time": 83.1818875000003,
          "velocity": 0.7874015748031497,
          "duration": 0.136363750000001
        },
        {
          "name": "G3",
          "midi": 55,
          "time": 83.3182512500003,
          "velocity": 0.7874015748031497,
          "duration": 0.272727500000002
        },
        {
          "name": "G3",
          "midi": 55,
          "time": 83.5909787500003,
          "velocity": 0.7874015748031497,
          "duration": 0.136363750000001
        },
        {
          "name": "A3",
          "midi": 57,
          "time": 83.7273425000003,
          "velocity": 0.7874015748031497,
          "duration": 0.136363750000001
        },
        {
          "name": "G3",
          "midi": 55,
          "time": 83.8637062500003,
          "velocity": 0.7874015748031497,
          "duration": 0.136363750000001
        },
        {
          "name": "C3",
          "midi": 48,
          "time": 84.0000700000003,
          "velocity": 0.7874015748031497,
          "duration": 0.136363750000001
        },
        {
          "name": "C4",
          "midi": 60,
          "time": 84.13643375000031,
          "velocity": 0.7874015748031497,
          "duration": 0.136363750000001
        },
        {
          "name": "G3",
          "midi": 55,
          "time": 84.27279750000031,
          "velocity": 0.7874015748031497,
          "duration": 0.136363750000001
        },
        {
          "name": "G3",
          "midi": 55,
          "time": 84.40916125000031,
          "velocity": 0.7874015748031497,
          "duration": 0.136363750000001
        },
        {
          "name": "A#3",
          "midi": 58,
          "time": 84.54552500000031,
          "velocity": 0.7874015748031497,
          "duration": 0.136363750000001
        },
        {
          "name": "G3",
          "midi": 55,
          "time": 84.68188875000031,
          "velocity": 0.7874015748031497,
          "duration": 0.136363750000001
        },
        {
          "name": "A3",
          "midi": 57,
          "time": 84.81825250000031,
          "velocity": 0.7874015748031497,
          "duration": 0.136363750000001
        },
        {
          "name": "G3",
          "midi": 55,
          "time": 84.95461625000031,
          "velocity": 0.7874015748031497,
          "duration": 0.136363750000001
        },
        {
          "name": "C3",
          "midi": 48,
          "time": 85.09098000000031,
          "velocity": 0.7874015748031497,
          "duration": 0.136363750000001
        },
        {
          "name": "C3",
          "midi": 48,
          "time": 85.22734375000032,
          "velocity": 0.7874015748031497,
          "duration": 0.136363750000001
        },
        {
          "name": "C3",
          "midi": 48,
          "time": 85.36370750000032,
          "velocity": 0.7874015748031497,
          "duration": 0.136363750000001
        },
        {
          "name": "G3",
          "midi": 55,
          "time": 85.50007125000032,
          "velocity": 0.7874015748031497,
          "duration": 0.272727500000002
        },
        {
          "name": "G3",
          "midi": 55,
          "time": 85.77279875000032,
          "velocity": 0.7874015748031497,
          "duration": 0.136363750000001
        },
        {
          "name": "A3",
          "midi": 57,
          "time": 85.90916250000032,
          "velocity": 0.7874015748031497,
          "duration": 0.136363750000001
        },
        {
          "name": "G3",
          "midi": 55,
          "time": 86.04552625000032,
          "velocity": 0.7874015748031497,
          "duration": 0.136363750000001
        },
        {
          "name": "C3",
          "midi": 48,
          "time": 86.18189000000032,
          "velocity": 0.7874015748031497,
          "duration": 0.136363750000001
        },
        {
          "name": "C4",
          "midi": 60,
          "time": 86.31825375000032,
          "velocity": 0.7874015748031497,
          "duration": 0.136363750000001
        },
        {
          "name": "G3",
          "midi": 55,
          "time": 86.45461750000032,
          "velocity": 0.7874015748031497,
          "duration": 0.136363750000001
        },
        {
          "name": "G3",
          "midi": 55,
          "time": 86.59098125000033,
          "velocity": 0.7874015748031497,
          "duration": 0.136363750000001
        },
        {
          "name": "A#3",
          "midi": 58,
          "time": 86.72734500000033,
          "velocity": 0.7874015748031497,
          "duration": 0.136363750000001
        },
        {
          "name": "G3",
          "midi": 55,
          "time": 86.86370875000033,
          "velocity": 0.7874015748031497,
          "duration": 0.136363750000001
        },
        {
          "name": "A3",
          "midi": 57,
          "time": 87.00007250000033,
          "velocity": 0.7874015748031497,
          "duration": 0.136363750000001
        },
        {
          "name": "G3",
          "midi": 55,
          "time": 87.13643625000033,
          "velocity": 0.7874015748031497,
          "duration": 0.136363750000001
        },
        {
          "name": "C3",
          "midi": 48,
          "time": 87.27280000000033,
          "velocity": 0.7874015748031497,
          "duration": 0.136363750000001
        },
        {
          "name": "C3",
          "midi": 48,
          "time": 87.40916375000033,
          "velocity": 0.7874015748031497,
          "duration": 0.136363750000001
        },
        {
          "name": "C3",
          "midi": 48,
          "time": 87.54552750000033,
          "velocity": 0.7874015748031497,
          "duration": 0.136363750000001
        },
        {
          "name": "G3",
          "midi": 55,
          "time": 87.68189125000033,
          "velocity": 0.7874015748031497,
          "duration": 0.272727500000002
        },
        {
          "name": "G3",
          "midi": 55,
          "time": 87.95461875000034,
          "velocity": 0.7874015748031497,
          "duration": 0.136363750000001
        },
        {
          "name": "A3",
          "midi": 57,
          "time": 88.09098250000034,
          "velocity": 0.7874015748031497,
          "duration": 0.136363750000001
        },
        {
          "name": "G3",
          "midi": 55,
          "time": 88.22734625000034,
          "velocity": 0.7874015748031497,
          "duration": 0.136363750000001
        },
        {
          "name": "C3",
          "midi": 48,
          "time": 88.36371000000034,
          "velocity": 0.7874015748031497,
          "duration": 0.136363750000001
        },
        {
          "name": "C4",
          "midi": 60,
          "time": 88.50007375000034,
          "velocity": 0.7874015748031497,
          "duration": 0.136363750000001
        },
        {
          "name": "G3",
          "midi": 55,
          "time": 88.63643750000034,
          "velocity": 0.7874015748031497,
          "duration": 0.136363750000001
        },
        {
          "name": "G3",
          "midi": 55,
          "time": 88.77280125000034,
          "velocity": 0.7874015748031497,
          "duration": 0.136363750000001
        },
        {
          "name": "A#3",
          "midi": 58,
          "time": 88.90916500000034,
          "velocity": 0.7874015748031497,
          "duration": 0.136363750000001
        },
        {
          "name": "G3",
          "midi": 55,
          "time": 89.04552875000034,
          "velocity": 0.7874015748031497,
          "duration": 0.136363750000001
        },
        {
          "name": "A3",
          "midi": 57,
          "time": 89.18189250000034,
          "velocity": 0.7874015748031497,
          "duration": 0.136363750000001
        },
        {
          "name": "G3",
          "midi": 55,
          "time": 89.31825625000035,
          "velocity": 0.7874015748031497,
          "duration": 0.136363750000001
        },
        {
          "name": "C3",
          "midi": 48,
          "time": 89.45462000000035,
          "velocity": 0.7874015748031497,
          "duration": 0.136363750000001
        },
        {
          "name": "C3",
          "midi": 48,
          "time": 89.59098375000035,
          "velocity": 0.7874015748031497,
          "duration": 0.136363750000001
        },
        {
          "name": "C3",
          "midi": 48,
          "time": 89.72734750000035,
          "velocity": 0.7874015748031497,
          "duration": 0.136363750000001
        },
        {
          "name": "G3",
          "midi": 55,
          "time": 89.86371125000035,
          "velocity": 0.7874015748031497,
          "duration": 0.272727500000002
        },
        {
          "name": "G3",
          "midi": 55,
          "time": 90.13643875000035,
          "velocity": 0.7874015748031497,
          "duration": 0.136363750000001
        },
        {
          "name": "A3",
          "midi": 57,
          "time": 90.27280250000035,
          "velocity": 0.7874015748031497,
          "duration": 0.136363750000001
        },
        {
          "name": "G3",
          "midi": 55,
          "time": 90.40916625000035,
          "velocity": 0.7874015748031497,
          "duration": 0.136363750000001
        },
        {
          "name": "C3",
          "midi": 48,
          "time": 90.54553000000035,
          "velocity": 0.7874015748031497,
          "duration": 0.136363750000001
        },
        {
          "name": "C4",
          "midi": 60,
          "time": 90.68189375000036,
          "velocity": 0.7874015748031497,
          "duration": 0.136363750000001
        },
        {
          "name": "G3",
          "midi": 55,
          "time": 90.81825750000036,
          "velocity": 0.7874015748031497,
          "duration": 0.136363750000001
        },
        {
          "name": "G3",
          "midi": 55,
          "time": 90.95462125000036,
          "velocity": 0.7874015748031497,
          "duration": 0.136363750000001
        },
        {
          "name": "A#3",
          "midi": 58,
          "time": 91.09098500000036,
          "velocity": 0.7874015748031497,
          "duration": 0.136363750000001
        },
        {
          "name": "G3",
          "midi": 55,
          "time": 91.22734875000036,
          "velocity": 0.7874015748031497,
          "duration": 0.136363750000001
        },
        {
          "name": "A3",
          "midi": 57,
          "time": 91.36371250000036,
          "velocity": 0.7874015748031497,
          "duration": 0.136363750000001
        },
        {
          "name": "G3",
          "midi": 55,
          "time": 91.50007625000036,
          "velocity": 0.7874015748031497,
          "duration": 0.136363750000001
        },
        {
          "name": "C3",
          "midi": 48,
          "time": 91.63644000000036,
          "velocity": 0.7874015748031497,
          "duration": 0.136363750000001
        },
        {
          "name": "C3",
          "midi": 48,
          "time": 91.77280375000036,
          "velocity": 0.7874015748031497,
          "duration": 0.136363750000001
        },
        {
          "name": "C3",
          "midi": 48,
          "time": 91.90916750000036,
          "velocity": 0.7874015748031497,
          "duration": 0.136363750000001
        },
        {
          "name": "G3",
          "midi": 55,
          "time": 92.04553125000037,
          "velocity": 0.7874015748031497,
          "duration": 0.272727500000002
        },
        {
          "name": "G3",
          "midi": 55,
          "time": 92.31825875000037,
          "velocity": 0.7874015748031497,
          "duration": 0.136363750000001
        },
        {
          "name": "A3",
          "midi": 57,
          "time": 92.45462250000037,
          "velocity": 0.7874015748031497,
          "duration": 0.136363750000001
        },
        {
          "name": "G3",
          "midi": 55,
          "time": 92.59098625000037,
          "velocity": 0.7874015748031497,
          "duration": 0.136363750000001
        },
        {
          "name": "C3",
          "midi": 48,
          "time": 92.72735000000037,
          "velocity": 0.7874015748031497,
          "duration": 0.136363750000001
        },
        {
          "name": "C4",
          "midi": 60,
          "time": 92.86371375000037,
          "velocity": 0.7874015748031497,
          "duration": 0.136363750000001
        },
        {
          "name": "G3",
          "midi": 55,
          "time": 93.00007750000037,
          "velocity": 0.7874015748031497,
          "duration": 0.136363750000001
        },
        {
          "name": "G3",
          "midi": 55,
          "time": 93.13644125000037,
          "velocity": 0.7874015748031497,
          "duration": 0.136363750000001
        },
        {
          "name": "A#3",
          "midi": 58,
          "time": 93.27280500000037,
          "velocity": 0.7874015748031497,
          "duration": 0.136363750000001
        },
        {
          "name": "G3",
          "midi": 55,
          "time": 93.40916875000038,
          "velocity": 0.7874015748031497,
          "duration": 0.136363750000001
        },
        {
          "name": "A3",
          "midi": 57,
          "time": 93.54553250000038,
          "velocity": 0.7874015748031497,
          "duration": 0.136363750000001
        },
        {
          "name": "G3",
          "midi": 55,
          "time": 93.68189625000038,
          "velocity": 0.7874015748031497,
          "duration": 0.136363750000001
        },
        {
          "name": "C3",
          "midi": 48,
          "time": 93.81826000000038,
          "velocity": 0.7874015748031497,
          "duration": 0.136363750000001
        },
        {
          "name": "C3",
          "midi": 48,
          "time": 93.95462375000038,
          "velocity": 0.7874015748031497,
          "duration": 0.136363750000001
        },
        {
          "name": "C3",
          "midi": 48,
          "time": 94.09098750000038,
          "velocity": 0.7874015748031497,
          "duration": 0.136363750000001
        },
        {
          "name": "G3",
          "midi": 55,
          "time": 94.22735125000038,
          "velocity": 0.7874015748031497,
          "duration": 0.272727500000002
        },
        {
          "name": "G3",
          "midi": 55,
          "time": 94.50007875000038,
          "velocity": 0.7874015748031497,
          "duration": 0.136363750000001
        },
        {
          "name": "A3",
          "midi": 57,
          "time": 94.63644250000038,
          "velocity": 0.7874015748031497,
          "duration": 0.136363750000001
        },
        {
          "name": "G3",
          "midi": 55,
          "time": 94.77280625000039,
          "velocity": 0.7874015748031497,
          "duration": 0.136363750000001
        },
        {
          "name": "C3",
          "midi": 48,
          "time": 94.90917000000039,
          "velocity": 0.7874015748031497,
          "duration": 0.136363750000001
        },
        {
          "name": "C4",
          "midi": 60,
          "time": 95.04553375000039,
          "velocity": 0.7874015748031497,
          "duration": 0.136363750000001
        },
        {
          "name": "G3",
          "midi": 55,
          "time": 95.18189750000039,
          "velocity": 0.7874015748031497,
          "duration": 0.136363750000001
        },
        {
          "name": "G3",
          "midi": 55,
          "time": 95.31826125000039,
          "velocity": 0.7874015748031497,
          "duration": 0.136363750000001
        },
        {
          "name": "A#3",
          "midi": 58,
          "time": 95.45462500000039,
          "velocity": 0.7874015748031497,
          "duration": 0.136363750000001
        },
        {
          "name": "G3",
          "midi": 55,
          "time": 95.59098875000039,
          "velocity": 0.7874015748031497,
          "duration": 0.136363750000001
        },
        {
          "name": "A3",
          "midi": 57,
          "time": 95.72735250000039,
          "velocity": 0.7874015748031497,
          "duration": 0.136363750000001
        },
        {
          "name": "G3",
          "midi": 55,
          "time": 95.8637162500004,
          "velocity": 0.7874015748031497,
          "duration": 0.136363750000001
        },
        {
          "name": "C3",
          "midi": 48,
          "time": 96.0000800000004,
          "velocity": 0.7874015748031497,
          "duration": 0.136363750000001
        },
        {
          "name": "C3",
          "midi": 48,
          "time": 96.1364437500004,
          "velocity": 0.7874015748031497,
          "duration": 0.136363750000001
        },
        {
          "name": "C3",
          "midi": 48,
          "time": 96.2728075000004,
          "velocity": 0.7874015748031497,
          "duration": 0.136363750000001
        },
        {
          "name": "G3",
          "midi": 55,
          "time": 96.4091712500004,
          "velocity": 0.7874015748031497,
          "duration": 0.272727500000002
        },
        {
          "name": "G3",
          "midi": 55,
          "time": 96.6818987500004,
          "velocity": 0.7874015748031497,
          "duration": 0.136363750000001
        },
        {
          "name": "A3",
          "midi": 57,
          "time": 96.8182625000004,
          "velocity": 0.7874015748031497,
          "duration": 0.136363750000001
        },
        {
          "name": "G3",
          "midi": 55,
          "time": 96.9546262500004,
          "velocity": 0.7874015748031497,
          "duration": 0.136363750000001
        },
        {
          "name": "C3",
          "midi": 48,
          "time": 97.0909900000004,
          "velocity": 0.7874015748031497,
          "duration": 0.136363750000001
        },
        {
          "name": "C4",
          "midi": 60,
          "time": 97.2273537500004,
          "velocity": 0.7874015748031497,
          "duration": 0.136363750000001
        },
        {
          "name": "G3",
          "midi": 55,
          "time": 97.3637175000004,
          "velocity": 0.7874015748031497,
          "duration": 0.136363750000001
        },
        {
          "name": "G3",
          "midi": 55,
          "time": 97.5000812500004,
          "velocity": 0.7874015748031497,
          "duration": 0.136363750000001
        },
        {
          "name": "A#3",
          "midi": 58,
          "time": 97.6364450000004,
          "velocity": 0.7874015748031497,
          "duration": 0.136363750000001
        },
        {
          "name": "G3",
          "midi": 55,
          "time": 97.77280875000041,
          "velocity": 0.7874015748031497,
          "duration": 0.136363750000001
        },
        {
          "name": "A3",
          "midi": 57,
          "time": 97.90917250000041,
          "velocity": 0.7874015748031497,
          "duration": 0.136363750000001
        },
        {
          "name": "G3",
          "midi": 55,
          "time": 98.04553625000041,
          "velocity": 0.7874015748031497,
          "duration": 0.136363750000001
        },
        {
          "name": "C3",
          "midi": 48,
          "time": 98.18190000000041,
          "velocity": 0.7874015748031497,
          "duration": 0.136363750000001
        },
        {
          "name": "C3",
          "midi": 48,
          "time": 98.31826375000041,
          "velocity": 0.7874015748031497,
          "duration": 0.136363750000001
        },
        {
          "name": "C3",
          "midi": 48,
          "time": 98.45462750000041,
          "velocity": 0.7874015748031497,
          "duration": 0.136363750000001
        },
        {
          "name": "G3",
          "midi": 55,
          "time": 98.59099125000041,
          "velocity": 0.7874015748031497,
          "duration": 0.272727500000002
        },
        {
          "name": "G3",
          "midi": 55,
          "time": 98.86371875000042,
          "velocity": 0.7874015748031497,
          "duration": 0.136363750000001
        },
        {
          "name": "A3",
          "midi": 57,
          "time": 99.00008250000042,
          "velocity": 0.7874015748031497,
          "duration": 0.136363750000001
        },
        {
          "name": "G3",
          "midi": 55,
          "time": 99.13644625000042,
          "velocity": 0.7874015748031497,
          "duration": 0.136363750000001
        },
        {
          "name": "C3",
          "midi": 48,
          "time": 99.27281000000042,
          "velocity": 0.7874015748031497,
          "duration": 0.136363750000001
        },
        {
          "name": "C4",
          "midi": 60,
          "time": 99.40917375000042,
          "velocity": 0.7874015748031497,
          "duration": 0.136363750000001
        },
        {
          "name": "G3",
          "midi": 55,
          "time": 99.54553750000042,
          "velocity": 0.7874015748031497,
          "duration": 0.136363750000001
        },
        {
          "name": "G3",
          "midi": 55,
          "time": 99.68190125000042,
          "velocity": 0.7874015748031497,
          "duration": 0.136363750000001
        },
        {
          "name": "A3",
          "midi": 57,
          "time": 99.81826500000042,
          "velocity": 0.7874015748031497,
          "duration": 0.545455000000004
        },
        {
          "name": "E3",
          "midi": 52,
          "time": 99.81826500000042,
          "velocity": 0.7874015748031497,
          "duration": 0.545455000000004
        },
        {
          "name": "A2",
          "midi": 45,
          "time": 99.81826500000042,
          "velocity": 0.7874015748031497,
          "duration": 0.545455000000004
        },
        {
          "name": "E2",
          "midi": 40,
          "time": 102.27281250000043,
          "velocity": 0.7874015748031497,
          "duration": 0.022727291666669203
        },
        {
          "name": "E2",
          "midi": 40,
          "time": 106.63645250000043,
          "velocity": 0.7874015748031497,
          "duration": 0.022727291666669203
        },
        {
          "name": "E2",
          "midi": 40,
          "time": 108.81827250000043,
          "velocity": 0.7874015748031497,
          "duration": 0.022727291666669203
        },
        {
          "name": "C3",
          "midi": 48,
          "time": 109.09100000000043,
          "velocity": 0.7874015748031497,
          "duration": 0.136363750000001
        },
        {
          "name": "C3",
          "midi": 48,
          "time": 109.22736375000044,
          "velocity": 0.7874015748031497,
          "duration": 0.136363750000001
        },
        {
          "name": "C3",
          "midi": 48,
          "time": 109.36372750000044,
          "velocity": 0.7874015748031497,
          "duration": 0.136363750000001
        },
        {
          "name": "G3",
          "midi": 55,
          "time": 109.50009125000044,
          "velocity": 0.7874015748031497,
          "duration": 0.272727500000002
        },
        {
          "name": "G3",
          "midi": 55,
          "time": 109.77281875000044,
          "velocity": 0.7874015748031497,
          "duration": 0.136363750000001
        },
        {
          "name": "A3",
          "midi": 57,
          "time": 109.90918250000044,
          "velocity": 0.7874015748031497,
          "duration": 0.136363750000001
        },
        {
          "name": "G3",
          "midi": 55,
          "time": 110.04554625000044,
          "velocity": 0.7874015748031497,
          "duration": 0.136363750000001
        },
        {
          "name": "C3",
          "midi": 48,
          "time": 110.18191000000044,
          "velocity": 0.7874015748031497,
          "duration": 0.136363750000001
        },
        {
          "name": "C4",
          "midi": 60,
          "time": 110.31827375000044,
          "velocity": 0.7874015748031497,
          "duration": 0.136363750000001
        },
        {
          "name": "G3",
          "midi": 55,
          "time": 110.45463750000044,
          "velocity": 0.7874015748031497,
          "duration": 0.136363750000001
        },
        {
          "name": "G3",
          "midi": 55,
          "time": 110.59100125000045,
          "velocity": 0.7874015748031497,
          "duration": 0.136363750000001
        },
        {
          "name": "A#3",
          "midi": 58,
          "time": 110.72736500000045,
          "velocity": 0.7874015748031497,
          "duration": 0.136363750000001
        },
        {
          "name": "G3",
          "midi": 55,
          "time": 110.86372875000045,
          "velocity": 0.7874015748031497,
          "duration": 0.136363750000001
        },
        {
          "name": "A3",
          "midi": 57,
          "time": 111.00009250000045,
          "velocity": 0.7874015748031497,
          "duration": 0.136363750000001
        },
        {
          "name": "G3",
          "midi": 55,
          "time": 111.13645625000045,
          "velocity": 0.7874015748031497,
          "duration": 0.136363750000001
        },
        {
          "name": "C3",
          "midi": 48,
          "time": 111.27282000000045,
          "velocity": 0.7874015748031497,
          "duration": 0.136363750000001
        },
        {
          "name": "C3",
          "midi": 48,
          "time": 111.40918375000045,
          "velocity": 0.7874015748031497,
          "duration": 0.136363750000001
        },
        {
          "name": "C3",
          "midi": 48,
          "time": 111.54554750000045,
          "velocity": 0.7874015748031497,
          "duration": 0.136363750000001
        },
        {
          "name": "G3",
          "midi": 55,
          "time": 111.68191125000045,
          "velocity": 0.7874015748031497,
          "duration": 0.272727500000002
        },
        {
          "name": "G3",
          "midi": 55,
          "time": 111.95463875000046,
          "velocity": 0.7874015748031497,
          "duration": 0.136363750000001
        },
        {
          "name": "A3",
          "midi": 57,
          "time": 112.09100250000046,
          "velocity": 0.7874015748031497,
          "duration": 0.136363750000001
        },
        {
          "name": "G3",
          "midi": 55,
          "time": 112.22736625000046,
          "velocity": 0.7874015748031497,
          "duration": 0.136363750000001
        },
        {
          "name": "C3",
          "midi": 48,
          "time": 112.36373000000046,
          "velocity": 0.7874015748031497,
          "duration": 0.136363750000001
        },
        {
          "name": "C4",
          "midi": 60,
          "time": 112.50009375000046,
          "velocity": 0.7874015748031497,
          "duration": 0.136363750000001
        },
        {
          "name": "G3",
          "midi": 55,
          "time": 112.63645750000046,
          "velocity": 0.7874015748031497,
          "duration": 0.136363750000001
        },
        {
          "name": "G3",
          "midi": 55,
          "time": 112.77282125000046,
          "velocity": 0.7874015748031497,
          "duration": 0.136363750000001
        },
        {
          "name": "A#3",
          "midi": 58,
          "time": 112.90918500000046,
          "velocity": 0.7874015748031497,
          "duration": 0.136363750000001
        },
        {
          "name": "G3",
          "midi": 55,
          "time": 113.04554875000046,
          "velocity": 0.7874015748031497,
          "duration": 0.136363750000001
        },
        {
          "name": "A3",
          "midi": 57,
          "time": 113.18191250000046,
          "velocity": 0.7874015748031497,
          "duration": 0.136363750000001
        },
        {
          "name": "G3",
          "midi": 55,
          "time": 113.31827625000047,
          "velocity": 0.7874015748031497,
          "duration": 0.136363750000001
        },
        {
          "name": "C3",
          "midi": 48,
          "time": 113.45464000000047,
          "velocity": 0.7874015748031497,
          "duration": 0.136363750000001
        },
        {
          "name": "C3",
          "midi": 48,
          "time": 113.59100375000047,
          "velocity": 0.7874015748031497,
          "duration": 0.136363750000001
        },
        {
          "name": "C3",
          "midi": 48,
          "time": 113.72736750000047,
          "velocity": 0.7874015748031497,
          "duration": 0.136363750000001
        },
        {
          "name": "G3",
          "midi": 55,
          "time": 113.86373125000047,
          "velocity": 0.7874015748031497,
          "duration": 0.272727500000002
        },
        {
          "name": "G3",
          "midi": 55,
          "time": 114.13645875000047,
          "velocity": 0.7874015748031497,
          "duration": 0.136363750000001
        },
        {
          "name": "A3",
          "midi": 57,
          "time": 114.27282250000047,
          "velocity": 0.7874015748031497,
          "duration": 0.136363750000001
        },
        {
          "name": "G3",
          "midi": 55,
          "time": 114.40918625000047,
          "velocity": 0.7874015748031497,
          "duration": 0.136363750000001
        },
        {
          "name": "C3",
          "midi": 48,
          "time": 114.54555000000047,
          "velocity": 0.7874015748031497,
          "duration": 0.136363750000001
        },
        {
          "name": "C4",
          "midi": 60,
          "time": 114.68191375000048,
          "velocity": 0.7874015748031497,
          "duration": 0.136363750000001
        },
        {
          "name": "G3",
          "midi": 55,
          "time": 114.81827750000048,
          "velocity": 0.7874015748031497,
          "duration": 0.136363750000001
        },
        {
          "name": "G3",
          "midi": 55,
          "time": 114.95464125000048,
          "velocity": 0.7874015748031497,
          "duration": 0.136363750000001
        },
        {
          "name": "A#3",
          "midi": 58,
          "time": 115.09100500000048,
          "velocity": 0.7874015748031497,
          "duration": 0.136363750000001
        },
        {
          "name": "G3",
          "midi": 55,
          "time": 115.22736875000048,
          "velocity": 0.7874015748031497,
          "duration": 0.136363750000001
        },
        {
          "name": "A3",
          "midi": 57,
          "time": 115.36373250000048,
          "velocity": 0.7874015748031497,
          "duration": 0.136363750000001
        },
        {
          "name": "G3",
          "midi": 55,
          "time": 115.50009625000048,
          "velocity": 0.7874015748031497,
          "duration": 0.136363750000001
        },
        {
          "name": "C3",
          "midi": 48,
          "time": 115.63646000000048,
          "velocity": 0.7874015748031497,
          "duration": 0.136363750000001
        },
        {
          "name": "C3",
          "midi": 48,
          "time": 115.77282375000048,
          "velocity": 0.7874015748031497,
          "duration": 0.136363750000001
        },
        {
          "name": "C3",
          "midi": 48,
          "time": 115.90918750000048,
          "velocity": 0.7874015748031497,
          "duration": 0.136363750000001
        },
        {
          "name": "G3",
          "midi": 55,
          "time": 116.04555125000049,
          "velocity": 0.7874015748031497,
          "duration": 0.272727500000002
        },
        {
          "name": "G3",
          "midi": 55,
          "time": 116.31827875000049,
          "velocity": 0.7874015748031497,
          "duration": 0.136363750000001
        },
        {
          "name": "A3",
          "midi": 57,
          "time": 116.45464250000049,
          "velocity": 0.7874015748031497,
          "duration": 0.136363750000001
        },
        {
          "name": "G3",
          "midi": 55,
          "time": 116.59100625000049,
          "velocity": 0.7874015748031497,
          "duration": 0.136363750000001
        },
        {
          "name": "C3",
          "midi": 48,
          "time": 116.72737000000049,
          "velocity": 0.7874015748031497,
          "duration": 0.136363750000001
        },
        {
          "name": "C4",
          "midi": 60,
          "time": 116.86373375000049,
          "velocity": 0.7874015748031497,
          "duration": 0.136363750000001
        },
        {
          "name": "G3",
          "midi": 55,
          "time": 117.00009750000049,
          "velocity": 0.7874015748031497,
          "duration": 0.136363750000001
        },
        {
          "name": "G3",
          "midi": 55,
          "time": 117.1364612500005,
          "velocity": 0.7874015748031497,
          "duration": 0.136363750000001
        },
        {
          "name": "A#3",
          "midi": 58,
          "time": 117.2728250000005,
          "velocity": 0.7874015748031497,
          "duration": 0.136363750000001
        },
        {
          "name": "G3",
          "midi": 55,
          "time": 117.4091887500005,
          "velocity": 0.7874015748031497,
          "duration": 0.136363750000001
        },
        {
          "name": "A3",
          "midi": 57,
          "time": 117.5455525000005,
          "velocity": 0.7874015748031497,
          "duration": 0.136363750000001
        },
        {
          "name": "G3",
          "midi": 55,
          "time": 117.6819162500005,
          "velocity": 0.7874015748031497,
          "duration": 0.136363750000001
        },
        {
          "name": "C3",
          "midi": 48,
          "time": 117.8182800000005,
          "velocity": 0.7874015748031497,
          "duration": 0.136363750000001
        },
        {
          "name": "C3",
          "midi": 48,
          "time": 117.9546437500005,
          "velocity": 0.7874015748031497,
          "duration": 0.136363750000001
        },
        {
          "name": "C3",
          "midi": 48,
          "time": 118.0910075000005,
          "velocity": 0.7874015748031497,
          "duration": 0.136363750000001
        },
        {
          "name": "G3",
          "midi": 55,
          "time": 118.2273712500005,
          "velocity": 0.7874015748031497,
          "duration": 0.272727500000002
        },
        {
          "name": "G3",
          "midi": 55,
          "time": 118.5000987500005,
          "velocity": 0.7874015748031497,
          "duration": 0.136363750000001
        },
        {
          "name": "A3",
          "midi": 57,
          "time": 118.6364625000005,
          "velocity": 0.7874015748031497,
          "duration": 0.136363750000001
        },
        {
          "name": "G3",
          "midi": 55,
          "time": 118.7728262500005,
          "velocity": 0.7874015748031497,
          "duration": 0.136363750000001
        },
        {
          "name": "C3",
          "midi": 48,
          "time": 118.9091900000005,
          "velocity": 0.7874015748031497,
          "duration": 0.136363750000001
        },
        {
          "name": "C4",
          "midi": 60,
          "time": 119.04555375000051,
          "velocity": 0.7874015748031497,
          "duration": 0.136363750000001
        },
        {
          "name": "G3",
          "midi": 55,
          "time": 119.18191750000051,
          "velocity": 0.7874015748031497,
          "duration": 0.136363750000001
        },
        {
          "name": "G3",
          "midi": 55,
          "time": 119.31828125000051,
          "velocity": 0.7874015748031497,
          "duration": 0.136363750000001
        },
        {
          "name": "A#3",
          "midi": 58,
          "time": 119.45464500000051,
          "velocity": 0.7874015748031497,
          "duration": 0.136363750000001
        },
        {
          "name": "G3",
          "midi": 55,
          "time": 119.59100875000051,
          "velocity": 0.7874015748031497,
          "duration": 0.136363750000001
        },
        {
          "name": "A3",
          "midi": 57,
          "time": 119.72737250000051,
          "velocity": 0.7874015748031497,
          "duration": 0.136363750000001
        },
        {
          "name": "G3",
          "midi": 55,
          "time": 119.86373625000051,
          "velocity": 0.7874015748031497,
          "duration": 0.136363750000001
        },
        {
          "name": "C3",
          "midi": 48,
          "time": 120.00010000000051,
          "velocity": 0.7874015748031497,
          "duration": 0.136363750000001
        },
        {
          "name": "C3",
          "midi": 48,
          "time": 120.13646375000052,
          "velocity": 0.7874015748031497,
          "duration": 0.136363750000001
        },
        {
          "name": "C3",
          "midi": 48,
          "time": 120.27282750000052,
          "velocity": 0.7874015748031497,
          "duration": 0.136363750000001
        },
        {
          "name": "G3",
          "midi": 55,
          "time": 120.40919125000052,
          "velocity": 0.7874015748031497,
          "duration": 0.272727500000002
        },
        {
          "name": "G3",
          "midi": 55,
          "time": 120.68191875000052,
          "velocity": 0.7874015748031497,
          "duration": 0.136363750000001
        },
        {
          "name": "A3",
          "midi": 57,
          "time": 120.81828250000052,
          "velocity": 0.7874015748031497,
          "duration": 0.136363750000001
        },
        {
          "name": "G3",
          "midi": 55,
          "time": 120.95464625000052,
          "velocity": 0.7874015748031497,
          "duration": 0.136363750000001
        },
        {
          "name": "C3",
          "midi": 48,
          "time": 121.09101000000052,
          "velocity": 0.7874015748031497,
          "duration": 0.136363750000001
        },
        {
          "name": "C4",
          "midi": 60,
          "time": 121.22737375000052,
          "velocity": 0.7874015748031497,
          "duration": 0.136363750000001
        },
        {
          "name": "G3",
          "midi": 55,
          "time": 121.36373750000052,
          "velocity": 0.7874015748031497,
          "duration": 0.136363750000001
        },
        {
          "name": "G3",
          "midi": 55,
          "time": 121.50010125000053,
          "velocity": 0.7874015748031497,
          "duration": 0.136363750000001
        },
        {
          "name": "A#3",
          "midi": 58,
          "time": 121.63646500000053,
          "velocity": 0.7874015748031497,
          "duration": 0.136363750000001
        },
        {
          "name": "G3",
          "midi": 55,
          "time": 121.77282875000053,
          "velocity": 0.7874015748031497,
          "duration": 0.136363750000001
        },
        {
          "name": "A3",
          "midi": 57,
          "time": 121.90919250000053,
          "velocity": 0.7874015748031497,
          "duration": 0.136363750000001
        },
        {
          "name": "G3",
          "midi": 55,
          "time": 122.04555625000053,
          "velocity": 0.7874015748031497,
          "duration": 0.136363750000001
        },
        {
          "name": "C3",
          "midi": 48,
          "time": 122.18192000000053,
          "velocity": 0.7874015748031497,
          "duration": 0.136363750000001
        },
        {
          "name": "C3",
          "midi": 48,
          "time": 122.31828375000053,
          "velocity": 0.7874015748031497,
          "duration": 0.136363750000001
        },
        {
          "name": "C3",
          "midi": 48,
          "time": 122.45464750000053,
          "velocity": 0.7874015748031497,
          "duration": 0.136363750000001
        },
        {
          "name": "G3",
          "midi": 55,
          "time": 122.59101125000053,
          "velocity": 0.7874015748031497,
          "duration": 0.272727500000002
        },
        {
          "name": "G3",
          "midi": 55,
          "time": 122.86373875000054,
          "velocity": 0.7874015748031497,
          "duration": 0.136363750000001
        },
        {
          "name": "A3",
          "midi": 57,
          "time": 123.00010250000054,
          "velocity": 0.7874015748031497,
          "duration": 0.136363750000001
        },
        {
          "name": "G3",
          "midi": 55,
          "time": 123.13646625000054,
          "velocity": 0.7874015748031497,
          "duration": 0.136363750000001
        },
        {
          "name": "C3",
          "midi": 48,
          "time": 123.27283000000054,
          "velocity": 0.7874015748031497,
          "duration": 0.136363750000001
        },
        {
          "name": "C4",
          "midi": 60,
          "time": 123.40919375000054,
          "velocity": 0.7874015748031497,
          "duration": 0.136363750000001
        },
        {
          "name": "G3",
          "midi": 55,
          "time": 123.54555750000054,
          "velocity": 0.7874015748031497,
          "duration": 0.136363750000001
        },
        {
          "name": "G3",
          "midi": 55,
          "time": 123.68192125000054,
          "velocity": 0.7874015748031497,
          "duration": 0.136363750000001
        },
        {
          "name": "A#3",
          "midi": 58,
          "time": 123.81828500000054,
          "velocity": 0.7874015748031497,
          "duration": 0.136363750000001
        },
        {
          "name": "G3",
          "midi": 55,
          "time": 123.95464875000054,
          "velocity": 0.7874015748031497,
          "duration": 0.136363750000001
        },
        {
          "name": "A3",
          "midi": 57,
          "time": 124.09101250000055,
          "velocity": 0.7874015748031497,
          "duration": 0.136363750000001
        },
        {
          "name": "G3",
          "midi": 55,
          "time": 124.22737625000055,
          "velocity": 0.7874015748031497,
          "duration": 0.136363750000001
        },
        {
          "name": "C3",
          "midi": 48,
          "time": 124.36374000000055,
          "velocity": 0.7874015748031497,
          "duration": 0.136363750000001
        },
        {
          "name": "C3",
          "midi": 48,
          "time": 124.50010375000055,
          "velocity": 0.7874015748031497,
          "duration": 0.136363750000001
        },
        {
          "name": "C3",
          "midi": 48,
          "time": 124.63646750000055,
          "velocity": 0.7874015748031497,
          "duration": 0.136363750000001
        },
        {
          "name": "G3",
          "midi": 55,
          "time": 124.77283125000055,
          "velocity": 0.7874015748031497,
          "duration": 0.272727500000002
        },
        {
          "name": "G3",
          "midi": 55,
          "time": 125.04555875000055,
          "velocity": 0.7874015748031497,
          "duration": 0.136363750000001
        },
        {
          "name": "A3",
          "midi": 57,
          "time": 125.18192250000055,
          "velocity": 0.7874015748031497,
          "duration": 0.136363750000001
        },
        {
          "name": "G3",
          "midi": 55,
          "time": 125.31828625000055,
          "velocity": 0.7874015748031497,
          "duration": 0.136363750000001
        },
        {
          "name": "C3",
          "midi": 48,
          "time": 125.45465000000056,
          "velocity": 0.7874015748031497,
          "duration": 0.136363750000001
        },
        {
          "name": "C4",
          "midi": 60,
          "time": 125.59101375000056,
          "velocity": 0.7874015748031497,
          "duration": 0.136363750000001
        },
        {
          "name": "G3",
          "midi": 55,
          "time": 125.72737750000056,
          "velocity": 0.7874015748031497,
          "duration": 0.136363750000001
        },
        {
          "name": "G3",
          "midi": 55,
          "time": 125.86374125000056,
          "velocity": 0.7874015748031497,
          "duration": 0.136363750000001
        },
        {
          "name": "A#3",
          "midi": 58,
          "time": 126.00010500000056,
          "velocity": 0.7874015748031497,
          "duration": 0.136363750000001
        },
        {
          "name": "G3",
          "midi": 55,
          "time": 126.13646875000056,
          "velocity": 0.7874015748031497,
          "duration": 0.136363750000001
        },
        {
          "name": "A3",
          "midi": 57,
          "time": 126.27283250000056,
          "velocity": 0.7874015748031497,
          "duration": 0.136363750000001
        },
        {
          "name": "G3",
          "midi": 55,
          "time": 126.40919625000056,
          "velocity": 0.7874015748031497,
          "duration": 0.136363750000001
        },
        {
          "name": "G3",
          "midi": 55,
          "time": 126.54556000000056,
          "velocity": 0.7874015748031497,
          "duration": 0.272727500000002
        },
        {
          "name": "C3",
          "midi": 48,
          "time": 126.54556000000056,
          "velocity": 0.7874015748031497,
          "duration": 0.272727500000002
        },
        {
          "name": "A3",
          "midi": 57,
          "time": 126.95465125000057,
          "velocity": 0.7874015748031497,
          "duration": 0.272727500000002
        },
        {
          "name": "C3",
          "midi": 48,
          "time": 126.95465125000057,
          "velocity": 0.7874015748031497,
          "duration": 0.272727500000002
        },
        {
          "name": "A#3",
          "midi": 58,
          "time": 127.36374250000057,
          "velocity": 0.7874015748031497,
          "duration": 0.545455000000004
        },
        {
          "name": "C3",
          "midi": 48,
          "time": 127.36374250000057,
          "velocity": 0.7874015748031497,
          "duration": 0.545455000000004
        },
        {
          "name": "D#4",
          "midi": 63,
          "time": 128.72738000000058,
          "velocity": 0.7874015748031497,
          "duration": 0.272727500000002
        },
        {
          "name": "F3",
          "midi": 53,
          "time": 128.72738000000058,
          "velocity": 0.7874015748031497,
          "duration": 0.272727500000002
        },
        {
          "name": "D4",
          "midi": 62,
          "time": 129.13647125000057,
          "velocity": 0.7874015748031497,
          "duration": 0.272727500000002
        },
        {
          "name": "F3",
          "midi": 53,
          "time": 129.13647125000057,
          "velocity": 0.7874015748031497,
          "duration": 0.272727500000002
        },
        {
          "name": "D#4",
          "midi": 63,
          "time": 129.54556250000056,
          "velocity": 0.7874015748031497,
          "duration": 0.545455000000004
        },
        {
          "name": "F3",
          "midi": 53,
          "time": 129.54556250000056,
          "velocity": 0.7874015748031497,
          "duration": 0.545455000000004
        },
        {
          "name": "G3",
          "midi": 55,
          "time": 130.90920000000057,
          "velocity": 0.7874015748031497,
          "duration": 0.272727500000002
        },
        {
          "name": "C3",
          "midi": 48,
          "time": 130.90920000000057,
          "velocity": 0.7874015748031497,
          "duration": 0.272727500000002
        },
        {
          "name": "A3",
          "midi": 57,
          "time": 131.31829125000056,
          "velocity": 0.7874015748031497,
          "duration": 0.272727500000002
        },
        {
          "name": "C3",
          "midi": 48,
          "time": 131.31829125000056,
          "velocity": 0.7874015748031497,
          "duration": 0.272727500000002
        },
        {
          "name": "A#3",
          "midi": 58,
          "time": 131.72738250000054,
          "velocity": 0.7874015748031497,
          "duration": 0.545455000000004
        },
        {
          "name": "C3",
          "midi": 48,
          "time": 131.72738250000054,
          "velocity": 0.7874015748031497,
          "duration": 0.545455000000004
        },
        {
          "name": "D#4",
          "midi": 63,
          "time": 133.09102000000055,
          "velocity": 0.7874015748031497,
          "duration": 0.272727500000002
        },
        {
          "name": "F3",
          "midi": 53,
          "time": 133.09102000000055,
          "velocity": 0.7874015748031497,
          "duration": 0.272727500000002
        },
        {
          "name": "D4",
          "midi": 62,
          "time": 133.50011125000054,
          "velocity": 0.7874015748031497,
          "duration": 0.272727500000002
        },
        {
          "name": "F3",
          "midi": 53,
          "time": 133.50011125000054,
          "velocity": 0.7874015748031497,
          "duration": 0.272727500000002
        },
        {
          "name": "D#4",
          "midi": 63,
          "time": 133.90920250000053,
          "velocity": 0.7874015748031497,
          "duration": 0.545455000000004
        },
        {
          "name": "F3",
          "midi": 53,
          "time": 133.90920250000053,
          "velocity": 0.7874015748031497,
          "duration": 0.545455000000004
        },
        {
          "name": "G3",
          "midi": 55,
          "time": 135.27284000000054,
          "velocity": 0.7874015748031497,
          "duration": 0.272727500000002
        },
        {
          "name": "C3",
          "midi": 48,
          "time": 135.27284000000054,
          "velocity": 0.7874015748031497,
          "duration": 0.272727500000002
        },
        {
          "name": "A3",
          "midi": 57,
          "time": 135.68193125000053,
          "velocity": 0.7874015748031497,
          "duration": 0.272727500000002
        },
        {
          "name": "C3",
          "midi": 48,
          "time": 135.68193125000053,
          "velocity": 0.7874015748031497,
          "duration": 0.272727500000002
        },
        {
          "name": "A#3",
          "midi": 58,
          "time": 136.09102250000052,
          "velocity": 0.7874015748031497,
          "duration": 0.545455000000004
        },
        {
          "name": "C3",
          "midi": 48,
          "time": 136.09102250000052,
          "velocity": 0.7874015748031497,
          "duration": 0.545455000000004
        },
        {
          "name": "D#4",
          "midi": 63,
          "time": 137.45466000000053,
          "velocity": 0.7874015748031497,
          "duration": 0.272727500000002
        },
        {
          "name": "F3",
          "midi": 53,
          "time": 137.45466000000053,
          "velocity": 0.7874015748031497,
          "duration": 0.272727500000002
        },
        {
          "name": "D4",
          "midi": 62,
          "time": 137.86375125000052,
          "velocity": 0.7874015748031497,
          "duration": 0.272727500000002
        },
        {
          "name": "F3",
          "midi": 53,
          "time": 137.86375125000052,
          "velocity": 0.7874015748031497,
          "duration": 0.272727500000002
        },
        {
          "name": "D#4",
          "midi": 63,
          "time": 138.2728425000005,
          "velocity": 0.7874015748031497,
          "duration": 0.545455000000004
        },
        {
          "name": "F3",
          "midi": 53,
          "time": 138.2728425000005,
          "velocity": 0.7874015748031497,
          "duration": 0.545455000000004
        },
        {
          "name": "G3",
          "midi": 55,
          "time": 139.63648000000052,
          "velocity": 0.7874015748031497,
          "duration": 0.272727500000002
        },
        {
          "name": "C3",
          "midi": 48,
          "time": 139.63648000000052,
          "velocity": 0.7874015748031497,
          "duration": 0.272727500000002
        },
        {
          "name": "A3",
          "midi": 57,
          "time": 140.0455712500005,
          "velocity": 0.7874015748031497,
          "duration": 0.272727500000002
        },
        {
          "name": "C3",
          "midi": 48,
          "time": 140.0455712500005,
          "velocity": 0.7874015748031497,
          "duration": 0.272727500000002
        },
        {
          "name": "A#3",
          "midi": 58,
          "time": 140.4546625000005,
          "velocity": 0.7874015748031497,
          "duration": 0.545455000000004
        },
        {
          "name": "C3",
          "midi": 48,
          "time": 140.4546625000005,
          "velocity": 0.7874015748031497,
          "duration": 0.545455000000004
        },
        {
          "name": "D#4",
          "midi": 63,
          "time": 141.8183000000005,
          "velocity": 0.7874015748031497,
          "duration": 0.272727500000002
        },
        {
          "name": "F3",
          "midi": 53,
          "time": 141.8183000000005,
          "velocity": 0.7874015748031497,
          "duration": 0.272727500000002
        },
        {
          "name": "D4",
          "midi": 62,
          "time": 142.2273912500005,
          "velocity": 0.7874015748031497,
          "duration": 0.272727500000002
        },
        {
          "name": "F3",
          "midi": 53,
          "time": 142.2273912500005,
          "velocity": 0.7874015748031497,
          "duration": 0.272727500000002
        },
        {
          "name": "D#4",
          "midi": 63,
          "time": 142.63648250000048,
          "velocity": 0.7874015748031497,
          "duration": 0.545455000000004
        },
        {
          "name": "F3",
          "midi": 53,
          "time": 142.63648250000048,
          "velocity": 0.7874015748031497,
          "duration": 0.545455000000004
        },
        {
          "name": "C3",
          "midi": 48,
          "time": 144.0001200000005,
          "velocity": 0.7874015748031497,
          "duration": 0.1363637499999868
        },
        {
          "name": "C3",
          "midi": 48,
          "time": 144.13648375000048,
          "velocity": 0.7874015748031497,
          "duration": 0.1363637499999868
        },
        {
          "name": "C3",
          "midi": 48,
          "time": 144.27284750000047,
          "velocity": 0.7874015748031497,
          "duration": 0.1363637499999868
        },
        {
          "name": "G3",
          "midi": 55,
          "time": 144.40921125000045,
          "velocity": 0.7874015748031497,
          "duration": 0.272727500000002
        },
        {
          "name": "G3",
          "midi": 55,
          "time": 144.68193875000046,
          "velocity": 0.7874015748031497,
          "duration": 0.1363637499999868
        },
        {
          "name": "A3",
          "midi": 57,
          "time": 144.81830250000044,
          "velocity": 0.7874015748031497,
          "duration": 0.1363637499999868
        },
        {
          "name": "G3",
          "midi": 55,
          "time": 144.95466625000043,
          "velocity": 0.7874015748031497,
          "duration": 0.1363637499999868
        },
        {
          "name": "C3",
          "midi": 48,
          "time": 145.09103000000042,
          "velocity": 0.7874015748031497,
          "duration": 0.1363637499999868
        },
        {
          "name": "C4",
          "midi": 60,
          "time": 145.2273937500004,
          "velocity": 0.7874015748031497,
          "duration": 0.1363637499999868
        },
        {
          "name": "G3",
          "midi": 55,
          "time": 145.3637575000004,
          "velocity": 0.7874015748031497,
          "duration": 0.1363637499999868
        },
        {
          "name": "G3",
          "midi": 55,
          "time": 145.50012125000038,
          "velocity": 0.7874015748031497,
          "duration": 0.1363637499999868
        },
        {
          "name": "A#3",
          "midi": 58,
          "time": 145.63648500000036,
          "velocity": 0.7874015748031497,
          "duration": 0.1363637499999868
        },
        {
          "name": "G3",
          "midi": 55,
          "time": 145.77284875000035,
          "velocity": 0.7874015748031497,
          "duration": 0.1363637499999868
        },
        {
          "name": "A3",
          "midi": 57,
          "time": 145.90921250000034,
          "velocity": 0.7874015748031497,
          "duration": 0.1363637499999868
        },
        {
          "name": "G3",
          "midi": 55,
          "time": 146.04557625000032,
          "velocity": 0.7874015748031497,
          "duration": 0.1363637499999868
        },
        {
          "name": "C3",
          "midi": 48,
          "time": 146.1819400000003,
          "velocity": 0.7874015748031497,
          "duration": 0.1363637499999868
        },
        {
          "name": "C3",
          "midi": 48,
          "time": 146.3183037500003,
          "velocity": 0.7874015748031497,
          "duration": 0.1363637499999868
        },
        {
          "name": "C3",
          "midi": 48,
          "time": 146.45466750000028,
          "velocity": 0.7874015748031497,
          "duration": 0.1363637499999868
        },
        {
          "name": "G3",
          "midi": 55,
          "time": 146.59103125000027,
          "velocity": 0.7874015748031497,
          "duration": 0.272727500000002
        },
        {
          "name": "G3",
          "midi": 55,
          "time": 146.86375875000027,
          "velocity": 0.7874015748031497,
          "duration": 0.1363637499999868
        },
        {
          "name": "A3",
          "midi": 57,
          "time": 147.00012250000026,
          "velocity": 0.7874015748031497,
          "duration": 0.1363637499999868
        },
        {
          "name": "G3",
          "midi": 55,
          "time": 147.13648625000025,
          "velocity": 0.7874015748031497,
          "duration": 0.1363637499999868
        },
        {
          "name": "C3",
          "midi": 48,
          "time": 147.27285000000023,
          "velocity": 0.7874015748031497,
          "duration": 0.1363637499999868
        },
        {
          "name": "C4",
          "midi": 60,
          "time": 147.40921375000022,
          "velocity": 0.7874015748031497,
          "duration": 0.1363637499999868
        },
        {
          "name": "G3",
          "midi": 55,
          "time": 147.5455775000002,
          "velocity": 0.7874015748031497,
          "duration": 0.1363637499999868
        },
        {
          "name": "G3",
          "midi": 55,
          "time": 147.6819412500002,
          "velocity": 0.7874015748031497,
          "duration": 0.1363637499999868
        },
        {
          "name": "A#3",
          "midi": 58,
          "time": 147.81830500000018,
          "velocity": 0.7874015748031497,
          "duration": 0.1363637499999868
        },
        {
          "name": "G3",
          "midi": 55,
          "time": 147.95466875000017,
          "velocity": 0.7874015748031497,
          "duration": 0.1363637499999868
        },
        {
          "name": "A3",
          "midi": 57,
          "time": 148.09103250000015,
          "velocity": 0.7874015748031497,
          "duration": 0.1363637499999868
        },
        {
          "name": "G3",
          "midi": 55,
          "time": 148.22739625000014,
          "velocity": 0.7874015748031497,
          "duration": 0.1363637499999868
        },
        {
          "name": "C3",
          "midi": 48,
          "time": 148.36376000000013,
          "velocity": 0.7874015748031497,
          "duration": 0.1363637499999868
        },
        {
          "name": "C3",
          "midi": 48,
          "time": 148.5001237500001,
          "velocity": 0.7874015748031497,
          "duration": 0.1363637499999868
        },
        {
          "name": "C3",
          "midi": 48,
          "time": 148.6364875000001,
          "velocity": 0.7874015748031497,
          "duration": 0.1363637499999868
        },
        {
          "name": "G3",
          "midi": 55,
          "time": 148.7728512500001,
          "velocity": 0.7874015748031497,
          "duration": 0.272727500000002
        },
        {
          "name": "G3",
          "midi": 55,
          "time": 149.0455787500001,
          "velocity": 0.7874015748031497,
          "duration": 0.1363637499999868
        },
        {
          "name": "A3",
          "midi": 57,
          "time": 149.18194250000008,
          "velocity": 0.7874015748031497,
          "duration": 0.1363637499999868
        },
        {
          "name": "G3",
          "midi": 55,
          "time": 149.31830625000006,
          "velocity": 0.7874015748031497,
          "duration": 0.1363637499999868
        },
        {
          "name": "C3",
          "midi": 48,
          "time": 149.45467000000005,
          "velocity": 0.7874015748031497,
          "duration": 0.1363637499999868
        },
        {
          "name": "C4",
          "midi": 60,
          "time": 149.59103375000004,
          "velocity": 0.7874015748031497,
          "duration": 0.1363637499999868
        },
        {
          "name": "G3",
          "midi": 55,
          "time": 149.72739750000002,
          "velocity": 0.7874015748031497,
          "duration": 0.1363637499999868
        },
        {
          "name": "G3",
          "midi": 55,
          "time": 149.86376125,
          "velocity": 0.7874015748031497,
          "duration": 0.1363637499999868
        },
        {
          "name": "A#3",
          "midi": 58,
          "time": 150.000125,
          "velocity": 0.7874015748031497,
          "duration": 0.1363637499999868
        },
        {
          "name": "G3",
          "midi": 55,
          "time": 150.13648874999998,
          "velocity": 0.7874015748031497,
          "duration": 0.1363637499999868
        },
        {
          "name": "A3",
          "midi": 57,
          "time": 150.27285249999997,
          "velocity": 0.7874015748031497,
          "duration": 0.1363637499999868
        },
        {
          "name": "G3",
          "midi": 55,
          "time": 150.40921624999996,
          "velocity": 0.7874015748031497,
          "duration": 0.1363637499999868
        },
        {
          "name": "C3",
          "midi": 48,
          "time": 150.54557999999994,
          "velocity": 0.7874015748031497,
          "duration": 0.1363637499999868
        },
        {
          "name": "C3",
          "midi": 48,
          "time": 150.68194374999993,
          "velocity": 0.7874015748031497,
          "duration": 0.1363637499999868
        },
        {
          "name": "C3",
          "midi": 48,
          "time": 150.81830749999992,
          "velocity": 0.7874015748031497,
          "duration": 0.1363637499999868
        },
        {
          "name": "G3",
          "midi": 55,
          "time": 150.9546712499999,
          "velocity": 0.7874015748031497,
          "duration": 0.272727500000002
        },
        {
          "name": "G3",
          "midi": 55,
          "time": 151.2273987499999,
          "velocity": 0.7874015748031497,
          "duration": 0.1363637499999868
        },
        {
          "name": "A3",
          "midi": 57,
          "time": 151.3637624999999,
          "velocity": 0.7874015748031497,
          "duration": 0.1363637499999868
        },
        {
          "name": "G3",
          "midi": 55,
          "time": 151.50012624999988,
          "velocity": 0.7874015748031497,
          "duration": 0.1363637499999868
        },
        {
          "name": "C3",
          "midi": 48,
          "time": 151.63648999999987,
          "velocity": 0.7874015748031497,
          "duration": 0.1363637499999868
        },
        {
          "name": "C4",
          "midi": 60,
          "time": 151.77285374999985,
          "velocity": 0.7874015748031497,
          "duration": 0.1363637499999868
        },
        {
          "name": "G3",
          "midi": 55,
          "time": 151.90921749999984,
          "velocity": 0.7874015748031497,
          "duration": 0.1363637499999868
        },
        {
          "name": "G3",
          "midi": 55,
          "time": 152.04558124999983,
          "velocity": 0.7874015748031497,
          "duration": 0.1363637499999868
        },
        {
          "name": "A3",
          "midi": 57,
          "time": 152.1819449999998,
          "velocity": 0.7874015748031497,
          "duration": 0.545455000000004
        },
        {
          "name": "E3",
          "midi": 52,
          "time": 152.1819449999998,
          "velocity": 0.7874015748031497,
          "duration": 0.545455000000004
        },
        {
          "name": "A2",
          "midi": 45,
          "time": 152.1819449999998,
          "velocity": 0.7874015748031497,
          "duration": 0.545455000000004
        }
      ],
      "controlChanges": {
        "7": [
          {
            "number": 7,
            "time": 0,
            "value": 0.6299212598425197
          }
        ]
      },
      "id": 3,
      "name": "Muted Guitar",
      "instrumentNumber": 28,
      "instrument": "electric guitar (muted)",
      "instrumentFamily": "guitar",
      "channelNumber": 3,
      "isPercussion": false
    },
    {
      "startTime": 4.36364,
      "duration": 196.09107249999798,
      "length": 1028,
      "notes": [
        {
          "name": "A2",
          "midi": 45,
          "time": 4.36364,
          "velocity": 0.7874015748031497,
          "duration": 0.13636375000000012
        },
        {
          "name": "A#2",
          "midi": 46,
          "time": 4.50000375,
          "velocity": 0.7874015748031497,
          "duration": 0.13636375000000012
        },
        {
          "name": "B2",
          "midi": 47,
          "time": 4.6363675,
          "velocity": 0.7874015748031497,
          "duration": 0.13636375000000012
        },
        {
          "name": "E3",
          "midi": 52,
          "time": 4.7727312500000005,
          "velocity": 0.7874015748031497,
          "duration": 0.13636375000000012
        },
        {
          "name": "A2",
          "midi": 45,
          "time": 5.045458750000001,
          "velocity": 0.7874015748031497,
          "duration": 0.13636375000000012
        },
        {
          "name": "A#2",
          "midi": 46,
          "time": 5.181822500000001,
          "velocity": 0.7874015748031497,
          "duration": 0.13636375000000012
        },
        {
          "name": "B2",
          "midi": 47,
          "time": 5.318186250000001,
          "velocity": 0.7874015748031497,
          "duration": 0.13636375000000012
        },
        {
          "name": "E3",
          "midi": 52,
          "time": 5.454550000000001,
          "velocity": 0.7874015748031497,
          "duration": 0.27272750000000023
        },
        {
          "name": "E2",
          "midi": 40,
          "time": 5.727277500000001,
          "velocity": 0.7874015748031497,
          "duration": 0.27272750000000023
        },
        {
          "name": "A#2",
          "midi": 46,
          "time": 6.681823750000002,
          "velocity": 0.7874015748031497,
          "duration": 0.13636375000000012
        },
        {
          "name": "B2",
          "midi": 47,
          "time": 6.818187500000002,
          "velocity": 0.7874015748031497,
          "duration": 0.13636375000000012
        },
        {
          "name": "E3",
          "midi": 52,
          "time": 6.954551250000002,
          "velocity": 0.7874015748031497,
          "duration": 0.13636375000000012
        },
        {
          "name": "A2",
          "midi": 45,
          "time": 7.227278750000003,
          "velocity": 0.7874015748031497,
          "duration": 0.13636375000000012
        },
        {
          "name": "A#2",
          "midi": 46,
          "time": 7.363642500000003,
          "velocity": 0.7874015748031497,
          "duration": 0.13636375000000012
        },
        {
          "name": "B2",
          "midi": 47,
          "time": 7.500006250000003,
          "velocity": 0.7874015748031497,
          "duration": 0.13636375000000012
        },
        {
          "name": "E3",
          "midi": 52,
          "time": 7.636370000000003,
          "velocity": 0.7874015748031497,
          "duration": 0.27272750000000023
        },
        {
          "name": "G2",
          "midi": 43,
          "time": 7.909097500000003,
          "velocity": 0.7874015748031497,
          "duration": 0.13636374999999923
        },
        {
          "name": "E2",
          "midi": 40,
          "time": 8.045461250000002,
          "velocity": 0.7874015748031497,
          "duration": 0.13636374999999923
        },
        {
          "name": "E3",
          "midi": 52,
          "time": 8.181825000000002,
          "velocity": 1,
          "duration": 0.5454550000000005
        },
        {
          "name": "A2",
          "midi": 45,
          "time": 8.727280000000002,
          "velocity": 0.7874015748031497,
          "duration": 0.13636374999999923
        },
        {
          "name": "A#2",
          "midi": 46,
          "time": 8.863643750000001,
          "velocity": 0.7874015748031497,
          "duration": 0.13636374999999923
        },
        {
          "name": "B2",
          "midi": 47,
          "time": 9.0000075,
          "velocity": 0.7874015748031497,
          "duration": 0.13636374999999923
        },
        {
          "name": "E3",
          "midi": 52,
          "time": 9.13637125,
          "velocity": 0.7874015748031497,
          "duration": 0.13636374999999923
        },
        {
          "name": "A2",
          "midi": 45,
          "time": 9.409098749999998,
          "velocity": 0.7874015748031497,
          "duration": 0.13636374999999923
        },
        {
          "name": "A#2",
          "midi": 46,
          "time": 9.545462499999998,
          "velocity": 0.7874015748031497,
          "duration": 0.13636374999999923
        },
        {
          "name": "B2",
          "midi": 47,
          "time": 9.681826249999997,
          "velocity": 0.7874015748031497,
          "duration": 0.13636374999999923
        },
        {
          "name": "E3",
          "midi": 52,
          "time": 9.818189999999996,
          "velocity": 0.7874015748031497,
          "duration": 0.27272750000000023
        },
        {
          "name": "E2",
          "midi": 40,
          "time": 10.090917499999996,
          "velocity": 0.7874015748031497,
          "duration": 0.27272750000000023
        },
        {
          "name": "A2",
          "midi": 45,
          "time": 10.909099999999997,
          "velocity": 0.7874015748031497,
          "duration": 0.13636374999999923
        },
        {
          "name": "A#2",
          "midi": 46,
          "time": 11.045463749999996,
          "velocity": 0.7874015748031497,
          "duration": 0.13636374999999923
        },
        {
          "name": "B2",
          "midi": 47,
          "time": 11.181827499999995,
          "velocity": 0.7874015748031497,
          "duration": 0.13636374999999923
        },
        {
          "name": "E3",
          "midi": 52,
          "time": 11.318191249999995,
          "velocity": 0.7874015748031497,
          "duration": 0.13636374999999923
        },
        {
          "name": "A2",
          "midi": 45,
          "time": 11.590918749999993,
          "velocity": 0.7874015748031497,
          "duration": 0.13636374999999923
        },
        {
          "name": "A#2",
          "midi": 46,
          "time": 11.727282499999992,
          "velocity": 0.7874015748031497,
          "duration": 0.13636374999999923
        },
        {
          "name": "B2",
          "midi": 47,
          "time": 11.863646249999992,
          "velocity": 0.7874015748031497,
          "duration": 0.13636374999999923
        },
        {
          "name": "E3",
          "midi": 52,
          "time": 12.00000999999999,
          "velocity": 0.7874015748031497,
          "duration": 0.27272749999999846
        },
        {
          "name": "A3",
          "midi": 57,
          "time": 12.27273749999999,
          "velocity": 0.7874015748031497,
          "duration": 1.0909099999999938
        },
        {
          "name": "E3",
          "midi": 52,
          "time": 12.27273749999999,
          "velocity": 0.7874015748031497,
          "duration": 1.0909099999999938
        },
        {
          "name": "A2",
          "midi": 45,
          "time": 12.27273749999999,
          "velocity": 0.7874015748031497,
          "duration": 1.0909099999999938
        },
        {
          "name": "C3",
          "midi": 48,
          "time": 13.090919999999985,
          "velocity": 0.7874015748031497,
          "duration": 0.13636374999999923
        },
        {
          "name": "C3",
          "midi": 48,
          "time": 13.227283749999984,
          "velocity": 0.7874015748031497,
          "duration": 0.13636374999999923
        },
        {
          "name": "C3",
          "midi": 48,
          "time": 13.363647499999983,
          "velocity": 0.7874015748031497,
          "duration": 0.13636374999999923
        },
        {
          "name": "G3",
          "midi": 55,
          "time": 13.500011249999982,
          "velocity": 0.7874015748031497,
          "duration": 0.27272749999999846
        },
        {
          "name": "G3",
          "midi": 55,
          "time": 13.77273874999998,
          "velocity": 0.7874015748031497,
          "duration": 0.13636374999999923
        },
        {
          "name": "A3",
          "midi": 57,
          "time": 13.90910249999998,
          "velocity": 0.7874015748031497,
          "duration": 0.13636374999999923
        },
        {
          "name": "G3",
          "midi": 55,
          "time": 14.04546624999998,
          "velocity": 0.7874015748031497,
          "duration": 0.13636374999999923
        },
        {
          "name": "C3",
          "midi": 48,
          "time": 14.181829999999978,
          "velocity": 0.7874015748031497,
          "duration": 0.13636374999999923
        },
        {
          "name": "C4",
          "midi": 60,
          "time": 14.318193749999978,
          "velocity": 0.7874015748031497,
          "duration": 0.13636374999999923
        },
        {
          "name": "G3",
          "midi": 55,
          "time": 14.454557499999977,
          "velocity": 0.7874015748031497,
          "duration": 0.13636374999999923
        },
        {
          "name": "G3",
          "midi": 55,
          "time": 14.590921249999976,
          "velocity": 0.7874015748031497,
          "duration": 0.13636374999999923
        },
        {
          "name": "A#3",
          "midi": 58,
          "time": 14.727284999999975,
          "velocity": 0.7874015748031497,
          "duration": 0.13636374999999923
        },
        {
          "name": "G3",
          "midi": 55,
          "time": 14.863648749999975,
          "velocity": 0.7874015748031497,
          "duration": 0.13636374999999923
        },
        {
          "name": "A3",
          "midi": 57,
          "time": 15.000012499999974,
          "velocity": 0.7874015748031497,
          "duration": 0.13636374999999923
        },
        {
          "name": "G3",
          "midi": 55,
          "time": 15.136376249999973,
          "velocity": 0.7874015748031497,
          "duration": 0.13636374999999923
        },
        {
          "name": "C3",
          "midi": 48,
          "time": 15.272739999999972,
          "velocity": 0.7874015748031497,
          "duration": 0.13636374999999923
        },
        {
          "name": "C3",
          "midi": 48,
          "time": 15.409103749999971,
          "velocity": 0.7874015748031497,
          "duration": 0.13636374999999923
        },
        {
          "name": "C3",
          "midi": 48,
          "time": 15.54546749999997,
          "velocity": 0.7874015748031497,
          "duration": 0.13636374999999923
        },
        {
          "name": "G3",
          "midi": 55,
          "time": 15.68183124999997,
          "velocity": 0.7874015748031497,
          "duration": 0.27272750000000023
        },
        {
          "name": "G3",
          "midi": 55,
          "time": 15.95455874999997,
          "velocity": 0.7874015748031497,
          "duration": 0.13636374999999923
        },
        {
          "name": "A3",
          "midi": 57,
          "time": 16.09092249999997,
          "velocity": 0.7874015748031497,
          "duration": 0.136363750000001
        },
        {
          "name": "G3",
          "midi": 55,
          "time": 16.22728624999997,
          "velocity": 0.7874015748031497,
          "duration": 0.136363750000001
        },
        {
          "name": "C3",
          "midi": 48,
          "time": 16.36364999999997,
          "velocity": 0.7874015748031497,
          "duration": 0.136363750000001
        },
        {
          "name": "C4",
          "midi": 60,
          "time": 16.500013749999972,
          "velocity": 0.7874015748031497,
          "duration": 0.136363750000001
        },
        {
          "name": "G3",
          "midi": 55,
          "time": 16.636377499999973,
          "velocity": 0.7874015748031497,
          "duration": 0.136363750000001
        },
        {
          "name": "G3",
          "midi": 55,
          "time": 16.772741249999974,
          "velocity": 0.7874015748031497,
          "duration": 0.136363750000001
        },
        {
          "name": "A#3",
          "midi": 58,
          "time": 16.909104999999975,
          "velocity": 0.7874015748031497,
          "duration": 0.136363750000001
        },
        {
          "name": "G3",
          "midi": 55,
          "time": 17.045468749999976,
          "velocity": 0.7874015748031497,
          "duration": 0.136363750000001
        },
        {
          "name": "A3",
          "midi": 57,
          "time": 17.181832499999977,
          "velocity": 0.7874015748031497,
          "duration": 0.136363750000001
        },
        {
          "name": "G3",
          "midi": 55,
          "time": 17.31819624999998,
          "velocity": 0.7874015748031497,
          "duration": 0.136363750000001
        },
        {
          "name": "C3",
          "midi": 48,
          "time": 17.45455999999998,
          "velocity": 0.7874015748031497,
          "duration": 0.136363750000001
        },
        {
          "name": "C3",
          "midi": 48,
          "time": 17.59092374999998,
          "velocity": 0.7874015748031497,
          "duration": 0.136363750000001
        },
        {
          "name": "C3",
          "midi": 48,
          "time": 17.72728749999998,
          "velocity": 0.7874015748031497,
          "duration": 0.136363750000001
        },
        {
          "name": "G3",
          "midi": 55,
          "time": 17.863651249999982,
          "velocity": 0.7874015748031497,
          "duration": 0.27272749999999846
        },
        {
          "name": "G3",
          "midi": 55,
          "time": 18.13637874999998,
          "velocity": 0.7874015748031497,
          "duration": 0.136363750000001
        },
        {
          "name": "A3",
          "midi": 57,
          "time": 18.272742499999982,
          "velocity": 0.7874015748031497,
          "duration": 0.136363750000001
        },
        {
          "name": "G3",
          "midi": 55,
          "time": 18.409106249999983,
          "velocity": 0.7874015748031497,
          "duration": 0.136363750000001
        },
        {
          "name": "C3",
          "midi": 48,
          "time": 18.545469999999984,
          "velocity": 0.7874015748031497,
          "duration": 0.136363750000001
        },
        {
          "name": "C4",
          "midi": 60,
          "time": 18.681833749999985,
          "velocity": 0.7874015748031497,
          "duration": 0.136363750000001
        },
        {
          "name": "G3",
          "midi": 55,
          "time": 18.818197499999986,
          "velocity": 0.7874015748031497,
          "duration": 0.136363750000001
        },
        {
          "name": "G3",
          "midi": 55,
          "time": 18.954561249999987,
          "velocity": 0.7874015748031497,
          "duration": 0.136363750000001
        },
        {
          "name": "A#3",
          "midi": 58,
          "time": 19.090924999999988,
          "velocity": 0.7874015748031497,
          "duration": 0.136363750000001
        },
        {
          "name": "G3",
          "midi": 55,
          "time": 19.22728874999999,
          "velocity": 0.7874015748031497,
          "duration": 0.136363750000001
        },
        {
          "name": "A3",
          "midi": 57,
          "time": 19.36365249999999,
          "velocity": 0.7874015748031497,
          "duration": 0.136363750000001
        },
        {
          "name": "G3",
          "midi": 55,
          "time": 19.50001624999999,
          "velocity": 0.7874015748031497,
          "duration": 0.136363750000001
        },
        {
          "name": "C3",
          "midi": 48,
          "time": 19.636379999999992,
          "velocity": 0.7874015748031497,
          "duration": 0.136363750000001
        },
        {
          "name": "C3",
          "midi": 48,
          "time": 19.772743749999993,
          "velocity": 0.7874015748031497,
          "duration": 0.136363750000001
        },
        {
          "name": "C3",
          "midi": 48,
          "time": 19.909107499999994,
          "velocity": 0.7874015748031497,
          "duration": 0.136363750000001
        },
        {
          "name": "G3",
          "midi": 55,
          "time": 20.045471249999995,
          "velocity": 0.7874015748031497,
          "duration": 0.27272749999999846
        },
        {
          "name": "G3",
          "midi": 55,
          "time": 20.318198749999993,
          "velocity": 0.7874015748031497,
          "duration": 0.136363750000001
        },
        {
          "name": "A3",
          "midi": 57,
          "time": 20.454562499999994,
          "velocity": 0.7874015748031497,
          "duration": 0.136363750000001
        },
        {
          "name": "G3",
          "midi": 55,
          "time": 20.590926249999995,
          "velocity": 0.7874015748031497,
          "duration": 0.136363750000001
        },
        {
          "name": "C3",
          "midi": 48,
          "time": 20.727289999999996,
          "velocity": 0.7874015748031497,
          "duration": 0.136363750000001
        },
        {
          "name": "C4",
          "midi": 60,
          "time": 20.863653749999997,
          "velocity": 0.7874015748031497,
          "duration": 0.136363750000001
        },
        {
          "name": "G3",
          "midi": 55,
          "time": 21.0000175,
          "velocity": 0.7874015748031497,
          "duration": 0.136363750000001
        },
        {
          "name": "G3",
          "midi": 55,
          "time": 21.13638125,
          "velocity": 0.7874015748031497,
          "duration": 0.136363750000001
        },
        {
          "name": "A#3",
          "midi": 58,
          "time": 21.272745,
          "velocity": 0.7874015748031497,
          "duration": 0.136363750000001
        },
        {
          "name": "G3",
          "midi": 55,
          "time": 21.40910875,
          "velocity": 0.7874015748031497,
          "duration": 0.136363750000001
        },
        {
          "name": "A3",
          "midi": 57,
          "time": 21.545472500000002,
          "velocity": 0.7874015748031497,
          "duration": 0.136363750000001
        },
        {
          "name": "G3",
          "midi": 55,
          "time": 21.681836250000003,
          "velocity": 0.7874015748031497,
          "duration": 0.136363750000001
        },
        {
          "name": "C3",
          "midi": 48,
          "time": 21.818200000000004,
          "velocity": 0.7874015748031497,
          "duration": 0.136363750000001
        },
        {
          "name": "C3",
          "midi": 48,
          "time": 21.954563750000005,
          "velocity": 0.7874015748031497,
          "duration": 0.136363750000001
        },
        {
          "name": "C3",
          "midi": 48,
          "time": 22.090927500000006,
          "velocity": 0.7874015748031497,
          "duration": 0.136363750000001
        },
        {
          "name": "G3",
          "midi": 55,
          "time": 22.227291250000007,
          "velocity": 0.7874015748031497,
          "duration": 0.27272749999999846
        },
        {
          "name": "G3",
          "midi": 55,
          "time": 22.500018750000006,
          "velocity": 0.7874015748031497,
          "duration": 0.136363750000001
        },
        {
          "name": "A3",
          "midi": 57,
          "time": 22.636382500000007,
          "velocity": 0.7874015748031497,
          "duration": 0.136363750000001
        },
        {
          "name": "G3",
          "midi": 55,
          "time": 22.772746250000008,
          "velocity": 0.7874015748031497,
          "duration": 0.136363750000001
        },
        {
          "name": "C3",
          "midi": 48,
          "time": 22.90911000000001,
          "velocity": 0.7874015748031497,
          "duration": 0.136363750000001
        },
        {
          "name": "C4",
          "midi": 60,
          "time": 23.04547375000001,
          "velocity": 0.7874015748031497,
          "duration": 0.136363750000001
        },
        {
          "name": "G3",
          "midi": 55,
          "time": 23.18183750000001,
          "velocity": 0.7874015748031497,
          "duration": 0.136363750000001
        },
        {
          "name": "G3",
          "midi": 55,
          "time": 23.318201250000012,
          "velocity": 0.7874015748031497,
          "duration": 0.136363750000001
        },
        {
          "name": "A#3",
          "midi": 58,
          "time": 23.454565000000013,
          "velocity": 0.7874015748031497,
          "duration": 0.136363750000001
        },
        {
          "name": "G3",
          "midi": 55,
          "time": 23.590928750000014,
          "velocity": 0.7874015748031497,
          "duration": 0.136363750000001
        },
        {
          "name": "A3",
          "midi": 57,
          "time": 23.727292500000015,
          "velocity": 0.7874015748031497,
          "duration": 0.136363750000001
        },
        {
          "name": "G3",
          "midi": 55,
          "time": 23.863656250000016,
          "velocity": 0.7874015748031497,
          "duration": 0.136363750000001
        },
        {
          "name": "C3",
          "midi": 48,
          "time": 24.000020000000017,
          "velocity": 0.7874015748031497,
          "duration": 0.136363750000001
        },
        {
          "name": "C3",
          "midi": 48,
          "time": 24.136383750000018,
          "velocity": 0.7874015748031497,
          "duration": 0.136363750000001
        },
        {
          "name": "C3",
          "midi": 48,
          "time": 24.27274750000002,
          "velocity": 0.7874015748031497,
          "duration": 0.136363750000001
        },
        {
          "name": "G3",
          "midi": 55,
          "time": 24.40911125000002,
          "velocity": 0.7874015748031497,
          "duration": 0.27272749999999846
        },
        {
          "name": "G3",
          "midi": 55,
          "time": 24.68183875000002,
          "velocity": 0.7874015748031497,
          "duration": 0.136363750000001
        },
        {
          "name": "A3",
          "midi": 57,
          "time": 24.81820250000002,
          "velocity": 0.7874015748031497,
          "duration": 0.136363750000001
        },
        {
          "name": "G3",
          "midi": 55,
          "time": 24.95456625000002,
          "velocity": 0.7874015748031497,
          "duration": 0.136363750000001
        },
        {
          "name": "C3",
          "midi": 48,
          "time": 25.09093000000002,
          "velocity": 0.7874015748031497,
          "duration": 0.136363750000001
        },
        {
          "name": "C4",
          "midi": 60,
          "time": 25.227293750000022,
          "velocity": 0.7874015748031497,
          "duration": 0.136363750000001
        },
        {
          "name": "G3",
          "midi": 55,
          "time": 25.363657500000024,
          "velocity": 0.7874015748031497,
          "duration": 0.136363750000001
        },
        {
          "name": "G3",
          "midi": 55,
          "time": 25.500021250000025,
          "velocity": 0.7874015748031497,
          "duration": 0.136363750000001
        },
        {
          "name": "A#3",
          "midi": 58,
          "time": 25.636385000000026,
          "velocity": 0.7874015748031497,
          "duration": 0.136363750000001
        },
        {
          "name": "G3",
          "midi": 55,
          "time": 25.772748750000027,
          "velocity": 0.7874015748031497,
          "duration": 0.136363750000001
        },
        {
          "name": "A3",
          "midi": 57,
          "time": 25.909112500000028,
          "velocity": 0.7874015748031497,
          "duration": 0.136363750000001
        },
        {
          "name": "G3",
          "midi": 55,
          "time": 26.04547625000003,
          "velocity": 0.7874015748031497,
          "duration": 0.136363750000001
        },
        {
          "name": "C3",
          "midi": 48,
          "time": 26.18184000000003,
          "velocity": 0.7874015748031497,
          "duration": 0.136363750000001
        },
        {
          "name": "C3",
          "midi": 48,
          "time": 26.31820375000003,
          "velocity": 0.7874015748031497,
          "duration": 0.136363750000001
        },
        {
          "name": "C3",
          "midi": 48,
          "time": 26.45456750000003,
          "velocity": 0.7874015748031497,
          "duration": 0.136363750000001
        },
        {
          "name": "G3",
          "midi": 55,
          "time": 26.590931250000033,
          "velocity": 0.7874015748031497,
          "duration": 0.27272749999999846
        },
        {
          "name": "G3",
          "midi": 55,
          "time": 26.86365875000003,
          "velocity": 0.7874015748031497,
          "duration": 0.136363750000001
        },
        {
          "name": "A3",
          "midi": 57,
          "time": 27.000022500000032,
          "velocity": 0.7874015748031497,
          "duration": 0.136363750000001
        },
        {
          "name": "G3",
          "midi": 55,
          "time": 27.136386250000033,
          "velocity": 0.7874015748031497,
          "duration": 0.136363750000001
        },
        {
          "name": "C3",
          "midi": 48,
          "time": 27.272750000000034,
          "velocity": 0.7874015748031497,
          "duration": 0.136363750000001
        },
        {
          "name": "C4",
          "midi": 60,
          "time": 27.409113750000035,
          "velocity": 0.7874015748031497,
          "duration": 0.136363750000001
        },
        {
          "name": "G3",
          "midi": 55,
          "time": 27.545477500000036,
          "velocity": 0.7874015748031497,
          "duration": 0.136363750000001
        },
        {
          "name": "G3",
          "midi": 55,
          "time": 27.681841250000037,
          "velocity": 0.7874015748031497,
          "duration": 0.136363750000001
        },
        {
          "name": "A#3",
          "midi": 58,
          "time": 27.818205000000038,
          "velocity": 0.7874015748031497,
          "duration": 0.136363750000001
        },
        {
          "name": "G3",
          "midi": 55,
          "time": 27.95456875000004,
          "velocity": 0.7874015748031497,
          "duration": 0.136363750000001
        },
        {
          "name": "A3",
          "midi": 57,
          "time": 28.09093250000004,
          "velocity": 0.7874015748031497,
          "duration": 0.136363750000001
        },
        {
          "name": "G3",
          "midi": 55,
          "time": 28.22729625000004,
          "velocity": 0.7874015748031497,
          "duration": 0.136363750000001
        },
        {
          "name": "C3",
          "midi": 48,
          "time": 28.363660000000042,
          "velocity": 0.7874015748031497,
          "duration": 0.136363750000001
        },
        {
          "name": "C3",
          "midi": 48,
          "time": 28.500023750000043,
          "velocity": 0.7874015748031497,
          "duration": 0.136363750000001
        },
        {
          "name": "C3",
          "midi": 48,
          "time": 28.636387500000044,
          "velocity": 0.7874015748031497,
          "duration": 0.136363750000001
        },
        {
          "name": "G3",
          "midi": 55,
          "time": 28.772751250000045,
          "velocity": 0.7874015748031497,
          "duration": 0.27272749999999846
        },
        {
          "name": "G3",
          "midi": 55,
          "time": 29.045478750000044,
          "velocity": 0.7874015748031497,
          "duration": 0.136363750000001
        },
        {
          "name": "A3",
          "midi": 57,
          "time": 29.181842500000045,
          "velocity": 0.7874015748031497,
          "duration": 0.136363750000001
        },
        {
          "name": "G3",
          "midi": 55,
          "time": 29.318206250000046,
          "velocity": 0.7874015748031497,
          "duration": 0.136363750000001
        },
        {
          "name": "C3",
          "midi": 48,
          "time": 29.454570000000047,
          "velocity": 0.7874015748031497,
          "duration": 0.136363750000001
        },
        {
          "name": "C4",
          "midi": 60,
          "time": 29.590933750000048,
          "velocity": 0.7874015748031497,
          "duration": 0.136363750000001
        },
        {
          "name": "G3",
          "midi": 55,
          "time": 29.72729750000005,
          "velocity": 0.7874015748031497,
          "duration": 0.136363750000001
        },
        {
          "name": "G3",
          "midi": 55,
          "time": 29.86366125000005,
          "velocity": 0.7874015748031497,
          "duration": 0.136363750000001
        },
        {
          "name": "A3",
          "midi": 57,
          "time": 30.00002500000005,
          "velocity": 0.7874015748031497,
          "duration": 0.5454550000000005
        },
        {
          "name": "E3",
          "midi": 52,
          "time": 30.00002500000005,
          "velocity": 0.7874015748031497,
          "duration": 0.5454550000000005
        },
        {
          "name": "A2",
          "midi": 45,
          "time": 30.00002500000005,
          "velocity": 0.7874015748031497,
          "duration": 0.5454550000000005
        },
        {
          "name": "A2",
          "midi": 45,
          "time": 30.54548000000005,
          "velocity": 0.7874015748031497,
          "duration": 0.136363750000001
        },
        {
          "name": "A#2",
          "midi": 46,
          "time": 30.681843750000052,
          "velocity": 0.7874015748031497,
          "duration": 0.136363750000001
        },
        {
          "name": "B2",
          "midi": 47,
          "time": 30.818207500000053,
          "velocity": 0.7874015748031497,
          "duration": 0.136363750000001
        },
        {
          "name": "E3",
          "midi": 52,
          "time": 30.954571250000054,
          "velocity": 0.7874015748031497,
          "duration": 0.136363750000001
        },
        {
          "name": "A2",
          "midi": 45,
          "time": 31.227298750000056,
          "velocity": 0.7874015748031497,
          "duration": 0.136363750000001
        },
        {
          "name": "A#2",
          "midi": 46,
          "time": 31.363662500000057,
          "velocity": 0.7874015748031497,
          "duration": 0.136363750000001
        },
        {
          "name": "B2",
          "midi": 47,
          "time": 31.500026250000058,
          "velocity": 0.7874015748031497,
          "duration": 0.136363750000001
        },
        {
          "name": "E3",
          "midi": 52,
          "time": 31.63639000000006,
          "velocity": 0.7874015748031497,
          "duration": 0.27272749999999846
        },
        {
          "name": "E2",
          "midi": 40,
          "time": 31.909117500000058,
          "velocity": 0.7874015748031497,
          "duration": 0.272727500000002
        },
        {
          "name": "A2",
          "midi": 45,
          "time": 32.72730000000006,
          "velocity": 0.7874015748031497,
          "duration": 0.136363750000001
        },
        {
          "name": "A#2",
          "midi": 46,
          "time": 32.86366375000006,
          "velocity": 0.7874015748031497,
          "duration": 0.136363750000001
        },
        {
          "name": "B2",
          "midi": 47,
          "time": 33.00002750000006,
          "velocity": 0.7874015748031497,
          "duration": 0.136363750000001
        },
        {
          "name": "E3",
          "midi": 52,
          "time": 33.13639125000006,
          "velocity": 0.7874015748031497,
          "duration": 0.136363750000001
        },
        {
          "name": "A2",
          "midi": 45,
          "time": 33.40911875000006,
          "velocity": 0.7874015748031497,
          "duration": 0.136363750000001
        },
        {
          "name": "A#2",
          "midi": 46,
          "time": 33.54548250000006,
          "velocity": 0.7874015748031497,
          "duration": 0.136363750000001
        },
        {
          "name": "B2",
          "midi": 47,
          "time": 33.68184625000006,
          "velocity": 0.7874015748031497,
          "duration": 0.136363750000001
        },
        {
          "name": "E3",
          "midi": 52,
          "time": 33.818210000000064,
          "velocity": 0.7874015748031497,
          "duration": 0.272727500000002
        },
        {
          "name": "G2",
          "midi": 43,
          "time": 34.09093750000007,
          "velocity": 0.7874015748031497,
          "duration": 0.136363750000001
        },
        {
          "name": "E2",
          "midi": 40,
          "time": 34.22730125000007,
          "velocity": 0.7874015748031497,
          "duration": 0.136363750000001
        },
        {
          "name": "E3",
          "midi": 52,
          "time": 34.36366500000007,
          "velocity": 1,
          "duration": 0.5454549999999969
        },
        {
          "name": "A2",
          "midi": 45,
          "time": 34.909120000000065,
          "velocity": 0.7874015748031497,
          "duration": 0.136363750000001
        },
        {
          "name": "A#2",
          "midi": 46,
          "time": 35.045483750000066,
          "velocity": 0.7874015748031497,
          "duration": 0.136363750000001
        },
        {
          "name": "B2",
          "midi": 47,
          "time": 35.18184750000007,
          "velocity": 0.7874015748031497,
          "duration": 0.136363750000001
        },
        {
          "name": "E3",
          "midi": 52,
          "time": 35.31821125000007,
          "velocity": 0.7874015748031497,
          "duration": 0.136363750000001
        },
        {
          "name": "A2",
          "midi": 45,
          "time": 35.59093875000007,
          "velocity": 0.7874015748031497,
          "duration": 0.136363750000001
        },
        {
          "name": "A#2",
          "midi": 46,
          "time": 35.72730250000007,
          "velocity": 0.7874015748031497,
          "duration": 0.136363750000001
        },
        {
          "name": "B2",
          "midi": 47,
          "time": 35.86366625000007,
          "velocity": 0.7874015748031497,
          "duration": 0.136363750000001
        },
        {
          "name": "E3",
          "midi": 52,
          "time": 36.00003000000007,
          "velocity": 0.7874015748031497,
          "duration": 0.272727500000002
        },
        {
          "name": "E2",
          "midi": 40,
          "time": 36.272757500000075,
          "velocity": 0.7874015748031497,
          "duration": 0.272727500000002
        },
        {
          "name": "A2",
          "midi": 45,
          "time": 37.090940000000074,
          "velocity": 0.7874015748031497,
          "duration": 0.136363750000001
        },
        {
          "name": "A#2",
          "midi": 46,
          "time": 37.227303750000075,
          "velocity": 0.7874015748031497,
          "duration": 0.136363750000001
        },
        {
          "name": "B2",
          "midi": 47,
          "time": 37.363667500000076,
          "velocity": 0.7874015748031497,
          "duration": 0.136363750000001
        },
        {
          "name": "E3",
          "midi": 52,
          "time": 37.50003125000008,
          "velocity": 0.7874015748031497,
          "duration": 0.136363750000001
        },
        {
          "name": "A2",
          "midi": 45,
          "time": 37.77275875000008,
          "velocity": 0.7874015748031497,
          "duration": 0.136363750000001
        },
        {
          "name": "A#2",
          "midi": 46,
          "time": 37.90912250000008,
          "velocity": 0.7874015748031497,
          "duration": 0.136363750000001
        },
        {
          "name": "B2",
          "midi": 47,
          "time": 38.04548625000008,
          "velocity": 0.7874015748031497,
          "duration": 0.136363750000001
        },
        {
          "name": "E3",
          "midi": 52,
          "time": 38.18185000000008,
          "velocity": 0.7874015748031497,
          "duration": 0.272727500000002
        },
        {
          "name": "A3",
          "midi": 57,
          "time": 38.454577500000084,
          "velocity": 0.7874015748031497,
          "duration": 1.090910000000001
        },
        {
          "name": "E3",
          "midi": 52,
          "time": 38.454577500000084,
          "velocity": 0.7874015748031497,
          "duration": 1.090910000000001
        },
        {
          "name": "A2",
          "midi": 45,
          "time": 38.454577500000084,
          "velocity": 0.7874015748031497,
          "duration": 1.090910000000001
        },
        {
          "name": "C3",
          "midi": 48,
          "time": 39.27276000000008,
          "velocity": 0.7874015748031497,
          "duration": 0.136363750000001
        },
        {
          "name": "C3",
          "midi": 48,
          "time": 39.409123750000084,
          "velocity": 0.7874015748031497,
          "duration": 0.136363750000001
        },
        {
          "name": "C3",
          "midi": 48,
          "time": 39.545487500000085,
          "velocity": 0.7874015748031497,
          "duration": 0.136363750000001
        },
        {
          "name": "G3",
          "midi": 55,
          "time": 39.681851250000086,
          "velocity": 0.7874015748031497,
          "duration": 0.272727500000002
        },
        {
          "name": "G3",
          "midi": 55,
          "time": 39.95457875000009,
          "velocity": 0.7874015748031497,
          "duration": 0.136363750000001
        },
        {
          "name": "A3",
          "midi": 57,
          "time": 40.09094250000009,
          "velocity": 0.7874015748031497,
          "duration": 0.136363750000001
        },
        {
          "name": "G3",
          "midi": 55,
          "time": 40.22730625000009,
          "velocity": 0.7874015748031497,
          "duration": 0.136363750000001
        },
        {
          "name": "C3",
          "midi": 48,
          "time": 40.36367000000009,
          "velocity": 0.7874015748031497,
          "duration": 0.136363750000001
        },
        {
          "name": "C4",
          "midi": 60,
          "time": 40.50003375000009,
          "velocity": 0.7874015748031497,
          "duration": 0.136363750000001
        },
        {
          "name": "G3",
          "midi": 55,
          "time": 40.63639750000009,
          "velocity": 0.7874015748031497,
          "duration": 0.136363750000001
        },
        {
          "name": "G3",
          "midi": 55,
          "time": 40.772761250000094,
          "velocity": 0.7874015748031497,
          "duration": 0.136363750000001
        },
        {
          "name": "A#3",
          "midi": 58,
          "time": 40.909125000000095,
          "velocity": 0.7874015748031497,
          "duration": 0.136363750000001
        },
        {
          "name": "G3",
          "midi": 55,
          "time": 41.045488750000096,
          "velocity": 0.7874015748031497,
          "duration": 0.136363750000001
        },
        {
          "name": "A3",
          "midi": 57,
          "time": 41.1818525000001,
          "velocity": 0.7874015748031497,
          "duration": 0.136363750000001
        },
        {
          "name": "G3",
          "midi": 55,
          "time": 41.3182162500001,
          "velocity": 0.7874015748031497,
          "duration": 0.136363750000001
        },
        {
          "name": "C3",
          "midi": 48,
          "time": 41.4545800000001,
          "velocity": 0.7874015748031497,
          "duration": 0.136363750000001
        },
        {
          "name": "C3",
          "midi": 48,
          "time": 41.5909437500001,
          "velocity": 0.7874015748031497,
          "duration": 0.136363750000001
        },
        {
          "name": "C3",
          "midi": 48,
          "time": 41.7273075000001,
          "velocity": 0.7874015748031497,
          "duration": 0.136363750000001
        },
        {
          "name": "G3",
          "midi": 55,
          "time": 41.8636712500001,
          "velocity": 0.7874015748031497,
          "duration": 0.272727500000002
        },
        {
          "name": "G3",
          "midi": 55,
          "time": 42.136398750000104,
          "velocity": 0.7874015748031497,
          "duration": 0.136363750000001
        },
        {
          "name": "A3",
          "midi": 57,
          "time": 42.272762500000105,
          "velocity": 0.7874015748031497,
          "duration": 0.136363750000001
        },
        {
          "name": "G3",
          "midi": 55,
          "time": 42.40912625000011,
          "velocity": 0.7874015748031497,
          "duration": 0.136363750000001
        },
        {
          "name": "C3",
          "midi": 48,
          "time": 42.54549000000011,
          "velocity": 0.7874015748031497,
          "duration": 0.136363750000001
        },
        {
          "name": "C4",
          "midi": 60,
          "time": 42.68185375000011,
          "velocity": 0.7874015748031497,
          "duration": 0.136363750000001
        },
        {
          "name": "G3",
          "midi": 55,
          "time": 42.81821750000011,
          "velocity": 0.7874015748031497,
          "duration": 0.136363750000001
        },
        {
          "name": "G3",
          "midi": 55,
          "time": 42.95458125000011,
          "velocity": 0.7874015748031497,
          "duration": 0.136363750000001
        },
        {
          "name": "A#3",
          "midi": 58,
          "time": 43.09094500000011,
          "velocity": 0.7874015748031497,
          "duration": 0.136363750000001
        },
        {
          "name": "G3",
          "midi": 55,
          "time": 43.22730875000011,
          "velocity": 0.7874015748031497,
          "duration": 0.136363750000001
        },
        {
          "name": "A3",
          "midi": 57,
          "time": 43.36367250000011,
          "velocity": 0.7874015748031497,
          "duration": 0.136363750000001
        },
        {
          "name": "G3",
          "midi": 55,
          "time": 43.500036250000115,
          "velocity": 0.7874015748031497,
          "duration": 0.136363750000001
        },
        {
          "name": "C3",
          "midi": 48,
          "time": 43.636400000000116,
          "velocity": 0.7874015748031497,
          "duration": 0.136363750000001
        },
        {
          "name": "C3",
          "midi": 48,
          "time": 43.77276375000012,
          "velocity": 0.7874015748031497,
          "duration": 0.136363750000001
        },
        {
          "name": "C3",
          "midi": 48,
          "time": 43.90912750000012,
          "velocity": 0.7874015748031497,
          "duration": 0.136363750000001
        },
        {
          "name": "G3",
          "midi": 55,
          "time": 44.04549125000012,
          "velocity": 0.7874015748031497,
          "duration": 0.272727500000002
        },
        {
          "name": "G3",
          "midi": 55,
          "time": 44.31821875000012,
          "velocity": 0.7874015748031497,
          "duration": 0.136363750000001
        },
        {
          "name": "A3",
          "midi": 57,
          "time": 44.45458250000012,
          "velocity": 0.7874015748031497,
          "duration": 0.136363750000001
        },
        {
          "name": "G3",
          "midi": 55,
          "time": 44.59094625000012,
          "velocity": 0.7874015748031497,
          "duration": 0.136363750000001
        },
        {
          "name": "C3",
          "midi": 48,
          "time": 44.727310000000124,
          "velocity": 0.7874015748031497,
          "duration": 0.136363750000001
        },
        {
          "name": "C4",
          "midi": 60,
          "time": 44.863673750000125,
          "velocity": 0.7874015748031497,
          "duration": 0.136363750000001
        },
        {
          "name": "G3",
          "midi": 55,
          "time": 45.000037500000126,
          "velocity": 0.7874015748031497,
          "duration": 0.136363750000001
        },
        {
          "name": "G3",
          "midi": 55,
          "time": 45.13640125000013,
          "velocity": 0.7874015748031497,
          "duration": 0.136363750000001
        },
        {
          "name": "A#3",
          "midi": 58,
          "time": 45.27276500000013,
          "velocity": 0.7874015748031497,
          "duration": 0.136363750000001
        },
        {
          "name": "G3",
          "midi": 55,
          "time": 45.40912875000013,
          "velocity": 0.7874015748031497,
          "duration": 0.136363750000001
        },
        {
          "name": "A3",
          "midi": 57,
          "time": 45.54549250000013,
          "velocity": 0.7874015748031497,
          "duration": 0.136363750000001
        },
        {
          "name": "G3",
          "midi": 55,
          "time": 45.68185625000013,
          "velocity": 0.7874015748031497,
          "duration": 0.136363750000001
        },
        {
          "name": "C3",
          "midi": 48,
          "time": 45.81822000000013,
          "velocity": 0.7874015748031497,
          "duration": 0.136363750000001
        },
        {
          "name": "C3",
          "midi": 48,
          "time": 45.95458375000013,
          "velocity": 0.7874015748031497,
          "duration": 0.136363750000001
        },
        {
          "name": "C3",
          "midi": 48,
          "time": 46.090947500000134,
          "velocity": 0.7874015748031497,
          "duration": 0.136363750000001
        },
        {
          "name": "G3",
          "midi": 55,
          "time": 46.227311250000135,
          "velocity": 0.7874015748031497,
          "duration": 0.272727500000002
        },
        {
          "name": "G3",
          "midi": 55,
          "time": 46.50003875000014,
          "velocity": 0.7874015748031497,
          "duration": 0.136363750000001
        },
        {
          "name": "A3",
          "midi": 57,
          "time": 46.63640250000014,
          "velocity": 0.7874015748031497,
          "duration": 0.136363750000001
        },
        {
          "name": "G3",
          "midi": 55,
          "time": 46.77276625000014,
          "velocity": 0.7874015748031497,
          "duration": 0.136363750000001
        },
        {
          "name": "C3",
          "midi": 48,
          "time": 46.90913000000014,
          "velocity": 0.7874015748031497,
          "duration": 0.136363750000001
        },
        {
          "name": "C4",
          "midi": 60,
          "time": 47.04549375000014,
          "velocity": 0.7874015748031497,
          "duration": 0.136363750000001
        },
        {
          "name": "G3",
          "midi": 55,
          "time": 47.18185750000014,
          "velocity": 0.7874015748031497,
          "duration": 0.136363750000001
        },
        {
          "name": "G3",
          "midi": 55,
          "time": 47.31822125000014,
          "velocity": 0.7874015748031497,
          "duration": 0.136363750000001
        },
        {
          "name": "A#3",
          "midi": 58,
          "time": 47.454585000000144,
          "velocity": 0.7874015748031497,
          "duration": 0.136363750000001
        },
        {
          "name": "G3",
          "midi": 55,
          "time": 47.590948750000145,
          "velocity": 0.7874015748031497,
          "duration": 0.136363750000001
        },
        {
          "name": "A3",
          "midi": 57,
          "time": 47.727312500000146,
          "velocity": 0.7874015748031497,
          "duration": 0.136363750000001
        },
        {
          "name": "G3",
          "midi": 55,
          "time": 47.86367625000015,
          "velocity": 0.7874015748031497,
          "duration": 0.136363750000001
        },
        {
          "name": "C3",
          "midi": 48,
          "time": 48.00004000000015,
          "velocity": 0.7874015748031497,
          "duration": 0.136363750000001
        },
        {
          "name": "C3",
          "midi": 48,
          "time": 48.13640375000015,
          "velocity": 0.7874015748031497,
          "duration": 0.136363750000001
        },
        {
          "name": "C3",
          "midi": 48,
          "time": 48.27276750000015,
          "velocity": 0.7874015748031497,
          "duration": 0.136363750000001
        },
        {
          "name": "G3",
          "midi": 55,
          "time": 48.40913125000015,
          "velocity": 0.7874015748031497,
          "duration": 0.272727500000002
        },
        {
          "name": "G3",
          "midi": 55,
          "time": 48.68185875000015,
          "velocity": 0.7874015748031497,
          "duration": 0.136363750000001
        },
        {
          "name": "A3",
          "midi": 57,
          "time": 48.818222500000154,
          "velocity": 0.7874015748031497,
          "duration": 0.136363750000001
        },
        {
          "name": "G3",
          "midi": 55,
          "time": 48.954586250000155,
          "velocity": 0.7874015748031497,
          "duration": 0.136363750000001
        },
        {
          "name": "C3",
          "midi": 48,
          "time": 49.090950000000156,
          "velocity": 0.7874015748031497,
          "duration": 0.136363750000001
        },
        {
          "name": "C4",
          "midi": 60,
          "time": 49.22731375000016,
          "velocity": 0.7874015748031497,
          "duration": 0.136363750000001
        },
        {
          "name": "G3",
          "midi": 55,
          "time": 49.36367750000016,
          "velocity": 0.7874015748031497,
          "duration": 0.136363750000001
        },
        {
          "name": "G3",
          "midi": 55,
          "time": 49.50004125000016,
          "velocity": 0.7874015748031497,
          "duration": 0.136363750000001
        },
        {
          "name": "A#3",
          "midi": 58,
          "time": 49.63640500000016,
          "velocity": 0.7874015748031497,
          "duration": 0.136363750000001
        },
        {
          "name": "G3",
          "midi": 55,
          "time": 49.77276875000016,
          "velocity": 0.7874015748031497,
          "duration": 0.136363750000001
        },
        {
          "name": "A3",
          "midi": 57,
          "time": 49.90913250000016,
          "velocity": 0.7874015748031497,
          "duration": 0.136363750000001
        },
        {
          "name": "G3",
          "midi": 55,
          "time": 50.04549625000016,
          "velocity": 0.7874015748031497,
          "duration": 0.136363750000001
        },
        {
          "name": "C3",
          "midi": 48,
          "time": 50.181860000000164,
          "velocity": 0.7874015748031497,
          "duration": 0.136363750000001
        },
        {
          "name": "C3",
          "midi": 48,
          "time": 50.318223750000165,
          "velocity": 0.7874015748031497,
          "duration": 0.136363750000001
        },
        {
          "name": "C3",
          "midi": 48,
          "time": 50.454587500000166,
          "velocity": 0.7874015748031497,
          "duration": 0.136363750000001
        },
        {
          "name": "G3",
          "midi": 55,
          "time": 50.59095125000017,
          "velocity": 0.7874015748031497,
          "duration": 0.272727500000002
        },
        {
          "name": "G3",
          "midi": 55,
          "time": 50.86367875000017,
          "velocity": 0.7874015748031497,
          "duration": 0.136363750000001
        },
        {
          "name": "A3",
          "midi": 57,
          "time": 51.00004250000017,
          "velocity": 0.7874015748031497,
          "duration": 0.136363750000001
        },
        {
          "name": "G3",
          "midi": 55,
          "time": 51.13640625000017,
          "velocity": 0.7874015748031497,
          "duration": 0.136363750000001
        },
        {
          "name": "C3",
          "midi": 48,
          "time": 51.27277000000017,
          "velocity": 0.7874015748031497,
          "duration": 0.136363750000001
        },
        {
          "name": "C4",
          "midi": 60,
          "time": 51.40913375000017,
          "velocity": 0.7874015748031497,
          "duration": 0.136363750000001
        },
        {
          "name": "G3",
          "midi": 55,
          "time": 51.545497500000174,
          "velocity": 0.7874015748031497,
          "duration": 0.136363750000001
        },
        {
          "name": "G3",
          "midi": 55,
          "time": 51.681861250000175,
          "velocity": 0.7874015748031497,
          "duration": 0.136363750000001
        },
        {
          "name": "A#3",
          "midi": 58,
          "time": 51.818225000000176,
          "velocity": 0.7874015748031497,
          "duration": 0.136363750000001
        },
        {
          "name": "G3",
          "midi": 55,
          "time": 51.95458875000018,
          "velocity": 0.7874015748031497,
          "duration": 0.136363750000001
        },
        {
          "name": "A3",
          "midi": 57,
          "time": 52.09095250000018,
          "velocity": 0.7874015748031497,
          "duration": 0.136363750000001
        },
        {
          "name": "G3",
          "midi": 55,
          "time": 52.22731625000018,
          "velocity": 0.7874015748031497,
          "duration": 0.136363750000001
        },
        {
          "name": "C3",
          "midi": 48,
          "time": 52.36368000000018,
          "velocity": 0.7874015748031497,
          "duration": 0.136363750000001
        },
        {
          "name": "C3",
          "midi": 48,
          "time": 52.50004375000018,
          "velocity": 0.7874015748031497,
          "duration": 0.136363750000001
        },
        {
          "name": "C3",
          "midi": 48,
          "time": 52.63640750000018,
          "velocity": 0.7874015748031497,
          "duration": 0.136363750000001
        },
        {
          "name": "G3",
          "midi": 55,
          "time": 52.77277125000018,
          "velocity": 0.7874015748031497,
          "duration": 0.272727500000002
        },
        {
          "name": "G3",
          "midi": 55,
          "time": 53.045498750000185,
          "velocity": 0.7874015748031497,
          "duration": 0.136363750000001
        },
        {
          "name": "A3",
          "midi": 57,
          "time": 53.181862500000186,
          "velocity": 0.7874015748031497,
          "duration": 0.136363750000001
        },
        {
          "name": "G3",
          "midi": 55,
          "time": 53.31822625000019,
          "velocity": 0.7874015748031497,
          "duration": 0.136363750000001
        },
        {
          "name": "C3",
          "midi": 48,
          "time": 53.45459000000019,
          "velocity": 0.7874015748031497,
          "duration": 0.136363750000001
        },
        {
          "name": "C4",
          "midi": 60,
          "time": 53.59095375000019,
          "velocity": 0.7874015748031497,
          "duration": 0.136363750000001
        },
        {
          "name": "G3",
          "midi": 55,
          "time": 53.72731750000019,
          "velocity": 0.7874015748031497,
          "duration": 0.136363750000001
        },
        {
          "name": "G3",
          "midi": 55,
          "time": 53.86368125000019,
          "velocity": 0.7874015748031497,
          "duration": 0.136363750000001
        },
        {
          "name": "A#3",
          "midi": 58,
          "time": 54.00004500000019,
          "velocity": 0.7874015748031497,
          "duration": 0.136363750000001
        },
        {
          "name": "G3",
          "midi": 55,
          "time": 54.13640875000019,
          "velocity": 0.7874015748031497,
          "duration": 0.136363750000001
        },
        {
          "name": "A3",
          "midi": 57,
          "time": 54.272772500000194,
          "velocity": 0.7874015748031497,
          "duration": 0.136363750000001
        },
        {
          "name": "G3",
          "midi": 55,
          "time": 54.409136250000195,
          "velocity": 0.7874015748031497,
          "duration": 0.136363750000001
        },
        {
          "name": "C3",
          "midi": 48,
          "time": 54.545500000000196,
          "velocity": 0.7874015748031497,
          "duration": 0.136363750000001
        },
        {
          "name": "C3",
          "midi": 48,
          "time": 54.6818637500002,
          "velocity": 0.7874015748031497,
          "duration": 0.136363750000001
        },
        {
          "name": "C3",
          "midi": 48,
          "time": 54.8182275000002,
          "velocity": 0.7874015748031497,
          "duration": 0.136363750000001
        },
        {
          "name": "G3",
          "midi": 55,
          "time": 54.9545912500002,
          "velocity": 0.7874015748031497,
          "duration": 0.272727500000002
        },
        {
          "name": "G3",
          "midi": 55,
          "time": 55.2273187500002,
          "velocity": 0.7874015748031497,
          "duration": 0.136363750000001
        },
        {
          "name": "A3",
          "midi": 57,
          "time": 55.3636825000002,
          "velocity": 0.7874015748031497,
          "duration": 0.136363750000001
        },
        {
          "name": "G3",
          "midi": 55,
          "time": 55.5000462500002,
          "velocity": 0.7874015748031497,
          "duration": 0.136363750000001
        },
        {
          "name": "C3",
          "midi": 48,
          "time": 55.636410000000204,
          "velocity": 0.7874015748031497,
          "duration": 0.136363750000001
        },
        {
          "name": "C4",
          "midi": 60,
          "time": 55.772773750000205,
          "velocity": 0.7874015748031497,
          "duration": 0.136363750000001
        },
        {
          "name": "G3",
          "midi": 55,
          "time": 55.909137500000206,
          "velocity": 0.7874015748031497,
          "duration": 0.136363750000001
        },
        {
          "name": "G3",
          "midi": 55,
          "time": 56.04550125000021,
          "velocity": 0.7874015748031497,
          "duration": 0.136363750000001
        },
        {
          "name": "A#3",
          "midi": 58,
          "time": 56.18186500000021,
          "velocity": 0.7874015748031497,
          "duration": 0.136363750000001
        },
        {
          "name": "G3",
          "midi": 55,
          "time": 56.31822875000021,
          "velocity": 0.7874015748031497,
          "duration": 0.136363750000001
        },
        {
          "name": "A3",
          "midi": 57,
          "time": 56.45459250000021,
          "velocity": 0.7874015748031497,
          "duration": 0.136363750000001
        },
        {
          "name": "G3",
          "midi": 55,
          "time": 56.59095625000021,
          "velocity": 0.7874015748031497,
          "duration": 0.136363750000001
        },
        {
          "name": "G3",
          "midi": 55,
          "time": 56.72732000000021,
          "velocity": 0.7874015748031497,
          "duration": 0.272727500000002
        },
        {
          "name": "C3",
          "midi": 48,
          "time": 56.72732000000021,
          "velocity": 0.7874015748031497,
          "duration": 0.272727500000002
        },
        {
          "name": "A3",
          "midi": 57,
          "time": 57.136411250000215,
          "velocity": 0.7874015748031497,
          "duration": 0.272727500000002
        },
        {
          "name": "C3",
          "midi": 48,
          "time": 57.136411250000215,
          "velocity": 0.7874015748031497,
          "duration": 0.272727500000002
        },
        {
          "name": "A#3",
          "midi": 58,
          "time": 57.54550250000022,
          "velocity": 0.7874015748031497,
          "duration": 0.5454549999999969
        },
        {
          "name": "C3",
          "midi": 48,
          "time": 57.54550250000022,
          "velocity": 0.7874015748031497,
          "duration": 0.5454549999999969
        },
        {
          "name": "D#4",
          "midi": 63,
          "time": 58.909140000000214,
          "velocity": 0.7874015748031497,
          "duration": 0.272727500000002
        },
        {
          "name": "F3",
          "midi": 53,
          "time": 58.909140000000214,
          "velocity": 0.7874015748031497,
          "duration": 0.272727500000002
        },
        {
          "name": "D4",
          "midi": 62,
          "time": 59.31823125000022,
          "velocity": 0.7874015748031497,
          "duration": 0.272727500000002
        },
        {
          "name": "F3",
          "midi": 53,
          "time": 59.31823125000022,
          "velocity": 0.7874015748031497,
          "duration": 0.272727500000002
        },
        {
          "name": "D#4",
          "midi": 63,
          "time": 59.72732250000022,
          "velocity": 0.7874015748031497,
          "duration": 0.5454549999999969
        },
        {
          "name": "F3",
          "midi": 53,
          "time": 59.72732250000022,
          "velocity": 0.7874015748031497,
          "duration": 0.5454549999999969
        },
        {
          "name": "G3",
          "midi": 55,
          "time": 61.090960000000216,
          "velocity": 0.7874015748031497,
          "duration": 0.272727500000002
        },
        {
          "name": "C3",
          "midi": 48,
          "time": 61.090960000000216,
          "velocity": 0.7874015748031497,
          "duration": 0.272727500000002
        },
        {
          "name": "A3",
          "midi": 57,
          "time": 61.50005125000022,
          "velocity": 0.7874015748031497,
          "duration": 0.272727500000002
        },
        {
          "name": "C3",
          "midi": 48,
          "time": 61.50005125000022,
          "velocity": 0.7874015748031497,
          "duration": 0.272727500000002
        },
        {
          "name": "A#3",
          "midi": 58,
          "time": 61.90914250000022,
          "velocity": 0.7874015748031497,
          "duration": 0.5454549999999969
        },
        {
          "name": "C3",
          "midi": 48,
          "time": 61.90914250000022,
          "velocity": 0.7874015748031497,
          "duration": 0.5454549999999969
        },
        {
          "name": "D#4",
          "midi": 63,
          "time": 63.27278000000022,
          "velocity": 0.7874015748031497,
          "duration": 0.272727500000002
        },
        {
          "name": "F3",
          "midi": 53,
          "time": 63.27278000000022,
          "velocity": 0.7874015748031497,
          "duration": 0.272727500000002
        },
        {
          "name": "D4",
          "midi": 62,
          "time": 63.68187125000022,
          "velocity": 0.7874015748031497,
          "duration": 0.272727500000002
        },
        {
          "name": "F3",
          "midi": 53,
          "time": 63.68187125000022,
          "velocity": 0.7874015748031497,
          "duration": 0.272727500000002
        },
        {
          "name": "D#4",
          "midi": 63,
          "time": 64.09096250000022,
          "velocity": 0.7874015748031497,
          "duration": 0.545455000000004
        },
        {
          "name": "F3",
          "midi": 53,
          "time": 64.09096250000022,
          "velocity": 0.7874015748031497,
          "duration": 0.545455000000004
        },
        {
          "name": "C3",
          "midi": 48,
          "time": 65.45460000000023,
          "velocity": 0.7874015748031497,
          "duration": 0.136363750000001
        },
        {
          "name": "C3",
          "midi": 48,
          "time": 65.59096375000023,
          "velocity": 0.7874015748031497,
          "duration": 0.136363750000001
        },
        {
          "name": "C3",
          "midi": 48,
          "time": 65.72732750000023,
          "velocity": 0.7874015748031497,
          "duration": 0.136363750000001
        },
        {
          "name": "G3",
          "midi": 55,
          "time": 65.86369125000023,
          "velocity": 0.7874015748031497,
          "duration": 0.272727500000002
        },
        {
          "name": "G3",
          "midi": 55,
          "time": 66.13641875000023,
          "velocity": 0.7874015748031497,
          "duration": 0.136363750000001
        },
        {
          "name": "A3",
          "midi": 57,
          "time": 66.27278250000023,
          "velocity": 0.7874015748031497,
          "duration": 0.136363750000001
        },
        {
          "name": "G3",
          "midi": 55,
          "time": 66.40914625000023,
          "velocity": 0.7874015748031497,
          "duration": 0.136363750000001
        },
        {
          "name": "C3",
          "midi": 48,
          "time": 66.54551000000023,
          "velocity": 0.7874015748031497,
          "duration": 0.136363750000001
        },
        {
          "name": "C4",
          "midi": 60,
          "time": 66.68187375000024,
          "velocity": 0.7874015748031497,
          "duration": 0.136363750000001
        },
        {
          "name": "G3",
          "midi": 55,
          "time": 66.81823750000024,
          "velocity": 0.7874015748031497,
          "duration": 0.136363750000001
        },
        {
          "name": "G3",
          "midi": 55,
          "time": 66.95460125000024,
          "velocity": 0.7874015748031497,
          "duration": 0.136363750000001
        },
        {
          "name": "A#3",
          "midi": 58,
          "time": 67.09096500000024,
          "velocity": 0.7874015748031497,
          "duration": 0.136363750000001
        },
        {
          "name": "G3",
          "midi": 55,
          "time": 67.22732875000024,
          "velocity": 0.7874015748031497,
          "duration": 0.136363750000001
        },
        {
          "name": "A3",
          "midi": 57,
          "time": 67.36369250000024,
          "velocity": 0.7874015748031497,
          "duration": 0.136363750000001
        },
        {
          "name": "G3",
          "midi": 55,
          "time": 67.50005625000024,
          "velocity": 0.7874015748031497,
          "duration": 0.136363750000001
        },
        {
          "name": "C3",
          "midi": 48,
          "time": 67.63642000000024,
          "velocity": 0.7874015748031497,
          "duration": 0.136363750000001
        },
        {
          "name": "C3",
          "midi": 48,
          "time": 67.77278375000024,
          "velocity": 0.7874015748031497,
          "duration": 0.136363750000001
        },
        {
          "name": "C3",
          "midi": 48,
          "time": 67.90914750000024,
          "velocity": 0.7874015748031497,
          "duration": 0.136363750000001
        },
        {
          "name": "G3",
          "midi": 55,
          "time": 68.04551125000025,
          "velocity": 0.7874015748031497,
          "duration": 0.272727500000002
        },
        {
          "name": "G3",
          "midi": 55,
          "time": 68.31823875000025,
          "velocity": 0.7874015748031497,
          "duration": 0.136363750000001
        },
        {
          "name": "A3",
          "midi": 57,
          "time": 68.45460250000025,
          "velocity": 0.7874015748031497,
          "duration": 0.136363750000001
        },
        {
          "name": "G3",
          "midi": 55,
          "time": 68.59096625000025,
          "velocity": 0.7874015748031497,
          "duration": 0.136363750000001
        },
        {
          "name": "C3",
          "midi": 48,
          "time": 68.72733000000025,
          "velocity": 0.7874015748031497,
          "duration": 0.136363750000001
        },
        {
          "name": "C4",
          "midi": 60,
          "time": 68.86369375000025,
          "velocity": 0.7874015748031497,
          "duration": 0.136363750000001
        },
        {
          "name": "G3",
          "midi": 55,
          "time": 69.00005750000025,
          "velocity": 0.7874015748031497,
          "duration": 0.136363750000001
        },
        {
          "name": "G3",
          "midi": 55,
          "time": 69.13642125000025,
          "velocity": 0.7874015748031497,
          "duration": 0.136363750000001
        },
        {
          "name": "A#3",
          "midi": 58,
          "time": 69.27278500000025,
          "velocity": 0.7874015748031497,
          "duration": 0.136363750000001
        },
        {
          "name": "G3",
          "midi": 55,
          "time": 69.40914875000026,
          "velocity": 0.7874015748031497,
          "duration": 0.136363750000001
        },
        {
          "name": "A3",
          "midi": 57,
          "time": 69.54551250000026,
          "velocity": 0.7874015748031497,
          "duration": 0.136363750000001
        },
        {
          "name": "G3",
          "midi": 55,
          "time": 69.68187625000026,
          "velocity": 0.7874015748031497,
          "duration": 0.136363750000001
        },
        {
          "name": "C3",
          "midi": 48,
          "time": 69.81824000000026,
          "velocity": 0.7874015748031497,
          "duration": 0.136363750000001
        },
        {
          "name": "C3",
          "midi": 48,
          "time": 69.95460375000026,
          "velocity": 0.7874015748031497,
          "duration": 0.136363750000001
        },
        {
          "name": "C3",
          "midi": 48,
          "time": 70.09096750000026,
          "velocity": 0.7874015748031497,
          "duration": 0.136363750000001
        },
        {
          "name": "G3",
          "midi": 55,
          "time": 70.22733125000026,
          "velocity": 0.7874015748031497,
          "duration": 0.272727500000002
        },
        {
          "name": "G3",
          "midi": 55,
          "time": 70.50005875000026,
          "velocity": 0.7874015748031497,
          "duration": 0.136363750000001
        },
        {
          "name": "A3",
          "midi": 57,
          "time": 70.63642250000026,
          "velocity": 0.7874015748031497,
          "duration": 0.136363750000001
        },
        {
          "name": "G3",
          "midi": 55,
          "time": 70.77278625000027,
          "velocity": 0.7874015748031497,
          "duration": 0.136363750000001
        },
        {
          "name": "C3",
          "midi": 48,
          "time": 70.90915000000027,
          "velocity": 0.7874015748031497,
          "duration": 0.136363750000001
        },
        {
          "name": "C4",
          "midi": 60,
          "time": 71.04551375000027,
          "velocity": 0.7874015748031497,
          "duration": 0.136363750000001
        },
        {
          "name": "G3",
          "midi": 55,
          "time": 71.18187750000027,
          "velocity": 0.7874015748031497,
          "duration": 0.136363750000001
        },
        {
          "name": "G3",
          "midi": 55,
          "time": 71.31824125000027,
          "velocity": 0.7874015748031497,
          "duration": 0.136363750000001
        },
        {
          "name": "A#3",
          "midi": 58,
          "time": 71.45460500000027,
          "velocity": 0.7874015748031497,
          "duration": 0.136363750000001
        },
        {
          "name": "G3",
          "midi": 55,
          "time": 71.59096875000027,
          "velocity": 0.7874015748031497,
          "duration": 0.136363750000001
        },
        {
          "name": "A3",
          "midi": 57,
          "time": 71.72733250000027,
          "velocity": 0.7874015748031497,
          "duration": 0.136363750000001
        },
        {
          "name": "G3",
          "midi": 55,
          "time": 71.86369625000027,
          "velocity": 0.7874015748031497,
          "duration": 0.136363750000001
        },
        {
          "name": "C3",
          "midi": 48,
          "time": 72.00006000000027,
          "velocity": 0.7874015748031497,
          "duration": 0.136363750000001
        },
        {
          "name": "C3",
          "midi": 48,
          "time": 72.13642375000028,
          "velocity": 0.7874015748031497,
          "duration": 0.136363750000001
        },
        {
          "name": "C3",
          "midi": 48,
          "time": 72.27278750000028,
          "velocity": 0.7874015748031497,
          "duration": 0.136363750000001
        },
        {
          "name": "G3",
          "midi": 55,
          "time": 72.40915125000028,
          "velocity": 0.7874015748031497,
          "duration": 0.272727500000002
        },
        {
          "name": "G3",
          "midi": 55,
          "time": 72.68187875000028,
          "velocity": 0.7874015748031497,
          "duration": 0.136363750000001
        },
        {
          "name": "A3",
          "midi": 57,
          "time": 72.81824250000028,
          "velocity": 0.7874015748031497,
          "duration": 0.136363750000001
        },
        {
          "name": "G3",
          "midi": 55,
          "time": 72.95460625000028,
          "velocity": 0.7874015748031497,
          "duration": 0.136363750000001
        },
        {
          "name": "C3",
          "midi": 48,
          "time": 73.09097000000028,
          "velocity": 0.7874015748031497,
          "duration": 0.136363750000001
        },
        {
          "name": "C4",
          "midi": 60,
          "time": 73.22733375000028,
          "velocity": 0.7874015748031497,
          "duration": 0.136363750000001
        },
        {
          "name": "G3",
          "midi": 55,
          "time": 73.36369750000028,
          "velocity": 0.7874015748031497,
          "duration": 0.136363750000001
        },
        {
          "name": "G3",
          "midi": 55,
          "time": 73.50006125000029,
          "velocity": 0.7874015748031497,
          "duration": 0.136363750000001
        },
        {
          "name": "A#3",
          "midi": 58,
          "time": 73.63642500000029,
          "velocity": 0.7874015748031497,
          "duration": 0.136363750000001
        },
        {
          "name": "G3",
          "midi": 55,
          "time": 73.77278875000029,
          "velocity": 0.7874015748031497,
          "duration": 0.136363750000001
        },
        {
          "name": "A3",
          "midi": 57,
          "time": 73.90915250000029,
          "velocity": 0.7874015748031497,
          "duration": 0.136363750000001
        },
        {
          "name": "G3",
          "midi": 55,
          "time": 74.04551625000029,
          "velocity": 0.7874015748031497,
          "duration": 0.136363750000001
        },
        {
          "name": "A2",
          "midi": 45,
          "time": 74.18188000000029,
          "velocity": 0.7874015748031497,
          "duration": 0.136363750000001
        },
        {
          "name": "A#2",
          "midi": 46,
          "time": 74.31824375000029,
          "velocity": 0.7874015748031497,
          "duration": 0.136363750000001
        },
        {
          "name": "B2",
          "midi": 47,
          "time": 74.4546075000003,
          "velocity": 0.7874015748031497,
          "duration": 0.136363750000001
        },
        {
          "name": "E3",
          "midi": 52,
          "time": 74.5909712500003,
          "velocity": 0.7874015748031497,
          "duration": 0.136363750000001
        },
        {
          "name": "A2",
          "midi": 45,
          "time": 74.8636987500003,
          "velocity": 0.7874015748031497,
          "duration": 0.136363750000001
        },
        {
          "name": "A#2",
          "midi": 46,
          "time": 75.0000625000003,
          "velocity": 0.7874015748031497,
          "duration": 0.136363750000001
        },
        {
          "name": "B2",
          "midi": 47,
          "time": 75.1364262500003,
          "velocity": 0.7874015748031497,
          "duration": 0.136363750000001
        },
        {
          "name": "E3",
          "midi": 52,
          "time": 75.2727900000003,
          "velocity": 0.7874015748031497,
          "duration": 0.272727500000002
        },
        {
          "name": "E2",
          "midi": 40,
          "time": 75.5455175000003,
          "velocity": 0.7874015748031497,
          "duration": 0.272727500000002
        },
        {
          "name": "A2",
          "midi": 45,
          "time": 76.3637000000003,
          "velocity": 0.7874015748031497,
          "duration": 0.136363750000001
        },
        {
          "name": "A#2",
          "midi": 46,
          "time": 76.50006375000031,
          "velocity": 0.7874015748031497,
          "duration": 0.136363750000001
        },
        {
          "name": "B2",
          "midi": 47,
          "time": 76.63642750000031,
          "velocity": 0.7874015748031497,
          "duration": 0.136363750000001
        },
        {
          "name": "E3",
          "midi": 52,
          "time": 76.77279125000031,
          "velocity": 0.7874015748031497,
          "duration": 0.136363750000001
        },
        {
          "name": "A2",
          "midi": 45,
          "time": 77.04551875000031,
          "velocity": 0.7874015748031497,
          "duration": 0.136363750000001
        },
        {
          "name": "A#2",
          "midi": 46,
          "time": 77.18188250000031,
          "velocity": 0.7874015748031497,
          "duration": 0.136363750000001
        },
        {
          "name": "B2",
          "midi": 47,
          "time": 77.31824625000031,
          "velocity": 0.7874015748031497,
          "duration": 0.136363750000001
        },
        {
          "name": "E3",
          "midi": 52,
          "time": 77.45461000000032,
          "velocity": 0.7874015748031497,
          "duration": 0.272727500000002
        },
        {
          "name": "G2",
          "midi": 43,
          "time": 77.72733750000032,
          "velocity": 0.7874015748031497,
          "duration": 0.136363750000001
        },
        {
          "name": "E2",
          "midi": 40,
          "time": 77.86370125000032,
          "velocity": 0.7874015748031497,
          "duration": 0.136363750000001
        },
        {
          "name": "E3",
          "midi": 52,
          "time": 78.00006500000032,
          "velocity": 1,
          "duration": 0.545455000000004
        },
        {
          "name": "A2",
          "midi": 45,
          "time": 78.54552000000032,
          "velocity": 0.7874015748031497,
          "duration": 0.136363750000001
        },
        {
          "name": "A#2",
          "midi": 46,
          "time": 78.68188375000032,
          "velocity": 0.7874015748031497,
          "duration": 0.136363750000001
        },
        {
          "name": "B2",
          "midi": 47,
          "time": 78.81824750000033,
          "velocity": 0.7874015748031497,
          "duration": 0.136363750000001
        },
        {
          "name": "E3",
          "midi": 52,
          "time": 78.95461125000033,
          "velocity": 0.7874015748031497,
          "duration": 0.136363750000001
        },
        {
          "name": "A2",
          "midi": 45,
          "time": 79.22733875000033,
          "velocity": 0.7874015748031497,
          "duration": 0.136363750000001
        },
        {
          "name": "A#2",
          "midi": 46,
          "time": 79.36370250000033,
          "velocity": 0.7874015748031497,
          "duration": 0.136363750000001
        },
        {
          "name": "B2",
          "midi": 47,
          "time": 79.50006625000033,
          "velocity": 0.7874015748031497,
          "duration": 0.136363750000001
        },
        {
          "name": "E3",
          "midi": 52,
          "time": 79.63643000000033,
          "velocity": 0.7874015748031497,
          "duration": 0.272727500000002
        },
        {
          "name": "E2",
          "midi": 40,
          "time": 79.90915750000033,
          "velocity": 0.7874015748031497,
          "duration": 0.272727500000002
        },
        {
          "name": "A2",
          "midi": 45,
          "time": 80.72734000000034,
          "velocity": 0.7874015748031497,
          "duration": 0.136363750000001
        },
        {
          "name": "A#2",
          "midi": 46,
          "time": 80.86370375000034,
          "velocity": 0.7874015748031497,
          "duration": 0.136363750000001
        },
        {
          "name": "B2",
          "midi": 47,
          "time": 81.00006750000034,
          "velocity": 0.7874015748031497,
          "duration": 0.136363750000001
        },
        {
          "name": "E3",
          "midi": 52,
          "time": 81.13643125000034,
          "velocity": 0.7874015748031497,
          "duration": 0.136363750000001
        },
        {
          "name": "A2",
          "midi": 45,
          "time": 81.40915875000034,
          "velocity": 0.7874015748031497,
          "duration": 0.136363750000001
        },
        {
          "name": "A#2",
          "midi": 46,
          "time": 81.54552250000035,
          "velocity": 0.7874015748031497,
          "duration": 0.136363750000001
        },
        {
          "name": "B2",
          "midi": 47,
          "time": 81.68188625000035,
          "velocity": 0.7874015748031497,
          "duration": 0.136363750000001
        },
        {
          "name": "E3",
          "midi": 52,
          "time": 81.81825000000035,
          "velocity": 0.7874015748031497,
          "duration": 0.272727500000002
        },
        {
          "name": "A3",
          "midi": 57,
          "time": 82.09097750000035,
          "velocity": 0.7874015748031497,
          "duration": 1.090910000000008
        },
        {
          "name": "E3",
          "midi": 52,
          "time": 82.09097750000035,
          "velocity": 0.7874015748031497,
          "duration": 1.090910000000008
        },
        {
          "name": "A2",
          "midi": 45,
          "time": 82.09097750000035,
          "velocity": 0.7874015748031497,
          "duration": 1.090910000000008
        },
        {
          "name": "C3",
          "midi": 48,
          "time": 82.90916000000036,
          "velocity": 0.7874015748031497,
          "duration": 0.136363750000001
        },
        {
          "name": "C3",
          "midi": 48,
          "time": 83.04552375000036,
          "velocity": 0.7874015748031497,
          "duration": 0.136363750000001
        },
        {
          "name": "C3",
          "midi": 48,
          "time": 83.18188750000036,
          "velocity": 0.7874015748031497,
          "duration": 0.136363750000001
        },
        {
          "name": "G3",
          "midi": 55,
          "time": 83.31825125000036,
          "velocity": 0.7874015748031497,
          "duration": 0.272727500000002
        },
        {
          "name": "G3",
          "midi": 55,
          "time": 83.59097875000036,
          "velocity": 0.7874015748031497,
          "duration": 0.136363750000001
        },
        {
          "name": "A3",
          "midi": 57,
          "time": 83.72734250000036,
          "velocity": 0.7874015748031497,
          "duration": 0.136363750000001
        },
        {
          "name": "G3",
          "midi": 55,
          "time": 83.86370625000036,
          "velocity": 0.7874015748031497,
          "duration": 0.136363750000001
        },
        {
          "name": "C3",
          "midi": 48,
          "time": 84.00007000000036,
          "velocity": 0.7874015748031497,
          "duration": 0.136363750000001
        },
        {
          "name": "C4",
          "midi": 60,
          "time": 84.13643375000036,
          "velocity": 0.7874015748031497,
          "duration": 0.136363750000001
        },
        {
          "name": "G3",
          "midi": 55,
          "time": 84.27279750000037,
          "velocity": 0.7874015748031497,
          "duration": 0.136363750000001
        },
        {
          "name": "G3",
          "midi": 55,
          "time": 84.40916125000037,
          "velocity": 0.7874015748031497,
          "duration": 0.136363750000001
        },
        {
          "name": "A#3",
          "midi": 58,
          "time": 84.54552500000037,
          "velocity": 0.7874015748031497,
          "duration": 0.136363750000001
        },
        {
          "name": "G3",
          "midi": 55,
          "time": 84.68188875000037,
          "velocity": 0.7874015748031497,
          "duration": 0.136363750000001
        },
        {
          "name": "A3",
          "midi": 57,
          "time": 84.81825250000037,
          "velocity": 0.7874015748031497,
          "duration": 0.136363750000001
        },
        {
          "name": "G3",
          "midi": 55,
          "time": 84.95461625000037,
          "velocity": 0.7874015748031497,
          "duration": 0.136363750000001
        },
        {
          "name": "C3",
          "midi": 48,
          "time": 85.09098000000037,
          "velocity": 0.7874015748031497,
          "duration": 0.136363750000001
        },
        {
          "name": "C3",
          "midi": 48,
          "time": 85.22734375000037,
          "velocity": 0.7874015748031497,
          "duration": 0.136363750000001
        },
        {
          "name": "C3",
          "midi": 48,
          "time": 85.36370750000037,
          "velocity": 0.7874015748031497,
          "duration": 0.136363750000001
        },
        {
          "name": "G3",
          "midi": 55,
          "time": 85.50007125000037,
          "velocity": 0.7874015748031497,
          "duration": 0.272727500000002
        },
        {
          "name": "G3",
          "midi": 55,
          "time": 85.77279875000038,
          "velocity": 0.7874015748031497,
          "duration": 0.136363750000001
        },
        {
          "name": "A3",
          "midi": 57,
          "time": 85.90916250000038,
          "velocity": 0.7874015748031497,
          "duration": 0.136363750000001
        },
        {
          "name": "G3",
          "midi": 55,
          "time": 86.04552625000038,
          "velocity": 0.7874015748031497,
          "duration": 0.136363750000001
        },
        {
          "name": "C3",
          "midi": 48,
          "time": 86.18189000000038,
          "velocity": 0.7874015748031497,
          "duration": 0.136363750000001
        },
        {
          "name": "C4",
          "midi": 60,
          "time": 86.31825375000038,
          "velocity": 0.7874015748031497,
          "duration": 0.136363750000001
        },
        {
          "name": "G3",
          "midi": 55,
          "time": 86.45461750000038,
          "velocity": 0.7874015748031497,
          "duration": 0.136363750000001
        },
        {
          "name": "G3",
          "midi": 55,
          "time": 86.59098125000038,
          "velocity": 0.7874015748031497,
          "duration": 0.136363750000001
        },
        {
          "name": "A#3",
          "midi": 58,
          "time": 86.72734500000038,
          "velocity": 0.7874015748031497,
          "duration": 0.136363750000001
        },
        {
          "name": "G3",
          "midi": 55,
          "time": 86.86370875000038,
          "velocity": 0.7874015748031497,
          "duration": 0.136363750000001
        },
        {
          "name": "A3",
          "midi": 57,
          "time": 87.00007250000039,
          "velocity": 0.7874015748031497,
          "duration": 0.136363750000001
        },
        {
          "name": "G3",
          "midi": 55,
          "time": 87.13643625000039,
          "velocity": 0.7874015748031497,
          "duration": 0.136363750000001
        },
        {
          "name": "C3",
          "midi": 48,
          "time": 87.27280000000039,
          "velocity": 0.7874015748031497,
          "duration": 0.136363750000001
        },
        {
          "name": "C3",
          "midi": 48,
          "time": 87.40916375000039,
          "velocity": 0.7874015748031497,
          "duration": 0.136363750000001
        },
        {
          "name": "C3",
          "midi": 48,
          "time": 87.54552750000039,
          "velocity": 0.7874015748031497,
          "duration": 0.136363750000001
        },
        {
          "name": "G3",
          "midi": 55,
          "time": 87.68189125000039,
          "velocity": 0.7874015748031497,
          "duration": 0.272727500000002
        },
        {
          "name": "G3",
          "midi": 55,
          "time": 87.95461875000039,
          "velocity": 0.7874015748031497,
          "duration": 0.136363750000001
        },
        {
          "name": "A3",
          "midi": 57,
          "time": 88.0909825000004,
          "velocity": 0.7874015748031497,
          "duration": 0.136363750000001
        },
        {
          "name": "G3",
          "midi": 55,
          "time": 88.2273462500004,
          "velocity": 0.7874015748031497,
          "duration": 0.136363750000001
        },
        {
          "name": "C3",
          "midi": 48,
          "time": 88.3637100000004,
          "velocity": 0.7874015748031497,
          "duration": 0.136363750000001
        },
        {
          "name": "C4",
          "midi": 60,
          "time": 88.5000737500004,
          "velocity": 0.7874015748031497,
          "duration": 0.136363750000001
        },
        {
          "name": "G3",
          "midi": 55,
          "time": 88.6364375000004,
          "velocity": 0.7874015748031497,
          "duration": 0.136363750000001
        },
        {
          "name": "G3",
          "midi": 55,
          "time": 88.7728012500004,
          "velocity": 0.7874015748031497,
          "duration": 0.136363750000001
        },
        {
          "name": "A#3",
          "midi": 58,
          "time": 88.9091650000004,
          "velocity": 0.7874015748031497,
          "duration": 0.136363750000001
        },
        {
          "name": "G3",
          "midi": 55,
          "time": 89.0455287500004,
          "velocity": 0.7874015748031497,
          "duration": 0.136363750000001
        },
        {
          "name": "A3",
          "midi": 57,
          "time": 89.1818925000004,
          "velocity": 0.7874015748031497,
          "duration": 0.136363750000001
        },
        {
          "name": "G3",
          "midi": 55,
          "time": 89.3182562500004,
          "velocity": 0.7874015748031497,
          "duration": 0.136363750000001
        },
        {
          "name": "C3",
          "midi": 48,
          "time": 89.4546200000004,
          "velocity": 0.7874015748031497,
          "duration": 0.136363750000001
        },
        {
          "name": "C3",
          "midi": 48,
          "time": 89.5909837500004,
          "velocity": 0.7874015748031497,
          "duration": 0.136363750000001
        },
        {
          "name": "C3",
          "midi": 48,
          "time": 89.7273475000004,
          "velocity": 0.7874015748031497,
          "duration": 0.136363750000001
        },
        {
          "name": "G3",
          "midi": 55,
          "time": 89.8637112500004,
          "velocity": 0.7874015748031497,
          "duration": 0.272727500000002
        },
        {
          "name": "G3",
          "midi": 55,
          "time": 90.13643875000041,
          "velocity": 0.7874015748031497,
          "duration": 0.136363750000001
        },
        {
          "name": "A3",
          "midi": 57,
          "time": 90.27280250000041,
          "velocity": 0.7874015748031497,
          "duration": 0.136363750000001
        },
        {
          "name": "G3",
          "midi": 55,
          "time": 90.40916625000041,
          "velocity": 0.7874015748031497,
          "duration": 0.136363750000001
        },
        {
          "name": "C3",
          "midi": 48,
          "time": 90.54553000000041,
          "velocity": 0.7874015748031497,
          "duration": 0.136363750000001
        },
        {
          "name": "C4",
          "midi": 60,
          "time": 90.68189375000041,
          "velocity": 0.7874015748031497,
          "duration": 0.136363750000001
        },
        {
          "name": "G3",
          "midi": 55,
          "time": 90.81825750000041,
          "velocity": 0.7874015748031497,
          "duration": 0.136363750000001
        },
        {
          "name": "G3",
          "midi": 55,
          "time": 90.95462125000041,
          "velocity": 0.7874015748031497,
          "duration": 0.136363750000001
        },
        {
          "name": "A#3",
          "midi": 58,
          "time": 91.09098500000042,
          "velocity": 0.7874015748031497,
          "duration": 0.136363750000001
        },
        {
          "name": "G3",
          "midi": 55,
          "time": 91.22734875000042,
          "velocity": 0.7874015748031497,
          "duration": 0.136363750000001
        },
        {
          "name": "A3",
          "midi": 57,
          "time": 91.36371250000042,
          "velocity": 0.7874015748031497,
          "duration": 0.136363750000001
        },
        {
          "name": "G3",
          "midi": 55,
          "time": 91.50007625000042,
          "velocity": 0.7874015748031497,
          "duration": 0.136363750000001
        },
        {
          "name": "C3",
          "midi": 48,
          "time": 91.63644000000042,
          "velocity": 0.7874015748031497,
          "duration": 0.136363750000001
        },
        {
          "name": "C3",
          "midi": 48,
          "time": 91.77280375000042,
          "velocity": 0.7874015748031497,
          "duration": 0.136363750000001
        },
        {
          "name": "C3",
          "midi": 48,
          "time": 91.90916750000042,
          "velocity": 0.7874015748031497,
          "duration": 0.136363750000001
        },
        {
          "name": "G3",
          "midi": 55,
          "time": 92.04553125000042,
          "velocity": 0.7874015748031497,
          "duration": 0.272727500000002
        },
        {
          "name": "G3",
          "midi": 55,
          "time": 92.31825875000042,
          "velocity": 0.7874015748031497,
          "duration": 0.136363750000001
        },
        {
          "name": "A3",
          "midi": 57,
          "time": 92.45462250000043,
          "velocity": 0.7874015748031497,
          "duration": 0.136363750000001
        },
        {
          "name": "G3",
          "midi": 55,
          "time": 92.59098625000043,
          "velocity": 0.7874015748031497,
          "duration": 0.136363750000001
        },
        {
          "name": "C3",
          "midi": 48,
          "time": 92.72735000000043,
          "velocity": 0.7874015748031497,
          "duration": 0.136363750000001
        },
        {
          "name": "C4",
          "midi": 60,
          "time": 92.86371375000043,
          "velocity": 0.7874015748031497,
          "duration": 0.136363750000001
        },
        {
          "name": "G3",
          "midi": 55,
          "time": 93.00007750000043,
          "velocity": 0.7874015748031497,
          "duration": 0.136363750000001
        },
        {
          "name": "G3",
          "midi": 55,
          "time": 93.13644125000043,
          "velocity": 0.7874015748031497,
          "duration": 0.136363750000001
        },
        {
          "name": "A#3",
          "midi": 58,
          "time": 93.27280500000043,
          "velocity": 0.7874015748031497,
          "duration": 0.136363750000001
        },
        {
          "name": "G3",
          "midi": 55,
          "time": 93.40916875000043,
          "velocity": 0.7874015748031497,
          "duration": 0.136363750000001
        },
        {
          "name": "A3",
          "midi": 57,
          "time": 93.54553250000043,
          "velocity": 0.7874015748031497,
          "duration": 0.136363750000001
        },
        {
          "name": "G3",
          "midi": 55,
          "time": 93.68189625000043,
          "velocity": 0.7874015748031497,
          "duration": 0.136363750000001
        },
        {
          "name": "C3",
          "midi": 48,
          "time": 93.81826000000044,
          "velocity": 0.7874015748031497,
          "duration": 0.136363750000001
        },
        {
          "name": "C3",
          "midi": 48,
          "time": 93.95462375000044,
          "velocity": 0.7874015748031497,
          "duration": 0.136363750000001
        },
        {
          "name": "C3",
          "midi": 48,
          "time": 94.09098750000044,
          "velocity": 0.7874015748031497,
          "duration": 0.136363750000001
        },
        {
          "name": "G3",
          "midi": 55,
          "time": 94.22735125000044,
          "velocity": 0.7874015748031497,
          "duration": 0.272727500000002
        },
        {
          "name": "G3",
          "midi": 55,
          "time": 94.50007875000044,
          "velocity": 0.7874015748031497,
          "duration": 0.136363750000001
        },
        {
          "name": "A3",
          "midi": 57,
          "time": 94.63644250000044,
          "velocity": 0.7874015748031497,
          "duration": 0.136363750000001
        },
        {
          "name": "G3",
          "midi": 55,
          "time": 94.77280625000044,
          "velocity": 0.7874015748031497,
          "duration": 0.136363750000001
        },
        {
          "name": "C3",
          "midi": 48,
          "time": 94.90917000000044,
          "velocity": 0.7874015748031497,
          "duration": 0.136363750000001
        },
        {
          "name": "C4",
          "midi": 60,
          "time": 95.04553375000044,
          "velocity": 0.7874015748031497,
          "duration": 0.136363750000001
        },
        {
          "name": "G3",
          "midi": 55,
          "time": 95.18189750000045,
          "velocity": 0.7874015748031497,
          "duration": 0.136363750000001
        },
        {
          "name": "G3",
          "midi": 55,
          "time": 95.31826125000045,
          "velocity": 0.7874015748031497,
          "duration": 0.136363750000001
        },
        {
          "name": "A#3",
          "midi": 58,
          "time": 95.45462500000045,
          "velocity": 0.7874015748031497,
          "duration": 0.136363750000001
        },
        {
          "name": "G3",
          "midi": 55,
          "time": 95.59098875000045,
          "velocity": 0.7874015748031497,
          "duration": 0.136363750000001
        },
        {
          "name": "A3",
          "midi": 57,
          "time": 95.72735250000045,
          "velocity": 0.7874015748031497,
          "duration": 0.136363750000001
        },
        {
          "name": "G3",
          "midi": 55,
          "time": 95.86371625000045,
          "velocity": 0.7874015748031497,
          "duration": 0.136363750000001
        },
        {
          "name": "C3",
          "midi": 48,
          "time": 96.00008000000045,
          "velocity": 0.7874015748031497,
          "duration": 0.136363750000001
        },
        {
          "name": "C3",
          "midi": 48,
          "time": 96.13644375000045,
          "velocity": 0.7874015748031497,
          "duration": 0.136363750000001
        },
        {
          "name": "C3",
          "midi": 48,
          "time": 96.27280750000045,
          "velocity": 0.7874015748031497,
          "duration": 0.136363750000001
        },
        {
          "name": "G3",
          "midi": 55,
          "time": 96.40917125000045,
          "velocity": 0.7874015748031497,
          "duration": 0.272727500000002
        },
        {
          "name": "G3",
          "midi": 55,
          "time": 96.68189875000046,
          "velocity": 0.7874015748031497,
          "duration": 0.136363750000001
        },
        {
          "name": "A3",
          "midi": 57,
          "time": 96.81826250000046,
          "velocity": 0.7874015748031497,
          "duration": 0.136363750000001
        },
        {
          "name": "G3",
          "midi": 55,
          "time": 96.95462625000046,
          "velocity": 0.7874015748031497,
          "duration": 0.136363750000001
        },
        {
          "name": "C3",
          "midi": 48,
          "time": 97.09099000000046,
          "velocity": 0.7874015748031497,
          "duration": 0.136363750000001
        },
        {
          "name": "C4",
          "midi": 60,
          "time": 97.22735375000046,
          "velocity": 0.7874015748031497,
          "duration": 0.136363750000001
        },
        {
          "name": "G3",
          "midi": 55,
          "time": 97.36371750000046,
          "velocity": 0.7874015748031497,
          "duration": 0.136363750000001
        },
        {
          "name": "G3",
          "midi": 55,
          "time": 97.50008125000046,
          "velocity": 0.7874015748031497,
          "duration": 0.136363750000001
        },
        {
          "name": "A#3",
          "midi": 58,
          "time": 97.63644500000046,
          "velocity": 0.7874015748031497,
          "duration": 0.136363750000001
        },
        {
          "name": "G3",
          "midi": 55,
          "time": 97.77280875000046,
          "velocity": 0.7874015748031497,
          "duration": 0.136363750000001
        },
        {
          "name": "A3",
          "midi": 57,
          "time": 97.90917250000047,
          "velocity": 0.7874015748031497,
          "duration": 0.136363750000001
        },
        {
          "name": "G3",
          "midi": 55,
          "time": 98.04553625000047,
          "velocity": 0.7874015748031497,
          "duration": 0.136363750000001
        },
        {
          "name": "C3",
          "midi": 48,
          "time": 98.18190000000047,
          "velocity": 0.7874015748031497,
          "duration": 0.136363750000001
        },
        {
          "name": "C3",
          "midi": 48,
          "time": 98.31826375000047,
          "velocity": 0.7874015748031497,
          "duration": 0.136363750000001
        },
        {
          "name": "C3",
          "midi": 48,
          "time": 98.45462750000047,
          "velocity": 0.7874015748031497,
          "duration": 0.136363750000001
        },
        {
          "name": "G3",
          "midi": 55,
          "time": 98.59099125000047,
          "velocity": 0.7874015748031497,
          "duration": 0.272727500000002
        },
        {
          "name": "G3",
          "midi": 55,
          "time": 98.86371875000047,
          "velocity": 0.7874015748031497,
          "duration": 0.136363750000001
        },
        {
          "name": "A3",
          "midi": 57,
          "time": 99.00008250000047,
          "velocity": 0.7874015748031497,
          "duration": 0.136363750000001
        },
        {
          "name": "G3",
          "midi": 55,
          "time": 99.13644625000047,
          "velocity": 0.7874015748031497,
          "duration": 0.136363750000001
        },
        {
          "name": "C3",
          "midi": 48,
          "time": 99.27281000000048,
          "velocity": 0.7874015748031497,
          "duration": 0.136363750000001
        },
        {
          "name": "C4",
          "midi": 60,
          "time": 99.40917375000048,
          "velocity": 0.7874015748031497,
          "duration": 0.136363750000001
        },
        {
          "name": "G3",
          "midi": 55,
          "time": 99.54553750000048,
          "velocity": 0.7874015748031497,
          "duration": 0.136363750000001
        },
        {
          "name": "G3",
          "midi": 55,
          "time": 99.68190125000048,
          "velocity": 0.7874015748031497,
          "duration": 0.136363750000001
        },
        {
          "name": "A3",
          "midi": 57,
          "time": 99.81826500000048,
          "velocity": 0.7874015748031497,
          "duration": 0.545455000000004
        },
        {
          "name": "E3",
          "midi": 52,
          "time": 99.81826500000048,
          "velocity": 0.7874015748031497,
          "duration": 0.545455000000004
        },
        {
          "name": "A2",
          "midi": 45,
          "time": 99.81826500000048,
          "velocity": 0.7874015748031497,
          "duration": 0.545455000000004
        },
        {
          "name": "A2",
          "midi": 45,
          "time": 100.36372000000048,
          "velocity": 0.7874015748031497,
          "duration": 0.136363750000001
        },
        {
          "name": "A#2",
          "midi": 46,
          "time": 100.50008375000048,
          "velocity": 0.7874015748031497,
          "duration": 0.136363750000001
        },
        {
          "name": "B2",
          "midi": 47,
          "time": 100.63644750000049,
          "velocity": 0.7874015748031497,
          "duration": 0.136363750000001
        },
        {
          "name": "E3",
          "midi": 52,
          "time": 100.77281125000049,
          "velocity": 0.7874015748031497,
          "duration": 0.136363750000001
        },
        {
          "name": "A2",
          "midi": 45,
          "time": 101.04553875000049,
          "velocity": 0.7874015748031497,
          "duration": 0.136363750000001
        },
        {
          "name": "A#2",
          "midi": 46,
          "time": 101.18190250000049,
          "velocity": 0.7874015748031497,
          "duration": 0.136363750000001
        },
        {
          "name": "B2",
          "midi": 47,
          "time": 101.31826625000049,
          "velocity": 0.7874015748031497,
          "duration": 0.136363750000001
        },
        {
          "name": "E3",
          "midi": 52,
          "time": 101.45463000000049,
          "velocity": 0.7874015748031497,
          "duration": 0.272727500000002
        },
        {
          "name": "E2",
          "midi": 40,
          "time": 101.7273575000005,
          "velocity": 0.7874015748031497,
          "duration": 0.272727500000002
        },
        {
          "name": "A2",
          "midi": 45,
          "time": 102.5455400000005,
          "velocity": 0.7874015748031497,
          "duration": 0.136363750000001
        },
        {
          "name": "A#2",
          "midi": 46,
          "time": 102.6819037500005,
          "velocity": 0.7874015748031497,
          "duration": 0.136363750000001
        },
        {
          "name": "B2",
          "midi": 47,
          "time": 102.8182675000005,
          "velocity": 0.7874015748031497,
          "duration": 0.136363750000001
        },
        {
          "name": "E3",
          "midi": 52,
          "time": 102.9546312500005,
          "velocity": 0.7874015748031497,
          "duration": 0.136363750000001
        },
        {
          "name": "A2",
          "midi": 45,
          "time": 103.2273587500005,
          "velocity": 0.7874015748031497,
          "duration": 0.136363750000001
        },
        {
          "name": "A#2",
          "midi": 46,
          "time": 103.3637225000005,
          "velocity": 0.7874015748031497,
          "duration": 0.136363750000001
        },
        {
          "name": "B2",
          "midi": 47,
          "time": 103.5000862500005,
          "velocity": 0.7874015748031497,
          "duration": 0.136363750000001
        },
        {
          "name": "E3",
          "midi": 52,
          "time": 103.63645000000051,
          "velocity": 0.7874015748031497,
          "duration": 0.272727500000002
        },
        {
          "name": "G2",
          "midi": 43,
          "time": 103.90917750000051,
          "velocity": 0.7874015748031497,
          "duration": 0.136363750000001
        },
        {
          "name": "E2",
          "midi": 40,
          "time": 104.04554125000051,
          "velocity": 0.7874015748031497,
          "duration": 0.136363750000001
        },
        {
          "name": "E3",
          "midi": 52,
          "time": 104.18190500000051,
          "velocity": 1,
          "duration": 0.545455000000004
        },
        {
          "name": "A2",
          "midi": 45,
          "time": 104.72736000000052,
          "velocity": 0.7874015748031497,
          "duration": 0.136363750000001
        },
        {
          "name": "A#2",
          "midi": 46,
          "time": 104.86372375000052,
          "velocity": 0.7874015748031497,
          "duration": 0.136363750000001
        },
        {
          "name": "B2",
          "midi": 47,
          "time": 105.00008750000052,
          "velocity": 0.7874015748031497,
          "duration": 0.136363750000001
        },
        {
          "name": "E3",
          "midi": 52,
          "time": 105.13645125000052,
          "velocity": 0.7874015748031497,
          "duration": 0.136363750000001
        },
        {
          "name": "A2",
          "midi": 45,
          "time": 105.40917875000052,
          "velocity": 0.7874015748031497,
          "duration": 0.136363750000001
        },
        {
          "name": "A#2",
          "midi": 46,
          "time": 105.54554250000052,
          "velocity": 0.7874015748031497,
          "duration": 0.136363750000001
        },
        {
          "name": "B2",
          "midi": 47,
          "time": 105.68190625000052,
          "velocity": 0.7874015748031497,
          "duration": 0.136363750000001
        },
        {
          "name": "E3",
          "midi": 52,
          "time": 105.81827000000052,
          "velocity": 0.7874015748031497,
          "duration": 0.272727500000002
        },
        {
          "name": "E2",
          "midi": 40,
          "time": 106.09099750000053,
          "velocity": 0.7874015748031497,
          "duration": 0.272727500000002
        },
        {
          "name": "A2",
          "midi": 45,
          "time": 106.90918000000053,
          "velocity": 0.7874015748031497,
          "duration": 0.136363750000001
        },
        {
          "name": "A#2",
          "midi": 46,
          "time": 107.04554375000053,
          "velocity": 0.7874015748031497,
          "duration": 0.136363750000001
        },
        {
          "name": "B2",
          "midi": 47,
          "time": 107.18190750000053,
          "velocity": 0.7874015748031497,
          "duration": 0.136363750000001
        },
        {
          "name": "E3",
          "midi": 52,
          "time": 107.31827125000054,
          "velocity": 0.7874015748031497,
          "duration": 0.136363750000001
        },
        {
          "name": "A2",
          "midi": 45,
          "time": 107.59099875000054,
          "velocity": 0.7874015748031497,
          "duration": 0.136363750000001
        },
        {
          "name": "A#2",
          "midi": 46,
          "time": 107.72736250000054,
          "velocity": 0.7874015748031497,
          "duration": 0.136363750000001
        },
        {
          "name": "B2",
          "midi": 47,
          "time": 107.86372625000054,
          "velocity": 0.7874015748031497,
          "duration": 0.136363750000001
        },
        {
          "name": "E3",
          "midi": 52,
          "time": 108.00009000000054,
          "velocity": 0.7874015748031497,
          "duration": 0.272727500000002
        },
        {
          "name": "A3",
          "midi": 57,
          "time": 108.27281750000054,
          "velocity": 0.7874015748031497,
          "duration": 1.090910000000008
        },
        {
          "name": "E3",
          "midi": 52,
          "time": 108.27281750000054,
          "velocity": 0.7874015748031497,
          "duration": 1.090910000000008
        },
        {
          "name": "A2",
          "midi": 45,
          "time": 108.27281750000054,
          "velocity": 0.7874015748031497,
          "duration": 1.090910000000008
        },
        {
          "name": "C3",
          "midi": 48,
          "time": 109.09100000000055,
          "velocity": 0.7874015748031497,
          "duration": 0.136363750000001
        },
        {
          "name": "C3",
          "midi": 48,
          "time": 109.22736375000055,
          "velocity": 0.7874015748031497,
          "duration": 0.136363750000001
        },
        {
          "name": "C3",
          "midi": 48,
          "time": 109.36372750000055,
          "velocity": 0.7874015748031497,
          "duration": 0.136363750000001
        },
        {
          "name": "G3",
          "midi": 55,
          "time": 109.50009125000055,
          "velocity": 0.7874015748031497,
          "duration": 0.272727500000002
        },
        {
          "name": "G3",
          "midi": 55,
          "time": 109.77281875000055,
          "velocity": 0.7874015748031497,
          "duration": 0.136363750000001
        },
        {
          "name": "A3",
          "midi": 57,
          "time": 109.90918250000055,
          "velocity": 0.7874015748031497,
          "duration": 0.136363750000001
        },
        {
          "name": "G3",
          "midi": 55,
          "time": 110.04554625000056,
          "velocity": 0.7874015748031497,
          "duration": 0.136363750000001
        },
        {
          "name": "C3",
          "midi": 48,
          "time": 110.18191000000056,
          "velocity": 0.7874015748031497,
          "duration": 0.136363750000001
        },
        {
          "name": "C4",
          "midi": 60,
          "time": 110.31827375000056,
          "velocity": 0.7874015748031497,
          "duration": 0.136363750000001
        },
        {
          "name": "G3",
          "midi": 55,
          "time": 110.45463750000056,
          "velocity": 0.7874015748031497,
          "duration": 0.136363750000001
        },
        {
          "name": "G3",
          "midi": 55,
          "time": 110.59100125000056,
          "velocity": 0.7874015748031497,
          "duration": 0.136363750000001
        },
        {
          "name": "A#3",
          "midi": 58,
          "time": 110.72736500000056,
          "velocity": 0.7874015748031497,
          "duration": 0.136363750000001
        },
        {
          "name": "G3",
          "midi": 55,
          "time": 110.86372875000056,
          "velocity": 0.7874015748031497,
          "duration": 0.136363750000001
        },
        {
          "name": "A3",
          "midi": 57,
          "time": 111.00009250000056,
          "velocity": 0.7874015748031497,
          "duration": 0.136363750000001
        },
        {
          "name": "G3",
          "midi": 55,
          "time": 111.13645625000056,
          "velocity": 0.7874015748031497,
          "duration": 0.136363750000001
        },
        {
          "name": "C3",
          "midi": 48,
          "time": 111.27282000000056,
          "velocity": 0.7874015748031497,
          "duration": 0.136363750000001
        },
        {
          "name": "C3",
          "midi": 48,
          "time": 111.40918375000057,
          "velocity": 0.7874015748031497,
          "duration": 0.136363750000001
        },
        {
          "name": "C3",
          "midi": 48,
          "time": 111.54554750000057,
          "velocity": 0.7874015748031497,
          "duration": 0.136363750000001
        },
        {
          "name": "G3",
          "midi": 55,
          "time": 111.68191125000057,
          "velocity": 0.7874015748031497,
          "duration": 0.272727500000002
        },
        {
          "name": "G3",
          "midi": 55,
          "time": 111.95463875000057,
          "velocity": 0.7874015748031497,
          "duration": 0.136363750000001
        },
        {
          "name": "A3",
          "midi": 57,
          "time": 112.09100250000057,
          "velocity": 0.7874015748031497,
          "duration": 0.136363750000001
        },
        {
          "name": "G3",
          "midi": 55,
          "time": 112.22736625000057,
          "velocity": 0.7874015748031497,
          "duration": 0.136363750000001
        },
        {
          "name": "C3",
          "midi": 48,
          "time": 112.36373000000057,
          "velocity": 0.7874015748031497,
          "duration": 0.136363750000001
        },
        {
          "name": "C4",
          "midi": 60,
          "time": 112.50009375000057,
          "velocity": 0.7874015748031497,
          "duration": 0.136363750000001
        },
        {
          "name": "G3",
          "midi": 55,
          "time": 112.63645750000057,
          "velocity": 0.7874015748031497,
          "duration": 0.136363750000001
        },
        {
          "name": "G3",
          "midi": 55,
          "time": 112.77282125000058,
          "velocity": 0.7874015748031497,
          "duration": 0.136363750000001
        },
        {
          "name": "A#3",
          "midi": 58,
          "time": 112.90918500000058,
          "velocity": 0.7874015748031497,
          "duration": 0.136363750000001
        },
        {
          "name": "G3",
          "midi": 55,
          "time": 113.04554875000058,
          "velocity": 0.7874015748031497,
          "duration": 0.136363750000001
        },
        {
          "name": "A3",
          "midi": 57,
          "time": 113.18191250000058,
          "velocity": 0.7874015748031497,
          "duration": 0.136363750000001
        },
        {
          "name": "G3",
          "midi": 55,
          "time": 113.31827625000058,
          "velocity": 0.7874015748031497,
          "duration": 0.136363750000001
        },
        {
          "name": "C3",
          "midi": 48,
          "time": 113.45464000000058,
          "velocity": 0.7874015748031497,
          "duration": 0.136363750000001
        },
        {
          "name": "C3",
          "midi": 48,
          "time": 113.59100375000058,
          "velocity": 0.7874015748031497,
          "duration": 0.136363750000001
        },
        {
          "name": "C3",
          "midi": 48,
          "time": 113.72736750000058,
          "velocity": 0.7874015748031497,
          "duration": 0.136363750000001
        },
        {
          "name": "G3",
          "midi": 55,
          "time": 113.86373125000058,
          "velocity": 0.7874015748031497,
          "duration": 0.272727500000002
        },
        {
          "name": "G3",
          "midi": 55,
          "time": 114.13645875000059,
          "velocity": 0.7874015748031497,
          "duration": 0.136363750000001
        },
        {
          "name": "A3",
          "midi": 57,
          "time": 114.27282250000059,
          "velocity": 0.7874015748031497,
          "duration": 0.136363750000001
        },
        {
          "name": "G3",
          "midi": 55,
          "time": 114.40918625000059,
          "velocity": 0.7874015748031497,
          "duration": 0.136363750000001
        },
        {
          "name": "C3",
          "midi": 48,
          "time": 114.54555000000059,
          "velocity": 0.7874015748031497,
          "duration": 0.136363750000001
        },
        {
          "name": "C4",
          "midi": 60,
          "time": 114.68191375000059,
          "velocity": 0.7874015748031497,
          "duration": 0.136363750000001
        },
        {
          "name": "G3",
          "midi": 55,
          "time": 114.81827750000059,
          "velocity": 0.7874015748031497,
          "duration": 0.136363750000001
        },
        {
          "name": "G3",
          "midi": 55,
          "time": 114.95464125000059,
          "velocity": 0.7874015748031497,
          "duration": 0.136363750000001
        },
        {
          "name": "A#3",
          "midi": 58,
          "time": 115.09100500000059,
          "velocity": 0.7874015748031497,
          "duration": 0.136363750000001
        },
        {
          "name": "G3",
          "midi": 55,
          "time": 115.2273687500006,
          "velocity": 0.7874015748031497,
          "duration": 0.136363750000001
        },
        {
          "name": "A3",
          "midi": 57,
          "time": 115.3637325000006,
          "velocity": 0.7874015748031497,
          "duration": 0.136363750000001
        },
        {
          "name": "G3",
          "midi": 55,
          "time": 115.5000962500006,
          "velocity": 0.7874015748031497,
          "duration": 0.136363750000001
        },
        {
          "name": "C3",
          "midi": 48,
          "time": 115.6364600000006,
          "velocity": 0.7874015748031497,
          "duration": 0.136363750000001
        },
        {
          "name": "C3",
          "midi": 48,
          "time": 115.7728237500006,
          "velocity": 0.7874015748031497,
          "duration": 0.136363750000001
        },
        {
          "name": "C3",
          "midi": 48,
          "time": 115.9091875000006,
          "velocity": 0.7874015748031497,
          "duration": 0.136363750000001
        },
        {
          "name": "G3",
          "midi": 55,
          "time": 116.0455512500006,
          "velocity": 0.7874015748031497,
          "duration": 0.272727500000002
        },
        {
          "name": "G3",
          "midi": 55,
          "time": 116.3182787500006,
          "velocity": 0.7874015748031497,
          "duration": 0.136363750000001
        },
        {
          "name": "A3",
          "midi": 57,
          "time": 116.4546425000006,
          "velocity": 0.7874015748031497,
          "duration": 0.136363750000001
        },
        {
          "name": "G3",
          "midi": 55,
          "time": 116.5910062500006,
          "velocity": 0.7874015748031497,
          "duration": 0.136363750000001
        },
        {
          "name": "C3",
          "midi": 48,
          "time": 116.7273700000006,
          "velocity": 0.7874015748031497,
          "duration": 0.136363750000001
        },
        {
          "name": "C4",
          "midi": 60,
          "time": 116.8637337500006,
          "velocity": 0.7874015748031497,
          "duration": 0.136363750000001
        },
        {
          "name": "G3",
          "midi": 55,
          "time": 117.0000975000006,
          "velocity": 0.7874015748031497,
          "duration": 0.136363750000001
        },
        {
          "name": "G3",
          "midi": 55,
          "time": 117.13646125000061,
          "velocity": 0.7874015748031497,
          "duration": 0.136363750000001
        },
        {
          "name": "A#3",
          "midi": 58,
          "time": 117.27282500000061,
          "velocity": 0.7874015748031497,
          "duration": 0.136363750000001
        },
        {
          "name": "G3",
          "midi": 55,
          "time": 117.40918875000061,
          "velocity": 0.7874015748031497,
          "duration": 0.136363750000001
        },
        {
          "name": "A3",
          "midi": 57,
          "time": 117.54555250000061,
          "velocity": 0.7874015748031497,
          "duration": 0.136363750000001
        },
        {
          "name": "G3",
          "midi": 55,
          "time": 117.68191625000061,
          "velocity": 0.7874015748031497,
          "duration": 0.136363750000001
        },
        {
          "name": "C3",
          "midi": 48,
          "time": 117.81828000000061,
          "velocity": 0.7874015748031497,
          "duration": 0.136363750000001
        },
        {
          "name": "C3",
          "midi": 48,
          "time": 117.95464375000061,
          "velocity": 0.7874015748031497,
          "duration": 0.136363750000001
        },
        {
          "name": "C3",
          "midi": 48,
          "time": 118.09100750000061,
          "velocity": 0.7874015748031497,
          "duration": 0.136363750000001
        },
        {
          "name": "G3",
          "midi": 55,
          "time": 118.22737125000062,
          "velocity": 0.7874015748031497,
          "duration": 0.272727500000002
        },
        {
          "name": "G3",
          "midi": 55,
          "time": 118.50009875000062,
          "velocity": 0.7874015748031497,
          "duration": 0.136363750000001
        },
        {
          "name": "A3",
          "midi": 57,
          "time": 118.63646250000062,
          "velocity": 0.7874015748031497,
          "duration": 0.136363750000001
        },
        {
          "name": "G3",
          "midi": 55,
          "time": 118.77282625000062,
          "velocity": 0.7874015748031497,
          "duration": 0.136363750000001
        },
        {
          "name": "C3",
          "midi": 48,
          "time": 118.90919000000062,
          "velocity": 0.7874015748031497,
          "duration": 0.136363750000001
        },
        {
          "name": "C4",
          "midi": 60,
          "time": 119.04555375000062,
          "velocity": 0.7874015748031497,
          "duration": 0.136363750000001
        },
        {
          "name": "G3",
          "midi": 55,
          "time": 119.18191750000062,
          "velocity": 0.7874015748031497,
          "duration": 0.136363750000001
        },
        {
          "name": "G3",
          "midi": 55,
          "time": 119.31828125000062,
          "velocity": 0.7874015748031497,
          "duration": 0.136363750000001
        },
        {
          "name": "A#3",
          "midi": 58,
          "time": 119.45464500000062,
          "velocity": 0.7874015748031497,
          "duration": 0.136363750000001
        },
        {
          "name": "G3",
          "midi": 55,
          "time": 119.59100875000063,
          "velocity": 0.7874015748031497,
          "duration": 0.136363750000001
        },
        {
          "name": "A3",
          "midi": 57,
          "time": 119.72737250000063,
          "velocity": 0.7874015748031497,
          "duration": 0.136363750000001
        },
        {
          "name": "G3",
          "midi": 55,
          "time": 119.86373625000063,
          "velocity": 0.7874015748031497,
          "duration": 0.136363750000001
        },
        {
          "name": "C3",
          "midi": 48,
          "time": 120.00010000000063,
          "velocity": 0.7874015748031497,
          "duration": 0.136363750000001
        },
        {
          "name": "C3",
          "midi": 48,
          "time": 120.13646375000063,
          "velocity": 0.7874015748031497,
          "duration": 0.136363750000001
        },
        {
          "name": "C3",
          "midi": 48,
          "time": 120.27282750000063,
          "velocity": 0.7874015748031497,
          "duration": 0.136363750000001
        },
        {
          "name": "G3",
          "midi": 55,
          "time": 120.40919125000063,
          "velocity": 0.7874015748031497,
          "duration": 0.272727500000002
        },
        {
          "name": "G3",
          "midi": 55,
          "time": 120.68191875000063,
          "velocity": 0.7874015748031497,
          "duration": 0.136363750000001
        },
        {
          "name": "A3",
          "midi": 57,
          "time": 120.81828250000063,
          "velocity": 0.7874015748031497,
          "duration": 0.136363750000001
        },
        {
          "name": "G3",
          "midi": 55,
          "time": 120.95464625000064,
          "velocity": 0.7874015748031497,
          "duration": 0.136363750000001
        },
        {
          "name": "C3",
          "midi": 48,
          "time": 121.09101000000064,
          "velocity": 0.7874015748031497,
          "duration": 0.136363750000001
        },
        {
          "name": "C4",
          "midi": 60,
          "time": 121.22737375000064,
          "velocity": 0.7874015748031497,
          "duration": 0.136363750000001
        },
        {
          "name": "G3",
          "midi": 55,
          "time": 121.36373750000064,
          "velocity": 0.7874015748031497,
          "duration": 0.136363750000001
        },
        {
          "name": "G3",
          "midi": 55,
          "time": 121.50010125000064,
          "velocity": 0.7874015748031497,
          "duration": 0.136363750000001
        },
        {
          "name": "A#3",
          "midi": 58,
          "time": 121.63646500000064,
          "velocity": 0.7874015748031497,
          "duration": 0.136363750000001
        },
        {
          "name": "G3",
          "midi": 55,
          "time": 121.77282875000064,
          "velocity": 0.7874015748031497,
          "duration": 0.136363750000001
        },
        {
          "name": "A3",
          "midi": 57,
          "time": 121.90919250000064,
          "velocity": 0.7874015748031497,
          "duration": 0.136363750000001
        },
        {
          "name": "G3",
          "midi": 55,
          "time": 122.04555625000064,
          "velocity": 0.7874015748031497,
          "duration": 0.136363750000001
        },
        {
          "name": "C3",
          "midi": 48,
          "time": 122.18192000000064,
          "velocity": 0.7874015748031497,
          "duration": 0.136363750000001
        },
        {
          "name": "C3",
          "midi": 48,
          "time": 122.31828375000065,
          "velocity": 0.7874015748031497,
          "duration": 0.136363750000001
        },
        {
          "name": "C3",
          "midi": 48,
          "time": 122.45464750000065,
          "velocity": 0.7874015748031497,
          "duration": 0.136363750000001
        },
        {
          "name": "G3",
          "midi": 55,
          "time": 122.59101125000065,
          "velocity": 0.7874015748031497,
          "duration": 0.272727500000002
        },
        {
          "name": "G3",
          "midi": 55,
          "time": 122.86373875000065,
          "velocity": 0.7874015748031497,
          "duration": 0.136363750000001
        },
        {
          "name": "A3",
          "midi": 57,
          "time": 123.00010250000065,
          "velocity": 0.7874015748031497,
          "duration": 0.136363750000001
        },
        {
          "name": "G3",
          "midi": 55,
          "time": 123.13646625000065,
          "velocity": 0.7874015748031497,
          "duration": 0.136363750000001
        },
        {
          "name": "C3",
          "midi": 48,
          "time": 123.27283000000065,
          "velocity": 0.7874015748031497,
          "duration": 0.136363750000001
        },
        {
          "name": "C4",
          "midi": 60,
          "time": 123.40919375000065,
          "velocity": 0.7874015748031497,
          "duration": 0.136363750000001
        },
        {
          "name": "G3",
          "midi": 55,
          "time": 123.54555750000065,
          "velocity": 0.7874015748031497,
          "duration": 0.136363750000001
        },
        {
          "name": "G3",
          "midi": 55,
          "time": 123.68192125000066,
          "velocity": 0.7874015748031497,
          "duration": 0.136363750000001
        },
        {
          "name": "A#3",
          "midi": 58,
          "time": 123.81828500000066,
          "velocity": 0.7874015748031497,
          "duration": 0.136363750000001
        },
        {
          "name": "G3",
          "midi": 55,
          "time": 123.95464875000066,
          "velocity": 0.7874015748031497,
          "duration": 0.136363750000001
        },
        {
          "name": "A3",
          "midi": 57,
          "time": 124.09101250000066,
          "velocity": 0.7874015748031497,
          "duration": 0.136363750000001
        },
        {
          "name": "G3",
          "midi": 55,
          "time": 124.22737625000066,
          "velocity": 0.7874015748031497,
          "duration": 0.136363750000001
        },
        {
          "name": "C3",
          "midi": 48,
          "time": 124.36374000000066,
          "velocity": 0.7874015748031497,
          "duration": 0.136363750000001
        },
        {
          "name": "C3",
          "midi": 48,
          "time": 124.50010375000066,
          "velocity": 0.7874015748031497,
          "duration": 0.136363750000001
        },
        {
          "name": "C3",
          "midi": 48,
          "time": 124.63646750000066,
          "velocity": 0.7874015748031497,
          "duration": 0.136363750000001
        },
        {
          "name": "G3",
          "midi": 55,
          "time": 124.77283125000066,
          "velocity": 0.7874015748031497,
          "duration": 0.272727500000002
        },
        {
          "name": "G3",
          "midi": 55,
          "time": 125.04555875000067,
          "velocity": 0.7874015748031497,
          "duration": 0.136363750000001
        },
        {
          "name": "A3",
          "midi": 57,
          "time": 125.18192250000067,
          "velocity": 0.7874015748031497,
          "duration": 0.136363750000001
        },
        {
          "name": "G3",
          "midi": 55,
          "time": 125.31828625000067,
          "velocity": 0.7874015748031497,
          "duration": 0.136363750000001
        },
        {
          "name": "C3",
          "midi": 48,
          "time": 125.45465000000067,
          "velocity": 0.7874015748031497,
          "duration": 0.136363750000001
        },
        {
          "name": "C4",
          "midi": 60,
          "time": 125.59101375000067,
          "velocity": 0.7874015748031497,
          "duration": 0.136363750000001
        },
        {
          "name": "G3",
          "midi": 55,
          "time": 125.72737750000067,
          "velocity": 0.7874015748031497,
          "duration": 0.136363750000001
        },
        {
          "name": "G3",
          "midi": 55,
          "time": 125.86374125000067,
          "velocity": 0.7874015748031497,
          "duration": 0.136363750000001
        },
        {
          "name": "A#3",
          "midi": 58,
          "time": 126.00010500000067,
          "velocity": 0.7874015748031497,
          "duration": 0.136363750000001
        },
        {
          "name": "G3",
          "midi": 55,
          "time": 126.13646875000067,
          "velocity": 0.7874015748031497,
          "duration": 0.136363750000001
        },
        {
          "name": "A3",
          "midi": 57,
          "time": 126.27283250000067,
          "velocity": 0.7874015748031497,
          "duration": 0.136363750000001
        },
        {
          "name": "G3",
          "midi": 55,
          "time": 126.40919625000068,
          "velocity": 0.7874015748031497,
          "duration": 0.136363750000001
        },
        {
          "name": "G3",
          "midi": 55,
          "time": 126.54556000000068,
          "velocity": 0.7874015748031497,
          "duration": 0.272727500000002
        },
        {
          "name": "C3",
          "midi": 48,
          "time": 126.54556000000068,
          "velocity": 0.7874015748031497,
          "duration": 0.272727500000002
        },
        {
          "name": "A3",
          "midi": 57,
          "time": 126.95465125000068,
          "velocity": 0.7874015748031497,
          "duration": 0.272727500000002
        },
        {
          "name": "C3",
          "midi": 48,
          "time": 126.95465125000068,
          "velocity": 0.7874015748031497,
          "duration": 0.272727500000002
        },
        {
          "name": "A#3",
          "midi": 58,
          "time": 127.36374250000068,
          "velocity": 0.7874015748031497,
          "duration": 0.545455000000004
        },
        {
          "name": "C3",
          "midi": 48,
          "time": 127.36374250000068,
          "velocity": 0.7874015748031497,
          "duration": 0.545455000000004
        },
        {
          "name": "D#4",
          "midi": 63,
          "time": 128.7273800000007,
          "velocity": 0.7874015748031497,
          "duration": 0.272727500000002
        },
        {
          "name": "F3",
          "midi": 53,
          "time": 128.7273800000007,
          "velocity": 0.7874015748031497,
          "duration": 0.272727500000002
        },
        {
          "name": "D4",
          "midi": 62,
          "time": 129.13647125000068,
          "velocity": 0.7874015748031497,
          "duration": 0.272727500000002
        },
        {
          "name": "F3",
          "midi": 53,
          "time": 129.13647125000068,
          "velocity": 0.7874015748031497,
          "duration": 0.272727500000002
        },
        {
          "name": "D#4",
          "midi": 63,
          "time": 129.54556250000067,
          "velocity": 0.7874015748031497,
          "duration": 0.545455000000004
        },
        {
          "name": "F3",
          "midi": 53,
          "time": 129.54556250000067,
          "velocity": 0.7874015748031497,
          "duration": 0.545455000000004
        },
        {
          "name": "G3",
          "midi": 55,
          "time": 130.90920000000068,
          "velocity": 0.7874015748031497,
          "duration": 0.272727500000002
        },
        {
          "name": "C3",
          "midi": 48,
          "time": 130.90920000000068,
          "velocity": 0.7874015748031497,
          "duration": 0.272727500000002
        },
        {
          "name": "A3",
          "midi": 57,
          "time": 131.31829125000067,
          "velocity": 0.7874015748031497,
          "duration": 0.272727500000002
        },
        {
          "name": "C3",
          "midi": 48,
          "time": 131.31829125000067,
          "velocity": 0.7874015748031497,
          "duration": 0.272727500000002
        },
        {
          "name": "A#3",
          "midi": 58,
          "time": 131.72738250000066,
          "velocity": 0.7874015748031497,
          "duration": 0.545455000000004
        },
        {
          "name": "C3",
          "midi": 48,
          "time": 131.72738250000066,
          "velocity": 0.7874015748031497,
          "duration": 0.545455000000004
        },
        {
          "name": "D#4",
          "midi": 63,
          "time": 133.09102000000067,
          "velocity": 0.7874015748031497,
          "duration": 0.272727500000002
        },
        {
          "name": "F3",
          "midi": 53,
          "time": 133.09102000000067,
          "velocity": 0.7874015748031497,
          "duration": 0.272727500000002
        },
        {
          "name": "D4",
          "midi": 62,
          "time": 133.50011125000066,
          "velocity": 0.7874015748031497,
          "duration": 0.272727500000002
        },
        {
          "name": "F3",
          "midi": 53,
          "time": 133.50011125000066,
          "velocity": 0.7874015748031497,
          "duration": 0.272727500000002
        },
        {
          "name": "D#4",
          "midi": 63,
          "time": 133.90920250000065,
          "velocity": 0.7874015748031497,
          "duration": 0.545455000000004
        },
        {
          "name": "F3",
          "midi": 53,
          "time": 133.90920250000065,
          "velocity": 0.7874015748031497,
          "duration": 0.545455000000004
        },
        {
          "name": "G3",
          "midi": 55,
          "time": 135.27284000000066,
          "velocity": 0.7874015748031497,
          "duration": 0.272727500000002
        },
        {
          "name": "C3",
          "midi": 48,
          "time": 135.27284000000066,
          "velocity": 0.7874015748031497,
          "duration": 0.272727500000002
        },
        {
          "name": "A3",
          "midi": 57,
          "time": 135.68193125000064,
          "velocity": 0.7874015748031497,
          "duration": 0.272727500000002
        },
        {
          "name": "C3",
          "midi": 48,
          "time": 135.68193125000064,
          "velocity": 0.7874015748031497,
          "duration": 0.272727500000002
        },
        {
          "name": "A#3",
          "midi": 58,
          "time": 136.09102250000063,
          "velocity": 0.7874015748031497,
          "duration": 0.545455000000004
        },
        {
          "name": "C3",
          "midi": 48,
          "time": 136.09102250000063,
          "velocity": 0.7874015748031497,
          "duration": 0.545455000000004
        },
        {
          "name": "D#4",
          "midi": 63,
          "time": 137.45466000000064,
          "velocity": 0.7874015748031497,
          "duration": 0.272727500000002
        },
        {
          "name": "F3",
          "midi": 53,
          "time": 137.45466000000064,
          "velocity": 0.7874015748031497,
          "duration": 0.272727500000002
        },
        {
          "name": "D4",
          "midi": 62,
          "time": 137.86375125000063,
          "velocity": 0.7874015748031497,
          "duration": 0.272727500000002
        },
        {
          "name": "F3",
          "midi": 53,
          "time": 137.86375125000063,
          "velocity": 0.7874015748031497,
          "duration": 0.272727500000002
        },
        {
          "name": "D#4",
          "midi": 63,
          "time": 138.27284250000062,
          "velocity": 0.7874015748031497,
          "duration": 0.545455000000004
        },
        {
          "name": "F3",
          "midi": 53,
          "time": 138.27284250000062,
          "velocity": 0.7874015748031497,
          "duration": 0.545455000000004
        },
        {
          "name": "G3",
          "midi": 55,
          "time": 139.63648000000063,
          "velocity": 0.7874015748031497,
          "duration": 0.272727500000002
        },
        {
          "name": "C3",
          "midi": 48,
          "time": 139.63648000000063,
          "velocity": 0.7874015748031497,
          "duration": 0.272727500000002
        },
        {
          "name": "A3",
          "midi": 57,
          "time": 140.04557125000062,
          "velocity": 0.7874015748031497,
          "duration": 0.272727500000002
        },
        {
          "name": "C3",
          "midi": 48,
          "time": 140.04557125000062,
          "velocity": 0.7874015748031497,
          "duration": 0.272727500000002
        },
        {
          "name": "A#3",
          "midi": 58,
          "time": 140.4546625000006,
          "velocity": 0.7874015748031497,
          "duration": 0.545455000000004
        },
        {
          "name": "C3",
          "midi": 48,
          "time": 140.4546625000006,
          "velocity": 0.7874015748031497,
          "duration": 0.545455000000004
        },
        {
          "name": "D#4",
          "midi": 63,
          "time": 141.81830000000062,
          "velocity": 0.7874015748031497,
          "duration": 0.272727500000002
        },
        {
          "name": "F3",
          "midi": 53,
          "time": 141.81830000000062,
          "velocity": 0.7874015748031497,
          "duration": 0.272727500000002
        },
        {
          "name": "D4",
          "midi": 62,
          "time": 142.2273912500006,
          "velocity": 0.7874015748031497,
          "duration": 0.272727500000002
        },
        {
          "name": "F3",
          "midi": 53,
          "time": 142.2273912500006,
          "velocity": 0.7874015748031497,
          "duration": 0.272727500000002
        },
        {
          "name": "D#4",
          "midi": 63,
          "time": 142.6364825000006,
          "velocity": 0.7874015748031497,
          "duration": 0.545455000000004
        },
        {
          "name": "F3",
          "midi": 53,
          "time": 142.6364825000006,
          "velocity": 0.7874015748031497,
          "duration": 0.545455000000004
        },
        {
          "name": "C3",
          "midi": 48,
          "time": 144.0001200000006,
          "velocity": 0.7874015748031497,
          "duration": 0.1363637499999868
        },
        {
          "name": "C3",
          "midi": 48,
          "time": 144.1364837500006,
          "velocity": 0.7874015748031497,
          "duration": 0.1363637499999868
        },
        {
          "name": "C3",
          "midi": 48,
          "time": 144.27284750000058,
          "velocity": 0.7874015748031497,
          "duration": 0.1363637499999868
        },
        {
          "name": "G3",
          "midi": 55,
          "time": 144.40921125000057,
          "velocity": 0.7874015748031497,
          "duration": 0.272727500000002
        },
        {
          "name": "G3",
          "midi": 55,
          "time": 144.68193875000057,
          "velocity": 0.7874015748031497,
          "duration": 0.1363637499999868
        },
        {
          "name": "A3",
          "midi": 57,
          "time": 144.81830250000056,
          "velocity": 0.7874015748031497,
          "duration": 0.1363637499999868
        },
        {
          "name": "G3",
          "midi": 55,
          "time": 144.95466625000054,
          "velocity": 0.7874015748031497,
          "duration": 0.1363637499999868
        },
        {
          "name": "C3",
          "midi": 48,
          "time": 145.09103000000053,
          "velocity": 0.7874015748031497,
          "duration": 0.1363637499999868
        },
        {
          "name": "C4",
          "midi": 60,
          "time": 145.22739375000052,
          "velocity": 0.7874015748031497,
          "duration": 0.1363637499999868
        },
        {
          "name": "G3",
          "midi": 55,
          "time": 145.3637575000005,
          "velocity": 0.7874015748031497,
          "duration": 0.1363637499999868
        },
        {
          "name": "G3",
          "midi": 55,
          "time": 145.5001212500005,
          "velocity": 0.7874015748031497,
          "duration": 0.1363637499999868
        },
        {
          "name": "A#3",
          "midi": 58,
          "time": 145.63648500000048,
          "velocity": 0.7874015748031497,
          "duration": 0.1363637499999868
        },
        {
          "name": "G3",
          "midi": 55,
          "time": 145.77284875000046,
          "velocity": 0.7874015748031497,
          "duration": 0.1363637499999868
        },
        {
          "name": "A3",
          "midi": 57,
          "time": 145.90921250000045,
          "velocity": 0.7874015748031497,
          "duration": 0.1363637499999868
        },
        {
          "name": "G3",
          "midi": 55,
          "time": 146.04557625000044,
          "velocity": 0.7874015748031497,
          "duration": 0.1363637499999868
        },
        {
          "name": "C3",
          "midi": 48,
          "time": 146.18194000000042,
          "velocity": 0.7874015748031497,
          "duration": 0.1363637499999868
        },
        {
          "name": "C3",
          "midi": 48,
          "time": 146.3183037500004,
          "velocity": 0.7874015748031497,
          "duration": 0.1363637499999868
        },
        {
          "name": "C3",
          "midi": 48,
          "time": 146.4546675000004,
          "velocity": 0.7874015748031497,
          "duration": 0.1363637499999868
        },
        {
          "name": "G3",
          "midi": 55,
          "time": 146.59103125000038,
          "velocity": 0.7874015748031497,
          "duration": 0.272727500000002
        },
        {
          "name": "G3",
          "midi": 55,
          "time": 146.8637587500004,
          "velocity": 0.7874015748031497,
          "duration": 0.1363637499999868
        },
        {
          "name": "A3",
          "midi": 57,
          "time": 147.00012250000037,
          "velocity": 0.7874015748031497,
          "duration": 0.1363637499999868
        },
        {
          "name": "G3",
          "midi": 55,
          "time": 147.13648625000036,
          "velocity": 0.7874015748031497,
          "duration": 0.1363637499999868
        },
        {
          "name": "C3",
          "midi": 48,
          "time": 147.27285000000035,
          "velocity": 0.7874015748031497,
          "duration": 0.1363637499999868
        },
        {
          "name": "C4",
          "midi": 60,
          "time": 147.40921375000033,
          "velocity": 0.7874015748031497,
          "duration": 0.1363637499999868
        },
        {
          "name": "G3",
          "midi": 55,
          "time": 147.54557750000032,
          "velocity": 0.7874015748031497,
          "duration": 0.1363637499999868
        },
        {
          "name": "G3",
          "midi": 55,
          "time": 147.6819412500003,
          "velocity": 0.7874015748031497,
          "duration": 0.1363637499999868
        },
        {
          "name": "A#3",
          "midi": 58,
          "time": 147.8183050000003,
          "velocity": 0.7874015748031497,
          "duration": 0.1363637499999868
        },
        {
          "name": "G3",
          "midi": 55,
          "time": 147.95466875000028,
          "velocity": 0.7874015748031497,
          "duration": 0.1363637499999868
        },
        {
          "name": "A3",
          "midi": 57,
          "time": 148.09103250000027,
          "velocity": 0.7874015748031497,
          "duration": 0.1363637499999868
        },
        {
          "name": "G3",
          "midi": 55,
          "time": 148.22739625000025,
          "velocity": 0.7874015748031497,
          "duration": 0.1363637499999868
        },
        {
          "name": "C3",
          "midi": 48,
          "time": 148.36376000000024,
          "velocity": 0.7874015748031497,
          "duration": 0.1363637499999868
        },
        {
          "name": "C3",
          "midi": 48,
          "time": 148.50012375000023,
          "velocity": 0.7874015748031497,
          "duration": 0.1363637499999868
        },
        {
          "name": "C3",
          "midi": 48,
          "time": 148.63648750000021,
          "velocity": 0.7874015748031497,
          "duration": 0.1363637499999868
        },
        {
          "name": "G3",
          "midi": 55,
          "time": 148.7728512500002,
          "velocity": 0.7874015748031497,
          "duration": 0.272727500000002
        },
        {
          "name": "G3",
          "midi": 55,
          "time": 149.0455787500002,
          "velocity": 0.7874015748031497,
          "duration": 0.1363637499999868
        },
        {
          "name": "A3",
          "midi": 57,
          "time": 149.1819425000002,
          "velocity": 0.7874015748031497,
          "duration": 0.1363637499999868
        },
        {
          "name": "G3",
          "midi": 55,
          "time": 149.31830625000018,
          "velocity": 0.7874015748031497,
          "duration": 0.1363637499999868
        },
        {
          "name": "C3",
          "midi": 48,
          "time": 149.45467000000016,
          "velocity": 0.7874015748031497,
          "duration": 0.1363637499999868
        },
        {
          "name": "C4",
          "midi": 60,
          "time": 149.59103375000015,
          "velocity": 0.7874015748031497,
          "duration": 0.1363637499999868
        },
        {
          "name": "G3",
          "midi": 55,
          "time": 149.72739750000014,
          "velocity": 0.7874015748031497,
          "duration": 0.1363637499999868
        },
        {
          "name": "G3",
          "midi": 55,
          "time": 149.86376125000012,
          "velocity": 0.7874015748031497,
          "duration": 0.1363637499999868
        },
        {
          "name": "A#3",
          "midi": 58,
          "time": 150.0001250000001,
          "velocity": 0.7874015748031497,
          "duration": 0.1363637499999868
        },
        {
          "name": "G3",
          "midi": 55,
          "time": 150.1364887500001,
          "velocity": 0.7874015748031497,
          "duration": 0.1363637499999868
        },
        {
          "name": "A3",
          "midi": 57,
          "time": 150.27285250000008,
          "velocity": 0.7874015748031497,
          "duration": 0.1363637499999868
        },
        {
          "name": "G3",
          "midi": 55,
          "time": 150.40921625000007,
          "velocity": 0.7874015748031497,
          "duration": 0.1363637499999868
        },
        {
          "name": "C3",
          "midi": 48,
          "time": 150.54558000000006,
          "velocity": 0.7874015748031497,
          "duration": 0.1363637499999868
        },
        {
          "name": "C3",
          "midi": 48,
          "time": 150.68194375000004,
          "velocity": 0.7874015748031497,
          "duration": 0.1363637499999868
        },
        {
          "name": "C3",
          "midi": 48,
          "time": 150.81830750000003,
          "velocity": 0.7874015748031497,
          "duration": 0.1363637499999868
        },
        {
          "name": "G3",
          "midi": 55,
          "time": 150.95467125000002,
          "velocity": 0.7874015748031497,
          "duration": 0.272727500000002
        },
        {
          "name": "G3",
          "midi": 55,
          "time": 151.22739875000002,
          "velocity": 0.7874015748031497,
          "duration": 0.1363637499999868
        },
        {
          "name": "A3",
          "midi": 57,
          "time": 151.3637625,
          "velocity": 0.7874015748031497,
          "duration": 0.1363637499999868
        },
        {
          "name": "G3",
          "midi": 55,
          "time": 151.50012625,
          "velocity": 0.7874015748031497,
          "duration": 0.1363637499999868
        },
        {
          "name": "C3",
          "midi": 48,
          "time": 151.63648999999998,
          "velocity": 0.7874015748031497,
          "duration": 0.1363637499999868
        },
        {
          "name": "C4",
          "midi": 60,
          "time": 151.77285374999997,
          "velocity": 0.7874015748031497,
          "duration": 0.1363637499999868
        },
        {
          "name": "G3",
          "midi": 55,
          "time": 151.90921749999995,
          "velocity": 0.7874015748031497,
          "duration": 0.1363637499999868
        },
        {
          "name": "G3",
          "midi": 55,
          "time": 152.04558124999994,
          "velocity": 0.7874015748031497,
          "duration": 0.1363637499999868
        },
        {
          "name": "A3",
          "midi": 57,
          "time": 152.18194499999993,
          "velocity": 0.7874015748031497,
          "duration": 0.545455000000004
        },
        {
          "name": "E3",
          "midi": 52,
          "time": 152.18194499999993,
          "velocity": 0.7874015748031497,
          "duration": 0.545455000000004
        },
        {
          "name": "A2",
          "midi": 45,
          "time": 152.18194499999993,
          "velocity": 0.7874015748031497,
          "duration": 0.545455000000004
        },
        {
          "name": "E2",
          "midi": 40,
          "time": 152.72739999999993,
          "velocity": 0.7874015748031497,
          "duration": 0.1363637499999868
        },
        {
          "name": "G2",
          "midi": 43,
          "time": 152.86376374999992,
          "velocity": 0.7874015748031497,
          "duration": 0.1363637499999868
        },
        {
          "name": "G#2",
          "midi": 44,
          "time": 153.0001274999999,
          "velocity": 0.7874015748031497,
          "duration": 0.1363637499999868
        },
        {
          "name": "E3",
          "midi": 52,
          "time": 153.1364912499999,
          "velocity": 0.7874015748031497,
          "duration": 0.1363637499999868
        },
        {
          "name": "A2",
          "midi": 45,
          "time": 153.40921874999987,
          "velocity": 0.7874015748031497,
          "duration": 0.1363637499999868
        },
        {
          "name": "A#2",
          "midi": 46,
          "time": 153.54558249999985,
          "velocity": 0.7874015748031497,
          "duration": 0.1363637499999868
        },
        {
          "name": "B2",
          "midi": 47,
          "time": 153.68194624999984,
          "velocity": 0.7874015748031497,
          "duration": 0.1363637499999868
        },
        {
          "name": "E3",
          "midi": 52,
          "time": 153.81830999999983,
          "velocity": 0.7874015748031497,
          "duration": 0.272727500000002
        },
        {
          "name": "E2",
          "midi": 40,
          "time": 154.09103749999983,
          "velocity": 0.7874015748031497,
          "duration": 0.272727500000002
        },
        {
          "name": "E2",
          "midi": 40,
          "time": 154.90921999999983,
          "velocity": 0.7874015748031497,
          "duration": 0.1363637499999868
        },
        {
          "name": "G2",
          "midi": 43,
          "time": 155.04558374999982,
          "velocity": 0.7874015748031497,
          "duration": 0.1363637499999868
        },
        {
          "name": "G#2",
          "midi": 44,
          "time": 155.1819474999998,
          "velocity": 0.7874015748031497,
          "duration": 0.1363637499999868
        },
        {
          "name": "E3",
          "midi": 52,
          "time": 155.3183112499998,
          "velocity": 0.7874015748031497,
          "duration": 0.1363637499999868
        },
        {
          "name": "A2",
          "midi": 45,
          "time": 155.59103874999977,
          "velocity": 0.7874015748031497,
          "duration": 0.1363637499999868
        },
        {
          "name": "A#2",
          "midi": 46,
          "time": 155.72740249999976,
          "velocity": 0.7874015748031497,
          "duration": 0.1363637499999868
        },
        {
          "name": "B2",
          "midi": 47,
          "time": 155.86376624999974,
          "velocity": 0.7874015748031497,
          "duration": 0.1363637499999868
        },
        {
          "name": "E3",
          "midi": 52,
          "time": 156.00012999999973,
          "velocity": 0.7874015748031497,
          "duration": 0.272727500000002
        },
        {
          "name": "A3",
          "midi": 57,
          "time": 156.27285749999973,
          "velocity": 0.7874015748031497,
          "duration": 0.545455000000004
        },
        {
          "name": "E3",
          "midi": 52,
          "time": 156.27285749999973,
          "velocity": 0.7874015748031497,
          "duration": 0.545455000000004
        },
        {
          "name": "A2",
          "midi": 45,
          "time": 156.27285749999973,
          "velocity": 0.7874015748031497,
          "duration": 0.545455000000004
        },
        {
          "name": "E2",
          "midi": 40,
          "time": 157.09103999999974,
          "velocity": 0.7874015748031497,
          "duration": 0.1363637499999868
        },
        {
          "name": "G2",
          "midi": 43,
          "time": 157.22740374999972,
          "velocity": 0.7874015748031497,
          "duration": 0.1363637499999868
        },
        {
          "name": "G#2",
          "midi": 44,
          "time": 157.3637674999997,
          "velocity": 0.7874015748031497,
          "duration": 0.1363637499999868
        },
        {
          "name": "E3",
          "midi": 52,
          "time": 157.5001312499997,
          "velocity": 0.7874015748031497,
          "duration": 0.1363637499999868
        },
        {
          "name": "A2",
          "midi": 45,
          "time": 157.77285874999967,
          "velocity": 0.7874015748031497,
          "duration": 0.1363637499999868
        },
        {
          "name": "A#2",
          "midi": 46,
          "time": 157.90922249999966,
          "velocity": 0.7874015748031497,
          "duration": 0.1363637499999868
        },
        {
          "name": "B2",
          "midi": 47,
          "time": 158.04558624999964,
          "velocity": 0.7874015748031497,
          "duration": 0.1363637499999868
        },
        {
          "name": "E3",
          "midi": 52,
          "time": 158.18194999999963,
          "velocity": 0.7874015748031497,
          "duration": 0.272727500000002
        },
        {
          "name": "E2",
          "midi": 40,
          "time": 158.45467749999963,
          "velocity": 0.7874015748031497,
          "duration": 0.272727500000002
        },
        {
          "name": "E2",
          "midi": 40,
          "time": 159.27285999999964,
          "velocity": 0.7874015748031497,
          "duration": 0.1363637499999868
        },
        {
          "name": "G2",
          "midi": 43,
          "time": 159.40922374999963,
          "velocity": 0.7874015748031497,
          "duration": 0.1363637499999868
        },
        {
          "name": "G#2",
          "midi": 44,
          "time": 159.5455874999996,
          "velocity": 0.7874015748031497,
          "duration": 0.1363637499999868
        },
        {
          "name": "E3",
          "midi": 52,
          "time": 159.6819512499996,
          "velocity": 0.7874015748031497,
          "duration": 0.1363637499999868
        },
        {
          "name": "A2",
          "midi": 45,
          "time": 159.95467874999957,
          "velocity": 0.7874015748031497,
          "duration": 0.1363637499999868
        },
        {
          "name": "A#2",
          "midi": 46,
          "time": 160.09104249999956,
          "velocity": 0.7874015748031497,
          "duration": 0.1363637499999868
        },
        {
          "name": "B2",
          "midi": 47,
          "time": 160.22740624999955,
          "velocity": 0.7874015748031497,
          "duration": 0.1363637499999868
        },
        {
          "name": "E3",
          "midi": 52,
          "time": 160.36376999999953,
          "velocity": 0.7874015748031497,
          "duration": 0.272727500000002
        },
        {
          "name": "A3",
          "midi": 57,
          "time": 160.63649749999954,
          "velocity": 0.7874015748031497,
          "duration": 0.545455000000004
        },
        {
          "name": "E3",
          "midi": 52,
          "time": 160.63649749999954,
          "velocity": 0.7874015748031497,
          "duration": 0.545455000000004
        },
        {
          "name": "A2",
          "midi": 45,
          "time": 160.63649749999954,
          "velocity": 0.7874015748031497,
          "duration": 0.545455000000004
        },
        {
          "name": "E2",
          "midi": 40,
          "time": 161.45467999999954,
          "velocity": 0.7874015748031497,
          "duration": 0.1363637499999868
        },
        {
          "name": "G2",
          "midi": 43,
          "time": 161.59104374999953,
          "velocity": 0.7874015748031497,
          "duration": 0.1363637499999868
        },
        {
          "name": "G#2",
          "midi": 44,
          "time": 161.72740749999952,
          "velocity": 0.7874015748031497,
          "duration": 0.1363637499999868
        },
        {
          "name": "E3",
          "midi": 52,
          "time": 161.8637712499995,
          "velocity": 0.7874015748031497,
          "duration": 0.1363637499999868
        },
        {
          "name": "A2",
          "midi": 45,
          "time": 162.13649874999948,
          "velocity": 0.7874015748031497,
          "duration": 0.1363637499999868
        },
        {
          "name": "A#2",
          "midi": 46,
          "time": 162.27286249999946,
          "velocity": 0.7874015748031497,
          "duration": 0.1363637499999868
        },
        {
          "name": "B2",
          "midi": 47,
          "time": 162.40922624999945,
          "velocity": 0.7874015748031497,
          "duration": 0.1363637499999868
        },
        {
          "name": "E3",
          "midi": 52,
          "time": 162.54558999999944,
          "velocity": 0.7874015748031497,
          "duration": 0.272727500000002
        },
        {
          "name": "E2",
          "midi": 40,
          "time": 162.81831749999944,
          "velocity": 0.7874015748031497,
          "duration": 0.272727500000002
        },
        {
          "name": "E2",
          "midi": 40,
          "time": 163.63649999999944,
          "velocity": 0.7874015748031497,
          "duration": 0.1363637499999868
        },
        {
          "name": "G2",
          "midi": 43,
          "time": 163.77286374999943,
          "velocity": 0.7874015748031497,
          "duration": 0.1363637499999868
        },
        {
          "name": "G#2",
          "midi": 44,
          "time": 163.90922749999942,
          "velocity": 0.7874015748031497,
          "duration": 0.1363637499999868
        },
        {
          "name": "E3",
          "midi": 52,
          "time": 164.0455912499994,
          "velocity": 0.7874015748031497,
          "duration": 0.1363637499999868
        },
        {
          "name": "A2",
          "midi": 45,
          "time": 164.31831874999938,
          "velocity": 0.7874015748031497,
          "duration": 0.1363637499999868
        },
        {
          "name": "A#2",
          "midi": 46,
          "time": 164.45468249999936,
          "velocity": 0.7874015748031497,
          "duration": 0.1363637499999868
        },
        {
          "name": "B2",
          "midi": 47,
          "time": 164.59104624999935,
          "velocity": 0.7874015748031497,
          "duration": 0.1363637499999868
        },
        {
          "name": "E3",
          "midi": 52,
          "time": 164.72740999999934,
          "velocity": 0.7874015748031497,
          "duration": 0.272727500000002
        },
        {
          "name": "A3",
          "midi": 57,
          "time": 165.00013749999934,
          "velocity": 0.7874015748031497,
          "duration": 0.545455000000004
        },
        {
          "name": "E3",
          "midi": 52,
          "time": 165.00013749999934,
          "velocity": 0.7874015748031497,
          "duration": 0.545455000000004
        },
        {
          "name": "A2",
          "midi": 45,
          "time": 165.00013749999934,
          "velocity": 0.7874015748031497,
          "duration": 0.545455000000004
        },
        {
          "name": "E2",
          "midi": 40,
          "time": 165.81831999999935,
          "velocity": 0.7874015748031497,
          "duration": 0.1363637499999868
        },
        {
          "name": "G2",
          "midi": 43,
          "time": 165.95468374999933,
          "velocity": 0.7874015748031497,
          "duration": 0.1363637499999868
        },
        {
          "name": "G#2",
          "midi": 44,
          "time": 166.09104749999932,
          "velocity": 0.7874015748031497,
          "duration": 0.1363637499999868
        },
        {
          "name": "E3",
          "midi": 52,
          "time": 166.2274112499993,
          "velocity": 0.7874015748031497,
          "duration": 0.1363637499999868
        },
        {
          "name": "A2",
          "midi": 45,
          "time": 166.50013874999928,
          "velocity": 0.7874015748031497,
          "duration": 0.1363637499999868
        },
        {
          "name": "A#2",
          "midi": 46,
          "time": 166.63650249999927,
          "velocity": 0.7874015748031497,
          "duration": 0.1363637499999868
        },
        {
          "name": "B2",
          "midi": 47,
          "time": 166.77286624999925,
          "velocity": 0.7874015748031497,
          "duration": 0.1363637499999868
        },
        {
          "name": "E3",
          "midi": 52,
          "time": 166.90922999999924,
          "velocity": 0.7874015748031497,
          "duration": 0.272727500000002
        },
        {
          "name": "E2",
          "midi": 40,
          "time": 167.18195749999924,
          "velocity": 0.7874015748031497,
          "duration": 0.272727500000002
        },
        {
          "name": "E2",
          "midi": 40,
          "time": 168.00013999999925,
          "velocity": 0.7874015748031497,
          "duration": 0.1363637499999868
        },
        {
          "name": "G2",
          "midi": 43,
          "time": 168.13650374999924,
          "velocity": 0.7874015748031497,
          "duration": 0.1363637499999868
        },
        {
          "name": "G#2",
          "midi": 44,
          "time": 168.27286749999922,
          "velocity": 0.7874015748031497,
          "duration": 0.1363637499999868
        },
        {
          "name": "E3",
          "midi": 52,
          "time": 168.4092312499992,
          "velocity": 0.7874015748031497,
          "duration": 0.1363637499999868
        },
        {
          "name": "A2",
          "midi": 45,
          "time": 168.68195874999918,
          "velocity": 0.7874015748031497,
          "duration": 0.1363637499999868
        },
        {
          "name": "A#2",
          "midi": 46,
          "time": 168.81832249999917,
          "velocity": 0.7874015748031497,
          "duration": 0.1363637499999868
        },
        {
          "name": "B2",
          "midi": 47,
          "time": 168.95468624999916,
          "velocity": 0.7874015748031497,
          "duration": 0.1363637499999868
        },
        {
          "name": "E3",
          "midi": 52,
          "time": 169.09104999999914,
          "velocity": 0.7874015748031497,
          "duration": 0.272727500000002
        },
        {
          "name": "A3",
          "midi": 57,
          "time": 169.36377749999914,
          "velocity": 0.7874015748031497,
          "duration": 0.545455000000004
        },
        {
          "name": "E3",
          "midi": 52,
          "time": 169.36377749999914,
          "velocity": 0.7874015748031497,
          "duration": 0.545455000000004
        },
        {
          "name": "A2",
          "midi": 45,
          "time": 169.36377749999914,
          "velocity": 0.7874015748031497,
          "duration": 0.545455000000004
        },
        {
          "name": "E2",
          "midi": 40,
          "time": 170.18195999999915,
          "velocity": 0.7874015748031497,
          "duration": 0.1363637499999868
        },
        {
          "name": "G2",
          "midi": 43,
          "time": 170.31832374999914,
          "velocity": 0.7874015748031497,
          "duration": 0.1363637499999868
        },
        {
          "name": "G#2",
          "midi": 44,
          "time": 170.45468749999912,
          "velocity": 0.7874015748031497,
          "duration": 0.1363637499999868
        },
        {
          "name": "E3",
          "midi": 52,
          "time": 170.5910512499991,
          "velocity": 0.7874015748031497,
          "duration": 0.1363637499999868
        },
        {
          "name": "A2",
          "midi": 45,
          "time": 170.86377874999908,
          "velocity": 0.7874015748031497,
          "duration": 0.1363637499999868
        },
        {
          "name": "A#2",
          "midi": 46,
          "time": 171.00014249999907,
          "velocity": 0.7874015748031497,
          "duration": 0.1363637499999868
        },
        {
          "name": "B2",
          "midi": 47,
          "time": 171.13650624999906,
          "velocity": 0.7874015748031497,
          "duration": 0.1363637499999868
        },
        {
          "name": "E3",
          "midi": 52,
          "time": 171.27286999999905,
          "velocity": 0.7874015748031497,
          "duration": 0.272727500000002
        },
        {
          "name": "E2",
          "midi": 40,
          "time": 171.54559749999905,
          "velocity": 0.7874015748031497,
          "duration": 0.272727500000002
        },
        {
          "name": "E2",
          "midi": 40,
          "time": 172.36377999999905,
          "velocity": 0.7874015748031497,
          "duration": 0.1363637499999868
        },
        {
          "name": "G2",
          "midi": 43,
          "time": 172.50014374999904,
          "velocity": 0.7874015748031497,
          "duration": 0.1363637499999868
        },
        {
          "name": "G#2",
          "midi": 44,
          "time": 172.63650749999903,
          "velocity": 0.7874015748031497,
          "duration": 0.1363637499999868
        },
        {
          "name": "E3",
          "midi": 52,
          "time": 172.772871249999,
          "velocity": 0.7874015748031497,
          "duration": 0.1363637499999868
        },
        {
          "name": "A2",
          "midi": 45,
          "time": 173.045598749999,
          "velocity": 0.7874015748031497,
          "duration": 0.1363637499999868
        },
        {
          "name": "A#2",
          "midi": 46,
          "time": 173.18196249999897,
          "velocity": 0.7874015748031497,
          "duration": 0.1363637499999868
        },
        {
          "name": "B2",
          "midi": 47,
          "time": 173.31832624999896,
          "velocity": 0.7874015748031497,
          "duration": 0.1363637499999868
        },
        {
          "name": "E3",
          "midi": 52,
          "time": 173.45468999999895,
          "velocity": 0.7874015748031497,
          "duration": 0.272727500000002
        },
        {
          "name": "A3",
          "midi": 57,
          "time": 173.72741749999895,
          "velocity": 0.7874015748031497,
          "duration": 0.545455000000004
        },
        {
          "name": "E3",
          "midi": 52,
          "time": 173.72741749999895,
          "velocity": 0.7874015748031497,
          "duration": 0.545455000000004
        },
        {
          "name": "A2",
          "midi": 45,
          "time": 173.72741749999895,
          "velocity": 0.7874015748031497,
          "duration": 0.545455000000004
        },
        {
          "name": "E2",
          "midi": 40,
          "time": 174.54559999999896,
          "velocity": 0.7874015748031497,
          "duration": 0.1363637499999868
        },
        {
          "name": "G2",
          "midi": 43,
          "time": 174.68196374999894,
          "velocity": 0.7874015748031497,
          "duration": 0.1363637499999868
        },
        {
          "name": "G#2",
          "midi": 44,
          "time": 174.81832749999893,
          "velocity": 0.7874015748031497,
          "duration": 0.1363637499999868
        },
        {
          "name": "E3",
          "midi": 52,
          "time": 174.95469124999892,
          "velocity": 0.7874015748031497,
          "duration": 0.1363637499999868
        },
        {
          "name": "A2",
          "midi": 45,
          "time": 175.2274187499989,
          "velocity": 0.7874015748031497,
          "duration": 0.1363637499999868
        },
        {
          "name": "A#2",
          "midi": 46,
          "time": 175.36378249999888,
          "velocity": 0.7874015748031497,
          "duration": 0.1363637499999868
        },
        {
          "name": "B2",
          "midi": 47,
          "time": 175.50014624999886,
          "velocity": 0.7874015748031497,
          "duration": 0.1363637499999868
        },
        {
          "name": "E3",
          "midi": 52,
          "time": 175.63650999999885,
          "velocity": 0.7874015748031497,
          "duration": 0.272727500000002
        },
        {
          "name": "E2",
          "midi": 40,
          "time": 175.90923749999885,
          "velocity": 0.7874015748031497,
          "duration": 0.272727500000002
        },
        {
          "name": "E2",
          "midi": 40,
          "time": 176.72741999999886,
          "velocity": 0.7874015748031497,
          "duration": 0.1363637499999868
        },
        {
          "name": "G2",
          "midi": 43,
          "time": 176.86378374999884,
          "velocity": 0.7874015748031497,
          "duration": 0.1363637499999868
        },
        {
          "name": "G#2",
          "midi": 44,
          "time": 177.00014749999883,
          "velocity": 0.7874015748031497,
          "duration": 0.1363637499999868
        },
        {
          "name": "E3",
          "midi": 52,
          "time": 177.13651124999882,
          "velocity": 0.7874015748031497,
          "duration": 0.1363637499999868
        },
        {
          "name": "A2",
          "midi": 45,
          "time": 177.4092387499988,
          "velocity": 0.7874015748031497,
          "duration": 0.1363637499999868
        },
        {
          "name": "A#2",
          "midi": 46,
          "time": 177.54560249999878,
          "velocity": 0.7874015748031497,
          "duration": 0.1363637499999868
        },
        {
          "name": "B2",
          "midi": 47,
          "time": 177.68196624999877,
          "velocity": 0.7874015748031497,
          "duration": 0.1363637499999868
        },
        {
          "name": "E3",
          "midi": 52,
          "time": 177.81832999999875,
          "velocity": 0.7874015748031497,
          "duration": 0.272727500000002
        },
        {
          "name": "A3",
          "midi": 57,
          "time": 178.09105749999875,
          "velocity": 0.7874015748031497,
          "duration": 0.545455000000004
        },
        {
          "name": "E3",
          "midi": 52,
          "time": 178.09105749999875,
          "velocity": 0.7874015748031497,
          "duration": 0.545455000000004
        },
        {
          "name": "A2",
          "midi": 45,
          "time": 178.09105749999875,
          "velocity": 0.7874015748031497,
          "duration": 0.545455000000004
        },
        {
          "name": "E2",
          "midi": 40,
          "time": 178.90923999999876,
          "velocity": 0.7874015748031497,
          "duration": 0.1363637499999868
        },
        {
          "name": "G2",
          "midi": 43,
          "time": 179.04560374999875,
          "velocity": 0.7874015748031497,
          "duration": 0.1363637499999868
        },
        {
          "name": "G#2",
          "midi": 44,
          "time": 179.18196749999873,
          "velocity": 0.7874015748031497,
          "duration": 0.1363637499999868
        },
        {
          "name": "E3",
          "midi": 52,
          "time": 179.31833124999872,
          "velocity": 0.7874015748031497,
          "duration": 0.1363637499999868
        },
        {
          "name": "A2",
          "midi": 45,
          "time": 179.5910587499987,
          "velocity": 0.7874015748031497,
          "duration": 0.1363637499999868
        },
        {
          "name": "A#2",
          "midi": 46,
          "time": 179.72742249999868,
          "velocity": 0.7874015748031497,
          "duration": 0.1363637499999868
        },
        {
          "name": "B2",
          "midi": 47,
          "time": 179.86378624999867,
          "velocity": 0.7874015748031497,
          "duration": 0.1363637499999868
        },
        {
          "name": "E3",
          "midi": 52,
          "time": 180.00014999999865,
          "velocity": 0.7874015748031497,
          "duration": 0.272727500000002
        },
        {
          "name": "E2",
          "midi": 40,
          "time": 180.27287749999866,
          "velocity": 0.7874015748031497,
          "duration": 0.272727500000002
        },
        {
          "name": "E2",
          "midi": 40,
          "time": 181.09105999999866,
          "velocity": 0.7874015748031497,
          "duration": 0.1363637499999868
        },
        {
          "name": "G2",
          "midi": 43,
          "time": 181.22742374999865,
          "velocity": 0.7874015748031497,
          "duration": 0.1363637499999868
        },
        {
          "name": "G#2",
          "midi": 44,
          "time": 181.36378749999864,
          "velocity": 0.7874015748031497,
          "duration": 0.1363637499999868
        },
        {
          "name": "E3",
          "midi": 52,
          "time": 181.50015124999862,
          "velocity": 0.7874015748031497,
          "duration": 0.1363637499999868
        },
        {
          "name": "A2",
          "midi": 45,
          "time": 181.7728787499986,
          "velocity": 0.7874015748031497,
          "duration": 0.1363637499999868
        },
        {
          "name": "A#2",
          "midi": 46,
          "time": 181.90924249999858,
          "velocity": 0.7874015748031497,
          "duration": 0.1363637499999868
        },
        {
          "name": "B2",
          "midi": 47,
          "time": 182.04560624999857,
          "velocity": 0.7874015748031497,
          "duration": 0.1363637499999868
        },
        {
          "name": "E3",
          "midi": 52,
          "time": 182.18196999999856,
          "velocity": 0.7874015748031497,
          "duration": 0.272727500000002
        },
        {
          "name": "A3",
          "midi": 57,
          "time": 182.45469749999856,
          "velocity": 0.7874015748031497,
          "duration": 0.545455000000004
        },
        {
          "name": "E3",
          "midi": 52,
          "time": 182.45469749999856,
          "velocity": 0.7874015748031497,
          "duration": 0.545455000000004
        },
        {
          "name": "A2",
          "midi": 45,
          "time": 182.45469749999856,
          "velocity": 0.7874015748031497,
          "duration": 0.545455000000004
        },
        {
          "name": "E2",
          "midi": 40,
          "time": 183.27287999999857,
          "velocity": 0.7874015748031497,
          "duration": 0.1363637499999868
        },
        {
          "name": "G2",
          "midi": 43,
          "time": 183.40924374999855,
          "velocity": 0.7874015748031497,
          "duration": 0.1363637499999868
        },
        {
          "name": "G#2",
          "midi": 44,
          "time": 183.54560749999854,
          "velocity": 0.7874015748031497,
          "duration": 0.1363637499999868
        },
        {
          "name": "E3",
          "midi": 52,
          "time": 183.68197124999853,
          "velocity": 0.7874015748031497,
          "duration": 0.1363637499999868
        },
        {
          "name": "A2",
          "midi": 45,
          "time": 183.9546987499985,
          "velocity": 0.7874015748031497,
          "duration": 0.1363637499999868
        },
        {
          "name": "A#2",
          "midi": 46,
          "time": 184.0910624999985,
          "velocity": 0.7874015748031497,
          "duration": 0.1363637499999868
        },
        {
          "name": "B2",
          "midi": 47,
          "time": 184.22742624999847,
          "velocity": 0.7874015748031497,
          "duration": 0.1363637499999868
        },
        {
          "name": "E3",
          "midi": 52,
          "time": 184.36378999999846,
          "velocity": 0.7874015748031497,
          "duration": 0.272727500000002
        },
        {
          "name": "E2",
          "midi": 40,
          "time": 184.63651749999846,
          "velocity": 0.7874015748031497,
          "duration": 0.272727500000002
        },
        {
          "name": "E2",
          "midi": 40,
          "time": 185.45469999999847,
          "velocity": 0.7874015748031497,
          "duration": 0.1363637499999868
        },
        {
          "name": "G2",
          "midi": 43,
          "time": 185.59106374999845,
          "velocity": 0.7874015748031497,
          "duration": 0.1363637499999868
        },
        {
          "name": "G#2",
          "midi": 44,
          "time": 185.72742749999844,
          "velocity": 0.7874015748031497,
          "duration": 0.1363637499999868
        },
        {
          "name": "E3",
          "midi": 52,
          "time": 185.86379124999843,
          "velocity": 0.7874015748031497,
          "duration": 0.1363637499999868
        },
        {
          "name": "A2",
          "midi": 45,
          "time": 186.1365187499984,
          "velocity": 0.7874015748031497,
          "duration": 0.1363637499999868
        },
        {
          "name": "A#2",
          "midi": 46,
          "time": 186.2728824999984,
          "velocity": 0.7874015748031497,
          "duration": 0.1363637499999868
        },
        {
          "name": "B2",
          "midi": 47,
          "time": 186.40924624999838,
          "velocity": 0.7874015748031497,
          "duration": 0.1363637499999868
        },
        {
          "name": "E3",
          "midi": 52,
          "time": 186.54560999999836,
          "velocity": 0.7874015748031497,
          "duration": 0.272727500000002
        },
        {
          "name": "A3",
          "midi": 57,
          "time": 186.81833749999836,
          "velocity": 0.7874015748031497,
          "duration": 0.545455000000004
        },
        {
          "name": "E3",
          "midi": 52,
          "time": 186.81833749999836,
          "velocity": 0.7874015748031497,
          "duration": 0.545455000000004
        },
        {
          "name": "A2",
          "midi": 45,
          "time": 186.81833749999836,
          "velocity": 0.7874015748031497,
          "duration": 0.545455000000004
        },
        {
          "name": "E2",
          "midi": 40,
          "time": 187.63651999999837,
          "velocity": 0.7874015748031497,
          "duration": 0.1363637499999868
        },
        {
          "name": "G2",
          "midi": 43,
          "time": 187.77288374999836,
          "velocity": 0.7874015748031497,
          "duration": 0.1363637499999868
        },
        {
          "name": "G#2",
          "midi": 44,
          "time": 187.90924749999834,
          "velocity": 0.7874015748031497,
          "duration": 0.1363637499999868
        },
        {
          "name": "E3",
          "midi": 52,
          "time": 188.04561124999833,
          "velocity": 0.7874015748031497,
          "duration": 0.1363637499999868
        },
        {
          "name": "A2",
          "midi": 45,
          "time": 188.3183387499983,
          "velocity": 0.7874015748031497,
          "duration": 0.1363637499999868
        },
        {
          "name": "A#2",
          "midi": 46,
          "time": 188.4547024999983,
          "velocity": 0.7874015748031497,
          "duration": 0.1363637499999868
        },
        {
          "name": "B2",
          "midi": 47,
          "time": 188.59106624999828,
          "velocity": 0.7874015748031497,
          "duration": 0.1363637499999868
        },
        {
          "name": "E3",
          "midi": 52,
          "time": 188.72742999999826,
          "velocity": 0.7874015748031497,
          "duration": 0.272727500000002
        },
        {
          "name": "E2",
          "midi": 40,
          "time": 189.00015749999827,
          "velocity": 0.7874015748031497,
          "duration": 0.272727500000002
        },
        {
          "name": "E2",
          "midi": 40,
          "time": 189.81833999999827,
          "velocity": 0.7874015748031497,
          "duration": 0.1363637499999868
        },
        {
          "name": "G2",
          "midi": 43,
          "time": 189.95470374999826,
          "velocity": 0.7874015748031497,
          "duration": 0.1363637499999868
        },
        {
          "name": "G#2",
          "midi": 44,
          "time": 190.09106749999825,
          "velocity": 0.7874015748031497,
          "duration": 0.1363637499999868
        },
        {
          "name": "E3",
          "midi": 52,
          "time": 190.22743124999823,
          "velocity": 0.7874015748031497,
          "duration": 0.1363637499999868
        },
        {
          "name": "A2",
          "midi": 45,
          "time": 190.5001587499982,
          "velocity": 0.7874015748031497,
          "duration": 0.1363637499999868
        },
        {
          "name": "A#2",
          "midi": 46,
          "time": 190.6365224999982,
          "velocity": 0.7874015748031497,
          "duration": 0.1363637499999868
        },
        {
          "name": "B2",
          "midi": 47,
          "time": 190.77288624999818,
          "velocity": 0.7874015748031497,
          "duration": 0.1363637499999868
        },
        {
          "name": "E3",
          "midi": 52,
          "time": 190.90924999999817,
          "velocity": 0.7874015748031497,
          "duration": 0.272727500000002
        },
        {
          "name": "A3",
          "midi": 57,
          "time": 191.18197749999817,
          "velocity": 0.7874015748031497,
          "duration": 0.545455000000004
        },
        {
          "name": "E3",
          "midi": 52,
          "time": 191.18197749999817,
          "velocity": 0.7874015748031497,
          "duration": 0.545455000000004
        },
        {
          "name": "A2",
          "midi": 45,
          "time": 191.18197749999817,
          "velocity": 0.7874015748031497,
          "duration": 0.545455000000004
        },
        {
          "name": "E2",
          "midi": 40,
          "time": 192.00015999999817,
          "velocity": 0.7874015748031497,
          "duration": 0.1363637499999868
        },
        {
          "name": "G2",
          "midi": 43,
          "time": 192.13652374999816,
          "velocity": 0.7874015748031497,
          "duration": 0.1363637499999868
        },
        {
          "name": "G#2",
          "midi": 44,
          "time": 192.27288749999815,
          "velocity": 0.7874015748031497,
          "duration": 0.1363637499999868
        },
        {
          "name": "E3",
          "midi": 52,
          "time": 192.40925124999814,
          "velocity": 0.7874015748031497,
          "duration": 0.1363637499999868
        },
        {
          "name": "A2",
          "midi": 45,
          "time": 192.6819787499981,
          "velocity": 0.7874015748031497,
          "duration": 0.1363637499999868
        },
        {
          "name": "A#2",
          "midi": 46,
          "time": 192.8183424999981,
          "velocity": 0.7874015748031497,
          "duration": 0.1363637499999868
        },
        {
          "name": "B2",
          "midi": 47,
          "time": 192.95470624999808,
          "velocity": 0.7874015748031497,
          "duration": 0.1363637499999868
        },
        {
          "name": "E3",
          "midi": 52,
          "time": 193.09106999999807,
          "velocity": 0.7874015748031497,
          "duration": 0.272727500000002
        },
        {
          "name": "E2",
          "midi": 40,
          "time": 193.36379749999807,
          "velocity": 0.7874015748031497,
          "duration": 0.272727500000002
        },
        {
          "name": "E2",
          "midi": 40,
          "time": 194.18197999999808,
          "velocity": 0.7874015748031497,
          "duration": 0.1363637499999868
        },
        {
          "name": "G2",
          "midi": 43,
          "time": 194.31834374999806,
          "velocity": 0.7874015748031497,
          "duration": 0.1363637499999868
        },
        {
          "name": "G#2",
          "midi": 44,
          "time": 194.45470749999805,
          "velocity": 0.7874015748031497,
          "duration": 0.1363637499999868
        },
        {
          "name": "E3",
          "midi": 52,
          "time": 194.59107124999804,
          "velocity": 0.7874015748031497,
          "duration": 0.1363637499999868
        },
        {
          "name": "A2",
          "midi": 45,
          "time": 194.863798749998,
          "velocity": 0.7874015748031497,
          "duration": 0.1363637499999868
        },
        {
          "name": "A#2",
          "midi": 46,
          "time": 195.000162499998,
          "velocity": 0.7874015748031497,
          "duration": 0.1363637499999868
        },
        {
          "name": "B2",
          "midi": 47,
          "time": 195.13652624999798,
          "velocity": 0.7874015748031497,
          "duration": 0.1363637499999868
        },
        {
          "name": "E3",
          "midi": 52,
          "time": 195.27288999999797,
          "velocity": 0.7874015748031497,
          "duration": 0.272727500000002
        },
        {
          "name": "A3",
          "midi": 57,
          "time": 195.54561749999797,
          "velocity": 0.7874015748031497,
          "duration": 0.545455000000004
        },
        {
          "name": "E3",
          "midi": 52,
          "time": 195.54561749999797,
          "velocity": 0.7874015748031497,
          "duration": 0.545455000000004
        },
        {
          "name": "A2",
          "midi": 45,
          "time": 195.54561749999797,
          "velocity": 0.7874015748031497,
          "duration": 0.545455000000004
        }
      ],
      "controlChanges": {
        "7": [
          {
            "number": 7,
            "time": 0,
            "value": 0.7874015748031497
          }
        ],
        "32": [
          {
            "number": 32,
            "time": 6.545460000000002,
            "value": 0.23622047244094488
          }
        ]
      },
      "id": 4,
      "name": "Distortion Guiar",
      "instrumentNumber": 30,
      "instrument": "distortion guitar",
      "instrumentFamily": "guitar",
      "channelNumber": 4,
      "isPercussion": false
    },
    {
      "startTime": 13.09092,
      "duration": 196.11379979166344,
      "length": 823,
      "notes": [
        {
          "name": "C2",
          "midi": 36,
          "time": 13.09092,
          "velocity": 0.7874015748031497,
          "duration": 0.27272750000000023
        },
        {
          "name": "C2",
          "midi": 36,
          "time": 13.50001125,
          "velocity": 0.7874015748031497,
          "duration": 0.13636374999999923
        },
        {
          "name": "A#1",
          "midi": 34,
          "time": 13.772738749999998,
          "velocity": 0.7874015748031497,
          "duration": 0.13636374999999923
        },
        {
          "name": "C2",
          "midi": 36,
          "time": 13.909102499999998,
          "velocity": 0.7874015748031497,
          "duration": 0.27272750000000023
        },
        {
          "name": "E1",
          "midi": 28,
          "time": 14.318193749999997,
          "velocity": 0.7874015748031497,
          "duration": 0.13636374999999923
        },
        {
          "name": "F1",
          "midi": 29,
          "time": 14.454557499999996,
          "velocity": 0.7874015748031497,
          "duration": 0.27272750000000023
        },
        {
          "name": "G1",
          "midi": 31,
          "time": 14.727284999999997,
          "velocity": 0.7874015748031497,
          "duration": 0.13636374999999923
        },
        {
          "name": "G1",
          "midi": 31,
          "time": 14.863648749999996,
          "velocity": 0.7874015748031497,
          "duration": 0.13636374999999923
        },
        {
          "name": "A1",
          "midi": 33,
          "time": 15.000012499999995,
          "velocity": 0.7874015748031497,
          "duration": 0.13636374999999923
        },
        {
          "name": "G1",
          "midi": 31,
          "time": 15.136376249999994,
          "velocity": 0.7874015748031497,
          "duration": 0.13636374999999923
        },
        {
          "name": "C2",
          "midi": 36,
          "time": 15.272739999999994,
          "velocity": 0.7874015748031497,
          "duration": 0.27272750000000023
        },
        {
          "name": "C2",
          "midi": 36,
          "time": 15.681831249999993,
          "velocity": 0.7874015748031497,
          "duration": 0.27272750000000023
        },
        {
          "name": "A#1",
          "midi": 34,
          "time": 15.954558749999993,
          "velocity": 0.7874015748031497,
          "duration": 0.136363750000001
        },
        {
          "name": "C2",
          "midi": 36,
          "time": 16.090922499999994,
          "velocity": 0.7874015748031497,
          "duration": 0.136363750000001
        },
        {
          "name": "E1",
          "midi": 28,
          "time": 16.227286249999995,
          "velocity": 0.7874015748031497,
          "duration": 0.136363750000001
        },
        {
          "name": "F1",
          "midi": 29,
          "time": 16.363649999999996,
          "velocity": 0.7874015748031497,
          "duration": 0.27272749999999846
        },
        {
          "name": "G1",
          "midi": 31,
          "time": 16.636377499999995,
          "velocity": 0.7874015748031497,
          "duration": 0.27272749999999846
        },
        {
          "name": "B1",
          "midi": 35,
          "time": 16.909104999999993,
          "velocity": 0.7874015748031497,
          "duration": 0.136363750000001
        },
        {
          "name": "G1",
          "midi": 31,
          "time": 17.045468749999994,
          "velocity": 0.7874015748031497,
          "duration": 0.136363750000001
        },
        {
          "name": "B1",
          "midi": 35,
          "time": 17.181832499999995,
          "velocity": 0.7874015748031497,
          "duration": 0.27272749999999846
        },
        {
          "name": "C2",
          "midi": 36,
          "time": 17.454559999999994,
          "velocity": 0.7874015748031497,
          "duration": 0.27272749999999846
        },
        {
          "name": "C2",
          "midi": 36,
          "time": 17.863651249999993,
          "velocity": 0.7874015748031497,
          "duration": 0.136363750000001
        },
        {
          "name": "A#1",
          "midi": 34,
          "time": 18.136378749999995,
          "velocity": 0.7874015748031497,
          "duration": 0.136363750000001
        },
        {
          "name": "C2",
          "midi": 36,
          "time": 18.272742499999996,
          "velocity": 0.7874015748031497,
          "duration": 0.27272749999999846
        },
        {
          "name": "E1",
          "midi": 28,
          "time": 18.681833749999996,
          "velocity": 0.7874015748031497,
          "duration": 0.136363750000001
        },
        {
          "name": "F1",
          "midi": 29,
          "time": 18.818197499999997,
          "velocity": 0.7874015748031497,
          "duration": 0.27272749999999846
        },
        {
          "name": "G1",
          "midi": 31,
          "time": 19.090924999999995,
          "velocity": 0.7874015748031497,
          "duration": 0.136363750000001
        },
        {
          "name": "G1",
          "midi": 31,
          "time": 19.227288749999996,
          "velocity": 0.7874015748031497,
          "duration": 0.136363750000001
        },
        {
          "name": "A1",
          "midi": 33,
          "time": 19.363652499999997,
          "velocity": 0.7874015748031497,
          "duration": 0.136363750000001
        },
        {
          "name": "G1",
          "midi": 31,
          "time": 19.500016249999998,
          "velocity": 0.7874015748031497,
          "duration": 0.136363750000001
        },
        {
          "name": "C2",
          "midi": 36,
          "time": 19.63638,
          "velocity": 0.7874015748031497,
          "duration": 0.27272749999999846
        },
        {
          "name": "C2",
          "midi": 36,
          "time": 20.04547125,
          "velocity": 0.7874015748031497,
          "duration": 0.27272749999999846
        },
        {
          "name": "A#1",
          "midi": 34,
          "time": 20.318198749999997,
          "velocity": 0.7874015748031497,
          "duration": 0.136363750000001
        },
        {
          "name": "C2",
          "midi": 36,
          "time": 20.454562499999998,
          "velocity": 0.7874015748031497,
          "duration": 0.136363750000001
        },
        {
          "name": "E1",
          "midi": 28,
          "time": 20.59092625,
          "velocity": 0.7874015748031497,
          "duration": 0.136363750000001
        },
        {
          "name": "F1",
          "midi": 29,
          "time": 20.72729,
          "velocity": 0.7874015748031497,
          "duration": 0.27272749999999846
        },
        {
          "name": "G1",
          "midi": 31,
          "time": 21.0000175,
          "velocity": 0.7874015748031497,
          "duration": 0.27272749999999846
        },
        {
          "name": "B1",
          "midi": 35,
          "time": 21.272744999999997,
          "velocity": 0.7874015748031497,
          "duration": 0.136363750000001
        },
        {
          "name": "G1",
          "midi": 31,
          "time": 21.409108749999998,
          "velocity": 0.7874015748031497,
          "duration": 0.136363750000001
        },
        {
          "name": "B1",
          "midi": 35,
          "time": 21.5454725,
          "velocity": 0.7874015748031497,
          "duration": 0.27272749999999846
        },
        {
          "name": "C2",
          "midi": 36,
          "time": 21.818199999999997,
          "velocity": 0.7874015748031497,
          "duration": 0.27272749999999846
        },
        {
          "name": "C2",
          "midi": 36,
          "time": 22.227291249999997,
          "velocity": 0.7874015748031497,
          "duration": 0.136363750000001
        },
        {
          "name": "A#1",
          "midi": 34,
          "time": 22.50001875,
          "velocity": 0.7874015748031497,
          "duration": 0.136363750000001
        },
        {
          "name": "C2",
          "midi": 36,
          "time": 22.6363825,
          "velocity": 0.7874015748031497,
          "duration": 0.27272749999999846
        },
        {
          "name": "E1",
          "midi": 28,
          "time": 23.04547375,
          "velocity": 0.7874015748031497,
          "duration": 0.136363750000001
        },
        {
          "name": "F1",
          "midi": 29,
          "time": 23.1818375,
          "velocity": 0.7874015748031497,
          "duration": 0.27272749999999846
        },
        {
          "name": "G1",
          "midi": 31,
          "time": 23.454565,
          "velocity": 0.7874015748031497,
          "duration": 0.136363750000001
        },
        {
          "name": "G1",
          "midi": 31,
          "time": 23.59092875,
          "velocity": 0.7874015748031497,
          "duration": 0.136363750000001
        },
        {
          "name": "A1",
          "midi": 33,
          "time": 23.7272925,
          "velocity": 0.7874015748031497,
          "duration": 0.136363750000001
        },
        {
          "name": "G1",
          "midi": 31,
          "time": 23.863656250000002,
          "velocity": 0.7874015748031497,
          "duration": 0.136363750000001
        },
        {
          "name": "C2",
          "midi": 36,
          "time": 24.000020000000003,
          "velocity": 0.7874015748031497,
          "duration": 0.27272749999999846
        },
        {
          "name": "C2",
          "midi": 36,
          "time": 24.409111250000002,
          "velocity": 0.7874015748031497,
          "duration": 0.27272749999999846
        },
        {
          "name": "A#1",
          "midi": 34,
          "time": 24.68183875,
          "velocity": 0.7874015748031497,
          "duration": 0.136363750000001
        },
        {
          "name": "C2",
          "midi": 36,
          "time": 24.8182025,
          "velocity": 0.7874015748031497,
          "duration": 0.136363750000001
        },
        {
          "name": "E1",
          "midi": 28,
          "time": 24.954566250000003,
          "velocity": 0.7874015748031497,
          "duration": 0.136363750000001
        },
        {
          "name": "F1",
          "midi": 29,
          "time": 25.090930000000004,
          "velocity": 0.7874015748031497,
          "duration": 0.27272749999999846
        },
        {
          "name": "G1",
          "midi": 31,
          "time": 25.363657500000002,
          "velocity": 0.7874015748031497,
          "duration": 0.27272749999999846
        },
        {
          "name": "B1",
          "midi": 35,
          "time": 25.636385,
          "velocity": 0.7874015748031497,
          "duration": 0.136363750000001
        },
        {
          "name": "G1",
          "midi": 31,
          "time": 25.77274875,
          "velocity": 0.7874015748031497,
          "duration": 0.136363750000001
        },
        {
          "name": "B1",
          "midi": 35,
          "time": 25.909112500000003,
          "velocity": 0.7874015748031497,
          "duration": 0.27272749999999846
        },
        {
          "name": "C2",
          "midi": 36,
          "time": 26.18184,
          "velocity": 0.7874015748031497,
          "duration": 0.27272749999999846
        },
        {
          "name": "C2",
          "midi": 36,
          "time": 26.59093125,
          "velocity": 0.7874015748031497,
          "duration": 0.136363750000001
        },
        {
          "name": "A#1",
          "midi": 34,
          "time": 26.863658750000003,
          "velocity": 0.7874015748031497,
          "duration": 0.136363750000001
        },
        {
          "name": "C2",
          "midi": 36,
          "time": 27.000022500000004,
          "velocity": 0.7874015748031497,
          "duration": 0.27272749999999846
        },
        {
          "name": "E1",
          "midi": 28,
          "time": 27.409113750000003,
          "velocity": 0.7874015748031497,
          "duration": 0.136363750000001
        },
        {
          "name": "F1",
          "midi": 29,
          "time": 27.545477500000004,
          "velocity": 0.7874015748031497,
          "duration": 0.27272749999999846
        },
        {
          "name": "G1",
          "midi": 31,
          "time": 27.818205000000003,
          "velocity": 0.7874015748031497,
          "duration": 0.136363750000001
        },
        {
          "name": "G1",
          "midi": 31,
          "time": 27.954568750000004,
          "velocity": 0.7874015748031497,
          "duration": 0.136363750000001
        },
        {
          "name": "A1",
          "midi": 33,
          "time": 28.090932500000005,
          "velocity": 0.7874015748031497,
          "duration": 0.136363750000001
        },
        {
          "name": "G1",
          "midi": 31,
          "time": 28.227296250000006,
          "velocity": 0.7874015748031497,
          "duration": 0.136363750000001
        },
        {
          "name": "C2",
          "midi": 36,
          "time": 28.363660000000007,
          "velocity": 0.7874015748031497,
          "duration": 0.27272749999999846
        },
        {
          "name": "C2",
          "midi": 36,
          "time": 28.772751250000006,
          "velocity": 0.7874015748031497,
          "duration": 0.27272749999999846
        },
        {
          "name": "A#1",
          "midi": 34,
          "time": 29.045478750000004,
          "velocity": 0.7874015748031497,
          "duration": 0.136363750000001
        },
        {
          "name": "C2",
          "midi": 36,
          "time": 29.181842500000005,
          "velocity": 0.7874015748031497,
          "duration": 0.36363666666666816
        },
        {
          "name": "E1",
          "midi": 28,
          "time": 29.59093375000001,
          "velocity": 0.7874015748031497,
          "duration": 0.136363750000001
        },
        {
          "name": "G1",
          "midi": 31,
          "time": 29.72729750000001,
          "velocity": 0.7874015748031497,
          "duration": 0.136363750000001
        },
        {
          "name": "G1",
          "midi": 31,
          "time": 29.86366125000001,
          "velocity": 0.7874015748031497,
          "duration": 0.136363750000001
        },
        {
          "name": "A1",
          "midi": 33,
          "time": 30.00002500000001,
          "velocity": 0.7874015748031497,
          "duration": 0.5454550000000005
        },
        {
          "name": "A1",
          "midi": 33,
          "time": 30.545480000000012,
          "velocity": 0.7874015748031497,
          "duration": 0.136363750000001
        },
        {
          "name": "A#1",
          "midi": 34,
          "time": 30.681843750000013,
          "velocity": 0.7874015748031497,
          "duration": 0.136363750000001
        },
        {
          "name": "C2",
          "midi": 36,
          "time": 30.818207500000014,
          "velocity": 0.7874015748031497,
          "duration": 0.136363750000001
        },
        {
          "name": "E2",
          "midi": 40,
          "time": 30.954571250000015,
          "velocity": 0.7874015748031497,
          "duration": 0.136363750000001
        },
        {
          "name": "A1",
          "midi": 33,
          "time": 31.227298750000017,
          "velocity": 0.7874015748031497,
          "duration": 0.136363750000001
        },
        {
          "name": "A#1",
          "midi": 34,
          "time": 31.363662500000018,
          "velocity": 0.7874015748031497,
          "duration": 0.136363750000001
        },
        {
          "name": "B1",
          "midi": 35,
          "time": 31.50002625000002,
          "velocity": 0.7874015748031497,
          "duration": 0.136363750000001
        },
        {
          "name": "E2",
          "midi": 40,
          "time": 31.63639000000002,
          "velocity": 0.7874015748031497,
          "duration": 0.27272749999999846
        },
        {
          "name": "E1",
          "midi": 28,
          "time": 31.90911750000002,
          "velocity": 0.7874015748031497,
          "duration": 0.27272749999999846
        },
        {
          "name": "A1",
          "midi": 33,
          "time": 32.727300000000014,
          "velocity": 0.7874015748031497,
          "duration": 0.136363750000001
        },
        {
          "name": "A#1",
          "midi": 34,
          "time": 32.863663750000015,
          "velocity": 0.7874015748031497,
          "duration": 0.136363750000001
        },
        {
          "name": "C2",
          "midi": 36,
          "time": 33.000027500000016,
          "velocity": 0.7874015748031497,
          "duration": 0.136363750000001
        },
        {
          "name": "E2",
          "midi": 40,
          "time": 33.13639125000002,
          "velocity": 0.7874015748031497,
          "duration": 0.136363750000001
        },
        {
          "name": "A1",
          "midi": 33,
          "time": 33.40911875000002,
          "velocity": 0.7874015748031497,
          "duration": 0.136363750000001
        },
        {
          "name": "A#1",
          "midi": 34,
          "time": 33.54548250000002,
          "velocity": 0.7874015748031497,
          "duration": 0.136363750000001
        },
        {
          "name": "B1",
          "midi": 35,
          "time": 33.68184625000002,
          "velocity": 0.7874015748031497,
          "duration": 0.136363750000001
        },
        {
          "name": "E2",
          "midi": 40,
          "time": 33.81821000000002,
          "velocity": 0.7874015748031497,
          "duration": 0.272727500000002
        },
        {
          "name": "E1",
          "midi": 28,
          "time": 34.090937500000024,
          "velocity": 0.7874015748031497,
          "duration": 0.272727500000002
        },
        {
          "name": "A1",
          "midi": 33,
          "time": 34.90912000000002,
          "velocity": 0.7874015748031497,
          "duration": 0.136363750000001
        },
        {
          "name": "A#1",
          "midi": 34,
          "time": 35.045483750000024,
          "velocity": 0.7874015748031497,
          "duration": 0.136363750000001
        },
        {
          "name": "C2",
          "midi": 36,
          "time": 35.181847500000025,
          "velocity": 0.7874015748031497,
          "duration": 0.136363750000001
        },
        {
          "name": "E2",
          "midi": 40,
          "time": 35.318211250000026,
          "velocity": 0.7874015748031497,
          "duration": 0.136363750000001
        },
        {
          "name": "A1",
          "midi": 33,
          "time": 35.59093875000003,
          "velocity": 0.7874015748031497,
          "duration": 0.136363750000001
        },
        {
          "name": "A#1",
          "midi": 34,
          "time": 35.72730250000003,
          "velocity": 0.7874015748031497,
          "duration": 0.136363750000001
        },
        {
          "name": "B1",
          "midi": 35,
          "time": 35.86366625000003,
          "velocity": 0.7874015748031497,
          "duration": 0.136363750000001
        },
        {
          "name": "E2",
          "midi": 40,
          "time": 36.00003000000003,
          "velocity": 0.7874015748031497,
          "duration": 0.272727500000002
        },
        {
          "name": "E1",
          "midi": 28,
          "time": 36.27275750000003,
          "velocity": 0.7874015748031497,
          "duration": 0.272727500000002
        },
        {
          "name": "A1",
          "midi": 33,
          "time": 37.09094000000003,
          "velocity": 0.7874015748031497,
          "duration": 0.136363750000001
        },
        {
          "name": "A#1",
          "midi": 34,
          "time": 37.22730375000003,
          "velocity": 0.7874015748031497,
          "duration": 0.136363750000001
        },
        {
          "name": "C2",
          "midi": 36,
          "time": 37.363667500000034,
          "velocity": 0.7874015748031497,
          "duration": 0.136363750000001
        },
        {
          "name": "E2",
          "midi": 40,
          "time": 37.500031250000035,
          "velocity": 0.7874015748031497,
          "duration": 0.136363750000001
        },
        {
          "name": "A1",
          "midi": 33,
          "time": 37.77275875000004,
          "velocity": 0.7874015748031497,
          "duration": 0.136363750000001
        },
        {
          "name": "A#1",
          "midi": 34,
          "time": 37.90912250000004,
          "velocity": 0.7874015748031497,
          "duration": 0.136363750000001
        },
        {
          "name": "B1",
          "midi": 35,
          "time": 38.04548625000004,
          "velocity": 0.7874015748031497,
          "duration": 0.136363750000001
        },
        {
          "name": "E2",
          "midi": 40,
          "time": 38.18185000000004,
          "velocity": 0.7874015748031497,
          "duration": 0.272727500000002
        },
        {
          "name": "A1",
          "midi": 33,
          "time": 38.45457750000004,
          "velocity": 0.7874015748031497,
          "duration": 0.5454549999999969
        },
        {
          "name": "C2",
          "midi": 36,
          "time": 39.27276000000004,
          "velocity": 0.7874015748031497,
          "duration": 0.272727500000002
        },
        {
          "name": "C2",
          "midi": 36,
          "time": 39.681851250000044,
          "velocity": 0.7874015748031497,
          "duration": 0.136363750000001
        },
        {
          "name": "A#1",
          "midi": 34,
          "time": 39.954578750000046,
          "velocity": 0.7874015748031497,
          "duration": 0.136363750000001
        },
        {
          "name": "C2",
          "midi": 36,
          "time": 40.09094250000005,
          "velocity": 0.7874015748031497,
          "duration": 0.272727500000002
        },
        {
          "name": "E1",
          "midi": 28,
          "time": 40.50003375000005,
          "velocity": 0.7874015748031497,
          "duration": 0.136363750000001
        },
        {
          "name": "F1",
          "midi": 29,
          "time": 40.63639750000005,
          "velocity": 0.7874015748031497,
          "duration": 0.272727500000002
        },
        {
          "name": "G1",
          "midi": 31,
          "time": 40.90912500000005,
          "velocity": 0.7874015748031497,
          "duration": 0.136363750000001
        },
        {
          "name": "G1",
          "midi": 31,
          "time": 41.045488750000054,
          "velocity": 0.7874015748031497,
          "duration": 0.136363750000001
        },
        {
          "name": "A1",
          "midi": 33,
          "time": 41.181852500000055,
          "velocity": 0.7874015748031497,
          "duration": 0.136363750000001
        },
        {
          "name": "G1",
          "midi": 31,
          "time": 41.318216250000056,
          "velocity": 0.7874015748031497,
          "duration": 0.136363750000001
        },
        {
          "name": "C2",
          "midi": 36,
          "time": 41.45458000000006,
          "velocity": 0.7874015748031497,
          "duration": 0.272727500000002
        },
        {
          "name": "C2",
          "midi": 36,
          "time": 41.86367125000006,
          "velocity": 0.7874015748031497,
          "duration": 0.272727500000002
        },
        {
          "name": "A#1",
          "midi": 34,
          "time": 42.13639875000006,
          "velocity": 0.7874015748031497,
          "duration": 0.136363750000001
        },
        {
          "name": "C2",
          "midi": 36,
          "time": 42.27276250000006,
          "velocity": 0.7874015748031497,
          "duration": 0.136363750000001
        },
        {
          "name": "E1",
          "midi": 28,
          "time": 42.409126250000064,
          "velocity": 0.7874015748031497,
          "duration": 0.136363750000001
        },
        {
          "name": "F1",
          "midi": 29,
          "time": 42.545490000000065,
          "velocity": 0.7874015748031497,
          "duration": 0.272727500000002
        },
        {
          "name": "G1",
          "midi": 31,
          "time": 42.81821750000007,
          "velocity": 0.7874015748031497,
          "duration": 0.272727500000002
        },
        {
          "name": "B1",
          "midi": 35,
          "time": 43.09094500000007,
          "velocity": 0.7874015748031497,
          "duration": 0.136363750000001
        },
        {
          "name": "G1",
          "midi": 31,
          "time": 43.22730875000007,
          "velocity": 0.7874015748031497,
          "duration": 0.136363750000001
        },
        {
          "name": "B1",
          "midi": 35,
          "time": 43.36367250000007,
          "velocity": 0.7874015748031497,
          "duration": 0.272727500000002
        },
        {
          "name": "C2",
          "midi": 36,
          "time": 43.63640000000007,
          "velocity": 0.7874015748031497,
          "duration": 0.272727500000002
        },
        {
          "name": "C2",
          "midi": 36,
          "time": 44.045491250000076,
          "velocity": 0.7874015748031497,
          "duration": 0.136363750000001
        },
        {
          "name": "A#1",
          "midi": 34,
          "time": 44.31821875000008,
          "velocity": 0.7874015748031497,
          "duration": 0.136363750000001
        },
        {
          "name": "C2",
          "midi": 36,
          "time": 44.45458250000008,
          "velocity": 0.7874015748031497,
          "duration": 0.272727500000002
        },
        {
          "name": "E1",
          "midi": 28,
          "time": 44.86367375000008,
          "velocity": 0.7874015748031497,
          "duration": 0.136363750000001
        },
        {
          "name": "F1",
          "midi": 29,
          "time": 45.00003750000008,
          "velocity": 0.7874015748031497,
          "duration": 0.272727500000002
        },
        {
          "name": "G1",
          "midi": 31,
          "time": 45.272765000000085,
          "velocity": 0.7874015748031497,
          "duration": 0.136363750000001
        },
        {
          "name": "G1",
          "midi": 31,
          "time": 45.409128750000086,
          "velocity": 0.7874015748031497,
          "duration": 0.136363750000001
        },
        {
          "name": "A1",
          "midi": 33,
          "time": 45.54549250000009,
          "velocity": 0.7874015748031497,
          "duration": 0.136363750000001
        },
        {
          "name": "G1",
          "midi": 31,
          "time": 45.68185625000009,
          "velocity": 0.7874015748031497,
          "duration": 0.136363750000001
        },
        {
          "name": "C2",
          "midi": 36,
          "time": 45.81822000000009,
          "velocity": 0.7874015748031497,
          "duration": 0.272727500000002
        },
        {
          "name": "C2",
          "midi": 36,
          "time": 46.22731125000009,
          "velocity": 0.7874015748031497,
          "duration": 0.272727500000002
        },
        {
          "name": "A#1",
          "midi": 34,
          "time": 46.500038750000094,
          "velocity": 0.7874015748031497,
          "duration": 0.136363750000001
        },
        {
          "name": "C2",
          "midi": 36,
          "time": 46.636402500000095,
          "velocity": 0.7874015748031497,
          "duration": 0.136363750000001
        },
        {
          "name": "E1",
          "midi": 28,
          "time": 46.772766250000096,
          "velocity": 0.7874015748031497,
          "duration": 0.136363750000001
        },
        {
          "name": "F1",
          "midi": 29,
          "time": 46.9091300000001,
          "velocity": 0.7874015748031497,
          "duration": 0.272727500000002
        },
        {
          "name": "G1",
          "midi": 31,
          "time": 47.1818575000001,
          "velocity": 0.7874015748031497,
          "duration": 0.272727500000002
        },
        {
          "name": "B1",
          "midi": 35,
          "time": 47.4545850000001,
          "velocity": 0.7874015748031497,
          "duration": 0.136363750000001
        },
        {
          "name": "G1",
          "midi": 31,
          "time": 47.5909487500001,
          "velocity": 0.7874015748031497,
          "duration": 0.136363750000001
        },
        {
          "name": "B1",
          "midi": 35,
          "time": 47.7273125000001,
          "velocity": 0.7874015748031497,
          "duration": 0.272727500000002
        },
        {
          "name": "C2",
          "midi": 36,
          "time": 48.000040000000105,
          "velocity": 0.7874015748031497,
          "duration": 0.272727500000002
        },
        {
          "name": "C2",
          "midi": 36,
          "time": 48.40913125000011,
          "velocity": 0.7874015748031497,
          "duration": 0.136363750000001
        },
        {
          "name": "A#1",
          "midi": 34,
          "time": 48.68185875000011,
          "velocity": 0.7874015748031497,
          "duration": 0.136363750000001
        },
        {
          "name": "C2",
          "midi": 36,
          "time": 48.81822250000011,
          "velocity": 0.7874015748031497,
          "duration": 0.272727500000002
        },
        {
          "name": "E1",
          "midi": 28,
          "time": 49.227313750000114,
          "velocity": 0.7874015748031497,
          "duration": 0.136363750000001
        },
        {
          "name": "F1",
          "midi": 29,
          "time": 49.363677500000115,
          "velocity": 0.7874015748031497,
          "duration": 0.272727500000002
        },
        {
          "name": "G1",
          "midi": 31,
          "time": 49.63640500000012,
          "velocity": 0.7874015748031497,
          "duration": 0.136363750000001
        },
        {
          "name": "G1",
          "midi": 31,
          "time": 49.77276875000012,
          "velocity": 0.7874015748031497,
          "duration": 0.136363750000001
        },
        {
          "name": "A1",
          "midi": 33,
          "time": 49.90913250000012,
          "velocity": 0.7874015748031497,
          "duration": 0.136363750000001
        },
        {
          "name": "G1",
          "midi": 31,
          "time": 50.04549625000012,
          "velocity": 0.7874015748031497,
          "duration": 0.136363750000001
        },
        {
          "name": "C2",
          "midi": 36,
          "time": 50.18186000000012,
          "velocity": 0.7874015748031497,
          "duration": 0.272727500000002
        },
        {
          "name": "C2",
          "midi": 36,
          "time": 50.590951250000124,
          "velocity": 0.7874015748031497,
          "duration": 0.272727500000002
        },
        {
          "name": "A#1",
          "midi": 34,
          "time": 50.863678750000126,
          "velocity": 0.7874015748031497,
          "duration": 0.136363750000001
        },
        {
          "name": "C2",
          "midi": 36,
          "time": 51.00004250000013,
          "velocity": 0.7874015748031497,
          "duration": 0.136363750000001
        },
        {
          "name": "E1",
          "midi": 28,
          "time": 51.13640625000013,
          "velocity": 0.7874015748031497,
          "duration": 0.136363750000001
        },
        {
          "name": "F1",
          "midi": 29,
          "time": 51.27277000000013,
          "velocity": 0.7874015748031497,
          "duration": 0.272727500000002
        },
        {
          "name": "G1",
          "midi": 31,
          "time": 51.54549750000013,
          "velocity": 0.7874015748031497,
          "duration": 0.272727500000002
        },
        {
          "name": "B1",
          "midi": 35,
          "time": 51.81822500000013,
          "velocity": 0.7874015748031497,
          "duration": 0.136363750000001
        },
        {
          "name": "G1",
          "midi": 31,
          "time": 51.954588750000134,
          "velocity": 0.7874015748031497,
          "duration": 0.136363750000001
        },
        {
          "name": "B1",
          "midi": 35,
          "time": 52.090952500000135,
          "velocity": 0.7874015748031497,
          "duration": 0.272727500000002
        },
        {
          "name": "C2",
          "midi": 36,
          "time": 52.36368000000014,
          "velocity": 0.7874015748031497,
          "duration": 0.272727500000002
        },
        {
          "name": "C2",
          "midi": 36,
          "time": 52.77277125000014,
          "velocity": 0.7874015748031497,
          "duration": 0.136363750000001
        },
        {
          "name": "A#1",
          "midi": 34,
          "time": 53.04549875000014,
          "velocity": 0.7874015748031497,
          "duration": 0.136363750000001
        },
        {
          "name": "C2",
          "midi": 36,
          "time": 53.18186250000014,
          "velocity": 0.7874015748031497,
          "duration": 0.272727500000002
        },
        {
          "name": "E1",
          "midi": 28,
          "time": 53.590953750000146,
          "velocity": 0.7874015748031497,
          "duration": 0.136363750000001
        },
        {
          "name": "F1",
          "midi": 29,
          "time": 53.72731750000015,
          "velocity": 0.7874015748031497,
          "duration": 0.272727500000002
        },
        {
          "name": "G1",
          "midi": 31,
          "time": 54.00004500000015,
          "velocity": 0.7874015748031497,
          "duration": 0.136363750000001
        },
        {
          "name": "G1",
          "midi": 31,
          "time": 54.13640875000015,
          "velocity": 0.7874015748031497,
          "duration": 0.136363750000001
        },
        {
          "name": "A1",
          "midi": 33,
          "time": 54.27277250000015,
          "velocity": 0.7874015748031497,
          "duration": 0.136363750000001
        },
        {
          "name": "G1",
          "midi": 31,
          "time": 54.40913625000015,
          "velocity": 0.7874015748031497,
          "duration": 0.136363750000001
        },
        {
          "name": "C2",
          "midi": 36,
          "time": 54.54550000000015,
          "velocity": 0.7874015748031497,
          "duration": 0.272727500000002
        },
        {
          "name": "C2",
          "midi": 36,
          "time": 54.954591250000156,
          "velocity": 0.7874015748031497,
          "duration": 0.272727500000002
        },
        {
          "name": "A#1",
          "midi": 34,
          "time": 55.22731875000016,
          "velocity": 0.7874015748031497,
          "duration": 0.136363750000001
        },
        {
          "name": "C2",
          "midi": 36,
          "time": 55.36368250000016,
          "velocity": 0.7874015748031497,
          "duration": 0.3636366666666646
        },
        {
          "name": "E1",
          "midi": 28,
          "time": 55.772773750000155,
          "velocity": 0.7874015748031497,
          "duration": 0.136363750000001
        },
        {
          "name": "G1",
          "midi": 31,
          "time": 55.909137500000156,
          "velocity": 0.7874015748031497,
          "duration": 0.136363750000001
        },
        {
          "name": "G1",
          "midi": 31,
          "time": 56.04550125000016,
          "velocity": 0.7874015748031497,
          "duration": 0.136363750000001
        },
        {
          "name": "A1",
          "midi": 33,
          "time": 56.18186500000016,
          "velocity": 0.7874015748031497,
          "duration": 0.5454549999999969
        },
        {
          "name": "C2",
          "midi": 36,
          "time": 56.727320000000155,
          "velocity": 0.7874015748031497,
          "duration": 0.136363750000001
        },
        {
          "name": "C2",
          "midi": 36,
          "time": 56.863683750000156,
          "velocity": 0.7874015748031497,
          "duration": 0.136363750000001
        },
        {
          "name": "C2",
          "midi": 36,
          "time": 57.00004750000016,
          "velocity": 0.7874015748031497,
          "duration": 0.136363750000001
        },
        {
          "name": "C2",
          "midi": 36,
          "time": 57.13641125000016,
          "velocity": 0.7874015748031497,
          "duration": 0.136363750000001
        },
        {
          "name": "C2",
          "midi": 36,
          "time": 57.54550250000016,
          "velocity": 0.7874015748031497,
          "duration": 0.136363750000001
        },
        {
          "name": "C2",
          "midi": 36,
          "time": 57.68186625000016,
          "velocity": 0.7874015748031497,
          "duration": 0.136363750000001
        },
        {
          "name": "C2",
          "midi": 36,
          "time": 57.81823000000016,
          "velocity": 0.7874015748031497,
          "duration": 0.136363750000001
        },
        {
          "name": "C2",
          "midi": 36,
          "time": 57.954593750000164,
          "velocity": 0.7874015748031497,
          "duration": 0.136363750000001
        },
        {
          "name": "C2",
          "midi": 36,
          "time": 58.090957500000165,
          "velocity": 0.7874015748031497,
          "duration": 0.272727500000002
        },
        {
          "name": "C2",
          "midi": 36,
          "time": 58.36368500000017,
          "velocity": 0.7874015748031497,
          "duration": 0.136363750000001
        },
        {
          "name": "C2",
          "midi": 36,
          "time": 58.50004875000017,
          "velocity": 0.7874015748031497,
          "duration": 0.136363750000001
        },
        {
          "name": "D#2",
          "midi": 39,
          "time": 58.63641250000017,
          "velocity": 0.7874015748031497,
          "duration": 0.136363750000001
        },
        {
          "name": "E2",
          "midi": 40,
          "time": 58.77277625000017,
          "velocity": 0.7874015748031497,
          "duration": 0.136363750000001
        },
        {
          "name": "F2",
          "midi": 41,
          "time": 58.90914000000017,
          "velocity": 0.7874015748031497,
          "duration": 0.136363750000001
        },
        {
          "name": "F2",
          "midi": 41,
          "time": 59.04550375000017,
          "velocity": 0.7874015748031497,
          "duration": 0.136363750000001
        },
        {
          "name": "F2",
          "midi": 41,
          "time": 59.18186750000017,
          "velocity": 0.7874015748031497,
          "duration": 0.136363750000001
        },
        {
          "name": "F2",
          "midi": 41,
          "time": 59.318231250000174,
          "velocity": 0.7874015748031497,
          "duration": 0.136363750000001
        },
        {
          "name": "F#2",
          "midi": 42,
          "time": 59.454595000000175,
          "velocity": 0.7874015748031497,
          "duration": 0.272727500000002
        },
        {
          "name": "F2",
          "midi": 41,
          "time": 60.00005000000018,
          "velocity": 0.7874015748031497,
          "duration": 0.136363750000001
        },
        {
          "name": "G2",
          "midi": 43,
          "time": 60.13641375000018,
          "velocity": 0.7874015748031497,
          "duration": 0.136363750000001
        },
        {
          "name": "A#2",
          "midi": 46,
          "time": 60.27277750000018,
          "velocity": 0.7874015748031497,
          "duration": 0.136363750000001
        },
        {
          "name": "G2",
          "midi": 43,
          "time": 60.40914125000018,
          "velocity": 0.7874015748031497,
          "duration": 0.136363750000001
        },
        {
          "name": "F2",
          "midi": 41,
          "time": 60.54550500000018,
          "velocity": 0.7874015748031497,
          "duration": 0.136363750000001
        },
        {
          "name": "D#2",
          "midi": 39,
          "time": 60.681868750000184,
          "velocity": 0.7874015748031497,
          "duration": 0.136363750000001
        },
        {
          "name": "C2",
          "midi": 36,
          "time": 60.818232500000185,
          "velocity": 0.7874015748031497,
          "duration": 0.136363750000001
        },
        {
          "name": "A#1",
          "midi": 34,
          "time": 60.954596250000186,
          "velocity": 0.7874015748031497,
          "duration": 0.136363750000001
        },
        {
          "name": "C2",
          "midi": 36,
          "time": 61.09096000000019,
          "velocity": 0.7874015748031497,
          "duration": 0.136363750000001
        },
        {
          "name": "C2",
          "midi": 36,
          "time": 61.22732375000019,
          "velocity": 0.7874015748031497,
          "duration": 0.136363750000001
        },
        {
          "name": "C2",
          "midi": 36,
          "time": 61.36368750000019,
          "velocity": 0.7874015748031497,
          "duration": 0.136363750000001
        },
        {
          "name": "C2",
          "midi": 36,
          "time": 61.50005125000019,
          "velocity": 0.7874015748031497,
          "duration": 0.136363750000001
        },
        {
          "name": "C2",
          "midi": 36,
          "time": 61.90914250000019,
          "velocity": 0.7874015748031497,
          "duration": 0.136363750000001
        },
        {
          "name": "C2",
          "midi": 36,
          "time": 62.045506250000194,
          "velocity": 0.7874015748031497,
          "duration": 0.136363750000001
        },
        {
          "name": "C2",
          "midi": 36,
          "time": 62.181870000000195,
          "velocity": 0.7874015748031497,
          "duration": 0.136363750000001
        },
        {
          "name": "C2",
          "midi": 36,
          "time": 62.318233750000196,
          "velocity": 0.7874015748031497,
          "duration": 0.136363750000001
        },
        {
          "name": "C2",
          "midi": 36,
          "time": 62.4545975000002,
          "velocity": 0.7874015748031497,
          "duration": 0.272727500000002
        },
        {
          "name": "C2",
          "midi": 36,
          "time": 62.7273250000002,
          "velocity": 0.7874015748031497,
          "duration": 0.136363750000001
        },
        {
          "name": "C2",
          "midi": 36,
          "time": 62.8636887500002,
          "velocity": 0.7874015748031497,
          "duration": 0.136363750000001
        },
        {
          "name": "D#2",
          "midi": 39,
          "time": 63.0000525000002,
          "velocity": 0.7874015748031497,
          "duration": 0.136363750000001
        },
        {
          "name": "E2",
          "midi": 40,
          "time": 63.1364162500002,
          "velocity": 0.7874015748031497,
          "duration": 0.136363750000001
        },
        {
          "name": "F2",
          "midi": 41,
          "time": 63.2727800000002,
          "velocity": 0.7874015748031497,
          "duration": 0.136363750000001
        },
        {
          "name": "F2",
          "midi": 41,
          "time": 63.409143750000204,
          "velocity": 0.7874015748031497,
          "duration": 0.136363750000001
        },
        {
          "name": "F2",
          "midi": 41,
          "time": 63.545507500000205,
          "velocity": 0.7874015748031497,
          "duration": 0.136363750000001
        },
        {
          "name": "F2",
          "midi": 41,
          "time": 63.681871250000206,
          "velocity": 0.7874015748031497,
          "duration": 0.136363750000001
        },
        {
          "name": "F#2",
          "midi": 42,
          "time": 63.81823500000021,
          "velocity": 0.7874015748031497,
          "duration": 0.2727274999999949
        },
        {
          "name": "F2",
          "midi": 41,
          "time": 64.3636900000002,
          "velocity": 0.7874015748031497,
          "duration": 0.136363750000001
        },
        {
          "name": "G2",
          "midi": 43,
          "time": 64.5000537500002,
          "velocity": 0.7874015748031497,
          "duration": 0.136363750000001
        },
        {
          "name": "A#2",
          "midi": 46,
          "time": 64.6364175000002,
          "velocity": 0.7874015748031497,
          "duration": 0.136363750000001
        },
        {
          "name": "G2",
          "midi": 43,
          "time": 64.77278125000021,
          "velocity": 0.7874015748031497,
          "duration": 0.136363750000001
        },
        {
          "name": "F2",
          "midi": 41,
          "time": 64.90914500000021,
          "velocity": 0.7874015748031497,
          "duration": 0.136363750000001
        },
        {
          "name": "D#2",
          "midi": 39,
          "time": 65.04550875000021,
          "velocity": 0.7874015748031497,
          "duration": 0.136363750000001
        },
        {
          "name": "C2",
          "midi": 36,
          "time": 65.18187250000021,
          "velocity": 0.7874015748031497,
          "duration": 0.136363750000001
        },
        {
          "name": "A#1",
          "midi": 34,
          "time": 65.31823625000021,
          "velocity": 0.7874015748031497,
          "duration": 0.136363750000001
        },
        {
          "name": "C2",
          "midi": 36,
          "time": 65.45460000000021,
          "velocity": 0.7874015748031497,
          "duration": 0.272727500000002
        },
        {
          "name": "C2",
          "midi": 36,
          "time": 65.86369125000022,
          "velocity": 0.7874015748031497,
          "duration": 0.136363750000001
        },
        {
          "name": "A#1",
          "midi": 34,
          "time": 66.13641875000022,
          "velocity": 0.7874015748031497,
          "duration": 0.136363750000001
        },
        {
          "name": "C2",
          "midi": 36,
          "time": 66.27278250000022,
          "velocity": 0.7874015748031497,
          "duration": 0.272727500000002
        },
        {
          "name": "E1",
          "midi": 28,
          "time": 66.68187375000022,
          "velocity": 0.7874015748031497,
          "duration": 0.136363750000001
        },
        {
          "name": "F1",
          "midi": 29,
          "time": 66.81823750000022,
          "velocity": 0.7874015748031497,
          "duration": 0.272727500000002
        },
        {
          "name": "G1",
          "midi": 31,
          "time": 67.09096500000022,
          "velocity": 0.7874015748031497,
          "duration": 0.136363750000001
        },
        {
          "name": "G1",
          "midi": 31,
          "time": 67.22732875000023,
          "velocity": 0.7874015748031497,
          "duration": 0.136363750000001
        },
        {
          "name": "A1",
          "midi": 33,
          "time": 67.36369250000023,
          "velocity": 0.7874015748031497,
          "duration": 0.136363750000001
        },
        {
          "name": "G1",
          "midi": 31,
          "time": 67.50005625000023,
          "velocity": 0.7874015748031497,
          "duration": 0.136363750000001
        },
        {
          "name": "C2",
          "midi": 36,
          "time": 67.63642000000023,
          "velocity": 0.7874015748031497,
          "duration": 0.272727500000002
        },
        {
          "name": "C2",
          "midi": 36,
          "time": 68.04551125000023,
          "velocity": 0.7874015748031497,
          "duration": 0.272727500000002
        },
        {
          "name": "A#1",
          "midi": 34,
          "time": 68.31823875000023,
          "velocity": 0.7874015748031497,
          "duration": 0.136363750000001
        },
        {
          "name": "C2",
          "midi": 36,
          "time": 68.45460250000023,
          "velocity": 0.7874015748031497,
          "duration": 0.136363750000001
        },
        {
          "name": "E1",
          "midi": 28,
          "time": 68.59096625000024,
          "velocity": 0.7874015748031497,
          "duration": 0.136363750000001
        },
        {
          "name": "F1",
          "midi": 29,
          "time": 68.72733000000024,
          "velocity": 0.7874015748031497,
          "duration": 0.272727500000002
        },
        {
          "name": "G1",
          "midi": 31,
          "time": 69.00005750000024,
          "velocity": 0.7874015748031497,
          "duration": 0.272727500000002
        },
        {
          "name": "B1",
          "midi": 35,
          "time": 69.27278500000024,
          "velocity": 0.7874015748031497,
          "duration": 0.136363750000001
        },
        {
          "name": "G1",
          "midi": 31,
          "time": 69.40914875000024,
          "velocity": 0.7874015748031497,
          "duration": 0.136363750000001
        },
        {
          "name": "B1",
          "midi": 35,
          "time": 69.54551250000024,
          "velocity": 0.7874015748031497,
          "duration": 0.272727500000002
        },
        {
          "name": "C2",
          "midi": 36,
          "time": 69.81824000000024,
          "velocity": 0.7874015748031497,
          "duration": 0.272727500000002
        },
        {
          "name": "C2",
          "midi": 36,
          "time": 70.22733125000025,
          "velocity": 0.7874015748031497,
          "duration": 0.136363750000001
        },
        {
          "name": "A#1",
          "midi": 34,
          "time": 70.50005875000025,
          "velocity": 0.7874015748031497,
          "duration": 0.136363750000001
        },
        {
          "name": "C2",
          "midi": 36,
          "time": 70.63642250000025,
          "velocity": 0.7874015748031497,
          "duration": 0.272727500000002
        },
        {
          "name": "E1",
          "midi": 28,
          "time": 71.04551375000025,
          "velocity": 0.7874015748031497,
          "duration": 0.136363750000001
        },
        {
          "name": "F1",
          "midi": 29,
          "time": 71.18187750000025,
          "velocity": 0.7874015748031497,
          "duration": 0.272727500000002
        },
        {
          "name": "G1",
          "midi": 31,
          "time": 71.45460500000026,
          "velocity": 0.7874015748031497,
          "duration": 0.136363750000001
        },
        {
          "name": "G1",
          "midi": 31,
          "time": 71.59096875000026,
          "velocity": 0.7874015748031497,
          "duration": 0.136363750000001
        },
        {
          "name": "A1",
          "midi": 33,
          "time": 71.72733250000026,
          "velocity": 0.7874015748031497,
          "duration": 0.136363750000001
        },
        {
          "name": "G1",
          "midi": 31,
          "time": 71.86369625000026,
          "velocity": 0.7874015748031497,
          "duration": 0.136363750000001
        },
        {
          "name": "C2",
          "midi": 36,
          "time": 72.00006000000026,
          "velocity": 0.7874015748031497,
          "duration": 0.272727500000002
        },
        {
          "name": "C2",
          "midi": 36,
          "time": 72.40915125000026,
          "velocity": 0.7874015748031497,
          "duration": 0.272727500000002
        },
        {
          "name": "A#1",
          "midi": 34,
          "time": 72.68187875000027,
          "velocity": 0.7874015748031497,
          "duration": 0.136363750000001
        },
        {
          "name": "C2",
          "midi": 36,
          "time": 72.81824250000027,
          "velocity": 0.7874015748031497,
          "duration": 0.3636366666666646
        },
        {
          "name": "E1",
          "midi": 28,
          "time": 73.22733375000027,
          "velocity": 0.7874015748031497,
          "duration": 0.136363750000001
        },
        {
          "name": "G1",
          "midi": 31,
          "time": 73.36369750000027,
          "velocity": 0.7874015748031497,
          "duration": 0.136363750000001
        },
        {
          "name": "G1",
          "midi": 31,
          "time": 73.50006125000027,
          "velocity": 0.7874015748031497,
          "duration": 0.136363750000001
        },
        {
          "name": "A1",
          "midi": 33,
          "time": 73.63642500000027,
          "velocity": 0.7874015748031497,
          "duration": 0.545455000000004
        },
        {
          "name": "A1",
          "midi": 33,
          "time": 74.18188000000028,
          "velocity": 0.7874015748031497,
          "duration": 0.136363750000001
        },
        {
          "name": "A#1",
          "midi": 34,
          "time": 74.31824375000028,
          "velocity": 0.7874015748031497,
          "duration": 0.136363750000001
        },
        {
          "name": "C2",
          "midi": 36,
          "time": 74.45460750000028,
          "velocity": 0.7874015748031497,
          "duration": 0.136363750000001
        },
        {
          "name": "E2",
          "midi": 40,
          "time": 74.59097125000028,
          "velocity": 0.7874015748031497,
          "duration": 0.136363750000001
        },
        {
          "name": "A1",
          "midi": 33,
          "time": 74.86369875000028,
          "velocity": 0.7874015748031497,
          "duration": 0.136363750000001
        },
        {
          "name": "A#1",
          "midi": 34,
          "time": 75.00006250000028,
          "velocity": 0.7874015748031497,
          "duration": 0.136363750000001
        },
        {
          "name": "B1",
          "midi": 35,
          "time": 75.13642625000028,
          "velocity": 0.7874015748031497,
          "duration": 0.136363750000001
        },
        {
          "name": "E2",
          "midi": 40,
          "time": 75.27279000000028,
          "velocity": 0.7874015748031497,
          "duration": 0.272727500000002
        },
        {
          "name": "E1",
          "midi": 28,
          "time": 75.54551750000029,
          "velocity": 0.7874015748031497,
          "duration": 0.272727500000002
        },
        {
          "name": "A1",
          "midi": 33,
          "time": 76.36370000000029,
          "velocity": 0.7874015748031497,
          "duration": 0.136363750000001
        },
        {
          "name": "A#1",
          "midi": 34,
          "time": 76.5000637500003,
          "velocity": 0.7874015748031497,
          "duration": 0.136363750000001
        },
        {
          "name": "C2",
          "midi": 36,
          "time": 76.6364275000003,
          "velocity": 0.7874015748031497,
          "duration": 0.136363750000001
        },
        {
          "name": "E2",
          "midi": 40,
          "time": 76.7727912500003,
          "velocity": 0.7874015748031497,
          "duration": 0.136363750000001
        },
        {
          "name": "A1",
          "midi": 33,
          "time": 77.0455187500003,
          "velocity": 0.7874015748031497,
          "duration": 0.136363750000001
        },
        {
          "name": "A#1",
          "midi": 34,
          "time": 77.1818825000003,
          "velocity": 0.7874015748031497,
          "duration": 0.136363750000001
        },
        {
          "name": "B1",
          "midi": 35,
          "time": 77.3182462500003,
          "velocity": 0.7874015748031497,
          "duration": 0.136363750000001
        },
        {
          "name": "E2",
          "midi": 40,
          "time": 77.4546100000003,
          "velocity": 0.7874015748031497,
          "duration": 0.272727500000002
        },
        {
          "name": "E1",
          "midi": 28,
          "time": 77.7273375000003,
          "velocity": 0.7874015748031497,
          "duration": 0.272727500000002
        },
        {
          "name": "A1",
          "midi": 33,
          "time": 78.54552000000031,
          "velocity": 0.7874015748031497,
          "duration": 0.136363750000001
        },
        {
          "name": "A#1",
          "midi": 34,
          "time": 78.68188375000031,
          "velocity": 0.7874015748031497,
          "duration": 0.136363750000001
        },
        {
          "name": "C2",
          "midi": 36,
          "time": 78.81824750000031,
          "velocity": 0.7874015748031497,
          "duration": 0.136363750000001
        },
        {
          "name": "E2",
          "midi": 40,
          "time": 78.95461125000031,
          "velocity": 0.7874015748031497,
          "duration": 0.136363750000001
        },
        {
          "name": "A1",
          "midi": 33,
          "time": 79.22733875000031,
          "velocity": 0.7874015748031497,
          "duration": 0.136363750000001
        },
        {
          "name": "A#1",
          "midi": 34,
          "time": 79.36370250000031,
          "velocity": 0.7874015748031497,
          "duration": 0.136363750000001
        },
        {
          "name": "B1",
          "midi": 35,
          "time": 79.50006625000032,
          "velocity": 0.7874015748031497,
          "duration": 0.136363750000001
        },
        {
          "name": "E2",
          "midi": 40,
          "time": 79.63643000000032,
          "velocity": 0.7874015748031497,
          "duration": 0.272727500000002
        },
        {
          "name": "E1",
          "midi": 28,
          "time": 79.90915750000032,
          "velocity": 0.7874015748031497,
          "duration": 0.272727500000002
        },
        {
          "name": "A1",
          "midi": 33,
          "time": 80.72734000000032,
          "velocity": 0.7874015748031497,
          "duration": 0.136363750000001
        },
        {
          "name": "A#1",
          "midi": 34,
          "time": 80.86370375000033,
          "velocity": 0.7874015748031497,
          "duration": 0.136363750000001
        },
        {
          "name": "C2",
          "midi": 36,
          "time": 81.00006750000033,
          "velocity": 0.7874015748031497,
          "duration": 0.136363750000001
        },
        {
          "name": "E2",
          "midi": 40,
          "time": 81.13643125000033,
          "velocity": 0.7874015748031497,
          "duration": 0.136363750000001
        },
        {
          "name": "A1",
          "midi": 33,
          "time": 81.40915875000033,
          "velocity": 0.7874015748031497,
          "duration": 0.136363750000001
        },
        {
          "name": "A#1",
          "midi": 34,
          "time": 81.54552250000033,
          "velocity": 0.7874015748031497,
          "duration": 0.136363750000001
        },
        {
          "name": "B1",
          "midi": 35,
          "time": 81.68188625000033,
          "velocity": 0.7874015748031497,
          "duration": 0.136363750000001
        },
        {
          "name": "E2",
          "midi": 40,
          "time": 81.81825000000033,
          "velocity": 0.7874015748031497,
          "duration": 0.272727500000002
        },
        {
          "name": "A1",
          "midi": 33,
          "time": 82.09097750000033,
          "velocity": 0.7874015748031497,
          "duration": 0.545455000000004
        },
        {
          "name": "C2",
          "midi": 36,
          "time": 82.90916000000034,
          "velocity": 0.7874015748031497,
          "duration": 0.272727500000002
        },
        {
          "name": "C2",
          "midi": 36,
          "time": 83.31825125000034,
          "velocity": 0.7874015748031497,
          "duration": 0.136363750000001
        },
        {
          "name": "A#1",
          "midi": 34,
          "time": 83.59097875000035,
          "velocity": 0.7874015748031497,
          "duration": 0.136363750000001
        },
        {
          "name": "C2",
          "midi": 36,
          "time": 83.72734250000035,
          "velocity": 0.7874015748031497,
          "duration": 0.272727500000002
        },
        {
          "name": "E1",
          "midi": 28,
          "time": 84.13643375000035,
          "velocity": 0.7874015748031497,
          "duration": 0.136363750000001
        },
        {
          "name": "F1",
          "midi": 29,
          "time": 84.27279750000035,
          "velocity": 0.7874015748031497,
          "duration": 0.272727500000002
        },
        {
          "name": "G1",
          "midi": 31,
          "time": 84.54552500000035,
          "velocity": 0.7874015748031497,
          "duration": 0.136363750000001
        },
        {
          "name": "G1",
          "midi": 31,
          "time": 84.68188875000035,
          "velocity": 0.7874015748031497,
          "duration": 0.136363750000001
        },
        {
          "name": "A1",
          "midi": 33,
          "time": 84.81825250000036,
          "velocity": 0.7874015748031497,
          "duration": 0.136363750000001
        },
        {
          "name": "G1",
          "midi": 31,
          "time": 84.95461625000036,
          "velocity": 0.7874015748031497,
          "duration": 0.136363750000001
        },
        {
          "name": "C2",
          "midi": 36,
          "time": 85.09098000000036,
          "velocity": 0.7874015748031497,
          "duration": 0.272727500000002
        },
        {
          "name": "C2",
          "midi": 36,
          "time": 85.50007125000036,
          "velocity": 0.7874015748031497,
          "duration": 0.272727500000002
        },
        {
          "name": "A#1",
          "midi": 34,
          "time": 85.77279875000036,
          "velocity": 0.7874015748031497,
          "duration": 0.136363750000001
        },
        {
          "name": "C2",
          "midi": 36,
          "time": 85.90916250000036,
          "velocity": 0.7874015748031497,
          "duration": 0.136363750000001
        },
        {
          "name": "E1",
          "midi": 28,
          "time": 86.04552625000036,
          "velocity": 0.7874015748031497,
          "duration": 0.136363750000001
        },
        {
          "name": "F1",
          "midi": 29,
          "time": 86.18189000000037,
          "velocity": 0.7874015748031497,
          "duration": 0.272727500000002
        },
        {
          "name": "G1",
          "midi": 31,
          "time": 86.45461750000037,
          "velocity": 0.7874015748031497,
          "duration": 0.272727500000002
        },
        {
          "name": "B1",
          "midi": 35,
          "time": 86.72734500000037,
          "velocity": 0.7874015748031497,
          "duration": 0.136363750000001
        },
        {
          "name": "G1",
          "midi": 31,
          "time": 86.86370875000037,
          "velocity": 0.7874015748031497,
          "duration": 0.136363750000001
        },
        {
          "name": "B1",
          "midi": 35,
          "time": 87.00007250000037,
          "velocity": 0.7874015748031497,
          "duration": 0.272727500000002
        },
        {
          "name": "C2",
          "midi": 36,
          "time": 87.27280000000037,
          "velocity": 0.7874015748031497,
          "duration": 0.272727500000002
        },
        {
          "name": "C2",
          "midi": 36,
          "time": 87.68189125000038,
          "velocity": 0.7874015748031497,
          "duration": 0.136363750000001
        },
        {
          "name": "A#1",
          "midi": 34,
          "time": 87.95461875000038,
          "velocity": 0.7874015748031497,
          "duration": 0.136363750000001
        },
        {
          "name": "C2",
          "midi": 36,
          "time": 88.09098250000038,
          "velocity": 0.7874015748031497,
          "duration": 0.272727500000002
        },
        {
          "name": "E1",
          "midi": 28,
          "time": 88.50007375000038,
          "velocity": 0.7874015748031497,
          "duration": 0.136363750000001
        },
        {
          "name": "F1",
          "midi": 29,
          "time": 88.63643750000038,
          "velocity": 0.7874015748031497,
          "duration": 0.272727500000002
        },
        {
          "name": "G1",
          "midi": 31,
          "time": 88.90916500000039,
          "velocity": 0.7874015748031497,
          "duration": 0.136363750000001
        },
        {
          "name": "G1",
          "midi": 31,
          "time": 89.04552875000039,
          "velocity": 0.7874015748031497,
          "duration": 0.136363750000001
        },
        {
          "name": "A1",
          "midi": 33,
          "time": 89.18189250000039,
          "velocity": 0.7874015748031497,
          "duration": 0.136363750000001
        },
        {
          "name": "G1",
          "midi": 31,
          "time": 89.31825625000039,
          "velocity": 0.7874015748031497,
          "duration": 0.136363750000001
        },
        {
          "name": "C2",
          "midi": 36,
          "time": 89.45462000000039,
          "velocity": 0.7874015748031497,
          "duration": 0.272727500000002
        },
        {
          "name": "C2",
          "midi": 36,
          "time": 89.86371125000039,
          "velocity": 0.7874015748031497,
          "duration": 0.272727500000002
        },
        {
          "name": "A#1",
          "midi": 34,
          "time": 90.1364387500004,
          "velocity": 0.7874015748031497,
          "duration": 0.136363750000001
        },
        {
          "name": "C2",
          "midi": 36,
          "time": 90.2728025000004,
          "velocity": 0.7874015748031497,
          "duration": 0.136363750000001
        },
        {
          "name": "E1",
          "midi": 28,
          "time": 90.4091662500004,
          "velocity": 0.7874015748031497,
          "duration": 0.136363750000001
        },
        {
          "name": "F1",
          "midi": 29,
          "time": 90.5455300000004,
          "velocity": 0.7874015748031497,
          "duration": 0.272727500000002
        },
        {
          "name": "G1",
          "midi": 31,
          "time": 90.8182575000004,
          "velocity": 0.7874015748031497,
          "duration": 0.272727500000002
        },
        {
          "name": "B1",
          "midi": 35,
          "time": 91.0909850000004,
          "velocity": 0.7874015748031497,
          "duration": 0.136363750000001
        },
        {
          "name": "G1",
          "midi": 31,
          "time": 91.2273487500004,
          "velocity": 0.7874015748031497,
          "duration": 0.136363750000001
        },
        {
          "name": "B1",
          "midi": 35,
          "time": 91.3637125000004,
          "velocity": 0.7874015748031497,
          "duration": 0.272727500000002
        },
        {
          "name": "C2",
          "midi": 36,
          "time": 91.6364400000004,
          "velocity": 0.7874015748031497,
          "duration": 0.272727500000002
        },
        {
          "name": "C2",
          "midi": 36,
          "time": 92.04553125000041,
          "velocity": 0.7874015748031497,
          "duration": 0.136363750000001
        },
        {
          "name": "A#1",
          "midi": 34,
          "time": 92.31825875000041,
          "velocity": 0.7874015748031497,
          "duration": 0.136363750000001
        },
        {
          "name": "C2",
          "midi": 36,
          "time": 92.45462250000041,
          "velocity": 0.7874015748031497,
          "duration": 0.272727500000002
        },
        {
          "name": "E1",
          "midi": 28,
          "time": 92.86371375000041,
          "velocity": 0.7874015748031497,
          "duration": 0.136363750000001
        },
        {
          "name": "F1",
          "midi": 29,
          "time": 93.00007750000042,
          "velocity": 0.7874015748031497,
          "duration": 0.272727500000002
        },
        {
          "name": "G1",
          "midi": 31,
          "time": 93.27280500000042,
          "velocity": 0.7874015748031497,
          "duration": 0.136363750000001
        },
        {
          "name": "G1",
          "midi": 31,
          "time": 93.40916875000042,
          "velocity": 0.7874015748031497,
          "duration": 0.136363750000001
        },
        {
          "name": "A1",
          "midi": 33,
          "time": 93.54553250000042,
          "velocity": 0.7874015748031497,
          "duration": 0.136363750000001
        },
        {
          "name": "G1",
          "midi": 31,
          "time": 93.68189625000042,
          "velocity": 0.7874015748031497,
          "duration": 0.136363750000001
        },
        {
          "name": "C2",
          "midi": 36,
          "time": 93.81826000000042,
          "velocity": 0.7874015748031497,
          "duration": 0.272727500000002
        },
        {
          "name": "C2",
          "midi": 36,
          "time": 94.22735125000042,
          "velocity": 0.7874015748031497,
          "duration": 0.272727500000002
        },
        {
          "name": "A#1",
          "midi": 34,
          "time": 94.50007875000043,
          "velocity": 0.7874015748031497,
          "duration": 0.136363750000001
        },
        {
          "name": "C2",
          "midi": 36,
          "time": 94.63644250000043,
          "velocity": 0.7874015748031497,
          "duration": 0.136363750000001
        },
        {
          "name": "E1",
          "midi": 28,
          "time": 94.77280625000043,
          "velocity": 0.7874015748031497,
          "duration": 0.136363750000001
        },
        {
          "name": "F1",
          "midi": 29,
          "time": 94.90917000000043,
          "velocity": 0.7874015748031497,
          "duration": 0.272727500000002
        },
        {
          "name": "G1",
          "midi": 31,
          "time": 95.18189750000043,
          "velocity": 0.7874015748031497,
          "duration": 0.272727500000002
        },
        {
          "name": "B1",
          "midi": 35,
          "time": 95.45462500000043,
          "velocity": 0.7874015748031497,
          "duration": 0.136363750000001
        },
        {
          "name": "G1",
          "midi": 31,
          "time": 95.59098875000043,
          "velocity": 0.7874015748031497,
          "duration": 0.136363750000001
        },
        {
          "name": "B1",
          "midi": 35,
          "time": 95.72735250000044,
          "velocity": 0.7874015748031497,
          "duration": 0.272727500000002
        },
        {
          "name": "C2",
          "midi": 36,
          "time": 96.00008000000044,
          "velocity": 0.7874015748031497,
          "duration": 0.272727500000002
        },
        {
          "name": "C2",
          "midi": 36,
          "time": 96.40917125000044,
          "velocity": 0.7874015748031497,
          "duration": 0.136363750000001
        },
        {
          "name": "A#1",
          "midi": 34,
          "time": 96.68189875000044,
          "velocity": 0.7874015748031497,
          "duration": 0.136363750000001
        },
        {
          "name": "C2",
          "midi": 36,
          "time": 96.81826250000044,
          "velocity": 0.7874015748031497,
          "duration": 0.272727500000002
        },
        {
          "name": "E1",
          "midi": 28,
          "time": 97.22735375000045,
          "velocity": 0.7874015748031497,
          "duration": 0.136363750000001
        },
        {
          "name": "F1",
          "midi": 29,
          "time": 97.36371750000045,
          "velocity": 0.7874015748031497,
          "duration": 0.272727500000002
        },
        {
          "name": "G1",
          "midi": 31,
          "time": 97.63644500000045,
          "velocity": 0.7874015748031497,
          "duration": 0.136363750000001
        },
        {
          "name": "G1",
          "midi": 31,
          "time": 97.77280875000045,
          "velocity": 0.7874015748031497,
          "duration": 0.136363750000001
        },
        {
          "name": "A1",
          "midi": 33,
          "time": 97.90917250000045,
          "velocity": 0.7874015748031497,
          "duration": 0.136363750000001
        },
        {
          "name": "G1",
          "midi": 31,
          "time": 98.04553625000045,
          "velocity": 0.7874015748031497,
          "duration": 0.136363750000001
        },
        {
          "name": "C2",
          "midi": 36,
          "time": 98.18190000000045,
          "velocity": 0.7874015748031497,
          "duration": 0.272727500000002
        },
        {
          "name": "C2",
          "midi": 36,
          "time": 98.59099125000046,
          "velocity": 0.7874015748031497,
          "duration": 0.272727500000002
        },
        {
          "name": "A#1",
          "midi": 34,
          "time": 98.86371875000046,
          "velocity": 0.7874015748031497,
          "duration": 0.136363750000001
        },
        {
          "name": "C2",
          "midi": 36,
          "time": 99.00008250000046,
          "velocity": 0.7874015748031497,
          "duration": 0.3636366666666646
        },
        {
          "name": "E1",
          "midi": 28,
          "time": 99.40917375000046,
          "velocity": 0.7874015748031497,
          "duration": 0.136363750000001
        },
        {
          "name": "G1",
          "midi": 31,
          "time": 99.54553750000046,
          "velocity": 0.7874015748031497,
          "duration": 0.136363750000001
        },
        {
          "name": "G1",
          "midi": 31,
          "time": 99.68190125000046,
          "velocity": 0.7874015748031497,
          "duration": 0.136363750000001
        },
        {
          "name": "A1",
          "midi": 33,
          "time": 99.81826500000047,
          "velocity": 0.7874015748031497,
          "duration": 0.545455000000004
        },
        {
          "name": "A1",
          "midi": 33,
          "time": 100.36372000000047,
          "velocity": 0.7874015748031497,
          "duration": 0.136363750000001
        },
        {
          "name": "A#1",
          "midi": 34,
          "time": 100.50008375000047,
          "velocity": 0.7874015748031497,
          "duration": 0.136363750000001
        },
        {
          "name": "C2",
          "midi": 36,
          "time": 100.63644750000047,
          "velocity": 0.7874015748031497,
          "duration": 0.136363750000001
        },
        {
          "name": "E2",
          "midi": 40,
          "time": 100.77281125000047,
          "velocity": 0.7874015748031497,
          "duration": 0.136363750000001
        },
        {
          "name": "A1",
          "midi": 33,
          "time": 101.04553875000047,
          "velocity": 0.7874015748031497,
          "duration": 0.136363750000001
        },
        {
          "name": "A#1",
          "midi": 34,
          "time": 101.18190250000048,
          "velocity": 0.7874015748031497,
          "duration": 0.136363750000001
        },
        {
          "name": "B1",
          "midi": 35,
          "time": 101.31826625000048,
          "velocity": 0.7874015748031497,
          "duration": 0.136363750000001
        },
        {
          "name": "E2",
          "midi": 40,
          "time": 101.45463000000048,
          "velocity": 0.7874015748031497,
          "duration": 0.272727500000002
        },
        {
          "name": "E1",
          "midi": 28,
          "time": 101.72735750000048,
          "velocity": 0.7874015748031497,
          "duration": 0.272727500000002
        },
        {
          "name": "A1",
          "midi": 33,
          "time": 102.54554000000049,
          "velocity": 0.7874015748031497,
          "duration": 0.136363750000001
        },
        {
          "name": "A#1",
          "midi": 34,
          "time": 102.68190375000049,
          "velocity": 0.7874015748031497,
          "duration": 0.136363750000001
        },
        {
          "name": "C2",
          "midi": 36,
          "time": 102.81826750000049,
          "velocity": 0.7874015748031497,
          "duration": 0.136363750000001
        },
        {
          "name": "E2",
          "midi": 40,
          "time": 102.95463125000049,
          "velocity": 0.7874015748031497,
          "duration": 0.136363750000001
        },
        {
          "name": "A1",
          "midi": 33,
          "time": 103.22735875000049,
          "velocity": 0.7874015748031497,
          "duration": 0.136363750000001
        },
        {
          "name": "A#1",
          "midi": 34,
          "time": 103.36372250000049,
          "velocity": 0.7874015748031497,
          "duration": 0.136363750000001
        },
        {
          "name": "B1",
          "midi": 35,
          "time": 103.50008625000049,
          "velocity": 0.7874015748031497,
          "duration": 0.136363750000001
        },
        {
          "name": "E2",
          "midi": 40,
          "time": 103.6364500000005,
          "velocity": 0.7874015748031497,
          "duration": 0.272727500000002
        },
        {
          "name": "E1",
          "midi": 28,
          "time": 103.9091775000005,
          "velocity": 0.7874015748031497,
          "duration": 0.272727500000002
        },
        {
          "name": "A1",
          "midi": 33,
          "time": 104.7273600000005,
          "velocity": 0.7874015748031497,
          "duration": 0.136363750000001
        },
        {
          "name": "A#1",
          "midi": 34,
          "time": 104.8637237500005,
          "velocity": 0.7874015748031497,
          "duration": 0.136363750000001
        },
        {
          "name": "C2",
          "midi": 36,
          "time": 105.0000875000005,
          "velocity": 0.7874015748031497,
          "duration": 0.136363750000001
        },
        {
          "name": "E2",
          "midi": 40,
          "time": 105.1364512500005,
          "velocity": 0.7874015748031497,
          "duration": 0.136363750000001
        },
        {
          "name": "A1",
          "midi": 33,
          "time": 105.4091787500005,
          "velocity": 0.7874015748031497,
          "duration": 0.136363750000001
        },
        {
          "name": "A#1",
          "midi": 34,
          "time": 105.54554250000051,
          "velocity": 0.7874015748031497,
          "duration": 0.136363750000001
        },
        {
          "name": "B1",
          "midi": 35,
          "time": 105.68190625000051,
          "velocity": 0.7874015748031497,
          "duration": 0.136363750000001
        },
        {
          "name": "E2",
          "midi": 40,
          "time": 105.81827000000051,
          "velocity": 0.7874015748031497,
          "duration": 0.272727500000002
        },
        {
          "name": "E1",
          "midi": 28,
          "time": 106.09099750000051,
          "velocity": 0.7874015748031497,
          "duration": 0.272727500000002
        },
        {
          "name": "A1",
          "midi": 33,
          "time": 106.90918000000052,
          "velocity": 0.7874015748031497,
          "duration": 0.136363750000001
        },
        {
          "name": "A#1",
          "midi": 34,
          "time": 107.04554375000052,
          "velocity": 0.7874015748031497,
          "duration": 0.136363750000001
        },
        {
          "name": "C2",
          "midi": 36,
          "time": 107.18190750000052,
          "velocity": 0.7874015748031497,
          "duration": 0.136363750000001
        },
        {
          "name": "E2",
          "midi": 40,
          "time": 107.31827125000052,
          "velocity": 0.7874015748031497,
          "duration": 0.136363750000001
        },
        {
          "name": "A1",
          "midi": 33,
          "time": 107.59099875000052,
          "velocity": 0.7874015748031497,
          "duration": 0.136363750000001
        },
        {
          "name": "A#1",
          "midi": 34,
          "time": 107.72736250000052,
          "velocity": 0.7874015748031497,
          "duration": 0.136363750000001
        },
        {
          "name": "B1",
          "midi": 35,
          "time": 107.86372625000052,
          "velocity": 0.7874015748031497,
          "duration": 0.136363750000001
        },
        {
          "name": "E2",
          "midi": 40,
          "time": 108.00009000000053,
          "velocity": 0.7874015748031497,
          "duration": 0.272727500000002
        },
        {
          "name": "A1",
          "midi": 33,
          "time": 108.27281750000053,
          "velocity": 0.7874015748031497,
          "duration": 0.545455000000004
        },
        {
          "name": "C2",
          "midi": 36,
          "time": 109.09100000000053,
          "velocity": 0.7874015748031497,
          "duration": 0.272727500000002
        },
        {
          "name": "C2",
          "midi": 36,
          "time": 109.50009125000054,
          "velocity": 0.7874015748031497,
          "duration": 0.136363750000001
        },
        {
          "name": "A#1",
          "midi": 34,
          "time": 109.77281875000054,
          "velocity": 0.7874015748031497,
          "duration": 0.136363750000001
        },
        {
          "name": "C2",
          "midi": 36,
          "time": 109.90918250000054,
          "velocity": 0.7874015748031497,
          "duration": 0.272727500000002
        },
        {
          "name": "E1",
          "midi": 28,
          "time": 110.31827375000054,
          "velocity": 0.7874015748031497,
          "duration": 0.136363750000001
        },
        {
          "name": "F1",
          "midi": 29,
          "time": 110.45463750000054,
          "velocity": 0.7874015748031497,
          "duration": 0.272727500000002
        },
        {
          "name": "G1",
          "midi": 31,
          "time": 110.72736500000055,
          "velocity": 0.7874015748031497,
          "duration": 0.136363750000001
        },
        {
          "name": "G1",
          "midi": 31,
          "time": 110.86372875000055,
          "velocity": 0.7874015748031497,
          "duration": 0.136363750000001
        },
        {
          "name": "A1",
          "midi": 33,
          "time": 111.00009250000055,
          "velocity": 0.7874015748031497,
          "duration": 0.136363750000001
        },
        {
          "name": "G1",
          "midi": 31,
          "time": 111.13645625000055,
          "velocity": 0.7874015748031497,
          "duration": 0.136363750000001
        },
        {
          "name": "C2",
          "midi": 36,
          "time": 111.27282000000055,
          "velocity": 0.7874015748031497,
          "duration": 0.272727500000002
        },
        {
          "name": "C2",
          "midi": 36,
          "time": 111.68191125000055,
          "velocity": 0.7874015748031497,
          "duration": 0.272727500000002
        },
        {
          "name": "A#1",
          "midi": 34,
          "time": 111.95463875000056,
          "velocity": 0.7874015748031497,
          "duration": 0.136363750000001
        },
        {
          "name": "C2",
          "midi": 36,
          "time": 112.09100250000056,
          "velocity": 0.7874015748031497,
          "duration": 0.136363750000001
        },
        {
          "name": "E1",
          "midi": 28,
          "time": 112.22736625000056,
          "velocity": 0.7874015748031497,
          "duration": 0.136363750000001
        },
        {
          "name": "F1",
          "midi": 29,
          "time": 112.36373000000056,
          "velocity": 0.7874015748031497,
          "duration": 0.272727500000002
        },
        {
          "name": "G1",
          "midi": 31,
          "time": 112.63645750000056,
          "velocity": 0.7874015748031497,
          "duration": 0.272727500000002
        },
        {
          "name": "B1",
          "midi": 35,
          "time": 112.90918500000056,
          "velocity": 0.7874015748031497,
          "duration": 0.136363750000001
        },
        {
          "name": "G1",
          "midi": 31,
          "time": 113.04554875000056,
          "velocity": 0.7874015748031497,
          "duration": 0.136363750000001
        },
        {
          "name": "B1",
          "midi": 35,
          "time": 113.18191250000056,
          "velocity": 0.7874015748031497,
          "duration": 0.272727500000002
        },
        {
          "name": "C2",
          "midi": 36,
          "time": 113.45464000000057,
          "velocity": 0.7874015748031497,
          "duration": 0.272727500000002
        },
        {
          "name": "C2",
          "midi": 36,
          "time": 113.86373125000057,
          "velocity": 0.7874015748031497,
          "duration": 0.136363750000001
        },
        {
          "name": "A#1",
          "midi": 34,
          "time": 114.13645875000057,
          "velocity": 0.7874015748031497,
          "duration": 0.136363750000001
        },
        {
          "name": "C2",
          "midi": 36,
          "time": 114.27282250000057,
          "velocity": 0.7874015748031497,
          "duration": 0.272727500000002
        },
        {
          "name": "E1",
          "midi": 28,
          "time": 114.68191375000058,
          "velocity": 0.7874015748031497,
          "duration": 0.136363750000001
        },
        {
          "name": "F1",
          "midi": 29,
          "time": 114.81827750000058,
          "velocity": 0.7874015748031497,
          "duration": 0.272727500000002
        },
        {
          "name": "G1",
          "midi": 31,
          "time": 115.09100500000058,
          "velocity": 0.7874015748031497,
          "duration": 0.136363750000001
        },
        {
          "name": "G1",
          "midi": 31,
          "time": 115.22736875000058,
          "velocity": 0.7874015748031497,
          "duration": 0.136363750000001
        },
        {
          "name": "A1",
          "midi": 33,
          "time": 115.36373250000058,
          "velocity": 0.7874015748031497,
          "duration": 0.136363750000001
        },
        {
          "name": "G1",
          "midi": 31,
          "time": 115.50009625000058,
          "velocity": 0.7874015748031497,
          "duration": 0.136363750000001
        },
        {
          "name": "C2",
          "midi": 36,
          "time": 115.63646000000058,
          "velocity": 0.7874015748031497,
          "duration": 0.272727500000002
        },
        {
          "name": "C2",
          "midi": 36,
          "time": 116.04555125000059,
          "velocity": 0.7874015748031497,
          "duration": 0.272727500000002
        },
        {
          "name": "A#1",
          "midi": 34,
          "time": 116.31827875000059,
          "velocity": 0.7874015748031497,
          "duration": 0.136363750000001
        },
        {
          "name": "C2",
          "midi": 36,
          "time": 116.45464250000059,
          "velocity": 0.7874015748031497,
          "duration": 0.136363750000001
        },
        {
          "name": "E1",
          "midi": 28,
          "time": 116.59100625000059,
          "velocity": 0.7874015748031497,
          "duration": 0.136363750000001
        },
        {
          "name": "F1",
          "midi": 29,
          "time": 116.72737000000059,
          "velocity": 0.7874015748031497,
          "duration": 0.272727500000002
        },
        {
          "name": "G1",
          "midi": 31,
          "time": 117.00009750000059,
          "velocity": 0.7874015748031497,
          "duration": 0.272727500000002
        },
        {
          "name": "B1",
          "midi": 35,
          "time": 117.2728250000006,
          "velocity": 0.7874015748031497,
          "duration": 0.136363750000001
        },
        {
          "name": "G1",
          "midi": 31,
          "time": 117.4091887500006,
          "velocity": 0.7874015748031497,
          "duration": 0.136363750000001
        },
        {
          "name": "B1",
          "midi": 35,
          "time": 117.5455525000006,
          "velocity": 0.7874015748031497,
          "duration": 0.272727500000002
        },
        {
          "name": "C2",
          "midi": 36,
          "time": 117.8182800000006,
          "velocity": 0.7874015748031497,
          "duration": 0.272727500000002
        },
        {
          "name": "C2",
          "midi": 36,
          "time": 118.2273712500006,
          "velocity": 0.7874015748031497,
          "duration": 0.136363750000001
        },
        {
          "name": "A#1",
          "midi": 34,
          "time": 118.5000987500006,
          "velocity": 0.7874015748031497,
          "duration": 0.136363750000001
        },
        {
          "name": "C2",
          "midi": 36,
          "time": 118.6364625000006,
          "velocity": 0.7874015748031497,
          "duration": 0.272727500000002
        },
        {
          "name": "E1",
          "midi": 28,
          "time": 119.04555375000061,
          "velocity": 0.7874015748031497,
          "duration": 0.136363750000001
        },
        {
          "name": "F1",
          "midi": 29,
          "time": 119.18191750000061,
          "velocity": 0.7874015748031497,
          "duration": 0.272727500000002
        },
        {
          "name": "G1",
          "midi": 31,
          "time": 119.45464500000061,
          "velocity": 0.7874015748031497,
          "duration": 0.136363750000001
        },
        {
          "name": "G1",
          "midi": 31,
          "time": 119.59100875000061,
          "velocity": 0.7874015748031497,
          "duration": 0.136363750000001
        },
        {
          "name": "A1",
          "midi": 33,
          "time": 119.72737250000061,
          "velocity": 0.7874015748031497,
          "duration": 0.136363750000001
        },
        {
          "name": "G1",
          "midi": 31,
          "time": 119.86373625000061,
          "velocity": 0.7874015748031497,
          "duration": 0.136363750000001
        },
        {
          "name": "C2",
          "midi": 36,
          "time": 120.00010000000061,
          "velocity": 0.7874015748031497,
          "duration": 0.272727500000002
        },
        {
          "name": "C2",
          "midi": 36,
          "time": 120.40919125000062,
          "velocity": 0.7874015748031497,
          "duration": 0.272727500000002
        },
        {
          "name": "A#1",
          "midi": 34,
          "time": 120.68191875000062,
          "velocity": 0.7874015748031497,
          "duration": 0.136363750000001
        },
        {
          "name": "C2",
          "midi": 36,
          "time": 120.81828250000062,
          "velocity": 0.7874015748031497,
          "duration": 0.136363750000001
        },
        {
          "name": "E1",
          "midi": 28,
          "time": 120.95464625000062,
          "velocity": 0.7874015748031497,
          "duration": 0.136363750000001
        },
        {
          "name": "F1",
          "midi": 29,
          "time": 121.09101000000062,
          "velocity": 0.7874015748031497,
          "duration": 0.272727500000002
        },
        {
          "name": "G1",
          "midi": 31,
          "time": 121.36373750000062,
          "velocity": 0.7874015748031497,
          "duration": 0.272727500000002
        },
        {
          "name": "B1",
          "midi": 35,
          "time": 121.63646500000063,
          "velocity": 0.7874015748031497,
          "duration": 0.136363750000001
        },
        {
          "name": "G1",
          "midi": 31,
          "time": 121.77282875000063,
          "velocity": 0.7874015748031497,
          "duration": 0.136363750000001
        },
        {
          "name": "B1",
          "midi": 35,
          "time": 121.90919250000063,
          "velocity": 0.7874015748031497,
          "duration": 0.272727500000002
        },
        {
          "name": "C2",
          "midi": 36,
          "time": 122.18192000000063,
          "velocity": 0.7874015748031497,
          "duration": 0.272727500000002
        },
        {
          "name": "C2",
          "midi": 36,
          "time": 122.59101125000063,
          "velocity": 0.7874015748031497,
          "duration": 0.136363750000001
        },
        {
          "name": "A#1",
          "midi": 34,
          "time": 122.86373875000064,
          "velocity": 0.7874015748031497,
          "duration": 0.136363750000001
        },
        {
          "name": "C2",
          "midi": 36,
          "time": 123.00010250000064,
          "velocity": 0.7874015748031497,
          "duration": 0.272727500000002
        },
        {
          "name": "E1",
          "midi": 28,
          "time": 123.40919375000064,
          "velocity": 0.7874015748031497,
          "duration": 0.136363750000001
        },
        {
          "name": "F1",
          "midi": 29,
          "time": 123.54555750000064,
          "velocity": 0.7874015748031497,
          "duration": 0.272727500000002
        },
        {
          "name": "G1",
          "midi": 31,
          "time": 123.81828500000064,
          "velocity": 0.7874015748031497,
          "duration": 0.136363750000001
        },
        {
          "name": "G1",
          "midi": 31,
          "time": 123.95464875000064,
          "velocity": 0.7874015748031497,
          "duration": 0.136363750000001
        },
        {
          "name": "A1",
          "midi": 33,
          "time": 124.09101250000064,
          "velocity": 0.7874015748031497,
          "duration": 0.136363750000001
        },
        {
          "name": "G1",
          "midi": 31,
          "time": 124.22737625000065,
          "velocity": 0.7874015748031497,
          "duration": 0.136363750000001
        },
        {
          "name": "C2",
          "midi": 36,
          "time": 124.36374000000065,
          "velocity": 0.7874015748031497,
          "duration": 0.272727500000002
        },
        {
          "name": "C2",
          "midi": 36,
          "time": 124.77283125000065,
          "velocity": 0.7874015748031497,
          "duration": 0.272727500000002
        },
        {
          "name": "A#1",
          "midi": 34,
          "time": 125.04555875000065,
          "velocity": 0.7874015748031497,
          "duration": 0.136363750000001
        },
        {
          "name": "C2",
          "midi": 36,
          "time": 125.18192250000065,
          "velocity": 0.7874015748031497,
          "duration": 0.3636366666666646
        },
        {
          "name": "E1",
          "midi": 28,
          "time": 125.59101375000066,
          "velocity": 0.7874015748031497,
          "duration": 0.136363750000001
        },
        {
          "name": "G1",
          "midi": 31,
          "time": 125.72737750000066,
          "velocity": 0.7874015748031497,
          "duration": 0.136363750000001
        },
        {
          "name": "G1",
          "midi": 31,
          "time": 125.86374125000066,
          "velocity": 0.7874015748031497,
          "duration": 0.136363750000001
        },
        {
          "name": "A1",
          "midi": 33,
          "time": 126.00010500000066,
          "velocity": 0.7874015748031497,
          "duration": 0.545455000000004
        },
        {
          "name": "C2",
          "midi": 36,
          "time": 126.54556000000066,
          "velocity": 0.7874015748031497,
          "duration": 0.136363750000001
        },
        {
          "name": "C2",
          "midi": 36,
          "time": 126.68192375000066,
          "velocity": 0.7874015748031497,
          "duration": 0.136363750000001
        },
        {
          "name": "C2",
          "midi": 36,
          "time": 126.81828750000066,
          "velocity": 0.7874015748031497,
          "duration": 0.136363750000001
        },
        {
          "name": "C2",
          "midi": 36,
          "time": 126.95465125000067,
          "velocity": 0.7874015748031497,
          "duration": 0.136363750000001
        },
        {
          "name": "C2",
          "midi": 36,
          "time": 127.36374250000067,
          "velocity": 0.7874015748031497,
          "duration": 0.136363750000001
        },
        {
          "name": "C2",
          "midi": 36,
          "time": 127.50010625000067,
          "velocity": 0.7874015748031497,
          "duration": 0.136363750000001
        },
        {
          "name": "C2",
          "midi": 36,
          "time": 127.63647000000067,
          "velocity": 0.7874015748031497,
          "duration": 0.136363750000001
        },
        {
          "name": "C2",
          "midi": 36,
          "time": 127.77283375000067,
          "velocity": 0.7874015748031497,
          "duration": 0.136363750000001
        },
        {
          "name": "C2",
          "midi": 36,
          "time": 127.90919750000067,
          "velocity": 0.7874015748031497,
          "duration": 0.2727274999999878
        },
        {
          "name": "C2",
          "midi": 36,
          "time": 128.18192500000066,
          "velocity": 0.7874015748031497,
          "duration": 0.1363637499999868
        },
        {
          "name": "C2",
          "midi": 36,
          "time": 128.31828875000065,
          "velocity": 0.7874015748031497,
          "duration": 0.1363637499999868
        },
        {
          "name": "D#2",
          "midi": 39,
          "time": 128.45465250000063,
          "velocity": 0.7874015748031497,
          "duration": 0.1363637499999868
        },
        {
          "name": "E2",
          "midi": 40,
          "time": 128.59101625000062,
          "velocity": 0.7874015748031497,
          "duration": 0.1363637499999868
        },
        {
          "name": "F2",
          "midi": 41,
          "time": 128.7273800000006,
          "velocity": 0.7874015748031497,
          "duration": 0.1363637499999868
        },
        {
          "name": "F2",
          "midi": 41,
          "time": 128.8637437500006,
          "velocity": 0.7874015748031497,
          "duration": 0.1363637499999868
        },
        {
          "name": "F2",
          "midi": 41,
          "time": 129.00010750000058,
          "velocity": 0.7874015748031497,
          "duration": 0.1363637499999868
        },
        {
          "name": "F2",
          "midi": 41,
          "time": 129.13647125000057,
          "velocity": 0.7874015748031497,
          "duration": 0.1363637499999868
        },
        {
          "name": "F#2",
          "midi": 42,
          "time": 129.27283500000055,
          "velocity": 0.7874015748031497,
          "duration": 0.272727500000002
        },
        {
          "name": "F2",
          "midi": 41,
          "time": 129.81829000000056,
          "velocity": 0.7874015748031497,
          "duration": 0.1363637499999868
        },
        {
          "name": "G2",
          "midi": 43,
          "time": 129.95465375000055,
          "velocity": 0.7874015748031497,
          "duration": 0.1363637499999868
        },
        {
          "name": "A#2",
          "midi": 46,
          "time": 130.09101750000053,
          "velocity": 0.7874015748031497,
          "duration": 0.1363637499999868
        },
        {
          "name": "G2",
          "midi": 43,
          "time": 130.22738125000052,
          "velocity": 0.7874015748031497,
          "duration": 0.1363637499999868
        },
        {
          "name": "F2",
          "midi": 41,
          "time": 130.3637450000005,
          "velocity": 0.7874015748031497,
          "duration": 0.1363637499999868
        },
        {
          "name": "D#2",
          "midi": 39,
          "time": 130.5001087500005,
          "velocity": 0.7874015748031497,
          "duration": 0.1363637499999868
        },
        {
          "name": "C2",
          "midi": 36,
          "time": 130.63647250000048,
          "velocity": 0.7874015748031497,
          "duration": 0.1363637499999868
        },
        {
          "name": "A#1",
          "midi": 34,
          "time": 130.77283625000047,
          "velocity": 0.7874015748031497,
          "duration": 0.1363637499999868
        },
        {
          "name": "C2",
          "midi": 36,
          "time": 130.90920000000045,
          "velocity": 0.7874015748031497,
          "duration": 0.1363637499999868
        },
        {
          "name": "C2",
          "midi": 36,
          "time": 131.04556375000044,
          "velocity": 0.7874015748031497,
          "duration": 0.1363637499999868
        },
        {
          "name": "C2",
          "midi": 36,
          "time": 131.18192750000043,
          "velocity": 0.7874015748031497,
          "duration": 0.1363637499999868
        },
        {
          "name": "C2",
          "midi": 36,
          "time": 131.3182912500004,
          "velocity": 0.7874015748031497,
          "duration": 0.1363637499999868
        },
        {
          "name": "C2",
          "midi": 36,
          "time": 131.7273825000004,
          "velocity": 0.7874015748031497,
          "duration": 0.1363637499999868
        },
        {
          "name": "C2",
          "midi": 36,
          "time": 131.8637462500004,
          "velocity": 0.7874015748031497,
          "duration": 0.1363637499999868
        },
        {
          "name": "C2",
          "midi": 36,
          "time": 132.00011000000038,
          "velocity": 0.7874015748031497,
          "duration": 0.1363637499999868
        },
        {
          "name": "C2",
          "midi": 36,
          "time": 132.13647375000036,
          "velocity": 0.7874015748031497,
          "duration": 0.1363637499999868
        },
        {
          "name": "C2",
          "midi": 36,
          "time": 132.27283750000035,
          "velocity": 0.7874015748031497,
          "duration": 0.272727500000002
        },
        {
          "name": "C2",
          "midi": 36,
          "time": 132.54556500000035,
          "velocity": 0.7874015748031497,
          "duration": 0.1363637499999868
        },
        {
          "name": "C2",
          "midi": 36,
          "time": 132.68192875000034,
          "velocity": 0.7874015748031497,
          "duration": 0.1363637499999868
        },
        {
          "name": "D#2",
          "midi": 39,
          "time": 132.81829250000033,
          "velocity": 0.7874015748031497,
          "duration": 0.1363637499999868
        },
        {
          "name": "E2",
          "midi": 40,
          "time": 132.9546562500003,
          "velocity": 0.7874015748031497,
          "duration": 0.1363637499999868
        },
        {
          "name": "F2",
          "midi": 41,
          "time": 133.0910200000003,
          "velocity": 0.7874015748031497,
          "duration": 0.1363637499999868
        },
        {
          "name": "F2",
          "midi": 41,
          "time": 133.22738375000029,
          "velocity": 0.7874015748031497,
          "duration": 0.1363637499999868
        },
        {
          "name": "F2",
          "midi": 41,
          "time": 133.36374750000027,
          "velocity": 0.7874015748031497,
          "duration": 0.1363637499999868
        },
        {
          "name": "F2",
          "midi": 41,
          "time": 133.50011125000026,
          "velocity": 0.7874015748031497,
          "duration": 0.1363637499999868
        },
        {
          "name": "F#2",
          "midi": 42,
          "time": 133.63647500000025,
          "velocity": 0.7874015748031497,
          "duration": 0.272727500000002
        },
        {
          "name": "F2",
          "midi": 41,
          "time": 134.18193000000025,
          "velocity": 0.7874015748031497,
          "duration": 0.1363637499999868
        },
        {
          "name": "G2",
          "midi": 43,
          "time": 134.31829375000024,
          "velocity": 0.7874015748031497,
          "duration": 0.1363637499999868
        },
        {
          "name": "A#2",
          "midi": 46,
          "time": 134.45465750000022,
          "velocity": 0.7874015748031497,
          "duration": 0.1363637499999868
        },
        {
          "name": "G2",
          "midi": 43,
          "time": 134.5910212500002,
          "velocity": 0.7874015748031497,
          "duration": 0.1363637499999868
        },
        {
          "name": "F2",
          "midi": 41,
          "time": 134.7273850000002,
          "velocity": 0.7874015748031497,
          "duration": 0.1363637499999868
        },
        {
          "name": "D#2",
          "midi": 39,
          "time": 134.86374875000018,
          "velocity": 0.7874015748031497,
          "duration": 0.1363637499999868
        },
        {
          "name": "C2",
          "midi": 36,
          "time": 135.00011250000017,
          "velocity": 0.7874015748031497,
          "duration": 0.1363637499999868
        },
        {
          "name": "A#1",
          "midi": 34,
          "time": 135.13647625000016,
          "velocity": 0.7874015748031497,
          "duration": 0.1363637499999868
        },
        {
          "name": "C2",
          "midi": 36,
          "time": 135.27284000000014,
          "velocity": 0.7874015748031497,
          "duration": 0.1363637499999868
        },
        {
          "name": "C2",
          "midi": 36,
          "time": 135.40920375000013,
          "velocity": 0.7874015748031497,
          "duration": 0.1363637499999868
        },
        {
          "name": "C2",
          "midi": 36,
          "time": 135.54556750000012,
          "velocity": 0.7874015748031497,
          "duration": 0.1363637499999868
        },
        {
          "name": "C2",
          "midi": 36,
          "time": 135.6819312500001,
          "velocity": 0.7874015748031497,
          "duration": 0.1363637499999868
        },
        {
          "name": "C2",
          "midi": 36,
          "time": 136.0910225000001,
          "velocity": 0.7874015748031497,
          "duration": 0.1363637499999868
        },
        {
          "name": "C2",
          "midi": 36,
          "time": 136.22738625000008,
          "velocity": 0.7874015748031497,
          "duration": 0.1363637499999868
        },
        {
          "name": "C2",
          "midi": 36,
          "time": 136.36375000000007,
          "velocity": 0.7874015748031497,
          "duration": 0.1363637499999868
        },
        {
          "name": "C2",
          "midi": 36,
          "time": 136.50011375000005,
          "velocity": 0.7874015748031497,
          "duration": 0.1363637499999868
        },
        {
          "name": "C2",
          "midi": 36,
          "time": 136.63647750000004,
          "velocity": 0.7874015748031497,
          "duration": 0.272727500000002
        },
        {
          "name": "C2",
          "midi": 36,
          "time": 136.90920500000004,
          "velocity": 0.7874015748031497,
          "duration": 0.1363637499999868
        },
        {
          "name": "C2",
          "midi": 36,
          "time": 137.04556875000003,
          "velocity": 0.7874015748031497,
          "duration": 0.1363637499999868
        },
        {
          "name": "D#2",
          "midi": 39,
          "time": 137.18193250000002,
          "velocity": 0.7874015748031497,
          "duration": 0.1363637499999868
        },
        {
          "name": "E2",
          "midi": 40,
          "time": 137.31829625,
          "velocity": 0.7874015748031497,
          "duration": 0.1363637499999868
        },
        {
          "name": "F2",
          "midi": 41,
          "time": 137.45466,
          "velocity": 0.7874015748031497,
          "duration": 0.1363637499999868
        },
        {
          "name": "F2",
          "midi": 41,
          "time": 137.59102374999998,
          "velocity": 0.7874015748031497,
          "duration": 0.1363637499999868
        },
        {
          "name": "F2",
          "midi": 41,
          "time": 137.72738749999996,
          "velocity": 0.7874015748031497,
          "duration": 0.1363637499999868
        },
        {
          "name": "F2",
          "midi": 41,
          "time": 137.86375124999995,
          "velocity": 0.7874015748031497,
          "duration": 0.1363637499999868
        },
        {
          "name": "F#2",
          "midi": 42,
          "time": 138.00011499999994,
          "velocity": 0.7874015748031497,
          "duration": 0.272727500000002
        },
        {
          "name": "F2",
          "midi": 41,
          "time": 138.54556999999994,
          "velocity": 0.7874015748031497,
          "duration": 0.1363637499999868
        },
        {
          "name": "G2",
          "midi": 43,
          "time": 138.68193374999993,
          "velocity": 0.7874015748031497,
          "duration": 0.1363637499999868
        },
        {
          "name": "A#2",
          "midi": 46,
          "time": 138.81829749999991,
          "velocity": 0.7874015748031497,
          "duration": 0.1363637499999868
        },
        {
          "name": "G2",
          "midi": 43,
          "time": 138.9546612499999,
          "velocity": 0.7874015748031497,
          "duration": 0.1363637499999868
        },
        {
          "name": "F2",
          "midi": 41,
          "time": 139.0910249999999,
          "velocity": 0.7874015748031497,
          "duration": 0.1363637499999868
        },
        {
          "name": "D#2",
          "midi": 39,
          "time": 139.22738874999988,
          "velocity": 0.7874015748031497,
          "duration": 0.1363637499999868
        },
        {
          "name": "C2",
          "midi": 36,
          "time": 139.36375249999986,
          "velocity": 0.7874015748031497,
          "duration": 0.1363637499999868
        },
        {
          "name": "A#1",
          "midi": 34,
          "time": 139.50011624999985,
          "velocity": 0.7874015748031497,
          "duration": 0.1363637499999868
        },
        {
          "name": "C2",
          "midi": 36,
          "time": 139.63647999999984,
          "velocity": 0.7874015748031497,
          "duration": 0.272727500000002
        },
        {
          "name": "C2",
          "midi": 36,
          "time": 140.04557124999982,
          "velocity": 0.7874015748031497,
          "duration": 0.272727500000002
        },
        {
          "name": "C2",
          "midi": 36,
          "time": 140.4546624999998,
          "velocity": 0.7874015748031497,
          "duration": 0.545455000000004
        },
        {
          "name": "D#2",
          "midi": 39,
          "time": 141.00011749999982,
          "velocity": 0.7874015748031497,
          "duration": 0.1363637499999868
        },
        {
          "name": "G2",
          "midi": 43,
          "time": 141.1364812499998,
          "velocity": 0.7874015748031497,
          "duration": 0.1363637499999868
        },
        {
          "name": "C3",
          "midi": 48,
          "time": 141.2728449999998,
          "velocity": 0.7874015748031497,
          "duration": 0.1363637499999868
        },
        {
          "name": "A#2",
          "midi": 46,
          "time": 141.40920874999978,
          "velocity": 0.7874015748031497,
          "duration": 0.1363637499999868
        },
        {
          "name": "G2",
          "midi": 43,
          "time": 141.54557249999976,
          "velocity": 0.7874015748031497,
          "duration": 0.272727500000002
        },
        {
          "name": "F1",
          "midi": 29,
          "time": 141.81829999999977,
          "velocity": 0.7874015748031497,
          "duration": 0.272727500000002
        },
        {
          "name": "F1",
          "midi": 29,
          "time": 142.22739124999976,
          "velocity": 0.7874015748031497,
          "duration": 0.272727500000002
        },
        {
          "name": "F1",
          "midi": 29,
          "time": 142.63648249999974,
          "velocity": 0.7874015748031497,
          "duration": 0.5454549999999756
        },
        {
          "name": "C2",
          "midi": 36,
          "time": 143.04557374999973,
          "velocity": 0.7874015748031497,
          "duration": 0.1363637499999868
        },
        {
          "name": "D#2",
          "midi": 39,
          "time": 143.18193749999972,
          "velocity": 0.7874015748031497,
          "duration": 0.1363637499999868
        },
        {
          "name": "E2",
          "midi": 40,
          "time": 143.3183012499997,
          "velocity": 0.7874015748031497,
          "duration": 0.1363637499999868
        },
        {
          "name": "F2",
          "midi": 41,
          "time": 143.4546649999997,
          "velocity": 0.7874015748031497,
          "duration": 0.1363637499999868
        },
        {
          "name": "G#2",
          "midi": 44,
          "time": 143.59102874999968,
          "velocity": 0.7874015748031497,
          "duration": 0.1363637499999868
        },
        {
          "name": "A2",
          "midi": 45,
          "time": 143.72739249999967,
          "velocity": 0.7874015748031497,
          "duration": 0.272727500000002
        },
        {
          "name": "C2",
          "midi": 36,
          "time": 144.00011999999967,
          "velocity": 0.7874015748031497,
          "duration": 0.272727500000002
        },
        {
          "name": "C2",
          "midi": 36,
          "time": 144.40921124999966,
          "velocity": 0.7874015748031497,
          "duration": 0.1363637499999868
        },
        {
          "name": "A#1",
          "midi": 34,
          "time": 144.68193874999963,
          "velocity": 0.7874015748031497,
          "duration": 0.1363637499999868
        },
        {
          "name": "C2",
          "midi": 36,
          "time": 144.81830249999962,
          "velocity": 0.7874015748031497,
          "duration": 0.272727500000002
        },
        {
          "name": "E1",
          "midi": 28,
          "time": 145.2273937499996,
          "velocity": 0.7874015748031497,
          "duration": 0.1363637499999868
        },
        {
          "name": "F1",
          "midi": 29,
          "time": 145.3637574999996,
          "velocity": 0.7874015748031497,
          "duration": 0.272727500000002
        },
        {
          "name": "G1",
          "midi": 31,
          "time": 145.6364849999996,
          "velocity": 0.7874015748031497,
          "duration": 0.1363637499999868
        },
        {
          "name": "G1",
          "midi": 31,
          "time": 145.77284874999958,
          "velocity": 0.7874015748031497,
          "duration": 0.1363637499999868
        },
        {
          "name": "A1",
          "midi": 33,
          "time": 145.90921249999957,
          "velocity": 0.7874015748031497,
          "duration": 0.1363637499999868
        },
        {
          "name": "G1",
          "midi": 31,
          "time": 146.04557624999956,
          "velocity": 0.7874015748031497,
          "duration": 0.1363637499999868
        },
        {
          "name": "C2",
          "midi": 36,
          "time": 146.18193999999954,
          "velocity": 0.7874015748031497,
          "duration": 0.272727500000002
        },
        {
          "name": "C2",
          "midi": 36,
          "time": 146.59103124999953,
          "velocity": 0.7874015748031497,
          "duration": 0.272727500000002
        },
        {
          "name": "A#1",
          "midi": 34,
          "time": 146.86375874999953,
          "velocity": 0.7874015748031497,
          "duration": 0.1363637499999868
        },
        {
          "name": "C2",
          "midi": 36,
          "time": 147.00012249999952,
          "velocity": 0.7874015748031497,
          "duration": 0.1363637499999868
        },
        {
          "name": "E1",
          "midi": 28,
          "time": 147.1364862499995,
          "velocity": 0.7874015748031497,
          "duration": 0.1363637499999868
        },
        {
          "name": "F1",
          "midi": 29,
          "time": 147.2728499999995,
          "velocity": 0.7874015748031497,
          "duration": 0.272727500000002
        },
        {
          "name": "G1",
          "midi": 31,
          "time": 147.5455774999995,
          "velocity": 0.7874015748031497,
          "duration": 0.272727500000002
        },
        {
          "name": "B1",
          "midi": 35,
          "time": 147.8183049999995,
          "velocity": 0.7874015748031497,
          "duration": 0.1363637499999868
        },
        {
          "name": "G1",
          "midi": 31,
          "time": 147.95466874999948,
          "velocity": 0.7874015748031497,
          "duration": 0.1363637499999868
        },
        {
          "name": "B1",
          "midi": 35,
          "time": 148.09103249999947,
          "velocity": 0.7874015748031497,
          "duration": 0.272727500000002
        },
        {
          "name": "C2",
          "midi": 36,
          "time": 148.36375999999947,
          "velocity": 0.7874015748031497,
          "duration": 0.272727500000002
        },
        {
          "name": "C2",
          "midi": 36,
          "time": 148.77285124999946,
          "velocity": 0.7874015748031497,
          "duration": 0.1363637499999868
        },
        {
          "name": "A#1",
          "midi": 34,
          "time": 149.04557874999944,
          "velocity": 0.7874015748031497,
          "duration": 0.1363637499999868
        },
        {
          "name": "C2",
          "midi": 36,
          "time": 149.18194249999942,
          "velocity": 0.7874015748031497,
          "duration": 0.272727500000002
        },
        {
          "name": "E1",
          "midi": 28,
          "time": 149.5910337499994,
          "velocity": 0.7874015748031497,
          "duration": 0.1363637499999868
        },
        {
          "name": "F1",
          "midi": 29,
          "time": 149.7273974999994,
          "velocity": 0.7874015748031497,
          "duration": 0.272727500000002
        },
        {
          "name": "G1",
          "midi": 31,
          "time": 150.0001249999994,
          "velocity": 0.7874015748031497,
          "duration": 0.1363637499999868
        },
        {
          "name": "G1",
          "midi": 31,
          "time": 150.1364887499994,
          "velocity": 0.7874015748031497,
          "duration": 0.1363637499999868
        },
        {
          "name": "A1",
          "midi": 33,
          "time": 150.27285249999937,
          "velocity": 0.7874015748031497,
          "duration": 0.1363637499999868
        },
        {
          "name": "G1",
          "midi": 31,
          "time": 150.40921624999936,
          "velocity": 0.7874015748031497,
          "duration": 0.1363637499999868
        },
        {
          "name": "C2",
          "midi": 36,
          "time": 150.54557999999935,
          "velocity": 0.7874015748031497,
          "duration": 0.272727500000002
        },
        {
          "name": "C2",
          "midi": 36,
          "time": 150.95467124999934,
          "velocity": 0.7874015748031497,
          "duration": 0.272727500000002
        },
        {
          "name": "A#1",
          "midi": 34,
          "time": 151.22739874999934,
          "velocity": 0.7874015748031497,
          "duration": 0.1363637499999868
        },
        {
          "name": "C2",
          "midi": 36,
          "time": 151.36376249999932,
          "velocity": 0.7874015748031497,
          "duration": 0.3636366666666788
        },
        {
          "name": "E1",
          "midi": 28,
          "time": 151.77285374999934,
          "velocity": 0.7874015748031497,
          "duration": 0.1363637499999868
        },
        {
          "name": "G1",
          "midi": 31,
          "time": 151.90921749999933,
          "velocity": 0.7874015748031497,
          "duration": 0.1363637499999868
        },
        {
          "name": "G1",
          "midi": 31,
          "time": 152.04558124999932,
          "velocity": 0.7874015748031497,
          "duration": 0.1363637499999868
        },
        {
          "name": "A1",
          "midi": 33,
          "time": 152.1819449999993,
          "velocity": 0.7874015748031497,
          "duration": 0.545455000000004
        },
        {
          "name": "E1",
          "midi": 28,
          "time": 152.7273999999993,
          "velocity": 0.7874015748031497,
          "duration": 0.1363637499999868
        },
        {
          "name": "G1",
          "midi": 31,
          "time": 152.8637637499993,
          "velocity": 0.7874015748031497,
          "duration": 0.1363637499999868
        },
        {
          "name": "G#1",
          "midi": 32,
          "time": 153.00012749999928,
          "velocity": 0.7874015748031497,
          "duration": 0.1363637499999868
        },
        {
          "name": "E2",
          "midi": 40,
          "time": 153.13649124999927,
          "velocity": 0.7874015748031497,
          "duration": 0.1363637499999868
        },
        {
          "name": "A1",
          "midi": 33,
          "time": 153.40921874999924,
          "velocity": 0.7874015748031497,
          "duration": 0.1363637499999868
        },
        {
          "name": "A#1",
          "midi": 34,
          "time": 153.54558249999923,
          "velocity": 0.7874015748031497,
          "duration": 0.1363637499999868
        },
        {
          "name": "B1",
          "midi": 35,
          "time": 153.6819462499992,
          "velocity": 0.7874015748031497,
          "duration": 0.1363637499999868
        },
        {
          "name": "E2",
          "midi": 40,
          "time": 153.8183099999992,
          "velocity": 0.7874015748031497,
          "duration": 0.1363637499999868
        },
        {
          "name": "E1",
          "midi": 28,
          "time": 154.09103749999917,
          "velocity": 0.7874015748031497,
          "duration": 0.272727500000002
        },
        {
          "name": "E1",
          "midi": 28,
          "time": 154.90921999999918,
          "velocity": 0.7874015748031497,
          "duration": 0.1363637499999868
        },
        {
          "name": "G1",
          "midi": 31,
          "time": 155.04558374999917,
          "velocity": 0.7874015748031497,
          "duration": 0.1363637499999868
        },
        {
          "name": "G#1",
          "midi": 32,
          "time": 155.18194749999915,
          "velocity": 0.7874015748031497,
          "duration": 0.1363637499999868
        },
        {
          "name": "E2",
          "midi": 40,
          "time": 155.31831124999914,
          "velocity": 0.7874015748031497,
          "duration": 0.1363637499999868
        },
        {
          "name": "A1",
          "midi": 33,
          "time": 155.59103874999911,
          "velocity": 0.7874015748031497,
          "duration": 0.1363637499999868
        },
        {
          "name": "A#1",
          "midi": 34,
          "time": 155.7274024999991,
          "velocity": 0.7874015748031497,
          "duration": 0.1363637499999868
        },
        {
          "name": "B1",
          "midi": 35,
          "time": 155.8637662499991,
          "velocity": 0.7874015748031497,
          "duration": 0.1363637499999868
        },
        {
          "name": "E2",
          "midi": 40,
          "time": 156.00012999999907,
          "velocity": 0.7874015748031497,
          "duration": 0.1363637499999868
        },
        {
          "name": "A1",
          "midi": 33,
          "time": 156.27285749999905,
          "velocity": 1,
          "duration": 0.568182291666659
        },
        {
          "name": "E1",
          "midi": 28,
          "time": 157.09103999999905,
          "velocity": 0.7874015748031497,
          "duration": 0.1363637499999868
        },
        {
          "name": "G1",
          "midi": 31,
          "time": 157.22740374999904,
          "velocity": 0.7874015748031497,
          "duration": 0.1363637499999868
        },
        {
          "name": "G#1",
          "midi": 32,
          "time": 157.36376749999903,
          "velocity": 0.7874015748031497,
          "duration": 0.1363637499999868
        },
        {
          "name": "E2",
          "midi": 40,
          "time": 157.50013124999901,
          "velocity": 0.7874015748031497,
          "duration": 0.1363637499999868
        },
        {
          "name": "A1",
          "midi": 33,
          "time": 157.772858749999,
          "velocity": 0.7874015748031497,
          "duration": 0.1363637499999868
        },
        {
          "name": "A#1",
          "midi": 34,
          "time": 157.90922249999898,
          "velocity": 0.7874015748031497,
          "duration": 0.1363637499999868
        },
        {
          "name": "B1",
          "midi": 35,
          "time": 158.04558624999896,
          "velocity": 0.7874015748031497,
          "duration": 0.1363637499999868
        },
        {
          "name": "E2",
          "midi": 40,
          "time": 158.18194999999895,
          "velocity": 0.7874015748031497,
          "duration": 0.1363637499999868
        },
        {
          "name": "E1",
          "midi": 28,
          "time": 158.45467749999892,
          "velocity": 0.7874015748031497,
          "duration": 0.272727500000002
        },
        {
          "name": "E1",
          "midi": 28,
          "time": 159.27285999999893,
          "velocity": 0.7874015748031497,
          "duration": 0.1363637499999868
        },
        {
          "name": "G1",
          "midi": 31,
          "time": 159.40922374999892,
          "velocity": 0.7874015748031497,
          "duration": 0.1363637499999868
        },
        {
          "name": "G#1",
          "midi": 32,
          "time": 159.5455874999989,
          "velocity": 0.7874015748031497,
          "duration": 0.1363637499999868
        },
        {
          "name": "E2",
          "midi": 40,
          "time": 159.6819512499989,
          "velocity": 0.7874015748031497,
          "duration": 0.1363637499999868
        },
        {
          "name": "A1",
          "midi": 33,
          "time": 159.95467874999886,
          "velocity": 0.7874015748031497,
          "duration": 0.1363637499999868
        },
        {
          "name": "A#1",
          "midi": 34,
          "time": 160.09104249999885,
          "velocity": 0.7874015748031497,
          "duration": 0.1363637499999868
        },
        {
          "name": "B1",
          "midi": 35,
          "time": 160.22740624999884,
          "velocity": 0.7874015748031497,
          "duration": 0.1363637499999868
        },
        {
          "name": "E2",
          "midi": 40,
          "time": 160.36376999999882,
          "velocity": 0.7874015748031497,
          "duration": 0.1363637499999868
        },
        {
          "name": "A1",
          "midi": 33,
          "time": 160.6364974999988,
          "velocity": 1,
          "duration": 0.568182291666659
        },
        {
          "name": "E1",
          "midi": 28,
          "time": 161.4546799999988,
          "velocity": 0.7874015748031497,
          "duration": 0.1363637499999868
        },
        {
          "name": "G1",
          "midi": 31,
          "time": 161.5910437499988,
          "velocity": 0.7874015748031497,
          "duration": 0.1363637499999868
        },
        {
          "name": "G#1",
          "midi": 32,
          "time": 161.72740749999878,
          "velocity": 0.7874015748031497,
          "duration": 0.1363637499999868
        },
        {
          "name": "E2",
          "midi": 40,
          "time": 161.86377124999876,
          "velocity": 0.7874015748031497,
          "duration": 0.1363637499999868
        },
        {
          "name": "A1",
          "midi": 33,
          "time": 162.13649874999874,
          "velocity": 0.7874015748031497,
          "duration": 0.1363637499999868
        },
        {
          "name": "A#1",
          "midi": 34,
          "time": 162.27286249999872,
          "velocity": 0.7874015748031497,
          "duration": 0.1363637499999868
        },
        {
          "name": "B1",
          "midi": 35,
          "time": 162.4092262499987,
          "velocity": 0.7874015748031497,
          "duration": 0.1363637499999868
        },
        {
          "name": "E2",
          "midi": 40,
          "time": 162.5455899999987,
          "velocity": 0.7874015748031497,
          "duration": 0.1363637499999868
        },
        {
          "name": "E1",
          "midi": 28,
          "time": 162.81831749999867,
          "velocity": 0.7874015748031497,
          "duration": 0.272727500000002
        },
        {
          "name": "E1",
          "midi": 28,
          "time": 163.63649999999868,
          "velocity": 0.7874015748031497,
          "duration": 0.1363637499999868
        },
        {
          "name": "G1",
          "midi": 31,
          "time": 163.77286374999866,
          "velocity": 0.7874015748031497,
          "duration": 0.1363637499999868
        },
        {
          "name": "G#1",
          "midi": 32,
          "time": 163.90922749999865,
          "velocity": 0.7874015748031497,
          "duration": 0.1363637499999868
        },
        {
          "name": "E2",
          "midi": 40,
          "time": 164.04559124999864,
          "velocity": 0.7874015748031497,
          "duration": 0.1363637499999868
        },
        {
          "name": "A1",
          "midi": 33,
          "time": 164.3183187499986,
          "velocity": 0.7874015748031497,
          "duration": 0.1363637499999868
        },
        {
          "name": "A#1",
          "midi": 34,
          "time": 164.4546824999986,
          "velocity": 0.7874015748031497,
          "duration": 0.1363637499999868
        },
        {
          "name": "B1",
          "midi": 35,
          "time": 164.59104624999858,
          "velocity": 0.7874015748031497,
          "duration": 0.1363637499999868
        },
        {
          "name": "E2",
          "midi": 40,
          "time": 164.72740999999857,
          "velocity": 0.7874015748031497,
          "duration": 0.1363637499999868
        },
        {
          "name": "A1",
          "midi": 33,
          "time": 165.00013749999854,
          "velocity": 1,
          "duration": 0.568182291666659
        },
        {
          "name": "E1",
          "midi": 28,
          "time": 165.81831999999855,
          "velocity": 0.7874015748031497,
          "duration": 0.1363637499999868
        },
        {
          "name": "G1",
          "midi": 31,
          "time": 165.95468374999854,
          "velocity": 0.7874015748031497,
          "duration": 0.1363637499999868
        },
        {
          "name": "G#1",
          "midi": 32,
          "time": 166.09104749999852,
          "velocity": 0.7874015748031497,
          "duration": 0.1363637499999868
        },
        {
          "name": "E2",
          "midi": 40,
          "time": 166.2274112499985,
          "velocity": 0.7874015748031497,
          "duration": 0.1363637499999868
        },
        {
          "name": "A1",
          "midi": 33,
          "time": 166.50013874999848,
          "velocity": 0.7874015748031497,
          "duration": 0.1363637499999868
        },
        {
          "name": "A#1",
          "midi": 34,
          "time": 166.63650249999847,
          "velocity": 0.7874015748031497,
          "duration": 0.1363637499999868
        },
        {
          "name": "B1",
          "midi": 35,
          "time": 166.77286624999846,
          "velocity": 0.7874015748031497,
          "duration": 0.1363637499999868
        },
        {
          "name": "E2",
          "midi": 40,
          "time": 166.90922999999844,
          "velocity": 0.7874015748031497,
          "duration": 0.1363637499999868
        },
        {
          "name": "E1",
          "midi": 28,
          "time": 167.18195749999842,
          "velocity": 0.7874015748031497,
          "duration": 0.272727500000002
        },
        {
          "name": "E1",
          "midi": 28,
          "time": 168.00013999999842,
          "velocity": 0.7874015748031497,
          "duration": 0.1363637499999868
        },
        {
          "name": "G1",
          "midi": 31,
          "time": 168.1365037499984,
          "velocity": 0.7874015748031497,
          "duration": 0.1363637499999868
        },
        {
          "name": "G#1",
          "midi": 32,
          "time": 168.2728674999984,
          "velocity": 0.7874015748031497,
          "duration": 0.1363637499999868
        },
        {
          "name": "E2",
          "midi": 40,
          "time": 168.40923124999838,
          "velocity": 0.7874015748031497,
          "duration": 0.1363637499999868
        },
        {
          "name": "A1",
          "midi": 33,
          "time": 168.68195874999836,
          "velocity": 0.7874015748031497,
          "duration": 0.1363637499999868
        },
        {
          "name": "A#1",
          "midi": 34,
          "time": 168.81832249999835,
          "velocity": 0.7874015748031497,
          "duration": 0.1363637499999868
        },
        {
          "name": "B1",
          "midi": 35,
          "time": 168.95468624999833,
          "velocity": 0.7874015748031497,
          "duration": 0.1363637499999868
        },
        {
          "name": "E2",
          "midi": 40,
          "time": 169.09104999999832,
          "velocity": 0.7874015748031497,
          "duration": 0.1363637499999868
        },
        {
          "name": "A1",
          "midi": 33,
          "time": 169.3637774999983,
          "velocity": 1,
          "duration": 0.568182291666659
        },
        {
          "name": "E1",
          "midi": 28,
          "time": 170.1819599999983,
          "velocity": 0.7874015748031497,
          "duration": 0.1363637499999868
        },
        {
          "name": "G1",
          "midi": 31,
          "time": 170.31832374999829,
          "velocity": 0.7874015748031497,
          "duration": 0.1363637499999868
        },
        {
          "name": "G#1",
          "midi": 32,
          "time": 170.45468749999827,
          "velocity": 0.7874015748031497,
          "duration": 0.1363637499999868
        },
        {
          "name": "E2",
          "midi": 40,
          "time": 170.59105124999826,
          "velocity": 0.7874015748031497,
          "duration": 0.1363637499999868
        },
        {
          "name": "A1",
          "midi": 33,
          "time": 170.86377874999823,
          "velocity": 0.7874015748031497,
          "duration": 0.1363637499999868
        },
        {
          "name": "A#1",
          "midi": 34,
          "time": 171.00014249999822,
          "velocity": 0.7874015748031497,
          "duration": 0.1363637499999868
        },
        {
          "name": "B1",
          "midi": 35,
          "time": 171.1365062499982,
          "velocity": 0.7874015748031497,
          "duration": 0.1363637499999868
        },
        {
          "name": "E2",
          "midi": 40,
          "time": 171.2728699999982,
          "velocity": 0.7874015748031497,
          "duration": 0.1363637499999868
        },
        {
          "name": "E1",
          "midi": 28,
          "time": 171.54559749999817,
          "velocity": 0.7874015748031497,
          "duration": 0.272727500000002
        },
        {
          "name": "E1",
          "midi": 28,
          "time": 172.36377999999817,
          "velocity": 0.7874015748031497,
          "duration": 0.1363637499999868
        },
        {
          "name": "G1",
          "midi": 31,
          "time": 172.50014374999816,
          "velocity": 0.7874015748031497,
          "duration": 0.1363637499999868
        },
        {
          "name": "G#1",
          "midi": 32,
          "time": 172.63650749999815,
          "velocity": 0.7874015748031497,
          "duration": 0.1363637499999868
        },
        {
          "name": "E2",
          "midi": 40,
          "time": 172.77287124999813,
          "velocity": 0.7874015748031497,
          "duration": 0.1363637499999868
        },
        {
          "name": "A1",
          "midi": 33,
          "time": 173.0455987499981,
          "velocity": 0.7874015748031497,
          "duration": 0.1363637499999868
        },
        {
          "name": "A#1",
          "midi": 34,
          "time": 173.1819624999981,
          "velocity": 0.7874015748031497,
          "duration": 0.1363637499999868
        },
        {
          "name": "B1",
          "midi": 35,
          "time": 173.31832624999808,
          "velocity": 0.7874015748031497,
          "duration": 0.1363637499999868
        },
        {
          "name": "E2",
          "midi": 40,
          "time": 173.45468999999807,
          "velocity": 0.7874015748031497,
          "duration": 0.1363637499999868
        },
        {
          "name": "A1",
          "midi": 33,
          "time": 173.72741749999804,
          "velocity": 1,
          "duration": 0.568182291666659
        },
        {
          "name": "E1",
          "midi": 28,
          "time": 174.54559999999805,
          "velocity": 0.7874015748031497,
          "duration": 0.1363637499999868
        },
        {
          "name": "G1",
          "midi": 31,
          "time": 174.68196374999803,
          "velocity": 0.7874015748031497,
          "duration": 0.1363637499999868
        },
        {
          "name": "G#1",
          "midi": 32,
          "time": 174.81832749999802,
          "velocity": 0.7874015748031497,
          "duration": 0.1363637499999868
        },
        {
          "name": "E2",
          "midi": 40,
          "time": 174.954691249998,
          "velocity": 0.7874015748031497,
          "duration": 0.1363637499999868
        },
        {
          "name": "A1",
          "midi": 33,
          "time": 175.22741874999798,
          "velocity": 0.7874015748031497,
          "duration": 0.1363637499999868
        },
        {
          "name": "A#1",
          "midi": 34,
          "time": 175.36378249999797,
          "velocity": 0.7874015748031497,
          "duration": 0.1363637499999868
        },
        {
          "name": "B1",
          "midi": 35,
          "time": 175.50014624999795,
          "velocity": 0.7874015748031497,
          "duration": 0.1363637499999868
        },
        {
          "name": "E2",
          "midi": 40,
          "time": 175.63650999999794,
          "velocity": 0.7874015748031497,
          "duration": 0.1363637499999868
        },
        {
          "name": "E1",
          "midi": 28,
          "time": 175.90923749999791,
          "velocity": 0.7874015748031497,
          "duration": 0.272727500000002
        },
        {
          "name": "E1",
          "midi": 28,
          "time": 176.72741999999792,
          "velocity": 0.7874015748031497,
          "duration": 0.1363637499999868
        },
        {
          "name": "G1",
          "midi": 31,
          "time": 176.8637837499979,
          "velocity": 0.7874015748031497,
          "duration": 0.1363637499999868
        },
        {
          "name": "G#1",
          "midi": 32,
          "time": 177.0001474999979,
          "velocity": 0.7874015748031497,
          "duration": 0.1363637499999868
        },
        {
          "name": "E2",
          "midi": 40,
          "time": 177.13651124999788,
          "velocity": 0.7874015748031497,
          "duration": 0.1363637499999868
        },
        {
          "name": "A1",
          "midi": 33,
          "time": 177.40923874999785,
          "velocity": 0.7874015748031497,
          "duration": 0.1363637499999868
        },
        {
          "name": "A#1",
          "midi": 34,
          "time": 177.54560249999784,
          "velocity": 0.7874015748031497,
          "duration": 0.1363637499999868
        },
        {
          "name": "B1",
          "midi": 35,
          "time": 177.68196624999783,
          "velocity": 0.7874015748031497,
          "duration": 0.1363637499999868
        },
        {
          "name": "E2",
          "midi": 40,
          "time": 177.81832999999781,
          "velocity": 0.7874015748031497,
          "duration": 0.1363637499999868
        },
        {
          "name": "A1",
          "midi": 33,
          "time": 178.0910574999978,
          "velocity": 1,
          "duration": 0.568182291666659
        },
        {
          "name": "E1",
          "midi": 28,
          "time": 178.9092399999978,
          "velocity": 0.7874015748031497,
          "duration": 0.1363637499999868
        },
        {
          "name": "G1",
          "midi": 31,
          "time": 179.04560374999778,
          "velocity": 0.7874015748031497,
          "duration": 0.1363637499999868
        },
        {
          "name": "G#1",
          "midi": 32,
          "time": 179.18196749999777,
          "velocity": 0.7874015748031497,
          "duration": 0.1363637499999868
        },
        {
          "name": "E2",
          "midi": 40,
          "time": 179.31833124999775,
          "velocity": 0.7874015748031497,
          "duration": 0.1363637499999868
        },
        {
          "name": "A1",
          "midi": 33,
          "time": 179.59105874999773,
          "velocity": 0.7874015748031497,
          "duration": 0.1363637499999868
        },
        {
          "name": "A#1",
          "midi": 34,
          "time": 179.72742249999772,
          "velocity": 0.7874015748031497,
          "duration": 0.1363637499999868
        },
        {
          "name": "B1",
          "midi": 35,
          "time": 179.8637862499977,
          "velocity": 0.7874015748031497,
          "duration": 0.1363637499999868
        },
        {
          "name": "E2",
          "midi": 40,
          "time": 180.0001499999977,
          "velocity": 0.7874015748031497,
          "duration": 0.1363637499999868
        },
        {
          "name": "E1",
          "midi": 28,
          "time": 180.27287749999766,
          "velocity": 0.7874015748031497,
          "duration": 0.272727500000002
        },
        {
          "name": "E1",
          "midi": 28,
          "time": 181.09105999999767,
          "velocity": 0.7874015748031497,
          "duration": 0.1363637499999868
        },
        {
          "name": "G1",
          "midi": 31,
          "time": 181.22742374999766,
          "velocity": 0.7874015748031497,
          "duration": 0.1363637499999868
        },
        {
          "name": "G#1",
          "midi": 32,
          "time": 181.36378749999764,
          "velocity": 0.7874015748031497,
          "duration": 0.1363637499999868
        },
        {
          "name": "E2",
          "midi": 40,
          "time": 181.50015124999763,
          "velocity": 0.7874015748031497,
          "duration": 0.1363637499999868
        },
        {
          "name": "A1",
          "midi": 33,
          "time": 181.7728787499976,
          "velocity": 0.7874015748031497,
          "duration": 0.1363637499999868
        },
        {
          "name": "A#1",
          "midi": 34,
          "time": 181.9092424999976,
          "velocity": 0.7874015748031497,
          "duration": 0.1363637499999868
        },
        {
          "name": "B1",
          "midi": 35,
          "time": 182.04560624999758,
          "velocity": 0.7874015748031497,
          "duration": 0.1363637499999868
        },
        {
          "name": "E2",
          "midi": 40,
          "time": 182.18196999999756,
          "velocity": 0.7874015748031497,
          "duration": 0.1363637499999868
        },
        {
          "name": "A1",
          "midi": 33,
          "time": 182.45469749999754,
          "velocity": 1,
          "duration": 0.568182291666659
        },
        {
          "name": "E1",
          "midi": 28,
          "time": 183.27287999999754,
          "velocity": 0.7874015748031497,
          "duration": 0.1363637499999868
        },
        {
          "name": "G1",
          "midi": 31,
          "time": 183.40924374999753,
          "velocity": 0.7874015748031497,
          "duration": 0.1363637499999868
        },
        {
          "name": "G#1",
          "midi": 32,
          "time": 183.54560749999752,
          "velocity": 0.7874015748031497,
          "duration": 0.1363637499999868
        },
        {
          "name": "E2",
          "midi": 40,
          "time": 183.6819712499975,
          "velocity": 0.7874015748031497,
          "duration": 0.1363637499999868
        },
        {
          "name": "A1",
          "midi": 33,
          "time": 183.95469874999748,
          "velocity": 0.7874015748031497,
          "duration": 0.1363637499999868
        },
        {
          "name": "A#1",
          "midi": 34,
          "time": 184.09106249999746,
          "velocity": 0.7874015748031497,
          "duration": 0.1363637499999868
        },
        {
          "name": "B1",
          "midi": 35,
          "time": 184.22742624999745,
          "velocity": 0.7874015748031497,
          "duration": 0.1363637499999868
        },
        {
          "name": "E2",
          "midi": 40,
          "time": 184.36378999999744,
          "velocity": 0.7874015748031497,
          "duration": 0.1363637499999868
        },
        {
          "name": "E1",
          "midi": 28,
          "time": 184.6365174999974,
          "velocity": 0.7874015748031497,
          "duration": 0.272727500000002
        },
        {
          "name": "E1",
          "midi": 28,
          "time": 185.45469999999742,
          "velocity": 0.7874015748031497,
          "duration": 0.1363637499999868
        },
        {
          "name": "G1",
          "midi": 31,
          "time": 185.5910637499974,
          "velocity": 0.7874015748031497,
          "duration": 0.1363637499999868
        },
        {
          "name": "G#1",
          "midi": 32,
          "time": 185.7274274999974,
          "velocity": 0.7874015748031497,
          "duration": 0.1363637499999868
        },
        {
          "name": "E2",
          "midi": 40,
          "time": 185.86379124999738,
          "velocity": 0.7874015748031497,
          "duration": 0.1363637499999868
        },
        {
          "name": "A1",
          "midi": 33,
          "time": 186.13651874999735,
          "velocity": 0.7874015748031497,
          "duration": 0.1363637499999868
        },
        {
          "name": "A#1",
          "midi": 34,
          "time": 186.27288249999734,
          "velocity": 0.7874015748031497,
          "duration": 0.1363637499999868
        },
        {
          "name": "B1",
          "midi": 35,
          "time": 186.40924624999732,
          "velocity": 0.7874015748031497,
          "duration": 0.1363637499999868
        },
        {
          "name": "E2",
          "midi": 40,
          "time": 186.5456099999973,
          "velocity": 0.7874015748031497,
          "duration": 0.1363637499999868
        },
        {
          "name": "A1",
          "midi": 33,
          "time": 186.81833749999728,
          "velocity": 1,
          "duration": 0.568182291666659
        },
        {
          "name": "E1",
          "midi": 28,
          "time": 187.6365199999973,
          "velocity": 0.7874015748031497,
          "duration": 0.1363637499999868
        },
        {
          "name": "G1",
          "midi": 31,
          "time": 187.77288374999728,
          "velocity": 0.7874015748031497,
          "duration": 0.1363637499999868
        },
        {
          "name": "G#1",
          "midi": 32,
          "time": 187.90924749999726,
          "velocity": 0.7874015748031497,
          "duration": 0.1363637499999868
        },
        {
          "name": "E2",
          "midi": 40,
          "time": 188.04561124999725,
          "velocity": 0.7874015748031497,
          "duration": 0.1363637499999868
        },
        {
          "name": "A1",
          "midi": 33,
          "time": 188.31833874999722,
          "velocity": 0.7874015748031497,
          "duration": 0.1363637499999868
        },
        {
          "name": "A#1",
          "midi": 34,
          "time": 188.4547024999972,
          "velocity": 0.7874015748031497,
          "duration": 0.1363637499999868
        },
        {
          "name": "B1",
          "midi": 35,
          "time": 188.5910662499972,
          "velocity": 0.7874015748031497,
          "duration": 0.1363637499999868
        },
        {
          "name": "E2",
          "midi": 40,
          "time": 188.72742999999718,
          "velocity": 0.7874015748031497,
          "duration": 0.1363637499999868
        },
        {
          "name": "E1",
          "midi": 28,
          "time": 189.00015749999716,
          "velocity": 0.7874015748031497,
          "duration": 0.272727500000002
        },
        {
          "name": "E1",
          "midi": 28,
          "time": 189.81833999999716,
          "velocity": 0.7874015748031497,
          "duration": 0.1363637499999868
        },
        {
          "name": "G1",
          "midi": 31,
          "time": 189.95470374999715,
          "velocity": 0.7874015748031497,
          "duration": 0.1363637499999868
        },
        {
          "name": "G#1",
          "midi": 32,
          "time": 190.09106749999714,
          "velocity": 0.7874015748031497,
          "duration": 0.1363637499999868
        },
        {
          "name": "E2",
          "midi": 40,
          "time": 190.22743124999712,
          "velocity": 0.7874015748031497,
          "duration": 0.1363637499999868
        },
        {
          "name": "A1",
          "midi": 33,
          "time": 190.5001587499971,
          "velocity": 0.7874015748031497,
          "duration": 0.1363637499999868
        },
        {
          "name": "A#1",
          "midi": 34,
          "time": 190.63652249999708,
          "velocity": 0.7874015748031497,
          "duration": 0.1363637499999868
        },
        {
          "name": "B1",
          "midi": 35,
          "time": 190.77288624999707,
          "velocity": 0.7874015748031497,
          "duration": 0.1363637499999868
        },
        {
          "name": "E2",
          "midi": 40,
          "time": 190.90924999999706,
          "velocity": 0.7874015748031497,
          "duration": 0.1363637499999868
        },
        {
          "name": "A1",
          "midi": 33,
          "time": 191.18197749999703,
          "velocity": 1,
          "duration": 0.568182291666659
        },
        {
          "name": "E1",
          "midi": 28,
          "time": 192.00015999999704,
          "velocity": 0.7874015748031497,
          "duration": 0.1363637499999868
        },
        {
          "name": "G1",
          "midi": 31,
          "time": 192.13652374999702,
          "velocity": 0.7874015748031497,
          "duration": 0.1363637499999868
        },
        {
          "name": "G#1",
          "midi": 32,
          "time": 192.272887499997,
          "velocity": 0.7874015748031497,
          "duration": 0.1363637499999868
        },
        {
          "name": "E2",
          "midi": 40,
          "time": 192.409251249997,
          "velocity": 0.7874015748031497,
          "duration": 0.1363637499999868
        },
        {
          "name": "A1",
          "midi": 33,
          "time": 192.68197874999697,
          "velocity": 0.7874015748031497,
          "duration": 0.1363637499999868
        },
        {
          "name": "A#1",
          "midi": 34,
          "time": 192.81834249999696,
          "velocity": 0.7874015748031497,
          "duration": 0.1363637499999868
        },
        {
          "name": "B1",
          "midi": 35,
          "time": 192.95470624999695,
          "velocity": 0.7874015748031497,
          "duration": 0.1363637499999868
        },
        {
          "name": "E2",
          "midi": 40,
          "time": 193.09106999999693,
          "velocity": 0.7874015748031497,
          "duration": 0.1363637499999868
        },
        {
          "name": "E1",
          "midi": 28,
          "time": 193.3637974999969,
          "velocity": 0.7874015748031497,
          "duration": 0.272727500000002
        },
        {
          "name": "E1",
          "midi": 28,
          "time": 194.1819799999969,
          "velocity": 0.7874015748031497,
          "duration": 0.1363637499999868
        },
        {
          "name": "G1",
          "midi": 31,
          "time": 194.3183437499969,
          "velocity": 0.7874015748031497,
          "duration": 0.1363637499999868
        },
        {
          "name": "G#1",
          "midi": 32,
          "time": 194.45470749999689,
          "velocity": 0.7874015748031497,
          "duration": 0.1363637499999868
        },
        {
          "name": "E2",
          "midi": 40,
          "time": 194.59107124999687,
          "velocity": 0.7874015748031497,
          "duration": 0.1363637499999868
        },
        {
          "name": "A1",
          "midi": 33,
          "time": 194.86379874999685,
          "velocity": 0.7874015748031497,
          "duration": 0.1363637499999868
        },
        {
          "name": "A#1",
          "midi": 34,
          "time": 195.00016249999683,
          "velocity": 0.7874015748031497,
          "duration": 0.1363637499999868
        },
        {
          "name": "B1",
          "midi": 35,
          "time": 195.13652624999682,
          "velocity": 0.7874015748031497,
          "duration": 0.1363637499999868
        },
        {
          "name": "E2",
          "midi": 40,
          "time": 195.2728899999968,
          "velocity": 0.7874015748031497,
          "duration": 0.1363637499999868
        },
        {
          "name": "A1",
          "midi": 33,
          "time": 195.54561749999678,
          "velocity": 1,
          "duration": 0.568182291666659
        }
      ],
      "controlChanges": {
        "7": [
          {
            "number": 7,
            "time": 0,
            "value": 0.7086614173228346
          }
        ],
        "32": [
          {
            "number": 32,
            "time": 12.2727375,
            "value": 0.9448818897637795
          }
        ]
      },
      "id": 5,
      "name": "Finger Bass",
      "instrumentNumber": 33,
      "instrument": "electric bass (finger)",
      "instrumentFamily": "bass",
      "channelNumber": 1,
      "isPercussion": false
    },
    {
      "startTime": 13.09092,
      "duration": 196.11379979166347,
      "length": 825,
      "notes": [
        {
          "name": "C2",
          "midi": 36,
          "time": 13.09092,
          "velocity": 0.7874015748031497,
          "duration": 0.27272750000000023
        },
        {
          "name": "C2",
          "midi": 36,
          "time": 13.50001125,
          "velocity": 0.7874015748031497,
          "duration": 0.13636374999999923
        },
        {
          "name": "A#1",
          "midi": 34,
          "time": 13.772738749999998,
          "velocity": 0.7874015748031497,
          "duration": 0.13636374999999923
        },
        {
          "name": "C2",
          "midi": 36,
          "time": 13.909102499999998,
          "velocity": 0.7874015748031497,
          "duration": 0.27272750000000023
        },
        {
          "name": "E1",
          "midi": 28,
          "time": 14.318193749999997,
          "velocity": 0.7874015748031497,
          "duration": 0.13636374999999923
        },
        {
          "name": "F1",
          "midi": 29,
          "time": 14.454557499999996,
          "velocity": 0.7874015748031497,
          "duration": 0.27272750000000023
        },
        {
          "name": "G1",
          "midi": 31,
          "time": 14.727284999999997,
          "velocity": 0.7874015748031497,
          "duration": 0.13636374999999923
        },
        {
          "name": "G1",
          "midi": 31,
          "time": 14.863648749999996,
          "velocity": 0.7874015748031497,
          "duration": 0.13636374999999923
        },
        {
          "name": "A1",
          "midi": 33,
          "time": 15.000012499999995,
          "velocity": 0.7874015748031497,
          "duration": 0.13636374999999923
        },
        {
          "name": "G1",
          "midi": 31,
          "time": 15.136376249999994,
          "velocity": 0.7874015748031497,
          "duration": 0.13636374999999923
        },
        {
          "name": "C2",
          "midi": 36,
          "time": 15.272739999999994,
          "velocity": 0.7874015748031497,
          "duration": 0.27272750000000023
        },
        {
          "name": "C2",
          "midi": 36,
          "time": 15.681831249999993,
          "velocity": 0.7874015748031497,
          "duration": 0.27272750000000023
        },
        {
          "name": "A#1",
          "midi": 34,
          "time": 15.954558749999993,
          "velocity": 0.7874015748031497,
          "duration": 0.136363750000001
        },
        {
          "name": "C2",
          "midi": 36,
          "time": 16.090922499999994,
          "velocity": 0.7874015748031497,
          "duration": 0.136363750000001
        },
        {
          "name": "E1",
          "midi": 28,
          "time": 16.227286249999995,
          "velocity": 0.7874015748031497,
          "duration": 0.136363750000001
        },
        {
          "name": "F1",
          "midi": 29,
          "time": 16.363649999999996,
          "velocity": 0.7874015748031497,
          "duration": 0.27272749999999846
        },
        {
          "name": "G1",
          "midi": 31,
          "time": 16.636377499999995,
          "velocity": 0.7874015748031497,
          "duration": 0.27272749999999846
        },
        {
          "name": "B1",
          "midi": 35,
          "time": 16.909104999999993,
          "velocity": 0.7874015748031497,
          "duration": 0.136363750000001
        },
        {
          "name": "G1",
          "midi": 31,
          "time": 17.045468749999994,
          "velocity": 0.7874015748031497,
          "duration": 0.136363750000001
        },
        {
          "name": "B1",
          "midi": 35,
          "time": 17.181832499999995,
          "velocity": 0.7874015748031497,
          "duration": 0.27272749999999846
        },
        {
          "name": "C2",
          "midi": 36,
          "time": 17.454559999999994,
          "velocity": 0.7874015748031497,
          "duration": 0.27272749999999846
        },
        {
          "name": "C2",
          "midi": 36,
          "time": 17.863651249999993,
          "velocity": 0.7874015748031497,
          "duration": 0.136363750000001
        },
        {
          "name": "A#1",
          "midi": 34,
          "time": 18.136378749999995,
          "velocity": 0.7874015748031497,
          "duration": 0.136363750000001
        },
        {
          "name": "C2",
          "midi": 36,
          "time": 18.272742499999996,
          "velocity": 0.7874015748031497,
          "duration": 0.27272749999999846
        },
        {
          "name": "E1",
          "midi": 28,
          "time": 18.681833749999996,
          "velocity": 0.7874015748031497,
          "duration": 0.136363750000001
        },
        {
          "name": "F1",
          "midi": 29,
          "time": 18.818197499999997,
          "velocity": 0.7874015748031497,
          "duration": 0.27272749999999846
        },
        {
          "name": "G1",
          "midi": 31,
          "time": 19.090924999999995,
          "velocity": 0.7874015748031497,
          "duration": 0.136363750000001
        },
        {
          "name": "G1",
          "midi": 31,
          "time": 19.227288749999996,
          "velocity": 0.7874015748031497,
          "duration": 0.136363750000001
        },
        {
          "name": "A1",
          "midi": 33,
          "time": 19.363652499999997,
          "velocity": 0.7874015748031497,
          "duration": 0.136363750000001
        },
        {
          "name": "G1",
          "midi": 31,
          "time": 19.500016249999998,
          "velocity": 0.7874015748031497,
          "duration": 0.136363750000001
        },
        {
          "name": "C2",
          "midi": 36,
          "time": 19.63638,
          "velocity": 0.7874015748031497,
          "duration": 0.27272749999999846
        },
        {
          "name": "C2",
          "midi": 36,
          "time": 20.04547125,
          "velocity": 0.7874015748031497,
          "duration": 0.27272749999999846
        },
        {
          "name": "A#1",
          "midi": 34,
          "time": 20.318198749999997,
          "velocity": 0.7874015748031497,
          "duration": 0.136363750000001
        },
        {
          "name": "C2",
          "midi": 36,
          "time": 20.454562499999998,
          "velocity": 0.7874015748031497,
          "duration": 0.136363750000001
        },
        {
          "name": "E1",
          "midi": 28,
          "time": 20.59092625,
          "velocity": 0.7874015748031497,
          "duration": 0.136363750000001
        },
        {
          "name": "F1",
          "midi": 29,
          "time": 20.72729,
          "velocity": 0.7874015748031497,
          "duration": 0.136363750000001
        },
        {
          "name": "F#1",
          "midi": 30,
          "time": 20.72729,
          "velocity": 0.7874015748031497,
          "duration": 0.272727500000002
        },
        {
          "name": "G1",
          "midi": 31,
          "time": 21.000017500000002,
          "velocity": 0.7874015748031497,
          "duration": 0.27272749999999846
        },
        {
          "name": "B1",
          "midi": 35,
          "time": 21.272745,
          "velocity": 0.7874015748031497,
          "duration": 0.136363750000001
        },
        {
          "name": "G1",
          "midi": 31,
          "time": 21.40910875,
          "velocity": 0.7874015748031497,
          "duration": 0.136363750000001
        },
        {
          "name": "B1",
          "midi": 35,
          "time": 21.545472500000002,
          "velocity": 0.7874015748031497,
          "duration": 0.27272749999999846
        },
        {
          "name": "C2",
          "midi": 36,
          "time": 21.8182,
          "velocity": 0.7874015748031497,
          "duration": 0.27272749999999846
        },
        {
          "name": "C2",
          "midi": 36,
          "time": 22.22729125,
          "velocity": 0.7874015748031497,
          "duration": 0.136363750000001
        },
        {
          "name": "A#1",
          "midi": 34,
          "time": 22.500018750000002,
          "velocity": 0.7874015748031497,
          "duration": 0.136363750000001
        },
        {
          "name": "C2",
          "midi": 36,
          "time": 22.636382500000003,
          "velocity": 0.7874015748031497,
          "duration": 0.27272749999999846
        },
        {
          "name": "E1",
          "midi": 28,
          "time": 23.045473750000003,
          "velocity": 0.7874015748031497,
          "duration": 0.136363750000001
        },
        {
          "name": "F1",
          "midi": 29,
          "time": 23.181837500000004,
          "velocity": 0.7874015748031497,
          "duration": 0.27272749999999846
        },
        {
          "name": "G1",
          "midi": 31,
          "time": 23.454565000000002,
          "velocity": 0.7874015748031497,
          "duration": 0.136363750000001
        },
        {
          "name": "G1",
          "midi": 31,
          "time": 23.590928750000003,
          "velocity": 0.7874015748031497,
          "duration": 0.136363750000001
        },
        {
          "name": "A1",
          "midi": 33,
          "time": 23.727292500000004,
          "velocity": 0.7874015748031497,
          "duration": 0.136363750000001
        },
        {
          "name": "G1",
          "midi": 31,
          "time": 23.863656250000005,
          "velocity": 0.7874015748031497,
          "duration": 0.136363750000001
        },
        {
          "name": "C2",
          "midi": 36,
          "time": 24.000020000000006,
          "velocity": 0.7874015748031497,
          "duration": 0.27272749999999846
        },
        {
          "name": "C2",
          "midi": 36,
          "time": 24.409111250000006,
          "velocity": 0.7874015748031497,
          "duration": 0.27272749999999846
        },
        {
          "name": "A#1",
          "midi": 34,
          "time": 24.681838750000004,
          "velocity": 0.7874015748031497,
          "duration": 0.136363750000001
        },
        {
          "name": "C2",
          "midi": 36,
          "time": 24.818202500000005,
          "velocity": 0.7874015748031497,
          "duration": 0.136363750000001
        },
        {
          "name": "E1",
          "midi": 28,
          "time": 24.954566250000006,
          "velocity": 0.7874015748031497,
          "duration": 0.136363750000001
        },
        {
          "name": "F1",
          "midi": 29,
          "time": 25.090930000000007,
          "velocity": 0.7874015748031497,
          "duration": 0.27272749999999846
        },
        {
          "name": "G1",
          "midi": 31,
          "time": 25.363657500000006,
          "velocity": 0.7874015748031497,
          "duration": 0.27272749999999846
        },
        {
          "name": "B1",
          "midi": 35,
          "time": 25.636385000000004,
          "velocity": 0.7874015748031497,
          "duration": 0.136363750000001
        },
        {
          "name": "G1",
          "midi": 31,
          "time": 25.772748750000005,
          "velocity": 0.7874015748031497,
          "duration": 0.136363750000001
        },
        {
          "name": "B1",
          "midi": 35,
          "time": 25.909112500000006,
          "velocity": 0.7874015748031497,
          "duration": 0.27272749999999846
        },
        {
          "name": "C2",
          "midi": 36,
          "time": 26.181840000000005,
          "velocity": 0.7874015748031497,
          "duration": 0.27272749999999846
        },
        {
          "name": "C2",
          "midi": 36,
          "time": 26.590931250000004,
          "velocity": 0.7874015748031497,
          "duration": 0.136363750000001
        },
        {
          "name": "A#1",
          "midi": 34,
          "time": 26.863658750000006,
          "velocity": 0.7874015748031497,
          "duration": 0.136363750000001
        },
        {
          "name": "C2",
          "midi": 36,
          "time": 27.000022500000007,
          "velocity": 0.7874015748031497,
          "duration": 0.27272749999999846
        },
        {
          "name": "E1",
          "midi": 28,
          "time": 27.409113750000007,
          "velocity": 0.7874015748031497,
          "duration": 0.136363750000001
        },
        {
          "name": "F1",
          "midi": 29,
          "time": 27.545477500000008,
          "velocity": 0.7874015748031497,
          "duration": 0.27272749999999846
        },
        {
          "name": "G1",
          "midi": 31,
          "time": 27.818205000000006,
          "velocity": 0.7874015748031497,
          "duration": 0.136363750000001
        },
        {
          "name": "G1",
          "midi": 31,
          "time": 27.954568750000007,
          "velocity": 0.7874015748031497,
          "duration": 0.136363750000001
        },
        {
          "name": "A1",
          "midi": 33,
          "time": 28.090932500000008,
          "velocity": 0.7874015748031497,
          "duration": 0.136363750000001
        },
        {
          "name": "G1",
          "midi": 31,
          "time": 28.22729625000001,
          "velocity": 0.7874015748031497,
          "duration": 0.136363750000001
        },
        {
          "name": "C2",
          "midi": 36,
          "time": 28.36366000000001,
          "velocity": 0.7874015748031497,
          "duration": 0.27272749999999846
        },
        {
          "name": "C2",
          "midi": 36,
          "time": 28.77275125000001,
          "velocity": 0.7874015748031497,
          "duration": 0.27272749999999846
        },
        {
          "name": "A#1",
          "midi": 34,
          "time": 29.045478750000008,
          "velocity": 0.7874015748031497,
          "duration": 0.136363750000001
        },
        {
          "name": "C2",
          "midi": 36,
          "time": 29.18184250000001,
          "velocity": 0.7874015748031497,
          "duration": 0.36363666666666816
        },
        {
          "name": "E1",
          "midi": 28,
          "time": 29.590933750000012,
          "velocity": 0.7874015748031497,
          "duration": 0.136363750000001
        },
        {
          "name": "G1",
          "midi": 31,
          "time": 29.727297500000013,
          "velocity": 0.7874015748031497,
          "duration": 0.136363750000001
        },
        {
          "name": "G1",
          "midi": 31,
          "time": 29.863661250000014,
          "velocity": 0.7874015748031497,
          "duration": 0.136363750000001
        },
        {
          "name": "A1",
          "midi": 33,
          "time": 30.000025000000015,
          "velocity": 0.7874015748031497,
          "duration": 0.5454550000000005
        },
        {
          "name": "A1",
          "midi": 33,
          "time": 30.545480000000016,
          "velocity": 0.7874015748031497,
          "duration": 0.136363750000001
        },
        {
          "name": "A#1",
          "midi": 34,
          "time": 30.681843750000017,
          "velocity": 0.7874015748031497,
          "duration": 0.136363750000001
        },
        {
          "name": "C2",
          "midi": 36,
          "time": 30.818207500000018,
          "velocity": 0.7874015748031497,
          "duration": 0.136363750000001
        },
        {
          "name": "E2",
          "midi": 40,
          "time": 30.95457125000002,
          "velocity": 0.7874015748031497,
          "duration": 0.136363750000001
        },
        {
          "name": "A1",
          "midi": 33,
          "time": 31.22729875000002,
          "velocity": 0.7874015748031497,
          "duration": 0.136363750000001
        },
        {
          "name": "A#1",
          "midi": 34,
          "time": 31.36366250000002,
          "velocity": 0.7874015748031497,
          "duration": 0.136363750000001
        },
        {
          "name": "B1",
          "midi": 35,
          "time": 31.500026250000023,
          "velocity": 0.7874015748031497,
          "duration": 0.136363750000001
        },
        {
          "name": "E2",
          "midi": 40,
          "time": 31.636390000000024,
          "velocity": 0.7874015748031497,
          "duration": 0.27272749999999846
        },
        {
          "name": "E1",
          "midi": 28,
          "time": 31.909117500000022,
          "velocity": 0.7874015748031497,
          "duration": 0.272727500000002
        },
        {
          "name": "A1",
          "midi": 33,
          "time": 32.72730000000002,
          "velocity": 0.7874015748031497,
          "duration": 0.136363750000001
        },
        {
          "name": "A#1",
          "midi": 34,
          "time": 32.86366375000002,
          "velocity": 0.7874015748031497,
          "duration": 0.136363750000001
        },
        {
          "name": "C2",
          "midi": 36,
          "time": 33.00002750000002,
          "velocity": 0.7874015748031497,
          "duration": 0.136363750000001
        },
        {
          "name": "E2",
          "midi": 40,
          "time": 33.136391250000024,
          "velocity": 0.7874015748031497,
          "duration": 0.136363750000001
        },
        {
          "name": "A1",
          "midi": 33,
          "time": 33.409118750000026,
          "velocity": 0.7874015748031497,
          "duration": 0.136363750000001
        },
        {
          "name": "A#1",
          "midi": 34,
          "time": 33.54548250000003,
          "velocity": 0.7874015748031497,
          "duration": 0.136363750000001
        },
        {
          "name": "B1",
          "midi": 35,
          "time": 33.68184625000003,
          "velocity": 0.7874015748031497,
          "duration": 0.136363750000001
        },
        {
          "name": "E2",
          "midi": 40,
          "time": 33.81821000000003,
          "velocity": 0.7874015748031497,
          "duration": 0.272727500000002
        },
        {
          "name": "E1",
          "midi": 28,
          "time": 34.09093750000003,
          "velocity": 0.7874015748031497,
          "duration": 0.272727500000002
        },
        {
          "name": "A1",
          "midi": 33,
          "time": 34.90912000000003,
          "velocity": 0.7874015748031497,
          "duration": 0.136363750000001
        },
        {
          "name": "A#1",
          "midi": 34,
          "time": 35.04548375000003,
          "velocity": 0.7874015748031497,
          "duration": 0.136363750000001
        },
        {
          "name": "C2",
          "midi": 36,
          "time": 35.18184750000003,
          "velocity": 0.7874015748031497,
          "duration": 0.136363750000001
        },
        {
          "name": "E2",
          "midi": 40,
          "time": 35.31821125000003,
          "velocity": 0.7874015748031497,
          "duration": 0.136363750000001
        },
        {
          "name": "A1",
          "midi": 33,
          "time": 35.590938750000035,
          "velocity": 0.7874015748031497,
          "duration": 0.136363750000001
        },
        {
          "name": "A#1",
          "midi": 34,
          "time": 35.727302500000036,
          "velocity": 0.7874015748031497,
          "duration": 0.136363750000001
        },
        {
          "name": "B1",
          "midi": 35,
          "time": 35.86366625000004,
          "velocity": 0.7874015748031497,
          "duration": 0.136363750000001
        },
        {
          "name": "E2",
          "midi": 40,
          "time": 36.00003000000004,
          "velocity": 0.7874015748031497,
          "duration": 0.272727500000002
        },
        {
          "name": "E1",
          "midi": 28,
          "time": 36.27275750000004,
          "velocity": 0.7874015748031497,
          "duration": 0.272727500000002
        },
        {
          "name": "A1",
          "midi": 33,
          "time": 37.09094000000004,
          "velocity": 0.7874015748031497,
          "duration": 0.136363750000001
        },
        {
          "name": "A#1",
          "midi": 34,
          "time": 37.22730375000004,
          "velocity": 0.7874015748031497,
          "duration": 0.136363750000001
        },
        {
          "name": "C2",
          "midi": 36,
          "time": 37.36366750000004,
          "velocity": 0.7874015748031497,
          "duration": 0.136363750000001
        },
        {
          "name": "E2",
          "midi": 40,
          "time": 37.50003125000004,
          "velocity": 0.7874015748031497,
          "duration": 0.136363750000001
        },
        {
          "name": "A1",
          "midi": 33,
          "time": 37.772758750000044,
          "velocity": 0.7874015748031497,
          "duration": 0.136363750000001
        },
        {
          "name": "A#1",
          "midi": 34,
          "time": 37.909122500000045,
          "velocity": 0.7874015748031497,
          "duration": 0.136363750000001
        },
        {
          "name": "B1",
          "midi": 35,
          "time": 38.045486250000046,
          "velocity": 0.7874015748031497,
          "duration": 0.136363750000001
        },
        {
          "name": "E2",
          "midi": 40,
          "time": 38.18185000000005,
          "velocity": 0.7874015748031497,
          "duration": 0.272727500000002
        },
        {
          "name": "A1",
          "midi": 33,
          "time": 38.45457750000005,
          "velocity": 0.7874015748031497,
          "duration": 0.5454549999999969
        },
        {
          "name": "C2",
          "midi": 36,
          "time": 39.27276000000005,
          "velocity": 0.7874015748031497,
          "duration": 0.272727500000002
        },
        {
          "name": "C2",
          "midi": 36,
          "time": 39.68185125000005,
          "velocity": 0.7874015748031497,
          "duration": 0.136363750000001
        },
        {
          "name": "A#1",
          "midi": 34,
          "time": 39.95457875000005,
          "velocity": 0.7874015748031497,
          "duration": 0.136363750000001
        },
        {
          "name": "C2",
          "midi": 36,
          "time": 40.090942500000054,
          "velocity": 0.7874015748031497,
          "duration": 0.272727500000002
        },
        {
          "name": "E1",
          "midi": 28,
          "time": 40.50003375000006,
          "velocity": 0.7874015748031497,
          "duration": 0.136363750000001
        },
        {
          "name": "F1",
          "midi": 29,
          "time": 40.63639750000006,
          "velocity": 0.7874015748031497,
          "duration": 0.272727500000002
        },
        {
          "name": "G1",
          "midi": 31,
          "time": 40.90912500000006,
          "velocity": 0.7874015748031497,
          "duration": 0.136363750000001
        },
        {
          "name": "G1",
          "midi": 31,
          "time": 41.04548875000006,
          "velocity": 0.7874015748031497,
          "duration": 0.136363750000001
        },
        {
          "name": "A1",
          "midi": 33,
          "time": 41.18185250000006,
          "velocity": 0.7874015748031497,
          "duration": 0.136363750000001
        },
        {
          "name": "G1",
          "midi": 31,
          "time": 41.31821625000006,
          "velocity": 0.7874015748031497,
          "duration": 0.136363750000001
        },
        {
          "name": "C2",
          "midi": 36,
          "time": 41.454580000000064,
          "velocity": 0.7874015748031497,
          "duration": 0.272727500000002
        },
        {
          "name": "C2",
          "midi": 36,
          "time": 41.86367125000007,
          "velocity": 0.7874015748031497,
          "duration": 0.272727500000002
        },
        {
          "name": "A#1",
          "midi": 34,
          "time": 42.13639875000007,
          "velocity": 0.7874015748031497,
          "duration": 0.136363750000001
        },
        {
          "name": "C2",
          "midi": 36,
          "time": 42.27276250000007,
          "velocity": 0.7874015748031497,
          "duration": 0.136363750000001
        },
        {
          "name": "E1",
          "midi": 28,
          "time": 42.40912625000007,
          "velocity": 0.7874015748031497,
          "duration": 0.136363750000001
        },
        {
          "name": "F1",
          "midi": 29,
          "time": 42.54549000000007,
          "velocity": 0.7874015748031497,
          "duration": 0.272727500000002
        },
        {
          "name": "G1",
          "midi": 31,
          "time": 42.818217500000074,
          "velocity": 0.7874015748031497,
          "duration": 0.272727500000002
        },
        {
          "name": "B1",
          "midi": 35,
          "time": 43.090945000000076,
          "velocity": 0.7874015748031497,
          "duration": 0.136363750000001
        },
        {
          "name": "G1",
          "midi": 31,
          "time": 43.22730875000008,
          "velocity": 0.7874015748031497,
          "duration": 0.136363750000001
        },
        {
          "name": "B1",
          "midi": 35,
          "time": 43.36367250000008,
          "velocity": 0.7874015748031497,
          "duration": 0.272727500000002
        },
        {
          "name": "C2",
          "midi": 36,
          "time": 43.63640000000008,
          "velocity": 0.7874015748031497,
          "duration": 0.272727500000002
        },
        {
          "name": "C2",
          "midi": 36,
          "time": 44.04549125000008,
          "velocity": 0.7874015748031497,
          "duration": 0.136363750000001
        },
        {
          "name": "A#1",
          "midi": 34,
          "time": 44.318218750000085,
          "velocity": 0.7874015748031497,
          "duration": 0.136363750000001
        },
        {
          "name": "C2",
          "midi": 36,
          "time": 44.454582500000086,
          "velocity": 0.7874015748031497,
          "duration": 0.272727500000002
        },
        {
          "name": "E1",
          "midi": 28,
          "time": 44.86367375000009,
          "velocity": 0.7874015748031497,
          "duration": 0.136363750000001
        },
        {
          "name": "F1",
          "midi": 29,
          "time": 45.00003750000009,
          "velocity": 0.7874015748031497,
          "duration": 0.272727500000002
        },
        {
          "name": "G1",
          "midi": 31,
          "time": 45.27276500000009,
          "velocity": 0.7874015748031497,
          "duration": 0.136363750000001
        },
        {
          "name": "G1",
          "midi": 31,
          "time": 45.40912875000009,
          "velocity": 0.7874015748031497,
          "duration": 0.136363750000001
        },
        {
          "name": "A1",
          "midi": 33,
          "time": 45.545492500000094,
          "velocity": 0.7874015748031497,
          "duration": 0.136363750000001
        },
        {
          "name": "G1",
          "midi": 31,
          "time": 45.681856250000095,
          "velocity": 0.7874015748031497,
          "duration": 0.136363750000001
        },
        {
          "name": "C2",
          "midi": 36,
          "time": 45.818220000000096,
          "velocity": 0.7874015748031497,
          "duration": 0.272727500000002
        },
        {
          "name": "C2",
          "midi": 36,
          "time": 46.2273112500001,
          "velocity": 0.7874015748031497,
          "duration": 0.272727500000002
        },
        {
          "name": "A#1",
          "midi": 34,
          "time": 46.5000387500001,
          "velocity": 0.7874015748031497,
          "duration": 0.136363750000001
        },
        {
          "name": "C2",
          "midi": 36,
          "time": 46.6364025000001,
          "velocity": 0.7874015748031497,
          "duration": 0.136363750000001
        },
        {
          "name": "E1",
          "midi": 28,
          "time": 46.7727662500001,
          "velocity": 0.7874015748031497,
          "duration": 0.136363750000001
        },
        {
          "name": "F1",
          "midi": 29,
          "time": 46.909130000000104,
          "velocity": 0.7874015748031497,
          "duration": 0.272727500000002
        },
        {
          "name": "G1",
          "midi": 31,
          "time": 47.181857500000106,
          "velocity": 0.7874015748031497,
          "duration": 0.272727500000002
        },
        {
          "name": "B1",
          "midi": 35,
          "time": 47.45458500000011,
          "velocity": 0.7874015748031497,
          "duration": 0.136363750000001
        },
        {
          "name": "G1",
          "midi": 31,
          "time": 47.59094875000011,
          "velocity": 0.7874015748031497,
          "duration": 0.136363750000001
        },
        {
          "name": "B1",
          "midi": 35,
          "time": 47.72731250000011,
          "velocity": 0.7874015748031497,
          "duration": 0.272727500000002
        },
        {
          "name": "C2",
          "midi": 36,
          "time": 48.00004000000011,
          "velocity": 0.7874015748031497,
          "duration": 0.272727500000002
        },
        {
          "name": "C2",
          "midi": 36,
          "time": 48.409131250000115,
          "velocity": 0.7874015748031497,
          "duration": 0.136363750000001
        },
        {
          "name": "A#1",
          "midi": 34,
          "time": 48.68185875000012,
          "velocity": 0.7874015748031497,
          "duration": 0.136363750000001
        },
        {
          "name": "C2",
          "midi": 36,
          "time": 48.81822250000012,
          "velocity": 0.7874015748031497,
          "duration": 0.272727500000002
        },
        {
          "name": "E1",
          "midi": 28,
          "time": 49.22731375000012,
          "velocity": 0.7874015748031497,
          "duration": 0.136363750000001
        },
        {
          "name": "F1",
          "midi": 29,
          "time": 49.36367750000012,
          "velocity": 0.7874015748031497,
          "duration": 0.272727500000002
        },
        {
          "name": "G1",
          "midi": 31,
          "time": 49.636405000000124,
          "velocity": 0.7874015748031497,
          "duration": 0.136363750000001
        },
        {
          "name": "G1",
          "midi": 31,
          "time": 49.772768750000125,
          "velocity": 0.7874015748031497,
          "duration": 0.136363750000001
        },
        {
          "name": "A1",
          "midi": 33,
          "time": 49.909132500000126,
          "velocity": 0.7874015748031497,
          "duration": 0.136363750000001
        },
        {
          "name": "G1",
          "midi": 31,
          "time": 50.04549625000013,
          "velocity": 0.7874015748031497,
          "duration": 0.136363750000001
        },
        {
          "name": "C2",
          "midi": 36,
          "time": 50.18186000000013,
          "velocity": 0.7874015748031497,
          "duration": 0.272727500000002
        },
        {
          "name": "C2",
          "midi": 36,
          "time": 50.59095125000013,
          "velocity": 0.7874015748031497,
          "duration": 0.272727500000002
        },
        {
          "name": "B1",
          "midi": 35,
          "time": 50.86367875000013,
          "velocity": 0.7874015748031497,
          "duration": 0.136363750000001
        },
        {
          "name": "C2",
          "midi": 36,
          "time": 51.000042500000134,
          "velocity": 0.7874015748031497,
          "duration": 0.136363750000001
        },
        {
          "name": "E1",
          "midi": 28,
          "time": 51.136406250000135,
          "velocity": 0.7874015748031497,
          "duration": 0.136363750000001
        },
        {
          "name": "F#1",
          "midi": 30,
          "time": 51.272770000000136,
          "velocity": 0.7874015748031497,
          "duration": 0.272727500000002
        },
        {
          "name": "G1",
          "midi": 31,
          "time": 51.54549750000014,
          "velocity": 0.7874015748031497,
          "duration": 0.272727500000002
        },
        {
          "name": "B1",
          "midi": 35,
          "time": 51.81822500000014,
          "velocity": 0.7874015748031497,
          "duration": 0.136363750000001
        },
        {
          "name": "G1",
          "midi": 31,
          "time": 51.95458875000014,
          "velocity": 0.7874015748031497,
          "duration": 0.136363750000001
        },
        {
          "name": "B1",
          "midi": 35,
          "time": 52.09095250000014,
          "velocity": 0.7874015748031497,
          "duration": 0.272727500000002
        },
        {
          "name": "C2",
          "midi": 36,
          "time": 52.363680000000144,
          "velocity": 0.7874015748031497,
          "duration": 0.272727500000002
        },
        {
          "name": "C2",
          "midi": 36,
          "time": 52.77277125000015,
          "velocity": 0.7874015748031497,
          "duration": 0.136363750000001
        },
        {
          "name": "A#1",
          "midi": 34,
          "time": 53.04549875000015,
          "velocity": 0.7874015748031497,
          "duration": 0.136363750000001
        },
        {
          "name": "C2",
          "midi": 36,
          "time": 53.18186250000015,
          "velocity": 0.7874015748031497,
          "duration": 0.272727500000002
        },
        {
          "name": "E1",
          "midi": 28,
          "time": 53.59095375000015,
          "velocity": 0.7874015748031497,
          "duration": 0.136363750000001
        },
        {
          "name": "F1",
          "midi": 29,
          "time": 53.727317500000154,
          "velocity": 0.7874015748031497,
          "duration": 0.272727500000002
        },
        {
          "name": "G1",
          "midi": 31,
          "time": 54.000045000000156,
          "velocity": 0.7874015748031497,
          "duration": 0.136363750000001
        },
        {
          "name": "G1",
          "midi": 31,
          "time": 54.13640875000016,
          "velocity": 0.7874015748031497,
          "duration": 0.136363750000001
        },
        {
          "name": "A1",
          "midi": 33,
          "time": 54.27277250000016,
          "velocity": 0.7874015748031497,
          "duration": 0.136363750000001
        },
        {
          "name": "G1",
          "midi": 31,
          "time": 54.40913625000016,
          "velocity": 0.7874015748031497,
          "duration": 0.136363750000001
        },
        {
          "name": "C2",
          "midi": 36,
          "time": 54.54550000000016,
          "velocity": 0.7874015748031497,
          "duration": 0.272727500000002
        },
        {
          "name": "C2",
          "midi": 36,
          "time": 54.95459125000016,
          "velocity": 0.7874015748031497,
          "duration": 0.272727500000002
        },
        {
          "name": "A#1",
          "midi": 34,
          "time": 55.227318750000165,
          "velocity": 0.7874015748031497,
          "duration": 0.136363750000001
        },
        {
          "name": "C2",
          "midi": 36,
          "time": 55.363682500000166,
          "velocity": 0.7874015748031497,
          "duration": 0.3636366666666646
        },
        {
          "name": "E1",
          "midi": 28,
          "time": 55.77277375000016,
          "velocity": 0.7874015748031497,
          "duration": 0.136363750000001
        },
        {
          "name": "G1",
          "midi": 31,
          "time": 55.90913750000016,
          "velocity": 0.7874015748031497,
          "duration": 0.136363750000001
        },
        {
          "name": "G1",
          "midi": 31,
          "time": 56.045501250000164,
          "velocity": 0.7874015748031497,
          "duration": 0.136363750000001
        },
        {
          "name": "A1",
          "midi": 33,
          "time": 56.181865000000165,
          "velocity": 0.7874015748031497,
          "duration": 0.5454549999999969
        },
        {
          "name": "C2",
          "midi": 36,
          "time": 56.72732000000016,
          "velocity": 0.7874015748031497,
          "duration": 0.136363750000001
        },
        {
          "name": "C2",
          "midi": 36,
          "time": 56.86368375000016,
          "velocity": 0.7874015748031497,
          "duration": 0.136363750000001
        },
        {
          "name": "C2",
          "midi": 36,
          "time": 57.000047500000164,
          "velocity": 0.7874015748031497,
          "duration": 0.136363750000001
        },
        {
          "name": "C2",
          "midi": 36,
          "time": 57.136411250000165,
          "velocity": 0.7874015748031497,
          "duration": 0.136363750000001
        },
        {
          "name": "C2",
          "midi": 36,
          "time": 57.54550250000017,
          "velocity": 0.7874015748031497,
          "duration": 0.136363750000001
        },
        {
          "name": "C2",
          "midi": 36,
          "time": 57.68186625000017,
          "velocity": 0.7874015748031497,
          "duration": 0.136363750000001
        },
        {
          "name": "C2",
          "midi": 36,
          "time": 57.81823000000017,
          "velocity": 0.7874015748031497,
          "duration": 0.136363750000001
        },
        {
          "name": "C2",
          "midi": 36,
          "time": 57.95459375000017,
          "velocity": 0.7874015748031497,
          "duration": 0.136363750000001
        },
        {
          "name": "C2",
          "midi": 36,
          "time": 58.09095750000017,
          "velocity": 0.7874015748031497,
          "duration": 0.272727500000002
        },
        {
          "name": "C2",
          "midi": 36,
          "time": 58.363685000000174,
          "velocity": 0.7874015748031497,
          "duration": 0.136363750000001
        },
        {
          "name": "C2",
          "midi": 36,
          "time": 58.500048750000175,
          "velocity": 0.7874015748031497,
          "duration": 0.136363750000001
        },
        {
          "name": "D#2",
          "midi": 39,
          "time": 58.636412500000176,
          "velocity": 0.7874015748031497,
          "duration": 0.136363750000001
        },
        {
          "name": "E2",
          "midi": 40,
          "time": 58.77277625000018,
          "velocity": 0.7874015748031497,
          "duration": 0.136363750000001
        },
        {
          "name": "F2",
          "midi": 41,
          "time": 58.90914000000018,
          "velocity": 0.7874015748031497,
          "duration": 0.136363750000001
        },
        {
          "name": "F2",
          "midi": 41,
          "time": 59.04550375000018,
          "velocity": 0.7874015748031497,
          "duration": 0.136363750000001
        },
        {
          "name": "F2",
          "midi": 41,
          "time": 59.18186750000018,
          "velocity": 0.7874015748031497,
          "duration": 0.136363750000001
        },
        {
          "name": "F2",
          "midi": 41,
          "time": 59.31823125000018,
          "velocity": 0.7874015748031497,
          "duration": 0.136363750000001
        },
        {
          "name": "F#2",
          "midi": 42,
          "time": 59.45459500000018,
          "velocity": 0.7874015748031497,
          "duration": 0.272727500000002
        },
        {
          "name": "F2",
          "midi": 41,
          "time": 60.000050000000186,
          "velocity": 0.7874015748031497,
          "duration": 0.136363750000001
        },
        {
          "name": "G2",
          "midi": 43,
          "time": 60.13641375000019,
          "velocity": 0.7874015748031497,
          "duration": 0.136363750000001
        },
        {
          "name": "A#2",
          "midi": 46,
          "time": 60.27277750000019,
          "velocity": 0.7874015748031497,
          "duration": 0.136363750000001
        },
        {
          "name": "G2",
          "midi": 43,
          "time": 60.40914125000019,
          "velocity": 0.7874015748031497,
          "duration": 0.136363750000001
        },
        {
          "name": "F2",
          "midi": 41,
          "time": 60.54550500000019,
          "velocity": 0.7874015748031497,
          "duration": 0.136363750000001
        },
        {
          "name": "D#2",
          "midi": 39,
          "time": 60.68186875000019,
          "velocity": 0.7874015748031497,
          "duration": 0.136363750000001
        },
        {
          "name": "C2",
          "midi": 36,
          "time": 60.81823250000019,
          "velocity": 0.7874015748031497,
          "duration": 0.136363750000001
        },
        {
          "name": "A#1",
          "midi": 34,
          "time": 60.95459625000019,
          "velocity": 0.7874015748031497,
          "duration": 0.136363750000001
        },
        {
          "name": "C2",
          "midi": 36,
          "time": 61.090960000000194,
          "velocity": 0.7874015748031497,
          "duration": 0.136363750000001
        },
        {
          "name": "C2",
          "midi": 36,
          "time": 61.227323750000195,
          "velocity": 0.7874015748031497,
          "duration": 0.136363750000001
        },
        {
          "name": "C2",
          "midi": 36,
          "time": 61.3636875000002,
          "velocity": 0.7874015748031497,
          "duration": 0.136363750000001
        },
        {
          "name": "C2",
          "midi": 36,
          "time": 61.5000512500002,
          "velocity": 0.7874015748031497,
          "duration": 0.136363750000001
        },
        {
          "name": "C2",
          "midi": 36,
          "time": 61.9091425000002,
          "velocity": 0.7874015748031497,
          "duration": 0.136363750000001
        },
        {
          "name": "C2",
          "midi": 36,
          "time": 62.0455062500002,
          "velocity": 0.7874015748031497,
          "duration": 0.136363750000001
        },
        {
          "name": "C2",
          "midi": 36,
          "time": 62.1818700000002,
          "velocity": 0.7874015748031497,
          "duration": 0.136363750000001
        },
        {
          "name": "C2",
          "midi": 36,
          "time": 62.3182337500002,
          "velocity": 0.7874015748031497,
          "duration": 0.136363750000001
        },
        {
          "name": "C2",
          "midi": 36,
          "time": 62.454597500000204,
          "velocity": 0.7874015748031497,
          "duration": 0.272727500000002
        },
        {
          "name": "C2",
          "midi": 36,
          "time": 62.72732500000021,
          "velocity": 0.7874015748031497,
          "duration": 0.136363750000001
        },
        {
          "name": "C2",
          "midi": 36,
          "time": 62.86368875000021,
          "velocity": 0.7874015748031497,
          "duration": 0.136363750000001
        },
        {
          "name": "D#2",
          "midi": 39,
          "time": 63.00005250000021,
          "velocity": 0.7874015748031497,
          "duration": 0.136363750000001
        },
        {
          "name": "E2",
          "midi": 40,
          "time": 63.13641625000021,
          "velocity": 0.7874015748031497,
          "duration": 0.136363750000001
        },
        {
          "name": "F2",
          "midi": 41,
          "time": 63.27278000000021,
          "velocity": 0.7874015748031497,
          "duration": 0.136363750000001
        },
        {
          "name": "F2",
          "midi": 41,
          "time": 63.40914375000021,
          "velocity": 0.7874015748031497,
          "duration": 0.136363750000001
        },
        {
          "name": "F2",
          "midi": 41,
          "time": 63.54550750000021,
          "velocity": 0.7874015748031497,
          "duration": 0.136363750000001
        },
        {
          "name": "F2",
          "midi": 41,
          "time": 63.68187125000021,
          "velocity": 0.7874015748031497,
          "duration": 0.136363750000001
        },
        {
          "name": "F#2",
          "midi": 42,
          "time": 63.818235000000215,
          "velocity": 0.7874015748031497,
          "duration": 0.272727500000002
        },
        {
          "name": "F2",
          "midi": 41,
          "time": 64.36369000000022,
          "velocity": 0.7874015748031497,
          "duration": 0.136363750000001
        },
        {
          "name": "G2",
          "midi": 43,
          "time": 64.50005375000022,
          "velocity": 0.7874015748031497,
          "duration": 0.136363750000001
        },
        {
          "name": "A#2",
          "midi": 46,
          "time": 64.63641750000022,
          "velocity": 0.7874015748031497,
          "duration": 0.136363750000001
        },
        {
          "name": "G2",
          "midi": 43,
          "time": 64.77278125000022,
          "velocity": 0.7874015748031497,
          "duration": 0.136363750000001
        },
        {
          "name": "F2",
          "midi": 41,
          "time": 64.90914500000022,
          "velocity": 0.7874015748031497,
          "duration": 0.136363750000001
        },
        {
          "name": "D#2",
          "midi": 39,
          "time": 65.04550875000022,
          "velocity": 0.7874015748031497,
          "duration": 0.136363750000001
        },
        {
          "name": "C2",
          "midi": 36,
          "time": 65.18187250000022,
          "velocity": 0.7874015748031497,
          "duration": 0.136363750000001
        },
        {
          "name": "A#1",
          "midi": 34,
          "time": 65.31823625000023,
          "velocity": 0.7874015748031497,
          "duration": 0.136363750000001
        },
        {
          "name": "C2",
          "midi": 36,
          "time": 65.45460000000023,
          "velocity": 0.7874015748031497,
          "duration": 0.272727500000002
        },
        {
          "name": "C2",
          "midi": 36,
          "time": 65.86369125000023,
          "velocity": 0.7874015748031497,
          "duration": 0.136363750000001
        },
        {
          "name": "A#1",
          "midi": 34,
          "time": 66.13641875000023,
          "velocity": 0.7874015748031497,
          "duration": 0.136363750000001
        },
        {
          "name": "C2",
          "midi": 36,
          "time": 66.27278250000023,
          "velocity": 0.7874015748031497,
          "duration": 0.272727500000002
        },
        {
          "name": "E1",
          "midi": 28,
          "time": 66.68187375000024,
          "velocity": 0.7874015748031497,
          "duration": 0.136363750000001
        },
        {
          "name": "F1",
          "midi": 29,
          "time": 66.81823750000024,
          "velocity": 0.7874015748031497,
          "duration": 0.272727500000002
        },
        {
          "name": "G1",
          "midi": 31,
          "time": 67.09096500000024,
          "velocity": 0.7874015748031497,
          "duration": 0.136363750000001
        },
        {
          "name": "G1",
          "midi": 31,
          "time": 67.22732875000024,
          "velocity": 0.7874015748031497,
          "duration": 0.136363750000001
        },
        {
          "name": "A1",
          "midi": 33,
          "time": 67.36369250000024,
          "velocity": 0.7874015748031497,
          "duration": 0.136363750000001
        },
        {
          "name": "G1",
          "midi": 31,
          "time": 67.50005625000024,
          "velocity": 0.7874015748031497,
          "duration": 0.136363750000001
        },
        {
          "name": "C2",
          "midi": 36,
          "time": 67.63642000000024,
          "velocity": 0.7874015748031497,
          "duration": 0.272727500000002
        },
        {
          "name": "C2",
          "midi": 36,
          "time": 68.04551125000025,
          "velocity": 0.7874015748031497,
          "duration": 0.272727500000002
        },
        {
          "name": "A#1",
          "midi": 34,
          "time": 68.31823875000025,
          "velocity": 0.7874015748031497,
          "duration": 0.136363750000001
        },
        {
          "name": "C2",
          "midi": 36,
          "time": 68.45460250000025,
          "velocity": 0.7874015748031497,
          "duration": 0.136363750000001
        },
        {
          "name": "E1",
          "midi": 28,
          "time": 68.59096625000025,
          "velocity": 0.7874015748031497,
          "duration": 0.136363750000001
        },
        {
          "name": "F1",
          "midi": 29,
          "time": 68.72733000000025,
          "velocity": 0.7874015748031497,
          "duration": 0.272727500000002
        },
        {
          "name": "G1",
          "midi": 31,
          "time": 69.00005750000025,
          "velocity": 0.7874015748031497,
          "duration": 0.272727500000002
        },
        {
          "name": "B1",
          "midi": 35,
          "time": 69.27278500000025,
          "velocity": 0.7874015748031497,
          "duration": 0.136363750000001
        },
        {
          "name": "G1",
          "midi": 31,
          "time": 69.40914875000026,
          "velocity": 0.7874015748031497,
          "duration": 0.136363750000001
        },
        {
          "name": "B1",
          "midi": 35,
          "time": 69.54551250000026,
          "velocity": 0.7874015748031497,
          "duration": 0.272727500000002
        },
        {
          "name": "C2",
          "midi": 36,
          "time": 69.81824000000026,
          "velocity": 0.7874015748031497,
          "duration": 0.272727500000002
        },
        {
          "name": "C2",
          "midi": 36,
          "time": 70.22733125000026,
          "velocity": 0.7874015748031497,
          "duration": 0.136363750000001
        },
        {
          "name": "A#1",
          "midi": 34,
          "time": 70.50005875000026,
          "velocity": 0.7874015748031497,
          "duration": 0.136363750000001
        },
        {
          "name": "C2",
          "midi": 36,
          "time": 70.63642250000026,
          "velocity": 0.7874015748031497,
          "duration": 0.272727500000002
        },
        {
          "name": "E1",
          "midi": 28,
          "time": 71.04551375000027,
          "velocity": 0.7874015748031497,
          "duration": 0.136363750000001
        },
        {
          "name": "F1",
          "midi": 29,
          "time": 71.18187750000027,
          "velocity": 0.7874015748031497,
          "duration": 0.272727500000002
        },
        {
          "name": "G1",
          "midi": 31,
          "time": 71.45460500000027,
          "velocity": 0.7874015748031497,
          "duration": 0.136363750000001
        },
        {
          "name": "G1",
          "midi": 31,
          "time": 71.59096875000027,
          "velocity": 0.7874015748031497,
          "duration": 0.136363750000001
        },
        {
          "name": "A1",
          "midi": 33,
          "time": 71.72733250000027,
          "velocity": 0.7874015748031497,
          "duration": 0.136363750000001
        },
        {
          "name": "G1",
          "midi": 31,
          "time": 71.86369625000027,
          "velocity": 0.7874015748031497,
          "duration": 0.136363750000001
        },
        {
          "name": "C2",
          "midi": 36,
          "time": 72.00006000000027,
          "velocity": 0.7874015748031497,
          "duration": 0.272727500000002
        },
        {
          "name": "C2",
          "midi": 36,
          "time": 72.40915125000028,
          "velocity": 0.7874015748031497,
          "duration": 0.272727500000002
        },
        {
          "name": "A#1",
          "midi": 34,
          "time": 72.68187875000028,
          "velocity": 0.7874015748031497,
          "duration": 0.136363750000001
        },
        {
          "name": "C2",
          "midi": 36,
          "time": 72.81824250000028,
          "velocity": 0.7874015748031497,
          "duration": 0.3636366666666646
        },
        {
          "name": "E1",
          "midi": 28,
          "time": 73.22733375000028,
          "velocity": 0.7874015748031497,
          "duration": 0.136363750000001
        },
        {
          "name": "G1",
          "midi": 31,
          "time": 73.36369750000028,
          "velocity": 0.7874015748031497,
          "duration": 0.136363750000001
        },
        {
          "name": "G1",
          "midi": 31,
          "time": 73.50006125000029,
          "velocity": 0.7874015748031497,
          "duration": 0.136363750000001
        },
        {
          "name": "A1",
          "midi": 33,
          "time": 73.63642500000029,
          "velocity": 0.7874015748031497,
          "duration": 0.545455000000004
        },
        {
          "name": "A1",
          "midi": 33,
          "time": 74.18188000000029,
          "velocity": 0.7874015748031497,
          "duration": 0.136363750000001
        },
        {
          "name": "A#1",
          "midi": 34,
          "time": 74.31824375000029,
          "velocity": 0.7874015748031497,
          "duration": 0.136363750000001
        },
        {
          "name": "C2",
          "midi": 36,
          "time": 74.4546075000003,
          "velocity": 0.7874015748031497,
          "duration": 0.136363750000001
        },
        {
          "name": "E2",
          "midi": 40,
          "time": 74.5909712500003,
          "velocity": 0.7874015748031497,
          "duration": 0.136363750000001
        },
        {
          "name": "A1",
          "midi": 33,
          "time": 74.8636987500003,
          "velocity": 0.7874015748031497,
          "duration": 0.136363750000001
        },
        {
          "name": "B1",
          "midi": 35,
          "time": 75.0000625000003,
          "velocity": 0.7874015748031497,
          "duration": 0.136363750000001
        },
        {
          "name": "B1",
          "midi": 35,
          "time": 75.1364262500003,
          "velocity": 0.7874015748031497,
          "duration": 0.136363750000001
        },
        {
          "name": "E2",
          "midi": 40,
          "time": 75.2727900000003,
          "velocity": 0.7874015748031497,
          "duration": 0.272727500000002
        },
        {
          "name": "E1",
          "midi": 28,
          "time": 75.5455175000003,
          "velocity": 0.7874015748031497,
          "duration": 0.272727500000002
        },
        {
          "name": "A1",
          "midi": 33,
          "time": 76.3637000000003,
          "velocity": 0.7874015748031497,
          "duration": 0.136363750000001
        },
        {
          "name": "A#1",
          "midi": 34,
          "time": 76.50006375000031,
          "velocity": 0.7874015748031497,
          "duration": 0.136363750000001
        },
        {
          "name": "C2",
          "midi": 36,
          "time": 76.63642750000031,
          "velocity": 0.7874015748031497,
          "duration": 0.136363750000001
        },
        {
          "name": "E2",
          "midi": 40,
          "time": 76.77279125000031,
          "velocity": 0.7874015748031497,
          "duration": 0.136363750000001
        },
        {
          "name": "A1",
          "midi": 33,
          "time": 77.04551875000031,
          "velocity": 0.7874015748031497,
          "duration": 0.136363750000001
        },
        {
          "name": "A#1",
          "midi": 34,
          "time": 77.18188250000031,
          "velocity": 0.7874015748031497,
          "duration": 0.136363750000001
        },
        {
          "name": "B1",
          "midi": 35,
          "time": 77.31824625000031,
          "velocity": 0.7874015748031497,
          "duration": 0.136363750000001
        },
        {
          "name": "E2",
          "midi": 40,
          "time": 77.45461000000032,
          "velocity": 0.7874015748031497,
          "duration": 0.272727500000002
        },
        {
          "name": "E1",
          "midi": 28,
          "time": 77.72733750000032,
          "velocity": 0.7874015748031497,
          "duration": 0.272727500000002
        },
        {
          "name": "A1",
          "midi": 33,
          "time": 78.54552000000032,
          "velocity": 0.7874015748031497,
          "duration": 0.136363750000001
        },
        {
          "name": "A#1",
          "midi": 34,
          "time": 78.68188375000032,
          "velocity": 0.7874015748031497,
          "duration": 0.136363750000001
        },
        {
          "name": "C2",
          "midi": 36,
          "time": 78.81824750000033,
          "velocity": 0.7874015748031497,
          "duration": 0.136363750000001
        },
        {
          "name": "E2",
          "midi": 40,
          "time": 78.95461125000033,
          "velocity": 0.7874015748031497,
          "duration": 0.136363750000001
        },
        {
          "name": "A1",
          "midi": 33,
          "time": 79.22733875000033,
          "velocity": 0.7874015748031497,
          "duration": 0.136363750000001
        },
        {
          "name": "A#1",
          "midi": 34,
          "time": 79.36370250000033,
          "velocity": 0.7874015748031497,
          "duration": 0.136363750000001
        },
        {
          "name": "B1",
          "midi": 35,
          "time": 79.50006625000033,
          "velocity": 0.7874015748031497,
          "duration": 0.136363750000001
        },
        {
          "name": "E2",
          "midi": 40,
          "time": 79.63643000000033,
          "velocity": 0.7874015748031497,
          "duration": 0.272727500000002
        },
        {
          "name": "E1",
          "midi": 28,
          "time": 79.90915750000033,
          "velocity": 0.7874015748031497,
          "duration": 0.272727500000002
        },
        {
          "name": "A1",
          "midi": 33,
          "time": 80.72734000000034,
          "velocity": 0.7874015748031497,
          "duration": 0.136363750000001
        },
        {
          "name": "A#1",
          "midi": 34,
          "time": 80.86370375000034,
          "velocity": 0.7874015748031497,
          "duration": 0.136363750000001
        },
        {
          "name": "C2",
          "midi": 36,
          "time": 81.00006750000034,
          "velocity": 0.7874015748031497,
          "duration": 0.136363750000001
        },
        {
          "name": "E2",
          "midi": 40,
          "time": 81.13643125000034,
          "velocity": 0.7874015748031497,
          "duration": 0.136363750000001
        },
        {
          "name": "A1",
          "midi": 33,
          "time": 81.40915875000034,
          "velocity": 0.7874015748031497,
          "duration": 0.136363750000001
        },
        {
          "name": "A#1",
          "midi": 34,
          "time": 81.54552250000035,
          "velocity": 0.7874015748031497,
          "duration": 0.136363750000001
        },
        {
          "name": "B1",
          "midi": 35,
          "time": 81.68188625000035,
          "velocity": 0.7874015748031497,
          "duration": 0.136363750000001
        },
        {
          "name": "E2",
          "midi": 40,
          "time": 81.81825000000035,
          "velocity": 0.7874015748031497,
          "duration": 0.272727500000002
        },
        {
          "name": "A1",
          "midi": 33,
          "time": 82.09097750000035,
          "velocity": 0.7874015748031497,
          "duration": 0.545455000000004
        },
        {
          "name": "C2",
          "midi": 36,
          "time": 82.90916000000036,
          "velocity": 0.7874015748031497,
          "duration": 0.272727500000002
        },
        {
          "name": "C2",
          "midi": 36,
          "time": 83.31825125000036,
          "velocity": 0.7874015748031497,
          "duration": 0.136363750000001
        },
        {
          "name": "A#1",
          "midi": 34,
          "time": 83.59097875000036,
          "velocity": 0.7874015748031497,
          "duration": 0.136363750000001
        },
        {
          "name": "C2",
          "midi": 36,
          "time": 83.72734250000036,
          "velocity": 0.7874015748031497,
          "duration": 0.272727500000002
        },
        {
          "name": "E1",
          "midi": 28,
          "time": 84.13643375000036,
          "velocity": 0.7874015748031497,
          "duration": 0.136363750000001
        },
        {
          "name": "F1",
          "midi": 29,
          "time": 84.27279750000037,
          "velocity": 0.7874015748031497,
          "duration": 0.272727500000002
        },
        {
          "name": "G1",
          "midi": 31,
          "time": 84.54552500000037,
          "velocity": 0.7874015748031497,
          "duration": 0.136363750000001
        },
        {
          "name": "G1",
          "midi": 31,
          "time": 84.68188875000037,
          "velocity": 0.7874015748031497,
          "duration": 0.136363750000001
        },
        {
          "name": "A1",
          "midi": 33,
          "time": 84.81825250000037,
          "velocity": 0.7874015748031497,
          "duration": 0.136363750000001
        },
        {
          "name": "G1",
          "midi": 31,
          "time": 84.95461625000037,
          "velocity": 0.7874015748031497,
          "duration": 0.136363750000001
        },
        {
          "name": "C2",
          "midi": 36,
          "time": 85.09098000000037,
          "velocity": 0.7874015748031497,
          "duration": 0.272727500000002
        },
        {
          "name": "C2",
          "midi": 36,
          "time": 85.50007125000037,
          "velocity": 0.7874015748031497,
          "duration": 0.272727500000002
        },
        {
          "name": "A#1",
          "midi": 34,
          "time": 85.77279875000038,
          "velocity": 0.7874015748031497,
          "duration": 0.136363750000001
        },
        {
          "name": "C2",
          "midi": 36,
          "time": 85.90916250000038,
          "velocity": 0.7874015748031497,
          "duration": 0.136363750000001
        },
        {
          "name": "E1",
          "midi": 28,
          "time": 86.04552625000038,
          "velocity": 0.7874015748031497,
          "duration": 0.136363750000001
        },
        {
          "name": "F1",
          "midi": 29,
          "time": 86.18189000000038,
          "velocity": 0.7874015748031497,
          "duration": 0.272727500000002
        },
        {
          "name": "G1",
          "midi": 31,
          "time": 86.45461750000038,
          "velocity": 0.7874015748031497,
          "duration": 0.272727500000002
        },
        {
          "name": "B1",
          "midi": 35,
          "time": 86.72734500000038,
          "velocity": 0.7874015748031497,
          "duration": 0.136363750000001
        },
        {
          "name": "G1",
          "midi": 31,
          "time": 86.86370875000038,
          "velocity": 0.7874015748031497,
          "duration": 0.136363750000001
        },
        {
          "name": "B1",
          "midi": 35,
          "time": 87.00007250000039,
          "velocity": 0.7874015748031497,
          "duration": 0.272727500000002
        },
        {
          "name": "C2",
          "midi": 36,
          "time": 87.27280000000039,
          "velocity": 0.7874015748031497,
          "duration": 0.272727500000002
        },
        {
          "name": "C2",
          "midi": 36,
          "time": 87.68189125000039,
          "velocity": 0.7874015748031497,
          "duration": 0.136363750000001
        },
        {
          "name": "A#1",
          "midi": 34,
          "time": 87.95461875000039,
          "velocity": 0.7874015748031497,
          "duration": 0.136363750000001
        },
        {
          "name": "C2",
          "midi": 36,
          "time": 88.0909825000004,
          "velocity": 0.7874015748031497,
          "duration": 0.272727500000002
        },
        {
          "name": "E1",
          "midi": 28,
          "time": 88.5000737500004,
          "velocity": 0.7874015748031497,
          "duration": 0.136363750000001
        },
        {
          "name": "F1",
          "midi": 29,
          "time": 88.6364375000004,
          "velocity": 0.7874015748031497,
          "duration": 0.272727500000002
        },
        {
          "name": "G1",
          "midi": 31,
          "time": 88.9091650000004,
          "velocity": 0.7874015748031497,
          "duration": 0.136363750000001
        },
        {
          "name": "G1",
          "midi": 31,
          "time": 89.0455287500004,
          "velocity": 0.7874015748031497,
          "duration": 0.136363750000001
        },
        {
          "name": "A1",
          "midi": 33,
          "time": 89.1818925000004,
          "velocity": 0.7874015748031497,
          "duration": 0.136363750000001
        },
        {
          "name": "G1",
          "midi": 31,
          "time": 89.3182562500004,
          "velocity": 0.7874015748031497,
          "duration": 0.136363750000001
        },
        {
          "name": "C2",
          "midi": 36,
          "time": 89.4546200000004,
          "velocity": 0.7874015748031497,
          "duration": 0.272727500000002
        },
        {
          "name": "C2",
          "midi": 36,
          "time": 89.8637112500004,
          "velocity": 0.7874015748031497,
          "duration": 0.272727500000002
        },
        {
          "name": "A#1",
          "midi": 34,
          "time": 90.13643875000041,
          "velocity": 0.7874015748031497,
          "duration": 0.136363750000001
        },
        {
          "name": "C2",
          "midi": 36,
          "time": 90.27280250000041,
          "velocity": 0.7874015748031497,
          "duration": 0.136363750000001
        },
        {
          "name": "E1",
          "midi": 28,
          "time": 90.40916625000041,
          "velocity": 0.7874015748031497,
          "duration": 0.136363750000001
        },
        {
          "name": "F1",
          "midi": 29,
          "time": 90.54553000000041,
          "velocity": 0.7874015748031497,
          "duration": 0.136363750000001
        },
        {
          "name": "F#1",
          "midi": 30,
          "time": 90.54553000000041,
          "velocity": 0.7874015748031497,
          "duration": 0.272727500000002
        },
        {
          "name": "G1",
          "midi": 31,
          "time": 90.81825750000041,
          "velocity": 0.7874015748031497,
          "duration": 0.272727500000002
        },
        {
          "name": "B1",
          "midi": 35,
          "time": 91.09098500000042,
          "velocity": 0.7874015748031497,
          "duration": 0.136363750000001
        },
        {
          "name": "G1",
          "midi": 31,
          "time": 91.22734875000042,
          "velocity": 0.7874015748031497,
          "duration": 0.136363750000001
        },
        {
          "name": "B1",
          "midi": 35,
          "time": 91.36371250000042,
          "velocity": 0.7874015748031497,
          "duration": 0.272727500000002
        },
        {
          "name": "C2",
          "midi": 36,
          "time": 91.63644000000042,
          "velocity": 0.7874015748031497,
          "duration": 0.272727500000002
        },
        {
          "name": "C2",
          "midi": 36,
          "time": 92.04553125000042,
          "velocity": 0.7874015748031497,
          "duration": 0.136363750000001
        },
        {
          "name": "A#1",
          "midi": 34,
          "time": 92.31825875000042,
          "velocity": 0.7874015748031497,
          "duration": 0.136363750000001
        },
        {
          "name": "C2",
          "midi": 36,
          "time": 92.45462250000043,
          "velocity": 0.7874015748031497,
          "duration": 0.272727500000002
        },
        {
          "name": "E1",
          "midi": 28,
          "time": 92.86371375000043,
          "velocity": 0.7874015748031497,
          "duration": 0.136363750000001
        },
        {
          "name": "F1",
          "midi": 29,
          "time": 93.00007750000043,
          "velocity": 0.7874015748031497,
          "duration": 0.272727500000002
        },
        {
          "name": "G1",
          "midi": 31,
          "time": 93.27280500000043,
          "velocity": 0.7874015748031497,
          "duration": 0.136363750000001
        },
        {
          "name": "G1",
          "midi": 31,
          "time": 93.40916875000043,
          "velocity": 0.7874015748031497,
          "duration": 0.136363750000001
        },
        {
          "name": "A1",
          "midi": 33,
          "time": 93.54553250000043,
          "velocity": 0.7874015748031497,
          "duration": 0.136363750000001
        },
        {
          "name": "G1",
          "midi": 31,
          "time": 93.68189625000043,
          "velocity": 0.7874015748031497,
          "duration": 0.136363750000001
        },
        {
          "name": "C2",
          "midi": 36,
          "time": 93.81826000000044,
          "velocity": 0.7874015748031497,
          "duration": 0.272727500000002
        },
        {
          "name": "C2",
          "midi": 36,
          "time": 94.22735125000044,
          "velocity": 0.7874015748031497,
          "duration": 0.272727500000002
        },
        {
          "name": "A#1",
          "midi": 34,
          "time": 94.50007875000044,
          "velocity": 0.7874015748031497,
          "duration": 0.136363750000001
        },
        {
          "name": "C2",
          "midi": 36,
          "time": 94.63644250000044,
          "velocity": 0.7874015748031497,
          "duration": 0.136363750000001
        },
        {
          "name": "E1",
          "midi": 28,
          "time": 94.77280625000044,
          "velocity": 0.7874015748031497,
          "duration": 0.136363750000001
        },
        {
          "name": "F1",
          "midi": 29,
          "time": 94.90917000000044,
          "velocity": 0.7874015748031497,
          "duration": 0.272727500000002
        },
        {
          "name": "G1",
          "midi": 31,
          "time": 95.18189750000045,
          "velocity": 0.7874015748031497,
          "duration": 0.272727500000002
        },
        {
          "name": "B1",
          "midi": 35,
          "time": 95.45462500000045,
          "velocity": 0.7874015748031497,
          "duration": 0.136363750000001
        },
        {
          "name": "G1",
          "midi": 31,
          "time": 95.59098875000045,
          "velocity": 0.7874015748031497,
          "duration": 0.136363750000001
        },
        {
          "name": "B1",
          "midi": 35,
          "time": 95.72735250000045,
          "velocity": 0.7874015748031497,
          "duration": 0.272727500000002
        },
        {
          "name": "C2",
          "midi": 36,
          "time": 96.00008000000045,
          "velocity": 0.7874015748031497,
          "duration": 0.272727500000002
        },
        {
          "name": "C2",
          "midi": 36,
          "time": 96.40917125000045,
          "velocity": 0.7874015748031497,
          "duration": 0.136363750000001
        },
        {
          "name": "A#1",
          "midi": 34,
          "time": 96.68189875000046,
          "velocity": 0.7874015748031497,
          "duration": 0.136363750000001
        },
        {
          "name": "C2",
          "midi": 36,
          "time": 96.81826250000046,
          "velocity": 0.7874015748031497,
          "duration": 0.272727500000002
        },
        {
          "name": "E1",
          "midi": 28,
          "time": 97.22735375000046,
          "velocity": 0.7874015748031497,
          "duration": 0.136363750000001
        },
        {
          "name": "F1",
          "midi": 29,
          "time": 97.36371750000046,
          "velocity": 0.7874015748031497,
          "duration": 0.272727500000002
        },
        {
          "name": "G1",
          "midi": 31,
          "time": 97.63644500000046,
          "velocity": 0.7874015748031497,
          "duration": 0.136363750000001
        },
        {
          "name": "G1",
          "midi": 31,
          "time": 97.77280875000046,
          "velocity": 0.7874015748031497,
          "duration": 0.136363750000001
        },
        {
          "name": "A1",
          "midi": 33,
          "time": 97.90917250000047,
          "velocity": 0.7874015748031497,
          "duration": 0.136363750000001
        },
        {
          "name": "G1",
          "midi": 31,
          "time": 98.04553625000047,
          "velocity": 0.7874015748031497,
          "duration": 0.136363750000001
        },
        {
          "name": "C2",
          "midi": 36,
          "time": 98.18190000000047,
          "velocity": 0.7874015748031497,
          "duration": 0.272727500000002
        },
        {
          "name": "C2",
          "midi": 36,
          "time": 98.59099125000047,
          "velocity": 0.7874015748031497,
          "duration": 0.272727500000002
        },
        {
          "name": "A#1",
          "midi": 34,
          "time": 98.86371875000047,
          "velocity": 0.7874015748031497,
          "duration": 0.136363750000001
        },
        {
          "name": "C2",
          "midi": 36,
          "time": 99.00008250000047,
          "velocity": 0.7874015748031497,
          "duration": 0.3636366666666646
        },
        {
          "name": "E1",
          "midi": 28,
          "time": 99.40917375000048,
          "velocity": 0.7874015748031497,
          "duration": 0.136363750000001
        },
        {
          "name": "G1",
          "midi": 31,
          "time": 99.54553750000048,
          "velocity": 0.7874015748031497,
          "duration": 0.136363750000001
        },
        {
          "name": "G1",
          "midi": 31,
          "time": 99.68190125000048,
          "velocity": 0.7874015748031497,
          "duration": 0.136363750000001
        },
        {
          "name": "A1",
          "midi": 33,
          "time": 99.81826500000048,
          "velocity": 0.7874015748031497,
          "duration": 0.545455000000004
        },
        {
          "name": "A1",
          "midi": 33,
          "time": 100.36372000000048,
          "velocity": 0.7874015748031497,
          "duration": 0.136363750000001
        },
        {
          "name": "A#1",
          "midi": 34,
          "time": 100.50008375000048,
          "velocity": 0.7874015748031497,
          "duration": 0.136363750000001
        },
        {
          "name": "C2",
          "midi": 36,
          "time": 100.63644750000049,
          "velocity": 0.7874015748031497,
          "duration": 0.136363750000001
        },
        {
          "name": "E2",
          "midi": 40,
          "time": 100.77281125000049,
          "velocity": 0.7874015748031497,
          "duration": 0.136363750000001
        },
        {
          "name": "A1",
          "midi": 33,
          "time": 101.04553875000049,
          "velocity": 0.7874015748031497,
          "duration": 0.136363750000001
        },
        {
          "name": "A#1",
          "midi": 34,
          "time": 101.18190250000049,
          "velocity": 0.7874015748031497,
          "duration": 0.136363750000001
        },
        {
          "name": "B1",
          "midi": 35,
          "time": 101.31826625000049,
          "velocity": 0.7874015748031497,
          "duration": 0.136363750000001
        },
        {
          "name": "E2",
          "midi": 40,
          "time": 101.45463000000049,
          "velocity": 0.7874015748031497,
          "duration": 0.272727500000002
        },
        {
          "name": "E1",
          "midi": 28,
          "time": 101.7273575000005,
          "velocity": 0.7874015748031497,
          "duration": 0.272727500000002
        },
        {
          "name": "A1",
          "midi": 33,
          "time": 102.5455400000005,
          "velocity": 0.7874015748031497,
          "duration": 0.136363750000001
        },
        {
          "name": "A#1",
          "midi": 34,
          "time": 102.6819037500005,
          "velocity": 0.7874015748031497,
          "duration": 0.136363750000001
        },
        {
          "name": "C2",
          "midi": 36,
          "time": 102.8182675000005,
          "velocity": 0.7874015748031497,
          "duration": 0.136363750000001
        },
        {
          "name": "E2",
          "midi": 40,
          "time": 102.9546312500005,
          "velocity": 0.7874015748031497,
          "duration": 0.136363750000001
        },
        {
          "name": "A1",
          "midi": 33,
          "time": 103.2273587500005,
          "velocity": 0.7874015748031497,
          "duration": 0.136363750000001
        },
        {
          "name": "A#1",
          "midi": 34,
          "time": 103.3637225000005,
          "velocity": 0.7874015748031497,
          "duration": 0.136363750000001
        },
        {
          "name": "B1",
          "midi": 35,
          "time": 103.5000862500005,
          "velocity": 0.7874015748031497,
          "duration": 0.136363750000001
        },
        {
          "name": "E2",
          "midi": 40,
          "time": 103.63645000000051,
          "velocity": 0.7874015748031497,
          "duration": 0.272727500000002
        },
        {
          "name": "E1",
          "midi": 28,
          "time": 103.90917750000051,
          "velocity": 0.7874015748031497,
          "duration": 0.272727500000002
        },
        {
          "name": "A1",
          "midi": 33,
          "time": 104.72736000000052,
          "velocity": 0.7874015748031497,
          "duration": 0.136363750000001
        },
        {
          "name": "A#1",
          "midi": 34,
          "time": 104.86372375000052,
          "velocity": 0.7874015748031497,
          "duration": 0.136363750000001
        },
        {
          "name": "C2",
          "midi": 36,
          "time": 105.00008750000052,
          "velocity": 0.7874015748031497,
          "duration": 0.136363750000001
        },
        {
          "name": "E2",
          "midi": 40,
          "time": 105.13645125000052,
          "velocity": 0.7874015748031497,
          "duration": 0.136363750000001
        },
        {
          "name": "A1",
          "midi": 33,
          "time": 105.40917875000052,
          "velocity": 0.7874015748031497,
          "duration": 0.136363750000001
        },
        {
          "name": "A#1",
          "midi": 34,
          "time": 105.54554250000052,
          "velocity": 0.7874015748031497,
          "duration": 0.136363750000001
        },
        {
          "name": "B1",
          "midi": 35,
          "time": 105.68190625000052,
          "velocity": 0.7874015748031497,
          "duration": 0.136363750000001
        },
        {
          "name": "E2",
          "midi": 40,
          "time": 105.81827000000052,
          "velocity": 0.7874015748031497,
          "duration": 0.272727500000002
        },
        {
          "name": "E1",
          "midi": 28,
          "time": 106.09099750000053,
          "velocity": 0.7874015748031497,
          "duration": 0.272727500000002
        },
        {
          "name": "A1",
          "midi": 33,
          "time": 106.90918000000053,
          "velocity": 0.7874015748031497,
          "duration": 0.136363750000001
        },
        {
          "name": "A#1",
          "midi": 34,
          "time": 107.04554375000053,
          "velocity": 0.7874015748031497,
          "duration": 0.136363750000001
        },
        {
          "name": "C2",
          "midi": 36,
          "time": 107.18190750000053,
          "velocity": 0.7874015748031497,
          "duration": 0.136363750000001
        },
        {
          "name": "E2",
          "midi": 40,
          "time": 107.31827125000054,
          "velocity": 0.7874015748031497,
          "duration": 0.136363750000001
        },
        {
          "name": "A1",
          "midi": 33,
          "time": 107.59099875000054,
          "velocity": 0.7874015748031497,
          "duration": 0.136363750000001
        },
        {
          "name": "A#1",
          "midi": 34,
          "time": 107.72736250000054,
          "velocity": 0.7874015748031497,
          "duration": 0.136363750000001
        },
        {
          "name": "B1",
          "midi": 35,
          "time": 107.86372625000054,
          "velocity": 0.7874015748031497,
          "duration": 0.136363750000001
        },
        {
          "name": "E2",
          "midi": 40,
          "time": 108.00009000000054,
          "velocity": 0.7874015748031497,
          "duration": 0.272727500000002
        },
        {
          "name": "A1",
          "midi": 33,
          "time": 108.27281750000054,
          "velocity": 0.7874015748031497,
          "duration": 0.545455000000004
        },
        {
          "name": "C2",
          "midi": 36,
          "time": 109.09100000000055,
          "velocity": 0.7874015748031497,
          "duration": 0.272727500000002
        },
        {
          "name": "C2",
          "midi": 36,
          "time": 109.50009125000055,
          "velocity": 0.7874015748031497,
          "duration": 0.136363750000001
        },
        {
          "name": "A#1",
          "midi": 34,
          "time": 109.77281875000055,
          "velocity": 0.7874015748031497,
          "duration": 0.136363750000001
        },
        {
          "name": "C2",
          "midi": 36,
          "time": 109.90918250000055,
          "velocity": 0.7874015748031497,
          "duration": 0.272727500000002
        },
        {
          "name": "E1",
          "midi": 28,
          "time": 110.31827375000056,
          "velocity": 0.7874015748031497,
          "duration": 0.136363750000001
        },
        {
          "name": "F1",
          "midi": 29,
          "time": 110.45463750000056,
          "velocity": 0.7874015748031497,
          "duration": 0.272727500000002
        },
        {
          "name": "G1",
          "midi": 31,
          "time": 110.72736500000056,
          "velocity": 0.7874015748031497,
          "duration": 0.136363750000001
        },
        {
          "name": "G1",
          "midi": 31,
          "time": 110.86372875000056,
          "velocity": 0.7874015748031497,
          "duration": 0.136363750000001
        },
        {
          "name": "A1",
          "midi": 33,
          "time": 111.00009250000056,
          "velocity": 0.7874015748031497,
          "duration": 0.136363750000001
        },
        {
          "name": "G1",
          "midi": 31,
          "time": 111.13645625000056,
          "velocity": 0.7874015748031497,
          "duration": 0.136363750000001
        },
        {
          "name": "C2",
          "midi": 36,
          "time": 111.27282000000056,
          "velocity": 0.7874015748031497,
          "duration": 0.272727500000002
        },
        {
          "name": "C2",
          "midi": 36,
          "time": 111.68191125000057,
          "velocity": 0.7874015748031497,
          "duration": 0.272727500000002
        },
        {
          "name": "A#1",
          "midi": 34,
          "time": 111.95463875000057,
          "velocity": 0.7874015748031497,
          "duration": 0.136363750000001
        },
        {
          "name": "C2",
          "midi": 36,
          "time": 112.09100250000057,
          "velocity": 0.7874015748031497,
          "duration": 0.136363750000001
        },
        {
          "name": "E1",
          "midi": 28,
          "time": 112.22736625000057,
          "velocity": 0.7874015748031497,
          "duration": 0.136363750000001
        },
        {
          "name": "F1",
          "midi": 29,
          "time": 112.36373000000057,
          "velocity": 0.7874015748031497,
          "duration": 0.272727500000002
        },
        {
          "name": "G1",
          "midi": 31,
          "time": 112.63645750000057,
          "velocity": 0.7874015748031497,
          "duration": 0.272727500000002
        },
        {
          "name": "B1",
          "midi": 35,
          "time": 112.90918500000058,
          "velocity": 0.7874015748031497,
          "duration": 0.136363750000001
        },
        {
          "name": "G1",
          "midi": 31,
          "time": 113.04554875000058,
          "velocity": 0.7874015748031497,
          "duration": 0.136363750000001
        },
        {
          "name": "B1",
          "midi": 35,
          "time": 113.18191250000058,
          "velocity": 0.7874015748031497,
          "duration": 0.272727500000002
        },
        {
          "name": "C2",
          "midi": 36,
          "time": 113.45464000000058,
          "velocity": 0.7874015748031497,
          "duration": 0.272727500000002
        },
        {
          "name": "C2",
          "midi": 36,
          "time": 113.86373125000058,
          "velocity": 0.7874015748031497,
          "duration": 0.136363750000001
        },
        {
          "name": "A#1",
          "midi": 34,
          "time": 114.13645875000059,
          "velocity": 0.7874015748031497,
          "duration": 0.136363750000001
        },
        {
          "name": "C2",
          "midi": 36,
          "time": 114.27282250000059,
          "velocity": 0.7874015748031497,
          "duration": 0.272727500000002
        },
        {
          "name": "E1",
          "midi": 28,
          "time": 114.68191375000059,
          "velocity": 0.7874015748031497,
          "duration": 0.136363750000001
        },
        {
          "name": "F1",
          "midi": 29,
          "time": 114.81827750000059,
          "velocity": 0.7874015748031497,
          "duration": 0.272727500000002
        },
        {
          "name": "G1",
          "midi": 31,
          "time": 115.09100500000059,
          "velocity": 0.7874015748031497,
          "duration": 0.136363750000001
        },
        {
          "name": "G1",
          "midi": 31,
          "time": 115.2273687500006,
          "velocity": 0.7874015748031497,
          "duration": 0.136363750000001
        },
        {
          "name": "A1",
          "midi": 33,
          "time": 115.3637325000006,
          "velocity": 0.7874015748031497,
          "duration": 0.136363750000001
        },
        {
          "name": "G1",
          "midi": 31,
          "time": 115.5000962500006,
          "velocity": 0.7874015748031497,
          "duration": 0.136363750000001
        },
        {
          "name": "C2",
          "midi": 36,
          "time": 115.6364600000006,
          "velocity": 0.7874015748031497,
          "duration": 0.272727500000002
        },
        {
          "name": "C2",
          "midi": 36,
          "time": 116.0455512500006,
          "velocity": 0.7874015748031497,
          "duration": 0.272727500000002
        },
        {
          "name": "A#1",
          "midi": 34,
          "time": 116.3182787500006,
          "velocity": 0.7874015748031497,
          "duration": 0.136363750000001
        },
        {
          "name": "C2",
          "midi": 36,
          "time": 116.4546425000006,
          "velocity": 0.7874015748031497,
          "duration": 0.136363750000001
        },
        {
          "name": "E1",
          "midi": 28,
          "time": 116.5910062500006,
          "velocity": 0.7874015748031497,
          "duration": 0.136363750000001
        },
        {
          "name": "F1",
          "midi": 29,
          "time": 116.7273700000006,
          "velocity": 0.7874015748031497,
          "duration": 0.272727500000002
        },
        {
          "name": "G1",
          "midi": 31,
          "time": 117.0000975000006,
          "velocity": 0.7874015748031497,
          "duration": 0.272727500000002
        },
        {
          "name": "B1",
          "midi": 35,
          "time": 117.27282500000061,
          "velocity": 0.7874015748031497,
          "duration": 0.136363750000001
        },
        {
          "name": "G1",
          "midi": 31,
          "time": 117.40918875000061,
          "velocity": 0.7874015748031497,
          "duration": 0.136363750000001
        },
        {
          "name": "B1",
          "midi": 35,
          "time": 117.54555250000061,
          "velocity": 0.7874015748031497,
          "duration": 0.272727500000002
        },
        {
          "name": "C2",
          "midi": 36,
          "time": 117.81828000000061,
          "velocity": 0.7874015748031497,
          "duration": 0.272727500000002
        },
        {
          "name": "C2",
          "midi": 36,
          "time": 118.22737125000062,
          "velocity": 0.7874015748031497,
          "duration": 0.136363750000001
        },
        {
          "name": "A#1",
          "midi": 34,
          "time": 118.50009875000062,
          "velocity": 0.7874015748031497,
          "duration": 0.136363750000001
        },
        {
          "name": "C2",
          "midi": 36,
          "time": 118.63646250000062,
          "velocity": 0.7874015748031497,
          "duration": 0.272727500000002
        },
        {
          "name": "E1",
          "midi": 28,
          "time": 119.04555375000062,
          "velocity": 0.7874015748031497,
          "duration": 0.136363750000001
        },
        {
          "name": "F1",
          "midi": 29,
          "time": 119.18191750000062,
          "velocity": 0.7874015748031497,
          "duration": 0.272727500000002
        },
        {
          "name": "G1",
          "midi": 31,
          "time": 119.45464500000062,
          "velocity": 0.7874015748031497,
          "duration": 0.136363750000001
        },
        {
          "name": "G1",
          "midi": 31,
          "time": 119.59100875000063,
          "velocity": 0.7874015748031497,
          "duration": 0.136363750000001
        },
        {
          "name": "A1",
          "midi": 33,
          "time": 119.72737250000063,
          "velocity": 0.7874015748031497,
          "duration": 0.136363750000001
        },
        {
          "name": "G1",
          "midi": 31,
          "time": 119.86373625000063,
          "velocity": 0.7874015748031497,
          "duration": 0.136363750000001
        },
        {
          "name": "C2",
          "midi": 36,
          "time": 120.00010000000063,
          "velocity": 0.7874015748031497,
          "duration": 0.272727500000002
        },
        {
          "name": "C2",
          "midi": 36,
          "time": 120.40919125000063,
          "velocity": 0.7874015748031497,
          "duration": 0.272727500000002
        },
        {
          "name": "B1",
          "midi": 35,
          "time": 120.68191875000063,
          "velocity": 0.7874015748031497,
          "duration": 0.136363750000001
        },
        {
          "name": "C2",
          "midi": 36,
          "time": 120.81828250000063,
          "velocity": 0.7874015748031497,
          "duration": 0.136363750000001
        },
        {
          "name": "E1",
          "midi": 28,
          "time": 120.95464625000064,
          "velocity": 0.7874015748031497,
          "duration": 0.136363750000001
        },
        {
          "name": "F#1",
          "midi": 30,
          "time": 121.09101000000064,
          "velocity": 0.7874015748031497,
          "duration": 0.272727500000002
        },
        {
          "name": "G1",
          "midi": 31,
          "time": 121.36373750000064,
          "velocity": 0.7874015748031497,
          "duration": 0.272727500000002
        },
        {
          "name": "B1",
          "midi": 35,
          "time": 121.63646500000064,
          "velocity": 0.7874015748031497,
          "duration": 0.136363750000001
        },
        {
          "name": "G1",
          "midi": 31,
          "time": 121.77282875000064,
          "velocity": 0.7874015748031497,
          "duration": 0.136363750000001
        },
        {
          "name": "B1",
          "midi": 35,
          "time": 121.90919250000064,
          "velocity": 0.7874015748031497,
          "duration": 0.272727500000002
        },
        {
          "name": "C2",
          "midi": 36,
          "time": 122.18192000000064,
          "velocity": 0.7874015748031497,
          "duration": 0.272727500000002
        },
        {
          "name": "C2",
          "midi": 36,
          "time": 122.59101125000065,
          "velocity": 0.7874015748031497,
          "duration": 0.136363750000001
        },
        {
          "name": "A#1",
          "midi": 34,
          "time": 122.86373875000065,
          "velocity": 0.7874015748031497,
          "duration": 0.136363750000001
        },
        {
          "name": "C2",
          "midi": 36,
          "time": 123.00010250000065,
          "velocity": 0.7874015748031497,
          "duration": 0.272727500000002
        },
        {
          "name": "E1",
          "midi": 28,
          "time": 123.40919375000065,
          "velocity": 0.7874015748031497,
          "duration": 0.136363750000001
        },
        {
          "name": "F1",
          "midi": 29,
          "time": 123.54555750000065,
          "velocity": 0.7874015748031497,
          "duration": 0.272727500000002
        },
        {
          "name": "G1",
          "midi": 31,
          "time": 123.81828500000066,
          "velocity": 0.7874015748031497,
          "duration": 0.136363750000001
        },
        {
          "name": "G1",
          "midi": 31,
          "time": 123.95464875000066,
          "velocity": 0.7874015748031497,
          "duration": 0.136363750000001
        },
        {
          "name": "A1",
          "midi": 33,
          "time": 124.09101250000066,
          "velocity": 0.7874015748031497,
          "duration": 0.136363750000001
        },
        {
          "name": "G1",
          "midi": 31,
          "time": 124.22737625000066,
          "velocity": 0.7874015748031497,
          "duration": 0.136363750000001
        },
        {
          "name": "C2",
          "midi": 36,
          "time": 124.36374000000066,
          "velocity": 0.7874015748031497,
          "duration": 0.272727500000002
        },
        {
          "name": "C2",
          "midi": 36,
          "time": 124.77283125000066,
          "velocity": 0.7874015748031497,
          "duration": 0.272727500000002
        },
        {
          "name": "A#1",
          "midi": 34,
          "time": 125.04555875000067,
          "velocity": 0.7874015748031497,
          "duration": 0.136363750000001
        },
        {
          "name": "C2",
          "midi": 36,
          "time": 125.18192250000067,
          "velocity": 0.7874015748031497,
          "duration": 0.3636366666666646
        },
        {
          "name": "E1",
          "midi": 28,
          "time": 125.59101375000067,
          "velocity": 0.7874015748031497,
          "duration": 0.136363750000001
        },
        {
          "name": "G1",
          "midi": 31,
          "time": 125.72737750000067,
          "velocity": 0.7874015748031497,
          "duration": 0.136363750000001
        },
        {
          "name": "G1",
          "midi": 31,
          "time": 125.86374125000067,
          "velocity": 0.7874015748031497,
          "duration": 0.136363750000001
        },
        {
          "name": "A1",
          "midi": 33,
          "time": 126.00010500000067,
          "velocity": 0.7874015748031497,
          "duration": 0.545455000000004
        },
        {
          "name": "C2",
          "midi": 36,
          "time": 126.54556000000068,
          "velocity": 0.7874015748031497,
          "duration": 0.136363750000001
        },
        {
          "name": "C2",
          "midi": 36,
          "time": 126.68192375000068,
          "velocity": 0.7874015748031497,
          "duration": 0.136363750000001
        },
        {
          "name": "C2",
          "midi": 36,
          "time": 126.81828750000068,
          "velocity": 0.7874015748031497,
          "duration": 0.136363750000001
        },
        {
          "name": "C2",
          "midi": 36,
          "time": 126.95465125000068,
          "velocity": 0.7874015748031497,
          "duration": 0.136363750000001
        },
        {
          "name": "C2",
          "midi": 36,
          "time": 127.36374250000068,
          "velocity": 0.7874015748031497,
          "duration": 0.136363750000001
        },
        {
          "name": "C2",
          "midi": 36,
          "time": 127.50010625000068,
          "velocity": 0.7874015748031497,
          "duration": 0.136363750000001
        },
        {
          "name": "C2",
          "midi": 36,
          "time": 127.63647000000068,
          "velocity": 0.7874015748031497,
          "duration": 0.136363750000001
        },
        {
          "name": "C2",
          "midi": 36,
          "time": 127.77283375000069,
          "velocity": 0.7874015748031497,
          "duration": 0.136363750000001
        },
        {
          "name": "C2",
          "midi": 36,
          "time": 127.90919750000069,
          "velocity": 0.7874015748031497,
          "duration": 0.272727500000002
        },
        {
          "name": "C2",
          "midi": 36,
          "time": 128.1819250000007,
          "velocity": 0.7874015748031497,
          "duration": 0.1363637499999868
        },
        {
          "name": "C2",
          "midi": 36,
          "time": 128.31828875000068,
          "velocity": 0.7874015748031497,
          "duration": 0.1363637499999868
        },
        {
          "name": "D#2",
          "midi": 39,
          "time": 128.45465250000066,
          "velocity": 0.7874015748031497,
          "duration": 0.1363637499999868
        },
        {
          "name": "E2",
          "midi": 40,
          "time": 128.59101625000065,
          "velocity": 0.7874015748031497,
          "duration": 0.1363637499999868
        },
        {
          "name": "F2",
          "midi": 41,
          "time": 128.72738000000064,
          "velocity": 0.7874015748031497,
          "duration": 0.1363637499999868
        },
        {
          "name": "F2",
          "midi": 41,
          "time": 128.86374375000062,
          "velocity": 0.7874015748031497,
          "duration": 0.1363637499999868
        },
        {
          "name": "F2",
          "midi": 41,
          "time": 129.0001075000006,
          "velocity": 0.7874015748031497,
          "duration": 0.1363637499999868
        },
        {
          "name": "F2",
          "midi": 41,
          "time": 129.1364712500006,
          "velocity": 0.7874015748031497,
          "duration": 0.1363637499999868
        },
        {
          "name": "F#2",
          "midi": 42,
          "time": 129.27283500000058,
          "velocity": 0.7874015748031497,
          "duration": 0.272727500000002
        },
        {
          "name": "F2",
          "midi": 41,
          "time": 129.8182900000006,
          "velocity": 0.7874015748031497,
          "duration": 0.1363637499999868
        },
        {
          "name": "G2",
          "midi": 43,
          "time": 129.95465375000057,
          "velocity": 0.7874015748031497,
          "duration": 0.1363637499999868
        },
        {
          "name": "A#2",
          "midi": 46,
          "time": 130.09101750000056,
          "velocity": 0.7874015748031497,
          "duration": 0.1363637499999868
        },
        {
          "name": "G2",
          "midi": 43,
          "time": 130.22738125000055,
          "velocity": 0.7874015748031497,
          "duration": 0.1363637499999868
        },
        {
          "name": "F2",
          "midi": 41,
          "time": 130.36374500000053,
          "velocity": 0.7874015748031497,
          "duration": 0.1363637499999868
        },
        {
          "name": "D#2",
          "midi": 39,
          "time": 130.50010875000052,
          "velocity": 0.7874015748031497,
          "duration": 0.1363637499999868
        },
        {
          "name": "C2",
          "midi": 36,
          "time": 130.6364725000005,
          "velocity": 0.7874015748031497,
          "duration": 0.1363637499999868
        },
        {
          "name": "A#1",
          "midi": 34,
          "time": 130.7728362500005,
          "velocity": 0.7874015748031497,
          "duration": 0.1363637499999868
        },
        {
          "name": "C2",
          "midi": 36,
          "time": 130.90920000000048,
          "velocity": 0.7874015748031497,
          "duration": 0.1363637499999868
        },
        {
          "name": "C2",
          "midi": 36,
          "time": 131.04556375000047,
          "velocity": 0.7874015748031497,
          "duration": 0.1363637499999868
        },
        {
          "name": "C2",
          "midi": 36,
          "time": 131.18192750000046,
          "velocity": 0.7874015748031497,
          "duration": 0.1363637499999868
        },
        {
          "name": "C2",
          "midi": 36,
          "time": 131.31829125000044,
          "velocity": 0.7874015748031497,
          "duration": 0.1363637499999868
        },
        {
          "name": "C2",
          "midi": 36,
          "time": 131.72738250000043,
          "velocity": 0.7874015748031497,
          "duration": 0.1363637499999868
        },
        {
          "name": "C2",
          "midi": 36,
          "time": 131.86374625000042,
          "velocity": 0.7874015748031497,
          "duration": 0.1363637499999868
        },
        {
          "name": "C2",
          "midi": 36,
          "time": 132.0001100000004,
          "velocity": 0.7874015748031497,
          "duration": 0.1363637499999868
        },
        {
          "name": "C2",
          "midi": 36,
          "time": 132.1364737500004,
          "velocity": 0.7874015748031497,
          "duration": 0.1363637499999868
        },
        {
          "name": "C2",
          "midi": 36,
          "time": 132.27283750000038,
          "velocity": 0.7874015748031497,
          "duration": 0.272727500000002
        },
        {
          "name": "C2",
          "midi": 36,
          "time": 132.54556500000038,
          "velocity": 0.7874015748031497,
          "duration": 0.1363637499999868
        },
        {
          "name": "C2",
          "midi": 36,
          "time": 132.68192875000037,
          "velocity": 0.7874015748031497,
          "duration": 0.1363637499999868
        },
        {
          "name": "D#2",
          "midi": 39,
          "time": 132.81829250000035,
          "velocity": 0.7874015748031497,
          "duration": 0.1363637499999868
        },
        {
          "name": "E2",
          "midi": 40,
          "time": 132.95465625000034,
          "velocity": 0.7874015748031497,
          "duration": 0.1363637499999868
        },
        {
          "name": "F2",
          "midi": 41,
          "time": 133.09102000000033,
          "velocity": 0.7874015748031497,
          "duration": 0.1363637499999868
        },
        {
          "name": "F2",
          "midi": 41,
          "time": 133.2273837500003,
          "velocity": 0.7874015748031497,
          "duration": 0.1363637499999868
        },
        {
          "name": "F2",
          "midi": 41,
          "time": 133.3637475000003,
          "velocity": 0.7874015748031497,
          "duration": 0.1363637499999868
        },
        {
          "name": "F2",
          "midi": 41,
          "time": 133.5001112500003,
          "velocity": 0.7874015748031497,
          "duration": 0.1363637499999868
        },
        {
          "name": "F#2",
          "midi": 42,
          "time": 133.63647500000027,
          "velocity": 0.7874015748031497,
          "duration": 0.272727500000002
        },
        {
          "name": "F2",
          "midi": 41,
          "time": 134.18193000000028,
          "velocity": 0.7874015748031497,
          "duration": 0.1363637499999868
        },
        {
          "name": "G2",
          "midi": 43,
          "time": 134.31829375000027,
          "velocity": 0.7874015748031497,
          "duration": 0.1363637499999868
        },
        {
          "name": "A#2",
          "midi": 46,
          "time": 134.45465750000025,
          "velocity": 0.7874015748031497,
          "duration": 0.1363637499999868
        },
        {
          "name": "G2",
          "midi": 43,
          "time": 134.59102125000024,
          "velocity": 0.7874015748031497,
          "duration": 0.1363637499999868
        },
        {
          "name": "F2",
          "midi": 41,
          "time": 134.72738500000023,
          "velocity": 0.7874015748031497,
          "duration": 0.1363637499999868
        },
        {
          "name": "D#2",
          "midi": 39,
          "time": 134.8637487500002,
          "velocity": 0.7874015748031497,
          "duration": 0.1363637499999868
        },
        {
          "name": "C2",
          "midi": 36,
          "time": 135.0001125000002,
          "velocity": 0.7874015748031497,
          "duration": 0.1363637499999868
        },
        {
          "name": "A#1",
          "midi": 34,
          "time": 135.1364762500002,
          "velocity": 0.7874015748031497,
          "duration": 0.1363637499999868
        },
        {
          "name": "C2",
          "midi": 36,
          "time": 135.27284000000017,
          "velocity": 0.7874015748031497,
          "duration": 0.1363637499999868
        },
        {
          "name": "C2",
          "midi": 36,
          "time": 135.40920375000016,
          "velocity": 0.7874015748031497,
          "duration": 0.1363637499999868
        },
        {
          "name": "C2",
          "midi": 36,
          "time": 135.54556750000015,
          "velocity": 0.7874015748031497,
          "duration": 0.1363637499999868
        },
        {
          "name": "C2",
          "midi": 36,
          "time": 135.68193125000013,
          "velocity": 0.7874015748031497,
          "duration": 0.1363637499999868
        },
        {
          "name": "C2",
          "midi": 36,
          "time": 136.09102250000012,
          "velocity": 0.7874015748031497,
          "duration": 0.1363637499999868
        },
        {
          "name": "C2",
          "midi": 36,
          "time": 136.2273862500001,
          "velocity": 0.7874015748031497,
          "duration": 0.1363637499999868
        },
        {
          "name": "C2",
          "midi": 36,
          "time": 136.3637500000001,
          "velocity": 0.7874015748031497,
          "duration": 0.1363637499999868
        },
        {
          "name": "C2",
          "midi": 36,
          "time": 136.50011375000008,
          "velocity": 0.7874015748031497,
          "duration": 0.1363637499999868
        },
        {
          "name": "C2",
          "midi": 36,
          "time": 136.63647750000007,
          "velocity": 0.7874015748031497,
          "duration": 0.272727500000002
        },
        {
          "name": "C2",
          "midi": 36,
          "time": 136.90920500000007,
          "velocity": 0.7874015748031497,
          "duration": 0.1363637499999868
        },
        {
          "name": "C2",
          "midi": 36,
          "time": 137.04556875000006,
          "velocity": 0.7874015748031497,
          "duration": 0.1363637499999868
        },
        {
          "name": "D#2",
          "midi": 39,
          "time": 137.18193250000004,
          "velocity": 0.7874015748031497,
          "duration": 0.1363637499999868
        },
        {
          "name": "E2",
          "midi": 40,
          "time": 137.31829625000003,
          "velocity": 0.7874015748031497,
          "duration": 0.1363637499999868
        },
        {
          "name": "F2",
          "midi": 41,
          "time": 137.45466000000002,
          "velocity": 0.7874015748031497,
          "duration": 0.1363637499999868
        },
        {
          "name": "F2",
          "midi": 41,
          "time": 137.59102375,
          "velocity": 0.7874015748031497,
          "duration": 0.1363637499999868
        },
        {
          "name": "F2",
          "midi": 41,
          "time": 137.7273875,
          "velocity": 0.7874015748031497,
          "duration": 0.1363637499999868
        },
        {
          "name": "F2",
          "midi": 41,
          "time": 137.86375124999998,
          "velocity": 0.7874015748031497,
          "duration": 0.1363637499999868
        },
        {
          "name": "F#2",
          "midi": 42,
          "time": 138.00011499999997,
          "velocity": 0.7874015748031497,
          "duration": 0.272727500000002
        },
        {
          "name": "F2",
          "midi": 41,
          "time": 138.54556999999997,
          "velocity": 0.7874015748031497,
          "duration": 0.1363637499999868
        },
        {
          "name": "G2",
          "midi": 43,
          "time": 138.68193374999996,
          "velocity": 0.7874015748031497,
          "duration": 0.1363637499999868
        },
        {
          "name": "A#2",
          "midi": 46,
          "time": 138.81829749999994,
          "velocity": 0.7874015748031497,
          "duration": 0.1363637499999868
        },
        {
          "name": "G2",
          "midi": 43,
          "time": 138.95466124999993,
          "velocity": 0.7874015748031497,
          "duration": 0.1363637499999868
        },
        {
          "name": "F2",
          "midi": 41,
          "time": 139.09102499999992,
          "velocity": 0.7874015748031497,
          "duration": 0.1363637499999868
        },
        {
          "name": "D#2",
          "midi": 39,
          "time": 139.2273887499999,
          "velocity": 0.7874015748031497,
          "duration": 0.1363637499999868
        },
        {
          "name": "C2",
          "midi": 36,
          "time": 139.3637524999999,
          "velocity": 0.7874015748031497,
          "duration": 0.1363637499999868
        },
        {
          "name": "A#1",
          "midi": 34,
          "time": 139.50011624999988,
          "velocity": 0.7874015748031497,
          "duration": 0.1363637499999868
        },
        {
          "name": "C2",
          "midi": 36,
          "time": 139.63647999999986,
          "velocity": 0.7874015748031497,
          "duration": 0.272727500000002
        },
        {
          "name": "C2",
          "midi": 36,
          "time": 140.04557124999985,
          "velocity": 0.7874015748031497,
          "duration": 0.272727500000002
        },
        {
          "name": "C2",
          "midi": 36,
          "time": 140.45466249999984,
          "velocity": 0.7874015748031497,
          "duration": 0.545455000000004
        },
        {
          "name": "D#2",
          "midi": 39,
          "time": 141.00011749999985,
          "velocity": 0.7874015748031497,
          "duration": 0.1363637499999868
        },
        {
          "name": "G2",
          "midi": 43,
          "time": 141.13648124999983,
          "velocity": 0.7874015748031497,
          "duration": 0.1363637499999868
        },
        {
          "name": "C3",
          "midi": 48,
          "time": 141.27284499999982,
          "velocity": 0.7874015748031497,
          "duration": 0.1363637499999868
        },
        {
          "name": "A#2",
          "midi": 46,
          "time": 141.4092087499998,
          "velocity": 0.7874015748031497,
          "duration": 0.1363637499999868
        },
        {
          "name": "G2",
          "midi": 43,
          "time": 141.5455724999998,
          "velocity": 0.7874015748031497,
          "duration": 0.272727500000002
        },
        {
          "name": "F1",
          "midi": 29,
          "time": 141.8182999999998,
          "velocity": 0.7874015748031497,
          "duration": 0.272727500000002
        },
        {
          "name": "F1",
          "midi": 29,
          "time": 142.22739124999978,
          "velocity": 0.7874015748031497,
          "duration": 0.272727500000002
        },
        {
          "name": "F1",
          "midi": 29,
          "time": 142.63648249999977,
          "velocity": 0.7874015748031497,
          "duration": 0.5454549999999756
        },
        {
          "name": "C2",
          "midi": 36,
          "time": 143.04557374999976,
          "velocity": 0.7874015748031497,
          "duration": 0.1363637499999868
        },
        {
          "name": "D#2",
          "midi": 39,
          "time": 143.18193749999975,
          "velocity": 0.7874015748031497,
          "duration": 0.1363637499999868
        },
        {
          "name": "E2",
          "midi": 40,
          "time": 143.31830124999973,
          "velocity": 0.7874015748031497,
          "duration": 0.1363637499999868
        },
        {
          "name": "F2",
          "midi": 41,
          "time": 143.45466499999972,
          "velocity": 0.7874015748031497,
          "duration": 0.1363637499999868
        },
        {
          "name": "G#2",
          "midi": 44,
          "time": 143.5910287499997,
          "velocity": 0.7874015748031497,
          "duration": 0.1363637499999868
        },
        {
          "name": "A2",
          "midi": 45,
          "time": 143.7273924999997,
          "velocity": 0.7874015748031497,
          "duration": 0.272727500000002
        },
        {
          "name": "C2",
          "midi": 36,
          "time": 144.0001199999997,
          "velocity": 0.7874015748031497,
          "duration": 0.272727500000002
        },
        {
          "name": "C2",
          "midi": 36,
          "time": 144.4092112499997,
          "velocity": 0.7874015748031497,
          "duration": 0.1363637499999868
        },
        {
          "name": "A#1",
          "midi": 34,
          "time": 144.68193874999966,
          "velocity": 0.7874015748031497,
          "duration": 0.1363637499999868
        },
        {
          "name": "C2",
          "midi": 36,
          "time": 144.81830249999965,
          "velocity": 0.7874015748031497,
          "duration": 0.272727500000002
        },
        {
          "name": "E1",
          "midi": 28,
          "time": 145.22739374999964,
          "velocity": 0.7874015748031497,
          "duration": 0.1363637499999868
        },
        {
          "name": "F1",
          "midi": 29,
          "time": 145.36375749999962,
          "velocity": 0.7874015748031497,
          "duration": 0.272727500000002
        },
        {
          "name": "G1",
          "midi": 31,
          "time": 145.63648499999962,
          "velocity": 0.7874015748031497,
          "duration": 0.1363637499999868
        },
        {
          "name": "G1",
          "midi": 31,
          "time": 145.7728487499996,
          "velocity": 0.7874015748031497,
          "duration": 0.1363637499999868
        },
        {
          "name": "A1",
          "midi": 33,
          "time": 145.9092124999996,
          "velocity": 0.7874015748031497,
          "duration": 0.1363637499999868
        },
        {
          "name": "G1",
          "midi": 31,
          "time": 146.04557624999958,
          "velocity": 0.7874015748031497,
          "duration": 0.1363637499999868
        },
        {
          "name": "C2",
          "midi": 36,
          "time": 146.18193999999957,
          "velocity": 0.7874015748031497,
          "duration": 0.272727500000002
        },
        {
          "name": "C2",
          "midi": 36,
          "time": 146.59103124999956,
          "velocity": 0.7874015748031497,
          "duration": 0.272727500000002
        },
        {
          "name": "A#1",
          "midi": 34,
          "time": 146.86375874999956,
          "velocity": 0.7874015748031497,
          "duration": 0.1363637499999868
        },
        {
          "name": "C2",
          "midi": 36,
          "time": 147.00012249999955,
          "velocity": 0.7874015748031497,
          "duration": 0.1363637499999868
        },
        {
          "name": "E1",
          "midi": 28,
          "time": 147.13648624999954,
          "velocity": 0.7874015748031497,
          "duration": 0.1363637499999868
        },
        {
          "name": "F1",
          "midi": 29,
          "time": 147.27284999999952,
          "velocity": 0.7874015748031497,
          "duration": 0.272727500000002
        },
        {
          "name": "G1",
          "midi": 31,
          "time": 147.54557749999952,
          "velocity": 0.7874015748031497,
          "duration": 0.272727500000002
        },
        {
          "name": "B1",
          "midi": 35,
          "time": 147.81830499999953,
          "velocity": 0.7874015748031497,
          "duration": 0.1363637499999868
        },
        {
          "name": "G1",
          "midi": 31,
          "time": 147.9546687499995,
          "velocity": 0.7874015748031497,
          "duration": 0.1363637499999868
        },
        {
          "name": "B1",
          "midi": 35,
          "time": 148.0910324999995,
          "velocity": 0.7874015748031497,
          "duration": 0.272727500000002
        },
        {
          "name": "C2",
          "midi": 36,
          "time": 148.3637599999995,
          "velocity": 0.7874015748031497,
          "duration": 0.272727500000002
        },
        {
          "name": "C2",
          "midi": 36,
          "time": 148.7728512499995,
          "velocity": 0.7874015748031497,
          "duration": 0.1363637499999868
        },
        {
          "name": "A#1",
          "midi": 34,
          "time": 149.04557874999946,
          "velocity": 0.7874015748031497,
          "duration": 0.1363637499999868
        },
        {
          "name": "C2",
          "midi": 36,
          "time": 149.18194249999945,
          "velocity": 0.7874015748031497,
          "duration": 0.272727500000002
        },
        {
          "name": "E1",
          "midi": 28,
          "time": 149.59103374999944,
          "velocity": 0.7874015748031497,
          "duration": 0.1363637499999868
        },
        {
          "name": "F1",
          "midi": 29,
          "time": 149.72739749999943,
          "velocity": 0.7874015748031497,
          "duration": 0.272727500000002
        },
        {
          "name": "G1",
          "midi": 31,
          "time": 150.00012499999943,
          "velocity": 0.7874015748031497,
          "duration": 0.1363637499999868
        },
        {
          "name": "G1",
          "midi": 31,
          "time": 150.13648874999942,
          "velocity": 0.7874015748031497,
          "duration": 0.1363637499999868
        },
        {
          "name": "A1",
          "midi": 33,
          "time": 150.2728524999994,
          "velocity": 0.7874015748031497,
          "duration": 0.1363637499999868
        },
        {
          "name": "G1",
          "midi": 31,
          "time": 150.4092162499994,
          "velocity": 0.7874015748031497,
          "duration": 0.1363637499999868
        },
        {
          "name": "C2",
          "midi": 36,
          "time": 150.54557999999938,
          "velocity": 0.7874015748031497,
          "duration": 0.272727500000002
        },
        {
          "name": "C2",
          "midi": 36,
          "time": 150.95467124999936,
          "velocity": 0.7874015748031497,
          "duration": 0.272727500000002
        },
        {
          "name": "A#1",
          "midi": 34,
          "time": 151.22739874999937,
          "velocity": 0.7874015748031497,
          "duration": 0.1363637499999868
        },
        {
          "name": "C2",
          "midi": 36,
          "time": 151.36376249999935,
          "velocity": 0.7874015748031497,
          "duration": 0.3636366666666788
        },
        {
          "name": "E1",
          "midi": 28,
          "time": 151.77285374999937,
          "velocity": 0.7874015748031497,
          "duration": 0.1363637499999868
        },
        {
          "name": "G1",
          "midi": 31,
          "time": 151.90921749999936,
          "velocity": 0.7874015748031497,
          "duration": 0.1363637499999868
        },
        {
          "name": "G1",
          "midi": 31,
          "time": 152.04558124999934,
          "velocity": 0.7874015748031497,
          "duration": 0.1363637499999868
        },
        {
          "name": "A1",
          "midi": 33,
          "time": 152.18194499999933,
          "velocity": 0.7874015748031497,
          "duration": 0.545455000000004
        },
        {
          "name": "E1",
          "midi": 28,
          "time": 152.72739999999934,
          "velocity": 0.7874015748031497,
          "duration": 0.1363637499999868
        },
        {
          "name": "G1",
          "midi": 31,
          "time": 152.86376374999932,
          "velocity": 0.7874015748031497,
          "duration": 0.1363637499999868
        },
        {
          "name": "G#1",
          "midi": 32,
          "time": 153.0001274999993,
          "velocity": 0.7874015748031497,
          "duration": 0.1363637499999868
        },
        {
          "name": "E2",
          "midi": 40,
          "time": 153.1364912499993,
          "velocity": 0.7874015748031497,
          "duration": 0.1363637499999868
        },
        {
          "name": "A1",
          "midi": 33,
          "time": 153.40921874999927,
          "velocity": 0.7874015748031497,
          "duration": 0.1363637499999868
        },
        {
          "name": "A#1",
          "midi": 34,
          "time": 153.54558249999926,
          "velocity": 0.7874015748031497,
          "duration": 0.1363637499999868
        },
        {
          "name": "B1",
          "midi": 35,
          "time": 153.68194624999924,
          "velocity": 0.7874015748031497,
          "duration": 0.1363637499999868
        },
        {
          "name": "E2",
          "midi": 40,
          "time": 153.81830999999923,
          "velocity": 0.7874015748031497,
          "duration": 0.1363637499999868
        },
        {
          "name": "E1",
          "midi": 28,
          "time": 154.0910374999992,
          "velocity": 0.7874015748031497,
          "duration": 0.272727500000002
        },
        {
          "name": "E1",
          "midi": 28,
          "time": 154.9092199999992,
          "velocity": 0.7874015748031497,
          "duration": 0.1363637499999868
        },
        {
          "name": "G1",
          "midi": 31,
          "time": 155.0455837499992,
          "velocity": 0.7874015748031497,
          "duration": 0.1363637499999868
        },
        {
          "name": "G#1",
          "midi": 32,
          "time": 155.18194749999918,
          "velocity": 0.7874015748031497,
          "duration": 0.1363637499999868
        },
        {
          "name": "E2",
          "midi": 40,
          "time": 155.31831124999917,
          "velocity": 0.7874015748031497,
          "duration": 0.1363637499999868
        },
        {
          "name": "A1",
          "midi": 33,
          "time": 155.59103874999914,
          "velocity": 0.7874015748031497,
          "duration": 0.1363637499999868
        },
        {
          "name": "A#1",
          "midi": 34,
          "time": 155.72740249999913,
          "velocity": 0.7874015748031497,
          "duration": 0.1363637499999868
        },
        {
          "name": "B1",
          "midi": 35,
          "time": 155.86376624999912,
          "velocity": 0.7874015748031497,
          "duration": 0.1363637499999868
        },
        {
          "name": "E2",
          "midi": 40,
          "time": 156.0001299999991,
          "velocity": 0.7874015748031497,
          "duration": 0.1363637499999868
        },
        {
          "name": "A1",
          "midi": 33,
          "time": 156.27285749999908,
          "velocity": 1,
          "duration": 0.568182291666659
        },
        {
          "name": "E1",
          "midi": 28,
          "time": 157.09103999999908,
          "velocity": 0.7874015748031497,
          "duration": 0.1363637499999868
        },
        {
          "name": "G1",
          "midi": 31,
          "time": 157.22740374999907,
          "velocity": 0.7874015748031497,
          "duration": 0.1363637499999868
        },
        {
          "name": "G#1",
          "midi": 32,
          "time": 157.36376749999906,
          "velocity": 0.7874015748031497,
          "duration": 0.1363637499999868
        },
        {
          "name": "E2",
          "midi": 40,
          "time": 157.50013124999904,
          "velocity": 0.7874015748031497,
          "duration": 0.1363637499999868
        },
        {
          "name": "A1",
          "midi": 33,
          "time": 157.77285874999902,
          "velocity": 0.7874015748031497,
          "duration": 0.1363637499999868
        },
        {
          "name": "A#1",
          "midi": 34,
          "time": 157.909222499999,
          "velocity": 0.7874015748031497,
          "duration": 0.1363637499999868
        },
        {
          "name": "B1",
          "midi": 35,
          "time": 158.045586249999,
          "velocity": 0.7874015748031497,
          "duration": 0.1363637499999868
        },
        {
          "name": "E2",
          "midi": 40,
          "time": 158.18194999999898,
          "velocity": 0.7874015748031497,
          "duration": 0.1363637499999868
        },
        {
          "name": "E1",
          "midi": 28,
          "time": 158.45467749999895,
          "velocity": 0.7874015748031497,
          "duration": 0.272727500000002
        },
        {
          "name": "E1",
          "midi": 28,
          "time": 159.27285999999896,
          "velocity": 0.7874015748031497,
          "duration": 0.1363637499999868
        },
        {
          "name": "G1",
          "midi": 31,
          "time": 159.40922374999894,
          "velocity": 0.7874015748031497,
          "duration": 0.1363637499999868
        },
        {
          "name": "G#1",
          "midi": 32,
          "time": 159.54558749999893,
          "velocity": 0.7874015748031497,
          "duration": 0.1363637499999868
        },
        {
          "name": "E2",
          "midi": 40,
          "time": 159.68195124999892,
          "velocity": 0.7874015748031497,
          "duration": 0.1363637499999868
        },
        {
          "name": "A1",
          "midi": 33,
          "time": 159.9546787499989,
          "velocity": 0.7874015748031497,
          "duration": 0.1363637499999868
        },
        {
          "name": "A#1",
          "midi": 34,
          "time": 160.09104249999888,
          "velocity": 0.7874015748031497,
          "duration": 0.1363637499999868
        },
        {
          "name": "B1",
          "midi": 35,
          "time": 160.22740624999886,
          "velocity": 0.7874015748031497,
          "duration": 0.1363637499999868
        },
        {
          "name": "E2",
          "midi": 40,
          "time": 160.36376999999885,
          "velocity": 0.7874015748031497,
          "duration": 0.1363637499999868
        },
        {
          "name": "A1",
          "midi": 33,
          "time": 160.63649749999882,
          "velocity": 1,
          "duration": 0.568182291666659
        },
        {
          "name": "E1",
          "midi": 28,
          "time": 161.45467999999883,
          "velocity": 0.7874015748031497,
          "duration": 0.1363637499999868
        },
        {
          "name": "G1",
          "midi": 31,
          "time": 161.59104374999882,
          "velocity": 0.7874015748031497,
          "duration": 0.1363637499999868
        },
        {
          "name": "G#1",
          "midi": 32,
          "time": 161.7274074999988,
          "velocity": 0.7874015748031497,
          "duration": 0.1363637499999868
        },
        {
          "name": "E2",
          "midi": 40,
          "time": 161.8637712499988,
          "velocity": 0.7874015748031497,
          "duration": 0.1363637499999868
        },
        {
          "name": "A1",
          "midi": 33,
          "time": 162.13649874999876,
          "velocity": 0.7874015748031497,
          "duration": 0.1363637499999868
        },
        {
          "name": "A#1",
          "midi": 34,
          "time": 162.27286249999875,
          "velocity": 0.7874015748031497,
          "duration": 0.1363637499999868
        },
        {
          "name": "B1",
          "midi": 35,
          "time": 162.40922624999874,
          "velocity": 0.7874015748031497,
          "duration": 0.1363637499999868
        },
        {
          "name": "E2",
          "midi": 40,
          "time": 162.54558999999873,
          "velocity": 0.7874015748031497,
          "duration": 0.1363637499999868
        },
        {
          "name": "E1",
          "midi": 28,
          "time": 162.8183174999987,
          "velocity": 0.7874015748031497,
          "duration": 0.272727500000002
        },
        {
          "name": "E1",
          "midi": 28,
          "time": 163.6364999999987,
          "velocity": 0.7874015748031497,
          "duration": 0.1363637499999868
        },
        {
          "name": "G1",
          "midi": 31,
          "time": 163.7728637499987,
          "velocity": 0.7874015748031497,
          "duration": 0.1363637499999868
        },
        {
          "name": "G#1",
          "midi": 32,
          "time": 163.90922749999868,
          "velocity": 0.7874015748031497,
          "duration": 0.1363637499999868
        },
        {
          "name": "E2",
          "midi": 40,
          "time": 164.04559124999867,
          "velocity": 0.7874015748031497,
          "duration": 0.1363637499999868
        },
        {
          "name": "A1",
          "midi": 33,
          "time": 164.31831874999864,
          "velocity": 0.7874015748031497,
          "duration": 0.1363637499999868
        },
        {
          "name": "A#1",
          "midi": 34,
          "time": 164.45468249999863,
          "velocity": 0.7874015748031497,
          "duration": 0.1363637499999868
        },
        {
          "name": "B1",
          "midi": 35,
          "time": 164.5910462499986,
          "velocity": 0.7874015748031497,
          "duration": 0.1363637499999868
        },
        {
          "name": "E2",
          "midi": 40,
          "time": 164.7274099999986,
          "velocity": 0.7874015748031497,
          "duration": 0.1363637499999868
        },
        {
          "name": "A1",
          "midi": 33,
          "time": 165.00013749999857,
          "velocity": 1,
          "duration": 0.568182291666659
        },
        {
          "name": "E1",
          "midi": 28,
          "time": 165.81831999999858,
          "velocity": 0.7874015748031497,
          "duration": 0.1363637499999868
        },
        {
          "name": "G1",
          "midi": 31,
          "time": 165.95468374999857,
          "velocity": 0.7874015748031497,
          "duration": 0.1363637499999868
        },
        {
          "name": "G#1",
          "midi": 32,
          "time": 166.09104749999855,
          "velocity": 0.7874015748031497,
          "duration": 0.1363637499999868
        },
        {
          "name": "E2",
          "midi": 40,
          "time": 166.22741124999854,
          "velocity": 0.7874015748031497,
          "duration": 0.1363637499999868
        },
        {
          "name": "A1",
          "midi": 33,
          "time": 166.5001387499985,
          "velocity": 0.7874015748031497,
          "duration": 0.1363637499999868
        },
        {
          "name": "A#1",
          "midi": 34,
          "time": 166.6365024999985,
          "velocity": 0.7874015748031497,
          "duration": 0.1363637499999868
        },
        {
          "name": "B1",
          "midi": 35,
          "time": 166.7728662499985,
          "velocity": 0.7874015748031497,
          "duration": 0.1363637499999868
        },
        {
          "name": "E2",
          "midi": 40,
          "time": 166.90922999999847,
          "velocity": 0.7874015748031497,
          "duration": 0.1363637499999868
        },
        {
          "name": "E1",
          "midi": 28,
          "time": 167.18195749999845,
          "velocity": 0.7874015748031497,
          "duration": 0.272727500000002
        },
        {
          "name": "E1",
          "midi": 28,
          "time": 168.00013999999845,
          "velocity": 0.7874015748031497,
          "duration": 0.1363637499999868
        },
        {
          "name": "G1",
          "midi": 31,
          "time": 168.13650374999844,
          "velocity": 0.7874015748031497,
          "duration": 0.1363637499999868
        },
        {
          "name": "G#1",
          "midi": 32,
          "time": 168.27286749999843,
          "velocity": 0.7874015748031497,
          "duration": 0.1363637499999868
        },
        {
          "name": "E2",
          "midi": 40,
          "time": 168.4092312499984,
          "velocity": 0.7874015748031497,
          "duration": 0.1363637499999868
        },
        {
          "name": "A1",
          "midi": 33,
          "time": 168.6819587499984,
          "velocity": 0.7874015748031497,
          "duration": 0.1363637499999868
        },
        {
          "name": "A#1",
          "midi": 34,
          "time": 168.81832249999837,
          "velocity": 0.7874015748031497,
          "duration": 0.1363637499999868
        },
        {
          "name": "B1",
          "midi": 35,
          "time": 168.95468624999836,
          "velocity": 0.7874015748031497,
          "duration": 0.1363637499999868
        },
        {
          "name": "E2",
          "midi": 40,
          "time": 169.09104999999835,
          "velocity": 0.7874015748031497,
          "duration": 0.1363637499999868
        },
        {
          "name": "A1",
          "midi": 33,
          "time": 169.36377749999832,
          "velocity": 1,
          "duration": 0.568182291666659
        },
        {
          "name": "E1",
          "midi": 28,
          "time": 170.18195999999833,
          "velocity": 0.7874015748031497,
          "duration": 0.1363637499999868
        },
        {
          "name": "G1",
          "midi": 31,
          "time": 170.3183237499983,
          "velocity": 0.7874015748031497,
          "duration": 0.1363637499999868
        },
        {
          "name": "G#1",
          "midi": 32,
          "time": 170.4546874999983,
          "velocity": 0.7874015748031497,
          "duration": 0.1363637499999868
        },
        {
          "name": "E2",
          "midi": 40,
          "time": 170.5910512499983,
          "velocity": 0.7874015748031497,
          "duration": 0.1363637499999868
        },
        {
          "name": "A1",
          "midi": 33,
          "time": 170.86377874999826,
          "velocity": 0.7874015748031497,
          "duration": 0.1363637499999868
        },
        {
          "name": "A#1",
          "midi": 34,
          "time": 171.00014249999825,
          "velocity": 0.7874015748031497,
          "duration": 0.1363637499999868
        },
        {
          "name": "B1",
          "midi": 35,
          "time": 171.13650624999823,
          "velocity": 0.7874015748031497,
          "duration": 0.1363637499999868
        },
        {
          "name": "E2",
          "midi": 40,
          "time": 171.27286999999822,
          "velocity": 0.7874015748031497,
          "duration": 0.1363637499999868
        },
        {
          "name": "E1",
          "midi": 28,
          "time": 171.5455974999982,
          "velocity": 0.7874015748031497,
          "duration": 0.272727500000002
        },
        {
          "name": "E1",
          "midi": 28,
          "time": 172.3637799999982,
          "velocity": 0.7874015748031497,
          "duration": 0.1363637499999868
        },
        {
          "name": "G1",
          "midi": 31,
          "time": 172.5001437499982,
          "velocity": 0.7874015748031497,
          "duration": 0.1363637499999868
        },
        {
          "name": "G#1",
          "midi": 32,
          "time": 172.63650749999817,
          "velocity": 0.7874015748031497,
          "duration": 0.1363637499999868
        },
        {
          "name": "E2",
          "midi": 40,
          "time": 172.77287124999816,
          "velocity": 0.7874015748031497,
          "duration": 0.1363637499999868
        },
        {
          "name": "A1",
          "midi": 33,
          "time": 173.04559874999813,
          "velocity": 0.7874015748031497,
          "duration": 0.1363637499999868
        },
        {
          "name": "A#1",
          "midi": 34,
          "time": 173.18196249999812,
          "velocity": 0.7874015748031497,
          "duration": 0.1363637499999868
        },
        {
          "name": "B1",
          "midi": 35,
          "time": 173.3183262499981,
          "velocity": 0.7874015748031497,
          "duration": 0.1363637499999868
        },
        {
          "name": "E2",
          "midi": 40,
          "time": 173.4546899999981,
          "velocity": 0.7874015748031497,
          "duration": 0.1363637499999868
        },
        {
          "name": "A1",
          "midi": 33,
          "time": 173.72741749999807,
          "velocity": 1,
          "duration": 0.568182291666659
        },
        {
          "name": "E1",
          "midi": 28,
          "time": 174.54559999999807,
          "velocity": 0.7874015748031497,
          "duration": 0.1363637499999868
        },
        {
          "name": "G1",
          "midi": 31,
          "time": 174.68196374999806,
          "velocity": 0.7874015748031497,
          "duration": 0.1363637499999868
        },
        {
          "name": "G#1",
          "midi": 32,
          "time": 174.81832749999805,
          "velocity": 0.7874015748031497,
          "duration": 0.1363637499999868
        },
        {
          "name": "E2",
          "midi": 40,
          "time": 174.95469124999804,
          "velocity": 0.7874015748031497,
          "duration": 0.1363637499999868
        },
        {
          "name": "A1",
          "midi": 33,
          "time": 175.227418749998,
          "velocity": 0.7874015748031497,
          "duration": 0.1363637499999868
        },
        {
          "name": "A#1",
          "midi": 34,
          "time": 175.363782499998,
          "velocity": 0.7874015748031497,
          "duration": 0.1363637499999868
        },
        {
          "name": "B1",
          "midi": 35,
          "time": 175.50014624999798,
          "velocity": 0.7874015748031497,
          "duration": 0.1363637499999868
        },
        {
          "name": "E2",
          "midi": 40,
          "time": 175.63650999999797,
          "velocity": 0.7874015748031497,
          "duration": 0.1363637499999868
        },
        {
          "name": "E1",
          "midi": 28,
          "time": 175.90923749999794,
          "velocity": 0.7874015748031497,
          "duration": 0.272727500000002
        },
        {
          "name": "E1",
          "midi": 28,
          "time": 176.72741999999795,
          "velocity": 0.7874015748031497,
          "duration": 0.1363637499999868
        },
        {
          "name": "G1",
          "midi": 31,
          "time": 176.86378374999794,
          "velocity": 0.7874015748031497,
          "duration": 0.1363637499999868
        },
        {
          "name": "G#1",
          "midi": 32,
          "time": 177.00014749999792,
          "velocity": 0.7874015748031497,
          "duration": 0.1363637499999868
        },
        {
          "name": "E2",
          "midi": 40,
          "time": 177.1365112499979,
          "velocity": 0.7874015748031497,
          "duration": 0.1363637499999868
        },
        {
          "name": "A1",
          "midi": 33,
          "time": 177.40923874999788,
          "velocity": 0.7874015748031497,
          "duration": 0.1363637499999868
        },
        {
          "name": "A#1",
          "midi": 34,
          "time": 177.54560249999787,
          "velocity": 0.7874015748031497,
          "duration": 0.1363637499999868
        },
        {
          "name": "B1",
          "midi": 35,
          "time": 177.68196624999786,
          "velocity": 0.7874015748031497,
          "duration": 0.1363637499999868
        },
        {
          "name": "E2",
          "midi": 40,
          "time": 177.81832999999784,
          "velocity": 0.7874015748031497,
          "duration": 0.1363637499999868
        },
        {
          "name": "A1",
          "midi": 33,
          "time": 178.09105749999782,
          "velocity": 1,
          "duration": 0.568182291666659
        },
        {
          "name": "E1",
          "midi": 28,
          "time": 178.90923999999782,
          "velocity": 0.7874015748031497,
          "duration": 0.1363637499999868
        },
        {
          "name": "G1",
          "midi": 31,
          "time": 179.0456037499978,
          "velocity": 0.7874015748031497,
          "duration": 0.1363637499999868
        },
        {
          "name": "G#1",
          "midi": 32,
          "time": 179.1819674999978,
          "velocity": 0.7874015748031497,
          "duration": 0.1363637499999868
        },
        {
          "name": "E2",
          "midi": 40,
          "time": 179.31833124999778,
          "velocity": 0.7874015748031497,
          "duration": 0.1363637499999868
        },
        {
          "name": "A1",
          "midi": 33,
          "time": 179.59105874999776,
          "velocity": 0.7874015748031497,
          "duration": 0.1363637499999868
        },
        {
          "name": "A#1",
          "midi": 34,
          "time": 179.72742249999774,
          "velocity": 0.7874015748031497,
          "duration": 0.1363637499999868
        },
        {
          "name": "B1",
          "midi": 35,
          "time": 179.86378624999773,
          "velocity": 0.7874015748031497,
          "duration": 0.1363637499999868
        },
        {
          "name": "E2",
          "midi": 40,
          "time": 180.00014999999772,
          "velocity": 0.7874015748031497,
          "duration": 0.1363637499999868
        },
        {
          "name": "E1",
          "midi": 28,
          "time": 180.2728774999977,
          "velocity": 0.7874015748031497,
          "duration": 0.272727500000002
        },
        {
          "name": "E1",
          "midi": 28,
          "time": 181.0910599999977,
          "velocity": 0.7874015748031497,
          "duration": 0.1363637499999868
        },
        {
          "name": "G1",
          "midi": 31,
          "time": 181.22742374999768,
          "velocity": 0.7874015748031497,
          "duration": 0.1363637499999868
        },
        {
          "name": "G#1",
          "midi": 32,
          "time": 181.36378749999767,
          "velocity": 0.7874015748031497,
          "duration": 0.1363637499999868
        },
        {
          "name": "E2",
          "midi": 40,
          "time": 181.50015124999766,
          "velocity": 0.7874015748031497,
          "duration": 0.1363637499999868
        },
        {
          "name": "A1",
          "midi": 33,
          "time": 181.77287874999763,
          "velocity": 0.7874015748031497,
          "duration": 0.1363637499999868
        },
        {
          "name": "A#1",
          "midi": 34,
          "time": 181.90924249999762,
          "velocity": 0.7874015748031497,
          "duration": 0.1363637499999868
        },
        {
          "name": "B1",
          "midi": 35,
          "time": 182.0456062499976,
          "velocity": 0.7874015748031497,
          "duration": 0.1363637499999868
        },
        {
          "name": "E2",
          "midi": 40,
          "time": 182.1819699999976,
          "velocity": 0.7874015748031497,
          "duration": 0.1363637499999868
        },
        {
          "name": "A1",
          "midi": 33,
          "time": 182.45469749999756,
          "velocity": 1,
          "duration": 0.568182291666659
        },
        {
          "name": "E1",
          "midi": 28,
          "time": 183.27287999999757,
          "velocity": 0.7874015748031497,
          "duration": 0.1363637499999868
        },
        {
          "name": "G1",
          "midi": 31,
          "time": 183.40924374999756,
          "velocity": 0.7874015748031497,
          "duration": 0.1363637499999868
        },
        {
          "name": "G#1",
          "midi": 32,
          "time": 183.54560749999754,
          "velocity": 0.7874015748031497,
          "duration": 0.1363637499999868
        },
        {
          "name": "E2",
          "midi": 40,
          "time": 183.68197124999753,
          "velocity": 0.7874015748031497,
          "duration": 0.1363637499999868
        },
        {
          "name": "A1",
          "midi": 33,
          "time": 183.9546987499975,
          "velocity": 0.7874015748031497,
          "duration": 0.1363637499999868
        },
        {
          "name": "A#1",
          "midi": 34,
          "time": 184.0910624999975,
          "velocity": 0.7874015748031497,
          "duration": 0.1363637499999868
        },
        {
          "name": "B1",
          "midi": 35,
          "time": 184.22742624999748,
          "velocity": 0.7874015748031497,
          "duration": 0.1363637499999868
        },
        {
          "name": "E2",
          "midi": 40,
          "time": 184.36378999999746,
          "velocity": 0.7874015748031497,
          "duration": 0.1363637499999868
        },
        {
          "name": "E1",
          "midi": 28,
          "time": 184.63651749999744,
          "velocity": 0.7874015748031497,
          "duration": 0.272727500000002
        },
        {
          "name": "E1",
          "midi": 28,
          "time": 185.45469999999744,
          "velocity": 0.7874015748031497,
          "duration": 0.1363637499999868
        },
        {
          "name": "G1",
          "midi": 31,
          "time": 185.59106374999743,
          "velocity": 0.7874015748031497,
          "duration": 0.1363637499999868
        },
        {
          "name": "G#1",
          "midi": 32,
          "time": 185.72742749999742,
          "velocity": 0.7874015748031497,
          "duration": 0.1363637499999868
        },
        {
          "name": "E2",
          "midi": 40,
          "time": 185.8637912499974,
          "velocity": 0.7874015748031497,
          "duration": 0.1363637499999868
        },
        {
          "name": "A1",
          "midi": 33,
          "time": 186.13651874999738,
          "velocity": 0.7874015748031497,
          "duration": 0.1363637499999868
        },
        {
          "name": "A#1",
          "midi": 34,
          "time": 186.27288249999737,
          "velocity": 0.7874015748031497,
          "duration": 0.1363637499999868
        },
        {
          "name": "B1",
          "midi": 35,
          "time": 186.40924624999735,
          "velocity": 0.7874015748031497,
          "duration": 0.1363637499999868
        },
        {
          "name": "E2",
          "midi": 40,
          "time": 186.54560999999734,
          "velocity": 0.7874015748031497,
          "duration": 0.1363637499999868
        },
        {
          "name": "A1",
          "midi": 33,
          "time": 186.8183374999973,
          "velocity": 1,
          "duration": 0.568182291666659
        },
        {
          "name": "E1",
          "midi": 28,
          "time": 187.63651999999732,
          "velocity": 0.7874015748031497,
          "duration": 0.1363637499999868
        },
        {
          "name": "G1",
          "midi": 31,
          "time": 187.7728837499973,
          "velocity": 0.7874015748031497,
          "duration": 0.1363637499999868
        },
        {
          "name": "G#1",
          "midi": 32,
          "time": 187.9092474999973,
          "velocity": 0.7874015748031497,
          "duration": 0.1363637499999868
        },
        {
          "name": "E2",
          "midi": 40,
          "time": 188.04561124999728,
          "velocity": 0.7874015748031497,
          "duration": 0.1363637499999868
        },
        {
          "name": "A1",
          "midi": 33,
          "time": 188.31833874999725,
          "velocity": 0.7874015748031497,
          "duration": 0.1363637499999868
        },
        {
          "name": "A#1",
          "midi": 34,
          "time": 188.45470249999724,
          "velocity": 0.7874015748031497,
          "duration": 0.1363637499999868
        },
        {
          "name": "B1",
          "midi": 35,
          "time": 188.59106624999723,
          "velocity": 0.7874015748031497,
          "duration": 0.1363637499999868
        },
        {
          "name": "E2",
          "midi": 40,
          "time": 188.7274299999972,
          "velocity": 0.7874015748031497,
          "duration": 0.1363637499999868
        },
        {
          "name": "E1",
          "midi": 28,
          "time": 189.0001574999972,
          "velocity": 0.7874015748031497,
          "duration": 0.272727500000002
        },
        {
          "name": "E1",
          "midi": 28,
          "time": 189.8183399999972,
          "velocity": 0.7874015748031497,
          "duration": 0.1363637499999868
        },
        {
          "name": "G1",
          "midi": 31,
          "time": 189.95470374999718,
          "velocity": 0.7874015748031497,
          "duration": 0.1363637499999868
        },
        {
          "name": "G#1",
          "midi": 32,
          "time": 190.09106749999717,
          "velocity": 0.7874015748031497,
          "duration": 0.1363637499999868
        },
        {
          "name": "E2",
          "midi": 40,
          "time": 190.22743124999715,
          "velocity": 0.7874015748031497,
          "duration": 0.1363637499999868
        },
        {
          "name": "A1",
          "midi": 33,
          "time": 190.50015874999713,
          "velocity": 0.7874015748031497,
          "duration": 0.1363637499999868
        },
        {
          "name": "A#1",
          "midi": 34,
          "time": 190.6365224999971,
          "velocity": 0.7874015748031497,
          "duration": 0.1363637499999868
        },
        {
          "name": "B1",
          "midi": 35,
          "time": 190.7728862499971,
          "velocity": 0.7874015748031497,
          "duration": 0.1363637499999868
        },
        {
          "name": "E2",
          "midi": 40,
          "time": 190.9092499999971,
          "velocity": 0.7874015748031497,
          "duration": 0.1363637499999868
        },
        {
          "name": "A1",
          "midi": 33,
          "time": 191.18197749999706,
          "velocity": 1,
          "duration": 0.568182291666659
        },
        {
          "name": "E1",
          "midi": 28,
          "time": 192.00015999999707,
          "velocity": 0.7874015748031497,
          "duration": 0.1363637499999868
        },
        {
          "name": "G1",
          "midi": 31,
          "time": 192.13652374999705,
          "velocity": 0.7874015748031497,
          "duration": 0.1363637499999868
        },
        {
          "name": "G#1",
          "midi": 32,
          "time": 192.27288749999704,
          "velocity": 0.7874015748031497,
          "duration": 0.1363637499999868
        },
        {
          "name": "E2",
          "midi": 40,
          "time": 192.40925124999703,
          "velocity": 0.7874015748031497,
          "duration": 0.1363637499999868
        },
        {
          "name": "A1",
          "midi": 33,
          "time": 192.681978749997,
          "velocity": 0.7874015748031497,
          "duration": 0.1363637499999868
        },
        {
          "name": "A#1",
          "midi": 34,
          "time": 192.818342499997,
          "velocity": 0.7874015748031497,
          "duration": 0.1363637499999868
        },
        {
          "name": "B1",
          "midi": 35,
          "time": 192.95470624999697,
          "velocity": 0.7874015748031497,
          "duration": 0.1363637499999868
        },
        {
          "name": "E2",
          "midi": 40,
          "time": 193.09106999999696,
          "velocity": 0.7874015748031497,
          "duration": 0.1363637499999868
        },
        {
          "name": "E1",
          "midi": 28,
          "time": 193.36379749999693,
          "velocity": 0.7874015748031497,
          "duration": 0.272727500000002
        },
        {
          "name": "E1",
          "midi": 28,
          "time": 194.18197999999694,
          "velocity": 0.7874015748031497,
          "duration": 0.1363637499999868
        },
        {
          "name": "G1",
          "midi": 31,
          "time": 194.31834374999693,
          "velocity": 0.7874015748031497,
          "duration": 0.1363637499999868
        },
        {
          "name": "G#1",
          "midi": 32,
          "time": 194.4547074999969,
          "velocity": 0.7874015748031497,
          "duration": 0.1363637499999868
        },
        {
          "name": "E2",
          "midi": 40,
          "time": 194.5910712499969,
          "velocity": 0.7874015748031497,
          "duration": 0.1363637499999868
        },
        {
          "name": "A1",
          "midi": 33,
          "time": 194.86379874999687,
          "velocity": 0.7874015748031497,
          "duration": 0.1363637499999868
        },
        {
          "name": "A#1",
          "midi": 34,
          "time": 195.00016249999686,
          "velocity": 0.7874015748031497,
          "duration": 0.1363637499999868
        },
        {
          "name": "B1",
          "midi": 35,
          "time": 195.13652624999685,
          "velocity": 0.7874015748031497,
          "duration": 0.1363637499999868
        },
        {
          "name": "E2",
          "midi": 40,
          "time": 195.27288999999683,
          "velocity": 0.7874015748031497,
          "duration": 0.1363637499999868
        },
        {
          "name": "A1",
          "midi": 33,
          "time": 195.5456174999968,
          "velocity": 1,
          "duration": 0.568182291666659
        }
      ],
      "controlChanges": {
        "7": [
          {
            "number": 7,
            "time": 0,
            "value": 1
          }
        ],
        "32": [
          {
            "number": 32,
            "time": 12.2727375,
            "value": 0.9448818897637795
          }
        ]
      },
      "id": 6,
      "name": "Pick Bass",
      "instrumentNumber": 34,
      "instrument": "electric bass (pick)",
      "instrumentFamily": "bass",
      "channelNumber": 0,
      "isPercussion": false
    }
  ]
}