<svg class="helpIcon" x="0px" y="0px" width="24px" height="24px" viewBox="0 0 24 24"  xmlns="http://www.w3.org/2000/svg">
  <g>
    <path stroke="none" fill="#aaa" d="M11.766,6.688c-2.5,0-3.219,2.188-3.219,2.188l1.411,0.854
      c0,0,0.298-0.791,0.901-1.229c0.516-0.375,1.625-0.625,2.219,0.125c0.701,0.885-0.17,1.587-1.078,2.719
      C11.047,12.531,11,15,11,15h1.969c0,0,0.135-2.318,1.041-3.381c0.603-0.707,1.443-1.338,1.443-2.494S14.266,6.688,11.766,6.688z" />
    <rect id="bottom" x="11" y="16" style="fill-rule:evenodd;clip-rule:evenodd;" width="2" height="2" stroke="none" fill="#aaa" />
    <circle cx="12" cy="12" r="10" fill="none" stroke="#aaa" style="fill:none;stroke-width:2;stroke-linecap:round" />
  </g>
</svg>