{
  "header": {
    "PPQ": 120,
    "bpm": 69.00001725000432,
    "timeSignature": [
      6,
      8
    ],
    "name": " "
  },
  "startTime": 0,
  "duration": 391.95642374999863,
  "tracks": [
    {
      "startTime": 0,
      "duration": 0,
      "length": 0,
      "notes": [],
      "controlChanges": {},
      "id": 0
    },
    {
      "startTime": 62.181143875000004,
      "duration": 354.7897663749987,
      "length": 486,
      "notes": [
        {
          "name": "E4",
          "midi": 64,
          "time": 62.181143875000004,
          "velocity": 1,
          "duration": 0.4347824999999972
        },
        {
          "name": "E4",
          "midi": 64,
          "time": 62.615926375,
          "velocity": 1,
          "duration": 0.6521737500000029
        },
        {
          "name": "E4",
          "midi": 64,
          "time": 63.268100125000004,
          "velocity": 1,
          "duration": 0.2173912499999986
        },
        {
          "name": "E4",
          "midi": 64,
          "time": 63.485491375,
          "velocity": 1,
          "duration": 0.2173912499999986
        },
        {
          "name": "E4",
          "midi": 64,
          "time": 63.702882625,
          "velocity": 1,
          "duration": 0.2173912499999986
        },
        {
          "name": "F#4",
          "midi": 66,
          "time": 63.920273875,
          "velocity": 1,
          "duration": 0.2173912499999986
        },
        {
          "name": "E4",
          "midi": 64,
          "time": 64.137665125,
          "velocity": 1,
          "duration": 0.2173912500000057
        },
        {
          "name": "E4",
          "midi": 64,
          "time": 64.355056375,
          "velocity": 1,
          "duration": 2.1739125
        },
        {
          "name": "D4",
          "midi": 62,
          "time": 67.398533875,
          "velocity": 1,
          "duration": 0.2173912500000057
        },
        {
          "name": "E4",
          "midi": 64,
          "time": 67.615925125,
          "velocity": 1,
          "duration": 0.2173912500000057
        },
        {
          "name": "E4",
          "midi": 64,
          "time": 67.83331637500001,
          "velocity": 1,
          "duration": 0.4347824999999972
        },
        {
          "name": "E4",
          "midi": 64,
          "time": 68.268098875,
          "velocity": 1,
          "duration": 0.4347824999999972
        },
        {
          "name": "E4",
          "midi": 64,
          "time": 68.702881375,
          "velocity": 1,
          "duration": 0.2173912500000057
        },
        {
          "name": "D4",
          "midi": 62,
          "time": 68.92027262500001,
          "velocity": 1,
          "duration": 0.2173912500000057
        },
        {
          "name": "D4",
          "midi": 62,
          "time": 69.13766387500002,
          "velocity": 1,
          "duration": 0.4347824999999972
        },
        {
          "name": "D4",
          "midi": 62,
          "time": 69.57244637500001,
          "velocity": 1,
          "duration": 0.2173912500000057
        },
        {
          "name": "D4",
          "midi": 62,
          "time": 69.78983762500002,
          "velocity": 1,
          "duration": 0.2173912500000057
        },
        {
          "name": "E4",
          "midi": 64,
          "time": 70.00722887500002,
          "velocity": 1,
          "duration": 1.739130000000003
        },
        {
          "name": "F#4",
          "midi": 66,
          "time": 72.83331512500003,
          "velocity": 1,
          "duration": 0.2173912500000057
        },
        {
          "name": "G4",
          "midi": 67,
          "time": 73.05070637500003,
          "velocity": 1,
          "duration": 0.2173912500000057
        },
        {
          "name": "G4",
          "midi": 67,
          "time": 73.26809762500004,
          "velocity": 1,
          "duration": 0.4347824999999972
        },
        {
          "name": "G4",
          "midi": 67,
          "time": 73.70288012500004,
          "velocity": 1,
          "duration": 0.4347824999999972
        },
        {
          "name": "D4",
          "midi": 62,
          "time": 74.13766262500003,
          "velocity": 1,
          "duration": 0.2173912500000057
        },
        {
          "name": "D4",
          "midi": 62,
          "time": 74.35505387500004,
          "velocity": 1,
          "duration": 0.4347824999999972
        },
        {
          "name": "D4",
          "midi": 62,
          "time": 74.78983637500004,
          "velocity": 1,
          "duration": 0.2173912500000057
        },
        {
          "name": "D4",
          "midi": 62,
          "time": 75.00722762500004,
          "velocity": 1,
          "duration": 0.2173912500000057
        },
        {
          "name": "E4",
          "midi": 64,
          "time": 75.22461887500005,
          "velocity": 1,
          "duration": 1.739130000000003
        },
        {
          "name": "G4",
          "midi": 67,
          "time": 77.83331387500004,
          "velocity": 1,
          "duration": 0.4347824999999972
        },
        {
          "name": "F#4",
          "midi": 66,
          "time": 78.26809637500004,
          "velocity": 1,
          "duration": 0.4347824999999972
        },
        {
          "name": "F#4",
          "midi": 66,
          "time": 78.70287887500004,
          "velocity": 1,
          "duration": 0.2173912500000057
        },
        {
          "name": "F#4",
          "midi": 66,
          "time": 78.92027012500004,
          "velocity": 1,
          "duration": 0.2173912500000057
        },
        {
          "name": "G4",
          "midi": 67,
          "time": 79.13766137500005,
          "velocity": 1,
          "duration": 0.4347824999999972
        },
        {
          "name": "F#4",
          "midi": 66,
          "time": 79.57244387500005,
          "velocity": 1,
          "duration": 0.2173912500000057
        },
        {
          "name": "E4",
          "midi": 64,
          "time": 79.78983512500005,
          "velocity": 1,
          "duration": 2.391303750000006
        },
        {
          "name": "D4",
          "midi": 62,
          "time": 85.62316700000005,
          "velocity": 0.5905511811023622,
          "duration": 0.03623187499999858
        },
        {
          "name": "E4",
          "midi": 64,
          "time": 85.65939887500005,
          "velocity": 1,
          "duration": 0.2173912500000057
        },
        {
          "name": "E4",
          "midi": 64,
          "time": 85.87679012500006,
          "velocity": 1,
          "duration": 0.2173912500000057
        },
        {
          "name": "E4",
          "midi": 64,
          "time": 86.09418137500006,
          "velocity": 1,
          "duration": 0.4347824999999972
        },
        {
          "name": "E4",
          "midi": 64,
          "time": 86.52896387500006,
          "velocity": 1,
          "duration": 0.2173912500000057
        },
        {
          "name": "E4",
          "midi": 64,
          "time": 86.74635512500006,
          "velocity": 1,
          "duration": 0.6521737500000029
        },
        {
          "name": "F#4",
          "midi": 66,
          "time": 87.39852887500007,
          "velocity": 1,
          "duration": 0.4347824999999972
        },
        {
          "name": "G4",
          "midi": 67,
          "time": 87.83331137500006,
          "velocity": 1,
          "duration": 0.4347824999999972
        },
        {
          "name": "D4",
          "midi": 62,
          "time": 88.26809387500006,
          "velocity": 1,
          "duration": 0.2173912500000057
        },
        {
          "name": "E4",
          "midi": 64,
          "time": 88.48548512500007,
          "velocity": 1,
          "duration": 1.5217387499999973
        },
        {
          "name": "D4",
          "midi": 62,
          "time": 90.87678887500006,
          "velocity": 1,
          "duration": 0.2173912500000057
        },
        {
          "name": "E4",
          "midi": 64,
          "time": 91.09418012500007,
          "velocity": 1,
          "duration": 0.2173912500000057
        },
        {
          "name": "E4",
          "midi": 64,
          "time": 91.31157137500007,
          "velocity": 1,
          "duration": 0.6521737500000029
        },
        {
          "name": "E4",
          "midi": 64,
          "time": 91.96374512500007,
          "velocity": 1,
          "duration": 0.2173912500000057
        },
        {
          "name": "E4",
          "midi": 64,
          "time": 92.18113637500008,
          "velocity": 1,
          "duration": 0.2173912500000057
        },
        {
          "name": "B3",
          "midi": 59,
          "time": 92.39852762500009,
          "velocity": 1,
          "duration": 0.2173912500000057
        },
        {
          "name": "D4",
          "midi": 62,
          "time": 92.61591887500009,
          "velocity": 1,
          "duration": 0.4347824999999972
        },
        {
          "name": "D4",
          "midi": 62,
          "time": 93.05070137500009,
          "velocity": 1,
          "duration": 0.2173912500000057
        },
        {
          "name": "E4",
          "midi": 64,
          "time": 93.2680926250001,
          "velocity": 1,
          "duration": 1.9565212499999944
        },
        {
          "name": "A4",
          "midi": 69,
          "time": 95.65939637500009,
          "velocity": 1,
          "duration": 0.2173912500000057
        },
        {
          "name": "B4",
          "midi": 71,
          "time": 95.87678762500009,
          "velocity": 1,
          "duration": 0.2173912500000057
        },
        {
          "name": "A4",
          "midi": 69,
          "time": 96.0941788750001,
          "velocity": 1,
          "duration": 0.3985506249999986
        },
        {
          "name": "G4",
          "midi": 67,
          "time": 96.4927295000001,
          "velocity": 0.5905511811023622,
          "duration": 0.03623187499999858
        },
        {
          "name": "F#4",
          "midi": 66,
          "time": 96.5289613750001,
          "velocity": 1,
          "duration": 0.4347824999999972
        },
        {
          "name": "F#4",
          "midi": 66,
          "time": 96.96374387500009,
          "velocity": 1,
          "duration": 0.4347824999999972
        },
        {
          "name": "E4",
          "midi": 64,
          "time": 97.39852637500009,
          "velocity": 1,
          "duration": 0.4347824999999972
        },
        {
          "name": "F#4",
          "midi": 66,
          "time": 97.83330887500009,
          "velocity": 1,
          "duration": 0.4347824999999972
        },
        {
          "name": "G4",
          "midi": 67,
          "time": 98.26809137500008,
          "velocity": 1,
          "duration": 2.1739125
        },
        {
          "name": "B4",
          "midi": 71,
          "time": 101.31156887500008,
          "velocity": 0.5905511811023622,
          "duration": 0.4347824999999972
        },
        {
          "name": "G4",
          "midi": 67,
          "time": 101.31156887500008,
          "velocity": 1,
          "duration": 0.4347824999999972
        },
        {
          "name": "A4",
          "midi": 69,
          "time": 101.74635137500007,
          "velocity": 0.5905511811023622,
          "duration": 0.4347824999999972
        },
        {
          "name": "F#4",
          "midi": 66,
          "time": 101.74635137500007,
          "velocity": 1,
          "duration": 0.4347824999999972
        },
        {
          "name": "A4",
          "midi": 69,
          "time": 102.18113387500007,
          "velocity": 0.5905511811023622,
          "duration": 0.2173912500000057
        },
        {
          "name": "F#4",
          "midi": 66,
          "time": 102.18113387500007,
          "velocity": 1,
          "duration": 0.2173912500000057
        },
        {
          "name": "A4",
          "midi": 69,
          "time": 102.39852512500008,
          "velocity": 0.5905511811023622,
          "duration": 0.2173912500000057
        },
        {
          "name": "F#4",
          "midi": 66,
          "time": 102.39852512500008,
          "velocity": 1,
          "duration": 0.2173912500000057
        },
        {
          "name": "B4",
          "midi": 71,
          "time": 102.61591637500008,
          "velocity": 0.5905511811023622,
          "duration": 0.4347824999999972
        },
        {
          "name": "G4",
          "midi": 67,
          "time": 102.61591637500008,
          "velocity": 1,
          "duration": 0.4347824999999972
        },
        {
          "name": "A4",
          "midi": 69,
          "time": 103.05069887500008,
          "velocity": 0.5905511811023622,
          "duration": 0.2173912500000057
        },
        {
          "name": "F#4",
          "midi": 66,
          "time": 103.05069887500008,
          "velocity": 1,
          "duration": 0.2173912500000057
        },
        {
          "name": "G4",
          "midi": 67,
          "time": 103.26809012500009,
          "velocity": 0.5905511811023622,
          "duration": 2.391303750000006
        },
        {
          "name": "E4",
          "midi": 64,
          "time": 103.26809012500009,
          "velocity": 1,
          "duration": 2.391303750000006
        },
        {
          "name": "G4",
          "midi": 67,
          "time": 108.70287137500009,
          "velocity": 0.5905511811023622,
          "duration": 0.4347824999999972
        },
        {
          "name": "E4",
          "midi": 64,
          "time": 108.70287137500009,
          "velocity": 1,
          "duration": 0.4347824999999972
        },
        {
          "name": "G4",
          "midi": 67,
          "time": 109.13765387500008,
          "velocity": 0.5905511811023622,
          "duration": 0.4347824999999972
        },
        {
          "name": "E4",
          "midi": 64,
          "time": 109.13765387500008,
          "velocity": 1,
          "duration": 0.4347824999999972
        },
        {
          "name": "G4",
          "midi": 67,
          "time": 109.57243637500008,
          "velocity": 0.5905511811023622,
          "duration": 0.4347824999999972
        },
        {
          "name": "E4",
          "midi": 64,
          "time": 109.57243637500008,
          "velocity": 1,
          "duration": 0.4347824999999972
        },
        {
          "name": "G4",
          "midi": 67,
          "time": 110.22461012500008,
          "velocity": 0.5905511811023622,
          "duration": 0.2173912500000057
        },
        {
          "name": "E4",
          "midi": 64,
          "time": 110.22461012500008,
          "velocity": 1,
          "duration": 0.2173912500000057
        },
        {
          "name": "G4",
          "midi": 67,
          "time": 110.44200137500009,
          "velocity": 0.5905511811023622,
          "duration": 0.4347824999999972
        },
        {
          "name": "E4",
          "midi": 64,
          "time": 110.44200137500009,
          "velocity": 1,
          "duration": 0.4347824999999972
        },
        {
          "name": "A4",
          "midi": 69,
          "time": 110.87678387500009,
          "velocity": 0.5905511811023622,
          "duration": 0.4347824999999972
        },
        {
          "name": "F#4",
          "midi": 66,
          "time": 110.87678387500009,
          "velocity": 1,
          "duration": 0.4347824999999972
        },
        {
          "name": "B4",
          "midi": 71,
          "time": 111.31156637500008,
          "velocity": 0.5905511811023622,
          "duration": 0.2173912500000057
        },
        {
          "name": "G4",
          "midi": 67,
          "time": 111.31156637500008,
          "velocity": 1,
          "duration": 0.2173912500000057
        },
        {
          "name": "G4",
          "midi": 67,
          "time": 111.52895762500009,
          "velocity": 0.5905511811023622,
          "duration": 0.2173912500000057
        },
        {
          "name": "E4",
          "midi": 64,
          "time": 111.52895762500009,
          "velocity": 1,
          "duration": 0.2173912500000057
        },
        {
          "name": "G4",
          "midi": 67,
          "time": 111.7463488750001,
          "velocity": 0.5905511811023622,
          "duration": 1.739130000000003
        },
        {
          "name": "E4",
          "midi": 64,
          "time": 111.7463488750001,
          "velocity": 1,
          "duration": 1.739130000000003
        },
        {
          "name": "E5",
          "midi": 76,
          "time": 114.35504387500009,
          "velocity": 0.5905511811023622,
          "duration": 0.2173912500000057
        },
        {
          "name": "B4",
          "midi": 71,
          "time": 114.35504387500009,
          "velocity": 1,
          "duration": 0.2173912500000057
        },
        {
          "name": "B4",
          "midi": 71,
          "time": 114.5724351250001,
          "velocity": 0.5905511811023622,
          "duration": 0.2173912500000057
        },
        {
          "name": "G4",
          "midi": 67,
          "time": 114.5724351250001,
          "velocity": 1,
          "duration": 0.2173912500000057
        },
        {
          "name": "B4",
          "midi": 71,
          "time": 114.7898263750001,
          "velocity": 0.5905511811023622,
          "duration": 0.2173912500000057
        },
        {
          "name": "G4",
          "midi": 67,
          "time": 114.7898263750001,
          "velocity": 1,
          "duration": 0.2173912500000057
        },
        {
          "name": "C5",
          "midi": 72,
          "time": 115.00721762500011,
          "velocity": 0.5905511811023622,
          "duration": 0.2173912500000057
        },
        {
          "name": "A4",
          "midi": 69,
          "time": 115.00721762500011,
          "velocity": 1,
          "duration": 0.2173912500000057
        },
        {
          "name": "C5",
          "midi": 72,
          "time": 115.22460887500011,
          "velocity": 0.5905511811023622,
          "duration": 0.2173912500000057
        },
        {
          "name": "A4",
          "midi": 69,
          "time": 115.22460887500011,
          "velocity": 1,
          "duration": 0.2173912500000057
        },
        {
          "name": "A4",
          "midi": 69,
          "time": 115.44200012500012,
          "velocity": 0.5905511811023622,
          "duration": 0.6521737500000029
        },
        {
          "name": "E4",
          "midi": 64,
          "time": 115.44200012500012,
          "velocity": 1,
          "duration": 0.6521737500000029
        },
        {
          "name": "A4",
          "midi": 69,
          "time": 116.09417387500012,
          "velocity": 0.5905511811023622,
          "duration": 0.4347824999999972
        },
        {
          "name": "F#4",
          "midi": 66,
          "time": 116.09417387500012,
          "velocity": 1,
          "duration": 0.4347824999999972
        },
        {
          "name": "B4",
          "midi": 71,
          "time": 116.52895637500012,
          "velocity": 0.5905511811023622,
          "duration": 0.4347824999999972
        },
        {
          "name": "G4",
          "midi": 67,
          "time": 116.52895637500012,
          "velocity": 1,
          "duration": 0.4347824999999972
        },
        {
          "name": "B4",
          "midi": 71,
          "time": 116.96373887500012,
          "velocity": 0.5905511811023622,
          "duration": 0.6521737500000029
        },
        {
          "name": "G4",
          "midi": 67,
          "time": 116.96373887500012,
          "velocity": 1,
          "duration": 0.6521737500000029
        },
        {
          "name": "C5",
          "midi": 72,
          "time": 117.61591262500012,
          "velocity": 0.5905511811023622,
          "duration": 1.08695625
        },
        {
          "name": "A4",
          "midi": 69,
          "time": 119.57243387500012,
          "velocity": 0.5905511811023622,
          "duration": 0.2173912500000057
        },
        {
          "name": "F#4",
          "midi": 66,
          "time": 119.57243387500012,
          "velocity": 1,
          "duration": 0.2173912500000057
        },
        {
          "name": "B4",
          "midi": 71,
          "time": 119.78982512500012,
          "velocity": 0.5905511811023622,
          "duration": 0.2173912500000057
        },
        {
          "name": "G4",
          "midi": 67,
          "time": 119.78982512500012,
          "velocity": 1,
          "duration": 0.2173912500000057
        },
        {
          "name": "A4",
          "midi": 69,
          "time": 120.00721637500013,
          "velocity": 0.5905511811023622,
          "duration": 0.2173912500000057
        },
        {
          "name": "F#4",
          "midi": 66,
          "time": 120.00721637500013,
          "velocity": 1,
          "duration": 0.2173912500000057
        },
        {
          "name": "B4",
          "midi": 71,
          "time": 120.22460762500013,
          "velocity": 0.5905511811023622,
          "duration": 0.4347824999999972
        },
        {
          "name": "G4",
          "midi": 67,
          "time": 120.22460762500013,
          "velocity": 1,
          "duration": 0.4347824999999972
        },
        {
          "name": "A4",
          "midi": 69,
          "time": 120.65939012500013,
          "velocity": 0.5905511811023622,
          "duration": 0.4347824999999972
        },
        {
          "name": "F#4",
          "midi": 66,
          "time": 120.65939012500013,
          "velocity": 1,
          "duration": 0.4347824999999972
        },
        {
          "name": "G4",
          "midi": 67,
          "time": 121.09417262500013,
          "velocity": 0.5905511811023622,
          "duration": 0.2173912500000057
        },
        {
          "name": "E4",
          "midi": 64,
          "time": 121.09417262500013,
          "velocity": 1,
          "duration": 0.2173912500000057
        },
        {
          "name": "A4",
          "midi": 69,
          "time": 121.31156387500013,
          "velocity": 0.5905511811023622,
          "duration": 0.4347824999999972
        },
        {
          "name": "F#4",
          "midi": 66,
          "time": 121.31156387500013,
          "velocity": 1,
          "duration": 0.4347824999999972
        },
        {
          "name": "B4",
          "midi": 71,
          "time": 121.74634637500013,
          "velocity": 0.5905511811023622,
          "duration": 0.4347824999999972
        },
        {
          "name": "G4",
          "midi": 67,
          "time": 121.74634637500013,
          "velocity": 1,
          "duration": 0.4347824999999972
        },
        {
          "name": "G4",
          "midi": 67,
          "time": 122.18112887500013,
          "velocity": 0.5905511811023622,
          "duration": 1.739130000000003
        },
        {
          "name": "E4",
          "midi": 64,
          "time": 122.18112887500013,
          "velocity": 1,
          "duration": 1.739130000000003
        },
        {
          "name": "B4",
          "midi": 71,
          "time": 124.78982387500012,
          "velocity": 0.5905511811023622,
          "duration": 0.4347824999999972
        },
        {
          "name": "G4",
          "midi": 67,
          "time": 124.78982387500012,
          "velocity": 1,
          "duration": 0.4347824999999972
        },
        {
          "name": "A4",
          "midi": 69,
          "time": 125.22460637500012,
          "velocity": 0.5905511811023622,
          "duration": 0.4347824999999972
        },
        {
          "name": "F#4",
          "midi": 66,
          "time": 125.22460637500012,
          "velocity": 1,
          "duration": 0.4347824999999972
        },
        {
          "name": "A4",
          "midi": 69,
          "time": 125.65938887500012,
          "velocity": 0.5905511811023622,
          "duration": 0.2173912500000057
        },
        {
          "name": "F#4",
          "midi": 66,
          "time": 125.65938887500012,
          "velocity": 1,
          "duration": 0.2173912500000057
        },
        {
          "name": "A4",
          "midi": 69,
          "time": 125.87678012500012,
          "velocity": 0.5905511811023622,
          "duration": 0.6521737500000029
        },
        {
          "name": "F#4",
          "midi": 66,
          "time": 125.87678012500012,
          "velocity": 1,
          "duration": 0.6521737500000029
        },
        {
          "name": "A4",
          "midi": 69,
          "time": 126.52895387500013,
          "velocity": 0.5905511811023622,
          "duration": 0.2173912500000057
        },
        {
          "name": "F#4",
          "midi": 66,
          "time": 126.52895387500013,
          "velocity": 1,
          "duration": 0.2173912500000057
        },
        {
          "name": "A4",
          "midi": 69,
          "time": 126.74634512500013,
          "velocity": 0.5905511811023622,
          "duration": 0.2173912500000057
        },
        {
          "name": "F#4",
          "midi": 66,
          "time": 126.74634512500013,
          "velocity": 1,
          "duration": 0.2173912500000057
        },
        {
          "name": "B4",
          "midi": 71,
          "time": 126.96373637500014,
          "velocity": 0.5905511811023622,
          "duration": 2.1739125
        },
        {
          "name": "G4",
          "midi": 67,
          "time": 126.96373637500014,
          "velocity": 1,
          "duration": 2.1739125
        },
        {
          "name": "A4",
          "midi": 69,
          "time": 132.61590887500014,
          "velocity": 0.5905511811023622,
          "duration": 0.2173912499999915
        },
        {
          "name": "F#5",
          "midi": 78,
          "time": 132.61590887500014,
          "velocity": 1,
          "duration": 0.2173912499999915
        },
        {
          "name": "A4",
          "midi": 69,
          "time": 132.83330012500014,
          "velocity": 0.5905511811023622,
          "duration": 0.2173912499999915
        },
        {
          "name": "F#5",
          "midi": 78,
          "time": 132.83330012500014,
          "velocity": 1,
          "duration": 0.1811593749999929
        },
        {
          "name": "A4",
          "midi": 69,
          "time": 133.01445950000013,
          "velocity": 0.5905511811023622,
          "duration": 0.03623187499999858
        },
        {
          "name": "F#5",
          "midi": 78,
          "time": 133.01445950000013,
          "velocity": 0.5905511811023622,
          "duration": 0.47101437500001
        },
        {
          "name": "B4",
          "midi": 71,
          "time": 133.05069137500013,
          "velocity": 0.5905511811023622,
          "duration": 0.4347825000000114
        },
        {
          "name": "G5",
          "midi": 79,
          "time": 133.05069137500013,
          "velocity": 1,
          "duration": 0.4347825000000114
        },
        {
          "name": "A4",
          "midi": 69,
          "time": 133.48547387500014,
          "velocity": 0.5905511811023622,
          "duration": 0.2173912499999915
        },
        {
          "name": "F#5",
          "midi": 78,
          "time": 133.48547387500014,
          "velocity": 1,
          "duration": 0.2173912499999915
        },
        {
          "name": "G4",
          "midi": 67,
          "time": 133.70286512500013,
          "velocity": 0.5905511811023622,
          "duration": 0.32608687499998723
        },
        {
          "name": "E5",
          "midi": 76,
          "time": 133.70286512500013,
          "velocity": 1,
          "duration": 0.32608687499998723
        },
        {
          "name": "A4",
          "midi": 69,
          "time": 134.02895200000012,
          "velocity": 0.5905511811023622,
          "duration": 0.32608687499998723
        },
        {
          "name": "F#5",
          "midi": 78,
          "time": 134.02895200000012,
          "velocity": 1,
          "duration": 0.32608687499998723
        },
        {
          "name": "A4",
          "midi": 69,
          "time": 134.3550388750001,
          "velocity": 0.5905511811023622,
          "duration": 0.2173912499999915
        },
        {
          "name": "F#5",
          "midi": 78,
          "time": 134.3550388750001,
          "velocity": 1,
          "duration": 0.2173912499999915
        },
        {
          "name": "G4",
          "midi": 67,
          "time": 134.5724301250001,
          "velocity": 0.5905511811023622,
          "duration": 2.3913037499999916
        },
        {
          "name": "E5",
          "midi": 76,
          "time": 134.5724301250001,
          "velocity": 1,
          "duration": 2.3913037499999916
        },
        {
          "name": "A4",
          "midi": 69,
          "time": 137.83329887500008,
          "velocity": 0.5905511811023622,
          "duration": 0.2173912499999915
        },
        {
          "name": "F#5",
          "midi": 78,
          "time": 137.83329887500008,
          "velocity": 1,
          "duration": 0.2173912499999915
        },
        {
          "name": "A4",
          "midi": 69,
          "time": 138.05069012500007,
          "velocity": 0.5905511811023622,
          "duration": 0.2173912499999915
        },
        {
          "name": "F#5",
          "midi": 78,
          "time": 138.05069012500007,
          "velocity": 1,
          "duration": 0.1811593749999929
        },
        {
          "name": "A4",
          "midi": 69,
          "time": 138.23184950000007,
          "velocity": 0.5905511811023622,
          "duration": 0.03623187499999858
        },
        {
          "name": "F#5",
          "midi": 78,
          "time": 138.23184950000007,
          "velocity": 0.5905511811023622,
          "duration": 0.47101437500001
        },
        {
          "name": "B4",
          "midi": 71,
          "time": 138.26808137500007,
          "velocity": 0.5905511811023622,
          "duration": 0.4347825000000114
        },
        {
          "name": "G5",
          "midi": 79,
          "time": 138.26808137500007,
          "velocity": 1,
          "duration": 0.4347825000000114
        },
        {
          "name": "A4",
          "midi": 69,
          "time": 138.70286387500008,
          "velocity": 0.5905511811023622,
          "duration": 0.2173912499999915
        },
        {
          "name": "F#5",
          "midi": 78,
          "time": 138.70286387500008,
          "velocity": 1,
          "duration": 0.2173912499999915
        },
        {
          "name": "G4",
          "midi": 67,
          "time": 138.92025512500007,
          "velocity": 0.5905511811023622,
          "duration": 0.32608687499998723
        },
        {
          "name": "E5",
          "midi": 76,
          "time": 138.92025512500007,
          "velocity": 1,
          "duration": 0.32608687499998723
        },
        {
          "name": "A4",
          "midi": 69,
          "time": 139.24634200000006,
          "velocity": 0.5905511811023622,
          "duration": 0.32608687499998723
        },
        {
          "name": "F#5",
          "midi": 78,
          "time": 139.24634200000006,
          "velocity": 1,
          "duration": 0.32608687499998723
        },
        {
          "name": "A4",
          "midi": 69,
          "time": 139.57242887500004,
          "velocity": 0.5905511811023622,
          "duration": 0.2173912499999915
        },
        {
          "name": "F#5",
          "midi": 78,
          "time": 139.57242887500004,
          "velocity": 1,
          "duration": 0.2173912499999915
        },
        {
          "name": "B4",
          "midi": 71,
          "time": 139.78982012500003,
          "velocity": 0.5905511811023622,
          "duration": 0.2173912499999915
        },
        {
          "name": "G5",
          "midi": 79,
          "time": 139.78982012500003,
          "velocity": 1,
          "duration": 0.2173912499999915
        },
        {
          "name": "G4",
          "midi": 67,
          "time": 140.00721137500003,
          "velocity": 0.5905511811023622,
          "duration": 1.9565212500000086
        },
        {
          "name": "E5",
          "midi": 76,
          "time": 140.00721137500003,
          "velocity": 1,
          "duration": 1.9565212500000086
        },
        {
          "name": "A4",
          "midi": 69,
          "time": 141.96373262500003,
          "velocity": 0.5905511811023622,
          "duration": 0.2173912499999915
        },
        {
          "name": "F#5",
          "midi": 78,
          "time": 141.96373262500003,
          "velocity": 1,
          "duration": 0.2173912499999915
        },
        {
          "name": "A4",
          "midi": 69,
          "time": 142.18112387500003,
          "velocity": 0.5905511811023622,
          "duration": 0.4347825000000114
        },
        {
          "name": "F#5",
          "midi": 78,
          "time": 142.18112387500003,
          "velocity": 1,
          "duration": 0.4347825000000114
        },
        {
          "name": "A4",
          "midi": 69,
          "time": 142.83329762500003,
          "velocity": 0.5905511811023622,
          "duration": 0.2173912499999915
        },
        {
          "name": "F#5",
          "midi": 78,
          "time": 142.83329762500003,
          "velocity": 1,
          "duration": 0.2173912499999915
        },
        {
          "name": "A4",
          "midi": 69,
          "time": 143.05068887500002,
          "velocity": 0.5905511811023622,
          "duration": 0.4347825000000114
        },
        {
          "name": "F#5",
          "midi": 78,
          "time": 143.05068887500002,
          "velocity": 1,
          "duration": 0.4347825000000114
        },
        {
          "name": "A4",
          "midi": 69,
          "time": 143.48547137500003,
          "velocity": 0.5905511811023622,
          "duration": 0.2173912499999915
        },
        {
          "name": "F#5",
          "midi": 78,
          "time": 143.48547137500003,
          "velocity": 1,
          "duration": 0.2173912499999915
        },
        {
          "name": "B4",
          "midi": 71,
          "time": 143.70286262500002,
          "velocity": 1,
          "duration": 2.3913037499999916
        },
        {
          "name": "E5",
          "midi": 76,
          "time": 143.70286262500002,
          "velocity": 1,
          "duration": 2.3913037499999916
        },
        {
          "name": "D4",
          "midi": 62,
          "time": 149.57242637500002,
          "velocity": 1,
          "duration": 0.4347825000000114
        },
        {
          "name": "E4",
          "midi": 64,
          "time": 150.00720887500003,
          "velocity": 1,
          "duration": 0.4347825000000114
        },
        {
          "name": "E4",
          "midi": 64,
          "time": 150.65938262500003,
          "velocity": 1,
          "duration": 0.2173912499999915
        },
        {
          "name": "E4",
          "midi": 64,
          "time": 150.87677387500003,
          "velocity": 1,
          "duration": 0.2173912499999915
        },
        {
          "name": "E4",
          "midi": 64,
          "time": 151.09416512500002,
          "velocity": 1,
          "duration": 0.2173912499999915
        },
        {
          "name": "F#4",
          "midi": 66,
          "time": 151.311556375,
          "velocity": 1,
          "duration": 0.2173912499999915
        },
        {
          "name": "E4",
          "midi": 64,
          "time": 151.528947625,
          "velocity": 1,
          "duration": 0.2173912499999915
        },
        {
          "name": "D4",
          "midi": 62,
          "time": 151.746338875,
          "velocity": 1,
          "duration": 0.2173912499999915
        },
        {
          "name": "E4",
          "midi": 64,
          "time": 151.96373012499998,
          "velocity": 1,
          "duration": 1.9565212500000086
        },
        {
          "name": "D4",
          "midi": 62,
          "time": 154.789816375,
          "velocity": 1,
          "duration": 0.2173912499999915
        },
        {
          "name": "E4",
          "midi": 64,
          "time": 155.00720762499998,
          "velocity": 1,
          "duration": 0.2173912499999915
        },
        {
          "name": "E4",
          "midi": 64,
          "time": 155.22459887499997,
          "velocity": 1,
          "duration": 0.4347825000000114
        },
        {
          "name": "E4",
          "midi": 64,
          "time": 155.65938137499998,
          "velocity": 1,
          "duration": 0.4347825000000114
        },
        {
          "name": "E4",
          "midi": 64,
          "time": 156.094163875,
          "velocity": 1,
          "duration": 0.2173912499999915
        },
        {
          "name": "D4",
          "midi": 62,
          "time": 156.31155512499998,
          "velocity": 1,
          "duration": 0.2173912499999915
        },
        {
          "name": "D4",
          "midi": 62,
          "time": 156.52894637499998,
          "velocity": 1,
          "duration": 0.4347825000000114
        },
        {
          "name": "E4",
          "midi": 64,
          "time": 156.963728875,
          "velocity": 1,
          "duration": 0.2173912499999915
        },
        {
          "name": "F4",
          "midi": 65,
          "time": 157.18112012499998,
          "velocity": 1,
          "duration": 0.2173912499999915
        },
        {
          "name": "G4",
          "midi": 67,
          "time": 157.39851137499997,
          "velocity": 1,
          "duration": 2.6086950000000115
        },
        {
          "name": "F#4",
          "midi": 66,
          "time": 160.22459762499997,
          "velocity": 1,
          "duration": 0.2173912499999915
        },
        {
          "name": "G4",
          "midi": 67,
          "time": 160.44198887499996,
          "velocity": 1,
          "duration": 0.2173912499999915
        },
        {
          "name": "G4",
          "midi": 67,
          "time": 160.65938012499996,
          "velocity": 1,
          "duration": 0.4347825000000114
        },
        {
          "name": "G4",
          "midi": 67,
          "time": 161.09416262499997,
          "velocity": 1,
          "duration": 0.4347825000000114
        },
        {
          "name": "D4",
          "midi": 62,
          "time": 161.52894512499998,
          "velocity": 1,
          "duration": 0.2173912499999915
        },
        {
          "name": "D4",
          "midi": 62,
          "time": 161.74633637499997,
          "velocity": 1,
          "duration": 0.4347825000000114
        },
        {
          "name": "D4",
          "midi": 62,
          "time": 162.18111887499998,
          "velocity": 1,
          "duration": 0.2173912499999915
        },
        {
          "name": "D4",
          "midi": 62,
          "time": 162.39851012499997,
          "velocity": 1,
          "duration": 1.9565212500000086
        },
        {
          "name": "B4",
          "midi": 71,
          "time": 165.22459637499998,
          "velocity": 0.5905511811023622,
          "duration": 0.4347825000000114
        },
        {
          "name": "G4",
          "midi": 67,
          "time": 165.22459637499998,
          "velocity": 1,
          "duration": 0.4347825000000114
        },
        {
          "name": "A4",
          "midi": 69,
          "time": 165.659378875,
          "velocity": 0.5905511811023622,
          "duration": 0.4347825000000114
        },
        {
          "name": "F#4",
          "midi": 66,
          "time": 165.659378875,
          "velocity": 1,
          "duration": 0.4347825000000114
        },
        {
          "name": "A4",
          "midi": 69,
          "time": 166.094161375,
          "velocity": 0.5905511811023622,
          "duration": 0.2173912499999915
        },
        {
          "name": "F#4",
          "midi": 66,
          "time": 166.094161375,
          "velocity": 1,
          "duration": 0.2173912499999915
        },
        {
          "name": "A4",
          "midi": 69,
          "time": 166.311552625,
          "velocity": 0.5905511811023622,
          "duration": 0.2173912499999915
        },
        {
          "name": "F#4",
          "midi": 66,
          "time": 166.311552625,
          "velocity": 1,
          "duration": 0.2173912499999915
        },
        {
          "name": "B4",
          "midi": 71,
          "time": 166.52894387499998,
          "velocity": 0.5905511811023622,
          "duration": 0.4347825000000114
        },
        {
          "name": "G4",
          "midi": 67,
          "time": 166.52894387499998,
          "velocity": 1,
          "duration": 0.4347825000000114
        },
        {
          "name": "A4",
          "midi": 69,
          "time": 166.963726375,
          "velocity": 0.5905511811023622,
          "duration": 0.2173912499999915
        },
        {
          "name": "F#4",
          "midi": 66,
          "time": 166.963726375,
          "velocity": 1,
          "duration": 0.2173912499999915
        },
        {
          "name": "G4",
          "midi": 67,
          "time": 167.18111762499998,
          "velocity": 0.5905511811023622,
          "duration": 2.3913037499999916
        },
        {
          "name": "E4",
          "midi": 64,
          "time": 167.18111762499998,
          "velocity": 1,
          "duration": 2.3913037499999916
        },
        {
          "name": "A4",
          "midi": 69,
          "time": 173.05068137499998,
          "velocity": 0.5905511811023622,
          "duration": 0.2173912499999915
        },
        {
          "name": "F#5",
          "midi": 78,
          "time": 173.05068137499998,
          "velocity": 1,
          "duration": 0.2173912499999915
        },
        {
          "name": "A4",
          "midi": 69,
          "time": 173.26807262499997,
          "velocity": 0.5905511811023622,
          "duration": 0.2173912499999915
        },
        {
          "name": "F#5",
          "midi": 78,
          "time": 173.26807262499997,
          "velocity": 1,
          "duration": 0.1811593749999929
        },
        {
          "name": "A4",
          "midi": 69,
          "time": 173.44923199999997,
          "velocity": 0.3937007874015748,
          "duration": 0.47101437500001
        },
        {
          "name": "F#5",
          "midi": 78,
          "time": 173.44923199999997,
          "velocity": 0.5905511811023622,
          "duration": 0.47101437500001
        },
        {
          "name": "G5",
          "midi": 79,
          "time": 173.48546387499997,
          "velocity": 1,
          "duration": 0.4347825000000114
        },
        {
          "name": "B4",
          "midi": 71,
          "time": 173.48546387499997,
          "velocity": 0.5905511811023622,
          "duration": 0.4347825000000114
        },
        {
          "name": "F#5",
          "midi": 78,
          "time": 173.92024637499998,
          "velocity": 1,
          "duration": 0.2173912499999915
        },
        {
          "name": "A4",
          "midi": 69,
          "time": 173.92024637499998,
          "velocity": 0.5905511811023622,
          "duration": 0.2173912499999915
        },
        {
          "name": "G4",
          "midi": 67,
          "time": 174.13763762499997,
          "velocity": 0.5905511811023622,
          "duration": 0.32608687499998723
        },
        {
          "name": "E5",
          "midi": 76,
          "time": 174.13763762499997,
          "velocity": 1,
          "duration": 0.32608687499998723
        },
        {
          "name": "F#5",
          "midi": 78,
          "time": 174.46372449999996,
          "velocity": 1,
          "duration": 0.32608687499998723
        },
        {
          "name": "A4",
          "midi": 69,
          "time": 174.46372449999996,
          "velocity": 0.5905511811023622,
          "duration": 0.32608687499998723
        },
        {
          "name": "A4",
          "midi": 69,
          "time": 174.78981137499994,
          "velocity": 1,
          "duration": 0.2173912499999915
        },
        {
          "name": "F#5",
          "midi": 78,
          "time": 174.78981137499994,
          "velocity": 1,
          "duration": 0.2173912499999915
        },
        {
          "name": "G4",
          "midi": 67,
          "time": 175.00720262499993,
          "velocity": 1,
          "duration": 2.3913037499999916
        },
        {
          "name": "E5",
          "midi": 76,
          "time": 175.00720262499993,
          "velocity": 1,
          "duration": 2.3913037499999916
        },
        {
          "name": "A4",
          "midi": 69,
          "time": 178.26807137499992,
          "velocity": 0.5905511811023622,
          "duration": 0.2173912499999915
        },
        {
          "name": "F#5",
          "midi": 78,
          "time": 178.26807137499992,
          "velocity": 1,
          "duration": 0.2173912499999915
        },
        {
          "name": "A4",
          "midi": 69,
          "time": 178.4854626249999,
          "velocity": 0.5905511811023622,
          "duration": 0.2173912499999915
        },
        {
          "name": "F#5",
          "midi": 78,
          "time": 178.4854626249999,
          "velocity": 1,
          "duration": 0.1811593749999929
        },
        {
          "name": "A4",
          "midi": 69,
          "time": 178.6666219999999,
          "velocity": 0.3937007874015748,
          "duration": 0.47101437500001
        },
        {
          "name": "F#5",
          "midi": 78,
          "time": 178.6666219999999,
          "velocity": 0.5905511811023622,
          "duration": 0.47101437500001
        },
        {
          "name": "G5",
          "midi": 79,
          "time": 178.7028538749999,
          "velocity": 1,
          "duration": 0.4347825000000114
        },
        {
          "name": "B4",
          "midi": 71,
          "time": 178.7028538749999,
          "velocity": 0.5905511811023622,
          "duration": 0.4347825000000114
        },
        {
          "name": "F#5",
          "midi": 78,
          "time": 179.13763637499991,
          "velocity": 1,
          "duration": 0.2173912499999915
        },
        {
          "name": "A4",
          "midi": 69,
          "time": 179.13763637499991,
          "velocity": 0.5905511811023622,
          "duration": 0.2173912499999915
        },
        {
          "name": "G4",
          "midi": 67,
          "time": 179.3550276249999,
          "velocity": 0.5905511811023622,
          "duration": 0.32608687499998723
        },
        {
          "name": "E5",
          "midi": 76,
          "time": 179.3550276249999,
          "velocity": 1,
          "duration": 0.32608687499998723
        },
        {
          "name": "F#5",
          "midi": 78,
          "time": 179.6811144999999,
          "velocity": 1,
          "duration": 0.32608687499998723
        },
        {
          "name": "A4",
          "midi": 69,
          "time": 179.6811144999999,
          "velocity": 0.5905511811023622,
          "duration": 0.32608687499998723
        },
        {
          "name": "A4",
          "midi": 69,
          "time": 180.00720137499988,
          "velocity": 0.5905511811023622,
          "duration": 0.2173912499999915
        },
        {
          "name": "F#5",
          "midi": 78,
          "time": 180.00720137499988,
          "velocity": 1,
          "duration": 0.2173912499999915
        },
        {
          "name": "B4",
          "midi": 71,
          "time": 180.22459262499987,
          "velocity": 0.5905511811023622,
          "duration": 0.2173912499999915
        },
        {
          "name": "G5",
          "midi": 79,
          "time": 180.22459262499987,
          "velocity": 1,
          "duration": 0.2173912499999915
        },
        {
          "name": "G4",
          "midi": 67,
          "time": 180.44198387499986,
          "velocity": 0.5905511811023622,
          "duration": 2.1739125
        },
        {
          "name": "E5",
          "midi": 76,
          "time": 180.44198387499986,
          "velocity": 1,
          "duration": 2.1739125
        },
        {
          "name": "A4",
          "midi": 69,
          "time": 182.61589637499986,
          "velocity": 0.5905511811023622,
          "duration": 0.6521737500000029
        },
        {
          "name": "F#5",
          "midi": 78,
          "time": 182.61589637499986,
          "velocity": 1,
          "duration": 0.4347825000000114
        },
        {
          "name": "A4",
          "midi": 69,
          "time": 183.26807012499987,
          "velocity": 0.5905511811023622,
          "duration": 0.2173912499999915
        },
        {
          "name": "F#5",
          "midi": 78,
          "time": 183.26807012499987,
          "velocity": 1,
          "duration": 0.2173912499999915
        },
        {
          "name": "A4",
          "midi": 69,
          "time": 183.48546137499986,
          "velocity": 0.5905511811023622,
          "duration": 0.4347825000000114
        },
        {
          "name": "F#5",
          "midi": 78,
          "time": 183.48546137499986,
          "velocity": 1,
          "duration": 0.4347825000000114
        },
        {
          "name": "A4",
          "midi": 69,
          "time": 183.92024387499987,
          "velocity": 0.5905511811023622,
          "duration": 0.2173912499999915
        },
        {
          "name": "F#5",
          "midi": 78,
          "time": 183.92024387499987,
          "velocity": 1,
          "duration": 0.2173912499999915
        },
        {
          "name": "B4",
          "midi": 71,
          "time": 184.13763512499986,
          "velocity": 0.5905511811023622,
          "duration": 2.3913037499999916
        },
        {
          "name": "E5",
          "midi": 76,
          "time": 184.13763512499986,
          "velocity": 1,
          "duration": 2.3913037499999916
        },
        {
          "name": "D4",
          "midi": 62,
          "time": 231.52892762499985,
          "velocity": 1,
          "duration": 0.2173912499999915
        },
        {
          "name": "E4",
          "midi": 64,
          "time": 231.74631887499984,
          "velocity": 1,
          "duration": 0.2173912499999915
        },
        {
          "name": "E4",
          "midi": 64,
          "time": 231.96371012499984,
          "velocity": 1,
          "duration": 0.2173912499999915
        },
        {
          "name": "E4",
          "midi": 64,
          "time": 232.18110137499983,
          "velocity": 1,
          "duration": 0.4347825000000114
        },
        {
          "name": "E4",
          "midi": 64,
          "time": 232.61588387499984,
          "velocity": 1,
          "duration": 0.2173912499999915
        },
        {
          "name": "E4",
          "midi": 64,
          "time": 232.83327512499983,
          "velocity": 1,
          "duration": 0.6521737500000029
        },
        {
          "name": "F#4",
          "midi": 66,
          "time": 233.48544887499983,
          "velocity": 1,
          "duration": 0.4347825000000114
        },
        {
          "name": "G4",
          "midi": 67,
          "time": 233.92023137499984,
          "velocity": 1,
          "duration": 0.4347825000000114
        },
        {
          "name": "E4",
          "midi": 64,
          "time": 234.35501387499986,
          "velocity": 1,
          "duration": 1.7391299999999887
        },
        {
          "name": "E4",
          "midi": 64,
          "time": 236.96370887499984,
          "velocity": 1,
          "duration": 0.2173912499999915
        },
        {
          "name": "E4",
          "midi": 64,
          "time": 237.18110012499983,
          "velocity": 1,
          "duration": 0.2173912499999915
        },
        {
          "name": "E4",
          "midi": 64,
          "time": 237.39849137499982,
          "velocity": 1,
          "duration": 0.6521737500000029
        },
        {
          "name": "E4",
          "midi": 64,
          "time": 238.05066512499982,
          "velocity": 1,
          "duration": 0.2173912499999915
        },
        {
          "name": "E4",
          "midi": 64,
          "time": 238.26805637499982,
          "velocity": 1,
          "duration": 0.2173912499999915
        },
        {
          "name": "B3",
          "midi": 59,
          "time": 238.4854476249998,
          "velocity": 1,
          "duration": 0.2173912499999915
        },
        {
          "name": "D4",
          "midi": 62,
          "time": 238.7028388749998,
          "velocity": 1,
          "duration": 0.4347825000000114
        },
        {
          "name": "D4",
          "midi": 62,
          "time": 239.1376213749998,
          "velocity": 1,
          "duration": 0.2173912499999915
        },
        {
          "name": "E4",
          "midi": 64,
          "time": 239.3550126249998,
          "velocity": 1,
          "duration": 0.6521737500000029
        },
        {
          "name": "G4",
          "midi": 67,
          "time": 240.0071863749998,
          "velocity": 1,
          "duration": 0.5072462500000086
        },
        {
          "name": "F#4",
          "midi": 66,
          "time": 240.5144326249998,
          "velocity": 1,
          "duration": 0.7971012499999972
        },
        {
          "name": "E4",
          "midi": 64,
          "time": 240.5868963749998,
          "velocity": 1,
          "duration": 0.7246375
        },
        {
          "name": "A4",
          "midi": 69,
          "time": 241.74631637499982,
          "velocity": 1,
          "duration": 0.2173912499999915
        },
        {
          "name": "B4",
          "midi": 71,
          "time": 241.9637076249998,
          "velocity": 1,
          "duration": 0.2173912499999915
        },
        {
          "name": "A4",
          "midi": 69,
          "time": 242.1810988749998,
          "velocity": 1,
          "duration": 0.3985506250000128
        },
        {
          "name": "G4",
          "midi": 67,
          "time": 242.57964949999982,
          "velocity": 0.5905511811023622,
          "duration": 0.6884056250000015
        },
        {
          "name": "F#4",
          "midi": 66,
          "time": 242.61588137499982,
          "velocity": 1,
          "duration": 0.6521737500000029
        },
        {
          "name": "F#4",
          "midi": 66,
          "time": 243.26805512499982,
          "velocity": 1,
          "duration": 0.2173912499999915
        },
        {
          "name": "E4",
          "midi": 64,
          "time": 243.4854463749998,
          "velocity": 1,
          "duration": 0.4347825000000114
        },
        {
          "name": "F#4",
          "midi": 66,
          "time": 243.92022887499982,
          "velocity": 1,
          "duration": 0.4347825000000114
        },
        {
          "name": "G4",
          "midi": 67,
          "time": 244.35501137499983,
          "velocity": 1,
          "duration": 2.1739125
        },
        {
          "name": "A4",
          "midi": 69,
          "time": 247.39848887499983,
          "velocity": 1,
          "duration": 0.2173912499999915
        },
        {
          "name": "B4",
          "midi": 71,
          "time": 247.61588012499982,
          "velocity": 1,
          "duration": 0.2173912499999915
        },
        {
          "name": "A4",
          "midi": 69,
          "time": 247.8332713749998,
          "velocity": 1,
          "duration": 0.4347825000000114
        },
        {
          "name": "A4",
          "midi": 69,
          "time": 248.26805387499982,
          "velocity": 1,
          "duration": 0.2173912499999915
        },
        {
          "name": "A4",
          "midi": 69,
          "time": 248.4854451249998,
          "velocity": 1,
          "duration": 0.6521737500000029
        },
        {
          "name": "A4",
          "midi": 69,
          "time": 249.13761887499982,
          "velocity": 1,
          "duration": 0.2173912499999915
        },
        {
          "name": "A4",
          "midi": 69,
          "time": 249.3550101249998,
          "velocity": 1,
          "duration": 0.2173912499999915
        },
        {
          "name": "B4",
          "midi": 71,
          "time": 249.5724013749998,
          "velocity": 1,
          "duration": 3.0434774999999945
        },
        {
          "name": "G4",
          "midi": 67,
          "time": 254.7897913749998,
          "velocity": 1,
          "duration": 0.4347825000000114
        },
        {
          "name": "G4",
          "midi": 67,
          "time": 255.2245738749998,
          "velocity": 1,
          "duration": 0.4347825000000114
        },
        {
          "name": "G4",
          "midi": 67,
          "time": 255.65935637499982,
          "velocity": 1,
          "duration": 0.4347825000000114
        },
        {
          "name": "G4",
          "midi": 67,
          "time": 256.3115301249998,
          "velocity": 1,
          "duration": 0.2173912499999915
        },
        {
          "name": "G4",
          "midi": 67,
          "time": 256.5289213749998,
          "velocity": 1,
          "duration": 0.434782499999983
        },
        {
          "name": "A4",
          "midi": 69,
          "time": 256.9637038749998,
          "velocity": 1,
          "duration": 0.434782499999983
        },
        {
          "name": "B4",
          "midi": 71,
          "time": 257.3984863749998,
          "velocity": 1,
          "duration": 0.2173912499999915
        },
        {
          "name": "G4",
          "midi": 67,
          "time": 257.61587762499977,
          "velocity": 1,
          "duration": 0.2173912499999915
        },
        {
          "name": "G4",
          "midi": 67,
          "time": 257.83326887499976,
          "velocity": 1,
          "duration": 1.7391299999999887
        },
        {
          "name": "E5",
          "midi": 76,
          "time": 260.4419638749998,
          "velocity": 1,
          "duration": 0.2173912499999915
        },
        {
          "name": "E5",
          "midi": 76,
          "time": 260.65935512499976,
          "velocity": 1,
          "duration": 0.2173912499999915
        },
        {
          "name": "D5",
          "midi": 74,
          "time": 260.87674637499975,
          "velocity": 1,
          "duration": 0.2173912499999915
        },
        {
          "name": "E5",
          "midi": 76,
          "time": 261.09413762499975,
          "velocity": 1,
          "duration": 0.2173912499999915
        },
        {
          "name": "B4",
          "midi": 71,
          "time": 261.31152887499974,
          "velocity": 1,
          "duration": 0.2173912499999915
        },
        {
          "name": "G4",
          "midi": 67,
          "time": 261.52892012499973,
          "velocity": 1,
          "duration": 0.2173912499999915
        },
        {
          "name": "G4",
          "midi": 67,
          "time": 261.7463113749997,
          "velocity": 1,
          "duration": 0.434782499999983
        },
        {
          "name": "A4",
          "midi": 69,
          "time": 262.1810938749997,
          "velocity": 1,
          "duration": 0.434782499999983
        },
        {
          "name": "B4",
          "midi": 71,
          "time": 262.6158763749997,
          "velocity": 1,
          "duration": 0.434782499999983
        },
        {
          "name": "B4",
          "midi": 71,
          "time": 263.05065887499967,
          "velocity": 1,
          "duration": 0.434782499999983
        },
        {
          "name": "C5",
          "midi": 72,
          "time": 263.48544137499965,
          "velocity": 1,
          "duration": 1.3043475000000058
        },
        {
          "name": "A4",
          "midi": 69,
          "time": 265.6231219999997,
          "velocity": 0.5905511811023622,
          "duration": 0.03623187499999858
        },
        {
          "name": "B4",
          "midi": 71,
          "time": 265.6593538749997,
          "velocity": 1,
          "duration": 0.2173912499999915
        },
        {
          "name": "B4",
          "midi": 71,
          "time": 265.8767451249997,
          "velocity": 1,
          "duration": 0.2173912499999915
        },
        {
          "name": "A4",
          "midi": 69,
          "time": 266.09413637499966,
          "velocity": 1,
          "duration": 0.2173912499999915
        },
        {
          "name": "B4",
          "midi": 71,
          "time": 266.31152762499966,
          "velocity": 1,
          "duration": 0.434782499999983
        },
        {
          "name": "A4",
          "midi": 69,
          "time": 266.74631012499964,
          "velocity": 1,
          "duration": 0.434782499999983
        },
        {
          "name": "G4",
          "midi": 67,
          "time": 267.1810926249996,
          "velocity": 1,
          "duration": 0.2173912499999915
        },
        {
          "name": "A4",
          "midi": 69,
          "time": 267.3984838749996,
          "velocity": 1,
          "duration": 0.434782499999983
        },
        {
          "name": "B4",
          "midi": 71,
          "time": 267.8332663749996,
          "velocity": 1,
          "duration": 0.434782499999983
        },
        {
          "name": "G4",
          "midi": 67,
          "time": 268.2680488749996,
          "velocity": 1,
          "duration": 1.7391299999999887
        },
        {
          "name": "B4",
          "midi": 71,
          "time": 270.8767438749996,
          "velocity": 1,
          "duration": 0.2173912499999915
        },
        {
          "name": "G4",
          "midi": 67,
          "time": 271.0941351249996,
          "velocity": 1,
          "duration": 0.2173912499999915
        },
        {
          "name": "A4",
          "midi": 69,
          "time": 271.3115263749996,
          "velocity": 1,
          "duration": 0.434782499999983
        },
        {
          "name": "A4",
          "midi": 69,
          "time": 271.74630887499956,
          "velocity": 1,
          "duration": 0.2173912499999915
        },
        {
          "name": "A4",
          "midi": 69,
          "time": 271.96370012499955,
          "velocity": 1,
          "duration": 0.6521737499999745
        },
        {
          "name": "A4",
          "midi": 69,
          "time": 272.6158738749995,
          "velocity": 1,
          "duration": 0.2173912499999915
        },
        {
          "name": "A4",
          "midi": 69,
          "time": 272.8332651249995,
          "velocity": 1,
          "duration": 0.2173912499999915
        },
        {
          "name": "B4",
          "midi": 71,
          "time": 273.0506563749995,
          "velocity": 1,
          "duration": 3.4782599999999775
        },
        {
          "name": "A4",
          "midi": 69,
          "time": 278.70282887499945,
          "velocity": 0.5905511811023622,
          "duration": 0.2173912499999915
        },
        {
          "name": "F#5",
          "midi": 78,
          "time": 278.70282887499945,
          "velocity": 1,
          "duration": 0.2173912499999915
        },
        {
          "name": "F#5",
          "midi": 78,
          "time": 278.92022012499945,
          "velocity": 1,
          "duration": 0.2173912499999915
        },
        {
          "name": "A4",
          "midi": 69,
          "time": 278.92022012499945,
          "velocity": 0.5905511811023622,
          "duration": 0.2173912499999915
        },
        {
          "name": "A4",
          "midi": 69,
          "time": 279.10137949999944,
          "velocity": 0.3937007874015748,
          "duration": 0.03623187499999858
        },
        {
          "name": "F#5",
          "midi": 78,
          "time": 279.10137949999944,
          "velocity": 0.5905511811023622,
          "duration": 0.03623187499999858
        },
        {
          "name": "B4",
          "midi": 71,
          "time": 279.13761137499944,
          "velocity": 0.5905511811023622,
          "duration": 0.434782499999983
        },
        {
          "name": "G5",
          "midi": 79,
          "time": 279.13761137499944,
          "velocity": 1,
          "duration": 0.434782499999983
        },
        {
          "name": "F#5",
          "midi": 78,
          "time": 279.5723938749994,
          "velocity": 1,
          "duration": 0.2173912499999915
        },
        {
          "name": "A4",
          "midi": 69,
          "time": 279.5723938749994,
          "velocity": 0.5905511811023622,
          "duration": 0.2173912499999915
        },
        {
          "name": "G4",
          "midi": 67,
          "time": 279.7897851249994,
          "velocity": 0.5905511811023622,
          "duration": 0.32608687499998723
        },
        {
          "name": "E5",
          "midi": 76,
          "time": 279.7897851249994,
          "velocity": 1,
          "duration": 0.32608687499998723
        },
        {
          "name": "F#5",
          "midi": 78,
          "time": 280.1158719999994,
          "velocity": 1,
          "duration": 0.32608687499998723
        },
        {
          "name": "A4",
          "midi": 69,
          "time": 280.1158719999994,
          "velocity": 0.5905511811023622,
          "duration": 0.32608687499998723
        },
        {
          "name": "A4",
          "midi": 69,
          "time": 280.4419588749994,
          "velocity": 0.5905511811023622,
          "duration": 0.2173912499999915
        },
        {
          "name": "F#5",
          "midi": 78,
          "time": 280.4419588749994,
          "velocity": 1,
          "duration": 0.2173912499999915
        },
        {
          "name": "G4",
          "midi": 67,
          "time": 280.6593501249994,
          "velocity": 0.5905511811023622,
          "duration": 1.9565212499999802
        },
        {
          "name": "E5",
          "midi": 76,
          "time": 280.6593501249994,
          "velocity": 1,
          "duration": 1.9565212499999802
        },
        {
          "name": "A4",
          "midi": 69,
          "time": 283.92021887499936,
          "velocity": 0.5905511811023622,
          "duration": 0.2173912499999915
        },
        {
          "name": "F#5",
          "midi": 78,
          "time": 283.92021887499936,
          "velocity": 1,
          "duration": 0.2173912499999915
        },
        {
          "name": "F#5",
          "midi": 78,
          "time": 284.13761012499936,
          "velocity": 1,
          "duration": 0.2173912499999915
        },
        {
          "name": "A4",
          "midi": 69,
          "time": 284.13761012499936,
          "velocity": 0.5905511811023622,
          "duration": 0.2173912499999915
        },
        {
          "name": "A4",
          "midi": 69,
          "time": 284.31876949999935,
          "velocity": 0.3937007874015748,
          "duration": 0.03623187499999858
        },
        {
          "name": "F#5",
          "midi": 78,
          "time": 284.31876949999935,
          "velocity": 0.5905511811023622,
          "duration": 0.03623187499999858
        },
        {
          "name": "B4",
          "midi": 71,
          "time": 284.35500137499935,
          "velocity": 0.5905511811023622,
          "duration": 0.434782499999983
        },
        {
          "name": "G5",
          "midi": 79,
          "time": 284.35500137499935,
          "velocity": 1,
          "duration": 0.434782499999983
        },
        {
          "name": "F#5",
          "midi": 78,
          "time": 284.78978387499933,
          "velocity": 1,
          "duration": 0.2173912499999915
        },
        {
          "name": "A4",
          "midi": 69,
          "time": 284.78978387499933,
          "velocity": 0.5905511811023622,
          "duration": 0.2173912499999915
        },
        {
          "name": "G4",
          "midi": 67,
          "time": 285.0071751249993,
          "velocity": 0.5905511811023622,
          "duration": 0.32608687499998723
        },
        {
          "name": "E5",
          "midi": 76,
          "time": 285.0071751249993,
          "velocity": 1,
          "duration": 0.32608687499998723
        },
        {
          "name": "F#5",
          "midi": 78,
          "time": 285.3332619999993,
          "velocity": 1,
          "duration": 0.32608687499998723
        },
        {
          "name": "A4",
          "midi": 69,
          "time": 285.3332619999993,
          "velocity": 0.5905511811023622,
          "duration": 0.32608687499998723
        },
        {
          "name": "A4",
          "midi": 69,
          "time": 285.6593488749993,
          "velocity": 0.5905511811023622,
          "duration": 0.2173912499999915
        },
        {
          "name": "F#5",
          "midi": 78,
          "time": 285.6593488749993,
          "velocity": 1,
          "duration": 0.2173912499999915
        },
        {
          "name": "B4",
          "midi": 71,
          "time": 285.8767401249993,
          "velocity": 0.5905511811023622,
          "duration": 0.2173912499999915
        },
        {
          "name": "G5",
          "midi": 79,
          "time": 285.8767401249993,
          "velocity": 1,
          "duration": 0.2173912499999915
        },
        {
          "name": "G4",
          "midi": 67,
          "time": 286.0941313749993,
          "velocity": 0.5905511811023622,
          "duration": 2.1739124999999717
        },
        {
          "name": "E5",
          "midi": 76,
          "time": 286.0941313749993,
          "velocity": 1,
          "duration": 2.1739124999999717
        },
        {
          "name": "A4",
          "midi": 69,
          "time": 289.1376088749993,
          "velocity": 0.5905511811023622,
          "duration": 0.2173912499999915
        },
        {
          "name": "F#5",
          "midi": 78,
          "time": 289.1376088749993,
          "velocity": 1,
          "duration": 0.2173912499999915
        },
        {
          "name": "F#5",
          "midi": 78,
          "time": 289.35500012499926,
          "velocity": 1,
          "duration": 0.2173912499999915
        },
        {
          "name": "A4",
          "midi": 69,
          "time": 289.35500012499926,
          "velocity": 0.5905511811023622,
          "duration": 0.2173912499999915
        },
        {
          "name": "A4",
          "midi": 69,
          "time": 289.53615949999926,
          "velocity": 0.3937007874015748,
          "duration": 0.03623187499999858
        },
        {
          "name": "F#5",
          "midi": 78,
          "time": 289.53615949999926,
          "velocity": 0.5905511811023622,
          "duration": 0.03623187499999858
        },
        {
          "name": "B4",
          "midi": 71,
          "time": 289.57239137499926,
          "velocity": 0.5905511811023622,
          "duration": 0.434782499999983
        },
        {
          "name": "G5",
          "midi": 79,
          "time": 289.57239137499926,
          "velocity": 1,
          "duration": 0.434782499999983
        },
        {
          "name": "E5",
          "midi": 76,
          "time": 290.00717387499924,
          "velocity": 1,
          "duration": 0.2173912499999915
        },
        {
          "name": "G4",
          "midi": 67,
          "time": 290.00717387499924,
          "velocity": 0.5905511811023622,
          "duration": 0.2173912499999915
        },
        {
          "name": "D5",
          "midi": 74,
          "time": 290.22456512499923,
          "velocity": 1,
          "duration": 0.32608687499998723
        },
        {
          "name": "F#4",
          "midi": 66,
          "time": 290.22456512499923,
          "velocity": 0.5905511811023622,
          "duration": 0.32608687499998723
        },
        {
          "name": "F#5",
          "midi": 78,
          "time": 290.5506519999992,
          "velocity": 1,
          "duration": 0.32608687499998723
        },
        {
          "name": "A4",
          "midi": 69,
          "time": 290.5506519999992,
          "velocity": 0.5905511811023622,
          "duration": 0.32608687499998723
        },
        {
          "name": "A4",
          "midi": 69,
          "time": 290.8767388749992,
          "velocity": 0.5905511811023622,
          "duration": 0.2173912499999915
        },
        {
          "name": "F#5",
          "midi": 78,
          "time": 290.8767388749992,
          "velocity": 1,
          "duration": 0.2173912499999915
        },
        {
          "name": "G4",
          "midi": 67,
          "time": 291.0941301249992,
          "velocity": 0.5905511811023622,
          "duration": 2.39130375000002
        },
        {
          "name": "E5",
          "midi": 76,
          "time": 291.0941301249992,
          "velocity": 1,
          "duration": 2.39130375000002
        },
        {
          "name": "A4",
          "midi": 69,
          "time": 294.35499887499924,
          "velocity": 0.5905511811023622,
          "duration": 0.2173912499999915
        },
        {
          "name": "F#5",
          "midi": 78,
          "time": 294.35499887499924,
          "velocity": 1,
          "duration": 0.2173912499999915
        },
        {
          "name": "F#5",
          "midi": 78,
          "time": 294.57239012499923,
          "velocity": 1,
          "duration": 0.2173912499999915
        },
        {
          "name": "A4",
          "midi": 69,
          "time": 294.57239012499923,
          "velocity": 0.5905511811023622,
          "duration": 0.2173912499999915
        },
        {
          "name": "A4",
          "midi": 69,
          "time": 294.7535494999992,
          "velocity": 0.3937007874015748,
          "duration": 0.03623187499999858
        },
        {
          "name": "F#5",
          "midi": 78,
          "time": 294.7535494999992,
          "velocity": 0.5905511811023622,
          "duration": 0.03623187499999858
        },
        {
          "name": "B4",
          "midi": 71,
          "time": 294.7897813749992,
          "velocity": 0.5905511811023622,
          "duration": 0.434782499999983
        },
        {
          "name": "G5",
          "midi": 79,
          "time": 294.7897813749992,
          "velocity": 1,
          "duration": 0.434782499999983
        },
        {
          "name": "F#5",
          "midi": 78,
          "time": 295.2245638749992,
          "velocity": 1,
          "duration": 0.2173912499999915
        },
        {
          "name": "A4",
          "midi": 69,
          "time": 295.2245638749992,
          "velocity": 0.5905511811023622,
          "duration": 0.2173912499999915
        },
        {
          "name": "G4",
          "midi": 67,
          "time": 295.4419551249992,
          "velocity": 0.5905511811023622,
          "duration": 0.32608687499998723
        },
        {
          "name": "E5",
          "midi": 76,
          "time": 295.4419551249992,
          "velocity": 1,
          "duration": 0.32608687499998723
        },
        {
          "name": "F#5",
          "midi": 78,
          "time": 295.7680419999992,
          "velocity": 1,
          "duration": 0.32608687499998723
        },
        {
          "name": "A4",
          "midi": 69,
          "time": 295.7680419999992,
          "velocity": 0.5905511811023622,
          "duration": 0.32608687499998723
        },
        {
          "name": "A4",
          "midi": 69,
          "time": 296.09412887499917,
          "velocity": 0.5905511811023622,
          "duration": 0.2173912499999915
        },
        {
          "name": "F#5",
          "midi": 78,
          "time": 296.09412887499917,
          "velocity": 1,
          "duration": 0.2173912499999915
        },
        {
          "name": "B4",
          "midi": 71,
          "time": 296.31152012499916,
          "velocity": 0.5905511811023622,
          "duration": 0.2173912499999915
        },
        {
          "name": "G5",
          "midi": 79,
          "time": 296.31152012499916,
          "velocity": 1,
          "duration": 0.2173912499999915
        },
        {
          "name": "G4",
          "midi": 67,
          "time": 296.52891137499915,
          "velocity": 0.5905511811023622,
          "duration": 2.1739124999999717
        },
        {
          "name": "E5",
          "midi": 76,
          "time": 296.52891137499915,
          "velocity": 1,
          "duration": 2.1739124999999717
        },
        {
          "name": "A4",
          "midi": 69,
          "time": 298.7028238749991,
          "velocity": 0.5905511811023622,
          "duration": 0.6521737499999745
        },
        {
          "name": "F#5",
          "midi": 78,
          "time": 298.7028238749991,
          "velocity": 1,
          "duration": 0.434782499999983
        },
        {
          "name": "F#5",
          "midi": 78,
          "time": 299.3549976249991,
          "velocity": 1,
          "duration": 0.2173912499999915
        },
        {
          "name": "A4",
          "midi": 69,
          "time": 299.3549976249991,
          "velocity": 0.5905511811023622,
          "duration": 0.2173912499999915
        },
        {
          "name": "F#5",
          "midi": 78,
          "time": 299.5723888749991,
          "velocity": 1,
          "duration": 0.434782499999983
        },
        {
          "name": "A4",
          "midi": 69,
          "time": 299.5723888749991,
          "velocity": 0.5905511811023622,
          "duration": 0.434782499999983
        },
        {
          "name": "A4",
          "midi": 69,
          "time": 300.0071713749991,
          "velocity": 1,
          "duration": 0.2173912499999915
        },
        {
          "name": "F#5",
          "midi": 78,
          "time": 300.0071713749991,
          "velocity": 1,
          "duration": 0.2173912499999915
        },
        {
          "name": "B4",
          "midi": 71,
          "time": 300.22456262499907,
          "velocity": 1,
          "duration": 3.260868749999986
        },
        {
          "name": "G5",
          "midi": 79,
          "time": 300.22456262499907,
          "velocity": 1,
          "duration": 3.695651249999969
        },
        {
          "name": "G5",
          "midi": 79,
          "time": 303.92021387499904,
          "velocity": 1,
          "duration": 0.2173912499999915
        },
        {
          "name": "G5",
          "midi": 79,
          "time": 304.101373249999,
          "velocity": 0.5905511811023622,
          "duration": 0.03623187499999858
        },
        {
          "name": "G5",
          "midi": 79,
          "time": 304.137605124999,
          "velocity": 1,
          "duration": 1.0869562500000143
        },
        {
          "name": "D4",
          "midi": 62,
          "time": 334.789771374999,
          "velocity": 1,
          "duration": 0.434782499999983
        },
        {
          "name": "E4",
          "midi": 64,
          "time": 335.224553874999,
          "velocity": 1,
          "duration": 0.6521737499999745
        },
        {
          "name": "E4",
          "midi": 64,
          "time": 335.876727624999,
          "velocity": 1,
          "duration": 0.2173912499999915
        },
        {
          "name": "E4",
          "midi": 64,
          "time": 336.09411887499897,
          "velocity": 1,
          "duration": 0.2173912499999915
        },
        {
          "name": "E4",
          "midi": 64,
          "time": 336.31151012499896,
          "velocity": 1,
          "duration": 0.2173912499999915
        },
        {
          "name": "F#4",
          "midi": 66,
          "time": 336.52890137499895,
          "velocity": 1,
          "duration": 0.2173912499999915
        },
        {
          "name": "E4",
          "midi": 64,
          "time": 336.74629262499894,
          "velocity": 1,
          "duration": 0.2173912499999915
        },
        {
          "name": "D4",
          "midi": 62,
          "time": 336.96368387499894,
          "velocity": 1,
          "duration": 0.2173912499999915
        },
        {
          "name": "E4",
          "midi": 64,
          "time": 337.1810751249989,
          "velocity": 1,
          "duration": 1.9565212499999802
        },
        {
          "name": "D4",
          "midi": 62,
          "time": 340.00716137499893,
          "velocity": 1,
          "duration": 0.2173912499999915
        },
        {
          "name": "E4",
          "midi": 64,
          "time": 340.2245526249989,
          "velocity": 1,
          "duration": 0.2173912499999915
        },
        {
          "name": "E4",
          "midi": 64,
          "time": 340.4419438749989,
          "velocity": 1,
          "duration": 0.434782499999983
        },
        {
          "name": "E4",
          "midi": 64,
          "time": 340.8767263749989,
          "velocity": 1,
          "duration": 0.434782499999983
        },
        {
          "name": "E4",
          "midi": 64,
          "time": 341.3115088749989,
          "velocity": 1,
          "duration": 0.2173912499999915
        },
        {
          "name": "D4",
          "midi": 62,
          "time": 341.52890012499887,
          "velocity": 1,
          "duration": 0.2173912499999915
        },
        {
          "name": "D4",
          "midi": 62,
          "time": 341.74629137499886,
          "velocity": 1,
          "duration": 0.434782499999983
        },
        {
          "name": "D4",
          "midi": 62,
          "time": 342.18107387499884,
          "velocity": 1,
          "duration": 0.434782499999983
        },
        {
          "name": "E4",
          "midi": 64,
          "time": 342.6158563749988,
          "velocity": 1,
          "duration": 0.2173912499999915
        },
        {
          "name": "F#4",
          "midi": 66,
          "time": 342.8332476249988,
          "velocity": 1,
          "duration": 0.2173912499999915
        },
        {
          "name": "G4",
          "midi": 67,
          "time": 343.0506388749988,
          "velocity": 1,
          "duration": 0.10869562499999574
        },
        {
          "name": "F#4",
          "midi": 66,
          "time": 343.1593344999988,
          "velocity": 1,
          "duration": 0.10869562499999574
        },
        {
          "name": "E4",
          "midi": 64,
          "time": 343.2680301249988,
          "velocity": 1,
          "duration": 1.0869562500000143
        },
        {
          "name": "F#4",
          "midi": 66,
          "time": 345.44194262499883,
          "velocity": 1,
          "duration": 0.2173912499999915
        },
        {
          "name": "G4",
          "midi": 67,
          "time": 345.6593338749988,
          "velocity": 1,
          "duration": 0.2173912499999915
        },
        {
          "name": "G4",
          "midi": 67,
          "time": 345.8767251249988,
          "velocity": 1,
          "duration": 0.434782499999983
        },
        {
          "name": "E4",
          "midi": 64,
          "time": 346.3115076249988,
          "velocity": 1,
          "duration": 0.434782499999983
        },
        {
          "name": "B3",
          "midi": 59,
          "time": 346.7462901249988,
          "velocity": 1,
          "duration": 0.2173912499999915
        },
        {
          "name": "D4",
          "midi": 62,
          "time": 346.96368137499877,
          "velocity": 1,
          "duration": 0.434782499999983
        },
        {
          "name": "D4",
          "midi": 62,
          "time": 347.39846387499875,
          "velocity": 1,
          "duration": 0.2173912499999915
        },
        {
          "name": "D4",
          "midi": 62,
          "time": 347.61585512499875,
          "velocity": 1,
          "duration": 1.5217387499999973
        },
        {
          "name": "G4",
          "midi": 67,
          "time": 350.44194137499875,
          "velocity": 1,
          "duration": 0.434782499999983
        },
        {
          "name": "F#4",
          "midi": 66,
          "time": 350.87672387499873,
          "velocity": 1,
          "duration": 0.434782499999983
        },
        {
          "name": "F#4",
          "midi": 66,
          "time": 351.3115063749987,
          "velocity": 1,
          "duration": 0.2173912499999915
        },
        {
          "name": "F#4",
          "midi": 66,
          "time": 351.5288976249987,
          "velocity": 1,
          "duration": 0.2173912499999915
        },
        {
          "name": "G4",
          "midi": 67,
          "time": 351.7462888749987,
          "velocity": 1,
          "duration": 0.434782499999983
        },
        {
          "name": "F#4",
          "midi": 66,
          "time": 352.1810713749987,
          "velocity": 1,
          "duration": 0.2173912499999915
        },
        {
          "name": "E4",
          "midi": 64,
          "time": 352.3984626249987,
          "velocity": 1,
          "duration": 2.39130375000002
        }
      ],
      "controlChanges": {
        "7": [
          {
            "number": 7,
            "time": 0,
            "value": 0.7795275590551181
          }
        ]
      },
      "id": 1,
      "name": "Voice",
      "instrumentNumber": 88,
      "instrument": "pad 1 (new age)",
      "instrumentFamily": "synth pad",
      "channelNumber": 0,
      "isPercussion": false
    },
    {
      "startTime": 0,
      "duration": 391.95642374999863,
      "length": 1027,
      "notes": [
        {
          "name": "E2",
          "midi": 40,
          "time": 0,
          "velocity": 1,
          "duration": 0.43478249999999996
        },
        {
          "name": "G3",
          "midi": 55,
          "time": 0.43478249999999996,
          "velocity": 1,
          "duration": 0.43478249999999996
        },
        {
          "name": "B3",
          "midi": 59,
          "time": 0.8695649999999999,
          "velocity": 1,
          "duration": 0.43478250000000007
        },
        {
          "name": "E4",
          "midi": 64,
          "time": 1.3043475,
          "velocity": 1,
          "duration": 0.43478249999999985
        },
        {
          "name": "B3",
          "midi": 59,
          "time": 1.7391299999999998,
          "velocity": 1,
          "duration": 0.43478249999999985
        },
        {
          "name": "G3",
          "midi": 55,
          "time": 2.1739124999999997,
          "velocity": 1,
          "duration": 0.43478249999999985
        },
        {
          "name": "E2",
          "midi": 40,
          "time": 2.6086949999999995,
          "velocity": 1,
          "duration": 0.43478249999999985
        },
        {
          "name": "G3",
          "midi": 55,
          "time": 3.0434774999999994,
          "velocity": 1,
          "duration": 0.43478249999999985
        },
        {
          "name": "B3",
          "midi": 59,
          "time": 3.4782599999999992,
          "velocity": 1,
          "duration": 0.43478249999999985
        },
        {
          "name": "E4",
          "midi": 64,
          "time": 3.913042499999999,
          "velocity": 1,
          "duration": 0.4347825000000003
        },
        {
          "name": "B3",
          "midi": 59,
          "time": 4.347824999999999,
          "velocity": 1,
          "duration": 0.43478249999999985
        },
        {
          "name": "G3",
          "midi": 55,
          "time": 4.782607499999999,
          "velocity": 1,
          "duration": 0.43478249999999985
        },
        {
          "name": "E2",
          "midi": 40,
          "time": 5.217389999999999,
          "velocity": 1,
          "duration": 0.43478249999999985
        },
        {
          "name": "G3",
          "midi": 55,
          "time": 5.652172499999999,
          "velocity": 1,
          "duration": 0.43478249999999985
        },
        {
          "name": "B3",
          "midi": 59,
          "time": 6.086954999999999,
          "velocity": 1,
          "duration": 0.43478249999999985
        },
        {
          "name": "E4",
          "midi": 64,
          "time": 6.521737499999999,
          "velocity": 1,
          "duration": 0.43478249999999985
        },
        {
          "name": "B3",
          "midi": 59,
          "time": 6.9565199999999985,
          "velocity": 1,
          "duration": 0.43478249999999985
        },
        {
          "name": "G3",
          "midi": 55,
          "time": 7.391302499999998,
          "velocity": 1,
          "duration": 0.43478249999999985
        },
        {
          "name": "E2",
          "midi": 40,
          "time": 7.826084999999998,
          "velocity": 1,
          "duration": 0.43478249999999985
        },
        {
          "name": "G3",
          "midi": 55,
          "time": 8.260867499999998,
          "velocity": 1,
          "duration": 0.43478250000000074
        },
        {
          "name": "B3",
          "midi": 59,
          "time": 8.695649999999999,
          "velocity": 1,
          "duration": 0.43478250000000074
        },
        {
          "name": "E4",
          "midi": 64,
          "time": 9.1304325,
          "velocity": 1,
          "duration": 0.43478250000000074
        },
        {
          "name": "B3",
          "midi": 59,
          "time": 9.565215,
          "velocity": 1,
          "duration": 0.43478250000000074
        },
        {
          "name": "B4",
          "midi": 71,
          "time": 9.999997500000001,
          "velocity": 1,
          "duration": 0.43478250000000074
        },
        {
          "name": "E2",
          "midi": 40,
          "time": 10.434780000000002,
          "velocity": 1,
          "duration": 0.43478250000000074
        },
        {
          "name": "B4",
          "midi": 71,
          "time": 10.434780000000002,
          "velocity": 1,
          "duration": 0.43478250000000074
        },
        {
          "name": "B3",
          "midi": 59,
          "time": 10.869562500000002,
          "velocity": 1,
          "duration": 0.43478250000000074
        },
        {
          "name": "G3",
          "midi": 55,
          "time": 11.304345000000003,
          "velocity": 1,
          "duration": 0.43478250000000074
        },
        {
          "name": "B3",
          "midi": 59,
          "time": 11.739127500000004,
          "velocity": 1,
          "duration": 0.21739125000000037
        },
        {
          "name": "B4",
          "midi": 71,
          "time": 11.739127500000004,
          "velocity": 1,
          "duration": 0.21739125000000037
        },
        {
          "name": "E4",
          "midi": 64,
          "time": 11.956518750000004,
          "velocity": 1,
          "duration": 0.21739125000000037
        },
        {
          "name": "B3",
          "midi": 59,
          "time": 12.173910000000005,
          "velocity": 1,
          "duration": 0.43478250000000074
        },
        {
          "name": "G3",
          "midi": 55,
          "time": 12.608692500000005,
          "velocity": 1,
          "duration": 0.43478250000000074
        },
        {
          "name": "E2",
          "midi": 40,
          "time": 13.043475000000006,
          "velocity": 1,
          "duration": 0.43478250000000074
        },
        {
          "name": "B3",
          "midi": 59,
          "time": 13.043475000000006,
          "velocity": 1,
          "duration": 0.43478250000000074
        },
        {
          "name": "G3",
          "midi": 55,
          "time": 13.478257500000007,
          "velocity": 1,
          "duration": 0.43478250000000074
        },
        {
          "name": "B4",
          "midi": 71,
          "time": 13.913040000000008,
          "velocity": 1,
          "duration": 0.43478250000000074
        },
        {
          "name": "B3",
          "midi": 59,
          "time": 13.913040000000008,
          "velocity": 1,
          "duration": 0.43478250000000074
        },
        {
          "name": "B3",
          "midi": 59,
          "time": 14.347822500000008,
          "velocity": 1,
          "duration": 0.43478250000000074
        },
        {
          "name": "C5",
          "midi": 72,
          "time": 14.347822500000008,
          "velocity": 1,
          "duration": 0.43478250000000074
        },
        {
          "name": "B4",
          "midi": 71,
          "time": 14.782605000000009,
          "velocity": 1,
          "duration": 0.32608687499999967
        },
        {
          "name": "C5",
          "midi": 72,
          "time": 15.108691875000009,
          "velocity": 1,
          "duration": 0.1086956249999993
        },
        {
          "name": "A4",
          "midi": 69,
          "time": 15.217387500000008,
          "velocity": 1,
          "duration": 0.43478250000000074
        },
        {
          "name": "B3",
          "midi": 59,
          "time": 15.652170000000009,
          "velocity": 1,
          "duration": 0.43478250000000074
        },
        {
          "name": "B4",
          "midi": 71,
          "time": 15.652170000000009,
          "velocity": 1,
          "duration": 0.43478250000000074
        },
        {
          "name": "A4",
          "midi": 69,
          "time": 16.08695250000001,
          "velocity": 1,
          "duration": 0.14492750000000143
        },
        {
          "name": "G4",
          "midi": 67,
          "time": 16.23188000000001,
          "velocity": 1,
          "duration": 0.14492750000000143
        },
        {
          "name": "F#4",
          "midi": 66,
          "time": 16.376807500000012,
          "velocity": 1,
          "duration": 0.14492750000000143
        },
        {
          "name": "E4",
          "midi": 64,
          "time": 16.521735000000014,
          "velocity": 1,
          "duration": 0.43478250000000074
        },
        {
          "name": "A2",
          "midi": 45,
          "time": 16.956517500000015,
          "velocity": 1,
          "duration": 0.43478250000000074
        },
        {
          "name": "E4",
          "midi": 64,
          "time": 16.956517500000015,
          "velocity": 1,
          "duration": 0.43478250000000074
        },
        {
          "name": "C4",
          "midi": 60,
          "time": 17.391300000000015,
          "velocity": 1,
          "duration": 0.43478250000000074
        },
        {
          "name": "E4",
          "midi": 64,
          "time": 17.826082500000016,
          "velocity": 1,
          "duration": 0.43478250000000074
        },
        {
          "name": "F#4",
          "midi": 66,
          "time": 18.260865000000017,
          "velocity": 1,
          "duration": 0.2173912499999986
        },
        {
          "name": "E4",
          "midi": 64,
          "time": 18.478256250000015,
          "velocity": 1,
          "duration": 0.2173912499999986
        },
        {
          "name": "E4",
          "midi": 64,
          "time": 18.695647500000014,
          "velocity": 1,
          "duration": 0.43478250000000074
        },
        {
          "name": "C4",
          "midi": 60,
          "time": 19.130430000000015,
          "velocity": 1,
          "duration": 0.43478250000000074
        },
        {
          "name": "A2",
          "midi": 45,
          "time": 19.565212500000015,
          "velocity": 1,
          "duration": 0.43478250000000074
        },
        {
          "name": "C4",
          "midi": 60,
          "time": 19.999995000000016,
          "velocity": 1,
          "duration": 0.43478250000000074
        },
        {
          "name": "E4",
          "midi": 64,
          "time": 20.434777500000017,
          "velocity": 1,
          "duration": 0.43478250000000074
        },
        {
          "name": "E4",
          "midi": 64,
          "time": 20.869560000000018,
          "velocity": 1,
          "duration": 0.43478250000000074
        },
        {
          "name": "A2",
          "midi": 45,
          "time": 21.30434250000002,
          "velocity": 1,
          "duration": 0.43478250000000074
        },
        {
          "name": "C4",
          "midi": 60,
          "time": 21.30434250000002,
          "velocity": 1,
          "duration": 0.43478250000000074
        },
        {
          "name": "E4",
          "midi": 64,
          "time": 21.30434250000002,
          "velocity": 1,
          "duration": 0.43478250000000074
        },
        {
          "name": "E4",
          "midi": 64,
          "time": 21.30434250000002,
          "velocity": 1,
          "duration": 0.43478250000000074
        },
        {
          "name": "A2",
          "midi": 45,
          "time": 21.73912500000002,
          "velocity": 1,
          "duration": 0.43478250000000074
        },
        {
          "name": "C4",
          "midi": 60,
          "time": 21.73912500000002,
          "velocity": 1,
          "duration": 0.43478250000000074
        },
        {
          "name": "E4",
          "midi": 64,
          "time": 21.73912500000002,
          "velocity": 1,
          "duration": 0.43478250000000074
        },
        {
          "name": "E4",
          "midi": 64,
          "time": 21.73912500000002,
          "velocity": 1,
          "duration": 0.43478250000000074
        },
        {
          "name": "C3",
          "midi": 48,
          "time": 22.17390750000002,
          "velocity": 1,
          "duration": 0.43478250000000074
        },
        {
          "name": "C4",
          "midi": 60,
          "time": 22.17390750000002,
          "velocity": 1,
          "duration": 0.43478250000000074
        },
        {
          "name": "E4",
          "midi": 64,
          "time": 22.17390750000002,
          "velocity": 1,
          "duration": 0.43478250000000074
        },
        {
          "name": "E4",
          "midi": 64,
          "time": 22.17390750000002,
          "velocity": 1,
          "duration": 0.43478250000000074
        },
        {
          "name": "C3",
          "midi": 48,
          "time": 22.60869000000002,
          "velocity": 1,
          "duration": 0.2173912499999986
        },
        {
          "name": "C4",
          "midi": 60,
          "time": 22.82608125000002,
          "velocity": 1,
          "duration": 0.2173912499999986
        },
        {
          "name": "E4",
          "midi": 64,
          "time": 23.043472500000018,
          "velocity": 1,
          "duration": 0.2173912499999986
        },
        {
          "name": "C4",
          "midi": 60,
          "time": 23.260863750000016,
          "velocity": 1,
          "duration": 0.2173912499999986
        },
        {
          "name": "G4",
          "midi": 67,
          "time": 23.478255000000015,
          "velocity": 1,
          "duration": 0.2173912499999986
        },
        {
          "name": "E4",
          "midi": 64,
          "time": 23.695646250000014,
          "velocity": 1,
          "duration": 0.2173912499999986
        },
        {
          "name": "E4",
          "midi": 64,
          "time": 23.913037500000012,
          "velocity": 1,
          "duration": 0.2173912499999986
        },
        {
          "name": "C4",
          "midi": 60,
          "time": 24.13042875000001,
          "velocity": 1,
          "duration": 0.2173912499999986
        },
        {
          "name": "C3",
          "midi": 48,
          "time": 24.34782000000001,
          "velocity": 1,
          "duration": 0.43478250000000074
        },
        {
          "name": "C4",
          "midi": 60,
          "time": 24.34782000000001,
          "velocity": 1,
          "duration": 0.43478250000000074
        },
        {
          "name": "E4",
          "midi": 64,
          "time": 24.34782000000001,
          "velocity": 1,
          "duration": 0.43478250000000074
        },
        {
          "name": "E4",
          "midi": 64,
          "time": 24.34782000000001,
          "velocity": 1,
          "duration": 0.43478250000000074
        },
        {
          "name": "D3",
          "midi": 50,
          "time": 24.78260250000001,
          "velocity": 1,
          "duration": 0.43478250000000074
        },
        {
          "name": "D4",
          "midi": 62,
          "time": 24.78260250000001,
          "velocity": 1,
          "duration": 0.43478250000000074
        },
        {
          "name": "F#4",
          "midi": 66,
          "time": 24.78260250000001,
          "velocity": 1,
          "duration": 0.43478250000000074
        },
        {
          "name": "E4",
          "midi": 64,
          "time": 24.78260250000001,
          "velocity": 1,
          "duration": 0.43478250000000074
        },
        {
          "name": "D3",
          "midi": 50,
          "time": 25.21738500000001,
          "velocity": 1,
          "duration": 0.2173912499999986
        },
        {
          "name": "D4",
          "midi": 62,
          "time": 25.43477625000001,
          "velocity": 1,
          "duration": 0.2173912499999986
        },
        {
          "name": "F#4",
          "midi": 66,
          "time": 25.652167500000008,
          "velocity": 1,
          "duration": 0.2173912499999986
        },
        {
          "name": "D4",
          "midi": 62,
          "time": 25.869558750000007,
          "velocity": 1,
          "duration": 0.2173912499999986
        },
        {
          "name": "E4",
          "midi": 64,
          "time": 26.086950000000005,
          "velocity": 1,
          "duration": 0.2173912499999986
        },
        {
          "name": "A4",
          "midi": 69,
          "time": 26.304341250000004,
          "velocity": 1,
          "duration": 0.1086956249999993
        },
        {
          "name": "E4",
          "midi": 64,
          "time": 26.413036875000003,
          "velocity": 1,
          "duration": 0.1086956249999993
        },
        {
          "name": "F#4",
          "midi": 66,
          "time": 26.521732500000002,
          "velocity": 1,
          "duration": 0.2173912499999986
        },
        {
          "name": "B3",
          "midi": 59,
          "time": 26.73912375,
          "velocity": 1,
          "duration": 0.2173912499999986
        },
        {
          "name": "B3",
          "midi": 59,
          "time": 26.956515,
          "velocity": 1,
          "duration": 0.2173912499999986
        },
        {
          "name": "E4",
          "midi": 64,
          "time": 27.173906249999998,
          "velocity": 1,
          "duration": 0.2173912499999986
        },
        {
          "name": "E2",
          "midi": 40,
          "time": 27.391297499999997,
          "velocity": 1,
          "duration": 0.43478250000000074
        },
        {
          "name": "B4",
          "midi": 71,
          "time": 27.826079999999997,
          "velocity": 1,
          "duration": 0.43478250000000074
        },
        {
          "name": "G4",
          "midi": 67,
          "time": 27.826079999999997,
          "velocity": 1,
          "duration": 0.43478250000000074
        },
        {
          "name": "B4",
          "midi": 71,
          "time": 28.260862499999998,
          "velocity": 1,
          "duration": 0.43478250000000074
        },
        {
          "name": "E5",
          "midi": 76,
          "time": 28.695645,
          "velocity": 1,
          "duration": 0.43478250000000074
        },
        {
          "name": "B3",
          "midi": 59,
          "time": 29.1304275,
          "velocity": 1,
          "duration": 0.43478250000000074
        },
        {
          "name": "G3",
          "midi": 55,
          "time": 29.56521,
          "velocity": 1,
          "duration": 0.43478250000000074
        },
        {
          "name": "E2",
          "midi": 40,
          "time": 29.9999925,
          "velocity": 1,
          "duration": 0.43478250000000074
        },
        {
          "name": "G3",
          "midi": 55,
          "time": 30.434775000000002,
          "velocity": 1,
          "duration": 0.43478250000000074
        },
        {
          "name": "B3",
          "midi": 59,
          "time": 30.869557500000003,
          "velocity": 1,
          "duration": 0.43478250000000074
        },
        {
          "name": "E4",
          "midi": 64,
          "time": 31.304340000000003,
          "velocity": 1,
          "duration": 0.43478250000000074
        },
        {
          "name": "B3",
          "midi": 59,
          "time": 31.739122500000004,
          "velocity": 1,
          "duration": 0.43478250000000074
        },
        {
          "name": "G3",
          "midi": 55,
          "time": 32.173905000000005,
          "velocity": 1,
          "duration": 0.4347824999999972
        },
        {
          "name": "E2",
          "midi": 40,
          "time": 32.6086875,
          "velocity": 1,
          "duration": 0.4347824999999972
        },
        {
          "name": "G3",
          "midi": 55,
          "time": 33.04347,
          "velocity": 1,
          "duration": 0.4347824999999972
        },
        {
          "name": "B3",
          "midi": 59,
          "time": 33.478252499999996,
          "velocity": 1,
          "duration": 0.4347824999999972
        },
        {
          "name": "E4",
          "midi": 64,
          "time": 33.913034999999994,
          "velocity": 1,
          "duration": 0.4347824999999972
        },
        {
          "name": "B3",
          "midi": 59,
          "time": 34.34781749999999,
          "velocity": 1,
          "duration": 0.4347824999999972
        },
        {
          "name": "G3",
          "midi": 55,
          "time": 34.78259999999999,
          "velocity": 1,
          "duration": 0.4347824999999972
        },
        {
          "name": "E2",
          "midi": 40,
          "time": 35.217382499999985,
          "velocity": 1,
          "duration": 0.4347824999999972
        },
        {
          "name": "G3",
          "midi": 55,
          "time": 35.65216499999998,
          "velocity": 1,
          "duration": 0.4347824999999972
        },
        {
          "name": "B3",
          "midi": 59,
          "time": 36.08694749999998,
          "velocity": 1,
          "duration": 0.4347824999999972
        },
        {
          "name": "E4",
          "midi": 64,
          "time": 36.52172999999998,
          "velocity": 1,
          "duration": 0.4347824999999972
        },
        {
          "name": "B3",
          "midi": 59,
          "time": 36.956512499999974,
          "velocity": 1,
          "duration": 0.4347824999999972
        },
        {
          "name": "G3",
          "midi": 55,
          "time": 37.39129499999997,
          "velocity": 1,
          "duration": 0.4347824999999972
        },
        {
          "name": "E2",
          "midi": 40,
          "time": 37.82607749999997,
          "velocity": 1,
          "duration": 0.6521737500000029
        },
        {
          "name": "E3",
          "midi": 52,
          "time": 38.47825124999997,
          "velocity": 1,
          "duration": 0.2173912499999986
        },
        {
          "name": "B3",
          "midi": 59,
          "time": 38.69564249999997,
          "velocity": 1,
          "duration": 0.2173912499999986
        },
        {
          "name": "E4",
          "midi": 64,
          "time": 38.91303374999997,
          "velocity": 1,
          "duration": 0.2173912499999986
        },
        {
          "name": "B4",
          "midi": 71,
          "time": 39.13042499999997,
          "velocity": 1,
          "duration": 1.3043474999999987
        },
        {
          "name": "G4",
          "midi": 67,
          "time": 39.13042499999997,
          "velocity": 1,
          "duration": 1.3043474999999987
        },
        {
          "name": "D3",
          "midi": 50,
          "time": 40.434772499999966,
          "velocity": 1,
          "duration": 0.4347824999999972
        },
        {
          "name": "A3",
          "midi": 57,
          "time": 40.86955499999996,
          "velocity": 1,
          "duration": 0.4347824999999972
        },
        {
          "name": "F#4",
          "midi": 66,
          "time": 41.30433749999996,
          "velocity": 1,
          "duration": 0.4347824999999972
        },
        {
          "name": "D4",
          "midi": 62,
          "time": 41.30433749999996,
          "velocity": 1,
          "duration": 0.4347824999999972
        },
        {
          "name": "C3",
          "midi": 48,
          "time": 41.73911999999996,
          "velocity": 1,
          "duration": 0.4347824999999972
        },
        {
          "name": "G3",
          "midi": 55,
          "time": 42.173902499999954,
          "velocity": 1,
          "duration": 0.4347824999999972
        },
        {
          "name": "C4",
          "midi": 60,
          "time": 42.60868499999995,
          "velocity": 1,
          "duration": 0.4347824999999972
        },
        {
          "name": "E4",
          "midi": 64,
          "time": 42.60868499999995,
          "velocity": 1,
          "duration": 0.4347824999999972
        },
        {
          "name": "E2",
          "midi": 40,
          "time": 43.04346749999995,
          "velocity": 1,
          "duration": 0.6521737500000029
        },
        {
          "name": "E3",
          "midi": 52,
          "time": 43.69564124999995,
          "velocity": 1,
          "duration": 0.2173912499999986
        },
        {
          "name": "B3",
          "midi": 59,
          "time": 43.91303249999995,
          "velocity": 1,
          "duration": 0.2173912499999986
        },
        {
          "name": "E4",
          "midi": 64,
          "time": 44.13042374999995,
          "velocity": 1,
          "duration": 0.2173912499999986
        },
        {
          "name": "B4",
          "midi": 71,
          "time": 44.34781499999995,
          "velocity": 1,
          "duration": 1.3043474999999987
        },
        {
          "name": "G4",
          "midi": 67,
          "time": 44.34781499999995,
          "velocity": 1,
          "duration": 1.3043474999999987
        },
        {
          "name": "D3",
          "midi": 50,
          "time": 45.652162499999946,
          "velocity": 1,
          "duration": 0.4347824999999972
        },
        {
          "name": "A3",
          "midi": 57,
          "time": 46.08694499999994,
          "velocity": 1,
          "duration": 0.4347824999999972
        },
        {
          "name": "F#4",
          "midi": 66,
          "time": 46.52172749999994,
          "velocity": 1,
          "duration": 0.4347824999999972
        },
        {
          "name": "D4",
          "midi": 62,
          "time": 46.52172749999994,
          "velocity": 1,
          "duration": 0.4347824999999972
        },
        {
          "name": "C3",
          "midi": 48,
          "time": 46.95650999999994,
          "velocity": 1,
          "duration": 0.4347824999999972
        },
        {
          "name": "G3",
          "midi": 55,
          "time": 47.391292499999935,
          "velocity": 1,
          "duration": 0.4347824999999972
        },
        {
          "name": "C4",
          "midi": 60,
          "time": 47.82607499999993,
          "velocity": 1,
          "duration": 0.4347824999999972
        },
        {
          "name": "E4",
          "midi": 64,
          "time": 47.82607499999993,
          "velocity": 1,
          "duration": 0.4347824999999972
        },
        {
          "name": "E2",
          "midi": 40,
          "time": 48.26085749999993,
          "velocity": 1,
          "duration": 0.6521737500000029
        },
        {
          "name": "E3",
          "midi": 52,
          "time": 48.91303124999993,
          "velocity": 1,
          "duration": 0.2173912499999986
        },
        {
          "name": "B3",
          "midi": 59,
          "time": 49.13042249999993,
          "velocity": 1,
          "duration": 0.2173912499999986
        },
        {
          "name": "E4",
          "midi": 64,
          "time": 49.34781374999993,
          "velocity": 1,
          "duration": 0.2173912499999986
        },
        {
          "name": "B4",
          "midi": 71,
          "time": 49.56520499999993,
          "velocity": 1,
          "duration": 1.3043474999999987
        },
        {
          "name": "G4",
          "midi": 67,
          "time": 49.56520499999993,
          "velocity": 1,
          "duration": 1.3043474999999987
        },
        {
          "name": "D3",
          "midi": 50,
          "time": 50.86955249999993,
          "velocity": 1,
          "duration": 0.4347824999999972
        },
        {
          "name": "A3",
          "midi": 57,
          "time": 51.304334999999924,
          "velocity": 1,
          "duration": 0.4347824999999972
        },
        {
          "name": "D4",
          "midi": 62,
          "time": 51.73911749999992,
          "velocity": 1,
          "duration": 0.4347824999999972
        },
        {
          "name": "F#4",
          "midi": 66,
          "time": 51.73911749999992,
          "velocity": 1,
          "duration": 0.4347824999999972
        },
        {
          "name": "C3",
          "midi": 48,
          "time": 52.17389999999992,
          "velocity": 1,
          "duration": 0.4347824999999972
        },
        {
          "name": "G3",
          "midi": 55,
          "time": 52.608682499999915,
          "velocity": 1,
          "duration": 0.4347824999999972
        },
        {
          "name": "C4",
          "midi": 60,
          "time": 53.04346499999991,
          "velocity": 1,
          "duration": 0.4347824999999972
        },
        {
          "name": "E4",
          "midi": 64,
          "time": 53.04346499999991,
          "velocity": 1,
          "duration": 0.4347824999999972
        },
        {
          "name": "G2",
          "midi": 43,
          "time": 53.47824749999991,
          "velocity": 1,
          "duration": 0.4347824999999972
        },
        {
          "name": "G3",
          "midi": 55,
          "time": 53.91302999999991,
          "velocity": 1,
          "duration": 0.4347824999999972
        },
        {
          "name": "B3",
          "midi": 59,
          "time": 54.347812499999904,
          "velocity": 1,
          "duration": 0.4347824999999972
        },
        {
          "name": "D4",
          "midi": 62,
          "time": 54.347812499999904,
          "velocity": 1,
          "duration": 0.4347824999999972
        },
        {
          "name": "B2",
          "midi": 47,
          "time": 54.7825949999999,
          "velocity": 1,
          "duration": 0.4347824999999972
        },
        {
          "name": "F#3",
          "midi": 54,
          "time": 55.2173774999999,
          "velocity": 1,
          "duration": 0.4347824999999972
        },
        {
          "name": "A3",
          "midi": 57,
          "time": 55.652159999999895,
          "velocity": 1,
          "duration": 0.4347824999999972
        },
        {
          "name": "D#4",
          "midi": 63,
          "time": 55.652159999999895,
          "velocity": 1,
          "duration": 0.4347824999999972
        },
        {
          "name": "E2",
          "midi": 40,
          "time": 56.08694249999989,
          "velocity": 1,
          "duration": 0.4347824999999972
        },
        {
          "name": "G3",
          "midi": 55,
          "time": 56.52172499999989,
          "velocity": 1,
          "duration": 0.4347824999999972
        },
        {
          "name": "B3",
          "midi": 59,
          "time": 56.95650749999989,
          "velocity": 1,
          "duration": 0.4347824999999972
        },
        {
          "name": "E4",
          "midi": 64,
          "time": 57.391289999999884,
          "velocity": 1,
          "duration": 0.4347824999999972
        },
        {
          "name": "B3",
          "midi": 59,
          "time": 57.82607249999988,
          "velocity": 1,
          "duration": 0.4347824999999972
        },
        {
          "name": "G3",
          "midi": 55,
          "time": 58.26085499999988,
          "velocity": 1,
          "duration": 0.4347824999999972
        },
        {
          "name": "E2",
          "midi": 40,
          "time": 58.695637499999876,
          "velocity": 1,
          "duration": 0.4347824999999972
        },
        {
          "name": "G3",
          "midi": 55,
          "time": 59.13041999999987,
          "velocity": 1,
          "duration": 0.4347824999999972
        },
        {
          "name": "B3",
          "midi": 59,
          "time": 59.56520249999987,
          "velocity": 1,
          "duration": 0.4347824999999972
        },
        {
          "name": "E4",
          "midi": 64,
          "time": 59.99998499999987,
          "velocity": 1,
          "duration": 0.4347824999999972
        },
        {
          "name": "B3",
          "midi": 59,
          "time": 60.434767499999865,
          "velocity": 1,
          "duration": 0.4347824999999972
        },
        {
          "name": "G3",
          "midi": 55,
          "time": 60.86954999999986,
          "velocity": 1,
          "duration": 0.4347824999999972
        },
        {
          "name": "E2",
          "midi": 40,
          "time": 61.30433249999986,
          "velocity": 1,
          "duration": 0.4347824999999972
        },
        {
          "name": "G3",
          "midi": 55,
          "time": 61.739114999999856,
          "velocity": 1,
          "duration": 0.4347824999999972
        },
        {
          "name": "B3",
          "midi": 59,
          "time": 62.17389749999985,
          "velocity": 1,
          "duration": 0.4347824999999972
        },
        {
          "name": "G4",
          "midi": 67,
          "time": 62.60867999999985,
          "velocity": 1,
          "duration": 0.4347824999999972
        },
        {
          "name": "G3",
          "midi": 55,
          "time": 63.04346249999985,
          "velocity": 1,
          "duration": 0.2173912499999986
        },
        {
          "name": "E4",
          "midi": 64,
          "time": 63.260853749999846,
          "velocity": 1,
          "duration": 0.2173912499999986
        },
        {
          "name": "B3",
          "midi": 59,
          "time": 63.478244999999845,
          "velocity": 1,
          "duration": 0.2173912499999986
        },
        {
          "name": "G3",
          "midi": 55,
          "time": 63.69563624999984,
          "velocity": 1,
          "duration": 0.2173912499999986
        },
        {
          "name": "F#4",
          "midi": 66,
          "time": 63.91302749999984,
          "velocity": 1,
          "duration": 0.4347824999999972
        },
        {
          "name": "D3",
          "midi": 50,
          "time": 63.91302749999984,
          "velocity": 1,
          "duration": 0.4347824999999972
        },
        {
          "name": "D3",
          "midi": 50,
          "time": 64.34780999999984,
          "velocity": 1,
          "duration": 0.2173912500000057
        },
        {
          "name": "G4",
          "midi": 67,
          "time": 64.56520124999984,
          "velocity": 1,
          "duration": 0.2173912500000057
        },
        {
          "name": "D4",
          "midi": 62,
          "time": 64.78259249999985,
          "velocity": 1,
          "duration": 0.2173912500000057
        },
        {
          "name": "G3",
          "midi": 55,
          "time": 64.99998374999986,
          "velocity": 1,
          "duration": 0.2173912500000057
        },
        {
          "name": "E4",
          "midi": 64,
          "time": 65.21737499999986,
          "velocity": 1,
          "duration": 0.4347824999999972
        },
        {
          "name": "C3",
          "midi": 48,
          "time": 65.21737499999986,
          "velocity": 1,
          "duration": 0.4347824999999972
        },
        {
          "name": "D4",
          "midi": 62,
          "time": 65.65215749999986,
          "velocity": 1,
          "duration": 0.2173912500000057
        },
        {
          "name": "G3",
          "midi": 55,
          "time": 65.86954874999986,
          "velocity": 1,
          "duration": 0.2173912500000057
        },
        {
          "name": "G2",
          "midi": 43,
          "time": 66.08693999999987,
          "velocity": 1,
          "duration": 0.2173912500000057
        },
        {
          "name": "F#2",
          "midi": 42,
          "time": 66.30433124999988,
          "velocity": 1,
          "duration": 0.2173912500000057
        },
        {
          "name": "E2",
          "midi": 40,
          "time": 66.52172249999988,
          "velocity": 1,
          "duration": 0.4347824999999972
        },
        {
          "name": "G3",
          "midi": 55,
          "time": 66.95650499999988,
          "velocity": 1,
          "duration": 0.4347824999999972
        },
        {
          "name": "B3",
          "midi": 59,
          "time": 67.39128749999988,
          "velocity": 1,
          "duration": 0.4347824999999972
        },
        {
          "name": "G4",
          "midi": 67,
          "time": 67.82606999999987,
          "velocity": 1,
          "duration": 0.4347824999999972
        },
        {
          "name": "G3",
          "midi": 55,
          "time": 68.26085249999987,
          "velocity": 1,
          "duration": 0.2173912500000057
        },
        {
          "name": "E4",
          "midi": 64,
          "time": 68.47824374999988,
          "velocity": 1,
          "duration": 0.2173912500000057
        },
        {
          "name": "B3",
          "midi": 59,
          "time": 68.69563499999988,
          "velocity": 1,
          "duration": 0.2173912500000057
        },
        {
          "name": "G3",
          "midi": 55,
          "time": 68.91302624999989,
          "velocity": 1,
          "duration": 0.2173912500000057
        },
        {
          "name": "D3",
          "midi": 50,
          "time": 69.1304174999999,
          "velocity": 1,
          "duration": 0.4347824999999972
        },
        {
          "name": "F#4",
          "midi": 66,
          "time": 69.1304174999999,
          "velocity": 1,
          "duration": 0.4347824999999972
        },
        {
          "name": "D3",
          "midi": 50,
          "time": 69.56519999999989,
          "velocity": 1,
          "duration": 0.2173912500000057
        },
        {
          "name": "D4",
          "midi": 62,
          "time": 69.7825912499999,
          "velocity": 1,
          "duration": 0.2173912500000057
        },
        {
          "name": "A3",
          "midi": 57,
          "time": 69.9999824999999,
          "velocity": 1,
          "duration": 0.2173912500000057
        },
        {
          "name": "G3",
          "midi": 55,
          "time": 70.21737374999991,
          "velocity": 1,
          "duration": 0.2173912500000057
        },
        {
          "name": "D4",
          "midi": 62,
          "time": 70.43476499999991,
          "velocity": 1,
          "duration": 0.4347824999999972
        },
        {
          "name": "C3",
          "midi": 48,
          "time": 70.43476499999991,
          "velocity": 1,
          "duration": 0.4347824999999972
        },
        {
          "name": "G3",
          "midi": 55,
          "time": 70.86954749999991,
          "velocity": 1,
          "duration": 0.2173912500000057
        },
        {
          "name": "D4",
          "midi": 62,
          "time": 71.08693874999992,
          "velocity": 1,
          "duration": 0.2173912500000057
        },
        {
          "name": "G2",
          "midi": 43,
          "time": 71.30432999999992,
          "velocity": 1,
          "duration": 0.2173912500000057
        },
        {
          "name": "F#2",
          "midi": 42,
          "time": 71.52172124999993,
          "velocity": 1,
          "duration": 0.2173912500000057
        },
        {
          "name": "E2",
          "midi": 40,
          "time": 71.73911249999993,
          "velocity": 1,
          "duration": 0.4347824999999972
        },
        {
          "name": "G3",
          "midi": 55,
          "time": 72.17389499999993,
          "velocity": 1,
          "duration": 0.4347824999999972
        },
        {
          "name": "B3",
          "midi": 59,
          "time": 72.60867749999993,
          "velocity": 1,
          "duration": 0.4347824999999972
        },
        {
          "name": "G4",
          "midi": 67,
          "time": 73.04345999999993,
          "velocity": 1,
          "duration": 0.4347824999999972
        },
        {
          "name": "G3",
          "midi": 55,
          "time": 73.47824249999992,
          "velocity": 1,
          "duration": 0.2173912500000057
        },
        {
          "name": "E4",
          "midi": 64,
          "time": 73.69563374999993,
          "velocity": 1,
          "duration": 0.2173912500000057
        },
        {
          "name": "B3",
          "midi": 59,
          "time": 73.91302499999993,
          "velocity": 1,
          "duration": 0.2173912500000057
        },
        {
          "name": "G3",
          "midi": 55,
          "time": 74.13041624999994,
          "velocity": 1,
          "duration": 0.2173912500000057
        },
        {
          "name": "D3",
          "midi": 50,
          "time": 74.34780749999994,
          "velocity": 1,
          "duration": 0.4347824999999972
        },
        {
          "name": "F#4",
          "midi": 66,
          "time": 74.34780749999994,
          "velocity": 1,
          "duration": 0.4347824999999972
        },
        {
          "name": "D3",
          "midi": 50,
          "time": 74.78258999999994,
          "velocity": 1,
          "duration": 0.2173912500000057
        },
        {
          "name": "G4",
          "midi": 67,
          "time": 74.99998124999995,
          "velocity": 1,
          "duration": 0.2173912500000057
        },
        {
          "name": "D4",
          "midi": 62,
          "time": 75.21737249999995,
          "velocity": 1,
          "duration": 0.2173912500000057
        },
        {
          "name": "G3",
          "midi": 55,
          "time": 75.43476374999996,
          "velocity": 1,
          "duration": 0.2173912500000057
        },
        {
          "name": "G4",
          "midi": 67,
          "time": 75.65215499999996,
          "velocity": 1,
          "duration": 0.4347824999999972
        },
        {
          "name": "C3",
          "midi": 48,
          "time": 75.65215499999996,
          "velocity": 1,
          "duration": 0.4347824999999972
        },
        {
          "name": "D4",
          "midi": 62,
          "time": 76.08693749999996,
          "velocity": 1,
          "duration": 0.4347824999999972
        },
        {
          "name": "G3",
          "midi": 55,
          "time": 76.52171999999996,
          "velocity": 1,
          "duration": 0.4347824999999972
        },
        {
          "name": "G2",
          "midi": 43,
          "time": 76.95650249999996,
          "velocity": 1,
          "duration": 0.4347824999999972
        },
        {
          "name": "G3",
          "midi": 55,
          "time": 77.39128499999995,
          "velocity": 1,
          "duration": 0.4347824999999972
        },
        {
          "name": "G4",
          "midi": 67,
          "time": 77.82606749999995,
          "velocity": 1,
          "duration": 0.4347824999999972
        },
        {
          "name": "D4",
          "midi": 62,
          "time": 77.82606749999995,
          "velocity": 1,
          "duration": 0.4347824999999972
        },
        {
          "name": "B2",
          "midi": 47,
          "time": 78.26084999999995,
          "velocity": 1,
          "duration": 0.4347824999999972
        },
        {
          "name": "B3",
          "midi": 59,
          "time": 78.26084999999995,
          "velocity": 1,
          "duration": 0.4347824999999972
        },
        {
          "name": "A3",
          "midi": 57,
          "time": 78.26084999999995,
          "velocity": 1,
          "duration": 0.4347824999999972
        },
        {
          "name": "F#4",
          "midi": 66,
          "time": 78.26084999999995,
          "velocity": 1,
          "duration": 0.4347824999999972
        },
        {
          "name": "B2",
          "midi": 47,
          "time": 78.69563249999995,
          "velocity": 1,
          "duration": 0.2173912500000057
        },
        {
          "name": "F#4",
          "midi": 66,
          "time": 78.91302374999995,
          "velocity": 1,
          "duration": 0.2173912500000057
        },
        {
          "name": "B3",
          "midi": 59,
          "time": 79.13041499999996,
          "velocity": 1,
          "duration": 0.4347824999999972
        },
        {
          "name": "E2",
          "midi": 40,
          "time": 79.56519749999995,
          "velocity": 1,
          "duration": 0.4347824999999972
        },
        {
          "name": "E4",
          "midi": 64,
          "time": 79.56519749999995,
          "velocity": 1,
          "duration": 0.4347824999999972
        },
        {
          "name": "G3",
          "midi": 55,
          "time": 79.99997999999995,
          "velocity": 1,
          "duration": 0.4347824999999972
        },
        {
          "name": "B3",
          "midi": 59,
          "time": 80.43476249999995,
          "velocity": 1,
          "duration": 0.4347824999999972
        },
        {
          "name": "E4",
          "midi": 64,
          "time": 80.86954499999995,
          "velocity": 1,
          "duration": 0.4347824999999972
        },
        {
          "name": "B3",
          "midi": 59,
          "time": 81.30432749999994,
          "velocity": 1,
          "duration": 0.4347824999999972
        },
        {
          "name": "G3",
          "midi": 55,
          "time": 81.73910999999994,
          "velocity": 1,
          "duration": 0.4347824999999972
        },
        {
          "name": "E2",
          "midi": 40,
          "time": 82.17389249999994,
          "velocity": 1,
          "duration": 0.4347824999999972
        },
        {
          "name": "G3",
          "midi": 55,
          "time": 82.60867499999993,
          "velocity": 1,
          "duration": 0.4347824999999972
        },
        {
          "name": "B3",
          "midi": 59,
          "time": 83.04345749999993,
          "velocity": 1,
          "duration": 0.4347824999999972
        },
        {
          "name": "E4",
          "midi": 64,
          "time": 83.47823999999993,
          "velocity": 1,
          "duration": 0.4347824999999972
        },
        {
          "name": "B3",
          "midi": 59,
          "time": 83.91302249999993,
          "velocity": 1,
          "duration": 0.4347824999999972
        },
        {
          "name": "G2",
          "midi": 43,
          "time": 84.34780499999992,
          "velocity": 1,
          "duration": 0.2173912500000057
        },
        {
          "name": "F#2",
          "midi": 42,
          "time": 84.56519624999993,
          "velocity": 1,
          "duration": 0.2173912500000057
        },
        {
          "name": "E2",
          "midi": 40,
          "time": 84.78258749999993,
          "velocity": 1,
          "duration": 0.4347824999999972
        },
        {
          "name": "G3",
          "midi": 55,
          "time": 85.21736999999993,
          "velocity": 1,
          "duration": 0.4347824999999972
        },
        {
          "name": "B3",
          "midi": 59,
          "time": 85.65215249999993,
          "velocity": 1,
          "duration": 0.4347824999999972
        },
        {
          "name": "G4",
          "midi": 67,
          "time": 86.08693499999993,
          "velocity": 1,
          "duration": 0.4347824999999972
        },
        {
          "name": "G3",
          "midi": 55,
          "time": 86.52171749999992,
          "velocity": 1,
          "duration": 0.2173912500000057
        },
        {
          "name": "E4",
          "midi": 64,
          "time": 86.73910874999993,
          "velocity": 1,
          "duration": 0.2173912500000057
        },
        {
          "name": "B3",
          "midi": 59,
          "time": 86.95649999999993,
          "velocity": 1,
          "duration": 0.2173912500000057
        },
        {
          "name": "G3",
          "midi": 55,
          "time": 87.17389124999994,
          "velocity": 1,
          "duration": 0.2173912500000057
        },
        {
          "name": "F#4",
          "midi": 66,
          "time": 87.39128249999995,
          "velocity": 1,
          "duration": 0.4347824999999972
        },
        {
          "name": "D3",
          "midi": 50,
          "time": 87.39128249999995,
          "velocity": 1,
          "duration": 0.4347824999999972
        },
        {
          "name": "D3",
          "midi": 50,
          "time": 87.82606499999994,
          "velocity": 1,
          "duration": 0.2173912500000057
        },
        {
          "name": "G4",
          "midi": 67,
          "time": 88.04345624999995,
          "velocity": 1,
          "duration": 0.2173912500000057
        },
        {
          "name": "D4",
          "midi": 62,
          "time": 88.26084749999995,
          "velocity": 1,
          "duration": 0.2173912500000057
        },
        {
          "name": "G3",
          "midi": 55,
          "time": 88.47823874999996,
          "velocity": 1,
          "duration": 0.2173912500000057
        },
        {
          "name": "E4",
          "midi": 64,
          "time": 88.69562999999997,
          "velocity": 1,
          "duration": 0.4347824999999972
        },
        {
          "name": "C3",
          "midi": 48,
          "time": 88.69562999999997,
          "velocity": 1,
          "duration": 0.4347824999999972
        },
        {
          "name": "D4",
          "midi": 62,
          "time": 89.13041249999996,
          "velocity": 1,
          "duration": 0.2173912500000057
        },
        {
          "name": "G3",
          "midi": 55,
          "time": 89.34780374999997,
          "velocity": 1,
          "duration": 0.2173912500000057
        },
        {
          "name": "G2",
          "midi": 43,
          "time": 89.56519499999997,
          "velocity": 1,
          "duration": 0.2173912500000057
        },
        {
          "name": "F#2",
          "midi": 42,
          "time": 89.78258624999998,
          "velocity": 1,
          "duration": 0.2173912500000057
        },
        {
          "name": "E2",
          "midi": 40,
          "time": 89.99997749999999,
          "velocity": 1,
          "duration": 0.4347824999999972
        },
        {
          "name": "G3",
          "midi": 55,
          "time": 90.43475999999998,
          "velocity": 1,
          "duration": 0.4347824999999972
        },
        {
          "name": "B3",
          "midi": 59,
          "time": 90.86954249999998,
          "velocity": 1,
          "duration": 0.4347824999999972
        },
        {
          "name": "G4",
          "midi": 67,
          "time": 91.30432499999998,
          "velocity": 1,
          "duration": 0.4347824999999972
        },
        {
          "name": "G3",
          "midi": 55,
          "time": 91.73910749999997,
          "velocity": 1,
          "duration": 0.2173912500000057
        },
        {
          "name": "E4",
          "midi": 64,
          "time": 91.95649874999998,
          "velocity": 1,
          "duration": 0.2173912500000057
        },
        {
          "name": "B3",
          "midi": 59,
          "time": 92.17388999999999,
          "velocity": 1,
          "duration": 0.2173912500000057
        },
        {
          "name": "G3",
          "midi": 55,
          "time": 92.39128124999999,
          "velocity": 1,
          "duration": 0.2173912500000057
        },
        {
          "name": "D3",
          "midi": 50,
          "time": 92.6086725,
          "velocity": 1,
          "duration": 0.4347824999999972
        },
        {
          "name": "F#4",
          "midi": 66,
          "time": 92.6086725,
          "velocity": 1,
          "duration": 0.4347824999999972
        },
        {
          "name": "D3",
          "midi": 50,
          "time": 93.043455,
          "velocity": 1,
          "duration": 0.2173912500000057
        },
        {
          "name": "D4",
          "midi": 62,
          "time": 93.26084625,
          "velocity": 1,
          "duration": 0.2173912500000057
        },
        {
          "name": "A3",
          "midi": 57,
          "time": 93.4782375,
          "velocity": 1,
          "duration": 0.2173912500000057
        },
        {
          "name": "G3",
          "midi": 55,
          "time": 93.69562875000001,
          "velocity": 1,
          "duration": 0.2173912500000057
        },
        {
          "name": "D4",
          "midi": 62,
          "time": 93.91302000000002,
          "velocity": 1,
          "duration": 0.4347824999999972
        },
        {
          "name": "C3",
          "midi": 48,
          "time": 93.91302000000002,
          "velocity": 1,
          "duration": 0.4347824999999972
        },
        {
          "name": "G3",
          "midi": 55,
          "time": 94.34780250000001,
          "velocity": 1,
          "duration": 0.2173912500000057
        },
        {
          "name": "D4",
          "midi": 62,
          "time": 94.56519375000002,
          "velocity": 1,
          "duration": 0.2173912500000057
        },
        {
          "name": "G2",
          "midi": 43,
          "time": 94.78258500000003,
          "velocity": 1,
          "duration": 0.2173912500000057
        },
        {
          "name": "F#2",
          "midi": 42,
          "time": 94.99997625000003,
          "velocity": 1,
          "duration": 0.2173912500000057
        },
        {
          "name": "E2",
          "midi": 40,
          "time": 95.21736750000004,
          "velocity": 1,
          "duration": 0.4347824999999972
        },
        {
          "name": "G3",
          "midi": 55,
          "time": 95.65215000000003,
          "velocity": 1,
          "duration": 0.4347824999999972
        },
        {
          "name": "B3",
          "midi": 59,
          "time": 96.08693250000003,
          "velocity": 1,
          "duration": 0.4347824999999972
        },
        {
          "name": "G4",
          "midi": 67,
          "time": 96.52171500000003,
          "velocity": 1,
          "duration": 0.4347824999999972
        },
        {
          "name": "G3",
          "midi": 55,
          "time": 96.95649750000003,
          "velocity": 1,
          "duration": 0.2173912500000057
        },
        {
          "name": "E4",
          "midi": 64,
          "time": 97.17388875000003,
          "velocity": 1,
          "duration": 0.2173912500000057
        },
        {
          "name": "B3",
          "midi": 59,
          "time": 97.39128000000004,
          "velocity": 1,
          "duration": 0.2173912500000057
        },
        {
          "name": "G3",
          "midi": 55,
          "time": 97.60867125000004,
          "velocity": 1,
          "duration": 0.2173912500000057
        },
        {
          "name": "D3",
          "midi": 50,
          "time": 97.82606250000005,
          "velocity": 1,
          "duration": 0.4347824999999972
        },
        {
          "name": "F#4",
          "midi": 66,
          "time": 97.82606250000005,
          "velocity": 1,
          "duration": 0.4347824999999972
        },
        {
          "name": "D3",
          "midi": 50,
          "time": 98.26084500000005,
          "velocity": 1,
          "duration": 0.2173912500000057
        },
        {
          "name": "G4",
          "midi": 67,
          "time": 98.47823625000005,
          "velocity": 1,
          "duration": 0.2173912500000057
        },
        {
          "name": "D4",
          "midi": 62,
          "time": 98.69562750000006,
          "velocity": 1,
          "duration": 0.2173912500000057
        },
        {
          "name": "G3",
          "midi": 55,
          "time": 98.91301875000006,
          "velocity": 1,
          "duration": 0.2173912500000057
        },
        {
          "name": "G4",
          "midi": 67,
          "time": 99.13041000000007,
          "velocity": 1,
          "duration": 0.4347824999999972
        },
        {
          "name": "C3",
          "midi": 48,
          "time": 99.13041000000007,
          "velocity": 1,
          "duration": 0.4347824999999972
        },
        {
          "name": "D4",
          "midi": 62,
          "time": 99.56519250000007,
          "velocity": 1,
          "duration": 0.4347824999999972
        },
        {
          "name": "G3",
          "midi": 55,
          "time": 99.99997500000006,
          "velocity": 1,
          "duration": 0.4347824999999972
        },
        {
          "name": "G2",
          "midi": 43,
          "time": 100.43475750000006,
          "velocity": 1,
          "duration": 0.4347824999999972
        },
        {
          "name": "G3",
          "midi": 55,
          "time": 100.86954000000006,
          "velocity": 1,
          "duration": 0.4347824999999972
        },
        {
          "name": "G4",
          "midi": 67,
          "time": 101.30432250000005,
          "velocity": 1,
          "duration": 0.4347824999999972
        },
        {
          "name": "D4",
          "midi": 62,
          "time": 101.30432250000005,
          "velocity": 1,
          "duration": 0.4347824999999972
        },
        {
          "name": "B2",
          "midi": 47,
          "time": 101.73910500000005,
          "velocity": 1,
          "duration": 0.4347824999999972
        },
        {
          "name": "B3",
          "midi": 59,
          "time": 101.73910500000005,
          "velocity": 1,
          "duration": 0.4347824999999972
        },
        {
          "name": "A3",
          "midi": 57,
          "time": 101.73910500000005,
          "velocity": 1,
          "duration": 0.4347824999999972
        },
        {
          "name": "F#4",
          "midi": 66,
          "time": 101.73910500000005,
          "velocity": 1,
          "duration": 0.4347824999999972
        },
        {
          "name": "B2",
          "midi": 47,
          "time": 102.17388750000005,
          "velocity": 1,
          "duration": 0.2173912500000057
        },
        {
          "name": "F#4",
          "midi": 66,
          "time": 102.39127875000005,
          "velocity": 1,
          "duration": 0.2173912500000057
        },
        {
          "name": "B3",
          "midi": 59,
          "time": 102.60867000000006,
          "velocity": 1,
          "duration": 0.4347824999999972
        },
        {
          "name": "E2",
          "midi": 40,
          "time": 103.04345250000006,
          "velocity": 1,
          "duration": 0.4347824999999972
        },
        {
          "name": "E4",
          "midi": 64,
          "time": 103.04345250000006,
          "velocity": 1,
          "duration": 0.4347824999999972
        },
        {
          "name": "G3",
          "midi": 55,
          "time": 103.47823500000005,
          "velocity": 1,
          "duration": 0.4347824999999972
        },
        {
          "name": "B3",
          "midi": 59,
          "time": 103.91301750000005,
          "velocity": 1,
          "duration": 0.4347824999999972
        },
        {
          "name": "E4",
          "midi": 64,
          "time": 104.34780000000005,
          "velocity": 1,
          "duration": 0.4347824999999972
        },
        {
          "name": "B3",
          "midi": 59,
          "time": 104.78258250000005,
          "velocity": 1,
          "duration": 0.4347824999999972
        },
        {
          "name": "G3",
          "midi": 55,
          "time": 105.21736500000004,
          "velocity": 1,
          "duration": 0.4347824999999972
        },
        {
          "name": "E2",
          "midi": 40,
          "time": 105.65214750000004,
          "velocity": 1,
          "duration": 0.4347824999999972
        },
        {
          "name": "G3",
          "midi": 55,
          "time": 106.08693000000004,
          "velocity": 1,
          "duration": 0.4347824999999972
        },
        {
          "name": "B3",
          "midi": 59,
          "time": 106.52171250000004,
          "velocity": 1,
          "duration": 0.4347824999999972
        },
        {
          "name": "E4",
          "midi": 64,
          "time": 106.95649500000003,
          "velocity": 1,
          "duration": 0.4347824999999972
        },
        {
          "name": "B3",
          "midi": 59,
          "time": 107.39127750000003,
          "velocity": 1,
          "duration": 0.4347824999999972
        },
        {
          "name": "G2",
          "midi": 43,
          "time": 107.82606000000003,
          "velocity": 1,
          "duration": 0.2173912500000057
        },
        {
          "name": "F#2",
          "midi": 42,
          "time": 108.04345125000003,
          "velocity": 1,
          "duration": 0.2173912500000057
        },
        {
          "name": "E2",
          "midi": 40,
          "time": 108.26084250000004,
          "velocity": 1,
          "duration": 0.4347824999999972
        },
        {
          "name": "G3",
          "midi": 55,
          "time": 108.69562500000004,
          "velocity": 1,
          "duration": 0.4347824999999972
        },
        {
          "name": "B3",
          "midi": 59,
          "time": 109.13040750000003,
          "velocity": 1,
          "duration": 0.4347824999999972
        },
        {
          "name": "G4",
          "midi": 67,
          "time": 109.56519000000003,
          "velocity": 1,
          "duration": 0.4347824999999972
        },
        {
          "name": "G3",
          "midi": 55,
          "time": 109.99997250000003,
          "velocity": 1,
          "duration": 0.2173912500000057
        },
        {
          "name": "E4",
          "midi": 64,
          "time": 110.21736375000003,
          "velocity": 1,
          "duration": 0.2173912500000057
        },
        {
          "name": "B3",
          "midi": 59,
          "time": 110.43475500000004,
          "velocity": 1,
          "duration": 0.2173912500000057
        },
        {
          "name": "G3",
          "midi": 55,
          "time": 110.65214625000004,
          "velocity": 1,
          "duration": 0.2173912500000057
        },
        {
          "name": "F#4",
          "midi": 66,
          "time": 110.86953750000005,
          "velocity": 1,
          "duration": 0.4347824999999972
        },
        {
          "name": "D3",
          "midi": 50,
          "time": 110.86953750000005,
          "velocity": 1,
          "duration": 0.4347824999999972
        },
        {
          "name": "D3",
          "midi": 50,
          "time": 111.30432000000005,
          "velocity": 1,
          "duration": 0.2173912500000057
        },
        {
          "name": "G4",
          "midi": 67,
          "time": 111.52171125000005,
          "velocity": 1,
          "duration": 0.2173912500000057
        },
        {
          "name": "D4",
          "midi": 62,
          "time": 111.73910250000006,
          "velocity": 1,
          "duration": 0.2173912500000057
        },
        {
          "name": "G3",
          "midi": 55,
          "time": 111.95649375000006,
          "velocity": 1,
          "duration": 0.2173912500000057
        },
        {
          "name": "E4",
          "midi": 64,
          "time": 112.17388500000007,
          "velocity": 1,
          "duration": 0.4347824999999972
        },
        {
          "name": "C3",
          "midi": 48,
          "time": 112.17388500000007,
          "velocity": 1,
          "duration": 0.4347824999999972
        },
        {
          "name": "D4",
          "midi": 62,
          "time": 112.60866750000007,
          "velocity": 1,
          "duration": 0.2173912500000057
        },
        {
          "name": "G3",
          "midi": 55,
          "time": 112.82605875000007,
          "velocity": 1,
          "duration": 0.2173912500000057
        },
        {
          "name": "G2",
          "midi": 43,
          "time": 113.04345000000008,
          "velocity": 1,
          "duration": 0.2173912500000057
        },
        {
          "name": "F#2",
          "midi": 42,
          "time": 113.26084125000008,
          "velocity": 1,
          "duration": 0.2173912500000057
        },
        {
          "name": "E2",
          "midi": 40,
          "time": 113.47823250000009,
          "velocity": 1,
          "duration": 0.4347824999999972
        },
        {
          "name": "G3",
          "midi": 55,
          "time": 113.91301500000009,
          "velocity": 1,
          "duration": 0.4347824999999972
        },
        {
          "name": "B3",
          "midi": 59,
          "time": 114.34779750000008,
          "velocity": 1,
          "duration": 0.4347824999999972
        },
        {
          "name": "G4",
          "midi": 67,
          "time": 114.78258000000008,
          "velocity": 1,
          "duration": 0.4347824999999972
        },
        {
          "name": "G3",
          "midi": 55,
          "time": 115.21736250000008,
          "velocity": 1,
          "duration": 0.2173912500000057
        },
        {
          "name": "E4",
          "midi": 64,
          "time": 115.43475375000008,
          "velocity": 1,
          "duration": 0.2173912500000057
        },
        {
          "name": "B3",
          "midi": 59,
          "time": 115.65214500000009,
          "velocity": 1,
          "duration": 0.2173912500000057
        },
        {
          "name": "G3",
          "midi": 55,
          "time": 115.8695362500001,
          "velocity": 1,
          "duration": 0.2173912500000057
        },
        {
          "name": "D3",
          "midi": 50,
          "time": 116.0869275000001,
          "velocity": 1,
          "duration": 0.4347824999999972
        },
        {
          "name": "F#4",
          "midi": 66,
          "time": 116.0869275000001,
          "velocity": 1,
          "duration": 0.4347824999999972
        },
        {
          "name": "D3",
          "midi": 50,
          "time": 116.5217100000001,
          "velocity": 1,
          "duration": 0.2173912500000057
        },
        {
          "name": "D4",
          "midi": 62,
          "time": 116.7391012500001,
          "velocity": 1,
          "duration": 0.2173912500000057
        },
        {
          "name": "A3",
          "midi": 57,
          "time": 116.95649250000011,
          "velocity": 1,
          "duration": 0.2173912500000057
        },
        {
          "name": "G3",
          "midi": 55,
          "time": 117.17388375000012,
          "velocity": 1,
          "duration": 0.2173912500000057
        },
        {
          "name": "D4",
          "midi": 62,
          "time": 117.39127500000012,
          "velocity": 1,
          "duration": 0.4347824999999972
        },
        {
          "name": "C3",
          "midi": 48,
          "time": 117.39127500000012,
          "velocity": 1,
          "duration": 0.4347824999999972
        },
        {
          "name": "G3",
          "midi": 55,
          "time": 117.82605750000012,
          "velocity": 1,
          "duration": 0.2173912500000057
        },
        {
          "name": "D4",
          "midi": 62,
          "time": 118.04344875000012,
          "velocity": 1,
          "duration": 0.2173912500000057
        },
        {
          "name": "G2",
          "midi": 43,
          "time": 118.26084000000013,
          "velocity": 1,
          "duration": 0.2173912500000057
        },
        {
          "name": "F#2",
          "midi": 42,
          "time": 118.47823125000014,
          "velocity": 1,
          "duration": 0.2173912500000057
        },
        {
          "name": "E2",
          "midi": 40,
          "time": 118.69562250000014,
          "velocity": 1,
          "duration": 0.4347824999999972
        },
        {
          "name": "G3",
          "midi": 55,
          "time": 119.13040500000014,
          "velocity": 1,
          "duration": 0.4347824999999972
        },
        {
          "name": "B3",
          "midi": 59,
          "time": 119.56518750000014,
          "velocity": 1,
          "duration": 0.4347824999999972
        },
        {
          "name": "G4",
          "midi": 67,
          "time": 119.99997000000013,
          "velocity": 1,
          "duration": 0.4347824999999972
        },
        {
          "name": "G3",
          "midi": 55,
          "time": 120.43475250000013,
          "velocity": 1,
          "duration": 0.2173912500000057
        },
        {
          "name": "E4",
          "midi": 64,
          "time": 120.65214375000014,
          "velocity": 1,
          "duration": 0.2173912500000057
        },
        {
          "name": "B3",
          "midi": 59,
          "time": 120.86953500000014,
          "velocity": 1,
          "duration": 0.2173912500000057
        },
        {
          "name": "G3",
          "midi": 55,
          "time": 121.08692625000015,
          "velocity": 1,
          "duration": 0.2173912500000057
        },
        {
          "name": "D3",
          "midi": 50,
          "time": 121.30431750000015,
          "velocity": 1,
          "duration": 0.4347824999999972
        },
        {
          "name": "F#4",
          "midi": 66,
          "time": 121.30431750000015,
          "velocity": 1,
          "duration": 0.4347824999999972
        },
        {
          "name": "D3",
          "midi": 50,
          "time": 121.73910000000015,
          "velocity": 1,
          "duration": 0.2173912500000057
        },
        {
          "name": "G4",
          "midi": 67,
          "time": 121.95649125000016,
          "velocity": 1,
          "duration": 0.2173912500000057
        },
        {
          "name": "D4",
          "midi": 62,
          "time": 122.17388250000016,
          "velocity": 1,
          "duration": 0.2173912500000057
        },
        {
          "name": "G3",
          "midi": 55,
          "time": 122.39127375000017,
          "velocity": 1,
          "duration": 0.2173912500000057
        },
        {
          "name": "G4",
          "midi": 67,
          "time": 122.60866500000017,
          "velocity": 1,
          "duration": 0.4347824999999972
        },
        {
          "name": "C3",
          "midi": 48,
          "time": 122.60866500000017,
          "velocity": 1,
          "duration": 0.4347824999999972
        },
        {
          "name": "D4",
          "midi": 62,
          "time": 123.04344750000017,
          "velocity": 1,
          "duration": 0.4347824999999972
        },
        {
          "name": "G3",
          "midi": 55,
          "time": 123.47823000000017,
          "velocity": 1,
          "duration": 0.4347824999999972
        },
        {
          "name": "G2",
          "midi": 43,
          "time": 123.91301250000016,
          "velocity": 1,
          "duration": 0.4347824999999972
        },
        {
          "name": "G3",
          "midi": 55,
          "time": 124.34779500000016,
          "velocity": 1,
          "duration": 0.4347824999999972
        },
        {
          "name": "G4",
          "midi": 67,
          "time": 124.78257750000016,
          "velocity": 1,
          "duration": 0.4347824999999972
        },
        {
          "name": "D4",
          "midi": 62,
          "time": 124.78257750000016,
          "velocity": 1,
          "duration": 0.4347824999999972
        },
        {
          "name": "B2",
          "midi": 47,
          "time": 125.21736000000016,
          "velocity": 1,
          "duration": 0.4347824999999972
        },
        {
          "name": "B3",
          "midi": 59,
          "time": 125.21736000000016,
          "velocity": 1,
          "duration": 0.4347824999999972
        },
        {
          "name": "A3",
          "midi": 57,
          "time": 125.21736000000016,
          "velocity": 1,
          "duration": 0.4347824999999972
        },
        {
          "name": "F#4",
          "midi": 66,
          "time": 125.21736000000016,
          "velocity": 1,
          "duration": 0.4347824999999972
        },
        {
          "name": "B2",
          "midi": 47,
          "time": 125.65214250000015,
          "velocity": 1,
          "duration": 0.2173912500000057
        },
        {
          "name": "F#4",
          "midi": 66,
          "time": 125.86953375000016,
          "velocity": 1,
          "duration": 0.2173912500000057
        },
        {
          "name": "B3",
          "midi": 59,
          "time": 126.08692500000016,
          "velocity": 1,
          "duration": 0.4347824999999972
        },
        {
          "name": "E2",
          "midi": 40,
          "time": 126.52170750000016,
          "velocity": 1,
          "duration": 0.4347824999999972
        },
        {
          "name": "E4",
          "midi": 64,
          "time": 126.52170750000016,
          "velocity": 1,
          "duration": 0.4347824999999972
        },
        {
          "name": "G3",
          "midi": 55,
          "time": 126.95649000000016,
          "velocity": 1,
          "duration": 0.4347824999999972
        },
        {
          "name": "B3",
          "midi": 59,
          "time": 127.39127250000016,
          "velocity": 1,
          "duration": 0.4347824999999972
        },
        {
          "name": "E4",
          "midi": 64,
          "time": 127.82605500000015,
          "velocity": 1,
          "duration": 0.4347824999999972
        },
        {
          "name": "B3",
          "midi": 59,
          "time": 128.26083750000015,
          "velocity": 1,
          "duration": 0.4347825000000114
        },
        {
          "name": "G3",
          "midi": 55,
          "time": 128.69562000000016,
          "velocity": 1,
          "duration": 0.4347825000000114
        },
        {
          "name": "E4",
          "midi": 64,
          "time": 129.13040250000017,
          "velocity": 1,
          "duration": 1.3043475000000058
        },
        {
          "name": "C4",
          "midi": 60,
          "time": 129.13040250000017,
          "velocity": 1,
          "duration": 1.3043475000000058
        },
        {
          "name": "G3",
          "midi": 55,
          "time": 129.13040250000017,
          "velocity": 1,
          "duration": 1.3043475000000058
        },
        {
          "name": "E3",
          "midi": 52,
          "time": 129.13040250000017,
          "velocity": 1,
          "duration": 1.3043475000000058
        },
        {
          "name": "C3",
          "midi": 48,
          "time": 129.13040250000017,
          "velocity": 1,
          "duration": 1.3043475000000058
        },
        {
          "name": "C4",
          "midi": 60,
          "time": 130.43475000000018,
          "velocity": 1,
          "duration": 1.3043475000000058
        },
        {
          "name": "G#3",
          "midi": 56,
          "time": 130.43475000000018,
          "velocity": 1,
          "duration": 1.3043475000000058
        },
        {
          "name": "D#3",
          "midi": 51,
          "time": 130.43475000000018,
          "velocity": 1,
          "duration": 1.3043475000000058
        },
        {
          "name": "A2",
          "midi": 45,
          "time": 130.43475000000018,
          "velocity": 1,
          "duration": 1.3043475000000058
        },
        {
          "name": "E2",
          "midi": 40,
          "time": 143.47822500000018,
          "velocity": 1,
          "duration": 0.4347825000000114
        },
        {
          "name": "G3",
          "midi": 55,
          "time": 143.9130075000002,
          "velocity": 1,
          "duration": 0.4347825000000114
        },
        {
          "name": "B3",
          "midi": 59,
          "time": 144.3477900000002,
          "velocity": 1,
          "duration": 0.4347825000000114
        },
        {
          "name": "E4",
          "midi": 64,
          "time": 144.7825725000002,
          "velocity": 1,
          "duration": 0.4347825000000114
        },
        {
          "name": "B3",
          "midi": 59,
          "time": 145.21735500000023,
          "velocity": 1,
          "duration": 0.4347825000000114
        },
        {
          "name": "G3",
          "midi": 55,
          "time": 145.65213750000024,
          "velocity": 1,
          "duration": 0.4347825000000114
        },
        {
          "name": "E2",
          "midi": 40,
          "time": 146.08692000000025,
          "velocity": 1,
          "duration": 0.4347825000000114
        },
        {
          "name": "G3",
          "midi": 55,
          "time": 146.52170250000026,
          "velocity": 1,
          "duration": 0.4347825000000114
        },
        {
          "name": "B3",
          "midi": 59,
          "time": 146.95648500000027,
          "velocity": 1,
          "duration": 0.4347825000000114
        },
        {
          "name": "E4",
          "midi": 64,
          "time": 147.39126750000028,
          "velocity": 1,
          "duration": 0.4347825000000114
        },
        {
          "name": "B3",
          "midi": 59,
          "time": 147.8260500000003,
          "velocity": 1,
          "duration": 0.4347825000000114
        },
        {
          "name": "G3",
          "midi": 55,
          "time": 148.2608325000003,
          "velocity": 1,
          "duration": 0.4347825000000114
        },
        {
          "name": "E2",
          "midi": 40,
          "time": 148.69561500000032,
          "velocity": 1,
          "duration": 0.4347825000000114
        },
        {
          "name": "G3",
          "midi": 55,
          "time": 149.13039750000033,
          "velocity": 1,
          "duration": 0.4347825000000114
        },
        {
          "name": "B3",
          "midi": 59,
          "time": 149.56518000000034,
          "velocity": 1,
          "duration": 0.4347825000000114
        },
        {
          "name": "G4",
          "midi": 67,
          "time": 149.99996250000035,
          "velocity": 1,
          "duration": 0.4347825000000114
        },
        {
          "name": "G3",
          "midi": 55,
          "time": 150.43474500000036,
          "velocity": 1,
          "duration": 0.2173912499999915
        },
        {
          "name": "E4",
          "midi": 64,
          "time": 150.65213625000035,
          "velocity": 1,
          "duration": 0.2173912499999915
        },
        {
          "name": "B3",
          "midi": 59,
          "time": 150.86952750000034,
          "velocity": 1,
          "duration": 0.2173912499999915
        },
        {
          "name": "G3",
          "midi": 55,
          "time": 151.08691875000034,
          "velocity": 1,
          "duration": 0.2173912499999915
        },
        {
          "name": "F#4",
          "midi": 66,
          "time": 151.30431000000033,
          "velocity": 1,
          "duration": 0.4347825000000114
        },
        {
          "name": "D3",
          "midi": 50,
          "time": 151.30431000000033,
          "velocity": 1,
          "duration": 0.4347825000000114
        },
        {
          "name": "D3",
          "midi": 50,
          "time": 151.73909250000034,
          "velocity": 1,
          "duration": 0.2173912499999915
        },
        {
          "name": "G4",
          "midi": 67,
          "time": 151.95648375000033,
          "velocity": 1,
          "duration": 0.2173912499999915
        },
        {
          "name": "D4",
          "midi": 62,
          "time": 152.17387500000032,
          "velocity": 1,
          "duration": 0.2173912499999915
        },
        {
          "name": "G3",
          "midi": 55,
          "time": 152.3912662500003,
          "velocity": 1,
          "duration": 0.2173912499999915
        },
        {
          "name": "E4",
          "midi": 64,
          "time": 152.6086575000003,
          "velocity": 1,
          "duration": 0.4347825000000114
        },
        {
          "name": "C3",
          "midi": 48,
          "time": 152.6086575000003,
          "velocity": 1,
          "duration": 0.4347825000000114
        },
        {
          "name": "D4",
          "midi": 62,
          "time": 153.04344000000032,
          "velocity": 1,
          "duration": 0.2173912499999915
        },
        {
          "name": "G3",
          "midi": 55,
          "time": 153.2608312500003,
          "velocity": 1,
          "duration": 0.2173912499999915
        },
        {
          "name": "G2",
          "midi": 43,
          "time": 153.4782225000003,
          "velocity": 1,
          "duration": 0.2173912499999915
        },
        {
          "name": "F#2",
          "midi": 42,
          "time": 153.6956137500003,
          "velocity": 1,
          "duration": 0.2173912499999915
        },
        {
          "name": "E2",
          "midi": 40,
          "time": 153.91300500000028,
          "velocity": 1,
          "duration": 0.4347825000000114
        },
        {
          "name": "G3",
          "midi": 55,
          "time": 154.3477875000003,
          "velocity": 1,
          "duration": 0.4347825000000114
        },
        {
          "name": "B3",
          "midi": 59,
          "time": 154.7825700000003,
          "velocity": 1,
          "duration": 0.4347825000000114
        },
        {
          "name": "G4",
          "midi": 67,
          "time": 155.21735250000032,
          "velocity": 1,
          "duration": 0.4347825000000114
        },
        {
          "name": "G3",
          "midi": 55,
          "time": 155.65213500000033,
          "velocity": 1,
          "duration": 0.2173912499999915
        },
        {
          "name": "E4",
          "midi": 64,
          "time": 155.86952625000032,
          "velocity": 1,
          "duration": 0.2173912499999915
        },
        {
          "name": "B3",
          "midi": 59,
          "time": 156.0869175000003,
          "velocity": 1,
          "duration": 0.2173912499999915
        },
        {
          "name": "G3",
          "midi": 55,
          "time": 156.3043087500003,
          "velocity": 1,
          "duration": 0.2173912499999915
        },
        {
          "name": "D3",
          "midi": 50,
          "time": 156.5217000000003,
          "velocity": 1,
          "duration": 0.4347825000000114
        },
        {
          "name": "F#4",
          "midi": 66,
          "time": 156.5217000000003,
          "velocity": 1,
          "duration": 0.4347825000000114
        },
        {
          "name": "D3",
          "midi": 50,
          "time": 156.9564825000003,
          "velocity": 1,
          "duration": 0.2173912499999915
        },
        {
          "name": "D4",
          "midi": 62,
          "time": 157.1738737500003,
          "velocity": 1,
          "duration": 0.2173912499999915
        },
        {
          "name": "A3",
          "midi": 57,
          "time": 157.3912650000003,
          "velocity": 1,
          "duration": 0.2173912499999915
        },
        {
          "name": "G3",
          "midi": 55,
          "time": 157.60865625000028,
          "velocity": 1,
          "duration": 0.2173912499999915
        },
        {
          "name": "D4",
          "midi": 62,
          "time": 157.82604750000027,
          "velocity": 1,
          "duration": 0.4347825000000114
        },
        {
          "name": "C3",
          "midi": 48,
          "time": 157.82604750000027,
          "velocity": 1,
          "duration": 0.4347825000000114
        },
        {
          "name": "G3",
          "midi": 55,
          "time": 158.26083000000028,
          "velocity": 1,
          "duration": 0.2173912499999915
        },
        {
          "name": "D4",
          "midi": 62,
          "time": 158.47822125000027,
          "velocity": 1,
          "duration": 0.2173912499999915
        },
        {
          "name": "G2",
          "midi": 43,
          "time": 158.69561250000027,
          "velocity": 1,
          "duration": 0.2173912499999915
        },
        {
          "name": "F#2",
          "midi": 42,
          "time": 158.91300375000026,
          "velocity": 1,
          "duration": 0.2173912499999915
        },
        {
          "name": "E2",
          "midi": 40,
          "time": 159.13039500000025,
          "velocity": 1,
          "duration": 0.4347825000000114
        },
        {
          "name": "G3",
          "midi": 55,
          "time": 159.56517750000026,
          "velocity": 1,
          "duration": 0.4347825000000114
        },
        {
          "name": "B3",
          "midi": 59,
          "time": 159.99996000000027,
          "velocity": 1,
          "duration": 0.4347825000000114
        },
        {
          "name": "G4",
          "midi": 67,
          "time": 160.43474250000028,
          "velocity": 1,
          "duration": 0.4347825000000114
        },
        {
          "name": "G3",
          "midi": 55,
          "time": 160.8695250000003,
          "velocity": 1,
          "duration": 0.2173912499999915
        },
        {
          "name": "E4",
          "midi": 64,
          "time": 161.0869162500003,
          "velocity": 1,
          "duration": 0.2173912499999915
        },
        {
          "name": "B3",
          "midi": 59,
          "time": 161.30430750000028,
          "velocity": 1,
          "duration": 0.2173912499999915
        },
        {
          "name": "G3",
          "midi": 55,
          "time": 161.52169875000027,
          "velocity": 1,
          "duration": 0.2173912499999915
        },
        {
          "name": "D3",
          "midi": 50,
          "time": 161.73909000000026,
          "velocity": 1,
          "duration": 0.4347825000000114
        },
        {
          "name": "F#4",
          "midi": 66,
          "time": 161.73909000000026,
          "velocity": 1,
          "duration": 0.4347825000000114
        },
        {
          "name": "D3",
          "midi": 50,
          "time": 162.17387250000027,
          "velocity": 1,
          "duration": 0.2173912499999915
        },
        {
          "name": "G4",
          "midi": 67,
          "time": 162.39126375000026,
          "velocity": 1,
          "duration": 0.2173912499999915
        },
        {
          "name": "D4",
          "midi": 62,
          "time": 162.60865500000025,
          "velocity": 1,
          "duration": 0.2173912499999915
        },
        {
          "name": "G3",
          "midi": 55,
          "time": 162.82604625000025,
          "velocity": 1,
          "duration": 0.2173912499999915
        },
        {
          "name": "G4",
          "midi": 67,
          "time": 163.04343750000024,
          "velocity": 1,
          "duration": 0.4347825000000114
        },
        {
          "name": "C3",
          "midi": 48,
          "time": 163.04343750000024,
          "velocity": 1,
          "duration": 0.4347825000000114
        },
        {
          "name": "D4",
          "midi": 62,
          "time": 163.47822000000025,
          "velocity": 1,
          "duration": 0.4347825000000114
        },
        {
          "name": "G3",
          "midi": 55,
          "time": 163.91300250000026,
          "velocity": 1,
          "duration": 0.4347825000000114
        },
        {
          "name": "G2",
          "midi": 43,
          "time": 164.34778500000027,
          "velocity": 1,
          "duration": 0.4347825000000114
        },
        {
          "name": "G3",
          "midi": 55,
          "time": 164.78256750000028,
          "velocity": 1,
          "duration": 0.4347825000000114
        },
        {
          "name": "G4",
          "midi": 67,
          "time": 165.2173500000003,
          "velocity": 1,
          "duration": 0.4347825000000114
        },
        {
          "name": "D4",
          "midi": 62,
          "time": 165.2173500000003,
          "velocity": 1,
          "duration": 0.4347825000000114
        },
        {
          "name": "B2",
          "midi": 47,
          "time": 165.6521325000003,
          "velocity": 1,
          "duration": 0.4347825000000114
        },
        {
          "name": "B3",
          "midi": 59,
          "time": 165.6521325000003,
          "velocity": 1,
          "duration": 0.4347825000000114
        },
        {
          "name": "A3",
          "midi": 57,
          "time": 165.6521325000003,
          "velocity": 1,
          "duration": 0.4347825000000114
        },
        {
          "name": "F#4",
          "midi": 66,
          "time": 165.6521325000003,
          "velocity": 1,
          "duration": 0.4347825000000114
        },
        {
          "name": "B2",
          "midi": 47,
          "time": 166.08691500000032,
          "velocity": 1,
          "duration": 0.2173912499999915
        },
        {
          "name": "F#4",
          "midi": 66,
          "time": 166.3043062500003,
          "velocity": 1,
          "duration": 0.2173912499999915
        },
        {
          "name": "B3",
          "midi": 59,
          "time": 166.5216975000003,
          "velocity": 1,
          "duration": 0.4347825000000114
        },
        {
          "name": "E2",
          "midi": 40,
          "time": 166.9564800000003,
          "velocity": 1,
          "duration": 0.4347825000000114
        },
        {
          "name": "E4",
          "midi": 64,
          "time": 166.9564800000003,
          "velocity": 1,
          "duration": 0.4347825000000114
        },
        {
          "name": "G3",
          "midi": 55,
          "time": 167.39126250000032,
          "velocity": 1,
          "duration": 0.4347825000000114
        },
        {
          "name": "B3",
          "midi": 59,
          "time": 167.82604500000033,
          "velocity": 1,
          "duration": 0.4347825000000114
        },
        {
          "name": "E4",
          "midi": 64,
          "time": 168.26082750000035,
          "velocity": 1,
          "duration": 0.4347825000000114
        },
        {
          "name": "B3",
          "midi": 59,
          "time": 168.69561000000036,
          "velocity": 1,
          "duration": 0.4347825000000114
        },
        {
          "name": "G3",
          "midi": 55,
          "time": 169.13039250000037,
          "velocity": 1,
          "duration": 0.4347825000000114
        },
        {
          "name": "E4",
          "midi": 64,
          "time": 169.56517500000038,
          "velocity": 1,
          "duration": 2.6086950000000115
        },
        {
          "name": "C4",
          "midi": 60,
          "time": 169.56517500000038,
          "velocity": 1,
          "duration": 2.6086950000000115
        },
        {
          "name": "G3",
          "midi": 55,
          "time": 169.56517500000038,
          "velocity": 1,
          "duration": 2.6086950000000115
        },
        {
          "name": "E3",
          "midi": 52,
          "time": 169.56517500000038,
          "velocity": 1,
          "duration": 2.6086950000000115
        },
        {
          "name": "C3",
          "midi": 48,
          "time": 169.56517500000038,
          "velocity": 1,
          "duration": 2.6086950000000115
        },
        {
          "name": "C#4",
          "midi": 61,
          "time": 170.8695225000004,
          "velocity": 1,
          "duration": 1.3043475000000058
        },
        {
          "name": "A3",
          "midi": 57,
          "time": 170.8695225000004,
          "velocity": 1,
          "duration": 1.3043475000000058
        },
        {
          "name": "E3",
          "midi": 52,
          "time": 170.8695225000004,
          "velocity": 1,
          "duration": 1.3043475000000058
        },
        {
          "name": "A2",
          "midi": 45,
          "time": 170.8695225000004,
          "velocity": 1,
          "duration": 1.3043475000000058
        },
        {
          "name": "E2",
          "midi": 40,
          "time": 183.9129975000004,
          "velocity": 1,
          "duration": 0.4347825000000114
        },
        {
          "name": "G3",
          "midi": 55,
          "time": 184.3477800000004,
          "velocity": 1,
          "duration": 0.4347825000000114
        },
        {
          "name": "B3",
          "midi": 59,
          "time": 184.7825625000004,
          "velocity": 1,
          "duration": 0.4347825000000114
        },
        {
          "name": "E4",
          "midi": 64,
          "time": 185.21734500000042,
          "velocity": 1,
          "duration": 0.4347825000000114
        },
        {
          "name": "B3",
          "midi": 59,
          "time": 185.65212750000043,
          "velocity": 1,
          "duration": 0.4347825000000114
        },
        {
          "name": "G3",
          "midi": 55,
          "time": 186.08691000000044,
          "velocity": 1,
          "duration": 0.4347825000000114
        },
        {
          "name": "E2",
          "midi": 40,
          "time": 186.52169250000046,
          "velocity": 1,
          "duration": 0.4347825000000114
        },
        {
          "name": "G3",
          "midi": 55,
          "time": 186.95647500000047,
          "velocity": 1,
          "duration": 0.4347825000000114
        },
        {
          "name": "B3",
          "midi": 59,
          "time": 187.39125750000048,
          "velocity": 1,
          "duration": 0.4347825000000114
        },
        {
          "name": "E4",
          "midi": 64,
          "time": 187.8260400000005,
          "velocity": 1,
          "duration": 0.4347825000000114
        },
        {
          "name": "B3",
          "midi": 59,
          "time": 188.2608225000005,
          "velocity": 1,
          "duration": 0.4347825000000114
        },
        {
          "name": "G3",
          "midi": 55,
          "time": 188.6956050000005,
          "velocity": 1,
          "duration": 0.4347825000000114
        },
        {
          "name": "E5",
          "midi": 76,
          "time": 189.13038750000052,
          "velocity": 1,
          "duration": 0.4347825000000114
        },
        {
          "name": "B4",
          "midi": 71,
          "time": 189.56517000000053,
          "velocity": 1,
          "duration": 0.8695649999999944
        },
        {
          "name": "F#5",
          "midi": 78,
          "time": 190.43473500000053,
          "velocity": 1,
          "duration": 0.4347825000000114
        },
        {
          "name": "B4",
          "midi": 71,
          "time": 190.86951750000054,
          "velocity": 1,
          "duration": 0.8695649999999944
        },
        {
          "name": "G5",
          "midi": 79,
          "time": 191.73908250000053,
          "velocity": 1,
          "duration": 0.4347825000000114
        },
        {
          "name": "B4",
          "midi": 71,
          "time": 192.17386500000055,
          "velocity": 1,
          "duration": 0.8695649999999944
        },
        {
          "name": "A5",
          "midi": 81,
          "time": 193.04343000000054,
          "velocity": 1,
          "duration": 0.4347825000000114
        },
        {
          "name": "B4",
          "midi": 71,
          "time": 193.47821250000055,
          "velocity": 1,
          "duration": 0.8695649999999944
        },
        {
          "name": "C5",
          "midi": 72,
          "time": 194.34777750000055,
          "velocity": 1,
          "duration": 0.4347825000000114
        },
        {
          "name": "E4",
          "midi": 64,
          "time": 194.78256000000056,
          "velocity": 1,
          "duration": 0.4347825000000114
        },
        {
          "name": "C4",
          "midi": 60,
          "time": 195.21734250000057,
          "velocity": 1,
          "duration": 0.4347825000000114
        },
        {
          "name": "C5",
          "midi": 72,
          "time": 195.65212500000058,
          "velocity": 1,
          "duration": 0.4347825000000114
        },
        {
          "name": "E4",
          "midi": 64,
          "time": 196.0869075000006,
          "velocity": 1,
          "duration": 0.4347825000000114
        },
        {
          "name": "C4",
          "midi": 60,
          "time": 196.5216900000006,
          "velocity": 1,
          "duration": 0.4347825000000114
        },
        {
          "name": "C4",
          "midi": 60,
          "time": 197.39125500000063,
          "velocity": 1,
          "duration": 0.4347825000000114
        },
        {
          "name": "E4",
          "midi": 64,
          "time": 197.82603750000064,
          "velocity": 1,
          "duration": 0.4347825000000114
        },
        {
          "name": "C5",
          "midi": 72,
          "time": 198.26082000000065,
          "velocity": 1,
          "duration": 0.4347825000000114
        },
        {
          "name": "E4",
          "midi": 64,
          "time": 198.69560250000066,
          "velocity": 1,
          "duration": 0.4347825000000114
        },
        {
          "name": "C4",
          "midi": 60,
          "time": 199.13038500000067,
          "velocity": 1,
          "duration": 0.4347825000000114
        },
        {
          "name": "E4",
          "midi": 64,
          "time": 199.56516750000068,
          "velocity": 1,
          "duration": 0.4347825000000114
        },
        {
          "name": "C4",
          "midi": 60,
          "time": 199.9999500000007,
          "velocity": 1,
          "duration": 0.4347825000000114
        },
        {
          "name": "G3",
          "midi": 55,
          "time": 200.4347325000007,
          "velocity": 1,
          "duration": 0.8695649999999944
        },
        {
          "name": "E4",
          "midi": 64,
          "time": 201.3042975000007,
          "velocity": 1,
          "duration": 0.4347825000000114
        },
        {
          "name": "C4",
          "midi": 60,
          "time": 201.7390800000007,
          "velocity": 1,
          "duration": 0.4347825000000114
        },
        {
          "name": "E4",
          "midi": 64,
          "time": 202.17386250000072,
          "velocity": 1,
          "duration": 0.4347825000000114
        },
        {
          "name": "D4",
          "midi": 62,
          "time": 202.60864500000073,
          "velocity": 1,
          "duration": 0.4347825000000114
        },
        {
          "name": "A3",
          "midi": 57,
          "time": 203.04342750000075,
          "velocity": 1,
          "duration": 0.8695649999999944
        },
        {
          "name": "E4",
          "midi": 64,
          "time": 203.91299250000074,
          "velocity": 1,
          "duration": 0.4347825000000114
        },
        {
          "name": "D4",
          "midi": 62,
          "time": 204.34777500000075,
          "velocity": 1,
          "duration": 0.4347825000000114
        },
        {
          "name": "E4",
          "midi": 64,
          "time": 204.78255750000076,
          "velocity": 1,
          "duration": 0.2173912499999915
        },
        {
          "name": "B4",
          "midi": 71,
          "time": 204.99994875000075,
          "velocity": 1,
          "duration": 0.2173912499999915
        },
        {
          "name": "B3",
          "midi": 59,
          "time": 205.21734000000075,
          "velocity": 1,
          "duration": 0.4347825000000114
        },
        {
          "name": "G3",
          "midi": 55,
          "time": 205.65212250000076,
          "velocity": 1,
          "duration": 0.4347825000000114
        },
        {
          "name": "B4",
          "midi": 71,
          "time": 206.08690500000077,
          "velocity": 1,
          "duration": 0.2173912499999915
        },
        {
          "name": "E4",
          "midi": 64,
          "time": 206.30429625000076,
          "velocity": 1,
          "duration": 0.2173912499999915
        },
        {
          "name": "B3",
          "midi": 59,
          "time": 206.52168750000075,
          "velocity": 1,
          "duration": 0.4347825000000114
        },
        {
          "name": "G3",
          "midi": 55,
          "time": 206.95647000000076,
          "velocity": 1,
          "duration": 0.4347825000000114
        },
        {
          "name": "E2",
          "midi": 40,
          "time": 207.39125250000077,
          "velocity": 1,
          "duration": 0.4347825000000114
        },
        {
          "name": "G3",
          "midi": 55,
          "time": 207.8260350000008,
          "velocity": 1,
          "duration": 0.4347825000000114
        },
        {
          "name": "B3",
          "midi": 59,
          "time": 208.2608175000008,
          "velocity": 1,
          "duration": 0.4347825000000114
        },
        {
          "name": "E4",
          "midi": 64,
          "time": 208.6956000000008,
          "velocity": 1,
          "duration": 1.3043475000000058
        },
        {
          "name": "E5",
          "midi": 76,
          "time": 209.99994750000081,
          "velocity": 1,
          "duration": 0.4347825000000114
        },
        {
          "name": "B4",
          "midi": 71,
          "time": 210.43473000000083,
          "velocity": 1,
          "duration": 0.8695649999999944
        },
        {
          "name": "F#5",
          "midi": 78,
          "time": 211.30429500000082,
          "velocity": 1,
          "duration": 0.4347825000000114
        },
        {
          "name": "B4",
          "midi": 71,
          "time": 211.73907750000083,
          "velocity": 1,
          "duration": 0.8695649999999944
        },
        {
          "name": "G5",
          "midi": 79,
          "time": 212.60864250000083,
          "velocity": 1,
          "duration": 0.4347825000000114
        },
        {
          "name": "B4",
          "midi": 71,
          "time": 213.04342500000084,
          "velocity": 1,
          "duration": 0.8695649999999944
        },
        {
          "name": "A5",
          "midi": 81,
          "time": 213.91299000000083,
          "velocity": 1,
          "duration": 0.4347825000000114
        },
        {
          "name": "B4",
          "midi": 71,
          "time": 214.34777250000084,
          "velocity": 1,
          "duration": 0.8695649999999944
        },
        {
          "name": "C5",
          "midi": 72,
          "time": 215.21733750000084,
          "velocity": 1,
          "duration": 0.4347825000000114
        },
        {
          "name": "E4",
          "midi": 64,
          "time": 215.65212000000085,
          "velocity": 1,
          "duration": 0.4347825000000114
        },
        {
          "name": "C4",
          "midi": 60,
          "time": 216.08690250000086,
          "velocity": 1,
          "duration": 0.4347825000000114
        },
        {
          "name": "C5",
          "midi": 72,
          "time": 216.52168500000087,
          "velocity": 1,
          "duration": 0.4347825000000114
        },
        {
          "name": "E4",
          "midi": 64,
          "time": 216.95646750000088,
          "velocity": 1,
          "duration": 0.4347825000000114
        },
        {
          "name": "C4",
          "midi": 60,
          "time": 217.3912500000009,
          "velocity": 1,
          "duration": 0.4347825000000114
        },
        {
          "name": "C4",
          "midi": 60,
          "time": 218.26081500000092,
          "velocity": 1,
          "duration": 0.4347825000000114
        },
        {
          "name": "E4",
          "midi": 64,
          "time": 218.69559750000093,
          "velocity": 1,
          "duration": 0.4347825000000114
        },
        {
          "name": "C5",
          "midi": 72,
          "time": 219.13038000000094,
          "velocity": 1,
          "duration": 0.4347825000000114
        },
        {
          "name": "E4",
          "midi": 64,
          "time": 219.56516250000095,
          "velocity": 1,
          "duration": 0.4347825000000114
        },
        {
          "name": "C4",
          "midi": 60,
          "time": 219.99994500000096,
          "velocity": 1,
          "duration": 0.4347825000000114
        },
        {
          "name": "E4",
          "midi": 64,
          "time": 220.43472750000097,
          "velocity": 1,
          "duration": 0.4347825000000114
        },
        {
          "name": "C4",
          "midi": 60,
          "time": 220.869510000001,
          "velocity": 1,
          "duration": 0.4347825000000114
        },
        {
          "name": "G3",
          "midi": 55,
          "time": 221.304292500001,
          "velocity": 1,
          "duration": 0.8695649999999944
        },
        {
          "name": "E4",
          "midi": 64,
          "time": 222.173857500001,
          "velocity": 1,
          "duration": 0.4347825000000114
        },
        {
          "name": "C4",
          "midi": 60,
          "time": 222.608640000001,
          "velocity": 1,
          "duration": 0.4347825000000114
        },
        {
          "name": "E4",
          "midi": 64,
          "time": 223.04342250000101,
          "velocity": 1,
          "duration": 0.4347825000000114
        },
        {
          "name": "D4",
          "midi": 62,
          "time": 223.47820500000103,
          "velocity": 1,
          "duration": 0.4347825000000114
        },
        {
          "name": "A3",
          "midi": 57,
          "time": 223.91298750000104,
          "velocity": 1,
          "duration": 0.8695649999999944
        },
        {
          "name": "E4",
          "midi": 64,
          "time": 224.78255250000103,
          "velocity": 1,
          "duration": 0.4347825000000114
        },
        {
          "name": "D4",
          "midi": 62,
          "time": 225.21733500000104,
          "velocity": 1,
          "duration": 0.4347825000000114
        },
        {
          "name": "E4",
          "midi": 64,
          "time": 225.65211750000105,
          "velocity": 1,
          "duration": 0.2173912499999915
        },
        {
          "name": "B4",
          "midi": 71,
          "time": 225.86950875000105,
          "velocity": 1,
          "duration": 0.2173912499999915
        },
        {
          "name": "B3",
          "midi": 59,
          "time": 226.08690000000104,
          "velocity": 1,
          "duration": 0.4347825000000114
        },
        {
          "name": "G3",
          "midi": 55,
          "time": 226.52168250000105,
          "velocity": 1,
          "duration": 0.4347825000000114
        },
        {
          "name": "B4",
          "midi": 71,
          "time": 226.95646500000106,
          "velocity": 1,
          "duration": 0.2173912499999915
        },
        {
          "name": "E4",
          "midi": 64,
          "time": 227.17385625000105,
          "velocity": 1,
          "duration": 0.2173912499999915
        },
        {
          "name": "B3",
          "midi": 59,
          "time": 227.39124750000104,
          "velocity": 1,
          "duration": 0.4347825000000114
        },
        {
          "name": "G3",
          "midi": 55,
          "time": 227.82603000000105,
          "velocity": 1,
          "duration": 0.4347825000000114
        },
        {
          "name": "E2",
          "midi": 40,
          "time": 228.26081250000107,
          "velocity": 1,
          "duration": 0.4347825000000114
        },
        {
          "name": "G3",
          "midi": 55,
          "time": 228.69559500000108,
          "velocity": 1,
          "duration": 0.4347825000000114
        },
        {
          "name": "B3",
          "midi": 59,
          "time": 229.1303775000011,
          "velocity": 1,
          "duration": 0.4347825000000114
        },
        {
          "name": "E4",
          "midi": 64,
          "time": 229.5651600000011,
          "velocity": 1,
          "duration": 0.4347825000000114
        },
        {
          "name": "B3",
          "midi": 59,
          "time": 229.9999425000011,
          "velocity": 1,
          "duration": 0.4347825000000114
        },
        {
          "name": "G2",
          "midi": 43,
          "time": 230.43472500000112,
          "velocity": 1,
          "duration": 0.2173912499999915
        },
        {
          "name": "F#2",
          "midi": 42,
          "time": 230.65211625000111,
          "velocity": 1,
          "duration": 0.2173912499999915
        },
        {
          "name": "E2",
          "midi": 40,
          "time": 230.8695075000011,
          "velocity": 1,
          "duration": 0.4347825000000114
        },
        {
          "name": "G3",
          "midi": 55,
          "time": 231.30429000000112,
          "velocity": 1,
          "duration": 0.4347825000000114
        },
        {
          "name": "B3",
          "midi": 59,
          "time": 231.73907250000113,
          "velocity": 1,
          "duration": 0.4347825000000114
        },
        {
          "name": "G4",
          "midi": 67,
          "time": 232.17385500000114,
          "velocity": 1,
          "duration": 0.4347825000000114
        },
        {
          "name": "G3",
          "midi": 55,
          "time": 232.60863750000115,
          "velocity": 1,
          "duration": 0.2173912499999915
        },
        {
          "name": "E4",
          "midi": 64,
          "time": 232.82602875000114,
          "velocity": 1,
          "duration": 0.2173912499999915
        },
        {
          "name": "B3",
          "midi": 59,
          "time": 233.04342000000113,
          "velocity": 1,
          "duration": 0.2173912499999915
        },
        {
          "name": "G3",
          "midi": 55,
          "time": 233.26081125000113,
          "velocity": 1,
          "duration": 0.2173912499999915
        },
        {
          "name": "F#4",
          "midi": 66,
          "time": 233.47820250000112,
          "velocity": 1,
          "duration": 0.4347825000000114
        },
        {
          "name": "D3",
          "midi": 50,
          "time": 233.47820250000112,
          "velocity": 1,
          "duration": 0.4347825000000114
        },
        {
          "name": "D3",
          "midi": 50,
          "time": 233.91298500000113,
          "velocity": 1,
          "duration": 0.2173912499999915
        },
        {
          "name": "G4",
          "midi": 67,
          "time": 234.13037625000112,
          "velocity": 1,
          "duration": 0.2173912499999915
        },
        {
          "name": "D4",
          "midi": 62,
          "time": 234.3477675000011,
          "velocity": 1,
          "duration": 0.2173912499999915
        },
        {
          "name": "G3",
          "midi": 55,
          "time": 234.5651587500011,
          "velocity": 1,
          "duration": 0.2173912499999915
        },
        {
          "name": "E4",
          "midi": 64,
          "time": 234.7825500000011,
          "velocity": 1,
          "duration": 0.4347825000000114
        },
        {
          "name": "C3",
          "midi": 48,
          "time": 234.7825500000011,
          "velocity": 1,
          "duration": 0.4347825000000114
        },
        {
          "name": "D4",
          "midi": 62,
          "time": 235.2173325000011,
          "velocity": 1,
          "duration": 0.2173912499999915
        },
        {
          "name": "G3",
          "midi": 55,
          "time": 235.4347237500011,
          "velocity": 1,
          "duration": 0.2173912499999915
        },
        {
          "name": "G2",
          "midi": 43,
          "time": 235.6521150000011,
          "velocity": 1,
          "duration": 0.2173912499999915
        },
        {
          "name": "F#2",
          "midi": 42,
          "time": 235.86950625000108,
          "velocity": 1,
          "duration": 0.2173912499999915
        },
        {
          "name": "E2",
          "midi": 40,
          "time": 236.08689750000107,
          "velocity": 1,
          "duration": 0.4347825000000114
        },
        {
          "name": "G3",
          "midi": 55,
          "time": 236.52168000000108,
          "velocity": 1,
          "duration": 0.4347825000000114
        },
        {
          "name": "B3",
          "midi": 59,
          "time": 236.9564625000011,
          "velocity": 1,
          "duration": 0.4347825000000114
        },
        {
          "name": "G4",
          "midi": 67,
          "time": 237.3912450000011,
          "velocity": 1,
          "duration": 0.4347825000000114
        },
        {
          "name": "G3",
          "midi": 55,
          "time": 237.82602750000112,
          "velocity": 1,
          "duration": 0.2173912499999915
        },
        {
          "name": "E4",
          "midi": 64,
          "time": 238.0434187500011,
          "velocity": 1,
          "duration": 0.2173912499999915
        },
        {
          "name": "B3",
          "midi": 59,
          "time": 238.2608100000011,
          "velocity": 1,
          "duration": 0.2173912499999915
        },
        {
          "name": "G3",
          "midi": 55,
          "time": 238.4782012500011,
          "velocity": 1,
          "duration": 0.2173912499999915
        },
        {
          "name": "D3",
          "midi": 50,
          "time": 238.69559250000108,
          "velocity": 1,
          "duration": 0.4347825000000114
        },
        {
          "name": "F#4",
          "midi": 66,
          "time": 238.69559250000108,
          "velocity": 1,
          "duration": 0.4347825000000114
        },
        {
          "name": "D3",
          "midi": 50,
          "time": 239.1303750000011,
          "velocity": 1,
          "duration": 0.2173912499999915
        },
        {
          "name": "D4",
          "midi": 62,
          "time": 239.3477662500011,
          "velocity": 1,
          "duration": 0.2173912499999915
        },
        {
          "name": "A3",
          "midi": 57,
          "time": 239.56515750000108,
          "velocity": 1,
          "duration": 0.2173912499999915
        },
        {
          "name": "G3",
          "midi": 55,
          "time": 239.78254875000107,
          "velocity": 1,
          "duration": 0.2173912499999915
        },
        {
          "name": "D4",
          "midi": 62,
          "time": 239.99994000000106,
          "velocity": 1,
          "duration": 0.4347825000000114
        },
        {
          "name": "C3",
          "midi": 48,
          "time": 239.99994000000106,
          "velocity": 1,
          "duration": 0.4347825000000114
        },
        {
          "name": "G3",
          "midi": 55,
          "time": 240.43472250000107,
          "velocity": 1,
          "duration": 0.2173912499999915
        },
        {
          "name": "D4",
          "midi": 62,
          "time": 240.65211375000106,
          "velocity": 1,
          "duration": 0.2173912499999915
        },
        {
          "name": "G2",
          "midi": 43,
          "time": 240.86950500000106,
          "velocity": 1,
          "duration": 0.2173912499999915
        },
        {
          "name": "F#2",
          "midi": 42,
          "time": 241.08689625000105,
          "velocity": 1,
          "duration": 0.2173912499999915
        },
        {
          "name": "E2",
          "midi": 40,
          "time": 241.30428750000104,
          "velocity": 1,
          "duration": 0.4347825000000114
        },
        {
          "name": "G3",
          "midi": 55,
          "time": 241.73907000000105,
          "velocity": 1,
          "duration": 0.4347825000000114
        },
        {
          "name": "B3",
          "midi": 59,
          "time": 242.17385250000106,
          "velocity": 1,
          "duration": 0.4347825000000114
        },
        {
          "name": "G4",
          "midi": 67,
          "time": 242.60863500000107,
          "velocity": 1,
          "duration": 0.4347825000000114
        },
        {
          "name": "G3",
          "midi": 55,
          "time": 243.04341750000108,
          "velocity": 1,
          "duration": 0.2173912499999915
        },
        {
          "name": "E4",
          "midi": 64,
          "time": 243.26080875000108,
          "velocity": 1,
          "duration": 0.2173912499999915
        },
        {
          "name": "B3",
          "midi": 59,
          "time": 243.47820000000107,
          "velocity": 1,
          "duration": 0.2173912499999915
        },
        {
          "name": "G3",
          "midi": 55,
          "time": 243.69559125000106,
          "velocity": 1,
          "duration": 0.2173912499999915
        },
        {
          "name": "D3",
          "midi": 50,
          "time": 243.91298250000105,
          "velocity": 1,
          "duration": 0.4347825000000114
        },
        {
          "name": "F#4",
          "midi": 66,
          "time": 243.91298250000105,
          "velocity": 1,
          "duration": 0.4347825000000114
        },
        {
          "name": "D3",
          "midi": 50,
          "time": 244.34776500000106,
          "velocity": 1,
          "duration": 0.2173912499999915
        },
        {
          "name": "G4",
          "midi": 67,
          "time": 244.56515625000105,
          "velocity": 1,
          "duration": 0.2173912499999915
        },
        {
          "name": "D4",
          "midi": 62,
          "time": 244.78254750000104,
          "velocity": 1,
          "duration": 0.2173912499999915
        },
        {
          "name": "G3",
          "midi": 55,
          "time": 244.99993875000104,
          "velocity": 1,
          "duration": 0.2173912499999915
        },
        {
          "name": "G4",
          "midi": 67,
          "time": 245.21733000000103,
          "velocity": 1,
          "duration": 0.4347825000000114
        },
        {
          "name": "C3",
          "midi": 48,
          "time": 245.21733000000103,
          "velocity": 1,
          "duration": 0.4347825000000114
        },
        {
          "name": "D4",
          "midi": 62,
          "time": 245.65211250000104,
          "velocity": 1,
          "duration": 0.4347825000000114
        },
        {
          "name": "G3",
          "midi": 55,
          "time": 246.08689500000105,
          "velocity": 1,
          "duration": 0.4347825000000114
        },
        {
          "name": "G2",
          "midi": 43,
          "time": 246.52167750000106,
          "velocity": 1,
          "duration": 0.4347825000000114
        },
        {
          "name": "G3",
          "midi": 55,
          "time": 246.95646000000107,
          "velocity": 1,
          "duration": 0.4347825000000114
        },
        {
          "name": "G4",
          "midi": 67,
          "time": 247.39124250000108,
          "velocity": 1,
          "duration": 0.4347825000000114
        },
        {
          "name": "D4",
          "midi": 62,
          "time": 247.39124250000108,
          "velocity": 1,
          "duration": 0.4347825000000114
        },
        {
          "name": "B2",
          "midi": 47,
          "time": 247.8260250000011,
          "velocity": 1,
          "duration": 0.4347825000000114
        },
        {
          "name": "B3",
          "midi": 59,
          "time": 247.8260250000011,
          "velocity": 1,
          "duration": 0.4347825000000114
        },
        {
          "name": "A3",
          "midi": 57,
          "time": 247.8260250000011,
          "velocity": 1,
          "duration": 0.4347825000000114
        },
        {
          "name": "F#4",
          "midi": 66,
          "time": 247.8260250000011,
          "velocity": 1,
          "duration": 0.4347825000000114
        },
        {
          "name": "B2",
          "midi": 47,
          "time": 248.2608075000011,
          "velocity": 1,
          "duration": 0.2173912499999915
        },
        {
          "name": "F#4",
          "midi": 66,
          "time": 248.4781987500011,
          "velocity": 1,
          "duration": 0.2173912499999915
        },
        {
          "name": "B3",
          "midi": 59,
          "time": 248.6955900000011,
          "velocity": 1,
          "duration": 0.4347825000000114
        },
        {
          "name": "E2",
          "midi": 40,
          "time": 249.1303725000011,
          "velocity": 1,
          "duration": 0.4347825000000114
        },
        {
          "name": "E4",
          "midi": 64,
          "time": 249.1303725000011,
          "velocity": 1,
          "duration": 0.4347825000000114
        },
        {
          "name": "G3",
          "midi": 55,
          "time": 249.5651550000011,
          "velocity": 1,
          "duration": 0.4347825000000114
        },
        {
          "name": "B3",
          "midi": 59,
          "time": 249.99993750000112,
          "velocity": 1,
          "duration": 0.4347825000000114
        },
        {
          "name": "E4",
          "midi": 64,
          "time": 250.43472000000114,
          "velocity": 1,
          "duration": 0.4347825000000114
        },
        {
          "name": "B3",
          "midi": 59,
          "time": 250.86950250000115,
          "velocity": 1,
          "duration": 0.4347825000000114
        },
        {
          "name": "G3",
          "midi": 55,
          "time": 251.30428500000116,
          "velocity": 1,
          "duration": 0.4347825000000114
        },
        {
          "name": "E2",
          "midi": 40,
          "time": 251.73906750000117,
          "velocity": 1,
          "duration": 0.4347825000000114
        },
        {
          "name": "G3",
          "midi": 55,
          "time": 252.17385000000118,
          "velocity": 1,
          "duration": 0.4347825000000114
        },
        {
          "name": "B3",
          "midi": 59,
          "time": 252.6086325000012,
          "velocity": 1,
          "duration": 0.4347825000000114
        },
        {
          "name": "E4",
          "midi": 64,
          "time": 253.0434150000012,
          "velocity": 1,
          "duration": 0.4347825000000114
        },
        {
          "name": "B3",
          "midi": 59,
          "time": 253.47819750000122,
          "velocity": 1,
          "duration": 0.4347825000000114
        },
        {
          "name": "G2",
          "midi": 43,
          "time": 253.91298000000123,
          "velocity": 1,
          "duration": 0.2173912499999915
        },
        {
          "name": "F#2",
          "midi": 42,
          "time": 254.13037125000122,
          "velocity": 1,
          "duration": 0.2173912499999915
        },
        {
          "name": "E2",
          "midi": 40,
          "time": 254.3477625000012,
          "velocity": 1,
          "duration": 0.4347825000000114
        },
        {
          "name": "G3",
          "midi": 55,
          "time": 254.78254500000122,
          "velocity": 1,
          "duration": 0.4347825000000114
        },
        {
          "name": "B3",
          "midi": 59,
          "time": 255.21732750000123,
          "velocity": 1,
          "duration": 0.4347825000000114
        },
        {
          "name": "G4",
          "midi": 67,
          "time": 255.65211000000124,
          "velocity": 1,
          "duration": 0.434782499999983
        },
        {
          "name": "G3",
          "midi": 55,
          "time": 256.0868925000012,
          "velocity": 1,
          "duration": 0.2173912499999915
        },
        {
          "name": "E4",
          "midi": 64,
          "time": 256.3042837500012,
          "velocity": 1,
          "duration": 0.2173912499999915
        },
        {
          "name": "B3",
          "midi": 59,
          "time": 256.5216750000012,
          "velocity": 1,
          "duration": 0.2173912499999915
        },
        {
          "name": "G3",
          "midi": 55,
          "time": 256.7390662500012,
          "velocity": 1,
          "duration": 0.2173912499999915
        },
        {
          "name": "F#4",
          "midi": 66,
          "time": 256.9564575000012,
          "velocity": 1,
          "duration": 0.434782499999983
        },
        {
          "name": "D3",
          "midi": 50,
          "time": 256.9564575000012,
          "velocity": 1,
          "duration": 0.434782499999983
        },
        {
          "name": "D3",
          "midi": 50,
          "time": 257.3912400000012,
          "velocity": 1,
          "duration": 0.2173912499999915
        },
        {
          "name": "G4",
          "midi": 67,
          "time": 257.60863125000117,
          "velocity": 1,
          "duration": 0.2173912499999915
        },
        {
          "name": "D4",
          "midi": 62,
          "time": 257.82602250000116,
          "velocity": 1,
          "duration": 0.2173912499999915
        },
        {
          "name": "G3",
          "midi": 55,
          "time": 258.04341375000115,
          "velocity": 1,
          "duration": 0.2173912499999915
        },
        {
          "name": "E4",
          "midi": 64,
          "time": 258.26080500000114,
          "velocity": 1,
          "duration": 0.434782499999983
        },
        {
          "name": "C3",
          "midi": 48,
          "time": 258.26080500000114,
          "velocity": 1,
          "duration": 0.434782499999983
        },
        {
          "name": "D4",
          "midi": 62,
          "time": 258.6955875000011,
          "velocity": 1,
          "duration": 0.2173912499999915
        },
        {
          "name": "G3",
          "midi": 55,
          "time": 258.9129787500011,
          "velocity": 1,
          "duration": 0.2173912499999915
        },
        {
          "name": "G2",
          "midi": 43,
          "time": 259.1303700000011,
          "velocity": 1,
          "duration": 0.2173912499999915
        },
        {
          "name": "F#2",
          "midi": 42,
          "time": 259.3477612500011,
          "velocity": 1,
          "duration": 0.2173912499999915
        },
        {
          "name": "E2",
          "midi": 40,
          "time": 259.5651525000011,
          "velocity": 1,
          "duration": 0.434782499999983
        },
        {
          "name": "G3",
          "midi": 55,
          "time": 259.9999350000011,
          "velocity": 1,
          "duration": 0.434782499999983
        },
        {
          "name": "B3",
          "midi": 59,
          "time": 260.43471750000106,
          "velocity": 1,
          "duration": 0.434782499999983
        },
        {
          "name": "G4",
          "midi": 67,
          "time": 260.86950000000104,
          "velocity": 1,
          "duration": 0.434782499999983
        },
        {
          "name": "G3",
          "midi": 55,
          "time": 261.304282500001,
          "velocity": 1,
          "duration": 0.2173912499999915
        },
        {
          "name": "E4",
          "midi": 64,
          "time": 261.521673750001,
          "velocity": 1,
          "duration": 0.2173912499999915
        },
        {
          "name": "B3",
          "midi": 59,
          "time": 261.739065000001,
          "velocity": 1,
          "duration": 0.2173912499999915
        },
        {
          "name": "G3",
          "midi": 55,
          "time": 261.956456250001,
          "velocity": 1,
          "duration": 0.2173912499999915
        },
        {
          "name": "D3",
          "midi": 50,
          "time": 262.173847500001,
          "velocity": 1,
          "duration": 0.434782499999983
        },
        {
          "name": "F#4",
          "midi": 66,
          "time": 262.173847500001,
          "velocity": 1,
          "duration": 0.434782499999983
        },
        {
          "name": "D3",
          "midi": 50,
          "time": 262.60863000000097,
          "velocity": 1,
          "duration": 0.2173912499999915
        },
        {
          "name": "D4",
          "midi": 62,
          "time": 262.82602125000096,
          "velocity": 1,
          "duration": 0.2173912499999915
        },
        {
          "name": "A3",
          "midi": 57,
          "time": 263.04341250000095,
          "velocity": 1,
          "duration": 0.2173912499999915
        },
        {
          "name": "G3",
          "midi": 55,
          "time": 263.26080375000095,
          "velocity": 1,
          "duration": 0.2173912499999915
        },
        {
          "name": "D4",
          "midi": 62,
          "time": 263.47819500000094,
          "velocity": 1,
          "duration": 0.434782499999983
        },
        {
          "name": "C3",
          "midi": 48,
          "time": 263.47819500000094,
          "velocity": 1,
          "duration": 0.434782499999983
        },
        {
          "name": "G3",
          "midi": 55,
          "time": 263.9129775000009,
          "velocity": 1,
          "duration": 0.2173912499999915
        },
        {
          "name": "D4",
          "midi": 62,
          "time": 264.1303687500009,
          "velocity": 1,
          "duration": 0.2173912499999915
        },
        {
          "name": "G2",
          "midi": 43,
          "time": 264.3477600000009,
          "velocity": 1,
          "duration": 0.2173912499999915
        },
        {
          "name": "F#2",
          "midi": 42,
          "time": 264.5651512500009,
          "velocity": 1,
          "duration": 0.2173912499999915
        },
        {
          "name": "E2",
          "midi": 40,
          "time": 264.7825425000009,
          "velocity": 1,
          "duration": 0.434782499999983
        },
        {
          "name": "G3",
          "midi": 55,
          "time": 265.21732500000087,
          "velocity": 1,
          "duration": 0.434782499999983
        },
        {
          "name": "B3",
          "midi": 59,
          "time": 265.65210750000085,
          "velocity": 1,
          "duration": 0.434782499999983
        },
        {
          "name": "G4",
          "midi": 67,
          "time": 266.08689000000084,
          "velocity": 1,
          "duration": 0.434782499999983
        },
        {
          "name": "G3",
          "midi": 55,
          "time": 266.5216725000008,
          "velocity": 1,
          "duration": 0.2173912499999915
        },
        {
          "name": "E4",
          "midi": 64,
          "time": 266.7390637500008,
          "velocity": 1,
          "duration": 0.2173912499999915
        },
        {
          "name": "B3",
          "midi": 59,
          "time": 266.9564550000008,
          "velocity": 1,
          "duration": 0.2173912499999915
        },
        {
          "name": "G3",
          "midi": 55,
          "time": 267.1738462500008,
          "velocity": 1,
          "duration": 0.2173912499999915
        },
        {
          "name": "D3",
          "midi": 50,
          "time": 267.3912375000008,
          "velocity": 1,
          "duration": 0.434782499999983
        },
        {
          "name": "F#4",
          "midi": 66,
          "time": 267.3912375000008,
          "velocity": 1,
          "duration": 0.434782499999983
        },
        {
          "name": "D3",
          "midi": 50,
          "time": 267.82602000000077,
          "velocity": 1,
          "duration": 0.2173912499999915
        },
        {
          "name": "G4",
          "midi": 67,
          "time": 268.04341125000076,
          "velocity": 1,
          "duration": 0.2173912499999915
        },
        {
          "name": "D4",
          "midi": 62,
          "time": 268.26080250000075,
          "velocity": 1,
          "duration": 0.2173912499999915
        },
        {
          "name": "G3",
          "midi": 55,
          "time": 268.47819375000074,
          "velocity": 1,
          "duration": 0.2173912499999915
        },
        {
          "name": "G4",
          "midi": 67,
          "time": 268.69558500000073,
          "velocity": 1,
          "duration": 0.434782499999983
        },
        {
          "name": "C3",
          "midi": 48,
          "time": 268.69558500000073,
          "velocity": 1,
          "duration": 0.434782499999983
        },
        {
          "name": "D4",
          "midi": 62,
          "time": 269.1303675000007,
          "velocity": 1,
          "duration": 0.434782499999983
        },
        {
          "name": "G3",
          "midi": 55,
          "time": 269.5651500000007,
          "velocity": 1,
          "duration": 0.434782499999983
        },
        {
          "name": "G2",
          "midi": 43,
          "time": 269.9999325000007,
          "velocity": 1,
          "duration": 0.434782499999983
        },
        {
          "name": "G3",
          "midi": 55,
          "time": 270.43471500000066,
          "velocity": 1,
          "duration": 0.434782499999983
        },
        {
          "name": "G4",
          "midi": 67,
          "time": 270.86949750000065,
          "velocity": 1,
          "duration": 0.434782499999983
        },
        {
          "name": "D4",
          "midi": 62,
          "time": 270.86949750000065,
          "velocity": 1,
          "duration": 0.434782499999983
        },
        {
          "name": "B2",
          "midi": 47,
          "time": 271.30428000000063,
          "velocity": 1,
          "duration": 0.434782499999983
        },
        {
          "name": "B3",
          "midi": 59,
          "time": 271.30428000000063,
          "velocity": 1,
          "duration": 0.434782499999983
        },
        {
          "name": "A3",
          "midi": 57,
          "time": 271.30428000000063,
          "velocity": 1,
          "duration": 0.434782499999983
        },
        {
          "name": "F#4",
          "midi": 66,
          "time": 271.30428000000063,
          "velocity": 1,
          "duration": 0.434782499999983
        },
        {
          "name": "B2",
          "midi": 47,
          "time": 271.7390625000006,
          "velocity": 1,
          "duration": 0.2173912499999915
        },
        {
          "name": "F#4",
          "midi": 66,
          "time": 271.9564537500006,
          "velocity": 1,
          "duration": 0.2173912499999915
        },
        {
          "name": "B3",
          "midi": 59,
          "time": 272.1738450000006,
          "velocity": 1,
          "duration": 0.434782499999983
        },
        {
          "name": "E2",
          "midi": 40,
          "time": 272.6086275000006,
          "velocity": 1,
          "duration": 0.434782499999983
        },
        {
          "name": "E4",
          "midi": 64,
          "time": 272.6086275000006,
          "velocity": 1,
          "duration": 0.434782499999983
        },
        {
          "name": "G3",
          "midi": 55,
          "time": 273.04341000000056,
          "velocity": 1,
          "duration": 0.434782499999983
        },
        {
          "name": "B3",
          "midi": 59,
          "time": 273.47819250000055,
          "velocity": 1,
          "duration": 0.434782499999983
        },
        {
          "name": "E4",
          "midi": 64,
          "time": 273.91297500000053,
          "velocity": 1,
          "duration": 0.434782499999983
        },
        {
          "name": "B3",
          "midi": 59,
          "time": 274.3477575000005,
          "velocity": 1,
          "duration": 0.434782499999983
        },
        {
          "name": "G3",
          "midi": 55,
          "time": 274.7825400000005,
          "velocity": 1,
          "duration": 0.434782499999983
        },
        {
          "name": "E4",
          "midi": 64,
          "time": 275.2173225000005,
          "velocity": 1,
          "duration": 2.6086950000000115
        },
        {
          "name": "C4",
          "midi": 60,
          "time": 275.2173225000005,
          "velocity": 1,
          "duration": 2.6086950000000115
        },
        {
          "name": "G3",
          "midi": 55,
          "time": 275.2173225000005,
          "velocity": 1,
          "duration": 2.6086950000000115
        },
        {
          "name": "E3",
          "midi": 52,
          "time": 275.2173225000005,
          "velocity": 1,
          "duration": 2.6086950000000115
        },
        {
          "name": "C3",
          "midi": 48,
          "time": 275.2173225000005,
          "velocity": 1,
          "duration": 2.6086950000000115
        },
        {
          "name": "C#4",
          "midi": 61,
          "time": 276.5216700000005,
          "velocity": 1,
          "duration": 1.3043475000000058
        },
        {
          "name": "A3",
          "midi": 57,
          "time": 276.5216700000005,
          "velocity": 1,
          "duration": 1.3043475000000058
        },
        {
          "name": "E3",
          "midi": 52,
          "time": 276.5216700000005,
          "velocity": 1,
          "duration": 1.3043475000000058
        },
        {
          "name": "A2",
          "midi": 45,
          "time": 276.5216700000005,
          "velocity": 1,
          "duration": 1.3043475000000058
        },
        {
          "name": "E2",
          "midi": 40,
          "time": 299.9999250000005,
          "velocity": 1,
          "duration": 0.434782499999983
        },
        {
          "name": "G3",
          "midi": 55,
          "time": 300.43470750000046,
          "velocity": 1,
          "duration": 0.434782499999983
        },
        {
          "name": "B3",
          "midi": 59,
          "time": 300.86949000000044,
          "velocity": 1,
          "duration": 0.434782499999983
        },
        {
          "name": "E4",
          "midi": 64,
          "time": 301.3042725000004,
          "velocity": 1,
          "duration": 0.434782499999983
        },
        {
          "name": "B3",
          "midi": 59,
          "time": 301.7390550000004,
          "velocity": 1,
          "duration": 0.434782499999983
        },
        {
          "name": "G3",
          "midi": 55,
          "time": 302.1738375000004,
          "velocity": 1,
          "duration": 0.434782499999983
        },
        {
          "name": "E2",
          "midi": 40,
          "time": 302.60862000000037,
          "velocity": 1,
          "duration": 0.434782499999983
        },
        {
          "name": "G3",
          "midi": 55,
          "time": 303.04340250000035,
          "velocity": 1,
          "duration": 0.434782499999983
        },
        {
          "name": "B3",
          "midi": 59,
          "time": 303.47818500000034,
          "velocity": 1,
          "duration": 0.434782499999983
        },
        {
          "name": "E4",
          "midi": 64,
          "time": 303.9129675000003,
          "velocity": 1,
          "duration": 0.434782499999983
        },
        {
          "name": "B3",
          "midi": 59,
          "time": 304.3477500000003,
          "velocity": 1,
          "duration": 0.434782499999983
        },
        {
          "name": "G3",
          "midi": 55,
          "time": 304.7825325000003,
          "velocity": 1,
          "duration": 0.434782499999983
        },
        {
          "name": "E2",
          "midi": 40,
          "time": 323.4781800000003,
          "velocity": 1,
          "duration": 0.434782499999983
        },
        {
          "name": "G3",
          "midi": 55,
          "time": 323.9129625000003,
          "velocity": 1,
          "duration": 0.434782499999983
        },
        {
          "name": "B3",
          "midi": 59,
          "time": 324.34774500000026,
          "velocity": 1,
          "duration": 0.434782499999983
        },
        {
          "name": "E4",
          "midi": 64,
          "time": 324.78252750000024,
          "velocity": 1,
          "duration": 0.434782499999983
        },
        {
          "name": "B3",
          "midi": 59,
          "time": 325.2173100000002,
          "velocity": 1,
          "duration": 0.434782499999983
        },
        {
          "name": "G3",
          "midi": 55,
          "time": 325.6520925000002,
          "velocity": 1,
          "duration": 0.434782499999983
        },
        {
          "name": "E2",
          "midi": 40,
          "time": 326.0868750000002,
          "velocity": 1,
          "duration": 0.434782499999983
        },
        {
          "name": "G3",
          "midi": 55,
          "time": 326.5216575000002,
          "velocity": 1,
          "duration": 0.434782499999983
        },
        {
          "name": "B3",
          "midi": 59,
          "time": 326.95644000000016,
          "velocity": 1,
          "duration": 0.434782499999983
        },
        {
          "name": "E4",
          "midi": 64,
          "time": 327.39122250000014,
          "velocity": 1,
          "duration": 0.434782499999983
        },
        {
          "name": "B3",
          "midi": 59,
          "time": 327.8260050000001,
          "velocity": 1,
          "duration": 0.434782499999983
        },
        {
          "name": "G3",
          "midi": 55,
          "time": 328.2607875000001,
          "velocity": 1,
          "duration": 0.434782499999983
        },
        {
          "name": "E2",
          "midi": 40,
          "time": 328.6955700000001,
          "velocity": 1,
          "duration": 0.434782499999983
        },
        {
          "name": "G3",
          "midi": 55,
          "time": 329.1303525000001,
          "velocity": 1,
          "duration": 0.434782499999983
        },
        {
          "name": "B3",
          "midi": 59,
          "time": 329.56513500000005,
          "velocity": 1,
          "duration": 0.434782499999983
        },
        {
          "name": "E4",
          "midi": 64,
          "time": 329.99991750000004,
          "velocity": 1,
          "duration": 0.434782499999983
        },
        {
          "name": "B3",
          "midi": 59,
          "time": 330.4347,
          "velocity": 1,
          "duration": 0.434782499999983
        },
        {
          "name": "G3",
          "midi": 55,
          "time": 330.8694825,
          "velocity": 1,
          "duration": 0.434782499999983
        },
        {
          "name": "E2",
          "midi": 40,
          "time": 331.304265,
          "velocity": 1,
          "duration": 0.434782499999983
        },
        {
          "name": "G3",
          "midi": 55,
          "time": 331.73904749999997,
          "velocity": 1,
          "duration": 0.434782499999983
        },
        {
          "name": "B3",
          "midi": 59,
          "time": 332.17382999999995,
          "velocity": 1,
          "duration": 0.434782499999983
        },
        {
          "name": "E4",
          "midi": 64,
          "time": 332.60861249999994,
          "velocity": 1,
          "duration": 0.434782499999983
        },
        {
          "name": "B3",
          "midi": 59,
          "time": 333.0433949999999,
          "velocity": 1,
          "duration": 0.434782499999983
        },
        {
          "name": "G3",
          "midi": 55,
          "time": 333.4781774999999,
          "velocity": 1,
          "duration": 0.434782499999983
        },
        {
          "name": "E2",
          "midi": 40,
          "time": 333.9129599999999,
          "velocity": 1,
          "duration": 0.434782499999983
        },
        {
          "name": "G3",
          "midi": 55,
          "time": 334.34774249999987,
          "velocity": 1,
          "duration": 0.434782499999983
        },
        {
          "name": "B3",
          "midi": 59,
          "time": 334.78252499999985,
          "velocity": 1,
          "duration": 0.434782499999983
        },
        {
          "name": "G4",
          "midi": 67,
          "time": 335.21730749999983,
          "velocity": 1,
          "duration": 0.434782499999983
        },
        {
          "name": "G3",
          "midi": 55,
          "time": 335.6520899999998,
          "velocity": 1,
          "duration": 0.2173912499999915
        },
        {
          "name": "E4",
          "midi": 64,
          "time": 335.8694812499998,
          "velocity": 1,
          "duration": 0.2173912499999915
        },
        {
          "name": "B3",
          "midi": 59,
          "time": 336.0868724999998,
          "velocity": 1,
          "duration": 0.2173912499999915
        },
        {
          "name": "G3",
          "midi": 55,
          "time": 336.3042637499998,
          "velocity": 1,
          "duration": 0.2173912499999915
        },
        {
          "name": "F#4",
          "midi": 66,
          "time": 336.5216549999998,
          "velocity": 1,
          "duration": 0.434782499999983
        },
        {
          "name": "D3",
          "midi": 50,
          "time": 336.5216549999998,
          "velocity": 1,
          "duration": 0.434782499999983
        },
        {
          "name": "D3",
          "midi": 50,
          "time": 336.95643749999977,
          "velocity": 1,
          "duration": 0.2173912499999915
        },
        {
          "name": "G4",
          "midi": 67,
          "time": 337.17382874999976,
          "velocity": 1,
          "duration": 0.2173912499999915
        },
        {
          "name": "D4",
          "midi": 62,
          "time": 337.39121999999975,
          "velocity": 1,
          "duration": 0.2173912499999915
        },
        {
          "name": "G3",
          "midi": 55,
          "time": 337.60861124999974,
          "velocity": 1,
          "duration": 0.2173912499999915
        },
        {
          "name": "E4",
          "midi": 64,
          "time": 337.82600249999973,
          "velocity": 1,
          "duration": 0.434782499999983
        },
        {
          "name": "C3",
          "midi": 48,
          "time": 337.82600249999973,
          "velocity": 1,
          "duration": 0.434782499999983
        },
        {
          "name": "D4",
          "midi": 62,
          "time": 338.2607849999997,
          "velocity": 1,
          "duration": 0.2173912499999915
        },
        {
          "name": "G3",
          "midi": 55,
          "time": 338.4781762499997,
          "velocity": 1,
          "duration": 0.2173912499999915
        },
        {
          "name": "G2",
          "midi": 43,
          "time": 338.6955674999997,
          "velocity": 1,
          "duration": 0.2173912499999915
        },
        {
          "name": "F#2",
          "midi": 42,
          "time": 338.9129587499997,
          "velocity": 1,
          "duration": 0.2173912499999915
        },
        {
          "name": "E2",
          "midi": 40,
          "time": 339.1303499999997,
          "velocity": 1,
          "duration": 0.434782499999983
        },
        {
          "name": "G3",
          "midi": 55,
          "time": 339.56513249999966,
          "velocity": 1,
          "duration": 0.434782499999983
        },
        {
          "name": "B3",
          "midi": 59,
          "time": 339.99991499999965,
          "velocity": 1,
          "duration": 0.434782499999983
        },
        {
          "name": "G4",
          "midi": 67,
          "time": 340.43469749999963,
          "velocity": 1,
          "duration": 0.434782499999983
        },
        {
          "name": "G3",
          "midi": 55,
          "time": 340.8694799999996,
          "velocity": 1,
          "duration": 0.2173912499999915
        },
        {
          "name": "E4",
          "midi": 64,
          "time": 341.0868712499996,
          "velocity": 1,
          "duration": 0.2173912499999915
        },
        {
          "name": "B3",
          "midi": 59,
          "time": 341.3042624999996,
          "velocity": 1,
          "duration": 0.2173912499999915
        },
        {
          "name": "G3",
          "midi": 55,
          "time": 341.5216537499996,
          "velocity": 1,
          "duration": 0.2173912499999915
        },
        {
          "name": "D3",
          "midi": 50,
          "time": 341.7390449999996,
          "velocity": 1,
          "duration": 0.434782499999983
        },
        {
          "name": "F#4",
          "midi": 66,
          "time": 341.7390449999996,
          "velocity": 1,
          "duration": 0.434782499999983
        },
        {
          "name": "D3",
          "midi": 50,
          "time": 342.17382749999956,
          "velocity": 1,
          "duration": 0.2173912499999915
        },
        {
          "name": "D4",
          "midi": 62,
          "time": 342.39121874999955,
          "velocity": 1,
          "duration": 0.2173912499999915
        },
        {
          "name": "A3",
          "midi": 57,
          "time": 342.60860999999954,
          "velocity": 1,
          "duration": 0.2173912499999915
        },
        {
          "name": "G3",
          "midi": 55,
          "time": 342.82600124999954,
          "velocity": 1,
          "duration": 0.2173912499999915
        },
        {
          "name": "D4",
          "midi": 62,
          "time": 343.0433924999995,
          "velocity": 1,
          "duration": 0.434782499999983
        },
        {
          "name": "C3",
          "midi": 48,
          "time": 343.0433924999995,
          "velocity": 1,
          "duration": 0.434782499999983
        },
        {
          "name": "G3",
          "midi": 55,
          "time": 343.4781749999995,
          "velocity": 1,
          "duration": 0.2173912499999915
        },
        {
          "name": "D4",
          "midi": 62,
          "time": 343.6955662499995,
          "velocity": 1,
          "duration": 0.2173912499999915
        },
        {
          "name": "G2",
          "midi": 43,
          "time": 343.9129574999995,
          "velocity": 1,
          "duration": 0.2173912499999915
        },
        {
          "name": "F#2",
          "midi": 42,
          "time": 344.1303487499995,
          "velocity": 1,
          "duration": 0.2173912499999915
        },
        {
          "name": "E2",
          "midi": 40,
          "time": 344.3477399999995,
          "velocity": 1,
          "duration": 0.434782499999983
        },
        {
          "name": "G3",
          "midi": 55,
          "time": 344.78252249999946,
          "velocity": 1,
          "duration": 0.434782499999983
        },
        {
          "name": "B3",
          "midi": 59,
          "time": 345.21730499999944,
          "velocity": 1,
          "duration": 0.434782499999983
        },
        {
          "name": "G4",
          "midi": 67,
          "time": 345.6520874999994,
          "velocity": 1,
          "duration": 0.434782499999983
        },
        {
          "name": "G3",
          "midi": 55,
          "time": 346.0868699999994,
          "velocity": 1,
          "duration": 0.2173912499999915
        },
        {
          "name": "E4",
          "midi": 64,
          "time": 346.3042612499994,
          "velocity": 1,
          "duration": 0.2173912499999915
        },
        {
          "name": "B3",
          "midi": 59,
          "time": 346.5216524999994,
          "velocity": 1,
          "duration": 0.2173912499999915
        },
        {
          "name": "G3",
          "midi": 55,
          "time": 346.7390437499994,
          "velocity": 1,
          "duration": 0.2173912499999915
        },
        {
          "name": "D3",
          "midi": 50,
          "time": 346.9564349999994,
          "velocity": 1,
          "duration": 0.434782499999983
        },
        {
          "name": "F#4",
          "midi": 66,
          "time": 346.9564349999994,
          "velocity": 1,
          "duration": 0.434782499999983
        },
        {
          "name": "D3",
          "midi": 50,
          "time": 347.39121749999936,
          "velocity": 1,
          "duration": 0.2173912499999915
        },
        {
          "name": "G4",
          "midi": 67,
          "time": 347.60860874999935,
          "velocity": 1,
          "duration": 0.2173912499999915
        },
        {
          "name": "D4",
          "midi": 62,
          "time": 347.82599999999934,
          "velocity": 1,
          "duration": 0.2173912499999915
        },
        {
          "name": "G3",
          "midi": 55,
          "time": 348.04339124999933,
          "velocity": 1,
          "duration": 0.2173912499999915
        },
        {
          "name": "G4",
          "midi": 67,
          "time": 348.2607824999993,
          "velocity": 1,
          "duration": 0.434782499999983
        },
        {
          "name": "C3",
          "midi": 48,
          "time": 348.2607824999993,
          "velocity": 1,
          "duration": 0.434782499999983
        },
        {
          "name": "D4",
          "midi": 62,
          "time": 348.6955649999993,
          "velocity": 1,
          "duration": 0.434782499999983
        },
        {
          "name": "G3",
          "midi": 55,
          "time": 349.1303474999993,
          "velocity": 1,
          "duration": 0.434782499999983
        },
        {
          "name": "G2",
          "midi": 43,
          "time": 349.5651299999993,
          "velocity": 1,
          "duration": 0.434782499999983
        },
        {
          "name": "G3",
          "midi": 55,
          "time": 349.99991249999925,
          "velocity": 1,
          "duration": 0.434782499999983
        },
        {
          "name": "G4",
          "midi": 67,
          "time": 350.43469499999924,
          "velocity": 1,
          "duration": 0.434782499999983
        },
        {
          "name": "D4",
          "midi": 62,
          "time": 350.43469499999924,
          "velocity": 1,
          "duration": 0.434782499999983
        },
        {
          "name": "B2",
          "midi": 47,
          "time": 350.8694774999992,
          "velocity": 1,
          "duration": 0.6521737499999745
        },
        {
          "name": "A3",
          "midi": 57,
          "time": 350.8694774999992,
          "velocity": 1,
          "duration": 0.6521737499999745
        },
        {
          "name": "B3",
          "midi": 59,
          "time": 350.8694774999992,
          "velocity": 1,
          "duration": 0.6521737499999745
        },
        {
          "name": "F#4",
          "midi": 66,
          "time": 350.8694774999992,
          "velocity": 1,
          "duration": 0.6521737499999745
        },
        {
          "name": "B2",
          "midi": 47,
          "time": 351.5216512499992,
          "velocity": 1,
          "duration": 0.6521737499999745
        },
        {
          "name": "B3",
          "midi": 59,
          "time": 351.5216512499992,
          "velocity": 1,
          "duration": 0.6521737499999745
        },
        {
          "name": "A3",
          "midi": 57,
          "time": 351.5216512499992,
          "velocity": 1,
          "duration": 0.6521737499999745
        },
        {
          "name": "F#4",
          "midi": 66,
          "time": 351.5216512499992,
          "velocity": 1,
          "duration": 0.6521737499999745
        },
        {
          "name": "E2",
          "midi": 40,
          "time": 352.17382499999917,
          "velocity": 1,
          "duration": 0.434782499999983
        },
        {
          "name": "C4",
          "midi": 60,
          "time": 352.17382499999917,
          "velocity": 1,
          "duration": 0.434782499999983
        },
        {
          "name": "G3",
          "midi": 55,
          "time": 352.60860749999915,
          "velocity": 1,
          "duration": 0.434782499999983
        },
        {
          "name": "B3",
          "midi": 59,
          "time": 353.04338999999914,
          "velocity": 1,
          "duration": 0.434782499999983
        },
        {
          "name": "E4",
          "midi": 64,
          "time": 353.4781724999991,
          "velocity": 1,
          "duration": 0.434782499999983
        },
        {
          "name": "B3",
          "midi": 59,
          "time": 353.9129549999991,
          "velocity": 1,
          "duration": 0.434782499999983
        },
        {
          "name": "G3",
          "midi": 55,
          "time": 354.3477374999991,
          "velocity": 1,
          "duration": 0.434782499999983
        },
        {
          "name": "E2",
          "midi": 40,
          "time": 354.78251999999907,
          "velocity": 1,
          "duration": 0.434782499999983
        },
        {
          "name": "G3",
          "midi": 55,
          "time": 355.21730249999905,
          "velocity": 1,
          "duration": 0.434782499999983
        },
        {
          "name": "B3",
          "midi": 59,
          "time": 355.65208499999903,
          "velocity": 1,
          "duration": 0.434782499999983
        },
        {
          "name": "E4",
          "midi": 64,
          "time": 356.086867499999,
          "velocity": 1,
          "duration": 0.434782499999983
        },
        {
          "name": "B3",
          "midi": 59,
          "time": 356.521649999999,
          "velocity": 1,
          "duration": 0.434782499999983
        },
        {
          "name": "B4",
          "midi": 71,
          "time": 356.956432499999,
          "velocity": 1,
          "duration": 0.434782499999983
        },
        {
          "name": "E2",
          "midi": 40,
          "time": 357.39121499999897,
          "velocity": 1,
          "duration": 0.434782499999983
        },
        {
          "name": "B4",
          "midi": 71,
          "time": 357.39121499999897,
          "velocity": 1,
          "duration": 0.434782499999983
        },
        {
          "name": "B3",
          "midi": 59,
          "time": 357.82599749999895,
          "velocity": 1,
          "duration": 0.434782499999983
        },
        {
          "name": "G3",
          "midi": 55,
          "time": 358.26077999999893,
          "velocity": 1,
          "duration": 0.434782499999983
        },
        {
          "name": "B4",
          "midi": 71,
          "time": 358.6955624999989,
          "velocity": 1,
          "duration": 0.2173912499999915
        },
        {
          "name": "E4",
          "midi": 64,
          "time": 358.9129537499989,
          "velocity": 1,
          "duration": 0.2173912499999915
        },
        {
          "name": "B3",
          "midi": 59,
          "time": 359.1303449999989,
          "velocity": 1,
          "duration": 0.434782499999983
        },
        {
          "name": "G3",
          "midi": 55,
          "time": 359.5651274999989,
          "velocity": 1,
          "duration": 0.434782499999983
        },
        {
          "name": "E2",
          "midi": 40,
          "time": 359.99990999999886,
          "velocity": 1,
          "duration": 0.434782499999983
        },
        {
          "name": "G3",
          "midi": 55,
          "time": 360.43469249999885,
          "velocity": 1,
          "duration": 0.434782499999983
        },
        {
          "name": "B4",
          "midi": 71,
          "time": 360.86947499999883,
          "velocity": 1,
          "duration": 0.434782499999983
        },
        {
          "name": "B3",
          "midi": 59,
          "time": 360.86947499999883,
          "velocity": 1,
          "duration": 0.434782499999983
        },
        {
          "name": "B3",
          "midi": 59,
          "time": 361.3042574999988,
          "velocity": 1,
          "duration": 0.434782499999983
        },
        {
          "name": "C5",
          "midi": 72,
          "time": 361.3042574999988,
          "velocity": 1,
          "duration": 0.434782499999983
        },
        {
          "name": "B4",
          "midi": 71,
          "time": 361.7390399999988,
          "velocity": 1,
          "duration": 0.28985499999998865
        },
        {
          "name": "C5",
          "midi": 72,
          "time": 362.0288949999988,
          "velocity": 1,
          "duration": 0.07246374999999716
        },
        {
          "name": "B4",
          "midi": 71,
          "time": 362.1013587499988,
          "velocity": 1,
          "duration": 0.07246374999999716
        },
        {
          "name": "A4",
          "midi": 69,
          "time": 362.1738224999988,
          "velocity": 1,
          "duration": 0.2173912499999915
        },
        {
          "name": "B3",
          "midi": 59,
          "time": 362.39121374999877,
          "velocity": 1,
          "duration": 0.434782499999983
        },
        {
          "name": "B4",
          "midi": 71,
          "time": 362.39121374999877,
          "velocity": 1,
          "duration": 0.434782499999983
        },
        {
          "name": "A4",
          "midi": 69,
          "time": 362.82599624999875,
          "velocity": 1,
          "duration": 0.2173912499999915
        },
        {
          "name": "G4",
          "midi": 67,
          "time": 363.04338749999874,
          "velocity": 1,
          "duration": 0.2173912499999915
        },
        {
          "name": "E4",
          "midi": 64,
          "time": 363.26077874999874,
          "velocity": 1,
          "duration": 0.434782499999983
        },
        {
          "name": "E2",
          "midi": 40,
          "time": 363.6955612499987,
          "velocity": 1,
          "duration": 0.434782499999983
        },
        {
          "name": "E4",
          "midi": 64,
          "time": 363.6955612499987,
          "velocity": 1,
          "duration": 0.434782499999983
        },
        {
          "name": "G3",
          "midi": 55,
          "time": 364.1303437499987,
          "velocity": 1,
          "duration": 0.434782499999983
        },
        {
          "name": "B3",
          "midi": 59,
          "time": 364.5651262499987,
          "velocity": 1,
          "duration": 0.434782499999983
        },
        {
          "name": "E4",
          "midi": 64,
          "time": 364.99990874999867,
          "velocity": 1,
          "duration": 0.434782499999983
        },
        {
          "name": "B3",
          "midi": 59,
          "time": 365.43469124999865,
          "velocity": 1,
          "duration": 0.434782499999983
        },
        {
          "name": "G3",
          "midi": 55,
          "time": 365.86947374999863,
          "velocity": 1,
          "duration": 0.434782499999983
        },
        {
          "name": "E2",
          "midi": 40,
          "time": 366.3042562499986,
          "velocity": 1,
          "duration": 0.434782499999983
        },
        {
          "name": "G3",
          "midi": 55,
          "time": 366.7390387499986,
          "velocity": 1,
          "duration": 0.434782499999983
        },
        {
          "name": "B3",
          "midi": 59,
          "time": 367.1738212499986,
          "velocity": 1,
          "duration": 0.434782499999983
        },
        {
          "name": "E4",
          "midi": 64,
          "time": 367.60860374999857,
          "velocity": 1,
          "duration": 0.434782499999983
        },
        {
          "name": "B3",
          "midi": 59,
          "time": 368.04338624999855,
          "velocity": 1,
          "duration": 0.434782499999983
        },
        {
          "name": "B4",
          "midi": 71,
          "time": 368.47816874999853,
          "velocity": 1,
          "duration": 0.434782499999983
        },
        {
          "name": "E2",
          "midi": 40,
          "time": 368.9129512499985,
          "velocity": 1,
          "duration": 0.434782499999983
        },
        {
          "name": "B4",
          "midi": 71,
          "time": 368.9129512499985,
          "velocity": 1,
          "duration": 0.434782499999983
        },
        {
          "name": "B3",
          "midi": 59,
          "time": 369.3477337499985,
          "velocity": 1,
          "duration": 0.434782499999983
        },
        {
          "name": "G3",
          "midi": 55,
          "time": 369.7825162499985,
          "velocity": 1,
          "duration": 0.434782499999983
        },
        {
          "name": "B4",
          "midi": 71,
          "time": 370.21729874999846,
          "velocity": 1,
          "duration": 0.2173912499999915
        },
        {
          "name": "E4",
          "midi": 64,
          "time": 370.43468999999845,
          "velocity": 1,
          "duration": 0.2173912499999915
        },
        {
          "name": "B3",
          "midi": 59,
          "time": 370.65208124999845,
          "velocity": 1,
          "duration": 0.434782499999983
        },
        {
          "name": "G3",
          "midi": 55,
          "time": 371.08686374999843,
          "velocity": 1,
          "duration": 0.434782499999983
        },
        {
          "name": "E2",
          "midi": 40,
          "time": 371.5216462499984,
          "velocity": 1,
          "duration": 0.434782499999983
        },
        {
          "name": "G3",
          "midi": 55,
          "time": 371.9564287499984,
          "velocity": 1,
          "duration": 0.434782499999983
        },
        {
          "name": "B4",
          "midi": 71,
          "time": 372.3912112499984,
          "velocity": 1,
          "duration": 0.434782499999983
        },
        {
          "name": "B3",
          "midi": 59,
          "time": 372.3912112499984,
          "velocity": 1,
          "duration": 0.434782499999983
        },
        {
          "name": "B3",
          "midi": 59,
          "time": 372.82599374999836,
          "velocity": 1,
          "duration": 0.434782499999983
        },
        {
          "name": "C5",
          "midi": 72,
          "time": 372.82599374999836,
          "velocity": 1,
          "duration": 0.434782499999983
        },
        {
          "name": "B4",
          "midi": 71,
          "time": 373.26077624999834,
          "velocity": 1,
          "duration": 0.28985499999998865
        },
        {
          "name": "C5",
          "midi": 72,
          "time": 373.55063124999833,
          "velocity": 1,
          "duration": 0.07246374999999716
        },
        {
          "name": "B4",
          "midi": 71,
          "time": 373.62309499999833,
          "velocity": 1,
          "duration": 0.07246374999999716
        },
        {
          "name": "A4",
          "midi": 69,
          "time": 373.6955587499983,
          "velocity": 1,
          "duration": 0.2173912499999915
        },
        {
          "name": "B3",
          "midi": 59,
          "time": 373.9129499999983,
          "velocity": 1,
          "duration": 0.434782499999983
        },
        {
          "name": "B4",
          "midi": 71,
          "time": 373.9129499999983,
          "velocity": 1,
          "duration": 0.434782499999983
        },
        {
          "name": "A4",
          "midi": 69,
          "time": 374.3477324999983,
          "velocity": 1,
          "duration": 0.2173912499999915
        },
        {
          "name": "G4",
          "midi": 67,
          "time": 374.5651237499983,
          "velocity": 1,
          "duration": 0.2173912499999915
        },
        {
          "name": "E4",
          "midi": 64,
          "time": 374.7825149999983,
          "velocity": 1,
          "duration": 0.434782499999983
        },
        {
          "name": "E2",
          "midi": 40,
          "time": 375.21729749999827,
          "velocity": 1,
          "duration": 0.434782499999983
        },
        {
          "name": "E4",
          "midi": 64,
          "time": 375.21729749999827,
          "velocity": 1,
          "duration": 0.434782499999983
        },
        {
          "name": "G3",
          "midi": 55,
          "time": 375.65207999999825,
          "velocity": 1,
          "duration": 0.434782499999983
        },
        {
          "name": "B3",
          "midi": 59,
          "time": 376.08686249999823,
          "velocity": 1,
          "duration": 0.434782499999983
        },
        {
          "name": "E4",
          "midi": 64,
          "time": 376.5216449999982,
          "velocity": 1,
          "duration": 0.434782499999983
        },
        {
          "name": "B3",
          "midi": 59,
          "time": 376.9564274999982,
          "velocity": 1,
          "duration": 0.434782499999983
        },
        {
          "name": "G3",
          "midi": 55,
          "time": 377.3912099999982,
          "velocity": 1,
          "duration": 0.434782499999983
        },
        {
          "name": "E2",
          "midi": 40,
          "time": 377.82599249999816,
          "velocity": 1,
          "duration": 0.434782499999983
        },
        {
          "name": "G3",
          "midi": 55,
          "time": 378.26077499999815,
          "velocity": 1,
          "duration": 0.434782499999983
        },
        {
          "name": "B3",
          "midi": 59,
          "time": 378.69555749999813,
          "velocity": 1,
          "duration": 0.434782499999983
        },
        {
          "name": "E4",
          "midi": 64,
          "time": 379.1303399999981,
          "velocity": 1,
          "duration": 0.434782499999983
        },
        {
          "name": "B3",
          "midi": 59,
          "time": 379.5651224999981,
          "velocity": 1,
          "duration": 0.434782499999983
        },
        {
          "name": "B4",
          "midi": 71,
          "time": 379.9999049999981,
          "velocity": 1,
          "duration": 0.434782499999983
        },
        {
          "name": "E2",
          "midi": 40,
          "time": 380.43468749999806,
          "velocity": 1,
          "duration": 0.4347825000000398
        },
        {
          "name": "B4",
          "midi": 71,
          "time": 380.43468749999806,
          "velocity": 1,
          "duration": 0.4347825000000398
        },
        {
          "name": "B3",
          "midi": 59,
          "time": 380.8694699999981,
          "velocity": 1,
          "duration": 0.434782499999983
        },
        {
          "name": "G3",
          "midi": 55,
          "time": 381.3042524999981,
          "velocity": 1,
          "duration": 0.4347825000000398
        },
        {
          "name": "B4",
          "midi": 71,
          "time": 381.7390349999981,
          "velocity": 1,
          "duration": 0.2173912499999915
        },
        {
          "name": "E4",
          "midi": 64,
          "time": 381.9564262499981,
          "velocity": 1,
          "duration": 0.21739125000004833
        },
        {
          "name": "B3",
          "midi": 59,
          "time": 382.17381749999817,
          "velocity": 1,
          "duration": 0.434782499999983
        },
        {
          "name": "G3",
          "midi": 55,
          "time": 382.60859999999815,
          "velocity": 1,
          "duration": 0.4347825000000398
        },
        {
          "name": "E2",
          "midi": 40,
          "time": 383.0433824999982,
          "velocity": 1,
          "duration": 0.4347825000000398
        },
        {
          "name": "G3",
          "midi": 55,
          "time": 383.4781649999982,
          "velocity": 1,
          "duration": 0.434782499999983
        },
        {
          "name": "B4",
          "midi": 71,
          "time": 383.9129474999982,
          "velocity": 1,
          "duration": 0.4347825000000398
        },
        {
          "name": "B3",
          "midi": 59,
          "time": 383.9129474999982,
          "velocity": 1,
          "duration": 0.4347825000000398
        },
        {
          "name": "B3",
          "midi": 59,
          "time": 384.34772999999825,
          "velocity": 1,
          "duration": 0.4347825000000398
        },
        {
          "name": "C5",
          "midi": 72,
          "time": 384.34772999999825,
          "velocity": 1,
          "duration": 0.4347825000000398
        },
        {
          "name": "B4",
          "midi": 71,
          "time": 384.7825124999983,
          "velocity": 1,
          "duration": 0.28985499999998865
        },
        {
          "name": "C5",
          "midi": 72,
          "time": 385.0723674999983,
          "velocity": 1,
          "duration": 0.07246374999999716
        },
        {
          "name": "B4",
          "midi": 71,
          "time": 385.1448312499983,
          "velocity": 1,
          "duration": 0.07246374999999716
        },
        {
          "name": "A4",
          "midi": 69,
          "time": 385.2172949999983,
          "velocity": 1,
          "duration": 0.21739125000004833
        },
        {
          "name": "B3",
          "midi": 59,
          "time": 385.4346862499983,
          "velocity": 1,
          "duration": 0.4347825000000398
        },
        {
          "name": "B4",
          "midi": 71,
          "time": 385.4346862499983,
          "velocity": 1,
          "duration": 0.4347825000000398
        },
        {
          "name": "A4",
          "midi": 69,
          "time": 385.86946874999836,
          "velocity": 1,
          "duration": 0.2173912499999915
        },
        {
          "name": "G4",
          "midi": 67,
          "time": 386.08685999999835,
          "velocity": 1,
          "duration": 0.2173912499999915
        },
        {
          "name": "E4",
          "midi": 64,
          "time": 386.30425124999834,
          "velocity": 1,
          "duration": 0.4347825000000398
        },
        {
          "name": "E2",
          "midi": 40,
          "time": 386.7390337499984,
          "velocity": 1,
          "duration": 0.434782499999983
        },
        {
          "name": "E4",
          "midi": 64,
          "time": 386.7390337499984,
          "velocity": 1,
          "duration": 0.434782499999983
        },
        {
          "name": "G3",
          "midi": 55,
          "time": 387.17381624999837,
          "velocity": 1,
          "duration": 0.4347825000000398
        },
        {
          "name": "B3",
          "midi": 59,
          "time": 387.6085987499984,
          "velocity": 1,
          "duration": 0.4347825000000398
        },
        {
          "name": "E4",
          "midi": 64,
          "time": 388.04338124999845,
          "velocity": 1,
          "duration": 0.434782499999983
        },
        {
          "name": "B3",
          "midi": 59,
          "time": 388.47816374999843,
          "velocity": 1,
          "duration": 0.4347825000000398
        },
        {
          "name": "G3",
          "midi": 55,
          "time": 388.91294624999847,
          "velocity": 1,
          "duration": 0.4347825000000398
        },
        {
          "name": "E2",
          "midi": 40,
          "time": 389.3477287499985,
          "velocity": 1,
          "duration": 0.434782499999983
        },
        {
          "name": "G3",
          "midi": 55,
          "time": 389.7825112499985,
          "velocity": 1,
          "duration": 0.4347825000000398
        },
        {
          "name": "B3",
          "midi": 59,
          "time": 390.21729374999853,
          "velocity": 1,
          "duration": 0.4347825000000398
        },
        {
          "name": "E4",
          "midi": 64,
          "time": 390.6520762499986,
          "velocity": 1,
          "duration": 0.434782499999983
        },
        {
          "name": "B3",
          "midi": 59,
          "time": 391.08685874999856,
          "velocity": 1,
          "duration": 0.4347825000000398
        },
        {
          "name": "B4",
          "midi": 71,
          "time": 391.5216412499986,
          "velocity": 1,
          "duration": 0.4347825000000398
        }
      ],
      "controlChanges": {
        "7": [
          {
            "number": 7,
            "time": 0,
            "value": 0.7795275590551181
          },
          {
            "number": 7,
            "time": 380.43468749999806,
            "value": 0.7874015748031497
          },
          {
            "number": 7,
            "time": 380.56512224999807,
            "value": 0.7795275590551181
          },
          {
            "number": 7,
            "time": 380.6955569999981,
            "value": 0.7716535433070866
          },
          {
            "number": 7,
            "time": 380.8259917499981,
            "value": 0.7637795275590551
          },
          {
            "number": 7,
            "time": 380.9564264999981,
            "value": 0.7559055118110236
          },
          {
            "number": 7,
            "time": 381.0868612499981,
            "value": 0.7480314960629921
          },
          {
            "number": 7,
            "time": 381.2172959999981,
            "value": 0.7401574803149606
          },
          {
            "number": 7,
            "time": 381.3477307499981,
            "value": 0.7322834645669292
          },
          {
            "number": 7,
            "time": 381.4781654999981,
            "value": 0.7244094488188977
          },
          {
            "number": 7,
            "time": 381.6086002499981,
            "value": 0.7165354330708661
          },
          {
            "number": 7,
            "time": 381.7390349999981,
            "value": 0.7086614173228346
          },
          {
            "number": 7,
            "time": 381.86946974999813,
            "value": 0.7007874015748031
          },
          {
            "number": 7,
            "time": 381.99990449999814,
            "value": 0.6929133858267716
          },
          {
            "number": 7,
            "time": 382.13033924999814,
            "value": 0.6850393700787402
          },
          {
            "number": 7,
            "time": 382.26077399999815,
            "value": 0.6771653543307087
          },
          {
            "number": 7,
            "time": 382.39120874999816,
            "value": 0.6692913385826772
          },
          {
            "number": 7,
            "time": 382.52164349999816,
            "value": 0.6614173228346457
          },
          {
            "number": 7,
            "time": 382.65207824999817,
            "value": 0.6535433070866141
          },
          {
            "number": 7,
            "time": 382.7825129999982,
            "value": 0.6456692913385826
          },
          {
            "number": 7,
            "time": 382.9129477499982,
            "value": 0.6377952755905512
          },
          {
            "number": 7,
            "time": 383.0433824999982,
            "value": 0.6299212598425197
          },
          {
            "number": 7,
            "time": 383.1738172499982,
            "value": 0.6220472440944882
          },
          {
            "number": 7,
            "time": 383.3042519999982,
            "value": 0.6141732283464567
          },
          {
            "number": 7,
            "time": 383.4346867499982,
            "value": 0.6062992125984252
          },
          {
            "number": 7,
            "time": 383.5651214999982,
            "value": 0.5984251968503937
          },
          {
            "number": 7,
            "time": 383.6955562499982,
            "value": 0.5905511811023622
          },
          {
            "number": 7,
            "time": 383.8259909999982,
            "value": 0.5826771653543307
          },
          {
            "number": 7,
            "time": 383.95642574999823,
            "value": 0.5748031496062992
          },
          {
            "number": 7,
            "time": 384.08686049999824,
            "value": 0.5669291338582677
          },
          {
            "number": 7,
            "time": 384.21729524999824,
            "value": 0.5590551181102362
          },
          {
            "number": 7,
            "time": 384.34772999999825,
            "value": 0.5511811023622047
          },
          {
            "number": 7,
            "time": 384.47816474999826,
            "value": 0.5433070866141733
          },
          {
            "number": 7,
            "time": 384.60859949999826,
            "value": 0.5354330708661418
          },
          {
            "number": 7,
            "time": 384.73903424999827,
            "value": 0.5275590551181102
          },
          {
            "number": 7,
            "time": 384.8694689999983,
            "value": 0.5196850393700787
          },
          {
            "number": 7,
            "time": 384.9999037499983,
            "value": 0.5118110236220472
          },
          {
            "number": 7,
            "time": 385.1303384999983,
            "value": 0.5039370078740157
          },
          {
            "number": 7,
            "time": 385.2607732499983,
            "value": 0.49606299212598426
          },
          {
            "number": 7,
            "time": 385.3912079999983,
            "value": 0.4881889763779528
          },
          {
            "number": 7,
            "time": 385.4346862499983,
            "value": 0.47244094488188976
          },
          {
            "number": 7,
            "time": 385.5651209999983,
            "value": 0.4645669291338583
          },
          {
            "number": 7,
            "time": 385.69555574999833,
            "value": 0.4566929133858268
          },
          {
            "number": 7,
            "time": 385.82599049999834,
            "value": 0.44881889763779526
          },
          {
            "number": 7,
            "time": 385.95642524999835,
            "value": 0.4409448818897638
          },
          {
            "number": 7,
            "time": 386.08685999999835,
            "value": 0.4330708661417323
          },
          {
            "number": 7,
            "time": 386.21729474999836,
            "value": 0.4251968503937008
          },
          {
            "number": 7,
            "time": 386.34772949999837,
            "value": 0.41732283464566927
          },
          {
            "number": 7,
            "time": 386.4781642499984,
            "value": 0.4094488188976378
          },
          {
            "number": 7,
            "time": 386.6085989999984,
            "value": 0.4015748031496063
          },
          {
            "number": 7,
            "time": 386.7390337499984,
            "value": 0.3937007874015748
          },
          {
            "number": 7,
            "time": 386.86222212499837,
            "value": 0.3858267716535433
          },
          {
            "number": 7,
            "time": 386.9926568749984,
            "value": 0.3779527559055118
          },
          {
            "number": 7,
            "time": 387.1230916249984,
            "value": 0.3700787401574803
          },
          {
            "number": 7,
            "time": 387.2535263749984,
            "value": 0.36220472440944884
          },
          {
            "number": 7,
            "time": 387.3839611249984,
            "value": 0.3543307086614173
          },
          {
            "number": 7,
            "time": 387.5143958749984,
            "value": 0.3464566929133858
          },
          {
            "number": 7,
            "time": 387.6448306249984,
            "value": 0.33858267716535434
          },
          {
            "number": 7,
            "time": 387.7752653749984,
            "value": 0.33070866141732286
          },
          {
            "number": 7,
            "time": 387.9057001249984,
            "value": 0.3228346456692913
          },
          {
            "number": 7,
            "time": 388.0361348749984,
            "value": 0.31496062992125984
          },
          {
            "number": 7,
            "time": 388.16656962499843,
            "value": 0.30708661417322836
          },
          {
            "number": 7,
            "time": 388.29700437499844,
            "value": 0.2992125984251969
          },
          {
            "number": 7,
            "time": 388.42743912499844,
            "value": 0.29133858267716534
          },
          {
            "number": 7,
            "time": 388.55787387499845,
            "value": 0.28346456692913385
          },
          {
            "number": 7,
            "time": 388.68830862499846,
            "value": 0.2755905511811024
          },
          {
            "number": 7,
            "time": 388.81874337499846,
            "value": 0.2677165354330709
          },
          {
            "number": 7,
            "time": 388.94917812499847,
            "value": 0.25984251968503935
          },
          {
            "number": 7,
            "time": 389.0796128749985,
            "value": 0.25196850393700787
          },
          {
            "number": 7,
            "time": 389.2100476249985,
            "value": 0.2440944881889764
          },
          {
            "number": 7,
            "time": 389.3404823749985,
            "value": 0.23622047244094488
          },
          {
            "number": 7,
            "time": 389.4709171249985,
            "value": 0.2283464566929134
          },
          {
            "number": 7,
            "time": 389.6013518749985,
            "value": 0.2204724409448819
          },
          {
            "number": 7,
            "time": 389.7317866249985,
            "value": 0.2125984251968504
          },
          {
            "number": 7,
            "time": 389.8622213749985,
            "value": 0.2047244094488189
          },
          {
            "number": 7,
            "time": 389.9926561249985,
            "value": 0.1968503937007874
          },
          {
            "number": 7,
            "time": 390.1230908749985,
            "value": 0.1889763779527559
          },
          {
            "number": 7,
            "time": 390.25352562499853,
            "value": 0.18110236220472442
          },
          {
            "number": 7,
            "time": 390.38396037499854,
            "value": 0.1732283464566929
          },
          {
            "number": 7,
            "time": 390.51439512499854,
            "value": 0.16535433070866143
          },
          {
            "number": 7,
            "time": 390.64482987499855,
            "value": 0.15748031496062992
          },
          {
            "number": 7,
            "time": 390.77526462499856,
            "value": 0.14960629921259844
          },
          {
            "number": 7,
            "time": 390.90569937499856,
            "value": 0.14173228346456693
          },
          {
            "number": 7,
            "time": 391.03613412499857,
            "value": 0.13385826771653545
          },
          {
            "number": 7,
            "time": 391.1665688749986,
            "value": 0.12598425196850394
          },
          {
            "number": 7,
            "time": 391.2970036249986,
            "value": 0.11811023622047244
          },
          {
            "number": 7,
            "time": 391.4274383749986,
            "value": 0.11023622047244094
          },
          {
            "number": 7,
            "time": 391.5578731249986,
            "value": 0.10236220472440945
          },
          {
            "number": 7,
            "time": 391.6883078749986,
            "value": 0.09448818897637795
          },
          {
            "number": 7,
            "time": 391.8187426249986,
            "value": 0.08661417322834646
          },
          {
            "number": 7,
            "time": 391.9491773749986,
            "value": 0.07874015748031496
          },
          {
            "number": 7,
            "time": 392.0796121249986,
            "value": 0.07086614173228346
          },
          {
            "number": 7,
            "time": 392.2100468749986,
            "value": 0.06299212598425197
          },
          {
            "number": 7,
            "time": 392.34048162499863,
            "value": 0.05511811023622047
          },
          {
            "number": 7,
            "time": 392.47091637499864,
            "value": 0.047244094488188976
          },
          {
            "number": 7,
            "time": 392.60135112499864,
            "value": 0.03937007874015748
          },
          {
            "number": 7,
            "time": 392.73178587499865,
            "value": 0.031496062992125984
          },
          {
            "number": 7,
            "time": 392.86222062499866,
            "value": 0.023622047244094488
          },
          {
            "number": 7,
            "time": 392.99265537499866,
            "value": 0.015748031496062992
          },
          {
            "number": 7,
            "time": 393.12309012499867,
            "value": 0.007874015748031496
          },
          {
            "number": 7,
            "time": 393.2535248749987,
            "value": 0
          }
        ]
      },
      "id": 2,
      "name": "Guitar 1",
      "instrumentNumber": 25,
      "instrument": "acoustic guitar (steel)",
      "instrumentFamily": "guitar",
      "channelNumber": 1,
      "isPercussion": false
    },
    {
      "startTime": 49.130422499999995,
      "duration": 272.6086274999993,
      "length": 190,
      "notes": [
        {
          "name": "E4",
          "midi": 64,
          "time": 49.130422499999995,
          "velocity": 1,
          "duration": 0.2173912499999986
        },
        {
          "name": "G4",
          "midi": 67,
          "time": 49.34781374999999,
          "velocity": 1,
          "duration": 0.2173912499999986
        },
        {
          "name": "B4",
          "midi": 71,
          "time": 49.56520499999999,
          "velocity": 1,
          "duration": 1.3043474999999987
        },
        {
          "name": "A4",
          "midi": 69,
          "time": 51.30433499999999,
          "velocity": 1,
          "duration": 0.2173912499999986
        },
        {
          "name": "F#4",
          "midi": 66,
          "time": 51.521726249999986,
          "velocity": 1,
          "duration": 0.2173912499999986
        },
        {
          "name": "D4",
          "midi": 62,
          "time": 51.739117499999985,
          "velocity": 1,
          "duration": 0.4347824999999972
        },
        {
          "name": "G4",
          "midi": 67,
          "time": 52.60868249999998,
          "velocity": 1,
          "duration": 0.2173912499999986
        },
        {
          "name": "E4",
          "midi": 64,
          "time": 52.82607374999998,
          "velocity": 1,
          "duration": 0.2173912499999986
        },
        {
          "name": "C4",
          "midi": 60,
          "time": 53.043464999999976,
          "velocity": 1,
          "duration": 0.4347824999999972
        },
        {
          "name": "G4",
          "midi": 67,
          "time": 53.91302999999997,
          "velocity": 1,
          "duration": 0.2173912499999986
        },
        {
          "name": "D4",
          "midi": 62,
          "time": 54.13042124999997,
          "velocity": 1,
          "duration": 0.2173912499999986
        },
        {
          "name": "B3",
          "midi": 59,
          "time": 54.34781249999997,
          "velocity": 1,
          "duration": 0.4347824999999972
        },
        {
          "name": "F#4",
          "midi": 66,
          "time": 55.21737749999996,
          "velocity": 1,
          "duration": 0.2173912499999986
        },
        {
          "name": "D#4",
          "midi": 63,
          "time": 55.43476874999996,
          "velocity": 1,
          "duration": 0.2173912499999986
        },
        {
          "name": "A3",
          "midi": 57,
          "time": 55.65215999999996,
          "velocity": 1,
          "duration": 0.4347824999999972
        },
        {
          "name": "A3",
          "midi": 57,
          "time": 56.08694249999996,
          "velocity": 1,
          "duration": 0.14492750000000143
        },
        {
          "name": "G3",
          "midi": 55,
          "time": 56.23186999999996,
          "velocity": 1,
          "duration": 0.14492750000000143
        },
        {
          "name": "F#3",
          "midi": 54,
          "time": 56.37679749999996,
          "velocity": 1,
          "duration": 0.14492750000000143
        },
        {
          "name": "G3",
          "midi": 55,
          "time": 56.52172499999996,
          "velocity": 1,
          "duration": 0.8695650000000015
        },
        {
          "name": "E5",
          "midi": 76,
          "time": 58.69563749999996,
          "velocity": 1,
          "duration": 2.6086949999999973
        },
        {
          "name": "B4",
          "midi": 71,
          "time": 58.69563749999996,
          "velocity": 1,
          "duration": 2.6086949999999973
        },
        {
          "name": "G4",
          "midi": 67,
          "time": 58.69563749999996,
          "velocity": 1,
          "duration": 2.6086949999999973
        },
        {
          "name": "G3",
          "midi": 55,
          "time": 109.13040749999996,
          "velocity": 1,
          "duration": 0.4347824999999972
        },
        {
          "name": "E3",
          "midi": 52,
          "time": 109.13040749999996,
          "velocity": 1,
          "duration": 0.4347824999999972
        },
        {
          "name": "E3",
          "midi": 52,
          "time": 109.56518999999996,
          "velocity": 1,
          "duration": 0.2173912500000057
        },
        {
          "name": "G3",
          "midi": 55,
          "time": 109.56518999999996,
          "velocity": 1,
          "duration": 0.2173912500000057
        },
        {
          "name": "A3",
          "midi": 57,
          "time": 109.78258124999996,
          "velocity": 1,
          "duration": 0.4347824999999972
        },
        {
          "name": "F#3",
          "midi": 54,
          "time": 109.78258124999996,
          "velocity": 1,
          "duration": 0.4347824999999972
        },
        {
          "name": "F#3",
          "midi": 54,
          "time": 110.21736374999996,
          "velocity": 1,
          "duration": 0.2173912500000057
        },
        {
          "name": "A3",
          "midi": 57,
          "time": 110.21736374999996,
          "velocity": 1,
          "duration": 0.2173912500000057
        },
        {
          "name": "E3",
          "midi": 52,
          "time": 110.43475499999997,
          "velocity": 1,
          "duration": 0.4347824999999972
        },
        {
          "name": "G3",
          "midi": 55,
          "time": 110.43475499999997,
          "velocity": 1,
          "duration": 0.4347824999999972
        },
        {
          "name": "D3",
          "midi": 50,
          "time": 110.86953749999996,
          "velocity": 1,
          "duration": 0.6521737500000029
        },
        {
          "name": "F#3",
          "midi": 54,
          "time": 110.86953749999996,
          "velocity": 1,
          "duration": 0.6521737500000029
        },
        {
          "name": "E3",
          "midi": 52,
          "time": 111.52171124999997,
          "velocity": 1,
          "duration": 0.6521737500000029
        },
        {
          "name": "E3",
          "midi": 52,
          "time": 112.17388499999997,
          "velocity": 1,
          "duration": 1.3043475000000058
        },
        {
          "name": "G3",
          "midi": 55,
          "time": 114.34779749999997,
          "velocity": 1,
          "duration": 0.4347824999999972
        },
        {
          "name": "E3",
          "midi": 52,
          "time": 114.34779749999997,
          "velocity": 1,
          "duration": 0.4347824999999972
        },
        {
          "name": "E3",
          "midi": 52,
          "time": 114.78257999999997,
          "velocity": 1,
          "duration": 0.2173912500000057
        },
        {
          "name": "G3",
          "midi": 55,
          "time": 114.78257999999997,
          "velocity": 1,
          "duration": 0.2173912500000057
        },
        {
          "name": "A3",
          "midi": 57,
          "time": 114.99997124999997,
          "velocity": 1,
          "duration": 0.4347824999999972
        },
        {
          "name": "F#3",
          "midi": 54,
          "time": 114.99997124999997,
          "velocity": 1,
          "duration": 0.4347824999999972
        },
        {
          "name": "F#3",
          "midi": 54,
          "time": 115.43475374999997,
          "velocity": 1,
          "duration": 0.2173912500000057
        },
        {
          "name": "A3",
          "midi": 57,
          "time": 115.43475374999997,
          "velocity": 1,
          "duration": 0.2173912500000057
        },
        {
          "name": "G3",
          "midi": 55,
          "time": 115.65214499999998,
          "velocity": 1,
          "duration": 0.4347824999999972
        },
        {
          "name": "E3",
          "midi": 52,
          "time": 115.65214499999998,
          "velocity": 1,
          "duration": 0.4347824999999972
        },
        {
          "name": "D3",
          "midi": 50,
          "time": 116.08692749999997,
          "velocity": 1,
          "duration": 0.6521737500000029
        },
        {
          "name": "F#3",
          "midi": 54,
          "time": 116.08692749999997,
          "velocity": 1,
          "duration": 0.6521737500000029
        },
        {
          "name": "D3",
          "midi": 50,
          "time": 116.73910124999998,
          "velocity": 1,
          "duration": 0.6521737500000029
        },
        {
          "name": "D3",
          "midi": 50,
          "time": 117.39127499999998,
          "velocity": 1,
          "duration": 1.3043475000000058
        },
        {
          "name": "E3",
          "midi": 52,
          "time": 119.56518749999998,
          "velocity": 1,
          "duration": 0.4347824999999972
        },
        {
          "name": "G3",
          "midi": 55,
          "time": 119.56518749999998,
          "velocity": 1,
          "duration": 0.4347824999999972
        },
        {
          "name": "G3",
          "midi": 55,
          "time": 119.99996999999998,
          "velocity": 1,
          "duration": 0.2173912500000057
        },
        {
          "name": "E3",
          "midi": 52,
          "time": 119.99996999999998,
          "velocity": 1,
          "duration": 0.2173912500000057
        },
        {
          "name": "F#3",
          "midi": 54,
          "time": 120.21736124999998,
          "velocity": 1,
          "duration": 0.4347824999999972
        },
        {
          "name": "A3",
          "midi": 57,
          "time": 120.21736124999998,
          "velocity": 1,
          "duration": 0.4347824999999972
        },
        {
          "name": "A3",
          "midi": 57,
          "time": 120.65214374999998,
          "velocity": 1,
          "duration": 0.2173912500000057
        },
        {
          "name": "F#3",
          "midi": 54,
          "time": 120.65214374999998,
          "velocity": 1,
          "duration": 0.2173912500000057
        },
        {
          "name": "E3",
          "midi": 52,
          "time": 120.86953499999998,
          "velocity": 1,
          "duration": 0.4347824999999972
        },
        {
          "name": "G3",
          "midi": 55,
          "time": 120.86953499999998,
          "velocity": 1,
          "duration": 0.4347824999999972
        },
        {
          "name": "D3",
          "midi": 50,
          "time": 121.30431749999998,
          "velocity": 1,
          "duration": 0.6521737500000029
        },
        {
          "name": "F#3",
          "midi": 54,
          "time": 121.30431749999998,
          "velocity": 1,
          "duration": 0.6521737500000029
        },
        {
          "name": "G3",
          "midi": 55,
          "time": 121.95649124999998,
          "velocity": 1,
          "duration": 0.6521737500000029
        },
        {
          "name": "C3",
          "midi": 48,
          "time": 122.60866499999999,
          "velocity": 1,
          "duration": 1.3043475000000058
        },
        {
          "name": "E3",
          "midi": 52,
          "time": 122.60866499999999,
          "velocity": 1,
          "duration": 1.3043475000000058
        },
        {
          "name": "B2",
          "midi": 47,
          "time": 123.9130125,
          "velocity": 1,
          "duration": 0.4347824999999972
        },
        {
          "name": "D3",
          "midi": 50,
          "time": 123.9130125,
          "velocity": 1,
          "duration": 0.4347824999999972
        },
        {
          "name": "B2",
          "midi": 47,
          "time": 124.34779499999999,
          "velocity": 1,
          "duration": 0.2173912500000057
        },
        {
          "name": "C3",
          "midi": 48,
          "time": 124.56518625,
          "velocity": 1,
          "duration": 0.2173912500000057
        },
        {
          "name": "B2",
          "midi": 47,
          "time": 124.7825775,
          "velocity": 1,
          "duration": 0.4347824999999972
        },
        {
          "name": "B2",
          "midi": 47,
          "time": 125.6521425,
          "velocity": 1,
          "duration": 0.2173912500000057
        },
        {
          "name": "C3",
          "midi": 48,
          "time": 125.86953375,
          "velocity": 1,
          "duration": 0.2173912500000057
        },
        {
          "name": "B2",
          "midi": 47,
          "time": 126.08692500000001,
          "velocity": 1,
          "duration": 0.4347824999999972
        },
        {
          "name": "E4",
          "midi": 64,
          "time": 126.95649,
          "velocity": 1,
          "duration": 0.4347824999999972
        },
        {
          "name": "F#4",
          "midi": 66,
          "time": 127.3912725,
          "velocity": 1,
          "duration": 0.4347824999999972
        },
        {
          "name": "G4",
          "midi": 67,
          "time": 127.826055,
          "velocity": 1,
          "duration": 0.4347825000000114
        },
        {
          "name": "F#4",
          "midi": 66,
          "time": 128.2608375,
          "velocity": 1,
          "duration": 0.4347825000000114
        },
        {
          "name": "E4",
          "midi": 64,
          "time": 128.69562000000002,
          "velocity": 1,
          "duration": 0.4347825000000114
        },
        {
          "name": "G4",
          "midi": 67,
          "time": 129.13040250000003,
          "velocity": 1,
          "duration": 0.4347825000000114
        },
        {
          "name": "F#4",
          "midi": 66,
          "time": 129.56518500000004,
          "velocity": 1,
          "duration": 0.4347825000000114
        },
        {
          "name": "E4",
          "midi": 64,
          "time": 129.99996750000005,
          "velocity": 1,
          "duration": 0.4347825000000114
        },
        {
          "name": "A4",
          "midi": 69,
          "time": 130.43475000000007,
          "velocity": 1,
          "duration": 1.3043475000000058
        },
        {
          "name": "G5",
          "midi": 79,
          "time": 189.13038750000007,
          "velocity": 1,
          "duration": 0.4347825000000114
        },
        {
          "name": "E5",
          "midi": 76,
          "time": 189.56517000000008,
          "velocity": 1,
          "duration": 0.8695649999999944
        },
        {
          "name": "A5",
          "midi": 81,
          "time": 190.43473500000007,
          "velocity": 1,
          "duration": 0.4347825000000114
        },
        {
          "name": "E5",
          "midi": 76,
          "time": 190.8695175000001,
          "velocity": 1,
          "duration": 0.8695649999999944
        },
        {
          "name": "B5",
          "midi": 83,
          "time": 191.73908250000008,
          "velocity": 1,
          "duration": 0.4347825000000114
        },
        {
          "name": "E5",
          "midi": 76,
          "time": 192.1738650000001,
          "velocity": 1,
          "duration": 0.8695649999999944
        },
        {
          "name": "C6",
          "midi": 84,
          "time": 193.0434300000001,
          "velocity": 1,
          "duration": 0.4347825000000114
        },
        {
          "name": "E5",
          "midi": 76,
          "time": 193.4782125000001,
          "velocity": 1,
          "duration": 0.8695649999999944
        },
        {
          "name": "E5",
          "midi": 76,
          "time": 194.3477775000001,
          "velocity": 1,
          "duration": 0.4347825000000114
        },
        {
          "name": "C5",
          "midi": 72,
          "time": 194.7825600000001,
          "velocity": 1,
          "duration": 2.1739125
        },
        {
          "name": "E5",
          "midi": 76,
          "time": 199.56516750000011,
          "velocity": 1,
          "duration": 0.4347825000000114
        },
        {
          "name": "C5",
          "midi": 72,
          "time": 199.99995000000013,
          "velocity": 1,
          "duration": 0.4347825000000114
        },
        {
          "name": "G4",
          "midi": 67,
          "time": 200.43473250000014,
          "velocity": 1,
          "duration": 1.7391299999999887
        },
        {
          "name": "E5",
          "midi": 76,
          "time": 202.13763062500013,
          "velocity": 0.5905511811023622,
          "duration": 0.47101437500001
        },
        {
          "name": "F#5",
          "midi": 78,
          "time": 202.17386250000013,
          "velocity": 1,
          "duration": 0.4347825000000114
        },
        {
          "name": "D5",
          "midi": 74,
          "time": 202.60864500000014,
          "velocity": 1,
          "duration": 0.4347825000000114
        },
        {
          "name": "A4",
          "midi": 69,
          "time": 203.04342750000015,
          "velocity": 1,
          "duration": 1.7391299999999887
        },
        {
          "name": "B4",
          "midi": 71,
          "time": 204.78255750000014,
          "velocity": 1,
          "duration": 0.2173912499999915
        },
        {
          "name": "E5",
          "midi": 76,
          "time": 204.99994875000013,
          "velocity": 1,
          "duration": 1.0869562499999859
        },
        {
          "name": "E5",
          "midi": 76,
          "time": 206.08690500000012,
          "velocity": 1,
          "duration": 0.2173912499999915
        },
        {
          "name": "B4",
          "midi": 71,
          "time": 206.3042962500001,
          "velocity": 1,
          "duration": 1.0869562499999859
        },
        {
          "name": "G5",
          "midi": 79,
          "time": 209.9999475000001,
          "velocity": 1,
          "duration": 0.4347825000000114
        },
        {
          "name": "E5",
          "midi": 76,
          "time": 210.43473000000012,
          "velocity": 1,
          "duration": 0.8695649999999944
        },
        {
          "name": "A5",
          "midi": 81,
          "time": 211.3042950000001,
          "velocity": 1,
          "duration": 0.4347825000000114
        },
        {
          "name": "E5",
          "midi": 76,
          "time": 211.73907750000012,
          "velocity": 1,
          "duration": 0.8695649999999944
        },
        {
          "name": "B5",
          "midi": 83,
          "time": 212.60864250000012,
          "velocity": 1,
          "duration": 0.4347825000000114
        },
        {
          "name": "E5",
          "midi": 76,
          "time": 213.04342500000013,
          "velocity": 1,
          "duration": 0.8695649999999944
        },
        {
          "name": "C6",
          "midi": 84,
          "time": 213.91299000000012,
          "velocity": 1,
          "duration": 0.4347825000000114
        },
        {
          "name": "E5",
          "midi": 76,
          "time": 214.34777250000013,
          "velocity": 1,
          "duration": 0.8695649999999944
        },
        {
          "name": "E5",
          "midi": 76,
          "time": 215.21733750000013,
          "velocity": 1,
          "duration": 0.4347825000000114
        },
        {
          "name": "C5",
          "midi": 72,
          "time": 215.65212000000014,
          "velocity": 1,
          "duration": 2.1739125
        },
        {
          "name": "E5",
          "midi": 76,
          "time": 220.43472750000015,
          "velocity": 1,
          "duration": 0.4347825000000114
        },
        {
          "name": "C5",
          "midi": 72,
          "time": 220.86951000000016,
          "velocity": 1,
          "duration": 0.4347825000000114
        },
        {
          "name": "G4",
          "midi": 67,
          "time": 221.30429250000017,
          "velocity": 1,
          "duration": 1.7391299999999887
        },
        {
          "name": "G4",
          "midi": 67,
          "time": 223.47820500000017,
          "velocity": 1,
          "duration": 0.4347825000000114
        },
        {
          "name": "G4",
          "midi": 67,
          "time": 223.91298750000018,
          "velocity": 1,
          "duration": 0.2173912499999915
        },
        {
          "name": "A4",
          "midi": 69,
          "time": 224.13037875000018,
          "velocity": 1,
          "duration": 0.6521737500000029
        },
        {
          "name": "G4",
          "midi": 67,
          "time": 224.78255250000018,
          "velocity": 1,
          "duration": 0.2173912499999915
        },
        {
          "name": "A4",
          "midi": 69,
          "time": 224.99994375000017,
          "velocity": 1,
          "duration": 0.2173912499999915
        },
        {
          "name": "A4",
          "midi": 69,
          "time": 225.21733500000016,
          "velocity": 1,
          "duration": 0.4347824999996419
        },
        {
          "name": "G4",
          "midi": 67,
          "time": 225.6521174999998,
          "velocity": 1,
          "duration": 0.2173912499999915
        },
        {
          "name": "B4",
          "midi": 71,
          "time": 225.8695087499998,
          "velocity": 1,
          "duration": 1.0869562499999859
        },
        {
          "name": "B4",
          "midi": 71,
          "time": 226.95646499999978,
          "velocity": 1,
          "duration": 0.2173912499999915
        },
        {
          "name": "E4",
          "midi": 64,
          "time": 227.17385624999977,
          "velocity": 1,
          "duration": 1.0869562499999859
        },
        {
          "name": "D5",
          "midi": 74,
          "time": 228.69559499999977,
          "velocity": 1,
          "duration": 0.434782499999983
        },
        {
          "name": "A4",
          "midi": 69,
          "time": 228.69559499999977,
          "velocity": 1,
          "duration": 0.2173912499999915
        },
        {
          "name": "A4",
          "midi": 69,
          "time": 229.13037749999975,
          "velocity": 1,
          "duration": 0.43478249999992613
        },
        {
          "name": "D5",
          "midi": 74,
          "time": 229.13037749999975,
          "velocity": 1,
          "duration": 0.43478249999992613
        },
        {
          "name": "D5",
          "midi": 74,
          "time": 229.56515999999968,
          "velocity": 1,
          "duration": 0.14492749999993748
        },
        {
          "name": "A4",
          "midi": 69,
          "time": 229.56515999999968,
          "velocity": 1,
          "duration": 0.14492749999993748
        },
        {
          "name": "A4",
          "midi": 69,
          "time": 229.71008749999962,
          "velocity": 1,
          "duration": 0.14492749999999432
        },
        {
          "name": "G4",
          "midi": 67,
          "time": 229.8550149999996,
          "velocity": 1,
          "duration": 0.14492749999999432
        },
        {
          "name": "E4",
          "midi": 64,
          "time": 229.9999424999996,
          "velocity": 1,
          "duration": 0.4347825000000114
        },
        {
          "name": "D4",
          "midi": 62,
          "time": 230.43472499999962,
          "velocity": 1,
          "duration": 0.10869562499999574
        },
        {
          "name": "E4",
          "midi": 64,
          "time": 230.5434206249996,
          "velocity": 1,
          "duration": 0.10869562499999574
        },
        {
          "name": "G4",
          "midi": 67,
          "time": 230.6521162499996,
          "velocity": 1,
          "duration": 0.2173912499999915
        },
        {
          "name": "E4",
          "midi": 64,
          "time": 230.8695074999996,
          "velocity": 1,
          "duration": 1.3043475000000058
        },
        {
          "name": "G3",
          "midi": 55,
          "time": 255.2173274999996,
          "velocity": 1,
          "duration": 0.4347825000000114
        },
        {
          "name": "E3",
          "midi": 52,
          "time": 255.2173274999996,
          "velocity": 1,
          "duration": 0.4347825000000114
        },
        {
          "name": "E3",
          "midi": 52,
          "time": 255.65210999999962,
          "velocity": 1,
          "duration": 0.2173912499999915
        },
        {
          "name": "G3",
          "midi": 55,
          "time": 255.65210999999962,
          "velocity": 1,
          "duration": 0.2173912499999915
        },
        {
          "name": "A3",
          "midi": 57,
          "time": 255.86950124999962,
          "velocity": 1,
          "duration": 0.4347825000000114
        },
        {
          "name": "F#3",
          "midi": 54,
          "time": 255.86950124999962,
          "velocity": 1,
          "duration": 0.4347825000000114
        },
        {
          "name": "F#3",
          "midi": 54,
          "time": 256.3042837499996,
          "velocity": 1,
          "duration": 0.2173912499999915
        },
        {
          "name": "A3",
          "midi": 57,
          "time": 256.3042837499996,
          "velocity": 1,
          "duration": 0.2173912499999915
        },
        {
          "name": "E3",
          "midi": 52,
          "time": 256.5216749999996,
          "velocity": 1,
          "duration": 0.434782499999983
        },
        {
          "name": "G3",
          "midi": 55,
          "time": 256.5216749999996,
          "velocity": 1,
          "duration": 0.434782499999983
        },
        {
          "name": "D3",
          "midi": 50,
          "time": 256.9564574999996,
          "velocity": 1,
          "duration": 0.6521737499999745
        },
        {
          "name": "F#3",
          "midi": 54,
          "time": 256.9564574999996,
          "velocity": 1,
          "duration": 0.6521737499999745
        },
        {
          "name": "E3",
          "midi": 52,
          "time": 257.6086312499996,
          "velocity": 1,
          "duration": 0.6521737499999745
        },
        {
          "name": "E3",
          "midi": 52,
          "time": 258.26080499999955,
          "velocity": 1,
          "duration": 1.3043475000000058
        },
        {
          "name": "G3",
          "midi": 55,
          "time": 260.4347174999996,
          "velocity": 1,
          "duration": 0.434782499999983
        },
        {
          "name": "E3",
          "midi": 52,
          "time": 260.4347174999996,
          "velocity": 1,
          "duration": 0.434782499999983
        },
        {
          "name": "E3",
          "midi": 52,
          "time": 260.86949999999956,
          "velocity": 1,
          "duration": 0.2173912499999915
        },
        {
          "name": "G3",
          "midi": 55,
          "time": 260.86949999999956,
          "velocity": 1,
          "duration": 0.2173912499999915
        },
        {
          "name": "A3",
          "midi": 57,
          "time": 261.08689124999955,
          "velocity": 1,
          "duration": 0.434782499999983
        },
        {
          "name": "F#3",
          "midi": 54,
          "time": 261.08689124999955,
          "velocity": 1,
          "duration": 0.434782499999983
        },
        {
          "name": "F#3",
          "midi": 54,
          "time": 261.52167374999954,
          "velocity": 1,
          "duration": 0.2173912499999915
        },
        {
          "name": "A3",
          "midi": 57,
          "time": 261.52167374999954,
          "velocity": 1,
          "duration": 0.2173912499999915
        },
        {
          "name": "G3",
          "midi": 55,
          "time": 261.7390649999995,
          "velocity": 1,
          "duration": 0.434782499999983
        },
        {
          "name": "E3",
          "midi": 52,
          "time": 261.7390649999995,
          "velocity": 1,
          "duration": 0.434782499999983
        },
        {
          "name": "D3",
          "midi": 50,
          "time": 262.1738474999995,
          "velocity": 1,
          "duration": 0.6521737499999745
        },
        {
          "name": "F#3",
          "midi": 54,
          "time": 262.1738474999995,
          "velocity": 1,
          "duration": 0.6521737499999745
        },
        {
          "name": "D3",
          "midi": 50,
          "time": 262.8260212499995,
          "velocity": 1,
          "duration": 0.6521737499999745
        },
        {
          "name": "D3",
          "midi": 50,
          "time": 263.47819499999946,
          "velocity": 1,
          "duration": 1.3043475000000058
        },
        {
          "name": "E3",
          "midi": 52,
          "time": 265.6521074999995,
          "velocity": 1,
          "duration": 0.434782499999983
        },
        {
          "name": "G3",
          "midi": 55,
          "time": 265.6521074999995,
          "velocity": 1,
          "duration": 0.434782499999983
        },
        {
          "name": "G3",
          "midi": 55,
          "time": 266.08688999999947,
          "velocity": 1,
          "duration": 0.2173912499999915
        },
        {
          "name": "E3",
          "midi": 52,
          "time": 266.08688999999947,
          "velocity": 1,
          "duration": 0.2173912499999915
        },
        {
          "name": "F#3",
          "midi": 54,
          "time": 266.30428124999946,
          "velocity": 1,
          "duration": 0.434782499999983
        },
        {
          "name": "A3",
          "midi": 57,
          "time": 266.30428124999946,
          "velocity": 1,
          "duration": 0.434782499999983
        },
        {
          "name": "A3",
          "midi": 57,
          "time": 266.73906374999945,
          "velocity": 1,
          "duration": 0.2173912499999915
        },
        {
          "name": "F#3",
          "midi": 54,
          "time": 266.73906374999945,
          "velocity": 1,
          "duration": 0.2173912499999915
        },
        {
          "name": "E3",
          "midi": 52,
          "time": 266.95645499999944,
          "velocity": 1,
          "duration": 0.434782499999983
        },
        {
          "name": "G3",
          "midi": 55,
          "time": 266.95645499999944,
          "velocity": 1,
          "duration": 0.434782499999983
        },
        {
          "name": "D3",
          "midi": 50,
          "time": 267.3912374999994,
          "velocity": 1,
          "duration": 0.6521737499999745
        },
        {
          "name": "F#3",
          "midi": 54,
          "time": 267.3912374999994,
          "velocity": 1,
          "duration": 0.6521737499999745
        },
        {
          "name": "G3",
          "midi": 55,
          "time": 268.0434112499994,
          "velocity": 1,
          "duration": 0.6521737499999745
        },
        {
          "name": "C3",
          "midi": 48,
          "time": 268.69558499999937,
          "velocity": 1,
          "duration": 1.3043475000000058
        },
        {
          "name": "E3",
          "midi": 52,
          "time": 268.69558499999937,
          "velocity": 1,
          "duration": 1.3043475000000058
        },
        {
          "name": "B2",
          "midi": 47,
          "time": 269.9999324999994,
          "velocity": 1,
          "duration": 0.434782499999983
        },
        {
          "name": "D3",
          "midi": 50,
          "time": 269.9999324999994,
          "velocity": 1,
          "duration": 0.434782499999983
        },
        {
          "name": "B2",
          "midi": 47,
          "time": 270.43471499999936,
          "velocity": 1,
          "duration": 0.2173912499999915
        },
        {
          "name": "C3",
          "midi": 48,
          "time": 270.65210624999935,
          "velocity": 1,
          "duration": 0.2173912499999915
        },
        {
          "name": "B2",
          "midi": 47,
          "time": 270.86949749999934,
          "velocity": 1,
          "duration": 0.434782499999983
        },
        {
          "name": "B2",
          "midi": 47,
          "time": 271.7390624999993,
          "velocity": 1,
          "duration": 0.2173912499999915
        },
        {
          "name": "C3",
          "midi": 48,
          "time": 271.9564537499993,
          "velocity": 1,
          "duration": 0.2173912499999915
        },
        {
          "name": "B2",
          "midi": 47,
          "time": 272.1738449999993,
          "velocity": 1,
          "duration": 0.434782499999983
        }
      ],
      "controlChanges": {
        "7": [
          {
            "number": 7,
            "time": 0,
            "value": 0.7795275590551181
          }
        ]
      },
      "id": 3,
      "name": "Guitar 2",
      "instrumentNumber": 27,
      "instrument": "electric guitar (clean)",
      "instrumentFamily": "guitar",
      "channelNumber": 2,
      "isPercussion": false
    },
    {
      "startTime": 84.78258749999999,
      "duration": 333.91295999999994,
      "length": 124,
      "notes": [
        {
          "name": "G4",
          "midi": 67,
          "time": 84.78258749999999,
          "velocity": 1,
          "duration": 2.6086949999999973
        },
        {
          "name": "A4",
          "midi": 69,
          "time": 87.39128249999999,
          "velocity": 1,
          "duration": 0.6521737500000029
        },
        {
          "name": "B4",
          "midi": 71,
          "time": 88.04345624999999,
          "velocity": 1,
          "duration": 0.6521737500000029
        },
        {
          "name": "G4",
          "midi": 67,
          "time": 88.69563,
          "velocity": 1,
          "duration": 3.913042500000003
        },
        {
          "name": "A4",
          "midi": 69,
          "time": 92.6086725,
          "velocity": 1,
          "duration": 0.6521737500000029
        },
        {
          "name": "B4",
          "midi": 71,
          "time": 93.26084625,
          "velocity": 1,
          "duration": 0.6521737500000029
        },
        {
          "name": "C5",
          "midi": 72,
          "time": 93.91302,
          "velocity": 1,
          "duration": 1.3043475000000058
        },
        {
          "name": "G4",
          "midi": 67,
          "time": 95.21736750000001,
          "velocity": 1,
          "duration": 2.6086949999999973
        },
        {
          "name": "A4",
          "midi": 69,
          "time": 97.8260625,
          "velocity": 1,
          "duration": 0.6521737500000029
        },
        {
          "name": "B4",
          "midi": 71,
          "time": 98.47823625000001,
          "velocity": 1,
          "duration": 0.6521737500000029
        },
        {
          "name": "G4",
          "midi": 67,
          "time": 99.13041000000001,
          "velocity": 1,
          "duration": 1.3043475000000058
        },
        {
          "name": "G4",
          "midi": 67,
          "time": 100.43475750000002,
          "velocity": 1,
          "duration": 1.3043475000000058
        },
        {
          "name": "F#4",
          "midi": 66,
          "time": 101.73910500000002,
          "velocity": 1,
          "duration": 1.3043475000000058
        },
        {
          "name": "E4",
          "midi": 64,
          "time": 103.04345250000003,
          "velocity": 1,
          "duration": 5.217389999999995
        },
        {
          "name": "C3",
          "midi": 48,
          "time": 139.99996500000003,
          "velocity": 1,
          "duration": 0.2173912499999915
        },
        {
          "name": "E3",
          "midi": 52,
          "time": 140.21735625000002,
          "velocity": 1,
          "duration": 0.2173912499999915
        },
        {
          "name": "G3",
          "midi": 55,
          "time": 140.43474750000001,
          "velocity": 1,
          "duration": 0.8695649999999944
        },
        {
          "name": "A2",
          "midi": 45,
          "time": 141.3043125,
          "velocity": 1,
          "duration": 0.2173912499999915
        },
        {
          "name": "E3",
          "midi": 52,
          "time": 141.52170375,
          "velocity": 1,
          "duration": 0.2173912499999915
        },
        {
          "name": "A3",
          "midi": 57,
          "time": 141.739095,
          "velocity": 1,
          "duration": 0.8695649999999944
        },
        {
          "name": "D3",
          "midi": 50,
          "time": 142.60866,
          "velocity": 1,
          "duration": 0.2173912499999915
        },
        {
          "name": "A3",
          "midi": 57,
          "time": 142.82605124999998,
          "velocity": 1,
          "duration": 0.2173912499999915
        },
        {
          "name": "D4",
          "midi": 62,
          "time": 143.04344249999997,
          "velocity": 1,
          "duration": 0.4347825000000114
        },
        {
          "name": "E4",
          "midi": 64,
          "time": 143.47822499999998,
          "velocity": 1,
          "duration": 2.6086950000000115
        },
        {
          "name": "C3",
          "midi": 48,
          "time": 180.43473749999998,
          "velocity": 1,
          "duration": 0.2173912499999915
        },
        {
          "name": "E3",
          "midi": 52,
          "time": 180.65212874999997,
          "velocity": 1,
          "duration": 0.2173912499999915
        },
        {
          "name": "G3",
          "midi": 55,
          "time": 180.86951999999997,
          "velocity": 1,
          "duration": 0.8695649999999944
        },
        {
          "name": "A2",
          "midi": 45,
          "time": 181.73908499999996,
          "velocity": 1,
          "duration": 0.2173912499999915
        },
        {
          "name": "E3",
          "midi": 52,
          "time": 181.95647624999995,
          "velocity": 1,
          "duration": 0.2173912499999915
        },
        {
          "name": "A3",
          "midi": 57,
          "time": 182.17386749999994,
          "velocity": 1,
          "duration": 0.8695649999999944
        },
        {
          "name": "D3",
          "midi": 50,
          "time": 183.04343249999994,
          "velocity": 1,
          "duration": 0.2173912499999915
        },
        {
          "name": "A3",
          "midi": 57,
          "time": 183.26082374999993,
          "velocity": 1,
          "duration": 0.2173912499999915
        },
        {
          "name": "D4",
          "midi": 62,
          "time": 183.47821499999992,
          "velocity": 1,
          "duration": 0.4347825000000114
        },
        {
          "name": "E4",
          "midi": 64,
          "time": 183.91299749999993,
          "velocity": 1,
          "duration": 2.6086950000000115
        },
        {
          "name": "G4",
          "midi": 67,
          "time": 230.86950749999994,
          "velocity": 1,
          "duration": 2.6086950000000115
        },
        {
          "name": "A4",
          "midi": 69,
          "time": 233.47820249999995,
          "velocity": 1,
          "duration": 0.6521737500000029
        },
        {
          "name": "B4",
          "midi": 71,
          "time": 234.13037624999996,
          "velocity": 1,
          "duration": 0.6521737500000029
        },
        {
          "name": "G4",
          "midi": 67,
          "time": 234.78254999999996,
          "velocity": 1,
          "duration": 3.913042499999989
        },
        {
          "name": "A4",
          "midi": 69,
          "time": 238.69559249999995,
          "velocity": 1,
          "duration": 0.6521737500000029
        },
        {
          "name": "B4",
          "midi": 71,
          "time": 239.34776624999995,
          "velocity": 1,
          "duration": 0.6521737500000029
        },
        {
          "name": "C5",
          "midi": 72,
          "time": 239.99993999999995,
          "velocity": 1,
          "duration": 1.3043475000000058
        },
        {
          "name": "G4",
          "midi": 67,
          "time": 241.30428749999996,
          "velocity": 1,
          "duration": 2.6086950000000115
        },
        {
          "name": "A4",
          "midi": 69,
          "time": 243.91298249999997,
          "velocity": 1,
          "duration": 0.6521737500000029
        },
        {
          "name": "B4",
          "midi": 71,
          "time": 244.56515624999997,
          "velocity": 1,
          "duration": 0.6521737500000029
        },
        {
          "name": "G4",
          "midi": 67,
          "time": 245.21732999999998,
          "velocity": 1,
          "duration": 1.3043475000000058
        },
        {
          "name": "G4",
          "midi": 67,
          "time": 246.52167749999998,
          "velocity": 1,
          "duration": 1.3043475000000058
        },
        {
          "name": "F#4",
          "midi": 66,
          "time": 247.826025,
          "velocity": 1,
          "duration": 1.3043475000000058
        },
        {
          "name": "E4",
          "midi": 64,
          "time": 249.1303725,
          "velocity": 1,
          "duration": 5.217389999999995
        },
        {
          "name": "C3",
          "midi": 48,
          "time": 296.521665,
          "velocity": 1,
          "duration": 0.2173912499999915
        },
        {
          "name": "E3",
          "midi": 52,
          "time": 296.73905625,
          "velocity": 1,
          "duration": 0.2173912499999915
        },
        {
          "name": "G3",
          "midi": 55,
          "time": 296.95644749999997,
          "velocity": 1,
          "duration": 0.8695650000000228
        },
        {
          "name": "A2",
          "midi": 45,
          "time": 297.8260125,
          "velocity": 1,
          "duration": 0.2173912499999915
        },
        {
          "name": "E3",
          "midi": 52,
          "time": 298.04340375,
          "velocity": 1,
          "duration": 0.2173912499999915
        },
        {
          "name": "A3",
          "midi": 57,
          "time": 298.260795,
          "velocity": 1,
          "duration": 0.8695650000000228
        },
        {
          "name": "D3",
          "midi": 50,
          "time": 299.13036,
          "velocity": 1,
          "duration": 0.2173912499999915
        },
        {
          "name": "A3",
          "midi": 57,
          "time": 299.34775125,
          "velocity": 1,
          "duration": 0.2173912499999915
        },
        {
          "name": "D4",
          "midi": 62,
          "time": 299.5651425,
          "velocity": 1,
          "duration": 0.434782499999983
        },
        {
          "name": "E4",
          "midi": 64,
          "time": 299.99992499999996,
          "velocity": 1,
          "duration": 2.6086950000000115
        },
        {
          "name": "E3",
          "midi": 52,
          "time": 302.60862,
          "velocity": 1,
          "duration": 0.2173912499999915
        },
        {
          "name": "E3",
          "midi": 52,
          "time": 302.82601124999997,
          "velocity": 1,
          "duration": 0.2173912499999915
        },
        {
          "name": "E2",
          "midi": 40,
          "time": 303.04340249999996,
          "velocity": 1,
          "duration": 0.2173912499999915
        },
        {
          "name": "E2",
          "midi": 40,
          "time": 303.26079374999995,
          "velocity": 1,
          "duration": 0.2173912499999915
        },
        {
          "name": "E2",
          "midi": 40,
          "time": 303.47818499999994,
          "velocity": 1,
          "duration": 0.2173912499999915
        },
        {
          "name": "E2",
          "midi": 40,
          "time": 303.69557624999993,
          "velocity": 1,
          "duration": 0.2173912499999915
        },
        {
          "name": "B2",
          "midi": 47,
          "time": 303.9129674999999,
          "velocity": 1,
          "duration": 0.434782499999983
        },
        {
          "name": "E2",
          "midi": 40,
          "time": 303.9129674999999,
          "velocity": 1,
          "duration": 0.434782499999983
        },
        {
          "name": "E2",
          "midi": 40,
          "time": 304.3477499999999,
          "velocity": 1,
          "duration": 0.434782499999983
        },
        {
          "name": "B2",
          "midi": 47,
          "time": 304.3477499999999,
          "velocity": 1,
          "duration": 0.434782499999983
        },
        {
          "name": "E2",
          "midi": 40,
          "time": 304.7825324999999,
          "velocity": 1,
          "duration": 0.434782499999983
        },
        {
          "name": "B2",
          "midi": 47,
          "time": 304.7825324999999,
          "velocity": 1,
          "duration": 0.434782499999983
        },
        {
          "name": "B2",
          "midi": 47,
          "time": 305.21731499999987,
          "velocity": 1,
          "duration": 0.8695650000000228
        },
        {
          "name": "E2",
          "midi": 40,
          "time": 305.21731499999987,
          "velocity": 1,
          "duration": 0.8695650000000228
        },
        {
          "name": "B2",
          "midi": 47,
          "time": 306.0868799999999,
          "velocity": 1,
          "duration": 0.2173912499999915
        },
        {
          "name": "E3",
          "midi": 52,
          "time": 306.3042712499999,
          "velocity": 1,
          "duration": 0.2173912499999915
        },
        {
          "name": "B3",
          "midi": 59,
          "time": 306.5216624999999,
          "velocity": 1,
          "duration": 0.8695650000000228
        },
        {
          "name": "E3",
          "midi": 52,
          "time": 306.5216624999999,
          "velocity": 1,
          "duration": 0.8695650000000228
        },
        {
          "name": "E3",
          "midi": 52,
          "time": 307.3912274999999,
          "velocity": 1,
          "duration": 0.434782499999983
        },
        {
          "name": "B3",
          "midi": 59,
          "time": 307.3912274999999,
          "velocity": 1,
          "duration": 0.434782499999983
        },
        {
          "name": "A3",
          "midi": 57,
          "time": 307.8260099999999,
          "velocity": 1,
          "duration": 0.8695650000000228
        },
        {
          "name": "D3",
          "midi": 50,
          "time": 307.8260099999999,
          "velocity": 1,
          "duration": 0.8695650000000228
        },
        {
          "name": "D3",
          "midi": 50,
          "time": 308.6955749999999,
          "velocity": 1,
          "duration": 0.434782499999983
        },
        {
          "name": "A3",
          "midi": 57,
          "time": 308.6955749999999,
          "velocity": 1,
          "duration": 0.434782499999983
        },
        {
          "name": "G3",
          "midi": 55,
          "time": 309.1303574999999,
          "velocity": 1,
          "duration": 0.8695650000000228
        },
        {
          "name": "C3",
          "midi": 48,
          "time": 309.1303574999999,
          "velocity": 1,
          "duration": 0.8695650000000228
        },
        {
          "name": "G2",
          "midi": 43,
          "time": 309.9999224999999,
          "velocity": 1,
          "duration": 0.2173912499999915
        },
        {
          "name": "F#2",
          "midi": 42,
          "time": 310.2173137499999,
          "velocity": 1,
          "duration": 0.2173912499999915
        },
        {
          "name": "B2",
          "midi": 47,
          "time": 310.4347049999999,
          "velocity": 1,
          "duration": 0.8695650000000228
        },
        {
          "name": "E2",
          "midi": 40,
          "time": 310.4347049999999,
          "velocity": 1,
          "duration": 0.8695650000000228
        },
        {
          "name": "B2",
          "midi": 47,
          "time": 311.3042699999999,
          "velocity": 1,
          "duration": 0.2173912499999915
        },
        {
          "name": "E3",
          "midi": 52,
          "time": 311.5216612499999,
          "velocity": 1,
          "duration": 0.2173912499999915
        },
        {
          "name": "B3",
          "midi": 59,
          "time": 311.7390524999999,
          "velocity": 1,
          "duration": 0.8695650000000228
        },
        {
          "name": "E3",
          "midi": 52,
          "time": 311.7390524999999,
          "velocity": 1,
          "duration": 0.8695650000000228
        },
        {
          "name": "E3",
          "midi": 52,
          "time": 312.6086174999999,
          "velocity": 1,
          "duration": 0.434782499999983
        },
        {
          "name": "B3",
          "midi": 59,
          "time": 312.6086174999999,
          "velocity": 1,
          "duration": 0.434782499999983
        },
        {
          "name": "A3",
          "midi": 57,
          "time": 313.0433999999999,
          "velocity": 1,
          "duration": 0.8695650000000228
        },
        {
          "name": "D3",
          "midi": 50,
          "time": 313.0433999999999,
          "velocity": 1,
          "duration": 0.8695650000000228
        },
        {
          "name": "D3",
          "midi": 50,
          "time": 313.91296499999993,
          "velocity": 1,
          "duration": 0.434782499999983
        },
        {
          "name": "A3",
          "midi": 57,
          "time": 313.91296499999993,
          "velocity": 1,
          "duration": 0.434782499999983
        },
        {
          "name": "G3",
          "midi": 55,
          "time": 314.3477474999999,
          "velocity": 1,
          "duration": 0.8695650000000228
        },
        {
          "name": "C3",
          "midi": 48,
          "time": 314.3477474999999,
          "velocity": 1,
          "duration": 0.8695650000000228
        },
        {
          "name": "G2",
          "midi": 43,
          "time": 315.21731249999993,
          "velocity": 1,
          "duration": 0.2173912499999915
        },
        {
          "name": "F#2",
          "midi": 42,
          "time": 315.4347037499999,
          "velocity": 1,
          "duration": 0.2173912499999915
        },
        {
          "name": "B2",
          "midi": 47,
          "time": 315.6520949999999,
          "velocity": 1,
          "duration": 0.8695650000000228
        },
        {
          "name": "E2",
          "midi": 40,
          "time": 315.6520949999999,
          "velocity": 1,
          "duration": 0.8695650000000228
        },
        {
          "name": "B2",
          "midi": 47,
          "time": 316.52165999999994,
          "velocity": 1,
          "duration": 0.2173912499999915
        },
        {
          "name": "E3",
          "midi": 52,
          "time": 316.73905124999993,
          "velocity": 1,
          "duration": 0.2173912499999915
        },
        {
          "name": "B3",
          "midi": 59,
          "time": 316.9564424999999,
          "velocity": 1,
          "duration": 0.8695650000000228
        },
        {
          "name": "E3",
          "midi": 52,
          "time": 316.9564424999999,
          "velocity": 1,
          "duration": 0.8695650000000228
        },
        {
          "name": "E3",
          "midi": 52,
          "time": 317.82600749999995,
          "velocity": 1,
          "duration": 0.434782499999983
        },
        {
          "name": "B3",
          "midi": 59,
          "time": 317.82600749999995,
          "velocity": 1,
          "duration": 0.434782499999983
        },
        {
          "name": "A3",
          "midi": 57,
          "time": 318.26078999999993,
          "velocity": 1,
          "duration": 0.8695650000000228
        },
        {
          "name": "D3",
          "midi": 50,
          "time": 318.26078999999993,
          "velocity": 1,
          "duration": 0.8695650000000228
        },
        {
          "name": "D3",
          "midi": 50,
          "time": 319.13035499999995,
          "velocity": 1,
          "duration": 0.434782499999983
        },
        {
          "name": "A3",
          "midi": 57,
          "time": 319.13035499999995,
          "velocity": 1,
          "duration": 0.434782499999983
        },
        {
          "name": "G3",
          "midi": 55,
          "time": 319.56513749999993,
          "velocity": 1,
          "duration": 0.8695650000000228
        },
        {
          "name": "C3",
          "midi": 48,
          "time": 319.56513749999993,
          "velocity": 1,
          "duration": 0.8695650000000228
        },
        {
          "name": "G2",
          "midi": 43,
          "time": 320.43470249999996,
          "velocity": 1,
          "duration": 0.2173912499999915
        },
        {
          "name": "F#2",
          "midi": 42,
          "time": 320.65209374999995,
          "velocity": 1,
          "duration": 0.2173912499999915
        },
        {
          "name": "D3",
          "midi": 50,
          "time": 320.86948499999994,
          "velocity": 1,
          "duration": 1.3043475000000058
        },
        {
          "name": "G2",
          "midi": 43,
          "time": 320.86948499999994,
          "velocity": 1,
          "duration": 1.3043475000000058
        },
        {
          "name": "F#3",
          "midi": 54,
          "time": 322.17383249999995,
          "velocity": 1,
          "duration": 1.3043475000000058
        },
        {
          "name": "B2",
          "midi": 47,
          "time": 322.17383249999995,
          "velocity": 1,
          "duration": 1.3043475000000058
        },
        {
          "name": "B2",
          "midi": 47,
          "time": 323.47817999999995,
          "velocity": 1,
          "duration": 10.43477999999999
        },
        {
          "name": "E2",
          "midi": 40,
          "time": 323.47817999999995,
          "velocity": 1,
          "duration": 10.43477999999999
        }
      ],
      "controlChanges": {
        "7": [
          {
            "number": 7,
            "time": 0,
            "value": 0.6299212598425197
          }
        ]
      },
      "id": 4,
      "name": "Guitar 3",
      "instrumentNumber": 30,
      "instrument": "distortion guitar",
      "instrumentFamily": "guitar",
      "channelNumber": 3,
      "isPercussion": false
    },
    {
      "startTime": 84.78258749999999,
      "duration": 357.3912150000057,
      "length": 109,
      "notes": [
        {
          "name": "E4",
          "midi": 64,
          "time": 84.78258749999999,
          "velocity": 1,
          "duration": 2.6086949999999973
        },
        {
          "name": "F#4",
          "midi": 66,
          "time": 87.39128249999999,
          "velocity": 1,
          "duration": 0.6521737500000029
        },
        {
          "name": "G4",
          "midi": 67,
          "time": 88.04345624999999,
          "velocity": 1,
          "duration": 0.6521737500000029
        },
        {
          "name": "E4",
          "midi": 64,
          "time": 88.69563,
          "velocity": 1,
          "duration": 3.913042500000003
        },
        {
          "name": "F#4",
          "midi": 66,
          "time": 92.6086725,
          "velocity": 1,
          "duration": 0.6521737500000029
        },
        {
          "name": "G4",
          "midi": 67,
          "time": 93.26084625,
          "velocity": 1,
          "duration": 0.6521737500000029
        },
        {
          "name": "G4",
          "midi": 67,
          "time": 93.91302,
          "velocity": 1,
          "duration": 1.3043475000000058
        },
        {
          "name": "E4",
          "midi": 64,
          "time": 95.21736750000001,
          "velocity": 1,
          "duration": 2.6086949999999973
        },
        {
          "name": "F#4",
          "midi": 66,
          "time": 97.8260625,
          "velocity": 1,
          "duration": 0.6521737500000029
        },
        {
          "name": "G4",
          "midi": 67,
          "time": 98.47823625000001,
          "velocity": 1,
          "duration": 0.6521737500000029
        },
        {
          "name": "E4",
          "midi": 64,
          "time": 99.13041000000001,
          "velocity": 1,
          "duration": 1.3043475000000058
        },
        {
          "name": "B3",
          "midi": 59,
          "time": 100.43475750000002,
          "velocity": 1,
          "duration": 7.826085000000006
        },
        {
          "name": "E4",
          "midi": 64,
          "time": 230.8695075,
          "velocity": 1,
          "duration": 2.6086950000000115
        },
        {
          "name": "F#4",
          "midi": 66,
          "time": 233.4782025,
          "velocity": 1,
          "duration": 0.6521737500000029
        },
        {
          "name": "G4",
          "midi": 67,
          "time": 234.13037625,
          "velocity": 1,
          "duration": 0.6521737500000029
        },
        {
          "name": "E4",
          "midi": 64,
          "time": 234.78255000000001,
          "velocity": 1,
          "duration": 3.913042499999989
        },
        {
          "name": "F#4",
          "midi": 66,
          "time": 238.6955925,
          "velocity": 1,
          "duration": 0.6521737500000029
        },
        {
          "name": "G4",
          "midi": 67,
          "time": 239.34776625,
          "velocity": 1,
          "duration": 0.6521737500000029
        },
        {
          "name": "G4",
          "midi": 67,
          "time": 239.99994,
          "velocity": 1,
          "duration": 1.3043475000000058
        },
        {
          "name": "E4",
          "midi": 64,
          "time": 241.30428750000002,
          "velocity": 1,
          "duration": 2.6086950000000115
        },
        {
          "name": "F#4",
          "midi": 66,
          "time": 243.91298250000003,
          "velocity": 1,
          "duration": 0.6521737500000029
        },
        {
          "name": "G4",
          "midi": 67,
          "time": 244.56515625000003,
          "velocity": 1,
          "duration": 0.6521737500000029
        },
        {
          "name": "E4",
          "midi": 64,
          "time": 245.21733000000003,
          "velocity": 1,
          "duration": 1.3043475000000058
        },
        {
          "name": "B3",
          "midi": 59,
          "time": 246.52167750000004,
          "velocity": 1,
          "duration": 7.826085000000006
        },
        {
          "name": "D5",
          "midi": 74,
          "time": 305.21731500000004,
          "velocity": 1,
          "duration": 0.8695650000002502
        },
        {
          "name": "A4",
          "midi": 69,
          "time": 305.21731500000004,
          "velocity": 1,
          "duration": 0.8695650000002502
        },
        {
          "name": "A4",
          "midi": 69,
          "time": 306.0868800000003,
          "velocity": 1,
          "duration": 0.4347825000006651
        },
        {
          "name": "G4",
          "midi": 67,
          "time": 306.52166250000096,
          "velocity": 1,
          "duration": 0.8695650000002502
        },
        {
          "name": "A4",
          "midi": 69,
          "time": 307.3912275000012,
          "velocity": 1,
          "duration": 0.2173912499999915
        },
        {
          "name": "G4",
          "midi": 67,
          "time": 307.6086187500012,
          "velocity": 1,
          "duration": 0.2173912499999915
        },
        {
          "name": "F#4",
          "midi": 66,
          "time": 307.8260100000012,
          "velocity": 1,
          "duration": 0.2173912499999915
        },
        {
          "name": "G4",
          "midi": 67,
          "time": 308.0434012500012,
          "velocity": 1,
          "duration": 0.2173912499999915
        },
        {
          "name": "F#4",
          "midi": 66,
          "time": 308.2607925000012,
          "velocity": 1,
          "duration": 0.2173912499999915
        },
        {
          "name": "E4",
          "midi": 64,
          "time": 308.47818375000116,
          "velocity": 1,
          "duration": 0.2173912499999915
        },
        {
          "name": "F#4",
          "midi": 66,
          "time": 308.69557500000116,
          "velocity": 1,
          "duration": 0.2173912499999915
        },
        {
          "name": "D4",
          "midi": 62,
          "time": 308.91296625000115,
          "velocity": 1,
          "duration": 0.2173912499999915
        },
        {
          "name": "E4",
          "midi": 64,
          "time": 309.13035750000114,
          "velocity": 1,
          "duration": 0.6521737500002587
        },
        {
          "name": "G4",
          "midi": 67,
          "time": 309.7825312500014,
          "velocity": 1,
          "duration": 0.2173912499999915
        },
        {
          "name": "A4",
          "midi": 69,
          "time": 309.9999225000014,
          "velocity": 1,
          "duration": 0.2173912499999915
        },
        {
          "name": "G4",
          "midi": 67,
          "time": 310.2173137500014,
          "velocity": 1,
          "duration": 0.2173912499999915
        },
        {
          "name": "A4",
          "midi": 69,
          "time": 310.4347050000014,
          "velocity": 1,
          "duration": 0.21739125000021886
        },
        {
          "name": "B4",
          "midi": 71,
          "time": 310.6520962500016,
          "velocity": 1,
          "duration": 0.2173912499999915
        },
        {
          "name": "E5",
          "midi": 76,
          "time": 310.8694875000016,
          "velocity": 1,
          "duration": 0.2173912499999915
        },
        {
          "name": "A4",
          "midi": 69,
          "time": 311.0868787500016,
          "velocity": 1,
          "duration": 0.21739125000021886
        },
        {
          "name": "B4",
          "midi": 71,
          "time": 311.3042700000018,
          "velocity": 1,
          "duration": 0.2173912499999915
        },
        {
          "name": "E5",
          "midi": 76,
          "time": 311.5216612500018,
          "velocity": 1,
          "duration": 0.2173912499999915
        },
        {
          "name": "D5",
          "midi": 74,
          "time": 311.7390525000018,
          "velocity": 1,
          "duration": 0.2173912499999915
        },
        {
          "name": "B4",
          "midi": 71,
          "time": 311.95644375000177,
          "velocity": 1,
          "duration": 0.2173912499999915
        },
        {
          "name": "A#4",
          "midi": 70,
          "time": 312.17383500000176,
          "velocity": 1,
          "duration": 0.2173912499999915
        },
        {
          "name": "B4",
          "midi": 71,
          "time": 312.39122625000175,
          "velocity": 1,
          "duration": 0.2173912499999915
        },
        {
          "name": "A#4",
          "midi": 70,
          "time": 312.60861750000174,
          "velocity": 1,
          "duration": 0.2173912499999915
        },
        {
          "name": "A4",
          "midi": 69,
          "time": 312.82600875000173,
          "velocity": 1,
          "duration": 0.2173912499999915
        },
        {
          "name": "G4",
          "midi": 67,
          "time": 313.0434000000017,
          "velocity": 1,
          "duration": 0.543478125001343
        },
        {
          "name": "E4",
          "midi": 64,
          "time": 313.58687812500307,
          "velocity": 1,
          "duration": 0.10869562499999574
        },
        {
          "name": "C#5",
          "midi": 73,
          "time": 313.69557375000306,
          "velocity": 1,
          "duration": 0.2173912499999915
        },
        {
          "name": "A4",
          "midi": 69,
          "time": 313.69557375000306,
          "velocity": 1,
          "duration": 0.2173912499999915
        },
        {
          "name": "C#5",
          "midi": 73,
          "time": 314.13035625000305,
          "velocity": 1,
          "duration": 0.2173912499999915
        },
        {
          "name": "A4",
          "midi": 69,
          "time": 314.13035625000305,
          "velocity": 1,
          "duration": 0.2173912499999915
        },
        {
          "name": "C5",
          "midi": 72,
          "time": 314.34774750000304,
          "velocity": 1,
          "duration": 0.2173912499999915
        },
        {
          "name": "G#4",
          "midi": 68,
          "time": 314.34774750000304,
          "velocity": 1,
          "duration": 0.2173912499999915
        },
        {
          "name": "G4",
          "midi": 67,
          "time": 314.56513875000303,
          "velocity": 1,
          "duration": 1.0869562500002417
        },
        {
          "name": "G5",
          "midi": 79,
          "time": 315.65209500000327,
          "velocity": 1,
          "duration": 0.434782499999983
        },
        {
          "name": "F#5",
          "midi": 78,
          "time": 316.08687750000325,
          "velocity": 1,
          "duration": 0.434782499999983
        },
        {
          "name": "B4",
          "midi": 71,
          "time": 316.52166000000324,
          "velocity": 1,
          "duration": 0.434782499999983
        },
        {
          "name": "G5",
          "midi": 79,
          "time": 316.9564425000032,
          "velocity": 1,
          "duration": 0.434782499999983
        },
        {
          "name": "F#5",
          "midi": 78,
          "time": 317.3912250000032,
          "velocity": 1,
          "duration": 0.32608687499998723
        },
        {
          "name": "G5",
          "midi": 79,
          "time": 317.7173118750032,
          "velocity": 1,
          "duration": 0.10869562499999574
        },
        {
          "name": "A5",
          "midi": 81,
          "time": 317.8260075000032,
          "velocity": 1,
          "duration": 0.32608687499998723
        },
        {
          "name": "A5",
          "midi": 81,
          "time": 318.1520943750032,
          "velocity": 1,
          "duration": 0.10869562499999574
        },
        {
          "name": "G5",
          "midi": 79,
          "time": 318.26079000000317,
          "velocity": 1,
          "duration": 0.2173912499999915
        },
        {
          "name": "F#5",
          "midi": 78,
          "time": 318.47818125000316,
          "velocity": 1,
          "duration": 0.2173912499999915
        },
        {
          "name": "G5",
          "midi": 79,
          "time": 318.55064500000316,
          "velocity": 1,
          "duration": 0.07246374999999716
        },
        {
          "name": "F#5",
          "midi": 78,
          "time": 318.62310875000315,
          "velocity": 1,
          "duration": 0.07246374999999716
        },
        {
          "name": "E5",
          "midi": 76,
          "time": 318.69557250000315,
          "velocity": 1,
          "duration": 0.2173912499999915
        },
        {
          "name": "B4",
          "midi": 71,
          "time": 318.91296375000314,
          "velocity": 1,
          "duration": 0.2173912499999915
        },
        {
          "name": "G5",
          "midi": 79,
          "time": 319.13035500000314,
          "velocity": 1,
          "duration": 0.2173912499999915
        },
        {
          "name": "F#5",
          "midi": 78,
          "time": 319.3477462500031,
          "velocity": 1,
          "duration": 0.2173912499999915
        },
        {
          "name": "B4",
          "midi": 71,
          "time": 319.5651375000031,
          "velocity": 1,
          "duration": 0.6521737499999745
        },
        {
          "name": "G4",
          "midi": 67,
          "time": 320.2173112500031,
          "velocity": 1,
          "duration": 0.2173912499999915
        },
        {
          "name": "A4",
          "midi": 69,
          "time": 320.4347025000031,
          "velocity": 1,
          "duration": 0.2173912499999915
        },
        {
          "name": "G4",
          "midi": 67,
          "time": 320.6520937500031,
          "velocity": 1,
          "duration": 0.2173912499999915
        },
        {
          "name": "D5",
          "midi": 74,
          "time": 320.86948500000307,
          "velocity": 1,
          "duration": 0.28985500000089814
        },
        {
          "name": "A4",
          "midi": 69,
          "time": 320.86948500000307,
          "velocity": 1,
          "duration": 0.3623187500008953
        },
        {
          "name": "G4",
          "midi": 67,
          "time": 321.23180375000396,
          "velocity": 1,
          "duration": 0.07246374999999716
        },
        {
          "name": "E4",
          "midi": 64,
          "time": 321.30426750000396,
          "velocity": 1,
          "duration": 0.2173912499999915
        },
        {
          "name": "G4",
          "midi": 67,
          "time": 321.52165875000395,
          "velocity": 1,
          "duration": 0.2173912499999915
        },
        {
          "name": "A4",
          "midi": 69,
          "time": 321.73905000000394,
          "velocity": 1,
          "duration": 0.21739125000021886
        },
        {
          "name": "B4",
          "midi": 71,
          "time": 321.95644125000416,
          "velocity": 1,
          "duration": 0.2173912499999915
        },
        {
          "name": "E5",
          "midi": 76,
          "time": 322.17383250000415,
          "velocity": 1,
          "duration": 0.434782499999983
        },
        {
          "name": "D5",
          "midi": 74,
          "time": 322.60861500000414,
          "velocity": 1,
          "duration": 0.2173912499999915
        },
        {
          "name": "D5",
          "midi": 74,
          "time": 322.8260062500041,
          "velocity": 1,
          "duration": 0.579710000000432
        },
        {
          "name": "B4",
          "midi": 71,
          "time": 323.40571625000456,
          "velocity": 1,
          "duration": 0.07246374999999716
        },
        {
          "name": "D5",
          "midi": 74,
          "time": 323.47818000000456,
          "velocity": 1,
          "duration": 5.2173900000013305
        },
        {
          "name": "B4",
          "midi": 71,
          "time": 328.6955700000059,
          "velocity": 1,
          "duration": 0.2173912499999915
        },
        {
          "name": "D5",
          "midi": 74,
          "time": 328.9129612500059,
          "velocity": 1,
          "duration": 0.2173912499999915
        },
        {
          "name": "B4",
          "midi": 71,
          "time": 329.13035250000587,
          "velocity": 1,
          "duration": 1.7391299999999887
        },
        {
          "name": "F#4",
          "midi": 66,
          "time": 330.86948250000586,
          "velocity": 1,
          "duration": 0.434782499999983
        },
        {
          "name": "E4",
          "midi": 64,
          "time": 331.30426500000584,
          "velocity": 1,
          "duration": 0.2173912499999915
        },
        {
          "name": "F#4",
          "midi": 66,
          "time": 331.52165625000583,
          "velocity": 1,
          "duration": 0.2173912499999915
        },
        {
          "name": "E4",
          "midi": 64,
          "time": 331.7390475000058,
          "velocity": 1,
          "duration": 4.782607499999983
        },
        {
          "name": "F#4",
          "midi": 66,
          "time": 336.5216550000058,
          "velocity": 1,
          "duration": 0.6521737499999745
        },
        {
          "name": "G4",
          "midi": 67,
          "time": 337.1738287500058,
          "velocity": 1,
          "duration": 0.6521737499999745
        },
        {
          "name": "E4",
          "midi": 64,
          "time": 337.82600250000576,
          "velocity": 1,
          "duration": 3.9130425000000173
        },
        {
          "name": "F#4",
          "midi": 66,
          "time": 341.7390450000058,
          "velocity": 1,
          "duration": 0.6521737499999745
        },
        {
          "name": "G4",
          "midi": 67,
          "time": 342.39121875000575,
          "velocity": 1,
          "duration": 0.6521737499999745
        },
        {
          "name": "D4",
          "midi": 62,
          "time": 343.0433925000057,
          "velocity": 1,
          "duration": 3.9130425000000173
        },
        {
          "name": "F#4",
          "midi": 66,
          "time": 346.95643500000574,
          "velocity": 1,
          "duration": 0.6521737499999745
        },
        {
          "name": "G4",
          "midi": 67,
          "time": 347.6086087500057,
          "velocity": 1,
          "duration": 0.6521737499999745
        },
        {
          "name": "B4",
          "midi": 71,
          "time": 348.2607825000057,
          "velocity": 1,
          "duration": 9.130432499999984
        }
      ],
      "controlChanges": {
        "1": [
          {
            "number": 1,
            "time": 306.52166250000096,
            "value": 0
          },
          {
            "number": 1,
            "time": 306.528908875001,
            "value": 0.05511811023622047
          },
          {
            "number": 1,
            "time": 306.536155250001,
            "value": 0.10236220472440945
          },
          {
            "number": 1,
            "time": 306.543401625001,
            "value": 0.15748031496062992
          },
          {
            "number": 1,
            "time": 306.55064800000105,
            "value": 0.2047244094488189
          },
          {
            "number": 1,
            "time": 306.55789437500107,
            "value": 0.25196850393700787
          },
          {
            "number": 1,
            "time": 306.5651407500011,
            "value": 0.30708661417322836
          },
          {
            "number": 1,
            "time": 306.5723871250011,
            "value": 0.3543307086614173
          },
          {
            "number": 1,
            "time": 306.57963350000114,
            "value": 0.4094488188976378
          },
          {
            "number": 1,
            "time": 306.58687987500116,
            "value": 0.4566929133858268
          },
          {
            "number": 1,
            "time": 306.5941262500012,
            "value": 0.5039370078740157
          },
          {
            "number": 1,
            "time": 307.3839811250012,
            "value": 0
          },
          {
            "number": 1,
            "time": 309.13035750000114,
            "value": 0
          },
          {
            "number": 1,
            "time": 309.13760387500116,
            "value": 0.05511811023622047
          },
          {
            "number": 1,
            "time": 309.1448502500012,
            "value": 0.10236220472440945
          },
          {
            "number": 1,
            "time": 309.1520966250012,
            "value": 0.15748031496062992
          },
          {
            "number": 1,
            "time": 309.15934300000123,
            "value": 0.2047244094488189
          },
          {
            "number": 1,
            "time": 309.16658937500125,
            "value": 0.25196850393700787
          },
          {
            "number": 1,
            "time": 309.1738357500013,
            "value": 0.30708661417322836
          },
          {
            "number": 1,
            "time": 309.1810821250013,
            "value": 0.3543307086614173
          },
          {
            "number": 1,
            "time": 309.1883285000013,
            "value": 0.4094488188976378
          },
          {
            "number": 1,
            "time": 309.19557487500134,
            "value": 0.4566929133858268
          },
          {
            "number": 1,
            "time": 309.20282125000136,
            "value": 0.5039370078740157
          },
          {
            "number": 1,
            "time": 309.7752848750014,
            "value": 0
          },
          {
            "number": 1,
            "time": 314.56513875000303,
            "value": 0
          },
          {
            "number": 1,
            "time": 314.57238512500305,
            "value": 0.05511811023622047
          },
          {
            "number": 1,
            "time": 314.5796315000031,
            "value": 0.10236220472440945
          },
          {
            "number": 1,
            "time": 314.5868778750031,
            "value": 0.15748031496062992
          },
          {
            "number": 1,
            "time": 314.5941242500031,
            "value": 0.2047244094488189
          },
          {
            "number": 1,
            "time": 314.60137062500314,
            "value": 0.25196850393700787
          },
          {
            "number": 1,
            "time": 314.60861700000316,
            "value": 0.30708661417322836
          },
          {
            "number": 1,
            "time": 314.6158633750032,
            "value": 0.3543307086614173
          },
          {
            "number": 1,
            "time": 314.6231097500032,
            "value": 0.4094488188976378
          },
          {
            "number": 1,
            "time": 314.63035612500323,
            "value": 0.4566929133858268
          },
          {
            "number": 1,
            "time": 314.63760250000325,
            "value": 0.5039370078740157
          },
          {
            "number": 1,
            "time": 315.64484862500325,
            "value": 0
          }
        ],
        "7": [
          {
            "number": 7,
            "time": 0,
            "value": 0.6299212598425197
          },
          {
            "number": 7,
            "time": 305.21731500000004,
            "value": 1
          }
        ]
      },
      "id": 5,
      "name": "Guitar 4",
      "instrumentNumber": 29,
      "instrument": "overdriven guitar",
      "instrumentFamily": "guitar",
      "channelNumber": 4,
      "isPercussion": false
    },
    {
      "startTime": 143.47822499999998,
      "duration": 305.21731500000004,
      "length": 20,
      "notes": [
        {
          "name": "B4",
          "midi": 71,
          "time": 143.47822499999998,
          "velocity": 0.7874015748031497,
          "duration": 3.0434774999999945
        },
        {
          "name": "A4",
          "midi": 69,
          "time": 146.52170249999998,
          "velocity": 0.7874015748031497,
          "duration": 0.4347825000000114
        },
        {
          "name": "G4",
          "midi": 67,
          "time": 146.956485,
          "velocity": 0.7874015748031497,
          "duration": 0.4347825000000114
        },
        {
          "name": "F#4",
          "midi": 66,
          "time": 147.3912675,
          "velocity": 0.7874015748031497,
          "duration": 0.4347825000000114
        },
        {
          "name": "G4",
          "midi": 67,
          "time": 147.82605,
          "velocity": 0.7874015748031497,
          "duration": 0.4347825000000114
        },
        {
          "name": "A4",
          "midi": 69,
          "time": 148.26083250000002,
          "velocity": 0.7874015748031497,
          "duration": 0.4347825000000114
        },
        {
          "name": "E4",
          "midi": 64,
          "time": 148.69561500000003,
          "velocity": 0.7874015748031497,
          "duration": 2.6086950000000115
        },
        {
          "name": "E4",
          "midi": 64,
          "time": 183.91299750000005,
          "velocity": 1,
          "duration": 1.7391299999999887
        },
        {
          "name": "G4",
          "midi": 67,
          "time": 185.65212750000003,
          "velocity": 1,
          "duration": 0.8695649999999944
        },
        {
          "name": "A4",
          "midi": 69,
          "time": 186.52169250000003,
          "velocity": 1,
          "duration": 0.8695649999999944
        },
        {
          "name": "B4",
          "midi": 71,
          "time": 187.39125750000002,
          "velocity": 1,
          "duration": 0.8695649999999944
        },
        {
          "name": "D5",
          "midi": 74,
          "time": 188.26082250000002,
          "velocity": 1,
          "duration": 0.8695649999999944
        },
        {
          "name": "E5",
          "midi": 76,
          "time": 189.1303875,
          "velocity": 1,
          "duration": 1.3043475000000058
        },
        {
          "name": "F#5",
          "midi": 78,
          "time": 190.43473500000002,
          "velocity": 1,
          "duration": 1.3043475000000058
        },
        {
          "name": "G5",
          "midi": 79,
          "time": 191.73908250000002,
          "velocity": 1,
          "duration": 1.3043475000000058
        },
        {
          "name": "A5",
          "midi": 81,
          "time": 193.04343000000003,
          "velocity": 1,
          "duration": 1.3043475000000058
        },
        {
          "name": "E4",
          "midi": 64,
          "time": 299.999925,
          "velocity": 1,
          "duration": 1.3043475000000058
        },
        {
          "name": "F#4",
          "midi": 66,
          "time": 301.3042725,
          "velocity": 1,
          "duration": 1.3043475000000058
        },
        {
          "name": "G4",
          "midi": 67,
          "time": 302.60862000000003,
          "velocity": 1,
          "duration": 1.3043475000000058
        },
        {
          "name": "A4",
          "midi": 69,
          "time": 303.91296750000004,
          "velocity": 1,
          "duration": 1.3043475000000058
        }
      ],
      "controlChanges": {
        "7": [
          {
            "number": 7,
            "time": 0,
            "value": 0.7795275590551181
          }
        ]
      },
      "id": 6,
      "name": "Guitar 5",
      "instrumentNumber": 25,
      "instrument": "acoustic guitar (steel)",
      "instrumentFamily": "guitar",
      "channelNumber": 5,
      "isPercussion": false
    },
    {
      "startTime": 129.1304025,
      "duration": 302.60861999999963,
      "length": 412,
      "notes": [
        {
          "name": "E4",
          "midi": 64,
          "time": 129.1304025,
          "velocity": 1,
          "duration": 1.3043475000000058
        },
        {
          "name": "C4",
          "midi": 60,
          "time": 129.1304025,
          "velocity": 1,
          "duration": 1.3043475000000058
        },
        {
          "name": "G3",
          "midi": 55,
          "time": 129.1304025,
          "velocity": 1,
          "duration": 1.3043475000000058
        },
        {
          "name": "E3",
          "midi": 52,
          "time": 129.1304025,
          "velocity": 1,
          "duration": 1.3043475000000058
        },
        {
          "name": "C3",
          "midi": 48,
          "time": 129.1304025,
          "velocity": 1,
          "duration": 1.3043475000000058
        },
        {
          "name": "C4",
          "midi": 60,
          "time": 130.43475,
          "velocity": 1,
          "duration": 1.3043475000000058
        },
        {
          "name": "G#3",
          "midi": 56,
          "time": 130.43475,
          "velocity": 1,
          "duration": 1.3043475000000058
        },
        {
          "name": "D#3",
          "midi": 51,
          "time": 130.43475,
          "velocity": 1,
          "duration": 1.3043475000000058
        },
        {
          "name": "A2",
          "midi": 45,
          "time": 130.43475,
          "velocity": 1,
          "duration": 1.3043475000000058
        },
        {
          "name": "F#4",
          "midi": 66,
          "time": 131.7390975,
          "velocity": 1,
          "duration": 0.6521737500000029
        },
        {
          "name": "D4",
          "midi": 62,
          "time": 131.7390975,
          "velocity": 1,
          "duration": 0.6521737500000029
        },
        {
          "name": "A3",
          "midi": 57,
          "time": 131.7390975,
          "velocity": 1,
          "duration": 0.6521737500000029
        },
        {
          "name": "D3",
          "midi": 50,
          "time": 131.7390975,
          "velocity": 1,
          "duration": 0.6521737500000029
        },
        {
          "name": "D3",
          "midi": 50,
          "time": 132.39127125000002,
          "velocity": 1,
          "duration": 0.2173912499999915
        },
        {
          "name": "A3",
          "midi": 57,
          "time": 132.39127125000002,
          "velocity": 1,
          "duration": 0.2173912499999915
        },
        {
          "name": "D4",
          "midi": 62,
          "time": 132.39127125000002,
          "velocity": 1,
          "duration": 0.2173912499999915
        },
        {
          "name": "F#4",
          "midi": 66,
          "time": 132.39127125000002,
          "velocity": 1,
          "duration": 0.2173912499999915
        },
        {
          "name": "F#4",
          "midi": 66,
          "time": 132.6086625,
          "velocity": 1,
          "duration": 0.2173912499999915
        },
        {
          "name": "D4",
          "midi": 62,
          "time": 132.6086625,
          "velocity": 1,
          "duration": 0.2173912499999915
        },
        {
          "name": "A3",
          "midi": 57,
          "time": 132.6086625,
          "velocity": 1,
          "duration": 0.2173912499999915
        },
        {
          "name": "D3",
          "midi": 50,
          "time": 132.6086625,
          "velocity": 1,
          "duration": 0.2173912499999915
        },
        {
          "name": "F#4",
          "midi": 66,
          "time": 132.82605375,
          "velocity": 1,
          "duration": 0.2173912499999915
        },
        {
          "name": "D4",
          "midi": 62,
          "time": 132.82605375,
          "velocity": 1,
          "duration": 0.2173912499999915
        },
        {
          "name": "A3",
          "midi": 57,
          "time": 132.82605375,
          "velocity": 1,
          "duration": 0.2173912499999915
        },
        {
          "name": "D3",
          "midi": 50,
          "time": 132.82605375,
          "velocity": 1,
          "duration": 0.2173912499999915
        },
        {
          "name": "G4",
          "midi": 67,
          "time": 133.043445,
          "velocity": 1,
          "duration": 0.2173912499999915
        },
        {
          "name": "D4",
          "midi": 62,
          "time": 133.043445,
          "velocity": 1,
          "duration": 0.2173912499999915
        },
        {
          "name": "A3",
          "midi": 57,
          "time": 133.043445,
          "velocity": 1,
          "duration": 0.2173912499999915
        },
        {
          "name": "D3",
          "midi": 50,
          "time": 133.043445,
          "velocity": 1,
          "duration": 0.2173912499999915
        },
        {
          "name": "D3",
          "midi": 50,
          "time": 133.26083624999998,
          "velocity": 1,
          "duration": 0.4347825000000114
        },
        {
          "name": "A3",
          "midi": 57,
          "time": 133.26083624999998,
          "velocity": 1,
          "duration": 0.4347825000000114
        },
        {
          "name": "D4",
          "midi": 62,
          "time": 133.26083624999998,
          "velocity": 1,
          "duration": 0.4347825000000114
        },
        {
          "name": "F#4",
          "midi": 66,
          "time": 133.26083624999998,
          "velocity": 1,
          "duration": 0.4347825000000114
        },
        {
          "name": "G#4",
          "midi": 68,
          "time": 133.69561875,
          "velocity": 1,
          "duration": 0.4347825000000114
        },
        {
          "name": "D4",
          "midi": 62,
          "time": 133.69561875,
          "velocity": 1,
          "duration": 0.4347825000000114
        },
        {
          "name": "A3",
          "midi": 57,
          "time": 133.69561875,
          "velocity": 1,
          "duration": 0.4347825000000114
        },
        {
          "name": "D3",
          "midi": 50,
          "time": 133.69561875,
          "velocity": 1,
          "duration": 0.4347825000000114
        },
        {
          "name": "F#4",
          "midi": 66,
          "time": 134.13040125,
          "velocity": 1,
          "duration": 0.2173912499999915
        },
        {
          "name": "D4",
          "midi": 62,
          "time": 134.13040125,
          "velocity": 1,
          "duration": 0.2173912499999915
        },
        {
          "name": "A3",
          "midi": 57,
          "time": 134.13040125,
          "velocity": 1,
          "duration": 0.2173912499999915
        },
        {
          "name": "D3",
          "midi": 50,
          "time": 134.13040125,
          "velocity": 1,
          "duration": 0.2173912499999915
        },
        {
          "name": "E4",
          "midi": 64,
          "time": 134.3477925,
          "velocity": 1,
          "duration": 1.3043475000000058
        },
        {
          "name": "C4",
          "midi": 60,
          "time": 134.3477925,
          "velocity": 1,
          "duration": 1.3043475000000058
        },
        {
          "name": "G3",
          "midi": 55,
          "time": 134.3477925,
          "velocity": 1,
          "duration": 1.3043475000000058
        },
        {
          "name": "E3",
          "midi": 52,
          "time": 134.3477925,
          "velocity": 1,
          "duration": 1.3043475000000058
        },
        {
          "name": "C3",
          "midi": 48,
          "time": 134.3477925,
          "velocity": 1,
          "duration": 1.3043475000000058
        },
        {
          "name": "C#4",
          "midi": 61,
          "time": 135.65214,
          "velocity": 1,
          "duration": 1.3043475000000058
        },
        {
          "name": "A3",
          "midi": 57,
          "time": 135.65214,
          "velocity": 1,
          "duration": 1.3043475000000058
        },
        {
          "name": "E3",
          "midi": 52,
          "time": 135.65214,
          "velocity": 1,
          "duration": 1.3043475000000058
        },
        {
          "name": "A2",
          "midi": 45,
          "time": 135.65214,
          "velocity": 1,
          "duration": 1.3043475000000058
        },
        {
          "name": "F#4",
          "midi": 66,
          "time": 136.9564875,
          "velocity": 1,
          "duration": 0.6521737500000029
        },
        {
          "name": "D4",
          "midi": 62,
          "time": 136.9564875,
          "velocity": 1,
          "duration": 0.6521737500000029
        },
        {
          "name": "A3",
          "midi": 57,
          "time": 136.9564875,
          "velocity": 1,
          "duration": 0.6521737500000029
        },
        {
          "name": "D3",
          "midi": 50,
          "time": 136.9564875,
          "velocity": 1,
          "duration": 0.6521737500000029
        },
        {
          "name": "D3",
          "midi": 50,
          "time": 137.60866125,
          "velocity": 1,
          "duration": 0.2173912499999915
        },
        {
          "name": "A3",
          "midi": 57,
          "time": 137.60866125,
          "velocity": 1,
          "duration": 0.2173912499999915
        },
        {
          "name": "D4",
          "midi": 62,
          "time": 137.60866125,
          "velocity": 1,
          "duration": 0.2173912499999915
        },
        {
          "name": "F#4",
          "midi": 66,
          "time": 137.60866125,
          "velocity": 1,
          "duration": 0.2173912499999915
        },
        {
          "name": "F#4",
          "midi": 66,
          "time": 137.8260525,
          "velocity": 1,
          "duration": 0.2173912499999915
        },
        {
          "name": "D4",
          "midi": 62,
          "time": 137.8260525,
          "velocity": 1,
          "duration": 0.2173912499999915
        },
        {
          "name": "A3",
          "midi": 57,
          "time": 137.8260525,
          "velocity": 1,
          "duration": 0.2173912499999915
        },
        {
          "name": "D3",
          "midi": 50,
          "time": 137.8260525,
          "velocity": 1,
          "duration": 0.2173912499999915
        },
        {
          "name": "F#4",
          "midi": 66,
          "time": 138.04344375,
          "velocity": 1,
          "duration": 0.2173912499999915
        },
        {
          "name": "D4",
          "midi": 62,
          "time": 138.04344375,
          "velocity": 1,
          "duration": 0.2173912499999915
        },
        {
          "name": "A3",
          "midi": 57,
          "time": 138.04344375,
          "velocity": 1,
          "duration": 0.2173912499999915
        },
        {
          "name": "D3",
          "midi": 50,
          "time": 138.04344375,
          "velocity": 1,
          "duration": 0.2173912499999915
        },
        {
          "name": "G4",
          "midi": 67,
          "time": 138.260835,
          "velocity": 1,
          "duration": 0.2173912499999915
        },
        {
          "name": "D4",
          "midi": 62,
          "time": 138.260835,
          "velocity": 1,
          "duration": 0.2173912499999915
        },
        {
          "name": "A3",
          "midi": 57,
          "time": 138.260835,
          "velocity": 1,
          "duration": 0.2173912499999915
        },
        {
          "name": "D3",
          "midi": 50,
          "time": 138.260835,
          "velocity": 1,
          "duration": 0.2173912499999915
        },
        {
          "name": "D3",
          "midi": 50,
          "time": 138.47822624999998,
          "velocity": 1,
          "duration": 0.4347825000000114
        },
        {
          "name": "A3",
          "midi": 57,
          "time": 138.47822624999998,
          "velocity": 1,
          "duration": 0.4347825000000114
        },
        {
          "name": "D4",
          "midi": 62,
          "time": 138.47822624999998,
          "velocity": 1,
          "duration": 0.4347825000000114
        },
        {
          "name": "F#4",
          "midi": 66,
          "time": 138.47822624999998,
          "velocity": 1,
          "duration": 0.4347825000000114
        },
        {
          "name": "G#4",
          "midi": 68,
          "time": 138.91300875,
          "velocity": 1,
          "duration": 0.4347825000000114
        },
        {
          "name": "D4",
          "midi": 62,
          "time": 138.91300875,
          "velocity": 1,
          "duration": 0.4347825000000114
        },
        {
          "name": "A3",
          "midi": 57,
          "time": 138.91300875,
          "velocity": 1,
          "duration": 0.4347825000000114
        },
        {
          "name": "D3",
          "midi": 50,
          "time": 138.91300875,
          "velocity": 1,
          "duration": 0.4347825000000114
        },
        {
          "name": "F#4",
          "midi": 66,
          "time": 139.34779125,
          "velocity": 1,
          "duration": 0.2173912499999915
        },
        {
          "name": "D4",
          "midi": 62,
          "time": 139.34779125,
          "velocity": 1,
          "duration": 0.2173912499999915
        },
        {
          "name": "A3",
          "midi": 57,
          "time": 139.34779125,
          "velocity": 1,
          "duration": 0.2173912499999915
        },
        {
          "name": "D3",
          "midi": 50,
          "time": 139.34779125,
          "velocity": 1,
          "duration": 0.2173912499999915
        },
        {
          "name": "E4",
          "midi": 64,
          "time": 139.5651825,
          "velocity": 1,
          "duration": 1.3043475000000058
        },
        {
          "name": "C4",
          "midi": 60,
          "time": 139.5651825,
          "velocity": 1,
          "duration": 1.3043475000000058
        },
        {
          "name": "G3",
          "midi": 55,
          "time": 139.5651825,
          "velocity": 1,
          "duration": 1.3043475000000058
        },
        {
          "name": "E3",
          "midi": 52,
          "time": 139.5651825,
          "velocity": 1,
          "duration": 1.3043475000000058
        },
        {
          "name": "C3",
          "midi": 48,
          "time": 139.5651825,
          "velocity": 1,
          "duration": 1.3043475000000058
        },
        {
          "name": "C#4",
          "midi": 61,
          "time": 140.86953,
          "velocity": 1,
          "duration": 1.3043475000000058
        },
        {
          "name": "A3",
          "midi": 57,
          "time": 140.86953,
          "velocity": 1,
          "duration": 1.3043475000000058
        },
        {
          "name": "E3",
          "midi": 52,
          "time": 140.86953,
          "velocity": 1,
          "duration": 1.3043475000000058
        },
        {
          "name": "A2",
          "midi": 45,
          "time": 140.86953,
          "velocity": 1,
          "duration": 1.3043475000000058
        },
        {
          "name": "F#4",
          "midi": 66,
          "time": 142.1738775,
          "velocity": 1,
          "duration": 0.4347825000000114
        },
        {
          "name": "D4",
          "midi": 62,
          "time": 142.1738775,
          "velocity": 1,
          "duration": 0.4347825000000114
        },
        {
          "name": "A3",
          "midi": 57,
          "time": 142.1738775,
          "velocity": 1,
          "duration": 0.4347825000000114
        },
        {
          "name": "D3",
          "midi": 50,
          "time": 142.1738775,
          "velocity": 1,
          "duration": 0.4347825000000114
        },
        {
          "name": "D3",
          "midi": 50,
          "time": 142.60866000000001,
          "velocity": 1,
          "duration": 0.2173912499999915
        },
        {
          "name": "A3",
          "midi": 57,
          "time": 142.60866000000001,
          "velocity": 1,
          "duration": 0.2173912499999915
        },
        {
          "name": "D4",
          "midi": 62,
          "time": 142.60866000000001,
          "velocity": 1,
          "duration": 0.2173912499999915
        },
        {
          "name": "F#4",
          "midi": 66,
          "time": 142.60866000000001,
          "velocity": 1,
          "duration": 0.2173912499999915
        },
        {
          "name": "F#4",
          "midi": 66,
          "time": 142.82605125,
          "velocity": 1,
          "duration": 0.2173912499999915
        },
        {
          "name": "D4",
          "midi": 62,
          "time": 142.82605125,
          "velocity": 1,
          "duration": 0.2173912499999915
        },
        {
          "name": "A3",
          "midi": 57,
          "time": 142.82605125,
          "velocity": 1,
          "duration": 0.2173912499999915
        },
        {
          "name": "D3",
          "midi": 50,
          "time": 142.82605125,
          "velocity": 1,
          "duration": 0.2173912499999915
        },
        {
          "name": "F#4",
          "midi": 66,
          "time": 143.0434425,
          "velocity": 1,
          "duration": 0.4347825000000114
        },
        {
          "name": "D4",
          "midi": 62,
          "time": 143.0434425,
          "velocity": 1,
          "duration": 0.4347825000000114
        },
        {
          "name": "A3",
          "midi": 57,
          "time": 143.0434425,
          "velocity": 1,
          "duration": 0.4347825000000114
        },
        {
          "name": "D3",
          "midi": 50,
          "time": 143.0434425,
          "velocity": 1,
          "duration": 0.4347825000000114
        },
        {
          "name": "E4",
          "midi": 64,
          "time": 143.478225,
          "velocity": 1,
          "duration": 2.6086950000000115
        },
        {
          "name": "B3",
          "midi": 59,
          "time": 143.478225,
          "velocity": 1,
          "duration": 2.6086950000000115
        },
        {
          "name": "G3",
          "midi": 55,
          "time": 143.478225,
          "velocity": 1,
          "duration": 2.6086950000000115
        },
        {
          "name": "E3",
          "midi": 52,
          "time": 143.478225,
          "velocity": 1,
          "duration": 2.6086950000000115
        },
        {
          "name": "B2",
          "midi": 47,
          "time": 143.478225,
          "velocity": 1,
          "duration": 2.6086950000000115
        },
        {
          "name": "E2",
          "midi": 40,
          "time": 143.478225,
          "velocity": 1,
          "duration": 2.6086950000000115
        },
        {
          "name": "F#4",
          "midi": 66,
          "time": 172.17387000000002,
          "velocity": 1,
          "duration": 0.6521737500000029
        },
        {
          "name": "D4",
          "midi": 62,
          "time": 172.17387000000002,
          "velocity": 1,
          "duration": 0.6521737500000029
        },
        {
          "name": "A3",
          "midi": 57,
          "time": 172.17387000000002,
          "velocity": 1,
          "duration": 0.6521737500000029
        },
        {
          "name": "D3",
          "midi": 50,
          "time": 172.17387000000002,
          "velocity": 1,
          "duration": 0.6521737500000029
        },
        {
          "name": "D3",
          "midi": 50,
          "time": 172.82604375000003,
          "velocity": 1,
          "duration": 0.2173912499999915
        },
        {
          "name": "A3",
          "midi": 57,
          "time": 172.82604375000003,
          "velocity": 1,
          "duration": 0.2173912499999915
        },
        {
          "name": "D4",
          "midi": 62,
          "time": 172.82604375000003,
          "velocity": 1,
          "duration": 0.2173912499999915
        },
        {
          "name": "F#4",
          "midi": 66,
          "time": 172.82604375000003,
          "velocity": 1,
          "duration": 0.2173912499999915
        },
        {
          "name": "F#4",
          "midi": 66,
          "time": 173.04343500000002,
          "velocity": 1,
          "duration": 0.2173912499999915
        },
        {
          "name": "D4",
          "midi": 62,
          "time": 173.04343500000002,
          "velocity": 1,
          "duration": 0.2173912499999915
        },
        {
          "name": "A3",
          "midi": 57,
          "time": 173.04343500000002,
          "velocity": 1,
          "duration": 0.2173912499999915
        },
        {
          "name": "D3",
          "midi": 50,
          "time": 173.04343500000002,
          "velocity": 1,
          "duration": 0.2173912499999915
        },
        {
          "name": "F#4",
          "midi": 66,
          "time": 173.26082625,
          "velocity": 1,
          "duration": 0.2173912499999915
        },
        {
          "name": "D4",
          "midi": 62,
          "time": 173.26082625,
          "velocity": 1,
          "duration": 0.2173912499999915
        },
        {
          "name": "A3",
          "midi": 57,
          "time": 173.26082625,
          "velocity": 1,
          "duration": 0.2173912499999915
        },
        {
          "name": "D3",
          "midi": 50,
          "time": 173.26082625,
          "velocity": 1,
          "duration": 0.2173912499999915
        },
        {
          "name": "G4",
          "midi": 67,
          "time": 173.4782175,
          "velocity": 1,
          "duration": 0.2173912499999915
        },
        {
          "name": "D4",
          "midi": 62,
          "time": 173.4782175,
          "velocity": 1,
          "duration": 0.2173912499999915
        },
        {
          "name": "A3",
          "midi": 57,
          "time": 173.4782175,
          "velocity": 1,
          "duration": 0.2173912499999915
        },
        {
          "name": "D3",
          "midi": 50,
          "time": 173.4782175,
          "velocity": 1,
          "duration": 0.2173912499999915
        },
        {
          "name": "D3",
          "midi": 50,
          "time": 173.69560875,
          "velocity": 1,
          "duration": 0.4347825000000114
        },
        {
          "name": "A3",
          "midi": 57,
          "time": 173.69560875,
          "velocity": 1,
          "duration": 0.4347825000000114
        },
        {
          "name": "D4",
          "midi": 62,
          "time": 173.69560875,
          "velocity": 1,
          "duration": 0.4347825000000114
        },
        {
          "name": "F#4",
          "midi": 66,
          "time": 173.69560875,
          "velocity": 1,
          "duration": 0.4347825000000114
        },
        {
          "name": "G#4",
          "midi": 68,
          "time": 174.13039125,
          "velocity": 1,
          "duration": 0.4347825000000114
        },
        {
          "name": "D4",
          "midi": 62,
          "time": 174.13039125,
          "velocity": 1,
          "duration": 0.4347825000000114
        },
        {
          "name": "A3",
          "midi": 57,
          "time": 174.13039125,
          "velocity": 1,
          "duration": 0.4347825000000114
        },
        {
          "name": "D3",
          "midi": 50,
          "time": 174.13039125,
          "velocity": 1,
          "duration": 0.4347825000000114
        },
        {
          "name": "F#4",
          "midi": 66,
          "time": 174.56517375,
          "velocity": 1,
          "duration": 0.2173912499999915
        },
        {
          "name": "D4",
          "midi": 62,
          "time": 174.56517375,
          "velocity": 1,
          "duration": 0.2173912499999915
        },
        {
          "name": "A3",
          "midi": 57,
          "time": 174.56517375,
          "velocity": 1,
          "duration": 0.2173912499999915
        },
        {
          "name": "D3",
          "midi": 50,
          "time": 174.56517375,
          "velocity": 1,
          "duration": 0.2173912499999915
        },
        {
          "name": "E4",
          "midi": 64,
          "time": 174.782565,
          "velocity": 1,
          "duration": 1.3043475000000058
        },
        {
          "name": "C4",
          "midi": 60,
          "time": 174.782565,
          "velocity": 1,
          "duration": 1.3043475000000058
        },
        {
          "name": "G3",
          "midi": 55,
          "time": 174.782565,
          "velocity": 1,
          "duration": 1.3043475000000058
        },
        {
          "name": "E3",
          "midi": 52,
          "time": 174.782565,
          "velocity": 1,
          "duration": 1.3043475000000058
        },
        {
          "name": "C3",
          "midi": 48,
          "time": 174.782565,
          "velocity": 1,
          "duration": 1.3043475000000058
        },
        {
          "name": "C#4",
          "midi": 61,
          "time": 176.0869125,
          "velocity": 1,
          "duration": 1.3043475000000058
        },
        {
          "name": "A3",
          "midi": 57,
          "time": 176.0869125,
          "velocity": 1,
          "duration": 1.3043475000000058
        },
        {
          "name": "E3",
          "midi": 52,
          "time": 176.0869125,
          "velocity": 1,
          "duration": 1.3043475000000058
        },
        {
          "name": "A2",
          "midi": 45,
          "time": 176.0869125,
          "velocity": 1,
          "duration": 1.3043475000000058
        },
        {
          "name": "F#4",
          "midi": 66,
          "time": 177.39126000000002,
          "velocity": 1,
          "duration": 0.6521737500000029
        },
        {
          "name": "D4",
          "midi": 62,
          "time": 177.39126000000002,
          "velocity": 1,
          "duration": 0.6521737500000029
        },
        {
          "name": "A3",
          "midi": 57,
          "time": 177.39126000000002,
          "velocity": 1,
          "duration": 0.6521737500000029
        },
        {
          "name": "D3",
          "midi": 50,
          "time": 177.39126000000002,
          "velocity": 1,
          "duration": 0.6521737500000029
        },
        {
          "name": "D3",
          "midi": 50,
          "time": 178.04343375000002,
          "velocity": 1,
          "duration": 0.2173912499999915
        },
        {
          "name": "A3",
          "midi": 57,
          "time": 178.04343375000002,
          "velocity": 1,
          "duration": 0.2173912499999915
        },
        {
          "name": "D4",
          "midi": 62,
          "time": 178.04343375000002,
          "velocity": 1,
          "duration": 0.2173912499999915
        },
        {
          "name": "F#4",
          "midi": 66,
          "time": 178.04343375000002,
          "velocity": 1,
          "duration": 0.2173912499999915
        },
        {
          "name": "F#4",
          "midi": 66,
          "time": 178.260825,
          "velocity": 1,
          "duration": 0.2173912499999915
        },
        {
          "name": "D4",
          "midi": 62,
          "time": 178.260825,
          "velocity": 1,
          "duration": 0.2173912499999915
        },
        {
          "name": "A3",
          "midi": 57,
          "time": 178.260825,
          "velocity": 1,
          "duration": 0.2173912499999915
        },
        {
          "name": "D3",
          "midi": 50,
          "time": 178.260825,
          "velocity": 1,
          "duration": 0.2173912499999915
        },
        {
          "name": "F#4",
          "midi": 66,
          "time": 178.47821625,
          "velocity": 1,
          "duration": 0.2173912499999915
        },
        {
          "name": "D4",
          "midi": 62,
          "time": 178.47821625,
          "velocity": 1,
          "duration": 0.2173912499999915
        },
        {
          "name": "A3",
          "midi": 57,
          "time": 178.47821625,
          "velocity": 1,
          "duration": 0.2173912499999915
        },
        {
          "name": "D3",
          "midi": 50,
          "time": 178.47821625,
          "velocity": 1,
          "duration": 0.2173912499999915
        },
        {
          "name": "G4",
          "midi": 67,
          "time": 178.6956075,
          "velocity": 1,
          "duration": 0.2173912499999915
        },
        {
          "name": "D4",
          "midi": 62,
          "time": 178.6956075,
          "velocity": 1,
          "duration": 0.2173912499999915
        },
        {
          "name": "A3",
          "midi": 57,
          "time": 178.6956075,
          "velocity": 1,
          "duration": 0.2173912499999915
        },
        {
          "name": "D3",
          "midi": 50,
          "time": 178.6956075,
          "velocity": 1,
          "duration": 0.2173912499999915
        },
        {
          "name": "D3",
          "midi": 50,
          "time": 178.91299874999999,
          "velocity": 1,
          "duration": 0.4347825000000114
        },
        {
          "name": "A3",
          "midi": 57,
          "time": 178.91299874999999,
          "velocity": 1,
          "duration": 0.4347825000000114
        },
        {
          "name": "D4",
          "midi": 62,
          "time": 178.91299874999999,
          "velocity": 1,
          "duration": 0.4347825000000114
        },
        {
          "name": "F#4",
          "midi": 66,
          "time": 178.91299874999999,
          "velocity": 1,
          "duration": 0.4347825000000114
        },
        {
          "name": "G#4",
          "midi": 68,
          "time": 179.34778125,
          "velocity": 1,
          "duration": 0.4347825000000114
        },
        {
          "name": "D4",
          "midi": 62,
          "time": 179.34778125,
          "velocity": 1,
          "duration": 0.4347825000000114
        },
        {
          "name": "A3",
          "midi": 57,
          "time": 179.34778125,
          "velocity": 1,
          "duration": 0.4347825000000114
        },
        {
          "name": "D3",
          "midi": 50,
          "time": 179.34778125,
          "velocity": 1,
          "duration": 0.4347825000000114
        },
        {
          "name": "F#4",
          "midi": 66,
          "time": 179.78256375,
          "velocity": 1,
          "duration": 0.2173912499999915
        },
        {
          "name": "D4",
          "midi": 62,
          "time": 179.78256375,
          "velocity": 1,
          "duration": 0.2173912499999915
        },
        {
          "name": "A3",
          "midi": 57,
          "time": 179.78256375,
          "velocity": 1,
          "duration": 0.2173912499999915
        },
        {
          "name": "D3",
          "midi": 50,
          "time": 179.78256375,
          "velocity": 1,
          "duration": 0.2173912499999915
        },
        {
          "name": "E4",
          "midi": 64,
          "time": 179.999955,
          "velocity": 1,
          "duration": 1.3043475000000058
        },
        {
          "name": "C4",
          "midi": 60,
          "time": 179.999955,
          "velocity": 1,
          "duration": 1.3043475000000058
        },
        {
          "name": "G3",
          "midi": 55,
          "time": 179.999955,
          "velocity": 1,
          "duration": 1.3043475000000058
        },
        {
          "name": "E3",
          "midi": 52,
          "time": 179.999955,
          "velocity": 1,
          "duration": 1.3043475000000058
        },
        {
          "name": "C3",
          "midi": 48,
          "time": 179.999955,
          "velocity": 1,
          "duration": 1.3043475000000058
        },
        {
          "name": "C#4",
          "midi": 61,
          "time": 181.3043025,
          "velocity": 1,
          "duration": 1.3043475000000058
        },
        {
          "name": "A3",
          "midi": 57,
          "time": 181.3043025,
          "velocity": 1,
          "duration": 1.3043475000000058
        },
        {
          "name": "E3",
          "midi": 52,
          "time": 181.3043025,
          "velocity": 1,
          "duration": 1.3043475000000058
        },
        {
          "name": "A2",
          "midi": 45,
          "time": 181.3043025,
          "velocity": 1,
          "duration": 1.3043475000000058
        },
        {
          "name": "F#4",
          "midi": 66,
          "time": 182.60865,
          "velocity": 1,
          "duration": 0.4347825000000114
        },
        {
          "name": "D4",
          "midi": 62,
          "time": 182.60865,
          "velocity": 1,
          "duration": 0.4347825000000114
        },
        {
          "name": "A3",
          "midi": 57,
          "time": 182.60865,
          "velocity": 1,
          "duration": 0.4347825000000114
        },
        {
          "name": "D3",
          "midi": 50,
          "time": 182.60865,
          "velocity": 1,
          "duration": 0.4347825000000114
        },
        {
          "name": "D3",
          "midi": 50,
          "time": 183.04343250000002,
          "velocity": 1,
          "duration": 0.2173912499999915
        },
        {
          "name": "A3",
          "midi": 57,
          "time": 183.04343250000002,
          "velocity": 1,
          "duration": 0.2173912499999915
        },
        {
          "name": "D4",
          "midi": 62,
          "time": 183.04343250000002,
          "velocity": 1,
          "duration": 0.2173912499999915
        },
        {
          "name": "F#4",
          "midi": 66,
          "time": 183.04343250000002,
          "velocity": 1,
          "duration": 0.2173912499999915
        },
        {
          "name": "F#4",
          "midi": 66,
          "time": 183.26082375000001,
          "velocity": 1,
          "duration": 0.2173912499999915
        },
        {
          "name": "D4",
          "midi": 62,
          "time": 183.26082375000001,
          "velocity": 1,
          "duration": 0.2173912499999915
        },
        {
          "name": "A3",
          "midi": 57,
          "time": 183.26082375000001,
          "velocity": 1,
          "duration": 0.2173912499999915
        },
        {
          "name": "D3",
          "midi": 50,
          "time": 183.26082375000001,
          "velocity": 1,
          "duration": 0.2173912499999915
        },
        {
          "name": "F#4",
          "midi": 66,
          "time": 183.478215,
          "velocity": 1,
          "duration": 0.4347825000000114
        },
        {
          "name": "D4",
          "midi": 62,
          "time": 183.478215,
          "velocity": 1,
          "duration": 0.4347825000000114
        },
        {
          "name": "A3",
          "midi": 57,
          "time": 183.478215,
          "velocity": 1,
          "duration": 0.4347825000000114
        },
        {
          "name": "D3",
          "midi": 50,
          "time": 183.478215,
          "velocity": 1,
          "duration": 0.4347825000000114
        },
        {
          "name": "E4",
          "midi": 64,
          "time": 183.91299750000002,
          "velocity": 1,
          "duration": 2.6086950000000115
        },
        {
          "name": "B3",
          "midi": 59,
          "time": 183.91299750000002,
          "velocity": 1,
          "duration": 2.6086950000000115
        },
        {
          "name": "G3",
          "midi": 55,
          "time": 183.91299750000002,
          "velocity": 1,
          "duration": 2.6086950000000115
        },
        {
          "name": "E3",
          "midi": 52,
          "time": 183.91299750000002,
          "velocity": 1,
          "duration": 2.6086950000000115
        },
        {
          "name": "B2",
          "midi": 47,
          "time": 183.91299750000002,
          "velocity": 1,
          "duration": 2.6086950000000115
        },
        {
          "name": "E2",
          "midi": 40,
          "time": 183.91299750000002,
          "velocity": 1,
          "duration": 2.6086950000000115
        },
        {
          "name": "E4",
          "midi": 64,
          "time": 275.2173225,
          "velocity": 1,
          "duration": 2.6086950000000115
        },
        {
          "name": "C4",
          "midi": 60,
          "time": 275.2173225,
          "velocity": 1,
          "duration": 2.6086950000000115
        },
        {
          "name": "G3",
          "midi": 55,
          "time": 275.2173225,
          "velocity": 1,
          "duration": 2.6086950000000115
        },
        {
          "name": "E3",
          "midi": 52,
          "time": 275.2173225,
          "velocity": 1,
          "duration": 2.6086950000000115
        },
        {
          "name": "C3",
          "midi": 48,
          "time": 275.2173225,
          "velocity": 1,
          "duration": 2.6086950000000115
        },
        {
          "name": "C#4",
          "midi": 61,
          "time": 276.52167000000003,
          "velocity": 1,
          "duration": 1.3043475000000058
        },
        {
          "name": "A3",
          "midi": 57,
          "time": 276.52167000000003,
          "velocity": 1,
          "duration": 1.3043475000000058
        },
        {
          "name": "E3",
          "midi": 52,
          "time": 276.52167000000003,
          "velocity": 1,
          "duration": 1.3043475000000058
        },
        {
          "name": "A2",
          "midi": 45,
          "time": 276.52167000000003,
          "velocity": 1,
          "duration": 1.3043475000000058
        },
        {
          "name": "F#4",
          "midi": 66,
          "time": 277.82601750000003,
          "velocity": 1,
          "duration": 0.6521737499999745
        },
        {
          "name": "D4",
          "midi": 62,
          "time": 277.82601750000003,
          "velocity": 1,
          "duration": 0.6521737499999745
        },
        {
          "name": "A3",
          "midi": 57,
          "time": 277.82601750000003,
          "velocity": 1,
          "duration": 0.6521737499999745
        },
        {
          "name": "D3",
          "midi": 50,
          "time": 277.82601750000003,
          "velocity": 1,
          "duration": 0.6521737499999745
        },
        {
          "name": "D3",
          "midi": 50,
          "time": 278.47819125,
          "velocity": 1,
          "duration": 0.2173912499999915
        },
        {
          "name": "A3",
          "midi": 57,
          "time": 278.47819125,
          "velocity": 1,
          "duration": 0.2173912499999915
        },
        {
          "name": "D4",
          "midi": 62,
          "time": 278.47819125,
          "velocity": 1,
          "duration": 0.2173912499999915
        },
        {
          "name": "F#4",
          "midi": 66,
          "time": 278.47819125,
          "velocity": 1,
          "duration": 0.2173912499999915
        },
        {
          "name": "F#4",
          "midi": 66,
          "time": 278.6955825,
          "velocity": 1,
          "duration": 0.2173912499999915
        },
        {
          "name": "D4",
          "midi": 62,
          "time": 278.6955825,
          "velocity": 1,
          "duration": 0.2173912499999915
        },
        {
          "name": "A3",
          "midi": 57,
          "time": 278.6955825,
          "velocity": 1,
          "duration": 0.2173912499999915
        },
        {
          "name": "D3",
          "midi": 50,
          "time": 278.6955825,
          "velocity": 1,
          "duration": 0.2173912499999915
        },
        {
          "name": "F#4",
          "midi": 66,
          "time": 278.91297375,
          "velocity": 1,
          "duration": 0.2173912499999915
        },
        {
          "name": "D4",
          "midi": 62,
          "time": 278.91297375,
          "velocity": 1,
          "duration": 0.2173912499999915
        },
        {
          "name": "A3",
          "midi": 57,
          "time": 278.91297375,
          "velocity": 1,
          "duration": 0.2173912499999915
        },
        {
          "name": "D3",
          "midi": 50,
          "time": 278.91297375,
          "velocity": 1,
          "duration": 0.2173912499999915
        },
        {
          "name": "G4",
          "midi": 67,
          "time": 279.130365,
          "velocity": 1,
          "duration": 0.2173912499999915
        },
        {
          "name": "D4",
          "midi": 62,
          "time": 279.130365,
          "velocity": 1,
          "duration": 0.2173912499999915
        },
        {
          "name": "A3",
          "midi": 57,
          "time": 279.130365,
          "velocity": 1,
          "duration": 0.2173912499999915
        },
        {
          "name": "D3",
          "midi": 50,
          "time": 279.130365,
          "velocity": 1,
          "duration": 0.2173912499999915
        },
        {
          "name": "D3",
          "midi": 50,
          "time": 279.34775625,
          "velocity": 1,
          "duration": 0.434782499999983
        },
        {
          "name": "A3",
          "midi": 57,
          "time": 279.34775625,
          "velocity": 1,
          "duration": 0.434782499999983
        },
        {
          "name": "D4",
          "midi": 62,
          "time": 279.34775625,
          "velocity": 1,
          "duration": 0.434782499999983
        },
        {
          "name": "F#4",
          "midi": 66,
          "time": 279.34775625,
          "velocity": 1,
          "duration": 0.434782499999983
        },
        {
          "name": "G#4",
          "midi": 68,
          "time": 279.78253874999996,
          "velocity": 1,
          "duration": 0.434782499999983
        },
        {
          "name": "D4",
          "midi": 62,
          "time": 279.78253874999996,
          "velocity": 1,
          "duration": 0.434782499999983
        },
        {
          "name": "A3",
          "midi": 57,
          "time": 279.78253874999996,
          "velocity": 1,
          "duration": 0.434782499999983
        },
        {
          "name": "D3",
          "midi": 50,
          "time": 279.78253874999996,
          "velocity": 1,
          "duration": 0.434782499999983
        },
        {
          "name": "F#4",
          "midi": 66,
          "time": 280.21732124999994,
          "velocity": 1,
          "duration": 0.2173912499999915
        },
        {
          "name": "D4",
          "midi": 62,
          "time": 280.21732124999994,
          "velocity": 1,
          "duration": 0.2173912499999915
        },
        {
          "name": "A3",
          "midi": 57,
          "time": 280.21732124999994,
          "velocity": 1,
          "duration": 0.2173912499999915
        },
        {
          "name": "D3",
          "midi": 50,
          "time": 280.21732124999994,
          "velocity": 1,
          "duration": 0.2173912499999915
        },
        {
          "name": "E4",
          "midi": 64,
          "time": 280.43471249999993,
          "velocity": 1,
          "duration": 1.3043475000000058
        },
        {
          "name": "C4",
          "midi": 60,
          "time": 280.43471249999993,
          "velocity": 1,
          "duration": 1.3043475000000058
        },
        {
          "name": "G3",
          "midi": 55,
          "time": 280.43471249999993,
          "velocity": 1,
          "duration": 1.3043475000000058
        },
        {
          "name": "E3",
          "midi": 52,
          "time": 280.43471249999993,
          "velocity": 1,
          "duration": 1.3043475000000058
        },
        {
          "name": "C3",
          "midi": 48,
          "time": 280.43471249999993,
          "velocity": 1,
          "duration": 1.3043475000000058
        },
        {
          "name": "C#4",
          "midi": 61,
          "time": 281.73905999999994,
          "velocity": 1,
          "duration": 1.3043475000000058
        },
        {
          "name": "A3",
          "midi": 57,
          "time": 281.73905999999994,
          "velocity": 1,
          "duration": 1.3043475000000058
        },
        {
          "name": "E3",
          "midi": 52,
          "time": 281.73905999999994,
          "velocity": 1,
          "duration": 1.3043475000000058
        },
        {
          "name": "A2",
          "midi": 45,
          "time": 281.73905999999994,
          "velocity": 1,
          "duration": 1.3043475000000058
        },
        {
          "name": "F#4",
          "midi": 66,
          "time": 283.04340749999994,
          "velocity": 1,
          "duration": 0.6521737499999745
        },
        {
          "name": "D4",
          "midi": 62,
          "time": 283.04340749999994,
          "velocity": 1,
          "duration": 0.6521737499999745
        },
        {
          "name": "A3",
          "midi": 57,
          "time": 283.04340749999994,
          "velocity": 1,
          "duration": 0.6521737499999745
        },
        {
          "name": "D3",
          "midi": 50,
          "time": 283.04340749999994,
          "velocity": 1,
          "duration": 0.6521737499999745
        },
        {
          "name": "D3",
          "midi": 50,
          "time": 283.6955812499999,
          "velocity": 1,
          "duration": 0.2173912499999915
        },
        {
          "name": "A3",
          "midi": 57,
          "time": 283.6955812499999,
          "velocity": 1,
          "duration": 0.2173912499999915
        },
        {
          "name": "D4",
          "midi": 62,
          "time": 283.6955812499999,
          "velocity": 1,
          "duration": 0.2173912499999915
        },
        {
          "name": "F#4",
          "midi": 66,
          "time": 283.6955812499999,
          "velocity": 1,
          "duration": 0.2173912499999915
        },
        {
          "name": "F#4",
          "midi": 66,
          "time": 283.9129724999999,
          "velocity": 1,
          "duration": 0.2173912499999915
        },
        {
          "name": "D4",
          "midi": 62,
          "time": 283.9129724999999,
          "velocity": 1,
          "duration": 0.2173912499999915
        },
        {
          "name": "A3",
          "midi": 57,
          "time": 283.9129724999999,
          "velocity": 1,
          "duration": 0.2173912499999915
        },
        {
          "name": "D3",
          "midi": 50,
          "time": 283.9129724999999,
          "velocity": 1,
          "duration": 0.2173912499999915
        },
        {
          "name": "F#4",
          "midi": 66,
          "time": 284.1303637499999,
          "velocity": 1,
          "duration": 0.2173912499999915
        },
        {
          "name": "D4",
          "midi": 62,
          "time": 284.1303637499999,
          "velocity": 1,
          "duration": 0.2173912499999915
        },
        {
          "name": "A3",
          "midi": 57,
          "time": 284.1303637499999,
          "velocity": 1,
          "duration": 0.2173912499999915
        },
        {
          "name": "D3",
          "midi": 50,
          "time": 284.1303637499999,
          "velocity": 1,
          "duration": 0.2173912499999915
        },
        {
          "name": "G4",
          "midi": 67,
          "time": 284.3477549999999,
          "velocity": 1,
          "duration": 0.2173912499999915
        },
        {
          "name": "D4",
          "midi": 62,
          "time": 284.3477549999999,
          "velocity": 1,
          "duration": 0.2173912499999915
        },
        {
          "name": "A3",
          "midi": 57,
          "time": 284.3477549999999,
          "velocity": 1,
          "duration": 0.2173912499999915
        },
        {
          "name": "D3",
          "midi": 50,
          "time": 284.3477549999999,
          "velocity": 1,
          "duration": 0.2173912499999915
        },
        {
          "name": "D3",
          "midi": 50,
          "time": 284.5651462499999,
          "velocity": 1,
          "duration": 0.434782499999983
        },
        {
          "name": "A3",
          "midi": 57,
          "time": 284.5651462499999,
          "velocity": 1,
          "duration": 0.434782499999983
        },
        {
          "name": "D4",
          "midi": 62,
          "time": 284.5651462499999,
          "velocity": 1,
          "duration": 0.434782499999983
        },
        {
          "name": "F#4",
          "midi": 66,
          "time": 284.5651462499999,
          "velocity": 1,
          "duration": 0.434782499999983
        },
        {
          "name": "G#4",
          "midi": 68,
          "time": 284.99992874999987,
          "velocity": 1,
          "duration": 0.434782499999983
        },
        {
          "name": "D4",
          "midi": 62,
          "time": 284.99992874999987,
          "velocity": 1,
          "duration": 0.434782499999983
        },
        {
          "name": "A3",
          "midi": 57,
          "time": 284.99992874999987,
          "velocity": 1,
          "duration": 0.434782499999983
        },
        {
          "name": "D3",
          "midi": 50,
          "time": 284.99992874999987,
          "velocity": 1,
          "duration": 0.434782499999983
        },
        {
          "name": "F#4",
          "midi": 66,
          "time": 285.43471124999985,
          "velocity": 1,
          "duration": 0.2173912499999915
        },
        {
          "name": "D4",
          "midi": 62,
          "time": 285.43471124999985,
          "velocity": 1,
          "duration": 0.2173912499999915
        },
        {
          "name": "A3",
          "midi": 57,
          "time": 285.43471124999985,
          "velocity": 1,
          "duration": 0.2173912499999915
        },
        {
          "name": "D3",
          "midi": 50,
          "time": 285.43471124999985,
          "velocity": 1,
          "duration": 0.2173912499999915
        },
        {
          "name": "E4",
          "midi": 64,
          "time": 285.65210249999984,
          "velocity": 1,
          "duration": 1.3043475000000058
        },
        {
          "name": "C4",
          "midi": 60,
          "time": 285.65210249999984,
          "velocity": 1,
          "duration": 1.3043475000000058
        },
        {
          "name": "G3",
          "midi": 55,
          "time": 285.65210249999984,
          "velocity": 1,
          "duration": 1.3043475000000058
        },
        {
          "name": "E3",
          "midi": 52,
          "time": 285.65210249999984,
          "velocity": 1,
          "duration": 1.3043475000000058
        },
        {
          "name": "C3",
          "midi": 48,
          "time": 285.65210249999984,
          "velocity": 1,
          "duration": 1.3043475000000058
        },
        {
          "name": "C#4",
          "midi": 61,
          "time": 286.95644999999985,
          "velocity": 1,
          "duration": 1.3043475000000058
        },
        {
          "name": "A3",
          "midi": 57,
          "time": 286.95644999999985,
          "velocity": 1,
          "duration": 1.3043475000000058
        },
        {
          "name": "E3",
          "midi": 52,
          "time": 286.95644999999985,
          "velocity": 1,
          "duration": 1.3043475000000058
        },
        {
          "name": "A2",
          "midi": 45,
          "time": 286.95644999999985,
          "velocity": 1,
          "duration": 1.3043475000000058
        },
        {
          "name": "F#4",
          "midi": 66,
          "time": 288.26079749999985,
          "velocity": 1,
          "duration": 0.6521737499999745
        },
        {
          "name": "D4",
          "midi": 62,
          "time": 288.26079749999985,
          "velocity": 1,
          "duration": 0.6521737499999745
        },
        {
          "name": "A3",
          "midi": 57,
          "time": 288.26079749999985,
          "velocity": 1,
          "duration": 0.6521737499999745
        },
        {
          "name": "D3",
          "midi": 50,
          "time": 288.26079749999985,
          "velocity": 1,
          "duration": 0.6521737499999745
        },
        {
          "name": "D3",
          "midi": 50,
          "time": 288.9129712499998,
          "velocity": 1,
          "duration": 0.2173912499999915
        },
        {
          "name": "A3",
          "midi": 57,
          "time": 288.9129712499998,
          "velocity": 1,
          "duration": 0.2173912499999915
        },
        {
          "name": "D4",
          "midi": 62,
          "time": 288.9129712499998,
          "velocity": 1,
          "duration": 0.2173912499999915
        },
        {
          "name": "F#4",
          "midi": 66,
          "time": 288.9129712499998,
          "velocity": 1,
          "duration": 0.2173912499999915
        },
        {
          "name": "F#4",
          "midi": 66,
          "time": 289.1303624999998,
          "velocity": 1,
          "duration": 0.2173912499999915
        },
        {
          "name": "D4",
          "midi": 62,
          "time": 289.1303624999998,
          "velocity": 1,
          "duration": 0.2173912499999915
        },
        {
          "name": "A3",
          "midi": 57,
          "time": 289.1303624999998,
          "velocity": 1,
          "duration": 0.2173912499999915
        },
        {
          "name": "D3",
          "midi": 50,
          "time": 289.1303624999998,
          "velocity": 1,
          "duration": 0.2173912499999915
        },
        {
          "name": "F#4",
          "midi": 66,
          "time": 289.3477537499998,
          "velocity": 1,
          "duration": 0.2173912499999915
        },
        {
          "name": "D4",
          "midi": 62,
          "time": 289.3477537499998,
          "velocity": 1,
          "duration": 0.2173912499999915
        },
        {
          "name": "A3",
          "midi": 57,
          "time": 289.3477537499998,
          "velocity": 1,
          "duration": 0.2173912499999915
        },
        {
          "name": "D3",
          "midi": 50,
          "time": 289.3477537499998,
          "velocity": 1,
          "duration": 0.2173912499999915
        },
        {
          "name": "G4",
          "midi": 67,
          "time": 289.5651449999998,
          "velocity": 1,
          "duration": 0.2173912499999915
        },
        {
          "name": "D4",
          "midi": 62,
          "time": 289.5651449999998,
          "velocity": 1,
          "duration": 0.2173912499999915
        },
        {
          "name": "A3",
          "midi": 57,
          "time": 289.5651449999998,
          "velocity": 1,
          "duration": 0.2173912499999915
        },
        {
          "name": "D3",
          "midi": 50,
          "time": 289.5651449999998,
          "velocity": 1,
          "duration": 0.2173912499999915
        },
        {
          "name": "D3",
          "midi": 50,
          "time": 289.7825362499998,
          "velocity": 1,
          "duration": 0.434782499999983
        },
        {
          "name": "A3",
          "midi": 57,
          "time": 289.7825362499998,
          "velocity": 1,
          "duration": 0.434782499999983
        },
        {
          "name": "D4",
          "midi": 62,
          "time": 289.7825362499998,
          "velocity": 1,
          "duration": 0.434782499999983
        },
        {
          "name": "F#4",
          "midi": 66,
          "time": 289.7825362499998,
          "velocity": 1,
          "duration": 0.434782499999983
        },
        {
          "name": "G#4",
          "midi": 68,
          "time": 290.2173187499998,
          "velocity": 1,
          "duration": 0.434782499999983
        },
        {
          "name": "D4",
          "midi": 62,
          "time": 290.2173187499998,
          "velocity": 1,
          "duration": 0.434782499999983
        },
        {
          "name": "A3",
          "midi": 57,
          "time": 290.2173187499998,
          "velocity": 1,
          "duration": 0.434782499999983
        },
        {
          "name": "D3",
          "midi": 50,
          "time": 290.2173187499998,
          "velocity": 1,
          "duration": 0.434782499999983
        },
        {
          "name": "F#4",
          "midi": 66,
          "time": 290.65210124999976,
          "velocity": 1,
          "duration": 0.2173912499999915
        },
        {
          "name": "D4",
          "midi": 62,
          "time": 290.65210124999976,
          "velocity": 1,
          "duration": 0.2173912499999915
        },
        {
          "name": "A3",
          "midi": 57,
          "time": 290.65210124999976,
          "velocity": 1,
          "duration": 0.2173912499999915
        },
        {
          "name": "D3",
          "midi": 50,
          "time": 290.65210124999976,
          "velocity": 1,
          "duration": 0.2173912499999915
        },
        {
          "name": "E4",
          "midi": 64,
          "time": 290.86949249999975,
          "velocity": 1,
          "duration": 1.3043475000000058
        },
        {
          "name": "C4",
          "midi": 60,
          "time": 290.86949249999975,
          "velocity": 1,
          "duration": 1.3043475000000058
        },
        {
          "name": "G3",
          "midi": 55,
          "time": 290.86949249999975,
          "velocity": 1,
          "duration": 1.3043475000000058
        },
        {
          "name": "E3",
          "midi": 52,
          "time": 290.86949249999975,
          "velocity": 1,
          "duration": 1.3043475000000058
        },
        {
          "name": "C3",
          "midi": 48,
          "time": 290.86949249999975,
          "velocity": 1,
          "duration": 1.3043475000000058
        },
        {
          "name": "C#4",
          "midi": 61,
          "time": 292.17383999999976,
          "velocity": 1,
          "duration": 1.3043475000000058
        },
        {
          "name": "A3",
          "midi": 57,
          "time": 292.17383999999976,
          "velocity": 1,
          "duration": 1.3043475000000058
        },
        {
          "name": "E3",
          "midi": 52,
          "time": 292.17383999999976,
          "velocity": 1,
          "duration": 1.3043475000000058
        },
        {
          "name": "A2",
          "midi": 45,
          "time": 292.17383999999976,
          "velocity": 1,
          "duration": 1.3043475000000058
        },
        {
          "name": "F#4",
          "midi": 66,
          "time": 293.47818749999976,
          "velocity": 1,
          "duration": 0.6521737499999745
        },
        {
          "name": "D4",
          "midi": 62,
          "time": 293.47818749999976,
          "velocity": 1,
          "duration": 0.6521737499999745
        },
        {
          "name": "A3",
          "midi": 57,
          "time": 293.47818749999976,
          "velocity": 1,
          "duration": 0.6521737499999745
        },
        {
          "name": "D3",
          "midi": 50,
          "time": 293.47818749999976,
          "velocity": 1,
          "duration": 0.6521737499999745
        },
        {
          "name": "D3",
          "midi": 50,
          "time": 294.13036124999974,
          "velocity": 1,
          "duration": 0.2173912499999915
        },
        {
          "name": "A3",
          "midi": 57,
          "time": 294.13036124999974,
          "velocity": 1,
          "duration": 0.2173912499999915
        },
        {
          "name": "D4",
          "midi": 62,
          "time": 294.13036124999974,
          "velocity": 1,
          "duration": 0.2173912499999915
        },
        {
          "name": "F#4",
          "midi": 66,
          "time": 294.13036124999974,
          "velocity": 1,
          "duration": 0.2173912499999915
        },
        {
          "name": "F#4",
          "midi": 66,
          "time": 294.34775249999973,
          "velocity": 1,
          "duration": 0.2173912499999915
        },
        {
          "name": "D4",
          "midi": 62,
          "time": 294.34775249999973,
          "velocity": 1,
          "duration": 0.2173912499999915
        },
        {
          "name": "A3",
          "midi": 57,
          "time": 294.34775249999973,
          "velocity": 1,
          "duration": 0.2173912499999915
        },
        {
          "name": "D3",
          "midi": 50,
          "time": 294.34775249999973,
          "velocity": 1,
          "duration": 0.2173912499999915
        },
        {
          "name": "F#4",
          "midi": 66,
          "time": 294.5651437499997,
          "velocity": 1,
          "duration": 0.2173912499999915
        },
        {
          "name": "D4",
          "midi": 62,
          "time": 294.5651437499997,
          "velocity": 1,
          "duration": 0.2173912499999915
        },
        {
          "name": "A3",
          "midi": 57,
          "time": 294.5651437499997,
          "velocity": 1,
          "duration": 0.2173912499999915
        },
        {
          "name": "D3",
          "midi": 50,
          "time": 294.5651437499997,
          "velocity": 1,
          "duration": 0.2173912499999915
        },
        {
          "name": "G4",
          "midi": 67,
          "time": 294.7825349999997,
          "velocity": 1,
          "duration": 0.2173912499999915
        },
        {
          "name": "D4",
          "midi": 62,
          "time": 294.7825349999997,
          "velocity": 1,
          "duration": 0.2173912499999915
        },
        {
          "name": "A3",
          "midi": 57,
          "time": 294.7825349999997,
          "velocity": 1,
          "duration": 0.2173912499999915
        },
        {
          "name": "D3",
          "midi": 50,
          "time": 294.7825349999997,
          "velocity": 1,
          "duration": 0.2173912499999915
        },
        {
          "name": "D3",
          "midi": 50,
          "time": 294.9999262499997,
          "velocity": 1,
          "duration": 0.434782499999983
        },
        {
          "name": "A3",
          "midi": 57,
          "time": 294.9999262499997,
          "velocity": 1,
          "duration": 0.434782499999983
        },
        {
          "name": "D4",
          "midi": 62,
          "time": 294.9999262499997,
          "velocity": 1,
          "duration": 0.434782499999983
        },
        {
          "name": "F#4",
          "midi": 66,
          "time": 294.9999262499997,
          "velocity": 1,
          "duration": 0.434782499999983
        },
        {
          "name": "G#4",
          "midi": 68,
          "time": 295.4347087499997,
          "velocity": 1,
          "duration": 0.434782499999983
        },
        {
          "name": "D4",
          "midi": 62,
          "time": 295.4347087499997,
          "velocity": 1,
          "duration": 0.434782499999983
        },
        {
          "name": "A3",
          "midi": 57,
          "time": 295.4347087499997,
          "velocity": 1,
          "duration": 0.434782499999983
        },
        {
          "name": "D3",
          "midi": 50,
          "time": 295.4347087499997,
          "velocity": 1,
          "duration": 0.434782499999983
        },
        {
          "name": "F#4",
          "midi": 66,
          "time": 295.86949124999967,
          "velocity": 1,
          "duration": 0.2173912499999915
        },
        {
          "name": "D4",
          "midi": 62,
          "time": 295.86949124999967,
          "velocity": 1,
          "duration": 0.2173912499999915
        },
        {
          "name": "A3",
          "midi": 57,
          "time": 295.86949124999967,
          "velocity": 1,
          "duration": 0.2173912499999915
        },
        {
          "name": "D3",
          "midi": 50,
          "time": 295.86949124999967,
          "velocity": 1,
          "duration": 0.2173912499999915
        },
        {
          "name": "E4",
          "midi": 64,
          "time": 296.08688249999966,
          "velocity": 1,
          "duration": 1.3043475000000058
        },
        {
          "name": "C4",
          "midi": 60,
          "time": 296.08688249999966,
          "velocity": 1,
          "duration": 1.3043475000000058
        },
        {
          "name": "G3",
          "midi": 55,
          "time": 296.08688249999966,
          "velocity": 1,
          "duration": 1.3043475000000058
        },
        {
          "name": "E3",
          "midi": 52,
          "time": 296.08688249999966,
          "velocity": 1,
          "duration": 1.3043475000000058
        },
        {
          "name": "C3",
          "midi": 48,
          "time": 296.08688249999966,
          "velocity": 1,
          "duration": 1.3043475000000058
        },
        {
          "name": "C#4",
          "midi": 61,
          "time": 297.39122999999967,
          "velocity": 1,
          "duration": 1.3043475000000058
        },
        {
          "name": "A3",
          "midi": 57,
          "time": 297.39122999999967,
          "velocity": 1,
          "duration": 1.3043475000000058
        },
        {
          "name": "E3",
          "midi": 52,
          "time": 297.39122999999967,
          "velocity": 1,
          "duration": 1.3043475000000058
        },
        {
          "name": "A2",
          "midi": 45,
          "time": 297.39122999999967,
          "velocity": 1,
          "duration": 1.3043475000000058
        },
        {
          "name": "F#4",
          "midi": 66,
          "time": 298.6955774999997,
          "velocity": 1,
          "duration": 0.434782499999983
        },
        {
          "name": "D4",
          "midi": 62,
          "time": 298.6955774999997,
          "velocity": 1,
          "duration": 0.434782499999983
        },
        {
          "name": "A3",
          "midi": 57,
          "time": 298.6955774999997,
          "velocity": 1,
          "duration": 0.434782499999983
        },
        {
          "name": "D3",
          "midi": 50,
          "time": 298.6955774999997,
          "velocity": 1,
          "duration": 0.434782499999983
        },
        {
          "name": "D3",
          "midi": 50,
          "time": 299.13035999999965,
          "velocity": 1,
          "duration": 0.2173912499999915
        },
        {
          "name": "A3",
          "midi": 57,
          "time": 299.13035999999965,
          "velocity": 1,
          "duration": 0.2173912499999915
        },
        {
          "name": "D4",
          "midi": 62,
          "time": 299.13035999999965,
          "velocity": 1,
          "duration": 0.2173912499999915
        },
        {
          "name": "F#4",
          "midi": 66,
          "time": 299.13035999999965,
          "velocity": 1,
          "duration": 0.2173912499999915
        },
        {
          "name": "F#4",
          "midi": 66,
          "time": 299.34775124999965,
          "velocity": 1,
          "duration": 0.2173912499999915
        },
        {
          "name": "D4",
          "midi": 62,
          "time": 299.34775124999965,
          "velocity": 1,
          "duration": 0.2173912499999915
        },
        {
          "name": "A3",
          "midi": 57,
          "time": 299.34775124999965,
          "velocity": 1,
          "duration": 0.2173912499999915
        },
        {
          "name": "D3",
          "midi": 50,
          "time": 299.34775124999965,
          "velocity": 1,
          "duration": 0.2173912499999915
        },
        {
          "name": "F#4",
          "midi": 66,
          "time": 299.56514249999964,
          "velocity": 1,
          "duration": 0.434782499999983
        },
        {
          "name": "D4",
          "midi": 62,
          "time": 299.56514249999964,
          "velocity": 1,
          "duration": 0.434782499999983
        },
        {
          "name": "A3",
          "midi": 57,
          "time": 299.56514249999964,
          "velocity": 1,
          "duration": 0.434782499999983
        },
        {
          "name": "D3",
          "midi": 50,
          "time": 299.56514249999964,
          "velocity": 1,
          "duration": 0.434782499999983
        },
        {
          "name": "E4",
          "midi": 64,
          "time": 299.9999249999996,
          "velocity": 1,
          "duration": 2.6086950000000115
        },
        {
          "name": "B3",
          "midi": 59,
          "time": 299.9999249999996,
          "velocity": 1,
          "duration": 2.6086950000000115
        },
        {
          "name": "G3",
          "midi": 55,
          "time": 299.9999249999996,
          "velocity": 1,
          "duration": 2.6086950000000115
        },
        {
          "name": "E3",
          "midi": 52,
          "time": 299.9999249999996,
          "velocity": 1,
          "duration": 2.6086950000000115
        },
        {
          "name": "B2",
          "midi": 47,
          "time": 299.9999249999996,
          "velocity": 1,
          "duration": 2.6086950000000115
        },
        {
          "name": "E2",
          "midi": 40,
          "time": 299.9999249999996,
          "velocity": 1,
          "duration": 2.6086950000000115
        }
      ],
      "controlChanges": {
        "7": [
          {
            "number": 7,
            "time": 0,
            "value": 0.7795275590551181
          }
        ]
      },
      "id": 7,
      "name": "Guitar 6",
      "instrumentNumber": 26,
      "instrument": "electric guitar (jazz)",
      "instrumentFamily": "guitar",
      "channelNumber": 6,
      "isPercussion": false
    },
    {
      "startTime": 61.304332499999994,
      "duration": 326.0868749999997,
      "length": 908,
      "notes": [
        {
          "name": "C2",
          "midi": 36,
          "time": 61.304332499999994,
          "velocity": 1,
          "duration": 1.3043474999999987
        },
        {
          "name": "A3",
          "midi": 57,
          "time": 61.304332499999994,
          "velocity": 1,
          "duration": 1.3043474999999987
        },
        {
          "name": "D2",
          "midi": 38,
          "time": 62.60867999999999,
          "velocity": 1,
          "duration": 0.8695650000000015
        },
        {
          "name": "F#2",
          "midi": 42,
          "time": 62.60867999999999,
          "velocity": 1,
          "duration": 0.8695650000000015
        },
        {
          "name": "F#2",
          "midi": 42,
          "time": 63.478244999999994,
          "velocity": 1,
          "duration": 0.4347824999999972
        },
        {
          "name": "C2",
          "midi": 36,
          "time": 63.91302749999999,
          "velocity": 1,
          "duration": 1.3043474999999987
        },
        {
          "name": "F#2",
          "midi": 42,
          "time": 63.91302749999999,
          "velocity": 1,
          "duration": 0.4347825000000043
        },
        {
          "name": "F#2",
          "midi": 42,
          "time": 64.34781,
          "velocity": 1,
          "duration": 0.4347824999999972
        },
        {
          "name": "F#2",
          "midi": 42,
          "time": 64.78259249999999,
          "velocity": 1,
          "duration": 0.4347824999999972
        },
        {
          "name": "D2",
          "midi": 38,
          "time": 65.21737499999999,
          "velocity": 1,
          "duration": 0.4347824999999972
        },
        {
          "name": "F#2",
          "midi": 42,
          "time": 65.21737499999999,
          "velocity": 1,
          "duration": 0.4347824999999972
        },
        {
          "name": "F#2",
          "midi": 42,
          "time": 65.65215749999999,
          "velocity": 1,
          "duration": 0.4347824999999972
        },
        {
          "name": "C2",
          "midi": 36,
          "time": 66.08693999999998,
          "velocity": 1,
          "duration": 0.4347824999999972
        },
        {
          "name": "F#2",
          "midi": 42,
          "time": 66.08693999999998,
          "velocity": 1,
          "duration": 0.4347824999999972
        },
        {
          "name": "C2",
          "midi": 36,
          "time": 66.52172249999998,
          "velocity": 1,
          "duration": 1.3043474999999916
        },
        {
          "name": "F#2",
          "midi": 42,
          "time": 66.52172249999998,
          "velocity": 1,
          "duration": 0.4347824999999972
        },
        {
          "name": "F#2",
          "midi": 42,
          "time": 66.95650499999998,
          "velocity": 1,
          "duration": 0.4347824999999972
        },
        {
          "name": "F#2",
          "midi": 42,
          "time": 67.39128749999998,
          "velocity": 1,
          "duration": 0.4347824999999972
        },
        {
          "name": "D2",
          "midi": 38,
          "time": 67.82606999999997,
          "velocity": 1,
          "duration": 0.4347824999999972
        },
        {
          "name": "F#2",
          "midi": 42,
          "time": 67.82606999999997,
          "velocity": 1,
          "duration": 0.4347824999999972
        },
        {
          "name": "F#2",
          "midi": 42,
          "time": 68.26085249999997,
          "velocity": 1,
          "duration": 0.4347824999999972
        },
        {
          "name": "F#2",
          "midi": 42,
          "time": 68.69563499999997,
          "velocity": 1,
          "duration": 0.4347824999999972
        },
        {
          "name": "C2",
          "midi": 36,
          "time": 69.13041749999996,
          "velocity": 1,
          "duration": 1.3043474999999916
        },
        {
          "name": "F#2",
          "midi": 42,
          "time": 69.13041749999996,
          "velocity": 1,
          "duration": 0.4347824999999972
        },
        {
          "name": "F#2",
          "midi": 42,
          "time": 69.56519999999996,
          "velocity": 1,
          "duration": 0.4347824999999972
        },
        {
          "name": "F#2",
          "midi": 42,
          "time": 69.99998249999996,
          "velocity": 1,
          "duration": 0.4347824999999972
        },
        {
          "name": "D2",
          "midi": 38,
          "time": 70.43476499999996,
          "velocity": 1,
          "duration": 0.4347824999999972
        },
        {
          "name": "F#2",
          "midi": 42,
          "time": 70.43476499999996,
          "velocity": 1,
          "duration": 0.4347824999999972
        },
        {
          "name": "F#2",
          "midi": 42,
          "time": 70.86954749999995,
          "velocity": 1,
          "duration": 0.4347824999999972
        },
        {
          "name": "C2",
          "midi": 36,
          "time": 71.30432999999995,
          "velocity": 1,
          "duration": 0.4347824999999972
        },
        {
          "name": "F#2",
          "midi": 42,
          "time": 71.30432999999995,
          "velocity": 1,
          "duration": 0.4347824999999972
        },
        {
          "name": "C2",
          "midi": 36,
          "time": 71.73911249999995,
          "velocity": 1,
          "duration": 1.3043474999999916
        },
        {
          "name": "F#2",
          "midi": 42,
          "time": 71.73911249999995,
          "velocity": 1,
          "duration": 0.4347824999999972
        },
        {
          "name": "F#2",
          "midi": 42,
          "time": 72.17389499999994,
          "velocity": 1,
          "duration": 0.4347824999999972
        },
        {
          "name": "F#2",
          "midi": 42,
          "time": 72.60867749999994,
          "velocity": 1,
          "duration": 0.4347824999999972
        },
        {
          "name": "D2",
          "midi": 38,
          "time": 73.04345999999994,
          "velocity": 1,
          "duration": 0.4347824999999972
        },
        {
          "name": "F#2",
          "midi": 42,
          "time": 73.04345999999994,
          "velocity": 1,
          "duration": 0.4347824999999972
        },
        {
          "name": "F#2",
          "midi": 42,
          "time": 73.47824249999994,
          "velocity": 1,
          "duration": 0.4347824999999972
        },
        {
          "name": "F#2",
          "midi": 42,
          "time": 73.91302499999993,
          "velocity": 1,
          "duration": 0.4347824999999972
        },
        {
          "name": "C2",
          "midi": 36,
          "time": 74.34780749999993,
          "velocity": 1,
          "duration": 1.3043474999999916
        },
        {
          "name": "F#2",
          "midi": 42,
          "time": 74.34780749999993,
          "velocity": 1,
          "duration": 0.4347824999999972
        },
        {
          "name": "F#2",
          "midi": 42,
          "time": 74.78258999999993,
          "velocity": 1,
          "duration": 0.4347824999999972
        },
        {
          "name": "F#2",
          "midi": 42,
          "time": 75.21737249999993,
          "velocity": 1,
          "duration": 0.4347824999999972
        },
        {
          "name": "D2",
          "midi": 38,
          "time": 75.65215499999992,
          "velocity": 1,
          "duration": 0.4347824999999972
        },
        {
          "name": "F#2",
          "midi": 42,
          "time": 75.65215499999992,
          "velocity": 1,
          "duration": 0.4347824999999972
        },
        {
          "name": "F#2",
          "midi": 42,
          "time": 76.08693749999992,
          "velocity": 1,
          "duration": 0.4347824999999972
        },
        {
          "name": "C2",
          "midi": 36,
          "time": 76.52171999999992,
          "velocity": 1,
          "duration": 0.2173912500000057
        },
        {
          "name": "F#2",
          "midi": 42,
          "time": 76.52171999999992,
          "velocity": 1,
          "duration": 0.4347825000000114
        },
        {
          "name": "C2",
          "midi": 36,
          "time": 76.95650249999993,
          "velocity": 1,
          "duration": 1.3043474999999916
        },
        {
          "name": "F#2",
          "midi": 42,
          "time": 76.95650249999993,
          "velocity": 1,
          "duration": 0.4347824999999972
        },
        {
          "name": "F#2",
          "midi": 42,
          "time": 77.39128499999993,
          "velocity": 1,
          "duration": 0.4347824999999972
        },
        {
          "name": "F#2",
          "midi": 42,
          "time": 77.82606749999992,
          "velocity": 1,
          "duration": 0.4347824999999972
        },
        {
          "name": "D2",
          "midi": 38,
          "time": 78.26084999999992,
          "velocity": 1,
          "duration": 0.4347824999999972
        },
        {
          "name": "F#2",
          "midi": 42,
          "time": 78.26084999999992,
          "velocity": 1,
          "duration": 0.4347824999999972
        },
        {
          "name": "F#2",
          "midi": 42,
          "time": 78.69563249999992,
          "velocity": 1,
          "duration": 0.4347824999999972
        },
        {
          "name": "F#2",
          "midi": 42,
          "time": 79.13041499999991,
          "velocity": 1,
          "duration": 0.4347824999999972
        },
        {
          "name": "A3",
          "midi": 57,
          "time": 79.56519749999991,
          "velocity": 1,
          "duration": 0.4347824999999972
        },
        {
          "name": "C2",
          "midi": 36,
          "time": 79.56519749999991,
          "velocity": 1,
          "duration": 1.3043474999999916
        },
        {
          "name": "F#2",
          "midi": 42,
          "time": 79.99997999999991,
          "velocity": 1,
          "duration": 0.4347824999999972
        },
        {
          "name": "F#2",
          "midi": 42,
          "time": 80.4347624999999,
          "velocity": 1,
          "duration": 0.4347824999999972
        },
        {
          "name": "D2",
          "midi": 38,
          "time": 80.8695449999999,
          "velocity": 1,
          "duration": 0.4347824999999972
        },
        {
          "name": "F#2",
          "midi": 42,
          "time": 80.8695449999999,
          "velocity": 1,
          "duration": 0.4347824999999972
        },
        {
          "name": "F#2",
          "midi": 42,
          "time": 81.3043274999999,
          "velocity": 1,
          "duration": 0.4347824999999972
        },
        {
          "name": "F#2",
          "midi": 42,
          "time": 81.7391099999999,
          "velocity": 1,
          "duration": 0.4347824999999972
        },
        {
          "name": "C2",
          "midi": 36,
          "time": 82.1738924999999,
          "velocity": 1,
          "duration": 0.2173912500000057
        },
        {
          "name": "F#2",
          "midi": 42,
          "time": 82.1738924999999,
          "velocity": 1,
          "duration": 0.4347825000000114
        },
        {
          "name": "C2",
          "midi": 36,
          "time": 82.3912837499999,
          "velocity": 1,
          "duration": 0.4347825000000114
        },
        {
          "name": "F#2",
          "midi": 42,
          "time": 82.6086749999999,
          "velocity": 1,
          "duration": 0.4347825000000114
        },
        {
          "name": "C2",
          "midi": 36,
          "time": 82.82606624999991,
          "velocity": 1,
          "duration": 0.2173912500000057
        },
        {
          "name": "D2",
          "midi": 38,
          "time": 83.04345749999992,
          "velocity": 1,
          "duration": 0.4347824999999972
        },
        {
          "name": "F#2",
          "midi": 42,
          "time": 83.04345749999992,
          "velocity": 1,
          "duration": 0.4347824999999972
        },
        {
          "name": "D2",
          "midi": 38,
          "time": 83.47823999999991,
          "velocity": 1,
          "duration": 0.4347824999999972
        },
        {
          "name": "F#2",
          "midi": 42,
          "time": 83.47823999999991,
          "velocity": 1,
          "duration": 0.4347824999999972
        },
        {
          "name": "F#2",
          "midi": 42,
          "time": 83.91302249999991,
          "velocity": 1,
          "duration": 0.4347824999999972
        },
        {
          "name": "C3",
          "midi": 48,
          "time": 84.34780499999991,
          "velocity": 1,
          "duration": 0.2173912500000057
        },
        {
          "name": "C3",
          "midi": 48,
          "time": 84.56519624999991,
          "velocity": 1,
          "duration": 0.2173912500000057
        },
        {
          "name": "C2",
          "midi": 36,
          "time": 84.78258749999992,
          "velocity": 1,
          "duration": 1.3043474999999916
        },
        {
          "name": "A3",
          "midi": 57,
          "time": 84.78258749999992,
          "velocity": 1,
          "duration": 0.4347824999999972
        },
        {
          "name": "F#2",
          "midi": 42,
          "time": 85.21736999999992,
          "velocity": 1,
          "duration": 0.4347824999999972
        },
        {
          "name": "F#2",
          "midi": 42,
          "time": 85.65215249999991,
          "velocity": 1,
          "duration": 0.4347824999999972
        },
        {
          "name": "D2",
          "midi": 38,
          "time": 86.08693499999991,
          "velocity": 1,
          "duration": 0.4347824999999972
        },
        {
          "name": "F#2",
          "midi": 42,
          "time": 86.08693499999991,
          "velocity": 1,
          "duration": 0.4347824999999972
        },
        {
          "name": "F#2",
          "midi": 42,
          "time": 86.52171749999991,
          "velocity": 1,
          "duration": 0.4347824999999972
        },
        {
          "name": "F#2",
          "midi": 42,
          "time": 86.9564999999999,
          "velocity": 1,
          "duration": 0.4347824999999972
        },
        {
          "name": "C2",
          "midi": 36,
          "time": 87.3912824999999,
          "velocity": 1,
          "duration": 1.3043474999999916
        },
        {
          "name": "F#2",
          "midi": 42,
          "time": 87.3912824999999,
          "velocity": 1,
          "duration": 0.4347824999999972
        },
        {
          "name": "F#2",
          "midi": 42,
          "time": 87.8260649999999,
          "velocity": 1,
          "duration": 0.4347824999999972
        },
        {
          "name": "F#2",
          "midi": 42,
          "time": 88.2608474999999,
          "velocity": 1,
          "duration": 0.4347824999999972
        },
        {
          "name": "D2",
          "midi": 38,
          "time": 88.6956299999999,
          "velocity": 1,
          "duration": 0.4347824999999972
        },
        {
          "name": "F#2",
          "midi": 42,
          "time": 88.6956299999999,
          "velocity": 1,
          "duration": 0.4347824999999972
        },
        {
          "name": "F#2",
          "midi": 42,
          "time": 89.13041249999989,
          "velocity": 1,
          "duration": 0.4347824999999972
        },
        {
          "name": "C2",
          "midi": 36,
          "time": 89.56519499999989,
          "velocity": 1,
          "duration": 0.4347824999999972
        },
        {
          "name": "F#2",
          "midi": 42,
          "time": 89.56519499999989,
          "velocity": 1,
          "duration": 0.4347824999999972
        },
        {
          "name": "C2",
          "midi": 36,
          "time": 89.99997749999989,
          "velocity": 1,
          "duration": 1.3043474999999916
        },
        {
          "name": "F#2",
          "midi": 42,
          "time": 89.99997749999989,
          "velocity": 1,
          "duration": 0.4347824999999972
        },
        {
          "name": "F#2",
          "midi": 42,
          "time": 90.43475999999988,
          "velocity": 1,
          "duration": 0.4347824999999972
        },
        {
          "name": "F#2",
          "midi": 42,
          "time": 90.86954249999988,
          "velocity": 1,
          "duration": 0.4347824999999972
        },
        {
          "name": "D2",
          "midi": 38,
          "time": 91.30432499999988,
          "velocity": 1,
          "duration": 0.4347824999999972
        },
        {
          "name": "F#2",
          "midi": 42,
          "time": 91.30432499999988,
          "velocity": 1,
          "duration": 0.4347824999999972
        },
        {
          "name": "F#2",
          "midi": 42,
          "time": 91.73910749999988,
          "velocity": 1,
          "duration": 0.4347824999999972
        },
        {
          "name": "F#2",
          "midi": 42,
          "time": 92.17388999999987,
          "velocity": 1,
          "duration": 0.4347824999999972
        },
        {
          "name": "C2",
          "midi": 36,
          "time": 92.60867249999987,
          "velocity": 1,
          "duration": 1.3043474999999916
        },
        {
          "name": "F#2",
          "midi": 42,
          "time": 92.60867249999987,
          "velocity": 1,
          "duration": 0.4347824999999972
        },
        {
          "name": "F#2",
          "midi": 42,
          "time": 93.04345499999987,
          "velocity": 1,
          "duration": 0.4347824999999972
        },
        {
          "name": "F#2",
          "midi": 42,
          "time": 93.47823749999986,
          "velocity": 1,
          "duration": 0.4347824999999972
        },
        {
          "name": "D2",
          "midi": 38,
          "time": 93.91301999999986,
          "velocity": 1,
          "duration": 0.4347824999999972
        },
        {
          "name": "F#2",
          "midi": 42,
          "time": 93.91301999999986,
          "velocity": 1,
          "duration": 0.4347824999999972
        },
        {
          "name": "F#2",
          "midi": 42,
          "time": 94.34780249999986,
          "velocity": 1,
          "duration": 0.4347824999999972
        },
        {
          "name": "C2",
          "midi": 36,
          "time": 94.78258499999986,
          "velocity": 1,
          "duration": 0.4347824999999972
        },
        {
          "name": "F#2",
          "midi": 42,
          "time": 94.78258499999986,
          "velocity": 1,
          "duration": 0.4347824999999972
        },
        {
          "name": "C2",
          "midi": 36,
          "time": 95.21736749999985,
          "velocity": 1,
          "duration": 1.3043474999999916
        },
        {
          "name": "F#2",
          "midi": 42,
          "time": 95.21736749999985,
          "velocity": 1,
          "duration": 0.4347824999999972
        },
        {
          "name": "F#2",
          "midi": 42,
          "time": 95.65214999999985,
          "velocity": 1,
          "duration": 0.4347824999999972
        },
        {
          "name": "F#2",
          "midi": 42,
          "time": 96.08693249999985,
          "velocity": 1,
          "duration": 0.4347824999999972
        },
        {
          "name": "D2",
          "midi": 38,
          "time": 96.52171499999984,
          "velocity": 1,
          "duration": 0.4347824999999972
        },
        {
          "name": "F#2",
          "midi": 42,
          "time": 96.52171499999984,
          "velocity": 1,
          "duration": 0.4347824999999972
        },
        {
          "name": "F#2",
          "midi": 42,
          "time": 96.95649749999984,
          "velocity": 1,
          "duration": 0.4347824999999972
        },
        {
          "name": "F#2",
          "midi": 42,
          "time": 97.39127999999984,
          "velocity": 1,
          "duration": 0.4347824999999972
        },
        {
          "name": "C2",
          "midi": 36,
          "time": 97.82606249999984,
          "velocity": 1,
          "duration": 1.3043474999999916
        },
        {
          "name": "F#2",
          "midi": 42,
          "time": 97.82606249999984,
          "velocity": 1,
          "duration": 0.4347824999999972
        },
        {
          "name": "F#2",
          "midi": 42,
          "time": 98.26084499999983,
          "velocity": 1,
          "duration": 0.4347824999999972
        },
        {
          "name": "F#2",
          "midi": 42,
          "time": 98.69562749999983,
          "velocity": 1,
          "duration": 0.4347824999999972
        },
        {
          "name": "D2",
          "midi": 38,
          "time": 99.13040999999983,
          "velocity": 1,
          "duration": 0.4347824999999972
        },
        {
          "name": "F#2",
          "midi": 42,
          "time": 99.13040999999983,
          "velocity": 1,
          "duration": 0.4347824999999972
        },
        {
          "name": "F#2",
          "midi": 42,
          "time": 99.56519249999982,
          "velocity": 1,
          "duration": 0.4347824999999972
        },
        {
          "name": "C2",
          "midi": 36,
          "time": 99.99997499999982,
          "velocity": 1,
          "duration": 0.2173912500000057
        },
        {
          "name": "F#2",
          "midi": 42,
          "time": 99.99997499999982,
          "velocity": 1,
          "duration": 0.4347825000000114
        },
        {
          "name": "C2",
          "midi": 36,
          "time": 100.43475749999983,
          "velocity": 1,
          "duration": 1.3043474999999916
        },
        {
          "name": "F#2",
          "midi": 42,
          "time": 100.43475749999983,
          "velocity": 1,
          "duration": 0.4347824999999972
        },
        {
          "name": "F#2",
          "midi": 42,
          "time": 100.86953999999983,
          "velocity": 1,
          "duration": 0.4347824999999972
        },
        {
          "name": "F#2",
          "midi": 42,
          "time": 101.30432249999983,
          "velocity": 1,
          "duration": 0.4347824999999972
        },
        {
          "name": "D2",
          "midi": 38,
          "time": 101.73910499999982,
          "velocity": 1,
          "duration": 0.4347824999999972
        },
        {
          "name": "F#2",
          "midi": 42,
          "time": 101.73910499999982,
          "velocity": 1,
          "duration": 0.4347824999999972
        },
        {
          "name": "F#2",
          "midi": 42,
          "time": 102.17388749999982,
          "velocity": 1,
          "duration": 0.4347824999999972
        },
        {
          "name": "F#2",
          "midi": 42,
          "time": 102.60866999999982,
          "velocity": 1,
          "duration": 0.4347824999999972
        },
        {
          "name": "C2",
          "midi": 36,
          "time": 103.04345249999982,
          "velocity": 1,
          "duration": 1.3043474999999916
        },
        {
          "name": "A3",
          "midi": 57,
          "time": 103.04345249999982,
          "velocity": 1,
          "duration": 0.4347824999999972
        },
        {
          "name": "F#2",
          "midi": 42,
          "time": 103.47823499999981,
          "velocity": 1,
          "duration": 0.4347824999999972
        },
        {
          "name": "F#2",
          "midi": 42,
          "time": 103.91301749999981,
          "velocity": 1,
          "duration": 0.4347824999999972
        },
        {
          "name": "D2",
          "midi": 38,
          "time": 104.34779999999981,
          "velocity": 1,
          "duration": 0.4347824999999972
        },
        {
          "name": "F#2",
          "midi": 42,
          "time": 104.34779999999981,
          "velocity": 1,
          "duration": 0.4347824999999972
        },
        {
          "name": "D2",
          "midi": 38,
          "time": 104.7825824999998,
          "velocity": 1,
          "duration": 0.4347824999999972
        },
        {
          "name": "F#2",
          "midi": 42,
          "time": 104.7825824999998,
          "velocity": 1,
          "duration": 0.4347824999999972
        },
        {
          "name": "C2",
          "midi": 36,
          "time": 105.2173649999998,
          "velocity": 1,
          "duration": 0.4347824999999972
        },
        {
          "name": "F#2",
          "midi": 42,
          "time": 105.2173649999998,
          "velocity": 1,
          "duration": 0.4347824999999972
        },
        {
          "name": "C2",
          "midi": 36,
          "time": 105.6521474999998,
          "velocity": 1,
          "duration": 0.2173912500000057
        },
        {
          "name": "F#2",
          "midi": 42,
          "time": 105.6521474999998,
          "velocity": 1,
          "duration": 0.4347825000000114
        },
        {
          "name": "C2",
          "midi": 36,
          "time": 105.8695387499998,
          "velocity": 1,
          "duration": 0.4347825000000114
        },
        {
          "name": "F#2",
          "midi": 42,
          "time": 106.08692999999981,
          "velocity": 1,
          "duration": 0.4347825000000114
        },
        {
          "name": "C2",
          "midi": 36,
          "time": 106.30432124999982,
          "velocity": 1,
          "duration": 0.2173912500000057
        },
        {
          "name": "D2",
          "midi": 38,
          "time": 106.52171249999982,
          "velocity": 1,
          "duration": 0.4347824999999972
        },
        {
          "name": "F#2",
          "midi": 42,
          "time": 106.52171249999982,
          "velocity": 1,
          "duration": 0.4347824999999972
        },
        {
          "name": "D2",
          "midi": 38,
          "time": 106.95649499999982,
          "velocity": 1,
          "duration": 0.4347824999999972
        },
        {
          "name": "F#2",
          "midi": 42,
          "time": 106.95649499999982,
          "velocity": 1,
          "duration": 0.4347824999999972
        },
        {
          "name": "F#2",
          "midi": 42,
          "time": 107.39127749999982,
          "velocity": 1,
          "duration": 0.2173912500000057
        },
        {
          "name": "D2",
          "midi": 38,
          "time": 107.60866874999982,
          "velocity": 1,
          "duration": 0.2173912500000057
        },
        {
          "name": "D2",
          "midi": 38,
          "time": 107.82605999999983,
          "velocity": 1,
          "duration": 0.2173912500000057
        },
        {
          "name": "D2",
          "midi": 38,
          "time": 108.04345124999983,
          "velocity": 1,
          "duration": 0.2173912500000057
        },
        {
          "name": "C2",
          "midi": 36,
          "time": 108.26084249999984,
          "velocity": 1,
          "duration": 1.3043474999999916
        },
        {
          "name": "A3",
          "midi": 57,
          "time": 108.26084249999984,
          "velocity": 1,
          "duration": 0.4347824999999972
        },
        {
          "name": "F#2",
          "midi": 42,
          "time": 108.69562499999984,
          "velocity": 1,
          "duration": 0.4347824999999972
        },
        {
          "name": "F#2",
          "midi": 42,
          "time": 109.13040749999983,
          "velocity": 1,
          "duration": 0.4347824999999972
        },
        {
          "name": "D2",
          "midi": 38,
          "time": 109.56518999999983,
          "velocity": 1,
          "duration": 0.4347824999999972
        },
        {
          "name": "F#2",
          "midi": 42,
          "time": 109.56518999999983,
          "velocity": 1,
          "duration": 0.4347824999999972
        },
        {
          "name": "F#2",
          "midi": 42,
          "time": 109.99997249999983,
          "velocity": 1,
          "duration": 0.4347824999999972
        },
        {
          "name": "F#2",
          "midi": 42,
          "time": 110.43475499999983,
          "velocity": 1,
          "duration": 0.4347824999999972
        },
        {
          "name": "C2",
          "midi": 36,
          "time": 110.86953749999982,
          "velocity": 1,
          "duration": 1.3043474999999916
        },
        {
          "name": "F#2",
          "midi": 42,
          "time": 110.86953749999982,
          "velocity": 1,
          "duration": 0.4347824999999972
        },
        {
          "name": "F#2",
          "midi": 42,
          "time": 111.30431999999982,
          "velocity": 1,
          "duration": 0.4347824999999972
        },
        {
          "name": "F#2",
          "midi": 42,
          "time": 111.73910249999982,
          "velocity": 1,
          "duration": 0.4347824999999972
        },
        {
          "name": "D2",
          "midi": 38,
          "time": 112.17388499999981,
          "velocity": 1,
          "duration": 0.4347824999999972
        },
        {
          "name": "F#2",
          "midi": 42,
          "time": 112.17388499999981,
          "velocity": 1,
          "duration": 0.4347824999999972
        },
        {
          "name": "F#2",
          "midi": 42,
          "time": 112.60866749999981,
          "velocity": 1,
          "duration": 0.4347824999999972
        },
        {
          "name": "C2",
          "midi": 36,
          "time": 113.04344999999981,
          "velocity": 1,
          "duration": 0.4347824999999972
        },
        {
          "name": "A3",
          "midi": 57,
          "time": 113.04344999999981,
          "velocity": 1,
          "duration": 0.4347824999999972
        },
        {
          "name": "C2",
          "midi": 36,
          "time": 113.4782324999998,
          "velocity": 1,
          "duration": 1.3043474999999916
        },
        {
          "name": "A3",
          "midi": 57,
          "time": 113.4782324999998,
          "velocity": 1,
          "duration": 0.4347824999999972
        },
        {
          "name": "F#2",
          "midi": 42,
          "time": 113.9130149999998,
          "velocity": 1,
          "duration": 0.4347824999999972
        },
        {
          "name": "F#2",
          "midi": 42,
          "time": 114.3477974999998,
          "velocity": 1,
          "duration": 0.4347824999999972
        },
        {
          "name": "D2",
          "midi": 38,
          "time": 114.7825799999998,
          "velocity": 1,
          "duration": 0.4347824999999972
        },
        {
          "name": "F#2",
          "midi": 42,
          "time": 114.7825799999998,
          "velocity": 1,
          "duration": 0.4347824999999972
        },
        {
          "name": "F#2",
          "midi": 42,
          "time": 115.2173624999998,
          "velocity": 1,
          "duration": 0.4347824999999972
        },
        {
          "name": "F#2",
          "midi": 42,
          "time": 115.65214499999979,
          "velocity": 1,
          "duration": 0.4347824999999972
        },
        {
          "name": "C2",
          "midi": 36,
          "time": 116.08692749999979,
          "velocity": 1,
          "duration": 1.3043474999999916
        },
        {
          "name": "F#2",
          "midi": 42,
          "time": 116.08692749999979,
          "velocity": 1,
          "duration": 0.4347824999999972
        },
        {
          "name": "F#2",
          "midi": 42,
          "time": 116.52170999999979,
          "velocity": 1,
          "duration": 0.4347824999999972
        },
        {
          "name": "F#2",
          "midi": 42,
          "time": 116.95649249999978,
          "velocity": 1,
          "duration": 0.4347824999999972
        },
        {
          "name": "D2",
          "midi": 38,
          "time": 117.39127499999978,
          "velocity": 1,
          "duration": 0.4347824999999972
        },
        {
          "name": "F#2",
          "midi": 42,
          "time": 117.39127499999978,
          "velocity": 1,
          "duration": 0.4347824999999972
        },
        {
          "name": "F#2",
          "midi": 42,
          "time": 117.82605749999978,
          "velocity": 1,
          "duration": 0.4347824999999972
        },
        {
          "name": "C2",
          "midi": 36,
          "time": 118.26083999999977,
          "velocity": 1,
          "duration": 0.4347824999999972
        },
        {
          "name": "A3",
          "midi": 57,
          "time": 118.26083999999977,
          "velocity": 1,
          "duration": 0.4347824999999972
        },
        {
          "name": "A3",
          "midi": 57,
          "time": 118.69562249999977,
          "velocity": 1,
          "duration": 0.4347824999999972
        },
        {
          "name": "C2",
          "midi": 36,
          "time": 118.69562249999977,
          "velocity": 1,
          "duration": 1.3043474999999916
        },
        {
          "name": "F#2",
          "midi": 42,
          "time": 119.13040499999977,
          "velocity": 1,
          "duration": 0.4347824999999972
        },
        {
          "name": "F#2",
          "midi": 42,
          "time": 119.56518749999977,
          "velocity": 1,
          "duration": 0.4347824999999972
        },
        {
          "name": "D2",
          "midi": 38,
          "time": 119.99996999999976,
          "velocity": 1,
          "duration": 0.4347824999999972
        },
        {
          "name": "F#2",
          "midi": 42,
          "time": 119.99996999999976,
          "velocity": 1,
          "duration": 0.4347824999999972
        },
        {
          "name": "F#2",
          "midi": 42,
          "time": 120.43475249999976,
          "velocity": 1,
          "duration": 0.4347824999999972
        },
        {
          "name": "F#2",
          "midi": 42,
          "time": 120.86953499999976,
          "velocity": 1,
          "duration": 0.4347824999999972
        },
        {
          "name": "F#2",
          "midi": 42,
          "time": 121.30431749999975,
          "velocity": 1,
          "duration": 0.4347824999999972
        },
        {
          "name": "C2",
          "midi": 36,
          "time": 121.30431749999975,
          "velocity": 1,
          "duration": 1.3043474999999916
        },
        {
          "name": "F#2",
          "midi": 42,
          "time": 121.73909999999975,
          "velocity": 1,
          "duration": 0.4347824999999972
        },
        {
          "name": "F#2",
          "midi": 42,
          "time": 122.17388249999975,
          "velocity": 1,
          "duration": 0.4347824999999972
        },
        {
          "name": "D2",
          "midi": 38,
          "time": 122.60866499999975,
          "velocity": 1,
          "duration": 0.4347824999999972
        },
        {
          "name": "F#2",
          "midi": 42,
          "time": 122.60866499999975,
          "velocity": 1,
          "duration": 0.4347824999999972
        },
        {
          "name": "F#2",
          "midi": 42,
          "time": 123.04344749999974,
          "velocity": 1,
          "duration": 0.4347824999999972
        },
        {
          "name": "A3",
          "midi": 57,
          "time": 123.47822999999974,
          "velocity": 1,
          "duration": 0.4347824999999972
        },
        {
          "name": "C2",
          "midi": 36,
          "time": 123.47822999999974,
          "velocity": 1,
          "duration": 0.4347824999999972
        },
        {
          "name": "C2",
          "midi": 36,
          "time": 123.91301249999974,
          "velocity": 1,
          "duration": 1.3043474999999916
        },
        {
          "name": "A3",
          "midi": 57,
          "time": 123.91301249999974,
          "velocity": 1,
          "duration": 0.4347824999999972
        },
        {
          "name": "F#2",
          "midi": 42,
          "time": 124.34779499999973,
          "velocity": 1,
          "duration": 0.4347824999999972
        },
        {
          "name": "F#2",
          "midi": 42,
          "time": 124.78257749999973,
          "velocity": 1,
          "duration": 0.4347824999999972
        },
        {
          "name": "D2",
          "midi": 38,
          "time": 125.21735999999973,
          "velocity": 1,
          "duration": 0.4347824999999972
        },
        {
          "name": "F#2",
          "midi": 42,
          "time": 125.21735999999973,
          "velocity": 1,
          "duration": 0.4347824999999972
        },
        {
          "name": "F#2",
          "midi": 42,
          "time": 125.65214249999973,
          "velocity": 1,
          "duration": 0.4347824999999972
        },
        {
          "name": "F#2",
          "midi": 42,
          "time": 126.08692499999972,
          "velocity": 1,
          "duration": 0.4347824999999972
        },
        {
          "name": "C2",
          "midi": 36,
          "time": 126.52170749999972,
          "velocity": 1,
          "duration": 1.3043474999999916
        },
        {
          "name": "A3",
          "midi": 57,
          "time": 126.52170749999972,
          "velocity": 1,
          "duration": 0.4347824999999972
        },
        {
          "name": "F#2",
          "midi": 42,
          "time": 126.95648999999972,
          "velocity": 1,
          "duration": 0.4347824999999972
        },
        {
          "name": "F#2",
          "midi": 42,
          "time": 127.39127249999972,
          "velocity": 1,
          "duration": 0.4347824999999972
        },
        {
          "name": "D2",
          "midi": 38,
          "time": 127.82605499999971,
          "velocity": 1,
          "duration": 0.4347825000000114
        },
        {
          "name": "F#2",
          "midi": 42,
          "time": 127.82605499999971,
          "velocity": 1,
          "duration": 0.4347825000000114
        },
        {
          "name": "F#2",
          "midi": 42,
          "time": 128.26083749999972,
          "velocity": 1,
          "duration": 0.4347825000000114
        },
        {
          "name": "F#2",
          "midi": 42,
          "time": 128.69561999999974,
          "velocity": 1,
          "duration": 0.4347825000000114
        },
        {
          "name": "A3",
          "midi": 57,
          "time": 129.13040249999975,
          "velocity": 1,
          "duration": 0.4347825000000114
        },
        {
          "name": "C2",
          "midi": 36,
          "time": 129.13040249999975,
          "velocity": 1,
          "duration": 1.3043475000000342
        },
        {
          "name": "F#2",
          "midi": 42,
          "time": 129.56518499999976,
          "velocity": 1,
          "duration": 0.4347825000000114
        },
        {
          "name": "F#2",
          "midi": 42,
          "time": 129.99996749999977,
          "velocity": 1,
          "duration": 0.4347825000000114
        },
        {
          "name": "A3",
          "midi": 57,
          "time": 130.43474999999978,
          "velocity": 1,
          "duration": 0.4347825000000114
        },
        {
          "name": "D2",
          "midi": 38,
          "time": 130.43474999999978,
          "velocity": 1,
          "duration": 0.4347825000000114
        },
        {
          "name": "F#2",
          "midi": 42,
          "time": 130.8695324999998,
          "velocity": 1,
          "duration": 0.4347825000000114
        },
        {
          "name": "F#2",
          "midi": 42,
          "time": 131.3043149999998,
          "velocity": 1,
          "duration": 0.4347825000000114
        },
        {
          "name": "C2",
          "midi": 36,
          "time": 131.73909749999981,
          "velocity": 1,
          "duration": 1.3043475000000342
        },
        {
          "name": "A3",
          "midi": 57,
          "time": 131.73909749999981,
          "velocity": 1,
          "duration": 0.4347825000000114
        },
        {
          "name": "A2",
          "midi": 45,
          "time": 132.17387999999983,
          "velocity": 1,
          "duration": 0.4347825000000114
        },
        {
          "name": "F#2",
          "midi": 42,
          "time": 132.17387999999983,
          "velocity": 1,
          "duration": 0.4347825000000114
        },
        {
          "name": "F#2",
          "midi": 42,
          "time": 132.60866249999984,
          "velocity": 1,
          "duration": 0.4347825000000114
        },
        {
          "name": "C2",
          "midi": 36,
          "time": 133.04344499999985,
          "velocity": 1,
          "duration": 1.3043475000000342
        },
        {
          "name": "F#2",
          "midi": 42,
          "time": 133.04344499999985,
          "velocity": 1,
          "duration": 0.4347825000000114
        },
        {
          "name": "F#2",
          "midi": 42,
          "time": 133.47822749999986,
          "velocity": 1,
          "duration": 0.4347825000000114
        },
        {
          "name": "A2",
          "midi": 45,
          "time": 133.47822749999986,
          "velocity": 1,
          "duration": 0.4347825000000114
        },
        {
          "name": "F#2",
          "midi": 42,
          "time": 133.91300999999987,
          "velocity": 1,
          "duration": 0.4347825000000114
        },
        {
          "name": "C2",
          "midi": 36,
          "time": 134.34779249999988,
          "velocity": 1,
          "duration": 1.3043475000000058
        },
        {
          "name": "A3",
          "midi": 57,
          "time": 134.34779249999988,
          "velocity": 1,
          "duration": 0.8695649999999944
        },
        {
          "name": "F#2",
          "midi": 42,
          "time": 135.21735749999988,
          "velocity": 1,
          "duration": 0.4347825000000114
        },
        {
          "name": "A3",
          "midi": 57,
          "time": 135.6521399999999,
          "velocity": 1,
          "duration": 0.4347825000000114
        },
        {
          "name": "D2",
          "midi": 38,
          "time": 135.6521399999999,
          "velocity": 1,
          "duration": 0.4347825000000114
        },
        {
          "name": "F#2",
          "midi": 42,
          "time": 136.0869224999999,
          "velocity": 1,
          "duration": 0.4347825000000114
        },
        {
          "name": "F#2",
          "midi": 42,
          "time": 136.5217049999999,
          "velocity": 1,
          "duration": 0.4347825000000114
        },
        {
          "name": "C2",
          "midi": 36,
          "time": 136.95648749999992,
          "velocity": 1,
          "duration": 1.3043475000000342
        },
        {
          "name": "A3",
          "midi": 57,
          "time": 136.95648749999992,
          "velocity": 1,
          "duration": 0.4347825000000114
        },
        {
          "name": "A2",
          "midi": 45,
          "time": 137.39126999999993,
          "velocity": 1,
          "duration": 0.4347825000000114
        },
        {
          "name": "F#2",
          "midi": 42,
          "time": 137.39126999999993,
          "velocity": 1,
          "duration": 0.4347825000000114
        },
        {
          "name": "F#2",
          "midi": 42,
          "time": 137.82605249999995,
          "velocity": 1,
          "duration": 0.4347825000000114
        },
        {
          "name": "C2",
          "midi": 36,
          "time": 138.26083499999996,
          "velocity": 1,
          "duration": 1.3043475000000342
        },
        {
          "name": "F#2",
          "midi": 42,
          "time": 138.26083499999996,
          "velocity": 1,
          "duration": 0.4347825000000114
        },
        {
          "name": "F#2",
          "midi": 42,
          "time": 138.69561749999997,
          "velocity": 1,
          "duration": 0.4347825000000114
        },
        {
          "name": "A2",
          "midi": 45,
          "time": 138.69561749999997,
          "velocity": 1,
          "duration": 0.4347825000000114
        },
        {
          "name": "F#2",
          "midi": 42,
          "time": 139.13039999999998,
          "velocity": 1,
          "duration": 0.4347825000000114
        },
        {
          "name": "C2",
          "midi": 36,
          "time": 139.5651825,
          "velocity": 1,
          "duration": 1.3043475000000342
        },
        {
          "name": "A3",
          "midi": 57,
          "time": 139.5651825,
          "velocity": 1,
          "duration": 0.4347825000000114
        },
        {
          "name": "F#2",
          "midi": 42,
          "time": 139.999965,
          "velocity": 1,
          "duration": 0.4347825000000114
        },
        {
          "name": "F#2",
          "midi": 42,
          "time": 140.43474750000001,
          "velocity": 1,
          "duration": 0.4347825000000114
        },
        {
          "name": "A3",
          "midi": 57,
          "time": 140.86953000000003,
          "velocity": 1,
          "duration": 0.4347825000000114
        },
        {
          "name": "D2",
          "midi": 38,
          "time": 140.86953000000003,
          "velocity": 1,
          "duration": 0.4347825000000114
        },
        {
          "name": "F#2",
          "midi": 42,
          "time": 141.30431250000004,
          "velocity": 1,
          "duration": 0.4347825000000114
        },
        {
          "name": "F#2",
          "midi": 42,
          "time": 141.73909500000005,
          "velocity": 1,
          "duration": 0.4347825000000114
        },
        {
          "name": "A3",
          "midi": 57,
          "time": 142.17387750000006,
          "velocity": 1,
          "duration": 0.4347825000000114
        },
        {
          "name": "C2",
          "midi": 36,
          "time": 142.17387750000006,
          "velocity": 1,
          "duration": 1.3043475000000342
        },
        {
          "name": "F#2",
          "midi": 42,
          "time": 142.60866000000007,
          "velocity": 1,
          "duration": 0.4347825000000114
        },
        {
          "name": "F#2",
          "midi": 42,
          "time": 143.04344250000008,
          "velocity": 1,
          "duration": 0.4347825000000114
        },
        {
          "name": "C2",
          "midi": 36,
          "time": 143.4782250000001,
          "velocity": 1,
          "duration": 1.3043475000000342
        },
        {
          "name": "A3",
          "midi": 57,
          "time": 143.4782250000001,
          "velocity": 1,
          "duration": 0.4347825000000114
        },
        {
          "name": "F#2",
          "midi": 42,
          "time": 143.9130075000001,
          "velocity": 1,
          "duration": 0.4347825000000114
        },
        {
          "name": "F#2",
          "midi": 42,
          "time": 144.34779000000012,
          "velocity": 1,
          "duration": 0.4347825000000114
        },
        {
          "name": "D2",
          "midi": 38,
          "time": 144.78257250000013,
          "velocity": 1,
          "duration": 0.4347825000000114
        },
        {
          "name": "F#2",
          "midi": 42,
          "time": 144.78257250000013,
          "velocity": 1,
          "duration": 0.4347825000000114
        },
        {
          "name": "F#2",
          "midi": 42,
          "time": 145.21735500000014,
          "velocity": 1,
          "duration": 0.2173912499999915
        },
        {
          "name": "D2",
          "midi": 38,
          "time": 145.43474625000013,
          "velocity": 1,
          "duration": 0.2173912499999915
        },
        {
          "name": "D2",
          "midi": 38,
          "time": 145.65213750000012,
          "velocity": 1,
          "duration": 0.2173912499999915
        },
        {
          "name": "D2",
          "midi": 38,
          "time": 145.86952875000011,
          "velocity": 1,
          "duration": 0.2173912499999915
        },
        {
          "name": "C2",
          "midi": 36,
          "time": 146.0869200000001,
          "velocity": 1,
          "duration": 0.4347825000000114
        },
        {
          "name": "F#2",
          "midi": 42,
          "time": 146.0869200000001,
          "velocity": 1,
          "duration": 0.4347825000000114
        },
        {
          "name": "F#2",
          "midi": 42,
          "time": 146.52170250000012,
          "velocity": 1,
          "duration": 0.2173912499999915
        },
        {
          "name": "C2",
          "midi": 36,
          "time": 146.52170250000012,
          "velocity": 1,
          "duration": 0.434782499999983
        },
        {
          "name": "D2",
          "midi": 38,
          "time": 146.7390937500001,
          "velocity": 1,
          "duration": 0.2173912499999915
        },
        {
          "name": "D2",
          "midi": 38,
          "time": 146.9564850000001,
          "velocity": 1,
          "duration": 0.2173912499999915
        },
        {
          "name": "D2",
          "midi": 38,
          "time": 147.1738762500001,
          "velocity": 1,
          "duration": 0.2173912499999915
        },
        {
          "name": "C3",
          "midi": 48,
          "time": 147.39126750000008,
          "velocity": 1,
          "duration": 0.4347825000000114
        },
        {
          "name": "B2",
          "midi": 47,
          "time": 147.39126750000008,
          "velocity": 1,
          "duration": 0.4347825000000114
        },
        {
          "name": "C2",
          "midi": 36,
          "time": 147.39126750000008,
          "velocity": 1,
          "duration": 1.3043474999999773
        },
        {
          "name": "C3",
          "midi": 48,
          "time": 147.8260500000001,
          "velocity": 1,
          "duration": 0.2173912499999915
        },
        {
          "name": "B2",
          "midi": 47,
          "time": 147.8260500000001,
          "velocity": 1,
          "duration": 0.2173912499999915
        },
        {
          "name": "D2",
          "midi": 38,
          "time": 148.0434412500001,
          "velocity": 1,
          "duration": 0.2173912499999915
        },
        {
          "name": "D2",
          "midi": 38,
          "time": 148.26083250000008,
          "velocity": 1,
          "duration": 0.2173912499999915
        },
        {
          "name": "D2",
          "midi": 38,
          "time": 148.47822375000007,
          "velocity": 1,
          "duration": 0.2173912499999915
        },
        {
          "name": "C2",
          "midi": 36,
          "time": 148.69561500000006,
          "velocity": 1,
          "duration": 1.3043475000000342
        },
        {
          "name": "A3",
          "midi": 57,
          "time": 148.69561500000006,
          "velocity": 1,
          "duration": 0.4347825000000114
        },
        {
          "name": "F#2",
          "midi": 42,
          "time": 149.13039750000007,
          "velocity": 1,
          "duration": 0.4347825000000114
        },
        {
          "name": "F#2",
          "midi": 42,
          "time": 149.56518000000008,
          "velocity": 1,
          "duration": 0.4347825000000114
        },
        {
          "name": "D2",
          "midi": 38,
          "time": 149.9999625000001,
          "velocity": 1,
          "duration": 0.4347825000000114
        },
        {
          "name": "F#2",
          "midi": 42,
          "time": 149.9999625000001,
          "velocity": 1,
          "duration": 0.4347825000000114
        },
        {
          "name": "F#2",
          "midi": 42,
          "time": 150.4347450000001,
          "velocity": 1,
          "duration": 0.4347825000000114
        },
        {
          "name": "F#2",
          "midi": 42,
          "time": 150.86952750000012,
          "velocity": 1,
          "duration": 0.4347825000000114
        },
        {
          "name": "C2",
          "midi": 36,
          "time": 151.30431000000013,
          "velocity": 1,
          "duration": 1.3043475000000342
        },
        {
          "name": "F#2",
          "midi": 42,
          "time": 151.30431000000013,
          "velocity": 1,
          "duration": 0.4347825000000114
        },
        {
          "name": "F#2",
          "midi": 42,
          "time": 151.73909250000014,
          "velocity": 1,
          "duration": 0.4347825000000114
        },
        {
          "name": "F#2",
          "midi": 42,
          "time": 152.17387500000015,
          "velocity": 1,
          "duration": 0.4347825000000114
        },
        {
          "name": "D2",
          "midi": 38,
          "time": 152.60865750000016,
          "velocity": 1,
          "duration": 0.4347825000000114
        },
        {
          "name": "F#2",
          "midi": 42,
          "time": 152.60865750000016,
          "velocity": 1,
          "duration": 0.4347825000000114
        },
        {
          "name": "F#2",
          "midi": 42,
          "time": 153.04344000000017,
          "velocity": 1,
          "duration": 0.4347825000000114
        },
        {
          "name": "C2",
          "midi": 36,
          "time": 153.4782225000002,
          "velocity": 1,
          "duration": 0.4347825000000114
        },
        {
          "name": "F#2",
          "midi": 42,
          "time": 153.4782225000002,
          "velocity": 1,
          "duration": 0.4347825000000114
        },
        {
          "name": "F#2",
          "midi": 42,
          "time": 153.9130050000002,
          "velocity": 1,
          "duration": 0.4347825000000114
        },
        {
          "name": "C2",
          "midi": 36,
          "time": 153.9130050000002,
          "velocity": 1,
          "duration": 1.3043475000000342
        },
        {
          "name": "F#2",
          "midi": 42,
          "time": 154.3477875000002,
          "velocity": 1,
          "duration": 0.4347825000000114
        },
        {
          "name": "F#2",
          "midi": 42,
          "time": 154.78257000000022,
          "velocity": 1,
          "duration": 0.4347825000000114
        },
        {
          "name": "D2",
          "midi": 38,
          "time": 155.21735250000023,
          "velocity": 1,
          "duration": 0.4347825000000114
        },
        {
          "name": "F#2",
          "midi": 42,
          "time": 155.21735250000023,
          "velocity": 1,
          "duration": 0.4347825000000114
        },
        {
          "name": "F#2",
          "midi": 42,
          "time": 155.65213500000024,
          "velocity": 1,
          "duration": 0.4347825000000114
        },
        {
          "name": "F#2",
          "midi": 42,
          "time": 156.08691750000025,
          "velocity": 1,
          "duration": 0.4347825000000114
        },
        {
          "name": "C2",
          "midi": 36,
          "time": 156.52170000000027,
          "velocity": 1,
          "duration": 1.3043475000000342
        },
        {
          "name": "F#2",
          "midi": 42,
          "time": 156.52170000000027,
          "velocity": 1,
          "duration": 0.4347825000000114
        },
        {
          "name": "F#2",
          "midi": 42,
          "time": 156.95648250000028,
          "velocity": 1,
          "duration": 0.4347825000000114
        },
        {
          "name": "F#2",
          "midi": 42,
          "time": 157.3912650000003,
          "velocity": 1,
          "duration": 0.4347825000000114
        },
        {
          "name": "D2",
          "midi": 38,
          "time": 157.8260475000003,
          "velocity": 1,
          "duration": 0.4347825000000114
        },
        {
          "name": "F#2",
          "midi": 42,
          "time": 157.8260475000003,
          "velocity": 1,
          "duration": 0.4347825000000114
        },
        {
          "name": "F#2",
          "midi": 42,
          "time": 158.2608300000003,
          "velocity": 1,
          "duration": 0.4347825000000114
        },
        {
          "name": "C2",
          "midi": 36,
          "time": 158.69561250000032,
          "velocity": 1,
          "duration": 0.4347825000000114
        },
        {
          "name": "F#2",
          "midi": 42,
          "time": 158.69561250000032,
          "velocity": 1,
          "duration": 0.4347825000000114
        },
        {
          "name": "C2",
          "midi": 36,
          "time": 159.13039500000033,
          "velocity": 1,
          "duration": 1.3043475000000342
        },
        {
          "name": "F#2",
          "midi": 42,
          "time": 159.13039500000033,
          "velocity": 1,
          "duration": 0.4347825000000114
        },
        {
          "name": "F#2",
          "midi": 42,
          "time": 159.56517750000035,
          "velocity": 1,
          "duration": 0.4347825000000114
        },
        {
          "name": "F#2",
          "midi": 42,
          "time": 159.99996000000036,
          "velocity": 1,
          "duration": 0.4347825000000114
        },
        {
          "name": "D2",
          "midi": 38,
          "time": 160.43474250000037,
          "velocity": 1,
          "duration": 0.4347825000000114
        },
        {
          "name": "F#2",
          "midi": 42,
          "time": 160.43474250000037,
          "velocity": 1,
          "duration": 0.4347825000000114
        },
        {
          "name": "F#2",
          "midi": 42,
          "time": 160.86952500000038,
          "velocity": 1,
          "duration": 0.4347825000000114
        },
        {
          "name": "F#2",
          "midi": 42,
          "time": 161.3043075000004,
          "velocity": 1,
          "duration": 0.4347825000000114
        },
        {
          "name": "C2",
          "midi": 36,
          "time": 161.7390900000004,
          "velocity": 1,
          "duration": 1.3043475000000342
        },
        {
          "name": "F#2",
          "midi": 42,
          "time": 161.7390900000004,
          "velocity": 1,
          "duration": 0.4347825000000114
        },
        {
          "name": "F#2",
          "midi": 42,
          "time": 162.1738725000004,
          "velocity": 1,
          "duration": 0.4347825000000114
        },
        {
          "name": "F#2",
          "midi": 42,
          "time": 162.60865500000043,
          "velocity": 1,
          "duration": 0.4347825000000114
        },
        {
          "name": "D2",
          "midi": 38,
          "time": 163.04343750000044,
          "velocity": 1,
          "duration": 0.4347825000000114
        },
        {
          "name": "F#2",
          "midi": 42,
          "time": 163.04343750000044,
          "velocity": 1,
          "duration": 0.4347825000000114
        },
        {
          "name": "F#2",
          "midi": 42,
          "time": 163.47822000000045,
          "velocity": 1,
          "duration": 0.4347825000000114
        },
        {
          "name": "C2",
          "midi": 36,
          "time": 163.91300250000046,
          "velocity": 1,
          "duration": 0.4347825000000114
        },
        {
          "name": "F#2",
          "midi": 42,
          "time": 163.91300250000046,
          "velocity": 1,
          "duration": 0.4347825000000114
        },
        {
          "name": "C2",
          "midi": 36,
          "time": 164.34778500000047,
          "velocity": 1,
          "duration": 1.3043475000000342
        },
        {
          "name": "F#2",
          "midi": 42,
          "time": 164.34778500000047,
          "velocity": 1,
          "duration": 0.4347825000000114
        },
        {
          "name": "F#2",
          "midi": 42,
          "time": 164.78256750000048,
          "velocity": 1,
          "duration": 0.4347825000000114
        },
        {
          "name": "F#2",
          "midi": 42,
          "time": 165.2173500000005,
          "velocity": 1,
          "duration": 0.4347825000000114
        },
        {
          "name": "D2",
          "midi": 38,
          "time": 165.6521325000005,
          "velocity": 1,
          "duration": 0.4347825000000114
        },
        {
          "name": "F#2",
          "midi": 42,
          "time": 165.6521325000005,
          "velocity": 1,
          "duration": 0.4347825000000114
        },
        {
          "name": "F#2",
          "midi": 42,
          "time": 166.08691500000052,
          "velocity": 1,
          "duration": 0.4347825000000114
        },
        {
          "name": "F#2",
          "midi": 42,
          "time": 166.52169750000053,
          "velocity": 1,
          "duration": 0.4347825000000114
        },
        {
          "name": "C2",
          "midi": 36,
          "time": 166.95648000000054,
          "velocity": 1,
          "duration": 1.3043475000000342
        },
        {
          "name": "A3",
          "midi": 57,
          "time": 166.95648000000054,
          "velocity": 1,
          "duration": 0.4347825000000114
        },
        {
          "name": "F#2",
          "midi": 42,
          "time": 167.39126250000055,
          "velocity": 1,
          "duration": 0.4347825000000114
        },
        {
          "name": "F#2",
          "midi": 42,
          "time": 167.82604500000056,
          "velocity": 1,
          "duration": 0.4347825000000114
        },
        {
          "name": "D2",
          "midi": 38,
          "time": 168.26082750000057,
          "velocity": 1,
          "duration": 0.4347825000000114
        },
        {
          "name": "F#2",
          "midi": 42,
          "time": 168.26082750000057,
          "velocity": 1,
          "duration": 0.4347825000000114
        },
        {
          "name": "F#2",
          "midi": 42,
          "time": 168.69561000000058,
          "velocity": 1,
          "duration": 0.4347825000000114
        },
        {
          "name": "F#2",
          "midi": 42,
          "time": 169.1303925000006,
          "velocity": 1,
          "duration": 0.4347825000000114
        },
        {
          "name": "C2",
          "midi": 36,
          "time": 169.5651750000006,
          "velocity": 1,
          "duration": 1.3043475000000342
        },
        {
          "name": "A3",
          "midi": 57,
          "time": 169.5651750000006,
          "velocity": 1,
          "duration": 0.4347825000000114
        },
        {
          "name": "F#2",
          "midi": 42,
          "time": 169.99995750000062,
          "velocity": 1,
          "duration": 0.4347825000000114
        },
        {
          "name": "F#2",
          "midi": 42,
          "time": 170.43474000000063,
          "velocity": 1,
          "duration": 0.4347825000000114
        },
        {
          "name": "D2",
          "midi": 38,
          "time": 170.86952250000064,
          "velocity": 1,
          "duration": 0.4347825000000114
        },
        {
          "name": "A3",
          "midi": 57,
          "time": 170.86952250000064,
          "velocity": 1,
          "duration": 0.4347825000000114
        },
        {
          "name": "F#2",
          "midi": 42,
          "time": 171.30430500000065,
          "velocity": 1,
          "duration": 0.4347825000000114
        },
        {
          "name": "F#2",
          "midi": 42,
          "time": 171.73908750000066,
          "velocity": 1,
          "duration": 0.4347825000000114
        },
        {
          "name": "C2",
          "midi": 36,
          "time": 172.17387000000068,
          "velocity": 1,
          "duration": 1.3043475000000342
        },
        {
          "name": "A3",
          "midi": 57,
          "time": 172.17387000000068,
          "velocity": 1,
          "duration": 0.4347825000000114
        },
        {
          "name": "B2",
          "midi": 47,
          "time": 172.6086525000007,
          "velocity": 1,
          "duration": 0.4347825000000114
        },
        {
          "name": "F#2",
          "midi": 42,
          "time": 172.6086525000007,
          "velocity": 1,
          "duration": 0.4347825000000114
        },
        {
          "name": "F#2",
          "midi": 42,
          "time": 173.0434350000007,
          "velocity": 1,
          "duration": 0.4347825000000114
        },
        {
          "name": "B1",
          "midi": 35,
          "time": 173.4782175000007,
          "velocity": 1,
          "duration": 1.3043475000000342
        },
        {
          "name": "F#2",
          "midi": 42,
          "time": 173.4782175000007,
          "velocity": 1,
          "duration": 0.4347825000000114
        },
        {
          "name": "B2",
          "midi": 47,
          "time": 173.91300000000072,
          "velocity": 1,
          "duration": 0.4347825000000114
        },
        {
          "name": "F#2",
          "midi": 42,
          "time": 173.91300000000072,
          "velocity": 1,
          "duration": 0.4347825000000114
        },
        {
          "name": "F#2",
          "midi": 42,
          "time": 174.34778250000073,
          "velocity": 1,
          "duration": 0.4347825000000114
        },
        {
          "name": "C2",
          "midi": 36,
          "time": 174.78256500000074,
          "velocity": 1,
          "duration": 1.3043475000000342
        },
        {
          "name": "A3",
          "midi": 57,
          "time": 174.78256500000074,
          "velocity": 1,
          "duration": 0.4347825000000114
        },
        {
          "name": "F#2",
          "midi": 42,
          "time": 175.21734750000076,
          "velocity": 1,
          "duration": 0.4347825000000114
        },
        {
          "name": "F#2",
          "midi": 42,
          "time": 175.65213000000077,
          "velocity": 1,
          "duration": 0.4347825000000114
        },
        {
          "name": "D2",
          "midi": 38,
          "time": 176.08691250000078,
          "velocity": 1,
          "duration": 0.4347825000000114
        },
        {
          "name": "A3",
          "midi": 57,
          "time": 176.08691250000078,
          "velocity": 1,
          "duration": 0.4347825000000114
        },
        {
          "name": "F#2",
          "midi": 42,
          "time": 176.5216950000008,
          "velocity": 1,
          "duration": 0.4347825000000114
        },
        {
          "name": "F#2",
          "midi": 42,
          "time": 176.9564775000008,
          "velocity": 1,
          "duration": 0.4347825000000114
        },
        {
          "name": "C2",
          "midi": 36,
          "time": 177.3912600000008,
          "velocity": 1,
          "duration": 1.3043475000000342
        },
        {
          "name": "A3",
          "midi": 57,
          "time": 177.3912600000008,
          "velocity": 1,
          "duration": 0.4347825000000114
        },
        {
          "name": "B2",
          "midi": 47,
          "time": 177.82604250000082,
          "velocity": 1,
          "duration": 0.4347825000000114
        },
        {
          "name": "F#2",
          "midi": 42,
          "time": 177.82604250000082,
          "velocity": 1,
          "duration": 0.4347825000000114
        },
        {
          "name": "F#2",
          "midi": 42,
          "time": 178.26082500000084,
          "velocity": 1,
          "duration": 0.4347825000000114
        },
        {
          "name": "C2",
          "midi": 36,
          "time": 178.69560750000085,
          "velocity": 1,
          "duration": 1.3043475000000342
        },
        {
          "name": "F#2",
          "midi": 42,
          "time": 178.69560750000085,
          "velocity": 1,
          "duration": 0.4347825000000114
        },
        {
          "name": "B2",
          "midi": 47,
          "time": 179.13039000000086,
          "velocity": 1,
          "duration": 0.4347825000000114
        },
        {
          "name": "F#2",
          "midi": 42,
          "time": 179.13039000000086,
          "velocity": 1,
          "duration": 0.4347825000000114
        },
        {
          "name": "F#2",
          "midi": 42,
          "time": 179.56517250000087,
          "velocity": 1,
          "duration": 0.4347825000000114
        },
        {
          "name": "C2",
          "midi": 36,
          "time": 179.99995500000088,
          "velocity": 1,
          "duration": 1.3043475000000342
        },
        {
          "name": "A3",
          "midi": 57,
          "time": 179.99995500000088,
          "velocity": 1,
          "duration": 0.4347825000000114
        },
        {
          "name": "F#2",
          "midi": 42,
          "time": 180.4347375000009,
          "velocity": 1,
          "duration": 0.4347825000000114
        },
        {
          "name": "F#2",
          "midi": 42,
          "time": 180.8695200000009,
          "velocity": 1,
          "duration": 0.4347825000000114
        },
        {
          "name": "D2",
          "midi": 38,
          "time": 181.30430250000092,
          "velocity": 1,
          "duration": 0.4347825000000114
        },
        {
          "name": "A3",
          "midi": 57,
          "time": 181.30430250000092,
          "velocity": 1,
          "duration": 0.4347825000000114
        },
        {
          "name": "F#2",
          "midi": 42,
          "time": 181.73908500000093,
          "velocity": 1,
          "duration": 0.4347825000000114
        },
        {
          "name": "F#2",
          "midi": 42,
          "time": 182.17386750000094,
          "velocity": 1,
          "duration": 0.4347825000000114
        },
        {
          "name": "C2",
          "midi": 36,
          "time": 182.60865000000095,
          "velocity": 1,
          "duration": 1.3043475000000342
        },
        {
          "name": "A3",
          "midi": 57,
          "time": 182.60865000000095,
          "velocity": 1,
          "duration": 0.4347825000000114
        },
        {
          "name": "F#2",
          "midi": 42,
          "time": 183.04343250000096,
          "velocity": 1,
          "duration": 0.4347825000000114
        },
        {
          "name": "F#2",
          "midi": 42,
          "time": 183.47821500000097,
          "velocity": 1,
          "duration": 0.4347825000000114
        },
        {
          "name": "C2",
          "midi": 36,
          "time": 183.91299750000098,
          "velocity": 1,
          "duration": 1.3043475000000342
        },
        {
          "name": "A3",
          "midi": 57,
          "time": 183.91299750000098,
          "velocity": 1,
          "duration": 0.4347825000000114
        },
        {
          "name": "F#2",
          "midi": 42,
          "time": 184.347780000001,
          "velocity": 1,
          "duration": 0.4347825000000114
        },
        {
          "name": "F#2",
          "midi": 42,
          "time": 184.782562500001,
          "velocity": 1,
          "duration": 0.4347825000000114
        },
        {
          "name": "D2",
          "midi": 38,
          "time": 185.21734500000102,
          "velocity": 1,
          "duration": 0.4347825000000114
        },
        {
          "name": "F#2",
          "midi": 42,
          "time": 185.21734500000102,
          "velocity": 1,
          "duration": 0.4347825000000114
        },
        {
          "name": "F#2",
          "midi": 42,
          "time": 185.65212750000103,
          "velocity": 1,
          "duration": 0.2173912499999915
        },
        {
          "name": "D2",
          "midi": 38,
          "time": 185.86951875000102,
          "velocity": 1,
          "duration": 0.2173912499999915
        },
        {
          "name": "C3",
          "midi": 48,
          "time": 186.086910000001,
          "velocity": 1,
          "duration": 0.4347825000000114
        },
        {
          "name": "B2",
          "midi": 47,
          "time": 186.52169250000102,
          "velocity": 1,
          "duration": 0.4347825000000114
        },
        {
          "name": "D2",
          "midi": 38,
          "time": 186.52169250000102,
          "velocity": 1,
          "duration": 0.4347825000000114
        },
        {
          "name": "B2",
          "midi": 47,
          "time": 186.95647500000103,
          "velocity": 1,
          "duration": 0.2173912499999915
        },
        {
          "name": "D2",
          "midi": 38,
          "time": 187.17386625000103,
          "velocity": 1,
          "duration": 0.2173912499999915
        },
        {
          "name": "B2",
          "midi": 47,
          "time": 187.39125750000102,
          "velocity": 1,
          "duration": 0.4347825000000114
        },
        {
          "name": "C3",
          "midi": 48,
          "time": 187.82604000000103,
          "velocity": 1,
          "duration": 0.4347825000000114
        },
        {
          "name": "D2",
          "midi": 38,
          "time": 187.82604000000103,
          "velocity": 1,
          "duration": 0.4347825000000114
        },
        {
          "name": "C3",
          "midi": 48,
          "time": 188.26082250000104,
          "velocity": 1,
          "duration": 0.2173912499999915
        },
        {
          "name": "D2",
          "midi": 38,
          "time": 188.47821375000103,
          "velocity": 1,
          "duration": 0.2173912499999915
        },
        {
          "name": "C3",
          "midi": 48,
          "time": 188.69560500000102,
          "velocity": 1,
          "duration": 0.4347825000000114
        },
        {
          "name": "C2",
          "midi": 36,
          "time": 189.13038750000104,
          "velocity": 1,
          "duration": 1.3043475000000342
        },
        {
          "name": "A3",
          "midi": 57,
          "time": 189.13038750000104,
          "velocity": 1,
          "duration": 0.4347825000000114
        },
        {
          "name": "F#2",
          "midi": 42,
          "time": 189.56517000000105,
          "velocity": 1,
          "duration": 0.4347825000000114
        },
        {
          "name": "F#2",
          "midi": 42,
          "time": 189.99995250000106,
          "velocity": 1,
          "duration": 0.4347825000000114
        },
        {
          "name": "E5",
          "midi": 76,
          "time": 190.43473500000107,
          "velocity": 1,
          "duration": 0.4347825000000114
        },
        {
          "name": "F#2",
          "midi": 42,
          "time": 190.43473500000107,
          "velocity": 1,
          "duration": 0.4347825000000114
        },
        {
          "name": "F#2",
          "midi": 42,
          "time": 190.86951750000108,
          "velocity": 1,
          "duration": 0.4347825000000114
        },
        {
          "name": "F#2",
          "midi": 42,
          "time": 191.3043000000011,
          "velocity": 1,
          "duration": 0.4347825000000114
        },
        {
          "name": "C2",
          "midi": 36,
          "time": 191.7390825000011,
          "velocity": 1,
          "duration": 1.3043475000000342
        },
        {
          "name": "F#2",
          "midi": 42,
          "time": 191.7390825000011,
          "velocity": 1,
          "duration": 0.4347825000000114
        },
        {
          "name": "F#2",
          "midi": 42,
          "time": 192.17386500000111,
          "velocity": 1,
          "duration": 0.4347825000000114
        },
        {
          "name": "F#2",
          "midi": 42,
          "time": 192.60864750000113,
          "velocity": 1,
          "duration": 0.4347825000000114
        },
        {
          "name": "E5",
          "midi": 76,
          "time": 193.04343000000114,
          "velocity": 1,
          "duration": 0.4347825000000114
        },
        {
          "name": "F#2",
          "midi": 42,
          "time": 193.04343000000114,
          "velocity": 1,
          "duration": 0.4347825000000114
        },
        {
          "name": "F#2",
          "midi": 42,
          "time": 193.47821250000115,
          "velocity": 1,
          "duration": 0.4347825000000114
        },
        {
          "name": "F#2",
          "midi": 42,
          "time": 193.91299500000116,
          "velocity": 1,
          "duration": 0.4347825000000114
        },
        {
          "name": "C2",
          "midi": 36,
          "time": 194.34777750000117,
          "velocity": 1,
          "duration": 1.3043475000000342
        },
        {
          "name": "A3",
          "midi": 57,
          "time": 194.34777750000117,
          "velocity": 1,
          "duration": 0.4347825000000114
        },
        {
          "name": "F#2",
          "midi": 42,
          "time": 194.78256000000118,
          "velocity": 1,
          "duration": 0.4347825000000114
        },
        {
          "name": "F#2",
          "midi": 42,
          "time": 195.2173425000012,
          "velocity": 1,
          "duration": 0.4347825000000114
        },
        {
          "name": "E5",
          "midi": 76,
          "time": 195.6521250000012,
          "velocity": 1,
          "duration": 0.4347825000000114
        },
        {
          "name": "F#2",
          "midi": 42,
          "time": 195.6521250000012,
          "velocity": 1,
          "duration": 0.4347825000000114
        },
        {
          "name": "F#2",
          "midi": 42,
          "time": 196.08690750000122,
          "velocity": 1,
          "duration": 0.4347825000000114
        },
        {
          "name": "F#2",
          "midi": 42,
          "time": 196.52169000000123,
          "velocity": 1,
          "duration": 0.4347825000000114
        },
        {
          "name": "C2",
          "midi": 36,
          "time": 196.95647250000124,
          "velocity": 1,
          "duration": 1.3043475000000342
        },
        {
          "name": "F#2",
          "midi": 42,
          "time": 196.95647250000124,
          "velocity": 1,
          "duration": 0.4347825000000114
        },
        {
          "name": "F#2",
          "midi": 42,
          "time": 197.39125500000125,
          "velocity": 1,
          "duration": 0.4347825000000114
        },
        {
          "name": "F#2",
          "midi": 42,
          "time": 197.82603750000126,
          "velocity": 1,
          "duration": 0.4347825000000114
        },
        {
          "name": "E5",
          "midi": 76,
          "time": 198.26082000000127,
          "velocity": 1,
          "duration": 0.4347825000000114
        },
        {
          "name": "F#2",
          "midi": 42,
          "time": 198.26082000000127,
          "velocity": 1,
          "duration": 0.4347825000000114
        },
        {
          "name": "F#2",
          "midi": 42,
          "time": 198.69560250000129,
          "velocity": 1,
          "duration": 0.4347825000000114
        },
        {
          "name": "F#2",
          "midi": 42,
          "time": 199.1303850000013,
          "velocity": 1,
          "duration": 0.4347825000000114
        },
        {
          "name": "C2",
          "midi": 36,
          "time": 199.5651675000013,
          "velocity": 1,
          "duration": 1.3043475000000342
        },
        {
          "name": "A3",
          "midi": 57,
          "time": 199.5651675000013,
          "velocity": 1,
          "duration": 0.4347825000000114
        },
        {
          "name": "F#2",
          "midi": 42,
          "time": 199.99995000000132,
          "velocity": 1,
          "duration": 0.4347825000000114
        },
        {
          "name": "F#2",
          "midi": 42,
          "time": 200.43473250000133,
          "velocity": 1,
          "duration": 0.4347825000000114
        },
        {
          "name": "E5",
          "midi": 76,
          "time": 200.86951500000134,
          "velocity": 1,
          "duration": 0.4347825000000114
        },
        {
          "name": "F#2",
          "midi": 42,
          "time": 200.86951500000134,
          "velocity": 1,
          "duration": 0.4347825000000114
        },
        {
          "name": "F#2",
          "midi": 42,
          "time": 201.30429750000135,
          "velocity": 1,
          "duration": 0.4347825000000114
        },
        {
          "name": "F#2",
          "midi": 42,
          "time": 201.73908000000137,
          "velocity": 1,
          "duration": 0.4347825000000114
        },
        {
          "name": "C2",
          "midi": 36,
          "time": 202.17386250000138,
          "velocity": 1,
          "duration": 1.3043475000000342
        },
        {
          "name": "F#2",
          "midi": 42,
          "time": 202.17386250000138,
          "velocity": 1,
          "duration": 0.4347825000000114
        },
        {
          "name": "F#2",
          "midi": 42,
          "time": 202.6086450000014,
          "velocity": 1,
          "duration": 0.4347825000000114
        },
        {
          "name": "F#2",
          "midi": 42,
          "time": 203.0434275000014,
          "velocity": 1,
          "duration": 0.4347825000000114
        },
        {
          "name": "E5",
          "midi": 76,
          "time": 203.4782100000014,
          "velocity": 1,
          "duration": 0.4347825000000114
        },
        {
          "name": "F#2",
          "midi": 42,
          "time": 203.4782100000014,
          "velocity": 1,
          "duration": 0.4347825000000114
        },
        {
          "name": "F#2",
          "midi": 42,
          "time": 203.91299250000142,
          "velocity": 1,
          "duration": 0.4347825000000114
        },
        {
          "name": "F#2",
          "midi": 42,
          "time": 204.34777500000143,
          "velocity": 1,
          "duration": 0.4347825000000114
        },
        {
          "name": "C2",
          "midi": 36,
          "time": 204.78255750000145,
          "velocity": 1,
          "duration": 1.3043475000000342
        },
        {
          "name": "A3",
          "midi": 57,
          "time": 204.78255750000145,
          "velocity": 1,
          "duration": 0.4347825000000114
        },
        {
          "name": "F#2",
          "midi": 42,
          "time": 205.21734000000146,
          "velocity": 1,
          "duration": 0.4347825000000114
        },
        {
          "name": "F#2",
          "midi": 42,
          "time": 205.65212250000147,
          "velocity": 1,
          "duration": 0.4347825000000114
        },
        {
          "name": "D2",
          "midi": 38,
          "time": 206.08690500000148,
          "velocity": 1,
          "duration": 0.434782499999983
        },
        {
          "name": "F#2",
          "midi": 42,
          "time": 206.08690500000148,
          "velocity": 1,
          "duration": 0.434782499999983
        },
        {
          "name": "C2",
          "midi": 36,
          "time": 206.30429625000147,
          "velocity": 1,
          "duration": 0.434782499999983
        },
        {
          "name": "F#2",
          "midi": 42,
          "time": 206.52168750000146,
          "velocity": 1,
          "duration": 0.434782499999983
        },
        {
          "name": "C2",
          "midi": 36,
          "time": 206.73907875000145,
          "velocity": 1,
          "duration": 0.434782499999983
        },
        {
          "name": "F#2",
          "midi": 42,
          "time": 206.95647000000145,
          "velocity": 1,
          "duration": 0.434782499999983
        },
        {
          "name": "C2",
          "midi": 36,
          "time": 207.17386125000144,
          "velocity": 1,
          "duration": 0.2173912499999915
        },
        {
          "name": "D2",
          "midi": 38,
          "time": 207.39125250000143,
          "velocity": 1,
          "duration": 0.4347825000000114
        },
        {
          "name": "F#2",
          "midi": 42,
          "time": 207.39125250000143,
          "velocity": 1,
          "duration": 0.4347825000000114
        },
        {
          "name": "F#2",
          "midi": 42,
          "time": 207.82603500000144,
          "velocity": 1,
          "duration": 0.4347825000000114
        },
        {
          "name": "D2",
          "midi": 38,
          "time": 208.26081750000145,
          "velocity": 1,
          "duration": 0.4347825000000114
        },
        {
          "name": "F#2",
          "midi": 42,
          "time": 208.26081750000145,
          "velocity": 1,
          "duration": 0.4347825000000114
        },
        {
          "name": "D2",
          "midi": 38,
          "time": 208.69560000000146,
          "velocity": 1,
          "duration": 0.434782499999983
        },
        {
          "name": "F#2",
          "midi": 42,
          "time": 208.69560000000146,
          "velocity": 1,
          "duration": 0.434782499999983
        },
        {
          "name": "C2",
          "midi": 36,
          "time": 208.91299125000145,
          "velocity": 1,
          "duration": 0.434782499999983
        },
        {
          "name": "F#2",
          "midi": 42,
          "time": 209.13038250000145,
          "velocity": 1,
          "duration": 0.434782499999983
        },
        {
          "name": "C2",
          "midi": 36,
          "time": 209.34777375000144,
          "velocity": 1,
          "duration": 0.2173912499999915
        },
        {
          "name": "D2",
          "midi": 38,
          "time": 209.56516500000143,
          "velocity": 1,
          "duration": 0.4347825000000114
        },
        {
          "name": "F#2",
          "midi": 42,
          "time": 209.56516500000143,
          "velocity": 1,
          "duration": 0.4347825000000114
        },
        {
          "name": "C2",
          "midi": 36,
          "time": 209.99994750000144,
          "velocity": 1,
          "duration": 1.3043475000000342
        },
        {
          "name": "A3",
          "midi": 57,
          "time": 209.99994750000144,
          "velocity": 1,
          "duration": 0.4347825000000114
        },
        {
          "name": "F#2",
          "midi": 42,
          "time": 210.43473000000145,
          "velocity": 1,
          "duration": 0.4347825000000114
        },
        {
          "name": "F#2",
          "midi": 42,
          "time": 210.86951250000146,
          "velocity": 1,
          "duration": 0.4347825000000114
        },
        {
          "name": "D2",
          "midi": 38,
          "time": 211.30429500000147,
          "velocity": 1,
          "duration": 0.4347825000000114
        },
        {
          "name": "F#2",
          "midi": 42,
          "time": 211.30429500000147,
          "velocity": 1,
          "duration": 0.4347825000000114
        },
        {
          "name": "F#2",
          "midi": 42,
          "time": 211.73907750000149,
          "velocity": 1,
          "duration": 0.4347825000000114
        },
        {
          "name": "F#2",
          "midi": 42,
          "time": 212.1738600000015,
          "velocity": 1,
          "duration": 0.4347825000000114
        },
        {
          "name": "C2",
          "midi": 36,
          "time": 212.6086425000015,
          "velocity": 1,
          "duration": 1.3043475000000342
        },
        {
          "name": "F#2",
          "midi": 42,
          "time": 212.6086425000015,
          "velocity": 1,
          "duration": 0.4347825000000114
        },
        {
          "name": "F#2",
          "midi": 42,
          "time": 213.04342500000152,
          "velocity": 1,
          "duration": 0.4347825000000114
        },
        {
          "name": "F#2",
          "midi": 42,
          "time": 213.47820750000153,
          "velocity": 1,
          "duration": 0.4347825000000114
        },
        {
          "name": "D2",
          "midi": 38,
          "time": 213.91299000000154,
          "velocity": 1,
          "duration": 0.4347825000000114
        },
        {
          "name": "B2",
          "midi": 47,
          "time": 213.91299000000154,
          "velocity": 1,
          "duration": 0.4347825000000114
        },
        {
          "name": "C3",
          "midi": 48,
          "time": 214.34777250000155,
          "velocity": 1,
          "duration": 0.4347825000000114
        },
        {
          "name": "D3",
          "midi": 50,
          "time": 214.78255500000157,
          "velocity": 1,
          "duration": 0.4347825000000114
        },
        {
          "name": "C2",
          "midi": 36,
          "time": 215.21733750000158,
          "velocity": 1,
          "duration": 1.3043475000000342
        },
        {
          "name": "A3",
          "midi": 57,
          "time": 215.21733750000158,
          "velocity": 1,
          "duration": 0.4347825000000114
        },
        {
          "name": "F#2",
          "midi": 42,
          "time": 215.6521200000016,
          "velocity": 1,
          "duration": 0.4347825000000114
        },
        {
          "name": "F#2",
          "midi": 42,
          "time": 216.0869025000016,
          "velocity": 1,
          "duration": 0.4347825000000114
        },
        {
          "name": "D2",
          "midi": 38,
          "time": 216.5216850000016,
          "velocity": 1,
          "duration": 0.4347825000000114
        },
        {
          "name": "F#2",
          "midi": 42,
          "time": 216.5216850000016,
          "velocity": 1,
          "duration": 0.4347825000000114
        },
        {
          "name": "F#2",
          "midi": 42,
          "time": 216.95646750000162,
          "velocity": 1,
          "duration": 0.4347825000000114
        },
        {
          "name": "F#2",
          "midi": 42,
          "time": 217.39125000000163,
          "velocity": 1,
          "duration": 0.4347825000000114
        },
        {
          "name": "C2",
          "midi": 36,
          "time": 217.82603250000165,
          "velocity": 1,
          "duration": 1.3043475000000342
        },
        {
          "name": "F#2",
          "midi": 42,
          "time": 217.82603250000165,
          "velocity": 1,
          "duration": 0.4347825000000114
        },
        {
          "name": "F#2",
          "midi": 42,
          "time": 218.26081500000166,
          "velocity": 1,
          "duration": 0.4347825000000114
        },
        {
          "name": "F#2",
          "midi": 42,
          "time": 218.69559750000167,
          "velocity": 1,
          "duration": 0.4347825000000114
        },
        {
          "name": "D2",
          "midi": 38,
          "time": 219.13038000000168,
          "velocity": 1,
          "duration": 0.32608687499998723
        },
        {
          "name": "A#2",
          "midi": 46,
          "time": 219.13038000000168,
          "velocity": 1,
          "duration": 0.32608687499998723
        },
        {
          "name": "A#2",
          "midi": 46,
          "time": 219.45646687500167,
          "velocity": 1,
          "duration": 0.10869562499999574
        },
        {
          "name": "A#2",
          "midi": 46,
          "time": 219.56516250000166,
          "velocity": 1,
          "duration": 0.32608687499998723
        },
        {
          "name": "A#2",
          "midi": 46,
          "time": 219.89124937500165,
          "velocity": 1,
          "duration": 0.10869562499999574
        },
        {
          "name": "A#2",
          "midi": 46,
          "time": 219.99994500000165,
          "velocity": 1,
          "duration": 0.4347825000000114
        },
        {
          "name": "C2",
          "midi": 36,
          "time": 220.43472750000166,
          "velocity": 1,
          "duration": 1.3043475000000342
        },
        {
          "name": "A3",
          "midi": 57,
          "time": 220.43472750000166,
          "velocity": 1,
          "duration": 0.4347825000000114
        },
        {
          "name": "F#2",
          "midi": 42,
          "time": 220.86951000000167,
          "velocity": 1,
          "duration": 0.4347825000000114
        },
        {
          "name": "F#2",
          "midi": 42,
          "time": 221.30429250000168,
          "velocity": 1,
          "duration": 0.4347825000000114
        },
        {
          "name": "D2",
          "midi": 38,
          "time": 221.7390750000017,
          "velocity": 1,
          "duration": 0.4347825000000114
        },
        {
          "name": "F#2",
          "midi": 42,
          "time": 221.7390750000017,
          "velocity": 1,
          "duration": 0.4347825000000114
        },
        {
          "name": "F#2",
          "midi": 42,
          "time": 222.1738575000017,
          "velocity": 1,
          "duration": 0.4347825000000114
        },
        {
          "name": "F#2",
          "midi": 42,
          "time": 222.6086400000017,
          "velocity": 1,
          "duration": 0.4347825000000114
        },
        {
          "name": "C2",
          "midi": 36,
          "time": 223.04342250000172,
          "velocity": 1,
          "duration": 1.3043475000000342
        },
        {
          "name": "A3",
          "midi": 57,
          "time": 223.04342250000172,
          "velocity": 1,
          "duration": 0.4347825000000114
        },
        {
          "name": "F#2",
          "midi": 42,
          "time": 223.47820500000174,
          "velocity": 1,
          "duration": 0.4347825000000114
        },
        {
          "name": "F#2",
          "midi": 42,
          "time": 223.91298750000175,
          "velocity": 1,
          "duration": 0.4347825000000114
        },
        {
          "name": "D2",
          "midi": 38,
          "time": 224.34777000000176,
          "velocity": 1,
          "duration": 0.4347825000000114
        },
        {
          "name": "F#2",
          "midi": 42,
          "time": 224.34777000000176,
          "velocity": 1,
          "duration": 0.4347825000000114
        },
        {
          "name": "F#2",
          "midi": 42,
          "time": 224.78255250000177,
          "velocity": 1,
          "duration": 0.4347825000000114
        },
        {
          "name": "F#2",
          "midi": 42,
          "time": 225.21733500000178,
          "velocity": 1,
          "duration": 0.4347825000000114
        },
        {
          "name": "C2",
          "midi": 36,
          "time": 225.6521175000018,
          "velocity": 1,
          "duration": 1.3043475000000342
        },
        {
          "name": "A3",
          "midi": 57,
          "time": 225.6521175000018,
          "velocity": 1,
          "duration": 0.4347825000000114
        },
        {
          "name": "F#2",
          "midi": 42,
          "time": 226.0869000000018,
          "velocity": 1,
          "duration": 0.4347825000000114
        },
        {
          "name": "F#2",
          "midi": 42,
          "time": 226.52168250000182,
          "velocity": 1,
          "duration": 0.4347825000000114
        },
        {
          "name": "D2",
          "midi": 38,
          "time": 226.95646500000183,
          "velocity": 1,
          "duration": 0.4347825000000114
        },
        {
          "name": "F#2",
          "midi": 42,
          "time": 226.95646500000183,
          "velocity": 1,
          "duration": 0.4347825000000114
        },
        {
          "name": "F#2",
          "midi": 42,
          "time": 227.39124750000184,
          "velocity": 1,
          "duration": 0.4347825000000114
        },
        {
          "name": "D2",
          "midi": 38,
          "time": 227.82603000000185,
          "velocity": 1,
          "duration": 0.4347825000000114
        },
        {
          "name": "F#2",
          "midi": 42,
          "time": 227.82603000000185,
          "velocity": 1,
          "duration": 0.4347825000000114
        },
        {
          "name": "D2",
          "midi": 38,
          "time": 228.26081250000186,
          "velocity": 1,
          "duration": 0.4347825000000114
        },
        {
          "name": "F#2",
          "midi": 42,
          "time": 228.26081250000186,
          "velocity": 1,
          "duration": 0.4347825000000114
        },
        {
          "name": "F#2",
          "midi": 42,
          "time": 228.69559500000187,
          "velocity": 1,
          "duration": 0.2173912499999915
        },
        {
          "name": "D2",
          "midi": 38,
          "time": 228.91298625000186,
          "velocity": 1,
          "duration": 0.2173912499999915
        },
        {
          "name": "D2",
          "midi": 38,
          "time": 229.13037750000186,
          "velocity": 1,
          "duration": 0.2173912499999915
        },
        {
          "name": "D2",
          "midi": 38,
          "time": 229.34776875000185,
          "velocity": 1,
          "duration": 0.2173912499999915
        },
        {
          "name": "F#2",
          "midi": 42,
          "time": 229.56516000000184,
          "velocity": 1,
          "duration": 0.4347825000000114
        },
        {
          "name": "G2",
          "midi": 43,
          "time": 229.99994250000185,
          "velocity": 1,
          "duration": 0.2173912499999915
        },
        {
          "name": "G2",
          "midi": 43,
          "time": 230.21733375000184,
          "velocity": 1,
          "duration": 0.2173912499999915
        },
        {
          "name": "G2",
          "midi": 43,
          "time": 230.43472500000183,
          "velocity": 1,
          "duration": 0.2173912499999915
        },
        {
          "name": "G2",
          "midi": 43,
          "time": 230.65211625000182,
          "velocity": 1,
          "duration": 0.2173912499999915
        },
        {
          "name": "C2",
          "midi": 36,
          "time": 230.86950750000182,
          "velocity": 1,
          "duration": 1.3043475000000342
        },
        {
          "name": "A3",
          "midi": 57,
          "time": 230.86950750000182,
          "velocity": 1,
          "duration": 0.4347825000000114
        },
        {
          "name": "F#2",
          "midi": 42,
          "time": 231.30429000000183,
          "velocity": 1,
          "duration": 0.4347825000000114
        },
        {
          "name": "F#2",
          "midi": 42,
          "time": 231.73907250000184,
          "velocity": 1,
          "duration": 0.4347825000000114
        },
        {
          "name": "D2",
          "midi": 38,
          "time": 232.17385500000185,
          "velocity": 1,
          "duration": 0.4347825000000114
        },
        {
          "name": "F#2",
          "midi": 42,
          "time": 232.17385500000185,
          "velocity": 1,
          "duration": 0.4347825000000114
        },
        {
          "name": "F#2",
          "midi": 42,
          "time": 232.60863750000186,
          "velocity": 1,
          "duration": 0.4347825000000114
        },
        {
          "name": "F#2",
          "midi": 42,
          "time": 233.04342000000187,
          "velocity": 1,
          "duration": 0.4347825000000114
        },
        {
          "name": "C2",
          "midi": 36,
          "time": 233.47820250000188,
          "velocity": 1,
          "duration": 1.3043475000000342
        },
        {
          "name": "F#2",
          "midi": 42,
          "time": 233.47820250000188,
          "velocity": 1,
          "duration": 0.4347825000000114
        },
        {
          "name": "F#2",
          "midi": 42,
          "time": 233.9129850000019,
          "velocity": 1,
          "duration": 0.4347825000000114
        },
        {
          "name": "F#2",
          "midi": 42,
          "time": 234.3477675000019,
          "velocity": 1,
          "duration": 0.4347825000000114
        },
        {
          "name": "D2",
          "midi": 38,
          "time": 234.78255000000192,
          "velocity": 1,
          "duration": 0.4347825000000114
        },
        {
          "name": "F#2",
          "midi": 42,
          "time": 234.78255000000192,
          "velocity": 1,
          "duration": 0.4347825000000114
        },
        {
          "name": "F#2",
          "midi": 42,
          "time": 235.21733250000193,
          "velocity": 1,
          "duration": 0.4347825000000114
        },
        {
          "name": "C2",
          "midi": 36,
          "time": 235.65211500000194,
          "velocity": 1,
          "duration": 0.4347825000000114
        },
        {
          "name": "F#2",
          "midi": 42,
          "time": 235.65211500000194,
          "velocity": 1,
          "duration": 0.4347825000000114
        },
        {
          "name": "C2",
          "midi": 36,
          "time": 236.08689750000195,
          "velocity": 1,
          "duration": 1.3043475000000342
        },
        {
          "name": "F#2",
          "midi": 42,
          "time": 236.08689750000195,
          "velocity": 1,
          "duration": 0.4347825000000114
        },
        {
          "name": "F#2",
          "midi": 42,
          "time": 236.52168000000196,
          "velocity": 1,
          "duration": 0.4347825000000114
        },
        {
          "name": "F#2",
          "midi": 42,
          "time": 236.95646250000198,
          "velocity": 1,
          "duration": 0.4347825000000114
        },
        {
          "name": "D2",
          "midi": 38,
          "time": 237.391245000002,
          "velocity": 1,
          "duration": 0.4347825000000114
        },
        {
          "name": "F#2",
          "midi": 42,
          "time": 237.391245000002,
          "velocity": 1,
          "duration": 0.4347825000000114
        },
        {
          "name": "F#2",
          "midi": 42,
          "time": 237.826027500002,
          "velocity": 1,
          "duration": 0.4347825000000114
        },
        {
          "name": "F#2",
          "midi": 42,
          "time": 238.260810000002,
          "velocity": 1,
          "duration": 0.4347825000000114
        },
        {
          "name": "C2",
          "midi": 36,
          "time": 238.69559250000202,
          "velocity": 1,
          "duration": 1.3043475000000342
        },
        {
          "name": "F#2",
          "midi": 42,
          "time": 238.69559250000202,
          "velocity": 1,
          "duration": 0.4347825000000114
        },
        {
          "name": "F#2",
          "midi": 42,
          "time": 239.13037500000203,
          "velocity": 1,
          "duration": 0.4347825000000114
        },
        {
          "name": "F#2",
          "midi": 42,
          "time": 239.56515750000204,
          "velocity": 1,
          "duration": 0.4347825000000114
        },
        {
          "name": "D2",
          "midi": 38,
          "time": 239.99994000000206,
          "velocity": 1,
          "duration": 0.4347825000000114
        },
        {
          "name": "F#2",
          "midi": 42,
          "time": 239.99994000000206,
          "velocity": 1,
          "duration": 0.4347825000000114
        },
        {
          "name": "F#2",
          "midi": 42,
          "time": 240.43472250000207,
          "velocity": 1,
          "duration": 0.4347825000000114
        },
        {
          "name": "C2",
          "midi": 36,
          "time": 240.86950500000208,
          "velocity": 1,
          "duration": 0.4347825000000114
        },
        {
          "name": "F#2",
          "midi": 42,
          "time": 240.86950500000208,
          "velocity": 1,
          "duration": 0.4347825000000114
        },
        {
          "name": "C2",
          "midi": 36,
          "time": 241.3042875000021,
          "velocity": 1,
          "duration": 1.3043475000000342
        },
        {
          "name": "F#2",
          "midi": 42,
          "time": 241.3042875000021,
          "velocity": 1,
          "duration": 0.4347825000000114
        },
        {
          "name": "F#2",
          "midi": 42,
          "time": 241.7390700000021,
          "velocity": 1,
          "duration": 0.4347825000000114
        },
        {
          "name": "F#2",
          "midi": 42,
          "time": 242.1738525000021,
          "velocity": 1,
          "duration": 0.4347825000000114
        },
        {
          "name": "D2",
          "midi": 38,
          "time": 242.60863500000212,
          "velocity": 1,
          "duration": 0.4347825000000114
        },
        {
          "name": "F#2",
          "midi": 42,
          "time": 242.60863500000212,
          "velocity": 1,
          "duration": 0.4347825000000114
        },
        {
          "name": "F#2",
          "midi": 42,
          "time": 243.04341750000214,
          "velocity": 1,
          "duration": 0.4347825000000114
        },
        {
          "name": "F#2",
          "midi": 42,
          "time": 243.47820000000215,
          "velocity": 1,
          "duration": 0.4347825000000114
        },
        {
          "name": "C2",
          "midi": 36,
          "time": 243.91298250000216,
          "velocity": 1,
          "duration": 1.3043475000000342
        },
        {
          "name": "F#2",
          "midi": 42,
          "time": 243.91298250000216,
          "velocity": 1,
          "duration": 0.4347825000000114
        },
        {
          "name": "F#2",
          "midi": 42,
          "time": 244.34776500000217,
          "velocity": 1,
          "duration": 0.4347825000000114
        },
        {
          "name": "F#2",
          "midi": 42,
          "time": 244.78254750000218,
          "velocity": 1,
          "duration": 0.4347825000000114
        },
        {
          "name": "D2",
          "midi": 38,
          "time": 245.2173300000022,
          "velocity": 1,
          "duration": 0.4347825000000114
        },
        {
          "name": "F#2",
          "midi": 42,
          "time": 245.2173300000022,
          "velocity": 1,
          "duration": 0.4347825000000114
        },
        {
          "name": "F#2",
          "midi": 42,
          "time": 245.6521125000022,
          "velocity": 1,
          "duration": 0.4347825000000114
        },
        {
          "name": "C2",
          "midi": 36,
          "time": 246.08689500000222,
          "velocity": 1,
          "duration": 0.4347825000000114
        },
        {
          "name": "F#2",
          "midi": 42,
          "time": 246.08689500000222,
          "velocity": 1,
          "duration": 0.4347825000000114
        },
        {
          "name": "C2",
          "midi": 36,
          "time": 246.52167750000223,
          "velocity": 1,
          "duration": 1.3043475000000342
        },
        {
          "name": "F#2",
          "midi": 42,
          "time": 246.52167750000223,
          "velocity": 1,
          "duration": 0.4347825000000114
        },
        {
          "name": "F#2",
          "midi": 42,
          "time": 246.95646000000224,
          "velocity": 1,
          "duration": 0.4347825000000114
        },
        {
          "name": "F#2",
          "midi": 42,
          "time": 247.39124250000225,
          "velocity": 1,
          "duration": 0.4347825000000114
        },
        {
          "name": "D2",
          "midi": 38,
          "time": 247.82602500000226,
          "velocity": 1,
          "duration": 0.4347825000000114
        },
        {
          "name": "F#2",
          "midi": 42,
          "time": 247.82602500000226,
          "velocity": 1,
          "duration": 0.4347825000000114
        },
        {
          "name": "F#2",
          "midi": 42,
          "time": 248.26080750000227,
          "velocity": 1,
          "duration": 0.4347825000000114
        },
        {
          "name": "F#2",
          "midi": 42,
          "time": 248.69559000000228,
          "velocity": 1,
          "duration": 0.4347825000000114
        },
        {
          "name": "C2",
          "midi": 36,
          "time": 249.1303725000023,
          "velocity": 1,
          "duration": 1.3043475000000342
        },
        {
          "name": "A3",
          "midi": 57,
          "time": 249.1303725000023,
          "velocity": 1,
          "duration": 0.4347825000000114
        },
        {
          "name": "F#2",
          "midi": 42,
          "time": 249.5651550000023,
          "velocity": 1,
          "duration": 0.4347825000000114
        },
        {
          "name": "F#2",
          "midi": 42,
          "time": 249.99993750000232,
          "velocity": 1,
          "duration": 0.4347825000000114
        },
        {
          "name": "D2",
          "midi": 38,
          "time": 250.43472000000233,
          "velocity": 1,
          "duration": 0.4347825000000114
        },
        {
          "name": "F#2",
          "midi": 42,
          "time": 250.43472000000233,
          "velocity": 1,
          "duration": 0.4347825000000114
        },
        {
          "name": "D2",
          "midi": 38,
          "time": 250.86950250000234,
          "velocity": 1,
          "duration": 0.4347825000000114
        },
        {
          "name": "F#2",
          "midi": 42,
          "time": 250.86950250000234,
          "velocity": 1,
          "duration": 0.4347825000000114
        },
        {
          "name": "D2",
          "midi": 38,
          "time": 251.30428500000235,
          "velocity": 1,
          "duration": 0.4347825000000114
        },
        {
          "name": "F#2",
          "midi": 42,
          "time": 251.30428500000235,
          "velocity": 1,
          "duration": 0.4347825000000114
        },
        {
          "name": "F#2",
          "midi": 42,
          "time": 251.73906750000236,
          "velocity": 1,
          "duration": 0.2173912499999915
        },
        {
          "name": "D2",
          "midi": 38,
          "time": 251.95645875000235,
          "velocity": 1,
          "duration": 0.2173912499999915
        },
        {
          "name": "A2",
          "midi": 45,
          "time": 252.17385000000235,
          "velocity": 1,
          "duration": 0.2173912499999915
        },
        {
          "name": "D2",
          "midi": 38,
          "time": 252.39124125000234,
          "velocity": 1,
          "duration": 0.2173912499999915
        },
        {
          "name": "B2",
          "midi": 47,
          "time": 252.60863250000233,
          "velocity": 1,
          "duration": 0.2173912499999915
        },
        {
          "name": "D2",
          "midi": 38,
          "time": 252.82602375000232,
          "velocity": 1,
          "duration": 0.2173912499999915
        },
        {
          "name": "C3",
          "midi": 48,
          "time": 253.0434150000023,
          "velocity": 1,
          "duration": 0.2173912499999915
        },
        {
          "name": "C3",
          "midi": 48,
          "time": 253.2608062500023,
          "velocity": 1,
          "duration": 0.2173912499999915
        },
        {
          "name": "D3",
          "midi": 50,
          "time": 253.4781975000023,
          "velocity": 1,
          "duration": 0.2173912499999915
        },
        {
          "name": "D3",
          "midi": 50,
          "time": 253.6955887500023,
          "velocity": 1,
          "duration": 0.2173912499999915
        },
        {
          "name": "G2",
          "midi": 43,
          "time": 253.91298000000228,
          "velocity": 1,
          "duration": 0.2173912499999915
        },
        {
          "name": "G2",
          "midi": 43,
          "time": 254.13037125000227,
          "velocity": 1,
          "duration": 0.2173912499999915
        },
        {
          "name": "C2",
          "midi": 36,
          "time": 254.34776250000226,
          "velocity": 1,
          "duration": 1.3043475000000342
        },
        {
          "name": "A3",
          "midi": 57,
          "time": 254.34776250000226,
          "velocity": 1,
          "duration": 0.4347825000000114
        },
        {
          "name": "F#2",
          "midi": 42,
          "time": 254.78254500000227,
          "velocity": 1,
          "duration": 0.4347825000000114
        },
        {
          "name": "F#2",
          "midi": 42,
          "time": 255.21732750000228,
          "velocity": 1,
          "duration": 0.4347825000000114
        },
        {
          "name": "D2",
          "midi": 38,
          "time": 255.6521100000023,
          "velocity": 1,
          "duration": 0.4347825000000114
        },
        {
          "name": "F#2",
          "midi": 42,
          "time": 255.6521100000023,
          "velocity": 1,
          "duration": 0.4347825000000114
        },
        {
          "name": "F#2",
          "midi": 42,
          "time": 256.0868925000023,
          "velocity": 1,
          "duration": 0.434782499999983
        },
        {
          "name": "F#2",
          "midi": 42,
          "time": 256.5216750000023,
          "velocity": 1,
          "duration": 0.434782499999983
        },
        {
          "name": "C2",
          "midi": 36,
          "time": 256.9564575000023,
          "velocity": 1,
          "duration": 1.304347499999949
        },
        {
          "name": "F#2",
          "midi": 42,
          "time": 256.9564575000023,
          "velocity": 1,
          "duration": 0.434782499999983
        },
        {
          "name": "F#2",
          "midi": 42,
          "time": 257.39124000000226,
          "velocity": 1,
          "duration": 0.434782499999983
        },
        {
          "name": "F#2",
          "midi": 42,
          "time": 257.82602250000224,
          "velocity": 1,
          "duration": 0.434782499999983
        },
        {
          "name": "D2",
          "midi": 38,
          "time": 258.2608050000022,
          "velocity": 1,
          "duration": 0.434782499999983
        },
        {
          "name": "F#2",
          "midi": 42,
          "time": 258.2608050000022,
          "velocity": 1,
          "duration": 0.434782499999983
        },
        {
          "name": "F#2",
          "midi": 42,
          "time": 258.6955875000022,
          "velocity": 1,
          "duration": 0.434782499999983
        },
        {
          "name": "C2",
          "midi": 36,
          "time": 259.1303700000022,
          "velocity": 1,
          "duration": 0.434782499999983
        },
        {
          "name": "A3",
          "midi": 57,
          "time": 259.1303700000022,
          "velocity": 1,
          "duration": 0.434782499999983
        },
        {
          "name": "C2",
          "midi": 36,
          "time": 259.56515250000217,
          "velocity": 1,
          "duration": 1.304347499999949
        },
        {
          "name": "A3",
          "midi": 57,
          "time": 259.56515250000217,
          "velocity": 1,
          "duration": 0.434782499999983
        },
        {
          "name": "F#2",
          "midi": 42,
          "time": 259.99993500000215,
          "velocity": 1,
          "duration": 0.434782499999983
        },
        {
          "name": "F#2",
          "midi": 42,
          "time": 260.43471750000214,
          "velocity": 1,
          "duration": 0.434782499999983
        },
        {
          "name": "D2",
          "midi": 38,
          "time": 260.8695000000021,
          "velocity": 1,
          "duration": 0.434782499999983
        },
        {
          "name": "F#2",
          "midi": 42,
          "time": 260.8695000000021,
          "velocity": 1,
          "duration": 0.434782499999983
        },
        {
          "name": "F#2",
          "midi": 42,
          "time": 261.3042825000021,
          "velocity": 1,
          "duration": 0.434782499999983
        },
        {
          "name": "F#2",
          "midi": 42,
          "time": 261.7390650000021,
          "velocity": 1,
          "duration": 0.434782499999983
        },
        {
          "name": "C2",
          "midi": 36,
          "time": 262.17384750000207,
          "velocity": 1,
          "duration": 1.304347499999949
        },
        {
          "name": "F#2",
          "midi": 42,
          "time": 262.17384750000207,
          "velocity": 1,
          "duration": 0.434782499999983
        },
        {
          "name": "F#2",
          "midi": 42,
          "time": 262.60863000000205,
          "velocity": 1,
          "duration": 0.434782499999983
        },
        {
          "name": "F#2",
          "midi": 42,
          "time": 263.04341250000203,
          "velocity": 1,
          "duration": 0.434782499999983
        },
        {
          "name": "D2",
          "midi": 38,
          "time": 263.478195000002,
          "velocity": 1,
          "duration": 0.434782499999983
        },
        {
          "name": "F#2",
          "midi": 42,
          "time": 263.478195000002,
          "velocity": 1,
          "duration": 0.434782499999983
        },
        {
          "name": "F#2",
          "midi": 42,
          "time": 263.912977500002,
          "velocity": 1,
          "duration": 0.434782499999983
        },
        {
          "name": "C2",
          "midi": 36,
          "time": 264.347760000002,
          "velocity": 1,
          "duration": 0.434782499999983
        },
        {
          "name": "A3",
          "midi": 57,
          "time": 264.347760000002,
          "velocity": 1,
          "duration": 0.434782499999983
        },
        {
          "name": "C2",
          "midi": 36,
          "time": 264.78254250000197,
          "velocity": 1,
          "duration": 1.304347499999949
        },
        {
          "name": "A3",
          "midi": 57,
          "time": 264.78254250000197,
          "velocity": 1,
          "duration": 0.434782499999983
        },
        {
          "name": "F#2",
          "midi": 42,
          "time": 265.21732500000195,
          "velocity": 1,
          "duration": 0.434782499999983
        },
        {
          "name": "F#2",
          "midi": 42,
          "time": 265.65210750000193,
          "velocity": 1,
          "duration": 0.434782499999983
        },
        {
          "name": "D2",
          "midi": 38,
          "time": 266.0868900000019,
          "velocity": 1,
          "duration": 0.434782499999983
        },
        {
          "name": "F#2",
          "midi": 42,
          "time": 266.0868900000019,
          "velocity": 1,
          "duration": 0.434782499999983
        },
        {
          "name": "F#2",
          "midi": 42,
          "time": 266.5216725000019,
          "velocity": 1,
          "duration": 0.434782499999983
        },
        {
          "name": "F#2",
          "midi": 42,
          "time": 266.9564550000019,
          "velocity": 1,
          "duration": 0.434782499999983
        },
        {
          "name": "C2",
          "midi": 36,
          "time": 267.39123750000186,
          "velocity": 1,
          "duration": 1.304347499999949
        },
        {
          "name": "F#2",
          "midi": 42,
          "time": 267.39123750000186,
          "velocity": 1,
          "duration": 0.434782499999983
        },
        {
          "name": "F#2",
          "midi": 42,
          "time": 267.82602000000185,
          "velocity": 1,
          "duration": 0.434782499999983
        },
        {
          "name": "F#2",
          "midi": 42,
          "time": 268.26080250000183,
          "velocity": 1,
          "duration": 0.434782499999983
        },
        {
          "name": "D2",
          "midi": 38,
          "time": 268.6955850000018,
          "velocity": 1,
          "duration": 0.434782499999983
        },
        {
          "name": "F#2",
          "midi": 42,
          "time": 268.6955850000018,
          "velocity": 1,
          "duration": 0.434782499999983
        },
        {
          "name": "F#2",
          "midi": 42,
          "time": 269.1303675000018,
          "velocity": 1,
          "duration": 0.434782499999983
        },
        {
          "name": "C2",
          "midi": 36,
          "time": 269.5651500000018,
          "velocity": 1,
          "duration": 0.434782499999983
        },
        {
          "name": "A3",
          "midi": 57,
          "time": 269.5651500000018,
          "velocity": 1,
          "duration": 0.434782499999983
        },
        {
          "name": "C2",
          "midi": 36,
          "time": 269.99993250000176,
          "velocity": 1,
          "duration": 1.304347499999949
        },
        {
          "name": "A3",
          "midi": 57,
          "time": 269.99993250000176,
          "velocity": 1,
          "duration": 0.434782499999983
        },
        {
          "name": "F#2",
          "midi": 42,
          "time": 270.43471500000175,
          "velocity": 1,
          "duration": 0.434782499999983
        },
        {
          "name": "F#2",
          "midi": 42,
          "time": 270.8694975000017,
          "velocity": 1,
          "duration": 0.434782499999983
        },
        {
          "name": "D2",
          "midi": 38,
          "time": 271.3042800000017,
          "velocity": 1,
          "duration": 0.434782499999983
        },
        {
          "name": "F#2",
          "midi": 42,
          "time": 271.3042800000017,
          "velocity": 1,
          "duration": 0.434782499999983
        },
        {
          "name": "F#2",
          "midi": 42,
          "time": 271.7390625000017,
          "velocity": 1,
          "duration": 0.434782499999983
        },
        {
          "name": "F#2",
          "midi": 42,
          "time": 272.1738450000017,
          "velocity": 1,
          "duration": 0.434782499999983
        },
        {
          "name": "C2",
          "midi": 36,
          "time": 272.60862750000166,
          "velocity": 1,
          "duration": 1.304347499999949
        },
        {
          "name": "A3",
          "midi": 57,
          "time": 272.60862750000166,
          "velocity": 1,
          "duration": 0.434782499999983
        },
        {
          "name": "F#2",
          "midi": 42,
          "time": 273.04341000000164,
          "velocity": 1,
          "duration": 0.434782499999983
        },
        {
          "name": "F#2",
          "midi": 42,
          "time": 273.4781925000016,
          "velocity": 1,
          "duration": 0.434782499999983
        },
        {
          "name": "D2",
          "midi": 38,
          "time": 273.9129750000016,
          "velocity": 1,
          "duration": 0.434782499999983
        },
        {
          "name": "F#2",
          "midi": 42,
          "time": 273.9129750000016,
          "velocity": 1,
          "duration": 0.434782499999983
        },
        {
          "name": "F#2",
          "midi": 42,
          "time": 274.3477575000016,
          "velocity": 1,
          "duration": 0.434782499999983
        },
        {
          "name": "F#2",
          "midi": 42,
          "time": 274.7825400000016,
          "velocity": 1,
          "duration": 0.434782499999983
        },
        {
          "name": "C2",
          "midi": 36,
          "time": 275.21732250000156,
          "velocity": 1,
          "duration": 1.304347499999949
        },
        {
          "name": "A3",
          "midi": 57,
          "time": 275.21732250000156,
          "velocity": 1,
          "duration": 0.434782499999983
        },
        {
          "name": "F#2",
          "midi": 42,
          "time": 275.65210500000154,
          "velocity": 1,
          "duration": 0.434782499999983
        },
        {
          "name": "F#2",
          "midi": 42,
          "time": 276.0868875000015,
          "velocity": 1,
          "duration": 0.434782499999983
        },
        {
          "name": "D2",
          "midi": 38,
          "time": 276.5216700000015,
          "velocity": 1,
          "duration": 0.434782499999983
        },
        {
          "name": "F#2",
          "midi": 42,
          "time": 276.5216700000015,
          "velocity": 1,
          "duration": 0.434782499999983
        },
        {
          "name": "F#2",
          "midi": 42,
          "time": 276.9564525000015,
          "velocity": 1,
          "duration": 0.434782499999983
        },
        {
          "name": "F#2",
          "midi": 42,
          "time": 277.3912350000015,
          "velocity": 1,
          "duration": 0.434782499999983
        },
        {
          "name": "C2",
          "midi": 36,
          "time": 277.82601750000146,
          "velocity": 1,
          "duration": 1.304347499999949
        },
        {
          "name": "A3",
          "midi": 57,
          "time": 277.82601750000146,
          "velocity": 1,
          "duration": 0.434782499999983
        },
        {
          "name": "A2",
          "midi": 45,
          "time": 278.26080000000144,
          "velocity": 1,
          "duration": 0.434782499999983
        },
        {
          "name": "F#2",
          "midi": 42,
          "time": 278.26080000000144,
          "velocity": 1,
          "duration": 0.434782499999983
        },
        {
          "name": "F#2",
          "midi": 42,
          "time": 278.6955825000014,
          "velocity": 1,
          "duration": 0.434782499999983
        },
        {
          "name": "C2",
          "midi": 36,
          "time": 279.1303650000014,
          "velocity": 1,
          "duration": 1.304347499999949
        },
        {
          "name": "F#2",
          "midi": 42,
          "time": 279.1303650000014,
          "velocity": 1,
          "duration": 0.434782499999983
        },
        {
          "name": "A2",
          "midi": 45,
          "time": 279.5651475000014,
          "velocity": 1,
          "duration": 0.434782499999983
        },
        {
          "name": "F#2",
          "midi": 42,
          "time": 279.5651475000014,
          "velocity": 1,
          "duration": 0.434782499999983
        },
        {
          "name": "F#2",
          "midi": 42,
          "time": 279.99993000000137,
          "velocity": 1,
          "duration": 0.434782499999983
        },
        {
          "name": "C2",
          "midi": 36,
          "time": 280.43471250000135,
          "velocity": 1,
          "duration": 1.304347499999949
        },
        {
          "name": "A3",
          "midi": 57,
          "time": 280.43471250000135,
          "velocity": 1,
          "duration": 0.434782499999983
        },
        {
          "name": "F#2",
          "midi": 42,
          "time": 280.86949500000134,
          "velocity": 1,
          "duration": 0.434782499999983
        },
        {
          "name": "F#2",
          "midi": 42,
          "time": 281.3042775000013,
          "velocity": 1,
          "duration": 0.434782499999983
        },
        {
          "name": "D2",
          "midi": 38,
          "time": 281.7390600000013,
          "velocity": 1,
          "duration": 0.434782499999983
        },
        {
          "name": "A3",
          "midi": 57,
          "time": 281.7390600000013,
          "velocity": 1,
          "duration": 0.434782499999983
        },
        {
          "name": "F#2",
          "midi": 42,
          "time": 282.1738425000013,
          "velocity": 1,
          "duration": 0.434782499999983
        },
        {
          "name": "F#2",
          "midi": 42,
          "time": 282.60862500000127,
          "velocity": 1,
          "duration": 0.434782499999983
        },
        {
          "name": "C2",
          "midi": 36,
          "time": 283.04340750000125,
          "velocity": 1,
          "duration": 1.304347499999949
        },
        {
          "name": "A3",
          "midi": 57,
          "time": 283.04340750000125,
          "velocity": 1,
          "duration": 0.434782499999983
        },
        {
          "name": "A2",
          "midi": 45,
          "time": 283.47819000000123,
          "velocity": 1,
          "duration": 0.434782499999983
        },
        {
          "name": "F#2",
          "midi": 42,
          "time": 283.47819000000123,
          "velocity": 1,
          "duration": 0.434782499999983
        },
        {
          "name": "F#2",
          "midi": 42,
          "time": 283.9129725000012,
          "velocity": 1,
          "duration": 0.434782499999983
        },
        {
          "name": "C2",
          "midi": 36,
          "time": 284.3477550000012,
          "velocity": 1,
          "duration": 1.304347499999949
        },
        {
          "name": "F#2",
          "midi": 42,
          "time": 284.3477550000012,
          "velocity": 1,
          "duration": 0.434782499999983
        },
        {
          "name": "A2",
          "midi": 45,
          "time": 284.7825375000012,
          "velocity": 1,
          "duration": 0.434782499999983
        },
        {
          "name": "F#2",
          "midi": 42,
          "time": 284.7825375000012,
          "velocity": 1,
          "duration": 0.434782499999983
        },
        {
          "name": "F#2",
          "midi": 42,
          "time": 285.21732000000117,
          "velocity": 1,
          "duration": 0.434782499999983
        },
        {
          "name": "C2",
          "midi": 36,
          "time": 285.65210250000115,
          "velocity": 1,
          "duration": 1.304347499999949
        },
        {
          "name": "A3",
          "midi": 57,
          "time": 285.65210250000115,
          "velocity": 1,
          "duration": 0.434782499999983
        },
        {
          "name": "F#2",
          "midi": 42,
          "time": 286.08688500000113,
          "velocity": 1,
          "duration": 0.434782499999983
        },
        {
          "name": "F#2",
          "midi": 42,
          "time": 286.5216675000011,
          "velocity": 1,
          "duration": 0.434782499999983
        },
        {
          "name": "A3",
          "midi": 57,
          "time": 286.9564500000011,
          "velocity": 1,
          "duration": 0.434782499999983
        },
        {
          "name": "D2",
          "midi": 38,
          "time": 286.9564500000011,
          "velocity": 1,
          "duration": 0.434782499999983
        },
        {
          "name": "F#2",
          "midi": 42,
          "time": 287.3912325000011,
          "velocity": 1,
          "duration": 0.434782499999983
        },
        {
          "name": "F#2",
          "midi": 42,
          "time": 287.82601500000106,
          "velocity": 1,
          "duration": 0.434782499999983
        },
        {
          "name": "C2",
          "midi": 36,
          "time": 288.26079750000105,
          "velocity": 1,
          "duration": 1.304347499999949
        },
        {
          "name": "A3",
          "midi": 57,
          "time": 288.26079750000105,
          "velocity": 1,
          "duration": 0.434782499999983
        },
        {
          "name": "A2",
          "midi": 45,
          "time": 288.69558000000103,
          "velocity": 1,
          "duration": 0.434782499999983
        },
        {
          "name": "F#2",
          "midi": 42,
          "time": 288.69558000000103,
          "velocity": 1,
          "duration": 0.434782499999983
        },
        {
          "name": "F#2",
          "midi": 42,
          "time": 289.130362500001,
          "velocity": 1,
          "duration": 0.434782499999983
        },
        {
          "name": "C2",
          "midi": 36,
          "time": 289.565145000001,
          "velocity": 1,
          "duration": 1.304347499999949
        },
        {
          "name": "F#2",
          "midi": 42,
          "time": 289.565145000001,
          "velocity": 1,
          "duration": 0.434782499999983
        },
        {
          "name": "A2",
          "midi": 45,
          "time": 289.999927500001,
          "velocity": 1,
          "duration": 0.434782499999983
        },
        {
          "name": "F#2",
          "midi": 42,
          "time": 289.999927500001,
          "velocity": 1,
          "duration": 0.434782499999983
        },
        {
          "name": "F#2",
          "midi": 42,
          "time": 290.43471000000096,
          "velocity": 1,
          "duration": 0.434782499999983
        },
        {
          "name": "C2",
          "midi": 36,
          "time": 290.86949250000094,
          "velocity": 1,
          "duration": 1.304347499999949
        },
        {
          "name": "A3",
          "midi": 57,
          "time": 290.86949250000094,
          "velocity": 1,
          "duration": 0.434782499999983
        },
        {
          "name": "F#2",
          "midi": 42,
          "time": 291.3042750000009,
          "velocity": 1,
          "duration": 0.434782499999983
        },
        {
          "name": "F#2",
          "midi": 42,
          "time": 291.7390575000009,
          "velocity": 1,
          "duration": 0.434782499999983
        },
        {
          "name": "D2",
          "midi": 38,
          "time": 292.1738400000009,
          "velocity": 1,
          "duration": 0.434782499999983
        },
        {
          "name": "A3",
          "midi": 57,
          "time": 292.1738400000009,
          "velocity": 1,
          "duration": 0.434782499999983
        },
        {
          "name": "F#2",
          "midi": 42,
          "time": 292.6086225000009,
          "velocity": 1,
          "duration": 0.434782499999983
        },
        {
          "name": "F#2",
          "midi": 42,
          "time": 293.04340500000086,
          "velocity": 1,
          "duration": 0.434782499999983
        },
        {
          "name": "C2",
          "midi": 36,
          "time": 293.47818750000084,
          "velocity": 1,
          "duration": 1.304347499999949
        },
        {
          "name": "A3",
          "midi": 57,
          "time": 293.47818750000084,
          "velocity": 1,
          "duration": 0.434782499999983
        },
        {
          "name": "A2",
          "midi": 45,
          "time": 293.9129700000008,
          "velocity": 1,
          "duration": 0.434782499999983
        },
        {
          "name": "F#2",
          "midi": 42,
          "time": 293.9129700000008,
          "velocity": 1,
          "duration": 0.434782499999983
        },
        {
          "name": "F#2",
          "midi": 42,
          "time": 294.3477525000008,
          "velocity": 1,
          "duration": 0.434782499999983
        },
        {
          "name": "C2",
          "midi": 36,
          "time": 294.7825350000008,
          "velocity": 1,
          "duration": 1.304347499999949
        },
        {
          "name": "F#2",
          "midi": 42,
          "time": 294.7825350000008,
          "velocity": 1,
          "duration": 0.434782499999983
        },
        {
          "name": "A2",
          "midi": 45,
          "time": 295.2173175000008,
          "velocity": 1,
          "duration": 0.434782499999983
        },
        {
          "name": "F#2",
          "midi": 42,
          "time": 295.2173175000008,
          "velocity": 1,
          "duration": 0.434782499999983
        },
        {
          "name": "F#2",
          "midi": 42,
          "time": 295.65210000000076,
          "velocity": 1,
          "duration": 0.434782499999983
        },
        {
          "name": "C2",
          "midi": 36,
          "time": 296.08688250000074,
          "velocity": 1,
          "duration": 1.304347499999949
        },
        {
          "name": "A3",
          "midi": 57,
          "time": 296.08688250000074,
          "velocity": 1,
          "duration": 0.434782499999983
        },
        {
          "name": "F#2",
          "midi": 42,
          "time": 296.5216650000007,
          "velocity": 1,
          "duration": 0.434782499999983
        },
        {
          "name": "F#2",
          "midi": 42,
          "time": 296.9564475000007,
          "velocity": 1,
          "duration": 0.434782499999983
        },
        {
          "name": "D2",
          "midi": 38,
          "time": 297.3912300000007,
          "velocity": 1,
          "duration": 0.434782499999983
        },
        {
          "name": "A3",
          "midi": 57,
          "time": 297.3912300000007,
          "velocity": 1,
          "duration": 0.434782499999983
        },
        {
          "name": "F#2",
          "midi": 42,
          "time": 297.8260125000007,
          "velocity": 1,
          "duration": 0.434782499999983
        },
        {
          "name": "F#2",
          "midi": 42,
          "time": 298.26079500000066,
          "velocity": 1,
          "duration": 0.434782499999983
        },
        {
          "name": "C2",
          "midi": 36,
          "time": 298.69557750000064,
          "velocity": 1,
          "duration": 1.304347499999949
        },
        {
          "name": "A3",
          "midi": 57,
          "time": 298.69557750000064,
          "velocity": 1,
          "duration": 0.434782499999983
        },
        {
          "name": "F#2",
          "midi": 42,
          "time": 299.1303600000006,
          "velocity": 1,
          "duration": 0.434782499999983
        },
        {
          "name": "F#2",
          "midi": 42,
          "time": 299.5651425000006,
          "velocity": 1,
          "duration": 0.434782499999983
        },
        {
          "name": "C2",
          "midi": 36,
          "time": 299.9999250000006,
          "velocity": 1,
          "duration": 1.304347499999949
        },
        {
          "name": "A3",
          "midi": 57,
          "time": 299.9999250000006,
          "velocity": 1,
          "duration": 0.434782499999983
        },
        {
          "name": "F#2",
          "midi": 42,
          "time": 300.43470750000057,
          "velocity": 1,
          "duration": 0.434782499999983
        },
        {
          "name": "F#2",
          "midi": 42,
          "time": 300.86949000000055,
          "velocity": 1,
          "duration": 0.434782499999983
        },
        {
          "name": "D2",
          "midi": 38,
          "time": 301.30427250000054,
          "velocity": 1,
          "duration": 0.434782499999983
        },
        {
          "name": "F#2",
          "midi": 42,
          "time": 301.30427250000054,
          "velocity": 1,
          "duration": 0.434782499999983
        },
        {
          "name": "F#2",
          "midi": 42,
          "time": 301.7390550000005,
          "velocity": 1,
          "duration": 0.434782499999983
        },
        {
          "name": "D2",
          "midi": 38,
          "time": 301.7390550000005,
          "velocity": 1,
          "duration": 0.434782499999983
        },
        {
          "name": "D2",
          "midi": 38,
          "time": 302.1738375000005,
          "velocity": 1,
          "duration": 0.434782499999983
        },
        {
          "name": "F#2",
          "midi": 42,
          "time": 302.1738375000005,
          "velocity": 1,
          "duration": 0.434782499999983
        },
        {
          "name": "D3",
          "midi": 50,
          "time": 302.6086200000005,
          "velocity": 1,
          "duration": 0.2173912499999915
        },
        {
          "name": "D2",
          "midi": 38,
          "time": 302.6086200000005,
          "velocity": 1,
          "duration": 0.2173912499999915
        },
        {
          "name": "D3",
          "midi": 50,
          "time": 302.8260112500005,
          "velocity": 1,
          "duration": 0.2173912499999915
        },
        {
          "name": "D2",
          "midi": 38,
          "time": 302.8260112500005,
          "velocity": 1,
          "duration": 0.2173912499999915
        },
        {
          "name": "D3",
          "midi": 50,
          "time": 303.04340250000047,
          "velocity": 1,
          "duration": 0.2173912499999915
        },
        {
          "name": "D2",
          "midi": 38,
          "time": 303.04340250000047,
          "velocity": 1,
          "duration": 0.2173912499999915
        },
        {
          "name": "D3",
          "midi": 50,
          "time": 303.26079375000046,
          "velocity": 1,
          "duration": 0.2173912499999915
        },
        {
          "name": "D2",
          "midi": 38,
          "time": 303.26079375000046,
          "velocity": 1,
          "duration": 0.2173912499999915
        },
        {
          "name": "D3",
          "midi": 50,
          "time": 303.47818500000045,
          "velocity": 1,
          "duration": 0.2173912499999915
        },
        {
          "name": "D2",
          "midi": 38,
          "time": 303.47818500000045,
          "velocity": 1,
          "duration": 0.2173912499999915
        },
        {
          "name": "D3",
          "midi": 50,
          "time": 303.69557625000044,
          "velocity": 1,
          "duration": 0.2173912499999915
        },
        {
          "name": "D2",
          "midi": 38,
          "time": 303.69557625000044,
          "velocity": 1,
          "duration": 0.2173912499999915
        },
        {
          "name": "G2",
          "midi": 43,
          "time": 303.91296750000043,
          "velocity": 1,
          "duration": 0.2173912499999915
        },
        {
          "name": "D2",
          "midi": 38,
          "time": 303.91296750000043,
          "velocity": 1,
          "duration": 0.2173912499999915
        },
        {
          "name": "G2",
          "midi": 43,
          "time": 304.1303587500004,
          "velocity": 1,
          "duration": 0.2173912499999915
        },
        {
          "name": "D2",
          "midi": 38,
          "time": 304.1303587500004,
          "velocity": 1,
          "duration": 0.2173912499999915
        },
        {
          "name": "G2",
          "midi": 43,
          "time": 304.3477500000004,
          "velocity": 1,
          "duration": 0.2173912499999915
        },
        {
          "name": "D2",
          "midi": 38,
          "time": 304.3477500000004,
          "velocity": 1,
          "duration": 0.2173912499999915
        },
        {
          "name": "G2",
          "midi": 43,
          "time": 304.5651412500004,
          "velocity": 1,
          "duration": 0.2173912499999915
        },
        {
          "name": "D2",
          "midi": 38,
          "time": 304.5651412500004,
          "velocity": 1,
          "duration": 0.2173912499999915
        },
        {
          "name": "G2",
          "midi": 43,
          "time": 304.7825325000004,
          "velocity": 1,
          "duration": 0.2173912499999915
        },
        {
          "name": "D2",
          "midi": 38,
          "time": 304.7825325000004,
          "velocity": 1,
          "duration": 0.2173912499999915
        },
        {
          "name": "G2",
          "midi": 43,
          "time": 304.9999237500004,
          "velocity": 1,
          "duration": 0.2173912499999915
        },
        {
          "name": "D2",
          "midi": 38,
          "time": 304.9999237500004,
          "velocity": 1,
          "duration": 0.2173912499999915
        },
        {
          "name": "C2",
          "midi": 36,
          "time": 305.2173150000004,
          "velocity": 1,
          "duration": 1.304347499999949
        },
        {
          "name": "A3",
          "midi": 57,
          "time": 305.2173150000004,
          "velocity": 1,
          "duration": 0.434782499999983
        },
        {
          "name": "F#2",
          "midi": 42,
          "time": 305.65209750000037,
          "velocity": 1,
          "duration": 0.434782499999983
        },
        {
          "name": "F#2",
          "midi": 42,
          "time": 306.08688000000035,
          "velocity": 1,
          "duration": 0.434782499999983
        },
        {
          "name": "D2",
          "midi": 38,
          "time": 306.52166250000033,
          "velocity": 1,
          "duration": 0.434782499999983
        },
        {
          "name": "F#2",
          "midi": 42,
          "time": 306.52166250000033,
          "velocity": 1,
          "duration": 0.434782499999983
        },
        {
          "name": "F#2",
          "midi": 42,
          "time": 306.9564450000003,
          "velocity": 1,
          "duration": 0.434782499999983
        },
        {
          "name": "F#2",
          "midi": 42,
          "time": 307.3912275000003,
          "velocity": 1,
          "duration": 0.434782499999983
        },
        {
          "name": "C2",
          "midi": 36,
          "time": 307.8260100000003,
          "velocity": 1,
          "duration": 0.869564999999966
        },
        {
          "name": "F#2",
          "midi": 42,
          "time": 307.8260100000003,
          "velocity": 1,
          "duration": 0.434782499999983
        },
        {
          "name": "F#2",
          "midi": 42,
          "time": 308.26079250000026,
          "velocity": 1,
          "duration": 0.434782499999983
        },
        {
          "name": "F#2",
          "midi": 42,
          "time": 308.69557500000025,
          "velocity": 1,
          "duration": 0.434782499999983
        },
        {
          "name": "D2",
          "midi": 38,
          "time": 309.13035750000023,
          "velocity": 1,
          "duration": 0.434782499999983
        },
        {
          "name": "F#2",
          "midi": 42,
          "time": 309.13035750000023,
          "velocity": 1,
          "duration": 0.434782499999983
        },
        {
          "name": "F#2",
          "midi": 42,
          "time": 309.5651400000002,
          "velocity": 1,
          "duration": 0.2173912499999915
        },
        {
          "name": "D2",
          "midi": 38,
          "time": 309.7825312500002,
          "velocity": 1,
          "duration": 0.2173912499999915
        },
        {
          "name": "D2",
          "midi": 38,
          "time": 309.9999225000002,
          "velocity": 1,
          "duration": 0.2173912499999915
        },
        {
          "name": "D2",
          "midi": 38,
          "time": 310.2173137500002,
          "velocity": 1,
          "duration": 0.2173912499999915
        },
        {
          "name": "C2",
          "midi": 36,
          "time": 310.4347050000002,
          "velocity": 1,
          "duration": 1.304347499999949
        },
        {
          "name": "A3",
          "midi": 57,
          "time": 310.4347050000002,
          "velocity": 1,
          "duration": 0.434782499999983
        },
        {
          "name": "F#2",
          "midi": 42,
          "time": 310.86948750000016,
          "velocity": 1,
          "duration": 0.434782499999983
        },
        {
          "name": "F#2",
          "midi": 42,
          "time": 311.30427000000014,
          "velocity": 1,
          "duration": 0.434782499999983
        },
        {
          "name": "D2",
          "midi": 38,
          "time": 311.7390525000001,
          "velocity": 1,
          "duration": 0.434782499999983
        },
        {
          "name": "A3",
          "midi": 57,
          "time": 311.7390525000001,
          "velocity": 1,
          "duration": 0.434782499999983
        },
        {
          "name": "F#2",
          "midi": 42,
          "time": 312.1738350000001,
          "velocity": 1,
          "duration": 0.434782499999983
        },
        {
          "name": "C2",
          "midi": 36,
          "time": 312.3912262500001,
          "velocity": 1,
          "duration": 0.2173912499999915
        },
        {
          "name": "D2",
          "midi": 38,
          "time": 312.6086175000001,
          "velocity": 1,
          "duration": 0.434782499999983
        },
        {
          "name": "F#2",
          "midi": 42,
          "time": 312.6086175000001,
          "velocity": 1,
          "duration": 0.434782499999983
        },
        {
          "name": "D2",
          "midi": 38,
          "time": 313.0434000000001,
          "velocity": 1,
          "duration": 0.434782499999983
        },
        {
          "name": "F#2",
          "midi": 42,
          "time": 313.0434000000001,
          "velocity": 1,
          "duration": 0.434782499999983
        },
        {
          "name": "F#2",
          "midi": 42,
          "time": 313.47818250000006,
          "velocity": 1,
          "duration": 0.434782499999983
        },
        {
          "name": "C2",
          "midi": 36,
          "time": 313.69557375000005,
          "velocity": 1,
          "duration": 0.2173912499999915
        },
        {
          "name": "D2",
          "midi": 38,
          "time": 313.91296500000004,
          "velocity": 1,
          "duration": 0.434782499999983
        },
        {
          "name": "F#2",
          "midi": 42,
          "time": 313.91296500000004,
          "velocity": 1,
          "duration": 0.434782499999983
        },
        {
          "name": "D2",
          "midi": 38,
          "time": 314.3477475,
          "velocity": 1,
          "duration": 0.434782499999983
        },
        {
          "name": "F#2",
          "midi": 42,
          "time": 314.3477475,
          "velocity": 1,
          "duration": 0.434782499999983
        },
        {
          "name": "F#2",
          "midi": 42,
          "time": 314.78253,
          "velocity": 1,
          "duration": 0.2173912499999915
        },
        {
          "name": "D2",
          "midi": 38,
          "time": 314.99992125,
          "velocity": 1,
          "duration": 0.2173912499999915
        },
        {
          "name": "B2",
          "midi": 47,
          "time": 315.2173125,
          "velocity": 1,
          "duration": 0.2173912499999915
        },
        {
          "name": "B2",
          "midi": 47,
          "time": 315.43470375,
          "velocity": 1,
          "duration": 0.2173912499999915
        },
        {
          "name": "C2",
          "midi": 36,
          "time": 315.652095,
          "velocity": 1,
          "duration": 1.304347499999949
        },
        {
          "name": "A3",
          "midi": 57,
          "time": 315.652095,
          "velocity": 1,
          "duration": 0.434782499999983
        },
        {
          "name": "F#2",
          "midi": 42,
          "time": 316.08687749999996,
          "velocity": 1,
          "duration": 0.434782499999983
        },
        {
          "name": "F#2",
          "midi": 42,
          "time": 316.52165999999994,
          "velocity": 1,
          "duration": 0.434782499999983
        },
        {
          "name": "D2",
          "midi": 38,
          "time": 316.9564424999999,
          "velocity": 1,
          "duration": 0.434782499999983
        },
        {
          "name": "A3",
          "midi": 57,
          "time": 316.9564424999999,
          "velocity": 1,
          "duration": 0.434782499999983
        },
        {
          "name": "F#2",
          "midi": 42,
          "time": 317.3912249999999,
          "velocity": 1,
          "duration": 0.2173912499999915
        },
        {
          "name": "D2",
          "midi": 38,
          "time": 317.6086162499999,
          "velocity": 1,
          "duration": 0.2173912499999915
        },
        {
          "name": "B2",
          "midi": 47,
          "time": 317.8260074999999,
          "velocity": 1,
          "duration": 0.434782499999983
        },
        {
          "name": "B2",
          "midi": 47,
          "time": 318.2607899999999,
          "velocity": 1,
          "duration": 0.434782499999983
        },
        {
          "name": "D2",
          "midi": 38,
          "time": 318.2607899999999,
          "velocity": 1,
          "duration": 0.434782499999983
        },
        {
          "name": "B2",
          "midi": 47,
          "time": 318.69557249999986,
          "velocity": 1,
          "duration": 0.2173912499999915
        },
        {
          "name": "D2",
          "midi": 38,
          "time": 318.91296374999985,
          "velocity": 1,
          "duration": 0.2173912499999915
        },
        {
          "name": "B2",
          "midi": 47,
          "time": 319.13035499999984,
          "velocity": 1,
          "duration": 0.434782499999983
        },
        {
          "name": "C3",
          "midi": 48,
          "time": 319.5651374999998,
          "velocity": 1,
          "duration": 0.434782499999983
        },
        {
          "name": "D2",
          "midi": 38,
          "time": 319.5651374999998,
          "velocity": 1,
          "duration": 0.434782499999983
        },
        {
          "name": "C3",
          "midi": 48,
          "time": 319.9999199999998,
          "velocity": 1,
          "duration": 0.2173912499999915
        },
        {
          "name": "D2",
          "midi": 38,
          "time": 320.2173112499998,
          "velocity": 1,
          "duration": 0.2173912499999915
        },
        {
          "name": "C3",
          "midi": 48,
          "time": 320.4347024999998,
          "velocity": 1,
          "duration": 0.434782499999983
        },
        {
          "name": "D2",
          "midi": 38,
          "time": 320.86948499999977,
          "velocity": 1,
          "duration": 0.434782499999983
        },
        {
          "name": "A3",
          "midi": 57,
          "time": 320.86948499999977,
          "velocity": 1,
          "duration": 0.434782499999983
        },
        {
          "name": "F#2",
          "midi": 42,
          "time": 321.30426749999975,
          "velocity": 1,
          "duration": 0.434782499999983
        },
        {
          "name": "F#2",
          "midi": 42,
          "time": 321.73904999999974,
          "velocity": 1,
          "duration": 0.434782499999983
        },
        {
          "name": "D2",
          "midi": 38,
          "time": 322.1738324999997,
          "velocity": 1,
          "duration": 0.434782499999983
        },
        {
          "name": "A3",
          "midi": 57,
          "time": 322.1738324999997,
          "velocity": 1,
          "duration": 0.434782499999983
        },
        {
          "name": "F#2",
          "midi": 42,
          "time": 322.6086149999997,
          "velocity": 1,
          "duration": 0.434782499999983
        },
        {
          "name": "C2",
          "midi": 36,
          "time": 323.0433974999997,
          "velocity": 1,
          "duration": 0.434782499999983
        },
        {
          "name": "A3",
          "midi": 57,
          "time": 323.0433974999997,
          "velocity": 1,
          "duration": 0.434782499999983
        },
        {
          "name": "C2",
          "midi": 36,
          "time": 323.47817999999967,
          "velocity": 1,
          "duration": 1.3043475000000058
        },
        {
          "name": "A3",
          "midi": 57,
          "time": 323.47817999999967,
          "velocity": 1,
          "duration": 2.6086950000000115
        }
      ],
      "controlChanges": {
        "7": [
          {
            "number": 7,
            "time": 0,
            "value": 0.7795275590551181
          }
        ]
      },
      "id": 8,
      "name": "Drums",
      "channelNumber": 9,
      "isPercussion": true
    },
    {
      "startTime": 61.304332499999994,
      "duration": 339.1303500000005,
      "length": 361,
      "notes": [
        {
          "name": "E1",
          "midi": 28,
          "time": 61.304332499999994,
          "velocity": 1,
          "duration": 1.3043474999999987
        },
        {
          "name": "E2",
          "midi": 40,
          "time": 62.60867999999999,
          "velocity": 1,
          "duration": 1.3043474999999987
        },
        {
          "name": "D2",
          "midi": 38,
          "time": 63.91302749999999,
          "velocity": 1,
          "duration": 1.3043474999999987
        },
        {
          "name": "C2",
          "midi": 36,
          "time": 65.21737499999999,
          "velocity": 1,
          "duration": 0.8695649999999944
        },
        {
          "name": "G1",
          "midi": 31,
          "time": 66.08693999999998,
          "velocity": 1,
          "duration": 0.2173912500000057
        },
        {
          "name": "F#1",
          "midi": 30,
          "time": 66.30433124999999,
          "velocity": 1,
          "duration": 0.2173912500000057
        },
        {
          "name": "E1",
          "midi": 28,
          "time": 66.5217225,
          "velocity": 1,
          "duration": 1.3043475000000058
        },
        {
          "name": "E2",
          "midi": 40,
          "time": 67.82607,
          "velocity": 1,
          "duration": 1.3043475000000058
        },
        {
          "name": "D2",
          "midi": 38,
          "time": 69.13041750000001,
          "velocity": 1,
          "duration": 1.3043475000000058
        },
        {
          "name": "C2",
          "midi": 36,
          "time": 70.43476500000001,
          "velocity": 1,
          "duration": 0.8695649999999944
        },
        {
          "name": "G1",
          "midi": 31,
          "time": 71.30433000000001,
          "velocity": 1,
          "duration": 0.2173912500000057
        },
        {
          "name": "F#1",
          "midi": 30,
          "time": 71.52172125000001,
          "velocity": 1,
          "duration": 0.2173912500000057
        },
        {
          "name": "E1",
          "midi": 28,
          "time": 71.73911250000002,
          "velocity": 1,
          "duration": 1.3043475000000058
        },
        {
          "name": "E2",
          "midi": 40,
          "time": 73.04346000000002,
          "velocity": 1,
          "duration": 1.3043475000000058
        },
        {
          "name": "D2",
          "midi": 38,
          "time": 74.34780750000003,
          "velocity": 1,
          "duration": 1.3043475000000058
        },
        {
          "name": "C2",
          "midi": 36,
          "time": 75.65215500000004,
          "velocity": 1,
          "duration": 0.8695649999999944
        },
        {
          "name": "G1",
          "midi": 31,
          "time": 76.52172000000003,
          "velocity": 1,
          "duration": 0.2173912500000057
        },
        {
          "name": "F#1",
          "midi": 30,
          "time": 76.73911125000004,
          "velocity": 1,
          "duration": 0.2173912500000057
        },
        {
          "name": "G1",
          "midi": 31,
          "time": 76.95650250000004,
          "velocity": 1,
          "duration": 1.3043475000000058
        },
        {
          "name": "B1",
          "midi": 35,
          "time": 78.26085000000005,
          "velocity": 1,
          "duration": 1.3043475000000058
        },
        {
          "name": "E1",
          "midi": 28,
          "time": 79.56519750000005,
          "velocity": 1,
          "duration": 1.3043475000000058
        },
        {
          "name": "E2",
          "midi": 40,
          "time": 80.86954500000006,
          "velocity": 1,
          "duration": 1.3043475000000058
        },
        {
          "name": "E1",
          "midi": 28,
          "time": 82.17389250000006,
          "velocity": 1,
          "duration": 0.2173912500000057
        },
        {
          "name": "E1",
          "midi": 28,
          "time": 82.39128375000007,
          "velocity": 1,
          "duration": 0.4347824999999972
        },
        {
          "name": "E1",
          "midi": 28,
          "time": 82.82606625000007,
          "velocity": 1,
          "duration": 0.2173912500000057
        },
        {
          "name": "E1",
          "midi": 28,
          "time": 83.04345750000007,
          "velocity": 1,
          "duration": 0.4347824999999972
        },
        {
          "name": "E2",
          "midi": 40,
          "time": 83.47824000000007,
          "velocity": 1,
          "duration": 0.8695649999999944
        },
        {
          "name": "G1",
          "midi": 31,
          "time": 84.34780500000006,
          "velocity": 1,
          "duration": 0.2173912500000057
        },
        {
          "name": "F#1",
          "midi": 30,
          "time": 84.56519625000007,
          "velocity": 1,
          "duration": 0.2173912500000057
        },
        {
          "name": "E1",
          "midi": 28,
          "time": 84.78258750000008,
          "velocity": 1,
          "duration": 1.3043475000000058
        },
        {
          "name": "E2",
          "midi": 40,
          "time": 86.08693500000008,
          "velocity": 1,
          "duration": 1.3043475000000058
        },
        {
          "name": "D2",
          "midi": 38,
          "time": 87.39128250000009,
          "velocity": 1,
          "duration": 1.3043475000000058
        },
        {
          "name": "C2",
          "midi": 36,
          "time": 88.6956300000001,
          "velocity": 1,
          "duration": 0.8695649999999944
        },
        {
          "name": "G1",
          "midi": 31,
          "time": 89.56519500000009,
          "velocity": 1,
          "duration": 0.2173912500000057
        },
        {
          "name": "F#1",
          "midi": 30,
          "time": 89.7825862500001,
          "velocity": 1,
          "duration": 0.2173912500000057
        },
        {
          "name": "E1",
          "midi": 28,
          "time": 89.9999775000001,
          "velocity": 1,
          "duration": 1.3043475000000058
        },
        {
          "name": "E2",
          "midi": 40,
          "time": 91.3043250000001,
          "velocity": 1,
          "duration": 1.3043475000000058
        },
        {
          "name": "D2",
          "midi": 38,
          "time": 92.60867250000011,
          "velocity": 1,
          "duration": 1.3043475000000058
        },
        {
          "name": "C2",
          "midi": 36,
          "time": 93.91302000000012,
          "velocity": 1,
          "duration": 0.8695649999999944
        },
        {
          "name": "G1",
          "midi": 31,
          "time": 94.78258500000011,
          "velocity": 1,
          "duration": 0.2173912500000057
        },
        {
          "name": "F#1",
          "midi": 30,
          "time": 94.99997625000012,
          "velocity": 1,
          "duration": 0.2173912500000057
        },
        {
          "name": "E1",
          "midi": 28,
          "time": 95.21736750000012,
          "velocity": 1,
          "duration": 1.3043475000000058
        },
        {
          "name": "E2",
          "midi": 40,
          "time": 96.52171500000013,
          "velocity": 1,
          "duration": 1.3043475000000058
        },
        {
          "name": "D2",
          "midi": 38,
          "time": 97.82606250000013,
          "velocity": 1,
          "duration": 1.3043475000000058
        },
        {
          "name": "C2",
          "midi": 36,
          "time": 99.13041000000014,
          "velocity": 1,
          "duration": 0.8695649999999944
        },
        {
          "name": "G1",
          "midi": 31,
          "time": 99.99997500000013,
          "velocity": 1,
          "duration": 0.2173912500000057
        },
        {
          "name": "F#1",
          "midi": 30,
          "time": 100.21736625000014,
          "velocity": 1,
          "duration": 0.2173912500000057
        },
        {
          "name": "G1",
          "midi": 31,
          "time": 100.43475750000015,
          "velocity": 1,
          "duration": 1.3043475000000058
        },
        {
          "name": "B1",
          "midi": 35,
          "time": 101.73910500000015,
          "velocity": 1,
          "duration": 1.3043475000000058
        },
        {
          "name": "E1",
          "midi": 28,
          "time": 103.04345250000016,
          "velocity": 1,
          "duration": 1.3043475000000058
        },
        {
          "name": "E2",
          "midi": 40,
          "time": 104.34780000000016,
          "velocity": 1,
          "duration": 1.3043475000000058
        },
        {
          "name": "E1",
          "midi": 28,
          "time": 105.65214750000017,
          "velocity": 1,
          "duration": 0.2173912500000057
        },
        {
          "name": "E1",
          "midi": 28,
          "time": 105.86953875000017,
          "velocity": 1,
          "duration": 0.4347824999999972
        },
        {
          "name": "E1",
          "midi": 28,
          "time": 106.30432125000017,
          "velocity": 1,
          "duration": 0.2173912500000057
        },
        {
          "name": "E1",
          "midi": 28,
          "time": 106.52171250000018,
          "velocity": 1,
          "duration": 0.4347824999999972
        },
        {
          "name": "E2",
          "midi": 40,
          "time": 106.95649500000017,
          "velocity": 1,
          "duration": 0.8695649999999944
        },
        {
          "name": "G1",
          "midi": 31,
          "time": 107.82606000000017,
          "velocity": 1,
          "duration": 0.2173912500000057
        },
        {
          "name": "F#1",
          "midi": 30,
          "time": 108.04345125000017,
          "velocity": 1,
          "duration": 0.2173912500000057
        },
        {
          "name": "E1",
          "midi": 28,
          "time": 108.26084250000018,
          "velocity": 1,
          "duration": 1.3043475000000058
        },
        {
          "name": "E2",
          "midi": 40,
          "time": 109.56519000000019,
          "velocity": 1,
          "duration": 1.3043475000000058
        },
        {
          "name": "D2",
          "midi": 38,
          "time": 110.86953750000019,
          "velocity": 1,
          "duration": 1.3043475000000058
        },
        {
          "name": "C2",
          "midi": 36,
          "time": 112.1738850000002,
          "velocity": 1,
          "duration": 0.8695649999999944
        },
        {
          "name": "G1",
          "midi": 31,
          "time": 113.04345000000019,
          "velocity": 1,
          "duration": 0.2173912500000057
        },
        {
          "name": "F#1",
          "midi": 30,
          "time": 113.2608412500002,
          "velocity": 1,
          "duration": 0.2173912500000057
        },
        {
          "name": "E1",
          "midi": 28,
          "time": 113.4782325000002,
          "velocity": 1,
          "duration": 1.3043475000000058
        },
        {
          "name": "E2",
          "midi": 40,
          "time": 114.78258000000021,
          "velocity": 1,
          "duration": 1.3043475000000058
        },
        {
          "name": "D2",
          "midi": 38,
          "time": 116.08692750000021,
          "velocity": 1,
          "duration": 1.3043475000000058
        },
        {
          "name": "C2",
          "midi": 36,
          "time": 117.39127500000022,
          "velocity": 1,
          "duration": 0.8695649999999944
        },
        {
          "name": "G1",
          "midi": 31,
          "time": 118.26084000000021,
          "velocity": 1,
          "duration": 0.2173912500000057
        },
        {
          "name": "F#1",
          "midi": 30,
          "time": 118.47823125000022,
          "velocity": 1,
          "duration": 0.2173912500000057
        },
        {
          "name": "E1",
          "midi": 28,
          "time": 118.69562250000023,
          "velocity": 1,
          "duration": 1.3043475000000058
        },
        {
          "name": "E2",
          "midi": 40,
          "time": 119.99997000000023,
          "velocity": 1,
          "duration": 1.3043475000000058
        },
        {
          "name": "D2",
          "midi": 38,
          "time": 121.30431750000024,
          "velocity": 1,
          "duration": 1.3043475000000058
        },
        {
          "name": "C2",
          "midi": 36,
          "time": 122.60866500000024,
          "velocity": 1,
          "duration": 0.8695649999999944
        },
        {
          "name": "G1",
          "midi": 31,
          "time": 123.47823000000024,
          "velocity": 1,
          "duration": 0.2173912500000057
        },
        {
          "name": "F#1",
          "midi": 30,
          "time": 123.69562125000024,
          "velocity": 1,
          "duration": 0.2173912500000057
        },
        {
          "name": "G1",
          "midi": 31,
          "time": 123.91301250000025,
          "velocity": 1,
          "duration": 1.3043475000000058
        },
        {
          "name": "B1",
          "midi": 35,
          "time": 125.21736000000026,
          "velocity": 1,
          "duration": 1.3043475000000058
        },
        {
          "name": "E1",
          "midi": 28,
          "time": 126.52170750000026,
          "velocity": 1,
          "duration": 1.3043475000000058
        },
        {
          "name": "E2",
          "midi": 40,
          "time": 127.82605500000027,
          "velocity": 1,
          "duration": 1.3043474999999916
        },
        {
          "name": "C2",
          "midi": 36,
          "time": 129.13040250000026,
          "velocity": 1,
          "duration": 1.3043475000000058
        },
        {
          "name": "A1",
          "midi": 33,
          "time": 130.43475000000026,
          "velocity": 1,
          "duration": 1.3043475000000058
        },
        {
          "name": "D2",
          "midi": 38,
          "time": 131.73909750000027,
          "velocity": 1,
          "duration": 0.4347825000000114
        },
        {
          "name": "D2",
          "midi": 38,
          "time": 132.17388000000028,
          "velocity": 1,
          "duration": 0.4347825000000114
        },
        {
          "name": "D2",
          "midi": 38,
          "time": 132.6086625000003,
          "velocity": 1,
          "duration": 0.4347825000000114
        },
        {
          "name": "D2",
          "midi": 38,
          "time": 133.0434450000003,
          "velocity": 1,
          "duration": 0.4347825000000114
        },
        {
          "name": "D2",
          "midi": 38,
          "time": 133.47822750000032,
          "velocity": 1,
          "duration": 0.4347825000000114
        },
        {
          "name": "D2",
          "midi": 38,
          "time": 133.91301000000033,
          "velocity": 1,
          "duration": 0.4347825000000114
        },
        {
          "name": "C2",
          "midi": 36,
          "time": 134.34779250000034,
          "velocity": 1,
          "duration": 1.3043475000000058
        },
        {
          "name": "A1",
          "midi": 33,
          "time": 135.65214000000034,
          "velocity": 1,
          "duration": 1.3043475000000058
        },
        {
          "name": "D2",
          "midi": 38,
          "time": 136.95648750000035,
          "velocity": 1,
          "duration": 0.4347825000000114
        },
        {
          "name": "D2",
          "midi": 38,
          "time": 137.39127000000036,
          "velocity": 1,
          "duration": 0.4347825000000114
        },
        {
          "name": "D2",
          "midi": 38,
          "time": 137.82605250000037,
          "velocity": 1,
          "duration": 0.4347825000000114
        },
        {
          "name": "D2",
          "midi": 38,
          "time": 138.26083500000038,
          "velocity": 1,
          "duration": 0.4347825000000114
        },
        {
          "name": "D2",
          "midi": 38,
          "time": 138.6956175000004,
          "velocity": 1,
          "duration": 0.4347825000000114
        },
        {
          "name": "D2",
          "midi": 38,
          "time": 139.1304000000004,
          "velocity": 1,
          "duration": 0.4347825000000114
        },
        {
          "name": "C2",
          "midi": 36,
          "time": 139.56518250000042,
          "velocity": 1,
          "duration": 1.3043475000000058
        },
        {
          "name": "A1",
          "midi": 33,
          "time": 140.86953000000042,
          "velocity": 1,
          "duration": 1.3043475000000058
        },
        {
          "name": "D2",
          "midi": 38,
          "time": 142.17387750000043,
          "velocity": 1,
          "duration": 0.4347825000000114
        },
        {
          "name": "D2",
          "midi": 38,
          "time": 142.60866000000044,
          "velocity": 1,
          "duration": 0.4347825000000114
        },
        {
          "name": "D2",
          "midi": 38,
          "time": 143.04344250000045,
          "velocity": 1,
          "duration": 0.4347825000000114
        },
        {
          "name": "E1",
          "midi": 28,
          "time": 143.47822500000046,
          "velocity": 1,
          "duration": 2.6086950000000115
        },
        {
          "name": "E2",
          "midi": 40,
          "time": 146.08692000000048,
          "velocity": 1,
          "duration": 1.3043475000000058
        },
        {
          "name": "E1",
          "midi": 28,
          "time": 147.39126750000048,
          "velocity": 1,
          "duration": 0.8695649999999944
        },
        {
          "name": "G1",
          "midi": 31,
          "time": 148.26083250000048,
          "velocity": 1,
          "duration": 0.2173912499999915
        },
        {
          "name": "F#1",
          "midi": 30,
          "time": 148.47822375000047,
          "velocity": 1,
          "duration": 0.2173912499999915
        },
        {
          "name": "E1",
          "midi": 28,
          "time": 148.69561500000046,
          "velocity": 1,
          "duration": 1.3043475000000058
        },
        {
          "name": "E2",
          "midi": 40,
          "time": 149.99996250000046,
          "velocity": 1,
          "duration": 1.3043475000000058
        },
        {
          "name": "D2",
          "midi": 38,
          "time": 151.30431000000047,
          "velocity": 1,
          "duration": 1.3043475000000058
        },
        {
          "name": "C2",
          "midi": 36,
          "time": 152.60865750000048,
          "velocity": 1,
          "duration": 0.8695649999999944
        },
        {
          "name": "G1",
          "midi": 31,
          "time": 153.47822250000047,
          "velocity": 1,
          "duration": 0.2173912499999915
        },
        {
          "name": "F#1",
          "midi": 30,
          "time": 153.69561375000046,
          "velocity": 1,
          "duration": 0.2173912499999915
        },
        {
          "name": "E1",
          "midi": 28,
          "time": 153.91300500000045,
          "velocity": 1,
          "duration": 1.3043475000000058
        },
        {
          "name": "E2",
          "midi": 40,
          "time": 155.21735250000046,
          "velocity": 1,
          "duration": 1.3043475000000058
        },
        {
          "name": "D2",
          "midi": 38,
          "time": 156.52170000000046,
          "velocity": 1,
          "duration": 1.3043475000000058
        },
        {
          "name": "G2",
          "midi": 43,
          "time": 157.82604750000047,
          "velocity": 1,
          "duration": 0.8695649999999944
        },
        {
          "name": "G1",
          "midi": 31,
          "time": 158.69561250000046,
          "velocity": 1,
          "duration": 0.2173912499999915
        },
        {
          "name": "F#1",
          "midi": 30,
          "time": 158.91300375000046,
          "velocity": 1,
          "duration": 0.2173912499999915
        },
        {
          "name": "E1",
          "midi": 28,
          "time": 159.13039500000045,
          "velocity": 1,
          "duration": 1.3043475000000058
        },
        {
          "name": "E2",
          "midi": 40,
          "time": 160.43474250000045,
          "velocity": 1,
          "duration": 1.3043475000000058
        },
        {
          "name": "D2",
          "midi": 38,
          "time": 161.73909000000046,
          "velocity": 1,
          "duration": 1.3043475000000058
        },
        {
          "name": "C2",
          "midi": 36,
          "time": 163.04343750000046,
          "velocity": 1,
          "duration": 0.8695649999999944
        },
        {
          "name": "G1",
          "midi": 31,
          "time": 163.91300250000046,
          "velocity": 1,
          "duration": 0.2173912499999915
        },
        {
          "name": "F#1",
          "midi": 30,
          "time": 164.13039375000045,
          "velocity": 1,
          "duration": 0.2173912499999915
        },
        {
          "name": "G1",
          "midi": 31,
          "time": 164.34778500000044,
          "velocity": 1,
          "duration": 1.3043475000000058
        },
        {
          "name": "B1",
          "midi": 35,
          "time": 165.65213250000045,
          "velocity": 1,
          "duration": 1.3043475000000058
        },
        {
          "name": "E1",
          "midi": 28,
          "time": 166.95648000000045,
          "velocity": 1,
          "duration": 1.3043475000000058
        },
        {
          "name": "E2",
          "midi": 40,
          "time": 168.26082750000046,
          "velocity": 1,
          "duration": 1.3043475000000058
        },
        {
          "name": "C2",
          "midi": 36,
          "time": 169.56517500000047,
          "velocity": 1,
          "duration": 1.3043475000000058
        },
        {
          "name": "A1",
          "midi": 33,
          "time": 170.86952250000047,
          "velocity": 1,
          "duration": 1.3043475000000058
        },
        {
          "name": "D2",
          "midi": 38,
          "time": 172.17387000000048,
          "velocity": 1,
          "duration": 0.4347825000000114
        },
        {
          "name": "D2",
          "midi": 38,
          "time": 172.6086525000005,
          "velocity": 1,
          "duration": 0.4347825000000114
        },
        {
          "name": "D2",
          "midi": 38,
          "time": 173.0434350000005,
          "velocity": 1,
          "duration": 0.4347825000000114
        },
        {
          "name": "D2",
          "midi": 38,
          "time": 173.4782175000005,
          "velocity": 1,
          "duration": 0.4347825000000114
        },
        {
          "name": "D2",
          "midi": 38,
          "time": 173.91300000000052,
          "velocity": 1,
          "duration": 0.4347825000000114
        },
        {
          "name": "D2",
          "midi": 38,
          "time": 174.34778250000053,
          "velocity": 1,
          "duration": 0.4347825000000114
        },
        {
          "name": "C2",
          "midi": 36,
          "time": 174.78256500000055,
          "velocity": 1,
          "duration": 1.3043475000000058
        },
        {
          "name": "A1",
          "midi": 33,
          "time": 176.08691250000055,
          "velocity": 1,
          "duration": 1.3043475000000058
        },
        {
          "name": "D2",
          "midi": 38,
          "time": 177.39126000000056,
          "velocity": 1,
          "duration": 0.4347825000000114
        },
        {
          "name": "D2",
          "midi": 38,
          "time": 177.82604250000057,
          "velocity": 1,
          "duration": 0.4347825000000114
        },
        {
          "name": "D2",
          "midi": 38,
          "time": 178.26082500000058,
          "velocity": 1,
          "duration": 0.4347825000000114
        },
        {
          "name": "D2",
          "midi": 38,
          "time": 178.6956075000006,
          "velocity": 1,
          "duration": 0.4347825000000114
        },
        {
          "name": "D2",
          "midi": 38,
          "time": 179.1303900000006,
          "velocity": 1,
          "duration": 0.4347825000000114
        },
        {
          "name": "D2",
          "midi": 38,
          "time": 179.5651725000006,
          "velocity": 1,
          "duration": 0.4347825000000114
        },
        {
          "name": "C2",
          "midi": 36,
          "time": 179.99995500000063,
          "velocity": 1,
          "duration": 1.3043475000000058
        },
        {
          "name": "A1",
          "midi": 33,
          "time": 181.30430250000063,
          "velocity": 1,
          "duration": 1.3043475000000058
        },
        {
          "name": "D2",
          "midi": 38,
          "time": 182.60865000000064,
          "velocity": 1,
          "duration": 0.4347825000000114
        },
        {
          "name": "D2",
          "midi": 38,
          "time": 183.04343250000065,
          "velocity": 1,
          "duration": 0.4347825000000114
        },
        {
          "name": "D2",
          "midi": 38,
          "time": 183.47821500000066,
          "velocity": 1,
          "duration": 0.4347825000000114
        },
        {
          "name": "E1",
          "midi": 28,
          "time": 183.91299750000067,
          "velocity": 1,
          "duration": 2.6086950000000115
        },
        {
          "name": "E2",
          "midi": 40,
          "time": 186.52169250000068,
          "velocity": 1,
          "duration": 1.3043475000000058
        },
        {
          "name": "E1",
          "midi": 28,
          "time": 187.8260400000007,
          "velocity": 1,
          "duration": 0.8695649999999944
        },
        {
          "name": "G1",
          "midi": 31,
          "time": 188.69560500000068,
          "velocity": 1,
          "duration": 0.2173912499999915
        },
        {
          "name": "F#1",
          "midi": 30,
          "time": 188.91299625000067,
          "velocity": 1,
          "duration": 0.2173912499999915
        },
        {
          "name": "E1",
          "midi": 28,
          "time": 189.13038750000067,
          "velocity": 1,
          "duration": 0.4347825000000114
        },
        {
          "name": "E2",
          "midi": 40,
          "time": 189.56517000000068,
          "velocity": 1,
          "duration": 0.4347825000000114
        },
        {
          "name": "E2",
          "midi": 40,
          "time": 189.9999525000007,
          "velocity": 1,
          "duration": 0.2173912499999915
        },
        {
          "name": "E2",
          "midi": 40,
          "time": 190.21734375000068,
          "velocity": 1,
          "duration": 0.2173912499999915
        },
        {
          "name": "E1",
          "midi": 28,
          "time": 190.43473500000067,
          "velocity": 1,
          "duration": 0.4347825000000114
        },
        {
          "name": "E2",
          "midi": 40,
          "time": 190.86951750000068,
          "velocity": 1,
          "duration": 0.4347825000000114
        },
        {
          "name": "E2",
          "midi": 40,
          "time": 191.3043000000007,
          "velocity": 1,
          "duration": 0.2173912499999915
        },
        {
          "name": "E2",
          "midi": 40,
          "time": 191.52169125000069,
          "velocity": 1,
          "duration": 0.2173912499999915
        },
        {
          "name": "E1",
          "midi": 28,
          "time": 191.73908250000068,
          "velocity": 1,
          "duration": 0.4347825000000114
        },
        {
          "name": "E2",
          "midi": 40,
          "time": 192.1738650000007,
          "velocity": 1,
          "duration": 0.4347825000000114
        },
        {
          "name": "E2",
          "midi": 40,
          "time": 192.6086475000007,
          "velocity": 1,
          "duration": 0.2173912499999915
        },
        {
          "name": "E2",
          "midi": 40,
          "time": 192.8260387500007,
          "velocity": 1,
          "duration": 0.2173912499999915
        },
        {
          "name": "E1",
          "midi": 28,
          "time": 193.04343000000068,
          "velocity": 1,
          "duration": 0.4347825000000114
        },
        {
          "name": "E2",
          "midi": 40,
          "time": 193.4782125000007,
          "velocity": 1,
          "duration": 0.4347825000000114
        },
        {
          "name": "B1",
          "midi": 35,
          "time": 193.9129950000007,
          "velocity": 1,
          "duration": 0.4347825000000114
        },
        {
          "name": "A1",
          "midi": 33,
          "time": 194.34777750000072,
          "velocity": 1,
          "duration": 2.3913037499999916
        },
        {
          "name": "A1",
          "midi": 33,
          "time": 196.7390812500007,
          "velocity": 1,
          "duration": 0.2173912499999915
        },
        {
          "name": "A1",
          "midi": 33,
          "time": 196.9564725000007,
          "velocity": 1,
          "duration": 2.1739125
        },
        {
          "name": "A1",
          "midi": 33,
          "time": 199.1303850000007,
          "velocity": 1,
          "duration": 0.4347825000000114
        },
        {
          "name": "C2",
          "midi": 36,
          "time": 199.5651675000007,
          "velocity": 1,
          "duration": 1.3043475000000058
        },
        {
          "name": "C2",
          "midi": 36,
          "time": 200.86951500000072,
          "velocity": 1,
          "duration": 0.4347825000000114
        },
        {
          "name": "C2",
          "midi": 36,
          "time": 201.30429750000073,
          "velocity": 1,
          "duration": 0.4347825000000114
        },
        {
          "name": "B1",
          "midi": 35,
          "time": 201.73908000000074,
          "velocity": 1,
          "duration": 0.2173912499999915
        },
        {
          "name": "C2",
          "midi": 36,
          "time": 201.95647125000073,
          "velocity": 1,
          "duration": 0.2173912499999915
        },
        {
          "name": "D2",
          "midi": 38,
          "time": 202.17386250000072,
          "velocity": 1,
          "duration": 1.3043475000000058
        },
        {
          "name": "D2",
          "midi": 38,
          "time": 203.47821000000073,
          "velocity": 1,
          "duration": 0.4347825000000114
        },
        {
          "name": "D2",
          "midi": 38,
          "time": 203.91299250000074,
          "velocity": 1,
          "duration": 0.4347825000000114
        },
        {
          "name": "D2",
          "midi": 38,
          "time": 204.34777500000075,
          "velocity": 1,
          "duration": 0.2173912499999915
        },
        {
          "name": "E2",
          "midi": 40,
          "time": 204.56516625000074,
          "velocity": 1,
          "duration": 0.2173912499999915
        },
        {
          "name": "E1",
          "midi": 28,
          "time": 204.78255750000073,
          "velocity": 1,
          "duration": 1.3043475000000058
        },
        {
          "name": "E2",
          "midi": 40,
          "time": 206.08690500000074,
          "velocity": 1,
          "duration": 0.2173912499999915
        },
        {
          "name": "E1",
          "midi": 28,
          "time": 206.30429625000073,
          "velocity": 1,
          "duration": 0.4347825000000114
        },
        {
          "name": "E1",
          "midi": 28,
          "time": 206.73907875000074,
          "velocity": 1,
          "duration": 0.2173912499999915
        },
        {
          "name": "E2",
          "midi": 40,
          "time": 206.95647000000073,
          "velocity": 1,
          "duration": 0.4347825000000114
        },
        {
          "name": "E1",
          "midi": 28,
          "time": 207.39125250000075,
          "velocity": 1,
          "duration": 1.9565212500000086
        },
        {
          "name": "E1",
          "midi": 28,
          "time": 209.34777375000075,
          "velocity": 1,
          "duration": 0.2173912499999915
        },
        {
          "name": "G1",
          "midi": 31,
          "time": 209.56516500000075,
          "velocity": 1,
          "duration": 0.2173912499999915
        },
        {
          "name": "F#1",
          "midi": 30,
          "time": 209.78255625000074,
          "velocity": 1,
          "duration": 0.2173912499999915
        },
        {
          "name": "E1",
          "midi": 28,
          "time": 209.99994750000073,
          "velocity": 1,
          "duration": 0.4347825000000114
        },
        {
          "name": "E2",
          "midi": 40,
          "time": 210.43473000000074,
          "velocity": 1,
          "duration": 0.4347825000000114
        },
        {
          "name": "E2",
          "midi": 40,
          "time": 210.86951250000075,
          "velocity": 1,
          "duration": 0.2173912499999915
        },
        {
          "name": "E2",
          "midi": 40,
          "time": 211.08690375000074,
          "velocity": 1,
          "duration": 0.2173912499999915
        },
        {
          "name": "E1",
          "midi": 28,
          "time": 211.30429500000074,
          "velocity": 1,
          "duration": 0.4347825000000114
        },
        {
          "name": "E2",
          "midi": 40,
          "time": 211.73907750000075,
          "velocity": 1,
          "duration": 0.4347825000000114
        },
        {
          "name": "E2",
          "midi": 40,
          "time": 212.17386000000076,
          "velocity": 1,
          "duration": 0.2173912499999915
        },
        {
          "name": "E2",
          "midi": 40,
          "time": 212.39125125000075,
          "velocity": 1,
          "duration": 0.2173912499999915
        },
        {
          "name": "E1",
          "midi": 28,
          "time": 212.60864250000074,
          "velocity": 1,
          "duration": 0.4347825000000114
        },
        {
          "name": "E2",
          "midi": 40,
          "time": 213.04342500000075,
          "velocity": 1,
          "duration": 0.4347825000000114
        },
        {
          "name": "E2",
          "midi": 40,
          "time": 213.47820750000076,
          "velocity": 1,
          "duration": 0.2173912499999915
        },
        {
          "name": "E2",
          "midi": 40,
          "time": 213.69559875000076,
          "velocity": 1,
          "duration": 0.2173912499999915
        },
        {
          "name": "E1",
          "midi": 28,
          "time": 213.91299000000075,
          "velocity": 1,
          "duration": 0.4347825000000114
        },
        {
          "name": "E2",
          "midi": 40,
          "time": 214.34777250000076,
          "velocity": 1,
          "duration": 0.4347825000000114
        },
        {
          "name": "B1",
          "midi": 35,
          "time": 214.78255500000077,
          "velocity": 1,
          "duration": 0.4347825000000114
        },
        {
          "name": "A1",
          "midi": 33,
          "time": 215.21733750000078,
          "velocity": 1,
          "duration": 1.3043475000000058
        },
        {
          "name": "A2",
          "midi": 45,
          "time": 216.5216850000008,
          "velocity": 1,
          "duration": 0.8695649999999944
        },
        {
          "name": "E2",
          "midi": 40,
          "time": 217.39125000000078,
          "velocity": 1,
          "duration": 0.4347825000000114
        },
        {
          "name": "A1",
          "midi": 33,
          "time": 217.8260325000008,
          "velocity": 1,
          "duration": 2.1739125
        },
        {
          "name": "A1",
          "midi": 33,
          "time": 219.9999450000008,
          "velocity": 1,
          "duration": 0.2173912499999915
        },
        {
          "name": "B1",
          "midi": 35,
          "time": 220.21733625000078,
          "velocity": 1,
          "duration": 0.2173912499999915
        },
        {
          "name": "C2",
          "midi": 36,
          "time": 220.43472750000078,
          "velocity": 1,
          "duration": 1.3043475000000058
        },
        {
          "name": "C2",
          "midi": 36,
          "time": 221.73907500000078,
          "velocity": 1,
          "duration": 0.4347825000000114
        },
        {
          "name": "C2",
          "midi": 36,
          "time": 222.1738575000008,
          "velocity": 1,
          "duration": 0.4347825000000114
        },
        {
          "name": "B1",
          "midi": 35,
          "time": 222.6086400000008,
          "velocity": 1,
          "duration": 0.2173912499999915
        },
        {
          "name": "C2",
          "midi": 36,
          "time": 222.8260312500008,
          "velocity": 1,
          "duration": 0.2173912499999915
        },
        {
          "name": "D2",
          "midi": 38,
          "time": 223.0434225000008,
          "velocity": 1,
          "duration": 1.3043475000000058
        },
        {
          "name": "A2",
          "midi": 45,
          "time": 224.3477700000008,
          "velocity": 1,
          "duration": 0.4347825000000114
        },
        {
          "name": "D2",
          "midi": 38,
          "time": 224.7825525000008,
          "velocity": 1,
          "duration": 0.4347825000000114
        },
        {
          "name": "G2",
          "midi": 43,
          "time": 225.21733500000082,
          "velocity": 1,
          "duration": 0.4347825000000114
        },
        {
          "name": "E2",
          "midi": 40,
          "time": 225.65211750000083,
          "velocity": 1,
          "duration": 1.3043475000000058
        },
        {
          "name": "E1",
          "midi": 28,
          "time": 226.95646500000083,
          "velocity": 1,
          "duration": 0.8695649999999944
        },
        {
          "name": "E2",
          "midi": 40,
          "time": 227.82603000000083,
          "velocity": 1,
          "duration": 0.4347825000000114
        },
        {
          "name": "E2",
          "midi": 40,
          "time": 228.26081250000084,
          "velocity": 1,
          "duration": 1.3043475000000058
        },
        {
          "name": "E1",
          "midi": 28,
          "time": 229.56516000000084,
          "velocity": 1,
          "duration": 0.8695649999999944
        },
        {
          "name": "G1",
          "midi": 31,
          "time": 230.43472500000084,
          "velocity": 1,
          "duration": 0.2173912499999915
        },
        {
          "name": "F#1",
          "midi": 30,
          "time": 230.65211625000083,
          "velocity": 1,
          "duration": 0.2173912499999915
        },
        {
          "name": "E1",
          "midi": 28,
          "time": 230.86950750000082,
          "velocity": 1,
          "duration": 1.3043475000000058
        },
        {
          "name": "E2",
          "midi": 40,
          "time": 232.17385500000083,
          "velocity": 1,
          "duration": 1.3043475000000058
        },
        {
          "name": "D2",
          "midi": 38,
          "time": 233.47820250000083,
          "velocity": 1,
          "duration": 1.3043475000000058
        },
        {
          "name": "C2",
          "midi": 36,
          "time": 234.78255000000084,
          "velocity": 1,
          "duration": 0.8695649999999944
        },
        {
          "name": "G1",
          "midi": 31,
          "time": 235.65211500000083,
          "velocity": 1,
          "duration": 0.2173912499999915
        },
        {
          "name": "F#1",
          "midi": 30,
          "time": 235.86950625000082,
          "velocity": 1,
          "duration": 0.2173912499999915
        },
        {
          "name": "E1",
          "midi": 28,
          "time": 236.08689750000082,
          "velocity": 1,
          "duration": 1.3043475000000058
        },
        {
          "name": "E2",
          "midi": 40,
          "time": 237.39124500000082,
          "velocity": 1,
          "duration": 1.3043475000000058
        },
        {
          "name": "D2",
          "midi": 38,
          "time": 238.69559250000083,
          "velocity": 1,
          "duration": 1.3043475000000058
        },
        {
          "name": "C2",
          "midi": 36,
          "time": 239.99994000000083,
          "velocity": 1,
          "duration": 0.8695649999999944
        },
        {
          "name": "G1",
          "midi": 31,
          "time": 240.86950500000083,
          "velocity": 1,
          "duration": 0.2173912499999915
        },
        {
          "name": "F#1",
          "midi": 30,
          "time": 241.08689625000082,
          "velocity": 1,
          "duration": 0.2173912499999915
        },
        {
          "name": "E1",
          "midi": 28,
          "time": 241.3042875000008,
          "velocity": 1,
          "duration": 1.3043475000000058
        },
        {
          "name": "E2",
          "midi": 40,
          "time": 242.60863500000082,
          "velocity": 1,
          "duration": 1.3043475000000058
        },
        {
          "name": "D2",
          "midi": 38,
          "time": 243.91298250000082,
          "velocity": 1,
          "duration": 1.3043475000000058
        },
        {
          "name": "C2",
          "midi": 36,
          "time": 245.21733000000083,
          "velocity": 1,
          "duration": 0.8695649999999944
        },
        {
          "name": "G1",
          "midi": 31,
          "time": 246.08689500000082,
          "velocity": 1,
          "duration": 0.2173912499999915
        },
        {
          "name": "F#1",
          "midi": 30,
          "time": 246.3042862500008,
          "velocity": 1,
          "duration": 0.2173912499999915
        },
        {
          "name": "G1",
          "midi": 31,
          "time": 246.5216775000008,
          "velocity": 1,
          "duration": 1.3043475000000058
        },
        {
          "name": "B1",
          "midi": 35,
          "time": 247.8260250000008,
          "velocity": 1,
          "duration": 1.3043475000000058
        },
        {
          "name": "E1",
          "midi": 28,
          "time": 249.13037250000082,
          "velocity": 1,
          "duration": 1.3043475000000058
        },
        {
          "name": "E2",
          "midi": 40,
          "time": 250.43472000000082,
          "velocity": 1,
          "duration": 1.3043475000000058
        },
        {
          "name": "E1",
          "midi": 28,
          "time": 251.73906750000083,
          "velocity": 1,
          "duration": 0.2173912499999915
        },
        {
          "name": "E1",
          "midi": 28,
          "time": 251.95645875000082,
          "velocity": 1,
          "duration": 0.4347825000000114
        },
        {
          "name": "E1",
          "midi": 28,
          "time": 252.39124125000083,
          "velocity": 1,
          "duration": 0.2173912499999915
        },
        {
          "name": "E1",
          "midi": 28,
          "time": 252.60863250000082,
          "velocity": 1,
          "duration": 0.4347825000000114
        },
        {
          "name": "E2",
          "midi": 40,
          "time": 253.04341500000083,
          "velocity": 1,
          "duration": 0.8695649999999944
        },
        {
          "name": "G1",
          "midi": 31,
          "time": 253.91298000000083,
          "velocity": 1,
          "duration": 0.2173912499999915
        },
        {
          "name": "F#1",
          "midi": 30,
          "time": 254.13037125000082,
          "velocity": 1,
          "duration": 0.2173912499999915
        },
        {
          "name": "E1",
          "midi": 28,
          "time": 254.3477625000008,
          "velocity": 1,
          "duration": 1.3043475000000058
        },
        {
          "name": "E2",
          "midi": 40,
          "time": 255.65211000000082,
          "velocity": 1,
          "duration": 1.3043474999999773
        },
        {
          "name": "D2",
          "midi": 38,
          "time": 256.9564575000008,
          "velocity": 1,
          "duration": 1.3043475000000058
        },
        {
          "name": "C2",
          "midi": 36,
          "time": 258.2608050000008,
          "velocity": 1,
          "duration": 0.8695650000000228
        },
        {
          "name": "G1",
          "midi": 31,
          "time": 259.1303700000008,
          "velocity": 1,
          "duration": 0.2173912499999915
        },
        {
          "name": "F#1",
          "midi": 30,
          "time": 259.3477612500008,
          "velocity": 1,
          "duration": 0.2173912499999915
        },
        {
          "name": "E1",
          "midi": 28,
          "time": 259.5651525000008,
          "velocity": 1,
          "duration": 1.3043475000000058
        },
        {
          "name": "E2",
          "midi": 40,
          "time": 260.8695000000008,
          "velocity": 1,
          "duration": 1.3043475000000058
        },
        {
          "name": "D2",
          "midi": 38,
          "time": 262.1738475000008,
          "velocity": 1,
          "duration": 1.3043475000000058
        },
        {
          "name": "C2",
          "midi": 36,
          "time": 263.4781950000008,
          "velocity": 1,
          "duration": 0.8695650000000228
        },
        {
          "name": "G1",
          "midi": 31,
          "time": 264.34776000000085,
          "velocity": 1,
          "duration": 0.2173912499999915
        },
        {
          "name": "F#1",
          "midi": 30,
          "time": 264.56515125000084,
          "velocity": 1,
          "duration": 0.2173912499999915
        },
        {
          "name": "E1",
          "midi": 28,
          "time": 264.78254250000083,
          "velocity": 1,
          "duration": 1.3043475000000058
        },
        {
          "name": "E2",
          "midi": 40,
          "time": 266.08689000000084,
          "velocity": 1,
          "duration": 1.3043475000000058
        },
        {
          "name": "D2",
          "midi": 38,
          "time": 267.39123750000084,
          "velocity": 1,
          "duration": 1.3043475000000058
        },
        {
          "name": "C2",
          "midi": 36,
          "time": 268.69558500000085,
          "velocity": 1,
          "duration": 0.8695650000000228
        },
        {
          "name": "G1",
          "midi": 31,
          "time": 269.56515000000087,
          "velocity": 1,
          "duration": 0.2173912499999915
        },
        {
          "name": "F#1",
          "midi": 30,
          "time": 269.78254125000086,
          "velocity": 1,
          "duration": 0.2173912499999915
        },
        {
          "name": "G1",
          "midi": 31,
          "time": 269.99993250000085,
          "velocity": 1,
          "duration": 1.3043475000000058
        },
        {
          "name": "B1",
          "midi": 35,
          "time": 271.30428000000086,
          "velocity": 1,
          "duration": 1.3043475000000058
        },
        {
          "name": "E1",
          "midi": 28,
          "time": 272.60862750000086,
          "velocity": 1,
          "duration": 1.3043475000000058
        },
        {
          "name": "E2",
          "midi": 40,
          "time": 273.91297500000087,
          "velocity": 1,
          "duration": 1.3043475000000058
        },
        {
          "name": "C2",
          "midi": 36,
          "time": 275.2173225000009,
          "velocity": 1,
          "duration": 1.3043475000000058
        },
        {
          "name": "A1",
          "midi": 33,
          "time": 276.5216700000009,
          "velocity": 1,
          "duration": 1.3043475000000058
        },
        {
          "name": "D2",
          "midi": 38,
          "time": 277.8260175000009,
          "velocity": 1,
          "duration": 0.434782499999983
        },
        {
          "name": "D2",
          "midi": 38,
          "time": 278.26080000000087,
          "velocity": 1,
          "duration": 0.434782499999983
        },
        {
          "name": "D2",
          "midi": 38,
          "time": 278.69558250000085,
          "velocity": 1,
          "duration": 0.434782499999983
        },
        {
          "name": "D2",
          "midi": 38,
          "time": 279.13036500000084,
          "velocity": 1,
          "duration": 0.434782499999983
        },
        {
          "name": "D2",
          "midi": 38,
          "time": 279.5651475000008,
          "velocity": 1,
          "duration": 0.434782499999983
        },
        {
          "name": "D2",
          "midi": 38,
          "time": 279.9999300000008,
          "velocity": 1,
          "duration": 0.434782499999983
        },
        {
          "name": "C2",
          "midi": 36,
          "time": 280.4347125000008,
          "velocity": 1,
          "duration": 1.3043475000000058
        },
        {
          "name": "A1",
          "midi": 33,
          "time": 281.7390600000008,
          "velocity": 1,
          "duration": 1.3043475000000058
        },
        {
          "name": "D2",
          "midi": 38,
          "time": 283.0434075000008,
          "velocity": 1,
          "duration": 0.434782499999983
        },
        {
          "name": "D2",
          "midi": 38,
          "time": 283.4781900000008,
          "velocity": 1,
          "duration": 0.434782499999983
        },
        {
          "name": "D2",
          "midi": 38,
          "time": 283.91297250000076,
          "velocity": 1,
          "duration": 0.434782499999983
        },
        {
          "name": "D2",
          "midi": 38,
          "time": 284.34775500000075,
          "velocity": 1,
          "duration": 0.434782499999983
        },
        {
          "name": "D2",
          "midi": 38,
          "time": 284.7825375000007,
          "velocity": 1,
          "duration": 0.434782499999983
        },
        {
          "name": "D2",
          "midi": 38,
          "time": 285.2173200000007,
          "velocity": 1,
          "duration": 0.434782499999983
        },
        {
          "name": "C2",
          "midi": 36,
          "time": 285.6521025000007,
          "velocity": 1,
          "duration": 1.3043475000000058
        },
        {
          "name": "A1",
          "midi": 33,
          "time": 286.9564500000007,
          "velocity": 1,
          "duration": 1.3043475000000058
        },
        {
          "name": "D2",
          "midi": 38,
          "time": 288.2607975000007,
          "velocity": 1,
          "duration": 0.434782499999983
        },
        {
          "name": "D2",
          "midi": 38,
          "time": 288.6955800000007,
          "velocity": 1,
          "duration": 0.434782499999983
        },
        {
          "name": "D2",
          "midi": 38,
          "time": 289.1303625000007,
          "velocity": 1,
          "duration": 0.434782499999983
        },
        {
          "name": "D2",
          "midi": 38,
          "time": 289.56514500000065,
          "velocity": 1,
          "duration": 0.434782499999983
        },
        {
          "name": "D2",
          "midi": 38,
          "time": 289.99992750000064,
          "velocity": 1,
          "duration": 0.434782499999983
        },
        {
          "name": "D2",
          "midi": 38,
          "time": 290.4347100000006,
          "velocity": 1,
          "duration": 0.434782499999983
        },
        {
          "name": "C2",
          "midi": 36,
          "time": 290.8694925000006,
          "velocity": 1,
          "duration": 1.3043475000000058
        },
        {
          "name": "A1",
          "midi": 33,
          "time": 292.1738400000006,
          "velocity": 1,
          "duration": 1.3043475000000058
        },
        {
          "name": "D2",
          "midi": 38,
          "time": 293.4781875000006,
          "velocity": 1,
          "duration": 0.434782499999983
        },
        {
          "name": "D2",
          "midi": 38,
          "time": 293.9129700000006,
          "velocity": 1,
          "duration": 0.434782499999983
        },
        {
          "name": "D2",
          "midi": 38,
          "time": 294.3477525000006,
          "velocity": 1,
          "duration": 0.434782499999983
        },
        {
          "name": "D2",
          "midi": 38,
          "time": 294.78253500000056,
          "velocity": 1,
          "duration": 0.434782499999983
        },
        {
          "name": "D2",
          "midi": 38,
          "time": 295.21731750000055,
          "velocity": 1,
          "duration": 0.434782499999983
        },
        {
          "name": "D2",
          "midi": 38,
          "time": 295.65210000000053,
          "velocity": 1,
          "duration": 0.434782499999983
        },
        {
          "name": "C2",
          "midi": 36,
          "time": 296.0868825000005,
          "velocity": 1,
          "duration": 1.3043475000000058
        },
        {
          "name": "A1",
          "midi": 33,
          "time": 297.3912300000005,
          "velocity": 1,
          "duration": 1.3043475000000058
        },
        {
          "name": "D2",
          "midi": 38,
          "time": 298.6955775000005,
          "velocity": 1,
          "duration": 0.434782499999983
        },
        {
          "name": "D2",
          "midi": 38,
          "time": 299.1303600000005,
          "velocity": 1,
          "duration": 0.434782499999983
        },
        {
          "name": "D2",
          "midi": 38,
          "time": 299.5651425000005,
          "velocity": 1,
          "duration": 0.434782499999983
        },
        {
          "name": "E1",
          "midi": 28,
          "time": 299.9999250000005,
          "velocity": 1,
          "duration": 2.6086950000000115
        },
        {
          "name": "E1",
          "midi": 28,
          "time": 302.6086200000005,
          "velocity": 1,
          "duration": 0.2173912499999915
        },
        {
          "name": "E1",
          "midi": 28,
          "time": 302.8260112500005,
          "velocity": 1,
          "duration": 0.2173912499999915
        },
        {
          "name": "E1",
          "midi": 28,
          "time": 303.04340250000047,
          "velocity": 1,
          "duration": 0.2173912499999915
        },
        {
          "name": "E1",
          "midi": 28,
          "time": 303.26079375000046,
          "velocity": 1,
          "duration": 0.2173912499999915
        },
        {
          "name": "E1",
          "midi": 28,
          "time": 303.47818500000045,
          "velocity": 1,
          "duration": 0.2173912499999915
        },
        {
          "name": "E1",
          "midi": 28,
          "time": 303.69557625000044,
          "velocity": 1,
          "duration": 0.2173912499999915
        },
        {
          "name": "E1",
          "midi": 28,
          "time": 303.91296750000043,
          "velocity": 1,
          "duration": 0.2173912499999915
        },
        {
          "name": "E1",
          "midi": 28,
          "time": 304.1303587500004,
          "velocity": 1,
          "duration": 0.2173912499999915
        },
        {
          "name": "E1",
          "midi": 28,
          "time": 304.3477500000004,
          "velocity": 1,
          "duration": 0.2173912499999915
        },
        {
          "name": "E1",
          "midi": 28,
          "time": 304.5651412500004,
          "velocity": 1,
          "duration": 0.2173912499999915
        },
        {
          "name": "E1",
          "midi": 28,
          "time": 304.7825325000004,
          "velocity": 1,
          "duration": 0.2173912499999915
        },
        {
          "name": "E1",
          "midi": 28,
          "time": 304.9999237500004,
          "velocity": 1,
          "duration": 0.2173912499999915
        },
        {
          "name": "E1",
          "midi": 28,
          "time": 305.2173150000004,
          "velocity": 1,
          "duration": 0.8695650000000228
        },
        {
          "name": "E1",
          "midi": 28,
          "time": 306.0868800000004,
          "velocity": 1,
          "duration": 0.434782499999983
        },
        {
          "name": "E2",
          "midi": 40,
          "time": 306.5216625000004,
          "velocity": 1,
          "duration": 0.8695650000000228
        },
        {
          "name": "E2",
          "midi": 40,
          "time": 307.3912275000004,
          "velocity": 1,
          "duration": 0.434782499999983
        },
        {
          "name": "D2",
          "midi": 38,
          "time": 307.8260100000004,
          "velocity": 1,
          "duration": 0.8695650000000228
        },
        {
          "name": "D2",
          "midi": 38,
          "time": 308.6955750000004,
          "velocity": 1,
          "duration": 0.434782499999983
        },
        {
          "name": "C2",
          "midi": 36,
          "time": 309.1303575000004,
          "velocity": 1,
          "duration": 0.8695650000000228
        },
        {
          "name": "G1",
          "midi": 31,
          "time": 309.9999225000004,
          "velocity": 1,
          "duration": 0.2173912499999915
        },
        {
          "name": "F#1",
          "midi": 30,
          "time": 310.2173137500004,
          "velocity": 1,
          "duration": 0.2173912499999915
        },
        {
          "name": "E1",
          "midi": 28,
          "time": 310.4347050000004,
          "velocity": 1,
          "duration": 0.8695650000000228
        },
        {
          "name": "E1",
          "midi": 28,
          "time": 311.30427000000043,
          "velocity": 1,
          "duration": 0.434782499999983
        },
        {
          "name": "E2",
          "midi": 40,
          "time": 311.7390525000004,
          "velocity": 1,
          "duration": 0.8695650000000228
        },
        {
          "name": "E2",
          "midi": 40,
          "time": 312.60861750000043,
          "velocity": 1,
          "duration": 0.434782499999983
        },
        {
          "name": "D2",
          "midi": 38,
          "time": 313.0434000000004,
          "velocity": 1,
          "duration": 0.8695650000000228
        },
        {
          "name": "D2",
          "midi": 38,
          "time": 313.91296500000044,
          "velocity": 1,
          "duration": 0.434782499999983
        },
        {
          "name": "C2",
          "midi": 36,
          "time": 314.3477475000004,
          "velocity": 1,
          "duration": 0.8695650000000228
        },
        {
          "name": "G1",
          "midi": 31,
          "time": 315.21731250000045,
          "velocity": 1,
          "duration": 0.2173912499999915
        },
        {
          "name": "F#1",
          "midi": 30,
          "time": 315.43470375000044,
          "velocity": 1,
          "duration": 0.2173912499999915
        },
        {
          "name": "E1",
          "midi": 28,
          "time": 315.65209500000043,
          "velocity": 1,
          "duration": 0.8695650000000228
        },
        {
          "name": "E1",
          "midi": 28,
          "time": 316.52166000000045,
          "velocity": 1,
          "duration": 0.434782499999983
        },
        {
          "name": "E2",
          "midi": 40,
          "time": 316.95644250000043,
          "velocity": 1,
          "duration": 0.8695650000000228
        },
        {
          "name": "E2",
          "midi": 40,
          "time": 317.82600750000046,
          "velocity": 1,
          "duration": 0.434782499999983
        },
        {
          "name": "D2",
          "midi": 38,
          "time": 318.26079000000044,
          "velocity": 1,
          "duration": 0.8695650000000228
        },
        {
          "name": "D2",
          "midi": 38,
          "time": 319.13035500000046,
          "velocity": 1,
          "duration": 0.434782499999983
        },
        {
          "name": "C2",
          "midi": 36,
          "time": 319.56513750000045,
          "velocity": 1,
          "duration": 0.8695650000000228
        },
        {
          "name": "G1",
          "midi": 31,
          "time": 320.43470250000047,
          "velocity": 1,
          "duration": 0.2173912499999915
        },
        {
          "name": "F#1",
          "midi": 30,
          "time": 320.65209375000046,
          "velocity": 1,
          "duration": 0.2173912499999915
        },
        {
          "name": "G1",
          "midi": 31,
          "time": 320.86948500000045,
          "velocity": 1,
          "duration": 1.3043475000000058
        },
        {
          "name": "B1",
          "midi": 35,
          "time": 322.17383250000046,
          "velocity": 1,
          "duration": 0.8695650000000228
        },
        {
          "name": "E1",
          "midi": 28,
          "time": 323.0433975000005,
          "velocity": 1,
          "duration": 0.434782499999983
        },
        {
          "name": "E1",
          "midi": 28,
          "time": 323.47818000000046,
          "velocity": 1,
          "duration": 15.652170000000012
        }
      ],
      "controlChanges": {
        "7": [
          {
            "number": 7,
            "time": 0,
            "value": 0.7795275590551181
          }
        ]
      },
      "id": 9,
      "name": "Bass",
      "instrumentNumber": 34,
      "instrument": "electric bass (pick)",
      "instrumentFamily": "bass",
      "channelNumber": 7,
      "isPercussion": false
    },
    {
      "startTime": 0,
      "duration": 0,
      "length": 0,
      "notes": [],
      "controlChanges": {},
      "id": 10,
      "name": " "
    },
    {
      "startTime": 0,
      "duration": 0,
      "length": 0,
      "notes": [],
      "controlChanges": {},
      "id": 11,
      "name": "Nothing Else"
    },
    {
      "startTime": 0,
      "duration": 0,
      "length": 0,
      "notes": [],
      "controlChanges": {},
      "id": 12,
      "name": "Matters"
    },
    {
      "startTime": 0,
      "duration": 0,
      "length": 0,
      "notes": [],
      "controlChanges": {},
      "id": 13,
      "name": "by Metallica"
    },
    {
      "startTime": 0,
      "duration": 0,
      "length": 0,
      "notes": [],
      "controlChanges": {},
      "id": 14,
      "name": " "
    },
    {
      "startTime": 0,
      "duration": 0,
      "length": 0,
      "notes": [],
      "controlChanges": {},
      "id": 15,
      "name": "Transcribed by"
    },
    {
      "startTime": 0,
      "duration": 0,
      "length": 0,
      "notes": [],
      "controlChanges": {},
      "id": 16,
      "name": "King Diamond"
    }
  ]
}