{
  "header": {
    "PPQ": 480,
    "bpm": 150,
    "timeSignature": [
      4,
      4
    ],
    "name": "http://home7.inet.tele.dk/cns/midiplanet/"
  },
  "startTime": 0,
  "duration": 251.19999999999916,
  "tracks": [
    {
      "startTime": 0,
      "duration": 0,
      "length": 0,
      "notes": [],
      "controlChanges": {},
      "id": 0
    },
    {
      "startTime": 0,
      "duration": 251.19999999999916,
      "length": 1047,
      "notes": [
        {
          "name": "E2",
          "midi": 40,
          "time": 0,
          "velocity": 0.7874015748031497,
          "duration": 0.2
        },
        {
          "name": "E3",
          "midi": 52,
          "time": 0.2,
          "velocity": 0.7874015748031497,
          "duration": 0.2
        },
        {
          "name": "D3",
          "midi": 50,
          "time": 0.4,
          "velocity": 0.7874015748031497,
          "duration": 0.20000000000000007
        },
        {
          "name": "B2",
          "midi": 47,
          "time": 0.6000000000000001,
          "velocity": 0.7874015748031497,
          "duration": 0.19999999999999996
        },
        {
          "name": "D3",
          "midi": 50,
          "time": 0.8,
          "velocity": 0.7874015748031497,
          "duration": 0.19999999999999996
        },
        {
          "name": "B2",
          "midi": 47,
          "time": 1,
          "velocity": 0.7874015748031497,
          "duration": 0.19999999999999996
        },
        {
          "name": "A2",
          "midi": 45,
          "time": 1.2,
          "velocity": 0.7874015748031497,
          "duration": 0.19999999999999996
        },
        {
          "name": "G2",
          "midi": 43,
          "time": 1.4,
          "velocity": 0.7874015748031497,
          "duration": 0.19999999999999996
        },
        {
          "name": "E2",
          "midi": 40,
          "time": 1.5999999999999999,
          "velocity": 0.7874015748031497,
          "duration": 0.19999999999999996
        },
        {
          "name": "E3",
          "midi": 52,
          "time": 1.7999999999999998,
          "velocity": 0.7874015748031497,
          "duration": 0.19999999999999996
        },
        {
          "name": "D3",
          "midi": 50,
          "time": 1.9999999999999998,
          "velocity": 0.7874015748031497,
          "duration": 0.19999999999999996
        },
        {
          "name": "B2",
          "midi": 47,
          "time": 2.1999999999999997,
          "velocity": 0.7874015748031497,
          "duration": 0.20000000000000018
        },
        {
          "name": "D3",
          "midi": 50,
          "time": 2.4,
          "velocity": 0.7874015748031497,
          "duration": 0.20000000000000018
        },
        {
          "name": "B2",
          "midi": 47,
          "time": 2.6,
          "velocity": 0.7874015748031497,
          "duration": 0.20000000000000018
        },
        {
          "name": "A2",
          "midi": 45,
          "time": 2.8000000000000003,
          "velocity": 0.7874015748031497,
          "duration": 0.20000000000000018
        },
        {
          "name": "G2",
          "midi": 43,
          "time": 3.0000000000000004,
          "velocity": 0.7874015748031497,
          "duration": 0.20000000000000018
        },
        {
          "name": "E2",
          "midi": 40,
          "time": 3.2000000000000006,
          "velocity": 0.7874015748031497,
          "duration": 0.20000000000000018
        },
        {
          "name": "E3",
          "midi": 52,
          "time": 3.400000000000001,
          "velocity": 0.7874015748031497,
          "duration": 0.20000000000000018
        },
        {
          "name": "D3",
          "midi": 50,
          "time": 3.600000000000001,
          "velocity": 0.7874015748031497,
          "duration": 0.20000000000000018
        },
        {
          "name": "B2",
          "midi": 47,
          "time": 3.800000000000001,
          "velocity": 0.7874015748031497,
          "duration": 0.19999999999999973
        },
        {
          "name": "D3",
          "midi": 50,
          "time": 4.000000000000001,
          "velocity": 0.7874015748031497,
          "duration": 0.20000000000000018
        },
        {
          "name": "B2",
          "midi": 47,
          "time": 4.200000000000001,
          "velocity": 0.7874015748031497,
          "duration": 0.20000000000000018
        },
        {
          "name": "A2",
          "midi": 45,
          "time": 4.400000000000001,
          "velocity": 0.7874015748031497,
          "duration": 0.20000000000000018
        },
        {
          "name": "G2",
          "midi": 43,
          "time": 4.600000000000001,
          "velocity": 0.7874015748031497,
          "duration": 0.20000000000000018
        },
        {
          "name": "E2",
          "midi": 40,
          "time": 4.800000000000002,
          "velocity": 0.7874015748031497,
          "duration": 0.20000000000000018
        },
        {
          "name": "E3",
          "midi": 52,
          "time": 5.000000000000002,
          "velocity": 0.7874015748031497,
          "duration": 0.20000000000000018
        },
        {
          "name": "D3",
          "midi": 50,
          "time": 5.200000000000002,
          "velocity": 0.7874015748031497,
          "duration": 0.20000000000000018
        },
        {
          "name": "B2",
          "midi": 47,
          "time": 5.400000000000002,
          "velocity": 0.7874015748031497,
          "duration": 0.20000000000000018
        },
        {
          "name": "D3",
          "midi": 50,
          "time": 5.600000000000002,
          "velocity": 0.7874015748031497,
          "duration": 0.20000000000000018
        },
        {
          "name": "E3",
          "midi": 52,
          "time": 5.8000000000000025,
          "velocity": 0.7874015748031497,
          "duration": 0.20000000000000018
        },
        {
          "name": "G3",
          "midi": 55,
          "time": 6.000000000000003,
          "velocity": 0.7874015748031497,
          "duration": 0.40000000000000036
        },
        {
          "name": "E2",
          "midi": 40,
          "time": 6.400000000000003,
          "velocity": 0.7874015748031497,
          "duration": 0.20000000000000018
        },
        {
          "name": "E3",
          "midi": 52,
          "time": 6.600000000000003,
          "velocity": 0.7874015748031497,
          "duration": 0.20000000000000018
        },
        {
          "name": "D3",
          "midi": 50,
          "time": 6.800000000000003,
          "velocity": 0.7874015748031497,
          "duration": 0.20000000000000018
        },
        {
          "name": "B2",
          "midi": 47,
          "time": 7.0000000000000036,
          "velocity": 0.7874015748031497,
          "duration": 0.20000000000000018
        },
        {
          "name": "D3",
          "midi": 50,
          "time": 7.200000000000004,
          "velocity": 0.7874015748031497,
          "duration": 0.20000000000000018
        },
        {
          "name": "B2",
          "midi": 47,
          "time": 7.400000000000004,
          "velocity": 0.7874015748031497,
          "duration": 0.20000000000000018
        },
        {
          "name": "A2",
          "midi": 45,
          "time": 7.600000000000004,
          "velocity": 0.7874015748031497,
          "duration": 0.20000000000000018
        },
        {
          "name": "G2",
          "midi": 43,
          "time": 7.800000000000004,
          "velocity": 0.7874015748031497,
          "duration": 0.1999999999999993
        },
        {
          "name": "E2",
          "midi": 40,
          "time": 8.000000000000004,
          "velocity": 0.7874015748031497,
          "duration": 0.1999999999999993
        },
        {
          "name": "E3",
          "midi": 52,
          "time": 8.200000000000003,
          "velocity": 0.7874015748031497,
          "duration": 0.1999999999999993
        },
        {
          "name": "D3",
          "midi": 50,
          "time": 8.400000000000002,
          "velocity": 0.7874015748031497,
          "duration": 0.1999999999999993
        },
        {
          "name": "B2",
          "midi": 47,
          "time": 8.600000000000001,
          "velocity": 0.7874015748031497,
          "duration": 0.1999999999999993
        },
        {
          "name": "D3",
          "midi": 50,
          "time": 8.8,
          "velocity": 0.7874015748031497,
          "duration": 0.1999999999999993
        },
        {
          "name": "B2",
          "midi": 47,
          "time": 9,
          "velocity": 0.7874015748031497,
          "duration": 0.1999999999999993
        },
        {
          "name": "A2",
          "midi": 45,
          "time": 9.2,
          "velocity": 0.7874015748031497,
          "duration": 0.1999999999999993
        },
        {
          "name": "G2",
          "midi": 43,
          "time": 9.399999999999999,
          "velocity": 0.7874015748031497,
          "duration": 0.1999999999999993
        },
        {
          "name": "E2",
          "midi": 40,
          "time": 9.599999999999998,
          "velocity": 0.7874015748031497,
          "duration": 0.1999999999999993
        },
        {
          "name": "E3",
          "midi": 52,
          "time": 9.799999999999997,
          "velocity": 0.7874015748031497,
          "duration": 0.1999999999999993
        },
        {
          "name": "D3",
          "midi": 50,
          "time": 9.999999999999996,
          "velocity": 0.7874015748031497,
          "duration": 0.1999999999999993
        },
        {
          "name": "B2",
          "midi": 47,
          "time": 10.199999999999996,
          "velocity": 0.7874015748031497,
          "duration": 0.1999999999999993
        },
        {
          "name": "D3",
          "midi": 50,
          "time": 10.399999999999995,
          "velocity": 0.7874015748031497,
          "duration": 0.1999999999999993
        },
        {
          "name": "B2",
          "midi": 47,
          "time": 10.599999999999994,
          "velocity": 0.7874015748031497,
          "duration": 0.1999999999999993
        },
        {
          "name": "A2",
          "midi": 45,
          "time": 10.799999999999994,
          "velocity": 0.7874015748031497,
          "duration": 0.1999999999999993
        },
        {
          "name": "G2",
          "midi": 43,
          "time": 10.999999999999993,
          "velocity": 0.7874015748031497,
          "duration": 0.1999999999999993
        },
        {
          "name": "E2",
          "midi": 40,
          "time": 11.199999999999992,
          "velocity": 0.7874015748031497,
          "duration": 0.1999999999999993
        },
        {
          "name": "E3",
          "midi": 52,
          "time": 11.399999999999991,
          "velocity": 0.7874015748031497,
          "duration": 0.1999999999999993
        },
        {
          "name": "D3",
          "midi": 50,
          "time": 11.59999999999999,
          "velocity": 0.7874015748031497,
          "duration": 0.1999999999999993
        },
        {
          "name": "B2",
          "midi": 47,
          "time": 11.79999999999999,
          "velocity": 0.7874015748031497,
          "duration": 0.1999999999999993
        },
        {
          "name": "D3",
          "midi": 50,
          "time": 11.99999999999999,
          "velocity": 0.7874015748031497,
          "duration": 0.1999999999999993
        },
        {
          "name": "E3",
          "midi": 52,
          "time": 12.199999999999989,
          "velocity": 0.7874015748031497,
          "duration": 0.1999999999999993
        },
        {
          "name": "G3",
          "midi": 55,
          "time": 12.399999999999988,
          "velocity": 0.7874015748031497,
          "duration": 0.40000000000000036
        },
        {
          "name": "E2",
          "midi": 40,
          "time": 12.799999999999988,
          "velocity": 0.7874015748031497,
          "duration": 0.1999999999999993
        },
        {
          "name": "E3",
          "midi": 52,
          "time": 12.999999999999988,
          "velocity": 0.7874015748031497,
          "duration": 0.1999999999999993
        },
        {
          "name": "D3",
          "midi": 50,
          "time": 13.199999999999987,
          "velocity": 0.7874015748031497,
          "duration": 0.1999999999999993
        },
        {
          "name": "B2",
          "midi": 47,
          "time": 13.399999999999986,
          "velocity": 0.7874015748031497,
          "duration": 0.1999999999999993
        },
        {
          "name": "D3",
          "midi": 50,
          "time": 13.599999999999985,
          "velocity": 0.7874015748031497,
          "duration": 0.1999999999999993
        },
        {
          "name": "B2",
          "midi": 47,
          "time": 13.799999999999985,
          "velocity": 0.7874015748031497,
          "duration": 0.1999999999999993
        },
        {
          "name": "A2",
          "midi": 45,
          "time": 13.999999999999984,
          "velocity": 0.7874015748031497,
          "duration": 0.1999999999999993
        },
        {
          "name": "G2",
          "midi": 43,
          "time": 14.199999999999983,
          "velocity": 0.7874015748031497,
          "duration": 0.1999999999999993
        },
        {
          "name": "E2",
          "midi": 40,
          "time": 14.399999999999983,
          "velocity": 0.7874015748031497,
          "duration": 0.1999999999999993
        },
        {
          "name": "E3",
          "midi": 52,
          "time": 14.599999999999982,
          "velocity": 0.7874015748031497,
          "duration": 0.1999999999999993
        },
        {
          "name": "D3",
          "midi": 50,
          "time": 14.799999999999981,
          "velocity": 0.7874015748031497,
          "duration": 0.1999999999999993
        },
        {
          "name": "B2",
          "midi": 47,
          "time": 14.99999999999998,
          "velocity": 0.7874015748031497,
          "duration": 0.1999999999999993
        },
        {
          "name": "D3",
          "midi": 50,
          "time": 15.19999999999998,
          "velocity": 0.7874015748031497,
          "duration": 0.1999999999999993
        },
        {
          "name": "B2",
          "midi": 47,
          "time": 15.399999999999979,
          "velocity": 0.7874015748031497,
          "duration": 0.1999999999999993
        },
        {
          "name": "A2",
          "midi": 45,
          "time": 15.599999999999978,
          "velocity": 0.7874015748031497,
          "duration": 0.1999999999999993
        },
        {
          "name": "G2",
          "midi": 43,
          "time": 15.799999999999978,
          "velocity": 0.7874015748031497,
          "duration": 0.1999999999999993
        },
        {
          "name": "E2",
          "midi": 40,
          "time": 15.999999999999977,
          "velocity": 0.7874015748031497,
          "duration": 0.20000000000000107
        },
        {
          "name": "E3",
          "midi": 52,
          "time": 16.199999999999978,
          "velocity": 0.7874015748031497,
          "duration": 0.1999999999999993
        },
        {
          "name": "D3",
          "midi": 50,
          "time": 16.399999999999977,
          "velocity": 0.7874015748031497,
          "duration": 0.1999999999999993
        },
        {
          "name": "B2",
          "midi": 47,
          "time": 16.599999999999977,
          "velocity": 0.7874015748031497,
          "duration": 0.1999999999999993
        },
        {
          "name": "D3",
          "midi": 50,
          "time": 16.799999999999976,
          "velocity": 0.7874015748031497,
          "duration": 0.1999999999999993
        },
        {
          "name": "B2",
          "midi": 47,
          "time": 16.999999999999975,
          "velocity": 0.7874015748031497,
          "duration": 0.1999999999999993
        },
        {
          "name": "A2",
          "midi": 45,
          "time": 17.199999999999974,
          "velocity": 0.7874015748031497,
          "duration": 0.1999999999999993
        },
        {
          "name": "G2",
          "midi": 43,
          "time": 17.399999999999974,
          "velocity": 0.7874015748031497,
          "duration": 0.1999999999999993
        },
        {
          "name": "E2",
          "midi": 40,
          "time": 17.599999999999973,
          "velocity": 0.7874015748031497,
          "duration": 0.1999999999999993
        },
        {
          "name": "E3",
          "midi": 52,
          "time": 17.799999999999972,
          "velocity": 0.7874015748031497,
          "duration": 0.1999999999999993
        },
        {
          "name": "D3",
          "midi": 50,
          "time": 17.99999999999997,
          "velocity": 0.7874015748031497,
          "duration": 0.1999999999999993
        },
        {
          "name": "B2",
          "midi": 47,
          "time": 18.19999999999997,
          "velocity": 0.7874015748031497,
          "duration": 0.1999999999999993
        },
        {
          "name": "D3",
          "midi": 50,
          "time": 18.39999999999997,
          "velocity": 0.7874015748031497,
          "duration": 0.1999999999999993
        },
        {
          "name": "E3",
          "midi": 52,
          "time": 18.59999999999997,
          "velocity": 0.7874015748031497,
          "duration": 0.1999999999999993
        },
        {
          "name": "G3",
          "midi": 55,
          "time": 18.79999999999997,
          "velocity": 0.7874015748031497,
          "duration": 0.3999999999999986
        },
        {
          "name": "E2",
          "midi": 40,
          "time": 19.199999999999967,
          "velocity": 0.7874015748031497,
          "duration": 0.1999999999999993
        },
        {
          "name": "E3",
          "midi": 52,
          "time": 19.399999999999967,
          "velocity": 0.7874015748031497,
          "duration": 0.1999999999999993
        },
        {
          "name": "D3",
          "midi": 50,
          "time": 19.599999999999966,
          "velocity": 0.7874015748031497,
          "duration": 0.1999999999999993
        },
        {
          "name": "B2",
          "midi": 47,
          "time": 19.799999999999965,
          "velocity": 0.7874015748031497,
          "duration": 0.1999999999999993
        },
        {
          "name": "D3",
          "midi": 50,
          "time": 19.999999999999964,
          "velocity": 0.7874015748031497,
          "duration": 0.1999999999999993
        },
        {
          "name": "B2",
          "midi": 47,
          "time": 20.199999999999964,
          "velocity": 0.7874015748031497,
          "duration": 0.1999999999999993
        },
        {
          "name": "A2",
          "midi": 45,
          "time": 20.399999999999963,
          "velocity": 0.7874015748031497,
          "duration": 0.1999999999999993
        },
        {
          "name": "G2",
          "midi": 43,
          "time": 20.599999999999962,
          "velocity": 0.7874015748031497,
          "duration": 0.1999999999999993
        },
        {
          "name": "E2",
          "midi": 40,
          "time": 20.79999999999996,
          "velocity": 0.7874015748031497,
          "duration": 0.1999999999999993
        },
        {
          "name": "E3",
          "midi": 52,
          "time": 20.99999999999996,
          "velocity": 0.7874015748031497,
          "duration": 0.1999999999999993
        },
        {
          "name": "D3",
          "midi": 50,
          "time": 21.19999999999996,
          "velocity": 0.7874015748031497,
          "duration": 0.1999999999999993
        },
        {
          "name": "B2",
          "midi": 47,
          "time": 21.39999999999996,
          "velocity": 0.7874015748031497,
          "duration": 0.1999999999999993
        },
        {
          "name": "D3",
          "midi": 50,
          "time": 21.59999999999996,
          "velocity": 0.7874015748031497,
          "duration": 0.1999999999999993
        },
        {
          "name": "B2",
          "midi": 47,
          "time": 21.799999999999958,
          "velocity": 0.7874015748031497,
          "duration": 0.1999999999999993
        },
        {
          "name": "A2",
          "midi": 45,
          "time": 21.999999999999957,
          "velocity": 0.7874015748031497,
          "duration": 0.1999999999999993
        },
        {
          "name": "G2",
          "midi": 43,
          "time": 22.199999999999957,
          "velocity": 0.7874015748031497,
          "duration": 0.1999999999999993
        },
        {
          "name": "E2",
          "midi": 40,
          "time": 22.399999999999956,
          "velocity": 0.7874015748031497,
          "duration": 0.1999999999999993
        },
        {
          "name": "E3",
          "midi": 52,
          "time": 22.599999999999955,
          "velocity": 0.7874015748031497,
          "duration": 0.1999999999999993
        },
        {
          "name": "D3",
          "midi": 50,
          "time": 22.799999999999955,
          "velocity": 0.7874015748031497,
          "duration": 0.1999999999999993
        },
        {
          "name": "B2",
          "midi": 47,
          "time": 22.999999999999954,
          "velocity": 0.7874015748031497,
          "duration": 0.1999999999999993
        },
        {
          "name": "D3",
          "midi": 50,
          "time": 23.199999999999953,
          "velocity": 0.7874015748031497,
          "duration": 0.1999999999999993
        },
        {
          "name": "B2",
          "midi": 47,
          "time": 23.399999999999952,
          "velocity": 0.7874015748031497,
          "duration": 0.1999999999999993
        },
        {
          "name": "A2",
          "midi": 45,
          "time": 23.59999999999995,
          "velocity": 0.7874015748031497,
          "duration": 0.1999999999999993
        },
        {
          "name": "G2",
          "midi": 43,
          "time": 23.79999999999995,
          "velocity": 0.7874015748031497,
          "duration": 0.1999999999999993
        },
        {
          "name": "E2",
          "midi": 40,
          "time": 23.99999999999995,
          "velocity": 0.7874015748031497,
          "duration": 0.1999999999999993
        },
        {
          "name": "E3",
          "midi": 52,
          "time": 24.19999999999995,
          "velocity": 0.7874015748031497,
          "duration": 0.1999999999999993
        },
        {
          "name": "D3",
          "midi": 50,
          "time": 24.39999999999995,
          "velocity": 0.7874015748031497,
          "duration": 0.1999999999999993
        },
        {
          "name": "B2",
          "midi": 47,
          "time": 24.599999999999948,
          "velocity": 0.7874015748031497,
          "duration": 0.1999999999999993
        },
        {
          "name": "D3",
          "midi": 50,
          "time": 24.799999999999947,
          "velocity": 0.7874015748031497,
          "duration": 0.1999999999999993
        },
        {
          "name": "E3",
          "midi": 52,
          "time": 24.999999999999947,
          "velocity": 0.7874015748031497,
          "duration": 0.1999999999999993
        },
        {
          "name": "G3",
          "midi": 55,
          "time": 25.199999999999946,
          "velocity": 0.7874015748031497,
          "duration": 0.3999999999999986
        },
        {
          "name": "E2",
          "midi": 40,
          "time": 25.599999999999945,
          "velocity": 0.7874015748031497,
          "duration": 0.1999999999999993
        },
        {
          "name": "E3",
          "midi": 52,
          "time": 25.799999999999944,
          "velocity": 0.7874015748031497,
          "duration": 0.1999999999999993
        },
        {
          "name": "D3",
          "midi": 50,
          "time": 25.999999999999943,
          "velocity": 0.7874015748031497,
          "duration": 0.1999999999999993
        },
        {
          "name": "B2",
          "midi": 47,
          "time": 26.199999999999942,
          "velocity": 0.7874015748031497,
          "duration": 0.1999999999999993
        },
        {
          "name": "D3",
          "midi": 50,
          "time": 26.39999999999994,
          "velocity": 0.7874015748031497,
          "duration": 0.1999999999999993
        },
        {
          "name": "B2",
          "midi": 47,
          "time": 26.59999999999994,
          "velocity": 0.7874015748031497,
          "duration": 0.1999999999999993
        },
        {
          "name": "A2",
          "midi": 45,
          "time": 26.79999999999994,
          "velocity": 0.7874015748031497,
          "duration": 0.1999999999999993
        },
        {
          "name": "G2",
          "midi": 43,
          "time": 26.99999999999994,
          "velocity": 0.7874015748031497,
          "duration": 0.1999999999999993
        },
        {
          "name": "E2",
          "midi": 40,
          "time": 27.19999999999994,
          "velocity": 0.7874015748031497,
          "duration": 0.1999999999999993
        },
        {
          "name": "E3",
          "midi": 52,
          "time": 27.399999999999938,
          "velocity": 0.7874015748031497,
          "duration": 0.1999999999999993
        },
        {
          "name": "D3",
          "midi": 50,
          "time": 27.599999999999937,
          "velocity": 0.7874015748031497,
          "duration": 0.1999999999999993
        },
        {
          "name": "B2",
          "midi": 47,
          "time": 27.799999999999937,
          "velocity": 0.7874015748031497,
          "duration": 0.1999999999999993
        },
        {
          "name": "D3",
          "midi": 50,
          "time": 27.999999999999936,
          "velocity": 0.7874015748031497,
          "duration": 0.1999999999999993
        },
        {
          "name": "B2",
          "midi": 47,
          "time": 28.199999999999935,
          "velocity": 0.7874015748031497,
          "duration": 0.1999999999999993
        },
        {
          "name": "A2",
          "midi": 45,
          "time": 28.399999999999935,
          "velocity": 0.7874015748031497,
          "duration": 0.1999999999999993
        },
        {
          "name": "G2",
          "midi": 43,
          "time": 28.599999999999934,
          "velocity": 0.7874015748031497,
          "duration": 0.1999999999999993
        },
        {
          "name": "E2",
          "midi": 40,
          "time": 28.799999999999933,
          "velocity": 0.7874015748031497,
          "duration": 0.1999999999999993
        },
        {
          "name": "E3",
          "midi": 52,
          "time": 28.999999999999932,
          "velocity": 0.7874015748031497,
          "duration": 0.1999999999999993
        },
        {
          "name": "D3",
          "midi": 50,
          "time": 29.199999999999932,
          "velocity": 0.7874015748031497,
          "duration": 0.1999999999999993
        },
        {
          "name": "B2",
          "midi": 47,
          "time": 29.39999999999993,
          "velocity": 0.7874015748031497,
          "duration": 0.1999999999999993
        },
        {
          "name": "D3",
          "midi": 50,
          "time": 29.59999999999993,
          "velocity": 0.7874015748031497,
          "duration": 0.1999999999999993
        },
        {
          "name": "B2",
          "midi": 47,
          "time": 29.79999999999993,
          "velocity": 0.7874015748031497,
          "duration": 0.1999999999999993
        },
        {
          "name": "A2",
          "midi": 45,
          "time": 29.99999999999993,
          "velocity": 0.7874015748031497,
          "duration": 0.1999999999999993
        },
        {
          "name": "G2",
          "midi": 43,
          "time": 30.19999999999993,
          "velocity": 0.7874015748031497,
          "duration": 0.1999999999999993
        },
        {
          "name": "E2",
          "midi": 40,
          "time": 30.399999999999928,
          "velocity": 0.7874015748031497,
          "duration": 0.1999999999999993
        },
        {
          "name": "E3",
          "midi": 52,
          "time": 30.599999999999927,
          "velocity": 0.7874015748031497,
          "duration": 0.1999999999999993
        },
        {
          "name": "D3",
          "midi": 50,
          "time": 30.799999999999926,
          "velocity": 0.7874015748031497,
          "duration": 0.1999999999999993
        },
        {
          "name": "B2",
          "midi": 47,
          "time": 30.999999999999925,
          "velocity": 0.7874015748031497,
          "duration": 0.1999999999999993
        },
        {
          "name": "D3",
          "midi": 50,
          "time": 31.199999999999925,
          "velocity": 0.7874015748031497,
          "duration": 0.1999999999999993
        },
        {
          "name": "E3",
          "midi": 52,
          "time": 31.399999999999924,
          "velocity": 0.7874015748031497,
          "duration": 0.1999999999999993
        },
        {
          "name": "G3",
          "midi": 55,
          "time": 31.599999999999923,
          "velocity": 0.7874015748031497,
          "duration": 0.3999999999999986
        },
        {
          "name": "E2",
          "midi": 40,
          "time": 31.999999999999922,
          "velocity": 0.7874015748031497,
          "duration": 0.20000000000000284
        },
        {
          "name": "E3",
          "midi": 52,
          "time": 32.199999999999925,
          "velocity": 0.7874015748031497,
          "duration": 0.20000000000000284
        },
        {
          "name": "D3",
          "midi": 50,
          "time": 32.39999999999993,
          "velocity": 0.7874015748031497,
          "duration": 0.20000000000000284
        },
        {
          "name": "B2",
          "midi": 47,
          "time": 32.59999999999993,
          "velocity": 0.7874015748031497,
          "duration": 0.20000000000000284
        },
        {
          "name": "D3",
          "midi": 50,
          "time": 32.79999999999993,
          "velocity": 0.7874015748031497,
          "duration": 0.20000000000000284
        },
        {
          "name": "B2",
          "midi": 47,
          "time": 32.999999999999936,
          "velocity": 0.7874015748031497,
          "duration": 0.20000000000000284
        },
        {
          "name": "A2",
          "midi": 45,
          "time": 33.19999999999994,
          "velocity": 0.7874015748031497,
          "duration": 0.20000000000000284
        },
        {
          "name": "G2",
          "midi": 43,
          "time": 33.39999999999994,
          "velocity": 0.7874015748031497,
          "duration": 0.20000000000000284
        },
        {
          "name": "B2",
          "midi": 47,
          "time": 33.599999999999945,
          "velocity": 0.7874015748031497,
          "duration": 0.20000000000000284
        },
        {
          "name": "E2",
          "midi": 40,
          "time": 33.599999999999945,
          "velocity": 0.7874015748031497,
          "duration": 0.20000000000000284
        },
        {
          "name": "B2",
          "midi": 47,
          "time": 33.79999999999995,
          "velocity": 0.7874015748031497,
          "duration": 0.20000000000000284
        },
        {
          "name": "E2",
          "midi": 40,
          "time": 33.79999999999995,
          "velocity": 0.7874015748031497,
          "duration": 0.20000000000000284
        },
        {
          "name": "B2",
          "midi": 47,
          "time": 33.99999999999995,
          "velocity": 0.7874015748031497,
          "duration": 0.20000000000000284
        },
        {
          "name": "E2",
          "midi": 40,
          "time": 33.99999999999995,
          "velocity": 0.7874015748031497,
          "duration": 0.20000000000000284
        },
        {
          "name": "B2",
          "midi": 47,
          "time": 34.19999999999995,
          "velocity": 0.7874015748031497,
          "duration": 0.20000000000000284
        },
        {
          "name": "E2",
          "midi": 40,
          "time": 34.19999999999995,
          "velocity": 0.7874015748031497,
          "duration": 0.20000000000000284
        },
        {
          "name": "B2",
          "midi": 47,
          "time": 34.399999999999956,
          "velocity": 0.7874015748031497,
          "duration": 0.20000000000000284
        },
        {
          "name": "E2",
          "midi": 40,
          "time": 34.399999999999956,
          "velocity": 0.7874015748031497,
          "duration": 0.20000000000000284
        },
        {
          "name": "B2",
          "midi": 47,
          "time": 34.59999999999996,
          "velocity": 0.7874015748031497,
          "duration": 0.20000000000000284
        },
        {
          "name": "E2",
          "midi": 40,
          "time": 34.59999999999996,
          "velocity": 0.7874015748031497,
          "duration": 0.20000000000000284
        },
        {
          "name": "B2",
          "midi": 47,
          "time": 34.79999999999996,
          "velocity": 0.7874015748031497,
          "duration": 0.20000000000000284
        },
        {
          "name": "E2",
          "midi": 40,
          "time": 34.79999999999996,
          "velocity": 0.7874015748031497,
          "duration": 0.20000000000000284
        },
        {
          "name": "B2",
          "midi": 47,
          "time": 34.999999999999964,
          "velocity": 0.7874015748031497,
          "duration": 0.20000000000000284
        },
        {
          "name": "E2",
          "midi": 40,
          "time": 34.999999999999964,
          "velocity": 0.7874015748031497,
          "duration": 0.20000000000000284
        },
        {
          "name": "B2",
          "midi": 47,
          "time": 35.19999999999997,
          "velocity": 0.7874015748031497,
          "duration": 0.3999999999999986
        },
        {
          "name": "E2",
          "midi": 40,
          "time": 35.19999999999997,
          "velocity": 0.7874015748031497,
          "duration": 0.3999999999999986
        },
        {
          "name": "C#3",
          "midi": 49,
          "time": 35.599999999999966,
          "velocity": 0.7874015748031497,
          "duration": 0.3999999999999986
        },
        {
          "name": "F#2",
          "midi": 42,
          "time": 35.599999999999966,
          "velocity": 0.7874015748031497,
          "duration": 0.3999999999999986
        },
        {
          "name": "F#3",
          "midi": 54,
          "time": 35.999999999999964,
          "velocity": 0.7874015748031497,
          "duration": 0.3999999999999986
        },
        {
          "name": "B2",
          "midi": 47,
          "time": 36.39999999999996,
          "velocity": 0.7874015748031497,
          "duration": 0.20000000000000284
        },
        {
          "name": "E2",
          "midi": 40,
          "time": 36.39999999999996,
          "velocity": 0.7874015748031497,
          "duration": 0.20000000000000284
        },
        {
          "name": "C#3",
          "midi": 49,
          "time": 36.599999999999966,
          "velocity": 0.7874015748031497,
          "duration": 0.3999999999999986
        },
        {
          "name": "F#2",
          "midi": 42,
          "time": 36.599999999999966,
          "velocity": 0.7874015748031497,
          "duration": 0.3999999999999986
        },
        {
          "name": "B2",
          "midi": 47,
          "time": 36.999999999999964,
          "velocity": 0.7874015748031497,
          "duration": 0.20000000000000284
        },
        {
          "name": "E2",
          "midi": 40,
          "time": 36.999999999999964,
          "velocity": 0.7874015748031497,
          "duration": 0.20000000000000284
        },
        {
          "name": "C#3",
          "midi": 49,
          "time": 37.19999999999997,
          "velocity": 0.7874015748031497,
          "duration": 0.3999999999999986
        },
        {
          "name": "F#2",
          "midi": 42,
          "time": 37.19999999999997,
          "velocity": 0.7874015748031497,
          "duration": 0.3999999999999986
        },
        {
          "name": "F#3",
          "midi": 54,
          "time": 37.599999999999966,
          "velocity": 0.7874015748031497,
          "duration": 0.3999999999999986
        },
        {
          "name": "E3",
          "midi": 52,
          "time": 37.999999999999964,
          "velocity": 0.7874015748031497,
          "duration": 0.3999999999999986
        },
        {
          "name": "B2",
          "midi": 47,
          "time": 38.39999999999996,
          "velocity": 0.7874015748031497,
          "duration": 0.3999999999999986
        },
        {
          "name": "E2",
          "midi": 40,
          "time": 38.39999999999996,
          "velocity": 0.7874015748031497,
          "duration": 0.3999999999999986
        },
        {
          "name": "C#3",
          "midi": 49,
          "time": 38.79999999999996,
          "velocity": 0.7874015748031497,
          "duration": 0.3999999999999986
        },
        {
          "name": "F#2",
          "midi": 42,
          "time": 38.79999999999996,
          "velocity": 0.7874015748031497,
          "duration": 0.3999999999999986
        },
        {
          "name": "F#3",
          "midi": 54,
          "time": 39.19999999999996,
          "velocity": 0.7874015748031497,
          "duration": 0.3999999999999986
        },
        {
          "name": "B2",
          "midi": 47,
          "time": 39.59999999999996,
          "velocity": 0.7874015748031497,
          "duration": 0.20000000000000284
        },
        {
          "name": "E2",
          "midi": 40,
          "time": 39.59999999999996,
          "velocity": 0.7874015748031497,
          "duration": 0.20000000000000284
        },
        {
          "name": "C#3",
          "midi": 49,
          "time": 39.79999999999996,
          "velocity": 0.7874015748031497,
          "duration": 0.3999999999999986
        },
        {
          "name": "F#2",
          "midi": 42,
          "time": 39.79999999999996,
          "velocity": 0.7874015748031497,
          "duration": 0.3999999999999986
        },
        {
          "name": "B2",
          "midi": 47,
          "time": 40.19999999999996,
          "velocity": 0.7874015748031497,
          "duration": 0.20000000000000284
        },
        {
          "name": "E2",
          "midi": 40,
          "time": 40.19999999999996,
          "velocity": 0.7874015748031497,
          "duration": 0.20000000000000284
        },
        {
          "name": "C#3",
          "midi": 49,
          "time": 40.39999999999996,
          "velocity": 0.7874015748031497,
          "duration": 0.3999999999999986
        },
        {
          "name": "G#2",
          "midi": 44,
          "time": 40.39999999999996,
          "velocity": 0.7874015748031497,
          "duration": 0.3999999999999986
        },
        {
          "name": "C3",
          "midi": 48,
          "time": 40.79999999999996,
          "velocity": 0.7874015748031497,
          "duration": 0.3999999999999986
        },
        {
          "name": "G2",
          "midi": 43,
          "time": 40.79999999999996,
          "velocity": 0.7874015748031497,
          "duration": 0.3999999999999986
        },
        {
          "name": "B2",
          "midi": 47,
          "time": 41.19999999999996,
          "velocity": 0.7874015748031497,
          "duration": 0.3999999999999986
        },
        {
          "name": "F#2",
          "midi": 42,
          "time": 41.19999999999996,
          "velocity": 0.7874015748031497,
          "duration": 0.3999999999999986
        },
        {
          "name": "B2",
          "midi": 47,
          "time": 41.59999999999996,
          "velocity": 0.7874015748031497,
          "duration": 0.3999999999999986
        },
        {
          "name": "E2",
          "midi": 40,
          "time": 41.59999999999996,
          "velocity": 0.7874015748031497,
          "duration": 0.3999999999999986
        },
        {
          "name": "C#3",
          "midi": 49,
          "time": 41.99999999999996,
          "velocity": 0.7874015748031497,
          "duration": 0.3999999999999986
        },
        {
          "name": "F#2",
          "midi": 42,
          "time": 41.99999999999996,
          "velocity": 0.7874015748031497,
          "duration": 0.3999999999999986
        },
        {
          "name": "F#3",
          "midi": 54,
          "time": 42.399999999999956,
          "velocity": 0.7874015748031497,
          "duration": 0.3999999999999986
        },
        {
          "name": "B2",
          "midi": 47,
          "time": 42.799999999999955,
          "velocity": 0.7874015748031497,
          "duration": 0.20000000000000284
        },
        {
          "name": "E2",
          "midi": 40,
          "time": 42.799999999999955,
          "velocity": 0.7874015748031497,
          "duration": 0.20000000000000284
        },
        {
          "name": "C#3",
          "midi": 49,
          "time": 42.99999999999996,
          "velocity": 0.7874015748031497,
          "duration": 0.3999999999999986
        },
        {
          "name": "F#2",
          "midi": 42,
          "time": 42.99999999999996,
          "velocity": 0.7874015748031497,
          "duration": 0.3999999999999986
        },
        {
          "name": "B2",
          "midi": 47,
          "time": 43.399999999999956,
          "velocity": 0.7874015748031497,
          "duration": 0.20000000000000284
        },
        {
          "name": "E2",
          "midi": 40,
          "time": 43.399999999999956,
          "velocity": 0.7874015748031497,
          "duration": 0.20000000000000284
        },
        {
          "name": "C#3",
          "midi": 49,
          "time": 43.59999999999996,
          "velocity": 0.7874015748031497,
          "duration": 0.3999999999999986
        },
        {
          "name": "F#2",
          "midi": 42,
          "time": 43.59999999999996,
          "velocity": 0.7874015748031497,
          "duration": 0.3999999999999986
        },
        {
          "name": "F#3",
          "midi": 54,
          "time": 43.99999999999996,
          "velocity": 0.7874015748031497,
          "duration": 0.3999999999999986
        },
        {
          "name": "E3",
          "midi": 52,
          "time": 44.399999999999956,
          "velocity": 0.7874015748031497,
          "duration": 0.3999999999999986
        },
        {
          "name": "B2",
          "midi": 47,
          "time": 44.799999999999955,
          "velocity": 0.7874015748031497,
          "duration": 0.3999999999999986
        },
        {
          "name": "E2",
          "midi": 40,
          "time": 44.799999999999955,
          "velocity": 0.7874015748031497,
          "duration": 0.3999999999999986
        },
        {
          "name": "C#3",
          "midi": 49,
          "time": 45.19999999999995,
          "velocity": 0.7874015748031497,
          "duration": 0.3999999999999986
        },
        {
          "name": "F#2",
          "midi": 42,
          "time": 45.19999999999995,
          "velocity": 0.7874015748031497,
          "duration": 0.3999999999999986
        },
        {
          "name": "F#3",
          "midi": 54,
          "time": 45.59999999999995,
          "velocity": 0.7874015748031497,
          "duration": 0.3999999999999986
        },
        {
          "name": "B2",
          "midi": 47,
          "time": 45.99999999999995,
          "velocity": 0.7874015748031497,
          "duration": 0.20000000000000284
        },
        {
          "name": "E2",
          "midi": 40,
          "time": 45.99999999999995,
          "velocity": 0.7874015748031497,
          "duration": 0.20000000000000284
        },
        {
          "name": "C#3",
          "midi": 49,
          "time": 46.19999999999995,
          "velocity": 0.7874015748031497,
          "duration": 0.3999999999999986
        },
        {
          "name": "F#2",
          "midi": 42,
          "time": 46.19999999999995,
          "velocity": 0.7874015748031497,
          "duration": 0.3999999999999986
        },
        {
          "name": "B2",
          "midi": 47,
          "time": 46.59999999999995,
          "velocity": 0.7874015748031497,
          "duration": 0.20000000000000284
        },
        {
          "name": "E2",
          "midi": 40,
          "time": 46.59999999999995,
          "velocity": 0.7874015748031497,
          "duration": 0.20000000000000284
        },
        {
          "name": "C#3",
          "midi": 49,
          "time": 46.799999999999955,
          "velocity": 0.7874015748031497,
          "duration": 0.3999999999999986
        },
        {
          "name": "G#2",
          "midi": 44,
          "time": 46.799999999999955,
          "velocity": 0.7874015748031497,
          "duration": 0.3999999999999986
        },
        {
          "name": "C3",
          "midi": 48,
          "time": 47.19999999999995,
          "velocity": 0.7874015748031497,
          "duration": 0.3999999999999986
        },
        {
          "name": "G2",
          "midi": 43,
          "time": 47.19999999999995,
          "velocity": 0.7874015748031497,
          "duration": 0.3999999999999986
        },
        {
          "name": "B2",
          "midi": 47,
          "time": 47.59999999999995,
          "velocity": 0.7874015748031497,
          "duration": 0.3999999999999986
        },
        {
          "name": "F#2",
          "midi": 42,
          "time": 47.59999999999995,
          "velocity": 0.7874015748031497,
          "duration": 0.3999999999999986
        },
        {
          "name": "B2",
          "midi": 47,
          "time": 47.99999999999995,
          "velocity": 0.7874015748031497,
          "duration": 0.3999999999999986
        },
        {
          "name": "E2",
          "midi": 40,
          "time": 47.99999999999995,
          "velocity": 0.7874015748031497,
          "duration": 0.3999999999999986
        },
        {
          "name": "C#3",
          "midi": 49,
          "time": 48.39999999999995,
          "velocity": 0.7874015748031497,
          "duration": 0.3999999999999986
        },
        {
          "name": "F#2",
          "midi": 42,
          "time": 48.39999999999995,
          "velocity": 0.7874015748031497,
          "duration": 0.3999999999999986
        },
        {
          "name": "F#3",
          "midi": 54,
          "time": 48.79999999999995,
          "velocity": 0.7874015748031497,
          "duration": 0.3999999999999986
        },
        {
          "name": "B2",
          "midi": 47,
          "time": 49.199999999999946,
          "velocity": 0.7874015748031497,
          "duration": 0.20000000000000284
        },
        {
          "name": "E2",
          "midi": 40,
          "time": 49.199999999999946,
          "velocity": 0.7874015748031497,
          "duration": 0.20000000000000284
        },
        {
          "name": "C#3",
          "midi": 49,
          "time": 49.39999999999995,
          "velocity": 0.7874015748031497,
          "duration": 0.3999999999999986
        },
        {
          "name": "F#2",
          "midi": 42,
          "time": 49.39999999999995,
          "velocity": 0.7874015748031497,
          "duration": 0.3999999999999986
        },
        {
          "name": "B2",
          "midi": 47,
          "time": 49.79999999999995,
          "velocity": 0.7874015748031497,
          "duration": 0.20000000000000284
        },
        {
          "name": "E2",
          "midi": 40,
          "time": 49.79999999999995,
          "velocity": 0.7874015748031497,
          "duration": 0.20000000000000284
        },
        {
          "name": "C#3",
          "midi": 49,
          "time": 49.99999999999995,
          "velocity": 0.7874015748031497,
          "duration": 0.3999999999999986
        },
        {
          "name": "F#2",
          "midi": 42,
          "time": 49.99999999999995,
          "velocity": 0.7874015748031497,
          "duration": 0.3999999999999986
        },
        {
          "name": "F#3",
          "midi": 54,
          "time": 50.39999999999995,
          "velocity": 0.7874015748031497,
          "duration": 0.3999999999999986
        },
        {
          "name": "E3",
          "midi": 52,
          "time": 50.79999999999995,
          "velocity": 0.7874015748031497,
          "duration": 0.3999999999999986
        },
        {
          "name": "B2",
          "midi": 47,
          "time": 51.199999999999946,
          "velocity": 0.7874015748031497,
          "duration": 0.3999999999999986
        },
        {
          "name": "E2",
          "midi": 40,
          "time": 51.199999999999946,
          "velocity": 0.7874015748031497,
          "duration": 0.3999999999999986
        },
        {
          "name": "C#3",
          "midi": 49,
          "time": 51.599999999999945,
          "velocity": 0.7874015748031497,
          "duration": 0.3999999999999986
        },
        {
          "name": "F#2",
          "midi": 42,
          "time": 51.599999999999945,
          "velocity": 0.7874015748031497,
          "duration": 0.3999999999999986
        },
        {
          "name": "F#3",
          "midi": 54,
          "time": 51.99999999999994,
          "velocity": 0.7874015748031497,
          "duration": 0.3999999999999986
        },
        {
          "name": "B2",
          "midi": 47,
          "time": 52.39999999999994,
          "velocity": 0.7874015748031497,
          "duration": 0.20000000000000284
        },
        {
          "name": "E2",
          "midi": 40,
          "time": 52.39999999999994,
          "velocity": 0.7874015748031497,
          "duration": 0.20000000000000284
        },
        {
          "name": "C#3",
          "midi": 49,
          "time": 52.599999999999945,
          "velocity": 0.7874015748031497,
          "duration": 0.3999999999999986
        },
        {
          "name": "F#2",
          "midi": 42,
          "time": 52.599999999999945,
          "velocity": 0.7874015748031497,
          "duration": 0.3999999999999986
        },
        {
          "name": "B2",
          "midi": 47,
          "time": 52.99999999999994,
          "velocity": 0.7874015748031497,
          "duration": 0.20000000000000284
        },
        {
          "name": "E2",
          "midi": 40,
          "time": 52.99999999999994,
          "velocity": 0.7874015748031497,
          "duration": 0.20000000000000284
        },
        {
          "name": "C#3",
          "midi": 49,
          "time": 53.199999999999946,
          "velocity": 0.7874015748031497,
          "duration": 0.3999999999999986
        },
        {
          "name": "G#2",
          "midi": 44,
          "time": 53.199999999999946,
          "velocity": 0.7874015748031497,
          "duration": 0.3999999999999986
        },
        {
          "name": "C3",
          "midi": 48,
          "time": 53.599999999999945,
          "velocity": 0.7874015748031497,
          "duration": 0.3999999999999986
        },
        {
          "name": "G2",
          "midi": 43,
          "time": 53.599999999999945,
          "velocity": 0.7874015748031497,
          "duration": 0.3999999999999986
        },
        {
          "name": "B2",
          "midi": 47,
          "time": 53.99999999999994,
          "velocity": 0.7874015748031497,
          "duration": 0.3999999999999986
        },
        {
          "name": "F#2",
          "midi": 42,
          "time": 53.99999999999994,
          "velocity": 0.7874015748031497,
          "duration": 0.3999999999999986
        },
        {
          "name": "B2",
          "midi": 47,
          "time": 54.39999999999994,
          "velocity": 0.7874015748031497,
          "duration": 0.3999999999999986
        },
        {
          "name": "E2",
          "midi": 40,
          "time": 54.39999999999994,
          "velocity": 0.7874015748031497,
          "duration": 0.3999999999999986
        },
        {
          "name": "C#3",
          "midi": 49,
          "time": 54.79999999999994,
          "velocity": 0.7874015748031497,
          "duration": 0.3999999999999986
        },
        {
          "name": "F#2",
          "midi": 42,
          "time": 54.79999999999994,
          "velocity": 0.7874015748031497,
          "duration": 0.3999999999999986
        },
        {
          "name": "F#3",
          "midi": 54,
          "time": 55.19999999999994,
          "velocity": 0.7874015748031497,
          "duration": 0.3999999999999986
        },
        {
          "name": "B2",
          "midi": 47,
          "time": 55.59999999999994,
          "velocity": 0.7874015748031497,
          "duration": 0.20000000000000284
        },
        {
          "name": "E2",
          "midi": 40,
          "time": 55.59999999999994,
          "velocity": 0.7874015748031497,
          "duration": 0.20000000000000284
        },
        {
          "name": "C#3",
          "midi": 49,
          "time": 55.79999999999994,
          "velocity": 0.7874015748031497,
          "duration": 0.3999999999999986
        },
        {
          "name": "F#2",
          "midi": 42,
          "time": 55.79999999999994,
          "velocity": 0.7874015748031497,
          "duration": 0.3999999999999986
        },
        {
          "name": "B2",
          "midi": 47,
          "time": 56.19999999999994,
          "velocity": 0.7874015748031497,
          "duration": 0.20000000000000284
        },
        {
          "name": "E2",
          "midi": 40,
          "time": 56.19999999999994,
          "velocity": 0.7874015748031497,
          "duration": 0.20000000000000284
        },
        {
          "name": "C#3",
          "midi": 49,
          "time": 56.39999999999994,
          "velocity": 0.7874015748031497,
          "duration": 0.3999999999999986
        },
        {
          "name": "F#2",
          "midi": 42,
          "time": 56.39999999999994,
          "velocity": 0.7874015748031497,
          "duration": 0.3999999999999986
        },
        {
          "name": "F#3",
          "midi": 54,
          "time": 56.79999999999994,
          "velocity": 0.7874015748031497,
          "duration": 0.3999999999999986
        },
        {
          "name": "E3",
          "midi": 52,
          "time": 57.19999999999994,
          "velocity": 0.7874015748031497,
          "duration": 0.3999999999999986
        },
        {
          "name": "B2",
          "midi": 47,
          "time": 57.59999999999994,
          "velocity": 0.7874015748031497,
          "duration": 0.3999999999999986
        },
        {
          "name": "E2",
          "midi": 40,
          "time": 57.59999999999994,
          "velocity": 0.7874015748031497,
          "duration": 0.3999999999999986
        },
        {
          "name": "C#3",
          "midi": 49,
          "time": 57.999999999999936,
          "velocity": 0.7874015748031497,
          "duration": 0.3999999999999986
        },
        {
          "name": "F#2",
          "midi": 42,
          "time": 57.999999999999936,
          "velocity": 0.7874015748031497,
          "duration": 0.3999999999999986
        },
        {
          "name": "F#3",
          "midi": 54,
          "time": 58.399999999999935,
          "velocity": 0.7874015748031497,
          "duration": 0.3999999999999986
        },
        {
          "name": "B2",
          "midi": 47,
          "time": 58.79999999999993,
          "velocity": 0.7874015748031497,
          "duration": 0.20000000000000284
        },
        {
          "name": "E2",
          "midi": 40,
          "time": 58.79999999999993,
          "velocity": 0.7874015748031497,
          "duration": 0.20000000000000284
        },
        {
          "name": "C#3",
          "midi": 49,
          "time": 58.999999999999936,
          "velocity": 0.7874015748031497,
          "duration": 0.3999999999999986
        },
        {
          "name": "F#2",
          "midi": 42,
          "time": 58.999999999999936,
          "velocity": 0.7874015748031497,
          "duration": 0.3999999999999986
        },
        {
          "name": "B2",
          "midi": 47,
          "time": 59.399999999999935,
          "velocity": 0.7874015748031497,
          "duration": 0.20000000000000284
        },
        {
          "name": "E2",
          "midi": 40,
          "time": 59.399999999999935,
          "velocity": 0.7874015748031497,
          "duration": 0.20000000000000284
        },
        {
          "name": "C#3",
          "midi": 49,
          "time": 59.59999999999994,
          "velocity": 0.7874015748031497,
          "duration": 2.799999999999997
        },
        {
          "name": "G#2",
          "midi": 44,
          "time": 59.59999999999994,
          "velocity": 0.7874015748031497,
          "duration": 2.799999999999997
        },
        {
          "name": "F#2",
          "midi": 42,
          "time": 62.399999999999935,
          "velocity": 0.7874015748031497,
          "duration": 0.20000000000000284
        },
        {
          "name": "F#2",
          "midi": 42,
          "time": 62.79999999999994,
          "velocity": 0.7874015748031497,
          "duration": 0.20000000000000284
        },
        {
          "name": "E2",
          "midi": 40,
          "time": 63.199999999999946,
          "velocity": 0.7874015748031497,
          "duration": 0.3999999999999986
        },
        {
          "name": "F#2",
          "midi": 42,
          "time": 63.599999999999945,
          "velocity": 0.7874015748031497,
          "duration": 0.20000000000000284
        },
        {
          "name": "F#2",
          "midi": 42,
          "time": 63.79999999999995,
          "velocity": 0.7874015748031497,
          "duration": 0.20000000000000284
        },
        {
          "name": "F#2",
          "midi": 42,
          "time": 64.19999999999995,
          "velocity": 0.7874015748031497,
          "duration": 0.20000000000000284
        },
        {
          "name": "E2",
          "midi": 40,
          "time": 64.59999999999995,
          "velocity": 0.7874015748031497,
          "duration": 0.20000000000000284
        },
        {
          "name": "A2",
          "midi": 45,
          "time": 64.79999999999995,
          "velocity": 0.7874015748031497,
          "duration": 0.799999999999983
        },
        {
          "name": "F#2",
          "midi": 42,
          "time": 65.59999999999994,
          "velocity": 0.7874015748031497,
          "duration": 0.20000000000000284
        },
        {
          "name": "F#2",
          "midi": 42,
          "time": 65.99999999999994,
          "velocity": 0.7874015748031497,
          "duration": 0.20000000000000284
        },
        {
          "name": "E2",
          "midi": 40,
          "time": 66.39999999999995,
          "velocity": 0.7874015748031497,
          "duration": 0.4000000000000057
        },
        {
          "name": "F#2",
          "midi": 42,
          "time": 66.79999999999995,
          "velocity": 0.7874015748031497,
          "duration": 0.20000000000000284
        },
        {
          "name": "F#2",
          "midi": 42,
          "time": 66.99999999999996,
          "velocity": 0.7874015748031497,
          "duration": 0.20000000000000284
        },
        {
          "name": "F#3",
          "midi": 54,
          "time": 67.19999999999996,
          "velocity": 0.7874015748031497,
          "duration": 0.20000000000000284
        },
        {
          "name": "E3",
          "midi": 52,
          "time": 67.39999999999996,
          "velocity": 0.7874015748031497,
          "duration": 0.20000000000000284
        },
        {
          "name": "C#3",
          "midi": 49,
          "time": 67.59999999999997,
          "velocity": 0.7874015748031497,
          "duration": 0.20000000000000284
        },
        {
          "name": "C3",
          "midi": 48,
          "time": 67.79999999999997,
          "velocity": 0.7874015748031497,
          "duration": 0.20000000000000284
        },
        {
          "name": "B2",
          "midi": 47,
          "time": 67.99999999999997,
          "velocity": 0.7874015748031497,
          "duration": 0.20000000000000284
        },
        {
          "name": "A2",
          "midi": 45,
          "time": 68.19999999999997,
          "velocity": 0.7874015748031497,
          "duration": 0.5999999999999943
        },
        {
          "name": "F#2",
          "midi": 42,
          "time": 68.79999999999997,
          "velocity": 0.7874015748031497,
          "duration": 0.20000000000000284
        },
        {
          "name": "F#2",
          "midi": 42,
          "time": 69.19999999999997,
          "velocity": 0.7874015748031497,
          "duration": 0.20000000000000284
        },
        {
          "name": "E2",
          "midi": 40,
          "time": 69.59999999999998,
          "velocity": 0.7874015748031497,
          "duration": 0.4000000000000057
        },
        {
          "name": "F#2",
          "midi": 42,
          "time": 69.99999999999999,
          "velocity": 0.7874015748031497,
          "duration": 0.20000000000000284
        },
        {
          "name": "F#2",
          "midi": 42,
          "time": 70.19999999999999,
          "velocity": 0.7874015748031497,
          "duration": 0.20000000000000284
        },
        {
          "name": "F#2",
          "midi": 42,
          "time": 70.6,
          "velocity": 0.7874015748031497,
          "duration": 0.20000000000000284
        },
        {
          "name": "E2",
          "midi": 40,
          "time": 71,
          "velocity": 0.7874015748031497,
          "duration": 0.20000000000000284
        },
        {
          "name": "A2",
          "midi": 45,
          "time": 71.2,
          "velocity": 0.7874015748031497,
          "duration": 0.799999999999983
        },
        {
          "name": "F#2",
          "midi": 42,
          "time": 71.99999999999999,
          "velocity": 0.7874015748031497,
          "duration": 0.20000000000000284
        },
        {
          "name": "F#2",
          "midi": 42,
          "time": 72.39999999999999,
          "velocity": 0.7874015748031497,
          "duration": 0.20000000000000284
        },
        {
          "name": "E2",
          "midi": 40,
          "time": 72.8,
          "velocity": 0.7874015748031497,
          "duration": 0.4000000000000057
        },
        {
          "name": "F#2",
          "midi": 42,
          "time": 73.2,
          "velocity": 0.7874015748031497,
          "duration": 0.20000000000000284
        },
        {
          "name": "F#2",
          "midi": 42,
          "time": 73.4,
          "velocity": 0.7874015748031497,
          "duration": 0.20000000000000284
        },
        {
          "name": "F#3",
          "midi": 54,
          "time": 73.60000000000001,
          "velocity": 0.7874015748031497,
          "duration": 0.20000000000000284
        },
        {
          "name": "E3",
          "midi": 52,
          "time": 73.80000000000001,
          "velocity": 0.7874015748031497,
          "duration": 0.20000000000000284
        },
        {
          "name": "C#3",
          "midi": 49,
          "time": 74.00000000000001,
          "velocity": 0.7874015748031497,
          "duration": 0.20000000000000284
        },
        {
          "name": "C3",
          "midi": 48,
          "time": 74.20000000000002,
          "velocity": 0.7874015748031497,
          "duration": 0.20000000000000284
        },
        {
          "name": "B2",
          "midi": 47,
          "time": 74.40000000000002,
          "velocity": 0.7874015748031497,
          "duration": 0.20000000000000284
        },
        {
          "name": "A2",
          "midi": 45,
          "time": 74.60000000000002,
          "velocity": 0.7874015748031497,
          "duration": 0.5999999999999943
        },
        {
          "name": "F#2",
          "midi": 42,
          "time": 75.20000000000002,
          "velocity": 0.7874015748031497,
          "duration": 0.20000000000000284
        },
        {
          "name": "F#2",
          "midi": 42,
          "time": 75.60000000000002,
          "velocity": 0.7874015748031497,
          "duration": 0.20000000000000284
        },
        {
          "name": "E2",
          "midi": 40,
          "time": 76.00000000000003,
          "velocity": 0.7874015748031497,
          "duration": 0.4000000000000057
        },
        {
          "name": "F#2",
          "midi": 42,
          "time": 76.40000000000003,
          "velocity": 0.7874015748031497,
          "duration": 0.20000000000000284
        },
        {
          "name": "F#2",
          "midi": 42,
          "time": 76.60000000000004,
          "velocity": 0.7874015748031497,
          "duration": 0.20000000000000284
        },
        {
          "name": "F#2",
          "midi": 42,
          "time": 77.00000000000004,
          "velocity": 0.7874015748031497,
          "duration": 0.20000000000000284
        },
        {
          "name": "E2",
          "midi": 40,
          "time": 77.40000000000005,
          "velocity": 0.7874015748031497,
          "duration": 0.20000000000000284
        },
        {
          "name": "A2",
          "midi": 45,
          "time": 77.60000000000005,
          "velocity": 0.7874015748031497,
          "duration": 0.799999999999983
        },
        {
          "name": "F#2",
          "midi": 42,
          "time": 78.40000000000003,
          "velocity": 0.7874015748031497,
          "duration": 0.20000000000000284
        },
        {
          "name": "F#2",
          "midi": 42,
          "time": 78.80000000000004,
          "velocity": 0.7874015748031497,
          "duration": 0.20000000000000284
        },
        {
          "name": "E2",
          "midi": 40,
          "time": 79.20000000000005,
          "velocity": 0.7874015748031497,
          "duration": 0.4000000000000057
        },
        {
          "name": "F#2",
          "midi": 42,
          "time": 79.60000000000005,
          "velocity": 0.7874015748031497,
          "duration": 0.20000000000000284
        },
        {
          "name": "F#2",
          "midi": 42,
          "time": 79.80000000000005,
          "velocity": 0.7874015748031497,
          "duration": 0.20000000000000284
        },
        {
          "name": "F#3",
          "midi": 54,
          "time": 80.00000000000006,
          "velocity": 0.7874015748031497,
          "duration": 0.20000000000000284
        },
        {
          "name": "E3",
          "midi": 52,
          "time": 80.20000000000006,
          "velocity": 0.7874015748031497,
          "duration": 0.20000000000000284
        },
        {
          "name": "C#3",
          "midi": 49,
          "time": 80.40000000000006,
          "velocity": 0.7874015748031497,
          "duration": 0.20000000000000284
        },
        {
          "name": "C3",
          "midi": 48,
          "time": 80.60000000000007,
          "velocity": 0.7874015748031497,
          "duration": 0.20000000000000284
        },
        {
          "name": "B2",
          "midi": 47,
          "time": 80.80000000000007,
          "velocity": 0.7874015748031497,
          "duration": 0.20000000000000284
        },
        {
          "name": "A2",
          "midi": 45,
          "time": 81.00000000000007,
          "velocity": 0.7874015748031497,
          "duration": 0.5999999999999943
        },
        {
          "name": "F#2",
          "midi": 42,
          "time": 81.60000000000007,
          "velocity": 0.7874015748031497,
          "duration": 0.20000000000000284
        },
        {
          "name": "F#2",
          "midi": 42,
          "time": 82.00000000000007,
          "velocity": 0.7874015748031497,
          "duration": 0.20000000000000284
        },
        {
          "name": "E2",
          "midi": 40,
          "time": 82.40000000000008,
          "velocity": 0.7874015748031497,
          "duration": 0.4000000000000057
        },
        {
          "name": "F#2",
          "midi": 42,
          "time": 82.80000000000008,
          "velocity": 0.7874015748031497,
          "duration": 0.20000000000000284
        },
        {
          "name": "F#2",
          "midi": 42,
          "time": 83.00000000000009,
          "velocity": 0.7874015748031497,
          "duration": 0.20000000000000284
        },
        {
          "name": "F#2",
          "midi": 42,
          "time": 83.40000000000009,
          "velocity": 0.7874015748031497,
          "duration": 0.20000000000000284
        },
        {
          "name": "E2",
          "midi": 40,
          "time": 83.8000000000001,
          "velocity": 0.7874015748031497,
          "duration": 0.20000000000000284
        },
        {
          "name": "A2",
          "midi": 45,
          "time": 84.0000000000001,
          "velocity": 0.7874015748031497,
          "duration": 0.799999999999983
        },
        {
          "name": "F#2",
          "midi": 42,
          "time": 84.80000000000008,
          "velocity": 0.7874015748031497,
          "duration": 0.20000000000000284
        },
        {
          "name": "F#2",
          "midi": 42,
          "time": 85.20000000000009,
          "velocity": 0.7874015748031497,
          "duration": 0.20000000000000284
        },
        {
          "name": "E2",
          "midi": 40,
          "time": 85.6000000000001,
          "velocity": 0.7874015748031497,
          "duration": 0.4000000000000057
        },
        {
          "name": "F#2",
          "midi": 42,
          "time": 86.0000000000001,
          "velocity": 0.7874015748031497,
          "duration": 0.20000000000000284
        },
        {
          "name": "F#2",
          "midi": 42,
          "time": 86.2000000000001,
          "velocity": 0.7874015748031497,
          "duration": 0.20000000000000284
        },
        {
          "name": "F#2",
          "midi": 42,
          "time": 88.0000000000001,
          "velocity": 0.7874015748031497,
          "duration": 0.20000000000000284
        },
        {
          "name": "F#2",
          "midi": 42,
          "time": 88.4000000000001,
          "velocity": 0.7874015748031497,
          "duration": 0.20000000000000284
        },
        {
          "name": "E2",
          "midi": 40,
          "time": 88.80000000000011,
          "velocity": 0.7874015748031497,
          "duration": 0.4000000000000057
        },
        {
          "name": "F#2",
          "midi": 42,
          "time": 89.20000000000012,
          "velocity": 0.7874015748031497,
          "duration": 0.20000000000000284
        },
        {
          "name": "F#2",
          "midi": 42,
          "time": 89.40000000000012,
          "velocity": 0.7874015748031497,
          "duration": 0.20000000000000284
        },
        {
          "name": "F#2",
          "midi": 42,
          "time": 89.80000000000013,
          "velocity": 0.7874015748031497,
          "duration": 0.20000000000000284
        },
        {
          "name": "E2",
          "midi": 40,
          "time": 90.20000000000013,
          "velocity": 0.7874015748031497,
          "duration": 0.20000000000000284
        },
        {
          "name": "A2",
          "midi": 45,
          "time": 90.40000000000013,
          "velocity": 0.7874015748031497,
          "duration": 0.799999999999983
        },
        {
          "name": "F#2",
          "midi": 42,
          "time": 91.20000000000012,
          "velocity": 0.7874015748031497,
          "duration": 0.20000000000000284
        },
        {
          "name": "F#2",
          "midi": 42,
          "time": 91.60000000000012,
          "velocity": 0.7874015748031497,
          "duration": 0.20000000000000284
        },
        {
          "name": "E2",
          "midi": 40,
          "time": 92.00000000000013,
          "velocity": 0.7874015748031497,
          "duration": 0.4000000000000057
        },
        {
          "name": "F#2",
          "midi": 42,
          "time": 92.40000000000013,
          "velocity": 0.7874015748031497,
          "duration": 0.20000000000000284
        },
        {
          "name": "F#2",
          "midi": 42,
          "time": 92.60000000000014,
          "velocity": 0.7874015748031497,
          "duration": 0.20000000000000284
        },
        {
          "name": "F#3",
          "midi": 54,
          "time": 92.80000000000014,
          "velocity": 0.7874015748031497,
          "duration": 0.20000000000000284
        },
        {
          "name": "E3",
          "midi": 52,
          "time": 93.00000000000014,
          "velocity": 0.7874015748031497,
          "duration": 0.20000000000000284
        },
        {
          "name": "C#3",
          "midi": 49,
          "time": 93.20000000000014,
          "velocity": 0.7874015748031497,
          "duration": 0.20000000000000284
        },
        {
          "name": "C3",
          "midi": 48,
          "time": 93.40000000000015,
          "velocity": 0.7874015748031497,
          "duration": 0.20000000000000284
        },
        {
          "name": "B2",
          "midi": 47,
          "time": 93.60000000000015,
          "velocity": 0.7874015748031497,
          "duration": 0.20000000000000284
        },
        {
          "name": "A2",
          "midi": 45,
          "time": 93.80000000000015,
          "velocity": 0.7874015748031497,
          "duration": 0.5999999999999943
        },
        {
          "name": "F#2",
          "midi": 42,
          "time": 94.40000000000015,
          "velocity": 0.7874015748031497,
          "duration": 0.20000000000000284
        },
        {
          "name": "F#2",
          "midi": 42,
          "time": 94.80000000000015,
          "velocity": 0.7874015748031497,
          "duration": 0.20000000000000284
        },
        {
          "name": "E2",
          "midi": 40,
          "time": 95.20000000000016,
          "velocity": 0.7874015748031497,
          "duration": 0.4000000000000057
        },
        {
          "name": "F#2",
          "midi": 42,
          "time": 95.60000000000016,
          "velocity": 0.7874015748031497,
          "duration": 0.20000000000000284
        },
        {
          "name": "F#2",
          "midi": 42,
          "time": 95.80000000000017,
          "velocity": 0.7874015748031497,
          "duration": 0.20000000000000284
        },
        {
          "name": "F#2",
          "midi": 42,
          "time": 96.20000000000017,
          "velocity": 0.7874015748031497,
          "duration": 0.20000000000000284
        },
        {
          "name": "E2",
          "midi": 40,
          "time": 96.60000000000018,
          "velocity": 0.7874015748031497,
          "duration": 0.20000000000000284
        },
        {
          "name": "A2",
          "midi": 45,
          "time": 96.80000000000018,
          "velocity": 0.7874015748031497,
          "duration": 0.799999999999983
        },
        {
          "name": "F#2",
          "midi": 42,
          "time": 97.60000000000016,
          "velocity": 0.7874015748031497,
          "duration": 0.20000000000000284
        },
        {
          "name": "F#2",
          "midi": 42,
          "time": 98.00000000000017,
          "velocity": 0.7874015748031497,
          "duration": 0.20000000000000284
        },
        {
          "name": "E2",
          "midi": 40,
          "time": 98.40000000000018,
          "velocity": 0.7874015748031497,
          "duration": 0.4000000000000057
        },
        {
          "name": "F#2",
          "midi": 42,
          "time": 98.80000000000018,
          "velocity": 0.7874015748031497,
          "duration": 0.20000000000000284
        },
        {
          "name": "F#2",
          "midi": 42,
          "time": 99.00000000000018,
          "velocity": 0.7874015748031497,
          "duration": 0.20000000000000284
        },
        {
          "name": "F#3",
          "midi": 54,
          "time": 99.20000000000019,
          "velocity": 0.7874015748031497,
          "duration": 0.20000000000000284
        },
        {
          "name": "E3",
          "midi": 52,
          "time": 99.40000000000019,
          "velocity": 0.7874015748031497,
          "duration": 0.20000000000000284
        },
        {
          "name": "C#3",
          "midi": 49,
          "time": 99.6000000000002,
          "velocity": 0.7874015748031497,
          "duration": 0.20000000000000284
        },
        {
          "name": "C3",
          "midi": 48,
          "time": 99.8000000000002,
          "velocity": 0.7874015748031497,
          "duration": 0.20000000000000284
        },
        {
          "name": "B2",
          "midi": 47,
          "time": 100.0000000000002,
          "velocity": 0.7874015748031497,
          "duration": 0.20000000000000284
        },
        {
          "name": "A2",
          "midi": 45,
          "time": 100.2000000000002,
          "velocity": 0.7874015748031497,
          "duration": 0.5999999999999943
        },
        {
          "name": "F#2",
          "midi": 42,
          "time": 100.8000000000002,
          "velocity": 0.7874015748031497,
          "duration": 0.20000000000000284
        },
        {
          "name": "F#2",
          "midi": 42,
          "time": 101.2000000000002,
          "velocity": 0.7874015748031497,
          "duration": 0.20000000000000284
        },
        {
          "name": "E2",
          "midi": 40,
          "time": 101.60000000000021,
          "velocity": 0.7874015748031497,
          "duration": 0.4000000000000057
        },
        {
          "name": "F#2",
          "midi": 42,
          "time": 102.00000000000021,
          "velocity": 0.7874015748031497,
          "duration": 0.20000000000000284
        },
        {
          "name": "F#2",
          "midi": 42,
          "time": 102.20000000000022,
          "velocity": 0.7874015748031497,
          "duration": 0.20000000000000284
        },
        {
          "name": "F#2",
          "midi": 42,
          "time": 102.60000000000022,
          "velocity": 0.7874015748031497,
          "duration": 0.20000000000000284
        },
        {
          "name": "E2",
          "midi": 40,
          "time": 103.00000000000023,
          "velocity": 0.7874015748031497,
          "duration": 0.20000000000000284
        },
        {
          "name": "A2",
          "midi": 45,
          "time": 103.20000000000023,
          "velocity": 0.7874015748031497,
          "duration": 0.799999999999983
        },
        {
          "name": "F#2",
          "midi": 42,
          "time": 104.00000000000021,
          "velocity": 0.7874015748031497,
          "duration": 0.20000000000000284
        },
        {
          "name": "F#2",
          "midi": 42,
          "time": 104.40000000000022,
          "velocity": 0.7874015748031497,
          "duration": 0.20000000000000284
        },
        {
          "name": "E2",
          "midi": 40,
          "time": 104.80000000000022,
          "velocity": 0.7874015748031497,
          "duration": 0.4000000000000057
        },
        {
          "name": "F#2",
          "midi": 42,
          "time": 105.20000000000023,
          "velocity": 0.7874015748031497,
          "duration": 0.20000000000000284
        },
        {
          "name": "F#2",
          "midi": 42,
          "time": 105.40000000000023,
          "velocity": 0.7874015748031497,
          "duration": 0.20000000000000284
        },
        {
          "name": "F#3",
          "midi": 54,
          "time": 105.60000000000024,
          "velocity": 0.7874015748031497,
          "duration": 0.20000000000000284
        },
        {
          "name": "E3",
          "midi": 52,
          "time": 105.80000000000024,
          "velocity": 0.7874015748031497,
          "duration": 0.20000000000000284
        },
        {
          "name": "C#3",
          "midi": 49,
          "time": 106.00000000000024,
          "velocity": 0.7874015748031497,
          "duration": 0.20000000000000284
        },
        {
          "name": "C3",
          "midi": 48,
          "time": 106.20000000000024,
          "velocity": 0.7874015748031497,
          "duration": 0.20000000000000284
        },
        {
          "name": "B2",
          "midi": 47,
          "time": 106.40000000000025,
          "velocity": 0.7874015748031497,
          "duration": 0.20000000000000284
        },
        {
          "name": "A2",
          "midi": 45,
          "time": 106.60000000000025,
          "velocity": 0.7874015748031497,
          "duration": 0.5999999999999943
        },
        {
          "name": "F#2",
          "midi": 42,
          "time": 107.20000000000024,
          "velocity": 0.7874015748031497,
          "duration": 0.20000000000000284
        },
        {
          "name": "F#2",
          "midi": 42,
          "time": 107.60000000000025,
          "velocity": 0.7874015748031497,
          "duration": 0.20000000000000284
        },
        {
          "name": "E2",
          "midi": 40,
          "time": 108.00000000000026,
          "velocity": 0.7874015748031497,
          "duration": 0.4000000000000057
        },
        {
          "name": "F#2",
          "midi": 42,
          "time": 108.40000000000026,
          "velocity": 0.7874015748031497,
          "duration": 0.20000000000000284
        },
        {
          "name": "F#2",
          "midi": 42,
          "time": 108.60000000000026,
          "velocity": 0.7874015748031497,
          "duration": 0.20000000000000284
        },
        {
          "name": "F#2",
          "midi": 42,
          "time": 109.00000000000027,
          "velocity": 0.7874015748031497,
          "duration": 0.20000000000000284
        },
        {
          "name": "E2",
          "midi": 40,
          "time": 109.40000000000028,
          "velocity": 0.7874015748031497,
          "duration": 0.20000000000000284
        },
        {
          "name": "A2",
          "midi": 45,
          "time": 109.60000000000028,
          "velocity": 0.7874015748031497,
          "duration": 0.799999999999983
        },
        {
          "name": "F#2",
          "midi": 42,
          "time": 110.40000000000026,
          "velocity": 0.7874015748031497,
          "duration": 0.20000000000000284
        },
        {
          "name": "F#2",
          "midi": 42,
          "time": 110.80000000000027,
          "velocity": 0.7874015748031497,
          "duration": 0.20000000000000284
        },
        {
          "name": "E2",
          "midi": 40,
          "time": 111.20000000000027,
          "velocity": 0.7874015748031497,
          "duration": 0.4000000000000057
        },
        {
          "name": "F#2",
          "midi": 42,
          "time": 111.60000000000028,
          "velocity": 0.7874015748031497,
          "duration": 0.20000000000000284
        },
        {
          "name": "F#2",
          "midi": 42,
          "time": 111.80000000000028,
          "velocity": 0.7874015748031497,
          "duration": 0.20000000000000284
        },
        {
          "name": "B2",
          "midi": 47,
          "time": 113.60000000000028,
          "velocity": 0.7874015748031497,
          "duration": 0.4000000000000057
        },
        {
          "name": "E2",
          "midi": 40,
          "time": 113.60000000000028,
          "velocity": 0.7874015748031497,
          "duration": 0.4000000000000057
        },
        {
          "name": "C#3",
          "midi": 49,
          "time": 114.00000000000028,
          "velocity": 0.7874015748031497,
          "duration": 0.4000000000000057
        },
        {
          "name": "F#2",
          "midi": 42,
          "time": 114.00000000000028,
          "velocity": 0.7874015748031497,
          "duration": 0.4000000000000057
        },
        {
          "name": "F#3",
          "midi": 54,
          "time": 114.40000000000029,
          "velocity": 0.7874015748031497,
          "duration": 0.4000000000000057
        },
        {
          "name": "B2",
          "midi": 47,
          "time": 114.8000000000003,
          "velocity": 0.7874015748031497,
          "duration": 0.20000000000000284
        },
        {
          "name": "E2",
          "midi": 40,
          "time": 114.8000000000003,
          "velocity": 0.7874015748031497,
          "duration": 0.20000000000000284
        },
        {
          "name": "C#3",
          "midi": 49,
          "time": 115.0000000000003,
          "velocity": 0.7874015748031497,
          "duration": 0.4000000000000057
        },
        {
          "name": "F#2",
          "midi": 42,
          "time": 115.0000000000003,
          "velocity": 0.7874015748031497,
          "duration": 0.4000000000000057
        },
        {
          "name": "B2",
          "midi": 47,
          "time": 115.4000000000003,
          "velocity": 0.7874015748031497,
          "duration": 0.20000000000000284
        },
        {
          "name": "E2",
          "midi": 40,
          "time": 115.4000000000003,
          "velocity": 0.7874015748031497,
          "duration": 0.20000000000000284
        },
        {
          "name": "C#3",
          "midi": 49,
          "time": 115.6000000000003,
          "velocity": 0.7874015748031497,
          "duration": 0.4000000000000057
        },
        {
          "name": "F#2",
          "midi": 42,
          "time": 115.6000000000003,
          "velocity": 0.7874015748031497,
          "duration": 0.4000000000000057
        },
        {
          "name": "F#3",
          "midi": 54,
          "time": 116.00000000000031,
          "velocity": 0.7874015748031497,
          "duration": 0.4000000000000057
        },
        {
          "name": "E3",
          "midi": 52,
          "time": 116.40000000000032,
          "velocity": 0.7874015748031497,
          "duration": 0.4000000000000057
        },
        {
          "name": "B2",
          "midi": 47,
          "time": 116.80000000000032,
          "velocity": 0.7874015748031497,
          "duration": 0.4000000000000057
        },
        {
          "name": "E2",
          "midi": 40,
          "time": 116.80000000000032,
          "velocity": 0.7874015748031497,
          "duration": 0.4000000000000057
        },
        {
          "name": "C#3",
          "midi": 49,
          "time": 117.20000000000033,
          "velocity": 0.7874015748031497,
          "duration": 0.4000000000000057
        },
        {
          "name": "F#2",
          "midi": 42,
          "time": 117.20000000000033,
          "velocity": 0.7874015748031497,
          "duration": 0.4000000000000057
        },
        {
          "name": "F#3",
          "midi": 54,
          "time": 117.60000000000034,
          "velocity": 0.7874015748031497,
          "duration": 0.4000000000000057
        },
        {
          "name": "B2",
          "midi": 47,
          "time": 118.00000000000034,
          "velocity": 0.7874015748031497,
          "duration": 0.20000000000000284
        },
        {
          "name": "E2",
          "midi": 40,
          "time": 118.00000000000034,
          "velocity": 0.7874015748031497,
          "duration": 0.20000000000000284
        },
        {
          "name": "C#3",
          "midi": 49,
          "time": 118.20000000000034,
          "velocity": 0.7874015748031497,
          "duration": 0.4000000000000057
        },
        {
          "name": "F#2",
          "midi": 42,
          "time": 118.20000000000034,
          "velocity": 0.7874015748031497,
          "duration": 0.4000000000000057
        },
        {
          "name": "B2",
          "midi": 47,
          "time": 118.60000000000035,
          "velocity": 0.7874015748031497,
          "duration": 0.20000000000000284
        },
        {
          "name": "E2",
          "midi": 40,
          "time": 118.60000000000035,
          "velocity": 0.7874015748031497,
          "duration": 0.20000000000000284
        },
        {
          "name": "C#3",
          "midi": 49,
          "time": 118.80000000000035,
          "velocity": 0.7874015748031497,
          "duration": 0.4000000000000057
        },
        {
          "name": "G#2",
          "midi": 44,
          "time": 118.80000000000035,
          "velocity": 0.7874015748031497,
          "duration": 0.4000000000000057
        },
        {
          "name": "C3",
          "midi": 48,
          "time": 119.20000000000036,
          "velocity": 0.7874015748031497,
          "duration": 0.4000000000000057
        },
        {
          "name": "G2",
          "midi": 43,
          "time": 119.20000000000036,
          "velocity": 0.7874015748031497,
          "duration": 0.4000000000000057
        },
        {
          "name": "B2",
          "midi": 47,
          "time": 119.60000000000036,
          "velocity": 0.7874015748031497,
          "duration": 0.4000000000000057
        },
        {
          "name": "F#2",
          "midi": 42,
          "time": 119.60000000000036,
          "velocity": 0.7874015748031497,
          "duration": 0.4000000000000057
        },
        {
          "name": "B2",
          "midi": 47,
          "time": 120.00000000000037,
          "velocity": 0.7874015748031497,
          "duration": 0.4000000000000057
        },
        {
          "name": "E2",
          "midi": 40,
          "time": 120.00000000000037,
          "velocity": 0.7874015748031497,
          "duration": 0.4000000000000057
        },
        {
          "name": "C#3",
          "midi": 49,
          "time": 120.40000000000038,
          "velocity": 0.7874015748031497,
          "duration": 0.4000000000000057
        },
        {
          "name": "F#2",
          "midi": 42,
          "time": 120.40000000000038,
          "velocity": 0.7874015748031497,
          "duration": 0.4000000000000057
        },
        {
          "name": "F#3",
          "midi": 54,
          "time": 120.80000000000038,
          "velocity": 0.7874015748031497,
          "duration": 0.4000000000000057
        },
        {
          "name": "B2",
          "midi": 47,
          "time": 121.20000000000039,
          "velocity": 0.7874015748031497,
          "duration": 0.20000000000000284
        },
        {
          "name": "E2",
          "midi": 40,
          "time": 121.20000000000039,
          "velocity": 0.7874015748031497,
          "duration": 0.20000000000000284
        },
        {
          "name": "C#3",
          "midi": 49,
          "time": 121.40000000000039,
          "velocity": 0.7874015748031497,
          "duration": 0.4000000000000057
        },
        {
          "name": "F#2",
          "midi": 42,
          "time": 121.40000000000039,
          "velocity": 0.7874015748031497,
          "duration": 0.4000000000000057
        },
        {
          "name": "B2",
          "midi": 47,
          "time": 121.8000000000004,
          "velocity": 0.7874015748031497,
          "duration": 0.20000000000000284
        },
        {
          "name": "E2",
          "midi": 40,
          "time": 121.8000000000004,
          "velocity": 0.7874015748031497,
          "duration": 0.20000000000000284
        },
        {
          "name": "C#3",
          "midi": 49,
          "time": 122.0000000000004,
          "velocity": 0.7874015748031497,
          "duration": 0.4000000000000057
        },
        {
          "name": "F#2",
          "midi": 42,
          "time": 122.0000000000004,
          "velocity": 0.7874015748031497,
          "duration": 0.4000000000000057
        },
        {
          "name": "F#3",
          "midi": 54,
          "time": 122.4000000000004,
          "velocity": 0.7874015748031497,
          "duration": 0.4000000000000057
        },
        {
          "name": "E3",
          "midi": 52,
          "time": 122.80000000000041,
          "velocity": 0.7874015748031497,
          "duration": 0.4000000000000057
        },
        {
          "name": "B2",
          "midi": 47,
          "time": 123.20000000000041,
          "velocity": 0.7874015748031497,
          "duration": 0.4000000000000057
        },
        {
          "name": "E2",
          "midi": 40,
          "time": 123.20000000000041,
          "velocity": 0.7874015748031497,
          "duration": 0.4000000000000057
        },
        {
          "name": "C#3",
          "midi": 49,
          "time": 123.60000000000042,
          "velocity": 0.7874015748031497,
          "duration": 0.4000000000000057
        },
        {
          "name": "F#2",
          "midi": 42,
          "time": 123.60000000000042,
          "velocity": 0.7874015748031497,
          "duration": 0.4000000000000057
        },
        {
          "name": "F#3",
          "midi": 54,
          "time": 124.00000000000043,
          "velocity": 0.7874015748031497,
          "duration": 0.4000000000000057
        },
        {
          "name": "B2",
          "midi": 47,
          "time": 124.40000000000043,
          "velocity": 0.7874015748031497,
          "duration": 0.20000000000000284
        },
        {
          "name": "E2",
          "midi": 40,
          "time": 124.40000000000043,
          "velocity": 0.7874015748031497,
          "duration": 0.20000000000000284
        },
        {
          "name": "C#3",
          "midi": 49,
          "time": 124.60000000000043,
          "velocity": 0.7874015748031497,
          "duration": 0.4000000000000057
        },
        {
          "name": "F#2",
          "midi": 42,
          "time": 124.60000000000043,
          "velocity": 0.7874015748031497,
          "duration": 0.4000000000000057
        },
        {
          "name": "B2",
          "midi": 47,
          "time": 125.00000000000044,
          "velocity": 0.7874015748031497,
          "duration": 0.20000000000000284
        },
        {
          "name": "E2",
          "midi": 40,
          "time": 125.00000000000044,
          "velocity": 0.7874015748031497,
          "duration": 0.20000000000000284
        },
        {
          "name": "C#3",
          "midi": 49,
          "time": 125.20000000000044,
          "velocity": 0.7874015748031497,
          "duration": 0.4000000000000057
        },
        {
          "name": "G#2",
          "midi": 44,
          "time": 125.20000000000044,
          "velocity": 0.7874015748031497,
          "duration": 0.4000000000000057
        },
        {
          "name": "C3",
          "midi": 48,
          "time": 125.60000000000045,
          "velocity": 0.7874015748031497,
          "duration": 0.4000000000000057
        },
        {
          "name": "G2",
          "midi": 43,
          "time": 125.60000000000045,
          "velocity": 0.7874015748031497,
          "duration": 0.4000000000000057
        },
        {
          "name": "B2",
          "midi": 47,
          "time": 126.00000000000045,
          "velocity": 0.7874015748031497,
          "duration": 0.4000000000000057
        },
        {
          "name": "F#2",
          "midi": 42,
          "time": 126.00000000000045,
          "velocity": 0.7874015748031497,
          "duration": 0.4000000000000057
        },
        {
          "name": "B2",
          "midi": 47,
          "time": 126.40000000000046,
          "velocity": 0.7874015748031497,
          "duration": 0.4000000000000057
        },
        {
          "name": "E2",
          "midi": 40,
          "time": 126.40000000000046,
          "velocity": 0.7874015748031497,
          "duration": 0.4000000000000057
        },
        {
          "name": "C#3",
          "midi": 49,
          "time": 126.80000000000047,
          "velocity": 0.7874015748031497,
          "duration": 0.4000000000000057
        },
        {
          "name": "F#2",
          "midi": 42,
          "time": 126.80000000000047,
          "velocity": 0.7874015748031497,
          "duration": 0.4000000000000057
        },
        {
          "name": "F#3",
          "midi": 54,
          "time": 127.20000000000047,
          "velocity": 0.7874015748031497,
          "duration": 0.4000000000000057
        },
        {
          "name": "B2",
          "midi": 47,
          "time": 127.60000000000048,
          "velocity": 0.7874015748031497,
          "duration": 0.20000000000000284
        },
        {
          "name": "E2",
          "midi": 40,
          "time": 127.60000000000048,
          "velocity": 0.7874015748031497,
          "duration": 0.20000000000000284
        },
        {
          "name": "C#3",
          "midi": 49,
          "time": 127.80000000000048,
          "velocity": 0.7874015748031497,
          "duration": 0.3999999999999915
        },
        {
          "name": "F#2",
          "midi": 42,
          "time": 127.80000000000048,
          "velocity": 0.7874015748031497,
          "duration": 0.3999999999999915
        },
        {
          "name": "B2",
          "midi": 47,
          "time": 128.20000000000047,
          "velocity": 0.7874015748031497,
          "duration": 0.19999999999998863
        },
        {
          "name": "E2",
          "midi": 40,
          "time": 128.20000000000047,
          "velocity": 0.7874015748031497,
          "duration": 0.19999999999998863
        },
        {
          "name": "C#3",
          "midi": 49,
          "time": 128.40000000000046,
          "velocity": 0.7874015748031497,
          "duration": 0.4000000000000057
        },
        {
          "name": "F#2",
          "midi": 42,
          "time": 128.40000000000046,
          "velocity": 0.7874015748031497,
          "duration": 0.4000000000000057
        },
        {
          "name": "F#3",
          "midi": 54,
          "time": 128.80000000000047,
          "velocity": 0.7874015748031497,
          "duration": 0.4000000000000057
        },
        {
          "name": "E3",
          "midi": 52,
          "time": 129.20000000000047,
          "velocity": 0.7874015748031497,
          "duration": 0.4000000000000057
        },
        {
          "name": "B2",
          "midi": 47,
          "time": 129.60000000000048,
          "velocity": 0.7874015748031497,
          "duration": 0.4000000000000057
        },
        {
          "name": "E2",
          "midi": 40,
          "time": 129.60000000000048,
          "velocity": 0.7874015748031497,
          "duration": 0.4000000000000057
        },
        {
          "name": "C#3",
          "midi": 49,
          "time": 130.00000000000048,
          "velocity": 0.7874015748031497,
          "duration": 0.4000000000000057
        },
        {
          "name": "F#2",
          "midi": 42,
          "time": 130.00000000000048,
          "velocity": 0.7874015748031497,
          "duration": 0.4000000000000057
        },
        {
          "name": "F#3",
          "midi": 54,
          "time": 130.4000000000005,
          "velocity": 0.7874015748031497,
          "duration": 0.4000000000000057
        },
        {
          "name": "B2",
          "midi": 47,
          "time": 130.8000000000005,
          "velocity": 0.7874015748031497,
          "duration": 0.19999999999998863
        },
        {
          "name": "E2",
          "midi": 40,
          "time": 130.8000000000005,
          "velocity": 0.7874015748031497,
          "duration": 0.19999999999998863
        },
        {
          "name": "C#3",
          "midi": 49,
          "time": 131.00000000000048,
          "velocity": 0.7874015748031497,
          "duration": 0.4000000000000057
        },
        {
          "name": "F#2",
          "midi": 42,
          "time": 131.00000000000048,
          "velocity": 0.7874015748031497,
          "duration": 0.4000000000000057
        },
        {
          "name": "B2",
          "midi": 47,
          "time": 131.4000000000005,
          "velocity": 0.7874015748031497,
          "duration": 0.19999999999998863
        },
        {
          "name": "E2",
          "midi": 40,
          "time": 131.4000000000005,
          "velocity": 0.7874015748031497,
          "duration": 0.19999999999998863
        },
        {
          "name": "C#3",
          "midi": 49,
          "time": 131.60000000000048,
          "velocity": 0.7874015748031497,
          "duration": 0.4000000000000057
        },
        {
          "name": "G#2",
          "midi": 44,
          "time": 131.60000000000048,
          "velocity": 0.7874015748031497,
          "duration": 0.4000000000000057
        },
        {
          "name": "C3",
          "midi": 48,
          "time": 132.00000000000048,
          "velocity": 0.7874015748031497,
          "duration": 0.4000000000000057
        },
        {
          "name": "G2",
          "midi": 43,
          "time": 132.00000000000048,
          "velocity": 0.7874015748031497,
          "duration": 0.4000000000000057
        },
        {
          "name": "B2",
          "midi": 47,
          "time": 132.4000000000005,
          "velocity": 0.7874015748031497,
          "duration": 0.4000000000000057
        },
        {
          "name": "F#2",
          "midi": 42,
          "time": 132.4000000000005,
          "velocity": 0.7874015748031497,
          "duration": 0.4000000000000057
        },
        {
          "name": "B2",
          "midi": 47,
          "time": 132.8000000000005,
          "velocity": 0.7874015748031497,
          "duration": 0.4000000000000057
        },
        {
          "name": "E2",
          "midi": 40,
          "time": 132.8000000000005,
          "velocity": 0.7874015748031497,
          "duration": 0.4000000000000057
        },
        {
          "name": "C#3",
          "midi": 49,
          "time": 133.2000000000005,
          "velocity": 0.7874015748031497,
          "duration": 0.4000000000000057
        },
        {
          "name": "F#2",
          "midi": 42,
          "time": 133.2000000000005,
          "velocity": 0.7874015748031497,
          "duration": 0.4000000000000057
        },
        {
          "name": "F#3",
          "midi": 54,
          "time": 133.6000000000005,
          "velocity": 0.7874015748031497,
          "duration": 0.4000000000000057
        },
        {
          "name": "B2",
          "midi": 47,
          "time": 134.0000000000005,
          "velocity": 0.7874015748031497,
          "duration": 0.19999999999998863
        },
        {
          "name": "E2",
          "midi": 40,
          "time": 134.0000000000005,
          "velocity": 0.7874015748031497,
          "duration": 0.19999999999998863
        },
        {
          "name": "C#3",
          "midi": 49,
          "time": 134.2000000000005,
          "velocity": 0.7874015748031497,
          "duration": 0.4000000000000057
        },
        {
          "name": "F#2",
          "midi": 42,
          "time": 134.2000000000005,
          "velocity": 0.7874015748031497,
          "duration": 0.4000000000000057
        },
        {
          "name": "B2",
          "midi": 47,
          "time": 134.6000000000005,
          "velocity": 0.7874015748031497,
          "duration": 0.19999999999998863
        },
        {
          "name": "E2",
          "midi": 40,
          "time": 134.6000000000005,
          "velocity": 0.7874015748031497,
          "duration": 0.19999999999998863
        },
        {
          "name": "C#3",
          "midi": 49,
          "time": 134.8000000000005,
          "velocity": 0.7874015748031497,
          "duration": 0.4000000000000057
        },
        {
          "name": "F#2",
          "midi": 42,
          "time": 134.8000000000005,
          "velocity": 0.7874015748031497,
          "duration": 0.4000000000000057
        },
        {
          "name": "F#3",
          "midi": 54,
          "time": 135.2000000000005,
          "velocity": 0.7874015748031497,
          "duration": 0.4000000000000057
        },
        {
          "name": "E3",
          "midi": 52,
          "time": 135.6000000000005,
          "velocity": 0.7874015748031497,
          "duration": 0.4000000000000057
        },
        {
          "name": "B2",
          "midi": 47,
          "time": 136.0000000000005,
          "velocity": 0.7874015748031497,
          "duration": 0.4000000000000057
        },
        {
          "name": "E2",
          "midi": 40,
          "time": 136.0000000000005,
          "velocity": 0.7874015748031497,
          "duration": 0.4000000000000057
        },
        {
          "name": "C#3",
          "midi": 49,
          "time": 136.40000000000052,
          "velocity": 0.7874015748031497,
          "duration": 0.4000000000000057
        },
        {
          "name": "F#2",
          "midi": 42,
          "time": 136.40000000000052,
          "velocity": 0.7874015748031497,
          "duration": 0.4000000000000057
        },
        {
          "name": "F#3",
          "midi": 54,
          "time": 136.80000000000052,
          "velocity": 0.7874015748031497,
          "duration": 0.4000000000000057
        },
        {
          "name": "B2",
          "midi": 47,
          "time": 137.20000000000053,
          "velocity": 0.7874015748031497,
          "duration": 0.19999999999998863
        },
        {
          "name": "E2",
          "midi": 40,
          "time": 137.20000000000053,
          "velocity": 0.7874015748031497,
          "duration": 0.19999999999998863
        },
        {
          "name": "C#3",
          "midi": 49,
          "time": 137.40000000000052,
          "velocity": 0.7874015748031497,
          "duration": 0.4000000000000057
        },
        {
          "name": "F#2",
          "midi": 42,
          "time": 137.40000000000052,
          "velocity": 0.7874015748031497,
          "duration": 0.4000000000000057
        },
        {
          "name": "B2",
          "midi": 47,
          "time": 137.80000000000052,
          "velocity": 0.7874015748031497,
          "duration": 0.19999999999998863
        },
        {
          "name": "E2",
          "midi": 40,
          "time": 137.80000000000052,
          "velocity": 0.7874015748031497,
          "duration": 0.19999999999998863
        },
        {
          "name": "C#3",
          "midi": 49,
          "time": 138.0000000000005,
          "velocity": 0.7874015748031497,
          "duration": 2.8000000000000114
        },
        {
          "name": "G#2",
          "midi": 44,
          "time": 138.0000000000005,
          "velocity": 0.7874015748031497,
          "duration": 2.8000000000000114
        },
        {
          "name": "F#2",
          "midi": 42,
          "time": 140.80000000000052,
          "velocity": 0.7874015748031497,
          "duration": 0.19999999999998863
        },
        {
          "name": "F#2",
          "midi": 42,
          "time": 141.2000000000005,
          "velocity": 0.7874015748031497,
          "duration": 0.19999999999998863
        },
        {
          "name": "E2",
          "midi": 40,
          "time": 141.60000000000048,
          "velocity": 0.7874015748031497,
          "duration": 0.4000000000000057
        },
        {
          "name": "F#2",
          "midi": 42,
          "time": 142.00000000000048,
          "velocity": 0.7874015748031497,
          "duration": 0.19999999999998863
        },
        {
          "name": "F#2",
          "midi": 42,
          "time": 142.20000000000047,
          "velocity": 0.7874015748031497,
          "duration": 0.19999999999998863
        },
        {
          "name": "F#2",
          "midi": 42,
          "time": 142.60000000000045,
          "velocity": 0.7874015748031497,
          "duration": 0.19999999999998863
        },
        {
          "name": "E2",
          "midi": 40,
          "time": 143.00000000000043,
          "velocity": 0.7874015748031497,
          "duration": 0.19999999999998863
        },
        {
          "name": "A2",
          "midi": 45,
          "time": 143.20000000000041,
          "velocity": 0.7874015748031497,
          "duration": 0.8000000000000114
        },
        {
          "name": "F#2",
          "midi": 42,
          "time": 144.00000000000043,
          "velocity": 0.7874015748031497,
          "duration": 0.19999999999998863
        },
        {
          "name": "F#2",
          "midi": 42,
          "time": 144.4000000000004,
          "velocity": 0.7874015748031497,
          "duration": 0.19999999999998863
        },
        {
          "name": "E2",
          "midi": 40,
          "time": 144.80000000000038,
          "velocity": 0.7874015748031497,
          "duration": 0.4000000000000057
        },
        {
          "name": "F#2",
          "midi": 42,
          "time": 145.2000000000004,
          "velocity": 0.7874015748031497,
          "duration": 0.19999999999998863
        },
        {
          "name": "F#2",
          "midi": 42,
          "time": 145.40000000000038,
          "velocity": 0.7874015748031497,
          "duration": 0.19999999999998863
        },
        {
          "name": "F#3",
          "midi": 54,
          "time": 145.60000000000036,
          "velocity": 0.7874015748031497,
          "duration": 0.19999999999998863
        },
        {
          "name": "E3",
          "midi": 52,
          "time": 145.80000000000035,
          "velocity": 0.7874015748031497,
          "duration": 0.19999999999998863
        },
        {
          "name": "C#3",
          "midi": 49,
          "time": 146.00000000000034,
          "velocity": 0.7874015748031497,
          "duration": 0.19999999999998863
        },
        {
          "name": "C3",
          "midi": 48,
          "time": 146.20000000000033,
          "velocity": 0.7874015748031497,
          "duration": 0.19999999999998863
        },
        {
          "name": "B2",
          "midi": 47,
          "time": 146.40000000000032,
          "velocity": 0.7874015748031497,
          "duration": 0.19999999999998863
        },
        {
          "name": "A2",
          "midi": 45,
          "time": 146.6000000000003,
          "velocity": 0.7874015748031497,
          "duration": 0.5999999999999943
        },
        {
          "name": "F#2",
          "midi": 42,
          "time": 147.2000000000003,
          "velocity": 0.7874015748031497,
          "duration": 0.19999999999998863
        },
        {
          "name": "F#2",
          "midi": 42,
          "time": 147.60000000000028,
          "velocity": 0.7874015748031497,
          "duration": 0.19999999999998863
        },
        {
          "name": "E2",
          "midi": 40,
          "time": 148.00000000000026,
          "velocity": 0.7874015748031497,
          "duration": 0.4000000000000057
        },
        {
          "name": "F#2",
          "midi": 42,
          "time": 148.40000000000026,
          "velocity": 0.7874015748031497,
          "duration": 0.19999999999998863
        },
        {
          "name": "F#2",
          "midi": 42,
          "time": 148.60000000000025,
          "velocity": 0.7874015748031497,
          "duration": 0.19999999999998863
        },
        {
          "name": "F#2",
          "midi": 42,
          "time": 149.00000000000023,
          "velocity": 0.7874015748031497,
          "duration": 0.19999999999998863
        },
        {
          "name": "E2",
          "midi": 40,
          "time": 149.4000000000002,
          "velocity": 0.7874015748031497,
          "duration": 0.19999999999998863
        },
        {
          "name": "A2",
          "midi": 45,
          "time": 149.6000000000002,
          "velocity": 0.7874015748031497,
          "duration": 0.8000000000000114
        },
        {
          "name": "F#2",
          "midi": 42,
          "time": 150.4000000000002,
          "velocity": 0.7874015748031497,
          "duration": 0.19999999999998863
        },
        {
          "name": "F#2",
          "midi": 42,
          "time": 150.80000000000018,
          "velocity": 0.7874015748031497,
          "duration": 0.19999999999998863
        },
        {
          "name": "E2",
          "midi": 40,
          "time": 151.20000000000016,
          "velocity": 0.7874015748031497,
          "duration": 0.4000000000000057
        },
        {
          "name": "F#2",
          "midi": 42,
          "time": 151.60000000000016,
          "velocity": 0.7874015748031497,
          "duration": 0.19999999999998863
        },
        {
          "name": "F#2",
          "midi": 42,
          "time": 151.80000000000015,
          "velocity": 0.7874015748031497,
          "duration": 0.19999999999998863
        },
        {
          "name": "F#3",
          "midi": 54,
          "time": 152.00000000000014,
          "velocity": 0.7874015748031497,
          "duration": 0.19999999999998863
        },
        {
          "name": "E3",
          "midi": 52,
          "time": 152.20000000000013,
          "velocity": 0.7874015748031497,
          "duration": 0.19999999999998863
        },
        {
          "name": "C#3",
          "midi": 49,
          "time": 152.40000000000012,
          "velocity": 0.7874015748031497,
          "duration": 0.19999999999998863
        },
        {
          "name": "C3",
          "midi": 48,
          "time": 152.6000000000001,
          "velocity": 0.7874015748031497,
          "duration": 0.19999999999998863
        },
        {
          "name": "B2",
          "midi": 47,
          "time": 152.8000000000001,
          "velocity": 0.7874015748031497,
          "duration": 0.19999999999998863
        },
        {
          "name": "A2",
          "midi": 45,
          "time": 153.00000000000009,
          "velocity": 0.7874015748031497,
          "duration": 0.5999999999999943
        },
        {
          "name": "F#2",
          "midi": 42,
          "time": 153.60000000000008,
          "velocity": 0.7874015748031497,
          "duration": 0.19999999999998863
        },
        {
          "name": "F#2",
          "midi": 42,
          "time": 154.00000000000006,
          "velocity": 0.7874015748031497,
          "duration": 0.19999999999998863
        },
        {
          "name": "E2",
          "midi": 40,
          "time": 154.40000000000003,
          "velocity": 0.7874015748031497,
          "duration": 0.4000000000000057
        },
        {
          "name": "F#2",
          "midi": 42,
          "time": 154.80000000000004,
          "velocity": 0.7874015748031497,
          "duration": 0.19999999999998863
        },
        {
          "name": "F#2",
          "midi": 42,
          "time": 155.00000000000003,
          "velocity": 0.7874015748031497,
          "duration": 0.19999999999998863
        },
        {
          "name": "F#2",
          "midi": 42,
          "time": 155.4,
          "velocity": 0.7874015748031497,
          "duration": 0.19999999999998863
        },
        {
          "name": "E2",
          "midi": 40,
          "time": 155.79999999999998,
          "velocity": 0.7874015748031497,
          "duration": 0.19999999999998863
        },
        {
          "name": "A2",
          "midi": 45,
          "time": 155.99999999999997,
          "velocity": 0.7874015748031497,
          "duration": 0.8000000000000114
        },
        {
          "name": "F#2",
          "midi": 42,
          "time": 156.79999999999998,
          "velocity": 0.7874015748031497,
          "duration": 0.19999999999998863
        },
        {
          "name": "F#2",
          "midi": 42,
          "time": 157.19999999999996,
          "velocity": 0.7874015748031497,
          "duration": 0.19999999999998863
        },
        {
          "name": "E2",
          "midi": 40,
          "time": 157.59999999999994,
          "velocity": 0.7874015748031497,
          "duration": 0.4000000000000057
        },
        {
          "name": "F#2",
          "midi": 42,
          "time": 157.99999999999994,
          "velocity": 0.7874015748031497,
          "duration": 0.19999999999998863
        },
        {
          "name": "F#2",
          "midi": 42,
          "time": 158.19999999999993,
          "velocity": 0.7874015748031497,
          "duration": 0.19999999999998863
        },
        {
          "name": "F#3",
          "midi": 54,
          "time": 158.39999999999992,
          "velocity": 0.7874015748031497,
          "duration": 0.19999999999998863
        },
        {
          "name": "E3",
          "midi": 52,
          "time": 158.5999999999999,
          "velocity": 0.7874015748031497,
          "duration": 0.19999999999998863
        },
        {
          "name": "C#3",
          "midi": 49,
          "time": 158.7999999999999,
          "velocity": 0.7874015748031497,
          "duration": 0.19999999999998863
        },
        {
          "name": "C3",
          "midi": 48,
          "time": 158.9999999999999,
          "velocity": 0.7874015748031497,
          "duration": 0.19999999999998863
        },
        {
          "name": "B2",
          "midi": 47,
          "time": 159.19999999999987,
          "velocity": 0.7874015748031497,
          "duration": 0.19999999999998863
        },
        {
          "name": "A2",
          "midi": 45,
          "time": 159.39999999999986,
          "velocity": 0.7874015748031497,
          "duration": 0.5999999999999943
        },
        {
          "name": "F#2",
          "midi": 42,
          "time": 159.99999999999986,
          "velocity": 0.7874015748031497,
          "duration": 0.19999999999998863
        },
        {
          "name": "F#2",
          "midi": 42,
          "time": 160.39999999999984,
          "velocity": 0.7874015748031497,
          "duration": 0.19999999999998863
        },
        {
          "name": "E2",
          "midi": 40,
          "time": 160.7999999999998,
          "velocity": 0.7874015748031497,
          "duration": 0.4000000000000057
        },
        {
          "name": "F#2",
          "midi": 42,
          "time": 161.19999999999982,
          "velocity": 0.7874015748031497,
          "duration": 0.19999999999998863
        },
        {
          "name": "F#2",
          "midi": 42,
          "time": 161.3999999999998,
          "velocity": 0.7874015748031497,
          "duration": 0.19999999999998863
        },
        {
          "name": "F#2",
          "midi": 42,
          "time": 161.79999999999978,
          "velocity": 0.7874015748031497,
          "duration": 0.19999999999998863
        },
        {
          "name": "E2",
          "midi": 40,
          "time": 162.19999999999976,
          "velocity": 0.7874015748031497,
          "duration": 0.19999999999998863
        },
        {
          "name": "A2",
          "midi": 45,
          "time": 162.39999999999975,
          "velocity": 0.7874015748031497,
          "duration": 0.8000000000000114
        },
        {
          "name": "F#2",
          "midi": 42,
          "time": 163.19999999999976,
          "velocity": 0.7874015748031497,
          "duration": 0.19999999999998863
        },
        {
          "name": "F#2",
          "midi": 42,
          "time": 163.59999999999974,
          "velocity": 0.7874015748031497,
          "duration": 0.19999999999998863
        },
        {
          "name": "E2",
          "midi": 40,
          "time": 163.99999999999972,
          "velocity": 0.7874015748031497,
          "duration": 0.4000000000000057
        },
        {
          "name": "F#2",
          "midi": 42,
          "time": 164.39999999999972,
          "velocity": 0.7874015748031497,
          "duration": 0.19999999999998863
        },
        {
          "name": "F#2",
          "midi": 42,
          "time": 164.5999999999997,
          "velocity": 0.7874015748031497,
          "duration": 0.19999999999998863
        },
        {
          "name": "B2",
          "midi": 47,
          "time": 166.3999999999997,
          "velocity": 0.7874015748031497,
          "duration": 0.4000000000000057
        },
        {
          "name": "E2",
          "midi": 40,
          "time": 166.3999999999997,
          "velocity": 0.7874015748031497,
          "duration": 0.4000000000000057
        },
        {
          "name": "C#3",
          "midi": 49,
          "time": 166.7999999999997,
          "velocity": 0.7874015748031497,
          "duration": 0.4000000000000057
        },
        {
          "name": "F#2",
          "midi": 42,
          "time": 166.7999999999997,
          "velocity": 0.7874015748031497,
          "duration": 0.4000000000000057
        },
        {
          "name": "F#3",
          "midi": 54,
          "time": 167.1999999999997,
          "velocity": 0.7874015748031497,
          "duration": 0.4000000000000057
        },
        {
          "name": "B2",
          "midi": 47,
          "time": 167.5999999999997,
          "velocity": 0.7874015748031497,
          "duration": 0.19999999999998863
        },
        {
          "name": "E2",
          "midi": 40,
          "time": 167.5999999999997,
          "velocity": 0.7874015748031497,
          "duration": 0.19999999999998863
        },
        {
          "name": "C#3",
          "midi": 49,
          "time": 167.7999999999997,
          "velocity": 0.7874015748031497,
          "duration": 0.4000000000000057
        },
        {
          "name": "F#2",
          "midi": 42,
          "time": 167.7999999999997,
          "velocity": 0.7874015748031497,
          "duration": 0.4000000000000057
        },
        {
          "name": "B2",
          "midi": 47,
          "time": 168.1999999999997,
          "velocity": 0.7874015748031497,
          "duration": 0.19999999999998863
        },
        {
          "name": "E2",
          "midi": 40,
          "time": 168.1999999999997,
          "velocity": 0.7874015748031497,
          "duration": 0.19999999999998863
        },
        {
          "name": "C#3",
          "midi": 49,
          "time": 168.3999999999997,
          "velocity": 0.7874015748031497,
          "duration": 0.4000000000000057
        },
        {
          "name": "F#2",
          "midi": 42,
          "time": 168.3999999999997,
          "velocity": 0.7874015748031497,
          "duration": 0.4000000000000057
        },
        {
          "name": "F#3",
          "midi": 54,
          "time": 168.7999999999997,
          "velocity": 0.7874015748031497,
          "duration": 0.4000000000000057
        },
        {
          "name": "E3",
          "midi": 52,
          "time": 169.1999999999997,
          "velocity": 0.7874015748031497,
          "duration": 0.4000000000000057
        },
        {
          "name": "B2",
          "midi": 47,
          "time": 169.5999999999997,
          "velocity": 0.7874015748031497,
          "duration": 0.4000000000000057
        },
        {
          "name": "E2",
          "midi": 40,
          "time": 169.5999999999997,
          "velocity": 0.7874015748031497,
          "duration": 0.4000000000000057
        },
        {
          "name": "C#3",
          "midi": 49,
          "time": 169.99999999999972,
          "velocity": 0.7874015748031497,
          "duration": 0.4000000000000057
        },
        {
          "name": "F#2",
          "midi": 42,
          "time": 169.99999999999972,
          "velocity": 0.7874015748031497,
          "duration": 0.4000000000000057
        },
        {
          "name": "F#3",
          "midi": 54,
          "time": 170.39999999999972,
          "velocity": 0.7874015748031497,
          "duration": 0.4000000000000057
        },
        {
          "name": "B2",
          "midi": 47,
          "time": 170.79999999999973,
          "velocity": 0.7874015748031497,
          "duration": 0.19999999999998863
        },
        {
          "name": "E2",
          "midi": 40,
          "time": 170.79999999999973,
          "velocity": 0.7874015748031497,
          "duration": 0.19999999999998863
        },
        {
          "name": "C#3",
          "midi": 49,
          "time": 170.99999999999972,
          "velocity": 0.7874015748031497,
          "duration": 0.4000000000000057
        },
        {
          "name": "F#2",
          "midi": 42,
          "time": 170.99999999999972,
          "velocity": 0.7874015748031497,
          "duration": 0.4000000000000057
        },
        {
          "name": "B2",
          "midi": 47,
          "time": 171.39999999999972,
          "velocity": 0.7874015748031497,
          "duration": 0.19999999999998863
        },
        {
          "name": "E2",
          "midi": 40,
          "time": 171.39999999999972,
          "velocity": 0.7874015748031497,
          "duration": 0.19999999999998863
        },
        {
          "name": "C#3",
          "midi": 49,
          "time": 171.5999999999997,
          "velocity": 0.7874015748031497,
          "duration": 0.4000000000000057
        },
        {
          "name": "G#2",
          "midi": 44,
          "time": 171.5999999999997,
          "velocity": 0.7874015748031497,
          "duration": 0.4000000000000057
        },
        {
          "name": "C3",
          "midi": 48,
          "time": 171.99999999999972,
          "velocity": 0.7874015748031497,
          "duration": 0.4000000000000057
        },
        {
          "name": "G2",
          "midi": 43,
          "time": 171.99999999999972,
          "velocity": 0.7874015748031497,
          "duration": 0.4000000000000057
        },
        {
          "name": "B2",
          "midi": 47,
          "time": 172.39999999999972,
          "velocity": 0.7874015748031497,
          "duration": 0.4000000000000057
        },
        {
          "name": "F#2",
          "midi": 42,
          "time": 172.39999999999972,
          "velocity": 0.7874015748031497,
          "duration": 0.4000000000000057
        },
        {
          "name": "B2",
          "midi": 47,
          "time": 172.79999999999973,
          "velocity": 0.7874015748031497,
          "duration": 0.4000000000000057
        },
        {
          "name": "E2",
          "midi": 40,
          "time": 172.79999999999973,
          "velocity": 0.7874015748031497,
          "duration": 0.4000000000000057
        },
        {
          "name": "C#3",
          "midi": 49,
          "time": 173.19999999999973,
          "velocity": 0.7874015748031497,
          "duration": 0.4000000000000057
        },
        {
          "name": "F#2",
          "midi": 42,
          "time": 173.19999999999973,
          "velocity": 0.7874015748031497,
          "duration": 0.4000000000000057
        },
        {
          "name": "F#3",
          "midi": 54,
          "time": 173.59999999999974,
          "velocity": 0.7874015748031497,
          "duration": 0.4000000000000057
        },
        {
          "name": "B2",
          "midi": 47,
          "time": 173.99999999999974,
          "velocity": 0.7874015748031497,
          "duration": 0.19999999999998863
        },
        {
          "name": "E2",
          "midi": 40,
          "time": 173.99999999999974,
          "velocity": 0.7874015748031497,
          "duration": 0.19999999999998863
        },
        {
          "name": "C#3",
          "midi": 49,
          "time": 174.19999999999973,
          "velocity": 0.7874015748031497,
          "duration": 0.4000000000000057
        },
        {
          "name": "F#2",
          "midi": 42,
          "time": 174.19999999999973,
          "velocity": 0.7874015748031497,
          "duration": 0.4000000000000057
        },
        {
          "name": "B2",
          "midi": 47,
          "time": 174.59999999999974,
          "velocity": 0.7874015748031497,
          "duration": 0.19999999999998863
        },
        {
          "name": "E2",
          "midi": 40,
          "time": 174.59999999999974,
          "velocity": 0.7874015748031497,
          "duration": 0.19999999999998863
        },
        {
          "name": "C#3",
          "midi": 49,
          "time": 174.79999999999973,
          "velocity": 0.7874015748031497,
          "duration": 0.4000000000000057
        },
        {
          "name": "F#2",
          "midi": 42,
          "time": 174.79999999999973,
          "velocity": 0.7874015748031497,
          "duration": 0.4000000000000057
        },
        {
          "name": "F#3",
          "midi": 54,
          "time": 175.19999999999973,
          "velocity": 0.7874015748031497,
          "duration": 0.4000000000000057
        },
        {
          "name": "E3",
          "midi": 52,
          "time": 175.59999999999974,
          "velocity": 0.7874015748031497,
          "duration": 0.4000000000000057
        },
        {
          "name": "B2",
          "midi": 47,
          "time": 175.99999999999974,
          "velocity": 0.7874015748031497,
          "duration": 0.4000000000000057
        },
        {
          "name": "E2",
          "midi": 40,
          "time": 175.99999999999974,
          "velocity": 0.7874015748031497,
          "duration": 0.4000000000000057
        },
        {
          "name": "C#3",
          "midi": 49,
          "time": 176.39999999999975,
          "velocity": 0.7874015748031497,
          "duration": 0.4000000000000057
        },
        {
          "name": "F#2",
          "midi": 42,
          "time": 176.39999999999975,
          "velocity": 0.7874015748031497,
          "duration": 0.4000000000000057
        },
        {
          "name": "F#3",
          "midi": 54,
          "time": 176.79999999999976,
          "velocity": 0.7874015748031497,
          "duration": 0.4000000000000057
        },
        {
          "name": "B2",
          "midi": 47,
          "time": 177.19999999999976,
          "velocity": 0.7874015748031497,
          "duration": 0.19999999999998863
        },
        {
          "name": "E2",
          "midi": 40,
          "time": 177.19999999999976,
          "velocity": 0.7874015748031497,
          "duration": 0.19999999999998863
        },
        {
          "name": "C#3",
          "midi": 49,
          "time": 177.39999999999975,
          "velocity": 0.7874015748031497,
          "duration": 0.4000000000000057
        },
        {
          "name": "F#2",
          "midi": 42,
          "time": 177.39999999999975,
          "velocity": 0.7874015748031497,
          "duration": 0.4000000000000057
        },
        {
          "name": "B2",
          "midi": 47,
          "time": 177.79999999999976,
          "velocity": 0.7874015748031497,
          "duration": 0.19999999999998863
        },
        {
          "name": "E2",
          "midi": 40,
          "time": 177.79999999999976,
          "velocity": 0.7874015748031497,
          "duration": 0.19999999999998863
        },
        {
          "name": "C#3",
          "midi": 49,
          "time": 177.99999999999974,
          "velocity": 0.7874015748031497,
          "duration": 0.4000000000000057
        },
        {
          "name": "G#2",
          "midi": 44,
          "time": 177.99999999999974,
          "velocity": 0.7874015748031497,
          "duration": 0.4000000000000057
        },
        {
          "name": "C3",
          "midi": 48,
          "time": 178.39999999999975,
          "velocity": 0.7874015748031497,
          "duration": 0.4000000000000057
        },
        {
          "name": "G2",
          "midi": 43,
          "time": 178.39999999999975,
          "velocity": 0.7874015748031497,
          "duration": 0.4000000000000057
        },
        {
          "name": "B2",
          "midi": 47,
          "time": 178.79999999999976,
          "velocity": 0.7874015748031497,
          "duration": 0.4000000000000057
        },
        {
          "name": "F#2",
          "midi": 42,
          "time": 178.79999999999976,
          "velocity": 0.7874015748031497,
          "duration": 0.4000000000000057
        },
        {
          "name": "B2",
          "midi": 47,
          "time": 179.19999999999976,
          "velocity": 0.7874015748031497,
          "duration": 0.4000000000000057
        },
        {
          "name": "E2",
          "midi": 40,
          "time": 179.19999999999976,
          "velocity": 0.7874015748031497,
          "duration": 0.4000000000000057
        },
        {
          "name": "C#3",
          "midi": 49,
          "time": 179.59999999999977,
          "velocity": 0.7874015748031497,
          "duration": 0.4000000000000057
        },
        {
          "name": "F#2",
          "midi": 42,
          "time": 179.59999999999977,
          "velocity": 0.7874015748031497,
          "duration": 0.4000000000000057
        },
        {
          "name": "F#3",
          "midi": 54,
          "time": 179.99999999999977,
          "velocity": 0.7874015748031497,
          "duration": 0.4000000000000057
        },
        {
          "name": "B2",
          "midi": 47,
          "time": 180.39999999999978,
          "velocity": 0.7874015748031497,
          "duration": 0.19999999999998863
        },
        {
          "name": "E2",
          "midi": 40,
          "time": 180.39999999999978,
          "velocity": 0.7874015748031497,
          "duration": 0.19999999999998863
        },
        {
          "name": "C#3",
          "midi": 49,
          "time": 180.59999999999977,
          "velocity": 0.7874015748031497,
          "duration": 0.4000000000000057
        },
        {
          "name": "F#2",
          "midi": 42,
          "time": 180.59999999999977,
          "velocity": 0.7874015748031497,
          "duration": 0.4000000000000057
        },
        {
          "name": "B2",
          "midi": 47,
          "time": 180.99999999999977,
          "velocity": 0.7874015748031497,
          "duration": 0.19999999999998863
        },
        {
          "name": "E2",
          "midi": 40,
          "time": 180.99999999999977,
          "velocity": 0.7874015748031497,
          "duration": 0.19999999999998863
        },
        {
          "name": "C#3",
          "midi": 49,
          "time": 181.19999999999976,
          "velocity": 0.7874015748031497,
          "duration": 0.4000000000000057
        },
        {
          "name": "F#2",
          "midi": 42,
          "time": 181.19999999999976,
          "velocity": 0.7874015748031497,
          "duration": 0.4000000000000057
        },
        {
          "name": "F#3",
          "midi": 54,
          "time": 181.59999999999977,
          "velocity": 0.7874015748031497,
          "duration": 0.4000000000000057
        },
        {
          "name": "E3",
          "midi": 52,
          "time": 181.99999999999977,
          "velocity": 0.7874015748031497,
          "duration": 0.4000000000000057
        },
        {
          "name": "B2",
          "midi": 47,
          "time": 182.39999999999978,
          "velocity": 0.7874015748031497,
          "duration": 0.4000000000000057
        },
        {
          "name": "E2",
          "midi": 40,
          "time": 182.39999999999978,
          "velocity": 0.7874015748031497,
          "duration": 0.4000000000000057
        },
        {
          "name": "C#3",
          "midi": 49,
          "time": 182.79999999999978,
          "velocity": 0.7874015748031497,
          "duration": 0.4000000000000057
        },
        {
          "name": "F#2",
          "midi": 42,
          "time": 182.79999999999978,
          "velocity": 0.7874015748031497,
          "duration": 0.4000000000000057
        },
        {
          "name": "F#3",
          "midi": 54,
          "time": 183.1999999999998,
          "velocity": 0.7874015748031497,
          "duration": 0.4000000000000057
        },
        {
          "name": "B2",
          "midi": 47,
          "time": 183.5999999999998,
          "velocity": 0.7874015748031497,
          "duration": 0.19999999999998863
        },
        {
          "name": "E2",
          "midi": 40,
          "time": 183.5999999999998,
          "velocity": 0.7874015748031497,
          "duration": 0.19999999999998863
        },
        {
          "name": "C#3",
          "midi": 49,
          "time": 183.79999999999978,
          "velocity": 0.7874015748031497,
          "duration": 0.4000000000000057
        },
        {
          "name": "F#2",
          "midi": 42,
          "time": 183.79999999999978,
          "velocity": 0.7874015748031497,
          "duration": 0.4000000000000057
        },
        {
          "name": "B2",
          "midi": 47,
          "time": 184.1999999999998,
          "velocity": 0.7874015748031497,
          "duration": 0.19999999999998863
        },
        {
          "name": "E2",
          "midi": 40,
          "time": 184.1999999999998,
          "velocity": 0.7874015748031497,
          "duration": 0.19999999999998863
        },
        {
          "name": "C#3",
          "midi": 49,
          "time": 184.39999999999978,
          "velocity": 0.7874015748031497,
          "duration": 0.4000000000000057
        },
        {
          "name": "G#2",
          "midi": 44,
          "time": 184.39999999999978,
          "velocity": 0.7874015748031497,
          "duration": 0.4000000000000057
        },
        {
          "name": "C3",
          "midi": 48,
          "time": 184.79999999999978,
          "velocity": 0.7874015748031497,
          "duration": 0.4000000000000057
        },
        {
          "name": "G2",
          "midi": 43,
          "time": 184.79999999999978,
          "velocity": 0.7874015748031497,
          "duration": 0.4000000000000057
        },
        {
          "name": "B2",
          "midi": 47,
          "time": 185.1999999999998,
          "velocity": 0.7874015748031497,
          "duration": 0.4000000000000057
        },
        {
          "name": "F#2",
          "midi": 42,
          "time": 185.1999999999998,
          "velocity": 0.7874015748031497,
          "duration": 0.4000000000000057
        },
        {
          "name": "B2",
          "midi": 47,
          "time": 185.5999999999998,
          "velocity": 0.7874015748031497,
          "duration": 0.4000000000000057
        },
        {
          "name": "E2",
          "midi": 40,
          "time": 185.5999999999998,
          "velocity": 0.7874015748031497,
          "duration": 0.4000000000000057
        },
        {
          "name": "C#3",
          "midi": 49,
          "time": 185.9999999999998,
          "velocity": 0.7874015748031497,
          "duration": 0.4000000000000057
        },
        {
          "name": "F#2",
          "midi": 42,
          "time": 185.9999999999998,
          "velocity": 0.7874015748031497,
          "duration": 0.4000000000000057
        },
        {
          "name": "F#3",
          "midi": 54,
          "time": 186.3999999999998,
          "velocity": 0.7874015748031497,
          "duration": 0.4000000000000057
        },
        {
          "name": "B2",
          "midi": 47,
          "time": 186.7999999999998,
          "velocity": 0.7874015748031497,
          "duration": 0.19999999999998863
        },
        {
          "name": "E2",
          "midi": 40,
          "time": 186.7999999999998,
          "velocity": 0.7874015748031497,
          "duration": 0.19999999999998863
        },
        {
          "name": "C#3",
          "midi": 49,
          "time": 186.9999999999998,
          "velocity": 0.7874015748031497,
          "duration": 0.4000000000000057
        },
        {
          "name": "F#2",
          "midi": 42,
          "time": 186.9999999999998,
          "velocity": 0.7874015748031497,
          "duration": 0.4000000000000057
        },
        {
          "name": "B2",
          "midi": 47,
          "time": 187.3999999999998,
          "velocity": 0.7874015748031497,
          "duration": 0.19999999999998863
        },
        {
          "name": "E2",
          "midi": 40,
          "time": 187.3999999999998,
          "velocity": 0.7874015748031497,
          "duration": 0.19999999999998863
        },
        {
          "name": "C#3",
          "midi": 49,
          "time": 187.5999999999998,
          "velocity": 0.7874015748031497,
          "duration": 0.4000000000000057
        },
        {
          "name": "F#2",
          "midi": 42,
          "time": 187.5999999999998,
          "velocity": 0.7874015748031497,
          "duration": 0.4000000000000057
        },
        {
          "name": "F#3",
          "midi": 54,
          "time": 187.9999999999998,
          "velocity": 0.7874015748031497,
          "duration": 0.4000000000000057
        },
        {
          "name": "E3",
          "midi": 52,
          "time": 188.3999999999998,
          "velocity": 0.7874015748031497,
          "duration": 0.4000000000000057
        },
        {
          "name": "B2",
          "midi": 47,
          "time": 188.7999999999998,
          "velocity": 0.7874015748031497,
          "duration": 0.4000000000000057
        },
        {
          "name": "E2",
          "midi": 40,
          "time": 188.7999999999998,
          "velocity": 0.7874015748031497,
          "duration": 0.4000000000000057
        },
        {
          "name": "C#3",
          "midi": 49,
          "time": 189.19999999999982,
          "velocity": 0.7874015748031497,
          "duration": 0.4000000000000057
        },
        {
          "name": "F#2",
          "midi": 42,
          "time": 189.19999999999982,
          "velocity": 0.7874015748031497,
          "duration": 0.4000000000000057
        },
        {
          "name": "F#3",
          "midi": 54,
          "time": 189.59999999999982,
          "velocity": 0.7874015748031497,
          "duration": 0.4000000000000057
        },
        {
          "name": "B2",
          "midi": 47,
          "time": 189.99999999999983,
          "velocity": 0.7874015748031497,
          "duration": 0.19999999999998863
        },
        {
          "name": "E2",
          "midi": 40,
          "time": 189.99999999999983,
          "velocity": 0.7874015748031497,
          "duration": 0.19999999999998863
        },
        {
          "name": "C#3",
          "midi": 49,
          "time": 190.19999999999982,
          "velocity": 0.7874015748031497,
          "duration": 0.4000000000000057
        },
        {
          "name": "F#2",
          "midi": 42,
          "time": 190.19999999999982,
          "velocity": 0.7874015748031497,
          "duration": 0.4000000000000057
        },
        {
          "name": "B2",
          "midi": 47,
          "time": 190.59999999999982,
          "velocity": 0.7874015748031497,
          "duration": 0.19999999999998863
        },
        {
          "name": "E2",
          "midi": 40,
          "time": 190.59999999999982,
          "velocity": 0.7874015748031497,
          "duration": 0.19999999999998863
        },
        {
          "name": "C#3",
          "midi": 49,
          "time": 190.7999999999998,
          "velocity": 0.7874015748031497,
          "duration": 0.4000000000000057
        },
        {
          "name": "G#2",
          "midi": 44,
          "time": 190.7999999999998,
          "velocity": 0.7874015748031497,
          "duration": 0.4000000000000057
        },
        {
          "name": "C3",
          "midi": 48,
          "time": 191.19999999999982,
          "velocity": 0.7874015748031497,
          "duration": 0.4000000000000057
        },
        {
          "name": "G2",
          "midi": 43,
          "time": 191.19999999999982,
          "velocity": 0.7874015748031497,
          "duration": 0.4000000000000057
        },
        {
          "name": "B2",
          "midi": 47,
          "time": 191.59999999999982,
          "velocity": 0.7874015748031497,
          "duration": 0.4000000000000057
        },
        {
          "name": "F#2",
          "midi": 42,
          "time": 191.59999999999982,
          "velocity": 0.7874015748031497,
          "duration": 0.4000000000000057
        },
        {
          "name": "B2",
          "midi": 47,
          "time": 191.99999999999983,
          "velocity": 0.7874015748031497,
          "duration": 0.19999999999998863
        },
        {
          "name": "E2",
          "midi": 40,
          "time": 191.99999999999983,
          "velocity": 0.7874015748031497,
          "duration": 0.19999999999998863
        },
        {
          "name": "E2",
          "midi": 40,
          "time": 192.19999999999982,
          "velocity": 0.7874015748031497,
          "duration": 0.19999999999998863
        },
        {
          "name": "B2",
          "midi": 47,
          "time": 192.19999999999982,
          "velocity": 0.7874015748031497,
          "duration": 0.19999999999998863
        },
        {
          "name": "E2",
          "midi": 40,
          "time": 192.3999999999998,
          "velocity": 0.7874015748031497,
          "duration": 0.19999999999998863
        },
        {
          "name": "B2",
          "midi": 47,
          "time": 192.3999999999998,
          "velocity": 0.7874015748031497,
          "duration": 0.19999999999998863
        },
        {
          "name": "E2",
          "midi": 40,
          "time": 192.5999999999998,
          "velocity": 0.7874015748031497,
          "duration": 0.19999999999998863
        },
        {
          "name": "B2",
          "midi": 47,
          "time": 192.5999999999998,
          "velocity": 0.7874015748031497,
          "duration": 0.19999999999998863
        },
        {
          "name": "E2",
          "midi": 40,
          "time": 192.79999999999978,
          "velocity": 0.7874015748031497,
          "duration": 0.19999999999998863
        },
        {
          "name": "B2",
          "midi": 47,
          "time": 192.79999999999978,
          "velocity": 0.7874015748031497,
          "duration": 0.19999999999998863
        },
        {
          "name": "E2",
          "midi": 40,
          "time": 192.99999999999977,
          "velocity": 0.7874015748031497,
          "duration": 0.19999999999998863
        },
        {
          "name": "B2",
          "midi": 47,
          "time": 192.99999999999977,
          "velocity": 0.7874015748031497,
          "duration": 0.19999999999998863
        },
        {
          "name": "E2",
          "midi": 40,
          "time": 193.19999999999976,
          "velocity": 0.7874015748031497,
          "duration": 0.19999999999998863
        },
        {
          "name": "B2",
          "midi": 47,
          "time": 193.19999999999976,
          "velocity": 0.7874015748031497,
          "duration": 0.19999999999998863
        },
        {
          "name": "E2",
          "midi": 40,
          "time": 193.39999999999975,
          "velocity": 0.7874015748031497,
          "duration": 0.19999999999998863
        },
        {
          "name": "B2",
          "midi": 47,
          "time": 193.39999999999975,
          "velocity": 0.7874015748031497,
          "duration": 0.19999999999998863
        },
        {
          "name": "B2",
          "midi": 47,
          "time": 193.59999999999974,
          "velocity": 0.7874015748031497,
          "duration": 0.19999999999998863
        },
        {
          "name": "E2",
          "midi": 40,
          "time": 193.59999999999974,
          "velocity": 0.7874015748031497,
          "duration": 0.19999999999998863
        },
        {
          "name": "E2",
          "midi": 40,
          "time": 193.79999999999973,
          "velocity": 0.7874015748031497,
          "duration": 0.19999999999998863
        },
        {
          "name": "B2",
          "midi": 47,
          "time": 193.79999999999973,
          "velocity": 0.7874015748031497,
          "duration": 0.19999999999998863
        },
        {
          "name": "E2",
          "midi": 40,
          "time": 193.99999999999972,
          "velocity": 0.7874015748031497,
          "duration": 0.19999999999998863
        },
        {
          "name": "B2",
          "midi": 47,
          "time": 193.99999999999972,
          "velocity": 0.7874015748031497,
          "duration": 0.19999999999998863
        },
        {
          "name": "E2",
          "midi": 40,
          "time": 194.1999999999997,
          "velocity": 0.7874015748031497,
          "duration": 0.19999999999998863
        },
        {
          "name": "B2",
          "midi": 47,
          "time": 194.1999999999997,
          "velocity": 0.7874015748031497,
          "duration": 0.19999999999998863
        },
        {
          "name": "E2",
          "midi": 40,
          "time": 194.3999999999997,
          "velocity": 0.7874015748031497,
          "duration": 0.19999999999998863
        },
        {
          "name": "B2",
          "midi": 47,
          "time": 194.3999999999997,
          "velocity": 0.7874015748031497,
          "duration": 0.19999999999998863
        },
        {
          "name": "E2",
          "midi": 40,
          "time": 194.59999999999968,
          "velocity": 0.7874015748031497,
          "duration": 0.19999999999998863
        },
        {
          "name": "B2",
          "midi": 47,
          "time": 194.59999999999968,
          "velocity": 0.7874015748031497,
          "duration": 0.19999999999998863
        },
        {
          "name": "E2",
          "midi": 40,
          "time": 194.79999999999967,
          "velocity": 0.7874015748031497,
          "duration": 0.19999999999998863
        },
        {
          "name": "B2",
          "midi": 47,
          "time": 194.79999999999967,
          "velocity": 0.7874015748031497,
          "duration": 0.19999999999998863
        },
        {
          "name": "E2",
          "midi": 40,
          "time": 194.99999999999966,
          "velocity": 0.7874015748031497,
          "duration": 0.19999999999998863
        },
        {
          "name": "B2",
          "midi": 47,
          "time": 194.99999999999966,
          "velocity": 0.7874015748031497,
          "duration": 0.19999999999998863
        },
        {
          "name": "B2",
          "midi": 47,
          "time": 195.19999999999965,
          "velocity": 0.7874015748031497,
          "duration": 0.19999999999998863
        },
        {
          "name": "E2",
          "midi": 40,
          "time": 195.19999999999965,
          "velocity": 0.7874015748031497,
          "duration": 0.19999999999998863
        },
        {
          "name": "E2",
          "midi": 40,
          "time": 195.39999999999964,
          "velocity": 0.7874015748031497,
          "duration": 0.19999999999998863
        },
        {
          "name": "B2",
          "midi": 47,
          "time": 195.39999999999964,
          "velocity": 0.7874015748031497,
          "duration": 0.19999999999998863
        },
        {
          "name": "E2",
          "midi": 40,
          "time": 195.59999999999962,
          "velocity": 0.7874015748031497,
          "duration": 0.19999999999998863
        },
        {
          "name": "B2",
          "midi": 47,
          "time": 195.59999999999962,
          "velocity": 0.7874015748031497,
          "duration": 0.19999999999998863
        },
        {
          "name": "E2",
          "midi": 40,
          "time": 195.7999999999996,
          "velocity": 0.7874015748031497,
          "duration": 0.19999999999998863
        },
        {
          "name": "B2",
          "midi": 47,
          "time": 195.7999999999996,
          "velocity": 0.7874015748031497,
          "duration": 0.19999999999998863
        },
        {
          "name": "E2",
          "midi": 40,
          "time": 195.9999999999996,
          "velocity": 0.7874015748031497,
          "duration": 0.19999999999998863
        },
        {
          "name": "B2",
          "midi": 47,
          "time": 195.9999999999996,
          "velocity": 0.7874015748031497,
          "duration": 0.19999999999998863
        },
        {
          "name": "E2",
          "midi": 40,
          "time": 196.1999999999996,
          "velocity": 0.7874015748031497,
          "duration": 0.19999999999998863
        },
        {
          "name": "B2",
          "midi": 47,
          "time": 196.1999999999996,
          "velocity": 0.7874015748031497,
          "duration": 0.19999999999998863
        },
        {
          "name": "E2",
          "midi": 40,
          "time": 196.39999999999958,
          "velocity": 0.7874015748031497,
          "duration": 0.19999999999998863
        },
        {
          "name": "B2",
          "midi": 47,
          "time": 196.39999999999958,
          "velocity": 0.7874015748031497,
          "duration": 0.19999999999998863
        },
        {
          "name": "E2",
          "midi": 40,
          "time": 196.59999999999957,
          "velocity": 0.7874015748031497,
          "duration": 0.19999999999998863
        },
        {
          "name": "B2",
          "midi": 47,
          "time": 196.59999999999957,
          "velocity": 0.7874015748031497,
          "duration": 0.19999999999998863
        },
        {
          "name": "B2",
          "midi": 47,
          "time": 196.79999999999956,
          "velocity": 0.7874015748031497,
          "duration": 0.19999999999998863
        },
        {
          "name": "E2",
          "midi": 40,
          "time": 196.79999999999956,
          "velocity": 0.7874015748031497,
          "duration": 0.19999999999998863
        },
        {
          "name": "E2",
          "midi": 40,
          "time": 196.99999999999955,
          "velocity": 0.7874015748031497,
          "duration": 0.19999999999998863
        },
        {
          "name": "B2",
          "midi": 47,
          "time": 196.99999999999955,
          "velocity": 0.7874015748031497,
          "duration": 0.19999999999998863
        },
        {
          "name": "E2",
          "midi": 40,
          "time": 197.19999999999953,
          "velocity": 0.7874015748031497,
          "duration": 0.19999999999998863
        },
        {
          "name": "B2",
          "midi": 47,
          "time": 197.19999999999953,
          "velocity": 0.7874015748031497,
          "duration": 0.19999999999998863
        },
        {
          "name": "E2",
          "midi": 40,
          "time": 197.39999999999952,
          "velocity": 0.7874015748031497,
          "duration": 0.19999999999998863
        },
        {
          "name": "B2",
          "midi": 47,
          "time": 197.39999999999952,
          "velocity": 0.7874015748031497,
          "duration": 0.19999999999998863
        },
        {
          "name": "E2",
          "midi": 40,
          "time": 197.5999999999995,
          "velocity": 0.7874015748031497,
          "duration": 0.19999999999998863
        },
        {
          "name": "B2",
          "midi": 47,
          "time": 197.5999999999995,
          "velocity": 0.7874015748031497,
          "duration": 0.19999999999998863
        },
        {
          "name": "E2",
          "midi": 40,
          "time": 197.7999999999995,
          "velocity": 0.7874015748031497,
          "duration": 0.19999999999998863
        },
        {
          "name": "B2",
          "midi": 47,
          "time": 197.7999999999995,
          "velocity": 0.7874015748031497,
          "duration": 0.19999999999998863
        },
        {
          "name": "E2",
          "midi": 40,
          "time": 197.9999999999995,
          "velocity": 0.7874015748031497,
          "duration": 0.19999999999998863
        },
        {
          "name": "B2",
          "midi": 47,
          "time": 197.9999999999995,
          "velocity": 0.7874015748031497,
          "duration": 0.19999999999998863
        },
        {
          "name": "E2",
          "midi": 40,
          "time": 198.19999999999948,
          "velocity": 0.7874015748031497,
          "duration": 0.19999999999998863
        },
        {
          "name": "B2",
          "midi": 47,
          "time": 198.19999999999948,
          "velocity": 0.7874015748031497,
          "duration": 0.19999999999998863
        },
        {
          "name": "C#3",
          "midi": 49,
          "time": 198.39999999999947,
          "velocity": 0.7874015748031497,
          "duration": 0.39999999999997726
        },
        {
          "name": "F#2",
          "midi": 42,
          "time": 198.39999999999947,
          "velocity": 0.7874015748031497,
          "duration": 0.39999999999997726
        },
        {
          "name": "C#3",
          "midi": 49,
          "time": 198.79999999999944,
          "velocity": 0.7874015748031497,
          "duration": 0.39999999999997726
        },
        {
          "name": "F#2",
          "midi": 42,
          "time": 198.79999999999944,
          "velocity": 0.7874015748031497,
          "duration": 0.39999999999997726
        },
        {
          "name": "A2",
          "midi": 45,
          "time": 199.19999999999942,
          "velocity": 0.7874015748031497,
          "duration": 0.4000000000000057
        },
        {
          "name": "F#2",
          "midi": 42,
          "time": 199.59999999999943,
          "velocity": 0.7874015748031497,
          "duration": 0.1941666666666606
        },
        {
          "name": "E2",
          "midi": 40,
          "time": 199.7941666666661,
          "velocity": 0.7874015748031497,
          "duration": 0.19499999999999318
        },
        {
          "name": "F#2",
          "midi": 42,
          "time": 199.9999999999994,
          "velocity": 0.7874015748031497,
          "duration": 0.39999999999997726
        },
        {
          "name": "C#3",
          "midi": 49,
          "time": 199.9999999999994,
          "velocity": 0.7874015748031497,
          "duration": 0.39999999999997726
        },
        {
          "name": "C#3",
          "midi": 49,
          "time": 200.39999999999938,
          "velocity": 0.7874015748031497,
          "duration": 0.19999999999998863
        },
        {
          "name": "F#2",
          "midi": 42,
          "time": 200.39999999999938,
          "velocity": 0.7874015748031497,
          "duration": 0.19999999999998863
        },
        {
          "name": "C#3",
          "midi": 49,
          "time": 200.79999999999936,
          "velocity": 0.7874015748031497,
          "duration": 0.09999999999999432
        },
        {
          "name": "F#2",
          "midi": 42,
          "time": 200.79999999999936,
          "velocity": 0.7874015748031497,
          "duration": 0.09999999999999432
        },
        {
          "name": "C#3",
          "midi": 49,
          "time": 200.99999999999935,
          "velocity": 0.7874015748031497,
          "duration": 0.09999999999999432
        },
        {
          "name": "F#2",
          "midi": 42,
          "time": 200.99999999999935,
          "velocity": 0.7874015748031497,
          "duration": 0.09999999999999432
        },
        {
          "name": "C#3",
          "midi": 49,
          "time": 201.19999999999933,
          "velocity": 0.7874015748031497,
          "duration": 0.09999999999999432
        },
        {
          "name": "F#2",
          "midi": 42,
          "time": 201.19999999999933,
          "velocity": 0.7874015748031497,
          "duration": 0.09999999999999432
        },
        {
          "name": "C#3",
          "midi": 49,
          "time": 201.39999999999932,
          "velocity": 0.7874015748031497,
          "duration": 0.09999999999999432
        },
        {
          "name": "F#2",
          "midi": 42,
          "time": 201.39999999999932,
          "velocity": 0.7874015748031497,
          "duration": 0.09999999999999432
        },
        {
          "name": "C#3",
          "midi": 49,
          "time": 201.5999999999993,
          "velocity": 0.7874015748031497,
          "duration": 0.39999999999997726
        },
        {
          "name": "F#2",
          "midi": 42,
          "time": 201.5999999999993,
          "velocity": 0.7874015748031497,
          "duration": 0.39999999999997726
        },
        {
          "name": "C#3",
          "midi": 49,
          "time": 201.9999999999993,
          "velocity": 0.7874015748031497,
          "duration": 0.39999999999997726
        },
        {
          "name": "F#2",
          "midi": 42,
          "time": 201.9999999999993,
          "velocity": 0.7874015748031497,
          "duration": 0.39999999999997726
        },
        {
          "name": "A2",
          "midi": 45,
          "time": 202.39999999999927,
          "velocity": 0.7874015748031497,
          "duration": 0.4000000000000057
        },
        {
          "name": "F#2",
          "midi": 42,
          "time": 202.79999999999927,
          "velocity": 0.7874015748031497,
          "duration": 0.1941666666666606
        },
        {
          "name": "E2",
          "midi": 40,
          "time": 202.99416666666593,
          "velocity": 0.7874015748031497,
          "duration": 0.19499999999999318
        },
        {
          "name": "C#3",
          "midi": 49,
          "time": 203.19999999999925,
          "velocity": 0.7874015748031497,
          "duration": 0.39999999999997726
        },
        {
          "name": "F#2",
          "midi": 42,
          "time": 203.19999999999925,
          "velocity": 0.7874015748031497,
          "duration": 0.39999999999997726
        },
        {
          "name": "C#3",
          "midi": 49,
          "time": 203.59999999999923,
          "velocity": 0.7874015748031497,
          "duration": 0.19999999999998863
        },
        {
          "name": "F#2",
          "midi": 42,
          "time": 203.79999999999922,
          "velocity": 0.7874015748031497,
          "duration": 0.19999999999998863
        },
        {
          "name": "C3",
          "midi": 48,
          "time": 203.9999999999992,
          "velocity": 0.7874015748031497,
          "duration": 0.19999999999998863
        },
        {
          "name": "F#2",
          "midi": 42,
          "time": 204.1999999999992,
          "velocity": 0.7874015748031497,
          "duration": 0.19999999999998863
        },
        {
          "name": "B2",
          "midi": 47,
          "time": 204.39999999999918,
          "velocity": 0.7874015748031497,
          "duration": 0.19999999999998863
        },
        {
          "name": "F#2",
          "midi": 42,
          "time": 204.59999999999917,
          "velocity": 0.7874015748031497,
          "duration": 0.19999999999998863
        },
        {
          "name": "C#3",
          "midi": 49,
          "time": 204.79999999999916,
          "velocity": 0.7874015748031497,
          "duration": 0.39999999999997726
        },
        {
          "name": "F#2",
          "midi": 42,
          "time": 204.79999999999916,
          "velocity": 0.7874015748031497,
          "duration": 0.39999999999997726
        },
        {
          "name": "C#3",
          "midi": 49,
          "time": 205.19999999999914,
          "velocity": 0.7874015748031497,
          "duration": 0.39999999999997726
        },
        {
          "name": "F#2",
          "midi": 42,
          "time": 205.19999999999914,
          "velocity": 0.7874015748031497,
          "duration": 0.39999999999997726
        },
        {
          "name": "A2",
          "midi": 45,
          "time": 205.5999999999991,
          "velocity": 0.7874015748031497,
          "duration": 0.4000000000000057
        },
        {
          "name": "F#2",
          "midi": 42,
          "time": 205.99999999999912,
          "velocity": 0.7874015748031497,
          "duration": 0.1941666666666606
        },
        {
          "name": "E2",
          "midi": 40,
          "time": 206.19416666666578,
          "velocity": 0.7874015748031497,
          "duration": 0.19499999999999318
        },
        {
          "name": "F#2",
          "midi": 42,
          "time": 206.3999999999991,
          "velocity": 0.7874015748031497,
          "duration": 0.39999999999997726
        },
        {
          "name": "C#3",
          "midi": 49,
          "time": 206.3999999999991,
          "velocity": 0.7874015748031497,
          "duration": 0.39999999999997726
        },
        {
          "name": "C#3",
          "midi": 49,
          "time": 206.79999999999907,
          "velocity": 0.7874015748031497,
          "duration": 0.19999999999998863
        },
        {
          "name": "F#2",
          "midi": 42,
          "time": 206.79999999999907,
          "velocity": 0.7874015748031497,
          "duration": 0.19999999999998863
        },
        {
          "name": "C#3",
          "midi": 49,
          "time": 207.19999999999905,
          "velocity": 0.7874015748031497,
          "duration": 0.09999999999999432
        },
        {
          "name": "F#2",
          "midi": 42,
          "time": 207.19999999999905,
          "velocity": 0.7874015748031497,
          "duration": 0.09999999999999432
        },
        {
          "name": "C#3",
          "midi": 49,
          "time": 207.39999999999904,
          "velocity": 0.7874015748031497,
          "duration": 0.09999999999999432
        },
        {
          "name": "F#2",
          "midi": 42,
          "time": 207.39999999999904,
          "velocity": 0.7874015748031497,
          "duration": 0.09999999999999432
        },
        {
          "name": "C#3",
          "midi": 49,
          "time": 207.59999999999903,
          "velocity": 0.7874015748031497,
          "duration": 0.09999999999999432
        },
        {
          "name": "F#2",
          "midi": 42,
          "time": 207.59999999999903,
          "velocity": 0.7874015748031497,
          "duration": 0.09999999999999432
        },
        {
          "name": "C#3",
          "midi": 49,
          "time": 207.79999999999902,
          "velocity": 0.7874015748031497,
          "duration": 0.09999999999999432
        },
        {
          "name": "F#2",
          "midi": 42,
          "time": 207.79999999999902,
          "velocity": 0.7874015748031497,
          "duration": 0.09999999999999432
        },
        {
          "name": "C#3",
          "midi": 49,
          "time": 207.999999999999,
          "velocity": 0.7874015748031497,
          "duration": 0.39999999999997726
        },
        {
          "name": "F#2",
          "midi": 42,
          "time": 207.999999999999,
          "velocity": 0.7874015748031497,
          "duration": 0.39999999999997726
        },
        {
          "name": "C#3",
          "midi": 49,
          "time": 208.39999999999898,
          "velocity": 0.7874015748031497,
          "duration": 0.39999999999997726
        },
        {
          "name": "F#2",
          "midi": 42,
          "time": 208.39999999999898,
          "velocity": 0.7874015748031497,
          "duration": 0.39999999999997726
        },
        {
          "name": "A2",
          "midi": 45,
          "time": 208.79999999999896,
          "velocity": 0.7874015748031497,
          "duration": 0.4000000000000057
        },
        {
          "name": "F#2",
          "midi": 42,
          "time": 209.19999999999897,
          "velocity": 0.7874015748031497,
          "duration": 0.1941666666666606
        },
        {
          "name": "E2",
          "midi": 40,
          "time": 209.39416666666563,
          "velocity": 0.7874015748031497,
          "duration": 0.19499999999999318
        },
        {
          "name": "C#3",
          "midi": 49,
          "time": 209.59999999999894,
          "velocity": 0.7874015748031497,
          "duration": 0.39999999999997726
        },
        {
          "name": "F#2",
          "midi": 42,
          "time": 209.59999999999894,
          "velocity": 0.7874015748031497,
          "duration": 0.39999999999997726
        },
        {
          "name": "C#3",
          "midi": 49,
          "time": 209.99999999999892,
          "velocity": 0.7874015748031497,
          "duration": 0.19999999999998863
        },
        {
          "name": "F#2",
          "midi": 42,
          "time": 210.1999999999989,
          "velocity": 0.7874015748031497,
          "duration": 0.19999999999998863
        },
        {
          "name": "C3",
          "midi": 48,
          "time": 210.3999999999989,
          "velocity": 0.7874015748031497,
          "duration": 0.19999999999998863
        },
        {
          "name": "F#2",
          "midi": 42,
          "time": 210.5999999999989,
          "velocity": 0.7874015748031497,
          "duration": 0.19999999999998863
        },
        {
          "name": "B2",
          "midi": 47,
          "time": 210.79999999999887,
          "velocity": 0.7874015748031497,
          "duration": 0.19999999999998863
        },
        {
          "name": "F#2",
          "midi": 42,
          "time": 210.99999999999886,
          "velocity": 0.7874015748031497,
          "duration": 0.19999999999998863
        },
        {
          "name": "F#3",
          "midi": 54,
          "time": 211.19999999999885,
          "velocity": 0.7874015748031497,
          "duration": 0.8000000000000114
        },
        {
          "name": "G#3",
          "midi": 56,
          "time": 211.99999999999886,
          "velocity": 0.7874015748031497,
          "duration": 0.8000000000000114
        },
        {
          "name": "A3",
          "midi": 57,
          "time": 212.79999999999887,
          "velocity": 0.7874015748031497,
          "duration": 0.8000000000000114
        },
        {
          "name": "B3",
          "midi": 59,
          "time": 213.5999999999989,
          "velocity": 0.7874015748031497,
          "duration": 0.8000000000000114
        },
        {
          "name": "G#3",
          "midi": 56,
          "time": 214.3999999999989,
          "velocity": 0.7874015748031497,
          "duration": 0.8000000000000114
        },
        {
          "name": "A3",
          "midi": 57,
          "time": 215.1999999999989,
          "velocity": 0.7874015748031497,
          "duration": 0.8000000000000114
        },
        {
          "name": "B3",
          "midi": 59,
          "time": 215.99999999999892,
          "velocity": 0.7874015748031497,
          "duration": 0.8000000000000114
        },
        {
          "name": "C#4",
          "midi": 61,
          "time": 216.79999999999893,
          "velocity": 0.7874015748031497,
          "duration": 0.8000000000000114
        },
        {
          "name": "A3",
          "midi": 57,
          "time": 217.59999999999894,
          "velocity": 0.7874015748031497,
          "duration": 0.8000000000000114
        },
        {
          "name": "B3",
          "midi": 59,
          "time": 218.39999999999895,
          "velocity": 0.7874015748031497,
          "duration": 0.8000000000000114
        },
        {
          "name": "C#4",
          "midi": 61,
          "time": 219.19999999999897,
          "velocity": 0.7874015748031497,
          "duration": 0.8000000000000114
        },
        {
          "name": "D#4",
          "midi": 63,
          "time": 219.99999999999898,
          "velocity": 0.7874015748031497,
          "duration": 0.8000000000000114
        },
        {
          "name": "F#4",
          "midi": 66,
          "time": 220.799999999999,
          "velocity": 0.7874015748031497,
          "duration": 0.4000000000000057
        },
        {
          "name": "F#4",
          "midi": 66,
          "time": 221.199999999999,
          "velocity": 0.7874015748031497,
          "duration": 0.4000000000000057
        },
        {
          "name": "F#4",
          "midi": 66,
          "time": 221.599999999999,
          "velocity": 0.7874015748031497,
          "duration": 0.4000000000000057
        },
        {
          "name": "F#4",
          "midi": 66,
          "time": 221.999999999999,
          "velocity": 0.7874015748031497,
          "duration": 0.4000000000000057
        },
        {
          "name": "F#4",
          "midi": 66,
          "time": 222.399999999999,
          "velocity": 0.7874015748031497,
          "duration": 0.4000000000000057
        },
        {
          "name": "F#4",
          "midi": 66,
          "time": 222.79999999999902,
          "velocity": 0.7874015748031497,
          "duration": 0.4000000000000057
        },
        {
          "name": "F#4",
          "midi": 66,
          "time": 223.19999999999902,
          "velocity": 0.7874015748031497,
          "duration": 0.4000000000000057
        },
        {
          "name": "F#4",
          "midi": 66,
          "time": 223.59999999999903,
          "velocity": 0.7874015748031497,
          "duration": 0.4000000000000057
        },
        {
          "name": "B2",
          "midi": 47,
          "time": 223.99999999999903,
          "velocity": 0.7874015748031497,
          "duration": 0.4000000000000057
        },
        {
          "name": "E2",
          "midi": 40,
          "time": 223.99999999999903,
          "velocity": 0.7874015748031497,
          "duration": 0.4000000000000057
        },
        {
          "name": "C#3",
          "midi": 49,
          "time": 224.39999999999904,
          "velocity": 0.7874015748031497,
          "duration": 0.4000000000000057
        },
        {
          "name": "F#2",
          "midi": 42,
          "time": 224.39999999999904,
          "velocity": 0.7874015748031497,
          "duration": 0.4000000000000057
        },
        {
          "name": "F#3",
          "midi": 54,
          "time": 224.79999999999905,
          "velocity": 0.7874015748031497,
          "duration": 0.4000000000000057
        },
        {
          "name": "B2",
          "midi": 47,
          "time": 225.19999999999905,
          "velocity": 0.7874015748031497,
          "duration": 0.19999999999998863
        },
        {
          "name": "E2",
          "midi": 40,
          "time": 225.19999999999905,
          "velocity": 0.7874015748031497,
          "duration": 0.19999999999998863
        },
        {
          "name": "C#3",
          "midi": 49,
          "time": 225.39999999999904,
          "velocity": 0.7874015748031497,
          "duration": 0.4000000000000057
        },
        {
          "name": "F#2",
          "midi": 42,
          "time": 225.39999999999904,
          "velocity": 0.7874015748031497,
          "duration": 0.4000000000000057
        },
        {
          "name": "B2",
          "midi": 47,
          "time": 225.79999999999905,
          "velocity": 0.7874015748031497,
          "duration": 0.19999999999998863
        },
        {
          "name": "E2",
          "midi": 40,
          "time": 225.79999999999905,
          "velocity": 0.7874015748031497,
          "duration": 0.19999999999998863
        },
        {
          "name": "C#3",
          "midi": 49,
          "time": 225.99999999999903,
          "velocity": 0.7874015748031497,
          "duration": 0.4000000000000057
        },
        {
          "name": "F#2",
          "midi": 42,
          "time": 225.99999999999903,
          "velocity": 0.7874015748031497,
          "duration": 0.4000000000000057
        },
        {
          "name": "F#3",
          "midi": 54,
          "time": 226.39999999999904,
          "velocity": 0.7874015748031497,
          "duration": 0.4000000000000057
        },
        {
          "name": "E3",
          "midi": 52,
          "time": 226.79999999999905,
          "velocity": 0.7874015748031497,
          "duration": 0.4000000000000057
        },
        {
          "name": "B2",
          "midi": 47,
          "time": 227.19999999999905,
          "velocity": 0.7874015748031497,
          "duration": 0.4000000000000057
        },
        {
          "name": "E2",
          "midi": 40,
          "time": 227.19999999999905,
          "velocity": 0.7874015748031497,
          "duration": 0.4000000000000057
        },
        {
          "name": "C#3",
          "midi": 49,
          "time": 227.59999999999906,
          "velocity": 0.7874015748031497,
          "duration": 0.4000000000000057
        },
        {
          "name": "F#2",
          "midi": 42,
          "time": 227.59999999999906,
          "velocity": 0.7874015748031497,
          "duration": 0.4000000000000057
        },
        {
          "name": "F#3",
          "midi": 54,
          "time": 227.99999999999906,
          "velocity": 0.7874015748031497,
          "duration": 0.4000000000000057
        },
        {
          "name": "B2",
          "midi": 47,
          "time": 228.39999999999907,
          "velocity": 0.7874015748031497,
          "duration": 0.19999999999998863
        },
        {
          "name": "E2",
          "midi": 40,
          "time": 228.39999999999907,
          "velocity": 0.7874015748031497,
          "duration": 0.19999999999998863
        },
        {
          "name": "C#3",
          "midi": 49,
          "time": 228.59999999999906,
          "velocity": 0.7874015748031497,
          "duration": 0.4000000000000057
        },
        {
          "name": "F#2",
          "midi": 42,
          "time": 228.59999999999906,
          "velocity": 0.7874015748031497,
          "duration": 0.4000000000000057
        },
        {
          "name": "B2",
          "midi": 47,
          "time": 228.99999999999906,
          "velocity": 0.7874015748031497,
          "duration": 0.19999999999998863
        },
        {
          "name": "E2",
          "midi": 40,
          "time": 228.99999999999906,
          "velocity": 0.7874015748031497,
          "duration": 0.19999999999998863
        },
        {
          "name": "C#3",
          "midi": 49,
          "time": 229.19999999999905,
          "velocity": 0.7874015748031497,
          "duration": 0.4000000000000057
        },
        {
          "name": "G#2",
          "midi": 44,
          "time": 229.19999999999905,
          "velocity": 0.7874015748031497,
          "duration": 0.4000000000000057
        },
        {
          "name": "C3",
          "midi": 48,
          "time": 229.59999999999906,
          "velocity": 0.7874015748031497,
          "duration": 0.4000000000000057
        },
        {
          "name": "G2",
          "midi": 43,
          "time": 229.59999999999906,
          "velocity": 0.7874015748031497,
          "duration": 0.4000000000000057
        },
        {
          "name": "B2",
          "midi": 47,
          "time": 229.99999999999906,
          "velocity": 0.7874015748031497,
          "duration": 0.4000000000000057
        },
        {
          "name": "F#2",
          "midi": 42,
          "time": 229.99999999999906,
          "velocity": 0.7874015748031497,
          "duration": 0.4000000000000057
        },
        {
          "name": "B2",
          "midi": 47,
          "time": 230.39999999999907,
          "velocity": 0.7874015748031497,
          "duration": 0.4000000000000057
        },
        {
          "name": "E2",
          "midi": 40,
          "time": 230.39999999999907,
          "velocity": 0.7874015748031497,
          "duration": 0.4000000000000057
        },
        {
          "name": "C#3",
          "midi": 49,
          "time": 230.79999999999907,
          "velocity": 0.7874015748031497,
          "duration": 0.4000000000000057
        },
        {
          "name": "F#2",
          "midi": 42,
          "time": 230.79999999999907,
          "velocity": 0.7874015748031497,
          "duration": 0.4000000000000057
        },
        {
          "name": "F#3",
          "midi": 54,
          "time": 231.19999999999908,
          "velocity": 0.7874015748031497,
          "duration": 0.4000000000000057
        },
        {
          "name": "B2",
          "midi": 47,
          "time": 231.59999999999908,
          "velocity": 0.7874015748031497,
          "duration": 0.19999999999998863
        },
        {
          "name": "E2",
          "midi": 40,
          "time": 231.59999999999908,
          "velocity": 0.7874015748031497,
          "duration": 0.19999999999998863
        },
        {
          "name": "C#3",
          "midi": 49,
          "time": 231.79999999999907,
          "velocity": 0.7874015748031497,
          "duration": 0.4000000000000057
        },
        {
          "name": "F#2",
          "midi": 42,
          "time": 231.79999999999907,
          "velocity": 0.7874015748031497,
          "duration": 0.4000000000000057
        },
        {
          "name": "B2",
          "midi": 47,
          "time": 232.19999999999908,
          "velocity": 0.7874015748031497,
          "duration": 0.19999999999998863
        },
        {
          "name": "E2",
          "midi": 40,
          "time": 232.19999999999908,
          "velocity": 0.7874015748031497,
          "duration": 0.19999999999998863
        },
        {
          "name": "C#3",
          "midi": 49,
          "time": 232.39999999999907,
          "velocity": 0.7874015748031497,
          "duration": 0.4000000000000057
        },
        {
          "name": "F#2",
          "midi": 42,
          "time": 232.39999999999907,
          "velocity": 0.7874015748031497,
          "duration": 0.4000000000000057
        },
        {
          "name": "F#3",
          "midi": 54,
          "time": 232.79999999999907,
          "velocity": 0.7874015748031497,
          "duration": 0.4000000000000057
        },
        {
          "name": "E3",
          "midi": 52,
          "time": 233.19999999999908,
          "velocity": 0.7874015748031497,
          "duration": 0.4000000000000057
        },
        {
          "name": "B2",
          "midi": 47,
          "time": 233.59999999999908,
          "velocity": 0.7874015748031497,
          "duration": 0.4000000000000057
        },
        {
          "name": "E2",
          "midi": 40,
          "time": 233.59999999999908,
          "velocity": 0.7874015748031497,
          "duration": 0.4000000000000057
        },
        {
          "name": "C#3",
          "midi": 49,
          "time": 233.9999999999991,
          "velocity": 0.7874015748031497,
          "duration": 0.4000000000000057
        },
        {
          "name": "F#2",
          "midi": 42,
          "time": 233.9999999999991,
          "velocity": 0.7874015748031497,
          "duration": 0.4000000000000057
        },
        {
          "name": "F#3",
          "midi": 54,
          "time": 234.3999999999991,
          "velocity": 0.7874015748031497,
          "duration": 0.4000000000000057
        },
        {
          "name": "B2",
          "midi": 47,
          "time": 234.7999999999991,
          "velocity": 0.7874015748031497,
          "duration": 0.19999999999998863
        },
        {
          "name": "E2",
          "midi": 40,
          "time": 234.7999999999991,
          "velocity": 0.7874015748031497,
          "duration": 0.19999999999998863
        },
        {
          "name": "C#3",
          "midi": 49,
          "time": 234.9999999999991,
          "velocity": 0.7874015748031497,
          "duration": 0.4000000000000057
        },
        {
          "name": "F#2",
          "midi": 42,
          "time": 234.9999999999991,
          "velocity": 0.7874015748031497,
          "duration": 0.4000000000000057
        },
        {
          "name": "B2",
          "midi": 47,
          "time": 235.3999999999991,
          "velocity": 0.7874015748031497,
          "duration": 0.19999999999998863
        },
        {
          "name": "E2",
          "midi": 40,
          "time": 235.3999999999991,
          "velocity": 0.7874015748031497,
          "duration": 0.19999999999998863
        },
        {
          "name": "C#3",
          "midi": 49,
          "time": 235.59999999999908,
          "velocity": 0.7874015748031497,
          "duration": 0.4000000000000057
        },
        {
          "name": "G#2",
          "midi": 44,
          "time": 235.59999999999908,
          "velocity": 0.7874015748031497,
          "duration": 0.4000000000000057
        },
        {
          "name": "C3",
          "midi": 48,
          "time": 235.9999999999991,
          "velocity": 0.7874015748031497,
          "duration": 0.4000000000000057
        },
        {
          "name": "G2",
          "midi": 43,
          "time": 235.9999999999991,
          "velocity": 0.7874015748031497,
          "duration": 0.4000000000000057
        },
        {
          "name": "B2",
          "midi": 47,
          "time": 236.3999999999991,
          "velocity": 0.7874015748031497,
          "duration": 0.4000000000000057
        },
        {
          "name": "F#2",
          "midi": 42,
          "time": 236.3999999999991,
          "velocity": 0.7874015748031497,
          "duration": 0.4000000000000057
        },
        {
          "name": "B2",
          "midi": 47,
          "time": 236.7999999999991,
          "velocity": 0.7874015748031497,
          "duration": 0.4000000000000057
        },
        {
          "name": "E2",
          "midi": 40,
          "time": 236.7999999999991,
          "velocity": 0.7874015748031497,
          "duration": 0.4000000000000057
        },
        {
          "name": "C#3",
          "midi": 49,
          "time": 237.1999999999991,
          "velocity": 0.7874015748031497,
          "duration": 0.4000000000000057
        },
        {
          "name": "F#2",
          "midi": 42,
          "time": 237.1999999999991,
          "velocity": 0.7874015748031497,
          "duration": 0.4000000000000057
        },
        {
          "name": "F#3",
          "midi": 54,
          "time": 237.5999999999991,
          "velocity": 0.7874015748031497,
          "duration": 0.4000000000000057
        },
        {
          "name": "B2",
          "midi": 47,
          "time": 237.99999999999912,
          "velocity": 0.7874015748031497,
          "duration": 0.19999999999998863
        },
        {
          "name": "E2",
          "midi": 40,
          "time": 237.99999999999912,
          "velocity": 0.7874015748031497,
          "duration": 0.19999999999998863
        },
        {
          "name": "C#3",
          "midi": 49,
          "time": 238.1999999999991,
          "velocity": 0.7874015748031497,
          "duration": 0.4000000000000057
        },
        {
          "name": "F#2",
          "midi": 42,
          "time": 238.1999999999991,
          "velocity": 0.7874015748031497,
          "duration": 0.4000000000000057
        },
        {
          "name": "B2",
          "midi": 47,
          "time": 238.5999999999991,
          "velocity": 0.7874015748031497,
          "duration": 0.19999999999998863
        },
        {
          "name": "E2",
          "midi": 40,
          "time": 238.5999999999991,
          "velocity": 0.7874015748031497,
          "duration": 0.19999999999998863
        },
        {
          "name": "C#3",
          "midi": 49,
          "time": 238.7999999999991,
          "velocity": 0.7874015748031497,
          "duration": 0.4000000000000057
        },
        {
          "name": "F#2",
          "midi": 42,
          "time": 238.7999999999991,
          "velocity": 0.7874015748031497,
          "duration": 0.4000000000000057
        },
        {
          "name": "F#3",
          "midi": 54,
          "time": 239.1999999999991,
          "velocity": 0.7874015748031497,
          "duration": 0.4000000000000057
        },
        {
          "name": "E3",
          "midi": 52,
          "time": 239.5999999999991,
          "velocity": 0.7874015748031497,
          "duration": 0.4000000000000057
        },
        {
          "name": "B2",
          "midi": 47,
          "time": 239.99999999999912,
          "velocity": 0.7874015748031497,
          "duration": 0.4000000000000057
        },
        {
          "name": "E2",
          "midi": 40,
          "time": 239.99999999999912,
          "velocity": 0.7874015748031497,
          "duration": 0.4000000000000057
        },
        {
          "name": "C#3",
          "midi": 49,
          "time": 240.39999999999912,
          "velocity": 0.7874015748031497,
          "duration": 0.4000000000000057
        },
        {
          "name": "F#2",
          "midi": 42,
          "time": 240.39999999999912,
          "velocity": 0.7874015748031497,
          "duration": 0.4000000000000057
        },
        {
          "name": "F#3",
          "midi": 54,
          "time": 240.79999999999913,
          "velocity": 0.7874015748031497,
          "duration": 0.4000000000000057
        },
        {
          "name": "B2",
          "midi": 47,
          "time": 241.19999999999914,
          "velocity": 0.7874015748031497,
          "duration": 0.19999999999998863
        },
        {
          "name": "E2",
          "midi": 40,
          "time": 241.19999999999914,
          "velocity": 0.7874015748031497,
          "duration": 0.19999999999998863
        },
        {
          "name": "C#3",
          "midi": 49,
          "time": 241.39999999999912,
          "velocity": 0.7874015748031497,
          "duration": 0.4000000000000057
        },
        {
          "name": "F#2",
          "midi": 42,
          "time": 241.39999999999912,
          "velocity": 0.7874015748031497,
          "duration": 0.4000000000000057
        },
        {
          "name": "B2",
          "midi": 47,
          "time": 241.79999999999913,
          "velocity": 0.7874015748031497,
          "duration": 0.19999999999998863
        },
        {
          "name": "E2",
          "midi": 40,
          "time": 241.79999999999913,
          "velocity": 0.7874015748031497,
          "duration": 0.19999999999998863
        },
        {
          "name": "C#3",
          "midi": 49,
          "time": 241.99999999999912,
          "velocity": 0.7874015748031497,
          "duration": 0.4000000000000057
        },
        {
          "name": "G#2",
          "midi": 44,
          "time": 241.99999999999912,
          "velocity": 0.7874015748031497,
          "duration": 0.4000000000000057
        },
        {
          "name": "C3",
          "midi": 48,
          "time": 242.39999999999912,
          "velocity": 0.7874015748031497,
          "duration": 0.4000000000000057
        },
        {
          "name": "G2",
          "midi": 43,
          "time": 242.39999999999912,
          "velocity": 0.7874015748031497,
          "duration": 0.4000000000000057
        },
        {
          "name": "B2",
          "midi": 47,
          "time": 242.79999999999913,
          "velocity": 0.7874015748031497,
          "duration": 0.4000000000000057
        },
        {
          "name": "F#2",
          "midi": 42,
          "time": 242.79999999999913,
          "velocity": 0.7874015748031497,
          "duration": 0.4000000000000057
        },
        {
          "name": "B2",
          "midi": 47,
          "time": 243.19999999999914,
          "velocity": 0.7874015748031497,
          "duration": 0.4000000000000057
        },
        {
          "name": "E2",
          "midi": 40,
          "time": 243.19999999999914,
          "velocity": 0.7874015748031497,
          "duration": 0.4000000000000057
        },
        {
          "name": "C#3",
          "midi": 49,
          "time": 243.59999999999914,
          "velocity": 0.7874015748031497,
          "duration": 0.4000000000000057
        },
        {
          "name": "F#2",
          "midi": 42,
          "time": 243.59999999999914,
          "velocity": 0.7874015748031497,
          "duration": 0.4000000000000057
        },
        {
          "name": "F#3",
          "midi": 54,
          "time": 243.99999999999915,
          "velocity": 0.7874015748031497,
          "duration": 0.4000000000000057
        },
        {
          "name": "B2",
          "midi": 47,
          "time": 244.39999999999915,
          "velocity": 0.7874015748031497,
          "duration": 0.19999999999998863
        },
        {
          "name": "E2",
          "midi": 40,
          "time": 244.39999999999915,
          "velocity": 0.7874015748031497,
          "duration": 0.19999999999998863
        },
        {
          "name": "C#3",
          "midi": 49,
          "time": 244.59999999999914,
          "velocity": 0.7874015748031497,
          "duration": 0.4000000000000057
        },
        {
          "name": "F#2",
          "midi": 42,
          "time": 244.59999999999914,
          "velocity": 0.7874015748031497,
          "duration": 0.4000000000000057
        },
        {
          "name": "B2",
          "midi": 47,
          "time": 244.99999999999915,
          "velocity": 0.7874015748031497,
          "duration": 0.19999999999998863
        },
        {
          "name": "E2",
          "midi": 40,
          "time": 244.99999999999915,
          "velocity": 0.7874015748031497,
          "duration": 0.19999999999998863
        },
        {
          "name": "C#3",
          "midi": 49,
          "time": 245.19999999999914,
          "velocity": 0.7874015748031497,
          "duration": 0.4000000000000057
        },
        {
          "name": "F#2",
          "midi": 42,
          "time": 245.19999999999914,
          "velocity": 0.7874015748031497,
          "duration": 0.4000000000000057
        },
        {
          "name": "F#3",
          "midi": 54,
          "time": 245.59999999999914,
          "velocity": 0.7874015748031497,
          "duration": 0.4000000000000057
        },
        {
          "name": "E3",
          "midi": 52,
          "time": 245.99999999999915,
          "velocity": 0.7874015748031497,
          "duration": 0.4000000000000057
        },
        {
          "name": "B2",
          "midi": 47,
          "time": 246.39999999999915,
          "velocity": 0.7874015748031497,
          "duration": 0.4000000000000057
        },
        {
          "name": "E2",
          "midi": 40,
          "time": 246.39999999999915,
          "velocity": 0.7874015748031497,
          "duration": 0.4000000000000057
        },
        {
          "name": "C#3",
          "midi": 49,
          "time": 246.79999999999916,
          "velocity": 0.7874015748031497,
          "duration": 0.4000000000000057
        },
        {
          "name": "F#2",
          "midi": 42,
          "time": 246.79999999999916,
          "velocity": 0.7874015748031497,
          "duration": 0.4000000000000057
        },
        {
          "name": "F#3",
          "midi": 54,
          "time": 247.19999999999916,
          "velocity": 0.7874015748031497,
          "duration": 0.4000000000000057
        },
        {
          "name": "B2",
          "midi": 47,
          "time": 247.59999999999917,
          "velocity": 0.7874015748031497,
          "duration": 0.19999999999998863
        },
        {
          "name": "E2",
          "midi": 40,
          "time": 247.59999999999917,
          "velocity": 0.7874015748031497,
          "duration": 0.19999999999998863
        },
        {
          "name": "C#3",
          "midi": 49,
          "time": 247.79999999999916,
          "velocity": 0.7874015748031497,
          "duration": 0.4000000000000057
        },
        {
          "name": "F#2",
          "midi": 42,
          "time": 247.79999999999916,
          "velocity": 0.7874015748031497,
          "duration": 0.4000000000000057
        },
        {
          "name": "B2",
          "midi": 47,
          "time": 248.19999999999916,
          "velocity": 0.7874015748031497,
          "duration": 0.19999999999998863
        },
        {
          "name": "E2",
          "midi": 40,
          "time": 248.19999999999916,
          "velocity": 0.7874015748031497,
          "duration": 0.19999999999998863
        },
        {
          "name": "C#3",
          "midi": 49,
          "time": 248.39999999999915,
          "velocity": 0.7874015748031497,
          "duration": 0.4000000000000057
        },
        {
          "name": "G#2",
          "midi": 44,
          "time": 248.39999999999915,
          "velocity": 0.7874015748031497,
          "duration": 0.4000000000000057
        },
        {
          "name": "C3",
          "midi": 48,
          "time": 248.79999999999916,
          "velocity": 0.7874015748031497,
          "duration": 0.4000000000000057
        },
        {
          "name": "G2",
          "midi": 43,
          "time": 248.79999999999916,
          "velocity": 0.7874015748031497,
          "duration": 0.4000000000000057
        },
        {
          "name": "B2",
          "midi": 47,
          "time": 249.19999999999916,
          "velocity": 0.7874015748031497,
          "duration": 0.4000000000000057
        },
        {
          "name": "F#2",
          "midi": 42,
          "time": 249.19999999999916,
          "velocity": 0.7874015748031497,
          "duration": 0.4000000000000057
        },
        {
          "name": "C#3",
          "midi": 49,
          "time": 249.59999999999917,
          "velocity": 0.7874015748031497,
          "duration": 1.5999999999999943
        },
        {
          "name": "F#2",
          "midi": 42,
          "time": 249.59999999999917,
          "velocity": 0.7874015748031497,
          "duration": 1.5999999999999943
        }
      ],
      "controlChanges": {
        "1": [
          {
            "number": 1,
            "time": 12.399999999999988,
            "value": 1
          },
          {
            "number": 1,
            "time": 12.799999999999988,
            "value": 0
          },
          {
            "number": 1,
            "time": 25.199999999999946,
            "value": 1
          },
          {
            "number": 1,
            "time": 25.599999999999945,
            "value": 0
          },
          {
            "number": 1,
            "time": 31.599999999999923,
            "value": 1
          },
          {
            "number": 1,
            "time": 31.999999999999922,
            "value": 0
          },
          {
            "number": 1,
            "time": 211.19999999999885,
            "value": 1
          },
          {
            "number": 1,
            "time": 223.99999999999903,
            "value": 0
          }
        ],
        "7": [
          {
            "number": 7,
            "time": 0,
            "value": 1
          }
        ]
      },
      "id": 1,
      "name": "\"Bombtrack\" by RATM",
      "instrumentNumber": 29,
      "instrument": "overdriven guitar",
      "instrumentFamily": "guitar",
      "channelNumber": 0,
      "isPercussion": false
    },
    {
      "startTime": 0,
      "duration": 251.19999999999914,
      "length": 772,
      "notes": [
        {
          "name": "E1",
          "midi": 28,
          "time": 0,
          "velocity": 0.7874015748031497,
          "duration": 0.2
        },
        {
          "name": "E2",
          "midi": 40,
          "time": 0.2,
          "velocity": 0.7874015748031497,
          "duration": 0.2
        },
        {
          "name": "D2",
          "midi": 38,
          "time": 0.4,
          "velocity": 0.7874015748031497,
          "duration": 0.20000000000000007
        },
        {
          "name": "B1",
          "midi": 35,
          "time": 0.6000000000000001,
          "velocity": 0.7874015748031497,
          "duration": 0.19999999999999996
        },
        {
          "name": "D2",
          "midi": 38,
          "time": 0.8,
          "velocity": 0.7874015748031497,
          "duration": 0.19999999999999996
        },
        {
          "name": "B1",
          "midi": 35,
          "time": 1,
          "velocity": 0.7874015748031497,
          "duration": 0.19999999999999996
        },
        {
          "name": "A1",
          "midi": 33,
          "time": 1.2,
          "velocity": 0.7874015748031497,
          "duration": 0.19999999999999996
        },
        {
          "name": "G1",
          "midi": 31,
          "time": 1.4,
          "velocity": 0.7874015748031497,
          "duration": 0.19999999999999996
        },
        {
          "name": "E1",
          "midi": 28,
          "time": 1.5999999999999999,
          "velocity": 0.7874015748031497,
          "duration": 0.19999999999999996
        },
        {
          "name": "E2",
          "midi": 40,
          "time": 1.7999999999999998,
          "velocity": 0.7874015748031497,
          "duration": 0.19999999999999996
        },
        {
          "name": "D2",
          "midi": 38,
          "time": 1.9999999999999998,
          "velocity": 0.7874015748031497,
          "duration": 0.19999999999999996
        },
        {
          "name": "B1",
          "midi": 35,
          "time": 2.1999999999999997,
          "velocity": 0.7874015748031497,
          "duration": 0.20000000000000018
        },
        {
          "name": "D2",
          "midi": 38,
          "time": 2.4,
          "velocity": 0.7874015748031497,
          "duration": 0.20000000000000018
        },
        {
          "name": "B1",
          "midi": 35,
          "time": 2.6,
          "velocity": 0.7874015748031497,
          "duration": 0.20000000000000018
        },
        {
          "name": "A1",
          "midi": 33,
          "time": 2.8000000000000003,
          "velocity": 0.7874015748031497,
          "duration": 0.20000000000000018
        },
        {
          "name": "G1",
          "midi": 31,
          "time": 3.0000000000000004,
          "velocity": 0.7874015748031497,
          "duration": 0.20000000000000018
        },
        {
          "name": "E1",
          "midi": 28,
          "time": 3.2000000000000006,
          "velocity": 0.7874015748031497,
          "duration": 0.20000000000000018
        },
        {
          "name": "E2",
          "midi": 40,
          "time": 3.400000000000001,
          "velocity": 0.7874015748031497,
          "duration": 0.20000000000000018
        },
        {
          "name": "D2",
          "midi": 38,
          "time": 3.600000000000001,
          "velocity": 0.7874015748031497,
          "duration": 0.20000000000000018
        },
        {
          "name": "B1",
          "midi": 35,
          "time": 3.800000000000001,
          "velocity": 0.7874015748031497,
          "duration": 0.19999999999999973
        },
        {
          "name": "D2",
          "midi": 38,
          "time": 4.000000000000001,
          "velocity": 0.7874015748031497,
          "duration": 0.20000000000000018
        },
        {
          "name": "B1",
          "midi": 35,
          "time": 4.200000000000001,
          "velocity": 0.7874015748031497,
          "duration": 0.20000000000000018
        },
        {
          "name": "A1",
          "midi": 33,
          "time": 4.400000000000001,
          "velocity": 0.7874015748031497,
          "duration": 0.20000000000000018
        },
        {
          "name": "G1",
          "midi": 31,
          "time": 4.600000000000001,
          "velocity": 0.7874015748031497,
          "duration": 0.20000000000000018
        },
        {
          "name": "E1",
          "midi": 28,
          "time": 4.800000000000002,
          "velocity": 0.7874015748031497,
          "duration": 0.20000000000000018
        },
        {
          "name": "E2",
          "midi": 40,
          "time": 5.000000000000002,
          "velocity": 0.7874015748031497,
          "duration": 0.20000000000000018
        },
        {
          "name": "D2",
          "midi": 38,
          "time": 5.200000000000002,
          "velocity": 0.7874015748031497,
          "duration": 0.20000000000000018
        },
        {
          "name": "B1",
          "midi": 35,
          "time": 5.400000000000002,
          "velocity": 0.7874015748031497,
          "duration": 0.20000000000000018
        },
        {
          "name": "D2",
          "midi": 38,
          "time": 5.600000000000002,
          "velocity": 0.7874015748031497,
          "duration": 0.20000000000000018
        },
        {
          "name": "E2",
          "midi": 40,
          "time": 5.8000000000000025,
          "velocity": 0.7874015748031497,
          "duration": 0.20000000000000018
        },
        {
          "name": "G2",
          "midi": 43,
          "time": 6.000000000000003,
          "velocity": 0.7874015748031497,
          "duration": 0.40000000000000036
        },
        {
          "name": "E1",
          "midi": 28,
          "time": 6.400000000000003,
          "velocity": 0.7874015748031497,
          "duration": 0.20000000000000018
        },
        {
          "name": "E2",
          "midi": 40,
          "time": 6.600000000000003,
          "velocity": 0.7874015748031497,
          "duration": 0.20000000000000018
        },
        {
          "name": "D2",
          "midi": 38,
          "time": 6.800000000000003,
          "velocity": 0.7874015748031497,
          "duration": 0.20000000000000018
        },
        {
          "name": "B1",
          "midi": 35,
          "time": 7.0000000000000036,
          "velocity": 0.7874015748031497,
          "duration": 0.20000000000000018
        },
        {
          "name": "D2",
          "midi": 38,
          "time": 7.200000000000004,
          "velocity": 0.7874015748031497,
          "duration": 0.20000000000000018
        },
        {
          "name": "B1",
          "midi": 35,
          "time": 7.400000000000004,
          "velocity": 0.7874015748031497,
          "duration": 0.20000000000000018
        },
        {
          "name": "A1",
          "midi": 33,
          "time": 7.600000000000004,
          "velocity": 0.7874015748031497,
          "duration": 0.20000000000000018
        },
        {
          "name": "G1",
          "midi": 31,
          "time": 7.800000000000004,
          "velocity": 0.7874015748031497,
          "duration": 0.1999999999999993
        },
        {
          "name": "E1",
          "midi": 28,
          "time": 8.000000000000004,
          "velocity": 0.7874015748031497,
          "duration": 0.1999999999999993
        },
        {
          "name": "E2",
          "midi": 40,
          "time": 8.200000000000003,
          "velocity": 0.7874015748031497,
          "duration": 0.1999999999999993
        },
        {
          "name": "D2",
          "midi": 38,
          "time": 8.400000000000002,
          "velocity": 0.7874015748031497,
          "duration": 0.1999999999999993
        },
        {
          "name": "B1",
          "midi": 35,
          "time": 8.600000000000001,
          "velocity": 0.7874015748031497,
          "duration": 0.1999999999999993
        },
        {
          "name": "D2",
          "midi": 38,
          "time": 8.8,
          "velocity": 0.7874015748031497,
          "duration": 0.1999999999999993
        },
        {
          "name": "B1",
          "midi": 35,
          "time": 9,
          "velocity": 0.7874015748031497,
          "duration": 0.1999999999999993
        },
        {
          "name": "A1",
          "midi": 33,
          "time": 9.2,
          "velocity": 0.7874015748031497,
          "duration": 0.1999999999999993
        },
        {
          "name": "G1",
          "midi": 31,
          "time": 9.399999999999999,
          "velocity": 0.7874015748031497,
          "duration": 0.1999999999999993
        },
        {
          "name": "E1",
          "midi": 28,
          "time": 9.599999999999998,
          "velocity": 0.7874015748031497,
          "duration": 0.1999999999999993
        },
        {
          "name": "E2",
          "midi": 40,
          "time": 9.799999999999997,
          "velocity": 0.7874015748031497,
          "duration": 0.1999999999999993
        },
        {
          "name": "D2",
          "midi": 38,
          "time": 9.999999999999996,
          "velocity": 0.7874015748031497,
          "duration": 0.1999999999999993
        },
        {
          "name": "B1",
          "midi": 35,
          "time": 10.199999999999996,
          "velocity": 0.7874015748031497,
          "duration": 0.1999999999999993
        },
        {
          "name": "D2",
          "midi": 38,
          "time": 10.399999999999995,
          "velocity": 0.7874015748031497,
          "duration": 0.1999999999999993
        },
        {
          "name": "B1",
          "midi": 35,
          "time": 10.599999999999994,
          "velocity": 0.7874015748031497,
          "duration": 0.1999999999999993
        },
        {
          "name": "A1",
          "midi": 33,
          "time": 10.799999999999994,
          "velocity": 0.7874015748031497,
          "duration": 0.1999999999999993
        },
        {
          "name": "G1",
          "midi": 31,
          "time": 10.999999999999993,
          "velocity": 0.7874015748031497,
          "duration": 0.1999999999999993
        },
        {
          "name": "E1",
          "midi": 28,
          "time": 11.199999999999992,
          "velocity": 0.7874015748031497,
          "duration": 0.1999999999999993
        },
        {
          "name": "E2",
          "midi": 40,
          "time": 11.399999999999991,
          "velocity": 0.7874015748031497,
          "duration": 0.1999999999999993
        },
        {
          "name": "D2",
          "midi": 38,
          "time": 11.59999999999999,
          "velocity": 0.7874015748031497,
          "duration": 0.1999999999999993
        },
        {
          "name": "B1",
          "midi": 35,
          "time": 11.79999999999999,
          "velocity": 0.7874015748031497,
          "duration": 0.1999999999999993
        },
        {
          "name": "D2",
          "midi": 38,
          "time": 11.99999999999999,
          "velocity": 0.7874015748031497,
          "duration": 0.1999999999999993
        },
        {
          "name": "E2",
          "midi": 40,
          "time": 12.199999999999989,
          "velocity": 0.7874015748031497,
          "duration": 0.1999999999999993
        },
        {
          "name": "G2",
          "midi": 43,
          "time": 12.399999999999988,
          "velocity": 0.7874015748031497,
          "duration": 0.40000000000000036
        },
        {
          "name": "E1",
          "midi": 28,
          "time": 12.799999999999988,
          "velocity": 0.7874015748031497,
          "duration": 0.1999999999999993
        },
        {
          "name": "E2",
          "midi": 40,
          "time": 12.999999999999988,
          "velocity": 0.7874015748031497,
          "duration": 0.1999999999999993
        },
        {
          "name": "D2",
          "midi": 38,
          "time": 13.199999999999987,
          "velocity": 0.7874015748031497,
          "duration": 0.1999999999999993
        },
        {
          "name": "B1",
          "midi": 35,
          "time": 13.399999999999986,
          "velocity": 0.7874015748031497,
          "duration": 0.1999999999999993
        },
        {
          "name": "D2",
          "midi": 38,
          "time": 13.599999999999985,
          "velocity": 0.7874015748031497,
          "duration": 0.1999999999999993
        },
        {
          "name": "B1",
          "midi": 35,
          "time": 13.799999999999985,
          "velocity": 0.7874015748031497,
          "duration": 0.1999999999999993
        },
        {
          "name": "A1",
          "midi": 33,
          "time": 13.999999999999984,
          "velocity": 0.7874015748031497,
          "duration": 0.1999999999999993
        },
        {
          "name": "G1",
          "midi": 31,
          "time": 14.199999999999983,
          "velocity": 0.7874015748031497,
          "duration": 0.1999999999999993
        },
        {
          "name": "E1",
          "midi": 28,
          "time": 14.399999999999983,
          "velocity": 0.7874015748031497,
          "duration": 0.1999999999999993
        },
        {
          "name": "E2",
          "midi": 40,
          "time": 14.599999999999982,
          "velocity": 0.7874015748031497,
          "duration": 0.1999999999999993
        },
        {
          "name": "D2",
          "midi": 38,
          "time": 14.799999999999981,
          "velocity": 0.7874015748031497,
          "duration": 0.1999999999999993
        },
        {
          "name": "B1",
          "midi": 35,
          "time": 14.99999999999998,
          "velocity": 0.7874015748031497,
          "duration": 0.1999999999999993
        },
        {
          "name": "D2",
          "midi": 38,
          "time": 15.19999999999998,
          "velocity": 0.7874015748031497,
          "duration": 0.1999999999999993
        },
        {
          "name": "B1",
          "midi": 35,
          "time": 15.399999999999979,
          "velocity": 0.7874015748031497,
          "duration": 0.1999999999999993
        },
        {
          "name": "A1",
          "midi": 33,
          "time": 15.599999999999978,
          "velocity": 0.7874015748031497,
          "duration": 0.1999999999999993
        },
        {
          "name": "G1",
          "midi": 31,
          "time": 15.799999999999978,
          "velocity": 0.7874015748031497,
          "duration": 0.1999999999999993
        },
        {
          "name": "E1",
          "midi": 28,
          "time": 15.999999999999977,
          "velocity": 0.7874015748031497,
          "duration": 0.20000000000000107
        },
        {
          "name": "E2",
          "midi": 40,
          "time": 16.199999999999978,
          "velocity": 0.7874015748031497,
          "duration": 0.1999999999999993
        },
        {
          "name": "D2",
          "midi": 38,
          "time": 16.399999999999977,
          "velocity": 0.7874015748031497,
          "duration": 0.1999999999999993
        },
        {
          "name": "B1",
          "midi": 35,
          "time": 16.599999999999977,
          "velocity": 0.7874015748031497,
          "duration": 0.1999999999999993
        },
        {
          "name": "D2",
          "midi": 38,
          "time": 16.799999999999976,
          "velocity": 0.7874015748031497,
          "duration": 0.1999999999999993
        },
        {
          "name": "B1",
          "midi": 35,
          "time": 16.999999999999975,
          "velocity": 0.7874015748031497,
          "duration": 0.1999999999999993
        },
        {
          "name": "A1",
          "midi": 33,
          "time": 17.199999999999974,
          "velocity": 0.7874015748031497,
          "duration": 0.1999999999999993
        },
        {
          "name": "G1",
          "midi": 31,
          "time": 17.399999999999974,
          "velocity": 0.7874015748031497,
          "duration": 0.1999999999999993
        },
        {
          "name": "E1",
          "midi": 28,
          "time": 17.599999999999973,
          "velocity": 0.7874015748031497,
          "duration": 0.1999999999999993
        },
        {
          "name": "E2",
          "midi": 40,
          "time": 17.799999999999972,
          "velocity": 0.7874015748031497,
          "duration": 0.1999999999999993
        },
        {
          "name": "D2",
          "midi": 38,
          "time": 17.99999999999997,
          "velocity": 0.7874015748031497,
          "duration": 0.1999999999999993
        },
        {
          "name": "B1",
          "midi": 35,
          "time": 18.19999999999997,
          "velocity": 0.7874015748031497,
          "duration": 0.1999999999999993
        },
        {
          "name": "D2",
          "midi": 38,
          "time": 18.39999999999997,
          "velocity": 0.7874015748031497,
          "duration": 0.1999999999999993
        },
        {
          "name": "E2",
          "midi": 40,
          "time": 18.59999999999997,
          "velocity": 0.7874015748031497,
          "duration": 0.1999999999999993
        },
        {
          "name": "G2",
          "midi": 43,
          "time": 18.79999999999997,
          "velocity": 0.7874015748031497,
          "duration": 0.3999999999999986
        },
        {
          "name": "E1",
          "midi": 28,
          "time": 19.199999999999967,
          "velocity": 0.7874015748031497,
          "duration": 0.1999999999999993
        },
        {
          "name": "E2",
          "midi": 40,
          "time": 19.399999999999967,
          "velocity": 0.7874015748031497,
          "duration": 0.1999999999999993
        },
        {
          "name": "D2",
          "midi": 38,
          "time": 19.599999999999966,
          "velocity": 0.7874015748031497,
          "duration": 0.1999999999999993
        },
        {
          "name": "B1",
          "midi": 35,
          "time": 19.799999999999965,
          "velocity": 0.7874015748031497,
          "duration": 0.1999999999999993
        },
        {
          "name": "D2",
          "midi": 38,
          "time": 19.999999999999964,
          "velocity": 0.7874015748031497,
          "duration": 0.1999999999999993
        },
        {
          "name": "B1",
          "midi": 35,
          "time": 20.199999999999964,
          "velocity": 0.7874015748031497,
          "duration": 0.1999999999999993
        },
        {
          "name": "A1",
          "midi": 33,
          "time": 20.399999999999963,
          "velocity": 0.7874015748031497,
          "duration": 0.1999999999999993
        },
        {
          "name": "G1",
          "midi": 31,
          "time": 20.599999999999962,
          "velocity": 0.7874015748031497,
          "duration": 0.1999999999999993
        },
        {
          "name": "E1",
          "midi": 28,
          "time": 20.79999999999996,
          "velocity": 0.7874015748031497,
          "duration": 0.1999999999999993
        },
        {
          "name": "E2",
          "midi": 40,
          "time": 20.99999999999996,
          "velocity": 0.7874015748031497,
          "duration": 0.1999999999999993
        },
        {
          "name": "D2",
          "midi": 38,
          "time": 21.19999999999996,
          "velocity": 0.7874015748031497,
          "duration": 0.1999999999999993
        },
        {
          "name": "B1",
          "midi": 35,
          "time": 21.39999999999996,
          "velocity": 0.7874015748031497,
          "duration": 0.1999999999999993
        },
        {
          "name": "D2",
          "midi": 38,
          "time": 21.59999999999996,
          "velocity": 0.7874015748031497,
          "duration": 0.1999999999999993
        },
        {
          "name": "B1",
          "midi": 35,
          "time": 21.799999999999958,
          "velocity": 0.7874015748031497,
          "duration": 0.1999999999999993
        },
        {
          "name": "A1",
          "midi": 33,
          "time": 21.999999999999957,
          "velocity": 0.7874015748031497,
          "duration": 0.1999999999999993
        },
        {
          "name": "G1",
          "midi": 31,
          "time": 22.199999999999957,
          "velocity": 0.7874015748031497,
          "duration": 0.1999999999999993
        },
        {
          "name": "E1",
          "midi": 28,
          "time": 22.399999999999956,
          "velocity": 0.7874015748031497,
          "duration": 0.1999999999999993
        },
        {
          "name": "E2",
          "midi": 40,
          "time": 22.599999999999955,
          "velocity": 0.7874015748031497,
          "duration": 0.1999999999999993
        },
        {
          "name": "D2",
          "midi": 38,
          "time": 22.799999999999955,
          "velocity": 0.7874015748031497,
          "duration": 0.1999999999999993
        },
        {
          "name": "B1",
          "midi": 35,
          "time": 22.999999999999954,
          "velocity": 0.7874015748031497,
          "duration": 0.1999999999999993
        },
        {
          "name": "D2",
          "midi": 38,
          "time": 23.199999999999953,
          "velocity": 0.7874015748031497,
          "duration": 0.1999999999999993
        },
        {
          "name": "B1",
          "midi": 35,
          "time": 23.399999999999952,
          "velocity": 0.7874015748031497,
          "duration": 0.1999999999999993
        },
        {
          "name": "A1",
          "midi": 33,
          "time": 23.59999999999995,
          "velocity": 0.7874015748031497,
          "duration": 0.1999999999999993
        },
        {
          "name": "G1",
          "midi": 31,
          "time": 23.79999999999995,
          "velocity": 0.7874015748031497,
          "duration": 0.1999999999999993
        },
        {
          "name": "E1",
          "midi": 28,
          "time": 23.99999999999995,
          "velocity": 0.7874015748031497,
          "duration": 0.1999999999999993
        },
        {
          "name": "E2",
          "midi": 40,
          "time": 24.19999999999995,
          "velocity": 0.7874015748031497,
          "duration": 0.1999999999999993
        },
        {
          "name": "D2",
          "midi": 38,
          "time": 24.39999999999995,
          "velocity": 0.7874015748031497,
          "duration": 0.1999999999999993
        },
        {
          "name": "B1",
          "midi": 35,
          "time": 24.599999999999948,
          "velocity": 0.7874015748031497,
          "duration": 0.1999999999999993
        },
        {
          "name": "D2",
          "midi": 38,
          "time": 24.799999999999947,
          "velocity": 0.7874015748031497,
          "duration": 0.1999999999999993
        },
        {
          "name": "E2",
          "midi": 40,
          "time": 24.999999999999947,
          "velocity": 0.7874015748031497,
          "duration": 0.1999999999999993
        },
        {
          "name": "G2",
          "midi": 43,
          "time": 25.199999999999946,
          "velocity": 0.7874015748031497,
          "duration": 0.3999999999999986
        },
        {
          "name": "E1",
          "midi": 28,
          "time": 25.599999999999945,
          "velocity": 0.7874015748031497,
          "duration": 0.1999999999999993
        },
        {
          "name": "E2",
          "midi": 40,
          "time": 25.799999999999944,
          "velocity": 0.7874015748031497,
          "duration": 0.1999999999999993
        },
        {
          "name": "D2",
          "midi": 38,
          "time": 25.999999999999943,
          "velocity": 0.7874015748031497,
          "duration": 0.1999999999999993
        },
        {
          "name": "B1",
          "midi": 35,
          "time": 26.199999999999942,
          "velocity": 0.7874015748031497,
          "duration": 0.1999999999999993
        },
        {
          "name": "D2",
          "midi": 38,
          "time": 26.39999999999994,
          "velocity": 0.7874015748031497,
          "duration": 0.1999999999999993
        },
        {
          "name": "B1",
          "midi": 35,
          "time": 26.59999999999994,
          "velocity": 0.7874015748031497,
          "duration": 0.1999999999999993
        },
        {
          "name": "A1",
          "midi": 33,
          "time": 26.79999999999994,
          "velocity": 0.7874015748031497,
          "duration": 0.1999999999999993
        },
        {
          "name": "G1",
          "midi": 31,
          "time": 26.99999999999994,
          "velocity": 0.7874015748031497,
          "duration": 0.1999999999999993
        },
        {
          "name": "E1",
          "midi": 28,
          "time": 27.19999999999994,
          "velocity": 0.7874015748031497,
          "duration": 0.1999999999999993
        },
        {
          "name": "E2",
          "midi": 40,
          "time": 27.399999999999938,
          "velocity": 0.7874015748031497,
          "duration": 0.1999999999999993
        },
        {
          "name": "D2",
          "midi": 38,
          "time": 27.599999999999937,
          "velocity": 0.7874015748031497,
          "duration": 0.1999999999999993
        },
        {
          "name": "B1",
          "midi": 35,
          "time": 27.799999999999937,
          "velocity": 0.7874015748031497,
          "duration": 0.1999999999999993
        },
        {
          "name": "D2",
          "midi": 38,
          "time": 27.999999999999936,
          "velocity": 0.7874015748031497,
          "duration": 0.1999999999999993
        },
        {
          "name": "B1",
          "midi": 35,
          "time": 28.199999999999935,
          "velocity": 0.7874015748031497,
          "duration": 0.1999999999999993
        },
        {
          "name": "A1",
          "midi": 33,
          "time": 28.399999999999935,
          "velocity": 0.7874015748031497,
          "duration": 0.1999999999999993
        },
        {
          "name": "G1",
          "midi": 31,
          "time": 28.599999999999934,
          "velocity": 0.7874015748031497,
          "duration": 0.1999999999999993
        },
        {
          "name": "E1",
          "midi": 28,
          "time": 28.799999999999933,
          "velocity": 0.7874015748031497,
          "duration": 0.1999999999999993
        },
        {
          "name": "E2",
          "midi": 40,
          "time": 28.999999999999932,
          "velocity": 0.7874015748031497,
          "duration": 0.1999999999999993
        },
        {
          "name": "D2",
          "midi": 38,
          "time": 29.199999999999932,
          "velocity": 0.7874015748031497,
          "duration": 0.1999999999999993
        },
        {
          "name": "B1",
          "midi": 35,
          "time": 29.39999999999993,
          "velocity": 0.7874015748031497,
          "duration": 0.1999999999999993
        },
        {
          "name": "D2",
          "midi": 38,
          "time": 29.59999999999993,
          "velocity": 0.7874015748031497,
          "duration": 0.1999999999999993
        },
        {
          "name": "B1",
          "midi": 35,
          "time": 29.79999999999993,
          "velocity": 0.7874015748031497,
          "duration": 0.1999999999999993
        },
        {
          "name": "A1",
          "midi": 33,
          "time": 29.99999999999993,
          "velocity": 0.7874015748031497,
          "duration": 0.1999999999999993
        },
        {
          "name": "G1",
          "midi": 31,
          "time": 30.19999999999993,
          "velocity": 0.7874015748031497,
          "duration": 0.1999999999999993
        },
        {
          "name": "E1",
          "midi": 28,
          "time": 30.399999999999928,
          "velocity": 0.7874015748031497,
          "duration": 0.1999999999999993
        },
        {
          "name": "E2",
          "midi": 40,
          "time": 30.599999999999927,
          "velocity": 0.7874015748031497,
          "duration": 0.1999999999999993
        },
        {
          "name": "D2",
          "midi": 38,
          "time": 30.799999999999926,
          "velocity": 0.7874015748031497,
          "duration": 0.1999999999999993
        },
        {
          "name": "B1",
          "midi": 35,
          "time": 30.999999999999925,
          "velocity": 0.7874015748031497,
          "duration": 0.1999999999999993
        },
        {
          "name": "D2",
          "midi": 38,
          "time": 31.199999999999925,
          "velocity": 0.7874015748031497,
          "duration": 0.1999999999999993
        },
        {
          "name": "E2",
          "midi": 40,
          "time": 31.399999999999924,
          "velocity": 0.7874015748031497,
          "duration": 0.1999999999999993
        },
        {
          "name": "G2",
          "midi": 43,
          "time": 31.599999999999923,
          "velocity": 0.7874015748031497,
          "duration": 0.3999999999999986
        },
        {
          "name": "E1",
          "midi": 28,
          "time": 31.999999999999922,
          "velocity": 0.7874015748031497,
          "duration": 0.20000000000000284
        },
        {
          "name": "E2",
          "midi": 40,
          "time": 32.199999999999925,
          "velocity": 0.7874015748031497,
          "duration": 0.20000000000000284
        },
        {
          "name": "D2",
          "midi": 38,
          "time": 32.39999999999993,
          "velocity": 0.7874015748031497,
          "duration": 0.20000000000000284
        },
        {
          "name": "B1",
          "midi": 35,
          "time": 32.59999999999993,
          "velocity": 0.7874015748031497,
          "duration": 0.20000000000000284
        },
        {
          "name": "D2",
          "midi": 38,
          "time": 32.79999999999993,
          "velocity": 0.7874015748031497,
          "duration": 0.20000000000000284
        },
        {
          "name": "B1",
          "midi": 35,
          "time": 32.999999999999936,
          "velocity": 0.7874015748031497,
          "duration": 0.20000000000000284
        },
        {
          "name": "A1",
          "midi": 33,
          "time": 33.19999999999994,
          "velocity": 0.7874015748031497,
          "duration": 0.20000000000000284
        },
        {
          "name": "G1",
          "midi": 31,
          "time": 33.39999999999994,
          "velocity": 0.7874015748031497,
          "duration": 0.20000000000000284
        },
        {
          "name": "E1",
          "midi": 28,
          "time": 33.599999999999945,
          "velocity": 0.7874015748031497,
          "duration": 0.20000000000000284
        },
        {
          "name": "E1",
          "midi": 28,
          "time": 33.79999999999995,
          "velocity": 0.7874015748031497,
          "duration": 0.20000000000000284
        },
        {
          "name": "E1",
          "midi": 28,
          "time": 33.99999999999995,
          "velocity": 0.7874015748031497,
          "duration": 0.20000000000000284
        },
        {
          "name": "E1",
          "midi": 28,
          "time": 34.19999999999995,
          "velocity": 0.7874015748031497,
          "duration": 0.20000000000000284
        },
        {
          "name": "E1",
          "midi": 28,
          "time": 34.399999999999956,
          "velocity": 0.7874015748031497,
          "duration": 0.20000000000000284
        },
        {
          "name": "E1",
          "midi": 28,
          "time": 34.59999999999996,
          "velocity": 0.7874015748031497,
          "duration": 0.20000000000000284
        },
        {
          "name": "E1",
          "midi": 28,
          "time": 34.79999999999996,
          "velocity": 0.7874015748031497,
          "duration": 0.20000000000000284
        },
        {
          "name": "E1",
          "midi": 28,
          "time": 34.999999999999964,
          "velocity": 0.7874015748031497,
          "duration": 0.20000000000000284
        },
        {
          "name": "E1",
          "midi": 28,
          "time": 35.19999999999997,
          "velocity": 0.7874015748031497,
          "duration": 0.3999999999999986
        },
        {
          "name": "E1",
          "midi": 28,
          "time": 35.19999999999997,
          "velocity": 0.7874015748031497,
          "duration": 0.3999999999999986
        },
        {
          "name": "F#1",
          "midi": 30,
          "time": 35.599999999999966,
          "velocity": 0.7874015748031497,
          "duration": 0.3999999999999986
        },
        {
          "name": "F#2",
          "midi": 42,
          "time": 35.999999999999964,
          "velocity": 0.7874015748031497,
          "duration": 0.3999999999999986
        },
        {
          "name": "E1",
          "midi": 28,
          "time": 36.39999999999996,
          "velocity": 0.7874015748031497,
          "duration": 0.20000000000000284
        },
        {
          "name": "F#1",
          "midi": 30,
          "time": 36.599999999999966,
          "velocity": 0.7874015748031497,
          "duration": 0.3999999999999986
        },
        {
          "name": "E1",
          "midi": 28,
          "time": 36.999999999999964,
          "velocity": 0.7874015748031497,
          "duration": 0.20000000000000284
        },
        {
          "name": "F#1",
          "midi": 30,
          "time": 37.19999999999997,
          "velocity": 0.7874015748031497,
          "duration": 0.3999999999999986
        },
        {
          "name": "F#2",
          "midi": 42,
          "time": 37.599999999999966,
          "velocity": 0.7874015748031497,
          "duration": 0.3999999999999986
        },
        {
          "name": "E2",
          "midi": 40,
          "time": 37.999999999999964,
          "velocity": 0.7874015748031497,
          "duration": 0.3999999999999986
        },
        {
          "name": "E1",
          "midi": 28,
          "time": 38.39999999999996,
          "velocity": 0.7874015748031497,
          "duration": 0.3999999999999986
        },
        {
          "name": "E1",
          "midi": 28,
          "time": 38.39999999999996,
          "velocity": 0.7874015748031497,
          "duration": 0.3999999999999986
        },
        {
          "name": "F#1",
          "midi": 30,
          "time": 38.79999999999996,
          "velocity": 0.7874015748031497,
          "duration": 0.3999999999999986
        },
        {
          "name": "F#2",
          "midi": 42,
          "time": 39.19999999999996,
          "velocity": 0.7874015748031497,
          "duration": 0.3999999999999986
        },
        {
          "name": "E1",
          "midi": 28,
          "time": 39.59999999999996,
          "velocity": 0.7874015748031497,
          "duration": 0.20000000000000284
        },
        {
          "name": "F#1",
          "midi": 30,
          "time": 39.79999999999996,
          "velocity": 0.7874015748031497,
          "duration": 0.3999999999999986
        },
        {
          "name": "E1",
          "midi": 28,
          "time": 40.19999999999996,
          "velocity": 0.7874015748031497,
          "duration": 0.20000000000000284
        },
        {
          "name": "C#2",
          "midi": 37,
          "time": 40.39999999999996,
          "velocity": 0.7874015748031497,
          "duration": 0.3999999999999986
        },
        {
          "name": "C2",
          "midi": 36,
          "time": 40.79999999999996,
          "velocity": 0.7874015748031497,
          "duration": 0.3999999999999986
        },
        {
          "name": "B1",
          "midi": 35,
          "time": 41.19999999999996,
          "velocity": 0.7874015748031497,
          "duration": 0.3999999999999986
        },
        {
          "name": "E1",
          "midi": 28,
          "time": 41.59999999999996,
          "velocity": 0.7874015748031497,
          "duration": 0.3999999999999986
        },
        {
          "name": "E1",
          "midi": 28,
          "time": 41.59999999999996,
          "velocity": 0.7874015748031497,
          "duration": 0.3999999999999986
        },
        {
          "name": "F#1",
          "midi": 30,
          "time": 41.99999999999996,
          "velocity": 0.7874015748031497,
          "duration": 0.3999999999999986
        },
        {
          "name": "F#2",
          "midi": 42,
          "time": 42.399999999999956,
          "velocity": 0.7874015748031497,
          "duration": 0.3999999999999986
        },
        {
          "name": "E1",
          "midi": 28,
          "time": 42.799999999999955,
          "velocity": 0.7874015748031497,
          "duration": 0.20000000000000284
        },
        {
          "name": "F#1",
          "midi": 30,
          "time": 42.99999999999996,
          "velocity": 0.7874015748031497,
          "duration": 0.3999999999999986
        },
        {
          "name": "E1",
          "midi": 28,
          "time": 43.399999999999956,
          "velocity": 0.7874015748031497,
          "duration": 0.20000000000000284
        },
        {
          "name": "F#1",
          "midi": 30,
          "time": 43.59999999999996,
          "velocity": 0.7874015748031497,
          "duration": 0.3999999999999986
        },
        {
          "name": "F#2",
          "midi": 42,
          "time": 43.99999999999996,
          "velocity": 0.7874015748031497,
          "duration": 0.3999999999999986
        },
        {
          "name": "E2",
          "midi": 40,
          "time": 44.399999999999956,
          "velocity": 0.7874015748031497,
          "duration": 0.3999999999999986
        },
        {
          "name": "E1",
          "midi": 28,
          "time": 44.799999999999955,
          "velocity": 0.7874015748031497,
          "duration": 0.3999999999999986
        },
        {
          "name": "E1",
          "midi": 28,
          "time": 44.799999999999955,
          "velocity": 0.7874015748031497,
          "duration": 0.3999999999999986
        },
        {
          "name": "F#1",
          "midi": 30,
          "time": 45.19999999999995,
          "velocity": 0.7874015748031497,
          "duration": 0.3999999999999986
        },
        {
          "name": "F#2",
          "midi": 42,
          "time": 45.59999999999995,
          "velocity": 0.7874015748031497,
          "duration": 0.3999999999999986
        },
        {
          "name": "E1",
          "midi": 28,
          "time": 45.99999999999995,
          "velocity": 0.7874015748031497,
          "duration": 0.20000000000000284
        },
        {
          "name": "F#1",
          "midi": 30,
          "time": 46.19999999999995,
          "velocity": 0.7874015748031497,
          "duration": 0.3999999999999986
        },
        {
          "name": "E1",
          "midi": 28,
          "time": 46.59999999999995,
          "velocity": 0.7874015748031497,
          "duration": 0.20000000000000284
        },
        {
          "name": "C#2",
          "midi": 37,
          "time": 46.799999999999955,
          "velocity": 0.7874015748031497,
          "duration": 0.3999999999999986
        },
        {
          "name": "C2",
          "midi": 36,
          "time": 47.19999999999995,
          "velocity": 0.7874015748031497,
          "duration": 0.3999999999999986
        },
        {
          "name": "B1",
          "midi": 35,
          "time": 47.59999999999995,
          "velocity": 0.7874015748031497,
          "duration": 0.3999999999999986
        },
        {
          "name": "E1",
          "midi": 28,
          "time": 47.99999999999995,
          "velocity": 0.7874015748031497,
          "duration": 0.3999999999999986
        },
        {
          "name": "E1",
          "midi": 28,
          "time": 47.99999999999995,
          "velocity": 0.7874015748031497,
          "duration": 0.3999999999999986
        },
        {
          "name": "F#1",
          "midi": 30,
          "time": 48.39999999999995,
          "velocity": 0.7874015748031497,
          "duration": 0.3999999999999986
        },
        {
          "name": "F#2",
          "midi": 42,
          "time": 48.79999999999995,
          "velocity": 0.7874015748031497,
          "duration": 0.3999999999999986
        },
        {
          "name": "E1",
          "midi": 28,
          "time": 49.199999999999946,
          "velocity": 0.7874015748031497,
          "duration": 0.20000000000000284
        },
        {
          "name": "F#1",
          "midi": 30,
          "time": 49.39999999999995,
          "velocity": 0.7874015748031497,
          "duration": 0.3999999999999986
        },
        {
          "name": "E1",
          "midi": 28,
          "time": 49.79999999999995,
          "velocity": 0.7874015748031497,
          "duration": 0.20000000000000284
        },
        {
          "name": "F#1",
          "midi": 30,
          "time": 49.99999999999995,
          "velocity": 0.7874015748031497,
          "duration": 0.3999999999999986
        },
        {
          "name": "F#2",
          "midi": 42,
          "time": 50.39999999999995,
          "velocity": 0.7874015748031497,
          "duration": 0.3999999999999986
        },
        {
          "name": "E2",
          "midi": 40,
          "time": 50.79999999999995,
          "velocity": 0.7874015748031497,
          "duration": 0.3999999999999986
        },
        {
          "name": "E1",
          "midi": 28,
          "time": 51.199999999999946,
          "velocity": 0.7874015748031497,
          "duration": 0.3999999999999986
        },
        {
          "name": "E1",
          "midi": 28,
          "time": 51.199999999999946,
          "velocity": 0.7874015748031497,
          "duration": 0.3999999999999986
        },
        {
          "name": "F#1",
          "midi": 30,
          "time": 51.599999999999945,
          "velocity": 0.7874015748031497,
          "duration": 0.3999999999999986
        },
        {
          "name": "F#2",
          "midi": 42,
          "time": 51.99999999999994,
          "velocity": 0.7874015748031497,
          "duration": 0.3999999999999986
        },
        {
          "name": "E1",
          "midi": 28,
          "time": 52.39999999999994,
          "velocity": 0.7874015748031497,
          "duration": 0.20000000000000284
        },
        {
          "name": "F#1",
          "midi": 30,
          "time": 52.599999999999945,
          "velocity": 0.7874015748031497,
          "duration": 0.3999999999999986
        },
        {
          "name": "E1",
          "midi": 28,
          "time": 52.99999999999994,
          "velocity": 0.7874015748031497,
          "duration": 0.20000000000000284
        },
        {
          "name": "C#2",
          "midi": 37,
          "time": 53.199999999999946,
          "velocity": 0.7874015748031497,
          "duration": 0.3999999999999986
        },
        {
          "name": "C2",
          "midi": 36,
          "time": 53.599999999999945,
          "velocity": 0.7874015748031497,
          "duration": 0.3999999999999986
        },
        {
          "name": "B1",
          "midi": 35,
          "time": 53.99999999999994,
          "velocity": 0.7874015748031497,
          "duration": 0.3999999999999986
        },
        {
          "name": "E1",
          "midi": 28,
          "time": 54.39999999999994,
          "velocity": 0.7874015748031497,
          "duration": 0.3999999999999986
        },
        {
          "name": "E1",
          "midi": 28,
          "time": 54.39999999999994,
          "velocity": 0.7874015748031497,
          "duration": 0.3999999999999986
        },
        {
          "name": "F#1",
          "midi": 30,
          "time": 54.79999999999994,
          "velocity": 0.7874015748031497,
          "duration": 0.3999999999999986
        },
        {
          "name": "F#2",
          "midi": 42,
          "time": 55.19999999999994,
          "velocity": 0.7874015748031497,
          "duration": 0.3999999999999986
        },
        {
          "name": "E1",
          "midi": 28,
          "time": 55.59999999999994,
          "velocity": 0.7874015748031497,
          "duration": 0.20000000000000284
        },
        {
          "name": "F#1",
          "midi": 30,
          "time": 55.79999999999994,
          "velocity": 0.7874015748031497,
          "duration": 0.3999999999999986
        },
        {
          "name": "E1",
          "midi": 28,
          "time": 56.19999999999994,
          "velocity": 0.7874015748031497,
          "duration": 0.20000000000000284
        },
        {
          "name": "F#1",
          "midi": 30,
          "time": 56.39999999999994,
          "velocity": 0.7874015748031497,
          "duration": 0.3999999999999986
        },
        {
          "name": "F#2",
          "midi": 42,
          "time": 56.79999999999994,
          "velocity": 0.7874015748031497,
          "duration": 0.3999999999999986
        },
        {
          "name": "E2",
          "midi": 40,
          "time": 57.19999999999994,
          "velocity": 0.7874015748031497,
          "duration": 0.3999999999999986
        },
        {
          "name": "E1",
          "midi": 28,
          "time": 57.59999999999994,
          "velocity": 0.7874015748031497,
          "duration": 0.3999999999999986
        },
        {
          "name": "E1",
          "midi": 28,
          "time": 57.59999999999994,
          "velocity": 0.7874015748031497,
          "duration": 0.3999999999999986
        },
        {
          "name": "F#1",
          "midi": 30,
          "time": 57.999999999999936,
          "velocity": 0.7874015748031497,
          "duration": 0.3999999999999986
        },
        {
          "name": "F#2",
          "midi": 42,
          "time": 58.399999999999935,
          "velocity": 0.7874015748031497,
          "duration": 0.3999999999999986
        },
        {
          "name": "E1",
          "midi": 28,
          "time": 58.79999999999993,
          "velocity": 0.7874015748031497,
          "duration": 0.20000000000000284
        },
        {
          "name": "F#1",
          "midi": 30,
          "time": 58.999999999999936,
          "velocity": 0.7874015748031497,
          "duration": 0.3999999999999986
        },
        {
          "name": "E1",
          "midi": 28,
          "time": 59.399999999999935,
          "velocity": 0.7874015748031497,
          "duration": 0.20000000000000284
        },
        {
          "name": "C#1",
          "midi": 25,
          "time": 59.59999999999994,
          "velocity": 0.7874015748031497,
          "duration": 2.799999999999997
        },
        {
          "name": "F#1",
          "midi": 30,
          "time": 62.399999999999935,
          "velocity": 0.7874015748031497,
          "duration": 0.20000000000000284
        },
        {
          "name": "F#1",
          "midi": 30,
          "time": 62.79999999999994,
          "velocity": 0.7874015748031497,
          "duration": 0.20000000000000284
        },
        {
          "name": "E1",
          "midi": 28,
          "time": 63.199999999999946,
          "velocity": 0.7874015748031497,
          "duration": 0.3999999999999986
        },
        {
          "name": "F#1",
          "midi": 30,
          "time": 63.599999999999945,
          "velocity": 0.7874015748031497,
          "duration": 0.20000000000000284
        },
        {
          "name": "F#1",
          "midi": 30,
          "time": 63.79999999999995,
          "velocity": 0.7874015748031497,
          "duration": 0.20000000000000284
        },
        {
          "name": "F#1",
          "midi": 30,
          "time": 64.19999999999995,
          "velocity": 0.7874015748031497,
          "duration": 0.20000000000000284
        },
        {
          "name": "E1",
          "midi": 28,
          "time": 64.59999999999995,
          "velocity": 0.7874015748031497,
          "duration": 0.20000000000000284
        },
        {
          "name": "A1",
          "midi": 33,
          "time": 64.79999999999995,
          "velocity": 0.7874015748031497,
          "duration": 0.7999999999999972
        },
        {
          "name": "F#1",
          "midi": 30,
          "time": 65.59999999999995,
          "velocity": 0.7874015748031497,
          "duration": 0.20000000000000284
        },
        {
          "name": "F#1",
          "midi": 30,
          "time": 65.99999999999996,
          "velocity": 0.7874015748031497,
          "duration": 0.20000000000000284
        },
        {
          "name": "E1",
          "midi": 28,
          "time": 66.39999999999996,
          "velocity": 0.7874015748031497,
          "duration": 0.4000000000000057
        },
        {
          "name": "F#1",
          "midi": 30,
          "time": 66.79999999999997,
          "velocity": 0.7874015748031497,
          "duration": 0.20000000000000284
        },
        {
          "name": "F#1",
          "midi": 30,
          "time": 66.99999999999997,
          "velocity": 0.7874015748031497,
          "duration": 0.20000000000000284
        },
        {
          "name": "F#2",
          "midi": 42,
          "time": 67.19999999999997,
          "velocity": 0.7874015748031497,
          "duration": 0.20000000000000284
        },
        {
          "name": "E2",
          "midi": 40,
          "time": 67.39999999999998,
          "velocity": 0.7874015748031497,
          "duration": 0.20000000000000284
        },
        {
          "name": "C#2",
          "midi": 37,
          "time": 67.59999999999998,
          "velocity": 0.7874015748031497,
          "duration": 0.20000000000000284
        },
        {
          "name": "C2",
          "midi": 36,
          "time": 67.79999999999998,
          "velocity": 0.7874015748031497,
          "duration": 0.20000000000000284
        },
        {
          "name": "B1",
          "midi": 35,
          "time": 67.99999999999999,
          "velocity": 0.7874015748031497,
          "duration": 0.20000000000000284
        },
        {
          "name": "A1",
          "midi": 33,
          "time": 68.19999999999999,
          "velocity": 0.7874015748031497,
          "duration": 0.5999999999999943
        },
        {
          "name": "F#1",
          "midi": 30,
          "time": 68.79999999999998,
          "velocity": 0.7874015748031497,
          "duration": 0.20000000000000284
        },
        {
          "name": "F#1",
          "midi": 30,
          "time": 69.19999999999999,
          "velocity": 0.7874015748031497,
          "duration": 0.20000000000000284
        },
        {
          "name": "E1",
          "midi": 28,
          "time": 69.6,
          "velocity": 0.7874015748031497,
          "duration": 0.4000000000000057
        },
        {
          "name": "F#1",
          "midi": 30,
          "time": 70,
          "velocity": 0.7874015748031497,
          "duration": 0.20000000000000284
        },
        {
          "name": "F#1",
          "midi": 30,
          "time": 70.2,
          "velocity": 0.7874015748031497,
          "duration": 0.20000000000000284
        },
        {
          "name": "F#1",
          "midi": 30,
          "time": 70.60000000000001,
          "velocity": 0.7874015748031497,
          "duration": 0.20000000000000284
        },
        {
          "name": "E1",
          "midi": 28,
          "time": 71.00000000000001,
          "velocity": 0.7874015748031497,
          "duration": 0.20000000000000284
        },
        {
          "name": "A1",
          "midi": 33,
          "time": 71.20000000000002,
          "velocity": 0.7874015748031497,
          "duration": 0.7999999999999972
        },
        {
          "name": "F#1",
          "midi": 30,
          "time": 72.00000000000001,
          "velocity": 0.7874015748031497,
          "duration": 0.20000000000000284
        },
        {
          "name": "F#1",
          "midi": 30,
          "time": 72.40000000000002,
          "velocity": 0.7874015748031497,
          "duration": 0.20000000000000284
        },
        {
          "name": "E1",
          "midi": 28,
          "time": 72.80000000000003,
          "velocity": 0.7874015748031497,
          "duration": 0.4000000000000057
        },
        {
          "name": "F#1",
          "midi": 30,
          "time": 73.20000000000003,
          "velocity": 0.7874015748031497,
          "duration": 0.20000000000000284
        },
        {
          "name": "F#1",
          "midi": 30,
          "time": 73.40000000000003,
          "velocity": 0.7874015748031497,
          "duration": 0.20000000000000284
        },
        {
          "name": "F#2",
          "midi": 42,
          "time": 73.60000000000004,
          "velocity": 0.7874015748031497,
          "duration": 0.20000000000000284
        },
        {
          "name": "E2",
          "midi": 40,
          "time": 73.80000000000004,
          "velocity": 0.7874015748031497,
          "duration": 0.20000000000000284
        },
        {
          "name": "C#2",
          "midi": 37,
          "time": 74.00000000000004,
          "velocity": 0.7874015748031497,
          "duration": 0.20000000000000284
        },
        {
          "name": "C2",
          "midi": 36,
          "time": 74.20000000000005,
          "velocity": 0.7874015748031497,
          "duration": 0.20000000000000284
        },
        {
          "name": "B1",
          "midi": 35,
          "time": 74.40000000000005,
          "velocity": 0.7874015748031497,
          "duration": 0.20000000000000284
        },
        {
          "name": "A1",
          "midi": 33,
          "time": 74.60000000000005,
          "velocity": 0.7874015748031497,
          "duration": 0.5999999999999943
        },
        {
          "name": "F#1",
          "midi": 30,
          "time": 75.20000000000005,
          "velocity": 0.7874015748031497,
          "duration": 0.20000000000000284
        },
        {
          "name": "F#1",
          "midi": 30,
          "time": 75.60000000000005,
          "velocity": 0.7874015748031497,
          "duration": 0.20000000000000284
        },
        {
          "name": "E1",
          "midi": 28,
          "time": 76.00000000000006,
          "velocity": 0.7874015748031497,
          "duration": 0.4000000000000057
        },
        {
          "name": "F#1",
          "midi": 30,
          "time": 76.40000000000006,
          "velocity": 0.7874015748031497,
          "duration": 0.20000000000000284
        },
        {
          "name": "F#1",
          "midi": 30,
          "time": 76.60000000000007,
          "velocity": 0.7874015748031497,
          "duration": 0.20000000000000284
        },
        {
          "name": "F#1",
          "midi": 30,
          "time": 77.00000000000007,
          "velocity": 0.7874015748031497,
          "duration": 0.20000000000000284
        },
        {
          "name": "E1",
          "midi": 28,
          "time": 77.40000000000008,
          "velocity": 0.7874015748031497,
          "duration": 0.20000000000000284
        },
        {
          "name": "A1",
          "midi": 33,
          "time": 77.60000000000008,
          "velocity": 0.7874015748031497,
          "duration": 0.7999999999999972
        },
        {
          "name": "F#1",
          "midi": 30,
          "time": 78.40000000000008,
          "velocity": 0.7874015748031497,
          "duration": 0.20000000000000284
        },
        {
          "name": "F#1",
          "midi": 30,
          "time": 78.80000000000008,
          "velocity": 0.7874015748031497,
          "duration": 0.20000000000000284
        },
        {
          "name": "E1",
          "midi": 28,
          "time": 79.20000000000009,
          "velocity": 0.7874015748031497,
          "duration": 0.4000000000000057
        },
        {
          "name": "F#1",
          "midi": 30,
          "time": 79.6000000000001,
          "velocity": 0.7874015748031497,
          "duration": 0.20000000000000284
        },
        {
          "name": "F#1",
          "midi": 30,
          "time": 79.8000000000001,
          "velocity": 0.7874015748031497,
          "duration": 0.20000000000000284
        },
        {
          "name": "F#2",
          "midi": 42,
          "time": 80.0000000000001,
          "velocity": 0.7874015748031497,
          "duration": 0.20000000000000284
        },
        {
          "name": "E2",
          "midi": 40,
          "time": 80.2000000000001,
          "velocity": 0.7874015748031497,
          "duration": 0.20000000000000284
        },
        {
          "name": "C#2",
          "midi": 37,
          "time": 80.4000000000001,
          "velocity": 0.7874015748031497,
          "duration": 0.20000000000000284
        },
        {
          "name": "C2",
          "midi": 36,
          "time": 80.60000000000011,
          "velocity": 0.7874015748031497,
          "duration": 0.20000000000000284
        },
        {
          "name": "B1",
          "midi": 35,
          "time": 80.80000000000011,
          "velocity": 0.7874015748031497,
          "duration": 0.20000000000000284
        },
        {
          "name": "A1",
          "midi": 33,
          "time": 81.00000000000011,
          "velocity": 0.7874015748031497,
          "duration": 0.5999999999999943
        },
        {
          "name": "F#1",
          "midi": 30,
          "time": 81.60000000000011,
          "velocity": 0.7874015748031497,
          "duration": 0.20000000000000284
        },
        {
          "name": "F#1",
          "midi": 30,
          "time": 82.00000000000011,
          "velocity": 0.7874015748031497,
          "duration": 0.20000000000000284
        },
        {
          "name": "E1",
          "midi": 28,
          "time": 82.40000000000012,
          "velocity": 0.7874015748031497,
          "duration": 0.4000000000000057
        },
        {
          "name": "F#1",
          "midi": 30,
          "time": 82.80000000000013,
          "velocity": 0.7874015748031497,
          "duration": 0.20000000000000284
        },
        {
          "name": "F#1",
          "midi": 30,
          "time": 83.00000000000013,
          "velocity": 0.7874015748031497,
          "duration": 0.20000000000000284
        },
        {
          "name": "F#1",
          "midi": 30,
          "time": 83.40000000000013,
          "velocity": 0.7874015748031497,
          "duration": 0.20000000000000284
        },
        {
          "name": "E1",
          "midi": 28,
          "time": 83.80000000000014,
          "velocity": 0.7874015748031497,
          "duration": 0.20000000000000284
        },
        {
          "name": "A1",
          "midi": 33,
          "time": 84.00000000000014,
          "velocity": 0.7874015748031497,
          "duration": 0.7999999999999972
        },
        {
          "name": "F#1",
          "midi": 30,
          "time": 84.80000000000014,
          "velocity": 0.7874015748031497,
          "duration": 0.20000000000000284
        },
        {
          "name": "F#1",
          "midi": 30,
          "time": 85.20000000000014,
          "velocity": 0.7874015748031497,
          "duration": 0.20000000000000284
        },
        {
          "name": "E1",
          "midi": 28,
          "time": 85.60000000000015,
          "velocity": 0.7874015748031497,
          "duration": 0.4000000000000057
        },
        {
          "name": "F#1",
          "midi": 30,
          "time": 86.00000000000016,
          "velocity": 0.7874015748031497,
          "duration": 0.20000000000000284
        },
        {
          "name": "F#1",
          "midi": 30,
          "time": 86.20000000000016,
          "velocity": 0.7874015748031497,
          "duration": 0.20000000000000284
        },
        {
          "name": "F#1",
          "midi": 30,
          "time": 88.00000000000016,
          "velocity": 0.7874015748031497,
          "duration": 0.20000000000000284
        },
        {
          "name": "F#1",
          "midi": 30,
          "time": 88.40000000000016,
          "velocity": 0.7874015748031497,
          "duration": 0.20000000000000284
        },
        {
          "name": "E1",
          "midi": 28,
          "time": 88.80000000000017,
          "velocity": 0.7874015748031497,
          "duration": 0.4000000000000057
        },
        {
          "name": "F#1",
          "midi": 30,
          "time": 89.20000000000017,
          "velocity": 0.7874015748031497,
          "duration": 0.20000000000000284
        },
        {
          "name": "F#1",
          "midi": 30,
          "time": 89.40000000000018,
          "velocity": 0.7874015748031497,
          "duration": 0.20000000000000284
        },
        {
          "name": "F#1",
          "midi": 30,
          "time": 89.80000000000018,
          "velocity": 0.7874015748031497,
          "duration": 0.20000000000000284
        },
        {
          "name": "E1",
          "midi": 28,
          "time": 90.20000000000019,
          "velocity": 0.7874015748031497,
          "duration": 0.20000000000000284
        },
        {
          "name": "A1",
          "midi": 33,
          "time": 90.40000000000019,
          "velocity": 0.7874015748031497,
          "duration": 0.7999999999999972
        },
        {
          "name": "F#1",
          "midi": 30,
          "time": 91.20000000000019,
          "velocity": 0.7874015748031497,
          "duration": 0.20000000000000284
        },
        {
          "name": "F#1",
          "midi": 30,
          "time": 91.6000000000002,
          "velocity": 0.7874015748031497,
          "duration": 0.20000000000000284
        },
        {
          "name": "E1",
          "midi": 28,
          "time": 92.0000000000002,
          "velocity": 0.7874015748031497,
          "duration": 0.4000000000000057
        },
        {
          "name": "F#1",
          "midi": 30,
          "time": 92.4000000000002,
          "velocity": 0.7874015748031497,
          "duration": 0.20000000000000284
        },
        {
          "name": "F#1",
          "midi": 30,
          "time": 92.60000000000021,
          "velocity": 0.7874015748031497,
          "duration": 0.20000000000000284
        },
        {
          "name": "F#2",
          "midi": 42,
          "time": 92.80000000000021,
          "velocity": 0.7874015748031497,
          "duration": 0.20000000000000284
        },
        {
          "name": "E2",
          "midi": 40,
          "time": 93.00000000000021,
          "velocity": 0.7874015748031497,
          "duration": 0.20000000000000284
        },
        {
          "name": "C#2",
          "midi": 37,
          "time": 93.20000000000022,
          "velocity": 0.7874015748031497,
          "duration": 0.20000000000000284
        },
        {
          "name": "C2",
          "midi": 36,
          "time": 93.40000000000022,
          "velocity": 0.7874015748031497,
          "duration": 0.20000000000000284
        },
        {
          "name": "B1",
          "midi": 35,
          "time": 93.60000000000022,
          "velocity": 0.7874015748031497,
          "duration": 0.20000000000000284
        },
        {
          "name": "A1",
          "midi": 33,
          "time": 93.80000000000022,
          "velocity": 0.7874015748031497,
          "duration": 0.5999999999999943
        },
        {
          "name": "F#1",
          "midi": 30,
          "time": 94.40000000000022,
          "velocity": 0.7874015748031497,
          "duration": 0.20000000000000284
        },
        {
          "name": "F#1",
          "midi": 30,
          "time": 94.80000000000022,
          "velocity": 0.7874015748031497,
          "duration": 0.20000000000000284
        },
        {
          "name": "E1",
          "midi": 28,
          "time": 95.20000000000023,
          "velocity": 0.7874015748031497,
          "duration": 0.4000000000000057
        },
        {
          "name": "F#1",
          "midi": 30,
          "time": 95.60000000000024,
          "velocity": 0.7874015748031497,
          "duration": 0.20000000000000284
        },
        {
          "name": "F#1",
          "midi": 30,
          "time": 95.80000000000024,
          "velocity": 0.7874015748031497,
          "duration": 0.20000000000000284
        },
        {
          "name": "F#1",
          "midi": 30,
          "time": 96.20000000000024,
          "velocity": 0.7874015748031497,
          "duration": 0.20000000000000284
        },
        {
          "name": "E1",
          "midi": 28,
          "time": 96.60000000000025,
          "velocity": 0.7874015748031497,
          "duration": 0.20000000000000284
        },
        {
          "name": "A1",
          "midi": 33,
          "time": 96.80000000000025,
          "velocity": 0.7874015748031497,
          "duration": 0.7999999999999972
        },
        {
          "name": "F#1",
          "midi": 30,
          "time": 97.60000000000025,
          "velocity": 0.7874015748031497,
          "duration": 0.20000000000000284
        },
        {
          "name": "F#1",
          "midi": 30,
          "time": 98.00000000000026,
          "velocity": 0.7874015748031497,
          "duration": 0.20000000000000284
        },
        {
          "name": "E1",
          "midi": 28,
          "time": 98.40000000000026,
          "velocity": 0.7874015748031497,
          "duration": 0.4000000000000057
        },
        {
          "name": "F#1",
          "midi": 30,
          "time": 98.80000000000027,
          "velocity": 0.7874015748031497,
          "duration": 0.20000000000000284
        },
        {
          "name": "F#1",
          "midi": 30,
          "time": 99.00000000000027,
          "velocity": 0.7874015748031497,
          "duration": 0.20000000000000284
        },
        {
          "name": "F#2",
          "midi": 42,
          "time": 99.20000000000027,
          "velocity": 0.7874015748031497,
          "duration": 0.20000000000000284
        },
        {
          "name": "E2",
          "midi": 40,
          "time": 99.40000000000028,
          "velocity": 0.7874015748031497,
          "duration": 0.20000000000000284
        },
        {
          "name": "C#2",
          "midi": 37,
          "time": 99.60000000000028,
          "velocity": 0.7874015748031497,
          "duration": 0.20000000000000284
        },
        {
          "name": "C2",
          "midi": 36,
          "time": 99.80000000000028,
          "velocity": 0.7874015748031497,
          "duration": 0.20000000000000284
        },
        {
          "name": "B1",
          "midi": 35,
          "time": 100.00000000000028,
          "velocity": 0.7874015748031497,
          "duration": 0.20000000000000284
        },
        {
          "name": "A1",
          "midi": 33,
          "time": 100.20000000000029,
          "velocity": 0.7874015748031497,
          "duration": 0.5999999999999943
        },
        {
          "name": "F#1",
          "midi": 30,
          "time": 100.80000000000028,
          "velocity": 0.7874015748031497,
          "duration": 0.20000000000000284
        },
        {
          "name": "F#1",
          "midi": 30,
          "time": 101.20000000000029,
          "velocity": 0.7874015748031497,
          "duration": 0.20000000000000284
        },
        {
          "name": "E1",
          "midi": 28,
          "time": 101.60000000000029,
          "velocity": 0.7874015748031497,
          "duration": 0.4000000000000057
        },
        {
          "name": "F#1",
          "midi": 30,
          "time": 102.0000000000003,
          "velocity": 0.7874015748031497,
          "duration": 0.20000000000000284
        },
        {
          "name": "F#1",
          "midi": 30,
          "time": 102.2000000000003,
          "velocity": 0.7874015748031497,
          "duration": 0.20000000000000284
        },
        {
          "name": "F#1",
          "midi": 30,
          "time": 102.6000000000003,
          "velocity": 0.7874015748031497,
          "duration": 0.20000000000000284
        },
        {
          "name": "E1",
          "midi": 28,
          "time": 103.00000000000031,
          "velocity": 0.7874015748031497,
          "duration": 0.20000000000000284
        },
        {
          "name": "A1",
          "midi": 33,
          "time": 103.20000000000032,
          "velocity": 0.7874015748031497,
          "duration": 0.7999999999999972
        },
        {
          "name": "F#1",
          "midi": 30,
          "time": 104.00000000000031,
          "velocity": 0.7874015748031497,
          "duration": 0.20000000000000284
        },
        {
          "name": "F#1",
          "midi": 30,
          "time": 104.40000000000032,
          "velocity": 0.7874015748031497,
          "duration": 0.20000000000000284
        },
        {
          "name": "E1",
          "midi": 28,
          "time": 104.80000000000032,
          "velocity": 0.7874015748031497,
          "duration": 0.4000000000000057
        },
        {
          "name": "F#1",
          "midi": 30,
          "time": 105.20000000000033,
          "velocity": 0.7874015748031497,
          "duration": 0.20000000000000284
        },
        {
          "name": "F#1",
          "midi": 30,
          "time": 105.40000000000033,
          "velocity": 0.7874015748031497,
          "duration": 0.20000000000000284
        },
        {
          "name": "F#2",
          "midi": 42,
          "time": 105.60000000000034,
          "velocity": 0.7874015748031497,
          "duration": 0.20000000000000284
        },
        {
          "name": "E2",
          "midi": 40,
          "time": 105.80000000000034,
          "velocity": 0.7874015748031497,
          "duration": 0.20000000000000284
        },
        {
          "name": "C#2",
          "midi": 37,
          "time": 106.00000000000034,
          "velocity": 0.7874015748031497,
          "duration": 0.20000000000000284
        },
        {
          "name": "C2",
          "midi": 36,
          "time": 106.20000000000034,
          "velocity": 0.7874015748031497,
          "duration": 0.20000000000000284
        },
        {
          "name": "B1",
          "midi": 35,
          "time": 106.40000000000035,
          "velocity": 0.7874015748031497,
          "duration": 0.20000000000000284
        },
        {
          "name": "A1",
          "midi": 33,
          "time": 106.60000000000035,
          "velocity": 0.7874015748031497,
          "duration": 0.5999999999999943
        },
        {
          "name": "F#1",
          "midi": 30,
          "time": 107.20000000000034,
          "velocity": 0.7874015748031497,
          "duration": 0.20000000000000284
        },
        {
          "name": "F#1",
          "midi": 30,
          "time": 107.60000000000035,
          "velocity": 0.7874015748031497,
          "duration": 0.20000000000000284
        },
        {
          "name": "E1",
          "midi": 28,
          "time": 108.00000000000036,
          "velocity": 0.7874015748031497,
          "duration": 0.4000000000000057
        },
        {
          "name": "F#1",
          "midi": 30,
          "time": 108.40000000000036,
          "velocity": 0.7874015748031497,
          "duration": 0.20000000000000284
        },
        {
          "name": "F#1",
          "midi": 30,
          "time": 108.60000000000036,
          "velocity": 0.7874015748031497,
          "duration": 0.20000000000000284
        },
        {
          "name": "F#1",
          "midi": 30,
          "time": 109.00000000000037,
          "velocity": 0.7874015748031497,
          "duration": 0.20000000000000284
        },
        {
          "name": "E1",
          "midi": 28,
          "time": 109.40000000000038,
          "velocity": 0.7874015748031497,
          "duration": 0.20000000000000284
        },
        {
          "name": "A1",
          "midi": 33,
          "time": 109.60000000000038,
          "velocity": 0.7874015748031497,
          "duration": 0.7999999999999972
        },
        {
          "name": "F#1",
          "midi": 30,
          "time": 110.40000000000038,
          "velocity": 0.7874015748031497,
          "duration": 0.20000000000000284
        },
        {
          "name": "F#1",
          "midi": 30,
          "time": 110.80000000000038,
          "velocity": 0.7874015748031497,
          "duration": 0.20000000000000284
        },
        {
          "name": "E1",
          "midi": 28,
          "time": 111.20000000000039,
          "velocity": 0.7874015748031497,
          "duration": 0.4000000000000057
        },
        {
          "name": "F#1",
          "midi": 30,
          "time": 111.60000000000039,
          "velocity": 0.7874015748031497,
          "duration": 0.20000000000000284
        },
        {
          "name": "F#1",
          "midi": 30,
          "time": 111.8000000000004,
          "velocity": 0.7874015748031497,
          "duration": 0.20000000000000284
        },
        {
          "name": "E1",
          "midi": 28,
          "time": 113.60000000000039,
          "velocity": 0.7874015748031497,
          "duration": 0.4000000000000057
        },
        {
          "name": "E1",
          "midi": 28,
          "time": 113.60000000000039,
          "velocity": 0.7874015748031497,
          "duration": 0.4000000000000057
        },
        {
          "name": "F#1",
          "midi": 30,
          "time": 114.0000000000004,
          "velocity": 0.7874015748031497,
          "duration": 0.4000000000000057
        },
        {
          "name": "F#2",
          "midi": 42,
          "time": 114.4000000000004,
          "velocity": 0.7874015748031497,
          "duration": 0.4000000000000057
        },
        {
          "name": "E1",
          "midi": 28,
          "time": 114.80000000000041,
          "velocity": 0.7874015748031497,
          "duration": 0.20000000000000284
        },
        {
          "name": "F#1",
          "midi": 30,
          "time": 115.00000000000041,
          "velocity": 0.7874015748031497,
          "duration": 0.4000000000000057
        },
        {
          "name": "E1",
          "midi": 28,
          "time": 115.40000000000042,
          "velocity": 0.7874015748031497,
          "duration": 0.20000000000000284
        },
        {
          "name": "F#1",
          "midi": 30,
          "time": 115.60000000000042,
          "velocity": 0.7874015748031497,
          "duration": 0.4000000000000057
        },
        {
          "name": "F#2",
          "midi": 42,
          "time": 116.00000000000043,
          "velocity": 0.7874015748031497,
          "duration": 0.4000000000000057
        },
        {
          "name": "E2",
          "midi": 40,
          "time": 116.40000000000043,
          "velocity": 0.7874015748031497,
          "duration": 0.4000000000000057
        },
        {
          "name": "E1",
          "midi": 28,
          "time": 116.80000000000044,
          "velocity": 0.7874015748031497,
          "duration": 0.4000000000000057
        },
        {
          "name": "E1",
          "midi": 28,
          "time": 116.80000000000044,
          "velocity": 0.7874015748031497,
          "duration": 0.4000000000000057
        },
        {
          "name": "F#1",
          "midi": 30,
          "time": 117.20000000000044,
          "velocity": 0.7874015748031497,
          "duration": 0.4000000000000057
        },
        {
          "name": "F#2",
          "midi": 42,
          "time": 117.60000000000045,
          "velocity": 0.7874015748031497,
          "duration": 0.4000000000000057
        },
        {
          "name": "E1",
          "midi": 28,
          "time": 118.00000000000045,
          "velocity": 0.7874015748031497,
          "duration": 0.20000000000000284
        },
        {
          "name": "F#1",
          "midi": 30,
          "time": 118.20000000000046,
          "velocity": 0.7874015748031497,
          "duration": 0.4000000000000057
        },
        {
          "name": "E1",
          "midi": 28,
          "time": 118.60000000000046,
          "velocity": 0.7874015748031497,
          "duration": 0.20000000000000284
        },
        {
          "name": "C#2",
          "midi": 37,
          "time": 118.80000000000047,
          "velocity": 0.7874015748031497,
          "duration": 0.4000000000000057
        },
        {
          "name": "C2",
          "midi": 36,
          "time": 119.20000000000047,
          "velocity": 0.7874015748031497,
          "duration": 0.4000000000000057
        },
        {
          "name": "B1",
          "midi": 35,
          "time": 119.60000000000048,
          "velocity": 0.7874015748031497,
          "duration": 0.4000000000000057
        },
        {
          "name": "E1",
          "midi": 28,
          "time": 120.00000000000048,
          "velocity": 0.7874015748031497,
          "duration": 0.4000000000000057
        },
        {
          "name": "E1",
          "midi": 28,
          "time": 120.00000000000048,
          "velocity": 0.7874015748031497,
          "duration": 0.4000000000000057
        },
        {
          "name": "F#1",
          "midi": 30,
          "time": 120.40000000000049,
          "velocity": 0.7874015748031497,
          "duration": 0.4000000000000057
        },
        {
          "name": "F#2",
          "midi": 42,
          "time": 120.8000000000005,
          "velocity": 0.7874015748031497,
          "duration": 0.4000000000000057
        },
        {
          "name": "E1",
          "midi": 28,
          "time": 121.2000000000005,
          "velocity": 0.7874015748031497,
          "duration": 0.20000000000000284
        },
        {
          "name": "F#1",
          "midi": 30,
          "time": 121.4000000000005,
          "velocity": 0.7874015748031497,
          "duration": 0.4000000000000057
        },
        {
          "name": "E1",
          "midi": 28,
          "time": 121.80000000000051,
          "velocity": 0.7874015748031497,
          "duration": 0.20000000000000284
        },
        {
          "name": "F#1",
          "midi": 30,
          "time": 122.00000000000051,
          "velocity": 0.7874015748031497,
          "duration": 0.4000000000000057
        },
        {
          "name": "F#2",
          "midi": 42,
          "time": 122.40000000000052,
          "velocity": 0.7874015748031497,
          "duration": 0.4000000000000057
        },
        {
          "name": "E2",
          "midi": 40,
          "time": 122.80000000000052,
          "velocity": 0.7874015748031497,
          "duration": 0.4000000000000057
        },
        {
          "name": "E1",
          "midi": 28,
          "time": 123.20000000000053,
          "velocity": 0.7874015748031497,
          "duration": 0.4000000000000057
        },
        {
          "name": "E1",
          "midi": 28,
          "time": 123.20000000000053,
          "velocity": 0.7874015748031497,
          "duration": 0.4000000000000057
        },
        {
          "name": "F#1",
          "midi": 30,
          "time": 123.60000000000053,
          "velocity": 0.7874015748031497,
          "duration": 0.4000000000000057
        },
        {
          "name": "F#2",
          "midi": 42,
          "time": 124.00000000000054,
          "velocity": 0.7874015748031497,
          "duration": 0.4000000000000057
        },
        {
          "name": "E1",
          "midi": 28,
          "time": 124.40000000000055,
          "velocity": 0.7874015748031497,
          "duration": 0.20000000000000284
        },
        {
          "name": "F#1",
          "midi": 30,
          "time": 124.60000000000055,
          "velocity": 0.7874015748031497,
          "duration": 0.4000000000000057
        },
        {
          "name": "E1",
          "midi": 28,
          "time": 125.00000000000055,
          "velocity": 0.7874015748031497,
          "duration": 0.20000000000000284
        },
        {
          "name": "C#2",
          "midi": 37,
          "time": 125.20000000000056,
          "velocity": 0.7874015748031497,
          "duration": 0.4000000000000057
        },
        {
          "name": "C2",
          "midi": 36,
          "time": 125.60000000000056,
          "velocity": 0.7874015748031497,
          "duration": 0.4000000000000057
        },
        {
          "name": "B1",
          "midi": 35,
          "time": 126.00000000000057,
          "velocity": 0.7874015748031497,
          "duration": 0.4000000000000057
        },
        {
          "name": "E1",
          "midi": 28,
          "time": 126.40000000000057,
          "velocity": 0.7874015748031497,
          "duration": 0.4000000000000057
        },
        {
          "name": "E1",
          "midi": 28,
          "time": 126.40000000000057,
          "velocity": 0.7874015748031497,
          "duration": 0.4000000000000057
        },
        {
          "name": "F#1",
          "midi": 30,
          "time": 126.80000000000058,
          "velocity": 0.7874015748031497,
          "duration": 0.4000000000000057
        },
        {
          "name": "F#2",
          "midi": 42,
          "time": 127.20000000000059,
          "velocity": 0.7874015748031497,
          "duration": 0.4000000000000057
        },
        {
          "name": "E1",
          "midi": 28,
          "time": 127.60000000000059,
          "velocity": 0.7874015748031497,
          "duration": 0.20000000000000284
        },
        {
          "name": "F#1",
          "midi": 30,
          "time": 127.8000000000006,
          "velocity": 0.7874015748031497,
          "duration": 0.3999999999999915
        },
        {
          "name": "E1",
          "midi": 28,
          "time": 128.20000000000059,
          "velocity": 0.7874015748031497,
          "duration": 0.19999999999998863
        },
        {
          "name": "F#1",
          "midi": 30,
          "time": 128.40000000000057,
          "velocity": 0.7874015748031497,
          "duration": 0.4000000000000057
        },
        {
          "name": "F#2",
          "midi": 42,
          "time": 128.80000000000058,
          "velocity": 0.7874015748031497,
          "duration": 0.4000000000000057
        },
        {
          "name": "E2",
          "midi": 40,
          "time": 129.20000000000059,
          "velocity": 0.7874015748031497,
          "duration": 0.4000000000000057
        },
        {
          "name": "E1",
          "midi": 28,
          "time": 129.6000000000006,
          "velocity": 0.7874015748031497,
          "duration": 0.4000000000000057
        },
        {
          "name": "E1",
          "midi": 28,
          "time": 129.6000000000006,
          "velocity": 0.7874015748031497,
          "duration": 0.4000000000000057
        },
        {
          "name": "F#1",
          "midi": 30,
          "time": 130.0000000000006,
          "velocity": 0.7874015748031497,
          "duration": 0.4000000000000057
        },
        {
          "name": "F#2",
          "midi": 42,
          "time": 130.4000000000006,
          "velocity": 0.7874015748031497,
          "duration": 0.4000000000000057
        },
        {
          "name": "E1",
          "midi": 28,
          "time": 130.8000000000006,
          "velocity": 0.7874015748031497,
          "duration": 0.19999999999998863
        },
        {
          "name": "F#1",
          "midi": 30,
          "time": 131.0000000000006,
          "velocity": 0.7874015748031497,
          "duration": 0.4000000000000057
        },
        {
          "name": "E1",
          "midi": 28,
          "time": 131.4000000000006,
          "velocity": 0.7874015748031497,
          "duration": 0.19999999999998863
        },
        {
          "name": "C#2",
          "midi": 37,
          "time": 131.6000000000006,
          "velocity": 0.7874015748031497,
          "duration": 0.4000000000000057
        },
        {
          "name": "C2",
          "midi": 36,
          "time": 132.0000000000006,
          "velocity": 0.7874015748031497,
          "duration": 0.4000000000000057
        },
        {
          "name": "B1",
          "midi": 35,
          "time": 132.4000000000006,
          "velocity": 0.7874015748031497,
          "duration": 0.4000000000000057
        },
        {
          "name": "E1",
          "midi": 28,
          "time": 132.8000000000006,
          "velocity": 0.7874015748031497,
          "duration": 0.4000000000000057
        },
        {
          "name": "E1",
          "midi": 28,
          "time": 132.8000000000006,
          "velocity": 0.7874015748031497,
          "duration": 0.4000000000000057
        },
        {
          "name": "F#1",
          "midi": 30,
          "time": 133.2000000000006,
          "velocity": 0.7874015748031497,
          "duration": 0.4000000000000057
        },
        {
          "name": "F#2",
          "midi": 42,
          "time": 133.60000000000062,
          "velocity": 0.7874015748031497,
          "duration": 0.4000000000000057
        },
        {
          "name": "E1",
          "midi": 28,
          "time": 134.00000000000063,
          "velocity": 0.7874015748031497,
          "duration": 0.19999999999998863
        },
        {
          "name": "F#1",
          "midi": 30,
          "time": 134.2000000000006,
          "velocity": 0.7874015748031497,
          "duration": 0.4000000000000057
        },
        {
          "name": "E1",
          "midi": 28,
          "time": 134.60000000000062,
          "velocity": 0.7874015748031497,
          "duration": 0.19999999999998863
        },
        {
          "name": "F#1",
          "midi": 30,
          "time": 134.8000000000006,
          "velocity": 0.7874015748031497,
          "duration": 0.4000000000000057
        },
        {
          "name": "F#2",
          "midi": 42,
          "time": 135.2000000000006,
          "velocity": 0.7874015748031497,
          "duration": 0.4000000000000057
        },
        {
          "name": "E2",
          "midi": 40,
          "time": 135.60000000000062,
          "velocity": 0.7874015748031497,
          "duration": 0.4000000000000057
        },
        {
          "name": "E1",
          "midi": 28,
          "time": 136.00000000000063,
          "velocity": 0.7874015748031497,
          "duration": 0.4000000000000057
        },
        {
          "name": "E1",
          "midi": 28,
          "time": 136.00000000000063,
          "velocity": 0.7874015748031497,
          "duration": 0.4000000000000057
        },
        {
          "name": "F#1",
          "midi": 30,
          "time": 136.40000000000063,
          "velocity": 0.7874015748031497,
          "duration": 0.4000000000000057
        },
        {
          "name": "F#2",
          "midi": 42,
          "time": 136.80000000000064,
          "velocity": 0.7874015748031497,
          "duration": 0.4000000000000057
        },
        {
          "name": "E1",
          "midi": 28,
          "time": 137.20000000000064,
          "velocity": 0.7874015748031497,
          "duration": 0.19999999999998863
        },
        {
          "name": "F#1",
          "midi": 30,
          "time": 137.40000000000063,
          "velocity": 0.7874015748031497,
          "duration": 0.4000000000000057
        },
        {
          "name": "E1",
          "midi": 28,
          "time": 137.80000000000064,
          "velocity": 0.7874015748031497,
          "duration": 0.19999999999998863
        },
        {
          "name": "C#1",
          "midi": 25,
          "time": 138.00000000000063,
          "velocity": 0.7874015748031497,
          "duration": 2.8000000000000114
        },
        {
          "name": "F#1",
          "midi": 30,
          "time": 140.80000000000064,
          "velocity": 0.7874015748031497,
          "duration": 0.19999999999998863
        },
        {
          "name": "F#1",
          "midi": 30,
          "time": 141.2000000000006,
          "velocity": 0.7874015748031497,
          "duration": 0.19999999999998863
        },
        {
          "name": "E1",
          "midi": 28,
          "time": 141.6000000000006,
          "velocity": 0.7874015748031497,
          "duration": 0.4000000000000057
        },
        {
          "name": "F#1",
          "midi": 30,
          "time": 142.0000000000006,
          "velocity": 0.7874015748031497,
          "duration": 0.19999999999998863
        },
        {
          "name": "F#1",
          "midi": 30,
          "time": 142.20000000000059,
          "velocity": 0.7874015748031497,
          "duration": 0.19999999999998863
        },
        {
          "name": "F#1",
          "midi": 30,
          "time": 142.60000000000056,
          "velocity": 0.7874015748031497,
          "duration": 0.19999999999998863
        },
        {
          "name": "E1",
          "midi": 28,
          "time": 143.00000000000054,
          "velocity": 0.7874015748031497,
          "duration": 0.19999999999998863
        },
        {
          "name": "A1",
          "midi": 33,
          "time": 143.20000000000053,
          "velocity": 0.7874015748031497,
          "duration": 0.8000000000000114
        },
        {
          "name": "F#1",
          "midi": 30,
          "time": 144.00000000000054,
          "velocity": 0.7874015748031497,
          "duration": 0.19999999999998863
        },
        {
          "name": "F#1",
          "midi": 30,
          "time": 144.40000000000052,
          "velocity": 0.7874015748031497,
          "duration": 0.19999999999998863
        },
        {
          "name": "E1",
          "midi": 28,
          "time": 144.8000000000005,
          "velocity": 0.7874015748031497,
          "duration": 0.4000000000000057
        },
        {
          "name": "F#1",
          "midi": 30,
          "time": 145.2000000000005,
          "velocity": 0.7874015748031497,
          "duration": 0.19999999999998863
        },
        {
          "name": "F#1",
          "midi": 30,
          "time": 145.4000000000005,
          "velocity": 0.7874015748031497,
          "duration": 0.19999999999998863
        },
        {
          "name": "F#2",
          "midi": 42,
          "time": 145.60000000000048,
          "velocity": 0.7874015748031497,
          "duration": 0.19999999999998863
        },
        {
          "name": "E2",
          "midi": 40,
          "time": 145.80000000000047,
          "velocity": 0.7874015748031497,
          "duration": 0.19999999999998863
        },
        {
          "name": "C#2",
          "midi": 37,
          "time": 146.00000000000045,
          "velocity": 0.7874015748031497,
          "duration": 0.19999999999998863
        },
        {
          "name": "C2",
          "midi": 36,
          "time": 146.20000000000044,
          "velocity": 0.7874015748031497,
          "duration": 0.19999999999998863
        },
        {
          "name": "B1",
          "midi": 35,
          "time": 146.40000000000043,
          "velocity": 0.7874015748031497,
          "duration": 0.19999999999998863
        },
        {
          "name": "A1",
          "midi": 33,
          "time": 146.60000000000042,
          "velocity": 0.7874015748031497,
          "duration": 0.5999999999999943
        },
        {
          "name": "F#1",
          "midi": 30,
          "time": 147.20000000000041,
          "velocity": 0.7874015748031497,
          "duration": 0.19999999999998863
        },
        {
          "name": "F#1",
          "midi": 30,
          "time": 147.6000000000004,
          "velocity": 0.7874015748031497,
          "duration": 0.19999999999998863
        },
        {
          "name": "E1",
          "midi": 28,
          "time": 148.00000000000037,
          "velocity": 0.7874015748031497,
          "duration": 0.4000000000000057
        },
        {
          "name": "F#1",
          "midi": 30,
          "time": 148.40000000000038,
          "velocity": 0.7874015748031497,
          "duration": 0.19999999999998863
        },
        {
          "name": "F#1",
          "midi": 30,
          "time": 148.60000000000036,
          "velocity": 0.7874015748031497,
          "duration": 0.19999999999998863
        },
        {
          "name": "F#1",
          "midi": 30,
          "time": 149.00000000000034,
          "velocity": 0.7874015748031497,
          "duration": 0.19999999999998863
        },
        {
          "name": "E1",
          "midi": 28,
          "time": 149.40000000000032,
          "velocity": 0.7874015748031497,
          "duration": 0.19999999999998863
        },
        {
          "name": "A1",
          "midi": 33,
          "time": 149.6000000000003,
          "velocity": 0.7874015748031497,
          "duration": 0.8000000000000114
        },
        {
          "name": "F#1",
          "midi": 30,
          "time": 150.40000000000032,
          "velocity": 0.7874015748031497,
          "duration": 0.19999999999998863
        },
        {
          "name": "F#1",
          "midi": 30,
          "time": 150.8000000000003,
          "velocity": 0.7874015748031497,
          "duration": 0.19999999999998863
        },
        {
          "name": "E1",
          "midi": 28,
          "time": 151.20000000000027,
          "velocity": 0.7874015748031497,
          "duration": 0.4000000000000057
        },
        {
          "name": "F#1",
          "midi": 30,
          "time": 151.60000000000028,
          "velocity": 0.7874015748031497,
          "duration": 0.19999999999998863
        },
        {
          "name": "F#1",
          "midi": 30,
          "time": 151.80000000000027,
          "velocity": 0.7874015748031497,
          "duration": 0.19999999999998863
        },
        {
          "name": "F#2",
          "midi": 42,
          "time": 152.00000000000026,
          "velocity": 0.7874015748031497,
          "duration": 0.19999999999998863
        },
        {
          "name": "E2",
          "midi": 40,
          "time": 152.20000000000024,
          "velocity": 0.7874015748031497,
          "duration": 0.19999999999998863
        },
        {
          "name": "C#2",
          "midi": 37,
          "time": 152.40000000000023,
          "velocity": 0.7874015748031497,
          "duration": 0.19999999999998863
        },
        {
          "name": "C2",
          "midi": 36,
          "time": 152.60000000000022,
          "velocity": 0.7874015748031497,
          "duration": 0.19999999999998863
        },
        {
          "name": "B1",
          "midi": 35,
          "time": 152.8000000000002,
          "velocity": 0.7874015748031497,
          "duration": 0.19999999999998863
        },
        {
          "name": "A1",
          "midi": 33,
          "time": 153.0000000000002,
          "velocity": 0.7874015748031497,
          "duration": 0.5999999999999943
        },
        {
          "name": "F#1",
          "midi": 30,
          "time": 153.6000000000002,
          "velocity": 0.7874015748031497,
          "duration": 0.19999999999998863
        },
        {
          "name": "F#1",
          "midi": 30,
          "time": 154.00000000000017,
          "velocity": 0.7874015748031497,
          "duration": 0.19999999999998863
        },
        {
          "name": "E1",
          "midi": 28,
          "time": 154.40000000000015,
          "velocity": 0.7874015748031497,
          "duration": 0.4000000000000057
        },
        {
          "name": "F#1",
          "midi": 30,
          "time": 154.80000000000015,
          "velocity": 0.7874015748031497,
          "duration": 0.19999999999998863
        },
        {
          "name": "F#1",
          "midi": 30,
          "time": 155.00000000000014,
          "velocity": 0.7874015748031497,
          "duration": 0.19999999999998863
        },
        {
          "name": "F#1",
          "midi": 30,
          "time": 155.40000000000012,
          "velocity": 0.7874015748031497,
          "duration": 0.19999999999998863
        },
        {
          "name": "E1",
          "midi": 28,
          "time": 155.8000000000001,
          "velocity": 0.7874015748031497,
          "duration": 0.19999999999998863
        },
        {
          "name": "A1",
          "midi": 33,
          "time": 156.00000000000009,
          "velocity": 0.7874015748031497,
          "duration": 0.8000000000000114
        },
        {
          "name": "F#1",
          "midi": 30,
          "time": 156.8000000000001,
          "velocity": 0.7874015748031497,
          "duration": 0.19999999999998863
        },
        {
          "name": "F#1",
          "midi": 30,
          "time": 157.20000000000007,
          "velocity": 0.7874015748031497,
          "duration": 0.19999999999998863
        },
        {
          "name": "E1",
          "midi": 28,
          "time": 157.60000000000005,
          "velocity": 0.7874015748031497,
          "duration": 0.4000000000000057
        },
        {
          "name": "F#1",
          "midi": 30,
          "time": 158.00000000000006,
          "velocity": 0.7874015748031497,
          "duration": 0.19999999999998863
        },
        {
          "name": "F#1",
          "midi": 30,
          "time": 158.20000000000005,
          "velocity": 0.7874015748031497,
          "duration": 0.19999999999998863
        },
        {
          "name": "F#2",
          "midi": 42,
          "time": 158.40000000000003,
          "velocity": 0.7874015748031497,
          "duration": 0.19999999999998863
        },
        {
          "name": "E2",
          "midi": 40,
          "time": 158.60000000000002,
          "velocity": 0.7874015748031497,
          "duration": 0.19999999999998863
        },
        {
          "name": "C#2",
          "midi": 37,
          "time": 158.8,
          "velocity": 0.7874015748031497,
          "duration": 0.19999999999998863
        },
        {
          "name": "C2",
          "midi": 36,
          "time": 159,
          "velocity": 0.7874015748031497,
          "duration": 0.19999999999998863
        },
        {
          "name": "B1",
          "midi": 35,
          "time": 159.2,
          "velocity": 0.7874015748031497,
          "duration": 0.19999999999998863
        },
        {
          "name": "A1",
          "midi": 33,
          "time": 159.39999999999998,
          "velocity": 0.7874015748031497,
          "duration": 0.5999999999999943
        },
        {
          "name": "F#1",
          "midi": 30,
          "time": 159.99999999999997,
          "velocity": 0.7874015748031497,
          "duration": 0.19999999999998863
        },
        {
          "name": "F#1",
          "midi": 30,
          "time": 160.39999999999995,
          "velocity": 0.7874015748031497,
          "duration": 0.19999999999998863
        },
        {
          "name": "E1",
          "midi": 28,
          "time": 160.79999999999993,
          "velocity": 0.7874015748031497,
          "duration": 0.4000000000000057
        },
        {
          "name": "F#1",
          "midi": 30,
          "time": 161.19999999999993,
          "velocity": 0.7874015748031497,
          "duration": 0.19999999999998863
        },
        {
          "name": "F#1",
          "midi": 30,
          "time": 161.39999999999992,
          "velocity": 0.7874015748031497,
          "duration": 0.19999999999998863
        },
        {
          "name": "F#1",
          "midi": 30,
          "time": 161.7999999999999,
          "velocity": 0.7874015748031497,
          "duration": 0.19999999999998863
        },
        {
          "name": "E1",
          "midi": 28,
          "time": 162.19999999999987,
          "velocity": 0.7874015748031497,
          "duration": 0.19999999999998863
        },
        {
          "name": "A1",
          "midi": 33,
          "time": 162.39999999999986,
          "velocity": 0.7874015748031497,
          "duration": 0.8000000000000114
        },
        {
          "name": "F#1",
          "midi": 30,
          "time": 163.19999999999987,
          "velocity": 0.7874015748031497,
          "duration": 0.19999999999998863
        },
        {
          "name": "F#1",
          "midi": 30,
          "time": 163.59999999999985,
          "velocity": 0.7874015748031497,
          "duration": 0.19999999999998863
        },
        {
          "name": "E1",
          "midi": 28,
          "time": 163.99999999999983,
          "velocity": 0.7874015748031497,
          "duration": 0.4000000000000057
        },
        {
          "name": "F#1",
          "midi": 30,
          "time": 164.39999999999984,
          "velocity": 0.7874015748031497,
          "duration": 0.19999999999998863
        },
        {
          "name": "F#1",
          "midi": 30,
          "time": 164.59999999999982,
          "velocity": 0.7874015748031497,
          "duration": 0.19999999999998863
        },
        {
          "name": "E1",
          "midi": 28,
          "time": 166.3999999999998,
          "velocity": 0.7874015748031497,
          "duration": 0.4000000000000057
        },
        {
          "name": "E1",
          "midi": 28,
          "time": 166.3999999999998,
          "velocity": 0.7874015748031497,
          "duration": 0.4000000000000057
        },
        {
          "name": "F#1",
          "midi": 30,
          "time": 166.7999999999998,
          "velocity": 0.7874015748031497,
          "duration": 0.4000000000000057
        },
        {
          "name": "F#2",
          "midi": 42,
          "time": 167.19999999999982,
          "velocity": 0.7874015748031497,
          "duration": 0.4000000000000057
        },
        {
          "name": "E1",
          "midi": 28,
          "time": 167.59999999999982,
          "velocity": 0.7874015748031497,
          "duration": 0.19999999999998863
        },
        {
          "name": "F#1",
          "midi": 30,
          "time": 167.7999999999998,
          "velocity": 0.7874015748031497,
          "duration": 0.4000000000000057
        },
        {
          "name": "E1",
          "midi": 28,
          "time": 168.19999999999982,
          "velocity": 0.7874015748031497,
          "duration": 0.19999999999998863
        },
        {
          "name": "F#1",
          "midi": 30,
          "time": 168.3999999999998,
          "velocity": 0.7874015748031497,
          "duration": 0.4000000000000057
        },
        {
          "name": "F#2",
          "midi": 42,
          "time": 168.7999999999998,
          "velocity": 0.7874015748031497,
          "duration": 0.4000000000000057
        },
        {
          "name": "E2",
          "midi": 40,
          "time": 169.19999999999982,
          "velocity": 0.7874015748031497,
          "duration": 0.4000000000000057
        },
        {
          "name": "E1",
          "midi": 28,
          "time": 169.59999999999982,
          "velocity": 0.7874015748031497,
          "duration": 0.4000000000000057
        },
        {
          "name": "E1",
          "midi": 28,
          "time": 169.59999999999982,
          "velocity": 0.7874015748031497,
          "duration": 0.4000000000000057
        },
        {
          "name": "F#1",
          "midi": 30,
          "time": 169.99999999999983,
          "velocity": 0.7874015748031497,
          "duration": 0.4000000000000057
        },
        {
          "name": "F#2",
          "midi": 42,
          "time": 170.39999999999984,
          "velocity": 0.7874015748031497,
          "duration": 0.4000000000000057
        },
        {
          "name": "E1",
          "midi": 28,
          "time": 170.79999999999984,
          "velocity": 0.7874015748031497,
          "duration": 0.19999999999998863
        },
        {
          "name": "F#1",
          "midi": 30,
          "time": 170.99999999999983,
          "velocity": 0.7874015748031497,
          "duration": 0.4000000000000057
        },
        {
          "name": "E1",
          "midi": 28,
          "time": 171.39999999999984,
          "velocity": 0.7874015748031497,
          "duration": 0.19999999999998863
        },
        {
          "name": "C#2",
          "midi": 37,
          "time": 171.59999999999982,
          "velocity": 0.7874015748031497,
          "duration": 0.4000000000000057
        },
        {
          "name": "C2",
          "midi": 36,
          "time": 171.99999999999983,
          "velocity": 0.7874015748031497,
          "duration": 0.4000000000000057
        },
        {
          "name": "B1",
          "midi": 35,
          "time": 172.39999999999984,
          "velocity": 0.7874015748031497,
          "duration": 0.4000000000000057
        },
        {
          "name": "E1",
          "midi": 28,
          "time": 172.79999999999984,
          "velocity": 0.7874015748031497,
          "duration": 0.4000000000000057
        },
        {
          "name": "E1",
          "midi": 28,
          "time": 172.79999999999984,
          "velocity": 0.7874015748031497,
          "duration": 0.4000000000000057
        },
        {
          "name": "F#1",
          "midi": 30,
          "time": 173.19999999999985,
          "velocity": 0.7874015748031497,
          "duration": 0.4000000000000057
        },
        {
          "name": "F#2",
          "midi": 42,
          "time": 173.59999999999985,
          "velocity": 0.7874015748031497,
          "duration": 0.4000000000000057
        },
        {
          "name": "E1",
          "midi": 28,
          "time": 173.99999999999986,
          "velocity": 0.7874015748031497,
          "duration": 0.19999999999998863
        },
        {
          "name": "F#1",
          "midi": 30,
          "time": 174.19999999999985,
          "velocity": 0.7874015748031497,
          "duration": 0.4000000000000057
        },
        {
          "name": "E1",
          "midi": 28,
          "time": 174.59999999999985,
          "velocity": 0.7874015748031497,
          "duration": 0.19999999999998863
        },
        {
          "name": "F#1",
          "midi": 30,
          "time": 174.79999999999984,
          "velocity": 0.7874015748031497,
          "duration": 0.4000000000000057
        },
        {
          "name": "F#2",
          "midi": 42,
          "time": 175.19999999999985,
          "velocity": 0.7874015748031497,
          "duration": 0.4000000000000057
        },
        {
          "name": "E2",
          "midi": 40,
          "time": 175.59999999999985,
          "velocity": 0.7874015748031497,
          "duration": 0.4000000000000057
        },
        {
          "name": "E1",
          "midi": 28,
          "time": 175.99999999999986,
          "velocity": 0.7874015748031497,
          "duration": 0.4000000000000057
        },
        {
          "name": "E1",
          "midi": 28,
          "time": 175.99999999999986,
          "velocity": 0.7874015748031497,
          "duration": 0.4000000000000057
        },
        {
          "name": "F#1",
          "midi": 30,
          "time": 176.39999999999986,
          "velocity": 0.7874015748031497,
          "duration": 0.4000000000000057
        },
        {
          "name": "F#2",
          "midi": 42,
          "time": 176.79999999999987,
          "velocity": 0.7874015748031497,
          "duration": 0.4000000000000057
        },
        {
          "name": "E1",
          "midi": 28,
          "time": 177.19999999999987,
          "velocity": 0.7874015748031497,
          "duration": 0.19999999999998863
        },
        {
          "name": "F#1",
          "midi": 30,
          "time": 177.39999999999986,
          "velocity": 0.7874015748031497,
          "duration": 0.4000000000000057
        },
        {
          "name": "E1",
          "midi": 28,
          "time": 177.79999999999987,
          "velocity": 0.7874015748031497,
          "duration": 0.19999999999998863
        },
        {
          "name": "C#2",
          "midi": 37,
          "time": 177.99999999999986,
          "velocity": 0.7874015748031497,
          "duration": 0.4000000000000057
        },
        {
          "name": "C2",
          "midi": 36,
          "time": 178.39999999999986,
          "velocity": 0.7874015748031497,
          "duration": 0.4000000000000057
        },
        {
          "name": "B1",
          "midi": 35,
          "time": 178.79999999999987,
          "velocity": 0.7874015748031497,
          "duration": 0.4000000000000057
        },
        {
          "name": "E1",
          "midi": 28,
          "time": 179.19999999999987,
          "velocity": 0.7874015748031497,
          "duration": 0.4000000000000057
        },
        {
          "name": "E1",
          "midi": 28,
          "time": 179.19999999999987,
          "velocity": 0.7874015748031497,
          "duration": 0.4000000000000057
        },
        {
          "name": "F#1",
          "midi": 30,
          "time": 179.59999999999988,
          "velocity": 0.7874015748031497,
          "duration": 0.4000000000000057
        },
        {
          "name": "F#2",
          "midi": 42,
          "time": 179.9999999999999,
          "velocity": 0.7874015748031497,
          "duration": 0.4000000000000057
        },
        {
          "name": "E1",
          "midi": 28,
          "time": 180.3999999999999,
          "velocity": 0.7874015748031497,
          "duration": 0.19999999999998863
        },
        {
          "name": "F#1",
          "midi": 30,
          "time": 180.59999999999988,
          "velocity": 0.7874015748031497,
          "duration": 0.4000000000000057
        },
        {
          "name": "E1",
          "midi": 28,
          "time": 180.9999999999999,
          "velocity": 0.7874015748031497,
          "duration": 0.19999999999998863
        },
        {
          "name": "F#1",
          "midi": 30,
          "time": 181.19999999999987,
          "velocity": 0.7874015748031497,
          "duration": 0.4000000000000057
        },
        {
          "name": "F#2",
          "midi": 42,
          "time": 181.59999999999988,
          "velocity": 0.7874015748031497,
          "duration": 0.4000000000000057
        },
        {
          "name": "E2",
          "midi": 40,
          "time": 181.9999999999999,
          "velocity": 0.7874015748031497,
          "duration": 0.4000000000000057
        },
        {
          "name": "E1",
          "midi": 28,
          "time": 182.3999999999999,
          "velocity": 0.7874015748031497,
          "duration": 0.4000000000000057
        },
        {
          "name": "E1",
          "midi": 28,
          "time": 182.3999999999999,
          "velocity": 0.7874015748031497,
          "duration": 0.4000000000000057
        },
        {
          "name": "F#1",
          "midi": 30,
          "time": 182.7999999999999,
          "velocity": 0.7874015748031497,
          "duration": 0.4000000000000057
        },
        {
          "name": "F#2",
          "midi": 42,
          "time": 183.1999999999999,
          "velocity": 0.7874015748031497,
          "duration": 0.4000000000000057
        },
        {
          "name": "E1",
          "midi": 28,
          "time": 183.5999999999999,
          "velocity": 0.7874015748031497,
          "duration": 0.19999999999998863
        },
        {
          "name": "F#1",
          "midi": 30,
          "time": 183.7999999999999,
          "velocity": 0.7874015748031497,
          "duration": 0.4000000000000057
        },
        {
          "name": "E1",
          "midi": 28,
          "time": 184.1999999999999,
          "velocity": 0.7874015748031497,
          "duration": 0.19999999999998863
        },
        {
          "name": "C#2",
          "midi": 37,
          "time": 184.3999999999999,
          "velocity": 0.7874015748031497,
          "duration": 0.4000000000000057
        },
        {
          "name": "C2",
          "midi": 36,
          "time": 184.7999999999999,
          "velocity": 0.7874015748031497,
          "duration": 0.4000000000000057
        },
        {
          "name": "B1",
          "midi": 35,
          "time": 185.1999999999999,
          "velocity": 0.7874015748031497,
          "duration": 0.4000000000000057
        },
        {
          "name": "E1",
          "midi": 28,
          "time": 185.5999999999999,
          "velocity": 0.7874015748031497,
          "duration": 0.4000000000000057
        },
        {
          "name": "E1",
          "midi": 28,
          "time": 185.5999999999999,
          "velocity": 0.7874015748031497,
          "duration": 0.4000000000000057
        },
        {
          "name": "F#1",
          "midi": 30,
          "time": 185.99999999999991,
          "velocity": 0.7874015748031497,
          "duration": 0.4000000000000057
        },
        {
          "name": "F#2",
          "midi": 42,
          "time": 186.39999999999992,
          "velocity": 0.7874015748031497,
          "duration": 0.4000000000000057
        },
        {
          "name": "E1",
          "midi": 28,
          "time": 186.79999999999993,
          "velocity": 0.7874015748031497,
          "duration": 0.19999999999998863
        },
        {
          "name": "F#1",
          "midi": 30,
          "time": 186.99999999999991,
          "velocity": 0.7874015748031497,
          "duration": 0.4000000000000057
        },
        {
          "name": "E1",
          "midi": 28,
          "time": 187.39999999999992,
          "velocity": 0.7874015748031497,
          "duration": 0.19999999999998863
        },
        {
          "name": "F#1",
          "midi": 30,
          "time": 187.5999999999999,
          "velocity": 0.7874015748031497,
          "duration": 0.4000000000000057
        },
        {
          "name": "F#2",
          "midi": 42,
          "time": 187.99999999999991,
          "velocity": 0.7874015748031497,
          "duration": 0.4000000000000057
        },
        {
          "name": "E2",
          "midi": 40,
          "time": 188.39999999999992,
          "velocity": 0.7874015748031497,
          "duration": 0.4000000000000057
        },
        {
          "name": "E1",
          "midi": 28,
          "time": 188.79999999999993,
          "velocity": 0.7874015748031497,
          "duration": 0.4000000000000057
        },
        {
          "name": "E1",
          "midi": 28,
          "time": 188.79999999999993,
          "velocity": 0.7874015748031497,
          "duration": 0.4000000000000057
        },
        {
          "name": "F#1",
          "midi": 30,
          "time": 189.19999999999993,
          "velocity": 0.7874015748031497,
          "duration": 0.4000000000000057
        },
        {
          "name": "F#2",
          "midi": 42,
          "time": 189.59999999999994,
          "velocity": 0.7874015748031497,
          "duration": 0.4000000000000057
        },
        {
          "name": "E1",
          "midi": 28,
          "time": 189.99999999999994,
          "velocity": 0.7874015748031497,
          "duration": 0.19999999999998863
        },
        {
          "name": "F#1",
          "midi": 30,
          "time": 190.19999999999993,
          "velocity": 0.7874015748031497,
          "duration": 0.4000000000000057
        },
        {
          "name": "E1",
          "midi": 28,
          "time": 190.59999999999994,
          "velocity": 0.7874015748031497,
          "duration": 0.19999999999998863
        },
        {
          "name": "C#2",
          "midi": 37,
          "time": 190.79999999999993,
          "velocity": 0.7874015748031497,
          "duration": 0.4000000000000057
        },
        {
          "name": "C2",
          "midi": 36,
          "time": 191.19999999999993,
          "velocity": 0.7874015748031497,
          "duration": 0.4000000000000057
        },
        {
          "name": "B1",
          "midi": 35,
          "time": 191.59999999999994,
          "velocity": 0.7874015748031497,
          "duration": 0.4000000000000057
        },
        {
          "name": "E1",
          "midi": 28,
          "time": 191.99999999999994,
          "velocity": 0.7874015748031497,
          "duration": 0.4000000000000057
        },
        {
          "name": "E1",
          "midi": 28,
          "time": 191.99999999999994,
          "velocity": 0.7874015748031497,
          "duration": 0.4000000000000057
        },
        {
          "name": "E1",
          "midi": 28,
          "time": 195.19999999999996,
          "velocity": 0.7874015748031497,
          "duration": 0.19999999999998863
        },
        {
          "name": "E1",
          "midi": 28,
          "time": 195.39999999999995,
          "velocity": 0.7874015748031497,
          "duration": 0.19999999999998863
        },
        {
          "name": "E1",
          "midi": 28,
          "time": 195.59999999999994,
          "velocity": 0.7874015748031497,
          "duration": 0.19999999999998863
        },
        {
          "name": "E1",
          "midi": 28,
          "time": 195.79999999999993,
          "velocity": 0.7874015748031497,
          "duration": 0.19999999999998863
        },
        {
          "name": "E1",
          "midi": 28,
          "time": 195.99999999999991,
          "velocity": 0.7874015748031497,
          "duration": 0.19999999999998863
        },
        {
          "name": "E1",
          "midi": 28,
          "time": 196.1999999999999,
          "velocity": 0.7874015748031497,
          "duration": 0.19999999999998863
        },
        {
          "name": "E1",
          "midi": 28,
          "time": 196.3999999999999,
          "velocity": 0.7874015748031497,
          "duration": 0.19999999999998863
        },
        {
          "name": "E1",
          "midi": 28,
          "time": 196.59999999999988,
          "velocity": 0.7874015748031497,
          "duration": 0.19999999999998863
        },
        {
          "name": "E1",
          "midi": 28,
          "time": 196.79999999999987,
          "velocity": 0.7874015748031497,
          "duration": 0.19999999999998863
        },
        {
          "name": "E1",
          "midi": 28,
          "time": 196.99999999999986,
          "velocity": 0.7874015748031497,
          "duration": 0.19999999999998863
        },
        {
          "name": "E1",
          "midi": 28,
          "time": 197.19999999999985,
          "velocity": 0.7874015748031497,
          "duration": 0.19999999999998863
        },
        {
          "name": "E1",
          "midi": 28,
          "time": 197.39999999999984,
          "velocity": 0.7874015748031497,
          "duration": 0.19999999999998863
        },
        {
          "name": "E1",
          "midi": 28,
          "time": 197.59999999999982,
          "velocity": 0.7874015748031497,
          "duration": 0.19999999999998863
        },
        {
          "name": "E1",
          "midi": 28,
          "time": 197.7999999999998,
          "velocity": 0.7874015748031497,
          "duration": 0.19999999999998863
        },
        {
          "name": "E1",
          "midi": 28,
          "time": 197.9999999999998,
          "velocity": 0.7874015748031497,
          "duration": 0.19999999999998863
        },
        {
          "name": "E1",
          "midi": 28,
          "time": 198.1999999999998,
          "velocity": 0.7874015748031497,
          "duration": 0.19999999999998863
        },
        {
          "name": "F#1",
          "midi": 30,
          "time": 198.39999999999978,
          "velocity": 0.7874015748031497,
          "duration": 0.39999999999997726
        },
        {
          "name": "F#1",
          "midi": 30,
          "time": 198.79999999999976,
          "velocity": 0.7874015748031497,
          "duration": 0.39999999999997726
        },
        {
          "name": "A1",
          "midi": 33,
          "time": 199.19999999999973,
          "velocity": 0.7874015748031497,
          "duration": 0.4000000000000057
        },
        {
          "name": "F#1",
          "midi": 30,
          "time": 199.59999999999974,
          "velocity": 0.7874015748031497,
          "duration": 0.1941666666666606
        },
        {
          "name": "E1",
          "midi": 28,
          "time": 199.7941666666664,
          "velocity": 0.7874015748031497,
          "duration": 0.19499999999999318
        },
        {
          "name": "F#1",
          "midi": 30,
          "time": 199.99999999999972,
          "velocity": 0.7874015748031497,
          "duration": 0.39999999999997726
        },
        {
          "name": "F#1",
          "midi": 30,
          "time": 200.3999999999997,
          "velocity": 0.7874015748031497,
          "duration": 0.19999999999998863
        },
        {
          "name": "F#1",
          "midi": 30,
          "time": 201.59999999999968,
          "velocity": 0.7874015748031497,
          "duration": 0.39999999999997726
        },
        {
          "name": "F#1",
          "midi": 30,
          "time": 201.99999999999966,
          "velocity": 0.7874015748031497,
          "duration": 0.39999999999997726
        },
        {
          "name": "A1",
          "midi": 33,
          "time": 202.39999999999964,
          "velocity": 0.7874015748031497,
          "duration": 0.4000000000000057
        },
        {
          "name": "F#1",
          "midi": 30,
          "time": 202.79999999999964,
          "velocity": 0.7874015748031497,
          "duration": 0.1941666666666606
        },
        {
          "name": "E1",
          "midi": 28,
          "time": 202.9941666666663,
          "velocity": 0.7874015748031497,
          "duration": 0.19499999999999318
        },
        {
          "name": "F#1",
          "midi": 30,
          "time": 203.19999999999962,
          "velocity": 0.7874015748031497,
          "duration": 0.39999999999997726
        },
        {
          "name": "F#1",
          "midi": 30,
          "time": 203.5999999999996,
          "velocity": 0.7874015748031497,
          "duration": 0.19999999999998863
        },
        {
          "name": "F#1",
          "midi": 30,
          "time": 204.79999999999959,
          "velocity": 0.7874015748031497,
          "duration": 0.39999999999997726
        },
        {
          "name": "F#1",
          "midi": 30,
          "time": 205.19999999999956,
          "velocity": 0.7874015748031497,
          "duration": 0.39999999999997726
        },
        {
          "name": "A1",
          "midi": 33,
          "time": 205.59999999999954,
          "velocity": 0.7874015748031497,
          "duration": 0.4000000000000057
        },
        {
          "name": "F#1",
          "midi": 30,
          "time": 205.99999999999955,
          "velocity": 0.7874015748031497,
          "duration": 0.1941666666666606
        },
        {
          "name": "E1",
          "midi": 28,
          "time": 206.1941666666662,
          "velocity": 0.7874015748031497,
          "duration": 0.19499999999999318
        },
        {
          "name": "F#1",
          "midi": 30,
          "time": 206.39999999999952,
          "velocity": 0.7874015748031497,
          "duration": 0.39999999999997726
        },
        {
          "name": "F#1",
          "midi": 30,
          "time": 206.7999999999995,
          "velocity": 0.7874015748031497,
          "duration": 0.19999999999998863
        },
        {
          "name": "F#1",
          "midi": 30,
          "time": 207.9999999999995,
          "velocity": 0.7874015748031497,
          "duration": 0.39999999999997726
        },
        {
          "name": "F#1",
          "midi": 30,
          "time": 208.39999999999947,
          "velocity": 0.7874015748031497,
          "duration": 0.39999999999997726
        },
        {
          "name": "A1",
          "midi": 33,
          "time": 208.79999999999944,
          "velocity": 0.7874015748031497,
          "duration": 0.4000000000000057
        },
        {
          "name": "F#1",
          "midi": 30,
          "time": 209.19999999999945,
          "velocity": 0.7874015748031497,
          "duration": 0.1941666666666606
        },
        {
          "name": "E1",
          "midi": 28,
          "time": 209.3941666666661,
          "velocity": 0.7874015748031497,
          "duration": 0.19499999999999318
        },
        {
          "name": "F#1",
          "midi": 30,
          "time": 209.59999999999943,
          "velocity": 0.7874015748031497,
          "duration": 0.39999999999997726
        },
        {
          "name": "F#1",
          "midi": 30,
          "time": 209.9999999999994,
          "velocity": 0.7874015748031497,
          "duration": 0.19999999999998863
        },
        {
          "name": "F#1",
          "midi": 30,
          "time": 211.1999999999994,
          "velocity": 0.7874015748031497,
          "duration": 0.39999999999997726
        },
        {
          "name": "F#1",
          "midi": 30,
          "time": 211.59999999999937,
          "velocity": 0.7874015748031497,
          "duration": 0.39999999999997726
        },
        {
          "name": "A1",
          "midi": 33,
          "time": 211.99999999999935,
          "velocity": 0.7874015748031497,
          "duration": 0.4000000000000057
        },
        {
          "name": "F#1",
          "midi": 30,
          "time": 212.39999999999935,
          "velocity": 0.7874015748031497,
          "duration": 0.1941666666666606
        },
        {
          "name": "E1",
          "midi": 28,
          "time": 212.594166666666,
          "velocity": 0.7874015748031497,
          "duration": 0.19499999999999318
        },
        {
          "name": "F#1",
          "midi": 30,
          "time": 212.79999999999933,
          "velocity": 0.7874015748031497,
          "duration": 0.39999999999997726
        },
        {
          "name": "F#1",
          "midi": 30,
          "time": 213.1999999999993,
          "velocity": 0.7874015748031497,
          "duration": 0.19999999999998863
        },
        {
          "name": "F#1",
          "midi": 30,
          "time": 214.3999999999993,
          "velocity": 0.7874015748031497,
          "duration": 0.39999999999997726
        },
        {
          "name": "F#1",
          "midi": 30,
          "time": 214.79999999999927,
          "velocity": 0.7874015748031497,
          "duration": 0.39999999999997726
        },
        {
          "name": "A1",
          "midi": 33,
          "time": 215.19999999999925,
          "velocity": 0.7874015748031497,
          "duration": 0.4000000000000057
        },
        {
          "name": "F#1",
          "midi": 30,
          "time": 215.59999999999926,
          "velocity": 0.7874015748031497,
          "duration": 0.1941666666666606
        },
        {
          "name": "E1",
          "midi": 28,
          "time": 215.79416666666592,
          "velocity": 0.7874015748031497,
          "duration": 0.19499999999999318
        },
        {
          "name": "F#1",
          "midi": 30,
          "time": 215.99999999999923,
          "velocity": 0.7874015748031497,
          "duration": 0.39999999999997726
        },
        {
          "name": "F#1",
          "midi": 30,
          "time": 216.3999999999992,
          "velocity": 0.7874015748031497,
          "duration": 0.19999999999998863
        },
        {
          "name": "F#1",
          "midi": 30,
          "time": 217.5999999999992,
          "velocity": 0.7874015748031497,
          "duration": 0.39999999999997726
        },
        {
          "name": "F#1",
          "midi": 30,
          "time": 217.99999999999918,
          "velocity": 0.7874015748031497,
          "duration": 0.39999999999997726
        },
        {
          "name": "A1",
          "midi": 33,
          "time": 218.39999999999915,
          "velocity": 0.7874015748031497,
          "duration": 0.4000000000000057
        },
        {
          "name": "F#1",
          "midi": 30,
          "time": 218.79999999999916,
          "velocity": 0.7874015748031497,
          "duration": 0.1941666666666606
        },
        {
          "name": "E1",
          "midi": 28,
          "time": 218.99416666666582,
          "velocity": 0.7874015748031497,
          "duration": 0.19499999999999318
        },
        {
          "name": "F#1",
          "midi": 30,
          "time": 219.19999999999914,
          "velocity": 0.7874015748031497,
          "duration": 0.39999999999997726
        },
        {
          "name": "F#1",
          "midi": 30,
          "time": 219.5999999999991,
          "velocity": 0.7874015748031497,
          "duration": 0.19999999999998863
        },
        {
          "name": "F#1",
          "midi": 30,
          "time": 220.7999999999991,
          "velocity": 0.7874015748031497,
          "duration": 0.39999999999997726
        },
        {
          "name": "F#1",
          "midi": 30,
          "time": 221.19999999999908,
          "velocity": 0.7874015748031497,
          "duration": 0.39999999999997726
        },
        {
          "name": "A1",
          "midi": 33,
          "time": 221.59999999999906,
          "velocity": 0.7874015748031497,
          "duration": 0.4000000000000057
        },
        {
          "name": "F#1",
          "midi": 30,
          "time": 221.99999999999906,
          "velocity": 0.7874015748031497,
          "duration": 0.1941666666666606
        },
        {
          "name": "E1",
          "midi": 28,
          "time": 222.19416666666572,
          "velocity": 0.7874015748031497,
          "duration": 0.19499999999999318
        },
        {
          "name": "F#1",
          "midi": 30,
          "time": 222.39999999999904,
          "velocity": 0.7874015748031497,
          "duration": 0.39999999999997726
        },
        {
          "name": "F#1",
          "midi": 30,
          "time": 222.79999999999902,
          "velocity": 0.7874015748031497,
          "duration": 0.19999999999998863
        },
        {
          "name": "E1",
          "midi": 28,
          "time": 223.999999999999,
          "velocity": 0.7874015748031497,
          "duration": 0.4000000000000057
        },
        {
          "name": "E1",
          "midi": 28,
          "time": 223.999999999999,
          "velocity": 0.7874015748031497,
          "duration": 0.4000000000000057
        },
        {
          "name": "F#1",
          "midi": 30,
          "time": 224.399999999999,
          "velocity": 0.7874015748031497,
          "duration": 0.4000000000000057
        },
        {
          "name": "F#2",
          "midi": 42,
          "time": 224.79999999999902,
          "velocity": 0.7874015748031497,
          "duration": 0.4000000000000057
        },
        {
          "name": "E1",
          "midi": 28,
          "time": 225.19999999999902,
          "velocity": 0.7874015748031497,
          "duration": 0.19999999999998863
        },
        {
          "name": "F#1",
          "midi": 30,
          "time": 225.399999999999,
          "velocity": 0.7874015748031497,
          "duration": 0.4000000000000057
        },
        {
          "name": "E1",
          "midi": 28,
          "time": 225.79999999999902,
          "velocity": 0.7874015748031497,
          "duration": 0.19999999999998863
        },
        {
          "name": "F#1",
          "midi": 30,
          "time": 225.999999999999,
          "velocity": 0.7874015748031497,
          "duration": 0.4000000000000057
        },
        {
          "name": "F#2",
          "midi": 42,
          "time": 226.399999999999,
          "velocity": 0.7874015748031497,
          "duration": 0.4000000000000057
        },
        {
          "name": "E2",
          "midi": 40,
          "time": 226.79999999999902,
          "velocity": 0.7874015748031497,
          "duration": 0.4000000000000057
        },
        {
          "name": "E1",
          "midi": 28,
          "time": 227.19999999999902,
          "velocity": 0.7874015748031497,
          "duration": 0.4000000000000057
        },
        {
          "name": "E1",
          "midi": 28,
          "time": 227.19999999999902,
          "velocity": 0.7874015748031497,
          "duration": 0.4000000000000057
        },
        {
          "name": "F#1",
          "midi": 30,
          "time": 227.59999999999903,
          "velocity": 0.7874015748031497,
          "duration": 0.4000000000000057
        },
        {
          "name": "F#2",
          "midi": 42,
          "time": 227.99999999999903,
          "velocity": 0.7874015748031497,
          "duration": 0.4000000000000057
        },
        {
          "name": "E1",
          "midi": 28,
          "time": 228.39999999999904,
          "velocity": 0.7874015748031497,
          "duration": 0.19999999999998863
        },
        {
          "name": "F#1",
          "midi": 30,
          "time": 228.59999999999903,
          "velocity": 0.7874015748031497,
          "duration": 0.4000000000000057
        },
        {
          "name": "E1",
          "midi": 28,
          "time": 228.99999999999903,
          "velocity": 0.7874015748031497,
          "duration": 0.19999999999998863
        },
        {
          "name": "C#2",
          "midi": 37,
          "time": 229.19999999999902,
          "velocity": 0.7874015748031497,
          "duration": 0.4000000000000057
        },
        {
          "name": "C2",
          "midi": 36,
          "time": 229.59999999999903,
          "velocity": 0.7874015748031497,
          "duration": 0.4000000000000057
        },
        {
          "name": "B1",
          "midi": 35,
          "time": 229.99999999999903,
          "velocity": 0.7874015748031497,
          "duration": 0.4000000000000057
        },
        {
          "name": "E1",
          "midi": 28,
          "time": 230.39999999999904,
          "velocity": 0.7874015748031497,
          "duration": 0.4000000000000057
        },
        {
          "name": "E1",
          "midi": 28,
          "time": 230.39999999999904,
          "velocity": 0.7874015748031497,
          "duration": 0.4000000000000057
        },
        {
          "name": "F#1",
          "midi": 30,
          "time": 230.79999999999905,
          "velocity": 0.7874015748031497,
          "duration": 0.4000000000000057
        },
        {
          "name": "F#2",
          "midi": 42,
          "time": 231.19999999999905,
          "velocity": 0.7874015748031497,
          "duration": 0.4000000000000057
        },
        {
          "name": "E1",
          "midi": 28,
          "time": 231.59999999999906,
          "velocity": 0.7874015748031497,
          "duration": 0.19999999999998863
        },
        {
          "name": "F#1",
          "midi": 30,
          "time": 231.79999999999905,
          "velocity": 0.7874015748031497,
          "duration": 0.4000000000000057
        },
        {
          "name": "E1",
          "midi": 28,
          "time": 232.19999999999905,
          "velocity": 0.7874015748031497,
          "duration": 0.19999999999998863
        },
        {
          "name": "F#1",
          "midi": 30,
          "time": 232.39999999999904,
          "velocity": 0.7874015748031497,
          "duration": 0.4000000000000057
        },
        {
          "name": "F#2",
          "midi": 42,
          "time": 232.79999999999905,
          "velocity": 0.7874015748031497,
          "duration": 0.4000000000000057
        },
        {
          "name": "E2",
          "midi": 40,
          "time": 233.19999999999905,
          "velocity": 0.7874015748031497,
          "duration": 0.4000000000000057
        },
        {
          "name": "E1",
          "midi": 28,
          "time": 233.59999999999906,
          "velocity": 0.7874015748031497,
          "duration": 0.4000000000000057
        },
        {
          "name": "E1",
          "midi": 28,
          "time": 233.59999999999906,
          "velocity": 0.7874015748031497,
          "duration": 0.4000000000000057
        },
        {
          "name": "F#1",
          "midi": 30,
          "time": 233.99999999999906,
          "velocity": 0.7874015748031497,
          "duration": 0.4000000000000057
        },
        {
          "name": "F#2",
          "midi": 42,
          "time": 234.39999999999907,
          "velocity": 0.7874015748031497,
          "duration": 0.4000000000000057
        },
        {
          "name": "E1",
          "midi": 28,
          "time": 234.79999999999907,
          "velocity": 0.7874015748031497,
          "duration": 0.19999999999998863
        },
        {
          "name": "F#1",
          "midi": 30,
          "time": 234.99999999999906,
          "velocity": 0.7874015748031497,
          "duration": 0.4000000000000057
        },
        {
          "name": "E1",
          "midi": 28,
          "time": 235.39999999999907,
          "velocity": 0.7874015748031497,
          "duration": 0.19999999999998863
        },
        {
          "name": "C#2",
          "midi": 37,
          "time": 235.59999999999906,
          "velocity": 0.7874015748031497,
          "duration": 0.4000000000000057
        },
        {
          "name": "C2",
          "midi": 36,
          "time": 235.99999999999906,
          "velocity": 0.7874015748031497,
          "duration": 0.4000000000000057
        },
        {
          "name": "B1",
          "midi": 35,
          "time": 236.39999999999907,
          "velocity": 0.7874015748031497,
          "duration": 0.4000000000000057
        },
        {
          "name": "E1",
          "midi": 28,
          "time": 236.79999999999907,
          "velocity": 0.7874015748031497,
          "duration": 0.4000000000000057
        },
        {
          "name": "E1",
          "midi": 28,
          "time": 236.79999999999907,
          "velocity": 0.7874015748031497,
          "duration": 0.4000000000000057
        },
        {
          "name": "F#1",
          "midi": 30,
          "time": 237.19999999999908,
          "velocity": 0.7874015748031497,
          "duration": 0.4000000000000057
        },
        {
          "name": "F#2",
          "midi": 42,
          "time": 237.59999999999908,
          "velocity": 0.7874015748031497,
          "duration": 0.4000000000000057
        },
        {
          "name": "E1",
          "midi": 28,
          "time": 237.9999999999991,
          "velocity": 0.7874015748031497,
          "duration": 0.19999999999998863
        },
        {
          "name": "F#1",
          "midi": 30,
          "time": 238.19999999999908,
          "velocity": 0.7874015748031497,
          "duration": 0.4000000000000057
        },
        {
          "name": "E1",
          "midi": 28,
          "time": 238.59999999999908,
          "velocity": 0.7874015748031497,
          "duration": 0.19999999999998863
        },
        {
          "name": "F#1",
          "midi": 30,
          "time": 238.79999999999907,
          "velocity": 0.7874015748031497,
          "duration": 0.4000000000000057
        },
        {
          "name": "F#2",
          "midi": 42,
          "time": 239.19999999999908,
          "velocity": 0.7874015748031497,
          "duration": 0.4000000000000057
        },
        {
          "name": "E2",
          "midi": 40,
          "time": 239.59999999999908,
          "velocity": 0.7874015748031497,
          "duration": 0.4000000000000057
        },
        {
          "name": "E1",
          "midi": 28,
          "time": 239.9999999999991,
          "velocity": 0.7874015748031497,
          "duration": 0.4000000000000057
        },
        {
          "name": "E1",
          "midi": 28,
          "time": 239.9999999999991,
          "velocity": 0.7874015748031497,
          "duration": 0.4000000000000057
        },
        {
          "name": "F#1",
          "midi": 30,
          "time": 240.3999999999991,
          "velocity": 0.7874015748031497,
          "duration": 0.4000000000000057
        },
        {
          "name": "F#2",
          "midi": 42,
          "time": 240.7999999999991,
          "velocity": 0.7874015748031497,
          "duration": 0.4000000000000057
        },
        {
          "name": "E1",
          "midi": 28,
          "time": 241.1999999999991,
          "velocity": 0.7874015748031497,
          "duration": 0.19999999999998863
        },
        {
          "name": "F#1",
          "midi": 30,
          "time": 241.3999999999991,
          "velocity": 0.7874015748031497,
          "duration": 0.4000000000000057
        },
        {
          "name": "E1",
          "midi": 28,
          "time": 241.7999999999991,
          "velocity": 0.7874015748031497,
          "duration": 0.19999999999998863
        },
        {
          "name": "C#2",
          "midi": 37,
          "time": 241.9999999999991,
          "velocity": 0.7874015748031497,
          "duration": 0.4000000000000057
        },
        {
          "name": "C2",
          "midi": 36,
          "time": 242.3999999999991,
          "velocity": 0.7874015748031497,
          "duration": 0.4000000000000057
        },
        {
          "name": "B1",
          "midi": 35,
          "time": 242.7999999999991,
          "velocity": 0.7874015748031497,
          "duration": 0.4000000000000057
        },
        {
          "name": "E1",
          "midi": 28,
          "time": 243.1999999999991,
          "velocity": 0.7874015748031497,
          "duration": 0.4000000000000057
        },
        {
          "name": "E1",
          "midi": 28,
          "time": 243.1999999999991,
          "velocity": 0.7874015748031497,
          "duration": 0.4000000000000057
        },
        {
          "name": "F#1",
          "midi": 30,
          "time": 243.5999999999991,
          "velocity": 0.7874015748031497,
          "duration": 0.4000000000000057
        },
        {
          "name": "F#2",
          "midi": 42,
          "time": 243.99999999999912,
          "velocity": 0.7874015748031497,
          "duration": 0.4000000000000057
        },
        {
          "name": "E1",
          "midi": 28,
          "time": 244.39999999999912,
          "velocity": 0.7874015748031497,
          "duration": 0.19999999999998863
        },
        {
          "name": "F#1",
          "midi": 30,
          "time": 244.5999999999991,
          "velocity": 0.7874015748031497,
          "duration": 0.4000000000000057
        },
        {
          "name": "E1",
          "midi": 28,
          "time": 244.99999999999912,
          "velocity": 0.7874015748031497,
          "duration": 0.19999999999998863
        },
        {
          "name": "F#1",
          "midi": 30,
          "time": 245.1999999999991,
          "velocity": 0.7874015748031497,
          "duration": 0.4000000000000057
        },
        {
          "name": "F#2",
          "midi": 42,
          "time": 245.5999999999991,
          "velocity": 0.7874015748031497,
          "duration": 0.4000000000000057
        },
        {
          "name": "E2",
          "midi": 40,
          "time": 245.99999999999912,
          "velocity": 0.7874015748031497,
          "duration": 0.4000000000000057
        },
        {
          "name": "E1",
          "midi": 28,
          "time": 246.39999999999912,
          "velocity": 0.7874015748031497,
          "duration": 0.4000000000000057
        },
        {
          "name": "E1",
          "midi": 28,
          "time": 246.39999999999912,
          "velocity": 0.7874015748031497,
          "duration": 0.4000000000000057
        },
        {
          "name": "F#1",
          "midi": 30,
          "time": 246.79999999999913,
          "velocity": 0.7874015748031497,
          "duration": 0.4000000000000057
        },
        {
          "name": "F#2",
          "midi": 42,
          "time": 247.19999999999914,
          "velocity": 0.7874015748031497,
          "duration": 0.4000000000000057
        },
        {
          "name": "E1",
          "midi": 28,
          "time": 247.59999999999914,
          "velocity": 0.7874015748031497,
          "duration": 0.19999999999998863
        },
        {
          "name": "F#1",
          "midi": 30,
          "time": 247.79999999999913,
          "velocity": 0.7874015748031497,
          "duration": 0.4000000000000057
        },
        {
          "name": "E1",
          "midi": 28,
          "time": 248.19999999999914,
          "velocity": 0.7874015748031497,
          "duration": 0.19999999999998863
        },
        {
          "name": "C#2",
          "midi": 37,
          "time": 248.39999999999912,
          "velocity": 0.7874015748031497,
          "duration": 0.4000000000000057
        },
        {
          "name": "C2",
          "midi": 36,
          "time": 248.79999999999913,
          "velocity": 0.7874015748031497,
          "duration": 0.4000000000000057
        },
        {
          "name": "B1",
          "midi": 35,
          "time": 249.19999999999914,
          "velocity": 0.7874015748031497,
          "duration": 0.4000000000000057
        },
        {
          "name": "F#1",
          "midi": 30,
          "time": 249.59999999999914,
          "velocity": 0.7874015748031497,
          "duration": 1.5999999999999943
        }
      ],
      "controlChanges": {
        "1": [
          {
            "number": 1,
            "time": 12.399999999999988,
            "value": 1
          },
          {
            "number": 1,
            "time": 12.799999999999988,
            "value": 0
          },
          {
            "number": 1,
            "time": 25.199999999999946,
            "value": 1
          },
          {
            "number": 1,
            "time": 25.599999999999945,
            "value": 0
          },
          {
            "number": 1,
            "time": 31.599999999999923,
            "value": 1
          },
          {
            "number": 1,
            "time": 31.999999999999922,
            "value": 0
          }
        ],
        "7": [
          {
            "number": 7,
            "time": 0,
            "value": 1
          }
        ]
      },
      "id": 2,
      "name": "Tracked by RazTor",
      "instrumentNumber": 33,
      "instrument": "electric bass (finger)",
      "instrumentFamily": "bass",
      "channelNumber": 1,
      "isPercussion": false
    },
    {
      "startTime": 0,
      "duration": 0,
      "length": 0,
      "notes": [],
      "controlChanges": {
        "7": [
          {
            "number": 7,
            "time": 0,
            "value": 1
          }
        ]
      },
      "id": 3,
      "instrumentNumber": 27,
      "instrument": "electric guitar (clean)",
      "instrumentFamily": "guitar",
      "channelNumber": 2,
      "isPercussion": false
    },
    {
      "startTime": 24,
      "duration": 249.6641666666676,
      "length": 1133,
      "notes": [
        {
          "name": "C2",
          "midi": 36,
          "time": 24,
          "velocity": 0.1968503937007874,
          "duration": 0.053333333333334565
        },
        {
          "name": "E2",
          "midi": 40,
          "time": 24,
          "velocity": 0.1968503937007874,
          "duration": 0.053333333333334565
        },
        {
          "name": "E2",
          "midi": 40,
          "time": 24.200000000000003,
          "velocity": 0.1968503937007874,
          "duration": 0.04833333333333201
        },
        {
          "name": "E2",
          "midi": 40,
          "time": 24.400000000000002,
          "velocity": 0.1968503937007874,
          "duration": 0.053333333333334565
        },
        {
          "name": "E2",
          "midi": 40,
          "time": 24.600000000000005,
          "velocity": 0.1968503937007874,
          "duration": 0.04833333333333201
        },
        {
          "name": "E2",
          "midi": 40,
          "time": 24.800000000000004,
          "velocity": 0.1968503937007874,
          "duration": 0.053333333333334565
        },
        {
          "name": "C2",
          "midi": 36,
          "time": 24.800000000000004,
          "velocity": 0.2755905511811024,
          "duration": 0.053333333333334565
        },
        {
          "name": "E2",
          "midi": 40,
          "time": 25.000000000000007,
          "velocity": 0.2755905511811024,
          "duration": 0.04833333333333201
        },
        {
          "name": "E2",
          "midi": 40,
          "time": 25.200000000000006,
          "velocity": 0.3543307086614173,
          "duration": 0.053333333333334565
        },
        {
          "name": "E2",
          "midi": 40,
          "time": 25.40000000000001,
          "velocity": 0.3543307086614173,
          "duration": 0.04833333333333201
        },
        {
          "name": "C2",
          "midi": 36,
          "time": 25.60000000000001,
          "velocity": 0.3937007874015748,
          "duration": 0.053333333333334565
        },
        {
          "name": "E2",
          "midi": 40,
          "time": 25.60000000000001,
          "velocity": 0.3937007874015748,
          "duration": 0.053333333333334565
        },
        {
          "name": "C2",
          "midi": 36,
          "time": 25.60000000000001,
          "velocity": 0.3937007874015748,
          "duration": 0.053333333333334565
        },
        {
          "name": "E2",
          "midi": 40,
          "time": 25.60000000000001,
          "velocity": 0.3937007874015748,
          "duration": 0.053333333333334565
        },
        {
          "name": "E2",
          "midi": 40,
          "time": 25.80000000000001,
          "velocity": 0.3937007874015748,
          "duration": 0.04833333333333201
        },
        {
          "name": "E2",
          "midi": 40,
          "time": 26.00000000000001,
          "velocity": 0.3937007874015748,
          "duration": 0.053333333333334565
        },
        {
          "name": "E2",
          "midi": 40,
          "time": 26.200000000000014,
          "velocity": 0.3937007874015748,
          "duration": 0.04833333333333201
        },
        {
          "name": "E2",
          "midi": 40,
          "time": 26.400000000000013,
          "velocity": 0.3937007874015748,
          "duration": 0.053333333333334565
        },
        {
          "name": "C2",
          "midi": 36,
          "time": 26.400000000000013,
          "velocity": 0.3937007874015748,
          "duration": 0.053333333333334565
        },
        {
          "name": "E2",
          "midi": 40,
          "time": 26.600000000000016,
          "velocity": 0.3937007874015748,
          "duration": 0.04833333333333201
        },
        {
          "name": "E2",
          "midi": 40,
          "time": 26.800000000000015,
          "velocity": 0.3937007874015748,
          "duration": 0.053333333333334565
        },
        {
          "name": "E2",
          "midi": 40,
          "time": 27.000000000000018,
          "velocity": 0.3937007874015748,
          "duration": 0.04833333333333201
        },
        {
          "name": "C2",
          "midi": 36,
          "time": 27.200000000000017,
          "velocity": 0.3937007874015748,
          "duration": 0.053333333333334565
        },
        {
          "name": "E2",
          "midi": 40,
          "time": 27.200000000000017,
          "velocity": 0.3937007874015748,
          "duration": 0.053333333333334565
        },
        {
          "name": "E2",
          "midi": 40,
          "time": 27.40000000000002,
          "velocity": 0.3937007874015748,
          "duration": 0.04833333333333201
        },
        {
          "name": "E2",
          "midi": 40,
          "time": 27.60000000000002,
          "velocity": 0.3937007874015748,
          "duration": 0.053333333333334565
        },
        {
          "name": "E2",
          "midi": 40,
          "time": 27.800000000000022,
          "velocity": 0.3937007874015748,
          "duration": 0.04833333333333201
        },
        {
          "name": "E2",
          "midi": 40,
          "time": 28.00000000000002,
          "velocity": 0.3937007874015748,
          "duration": 0.053333333333334565
        },
        {
          "name": "C2",
          "midi": 36,
          "time": 28.00000000000002,
          "velocity": 0.3937007874015748,
          "duration": 0.053333333333334565
        },
        {
          "name": "E2",
          "midi": 40,
          "time": 28.200000000000024,
          "velocity": 0.3937007874015748,
          "duration": 0.04833333333333201
        },
        {
          "name": "E2",
          "midi": 40,
          "time": 28.400000000000023,
          "velocity": 0.3937007874015748,
          "duration": 0.053333333333334565
        },
        {
          "name": "E2",
          "midi": 40,
          "time": 28.600000000000026,
          "velocity": 0.3937007874015748,
          "duration": 0.04833333333333201
        },
        {
          "name": "C2",
          "midi": 36,
          "time": 28.800000000000026,
          "velocity": 0.3937007874015748,
          "duration": 0.053333333333334565
        },
        {
          "name": "E2",
          "midi": 40,
          "time": 28.800000000000026,
          "velocity": 0.3937007874015748,
          "duration": 0.053333333333334565
        },
        {
          "name": "E2",
          "midi": 40,
          "time": 29.00000000000003,
          "velocity": 0.3937007874015748,
          "duration": 0.04833333333333201
        },
        {
          "name": "E2",
          "midi": 40,
          "time": 29.200000000000028,
          "velocity": 0.3937007874015748,
          "duration": 0.053333333333334565
        },
        {
          "name": "E2",
          "midi": 40,
          "time": 29.40000000000003,
          "velocity": 0.3937007874015748,
          "duration": 0.04833333333333201
        },
        {
          "name": "E2",
          "midi": 40,
          "time": 29.60000000000003,
          "velocity": 0.3937007874015748,
          "duration": 0.053333333333334565
        },
        {
          "name": "C2",
          "midi": 36,
          "time": 29.60000000000003,
          "velocity": 0.3937007874015748,
          "duration": 0.053333333333334565
        },
        {
          "name": "E2",
          "midi": 40,
          "time": 29.800000000000033,
          "velocity": 0.3937007874015748,
          "duration": 0.04833333333333201
        },
        {
          "name": "E2",
          "midi": 40,
          "time": 30.000000000000032,
          "velocity": 0.3937007874015748,
          "duration": 0.053333333333334565
        },
        {
          "name": "E2",
          "midi": 40,
          "time": 30.200000000000035,
          "velocity": 0.3937007874015748,
          "duration": 0.04833333333333201
        },
        {
          "name": "C2",
          "midi": 36,
          "time": 30.400000000000034,
          "velocity": 0.3937007874015748,
          "duration": 0.053333333333334565
        },
        {
          "name": "E2",
          "midi": 40,
          "time": 30.400000000000034,
          "velocity": 0.3937007874015748,
          "duration": 0.053333333333334565
        },
        {
          "name": "E2",
          "midi": 40,
          "time": 30.600000000000037,
          "velocity": 0.3937007874015748,
          "duration": 0.04833333333333201
        },
        {
          "name": "E2",
          "midi": 40,
          "time": 30.800000000000036,
          "velocity": 0.3937007874015748,
          "duration": 0.053333333333334565
        },
        {
          "name": "E2",
          "midi": 40,
          "time": 31.00000000000004,
          "velocity": 0.3937007874015748,
          "duration": 0.04833333333333201
        },
        {
          "name": "E2",
          "midi": 40,
          "time": 31.20000000000004,
          "velocity": 0.3937007874015748,
          "duration": 0.053333333333334565
        },
        {
          "name": "C2",
          "midi": 36,
          "time": 31.20000000000004,
          "velocity": 0.3937007874015748,
          "duration": 0.053333333333334565
        },
        {
          "name": "E2",
          "midi": 40,
          "time": 31.40000000000004,
          "velocity": 0.3937007874015748,
          "duration": 0.04833333333333201
        },
        {
          "name": "E2",
          "midi": 40,
          "time": 31.60000000000004,
          "velocity": 0.3937007874015748,
          "duration": 0.053333333333334565
        },
        {
          "name": "E2",
          "midi": 40,
          "time": 31.800000000000043,
          "velocity": 0.3937007874015748,
          "duration": 0.04833333333333201
        },
        {
          "name": "C2",
          "midi": 36,
          "time": 32.00000000000004,
          "velocity": 0.3937007874015748,
          "duration": 0.053333333333334565
        },
        {
          "name": "E2",
          "midi": 40,
          "time": 32.00000000000004,
          "velocity": 0.3937007874015748,
          "duration": 0.053333333333334565
        },
        {
          "name": "E2",
          "midi": 40,
          "time": 32.200000000000045,
          "velocity": 0.3937007874015748,
          "duration": 0.04833333333333201
        },
        {
          "name": "E2",
          "midi": 40,
          "time": 32.40000000000004,
          "velocity": 0.3937007874015748,
          "duration": 0.053333333333334565
        },
        {
          "name": "E2",
          "midi": 40,
          "time": 32.600000000000044,
          "velocity": 0.3937007874015748,
          "duration": 0.04833333333333201
        },
        {
          "name": "E2",
          "midi": 40,
          "time": 32.80000000000004,
          "velocity": 0.3937007874015748,
          "duration": 0.053333333333334565
        },
        {
          "name": "C2",
          "midi": 36,
          "time": 32.80000000000004,
          "velocity": 0.3937007874015748,
          "duration": 0.053333333333334565
        },
        {
          "name": "E2",
          "midi": 40,
          "time": 33.00000000000004,
          "velocity": 0.3937007874015748,
          "duration": 0.04833333333333201
        },
        {
          "name": "E2",
          "midi": 40,
          "time": 33.20000000000004,
          "velocity": 0.3937007874015748,
          "duration": 0.053333333333334565
        },
        {
          "name": "E2",
          "midi": 40,
          "time": 33.40000000000004,
          "velocity": 0.3937007874015748,
          "duration": 0.04833333333333201
        },
        {
          "name": "E2",
          "midi": 40,
          "time": 33.60000000000004,
          "velocity": 0.5905511811023622,
          "duration": 0.053333333333334565
        },
        {
          "name": "C2",
          "midi": 36,
          "time": 33.60000000000004,
          "velocity": 0.5905511811023622,
          "duration": 0.053333333333334565
        },
        {
          "name": "C2",
          "midi": 36,
          "time": 33.80000000000004,
          "velocity": 0.6692913385826772,
          "duration": 0.04833333333333201
        },
        {
          "name": "E2",
          "midi": 40,
          "time": 33.80000000000004,
          "velocity": 0.6692913385826772,
          "duration": 0.04833333333333201
        },
        {
          "name": "C2",
          "midi": 36,
          "time": 34.000000000000036,
          "velocity": 0.7480314960629921,
          "duration": 0.053333333333334565
        },
        {
          "name": "E2",
          "midi": 40,
          "time": 34.000000000000036,
          "velocity": 0.7480314960629921,
          "duration": 0.053333333333334565
        },
        {
          "name": "C2",
          "midi": 36,
          "time": 34.20000000000004,
          "velocity": 0.7874015748031497,
          "duration": 0.04833333333333201
        },
        {
          "name": "E2",
          "midi": 40,
          "time": 34.20000000000004,
          "velocity": 0.7874015748031497,
          "duration": 0.04833333333333201
        },
        {
          "name": "C2",
          "midi": 36,
          "time": 34.400000000000034,
          "velocity": 0.7874015748031497,
          "duration": 0.053333333333334565
        },
        {
          "name": "E2",
          "midi": 40,
          "time": 34.400000000000034,
          "velocity": 0.7874015748031497,
          "duration": 0.053333333333334565
        },
        {
          "name": "C2",
          "midi": 36,
          "time": 34.60000000000004,
          "velocity": 0.7874015748031497,
          "duration": 0.04833333333333201
        },
        {
          "name": "E2",
          "midi": 40,
          "time": 34.60000000000004,
          "velocity": 0.7874015748031497,
          "duration": 0.04833333333333201
        },
        {
          "name": "C2",
          "midi": 36,
          "time": 34.80000000000003,
          "velocity": 0.7874015748031497,
          "duration": 0.053333333333334565
        },
        {
          "name": "E2",
          "midi": 40,
          "time": 34.80000000000003,
          "velocity": 0.7874015748031497,
          "duration": 0.053333333333334565
        },
        {
          "name": "C2",
          "midi": 36,
          "time": 35.000000000000036,
          "velocity": 0.7874015748031497,
          "duration": 0.04833333333333201
        },
        {
          "name": "E2",
          "midi": 40,
          "time": 35.000000000000036,
          "velocity": 0.7874015748031497,
          "duration": 0.04833333333333201
        },
        {
          "name": "C2",
          "midi": 36,
          "time": 35.20000000000003,
          "velocity": 0.7874015748031497,
          "duration": 0.06416666666666515
        },
        {
          "name": "C#3",
          "midi": 49,
          "time": 35.20000000000003,
          "velocity": 0.7874015748031497,
          "duration": 0.06416666666666515
        },
        {
          "name": "C2",
          "midi": 36,
          "time": 35.60000000000003,
          "velocity": 0.7874015748031497,
          "duration": 0.06416666666666515
        },
        {
          "name": "C#3",
          "midi": 49,
          "time": 35.60000000000003,
          "velocity": 0.7874015748031497,
          "duration": 0.06416666666666515
        },
        {
          "name": "E2",
          "midi": 40,
          "time": 36.00000000000003,
          "velocity": 0.7874015748031497,
          "duration": 0.06416666666666515
        },
        {
          "name": "C#3",
          "midi": 49,
          "time": 36.00000000000003,
          "velocity": 0.7874015748031497,
          "duration": 0.06416666666666515
        },
        {
          "name": "C2",
          "midi": 36,
          "time": 36.40000000000003,
          "velocity": 0.7874015748031497,
          "duration": 0.06416666666666515
        },
        {
          "name": "C#3",
          "midi": 49,
          "time": 36.40000000000003,
          "velocity": 0.7874015748031497,
          "duration": 0.06416666666666515
        },
        {
          "name": "C2",
          "midi": 36,
          "time": 36.594166666666695,
          "velocity": 0.7874015748031497,
          "duration": 0.05416666666666714
        },
        {
          "name": "C#3",
          "midi": 49,
          "time": 36.800000000000026,
          "velocity": 0.7874015748031497,
          "duration": 0.06416666666666515
        },
        {
          "name": "C2",
          "midi": 36,
          "time": 36.99416666666669,
          "velocity": 0.7874015748031497,
          "duration": 0.05416666666666714
        },
        {
          "name": "C2",
          "midi": 36,
          "time": 37.200000000000024,
          "velocity": 0.7874015748031497,
          "duration": 0.06416666666666515
        },
        {
          "name": "C#3",
          "midi": 49,
          "time": 37.200000000000024,
          "velocity": 0.7874015748031497,
          "duration": 0.06416666666666515
        },
        {
          "name": "E2",
          "midi": 40,
          "time": 37.60000000000002,
          "velocity": 0.7874015748031497,
          "duration": 0.06416666666666515
        },
        {
          "name": "C#3",
          "midi": 49,
          "time": 37.60000000000002,
          "velocity": 0.7874015748031497,
          "duration": 0.06416666666666515
        },
        {
          "name": "C2",
          "midi": 36,
          "time": 38.00000000000002,
          "velocity": 0.7874015748031497,
          "duration": 0.06416666666666515
        },
        {
          "name": "C#3",
          "midi": 49,
          "time": 38.00000000000002,
          "velocity": 0.7874015748031497,
          "duration": 0.06416666666666515
        },
        {
          "name": "C2",
          "midi": 36,
          "time": 38.40000000000002,
          "velocity": 0.7874015748031497,
          "duration": 0.06416666666666515
        },
        {
          "name": "C#3",
          "midi": 49,
          "time": 38.40000000000002,
          "velocity": 0.7874015748031497,
          "duration": 0.06416666666666515
        },
        {
          "name": "C2",
          "midi": 36,
          "time": 38.80000000000002,
          "velocity": 0.7874015748031497,
          "duration": 0.06416666666666515
        },
        {
          "name": "C#3",
          "midi": 49,
          "time": 38.80000000000002,
          "velocity": 0.7874015748031497,
          "duration": 0.06416666666666515
        },
        {
          "name": "E2",
          "midi": 40,
          "time": 39.20000000000002,
          "velocity": 0.7874015748031497,
          "duration": 0.06416666666666515
        },
        {
          "name": "C#3",
          "midi": 49,
          "time": 39.20000000000002,
          "velocity": 0.7874015748031497,
          "duration": 0.06416666666666515
        },
        {
          "name": "C2",
          "midi": 36,
          "time": 39.600000000000016,
          "velocity": 0.7874015748031497,
          "duration": 0.06416666666666515
        },
        {
          "name": "C#3",
          "midi": 49,
          "time": 39.600000000000016,
          "velocity": 0.7874015748031497,
          "duration": 0.06416666666666515
        },
        {
          "name": "C2",
          "midi": 36,
          "time": 39.79416666666668,
          "velocity": 0.7874015748031497,
          "duration": 0.05416666666666714
        },
        {
          "name": "C#3",
          "midi": 49,
          "time": 40.000000000000014,
          "velocity": 0.7874015748031497,
          "duration": 0.06416666666666515
        },
        {
          "name": "C2",
          "midi": 36,
          "time": 40.19416666666668,
          "velocity": 0.7874015748031497,
          "duration": 0.05416666666666714
        },
        {
          "name": "E2",
          "midi": 40,
          "time": 40.40000000000001,
          "velocity": 0.7874015748031497,
          "duration": 0.06416666666666515
        },
        {
          "name": "A3",
          "midi": 57,
          "time": 40.40000000000001,
          "velocity": 0.7874015748031497,
          "duration": 0.06416666666666515
        },
        {
          "name": "E2",
          "midi": 40,
          "time": 40.80000000000001,
          "velocity": 0.7874015748031497,
          "duration": 0.06416666666666515
        },
        {
          "name": "C#3",
          "midi": 49,
          "time": 40.80000000000001,
          "velocity": 0.7874015748031497,
          "duration": 0.06416666666666515
        },
        {
          "name": "A3",
          "midi": 57,
          "time": 41.20000000000001,
          "velocity": 0.7874015748031497,
          "duration": 0.053333333333334565
        },
        {
          "name": "E2",
          "midi": 40,
          "time": 41.20000000000001,
          "velocity": 0.7874015748031497,
          "duration": 0.06416666666666515
        },
        {
          "name": "C2",
          "midi": 36,
          "time": 41.60000000000001,
          "velocity": 0.7874015748031497,
          "duration": 0.06416666666666515
        },
        {
          "name": "C#3",
          "midi": 49,
          "time": 41.60000000000001,
          "velocity": 0.7874015748031497,
          "duration": 0.06416666666666515
        },
        {
          "name": "C2",
          "midi": 36,
          "time": 42.00000000000001,
          "velocity": 0.7874015748031497,
          "duration": 0.06416666666666515
        },
        {
          "name": "C#3",
          "midi": 49,
          "time": 42.00000000000001,
          "velocity": 0.7874015748031497,
          "duration": 0.06416666666666515
        },
        {
          "name": "E2",
          "midi": 40,
          "time": 42.400000000000006,
          "velocity": 0.7874015748031497,
          "duration": 0.06416666666666515
        },
        {
          "name": "C#3",
          "midi": 49,
          "time": 42.400000000000006,
          "velocity": 0.7874015748031497,
          "duration": 0.06416666666666515
        },
        {
          "name": "C2",
          "midi": 36,
          "time": 42.800000000000004,
          "velocity": 0.7874015748031497,
          "duration": 0.06416666666666515
        },
        {
          "name": "C#3",
          "midi": 49,
          "time": 42.800000000000004,
          "velocity": 0.7874015748031497,
          "duration": 0.06416666666666515
        },
        {
          "name": "C2",
          "midi": 36,
          "time": 42.99416666666667,
          "velocity": 0.7874015748031497,
          "duration": 0.05416666666666714
        },
        {
          "name": "C#3",
          "midi": 49,
          "time": 43.2,
          "velocity": 0.7874015748031497,
          "duration": 0.06416666666666515
        },
        {
          "name": "C2",
          "midi": 36,
          "time": 43.39416666666667,
          "velocity": 0.7874015748031497,
          "duration": 0.05416666666666714
        },
        {
          "name": "C2",
          "midi": 36,
          "time": 43.6,
          "velocity": 0.7874015748031497,
          "duration": 0.06416666666666515
        },
        {
          "name": "C#3",
          "midi": 49,
          "time": 43.6,
          "velocity": 0.7874015748031497,
          "duration": 0.06416666666666515
        },
        {
          "name": "E2",
          "midi": 40,
          "time": 44,
          "velocity": 0.7874015748031497,
          "duration": 0.06416666666666515
        },
        {
          "name": "C#3",
          "midi": 49,
          "time": 44,
          "velocity": 0.7874015748031497,
          "duration": 0.06416666666666515
        },
        {
          "name": "C2",
          "midi": 36,
          "time": 44.4,
          "velocity": 0.7874015748031497,
          "duration": 0.06416666666666515
        },
        {
          "name": "C#3",
          "midi": 49,
          "time": 44.4,
          "velocity": 0.7874015748031497,
          "duration": 0.06416666666666515
        },
        {
          "name": "C2",
          "midi": 36,
          "time": 44.8,
          "velocity": 0.7874015748031497,
          "duration": 0.06416666666666515
        },
        {
          "name": "C#3",
          "midi": 49,
          "time": 44.8,
          "velocity": 0.7874015748031497,
          "duration": 0.06416666666666515
        },
        {
          "name": "C2",
          "midi": 36,
          "time": 45.199999999999996,
          "velocity": 0.7874015748031497,
          "duration": 0.06416666666666515
        },
        {
          "name": "C#3",
          "midi": 49,
          "time": 45.199999999999996,
          "velocity": 0.7874015748031497,
          "duration": 0.06416666666666515
        },
        {
          "name": "E2",
          "midi": 40,
          "time": 45.599999999999994,
          "velocity": 0.7874015748031497,
          "duration": 0.06416666666666515
        },
        {
          "name": "C#3",
          "midi": 49,
          "time": 45.599999999999994,
          "velocity": 0.7874015748031497,
          "duration": 0.06416666666666515
        },
        {
          "name": "C2",
          "midi": 36,
          "time": 45.99999999999999,
          "velocity": 0.7874015748031497,
          "duration": 0.06416666666666515
        },
        {
          "name": "C#3",
          "midi": 49,
          "time": 45.99999999999999,
          "velocity": 0.7874015748031497,
          "duration": 0.06416666666666515
        },
        {
          "name": "C2",
          "midi": 36,
          "time": 46.19416666666666,
          "velocity": 0.7874015748031497,
          "duration": 0.05416666666666714
        },
        {
          "name": "C#3",
          "midi": 49,
          "time": 46.39999999999999,
          "velocity": 0.7874015748031497,
          "duration": 0.06416666666666515
        },
        {
          "name": "C2",
          "midi": 36,
          "time": 46.59416666666666,
          "velocity": 0.7874015748031497,
          "duration": 0.05416666666666714
        },
        {
          "name": "E2",
          "midi": 40,
          "time": 46.79999999999999,
          "velocity": 0.7874015748031497,
          "duration": 0.06416666666666515
        },
        {
          "name": "A3",
          "midi": 57,
          "time": 46.79999999999999,
          "velocity": 0.7874015748031497,
          "duration": 0.06416666666666515
        },
        {
          "name": "E2",
          "midi": 40,
          "time": 47.19999999999999,
          "velocity": 0.7874015748031497,
          "duration": 0.06416666666666515
        },
        {
          "name": "C#3",
          "midi": 49,
          "time": 47.19999999999999,
          "velocity": 0.7874015748031497,
          "duration": 0.06416666666666515
        },
        {
          "name": "A3",
          "midi": 57,
          "time": 47.59999999999999,
          "velocity": 0.7874015748031497,
          "duration": 0.053333333333334565
        },
        {
          "name": "E2",
          "midi": 40,
          "time": 47.59999999999999,
          "velocity": 0.7874015748031497,
          "duration": 0.06416666666666515
        },
        {
          "name": "C2",
          "midi": 36,
          "time": 47.999999999999986,
          "velocity": 0.7874015748031497,
          "duration": 0.06416666666666515
        },
        {
          "name": "C#3",
          "midi": 49,
          "time": 47.999999999999986,
          "velocity": 0.7874015748031497,
          "duration": 0.06416666666666515
        },
        {
          "name": "C2",
          "midi": 36,
          "time": 48.399999999999984,
          "velocity": 0.7874015748031497,
          "duration": 0.06416666666666515
        },
        {
          "name": "C#3",
          "midi": 49,
          "time": 48.399999999999984,
          "velocity": 0.7874015748031497,
          "duration": 0.06416666666666515
        },
        {
          "name": "E2",
          "midi": 40,
          "time": 48.79999999999998,
          "velocity": 0.7874015748031497,
          "duration": 0.06416666666666515
        },
        {
          "name": "C#3",
          "midi": 49,
          "time": 48.79999999999998,
          "velocity": 0.7874015748031497,
          "duration": 0.06416666666666515
        },
        {
          "name": "C2",
          "midi": 36,
          "time": 49.19999999999998,
          "velocity": 0.7874015748031497,
          "duration": 0.06416666666666515
        },
        {
          "name": "C#3",
          "midi": 49,
          "time": 49.19999999999998,
          "velocity": 0.7874015748031497,
          "duration": 0.06416666666666515
        },
        {
          "name": "C2",
          "midi": 36,
          "time": 49.39416666666665,
          "velocity": 0.7874015748031497,
          "duration": 0.05416666666666714
        },
        {
          "name": "C#3",
          "midi": 49,
          "time": 49.59999999999998,
          "velocity": 0.7874015748031497,
          "duration": 0.06416666666666515
        },
        {
          "name": "C2",
          "midi": 36,
          "time": 49.79416666666665,
          "velocity": 0.7874015748031497,
          "duration": 0.05416666666666714
        },
        {
          "name": "C2",
          "midi": 36,
          "time": 49.99999999999998,
          "velocity": 0.7874015748031497,
          "duration": 0.06416666666666515
        },
        {
          "name": "C#3",
          "midi": 49,
          "time": 49.99999999999998,
          "velocity": 0.7874015748031497,
          "duration": 0.06416666666666515
        },
        {
          "name": "E2",
          "midi": 40,
          "time": 50.39999999999998,
          "velocity": 0.7874015748031497,
          "duration": 0.06416666666666515
        },
        {
          "name": "C#3",
          "midi": 49,
          "time": 50.39999999999998,
          "velocity": 0.7874015748031497,
          "duration": 0.06416666666666515
        },
        {
          "name": "C2",
          "midi": 36,
          "time": 50.799999999999976,
          "velocity": 0.7874015748031497,
          "duration": 0.06416666666666515
        },
        {
          "name": "C#3",
          "midi": 49,
          "time": 50.799999999999976,
          "velocity": 0.7874015748031497,
          "duration": 0.06416666666666515
        },
        {
          "name": "C2",
          "midi": 36,
          "time": 51.199999999999974,
          "velocity": 0.7874015748031497,
          "duration": 0.06416666666666515
        },
        {
          "name": "C#3",
          "midi": 49,
          "time": 51.199999999999974,
          "velocity": 0.7874015748031497,
          "duration": 0.06416666666666515
        },
        {
          "name": "C2",
          "midi": 36,
          "time": 51.59999999999997,
          "velocity": 0.7874015748031497,
          "duration": 0.06416666666666515
        },
        {
          "name": "C#3",
          "midi": 49,
          "time": 51.59999999999997,
          "velocity": 0.7874015748031497,
          "duration": 0.06416666666666515
        },
        {
          "name": "E2",
          "midi": 40,
          "time": 51.99999999999997,
          "velocity": 0.7874015748031497,
          "duration": 0.06416666666666515
        },
        {
          "name": "C#3",
          "midi": 49,
          "time": 51.99999999999997,
          "velocity": 0.7874015748031497,
          "duration": 0.06416666666666515
        },
        {
          "name": "C2",
          "midi": 36,
          "time": 52.39999999999997,
          "velocity": 0.7874015748031497,
          "duration": 0.06416666666666515
        },
        {
          "name": "C#3",
          "midi": 49,
          "time": 52.39999999999997,
          "velocity": 0.7874015748031497,
          "duration": 0.06416666666666515
        },
        {
          "name": "C2",
          "midi": 36,
          "time": 52.59416666666664,
          "velocity": 0.7874015748031497,
          "duration": 0.05416666666666714
        },
        {
          "name": "C#3",
          "midi": 49,
          "time": 52.79999999999997,
          "velocity": 0.7874015748031497,
          "duration": 0.06416666666666515
        },
        {
          "name": "C2",
          "midi": 36,
          "time": 52.994166666666636,
          "velocity": 0.7874015748031497,
          "duration": 0.05416666666666714
        },
        {
          "name": "E2",
          "midi": 40,
          "time": 53.19999999999997,
          "velocity": 0.7874015748031497,
          "duration": 0.06416666666666515
        },
        {
          "name": "A3",
          "midi": 57,
          "time": 53.19999999999997,
          "velocity": 0.7874015748031497,
          "duration": 0.06416666666666515
        },
        {
          "name": "E2",
          "midi": 40,
          "time": 53.599999999999966,
          "velocity": 0.7874015748031497,
          "duration": 0.06416666666666515
        },
        {
          "name": "C#3",
          "midi": 49,
          "time": 53.599999999999966,
          "velocity": 0.7874015748031497,
          "duration": 0.06416666666666515
        },
        {
          "name": "A3",
          "midi": 57,
          "time": 53.999999999999964,
          "velocity": 0.7874015748031497,
          "duration": 0.053333333333334565
        },
        {
          "name": "E2",
          "midi": 40,
          "time": 53.999999999999964,
          "velocity": 0.7874015748031497,
          "duration": 0.06416666666666515
        },
        {
          "name": "C2",
          "midi": 36,
          "time": 54.39999999999996,
          "velocity": 0.7874015748031497,
          "duration": 0.06416666666666515
        },
        {
          "name": "C#3",
          "midi": 49,
          "time": 54.39999999999996,
          "velocity": 0.7874015748031497,
          "duration": 0.06416666666666515
        },
        {
          "name": "C2",
          "midi": 36,
          "time": 54.79999999999996,
          "velocity": 0.7874015748031497,
          "duration": 0.06416666666666515
        },
        {
          "name": "C#3",
          "midi": 49,
          "time": 54.79999999999996,
          "velocity": 0.7874015748031497,
          "duration": 0.06416666666666515
        },
        {
          "name": "E2",
          "midi": 40,
          "time": 55.19999999999996,
          "velocity": 0.7874015748031497,
          "duration": 0.06416666666666515
        },
        {
          "name": "C#3",
          "midi": 49,
          "time": 55.19999999999996,
          "velocity": 0.7874015748031497,
          "duration": 0.06416666666666515
        },
        {
          "name": "C2",
          "midi": 36,
          "time": 55.59999999999996,
          "velocity": 0.7874015748031497,
          "duration": 0.06416666666666515
        },
        {
          "name": "C#3",
          "midi": 49,
          "time": 55.59999999999996,
          "velocity": 0.7874015748031497,
          "duration": 0.06416666666666515
        },
        {
          "name": "C2",
          "midi": 36,
          "time": 55.79416666666663,
          "velocity": 0.7874015748031497,
          "duration": 0.05416666666666714
        },
        {
          "name": "C#3",
          "midi": 49,
          "time": 55.99999999999996,
          "velocity": 0.7874015748031497,
          "duration": 0.06416666666666515
        },
        {
          "name": "C2",
          "midi": 36,
          "time": 56.194166666666625,
          "velocity": 0.7874015748031497,
          "duration": 0.05416666666666714
        },
        {
          "name": "C2",
          "midi": 36,
          "time": 56.399999999999956,
          "velocity": 0.7874015748031497,
          "duration": 0.06416666666666515
        },
        {
          "name": "C#3",
          "midi": 49,
          "time": 56.399999999999956,
          "velocity": 0.7874015748031497,
          "duration": 0.06416666666666515
        },
        {
          "name": "E2",
          "midi": 40,
          "time": 56.799999999999955,
          "velocity": 0.7874015748031497,
          "duration": 0.06416666666666515
        },
        {
          "name": "C#3",
          "midi": 49,
          "time": 56.799999999999955,
          "velocity": 0.7874015748031497,
          "duration": 0.06416666666666515
        },
        {
          "name": "C2",
          "midi": 36,
          "time": 57.19999999999995,
          "velocity": 0.7874015748031497,
          "duration": 0.06416666666666515
        },
        {
          "name": "C#3",
          "midi": 49,
          "time": 57.19999999999995,
          "velocity": 0.7874015748031497,
          "duration": 0.06416666666666515
        },
        {
          "name": "C2",
          "midi": 36,
          "time": 57.59999999999995,
          "velocity": 0.7874015748031497,
          "duration": 0.06416666666666515
        },
        {
          "name": "C#3",
          "midi": 49,
          "time": 57.59999999999995,
          "velocity": 0.7874015748031497,
          "duration": 0.06416666666666515
        },
        {
          "name": "C2",
          "midi": 36,
          "time": 57.99999999999995,
          "velocity": 0.7874015748031497,
          "duration": 0.06416666666666515
        },
        {
          "name": "C#3",
          "midi": 49,
          "time": 57.99999999999995,
          "velocity": 0.7874015748031497,
          "duration": 0.06416666666666515
        },
        {
          "name": "E2",
          "midi": 40,
          "time": 58.39999999999995,
          "velocity": 0.7874015748031497,
          "duration": 0.06416666666666515
        },
        {
          "name": "C#3",
          "midi": 49,
          "time": 58.39999999999995,
          "velocity": 0.7874015748031497,
          "duration": 0.06416666666666515
        },
        {
          "name": "C2",
          "midi": 36,
          "time": 58.79999999999995,
          "velocity": 0.7874015748031497,
          "duration": 0.06416666666666515
        },
        {
          "name": "C#3",
          "midi": 49,
          "time": 58.79999999999995,
          "velocity": 0.7874015748031497,
          "duration": 0.06416666666666515
        },
        {
          "name": "C2",
          "midi": 36,
          "time": 58.994166666666615,
          "velocity": 0.7874015748031497,
          "duration": 0.05416666666666714
        },
        {
          "name": "C#3",
          "midi": 49,
          "time": 59.199999999999946,
          "velocity": 0.7874015748031497,
          "duration": 0.06416666666666515
        },
        {
          "name": "C2",
          "midi": 36,
          "time": 59.39999999999994,
          "velocity": 0.7874015748031497,
          "duration": 0.05416666666666714
        },
        {
          "name": "E2",
          "midi": 40,
          "time": 59.599999999999945,
          "velocity": 0.7874015748031497,
          "duration": 0.06416666666666515
        },
        {
          "name": "A3",
          "midi": 57,
          "time": 59.599999999999945,
          "velocity": 0.7874015748031497,
          "duration": 0.06416666666666515
        },
        {
          "name": "A#2",
          "midi": 46,
          "time": 59.99999999999994,
          "velocity": 0.7874015748031497,
          "duration": 0.053333333333334565
        },
        {
          "name": "A#2",
          "midi": 46,
          "time": 60.79999999999995,
          "velocity": 0.7874015748031497,
          "duration": 0.053333333333334565
        },
        {
          "name": "A#2",
          "midi": 46,
          "time": 61.59999999999995,
          "velocity": 0.7874015748031497,
          "duration": 0.053333333333334565
        },
        {
          "name": "A#2",
          "midi": 46,
          "time": 62.399999999999956,
          "velocity": 0.7874015748031497,
          "duration": 0.053333333333334565
        },
        {
          "name": "C2",
          "midi": 36,
          "time": 62.399999999999956,
          "velocity": 0.7874015748031497,
          "duration": 0.053333333333334565
        },
        {
          "name": "A#2",
          "midi": 46,
          "time": 62.799999999999955,
          "velocity": 0.7874015748031497,
          "duration": 0.053333333333334565
        },
        {
          "name": "C2",
          "midi": 36,
          "time": 62.799999999999955,
          "velocity": 0.7874015748031497,
          "duration": 0.053333333333334565
        },
        {
          "name": "A#2",
          "midi": 46,
          "time": 63.19999999999995,
          "velocity": 0.7874015748031497,
          "duration": 0.053333333333334565
        },
        {
          "name": "E2",
          "midi": 40,
          "time": 63.19999999999995,
          "velocity": 0.7874015748031497,
          "duration": 0.053333333333334565
        },
        {
          "name": "A#2",
          "midi": 46,
          "time": 63.59999999999995,
          "velocity": 0.7874015748031497,
          "duration": 0.053333333333334565
        },
        {
          "name": "C2",
          "midi": 36,
          "time": 63.99999999999995,
          "velocity": 0.7874015748031497,
          "duration": 0.053333333333334565
        },
        {
          "name": "A#2",
          "midi": 46,
          "time": 63.99999999999995,
          "velocity": 0.7874015748031497,
          "duration": 0.053333333333334565
        },
        {
          "name": "C2",
          "midi": 36,
          "time": 64.19999999999995,
          "velocity": 0.7874015748031497,
          "duration": 0.04833333333333201
        },
        {
          "name": "A#2",
          "midi": 46,
          "time": 64.39999999999995,
          "velocity": 0.7874015748031497,
          "duration": 0.05333333333332746
        },
        {
          "name": "C2",
          "midi": 36,
          "time": 64.59999999999994,
          "velocity": 0.7874015748031497,
          "duration": 0.05333333333332746
        },
        {
          "name": "A#2",
          "midi": 46,
          "time": 64.79999999999993,
          "velocity": 0.7874015748031497,
          "duration": 0.05333333333332746
        },
        {
          "name": "E2",
          "midi": 40,
          "time": 64.79999999999993,
          "velocity": 0.7874015748031497,
          "duration": 0.05333333333332746
        },
        {
          "name": "A#2",
          "midi": 46,
          "time": 65.19999999999992,
          "velocity": 0.7874015748031497,
          "duration": 0.05333333333332746
        },
        {
          "name": "A#2",
          "midi": 46,
          "time": 65.59999999999991,
          "velocity": 0.7874015748031497,
          "duration": 0.05333333333332746
        },
        {
          "name": "C2",
          "midi": 36,
          "time": 65.59999999999991,
          "velocity": 0.7874015748031497,
          "duration": 0.05333333333332746
        },
        {
          "name": "A#2",
          "midi": 46,
          "time": 65.9999999999999,
          "velocity": 0.7874015748031497,
          "duration": 0.05333333333332746
        },
        {
          "name": "C2",
          "midi": 36,
          "time": 65.9999999999999,
          "velocity": 0.7874015748031497,
          "duration": 0.05333333333332746
        },
        {
          "name": "A#2",
          "midi": 46,
          "time": 66.39999999999989,
          "velocity": 0.7874015748031497,
          "duration": 0.05333333333332746
        },
        {
          "name": "E2",
          "midi": 40,
          "time": 66.39999999999989,
          "velocity": 0.7874015748031497,
          "duration": 0.05333333333332746
        },
        {
          "name": "A#2",
          "midi": 46,
          "time": 66.79999999999988,
          "velocity": 0.7874015748031497,
          "duration": 0.05333333333332746
        },
        {
          "name": "C2",
          "midi": 36,
          "time": 67.19999999999987,
          "velocity": 0.7874015748031497,
          "duration": 0.05333333333332746
        },
        {
          "name": "A#2",
          "midi": 46,
          "time": 67.19999999999987,
          "velocity": 0.7874015748031497,
          "duration": 0.05333333333332746
        },
        {
          "name": "C2",
          "midi": 36,
          "time": 67.39999999999986,
          "velocity": 0.7874015748031497,
          "duration": 0.04833333333333201
        },
        {
          "name": "A#2",
          "midi": 46,
          "time": 67.59999999999987,
          "velocity": 0.7874015748031497,
          "duration": 0.05333333333332746
        },
        {
          "name": "C2",
          "midi": 36,
          "time": 67.79999999999986,
          "velocity": 0.7874015748031497,
          "duration": 0.05333333333332746
        },
        {
          "name": "A#2",
          "midi": 46,
          "time": 67.99999999999984,
          "velocity": 0.7874015748031497,
          "duration": 0.05333333333332746
        },
        {
          "name": "E2",
          "midi": 40,
          "time": 67.99999999999984,
          "velocity": 0.7874015748031497,
          "duration": 0.05333333333332746
        },
        {
          "name": "A#2",
          "midi": 46,
          "time": 68.39999999999984,
          "velocity": 0.7874015748031497,
          "duration": 0.05333333333332746
        },
        {
          "name": "A#2",
          "midi": 46,
          "time": 68.79999999999983,
          "velocity": 0.7874015748031497,
          "duration": 0.05333333333332746
        },
        {
          "name": "C2",
          "midi": 36,
          "time": 68.79999999999983,
          "velocity": 0.7874015748031497,
          "duration": 0.05333333333332746
        },
        {
          "name": "A#2",
          "midi": 46,
          "time": 69.19999999999982,
          "velocity": 0.7874015748031497,
          "duration": 0.05333333333332746
        },
        {
          "name": "C2",
          "midi": 36,
          "time": 69.19999999999982,
          "velocity": 0.7874015748031497,
          "duration": 0.05333333333332746
        },
        {
          "name": "A#2",
          "midi": 46,
          "time": 69.59999999999981,
          "velocity": 0.7874015748031497,
          "duration": 0.05333333333332746
        },
        {
          "name": "E2",
          "midi": 40,
          "time": 69.59999999999981,
          "velocity": 0.7874015748031497,
          "duration": 0.05333333333332746
        },
        {
          "name": "A#2",
          "midi": 46,
          "time": 69.9999999999998,
          "velocity": 0.7874015748031497,
          "duration": 0.05333333333332746
        },
        {
          "name": "C2",
          "midi": 36,
          "time": 70.39999999999979,
          "velocity": 0.7874015748031497,
          "duration": 0.05333333333332746
        },
        {
          "name": "A#2",
          "midi": 46,
          "time": 70.39999999999979,
          "velocity": 0.7874015748031497,
          "duration": 0.05333333333332746
        },
        {
          "name": "C2",
          "midi": 36,
          "time": 70.59999999999978,
          "velocity": 0.7874015748031497,
          "duration": 0.04833333333333201
        },
        {
          "name": "A#2",
          "midi": 46,
          "time": 70.79999999999978,
          "velocity": 0.7874015748031497,
          "duration": 0.05333333333332746
        },
        {
          "name": "C2",
          "midi": 36,
          "time": 70.99999999999977,
          "velocity": 0.7874015748031497,
          "duration": 0.05333333333332746
        },
        {
          "name": "A#2",
          "midi": 46,
          "time": 71.19999999999976,
          "velocity": 0.7874015748031497,
          "duration": 0.05333333333332746
        },
        {
          "name": "E2",
          "midi": 40,
          "time": 71.19999999999976,
          "velocity": 0.7874015748031497,
          "duration": 0.05333333333332746
        },
        {
          "name": "A#2",
          "midi": 46,
          "time": 71.59999999999975,
          "velocity": 0.7874015748031497,
          "duration": 0.05333333333332746
        },
        {
          "name": "A#2",
          "midi": 46,
          "time": 71.99999999999974,
          "velocity": 0.7874015748031497,
          "duration": 0.05333333333332746
        },
        {
          "name": "C2",
          "midi": 36,
          "time": 71.99999999999974,
          "velocity": 0.7874015748031497,
          "duration": 0.05333333333332746
        },
        {
          "name": "A#2",
          "midi": 46,
          "time": 72.39999999999974,
          "velocity": 0.7874015748031497,
          "duration": 0.05333333333332746
        },
        {
          "name": "C2",
          "midi": 36,
          "time": 72.39999999999974,
          "velocity": 0.7874015748031497,
          "duration": 0.05333333333332746
        },
        {
          "name": "A#2",
          "midi": 46,
          "time": 72.79999999999973,
          "velocity": 0.7874015748031497,
          "duration": 0.05333333333332746
        },
        {
          "name": "E2",
          "midi": 40,
          "time": 72.79999999999973,
          "velocity": 0.7874015748031497,
          "duration": 0.05333333333332746
        },
        {
          "name": "A#2",
          "midi": 46,
          "time": 73.19999999999972,
          "velocity": 0.7874015748031497,
          "duration": 0.05333333333332746
        },
        {
          "name": "C2",
          "midi": 36,
          "time": 73.59999999999971,
          "velocity": 0.7874015748031497,
          "duration": 0.05333333333332746
        },
        {
          "name": "A#2",
          "midi": 46,
          "time": 73.59999999999971,
          "velocity": 0.7874015748031497,
          "duration": 0.05333333333332746
        },
        {
          "name": "C2",
          "midi": 36,
          "time": 73.7999999999997,
          "velocity": 0.7874015748031497,
          "duration": 0.04833333333333201
        },
        {
          "name": "A#2",
          "midi": 46,
          "time": 73.9999999999997,
          "velocity": 0.7874015748031497,
          "duration": 0.05333333333332746
        },
        {
          "name": "C2",
          "midi": 36,
          "time": 74.19999999999969,
          "velocity": 0.7874015748031497,
          "duration": 0.05333333333332746
        },
        {
          "name": "A#2",
          "midi": 46,
          "time": 74.39999999999968,
          "velocity": 0.7874015748031497,
          "duration": 0.05333333333332746
        },
        {
          "name": "E2",
          "midi": 40,
          "time": 74.39999999999968,
          "velocity": 0.7874015748031497,
          "duration": 0.05333333333332746
        },
        {
          "name": "A#2",
          "midi": 46,
          "time": 74.79999999999967,
          "velocity": 0.7874015748031497,
          "duration": 0.05333333333332746
        },
        {
          "name": "A#2",
          "midi": 46,
          "time": 75.19999999999966,
          "velocity": 0.7874015748031497,
          "duration": 0.05333333333332746
        },
        {
          "name": "C2",
          "midi": 36,
          "time": 75.19999999999966,
          "velocity": 0.7874015748031497,
          "duration": 0.05333333333332746
        },
        {
          "name": "A#2",
          "midi": 46,
          "time": 75.59999999999965,
          "velocity": 0.7874015748031497,
          "duration": 0.05333333333332746
        },
        {
          "name": "C2",
          "midi": 36,
          "time": 75.59999999999965,
          "velocity": 0.7874015748031497,
          "duration": 0.05333333333332746
        },
        {
          "name": "A#2",
          "midi": 46,
          "time": 75.99999999999964,
          "velocity": 0.7874015748031497,
          "duration": 0.05333333333332746
        },
        {
          "name": "E2",
          "midi": 40,
          "time": 75.99999999999964,
          "velocity": 0.7874015748031497,
          "duration": 0.05333333333332746
        },
        {
          "name": "A#2",
          "midi": 46,
          "time": 76.39999999999964,
          "velocity": 0.7874015748031497,
          "duration": 0.05333333333332746
        },
        {
          "name": "C2",
          "midi": 36,
          "time": 76.79999999999963,
          "velocity": 0.7874015748031497,
          "duration": 0.05333333333332746
        },
        {
          "name": "A#2",
          "midi": 46,
          "time": 76.79999999999963,
          "velocity": 0.7874015748031497,
          "duration": 0.05333333333332746
        },
        {
          "name": "C2",
          "midi": 36,
          "time": 76.99999999999962,
          "velocity": 0.7874015748031497,
          "duration": 0.04833333333333201
        },
        {
          "name": "A#2",
          "midi": 46,
          "time": 77.19999999999962,
          "velocity": 0.7874015748031497,
          "duration": 0.05333333333332746
        },
        {
          "name": "C2",
          "midi": 36,
          "time": 77.39999999999961,
          "velocity": 0.7874015748031497,
          "duration": 0.05333333333332746
        },
        {
          "name": "A#2",
          "midi": 46,
          "time": 77.5999999999996,
          "velocity": 0.7874015748031497,
          "duration": 0.05333333333332746
        },
        {
          "name": "E2",
          "midi": 40,
          "time": 77.5999999999996,
          "velocity": 0.7874015748031497,
          "duration": 0.05333333333332746
        },
        {
          "name": "A#2",
          "midi": 46,
          "time": 77.99999999999959,
          "velocity": 0.7874015748031497,
          "duration": 0.05333333333332746
        },
        {
          "name": "A#2",
          "midi": 46,
          "time": 78.39999999999958,
          "velocity": 0.7874015748031497,
          "duration": 0.05333333333332746
        },
        {
          "name": "C2",
          "midi": 36,
          "time": 78.39999999999958,
          "velocity": 0.7874015748031497,
          "duration": 0.05333333333332746
        },
        {
          "name": "A#2",
          "midi": 46,
          "time": 78.79999999999957,
          "velocity": 0.7874015748031497,
          "duration": 0.05333333333332746
        },
        {
          "name": "C2",
          "midi": 36,
          "time": 78.79999999999957,
          "velocity": 0.7874015748031497,
          "duration": 0.05333333333332746
        },
        {
          "name": "A#2",
          "midi": 46,
          "time": 79.19999999999956,
          "velocity": 0.7874015748031497,
          "duration": 0.05333333333332746
        },
        {
          "name": "E2",
          "midi": 40,
          "time": 79.19999999999956,
          "velocity": 0.7874015748031497,
          "duration": 0.05333333333332746
        },
        {
          "name": "A#2",
          "midi": 46,
          "time": 79.59999999999955,
          "velocity": 0.7874015748031497,
          "duration": 0.05333333333332746
        },
        {
          "name": "C2",
          "midi": 36,
          "time": 79.99999999999955,
          "velocity": 0.7874015748031497,
          "duration": 0.05333333333332746
        },
        {
          "name": "A#2",
          "midi": 46,
          "time": 79.99999999999955,
          "velocity": 0.7874015748031497,
          "duration": 0.05333333333332746
        },
        {
          "name": "C2",
          "midi": 36,
          "time": 80.19999999999953,
          "velocity": 0.7874015748031497,
          "duration": 0.04833333333333201
        },
        {
          "name": "A#2",
          "midi": 46,
          "time": 80.39999999999954,
          "velocity": 0.7874015748031497,
          "duration": 0.05333333333332746
        },
        {
          "name": "C2",
          "midi": 36,
          "time": 80.59999999999953,
          "velocity": 0.7874015748031497,
          "duration": 0.05333333333332746
        },
        {
          "name": "A#2",
          "midi": 46,
          "time": 80.79999999999951,
          "velocity": 0.7874015748031497,
          "duration": 0.05333333333332746
        },
        {
          "name": "E2",
          "midi": 40,
          "time": 80.79999999999951,
          "velocity": 0.7874015748031497,
          "duration": 0.05333333333332746
        },
        {
          "name": "A#2",
          "midi": 46,
          "time": 81.1999999999995,
          "velocity": 0.7874015748031497,
          "duration": 0.05333333333332746
        },
        {
          "name": "A#2",
          "midi": 46,
          "time": 81.5999999999995,
          "velocity": 0.7874015748031497,
          "duration": 0.05333333333332746
        },
        {
          "name": "C2",
          "midi": 36,
          "time": 81.5999999999995,
          "velocity": 0.7874015748031497,
          "duration": 0.05333333333332746
        },
        {
          "name": "A#2",
          "midi": 46,
          "time": 81.99999999999949,
          "velocity": 0.7874015748031497,
          "duration": 0.05333333333332746
        },
        {
          "name": "C2",
          "midi": 36,
          "time": 81.99999999999949,
          "velocity": 0.7874015748031497,
          "duration": 0.05333333333332746
        },
        {
          "name": "A#2",
          "midi": 46,
          "time": 82.39999999999948,
          "velocity": 0.7874015748031497,
          "duration": 0.05333333333332746
        },
        {
          "name": "E2",
          "midi": 40,
          "time": 82.39999999999948,
          "velocity": 0.7874015748031497,
          "duration": 0.05333333333332746
        },
        {
          "name": "A#2",
          "midi": 46,
          "time": 82.79999999999947,
          "velocity": 0.7874015748031497,
          "duration": 0.05333333333332746
        },
        {
          "name": "C2",
          "midi": 36,
          "time": 83.19999999999946,
          "velocity": 0.7874015748031497,
          "duration": 0.05333333333332746
        },
        {
          "name": "A#2",
          "midi": 46,
          "time": 83.19999999999946,
          "velocity": 0.7874015748031497,
          "duration": 0.05333333333332746
        },
        {
          "name": "C2",
          "midi": 36,
          "time": 83.39999999999945,
          "velocity": 0.7874015748031497,
          "duration": 0.04833333333333201
        },
        {
          "name": "A#2",
          "midi": 46,
          "time": 83.59999999999945,
          "velocity": 0.7874015748031497,
          "duration": 0.05333333333332746
        },
        {
          "name": "C2",
          "midi": 36,
          "time": 83.79999999999944,
          "velocity": 0.7874015748031497,
          "duration": 0.05333333333332746
        },
        {
          "name": "A#2",
          "midi": 46,
          "time": 83.99999999999943,
          "velocity": 0.7874015748031497,
          "duration": 0.05333333333332746
        },
        {
          "name": "E2",
          "midi": 40,
          "time": 83.99999999999943,
          "velocity": 0.7874015748031497,
          "duration": 0.05333333333332746
        },
        {
          "name": "A#2",
          "midi": 46,
          "time": 84.39999999999942,
          "velocity": 0.7874015748031497,
          "duration": 0.05333333333332746
        },
        {
          "name": "A#2",
          "midi": 46,
          "time": 84.79999999999941,
          "velocity": 0.7874015748031497,
          "duration": 0.05333333333332746
        },
        {
          "name": "C2",
          "midi": 36,
          "time": 84.79999999999941,
          "velocity": 0.7874015748031497,
          "duration": 0.05333333333332746
        },
        {
          "name": "A#2",
          "midi": 46,
          "time": 85.1999999999994,
          "velocity": 0.7874015748031497,
          "duration": 0.05333333333332746
        },
        {
          "name": "C2",
          "midi": 36,
          "time": 85.1999999999994,
          "velocity": 0.7874015748031497,
          "duration": 0.05333333333332746
        },
        {
          "name": "A#2",
          "midi": 46,
          "time": 85.5999999999994,
          "velocity": 0.7874015748031497,
          "duration": 0.05333333333332746
        },
        {
          "name": "E2",
          "midi": 40,
          "time": 85.5999999999994,
          "velocity": 0.7874015748031497,
          "duration": 0.05333333333332746
        },
        {
          "name": "A#2",
          "midi": 46,
          "time": 85.99999999999939,
          "velocity": 0.7874015748031497,
          "duration": 0.05333333333332746
        },
        {
          "name": "C2",
          "midi": 36,
          "time": 86.39999999999938,
          "velocity": 0.7874015748031497,
          "duration": 0.05333333333332746
        },
        {
          "name": "A#2",
          "midi": 46,
          "time": 86.39999999999938,
          "velocity": 0.7874015748031497,
          "duration": 0.05333333333332746
        },
        {
          "name": "C2",
          "midi": 36,
          "time": 86.59999999999937,
          "velocity": 0.7874015748031497,
          "duration": 0.04833333333333201
        },
        {
          "name": "A#2",
          "midi": 46,
          "time": 86.79999999999937,
          "velocity": 0.7874015748031497,
          "duration": 0.05333333333332746
        },
        {
          "name": "C2",
          "midi": 36,
          "time": 86.79999999999937,
          "velocity": 0.7874015748031497,
          "duration": 0.05333333333332746
        },
        {
          "name": "C2",
          "midi": 36,
          "time": 86.99999999999936,
          "velocity": 0.7874015748031497,
          "duration": 0.05333333333332746
        },
        {
          "name": "A#2",
          "midi": 46,
          "time": 87.19999999999935,
          "velocity": 0.7874015748031497,
          "duration": 0.05333333333332746
        },
        {
          "name": "E2",
          "midi": 40,
          "time": 87.19999999999935,
          "velocity": 0.7874015748031497,
          "duration": 0.05333333333332746
        },
        {
          "name": "C2",
          "midi": 36,
          "time": 87.39999999999934,
          "velocity": 0.7874015748031497,
          "duration": 0.054166666666660035
        },
        {
          "name": "A#2",
          "midi": 46,
          "time": 87.59999999999933,
          "velocity": 0.7874015748031497,
          "duration": 0.05333333333332746
        },
        {
          "name": "C2",
          "midi": 36,
          "time": 87.59999999999933,
          "velocity": 0.7874015748031497,
          "duration": 0.05333333333332746
        },
        {
          "name": "C2",
          "midi": 36,
          "time": 87.79999999999932,
          "velocity": 0.7874015748031497,
          "duration": 0.054166666666660035
        },
        {
          "name": "A#2",
          "midi": 46,
          "time": 87.9999999999993,
          "velocity": 0.7874015748031497,
          "duration": 0.05333333333332746
        },
        {
          "name": "C2",
          "midi": 36,
          "time": 87.9999999999993,
          "velocity": 0.7874015748031497,
          "duration": 0.05333333333332746
        },
        {
          "name": "A#2",
          "midi": 46,
          "time": 88.3999999999993,
          "velocity": 0.7874015748031497,
          "duration": 0.05333333333332746
        },
        {
          "name": "C2",
          "midi": 36,
          "time": 88.3999999999993,
          "velocity": 0.7874015748031497,
          "duration": 0.05333333333332746
        },
        {
          "name": "A#2",
          "midi": 46,
          "time": 88.79999999999929,
          "velocity": 0.7874015748031497,
          "duration": 0.05333333333332746
        },
        {
          "name": "E2",
          "midi": 40,
          "time": 88.79999999999929,
          "velocity": 0.7874015748031497,
          "duration": 0.05333333333332746
        },
        {
          "name": "A#2",
          "midi": 46,
          "time": 89.19999999999928,
          "velocity": 0.7874015748031497,
          "duration": 0.05333333333332746
        },
        {
          "name": "C2",
          "midi": 36,
          "time": 89.59999999999927,
          "velocity": 0.7874015748031497,
          "duration": 0.05333333333332746
        },
        {
          "name": "A#2",
          "midi": 46,
          "time": 89.59999999999927,
          "velocity": 0.7874015748031497,
          "duration": 0.05333333333332746
        },
        {
          "name": "C2",
          "midi": 36,
          "time": 89.79999999999926,
          "velocity": 0.7874015748031497,
          "duration": 0.04833333333333201
        },
        {
          "name": "A#2",
          "midi": 46,
          "time": 89.99999999999926,
          "velocity": 0.7874015748031497,
          "duration": 0.05333333333332746
        },
        {
          "name": "C2",
          "midi": 36,
          "time": 90.19999999999925,
          "velocity": 0.7874015748031497,
          "duration": 0.05333333333332746
        },
        {
          "name": "A#2",
          "midi": 46,
          "time": 90.39999999999924,
          "velocity": 0.7874015748031497,
          "duration": 0.05333333333332746
        },
        {
          "name": "E2",
          "midi": 40,
          "time": 90.39999999999924,
          "velocity": 0.7874015748031497,
          "duration": 0.05333333333332746
        },
        {
          "name": "A#2",
          "midi": 46,
          "time": 90.79999999999923,
          "velocity": 0.7874015748031497,
          "duration": 0.05333333333332746
        },
        {
          "name": "A#2",
          "midi": 46,
          "time": 91.19999999999922,
          "velocity": 0.7874015748031497,
          "duration": 0.05333333333332746
        },
        {
          "name": "C2",
          "midi": 36,
          "time": 91.19999999999922,
          "velocity": 0.7874015748031497,
          "duration": 0.05333333333332746
        },
        {
          "name": "A#2",
          "midi": 46,
          "time": 91.59999999999921,
          "velocity": 0.7874015748031497,
          "duration": 0.05333333333332746
        },
        {
          "name": "C2",
          "midi": 36,
          "time": 91.59999999999921,
          "velocity": 0.7874015748031497,
          "duration": 0.05333333333332746
        },
        {
          "name": "A#2",
          "midi": 46,
          "time": 91.9999999999992,
          "velocity": 0.7874015748031497,
          "duration": 0.05333333333332746
        },
        {
          "name": "E2",
          "midi": 40,
          "time": 91.9999999999992,
          "velocity": 0.7874015748031497,
          "duration": 0.05333333333332746
        },
        {
          "name": "A#2",
          "midi": 46,
          "time": 92.3999999999992,
          "velocity": 0.7874015748031497,
          "duration": 0.05333333333332746
        },
        {
          "name": "C2",
          "midi": 36,
          "time": 92.79999999999919,
          "velocity": 0.7874015748031497,
          "duration": 0.05333333333332746
        },
        {
          "name": "A#2",
          "midi": 46,
          "time": 92.79999999999919,
          "velocity": 0.7874015748031497,
          "duration": 0.05333333333332746
        },
        {
          "name": "C2",
          "midi": 36,
          "time": 92.99999999999918,
          "velocity": 0.7874015748031497,
          "duration": 0.04833333333333201
        },
        {
          "name": "A#2",
          "midi": 46,
          "time": 93.19999999999918,
          "velocity": 0.7874015748031497,
          "duration": 0.05333333333332746
        },
        {
          "name": "C2",
          "midi": 36,
          "time": 93.39999999999917,
          "velocity": 0.7874015748031497,
          "duration": 0.05333333333332746
        },
        {
          "name": "A#2",
          "midi": 46,
          "time": 93.59999999999916,
          "velocity": 0.7874015748031497,
          "duration": 0.05333333333332746
        },
        {
          "name": "E2",
          "midi": 40,
          "time": 93.59999999999916,
          "velocity": 0.7874015748031497,
          "duration": 0.05333333333332746
        },
        {
          "name": "A#2",
          "midi": 46,
          "time": 93.99999999999915,
          "velocity": 0.7874015748031497,
          "duration": 0.05333333333332746
        },
        {
          "name": "A#2",
          "midi": 46,
          "time": 94.39999999999914,
          "velocity": 0.7874015748031497,
          "duration": 0.05333333333332746
        },
        {
          "name": "C2",
          "midi": 36,
          "time": 94.39999999999914,
          "velocity": 0.7874015748031497,
          "duration": 0.05333333333332746
        },
        {
          "name": "A#2",
          "midi": 46,
          "time": 94.79999999999913,
          "velocity": 0.7874015748031497,
          "duration": 0.05333333333332746
        },
        {
          "name": "C2",
          "midi": 36,
          "time": 94.79999999999913,
          "velocity": 0.7874015748031497,
          "duration": 0.05333333333332746
        },
        {
          "name": "A#2",
          "midi": 46,
          "time": 95.19999999999912,
          "velocity": 0.7874015748031497,
          "duration": 0.05333333333332746
        },
        {
          "name": "E2",
          "midi": 40,
          "time": 95.19999999999912,
          "velocity": 0.7874015748031497,
          "duration": 0.05333333333332746
        },
        {
          "name": "A#2",
          "midi": 46,
          "time": 95.59999999999911,
          "velocity": 0.7874015748031497,
          "duration": 0.05333333333332746
        },
        {
          "name": "C2",
          "midi": 36,
          "time": 95.9999999999991,
          "velocity": 0.7874015748031497,
          "duration": 0.05333333333332746
        },
        {
          "name": "A#2",
          "midi": 46,
          "time": 95.9999999999991,
          "velocity": 0.7874015748031497,
          "duration": 0.05333333333332746
        },
        {
          "name": "C2",
          "midi": 36,
          "time": 96.1999999999991,
          "velocity": 0.7874015748031497,
          "duration": 0.04833333333333201
        },
        {
          "name": "A#2",
          "midi": 46,
          "time": 96.3999999999991,
          "velocity": 0.7874015748031497,
          "duration": 0.05333333333332746
        },
        {
          "name": "C2",
          "midi": 36,
          "time": 96.59999999999908,
          "velocity": 0.7874015748031497,
          "duration": 0.05333333333332746
        },
        {
          "name": "A#2",
          "midi": 46,
          "time": 96.79999999999907,
          "velocity": 0.7874015748031497,
          "duration": 0.05333333333332746
        },
        {
          "name": "E2",
          "midi": 40,
          "time": 96.79999999999907,
          "velocity": 0.7874015748031497,
          "duration": 0.05333333333332746
        },
        {
          "name": "A#2",
          "midi": 46,
          "time": 97.19999999999906,
          "velocity": 0.7874015748031497,
          "duration": 0.05333333333332746
        },
        {
          "name": "A#2",
          "midi": 46,
          "time": 97.59999999999906,
          "velocity": 0.7874015748031497,
          "duration": 0.05333333333332746
        },
        {
          "name": "C2",
          "midi": 36,
          "time": 97.59999999999906,
          "velocity": 0.7874015748031497,
          "duration": 0.05333333333332746
        },
        {
          "name": "A#2",
          "midi": 46,
          "time": 97.99999999999905,
          "velocity": 0.7874015748031497,
          "duration": 0.05333333333332746
        },
        {
          "name": "C2",
          "midi": 36,
          "time": 97.99999999999905,
          "velocity": 0.7874015748031497,
          "duration": 0.05333333333332746
        },
        {
          "name": "A#2",
          "midi": 46,
          "time": 98.39999999999904,
          "velocity": 0.7874015748031497,
          "duration": 0.05333333333332746
        },
        {
          "name": "E2",
          "midi": 40,
          "time": 98.39999999999904,
          "velocity": 0.7874015748031497,
          "duration": 0.05333333333332746
        },
        {
          "name": "A#2",
          "midi": 46,
          "time": 98.79999999999903,
          "velocity": 0.7874015748031497,
          "duration": 0.05333333333332746
        },
        {
          "name": "C2",
          "midi": 36,
          "time": 99.19999999999902,
          "velocity": 0.7874015748031497,
          "duration": 0.05333333333332746
        },
        {
          "name": "A#2",
          "midi": 46,
          "time": 99.19999999999902,
          "velocity": 0.7874015748031497,
          "duration": 0.05333333333332746
        },
        {
          "name": "C2",
          "midi": 36,
          "time": 99.39999999999901,
          "velocity": 0.7874015748031497,
          "duration": 0.04833333333333201
        },
        {
          "name": "A#2",
          "midi": 46,
          "time": 99.59999999999901,
          "velocity": 0.7874015748031497,
          "duration": 0.05333333333332746
        },
        {
          "name": "C2",
          "midi": 36,
          "time": 99.799999999999,
          "velocity": 0.7874015748031497,
          "duration": 0.05333333333332746
        },
        {
          "name": "A#2",
          "midi": 46,
          "time": 99.99999999999899,
          "velocity": 0.7874015748031497,
          "duration": 0.05333333333332746
        },
        {
          "name": "E2",
          "midi": 40,
          "time": 99.99999999999899,
          "velocity": 0.7874015748031497,
          "duration": 0.05333333333332746
        },
        {
          "name": "A#2",
          "midi": 46,
          "time": 100.39999999999898,
          "velocity": 0.7874015748031497,
          "duration": 0.05333333333332746
        },
        {
          "name": "A#2",
          "midi": 46,
          "time": 100.79999999999897,
          "velocity": 0.7874015748031497,
          "duration": 0.05333333333332746
        },
        {
          "name": "C2",
          "midi": 36,
          "time": 100.79999999999897,
          "velocity": 0.7874015748031497,
          "duration": 0.05333333333332746
        },
        {
          "name": "A#2",
          "midi": 46,
          "time": 101.19999999999897,
          "velocity": 0.7874015748031497,
          "duration": 0.05333333333332746
        },
        {
          "name": "C2",
          "midi": 36,
          "time": 101.19999999999897,
          "velocity": 0.7874015748031497,
          "duration": 0.05333333333332746
        },
        {
          "name": "A#2",
          "midi": 46,
          "time": 101.59999999999896,
          "velocity": 0.7874015748031497,
          "duration": 0.05333333333332746
        },
        {
          "name": "E2",
          "midi": 40,
          "time": 101.59999999999896,
          "velocity": 0.7874015748031497,
          "duration": 0.05333333333332746
        },
        {
          "name": "A#2",
          "midi": 46,
          "time": 101.99999999999895,
          "velocity": 0.7874015748031497,
          "duration": 0.05333333333332746
        },
        {
          "name": "C2",
          "midi": 36,
          "time": 102.39999999999894,
          "velocity": 0.7874015748031497,
          "duration": 0.05333333333332746
        },
        {
          "name": "A#2",
          "midi": 46,
          "time": 102.39999999999894,
          "velocity": 0.7874015748031497,
          "duration": 0.05333333333332746
        },
        {
          "name": "C2",
          "midi": 36,
          "time": 102.59999999999893,
          "velocity": 0.7874015748031497,
          "duration": 0.04833333333333201
        },
        {
          "name": "A#2",
          "midi": 46,
          "time": 102.79999999999893,
          "velocity": 0.7874015748031497,
          "duration": 0.05333333333332746
        },
        {
          "name": "C2",
          "midi": 36,
          "time": 102.99999999999892,
          "velocity": 0.7874015748031497,
          "duration": 0.05333333333332746
        },
        {
          "name": "A#2",
          "midi": 46,
          "time": 103.19999999999891,
          "velocity": 0.7874015748031497,
          "duration": 0.05333333333332746
        },
        {
          "name": "E2",
          "midi": 40,
          "time": 103.19999999999891,
          "velocity": 0.7874015748031497,
          "duration": 0.05333333333332746
        },
        {
          "name": "A#2",
          "midi": 46,
          "time": 103.5999999999989,
          "velocity": 0.7874015748031497,
          "duration": 0.05333333333332746
        },
        {
          "name": "A#2",
          "midi": 46,
          "time": 103.99999999999889,
          "velocity": 0.7874015748031497,
          "duration": 0.05333333333332746
        },
        {
          "name": "C2",
          "midi": 36,
          "time": 103.99999999999889,
          "velocity": 0.7874015748031497,
          "duration": 0.05333333333332746
        },
        {
          "name": "A#2",
          "midi": 46,
          "time": 104.39999999999888,
          "velocity": 0.7874015748031497,
          "duration": 0.05333333333332746
        },
        {
          "name": "C2",
          "midi": 36,
          "time": 104.39999999999888,
          "velocity": 0.7874015748031497,
          "duration": 0.05333333333332746
        },
        {
          "name": "A#2",
          "midi": 46,
          "time": 104.79999999999887,
          "velocity": 0.7874015748031497,
          "duration": 0.05333333333332746
        },
        {
          "name": "E2",
          "midi": 40,
          "time": 104.79999999999887,
          "velocity": 0.7874015748031497,
          "duration": 0.05333333333332746
        },
        {
          "name": "A#2",
          "midi": 46,
          "time": 105.19999999999887,
          "velocity": 0.7874015748031497,
          "duration": 0.05333333333332746
        },
        {
          "name": "C2",
          "midi": 36,
          "time": 105.59999999999886,
          "velocity": 0.7874015748031497,
          "duration": 0.05333333333332746
        },
        {
          "name": "A#2",
          "midi": 46,
          "time": 105.59999999999886,
          "velocity": 0.7874015748031497,
          "duration": 0.05333333333332746
        },
        {
          "name": "C2",
          "midi": 36,
          "time": 105.79999999999885,
          "velocity": 0.7874015748031497,
          "duration": 0.04833333333333201
        },
        {
          "name": "A#2",
          "midi": 46,
          "time": 105.99999999999885,
          "velocity": 0.7874015748031497,
          "duration": 0.05333333333332746
        },
        {
          "name": "C2",
          "midi": 36,
          "time": 106.19999999999884,
          "velocity": 0.7874015748031497,
          "duration": 0.05333333333332746
        },
        {
          "name": "A#2",
          "midi": 46,
          "time": 106.39999999999883,
          "velocity": 0.7874015748031497,
          "duration": 0.05333333333332746
        },
        {
          "name": "E2",
          "midi": 40,
          "time": 106.39999999999883,
          "velocity": 0.7874015748031497,
          "duration": 0.05333333333332746
        },
        {
          "name": "A#2",
          "midi": 46,
          "time": 106.79999999999882,
          "velocity": 0.7874015748031497,
          "duration": 0.05333333333332746
        },
        {
          "name": "A#2",
          "midi": 46,
          "time": 107.19999999999881,
          "velocity": 0.7874015748031497,
          "duration": 0.05333333333332746
        },
        {
          "name": "C2",
          "midi": 36,
          "time": 107.19999999999881,
          "velocity": 0.7874015748031497,
          "duration": 0.05333333333332746
        },
        {
          "name": "A#2",
          "midi": 46,
          "time": 107.5999999999988,
          "velocity": 0.7874015748031497,
          "duration": 0.05333333333332746
        },
        {
          "name": "C2",
          "midi": 36,
          "time": 107.5999999999988,
          "velocity": 0.7874015748031497,
          "duration": 0.05333333333332746
        },
        {
          "name": "A#2",
          "midi": 46,
          "time": 107.99999999999879,
          "velocity": 0.7874015748031497,
          "duration": 0.05333333333332746
        },
        {
          "name": "E2",
          "midi": 40,
          "time": 107.99999999999879,
          "velocity": 0.7874015748031497,
          "duration": 0.05333333333332746
        },
        {
          "name": "A#2",
          "midi": 46,
          "time": 108.39999999999878,
          "velocity": 0.7874015748031497,
          "duration": 0.05333333333332746
        },
        {
          "name": "C2",
          "midi": 36,
          "time": 108.79999999999878,
          "velocity": 0.7874015748031497,
          "duration": 0.05333333333332746
        },
        {
          "name": "A#2",
          "midi": 46,
          "time": 108.79999999999878,
          "velocity": 0.7874015748031497,
          "duration": 0.05333333333332746
        },
        {
          "name": "C2",
          "midi": 36,
          "time": 108.99999999999876,
          "velocity": 0.7874015748031497,
          "duration": 0.04833333333333201
        },
        {
          "name": "A#2",
          "midi": 46,
          "time": 109.19999999999877,
          "velocity": 0.7874015748031497,
          "duration": 0.05333333333332746
        },
        {
          "name": "C2",
          "midi": 36,
          "time": 109.39999999999876,
          "velocity": 0.7874015748031497,
          "duration": 0.05333333333332746
        },
        {
          "name": "A#2",
          "midi": 46,
          "time": 109.59999999999874,
          "velocity": 0.7874015748031497,
          "duration": 0.05333333333332746
        },
        {
          "name": "E2",
          "midi": 40,
          "time": 109.59999999999874,
          "velocity": 0.7874015748031497,
          "duration": 0.05333333333332746
        },
        {
          "name": "A#2",
          "midi": 46,
          "time": 109.99999999999874,
          "velocity": 0.7874015748031497,
          "duration": 0.05333333333332746
        },
        {
          "name": "A#2",
          "midi": 46,
          "time": 110.39999999999873,
          "velocity": 0.7874015748031497,
          "duration": 0.05333333333332746
        },
        {
          "name": "C2",
          "midi": 36,
          "time": 110.39999999999873,
          "velocity": 0.7874015748031497,
          "duration": 0.05333333333332746
        },
        {
          "name": "A#2",
          "midi": 46,
          "time": 110.79999999999872,
          "velocity": 0.7874015748031497,
          "duration": 0.05333333333332746
        },
        {
          "name": "C2",
          "midi": 36,
          "time": 110.79999999999872,
          "velocity": 0.7874015748031497,
          "duration": 0.05333333333332746
        },
        {
          "name": "A#2",
          "midi": 46,
          "time": 111.19999999999871,
          "velocity": 0.7874015748031497,
          "duration": 0.05333333333332746
        },
        {
          "name": "E2",
          "midi": 40,
          "time": 111.19999999999871,
          "velocity": 0.7874015748031497,
          "duration": 0.05333333333332746
        },
        {
          "name": "A#2",
          "midi": 46,
          "time": 111.5999999999987,
          "velocity": 0.7874015748031497,
          "duration": 0.05333333333332746
        },
        {
          "name": "A#2",
          "midi": 46,
          "time": 111.99999999999869,
          "velocity": 0.7874015748031497,
          "duration": 0.05333333333332746
        },
        {
          "name": "E2",
          "midi": 40,
          "time": 111.99999999999869,
          "velocity": 0.7874015748031497,
          "duration": 0.05333333333332746
        },
        {
          "name": "C2",
          "midi": 36,
          "time": 112.19999999999868,
          "velocity": 0.7874015748031497,
          "duration": 0.04833333333333201
        },
        {
          "name": "A#2",
          "midi": 46,
          "time": 112.39999999999868,
          "velocity": 0.7874015748031497,
          "duration": 0.05333333333332746
        },
        {
          "name": "C2",
          "midi": 36,
          "time": 112.39999999999868,
          "velocity": 0.7874015748031497,
          "duration": 0.05333333333332746
        },
        {
          "name": "C2",
          "midi": 36,
          "time": 112.59999999999867,
          "velocity": 0.7874015748031497,
          "duration": 0.05333333333332746
        },
        {
          "name": "A#2",
          "midi": 46,
          "time": 112.79999999999866,
          "velocity": 0.7874015748031497,
          "duration": 0.05333333333332746
        },
        {
          "name": "E2",
          "midi": 40,
          "time": 112.79999999999866,
          "velocity": 0.7874015748031497,
          "duration": 0.05333333333332746
        },
        {
          "name": "C2",
          "midi": 36,
          "time": 112.99999999999865,
          "velocity": 0.7874015748031497,
          "duration": 0.054166666666660035
        },
        {
          "name": "A#2",
          "midi": 46,
          "time": 113.19999999999864,
          "velocity": 0.7874015748031497,
          "duration": 0.05333333333332746
        },
        {
          "name": "C2",
          "midi": 36,
          "time": 113.19999999999864,
          "velocity": 0.7874015748031497,
          "duration": 0.05333333333332746
        },
        {
          "name": "C2",
          "midi": 36,
          "time": 113.59999999999863,
          "velocity": 0.7874015748031497,
          "duration": 0.06416666666666515
        },
        {
          "name": "C#3",
          "midi": 49,
          "time": 113.59999999999863,
          "velocity": 0.7874015748031497,
          "duration": 0.06416666666666515
        },
        {
          "name": "C2",
          "midi": 36,
          "time": 113.99999999999862,
          "velocity": 0.7874015748031497,
          "duration": 0.06416666666666515
        },
        {
          "name": "C#3",
          "midi": 49,
          "time": 113.99999999999862,
          "velocity": 0.7874015748031497,
          "duration": 0.06416666666666515
        },
        {
          "name": "E2",
          "midi": 40,
          "time": 114.39999999999861,
          "velocity": 0.7874015748031497,
          "duration": 0.06416666666666515
        },
        {
          "name": "C#3",
          "midi": 49,
          "time": 114.39999999999861,
          "velocity": 0.7874015748031497,
          "duration": 0.06416666666666515
        },
        {
          "name": "C2",
          "midi": 36,
          "time": 114.7999999999986,
          "velocity": 0.7874015748031497,
          "duration": 0.06416666666666515
        },
        {
          "name": "C#3",
          "midi": 49,
          "time": 114.7999999999986,
          "velocity": 0.7874015748031497,
          "duration": 0.06416666666666515
        },
        {
          "name": "C2",
          "midi": 36,
          "time": 114.99416666666527,
          "velocity": 0.7874015748031497,
          "duration": 0.054166666666660035
        },
        {
          "name": "C#3",
          "midi": 49,
          "time": 115.1999999999986,
          "velocity": 0.7874015748031497,
          "duration": 0.06416666666666515
        },
        {
          "name": "C2",
          "midi": 36,
          "time": 115.39416666666526,
          "velocity": 0.7874015748031497,
          "duration": 0.054166666666660035
        },
        {
          "name": "C2",
          "midi": 36,
          "time": 115.59999999999859,
          "velocity": 0.7874015748031497,
          "duration": 0.06416666666666515
        },
        {
          "name": "C#3",
          "midi": 49,
          "time": 115.59999999999859,
          "velocity": 0.7874015748031497,
          "duration": 0.06416666666666515
        },
        {
          "name": "E2",
          "midi": 40,
          "time": 115.99999999999858,
          "velocity": 0.7874015748031497,
          "duration": 0.06416666666666515
        },
        {
          "name": "C#3",
          "midi": 49,
          "time": 115.99999999999858,
          "velocity": 0.7874015748031497,
          "duration": 0.06416666666666515
        },
        {
          "name": "C2",
          "midi": 36,
          "time": 116.39999999999857,
          "velocity": 0.7874015748031497,
          "duration": 0.06416666666666515
        },
        {
          "name": "C#3",
          "midi": 49,
          "time": 116.39999999999857,
          "velocity": 0.7874015748031497,
          "duration": 0.06416666666666515
        },
        {
          "name": "C2",
          "midi": 36,
          "time": 116.79999999999856,
          "velocity": 0.7874015748031497,
          "duration": 0.06416666666666515
        },
        {
          "name": "C#3",
          "midi": 49,
          "time": 116.79999999999856,
          "velocity": 0.7874015748031497,
          "duration": 0.06416666666666515
        },
        {
          "name": "C2",
          "midi": 36,
          "time": 117.19999999999855,
          "velocity": 0.7874015748031497,
          "duration": 0.06416666666666515
        },
        {
          "name": "C#3",
          "midi": 49,
          "time": 117.19999999999855,
          "velocity": 0.7874015748031497,
          "duration": 0.06416666666666515
        },
        {
          "name": "E2",
          "midi": 40,
          "time": 117.59999999999854,
          "velocity": 0.7874015748031497,
          "duration": 0.06416666666666515
        },
        {
          "name": "C#3",
          "midi": 49,
          "time": 117.59999999999854,
          "velocity": 0.7874015748031497,
          "duration": 0.06416666666666515
        },
        {
          "name": "C2",
          "midi": 36,
          "time": 117.99999999999854,
          "velocity": 0.7874015748031497,
          "duration": 0.06416666666666515
        },
        {
          "name": "C#3",
          "midi": 49,
          "time": 117.99999999999854,
          "velocity": 0.7874015748031497,
          "duration": 0.06416666666666515
        },
        {
          "name": "C2",
          "midi": 36,
          "time": 118.1941666666652,
          "velocity": 0.7874015748031497,
          "duration": 0.054166666666660035
        },
        {
          "name": "C#3",
          "midi": 49,
          "time": 118.39999999999853,
          "velocity": 0.7874015748031497,
          "duration": 0.06416666666666515
        },
        {
          "name": "C2",
          "midi": 36,
          "time": 118.59416666666519,
          "velocity": 0.7874015748031497,
          "duration": 0.054166666666660035
        },
        {
          "name": "E2",
          "midi": 40,
          "time": 118.79999999999852,
          "velocity": 0.7874015748031497,
          "duration": 0.06416666666666515
        },
        {
          "name": "A3",
          "midi": 57,
          "time": 118.79999999999852,
          "velocity": 0.7874015748031497,
          "duration": 0.06416666666666515
        },
        {
          "name": "E2",
          "midi": 40,
          "time": 119.19999999999851,
          "velocity": 0.7874015748031497,
          "duration": 0.06416666666666515
        },
        {
          "name": "C#3",
          "midi": 49,
          "time": 119.19999999999851,
          "velocity": 0.7874015748031497,
          "duration": 0.06416666666666515
        },
        {
          "name": "A3",
          "midi": 57,
          "time": 119.5999999999985,
          "velocity": 0.7874015748031497,
          "duration": 0.05333333333332746
        },
        {
          "name": "E2",
          "midi": 40,
          "time": 119.5999999999985,
          "velocity": 0.7874015748031497,
          "duration": 0.06416666666666515
        },
        {
          "name": "C2",
          "midi": 36,
          "time": 119.9999999999985,
          "velocity": 0.7874015748031497,
          "duration": 0.06416666666666515
        },
        {
          "name": "C#3",
          "midi": 49,
          "time": 119.9999999999985,
          "velocity": 0.7874015748031497,
          "duration": 0.06416666666666515
        },
        {
          "name": "C2",
          "midi": 36,
          "time": 120.39999999999849,
          "velocity": 0.7874015748031497,
          "duration": 0.06416666666666515
        },
        {
          "name": "C#3",
          "midi": 49,
          "time": 120.39999999999849,
          "velocity": 0.7874015748031497,
          "duration": 0.06416666666666515
        },
        {
          "name": "E2",
          "midi": 40,
          "time": 120.79999999999848,
          "velocity": 0.7874015748031497,
          "duration": 0.06416666666666515
        },
        {
          "name": "C#3",
          "midi": 49,
          "time": 120.79999999999848,
          "velocity": 0.7874015748031497,
          "duration": 0.06416666666666515
        },
        {
          "name": "C2",
          "midi": 36,
          "time": 121.19999999999847,
          "velocity": 0.7874015748031497,
          "duration": 0.06416666666666515
        },
        {
          "name": "C#3",
          "midi": 49,
          "time": 121.19999999999847,
          "velocity": 0.7874015748031497,
          "duration": 0.06416666666666515
        },
        {
          "name": "C2",
          "midi": 36,
          "time": 121.39416666666513,
          "velocity": 0.7874015748031497,
          "duration": 0.054166666666660035
        },
        {
          "name": "C#3",
          "midi": 49,
          "time": 121.59999999999846,
          "velocity": 0.7874015748031497,
          "duration": 0.06416666666666515
        },
        {
          "name": "C2",
          "midi": 36,
          "time": 121.79416666666512,
          "velocity": 0.7874015748031497,
          "duration": 0.054166666666660035
        },
        {
          "name": "C2",
          "midi": 36,
          "time": 121.99999999999845,
          "velocity": 0.7874015748031497,
          "duration": 0.06416666666666515
        },
        {
          "name": "C#3",
          "midi": 49,
          "time": 121.99999999999845,
          "velocity": 0.7874015748031497,
          "duration": 0.06416666666666515
        },
        {
          "name": "E2",
          "midi": 40,
          "time": 122.39999999999844,
          "velocity": 0.7874015748031497,
          "duration": 0.06416666666666515
        },
        {
          "name": "C#3",
          "midi": 49,
          "time": 122.39999999999844,
          "velocity": 0.7874015748031497,
          "duration": 0.06416666666666515
        },
        {
          "name": "C2",
          "midi": 36,
          "time": 122.79999999999843,
          "velocity": 0.7874015748031497,
          "duration": 0.06416666666666515
        },
        {
          "name": "C#3",
          "midi": 49,
          "time": 122.79999999999843,
          "velocity": 0.7874015748031497,
          "duration": 0.06416666666666515
        },
        {
          "name": "C2",
          "midi": 36,
          "time": 123.19999999999843,
          "velocity": 0.7874015748031497,
          "duration": 0.06416666666666515
        },
        {
          "name": "C#3",
          "midi": 49,
          "time": 123.19999999999843,
          "velocity": 0.7874015748031497,
          "duration": 0.06416666666666515
        },
        {
          "name": "C2",
          "midi": 36,
          "time": 123.59999999999842,
          "velocity": 0.7874015748031497,
          "duration": 0.06416666666666515
        },
        {
          "name": "C#3",
          "midi": 49,
          "time": 123.59999999999842,
          "velocity": 0.7874015748031497,
          "duration": 0.06416666666666515
        },
        {
          "name": "E2",
          "midi": 40,
          "time": 123.99999999999841,
          "velocity": 0.7874015748031497,
          "duration": 0.06416666666666515
        },
        {
          "name": "C#3",
          "midi": 49,
          "time": 123.99999999999841,
          "velocity": 0.7874015748031497,
          "duration": 0.06416666666666515
        },
        {
          "name": "C2",
          "midi": 36,
          "time": 124.3999999999984,
          "velocity": 0.7874015748031497,
          "duration": 0.06416666666666515
        },
        {
          "name": "C#3",
          "midi": 49,
          "time": 124.3999999999984,
          "velocity": 0.7874015748031497,
          "duration": 0.06416666666666515
        },
        {
          "name": "C2",
          "midi": 36,
          "time": 124.59416666666506,
          "velocity": 0.7874015748031497,
          "duration": 0.054166666666660035
        },
        {
          "name": "C#3",
          "midi": 49,
          "time": 124.79999999999839,
          "velocity": 0.7874015748031497,
          "duration": 0.06416666666666515
        },
        {
          "name": "C2",
          "midi": 36,
          "time": 124.99416666666505,
          "velocity": 0.7874015748031497,
          "duration": 0.054166666666660035
        },
        {
          "name": "E2",
          "midi": 40,
          "time": 125.19999999999838,
          "velocity": 0.7874015748031497,
          "duration": 0.06416666666666515
        },
        {
          "name": "A3",
          "midi": 57,
          "time": 125.19999999999838,
          "velocity": 0.7874015748031497,
          "duration": 0.06416666666666515
        },
        {
          "name": "E2",
          "midi": 40,
          "time": 125.59999999999837,
          "velocity": 0.7874015748031497,
          "duration": 0.06416666666666515
        },
        {
          "name": "C#3",
          "midi": 49,
          "time": 125.59999999999837,
          "velocity": 0.7874015748031497,
          "duration": 0.06416666666666515
        },
        {
          "name": "A3",
          "midi": 57,
          "time": 125.99999999999837,
          "velocity": 0.7874015748031497,
          "duration": 0.05333333333332746
        },
        {
          "name": "E2",
          "midi": 40,
          "time": 125.99999999999837,
          "velocity": 0.7874015748031497,
          "duration": 0.06416666666666515
        },
        {
          "name": "C2",
          "midi": 36,
          "time": 126.39999999999836,
          "velocity": 0.7874015748031497,
          "duration": 0.06416666666666515
        },
        {
          "name": "C#3",
          "midi": 49,
          "time": 126.39999999999836,
          "velocity": 0.7874015748031497,
          "duration": 0.06416666666666515
        },
        {
          "name": "C2",
          "midi": 36,
          "time": 126.79999999999835,
          "velocity": 0.7874015748031497,
          "duration": 0.06416666666666515
        },
        {
          "name": "C#3",
          "midi": 49,
          "time": 126.79999999999835,
          "velocity": 0.7874015748031497,
          "duration": 0.06416666666666515
        },
        {
          "name": "E2",
          "midi": 40,
          "time": 127.19999999999834,
          "velocity": 0.7874015748031497,
          "duration": 0.06416666666666515
        },
        {
          "name": "C#3",
          "midi": 49,
          "time": 127.19999999999834,
          "velocity": 0.7874015748031497,
          "duration": 0.06416666666666515
        },
        {
          "name": "C2",
          "midi": 36,
          "time": 127.59999999999833,
          "velocity": 0.7874015748031497,
          "duration": 0.06416666666666515
        },
        {
          "name": "C#3",
          "midi": 49,
          "time": 127.59999999999833,
          "velocity": 0.7874015748031497,
          "duration": 0.06416666666666515
        },
        {
          "name": "C2",
          "midi": 36,
          "time": 127.79416666666499,
          "velocity": 0.7874015748031497,
          "duration": 0.054166666666660035
        },
        {
          "name": "C#3",
          "midi": 49,
          "time": 127.99999999999832,
          "velocity": 0.7874015748031497,
          "duration": 0.06416666666666515
        },
        {
          "name": "C2",
          "midi": 36,
          "time": 128.19416666666498,
          "velocity": 0.7874015748031497,
          "duration": 0.054166666666674246
        },
        {
          "name": "C2",
          "midi": 36,
          "time": 128.39999999999833,
          "velocity": 0.7874015748031497,
          "duration": 0.06416666666666515
        },
        {
          "name": "C#3",
          "midi": 49,
          "time": 128.39999999999833,
          "velocity": 0.7874015748031497,
          "duration": 0.06416666666666515
        },
        {
          "name": "E2",
          "midi": 40,
          "time": 128.79999999999833,
          "velocity": 0.7874015748031497,
          "duration": 0.06416666666666515
        },
        {
          "name": "C#3",
          "midi": 49,
          "time": 128.79999999999833,
          "velocity": 0.7874015748031497,
          "duration": 0.06416666666666515
        },
        {
          "name": "C2",
          "midi": 36,
          "time": 129.19999999999834,
          "velocity": 0.7874015748031497,
          "duration": 0.06416666666666515
        },
        {
          "name": "C#3",
          "midi": 49,
          "time": 129.19999999999834,
          "velocity": 0.7874015748031497,
          "duration": 0.06416666666666515
        },
        {
          "name": "C2",
          "midi": 36,
          "time": 129.59999999999835,
          "velocity": 0.7874015748031497,
          "duration": 0.06416666666666515
        },
        {
          "name": "C#3",
          "midi": 49,
          "time": 129.59999999999835,
          "velocity": 0.7874015748031497,
          "duration": 0.06416666666666515
        },
        {
          "name": "C2",
          "midi": 36,
          "time": 129.99999999999835,
          "velocity": 0.7874015748031497,
          "duration": 0.06416666666666515
        },
        {
          "name": "C#3",
          "midi": 49,
          "time": 129.99999999999835,
          "velocity": 0.7874015748031497,
          "duration": 0.06416666666666515
        },
        {
          "name": "E2",
          "midi": 40,
          "time": 130.39999999999836,
          "velocity": 0.7874015748031497,
          "duration": 0.06416666666666515
        },
        {
          "name": "C#3",
          "midi": 49,
          "time": 130.39999999999836,
          "velocity": 0.7874015748031497,
          "duration": 0.06416666666666515
        },
        {
          "name": "C2",
          "midi": 36,
          "time": 130.79999999999836,
          "velocity": 0.7874015748031497,
          "duration": 0.06416666666666515
        },
        {
          "name": "C#3",
          "midi": 49,
          "time": 130.79999999999836,
          "velocity": 0.7874015748031497,
          "duration": 0.06416666666666515
        },
        {
          "name": "C2",
          "midi": 36,
          "time": 130.99416666666502,
          "velocity": 0.7874015748031497,
          "duration": 0.054166666666674246
        },
        {
          "name": "C#3",
          "midi": 49,
          "time": 131.19999999999837,
          "velocity": 0.7874015748031497,
          "duration": 0.06416666666666515
        },
        {
          "name": "C2",
          "midi": 36,
          "time": 131.39416666666503,
          "velocity": 0.7874015748031497,
          "duration": 0.054166666666674246
        },
        {
          "name": "E2",
          "midi": 40,
          "time": 131.59999999999837,
          "velocity": 0.7874015748031497,
          "duration": 0.06416666666666515
        },
        {
          "name": "A3",
          "midi": 57,
          "time": 131.59999999999837,
          "velocity": 0.7874015748031497,
          "duration": 0.06416666666666515
        },
        {
          "name": "E2",
          "midi": 40,
          "time": 131.99999999999838,
          "velocity": 0.7874015748031497,
          "duration": 0.06416666666666515
        },
        {
          "name": "C#3",
          "midi": 49,
          "time": 131.99999999999838,
          "velocity": 0.7874015748031497,
          "duration": 0.06416666666666515
        },
        {
          "name": "A3",
          "midi": 57,
          "time": 132.39999999999839,
          "velocity": 0.7874015748031497,
          "duration": 0.05333333333334167
        },
        {
          "name": "E2",
          "midi": 40,
          "time": 132.39999999999839,
          "velocity": 0.7874015748031497,
          "duration": 0.06416666666666515
        },
        {
          "name": "C2",
          "midi": 36,
          "time": 132.7999999999984,
          "velocity": 0.7874015748031497,
          "duration": 0.06416666666666515
        },
        {
          "name": "C#3",
          "midi": 49,
          "time": 132.7999999999984,
          "velocity": 0.7874015748031497,
          "duration": 0.06416666666666515
        },
        {
          "name": "C2",
          "midi": 36,
          "time": 133.1999999999984,
          "velocity": 0.7874015748031497,
          "duration": 0.06416666666666515
        },
        {
          "name": "C#3",
          "midi": 49,
          "time": 133.1999999999984,
          "velocity": 0.7874015748031497,
          "duration": 0.06416666666666515
        },
        {
          "name": "E2",
          "midi": 40,
          "time": 133.5999999999984,
          "velocity": 0.7874015748031497,
          "duration": 0.06416666666666515
        },
        {
          "name": "C#3",
          "midi": 49,
          "time": 133.5999999999984,
          "velocity": 0.7874015748031497,
          "duration": 0.06416666666666515
        },
        {
          "name": "C2",
          "midi": 36,
          "time": 133.9999999999984,
          "velocity": 0.7874015748031497,
          "duration": 0.06416666666666515
        },
        {
          "name": "C#3",
          "midi": 49,
          "time": 133.9999999999984,
          "velocity": 0.7874015748031497,
          "duration": 0.06416666666666515
        },
        {
          "name": "C2",
          "midi": 36,
          "time": 134.19416666666507,
          "velocity": 0.7874015748031497,
          "duration": 0.054166666666674246
        },
        {
          "name": "C#3",
          "midi": 49,
          "time": 134.3999999999984,
          "velocity": 0.7874015748031497,
          "duration": 0.06416666666666515
        },
        {
          "name": "C2",
          "midi": 36,
          "time": 134.59416666666507,
          "velocity": 0.7874015748031497,
          "duration": 0.054166666666674246
        },
        {
          "name": "C2",
          "midi": 36,
          "time": 134.79999999999842,
          "velocity": 0.7874015748031497,
          "duration": 0.06416666666666515
        },
        {
          "name": "C#3",
          "midi": 49,
          "time": 134.79999999999842,
          "velocity": 0.7874015748031497,
          "duration": 0.06416666666666515
        },
        {
          "name": "E2",
          "midi": 40,
          "time": 135.19999999999843,
          "velocity": 0.7874015748031497,
          "duration": 0.06416666666666515
        },
        {
          "name": "C#3",
          "midi": 49,
          "time": 135.19999999999843,
          "velocity": 0.7874015748031497,
          "duration": 0.06416666666666515
        },
        {
          "name": "C2",
          "midi": 36,
          "time": 135.59999999999843,
          "velocity": 0.7874015748031497,
          "duration": 0.06416666666666515
        },
        {
          "name": "C#3",
          "midi": 49,
          "time": 135.59999999999843,
          "velocity": 0.7874015748031497,
          "duration": 0.06416666666666515
        },
        {
          "name": "C2",
          "midi": 36,
          "time": 135.99999999999844,
          "velocity": 0.7874015748031497,
          "duration": 0.06416666666666515
        },
        {
          "name": "C#3",
          "midi": 49,
          "time": 135.99999999999844,
          "velocity": 0.7874015748031497,
          "duration": 0.06416666666666515
        },
        {
          "name": "C2",
          "midi": 36,
          "time": 136.39999999999844,
          "velocity": 0.7874015748031497,
          "duration": 0.06416666666666515
        },
        {
          "name": "C#3",
          "midi": 49,
          "time": 136.39999999999844,
          "velocity": 0.7874015748031497,
          "duration": 0.06416666666666515
        },
        {
          "name": "E2",
          "midi": 40,
          "time": 136.79999999999845,
          "velocity": 0.7874015748031497,
          "duration": 0.06416666666666515
        },
        {
          "name": "C#3",
          "midi": 49,
          "time": 136.79999999999845,
          "velocity": 0.7874015748031497,
          "duration": 0.06416666666666515
        },
        {
          "name": "C2",
          "midi": 36,
          "time": 137.19999999999845,
          "velocity": 0.7874015748031497,
          "duration": 0.06416666666666515
        },
        {
          "name": "C#3",
          "midi": 49,
          "time": 137.19999999999845,
          "velocity": 0.7874015748031497,
          "duration": 0.06416666666666515
        },
        {
          "name": "C2",
          "midi": 36,
          "time": 137.39416666666511,
          "velocity": 0.7874015748031497,
          "duration": 0.054166666666674246
        },
        {
          "name": "C#3",
          "midi": 49,
          "time": 137.59999999999846,
          "velocity": 0.7874015748031497,
          "duration": 0.06416666666666515
        },
        {
          "name": "C2",
          "midi": 36,
          "time": 137.79999999999845,
          "velocity": 0.7874015748031497,
          "duration": 0.054166666666674246
        },
        {
          "name": "E2",
          "midi": 40,
          "time": 137.99999999999847,
          "velocity": 0.7874015748031497,
          "duration": 0.06416666666666515
        },
        {
          "name": "A3",
          "midi": 57,
          "time": 137.99999999999847,
          "velocity": 0.7874015748031497,
          "duration": 0.06416666666666515
        },
        {
          "name": "A#2",
          "midi": 46,
          "time": 138.39999999999847,
          "velocity": 0.7874015748031497,
          "duration": 0.05333333333334167
        },
        {
          "name": "A#2",
          "midi": 46,
          "time": 139.19999999999848,
          "velocity": 0.7874015748031497,
          "duration": 0.05333333333334167
        },
        {
          "name": "A#2",
          "midi": 46,
          "time": 139.9999999999985,
          "velocity": 0.7874015748031497,
          "duration": 0.05333333333334167
        },
        {
          "name": "A#2",
          "midi": 46,
          "time": 140.7999999999985,
          "velocity": 0.7874015748031497,
          "duration": 0.05333333333334167
        },
        {
          "name": "C2",
          "midi": 36,
          "time": 140.7999999999985,
          "velocity": 0.7874015748031497,
          "duration": 0.05333333333334167
        },
        {
          "name": "A#2",
          "midi": 46,
          "time": 141.1999999999985,
          "velocity": 0.7874015748031497,
          "duration": 0.05333333333334167
        },
        {
          "name": "C2",
          "midi": 36,
          "time": 141.1999999999985,
          "velocity": 0.7874015748031497,
          "duration": 0.05333333333334167
        },
        {
          "name": "A#2",
          "midi": 46,
          "time": 141.59999999999852,
          "velocity": 0.7874015748031497,
          "duration": 0.05333333333334167
        },
        {
          "name": "E2",
          "midi": 40,
          "time": 141.59999999999852,
          "velocity": 0.7874015748031497,
          "duration": 0.05333333333334167
        },
        {
          "name": "A#2",
          "midi": 46,
          "time": 141.99999999999852,
          "velocity": 0.7874015748031497,
          "duration": 0.05333333333334167
        },
        {
          "name": "C2",
          "midi": 36,
          "time": 142.39999999999853,
          "velocity": 0.7874015748031497,
          "duration": 0.05333333333334167
        },
        {
          "name": "A#2",
          "midi": 46,
          "time": 142.39999999999853,
          "velocity": 0.7874015748031497,
          "duration": 0.05333333333334167
        },
        {
          "name": "C2",
          "midi": 36,
          "time": 142.59999999999854,
          "velocity": 0.7874015748031497,
          "duration": 0.04833333333334622
        },
        {
          "name": "A#2",
          "midi": 46,
          "time": 142.79999999999856,
          "velocity": 0.7874015748031497,
          "duration": 0.05333333333334167
        },
        {
          "name": "C2",
          "midi": 36,
          "time": 142.99999999999858,
          "velocity": 0.7874015748031497,
          "duration": 0.05333333333334167
        },
        {
          "name": "A#2",
          "midi": 46,
          "time": 143.1999999999986,
          "velocity": 0.7874015748031497,
          "duration": 0.05333333333334167
        },
        {
          "name": "E2",
          "midi": 40,
          "time": 143.1999999999986,
          "velocity": 0.7874015748031497,
          "duration": 0.05333333333334167
        },
        {
          "name": "A#2",
          "midi": 46,
          "time": 143.5999999999986,
          "velocity": 0.7874015748031497,
          "duration": 0.05333333333334167
        },
        {
          "name": "A#2",
          "midi": 46,
          "time": 143.9999999999986,
          "velocity": 0.7874015748031497,
          "duration": 0.05333333333334167
        },
        {
          "name": "C2",
          "midi": 36,
          "time": 143.9999999999986,
          "velocity": 0.7874015748031497,
          "duration": 0.05333333333334167
        },
        {
          "name": "A#2",
          "midi": 46,
          "time": 144.3999999999986,
          "velocity": 0.7874015748031497,
          "duration": 0.05333333333334167
        },
        {
          "name": "C2",
          "midi": 36,
          "time": 144.3999999999986,
          "velocity": 0.7874015748031497,
          "duration": 0.05333333333334167
        },
        {
          "name": "A#2",
          "midi": 46,
          "time": 144.79999999999862,
          "velocity": 0.7874015748031497,
          "duration": 0.05333333333334167
        },
        {
          "name": "E2",
          "midi": 40,
          "time": 144.79999999999862,
          "velocity": 0.7874015748031497,
          "duration": 0.05333333333334167
        },
        {
          "name": "A#2",
          "midi": 46,
          "time": 145.19999999999862,
          "velocity": 0.7874015748031497,
          "duration": 0.05333333333334167
        },
        {
          "name": "C2",
          "midi": 36,
          "time": 145.59999999999863,
          "velocity": 0.7874015748031497,
          "duration": 0.05333333333334167
        },
        {
          "name": "A#2",
          "midi": 46,
          "time": 145.59999999999863,
          "velocity": 0.7874015748031497,
          "duration": 0.05333333333334167
        },
        {
          "name": "C2",
          "midi": 36,
          "time": 145.79999999999865,
          "velocity": 0.7874015748031497,
          "duration": 0.04833333333334622
        },
        {
          "name": "A#2",
          "midi": 46,
          "time": 145.99999999999866,
          "velocity": 0.7874015748031497,
          "duration": 0.05333333333334167
        },
        {
          "name": "C2",
          "midi": 36,
          "time": 146.19999999999868,
          "velocity": 0.7874015748031497,
          "duration": 0.05333333333334167
        },
        {
          "name": "A#2",
          "midi": 46,
          "time": 146.3999999999987,
          "velocity": 0.7874015748031497,
          "duration": 0.05333333333334167
        },
        {
          "name": "E2",
          "midi": 40,
          "time": 146.3999999999987,
          "velocity": 0.7874015748031497,
          "duration": 0.05333333333334167
        },
        {
          "name": "A#2",
          "midi": 46,
          "time": 146.7999999999987,
          "velocity": 0.7874015748031497,
          "duration": 0.05333333333334167
        },
        {
          "name": "A#2",
          "midi": 46,
          "time": 147.1999999999987,
          "velocity": 0.7874015748031497,
          "duration": 0.05333333333334167
        },
        {
          "name": "C2",
          "midi": 36,
          "time": 147.1999999999987,
          "velocity": 0.7874015748031497,
          "duration": 0.05333333333334167
        },
        {
          "name": "A#2",
          "midi": 46,
          "time": 147.59999999999872,
          "velocity": 0.7874015748031497,
          "duration": 0.05333333333334167
        },
        {
          "name": "C2",
          "midi": 36,
          "time": 147.59999999999872,
          "velocity": 0.7874015748031497,
          "duration": 0.05333333333334167
        },
        {
          "name": "A#2",
          "midi": 46,
          "time": 147.99999999999872,
          "velocity": 0.7874015748031497,
          "duration": 0.05333333333334167
        },
        {
          "name": "E2",
          "midi": 40,
          "time": 147.99999999999872,
          "velocity": 0.7874015748031497,
          "duration": 0.05333333333334167
        },
        {
          "name": "A#2",
          "midi": 46,
          "time": 148.39999999999873,
          "velocity": 0.7874015748031497,
          "duration": 0.05333333333334167
        },
        {
          "name": "C2",
          "midi": 36,
          "time": 148.79999999999873,
          "velocity": 0.7874015748031497,
          "duration": 0.05333333333334167
        },
        {
          "name": "A#2",
          "midi": 46,
          "time": 148.79999999999873,
          "velocity": 0.7874015748031497,
          "duration": 0.05333333333334167
        },
        {
          "name": "C2",
          "midi": 36,
          "time": 148.99999999999875,
          "velocity": 0.7874015748031497,
          "duration": 0.04833333333334622
        },
        {
          "name": "A#2",
          "midi": 46,
          "time": 149.19999999999877,
          "velocity": 0.7874015748031497,
          "duration": 0.05333333333334167
        },
        {
          "name": "C2",
          "midi": 36,
          "time": 149.39999999999878,
          "velocity": 0.7874015748031497,
          "duration": 0.05333333333334167
        },
        {
          "name": "A#2",
          "midi": 46,
          "time": 149.5999999999988,
          "velocity": 0.7874015748031497,
          "duration": 0.05333333333334167
        },
        {
          "name": "E2",
          "midi": 40,
          "time": 149.5999999999988,
          "velocity": 0.7874015748031497,
          "duration": 0.05333333333334167
        },
        {
          "name": "A#2",
          "midi": 46,
          "time": 149.9999999999988,
          "velocity": 0.7874015748031497,
          "duration": 0.05333333333334167
        },
        {
          "name": "A#2",
          "midi": 46,
          "time": 150.3999999999988,
          "velocity": 0.7874015748031497,
          "duration": 0.05333333333334167
        },
        {
          "name": "C2",
          "midi": 36,
          "time": 150.3999999999988,
          "velocity": 0.7874015748031497,
          "duration": 0.05333333333334167
        },
        {
          "name": "A#2",
          "midi": 46,
          "time": 150.79999999999882,
          "velocity": 0.7874015748031497,
          "duration": 0.05333333333334167
        },
        {
          "name": "C2",
          "midi": 36,
          "time": 150.79999999999882,
          "velocity": 0.7874015748031497,
          "duration": 0.05333333333334167
        },
        {
          "name": "A#2",
          "midi": 46,
          "time": 151.19999999999882,
          "velocity": 0.7874015748031497,
          "duration": 0.05333333333334167
        },
        {
          "name": "E2",
          "midi": 40,
          "time": 151.19999999999882,
          "velocity": 0.7874015748031497,
          "duration": 0.05333333333334167
        },
        {
          "name": "A#2",
          "midi": 46,
          "time": 151.59999999999883,
          "velocity": 0.7874015748031497,
          "duration": 0.05333333333334167
        },
        {
          "name": "C2",
          "midi": 36,
          "time": 151.99999999999883,
          "velocity": 0.7874015748031497,
          "duration": 0.05333333333334167
        },
        {
          "name": "A#2",
          "midi": 46,
          "time": 151.99999999999883,
          "velocity": 0.7874015748031497,
          "duration": 0.05333333333334167
        },
        {
          "name": "C2",
          "midi": 36,
          "time": 152.19999999999885,
          "velocity": 0.7874015748031497,
          "duration": 0.04833333333334622
        },
        {
          "name": "A#2",
          "midi": 46,
          "time": 152.39999999999887,
          "velocity": 0.7874015748031497,
          "duration": 0.05333333333334167
        },
        {
          "name": "C2",
          "midi": 36,
          "time": 152.5999999999989,
          "velocity": 0.7874015748031497,
          "duration": 0.05333333333334167
        },
        {
          "name": "A#2",
          "midi": 46,
          "time": 152.7999999999989,
          "velocity": 0.7874015748031497,
          "duration": 0.05333333333334167
        },
        {
          "name": "E2",
          "midi": 40,
          "time": 152.7999999999989,
          "velocity": 0.7874015748031497,
          "duration": 0.05333333333334167
        },
        {
          "name": "A#2",
          "midi": 46,
          "time": 153.1999999999989,
          "velocity": 0.7874015748031497,
          "duration": 0.05333333333334167
        },
        {
          "name": "A#2",
          "midi": 46,
          "time": 153.59999999999891,
          "velocity": 0.7874015748031497,
          "duration": 0.05333333333334167
        },
        {
          "name": "C2",
          "midi": 36,
          "time": 153.59999999999891,
          "velocity": 0.7874015748031497,
          "duration": 0.05333333333334167
        },
        {
          "name": "A#2",
          "midi": 46,
          "time": 153.99999999999892,
          "velocity": 0.7874015748031497,
          "duration": 0.05333333333334167
        },
        {
          "name": "C2",
          "midi": 36,
          "time": 153.99999999999892,
          "velocity": 0.7874015748031497,
          "duration": 0.05333333333334167
        },
        {
          "name": "A#2",
          "midi": 46,
          "time": 154.39999999999893,
          "velocity": 0.7874015748031497,
          "duration": 0.05333333333334167
        },
        {
          "name": "E2",
          "midi": 40,
          "time": 154.39999999999893,
          "velocity": 0.7874015748031497,
          "duration": 0.05333333333334167
        },
        {
          "name": "A#2",
          "midi": 46,
          "time": 154.79999999999893,
          "velocity": 0.7874015748031497,
          "duration": 0.05333333333334167
        },
        {
          "name": "C2",
          "midi": 36,
          "time": 155.19999999999894,
          "velocity": 0.7874015748031497,
          "duration": 0.05333333333334167
        },
        {
          "name": "A#2",
          "midi": 46,
          "time": 155.19999999999894,
          "velocity": 0.7874015748031497,
          "duration": 0.05333333333334167
        },
        {
          "name": "C2",
          "midi": 36,
          "time": 155.39999999999895,
          "velocity": 0.7874015748031497,
          "duration": 0.04833333333334622
        },
        {
          "name": "A#2",
          "midi": 46,
          "time": 155.59999999999897,
          "velocity": 0.7874015748031497,
          "duration": 0.05333333333334167
        },
        {
          "name": "C2",
          "midi": 36,
          "time": 155.799999999999,
          "velocity": 0.7874015748031497,
          "duration": 0.05333333333334167
        },
        {
          "name": "A#2",
          "midi": 46,
          "time": 155.999999999999,
          "velocity": 0.7874015748031497,
          "duration": 0.05333333333334167
        },
        {
          "name": "E2",
          "midi": 40,
          "time": 155.999999999999,
          "velocity": 0.7874015748031497,
          "duration": 0.05333333333334167
        },
        {
          "name": "A#2",
          "midi": 46,
          "time": 156.399999999999,
          "velocity": 0.7874015748031497,
          "duration": 0.05333333333334167
        },
        {
          "name": "A#2",
          "midi": 46,
          "time": 156.79999999999902,
          "velocity": 0.7874015748031497,
          "duration": 0.05333333333334167
        },
        {
          "name": "C2",
          "midi": 36,
          "time": 156.79999999999902,
          "velocity": 0.7874015748031497,
          "duration": 0.05333333333334167
        },
        {
          "name": "A#2",
          "midi": 46,
          "time": 157.19999999999902,
          "velocity": 0.7874015748031497,
          "duration": 0.05333333333334167
        },
        {
          "name": "C2",
          "midi": 36,
          "time": 157.19999999999902,
          "velocity": 0.7874015748031497,
          "duration": 0.05333333333334167
        },
        {
          "name": "A#2",
          "midi": 46,
          "time": 157.59999999999903,
          "velocity": 0.7874015748031497,
          "duration": 0.05333333333334167
        },
        {
          "name": "E2",
          "midi": 40,
          "time": 157.59999999999903,
          "velocity": 0.7874015748031497,
          "duration": 0.05333333333334167
        },
        {
          "name": "A#2",
          "midi": 46,
          "time": 157.99999999999903,
          "velocity": 0.7874015748031497,
          "duration": 0.05333333333334167
        },
        {
          "name": "C2",
          "midi": 36,
          "time": 158.39999999999904,
          "velocity": 0.7874015748031497,
          "duration": 0.05333333333334167
        },
        {
          "name": "A#2",
          "midi": 46,
          "time": 158.39999999999904,
          "velocity": 0.7874015748031497,
          "duration": 0.05333333333334167
        },
        {
          "name": "C2",
          "midi": 36,
          "time": 158.59999999999906,
          "velocity": 0.7874015748031497,
          "duration": 0.04833333333334622
        },
        {
          "name": "A#2",
          "midi": 46,
          "time": 158.79999999999907,
          "velocity": 0.7874015748031497,
          "duration": 0.05333333333334167
        },
        {
          "name": "C2",
          "midi": 36,
          "time": 158.9999999999991,
          "velocity": 0.7874015748031497,
          "duration": 0.05333333333334167
        },
        {
          "name": "A#2",
          "midi": 46,
          "time": 159.1999999999991,
          "velocity": 0.7874015748031497,
          "duration": 0.05333333333334167
        },
        {
          "name": "E2",
          "midi": 40,
          "time": 159.1999999999991,
          "velocity": 0.7874015748031497,
          "duration": 0.05333333333334167
        },
        {
          "name": "A#2",
          "midi": 46,
          "time": 159.5999999999991,
          "velocity": 0.7874015748031497,
          "duration": 0.05333333333334167
        },
        {
          "name": "A#2",
          "midi": 46,
          "time": 159.99999999999912,
          "velocity": 0.7874015748031497,
          "duration": 0.05333333333334167
        },
        {
          "name": "C2",
          "midi": 36,
          "time": 159.99999999999912,
          "velocity": 0.7874015748031497,
          "duration": 0.05333333333334167
        },
        {
          "name": "A#2",
          "midi": 46,
          "time": 160.39999999999912,
          "velocity": 0.7874015748031497,
          "duration": 0.05333333333334167
        },
        {
          "name": "C2",
          "midi": 36,
          "time": 160.39999999999912,
          "velocity": 0.7874015748031497,
          "duration": 0.05333333333334167
        },
        {
          "name": "A#2",
          "midi": 46,
          "time": 160.79999999999913,
          "velocity": 0.7874015748031497,
          "duration": 0.05333333333334167
        },
        {
          "name": "E2",
          "midi": 40,
          "time": 160.79999999999913,
          "velocity": 0.7874015748031497,
          "duration": 0.05333333333334167
        },
        {
          "name": "A#2",
          "midi": 46,
          "time": 161.19999999999914,
          "velocity": 0.7874015748031497,
          "duration": 0.05333333333334167
        },
        {
          "name": "C2",
          "midi": 36,
          "time": 161.59999999999914,
          "velocity": 0.7874015748031497,
          "duration": 0.05333333333334167
        },
        {
          "name": "A#2",
          "midi": 46,
          "time": 161.59999999999914,
          "velocity": 0.7874015748031497,
          "duration": 0.05333333333334167
        },
        {
          "name": "C2",
          "midi": 36,
          "time": 161.79999999999916,
          "velocity": 0.7874015748031497,
          "duration": 0.04833333333334622
        },
        {
          "name": "A#2",
          "midi": 46,
          "time": 161.99999999999918,
          "velocity": 0.7874015748031497,
          "duration": 0.05333333333334167
        },
        {
          "name": "C2",
          "midi": 36,
          "time": 162.1999999999992,
          "velocity": 0.7874015748031497,
          "duration": 0.05333333333334167
        },
        {
          "name": "A#2",
          "midi": 46,
          "time": 162.3999999999992,
          "velocity": 0.7874015748031497,
          "duration": 0.05333333333334167
        },
        {
          "name": "E2",
          "midi": 40,
          "time": 162.3999999999992,
          "velocity": 0.7874015748031497,
          "duration": 0.05333333333334167
        },
        {
          "name": "A#2",
          "midi": 46,
          "time": 162.79999999999922,
          "velocity": 0.7874015748031497,
          "duration": 0.05333333333334167
        },
        {
          "name": "A#2",
          "midi": 46,
          "time": 163.19999999999922,
          "velocity": 0.7874015748031497,
          "duration": 0.05333333333334167
        },
        {
          "name": "C2",
          "midi": 36,
          "time": 163.19999999999922,
          "velocity": 0.7874015748031497,
          "duration": 0.05333333333334167
        },
        {
          "name": "A#2",
          "midi": 46,
          "time": 163.59999999999923,
          "velocity": 0.7874015748031497,
          "duration": 0.05333333333334167
        },
        {
          "name": "C2",
          "midi": 36,
          "time": 163.59999999999923,
          "velocity": 0.7874015748031497,
          "duration": 0.05333333333334167
        },
        {
          "name": "A#2",
          "midi": 46,
          "time": 163.99999999999923,
          "velocity": 0.7874015748031497,
          "duration": 0.05333333333334167
        },
        {
          "name": "E2",
          "midi": 40,
          "time": 163.99999999999923,
          "velocity": 0.7874015748031497,
          "duration": 0.05333333333334167
        },
        {
          "name": "A#2",
          "midi": 46,
          "time": 164.39999999999924,
          "velocity": 0.7874015748031497,
          "duration": 0.05333333333334167
        },
        {
          "name": "A#2",
          "midi": 46,
          "time": 164.79999999999924,
          "velocity": 0.7874015748031497,
          "duration": 0.05333333333334167
        },
        {
          "name": "E2",
          "midi": 40,
          "time": 164.79999999999924,
          "velocity": 0.7874015748031497,
          "duration": 0.05333333333334167
        },
        {
          "name": "C2",
          "midi": 36,
          "time": 164.99999999999926,
          "velocity": 0.7874015748031497,
          "duration": 0.04833333333334622
        },
        {
          "name": "A#2",
          "midi": 46,
          "time": 165.19999999999928,
          "velocity": 0.7874015748031497,
          "duration": 0.05333333333334167
        },
        {
          "name": "C2",
          "midi": 36,
          "time": 165.19999999999928,
          "velocity": 0.7874015748031497,
          "duration": 0.05333333333334167
        },
        {
          "name": "C2",
          "midi": 36,
          "time": 165.3999999999993,
          "velocity": 0.7874015748031497,
          "duration": 0.05333333333334167
        },
        {
          "name": "A#2",
          "midi": 46,
          "time": 165.5999999999993,
          "velocity": 0.7874015748031497,
          "duration": 0.05333333333334167
        },
        {
          "name": "E2",
          "midi": 40,
          "time": 165.5999999999993,
          "velocity": 0.7874015748031497,
          "duration": 0.05333333333334167
        },
        {
          "name": "C2",
          "midi": 36,
          "time": 165.79999999999933,
          "velocity": 0.7874015748031497,
          "duration": 0.054166666666674246
        },
        {
          "name": "A#2",
          "midi": 46,
          "time": 165.99999999999935,
          "velocity": 0.7874015748031497,
          "duration": 0.05333333333334167
        },
        {
          "name": "C2",
          "midi": 36,
          "time": 165.99999999999935,
          "velocity": 0.7874015748031497,
          "duration": 0.05333333333334167
        },
        {
          "name": "C2",
          "midi": 36,
          "time": 166.39999999999935,
          "velocity": 0.7874015748031497,
          "duration": 0.06416666666666515
        },
        {
          "name": "C#3",
          "midi": 49,
          "time": 166.39999999999935,
          "velocity": 0.7874015748031497,
          "duration": 0.06416666666666515
        },
        {
          "name": "C2",
          "midi": 36,
          "time": 166.39999999999935,
          "velocity": 0.7874015748031497,
          "duration": 0.06416666666666515
        },
        {
          "name": "C#3",
          "midi": 49,
          "time": 166.39999999999935,
          "velocity": 0.7874015748031497,
          "duration": 0.06416666666666515
        },
        {
          "name": "C2",
          "midi": 36,
          "time": 166.79999999999936,
          "velocity": 0.7874015748031497,
          "duration": 0.06416666666666515
        },
        {
          "name": "C#3",
          "midi": 49,
          "time": 166.79999999999936,
          "velocity": 0.7874015748031497,
          "duration": 0.06416666666666515
        },
        {
          "name": "E2",
          "midi": 40,
          "time": 167.19999999999936,
          "velocity": 0.7874015748031497,
          "duration": 0.06416666666666515
        },
        {
          "name": "C#3",
          "midi": 49,
          "time": 167.19999999999936,
          "velocity": 0.7874015748031497,
          "duration": 0.06416666666666515
        },
        {
          "name": "C2",
          "midi": 36,
          "time": 167.59999999999937,
          "velocity": 0.7874015748031497,
          "duration": 0.06416666666666515
        },
        {
          "name": "C#3",
          "midi": 49,
          "time": 167.59999999999937,
          "velocity": 0.7874015748031497,
          "duration": 0.06416666666666515
        },
        {
          "name": "C2",
          "midi": 36,
          "time": 167.79416666666603,
          "velocity": 0.7874015748031497,
          "duration": 0.054166666666674246
        },
        {
          "name": "C#3",
          "midi": 49,
          "time": 167.99999999999937,
          "velocity": 0.7874015748031497,
          "duration": 0.06416666666666515
        },
        {
          "name": "C2",
          "midi": 36,
          "time": 168.19416666666604,
          "velocity": 0.7874015748031497,
          "duration": 0.054166666666674246
        },
        {
          "name": "C2",
          "midi": 36,
          "time": 168.39999999999938,
          "velocity": 0.7874015748031497,
          "duration": 0.06416666666666515
        },
        {
          "name": "C#3",
          "midi": 49,
          "time": 168.39999999999938,
          "velocity": 0.7874015748031497,
          "duration": 0.06416666666666515
        },
        {
          "name": "E2",
          "midi": 40,
          "time": 168.7999999999994,
          "velocity": 0.7874015748031497,
          "duration": 0.06416666666666515
        },
        {
          "name": "C#3",
          "midi": 49,
          "time": 168.7999999999994,
          "velocity": 0.7874015748031497,
          "duration": 0.06416666666666515
        },
        {
          "name": "C2",
          "midi": 36,
          "time": 169.1999999999994,
          "velocity": 0.7874015748031497,
          "duration": 0.06416666666666515
        },
        {
          "name": "C#3",
          "midi": 49,
          "time": 169.1999999999994,
          "velocity": 0.7874015748031497,
          "duration": 0.06416666666666515
        },
        {
          "name": "C2",
          "midi": 36,
          "time": 169.5999999999994,
          "velocity": 0.7874015748031497,
          "duration": 0.06416666666666515
        },
        {
          "name": "C#3",
          "midi": 49,
          "time": 169.5999999999994,
          "velocity": 0.7874015748031497,
          "duration": 0.06416666666666515
        },
        {
          "name": "C2",
          "midi": 36,
          "time": 169.9999999999994,
          "velocity": 0.7874015748031497,
          "duration": 0.06416666666666515
        },
        {
          "name": "C#3",
          "midi": 49,
          "time": 169.9999999999994,
          "velocity": 0.7874015748031497,
          "duration": 0.06416666666666515
        },
        {
          "name": "E2",
          "midi": 40,
          "time": 170.3999999999994,
          "velocity": 0.7874015748031497,
          "duration": 0.06416666666666515
        },
        {
          "name": "C#3",
          "midi": 49,
          "time": 170.3999999999994,
          "velocity": 0.7874015748031497,
          "duration": 0.06416666666666515
        },
        {
          "name": "C2",
          "midi": 36,
          "time": 170.79999999999941,
          "velocity": 0.7874015748031497,
          "duration": 0.06416666666666515
        },
        {
          "name": "C#3",
          "midi": 49,
          "time": 170.79999999999941,
          "velocity": 0.7874015748031497,
          "duration": 0.06416666666666515
        },
        {
          "name": "C2",
          "midi": 36,
          "time": 170.99416666666608,
          "velocity": 0.7874015748031497,
          "duration": 0.054166666666674246
        },
        {
          "name": "C#3",
          "midi": 49,
          "time": 171.19999999999942,
          "velocity": 0.7874015748031497,
          "duration": 0.06416666666666515
        },
        {
          "name": "C2",
          "midi": 36,
          "time": 171.39416666666608,
          "velocity": 0.7874015748031497,
          "duration": 0.054166666666674246
        },
        {
          "name": "E2",
          "midi": 40,
          "time": 171.59999999999943,
          "velocity": 0.7874015748031497,
          "duration": 0.06416666666666515
        },
        {
          "name": "A3",
          "midi": 57,
          "time": 171.59999999999943,
          "velocity": 0.7874015748031497,
          "duration": 0.06416666666666515
        },
        {
          "name": "E2",
          "midi": 40,
          "time": 171.99999999999943,
          "velocity": 0.7874015748031497,
          "duration": 0.06416666666666515
        },
        {
          "name": "C#3",
          "midi": 49,
          "time": 171.99999999999943,
          "velocity": 0.7874015748031497,
          "duration": 0.06416666666666515
        },
        {
          "name": "A3",
          "midi": 57,
          "time": 172.39999999999944,
          "velocity": 0.7874015748031497,
          "duration": 0.05333333333334167
        },
        {
          "name": "E2",
          "midi": 40,
          "time": 172.39999999999944,
          "velocity": 0.7874015748031497,
          "duration": 0.06416666666666515
        },
        {
          "name": "C2",
          "midi": 36,
          "time": 172.79999999999944,
          "velocity": 0.7874015748031497,
          "duration": 0.06416666666666515
        },
        {
          "name": "C#3",
          "midi": 49,
          "time": 172.79999999999944,
          "velocity": 0.7874015748031497,
          "duration": 0.06416666666666515
        },
        {
          "name": "C2",
          "midi": 36,
          "time": 173.19999999999945,
          "velocity": 0.7874015748031497,
          "duration": 0.06416666666666515
        },
        {
          "name": "C#3",
          "midi": 49,
          "time": 173.19999999999945,
          "velocity": 0.7874015748031497,
          "duration": 0.06416666666666515
        },
        {
          "name": "E2",
          "midi": 40,
          "time": 173.59999999999945,
          "velocity": 0.7874015748031497,
          "duration": 0.06416666666666515
        },
        {
          "name": "C#3",
          "midi": 49,
          "time": 173.59999999999945,
          "velocity": 0.7874015748031497,
          "duration": 0.06416666666666515
        },
        {
          "name": "C2",
          "midi": 36,
          "time": 173.99999999999946,
          "velocity": 0.7874015748031497,
          "duration": 0.06416666666666515
        },
        {
          "name": "C#3",
          "midi": 49,
          "time": 173.99999999999946,
          "velocity": 0.7874015748031497,
          "duration": 0.06416666666666515
        },
        {
          "name": "C2",
          "midi": 36,
          "time": 174.19416666666612,
          "velocity": 0.7874015748031497,
          "duration": 0.054166666666674246
        },
        {
          "name": "C#3",
          "midi": 49,
          "time": 174.39999999999947,
          "velocity": 0.7874015748031497,
          "duration": 0.06416666666666515
        },
        {
          "name": "C2",
          "midi": 36,
          "time": 174.59416666666613,
          "velocity": 0.7874015748031497,
          "duration": 0.054166666666674246
        },
        {
          "name": "C2",
          "midi": 36,
          "time": 174.79999999999947,
          "velocity": 0.7874015748031497,
          "duration": 0.06416666666666515
        },
        {
          "name": "C#3",
          "midi": 49,
          "time": 174.79999999999947,
          "velocity": 0.7874015748031497,
          "duration": 0.06416666666666515
        },
        {
          "name": "E2",
          "midi": 40,
          "time": 175.19999999999948,
          "velocity": 0.7874015748031497,
          "duration": 0.06416666666666515
        },
        {
          "name": "C#3",
          "midi": 49,
          "time": 175.19999999999948,
          "velocity": 0.7874015748031497,
          "duration": 0.06416666666666515
        },
        {
          "name": "C2",
          "midi": 36,
          "time": 175.59999999999948,
          "velocity": 0.7874015748031497,
          "duration": 0.06416666666666515
        },
        {
          "name": "C#3",
          "midi": 49,
          "time": 175.59999999999948,
          "velocity": 0.7874015748031497,
          "duration": 0.06416666666666515
        },
        {
          "name": "C2",
          "midi": 36,
          "time": 175.9999999999995,
          "velocity": 0.7874015748031497,
          "duration": 0.06416666666666515
        },
        {
          "name": "C#3",
          "midi": 49,
          "time": 175.9999999999995,
          "velocity": 0.7874015748031497,
          "duration": 0.06416666666666515
        },
        {
          "name": "C2",
          "midi": 36,
          "time": 176.3999999999995,
          "velocity": 0.7874015748031497,
          "duration": 0.06416666666666515
        },
        {
          "name": "C#3",
          "midi": 49,
          "time": 176.3999999999995,
          "velocity": 0.7874015748031497,
          "duration": 0.06416666666666515
        },
        {
          "name": "E2",
          "midi": 40,
          "time": 176.7999999999995,
          "velocity": 0.7874015748031497,
          "duration": 0.06416666666666515
        },
        {
          "name": "C#3",
          "midi": 49,
          "time": 176.7999999999995,
          "velocity": 0.7874015748031497,
          "duration": 0.06416666666666515
        },
        {
          "name": "C2",
          "midi": 36,
          "time": 177.1999999999995,
          "velocity": 0.7874015748031497,
          "duration": 0.06416666666666515
        },
        {
          "name": "C#3",
          "midi": 49,
          "time": 177.1999999999995,
          "velocity": 0.7874015748031497,
          "duration": 0.06416666666666515
        },
        {
          "name": "C2",
          "midi": 36,
          "time": 177.39416666666617,
          "velocity": 0.7874015748031497,
          "duration": 0.054166666666674246
        },
        {
          "name": "C#3",
          "midi": 49,
          "time": 177.5999999999995,
          "velocity": 0.7874015748031497,
          "duration": 0.06416666666666515
        },
        {
          "name": "C2",
          "midi": 36,
          "time": 177.79416666666617,
          "velocity": 0.7874015748031497,
          "duration": 0.054166666666674246
        },
        {
          "name": "E2",
          "midi": 40,
          "time": 177.99999999999952,
          "velocity": 0.7874015748031497,
          "duration": 0.06416666666666515
        },
        {
          "name": "A3",
          "midi": 57,
          "time": 177.99999999999952,
          "velocity": 0.7874015748031497,
          "duration": 0.06416666666666515
        },
        {
          "name": "E2",
          "midi": 40,
          "time": 178.39999999999952,
          "velocity": 0.7874015748031497,
          "duration": 0.06416666666666515
        },
        {
          "name": "C#3",
          "midi": 49,
          "time": 178.39999999999952,
          "velocity": 0.7874015748031497,
          "duration": 0.06416666666666515
        },
        {
          "name": "A3",
          "midi": 57,
          "time": 178.79999999999953,
          "velocity": 0.7874015748031497,
          "duration": 0.05333333333334167
        },
        {
          "name": "E2",
          "midi": 40,
          "time": 178.79999999999953,
          "velocity": 0.7874015748031497,
          "duration": 0.06416666666666515
        },
        {
          "name": "C2",
          "midi": 36,
          "time": 179.19999999999953,
          "velocity": 0.7874015748031497,
          "duration": 0.06416666666666515
        },
        {
          "name": "C#3",
          "midi": 49,
          "time": 179.19999999999953,
          "velocity": 0.7874015748031497,
          "duration": 0.06416666666666515
        },
        {
          "name": "C2",
          "midi": 36,
          "time": 179.59999999999954,
          "velocity": 0.7874015748031497,
          "duration": 0.06416666666666515
        },
        {
          "name": "C#3",
          "midi": 49,
          "time": 179.59999999999954,
          "velocity": 0.7874015748031497,
          "duration": 0.06416666666666515
        },
        {
          "name": "E2",
          "midi": 40,
          "time": 179.99999999999955,
          "velocity": 0.7874015748031497,
          "duration": 0.06416666666666515
        },
        {
          "name": "C#3",
          "midi": 49,
          "time": 179.99999999999955,
          "velocity": 0.7874015748031497,
          "duration": 0.06416666666666515
        },
        {
          "name": "C2",
          "midi": 36,
          "time": 180.39999999999955,
          "velocity": 0.7874015748031497,
          "duration": 0.06416666666666515
        },
        {
          "name": "C#3",
          "midi": 49,
          "time": 180.39999999999955,
          "velocity": 0.7874015748031497,
          "duration": 0.06416666666666515
        },
        {
          "name": "C2",
          "midi": 36,
          "time": 180.5941666666662,
          "velocity": 0.7874015748031497,
          "duration": 0.054166666666674246
        },
        {
          "name": "C#3",
          "midi": 49,
          "time": 180.79999999999956,
          "velocity": 0.7874015748031497,
          "duration": 0.06416666666666515
        },
        {
          "name": "C2",
          "midi": 36,
          "time": 180.99416666666622,
          "velocity": 0.7874015748031497,
          "duration": 0.054166666666674246
        },
        {
          "name": "C2",
          "midi": 36,
          "time": 181.19999999999956,
          "velocity": 0.7874015748031497,
          "duration": 0.06416666666666515
        },
        {
          "name": "C#3",
          "midi": 49,
          "time": 181.19999999999956,
          "velocity": 0.7874015748031497,
          "duration": 0.06416666666666515
        },
        {
          "name": "E2",
          "midi": 40,
          "time": 181.59999999999957,
          "velocity": 0.7874015748031497,
          "duration": 0.06416666666666515
        },
        {
          "name": "C#3",
          "midi": 49,
          "time": 181.59999999999957,
          "velocity": 0.7874015748031497,
          "duration": 0.06416666666666515
        },
        {
          "name": "C2",
          "midi": 36,
          "time": 181.99999999999957,
          "velocity": 0.7874015748031497,
          "duration": 0.06416666666666515
        },
        {
          "name": "C#3",
          "midi": 49,
          "time": 181.99999999999957,
          "velocity": 0.7874015748031497,
          "duration": 0.06416666666666515
        },
        {
          "name": "C2",
          "midi": 36,
          "time": 182.39999999999958,
          "velocity": 0.7874015748031497,
          "duration": 0.06416666666666515
        },
        {
          "name": "C#3",
          "midi": 49,
          "time": 182.39999999999958,
          "velocity": 0.7874015748031497,
          "duration": 0.06416666666666515
        },
        {
          "name": "C2",
          "midi": 36,
          "time": 182.79999999999959,
          "velocity": 0.7874015748031497,
          "duration": 0.06416666666666515
        },
        {
          "name": "C#3",
          "midi": 49,
          "time": 182.79999999999959,
          "velocity": 0.7874015748031497,
          "duration": 0.06416666666666515
        },
        {
          "name": "E2",
          "midi": 40,
          "time": 183.1999999999996,
          "velocity": 0.7874015748031497,
          "duration": 0.06416666666666515
        },
        {
          "name": "C#3",
          "midi": 49,
          "time": 183.1999999999996,
          "velocity": 0.7874015748031497,
          "duration": 0.06416666666666515
        },
        {
          "name": "C2",
          "midi": 36,
          "time": 183.5999999999996,
          "velocity": 0.7874015748031497,
          "duration": 0.06416666666666515
        },
        {
          "name": "C#3",
          "midi": 49,
          "time": 183.5999999999996,
          "velocity": 0.7874015748031497,
          "duration": 0.06416666666666515
        },
        {
          "name": "C2",
          "midi": 36,
          "time": 183.79416666666626,
          "velocity": 0.7874015748031497,
          "duration": 0.054166666666674246
        },
        {
          "name": "C#3",
          "midi": 49,
          "time": 183.9999999999996,
          "velocity": 0.7874015748031497,
          "duration": 0.06416666666666515
        },
        {
          "name": "C2",
          "midi": 36,
          "time": 184.19416666666626,
          "velocity": 0.7874015748031497,
          "duration": 0.054166666666674246
        },
        {
          "name": "E2",
          "midi": 40,
          "time": 184.3999999999996,
          "velocity": 0.7874015748031497,
          "duration": 0.06416666666666515
        },
        {
          "name": "A3",
          "midi": 57,
          "time": 184.3999999999996,
          "velocity": 0.7874015748031497,
          "duration": 0.06416666666666515
        },
        {
          "name": "E2",
          "midi": 40,
          "time": 184.7999999999996,
          "velocity": 0.7874015748031497,
          "duration": 0.06416666666666515
        },
        {
          "name": "C#3",
          "midi": 49,
          "time": 184.7999999999996,
          "velocity": 0.7874015748031497,
          "duration": 0.06416666666666515
        },
        {
          "name": "A3",
          "midi": 57,
          "time": 185.19999999999962,
          "velocity": 0.7874015748031497,
          "duration": 0.05333333333334167
        },
        {
          "name": "E2",
          "midi": 40,
          "time": 185.19999999999962,
          "velocity": 0.7874015748031497,
          "duration": 0.06416666666666515
        },
        {
          "name": "C2",
          "midi": 36,
          "time": 185.59999999999962,
          "velocity": 0.7874015748031497,
          "duration": 0.06416666666666515
        },
        {
          "name": "C#3",
          "midi": 49,
          "time": 185.59999999999962,
          "velocity": 0.7874015748031497,
          "duration": 0.06416666666666515
        },
        {
          "name": "C2",
          "midi": 36,
          "time": 185.99999999999963,
          "velocity": 0.7874015748031497,
          "duration": 0.06416666666666515
        },
        {
          "name": "C#3",
          "midi": 49,
          "time": 185.99999999999963,
          "velocity": 0.7874015748031497,
          "duration": 0.06416666666666515
        },
        {
          "name": "E2",
          "midi": 40,
          "time": 186.39999999999964,
          "velocity": 0.7874015748031497,
          "duration": 0.06416666666666515
        },
        {
          "name": "C#3",
          "midi": 49,
          "time": 186.39999999999964,
          "velocity": 0.7874015748031497,
          "duration": 0.06416666666666515
        },
        {
          "name": "C2",
          "midi": 36,
          "time": 186.79999999999964,
          "velocity": 0.7874015748031497,
          "duration": 0.06416666666666515
        },
        {
          "name": "C#3",
          "midi": 49,
          "time": 186.79999999999964,
          "velocity": 0.7874015748031497,
          "duration": 0.06416666666666515
        },
        {
          "name": "C2",
          "midi": 36,
          "time": 186.9941666666663,
          "velocity": 0.7874015748031497,
          "duration": 0.054166666666674246
        },
        {
          "name": "C#3",
          "midi": 49,
          "time": 187.19999999999965,
          "velocity": 0.7874015748031497,
          "duration": 0.06416666666666515
        },
        {
          "name": "C2",
          "midi": 36,
          "time": 187.3941666666663,
          "velocity": 0.7874015748031497,
          "duration": 0.054166666666674246
        },
        {
          "name": "C2",
          "midi": 36,
          "time": 187.59999999999965,
          "velocity": 0.7874015748031497,
          "duration": 0.06416666666666515
        },
        {
          "name": "C#3",
          "midi": 49,
          "time": 187.59999999999965,
          "velocity": 0.7874015748031497,
          "duration": 0.06416666666666515
        },
        {
          "name": "E2",
          "midi": 40,
          "time": 187.99999999999966,
          "velocity": 0.7874015748031497,
          "duration": 0.06416666666666515
        },
        {
          "name": "C#3",
          "midi": 49,
          "time": 187.99999999999966,
          "velocity": 0.7874015748031497,
          "duration": 0.06416666666666515
        },
        {
          "name": "C2",
          "midi": 36,
          "time": 188.39999999999966,
          "velocity": 0.7874015748031497,
          "duration": 0.06416666666666515
        },
        {
          "name": "C#3",
          "midi": 49,
          "time": 188.39999999999966,
          "velocity": 0.7874015748031497,
          "duration": 0.06416666666666515
        },
        {
          "name": "C2",
          "midi": 36,
          "time": 188.79999999999967,
          "velocity": 0.7874015748031497,
          "duration": 0.06416666666666515
        },
        {
          "name": "C#3",
          "midi": 49,
          "time": 188.79999999999967,
          "velocity": 0.7874015748031497,
          "duration": 0.06416666666666515
        },
        {
          "name": "C2",
          "midi": 36,
          "time": 189.19999999999968,
          "velocity": 0.7874015748031497,
          "duration": 0.06416666666666515
        },
        {
          "name": "C#3",
          "midi": 49,
          "time": 189.19999999999968,
          "velocity": 0.7874015748031497,
          "duration": 0.06416666666666515
        },
        {
          "name": "E2",
          "midi": 40,
          "time": 189.59999999999968,
          "velocity": 0.7874015748031497,
          "duration": 0.06416666666666515
        },
        {
          "name": "C#3",
          "midi": 49,
          "time": 189.59999999999968,
          "velocity": 0.7874015748031497,
          "duration": 0.06416666666666515
        },
        {
          "name": "C2",
          "midi": 36,
          "time": 189.9999999999997,
          "velocity": 0.7874015748031497,
          "duration": 0.06416666666666515
        },
        {
          "name": "C#3",
          "midi": 49,
          "time": 189.9999999999997,
          "velocity": 0.7874015748031497,
          "duration": 0.06416666666666515
        },
        {
          "name": "C2",
          "midi": 36,
          "time": 190.19416666666635,
          "velocity": 0.7874015748031497,
          "duration": 0.054166666666674246
        },
        {
          "name": "C#3",
          "midi": 49,
          "time": 190.3999999999997,
          "velocity": 0.7874015748031497,
          "duration": 0.06416666666666515
        },
        {
          "name": "C2",
          "midi": 36,
          "time": 190.59416666666635,
          "velocity": 0.7874015748031497,
          "duration": 0.054166666666674246
        },
        {
          "name": "E2",
          "midi": 40,
          "time": 190.7999999999997,
          "velocity": 0.7874015748031497,
          "duration": 0.06416666666666515
        },
        {
          "name": "A3",
          "midi": 57,
          "time": 190.7999999999997,
          "velocity": 0.7874015748031497,
          "duration": 0.06416666666666515
        },
        {
          "name": "E2",
          "midi": 40,
          "time": 191.1999999999997,
          "velocity": 0.7874015748031497,
          "duration": 0.06416666666666515
        },
        {
          "name": "C#3",
          "midi": 49,
          "time": 191.1999999999997,
          "velocity": 0.7874015748031497,
          "duration": 0.06416666666666515
        },
        {
          "name": "A3",
          "midi": 57,
          "time": 191.5999999999997,
          "velocity": 0.7874015748031497,
          "duration": 0.05333333333334167
        },
        {
          "name": "E2",
          "midi": 40,
          "time": 191.5999999999997,
          "velocity": 0.7874015748031497,
          "duration": 0.06416666666666515
        },
        {
          "name": "C2",
          "midi": 36,
          "time": 191.99999999999972,
          "velocity": 0.7874015748031497,
          "duration": 0.06416666666666515
        },
        {
          "name": "C#3",
          "midi": 49,
          "time": 191.99999999999972,
          "velocity": 0.7874015748031497,
          "duration": 0.06416666666666515
        },
        {
          "name": "E2",
          "midi": 40,
          "time": 194.79999999999973,
          "velocity": 0.5905511811023622,
          "duration": 0.05333333333334167
        },
        {
          "name": "C2",
          "midi": 36,
          "time": 194.79999999999973,
          "velocity": 0.5905511811023622,
          "duration": 0.05333333333334167
        },
        {
          "name": "E2",
          "midi": 40,
          "time": 194.99999999999974,
          "velocity": 0.7086614173228346,
          "duration": 0.043333333333322344
        },
        {
          "name": "C2",
          "midi": 36,
          "time": 194.99999999999974,
          "velocity": 0.7086614173228346,
          "duration": 0.054166666666645824
        },
        {
          "name": "C#3",
          "midi": 49,
          "time": 195.19999999999973,
          "velocity": 0.7874015748031497,
          "duration": 0.05333333333334167
        },
        {
          "name": "C2",
          "midi": 36,
          "time": 195.19999999999973,
          "velocity": 0.7874015748031497,
          "duration": 0.05333333333334167
        },
        {
          "name": "E2",
          "midi": 40,
          "time": 195.19999999999973,
          "velocity": 0.7874015748031497,
          "duration": 0.05333333333334167
        },
        {
          "name": "E2",
          "midi": 40,
          "time": 195.59999999999974,
          "velocity": 0.7874015748031497,
          "duration": 0.05333333333334167
        },
        {
          "name": "E2",
          "midi": 40,
          "time": 195.79999999999976,
          "velocity": 0.7874015748031497,
          "duration": 0.04833333333334622
        },
        {
          "name": "E2",
          "midi": 40,
          "time": 195.99999999999977,
          "velocity": 0.7874015748031497,
          "duration": 0.05333333333334167
        },
        {
          "name": "E2",
          "midi": 40,
          "time": 196.1999999999998,
          "velocity": 0.7874015748031497,
          "duration": 0.04833333333334622
        },
        {
          "name": "E2",
          "midi": 40,
          "time": 196.3999999999998,
          "velocity": 0.7874015748031497,
          "duration": 0.05333333333334167
        },
        {
          "name": "E2",
          "midi": 40,
          "time": 196.59999999999982,
          "velocity": 0.7874015748031497,
          "duration": 0.04833333333334622
        },
        {
          "name": "C#3",
          "midi": 49,
          "time": 196.79999999999984,
          "velocity": 0.7874015748031497,
          "duration": 0.05333333333334167
        },
        {
          "name": "C2",
          "midi": 36,
          "time": 196.79999999999984,
          "velocity": 0.7874015748031497,
          "duration": 0.05333333333334167
        },
        {
          "name": "E2",
          "midi": 40,
          "time": 196.79999999999984,
          "velocity": 0.7874015748031497,
          "duration": 0.05333333333334167
        },
        {
          "name": "E2",
          "midi": 40,
          "time": 196.99999999999986,
          "velocity": 0.7874015748031497,
          "duration": 0.04833333333334622
        },
        {
          "name": "E2",
          "midi": 40,
          "time": 197.19999999999987,
          "velocity": 0.7874015748031497,
          "duration": 0.05333333333334167
        },
        {
          "name": "E2",
          "midi": 40,
          "time": 197.3999999999999,
          "velocity": 0.7874015748031497,
          "duration": 0.04833333333334622
        },
        {
          "name": "E2",
          "midi": 40,
          "time": 197.5999999999999,
          "velocity": 0.7874015748031497,
          "duration": 0.05333333333334167
        },
        {
          "name": "C#3",
          "midi": 49,
          "time": 197.5999999999999,
          "velocity": 0.7874015748031497,
          "duration": 0.05333333333334167
        },
        {
          "name": "C2",
          "midi": 36,
          "time": 197.79999999999993,
          "velocity": 0.7874015748031497,
          "duration": 0.04833333333334622
        },
        {
          "name": "E2",
          "midi": 40,
          "time": 197.99999999999994,
          "velocity": 0.7874015748031497,
          "duration": 0.05333333333334167
        },
        {
          "name": "A3",
          "midi": 57,
          "time": 197.99999999999994,
          "velocity": 0.7874015748031497,
          "duration": 0.05333333333334167
        },
        {
          "name": "C2",
          "midi": 36,
          "time": 198.19999999999996,
          "velocity": 0.7874015748031497,
          "duration": 0.04833333333334622
        },
        {
          "name": "C2",
          "midi": 36,
          "time": 198.39999999999998,
          "velocity": 0.7874015748031497,
          "duration": 0.06416666666666515
        },
        {
          "name": "C#3",
          "midi": 49,
          "time": 198.39999999999998,
          "velocity": 0.7874015748031497,
          "duration": 0.05333333333334167
        },
        {
          "name": "C#3",
          "midi": 49,
          "time": 198.79999999999998,
          "velocity": 0.7874015748031497,
          "duration": 0.05333333333334167
        },
        {
          "name": "E2",
          "midi": 40,
          "time": 199.2,
          "velocity": 0.7874015748031497,
          "duration": 0.05333333333334167
        },
        {
          "name": "C#3",
          "midi": 49,
          "time": 199.2,
          "velocity": 0.7874015748031497,
          "duration": 0.05333333333334167
        },
        {
          "name": "C#3",
          "midi": 49,
          "time": 199.6,
          "velocity": 0.7874015748031497,
          "duration": 0.05333333333334167
        },
        {
          "name": "C2",
          "midi": 36,
          "time": 200,
          "velocity": 0.7874015748031497,
          "duration": 0.05333333333334167
        },
        {
          "name": "C#3",
          "midi": 49,
          "time": 200,
          "velocity": 0.7874015748031497,
          "duration": 0.05333333333334167
        },
        {
          "name": "C2",
          "midi": 36,
          "time": 200.20000000000002,
          "velocity": 0.7874015748031497,
          "duration": 0.05333333333334167
        },
        {
          "name": "C2",
          "midi": 36,
          "time": 200.40000000000003,
          "velocity": 0.7874015748031497,
          "duration": 0.05333333333334167
        },
        {
          "name": "C#3",
          "midi": 49,
          "time": 200.40000000000003,
          "velocity": 0.7874015748031497,
          "duration": 0.05333333333334167
        },
        {
          "name": "E2",
          "midi": 40,
          "time": 200.80000000000004,
          "velocity": 0.7874015748031497,
          "duration": 0.05333333333334167
        },
        {
          "name": "C#3",
          "midi": 49,
          "time": 200.80000000000004,
          "velocity": 0.7874015748031497,
          "duration": 0.05333333333334167
        },
        {
          "name": "C#3",
          "midi": 49,
          "time": 201.20000000000005,
          "velocity": 0.7874015748031497,
          "duration": 0.05333333333334167
        },
        {
          "name": "C2",
          "midi": 36,
          "time": 201.60000000000005,
          "velocity": 0.7874015748031497,
          "duration": 0.06416666666666515
        },
        {
          "name": "C#3",
          "midi": 49,
          "time": 201.60000000000005,
          "velocity": 0.7874015748031497,
          "duration": 0.05333333333334167
        },
        {
          "name": "C#3",
          "midi": 49,
          "time": 202.00000000000006,
          "velocity": 0.7874015748031497,
          "duration": 0.05333333333334167
        },
        {
          "name": "E2",
          "midi": 40,
          "time": 202.40000000000006,
          "velocity": 0.7874015748031497,
          "duration": 0.05333333333334167
        },
        {
          "name": "C#3",
          "midi": 49,
          "time": 202.40000000000006,
          "velocity": 0.7874015748031497,
          "duration": 0.05333333333334167
        },
        {
          "name": "C#3",
          "midi": 49,
          "time": 202.80000000000007,
          "velocity": 0.7874015748031497,
          "duration": 0.05333333333334167
        },
        {
          "name": "C2",
          "midi": 36,
          "time": 203.20000000000007,
          "velocity": 0.7874015748031497,
          "duration": 0.05333333333334167
        },
        {
          "name": "C#3",
          "midi": 49,
          "time": 203.20000000000007,
          "velocity": 0.7874015748031497,
          "duration": 0.05333333333334167
        },
        {
          "name": "C2",
          "midi": 36,
          "time": 203.4000000000001,
          "velocity": 0.7874015748031497,
          "duration": 0.05333333333334167
        },
        {
          "name": "C2",
          "midi": 36,
          "time": 203.6000000000001,
          "velocity": 0.7874015748031497,
          "duration": 0.05333333333334167
        },
        {
          "name": "C#3",
          "midi": 49,
          "time": 203.6000000000001,
          "velocity": 0.7874015748031497,
          "duration": 0.05333333333334167
        },
        {
          "name": "E2",
          "midi": 40,
          "time": 204.0000000000001,
          "velocity": 0.7874015748031497,
          "duration": 0.05333333333334167
        },
        {
          "name": "C#3",
          "midi": 49,
          "time": 204.0000000000001,
          "velocity": 0.7874015748031497,
          "duration": 0.05333333333334167
        },
        {
          "name": "C#3",
          "midi": 49,
          "time": 204.40000000000012,
          "velocity": 0.7874015748031497,
          "duration": 0.05333333333334167
        },
        {
          "name": "C2",
          "midi": 36,
          "time": 204.80000000000013,
          "velocity": 0.7874015748031497,
          "duration": 0.06416666666666515
        },
        {
          "name": "C#3",
          "midi": 49,
          "time": 204.80000000000013,
          "velocity": 0.7874015748031497,
          "duration": 0.05333333333334167
        },
        {
          "name": "C#3",
          "midi": 49,
          "time": 205.20000000000013,
          "velocity": 0.7874015748031497,
          "duration": 0.05333333333334167
        },
        {
          "name": "E2",
          "midi": 40,
          "time": 205.60000000000014,
          "velocity": 0.7874015748031497,
          "duration": 0.05333333333334167
        },
        {
          "name": "C#3",
          "midi": 49,
          "time": 205.60000000000014,
          "velocity": 0.7874015748031497,
          "duration": 0.05333333333334167
        },
        {
          "name": "C#3",
          "midi": 49,
          "time": 206.00000000000014,
          "velocity": 0.7874015748031497,
          "duration": 0.05333333333334167
        },
        {
          "name": "C2",
          "midi": 36,
          "time": 206.40000000000015,
          "velocity": 0.7874015748031497,
          "duration": 0.05333333333334167
        },
        {
          "name": "C#3",
          "midi": 49,
          "time": 206.40000000000015,
          "velocity": 0.7874015748031497,
          "duration": 0.05333333333334167
        },
        {
          "name": "C2",
          "midi": 36,
          "time": 206.60000000000016,
          "velocity": 0.7874015748031497,
          "duration": 0.05333333333334167
        },
        {
          "name": "C2",
          "midi": 36,
          "time": 206.80000000000018,
          "velocity": 0.7874015748031497,
          "duration": 0.05333333333334167
        },
        {
          "name": "C#3",
          "midi": 49,
          "time": 206.80000000000018,
          "velocity": 0.7874015748031497,
          "duration": 0.05333333333334167
        },
        {
          "name": "E2",
          "midi": 40,
          "time": 207.2000000000002,
          "velocity": 0.7874015748031497,
          "duration": 0.05333333333334167
        },
        {
          "name": "C#3",
          "midi": 49,
          "time": 207.2000000000002,
          "velocity": 0.7874015748031497,
          "duration": 0.05333333333334167
        },
        {
          "name": "C#3",
          "midi": 49,
          "time": 207.6000000000002,
          "velocity": 0.7874015748031497,
          "duration": 0.05333333333334167
        },
        {
          "name": "C2",
          "midi": 36,
          "time": 208.0000000000002,
          "velocity": 0.7874015748031497,
          "duration": 0.06416666666666515
        },
        {
          "name": "C#3",
          "midi": 49,
          "time": 208.0000000000002,
          "velocity": 0.7874015748031497,
          "duration": 0.05333333333334167
        },
        {
          "name": "C#3",
          "midi": 49,
          "time": 208.4000000000002,
          "velocity": 0.7874015748031497,
          "duration": 0.05333333333334167
        },
        {
          "name": "E2",
          "midi": 40,
          "time": 208.8000000000002,
          "velocity": 0.7874015748031497,
          "duration": 0.05333333333334167
        },
        {
          "name": "C#3",
          "midi": 49,
          "time": 208.8000000000002,
          "velocity": 0.7874015748031497,
          "duration": 0.05333333333334167
        },
        {
          "name": "C#3",
          "midi": 49,
          "time": 209.20000000000022,
          "velocity": 0.7874015748031497,
          "duration": 0.05333333333334167
        },
        {
          "name": "C2",
          "midi": 36,
          "time": 209.60000000000022,
          "velocity": 0.7874015748031497,
          "duration": 0.05333333333334167
        },
        {
          "name": "C#3",
          "midi": 49,
          "time": 209.60000000000022,
          "velocity": 0.7874015748031497,
          "duration": 0.05333333333334167
        },
        {
          "name": "C2",
          "midi": 36,
          "time": 209.80000000000024,
          "velocity": 0.7874015748031497,
          "duration": 0.05333333333334167
        },
        {
          "name": "C2",
          "midi": 36,
          "time": 210.00000000000026,
          "velocity": 0.7874015748031497,
          "duration": 0.05333333333334167
        },
        {
          "name": "C#3",
          "midi": 49,
          "time": 210.00000000000026,
          "velocity": 0.7874015748031497,
          "duration": 0.05333333333334167
        },
        {
          "name": "E2",
          "midi": 40,
          "time": 210.40000000000026,
          "velocity": 0.7874015748031497,
          "duration": 0.05333333333334167
        },
        {
          "name": "C#3",
          "midi": 49,
          "time": 210.40000000000026,
          "velocity": 0.7874015748031497,
          "duration": 0.05333333333334167
        },
        {
          "name": "C#3",
          "midi": 49,
          "time": 210.80000000000027,
          "velocity": 0.7874015748031497,
          "duration": 0.05333333333334167
        },
        {
          "name": "C2",
          "midi": 36,
          "time": 211.20000000000027,
          "velocity": 0.7874015748031497,
          "duration": 0.06416666666666515
        },
        {
          "name": "C#3",
          "midi": 49,
          "time": 211.20000000000027,
          "velocity": 0.7874015748031497,
          "duration": 0.05333333333334167
        },
        {
          "name": "C#3",
          "midi": 49,
          "time": 211.60000000000028,
          "velocity": 0.7874015748031497,
          "duration": 0.05333333333334167
        },
        {
          "name": "E2",
          "midi": 40,
          "time": 212.00000000000028,
          "velocity": 0.7874015748031497,
          "duration": 0.05333333333334167
        },
        {
          "name": "C#3",
          "midi": 49,
          "time": 212.00000000000028,
          "velocity": 0.7874015748031497,
          "duration": 0.05333333333334167
        },
        {
          "name": "C#3",
          "midi": 49,
          "time": 212.4000000000003,
          "velocity": 0.7874015748031497,
          "duration": 0.05333333333334167
        },
        {
          "name": "C2",
          "midi": 36,
          "time": 212.8000000000003,
          "velocity": 0.7874015748031497,
          "duration": 0.05333333333334167
        },
        {
          "name": "C#3",
          "midi": 49,
          "time": 212.8000000000003,
          "velocity": 0.7874015748031497,
          "duration": 0.05333333333334167
        },
        {
          "name": "C2",
          "midi": 36,
          "time": 213.0000000000003,
          "velocity": 0.7874015748031497,
          "duration": 0.05333333333334167
        },
        {
          "name": "C2",
          "midi": 36,
          "time": 213.20000000000033,
          "velocity": 0.7874015748031497,
          "duration": 0.05333333333334167
        },
        {
          "name": "C#3",
          "midi": 49,
          "time": 213.20000000000033,
          "velocity": 0.7874015748031497,
          "duration": 0.05333333333334167
        },
        {
          "name": "E2",
          "midi": 40,
          "time": 213.60000000000034,
          "velocity": 0.7874015748031497,
          "duration": 0.05333333333334167
        },
        {
          "name": "C#3",
          "midi": 49,
          "time": 213.60000000000034,
          "velocity": 0.7874015748031497,
          "duration": 0.05333333333334167
        },
        {
          "name": "C#3",
          "midi": 49,
          "time": 214.00000000000034,
          "velocity": 0.7874015748031497,
          "duration": 0.05333333333334167
        },
        {
          "name": "C2",
          "midi": 36,
          "time": 214.40000000000035,
          "velocity": 0.7874015748031497,
          "duration": 0.06416666666666515
        },
        {
          "name": "C#3",
          "midi": 49,
          "time": 214.40000000000035,
          "velocity": 0.7874015748031497,
          "duration": 0.05333333333334167
        },
        {
          "name": "C#3",
          "midi": 49,
          "time": 214.80000000000035,
          "velocity": 0.7874015748031497,
          "duration": 0.05333333333334167
        },
        {
          "name": "E2",
          "midi": 40,
          "time": 215.20000000000036,
          "velocity": 0.7874015748031497,
          "duration": 0.05333333333334167
        },
        {
          "name": "C#3",
          "midi": 49,
          "time": 215.20000000000036,
          "velocity": 0.7874015748031497,
          "duration": 0.05333333333334167
        },
        {
          "name": "C#3",
          "midi": 49,
          "time": 215.60000000000036,
          "velocity": 0.7874015748031497,
          "duration": 0.05333333333334167
        },
        {
          "name": "C2",
          "midi": 36,
          "time": 216.00000000000037,
          "velocity": 0.7874015748031497,
          "duration": 0.05333333333334167
        },
        {
          "name": "C#3",
          "midi": 49,
          "time": 216.00000000000037,
          "velocity": 0.7874015748031497,
          "duration": 0.05333333333334167
        },
        {
          "name": "C2",
          "midi": 36,
          "time": 216.2000000000004,
          "velocity": 0.7874015748031497,
          "duration": 0.05333333333334167
        },
        {
          "name": "C2",
          "midi": 36,
          "time": 216.4000000000004,
          "velocity": 0.7874015748031497,
          "duration": 0.05333333333334167
        },
        {
          "name": "C#3",
          "midi": 49,
          "time": 216.4000000000004,
          "velocity": 0.7874015748031497,
          "duration": 0.05333333333334167
        },
        {
          "name": "E2",
          "midi": 40,
          "time": 216.8000000000004,
          "velocity": 0.7874015748031497,
          "duration": 0.05333333333334167
        },
        {
          "name": "C#3",
          "midi": 49,
          "time": 216.8000000000004,
          "velocity": 0.7874015748031497,
          "duration": 0.05333333333334167
        },
        {
          "name": "C#3",
          "midi": 49,
          "time": 217.20000000000041,
          "velocity": 0.7874015748031497,
          "duration": 0.05333333333334167
        },
        {
          "name": "C2",
          "midi": 36,
          "time": 217.60000000000042,
          "velocity": 0.7874015748031497,
          "duration": 0.06416666666666515
        },
        {
          "name": "C#3",
          "midi": 49,
          "time": 217.60000000000042,
          "velocity": 0.7874015748031497,
          "duration": 0.05333333333334167
        },
        {
          "name": "C#3",
          "midi": 49,
          "time": 218.00000000000043,
          "velocity": 0.7874015748031497,
          "duration": 0.05333333333334167
        },
        {
          "name": "E2",
          "midi": 40,
          "time": 218.40000000000043,
          "velocity": 0.7874015748031497,
          "duration": 0.05333333333334167
        },
        {
          "name": "C#3",
          "midi": 49,
          "time": 218.40000000000043,
          "velocity": 0.7874015748031497,
          "duration": 0.05333333333334167
        },
        {
          "name": "C#3",
          "midi": 49,
          "time": 218.80000000000044,
          "velocity": 0.7874015748031497,
          "duration": 0.05333333333334167
        },
        {
          "name": "C2",
          "midi": 36,
          "time": 219.20000000000044,
          "velocity": 0.7874015748031497,
          "duration": 0.05333333333334167
        },
        {
          "name": "C#3",
          "midi": 49,
          "time": 219.20000000000044,
          "velocity": 0.7874015748031497,
          "duration": 0.05333333333334167
        },
        {
          "name": "C2",
          "midi": 36,
          "time": 219.40000000000046,
          "velocity": 0.7874015748031497,
          "duration": 0.05333333333334167
        },
        {
          "name": "C2",
          "midi": 36,
          "time": 219.60000000000048,
          "velocity": 0.7874015748031497,
          "duration": 0.05333333333334167
        },
        {
          "name": "C#3",
          "midi": 49,
          "time": 219.60000000000048,
          "velocity": 0.7874015748031497,
          "duration": 0.05333333333334167
        },
        {
          "name": "E2",
          "midi": 40,
          "time": 220.00000000000048,
          "velocity": 0.7874015748031497,
          "duration": 0.05333333333334167
        },
        {
          "name": "C#3",
          "midi": 49,
          "time": 220.00000000000048,
          "velocity": 0.7874015748031497,
          "duration": 0.05333333333334167
        },
        {
          "name": "C#3",
          "midi": 49,
          "time": 220.4000000000005,
          "velocity": 0.7874015748031497,
          "duration": 0.05333333333334167
        },
        {
          "name": "C2",
          "midi": 36,
          "time": 220.8000000000005,
          "velocity": 0.7874015748031497,
          "duration": 0.06416666666666515
        },
        {
          "name": "C#3",
          "midi": 49,
          "time": 220.8000000000005,
          "velocity": 0.7874015748031497,
          "duration": 0.05333333333334167
        },
        {
          "name": "C#3",
          "midi": 49,
          "time": 221.2000000000005,
          "velocity": 0.7874015748031497,
          "duration": 0.05333333333334167
        },
        {
          "name": "E2",
          "midi": 40,
          "time": 221.6000000000005,
          "velocity": 0.7874015748031497,
          "duration": 0.05333333333334167
        },
        {
          "name": "C#3",
          "midi": 49,
          "time": 221.6000000000005,
          "velocity": 0.7874015748031497,
          "duration": 0.05333333333334167
        },
        {
          "name": "C#3",
          "midi": 49,
          "time": 222.0000000000005,
          "velocity": 0.7874015748031497,
          "duration": 0.05333333333334167
        },
        {
          "name": "C2",
          "midi": 36,
          "time": 222.40000000000052,
          "velocity": 0.7874015748031497,
          "duration": 0.05333333333334167
        },
        {
          "name": "C#3",
          "midi": 49,
          "time": 222.40000000000052,
          "velocity": 0.7874015748031497,
          "duration": 0.05333333333334167
        },
        {
          "name": "C2",
          "midi": 36,
          "time": 222.60000000000053,
          "velocity": 0.7874015748031497,
          "duration": 0.05333333333334167
        },
        {
          "name": "C2",
          "midi": 36,
          "time": 222.80000000000055,
          "velocity": 0.7874015748031497,
          "duration": 0.05333333333334167
        },
        {
          "name": "C#3",
          "midi": 49,
          "time": 222.80000000000055,
          "velocity": 0.7874015748031497,
          "duration": 0.05333333333334167
        },
        {
          "name": "E2",
          "midi": 40,
          "time": 223.20000000000056,
          "velocity": 0.7874015748031497,
          "duration": 0.05333333333334167
        },
        {
          "name": "C#3",
          "midi": 49,
          "time": 223.20000000000056,
          "velocity": 0.7874015748031497,
          "duration": 0.05333333333334167
        },
        {
          "name": "C#3",
          "midi": 49,
          "time": 223.60000000000056,
          "velocity": 0.7874015748031497,
          "duration": 0.05333333333334167
        },
        {
          "name": "C2",
          "midi": 36,
          "time": 224.00000000000057,
          "velocity": 0.7874015748031497,
          "duration": 0.06416666666666515
        },
        {
          "name": "C#3",
          "midi": 49,
          "time": 224.00000000000057,
          "velocity": 0.7874015748031497,
          "duration": 0.06416666666666515
        },
        {
          "name": "C2",
          "midi": 36,
          "time": 224.40000000000057,
          "velocity": 0.7874015748031497,
          "duration": 0.06416666666666515
        },
        {
          "name": "C#3",
          "midi": 49,
          "time": 224.40000000000057,
          "velocity": 0.7874015748031497,
          "duration": 0.06416666666666515
        },
        {
          "name": "E2",
          "midi": 40,
          "time": 224.80000000000058,
          "velocity": 0.7874015748031497,
          "duration": 0.06416666666666515
        },
        {
          "name": "C#3",
          "midi": 49,
          "time": 224.80000000000058,
          "velocity": 0.7874015748031497,
          "duration": 0.06416666666666515
        },
        {
          "name": "C2",
          "midi": 36,
          "time": 225.20000000000059,
          "velocity": 0.7874015748031497,
          "duration": 0.06416666666666515
        },
        {
          "name": "C#3",
          "midi": 49,
          "time": 225.20000000000059,
          "velocity": 0.7874015748031497,
          "duration": 0.06416666666666515
        },
        {
          "name": "C2",
          "midi": 36,
          "time": 225.39416666666725,
          "velocity": 0.7874015748031497,
          "duration": 0.054166666666674246
        },
        {
          "name": "C#3",
          "midi": 49,
          "time": 225.6000000000006,
          "velocity": 0.7874015748031497,
          "duration": 0.06416666666666515
        },
        {
          "name": "C2",
          "midi": 36,
          "time": 225.79416666666725,
          "velocity": 0.7874015748031497,
          "duration": 0.054166666666674246
        },
        {
          "name": "C2",
          "midi": 36,
          "time": 226.0000000000006,
          "velocity": 0.7874015748031497,
          "duration": 0.06416666666666515
        },
        {
          "name": "C#3",
          "midi": 49,
          "time": 226.0000000000006,
          "velocity": 0.7874015748031497,
          "duration": 0.06416666666666515
        },
        {
          "name": "E2",
          "midi": 40,
          "time": 226.4000000000006,
          "velocity": 0.7874015748031497,
          "duration": 0.06416666666666515
        },
        {
          "name": "C#3",
          "midi": 49,
          "time": 226.4000000000006,
          "velocity": 0.7874015748031497,
          "duration": 0.06416666666666515
        },
        {
          "name": "C2",
          "midi": 36,
          "time": 226.8000000000006,
          "velocity": 0.7874015748031497,
          "duration": 0.06416666666666515
        },
        {
          "name": "C#3",
          "midi": 49,
          "time": 226.8000000000006,
          "velocity": 0.7874015748031497,
          "duration": 0.06416666666666515
        },
        {
          "name": "C2",
          "midi": 36,
          "time": 227.2000000000006,
          "velocity": 0.7874015748031497,
          "duration": 0.06416666666666515
        },
        {
          "name": "C#3",
          "midi": 49,
          "time": 227.2000000000006,
          "velocity": 0.7874015748031497,
          "duration": 0.06416666666666515
        },
        {
          "name": "C2",
          "midi": 36,
          "time": 227.60000000000062,
          "velocity": 0.7874015748031497,
          "duration": 0.06416666666666515
        },
        {
          "name": "C#3",
          "midi": 49,
          "time": 227.60000000000062,
          "velocity": 0.7874015748031497,
          "duration": 0.06416666666666515
        },
        {
          "name": "E2",
          "midi": 40,
          "time": 228.00000000000063,
          "velocity": 0.7874015748031497,
          "duration": 0.06416666666666515
        },
        {
          "name": "C#3",
          "midi": 49,
          "time": 228.00000000000063,
          "velocity": 0.7874015748031497,
          "duration": 0.06416666666666515
        },
        {
          "name": "C2",
          "midi": 36,
          "time": 228.40000000000063,
          "velocity": 0.7874015748031497,
          "duration": 0.06416666666666515
        },
        {
          "name": "C#3",
          "midi": 49,
          "time": 228.40000000000063,
          "velocity": 0.7874015748031497,
          "duration": 0.06416666666666515
        },
        {
          "name": "C2",
          "midi": 36,
          "time": 228.5941666666673,
          "velocity": 0.7874015748031497,
          "duration": 0.054166666666674246
        },
        {
          "name": "C#3",
          "midi": 49,
          "time": 228.80000000000064,
          "velocity": 0.7874015748031497,
          "duration": 0.06416666666666515
        },
        {
          "name": "C2",
          "midi": 36,
          "time": 228.9941666666673,
          "velocity": 0.7874015748031497,
          "duration": 0.054166666666674246
        },
        {
          "name": "E2",
          "midi": 40,
          "time": 229.20000000000064,
          "velocity": 0.7874015748031497,
          "duration": 0.06416666666666515
        },
        {
          "name": "A3",
          "midi": 57,
          "time": 229.20000000000064,
          "velocity": 0.7874015748031497,
          "duration": 0.06416666666666515
        },
        {
          "name": "E2",
          "midi": 40,
          "time": 229.60000000000065,
          "velocity": 0.7874015748031497,
          "duration": 0.06416666666666515
        },
        {
          "name": "C#3",
          "midi": 49,
          "time": 229.60000000000065,
          "velocity": 0.7874015748031497,
          "duration": 0.06416666666666515
        },
        {
          "name": "A3",
          "midi": 57,
          "time": 230.00000000000065,
          "velocity": 0.7874015748031497,
          "duration": 0.05333333333334167
        },
        {
          "name": "E2",
          "midi": 40,
          "time": 230.00000000000065,
          "velocity": 0.7874015748031497,
          "duration": 0.06416666666666515
        },
        {
          "name": "C2",
          "midi": 36,
          "time": 230.40000000000066,
          "velocity": 0.7874015748031497,
          "duration": 0.06416666666666515
        },
        {
          "name": "C#3",
          "midi": 49,
          "time": 230.40000000000066,
          "velocity": 0.7874015748031497,
          "duration": 0.06416666666666515
        },
        {
          "name": "C2",
          "midi": 36,
          "time": 230.80000000000067,
          "velocity": 0.7874015748031497,
          "duration": 0.06416666666666515
        },
        {
          "name": "C#3",
          "midi": 49,
          "time": 230.80000000000067,
          "velocity": 0.7874015748031497,
          "duration": 0.06416666666666515
        },
        {
          "name": "E2",
          "midi": 40,
          "time": 231.20000000000067,
          "velocity": 0.7874015748031497,
          "duration": 0.06416666666666515
        },
        {
          "name": "C#3",
          "midi": 49,
          "time": 231.20000000000067,
          "velocity": 0.7874015748031497,
          "duration": 0.06416666666666515
        },
        {
          "name": "C2",
          "midi": 36,
          "time": 231.60000000000068,
          "velocity": 0.7874015748031497,
          "duration": 0.06416666666666515
        },
        {
          "name": "C#3",
          "midi": 49,
          "time": 231.60000000000068,
          "velocity": 0.7874015748031497,
          "duration": 0.06416666666666515
        },
        {
          "name": "C2",
          "midi": 36,
          "time": 231.79416666666734,
          "velocity": 0.7874015748031497,
          "duration": 0.054166666666674246
        },
        {
          "name": "C#3",
          "midi": 49,
          "time": 232.00000000000068,
          "velocity": 0.7874015748031497,
          "duration": 0.06416666666666515
        },
        {
          "name": "C2",
          "midi": 36,
          "time": 232.19416666666734,
          "velocity": 0.7874015748031497,
          "duration": 0.054166666666674246
        },
        {
          "name": "C2",
          "midi": 36,
          "time": 232.4000000000007,
          "velocity": 0.7874015748031497,
          "duration": 0.06416666666666515
        },
        {
          "name": "C#3",
          "midi": 49,
          "time": 232.4000000000007,
          "velocity": 0.7874015748031497,
          "duration": 0.06416666666666515
        },
        {
          "name": "E2",
          "midi": 40,
          "time": 232.8000000000007,
          "velocity": 0.7874015748031497,
          "duration": 0.06416666666666515
        },
        {
          "name": "C#3",
          "midi": 49,
          "time": 232.8000000000007,
          "velocity": 0.7874015748031497,
          "duration": 0.06416666666666515
        },
        {
          "name": "C2",
          "midi": 36,
          "time": 233.2000000000007,
          "velocity": 0.7874015748031497,
          "duration": 0.06416666666666515
        },
        {
          "name": "C#3",
          "midi": 49,
          "time": 233.2000000000007,
          "velocity": 0.7874015748031497,
          "duration": 0.06416666666666515
        },
        {
          "name": "C2",
          "midi": 36,
          "time": 233.6000000000007,
          "velocity": 0.7874015748031497,
          "duration": 0.06416666666666515
        },
        {
          "name": "C#3",
          "midi": 49,
          "time": 233.6000000000007,
          "velocity": 0.7874015748031497,
          "duration": 0.06416666666666515
        },
        {
          "name": "C2",
          "midi": 36,
          "time": 234.0000000000007,
          "velocity": 0.7874015748031497,
          "duration": 0.06416666666666515
        },
        {
          "name": "C#3",
          "midi": 49,
          "time": 234.0000000000007,
          "velocity": 0.7874015748031497,
          "duration": 0.06416666666666515
        },
        {
          "name": "E2",
          "midi": 40,
          "time": 234.40000000000072,
          "velocity": 0.7874015748031497,
          "duration": 0.06416666666666515
        },
        {
          "name": "C#3",
          "midi": 49,
          "time": 234.40000000000072,
          "velocity": 0.7874015748031497,
          "duration": 0.06416666666666515
        },
        {
          "name": "C2",
          "midi": 36,
          "time": 234.80000000000072,
          "velocity": 0.7874015748031497,
          "duration": 0.06416666666666515
        },
        {
          "name": "C#3",
          "midi": 49,
          "time": 234.80000000000072,
          "velocity": 0.7874015748031497,
          "duration": 0.06416666666666515
        },
        {
          "name": "C2",
          "midi": 36,
          "time": 234.99416666666738,
          "velocity": 0.7874015748031497,
          "duration": 0.054166666666674246
        },
        {
          "name": "C#3",
          "midi": 49,
          "time": 235.20000000000073,
          "velocity": 0.7874015748031497,
          "duration": 0.06416666666666515
        },
        {
          "name": "C2",
          "midi": 36,
          "time": 235.3941666666674,
          "velocity": 0.7874015748031497,
          "duration": 0.054166666666674246
        },
        {
          "name": "E2",
          "midi": 40,
          "time": 235.60000000000073,
          "velocity": 0.7874015748031497,
          "duration": 0.06416666666666515
        },
        {
          "name": "A3",
          "midi": 57,
          "time": 235.60000000000073,
          "velocity": 0.7874015748031497,
          "duration": 0.06416666666666515
        },
        {
          "name": "E2",
          "midi": 40,
          "time": 236.00000000000074,
          "velocity": 0.7874015748031497,
          "duration": 0.06416666666666515
        },
        {
          "name": "C#3",
          "midi": 49,
          "time": 236.00000000000074,
          "velocity": 0.7874015748031497,
          "duration": 0.06416666666666515
        },
        {
          "name": "A3",
          "midi": 57,
          "time": 236.40000000000074,
          "velocity": 0.7874015748031497,
          "duration": 0.05333333333334167
        },
        {
          "name": "E2",
          "midi": 40,
          "time": 236.40000000000074,
          "velocity": 0.7874015748031497,
          "duration": 0.06416666666666515
        },
        {
          "name": "C2",
          "midi": 36,
          "time": 236.80000000000075,
          "velocity": 0.7874015748031497,
          "duration": 0.06416666666666515
        },
        {
          "name": "C#3",
          "midi": 49,
          "time": 236.80000000000075,
          "velocity": 0.7874015748031497,
          "duration": 0.06416666666666515
        },
        {
          "name": "C2",
          "midi": 36,
          "time": 237.20000000000076,
          "velocity": 0.7874015748031497,
          "duration": 0.06416666666666515
        },
        {
          "name": "C#3",
          "midi": 49,
          "time": 237.20000000000076,
          "velocity": 0.7874015748031497,
          "duration": 0.06416666666666515
        },
        {
          "name": "E2",
          "midi": 40,
          "time": 237.60000000000076,
          "velocity": 0.7874015748031497,
          "duration": 0.06416666666666515
        },
        {
          "name": "C#3",
          "midi": 49,
          "time": 237.60000000000076,
          "velocity": 0.7874015748031497,
          "duration": 0.06416666666666515
        },
        {
          "name": "C2",
          "midi": 36,
          "time": 238.00000000000077,
          "velocity": 0.7874015748031497,
          "duration": 0.06416666666666515
        },
        {
          "name": "C#3",
          "midi": 49,
          "time": 238.00000000000077,
          "velocity": 0.7874015748031497,
          "duration": 0.06416666666666515
        },
        {
          "name": "C2",
          "midi": 36,
          "time": 238.19416666666743,
          "velocity": 0.7874015748031497,
          "duration": 0.054166666666674246
        },
        {
          "name": "C#3",
          "midi": 49,
          "time": 238.40000000000077,
          "velocity": 0.7874015748031497,
          "duration": 0.06416666666666515
        },
        {
          "name": "C2",
          "midi": 36,
          "time": 238.59416666666743,
          "velocity": 0.7874015748031497,
          "duration": 0.054166666666674246
        },
        {
          "name": "C2",
          "midi": 36,
          "time": 238.80000000000078,
          "velocity": 0.7874015748031497,
          "duration": 0.06416666666666515
        },
        {
          "name": "C#3",
          "midi": 49,
          "time": 238.80000000000078,
          "velocity": 0.7874015748031497,
          "duration": 0.06416666666666515
        },
        {
          "name": "E2",
          "midi": 40,
          "time": 239.20000000000078,
          "velocity": 0.7874015748031497,
          "duration": 0.06416666666666515
        },
        {
          "name": "C#3",
          "midi": 49,
          "time": 239.20000000000078,
          "velocity": 0.7874015748031497,
          "duration": 0.06416666666666515
        },
        {
          "name": "C2",
          "midi": 36,
          "time": 239.6000000000008,
          "velocity": 0.7874015748031497,
          "duration": 0.06416666666666515
        },
        {
          "name": "C#3",
          "midi": 49,
          "time": 239.6000000000008,
          "velocity": 0.7874015748031497,
          "duration": 0.06416666666666515
        },
        {
          "name": "C2",
          "midi": 36,
          "time": 240.0000000000008,
          "velocity": 0.7874015748031497,
          "duration": 0.06416666666666515
        },
        {
          "name": "C#3",
          "midi": 49,
          "time": 240.0000000000008,
          "velocity": 0.7874015748031497,
          "duration": 0.06416666666666515
        },
        {
          "name": "C2",
          "midi": 36,
          "time": 240.4000000000008,
          "velocity": 0.7874015748031497,
          "duration": 0.06416666666666515
        },
        {
          "name": "C#3",
          "midi": 49,
          "time": 240.4000000000008,
          "velocity": 0.7874015748031497,
          "duration": 0.06416666666666515
        },
        {
          "name": "E2",
          "midi": 40,
          "time": 240.8000000000008,
          "velocity": 0.7874015748031497,
          "duration": 0.06416666666666515
        },
        {
          "name": "C#3",
          "midi": 49,
          "time": 240.8000000000008,
          "velocity": 0.7874015748031497,
          "duration": 0.06416666666666515
        },
        {
          "name": "C2",
          "midi": 36,
          "time": 241.2000000000008,
          "velocity": 0.7874015748031497,
          "duration": 0.06416666666666515
        },
        {
          "name": "C#3",
          "midi": 49,
          "time": 241.2000000000008,
          "velocity": 0.7874015748031497,
          "duration": 0.06416666666666515
        },
        {
          "name": "C2",
          "midi": 36,
          "time": 241.39416666666747,
          "velocity": 0.7874015748031497,
          "duration": 0.054166666666674246
        },
        {
          "name": "C#3",
          "midi": 49,
          "time": 241.60000000000082,
          "velocity": 0.7874015748031497,
          "duration": 0.06416666666666515
        },
        {
          "name": "C2",
          "midi": 36,
          "time": 241.79416666666748,
          "velocity": 0.7874015748031497,
          "duration": 0.054166666666674246
        },
        {
          "name": "E2",
          "midi": 40,
          "time": 242.00000000000082,
          "velocity": 0.7874015748031497,
          "duration": 0.06416666666666515
        },
        {
          "name": "A3",
          "midi": 57,
          "time": 242.00000000000082,
          "velocity": 0.7874015748031497,
          "duration": 0.06416666666666515
        },
        {
          "name": "E2",
          "midi": 40,
          "time": 242.40000000000083,
          "velocity": 0.7874015748031497,
          "duration": 0.06416666666666515
        },
        {
          "name": "C#3",
          "midi": 49,
          "time": 242.40000000000083,
          "velocity": 0.7874015748031497,
          "duration": 0.06416666666666515
        },
        {
          "name": "A3",
          "midi": 57,
          "time": 242.80000000000084,
          "velocity": 0.7874015748031497,
          "duration": 0.05333333333334167
        },
        {
          "name": "E2",
          "midi": 40,
          "time": 242.80000000000084,
          "velocity": 0.7874015748031497,
          "duration": 0.06416666666666515
        },
        {
          "name": "C2",
          "midi": 36,
          "time": 243.20000000000084,
          "velocity": 0.7874015748031497,
          "duration": 0.06416666666666515
        },
        {
          "name": "C#3",
          "midi": 49,
          "time": 243.20000000000084,
          "velocity": 0.7874015748031497,
          "duration": 0.06416666666666515
        },
        {
          "name": "C2",
          "midi": 36,
          "time": 243.60000000000085,
          "velocity": 0.7874015748031497,
          "duration": 0.06416666666666515
        },
        {
          "name": "C#3",
          "midi": 49,
          "time": 243.60000000000085,
          "velocity": 0.7874015748031497,
          "duration": 0.06416666666666515
        },
        {
          "name": "E2",
          "midi": 40,
          "time": 244.00000000000085,
          "velocity": 0.7874015748031497,
          "duration": 0.06416666666666515
        },
        {
          "name": "C#3",
          "midi": 49,
          "time": 244.00000000000085,
          "velocity": 0.7874015748031497,
          "duration": 0.06416666666666515
        },
        {
          "name": "C2",
          "midi": 36,
          "time": 244.40000000000086,
          "velocity": 0.7874015748031497,
          "duration": 0.06416666666666515
        },
        {
          "name": "C#3",
          "midi": 49,
          "time": 244.40000000000086,
          "velocity": 0.7874015748031497,
          "duration": 0.06416666666666515
        },
        {
          "name": "C2",
          "midi": 36,
          "time": 244.59416666666752,
          "velocity": 0.7874015748031497,
          "duration": 0.054166666666674246
        },
        {
          "name": "C#3",
          "midi": 49,
          "time": 244.80000000000086,
          "velocity": 0.7874015748031497,
          "duration": 0.06416666666666515
        },
        {
          "name": "C2",
          "midi": 36,
          "time": 244.99416666666752,
          "velocity": 0.7874015748031497,
          "duration": 0.054166666666674246
        },
        {
          "name": "C2",
          "midi": 36,
          "time": 245.20000000000087,
          "velocity": 0.7874015748031497,
          "duration": 0.06416666666666515
        },
        {
          "name": "C#3",
          "midi": 49,
          "time": 245.20000000000087,
          "velocity": 0.7874015748031497,
          "duration": 0.06416666666666515
        },
        {
          "name": "E2",
          "midi": 40,
          "time": 245.60000000000088,
          "velocity": 0.7874015748031497,
          "duration": 0.06416666666666515
        },
        {
          "name": "C#3",
          "midi": 49,
          "time": 245.60000000000088,
          "velocity": 0.7874015748031497,
          "duration": 0.06416666666666515
        },
        {
          "name": "C2",
          "midi": 36,
          "time": 246.00000000000088,
          "velocity": 0.7874015748031497,
          "duration": 0.06416666666666515
        },
        {
          "name": "C#3",
          "midi": 49,
          "time": 246.00000000000088,
          "velocity": 0.7874015748031497,
          "duration": 0.06416666666666515
        },
        {
          "name": "C2",
          "midi": 36,
          "time": 246.4000000000009,
          "velocity": 0.7874015748031497,
          "duration": 0.06416666666666515
        },
        {
          "name": "C#3",
          "midi": 49,
          "time": 246.4000000000009,
          "velocity": 0.7874015748031497,
          "duration": 0.06416666666666515
        },
        {
          "name": "C2",
          "midi": 36,
          "time": 246.8000000000009,
          "velocity": 0.7874015748031497,
          "duration": 0.06416666666666515
        },
        {
          "name": "C#3",
          "midi": 49,
          "time": 246.8000000000009,
          "velocity": 0.7874015748031497,
          "duration": 0.06416666666666515
        },
        {
          "name": "E2",
          "midi": 40,
          "time": 247.2000000000009,
          "velocity": 0.7874015748031497,
          "duration": 0.06416666666666515
        },
        {
          "name": "C#3",
          "midi": 49,
          "time": 247.2000000000009,
          "velocity": 0.7874015748031497,
          "duration": 0.06416666666666515
        },
        {
          "name": "C2",
          "midi": 36,
          "time": 247.6000000000009,
          "velocity": 0.7874015748031497,
          "duration": 0.06416666666666515
        },
        {
          "name": "C#3",
          "midi": 49,
          "time": 247.6000000000009,
          "velocity": 0.7874015748031497,
          "duration": 0.06416666666666515
        },
        {
          "name": "C2",
          "midi": 36,
          "time": 247.79416666666756,
          "velocity": 0.7874015748031497,
          "duration": 0.054166666666674246
        },
        {
          "name": "C#3",
          "midi": 49,
          "time": 248.0000000000009,
          "velocity": 0.7874015748031497,
          "duration": 0.06416666666666515
        },
        {
          "name": "C2",
          "midi": 36,
          "time": 248.19416666666757,
          "velocity": 0.7874015748031497,
          "duration": 0.054166666666674246
        },
        {
          "name": "E2",
          "midi": 40,
          "time": 248.40000000000092,
          "velocity": 0.7874015748031497,
          "duration": 0.06416666666666515
        },
        {
          "name": "A3",
          "midi": 57,
          "time": 248.40000000000092,
          "velocity": 0.7874015748031497,
          "duration": 0.06416666666666515
        },
        {
          "name": "E2",
          "midi": 40,
          "time": 248.80000000000092,
          "velocity": 0.7874015748031497,
          "duration": 0.06416666666666515
        },
        {
          "name": "C#3",
          "midi": 49,
          "time": 248.80000000000092,
          "velocity": 0.7874015748031497,
          "duration": 0.06416666666666515
        },
        {
          "name": "A3",
          "midi": 57,
          "time": 249.20000000000093,
          "velocity": 0.7874015748031497,
          "duration": 0.05333333333334167
        },
        {
          "name": "E2",
          "midi": 40,
          "time": 249.20000000000093,
          "velocity": 0.7874015748031497,
          "duration": 0.06416666666666515
        },
        {
          "name": "C2",
          "midi": 36,
          "time": 249.60000000000093,
          "velocity": 0.7874015748031497,
          "duration": 0.06416666666666515
        },
        {
          "name": "C#3",
          "midi": 49,
          "time": 249.60000000000093,
          "velocity": 0.7874015748031497,
          "duration": 0.06416666666666515
        }
      ],
      "controlChanges": {
        "7": [
          {
            "number": 7,
            "time": 0,
            "value": 1
          }
        ]
      },
      "id": 4,
      "name": "Visit The Midi Planet",
      "instrumentNumber": 0,
      "instrument": "standard kit",
      "instrumentFamily": "drums",
      "channelNumber": 9,
      "isPercussion": true
    },
    {
      "startTime": 0,
      "duration": 0,
      "length": 0,
      "notes": [],
      "controlChanges": {},
      "id": 5,
      "name": "http://home7.inet.tele.dk/cns/midiplanet/"
    },
    {
      "startTime": 0,
      "duration": 0,
      "length": 0,
      "notes": [],
      "controlChanges": {},
      "id": 6
    }
  ]
}