{
  "header": {
    "PPQ": 192,
    "bpm": 138.9998957500782,
    "timeSignature": [
      4,
      4
    ],
    "name": "Untitled"
  },
  "startTime": 0,
  "duration": 119.33911828125001,
  "tracks": [
    {
      "startTime": 0,
      "duration": 0,
      "length": 0,
      "notes": [],
      "controlChanges": {},
      "id": 0
    },
    {
      "startTime": 20.71944,
      "duration": 119.11879437499998,
      "length": 171,
      "notes": [
        {
          "name": "A#3",
          "midi": 58,
          "time": 20.71944,
          "velocity": 0.889763779527559,
          "duration": 1.708634374999999
        },
        {
          "name": "D#4",
          "midi": 63,
          "time": 20.71944,
          "velocity": 0.8976377952755905,
          "duration": 1.708634374999999
        },
        {
          "name": "F#4",
          "midi": 66,
          "time": 20.71944,
          "velocity": 0.905511811023622,
          "duration": 1.708634374999999
        },
        {
          "name": "F4",
          "midi": 65,
          "time": 22.44606,
          "velocity": 0.889763779527559,
          "duration": 1.708634374999999
        },
        {
          "name": "C#4",
          "midi": 61,
          "time": 22.44606,
          "velocity": 0.8976377952755905,
          "duration": 1.708634374999999
        },
        {
          "name": "G#3",
          "midi": 56,
          "time": 22.44606,
          "velocity": 0.8976377952755905,
          "duration": 1.708634374999999
        },
        {
          "name": "A#3",
          "midi": 58,
          "time": 24.17268,
          "velocity": 0.889763779527559,
          "duration": 1.708634374999999
        },
        {
          "name": "D#4",
          "midi": 63,
          "time": 24.17268,
          "velocity": 0.8976377952755905,
          "duration": 1.708634374999999
        },
        {
          "name": "F#4",
          "midi": 66,
          "time": 24.17268,
          "velocity": 0.8976377952755905,
          "duration": 1.708634374999999
        },
        {
          "name": "F4",
          "midi": 65,
          "time": 25.8993,
          "velocity": 0.8976377952755905,
          "duration": 1.708634374999999
        },
        {
          "name": "G#3",
          "midi": 56,
          "time": 25.8993,
          "velocity": 0.905511811023622,
          "duration": 1.708634374999999
        },
        {
          "name": "C#4",
          "midi": 61,
          "time": 25.8993,
          "velocity": 0.8976377952755905,
          "duration": 1.708634374999999
        },
        {
          "name": "B3",
          "midi": 59,
          "time": 27.62592,
          "velocity": 0.8976377952755905,
          "duration": 1.708634374999999
        },
        {
          "name": "F#3",
          "midi": 54,
          "time": 27.62592,
          "velocity": 0.8976377952755905,
          "duration": 1.708634374999999
        },
        {
          "name": "D#4",
          "midi": 63,
          "time": 27.62592,
          "velocity": 0.9133858267716536,
          "duration": 1.708634374999999
        },
        {
          "name": "F4",
          "midi": 65,
          "time": 29.35254,
          "velocity": 0.889763779527559,
          "duration": 1.708634374999999
        },
        {
          "name": "C#4",
          "midi": 61,
          "time": 29.35254,
          "velocity": 0.9133858267716536,
          "duration": 1.708634374999999
        },
        {
          "name": "G#3",
          "midi": 56,
          "time": 29.35254,
          "velocity": 0.8976377952755905,
          "duration": 1.708634374999999
        },
        {
          "name": "A#3",
          "midi": 58,
          "time": 31.07916,
          "velocity": 0.8976377952755905,
          "duration": 1.7086343750000026
        },
        {
          "name": "D#4",
          "midi": 63,
          "time": 31.07916,
          "velocity": 0.905511811023622,
          "duration": 1.7086343750000026
        },
        {
          "name": "F#4",
          "midi": 66,
          "time": 31.07916,
          "velocity": 0.905511811023622,
          "duration": 1.7086343750000026
        },
        {
          "name": "G#3",
          "midi": 56,
          "time": 32.805780000000006,
          "velocity": 0.8976377952755905,
          "duration": 1.7086343750000026
        },
        {
          "name": "C#4",
          "midi": 61,
          "time": 32.805780000000006,
          "velocity": 0.905511811023622,
          "duration": 1.7086343750000026
        },
        {
          "name": "F4",
          "midi": 65,
          "time": 32.805780000000006,
          "velocity": 0.889763779527559,
          "duration": 1.7086343750000026
        },
        {
          "name": "A#3",
          "midi": 58,
          "time": 34.53240000000001,
          "velocity": 0.889763779527559,
          "duration": 1.7086343750000026
        },
        {
          "name": "D#4",
          "midi": 63,
          "time": 34.53240000000001,
          "velocity": 0.8976377952755905,
          "duration": 1.7086343750000026
        },
        {
          "name": "F#4",
          "midi": 66,
          "time": 34.53240000000001,
          "velocity": 0.905511811023622,
          "duration": 1.7086343750000026
        },
        {
          "name": "F4",
          "midi": 65,
          "time": 36.259020000000014,
          "velocity": 0.889763779527559,
          "duration": 1.7086343750000026
        },
        {
          "name": "C#4",
          "midi": 61,
          "time": 36.259020000000014,
          "velocity": 0.8976377952755905,
          "duration": 1.7086343750000026
        },
        {
          "name": "G#3",
          "midi": 56,
          "time": 36.259020000000014,
          "velocity": 0.8976377952755905,
          "duration": 1.7086343750000026
        },
        {
          "name": "A#3",
          "midi": 58,
          "time": 37.98564000000002,
          "velocity": 0.889763779527559,
          "duration": 1.7086343750000026
        },
        {
          "name": "D#4",
          "midi": 63,
          "time": 37.98564000000002,
          "velocity": 0.8976377952755905,
          "duration": 1.7086343750000026
        },
        {
          "name": "F#4",
          "midi": 66,
          "time": 37.98564000000002,
          "velocity": 0.8976377952755905,
          "duration": 1.7086343750000026
        },
        {
          "name": "F4",
          "midi": 65,
          "time": 39.71226000000002,
          "velocity": 0.8976377952755905,
          "duration": 1.7086343750000026
        },
        {
          "name": "G#3",
          "midi": 56,
          "time": 39.71226000000002,
          "velocity": 0.905511811023622,
          "duration": 1.7086343750000026
        },
        {
          "name": "C#4",
          "midi": 61,
          "time": 39.71226000000002,
          "velocity": 0.8976377952755905,
          "duration": 1.7086343750000026
        },
        {
          "name": "B3",
          "midi": 59,
          "time": 41.438880000000026,
          "velocity": 0.8976377952755905,
          "duration": 1.7086343750000026
        },
        {
          "name": "F#3",
          "midi": 54,
          "time": 41.438880000000026,
          "velocity": 0.8976377952755905,
          "duration": 1.7086343750000026
        },
        {
          "name": "D#4",
          "midi": 63,
          "time": 41.438880000000026,
          "velocity": 0.9133858267716536,
          "duration": 1.7086343750000026
        },
        {
          "name": "F4",
          "midi": 65,
          "time": 43.16550000000003,
          "velocity": 0.889763779527559,
          "duration": 1.7086343750000026
        },
        {
          "name": "C#4",
          "midi": 61,
          "time": 43.16550000000003,
          "velocity": 0.9133858267716536,
          "duration": 1.7086343750000026
        },
        {
          "name": "G#3",
          "midi": 56,
          "time": 43.16550000000003,
          "velocity": 0.8976377952755905,
          "duration": 1.7086343750000026
        },
        {
          "name": "A#3",
          "midi": 58,
          "time": 44.892120000000034,
          "velocity": 0.8976377952755905,
          "duration": 1.7086343750000026
        },
        {
          "name": "D#4",
          "midi": 63,
          "time": 44.892120000000034,
          "velocity": 0.905511811023622,
          "duration": 1.7086343750000026
        },
        {
          "name": "F#4",
          "midi": 66,
          "time": 44.892120000000034,
          "velocity": 0.905511811023622,
          "duration": 1.7086343750000026
        },
        {
          "name": "F4",
          "midi": 65,
          "time": 46.61874000000004,
          "velocity": 0.8976377952755905,
          "duration": 1.7086343750000026
        },
        {
          "name": "G#3",
          "midi": 56,
          "time": 46.61874000000004,
          "velocity": 0.905511811023622,
          "duration": 1.7086343750000026
        },
        {
          "name": "C#4",
          "midi": 61,
          "time": 46.61874000000004,
          "velocity": 0.905511811023622,
          "duration": 1.7086343750000026
        },
        {
          "name": "A#3",
          "midi": 58,
          "time": 48.34536000000004,
          "velocity": 0.8818897637795275,
          "duration": 1.7086343750000026
        },
        {
          "name": "D#4",
          "midi": 63,
          "time": 48.34536000000004,
          "velocity": 0.8976377952755905,
          "duration": 1.7086343750000026
        },
        {
          "name": "F#4",
          "midi": 66,
          "time": 48.34536000000004,
          "velocity": 0.8976377952755905,
          "duration": 1.7086343750000026
        },
        {
          "name": "F4",
          "midi": 65,
          "time": 50.071980000000046,
          "velocity": 0.8818897637795275,
          "duration": 1.7086343750000026
        },
        {
          "name": "C#4",
          "midi": 61,
          "time": 50.071980000000046,
          "velocity": 0.8976377952755905,
          "duration": 1.7086343750000026
        },
        {
          "name": "G#3",
          "midi": 56,
          "time": 50.071980000000046,
          "velocity": 0.8976377952755905,
          "duration": 1.7086343750000026
        },
        {
          "name": "A#3",
          "midi": 58,
          "time": 51.79860000000005,
          "velocity": 0.889763779527559,
          "duration": 1.7086343750000026
        },
        {
          "name": "F#4",
          "midi": 66,
          "time": 51.79860000000005,
          "velocity": 0.8976377952755905,
          "duration": 1.7086343750000026
        },
        {
          "name": "D#4",
          "midi": 63,
          "time": 51.79860000000005,
          "velocity": 0.889763779527559,
          "duration": 1.7086343750000026
        },
        {
          "name": "F4",
          "midi": 65,
          "time": 53.525220000000054,
          "velocity": 0.8818897637795275,
          "duration": 1.7086343750000026
        },
        {
          "name": "C#4",
          "midi": 61,
          "time": 53.525220000000054,
          "velocity": 0.905511811023622,
          "duration": 1.7086343750000026
        },
        {
          "name": "G#3",
          "midi": 56,
          "time": 53.525220000000054,
          "velocity": 0.889763779527559,
          "duration": 1.7086343750000026
        },
        {
          "name": "F#4",
          "midi": 66,
          "time": 55.25184000000006,
          "velocity": 0.8976377952755905,
          "duration": 1.7086343750000026
        },
        {
          "name": "A#3",
          "midi": 58,
          "time": 55.25184000000006,
          "velocity": 0.8976377952755905,
          "duration": 1.7086343750000026
        },
        {
          "name": "D#4",
          "midi": 63,
          "time": 55.25184000000006,
          "velocity": 0.889763779527559,
          "duration": 1.7086343750000026
        },
        {
          "name": "F4",
          "midi": 65,
          "time": 56.97846000000006,
          "velocity": 0.889763779527559,
          "duration": 1.7086343750000026
        },
        {
          "name": "G#3",
          "midi": 56,
          "time": 56.97846000000006,
          "velocity": 0.8976377952755905,
          "duration": 1.7086343750000026
        },
        {
          "name": "C#4",
          "midi": 61,
          "time": 56.97846000000006,
          "velocity": 0.9133858267716536,
          "duration": 1.7086343750000026
        },
        {
          "name": "F#4",
          "midi": 66,
          "time": 58.705080000000066,
          "velocity": 0.8976377952755905,
          "duration": 1.7086343750000026
        },
        {
          "name": "A#3",
          "midi": 58,
          "time": 58.705080000000066,
          "velocity": 0.8976377952755905,
          "duration": 1.7086343750000026
        },
        {
          "name": "D#4",
          "midi": 63,
          "time": 58.705080000000066,
          "velocity": 0.8976377952755905,
          "duration": 1.7086343750000026
        },
        {
          "name": "F4",
          "midi": 65,
          "time": 60.43170000000007,
          "velocity": 0.8818897637795275,
          "duration": 1.7086343750000026
        },
        {
          "name": "G#3",
          "midi": 56,
          "time": 60.43170000000007,
          "velocity": 0.8976377952755905,
          "duration": 1.7086343750000026
        },
        {
          "name": "C#4",
          "midi": 61,
          "time": 60.43170000000007,
          "velocity": 0.905511811023622,
          "duration": 1.7086343750000026
        },
        {
          "name": "F#4",
          "midi": 66,
          "time": 62.158320000000074,
          "velocity": 0.8976377952755905,
          "duration": 1.7086343750000026
        },
        {
          "name": "D#4",
          "midi": 63,
          "time": 62.158320000000074,
          "velocity": 0.8818897637795275,
          "duration": 1.7086343750000026
        },
        {
          "name": "A#3",
          "midi": 58,
          "time": 62.158320000000074,
          "velocity": 0.8976377952755905,
          "duration": 1.7086343750000026
        },
        {
          "name": "G#3",
          "midi": 56,
          "time": 63.88494000000008,
          "velocity": 0.889763779527559,
          "duration": 1.7086343749999955
        },
        {
          "name": "C#4",
          "midi": 61,
          "time": 63.88494000000008,
          "velocity": 0.905511811023622,
          "duration": 1.7086343749999955
        },
        {
          "name": "F4",
          "midi": 65,
          "time": 63.88494000000008,
          "velocity": 0.8818897637795275,
          "duration": 1.7086343749999955
        },
        {
          "name": "A#3",
          "midi": 58,
          "time": 65.61156000000007,
          "velocity": 0.889763779527559,
          "duration": 1.7086343750000026
        },
        {
          "name": "F#4",
          "midi": 66,
          "time": 65.61156000000007,
          "velocity": 0.8976377952755905,
          "duration": 1.7086343750000026
        },
        {
          "name": "D#4",
          "midi": 63,
          "time": 65.61156000000007,
          "velocity": 0.889763779527559,
          "duration": 1.7086343750000026
        },
        {
          "name": "C#4",
          "midi": 61,
          "time": 67.33818000000007,
          "velocity": 0.905511811023622,
          "duration": 1.7086343750000026
        },
        {
          "name": "G#3",
          "midi": 56,
          "time": 67.33818000000007,
          "velocity": 0.889763779527559,
          "duration": 1.7086343750000026
        },
        {
          "name": "F4",
          "midi": 65,
          "time": 67.33818000000007,
          "velocity": 0.8818897637795275,
          "duration": 1.7086343750000026
        },
        {
          "name": "A#3",
          "midi": 58,
          "time": 69.06480000000006,
          "velocity": 0.889763779527559,
          "duration": 1.7086343750000026
        },
        {
          "name": "D#4",
          "midi": 63,
          "time": 69.06480000000006,
          "velocity": 0.8976377952755905,
          "duration": 1.7086343750000026
        },
        {
          "name": "F#4",
          "midi": 66,
          "time": 69.06480000000006,
          "velocity": 0.905511811023622,
          "duration": 1.7086343750000026
        },
        {
          "name": "F4",
          "midi": 65,
          "time": 70.79142000000006,
          "velocity": 0.889763779527559,
          "duration": 1.7086343750000026
        },
        {
          "name": "C#4",
          "midi": 61,
          "time": 70.79142000000006,
          "velocity": 0.8976377952755905,
          "duration": 1.7086343750000026
        },
        {
          "name": "G#3",
          "midi": 56,
          "time": 70.79142000000006,
          "velocity": 0.8976377952755905,
          "duration": 1.7086343750000026
        },
        {
          "name": "A#3",
          "midi": 58,
          "time": 72.51804000000006,
          "velocity": 0.889763779527559,
          "duration": 1.7086343750000026
        },
        {
          "name": "D#4",
          "midi": 63,
          "time": 72.51804000000006,
          "velocity": 0.8976377952755905,
          "duration": 1.7086343750000026
        },
        {
          "name": "F#4",
          "midi": 66,
          "time": 72.51804000000006,
          "velocity": 0.8976377952755905,
          "duration": 1.7086343750000026
        },
        {
          "name": "F4",
          "midi": 65,
          "time": 74.24466000000005,
          "velocity": 0.8976377952755905,
          "duration": 1.7086343750000026
        },
        {
          "name": "G#3",
          "midi": 56,
          "time": 74.24466000000005,
          "velocity": 0.905511811023622,
          "duration": 1.7086343750000026
        },
        {
          "name": "C#4",
          "midi": 61,
          "time": 74.24466000000005,
          "velocity": 0.8976377952755905,
          "duration": 1.7086343750000026
        },
        {
          "name": "B3",
          "midi": 59,
          "time": 75.97128000000005,
          "velocity": 0.8976377952755905,
          "duration": 1.7086343750000026
        },
        {
          "name": "F#3",
          "midi": 54,
          "time": 75.97128000000005,
          "velocity": 0.8976377952755905,
          "duration": 1.7086343750000026
        },
        {
          "name": "D#4",
          "midi": 63,
          "time": 75.97128000000005,
          "velocity": 0.9133858267716536,
          "duration": 1.7086343750000026
        },
        {
          "name": "F4",
          "midi": 65,
          "time": 77.69790000000005,
          "velocity": 0.889763779527559,
          "duration": 1.7086343750000026
        },
        {
          "name": "C#4",
          "midi": 61,
          "time": 77.69790000000005,
          "velocity": 0.9133858267716536,
          "duration": 1.7086343750000026
        },
        {
          "name": "G#3",
          "midi": 56,
          "time": 77.69790000000005,
          "velocity": 0.8976377952755905,
          "duration": 1.7086343750000026
        },
        {
          "name": "A#3",
          "midi": 58,
          "time": 79.42452000000004,
          "velocity": 0.8976377952755905,
          "duration": 1.7086343750000026
        },
        {
          "name": "D#4",
          "midi": 63,
          "time": 79.42452000000004,
          "velocity": 0.905511811023622,
          "duration": 1.7086343750000026
        },
        {
          "name": "F#4",
          "midi": 66,
          "time": 79.42452000000004,
          "velocity": 0.905511811023622,
          "duration": 1.7086343750000026
        },
        {
          "name": "G#3",
          "midi": 56,
          "time": 81.15114000000004,
          "velocity": 0.8976377952755905,
          "duration": 1.7086343750000026
        },
        {
          "name": "C#4",
          "midi": 61,
          "time": 81.15114000000004,
          "velocity": 0.905511811023622,
          "duration": 1.7086343750000026
        },
        {
          "name": "F4",
          "midi": 65,
          "time": 81.15114000000004,
          "velocity": 0.889763779527559,
          "duration": 1.7086343750000026
        },
        {
          "name": "A#3",
          "midi": 58,
          "time": 82.87776000000004,
          "velocity": 0.889763779527559,
          "duration": 1.7086343750000026
        },
        {
          "name": "D#4",
          "midi": 63,
          "time": 82.87776000000004,
          "velocity": 0.8976377952755905,
          "duration": 1.7086343750000026
        },
        {
          "name": "F#4",
          "midi": 66,
          "time": 82.87776000000004,
          "velocity": 0.905511811023622,
          "duration": 1.7086343750000026
        },
        {
          "name": "F4",
          "midi": 65,
          "time": 84.60438000000003,
          "velocity": 0.889763779527559,
          "duration": 1.7086343750000026
        },
        {
          "name": "C#4",
          "midi": 61,
          "time": 84.60438000000003,
          "velocity": 0.8976377952755905,
          "duration": 1.7086343750000026
        },
        {
          "name": "G#3",
          "midi": 56,
          "time": 84.60438000000003,
          "velocity": 0.8976377952755905,
          "duration": 1.7086343750000026
        },
        {
          "name": "A#3",
          "midi": 58,
          "time": 86.33100000000003,
          "velocity": 0.889763779527559,
          "duration": 1.7086343750000026
        },
        {
          "name": "D#4",
          "midi": 63,
          "time": 86.33100000000003,
          "velocity": 0.8976377952755905,
          "duration": 1.7086343750000026
        },
        {
          "name": "F#4",
          "midi": 66,
          "time": 86.33100000000003,
          "velocity": 0.8976377952755905,
          "duration": 1.7086343750000026
        },
        {
          "name": "F4",
          "midi": 65,
          "time": 88.05762000000003,
          "velocity": 0.8976377952755905,
          "duration": 1.7086343750000026
        },
        {
          "name": "G#3",
          "midi": 56,
          "time": 88.05762000000003,
          "velocity": 0.905511811023622,
          "duration": 1.7086343750000026
        },
        {
          "name": "C#4",
          "midi": 61,
          "time": 88.05762000000003,
          "velocity": 0.8976377952755905,
          "duration": 1.7086343750000026
        },
        {
          "name": "B3",
          "midi": 59,
          "time": 89.78424000000003,
          "velocity": 0.8976377952755905,
          "duration": 1.7086343750000026
        },
        {
          "name": "F#3",
          "midi": 54,
          "time": 89.78424000000003,
          "velocity": 0.8976377952755905,
          "duration": 1.7086343750000026
        },
        {
          "name": "D#4",
          "midi": 63,
          "time": 89.78424000000003,
          "velocity": 0.9133858267716536,
          "duration": 1.7086343750000026
        },
        {
          "name": "F4",
          "midi": 65,
          "time": 91.51086000000002,
          "velocity": 0.889763779527559,
          "duration": 1.7086343750000026
        },
        {
          "name": "C#4",
          "midi": 61,
          "time": 91.51086000000002,
          "velocity": 0.9133858267716536,
          "duration": 1.7086343750000026
        },
        {
          "name": "G#3",
          "midi": 56,
          "time": 91.51086000000002,
          "velocity": 0.8976377952755905,
          "duration": 1.7086343750000026
        },
        {
          "name": "A#3",
          "midi": 58,
          "time": 93.23748000000002,
          "velocity": 0.8976377952755905,
          "duration": 1.7086343750000026
        },
        {
          "name": "D#4",
          "midi": 63,
          "time": 93.23748000000002,
          "velocity": 0.905511811023622,
          "duration": 1.7086343750000026
        },
        {
          "name": "F#4",
          "midi": 66,
          "time": 93.23748000000002,
          "velocity": 0.905511811023622,
          "duration": 1.7086343750000026
        },
        {
          "name": "G#3",
          "midi": 56,
          "time": 94.96410000000002,
          "velocity": 0.8976377952755905,
          "duration": 1.7086343750000026
        },
        {
          "name": "C#4",
          "midi": 61,
          "time": 94.96410000000002,
          "velocity": 0.905511811023622,
          "duration": 1.7086343750000026
        },
        {
          "name": "F4",
          "midi": 65,
          "time": 94.96410000000002,
          "velocity": 0.889763779527559,
          "duration": 1.7086343750000026
        },
        {
          "name": "A#3",
          "midi": 58,
          "time": 96.69072000000001,
          "velocity": 0.889763779527559,
          "duration": 1.7086343750000026
        },
        {
          "name": "D#4",
          "midi": 63,
          "time": 96.69072000000001,
          "velocity": 0.8976377952755905,
          "duration": 1.7086343750000026
        },
        {
          "name": "F#4",
          "midi": 66,
          "time": 96.69072000000001,
          "velocity": 0.905511811023622,
          "duration": 1.7086343750000026
        },
        {
          "name": "F4",
          "midi": 65,
          "time": 98.41734000000001,
          "velocity": 0.889763779527559,
          "duration": 1.7086343750000026
        },
        {
          "name": "C#4",
          "midi": 61,
          "time": 98.41734000000001,
          "velocity": 0.8976377952755905,
          "duration": 1.7086343750000026
        },
        {
          "name": "G#3",
          "midi": 56,
          "time": 98.41734000000001,
          "velocity": 0.8976377952755905,
          "duration": 1.7086343750000026
        },
        {
          "name": "A#3",
          "midi": 58,
          "time": 100.14396,
          "velocity": 0.889763779527559,
          "duration": 1.7086343750000026
        },
        {
          "name": "D#4",
          "midi": 63,
          "time": 100.14396,
          "velocity": 0.8976377952755905,
          "duration": 1.7086343750000026
        },
        {
          "name": "F#4",
          "midi": 66,
          "time": 100.14396,
          "velocity": 0.905511811023622,
          "duration": 1.7086343750000026
        },
        {
          "name": "F4",
          "midi": 65,
          "time": 101.87058,
          "velocity": 0.889763779527559,
          "duration": 1.7086343750000026
        },
        {
          "name": "C#4",
          "midi": 61,
          "time": 101.87058,
          "velocity": 0.8976377952755905,
          "duration": 1.7086343750000026
        },
        {
          "name": "G#3",
          "midi": 56,
          "time": 101.87058,
          "velocity": 0.8976377952755905,
          "duration": 1.7086343750000026
        },
        {
          "name": "A#3",
          "midi": 58,
          "time": 103.5972,
          "velocity": 0.889763779527559,
          "duration": 1.7086343750000026
        },
        {
          "name": "D#4",
          "midi": 63,
          "time": 103.5972,
          "velocity": 0.8976377952755905,
          "duration": 1.7086343750000026
        },
        {
          "name": "F#4",
          "midi": 66,
          "time": 103.5972,
          "velocity": 0.905511811023622,
          "duration": 1.7086343750000026
        },
        {
          "name": "F4",
          "midi": 65,
          "time": 105.32382,
          "velocity": 0.889763779527559,
          "duration": 1.7086343750000026
        },
        {
          "name": "C#4",
          "midi": 61,
          "time": 105.32382,
          "velocity": 0.8976377952755905,
          "duration": 1.7086343750000026
        },
        {
          "name": "G#3",
          "midi": 56,
          "time": 105.32382,
          "velocity": 0.8976377952755905,
          "duration": 1.7086343750000026
        },
        {
          "name": "A#3",
          "midi": 58,
          "time": 107.05044,
          "velocity": 0.889763779527559,
          "duration": 1.7086343750000026
        },
        {
          "name": "D#4",
          "midi": 63,
          "time": 107.05044,
          "velocity": 0.8976377952755905,
          "duration": 1.7086343750000026
        },
        {
          "name": "F#4",
          "midi": 66,
          "time": 107.05044,
          "velocity": 0.905511811023622,
          "duration": 1.7086343750000026
        },
        {
          "name": "F4",
          "midi": 65,
          "time": 108.77705999999999,
          "velocity": 0.889763779527559,
          "duration": 1.7086343750000026
        },
        {
          "name": "C#4",
          "midi": 61,
          "time": 108.77705999999999,
          "velocity": 0.8976377952755905,
          "duration": 1.7086343750000026
        },
        {
          "name": "G#3",
          "midi": 56,
          "time": 108.77705999999999,
          "velocity": 0.8976377952755905,
          "duration": 1.7086343750000026
        },
        {
          "name": "A#3",
          "midi": 58,
          "time": 110.50367999999999,
          "velocity": 0.889763779527559,
          "duration": 1.7086343750000026
        },
        {
          "name": "D#4",
          "midi": 63,
          "time": 110.50367999999999,
          "velocity": 0.8976377952755905,
          "duration": 1.7086343750000026
        },
        {
          "name": "F#4",
          "midi": 66,
          "time": 110.50367999999999,
          "velocity": 0.905511811023622,
          "duration": 1.7086343750000026
        },
        {
          "name": "F4",
          "midi": 65,
          "time": 112.23029999999999,
          "velocity": 0.889763779527559,
          "duration": 1.7086343750000026
        },
        {
          "name": "C#4",
          "midi": 61,
          "time": 112.23029999999999,
          "velocity": 0.8976377952755905,
          "duration": 1.7086343750000026
        },
        {
          "name": "G#3",
          "midi": 56,
          "time": 112.23029999999999,
          "velocity": 0.8976377952755905,
          "duration": 1.7086343750000026
        },
        {
          "name": "A#3",
          "midi": 58,
          "time": 113.95691999999998,
          "velocity": 0.889763779527559,
          "duration": 1.7086343750000026
        },
        {
          "name": "D#4",
          "midi": 63,
          "time": 113.95691999999998,
          "velocity": 0.8976377952755905,
          "duration": 1.7086343750000026
        },
        {
          "name": "F#4",
          "midi": 66,
          "time": 113.95691999999998,
          "velocity": 0.905511811023622,
          "duration": 1.7086343750000026
        },
        {
          "name": "F4",
          "midi": 65,
          "time": 115.68353999999998,
          "velocity": 0.889763779527559,
          "duration": 1.7086343750000026
        },
        {
          "name": "C#4",
          "midi": 61,
          "time": 115.68353999999998,
          "velocity": 0.8976377952755905,
          "duration": 1.7086343750000026
        },
        {
          "name": "G#3",
          "midi": 56,
          "time": 115.68353999999998,
          "velocity": 0.8976377952755905,
          "duration": 1.7086343750000026
        },
        {
          "name": "A#3",
          "midi": 58,
          "time": 117.41015999999998,
          "velocity": 0.889763779527559,
          "duration": 1.7086343750000026
        },
        {
          "name": "D#4",
          "midi": 63,
          "time": 117.41015999999998,
          "velocity": 0.8976377952755905,
          "duration": 1.7086343750000026
        },
        {
          "name": "F#4",
          "midi": 66,
          "time": 117.41015999999998,
          "velocity": 0.905511811023622,
          "duration": 1.7086343750000026
        }
      ],
      "controlChanges": {
        "7": [
          {
            "number": 7,
            "time": 0,
            "value": 1
          },
          {
            "number": 7,
            "time": 0,
            "value": 0.968503937007874
          }
        ],
        "10": [
          {
            "number": 10,
            "time": 0,
            "value": 0.889763779527559
          },
          {
            "number": 10,
            "time": 0.035971249999999996,
            "value": 0.8976377952755905
          },
          {
            "number": 10,
            "time": 0.0809353125,
            "value": 0.9133858267716536
          },
          {
            "number": 10,
            "time": 0.12589937499999998,
            "value": 0.937007874015748
          },
          {
            "number": 10,
            "time": 0.1888490625,
            "value": 0.9448818897637795
          },
          {
            "number": 10,
            "time": 0.233813125,
            "value": 0.9606299212598425
          },
          {
            "number": 10,
            "time": 0.341726875,
            "value": 0.9763779527559056
          },
          {
            "number": 10,
            "time": 0.42715859375,
            "value": 0.984251968503937
          },
          {
            "number": 10,
            "time": 0.47212265624999994,
            "value": 0.9921259842519685
          },
          {
            "number": 10,
            "time": 0.58003640625,
            "value": 1
          },
          {
            "number": 10,
            "time": 5.152881562499999,
            "value": 0.5039370078740157
          },
          {
            "number": 10,
            "time": 119.13677999999997,
            "value": 0.5039370078740157
          }
        ],
        "11": [
          {
            "number": 11,
            "time": 0,
            "value": 1
          },
          {
            "number": 11,
            "time": 119.13677999999997,
            "value": 0
          }
        ],
        "32": [
          {
            "number": 32,
            "time": 0,
            "value": 0
          },
          {
            "number": 32,
            "time": 0,
            "value": 0
          }
        ],
        "91": [
          {
            "number": 91,
            "time": 0,
            "value": 0.5196850393700787
          },
          {
            "number": 91,
            "time": 119.13677999999997,
            "value": 0.5196850393700787
          }
        ],
        "93": [
          {
            "number": 93,
            "time": 0,
            "value": 0.1732283464566929
          },
          {
            "number": 93,
            "time": 119.13677999999997,
            "value": 0.1732283464566929
          }
        ]
      },
      "id": 1,
      "name": "Untitled",
      "instrumentNumber": 5,
      "instrument": "electric piano 2",
      "instrumentFamily": "piano",
      "channelNumber": 0,
      "isPercussion": false
    },
    {
      "startTime": 6.6906525,
      "duration": 119.3391182812497,
      "length": 238,
      "notes": [
        {
          "name": "D#1",
          "midi": 27,
          "time": 6.6906525,
          "velocity": 1,
          "duration": 0.4226621875000003
        },
        {
          "name": "F#1",
          "midi": 30,
          "time": 7.1223075,
          "velocity": 1,
          "duration": 0.21133109375000014
        },
        {
          "name": "A#1",
          "midi": 34,
          "time": 7.338135,
          "velocity": 1,
          "duration": 0.21133109375000014
        },
        {
          "name": "F#2",
          "midi": 42,
          "time": 7.553962500000001,
          "velocity": 1,
          "duration": 0.21133109375000014
        },
        {
          "name": "D#2",
          "midi": 39,
          "time": 7.769790000000001,
          "velocity": 1,
          "duration": 0.6339932812500004
        },
        {
          "name": "D#2",
          "midi": 39,
          "time": 8.412776093750002,
          "velocity": 1,
          "duration": 0.4226621875000003
        },
        {
          "name": "D#2",
          "midi": 39,
          "time": 8.848927500000004,
          "velocity": 1,
          "duration": 0.2023382812500003
        },
        {
          "name": "C#2",
          "midi": 37,
          "time": 9.064755000000003,
          "velocity": 1,
          "duration": 0.17086343749999955
        },
        {
          "name": "C#2",
          "midi": 37,
          "time": 9.496410000000003,
          "velocity": 1,
          "duration": 0.15737421875000024
        },
        {
          "name": "D#1",
          "midi": 27,
          "time": 10.143892500000003,
          "velocity": 1,
          "duration": 0.4226621875000003
        },
        {
          "name": "F#1",
          "midi": 30,
          "time": 10.575547500000004,
          "velocity": 1,
          "duration": 0.20683468750000067
        },
        {
          "name": "A#1",
          "midi": 34,
          "time": 10.791375000000006,
          "velocity": 1,
          "duration": 0.20683468750000067
        },
        {
          "name": "F#2",
          "midi": 42,
          "time": 11.007202500000007,
          "velocity": 1,
          "duration": 0.20683468750000067
        },
        {
          "name": "D#2",
          "midi": 39,
          "time": 11.223030000000008,
          "velocity": 1,
          "duration": 0.6339932812499995
        },
        {
          "name": "D#2",
          "midi": 39,
          "time": 11.866016093750009,
          "velocity": 1,
          "duration": 0.42715859375000065
        },
        {
          "name": "D#2",
          "midi": 39,
          "time": 12.30216750000001,
          "velocity": 1,
          "duration": 0.18884906249999922
        },
        {
          "name": "C#2",
          "midi": 37,
          "time": 12.51799500000001,
          "velocity": 1,
          "duration": 0.17086343749999955
        },
        {
          "name": "D#1",
          "midi": 27,
          "time": 13.59713250000001,
          "velocity": 1,
          "duration": 0.42715859375000065
        },
        {
          "name": "F#1",
          "midi": 30,
          "time": 14.02878750000001,
          "velocity": 1,
          "duration": 0.21133109374999925
        },
        {
          "name": "A#1",
          "midi": 34,
          "time": 14.24461500000001,
          "velocity": 1,
          "duration": 0.21133109374999925
        },
        {
          "name": "F#2",
          "midi": 42,
          "time": 14.46044250000001,
          "velocity": 1,
          "duration": 0.21133109374999925
        },
        {
          "name": "D#2",
          "midi": 39,
          "time": 14.67627000000001,
          "velocity": 1,
          "duration": 0.6339932812499995
        },
        {
          "name": "D#2",
          "midi": 39,
          "time": 15.31925609375001,
          "velocity": 1,
          "duration": 0.4226621875000003
        },
        {
          "name": "D#2",
          "midi": 39,
          "time": 15.755407500000011,
          "velocity": 1,
          "duration": 0.2023382812500003
        },
        {
          "name": "C#2",
          "midi": 37,
          "time": 15.97123500000001,
          "velocity": 1,
          "duration": 0.17086343749999955
        },
        {
          "name": "C#2",
          "midi": 37,
          "time": 16.40289000000001,
          "velocity": 1,
          "duration": 0.15737421875000024
        },
        {
          "name": "D#1",
          "midi": 27,
          "time": 17.05037250000001,
          "velocity": 1,
          "duration": 0.4226621874999985
        },
        {
          "name": "F#1",
          "midi": 30,
          "time": 17.482027500000008,
          "velocity": 1,
          "duration": 0.2068346874999989
        },
        {
          "name": "A#1",
          "midi": 34,
          "time": 17.697855000000008,
          "velocity": 1,
          "duration": 0.2068346874999989
        },
        {
          "name": "F#2",
          "midi": 42,
          "time": 17.913682500000007,
          "velocity": 1,
          "duration": 0.2068346874999989
        },
        {
          "name": "D#2",
          "midi": 39,
          "time": 18.129510000000007,
          "velocity": 1,
          "duration": 0.6339932812499995
        },
        {
          "name": "D#2",
          "midi": 39,
          "time": 18.772496093750007,
          "velocity": 1,
          "duration": 0.42715859375000065
        },
        {
          "name": "D#2",
          "midi": 39,
          "time": 19.208647500000005,
          "velocity": 1,
          "duration": 0.188849062500001
        },
        {
          "name": "C#2",
          "midi": 37,
          "time": 19.424475000000005,
          "velocity": 1,
          "duration": 0.17086343749999955
        },
        {
          "name": "D#2",
          "midi": 39,
          "time": 20.935267500000005,
          "velocity": 1,
          "duration": 0.15737421875000024
        },
        {
          "name": "D#2",
          "midi": 39,
          "time": 21.151095000000005,
          "velocity": 1,
          "duration": 0.15737421875000024
        },
        {
          "name": "D#2",
          "midi": 39,
          "time": 21.582750000000004,
          "velocity": 1,
          "duration": 0.15737421875000024
        },
        {
          "name": "C#2",
          "midi": 37,
          "time": 22.230232500000003,
          "velocity": 1,
          "duration": 0.15737421875000024
        },
        {
          "name": "C#2",
          "midi": 37,
          "time": 22.446060000000003,
          "velocity": 1,
          "duration": 0.17086343749999955
        },
        {
          "name": "C#2",
          "midi": 37,
          "time": 22.877715000000002,
          "velocity": 1,
          "duration": 0.15737421875000024
        },
        {
          "name": "D#2",
          "midi": 39,
          "time": 24.388507500000003,
          "velocity": 1,
          "duration": 0.15737421875000024
        },
        {
          "name": "D#2",
          "midi": 39,
          "time": 24.604335000000003,
          "velocity": 1,
          "duration": 0.17985625000000027
        },
        {
          "name": "D#2",
          "midi": 39,
          "time": 25.03599,
          "velocity": 1,
          "duration": 0.188849062500001
        },
        {
          "name": "C#2",
          "midi": 37,
          "time": 25.683472500000004,
          "velocity": 1,
          "duration": 0.15737421875000024
        },
        {
          "name": "C#2",
          "midi": 37,
          "time": 25.899300000000004,
          "velocity": 1,
          "duration": 0.17985625000000027
        },
        {
          "name": "C#2",
          "midi": 37,
          "time": 26.330955000000003,
          "velocity": 1,
          "duration": 0.188849062500001
        },
        {
          "name": "B1",
          "midi": 35,
          "time": 27.841747500000004,
          "velocity": 1,
          "duration": 0.15737421875000024
        },
        {
          "name": "B1",
          "midi": 35,
          "time": 28.057575000000003,
          "velocity": 1,
          "duration": 0.15737421875000024
        },
        {
          "name": "B1",
          "midi": 35,
          "time": 28.489230000000003,
          "velocity": 1,
          "duration": 0.15737421875000024
        },
        {
          "name": "C#2",
          "midi": 37,
          "time": 29.1367125,
          "velocity": 1,
          "duration": 0.15737421875000024
        },
        {
          "name": "C#2",
          "midi": 37,
          "time": 29.35254,
          "velocity": 1,
          "duration": 0.17985625000000027
        },
        {
          "name": "C#2",
          "midi": 37,
          "time": 29.784195,
          "velocity": 1,
          "duration": 0.15737421875000024
        },
        {
          "name": "D#2",
          "midi": 39,
          "time": 31.2949875,
          "velocity": 1,
          "duration": 0.15737421875000024
        },
        {
          "name": "D#2",
          "midi": 39,
          "time": 31.510815,
          "velocity": 1,
          "duration": 0.17985625000000027
        },
        {
          "name": "D#2",
          "midi": 39,
          "time": 31.94247,
          "velocity": 1,
          "duration": 0.18884906249999744
        },
        {
          "name": "C#2",
          "midi": 37,
          "time": 32.589952499999995,
          "velocity": 1,
          "duration": 0.15737421875000024
        },
        {
          "name": "C#2",
          "midi": 37,
          "time": 32.80578,
          "velocity": 1,
          "duration": 0.17985625000000027
        },
        {
          "name": "C#2",
          "midi": 37,
          "time": 33.237435,
          "velocity": 1,
          "duration": 0.18884906249999744
        },
        {
          "name": "D#2",
          "midi": 39,
          "time": 34.7482275,
          "velocity": 1,
          "duration": 0.15737421875000024
        },
        {
          "name": "D#2",
          "midi": 39,
          "time": 34.964055,
          "velocity": 1,
          "duration": 0.15737421875000024
        },
        {
          "name": "D#2",
          "midi": 39,
          "time": 35.39571,
          "velocity": 1,
          "duration": 0.15737421875000024
        },
        {
          "name": "C#2",
          "midi": 37,
          "time": 36.0431925,
          "velocity": 1,
          "duration": 0.15737421875000024
        },
        {
          "name": "C#2",
          "midi": 37,
          "time": 36.25902000000001,
          "velocity": 1,
          "duration": 0.1708634375000031
        },
        {
          "name": "C#2",
          "midi": 37,
          "time": 36.69067500000001,
          "velocity": 1,
          "duration": 0.15737421875000024
        },
        {
          "name": "D#2",
          "midi": 39,
          "time": 38.201467500000014,
          "velocity": 1,
          "duration": 0.15737421875000024
        },
        {
          "name": "D#2",
          "midi": 39,
          "time": 38.41729500000002,
          "velocity": 1,
          "duration": 0.17985625000000027
        },
        {
          "name": "D#2",
          "midi": 39,
          "time": 38.848950000000016,
          "velocity": 1,
          "duration": 0.18884906249999744
        },
        {
          "name": "C#2",
          "midi": 37,
          "time": 39.49643250000001,
          "velocity": 1,
          "duration": 0.15737421875000024
        },
        {
          "name": "C#2",
          "midi": 37,
          "time": 39.712260000000015,
          "velocity": 1,
          "duration": 0.17985625000000027
        },
        {
          "name": "C#2",
          "midi": 37,
          "time": 40.143915000000014,
          "velocity": 1,
          "duration": 0.18884906249999744
        },
        {
          "name": "B1",
          "midi": 35,
          "time": 41.654707500000015,
          "velocity": 1,
          "duration": 0.15737421875000024
        },
        {
          "name": "B1",
          "midi": 35,
          "time": 41.87053500000002,
          "velocity": 1,
          "duration": 0.15737421875000024
        },
        {
          "name": "B1",
          "midi": 35,
          "time": 42.30219000000002,
          "velocity": 1,
          "duration": 0.15737421875000024
        },
        {
          "name": "C#2",
          "midi": 37,
          "time": 42.94967250000002,
          "velocity": 1,
          "duration": 0.15737421875000024
        },
        {
          "name": "C#2",
          "midi": 37,
          "time": 43.16550000000002,
          "velocity": 1,
          "duration": 0.17985625000000027
        },
        {
          "name": "C#2",
          "midi": 37,
          "time": 43.59715500000002,
          "velocity": 1,
          "duration": 0.15737421875000024
        },
        {
          "name": "D#2",
          "midi": 39,
          "time": 45.10794750000002,
          "velocity": 1,
          "duration": 0.15737421875000024
        },
        {
          "name": "D#2",
          "midi": 39,
          "time": 45.323775000000026,
          "velocity": 1,
          "duration": 0.17985625000000027
        },
        {
          "name": "D#2",
          "midi": 39,
          "time": 45.755430000000025,
          "velocity": 1,
          "duration": 0.18884906249999744
        },
        {
          "name": "C#2",
          "midi": 37,
          "time": 46.40291250000002,
          "velocity": 1,
          "duration": 0.15737421875000024
        },
        {
          "name": "C#2",
          "midi": 37,
          "time": 46.618740000000024,
          "velocity": 1,
          "duration": 0.17985625000000027
        },
        {
          "name": "C#2",
          "midi": 37,
          "time": 47.05039500000002,
          "velocity": 1,
          "duration": 0.18884906249999744
        },
        {
          "name": "D#1",
          "midi": 27,
          "time": 48.12953250000002,
          "velocity": 1,
          "duration": 0.42715859375000065
        },
        {
          "name": "F#1",
          "midi": 30,
          "time": 48.56118750000002,
          "velocity": 1,
          "duration": 0.21133109374999748
        },
        {
          "name": "A#1",
          "midi": 34,
          "time": 48.77701500000001,
          "velocity": 1,
          "duration": 0.21133109374999748
        },
        {
          "name": "F#2",
          "midi": 42,
          "time": 48.99284250000001,
          "velocity": 1,
          "duration": 0.21133109374999748
        },
        {
          "name": "D#2",
          "midi": 39,
          "time": 49.208670000000005,
          "velocity": 1,
          "duration": 0.6339932812499995
        },
        {
          "name": "D#2",
          "midi": 39,
          "time": 49.85165609375,
          "velocity": 1,
          "duration": 0.42266218750000206
        },
        {
          "name": "D#2",
          "midi": 39,
          "time": 50.2878075,
          "velocity": 1,
          "duration": 0.2023382812500003
        },
        {
          "name": "C#2",
          "midi": 37,
          "time": 50.503635,
          "velocity": 1,
          "duration": 0.1708634375000031
        },
        {
          "name": "C#2",
          "midi": 37,
          "time": 50.93529000000001,
          "velocity": 1,
          "duration": 0.15737421875000024
        },
        {
          "name": "D#1",
          "midi": 27,
          "time": 51.58277250000001,
          "velocity": 1,
          "duration": 0.42266218750000206
        },
        {
          "name": "F#1",
          "midi": 30,
          "time": 52.01442750000001,
          "velocity": 1,
          "duration": 0.2068346874999989
        },
        {
          "name": "A#1",
          "midi": 34,
          "time": 52.23025500000001,
          "velocity": 1,
          "duration": 0.2068346874999989
        },
        {
          "name": "F#2",
          "midi": 42,
          "time": 52.4460825,
          "velocity": 1,
          "duration": 0.2068346874999989
        },
        {
          "name": "D#2",
          "midi": 39,
          "time": 52.66191,
          "velocity": 1,
          "duration": 0.6339932812499995
        },
        {
          "name": "D#2",
          "midi": 39,
          "time": 53.304896093749996,
          "velocity": 1,
          "duration": 0.42715859375000065
        },
        {
          "name": "D#2",
          "midi": 39,
          "time": 53.74104749999999,
          "velocity": 1,
          "duration": 0.18884906249999744
        },
        {
          "name": "C#2",
          "midi": 37,
          "time": 53.95687499999999,
          "velocity": 1,
          "duration": 0.1708634375000031
        },
        {
          "name": "D#1",
          "midi": 27,
          "time": 55.03601249999999,
          "velocity": 1,
          "duration": 0.42715859375000065
        },
        {
          "name": "F#1",
          "midi": 30,
          "time": 55.46766749999999,
          "velocity": 1,
          "duration": 0.21133109374999748
        },
        {
          "name": "A#1",
          "midi": 34,
          "time": 55.683494999999986,
          "velocity": 1,
          "duration": 0.21133109374999748
        },
        {
          "name": "F#2",
          "midi": 42,
          "time": 55.89932249999998,
          "velocity": 1,
          "duration": 0.21133109374999748
        },
        {
          "name": "D#2",
          "midi": 39,
          "time": 56.11514999999998,
          "velocity": 1,
          "duration": 0.6339932812499995
        },
        {
          "name": "D#2",
          "midi": 39,
          "time": 56.758136093749975,
          "velocity": 1,
          "duration": 0.42266218750000206
        },
        {
          "name": "D#2",
          "midi": 39,
          "time": 57.19428749999997,
          "velocity": 1,
          "duration": 0.2023382812500003
        },
        {
          "name": "C#2",
          "midi": 37,
          "time": 57.410114999999976,
          "velocity": 1,
          "duration": 0.1708634375000031
        },
        {
          "name": "C#2",
          "midi": 37,
          "time": 57.84176999999998,
          "velocity": 1,
          "duration": 0.15737421875000024
        },
        {
          "name": "D#1",
          "midi": 27,
          "time": 58.489252499999985,
          "velocity": 1,
          "duration": 0.42266218750000206
        },
        {
          "name": "F#1",
          "midi": 30,
          "time": 58.920907499999984,
          "velocity": 1,
          "duration": 0.2068346874999989
        },
        {
          "name": "A#1",
          "midi": 34,
          "time": 59.13673499999998,
          "velocity": 1,
          "duration": 0.2068346874999989
        },
        {
          "name": "F#2",
          "midi": 42,
          "time": 59.352562499999976,
          "velocity": 1,
          "duration": 0.2068346874999989
        },
        {
          "name": "D#2",
          "midi": 39,
          "time": 59.56838999999997,
          "velocity": 1,
          "duration": 0.6339932812499995
        },
        {
          "name": "D#2",
          "midi": 39,
          "time": 60.21137609374997,
          "velocity": 1,
          "duration": 0.42715859375000065
        },
        {
          "name": "D#2",
          "midi": 39,
          "time": 60.64752749999997,
          "velocity": 1,
          "duration": 0.18884906249999744
        },
        {
          "name": "C#2",
          "midi": 37,
          "time": 60.86335499999996,
          "velocity": 1,
          "duration": 0.1708634375000031
        },
        {
          "name": "D#1",
          "midi": 27,
          "time": 61.942492499999965,
          "velocity": 1,
          "duration": 0.42715859375000065
        },
        {
          "name": "F#1",
          "midi": 30,
          "time": 62.374147499999964,
          "velocity": 1,
          "duration": 0.21133109374999748
        },
        {
          "name": "A#1",
          "midi": 34,
          "time": 62.58997499999996,
          "velocity": 1,
          "duration": 0.21133109374999748
        },
        {
          "name": "F#2",
          "midi": 42,
          "time": 62.805802499999956,
          "velocity": 1,
          "duration": 0.21133109374999748
        },
        {
          "name": "D#2",
          "midi": 39,
          "time": 63.02162999999995,
          "velocity": 1,
          "duration": 0.6339932812499995
        },
        {
          "name": "D#2",
          "midi": 39,
          "time": 63.66461609374995,
          "velocity": 1,
          "duration": 0.42266218750000206
        },
        {
          "name": "D#2",
          "midi": 39,
          "time": 64.10076749999995,
          "velocity": 1,
          "duration": 0.2023382812499932
        },
        {
          "name": "C#2",
          "midi": 37,
          "time": 64.31659499999994,
          "velocity": 1,
          "duration": 0.1708634375000031
        },
        {
          "name": "C#2",
          "midi": 37,
          "time": 64.74824999999994,
          "velocity": 1,
          "duration": 0.15737421874999313
        },
        {
          "name": "D#1",
          "midi": 27,
          "time": 65.39573249999994,
          "velocity": 1,
          "duration": 0.42266218749999496
        },
        {
          "name": "F#1",
          "midi": 30,
          "time": 65.82738749999993,
          "velocity": 1,
          "duration": 0.206834687500006
        },
        {
          "name": "A#1",
          "midi": 34,
          "time": 66.04321499999993,
          "velocity": 1,
          "duration": 0.206834687500006
        },
        {
          "name": "F#2",
          "midi": 42,
          "time": 66.25904249999994,
          "velocity": 1,
          "duration": 0.206834687500006
        },
        {
          "name": "D#2",
          "midi": 39,
          "time": 66.47486999999994,
          "velocity": 1,
          "duration": 0.6339932812499995
        },
        {
          "name": "D#2",
          "midi": 39,
          "time": 67.11785609374994,
          "velocity": 1,
          "duration": 0.42715859375000775
        },
        {
          "name": "D#2",
          "midi": 39,
          "time": 67.55400749999994,
          "velocity": 1,
          "duration": 0.18884906249999744
        },
        {
          "name": "C#2",
          "midi": 37,
          "time": 67.76983499999994,
          "velocity": 1,
          "duration": 0.1708634375000031
        },
        {
          "name": "D#2",
          "midi": 39,
          "time": 69.28062749999995,
          "velocity": 1,
          "duration": 0.15737421874999313
        },
        {
          "name": "D#2",
          "midi": 39,
          "time": 69.49645499999994,
          "velocity": 1,
          "duration": 0.15737421874999313
        },
        {
          "name": "D#2",
          "midi": 39,
          "time": 69.92810999999993,
          "velocity": 1,
          "duration": 0.15737421874999313
        },
        {
          "name": "C#2",
          "midi": 37,
          "time": 70.57559249999993,
          "velocity": 1,
          "duration": 0.15737421874999313
        },
        {
          "name": "C#2",
          "midi": 37,
          "time": 70.79141999999992,
          "velocity": 1,
          "duration": 0.1708634375000031
        },
        {
          "name": "C#2",
          "midi": 37,
          "time": 71.22307499999992,
          "velocity": 1,
          "duration": 0.15737421874999313
        },
        {
          "name": "D#2",
          "midi": 39,
          "time": 72.73386749999992,
          "velocity": 1,
          "duration": 0.15737421874999313
        },
        {
          "name": "D#2",
          "midi": 39,
          "time": 72.9496949999999,
          "velocity": 1,
          "duration": 0.17985625000000027
        },
        {
          "name": "D#2",
          "midi": 39,
          "time": 73.38134999999991,
          "velocity": 1,
          "duration": 0.18884906249999744
        },
        {
          "name": "C#2",
          "midi": 37,
          "time": 74.02883249999991,
          "velocity": 1,
          "duration": 0.15737421874999313
        },
        {
          "name": "C#2",
          "midi": 37,
          "time": 74.2446599999999,
          "velocity": 1,
          "duration": 0.17985625000000027
        },
        {
          "name": "C#2",
          "midi": 37,
          "time": 74.6763149999999,
          "velocity": 1,
          "duration": 0.18884906249999744
        },
        {
          "name": "B1",
          "midi": 35,
          "time": 76.1871074999999,
          "velocity": 1,
          "duration": 0.15737421874999313
        },
        {
          "name": "B1",
          "midi": 35,
          "time": 76.40293499999989,
          "velocity": 1,
          "duration": 0.15737421874999313
        },
        {
          "name": "B1",
          "midi": 35,
          "time": 76.83458999999988,
          "velocity": 1,
          "duration": 0.15737421874999313
        },
        {
          "name": "C#2",
          "midi": 37,
          "time": 77.48207249999987,
          "velocity": 1,
          "duration": 0.15737421874999313
        },
        {
          "name": "C#2",
          "midi": 37,
          "time": 77.69789999999986,
          "velocity": 1,
          "duration": 0.17985625000000027
        },
        {
          "name": "C#2",
          "midi": 37,
          "time": 78.12955499999987,
          "velocity": 1,
          "duration": 0.15737421874999313
        },
        {
          "name": "D#2",
          "midi": 39,
          "time": 79.64034749999986,
          "velocity": 1,
          "duration": 0.15737421874999313
        },
        {
          "name": "D#2",
          "midi": 39,
          "time": 79.85617499999985,
          "velocity": 1,
          "duration": 0.17985625000000027
        },
        {
          "name": "D#2",
          "midi": 39,
          "time": 80.28782999999986,
          "velocity": 1,
          "duration": 0.18884906249999744
        },
        {
          "name": "C#2",
          "midi": 37,
          "time": 80.93531249999985,
          "velocity": 1,
          "duration": 0.15737421874999313
        },
        {
          "name": "C#2",
          "midi": 37,
          "time": 81.15113999999984,
          "velocity": 1,
          "duration": 0.17985625000000027
        },
        {
          "name": "C#2",
          "midi": 37,
          "time": 81.58279499999985,
          "velocity": 1,
          "duration": 0.18884906249999744
        },
        {
          "name": "D#2",
          "midi": 39,
          "time": 83.09358749999984,
          "velocity": 1,
          "duration": 0.15737421874999313
        },
        {
          "name": "D#2",
          "midi": 39,
          "time": 83.30941499999983,
          "velocity": 1,
          "duration": 0.15737421874999313
        },
        {
          "name": "D#2",
          "midi": 39,
          "time": 83.74106999999982,
          "velocity": 1,
          "duration": 0.15737421874999313
        },
        {
          "name": "C#2",
          "midi": 37,
          "time": 84.38855249999982,
          "velocity": 1,
          "duration": 0.15737421874999313
        },
        {
          "name": "C#2",
          "midi": 37,
          "time": 84.60437999999981,
          "velocity": 1,
          "duration": 0.1708634375000031
        },
        {
          "name": "C#2",
          "midi": 37,
          "time": 85.03603499999981,
          "velocity": 1,
          "duration": 0.15737421874999313
        },
        {
          "name": "D#2",
          "midi": 39,
          "time": 86.54682749999981,
          "velocity": 1,
          "duration": 0.15737421874999313
        },
        {
          "name": "D#2",
          "midi": 39,
          "time": 86.7626549999998,
          "velocity": 1,
          "duration": 0.17985625000000027
        },
        {
          "name": "D#2",
          "midi": 39,
          "time": 87.1943099999998,
          "velocity": 1,
          "duration": 0.18884906249999744
        },
        {
          "name": "C#2",
          "midi": 37,
          "time": 87.8417924999998,
          "velocity": 1,
          "duration": 0.15737421874999313
        },
        {
          "name": "C#2",
          "midi": 37,
          "time": 88.05761999999979,
          "velocity": 1,
          "duration": 0.17985625000000027
        },
        {
          "name": "C#2",
          "midi": 37,
          "time": 88.4892749999998,
          "velocity": 1,
          "duration": 0.18884906249999744
        },
        {
          "name": "B1",
          "midi": 35,
          "time": 90.00006749999979,
          "velocity": 1,
          "duration": 0.15737421874999313
        },
        {
          "name": "B1",
          "midi": 35,
          "time": 90.21589499999978,
          "velocity": 1,
          "duration": 0.15737421874999313
        },
        {
          "name": "B1",
          "midi": 35,
          "time": 90.64754999999977,
          "velocity": 1,
          "duration": 0.15737421874999313
        },
        {
          "name": "C#2",
          "midi": 37,
          "time": 91.29503249999976,
          "velocity": 1,
          "duration": 0.15737421874999313
        },
        {
          "name": "C#2",
          "midi": 37,
          "time": 91.51085999999975,
          "velocity": 1,
          "duration": 0.17985625000000027
        },
        {
          "name": "C#2",
          "midi": 37,
          "time": 91.94251499999976,
          "velocity": 1,
          "duration": 0.15737421874999313
        },
        {
          "name": "D#2",
          "midi": 39,
          "time": 93.45330749999975,
          "velocity": 1,
          "duration": 0.15737421874999313
        },
        {
          "name": "D#2",
          "midi": 39,
          "time": 93.66913499999974,
          "velocity": 1,
          "duration": 0.17985625000000027
        },
        {
          "name": "D#2",
          "midi": 39,
          "time": 94.10078999999975,
          "velocity": 1,
          "duration": 0.18884906249999744
        },
        {
          "name": "C#2",
          "midi": 37,
          "time": 94.74827249999974,
          "velocity": 1,
          "duration": 0.15737421874999313
        },
        {
          "name": "C#2",
          "midi": 37,
          "time": 94.96409999999973,
          "velocity": 1,
          "duration": 0.17985625000000027
        },
        {
          "name": "C#2",
          "midi": 37,
          "time": 95.39575499999974,
          "velocity": 1,
          "duration": 0.18884906249999744
        },
        {
          "name": "D#1",
          "midi": 27,
          "time": 96.47489249999974,
          "velocity": 1,
          "duration": 0.42266218749999496
        },
        {
          "name": "F#1",
          "midi": 30,
          "time": 96.90654749999973,
          "velocity": 1,
          "duration": 0.21133109375000458
        },
        {
          "name": "A#1",
          "midi": 34,
          "time": 97.12237499999974,
          "velocity": 1,
          "duration": 0.21133109375000458
        },
        {
          "name": "F#2",
          "midi": 42,
          "time": 97.33820249999974,
          "velocity": 1,
          "duration": 0.21133109375000458
        },
        {
          "name": "D#2",
          "midi": 39,
          "time": 97.55402999999974,
          "velocity": 1,
          "duration": 0.6339932812499995
        },
        {
          "name": "D#2",
          "midi": 39,
          "time": 98.19701609374974,
          "velocity": 1,
          "duration": 0.42266218749999496
        },
        {
          "name": "D#2",
          "midi": 39,
          "time": 98.63316749999973,
          "velocity": 1,
          "duration": 0.2023382812499932
        },
        {
          "name": "C#2",
          "midi": 37,
          "time": 98.84899499999972,
          "velocity": 1,
          "duration": 0.1708634375000031
        },
        {
          "name": "C#2",
          "midi": 37,
          "time": 99.28064999999972,
          "velocity": 1,
          "duration": 0.15737421874999313
        },
        {
          "name": "D#1",
          "midi": 27,
          "time": 99.92813249999972,
          "velocity": 1,
          "duration": 0.42266218749999496
        },
        {
          "name": "F#1",
          "midi": 30,
          "time": 100.35978749999971,
          "velocity": 1,
          "duration": 0.206834687500006
        },
        {
          "name": "A#1",
          "midi": 34,
          "time": 100.57561499999971,
          "velocity": 1,
          "duration": 0.206834687500006
        },
        {
          "name": "F#2",
          "midi": 42,
          "time": 100.79144249999972,
          "velocity": 1,
          "duration": 0.206834687500006
        },
        {
          "name": "D#2",
          "midi": 39,
          "time": 101.00726999999972,
          "velocity": 1,
          "duration": 0.6339932812499995
        },
        {
          "name": "D#2",
          "midi": 39,
          "time": 101.65025609374972,
          "velocity": 1,
          "duration": 0.42715859375000775
        },
        {
          "name": "D#2",
          "midi": 39,
          "time": 102.08640749999972,
          "velocity": 1,
          "duration": 0.18884906249999744
        },
        {
          "name": "C#2",
          "midi": 37,
          "time": 102.30223499999973,
          "velocity": 1,
          "duration": 0.1708634375000031
        },
        {
          "name": "D#1",
          "midi": 27,
          "time": 103.38137249999973,
          "velocity": 1,
          "duration": 0.42715859374999354
        },
        {
          "name": "F#1",
          "midi": 30,
          "time": 103.81302749999972,
          "velocity": 1,
          "duration": 0.21133109375000458
        },
        {
          "name": "A#1",
          "midi": 34,
          "time": 104.02885499999972,
          "velocity": 1,
          "duration": 0.21133109375000458
        },
        {
          "name": "F#2",
          "midi": 42,
          "time": 104.24468249999973,
          "velocity": 1,
          "duration": 0.21133109375000458
        },
        {
          "name": "D#2",
          "midi": 39,
          "time": 104.46050999999973,
          "velocity": 1,
          "duration": 0.6339932812499995
        },
        {
          "name": "D#2",
          "midi": 39,
          "time": 105.10349609374973,
          "velocity": 1,
          "duration": 0.42266218749999496
        },
        {
          "name": "D#2",
          "midi": 39,
          "time": 105.53964749999972,
          "velocity": 1,
          "duration": 0.2023382812499932
        },
        {
          "name": "C#2",
          "midi": 37,
          "time": 105.7554749999997,
          "velocity": 1,
          "duration": 0.1708634375000031
        },
        {
          "name": "C#2",
          "midi": 37,
          "time": 106.18712999999971,
          "velocity": 1,
          "duration": 0.15737421874999313
        },
        {
          "name": "D#1",
          "midi": 27,
          "time": 106.83461249999971,
          "velocity": 1,
          "duration": 0.42266218749999496
        },
        {
          "name": "F#1",
          "midi": 30,
          "time": 107.2662674999997,
          "velocity": 1,
          "duration": 0.206834687500006
        },
        {
          "name": "A#1",
          "midi": 34,
          "time": 107.4820949999997,
          "velocity": 1,
          "duration": 0.206834687500006
        },
        {
          "name": "F#2",
          "midi": 42,
          "time": 107.6979224999997,
          "velocity": 1,
          "duration": 0.206834687500006
        },
        {
          "name": "D#2",
          "midi": 39,
          "time": 107.91374999999971,
          "velocity": 1,
          "duration": 0.6339932812499995
        },
        {
          "name": "D#2",
          "midi": 39,
          "time": 108.5567360937497,
          "velocity": 1,
          "duration": 0.42715859375000775
        },
        {
          "name": "D#2",
          "midi": 39,
          "time": 108.99288749999971,
          "velocity": 1,
          "duration": 0.18884906249999744
        },
        {
          "name": "C#2",
          "midi": 37,
          "time": 109.20871499999971,
          "velocity": 1,
          "duration": 0.1708634375000031
        },
        {
          "name": "D#1",
          "midi": 27,
          "time": 110.28785249999972,
          "velocity": 1,
          "duration": 0.42715859374999354
        },
        {
          "name": "F#1",
          "midi": 30,
          "time": 110.71950749999971,
          "velocity": 1,
          "duration": 0.21133109375000458
        },
        {
          "name": "A#1",
          "midi": 34,
          "time": 110.93533499999971,
          "velocity": 1,
          "duration": 0.21133109375000458
        },
        {
          "name": "F#2",
          "midi": 42,
          "time": 111.15116249999971,
          "velocity": 1,
          "duration": 0.21133109375000458
        },
        {
          "name": "D#2",
          "midi": 39,
          "time": 111.36698999999972,
          "velocity": 1,
          "duration": 0.6339932812499995
        },
        {
          "name": "D#2",
          "midi": 39,
          "time": 112.00997609374971,
          "velocity": 1,
          "duration": 0.42266218749999496
        },
        {
          "name": "D#2",
          "midi": 39,
          "time": 112.4461274999997,
          "velocity": 1,
          "duration": 0.2023382812499932
        },
        {
          "name": "C#2",
          "midi": 37,
          "time": 112.6619549999997,
          "velocity": 1,
          "duration": 0.1708634375000031
        },
        {
          "name": "C#2",
          "midi": 37,
          "time": 113.0936099999997,
          "velocity": 1,
          "duration": 0.15737421874999313
        },
        {
          "name": "D#1",
          "midi": 27,
          "time": 113.7410924999997,
          "velocity": 1,
          "duration": 0.42266218749999496
        },
        {
          "name": "F#1",
          "midi": 30,
          "time": 114.17274749999969,
          "velocity": 1,
          "duration": 0.206834687500006
        },
        {
          "name": "A#1",
          "midi": 34,
          "time": 114.38857499999969,
          "velocity": 1,
          "duration": 0.206834687500006
        },
        {
          "name": "F#2",
          "midi": 42,
          "time": 114.6044024999997,
          "velocity": 1,
          "duration": 0.206834687500006
        },
        {
          "name": "D#2",
          "midi": 39,
          "time": 114.8202299999997,
          "velocity": 1,
          "duration": 0.6339932812499995
        },
        {
          "name": "D#2",
          "midi": 39,
          "time": 115.4632160937497,
          "velocity": 1,
          "duration": 0.42715859375000775
        },
        {
          "name": "D#2",
          "midi": 39,
          "time": 115.8993674999997,
          "velocity": 1,
          "duration": 0.18884906249999744
        },
        {
          "name": "C#2",
          "midi": 37,
          "time": 116.1151949999997,
          "velocity": 1,
          "duration": 0.1708634375000031
        },
        {
          "name": "D#1",
          "midi": 27,
          "time": 117.1943324999997,
          "velocity": 1,
          "duration": 0.42715859374999354
        },
        {
          "name": "F#1",
          "midi": 30,
          "time": 117.6259874999997,
          "velocity": 1,
          "duration": 0.21133109375000458
        },
        {
          "name": "A#1",
          "midi": 34,
          "time": 117.8418149999997,
          "velocity": 1,
          "duration": 0.21133109375000458
        },
        {
          "name": "F#2",
          "midi": 42,
          "time": 118.0576424999997,
          "velocity": 1,
          "duration": 0.21133109375000458
        },
        {
          "name": "D#2",
          "midi": 39,
          "time": 118.2734699999997,
          "velocity": 1,
          "duration": 0.6339932812499995
        },
        {
          "name": "D#2",
          "midi": 39,
          "time": 118.9164560937497,
          "velocity": 1,
          "duration": 0.42266218749999496
        }
      ],
      "controlChanges": {
        "7": [
          {
            "number": 7,
            "time": 0,
            "value": 1
          },
          {
            "number": 7,
            "time": 0,
            "value": 0.937007874015748
          }
        ],
        "10": [
          {
            "number": 10,
            "time": 0,
            "value": 0.5039370078740157
          }
        ],
        "11": [
          {
            "number": 11,
            "time": 0,
            "value": 1
          },
          {
            "number": 11,
            "time": 119.1367799999997,
            "value": 0
          }
        ],
        "32": [
          {
            "number": 32,
            "time": 0,
            "value": 0
          },
          {
            "number": 32,
            "time": 0,
            "value": 0
          }
        ],
        "91": [
          {
            "number": 91,
            "time": 0,
            "value": 0.07874015748031496
          }
        ],
        "93": [
          {
            "number": 93,
            "time": 0,
            "value": 0.11811023622047244
          }
        ]
      },
      "id": 2,
      "name": "Untitled",
      "instrumentNumber": 33,
      "instrument": "electric bass (finger)",
      "instrumentFamily": "bass",
      "channelNumber": 1,
      "isPercussion": false
    },
    {
      "startTime": 96.69071999999998,
      "duration": 119.14127640624997,
      "length": 19,
      "notes": [
        {
          "name": "A#4",
          "midi": 70,
          "time": 96.69071999999998,
          "velocity": 0.937007874015748,
          "duration": 6.77608421875
        },
        {
          "name": "F#4",
          "midi": 66,
          "time": 96.69071999999998,
          "velocity": 0.937007874015748,
          "duration": 2.6214048437499997
        },
        {
          "name": "C#5",
          "midi": 73,
          "time": 100.09000312499998,
          "velocity": 0.937007874015748,
          "duration": 1.7131307812500012
        },
        {
          "name": "D#5",
          "midi": 75,
          "time": 101.85259437499998,
          "velocity": 0.937007874015748,
          "duration": 1.5692457812500038
        },
        {
          "name": "A#4",
          "midi": 70,
          "time": 103.57022156249998,
          "velocity": 0.937007874015748,
          "duration": 1.7311164062499955
        },
        {
          "name": "F#4",
          "midi": 66,
          "time": 103.58820718749998,
          "velocity": 0.937007874015748,
          "duration": 1.6951451562500068
        },
        {
          "name": "G#4",
          "midi": 68,
          "time": 105.31932359374997,
          "velocity": 0.937007874015748,
          "duration": 1.6546774999999911
        },
        {
          "name": "F4",
          "midi": 65,
          "time": 105.32831640624997,
          "velocity": 0.937007874015748,
          "duration": 1.6591739062499897
        },
        {
          "name": "F#4",
          "midi": 66,
          "time": 107.00547593749995,
          "velocity": 0.937007874015748,
          "duration": 1.7625912499999998
        },
        {
          "name": "A#4",
          "midi": 70,
          "time": 107.01896515624995,
          "velocity": 0.937007874015748,
          "duration": 1.7670876562499984
        },
        {
          "name": "F4",
          "midi": 65,
          "time": 108.78155640624995,
          "velocity": 0.937007874015748,
          "duration": 1.6951451562499926
        },
        {
          "name": "G#4",
          "midi": 68,
          "time": 108.81303124999995,
          "velocity": 0.937007874015748,
          "duration": 1.6411882812499954
        },
        {
          "name": "A#4",
          "midi": 70,
          "time": 110.48569437499994,
          "velocity": 0.937007874015748,
          "duration": 6.794069843750023
        },
        {
          "name": "F#4",
          "midi": 66,
          "time": 110.49468718749993,
          "velocity": 0.937007874015748,
          "duration": 2.3021600000000007
        },
        {
          "name": "C#5",
          "midi": 73,
          "time": 113.09360999999994,
          "velocity": 0.937007874015748,
          "duration": 0.8408279687500055
        },
        {
          "name": "D#5",
          "midi": 75,
          "time": 113.95242359374994,
          "velocity": 0.937007874015748,
          "duration": 1.6951451562500068
        },
        {
          "name": "C#5",
          "midi": 73,
          "time": 115.67454718749995,
          "velocity": 0.937007874015748,
          "duration": 1.6456846875000082
        },
        {
          "name": "A#4",
          "midi": 70,
          "time": 117.34721031249997,
          "velocity": 0.937007874015748,
          "duration": 0
        },
        {
          "name": "F#4",
          "midi": 66,
          "time": 117.37418874999997,
          "velocity": 0.937007874015748,
          "duration": 1.7670876562499984
        }
      ],
      "controlChanges": {
        "5": [
          {
            "number": 5,
            "time": 0,
            "value": 0.23622047244094488
          }
        ],
        "7": [
          {
            "number": 7,
            "time": 0,
            "value": 1
          },
          {
            "number": 7,
            "time": 0,
            "value": 0.9291338582677166
          }
        ],
        "10": [
          {
            "number": 10,
            "time": 0,
            "value": 0.5039370078740157
          }
        ],
        "11": [
          {
            "number": 11,
            "time": 0,
            "value": 1
          },
          {
            "number": 11,
            "time": 119.13677999999997,
            "value": 0
          }
        ],
        "32": [
          {
            "number": 32,
            "time": 0,
            "value": 0
          },
          {
            "number": 32,
            "time": 0,
            "value": 0
          }
        ],
        "65": [
          {
            "number": 65,
            "time": 0,
            "value": 1
          }
        ],
        "91": [
          {
            "number": 91,
            "time": 0,
            "value": 0.7086614173228346
          }
        ],
        "93": [
          {
            "number": 93,
            "time": 0,
            "value": 0.23622047244094488
          }
        ]
      },
      "id": 3,
      "name": "Untitled",
      "instrumentNumber": 54,
      "instrument": "synth voice",
      "instrumentFamily": "ensemble",
      "channelNumber": 2,
      "isPercussion": false
    },
    {
      "startTime": 20.9442603125,
      "duration": 119.11879437499977,
      "length": 270,
      "notes": [
        {
          "name": "A#4",
          "midi": 70,
          "time": 20.9442603125,
          "velocity": 0.9606299212598425,
          "duration": 0.08992812500000014
        },
        {
          "name": "G#4",
          "midi": 68,
          "time": 21.1600878125,
          "velocity": 0.9606299212598425,
          "duration": 0.14838140625000307
        },
        {
          "name": "A#4",
          "midi": 70,
          "time": 21.375915312500002,
          "velocity": 0.9606299212598425,
          "duration": 0.10791375000000158
        },
        {
          "name": "A#4",
          "midi": 70,
          "time": 21.596239218750004,
          "velocity": 0.952755905511811,
          "duration": 0.08992812500000014
        },
        {
          "name": "A#4",
          "midi": 70,
          "time": 21.812066718750003,
          "velocity": 0.9606299212598425,
          "duration": 0.10341734374999945
        },
        {
          "name": "G#4",
          "midi": 68,
          "time": 22.027894218750003,
          "velocity": 0.952755905511811,
          "duration": 0.17086343749999955
        },
        {
          "name": "A#4",
          "midi": 70,
          "time": 22.248218125,
          "velocity": 0.9606299212598425,
          "duration": 0.09892093750000086
        },
        {
          "name": "C#5",
          "midi": 73,
          "time": 22.455052812500004,
          "velocity": 0.9291338582677166,
          "duration": 0.13039578125000162
        },
        {
          "name": "A#4",
          "midi": 70,
          "time": 22.684369531250002,
          "velocity": 0.968503937007874,
          "duration": 0.12589937499999948
        },
        {
          "name": "G#4",
          "midi": 68,
          "time": 22.900197031250002,
          "velocity": 0.9606299212598425,
          "duration": 0.16187062499999882
        },
        {
          "name": "A#4",
          "midi": 70,
          "time": 23.318362812500002,
          "velocity": 0.968503937007874,
          "duration": 0.24730234375000038
        },
        {
          "name": "A#4",
          "midi": 70,
          "time": 23.974838125,
          "velocity": 0.968503937007874,
          "duration": 0.06294968750000152
        },
        {
          "name": "G#4",
          "midi": 68,
          "time": 24.181672812500004,
          "velocity": 0.968503937007874,
          "duration": 0.14838140624999951
        },
        {
          "name": "A#4",
          "midi": 70,
          "time": 24.406493125,
          "velocity": 0.968503937007874,
          "duration": 0.09442453124999872
        },
        {
          "name": "A#4",
          "midi": 70,
          "time": 24.6133278125,
          "velocity": 0.937007874015748,
          "duration": 0.08992812500000014
        },
        {
          "name": "A#4",
          "midi": 70,
          "time": 24.83365171875,
          "velocity": 0.9606299212598425,
          "duration": 0.09892093750000086
        },
        {
          "name": "G#4",
          "midi": 68,
          "time": 25.04947921875,
          "velocity": 0.968503937007874,
          "duration": 0.14388500000000093
        },
        {
          "name": "A#4",
          "midi": 70,
          "time": 25.269803125000003,
          "velocity": 0.968503937007874,
          "duration": 0.11241015625000017
        },
        {
          "name": "G#4",
          "midi": 68,
          "time": 25.485630625000002,
          "velocity": 0.968503937007874,
          "duration": 0.15737421875000024
        },
        {
          "name": "F#4",
          "midi": 66,
          "time": 25.696961718750003,
          "velocity": 0.9606299212598425,
          "duration": 0.1214029687500009
        },
        {
          "name": "G#4",
          "midi": 68,
          "time": 25.917285625000005,
          "velocity": 0.968503937007874,
          "duration": 0.14838140624999951
        },
        {
          "name": "F#4",
          "midi": 66,
          "time": 26.128616718750006,
          "velocity": 0.968503937007874,
          "duration": 0.09892093750000086
        },
        {
          "name": "G#4",
          "midi": 68,
          "time": 26.348940625000008,
          "velocity": 0.968503937007874,
          "duration": 0.2832735937499997
        },
        {
          "name": "A#4",
          "midi": 70,
          "time": 27.414588906250007,
          "velocity": 0.9606299212598425,
          "duration": 0.0674460937500001
        },
        {
          "name": "G#4",
          "midi": 68,
          "time": 27.63491281250001,
          "velocity": 0.968503937007874,
          "duration": 0.1753598437500017
        },
        {
          "name": "F#4",
          "midi": 66,
          "time": 27.85074031250001,
          "velocity": 0.9606299212598425,
          "duration": 0.16636703125000096
        },
        {
          "name": "D#4",
          "midi": 63,
          "time": 28.06656781250001,
          "velocity": 0.9448818897637795,
          "duration": 0.2068346874999989
        },
        {
          "name": "C#4",
          "midi": 61,
          "time": 28.28239531250001,
          "velocity": 0.952755905511811,
          "duration": 0.04046765625000148
        },
        {
          "name": "D#4",
          "midi": 63,
          "time": 28.498222812500014,
          "velocity": 0.968503937007874,
          "duration": 0.3732017187499963
        },
        {
          "name": "C#4",
          "midi": 61,
          "time": 28.934374218750012,
          "velocity": 0.968503937007874,
          "duration": 0.08992812500000014
        },
        {
          "name": "D#4",
          "midi": 63,
          "time": 29.15020171875001,
          "velocity": 0.968503937007874,
          "duration": 0.0674460937500001
        },
        {
          "name": "F4",
          "midi": 65,
          "time": 29.361532812500013,
          "velocity": 0.952755905511811,
          "duration": 0.18884906249999744
        },
        {
          "name": "D#4",
          "midi": 63,
          "time": 29.58185671875001,
          "velocity": 0.952755905511811,
          "duration": 0.10791375000000158
        },
        {
          "name": "C#4",
          "midi": 61,
          "time": 29.788691406250013,
          "velocity": 0.968503937007874,
          "duration": 0.08543171875000155
        },
        {
          "name": "A#3",
          "midi": 58,
          "time": 30.009015312500015,
          "velocity": 0.9606299212598425,
          "duration": 0.05395687500000079
        },
        {
          "name": "C#4",
          "midi": 61,
          "time": 30.229339218750017,
          "velocity": 0.968503937007874,
          "duration": 0.3327340625000019
        },
        {
          "name": "D#4",
          "midi": 63,
          "time": 30.656497812500017,
          "velocity": 0.968503937007874,
          "duration": 0.04496406250000007
        },
        {
          "name": "D#4",
          "midi": 63,
          "time": 30.872325312500017,
          "velocity": 0.968503937007874,
          "duration": 0.049460468749998654
        },
        {
          "name": "F#4",
          "midi": 66,
          "time": 31.088152812500013,
          "velocity": 0.968503937007874,
          "duration": 0.21133109374999748
        },
        {
          "name": "D#4",
          "midi": 63,
          "time": 31.30847671875001,
          "velocity": 0.968503937007874,
          "duration": 0.05845328124999938
        },
        {
          "name": "D#4",
          "midi": 63,
          "time": 32.38761421875001,
          "velocity": 0.968503937007874,
          "duration": 0.04496406250000007
        },
        {
          "name": "D#4",
          "midi": 63,
          "time": 32.59894531250001,
          "velocity": 0.968503937007874,
          "duration": 0.06294968750000152
        },
        {
          "name": "D#4",
          "midi": 63,
          "time": 32.8147728125,
          "velocity": 0.968503937007874,
          "duration": 0.2023382812500003
        },
        {
          "name": "C#4",
          "midi": 61,
          "time": 33.0485859375,
          "velocity": 0.968503937007874,
          "duration": 0.0674460937500001
        },
        {
          "name": "A#4",
          "midi": 70,
          "time": 34.766213125,
          "velocity": 0.952755905511811,
          "duration": 0.04496406250000007
        },
        {
          "name": "G#4",
          "midi": 68,
          "time": 34.9730478125,
          "velocity": 0.968503937007874,
          "duration": 0.12140296874999734
        },
        {
          "name": "A#4",
          "midi": 70,
          "time": 35.19337171875,
          "velocity": 0.952755905511811,
          "duration": 0.0674460937500001
        },
        {
          "name": "A#4",
          "midi": 70,
          "time": 35.409199218750004,
          "velocity": 0.952755905511811,
          "duration": 0.07643890624999727
        },
        {
          "name": "A#4",
          "midi": 70,
          "time": 35.6205303125,
          "velocity": 0.952755905511811,
          "duration": 0.103417343750003
        },
        {
          "name": "G#4",
          "midi": 68,
          "time": 35.84085421875,
          "velocity": 0.9212598425196851,
          "duration": 0.18884906249999744
        },
        {
          "name": "A#4",
          "midi": 70,
          "time": 36.0521853125,
          "velocity": 0.952755905511811,
          "duration": 0.08992812500000014
        },
        {
          "name": "C#5",
          "midi": 73,
          "time": 36.26351640625,
          "velocity": 0.9448818897637795,
          "duration": 0.13039578125000162
        },
        {
          "name": "A#4",
          "midi": 70,
          "time": 36.492833125000004,
          "velocity": 0.9606299212598425,
          "duration": 0.09442453124999872
        },
        {
          "name": "G#4",
          "midi": 68,
          "time": 36.713157031250006,
          "velocity": 0.968503937007874,
          "duration": 0.09442453124999872
        },
        {
          "name": "A#4",
          "midi": 70,
          "time": 37.1313228125,
          "velocity": 0.968503937007874,
          "duration": 0.32823765625000334
        },
        {
          "name": "A#4",
          "midi": 70,
          "time": 37.79229453125001,
          "velocity": 0.9606299212598425,
          "duration": 0.06294968750000152
        },
        {
          "name": "G#4",
          "midi": 68,
          "time": 38.00362562500001,
          "velocity": 0.9606299212598425,
          "duration": 0.12140296875000445
        },
        {
          "name": "A#4",
          "midi": 70,
          "time": 38.22844593750001,
          "velocity": 0.968503937007874,
          "duration": 0.0674460937500001
        },
        {
          "name": "A#4",
          "midi": 70,
          "time": 38.43528062500001,
          "velocity": 0.952755905511811,
          "duration": 0.07194249999999869
        },
        {
          "name": "A#4",
          "midi": 70,
          "time": 38.64661171875001,
          "velocity": 0.952755905511811,
          "duration": 0.08992812500000014
        },
        {
          "name": "G#4",
          "midi": 68,
          "time": 38.86693562500001,
          "velocity": 0.968503937007874,
          "duration": 0.09892093749999731
        },
        {
          "name": "A#4",
          "midi": 70,
          "time": 39.08276312500001,
          "velocity": 0.968503937007874,
          "duration": 0.08543171875000155
        },
        {
          "name": "G#4",
          "midi": 68,
          "time": 39.29409421875001,
          "velocity": 0.9606299212598425,
          "duration": 0.16187062499999882
        },
        {
          "name": "F#4",
          "midi": 66,
          "time": 39.51441812500001,
          "velocity": 0.952755905511811,
          "duration": 0.10791375000000158
        },
        {
          "name": "G#4",
          "midi": 68,
          "time": 39.72125281250001,
          "velocity": 0.9606299212598425,
          "duration": 0.11690656249999876
        },
        {
          "name": "F#4",
          "midi": 66,
          "time": 39.941576718750014,
          "velocity": 0.937007874015748,
          "duration": 0.0674460937500001
        },
        {
          "name": "G#4",
          "midi": 68,
          "time": 40.17538984375001,
          "velocity": 0.968503937007874,
          "duration": 0.2697843750000004
        },
        {
          "name": "A#4",
          "midi": 70,
          "time": 41.23654171875001,
          "velocity": 0.968503937007874,
          "duration": 0.0674460937500001
        },
        {
          "name": "F#4",
          "midi": 66,
          "time": 41.44787281250001,
          "velocity": 0.968503937007874,
          "duration": 0.08992812500000014
        },
        {
          "name": "F#4",
          "midi": 66,
          "time": 41.67718953125001,
          "velocity": 0.968503937007874,
          "duration": 0.09892093749999731
        },
        {
          "name": "D#4",
          "midi": 63,
          "time": 41.893017031250004,
          "velocity": 0.9606299212598425,
          "duration": 0.2068346874999989
        },
        {
          "name": "C#4",
          "midi": 61,
          "time": 42.095355312500004,
          "velocity": 0.9606299212598425,
          "duration": 0.08992812500000014
        },
        {
          "name": "D#4",
          "midi": 63,
          "time": 42.31118281250001,
          "velocity": 0.968503937007874,
          "duration": 0.364208906249992
        },
        {
          "name": "C#4",
          "midi": 61,
          "time": 42.7428378125,
          "velocity": 0.9606299212598425,
          "duration": 0.1348921875000002
        },
        {
          "name": "D#4",
          "midi": 63,
          "time": 42.9586653125,
          "velocity": 0.968503937007874,
          "duration": 0.08992812500000014
        },
        {
          "name": "F4",
          "midi": 65,
          "time": 43.16999640625,
          "velocity": 0.968503937007874,
          "duration": 0.4451442187500021
        },
        {
          "name": "C#4",
          "midi": 61,
          "time": 43.61963703125,
          "velocity": 0.968503937007874,
          "duration": 0.17985625000000027
        },
        {
          "name": "A#3",
          "midi": 58,
          "time": 43.830968125,
          "velocity": 0.9606299212598425,
          "duration": 0.05395687499999724
        },
        {
          "name": "C#4",
          "midi": 61,
          "time": 44.0557884375,
          "velocity": 0.968503937007874,
          "duration": 0.3507196875000034
        },
        {
          "name": "D#4",
          "midi": 63,
          "time": 44.47395421875,
          "velocity": 0.968503937007874,
          "duration": 0.18884906249999744
        },
        {
          "name": "F#4",
          "midi": 66,
          "time": 44.9011128125,
          "velocity": 0.968503937007874,
          "duration": 0.18435265624999886
        },
        {
          "name": "D#4",
          "midi": 63,
          "time": 45.121436718750005,
          "velocity": 0.968503937007874,
          "duration": 0.07194249999999869
        },
        {
          "name": "A#4",
          "midi": 70,
          "time": 46.200574218750006,
          "velocity": 0.968503937007874,
          "duration": 0.05845328125000293
        },
        {
          "name": "A#4",
          "midi": 70,
          "time": 46.41640171875001,
          "velocity": 0.9606299212598425,
          "duration": 0.06294968750000152
        },
        {
          "name": "C#5",
          "midi": 73,
          "time": 46.63672562500001,
          "velocity": 0.9606299212598425,
          "duration": 0.11241015625000017
        },
        {
          "name": "A#4",
          "midi": 70,
          "time": 46.86154593750001,
          "velocity": 0.952755905511811,
          "duration": 0.09892093749999731
        },
        {
          "name": "G#4",
          "midi": 68,
          "time": 47.06838062500001,
          "velocity": 0.9606299212598425,
          "duration": 0.1348921875000002
        },
        {
          "name": "A#4",
          "midi": 70,
          "time": 47.47755359375001,
          "velocity": 0.968503937007874,
          "duration": 0.36420890624999913
        },
        {
          "name": "G#4",
          "midi": 68,
          "time": 47.93169062500001,
          "velocity": 0.968503937007874,
          "duration": 0.14838140625000307
        },
        {
          "name": "A#4",
          "midi": 70,
          "time": 48.35435281250001,
          "velocity": 0.9606299212598425,
          "duration": 0.1663670312499974
        },
        {
          "name": "A#4",
          "midi": 70,
          "time": 48.574676718750005,
          "velocity": 0.9606299212598425,
          "duration": 0.5620507812500009
        },
        {
          "name": "A#4",
          "midi": 70,
          "time": 50.085469218750006,
          "velocity": 0.968503937007874,
          "duration": 0.16187062499999172
        },
        {
          "name": "A#4",
          "midi": 70,
          "time": 50.305793125,
          "velocity": 0.952755905511811,
          "duration": 0.503597500000005
        },
        {
          "name": "A#4",
          "midi": 70,
          "time": 51.600758125000006,
          "velocity": 0.968503937007874,
          "duration": 0.32823765624999623
        },
        {
          "name": "A#4",
          "midi": 70,
          "time": 52.02791671875,
          "velocity": 0.952755905511811,
          "duration": 0.04496406250000007
        },
        {
          "name": "A#4",
          "midi": 70,
          "time": 52.2392478125,
          "velocity": 0.968503937007874,
          "duration": 0.04046765625000148
        },
        {
          "name": "A#4",
          "midi": 70,
          "time": 52.4550753125,
          "velocity": 0.9606299212598425,
          "duration": 0.04046765625000148
        },
        {
          "name": "C#5",
          "midi": 73,
          "time": 52.67539921875,
          "velocity": 0.968503937007874,
          "duration": 0.3327340625000019
        },
        {
          "name": "A#4",
          "midi": 70,
          "time": 53.111550625,
          "velocity": 0.952755905511811,
          "duration": 0.04046765625000148
        },
        {
          "name": "C#5",
          "midi": 73,
          "time": 53.3363709375,
          "velocity": 0.968503937007874,
          "duration": 0.3057556249999962
        },
        {
          "name": "A#4",
          "midi": 70,
          "time": 53.7500403125,
          "velocity": 0.968503937007874,
          "duration": 0.1348921875000002
        },
        {
          "name": "G#4",
          "midi": 68,
          "time": 55.05849453125,
          "velocity": 0.968503937007874,
          "duration": 0.1348921875000002
        },
        {
          "name": "F#4",
          "midi": 66,
          "time": 55.485653125,
          "velocity": 0.952755905511811,
          "duration": 0.05395687499999724
        },
        {
          "name": "G#4",
          "midi": 68,
          "time": 55.6924878125,
          "velocity": 0.968503937007874,
          "duration": 0.09442453124999872
        },
        {
          "name": "F#4",
          "midi": 66,
          "time": 56.1241428125,
          "velocity": 0.968503937007874,
          "duration": 0.17985625000000027
        },
        {
          "name": "G#4",
          "midi": 68,
          "time": 56.3399703125,
          "velocity": 0.968503937007874,
          "duration": 0.0674460937500001
        },
        {
          "name": "G#4",
          "midi": 68,
          "time": 56.780618125000004,
          "velocity": 0.968503937007874,
          "duration": 0.22482031249999324
        },
        {
          "name": "F#4",
          "midi": 66,
          "time": 57.2032803125,
          "velocity": 0.952755905511811,
          "duration": 0.06294968750000152
        },
        {
          "name": "G#4",
          "midi": 68,
          "time": 57.41461140625,
          "velocity": 0.968503937007874,
          "duration": 0.07643890624999727
        },
        {
          "name": "F#4",
          "midi": 66,
          "time": 57.841770000000004,
          "velocity": 0.968503937007874,
          "duration": 0.17985625000000027
        },
        {
          "name": "D#4",
          "midi": 63,
          "time": 58.084575937500006,
          "velocity": 0.952755905511811,
          "duration": 0.05845328125000293
        },
        {
          "name": "G#4",
          "midi": 68,
          "time": 58.50723812500001,
          "velocity": 0.968503937007874,
          "duration": 0.07194249999999869
        },
        {
          "name": "F#4",
          "midi": 66,
          "time": 58.93889312500001,
          "velocity": 0.968503937007874,
          "duration": 0.0674460937500001
        },
        {
          "name": "G#4",
          "midi": 68,
          "time": 59.150224218750004,
          "velocity": 0.968503937007874,
          "duration": 0.08093531250000296
        },
        {
          "name": "F#4",
          "midi": 66,
          "time": 59.58187921875001,
          "velocity": 0.968503937007874,
          "duration": 0.2023382812500003
        },
        {
          "name": "G#4",
          "midi": 68,
          "time": 59.81569234375001,
          "velocity": 0.952755905511811,
          "duration": 0.06294968750000152
        },
        {
          "name": "G#4",
          "midi": 68,
          "time": 60.22936171875001,
          "velocity": 0.968503937007874,
          "duration": 0.10791375000000158
        },
        {
          "name": "F#4",
          "midi": 66,
          "time": 60.656520312500014,
          "velocity": 0.968503937007874,
          "duration": 0.0674460937500001
        },
        {
          "name": "G#4",
          "midi": 68,
          "time": 60.86785140625001,
          "velocity": 0.968503937007874,
          "duration": 0.08093531250000296
        },
        {
          "name": "F#4",
          "midi": 66,
          "time": 61.29501000000001,
          "velocity": 0.968503937007874,
          "duration": 0.09892093749999731
        },
        {
          "name": "G#4",
          "midi": 68,
          "time": 61.73565781250001,
          "velocity": 0.968503937007874,
          "duration": 0.09442453124999872
        },
        {
          "name": "F#4",
          "midi": 66,
          "time": 62.16731281250001,
          "velocity": 0.968503937007874,
          "duration": 0.19784187500000172
        },
        {
          "name": "D#4",
          "midi": 63,
          "time": 62.38763671875001,
          "velocity": 0.968503937007874,
          "duration": 0.05395687499999724
        },
        {
          "name": "D#4",
          "midi": 63,
          "time": 63.462277812500005,
          "velocity": 0.968503937007874,
          "duration": 0.0674460937500001
        },
        {
          "name": "F4",
          "midi": 65,
          "time": 63.893932812500005,
          "velocity": 0.952755905511811,
          "duration": 0.19784187500000172
        },
        {
          "name": "C#4",
          "midi": 61,
          "time": 64.11425671875,
          "velocity": 0.968503937007874,
          "duration": 0.0719425000000058
        },
        {
          "name": "F#4",
          "midi": 66,
          "time": 65.20688343750001,
          "velocity": 0.9606299212598425,
          "duration": 0.17535984374998748
        },
        {
          "name": "F#4",
          "midi": 66,
          "time": 65.61155999999998,
          "velocity": 0.968503937007874,
          "duration": 0.18435265624999886
        },
        {
          "name": "D#4",
          "midi": 63,
          "time": 65.83188390624998,
          "velocity": 0.968503937007874,
          "duration": 0.11241015624999307
        },
        {
          "name": "D#4",
          "midi": 63,
          "time": 66.92001421874998,
          "velocity": 0.968503937007874,
          "duration": 0.08093531250000296
        },
        {
          "name": "D#4",
          "midi": 63,
          "time": 67.33817999999998,
          "velocity": 0.968503937007874,
          "duration": 0.1708634375000031
        },
        {
          "name": "C#4",
          "midi": 61,
          "time": 67.57648953124998,
          "velocity": 0.968503937007874,
          "duration": 0.08543171875000155
        },
        {
          "name": "A#4",
          "midi": 70,
          "time": 69.29861312499997,
          "velocity": 0.9606299212598425,
          "duration": 0.05395687499999724
        },
        {
          "name": "G#4",
          "midi": 68,
          "time": 69.50544781249997,
          "velocity": 0.968503937007874,
          "duration": 0.12589937499998882
        },
        {
          "name": "A#4",
          "midi": 70,
          "time": 69.73026812499995,
          "velocity": 0.9606299212598425,
          "duration": 0.067446093749993
        },
        {
          "name": "A#4",
          "midi": 70,
          "time": 69.95508843749994,
          "velocity": 0.968503937007874,
          "duration": 0.06294968749999441
        },
        {
          "name": "A#4",
          "midi": 70,
          "time": 70.16192312499993,
          "velocity": 0.952755905511811,
          "duration": 0.07643890625000438
        },
        {
          "name": "G#4",
          "midi": 68,
          "time": 70.38224703124993,
          "velocity": 0.9606299212598425,
          "duration": 0.1753598437500017
        },
        {
          "name": "A#4",
          "midi": 70,
          "time": 70.59357812499994,
          "velocity": 0.9606299212598425,
          "duration": 0.09892093749999731
        },
        {
          "name": "C#5",
          "midi": 73,
          "time": 70.80041281249993,
          "velocity": 0.952755905511811,
          "duration": 0.11690656249999165
        },
        {
          "name": "A#4",
          "midi": 70,
          "time": 71.02523312499991,
          "velocity": 0.968503937007874,
          "duration": 0.07643890625000438
        },
        {
          "name": "G#4",
          "midi": 68,
          "time": 71.24555703124992,
          "velocity": 0.968503937007874,
          "duration": 0.08992812500000014
        },
        {
          "name": "A#4",
          "midi": 70,
          "time": 71.66821921874991,
          "velocity": 0.968503937007874,
          "duration": 0.32823765625001045
        },
        {
          "name": "A#4",
          "midi": 70,
          "time": 72.32019812499992,
          "velocity": 0.968503937007874,
          "duration": 0.06294968749999441
        },
        {
          "name": "G#4",
          "midi": 68,
          "time": 72.53602562499991,
          "velocity": 0.968503937007874,
          "duration": 0.15287781250000876
        },
        {
          "name": "A#4",
          "midi": 70,
          "time": 72.76084593749991,
          "velocity": 0.968503937007874,
          "duration": 0.058453281249995825
        },
        {
          "name": "A#4",
          "midi": 70,
          "time": 72.9721770312499,
          "velocity": 0.9606299212598425,
          "duration": 0.067446093749993
        },
        {
          "name": "A#4",
          "midi": 70,
          "time": 73.18350812499989,
          "velocity": 0.968503937007874,
          "duration": 0.08543171875000155
        },
        {
          "name": "G#4",
          "midi": 68,
          "time": 73.40383203124989,
          "velocity": 0.968503937007874,
          "duration": 0.1034173437499959
        },
        {
          "name": "A#4",
          "midi": 70,
          "time": 73.62415593749989,
          "velocity": 0.968503937007874,
          "duration": 0.08992812500000014
        },
        {
          "name": "G#4",
          "midi": 68,
          "time": 73.8354870312499,
          "velocity": 0.968503937007874,
          "duration": 0.16636703125000452
        },
        {
          "name": "F#4",
          "midi": 66,
          "time": 74.0468181249999,
          "velocity": 0.9606299212598425,
          "duration": 0.10791374999999448
        },
        {
          "name": "G#4",
          "midi": 68,
          "time": 74.2536528124999,
          "velocity": 0.968503937007874,
          "duration": 0.14388499999999738
        },
        {
          "name": "F#4",
          "midi": 66,
          "time": 74.4784731249999,
          "velocity": 0.968503937007874,
          "duration": 0.08093531250000296
        },
        {
          "name": "G#4",
          "midi": 68,
          "time": 74.7032934374999,
          "velocity": 0.968503937007874,
          "duration": 0.35071968749998916
        },
        {
          "name": "A#4",
          "midi": 70,
          "time": 75.76444531249989,
          "velocity": 0.968503937007874,
          "duration": 0.08543171875000155
        },
        {
          "name": "F#4",
          "midi": 66,
          "time": 75.98027281249989,
          "velocity": 0.968503937007874,
          "duration": 0.10791374999999448
        },
        {
          "name": "F#4",
          "midi": 66,
          "time": 76.20059671874988,
          "velocity": 0.968503937007874,
          "duration": 0.1034173437499959
        },
        {
          "name": "D#4",
          "midi": 63,
          "time": 76.41192781249987,
          "velocity": 0.937007874015748,
          "duration": 0.14388499999999738
        },
        {
          "name": "C#4",
          "midi": 61,
          "time": 76.63674812499987,
          "velocity": 0.968503937007874,
          "duration": 0.07643890625000438
        },
        {
          "name": "D#4",
          "midi": 63,
          "time": 76.85707203124987,
          "velocity": 0.968503937007874,
          "duration": 0.35971250000000055
        },
        {
          "name": "C#4",
          "midi": 61,
          "time": 77.28872703124988,
          "velocity": 0.968503937007874,
          "duration": 0.07643890625000438
        },
        {
          "name": "D#4",
          "midi": 63,
          "time": 77.50005812499988,
          "velocity": 0.968503937007874,
          "duration": 0.0719425000000058
        },
        {
          "name": "F4",
          "midi": 65,
          "time": 77.70689281249989,
          "velocity": 0.968503937007874,
          "duration": 0.1034173437499959
        },
        {
          "name": "D#4",
          "midi": 63,
          "time": 77.93620953124989,
          "velocity": 0.968503937007874,
          "duration": 0.08093531250000296
        },
        {
          "name": "C#4",
          "midi": 61,
          "time": 78.14754062499989,
          "velocity": 0.968503937007874,
          "duration": 0.1753598437500017
        },
        {
          "name": "A#3",
          "midi": 58,
          "time": 78.3633681249999,
          "velocity": 0.9448818897637795,
          "duration": 0.06294968749999441
        },
        {
          "name": "C#4",
          "midi": 61,
          "time": 78.57469921874988,
          "velocity": 0.968503937007874,
          "duration": 0.3507196875000034
        },
        {
          "name": "D#4",
          "midi": 63,
          "time": 79.00635421874989,
          "velocity": 0.968503937007874,
          "duration": 0.08992812500000014
        },
        {
          "name": "F#4",
          "midi": 66,
          "time": 79.4470020312499,
          "velocity": 0.968503937007874,
          "duration": 0.15737421874999313
        },
        {
          "name": "D#4",
          "midi": 63,
          "time": 79.66282953124988,
          "velocity": 0.968503937007874,
          "duration": 0.058453281249995825
        },
        {
          "name": "D#4",
          "midi": 63,
          "time": 80.72847781249988,
          "velocity": 0.968503937007874,
          "duration": 0.07643890625000438
        },
        {
          "name": "F4",
          "midi": 65,
          "time": 81.16013281249988,
          "velocity": 0.968503937007874,
          "duration": 0.19334546874999603
        },
        {
          "name": "C#4",
          "midi": 61,
          "time": 81.38944953124988,
          "velocity": 0.968503937007874,
          "duration": 0.0719425000000058
        },
        {
          "name": "A#4",
          "midi": 70,
          "time": 83.12056593749989,
          "velocity": 0.968503937007874,
          "duration": 0.08992812500000014
        },
        {
          "name": "G#4",
          "midi": 68,
          "time": 83.3363934374999,
          "velocity": 0.968503937007874,
          "duration": 0.12140296875000445
        },
        {
          "name": "A#4",
          "midi": 70,
          "time": 83.5477245312499,
          "velocity": 0.9606299212598425,
          "duration": 0.07643890625000438
        },
        {
          "name": "A#4",
          "midi": 70,
          "time": 83.7635520312499,
          "velocity": 0.937007874015748,
          "duration": 0.08093531250000296
        },
        {
          "name": "A#4",
          "midi": 70,
          "time": 83.9793795312499,
          "velocity": 0.9606299212598425,
          "duration": 0.1034173437499959
        },
        {
          "name": "G#4",
          "midi": 68,
          "time": 84.1907106249999,
          "velocity": 0.9291338582677166,
          "duration": 0.10791374999999448
        },
        {
          "name": "A#4",
          "midi": 70,
          "time": 84.40653812499988,
          "velocity": 0.9606299212598425,
          "duration": 0.07643890625000438
        },
        {
          "name": "C#5",
          "midi": 73,
          "time": 84.61337281249989,
          "velocity": 0.952755905511811,
          "duration": 0.12589937500000303
        },
        {
          "name": "A#4",
          "midi": 70,
          "time": 84.83369671874989,
          "velocity": 0.968503937007874,
          "duration": 0.08093531250000296
        },
        {
          "name": "G#4",
          "midi": 68,
          "time": 85.06301343749989,
          "velocity": 0.968503937007874,
          "duration": 0.09892093749999731
        },
        {
          "name": "A#4",
          "midi": 70,
          "time": 85.47668281249989,
          "velocity": 0.968503937007874,
          "duration": 0.3102520312500019
        },
        {
          "name": "A#4",
          "midi": 70,
          "time": 86.12416531249988,
          "velocity": 0.9606299212598425,
          "duration": 0.067446093749993
        },
        {
          "name": "G#4",
          "midi": 68,
          "time": 86.33999281249987,
          "velocity": 0.968503937007874,
          "duration": 0.13039578125000162
        },
        {
          "name": "A#4",
          "midi": 70,
          "time": 86.55582031249988,
          "velocity": 0.968503937007874,
          "duration": 0.08093531250000296
        },
        {
          "name": "A#4",
          "midi": 70,
          "time": 86.77614421874988,
          "velocity": 0.9606299212598425,
          "duration": 0.067446093749993
        },
        {
          "name": "A#4",
          "midi": 70,
          "time": 86.99197171874987,
          "velocity": 0.937007874015748,
          "duration": 0.09892093749999731
        },
        {
          "name": "G#4",
          "midi": 68,
          "time": 87.20330281249986,
          "velocity": 0.968503937007874,
          "duration": 0.09892093749999731
        },
        {
          "name": "A#4",
          "midi": 70,
          "time": 87.41913031249986,
          "velocity": 0.9606299212598425,
          "duration": 0.08543171875000155
        },
        {
          "name": "G#4",
          "midi": 68,
          "time": 87.63945421874986,
          "velocity": 0.968503937007874,
          "duration": 0.1393885937499988
        },
        {
          "name": "F#4",
          "midi": 66,
          "time": 87.85078531249987,
          "velocity": 0.952755905511811,
          "duration": 0.08093531250000296
        },
        {
          "name": "G#4",
          "midi": 68,
          "time": 88.07560562499987,
          "velocity": 0.968503937007874,
          "duration": 0.206834687500006
        },
        {
          "name": "F#4",
          "midi": 66,
          "time": 88.28693671874987,
          "velocity": 0.968503937007874,
          "duration": 0.12140296875000445
        },
        {
          "name": "G#4",
          "midi": 68,
          "time": 88.50726062499987,
          "velocity": 0.968503937007874,
          "duration": 0.3687053124999977
        },
        {
          "name": "A#4",
          "midi": 70,
          "time": 89.57290890624986,
          "velocity": 0.968503937007874,
          "duration": 0.08992812500000014
        },
        {
          "name": "F#4",
          "midi": 66,
          "time": 89.78423999999987,
          "velocity": 0.968503937007874,
          "duration": 0.12140296875000445
        },
        {
          "name": "F#4",
          "midi": 66,
          "time": 90.00906031249987,
          "velocity": 0.968503937007874,
          "duration": 0.09442453124999872
        },
        {
          "name": "D#4",
          "midi": 63,
          "time": 90.22488781249987,
          "velocity": 0.9606299212598425,
          "duration": 0.1753598437500017
        },
        {
          "name": "C#4",
          "midi": 61,
          "time": 90.44071531249988,
          "velocity": 0.9448818897637795,
          "duration": 0.10791374999999448
        },
        {
          "name": "D#4",
          "midi": 63,
          "time": 90.65654281249986,
          "velocity": 0.968503937007874,
          "duration": 0.39118734374999065
        },
        {
          "name": "C#4",
          "midi": 61,
          "time": 91.09269421874986,
          "velocity": 0.9606299212598425,
          "duration": 0.09442453124999872
        },
        {
          "name": "D#4",
          "midi": 63,
          "time": 91.31301812499986,
          "velocity": 0.952755905511811,
          "duration": 0.067446093749993
        },
        {
          "name": "D#4",
          "midi": 63,
          "time": 91.51985281249985,
          "velocity": 0.968503937007874,
          "duration": 0.11690656249999165
        },
        {
          "name": "D#4",
          "midi": 63,
          "time": 91.75366593749985,
          "velocity": 0.968503937007874,
          "duration": 0.08992812500000014
        },
        {
          "name": "C#4",
          "midi": 61,
          "time": 91.96949343749985,
          "velocity": 0.968503937007874,
          "duration": 0.16187062500000593
        },
        {
          "name": "A#3",
          "midi": 58,
          "time": 92.17183171874986,
          "velocity": 0.937007874015748,
          "duration": 0.08992812500000014
        },
        {
          "name": "C#4",
          "midi": 61,
          "time": 92.38765921874986,
          "velocity": 0.968503937007874,
          "duration": 0.3462232812499906
        },
        {
          "name": "D#4",
          "midi": 63,
          "time": 92.81481781249985,
          "velocity": 0.968503937007874,
          "duration": 0.1348921875000002
        },
        {
          "name": "F#4",
          "midi": 66,
          "time": 93.24647281249986,
          "velocity": 0.968503937007874,
          "duration": 0.17985625000000027
        },
        {
          "name": "D#4",
          "midi": 63,
          "time": 93.47129312499986,
          "velocity": 0.9606299212598425,
          "duration": 0.05395687499999724
        },
        {
          "name": "A#4",
          "midi": 70,
          "time": 94.55043062499986,
          "velocity": 0.968503937007874,
          "duration": 0.07643890625000438
        },
        {
          "name": "A#4",
          "midi": 70,
          "time": 94.77075453124986,
          "velocity": 0.9606299212598425,
          "duration": 0.06294968749999441
        },
        {
          "name": "C#5",
          "midi": 73,
          "time": 94.97758921874986,
          "velocity": 0.968503937007874,
          "duration": 0.10791374999999448
        },
        {
          "name": "A#4",
          "midi": 70,
          "time": 95.20240953124986,
          "velocity": 0.968503937007874,
          "duration": 0.09442453124999872
        },
        {
          "name": "G#4",
          "midi": 68,
          "time": 95.41823703124986,
          "velocity": 0.968503937007874,
          "duration": 0.13039578125000162
        },
        {
          "name": "A#4",
          "midi": 70,
          "time": 95.83640281249986,
          "velocity": 0.968503937007874,
          "duration": 0.28327359374999617
        },
        {
          "name": "G#4",
          "midi": 68,
          "time": 96.26805781249985,
          "velocity": 0.968503937007874,
          "duration": 0.14388499999999738
        },
        {
          "name": "A#4",
          "midi": 70,
          "time": 96.70870562499985,
          "velocity": 0.968503937007874,
          "duration": 0.15737421874999313
        },
        {
          "name": "A#4",
          "midi": 70,
          "time": 96.92902953124984,
          "velocity": 0.968503937007874,
          "duration": 0.5170867187499795
        },
        {
          "name": "A#4",
          "midi": 70,
          "time": 98.42633281249982,
          "velocity": 0.968503937007874,
          "duration": 0.16187062500000593
        },
        {
          "name": "A#4",
          "midi": 70,
          "time": 98.64216031249983,
          "velocity": 0.9606299212598425,
          "duration": 0.5035974999999553
        },
        {
          "name": "A#4",
          "midi": 70,
          "time": 99.95061453124977,
          "velocity": 0.968503937007874,
          "duration": 0.29226640624999334
        },
        {
          "name": "A#4",
          "midi": 70,
          "time": 100.36878031249977,
          "velocity": 0.968503937007874,
          "duration": 0.0719425000000058
        },
        {
          "name": "A#4",
          "midi": 70,
          "time": 100.58460781249977,
          "velocity": 0.968503937007874,
          "duration": 0.058453281249995825
        },
        {
          "name": "A#4",
          "midi": 70,
          "time": 100.80043531249976,
          "velocity": 0.952755905511811,
          "duration": 0.05395687499999724
        },
        {
          "name": "C#5",
          "midi": 73,
          "time": 101.01626281249976,
          "velocity": 0.968503937007874,
          "duration": 0.3102520312500019
        },
        {
          "name": "A#4",
          "midi": 70,
          "time": 101.44342140624977,
          "velocity": 0.952755905511811,
          "duration": 0.04046765625000148
        },
        {
          "name": "C#5",
          "midi": 73,
          "time": 101.67273812499977,
          "velocity": 0.968503937007874,
          "duration": 0.28777000000000896
        },
        {
          "name": "A#4",
          "midi": 70,
          "time": 102.09540031249978,
          "velocity": 0.968503937007874,
          "duration": 0.05395687499999724
        },
        {
          "name": "G#4",
          "midi": 68,
          "time": 103.38586890624977,
          "velocity": 0.968503937007874,
          "duration": 0.1753598437500017
        },
        {
          "name": "F#4",
          "midi": 66,
          "time": 103.84000593749977,
          "velocity": 0.9606299212598425,
          "duration": 0.0719425000000058
        },
        {
          "name": "G#4",
          "midi": 68,
          "time": 104.03335140624978,
          "velocity": 0.968503937007874,
          "duration": 0.08543171875000155
        },
        {
          "name": "F#4",
          "midi": 66,
          "time": 104.46950281249978,
          "velocity": 0.968503937007874,
          "duration": 0.1393885937499988
        },
        {
          "name": "G#4",
          "midi": 68,
          "time": 104.69432312499978,
          "velocity": 0.9606299212598425,
          "duration": 0.058453281249995825
        },
        {
          "name": "G#4",
          "midi": 68,
          "time": 105.13497093749977,
          "velocity": 0.968503937007874,
          "duration": 0.3102520312500019
        },
        {
          "name": "F#4",
          "midi": 66,
          "time": 105.56212953124978,
          "velocity": 0.952755905511811,
          "duration": 0.058453281249995825
        },
        {
          "name": "G#4",
          "midi": 68,
          "time": 105.76446781249977,
          "velocity": 0.968503937007874,
          "duration": 0.1034173437499959
        },
        {
          "name": "F#4",
          "midi": 66,
          "time": 106.19612281249977,
          "velocity": 0.9606299212598425,
          "duration": 0.11690656250000586
        },
        {
          "name": "D#4",
          "midi": 63,
          "time": 106.41644671874977,
          "velocity": 0.968503937007874,
          "duration": 0.04046765625000148
        },
        {
          "name": "G#4",
          "midi": 68,
          "time": 106.85259812499977,
          "velocity": 0.968503937007874,
          "duration": 0.1348921875000002
        },
        {
          "name": "F#4",
          "midi": 66,
          "time": 107.28874953124978,
          "velocity": 0.968503937007874,
          "duration": 0.08093531250000296
        },
        {
          "name": "G#4",
          "midi": 68,
          "time": 107.49558421874978,
          "velocity": 0.968503937007874,
          "duration": 0.12589937500000303
        },
        {
          "name": "F#4",
          "midi": 66,
          "time": 107.93173562499979,
          "velocity": 0.968503937007874,
          "duration": 0.14388499999999738
        },
        {
          "name": "G#4",
          "midi": 68,
          "time": 108.14756312499979,
          "velocity": 0.9606299212598425,
          "duration": 0.058453281249995825
        },
        {
          "name": "G#4",
          "midi": 68,
          "time": 108.57921812499978,
          "velocity": 0.968503937007874,
          "duration": 0.1708634374999889
        },
        {
          "name": "F#4",
          "midi": 66,
          "time": 109.00637671874978,
          "velocity": 0.952755905511811,
          "duration": 0.07643890625000438
        },
        {
          "name": "G#4",
          "midi": 68,
          "time": 109.21770781249978,
          "velocity": 0.968503937007874,
          "duration": 0.1034173437499959
        },
        {
          "name": "F#4",
          "midi": 66,
          "time": 109.64936281249977,
          "velocity": 0.968503937007874,
          "duration": 0.12140296875000445
        },
        {
          "name": "G#4",
          "midi": 68,
          "time": 110.07652140624978,
          "velocity": 0.968503937007874,
          "duration": 0.1034173437499959
        },
        {
          "name": "A#4",
          "midi": 70,
          "time": 110.51267281249977,
          "velocity": 0.968503937007874,
          "duration": 0.15287781249999455
        },
        {
          "name": "A#4",
          "midi": 70,
          "time": 110.73749312499977,
          "velocity": 0.968503937007874,
          "duration": 0.481115468750005
        },
        {
          "name": "A#4",
          "midi": 70,
          "time": 112.23929281249977,
          "velocity": 0.9606299212598425,
          "duration": 0.2338131249999975
        },
        {
          "name": "A#4",
          "midi": 70,
          "time": 112.47310593749977,
          "velocity": 0.9606299212598425,
          "duration": 0.004496406249998586
        },
        {
          "name": "A#4",
          "midi": 70,
          "time": 113.75907812499975,
          "velocity": 0.968503937007874,
          "duration": 0.3462232812499906
        },
        {
          "name": "A#4",
          "midi": 70,
          "time": 114.19522953124974,
          "velocity": 0.9606299212598425,
          "duration": 0.049460468749998654
        },
        {
          "name": "A#4",
          "midi": 70,
          "time": 114.40206421874973,
          "velocity": 0.968503937007874,
          "duration": 0.067446093749993
        },
        {
          "name": "A#4",
          "midi": 70,
          "time": 114.62238812499972,
          "velocity": 0.952755905511811,
          "duration": 0.04046765625000148
        },
        {
          "name": "C#5",
          "midi": 73,
          "time": 114.82922281249972,
          "velocity": 0.968503937007874,
          "duration": 0.3012592187500047
        },
        {
          "name": "A#4",
          "midi": 70,
          "time": 115.26087781249973,
          "velocity": 0.9606299212598425,
          "duration": 0.05395687499999724
        },
        {
          "name": "C#5",
          "midi": 73,
          "time": 115.48569812499973,
          "velocity": 0.968503937007874,
          "duration": 0.3102520312500019
        },
        {
          "name": "A#4",
          "midi": 70,
          "time": 115.91285671874974,
          "velocity": 0.968503937007874,
          "duration": 0.08992812500000014
        },
        {
          "name": "G#4",
          "midi": 68,
          "time": 117.20782171874974,
          "velocity": 0.968503937007874,
          "duration": 0.16636703125000452
        },
        {
          "name": "F#4",
          "midi": 66,
          "time": 117.63947671874975,
          "velocity": 0.968503937007874,
          "duration": 0.07643890625000438
        },
        {
          "name": "G#4",
          "midi": 68,
          "time": 117.85080781249975,
          "velocity": 0.968503937007874,
          "duration": 0.10791374999999448
        },
        {
          "name": "F#4",
          "midi": 66,
          "time": 118.29145562499974,
          "velocity": 0.968503937007874,
          "duration": 0.17985625000000027
        },
        {
          "name": "G#4",
          "midi": 68,
          "time": 118.50728312499974,
          "velocity": 0.9606299212598425,
          "duration": 0.058453281249995825
        },
        {
          "name": "G#4",
          "midi": 68,
          "time": 118.94793093749975,
          "velocity": 0.968503937007874,
          "duration": 0.1708634375000173
        }
      ],
      "controlChanges": {
        "1": [
          {
            "number": 1,
            "time": 28.543186875000014,
            "value": 0.9606299212598425
          },
          {
            "number": 1,
            "time": 28.705057500000013,
            "value": 0.968503937007874
          },
          {
            "number": 1,
            "time": 28.759014375000014,
            "value": 0.952755905511811
          },
          {
            "number": 1,
            "time": 28.808474843750012,
            "value": 0.2992125984251969
          },
          {
            "number": 1,
            "time": 28.83545328125001,
            "value": 0
          },
          {
            "number": 1,
            "time": 30.256317656250015,
            "value": 0.7637795275590551
          },
          {
            "number": 1,
            "time": 30.287792500000016,
            "value": 0.9212598425196851
          },
          {
            "number": 1,
            "time": 30.350742187500018,
            "value": 0.937007874015748
          },
          {
            "number": 1,
            "time": 30.50362000000002,
            "value": 0.8503937007874016
          },
          {
            "number": 1,
            "time": 30.53509484375002,
            "value": 0
          },
          {
            "number": 1,
            "time": 37.176286875,
            "value": 0.937007874015748
          },
          {
            "number": 1,
            "time": 37.2212509375,
            "value": 0.9606299212598425
          },
          {
            "number": 1,
            "time": 37.3111790625,
            "value": 0.968503937007874
          },
          {
            "number": 1,
            "time": 37.4011071875,
            "value": 0.9606299212598425
          },
          {
            "number": 1,
            "time": 37.441574843750004,
            "value": 0.7795275590551181
          },
          {
            "number": 1,
            "time": 37.486538906250004,
            "value": 0
          },
          {
            "number": 1,
            "time": 42.360643281250006,
            "value": 0.007874015748031496
          },
          {
            "number": 1,
            "time": 42.392118125,
            "value": 0.9448818897637795
          },
          {
            "number": 1,
            "time": 42.495535468750006,
            "value": 0.952755905511811
          },
          {
            "number": 1,
            "time": 42.589960000000005,
            "value": 0.9291338582677166
          },
          {
            "number": 1,
            "time": 42.62143484375,
            "value": 0.14960629921259844
          },
          {
            "number": 1,
            "time": 42.64841328125,
            "value": 0
          },
          {
            "number": 1,
            "time": 44.132227343749996,
            "value": 0.9448818897637795
          },
          {
            "number": 1,
            "time": 44.21316265625,
            "value": 0.952755905511811
          },
          {
            "number": 1,
            "time": 44.25812671875,
            "value": 0.9606299212598425
          },
          {
            "number": 1,
            "time": 44.370536875,
            "value": 0.937007874015748
          },
          {
            "number": 1,
            "time": 44.406508125,
            "value": 0.2440944881889764
          },
          {
            "number": 1,
            "time": 44.4514721875,
            "value": 0
          },
          {
            "number": 1,
            "time": 47.47305718750001,
            "value": 0.14960629921259844
          },
          {
            "number": 1,
            "time": 47.50902843750001,
            "value": 0.9291338582677166
          },
          {
            "number": 1,
            "time": 47.57197812500001,
            "value": 0.9606299212598425
          },
          {
            "number": 1,
            "time": 47.69787750000001,
            "value": 0.968503937007874
          },
          {
            "number": 1,
            "time": 47.756330781250014,
            "value": 0.889763779527559
          },
          {
            "number": 1,
            "time": 47.81028765625001,
            "value": 0
          },
          {
            "number": 1,
            "time": 48.68259046875001,
            "value": 0.905511811023622
          },
          {
            "number": 1,
            "time": 48.72755453125001,
            "value": 0.9291338582677166
          },
          {
            "number": 1,
            "time": 48.77251859375001,
            "value": 0.9448818897637795
          },
          {
            "number": 1,
            "time": 49.01532453125001,
            "value": 0.937007874015748
          },
          {
            "number": 1,
            "time": 49.06028859375001,
            "value": 0.9291338582677166
          },
          {
            "number": 1,
            "time": 49.10525265625001,
            "value": 0.7952755905511811
          },
          {
            "number": 1,
            "time": 49.12773468750001,
            "value": 0
          },
          {
            "number": 1,
            "time": 50.161908125000004,
            "value": 0.1968503937007874
          },
          {
            "number": 1,
            "time": 50.1888865625,
            "value": 0.31496062992125984
          },
          {
            "number": 1,
            "time": 50.23834703125,
            "value": 0
          },
          {
            "number": 1,
            "time": 50.386728437500004,
            "value": 0.1732283464566929
          },
          {
            "number": 1,
            "time": 50.409210468750004,
            "value": 0.7244094488188977
          },
          {
            "number": 1,
            "time": 50.43618890625,
            "value": 0.8503937007874016
          },
          {
            "number": 1,
            "time": 50.4586709375,
            "value": 0.937007874015748
          },
          {
            "number": 1,
            "time": 50.5485990625,
            "value": 0.9448818897637795
          },
          {
            "number": 1,
            "time": 50.68349125,
            "value": 0.9212598425196851
          },
          {
            "number": 1,
            "time": 50.746440937500005,
            "value": 0.9133858267716536
          },
          {
            "number": 1,
            "time": 50.768922968750005,
            "value": 0.5748031496062992
          },
          {
            "number": 1,
            "time": 50.791405000000005,
            "value": 0
          },
          {
            "number": 1,
            "time": 51.67719703125,
            "value": 0.8582677165354331
          },
          {
            "number": 1,
            "time": 51.6996790625,
            "value": 0.9448818897637795
          },
          {
            "number": 1,
            "time": 51.74913953125,
            "value": 0.937007874015748
          },
          {
            "number": 1,
            "time": 51.83906765625,
            "value": 0.9448818897637795
          },
          {
            "number": 1,
            "time": 51.88403171875,
            "value": 0.8818897637795275
          },
          {
            "number": 1,
            "time": 51.92899578125,
            "value": 0.4015748031496063
          },
          {
            "number": 1,
            "time": 51.9514778125,
            "value": 0
          },
          {
            "number": 1,
            "time": 52.733852500000005,
            "value": 0.031496062992125984
          },
          {
            "number": 1,
            "time": 52.7608309375,
            "value": 0.9606299212598425
          },
          {
            "number": 1,
            "time": 52.985651250000004,
            "value": 0.8740157480314961
          },
          {
            "number": 1,
            "time": 53.0126296875,
            "value": 0
          },
          {
            "number": 1,
            "time": 53.39482421875,
            "value": 0.5354330708661418
          },
          {
            "number": 1,
            "time": 53.4262990625,
            "value": 0.9448818897637795
          },
          {
            "number": 1,
            "time": 53.49374515625,
            "value": 0.9606299212598425
          },
          {
            "number": 1,
            "time": 53.56119125,
            "value": 0.952755905511811
          },
          {
            "number": 1,
            "time": 53.615148125,
            "value": 0
          },
          {
            "number": 1,
            "time": 56.825582187500004,
            "value": 0.49606299212598426
          },
          {
            "number": 1,
            "time": 56.85705703125,
            "value": 0.7086614173228346
          },
          {
            "number": 1,
            "time": 56.888531875,
            "value": 0.8740157480314961
          },
          {
            "number": 1,
            "time": 56.94698515625,
            "value": 0.7874015748031497
          },
          {
            "number": 1,
            "time": 56.97846,
            "value": 0
          },
          {
            "number": 1,
            "time": 60.287815000000016,
            "value": 0.4409448818897638
          },
          {
            "number": 1,
            "time": 60.337275468750015,
            "value": 0.7401574803149606
          },
          {
            "number": 1,
            "time": 60.39123234375001,
            "value": 0
          },
          {
            "number": 1,
            "time": 71.69519765624992,
            "value": 0.11023622047244094
          },
          {
            "number": 1,
            "time": 71.74465812499992,
            "value": 0.9606299212598425
          },
          {
            "number": 1,
            "time": 71.78962218749992,
            "value": 0.905511811023622
          },
          {
            "number": 1,
            "time": 71.83908265624991,
            "value": 0.952755905511811
          },
          {
            "number": 1,
            "time": 71.88404671874991,
            "value": 0.9606299212598425
          },
          {
            "number": 1,
            "time": 71.92901078124991,
            "value": 0.9448818897637795
          },
          {
            "number": 1,
            "time": 71.96947843749992,
            "value": 0.8503937007874016
          },
          {
            "number": 1,
            "time": 72.01444249999992,
            "value": 0
          },
          {
            "number": 1,
            "time": 76.91552531249987,
            "value": 0.25984251968503935
          },
          {
            "number": 1,
            "time": 76.96048937499987,
            "value": 0.968503937007874
          },
          {
            "number": 1,
            "time": 77.00545343749987,
            "value": 0.952755905511811
          },
          {
            "number": 1,
            "time": 77.05041749999987,
            "value": 0.968503937007874
          },
          {
            "number": 1,
            "time": 77.13135281249987,
            "value": 0.952755905511811
          },
          {
            "number": 1,
            "time": 77.16732406249987,
            "value": 0.7244094488188977
          },
          {
            "number": 1,
            "time": 77.20329531249988,
            "value": 0
          },
          {
            "number": 1,
            "time": 78.65113812499989,
            "value": 0.9606299212598425
          },
          {
            "number": 1,
            "time": 78.69610218749989,
            "value": 0.952755905511811
          },
          {
            "number": 1,
            "time": 78.79052671874989,
            "value": 0.9606299212598425
          },
          {
            "number": 1,
            "time": 78.88495124999989,
            "value": 0.8818897637795275
          },
          {
            "number": 1,
            "time": 78.92541890624989,
            "value": 0
          },
          {
            "number": 1,
            "time": 85.5036612499999,
            "value": 0.10236220472440945
          },
          {
            "number": 1,
            "time": 85.55312171874989,
            "value": 0.9606299212598425
          },
          {
            "number": 1,
            "time": 85.59808578124989,
            "value": 0.952755905511811
          },
          {
            "number": 1,
            "time": 85.73747437499989,
            "value": 0.9133858267716536
          },
          {
            "number": 1,
            "time": 85.78243843749989,
            "value": 0.15748031496062992
          },
          {
            "number": 1,
            "time": 85.83189890624989,
            "value": 0
          },
          {
            "number": 1,
            "time": 90.67452843749986,
            "value": 0.13385826771653545
          },
          {
            "number": 1,
            "time": 90.71949249999986,
            "value": 0.9606299212598425
          },
          {
            "number": 1,
            "time": 90.91733437499985,
            "value": 0.952755905511811
          },
          {
            "number": 1,
            "time": 90.95330562499986,
            "value": 0.7874015748031497
          },
          {
            "number": 1,
            "time": 90.98927687499986,
            "value": 0
          },
          {
            "number": 1,
            "time": 92.43711968749986,
            "value": 0.937007874015748
          },
          {
            "number": 1,
            "time": 92.48208374999986,
            "value": 0.9606299212598425
          },
          {
            "number": 1,
            "time": 92.53154421874986,
            "value": 0.952755905511811
          },
          {
            "number": 1,
            "time": 92.57650828124986,
            "value": 0.9606299212598425
          },
          {
            "number": 1,
            "time": 92.62596874999986,
            "value": 0.9291338582677166
          },
          {
            "number": 1,
            "time": 92.67093281249986,
            "value": 0.4881889763779528
          },
          {
            "number": 1,
            "time": 92.71589687499986,
            "value": 0
          },
          {
            "number": 1,
            "time": 95.88136687499986,
            "value": 0.952755905511811
          },
          {
            "number": 1,
            "time": 95.94881296874985,
            "value": 0.9448818897637795
          },
          {
            "number": 1,
            "time": 96.02075546874985,
            "value": 0.9291338582677166
          },
          {
            "number": 1,
            "time": 96.08370515624985,
            "value": 0.8110236220472441
          },
          {
            "number": 1,
            "time": 96.11068359374985,
            "value": 0
          },
          {
            "number": 1,
            "time": 97.12237499999983,
            "value": 0.18110236220472442
          },
          {
            "number": 1,
            "time": 97.14485703124983,
            "value": 0.6614173228346457
          },
          {
            "number": 1,
            "time": 97.18982109374983,
            "value": 0.6220472440944882
          },
          {
            "number": 1,
            "time": 97.23478515624983,
            "value": 0.7716535433070866
          },
          {
            "number": 1,
            "time": 97.32021687499983,
            "value": 0.7086614173228346
          },
          {
            "number": 1,
            "time": 97.36518093749983,
            "value": 0.6535433070866141
          },
          {
            "number": 1,
            "time": 97.40564859374983,
            "value": 0.5669291338582677
          },
          {
            "number": 1,
            "time": 97.42813062499982,
            "value": 0.23622047244094488
          },
          {
            "number": 1,
            "time": 97.45061265624982,
            "value": 0
          },
          {
            "number": 1,
            "time": 98.79054171874982,
            "value": 0.007874015748031496
          },
          {
            "number": 1,
            "time": 98.81302374999981,
            "value": 0.2125984251968504
          },
          {
            "number": 1,
            "time": 98.86248421874981,
            "value": 0.25984251968503935
          },
          {
            "number": 1,
            "time": 98.8849662499998,
            "value": 0.07086614173228346
          },
          {
            "number": 1,
            "time": 98.9299303124998,
            "value": 0.13385826771653545
          },
          {
            "number": 1,
            "time": 98.9524123437498,
            "value": 0.25196850393700787
          },
          {
            "number": 1,
            "time": 99.0018728124998,
            "value": 0.2440944881889764
          },
          {
            "number": 1,
            "time": 99.0468368749998,
            "value": 0.2992125984251969
          },
          {
            "number": 1,
            "time": 99.0918009374998,
            "value": 0.2204724409448819
          },
          {
            "number": 1,
            "time": 99.11428296874979,
            "value": 0.07874015748031496
          },
          {
            "number": 1,
            "time": 99.13676499999978,
            "value": 0
          },
          {
            "number": 1,
            "time": 101.75816984374977,
            "value": 0.23622047244094488
          },
          {
            "number": 1,
            "time": 101.79414109374977,
            "value": 0.023622047244094488
          },
          {
            "number": 1,
            "time": 101.83460874999977,
            "value": 0.11811023622047244
          },
          {
            "number": 1,
            "time": 101.87057999999978,
            "value": 0.8110236220472441
          },
          {
            "number": 1,
            "time": 101.94701890624978,
            "value": 0.5511811023622047
          },
          {
            "number": 1,
            "time": 101.99198296874978,
            "value": 0
          },
          {
            "number": 1,
            "time": 110.88587453124977,
            "value": 0.7952755905511811
          },
          {
            "number": 1,
            "time": 110.97580265624977,
            "value": 0.8346456692913385
          },
          {
            "number": 1,
            "time": 111.02526312499977,
            "value": 0.8740157480314961
          },
          {
            "number": 1,
            "time": 111.07022718749977,
            "value": 0.8503937007874016
          },
          {
            "number": 1,
            "time": 111.15116249999977,
            "value": 0.84251968503937
          },
          {
            "number": 1,
            "time": 111.19163015624977,
            "value": 0.29133858267716534
          },
          {
            "number": 1,
            "time": 111.23209781249977,
            "value": 0
          },
          {
            "number": 1,
            "time": 112.81483281249976,
            "value": 0.25196850393700787
          },
          {
            "number": 1,
            "time": 112.83731484374975,
            "value": 0.4015748031496063
          },
          {
            "number": 1,
            "time": 112.86429328124976,
            "value": 0.5196850393700787
          },
          {
            "number": 1,
            "time": 112.88677531249975,
            "value": 0.6220472440944882
          },
          {
            "number": 1,
            "time": 112.94073218749975,
            "value": 0.6377952755905512
          },
          {
            "number": 1,
            "time": 112.96321421874974,
            "value": 0.16535433070866143
          },
          {
            "number": 1,
            "time": 112.99019265624975,
            "value": 0
          },
          {
            "number": 1,
            "time": 119.13677999999976,
            "value": 0
          }
        ],
        "5": [
          {
            "number": 5,
            "time": 0,
            "value": 0.07874015748031496
          },
          {
            "number": 5,
            "time": 119.13677999999976,
            "value": 0.07874015748031496
          }
        ],
        "7": [
          {
            "number": 7,
            "time": 0,
            "value": 1
          },
          {
            "number": 7,
            "time": 0,
            "value": 1
          }
        ],
        "10": [
          {
            "number": 10,
            "time": 0,
            "value": 0.5039370078740157
          },
          {
            "number": 10,
            "time": 119.13677999999976,
            "value": 0.5039370078740157
          }
        ],
        "11": [
          {
            "number": 11,
            "time": 0,
            "value": 1
          },
          {
            "number": 11,
            "time": 119.13677999999976,
            "value": 0
          }
        ],
        "32": [
          {
            "number": 32,
            "time": 0,
            "value": 0
          },
          {
            "number": 32,
            "time": 0,
            "value": 0
          },
          {
            "number": 32,
            "time": 119.13677999999976,
            "value": 0
          }
        ],
        "65": [
          {
            "number": 65,
            "time": 0,
            "value": 1
          }
        ],
        "91": [
          {
            "number": 91,
            "time": 0,
            "value": 0.6299212598425197
          },
          {
            "number": 91,
            "time": 119.13677999999976,
            "value": 0.7874015748031497
          }
        ],
        "93": [
          {
            "number": 93,
            "time": 0,
            "value": 0.15748031496062992
          }
        ]
      },
      "id": 4,
      "name": "Untitled",
      "instrumentNumber": 87,
      "instrument": "lead 8 (bass + lead)",
      "instrumentFamily": "synth lead",
      "channelNumber": 3,
      "isPercussion": false
    },
    {
      "startTime": 6.6906525,
      "duration": 119.32562906249977,
      "length": 339,
      "notes": [
        {
          "name": "D#2",
          "midi": 39,
          "time": 6.6906525,
          "velocity": 0.9763779527559056,
          "duration": 0.4226621875000003
        },
        {
          "name": "F#2",
          "midi": 42,
          "time": 7.1223075,
          "velocity": 0.9763779527559056,
          "duration": 0.21133109375000014
        },
        {
          "name": "A#2",
          "midi": 46,
          "time": 7.338135,
          "velocity": 0.9763779527559056,
          "duration": 0.21133109375000014
        },
        {
          "name": "F#3",
          "midi": 54,
          "time": 7.553962500000001,
          "velocity": 0.9763779527559056,
          "duration": 0.21133109375000014
        },
        {
          "name": "D#3",
          "midi": 51,
          "time": 7.769790000000001,
          "velocity": 0.9763779527559056,
          "duration": 0.6339932812499987
        },
        {
          "name": "F3",
          "midi": 53,
          "time": 8.41277609375,
          "velocity": 0.9763779527559056,
          "duration": 0.409172968750001
        },
        {
          "name": "D#3",
          "midi": 51,
          "time": 8.848927500000002,
          "velocity": 0.9763779527559056,
          "duration": 0.2023382812500003
        },
        {
          "name": "C#3",
          "midi": 49,
          "time": 9.064755000000002,
          "velocity": 0.9763779527559056,
          "duration": 0.17086343749999955
        },
        {
          "name": "C#3",
          "midi": 49,
          "time": 9.496410000000001,
          "velocity": 0.9763779527559056,
          "duration": 0.17985625000000027
        },
        {
          "name": "D#2",
          "midi": 39,
          "time": 10.143892500000002,
          "velocity": 0.9763779527559056,
          "duration": 0.4226621875000003
        },
        {
          "name": "F#2",
          "midi": 42,
          "time": 10.575547500000003,
          "velocity": 0.9763779527559056,
          "duration": 0.20683468750000067
        },
        {
          "name": "A#2",
          "midi": 46,
          "time": 10.791375000000004,
          "velocity": 0.9763779527559056,
          "duration": 0.20683468750000067
        },
        {
          "name": "F#3",
          "midi": 54,
          "time": 11.007202500000005,
          "velocity": 0.9763779527559056,
          "duration": 0.20683468750000067
        },
        {
          "name": "D#3",
          "midi": 51,
          "time": 11.223030000000007,
          "velocity": 0.9763779527559056,
          "duration": 0.6339932812499995
        },
        {
          "name": "F3",
          "midi": 53,
          "time": 11.866016093750007,
          "velocity": 0.9763779527559056,
          "duration": 0.42715859375000065
        },
        {
          "name": "D#3",
          "midi": 51,
          "time": 12.302167500000008,
          "velocity": 0.9763779527559056,
          "duration": 0.18884906249999922
        },
        {
          "name": "C#3",
          "midi": 49,
          "time": 12.517995000000008,
          "velocity": 0.9763779527559056,
          "duration": 0.18435265625000063
        },
        {
          "name": "D#2",
          "midi": 39,
          "time": 13.59713250000001,
          "velocity": 0.9763779527559056,
          "duration": 0.42715859375000065
        },
        {
          "name": "F#2",
          "midi": 42,
          "time": 14.02878750000001,
          "velocity": 0.9763779527559056,
          "duration": 0.21133109374999925
        },
        {
          "name": "A#2",
          "midi": 46,
          "time": 14.24461500000001,
          "velocity": 0.9763779527559056,
          "duration": 0.21133109374999925
        },
        {
          "name": "F#3",
          "midi": 54,
          "time": 14.46044250000001,
          "velocity": 0.9763779527559056,
          "duration": 0.21133109374999925
        },
        {
          "name": "D#3",
          "midi": 51,
          "time": 14.67627000000001,
          "velocity": 0.9763779527559056,
          "duration": 0.6339932812499995
        },
        {
          "name": "F3",
          "midi": 53,
          "time": 15.31925609375001,
          "velocity": 0.9763779527559056,
          "duration": 0.4091729687499992
        },
        {
          "name": "D#3",
          "midi": 51,
          "time": 15.75540750000001,
          "velocity": 0.9763779527559056,
          "duration": 0.2023382812500003
        },
        {
          "name": "C#3",
          "midi": 49,
          "time": 15.971235000000009,
          "velocity": 0.9763779527559056,
          "duration": 0.17086343750000133
        },
        {
          "name": "C#3",
          "midi": 49,
          "time": 16.40289000000001,
          "velocity": 0.9763779527559056,
          "duration": 0.17985625000000027
        },
        {
          "name": "D#2",
          "midi": 39,
          "time": 17.05037250000001,
          "velocity": 0.9763779527559056,
          "duration": 0.4226621874999985
        },
        {
          "name": "F#2",
          "midi": 42,
          "time": 17.482027500000008,
          "velocity": 0.9763779527559056,
          "duration": 0.2068346874999989
        },
        {
          "name": "A#2",
          "midi": 46,
          "time": 17.697855000000008,
          "velocity": 0.9763779527559056,
          "duration": 0.2068346874999989
        },
        {
          "name": "F#3",
          "midi": 54,
          "time": 17.913682500000007,
          "velocity": 0.9763779527559056,
          "duration": 0.2068346874999989
        },
        {
          "name": "D#3",
          "midi": 51,
          "time": 18.129510000000007,
          "velocity": 0.9763779527559056,
          "duration": 0.6339932812500031
        },
        {
          "name": "F3",
          "midi": 53,
          "time": 18.77249609375001,
          "velocity": 0.9763779527559056,
          "duration": 0.42715859375000065
        },
        {
          "name": "D#3",
          "midi": 51,
          "time": 19.20864750000001,
          "velocity": 0.9763779527559056,
          "duration": 0.188849062500001
        },
        {
          "name": "C#3",
          "midi": 49,
          "time": 19.424475000000008,
          "velocity": 0.9763779527559056,
          "duration": 0.18435265624999886
        },
        {
          "name": "D#2",
          "midi": 39,
          "time": 20.719440000000006,
          "velocity": 0.9448818897637795,
          "duration": 0.004496406249998586
        },
        {
          "name": "D#3",
          "midi": 51,
          "time": 20.935267500000005,
          "velocity": 0.9448818897637795,
          "duration": 0.17985625000000027
        },
        {
          "name": "A#3",
          "midi": 58,
          "time": 20.935267500000005,
          "velocity": 0.952755905511811,
          "duration": 0.17985625000000027
        },
        {
          "name": "A#3",
          "midi": 58,
          "time": 21.151095000000005,
          "velocity": 0.937007874015748,
          "duration": 0.17985625000000027
        },
        {
          "name": "D#3",
          "midi": 51,
          "time": 21.151095000000005,
          "velocity": 0.9291338582677166,
          "duration": 0.17985625000000027
        },
        {
          "name": "A#3",
          "midi": 58,
          "time": 21.582750000000004,
          "velocity": 0.952755905511811,
          "duration": 0.17985625000000027
        },
        {
          "name": "D#3",
          "midi": 51,
          "time": 21.582750000000004,
          "velocity": 0.952755905511811,
          "duration": 0.17985625000000027
        },
        {
          "name": "G#3",
          "midi": 56,
          "time": 22.230232500000003,
          "velocity": 0.952755905511811,
          "duration": 0.17985625000000027
        },
        {
          "name": "C#3",
          "midi": 49,
          "time": 22.230232500000003,
          "velocity": 0.9448818897637795,
          "duration": 0.17985625000000027
        },
        {
          "name": "G#3",
          "midi": 56,
          "time": 22.446060000000003,
          "velocity": 0.9448818897637795,
          "duration": 0.17985625000000027
        },
        {
          "name": "C#3",
          "midi": 49,
          "time": 22.446060000000003,
          "velocity": 0.9448818897637795,
          "duration": 0.17985625000000027
        },
        {
          "name": "G#3",
          "midi": 56,
          "time": 22.877715000000002,
          "velocity": 0.952755905511811,
          "duration": 0.17985625000000027
        },
        {
          "name": "C#3",
          "midi": 49,
          "time": 22.877715000000002,
          "velocity": 0.952755905511811,
          "duration": 0.17985625000000027
        },
        {
          "name": "A#3",
          "midi": 58,
          "time": 24.388507500000003,
          "velocity": 0.952755905511811,
          "duration": 0.17985625000000027
        },
        {
          "name": "D#3",
          "midi": 51,
          "time": 24.388507500000003,
          "velocity": 0.952755905511811,
          "duration": 0.17985625000000027
        },
        {
          "name": "D#3",
          "midi": 51,
          "time": 24.604335000000003,
          "velocity": 0.9448818897637795,
          "duration": 0.17985625000000027
        },
        {
          "name": "A#3",
          "midi": 58,
          "time": 24.604335000000003,
          "velocity": 0.952755905511811,
          "duration": 0.17985625000000027
        },
        {
          "name": "A#3",
          "midi": 58,
          "time": 25.03599,
          "velocity": 0.952755905511811,
          "duration": 0.17985625000000027
        },
        {
          "name": "D#3",
          "midi": 51,
          "time": 25.03599,
          "velocity": 0.952755905511811,
          "duration": 0.17985625000000027
        },
        {
          "name": "G#3",
          "midi": 56,
          "time": 25.6834725,
          "velocity": 0.952755905511811,
          "duration": 0.17985625000000027
        },
        {
          "name": "C#3",
          "midi": 49,
          "time": 25.6834725,
          "velocity": 0.952755905511811,
          "duration": 0.17985625000000027
        },
        {
          "name": "C#3",
          "midi": 49,
          "time": 25.8993,
          "velocity": 0.9448818897637795,
          "duration": 0.17985625000000027
        },
        {
          "name": "G#3",
          "midi": 56,
          "time": 25.8993,
          "velocity": 0.952755905511811,
          "duration": 0.17985625000000027
        },
        {
          "name": "G#3",
          "midi": 56,
          "time": 26.330955,
          "velocity": 0.952755905511811,
          "duration": 0.17985625000000027
        },
        {
          "name": "C#3",
          "midi": 49,
          "time": 26.330955,
          "velocity": 0.952755905511811,
          "duration": 0.17985625000000027
        },
        {
          "name": "F#3",
          "midi": 54,
          "time": 27.8417475,
          "velocity": 0.9606299212598425,
          "duration": 0.17985625000000027
        },
        {
          "name": "B2",
          "midi": 47,
          "time": 27.8417475,
          "velocity": 0.9448818897637795,
          "duration": 0.17985625000000027
        },
        {
          "name": "B2",
          "midi": 47,
          "time": 28.057575,
          "velocity": 0.937007874015748,
          "duration": 0.17985625000000027
        },
        {
          "name": "F#3",
          "midi": 54,
          "time": 28.057575,
          "velocity": 0.952755905511811,
          "duration": 0.17985625000000027
        },
        {
          "name": "F#3",
          "midi": 54,
          "time": 28.48923,
          "velocity": 0.9606299212598425,
          "duration": 0.17985625000000027
        },
        {
          "name": "B2",
          "midi": 47,
          "time": 28.48923,
          "velocity": 0.952755905511811,
          "duration": 0.17985625000000027
        },
        {
          "name": "C#3",
          "midi": 49,
          "time": 29.136712499999998,
          "velocity": 0.952755905511811,
          "duration": 0.17985625000000027
        },
        {
          "name": "G#3",
          "midi": 56,
          "time": 29.136712499999998,
          "velocity": 0.9606299212598425,
          "duration": 0.17985625000000027
        },
        {
          "name": "C#3",
          "midi": 49,
          "time": 29.352539999999998,
          "velocity": 0.952755905511811,
          "duration": 0.17985625000000027
        },
        {
          "name": "G#3",
          "midi": 56,
          "time": 29.352539999999998,
          "velocity": 0.952755905511811,
          "duration": 0.17985625000000027
        },
        {
          "name": "G#3",
          "midi": 56,
          "time": 29.784194999999997,
          "velocity": 0.9606299212598425,
          "duration": 0.17985625000000027
        },
        {
          "name": "C#3",
          "midi": 49,
          "time": 29.784194999999997,
          "velocity": 0.9606299212598425,
          "duration": 0.17985625000000027
        },
        {
          "name": "A#3",
          "midi": 58,
          "time": 31.294987499999998,
          "velocity": 0.9606299212598425,
          "duration": 0.17985625000000027
        },
        {
          "name": "D#3",
          "midi": 51,
          "time": 31.294987499999998,
          "velocity": 0.9606299212598425,
          "duration": 0.17985625000000027
        },
        {
          "name": "A#3",
          "midi": 58,
          "time": 31.510814999999997,
          "velocity": 0.952755905511811,
          "duration": 0.17985625000000027
        },
        {
          "name": "D#3",
          "midi": 51,
          "time": 31.510814999999997,
          "velocity": 0.952755905511811,
          "duration": 0.17985625000000027
        },
        {
          "name": "A#3",
          "midi": 58,
          "time": 31.942469999999997,
          "velocity": 0.9606299212598425,
          "duration": 0.17985624999999672
        },
        {
          "name": "D#3",
          "midi": 51,
          "time": 31.942469999999997,
          "velocity": 0.9606299212598425,
          "duration": 0.17985624999999672
        },
        {
          "name": "G#3",
          "midi": 56,
          "time": 32.589952499999995,
          "velocity": 0.9606299212598425,
          "duration": 0.17985625000000027
        },
        {
          "name": "C#3",
          "midi": 49,
          "time": 32.589952499999995,
          "velocity": 0.952755905511811,
          "duration": 0.17985625000000027
        },
        {
          "name": "G#3",
          "midi": 56,
          "time": 32.80578,
          "velocity": 0.9448818897637795,
          "duration": 0.17985625000000027
        },
        {
          "name": "C#3",
          "midi": 49,
          "time": 32.80578,
          "velocity": 0.9448818897637795,
          "duration": 0.17985625000000027
        },
        {
          "name": "G#3",
          "midi": 56,
          "time": 33.237435,
          "velocity": 0.952755905511811,
          "duration": 0.17985625000000027
        },
        {
          "name": "C#3",
          "midi": 49,
          "time": 33.237435,
          "velocity": 0.952755905511811,
          "duration": 0.17985625000000027
        },
        {
          "name": "D#2",
          "midi": 39,
          "time": 34.532399999999996,
          "velocity": 0.9448818897637795,
          "duration": 0.004496406249998586
        },
        {
          "name": "D#3",
          "midi": 51,
          "time": 34.74822749999999,
          "velocity": 0.9448818897637795,
          "duration": 0.17985625000000027
        },
        {
          "name": "A#3",
          "midi": 58,
          "time": 34.74822749999999,
          "velocity": 0.952755905511811,
          "duration": 0.17985625000000027
        },
        {
          "name": "A#3",
          "midi": 58,
          "time": 34.964054999999995,
          "velocity": 0.937007874015748,
          "duration": 0.17985625000000027
        },
        {
          "name": "D#3",
          "midi": 51,
          "time": 34.964054999999995,
          "velocity": 0.9291338582677166,
          "duration": 0.17985625000000027
        },
        {
          "name": "A#3",
          "midi": 58,
          "time": 35.395709999999994,
          "velocity": 0.952755905511811,
          "duration": 0.17985625000000027
        },
        {
          "name": "D#3",
          "midi": 51,
          "time": 35.395709999999994,
          "velocity": 0.952755905511811,
          "duration": 0.17985625000000027
        },
        {
          "name": "G#3",
          "midi": 56,
          "time": 36.043192499999996,
          "velocity": 0.952755905511811,
          "duration": 0.17985625000000027
        },
        {
          "name": "C#3",
          "midi": 49,
          "time": 36.043192499999996,
          "velocity": 0.9448818897637795,
          "duration": 0.17985625000000027
        },
        {
          "name": "G#3",
          "midi": 56,
          "time": 36.25902,
          "velocity": 0.9448818897637795,
          "duration": 0.17985625000000027
        },
        {
          "name": "C#3",
          "midi": 49,
          "time": 36.25902,
          "velocity": 0.9448818897637795,
          "duration": 0.17985625000000027
        },
        {
          "name": "G#3",
          "midi": 56,
          "time": 36.690675,
          "velocity": 0.952755905511811,
          "duration": 0.17985625000000027
        },
        {
          "name": "C#3",
          "midi": 49,
          "time": 36.690675,
          "velocity": 0.952755905511811,
          "duration": 0.17985625000000027
        },
        {
          "name": "A#3",
          "midi": 58,
          "time": 38.2014675,
          "velocity": 0.952755905511811,
          "duration": 0.17985625000000027
        },
        {
          "name": "D#3",
          "midi": 51,
          "time": 38.2014675,
          "velocity": 0.952755905511811,
          "duration": 0.17985625000000027
        },
        {
          "name": "D#3",
          "midi": 51,
          "time": 38.417295,
          "velocity": 0.9448818897637795,
          "duration": 0.17985625000000027
        },
        {
          "name": "A#3",
          "midi": 58,
          "time": 38.417295,
          "velocity": 0.952755905511811,
          "duration": 0.17985625000000027
        },
        {
          "name": "A#3",
          "midi": 58,
          "time": 38.84895,
          "velocity": 0.952755905511811,
          "duration": 0.17985625000000027
        },
        {
          "name": "D#3",
          "midi": 51,
          "time": 38.84895,
          "velocity": 0.952755905511811,
          "duration": 0.17985625000000027
        },
        {
          "name": "G#3",
          "midi": 56,
          "time": 39.496432500000004,
          "velocity": 0.952755905511811,
          "duration": 0.17985625000000027
        },
        {
          "name": "C#3",
          "midi": 49,
          "time": 39.496432500000004,
          "velocity": 0.952755905511811,
          "duration": 0.17985625000000027
        },
        {
          "name": "C#3",
          "midi": 49,
          "time": 39.71226000000001,
          "velocity": 0.9448818897637795,
          "duration": 0.17985625000000027
        },
        {
          "name": "G#3",
          "midi": 56,
          "time": 39.71226000000001,
          "velocity": 0.952755905511811,
          "duration": 0.17985625000000027
        },
        {
          "name": "G#3",
          "midi": 56,
          "time": 40.14391500000001,
          "velocity": 0.952755905511811,
          "duration": 0.17985625000000027
        },
        {
          "name": "C#3",
          "midi": 49,
          "time": 40.14391500000001,
          "velocity": 0.952755905511811,
          "duration": 0.17985625000000027
        },
        {
          "name": "F#3",
          "midi": 54,
          "time": 41.65470750000001,
          "velocity": 0.9606299212598425,
          "duration": 0.17985625000000027
        },
        {
          "name": "B2",
          "midi": 47,
          "time": 41.65470750000001,
          "velocity": 0.9448818897637795,
          "duration": 0.17985625000000027
        },
        {
          "name": "B2",
          "midi": 47,
          "time": 41.87053500000001,
          "velocity": 0.937007874015748,
          "duration": 0.17985625000000027
        },
        {
          "name": "F#3",
          "midi": 54,
          "time": 41.87053500000001,
          "velocity": 0.952755905511811,
          "duration": 0.17985625000000027
        },
        {
          "name": "F#3",
          "midi": 54,
          "time": 42.30219000000001,
          "velocity": 0.9606299212598425,
          "duration": 0.17985625000000027
        },
        {
          "name": "B2",
          "midi": 47,
          "time": 42.30219000000001,
          "velocity": 0.952755905511811,
          "duration": 0.17985625000000027
        },
        {
          "name": "C#3",
          "midi": 49,
          "time": 42.94967250000001,
          "velocity": 0.952755905511811,
          "duration": 0.17985625000000027
        },
        {
          "name": "G#3",
          "midi": 56,
          "time": 42.94967250000001,
          "velocity": 0.9606299212598425,
          "duration": 0.17985625000000027
        },
        {
          "name": "C#3",
          "midi": 49,
          "time": 43.165500000000016,
          "velocity": 0.952755905511811,
          "duration": 0.17985625000000027
        },
        {
          "name": "G#3",
          "midi": 56,
          "time": 43.165500000000016,
          "velocity": 0.952755905511811,
          "duration": 0.17985625000000027
        },
        {
          "name": "G#3",
          "midi": 56,
          "time": 43.597155000000015,
          "velocity": 0.9606299212598425,
          "duration": 0.17985625000000027
        },
        {
          "name": "C#3",
          "midi": 49,
          "time": 43.597155000000015,
          "velocity": 0.9606299212598425,
          "duration": 0.17985625000000027
        },
        {
          "name": "A#3",
          "midi": 58,
          "time": 45.107947500000016,
          "velocity": 0.9606299212598425,
          "duration": 0.17985625000000027
        },
        {
          "name": "D#3",
          "midi": 51,
          "time": 45.107947500000016,
          "velocity": 0.9606299212598425,
          "duration": 0.17985625000000027
        },
        {
          "name": "A#3",
          "midi": 58,
          "time": 45.32377500000002,
          "velocity": 0.952755905511811,
          "duration": 0.17985625000000027
        },
        {
          "name": "D#3",
          "midi": 51,
          "time": 45.32377500000002,
          "velocity": 0.952755905511811,
          "duration": 0.17985625000000027
        },
        {
          "name": "A#3",
          "midi": 58,
          "time": 45.75543000000002,
          "velocity": 0.9606299212598425,
          "duration": 0.17985625000000027
        },
        {
          "name": "D#3",
          "midi": 51,
          "time": 45.75543000000002,
          "velocity": 0.9606299212598425,
          "duration": 0.17985625000000027
        },
        {
          "name": "G#3",
          "midi": 56,
          "time": 46.40291250000002,
          "velocity": 0.9606299212598425,
          "duration": 0.17985625000000027
        },
        {
          "name": "C#3",
          "midi": 49,
          "time": 46.40291250000002,
          "velocity": 0.952755905511811,
          "duration": 0.17985625000000027
        },
        {
          "name": "G#3",
          "midi": 56,
          "time": 46.618740000000024,
          "velocity": 0.9448818897637795,
          "duration": 0.17985625000000027
        },
        {
          "name": "C#3",
          "midi": 49,
          "time": 46.618740000000024,
          "velocity": 0.9448818897637795,
          "duration": 0.17985625000000027
        },
        {
          "name": "G#3",
          "midi": 56,
          "time": 47.05039500000002,
          "velocity": 0.952755905511811,
          "duration": 0.17985625000000027
        },
        {
          "name": "C#3",
          "midi": 49,
          "time": 47.05039500000002,
          "velocity": 0.952755905511811,
          "duration": 0.17985625000000027
        },
        {
          "name": "D#2",
          "midi": 39,
          "time": 48.129532500000025,
          "velocity": 0.9763779527559056,
          "duration": 0.42266218750000206
        },
        {
          "name": "F#2",
          "midi": 42,
          "time": 48.561187500000024,
          "velocity": 0.9763779527559056,
          "duration": 0.21133109374999748
        },
        {
          "name": "A#2",
          "midi": 46,
          "time": 48.77701500000002,
          "velocity": 0.9763779527559056,
          "duration": 0.21133109374999748
        },
        {
          "name": "F#3",
          "midi": 54,
          "time": 48.992842500000016,
          "velocity": 0.9763779527559056,
          "duration": 0.21133109374999748
        },
        {
          "name": "D#3",
          "midi": 51,
          "time": 49.20867000000001,
          "velocity": 0.9763779527559056,
          "duration": 0.6339932812499995
        },
        {
          "name": "F3",
          "midi": 53,
          "time": 49.85165609375001,
          "velocity": 0.9763779527559056,
          "duration": 0.4091729687499992
        },
        {
          "name": "D#3",
          "midi": 51,
          "time": 50.28780750000001,
          "velocity": 0.9763779527559056,
          "duration": 0.2023382812500003
        },
        {
          "name": "C#3",
          "midi": 49,
          "time": 50.50363500000001,
          "velocity": 0.9763779527559056,
          "duration": 0.1708634375000031
        },
        {
          "name": "C#3",
          "midi": 49,
          "time": 50.935290000000016,
          "velocity": 0.9763779527559056,
          "duration": 0.17985625000000027
        },
        {
          "name": "D#2",
          "midi": 39,
          "time": 51.58277250000002,
          "velocity": 0.9763779527559056,
          "duration": 0.42266218750000206
        },
        {
          "name": "F#2",
          "midi": 42,
          "time": 52.01442750000002,
          "velocity": 0.9763779527559056,
          "duration": 0.2068346874999989
        },
        {
          "name": "A#2",
          "midi": 46,
          "time": 52.230255000000014,
          "velocity": 0.9763779527559056,
          "duration": 0.2068346874999989
        },
        {
          "name": "F#3",
          "midi": 54,
          "time": 52.44608250000001,
          "velocity": 0.9763779527559056,
          "duration": 0.2068346874999989
        },
        {
          "name": "D#3",
          "midi": 51,
          "time": 52.661910000000006,
          "velocity": 0.9763779527559056,
          "duration": 0.6339932812500209
        },
        {
          "name": "F3",
          "midi": 53,
          "time": 53.304896093750024,
          "velocity": 0.9763779527559056,
          "duration": 0.42715859375000065
        },
        {
          "name": "D#3",
          "midi": 51,
          "time": 53.74104750000002,
          "velocity": 0.9763779527559056,
          "duration": 0.18884906249999744
        },
        {
          "name": "C#3",
          "midi": 49,
          "time": 53.95687500000002,
          "velocity": 0.9763779527559056,
          "duration": 0.18435265624999886
        },
        {
          "name": "D#2",
          "midi": 39,
          "time": 55.03601250000001,
          "velocity": 0.9763779527559056,
          "duration": 0.42715859375000065
        },
        {
          "name": "F#2",
          "midi": 42,
          "time": 55.46766750000001,
          "velocity": 0.9763779527559056,
          "duration": 0.21133109374999748
        },
        {
          "name": "A#2",
          "midi": 46,
          "time": 55.68349500000001,
          "velocity": 0.9763779527559056,
          "duration": 0.21133109374999748
        },
        {
          "name": "F#3",
          "midi": 54,
          "time": 55.899322500000004,
          "velocity": 0.9763779527559056,
          "duration": 0.21133109374999748
        },
        {
          "name": "D#3",
          "midi": 51,
          "time": 56.11515,
          "velocity": 0.9763779527559056,
          "duration": 0.6339932812499995
        },
        {
          "name": "F3",
          "midi": 53,
          "time": 56.75813609375,
          "velocity": 0.9763779527559056,
          "duration": 0.4091729687499992
        },
        {
          "name": "D#3",
          "midi": 51,
          "time": 57.194287499999994,
          "velocity": 0.9763779527559056,
          "duration": 0.2023382812500003
        },
        {
          "name": "C#3",
          "midi": 49,
          "time": 57.410115,
          "velocity": 0.9763779527559056,
          "duration": 0.1708634375000031
        },
        {
          "name": "C#3",
          "midi": 49,
          "time": 57.841770000000004,
          "velocity": 0.9763779527559056,
          "duration": 0.17985625000000027
        },
        {
          "name": "D#2",
          "midi": 39,
          "time": 58.489252500000006,
          "velocity": 0.9763779527559056,
          "duration": 0.42266218750000206
        },
        {
          "name": "F#2",
          "midi": 42,
          "time": 58.920907500000006,
          "velocity": 0.9763779527559056,
          "duration": 0.2068346874999989
        },
        {
          "name": "A#2",
          "midi": 46,
          "time": 59.136735,
          "velocity": 0.9763779527559056,
          "duration": 0.2068346874999989
        },
        {
          "name": "F#3",
          "midi": 54,
          "time": 59.3525625,
          "velocity": 0.9763779527559056,
          "duration": 0.2068346874999989
        },
        {
          "name": "D#3",
          "midi": 51,
          "time": 59.568389999999994,
          "velocity": 0.9763779527559056,
          "duration": 0.6339932812500066
        },
        {
          "name": "F3",
          "midi": 53,
          "time": 60.21137609375,
          "velocity": 0.9763779527559056,
          "duration": 0.42715859375000065
        },
        {
          "name": "D#3",
          "midi": 51,
          "time": 60.647527499999995,
          "velocity": 0.9763779527559056,
          "duration": 0.18884906249999744
        },
        {
          "name": "C#3",
          "midi": 49,
          "time": 60.86335499999999,
          "velocity": 0.9763779527559056,
          "duration": 0.18435265624999886
        },
        {
          "name": "D#2",
          "midi": 39,
          "time": 61.942492499999986,
          "velocity": 0.9763779527559056,
          "duration": 0.42715859375000065
        },
        {
          "name": "F#2",
          "midi": 42,
          "time": 62.374147499999985,
          "velocity": 0.9763779527559056,
          "duration": 0.21133109374999748
        },
        {
          "name": "A#2",
          "midi": 46,
          "time": 62.58997499999998,
          "velocity": 0.9763779527559056,
          "duration": 0.21133109374999748
        },
        {
          "name": "F#3",
          "midi": 54,
          "time": 62.80580249999998,
          "velocity": 0.9763779527559056,
          "duration": 0.21133109374999748
        },
        {
          "name": "D#3",
          "midi": 51,
          "time": 63.02162999999997,
          "velocity": 0.9763779527559056,
          "duration": 0.6339932812500066
        },
        {
          "name": "F3",
          "midi": 53,
          "time": 63.66461609374998,
          "velocity": 0.9763779527559056,
          "duration": 0.4091729687500063
        },
        {
          "name": "D#3",
          "midi": 51,
          "time": 64.10076749999998,
          "velocity": 0.9763779527559056,
          "duration": 0.2023382812499932
        },
        {
          "name": "C#3",
          "midi": 49,
          "time": 64.31659499999996,
          "velocity": 0.9763779527559056,
          "duration": 0.1708634375000031
        },
        {
          "name": "C#3",
          "midi": 49,
          "time": 64.74824999999997,
          "velocity": 0.9763779527559056,
          "duration": 0.17985625000000027
        },
        {
          "name": "D#2",
          "midi": 39,
          "time": 65.39573249999997,
          "velocity": 0.9763779527559056,
          "duration": 0.42266218749999496
        },
        {
          "name": "F#2",
          "midi": 42,
          "time": 65.82738749999996,
          "velocity": 0.9763779527559056,
          "duration": 0.206834687500006
        },
        {
          "name": "A#2",
          "midi": 46,
          "time": 66.04321499999996,
          "velocity": 0.9763779527559056,
          "duration": 0.206834687500006
        },
        {
          "name": "F#3",
          "midi": 54,
          "time": 66.25904249999996,
          "velocity": 0.9763779527559056,
          "duration": 0.206834687500006
        },
        {
          "name": "D#3",
          "midi": 51,
          "time": 66.47486999999997,
          "velocity": 0.9763779527559056,
          "duration": 0.6339932812499995
        },
        {
          "name": "F3",
          "midi": 53,
          "time": 67.11785609374996,
          "velocity": 0.9763779527559056,
          "duration": 0.42715859374999354
        },
        {
          "name": "D#3",
          "midi": 51,
          "time": 67.55400749999995,
          "velocity": 0.9763779527559056,
          "duration": 0.18884906249999744
        },
        {
          "name": "C#3",
          "midi": 49,
          "time": 67.76983499999996,
          "velocity": 0.9763779527559056,
          "duration": 0.18435265624999886
        },
        {
          "name": "D#2",
          "midi": 39,
          "time": 69.06479999999996,
          "velocity": 0.9448818897637795,
          "duration": 0.004496406249998586
        },
        {
          "name": "D#3",
          "midi": 51,
          "time": 69.28062749999997,
          "velocity": 0.9448818897637795,
          "duration": 0.17985625000000027
        },
        {
          "name": "A#3",
          "midi": 58,
          "time": 69.28062749999997,
          "velocity": 0.952755905511811,
          "duration": 0.17985625000000027
        },
        {
          "name": "A#3",
          "midi": 58,
          "time": 69.49645499999997,
          "velocity": 0.937007874015748,
          "duration": 0.17985625000000027
        },
        {
          "name": "D#3",
          "midi": 51,
          "time": 69.49645499999997,
          "velocity": 0.9291338582677166,
          "duration": 0.17985625000000027
        },
        {
          "name": "A#3",
          "midi": 58,
          "time": 69.92810999999998,
          "velocity": 0.952755905511811,
          "duration": 0.17985625000000027
        },
        {
          "name": "D#3",
          "midi": 51,
          "time": 69.92810999999998,
          "velocity": 0.952755905511811,
          "duration": 0.17985625000000027
        },
        {
          "name": "G#3",
          "midi": 56,
          "time": 70.57559249999997,
          "velocity": 0.952755905511811,
          "duration": 0.17985625000000027
        },
        {
          "name": "C#3",
          "midi": 49,
          "time": 70.57559249999997,
          "velocity": 0.9448818897637795,
          "duration": 0.17985625000000027
        },
        {
          "name": "G#3",
          "midi": 56,
          "time": 70.79141999999997,
          "velocity": 0.9448818897637795,
          "duration": 0.17985625000000027
        },
        {
          "name": "C#3",
          "midi": 49,
          "time": 70.79141999999997,
          "velocity": 0.9448818897637795,
          "duration": 0.17985625000000027
        },
        {
          "name": "G#3",
          "midi": 56,
          "time": 71.22307499999998,
          "velocity": 0.952755905511811,
          "duration": 0.17985625000000027
        },
        {
          "name": "C#3",
          "midi": 49,
          "time": 71.22307499999998,
          "velocity": 0.952755905511811,
          "duration": 0.17985625000000027
        },
        {
          "name": "A#3",
          "midi": 58,
          "time": 72.73386749999997,
          "velocity": 0.952755905511811,
          "duration": 0.17985625000000027
        },
        {
          "name": "D#3",
          "midi": 51,
          "time": 72.73386749999997,
          "velocity": 0.952755905511811,
          "duration": 0.17985625000000027
        },
        {
          "name": "D#3",
          "midi": 51,
          "time": 72.94969499999998,
          "velocity": 0.9448818897637795,
          "duration": 0.17985625000000027
        },
        {
          "name": "A#3",
          "midi": 58,
          "time": 72.94969499999998,
          "velocity": 0.952755905511811,
          "duration": 0.17985625000000027
        },
        {
          "name": "A#3",
          "midi": 58,
          "time": 73.38134999999998,
          "velocity": 0.952755905511811,
          "duration": 0.17985625000000027
        },
        {
          "name": "D#3",
          "midi": 51,
          "time": 73.38134999999998,
          "velocity": 0.952755905511811,
          "duration": 0.17985625000000027
        },
        {
          "name": "G#3",
          "midi": 56,
          "time": 74.02883249999998,
          "velocity": 0.952755905511811,
          "duration": 0.17985625000000027
        },
        {
          "name": "C#3",
          "midi": 49,
          "time": 74.02883249999998,
          "velocity": 0.952755905511811,
          "duration": 0.17985625000000027
        },
        {
          "name": "C#3",
          "midi": 49,
          "time": 74.24465999999998,
          "velocity": 0.9448818897637795,
          "duration": 0.17985625000000027
        },
        {
          "name": "G#3",
          "midi": 56,
          "time": 74.24465999999998,
          "velocity": 0.952755905511811,
          "duration": 0.17985625000000027
        },
        {
          "name": "G#3",
          "midi": 56,
          "time": 74.67631499999999,
          "velocity": 0.952755905511811,
          "duration": 0.17985625000000027
        },
        {
          "name": "C#3",
          "midi": 49,
          "time": 74.67631499999999,
          "velocity": 0.952755905511811,
          "duration": 0.17985625000000027
        },
        {
          "name": "F#3",
          "midi": 54,
          "time": 76.18710749999998,
          "velocity": 0.9606299212598425,
          "duration": 0.17985625000000027
        },
        {
          "name": "B2",
          "midi": 47,
          "time": 76.18710749999998,
          "velocity": 0.9448818897637795,
          "duration": 0.17985625000000027
        },
        {
          "name": "B2",
          "midi": 47,
          "time": 76.40293499999999,
          "velocity": 0.937007874015748,
          "duration": 0.17985625000000027
        },
        {
          "name": "F#3",
          "midi": 54,
          "time": 76.40293499999999,
          "velocity": 0.952755905511811,
          "duration": 0.17985625000000027
        },
        {
          "name": "F#3",
          "midi": 54,
          "time": 76.83458999999999,
          "velocity": 0.9606299212598425,
          "duration": 0.17985625000000027
        },
        {
          "name": "B2",
          "midi": 47,
          "time": 76.83458999999999,
          "velocity": 0.952755905511811,
          "duration": 0.17985625000000027
        },
        {
          "name": "C#3",
          "midi": 49,
          "time": 77.48207249999999,
          "velocity": 0.952755905511811,
          "duration": 0.17985625000000027
        },
        {
          "name": "G#3",
          "midi": 56,
          "time": 77.48207249999999,
          "velocity": 0.9606299212598425,
          "duration": 0.17985625000000027
        },
        {
          "name": "C#3",
          "midi": 49,
          "time": 77.69789999999999,
          "velocity": 0.952755905511811,
          "duration": 0.17985625000000027
        },
        {
          "name": "G#3",
          "midi": 56,
          "time": 77.69789999999999,
          "velocity": 0.952755905511811,
          "duration": 0.17985625000000027
        },
        {
          "name": "G#3",
          "midi": 56,
          "time": 78.129555,
          "velocity": 0.9606299212598425,
          "duration": 0.17985625000000027
        },
        {
          "name": "C#3",
          "midi": 49,
          "time": 78.129555,
          "velocity": 0.9606299212598425,
          "duration": 0.17985625000000027
        },
        {
          "name": "A#3",
          "midi": 58,
          "time": 79.64034749999999,
          "velocity": 0.9606299212598425,
          "duration": 0.17985625000000027
        },
        {
          "name": "D#3",
          "midi": 51,
          "time": 79.64034749999999,
          "velocity": 0.9606299212598425,
          "duration": 0.17985625000000027
        },
        {
          "name": "A#3",
          "midi": 58,
          "time": 79.856175,
          "velocity": 0.952755905511811,
          "duration": 0.17985625000000027
        },
        {
          "name": "D#3",
          "midi": 51,
          "time": 79.856175,
          "velocity": 0.952755905511811,
          "duration": 0.17985625000000027
        },
        {
          "name": "A#3",
          "midi": 58,
          "time": 80.28783,
          "velocity": 0.9606299212598425,
          "duration": 0.17985625000000027
        },
        {
          "name": "D#3",
          "midi": 51,
          "time": 80.28783,
          "velocity": 0.9606299212598425,
          "duration": 0.17985625000000027
        },
        {
          "name": "G#3",
          "midi": 56,
          "time": 80.9353125,
          "velocity": 0.9606299212598425,
          "duration": 0.17985625000000027
        },
        {
          "name": "C#3",
          "midi": 49,
          "time": 80.9353125,
          "velocity": 0.952755905511811,
          "duration": 0.17985625000000027
        },
        {
          "name": "G#3",
          "midi": 56,
          "time": 81.15114,
          "velocity": 0.9448818897637795,
          "duration": 0.17985625000000027
        },
        {
          "name": "C#3",
          "midi": 49,
          "time": 81.15114,
          "velocity": 0.9448818897637795,
          "duration": 0.17985625000000027
        },
        {
          "name": "G#3",
          "midi": 56,
          "time": 81.582795,
          "velocity": 0.952755905511811,
          "duration": 0.17985625000000027
        },
        {
          "name": "C#3",
          "midi": 49,
          "time": 81.582795,
          "velocity": 0.952755905511811,
          "duration": 0.17985625000000027
        },
        {
          "name": "D#2",
          "midi": 39,
          "time": 82.87776000000001,
          "velocity": 0.9448818897637795,
          "duration": 0.004496406249998586
        },
        {
          "name": "D#3",
          "midi": 51,
          "time": 83.09358750000001,
          "velocity": 0.9448818897637795,
          "duration": 0.17985625000000027
        },
        {
          "name": "A#3",
          "midi": 58,
          "time": 83.09358750000001,
          "velocity": 0.952755905511811,
          "duration": 0.17985625000000027
        },
        {
          "name": "A#3",
          "midi": 58,
          "time": 83.30941500000002,
          "velocity": 0.937007874015748,
          "duration": 0.17985625000000027
        },
        {
          "name": "D#3",
          "midi": 51,
          "time": 83.30941500000002,
          "velocity": 0.9291338582677166,
          "duration": 0.17985625000000027
        },
        {
          "name": "A#3",
          "midi": 58,
          "time": 83.74107000000002,
          "velocity": 0.952755905511811,
          "duration": 0.17985625000000027
        },
        {
          "name": "D#3",
          "midi": 51,
          "time": 83.74107000000002,
          "velocity": 0.952755905511811,
          "duration": 0.17985625000000027
        },
        {
          "name": "G#3",
          "midi": 56,
          "time": 84.38855250000002,
          "velocity": 0.952755905511811,
          "duration": 0.17985625000000027
        },
        {
          "name": "C#3",
          "midi": 49,
          "time": 84.38855250000002,
          "velocity": 0.9448818897637795,
          "duration": 0.17985625000000027
        },
        {
          "name": "G#3",
          "midi": 56,
          "time": 84.60438000000002,
          "velocity": 0.9448818897637795,
          "duration": 0.17985625000000027
        },
        {
          "name": "C#3",
          "midi": 49,
          "time": 84.60438000000002,
          "velocity": 0.9448818897637795,
          "duration": 0.17985625000000027
        },
        {
          "name": "G#3",
          "midi": 56,
          "time": 85.03603500000003,
          "velocity": 0.952755905511811,
          "duration": 0.17985625000000027
        },
        {
          "name": "C#3",
          "midi": 49,
          "time": 85.03603500000003,
          "velocity": 0.952755905511811,
          "duration": 0.17985625000000027
        },
        {
          "name": "A#3",
          "midi": 58,
          "time": 86.54682750000002,
          "velocity": 0.952755905511811,
          "duration": 0.17985625000000027
        },
        {
          "name": "D#3",
          "midi": 51,
          "time": 86.54682750000002,
          "velocity": 0.952755905511811,
          "duration": 0.17985625000000027
        },
        {
          "name": "D#3",
          "midi": 51,
          "time": 86.76265500000002,
          "velocity": 0.9448818897637795,
          "duration": 0.17985625000000027
        },
        {
          "name": "A#3",
          "midi": 58,
          "time": 86.76265500000002,
          "velocity": 0.952755905511811,
          "duration": 0.17985625000000027
        },
        {
          "name": "A#3",
          "midi": 58,
          "time": 87.19431000000003,
          "velocity": 0.952755905511811,
          "duration": 0.17985625000000027
        },
        {
          "name": "D#3",
          "midi": 51,
          "time": 87.19431000000003,
          "velocity": 0.952755905511811,
          "duration": 0.17985625000000027
        },
        {
          "name": "G#3",
          "midi": 56,
          "time": 87.84179250000003,
          "velocity": 0.952755905511811,
          "duration": 0.17985625000000027
        },
        {
          "name": "C#3",
          "midi": 49,
          "time": 87.84179250000003,
          "velocity": 0.952755905511811,
          "duration": 0.17985625000000027
        },
        {
          "name": "C#3",
          "midi": 49,
          "time": 88.05762000000003,
          "velocity": 0.9448818897637795,
          "duration": 0.17985625000000027
        },
        {
          "name": "G#3",
          "midi": 56,
          "time": 88.05762000000003,
          "velocity": 0.952755905511811,
          "duration": 0.17985625000000027
        },
        {
          "name": "G#3",
          "midi": 56,
          "time": 88.48927500000003,
          "velocity": 0.952755905511811,
          "duration": 0.17985625000000027
        },
        {
          "name": "C#3",
          "midi": 49,
          "time": 88.48927500000003,
          "velocity": 0.952755905511811,
          "duration": 0.17985625000000027
        },
        {
          "name": "F#3",
          "midi": 54,
          "time": 90.00006750000003,
          "velocity": 0.9606299212598425,
          "duration": 0.17985625000000027
        },
        {
          "name": "B2",
          "midi": 47,
          "time": 90.00006750000003,
          "velocity": 0.9448818897637795,
          "duration": 0.17985625000000027
        },
        {
          "name": "B2",
          "midi": 47,
          "time": 90.21589500000003,
          "velocity": 0.937007874015748,
          "duration": 0.17985625000000027
        },
        {
          "name": "F#3",
          "midi": 54,
          "time": 90.21589500000003,
          "velocity": 0.952755905511811,
          "duration": 0.17985625000000027
        },
        {
          "name": "F#3",
          "midi": 54,
          "time": 90.64755000000004,
          "velocity": 0.9606299212598425,
          "duration": 0.17985625000000027
        },
        {
          "name": "B2",
          "midi": 47,
          "time": 90.64755000000004,
          "velocity": 0.952755905511811,
          "duration": 0.17985625000000027
        },
        {
          "name": "C#3",
          "midi": 49,
          "time": 91.29503250000003,
          "velocity": 0.952755905511811,
          "duration": 0.17985625000000027
        },
        {
          "name": "G#3",
          "midi": 56,
          "time": 91.29503250000003,
          "velocity": 0.9606299212598425,
          "duration": 0.17985625000000027
        },
        {
          "name": "C#3",
          "midi": 49,
          "time": 91.51086000000004,
          "velocity": 0.952755905511811,
          "duration": 0.17985625000000027
        },
        {
          "name": "G#3",
          "midi": 56,
          "time": 91.51086000000004,
          "velocity": 0.952755905511811,
          "duration": 0.17985625000000027
        },
        {
          "name": "G#3",
          "midi": 56,
          "time": 91.94251500000004,
          "velocity": 0.9606299212598425,
          "duration": 0.17985625000000027
        },
        {
          "name": "C#3",
          "midi": 49,
          "time": 91.94251500000004,
          "velocity": 0.9606299212598425,
          "duration": 0.17985625000000027
        },
        {
          "name": "A#3",
          "midi": 58,
          "time": 93.45330750000004,
          "velocity": 0.9606299212598425,
          "duration": 0.17985625000000027
        },
        {
          "name": "D#3",
          "midi": 51,
          "time": 93.45330750000004,
          "velocity": 0.9606299212598425,
          "duration": 0.17985625000000027
        },
        {
          "name": "A#3",
          "midi": 58,
          "time": 93.66913500000004,
          "velocity": 0.952755905511811,
          "duration": 0.17985625000000027
        },
        {
          "name": "D#3",
          "midi": 51,
          "time": 93.66913500000004,
          "velocity": 0.952755905511811,
          "duration": 0.17985625000000027
        },
        {
          "name": "A#3",
          "midi": 58,
          "time": 94.10079000000005,
          "velocity": 0.9606299212598425,
          "duration": 0.17985625000000027
        },
        {
          "name": "D#3",
          "midi": 51,
          "time": 94.10079000000005,
          "velocity": 0.9606299212598425,
          "duration": 0.17985625000000027
        },
        {
          "name": "G#3",
          "midi": 56,
          "time": 94.74827250000004,
          "velocity": 0.9606299212598425,
          "duration": 0.17985625000000027
        },
        {
          "name": "C#3",
          "midi": 49,
          "time": 94.74827250000004,
          "velocity": 0.952755905511811,
          "duration": 0.17985625000000027
        },
        {
          "name": "G#3",
          "midi": 56,
          "time": 94.96410000000004,
          "velocity": 0.9448818897637795,
          "duration": 0.17985625000000027
        },
        {
          "name": "C#3",
          "midi": 49,
          "time": 94.96410000000004,
          "velocity": 0.9448818897637795,
          "duration": 0.17985625000000027
        },
        {
          "name": "G#3",
          "midi": 56,
          "time": 95.39575500000005,
          "velocity": 0.952755905511811,
          "duration": 0.17985625000000027
        },
        {
          "name": "C#3",
          "midi": 49,
          "time": 95.39575500000005,
          "velocity": 0.952755905511811,
          "duration": 0.17985625000000027
        },
        {
          "name": "F#2",
          "midi": 42,
          "time": 96.25906500000005,
          "velocity": 0.952755905511811,
          "duration": 0.17985625000000027
        },
        {
          "name": "D#2",
          "midi": 39,
          "time": 96.47489250000005,
          "velocity": 0.9763779527559056,
          "duration": 0.42266218749996654
        },
        {
          "name": "F#2",
          "midi": 42,
          "time": 96.90654750000002,
          "velocity": 0.9763779527559056,
          "duration": 0.21133109375000458
        },
        {
          "name": "A#2",
          "midi": 46,
          "time": 97.12237500000002,
          "velocity": 0.9763779527559056,
          "duration": 0.21133109375000458
        },
        {
          "name": "F#3",
          "midi": 54,
          "time": 97.33820250000002,
          "velocity": 0.9763779527559056,
          "duration": 0.21133109375000458
        },
        {
          "name": "D#3",
          "midi": 51,
          "time": 97.55403000000003,
          "velocity": 0.9763779527559056,
          "duration": 0.6339932812499569
        },
        {
          "name": "F3",
          "midi": 53,
          "time": 98.19701609374998,
          "velocity": 0.9763779527559056,
          "duration": 0.4091729687499992
        },
        {
          "name": "D#3",
          "midi": 51,
          "time": 98.63316749999997,
          "velocity": 0.9763779527559056,
          "duration": 0.2023382812499932
        },
        {
          "name": "C#3",
          "midi": 49,
          "time": 98.84899499999996,
          "velocity": 0.9763779527559056,
          "duration": 0.1708634375000031
        },
        {
          "name": "C#3",
          "midi": 49,
          "time": 99.28064999999997,
          "velocity": 0.9763779527559056,
          "duration": 0.17985625000000027
        },
        {
          "name": "D#2",
          "midi": 39,
          "time": 99.92813249999996,
          "velocity": 0.9763779527559056,
          "duration": 0.42266218749999496
        },
        {
          "name": "F#2",
          "midi": 42,
          "time": 100.35978749999995,
          "velocity": 0.9763779527559056,
          "duration": 0.206834687500006
        },
        {
          "name": "A#2",
          "midi": 46,
          "time": 100.57561499999996,
          "velocity": 0.9763779527559056,
          "duration": 0.206834687500006
        },
        {
          "name": "F#3",
          "midi": 54,
          "time": 100.79144249999996,
          "velocity": 0.9763779527559056,
          "duration": 0.206834687500006
        },
        {
          "name": "D#3",
          "midi": 51,
          "time": 101.00726999999996,
          "velocity": 0.9763779527559056,
          "duration": 0.6339932812499285
        },
        {
          "name": "F3",
          "midi": 53,
          "time": 101.65025609374989,
          "velocity": 0.9763779527559056,
          "duration": 0.42715859374999354
        },
        {
          "name": "D#3",
          "midi": 51,
          "time": 102.08640749999988,
          "velocity": 0.9763779527559056,
          "duration": 0.18884906249999744
        },
        {
          "name": "C#3",
          "midi": 49,
          "time": 102.30223499999988,
          "velocity": 0.9763779527559056,
          "duration": 0.18435265624999886
        },
        {
          "name": "D#2",
          "midi": 39,
          "time": 103.38137249999988,
          "velocity": 0.9763779527559056,
          "duration": 0.42715859374999354
        },
        {
          "name": "F#2",
          "midi": 42,
          "time": 103.81302749999988,
          "velocity": 0.9763779527559056,
          "duration": 0.21133109375000458
        },
        {
          "name": "A#2",
          "midi": 46,
          "time": 104.02885499999988,
          "velocity": 0.9763779527559056,
          "duration": 0.21133109375000458
        },
        {
          "name": "F#3",
          "midi": 54,
          "time": 104.24468249999988,
          "velocity": 0.9763779527559056,
          "duration": 0.21133109375000458
        },
        {
          "name": "D#3",
          "midi": 51,
          "time": 104.46050999999989,
          "velocity": 0.9763779527559056,
          "duration": 0.6339932812499995
        },
        {
          "name": "F3",
          "midi": 53,
          "time": 105.10349609374988,
          "velocity": 0.9763779527559056,
          "duration": 0.4091729687499992
        },
        {
          "name": "D#3",
          "midi": 51,
          "time": 105.53964749999987,
          "velocity": 0.9763779527559056,
          "duration": 0.2023382812499932
        },
        {
          "name": "C#3",
          "midi": 49,
          "time": 105.75547499999986,
          "velocity": 0.9763779527559056,
          "duration": 0.1708634375000031
        },
        {
          "name": "C#3",
          "midi": 49,
          "time": 106.18712999999987,
          "velocity": 0.9763779527559056,
          "duration": 0.17985625000000027
        },
        {
          "name": "D#2",
          "midi": 39,
          "time": 106.83461249999986,
          "velocity": 0.9763779527559056,
          "duration": 0.42266218749999496
        },
        {
          "name": "F#2",
          "midi": 42,
          "time": 107.26626749999986,
          "velocity": 0.9763779527559056,
          "duration": 0.206834687500006
        },
        {
          "name": "A#2",
          "midi": 46,
          "time": 107.48209499999986,
          "velocity": 0.9763779527559056,
          "duration": 0.206834687500006
        },
        {
          "name": "F#3",
          "midi": 54,
          "time": 107.69792249999986,
          "velocity": 0.9763779527559056,
          "duration": 0.206834687500006
        },
        {
          "name": "D#3",
          "midi": 51,
          "time": 107.91374999999987,
          "velocity": 0.9763779527559056,
          "duration": 0.6339932812499995
        },
        {
          "name": "F3",
          "midi": 53,
          "time": 108.55673609374986,
          "velocity": 0.9763779527559056,
          "duration": 0.42715859374999354
        },
        {
          "name": "D#3",
          "midi": 51,
          "time": 108.99288749999985,
          "velocity": 0.9763779527559056,
          "duration": 0.18884906249999744
        },
        {
          "name": "C#3",
          "midi": 49,
          "time": 109.20871499999986,
          "velocity": 0.9763779527559056,
          "duration": 0.18435265624999886
        },
        {
          "name": "D#2",
          "midi": 39,
          "time": 110.28785249999986,
          "velocity": 0.9763779527559056,
          "duration": 0.42715859374999354
        },
        {
          "name": "F#2",
          "midi": 42,
          "time": 110.71950749999985,
          "velocity": 0.9763779527559056,
          "duration": 0.21133109375000458
        },
        {
          "name": "A#2",
          "midi": 46,
          "time": 110.93533499999985,
          "velocity": 0.9763779527559056,
          "duration": 0.21133109375000458
        },
        {
          "name": "F#3",
          "midi": 54,
          "time": 111.15116249999986,
          "velocity": 0.9763779527559056,
          "duration": 0.21133109375000458
        },
        {
          "name": "D#3",
          "midi": 51,
          "time": 111.36698999999986,
          "velocity": 0.9763779527559056,
          "duration": 0.6339932812499995
        },
        {
          "name": "F3",
          "midi": 53,
          "time": 112.00997609374986,
          "velocity": 0.9763779527559056,
          "duration": 0.4091729687499992
        },
        {
          "name": "D#3",
          "midi": 51,
          "time": 112.44612749999985,
          "velocity": 0.9763779527559056,
          "duration": 0.2023382812499932
        },
        {
          "name": "C#3",
          "midi": 49,
          "time": 112.66195499999984,
          "velocity": 0.9763779527559056,
          "duration": 0.1708634375000031
        },
        {
          "name": "C#3",
          "midi": 49,
          "time": 113.09360999999984,
          "velocity": 0.9763779527559056,
          "duration": 0.17985625000000027
        },
        {
          "name": "D#2",
          "midi": 39,
          "time": 113.74109249999984,
          "velocity": 0.9763779527559056,
          "duration": 0.42266218749999496
        },
        {
          "name": "F#2",
          "midi": 42,
          "time": 114.17274749999983,
          "velocity": 0.9763779527559056,
          "duration": 0.206834687500006
        },
        {
          "name": "A#2",
          "midi": 46,
          "time": 114.38857499999983,
          "velocity": 0.9763779527559056,
          "duration": 0.206834687500006
        },
        {
          "name": "F#3",
          "midi": 54,
          "time": 114.60440249999984,
          "velocity": 0.9763779527559056,
          "duration": 0.206834687500006
        },
        {
          "name": "D#3",
          "midi": 51,
          "time": 114.82022999999984,
          "velocity": 0.9763779527559056,
          "duration": 0.6339932812499995
        },
        {
          "name": "F3",
          "midi": 53,
          "time": 115.46321609374984,
          "velocity": 0.9763779527559056,
          "duration": 0.42715859374999354
        },
        {
          "name": "D#3",
          "midi": 51,
          "time": 115.89936749999983,
          "velocity": 0.9763779527559056,
          "duration": 0.18884906249999744
        },
        {
          "name": "C#3",
          "midi": 49,
          "time": 116.11519499999983,
          "velocity": 0.9763779527559056,
          "duration": 0.18435265624999886
        },
        {
          "name": "D#2",
          "midi": 39,
          "time": 117.19433249999983,
          "velocity": 0.9763779527559056,
          "duration": 0.42715859374999354
        },
        {
          "name": "F#2",
          "midi": 42,
          "time": 117.62598749999982,
          "velocity": 0.9763779527559056,
          "duration": 0.21133109375000458
        },
        {
          "name": "A#2",
          "midi": 46,
          "time": 117.84181499999983,
          "velocity": 0.9763779527559056,
          "duration": 0.21133109375000458
        },
        {
          "name": "F#3",
          "midi": 54,
          "time": 118.05764249999983,
          "velocity": 0.9763779527559056,
          "duration": 0.21133109375000458
        },
        {
          "name": "D#3",
          "midi": 51,
          "time": 118.27346999999983,
          "velocity": 0.9763779527559056,
          "duration": 0.6339932812499569
        },
        {
          "name": "F3",
          "midi": 53,
          "time": 118.91645609374979,
          "velocity": 0.9763779527559056,
          "duration": 0.409172968749985
        }
      ],
      "controlChanges": {
        "7": [
          {
            "number": 7,
            "time": 0,
            "value": 1
          },
          {
            "number": 7,
            "time": 0,
            "value": 0.889763779527559
          }
        ],
        "10": [
          {
            "number": 10,
            "time": 0,
            "value": 0.31496062992125984
          },
          {
            "number": 10,
            "time": 119.13677999999977,
            "value": 0.31496062992125984
          }
        ],
        "11": [
          {
            "number": 11,
            "time": 0,
            "value": 1
          },
          {
            "number": 11,
            "time": 119.13677999999977,
            "value": 0
          }
        ],
        "32": [
          {
            "number": 32,
            "time": 0,
            "value": 0
          },
          {
            "number": 32,
            "time": 0,
            "value": 0
          }
        ],
        "91": [
          {
            "number": 91,
            "time": 0,
            "value": 0.5905511811023622
          }
        ],
        "93": [
          {
            "number": 93,
            "time": 0,
            "value": 0.2755905511811024
          }
        ]
      },
      "id": 5,
      "name": "Untitled",
      "instrumentNumber": 29,
      "instrument": "overdriven guitar",
      "instrumentFamily": "guitar",
      "channelNumber": 4,
      "isPercussion": false
    },
    {
      "startTime": 6.6816596875,
      "duration": 119.31663624999966,
      "length": 239,
      "notes": [
        {
          "name": "D#2",
          "midi": 39,
          "time": 6.6816596875,
          "velocity": 0.9763779527559056,
          "duration": 0.4226621874999985
        },
        {
          "name": "F#2",
          "midi": 42,
          "time": 7.113314687499998,
          "velocity": 0.9763779527559056,
          "duration": 0.21133109375000014
        },
        {
          "name": "A#2",
          "midi": 46,
          "time": 7.329142187499999,
          "velocity": 0.9763779527559056,
          "duration": 0.21133109375000014
        },
        {
          "name": "F#3",
          "midi": 54,
          "time": 7.544969687499999,
          "velocity": 0.9763779527559056,
          "duration": 0.21133109375000014
        },
        {
          "name": "D#3",
          "midi": 51,
          "time": 7.7607971875,
          "velocity": 0.9763779527559056,
          "duration": 0.6339932812499978
        },
        {
          "name": "F3",
          "midi": 53,
          "time": 8.403783281249998,
          "velocity": 0.9763779527559056,
          "duration": 0.409172968750001
        },
        {
          "name": "D#3",
          "midi": 51,
          "time": 8.8399346875,
          "velocity": 0.9763779527559056,
          "duration": 0.2023382812500003
        },
        {
          "name": "C#3",
          "midi": 49,
          "time": 9.0557621875,
          "velocity": 0.9763779527559056,
          "duration": 0.17086343749999955
        },
        {
          "name": "C#3",
          "midi": 49,
          "time": 9.487417187499998,
          "velocity": 0.9763779527559056,
          "duration": 0.17985625000000027
        },
        {
          "name": "D#2",
          "midi": 39,
          "time": 10.134899687499999,
          "velocity": 0.9763779527559056,
          "duration": 0.4226621875000003
        },
        {
          "name": "F#2",
          "midi": 42,
          "time": 10.5665546875,
          "velocity": 0.9763779527559056,
          "duration": 0.20683468750000067
        },
        {
          "name": "A#2",
          "midi": 46,
          "time": 10.782382187500001,
          "velocity": 0.9763779527559056,
          "duration": 0.20683468750000067
        },
        {
          "name": "F#3",
          "midi": 54,
          "time": 10.998209687500003,
          "velocity": 0.9763779527559056,
          "duration": 0.20683468750000067
        },
        {
          "name": "D#3",
          "midi": 51,
          "time": 11.214037187500004,
          "velocity": 0.9763779527559056,
          "duration": 0.633993281249996
        },
        {
          "name": "F3",
          "midi": 53,
          "time": 11.857023281250001,
          "velocity": 0.9763779527559056,
          "duration": 0.42715859375000065
        },
        {
          "name": "D#3",
          "midi": 51,
          "time": 12.293174687500002,
          "velocity": 0.9763779527559056,
          "duration": 0.18884906249999922
        },
        {
          "name": "C#3",
          "midi": 49,
          "time": 12.509002187500002,
          "velocity": 0.9763779527559056,
          "duration": 0.18435265625000063
        },
        {
          "name": "D#2",
          "midi": 39,
          "time": 13.588139687500004,
          "velocity": 0.9763779527559056,
          "duration": 0.42715859375000065
        },
        {
          "name": "F#2",
          "midi": 42,
          "time": 14.019794687500005,
          "velocity": 0.9763779527559056,
          "duration": 0.21133109374999925
        },
        {
          "name": "A#2",
          "midi": 46,
          "time": 14.235622187500004,
          "velocity": 0.9763779527559056,
          "duration": 0.21133109374999925
        },
        {
          "name": "F#3",
          "midi": 54,
          "time": 14.451449687500004,
          "velocity": 0.9763779527559056,
          "duration": 0.21133109374999925
        },
        {
          "name": "D#3",
          "midi": 51,
          "time": 14.667277187500003,
          "velocity": 0.9763779527559056,
          "duration": 0.6339932812499978
        },
        {
          "name": "F3",
          "midi": 53,
          "time": 15.310263281250002,
          "velocity": 0.9763779527559056,
          "duration": 0.409172968750001
        },
        {
          "name": "D#3",
          "midi": 51,
          "time": 15.746414687500003,
          "velocity": 0.9763779527559056,
          "duration": 0.2023382812500003
        },
        {
          "name": "C#3",
          "midi": 49,
          "time": 15.962242187500003,
          "velocity": 0.9763779527559056,
          "duration": 0.17086343749999955
        },
        {
          "name": "C#3",
          "midi": 49,
          "time": 16.393897187500002,
          "velocity": 0.9763779527559056,
          "duration": 0.17985625000000027
        },
        {
          "name": "D#2",
          "midi": 39,
          "time": 17.0413796875,
          "velocity": 0.9763779527559056,
          "duration": 0.4226621874999985
        },
        {
          "name": "F#2",
          "midi": 42,
          "time": 17.4730346875,
          "velocity": 0.9763779527559056,
          "duration": 0.2068346874999989
        },
        {
          "name": "A#2",
          "midi": 46,
          "time": 17.6888621875,
          "velocity": 0.9763779527559056,
          "duration": 0.2068346874999989
        },
        {
          "name": "F#3",
          "midi": 54,
          "time": 17.9046896875,
          "velocity": 0.9763779527559056,
          "duration": 0.2068346874999989
        },
        {
          "name": "D#3",
          "midi": 51,
          "time": 18.1205171875,
          "velocity": 0.9763779527559056,
          "duration": 0.6339932812500138
        },
        {
          "name": "F3",
          "midi": 53,
          "time": 18.763503281250014,
          "velocity": 0.9763779527559056,
          "duration": 0.42715859375000065
        },
        {
          "name": "D#3",
          "midi": 51,
          "time": 19.19965468750001,
          "velocity": 0.9763779527559056,
          "duration": 0.188849062500001
        },
        {
          "name": "C#3",
          "midi": 49,
          "time": 19.41548218750001,
          "velocity": 0.9763779527559056,
          "duration": 0.18435265624999886
        },
        {
          "name": "D#4",
          "midi": 63,
          "time": 20.93526750000001,
          "velocity": 0.937007874015748,
          "duration": 0.17985625000000027
        },
        {
          "name": "D#4",
          "midi": 63,
          "time": 21.15109500000001,
          "velocity": 0.8976377952755905,
          "duration": 0.17985625000000027
        },
        {
          "name": "D#4",
          "midi": 63,
          "time": 21.582750000000008,
          "velocity": 0.9448818897637795,
          "duration": 0.17985625000000027
        },
        {
          "name": "C#4",
          "midi": 61,
          "time": 22.230232500000007,
          "velocity": 0.9133858267716536,
          "duration": 0.17985625000000027
        },
        {
          "name": "C#4",
          "midi": 61,
          "time": 22.446060000000006,
          "velocity": 0.9133858267716536,
          "duration": 0.17985625000000027
        },
        {
          "name": "C#4",
          "midi": 61,
          "time": 22.877715000000006,
          "velocity": 0.952755905511811,
          "duration": 0.17985625000000027
        },
        {
          "name": "D#4",
          "midi": 63,
          "time": 24.388507500000006,
          "velocity": 0.9448818897637795,
          "duration": 0.17985625000000027
        },
        {
          "name": "D#4",
          "midi": 63,
          "time": 24.604335000000006,
          "velocity": 0.9212598425196851,
          "duration": 0.17985625000000027
        },
        {
          "name": "D#4",
          "midi": 63,
          "time": 25.035990000000005,
          "velocity": 0.9448818897637795,
          "duration": 0.17985625000000027
        },
        {
          "name": "C#4",
          "midi": 61,
          "time": 25.683472500000004,
          "velocity": 0.937007874015748,
          "duration": 0.17985625000000027
        },
        {
          "name": "C#4",
          "midi": 61,
          "time": 25.899300000000004,
          "velocity": 0.9133858267716536,
          "duration": 0.17985625000000027
        },
        {
          "name": "C#4",
          "midi": 61,
          "time": 26.330955000000003,
          "velocity": 0.9448818897637795,
          "duration": 0.17985625000000027
        },
        {
          "name": "B3",
          "midi": 59,
          "time": 27.841747500000004,
          "velocity": 0.9212598425196851,
          "duration": 0.17985625000000027
        },
        {
          "name": "B3",
          "midi": 59,
          "time": 28.057575000000003,
          "velocity": 0.9212598425196851,
          "duration": 0.17985625000000027
        },
        {
          "name": "B3",
          "midi": 59,
          "time": 28.489230000000003,
          "velocity": 0.9291338582677166,
          "duration": 0.17985625000000027
        },
        {
          "name": "C#4",
          "midi": 61,
          "time": 29.1367125,
          "velocity": 0.952755905511811,
          "duration": 0.17985625000000027
        },
        {
          "name": "C#4",
          "midi": 61,
          "time": 29.35254,
          "velocity": 0.9212598425196851,
          "duration": 0.17985625000000027
        },
        {
          "name": "C#4",
          "midi": 61,
          "time": 29.784195,
          "velocity": 0.9606299212598425,
          "duration": 0.17985625000000027
        },
        {
          "name": "D#4",
          "midi": 63,
          "time": 31.2949875,
          "velocity": 0.952755905511811,
          "duration": 0.17985625000000027
        },
        {
          "name": "D#4",
          "midi": 63,
          "time": 31.510815,
          "velocity": 0.937007874015748,
          "duration": 0.17985625000000027
        },
        {
          "name": "D#4",
          "midi": 63,
          "time": 31.94247,
          "velocity": 0.952755905511811,
          "duration": 0.17985625000000027
        },
        {
          "name": "C#4",
          "midi": 61,
          "time": 32.5899525,
          "velocity": 0.952755905511811,
          "duration": 0.17985625000000027
        },
        {
          "name": "C#4",
          "midi": 61,
          "time": 32.805780000000006,
          "velocity": 0.9133858267716536,
          "duration": 0.17985625000000027
        },
        {
          "name": "C#4",
          "midi": 61,
          "time": 33.237435000000005,
          "velocity": 0.952755905511811,
          "duration": 0.17985625000000027
        },
        {
          "name": "D#4",
          "midi": 63,
          "time": 34.748227500000006,
          "velocity": 0.937007874015748,
          "duration": 0.17985625000000027
        },
        {
          "name": "D#4",
          "midi": 63,
          "time": 34.96405500000001,
          "velocity": 0.8976377952755905,
          "duration": 0.17985625000000027
        },
        {
          "name": "D#4",
          "midi": 63,
          "time": 35.39571000000001,
          "velocity": 0.9448818897637795,
          "duration": 0.17985625000000027
        },
        {
          "name": "C#4",
          "midi": 61,
          "time": 36.04319250000001,
          "velocity": 0.9133858267716536,
          "duration": 0.17985625000000027
        },
        {
          "name": "C#4",
          "midi": 61,
          "time": 36.259020000000014,
          "velocity": 0.9133858267716536,
          "duration": 0.17985625000000027
        },
        {
          "name": "C#4",
          "midi": 61,
          "time": 36.69067500000001,
          "velocity": 0.952755905511811,
          "duration": 0.17985625000000027
        },
        {
          "name": "D#4",
          "midi": 63,
          "time": 38.201467500000014,
          "velocity": 0.9448818897637795,
          "duration": 0.17985625000000027
        },
        {
          "name": "D#4",
          "midi": 63,
          "time": 38.41729500000002,
          "velocity": 0.9212598425196851,
          "duration": 0.17985625000000027
        },
        {
          "name": "D#4",
          "midi": 63,
          "time": 38.848950000000016,
          "velocity": 0.9448818897637795,
          "duration": 0.17985625000000027
        },
        {
          "name": "C#4",
          "midi": 61,
          "time": 39.49643250000002,
          "velocity": 0.937007874015748,
          "duration": 0.17985625000000027
        },
        {
          "name": "C#4",
          "midi": 61,
          "time": 39.71226000000002,
          "velocity": 0.9133858267716536,
          "duration": 0.17985625000000027
        },
        {
          "name": "C#4",
          "midi": 61,
          "time": 40.14391500000002,
          "velocity": 0.9448818897637795,
          "duration": 0.17985625000000027
        },
        {
          "name": "B3",
          "midi": 59,
          "time": 41.65470750000002,
          "velocity": 0.9212598425196851,
          "duration": 0.17985625000000027
        },
        {
          "name": "B3",
          "midi": 59,
          "time": 41.870535000000025,
          "velocity": 0.9212598425196851,
          "duration": 0.17985625000000027
        },
        {
          "name": "B3",
          "midi": 59,
          "time": 42.302190000000024,
          "velocity": 0.9291338582677166,
          "duration": 0.17985625000000027
        },
        {
          "name": "C#4",
          "midi": 61,
          "time": 42.94967250000003,
          "velocity": 0.952755905511811,
          "duration": 0.17985625000000027
        },
        {
          "name": "C#4",
          "midi": 61,
          "time": 43.16550000000003,
          "velocity": 0.9212598425196851,
          "duration": 0.17985625000000027
        },
        {
          "name": "C#4",
          "midi": 61,
          "time": 43.59715500000003,
          "velocity": 0.9606299212598425,
          "duration": 0.17985625000000027
        },
        {
          "name": "D#4",
          "midi": 63,
          "time": 45.10794750000003,
          "velocity": 0.952755905511811,
          "duration": 0.17985625000000027
        },
        {
          "name": "D#4",
          "midi": 63,
          "time": 45.32377500000003,
          "velocity": 0.937007874015748,
          "duration": 0.17985625000000027
        },
        {
          "name": "D#4",
          "midi": 63,
          "time": 45.75543000000003,
          "velocity": 0.952755905511811,
          "duration": 0.17985625000000027
        },
        {
          "name": "C#4",
          "midi": 61,
          "time": 46.402912500000035,
          "velocity": 0.952755905511811,
          "duration": 0.17985625000000027
        },
        {
          "name": "C#4",
          "midi": 61,
          "time": 46.61874000000004,
          "velocity": 0.9133858267716536,
          "duration": 0.17985625000000027
        },
        {
          "name": "C#4",
          "midi": 61,
          "time": 47.05039500000004,
          "velocity": 0.952755905511811,
          "duration": 0.17985625000000027
        },
        {
          "name": "D#2",
          "midi": 39,
          "time": 48.120539687500035,
          "velocity": 0.9763779527559056,
          "duration": 0.4226621875000163
        },
        {
          "name": "F#2",
          "midi": 42,
          "time": 48.55219468750005,
          "velocity": 0.9763779527559056,
          "duration": 0.21133109374999748
        },
        {
          "name": "A#2",
          "midi": 46,
          "time": 48.768022187500044,
          "velocity": 0.9763779527559056,
          "duration": 0.21133109374999748
        },
        {
          "name": "F#3",
          "midi": 54,
          "time": 48.98384968750004,
          "velocity": 0.9763779527559056,
          "duration": 0.21133109374999748
        },
        {
          "name": "D#3",
          "midi": 51,
          "time": 49.199677187500036,
          "velocity": 0.9763779527559056,
          "duration": 0.6339932812500138
        },
        {
          "name": "F3",
          "midi": 53,
          "time": 49.84266328125005,
          "velocity": 0.9763779527559056,
          "duration": 0.4091729687499992
        },
        {
          "name": "D#3",
          "midi": 51,
          "time": 50.278814687500045,
          "velocity": 0.9763779527559056,
          "duration": 0.2023382812500003
        },
        {
          "name": "C#3",
          "midi": 49,
          "time": 50.49464218750005,
          "velocity": 0.9763779527559056,
          "duration": 0.1708634375000031
        },
        {
          "name": "C#3",
          "midi": 49,
          "time": 50.926297187500055,
          "velocity": 0.9763779527559056,
          "duration": 0.17985625000000027
        },
        {
          "name": "D#2",
          "midi": 39,
          "time": 51.57377968750006,
          "velocity": 0.9763779527559056,
          "duration": 0.42266218750000206
        },
        {
          "name": "F#2",
          "midi": 42,
          "time": 52.005434687500056,
          "velocity": 0.9763779527559056,
          "duration": 0.2068346874999989
        },
        {
          "name": "A#2",
          "midi": 46,
          "time": 52.22126218750005,
          "velocity": 0.9763779527559056,
          "duration": 0.2068346874999989
        },
        {
          "name": "F#3",
          "midi": 54,
          "time": 52.43708968750005,
          "velocity": 0.9763779527559056,
          "duration": 0.2068346874999989
        },
        {
          "name": "D#3",
          "midi": 51,
          "time": 52.652917187500044,
          "velocity": 0.9763779527559056,
          "duration": 0.6339932812500066
        },
        {
          "name": "F3",
          "midi": 53,
          "time": 53.29590328125005,
          "velocity": 0.9763779527559056,
          "duration": 0.42715859375000065
        },
        {
          "name": "D#3",
          "midi": 51,
          "time": 53.732054687500046,
          "velocity": 0.9763779527559056,
          "duration": 0.18884906249999744
        },
        {
          "name": "C#3",
          "midi": 49,
          "time": 53.94788218750004,
          "velocity": 0.9763779527559056,
          "duration": 0.18435265624999886
        },
        {
          "name": "D#2",
          "midi": 39,
          "time": 55.02701968750004,
          "velocity": 0.9763779527559056,
          "duration": 0.42715859375000065
        },
        {
          "name": "F#2",
          "midi": 42,
          "time": 55.458674687500036,
          "velocity": 0.9763779527559056,
          "duration": 0.21133109374999748
        },
        {
          "name": "A#2",
          "midi": 46,
          "time": 55.67450218750003,
          "velocity": 0.9763779527559056,
          "duration": 0.21133109374999748
        },
        {
          "name": "F#3",
          "midi": 54,
          "time": 55.89032968750003,
          "velocity": 0.9763779527559056,
          "duration": 0.21133109374999748
        },
        {
          "name": "D#3",
          "midi": 51,
          "time": 56.106157187500024,
          "velocity": 0.9763779527559056,
          "duration": 0.6339932812500138
        },
        {
          "name": "F3",
          "midi": 53,
          "time": 56.749143281250035,
          "velocity": 0.9763779527559056,
          "duration": 0.4091729687499992
        },
        {
          "name": "D#3",
          "midi": 51,
          "time": 57.18529468750003,
          "velocity": 0.9763779527559056,
          "duration": 0.2023382812500003
        },
        {
          "name": "C#3",
          "midi": 49,
          "time": 57.401122187500036,
          "velocity": 0.9763779527559056,
          "duration": 0.1708634375000031
        },
        {
          "name": "C#3",
          "midi": 49,
          "time": 57.83277718750004,
          "velocity": 0.9763779527559056,
          "duration": 0.17985625000000027
        },
        {
          "name": "D#2",
          "midi": 39,
          "time": 58.480259687500045,
          "velocity": 0.9763779527559056,
          "duration": 0.42266218750000206
        },
        {
          "name": "F#2",
          "midi": 42,
          "time": 58.911914687500044,
          "velocity": 0.9763779527559056,
          "duration": 0.2068346874999989
        },
        {
          "name": "A#2",
          "midi": 46,
          "time": 59.12774218750004,
          "velocity": 0.9763779527559056,
          "duration": 0.2068346874999989
        },
        {
          "name": "F#3",
          "midi": 54,
          "time": 59.343569687500036,
          "velocity": 0.9763779527559056,
          "duration": 0.2068346874999989
        },
        {
          "name": "D#3",
          "midi": 51,
          "time": 59.55939718750003,
          "velocity": 0.9763779527559056,
          "duration": 0.6339932812500209
        },
        {
          "name": "F3",
          "midi": 53,
          "time": 60.20238328125005,
          "velocity": 0.9763779527559056,
          "duration": 0.42715859375000065
        },
        {
          "name": "D#3",
          "midi": 51,
          "time": 60.63853468750005,
          "velocity": 0.9763779527559056,
          "duration": 0.18884906249999744
        },
        {
          "name": "C#3",
          "midi": 49,
          "time": 60.854362187500044,
          "velocity": 0.9763779527559056,
          "duration": 0.18435265624999886
        },
        {
          "name": "D#2",
          "midi": 39,
          "time": 61.93349968750004,
          "velocity": 0.9763779527559056,
          "duration": 0.42715859375000065
        },
        {
          "name": "F#2",
          "midi": 42,
          "time": 62.36515468750004,
          "velocity": 0.9763779527559056,
          "duration": 0.21133109374999748
        },
        {
          "name": "A#2",
          "midi": 46,
          "time": 62.580982187500034,
          "velocity": 0.9763779527559056,
          "duration": 0.21133109374999748
        },
        {
          "name": "F#3",
          "midi": 54,
          "time": 62.79680968750003,
          "velocity": 0.9763779527559056,
          "duration": 0.21133109374999748
        },
        {
          "name": "D#3",
          "midi": 51,
          "time": 63.012637187500026,
          "velocity": 0.9763779527559056,
          "duration": 0.6339932812499995
        },
        {
          "name": "F3",
          "midi": 53,
          "time": 63.65562328125002,
          "velocity": 0.9763779527559056,
          "duration": 0.4091729687500063
        },
        {
          "name": "D#3",
          "midi": 51,
          "time": 64.09177468750002,
          "velocity": 0.9763779527559056,
          "duration": 0.2023382812499932
        },
        {
          "name": "C#3",
          "midi": 49,
          "time": 64.30760218750001,
          "velocity": 0.9763779527559056,
          "duration": 0.1708634375000031
        },
        {
          "name": "C#3",
          "midi": 49,
          "time": 64.73925718750002,
          "velocity": 0.9763779527559056,
          "duration": 0.17985625000000027
        },
        {
          "name": "D#2",
          "midi": 39,
          "time": 65.38673968750001,
          "velocity": 0.9763779527559056,
          "duration": 0.42266218749999496
        },
        {
          "name": "F#2",
          "midi": 42,
          "time": 65.8183946875,
          "velocity": 0.9763779527559056,
          "duration": 0.206834687500006
        },
        {
          "name": "A#2",
          "midi": 46,
          "time": 66.0342221875,
          "velocity": 0.9763779527559056,
          "duration": 0.206834687500006
        },
        {
          "name": "F#3",
          "midi": 54,
          "time": 66.25004968750001,
          "velocity": 0.9763779527559056,
          "duration": 0.206834687500006
        },
        {
          "name": "D#3",
          "midi": 51,
          "time": 66.46587718750001,
          "velocity": 0.9763779527559056,
          "duration": 0.6339932812499285
        },
        {
          "name": "F3",
          "midi": 53,
          "time": 67.10886328124994,
          "velocity": 0.9763779527559056,
          "duration": 0.42715859374997933
        },
        {
          "name": "D#3",
          "midi": 51,
          "time": 67.54501468749991,
          "velocity": 0.9763779527559056,
          "duration": 0.18884906249999744
        },
        {
          "name": "C#3",
          "midi": 49,
          "time": 67.76084218749992,
          "velocity": 0.9763779527559056,
          "duration": 0.18435265624999886
        },
        {
          "name": "D#4",
          "midi": 63,
          "time": 69.28062749999992,
          "velocity": 0.937007874015748,
          "duration": 0.17985625000000027
        },
        {
          "name": "D#4",
          "midi": 63,
          "time": 69.49645499999993,
          "velocity": 0.8976377952755905,
          "duration": 0.17985625000000027
        },
        {
          "name": "D#4",
          "midi": 63,
          "time": 69.92810999999993,
          "velocity": 0.9448818897637795,
          "duration": 0.17985625000000027
        },
        {
          "name": "C#4",
          "midi": 61,
          "time": 70.57559249999993,
          "velocity": 0.9133858267716536,
          "duration": 0.17985625000000027
        },
        {
          "name": "C#4",
          "midi": 61,
          "time": 70.79141999999993,
          "velocity": 0.9133858267716536,
          "duration": 0.17985625000000027
        },
        {
          "name": "C#4",
          "midi": 61,
          "time": 71.22307499999994,
          "velocity": 0.952755905511811,
          "duration": 0.17985625000000027
        },
        {
          "name": "D#4",
          "midi": 63,
          "time": 72.73386749999993,
          "velocity": 0.9448818897637795,
          "duration": 0.17985625000000027
        },
        {
          "name": "D#4",
          "midi": 63,
          "time": 72.94969499999993,
          "velocity": 0.9212598425196851,
          "duration": 0.17985625000000027
        },
        {
          "name": "D#4",
          "midi": 63,
          "time": 73.38134999999994,
          "velocity": 0.9448818897637795,
          "duration": 0.17985625000000027
        },
        {
          "name": "C#4",
          "midi": 61,
          "time": 74.02883249999994,
          "velocity": 0.937007874015748,
          "duration": 0.17985625000000027
        },
        {
          "name": "C#4",
          "midi": 61,
          "time": 74.24465999999994,
          "velocity": 0.9133858267716536,
          "duration": 0.17985625000000027
        },
        {
          "name": "C#4",
          "midi": 61,
          "time": 74.67631499999995,
          "velocity": 0.9448818897637795,
          "duration": 0.17985625000000027
        },
        {
          "name": "B3",
          "midi": 59,
          "time": 76.18710749999994,
          "velocity": 0.9212598425196851,
          "duration": 0.17985625000000027
        },
        {
          "name": "B3",
          "midi": 59,
          "time": 76.40293499999994,
          "velocity": 0.9212598425196851,
          "duration": 0.17985625000000027
        },
        {
          "name": "B3",
          "midi": 59,
          "time": 76.83458999999995,
          "velocity": 0.9291338582677166,
          "duration": 0.17985625000000027
        },
        {
          "name": "C#4",
          "midi": 61,
          "time": 77.48207249999994,
          "velocity": 0.952755905511811,
          "duration": 0.17985625000000027
        },
        {
          "name": "C#4",
          "midi": 61,
          "time": 77.69789999999995,
          "velocity": 0.9212598425196851,
          "duration": 0.17985625000000027
        },
        {
          "name": "C#4",
          "midi": 61,
          "time": 78.12955499999995,
          "velocity": 0.9606299212598425,
          "duration": 0.17985625000000027
        },
        {
          "name": "D#4",
          "midi": 63,
          "time": 79.64034749999995,
          "velocity": 0.952755905511811,
          "duration": 0.17985625000000027
        },
        {
          "name": "D#4",
          "midi": 63,
          "time": 79.85617499999995,
          "velocity": 0.937007874015748,
          "duration": 0.17985625000000027
        },
        {
          "name": "D#4",
          "midi": 63,
          "time": 80.28782999999996,
          "velocity": 0.952755905511811,
          "duration": 0.17985625000000027
        },
        {
          "name": "C#4",
          "midi": 61,
          "time": 80.93531249999995,
          "velocity": 0.952755905511811,
          "duration": 0.17985625000000027
        },
        {
          "name": "C#4",
          "midi": 61,
          "time": 81.15113999999996,
          "velocity": 0.9133858267716536,
          "duration": 0.17985625000000027
        },
        {
          "name": "C#4",
          "midi": 61,
          "time": 81.58279499999996,
          "velocity": 0.952755905511811,
          "duration": 0.17985625000000027
        },
        {
          "name": "D#4",
          "midi": 63,
          "time": 83.09358749999996,
          "velocity": 0.937007874015748,
          "duration": 0.17985625000000027
        },
        {
          "name": "D#4",
          "midi": 63,
          "time": 83.30941499999996,
          "velocity": 0.8976377952755905,
          "duration": 0.17985625000000027
        },
        {
          "name": "D#4",
          "midi": 63,
          "time": 83.74106999999997,
          "velocity": 0.9448818897637795,
          "duration": 0.17985625000000027
        },
        {
          "name": "C#4",
          "midi": 61,
          "time": 84.38855249999996,
          "velocity": 0.9133858267716536,
          "duration": 0.17985625000000027
        },
        {
          "name": "C#4",
          "midi": 61,
          "time": 84.60437999999996,
          "velocity": 0.9133858267716536,
          "duration": 0.17985625000000027
        },
        {
          "name": "C#4",
          "midi": 61,
          "time": 85.03603499999997,
          "velocity": 0.952755905511811,
          "duration": 0.17985625000000027
        },
        {
          "name": "D#4",
          "midi": 63,
          "time": 86.54682749999996,
          "velocity": 0.9448818897637795,
          "duration": 0.17985625000000027
        },
        {
          "name": "D#4",
          "midi": 63,
          "time": 86.76265499999997,
          "velocity": 0.9212598425196851,
          "duration": 0.17985625000000027
        },
        {
          "name": "D#4",
          "midi": 63,
          "time": 87.19430999999997,
          "velocity": 0.9448818897637795,
          "duration": 0.17985625000000027
        },
        {
          "name": "C#4",
          "midi": 61,
          "time": 87.84179249999997,
          "velocity": 0.937007874015748,
          "duration": 0.17985625000000027
        },
        {
          "name": "C#4",
          "midi": 61,
          "time": 88.05761999999997,
          "velocity": 0.9133858267716536,
          "duration": 0.17985625000000027
        },
        {
          "name": "C#4",
          "midi": 61,
          "time": 88.48927499999998,
          "velocity": 0.9448818897637795,
          "duration": 0.17985625000000027
        },
        {
          "name": "B3",
          "midi": 59,
          "time": 90.00006749999997,
          "velocity": 0.9212598425196851,
          "duration": 0.17985625000000027
        },
        {
          "name": "B3",
          "midi": 59,
          "time": 90.21589499999997,
          "velocity": 0.9212598425196851,
          "duration": 0.17985625000000027
        },
        {
          "name": "B3",
          "midi": 59,
          "time": 90.64754999999998,
          "velocity": 0.9291338582677166,
          "duration": 0.17985625000000027
        },
        {
          "name": "C#4",
          "midi": 61,
          "time": 91.29503249999998,
          "velocity": 0.952755905511811,
          "duration": 0.17985625000000027
        },
        {
          "name": "C#4",
          "midi": 61,
          "time": 91.51085999999998,
          "velocity": 0.9212598425196851,
          "duration": 0.17985625000000027
        },
        {
          "name": "C#4",
          "midi": 61,
          "time": 91.94251499999999,
          "velocity": 0.9606299212598425,
          "duration": 0.17985625000000027
        },
        {
          "name": "D#4",
          "midi": 63,
          "time": 93.45330749999998,
          "velocity": 0.952755905511811,
          "duration": 0.17985625000000027
        },
        {
          "name": "D#4",
          "midi": 63,
          "time": 93.66913499999998,
          "velocity": 0.937007874015748,
          "duration": 0.17985625000000027
        },
        {
          "name": "D#4",
          "midi": 63,
          "time": 94.10078999999999,
          "velocity": 0.952755905511811,
          "duration": 0.17985625000000027
        },
        {
          "name": "C#4",
          "midi": 61,
          "time": 94.74827249999998,
          "velocity": 0.952755905511811,
          "duration": 0.17985625000000027
        },
        {
          "name": "C#4",
          "midi": 61,
          "time": 94.96409999999999,
          "velocity": 0.9133858267716536,
          "duration": 0.17985625000000027
        },
        {
          "name": "C#4",
          "midi": 61,
          "time": 95.395755,
          "velocity": 0.952755905511811,
          "duration": 0.17985625000000027
        },
        {
          "name": "F#2",
          "midi": 42,
          "time": 96.2500721875,
          "velocity": 0.952755905511811,
          "duration": 0.17985625000000027
        },
        {
          "name": "D#2",
          "midi": 39,
          "time": 96.4658996875,
          "velocity": 0.9763779527559056,
          "duration": 0.42266218749999496
        },
        {
          "name": "F#2",
          "midi": 42,
          "time": 96.89755468749999,
          "velocity": 0.9763779527559056,
          "duration": 0.21133109375000458
        },
        {
          "name": "A#2",
          "midi": 46,
          "time": 97.1133821875,
          "velocity": 0.9763779527559056,
          "duration": 0.21133109375000458
        },
        {
          "name": "F#3",
          "midi": 54,
          "time": 97.3292096875,
          "velocity": 0.9763779527559056,
          "duration": 0.21133109375000458
        },
        {
          "name": "D#3",
          "midi": 51,
          "time": 97.5450371875,
          "velocity": 0.9763779527559056,
          "duration": 0.6339932812499853
        },
        {
          "name": "F3",
          "midi": 53,
          "time": 98.18802328124998,
          "velocity": 0.9763779527559056,
          "duration": 0.4091729687499992
        },
        {
          "name": "D#3",
          "midi": 51,
          "time": 98.62417468749997,
          "velocity": 0.9763779527559056,
          "duration": 0.2023382812499932
        },
        {
          "name": "C#3",
          "midi": 49,
          "time": 98.84000218749996,
          "velocity": 0.9763779527559056,
          "duration": 0.1708634375000031
        },
        {
          "name": "C#3",
          "midi": 49,
          "time": 99.27165718749997,
          "velocity": 0.9763779527559056,
          "duration": 0.17985625000000027
        },
        {
          "name": "D#2",
          "midi": 39,
          "time": 99.91913968749996,
          "velocity": 0.9763779527559056,
          "duration": 0.42266218749999496
        },
        {
          "name": "F#2",
          "midi": 42,
          "time": 100.35079468749996,
          "velocity": 0.9763779527559056,
          "duration": 0.206834687500006
        },
        {
          "name": "A#2",
          "midi": 46,
          "time": 100.56662218749996,
          "velocity": 0.9763779527559056,
          "duration": 0.206834687500006
        },
        {
          "name": "F#3",
          "midi": 54,
          "time": 100.78244968749996,
          "velocity": 0.9763779527559056,
          "duration": 0.206834687500006
        },
        {
          "name": "D#3",
          "midi": 51,
          "time": 100.99827718749997,
          "velocity": 0.9763779527559056,
          "duration": 0.6339932812499995
        },
        {
          "name": "F3",
          "midi": 53,
          "time": 101.64126328124996,
          "velocity": 0.9763779527559056,
          "duration": 0.42715859374999354
        },
        {
          "name": "D#3",
          "midi": 51,
          "time": 102.07741468749995,
          "velocity": 0.9763779527559056,
          "duration": 0.18884906249999744
        },
        {
          "name": "C#3",
          "midi": 49,
          "time": 102.29324218749996,
          "velocity": 0.9763779527559056,
          "duration": 0.18435265624999886
        },
        {
          "name": "D#2",
          "midi": 39,
          "time": 103.37237968749996,
          "velocity": 0.9763779527559056,
          "duration": 0.42715859374999354
        },
        {
          "name": "F#2",
          "midi": 42,
          "time": 103.80403468749995,
          "velocity": 0.9763779527559056,
          "duration": 0.21133109375000458
        },
        {
          "name": "A#2",
          "midi": 46,
          "time": 104.01986218749995,
          "velocity": 0.9763779527559056,
          "duration": 0.21133109375000458
        },
        {
          "name": "F#3",
          "midi": 54,
          "time": 104.23568968749996,
          "velocity": 0.9763779527559056,
          "duration": 0.21133109375000458
        },
        {
          "name": "D#3",
          "midi": 51,
          "time": 104.45151718749996,
          "velocity": 0.9763779527559056,
          "duration": 0.6339932812499569
        },
        {
          "name": "F3",
          "midi": 53,
          "time": 105.09450328124991,
          "velocity": 0.9763779527559056,
          "duration": 0.4091729687499992
        },
        {
          "name": "D#3",
          "midi": 51,
          "time": 105.5306546874999,
          "velocity": 0.9763779527559056,
          "duration": 0.2023382812499932
        },
        {
          "name": "C#3",
          "midi": 49,
          "time": 105.7464821874999,
          "velocity": 0.9763779527559056,
          "duration": 0.1708634375000031
        },
        {
          "name": "C#3",
          "midi": 49,
          "time": 106.1781371874999,
          "velocity": 0.9763779527559056,
          "duration": 0.17985625000000027
        },
        {
          "name": "D#2",
          "midi": 39,
          "time": 106.8256196874999,
          "velocity": 0.9763779527559056,
          "duration": 0.42266218749999496
        },
        {
          "name": "F#2",
          "midi": 42,
          "time": 107.25727468749989,
          "velocity": 0.9763779527559056,
          "duration": 0.206834687500006
        },
        {
          "name": "A#2",
          "midi": 46,
          "time": 107.47310218749989,
          "velocity": 0.9763779527559056,
          "duration": 0.206834687500006
        },
        {
          "name": "F#3",
          "midi": 54,
          "time": 107.6889296874999,
          "velocity": 0.9763779527559056,
          "duration": 0.206834687500006
        },
        {
          "name": "D#3",
          "midi": 51,
          "time": 107.9047571874999,
          "velocity": 0.9763779527559056,
          "duration": 0.6339932812499285
        },
        {
          "name": "F3",
          "midi": 53,
          "time": 108.54774328124982,
          "velocity": 0.9763779527559056,
          "duration": 0.42715859374999354
        },
        {
          "name": "D#3",
          "midi": 51,
          "time": 108.98389468749981,
          "velocity": 0.9763779527559056,
          "duration": 0.18884906249999744
        },
        {
          "name": "C#3",
          "midi": 49,
          "time": 109.19972218749982,
          "velocity": 0.9763779527559056,
          "duration": 0.18435265624999886
        },
        {
          "name": "D#2",
          "midi": 39,
          "time": 110.27885968749982,
          "velocity": 0.9763779527559056,
          "duration": 0.42715859374999354
        },
        {
          "name": "F#2",
          "midi": 42,
          "time": 110.71051468749981,
          "velocity": 0.9763779527559056,
          "duration": 0.21133109375000458
        },
        {
          "name": "A#2",
          "midi": 46,
          "time": 110.92634218749981,
          "velocity": 0.9763779527559056,
          "duration": 0.21133109375000458
        },
        {
          "name": "F#3",
          "midi": 54,
          "time": 111.14216968749982,
          "velocity": 0.9763779527559056,
          "duration": 0.21133109375000458
        },
        {
          "name": "D#3",
          "midi": 51,
          "time": 111.35799718749982,
          "velocity": 0.9763779527559056,
          "duration": 0.6339932812499711
        },
        {
          "name": "F3",
          "midi": 53,
          "time": 112.00098328124979,
          "velocity": 0.9763779527559056,
          "duration": 0.4091729687499992
        },
        {
          "name": "D#3",
          "midi": 51,
          "time": 112.43713468749978,
          "velocity": 0.9763779527559056,
          "duration": 0.2023382812499932
        },
        {
          "name": "C#3",
          "midi": 49,
          "time": 112.65296218749977,
          "velocity": 0.9763779527559056,
          "duration": 0.1708634375000031
        },
        {
          "name": "C#3",
          "midi": 49,
          "time": 113.08461718749977,
          "velocity": 0.9763779527559056,
          "duration": 0.17985625000000027
        },
        {
          "name": "D#2",
          "midi": 39,
          "time": 113.73209968749977,
          "velocity": 0.9763779527559056,
          "duration": 0.42266218749999496
        },
        {
          "name": "F#2",
          "midi": 42,
          "time": 114.16375468749976,
          "velocity": 0.9763779527559056,
          "duration": 0.206834687500006
        },
        {
          "name": "A#2",
          "midi": 46,
          "time": 114.37958218749976,
          "velocity": 0.9763779527559056,
          "duration": 0.206834687500006
        },
        {
          "name": "F#3",
          "midi": 54,
          "time": 114.59540968749977,
          "velocity": 0.9763779527559056,
          "duration": 0.206834687500006
        },
        {
          "name": "D#3",
          "midi": 51,
          "time": 114.81123718749977,
          "velocity": 0.9763779527559056,
          "duration": 0.6339932812499285
        },
        {
          "name": "F3",
          "midi": 53,
          "time": 115.4542232812497,
          "velocity": 0.9763779527559056,
          "duration": 0.42715859374997933
        },
        {
          "name": "D#3",
          "midi": 51,
          "time": 115.89037468749967,
          "velocity": 0.9763779527559056,
          "duration": 0.18884906249999744
        },
        {
          "name": "C#3",
          "midi": 49,
          "time": 116.10620218749968,
          "velocity": 0.9763779527559056,
          "duration": 0.18435265624999886
        },
        {
          "name": "D#2",
          "midi": 39,
          "time": 117.18533968749968,
          "velocity": 0.9763779527559056,
          "duration": 0.42715859374999354
        },
        {
          "name": "F#2",
          "midi": 42,
          "time": 117.61699468749967,
          "velocity": 0.9763779527559056,
          "duration": 0.21133109375000458
        },
        {
          "name": "A#2",
          "midi": 46,
          "time": 117.83282218749967,
          "velocity": 0.9763779527559056,
          "duration": 0.21133109375000458
        },
        {
          "name": "F#3",
          "midi": 54,
          "time": 118.04864968749968,
          "velocity": 0.9763779527559056,
          "duration": 0.21133109375000458
        },
        {
          "name": "D#3",
          "midi": 51,
          "time": 118.26447718749968,
          "velocity": 0.9763779527559056,
          "duration": 0.6339932812499853
        },
        {
          "name": "F3",
          "midi": 53,
          "time": 118.90746328124966,
          "velocity": 0.9763779527559056,
          "duration": 0.4091729687499992
        }
      ],
      "controlChanges": {
        "7": [
          {
            "number": 7,
            "time": 0,
            "value": 1
          },
          {
            "number": 7,
            "time": 0,
            "value": 0.9212598425196851
          }
        ],
        "10": [
          {
            "number": 10,
            "time": 0,
            "value": 0.6929133858267716
          }
        ],
        "11": [
          {
            "number": 11,
            "time": 0,
            "value": 1
          },
          {
            "number": 11,
            "time": 119.13677999999966,
            "value": 0
          }
        ],
        "32": [
          {
            "number": 32,
            "time": 0,
            "value": 0
          },
          {
            "number": 32,
            "time": 0,
            "value": 0
          }
        ],
        "91": [
          {
            "number": 91,
            "time": 0,
            "value": 0.5905511811023622
          }
        ],
        "93": [
          {
            "number": 93,
            "time": 0,
            "value": 0.25196850393700787
          }
        ]
      },
      "id": 6,
      "name": "Untitled",
      "instrumentNumber": 30,
      "instrument": "distortion guitar",
      "instrumentFamily": "guitar",
      "channelNumber": 5,
      "isPercussion": false
    },
    {
      "startTime": 13.59263609375,
      "duration": 20.66548312499999,
      "length": 127,
      "notes": [
        {
          "name": "A#4",
          "midi": 70,
          "time": 13.59263609375,
          "velocity": 1,
          "duration": 0.008992812500000724
        },
        {
          "name": "D#5",
          "midi": 75,
          "time": 13.5971325,
          "velocity": 1,
          "duration": 0.013489218750001086
        },
        {
          "name": "A#4",
          "midi": 70,
          "time": 13.705046250000002,
          "velocity": 1,
          "duration": 0.013489218750001086
        },
        {
          "name": "C4",
          "midi": 60,
          "time": 13.709542656250003,
          "velocity": 1,
          "duration": 0.013489218750001086
        },
        {
          "name": "D#5",
          "midi": 75,
          "time": 13.812960000000004,
          "velocity": 1,
          "duration": 0.013489218750001086
        },
        {
          "name": "C4",
          "midi": 60,
          "time": 13.817456406250004,
          "velocity": 1,
          "duration": 0.013489218750001086
        },
        {
          "name": "A#4",
          "midi": 70,
          "time": 13.920873750000005,
          "velocity": 1,
          "duration": 0.013489218750001086
        },
        {
          "name": "G3",
          "midi": 55,
          "time": 13.925370156250006,
          "velocity": 1,
          "duration": 0.013489218750001086
        },
        {
          "name": "G#4",
          "midi": 68,
          "time": 14.024291093750007,
          "velocity": 1,
          "duration": 0.013489218750001086
        },
        {
          "name": "C4",
          "midi": 60,
          "time": 14.028787500000007,
          "velocity": 1,
          "duration": 0.013489218750001086
        },
        {
          "name": "C#4",
          "midi": 61,
          "time": 14.132204843750008,
          "velocity": 1,
          "duration": 0.013489218750001086
        },
        {
          "name": "G#3",
          "midi": 56,
          "time": 14.141197656250009,
          "velocity": 1,
          "duration": 0.013489218750001086
        },
        {
          "name": "F#4",
          "midi": 66,
          "time": 14.24011859375001,
          "velocity": 1,
          "duration": 0.19334546875000136
        },
        {
          "name": "C#4",
          "midi": 61,
          "time": 14.24911140625001,
          "velocity": 1,
          "duration": 0.19334546875000136
        },
        {
          "name": "G#3",
          "midi": 56,
          "time": 14.460442500000012,
          "velocity": 0.9291338582677166,
          "duration": 0.013489218750001086
        },
        {
          "name": "C#4",
          "midi": 61,
          "time": 14.464938906250012,
          "velocity": 0.952755905511811,
          "duration": 0.013489218750001086
        },
        {
          "name": "C#4",
          "midi": 61,
          "time": 14.563859843750013,
          "velocity": 0.9606299212598425,
          "duration": 0.013489218750001086
        },
        {
          "name": "G#3",
          "midi": 56,
          "time": 14.568356250000013,
          "velocity": 0.9606299212598425,
          "duration": 0.013489218750001086
        },
        {
          "name": "F#4",
          "midi": 66,
          "time": 14.671773593750014,
          "velocity": 1,
          "duration": 0.19334546875000136
        },
        {
          "name": "C#4",
          "midi": 61,
          "time": 14.680766406250015,
          "velocity": 1,
          "duration": 0.19334546875000136
        },
        {
          "name": "D#4",
          "midi": 63,
          "time": 14.887601093750016,
          "velocity": 0.9921259842519685,
          "duration": 0.4091729687499992
        },
        {
          "name": "A#3",
          "midi": 58,
          "time": 14.896593906250017,
          "velocity": 1,
          "duration": 0.4091729687499992
        },
        {
          "name": "D#4",
          "midi": 63,
          "time": 15.319256093750015,
          "velocity": 0.9763779527559056,
          "duration": 0.013489218750001086
        },
        {
          "name": "A#3",
          "midi": 58,
          "time": 15.328248906250016,
          "velocity": 0.9763779527559056,
          "duration": 0.013489218750001086
        },
        {
          "name": "D#4",
          "midi": 63,
          "time": 15.427169843750017,
          "velocity": 0.9763779527559056,
          "duration": 0.013489218750001086
        },
        {
          "name": "A#3",
          "midi": 58,
          "time": 15.431666250000017,
          "velocity": 0.984251968503937,
          "duration": 0.013489218750001086
        },
        {
          "name": "A#4",
          "midi": 70,
          "time": 15.539580000000017,
          "velocity": 0.968503937007874,
          "duration": 0.19334546874999958
        },
        {
          "name": "C#4",
          "midi": 61,
          "time": 15.544076406250017,
          "velocity": 1,
          "duration": 0.19334546874999958
        },
        {
          "name": "G#3",
          "midi": 56,
          "time": 15.755407500000016,
          "velocity": 0.9606299212598425,
          "duration": 0.013489218750001086
        },
        {
          "name": "C#4",
          "midi": 61,
          "time": 15.759903906250017,
          "velocity": 0.952755905511811,
          "duration": 0.013489218750001086
        },
        {
          "name": "C#4",
          "midi": 61,
          "time": 15.858824843750018,
          "velocity": 0.968503937007874,
          "duration": 0.013489218750001086
        },
        {
          "name": "G#3",
          "midi": 56,
          "time": 15.863321250000018,
          "velocity": 0.984251968503937,
          "duration": 0.013489218750001086
        },
        {
          "name": "C#4",
          "midi": 61,
          "time": 15.97123500000002,
          "velocity": 1,
          "duration": 0.19334546875000136
        },
        {
          "name": "F4",
          "midi": 65,
          "time": 15.97573140625002,
          "velocity": 0.9606299212598425,
          "duration": 0.19334546874999958
        },
        {
          "name": "C#4",
          "midi": 61,
          "time": 16.18256609375002,
          "velocity": 0.9921259842519685,
          "duration": 0.5170867187500043
        },
        {
          "name": "G#3",
          "midi": 56,
          "time": 16.19155890625002,
          "velocity": 1,
          "duration": 0.5125903125000022
        },
        {
          "name": "C4",
          "midi": 60,
          "time": 16.70864562500002,
          "velocity": 0.937007874015748,
          "duration": 0.035971249999999344
        },
        {
          "name": "G3",
          "midi": 55,
          "time": 16.70864562500002,
          "velocity": 0.937007874015748,
          "duration": 0.035971249999999344
        },
        {
          "name": "F#3",
          "midi": 54,
          "time": 16.74461687500002,
          "velocity": 0.9291338582677166,
          "duration": 0.035971249999999344
        },
        {
          "name": "B3",
          "midi": 59,
          "time": 16.74461687500002,
          "velocity": 0.9291338582677166,
          "duration": 0.035971249999999344
        },
        {
          "name": "F3",
          "midi": 53,
          "time": 16.78058812500002,
          "velocity": 0.9212598425196851,
          "duration": 0.035971249999999344
        },
        {
          "name": "A#3",
          "midi": 58,
          "time": 16.78058812500002,
          "velocity": 0.9212598425196851,
          "duration": 0.035971249999999344
        },
        {
          "name": "E3",
          "midi": 52,
          "time": 16.81655937500002,
          "velocity": 0.9133858267716536,
          "duration": 0.035971249999999344
        },
        {
          "name": "A3",
          "midi": 57,
          "time": 16.81655937500002,
          "velocity": 0.9133858267716536,
          "duration": 0.035971249999999344
        },
        {
          "name": "D#3",
          "midi": 51,
          "time": 16.852530625000018,
          "velocity": 0.9133858267716536,
          "duration": 0.035971249999999344
        },
        {
          "name": "G#3",
          "midi": 56,
          "time": 16.852530625000018,
          "velocity": 0.9133858267716536,
          "duration": 0.035971249999999344
        },
        {
          "name": "D3",
          "midi": 50,
          "time": 16.888501875000017,
          "velocity": 0.905511811023622,
          "duration": 0.035971249999999344
        },
        {
          "name": "G3",
          "midi": 55,
          "time": 16.888501875000017,
          "velocity": 0.905511811023622,
          "duration": 0.035971249999999344
        },
        {
          "name": "F#3",
          "midi": 54,
          "time": 16.924473125000016,
          "velocity": 0.905511811023622,
          "duration": 0.035971249999999344
        },
        {
          "name": "C#3",
          "midi": 49,
          "time": 16.924473125000016,
          "velocity": 0.905511811023622,
          "duration": 0.035971249999999344
        },
        {
          "name": "C3",
          "midi": 48,
          "time": 16.960444375000016,
          "velocity": 0.8976377952755905,
          "duration": 0.035971249999999344
        },
        {
          "name": "F3",
          "midi": 53,
          "time": 16.960444375000016,
          "velocity": 0.8976377952755905,
          "duration": 0.035971249999999344
        },
        {
          "name": "E3",
          "midi": 52,
          "time": 16.996415625000015,
          "velocity": 0.8976377952755905,
          "duration": 0.035971249999999344
        },
        {
          "name": "B2",
          "midi": 47,
          "time": 16.996415625000015,
          "velocity": 0.8976377952755905,
          "duration": 0.035971249999999344
        },
        {
          "name": "A#2",
          "midi": 46,
          "time": 17.032386875000014,
          "velocity": 0.889763779527559,
          "duration": 0.035971249999999344
        },
        {
          "name": "D#3",
          "midi": 51,
          "time": 17.032386875000014,
          "velocity": 0.889763779527559,
          "duration": 0.035971249999999344
        },
        {
          "name": "A2",
          "midi": 45,
          "time": 17.068358125000014,
          "velocity": 0.8818897637795275,
          "duration": 0.035971249999999344
        },
        {
          "name": "D3",
          "midi": 50,
          "time": 17.068358125000014,
          "velocity": 0.8818897637795275,
          "duration": 0.035971249999999344
        },
        {
          "name": "G#2",
          "midi": 44,
          "time": 17.104329375000013,
          "velocity": 0.8818897637795275,
          "duration": 0.035971249999999344
        },
        {
          "name": "C#3",
          "midi": 49,
          "time": 17.104329375000013,
          "velocity": 0.8503937007874016,
          "duration": 0.035971249999999344
        },
        {
          "name": "G2",
          "midi": 43,
          "time": 17.140300625000013,
          "velocity": 0.8503937007874016,
          "duration": 0.035971249999999344
        },
        {
          "name": "C3",
          "midi": 48,
          "time": 17.140300625000013,
          "velocity": 0.8110236220472441,
          "duration": 0.035971249999999344
        },
        {
          "name": "F#2",
          "midi": 42,
          "time": 17.176271875000012,
          "velocity": 0.8110236220472441,
          "duration": 0.035971249999999344
        },
        {
          "name": "B2",
          "midi": 47,
          "time": 17.176271875000012,
          "velocity": 0.7637795275590551,
          "duration": 0.035971249999999344
        },
        {
          "name": "F2",
          "midi": 41,
          "time": 17.21224312500001,
          "velocity": 0.7637795275590551,
          "duration": 0.035971249999999344
        },
        {
          "name": "A#2",
          "midi": 46,
          "time": 17.21224312500001,
          "velocity": 0.7637795275590551,
          "duration": 0.035971249999999344
        },
        {
          "name": "A2",
          "midi": 45,
          "time": 17.24821437500001,
          "velocity": 0.7637795275590551,
          "duration": 0.035971249999999344
        },
        {
          "name": "E2",
          "midi": 40,
          "time": 17.24821437500001,
          "velocity": 0.7637795275590551,
          "duration": 0.035971249999999344
        },
        {
          "name": "C#4",
          "midi": 61,
          "time": 17.266200000000012,
          "velocity": 0.9763779527559056,
          "duration": 0.01348921874999931
        },
        {
          "name": "G#3",
          "midi": 56,
          "time": 17.27069640625001,
          "velocity": 1,
          "duration": 0.01348921874999931
        },
        {
          "name": "G#3",
          "midi": 56,
          "time": 17.37861015625001,
          "velocity": 1,
          "duration": 0.004496406249998586
        },
        {
          "name": "C#4",
          "midi": 61,
          "time": 17.477531093750006,
          "velocity": 0.9921259842519685,
          "duration": 0.01348921874999931
        },
        {
          "name": "G#3",
          "midi": 56,
          "time": 17.482027500000004,
          "velocity": 0.9921259842519685,
          "duration": 0.01348921874999931
        },
        {
          "name": "C#4",
          "midi": 61,
          "time": 17.585444843750004,
          "velocity": 0.984251968503937,
          "duration": 0.01348921874999931
        },
        {
          "name": "G#3",
          "midi": 56,
          "time": 17.594437656250005,
          "velocity": 0.9763779527559056,
          "duration": 0.01348921874999931
        },
        {
          "name": "F#4",
          "midi": 66,
          "time": 17.693358593750006,
          "velocity": 1,
          "duration": 0.19334546874999958
        },
        {
          "name": "C#4",
          "midi": 61,
          "time": 17.702351406250006,
          "velocity": 1,
          "duration": 0.19334546874999958
        },
        {
          "name": "G#3",
          "midi": 56,
          "time": 17.913682500000007,
          "velocity": 0.9291338582677166,
          "duration": 0.01348921874999931
        },
        {
          "name": "C#4",
          "midi": 61,
          "time": 17.918178906250006,
          "velocity": 0.952755905511811,
          "duration": 0.01348921874999931
        },
        {
          "name": "C#4",
          "midi": 61,
          "time": 18.017099843750007,
          "velocity": 0.9606299212598425,
          "duration": 0.01348921874999931
        },
        {
          "name": "G#3",
          "midi": 56,
          "time": 18.021596250000005,
          "velocity": 0.9606299212598425,
          "duration": 0.01348921874999931
        },
        {
          "name": "F#4",
          "midi": 66,
          "time": 18.125013593750005,
          "velocity": 1,
          "duration": 0.19334546874999958
        },
        {
          "name": "C#4",
          "midi": 61,
          "time": 18.134006406250005,
          "velocity": 1,
          "duration": 0.19334546874999958
        },
        {
          "name": "D#4",
          "midi": 63,
          "time": 18.340841093750004,
          "velocity": 0.9921259842519685,
          "duration": 0.4091729687500063
        },
        {
          "name": "A#3",
          "midi": 58,
          "time": 18.349833906250005,
          "velocity": 1,
          "duration": 0.4091729687500063
        },
        {
          "name": "D#4",
          "midi": 63,
          "time": 18.77249609375001,
          "velocity": 0.9763779527559056,
          "duration": 0.01348921874999931
        },
        {
          "name": "A#3",
          "midi": 58,
          "time": 18.78148890625001,
          "velocity": 0.9763779527559056,
          "duration": 0.01348921874999931
        },
        {
          "name": "D#4",
          "midi": 63,
          "time": 18.88040984375001,
          "velocity": 0.9763779527559056,
          "duration": 0.01348921874999931
        },
        {
          "name": "A#3",
          "midi": 58,
          "time": 18.884906250000007,
          "velocity": 0.984251968503937,
          "duration": 0.01348921874999931
        },
        {
          "name": "A#4",
          "midi": 70,
          "time": 18.992820000000005,
          "velocity": 0.968503937007874,
          "duration": 0.19334546874999958
        },
        {
          "name": "C#4",
          "midi": 61,
          "time": 18.997316406250004,
          "velocity": 1,
          "duration": 0.19334546874999958
        },
        {
          "name": "G#3",
          "midi": 56,
          "time": 19.208647500000005,
          "velocity": 0.9606299212598425,
          "duration": 0.01348921874999931
        },
        {
          "name": "C#4",
          "midi": 61,
          "time": 19.213143906250004,
          "velocity": 0.952755905511811,
          "duration": 0.01348921874999931
        },
        {
          "name": "C#4",
          "midi": 61,
          "time": 19.312064843750004,
          "velocity": 0.968503937007874,
          "duration": 0.01348921874999931
        },
        {
          "name": "G#3",
          "midi": 56,
          "time": 19.316561250000003,
          "velocity": 0.984251968503937,
          "duration": 0.01348921874999931
        },
        {
          "name": "C#4",
          "midi": 61,
          "time": 19.424475,
          "velocity": 1,
          "duration": 0.19334546874999958
        },
        {
          "name": "F4",
          "midi": 65,
          "time": 19.42897140625,
          "velocity": 0.9606299212598425,
          "duration": 0.19334546874999958
        },
        {
          "name": "C#4",
          "midi": 61,
          "time": 19.63580609375,
          "velocity": 0.9921259842519685,
          "duration": 0.5170867187500043
        },
        {
          "name": "G#3",
          "midi": 56,
          "time": 19.64479890625,
          "velocity": 1,
          "duration": 0.5125903125000022
        },
        {
          "name": "C4",
          "midi": 60,
          "time": 20.161885625,
          "velocity": 0.937007874015748,
          "duration": 0.035971249999999344
        },
        {
          "name": "G3",
          "midi": 55,
          "time": 20.161885625,
          "velocity": 0.937007874015748,
          "duration": 0.035971249999999344
        },
        {
          "name": "F#3",
          "midi": 54,
          "time": 20.197856875,
          "velocity": 0.9291338582677166,
          "duration": 0.035971249999999344
        },
        {
          "name": "B3",
          "midi": 59,
          "time": 20.197856875,
          "velocity": 0.9291338582677166,
          "duration": 0.035971249999999344
        },
        {
          "name": "F3",
          "midi": 53,
          "time": 20.233828125,
          "velocity": 0.9212598425196851,
          "duration": 0.035971249999999344
        },
        {
          "name": "A#3",
          "midi": 58,
          "time": 20.233828125,
          "velocity": 0.9212598425196851,
          "duration": 0.035971249999999344
        },
        {
          "name": "E3",
          "midi": 52,
          "time": 20.269799374999998,
          "velocity": 0.9133858267716536,
          "duration": 0.035971249999999344
        },
        {
          "name": "A3",
          "midi": 57,
          "time": 20.269799374999998,
          "velocity": 0.9133858267716536,
          "duration": 0.035971249999999344
        },
        {
          "name": "D#3",
          "midi": 51,
          "time": 20.305770624999997,
          "velocity": 0.9133858267716536,
          "duration": 0.035971249999999344
        },
        {
          "name": "G#3",
          "midi": 56,
          "time": 20.305770624999997,
          "velocity": 0.9133858267716536,
          "duration": 0.035971249999999344
        },
        {
          "name": "D3",
          "midi": 50,
          "time": 20.341741874999997,
          "velocity": 0.905511811023622,
          "duration": 0.035971249999999344
        },
        {
          "name": "G3",
          "midi": 55,
          "time": 20.341741874999997,
          "velocity": 0.905511811023622,
          "duration": 0.035971249999999344
        },
        {
          "name": "F#3",
          "midi": 54,
          "time": 20.377713124999996,
          "velocity": 0.905511811023622,
          "duration": 0.035971249999999344
        },
        {
          "name": "C#3",
          "midi": 49,
          "time": 20.377713124999996,
          "velocity": 0.905511811023622,
          "duration": 0.035971249999999344
        },
        {
          "name": "C3",
          "midi": 48,
          "time": 20.413684374999995,
          "velocity": 0.8976377952755905,
          "duration": 0.035971249999999344
        },
        {
          "name": "F3",
          "midi": 53,
          "time": 20.413684374999995,
          "velocity": 0.8976377952755905,
          "duration": 0.035971249999999344
        },
        {
          "name": "E3",
          "midi": 52,
          "time": 20.449655624999995,
          "velocity": 0.8976377952755905,
          "duration": 0.035971249999999344
        },
        {
          "name": "B2",
          "midi": 47,
          "time": 20.449655624999995,
          "velocity": 0.8976377952755905,
          "duration": 0.035971249999999344
        },
        {
          "name": "A#2",
          "midi": 46,
          "time": 20.485626874999994,
          "velocity": 0.889763779527559,
          "duration": 0.035971249999999344
        },
        {
          "name": "D#3",
          "midi": 51,
          "time": 20.485626874999994,
          "velocity": 0.889763779527559,
          "duration": 0.035971249999999344
        },
        {
          "name": "A2",
          "midi": 45,
          "time": 20.521598124999993,
          "velocity": 0.8818897637795275,
          "duration": 0.035971249999999344
        },
        {
          "name": "D3",
          "midi": 50,
          "time": 20.521598124999993,
          "velocity": 0.8818897637795275,
          "duration": 0.035971249999999344
        },
        {
          "name": "G#2",
          "midi": 44,
          "time": 20.557569374999993,
          "velocity": 0.8818897637795275,
          "duration": 0.035971249999999344
        },
        {
          "name": "C#3",
          "midi": 49,
          "time": 20.557569374999993,
          "velocity": 0.8503937007874016,
          "duration": 0.035971249999999344
        },
        {
          "name": "G2",
          "midi": 43,
          "time": 20.593540624999992,
          "velocity": 0.8503937007874016,
          "duration": 0.035971249999999344
        },
        {
          "name": "C3",
          "midi": 48,
          "time": 20.593540624999992,
          "velocity": 0.8110236220472441,
          "duration": 0.035971249999999344
        },
        {
          "name": "F#2",
          "midi": 42,
          "time": 20.62951187499999,
          "velocity": 0.8110236220472441,
          "duration": 0.035971249999999344
        },
        {
          "name": "B2",
          "midi": 47,
          "time": 20.62951187499999,
          "velocity": 0.7637795275590551,
          "duration": 0.035971249999999344
        }
      ],
      "controlChanges": {
        "1": [
          {
            "number": 1,
            "time": 119.13677999999999,
            "value": 0
          }
        ],
        "7": [
          {
            "number": 7,
            "time": 0,
            "value": 1
          },
          {
            "number": 7,
            "time": 0,
            "value": 0.9606299212598425
          }
        ],
        "10": [
          {
            "number": 10,
            "time": 0,
            "value": 0.7086614173228346
          },
          {
            "number": 10,
            "time": 119.13677999999999,
            "value": 0.3937007874015748
          }
        ],
        "11": [
          {
            "number": 11,
            "time": 0,
            "value": 0.8661417322834646
          },
          {
            "number": 11,
            "time": 119.13677999999999,
            "value": 1
          }
        ],
        "32": [
          {
            "number": 32,
            "time": 0,
            "value": 0
          },
          {
            "number": 32,
            "time": 0,
            "value": 0
          }
        ],
        "91": [
          {
            "number": 91,
            "time": 0,
            "value": 0.6692913385826772
          }
        ],
        "93": [
          {
            "number": 93,
            "time": 0,
            "value": 0.33858267716535434
          }
        ]
      },
      "id": 7,
      "name": "Untitled",
      "instrumentNumber": 29,
      "instrument": "overdriven guitar",
      "instrumentFamily": "guitar",
      "channelNumber": 6,
      "isPercussion": false
    },
    {
      "startTime": 0,
      "duration": 0,
      "length": 0,
      "notes": [],
      "controlChanges": {
        "7": [
          {
            "number": 7,
            "time": 0,
            "value": 1
          },
          {
            "number": 7,
            "time": 0,
            "value": 0.952755905511811
          }
        ],
        "10": [
          {
            "number": 10,
            "time": 0,
            "value": 0.5039370078740157
          },
          {
            "number": 10,
            "time": 119.13677999999999,
            "value": 0.3937007874015748
          }
        ],
        "11": [
          {
            "number": 11,
            "time": 0,
            "value": 1
          }
        ],
        "32": [
          {
            "number": 32,
            "time": 0,
            "value": 0
          },
          {
            "number": 32,
            "time": 0,
            "value": 0
          }
        ],
        "91": [
          {
            "number": 91,
            "time": 0,
            "value": 0.6299212598425197
          }
        ],
        "93": [
          {
            "number": 93,
            "time": 0,
            "value": 0.25196850393700787
          }
        ]
      },
      "id": 8,
      "name": "Untitled",
      "instrumentNumber": 31,
      "instrument": "guitar harmonics",
      "instrumentFamily": "guitar",
      "channelNumber": 7,
      "isPercussion": false
    },
    {
      "startTime": 6.6906525,
      "duration": 119.33911828125001,
      "length": 263,
      "notes": [
        {
          "name": "D#2",
          "midi": 39,
          "time": 6.6906525,
          "velocity": 0.889763779527559,
          "duration": 0.4046765624999997
        },
        {
          "name": "F#2",
          "midi": 42,
          "time": 7.1223075,
          "velocity": 0.937007874015748,
          "duration": 0.21133109375000014
        },
        {
          "name": "A#2",
          "midi": 46,
          "time": 7.338135,
          "velocity": 0.937007874015748,
          "duration": 0.21133109375000014
        },
        {
          "name": "F#3",
          "midi": 54,
          "time": 7.553962500000001,
          "velocity": 0.937007874015748,
          "duration": 0.21133109375000014
        },
        {
          "name": "D#3",
          "midi": 51,
          "time": 7.769790000000001,
          "velocity": 0.937007874015748,
          "duration": 0.6339932812500004
        },
        {
          "name": "D#3",
          "midi": 51,
          "time": 8.412776093750002,
          "velocity": 0.937007874015748,
          "duration": 0.4226621874999985
        },
        {
          "name": "D#3",
          "midi": 51,
          "time": 8.848927500000002,
          "velocity": 0.937007874015748,
          "duration": 0.2023382812500003
        },
        {
          "name": "C#3",
          "midi": 49,
          "time": 9.064755000000002,
          "velocity": 0.937007874015748,
          "duration": 0.17086343749999955
        },
        {
          "name": "C#3",
          "midi": 49,
          "time": 9.496410000000001,
          "velocity": 0.937007874015748,
          "duration": 0.15737421875000024
        },
        {
          "name": "D#2",
          "midi": 39,
          "time": 10.143892500000002,
          "velocity": 0.937007874015748,
          "duration": 0.4226621875000003
        },
        {
          "name": "F#2",
          "midi": 42,
          "time": 10.575547500000003,
          "velocity": 0.937007874015748,
          "duration": 0.20683468750000067
        },
        {
          "name": "A#2",
          "midi": 46,
          "time": 10.791375000000004,
          "velocity": 0.937007874015748,
          "duration": 0.20683468750000067
        },
        {
          "name": "F#3",
          "midi": 54,
          "time": 11.007202500000005,
          "velocity": 0.937007874015748,
          "duration": 0.20683468750000067
        },
        {
          "name": "D#3",
          "midi": 51,
          "time": 11.223030000000007,
          "velocity": 0.937007874015748,
          "duration": 0.6339932812499995
        },
        {
          "name": "D#3",
          "midi": 51,
          "time": 11.866016093750007,
          "velocity": 0.937007874015748,
          "duration": 0.42715859375000065
        },
        {
          "name": "D#3",
          "midi": 51,
          "time": 12.302167500000008,
          "velocity": 0.937007874015748,
          "duration": 0.18884906249999922
        },
        {
          "name": "C#3",
          "midi": 49,
          "time": 12.517995000000008,
          "velocity": 0.937007874015748,
          "duration": 0.17086343749999955
        },
        {
          "name": "D#2",
          "midi": 39,
          "time": 13.597132500000008,
          "velocity": 0.937007874015748,
          "duration": 0.42715859375000065
        },
        {
          "name": "F#2",
          "midi": 42,
          "time": 14.028787500000009,
          "velocity": 0.937007874015748,
          "duration": 0.21133109374999925
        },
        {
          "name": "A#2",
          "midi": 46,
          "time": 14.244615000000008,
          "velocity": 0.937007874015748,
          "duration": 0.21133109374999925
        },
        {
          "name": "F#3",
          "midi": 54,
          "time": 14.460442500000008,
          "velocity": 0.937007874015748,
          "duration": 0.21133109374999925
        },
        {
          "name": "D#3",
          "midi": 51,
          "time": 14.676270000000008,
          "velocity": 0.937007874015748,
          "duration": 0.6339932812499995
        },
        {
          "name": "D#3",
          "midi": 51,
          "time": 15.319256093750008,
          "velocity": 0.937007874015748,
          "duration": 0.4226621875000003
        },
        {
          "name": "D#3",
          "midi": 51,
          "time": 15.75540750000001,
          "velocity": 0.937007874015748,
          "duration": 0.2023382812500003
        },
        {
          "name": "C#3",
          "midi": 49,
          "time": 15.971235000000009,
          "velocity": 0.937007874015748,
          "duration": 0.17086343750000133
        },
        {
          "name": "C#3",
          "midi": 49,
          "time": 16.40289000000001,
          "velocity": 0.937007874015748,
          "duration": 0.15737421875000024
        },
        {
          "name": "D#2",
          "midi": 39,
          "time": 17.05037250000001,
          "velocity": 0.937007874015748,
          "duration": 0.4226621874999985
        },
        {
          "name": "F#2",
          "midi": 42,
          "time": 17.482027500000008,
          "velocity": 0.937007874015748,
          "duration": 0.2068346874999989
        },
        {
          "name": "A#2",
          "midi": 46,
          "time": 17.697855000000008,
          "velocity": 0.937007874015748,
          "duration": 0.2068346874999989
        },
        {
          "name": "F#3",
          "midi": 54,
          "time": 17.913682500000007,
          "velocity": 0.937007874015748,
          "duration": 0.2068346874999989
        },
        {
          "name": "D#3",
          "midi": 51,
          "time": 18.129510000000007,
          "velocity": 0.937007874015748,
          "duration": 0.6339932812499995
        },
        {
          "name": "D#3",
          "midi": 51,
          "time": 18.772496093750007,
          "velocity": 0.937007874015748,
          "duration": 0.42715859375000065
        },
        {
          "name": "D#3",
          "midi": 51,
          "time": 19.208647500000005,
          "velocity": 0.937007874015748,
          "duration": 0.188849062500001
        },
        {
          "name": "C#3",
          "midi": 49,
          "time": 19.424475000000005,
          "velocity": 0.937007874015748,
          "duration": 0.17086343749999955
        },
        {
          "name": "C#3",
          "midi": 49,
          "time": 34.5324,
          "velocity": 0.968503937007874,
          "duration": 0.008992812499997171
        },
        {
          "name": "D#3",
          "midi": 51,
          "time": 34.7482275,
          "velocity": 0.952755905511811,
          "duration": 0.04496406250000007
        },
        {
          "name": "C#3",
          "midi": 49,
          "time": 34.964055,
          "velocity": 0.9212598425196851,
          "duration": 0.04496406250000007
        },
        {
          "name": "D#3",
          "midi": 51,
          "time": 35.179882500000005,
          "velocity": 0.9291338582677166,
          "duration": 0.04496406250000007
        },
        {
          "name": "F#3",
          "midi": 54,
          "time": 35.39571000000001,
          "velocity": 0.937007874015748,
          "duration": 0.04496406250000007
        },
        {
          "name": "D#3",
          "midi": 51,
          "time": 35.61153750000001,
          "velocity": 0.9291338582677166,
          "duration": 0.04496406250000007
        },
        {
          "name": "C#3",
          "midi": 49,
          "time": 35.827365000000015,
          "velocity": 0.905511811023622,
          "duration": 0.04496406250000007
        },
        {
          "name": "D#3",
          "midi": 51,
          "time": 36.04319250000002,
          "velocity": 0.952755905511811,
          "duration": 0.04496406250000007
        },
        {
          "name": "F3",
          "midi": 53,
          "time": 36.25902000000002,
          "velocity": 0.9212598425196851,
          "duration": 0.04496406250000007
        },
        {
          "name": "D#3",
          "midi": 51,
          "time": 36.474847500000024,
          "velocity": 0.889763779527559,
          "duration": 0.04496406250000007
        },
        {
          "name": "C#3",
          "midi": 49,
          "time": 36.69067500000003,
          "velocity": 0.9133858267716536,
          "duration": 0.04496406250000007
        },
        {
          "name": "D#3",
          "midi": 51,
          "time": 36.90650250000003,
          "velocity": 0.952755905511811,
          "duration": 0.04496406250000007
        },
        {
          "name": "F3",
          "midi": 53,
          "time": 37.122330000000034,
          "velocity": 0.937007874015748,
          "duration": 0.04496406250000007
        },
        {
          "name": "D#3",
          "midi": 51,
          "time": 37.33815750000004,
          "velocity": 0.937007874015748,
          "duration": 0.04496406250000007
        },
        {
          "name": "C#3",
          "midi": 49,
          "time": 37.55398500000004,
          "velocity": 0.9212598425196851,
          "duration": 0.04496406250000007
        },
        {
          "name": "D#3",
          "midi": 51,
          "time": 37.76981250000004,
          "velocity": 0.952755905511811,
          "duration": 0.04496406250000007
        },
        {
          "name": "C#3",
          "midi": 49,
          "time": 37.985640000000046,
          "velocity": 0.9133858267716536,
          "duration": 0.008992812499997171
        },
        {
          "name": "D#3",
          "midi": 51,
          "time": 38.20146750000004,
          "velocity": 0.9291338582677166,
          "duration": 0.04496406250000007
        },
        {
          "name": "C#3",
          "midi": 49,
          "time": 38.417295000000045,
          "velocity": 0.9212598425196851,
          "duration": 0.04496406250000007
        },
        {
          "name": "D#3",
          "midi": 51,
          "time": 38.63312250000005,
          "velocity": 0.9291338582677166,
          "duration": 0.04496406250000007
        },
        {
          "name": "F#3",
          "midi": 54,
          "time": 38.84895000000005,
          "velocity": 0.9606299212598425,
          "duration": 0.04496406250000007
        },
        {
          "name": "D#3",
          "midi": 51,
          "time": 39.064777500000055,
          "velocity": 0.9291338582677166,
          "duration": 0.04496406250000007
        },
        {
          "name": "C#3",
          "midi": 49,
          "time": 39.28060500000006,
          "velocity": 0.8818897637795275,
          "duration": 0.04496406250000007
        },
        {
          "name": "D#3",
          "midi": 51,
          "time": 39.49643250000006,
          "velocity": 0.9448818897637795,
          "duration": 0.04496406250000007
        },
        {
          "name": "F3",
          "midi": 53,
          "time": 39.712260000000065,
          "velocity": 0.9212598425196851,
          "duration": 0.04496406250000007
        },
        {
          "name": "D#3",
          "midi": 51,
          "time": 39.92808750000007,
          "velocity": 0.937007874015748,
          "duration": 0.04496406250000007
        },
        {
          "name": "C#3",
          "midi": 49,
          "time": 40.14391500000007,
          "velocity": 0.9133858267716536,
          "duration": 0.04496406250000007
        },
        {
          "name": "D#3",
          "midi": 51,
          "time": 40.359742500000074,
          "velocity": 0.9212598425196851,
          "duration": 0.04496406250000007
        },
        {
          "name": "F3",
          "midi": 53,
          "time": 40.57557000000008,
          "velocity": 0.8976377952755905,
          "duration": 0.04496406250000007
        },
        {
          "name": "D#3",
          "midi": 51,
          "time": 40.79139750000008,
          "velocity": 0.937007874015748,
          "duration": 0.04496406250000007
        },
        {
          "name": "C#3",
          "midi": 49,
          "time": 41.00722500000008,
          "velocity": 0.8976377952755905,
          "duration": 0.04496406250000007
        },
        {
          "name": "D#3",
          "midi": 51,
          "time": 41.22305250000009,
          "velocity": 0.8976377952755905,
          "duration": 0.04496406250000007
        },
        {
          "name": "C#3",
          "midi": 49,
          "time": 41.43888000000009,
          "velocity": 0.8661417322834646,
          "duration": 0.004496406249998586
        },
        {
          "name": "D#3",
          "midi": 51,
          "time": 41.654707500000086,
          "velocity": 0.9606299212598425,
          "duration": 0.05395687499999724
        },
        {
          "name": "D#3",
          "midi": 51,
          "time": 41.87053500000008,
          "velocity": 0.937007874015748,
          "duration": 0.05395687499999724
        },
        {
          "name": "D#3",
          "midi": 51,
          "time": 42.08636250000008,
          "velocity": 0.9212598425196851,
          "duration": 0.05395687499999724
        },
        {
          "name": "F#3",
          "midi": 54,
          "time": 42.302190000000074,
          "velocity": 0.9291338582677166,
          "duration": 0.05395687499999724
        },
        {
          "name": "D#3",
          "midi": 51,
          "time": 42.51801750000007,
          "velocity": 0.937007874015748,
          "duration": 0.05395687499999724
        },
        {
          "name": "C#3",
          "midi": 49,
          "time": 42.733845000000066,
          "velocity": 0.952755905511811,
          "duration": 0.05395687499999724
        },
        {
          "name": "D#3",
          "midi": 51,
          "time": 42.94967250000006,
          "velocity": 0.9606299212598425,
          "duration": 0.05395687499999724
        },
        {
          "name": "F3",
          "midi": 53,
          "time": 43.16550000000006,
          "velocity": 0.8976377952755905,
          "duration": 0.05395687499999724
        },
        {
          "name": "D#3",
          "midi": 51,
          "time": 43.381327500000054,
          "velocity": 0.9606299212598425,
          "duration": 0.05395687499999724
        },
        {
          "name": "C#3",
          "midi": 49,
          "time": 43.59715500000005,
          "velocity": 0.9133858267716536,
          "duration": 0.05395687499999724
        },
        {
          "name": "D#3",
          "midi": 51,
          "time": 43.81298250000005,
          "velocity": 0.937007874015748,
          "duration": 0.05395687499999724
        },
        {
          "name": "F3",
          "midi": 53,
          "time": 44.02881000000004,
          "velocity": 0.889763779527559,
          "duration": 0.05395687499999724
        },
        {
          "name": "D#3",
          "midi": 51,
          "time": 44.24463750000004,
          "velocity": 0.952755905511811,
          "duration": 0.05395687499999724
        },
        {
          "name": "C#3",
          "midi": 49,
          "time": 44.460465000000035,
          "velocity": 0.937007874015748,
          "duration": 0.05395687499999724
        },
        {
          "name": "D#3",
          "midi": 51,
          "time": 44.67629250000003,
          "velocity": 0.9606299212598425,
          "duration": 0.05395687499999724
        },
        {
          "name": "C#3",
          "midi": 49,
          "time": 44.89212000000003,
          "velocity": 0.8976377952755905,
          "duration": 0.004496406249998586
        },
        {
          "name": "D#3",
          "midi": 51,
          "time": 45.10794750000002,
          "velocity": 0.952755905511811,
          "duration": 0.05395687499999724
        },
        {
          "name": "D#3",
          "midi": 51,
          "time": 45.32377500000002,
          "velocity": 0.937007874015748,
          "duration": 0.05395687499999724
        },
        {
          "name": "D#3",
          "midi": 51,
          "time": 45.539602500000015,
          "velocity": 0.9291338582677166,
          "duration": 0.05395687499999724
        },
        {
          "name": "F#3",
          "midi": 54,
          "time": 45.75543000000001,
          "velocity": 0.937007874015748,
          "duration": 0.05395687499999724
        },
        {
          "name": "D#3",
          "midi": 51,
          "time": 45.97125750000001,
          "velocity": 0.9291338582677166,
          "duration": 0.05395687499999724
        },
        {
          "name": "C#3",
          "midi": 49,
          "time": 46.187085,
          "velocity": 0.968503937007874,
          "duration": 0.05395687499999724
        },
        {
          "name": "D#3",
          "midi": 51,
          "time": 46.4029125,
          "velocity": 0.9212598425196851,
          "duration": 0.05395687499999724
        },
        {
          "name": "F3",
          "midi": 53,
          "time": 46.618739999999995,
          "velocity": 0.905511811023622,
          "duration": 0.05395687499999724
        },
        {
          "name": "D#3",
          "midi": 51,
          "time": 46.83456749999999,
          "velocity": 0.952755905511811,
          "duration": 0.05395687499999724
        },
        {
          "name": "C#3",
          "midi": 49,
          "time": 47.05039499999999,
          "velocity": 0.9606299212598425,
          "duration": 0.05395687499999724
        },
        {
          "name": "D#3",
          "midi": 51,
          "time": 47.266222499999984,
          "velocity": 0.9763779527559056,
          "duration": 0.05395687499999724
        },
        {
          "name": "D#2",
          "midi": 39,
          "time": 48.12953249999998,
          "velocity": 0.889763779527559,
          "duration": 0.4046765625000006
        },
        {
          "name": "F#2",
          "midi": 42,
          "time": 48.56118749999998,
          "velocity": 0.937007874015748,
          "duration": 0.21133109374999748
        },
        {
          "name": "A#2",
          "midi": 46,
          "time": 48.77701499999998,
          "velocity": 0.937007874015748,
          "duration": 0.21133109374999748
        },
        {
          "name": "F#3",
          "midi": 54,
          "time": 48.99284249999997,
          "velocity": 0.937007874015748,
          "duration": 0.21133109374999748
        },
        {
          "name": "D#3",
          "midi": 51,
          "time": 49.20866999999997,
          "velocity": 0.937007874015748,
          "duration": 0.6339932812499995
        },
        {
          "name": "D#3",
          "midi": 51,
          "time": 49.851656093749966,
          "velocity": 0.937007874015748,
          "duration": 0.42266218750000206
        },
        {
          "name": "D#3",
          "midi": 51,
          "time": 50.287807499999964,
          "velocity": 0.937007874015748,
          "duration": 0.2023382812500003
        },
        {
          "name": "C#3",
          "midi": 49,
          "time": 50.50363499999997,
          "velocity": 0.937007874015748,
          "duration": 0.1708634375000031
        },
        {
          "name": "C#3",
          "midi": 49,
          "time": 50.93528999999997,
          "velocity": 0.937007874015748,
          "duration": 0.15737421875000024
        },
        {
          "name": "D#2",
          "midi": 39,
          "time": 51.582772499999976,
          "velocity": 0.937007874015748,
          "duration": 0.42266218750000206
        },
        {
          "name": "F#2",
          "midi": 42,
          "time": 52.014427499999975,
          "velocity": 0.937007874015748,
          "duration": 0.2068346874999989
        },
        {
          "name": "A#2",
          "midi": 46,
          "time": 52.23025499999997,
          "velocity": 0.937007874015748,
          "duration": 0.2068346874999989
        },
        {
          "name": "F#3",
          "midi": 54,
          "time": 52.44608249999997,
          "velocity": 0.937007874015748,
          "duration": 0.2068346874999989
        },
        {
          "name": "D#3",
          "midi": 51,
          "time": 52.66190999999996,
          "velocity": 0.937007874015748,
          "duration": 0.6339932812499995
        },
        {
          "name": "D#3",
          "midi": 51,
          "time": 53.30489609374996,
          "velocity": 0.937007874015748,
          "duration": 0.42715859375000065
        },
        {
          "name": "D#3",
          "midi": 51,
          "time": 53.74104749999996,
          "velocity": 0.937007874015748,
          "duration": 0.18884906249999744
        },
        {
          "name": "C#3",
          "midi": 49,
          "time": 53.956874999999954,
          "velocity": 0.937007874015748,
          "duration": 0.1708634375000031
        },
        {
          "name": "D#2",
          "midi": 39,
          "time": 55.036012499999956,
          "velocity": 0.937007874015748,
          "duration": 0.42715859375000065
        },
        {
          "name": "F#2",
          "midi": 42,
          "time": 55.467667499999955,
          "velocity": 0.937007874015748,
          "duration": 0.21133109374999748
        },
        {
          "name": "A#2",
          "midi": 46,
          "time": 55.68349499999995,
          "velocity": 0.937007874015748,
          "duration": 0.21133109374999748
        },
        {
          "name": "F#3",
          "midi": 54,
          "time": 55.89932249999995,
          "velocity": 0.937007874015748,
          "duration": 0.21133109374999748
        },
        {
          "name": "D#3",
          "midi": 51,
          "time": 56.11514999999994,
          "velocity": 0.937007874015748,
          "duration": 0.6339932812499995
        },
        {
          "name": "D#3",
          "midi": 51,
          "time": 56.75813609374994,
          "velocity": 0.937007874015748,
          "duration": 0.42266218750000206
        },
        {
          "name": "D#3",
          "midi": 51,
          "time": 57.19428749999994,
          "velocity": 0.937007874015748,
          "duration": 0.2023382812500003
        },
        {
          "name": "C#3",
          "midi": 49,
          "time": 57.41011499999994,
          "velocity": 0.937007874015748,
          "duration": 0.1708634375000031
        },
        {
          "name": "C#3",
          "midi": 49,
          "time": 57.84176999999995,
          "velocity": 0.937007874015748,
          "duration": 0.15737421875000024
        },
        {
          "name": "D#2",
          "midi": 39,
          "time": 58.48925249999995,
          "velocity": 0.937007874015748,
          "duration": 0.42266218750000206
        },
        {
          "name": "F#2",
          "midi": 42,
          "time": 58.92090749999995,
          "velocity": 0.937007874015748,
          "duration": 0.2068346874999989
        },
        {
          "name": "A#2",
          "midi": 46,
          "time": 59.136734999999945,
          "velocity": 0.937007874015748,
          "duration": 0.2068346874999989
        },
        {
          "name": "F#3",
          "midi": 54,
          "time": 59.35256249999994,
          "velocity": 0.937007874015748,
          "duration": 0.2068346874999989
        },
        {
          "name": "D#3",
          "midi": 51,
          "time": 59.56838999999994,
          "velocity": 0.937007874015748,
          "duration": 0.6339932812499995
        },
        {
          "name": "D#3",
          "midi": 51,
          "time": 60.211376093749934,
          "velocity": 0.937007874015748,
          "duration": 0.42715859375000775
        },
        {
          "name": "D#3",
          "midi": 51,
          "time": 60.64752749999994,
          "velocity": 0.937007874015748,
          "duration": 0.18884906249999744
        },
        {
          "name": "C#3",
          "midi": 49,
          "time": 60.863354999999935,
          "velocity": 0.937007874015748,
          "duration": 0.1708634375000031
        },
        {
          "name": "D#2",
          "midi": 39,
          "time": 61.942492499999936,
          "velocity": 0.937007874015748,
          "duration": 0.42715859375000065
        },
        {
          "name": "F#2",
          "midi": 42,
          "time": 62.374147499999935,
          "velocity": 0.937007874015748,
          "duration": 0.21133109374999748
        },
        {
          "name": "A#2",
          "midi": 46,
          "time": 62.58997499999993,
          "velocity": 0.937007874015748,
          "duration": 0.21133109374999748
        },
        {
          "name": "F#3",
          "midi": 54,
          "time": 62.80580249999993,
          "velocity": 0.937007874015748,
          "duration": 0.21133109374999748
        },
        {
          "name": "D#3",
          "midi": 51,
          "time": 63.021629999999924,
          "velocity": 0.937007874015748,
          "duration": 0.6339932812499995
        },
        {
          "name": "D#3",
          "midi": 51,
          "time": 63.66461609374992,
          "velocity": 0.937007874015748,
          "duration": 0.42266218750000206
        },
        {
          "name": "D#3",
          "midi": 51,
          "time": 64.10076749999992,
          "velocity": 0.937007874015748,
          "duration": 0.2023382812499932
        },
        {
          "name": "C#3",
          "midi": 49,
          "time": 64.31659499999991,
          "velocity": 0.937007874015748,
          "duration": 0.1708634375000031
        },
        {
          "name": "C#3",
          "midi": 49,
          "time": 64.74824999999991,
          "velocity": 0.937007874015748,
          "duration": 0.15737421874999313
        },
        {
          "name": "D#2",
          "midi": 39,
          "time": 65.39573249999991,
          "velocity": 0.937007874015748,
          "duration": 0.42266218749999496
        },
        {
          "name": "F#2",
          "midi": 42,
          "time": 65.8273874999999,
          "velocity": 0.937007874015748,
          "duration": 0.206834687500006
        },
        {
          "name": "A#2",
          "midi": 46,
          "time": 66.0432149999999,
          "velocity": 0.937007874015748,
          "duration": 0.206834687500006
        },
        {
          "name": "F#3",
          "midi": 54,
          "time": 66.25904249999991,
          "velocity": 0.937007874015748,
          "duration": 0.206834687500006
        },
        {
          "name": "D#3",
          "midi": 51,
          "time": 66.47486999999991,
          "velocity": 0.937007874015748,
          "duration": 0.6339932812499995
        },
        {
          "name": "D#3",
          "midi": 51,
          "time": 67.11785609374991,
          "velocity": 0.937007874015748,
          "duration": 0.42715859374999354
        },
        {
          "name": "D#3",
          "midi": 51,
          "time": 67.5540074999999,
          "velocity": 0.937007874015748,
          "duration": 0.18884906249999744
        },
        {
          "name": "C#3",
          "midi": 49,
          "time": 67.7698349999999,
          "velocity": 0.937007874015748,
          "duration": 0.1708634375000031
        },
        {
          "name": "C#3",
          "midi": 49,
          "time": 82.8777599999999,
          "velocity": 0.968503937007874,
          "duration": 0.008992812499997171
        },
        {
          "name": "D#3",
          "midi": 51,
          "time": 83.0935874999999,
          "velocity": 0.952755905511811,
          "duration": 0.04496406250000007
        },
        {
          "name": "C#3",
          "midi": 49,
          "time": 83.3094149999999,
          "velocity": 0.9212598425196851,
          "duration": 0.04496406250000007
        },
        {
          "name": "D#3",
          "midi": 51,
          "time": 83.5252424999999,
          "velocity": 0.9291338582677166,
          "duration": 0.04496406250000007
        },
        {
          "name": "F#3",
          "midi": 54,
          "time": 83.74106999999991,
          "velocity": 0.937007874015748,
          "duration": 0.04496406250000007
        },
        {
          "name": "D#3",
          "midi": 51,
          "time": 83.95689749999991,
          "velocity": 0.9291338582677166,
          "duration": 0.04496406250000007
        },
        {
          "name": "C#3",
          "midi": 49,
          "time": 84.17272499999991,
          "velocity": 0.905511811023622,
          "duration": 0.04496406250000007
        },
        {
          "name": "D#3",
          "midi": 51,
          "time": 84.38855249999992,
          "velocity": 0.952755905511811,
          "duration": 0.04496406250000007
        },
        {
          "name": "F3",
          "midi": 53,
          "time": 84.60437999999992,
          "velocity": 0.9212598425196851,
          "duration": 0.04496406250000007
        },
        {
          "name": "D#3",
          "midi": 51,
          "time": 84.82020749999992,
          "velocity": 0.889763779527559,
          "duration": 0.04496406250000007
        },
        {
          "name": "C#3",
          "midi": 49,
          "time": 85.03603499999993,
          "velocity": 0.9133858267716536,
          "duration": 0.04496406250000007
        },
        {
          "name": "D#3",
          "midi": 51,
          "time": 85.25186249999993,
          "velocity": 0.952755905511811,
          "duration": 0.04496406250000007
        },
        {
          "name": "F3",
          "midi": 53,
          "time": 85.46768999999993,
          "velocity": 0.937007874015748,
          "duration": 0.04496406250000007
        },
        {
          "name": "D#3",
          "midi": 51,
          "time": 85.68351749999994,
          "velocity": 0.937007874015748,
          "duration": 0.04496406250000007
        },
        {
          "name": "C#3",
          "midi": 49,
          "time": 85.89934499999994,
          "velocity": 0.9212598425196851,
          "duration": 0.04496406250000007
        },
        {
          "name": "D#3",
          "midi": 51,
          "time": 86.11517249999994,
          "velocity": 0.952755905511811,
          "duration": 0.04496406250000007
        },
        {
          "name": "C#3",
          "midi": 49,
          "time": 86.33099999999995,
          "velocity": 0.9133858267716536,
          "duration": 0.008992812499997171
        },
        {
          "name": "D#3",
          "midi": 51,
          "time": 86.54682749999995,
          "velocity": 0.9291338582677166,
          "duration": 0.04496406250000007
        },
        {
          "name": "C#3",
          "midi": 49,
          "time": 86.76265499999995,
          "velocity": 0.9212598425196851,
          "duration": 0.04496406250000007
        },
        {
          "name": "D#3",
          "midi": 51,
          "time": 86.97848249999996,
          "velocity": 0.9291338582677166,
          "duration": 0.04496406250000007
        },
        {
          "name": "F#3",
          "midi": 54,
          "time": 87.19430999999996,
          "velocity": 0.9606299212598425,
          "duration": 0.04496406250000007
        },
        {
          "name": "D#3",
          "midi": 51,
          "time": 87.41013749999996,
          "velocity": 0.9291338582677166,
          "duration": 0.04496406250000007
        },
        {
          "name": "C#3",
          "midi": 49,
          "time": 87.62596499999997,
          "velocity": 0.8818897637795275,
          "duration": 0.04496406250000007
        },
        {
          "name": "D#3",
          "midi": 51,
          "time": 87.84179249999997,
          "velocity": 0.9448818897637795,
          "duration": 0.04496406250000007
        },
        {
          "name": "F3",
          "midi": 53,
          "time": 88.05761999999997,
          "velocity": 0.9212598425196851,
          "duration": 0.04496406250000007
        },
        {
          "name": "D#3",
          "midi": 51,
          "time": 88.27344749999997,
          "velocity": 0.937007874015748,
          "duration": 0.04496406250000007
        },
        {
          "name": "C#3",
          "midi": 49,
          "time": 88.48927499999998,
          "velocity": 0.9133858267716536,
          "duration": 0.04496406250000007
        },
        {
          "name": "D#3",
          "midi": 51,
          "time": 88.70510249999998,
          "velocity": 0.9212598425196851,
          "duration": 0.04496406250000007
        },
        {
          "name": "F3",
          "midi": 53,
          "time": 88.92092999999998,
          "velocity": 0.8976377952755905,
          "duration": 0.04496406250000007
        },
        {
          "name": "D#3",
          "midi": 51,
          "time": 89.13675749999999,
          "velocity": 0.937007874015748,
          "duration": 0.04496406250000007
        },
        {
          "name": "C#3",
          "midi": 49,
          "time": 89.35258499999999,
          "velocity": 0.8976377952755905,
          "duration": 0.04496406250000007
        },
        {
          "name": "D#3",
          "midi": 51,
          "time": 89.5684125,
          "velocity": 0.8976377952755905,
          "duration": 0.04496406250000007
        },
        {
          "name": "C#3",
          "midi": 49,
          "time": 89.78424,
          "velocity": 0.8661417322834646,
          "duration": 0.004496406249998586
        },
        {
          "name": "D#3",
          "midi": 51,
          "time": 90.0000675,
          "velocity": 0.9606299212598425,
          "duration": 0.05395687499999724
        },
        {
          "name": "D#3",
          "midi": 51,
          "time": 90.215895,
          "velocity": 0.937007874015748,
          "duration": 0.05395687499999724
        },
        {
          "name": "D#3",
          "midi": 51,
          "time": 90.4317225,
          "velocity": 0.9212598425196851,
          "duration": 0.05395687499999724
        },
        {
          "name": "F#3",
          "midi": 54,
          "time": 90.64755000000001,
          "velocity": 0.9291338582677166,
          "duration": 0.05395687499999724
        },
        {
          "name": "D#3",
          "midi": 51,
          "time": 90.86337750000001,
          "velocity": 0.937007874015748,
          "duration": 0.05395687499999724
        },
        {
          "name": "C#3",
          "midi": 49,
          "time": 91.07920500000002,
          "velocity": 0.952755905511811,
          "duration": 0.05395687499999724
        },
        {
          "name": "D#3",
          "midi": 51,
          "time": 91.29503250000002,
          "velocity": 0.9606299212598425,
          "duration": 0.05395687499999724
        },
        {
          "name": "F3",
          "midi": 53,
          "time": 91.51086000000002,
          "velocity": 0.8976377952755905,
          "duration": 0.05395687499999724
        },
        {
          "name": "D#3",
          "midi": 51,
          "time": 91.72668750000003,
          "velocity": 0.9606299212598425,
          "duration": 0.05395687499999724
        },
        {
          "name": "C#3",
          "midi": 49,
          "time": 91.94251500000003,
          "velocity": 0.9133858267716536,
          "duration": 0.05395687499999724
        },
        {
          "name": "D#3",
          "midi": 51,
          "time": 92.15834250000003,
          "velocity": 0.937007874015748,
          "duration": 0.05395687499999724
        },
        {
          "name": "F3",
          "midi": 53,
          "time": 92.37417000000003,
          "velocity": 0.889763779527559,
          "duration": 0.05395687499999724
        },
        {
          "name": "D#3",
          "midi": 51,
          "time": 92.58999750000004,
          "velocity": 0.952755905511811,
          "duration": 0.05395687499999724
        },
        {
          "name": "C#3",
          "midi": 49,
          "time": 92.80582500000004,
          "velocity": 0.937007874015748,
          "duration": 0.05395687499999724
        },
        {
          "name": "D#3",
          "midi": 51,
          "time": 93.02165250000004,
          "velocity": 0.9606299212598425,
          "duration": 0.05395687499999724
        },
        {
          "name": "C#3",
          "midi": 49,
          "time": 93.23748000000005,
          "velocity": 0.8976377952755905,
          "duration": 0.004496406249998586
        },
        {
          "name": "D#3",
          "midi": 51,
          "time": 93.45330750000005,
          "velocity": 0.952755905511811,
          "duration": 0.05395687499999724
        },
        {
          "name": "D#3",
          "midi": 51,
          "time": 93.66913500000005,
          "velocity": 0.937007874015748,
          "duration": 0.05395687499999724
        },
        {
          "name": "D#3",
          "midi": 51,
          "time": 93.88496250000006,
          "velocity": 0.9291338582677166,
          "duration": 0.05395687499999724
        },
        {
          "name": "F#3",
          "midi": 54,
          "time": 94.10079000000006,
          "velocity": 0.937007874015748,
          "duration": 0.05395687499999724
        },
        {
          "name": "D#3",
          "midi": 51,
          "time": 94.31661750000006,
          "velocity": 0.9291338582677166,
          "duration": 0.05395687499999724
        },
        {
          "name": "C#3",
          "midi": 49,
          "time": 94.53244500000007,
          "velocity": 0.968503937007874,
          "duration": 0.05395687499999724
        },
        {
          "name": "D#3",
          "midi": 51,
          "time": 94.74827250000007,
          "velocity": 0.9212598425196851,
          "duration": 0.05395687499999724
        },
        {
          "name": "F3",
          "midi": 53,
          "time": 94.96410000000007,
          "velocity": 0.905511811023622,
          "duration": 0.05395687499999724
        },
        {
          "name": "D#3",
          "midi": 51,
          "time": 95.17992750000006,
          "velocity": 0.952755905511811,
          "duration": 0.05395687499999724
        },
        {
          "name": "C#3",
          "midi": 49,
          "time": 95.39575500000007,
          "velocity": 0.9606299212598425,
          "duration": 0.05395687499999724
        },
        {
          "name": "D#3",
          "midi": 51,
          "time": 95.61158250000007,
          "velocity": 0.9763779527559056,
          "duration": 0.05395687499999724
        },
        {
          "name": "F#2",
          "midi": 42,
          "time": 96.25906500000006,
          "velocity": 0.952755905511811,
          "duration": 0.17985625000000027
        },
        {
          "name": "D#2",
          "midi": 39,
          "time": 96.47489250000007,
          "velocity": 0.889763779527559,
          "duration": 0.4046765625000006
        },
        {
          "name": "F#2",
          "midi": 42,
          "time": 96.90654750000007,
          "velocity": 0.937007874015748,
          "duration": 0.21133109375000458
        },
        {
          "name": "A#2",
          "midi": 46,
          "time": 97.12237500000008,
          "velocity": 0.937007874015748,
          "duration": 0.21133109375000458
        },
        {
          "name": "F#3",
          "midi": 54,
          "time": 97.33820250000008,
          "velocity": 0.937007874015748,
          "duration": 0.21133109375000458
        },
        {
          "name": "D#3",
          "midi": 51,
          "time": 97.55403000000008,
          "velocity": 0.937007874015748,
          "duration": 0.6339932812499995
        },
        {
          "name": "D#3",
          "midi": 51,
          "time": 98.19701609375008,
          "velocity": 0.937007874015748,
          "duration": 0.42266218750000917
        },
        {
          "name": "D#3",
          "midi": 51,
          "time": 98.63316750000008,
          "velocity": 0.937007874015748,
          "duration": 0.2023382812499932
        },
        {
          "name": "C#3",
          "midi": 49,
          "time": 98.84899500000007,
          "velocity": 0.937007874015748,
          "duration": 0.1708634375000031
        },
        {
          "name": "C#3",
          "midi": 49,
          "time": 99.28065000000008,
          "velocity": 0.937007874015748,
          "duration": 0.15737421874999313
        },
        {
          "name": "D#2",
          "midi": 39,
          "time": 99.92813250000007,
          "velocity": 0.937007874015748,
          "duration": 0.42266218749999496
        },
        {
          "name": "F#2",
          "midi": 42,
          "time": 100.35978750000007,
          "velocity": 0.937007874015748,
          "duration": 0.206834687500006
        },
        {
          "name": "A#2",
          "midi": 46,
          "time": 100.57561500000007,
          "velocity": 0.937007874015748,
          "duration": 0.206834687500006
        },
        {
          "name": "F#3",
          "midi": 54,
          "time": 100.79144250000007,
          "velocity": 0.937007874015748,
          "duration": 0.206834687500006
        },
        {
          "name": "D#3",
          "midi": 51,
          "time": 101.00727000000008,
          "velocity": 0.937007874015748,
          "duration": 0.6339932812499995
        },
        {
          "name": "D#3",
          "midi": 51,
          "time": 101.65025609375007,
          "velocity": 0.937007874015748,
          "duration": 0.42715859374999354
        },
        {
          "name": "D#3",
          "midi": 51,
          "time": 102.08640750000006,
          "velocity": 0.937007874015748,
          "duration": 0.18884906249999744
        },
        {
          "name": "C#3",
          "midi": 49,
          "time": 102.30223500000007,
          "velocity": 0.937007874015748,
          "duration": 0.1708634375000031
        },
        {
          "name": "D#2",
          "midi": 39,
          "time": 103.38137250000007,
          "velocity": 0.937007874015748,
          "duration": 0.42715859374999354
        },
        {
          "name": "F#2",
          "midi": 42,
          "time": 103.81302750000006,
          "velocity": 0.937007874015748,
          "duration": 0.21133109375000458
        },
        {
          "name": "A#2",
          "midi": 46,
          "time": 104.02885500000006,
          "velocity": 0.937007874015748,
          "duration": 0.21133109375000458
        },
        {
          "name": "F#3",
          "midi": 54,
          "time": 104.24468250000007,
          "velocity": 0.937007874015748,
          "duration": 0.21133109375000458
        },
        {
          "name": "D#3",
          "midi": 51,
          "time": 104.46051000000007,
          "velocity": 0.937007874015748,
          "duration": 0.6339932812499995
        },
        {
          "name": "D#3",
          "midi": 51,
          "time": 105.10349609375007,
          "velocity": 0.937007874015748,
          "duration": 0.42266218750000917
        },
        {
          "name": "D#3",
          "midi": 51,
          "time": 105.53964750000007,
          "velocity": 0.937007874015748,
          "duration": 0.2023382812499932
        },
        {
          "name": "C#3",
          "midi": 49,
          "time": 105.75547500000006,
          "velocity": 0.937007874015748,
          "duration": 0.1708634375000031
        },
        {
          "name": "C#3",
          "midi": 49,
          "time": 106.18713000000007,
          "velocity": 0.937007874015748,
          "duration": 0.15737421874999313
        },
        {
          "name": "D#2",
          "midi": 39,
          "time": 106.83461250000006,
          "velocity": 0.937007874015748,
          "duration": 0.42266218749999496
        },
        {
          "name": "F#2",
          "midi": 42,
          "time": 107.26626750000005,
          "velocity": 0.937007874015748,
          "duration": 0.206834687500006
        },
        {
          "name": "A#2",
          "midi": 46,
          "time": 107.48209500000006,
          "velocity": 0.937007874015748,
          "duration": 0.206834687500006
        },
        {
          "name": "F#3",
          "midi": 54,
          "time": 107.69792250000006,
          "velocity": 0.937007874015748,
          "duration": 0.206834687500006
        },
        {
          "name": "D#3",
          "midi": 51,
          "time": 107.91375000000006,
          "velocity": 0.937007874015748,
          "duration": 0.6339932812499995
        },
        {
          "name": "D#3",
          "midi": 51,
          "time": 108.55673609375006,
          "velocity": 0.937007874015748,
          "duration": 0.42715859374999354
        },
        {
          "name": "D#3",
          "midi": 51,
          "time": 108.99288750000005,
          "velocity": 0.937007874015748,
          "duration": 0.18884906249999744
        },
        {
          "name": "C#3",
          "midi": 49,
          "time": 109.20871500000005,
          "velocity": 0.937007874015748,
          "duration": 0.1708634375000031
        },
        {
          "name": "D#2",
          "midi": 39,
          "time": 110.28785250000006,
          "velocity": 0.937007874015748,
          "duration": 0.42715859374999354
        },
        {
          "name": "F#2",
          "midi": 42,
          "time": 110.71950750000005,
          "velocity": 0.937007874015748,
          "duration": 0.21133109375000458
        },
        {
          "name": "A#2",
          "midi": 46,
          "time": 110.93533500000005,
          "velocity": 0.937007874015748,
          "duration": 0.21133109375000458
        },
        {
          "name": "F#3",
          "midi": 54,
          "time": 111.15116250000005,
          "velocity": 0.937007874015748,
          "duration": 0.21133109375000458
        },
        {
          "name": "D#3",
          "midi": 51,
          "time": 111.36699000000006,
          "velocity": 0.937007874015748,
          "duration": 0.6339932812499995
        },
        {
          "name": "D#3",
          "midi": 51,
          "time": 112.00997609375005,
          "velocity": 0.937007874015748,
          "duration": 0.42266218749999496
        },
        {
          "name": "D#3",
          "midi": 51,
          "time": 112.44612750000005,
          "velocity": 0.937007874015748,
          "duration": 0.2023382812499932
        },
        {
          "name": "C#3",
          "midi": 49,
          "time": 112.66195500000003,
          "velocity": 0.937007874015748,
          "duration": 0.1708634375000031
        },
        {
          "name": "C#3",
          "midi": 49,
          "time": 113.09361000000004,
          "velocity": 0.937007874015748,
          "duration": 0.15737421874999313
        },
        {
          "name": "D#2",
          "midi": 39,
          "time": 113.74109250000004,
          "velocity": 0.937007874015748,
          "duration": 0.42266218749999496
        },
        {
          "name": "F#2",
          "midi": 42,
          "time": 114.17274750000003,
          "velocity": 0.937007874015748,
          "duration": 0.206834687500006
        },
        {
          "name": "A#2",
          "midi": 46,
          "time": 114.38857500000003,
          "velocity": 0.937007874015748,
          "duration": 0.206834687500006
        },
        {
          "name": "F#3",
          "midi": 54,
          "time": 114.60440250000003,
          "velocity": 0.937007874015748,
          "duration": 0.206834687500006
        },
        {
          "name": "D#3",
          "midi": 51,
          "time": 114.82023000000004,
          "velocity": 0.937007874015748,
          "duration": 0.6339932812499995
        },
        {
          "name": "D#3",
          "midi": 51,
          "time": 115.46321609375003,
          "velocity": 0.937007874015748,
          "duration": 0.42715859374999354
        },
        {
          "name": "D#3",
          "midi": 51,
          "time": 115.89936750000003,
          "velocity": 0.937007874015748,
          "duration": 0.18884906249999744
        },
        {
          "name": "C#3",
          "midi": 49,
          "time": 116.11519500000003,
          "velocity": 0.937007874015748,
          "duration": 0.1708634375000031
        },
        {
          "name": "D#2",
          "midi": 39,
          "time": 117.19433250000003,
          "velocity": 0.937007874015748,
          "duration": 0.42715859374999354
        },
        {
          "name": "F#2",
          "midi": 42,
          "time": 117.62598750000002,
          "velocity": 0.937007874015748,
          "duration": 0.21133109375000458
        },
        {
          "name": "A#2",
          "midi": 46,
          "time": 117.84181500000003,
          "velocity": 0.937007874015748,
          "duration": 0.21133109375000458
        },
        {
          "name": "F#3",
          "midi": 54,
          "time": 118.05764250000003,
          "velocity": 0.937007874015748,
          "duration": 0.21133109375000458
        },
        {
          "name": "D#3",
          "midi": 51,
          "time": 118.27347000000003,
          "velocity": 0.937007874015748,
          "duration": 0.6339932812499995
        },
        {
          "name": "D#3",
          "midi": 51,
          "time": 118.91645609375003,
          "velocity": 0.937007874015748,
          "duration": 0.42266218749998075
        }
      ],
      "controlChanges": {
        "7": [
          {
            "number": 7,
            "time": 0,
            "value": 1
          },
          {
            "number": 7,
            "time": 0,
            "value": 0.952755905511811
          }
        ],
        "11": [
          {
            "number": 11,
            "time": 0,
            "value": 1
          },
          {
            "number": 11,
            "time": 119.13678000000002,
            "value": 0
          }
        ],
        "32": [
          {
            "number": 32,
            "time": 0,
            "value": 0
          },
          {
            "number": 32,
            "time": 0,
            "value": 0
          }
        ],
        "91": [
          {
            "number": 91,
            "time": 0,
            "value": 0.3937007874015748
          }
        ],
        "93": [
          {
            "number": 93,
            "time": 0,
            "value": 0.15748031496062992
          }
        ]
      },
      "id": 9,
      "name": "Untitled",
      "instrumentNumber": 28,
      "instrument": "electric guitar (muted)",
      "instrumentFamily": "guitar",
      "channelNumber": 8,
      "isPercussion": false
    },
    {
      "startTime": 1.2994614062499998,
      "duration": 118.93668992187608,
      "length": 895,
      "notes": [
        {
          "name": "D#2",
          "midi": 39,
          "time": 1.2994614062499998,
          "velocity": 1,
          "duration": 0.015737421874999935
        },
        {
          "name": "D#2",
          "midi": 39,
          "time": 3.0260814062499994,
          "velocity": 1,
          "duration": 0.015737421874999935
        },
        {
          "name": "A4",
          "midi": 69,
          "time": 3.6690674999999993,
          "velocity": 0.8976377952755905,
          "duration": 0.015737421874999935
        },
        {
          "name": "A4",
          "midi": 69,
          "time": 3.8848949999999993,
          "velocity": 0.9291338582677166,
          "duration": 0.015737421874999935
        },
        {
          "name": "A4",
          "midi": 69,
          "time": 4.316549999999999,
          "velocity": 0.9212598425196851,
          "duration": 0.01573742187500038
        },
        {
          "name": "D#2",
          "midi": 39,
          "time": 4.75270140625,
          "velocity": 1,
          "duration": 0.01573742187500038
        },
        {
          "name": "A4",
          "midi": 69,
          "time": 4.9640325,
          "velocity": 0.905511811023622,
          "duration": 0.01573742187500038
        },
        {
          "name": "A4",
          "midi": 69,
          "time": 5.179860000000001,
          "velocity": 0.9291338582677166,
          "duration": 0.01573742187500038
        },
        {
          "name": "A4",
          "midi": 69,
          "time": 5.611515000000001,
          "velocity": 0.937007874015748,
          "duration": 0.01573742187500038
        },
        {
          "name": "D2",
          "midi": 38,
          "time": 6.258997500000001,
          "velocity": 0.9921259842519685,
          "duration": 0.01573742187500038
        },
        {
          "name": "D2",
          "midi": 38,
          "time": 6.474825000000002,
          "velocity": 1,
          "duration": 0.01573742187500038
        },
        {
          "name": "D#2",
          "midi": 39,
          "time": 6.479321406250002,
          "velocity": 1,
          "duration": 0.01573742187500038
        },
        {
          "name": "C#3",
          "midi": 49,
          "time": 6.690652500000002,
          "velocity": 0.9921259842519685,
          "duration": 0.01573742187500038
        },
        {
          "name": "D2",
          "midi": 38,
          "time": 6.690652500000002,
          "velocity": 0.9606299212598425,
          "duration": 0.01573742187500038
        },
        {
          "name": "C2",
          "midi": 36,
          "time": 6.690652500000002,
          "velocity": 0.968503937007874,
          "duration": 0.01573742187500038
        },
        {
          "name": "F#2",
          "midi": 42,
          "time": 6.906480000000003,
          "velocity": 0.968503937007874,
          "duration": 0.01573742187500038
        },
        {
          "name": "C2",
          "midi": 36,
          "time": 6.906480000000003,
          "velocity": 0.9291338582677166,
          "duration": 0.01573742187500038
        },
        {
          "name": "F#2",
          "midi": 42,
          "time": 7.122307500000003,
          "velocity": 0.8110236220472441,
          "duration": 0.01573742187500038
        },
        {
          "name": "F#2",
          "midi": 42,
          "time": 7.338135000000004,
          "velocity": 0.968503937007874,
          "duration": 0.01573742187500038
        },
        {
          "name": "D2",
          "midi": 38,
          "time": 7.338135000000004,
          "velocity": 0.9763779527559056,
          "duration": 0.01573742187500038
        },
        {
          "name": "F#2",
          "midi": 42,
          "time": 7.553962500000004,
          "velocity": 0.8110236220472441,
          "duration": 0.01573742187500038
        },
        {
          "name": "F#2",
          "midi": 42,
          "time": 7.769790000000005,
          "velocity": 0.968503937007874,
          "duration": 0.01573742187500038
        },
        {
          "name": "C2",
          "midi": 36,
          "time": 7.769790000000005,
          "velocity": 0.9291338582677166,
          "duration": 0.01573742187500038
        },
        {
          "name": "F#2",
          "midi": 42,
          "time": 7.985617500000005,
          "velocity": 0.8110236220472441,
          "duration": 0.01573742187500038
        },
        {
          "name": "F#2",
          "midi": 42,
          "time": 8.201445000000005,
          "velocity": 0.968503937007874,
          "duration": 0.01573742187500038
        },
        {
          "name": "D2",
          "midi": 38,
          "time": 8.201445000000005,
          "velocity": 0.9763779527559056,
          "duration": 0.01573742187500038
        },
        {
          "name": "D#2",
          "midi": 39,
          "time": 8.205941406250005,
          "velocity": 1,
          "duration": 0.01573742187500038
        },
        {
          "name": "F#2",
          "midi": 42,
          "time": 8.417272500000006,
          "velocity": 0.8110236220472441,
          "duration": 0.01573742187500038
        },
        {
          "name": "F#2",
          "midi": 42,
          "time": 8.633100000000006,
          "velocity": 0.968503937007874,
          "duration": 0.01573742187500038
        },
        {
          "name": "C2",
          "midi": 36,
          "time": 8.633100000000006,
          "velocity": 0.9291338582677166,
          "duration": 0.01573742187500038
        },
        {
          "name": "F#2",
          "midi": 42,
          "time": 8.848927500000006,
          "velocity": 0.8110236220472441,
          "duration": 0.01573742187500038
        },
        {
          "name": "C2",
          "midi": 36,
          "time": 9.064755000000005,
          "velocity": 0.9291338582677166,
          "duration": 0.01573742187500038
        },
        {
          "name": "F#2",
          "midi": 42,
          "time": 9.064755000000005,
          "velocity": 0.968503937007874,
          "duration": 0.01573742187500038
        },
        {
          "name": "D2",
          "midi": 38,
          "time": 9.064755000000005,
          "velocity": 0.9763779527559056,
          "duration": 0.01573742187500038
        },
        {
          "name": "F#2",
          "midi": 42,
          "time": 9.280582500000005,
          "velocity": 0.8110236220472441,
          "duration": 0.01573742187500038
        },
        {
          "name": "F#2",
          "midi": 42,
          "time": 9.496410000000004,
          "velocity": 0.968503937007874,
          "duration": 0.01573742187500038
        },
        {
          "name": "F#2",
          "midi": 42,
          "time": 9.712237500000004,
          "velocity": 0.8110236220472441,
          "duration": 0.01573742187500038
        },
        {
          "name": "C2",
          "midi": 36,
          "time": 9.712237500000004,
          "velocity": 0.9291338582677166,
          "duration": 0.01573742187500038
        },
        {
          "name": "F#2",
          "midi": 42,
          "time": 9.928065000000004,
          "velocity": 0.968503937007874,
          "duration": 0.01573742187500038
        },
        {
          "name": "D2",
          "midi": 38,
          "time": 9.928065000000004,
          "velocity": 0.9763779527559056,
          "duration": 0.01573742187500038
        },
        {
          "name": "D#2",
          "midi": 39,
          "time": 9.932561406250004,
          "velocity": 1,
          "duration": 0.01573742187500038
        },
        {
          "name": "F#2",
          "midi": 42,
          "time": 10.143892500000005,
          "velocity": 0.8110236220472441,
          "duration": 0.01573742187500038
        },
        {
          "name": "F#2",
          "midi": 42,
          "time": 10.359720000000005,
          "velocity": 0.968503937007874,
          "duration": 0.01573742187500038
        },
        {
          "name": "C2",
          "midi": 36,
          "time": 10.359720000000005,
          "velocity": 0.9291338582677166,
          "duration": 0.01573742187500038
        },
        {
          "name": "F#2",
          "midi": 42,
          "time": 10.575547500000004,
          "velocity": 0.8110236220472441,
          "duration": 0.01573742187500038
        },
        {
          "name": "F#2",
          "midi": 42,
          "time": 10.791375000000004,
          "velocity": 0.968503937007874,
          "duration": 0.01573742187500038
        },
        {
          "name": "D2",
          "midi": 38,
          "time": 10.791375000000004,
          "velocity": 0.9763779527559056,
          "duration": 0.01573742187500038
        },
        {
          "name": "F#2",
          "midi": 42,
          "time": 11.007202500000004,
          "velocity": 0.8110236220472441,
          "duration": 0.01573742187500038
        },
        {
          "name": "F#2",
          "midi": 42,
          "time": 11.223030000000003,
          "velocity": 0.968503937007874,
          "duration": 0.01573742187500038
        },
        {
          "name": "C2",
          "midi": 36,
          "time": 11.223030000000003,
          "velocity": 0.9291338582677166,
          "duration": 0.01573742187500038
        },
        {
          "name": "F#2",
          "midi": 42,
          "time": 11.438857500000003,
          "velocity": 0.8110236220472441,
          "duration": 0.01573742187500038
        },
        {
          "name": "F#2",
          "midi": 42,
          "time": 11.654685000000002,
          "velocity": 0.968503937007874,
          "duration": 0.01573742187500038
        },
        {
          "name": "D2",
          "midi": 38,
          "time": 11.654685000000002,
          "velocity": 0.9763779527559056,
          "duration": 0.01573742187500038
        },
        {
          "name": "D#2",
          "midi": 39,
          "time": 11.659181406250003,
          "velocity": 1,
          "duration": 0.01573742187500038
        },
        {
          "name": "F#2",
          "midi": 42,
          "time": 11.870512500000004,
          "velocity": 0.8110236220472441,
          "duration": 0.01573742187500038
        },
        {
          "name": "F#2",
          "midi": 42,
          "time": 12.086340000000003,
          "velocity": 0.968503937007874,
          "duration": 0.01573742187500038
        },
        {
          "name": "C2",
          "midi": 36,
          "time": 12.086340000000003,
          "velocity": 0.9291338582677166,
          "duration": 0.01573742187500038
        },
        {
          "name": "F#2",
          "midi": 42,
          "time": 12.302167500000003,
          "velocity": 0.8110236220472441,
          "duration": 0.01573742187500038
        },
        {
          "name": "C2",
          "midi": 36,
          "time": 12.517995000000003,
          "velocity": 0.9291338582677166,
          "duration": 0.01573742187500038
        },
        {
          "name": "F#2",
          "midi": 42,
          "time": 12.517995000000003,
          "velocity": 0.968503937007874,
          "duration": 0.01573742187500038
        },
        {
          "name": "D2",
          "midi": 38,
          "time": 12.517995000000003,
          "velocity": 0.9763779527559056,
          "duration": 0.01573742187500038
        },
        {
          "name": "F#2",
          "midi": 42,
          "time": 12.733822500000002,
          "velocity": 0.8110236220472441,
          "duration": 0.01573742187500038
        },
        {
          "name": "F#2",
          "midi": 42,
          "time": 12.949650000000002,
          "velocity": 0.968503937007874,
          "duration": 0.01573742187500038
        },
        {
          "name": "F#2",
          "midi": 42,
          "time": 13.165477500000001,
          "velocity": 0.8110236220472441,
          "duration": 0.01573742187500038
        },
        {
          "name": "C2",
          "midi": 36,
          "time": 13.165477500000001,
          "velocity": 0.9291338582677166,
          "duration": 0.01573742187500038
        },
        {
          "name": "F#2",
          "midi": 42,
          "time": 13.381305000000001,
          "velocity": 0.968503937007874,
          "duration": 0.01573742187500038
        },
        {
          "name": "D2",
          "midi": 38,
          "time": 13.381305000000001,
          "velocity": 0.9763779527559056,
          "duration": 0.01573742187500038
        },
        {
          "name": "D#2",
          "midi": 39,
          "time": 13.385801406250001,
          "velocity": 1,
          "duration": 0.01573742187500038
        },
        {
          "name": "F#2",
          "midi": 42,
          "time": 13.597132500000003,
          "velocity": 0.8110236220472441,
          "duration": 0.01573742187500038
        },
        {
          "name": "F#2",
          "midi": 42,
          "time": 13.812960000000002,
          "velocity": 0.968503937007874,
          "duration": 0.01573742187500038
        },
        {
          "name": "C2",
          "midi": 36,
          "time": 13.812960000000002,
          "velocity": 0.9291338582677166,
          "duration": 0.01573742187500038
        },
        {
          "name": "F#2",
          "midi": 42,
          "time": 14.028787500000002,
          "velocity": 0.8110236220472441,
          "duration": 0.01573742187500038
        },
        {
          "name": "F#2",
          "midi": 42,
          "time": 14.244615000000001,
          "velocity": 0.968503937007874,
          "duration": 0.01573742187500038
        },
        {
          "name": "D2",
          "midi": 38,
          "time": 14.244615000000001,
          "velocity": 0.9763779527559056,
          "duration": 0.01573742187500038
        },
        {
          "name": "F#2",
          "midi": 42,
          "time": 14.460442500000001,
          "velocity": 0.8110236220472441,
          "duration": 0.01573742187500038
        },
        {
          "name": "F#2",
          "midi": 42,
          "time": 14.67627,
          "velocity": 0.968503937007874,
          "duration": 0.01573742187500038
        },
        {
          "name": "C2",
          "midi": 36,
          "time": 14.67627,
          "velocity": 0.9291338582677166,
          "duration": 0.01573742187500038
        },
        {
          "name": "F#2",
          "midi": 42,
          "time": 14.8920975,
          "velocity": 0.8110236220472441,
          "duration": 0.01573742187500038
        },
        {
          "name": "F#2",
          "midi": 42,
          "time": 15.107925,
          "velocity": 0.968503937007874,
          "duration": 0.01573742187500038
        },
        {
          "name": "D2",
          "midi": 38,
          "time": 15.107925,
          "velocity": 0.9763779527559056,
          "duration": 0.01573742187500038
        },
        {
          "name": "D#2",
          "midi": 39,
          "time": 15.11242140625,
          "velocity": 1,
          "duration": 0.01573742187500038
        },
        {
          "name": "F#2",
          "midi": 42,
          "time": 15.323752500000001,
          "velocity": 0.8110236220472441,
          "duration": 0.01573742187500038
        },
        {
          "name": "F#2",
          "midi": 42,
          "time": 15.53958,
          "velocity": 0.968503937007874,
          "duration": 0.01573742187500038
        },
        {
          "name": "C2",
          "midi": 36,
          "time": 15.53958,
          "velocity": 0.9291338582677166,
          "duration": 0.01573742187500038
        },
        {
          "name": "F#2",
          "midi": 42,
          "time": 15.7554075,
          "velocity": 0.8110236220472441,
          "duration": 0.01573742187500038
        },
        {
          "name": "C2",
          "midi": 36,
          "time": 15.971235,
          "velocity": 0.9291338582677166,
          "duration": 0.01573742187500038
        },
        {
          "name": "F#2",
          "midi": 42,
          "time": 15.971235,
          "velocity": 0.968503937007874,
          "duration": 0.01573742187500038
        },
        {
          "name": "D2",
          "midi": 38,
          "time": 15.971235,
          "velocity": 0.9763779527559056,
          "duration": 0.01573742187500038
        },
        {
          "name": "F#2",
          "midi": 42,
          "time": 16.1870625,
          "velocity": 0.8110236220472441,
          "duration": 0.015737421874998603
        },
        {
          "name": "F#2",
          "midi": 42,
          "time": 16.40289,
          "velocity": 0.968503937007874,
          "duration": 0.015737421874998603
        },
        {
          "name": "F#2",
          "midi": 42,
          "time": 16.6187175,
          "velocity": 0.8110236220472441,
          "duration": 0.015737421874998603
        },
        {
          "name": "C2",
          "midi": 36,
          "time": 16.6187175,
          "velocity": 0.9291338582677166,
          "duration": 0.015737421874998603
        },
        {
          "name": "F#2",
          "midi": 42,
          "time": 16.834545,
          "velocity": 0.968503937007874,
          "duration": 0.015737421874998603
        },
        {
          "name": "D2",
          "midi": 38,
          "time": 16.834545,
          "velocity": 0.9763779527559056,
          "duration": 0.015737421874998603
        },
        {
          "name": "D#2",
          "midi": 39,
          "time": 16.839041406249997,
          "velocity": 1,
          "duration": 0.015737421874998603
        },
        {
          "name": "F#2",
          "midi": 42,
          "time": 17.050372499999995,
          "velocity": 0.8110236220472441,
          "duration": 0.015737421874998603
        },
        {
          "name": "F#2",
          "midi": 42,
          "time": 17.266199999999994,
          "velocity": 0.968503937007874,
          "duration": 0.015737421874998603
        },
        {
          "name": "C2",
          "midi": 36,
          "time": 17.266199999999994,
          "velocity": 0.9291338582677166,
          "duration": 0.015737421874998603
        },
        {
          "name": "F#2",
          "midi": 42,
          "time": 17.482027499999994,
          "velocity": 0.8110236220472441,
          "duration": 0.015737421874998603
        },
        {
          "name": "F#2",
          "midi": 42,
          "time": 17.697854999999993,
          "velocity": 0.968503937007874,
          "duration": 0.015737421874998603
        },
        {
          "name": "D2",
          "midi": 38,
          "time": 17.697854999999993,
          "velocity": 0.9763779527559056,
          "duration": 0.015737421874998603
        },
        {
          "name": "F#2",
          "midi": 42,
          "time": 17.913682499999993,
          "velocity": 0.8110236220472441,
          "duration": 0.015737421874998603
        },
        {
          "name": "F#2",
          "midi": 42,
          "time": 18.129509999999993,
          "velocity": 0.968503937007874,
          "duration": 0.015737421874998603
        },
        {
          "name": "C2",
          "midi": 36,
          "time": 18.129509999999993,
          "velocity": 0.9291338582677166,
          "duration": 0.015737421874998603
        },
        {
          "name": "F#2",
          "midi": 42,
          "time": 18.345337499999992,
          "velocity": 0.8110236220472441,
          "duration": 0.015737421874998603
        },
        {
          "name": "F#2",
          "midi": 42,
          "time": 18.561164999999992,
          "velocity": 0.968503937007874,
          "duration": 0.015737421874998603
        },
        {
          "name": "D2",
          "midi": 38,
          "time": 18.561164999999992,
          "velocity": 0.9763779527559056,
          "duration": 0.015737421874998603
        },
        {
          "name": "D#2",
          "midi": 39,
          "time": 18.56566140624999,
          "velocity": 1,
          "duration": 0.015737421874998603
        },
        {
          "name": "F#2",
          "midi": 42,
          "time": 18.776992499999988,
          "velocity": 0.8110236220472441,
          "duration": 0.015737421874998603
        },
        {
          "name": "F#2",
          "midi": 42,
          "time": 18.992819999999988,
          "velocity": 0.968503937007874,
          "duration": 0.015737421874998603
        },
        {
          "name": "C2",
          "midi": 36,
          "time": 18.992819999999988,
          "velocity": 0.9291338582677166,
          "duration": 0.015737421874998603
        },
        {
          "name": "F#2",
          "midi": 42,
          "time": 19.208647499999987,
          "velocity": 0.8110236220472441,
          "duration": 0.015737421874998603
        },
        {
          "name": "C2",
          "midi": 36,
          "time": 19.424474999999987,
          "velocity": 0.9291338582677166,
          "duration": 0.015737421874998603
        },
        {
          "name": "F#2",
          "midi": 42,
          "time": 19.424474999999987,
          "velocity": 0.968503937007874,
          "duration": 0.015737421874998603
        },
        {
          "name": "D2",
          "midi": 38,
          "time": 19.424474999999987,
          "velocity": 0.9763779527559056,
          "duration": 0.015737421874998603
        },
        {
          "name": "F#2",
          "midi": 42,
          "time": 19.640302499999986,
          "velocity": 0.8110236220472441,
          "duration": 0.015737421874998603
        },
        {
          "name": "F#2",
          "midi": 42,
          "time": 19.856129999999986,
          "velocity": 0.968503937007874,
          "duration": 0.015737421874998603
        },
        {
          "name": "F#2",
          "midi": 42,
          "time": 20.071957499999986,
          "velocity": 0.8110236220472441,
          "duration": 0.015737421874998603
        },
        {
          "name": "C2",
          "midi": 36,
          "time": 20.071957499999986,
          "velocity": 0.9291338582677166,
          "duration": 0.015737421874998603
        },
        {
          "name": "F#2",
          "midi": 42,
          "time": 20.287784999999985,
          "velocity": 0.968503937007874,
          "duration": 0.015737421874998603
        },
        {
          "name": "D2",
          "midi": 38,
          "time": 20.287784999999985,
          "velocity": 0.9763779527559056,
          "duration": 0.015737421874998603
        },
        {
          "name": "D#2",
          "midi": 39,
          "time": 20.292281406249984,
          "velocity": 1,
          "duration": 0.015737421874998603
        },
        {
          "name": "F#2",
          "midi": 42,
          "time": 20.50361249999998,
          "velocity": 0.8110236220472441,
          "duration": 0.015737421874998603
        },
        {
          "name": "A3",
          "midi": 57,
          "time": 20.71943999999998,
          "velocity": 0.905511811023622,
          "duration": 0.015737421874998603
        },
        {
          "name": "C2",
          "midi": 36,
          "time": 20.71943999999998,
          "velocity": 0.9291338582677166,
          "duration": 0.015737421874998603
        },
        {
          "name": "F#2",
          "midi": 42,
          "time": 20.93526749999998,
          "velocity": 0.8110236220472441,
          "duration": 0.015737421874998603
        },
        {
          "name": "F#2",
          "midi": 42,
          "time": 21.15109499999998,
          "velocity": 0.968503937007874,
          "duration": 0.015737421874998603
        },
        {
          "name": "D2",
          "midi": 38,
          "time": 21.15109499999998,
          "velocity": 0.9763779527559056,
          "duration": 0.015737421874998603
        },
        {
          "name": "F#2",
          "midi": 42,
          "time": 21.36692249999998,
          "velocity": 0.8110236220472441,
          "duration": 0.015737421874998603
        },
        {
          "name": "F#2",
          "midi": 42,
          "time": 21.58274999999998,
          "velocity": 0.968503937007874,
          "duration": 0.015737421874998603
        },
        {
          "name": "C2",
          "midi": 36,
          "time": 21.58274999999998,
          "velocity": 0.9291338582677166,
          "duration": 0.015737421874998603
        },
        {
          "name": "F#2",
          "midi": 42,
          "time": 21.79857749999998,
          "velocity": 0.8110236220472441,
          "duration": 0.015737421874998603
        },
        {
          "name": "F#2",
          "midi": 42,
          "time": 22.01440499999998,
          "velocity": 0.968503937007874,
          "duration": 0.015737421874998603
        },
        {
          "name": "D2",
          "midi": 38,
          "time": 22.01440499999998,
          "velocity": 0.9763779527559056,
          "duration": 0.015737421874998603
        },
        {
          "name": "D#2",
          "midi": 39,
          "time": 22.018901406249977,
          "velocity": 1,
          "duration": 0.015737421874998603
        },
        {
          "name": "F#2",
          "midi": 42,
          "time": 22.230232499999975,
          "velocity": 0.8110236220472441,
          "duration": 0.015737421874998603
        },
        {
          "name": "F#2",
          "midi": 42,
          "time": 22.446059999999974,
          "velocity": 0.968503937007874,
          "duration": 0.015737421874998603
        },
        {
          "name": "C2",
          "midi": 36,
          "time": 22.446059999999974,
          "velocity": 0.9291338582677166,
          "duration": 0.015737421874998603
        },
        {
          "name": "F#2",
          "midi": 42,
          "time": 22.661887499999974,
          "velocity": 0.8110236220472441,
          "duration": 0.015737421874998603
        },
        {
          "name": "C2",
          "midi": 36,
          "time": 22.877714999999974,
          "velocity": 0.9291338582677166,
          "duration": 0.015737421874998603
        },
        {
          "name": "F#2",
          "midi": 42,
          "time": 22.877714999999974,
          "velocity": 0.968503937007874,
          "duration": 0.015737421874998603
        },
        {
          "name": "D2",
          "midi": 38,
          "time": 22.877714999999974,
          "velocity": 0.9763779527559056,
          "duration": 0.015737421874998603
        },
        {
          "name": "F#2",
          "midi": 42,
          "time": 23.093542499999973,
          "velocity": 0.8110236220472441,
          "duration": 0.015737421874998603
        },
        {
          "name": "F#2",
          "midi": 42,
          "time": 23.309369999999973,
          "velocity": 0.968503937007874,
          "duration": 0.015737421874998603
        },
        {
          "name": "F#2",
          "midi": 42,
          "time": 23.525197499999972,
          "velocity": 0.8110236220472441,
          "duration": 0.015737421874998603
        },
        {
          "name": "C2",
          "midi": 36,
          "time": 23.525197499999972,
          "velocity": 0.9291338582677166,
          "duration": 0.015737421874998603
        },
        {
          "name": "F#2",
          "midi": 42,
          "time": 23.741024999999972,
          "velocity": 0.968503937007874,
          "duration": 0.015737421874998603
        },
        {
          "name": "D2",
          "midi": 38,
          "time": 23.741024999999972,
          "velocity": 0.9763779527559056,
          "duration": 0.015737421874998603
        },
        {
          "name": "D#2",
          "midi": 39,
          "time": 23.74552140624997,
          "velocity": 1,
          "duration": 0.015737421874998603
        },
        {
          "name": "F#2",
          "midi": 42,
          "time": 23.956852499999968,
          "velocity": 0.8110236220472441,
          "duration": 0.015737421874998603
        },
        {
          "name": "F#2",
          "midi": 42,
          "time": 24.172679999999968,
          "velocity": 0.968503937007874,
          "duration": 0.015737421874998603
        },
        {
          "name": "C2",
          "midi": 36,
          "time": 24.172679999999968,
          "velocity": 0.9291338582677166,
          "duration": 0.015737421874998603
        },
        {
          "name": "F#2",
          "midi": 42,
          "time": 24.388507499999967,
          "velocity": 0.8110236220472441,
          "duration": 0.015737421874998603
        },
        {
          "name": "F#2",
          "midi": 42,
          "time": 24.604334999999967,
          "velocity": 0.968503937007874,
          "duration": 0.015737421874998603
        },
        {
          "name": "D2",
          "midi": 38,
          "time": 24.604334999999967,
          "velocity": 0.9763779527559056,
          "duration": 0.015737421874998603
        },
        {
          "name": "F#2",
          "midi": 42,
          "time": 24.820162499999967,
          "velocity": 0.8110236220472441,
          "duration": 0.015737421874998603
        },
        {
          "name": "F#2",
          "midi": 42,
          "time": 25.035989999999966,
          "velocity": 0.968503937007874,
          "duration": 0.015737421874998603
        },
        {
          "name": "C2",
          "midi": 36,
          "time": 25.035989999999966,
          "velocity": 0.9291338582677166,
          "duration": 0.015737421874998603
        },
        {
          "name": "F#2",
          "midi": 42,
          "time": 25.251817499999966,
          "velocity": 0.8110236220472441,
          "duration": 0.015737421874998603
        },
        {
          "name": "F#2",
          "midi": 42,
          "time": 25.467644999999965,
          "velocity": 0.968503937007874,
          "duration": 0.015737421874998603
        },
        {
          "name": "D2",
          "midi": 38,
          "time": 25.467644999999965,
          "velocity": 0.9763779527559056,
          "duration": 0.015737421874998603
        },
        {
          "name": "D#2",
          "midi": 39,
          "time": 25.472141406249964,
          "velocity": 1,
          "duration": 0.015737421874998603
        },
        {
          "name": "F#2",
          "midi": 42,
          "time": 25.68347249999996,
          "velocity": 0.8110236220472441,
          "duration": 0.015737421874998603
        },
        {
          "name": "F#2",
          "midi": 42,
          "time": 25.89929999999996,
          "velocity": 0.968503937007874,
          "duration": 0.015737421874998603
        },
        {
          "name": "C2",
          "midi": 36,
          "time": 25.89929999999996,
          "velocity": 0.9291338582677166,
          "duration": 0.015737421874998603
        },
        {
          "name": "F#2",
          "midi": 42,
          "time": 26.11512749999996,
          "velocity": 0.8110236220472441,
          "duration": 0.015737421874998603
        },
        {
          "name": "C2",
          "midi": 36,
          "time": 26.33095499999996,
          "velocity": 0.9291338582677166,
          "duration": 0.015737421874998603
        },
        {
          "name": "F#2",
          "midi": 42,
          "time": 26.33095499999996,
          "velocity": 0.968503937007874,
          "duration": 0.015737421874998603
        },
        {
          "name": "D2",
          "midi": 38,
          "time": 26.33095499999996,
          "velocity": 0.9763779527559056,
          "duration": 0.015737421874998603
        },
        {
          "name": "F#2",
          "midi": 42,
          "time": 26.54678249999996,
          "velocity": 0.8110236220472441,
          "duration": 0.015737421874998603
        },
        {
          "name": "F#2",
          "midi": 42,
          "time": 26.76260999999996,
          "velocity": 0.968503937007874,
          "duration": 0.015737421874998603
        },
        {
          "name": "F#2",
          "midi": 42,
          "time": 26.97843749999996,
          "velocity": 0.8110236220472441,
          "duration": 0.015737421874998603
        },
        {
          "name": "C2",
          "midi": 36,
          "time": 26.97843749999996,
          "velocity": 0.9291338582677166,
          "duration": 0.015737421874998603
        },
        {
          "name": "F#2",
          "midi": 42,
          "time": 27.19426499999996,
          "velocity": 0.968503937007874,
          "duration": 0.015737421874998603
        },
        {
          "name": "D2",
          "midi": 38,
          "time": 27.19426499999996,
          "velocity": 0.9763779527559056,
          "duration": 0.015737421874998603
        },
        {
          "name": "D#2",
          "midi": 39,
          "time": 27.198761406249957,
          "velocity": 1,
          "duration": 0.015737421874998603
        },
        {
          "name": "F#2",
          "midi": 42,
          "time": 27.410092499999955,
          "velocity": 0.8110236220472441,
          "duration": 0.015737421874998603
        },
        {
          "name": "F#2",
          "midi": 42,
          "time": 27.625919999999955,
          "velocity": 0.968503937007874,
          "duration": 0.015737421874998603
        },
        {
          "name": "C2",
          "midi": 36,
          "time": 27.625919999999955,
          "velocity": 0.9291338582677166,
          "duration": 0.015737421874998603
        },
        {
          "name": "F#2",
          "midi": 42,
          "time": 27.841747499999954,
          "velocity": 0.8110236220472441,
          "duration": 0.015737421874998603
        },
        {
          "name": "F#2",
          "midi": 42,
          "time": 28.057574999999954,
          "velocity": 0.968503937007874,
          "duration": 0.015737421874998603
        },
        {
          "name": "D2",
          "midi": 38,
          "time": 28.057574999999954,
          "velocity": 0.9763779527559056,
          "duration": 0.015737421874998603
        },
        {
          "name": "F#2",
          "midi": 42,
          "time": 28.273402499999953,
          "velocity": 0.8110236220472441,
          "duration": 0.015737421874998603
        },
        {
          "name": "F#2",
          "midi": 42,
          "time": 28.489229999999953,
          "velocity": 0.968503937007874,
          "duration": 0.015737421874998603
        },
        {
          "name": "C2",
          "midi": 36,
          "time": 28.489229999999953,
          "velocity": 0.9291338582677166,
          "duration": 0.015737421874998603
        },
        {
          "name": "F#2",
          "midi": 42,
          "time": 28.705057499999953,
          "velocity": 0.8110236220472441,
          "duration": 0.015737421874998603
        },
        {
          "name": "F#2",
          "midi": 42,
          "time": 28.920884999999952,
          "velocity": 0.968503937007874,
          "duration": 0.015737421874998603
        },
        {
          "name": "D2",
          "midi": 38,
          "time": 28.920884999999952,
          "velocity": 0.9763779527559056,
          "duration": 0.015737421874998603
        },
        {
          "name": "D#2",
          "midi": 39,
          "time": 28.92538140624995,
          "velocity": 1,
          "duration": 0.015737421874998603
        },
        {
          "name": "F#2",
          "midi": 42,
          "time": 29.13671249999995,
          "velocity": 0.8110236220472441,
          "duration": 0.015737421874998603
        },
        {
          "name": "F#2",
          "midi": 42,
          "time": 29.352539999999948,
          "velocity": 0.968503937007874,
          "duration": 0.015737421874998603
        },
        {
          "name": "C2",
          "midi": 36,
          "time": 29.352539999999948,
          "velocity": 0.9291338582677166,
          "duration": 0.015737421874998603
        },
        {
          "name": "F#2",
          "midi": 42,
          "time": 29.568367499999948,
          "velocity": 0.8110236220472441,
          "duration": 0.015737421874998603
        },
        {
          "name": "C2",
          "midi": 36,
          "time": 29.784194999999947,
          "velocity": 0.9291338582677166,
          "duration": 0.015737421874998603
        },
        {
          "name": "F#2",
          "midi": 42,
          "time": 29.784194999999947,
          "velocity": 0.968503937007874,
          "duration": 0.015737421874998603
        },
        {
          "name": "D2",
          "midi": 38,
          "time": 29.784194999999947,
          "velocity": 0.9763779527559056,
          "duration": 0.015737421874998603
        },
        {
          "name": "F#2",
          "midi": 42,
          "time": 30.000022499999947,
          "velocity": 0.8110236220472441,
          "duration": 0.015737421874998603
        },
        {
          "name": "F#2",
          "midi": 42,
          "time": 30.215849999999946,
          "velocity": 0.968503937007874,
          "duration": 0.015737421874998603
        },
        {
          "name": "F#2",
          "midi": 42,
          "time": 30.431677499999946,
          "velocity": 0.8110236220472441,
          "duration": 0.015737421874998603
        },
        {
          "name": "C2",
          "midi": 36,
          "time": 30.431677499999946,
          "velocity": 0.9291338582677166,
          "duration": 0.015737421874998603
        },
        {
          "name": "F#2",
          "midi": 42,
          "time": 30.647504999999946,
          "velocity": 0.968503937007874,
          "duration": 0.015737421874998603
        },
        {
          "name": "D2",
          "midi": 38,
          "time": 30.647504999999946,
          "velocity": 0.9763779527559056,
          "duration": 0.015737421874998603
        },
        {
          "name": "D#2",
          "midi": 39,
          "time": 30.652001406249944,
          "velocity": 1,
          "duration": 0.015737421874998603
        },
        {
          "name": "F#2",
          "midi": 42,
          "time": 30.86333249999994,
          "velocity": 0.8110236220472441,
          "duration": 0.015737421874998603
        },
        {
          "name": "F#2",
          "midi": 42,
          "time": 31.07915999999994,
          "velocity": 0.968503937007874,
          "duration": 0.015737421874998603
        },
        {
          "name": "C2",
          "midi": 36,
          "time": 31.07915999999994,
          "velocity": 0.9291338582677166,
          "duration": 0.015737421874998603
        },
        {
          "name": "F#2",
          "midi": 42,
          "time": 31.29498749999994,
          "velocity": 0.8110236220472441,
          "duration": 0.015737421874998603
        },
        {
          "name": "F#2",
          "midi": 42,
          "time": 31.51081499999994,
          "velocity": 0.968503937007874,
          "duration": 0.015737421874998603
        },
        {
          "name": "D2",
          "midi": 38,
          "time": 31.51081499999994,
          "velocity": 0.9763779527559056,
          "duration": 0.015737421874998603
        },
        {
          "name": "F#2",
          "midi": 42,
          "time": 31.72664249999994,
          "velocity": 0.8110236220472441,
          "duration": 0.015737421874998603
        },
        {
          "name": "F#2",
          "midi": 42,
          "time": 31.94246999999994,
          "velocity": 0.968503937007874,
          "duration": 0.015737421874998603
        },
        {
          "name": "C2",
          "midi": 36,
          "time": 31.94246999999994,
          "velocity": 0.9291338582677166,
          "duration": 0.015737421874998603
        },
        {
          "name": "F#2",
          "midi": 42,
          "time": 32.15829749999994,
          "velocity": 0.8110236220472441,
          "duration": 0.015737421875002156
        },
        {
          "name": "F#2",
          "midi": 42,
          "time": 32.37412499999994,
          "velocity": 0.968503937007874,
          "duration": 0.01573742187499505
        },
        {
          "name": "D2",
          "midi": 38,
          "time": 32.37412499999994,
          "velocity": 0.9763779527559056,
          "duration": 0.01573742187499505
        },
        {
          "name": "D#2",
          "midi": 39,
          "time": 32.37862140624994,
          "velocity": 1,
          "duration": 0.01573742187499505
        },
        {
          "name": "F#2",
          "midi": 42,
          "time": 32.58995249999994,
          "velocity": 0.8110236220472441,
          "duration": 0.015737421875002156
        },
        {
          "name": "F#2",
          "midi": 42,
          "time": 32.80577999999994,
          "velocity": 0.968503937007874,
          "duration": 0.015737421875002156
        },
        {
          "name": "C2",
          "midi": 36,
          "time": 32.80577999999994,
          "velocity": 0.9291338582677166,
          "duration": 0.015737421875002156
        },
        {
          "name": "F#2",
          "midi": 42,
          "time": 33.021607499999945,
          "velocity": 0.8110236220472441,
          "duration": 0.015737421875002156
        },
        {
          "name": "C2",
          "midi": 36,
          "time": 33.23743499999995,
          "velocity": 0.9291338582677166,
          "duration": 0.015737421875002156
        },
        {
          "name": "F#2",
          "midi": 42,
          "time": 33.23743499999995,
          "velocity": 0.968503937007874,
          "duration": 0.015737421875002156
        },
        {
          "name": "D2",
          "midi": 38,
          "time": 33.23743499999995,
          "velocity": 0.9763779527559056,
          "duration": 0.015737421875002156
        },
        {
          "name": "F#2",
          "midi": 42,
          "time": 33.45326249999995,
          "velocity": 0.8110236220472441,
          "duration": 0.015737421875002156
        },
        {
          "name": "F#2",
          "midi": 42,
          "time": 33.669089999999954,
          "velocity": 0.968503937007874,
          "duration": 0.015737421875002156
        },
        {
          "name": "F#2",
          "midi": 42,
          "time": 33.88491749999996,
          "velocity": 0.8110236220472441,
          "duration": 0.015737421875002156
        },
        {
          "name": "C2",
          "midi": 36,
          "time": 33.88491749999996,
          "velocity": 0.9291338582677166,
          "duration": 0.015737421875002156
        },
        {
          "name": "F#2",
          "midi": 42,
          "time": 34.10074499999996,
          "velocity": 0.968503937007874,
          "duration": 0.01573742187499505
        },
        {
          "name": "D2",
          "midi": 38,
          "time": 34.10074499999996,
          "velocity": 0.9763779527559056,
          "duration": 0.01573742187499505
        },
        {
          "name": "D#2",
          "midi": 39,
          "time": 34.10524140624996,
          "velocity": 1,
          "duration": 0.01573742187499505
        },
        {
          "name": "F#2",
          "midi": 42,
          "time": 34.31657249999996,
          "velocity": 0.8110236220472441,
          "duration": 0.015737421875002156
        },
        {
          "name": "C#3",
          "midi": 49,
          "time": 34.53239999999996,
          "velocity": 0.9212598425196851,
          "duration": 0.015737421875002156
        },
        {
          "name": "C2",
          "midi": 36,
          "time": 34.53239999999996,
          "velocity": 0.9291338582677166,
          "duration": 0.015737421875002156
        },
        {
          "name": "F#2",
          "midi": 42,
          "time": 34.74822749999996,
          "velocity": 0.8110236220472441,
          "duration": 0.015737421875002156
        },
        {
          "name": "F#2",
          "midi": 42,
          "time": 34.964054999999966,
          "velocity": 0.968503937007874,
          "duration": 0.015737421875002156
        },
        {
          "name": "D2",
          "midi": 38,
          "time": 34.964054999999966,
          "velocity": 0.9763779527559056,
          "duration": 0.015737421875002156
        },
        {
          "name": "F#2",
          "midi": 42,
          "time": 35.17988249999997,
          "velocity": 0.8110236220472441,
          "duration": 0.015737421875002156
        },
        {
          "name": "F#2",
          "midi": 42,
          "time": 35.39570999999997,
          "velocity": 0.968503937007874,
          "duration": 0.015737421875002156
        },
        {
          "name": "C2",
          "midi": 36,
          "time": 35.39570999999997,
          "velocity": 0.9291338582677166,
          "duration": 0.015737421875002156
        },
        {
          "name": "F#2",
          "midi": 42,
          "time": 35.611537499999976,
          "velocity": 0.8110236220472441,
          "duration": 0.015737421875002156
        },
        {
          "name": "F#2",
          "midi": 42,
          "time": 35.82736499999998,
          "velocity": 0.968503937007874,
          "duration": 0.01573742187499505
        },
        {
          "name": "D2",
          "midi": 38,
          "time": 35.82736499999998,
          "velocity": 0.9763779527559056,
          "duration": 0.01573742187499505
        },
        {
          "name": "D#2",
          "midi": 39,
          "time": 35.83186140624998,
          "velocity": 1,
          "duration": 0.01573742187499505
        },
        {
          "name": "F#2",
          "midi": 42,
          "time": 36.043192499999975,
          "velocity": 0.8110236220472441,
          "duration": 0.015737421875002156
        },
        {
          "name": "F#2",
          "midi": 42,
          "time": 36.25901999999998,
          "velocity": 0.968503937007874,
          "duration": 0.015737421875002156
        },
        {
          "name": "C2",
          "midi": 36,
          "time": 36.25901999999998,
          "velocity": 0.9291338582677166,
          "duration": 0.015737421875002156
        },
        {
          "name": "F#2",
          "midi": 42,
          "time": 36.47484749999998,
          "velocity": 0.8110236220472441,
          "duration": 0.015737421875002156
        },
        {
          "name": "C2",
          "midi": 36,
          "time": 36.690674999999985,
          "velocity": 0.9291338582677166,
          "duration": 0.015737421875002156
        },
        {
          "name": "F#2",
          "midi": 42,
          "time": 36.690674999999985,
          "velocity": 0.968503937007874,
          "duration": 0.015737421875002156
        },
        {
          "name": "D2",
          "midi": 38,
          "time": 36.690674999999985,
          "velocity": 0.9763779527559056,
          "duration": 0.015737421875002156
        },
        {
          "name": "F#2",
          "midi": 42,
          "time": 36.90650249999999,
          "velocity": 0.8110236220472441,
          "duration": 0.015737421875002156
        },
        {
          "name": "F#2",
          "midi": 42,
          "time": 37.12232999999999,
          "velocity": 0.968503937007874,
          "duration": 0.015737421875002156
        },
        {
          "name": "F#2",
          "midi": 42,
          "time": 37.338157499999994,
          "velocity": 0.8110236220472441,
          "duration": 0.015737421875002156
        },
        {
          "name": "C2",
          "midi": 36,
          "time": 37.338157499999994,
          "velocity": 0.9291338582677166,
          "duration": 0.015737421875002156
        },
        {
          "name": "F#2",
          "midi": 42,
          "time": 37.553985,
          "velocity": 0.968503937007874,
          "duration": 0.01573742187499505
        },
        {
          "name": "D2",
          "midi": 38,
          "time": 37.553985,
          "velocity": 0.9763779527559056,
          "duration": 0.01573742187499505
        },
        {
          "name": "D#2",
          "midi": 39,
          "time": 37.558481406249996,
          "velocity": 1,
          "duration": 0.01573742187499505
        },
        {
          "name": "F#2",
          "midi": 42,
          "time": 37.76981249999999,
          "velocity": 0.8110236220472441,
          "duration": 0.015737421875002156
        },
        {
          "name": "F#2",
          "midi": 42,
          "time": 37.98564,
          "velocity": 0.968503937007874,
          "duration": 0.015737421875002156
        },
        {
          "name": "C2",
          "midi": 36,
          "time": 37.98564,
          "velocity": 0.9291338582677166,
          "duration": 0.015737421875002156
        },
        {
          "name": "F#2",
          "midi": 42,
          "time": 38.2014675,
          "velocity": 0.8110236220472441,
          "duration": 0.015737421875002156
        },
        {
          "name": "F#2",
          "midi": 42,
          "time": 38.417295,
          "velocity": 0.968503937007874,
          "duration": 0.015737421875002156
        },
        {
          "name": "D2",
          "midi": 38,
          "time": 38.417295,
          "velocity": 0.9763779527559056,
          "duration": 0.015737421875002156
        },
        {
          "name": "F#2",
          "midi": 42,
          "time": 38.633122500000006,
          "velocity": 0.8110236220472441,
          "duration": 0.015737421875002156
        },
        {
          "name": "F#2",
          "midi": 42,
          "time": 38.84895000000001,
          "velocity": 0.968503937007874,
          "duration": 0.015737421875002156
        },
        {
          "name": "C2",
          "midi": 36,
          "time": 38.84895000000001,
          "velocity": 0.9291338582677166,
          "duration": 0.015737421875002156
        },
        {
          "name": "F#2",
          "midi": 42,
          "time": 39.06477750000001,
          "velocity": 0.8110236220472441,
          "duration": 0.015737421875002156
        },
        {
          "name": "F#2",
          "midi": 42,
          "time": 39.280605000000016,
          "velocity": 0.968503937007874,
          "duration": 0.01573742187499505
        },
        {
          "name": "D2",
          "midi": 38,
          "time": 39.280605000000016,
          "velocity": 0.9763779527559056,
          "duration": 0.01573742187499505
        },
        {
          "name": "D#2",
          "midi": 39,
          "time": 39.285101406250014,
          "velocity": 1,
          "duration": 0.01573742187499505
        },
        {
          "name": "F#2",
          "midi": 42,
          "time": 39.49643250000001,
          "velocity": 0.8110236220472441,
          "duration": 0.015737421875002156
        },
        {
          "name": "F#2",
          "midi": 42,
          "time": 39.712260000000015,
          "velocity": 0.968503937007874,
          "duration": 0.015737421875002156
        },
        {
          "name": "C2",
          "midi": 36,
          "time": 39.712260000000015,
          "velocity": 0.9291338582677166,
          "duration": 0.015737421875002156
        },
        {
          "name": "F#2",
          "midi": 42,
          "time": 39.92808750000002,
          "velocity": 0.8110236220472441,
          "duration": 0.015737421875002156
        },
        {
          "name": "C2",
          "midi": 36,
          "time": 40.14391500000002,
          "velocity": 0.9291338582677166,
          "duration": 0.015737421875002156
        },
        {
          "name": "F#2",
          "midi": 42,
          "time": 40.14391500000002,
          "velocity": 0.968503937007874,
          "duration": 0.015737421875002156
        },
        {
          "name": "D2",
          "midi": 38,
          "time": 40.14391500000002,
          "velocity": 0.9763779527559056,
          "duration": 0.015737421875002156
        },
        {
          "name": "F#2",
          "midi": 42,
          "time": 40.359742500000024,
          "velocity": 0.8110236220472441,
          "duration": 0.015737421875002156
        },
        {
          "name": "F#2",
          "midi": 42,
          "time": 40.57557000000003,
          "velocity": 0.968503937007874,
          "duration": 0.015737421875002156
        },
        {
          "name": "F#2",
          "midi": 42,
          "time": 40.79139750000003,
          "velocity": 0.8110236220472441,
          "duration": 0.015737421875002156
        },
        {
          "name": "C2",
          "midi": 36,
          "time": 40.79139750000003,
          "velocity": 0.9291338582677166,
          "duration": 0.015737421875002156
        },
        {
          "name": "F#2",
          "midi": 42,
          "time": 41.007225000000034,
          "velocity": 0.968503937007874,
          "duration": 0.01573742187499505
        },
        {
          "name": "D2",
          "midi": 38,
          "time": 41.007225000000034,
          "velocity": 0.9763779527559056,
          "duration": 0.01573742187499505
        },
        {
          "name": "D#2",
          "midi": 39,
          "time": 41.01172140625003,
          "velocity": 1,
          "duration": 0.01573742187499505
        },
        {
          "name": "F#2",
          "midi": 42,
          "time": 41.22305250000003,
          "velocity": 0.8110236220472441,
          "duration": 0.015737421875002156
        },
        {
          "name": "F#2",
          "midi": 42,
          "time": 41.43888000000003,
          "velocity": 0.968503937007874,
          "duration": 0.015737421875002156
        },
        {
          "name": "C2",
          "midi": 36,
          "time": 41.43888000000003,
          "velocity": 0.9291338582677166,
          "duration": 0.015737421875002156
        },
        {
          "name": "F#2",
          "midi": 42,
          "time": 41.654707500000036,
          "velocity": 0.8110236220472441,
          "duration": 0.015737421875002156
        },
        {
          "name": "F#2",
          "midi": 42,
          "time": 41.87053500000004,
          "velocity": 0.968503937007874,
          "duration": 0.015737421875002156
        },
        {
          "name": "D2",
          "midi": 38,
          "time": 41.87053500000004,
          "velocity": 0.9763779527559056,
          "duration": 0.015737421875002156
        },
        {
          "name": "F#2",
          "midi": 42,
          "time": 42.08636250000004,
          "velocity": 0.8110236220472441,
          "duration": 0.015737421875002156
        },
        {
          "name": "F#2",
          "midi": 42,
          "time": 42.302190000000046,
          "velocity": 0.968503937007874,
          "duration": 0.015737421875002156
        },
        {
          "name": "C2",
          "midi": 36,
          "time": 42.302190000000046,
          "velocity": 0.9291338582677166,
          "duration": 0.015737421875002156
        },
        {
          "name": "F#2",
          "midi": 42,
          "time": 42.51801750000005,
          "velocity": 0.8110236220472441,
          "duration": 0.015737421875002156
        },
        {
          "name": "F#2",
          "midi": 42,
          "time": 42.73384500000005,
          "velocity": 0.968503937007874,
          "duration": 0.01573742187499505
        },
        {
          "name": "D2",
          "midi": 38,
          "time": 42.73384500000005,
          "velocity": 0.9763779527559056,
          "duration": 0.01573742187499505
        },
        {
          "name": "D#2",
          "midi": 39,
          "time": 42.73834140625005,
          "velocity": 1,
          "duration": 0.01573742187499505
        },
        {
          "name": "F#2",
          "midi": 42,
          "time": 42.94967250000005,
          "velocity": 0.8110236220472441,
          "duration": 0.015737421875002156
        },
        {
          "name": "F#2",
          "midi": 42,
          "time": 43.16550000000005,
          "velocity": 0.968503937007874,
          "duration": 0.015737421875002156
        },
        {
          "name": "C2",
          "midi": 36,
          "time": 43.16550000000005,
          "velocity": 0.9291338582677166,
          "duration": 0.015737421875002156
        },
        {
          "name": "F#2",
          "midi": 42,
          "time": 43.381327500000054,
          "velocity": 0.8110236220472441,
          "duration": 0.015737421875002156
        },
        {
          "name": "C2",
          "midi": 36,
          "time": 43.59715500000006,
          "velocity": 0.9291338582677166,
          "duration": 0.015737421875002156
        },
        {
          "name": "F#2",
          "midi": 42,
          "time": 43.59715500000006,
          "velocity": 0.968503937007874,
          "duration": 0.015737421875002156
        },
        {
          "name": "D2",
          "midi": 38,
          "time": 43.59715500000006,
          "velocity": 0.9763779527559056,
          "duration": 0.015737421875002156
        },
        {
          "name": "F#2",
          "midi": 42,
          "time": 43.81298250000006,
          "velocity": 0.8110236220472441,
          "duration": 0.015737421875002156
        },
        {
          "name": "F#2",
          "midi": 42,
          "time": 44.028810000000064,
          "velocity": 0.968503937007874,
          "duration": 0.015737421875002156
        },
        {
          "name": "F#2",
          "midi": 42,
          "time": 44.24463750000007,
          "velocity": 0.8110236220472441,
          "duration": 0.015737421875002156
        },
        {
          "name": "C2",
          "midi": 36,
          "time": 44.24463750000007,
          "velocity": 0.9291338582677166,
          "duration": 0.015737421875002156
        },
        {
          "name": "F#2",
          "midi": 42,
          "time": 44.46046500000007,
          "velocity": 0.968503937007874,
          "duration": 0.01573742187499505
        },
        {
          "name": "D2",
          "midi": 38,
          "time": 44.46046500000007,
          "velocity": 0.9763779527559056,
          "duration": 0.01573742187499505
        },
        {
          "name": "D#2",
          "midi": 39,
          "time": 44.46496140625007,
          "velocity": 1,
          "duration": 0.01573742187499505
        },
        {
          "name": "F#2",
          "midi": 42,
          "time": 44.676292500000066,
          "velocity": 0.8110236220472441,
          "duration": 0.015737421875002156
        },
        {
          "name": "F#2",
          "midi": 42,
          "time": 44.89212000000007,
          "velocity": 0.968503937007874,
          "duration": 0.015737421875002156
        },
        {
          "name": "C2",
          "midi": 36,
          "time": 44.89212000000007,
          "velocity": 0.9291338582677166,
          "duration": 0.015737421875002156
        },
        {
          "name": "F#2",
          "midi": 42,
          "time": 45.10794750000007,
          "velocity": 0.8110236220472441,
          "duration": 0.015737421875002156
        },
        {
          "name": "F#2",
          "midi": 42,
          "time": 45.323775000000076,
          "velocity": 0.968503937007874,
          "duration": 0.015737421875002156
        },
        {
          "name": "D2",
          "midi": 38,
          "time": 45.323775000000076,
          "velocity": 0.9763779527559056,
          "duration": 0.015737421875002156
        },
        {
          "name": "F#2",
          "midi": 42,
          "time": 45.53960250000008,
          "velocity": 0.8110236220472441,
          "duration": 0.015737421875002156
        },
        {
          "name": "F#2",
          "midi": 42,
          "time": 45.75543000000008,
          "velocity": 0.968503937007874,
          "duration": 0.015737421875002156
        },
        {
          "name": "C2",
          "midi": 36,
          "time": 45.75543000000008,
          "velocity": 0.9291338582677166,
          "duration": 0.015737421875002156
        },
        {
          "name": "F#2",
          "midi": 42,
          "time": 45.971257500000085,
          "velocity": 0.8110236220472441,
          "duration": 0.015737421875002156
        },
        {
          "name": "F#2",
          "midi": 42,
          "time": 46.18708500000009,
          "velocity": 0.968503937007874,
          "duration": 0.01573742187499505
        },
        {
          "name": "D2",
          "midi": 38,
          "time": 46.18708500000009,
          "velocity": 0.9763779527559056,
          "duration": 0.01573742187499505
        },
        {
          "name": "D#2",
          "midi": 39,
          "time": 46.19158140625009,
          "velocity": 1,
          "duration": 0.01573742187499505
        },
        {
          "name": "F#2",
          "midi": 42,
          "time": 46.402912500000085,
          "velocity": 0.8110236220472441,
          "duration": 0.015737421875002156
        },
        {
          "name": "F#2",
          "midi": 42,
          "time": 46.61874000000009,
          "velocity": 0.968503937007874,
          "duration": 0.015737421875002156
        },
        {
          "name": "C2",
          "midi": 36,
          "time": 46.61874000000009,
          "velocity": 0.9291338582677166,
          "duration": 0.015737421875002156
        },
        {
          "name": "F#2",
          "midi": 42,
          "time": 46.83456750000009,
          "velocity": 0.8110236220472441,
          "duration": 0.015737421875002156
        },
        {
          "name": "C2",
          "midi": 36,
          "time": 47.050395000000094,
          "velocity": 0.9291338582677166,
          "duration": 0.015737421875002156
        },
        {
          "name": "F#2",
          "midi": 42,
          "time": 47.050395000000094,
          "velocity": 0.968503937007874,
          "duration": 0.015737421875002156
        },
        {
          "name": "D2",
          "midi": 38,
          "time": 47.050395000000094,
          "velocity": 0.9763779527559056,
          "duration": 0.015737421875002156
        },
        {
          "name": "F#2",
          "midi": 42,
          "time": 47.2662225000001,
          "velocity": 0.8110236220472441,
          "duration": 0.015737421875002156
        },
        {
          "name": "F#2",
          "midi": 42,
          "time": 47.4820500000001,
          "velocity": 0.968503937007874,
          "duration": 0.015737421875002156
        },
        {
          "name": "F#2",
          "midi": 42,
          "time": 47.697877500000104,
          "velocity": 0.8110236220472441,
          "duration": 0.015737421875002156
        },
        {
          "name": "C2",
          "midi": 36,
          "time": 47.697877500000104,
          "velocity": 0.9291338582677166,
          "duration": 0.015737421875002156
        },
        {
          "name": "F#2",
          "midi": 42,
          "time": 47.91370500000011,
          "velocity": 0.968503937007874,
          "duration": 0.01573742187499505
        },
        {
          "name": "D2",
          "midi": 38,
          "time": 47.91370500000011,
          "velocity": 0.9763779527559056,
          "duration": 0.01573742187499505
        },
        {
          "name": "D#2",
          "midi": 39,
          "time": 47.918201406250105,
          "velocity": 1,
          "duration": 0.01573742187499505
        },
        {
          "name": "A3",
          "midi": 57,
          "time": 48.1295325000001,
          "velocity": 0.9291338582677166,
          "duration": 0.015737421875002156
        },
        {
          "name": "C2",
          "midi": 36,
          "time": 48.1295325000001,
          "velocity": 0.9291338582677166,
          "duration": 0.015737421875002156
        },
        {
          "name": "F#2",
          "midi": 42,
          "time": 48.345360000000106,
          "velocity": 0.968503937007874,
          "duration": 0.015737421875002156
        },
        {
          "name": "C2",
          "midi": 36,
          "time": 48.345360000000106,
          "velocity": 0.9291338582677166,
          "duration": 0.015737421875002156
        },
        {
          "name": "F#2",
          "midi": 42,
          "time": 48.56118750000011,
          "velocity": 0.8110236220472441,
          "duration": 0.015737421875002156
        },
        {
          "name": "F#2",
          "midi": 42,
          "time": 48.77701500000011,
          "velocity": 0.968503937007874,
          "duration": 0.015737421875002156
        },
        {
          "name": "D2",
          "midi": 38,
          "time": 48.77701500000011,
          "velocity": 0.9763779527559056,
          "duration": 0.015737421875002156
        },
        {
          "name": "F#2",
          "midi": 42,
          "time": 48.992842500000116,
          "velocity": 0.8110236220472441,
          "duration": 0.015737421875002156
        },
        {
          "name": "F#2",
          "midi": 42,
          "time": 49.20867000000012,
          "velocity": 0.968503937007874,
          "duration": 0.015737421875002156
        },
        {
          "name": "C2",
          "midi": 36,
          "time": 49.20867000000012,
          "velocity": 0.9291338582677166,
          "duration": 0.015737421875002156
        },
        {
          "name": "F#2",
          "midi": 42,
          "time": 49.42449750000012,
          "velocity": 0.8110236220472441,
          "duration": 0.015737421875002156
        },
        {
          "name": "F#2",
          "midi": 42,
          "time": 49.640325000000125,
          "velocity": 0.968503937007874,
          "duration": 0.01573742187499505
        },
        {
          "name": "D2",
          "midi": 38,
          "time": 49.640325000000125,
          "velocity": 0.9763779527559056,
          "duration": 0.01573742187499505
        },
        {
          "name": "D#2",
          "midi": 39,
          "time": 49.644821406250124,
          "velocity": 1,
          "duration": 0.01573742187499505
        },
        {
          "name": "F#2",
          "midi": 42,
          "time": 49.85615250000012,
          "velocity": 0.8110236220472441,
          "duration": 0.015737421875002156
        },
        {
          "name": "F#2",
          "midi": 42,
          "time": 50.071980000000124,
          "velocity": 0.968503937007874,
          "duration": 0.015737421875002156
        },
        {
          "name": "C2",
          "midi": 36,
          "time": 50.071980000000124,
          "velocity": 0.9291338582677166,
          "duration": 0.015737421875002156
        },
        {
          "name": "F#2",
          "midi": 42,
          "time": 50.28780750000013,
          "velocity": 0.8110236220472441,
          "duration": 0.015737421875002156
        },
        {
          "name": "C2",
          "midi": 36,
          "time": 50.50363500000013,
          "velocity": 0.9291338582677166,
          "duration": 0.015737421875002156
        },
        {
          "name": "F#2",
          "midi": 42,
          "time": 50.50363500000013,
          "velocity": 0.968503937007874,
          "duration": 0.015737421875002156
        },
        {
          "name": "D2",
          "midi": 38,
          "time": 50.50363500000013,
          "velocity": 0.9763779527559056,
          "duration": 0.015737421875002156
        },
        {
          "name": "F#2",
          "midi": 42,
          "time": 50.719462500000134,
          "velocity": 0.8110236220472441,
          "duration": 0.015737421875002156
        },
        {
          "name": "F#2",
          "midi": 42,
          "time": 50.93529000000014,
          "velocity": 0.968503937007874,
          "duration": 0.015737421875002156
        },
        {
          "name": "F#2",
          "midi": 42,
          "time": 51.15111750000014,
          "velocity": 0.8110236220472441,
          "duration": 0.015737421875002156
        },
        {
          "name": "C2",
          "midi": 36,
          "time": 51.15111750000014,
          "velocity": 0.9291338582677166,
          "duration": 0.015737421875002156
        },
        {
          "name": "F#2",
          "midi": 42,
          "time": 51.36694500000014,
          "velocity": 0.968503937007874,
          "duration": 0.01573742187499505
        },
        {
          "name": "D2",
          "midi": 38,
          "time": 51.36694500000014,
          "velocity": 0.9763779527559056,
          "duration": 0.01573742187499505
        },
        {
          "name": "D#2",
          "midi": 39,
          "time": 51.37144140625014,
          "velocity": 1,
          "duration": 0.01573742187499505
        },
        {
          "name": "F#2",
          "midi": 42,
          "time": 51.58277250000014,
          "velocity": 0.8110236220472441,
          "duration": 0.015737421875002156
        },
        {
          "name": "F#2",
          "midi": 42,
          "time": 51.79860000000014,
          "velocity": 0.968503937007874,
          "duration": 0.015737421875002156
        },
        {
          "name": "C2",
          "midi": 36,
          "time": 51.79860000000014,
          "velocity": 0.9291338582677166,
          "duration": 0.015737421875002156
        },
        {
          "name": "F#2",
          "midi": 42,
          "time": 52.014427500000146,
          "velocity": 0.8110236220472441,
          "duration": 0.015737421875002156
        },
        {
          "name": "F#2",
          "midi": 42,
          "time": 52.23025500000015,
          "velocity": 0.968503937007874,
          "duration": 0.015737421875002156
        },
        {
          "name": "D2",
          "midi": 38,
          "time": 52.23025500000015,
          "velocity": 0.9763779527559056,
          "duration": 0.015737421875002156
        },
        {
          "name": "F#2",
          "midi": 42,
          "time": 52.44608250000015,
          "velocity": 0.8110236220472441,
          "duration": 0.015737421875002156
        },
        {
          "name": "F#2",
          "midi": 42,
          "time": 52.661910000000155,
          "velocity": 0.968503937007874,
          "duration": 0.015737421875002156
        },
        {
          "name": "C2",
          "midi": 36,
          "time": 52.661910000000155,
          "velocity": 0.9291338582677166,
          "duration": 0.015737421875002156
        },
        {
          "name": "F#2",
          "midi": 42,
          "time": 52.87773750000016,
          "velocity": 0.8110236220472441,
          "duration": 0.015737421875002156
        },
        {
          "name": "F#2",
          "midi": 42,
          "time": 53.09356500000016,
          "velocity": 0.968503937007874,
          "duration": 0.01573742187499505
        },
        {
          "name": "D2",
          "midi": 38,
          "time": 53.09356500000016,
          "velocity": 0.9763779527559056,
          "duration": 0.01573742187499505
        },
        {
          "name": "D#2",
          "midi": 39,
          "time": 53.09806140625016,
          "velocity": 1,
          "duration": 0.01573742187499505
        },
        {
          "name": "F#2",
          "midi": 42,
          "time": 53.30939250000016,
          "velocity": 0.8110236220472441,
          "duration": 0.015737421875002156
        },
        {
          "name": "F#2",
          "midi": 42,
          "time": 53.52522000000016,
          "velocity": 0.968503937007874,
          "duration": 0.015737421875002156
        },
        {
          "name": "C2",
          "midi": 36,
          "time": 53.52522000000016,
          "velocity": 0.9291338582677166,
          "duration": 0.015737421875002156
        },
        {
          "name": "F#2",
          "midi": 42,
          "time": 53.741047500000164,
          "velocity": 0.8110236220472441,
          "duration": 0.015737421875002156
        },
        {
          "name": "C2",
          "midi": 36,
          "time": 53.95687500000017,
          "velocity": 0.9291338582677166,
          "duration": 0.015737421875002156
        },
        {
          "name": "F#2",
          "midi": 42,
          "time": 53.95687500000017,
          "velocity": 0.968503937007874,
          "duration": 0.015737421875002156
        },
        {
          "name": "D2",
          "midi": 38,
          "time": 53.95687500000017,
          "velocity": 0.9763779527559056,
          "duration": 0.015737421875002156
        },
        {
          "name": "F#2",
          "midi": 42,
          "time": 54.17270250000017,
          "velocity": 0.8110236220472441,
          "duration": 0.015737421875002156
        },
        {
          "name": "F#2",
          "midi": 42,
          "time": 54.38853000000017,
          "velocity": 0.968503937007874,
          "duration": 0.015737421875002156
        },
        {
          "name": "F#2",
          "midi": 42,
          "time": 54.60435750000018,
          "velocity": 0.8110236220472441,
          "duration": 0.015737421875002156
        },
        {
          "name": "C2",
          "midi": 36,
          "time": 54.60435750000018,
          "velocity": 0.9291338582677166,
          "duration": 0.015737421875002156
        },
        {
          "name": "F#2",
          "midi": 42,
          "time": 54.82018500000018,
          "velocity": 0.968503937007874,
          "duration": 0.01573742187499505
        },
        {
          "name": "D2",
          "midi": 38,
          "time": 54.82018500000018,
          "velocity": 0.9763779527559056,
          "duration": 0.01573742187499505
        },
        {
          "name": "D#2",
          "midi": 39,
          "time": 54.82468140625018,
          "velocity": 1,
          "duration": 0.01573742187499505
        },
        {
          "name": "F#2",
          "midi": 42,
          "time": 55.036012500000176,
          "velocity": 0.8110236220472441,
          "duration": 0.015737421875002156
        },
        {
          "name": "F#2",
          "midi": 42,
          "time": 55.25184000000018,
          "velocity": 0.968503937007874,
          "duration": 0.015737421875002156
        },
        {
          "name": "C2",
          "midi": 36,
          "time": 55.25184000000018,
          "velocity": 0.9291338582677166,
          "duration": 0.015737421875002156
        },
        {
          "name": "F#2",
          "midi": 42,
          "time": 55.46766750000018,
          "velocity": 0.8110236220472441,
          "duration": 0.015737421875002156
        },
        {
          "name": "F#2",
          "midi": 42,
          "time": 55.683495000000185,
          "velocity": 0.968503937007874,
          "duration": 0.015737421875002156
        },
        {
          "name": "D2",
          "midi": 38,
          "time": 55.683495000000185,
          "velocity": 0.9763779527559056,
          "duration": 0.015737421875002156
        },
        {
          "name": "F#2",
          "midi": 42,
          "time": 55.89932250000019,
          "velocity": 0.8110236220472441,
          "duration": 0.015737421875002156
        },
        {
          "name": "F#2",
          "midi": 42,
          "time": 56.11515000000019,
          "velocity": 0.968503937007874,
          "duration": 0.015737421875002156
        },
        {
          "name": "C2",
          "midi": 36,
          "time": 56.11515000000019,
          "velocity": 0.9291338582677166,
          "duration": 0.015737421875002156
        },
        {
          "name": "F#2",
          "midi": 42,
          "time": 56.330977500000195,
          "velocity": 0.8110236220472441,
          "duration": 0.015737421875002156
        },
        {
          "name": "F#2",
          "midi": 42,
          "time": 56.5468050000002,
          "velocity": 0.968503937007874,
          "duration": 0.01573742187499505
        },
        {
          "name": "D2",
          "midi": 38,
          "time": 56.5468050000002,
          "velocity": 0.9763779527559056,
          "duration": 0.01573742187499505
        },
        {
          "name": "D#2",
          "midi": 39,
          "time": 56.5513014062502,
          "velocity": 1,
          "duration": 0.01573742187499505
        },
        {
          "name": "F#2",
          "midi": 42,
          "time": 56.762632500000194,
          "velocity": 0.8110236220472441,
          "duration": 0.015737421875002156
        },
        {
          "name": "F#2",
          "midi": 42,
          "time": 56.9784600000002,
          "velocity": 0.968503937007874,
          "duration": 0.015737421875002156
        },
        {
          "name": "C2",
          "midi": 36,
          "time": 56.9784600000002,
          "velocity": 0.9291338582677166,
          "duration": 0.015737421875002156
        },
        {
          "name": "F#2",
          "midi": 42,
          "time": 57.1942875000002,
          "velocity": 0.8110236220472441,
          "duration": 0.015737421875002156
        },
        {
          "name": "C2",
          "midi": 36,
          "time": 57.410115000000204,
          "velocity": 0.9291338582677166,
          "duration": 0.015737421875002156
        },
        {
          "name": "F#2",
          "midi": 42,
          "time": 57.410115000000204,
          "velocity": 0.968503937007874,
          "duration": 0.015737421875002156
        },
        {
          "name": "D2",
          "midi": 38,
          "time": 57.410115000000204,
          "velocity": 0.9763779527559056,
          "duration": 0.015737421875002156
        },
        {
          "name": "F#2",
          "midi": 42,
          "time": 57.62594250000021,
          "velocity": 0.8110236220472441,
          "duration": 0.015737421875002156
        },
        {
          "name": "F#2",
          "midi": 42,
          "time": 57.84177000000021,
          "velocity": 0.968503937007874,
          "duration": 0.015737421875002156
        },
        {
          "name": "F#2",
          "midi": 42,
          "time": 58.05759750000021,
          "velocity": 0.8110236220472441,
          "duration": 0.015737421875002156
        },
        {
          "name": "C2",
          "midi": 36,
          "time": 58.05759750000021,
          "velocity": 0.9291338582677166,
          "duration": 0.015737421875002156
        },
        {
          "name": "F#2",
          "midi": 42,
          "time": 58.273425000000216,
          "velocity": 0.968503937007874,
          "duration": 0.01573742187499505
        },
        {
          "name": "D2",
          "midi": 38,
          "time": 58.273425000000216,
          "velocity": 0.9763779527559056,
          "duration": 0.01573742187499505
        },
        {
          "name": "D#2",
          "midi": 39,
          "time": 58.277921406250215,
          "velocity": 1,
          "duration": 0.01573742187499505
        },
        {
          "name": "F#2",
          "midi": 42,
          "time": 58.48925250000021,
          "velocity": 0.8110236220472441,
          "duration": 0.015737421875002156
        },
        {
          "name": "F#2",
          "midi": 42,
          "time": 58.705080000000216,
          "velocity": 0.968503937007874,
          "duration": 0.015737421875002156
        },
        {
          "name": "C2",
          "midi": 36,
          "time": 58.705080000000216,
          "velocity": 0.9291338582677166,
          "duration": 0.015737421875002156
        },
        {
          "name": "F#2",
          "midi": 42,
          "time": 58.92090750000022,
          "velocity": 0.8110236220472441,
          "duration": 0.015737421875002156
        },
        {
          "name": "F#2",
          "midi": 42,
          "time": 59.13673500000022,
          "velocity": 0.968503937007874,
          "duration": 0.015737421875002156
        },
        {
          "name": "D2",
          "midi": 38,
          "time": 59.13673500000022,
          "velocity": 0.9763779527559056,
          "duration": 0.015737421875002156
        },
        {
          "name": "F#2",
          "midi": 42,
          "time": 59.352562500000225,
          "velocity": 0.8110236220472441,
          "duration": 0.015737421875002156
        },
        {
          "name": "F#2",
          "midi": 42,
          "time": 59.56839000000023,
          "velocity": 0.968503937007874,
          "duration": 0.015737421875002156
        },
        {
          "name": "C2",
          "midi": 36,
          "time": 59.56839000000023,
          "velocity": 0.9291338582677166,
          "duration": 0.015737421875002156
        },
        {
          "name": "F#2",
          "midi": 42,
          "time": 59.78421750000023,
          "velocity": 0.8110236220472441,
          "duration": 0.015737421875002156
        },
        {
          "name": "F#2",
          "midi": 42,
          "time": 60.000045000000235,
          "velocity": 0.968503937007874,
          "duration": 0.01573742187499505
        },
        {
          "name": "D2",
          "midi": 38,
          "time": 60.000045000000235,
          "velocity": 0.9763779527559056,
          "duration": 0.01573742187499505
        },
        {
          "name": "D#2",
          "midi": 39,
          "time": 60.00454140625023,
          "velocity": 1,
          "duration": 0.01573742187499505
        },
        {
          "name": "F#2",
          "midi": 42,
          "time": 60.21587250000023,
          "velocity": 0.8110236220472441,
          "duration": 0.015737421875002156
        },
        {
          "name": "F#2",
          "midi": 42,
          "time": 60.431700000000234,
          "velocity": 0.968503937007874,
          "duration": 0.015737421875002156
        },
        {
          "name": "C2",
          "midi": 36,
          "time": 60.431700000000234,
          "velocity": 0.9291338582677166,
          "duration": 0.015737421875002156
        },
        {
          "name": "F#2",
          "midi": 42,
          "time": 60.64752750000024,
          "velocity": 0.8110236220472441,
          "duration": 0.015737421875002156
        },
        {
          "name": "C2",
          "midi": 36,
          "time": 60.86335500000024,
          "velocity": 0.9291338582677166,
          "duration": 0.015737421875002156
        },
        {
          "name": "F#2",
          "midi": 42,
          "time": 60.86335500000024,
          "velocity": 0.968503937007874,
          "duration": 0.015737421875002156
        },
        {
          "name": "D2",
          "midi": 38,
          "time": 60.86335500000024,
          "velocity": 0.9763779527559056,
          "duration": 0.015737421875002156
        },
        {
          "name": "F#2",
          "midi": 42,
          "time": 61.07918250000024,
          "velocity": 0.8110236220472441,
          "duration": 0.015737421875002156
        },
        {
          "name": "F#2",
          "midi": 42,
          "time": 61.29501000000025,
          "velocity": 0.968503937007874,
          "duration": 0.015737421875002156
        },
        {
          "name": "F#2",
          "midi": 42,
          "time": 61.51083750000025,
          "velocity": 0.8110236220472441,
          "duration": 0.015737421875002156
        },
        {
          "name": "C2",
          "midi": 36,
          "time": 61.51083750000025,
          "velocity": 0.9291338582677166,
          "duration": 0.015737421875002156
        },
        {
          "name": "F#2",
          "midi": 42,
          "time": 61.72666500000025,
          "velocity": 0.968503937007874,
          "duration": 0.01573742187499505
        },
        {
          "name": "D2",
          "midi": 38,
          "time": 61.72666500000025,
          "velocity": 0.9763779527559056,
          "duration": 0.01573742187499505
        },
        {
          "name": "D#2",
          "midi": 39,
          "time": 61.73116140625025,
          "velocity": 1,
          "duration": 0.01573742187499505
        },
        {
          "name": "F#2",
          "midi": 42,
          "time": 61.94249250000025,
          "velocity": 0.8110236220472441,
          "duration": 0.015737421875002156
        },
        {
          "name": "A3",
          "midi": 57,
          "time": 62.15832000000025,
          "velocity": 0.905511811023622,
          "duration": 0.015737421875002156
        },
        {
          "name": "C2",
          "midi": 36,
          "time": 62.15832000000025,
          "velocity": 0.9291338582677166,
          "duration": 0.015737421875002156
        },
        {
          "name": "F#2",
          "midi": 42,
          "time": 62.374147500000255,
          "velocity": 0.8110236220472441,
          "duration": 0.015737421875002156
        },
        {
          "name": "F#2",
          "midi": 42,
          "time": 62.58997500000026,
          "velocity": 0.968503937007874,
          "duration": 0.015737421875002156
        },
        {
          "name": "D2",
          "midi": 38,
          "time": 62.58997500000026,
          "velocity": 0.9763779527559056,
          "duration": 0.015737421875002156
        },
        {
          "name": "F#2",
          "midi": 42,
          "time": 62.80580250000026,
          "velocity": 0.8110236220472441,
          "duration": 0.015737421875002156
        },
        {
          "name": "F#2",
          "midi": 42,
          "time": 63.021630000000265,
          "velocity": 0.968503937007874,
          "duration": 0.015737421875002156
        },
        {
          "name": "C2",
          "midi": 36,
          "time": 63.021630000000265,
          "velocity": 0.9291338582677166,
          "duration": 0.015737421875002156
        },
        {
          "name": "F#2",
          "midi": 42,
          "time": 63.23745750000027,
          "velocity": 0.8110236220472441,
          "duration": 0.015737421875002156
        },
        {
          "name": "F#2",
          "midi": 42,
          "time": 63.45328500000027,
          "velocity": 0.968503937007874,
          "duration": 0.01573742187499505
        },
        {
          "name": "D2",
          "midi": 38,
          "time": 63.45328500000027,
          "velocity": 0.9763779527559056,
          "duration": 0.01573742187499505
        },
        {
          "name": "D#2",
          "midi": 39,
          "time": 63.45778140625027,
          "velocity": 1,
          "duration": 0.01573742187499505
        },
        {
          "name": "F#2",
          "midi": 42,
          "time": 63.66911250000027,
          "velocity": 0.8110236220472441,
          "duration": 0.015737421875002156
        },
        {
          "name": "F#2",
          "midi": 42,
          "time": 63.88494000000027,
          "velocity": 0.968503937007874,
          "duration": 0.015737421875002156
        },
        {
          "name": "C2",
          "midi": 36,
          "time": 63.88494000000027,
          "velocity": 0.9291338582677166,
          "duration": 0.015737421875002156
        },
        {
          "name": "F#2",
          "midi": 42,
          "time": 64.10076750000027,
          "velocity": 0.8110236220472441,
          "duration": 0.015737421875002156
        },
        {
          "name": "C2",
          "midi": 36,
          "time": 64.31659500000028,
          "velocity": 0.9291338582677166,
          "duration": 0.015737421875002156
        },
        {
          "name": "F#2",
          "midi": 42,
          "time": 64.31659500000028,
          "velocity": 0.968503937007874,
          "duration": 0.015737421875002156
        },
        {
          "name": "D2",
          "midi": 38,
          "time": 64.31659500000028,
          "velocity": 0.9763779527559056,
          "duration": 0.015737421875002156
        },
        {
          "name": "F#2",
          "midi": 42,
          "time": 64.53242250000028,
          "velocity": 0.8110236220472441,
          "duration": 0.015737421875002156
        },
        {
          "name": "F#2",
          "midi": 42,
          "time": 64.74825000000028,
          "velocity": 0.968503937007874,
          "duration": 0.015737421875002156
        },
        {
          "name": "F#2",
          "midi": 42,
          "time": 64.96407750000029,
          "velocity": 0.8110236220472441,
          "duration": 0.015737421875002156
        },
        {
          "name": "C2",
          "midi": 36,
          "time": 64.96407750000029,
          "velocity": 0.9291338582677166,
          "duration": 0.015737421875002156
        },
        {
          "name": "F#2",
          "midi": 42,
          "time": 65.17990500000029,
          "velocity": 0.968503937007874,
          "duration": 0.015737421875002156
        },
        {
          "name": "D2",
          "midi": 38,
          "time": 65.17990500000029,
          "velocity": 0.9763779527559056,
          "duration": 0.015737421875002156
        },
        {
          "name": "D#2",
          "midi": 39,
          "time": 65.18440140625029,
          "velocity": 1,
          "duration": 0.015737421875002156
        },
        {
          "name": "F#2",
          "midi": 42,
          "time": 65.39573250000029,
          "velocity": 0.8110236220472441,
          "duration": 0.015737421875002156
        },
        {
          "name": "F#2",
          "midi": 42,
          "time": 65.6115600000003,
          "velocity": 0.968503937007874,
          "duration": 0.015737421875002156
        },
        {
          "name": "C2",
          "midi": 36,
          "time": 65.6115600000003,
          "velocity": 0.9291338582677166,
          "duration": 0.015737421875002156
        },
        {
          "name": "F#2",
          "midi": 42,
          "time": 65.8273875000003,
          "velocity": 0.8110236220472441,
          "duration": 0.015737421875002156
        },
        {
          "name": "F#2",
          "midi": 42,
          "time": 66.0432150000003,
          "velocity": 0.968503937007874,
          "duration": 0.015737421875002156
        },
        {
          "name": "D2",
          "midi": 38,
          "time": 66.0432150000003,
          "velocity": 0.9763779527559056,
          "duration": 0.015737421875002156
        },
        {
          "name": "F#2",
          "midi": 42,
          "time": 66.2590425000003,
          "velocity": 0.8110236220472441,
          "duration": 0.015737421875002156
        },
        {
          "name": "F#2",
          "midi": 42,
          "time": 66.47487000000031,
          "velocity": 0.968503937007874,
          "duration": 0.015737421875002156
        },
        {
          "name": "C2",
          "midi": 36,
          "time": 66.47487000000031,
          "velocity": 0.9291338582677166,
          "duration": 0.015737421875002156
        },
        {
          "name": "F#2",
          "midi": 42,
          "time": 66.69069750000031,
          "velocity": 0.8110236220472441,
          "duration": 0.015737421875002156
        },
        {
          "name": "F#2",
          "midi": 42,
          "time": 66.90652500000031,
          "velocity": 0.968503937007874,
          "duration": 0.015737421875002156
        },
        {
          "name": "D2",
          "midi": 38,
          "time": 66.90652500000031,
          "velocity": 0.9763779527559056,
          "duration": 0.015737421875002156
        },
        {
          "name": "D#2",
          "midi": 39,
          "time": 66.91102140625031,
          "velocity": 1,
          "duration": 0.015737421875002156
        },
        {
          "name": "F#2",
          "midi": 42,
          "time": 67.12235250000032,
          "velocity": 0.8110236220472441,
          "duration": 0.015737421875002156
        },
        {
          "name": "F#2",
          "midi": 42,
          "time": 67.33818000000032,
          "velocity": 0.968503937007874,
          "duration": 0.015737421875002156
        },
        {
          "name": "C2",
          "midi": 36,
          "time": 67.33818000000032,
          "velocity": 0.9291338582677166,
          "duration": 0.015737421875002156
        },
        {
          "name": "F#2",
          "midi": 42,
          "time": 67.55400750000032,
          "velocity": 0.8110236220472441,
          "duration": 0.015737421875002156
        },
        {
          "name": "C2",
          "midi": 36,
          "time": 67.76983500000033,
          "velocity": 0.9291338582677166,
          "duration": 0.015737421875002156
        },
        {
          "name": "F#2",
          "midi": 42,
          "time": 67.76983500000033,
          "velocity": 0.968503937007874,
          "duration": 0.015737421875002156
        },
        {
          "name": "D2",
          "midi": 38,
          "time": 67.76983500000033,
          "velocity": 0.9763779527559056,
          "duration": 0.015737421875002156
        },
        {
          "name": "F#2",
          "midi": 42,
          "time": 67.98566250000033,
          "velocity": 0.8110236220472441,
          "duration": 0.015737421875002156
        },
        {
          "name": "E1",
          "midi": 28,
          "time": 68.20149000000033,
          "velocity": 0.9921259842519685,
          "duration": 0.015737421875002156
        },
        {
          "name": "F#2",
          "midi": 42,
          "time": 68.20149000000033,
          "velocity": 0.9291338582677166,
          "duration": 0.015737421875002156
        },
        {
          "name": "F#2",
          "midi": 42,
          "time": 68.41731750000034,
          "velocity": 0.8110236220472441,
          "duration": 0.015737421875002156
        },
        {
          "name": "C2",
          "midi": 36,
          "time": 68.41731750000034,
          "velocity": 0.9291338582677166,
          "duration": 0.015737421875002156
        },
        {
          "name": "F#2",
          "midi": 42,
          "time": 68.63314500000034,
          "velocity": 0.968503937007874,
          "duration": 0.015737421875002156
        },
        {
          "name": "D2",
          "midi": 38,
          "time": 68.63314500000034,
          "velocity": 0.9763779527559056,
          "duration": 0.015737421875002156
        },
        {
          "name": "D#2",
          "midi": 39,
          "time": 68.63764140625034,
          "velocity": 1,
          "duration": 0.015737421875002156
        },
        {
          "name": "F#2",
          "midi": 42,
          "time": 68.84897250000034,
          "velocity": 0.8110236220472441,
          "duration": 0.015737421875002156
        },
        {
          "name": "A3",
          "midi": 57,
          "time": 69.06480000000035,
          "velocity": 0.905511811023622,
          "duration": 0.015737421875002156
        },
        {
          "name": "C2",
          "midi": 36,
          "time": 69.06480000000035,
          "velocity": 0.9291338582677166,
          "duration": 0.015737421875002156
        },
        {
          "name": "F#2",
          "midi": 42,
          "time": 69.28062750000035,
          "velocity": 0.8110236220472441,
          "duration": 0.015737421875002156
        },
        {
          "name": "F#2",
          "midi": 42,
          "time": 69.49645500000035,
          "velocity": 0.968503937007874,
          "duration": 0.015737421875002156
        },
        {
          "name": "D2",
          "midi": 38,
          "time": 69.49645500000035,
          "velocity": 0.9763779527559056,
          "duration": 0.015737421875002156
        },
        {
          "name": "F#2",
          "midi": 42,
          "time": 69.71228250000036,
          "velocity": 0.8110236220472441,
          "duration": 0.015737421875002156
        },
        {
          "name": "F#2",
          "midi": 42,
          "time": 69.92811000000036,
          "velocity": 0.968503937007874,
          "duration": 0.015737421875002156
        },
        {
          "name": "C2",
          "midi": 36,
          "time": 69.92811000000036,
          "velocity": 0.9291338582677166,
          "duration": 0.015737421875002156
        },
        {
          "name": "F#2",
          "midi": 42,
          "time": 70.14393750000036,
          "velocity": 0.8110236220472441,
          "duration": 0.015737421875002156
        },
        {
          "name": "F#2",
          "midi": 42,
          "time": 70.35976500000037,
          "velocity": 0.968503937007874,
          "duration": 0.015737421875002156
        },
        {
          "name": "D2",
          "midi": 38,
          "time": 70.35976500000037,
          "velocity": 0.9763779527559056,
          "duration": 0.015737421875002156
        },
        {
          "name": "D#2",
          "midi": 39,
          "time": 70.36426140625036,
          "velocity": 1,
          "duration": 0.015737421875002156
        },
        {
          "name": "F#2",
          "midi": 42,
          "time": 70.57559250000037,
          "velocity": 0.8110236220472441,
          "duration": 0.015737421875002156
        },
        {
          "name": "F#2",
          "midi": 42,
          "time": 70.79142000000037,
          "velocity": 0.968503937007874,
          "duration": 0.015737421875002156
        },
        {
          "name": "C2",
          "midi": 36,
          "time": 70.79142000000037,
          "velocity": 0.9291338582677166,
          "duration": 0.015737421875002156
        },
        {
          "name": "F#2",
          "midi": 42,
          "time": 71.00724750000037,
          "velocity": 0.8110236220472441,
          "duration": 0.015737421875002156
        },
        {
          "name": "C2",
          "midi": 36,
          "time": 71.22307500000038,
          "velocity": 0.9291338582677166,
          "duration": 0.015737421875002156
        },
        {
          "name": "F#2",
          "midi": 42,
          "time": 71.22307500000038,
          "velocity": 0.968503937007874,
          "duration": 0.015737421875002156
        },
        {
          "name": "D2",
          "midi": 38,
          "time": 71.22307500000038,
          "velocity": 0.9763779527559056,
          "duration": 0.015737421875002156
        },
        {
          "name": "F#2",
          "midi": 42,
          "time": 71.43890250000038,
          "velocity": 0.8110236220472441,
          "duration": 0.015737421875002156
        },
        {
          "name": "F#2",
          "midi": 42,
          "time": 71.65473000000038,
          "velocity": 0.968503937007874,
          "duration": 0.015737421875002156
        },
        {
          "name": "F#2",
          "midi": 42,
          "time": 71.87055750000039,
          "velocity": 0.8110236220472441,
          "duration": 0.015737421875002156
        },
        {
          "name": "C2",
          "midi": 36,
          "time": 71.87055750000039,
          "velocity": 0.9291338582677166,
          "duration": 0.015737421875002156
        },
        {
          "name": "F#2",
          "midi": 42,
          "time": 72.08638500000039,
          "velocity": 0.968503937007874,
          "duration": 0.015737421875002156
        },
        {
          "name": "D2",
          "midi": 38,
          "time": 72.08638500000039,
          "velocity": 0.9763779527559056,
          "duration": 0.015737421875002156
        },
        {
          "name": "D#2",
          "midi": 39,
          "time": 72.09088140625039,
          "velocity": 1,
          "duration": 0.015737421875002156
        },
        {
          "name": "F#2",
          "midi": 42,
          "time": 72.3022125000004,
          "velocity": 0.8110236220472441,
          "duration": 0.015737421875002156
        },
        {
          "name": "F#2",
          "midi": 42,
          "time": 72.5180400000004,
          "velocity": 0.968503937007874,
          "duration": 0.015737421875002156
        },
        {
          "name": "C2",
          "midi": 36,
          "time": 72.5180400000004,
          "velocity": 0.9291338582677166,
          "duration": 0.015737421875002156
        },
        {
          "name": "F#2",
          "midi": 42,
          "time": 72.7338675000004,
          "velocity": 0.8110236220472441,
          "duration": 0.015737421875002156
        },
        {
          "name": "F#2",
          "midi": 42,
          "time": 72.9496950000004,
          "velocity": 0.968503937007874,
          "duration": 0.015737421875002156
        },
        {
          "name": "D2",
          "midi": 38,
          "time": 72.9496950000004,
          "velocity": 0.9763779527559056,
          "duration": 0.015737421875002156
        },
        {
          "name": "F#2",
          "midi": 42,
          "time": 73.1655225000004,
          "velocity": 0.8110236220472441,
          "duration": 0.015737421875002156
        },
        {
          "name": "F#2",
          "midi": 42,
          "time": 73.38135000000041,
          "velocity": 0.968503937007874,
          "duration": 0.015737421875002156
        },
        {
          "name": "C2",
          "midi": 36,
          "time": 73.38135000000041,
          "velocity": 0.9291338582677166,
          "duration": 0.015737421875002156
        },
        {
          "name": "F#2",
          "midi": 42,
          "time": 73.59717750000041,
          "velocity": 0.8110236220472441,
          "duration": 0.015737421875002156
        },
        {
          "name": "F#2",
          "midi": 42,
          "time": 73.81300500000042,
          "velocity": 0.968503937007874,
          "duration": 0.015737421875002156
        },
        {
          "name": "D2",
          "midi": 38,
          "time": 73.81300500000042,
          "velocity": 0.9763779527559056,
          "duration": 0.015737421875002156
        },
        {
          "name": "D#2",
          "midi": 39,
          "time": 73.81750140625041,
          "velocity": 1,
          "duration": 0.015737421875002156
        },
        {
          "name": "F#2",
          "midi": 42,
          "time": 74.02883250000042,
          "velocity": 0.8110236220472441,
          "duration": 0.015737421875002156
        },
        {
          "name": "F#2",
          "midi": 42,
          "time": 74.24466000000042,
          "velocity": 0.968503937007874,
          "duration": 0.015737421875002156
        },
        {
          "name": "C2",
          "midi": 36,
          "time": 74.24466000000042,
          "velocity": 0.9291338582677166,
          "duration": 0.015737421875002156
        },
        {
          "name": "F#2",
          "midi": 42,
          "time": 74.46048750000043,
          "velocity": 0.8110236220472441,
          "duration": 0.015737421875002156
        },
        {
          "name": "C2",
          "midi": 36,
          "time": 74.67631500000043,
          "velocity": 0.9291338582677166,
          "duration": 0.015737421875002156
        },
        {
          "name": "F#2",
          "midi": 42,
          "time": 74.67631500000043,
          "velocity": 0.968503937007874,
          "duration": 0.015737421875002156
        },
        {
          "name": "D2",
          "midi": 38,
          "time": 74.67631500000043,
          "velocity": 0.9763779527559056,
          "duration": 0.015737421875002156
        },
        {
          "name": "F#2",
          "midi": 42,
          "time": 74.89214250000043,
          "velocity": 0.8110236220472441,
          "duration": 0.015737421875002156
        },
        {
          "name": "F#2",
          "midi": 42,
          "time": 75.10797000000044,
          "velocity": 0.968503937007874,
          "duration": 0.015737421875002156
        },
        {
          "name": "F#2",
          "midi": 42,
          "time": 75.32379750000044,
          "velocity": 0.8110236220472441,
          "duration": 0.015737421875002156
        },
        {
          "name": "C2",
          "midi": 36,
          "time": 75.32379750000044,
          "velocity": 0.9291338582677166,
          "duration": 0.015737421875002156
        },
        {
          "name": "F#2",
          "midi": 42,
          "time": 75.53962500000044,
          "velocity": 0.968503937007874,
          "duration": 0.015737421875002156
        },
        {
          "name": "D2",
          "midi": 38,
          "time": 75.53962500000044,
          "velocity": 0.9763779527559056,
          "duration": 0.015737421875002156
        },
        {
          "name": "D#2",
          "midi": 39,
          "time": 75.54412140625044,
          "velocity": 1,
          "duration": 0.015737421875002156
        },
        {
          "name": "F#2",
          "midi": 42,
          "time": 75.75545250000044,
          "velocity": 0.8110236220472441,
          "duration": 0.015737421875002156
        },
        {
          "name": "F#2",
          "midi": 42,
          "time": 75.97128000000045,
          "velocity": 0.968503937007874,
          "duration": 0.015737421875002156
        },
        {
          "name": "C2",
          "midi": 36,
          "time": 75.97128000000045,
          "velocity": 0.9291338582677166,
          "duration": 0.015737421875002156
        },
        {
          "name": "F#2",
          "midi": 42,
          "time": 76.18710750000045,
          "velocity": 0.8110236220472441,
          "duration": 0.015737421875002156
        },
        {
          "name": "F#2",
          "midi": 42,
          "time": 76.40293500000045,
          "velocity": 0.968503937007874,
          "duration": 0.015737421875002156
        },
        {
          "name": "D2",
          "midi": 38,
          "time": 76.40293500000045,
          "velocity": 0.9763779527559056,
          "duration": 0.015737421875002156
        },
        {
          "name": "F#2",
          "midi": 42,
          "time": 76.61876250000046,
          "velocity": 0.8110236220472441,
          "duration": 0.015737421875002156
        },
        {
          "name": "F#2",
          "midi": 42,
          "time": 76.83459000000046,
          "velocity": 0.968503937007874,
          "duration": 0.015737421875002156
        },
        {
          "name": "C2",
          "midi": 36,
          "time": 76.83459000000046,
          "velocity": 0.9291338582677166,
          "duration": 0.015737421875002156
        },
        {
          "name": "F#2",
          "midi": 42,
          "time": 77.05041750000046,
          "velocity": 0.8110236220472441,
          "duration": 0.015737421875002156
        },
        {
          "name": "F#2",
          "midi": 42,
          "time": 77.26624500000047,
          "velocity": 0.968503937007874,
          "duration": 0.015737421875002156
        },
        {
          "name": "D2",
          "midi": 38,
          "time": 77.26624500000047,
          "velocity": 0.9763779527559056,
          "duration": 0.015737421875002156
        },
        {
          "name": "D#2",
          "midi": 39,
          "time": 77.27074140625047,
          "velocity": 1,
          "duration": 0.015737421875002156
        },
        {
          "name": "F#2",
          "midi": 42,
          "time": 77.48207250000047,
          "velocity": 0.8110236220472441,
          "duration": 0.015737421875002156
        },
        {
          "name": "F#2",
          "midi": 42,
          "time": 77.69790000000047,
          "velocity": 0.968503937007874,
          "duration": 0.015737421875002156
        },
        {
          "name": "C2",
          "midi": 36,
          "time": 77.69790000000047,
          "velocity": 0.9291338582677166,
          "duration": 0.015737421875002156
        },
        {
          "name": "F#2",
          "midi": 42,
          "time": 77.91372750000048,
          "velocity": 0.8110236220472441,
          "duration": 0.015737421875002156
        },
        {
          "name": "C2",
          "midi": 36,
          "time": 78.12955500000048,
          "velocity": 0.9291338582677166,
          "duration": 0.015737421875002156
        },
        {
          "name": "F#2",
          "midi": 42,
          "time": 78.12955500000048,
          "velocity": 0.968503937007874,
          "duration": 0.015737421875002156
        },
        {
          "name": "D2",
          "midi": 38,
          "time": 78.12955500000048,
          "velocity": 0.9763779527559056,
          "duration": 0.015737421875002156
        },
        {
          "name": "F#2",
          "midi": 42,
          "time": 78.34538250000048,
          "velocity": 0.8110236220472441,
          "duration": 0.015737421875002156
        },
        {
          "name": "F#2",
          "midi": 42,
          "time": 78.56121000000049,
          "velocity": 0.968503937007874,
          "duration": 0.015737421875002156
        },
        {
          "name": "F#2",
          "midi": 42,
          "time": 78.77703750000049,
          "velocity": 0.8110236220472441,
          "duration": 0.015737421875002156
        },
        {
          "name": "C2",
          "midi": 36,
          "time": 78.77703750000049,
          "velocity": 0.9291338582677166,
          "duration": 0.015737421875002156
        },
        {
          "name": "F#2",
          "midi": 42,
          "time": 78.99286500000049,
          "velocity": 0.968503937007874,
          "duration": 0.015737421875002156
        },
        {
          "name": "D2",
          "midi": 38,
          "time": 78.99286500000049,
          "velocity": 0.9763779527559056,
          "duration": 0.015737421875002156
        },
        {
          "name": "D#2",
          "midi": 39,
          "time": 78.99736140625049,
          "velocity": 1,
          "duration": 0.015737421875002156
        },
        {
          "name": "F#2",
          "midi": 42,
          "time": 79.2086925000005,
          "velocity": 0.8110236220472441,
          "duration": 0.015737421875002156
        },
        {
          "name": "F#2",
          "midi": 42,
          "time": 79.4245200000005,
          "velocity": 0.968503937007874,
          "duration": 0.015737421875002156
        },
        {
          "name": "C2",
          "midi": 36,
          "time": 79.4245200000005,
          "velocity": 0.9291338582677166,
          "duration": 0.015737421875002156
        },
        {
          "name": "F#2",
          "midi": 42,
          "time": 79.6403475000005,
          "velocity": 0.8110236220472441,
          "duration": 0.015737421875002156
        },
        {
          "name": "F#2",
          "midi": 42,
          "time": 79.8561750000005,
          "velocity": 0.968503937007874,
          "duration": 0.015737421875002156
        },
        {
          "name": "D2",
          "midi": 38,
          "time": 79.8561750000005,
          "velocity": 0.9763779527559056,
          "duration": 0.015737421875002156
        },
        {
          "name": "F#2",
          "midi": 42,
          "time": 80.07200250000051,
          "velocity": 0.8110236220472441,
          "duration": 0.015737421875002156
        },
        {
          "name": "F#2",
          "midi": 42,
          "time": 80.28783000000051,
          "velocity": 0.968503937007874,
          "duration": 0.015737421875002156
        },
        {
          "name": "C2",
          "midi": 36,
          "time": 80.28783000000051,
          "velocity": 0.9291338582677166,
          "duration": 0.015737421875002156
        },
        {
          "name": "F#2",
          "midi": 42,
          "time": 80.50365750000051,
          "velocity": 0.8110236220472441,
          "duration": 0.015737421875002156
        },
        {
          "name": "F#2",
          "midi": 42,
          "time": 80.71948500000052,
          "velocity": 0.968503937007874,
          "duration": 0.015737421875002156
        },
        {
          "name": "D2",
          "midi": 38,
          "time": 80.71948500000052,
          "velocity": 0.9763779527559056,
          "duration": 0.015737421875002156
        },
        {
          "name": "D#2",
          "midi": 39,
          "time": 80.72398140625052,
          "velocity": 1,
          "duration": 0.015737421875002156
        },
        {
          "name": "F#2",
          "midi": 42,
          "time": 80.93531250000052,
          "velocity": 0.8110236220472441,
          "duration": 0.015737421875002156
        },
        {
          "name": "F#2",
          "midi": 42,
          "time": 81.15114000000052,
          "velocity": 0.968503937007874,
          "duration": 0.015737421875002156
        },
        {
          "name": "C2",
          "midi": 36,
          "time": 81.15114000000052,
          "velocity": 0.9291338582677166,
          "duration": 0.015737421875002156
        },
        {
          "name": "F#2",
          "midi": 42,
          "time": 81.36696750000053,
          "velocity": 0.8110236220472441,
          "duration": 0.015737421875002156
        },
        {
          "name": "C2",
          "midi": 36,
          "time": 81.58279500000053,
          "velocity": 0.9291338582677166,
          "duration": 0.015737421875002156
        },
        {
          "name": "F#2",
          "midi": 42,
          "time": 81.58279500000053,
          "velocity": 0.968503937007874,
          "duration": 0.015737421875002156
        },
        {
          "name": "D2",
          "midi": 38,
          "time": 81.58279500000053,
          "velocity": 0.9763779527559056,
          "duration": 0.015737421875002156
        },
        {
          "name": "F#2",
          "midi": 42,
          "time": 81.79862250000053,
          "velocity": 0.8110236220472441,
          "duration": 0.015737421875002156
        },
        {
          "name": "F#2",
          "midi": 42,
          "time": 82.01445000000054,
          "velocity": 0.968503937007874,
          "duration": 0.015737421875002156
        },
        {
          "name": "F#2",
          "midi": 42,
          "time": 82.23027750000054,
          "velocity": 0.8110236220472441,
          "duration": 0.015737421875002156
        },
        {
          "name": "C2",
          "midi": 36,
          "time": 82.23027750000054,
          "velocity": 0.9291338582677166,
          "duration": 0.015737421875002156
        },
        {
          "name": "F#2",
          "midi": 42,
          "time": 82.44610500000054,
          "velocity": 0.968503937007874,
          "duration": 0.015737421875002156
        },
        {
          "name": "D2",
          "midi": 38,
          "time": 82.44610500000054,
          "velocity": 0.9763779527559056,
          "duration": 0.015737421875002156
        },
        {
          "name": "D#2",
          "midi": 39,
          "time": 82.45060140625054,
          "velocity": 1,
          "duration": 0.015737421875002156
        },
        {
          "name": "F#2",
          "midi": 42,
          "time": 82.66193250000055,
          "velocity": 0.8110236220472441,
          "duration": 0.015737421875002156
        },
        {
          "name": "C#3",
          "midi": 49,
          "time": 82.87776000000055,
          "velocity": 0.905511811023622,
          "duration": 0.015737421875002156
        },
        {
          "name": "C2",
          "midi": 36,
          "time": 82.87776000000055,
          "velocity": 0.9291338582677166,
          "duration": 0.015737421875002156
        },
        {
          "name": "F#2",
          "midi": 42,
          "time": 83.09358750000055,
          "velocity": 0.8110236220472441,
          "duration": 0.015737421875002156
        },
        {
          "name": "F#2",
          "midi": 42,
          "time": 83.30941500000056,
          "velocity": 0.968503937007874,
          "duration": 0.015737421875002156
        },
        {
          "name": "D2",
          "midi": 38,
          "time": 83.30941500000056,
          "velocity": 0.9763779527559056,
          "duration": 0.015737421875002156
        },
        {
          "name": "F#2",
          "midi": 42,
          "time": 83.52524250000056,
          "velocity": 0.8110236220472441,
          "duration": 0.015737421875002156
        },
        {
          "name": "F#2",
          "midi": 42,
          "time": 83.74107000000056,
          "velocity": 0.968503937007874,
          "duration": 0.015737421875002156
        },
        {
          "name": "C2",
          "midi": 36,
          "time": 83.74107000000056,
          "velocity": 0.9291338582677166,
          "duration": 0.015737421875002156
        },
        {
          "name": "F#2",
          "midi": 42,
          "time": 83.95689750000057,
          "velocity": 0.8110236220472441,
          "duration": 0.015737421875002156
        },
        {
          "name": "F#2",
          "midi": 42,
          "time": 84.17272500000057,
          "velocity": 0.968503937007874,
          "duration": 0.015737421875002156
        },
        {
          "name": "D2",
          "midi": 38,
          "time": 84.17272500000057,
          "velocity": 0.9763779527559056,
          "duration": 0.015737421875002156
        },
        {
          "name": "D#2",
          "midi": 39,
          "time": 84.17722140625057,
          "velocity": 1,
          "duration": 0.015737421875002156
        },
        {
          "name": "F#2",
          "midi": 42,
          "time": 84.38855250000057,
          "velocity": 0.8110236220472441,
          "duration": 0.015737421875002156
        },
        {
          "name": "F#2",
          "midi": 42,
          "time": 84.60438000000057,
          "velocity": 0.968503937007874,
          "duration": 0.015737421875002156
        },
        {
          "name": "C2",
          "midi": 36,
          "time": 84.60438000000057,
          "velocity": 0.9291338582677166,
          "duration": 0.015737421875002156
        },
        {
          "name": "F#2",
          "midi": 42,
          "time": 84.82020750000058,
          "velocity": 0.8110236220472441,
          "duration": 0.015737421875002156
        },
        {
          "name": "C2",
          "midi": 36,
          "time": 85.03603500000058,
          "velocity": 0.9291338582677166,
          "duration": 0.015737421875002156
        },
        {
          "name": "F#2",
          "midi": 42,
          "time": 85.03603500000058,
          "velocity": 0.968503937007874,
          "duration": 0.015737421875002156
        },
        {
          "name": "D2",
          "midi": 38,
          "time": 85.03603500000058,
          "velocity": 0.9763779527559056,
          "duration": 0.015737421875002156
        },
        {
          "name": "F#2",
          "midi": 42,
          "time": 85.25186250000058,
          "velocity": 0.8110236220472441,
          "duration": 0.015737421875002156
        },
        {
          "name": "F#2",
          "midi": 42,
          "time": 85.46769000000059,
          "velocity": 0.968503937007874,
          "duration": 0.015737421875002156
        },
        {
          "name": "F#2",
          "midi": 42,
          "time": 85.68351750000059,
          "velocity": 0.8110236220472441,
          "duration": 0.015737421875002156
        },
        {
          "name": "C2",
          "midi": 36,
          "time": 85.68351750000059,
          "velocity": 0.9291338582677166,
          "duration": 0.015737421875002156
        },
        {
          "name": "F#2",
          "midi": 42,
          "time": 85.8993450000006,
          "velocity": 0.968503937007874,
          "duration": 0.015737421875002156
        },
        {
          "name": "D2",
          "midi": 38,
          "time": 85.8993450000006,
          "velocity": 0.9763779527559056,
          "duration": 0.015737421875002156
        },
        {
          "name": "D#2",
          "midi": 39,
          "time": 85.90384140625059,
          "velocity": 1,
          "duration": 0.015737421875002156
        },
        {
          "name": "F#2",
          "midi": 42,
          "time": 86.1151725000006,
          "velocity": 0.8110236220472441,
          "duration": 0.015737421875002156
        },
        {
          "name": "F#2",
          "midi": 42,
          "time": 86.3310000000006,
          "velocity": 0.968503937007874,
          "duration": 0.015737421875002156
        },
        {
          "name": "C2",
          "midi": 36,
          "time": 86.3310000000006,
          "velocity": 0.9291338582677166,
          "duration": 0.015737421875002156
        },
        {
          "name": "F#2",
          "midi": 42,
          "time": 86.5468275000006,
          "velocity": 0.8110236220472441,
          "duration": 0.015737421875002156
        },
        {
          "name": "F#2",
          "midi": 42,
          "time": 86.7626550000006,
          "velocity": 0.968503937007874,
          "duration": 0.015737421875002156
        },
        {
          "name": "D2",
          "midi": 38,
          "time": 86.7626550000006,
          "velocity": 0.9763779527559056,
          "duration": 0.015737421875002156
        },
        {
          "name": "F#2",
          "midi": 42,
          "time": 86.97848250000061,
          "velocity": 0.8110236220472441,
          "duration": 0.015737421875002156
        },
        {
          "name": "F#2",
          "midi": 42,
          "time": 87.19431000000061,
          "velocity": 0.968503937007874,
          "duration": 0.015737421875002156
        },
        {
          "name": "C2",
          "midi": 36,
          "time": 87.19431000000061,
          "velocity": 0.9291338582677166,
          "duration": 0.015737421875002156
        },
        {
          "name": "F#2",
          "midi": 42,
          "time": 87.41013750000062,
          "velocity": 0.8110236220472441,
          "duration": 0.015737421875002156
        },
        {
          "name": "F#2",
          "midi": 42,
          "time": 87.62596500000062,
          "velocity": 0.968503937007874,
          "duration": 0.015737421875002156
        },
        {
          "name": "D2",
          "midi": 38,
          "time": 87.62596500000062,
          "velocity": 0.9763779527559056,
          "duration": 0.015737421875002156
        },
        {
          "name": "D#2",
          "midi": 39,
          "time": 87.63046140625062,
          "velocity": 1,
          "duration": 0.015737421875002156
        },
        {
          "name": "F#2",
          "midi": 42,
          "time": 87.84179250000062,
          "velocity": 0.8110236220472441,
          "duration": 0.015737421875002156
        },
        {
          "name": "F#2",
          "midi": 42,
          "time": 88.05762000000063,
          "velocity": 0.968503937007874,
          "duration": 0.015737421875002156
        },
        {
          "name": "C2",
          "midi": 36,
          "time": 88.05762000000063,
          "velocity": 0.9291338582677166,
          "duration": 0.015737421875002156
        },
        {
          "name": "F#2",
          "midi": 42,
          "time": 88.27344750000063,
          "velocity": 0.8110236220472441,
          "duration": 0.015737421875002156
        },
        {
          "name": "C2",
          "midi": 36,
          "time": 88.48927500000063,
          "velocity": 0.9291338582677166,
          "duration": 0.015737421875002156
        },
        {
          "name": "F#2",
          "midi": 42,
          "time": 88.48927500000063,
          "velocity": 0.968503937007874,
          "duration": 0.015737421875002156
        },
        {
          "name": "D2",
          "midi": 38,
          "time": 88.48927500000063,
          "velocity": 0.9763779527559056,
          "duration": 0.015737421875002156
        },
        {
          "name": "F#2",
          "midi": 42,
          "time": 88.70510250000063,
          "velocity": 0.8110236220472441,
          "duration": 0.015737421875002156
        },
        {
          "name": "F#2",
          "midi": 42,
          "time": 88.92093000000064,
          "velocity": 0.968503937007874,
          "duration": 0.015737421875002156
        },
        {
          "name": "F#2",
          "midi": 42,
          "time": 89.13675750000064,
          "velocity": 0.8110236220472441,
          "duration": 0.015737421875002156
        },
        {
          "name": "C2",
          "midi": 36,
          "time": 89.13675750000064,
          "velocity": 0.9291338582677166,
          "duration": 0.015737421875002156
        },
        {
          "name": "F#2",
          "midi": 42,
          "time": 89.35258500000064,
          "velocity": 0.968503937007874,
          "duration": 0.015737421875002156
        },
        {
          "name": "D2",
          "midi": 38,
          "time": 89.35258500000064,
          "velocity": 0.9763779527559056,
          "duration": 0.015737421875002156
        },
        {
          "name": "D#2",
          "midi": 39,
          "time": 89.35708140625064,
          "velocity": 1,
          "duration": 0.015737421875002156
        },
        {
          "name": "F#2",
          "midi": 42,
          "time": 89.56841250000065,
          "velocity": 0.8110236220472441,
          "duration": 0.015737421875002156
        },
        {
          "name": "F#2",
          "midi": 42,
          "time": 89.78424000000065,
          "velocity": 0.968503937007874,
          "duration": 0.015737421875002156
        },
        {
          "name": "C2",
          "midi": 36,
          "time": 89.78424000000065,
          "velocity": 0.9291338582677166,
          "duration": 0.015737421875002156
        },
        {
          "name": "F#2",
          "midi": 42,
          "time": 90.00006750000065,
          "velocity": 0.8110236220472441,
          "duration": 0.015737421875002156
        },
        {
          "name": "F#2",
          "midi": 42,
          "time": 90.21589500000066,
          "velocity": 0.968503937007874,
          "duration": 0.015737421875002156
        },
        {
          "name": "D2",
          "midi": 38,
          "time": 90.21589500000066,
          "velocity": 0.9763779527559056,
          "duration": 0.015737421875002156
        },
        {
          "name": "F#2",
          "midi": 42,
          "time": 90.43172250000066,
          "velocity": 0.8110236220472441,
          "duration": 0.015737421875002156
        },
        {
          "name": "F#2",
          "midi": 42,
          "time": 90.64755000000066,
          "velocity": 0.968503937007874,
          "duration": 0.015737421875002156
        },
        {
          "name": "C2",
          "midi": 36,
          "time": 90.64755000000066,
          "velocity": 0.9291338582677166,
          "duration": 0.015737421875002156
        },
        {
          "name": "F#2",
          "midi": 42,
          "time": 90.86337750000067,
          "velocity": 0.8110236220472441,
          "duration": 0.015737421875002156
        },
        {
          "name": "F#2",
          "midi": 42,
          "time": 91.07920500000067,
          "velocity": 0.968503937007874,
          "duration": 0.015737421875002156
        },
        {
          "name": "D2",
          "midi": 38,
          "time": 91.07920500000067,
          "velocity": 0.9763779527559056,
          "duration": 0.015737421875002156
        },
        {
          "name": "D#2",
          "midi": 39,
          "time": 91.08370140625067,
          "velocity": 1,
          "duration": 0.015737421875002156
        },
        {
          "name": "F#2",
          "midi": 42,
          "time": 91.29503250000067,
          "velocity": 0.8110236220472441,
          "duration": 0.015737421875002156
        },
        {
          "name": "F#2",
          "midi": 42,
          "time": 91.51086000000068,
          "velocity": 0.968503937007874,
          "duration": 0.015737421875002156
        },
        {
          "name": "C2",
          "midi": 36,
          "time": 91.51086000000068,
          "velocity": 0.9291338582677166,
          "duration": 0.015737421875002156
        },
        {
          "name": "F#2",
          "midi": 42,
          "time": 91.72668750000068,
          "velocity": 0.8110236220472441,
          "duration": 0.015737421875002156
        },
        {
          "name": "C2",
          "midi": 36,
          "time": 91.94251500000068,
          "velocity": 0.9291338582677166,
          "duration": 0.015737421875002156
        },
        {
          "name": "F#2",
          "midi": 42,
          "time": 91.94251500000068,
          "velocity": 0.968503937007874,
          "duration": 0.015737421875002156
        },
        {
          "name": "D2",
          "midi": 38,
          "time": 91.94251500000068,
          "velocity": 0.9763779527559056,
          "duration": 0.015737421875002156
        },
        {
          "name": "F#2",
          "midi": 42,
          "time": 92.15834250000069,
          "velocity": 0.8110236220472441,
          "duration": 0.015737421875002156
        },
        {
          "name": "F#2",
          "midi": 42,
          "time": 92.37417000000069,
          "velocity": 0.968503937007874,
          "duration": 0.015737421875002156
        },
        {
          "name": "F#2",
          "midi": 42,
          "time": 92.58999750000069,
          "velocity": 0.8110236220472441,
          "duration": 0.015737421875002156
        },
        {
          "name": "C2",
          "midi": 36,
          "time": 92.58999750000069,
          "velocity": 0.9291338582677166,
          "duration": 0.015737421875002156
        },
        {
          "name": "F#2",
          "midi": 42,
          "time": 92.8058250000007,
          "velocity": 0.968503937007874,
          "duration": 0.015737421875002156
        },
        {
          "name": "D2",
          "midi": 38,
          "time": 92.8058250000007,
          "velocity": 0.9763779527559056,
          "duration": 0.015737421875002156
        },
        {
          "name": "D#2",
          "midi": 39,
          "time": 92.8103214062507,
          "velocity": 1,
          "duration": 0.015737421875002156
        },
        {
          "name": "F#2",
          "midi": 42,
          "time": 93.0216525000007,
          "velocity": 0.8110236220472441,
          "duration": 0.015737421875002156
        },
        {
          "name": "F#2",
          "midi": 42,
          "time": 93.2374800000007,
          "velocity": 0.968503937007874,
          "duration": 0.015737421875002156
        },
        {
          "name": "C2",
          "midi": 36,
          "time": 93.2374800000007,
          "velocity": 0.9291338582677166,
          "duration": 0.015737421875002156
        },
        {
          "name": "F#2",
          "midi": 42,
          "time": 93.4533075000007,
          "velocity": 0.8110236220472441,
          "duration": 0.015737421875002156
        },
        {
          "name": "F#2",
          "midi": 42,
          "time": 93.66913500000071,
          "velocity": 0.968503937007874,
          "duration": 0.015737421875002156
        },
        {
          "name": "D2",
          "midi": 38,
          "time": 93.66913500000071,
          "velocity": 0.9763779527559056,
          "duration": 0.015737421875002156
        },
        {
          "name": "F#2",
          "midi": 42,
          "time": 93.88496250000071,
          "velocity": 0.8110236220472441,
          "duration": 0.015737421875002156
        },
        {
          "name": "F#2",
          "midi": 42,
          "time": 94.10079000000071,
          "velocity": 0.968503937007874,
          "duration": 0.015737421875002156
        },
        {
          "name": "C2",
          "midi": 36,
          "time": 94.10079000000071,
          "velocity": 0.9291338582677166,
          "duration": 0.015737421875002156
        },
        {
          "name": "F#2",
          "midi": 42,
          "time": 94.31661750000072,
          "velocity": 0.8110236220472441,
          "duration": 0.015737421875002156
        },
        {
          "name": "F#2",
          "midi": 42,
          "time": 94.53244500000072,
          "velocity": 0.968503937007874,
          "duration": 0.015737421875002156
        },
        {
          "name": "D2",
          "midi": 38,
          "time": 94.53244500000072,
          "velocity": 0.9763779527559056,
          "duration": 0.015737421875002156
        },
        {
          "name": "D#2",
          "midi": 39,
          "time": 94.53694140625072,
          "velocity": 1,
          "duration": 0.015737421875002156
        },
        {
          "name": "F#2",
          "midi": 42,
          "time": 94.74827250000072,
          "velocity": 0.8110236220472441,
          "duration": 0.015737421875002156
        },
        {
          "name": "F#2",
          "midi": 42,
          "time": 94.96410000000073,
          "velocity": 0.968503937007874,
          "duration": 0.015737421875002156
        },
        {
          "name": "C2",
          "midi": 36,
          "time": 94.96410000000073,
          "velocity": 0.9291338582677166,
          "duration": 0.015737421875002156
        },
        {
          "name": "F#2",
          "midi": 42,
          "time": 95.17992750000073,
          "velocity": 0.8110236220472441,
          "duration": 0.015737421875002156
        },
        {
          "name": "C2",
          "midi": 36,
          "time": 95.39575500000073,
          "velocity": 0.9291338582677166,
          "duration": 0.015737421875002156
        },
        {
          "name": "F#2",
          "midi": 42,
          "time": 95.39575500000073,
          "velocity": 0.968503937007874,
          "duration": 0.015737421875002156
        },
        {
          "name": "D2",
          "midi": 38,
          "time": 95.39575500000073,
          "velocity": 0.9763779527559056,
          "duration": 0.015737421875002156
        },
        {
          "name": "F#2",
          "midi": 42,
          "time": 95.61158250000074,
          "velocity": 0.8110236220472441,
          "duration": 0.015737421875002156
        },
        {
          "name": "F#2",
          "midi": 42,
          "time": 95.82741000000074,
          "velocity": 0.968503937007874,
          "duration": 0.015737421875002156
        },
        {
          "name": "F#2",
          "midi": 42,
          "time": 96.04323750000074,
          "velocity": 0.8110236220472441,
          "duration": 0.015737421875002156
        },
        {
          "name": "C2",
          "midi": 36,
          "time": 96.04323750000074,
          "velocity": 0.9291338582677166,
          "duration": 0.015737421875002156
        },
        {
          "name": "F#2",
          "midi": 42,
          "time": 96.25906500000075,
          "velocity": 0.968503937007874,
          "duration": 0.015737421875002156
        },
        {
          "name": "D2",
          "midi": 38,
          "time": 96.25906500000075,
          "velocity": 0.9763779527559056,
          "duration": 0.015737421875002156
        },
        {
          "name": "D#2",
          "midi": 39,
          "time": 96.26356140625074,
          "velocity": 1,
          "duration": 0.015737421875002156
        },
        {
          "name": "A#2",
          "midi": 46,
          "time": 96.47489250000075,
          "velocity": 0.9291338582677166,
          "duration": 0.015737421875002156
        },
        {
          "name": "C2",
          "midi": 36,
          "time": 96.47489250000075,
          "velocity": 0.9291338582677166,
          "duration": 0.015737421875002156
        },
        {
          "name": "A3",
          "midi": 57,
          "time": 96.69072000000075,
          "velocity": 0.9212598425196851,
          "duration": 0.015737421875002156
        },
        {
          "name": "C2",
          "midi": 36,
          "time": 96.69072000000075,
          "velocity": 0.9291338582677166,
          "duration": 0.015737421875002156
        },
        {
          "name": "F#2",
          "midi": 42,
          "time": 96.90654750000076,
          "velocity": 0.8110236220472441,
          "duration": 0.015737421875002156
        },
        {
          "name": "F#2",
          "midi": 42,
          "time": 97.12237500000076,
          "velocity": 0.968503937007874,
          "duration": 0.015737421875002156
        },
        {
          "name": "D2",
          "midi": 38,
          "time": 97.12237500000076,
          "velocity": 0.9763779527559056,
          "duration": 0.015737421875002156
        },
        {
          "name": "F#2",
          "midi": 42,
          "time": 97.33820250000076,
          "velocity": 0.8110236220472441,
          "duration": 0.015737421875002156
        },
        {
          "name": "F#2",
          "midi": 42,
          "time": 97.55403000000076,
          "velocity": 0.968503937007874,
          "duration": 0.015737421875002156
        },
        {
          "name": "C2",
          "midi": 36,
          "time": 97.55403000000076,
          "velocity": 0.9291338582677166,
          "duration": 0.015737421875002156
        },
        {
          "name": "F#2",
          "midi": 42,
          "time": 97.76985750000077,
          "velocity": 0.8110236220472441,
          "duration": 0.015737421875002156
        },
        {
          "name": "F#2",
          "midi": 42,
          "time": 97.98568500000077,
          "velocity": 0.968503937007874,
          "duration": 0.015737421875002156
        },
        {
          "name": "D2",
          "midi": 38,
          "time": 97.98568500000077,
          "velocity": 0.9763779527559056,
          "duration": 0.015737421875002156
        },
        {
          "name": "D#2",
          "midi": 39,
          "time": 97.99018140625077,
          "velocity": 1,
          "duration": 0.015737421875002156
        },
        {
          "name": "F#2",
          "midi": 42,
          "time": 98.20151250000077,
          "velocity": 0.8110236220472441,
          "duration": 0.015737421875002156
        },
        {
          "name": "F#2",
          "midi": 42,
          "time": 98.41734000000078,
          "velocity": 0.968503937007874,
          "duration": 0.015737421875002156
        },
        {
          "name": "C2",
          "midi": 36,
          "time": 98.41734000000078,
          "velocity": 0.9291338582677166,
          "duration": 0.015737421875002156
        },
        {
          "name": "F#2",
          "midi": 42,
          "time": 98.63316750000078,
          "velocity": 0.8110236220472441,
          "duration": 0.015737421875002156
        },
        {
          "name": "C2",
          "midi": 36,
          "time": 98.84899500000078,
          "velocity": 0.9291338582677166,
          "duration": 0.015737421875002156
        },
        {
          "name": "F#2",
          "midi": 42,
          "time": 98.84899500000078,
          "velocity": 0.968503937007874,
          "duration": 0.015737421875002156
        },
        {
          "name": "D2",
          "midi": 38,
          "time": 98.84899500000078,
          "velocity": 0.9763779527559056,
          "duration": 0.015737421875002156
        },
        {
          "name": "F#2",
          "midi": 42,
          "time": 99.06482250000079,
          "velocity": 0.8110236220472441,
          "duration": 0.015737421875002156
        },
        {
          "name": "F#2",
          "midi": 42,
          "time": 99.28065000000079,
          "velocity": 0.968503937007874,
          "duration": 0.015737421875002156
        },
        {
          "name": "F#2",
          "midi": 42,
          "time": 99.4964775000008,
          "velocity": 0.8110236220472441,
          "duration": 0.015737421875002156
        },
        {
          "name": "C2",
          "midi": 36,
          "time": 99.4964775000008,
          "velocity": 0.9291338582677166,
          "duration": 0.015737421875002156
        },
        {
          "name": "F#2",
          "midi": 42,
          "time": 99.7123050000008,
          "velocity": 0.968503937007874,
          "duration": 0.015737421875002156
        },
        {
          "name": "D2",
          "midi": 38,
          "time": 99.7123050000008,
          "velocity": 0.9763779527559056,
          "duration": 0.015737421875002156
        },
        {
          "name": "D#2",
          "midi": 39,
          "time": 99.7168014062508,
          "velocity": 1,
          "duration": 0.015737421875002156
        },
        {
          "name": "F#2",
          "midi": 42,
          "time": 99.9281325000008,
          "velocity": 0.8110236220472441,
          "duration": 0.015737421875002156
        },
        {
          "name": "F#2",
          "midi": 42,
          "time": 100.1439600000008,
          "velocity": 0.968503937007874,
          "duration": 0.015737421875002156
        },
        {
          "name": "C2",
          "midi": 36,
          "time": 100.1439600000008,
          "velocity": 0.9291338582677166,
          "duration": 0.015737421875002156
        },
        {
          "name": "F#2",
          "midi": 42,
          "time": 100.3597875000008,
          "velocity": 0.8110236220472441,
          "duration": 0.015737421875002156
        },
        {
          "name": "F#2",
          "midi": 42,
          "time": 100.57561500000081,
          "velocity": 0.968503937007874,
          "duration": 0.015737421875002156
        },
        {
          "name": "D2",
          "midi": 38,
          "time": 100.57561500000081,
          "velocity": 0.9763779527559056,
          "duration": 0.015737421875002156
        },
        {
          "name": "F#2",
          "midi": 42,
          "time": 100.79144250000081,
          "velocity": 0.8110236220472441,
          "duration": 0.015737421875002156
        },
        {
          "name": "F#2",
          "midi": 42,
          "time": 101.00727000000082,
          "velocity": 0.968503937007874,
          "duration": 0.015737421875002156
        },
        {
          "name": "C2",
          "midi": 36,
          "time": 101.00727000000082,
          "velocity": 0.9291338582677166,
          "duration": 0.015737421875002156
        },
        {
          "name": "F#2",
          "midi": 42,
          "time": 101.22309750000082,
          "velocity": 0.8110236220472441,
          "duration": 0.015737421875002156
        },
        {
          "name": "F#2",
          "midi": 42,
          "time": 101.43892500000082,
          "velocity": 0.968503937007874,
          "duration": 0.015737421875002156
        },
        {
          "name": "D2",
          "midi": 38,
          "time": 101.43892500000082,
          "velocity": 0.9763779527559056,
          "duration": 0.015737421875002156
        },
        {
          "name": "D#2",
          "midi": 39,
          "time": 101.44342140625082,
          "velocity": 1,
          "duration": 0.015737421875002156
        },
        {
          "name": "F#2",
          "midi": 42,
          "time": 101.65475250000082,
          "velocity": 0.8110236220472441,
          "duration": 0.015737421875002156
        },
        {
          "name": "F#2",
          "midi": 42,
          "time": 101.87058000000083,
          "velocity": 0.968503937007874,
          "duration": 0.015737421875002156
        },
        {
          "name": "C2",
          "midi": 36,
          "time": 101.87058000000083,
          "velocity": 0.9291338582677166,
          "duration": 0.015737421875002156
        },
        {
          "name": "F#2",
          "midi": 42,
          "time": 102.08640750000083,
          "velocity": 0.8110236220472441,
          "duration": 0.015737421875002156
        },
        {
          "name": "C2",
          "midi": 36,
          "time": 102.30223500000083,
          "velocity": 0.9291338582677166,
          "duration": 0.015737421875002156
        },
        {
          "name": "F#2",
          "midi": 42,
          "time": 102.30223500000083,
          "velocity": 0.968503937007874,
          "duration": 0.015737421875002156
        },
        {
          "name": "D2",
          "midi": 38,
          "time": 102.30223500000083,
          "velocity": 0.9763779527559056,
          "duration": 0.015737421875002156
        },
        {
          "name": "F#2",
          "midi": 42,
          "time": 102.51806250000084,
          "velocity": 0.8110236220472441,
          "duration": 0.015737421875002156
        },
        {
          "name": "F#2",
          "midi": 42,
          "time": 102.73389000000084,
          "velocity": 0.968503937007874,
          "duration": 0.015737421875002156
        },
        {
          "name": "F#2",
          "midi": 42,
          "time": 102.94971750000084,
          "velocity": 0.8110236220472441,
          "duration": 0.015737421875002156
        },
        {
          "name": "C2",
          "midi": 36,
          "time": 102.94971750000084,
          "velocity": 0.9291338582677166,
          "duration": 0.015737421875002156
        },
        {
          "name": "F#2",
          "midi": 42,
          "time": 103.16554500000085,
          "velocity": 0.968503937007874,
          "duration": 0.015737421875002156
        },
        {
          "name": "D2",
          "midi": 38,
          "time": 103.16554500000085,
          "velocity": 0.9763779527559056,
          "duration": 0.015737421875002156
        },
        {
          "name": "D#2",
          "midi": 39,
          "time": 103.17004140625085,
          "velocity": 1,
          "duration": 0.015737421875002156
        },
        {
          "name": "F#2",
          "midi": 42,
          "time": 103.38137250000085,
          "velocity": 0.8110236220472441,
          "duration": 0.015737421875002156
        },
        {
          "name": "F#2",
          "midi": 42,
          "time": 103.59720000000085,
          "velocity": 0.968503937007874,
          "duration": 0.015737421875002156
        },
        {
          "name": "C2",
          "midi": 36,
          "time": 103.59720000000085,
          "velocity": 0.9291338582677166,
          "duration": 0.015737421875002156
        },
        {
          "name": "F#2",
          "midi": 42,
          "time": 103.81302750000086,
          "velocity": 0.8110236220472441,
          "duration": 0.015737421875002156
        },
        {
          "name": "F#2",
          "midi": 42,
          "time": 104.02885500000086,
          "velocity": 0.968503937007874,
          "duration": 0.015737421875002156
        },
        {
          "name": "D2",
          "midi": 38,
          "time": 104.02885500000086,
          "velocity": 0.9763779527559056,
          "duration": 0.015737421875002156
        },
        {
          "name": "F#2",
          "midi": 42,
          "time": 104.24468250000086,
          "velocity": 0.8110236220472441,
          "duration": 0.015737421875002156
        },
        {
          "name": "F#2",
          "midi": 42,
          "time": 104.46051000000087,
          "velocity": 0.968503937007874,
          "duration": 0.015737421875002156
        },
        {
          "name": "C2",
          "midi": 36,
          "time": 104.46051000000087,
          "velocity": 0.9291338582677166,
          "duration": 0.015737421875002156
        },
        {
          "name": "F#2",
          "midi": 42,
          "time": 104.67633750000087,
          "velocity": 0.8110236220472441,
          "duration": 0.015737421875002156
        },
        {
          "name": "F#2",
          "midi": 42,
          "time": 104.89216500000087,
          "velocity": 0.968503937007874,
          "duration": 0.015737421875002156
        },
        {
          "name": "D2",
          "midi": 38,
          "time": 104.89216500000087,
          "velocity": 0.9763779527559056,
          "duration": 0.015737421875002156
        },
        {
          "name": "D#2",
          "midi": 39,
          "time": 104.89666140625087,
          "velocity": 1,
          "duration": 0.015737421875002156
        },
        {
          "name": "F#2",
          "midi": 42,
          "time": 105.10799250000088,
          "velocity": 0.8110236220472441,
          "duration": 0.015737421875002156
        },
        {
          "name": "F#2",
          "midi": 42,
          "time": 105.32382000000088,
          "velocity": 0.968503937007874,
          "duration": 0.015737421875002156
        },
        {
          "name": "C2",
          "midi": 36,
          "time": 105.32382000000088,
          "velocity": 0.9291338582677166,
          "duration": 0.015737421875002156
        },
        {
          "name": "F#2",
          "midi": 42,
          "time": 105.53964750000088,
          "velocity": 0.8110236220472441,
          "duration": 0.015737421875002156
        },
        {
          "name": "C2",
          "midi": 36,
          "time": 105.75547500000089,
          "velocity": 0.9291338582677166,
          "duration": 0.015737421875002156
        },
        {
          "name": "F#2",
          "midi": 42,
          "time": 105.75547500000089,
          "velocity": 0.968503937007874,
          "duration": 0.015737421875002156
        },
        {
          "name": "D2",
          "midi": 38,
          "time": 105.75547500000089,
          "velocity": 0.9763779527559056,
          "duration": 0.015737421875002156
        },
        {
          "name": "F#2",
          "midi": 42,
          "time": 105.97130250000089,
          "velocity": 0.8110236220472441,
          "duration": 0.015737421875002156
        },
        {
          "name": "F#2",
          "midi": 42,
          "time": 106.18713000000089,
          "velocity": 0.968503937007874,
          "duration": 0.015737421875002156
        },
        {
          "name": "F#2",
          "midi": 42,
          "time": 106.4029575000009,
          "velocity": 0.8110236220472441,
          "duration": 0.015737421875002156
        },
        {
          "name": "C2",
          "midi": 36,
          "time": 106.4029575000009,
          "velocity": 0.9291338582677166,
          "duration": 0.015737421875002156
        },
        {
          "name": "F#2",
          "midi": 42,
          "time": 106.6187850000009,
          "velocity": 0.968503937007874,
          "duration": 0.015737421875002156
        },
        {
          "name": "D2",
          "midi": 38,
          "time": 106.6187850000009,
          "velocity": 0.9763779527559056,
          "duration": 0.015737421875002156
        },
        {
          "name": "D#2",
          "midi": 39,
          "time": 106.6232814062509,
          "velocity": 1,
          "duration": 0.015737421875002156
        },
        {
          "name": "F#2",
          "midi": 42,
          "time": 106.8346125000009,
          "velocity": 0.8110236220472441,
          "duration": 0.015737421875002156
        },
        {
          "name": "F#2",
          "midi": 42,
          "time": 107.0504400000009,
          "velocity": 0.968503937007874,
          "duration": 0.015737421875002156
        },
        {
          "name": "C2",
          "midi": 36,
          "time": 107.0504400000009,
          "velocity": 0.9291338582677166,
          "duration": 0.015737421875002156
        },
        {
          "name": "F#2",
          "midi": 42,
          "time": 107.26626750000091,
          "velocity": 0.8110236220472441,
          "duration": 0.015737421875002156
        },
        {
          "name": "F#2",
          "midi": 42,
          "time": 107.48209500000091,
          "velocity": 0.968503937007874,
          "duration": 0.015737421875002156
        },
        {
          "name": "D2",
          "midi": 38,
          "time": 107.48209500000091,
          "velocity": 0.9763779527559056,
          "duration": 0.015737421875002156
        },
        {
          "name": "F#2",
          "midi": 42,
          "time": 107.69792250000091,
          "velocity": 0.8110236220472441,
          "duration": 0.015737421875002156
        },
        {
          "name": "F#2",
          "midi": 42,
          "time": 107.91375000000092,
          "velocity": 0.968503937007874,
          "duration": 0.015737421875002156
        },
        {
          "name": "C2",
          "midi": 36,
          "time": 107.91375000000092,
          "velocity": 0.9291338582677166,
          "duration": 0.015737421875002156
        },
        {
          "name": "F#2",
          "midi": 42,
          "time": 108.12957750000092,
          "velocity": 0.8110236220472441,
          "duration": 0.015737421875002156
        },
        {
          "name": "F#2",
          "midi": 42,
          "time": 108.34540500000092,
          "velocity": 0.968503937007874,
          "duration": 0.015737421875002156
        },
        {
          "name": "D2",
          "midi": 38,
          "time": 108.34540500000092,
          "velocity": 0.9763779527559056,
          "duration": 0.015737421875002156
        },
        {
          "name": "D#2",
          "midi": 39,
          "time": 108.34990140625092,
          "velocity": 1,
          "duration": 0.015737421875002156
        },
        {
          "name": "F#2",
          "midi": 42,
          "time": 108.56123250000093,
          "velocity": 0.8110236220472441,
          "duration": 0.015737421875002156
        },
        {
          "name": "F#2",
          "midi": 42,
          "time": 108.77706000000093,
          "velocity": 0.968503937007874,
          "duration": 0.015737421875002156
        },
        {
          "name": "C2",
          "midi": 36,
          "time": 108.77706000000093,
          "velocity": 0.9291338582677166,
          "duration": 0.015737421875002156
        },
        {
          "name": "F#2",
          "midi": 42,
          "time": 108.99288750000093,
          "velocity": 0.8110236220472441,
          "duration": 0.015737421875002156
        },
        {
          "name": "C2",
          "midi": 36,
          "time": 109.20871500000094,
          "velocity": 0.9291338582677166,
          "duration": 0.015737421875002156
        },
        {
          "name": "F#2",
          "midi": 42,
          "time": 109.20871500000094,
          "velocity": 0.968503937007874,
          "duration": 0.015737421875002156
        },
        {
          "name": "D2",
          "midi": 38,
          "time": 109.20871500000094,
          "velocity": 0.9763779527559056,
          "duration": 0.015737421875002156
        },
        {
          "name": "F#2",
          "midi": 42,
          "time": 109.42454250000094,
          "velocity": 0.8110236220472441,
          "duration": 0.015737421875002156
        },
        {
          "name": "F#2",
          "midi": 42,
          "time": 109.64037000000094,
          "velocity": 0.968503937007874,
          "duration": 0.015737421875002156
        },
        {
          "name": "F#2",
          "midi": 42,
          "time": 109.85619750000095,
          "velocity": 0.8110236220472441,
          "duration": 0.015737421875002156
        },
        {
          "name": "C2",
          "midi": 36,
          "time": 109.85619750000095,
          "velocity": 0.9291338582677166,
          "duration": 0.015737421875002156
        },
        {
          "name": "F#2",
          "midi": 42,
          "time": 110.07202500000095,
          "velocity": 0.968503937007874,
          "duration": 0.015737421875002156
        },
        {
          "name": "D2",
          "midi": 38,
          "time": 110.07202500000095,
          "velocity": 0.9763779527559056,
          "duration": 0.015737421875002156
        },
        {
          "name": "D#2",
          "midi": 39,
          "time": 110.07652140625095,
          "velocity": 1,
          "duration": 0.015737421875002156
        },
        {
          "name": "F#2",
          "midi": 42,
          "time": 110.28785250000095,
          "velocity": 0.8110236220472441,
          "duration": 0.015737421875002156
        },
        {
          "name": "F#2",
          "midi": 42,
          "time": 110.50368000000095,
          "velocity": 0.968503937007874,
          "duration": 0.015737421875002156
        },
        {
          "name": "C2",
          "midi": 36,
          "time": 110.50368000000095,
          "velocity": 0.9291338582677166,
          "duration": 0.015737421875002156
        },
        {
          "name": "F#2",
          "midi": 42,
          "time": 110.71950750000096,
          "velocity": 0.8110236220472441,
          "duration": 0.015737421875002156
        },
        {
          "name": "F#2",
          "midi": 42,
          "time": 110.93533500000096,
          "velocity": 0.968503937007874,
          "duration": 0.015737421875002156
        },
        {
          "name": "D2",
          "midi": 38,
          "time": 110.93533500000096,
          "velocity": 0.9763779527559056,
          "duration": 0.015737421875002156
        },
        {
          "name": "F#2",
          "midi": 42,
          "time": 111.15116250000096,
          "velocity": 0.8110236220472441,
          "duration": 0.015737421875002156
        },
        {
          "name": "F#2",
          "midi": 42,
          "time": 111.36699000000097,
          "velocity": 0.968503937007874,
          "duration": 0.015737421875002156
        },
        {
          "name": "C2",
          "midi": 36,
          "time": 111.36699000000097,
          "velocity": 0.9291338582677166,
          "duration": 0.015737421875002156
        },
        {
          "name": "F#2",
          "midi": 42,
          "time": 111.58281750000097,
          "velocity": 0.8110236220472441,
          "duration": 0.015737421875002156
        },
        {
          "name": "F#2",
          "midi": 42,
          "time": 111.79864500000097,
          "velocity": 0.968503937007874,
          "duration": 0.015737421875002156
        },
        {
          "name": "D2",
          "midi": 38,
          "time": 111.79864500000097,
          "velocity": 0.9763779527559056,
          "duration": 0.015737421875002156
        },
        {
          "name": "D#2",
          "midi": 39,
          "time": 111.80314140625097,
          "velocity": 1,
          "duration": 0.015737421875002156
        },
        {
          "name": "F#2",
          "midi": 42,
          "time": 112.01447250000098,
          "velocity": 0.8110236220472441,
          "duration": 0.015737421875002156
        },
        {
          "name": "F#2",
          "midi": 42,
          "time": 112.23030000000098,
          "velocity": 0.968503937007874,
          "duration": 0.015737421875002156
        },
        {
          "name": "C2",
          "midi": 36,
          "time": 112.23030000000098,
          "velocity": 0.9291338582677166,
          "duration": 0.015737421875002156
        },
        {
          "name": "F#2",
          "midi": 42,
          "time": 112.44612750000098,
          "velocity": 0.8110236220472441,
          "duration": 0.015737421875002156
        },
        {
          "name": "C2",
          "midi": 36,
          "time": 112.66195500000099,
          "velocity": 0.9291338582677166,
          "duration": 0.015737421875002156
        },
        {
          "name": "F#2",
          "midi": 42,
          "time": 112.66195500000099,
          "velocity": 0.968503937007874,
          "duration": 0.015737421875002156
        },
        {
          "name": "D2",
          "midi": 38,
          "time": 112.66195500000099,
          "velocity": 0.9763779527559056,
          "duration": 0.015737421875002156
        },
        {
          "name": "F#2",
          "midi": 42,
          "time": 112.87778250000099,
          "velocity": 0.8110236220472441,
          "duration": 0.015737421875002156
        },
        {
          "name": "F#2",
          "midi": 42,
          "time": 113.093610000001,
          "velocity": 0.968503937007874,
          "duration": 0.015737421875002156
        },
        {
          "name": "F#2",
          "midi": 42,
          "time": 113.309437500001,
          "velocity": 0.8110236220472441,
          "duration": 0.015737421875002156
        },
        {
          "name": "C2",
          "midi": 36,
          "time": 113.309437500001,
          "velocity": 0.9291338582677166,
          "duration": 0.015737421875002156
        },
        {
          "name": "F#2",
          "midi": 42,
          "time": 113.525265000001,
          "velocity": 0.968503937007874,
          "duration": 0.015737421875002156
        },
        {
          "name": "D2",
          "midi": 38,
          "time": 113.525265000001,
          "velocity": 0.9763779527559056,
          "duration": 0.015737421875002156
        },
        {
          "name": "D#2",
          "midi": 39,
          "time": 113.529761406251,
          "velocity": 1,
          "duration": 0.015737421875002156
        },
        {
          "name": "F#2",
          "midi": 42,
          "time": 113.741092500001,
          "velocity": 0.8110236220472441,
          "duration": 0.015737421875002156
        },
        {
          "name": "F#2",
          "midi": 42,
          "time": 113.956920000001,
          "velocity": 0.968503937007874,
          "duration": 0.015737421875002156
        },
        {
          "name": "C2",
          "midi": 36,
          "time": 113.956920000001,
          "velocity": 0.9291338582677166,
          "duration": 0.015737421875002156
        },
        {
          "name": "F#2",
          "midi": 42,
          "time": 114.17274750000101,
          "velocity": 0.8110236220472441,
          "duration": 0.015737421875002156
        },
        {
          "name": "F#2",
          "midi": 42,
          "time": 114.38857500000101,
          "velocity": 0.968503937007874,
          "duration": 0.015737421875002156
        },
        {
          "name": "D2",
          "midi": 38,
          "time": 114.38857500000101,
          "velocity": 0.9763779527559056,
          "duration": 0.015737421875002156
        },
        {
          "name": "F#2",
          "midi": 42,
          "time": 114.60440250000102,
          "velocity": 0.8110236220472441,
          "duration": 0.015737421875002156
        },
        {
          "name": "F#2",
          "midi": 42,
          "time": 114.82023000000102,
          "velocity": 0.968503937007874,
          "duration": 0.015737421875002156
        },
        {
          "name": "C2",
          "midi": 36,
          "time": 114.82023000000102,
          "velocity": 0.9291338582677166,
          "duration": 0.015737421875002156
        },
        {
          "name": "F#2",
          "midi": 42,
          "time": 115.03605750000102,
          "velocity": 0.8110236220472441,
          "duration": 0.015737421875002156
        },
        {
          "name": "F#2",
          "midi": 42,
          "time": 115.25188500000102,
          "velocity": 0.968503937007874,
          "duration": 0.015737421875002156
        },
        {
          "name": "D2",
          "midi": 38,
          "time": 115.25188500000102,
          "velocity": 0.9763779527559056,
          "duration": 0.015737421875002156
        },
        {
          "name": "D#2",
          "midi": 39,
          "time": 115.25638140625102,
          "velocity": 1,
          "duration": 0.015737421875002156
        },
        {
          "name": "F#2",
          "midi": 42,
          "time": 115.46771250000103,
          "velocity": 0.8110236220472441,
          "duration": 0.015737421875002156
        },
        {
          "name": "F#2",
          "midi": 42,
          "time": 115.68354000000103,
          "velocity": 0.968503937007874,
          "duration": 0.015737421875002156
        },
        {
          "name": "C2",
          "midi": 36,
          "time": 115.68354000000103,
          "velocity": 0.9291338582677166,
          "duration": 0.015737421875002156
        },
        {
          "name": "F#2",
          "midi": 42,
          "time": 115.89936750000103,
          "velocity": 0.8110236220472441,
          "duration": 0.015737421875002156
        },
        {
          "name": "C2",
          "midi": 36,
          "time": 116.11519500000104,
          "velocity": 0.9291338582677166,
          "duration": 0.015737421875002156
        },
        {
          "name": "F#2",
          "midi": 42,
          "time": 116.11519500000104,
          "velocity": 0.968503937007874,
          "duration": 0.015737421875002156
        },
        {
          "name": "D2",
          "midi": 38,
          "time": 116.11519500000104,
          "velocity": 0.9763779527559056,
          "duration": 0.015737421875002156
        },
        {
          "name": "F#2",
          "midi": 42,
          "time": 116.33102250000104,
          "velocity": 0.8110236220472441,
          "duration": 0.015737421875002156
        },
        {
          "name": "F#2",
          "midi": 42,
          "time": 116.54685000000104,
          "velocity": 0.968503937007874,
          "duration": 0.015737421875002156
        },
        {
          "name": "F#2",
          "midi": 42,
          "time": 116.76267750000105,
          "velocity": 0.8110236220472441,
          "duration": 0.015737421875002156
        },
        {
          "name": "C2",
          "midi": 36,
          "time": 116.76267750000105,
          "velocity": 0.9291338582677166,
          "duration": 0.015737421875002156
        },
        {
          "name": "F#2",
          "midi": 42,
          "time": 116.97850500000105,
          "velocity": 0.968503937007874,
          "duration": 0.015737421875002156
        },
        {
          "name": "D2",
          "midi": 38,
          "time": 116.97850500000105,
          "velocity": 0.9763779527559056,
          "duration": 0.015737421875002156
        },
        {
          "name": "D#2",
          "midi": 39,
          "time": 116.98300140625105,
          "velocity": 1,
          "duration": 0.015737421875002156
        },
        {
          "name": "F#2",
          "midi": 42,
          "time": 117.19433250000105,
          "velocity": 0.8110236220472441,
          "duration": 0.015737421875002156
        },
        {
          "name": "F#2",
          "midi": 42,
          "time": 117.41016000000106,
          "velocity": 0.968503937007874,
          "duration": 0.015737421875002156
        },
        {
          "name": "C2",
          "midi": 36,
          "time": 117.41016000000106,
          "velocity": 0.9291338582677166,
          "duration": 0.015737421875002156
        },
        {
          "name": "F#2",
          "midi": 42,
          "time": 117.62598750000106,
          "velocity": 0.8110236220472441,
          "duration": 0.015737421875002156
        },
        {
          "name": "F#2",
          "midi": 42,
          "time": 117.84181500000106,
          "velocity": 0.968503937007874,
          "duration": 0.015737421875002156
        },
        {
          "name": "D2",
          "midi": 38,
          "time": 117.84181500000106,
          "velocity": 0.9763779527559056,
          "duration": 0.015737421875002156
        },
        {
          "name": "F#2",
          "midi": 42,
          "time": 118.05764250000107,
          "velocity": 0.8110236220472441,
          "duration": 0.015737421875002156
        },
        {
          "name": "F#2",
          "midi": 42,
          "time": 118.27347000000107,
          "velocity": 0.968503937007874,
          "duration": 0.015737421875002156
        },
        {
          "name": "C2",
          "midi": 36,
          "time": 118.27347000000107,
          "velocity": 0.9291338582677166,
          "duration": 0.015737421875002156
        },
        {
          "name": "F#2",
          "midi": 42,
          "time": 118.48929750000107,
          "velocity": 0.8110236220472441,
          "duration": 0.015737421875002156
        },
        {
          "name": "F#2",
          "midi": 42,
          "time": 118.70512500000108,
          "velocity": 0.968503937007874,
          "duration": 0.015737421875002156
        },
        {
          "name": "D2",
          "midi": 38,
          "time": 118.70512500000108,
          "velocity": 0.9763779527559056,
          "duration": 0.015737421875002156
        },
        {
          "name": "D#2",
          "midi": 39,
          "time": 118.70962140625107,
          "velocity": 1,
          "duration": 0.015737421875002156
        },
        {
          "name": "F#2",
          "midi": 42,
          "time": 118.92095250000108,
          "velocity": 0.8110236220472441,
          "duration": 0.015737421875002156
        }
      ],
      "controlChanges": {
        "7": [
          {
            "number": 7,
            "time": 0,
            "value": 1
          },
          {
            "number": 7,
            "time": 0,
            "value": 0.9606299212598425
          }
        ],
        "10": [
          {
            "number": 10,
            "time": 0,
            "value": 0.5039370078740157
          }
        ],
        "11": [
          {
            "number": 11,
            "time": 0,
            "value": 1
          },
          {
            "number": 11,
            "time": 119.13678000000108,
            "value": 0
          }
        ],
        "32": [
          {
            "number": 32,
            "time": 0,
            "value": 0
          },
          {
            "number": 32,
            "time": 0,
            "value": 0
          }
        ],
        "91": [
          {
            "number": 91,
            "time": 0,
            "value": 0.5511811023622047
          }
        ],
        "93": [
          {
            "number": 93,
            "time": 0,
            "value": 0.15748031496062992
          }
        ]
      },
      "id": 10,
      "name": "Untitled",
      "instrumentNumber": 0,
      "instrument": "standard kit",
      "instrumentFamily": "drums",
      "channelNumber": 9,
      "isPercussion": true
    },
    {
      "startTime": 0,
      "duration": 118.74109624999983,
      "length": 119,
      "notes": [
        {
          "name": "F#2",
          "midi": 42,
          "time": 0,
          "velocity": 0.9763779527559056,
          "duration": 0.0044964062499999995
        },
        {
          "name": "C2",
          "midi": 36,
          "time": 0,
          "velocity": 0.9133858267716536,
          "duration": 0.0044964062499999995
        },
        {
          "name": "F#2",
          "midi": 42,
          "time": 0.21582749999999998,
          "velocity": 0.8661417322834646,
          "duration": 0.004496406250000001
        },
        {
          "name": "F#2",
          "midi": 42,
          "time": 0.43165499999999996,
          "velocity": 0.968503937007874,
          "duration": 0.0044964062499999735
        },
        {
          "name": "D2",
          "midi": 38,
          "time": 0.43165499999999996,
          "velocity": 0.937007874015748,
          "duration": 0.0044964062499999735
        },
        {
          "name": "F#2",
          "midi": 42,
          "time": 0.6474825,
          "velocity": 0.8346456692913385,
          "duration": 0.004496406250000029
        },
        {
          "name": "F#2",
          "midi": 42,
          "time": 0.86331,
          "velocity": 0.952755905511811,
          "duration": 0.004496406250000029
        },
        {
          "name": "C2",
          "midi": 36,
          "time": 0.86331,
          "velocity": 0.9212598425196851,
          "duration": 0.004496406250000029
        },
        {
          "name": "F#2",
          "midi": 42,
          "time": 1.0791375,
          "velocity": 0.8582677165354331,
          "duration": 0.004496406249999918
        },
        {
          "name": "F#2",
          "midi": 42,
          "time": 1.294965,
          "velocity": 0.968503937007874,
          "duration": 0.004496406249999918
        },
        {
          "name": "D2",
          "midi": 38,
          "time": 1.294965,
          "velocity": 0.9291338582677166,
          "duration": 0.004496406249999918
        },
        {
          "name": "D#2",
          "midi": 39,
          "time": 1.3264398437499998,
          "velocity": 1,
          "duration": 0.004496406249999918
        },
        {
          "name": "F#2",
          "midi": 42,
          "time": 1.5107924999999998,
          "velocity": 0.937007874015748,
          "duration": 0.004496406249999918
        },
        {
          "name": "F#2",
          "midi": 42,
          "time": 1.7266199999999996,
          "velocity": 0.968503937007874,
          "duration": 0.004496406249999918
        },
        {
          "name": "C2",
          "midi": 36,
          "time": 1.7266199999999996,
          "velocity": 0.9291338582677166,
          "duration": 0.004496406249999918
        },
        {
          "name": "F#2",
          "midi": 42,
          "time": 1.9424474999999994,
          "velocity": 0.8582677165354331,
          "duration": 0.004496406249999918
        },
        {
          "name": "D2",
          "midi": 38,
          "time": 2.1582749999999993,
          "velocity": 0.9291338582677166,
          "duration": 0.004496406249999918
        },
        {
          "name": "F#2",
          "midi": 42,
          "time": 2.1582749999999993,
          "velocity": 0.984251968503937,
          "duration": 0.004496406249999918
        },
        {
          "name": "C2",
          "midi": 36,
          "time": 2.1582749999999993,
          "velocity": 0.9291338582677166,
          "duration": 0.004496406249999918
        },
        {
          "name": "F#2",
          "midi": 42,
          "time": 2.3741024999999993,
          "velocity": 0.8818897637795275,
          "duration": 0.004496406249999918
        },
        {
          "name": "F#2",
          "midi": 42,
          "time": 2.5899299999999994,
          "velocity": 0.9606299212598425,
          "duration": 0.004496406249999918
        },
        {
          "name": "F#2",
          "midi": 42,
          "time": 2.8057574999999995,
          "velocity": 0.984251968503937,
          "duration": 0.004496406249999918
        },
        {
          "name": "C2",
          "midi": 36,
          "time": 2.8057574999999995,
          "velocity": 0.9291338582677166,
          "duration": 0.004496406249999918
        },
        {
          "name": "F#2",
          "midi": 42,
          "time": 3.0215849999999995,
          "velocity": 0.968503937007874,
          "duration": 0.004496406249999918
        },
        {
          "name": "D2",
          "midi": 38,
          "time": 3.0215849999999995,
          "velocity": 0.937007874015748,
          "duration": 0.004496406249999918
        },
        {
          "name": "D#2",
          "midi": 39,
          "time": 3.0530598437499994,
          "velocity": 1,
          "duration": 0.004496406249999918
        },
        {
          "name": "F#2",
          "midi": 42,
          "time": 3.237412499999999,
          "velocity": 0.952755905511811,
          "duration": 0.004496406249999918
        },
        {
          "name": "F#2",
          "midi": 42,
          "time": 3.453239999999999,
          "velocity": 0.9763779527559056,
          "duration": 0.004496406249999918
        },
        {
          "name": "C2",
          "midi": 36,
          "time": 3.453239999999999,
          "velocity": 0.9133858267716536,
          "duration": 0.004496406249999918
        },
        {
          "name": "F#2",
          "midi": 42,
          "time": 3.6690674999999993,
          "velocity": 0.8661417322834646,
          "duration": 0.004496406249999918
        },
        {
          "name": "F#2",
          "midi": 42,
          "time": 3.8848949999999993,
          "velocity": 0.968503937007874,
          "duration": 0.004496406249999918
        },
        {
          "name": "D2",
          "midi": 38,
          "time": 3.8848949999999993,
          "velocity": 0.937007874015748,
          "duration": 0.004496406249999918
        },
        {
          "name": "F#2",
          "midi": 42,
          "time": 4.100722499999999,
          "velocity": 0.8346456692913385,
          "duration": 0.004496406250000362
        },
        {
          "name": "F#2",
          "midi": 42,
          "time": 4.316549999999999,
          "velocity": 0.952755905511811,
          "duration": 0.004496406250000362
        },
        {
          "name": "C2",
          "midi": 36,
          "time": 4.316549999999999,
          "velocity": 0.9212598425196851,
          "duration": 0.004496406250000362
        },
        {
          "name": "F#2",
          "midi": 42,
          "time": 4.5323775,
          "velocity": 0.8582677165354331,
          "duration": 0.004496406250000362
        },
        {
          "name": "F#2",
          "midi": 42,
          "time": 4.7482050000000005,
          "velocity": 0.968503937007874,
          "duration": 0.004496406250000362
        },
        {
          "name": "D2",
          "midi": 38,
          "time": 4.7482050000000005,
          "velocity": 0.9291338582677166,
          "duration": 0.004496406250000362
        },
        {
          "name": "D#2",
          "midi": 39,
          "time": 4.779679843750001,
          "velocity": 1,
          "duration": 0.004496406250000362
        },
        {
          "name": "F#2",
          "midi": 42,
          "time": 4.964032500000002,
          "velocity": 0.937007874015748,
          "duration": 0.004496406250000362
        },
        {
          "name": "F#2",
          "midi": 42,
          "time": 5.179860000000002,
          "velocity": 0.968503937007874,
          "duration": 0.004496406250000362
        },
        {
          "name": "C2",
          "midi": 36,
          "time": 5.179860000000002,
          "velocity": 0.9291338582677166,
          "duration": 0.004496406250000362
        },
        {
          "name": "F#2",
          "midi": 42,
          "time": 5.395687500000003,
          "velocity": 0.8582677165354331,
          "duration": 0.004496406250000362
        },
        {
          "name": "D2",
          "midi": 38,
          "time": 5.611515000000003,
          "velocity": 0.9291338582677166,
          "duration": 0.004496406250000362
        },
        {
          "name": "F#2",
          "midi": 42,
          "time": 5.611515000000003,
          "velocity": 0.984251968503937,
          "duration": 0.004496406250000362
        },
        {
          "name": "C2",
          "midi": 36,
          "time": 5.611515000000003,
          "velocity": 0.9291338582677166,
          "duration": 0.004496406250000362
        },
        {
          "name": "F#2",
          "midi": 42,
          "time": 5.827342500000004,
          "velocity": 0.8818897637795275,
          "duration": 0.004496406250000362
        },
        {
          "name": "F#2",
          "midi": 42,
          "time": 6.043170000000004,
          "velocity": 0.9606299212598425,
          "duration": 0.004496406250000362
        },
        {
          "name": "F#2",
          "midi": 42,
          "time": 6.258997500000005,
          "velocity": 0.984251968503937,
          "duration": 0.004496406250000362
        },
        {
          "name": "C2",
          "midi": 36,
          "time": 6.258997500000005,
          "velocity": 0.9291338582677166,
          "duration": 0.004496406250000362
        },
        {
          "name": "F#2",
          "midi": 42,
          "time": 6.474825000000005,
          "velocity": 0.968503937007874,
          "duration": 0.004496406250000362
        },
        {
          "name": "D2",
          "midi": 38,
          "time": 6.474825000000005,
          "velocity": 0.937007874015748,
          "duration": 0.004496406250000362
        },
        {
          "name": "D#2",
          "midi": 39,
          "time": 6.506299843750006,
          "velocity": 1,
          "duration": 0.004496406250000362
        },
        {
          "name": "F#2",
          "midi": 42,
          "time": 6.690652500000007,
          "velocity": 0.952755905511811,
          "duration": 0.004496406250000362
        },
        {
          "name": "D#2",
          "midi": 39,
          "time": 8.232919843750008,
          "velocity": 1,
          "duration": 0.004496406250000362
        },
        {
          "name": "D#2",
          "midi": 39,
          "time": 9.959539843750008,
          "velocity": 1,
          "duration": 0.004496406250000362
        },
        {
          "name": "D#2",
          "midi": 39,
          "time": 11.686159843750008,
          "velocity": 1,
          "duration": 0.004496406250000362
        },
        {
          "name": "D#2",
          "midi": 39,
          "time": 13.412779843750009,
          "velocity": 1,
          "duration": 0.004496406250000362
        },
        {
          "name": "D#2",
          "midi": 39,
          "time": 15.13939984375001,
          "velocity": 1,
          "duration": 0.004496406250000362
        },
        {
          "name": "D#2",
          "midi": 39,
          "time": 16.86601984375001,
          "velocity": 1,
          "duration": 0.004496406249998586
        },
        {
          "name": "D#2",
          "midi": 39,
          "time": 18.592639843750007,
          "velocity": 1,
          "duration": 0.004496406249998586
        },
        {
          "name": "D#2",
          "midi": 39,
          "time": 20.319259843750004,
          "velocity": 1,
          "duration": 0.004496406249998586
        },
        {
          "name": "D#2",
          "midi": 39,
          "time": 22.04587984375,
          "velocity": 1,
          "duration": 0.004496406249998586
        },
        {
          "name": "D#2",
          "midi": 39,
          "time": 23.772499843749998,
          "velocity": 1,
          "duration": 0.004496406249998586
        },
        {
          "name": "D#2",
          "midi": 39,
          "time": 25.499119843749995,
          "velocity": 1,
          "duration": 0.004496406249998586
        },
        {
          "name": "D#2",
          "midi": 39,
          "time": 27.22573984374999,
          "velocity": 1,
          "duration": 0.004496406249998586
        },
        {
          "name": "D#2",
          "midi": 39,
          "time": 28.95235984374999,
          "velocity": 1,
          "duration": 0.004496406249998586
        },
        {
          "name": "D#2",
          "midi": 39,
          "time": 30.678979843749985,
          "velocity": 1,
          "duration": 0.004496406249998586
        },
        {
          "name": "D#2",
          "midi": 39,
          "time": 32.40559984374998,
          "velocity": 1,
          "duration": 0.004496406249998586
        },
        {
          "name": "D#2",
          "midi": 39,
          "time": 34.13221984374998,
          "velocity": 1,
          "duration": 0.004496406249998586
        },
        {
          "name": "D#2",
          "midi": 39,
          "time": 35.858839843749976,
          "velocity": 1,
          "duration": 0.004496406249998586
        },
        {
          "name": "D#2",
          "midi": 39,
          "time": 37.58545984374997,
          "velocity": 1,
          "duration": 0.004496406249998586
        },
        {
          "name": "D#2",
          "midi": 39,
          "time": 39.31207984374997,
          "velocity": 1,
          "duration": 0.004496406249998586
        },
        {
          "name": "D#2",
          "midi": 39,
          "time": 41.03869984374997,
          "velocity": 1,
          "duration": 0.004496406249998586
        },
        {
          "name": "D#2",
          "midi": 39,
          "time": 42.765319843749964,
          "velocity": 1,
          "duration": 0.004496406249998586
        },
        {
          "name": "D#2",
          "midi": 39,
          "time": 44.49193984374996,
          "velocity": 1,
          "duration": 0.004496406249998586
        },
        {
          "name": "D#2",
          "midi": 39,
          "time": 46.21855984374996,
          "velocity": 1,
          "duration": 0.004496406249998586
        },
        {
          "name": "D#2",
          "midi": 39,
          "time": 47.945179843749955,
          "velocity": 1,
          "duration": 0.004496406249998586
        },
        {
          "name": "D#2",
          "midi": 39,
          "time": 49.67179984374995,
          "velocity": 1,
          "duration": 0.004496406249998586
        },
        {
          "name": "D#2",
          "midi": 39,
          "time": 51.39841984374995,
          "velocity": 1,
          "duration": 0.004496406249998586
        },
        {
          "name": "D#2",
          "midi": 39,
          "time": 53.125039843749946,
          "velocity": 1,
          "duration": 0.004496406249998586
        },
        {
          "name": "D#2",
          "midi": 39,
          "time": 54.85165984374994,
          "velocity": 1,
          "duration": 0.004496406249998586
        },
        {
          "name": "D#2",
          "midi": 39,
          "time": 56.57827984374994,
          "velocity": 1,
          "duration": 0.004496406249998586
        },
        {
          "name": "D#2",
          "midi": 39,
          "time": 58.304899843749936,
          "velocity": 1,
          "duration": 0.004496406249998586
        },
        {
          "name": "D#2",
          "midi": 39,
          "time": 60.03151984374993,
          "velocity": 1,
          "duration": 0.004496406249998586
        },
        {
          "name": "D#2",
          "midi": 39,
          "time": 61.75813984374993,
          "velocity": 1,
          "duration": 0.004496406249998586
        },
        {
          "name": "D#2",
          "midi": 39,
          "time": 63.48475984374993,
          "velocity": 1,
          "duration": 0.004496406249998586
        },
        {
          "name": "D#2",
          "midi": 39,
          "time": 65.21137984374992,
          "velocity": 1,
          "duration": 0.004496406249998586
        },
        {
          "name": "D#2",
          "midi": 39,
          "time": 66.93799984374992,
          "velocity": 1,
          "duration": 0.004496406249998586
        },
        {
          "name": "D#2",
          "midi": 39,
          "time": 68.66461984374992,
          "velocity": 1,
          "duration": 0.004496406249998586
        },
        {
          "name": "D#2",
          "midi": 39,
          "time": 70.39123984374991,
          "velocity": 1,
          "duration": 0.004496406249998586
        },
        {
          "name": "D#2",
          "midi": 39,
          "time": 72.11785984374991,
          "velocity": 1,
          "duration": 0.004496406249998586
        },
        {
          "name": "D#2",
          "midi": 39,
          "time": 73.84447984374991,
          "velocity": 1,
          "duration": 0.004496406249998586
        },
        {
          "name": "D#2",
          "midi": 39,
          "time": 75.5710998437499,
          "velocity": 1,
          "duration": 0.004496406249998586
        },
        {
          "name": "D#2",
          "midi": 39,
          "time": 77.2977198437499,
          "velocity": 1,
          "duration": 0.004496406249998586
        },
        {
          "name": "D#2",
          "midi": 39,
          "time": 79.0243398437499,
          "velocity": 1,
          "duration": 0.004496406249998586
        },
        {
          "name": "D#2",
          "midi": 39,
          "time": 80.7509598437499,
          "velocity": 1,
          "duration": 0.004496406249998586
        },
        {
          "name": "D#2",
          "midi": 39,
          "time": 82.4775798437499,
          "velocity": 1,
          "duration": 0.004496406249998586
        },
        {
          "name": "D#2",
          "midi": 39,
          "time": 84.20419984374989,
          "velocity": 1,
          "duration": 0.004496406249998586
        },
        {
          "name": "D#2",
          "midi": 39,
          "time": 85.93081984374989,
          "velocity": 1,
          "duration": 0.004496406249998586
        },
        {
          "name": "D#2",
          "midi": 39,
          "time": 87.65743984374988,
          "velocity": 1,
          "duration": 0.004496406249998586
        },
        {
          "name": "D#2",
          "midi": 39,
          "time": 89.38405984374988,
          "velocity": 1,
          "duration": 0.004496406249998586
        },
        {
          "name": "D#2",
          "midi": 39,
          "time": 91.11067984374988,
          "velocity": 1,
          "duration": 0.004496406249998586
        },
        {
          "name": "D#2",
          "midi": 39,
          "time": 92.83729984374988,
          "velocity": 1,
          "duration": 0.004496406249998586
        },
        {
          "name": "D#2",
          "midi": 39,
          "time": 94.56391984374987,
          "velocity": 1,
          "duration": 0.004496406249998586
        },
        {
          "name": "D#2",
          "midi": 39,
          "time": 96.29053984374987,
          "velocity": 1,
          "duration": 0.004496406249998586
        },
        {
          "name": "D#2",
          "midi": 39,
          "time": 98.01715984374987,
          "velocity": 1,
          "duration": 0.004496406249998586
        },
        {
          "name": "D#2",
          "midi": 39,
          "time": 99.74377984374986,
          "velocity": 1,
          "duration": 0.004496406249998586
        },
        {
          "name": "D#2",
          "midi": 39,
          "time": 101.47039984374986,
          "velocity": 1,
          "duration": 0.004496406249998586
        },
        {
          "name": "D#2",
          "midi": 39,
          "time": 103.19701984374986,
          "velocity": 1,
          "duration": 0.004496406249998586
        },
        {
          "name": "D#2",
          "midi": 39,
          "time": 104.92363984374985,
          "velocity": 1,
          "duration": 0.004496406249998586
        },
        {
          "name": "D#2",
          "midi": 39,
          "time": 106.65025984374985,
          "velocity": 1,
          "duration": 0.004496406249998586
        },
        {
          "name": "D#2",
          "midi": 39,
          "time": 108.37687984374985,
          "velocity": 1,
          "duration": 0.004496406249998586
        },
        {
          "name": "D#2",
          "midi": 39,
          "time": 110.10349984374984,
          "velocity": 1,
          "duration": 0.004496406249998586
        },
        {
          "name": "D#2",
          "midi": 39,
          "time": 111.83011984374984,
          "velocity": 1,
          "duration": 0.004496406249998586
        },
        {
          "name": "D#2",
          "midi": 39,
          "time": 113.55673984374984,
          "velocity": 1,
          "duration": 0.004496406249998586
        },
        {
          "name": "D#2",
          "midi": 39,
          "time": 115.28335984374984,
          "velocity": 1,
          "duration": 0.004496406249998586
        },
        {
          "name": "D#2",
          "midi": 39,
          "time": 117.00997984374983,
          "velocity": 1,
          "duration": 0.004496406249998586
        },
        {
          "name": "D#2",
          "midi": 39,
          "time": 118.73659984374983,
          "velocity": 1,
          "duration": 0.004496406249998586
        }
      ],
      "controlChanges": {
        "7": [
          {
            "number": 7,
            "time": 0,
            "value": 1
          },
          {
            "number": 7,
            "time": 0,
            "value": 0.9763779527559056
          }
        ],
        "10": [
          {
            "number": 10,
            "time": 0,
            "value": 0.5039370078740157
          }
        ],
        "11": [
          {
            "number": 11,
            "time": 0,
            "value": 1
          },
          {
            "number": 11,
            "time": 119.13677999999983,
            "value": 0
          }
        ],
        "32": [
          {
            "number": 32,
            "time": 0,
            "value": 0
          },
          {
            "number": 32,
            "time": 0,
            "value": 0
          }
        ],
        "91": [
          {
            "number": 91,
            "time": 0,
            "value": 0.23622047244094488
          }
        ],
        "93": [
          {
            "number": 93,
            "time": 0,
            "value": 0.11811023622047244
          }
        ]
      },
      "id": 11,
      "name": "Untitled",
      "instrumentNumber": 25,
      "instrument": "tr-808 kit",
      "instrumentFamily": "drums",
      "channelNumber": 10,
      "isPercussion": true
    },
    {
      "startTime": 55.251839999999994,
      "duration": 119.11879437499982,
      "length": 54,
      "notes": [
        {
          "name": "F#5",
          "midi": 78,
          "time": 55.251839999999994,
          "velocity": 0.8582677165354331,
          "duration": 1.623202656250001
        },
        {
          "name": "A#5",
          "midi": 82,
          "time": 55.251839999999994,
          "velocity": 0.8582677165354331,
          "duration": 1.6321954687499982
        },
        {
          "name": "G#5",
          "midi": 80,
          "time": 56.969467187499994,
          "velocity": 0.8582677165354331,
          "duration": 1.6366918749999968
        },
        {
          "name": "F5",
          "midi": 77,
          "time": 56.97845999999999,
          "velocity": 0.8582677165354331,
          "duration": 1.6142098437499968
        },
        {
          "name": "A#5",
          "midi": 82,
          "time": 58.69159078124999,
          "velocity": 0.8582677165354331,
          "duration": 1.6636703125000025
        },
        {
          "name": "F#5",
          "midi": 78,
          "time": 58.69608718749999,
          "velocity": 0.8582677165354331,
          "duration": 1.645684687500001
        },
        {
          "name": "G#5",
          "midi": 80,
          "time": 60.413714375,
          "velocity": 0.8582677165354331,
          "duration": 1.6771595312499983
        },
        {
          "name": "F5",
          "midi": 77,
          "time": 60.418210781249996,
          "velocity": 0.8582677165354331,
          "duration": 1.6636703125000025
        },
        {
          "name": "F#5",
          "midi": 78,
          "time": 62.1493271875,
          "velocity": 0.8582677165354331,
          "duration": 1.704137968749997
        },
        {
          "name": "A#5",
          "midi": 82,
          "time": 62.15382359375,
          "velocity": 0.8582677165354331,
          "duration": 1.704137968749997
        },
        {
          "name": "G#5",
          "midi": 80,
          "time": 63.880443593749995,
          "velocity": 0.8582677165354331,
          "duration": 1.645684687500001
        },
        {
          "name": "F5",
          "midi": 77,
          "time": 63.88493999999999,
          "velocity": 0.8582677165354331,
          "duration": 1.645684687500001
        },
        {
          "name": "F#5",
          "midi": 78,
          "time": 65.60706359375,
          "velocity": 0.8582677165354331,
          "duration": 1.668166718750001
        },
        {
          "name": "A#5",
          "midi": 82,
          "time": 65.61156,
          "velocity": 0.8582677165354331,
          "duration": 1.6636703125000025
        },
        {
          "name": "C#4",
          "midi": 61,
          "time": 67.32469078125,
          "velocity": 0.8582677165354331,
          "duration": 1.6366918749999968
        },
        {
          "name": "C#5",
          "midi": 73,
          "time": 67.32469078125,
          "velocity": 0.8582677165354331,
          "duration": 1.6321954687499982
        },
        {
          "name": "D#4",
          "midi": 63,
          "time": 68.9928575,
          "velocity": 0.8582677165354331,
          "duration": 3.089031093749867
        },
        {
          "name": "D#5",
          "midi": 75,
          "time": 69.0018503125,
          "velocity": 0.8582677165354331,
          "duration": 3.0575562499998767
        },
        {
          "name": "A#3",
          "midi": 58,
          "time": 82.87775999999985,
          "velocity": 0.9291338582677166,
          "duration": 2.994606562499996
        },
        {
          "name": "G#3",
          "midi": 56,
          "time": 85.89484859374984,
          "velocity": 0.9291338582677166,
          "duration": 0.42266218749999496
        },
        {
          "name": "A#3",
          "midi": 58,
          "time": 86.32650359374983,
          "velocity": 0.9291338582677166,
          "duration": 2.4955054687499967
        },
        {
          "name": "A#3",
          "midi": 58,
          "time": 88.92092999999983,
          "velocity": 0.9291338582677166,
          "duration": 0.11690656250000586
        },
        {
          "name": "G#3",
          "midi": 56,
          "time": 89.06481499999984,
          "velocity": 0.9291338582677166,
          "duration": 0.11690656250000586
        },
        {
          "name": "F#3",
          "midi": 54,
          "time": 89.20869999999985,
          "velocity": 0.9291338582677166,
          "duration": 0.11690656250000586
        },
        {
          "name": "D#3",
          "midi": 51,
          "time": 89.35258499999986,
          "velocity": 0.9291338582677166,
          "duration": 2.068346875000003
        },
        {
          "name": "F3",
          "midi": 53,
          "time": 91.51085999999987,
          "velocity": 0.9291338582677166,
          "duration": 1.7176271874999998
        },
        {
          "name": "D#3",
          "midi": 51,
          "time": 93.23747999999986,
          "velocity": 0.905511811023622,
          "duration": 1.7086343750000026
        },
        {
          "name": "C#3",
          "midi": 49,
          "time": 94.95510718749986,
          "velocity": 0.905511811023622,
          "duration": 1.7176271874999998
        },
        {
          "name": "F#5",
          "midi": 78,
          "time": 96.69071999999986,
          "velocity": 0.8582677165354331,
          "duration": 1.7086343750000026
        },
        {
          "name": "A#5",
          "midi": 82,
          "time": 96.69071999999986,
          "velocity": 0.8582677165354331,
          "duration": 1.7086343750000026
        },
        {
          "name": "G#5",
          "midi": 80,
          "time": 98.41733999999985,
          "velocity": 0.8582677165354331,
          "duration": 1.7086343750000026
        },
        {
          "name": "F5",
          "midi": 77,
          "time": 98.41733999999985,
          "velocity": 0.8582677165354331,
          "duration": 1.7086343750000026
        },
        {
          "name": "A#5",
          "midi": 82,
          "time": 100.14395999999985,
          "velocity": 0.8582677165354331,
          "duration": 1.7086343750000026
        },
        {
          "name": "F#5",
          "midi": 78,
          "time": 100.14395999999985,
          "velocity": 0.8582677165354331,
          "duration": 1.7086343750000026
        },
        {
          "name": "G#5",
          "midi": 80,
          "time": 101.87057999999985,
          "velocity": 0.8582677165354331,
          "duration": 1.7086343750000026
        },
        {
          "name": "F5",
          "midi": 77,
          "time": 101.87057999999985,
          "velocity": 0.8582677165354331,
          "duration": 1.7086343750000026
        },
        {
          "name": "A#5",
          "midi": 82,
          "time": 103.59719999999984,
          "velocity": 0.8582677165354331,
          "duration": 1.7086343750000026
        },
        {
          "name": "F#5",
          "midi": 78,
          "time": 103.59719999999984,
          "velocity": 0.8582677165354331,
          "duration": 1.7086343750000026
        },
        {
          "name": "G#5",
          "midi": 80,
          "time": 105.32381999999984,
          "velocity": 0.8582677165354331,
          "duration": 1.7086343750000026
        },
        {
          "name": "F5",
          "midi": 77,
          "time": 105.32381999999984,
          "velocity": 0.8582677165354331,
          "duration": 1.7086343750000026
        },
        {
          "name": "A#5",
          "midi": 82,
          "time": 107.05043999999984,
          "velocity": 0.8582677165354331,
          "duration": 1.7086343750000026
        },
        {
          "name": "F#5",
          "midi": 78,
          "time": 107.05043999999984,
          "velocity": 0.8582677165354331,
          "duration": 1.7086343750000026
        },
        {
          "name": "G#5",
          "midi": 80,
          "time": 108.77705999999984,
          "velocity": 0.8582677165354331,
          "duration": 1.7086343750000026
        },
        {
          "name": "F5",
          "midi": 77,
          "time": 108.77705999999984,
          "velocity": 0.8582677165354331,
          "duration": 1.7086343750000026
        },
        {
          "name": "F#5",
          "midi": 78,
          "time": 110.50367999999983,
          "velocity": 0.8582677165354331,
          "duration": 1.7086343750000026
        },
        {
          "name": "A#5",
          "midi": 82,
          "time": 110.50367999999983,
          "velocity": 0.8582677165354331,
          "duration": 1.7086343750000026
        },
        {
          "name": "G#5",
          "midi": 80,
          "time": 112.23029999999983,
          "velocity": 0.8582677165354331,
          "duration": 1.7086343750000026
        },
        {
          "name": "F5",
          "midi": 77,
          "time": 112.23029999999983,
          "velocity": 0.8582677165354331,
          "duration": 1.7086343750000026
        },
        {
          "name": "A#5",
          "midi": 82,
          "time": 113.95691999999983,
          "velocity": 0.8582677165354331,
          "duration": 1.7086343750000026
        },
        {
          "name": "F#5",
          "midi": 78,
          "time": 113.95691999999983,
          "velocity": 0.8582677165354331,
          "duration": 1.7086343750000026
        },
        {
          "name": "G#5",
          "midi": 80,
          "time": 115.68353999999982,
          "velocity": 0.8582677165354331,
          "duration": 1.7086343750000026
        },
        {
          "name": "F5",
          "midi": 77,
          "time": 115.68353999999982,
          "velocity": 0.8582677165354331,
          "duration": 1.7086343750000026
        },
        {
          "name": "A#5",
          "midi": 82,
          "time": 117.41015999999982,
          "velocity": 0.8582677165354331,
          "duration": 1.7086343750000026
        },
        {
          "name": "F#5",
          "midi": 78,
          "time": 117.41015999999982,
          "velocity": 0.8582677165354331,
          "duration": 1.7086343750000026
        }
      ],
      "controlChanges": {
        "7": [
          {
            "number": 7,
            "time": 0,
            "value": 1
          },
          {
            "number": 7,
            "time": 0,
            "value": 0.905511811023622
          }
        ],
        "10": [
          {
            "number": 10,
            "time": 0,
            "value": 0.4566929133858268
          }
        ],
        "11": [
          {
            "number": 11,
            "time": 0,
            "value": 1
          },
          {
            "number": 11,
            "time": 69.89663515625,
            "value": 0.984251968503937
          },
          {
            "number": 11,
            "time": 69.96408124999999,
            "value": 0.968503937007874
          },
          {
            "number": 11,
            "time": 70.00454890625,
            "value": 0.952755905511811
          },
          {
            "number": 11,
            "time": 70.02703093749999,
            "value": 0.937007874015748
          },
          {
            "number": 11,
            "time": 70.07199499999999,
            "value": 0.9212598425196851
          },
          {
            "number": 11,
            "time": 70.11695906249999,
            "value": 0.905511811023622
          },
          {
            "number": 11,
            "time": 70.15742671874999,
            "value": 0.889763779527559
          },
          {
            "number": 11,
            "time": 70.20239078124999,
            "value": 0.8740157480314961
          },
          {
            "number": 11,
            "time": 70.24285843749999,
            "value": 0.8582677165354331
          },
          {
            "number": 11,
            "time": 70.26534046874998,
            "value": 0.84251968503937
          },
          {
            "number": 11,
            "time": 70.31030453124998,
            "value": 0.8267716535433071
          },
          {
            "number": 11,
            "time": 70.35526859374998,
            "value": 0.8031496062992126
          },
          {
            "number": 11,
            "time": 70.39573624999998,
            "value": 0.7874015748031497
          },
          {
            "number": 11,
            "time": 70.41821828124998,
            "value": 0.7716535433070866
          },
          {
            "number": 11,
            "time": 70.46318234374998,
            "value": 0.7401574803149606
          },
          {
            "number": 11,
            "time": 70.50814640624998,
            "value": 0.7244094488188977
          },
          {
            "number": 11,
            "time": 70.54861406249998,
            "value": 0.7086614173228346
          },
          {
            "number": 11,
            "time": 70.57109609374997,
            "value": 0.6929133858267716
          },
          {
            "number": 11,
            "time": 70.63854218749997,
            "value": 0.6692913385826772
          },
          {
            "number": 11,
            "time": 70.67900984374997,
            "value": 0.6535433070866141
          },
          {
            "number": 11,
            "time": 70.72397390624997,
            "value": 0.6377952755905512
          },
          {
            "number": 11,
            "time": 70.76893796874997,
            "value": 0.6220472440944882
          },
          {
            "number": 11,
            "time": 70.80490921874997,
            "value": 0.6062992125984252
          },
          {
            "number": 11,
            "time": 70.83188765624998,
            "value": 0.5905511811023622
          },
          {
            "number": 11,
            "time": 70.89933374999997,
            "value": 0.5748031496062992
          },
          {
            "number": 11,
            "time": 70.92181578124996,
            "value": 0.5590551181102362
          },
          {
            "number": 11,
            "time": 70.98476546874996,
            "value": 0.5433070866141733
          },
          {
            "number": 11,
            "time": 71.02972953124996,
            "value": 0.5275590551181102
          },
          {
            "number": 11,
            "time": 71.05221156249995,
            "value": 0.5118110236220472
          },
          {
            "number": 11,
            "time": 71.09267921874995,
            "value": 0.49606299212598426
          },
          {
            "number": 11,
            "time": 71.13764328124995,
            "value": 0.48031496062992124
          },
          {
            "number": 11,
            "time": 71.16012531249994,
            "value": 0.4645669291338583
          },
          {
            "number": 11,
            "time": 71.20508937499994,
            "value": 0.44881889763779526
          },
          {
            "number": 11,
            "time": 71.22307499999994,
            "value": 0.4330708661417323
          },
          {
            "number": 11,
            "time": 71.24555703124993,
            "value": 0.4015748031496063
          },
          {
            "number": 11,
            "time": 71.26803906249992,
            "value": 0.3858267716535433
          },
          {
            "number": 11,
            "time": 71.31300312499992,
            "value": 0.36220472440944884
          },
          {
            "number": 11,
            "time": 71.35347078124992,
            "value": 0.33858267716535434
          },
          {
            "number": 11,
            "time": 71.37595281249992,
            "value": 0.3228346456692913
          },
          {
            "number": 11,
            "time": 71.42091687499992,
            "value": 0.2992125984251969
          },
          {
            "number": 11,
            "time": 71.46588093749992,
            "value": 0.2755905511811024
          },
          {
            "number": 11,
            "time": 71.48836296874991,
            "value": 0.23622047244094488
          },
          {
            "number": 11,
            "time": 71.5063485937499,
            "value": 0.2125984251968504
          },
          {
            "number": 11,
            "time": 71.5288306249999,
            "value": 0.18110236220472442
          },
          {
            "number": 11,
            "time": 71.55131265624989,
            "value": 0.14960629921259844
          },
          {
            "number": 11,
            "time": 71.57379468749988,
            "value": 0.11023622047244094
          },
          {
            "number": 11,
            "time": 71.59627671874988,
            "value": 0
          },
          {
            "number": 11,
            "time": 74.35707015624986,
            "value": 1
          },
          {
            "number": 11,
            "time": 119.13677999999982,
            "value": 0
          }
        ],
        "32": [
          {
            "number": 32,
            "time": 0,
            "value": 0
          },
          {
            "number": 32,
            "time": 0,
            "value": 0
          }
        ],
        "91": [
          {
            "number": 91,
            "time": 0,
            "value": 0.7086614173228346
          }
        ],
        "93": [
          {
            "number": 93,
            "time": 0,
            "value": 0.2755905511811024
          }
        ]
      },
      "id": 12,
      "name": "Untitled",
      "instrumentNumber": 50,
      "instrument": "synthstrings 1",
      "instrumentFamily": "ensemble",
      "channelNumber": 11,
      "isPercussion": false
    },
    {
      "startTime": 0,
      "duration": 0,
      "length": 0,
      "notes": [],
      "controlChanges": {
        "7": [
          {
            "number": 7,
            "time": 0,
            "value": 1
          },
          {
            "number": 7,
            "time": 0,
            "value": 0.905511811023622
          }
        ],
        "10": [
          {
            "number": 10,
            "time": 0,
            "value": 0.31496062992125984
          }
        ],
        "11": [
          {
            "number": 11,
            "time": 0,
            "value": 0
          },
          {
            "number": 11,
            "time": 3.075541875,
            "value": 1
          }
        ],
        "32": [
          {
            "number": 32,
            "time": 0,
            "value": 0
          },
          {
            "number": 32,
            "time": 0,
            "value": 0
          }
        ],
        "91": [
          {
            "number": 91,
            "time": 0,
            "value": 0.5905511811023622
          }
        ],
        "93": [
          {
            "number": 93,
            "time": 0,
            "value": 0.30708661417322836
          }
        ]
      },
      "id": 13,
      "name": "Untitled",
      "instrumentNumber": 100,
      "instrument": "fx 5 (brightness)",
      "instrumentFamily": "synth effects",
      "channelNumber": 12,
      "isPercussion": false
    },
    {
      "startTime": 0,
      "duration": 0,
      "length": 0,
      "notes": [],
      "controlChanges": {
        "7": [
          {
            "number": 7,
            "time": 0,
            "value": 1
          },
          {
            "number": 7,
            "time": 0,
            "value": 0.8818897637795275
          }
        ],
        "10": [
          {
            "number": 10,
            "time": 0,
            "value": 0.6692913385826772
          }
        ],
        "11": [
          {
            "number": 11,
            "time": 0,
            "value": 0
          },
          {
            "number": 11,
            "time": 3.075541875,
            "value": 1
          }
        ],
        "32": [
          {
            "number": 32,
            "time": 0,
            "value": 0
          },
          {
            "number": 32,
            "time": 0,
            "value": 0
          }
        ],
        "91": [
          {
            "number": 91,
            "time": 0,
            "value": 0.6299212598425197
          }
        ],
        "93": [
          {
            "number": 93,
            "time": 0,
            "value": 0.23622047244094488
          }
        ]
      },
      "id": 14,
      "name": "Untitled",
      "instrumentNumber": 85,
      "instrument": "lead 6 (voice)",
      "instrumentFamily": "synth lead",
      "channelNumber": 13,
      "isPercussion": false
    },
    {
      "startTime": 30.638512187499998,
      "duration": 119.00188781249986,
      "length": 120,
      "notes": [
        {
          "name": "D#4",
          "midi": 63,
          "time": 30.638512187499998,
          "velocity": 0.968503937007874,
          "duration": 0.09892093750000086
        },
        {
          "name": "F#4",
          "midi": 66,
          "time": 31.07466359375,
          "velocity": 0.9763779527559056,
          "duration": 0.22931671874999893
        },
        {
          "name": "D#4",
          "midi": 63,
          "time": 31.29948390625,
          "velocity": 0.968503937007874,
          "duration": 0.05395687499999724
        },
        {
          "name": "D#4",
          "midi": 63,
          "time": 32.369628593749994,
          "velocity": 0.9763779527559056,
          "duration": 0.0674460937500001
        },
        {
          "name": "F4",
          "midi": 65,
          "time": 32.80128359375,
          "velocity": 0.968503937007874,
          "duration": 0.2023382812500003
        },
        {
          "name": "C#4",
          "midi": 61,
          "time": 33.02610390625,
          "velocity": 0.9763779527559056,
          "duration": 0.05395687499999724
        },
        {
          "name": "D#4",
          "midi": 63,
          "time": 44.45596859375,
          "velocity": 0.968503937007874,
          "duration": 0.08992812499999303
        },
        {
          "name": "F#4",
          "midi": 66,
          "time": 44.89211999999999,
          "velocity": 0.9763779527559056,
          "duration": 0.2023382812500003
        },
        {
          "name": "D#4",
          "midi": 63,
          "time": 45.11244390624999,
          "velocity": 0.968503937007874,
          "duration": 0.05395687499999724
        },
        {
          "name": "A#4",
          "midi": 70,
          "time": 48.340863593749994,
          "velocity": 0.968503937007874,
          "duration": 0.2023382812500003
        },
        {
          "name": "A#4",
          "midi": 70,
          "time": 48.55669109375,
          "velocity": 0.968503937007874,
          "duration": 0.5440651562499994
        },
        {
          "name": "F#4",
          "midi": 66,
          "time": 49.20417359375,
          "velocity": 0.9763779527559056,
          "duration": 0.15737421875000024
        },
        {
          "name": "F#4",
          "midi": 66,
          "time": 49.42899390625,
          "velocity": 0.968503937007874,
          "duration": 0.5080939062499965
        },
        {
          "name": "A#4",
          "midi": 70,
          "time": 50.06748359375,
          "velocity": 0.9763779527559056,
          "duration": 0.11690656249999876
        },
        {
          "name": "A#4",
          "midi": 70,
          "time": 50.283311093749994,
          "velocity": 0.968503937007874,
          "duration": 0.45413703124999927
        },
        {
          "name": "F4",
          "midi": 65,
          "time": 50.92629718749999,
          "velocity": 0.968503937007874,
          "duration": 0.13039578125000162
        },
        {
          "name": "F4",
          "midi": 65,
          "time": 51.14662109374999,
          "velocity": 0.9606299212598425,
          "duration": 0.32374124999999765
        },
        {
          "name": "F#4",
          "midi": 66,
          "time": 51.58726890624999,
          "velocity": 0.9763779527559056,
          "duration": 0.3102520312500019
        },
        {
          "name": "F#4",
          "midi": 66,
          "time": 52.01892390624999,
          "velocity": 0.9606299212598425,
          "duration": 0.06294968750000152
        },
        {
          "name": "F#4",
          "midi": 66,
          "time": 52.23025499999999,
          "velocity": 0.968503937007874,
          "duration": 0.05845328125000293
        },
        {
          "name": "F#4",
          "midi": 66,
          "time": 52.44158609375,
          "velocity": 0.968503937007874,
          "duration": 0.08543171875000155
        },
        {
          "name": "A#4",
          "midi": 70,
          "time": 52.65741359374999,
          "velocity": 0.9763779527559056,
          "duration": 0.3417268749999991
        },
        {
          "name": "F#4",
          "midi": 66,
          "time": 53.09356499999999,
          "velocity": 0.968503937007874,
          "duration": 0.08093531250000296
        },
        {
          "name": "G#4",
          "midi": 68,
          "time": 53.31388890624999,
          "velocity": 0.9763779527559056,
          "duration": 0.35521609375000196
        },
        {
          "name": "F4",
          "midi": 65,
          "time": 53.74104749999999,
          "velocity": 0.9606299212598425,
          "duration": 0.05395687499999724
        },
        {
          "name": "F4",
          "midi": 65,
          "time": 55.04050890624999,
          "velocity": 0.9606299212598425,
          "duration": 0.17985625000000027
        },
        {
          "name": "D#4",
          "midi": 63,
          "time": 55.47216390624999,
          "velocity": 0.968503937007874,
          "duration": 0.08992812500000014
        },
        {
          "name": "F4",
          "midi": 65,
          "time": 55.67899859374999,
          "velocity": 0.9606299212598425,
          "duration": 0.08093531250000296
        },
        {
          "name": "D#4",
          "midi": 63,
          "time": 56.11065359374999,
          "velocity": 0.968503937007874,
          "duration": 0.2023382812500003
        },
        {
          "name": "F4",
          "midi": 65,
          "time": 56.339970312499986,
          "velocity": 0.9448818897637795,
          "duration": 0.05395687499999724
        },
        {
          "name": "F4",
          "midi": 65,
          "time": 56.76712890624998,
          "velocity": 0.952755905511811,
          "duration": 0.08992812500000014
        },
        {
          "name": "D#4",
          "midi": 63,
          "time": 57.19878390624998,
          "velocity": 0.968503937007874,
          "duration": 0.05395687499999724
        },
        {
          "name": "F4",
          "midi": 65,
          "time": 57.410114999999976,
          "velocity": 0.952755905511811,
          "duration": 0.07194249999999869
        },
        {
          "name": "D#4",
          "midi": 63,
          "time": 57.83277718749998,
          "velocity": 0.968503937007874,
          "duration": 0.15737421875000024
        },
        {
          "name": "C#4",
          "midi": 61,
          "time": 58.06209390624998,
          "velocity": 0.9606299212598425,
          "duration": 0.0359712500000029
        },
        {
          "name": "F4",
          "midi": 65,
          "time": 58.49374890624998,
          "velocity": 0.968503937007874,
          "duration": 0.09892093749999731
        },
        {
          "name": "D#4",
          "midi": 63,
          "time": 58.925403906249976,
          "velocity": 0.968503937007874,
          "duration": 0.049460468749998654
        },
        {
          "name": "F4",
          "midi": 65,
          "time": 59.14123140624997,
          "velocity": 0.9606299212598425,
          "duration": 0.07194249999999869
        },
        {
          "name": "D#4",
          "midi": 63,
          "time": 59.563893593749974,
          "velocity": 0.968503937007874,
          "duration": 0.1348921875000002
        },
        {
          "name": "F4",
          "midi": 65,
          "time": 59.788713906249974,
          "velocity": 0.952755905511811,
          "duration": 0.049460468749998654
        },
        {
          "name": "F4",
          "midi": 65,
          "time": 60.215872499999975,
          "velocity": 0.9606299212598425,
          "duration": 0.07643890625000438
        },
        {
          "name": "D#4",
          "midi": 63,
          "time": 60.64303109374998,
          "velocity": 0.9606299212598425,
          "duration": 0.07194249999999869
        },
        {
          "name": "F4",
          "midi": 65,
          "time": 60.85885859374998,
          "velocity": 0.952755905511811,
          "duration": 0.07643890624999727
        },
        {
          "name": "D#4",
          "midi": 63,
          "time": 61.28601718749998,
          "velocity": 0.968503937007874,
          "duration": 0.0674460937500001
        },
        {
          "name": "F4",
          "midi": 65,
          "time": 61.72216859374998,
          "velocity": 0.968503937007874,
          "duration": 0.1348921875000002
        },
        {
          "name": "F#4",
          "midi": 66,
          "time": 63.017133593749975,
          "velocity": 0.9763779527559056,
          "duration": 0.2068346874999989
        },
        {
          "name": "D#4",
          "midi": 63,
          "time": 63.241953906249975,
          "velocity": 0.968503937007874,
          "duration": 0.05845328125000293
        },
        {
          "name": "G#4",
          "midi": 68,
          "time": 64.31659499999998,
          "velocity": 0.9763779527559056,
          "duration": 0.22032390625000176
        },
        {
          "name": "F4",
          "midi": 65,
          "time": 64.53242249999998,
          "velocity": 0.9606299212598425,
          "duration": 0.07643890625000438
        },
        {
          "name": "F#4",
          "midi": 66,
          "time": 66.46587718749998,
          "velocity": 0.9763779527559056,
          "duration": 0.206834687500006
        },
        {
          "name": "D#4",
          "midi": 63,
          "time": 66.68620109374999,
          "velocity": 0.9763779527559056,
          "duration": 0.0719425000000058
        },
        {
          "name": "G#4",
          "midi": 68,
          "time": 67.76533859374999,
          "velocity": 0.9763779527559056,
          "duration": 0.2068346874999918
        },
        {
          "name": "F4",
          "midi": 65,
          "time": 67.97666968749998,
          "velocity": 0.9606299212598425,
          "duration": 0.09442453124999872
        },
        {
          "name": "D#4",
          "midi": 63,
          "time": 78.97487937499997,
          "velocity": 0.968503937007874,
          "duration": 0.16187062499999172
        },
        {
          "name": "F#4",
          "midi": 66,
          "time": 79.42002359374996,
          "velocity": 0.9763779527559056,
          "duration": 0.19784187499999462
        },
        {
          "name": "D#4",
          "midi": 63,
          "time": 79.64034749999995,
          "velocity": 0.9763779527559056,
          "duration": 0.07643890625000438
        },
        {
          "name": "D#4",
          "midi": 63,
          "time": 80.71498859374995,
          "velocity": 0.9763779527559056,
          "duration": 0.09892093749999731
        },
        {
          "name": "F4",
          "midi": 65,
          "time": 81.14214718749994,
          "velocity": 0.968503937007874,
          "duration": 0.18884906249999744
        },
        {
          "name": "C#4",
          "midi": 61,
          "time": 81.37146390624994,
          "velocity": 0.968503937007874,
          "duration": 0.08093531250000296
        },
        {
          "name": "D#4",
          "midi": 63,
          "time": 92.80582499999994,
          "velocity": 0.9763779527559056,
          "duration": 0.1034173437499959
        },
        {
          "name": "F#4",
          "midi": 66,
          "time": 93.23298359374992,
          "velocity": 0.9763779527559056,
          "duration": 0.2023382812499932
        },
        {
          "name": "D#4",
          "midi": 63,
          "time": 93.45780390624991,
          "velocity": 0.9763779527559056,
          "duration": 0.08543171875000155
        },
        {
          "name": "A#4",
          "midi": 70,
          "time": 96.68622359374989,
          "velocity": 0.9763779527559056,
          "duration": 0.15287781249999455
        },
        {
          "name": "A#4",
          "midi": 70,
          "time": 96.91104390624989,
          "velocity": 0.968503937007874,
          "duration": 0.5575543749999952
        },
        {
          "name": "F#4",
          "midi": 66,
          "time": 97.55852640624988,
          "velocity": 0.9763779527559056,
          "duration": 0.15287781250000876
        },
        {
          "name": "F#4",
          "midi": 66,
          "time": 97.77435390624989,
          "velocity": 0.9763779527559056,
          "duration": 0.45863343749999785
        },
        {
          "name": "A#4",
          "midi": 70,
          "time": 98.40834718749988,
          "velocity": 0.9763779527559056,
          "duration": 0.16636703125000452
        },
        {
          "name": "A#4",
          "midi": 70,
          "time": 98.62867109374989,
          "velocity": 0.968503937007874,
          "duration": 0.467626249999995
        },
        {
          "name": "F4",
          "midi": 65,
          "time": 99.27615359374988,
          "velocity": 0.968503937007874,
          "duration": 0.17985625000000027
        },
        {
          "name": "F4",
          "midi": 65,
          "time": 99.49647749999988,
          "velocity": 0.952755905511811,
          "duration": 0.35971250000000055
        },
        {
          "name": "F#4",
          "midi": 66,
          "time": 99.93262890624989,
          "velocity": 0.9763779527559056,
          "duration": 0.3057556250000033
        },
        {
          "name": "F#4",
          "midi": 66,
          "time": 100.3642839062499,
          "velocity": 0.968503937007874,
          "duration": 0.058453281249995825
        },
        {
          "name": "F#4",
          "midi": 66,
          "time": 100.57111859374989,
          "velocity": 0.968503937007874,
          "duration": 0.05395687499999724
        },
        {
          "name": "F#4",
          "midi": 66,
          "time": 100.79144249999989,
          "velocity": 0.9606299212598425,
          "duration": 0.04496406250000007
        },
        {
          "name": "A#4",
          "midi": 70,
          "time": 101.00726999999989,
          "velocity": 0.9763779527559056,
          "duration": 0.3012592187500047
        },
        {
          "name": "F#4",
          "midi": 66,
          "time": 101.4389249999999,
          "velocity": 0.968503937007874,
          "duration": 0.08992812500000014
        },
        {
          "name": "G#4",
          "midi": 68,
          "time": 101.6547524999999,
          "velocity": 0.9763779527559056,
          "duration": 0.3372304687500076
        },
        {
          "name": "F4",
          "midi": 65,
          "time": 102.07741468749991,
          "velocity": 0.968503937007874,
          "duration": 0.058453281249995825
        },
        {
          "name": "F#4",
          "midi": 66,
          "time": 103.3903653124999,
          "velocity": 0.9763779527559056,
          "duration": 0.0719425000000058
        },
        {
          "name": "D#4",
          "midi": 63,
          "time": 103.8175239062499,
          "velocity": 0.968503937007874,
          "duration": 0.05395687499999724
        },
        {
          "name": "F4",
          "midi": 65,
          "time": 104.0243585937499,
          "velocity": 0.9606299212598425,
          "duration": 0.08992812500000014
        },
        {
          "name": "D#4",
          "midi": 63,
          "time": 104.4560135937499,
          "velocity": 0.9763779527559056,
          "duration": 0.2023382812499932
        },
        {
          "name": "F4",
          "midi": 65,
          "time": 104.68083390624989,
          "velocity": 0.952755905511811,
          "duration": 0.05395687499999724
        },
        {
          "name": "F4",
          "midi": 65,
          "time": 105.1124889062499,
          "velocity": 0.9606299212598425,
          "duration": 0.08992812500000014
        },
        {
          "name": "D#4",
          "midi": 63,
          "time": 105.5441439062499,
          "velocity": 0.968503937007874,
          "duration": 0.08992812500000014
        },
        {
          "name": "F4",
          "midi": 65,
          "time": 105.7599714062499,
          "velocity": 0.9606299212598425,
          "duration": 0.08543171875000155
        },
        {
          "name": "D#4",
          "midi": 63,
          "time": 106.1826335937499,
          "velocity": 0.9763779527559056,
          "duration": 0.2023382812499932
        },
        {
          "name": "C#4",
          "midi": 61,
          "time": 106.4119503124999,
          "velocity": 0.968503937007874,
          "duration": 0.04496406250000007
        },
        {
          "name": "F4",
          "midi": 65,
          "time": 106.83461249999989,
          "velocity": 0.968503937007874,
          "duration": 0.11690656249999165
        },
        {
          "name": "D#4",
          "midi": 63,
          "time": 107.27076390624988,
          "velocity": 0.968503937007874,
          "duration": 0.067446093749993
        },
        {
          "name": "F4",
          "midi": 65,
          "time": 107.48659140624987,
          "velocity": 0.952755905511811,
          "duration": 0.08992812500000014
        },
        {
          "name": "D#4",
          "midi": 63,
          "time": 107.91824640624988,
          "velocity": 0.9763779527559056,
          "duration": 0.16187062500000593
        },
        {
          "name": "F4",
          "midi": 65,
          "time": 108.13407390624988,
          "velocity": 0.9606299212598425,
          "duration": 0.06294968749999441
        },
        {
          "name": "F4",
          "midi": 65,
          "time": 108.56123249999987,
          "velocity": 0.968503937007874,
          "duration": 0.11690656250000586
        },
        {
          "name": "D#4",
          "midi": 63,
          "time": 108.99738390624988,
          "velocity": 0.968503937007874,
          "duration": 0.07643890625000438
        },
        {
          "name": "F4",
          "midi": 65,
          "time": 109.21321140624988,
          "velocity": 0.9606299212598425,
          "duration": 0.08543171875000155
        },
        {
          "name": "D#4",
          "midi": 63,
          "time": 109.64036999999989,
          "velocity": 0.968503937007874,
          "duration": 0.09442453124999872
        },
        {
          "name": "F4",
          "midi": 65,
          "time": 110.07202499999988,
          "velocity": 0.968503937007874,
          "duration": 0.09892093749999731
        },
        {
          "name": "A#4",
          "midi": 70,
          "time": 110.49918359374989,
          "velocity": 0.9763779527559056,
          "duration": 0.1348921875000002
        },
        {
          "name": "A#4",
          "midi": 70,
          "time": 110.7150110937499,
          "velocity": 0.968503937007874,
          "duration": 0.5845328125000009
        },
        {
          "name": "F#4",
          "midi": 66,
          "time": 111.3714864062499,
          "velocity": 0.9763779527559056,
          "duration": 0.11690656250000586
        },
        {
          "name": "F#4",
          "midi": 66,
          "time": 111.5828174999999,
          "velocity": 0.9763779527559056,
          "duration": 0.4721226562499936
        },
        {
          "name": "A#4",
          "midi": 70,
          "time": 112.22130718749989,
          "velocity": 0.9763779527559056,
          "duration": 0.15287781249999455
        },
        {
          "name": "A#4",
          "midi": 70,
          "time": 112.44163109374988,
          "velocity": 0.968503937007874,
          "duration": 0.49010828125000216
        },
        {
          "name": "F4",
          "midi": 65,
          "time": 113.08461718749989,
          "velocity": 0.968503937007874,
          "duration": 0.14388499999999738
        },
        {
          "name": "F4",
          "midi": 65,
          "time": 113.30044468749989,
          "velocity": 0.952755905511811,
          "duration": 0.29676281250000613
        },
        {
          "name": "F#4",
          "midi": 66,
          "time": 113.7455889062499,
          "velocity": 0.9763779527559056,
          "duration": 0.3012592187500047
        },
        {
          "name": "F#4",
          "midi": 66,
          "time": 114.17724390624991,
          "velocity": 0.9606299212598425,
          "duration": 0.04496406250000007
        },
        {
          "name": "F#4",
          "midi": 66,
          "time": 114.38857499999992,
          "velocity": 0.9606299212598425,
          "duration": 0.058453281249995825
        },
        {
          "name": "F#4",
          "midi": 66,
          "time": 114.6044024999999,
          "velocity": 0.968503937007874,
          "duration": 0.06294968749999441
        },
        {
          "name": "A#4",
          "midi": 70,
          "time": 114.8202299999999,
          "velocity": 0.9763779527559056,
          "duration": 0.32823765624999623
        },
        {
          "name": "F#4",
          "midi": 66,
          "time": 115.24738859374989,
          "velocity": 0.968503937007874,
          "duration": 0.1034173437499959
        },
        {
          "name": "G#4",
          "midi": 68,
          "time": 115.46771249999988,
          "velocity": 0.9763779527559056,
          "duration": 0.35521609375000196
        },
        {
          "name": "F4",
          "midi": 65,
          "time": 115.89487109374988,
          "velocity": 0.968503937007874,
          "duration": 0.08992812500000014
        },
        {
          "name": "F4",
          "midi": 65,
          "time": 117.18983609374989,
          "velocity": 0.968503937007874,
          "duration": 0.1034173437499959
        },
        {
          "name": "D#4",
          "midi": 63,
          "time": 117.63048390624988,
          "velocity": 0.968503937007874,
          "duration": 0.058453281249995825
        },
        {
          "name": "F4",
          "midi": 65,
          "time": 117.84631140624987,
          "velocity": 0.9606299212598425,
          "duration": 0.08543171875000155
        },
        {
          "name": "D#4",
          "midi": 63,
          "time": 118.26447718749986,
          "velocity": 0.9763779527559056,
          "duration": 0.18435265624999886
        },
        {
          "name": "F4",
          "midi": 65,
          "time": 118.49379390624986,
          "velocity": 0.952755905511811,
          "duration": 0.058453281249995825
        },
        {
          "name": "F4",
          "midi": 65,
          "time": 118.92095249999986,
          "velocity": 0.968503937007874,
          "duration": 0.08093531250000296
        }
      ],
      "controlChanges": {
        "7": [
          {
            "number": 7,
            "time": 0,
            "value": 1
          },
          {
            "number": 7,
            "time": 0,
            "value": 0.9606299212598425
          }
        ],
        "10": [
          {
            "number": 10,
            "time": 0,
            "value": 0.3779527559055118
          }
        ],
        "11": [
          {
            "number": 11,
            "time": 0,
            "value": 1
          },
          {
            "number": 11,
            "time": 119.13677999999986,
            "value": 0
          }
        ],
        "32": [
          {
            "number": 32,
            "time": 0,
            "value": 0
          },
          {
            "number": 32,
            "time": 0,
            "value": 0
          }
        ],
        "91": [
          {
            "number": 91,
            "time": 0,
            "value": 0.5118110236220472
          }
        ],
        "93": [
          {
            "number": 93,
            "time": 0,
            "value": 0.15748031496062992
          }
        ]
      },
      "id": 15,
      "name": "Untitled",
      "instrumentNumber": 65,
      "instrument": "alto sax",
      "instrumentFamily": "reed",
      "channelNumber": 14,
      "isPercussion": false
    },
    {
      "startTime": 30.652001406249997,
      "duration": 118.99739140624972,
      "length": 120,
      "notes": [
        {
          "name": "D#4",
          "midi": 63,
          "time": 30.652001406249997,
          "velocity": 0.9448818897637795,
          "duration": 0.09892093750000086
        },
        {
          "name": "F#4",
          "midi": 66,
          "time": 31.083656406249997,
          "velocity": 0.952755905511811,
          "duration": 0.2023382812500003
        },
        {
          "name": "D#4",
          "midi": 63,
          "time": 31.3039803125,
          "velocity": 0.9448818897637795,
          "duration": 0.05395687500000079
        },
        {
          "name": "D#4",
          "midi": 63,
          "time": 32.37862140625,
          "velocity": 0.952755905511811,
          "duration": 0.0674460937500001
        },
        {
          "name": "F4",
          "midi": 65,
          "time": 32.80578,
          "velocity": 0.952755905511811,
          "duration": 0.2023382812499932
        },
        {
          "name": "C#4",
          "midi": 61,
          "time": 33.03060031249999,
          "velocity": 0.952755905511811,
          "duration": 0.05395687499999724
        },
        {
          "name": "D#4",
          "midi": 63,
          "time": 44.464961406249984,
          "velocity": 0.9448818897637795,
          "duration": 0.08992812500000014
        },
        {
          "name": "F#4",
          "midi": 66,
          "time": 44.90111281249998,
          "velocity": 0.952755905511811,
          "duration": 0.2023382812500003
        },
        {
          "name": "D#4",
          "midi": 63,
          "time": 45.116940312499985,
          "velocity": 0.9448818897637795,
          "duration": 0.05395687499999724
        },
        {
          "name": "A#4",
          "midi": 70,
          "time": 48.349856406249984,
          "velocity": 0.952755905511811,
          "duration": 0.2023382812500003
        },
        {
          "name": "A#4",
          "midi": 70,
          "time": 48.570180312499986,
          "velocity": 0.952755905511811,
          "duration": 0.526079531249998
        },
        {
          "name": "D#4",
          "midi": 63,
          "time": 49.21316640624998,
          "velocity": 0.952755905511811,
          "duration": 0.1393885937500059
        },
        {
          "name": "D#4",
          "midi": 63,
          "time": 49.42449749999999,
          "velocity": 0.9448818897637795,
          "duration": 0.5665471874999994
        },
        {
          "name": "A#4",
          "midi": 70,
          "time": 50.07197999999998,
          "velocity": 0.952755905511811,
          "duration": 0.1753598437500017
        },
        {
          "name": "A#4",
          "midi": 70,
          "time": 50.29680031249998,
          "velocity": 0.952755905511811,
          "duration": 0.4856118749999965
        },
        {
          "name": "C#4",
          "midi": 61,
          "time": 50.93528999999998,
          "velocity": 0.952755905511811,
          "duration": 0.15287781250000165
        },
        {
          "name": "C#4",
          "midi": 61,
          "time": 51.151117499999984,
          "velocity": 0.9448818897637795,
          "duration": 0.38669093749999917
        },
        {
          "name": "D#4",
          "midi": 63,
          "time": 51.596261718749986,
          "velocity": 0.952755905511811,
          "duration": 0.28327359374999617
        },
        {
          "name": "D#4",
          "midi": 63,
          "time": 52.02342031249998,
          "velocity": 0.952755905511811,
          "duration": 0.05845328125000293
        },
        {
          "name": "D#4",
          "midi": 63,
          "time": 52.234751406249984,
          "velocity": 0.952755905511811,
          "duration": 0.06294968750000152
        },
        {
          "name": "D#4",
          "midi": 63,
          "time": 52.45057890624999,
          "velocity": 0.952755905511811,
          "duration": 0.07643890624999727
        },
        {
          "name": "F#4",
          "midi": 66,
          "time": 52.66640640624998,
          "velocity": 0.952755905511811,
          "duration": 0.3417268749999991
        },
        {
          "name": "D#4",
          "midi": 63,
          "time": 53.093564999999984,
          "velocity": 0.952755905511811,
          "duration": 0.08992812500000014
        },
        {
          "name": "F4",
          "midi": 65,
          "time": 53.30939249999999,
          "velocity": 0.952755905511811,
          "duration": 0.3821945312499935
        },
        {
          "name": "C#4",
          "midi": 61,
          "time": 53.74104749999998,
          "velocity": 0.952755905511811,
          "duration": 0.05395687499999724
        },
        {
          "name": "D#4",
          "midi": 63,
          "time": 55.040508906249975,
          "velocity": 0.952755905511811,
          "duration": 0.17985625000000027
        },
        {
          "name": "C#4",
          "midi": 61,
          "time": 55.472163906249975,
          "velocity": 0.952755905511811,
          "duration": 0.08992812500000014
        },
        {
          "name": "D#4",
          "midi": 63,
          "time": 55.68799140624998,
          "velocity": 0.952755905511811,
          "duration": 0.08093531250000296
        },
        {
          "name": "C#4",
          "midi": 61,
          "time": 56.119646406249984,
          "velocity": 0.952755905511811,
          "duration": 0.2023382812500003
        },
        {
          "name": "D#4",
          "midi": 63,
          "time": 56.339970312499986,
          "velocity": 0.952755905511811,
          "duration": 0.05395687499999724
        },
        {
          "name": "D#4",
          "midi": 63,
          "time": 56.76712890624998,
          "velocity": 0.952755905511811,
          "duration": 0.08992812500000014
        },
        {
          "name": "C#4",
          "midi": 61,
          "time": 57.19878390624998,
          "velocity": 0.952755905511811,
          "duration": 0.05395687499999724
        },
        {
          "name": "D#4",
          "midi": 63,
          "time": 57.410114999999976,
          "velocity": 0.952755905511811,
          "duration": 0.07194249999999869
        },
        {
          "name": "C#4",
          "midi": 61,
          "time": 57.83727359374998,
          "velocity": 0.952755905511811,
          "duration": 0.18884906249999744
        },
        {
          "name": "A#3",
          "midi": 58,
          "time": 58.06209390624998,
          "velocity": 0.9448818897637795,
          "duration": 0.022482031250000034
        },
        {
          "name": "D#4",
          "midi": 63,
          "time": 58.498245312499975,
          "velocity": 0.952755905511811,
          "duration": 0.05845328125000293
        },
        {
          "name": "C#4",
          "midi": 61,
          "time": 58.925403906249976,
          "velocity": 0.952755905511811,
          "duration": 0.05395687499999724
        },
        {
          "name": "D#4",
          "midi": 63,
          "time": 59.14123140624997,
          "velocity": 0.952755905511811,
          "duration": 0.05395687499999724
        },
        {
          "name": "C#4",
          "midi": 61,
          "time": 59.57288640624997,
          "velocity": 0.952755905511811,
          "duration": 0.1753598437500017
        },
        {
          "name": "D#4",
          "midi": 63,
          "time": 59.788713906249974,
          "velocity": 0.952755905511811,
          "duration": 0.04496406250000007
        },
        {
          "name": "D#4",
          "midi": 63,
          "time": 60.22036890624997,
          "velocity": 0.952755905511811,
          "duration": 0.049460468749998654
        },
        {
          "name": "C#4",
          "midi": 61,
          "time": 60.647527499999974,
          "velocity": 0.9448818897637795,
          "duration": 0.04496406250000007
        },
        {
          "name": "D#4",
          "midi": 63,
          "time": 60.86335499999998,
          "velocity": 0.952755905511811,
          "duration": 0.05395687499999724
        },
        {
          "name": "C#4",
          "midi": 61,
          "time": 61.29051359374998,
          "velocity": 0.952755905511811,
          "duration": 0.06294968750000152
        },
        {
          "name": "D#4",
          "midi": 63,
          "time": 61.72666499999998,
          "velocity": 0.952755905511811,
          "duration": 0.04496406250000007
        },
        {
          "name": "F#4",
          "midi": 66,
          "time": 63.02162999999998,
          "velocity": 0.952755905511811,
          "duration": 0.22931671874999893
        },
        {
          "name": "D#4",
          "midi": 63,
          "time": 63.24195390624998,
          "velocity": 0.952755905511811,
          "duration": 0.049460468749998654
        },
        {
          "name": "G#4",
          "midi": 68,
          "time": 64.31209859375,
          "velocity": 0.952755905511811,
          "duration": 0.21582750000000317
        },
        {
          "name": "F4",
          "midi": 65,
          "time": 64.53691890625,
          "velocity": 0.9448818897637795,
          "duration": 0.0719425000000058
        },
        {
          "name": "F#4",
          "midi": 66,
          "time": 66.47486999999998,
          "velocity": 0.952755905511811,
          "duration": 0.22931671874998472
        },
        {
          "name": "D#4",
          "midi": 63,
          "time": 66.69519390624997,
          "velocity": 0.952755905511811,
          "duration": 0.067446093749993
        },
        {
          "name": "G#4",
          "midi": 68,
          "time": 67.76983499999994,
          "velocity": 0.952755905511811,
          "duration": 0.21133109374999037
        },
        {
          "name": "F4",
          "midi": 65,
          "time": 67.99015890624993,
          "velocity": 0.9448818897637795,
          "duration": 0.067446093749993
        },
        {
          "name": "D#4",
          "midi": 63,
          "time": 78.99286499999992,
          "velocity": 0.952755905511811,
          "duration": 0.1708634374999889
        },
        {
          "name": "F#4",
          "midi": 66,
          "time": 79.42901640624991,
          "velocity": 0.952755905511811,
          "duration": 0.206834687500006
        },
        {
          "name": "D#4",
          "midi": 63,
          "time": 79.64934031249992,
          "velocity": 0.952755905511811,
          "duration": 0.06294968749999441
        },
        {
          "name": "D#4",
          "midi": 63,
          "time": 80.7239814062499,
          "velocity": 0.952755905511811,
          "duration": 0.06294968749999441
        },
        {
          "name": "F4",
          "midi": 65,
          "time": 81.15563640624988,
          "velocity": 0.952755905511811,
          "duration": 0.2068346874999918
        },
        {
          "name": "C#4",
          "midi": 61,
          "time": 81.38045671874987,
          "velocity": 0.952755905511811,
          "duration": 0.0719425000000058
        },
        {
          "name": "D#4",
          "midi": 63,
          "time": 92.80582499999987,
          "velocity": 0.952755905511811,
          "duration": 0.1348921875000002
        },
        {
          "name": "F#4",
          "midi": 66,
          "time": 93.24197640624988,
          "velocity": 0.952755905511811,
          "duration": 0.2068346874999918
        },
        {
          "name": "D#4",
          "midi": 63,
          "time": 93.46230031249986,
          "velocity": 0.952755905511811,
          "duration": 0.0719425000000058
        },
        {
          "name": "A#4",
          "midi": 70,
          "time": 96.69521640624987,
          "velocity": 0.952755905511811,
          "duration": 0.1708634374999889
        },
        {
          "name": "A#4",
          "midi": 70,
          "time": 96.91554031249986,
          "velocity": 0.952755905511811,
          "duration": 0.5080939062499965
        },
        {
          "name": "D#4",
          "midi": 63,
          "time": 97.55402999999986,
          "velocity": 0.952755905511811,
          "duration": 0.16636703125000452
        },
        {
          "name": "D#4",
          "midi": 63,
          "time": 97.77435390624986,
          "velocity": 0.952755905511811,
          "duration": 0.5350723437500022
        },
        {
          "name": "A#4",
          "midi": 70,
          "time": 98.41733999999984,
          "velocity": 0.952755905511811,
          "duration": 0.14838140624999596
        },
        {
          "name": "A#4",
          "midi": 70,
          "time": 98.63766390624984,
          "velocity": 0.952755905511811,
          "duration": 0.49010828125000216
        },
        {
          "name": "C#4",
          "midi": 61,
          "time": 99.27615359374984,
          "velocity": 0.952755905511811,
          "duration": 0.17985625000000027
        },
        {
          "name": "C#4",
          "midi": 61,
          "time": 99.50097390624984,
          "velocity": 0.952755905511811,
          "duration": 0.3732017187499963
        },
        {
          "name": "D#4",
          "midi": 63,
          "time": 99.94162171874983,
          "velocity": 0.952755905511811,
          "duration": 0.2787771874999976
        },
        {
          "name": "D#4",
          "midi": 63,
          "time": 100.36428390624982,
          "velocity": 0.952755905511811,
          "duration": 0.067446093749993
        },
        {
          "name": "D#4",
          "midi": 63,
          "time": 100.58011140624981,
          "velocity": 0.952755905511811,
          "duration": 0.06294968749999441
        },
        {
          "name": "D#4",
          "midi": 63,
          "time": 100.7914424999998,
          "velocity": 0.9448818897637795,
          "duration": 0.09442453124999872
        },
        {
          "name": "F#4",
          "midi": 66,
          "time": 101.00726999999979,
          "velocity": 0.952755905511811,
          "duration": 0.36420890624999913
        },
        {
          "name": "D#4",
          "midi": 63,
          "time": 101.43892499999978,
          "velocity": 0.952755905511811,
          "duration": 0.07643890625000438
        },
        {
          "name": "F4",
          "midi": 65,
          "time": 101.65924890624979,
          "velocity": 0.952755905511811,
          "duration": 0.3732017187499963
        },
        {
          "name": "C#4",
          "midi": 61,
          "time": 102.08640749999978,
          "velocity": 0.952755905511811,
          "duration": 0.058453281249995825
        },
        {
          "name": "F#4",
          "midi": 66,
          "time": 103.39036531249978,
          "velocity": 0.952755905511811,
          "duration": 0.0719425000000058
        },
        {
          "name": "D#4",
          "midi": 63,
          "time": 103.81752390624979,
          "velocity": 0.952755905511811,
          "duration": 0.05395687499999724
        },
        {
          "name": "F#4",
          "midi": 66,
          "time": 104.02885499999978,
          "velocity": 0.952755905511811,
          "duration": 0.08992812500000014
        },
        {
          "name": "C#4",
          "midi": 61,
          "time": 104.46500640624977,
          "velocity": 0.952755905511811,
          "duration": 0.2023382812500074
        },
        {
          "name": "D#4",
          "midi": 63,
          "time": 104.68533031249977,
          "velocity": 0.952755905511811,
          "duration": 0.05395687499999724
        },
        {
          "name": "D#4",
          "midi": 63,
          "time": 105.11248890624977,
          "velocity": 0.952755905511811,
          "duration": 0.08992812500000014
        },
        {
          "name": "C#4",
          "midi": 61,
          "time": 105.54414390624977,
          "velocity": 0.952755905511811,
          "duration": 0.08992812500000014
        },
        {
          "name": "D#4",
          "midi": 63,
          "time": 105.75547499999978,
          "velocity": 0.952755905511811,
          "duration": 0.067446093749993
        },
        {
          "name": "C#4",
          "midi": 61,
          "time": 106.18263359374977,
          "velocity": 0.952755905511811,
          "duration": 0.17985625000000027
        },
        {
          "name": "A#3",
          "midi": 58,
          "time": 106.40295749999977,
          "velocity": 0.952755905511811,
          "duration": 0.05395687499999724
        },
        {
          "name": "F4",
          "midi": 65,
          "time": 106.83910890624978,
          "velocity": 0.952755905511811,
          "duration": 0.08543171875000155
        },
        {
          "name": "D#4",
          "midi": 63,
          "time": 107.27076390624978,
          "velocity": 0.952755905511811,
          "duration": 0.058453281249995825
        },
        {
          "name": "F#4",
          "midi": 66,
          "time": 107.49558421874978,
          "velocity": 0.952755905511811,
          "duration": 0.07643890625000438
        },
        {
          "name": "D#4",
          "midi": 63,
          "time": 107.91374999999978,
          "velocity": 0.952755905511811,
          "duration": 0.18435265625001307
        },
        {
          "name": "C#4",
          "midi": 61,
          "time": 108.1430667187498,
          "velocity": 0.952755905511811,
          "duration": 0.05395687499999724
        },
        {
          "name": "D#4",
          "midi": 63,
          "time": 108.57022531249979,
          "velocity": 0.952755905511811,
          "duration": 0.058453281249995825
        },
        {
          "name": "C#4",
          "midi": 61,
          "time": 108.99738390624978,
          "velocity": 0.952755905511811,
          "duration": 0.058453281249995825
        },
        {
          "name": "D#4",
          "midi": 63,
          "time": 109.21321140624977,
          "velocity": 0.952755905511811,
          "duration": 0.06294968749999441
        },
        {
          "name": "D#4",
          "midi": 63,
          "time": 109.64036999999976,
          "velocity": 0.952755905511811,
          "duration": 0.14388499999999738
        },
        {
          "name": "C#4",
          "midi": 61,
          "time": 110.08101781249977,
          "velocity": 0.952755905511811,
          "duration": 0.08093531250000296
        },
        {
          "name": "A#4",
          "midi": 70,
          "time": 110.50367999999976,
          "velocity": 0.952755905511811,
          "duration": 0.1708634375000031
        },
        {
          "name": "A#4",
          "midi": 70,
          "time": 110.72400390624976,
          "velocity": 0.952755905511811,
          "duration": 0.5350723437500022
        },
        {
          "name": "D#4",
          "midi": 63,
          "time": 111.37148640624976,
          "velocity": 0.952755905511811,
          "duration": 0.15737421874999313
        },
        {
          "name": "D#4",
          "midi": 63,
          "time": 111.59181031249975,
          "velocity": 0.952755905511811,
          "duration": 0.5350723437500022
        },
        {
          "name": "A#4",
          "midi": 70,
          "time": 112.23029999999974,
          "velocity": 0.952755905511811,
          "duration": 0.1708634374999889
        },
        {
          "name": "A#4",
          "midi": 70,
          "time": 112.45512031249973,
          "velocity": 0.952755905511811,
          "duration": 0.5035974999999979
        },
        {
          "name": "C#4",
          "midi": 61,
          "time": 113.08911359374973,
          "velocity": 0.952755905511811,
          "duration": 0.2068346874999918
        },
        {
          "name": "C#4",
          "midi": 61,
          "time": 113.31843031249971,
          "velocity": 0.952755905511811,
          "duration": 0.35521609375000196
        },
        {
          "name": "D#4",
          "midi": 63,
          "time": 113.75008531249972,
          "velocity": 0.952755905511811,
          "duration": 0.29226640624999334
        },
        {
          "name": "D#4",
          "midi": 63,
          "time": 114.17274749999972,
          "velocity": 0.9448818897637795,
          "duration": 0.06294968749999441
        },
        {
          "name": "D#4",
          "midi": 63,
          "time": 114.3885749999997,
          "velocity": 0.952755905511811,
          "duration": 0.05395687499999724
        },
        {
          "name": "D#4",
          "midi": 63,
          "time": 114.60440249999971,
          "velocity": 0.9448818897637795,
          "duration": 0.0719425000000058
        },
        {
          "name": "F#4",
          "midi": 66,
          "time": 114.82472640624972,
          "velocity": 0.952755905511811,
          "duration": 0.3147484375000005
        },
        {
          "name": "D#4",
          "midi": 63,
          "time": 115.25188499999972,
          "velocity": 0.952755905511811,
          "duration": 0.08093531250000296
        },
        {
          "name": "F4",
          "midi": 65,
          "time": 115.46771249999972,
          "velocity": 0.952755905511811,
          "duration": 0.39568374999998923
        },
        {
          "name": "C#4",
          "midi": 61,
          "time": 115.89936749999971,
          "velocity": 0.952755905511811,
          "duration": 0.08992812500000014
        },
        {
          "name": "F#4",
          "midi": 66,
          "time": 117.1988289062497,
          "velocity": 0.952755905511811,
          "duration": 0.10791374999999448
        },
        {
          "name": "D#4",
          "midi": 63,
          "time": 117.6304839062497,
          "velocity": 0.952755905511811,
          "duration": 0.049460468749998654
        },
        {
          "name": "F#4",
          "midi": 66,
          "time": 117.8418149999997,
          "velocity": 0.952755905511811,
          "duration": 0.067446093749993
        },
        {
          "name": "C#4",
          "midi": 61,
          "time": 118.27346999999969,
          "velocity": 0.952755905511811,
          "duration": 0.18435265625001307
        },
        {
          "name": "D#4",
          "midi": 63,
          "time": 118.48929749999971,
          "velocity": 0.952755905511811,
          "duration": 0.049460468749998654
        },
        {
          "name": "D#4",
          "midi": 63,
          "time": 118.92544890624971,
          "velocity": 0.952755905511811,
          "duration": 0.0719425000000058
        }
      ],
      "controlChanges": {
        "1": [
          {
            "number": 1,
            "time": 119.13677999999972,
            "value": 0
          }
        ],
        "7": [
          {
            "number": 7,
            "time": 0,
            "value": 1
          },
          {
            "number": 7,
            "time": 0,
            "value": 0.952755905511811
          }
        ],
        "10": [
          {
            "number": 10,
            "time": 0,
            "value": 0.6299212598425197
          }
        ],
        "11": [
          {
            "number": 11,
            "time": 0,
            "value": 1
          },
          {
            "number": 11,
            "time": 119.13677999999972,
            "value": 0
          }
        ],
        "32": [
          {
            "number": 32,
            "time": 0,
            "value": 0
          },
          {
            "number": 32,
            "time": 0,
            "value": 0
          }
        ],
        "91": [
          {
            "number": 91,
            "time": 0,
            "value": 0.5118110236220472
          }
        ],
        "93": [
          {
            "number": 93,
            "time": 0,
            "value": 0.23622047244094488
          }
        ]
      },
      "id": 16,
      "name": "Untitled",
      "instrumentNumber": 66,
      "instrument": "tenor sax",
      "instrumentFamily": "reed",
      "channelNumber": 15,
      "isPercussion": false
    }
  ]
}