{
  "header": {
    "PPQ": 480,
    "bpm": 210.00021000021,
    "timeSignature": [
      4,
      4
    ],
    "name": "I Bet You Look Good On The Dancefloor"
  },
  "startTime": 0,
  "duration": 166.85697600000117,
  "tracks": [
    {
      "startTime": 0,
      "duration": 0,
      "length": 0,
      "notes": [],
      "controlChanges": {},
      "id": 0,
      "name": "I Bet You Look Good On The Dancefloor"
    },
    {
      "startTime": 0,
      "duration": 166.85697600000114,
      "length": 1026,
      "notes": [
        {
          "name": "F#3",
          "midi": 54,
          "time": 0,
          "velocity": 0.7480314960629921,
          "duration": 0.285714
        },
        {
          "name": "C#3",
          "midi": 49,
          "time": 0,
          "velocity": 0.7480314960629921,
          "duration": 0.285714
        },
        {
          "name": "F#2",
          "midi": 42,
          "time": 0,
          "velocity": 0.7480314960629921,
          "duration": 0.285714
        },
        {
          "name": "F#3",
          "midi": 54,
          "time": 0.285714,
          "velocity": 0.7480314960629921,
          "duration": 0.285714
        },
        {
          "name": "C#3",
          "midi": 49,
          "time": 0.285714,
          "velocity": 0.7480314960629921,
          "duration": 0.285714
        },
        {
          "name": "F#2",
          "midi": 42,
          "time": 0.285714,
          "velocity": 0.7480314960629921,
          "duration": 0.285714
        },
        {
          "name": "F#3",
          "midi": 54,
          "time": 1.142856,
          "velocity": 0.7480314960629921,
          "duration": 0.285714
        },
        {
          "name": "C#3",
          "midi": 49,
          "time": 1.142856,
          "velocity": 0.7480314960629921,
          "duration": 0.285714
        },
        {
          "name": "F#2",
          "midi": 42,
          "time": 1.142856,
          "velocity": 0.7480314960629921,
          "duration": 0.285714
        },
        {
          "name": "F#3",
          "midi": 54,
          "time": 1.4285700000000001,
          "velocity": 0.7480314960629921,
          "duration": 0.285714
        },
        {
          "name": "C#3",
          "midi": 49,
          "time": 1.4285700000000001,
          "velocity": 0.7480314960629921,
          "duration": 0.285714
        },
        {
          "name": "F#2",
          "midi": 42,
          "time": 1.4285700000000001,
          "velocity": 0.7480314960629921,
          "duration": 0.285714
        },
        {
          "name": "F#3",
          "midi": 54,
          "time": 2.285712,
          "velocity": 0.7480314960629921,
          "duration": 0.285714
        },
        {
          "name": "C#3",
          "midi": 49,
          "time": 2.285712,
          "velocity": 0.7480314960629921,
          "duration": 0.285714
        },
        {
          "name": "F#2",
          "midi": 42,
          "time": 2.285712,
          "velocity": 0.7480314960629921,
          "duration": 0.285714
        },
        {
          "name": "F#3",
          "midi": 54,
          "time": 2.571426,
          "velocity": 0.7480314960629921,
          "duration": 0.285714
        },
        {
          "name": "C#3",
          "midi": 49,
          "time": 2.571426,
          "velocity": 0.7480314960629921,
          "duration": 0.285714
        },
        {
          "name": "F#2",
          "midi": 42,
          "time": 2.571426,
          "velocity": 0.7480314960629921,
          "duration": 0.285714
        },
        {
          "name": "F#3",
          "midi": 54,
          "time": 3.4285680000000003,
          "velocity": 0.7480314960629921,
          "duration": 0.285714
        },
        {
          "name": "C#3",
          "midi": 49,
          "time": 3.4285680000000003,
          "velocity": 0.7480314960629921,
          "duration": 0.285714
        },
        {
          "name": "F#2",
          "midi": 42,
          "time": 3.4285680000000003,
          "velocity": 0.7480314960629921,
          "duration": 0.285714
        },
        {
          "name": "F#3",
          "midi": 54,
          "time": 3.7142820000000003,
          "velocity": 0.7480314960629921,
          "duration": 0.285714
        },
        {
          "name": "C#3",
          "midi": 49,
          "time": 3.7142820000000003,
          "velocity": 0.7480314960629921,
          "duration": 0.285714
        },
        {
          "name": "F#2",
          "midi": 42,
          "time": 3.7142820000000003,
          "velocity": 0.7480314960629921,
          "duration": 0.285714
        },
        {
          "name": "F#3",
          "midi": 54,
          "time": 4.571424,
          "velocity": 0.7480314960629921,
          "duration": 0.28571400000000047
        },
        {
          "name": "C#3",
          "midi": 49,
          "time": 4.571424,
          "velocity": 0.7480314960629921,
          "duration": 0.28571400000000047
        },
        {
          "name": "F#2",
          "midi": 42,
          "time": 4.571424,
          "velocity": 0.7480314960629921,
          "duration": 0.28571400000000047
        },
        {
          "name": "F#3",
          "midi": 54,
          "time": 4.857138000000001,
          "velocity": 0.7480314960629921,
          "duration": 0.28571400000000047
        },
        {
          "name": "C#3",
          "midi": 49,
          "time": 4.857138000000001,
          "velocity": 0.7480314960629921,
          "duration": 0.28571400000000047
        },
        {
          "name": "F#2",
          "midi": 42,
          "time": 4.857138000000001,
          "velocity": 0.7480314960629921,
          "duration": 0.28571400000000047
        },
        {
          "name": "F#3",
          "midi": 54,
          "time": 5.714280000000001,
          "velocity": 0.7480314960629921,
          "duration": 0.2857139999999996
        },
        {
          "name": "C#3",
          "midi": 49,
          "time": 5.714280000000001,
          "velocity": 0.7480314960629921,
          "duration": 0.2857139999999996
        },
        {
          "name": "F#2",
          "midi": 42,
          "time": 5.714280000000001,
          "velocity": 0.7480314960629921,
          "duration": 0.2857139999999996
        },
        {
          "name": "F#3",
          "midi": 54,
          "time": 5.999994000000001,
          "velocity": 0.7480314960629921,
          "duration": 0.28571400000000047
        },
        {
          "name": "C#3",
          "midi": 49,
          "time": 5.999994000000001,
          "velocity": 0.7480314960629921,
          "duration": 0.28571400000000047
        },
        {
          "name": "F#2",
          "midi": 42,
          "time": 5.999994000000001,
          "velocity": 0.7480314960629921,
          "duration": 0.28571400000000047
        },
        {
          "name": "F#3",
          "midi": 54,
          "time": 6.8571360000000015,
          "velocity": 0.7480314960629921,
          "duration": 0.2857139999999996
        },
        {
          "name": "C#3",
          "midi": 49,
          "time": 6.8571360000000015,
          "velocity": 0.7480314960629921,
          "duration": 0.2857139999999996
        },
        {
          "name": "F#2",
          "midi": 42,
          "time": 6.8571360000000015,
          "velocity": 0.7480314960629921,
          "duration": 0.2857139999999996
        },
        {
          "name": "F#3",
          "midi": 54,
          "time": 7.142850000000001,
          "velocity": 0.7480314960629921,
          "duration": 0.28571400000000047
        },
        {
          "name": "C#3",
          "midi": 49,
          "time": 7.142850000000001,
          "velocity": 0.7480314960629921,
          "duration": 0.28571400000000047
        },
        {
          "name": "F#2",
          "midi": 42,
          "time": 7.142850000000001,
          "velocity": 0.7480314960629921,
          "duration": 0.28571400000000047
        },
        {
          "name": "F#3",
          "midi": 54,
          "time": 7.9999920000000015,
          "velocity": 0.7480314960629921,
          "duration": 0.2857139999999996
        },
        {
          "name": "C#3",
          "midi": 49,
          "time": 7.9999920000000015,
          "velocity": 0.7480314960629921,
          "duration": 0.2857139999999996
        },
        {
          "name": "F#2",
          "midi": 42,
          "time": 7.9999920000000015,
          "velocity": 0.7480314960629921,
          "duration": 0.2857139999999996
        },
        {
          "name": "F#3",
          "midi": 54,
          "time": 8.285706000000001,
          "velocity": 0.7480314960629921,
          "duration": 0.28571400000000047
        },
        {
          "name": "C#3",
          "midi": 49,
          "time": 8.285706000000001,
          "velocity": 0.7480314960629921,
          "duration": 0.28571400000000047
        },
        {
          "name": "F#2",
          "midi": 42,
          "time": 8.285706000000001,
          "velocity": 0.7480314960629921,
          "duration": 0.28571400000000047
        },
        {
          "name": "F#3",
          "midi": 54,
          "time": 9.142848,
          "velocity": 0.7480314960629921,
          "duration": 0.14285699999999935
        },
        {
          "name": "F#3",
          "midi": 54,
          "time": 9.285705,
          "velocity": 0.7480314960629921,
          "duration": 0.14285699999999935
        },
        {
          "name": "F#3",
          "midi": 54,
          "time": 9.428562,
          "velocity": 0.7480314960629921,
          "duration": 0.14285699999999935
        },
        {
          "name": "F#3",
          "midi": 54,
          "time": 9.571418999999999,
          "velocity": 0.7480314960629921,
          "duration": 0.14285699999999935
        },
        {
          "name": "A3",
          "midi": 57,
          "time": 9.714275999999998,
          "velocity": 0.7480314960629921,
          "duration": 0.14285699999999935
        },
        {
          "name": "A3",
          "midi": 57,
          "time": 9.857132999999997,
          "velocity": 0.7480314960629921,
          "duration": 0.14285699999999935
        },
        {
          "name": "A3",
          "midi": 57,
          "time": 9.999989999999997,
          "velocity": 0.7480314960629921,
          "duration": 0.14285699999999935
        },
        {
          "name": "A3",
          "midi": 57,
          "time": 10.142846999999996,
          "velocity": 0.7480314960629921,
          "duration": 0.14285699999999935
        },
        {
          "name": "B3",
          "midi": 59,
          "time": 10.285703999999996,
          "velocity": 0.7480314960629921,
          "duration": 0.14285699999999935
        },
        {
          "name": "B3",
          "midi": 59,
          "time": 10.428560999999995,
          "velocity": 0.7480314960629921,
          "duration": 0.14285699999999935
        },
        {
          "name": "B3",
          "midi": 59,
          "time": 10.571417999999994,
          "velocity": 0.7480314960629921,
          "duration": 0.14285699999999935
        },
        {
          "name": "B3",
          "midi": 59,
          "time": 10.714274999999994,
          "velocity": 0.7480314960629921,
          "duration": 0.14285699999999935
        },
        {
          "name": "C#4",
          "midi": 61,
          "time": 10.857131999999993,
          "velocity": 0.7480314960629921,
          "duration": 0.14285699999999935
        },
        {
          "name": "C#4",
          "midi": 61,
          "time": 10.999988999999992,
          "velocity": 0.7480314960629921,
          "duration": 0.14285699999999935
        },
        {
          "name": "C#4",
          "midi": 61,
          "time": 11.142845999999992,
          "velocity": 0.7480314960629921,
          "duration": 0.14285699999999935
        },
        {
          "name": "C#4",
          "midi": 61,
          "time": 11.285702999999991,
          "velocity": 0.7480314960629921,
          "duration": 0.14285699999999935
        },
        {
          "name": "E4",
          "midi": 64,
          "time": 11.42855999999999,
          "velocity": 0.7480314960629921,
          "duration": 0.14285699999999935
        },
        {
          "name": "E4",
          "midi": 64,
          "time": 11.57141699999999,
          "velocity": 0.7480314960629921,
          "duration": 0.14285699999999935
        },
        {
          "name": "E4",
          "midi": 64,
          "time": 11.714273999999989,
          "velocity": 0.7480314960629921,
          "duration": 0.14285699999999935
        },
        {
          "name": "E4",
          "midi": 64,
          "time": 11.857130999999988,
          "velocity": 0.7480314960629921,
          "duration": 0.14285699999999935
        },
        {
          "name": "F#4",
          "midi": 66,
          "time": 11.999987999999988,
          "velocity": 0.7480314960629921,
          "duration": 0.14285699999999935
        },
        {
          "name": "F#4",
          "midi": 66,
          "time": 12.142844999999987,
          "velocity": 0.7480314960629921,
          "duration": 0.14285699999999935
        },
        {
          "name": "F#4",
          "midi": 66,
          "time": 12.285701999999986,
          "velocity": 0.7480314960629921,
          "duration": 0.14285699999999935
        },
        {
          "name": "F#4",
          "midi": 66,
          "time": 12.428558999999986,
          "velocity": 0.7480314960629921,
          "duration": 0.14285699999999935
        },
        {
          "name": "A4",
          "midi": 69,
          "time": 12.571415999999985,
          "velocity": 0.7480314960629921,
          "duration": 0.14285699999999935
        },
        {
          "name": "A4",
          "midi": 69,
          "time": 12.714272999999984,
          "velocity": 0.7480314960629921,
          "duration": 0.14285699999999935
        },
        {
          "name": "A4",
          "midi": 69,
          "time": 12.857129999999984,
          "velocity": 0.7480314960629921,
          "duration": 0.14285699999999935
        },
        {
          "name": "A4",
          "midi": 69,
          "time": 12.999986999999983,
          "velocity": 0.7480314960629921,
          "duration": 0.14285699999999935
        },
        {
          "name": "B4",
          "midi": 71,
          "time": 13.142843999999982,
          "velocity": 0.7480314960629921,
          "duration": 0.14285699999999935
        },
        {
          "name": "B4",
          "midi": 71,
          "time": 13.285700999999982,
          "velocity": 0.7480314960629921,
          "duration": 0.14285699999999935
        },
        {
          "name": "B4",
          "midi": 71,
          "time": 13.428557999999981,
          "velocity": 0.7480314960629921,
          "duration": 0.14285699999999935
        },
        {
          "name": "B4",
          "midi": 71,
          "time": 13.57141499999998,
          "velocity": 0.7480314960629921,
          "duration": 0.14285699999999935
        },
        {
          "name": "B4",
          "midi": 71,
          "time": 13.71427199999998,
          "velocity": 0.7480314960629921,
          "duration": 0.28571400000000224
        },
        {
          "name": "B4",
          "midi": 71,
          "time": 13.999985999999982,
          "velocity": 0.7480314960629921,
          "duration": 0.28571400000000224
        },
        {
          "name": "B4",
          "midi": 71,
          "time": 14.285699999999984,
          "velocity": 0.7480314960629921,
          "duration": 0.28571400000000224
        },
        {
          "name": "B4",
          "midi": 71,
          "time": 14.571413999999987,
          "velocity": 0.7480314960629921,
          "duration": 0.28571400000000224
        },
        {
          "name": "B4",
          "midi": 71,
          "time": 14.857127999999989,
          "velocity": 0.7480314960629921,
          "duration": 0.28571400000000224
        },
        {
          "name": "B4",
          "midi": 71,
          "time": 15.142841999999991,
          "velocity": 0.7480314960629921,
          "duration": 0.28571400000000224
        },
        {
          "name": "B4",
          "midi": 71,
          "time": 15.428555999999993,
          "velocity": 0.7480314960629921,
          "duration": 0.28571400000000224
        },
        {
          "name": "B4",
          "midi": 71,
          "time": 15.714269999999996,
          "velocity": 0.7480314960629921,
          "duration": 0.14285700000000112
        },
        {
          "name": "A4",
          "midi": 69,
          "time": 15.857126999999997,
          "velocity": 0.7480314960629921,
          "duration": 0.14285699999999935
        },
        {
          "name": "B4",
          "midi": 71,
          "time": 15.999983999999996,
          "velocity": 0.7480314960629921,
          "duration": 0.19047599999999854
        },
        {
          "name": "A4",
          "midi": 69,
          "time": 16.190459999999995,
          "velocity": 0.7480314960629921,
          "duration": 0.1904760000000003
        },
        {
          "name": "F#4",
          "midi": 66,
          "time": 16.380935999999995,
          "velocity": 0.7480314960629921,
          "duration": 0.1904760000000003
        },
        {
          "name": "E4",
          "midi": 64,
          "time": 16.571411999999995,
          "velocity": 0.7480314960629921,
          "duration": 0.1904760000000003
        },
        {
          "name": "F#4",
          "midi": 66,
          "time": 16.761887999999995,
          "velocity": 0.7480314960629921,
          "duration": 0.1904760000000003
        },
        {
          "name": "A4",
          "midi": 69,
          "time": 16.952363999999996,
          "velocity": 0.7480314960629921,
          "duration": 0.1904760000000003
        },
        {
          "name": "B4",
          "midi": 71,
          "time": 17.142839999999996,
          "velocity": 0.7480314960629921,
          "duration": 0.1904760000000003
        },
        {
          "name": "A4",
          "midi": 69,
          "time": 17.333315999999996,
          "velocity": 0.7480314960629921,
          "duration": 0.1904760000000003
        },
        {
          "name": "F#4",
          "midi": 66,
          "time": 17.523791999999997,
          "velocity": 0.7480314960629921,
          "duration": 0.1904760000000003
        },
        {
          "name": "E4",
          "midi": 64,
          "time": 17.714267999999997,
          "velocity": 0.7480314960629921,
          "duration": 0.1904760000000003
        },
        {
          "name": "F#4",
          "midi": 66,
          "time": 17.904743999999997,
          "velocity": 0.7480314960629921,
          "duration": 0.1904760000000003
        },
        {
          "name": "A4",
          "midi": 69,
          "time": 18.095219999999998,
          "velocity": 0.7480314960629921,
          "duration": 0.1904760000000003
        },
        {
          "name": "B4",
          "midi": 71,
          "time": 18.285695999999998,
          "velocity": 0.7480314960629921,
          "duration": 1.2857130000000083
        },
        {
          "name": "B4",
          "midi": 71,
          "time": 19.571409000000006,
          "velocity": 0.7480314960629921,
          "duration": 0.14285699999999935
        },
        {
          "name": "B4",
          "midi": 71,
          "time": 19.714266000000006,
          "velocity": 0.7480314960629921,
          "duration": 0.14285699999999935
        },
        {
          "name": "B4",
          "midi": 71,
          "time": 19.857123000000005,
          "velocity": 0.7480314960629921,
          "duration": 0.14285699999999935
        },
        {
          "name": "B4",
          "midi": 71,
          "time": 19.999980000000004,
          "velocity": 0.7480314960629921,
          "duration": 0.1904760000000003
        },
        {
          "name": "A4",
          "midi": 69,
          "time": 20.190456000000005,
          "velocity": 0.7480314960629921,
          "duration": 0.1904760000000003
        },
        {
          "name": "F#4",
          "midi": 66,
          "time": 20.380932000000005,
          "velocity": 0.7480314960629921,
          "duration": 0.1904760000000003
        },
        {
          "name": "E4",
          "midi": 64,
          "time": 20.571408000000005,
          "velocity": 0.7480314960629921,
          "duration": 0.1904760000000003
        },
        {
          "name": "F#4",
          "midi": 66,
          "time": 20.761884000000006,
          "velocity": 0.7480314960629921,
          "duration": 0.1904760000000003
        },
        {
          "name": "A4",
          "midi": 69,
          "time": 20.952360000000006,
          "velocity": 0.7480314960629921,
          "duration": 0.1904760000000003
        },
        {
          "name": "F#4",
          "midi": 66,
          "time": 21.142836000000006,
          "velocity": 0.7480314960629921,
          "duration": 0.7142850000000003
        },
        {
          "name": "F#4",
          "midi": 66,
          "time": 21.857121000000006,
          "velocity": 0.7480314960629921,
          "duration": 0.14285699999999935
        },
        {
          "name": "F#4",
          "midi": 66,
          "time": 21.999978000000006,
          "velocity": 0.7480314960629921,
          "duration": 0.14285699999999935
        },
        {
          "name": "F#4",
          "midi": 66,
          "time": 22.142835000000005,
          "velocity": 0.7480314960629921,
          "duration": 0.14285699999999935
        },
        {
          "name": "F#4",
          "midi": 66,
          "time": 22.285692000000004,
          "velocity": 0.7480314960629921,
          "duration": 0.1904760000000003
        },
        {
          "name": "E4",
          "midi": 64,
          "time": 22.476168000000005,
          "velocity": 0.7480314960629921,
          "duration": 0.1904760000000003
        },
        {
          "name": "C#4",
          "midi": 61,
          "time": 22.666644000000005,
          "velocity": 0.7480314960629921,
          "duration": 0.1904760000000003
        },
        {
          "name": "E4",
          "midi": 64,
          "time": 22.857120000000005,
          "velocity": 0.7480314960629921,
          "duration": 0.1904760000000003
        },
        {
          "name": "C#4",
          "midi": 61,
          "time": 23.047596000000006,
          "velocity": 0.7480314960629921,
          "duration": 0.1904760000000003
        },
        {
          "name": "B3",
          "midi": 59,
          "time": 23.238072000000006,
          "velocity": 0.7480314960629921,
          "duration": 0.1904760000000003
        },
        {
          "name": "A3",
          "midi": 57,
          "time": 23.428548000000006,
          "velocity": 0.7480314960629921,
          "duration": 0.1904760000000003
        },
        {
          "name": "F#3",
          "midi": 54,
          "time": 23.619024000000007,
          "velocity": 0.7480314960629921,
          "duration": 0.1904760000000003
        },
        {
          "name": "E3",
          "midi": 52,
          "time": 23.809500000000007,
          "velocity": 0.7480314960629921,
          "duration": 0.1904760000000003
        },
        {
          "name": "F#3",
          "midi": 54,
          "time": 23.999976000000007,
          "velocity": 0.7480314960629921,
          "duration": 0.1904760000000003
        },
        {
          "name": "A3",
          "midi": 57,
          "time": 24.190452000000008,
          "velocity": 0.7480314960629921,
          "duration": 0.1904760000000003
        },
        {
          "name": "B3",
          "midi": 59,
          "time": 24.380928000000008,
          "velocity": 0.7480314960629921,
          "duration": 0.1904760000000003
        },
        {
          "name": "A3",
          "midi": 57,
          "time": 24.57140400000001,
          "velocity": 0.7480314960629921,
          "duration": 0.1904760000000003
        },
        {
          "name": "F#3",
          "midi": 54,
          "time": 24.76188000000001,
          "velocity": 0.7480314960629921,
          "duration": 0.1904760000000003
        },
        {
          "name": "E3",
          "midi": 52,
          "time": 24.95235600000001,
          "velocity": 0.7480314960629921,
          "duration": 0.1904760000000003
        },
        {
          "name": "F#3",
          "midi": 54,
          "time": 25.14283200000001,
          "velocity": 0.7480314960629921,
          "duration": 0.1904760000000003
        },
        {
          "name": "A3",
          "midi": 57,
          "time": 25.33330800000001,
          "velocity": 0.7480314960629921,
          "duration": 0.1904760000000003
        },
        {
          "name": "B3",
          "midi": 59,
          "time": 25.52378400000001,
          "velocity": 0.7480314960629921,
          "duration": 0.1904760000000003
        },
        {
          "name": "A3",
          "midi": 57,
          "time": 25.71426000000001,
          "velocity": 0.7480314960629921,
          "duration": 0.1904760000000003
        },
        {
          "name": "F#3",
          "midi": 54,
          "time": 25.90473600000001,
          "velocity": 0.7480314960629921,
          "duration": 0.1904760000000003
        },
        {
          "name": "E3",
          "midi": 52,
          "time": 26.09521200000001,
          "velocity": 0.7480314960629921,
          "duration": 0.1904760000000003
        },
        {
          "name": "B3",
          "midi": 59,
          "time": 26.28568800000001,
          "velocity": 0.7480314960629921,
          "duration": 0.1904760000000003
        },
        {
          "name": "B3",
          "midi": 59,
          "time": 26.47616400000001,
          "velocity": 0.7480314960629921,
          "duration": 0.1904760000000003
        },
        {
          "name": "B3",
          "midi": 59,
          "time": 26.66664000000001,
          "velocity": 0.7480314960629921,
          "duration": 0.1904760000000003
        },
        {
          "name": "B3",
          "midi": 59,
          "time": 26.857116000000012,
          "velocity": 0.7480314960629921,
          "duration": 0.28571399999999514
        },
        {
          "name": "F#3",
          "midi": 54,
          "time": 45.714240000000004,
          "velocity": 0.7480314960629921,
          "duration": 0.2857139999999987
        },
        {
          "name": "C#3",
          "midi": 49,
          "time": 45.714240000000004,
          "velocity": 0.7480314960629921,
          "duration": 0.2857139999999987
        },
        {
          "name": "F#2",
          "midi": 42,
          "time": 45.714240000000004,
          "velocity": 0.7480314960629921,
          "duration": 0.2857139999999987
        },
        {
          "name": "F#3",
          "midi": 54,
          "time": 45.999954,
          "velocity": 0.7480314960629921,
          "duration": 0.2857139999999987
        },
        {
          "name": "C#3",
          "midi": 49,
          "time": 45.999954,
          "velocity": 0.7480314960629921,
          "duration": 0.2857139999999987
        },
        {
          "name": "F#2",
          "midi": 42,
          "time": 45.999954,
          "velocity": 0.7480314960629921,
          "duration": 0.2857139999999987
        },
        {
          "name": "F#3",
          "midi": 54,
          "time": 46.285668,
          "velocity": 0.7480314960629921,
          "duration": 0.2857139999999987
        },
        {
          "name": "C#3",
          "midi": 49,
          "time": 46.285668,
          "velocity": 0.7480314960629921,
          "duration": 0.2857139999999987
        },
        {
          "name": "F#2",
          "midi": 42,
          "time": 46.285668,
          "velocity": 0.7480314960629921,
          "duration": 0.2857139999999987
        },
        {
          "name": "F#3",
          "midi": 54,
          "time": 46.571382,
          "velocity": 0.7480314960629921,
          "duration": 0.2857139999999987
        },
        {
          "name": "C#3",
          "midi": 49,
          "time": 46.571382,
          "velocity": 0.7480314960629921,
          "duration": 0.2857139999999987
        },
        {
          "name": "F#2",
          "midi": 42,
          "time": 46.571382,
          "velocity": 0.7480314960629921,
          "duration": 0.2857139999999987
        },
        {
          "name": "F#3",
          "midi": 54,
          "time": 46.857096,
          "velocity": 0.7480314960629921,
          "duration": 0.2857139999999987
        },
        {
          "name": "C#3",
          "midi": 49,
          "time": 46.857096,
          "velocity": 0.7480314960629921,
          "duration": 0.2857139999999987
        },
        {
          "name": "F#2",
          "midi": 42,
          "time": 46.857096,
          "velocity": 0.7480314960629921,
          "duration": 0.2857139999999987
        },
        {
          "name": "F#3",
          "midi": 54,
          "time": 47.14281,
          "velocity": 0.7480314960629921,
          "duration": 0.2857139999999987
        },
        {
          "name": "C#3",
          "midi": 49,
          "time": 47.14281,
          "velocity": 0.7480314960629921,
          "duration": 0.2857139999999987
        },
        {
          "name": "F#2",
          "midi": 42,
          "time": 47.14281,
          "velocity": 0.7480314960629921,
          "duration": 0.2857139999999987
        },
        {
          "name": "F#3",
          "midi": 54,
          "time": 47.428523999999996,
          "velocity": 0.7480314960629921,
          "duration": 0.2857139999999987
        },
        {
          "name": "C#3",
          "midi": 49,
          "time": 47.428523999999996,
          "velocity": 0.7480314960629921,
          "duration": 0.2857139999999987
        },
        {
          "name": "F#2",
          "midi": 42,
          "time": 47.428523999999996,
          "velocity": 0.7480314960629921,
          "duration": 0.2857139999999987
        },
        {
          "name": "F#3",
          "midi": 54,
          "time": 47.714237999999995,
          "velocity": 0.7480314960629921,
          "duration": 0.2857139999999987
        },
        {
          "name": "C#3",
          "midi": 49,
          "time": 47.714237999999995,
          "velocity": 0.7480314960629921,
          "duration": 0.2857139999999987
        },
        {
          "name": "F#2",
          "midi": 42,
          "time": 47.714237999999995,
          "velocity": 0.7480314960629921,
          "duration": 0.2857139999999987
        },
        {
          "name": "A3",
          "midi": 57,
          "time": 47.99995199999999,
          "velocity": 0.7480314960629921,
          "duration": 0.2857139999999987
        },
        {
          "name": "E3",
          "midi": 52,
          "time": 47.99995199999999,
          "velocity": 0.7480314960629921,
          "duration": 0.2857139999999987
        },
        {
          "name": "A2",
          "midi": 45,
          "time": 47.99995199999999,
          "velocity": 0.7480314960629921,
          "duration": 0.2857139999999987
        },
        {
          "name": "A3",
          "midi": 57,
          "time": 48.28566599999999,
          "velocity": 0.7480314960629921,
          "duration": 0.2857139999999987
        },
        {
          "name": "E3",
          "midi": 52,
          "time": 48.28566599999999,
          "velocity": 0.7480314960629921,
          "duration": 0.2857139999999987
        },
        {
          "name": "A2",
          "midi": 45,
          "time": 48.28566599999999,
          "velocity": 0.7480314960629921,
          "duration": 0.2857139999999987
        },
        {
          "name": "A3",
          "midi": 57,
          "time": 48.57137999999999,
          "velocity": 0.7480314960629921,
          "duration": 0.2857139999999987
        },
        {
          "name": "E3",
          "midi": 52,
          "time": 48.57137999999999,
          "velocity": 0.7480314960629921,
          "duration": 0.2857139999999987
        },
        {
          "name": "A2",
          "midi": 45,
          "time": 48.57137999999999,
          "velocity": 0.7480314960629921,
          "duration": 0.2857139999999987
        },
        {
          "name": "A3",
          "midi": 57,
          "time": 48.85709399999999,
          "velocity": 0.7480314960629921,
          "duration": 0.2857139999999987
        },
        {
          "name": "E3",
          "midi": 52,
          "time": 48.85709399999999,
          "velocity": 0.7480314960629921,
          "duration": 0.2857139999999987
        },
        {
          "name": "A2",
          "midi": 45,
          "time": 48.85709399999999,
          "velocity": 0.7480314960629921,
          "duration": 0.2857139999999987
        },
        {
          "name": "A3",
          "midi": 57,
          "time": 49.14280799999999,
          "velocity": 0.7480314960629921,
          "duration": 0.2857139999999987
        },
        {
          "name": "E3",
          "midi": 52,
          "time": 49.14280799999999,
          "velocity": 0.7480314960629921,
          "duration": 0.2857139999999987
        },
        {
          "name": "A2",
          "midi": 45,
          "time": 49.14280799999999,
          "velocity": 0.7480314960629921,
          "duration": 0.2857139999999987
        },
        {
          "name": "A3",
          "midi": 57,
          "time": 49.42852199999999,
          "velocity": 0.7480314960629921,
          "duration": 0.2857139999999987
        },
        {
          "name": "E3",
          "midi": 52,
          "time": 49.42852199999999,
          "velocity": 0.7480314960629921,
          "duration": 0.2857139999999987
        },
        {
          "name": "A2",
          "midi": 45,
          "time": 49.42852199999999,
          "velocity": 0.7480314960629921,
          "duration": 0.2857139999999987
        },
        {
          "name": "A3",
          "midi": 57,
          "time": 49.714235999999985,
          "velocity": 0.7480314960629921,
          "duration": 0.2857139999999987
        },
        {
          "name": "E3",
          "midi": 52,
          "time": 49.714235999999985,
          "velocity": 0.7480314960629921,
          "duration": 0.2857139999999987
        },
        {
          "name": "A2",
          "midi": 45,
          "time": 49.714235999999985,
          "velocity": 0.7480314960629921,
          "duration": 0.2857139999999987
        },
        {
          "name": "A3",
          "midi": 57,
          "time": 49.999949999999984,
          "velocity": 0.7480314960629921,
          "duration": 0.2857139999999987
        },
        {
          "name": "E3",
          "midi": 52,
          "time": 49.999949999999984,
          "velocity": 0.7480314960629921,
          "duration": 0.2857139999999987
        },
        {
          "name": "A2",
          "midi": 45,
          "time": 49.999949999999984,
          "velocity": 0.7480314960629921,
          "duration": 0.2857139999999987
        },
        {
          "name": "E4",
          "midi": 64,
          "time": 50.28566399999998,
          "velocity": 0.7480314960629921,
          "duration": 0.2857139999999987
        },
        {
          "name": "B3",
          "midi": 59,
          "time": 50.28566399999998,
          "velocity": 0.7480314960629921,
          "duration": 0.2857139999999987
        },
        {
          "name": "E3",
          "midi": 52,
          "time": 50.28566399999998,
          "velocity": 0.7480314960629921,
          "duration": 0.2857139999999987
        },
        {
          "name": "E4",
          "midi": 64,
          "time": 50.57137799999998,
          "velocity": 0.7480314960629921,
          "duration": 0.2857139999999987
        },
        {
          "name": "B3",
          "midi": 59,
          "time": 50.57137799999998,
          "velocity": 0.7480314960629921,
          "duration": 0.2857139999999987
        },
        {
          "name": "E3",
          "midi": 52,
          "time": 50.57137799999998,
          "velocity": 0.7480314960629921,
          "duration": 0.2857139999999987
        },
        {
          "name": "E4",
          "midi": 64,
          "time": 50.85709199999998,
          "velocity": 0.7480314960629921,
          "duration": 0.2857139999999987
        },
        {
          "name": "B3",
          "midi": 59,
          "time": 50.85709199999998,
          "velocity": 0.7480314960629921,
          "duration": 0.2857139999999987
        },
        {
          "name": "E3",
          "midi": 52,
          "time": 50.85709199999998,
          "velocity": 0.7480314960629921,
          "duration": 0.2857139999999987
        },
        {
          "name": "E4",
          "midi": 64,
          "time": 51.14280599999998,
          "velocity": 0.7480314960629921,
          "duration": 0.2857139999999987
        },
        {
          "name": "B3",
          "midi": 59,
          "time": 51.14280599999998,
          "velocity": 0.7480314960629921,
          "duration": 0.2857139999999987
        },
        {
          "name": "E3",
          "midi": 52,
          "time": 51.14280599999998,
          "velocity": 0.7480314960629921,
          "duration": 0.2857139999999987
        },
        {
          "name": "E4",
          "midi": 64,
          "time": 51.42851999999998,
          "velocity": 0.7480314960629921,
          "duration": 0.2857139999999987
        },
        {
          "name": "B3",
          "midi": 59,
          "time": 51.42851999999998,
          "velocity": 0.7480314960629921,
          "duration": 0.2857139999999987
        },
        {
          "name": "E3",
          "midi": 52,
          "time": 51.42851999999998,
          "velocity": 0.7480314960629921,
          "duration": 0.2857139999999987
        },
        {
          "name": "E4",
          "midi": 64,
          "time": 51.714233999999976,
          "velocity": 0.7480314960629921,
          "duration": 0.2857139999999987
        },
        {
          "name": "B3",
          "midi": 59,
          "time": 51.714233999999976,
          "velocity": 0.7480314960629921,
          "duration": 0.2857139999999987
        },
        {
          "name": "E3",
          "midi": 52,
          "time": 51.714233999999976,
          "velocity": 0.7480314960629921,
          "duration": 0.2857139999999987
        },
        {
          "name": "E4",
          "midi": 64,
          "time": 51.999947999999975,
          "velocity": 0.7480314960629921,
          "duration": 0.2857139999999987
        },
        {
          "name": "B3",
          "midi": 59,
          "time": 51.999947999999975,
          "velocity": 0.7480314960629921,
          "duration": 0.2857139999999987
        },
        {
          "name": "E3",
          "midi": 52,
          "time": 51.999947999999975,
          "velocity": 0.7480314960629921,
          "duration": 0.2857139999999987
        },
        {
          "name": "E4",
          "midi": 64,
          "time": 52.285661999999974,
          "velocity": 0.7480314960629921,
          "duration": 0.2857139999999987
        },
        {
          "name": "B3",
          "midi": 59,
          "time": 52.285661999999974,
          "velocity": 0.7480314960629921,
          "duration": 0.2857139999999987
        },
        {
          "name": "E3",
          "midi": 52,
          "time": 52.285661999999974,
          "velocity": 0.7480314960629921,
          "duration": 0.2857139999999987
        },
        {
          "name": "F#3",
          "midi": 54,
          "time": 52.57137599999997,
          "velocity": 0.7480314960629921,
          "duration": 0.2857139999999987
        },
        {
          "name": "C#3",
          "midi": 49,
          "time": 52.57137599999997,
          "velocity": 0.7480314960629921,
          "duration": 0.2857139999999987
        },
        {
          "name": "F#2",
          "midi": 42,
          "time": 52.57137599999997,
          "velocity": 0.7480314960629921,
          "duration": 0.2857139999999987
        },
        {
          "name": "F#3",
          "midi": 54,
          "time": 52.85708999999997,
          "velocity": 0.7480314960629921,
          "duration": 0.2857139999999987
        },
        {
          "name": "C#3",
          "midi": 49,
          "time": 52.85708999999997,
          "velocity": 0.7480314960629921,
          "duration": 0.2857139999999987
        },
        {
          "name": "F#2",
          "midi": 42,
          "time": 52.85708999999997,
          "velocity": 0.7480314960629921,
          "duration": 0.2857139999999987
        },
        {
          "name": "F#3",
          "midi": 54,
          "time": 53.14280399999997,
          "velocity": 0.7480314960629921,
          "duration": 0.2857139999999987
        },
        {
          "name": "C#3",
          "midi": 49,
          "time": 53.14280399999997,
          "velocity": 0.7480314960629921,
          "duration": 0.2857139999999987
        },
        {
          "name": "F#2",
          "midi": 42,
          "time": 53.14280399999997,
          "velocity": 0.7480314960629921,
          "duration": 0.2857139999999987
        },
        {
          "name": "F#3",
          "midi": 54,
          "time": 53.42851799999997,
          "velocity": 0.7480314960629921,
          "duration": 0.2857139999999987
        },
        {
          "name": "C#3",
          "midi": 49,
          "time": 53.42851799999997,
          "velocity": 0.7480314960629921,
          "duration": 0.2857139999999987
        },
        {
          "name": "F#2",
          "midi": 42,
          "time": 53.42851799999997,
          "velocity": 0.7480314960629921,
          "duration": 0.2857139999999987
        },
        {
          "name": "F#3",
          "midi": 54,
          "time": 53.71423199999997,
          "velocity": 0.7480314960629921,
          "duration": 0.2857139999999987
        },
        {
          "name": "C#3",
          "midi": 49,
          "time": 53.71423199999997,
          "velocity": 0.7480314960629921,
          "duration": 0.2857139999999987
        },
        {
          "name": "F#2",
          "midi": 42,
          "time": 53.71423199999997,
          "velocity": 0.7480314960629921,
          "duration": 0.2857139999999987
        },
        {
          "name": "F#3",
          "midi": 54,
          "time": 53.999945999999966,
          "velocity": 0.7480314960629921,
          "duration": 0.2857139999999987
        },
        {
          "name": "C#3",
          "midi": 49,
          "time": 53.999945999999966,
          "velocity": 0.7480314960629921,
          "duration": 0.2857139999999987
        },
        {
          "name": "F#2",
          "midi": 42,
          "time": 53.999945999999966,
          "velocity": 0.7480314960629921,
          "duration": 0.2857139999999987
        },
        {
          "name": "F#3",
          "midi": 54,
          "time": 54.285659999999964,
          "velocity": 0.7480314960629921,
          "duration": 0.2857139999999987
        },
        {
          "name": "C#3",
          "midi": 49,
          "time": 54.285659999999964,
          "velocity": 0.7480314960629921,
          "duration": 0.2857139999999987
        },
        {
          "name": "F#2",
          "midi": 42,
          "time": 54.285659999999964,
          "velocity": 0.7480314960629921,
          "duration": 0.2857139999999987
        },
        {
          "name": "F#3",
          "midi": 54,
          "time": 54.57137399999996,
          "velocity": 0.7480314960629921,
          "duration": 0.2857139999999987
        },
        {
          "name": "C#3",
          "midi": 49,
          "time": 54.57137399999996,
          "velocity": 0.7480314960629921,
          "duration": 0.2857139999999987
        },
        {
          "name": "F#2",
          "midi": 42,
          "time": 54.57137399999996,
          "velocity": 0.7480314960629921,
          "duration": 0.2857139999999987
        },
        {
          "name": "F#3",
          "midi": 54,
          "time": 54.85708799999996,
          "velocity": 0.7480314960629921,
          "duration": 0.2857139999999987
        },
        {
          "name": "C#3",
          "midi": 49,
          "time": 54.85708799999996,
          "velocity": 0.7480314960629921,
          "duration": 0.2857139999999987
        },
        {
          "name": "F#2",
          "midi": 42,
          "time": 54.85708799999996,
          "velocity": 0.7480314960629921,
          "duration": 0.2857139999999987
        },
        {
          "name": "F#3",
          "midi": 54,
          "time": 55.14280199999996,
          "velocity": 0.7480314960629921,
          "duration": 0.2857139999999987
        },
        {
          "name": "C#3",
          "midi": 49,
          "time": 55.14280199999996,
          "velocity": 0.7480314960629921,
          "duration": 0.2857139999999987
        },
        {
          "name": "F#2",
          "midi": 42,
          "time": 55.14280199999996,
          "velocity": 0.7480314960629921,
          "duration": 0.2857139999999987
        },
        {
          "name": "F#3",
          "midi": 54,
          "time": 55.42851599999996,
          "velocity": 0.7480314960629921,
          "duration": 0.2857139999999987
        },
        {
          "name": "C#3",
          "midi": 49,
          "time": 55.42851599999996,
          "velocity": 0.7480314960629921,
          "duration": 0.2857139999999987
        },
        {
          "name": "F#2",
          "midi": 42,
          "time": 55.42851599999996,
          "velocity": 0.7480314960629921,
          "duration": 0.2857139999999987
        },
        {
          "name": "F#3",
          "midi": 54,
          "time": 55.71422999999996,
          "velocity": 0.7480314960629921,
          "duration": 0.2857139999999987
        },
        {
          "name": "C#3",
          "midi": 49,
          "time": 55.71422999999996,
          "velocity": 0.7480314960629921,
          "duration": 0.2857139999999987
        },
        {
          "name": "F#2",
          "midi": 42,
          "time": 55.71422999999996,
          "velocity": 0.7480314960629921,
          "duration": 0.2857139999999987
        },
        {
          "name": "F#3",
          "midi": 54,
          "time": 55.99994399999996,
          "velocity": 0.7480314960629921,
          "duration": 0.2857139999999987
        },
        {
          "name": "C#3",
          "midi": 49,
          "time": 55.99994399999996,
          "velocity": 0.7480314960629921,
          "duration": 0.2857139999999987
        },
        {
          "name": "F#2",
          "midi": 42,
          "time": 55.99994399999996,
          "velocity": 0.7480314960629921,
          "duration": 0.2857139999999987
        },
        {
          "name": "F#3",
          "midi": 54,
          "time": 56.285657999999955,
          "velocity": 0.7480314960629921,
          "duration": 0.2857139999999987
        },
        {
          "name": "C#3",
          "midi": 49,
          "time": 56.285657999999955,
          "velocity": 0.7480314960629921,
          "duration": 0.2857139999999987
        },
        {
          "name": "F#2",
          "midi": 42,
          "time": 56.285657999999955,
          "velocity": 0.7480314960629921,
          "duration": 0.2857139999999987
        },
        {
          "name": "F#3",
          "midi": 54,
          "time": 56.571371999999954,
          "velocity": 0.7480314960629921,
          "duration": 0.2857139999999987
        },
        {
          "name": "C#3",
          "midi": 49,
          "time": 56.571371999999954,
          "velocity": 0.7480314960629921,
          "duration": 0.2857139999999987
        },
        {
          "name": "F#2",
          "midi": 42,
          "time": 56.571371999999954,
          "velocity": 0.7480314960629921,
          "duration": 0.2857139999999987
        },
        {
          "name": "F#3",
          "midi": 54,
          "time": 56.85708599999995,
          "velocity": 0.7480314960629921,
          "duration": 0.2857139999999987
        },
        {
          "name": "C#3",
          "midi": 49,
          "time": 56.85708599999995,
          "velocity": 0.7480314960629921,
          "duration": 0.2857139999999987
        },
        {
          "name": "F#2",
          "midi": 42,
          "time": 56.85708599999995,
          "velocity": 0.7480314960629921,
          "duration": 0.2857139999999987
        },
        {
          "name": "A3",
          "midi": 57,
          "time": 57.14279999999995,
          "velocity": 0.7480314960629921,
          "duration": 0.2857139999999987
        },
        {
          "name": "E3",
          "midi": 52,
          "time": 57.14279999999995,
          "velocity": 0.7480314960629921,
          "duration": 0.2857139999999987
        },
        {
          "name": "A2",
          "midi": 45,
          "time": 57.14279999999995,
          "velocity": 0.7480314960629921,
          "duration": 0.2857139999999987
        },
        {
          "name": "A3",
          "midi": 57,
          "time": 57.42851399999995,
          "velocity": 0.7480314960629921,
          "duration": 0.2857139999999987
        },
        {
          "name": "E3",
          "midi": 52,
          "time": 57.42851399999995,
          "velocity": 0.7480314960629921,
          "duration": 0.2857139999999987
        },
        {
          "name": "A2",
          "midi": 45,
          "time": 57.42851399999995,
          "velocity": 0.7480314960629921,
          "duration": 0.2857139999999987
        },
        {
          "name": "A3",
          "midi": 57,
          "time": 57.71422799999995,
          "velocity": 0.7480314960629921,
          "duration": 0.2857139999999987
        },
        {
          "name": "E3",
          "midi": 52,
          "time": 57.71422799999995,
          "velocity": 0.7480314960629921,
          "duration": 0.2857139999999987
        },
        {
          "name": "A2",
          "midi": 45,
          "time": 57.71422799999995,
          "velocity": 0.7480314960629921,
          "duration": 0.2857139999999987
        },
        {
          "name": "A3",
          "midi": 57,
          "time": 57.99994199999995,
          "velocity": 0.7480314960629921,
          "duration": 0.2857139999999987
        },
        {
          "name": "E3",
          "midi": 52,
          "time": 57.99994199999995,
          "velocity": 0.7480314960629921,
          "duration": 0.2857139999999987
        },
        {
          "name": "A2",
          "midi": 45,
          "time": 57.99994199999995,
          "velocity": 0.7480314960629921,
          "duration": 0.2857139999999987
        },
        {
          "name": "A3",
          "midi": 57,
          "time": 58.285655999999946,
          "velocity": 0.7480314960629921,
          "duration": 0.2857139999999987
        },
        {
          "name": "E3",
          "midi": 52,
          "time": 58.285655999999946,
          "velocity": 0.7480314960629921,
          "duration": 0.2857139999999987
        },
        {
          "name": "A2",
          "midi": 45,
          "time": 58.285655999999946,
          "velocity": 0.7480314960629921,
          "duration": 0.2857139999999987
        },
        {
          "name": "A3",
          "midi": 57,
          "time": 58.571369999999945,
          "velocity": 0.7480314960629921,
          "duration": 0.2857139999999987
        },
        {
          "name": "E3",
          "midi": 52,
          "time": 58.571369999999945,
          "velocity": 0.7480314960629921,
          "duration": 0.2857139999999987
        },
        {
          "name": "A2",
          "midi": 45,
          "time": 58.571369999999945,
          "velocity": 0.7480314960629921,
          "duration": 0.2857139999999987
        },
        {
          "name": "A3",
          "midi": 57,
          "time": 58.857083999999944,
          "velocity": 0.7480314960629921,
          "duration": 0.2857139999999987
        },
        {
          "name": "E3",
          "midi": 52,
          "time": 58.857083999999944,
          "velocity": 0.7480314960629921,
          "duration": 0.2857139999999987
        },
        {
          "name": "A2",
          "midi": 45,
          "time": 58.857083999999944,
          "velocity": 0.7480314960629921,
          "duration": 0.2857139999999987
        },
        {
          "name": "A3",
          "midi": 57,
          "time": 59.14279799999994,
          "velocity": 0.7480314960629921,
          "duration": 0.2857139999999987
        },
        {
          "name": "E3",
          "midi": 52,
          "time": 59.14279799999994,
          "velocity": 0.7480314960629921,
          "duration": 0.2857139999999987
        },
        {
          "name": "A2",
          "midi": 45,
          "time": 59.14279799999994,
          "velocity": 0.7480314960629921,
          "duration": 0.2857139999999987
        },
        {
          "name": "E4",
          "midi": 64,
          "time": 59.42851199999994,
          "velocity": 0.7480314960629921,
          "duration": 0.2857139999999987
        },
        {
          "name": "B3",
          "midi": 59,
          "time": 59.42851199999994,
          "velocity": 0.7480314960629921,
          "duration": 0.2857139999999987
        },
        {
          "name": "E3",
          "midi": 52,
          "time": 59.42851199999994,
          "velocity": 0.7480314960629921,
          "duration": 0.2857139999999987
        },
        {
          "name": "E4",
          "midi": 64,
          "time": 59.71422599999994,
          "velocity": 0.7480314960629921,
          "duration": 0.2857139999999987
        },
        {
          "name": "B3",
          "midi": 59,
          "time": 59.71422599999994,
          "velocity": 0.7480314960629921,
          "duration": 0.2857139999999987
        },
        {
          "name": "E3",
          "midi": 52,
          "time": 59.71422599999994,
          "velocity": 0.7480314960629921,
          "duration": 0.2857139999999987
        },
        {
          "name": "E4",
          "midi": 64,
          "time": 59.99993999999994,
          "velocity": 0.7480314960629921,
          "duration": 0.2857139999999987
        },
        {
          "name": "B3",
          "midi": 59,
          "time": 59.99993999999994,
          "velocity": 0.7480314960629921,
          "duration": 0.2857139999999987
        },
        {
          "name": "E3",
          "midi": 52,
          "time": 59.99993999999994,
          "velocity": 0.7480314960629921,
          "duration": 0.2857139999999987
        },
        {
          "name": "E4",
          "midi": 64,
          "time": 60.28565399999994,
          "velocity": 0.7480314960629921,
          "duration": 0.2857139999999987
        },
        {
          "name": "B3",
          "midi": 59,
          "time": 60.28565399999994,
          "velocity": 0.7480314960629921,
          "duration": 0.2857139999999987
        },
        {
          "name": "E3",
          "midi": 52,
          "time": 60.28565399999994,
          "velocity": 0.7480314960629921,
          "duration": 0.2857139999999987
        },
        {
          "name": "E4",
          "midi": 64,
          "time": 60.571367999999936,
          "velocity": 0.7480314960629921,
          "duration": 0.2857139999999987
        },
        {
          "name": "B3",
          "midi": 59,
          "time": 60.571367999999936,
          "velocity": 0.7480314960629921,
          "duration": 0.2857139999999987
        },
        {
          "name": "E3",
          "midi": 52,
          "time": 60.571367999999936,
          "velocity": 0.7480314960629921,
          "duration": 0.2857139999999987
        },
        {
          "name": "E4",
          "midi": 64,
          "time": 60.857081999999934,
          "velocity": 0.7480314960629921,
          "duration": 0.2857139999999987
        },
        {
          "name": "B3",
          "midi": 59,
          "time": 60.857081999999934,
          "velocity": 0.7480314960629921,
          "duration": 0.2857139999999987
        },
        {
          "name": "E3",
          "midi": 52,
          "time": 60.857081999999934,
          "velocity": 0.7480314960629921,
          "duration": 0.2857139999999987
        },
        {
          "name": "E4",
          "midi": 64,
          "time": 61.14279599999993,
          "velocity": 0.7480314960629921,
          "duration": 0.2857139999999987
        },
        {
          "name": "B3",
          "midi": 59,
          "time": 61.14279599999993,
          "velocity": 0.7480314960629921,
          "duration": 0.2857139999999987
        },
        {
          "name": "E3",
          "midi": 52,
          "time": 61.14279599999993,
          "velocity": 0.7480314960629921,
          "duration": 0.2857139999999987
        },
        {
          "name": "E4",
          "midi": 64,
          "time": 61.42850999999993,
          "velocity": 0.7480314960629921,
          "duration": 0.2857139999999987
        },
        {
          "name": "B3",
          "midi": 59,
          "time": 61.42850999999993,
          "velocity": 0.7480314960629921,
          "duration": 0.2857139999999987
        },
        {
          "name": "E3",
          "midi": 52,
          "time": 61.42850999999993,
          "velocity": 0.7480314960629921,
          "duration": 0.2857139999999987
        },
        {
          "name": "C#4",
          "midi": 61,
          "time": 61.71422399999993,
          "velocity": 0.7480314960629921,
          "duration": 0.2857139999999987
        },
        {
          "name": "G#3",
          "midi": 56,
          "time": 61.71422399999993,
          "velocity": 0.7480314960629921,
          "duration": 0.2857139999999987
        },
        {
          "name": "C#3",
          "midi": 49,
          "time": 61.71422399999993,
          "velocity": 0.7480314960629921,
          "duration": 0.2857139999999987
        },
        {
          "name": "C#4",
          "midi": 61,
          "time": 61.99993799999993,
          "velocity": 0.7480314960629921,
          "duration": 0.2857139999999987
        },
        {
          "name": "G#3",
          "midi": 56,
          "time": 61.99993799999993,
          "velocity": 0.7480314960629921,
          "duration": 0.2857139999999987
        },
        {
          "name": "C#3",
          "midi": 49,
          "time": 61.99993799999993,
          "velocity": 0.7480314960629921,
          "duration": 0.2857139999999987
        },
        {
          "name": "C#4",
          "midi": 61,
          "time": 62.28565199999993,
          "velocity": 0.7480314960629921,
          "duration": 0.2857139999999987
        },
        {
          "name": "G#3",
          "midi": 56,
          "time": 62.28565199999993,
          "velocity": 0.7480314960629921,
          "duration": 0.2857139999999987
        },
        {
          "name": "C#3",
          "midi": 49,
          "time": 62.28565199999993,
          "velocity": 0.7480314960629921,
          "duration": 0.2857139999999987
        },
        {
          "name": "C#4",
          "midi": 61,
          "time": 62.57136599999993,
          "velocity": 0.7480314960629921,
          "duration": 0.2857139999999987
        },
        {
          "name": "G#3",
          "midi": 56,
          "time": 62.57136599999993,
          "velocity": 0.7480314960629921,
          "duration": 0.2857139999999987
        },
        {
          "name": "C#3",
          "midi": 49,
          "time": 62.57136599999993,
          "velocity": 0.7480314960629921,
          "duration": 0.2857139999999987
        },
        {
          "name": "C#4",
          "midi": 61,
          "time": 62.857079999999925,
          "velocity": 0.7480314960629921,
          "duration": 0.2857139999999987
        },
        {
          "name": "G#3",
          "midi": 56,
          "time": 62.857079999999925,
          "velocity": 0.7480314960629921,
          "duration": 0.2857139999999987
        },
        {
          "name": "C#3",
          "midi": 49,
          "time": 62.857079999999925,
          "velocity": 0.7480314960629921,
          "duration": 0.2857139999999987
        },
        {
          "name": "C#4",
          "midi": 61,
          "time": 63.142793999999924,
          "velocity": 0.7480314960629921,
          "duration": 0.2857139999999987
        },
        {
          "name": "G#3",
          "midi": 56,
          "time": 63.142793999999924,
          "velocity": 0.7480314960629921,
          "duration": 0.2857139999999987
        },
        {
          "name": "C#3",
          "midi": 49,
          "time": 63.142793999999924,
          "velocity": 0.7480314960629921,
          "duration": 0.2857139999999987
        },
        {
          "name": "C#4",
          "midi": 61,
          "time": 63.42850799999992,
          "velocity": 0.7480314960629921,
          "duration": 0.2857139999999987
        },
        {
          "name": "G#3",
          "midi": 56,
          "time": 63.42850799999992,
          "velocity": 0.7480314960629921,
          "duration": 0.2857139999999987
        },
        {
          "name": "C#3",
          "midi": 49,
          "time": 63.42850799999992,
          "velocity": 0.7480314960629921,
          "duration": 0.2857139999999987
        },
        {
          "name": "C#4",
          "midi": 61,
          "time": 63.71422199999992,
          "velocity": 0.7480314960629921,
          "duration": 0.2857139999999987
        },
        {
          "name": "G#3",
          "midi": 56,
          "time": 63.71422199999992,
          "velocity": 0.7480314960629921,
          "duration": 0.2857139999999987
        },
        {
          "name": "C#3",
          "midi": 49,
          "time": 63.71422199999992,
          "velocity": 0.7480314960629921,
          "duration": 0.2857139999999987
        },
        {
          "name": "C#4",
          "midi": 61,
          "time": 63.99993599999992,
          "velocity": 0.7480314960629921,
          "duration": 0.5714279999999974
        },
        {
          "name": "A3",
          "midi": 57,
          "time": 64.57136399999992,
          "velocity": 0.7480314960629921,
          "duration": 0.8571419999999961
        },
        {
          "name": "B3",
          "midi": 59,
          "time": 65.42850599999991,
          "velocity": 0.7480314960629921,
          "duration": 0.14285700000000645
        },
        {
          "name": "B3",
          "midi": 59,
          "time": 65.57136299999992,
          "velocity": 0.7480314960629921,
          "duration": 0.14285700000000645
        },
        {
          "name": "B3",
          "midi": 59,
          "time": 65.71421999999993,
          "velocity": 0.7480314960629921,
          "duration": 0.2857139999999987
        },
        {
          "name": "B3",
          "midi": 59,
          "time": 65.99993399999993,
          "velocity": 0.7480314960629921,
          "duration": 0.14285700000000645
        },
        {
          "name": "B3",
          "midi": 59,
          "time": 66.14279099999993,
          "velocity": 0.7480314960629921,
          "duration": 0.14285700000000645
        },
        {
          "name": "B3",
          "midi": 59,
          "time": 66.28564799999994,
          "velocity": 0.7480314960629921,
          "duration": 0.2857139999999987
        },
        {
          "name": "A3",
          "midi": 57,
          "time": 66.57136199999994,
          "velocity": 0.7480314960629921,
          "duration": 0.2857139999999987
        },
        {
          "name": "F#3",
          "midi": 54,
          "time": 66.85707599999994,
          "velocity": 0.7480314960629921,
          "duration": 0.8571419999999961
        },
        {
          "name": "F#3",
          "midi": 54,
          "time": 67.71421799999993,
          "velocity": 0.7480314960629921,
          "duration": 0.14285700000000645
        },
        {
          "name": "F#3",
          "midi": 54,
          "time": 67.85707499999994,
          "velocity": 0.7480314960629921,
          "duration": 0.14285700000000645
        },
        {
          "name": "F#3",
          "midi": 54,
          "time": 67.99993199999994,
          "velocity": 0.7480314960629921,
          "duration": 0.2857139999999987
        },
        {
          "name": "E3",
          "midi": 52,
          "time": 68.28564599999994,
          "velocity": 0.7480314960629921,
          "duration": 0.14285700000000645
        },
        {
          "name": "F#3",
          "midi": 54,
          "time": 68.42850299999995,
          "velocity": 0.7480314960629921,
          "duration": 0.14285700000000645
        },
        {
          "name": "F#3",
          "midi": 54,
          "time": 68.57135999999996,
          "velocity": 0.7480314960629921,
          "duration": 0.19047600000000386
        },
        {
          "name": "E3",
          "midi": 52,
          "time": 68.76183599999996,
          "velocity": 0.7480314960629921,
          "duration": 0.19047600000000386
        },
        {
          "name": "F#3",
          "midi": 54,
          "time": 68.95231199999996,
          "velocity": 0.7480314960629921,
          "duration": 0.19047600000000386
        },
        {
          "name": "A3",
          "midi": 57,
          "time": 69.14278799999997,
          "velocity": 0.7480314960629921,
          "duration": 0.19047600000000386
        },
        {
          "name": "B3",
          "midi": 59,
          "time": 69.33326399999997,
          "velocity": 0.7480314960629921,
          "duration": 0.19047600000000386
        },
        {
          "name": "A3",
          "midi": 57,
          "time": 69.52373999999998,
          "velocity": 0.7480314960629921,
          "duration": 0.19047600000000386
        },
        {
          "name": "C#4",
          "midi": 61,
          "time": 69.71421599999998,
          "velocity": 0.7480314960629921,
          "duration": 0.19047600000000386
        },
        {
          "name": "E4",
          "midi": 64,
          "time": 69.90469199999998,
          "velocity": 0.7480314960629921,
          "duration": 0.19047600000000386
        },
        {
          "name": "C#4",
          "midi": 61,
          "time": 70.09516799999999,
          "velocity": 0.7480314960629921,
          "duration": 0.19047600000000386
        },
        {
          "name": "E4",
          "midi": 64,
          "time": 70.28564399999999,
          "velocity": 0.7480314960629921,
          "duration": 0.19047600000000386
        },
        {
          "name": "C#4",
          "midi": 61,
          "time": 70.47612,
          "velocity": 0.7480314960629921,
          "duration": 0.19047600000000386
        },
        {
          "name": "E4",
          "midi": 64,
          "time": 70.666596,
          "velocity": 0.7480314960629921,
          "duration": 0.19047600000000386
        },
        {
          "name": "F#4",
          "midi": 66,
          "time": 70.857072,
          "velocity": 0.7480314960629921,
          "duration": 0.19047600000000386
        },
        {
          "name": "A4",
          "midi": 69,
          "time": 71.047548,
          "velocity": 0.7480314960629921,
          "duration": 0.19047600000000386
        },
        {
          "name": "F#4",
          "midi": 66,
          "time": 71.23802400000001,
          "velocity": 0.7480314960629921,
          "duration": 0.19047600000000386
        },
        {
          "name": "A4",
          "midi": 69,
          "time": 71.42850000000001,
          "velocity": 0.7480314960629921,
          "duration": 0.19047600000000386
        },
        {
          "name": "B4",
          "midi": 71,
          "time": 71.61897600000002,
          "velocity": 0.7480314960629921,
          "duration": 0.19047600000000386
        },
        {
          "name": "A4",
          "midi": 69,
          "time": 71.80945200000002,
          "velocity": 0.7480314960629921,
          "duration": 0.19047600000000386
        },
        {
          "name": "B4",
          "midi": 71,
          "time": 71.99992800000003,
          "velocity": 0.7480314960629921,
          "duration": 0.19047600000000386
        },
        {
          "name": "B4",
          "midi": 71,
          "time": 72.19040400000003,
          "velocity": 0.7480314960629921,
          "duration": 0.19047600000000386
        },
        {
          "name": "B4",
          "midi": 71,
          "time": 72.38088000000003,
          "velocity": 0.7480314960629921,
          "duration": 0.19047600000000386
        },
        {
          "name": "B4",
          "midi": 71,
          "time": 72.57135600000004,
          "velocity": 0.7480314960629921,
          "duration": 0.57142800000004
        },
        {
          "name": "F#3",
          "midi": 54,
          "time": 91.42848000000008,
          "velocity": 0.7480314960629921,
          "duration": 0.2857139999999987
        },
        {
          "name": "C#3",
          "midi": 49,
          "time": 91.42848000000008,
          "velocity": 0.7480314960629921,
          "duration": 0.2857139999999987
        },
        {
          "name": "F#2",
          "midi": 42,
          "time": 91.42848000000008,
          "velocity": 0.7480314960629921,
          "duration": 0.2857139999999987
        },
        {
          "name": "F#3",
          "midi": 54,
          "time": 91.71419400000008,
          "velocity": 0.7480314960629921,
          "duration": 0.2857139999999987
        },
        {
          "name": "C#3",
          "midi": 49,
          "time": 91.71419400000008,
          "velocity": 0.7480314960629921,
          "duration": 0.2857139999999987
        },
        {
          "name": "F#2",
          "midi": 42,
          "time": 91.71419400000008,
          "velocity": 0.7480314960629921,
          "duration": 0.2857139999999987
        },
        {
          "name": "F#3",
          "midi": 54,
          "time": 91.99990800000008,
          "velocity": 0.7480314960629921,
          "duration": 0.2857139999999987
        },
        {
          "name": "C#3",
          "midi": 49,
          "time": 91.99990800000008,
          "velocity": 0.7480314960629921,
          "duration": 0.2857139999999987
        },
        {
          "name": "F#2",
          "midi": 42,
          "time": 91.99990800000008,
          "velocity": 0.7480314960629921,
          "duration": 0.2857139999999987
        },
        {
          "name": "F#3",
          "midi": 54,
          "time": 92.28562200000007,
          "velocity": 0.7480314960629921,
          "duration": 0.2857139999999987
        },
        {
          "name": "C#3",
          "midi": 49,
          "time": 92.28562200000007,
          "velocity": 0.7480314960629921,
          "duration": 0.2857139999999987
        },
        {
          "name": "F#2",
          "midi": 42,
          "time": 92.28562200000007,
          "velocity": 0.7480314960629921,
          "duration": 0.2857139999999987
        },
        {
          "name": "F#3",
          "midi": 54,
          "time": 92.57133600000007,
          "velocity": 0.7480314960629921,
          "duration": 0.2857139999999987
        },
        {
          "name": "C#3",
          "midi": 49,
          "time": 92.57133600000007,
          "velocity": 0.7480314960629921,
          "duration": 0.2857139999999987
        },
        {
          "name": "F#2",
          "midi": 42,
          "time": 92.57133600000007,
          "velocity": 0.7480314960629921,
          "duration": 0.2857139999999987
        },
        {
          "name": "F#3",
          "midi": 54,
          "time": 92.85705000000007,
          "velocity": 0.7480314960629921,
          "duration": 0.2857139999999987
        },
        {
          "name": "C#3",
          "midi": 49,
          "time": 92.85705000000007,
          "velocity": 0.7480314960629921,
          "duration": 0.2857139999999987
        },
        {
          "name": "F#2",
          "midi": 42,
          "time": 92.85705000000007,
          "velocity": 0.7480314960629921,
          "duration": 0.2857139999999987
        },
        {
          "name": "F#3",
          "midi": 54,
          "time": 93.14276400000007,
          "velocity": 0.7480314960629921,
          "duration": 0.2857139999999987
        },
        {
          "name": "C#3",
          "midi": 49,
          "time": 93.14276400000007,
          "velocity": 0.7480314960629921,
          "duration": 0.2857139999999987
        },
        {
          "name": "F#2",
          "midi": 42,
          "time": 93.14276400000007,
          "velocity": 0.7480314960629921,
          "duration": 0.2857139999999987
        },
        {
          "name": "F#3",
          "midi": 54,
          "time": 93.42847800000007,
          "velocity": 0.7480314960629921,
          "duration": 0.2857139999999987
        },
        {
          "name": "C#3",
          "midi": 49,
          "time": 93.42847800000007,
          "velocity": 0.7480314960629921,
          "duration": 0.2857139999999987
        },
        {
          "name": "F#2",
          "midi": 42,
          "time": 93.42847800000007,
          "velocity": 0.7480314960629921,
          "duration": 0.2857139999999987
        },
        {
          "name": "A3",
          "midi": 57,
          "time": 93.71419200000007,
          "velocity": 0.7480314960629921,
          "duration": 0.2857139999999987
        },
        {
          "name": "E3",
          "midi": 52,
          "time": 93.71419200000007,
          "velocity": 0.7480314960629921,
          "duration": 0.2857139999999987
        },
        {
          "name": "A2",
          "midi": 45,
          "time": 93.71419200000007,
          "velocity": 0.7480314960629921,
          "duration": 0.2857139999999987
        },
        {
          "name": "A3",
          "midi": 57,
          "time": 93.99990600000007,
          "velocity": 0.7480314960629921,
          "duration": 0.2857139999999987
        },
        {
          "name": "E3",
          "midi": 52,
          "time": 93.99990600000007,
          "velocity": 0.7480314960629921,
          "duration": 0.2857139999999987
        },
        {
          "name": "A2",
          "midi": 45,
          "time": 93.99990600000007,
          "velocity": 0.7480314960629921,
          "duration": 0.2857139999999987
        },
        {
          "name": "A3",
          "midi": 57,
          "time": 94.28562000000007,
          "velocity": 0.7480314960629921,
          "duration": 0.2857139999999987
        },
        {
          "name": "E3",
          "midi": 52,
          "time": 94.28562000000007,
          "velocity": 0.7480314960629921,
          "duration": 0.2857139999999987
        },
        {
          "name": "A2",
          "midi": 45,
          "time": 94.28562000000007,
          "velocity": 0.7480314960629921,
          "duration": 0.2857139999999987
        },
        {
          "name": "A3",
          "midi": 57,
          "time": 94.57133400000006,
          "velocity": 0.7480314960629921,
          "duration": 0.2857139999999987
        },
        {
          "name": "E3",
          "midi": 52,
          "time": 94.57133400000006,
          "velocity": 0.7480314960629921,
          "duration": 0.2857139999999987
        },
        {
          "name": "A2",
          "midi": 45,
          "time": 94.57133400000006,
          "velocity": 0.7480314960629921,
          "duration": 0.2857139999999987
        },
        {
          "name": "A3",
          "midi": 57,
          "time": 94.85704800000006,
          "velocity": 0.7480314960629921,
          "duration": 0.2857139999999987
        },
        {
          "name": "E3",
          "midi": 52,
          "time": 94.85704800000006,
          "velocity": 0.7480314960629921,
          "duration": 0.2857139999999987
        },
        {
          "name": "A2",
          "midi": 45,
          "time": 94.85704800000006,
          "velocity": 0.7480314960629921,
          "duration": 0.2857139999999987
        },
        {
          "name": "A3",
          "midi": 57,
          "time": 95.14276200000006,
          "velocity": 0.7480314960629921,
          "duration": 0.2857139999999987
        },
        {
          "name": "E3",
          "midi": 52,
          "time": 95.14276200000006,
          "velocity": 0.7480314960629921,
          "duration": 0.2857139999999987
        },
        {
          "name": "A2",
          "midi": 45,
          "time": 95.14276200000006,
          "velocity": 0.7480314960629921,
          "duration": 0.2857139999999987
        },
        {
          "name": "A3",
          "midi": 57,
          "time": 95.42847600000006,
          "velocity": 0.7480314960629921,
          "duration": 0.2857139999999987
        },
        {
          "name": "E3",
          "midi": 52,
          "time": 95.42847600000006,
          "velocity": 0.7480314960629921,
          "duration": 0.2857139999999987
        },
        {
          "name": "A2",
          "midi": 45,
          "time": 95.42847600000006,
          "velocity": 0.7480314960629921,
          "duration": 0.2857139999999987
        },
        {
          "name": "A3",
          "midi": 57,
          "time": 95.71419000000006,
          "velocity": 0.7480314960629921,
          "duration": 0.2857139999999987
        },
        {
          "name": "E3",
          "midi": 52,
          "time": 95.71419000000006,
          "velocity": 0.7480314960629921,
          "duration": 0.2857139999999987
        },
        {
          "name": "A2",
          "midi": 45,
          "time": 95.71419000000006,
          "velocity": 0.7480314960629921,
          "duration": 0.2857139999999987
        },
        {
          "name": "E4",
          "midi": 64,
          "time": 95.99990400000006,
          "velocity": 0.7480314960629921,
          "duration": 0.2857139999999987
        },
        {
          "name": "B3",
          "midi": 59,
          "time": 95.99990400000006,
          "velocity": 0.7480314960629921,
          "duration": 0.2857139999999987
        },
        {
          "name": "E3",
          "midi": 52,
          "time": 95.99990400000006,
          "velocity": 0.7480314960629921,
          "duration": 0.2857139999999987
        },
        {
          "name": "E4",
          "midi": 64,
          "time": 96.28561800000006,
          "velocity": 0.7480314960629921,
          "duration": 0.2857139999999987
        },
        {
          "name": "B3",
          "midi": 59,
          "time": 96.28561800000006,
          "velocity": 0.7480314960629921,
          "duration": 0.2857139999999987
        },
        {
          "name": "E3",
          "midi": 52,
          "time": 96.28561800000006,
          "velocity": 0.7480314960629921,
          "duration": 0.2857139999999987
        },
        {
          "name": "E4",
          "midi": 64,
          "time": 96.57133200000006,
          "velocity": 0.7480314960629921,
          "duration": 0.2857139999999987
        },
        {
          "name": "B3",
          "midi": 59,
          "time": 96.57133200000006,
          "velocity": 0.7480314960629921,
          "duration": 0.2857139999999987
        },
        {
          "name": "E3",
          "midi": 52,
          "time": 96.57133200000006,
          "velocity": 0.7480314960629921,
          "duration": 0.2857139999999987
        },
        {
          "name": "E4",
          "midi": 64,
          "time": 96.85704600000005,
          "velocity": 0.7480314960629921,
          "duration": 0.2857139999999987
        },
        {
          "name": "B3",
          "midi": 59,
          "time": 96.85704600000005,
          "velocity": 0.7480314960629921,
          "duration": 0.2857139999999987
        },
        {
          "name": "E3",
          "midi": 52,
          "time": 96.85704600000005,
          "velocity": 0.7480314960629921,
          "duration": 0.2857139999999987
        },
        {
          "name": "E4",
          "midi": 64,
          "time": 97.14276000000005,
          "velocity": 0.7480314960629921,
          "duration": 0.2857139999999987
        },
        {
          "name": "B3",
          "midi": 59,
          "time": 97.14276000000005,
          "velocity": 0.7480314960629921,
          "duration": 0.2857139999999987
        },
        {
          "name": "E3",
          "midi": 52,
          "time": 97.14276000000005,
          "velocity": 0.7480314960629921,
          "duration": 0.2857139999999987
        },
        {
          "name": "E4",
          "midi": 64,
          "time": 97.42847400000005,
          "velocity": 0.7480314960629921,
          "duration": 0.2857139999999987
        },
        {
          "name": "B3",
          "midi": 59,
          "time": 97.42847400000005,
          "velocity": 0.7480314960629921,
          "duration": 0.2857139999999987
        },
        {
          "name": "E3",
          "midi": 52,
          "time": 97.42847400000005,
          "velocity": 0.7480314960629921,
          "duration": 0.2857139999999987
        },
        {
          "name": "E4",
          "midi": 64,
          "time": 97.71418800000005,
          "velocity": 0.7480314960629921,
          "duration": 0.2857139999999987
        },
        {
          "name": "B3",
          "midi": 59,
          "time": 97.71418800000005,
          "velocity": 0.7480314960629921,
          "duration": 0.2857139999999987
        },
        {
          "name": "E3",
          "midi": 52,
          "time": 97.71418800000005,
          "velocity": 0.7480314960629921,
          "duration": 0.2857139999999987
        },
        {
          "name": "E4",
          "midi": 64,
          "time": 97.99990200000005,
          "velocity": 0.7480314960629921,
          "duration": 0.2857139999999987
        },
        {
          "name": "B3",
          "midi": 59,
          "time": 97.99990200000005,
          "velocity": 0.7480314960629921,
          "duration": 0.2857139999999987
        },
        {
          "name": "E3",
          "midi": 52,
          "time": 97.99990200000005,
          "velocity": 0.7480314960629921,
          "duration": 0.2857139999999987
        },
        {
          "name": "F#3",
          "midi": 54,
          "time": 98.28561600000005,
          "velocity": 0.7480314960629921,
          "duration": 0.2857139999999987
        },
        {
          "name": "C#3",
          "midi": 49,
          "time": 98.28561600000005,
          "velocity": 0.7480314960629921,
          "duration": 0.2857139999999987
        },
        {
          "name": "F#2",
          "midi": 42,
          "time": 98.28561600000005,
          "velocity": 0.7480314960629921,
          "duration": 0.2857139999999987
        },
        {
          "name": "F#3",
          "midi": 54,
          "time": 98.57133000000005,
          "velocity": 0.7480314960629921,
          "duration": 0.2857139999999987
        },
        {
          "name": "C#3",
          "midi": 49,
          "time": 98.57133000000005,
          "velocity": 0.7480314960629921,
          "duration": 0.2857139999999987
        },
        {
          "name": "F#2",
          "midi": 42,
          "time": 98.57133000000005,
          "velocity": 0.7480314960629921,
          "duration": 0.2857139999999987
        },
        {
          "name": "F#3",
          "midi": 54,
          "time": 98.85704400000004,
          "velocity": 0.7480314960629921,
          "duration": 0.2857139999999987
        },
        {
          "name": "C#3",
          "midi": 49,
          "time": 98.85704400000004,
          "velocity": 0.7480314960629921,
          "duration": 0.2857139999999987
        },
        {
          "name": "F#2",
          "midi": 42,
          "time": 98.85704400000004,
          "velocity": 0.7480314960629921,
          "duration": 0.2857139999999987
        },
        {
          "name": "F#3",
          "midi": 54,
          "time": 99.14275800000004,
          "velocity": 0.7480314960629921,
          "duration": 0.2857139999999987
        },
        {
          "name": "C#3",
          "midi": 49,
          "time": 99.14275800000004,
          "velocity": 0.7480314960629921,
          "duration": 0.2857139999999987
        },
        {
          "name": "F#2",
          "midi": 42,
          "time": 99.14275800000004,
          "velocity": 0.7480314960629921,
          "duration": 0.2857139999999987
        },
        {
          "name": "F#3",
          "midi": 54,
          "time": 99.42847200000004,
          "velocity": 0.7480314960629921,
          "duration": 0.2857139999999987
        },
        {
          "name": "C#3",
          "midi": 49,
          "time": 99.42847200000004,
          "velocity": 0.7480314960629921,
          "duration": 0.2857139999999987
        },
        {
          "name": "F#2",
          "midi": 42,
          "time": 99.42847200000004,
          "velocity": 0.7480314960629921,
          "duration": 0.2857139999999987
        },
        {
          "name": "F#3",
          "midi": 54,
          "time": 99.71418600000004,
          "velocity": 0.7480314960629921,
          "duration": 0.2857139999999987
        },
        {
          "name": "C#3",
          "midi": 49,
          "time": 99.71418600000004,
          "velocity": 0.7480314960629921,
          "duration": 0.2857139999999987
        },
        {
          "name": "F#2",
          "midi": 42,
          "time": 99.71418600000004,
          "velocity": 0.7480314960629921,
          "duration": 0.2857139999999987
        },
        {
          "name": "F#3",
          "midi": 54,
          "time": 99.99990000000004,
          "velocity": 0.7480314960629921,
          "duration": 0.2857139999999987
        },
        {
          "name": "C#3",
          "midi": 49,
          "time": 99.99990000000004,
          "velocity": 0.7480314960629921,
          "duration": 0.2857139999999987
        },
        {
          "name": "F#2",
          "midi": 42,
          "time": 99.99990000000004,
          "velocity": 0.7480314960629921,
          "duration": 0.2857139999999987
        },
        {
          "name": "F#3",
          "midi": 54,
          "time": 100.28561400000004,
          "velocity": 0.7480314960629921,
          "duration": 0.2857139999999987
        },
        {
          "name": "C#3",
          "midi": 49,
          "time": 100.28561400000004,
          "velocity": 0.7480314960629921,
          "duration": 0.2857139999999987
        },
        {
          "name": "F#2",
          "midi": 42,
          "time": 100.28561400000004,
          "velocity": 0.7480314960629921,
          "duration": 0.2857139999999987
        },
        {
          "name": "F#3",
          "midi": 54,
          "time": 100.57132800000004,
          "velocity": 0.7480314960629921,
          "duration": 0.2857139999999987
        },
        {
          "name": "C#3",
          "midi": 49,
          "time": 100.57132800000004,
          "velocity": 0.7480314960629921,
          "duration": 0.2857139999999987
        },
        {
          "name": "F#2",
          "midi": 42,
          "time": 100.57132800000004,
          "velocity": 0.7480314960629921,
          "duration": 0.2857139999999987
        },
        {
          "name": "F#3",
          "midi": 54,
          "time": 100.85704200000004,
          "velocity": 0.7480314960629921,
          "duration": 0.2857139999999987
        },
        {
          "name": "C#3",
          "midi": 49,
          "time": 100.85704200000004,
          "velocity": 0.7480314960629921,
          "duration": 0.2857139999999987
        },
        {
          "name": "F#2",
          "midi": 42,
          "time": 100.85704200000004,
          "velocity": 0.7480314960629921,
          "duration": 0.2857139999999987
        },
        {
          "name": "F#3",
          "midi": 54,
          "time": 101.14275600000003,
          "velocity": 0.7480314960629921,
          "duration": 0.2857139999999987
        },
        {
          "name": "C#3",
          "midi": 49,
          "time": 101.14275600000003,
          "velocity": 0.7480314960629921,
          "duration": 0.2857139999999987
        },
        {
          "name": "F#2",
          "midi": 42,
          "time": 101.14275600000003,
          "velocity": 0.7480314960629921,
          "duration": 0.2857139999999987
        },
        {
          "name": "F#3",
          "midi": 54,
          "time": 101.42847000000003,
          "velocity": 0.7480314960629921,
          "duration": 0.2857139999999987
        },
        {
          "name": "C#3",
          "midi": 49,
          "time": 101.42847000000003,
          "velocity": 0.7480314960629921,
          "duration": 0.2857139999999987
        },
        {
          "name": "F#2",
          "midi": 42,
          "time": 101.42847000000003,
          "velocity": 0.7480314960629921,
          "duration": 0.2857139999999987
        },
        {
          "name": "F#3",
          "midi": 54,
          "time": 101.71418400000003,
          "velocity": 0.7480314960629921,
          "duration": 0.2857139999999987
        },
        {
          "name": "C#3",
          "midi": 49,
          "time": 101.71418400000003,
          "velocity": 0.7480314960629921,
          "duration": 0.2857139999999987
        },
        {
          "name": "F#2",
          "midi": 42,
          "time": 101.71418400000003,
          "velocity": 0.7480314960629921,
          "duration": 0.2857139999999987
        },
        {
          "name": "F#3",
          "midi": 54,
          "time": 101.99989800000003,
          "velocity": 0.7480314960629921,
          "duration": 0.2857139999999987
        },
        {
          "name": "C#3",
          "midi": 49,
          "time": 101.99989800000003,
          "velocity": 0.7480314960629921,
          "duration": 0.2857139999999987
        },
        {
          "name": "F#2",
          "midi": 42,
          "time": 101.99989800000003,
          "velocity": 0.7480314960629921,
          "duration": 0.2857139999999987
        },
        {
          "name": "F#3",
          "midi": 54,
          "time": 102.28561200000003,
          "velocity": 0.7480314960629921,
          "duration": 0.2857139999999987
        },
        {
          "name": "C#3",
          "midi": 49,
          "time": 102.28561200000003,
          "velocity": 0.7480314960629921,
          "duration": 0.2857139999999987
        },
        {
          "name": "F#2",
          "midi": 42,
          "time": 102.28561200000003,
          "velocity": 0.7480314960629921,
          "duration": 0.2857139999999987
        },
        {
          "name": "F#3",
          "midi": 54,
          "time": 102.57132600000003,
          "velocity": 0.7480314960629921,
          "duration": 0.2857139999999987
        },
        {
          "name": "C#3",
          "midi": 49,
          "time": 102.57132600000003,
          "velocity": 0.7480314960629921,
          "duration": 0.2857139999999987
        },
        {
          "name": "F#2",
          "midi": 42,
          "time": 102.57132600000003,
          "velocity": 0.7480314960629921,
          "duration": 0.2857139999999987
        },
        {
          "name": "A3",
          "midi": 57,
          "time": 102.85704000000003,
          "velocity": 0.7480314960629921,
          "duration": 0.2857139999999987
        },
        {
          "name": "E3",
          "midi": 52,
          "time": 102.85704000000003,
          "velocity": 0.7480314960629921,
          "duration": 0.2857139999999987
        },
        {
          "name": "A2",
          "midi": 45,
          "time": 102.85704000000003,
          "velocity": 0.7480314960629921,
          "duration": 0.2857139999999987
        },
        {
          "name": "A3",
          "midi": 57,
          "time": 103.14275400000002,
          "velocity": 0.7480314960629921,
          "duration": 0.2857139999999987
        },
        {
          "name": "E3",
          "midi": 52,
          "time": 103.14275400000002,
          "velocity": 0.7480314960629921,
          "duration": 0.2857139999999987
        },
        {
          "name": "A2",
          "midi": 45,
          "time": 103.14275400000002,
          "velocity": 0.7480314960629921,
          "duration": 0.2857139999999987
        },
        {
          "name": "A3",
          "midi": 57,
          "time": 103.42846800000002,
          "velocity": 0.7480314960629921,
          "duration": 0.2857139999999987
        },
        {
          "name": "E3",
          "midi": 52,
          "time": 103.42846800000002,
          "velocity": 0.7480314960629921,
          "duration": 0.2857139999999987
        },
        {
          "name": "A2",
          "midi": 45,
          "time": 103.42846800000002,
          "velocity": 0.7480314960629921,
          "duration": 0.2857139999999987
        },
        {
          "name": "A3",
          "midi": 57,
          "time": 103.71418200000002,
          "velocity": 0.7480314960629921,
          "duration": 0.2857139999999987
        },
        {
          "name": "E3",
          "midi": 52,
          "time": 103.71418200000002,
          "velocity": 0.7480314960629921,
          "duration": 0.2857139999999987
        },
        {
          "name": "A2",
          "midi": 45,
          "time": 103.71418200000002,
          "velocity": 0.7480314960629921,
          "duration": 0.2857139999999987
        },
        {
          "name": "A3",
          "midi": 57,
          "time": 103.99989600000002,
          "velocity": 0.7480314960629921,
          "duration": 0.2857139999999987
        },
        {
          "name": "E3",
          "midi": 52,
          "time": 103.99989600000002,
          "velocity": 0.7480314960629921,
          "duration": 0.2857139999999987
        },
        {
          "name": "A2",
          "midi": 45,
          "time": 103.99989600000002,
          "velocity": 0.7480314960629921,
          "duration": 0.2857139999999987
        },
        {
          "name": "A3",
          "midi": 57,
          "time": 104.28561000000002,
          "velocity": 0.7480314960629921,
          "duration": 0.2857139999999987
        },
        {
          "name": "E3",
          "midi": 52,
          "time": 104.28561000000002,
          "velocity": 0.7480314960629921,
          "duration": 0.2857139999999987
        },
        {
          "name": "A2",
          "midi": 45,
          "time": 104.28561000000002,
          "velocity": 0.7480314960629921,
          "duration": 0.2857139999999987
        },
        {
          "name": "A3",
          "midi": 57,
          "time": 104.57132400000002,
          "velocity": 0.7480314960629921,
          "duration": 0.2857139999999987
        },
        {
          "name": "E3",
          "midi": 52,
          "time": 104.57132400000002,
          "velocity": 0.7480314960629921,
          "duration": 0.2857139999999987
        },
        {
          "name": "A2",
          "midi": 45,
          "time": 104.57132400000002,
          "velocity": 0.7480314960629921,
          "duration": 0.2857139999999987
        },
        {
          "name": "A3",
          "midi": 57,
          "time": 104.85703800000002,
          "velocity": 0.7480314960629921,
          "duration": 0.2857139999999987
        },
        {
          "name": "E3",
          "midi": 52,
          "time": 104.85703800000002,
          "velocity": 0.7480314960629921,
          "duration": 0.2857139999999987
        },
        {
          "name": "A2",
          "midi": 45,
          "time": 104.85703800000002,
          "velocity": 0.7480314960629921,
          "duration": 0.2857139999999987
        },
        {
          "name": "E4",
          "midi": 64,
          "time": 105.14275200000002,
          "velocity": 0.7480314960629921,
          "duration": 0.2857139999999987
        },
        {
          "name": "B3",
          "midi": 59,
          "time": 105.14275200000002,
          "velocity": 0.7480314960629921,
          "duration": 0.2857139999999987
        },
        {
          "name": "E3",
          "midi": 52,
          "time": 105.14275200000002,
          "velocity": 0.7480314960629921,
          "duration": 0.2857139999999987
        },
        {
          "name": "E4",
          "midi": 64,
          "time": 105.42846600000001,
          "velocity": 0.7480314960629921,
          "duration": 0.2857139999999987
        },
        {
          "name": "B3",
          "midi": 59,
          "time": 105.42846600000001,
          "velocity": 0.7480314960629921,
          "duration": 0.2857139999999987
        },
        {
          "name": "E3",
          "midi": 52,
          "time": 105.42846600000001,
          "velocity": 0.7480314960629921,
          "duration": 0.2857139999999987
        },
        {
          "name": "E4",
          "midi": 64,
          "time": 105.71418000000001,
          "velocity": 0.7480314960629921,
          "duration": 0.2857139999999987
        },
        {
          "name": "B3",
          "midi": 59,
          "time": 105.71418000000001,
          "velocity": 0.7480314960629921,
          "duration": 0.2857139999999987
        },
        {
          "name": "E3",
          "midi": 52,
          "time": 105.71418000000001,
          "velocity": 0.7480314960629921,
          "duration": 0.2857139999999987
        },
        {
          "name": "E4",
          "midi": 64,
          "time": 105.99989400000001,
          "velocity": 0.7480314960629921,
          "duration": 0.2857139999999987
        },
        {
          "name": "B3",
          "midi": 59,
          "time": 105.99989400000001,
          "velocity": 0.7480314960629921,
          "duration": 0.2857139999999987
        },
        {
          "name": "E3",
          "midi": 52,
          "time": 105.99989400000001,
          "velocity": 0.7480314960629921,
          "duration": 0.2857139999999987
        },
        {
          "name": "E4",
          "midi": 64,
          "time": 106.28560800000001,
          "velocity": 0.7480314960629921,
          "duration": 0.2857139999999987
        },
        {
          "name": "B3",
          "midi": 59,
          "time": 106.28560800000001,
          "velocity": 0.7480314960629921,
          "duration": 0.2857139999999987
        },
        {
          "name": "E3",
          "midi": 52,
          "time": 106.28560800000001,
          "velocity": 0.7480314960629921,
          "duration": 0.2857139999999987
        },
        {
          "name": "E4",
          "midi": 64,
          "time": 106.57132200000001,
          "velocity": 0.7480314960629921,
          "duration": 0.2857139999999987
        },
        {
          "name": "B3",
          "midi": 59,
          "time": 106.57132200000001,
          "velocity": 0.7480314960629921,
          "duration": 0.2857139999999987
        },
        {
          "name": "E3",
          "midi": 52,
          "time": 106.57132200000001,
          "velocity": 0.7480314960629921,
          "duration": 0.2857139999999987
        },
        {
          "name": "E4",
          "midi": 64,
          "time": 106.85703600000001,
          "velocity": 0.7480314960629921,
          "duration": 0.2857139999999987
        },
        {
          "name": "B3",
          "midi": 59,
          "time": 106.85703600000001,
          "velocity": 0.7480314960629921,
          "duration": 0.2857139999999987
        },
        {
          "name": "E3",
          "midi": 52,
          "time": 106.85703600000001,
          "velocity": 0.7480314960629921,
          "duration": 0.2857139999999987
        },
        {
          "name": "E4",
          "midi": 64,
          "time": 107.14275,
          "velocity": 0.7480314960629921,
          "duration": 0.2857139999999987
        },
        {
          "name": "B3",
          "midi": 59,
          "time": 107.14275,
          "velocity": 0.7480314960629921,
          "duration": 0.2857139999999987
        },
        {
          "name": "E3",
          "midi": 52,
          "time": 107.14275,
          "velocity": 0.7480314960629921,
          "duration": 0.2857139999999987
        },
        {
          "name": "C#4",
          "midi": 61,
          "time": 107.428464,
          "velocity": 0.7480314960629921,
          "duration": 0.2857139999999987
        },
        {
          "name": "G#3",
          "midi": 56,
          "time": 107.428464,
          "velocity": 0.7480314960629921,
          "duration": 0.2857139999999987
        },
        {
          "name": "C#3",
          "midi": 49,
          "time": 107.428464,
          "velocity": 0.7480314960629921,
          "duration": 0.2857139999999987
        },
        {
          "name": "C#4",
          "midi": 61,
          "time": 107.714178,
          "velocity": 0.7480314960629921,
          "duration": 0.2857139999999987
        },
        {
          "name": "G#3",
          "midi": 56,
          "time": 107.714178,
          "velocity": 0.7480314960629921,
          "duration": 0.2857139999999987
        },
        {
          "name": "C#3",
          "midi": 49,
          "time": 107.714178,
          "velocity": 0.7480314960629921,
          "duration": 0.2857139999999987
        },
        {
          "name": "C#4",
          "midi": 61,
          "time": 107.999892,
          "velocity": 0.7480314960629921,
          "duration": 0.2857139999999987
        },
        {
          "name": "G#3",
          "midi": 56,
          "time": 107.999892,
          "velocity": 0.7480314960629921,
          "duration": 0.2857139999999987
        },
        {
          "name": "C#3",
          "midi": 49,
          "time": 107.999892,
          "velocity": 0.7480314960629921,
          "duration": 0.2857139999999987
        },
        {
          "name": "C#4",
          "midi": 61,
          "time": 108.285606,
          "velocity": 0.7480314960629921,
          "duration": 0.2857139999999987
        },
        {
          "name": "G#3",
          "midi": 56,
          "time": 108.285606,
          "velocity": 0.7480314960629921,
          "duration": 0.2857139999999987
        },
        {
          "name": "C#3",
          "midi": 49,
          "time": 108.285606,
          "velocity": 0.7480314960629921,
          "duration": 0.2857139999999987
        },
        {
          "name": "C#4",
          "midi": 61,
          "time": 108.57132,
          "velocity": 0.7480314960629921,
          "duration": 0.2857139999999987
        },
        {
          "name": "G#3",
          "midi": 56,
          "time": 108.57132,
          "velocity": 0.7480314960629921,
          "duration": 0.2857139999999987
        },
        {
          "name": "C#3",
          "midi": 49,
          "time": 108.57132,
          "velocity": 0.7480314960629921,
          "duration": 0.2857139999999987
        },
        {
          "name": "C#4",
          "midi": 61,
          "time": 108.857034,
          "velocity": 0.7480314960629921,
          "duration": 0.2857139999999987
        },
        {
          "name": "G#3",
          "midi": 56,
          "time": 108.857034,
          "velocity": 0.7480314960629921,
          "duration": 0.2857139999999987
        },
        {
          "name": "C#3",
          "midi": 49,
          "time": 108.857034,
          "velocity": 0.7480314960629921,
          "duration": 0.2857139999999987
        },
        {
          "name": "C#4",
          "midi": 61,
          "time": 109.142748,
          "velocity": 0.7480314960629921,
          "duration": 0.2857139999999987
        },
        {
          "name": "G#3",
          "midi": 56,
          "time": 109.142748,
          "velocity": 0.7480314960629921,
          "duration": 0.2857139999999987
        },
        {
          "name": "C#3",
          "midi": 49,
          "time": 109.142748,
          "velocity": 0.7480314960629921,
          "duration": 0.2857139999999987
        },
        {
          "name": "C#4",
          "midi": 61,
          "time": 109.428462,
          "velocity": 0.7480314960629921,
          "duration": 0.2857139999999987
        },
        {
          "name": "G#3",
          "midi": 56,
          "time": 109.428462,
          "velocity": 0.7480314960629921,
          "duration": 0.2857139999999987
        },
        {
          "name": "C#3",
          "midi": 49,
          "time": 109.428462,
          "velocity": 0.7480314960629921,
          "duration": 0.2857139999999987
        },
        {
          "name": "A3",
          "midi": 57,
          "time": 109.714176,
          "velocity": 0.7480314960629921,
          "duration": 0.2857139999999987
        },
        {
          "name": "E3",
          "midi": 52,
          "time": 109.714176,
          "velocity": 0.7480314960629921,
          "duration": 0.2857139999999987
        },
        {
          "name": "A2",
          "midi": 45,
          "time": 109.714176,
          "velocity": 0.7480314960629921,
          "duration": 0.2857139999999987
        },
        {
          "name": "A3",
          "midi": 57,
          "time": 109.99989,
          "velocity": 0.7480314960629921,
          "duration": 0.2857139999999987
        },
        {
          "name": "E3",
          "midi": 52,
          "time": 109.99989,
          "velocity": 0.7480314960629921,
          "duration": 0.2857139999999987
        },
        {
          "name": "A2",
          "midi": 45,
          "time": 109.99989,
          "velocity": 0.7480314960629921,
          "duration": 0.2857139999999987
        },
        {
          "name": "A3",
          "midi": 57,
          "time": 110.28560399999999,
          "velocity": 0.7480314960629921,
          "duration": 0.2857139999999987
        },
        {
          "name": "E3",
          "midi": 52,
          "time": 110.28560399999999,
          "velocity": 0.7480314960629921,
          "duration": 0.2857139999999987
        },
        {
          "name": "A2",
          "midi": 45,
          "time": 110.28560399999999,
          "velocity": 0.7480314960629921,
          "duration": 0.2857139999999987
        },
        {
          "name": "A3",
          "midi": 57,
          "time": 110.57131799999999,
          "velocity": 0.7480314960629921,
          "duration": 0.2857139999999987
        },
        {
          "name": "E3",
          "midi": 52,
          "time": 110.57131799999999,
          "velocity": 0.7480314960629921,
          "duration": 0.2857139999999987
        },
        {
          "name": "A2",
          "midi": 45,
          "time": 110.57131799999999,
          "velocity": 0.7480314960629921,
          "duration": 0.2857139999999987
        },
        {
          "name": "A3",
          "midi": 57,
          "time": 110.85703199999999,
          "velocity": 0.7480314960629921,
          "duration": 0.2857139999999987
        },
        {
          "name": "E3",
          "midi": 52,
          "time": 110.85703199999999,
          "velocity": 0.7480314960629921,
          "duration": 0.2857139999999987
        },
        {
          "name": "A2",
          "midi": 45,
          "time": 110.85703199999999,
          "velocity": 0.7480314960629921,
          "duration": 0.2857139999999987
        },
        {
          "name": "A3",
          "midi": 57,
          "time": 111.14274599999999,
          "velocity": 0.7480314960629921,
          "duration": 0.2857139999999987
        },
        {
          "name": "E3",
          "midi": 52,
          "time": 111.14274599999999,
          "velocity": 0.7480314960629921,
          "duration": 0.2857139999999987
        },
        {
          "name": "A2",
          "midi": 45,
          "time": 111.14274599999999,
          "velocity": 0.7480314960629921,
          "duration": 0.2857139999999987
        },
        {
          "name": "A3",
          "midi": 57,
          "time": 111.42845999999999,
          "velocity": 0.7480314960629921,
          "duration": 0.2857139999999987
        },
        {
          "name": "E3",
          "midi": 52,
          "time": 111.42845999999999,
          "velocity": 0.7480314960629921,
          "duration": 0.2857139999999987
        },
        {
          "name": "A2",
          "midi": 45,
          "time": 111.42845999999999,
          "velocity": 0.7480314960629921,
          "duration": 0.2857139999999987
        },
        {
          "name": "A3",
          "midi": 57,
          "time": 111.71417399999999,
          "velocity": 0.7480314960629921,
          "duration": 0.2857139999999987
        },
        {
          "name": "E3",
          "midi": 52,
          "time": 111.71417399999999,
          "velocity": 0.7480314960629921,
          "duration": 0.2857139999999987
        },
        {
          "name": "A2",
          "midi": 45,
          "time": 111.71417399999999,
          "velocity": 0.7480314960629921,
          "duration": 0.2857139999999987
        },
        {
          "name": "E3",
          "midi": 52,
          "time": 111.99988799999998,
          "velocity": 0.7480314960629921,
          "duration": 0.2857139999999987
        },
        {
          "name": "B2",
          "midi": 47,
          "time": 111.99988799999998,
          "velocity": 0.7480314960629921,
          "duration": 0.2857139999999987
        },
        {
          "name": "E2",
          "midi": 40,
          "time": 111.99988799999998,
          "velocity": 0.7480314960629921,
          "duration": 0.2857139999999987
        },
        {
          "name": "E3",
          "midi": 52,
          "time": 112.28560199999998,
          "velocity": 0.7480314960629921,
          "duration": 0.2857139999999987
        },
        {
          "name": "B2",
          "midi": 47,
          "time": 112.28560199999998,
          "velocity": 0.7480314960629921,
          "duration": 0.2857139999999987
        },
        {
          "name": "E2",
          "midi": 40,
          "time": 112.28560199999998,
          "velocity": 0.7480314960629921,
          "duration": 0.2857139999999987
        },
        {
          "name": "E3",
          "midi": 52,
          "time": 112.57131599999998,
          "velocity": 0.7480314960629921,
          "duration": 0.2857139999999987
        },
        {
          "name": "B2",
          "midi": 47,
          "time": 112.57131599999998,
          "velocity": 0.7480314960629921,
          "duration": 0.2857139999999987
        },
        {
          "name": "E2",
          "midi": 40,
          "time": 112.57131599999998,
          "velocity": 0.7480314960629921,
          "duration": 0.2857139999999987
        },
        {
          "name": "E3",
          "midi": 52,
          "time": 112.85702999999998,
          "velocity": 0.7480314960629921,
          "duration": 0.2857139999999987
        },
        {
          "name": "B2",
          "midi": 47,
          "time": 112.85702999999998,
          "velocity": 0.7480314960629921,
          "duration": 0.2857139999999987
        },
        {
          "name": "E2",
          "midi": 40,
          "time": 112.85702999999998,
          "velocity": 0.7480314960629921,
          "duration": 0.2857139999999987
        },
        {
          "name": "E3",
          "midi": 52,
          "time": 113.14274399999998,
          "velocity": 0.7480314960629921,
          "duration": 0.2857139999999987
        },
        {
          "name": "B2",
          "midi": 47,
          "time": 113.14274399999998,
          "velocity": 0.7480314960629921,
          "duration": 0.2857139999999987
        },
        {
          "name": "E2",
          "midi": 40,
          "time": 113.14274399999998,
          "velocity": 0.7480314960629921,
          "duration": 0.2857139999999987
        },
        {
          "name": "E3",
          "midi": 52,
          "time": 113.42845799999998,
          "velocity": 0.7480314960629921,
          "duration": 0.2857139999999987
        },
        {
          "name": "B2",
          "midi": 47,
          "time": 113.42845799999998,
          "velocity": 0.7480314960629921,
          "duration": 0.2857139999999987
        },
        {
          "name": "E2",
          "midi": 40,
          "time": 113.42845799999998,
          "velocity": 0.7480314960629921,
          "duration": 0.2857139999999987
        },
        {
          "name": "E3",
          "midi": 52,
          "time": 113.71417199999998,
          "velocity": 0.7480314960629921,
          "duration": 0.2857139999999987
        },
        {
          "name": "B2",
          "midi": 47,
          "time": 113.71417199999998,
          "velocity": 0.7480314960629921,
          "duration": 0.2857139999999987
        },
        {
          "name": "E2",
          "midi": 40,
          "time": 113.71417199999998,
          "velocity": 0.7480314960629921,
          "duration": 0.2857139999999987
        },
        {
          "name": "E3",
          "midi": 52,
          "time": 113.99988599999998,
          "velocity": 0.7480314960629921,
          "duration": 0.2857139999999987
        },
        {
          "name": "B2",
          "midi": 47,
          "time": 113.99988599999998,
          "velocity": 0.7480314960629921,
          "duration": 0.2857139999999987
        },
        {
          "name": "E2",
          "midi": 40,
          "time": 113.99988599999998,
          "velocity": 0.7480314960629921,
          "duration": 0.2857139999999987
        },
        {
          "name": "F#3",
          "midi": 54,
          "time": 114.28559999999997,
          "velocity": 0.7480314960629921,
          "duration": 0.2857139999999987
        },
        {
          "name": "C#3",
          "midi": 49,
          "time": 114.28559999999997,
          "velocity": 0.7480314960629921,
          "duration": 0.2857139999999987
        },
        {
          "name": "F#2",
          "midi": 42,
          "time": 114.28559999999997,
          "velocity": 0.7480314960629921,
          "duration": 0.2857139999999987
        },
        {
          "name": "F#3",
          "midi": 54,
          "time": 114.57131399999997,
          "velocity": 0.7480314960629921,
          "duration": 0.2857139999999987
        },
        {
          "name": "C#3",
          "midi": 49,
          "time": 114.57131399999997,
          "velocity": 0.7480314960629921,
          "duration": 0.2857139999999987
        },
        {
          "name": "F#2",
          "midi": 42,
          "time": 114.57131399999997,
          "velocity": 0.7480314960629921,
          "duration": 0.2857139999999987
        },
        {
          "name": "F#3",
          "midi": 54,
          "time": 114.85702799999997,
          "velocity": 0.7480314960629921,
          "duration": 0.2857139999999987
        },
        {
          "name": "C#3",
          "midi": 49,
          "time": 114.85702799999997,
          "velocity": 0.7480314960629921,
          "duration": 0.2857139999999987
        },
        {
          "name": "F#2",
          "midi": 42,
          "time": 114.85702799999997,
          "velocity": 0.7480314960629921,
          "duration": 0.2857139999999987
        },
        {
          "name": "F#3",
          "midi": 54,
          "time": 115.14274199999997,
          "velocity": 0.7480314960629921,
          "duration": 0.2857139999999987
        },
        {
          "name": "C#3",
          "midi": 49,
          "time": 115.14274199999997,
          "velocity": 0.7480314960629921,
          "duration": 0.2857139999999987
        },
        {
          "name": "F#2",
          "midi": 42,
          "time": 115.14274199999997,
          "velocity": 0.7480314960629921,
          "duration": 0.2857139999999987
        },
        {
          "name": "F#3",
          "midi": 54,
          "time": 115.42845599999997,
          "velocity": 0.7480314960629921,
          "duration": 0.2857139999999987
        },
        {
          "name": "C#3",
          "midi": 49,
          "time": 115.42845599999997,
          "velocity": 0.7480314960629921,
          "duration": 0.2857139999999987
        },
        {
          "name": "F#2",
          "midi": 42,
          "time": 115.42845599999997,
          "velocity": 0.7480314960629921,
          "duration": 0.2857139999999987
        },
        {
          "name": "F#3",
          "midi": 54,
          "time": 115.71416999999997,
          "velocity": 0.7480314960629921,
          "duration": 0.2857139999999987
        },
        {
          "name": "C#3",
          "midi": 49,
          "time": 115.71416999999997,
          "velocity": 0.7480314960629921,
          "duration": 0.2857139999999987
        },
        {
          "name": "F#2",
          "midi": 42,
          "time": 115.71416999999997,
          "velocity": 0.7480314960629921,
          "duration": 0.2857139999999987
        },
        {
          "name": "F#3",
          "midi": 54,
          "time": 115.99988399999997,
          "velocity": 0.7480314960629921,
          "duration": 0.2857139999999987
        },
        {
          "name": "C#3",
          "midi": 49,
          "time": 115.99988399999997,
          "velocity": 0.7480314960629921,
          "duration": 0.2857139999999987
        },
        {
          "name": "F#2",
          "midi": 42,
          "time": 115.99988399999997,
          "velocity": 0.7480314960629921,
          "duration": 0.2857139999999987
        },
        {
          "name": "F#3",
          "midi": 54,
          "time": 116.28559799999996,
          "velocity": 0.7480314960629921,
          "duration": 0.2857139999999987
        },
        {
          "name": "C#3",
          "midi": 49,
          "time": 116.28559799999996,
          "velocity": 0.7480314960629921,
          "duration": 0.2857139999999987
        },
        {
          "name": "F#2",
          "midi": 42,
          "time": 116.28559799999996,
          "velocity": 0.7480314960629921,
          "duration": 0.2857139999999987
        },
        {
          "name": "F#3",
          "midi": 54,
          "time": 116.57131199999996,
          "velocity": 0.7480314960629921,
          "duration": 0.2857139999999987
        },
        {
          "name": "C#3",
          "midi": 49,
          "time": 116.57131199999996,
          "velocity": 0.7480314960629921,
          "duration": 0.2857139999999987
        },
        {
          "name": "F#2",
          "midi": 42,
          "time": 116.57131199999996,
          "velocity": 0.7480314960629921,
          "duration": 0.2857139999999987
        },
        {
          "name": "F#3",
          "midi": 54,
          "time": 116.85702599999996,
          "velocity": 0.7480314960629921,
          "duration": 0.2857139999999987
        },
        {
          "name": "C#3",
          "midi": 49,
          "time": 116.85702599999996,
          "velocity": 0.7480314960629921,
          "duration": 0.2857139999999987
        },
        {
          "name": "F#2",
          "midi": 42,
          "time": 116.85702599999996,
          "velocity": 0.7480314960629921,
          "duration": 0.2857139999999987
        },
        {
          "name": "F#3",
          "midi": 54,
          "time": 117.14273999999996,
          "velocity": 0.7480314960629921,
          "duration": 0.2857139999999987
        },
        {
          "name": "C#3",
          "midi": 49,
          "time": 117.14273999999996,
          "velocity": 0.7480314960629921,
          "duration": 0.2857139999999987
        },
        {
          "name": "F#2",
          "midi": 42,
          "time": 117.14273999999996,
          "velocity": 0.7480314960629921,
          "duration": 0.2857139999999987
        },
        {
          "name": "F#3",
          "midi": 54,
          "time": 117.42845399999996,
          "velocity": 0.7480314960629921,
          "duration": 0.2857139999999987
        },
        {
          "name": "C#3",
          "midi": 49,
          "time": 117.42845399999996,
          "velocity": 0.7480314960629921,
          "duration": 0.2857139999999987
        },
        {
          "name": "F#2",
          "midi": 42,
          "time": 117.42845399999996,
          "velocity": 0.7480314960629921,
          "duration": 0.2857139999999987
        },
        {
          "name": "F#3",
          "midi": 54,
          "time": 117.71416799999996,
          "velocity": 0.7480314960629921,
          "duration": 0.2857139999999987
        },
        {
          "name": "C#3",
          "midi": 49,
          "time": 117.71416799999996,
          "velocity": 0.7480314960629921,
          "duration": 0.2857139999999987
        },
        {
          "name": "F#2",
          "midi": 42,
          "time": 117.71416799999996,
          "velocity": 0.7480314960629921,
          "duration": 0.2857139999999987
        },
        {
          "name": "F#3",
          "midi": 54,
          "time": 117.99988199999996,
          "velocity": 0.7480314960629921,
          "duration": 0.2857139999999987
        },
        {
          "name": "C#3",
          "midi": 49,
          "time": 117.99988199999996,
          "velocity": 0.7480314960629921,
          "duration": 0.2857139999999987
        },
        {
          "name": "F#2",
          "midi": 42,
          "time": 117.99988199999996,
          "velocity": 0.7480314960629921,
          "duration": 0.2857139999999987
        },
        {
          "name": "F#3",
          "midi": 54,
          "time": 118.28559599999996,
          "velocity": 0.7480314960629921,
          "duration": 0.2857139999999987
        },
        {
          "name": "C#3",
          "midi": 49,
          "time": 118.28559599999996,
          "velocity": 0.7480314960629921,
          "duration": 0.2857139999999987
        },
        {
          "name": "F#2",
          "midi": 42,
          "time": 118.28559599999996,
          "velocity": 0.7480314960629921,
          "duration": 0.2857139999999987
        },
        {
          "name": "F#3",
          "midi": 54,
          "time": 118.57130999999995,
          "velocity": 0.7480314960629921,
          "duration": 0.2857139999999987
        },
        {
          "name": "C#3",
          "midi": 49,
          "time": 118.57130999999995,
          "velocity": 0.7480314960629921,
          "duration": 0.2857139999999987
        },
        {
          "name": "F#2",
          "midi": 42,
          "time": 118.57130999999995,
          "velocity": 0.7480314960629921,
          "duration": 0.2857139999999987
        },
        {
          "name": "A3",
          "midi": 57,
          "time": 118.85702399999995,
          "velocity": 0.7480314960629921,
          "duration": 0.2857139999999987
        },
        {
          "name": "E3",
          "midi": 52,
          "time": 118.85702399999995,
          "velocity": 0.7480314960629921,
          "duration": 0.2857139999999987
        },
        {
          "name": "A2",
          "midi": 45,
          "time": 118.85702399999995,
          "velocity": 0.7480314960629921,
          "duration": 0.2857139999999987
        },
        {
          "name": "A3",
          "midi": 57,
          "time": 119.14273799999995,
          "velocity": 0.7480314960629921,
          "duration": 0.2857139999999987
        },
        {
          "name": "E3",
          "midi": 52,
          "time": 119.14273799999995,
          "velocity": 0.7480314960629921,
          "duration": 0.2857139999999987
        },
        {
          "name": "A2",
          "midi": 45,
          "time": 119.14273799999995,
          "velocity": 0.7480314960629921,
          "duration": 0.2857139999999987
        },
        {
          "name": "A3",
          "midi": 57,
          "time": 119.42845199999995,
          "velocity": 0.7480314960629921,
          "duration": 0.2857139999999987
        },
        {
          "name": "E3",
          "midi": 52,
          "time": 119.42845199999995,
          "velocity": 0.7480314960629921,
          "duration": 0.2857139999999987
        },
        {
          "name": "A2",
          "midi": 45,
          "time": 119.42845199999995,
          "velocity": 0.7480314960629921,
          "duration": 0.2857139999999987
        },
        {
          "name": "A3",
          "midi": 57,
          "time": 119.71416599999995,
          "velocity": 0.7480314960629921,
          "duration": 0.2857139999999987
        },
        {
          "name": "E3",
          "midi": 52,
          "time": 119.71416599999995,
          "velocity": 0.7480314960629921,
          "duration": 0.2857139999999987
        },
        {
          "name": "A2",
          "midi": 45,
          "time": 119.71416599999995,
          "velocity": 0.7480314960629921,
          "duration": 0.2857139999999987
        },
        {
          "name": "A3",
          "midi": 57,
          "time": 119.99987999999995,
          "velocity": 0.7480314960629921,
          "duration": 0.2857139999999987
        },
        {
          "name": "E3",
          "midi": 52,
          "time": 119.99987999999995,
          "velocity": 0.7480314960629921,
          "duration": 0.2857139999999987
        },
        {
          "name": "A2",
          "midi": 45,
          "time": 119.99987999999995,
          "velocity": 0.7480314960629921,
          "duration": 0.2857139999999987
        },
        {
          "name": "A3",
          "midi": 57,
          "time": 120.28559399999995,
          "velocity": 0.7480314960629921,
          "duration": 0.2857139999999987
        },
        {
          "name": "E3",
          "midi": 52,
          "time": 120.28559399999995,
          "velocity": 0.7480314960629921,
          "duration": 0.2857139999999987
        },
        {
          "name": "A2",
          "midi": 45,
          "time": 120.28559399999995,
          "velocity": 0.7480314960629921,
          "duration": 0.2857139999999987
        },
        {
          "name": "A3",
          "midi": 57,
          "time": 120.57130799999995,
          "velocity": 0.7480314960629921,
          "duration": 0.2857139999999987
        },
        {
          "name": "E3",
          "midi": 52,
          "time": 120.57130799999995,
          "velocity": 0.7480314960629921,
          "duration": 0.2857139999999987
        },
        {
          "name": "A2",
          "midi": 45,
          "time": 120.57130799999995,
          "velocity": 0.7480314960629921,
          "duration": 0.2857139999999987
        },
        {
          "name": "A3",
          "midi": 57,
          "time": 120.85702199999994,
          "velocity": 0.7480314960629921,
          "duration": 0.2857139999999987
        },
        {
          "name": "E3",
          "midi": 52,
          "time": 120.85702199999994,
          "velocity": 0.7480314960629921,
          "duration": 0.2857139999999987
        },
        {
          "name": "A2",
          "midi": 45,
          "time": 120.85702199999994,
          "velocity": 0.7480314960629921,
          "duration": 0.2857139999999987
        },
        {
          "name": "E3",
          "midi": 52,
          "time": 121.14273599999994,
          "velocity": 0.7480314960629921,
          "duration": 0.2857139999999987
        },
        {
          "name": "B2",
          "midi": 47,
          "time": 121.14273599999994,
          "velocity": 0.7480314960629921,
          "duration": 0.2857139999999987
        },
        {
          "name": "E2",
          "midi": 40,
          "time": 121.14273599999994,
          "velocity": 0.7480314960629921,
          "duration": 0.2857139999999987
        },
        {
          "name": "E3",
          "midi": 52,
          "time": 121.42844999999994,
          "velocity": 0.7480314960629921,
          "duration": 0.2857139999999987
        },
        {
          "name": "B2",
          "midi": 47,
          "time": 121.42844999999994,
          "velocity": 0.7480314960629921,
          "duration": 0.2857139999999987
        },
        {
          "name": "E2",
          "midi": 40,
          "time": 121.42844999999994,
          "velocity": 0.7480314960629921,
          "duration": 0.2857139999999987
        },
        {
          "name": "E3",
          "midi": 52,
          "time": 121.71416399999994,
          "velocity": 0.7480314960629921,
          "duration": 0.2857139999999987
        },
        {
          "name": "B2",
          "midi": 47,
          "time": 121.71416399999994,
          "velocity": 0.7480314960629921,
          "duration": 0.2857139999999987
        },
        {
          "name": "E2",
          "midi": 40,
          "time": 121.71416399999994,
          "velocity": 0.7480314960629921,
          "duration": 0.2857139999999987
        },
        {
          "name": "E3",
          "midi": 52,
          "time": 121.99987799999994,
          "velocity": 0.7480314960629921,
          "duration": 0.2857139999999987
        },
        {
          "name": "B2",
          "midi": 47,
          "time": 121.99987799999994,
          "velocity": 0.7480314960629921,
          "duration": 0.2857139999999987
        },
        {
          "name": "E2",
          "midi": 40,
          "time": 121.99987799999994,
          "velocity": 0.7480314960629921,
          "duration": 0.2857139999999987
        },
        {
          "name": "E3",
          "midi": 52,
          "time": 122.28559199999994,
          "velocity": 0.7480314960629921,
          "duration": 0.2857139999999987
        },
        {
          "name": "B2",
          "midi": 47,
          "time": 122.28559199999994,
          "velocity": 0.7480314960629921,
          "duration": 0.2857139999999987
        },
        {
          "name": "E2",
          "midi": 40,
          "time": 122.28559199999994,
          "velocity": 0.7480314960629921,
          "duration": 0.2857139999999987
        },
        {
          "name": "E3",
          "midi": 52,
          "time": 122.57130599999994,
          "velocity": 0.7480314960629921,
          "duration": 0.2857139999999987
        },
        {
          "name": "B2",
          "midi": 47,
          "time": 122.57130599999994,
          "velocity": 0.7480314960629921,
          "duration": 0.2857139999999987
        },
        {
          "name": "E2",
          "midi": 40,
          "time": 122.57130599999994,
          "velocity": 0.7480314960629921,
          "duration": 0.2857139999999987
        },
        {
          "name": "E3",
          "midi": 52,
          "time": 122.85701999999993,
          "velocity": 0.7480314960629921,
          "duration": 0.2857139999999987
        },
        {
          "name": "B2",
          "midi": 47,
          "time": 122.85701999999993,
          "velocity": 0.7480314960629921,
          "duration": 0.2857139999999987
        },
        {
          "name": "E2",
          "midi": 40,
          "time": 122.85701999999993,
          "velocity": 0.7480314960629921,
          "duration": 0.2857139999999987
        },
        {
          "name": "E3",
          "midi": 52,
          "time": 123.14273399999993,
          "velocity": 0.7480314960629921,
          "duration": 0.2857139999999987
        },
        {
          "name": "B2",
          "midi": 47,
          "time": 123.14273399999993,
          "velocity": 0.7480314960629921,
          "duration": 0.2857139999999987
        },
        {
          "name": "E2",
          "midi": 40,
          "time": 123.14273399999993,
          "velocity": 0.7480314960629921,
          "duration": 0.2857139999999987
        },
        {
          "name": "F#3",
          "midi": 54,
          "time": 123.42844799999993,
          "velocity": 0.7480314960629921,
          "duration": 0.2857139999999987
        },
        {
          "name": "C#3",
          "midi": 49,
          "time": 123.42844799999993,
          "velocity": 0.7480314960629921,
          "duration": 0.2857139999999987
        },
        {
          "name": "F#2",
          "midi": 42,
          "time": 123.42844799999993,
          "velocity": 0.7480314960629921,
          "duration": 0.2857139999999987
        },
        {
          "name": "F#3",
          "midi": 54,
          "time": 123.71416199999993,
          "velocity": 0.7480314960629921,
          "duration": 0.2857139999999987
        },
        {
          "name": "C#3",
          "midi": 49,
          "time": 123.71416199999993,
          "velocity": 0.7480314960629921,
          "duration": 0.2857139999999987
        },
        {
          "name": "F#2",
          "midi": 42,
          "time": 123.71416199999993,
          "velocity": 0.7480314960629921,
          "duration": 0.2857139999999987
        },
        {
          "name": "F#3",
          "midi": 54,
          "time": 124.57130399999993,
          "velocity": 0.7480314960629921,
          "duration": 0.2857139999999987
        },
        {
          "name": "C#3",
          "midi": 49,
          "time": 124.57130399999993,
          "velocity": 0.7480314960629921,
          "duration": 0.2857139999999987
        },
        {
          "name": "F#2",
          "midi": 42,
          "time": 124.57130399999993,
          "velocity": 0.7480314960629921,
          "duration": 0.2857139999999987
        },
        {
          "name": "F#3",
          "midi": 54,
          "time": 124.85701799999993,
          "velocity": 0.7480314960629921,
          "duration": 0.2857139999999987
        },
        {
          "name": "C#3",
          "midi": 49,
          "time": 124.85701799999993,
          "velocity": 0.7480314960629921,
          "duration": 0.2857139999999987
        },
        {
          "name": "F#2",
          "midi": 42,
          "time": 124.85701799999993,
          "velocity": 0.7480314960629921,
          "duration": 0.2857139999999987
        },
        {
          "name": "F#3",
          "midi": 54,
          "time": 125.71415999999992,
          "velocity": 0.7480314960629921,
          "duration": 0.2857139999999987
        },
        {
          "name": "C#3",
          "midi": 49,
          "time": 125.71415999999992,
          "velocity": 0.7480314960629921,
          "duration": 0.2857139999999987
        },
        {
          "name": "F#2",
          "midi": 42,
          "time": 125.71415999999992,
          "velocity": 0.7480314960629921,
          "duration": 0.2857139999999987
        },
        {
          "name": "F#3",
          "midi": 54,
          "time": 125.99987399999992,
          "velocity": 0.7480314960629921,
          "duration": 0.2857139999999987
        },
        {
          "name": "C#3",
          "midi": 49,
          "time": 125.99987399999992,
          "velocity": 0.7480314960629921,
          "duration": 0.2857139999999987
        },
        {
          "name": "F#2",
          "midi": 42,
          "time": 125.99987399999992,
          "velocity": 0.7480314960629921,
          "duration": 0.2857139999999987
        },
        {
          "name": "F#3",
          "midi": 54,
          "time": 126.85701599999992,
          "velocity": 0.7480314960629921,
          "duration": 0.2857139999999987
        },
        {
          "name": "C#3",
          "midi": 49,
          "time": 126.85701599999992,
          "velocity": 0.7480314960629921,
          "duration": 0.2857139999999987
        },
        {
          "name": "F#2",
          "midi": 42,
          "time": 126.85701599999992,
          "velocity": 0.7480314960629921,
          "duration": 0.2857139999999987
        },
        {
          "name": "F#3",
          "midi": 54,
          "time": 127.14272999999991,
          "velocity": 0.7480314960629921,
          "duration": 0.2857139999999987
        },
        {
          "name": "C#3",
          "midi": 49,
          "time": 127.14272999999991,
          "velocity": 0.7480314960629921,
          "duration": 0.2857139999999987
        },
        {
          "name": "F#2",
          "midi": 42,
          "time": 127.14272999999991,
          "velocity": 0.7480314960629921,
          "duration": 0.2857139999999987
        },
        {
          "name": "F#3",
          "midi": 54,
          "time": 127.99987199999991,
          "velocity": 0.7480314960629921,
          "duration": 0.2857139999999987
        },
        {
          "name": "C#3",
          "midi": 49,
          "time": 127.99987199999991,
          "velocity": 0.7480314960629921,
          "duration": 0.2857139999999987
        },
        {
          "name": "F#2",
          "midi": 42,
          "time": 127.99987199999991,
          "velocity": 0.7480314960629921,
          "duration": 0.2857139999999987
        },
        {
          "name": "F#3",
          "midi": 54,
          "time": 128.2855859999999,
          "velocity": 0.7480314960629921,
          "duration": 0.2857140000000129
        },
        {
          "name": "C#3",
          "midi": 49,
          "time": 128.2855859999999,
          "velocity": 0.7480314960629921,
          "duration": 0.2857140000000129
        },
        {
          "name": "F#2",
          "midi": 42,
          "time": 128.2855859999999,
          "velocity": 0.7480314960629921,
          "duration": 0.2857140000000129
        },
        {
          "name": "F#3",
          "midi": 54,
          "time": 129.14272799999992,
          "velocity": 0.7480314960629921,
          "duration": 0.2857140000000129
        },
        {
          "name": "C#3",
          "midi": 49,
          "time": 129.14272799999992,
          "velocity": 0.7480314960629921,
          "duration": 0.2857140000000129
        },
        {
          "name": "F#2",
          "midi": 42,
          "time": 129.14272799999992,
          "velocity": 0.7480314960629921,
          "duration": 0.2857140000000129
        },
        {
          "name": "F#3",
          "midi": 54,
          "time": 129.42844199999993,
          "velocity": 0.7480314960629921,
          "duration": 0.2857140000000129
        },
        {
          "name": "C#3",
          "midi": 49,
          "time": 129.42844199999993,
          "velocity": 0.7480314960629921,
          "duration": 0.2857140000000129
        },
        {
          "name": "F#2",
          "midi": 42,
          "time": 129.42844199999993,
          "velocity": 0.7480314960629921,
          "duration": 0.2857140000000129
        },
        {
          "name": "F#3",
          "midi": 54,
          "time": 130.28558399999994,
          "velocity": 0.7480314960629921,
          "duration": 0.2857140000000129
        },
        {
          "name": "C#3",
          "midi": 49,
          "time": 130.28558399999994,
          "velocity": 0.7480314960629921,
          "duration": 0.2857140000000129
        },
        {
          "name": "F#2",
          "midi": 42,
          "time": 130.28558399999994,
          "velocity": 0.7480314960629921,
          "duration": 0.2857140000000129
        },
        {
          "name": "F#3",
          "midi": 54,
          "time": 130.57129799999996,
          "velocity": 0.7480314960629921,
          "duration": 0.2857140000000129
        },
        {
          "name": "C#3",
          "midi": 49,
          "time": 130.57129799999996,
          "velocity": 0.7480314960629921,
          "duration": 0.2857140000000129
        },
        {
          "name": "F#2",
          "midi": 42,
          "time": 130.57129799999996,
          "velocity": 0.7480314960629921,
          "duration": 0.2857140000000129
        },
        {
          "name": "F#3",
          "midi": 54,
          "time": 131.42843999999997,
          "velocity": 0.7480314960629921,
          "duration": 0.2857140000000129
        },
        {
          "name": "C#3",
          "midi": 49,
          "time": 131.42843999999997,
          "velocity": 0.7480314960629921,
          "duration": 0.2857140000000129
        },
        {
          "name": "F#2",
          "midi": 42,
          "time": 131.42843999999997,
          "velocity": 0.7480314960629921,
          "duration": 0.2857140000000129
        },
        {
          "name": "F#3",
          "midi": 54,
          "time": 131.71415399999998,
          "velocity": 0.7480314960629921,
          "duration": 0.2857140000000129
        },
        {
          "name": "C#3",
          "midi": 49,
          "time": 131.71415399999998,
          "velocity": 0.7480314960629921,
          "duration": 0.2857140000000129
        },
        {
          "name": "F#2",
          "midi": 42,
          "time": 131.71415399999998,
          "velocity": 0.7480314960629921,
          "duration": 0.2857140000000129
        },
        {
          "name": "F#3",
          "midi": 54,
          "time": 132.571296,
          "velocity": 0.7480314960629921,
          "duration": 0.2857140000000129
        },
        {
          "name": "C#3",
          "midi": 49,
          "time": 132.571296,
          "velocity": 0.7480314960629921,
          "duration": 0.2857140000000129
        },
        {
          "name": "F#2",
          "midi": 42,
          "time": 132.571296,
          "velocity": 0.7480314960629921,
          "duration": 0.2857140000000129
        },
        {
          "name": "F#3",
          "midi": 54,
          "time": 132.85701,
          "velocity": 0.7480314960629921,
          "duration": 0.2857140000000129
        },
        {
          "name": "C#3",
          "midi": 49,
          "time": 132.85701,
          "velocity": 0.7480314960629921,
          "duration": 0.2857140000000129
        },
        {
          "name": "F#2",
          "midi": 42,
          "time": 132.85701,
          "velocity": 0.7480314960629921,
          "duration": 0.2857140000000129
        },
        {
          "name": "F#3",
          "midi": 54,
          "time": 133.14272400000002,
          "velocity": 0.7480314960629921,
          "duration": 0.2857140000000129
        },
        {
          "name": "C#3",
          "midi": 49,
          "time": 133.14272400000002,
          "velocity": 0.7480314960629921,
          "duration": 0.2857140000000129
        },
        {
          "name": "F#2",
          "midi": 42,
          "time": 133.14272400000002,
          "velocity": 0.7480314960629921,
          "duration": 0.2857140000000129
        },
        {
          "name": "F#3",
          "midi": 54,
          "time": 133.42843800000003,
          "velocity": 0.7480314960629921,
          "duration": 0.2857140000000129
        },
        {
          "name": "C#3",
          "midi": 49,
          "time": 133.42843800000003,
          "velocity": 0.7480314960629921,
          "duration": 0.2857140000000129
        },
        {
          "name": "F#2",
          "midi": 42,
          "time": 133.42843800000003,
          "velocity": 0.7480314960629921,
          "duration": 0.2857140000000129
        },
        {
          "name": "F#3",
          "midi": 54,
          "time": 133.71415200000004,
          "velocity": 0.7480314960629921,
          "duration": 0.2857140000000129
        },
        {
          "name": "C#3",
          "midi": 49,
          "time": 133.71415200000004,
          "velocity": 0.7480314960629921,
          "duration": 0.2857140000000129
        },
        {
          "name": "F#2",
          "midi": 42,
          "time": 133.71415200000004,
          "velocity": 0.7480314960629921,
          "duration": 0.2857140000000129
        },
        {
          "name": "F#3",
          "midi": 54,
          "time": 133.99986600000005,
          "velocity": 0.7480314960629921,
          "duration": 0.2857140000000129
        },
        {
          "name": "C#3",
          "midi": 49,
          "time": 133.99986600000005,
          "velocity": 0.7480314960629921,
          "duration": 0.2857140000000129
        },
        {
          "name": "F#2",
          "midi": 42,
          "time": 133.99986600000005,
          "velocity": 0.7480314960629921,
          "duration": 0.2857140000000129
        },
        {
          "name": "F#3",
          "midi": 54,
          "time": 134.28558000000007,
          "velocity": 0.7480314960629921,
          "duration": 0.2857140000000129
        },
        {
          "name": "C#3",
          "midi": 49,
          "time": 134.28558000000007,
          "velocity": 0.7480314960629921,
          "duration": 0.2857140000000129
        },
        {
          "name": "F#2",
          "midi": 42,
          "time": 134.28558000000007,
          "velocity": 0.7480314960629921,
          "duration": 0.2857140000000129
        },
        {
          "name": "F#3",
          "midi": 54,
          "time": 134.57129400000008,
          "velocity": 0.7480314960629921,
          "duration": 0.2857140000000129
        },
        {
          "name": "C#3",
          "midi": 49,
          "time": 134.57129400000008,
          "velocity": 0.7480314960629921,
          "duration": 0.2857140000000129
        },
        {
          "name": "F#2",
          "midi": 42,
          "time": 134.57129400000008,
          "velocity": 0.7480314960629921,
          "duration": 0.2857140000000129
        },
        {
          "name": "F#3",
          "midi": 54,
          "time": 134.8570080000001,
          "velocity": 0.7480314960629921,
          "duration": 0.2857140000000129
        },
        {
          "name": "C#3",
          "midi": 49,
          "time": 134.8570080000001,
          "velocity": 0.7480314960629921,
          "duration": 0.2857140000000129
        },
        {
          "name": "F#2",
          "midi": 42,
          "time": 134.8570080000001,
          "velocity": 0.7480314960629921,
          "duration": 0.2857140000000129
        },
        {
          "name": "F#3",
          "midi": 54,
          "time": 135.1427220000001,
          "velocity": 0.7480314960629921,
          "duration": 0.2857140000000129
        },
        {
          "name": "C#3",
          "midi": 49,
          "time": 135.1427220000001,
          "velocity": 0.7480314960629921,
          "duration": 0.2857140000000129
        },
        {
          "name": "F#2",
          "midi": 42,
          "time": 135.1427220000001,
          "velocity": 0.7480314960629921,
          "duration": 0.2857140000000129
        },
        {
          "name": "F#3",
          "midi": 54,
          "time": 135.42843600000012,
          "velocity": 0.7480314960629921,
          "duration": 0.2857140000000129
        },
        {
          "name": "C#3",
          "midi": 49,
          "time": 135.42843600000012,
          "velocity": 0.7480314960629921,
          "duration": 0.2857140000000129
        },
        {
          "name": "F#2",
          "midi": 42,
          "time": 135.42843600000012,
          "velocity": 0.7480314960629921,
          "duration": 0.2857140000000129
        },
        {
          "name": "F#3",
          "midi": 54,
          "time": 135.71415000000013,
          "velocity": 0.7480314960629921,
          "duration": 0.2857140000000129
        },
        {
          "name": "C#3",
          "midi": 49,
          "time": 135.71415000000013,
          "velocity": 0.7480314960629921,
          "duration": 0.2857140000000129
        },
        {
          "name": "F#2",
          "midi": 42,
          "time": 135.71415000000013,
          "velocity": 0.7480314960629921,
          "duration": 0.2857140000000129
        },
        {
          "name": "F#3",
          "midi": 54,
          "time": 135.99986400000014,
          "velocity": 0.7480314960629921,
          "duration": 0.2857140000000129
        },
        {
          "name": "C#3",
          "midi": 49,
          "time": 135.99986400000014,
          "velocity": 0.7480314960629921,
          "duration": 0.2857140000000129
        },
        {
          "name": "F#2",
          "midi": 42,
          "time": 135.99986400000014,
          "velocity": 0.7480314960629921,
          "duration": 0.2857140000000129
        },
        {
          "name": "F#3",
          "midi": 54,
          "time": 136.28557800000016,
          "velocity": 0.7480314960629921,
          "duration": 0.2857140000000129
        },
        {
          "name": "C#3",
          "midi": 49,
          "time": 136.28557800000016,
          "velocity": 0.7480314960629921,
          "duration": 0.2857140000000129
        },
        {
          "name": "F#2",
          "midi": 42,
          "time": 136.28557800000016,
          "velocity": 0.7480314960629921,
          "duration": 0.2857140000000129
        },
        {
          "name": "F#3",
          "midi": 54,
          "time": 136.57129200000017,
          "velocity": 0.7480314960629921,
          "duration": 0.2857140000000129
        },
        {
          "name": "C#3",
          "midi": 49,
          "time": 136.57129200000017,
          "velocity": 0.7480314960629921,
          "duration": 0.2857140000000129
        },
        {
          "name": "F#2",
          "midi": 42,
          "time": 136.57129200000017,
          "velocity": 0.7480314960629921,
          "duration": 0.2857140000000129
        },
        {
          "name": "F#3",
          "midi": 54,
          "time": 136.85700600000018,
          "velocity": 0.7480314960629921,
          "duration": 0.2857140000000129
        },
        {
          "name": "C#3",
          "midi": 49,
          "time": 136.85700600000018,
          "velocity": 0.7480314960629921,
          "duration": 0.2857140000000129
        },
        {
          "name": "F#2",
          "midi": 42,
          "time": 136.85700600000018,
          "velocity": 0.7480314960629921,
          "duration": 0.2857140000000129
        },
        {
          "name": "F#3",
          "midi": 54,
          "time": 137.1427200000002,
          "velocity": 0.7480314960629921,
          "duration": 0.2857140000000129
        },
        {
          "name": "C#3",
          "midi": 49,
          "time": 137.1427200000002,
          "velocity": 0.7480314960629921,
          "duration": 0.2857140000000129
        },
        {
          "name": "F#2",
          "midi": 42,
          "time": 137.1427200000002,
          "velocity": 0.7480314960629921,
          "duration": 0.2857140000000129
        },
        {
          "name": "F#3",
          "midi": 54,
          "time": 137.4284340000002,
          "velocity": 0.7480314960629921,
          "duration": 0.2857140000000129
        },
        {
          "name": "C#3",
          "midi": 49,
          "time": 137.4284340000002,
          "velocity": 0.7480314960629921,
          "duration": 0.2857140000000129
        },
        {
          "name": "F#2",
          "midi": 42,
          "time": 137.4284340000002,
          "velocity": 0.7480314960629921,
          "duration": 0.2857140000000129
        },
        {
          "name": "F#3",
          "midi": 54,
          "time": 137.71414800000022,
          "velocity": 0.7480314960629921,
          "duration": 0.2857140000000129
        },
        {
          "name": "C#3",
          "midi": 49,
          "time": 137.71414800000022,
          "velocity": 0.7480314960629921,
          "duration": 0.2857140000000129
        },
        {
          "name": "F#2",
          "midi": 42,
          "time": 137.71414800000022,
          "velocity": 0.7480314960629921,
          "duration": 0.2857140000000129
        },
        {
          "name": "F#3",
          "midi": 54,
          "time": 137.99986200000023,
          "velocity": 0.7480314960629921,
          "duration": 0.2857140000000129
        },
        {
          "name": "C#3",
          "midi": 49,
          "time": 137.99986200000023,
          "velocity": 0.7480314960629921,
          "duration": 0.2857140000000129
        },
        {
          "name": "F#2",
          "midi": 42,
          "time": 137.99986200000023,
          "velocity": 0.7480314960629921,
          "duration": 0.2857140000000129
        },
        {
          "name": "F#3",
          "midi": 54,
          "time": 138.28557600000025,
          "velocity": 0.7480314960629921,
          "duration": 0.2857140000000129
        },
        {
          "name": "C#3",
          "midi": 49,
          "time": 138.28557600000025,
          "velocity": 0.7480314960629921,
          "duration": 0.2857140000000129
        },
        {
          "name": "F#2",
          "midi": 42,
          "time": 138.28557600000025,
          "velocity": 0.7480314960629921,
          "duration": 0.2857140000000129
        },
        {
          "name": "F#3",
          "midi": 54,
          "time": 138.57129000000026,
          "velocity": 0.7480314960629921,
          "duration": 0.2857140000000129
        },
        {
          "name": "C#3",
          "midi": 49,
          "time": 138.57129000000026,
          "velocity": 0.7480314960629921,
          "duration": 0.2857140000000129
        },
        {
          "name": "F#2",
          "midi": 42,
          "time": 138.57129000000026,
          "velocity": 0.7480314960629921,
          "duration": 0.2857140000000129
        },
        {
          "name": "F#3",
          "midi": 54,
          "time": 138.85700400000027,
          "velocity": 0.7480314960629921,
          "duration": 0.2857140000000129
        },
        {
          "name": "C#3",
          "midi": 49,
          "time": 138.85700400000027,
          "velocity": 0.7480314960629921,
          "duration": 0.2857140000000129
        },
        {
          "name": "F#2",
          "midi": 42,
          "time": 138.85700400000027,
          "velocity": 0.7480314960629921,
          "duration": 0.2857140000000129
        },
        {
          "name": "F#3",
          "midi": 54,
          "time": 139.1427180000003,
          "velocity": 0.7480314960629921,
          "duration": 0.2857140000000129
        },
        {
          "name": "C#3",
          "midi": 49,
          "time": 139.1427180000003,
          "velocity": 0.7480314960629921,
          "duration": 0.2857140000000129
        },
        {
          "name": "F#2",
          "midi": 42,
          "time": 139.1427180000003,
          "velocity": 0.7480314960629921,
          "duration": 0.2857140000000129
        },
        {
          "name": "F#3",
          "midi": 54,
          "time": 139.4284320000003,
          "velocity": 0.7480314960629921,
          "duration": 0.2857140000000129
        },
        {
          "name": "C#3",
          "midi": 49,
          "time": 139.4284320000003,
          "velocity": 0.7480314960629921,
          "duration": 0.2857140000000129
        },
        {
          "name": "F#2",
          "midi": 42,
          "time": 139.4284320000003,
          "velocity": 0.7480314960629921,
          "duration": 0.2857140000000129
        },
        {
          "name": "F#3",
          "midi": 54,
          "time": 139.7141460000003,
          "velocity": 0.7480314960629921,
          "duration": 0.2857140000000129
        },
        {
          "name": "C#3",
          "midi": 49,
          "time": 139.7141460000003,
          "velocity": 0.7480314960629921,
          "duration": 0.2857140000000129
        },
        {
          "name": "F#2",
          "midi": 42,
          "time": 139.7141460000003,
          "velocity": 0.7480314960629921,
          "duration": 0.2857140000000129
        },
        {
          "name": "F#3",
          "midi": 54,
          "time": 139.99986000000033,
          "velocity": 0.7480314960629921,
          "duration": 0.2857140000000129
        },
        {
          "name": "C#3",
          "midi": 49,
          "time": 139.99986000000033,
          "velocity": 0.7480314960629921,
          "duration": 0.2857140000000129
        },
        {
          "name": "F#2",
          "midi": 42,
          "time": 139.99986000000033,
          "velocity": 0.7480314960629921,
          "duration": 0.2857140000000129
        },
        {
          "name": "F#3",
          "midi": 54,
          "time": 140.28557400000034,
          "velocity": 0.7480314960629921,
          "duration": 0.2857140000000129
        },
        {
          "name": "C#3",
          "midi": 49,
          "time": 140.28557400000034,
          "velocity": 0.7480314960629921,
          "duration": 0.2857140000000129
        },
        {
          "name": "F#2",
          "midi": 42,
          "time": 140.28557400000034,
          "velocity": 0.7480314960629921,
          "duration": 0.2857140000000129
        },
        {
          "name": "F#3",
          "midi": 54,
          "time": 140.57128800000035,
          "velocity": 0.7480314960629921,
          "duration": 0.2857140000000129
        },
        {
          "name": "C#3",
          "midi": 49,
          "time": 140.57128800000035,
          "velocity": 0.7480314960629921,
          "duration": 0.2857140000000129
        },
        {
          "name": "F#2",
          "midi": 42,
          "time": 140.57128800000035,
          "velocity": 0.7480314960629921,
          "duration": 0.2857140000000129
        },
        {
          "name": "F#3",
          "midi": 54,
          "time": 140.85700200000036,
          "velocity": 0.7480314960629921,
          "duration": 0.2857140000000129
        },
        {
          "name": "C#3",
          "midi": 49,
          "time": 140.85700200000036,
          "velocity": 0.7480314960629921,
          "duration": 0.2857140000000129
        },
        {
          "name": "F#2",
          "midi": 42,
          "time": 140.85700200000036,
          "velocity": 0.7480314960629921,
          "duration": 0.2857140000000129
        },
        {
          "name": "F#3",
          "midi": 54,
          "time": 141.14271600000038,
          "velocity": 0.7480314960629921,
          "duration": 0.2857140000000129
        },
        {
          "name": "C#3",
          "midi": 49,
          "time": 141.14271600000038,
          "velocity": 0.7480314960629921,
          "duration": 0.2857140000000129
        },
        {
          "name": "F#2",
          "midi": 42,
          "time": 141.14271600000038,
          "velocity": 0.7480314960629921,
          "duration": 0.2857140000000129
        },
        {
          "name": "F#3",
          "midi": 54,
          "time": 141.4284300000004,
          "velocity": 0.7480314960629921,
          "duration": 0.2857140000000129
        },
        {
          "name": "C#3",
          "midi": 49,
          "time": 141.4284300000004,
          "velocity": 0.7480314960629921,
          "duration": 0.2857140000000129
        },
        {
          "name": "F#2",
          "midi": 42,
          "time": 141.4284300000004,
          "velocity": 0.7480314960629921,
          "duration": 0.2857140000000129
        },
        {
          "name": "F#3",
          "midi": 54,
          "time": 141.7141440000004,
          "velocity": 0.7480314960629921,
          "duration": 0.2857140000000129
        },
        {
          "name": "C#3",
          "midi": 49,
          "time": 141.7141440000004,
          "velocity": 0.7480314960629921,
          "duration": 0.2857140000000129
        },
        {
          "name": "F#2",
          "midi": 42,
          "time": 141.7141440000004,
          "velocity": 0.7480314960629921,
          "duration": 0.2857140000000129
        },
        {
          "name": "F#3",
          "midi": 54,
          "time": 143.99985600000042,
          "velocity": 0.7480314960629921,
          "duration": 0.2857140000000129
        },
        {
          "name": "C#3",
          "midi": 49,
          "time": 143.99985600000042,
          "velocity": 0.7480314960629921,
          "duration": 0.2857140000000129
        },
        {
          "name": "F#2",
          "midi": 42,
          "time": 143.99985600000042,
          "velocity": 0.7480314960629921,
          "duration": 0.2857140000000129
        },
        {
          "name": "F#3",
          "midi": 54,
          "time": 144.28557000000043,
          "velocity": 0.7480314960629921,
          "duration": 0.2857140000000129
        },
        {
          "name": "C#3",
          "midi": 49,
          "time": 144.28557000000043,
          "velocity": 0.7480314960629921,
          "duration": 0.2857140000000129
        },
        {
          "name": "F#2",
          "midi": 42,
          "time": 144.28557000000043,
          "velocity": 0.7480314960629921,
          "duration": 0.2857140000000129
        },
        {
          "name": "F#3",
          "midi": 54,
          "time": 144.57128400000045,
          "velocity": 0.7480314960629921,
          "duration": 0.2857140000000129
        },
        {
          "name": "C#3",
          "midi": 49,
          "time": 144.57128400000045,
          "velocity": 0.7480314960629921,
          "duration": 0.2857140000000129
        },
        {
          "name": "F#2",
          "midi": 42,
          "time": 144.57128400000045,
          "velocity": 0.7480314960629921,
          "duration": 0.2857140000000129
        },
        {
          "name": "F#3",
          "midi": 54,
          "time": 144.85699800000046,
          "velocity": 0.7480314960629921,
          "duration": 0.2857140000000129
        },
        {
          "name": "C#3",
          "midi": 49,
          "time": 144.85699800000046,
          "velocity": 0.7480314960629921,
          "duration": 0.2857140000000129
        },
        {
          "name": "F#2",
          "midi": 42,
          "time": 144.85699800000046,
          "velocity": 0.7480314960629921,
          "duration": 0.2857140000000129
        },
        {
          "name": "F#3",
          "midi": 54,
          "time": 145.14271200000047,
          "velocity": 0.7480314960629921,
          "duration": 0.2857140000000129
        },
        {
          "name": "C#3",
          "midi": 49,
          "time": 145.14271200000047,
          "velocity": 0.7480314960629921,
          "duration": 0.2857140000000129
        },
        {
          "name": "F#2",
          "midi": 42,
          "time": 145.14271200000047,
          "velocity": 0.7480314960629921,
          "duration": 0.2857140000000129
        },
        {
          "name": "F#3",
          "midi": 54,
          "time": 145.42842600000048,
          "velocity": 0.7480314960629921,
          "duration": 0.2857140000000129
        },
        {
          "name": "C#3",
          "midi": 49,
          "time": 145.42842600000048,
          "velocity": 0.7480314960629921,
          "duration": 0.2857140000000129
        },
        {
          "name": "F#2",
          "midi": 42,
          "time": 145.42842600000048,
          "velocity": 0.7480314960629921,
          "duration": 0.2857140000000129
        },
        {
          "name": "F#3",
          "midi": 54,
          "time": 145.7141400000005,
          "velocity": 0.7480314960629921,
          "duration": 0.2857140000000129
        },
        {
          "name": "C#3",
          "midi": 49,
          "time": 145.7141400000005,
          "velocity": 0.7480314960629921,
          "duration": 0.2857140000000129
        },
        {
          "name": "F#2",
          "midi": 42,
          "time": 145.7141400000005,
          "velocity": 0.7480314960629921,
          "duration": 0.2857140000000129
        },
        {
          "name": "F#3",
          "midi": 54,
          "time": 145.9998540000005,
          "velocity": 0.7480314960629921,
          "duration": 0.2857140000000129
        },
        {
          "name": "C#3",
          "midi": 49,
          "time": 145.9998540000005,
          "velocity": 0.7480314960629921,
          "duration": 0.2857140000000129
        },
        {
          "name": "F#2",
          "midi": 42,
          "time": 145.9998540000005,
          "velocity": 0.7480314960629921,
          "duration": 0.2857140000000129
        },
        {
          "name": "A3",
          "midi": 57,
          "time": 146.28556800000052,
          "velocity": 0.7480314960629921,
          "duration": 0.2857140000000129
        },
        {
          "name": "E3",
          "midi": 52,
          "time": 146.28556800000052,
          "velocity": 0.7480314960629921,
          "duration": 0.2857140000000129
        },
        {
          "name": "A2",
          "midi": 45,
          "time": 146.28556800000052,
          "velocity": 0.7480314960629921,
          "duration": 0.2857140000000129
        },
        {
          "name": "A3",
          "midi": 57,
          "time": 146.57128200000054,
          "velocity": 0.7480314960629921,
          "duration": 0.2857140000000129
        },
        {
          "name": "E3",
          "midi": 52,
          "time": 146.57128200000054,
          "velocity": 0.7480314960629921,
          "duration": 0.2857140000000129
        },
        {
          "name": "A2",
          "midi": 45,
          "time": 146.57128200000054,
          "velocity": 0.7480314960629921,
          "duration": 0.2857140000000129
        },
        {
          "name": "A3",
          "midi": 57,
          "time": 146.85699600000055,
          "velocity": 0.7480314960629921,
          "duration": 0.2857140000000129
        },
        {
          "name": "E3",
          "midi": 52,
          "time": 146.85699600000055,
          "velocity": 0.7480314960629921,
          "duration": 0.2857140000000129
        },
        {
          "name": "A2",
          "midi": 45,
          "time": 146.85699600000055,
          "velocity": 0.7480314960629921,
          "duration": 0.2857140000000129
        },
        {
          "name": "A3",
          "midi": 57,
          "time": 147.14271000000056,
          "velocity": 0.7480314960629921,
          "duration": 0.2857140000000129
        },
        {
          "name": "E3",
          "midi": 52,
          "time": 147.14271000000056,
          "velocity": 0.7480314960629921,
          "duration": 0.2857140000000129
        },
        {
          "name": "A2",
          "midi": 45,
          "time": 147.14271000000056,
          "velocity": 0.7480314960629921,
          "duration": 0.2857140000000129
        },
        {
          "name": "A3",
          "midi": 57,
          "time": 147.42842400000058,
          "velocity": 0.7480314960629921,
          "duration": 0.2857140000000129
        },
        {
          "name": "E3",
          "midi": 52,
          "time": 147.42842400000058,
          "velocity": 0.7480314960629921,
          "duration": 0.2857140000000129
        },
        {
          "name": "A2",
          "midi": 45,
          "time": 147.42842400000058,
          "velocity": 0.7480314960629921,
          "duration": 0.2857140000000129
        },
        {
          "name": "A3",
          "midi": 57,
          "time": 147.7141380000006,
          "velocity": 0.7480314960629921,
          "duration": 0.2857140000000129
        },
        {
          "name": "E3",
          "midi": 52,
          "time": 147.7141380000006,
          "velocity": 0.7480314960629921,
          "duration": 0.2857140000000129
        },
        {
          "name": "A2",
          "midi": 45,
          "time": 147.7141380000006,
          "velocity": 0.7480314960629921,
          "duration": 0.2857140000000129
        },
        {
          "name": "A3",
          "midi": 57,
          "time": 147.9998520000006,
          "velocity": 0.7480314960629921,
          "duration": 0.2857140000000129
        },
        {
          "name": "E3",
          "midi": 52,
          "time": 147.9998520000006,
          "velocity": 0.7480314960629921,
          "duration": 0.2857140000000129
        },
        {
          "name": "A2",
          "midi": 45,
          "time": 147.9998520000006,
          "velocity": 0.7480314960629921,
          "duration": 0.2857140000000129
        },
        {
          "name": "A3",
          "midi": 57,
          "time": 148.2855660000006,
          "velocity": 0.7480314960629921,
          "duration": 0.2857140000000129
        },
        {
          "name": "E3",
          "midi": 52,
          "time": 148.2855660000006,
          "velocity": 0.7480314960629921,
          "duration": 0.2857140000000129
        },
        {
          "name": "A2",
          "midi": 45,
          "time": 148.2855660000006,
          "velocity": 0.7480314960629921,
          "duration": 0.2857140000000129
        },
        {
          "name": "E4",
          "midi": 64,
          "time": 148.57128000000063,
          "velocity": 0.7480314960629921,
          "duration": 0.2857140000000129
        },
        {
          "name": "B3",
          "midi": 59,
          "time": 148.57128000000063,
          "velocity": 0.7480314960629921,
          "duration": 0.2857140000000129
        },
        {
          "name": "E3",
          "midi": 52,
          "time": 148.57128000000063,
          "velocity": 0.7480314960629921,
          "duration": 0.2857140000000129
        },
        {
          "name": "E4",
          "midi": 64,
          "time": 148.85699400000064,
          "velocity": 0.7480314960629921,
          "duration": 0.2857140000000129
        },
        {
          "name": "B3",
          "midi": 59,
          "time": 148.85699400000064,
          "velocity": 0.7480314960629921,
          "duration": 0.2857140000000129
        },
        {
          "name": "E3",
          "midi": 52,
          "time": 148.85699400000064,
          "velocity": 0.7480314960629921,
          "duration": 0.2857140000000129
        },
        {
          "name": "E4",
          "midi": 64,
          "time": 149.14270800000065,
          "velocity": 0.7480314960629921,
          "duration": 0.2857140000000129
        },
        {
          "name": "B3",
          "midi": 59,
          "time": 149.14270800000065,
          "velocity": 0.7480314960629921,
          "duration": 0.2857140000000129
        },
        {
          "name": "E3",
          "midi": 52,
          "time": 149.14270800000065,
          "velocity": 0.7480314960629921,
          "duration": 0.2857140000000129
        },
        {
          "name": "E4",
          "midi": 64,
          "time": 149.42842200000067,
          "velocity": 0.7480314960629921,
          "duration": 0.2857140000000129
        },
        {
          "name": "B3",
          "midi": 59,
          "time": 149.42842200000067,
          "velocity": 0.7480314960629921,
          "duration": 0.2857140000000129
        },
        {
          "name": "E3",
          "midi": 52,
          "time": 149.42842200000067,
          "velocity": 0.7480314960629921,
          "duration": 0.2857140000000129
        },
        {
          "name": "E4",
          "midi": 64,
          "time": 149.71413600000068,
          "velocity": 0.7480314960629921,
          "duration": 0.2857140000000129
        },
        {
          "name": "B3",
          "midi": 59,
          "time": 149.71413600000068,
          "velocity": 0.7480314960629921,
          "duration": 0.2857140000000129
        },
        {
          "name": "E3",
          "midi": 52,
          "time": 149.71413600000068,
          "velocity": 0.7480314960629921,
          "duration": 0.2857140000000129
        },
        {
          "name": "E4",
          "midi": 64,
          "time": 149.9998500000007,
          "velocity": 0.7480314960629921,
          "duration": 0.2857140000000129
        },
        {
          "name": "B3",
          "midi": 59,
          "time": 149.9998500000007,
          "velocity": 0.7480314960629921,
          "duration": 0.2857140000000129
        },
        {
          "name": "E3",
          "midi": 52,
          "time": 149.9998500000007,
          "velocity": 0.7480314960629921,
          "duration": 0.2857140000000129
        },
        {
          "name": "E4",
          "midi": 64,
          "time": 150.2855640000007,
          "velocity": 0.7480314960629921,
          "duration": 0.2857140000000129
        },
        {
          "name": "B3",
          "midi": 59,
          "time": 150.2855640000007,
          "velocity": 0.7480314960629921,
          "duration": 0.2857140000000129
        },
        {
          "name": "E3",
          "midi": 52,
          "time": 150.2855640000007,
          "velocity": 0.7480314960629921,
          "duration": 0.2857140000000129
        },
        {
          "name": "E4",
          "midi": 64,
          "time": 150.57127800000072,
          "velocity": 0.7480314960629921,
          "duration": 0.2857140000000129
        },
        {
          "name": "B3",
          "midi": 59,
          "time": 150.57127800000072,
          "velocity": 0.7480314960629921,
          "duration": 0.2857140000000129
        },
        {
          "name": "E3",
          "midi": 52,
          "time": 150.57127800000072,
          "velocity": 0.7480314960629921,
          "duration": 0.2857140000000129
        },
        {
          "name": "F#3",
          "midi": 54,
          "time": 150.85699200000073,
          "velocity": 0.7480314960629921,
          "duration": 0.2857140000000129
        },
        {
          "name": "C#3",
          "midi": 49,
          "time": 150.85699200000073,
          "velocity": 0.7480314960629921,
          "duration": 0.2857140000000129
        },
        {
          "name": "F#2",
          "midi": 42,
          "time": 150.85699200000073,
          "velocity": 0.7480314960629921,
          "duration": 0.2857140000000129
        },
        {
          "name": "F#3",
          "midi": 54,
          "time": 151.14270600000074,
          "velocity": 0.7480314960629921,
          "duration": 0.2857140000000129
        },
        {
          "name": "C#3",
          "midi": 49,
          "time": 151.14270600000074,
          "velocity": 0.7480314960629921,
          "duration": 0.2857140000000129
        },
        {
          "name": "F#2",
          "midi": 42,
          "time": 151.14270600000074,
          "velocity": 0.7480314960629921,
          "duration": 0.2857140000000129
        },
        {
          "name": "F#3",
          "midi": 54,
          "time": 151.42842000000076,
          "velocity": 0.7480314960629921,
          "duration": 0.2857140000000129
        },
        {
          "name": "C#3",
          "midi": 49,
          "time": 151.42842000000076,
          "velocity": 0.7480314960629921,
          "duration": 0.2857140000000129
        },
        {
          "name": "F#2",
          "midi": 42,
          "time": 151.42842000000076,
          "velocity": 0.7480314960629921,
          "duration": 0.2857140000000129
        },
        {
          "name": "F#3",
          "midi": 54,
          "time": 151.71413400000077,
          "velocity": 0.7480314960629921,
          "duration": 0.2857140000000129
        },
        {
          "name": "C#3",
          "midi": 49,
          "time": 151.71413400000077,
          "velocity": 0.7480314960629921,
          "duration": 0.2857140000000129
        },
        {
          "name": "F#2",
          "midi": 42,
          "time": 151.71413400000077,
          "velocity": 0.7480314960629921,
          "duration": 0.2857140000000129
        },
        {
          "name": "F#3",
          "midi": 54,
          "time": 151.99984800000078,
          "velocity": 0.7480314960629921,
          "duration": 0.2857140000000129
        },
        {
          "name": "C#3",
          "midi": 49,
          "time": 151.99984800000078,
          "velocity": 0.7480314960629921,
          "duration": 0.2857140000000129
        },
        {
          "name": "F#2",
          "midi": 42,
          "time": 151.99984800000078,
          "velocity": 0.7480314960629921,
          "duration": 0.2857140000000129
        },
        {
          "name": "F#3",
          "midi": 54,
          "time": 152.2855620000008,
          "velocity": 0.7480314960629921,
          "duration": 0.2857140000000129
        },
        {
          "name": "C#3",
          "midi": 49,
          "time": 152.2855620000008,
          "velocity": 0.7480314960629921,
          "duration": 0.2857140000000129
        },
        {
          "name": "F#2",
          "midi": 42,
          "time": 152.2855620000008,
          "velocity": 0.7480314960629921,
          "duration": 0.2857140000000129
        },
        {
          "name": "F#3",
          "midi": 54,
          "time": 152.5712760000008,
          "velocity": 0.7480314960629921,
          "duration": 0.2857140000000129
        },
        {
          "name": "C#3",
          "midi": 49,
          "time": 152.5712760000008,
          "velocity": 0.7480314960629921,
          "duration": 0.2857140000000129
        },
        {
          "name": "F#2",
          "midi": 42,
          "time": 152.5712760000008,
          "velocity": 0.7480314960629921,
          "duration": 0.2857140000000129
        },
        {
          "name": "F#3",
          "midi": 54,
          "time": 152.85699000000082,
          "velocity": 0.7480314960629921,
          "duration": 0.2857140000000129
        },
        {
          "name": "C#3",
          "midi": 49,
          "time": 152.85699000000082,
          "velocity": 0.7480314960629921,
          "duration": 0.2857140000000129
        },
        {
          "name": "F#2",
          "midi": 42,
          "time": 152.85699000000082,
          "velocity": 0.7480314960629921,
          "duration": 0.2857140000000129
        },
        {
          "name": "F#3",
          "midi": 54,
          "time": 153.14270400000083,
          "velocity": 0.7480314960629921,
          "duration": 0.2857140000000129
        },
        {
          "name": "C#3",
          "midi": 49,
          "time": 153.14270400000083,
          "velocity": 0.7480314960629921,
          "duration": 0.2857140000000129
        },
        {
          "name": "F#2",
          "midi": 42,
          "time": 153.14270400000083,
          "velocity": 0.7480314960629921,
          "duration": 0.2857140000000129
        },
        {
          "name": "F#3",
          "midi": 54,
          "time": 153.42841800000085,
          "velocity": 0.7480314960629921,
          "duration": 0.2857140000000129
        },
        {
          "name": "C#3",
          "midi": 49,
          "time": 153.42841800000085,
          "velocity": 0.7480314960629921,
          "duration": 0.2857140000000129
        },
        {
          "name": "F#2",
          "midi": 42,
          "time": 153.42841800000085,
          "velocity": 0.7480314960629921,
          "duration": 0.2857140000000129
        },
        {
          "name": "F#3",
          "midi": 54,
          "time": 153.71413200000086,
          "velocity": 0.7480314960629921,
          "duration": 0.2857140000000129
        },
        {
          "name": "C#3",
          "midi": 49,
          "time": 153.71413200000086,
          "velocity": 0.7480314960629921,
          "duration": 0.2857140000000129
        },
        {
          "name": "F#2",
          "midi": 42,
          "time": 153.71413200000086,
          "velocity": 0.7480314960629921,
          "duration": 0.2857140000000129
        },
        {
          "name": "F#3",
          "midi": 54,
          "time": 153.99984600000087,
          "velocity": 0.7480314960629921,
          "duration": 0.2857140000000129
        },
        {
          "name": "C#3",
          "midi": 49,
          "time": 153.99984600000087,
          "velocity": 0.7480314960629921,
          "duration": 0.2857140000000129
        },
        {
          "name": "F#2",
          "midi": 42,
          "time": 153.99984600000087,
          "velocity": 0.7480314960629921,
          "duration": 0.2857140000000129
        },
        {
          "name": "F#3",
          "midi": 54,
          "time": 154.28556000000088,
          "velocity": 0.7480314960629921,
          "duration": 0.2857140000000129
        },
        {
          "name": "C#3",
          "midi": 49,
          "time": 154.28556000000088,
          "velocity": 0.7480314960629921,
          "duration": 0.2857140000000129
        },
        {
          "name": "F#2",
          "midi": 42,
          "time": 154.28556000000088,
          "velocity": 0.7480314960629921,
          "duration": 0.2857140000000129
        },
        {
          "name": "F#3",
          "midi": 54,
          "time": 154.5712740000009,
          "velocity": 0.7480314960629921,
          "duration": 0.2857140000000129
        },
        {
          "name": "C#3",
          "midi": 49,
          "time": 154.5712740000009,
          "velocity": 0.7480314960629921,
          "duration": 0.2857140000000129
        },
        {
          "name": "F#2",
          "midi": 42,
          "time": 154.5712740000009,
          "velocity": 0.7480314960629921,
          "duration": 0.2857140000000129
        },
        {
          "name": "F#3",
          "midi": 54,
          "time": 154.8569880000009,
          "velocity": 0.7480314960629921,
          "duration": 0.2857140000000129
        },
        {
          "name": "C#3",
          "midi": 49,
          "time": 154.8569880000009,
          "velocity": 0.7480314960629921,
          "duration": 0.2857140000000129
        },
        {
          "name": "F#2",
          "midi": 42,
          "time": 154.8569880000009,
          "velocity": 0.7480314960629921,
          "duration": 0.2857140000000129
        },
        {
          "name": "F#3",
          "midi": 54,
          "time": 155.14270200000092,
          "velocity": 0.7480314960629921,
          "duration": 0.2857140000000129
        },
        {
          "name": "C#3",
          "midi": 49,
          "time": 155.14270200000092,
          "velocity": 0.7480314960629921,
          "duration": 0.2857140000000129
        },
        {
          "name": "F#2",
          "midi": 42,
          "time": 155.14270200000092,
          "velocity": 0.7480314960629921,
          "duration": 0.2857140000000129
        },
        {
          "name": "A3",
          "midi": 57,
          "time": 155.42841600000094,
          "velocity": 0.7480314960629921,
          "duration": 0.2857140000000129
        },
        {
          "name": "E3",
          "midi": 52,
          "time": 155.42841600000094,
          "velocity": 0.7480314960629921,
          "duration": 0.2857140000000129
        },
        {
          "name": "A2",
          "midi": 45,
          "time": 155.42841600000094,
          "velocity": 0.7480314960629921,
          "duration": 0.2857140000000129
        },
        {
          "name": "A3",
          "midi": 57,
          "time": 155.71413000000095,
          "velocity": 0.7480314960629921,
          "duration": 0.2857140000000129
        },
        {
          "name": "E3",
          "midi": 52,
          "time": 155.71413000000095,
          "velocity": 0.7480314960629921,
          "duration": 0.2857140000000129
        },
        {
          "name": "A2",
          "midi": 45,
          "time": 155.71413000000095,
          "velocity": 0.7480314960629921,
          "duration": 0.2857140000000129
        },
        {
          "name": "A3",
          "midi": 57,
          "time": 155.99984400000096,
          "velocity": 0.7480314960629921,
          "duration": 0.2857140000000129
        },
        {
          "name": "E3",
          "midi": 52,
          "time": 155.99984400000096,
          "velocity": 0.7480314960629921,
          "duration": 0.2857140000000129
        },
        {
          "name": "A2",
          "midi": 45,
          "time": 155.99984400000096,
          "velocity": 0.7480314960629921,
          "duration": 0.2857140000000129
        },
        {
          "name": "A3",
          "midi": 57,
          "time": 156.28555800000098,
          "velocity": 0.7480314960629921,
          "duration": 0.2857140000000129
        },
        {
          "name": "E3",
          "midi": 52,
          "time": 156.28555800000098,
          "velocity": 0.7480314960629921,
          "duration": 0.2857140000000129
        },
        {
          "name": "A2",
          "midi": 45,
          "time": 156.28555800000098,
          "velocity": 0.7480314960629921,
          "duration": 0.2857140000000129
        },
        {
          "name": "A3",
          "midi": 57,
          "time": 156.571272000001,
          "velocity": 0.7480314960629921,
          "duration": 0.2857140000000129
        },
        {
          "name": "E3",
          "midi": 52,
          "time": 156.571272000001,
          "velocity": 0.7480314960629921,
          "duration": 0.2857140000000129
        },
        {
          "name": "A2",
          "midi": 45,
          "time": 156.571272000001,
          "velocity": 0.7480314960629921,
          "duration": 0.2857140000000129
        },
        {
          "name": "A3",
          "midi": 57,
          "time": 156.856986000001,
          "velocity": 0.7480314960629921,
          "duration": 0.2857140000000129
        },
        {
          "name": "E3",
          "midi": 52,
          "time": 156.856986000001,
          "velocity": 0.7480314960629921,
          "duration": 0.2857140000000129
        },
        {
          "name": "A2",
          "midi": 45,
          "time": 156.856986000001,
          "velocity": 0.7480314960629921,
          "duration": 0.2857140000000129
        },
        {
          "name": "A3",
          "midi": 57,
          "time": 157.142700000001,
          "velocity": 0.7480314960629921,
          "duration": 0.2857140000000129
        },
        {
          "name": "E3",
          "midi": 52,
          "time": 157.142700000001,
          "velocity": 0.7480314960629921,
          "duration": 0.2857140000000129
        },
        {
          "name": "A2",
          "midi": 45,
          "time": 157.142700000001,
          "velocity": 0.7480314960629921,
          "duration": 0.2857140000000129
        },
        {
          "name": "A3",
          "midi": 57,
          "time": 157.42841400000103,
          "velocity": 0.7480314960629921,
          "duration": 0.2857140000000129
        },
        {
          "name": "E3",
          "midi": 52,
          "time": 157.42841400000103,
          "velocity": 0.7480314960629921,
          "duration": 0.2857140000000129
        },
        {
          "name": "A2",
          "midi": 45,
          "time": 157.42841400000103,
          "velocity": 0.7480314960629921,
          "duration": 0.2857140000000129
        },
        {
          "name": "E4",
          "midi": 64,
          "time": 157.71412800000104,
          "velocity": 0.7480314960629921,
          "duration": 0.2857140000000129
        },
        {
          "name": "B3",
          "midi": 59,
          "time": 157.71412800000104,
          "velocity": 0.7480314960629921,
          "duration": 0.2857140000000129
        },
        {
          "name": "E3",
          "midi": 52,
          "time": 157.71412800000104,
          "velocity": 0.7480314960629921,
          "duration": 0.2857140000000129
        },
        {
          "name": "E4",
          "midi": 64,
          "time": 157.99984200000105,
          "velocity": 0.7480314960629921,
          "duration": 0.2857140000000129
        },
        {
          "name": "B3",
          "midi": 59,
          "time": 157.99984200000105,
          "velocity": 0.7480314960629921,
          "duration": 0.2857140000000129
        },
        {
          "name": "E3",
          "midi": 52,
          "time": 157.99984200000105,
          "velocity": 0.7480314960629921,
          "duration": 0.2857140000000129
        },
        {
          "name": "E4",
          "midi": 64,
          "time": 158.28555600000107,
          "velocity": 0.7480314960629921,
          "duration": 0.2857140000000129
        },
        {
          "name": "B3",
          "midi": 59,
          "time": 158.28555600000107,
          "velocity": 0.7480314960629921,
          "duration": 0.2857140000000129
        },
        {
          "name": "E3",
          "midi": 52,
          "time": 158.28555600000107,
          "velocity": 0.7480314960629921,
          "duration": 0.2857140000000129
        },
        {
          "name": "E4",
          "midi": 64,
          "time": 158.57127000000108,
          "velocity": 0.7480314960629921,
          "duration": 0.2857140000000129
        },
        {
          "name": "B3",
          "midi": 59,
          "time": 158.57127000000108,
          "velocity": 0.7480314960629921,
          "duration": 0.2857140000000129
        },
        {
          "name": "E3",
          "midi": 52,
          "time": 158.57127000000108,
          "velocity": 0.7480314960629921,
          "duration": 0.2857140000000129
        },
        {
          "name": "E4",
          "midi": 64,
          "time": 158.8569840000011,
          "velocity": 0.7480314960629921,
          "duration": 0.2857140000000129
        },
        {
          "name": "B3",
          "midi": 59,
          "time": 158.8569840000011,
          "velocity": 0.7480314960629921,
          "duration": 0.2857140000000129
        },
        {
          "name": "E3",
          "midi": 52,
          "time": 158.8569840000011,
          "velocity": 0.7480314960629921,
          "duration": 0.2857140000000129
        },
        {
          "name": "E4",
          "midi": 64,
          "time": 159.1426980000011,
          "velocity": 0.7480314960629921,
          "duration": 0.2857140000000129
        },
        {
          "name": "B3",
          "midi": 59,
          "time": 159.1426980000011,
          "velocity": 0.7480314960629921,
          "duration": 0.2857140000000129
        },
        {
          "name": "E3",
          "midi": 52,
          "time": 159.1426980000011,
          "velocity": 0.7480314960629921,
          "duration": 0.2857140000000129
        },
        {
          "name": "E4",
          "midi": 64,
          "time": 159.42841200000112,
          "velocity": 0.7480314960629921,
          "duration": 0.2857140000000129
        },
        {
          "name": "B3",
          "midi": 59,
          "time": 159.42841200000112,
          "velocity": 0.7480314960629921,
          "duration": 0.2857140000000129
        },
        {
          "name": "E3",
          "midi": 52,
          "time": 159.42841200000112,
          "velocity": 0.7480314960629921,
          "duration": 0.2857140000000129
        },
        {
          "name": "E4",
          "midi": 64,
          "time": 159.71412600000113,
          "velocity": 0.7480314960629921,
          "duration": 0.2857140000000129
        },
        {
          "name": "B3",
          "midi": 59,
          "time": 159.71412600000113,
          "velocity": 0.7480314960629921,
          "duration": 0.2857140000000129
        },
        {
          "name": "E3",
          "midi": 52,
          "time": 159.71412600000113,
          "velocity": 0.7480314960629921,
          "duration": 0.2857140000000129
        },
        {
          "name": "C#4",
          "midi": 61,
          "time": 159.99984000000114,
          "velocity": 0.7480314960629921,
          "duration": 2.2857119999999895
        },
        {
          "name": "G#3",
          "midi": 56,
          "time": 159.99984000000114,
          "velocity": 0.7480314960629921,
          "duration": 2.2857119999999895
        },
        {
          "name": "C#3",
          "midi": 49,
          "time": 159.99984000000114,
          "velocity": 0.7480314960629921,
          "duration": 2.2857119999999895
        },
        {
          "name": "F#3",
          "midi": 54,
          "time": 162.28555200000113,
          "velocity": 0.7480314960629921,
          "duration": 4.5714240000000075
        },
        {
          "name": "C#3",
          "midi": 49,
          "time": 162.28555200000113,
          "velocity": 0.7480314960629921,
          "duration": 4.5714240000000075
        },
        {
          "name": "F#2",
          "midi": 42,
          "time": 162.28555200000113,
          "velocity": 0.7480314960629921,
          "duration": 4.5714240000000075
        }
      ],
      "controlChanges": {
        "6": [
          {
            "number": 6,
            "time": 0,
            "value": 0.09448818897637795
          },
          {
            "number": 6,
            "time": 0,
            "value": 0.5039370078740157
          },
          {
            "number": 6,
            "time": 0,
            "value": 0.09448818897637795
          },
          {
            "number": 6,
            "time": 0,
            "value": 0.5039370078740157
          },
          {
            "number": 6,
            "time": 0,
            "value": 0.5039370078740157
          },
          {
            "number": 6,
            "time": 0,
            "value": 0.5039370078740157
          }
        ],
        "7": [
          {
            "number": 7,
            "time": 0,
            "value": 0.8818897637795275
          },
          {
            "number": 7,
            "time": 0,
            "value": 0.8818897637795275
          }
        ],
        "10": [
          {
            "number": 10,
            "time": 0,
            "value": 0.5039370078740157
          },
          {
            "number": 10,
            "time": 0,
            "value": 0.5039370078740157
          }
        ],
        "38": [
          {
            "number": 38,
            "time": 0,
            "value": 0
          },
          {
            "number": 38,
            "time": 0,
            "value": 0
          }
        ],
        "91": [
          {
            "number": 91,
            "time": 0,
            "value": 0
          },
          {
            "number": 91,
            "time": 0,
            "value": 0
          }
        ],
        "92": [
          {
            "number": 92,
            "time": 0,
            "value": 0
          },
          {
            "number": 92,
            "time": 0,
            "value": 0
          }
        ],
        "93": [
          {
            "number": 93,
            "time": 0,
            "value": 0
          },
          {
            "number": 93,
            "time": 0,
            "value": 0
          }
        ],
        "95": [
          {
            "number": 95,
            "time": 0,
            "value": 0
          },
          {
            "number": 95,
            "time": 0,
            "value": 0
          }
        ],
        "100": [
          {
            "number": 100,
            "time": 0,
            "value": 0
          },
          {
            "number": 100,
            "time": 0,
            "value": 0.007874015748031496
          },
          {
            "number": 100,
            "time": 0,
            "value": 1
          },
          {
            "number": 100,
            "time": 0,
            "value": 0
          },
          {
            "number": 100,
            "time": 0,
            "value": 0.007874015748031496
          },
          {
            "number": 100,
            "time": 0,
            "value": 1
          },
          {
            "number": 100,
            "time": 0,
            "value": 0.015748031496062992
          },
          {
            "number": 100,
            "time": 0,
            "value": 1
          },
          {
            "number": 100,
            "time": 0,
            "value": 0.015748031496062992
          },
          {
            "number": 100,
            "time": 0,
            "value": 1
          }
        ],
        "101": [
          {
            "number": 101,
            "time": 0,
            "value": 0
          },
          {
            "number": 101,
            "time": 0,
            "value": 0
          },
          {
            "number": 101,
            "time": 0,
            "value": 1
          },
          {
            "number": 101,
            "time": 0,
            "value": 0
          },
          {
            "number": 101,
            "time": 0,
            "value": 0
          },
          {
            "number": 101,
            "time": 0,
            "value": 1
          },
          {
            "number": 101,
            "time": 0,
            "value": 0
          },
          {
            "number": 101,
            "time": 0,
            "value": 1
          },
          {
            "number": 101,
            "time": 0,
            "value": 0
          },
          {
            "number": 101,
            "time": 0,
            "value": 1
          }
        ]
      },
      "id": 1,
      "name": "Alex",
      "instrumentNumber": 29,
      "instrument": "overdriven guitar",
      "instrumentFamily": "guitar",
      "channelNumber": 2,
      "isPercussion": false
    },
    {
      "startTime": 0,
      "duration": 166.85697600000117,
      "length": 1719,
      "notes": [
        {
          "name": "F#3",
          "midi": 54,
          "time": 0,
          "velocity": 0.7480314960629921,
          "duration": 0.285714
        },
        {
          "name": "C#3",
          "midi": 49,
          "time": 0,
          "velocity": 0.7480314960629921,
          "duration": 0.285714
        },
        {
          "name": "F#2",
          "midi": 42,
          "time": 0,
          "velocity": 0.7480314960629921,
          "duration": 0.285714
        },
        {
          "name": "F#3",
          "midi": 54,
          "time": 0.285714,
          "velocity": 0.7480314960629921,
          "duration": 0.285714
        },
        {
          "name": "C#3",
          "midi": 49,
          "time": 0.285714,
          "velocity": 0.7480314960629921,
          "duration": 0.285714
        },
        {
          "name": "F#2",
          "midi": 42,
          "time": 0.285714,
          "velocity": 0.7480314960629921,
          "duration": 0.285714
        },
        {
          "name": "F#3",
          "midi": 54,
          "time": 1.142856,
          "velocity": 0.7480314960629921,
          "duration": 0.285714
        },
        {
          "name": "C#3",
          "midi": 49,
          "time": 1.142856,
          "velocity": 0.7480314960629921,
          "duration": 0.285714
        },
        {
          "name": "F#2",
          "midi": 42,
          "time": 1.142856,
          "velocity": 0.7480314960629921,
          "duration": 0.285714
        },
        {
          "name": "F#3",
          "midi": 54,
          "time": 1.4285700000000001,
          "velocity": 0.7480314960629921,
          "duration": 0.285714
        },
        {
          "name": "C#3",
          "midi": 49,
          "time": 1.4285700000000001,
          "velocity": 0.7480314960629921,
          "duration": 0.285714
        },
        {
          "name": "F#2",
          "midi": 42,
          "time": 1.4285700000000001,
          "velocity": 0.7480314960629921,
          "duration": 0.285714
        },
        {
          "name": "F#3",
          "midi": 54,
          "time": 2.285712,
          "velocity": 0.7480314960629921,
          "duration": 0.285714
        },
        {
          "name": "C#3",
          "midi": 49,
          "time": 2.285712,
          "velocity": 0.7480314960629921,
          "duration": 0.285714
        },
        {
          "name": "F#2",
          "midi": 42,
          "time": 2.285712,
          "velocity": 0.7480314960629921,
          "duration": 0.285714
        },
        {
          "name": "F#3",
          "midi": 54,
          "time": 2.571426,
          "velocity": 0.7480314960629921,
          "duration": 0.285714
        },
        {
          "name": "C#3",
          "midi": 49,
          "time": 2.571426,
          "velocity": 0.7480314960629921,
          "duration": 0.285714
        },
        {
          "name": "F#2",
          "midi": 42,
          "time": 2.571426,
          "velocity": 0.7480314960629921,
          "duration": 0.285714
        },
        {
          "name": "F#3",
          "midi": 54,
          "time": 3.4285680000000003,
          "velocity": 0.7480314960629921,
          "duration": 0.285714
        },
        {
          "name": "C#3",
          "midi": 49,
          "time": 3.4285680000000003,
          "velocity": 0.7480314960629921,
          "duration": 0.285714
        },
        {
          "name": "F#2",
          "midi": 42,
          "time": 3.4285680000000003,
          "velocity": 0.7480314960629921,
          "duration": 0.285714
        },
        {
          "name": "F#3",
          "midi": 54,
          "time": 3.7142820000000003,
          "velocity": 0.7480314960629921,
          "duration": 0.285714
        },
        {
          "name": "C#3",
          "midi": 49,
          "time": 3.7142820000000003,
          "velocity": 0.7480314960629921,
          "duration": 0.285714
        },
        {
          "name": "F#2",
          "midi": 42,
          "time": 3.7142820000000003,
          "velocity": 0.7480314960629921,
          "duration": 0.285714
        },
        {
          "name": "F#3",
          "midi": 54,
          "time": 4.571424,
          "velocity": 0.7480314960629921,
          "duration": 0.28571400000000047
        },
        {
          "name": "C#3",
          "midi": 49,
          "time": 4.571424,
          "velocity": 0.7480314960629921,
          "duration": 0.28571400000000047
        },
        {
          "name": "F#2",
          "midi": 42,
          "time": 4.571424,
          "velocity": 0.7480314960629921,
          "duration": 0.28571400000000047
        },
        {
          "name": "F#3",
          "midi": 54,
          "time": 4.857138000000001,
          "velocity": 0.7480314960629921,
          "duration": 0.28571400000000047
        },
        {
          "name": "C#3",
          "midi": 49,
          "time": 4.857138000000001,
          "velocity": 0.7480314960629921,
          "duration": 0.28571400000000047
        },
        {
          "name": "F#2",
          "midi": 42,
          "time": 4.857138000000001,
          "velocity": 0.7480314960629921,
          "duration": 0.28571400000000047
        },
        {
          "name": "F#3",
          "midi": 54,
          "time": 5.714280000000001,
          "velocity": 0.7480314960629921,
          "duration": 0.2857139999999996
        },
        {
          "name": "C#3",
          "midi": 49,
          "time": 5.714280000000001,
          "velocity": 0.7480314960629921,
          "duration": 0.2857139999999996
        },
        {
          "name": "F#2",
          "midi": 42,
          "time": 5.714280000000001,
          "velocity": 0.7480314960629921,
          "duration": 0.2857139999999996
        },
        {
          "name": "F#3",
          "midi": 54,
          "time": 5.999994000000001,
          "velocity": 0.7480314960629921,
          "duration": 0.28571400000000047
        },
        {
          "name": "C#3",
          "midi": 49,
          "time": 5.999994000000001,
          "velocity": 0.7480314960629921,
          "duration": 0.28571400000000047
        },
        {
          "name": "F#2",
          "midi": 42,
          "time": 5.999994000000001,
          "velocity": 0.7480314960629921,
          "duration": 0.28571400000000047
        },
        {
          "name": "F#3",
          "midi": 54,
          "time": 6.8571360000000015,
          "velocity": 0.7480314960629921,
          "duration": 0.2857139999999996
        },
        {
          "name": "C#3",
          "midi": 49,
          "time": 6.8571360000000015,
          "velocity": 0.7480314960629921,
          "duration": 0.2857139999999996
        },
        {
          "name": "F#2",
          "midi": 42,
          "time": 6.8571360000000015,
          "velocity": 0.7480314960629921,
          "duration": 0.2857139999999996
        },
        {
          "name": "F#3",
          "midi": 54,
          "time": 7.142850000000001,
          "velocity": 0.7480314960629921,
          "duration": 0.28571400000000047
        },
        {
          "name": "C#3",
          "midi": 49,
          "time": 7.142850000000001,
          "velocity": 0.7480314960629921,
          "duration": 0.28571400000000047
        },
        {
          "name": "F#2",
          "midi": 42,
          "time": 7.142850000000001,
          "velocity": 0.7480314960629921,
          "duration": 0.28571400000000047
        },
        {
          "name": "F#3",
          "midi": 54,
          "time": 7.9999920000000015,
          "velocity": 0.7480314960629921,
          "duration": 0.2857139999999996
        },
        {
          "name": "C#3",
          "midi": 49,
          "time": 7.9999920000000015,
          "velocity": 0.7480314960629921,
          "duration": 0.2857139999999996
        },
        {
          "name": "F#2",
          "midi": 42,
          "time": 7.9999920000000015,
          "velocity": 0.7480314960629921,
          "duration": 0.2857139999999996
        },
        {
          "name": "F#3",
          "midi": 54,
          "time": 8.285706000000001,
          "velocity": 0.7480314960629921,
          "duration": 0.28571400000000047
        },
        {
          "name": "C#3",
          "midi": 49,
          "time": 8.285706000000001,
          "velocity": 0.7480314960629921,
          "duration": 0.28571400000000047
        },
        {
          "name": "F#2",
          "midi": 42,
          "time": 8.285706000000001,
          "velocity": 0.7480314960629921,
          "duration": 0.28571400000000047
        },
        {
          "name": "F#3",
          "midi": 54,
          "time": 9.142848,
          "velocity": 0.7480314960629921,
          "duration": 0.14285699999999935
        },
        {
          "name": "C#3",
          "midi": 49,
          "time": 9.142848,
          "velocity": 0.7480314960629921,
          "duration": 0.14285699999999935
        },
        {
          "name": "F#2",
          "midi": 42,
          "time": 9.142848,
          "velocity": 0.7480314960629921,
          "duration": 0.14285699999999935
        },
        {
          "name": "F#3",
          "midi": 54,
          "time": 9.285705,
          "velocity": 0.7480314960629921,
          "duration": 0.14285699999999935
        },
        {
          "name": "C#3",
          "midi": 49,
          "time": 9.285705,
          "velocity": 0.7480314960629921,
          "duration": 0.14285699999999935
        },
        {
          "name": "F#2",
          "midi": 42,
          "time": 9.285705,
          "velocity": 0.7480314960629921,
          "duration": 0.14285699999999935
        },
        {
          "name": "F#3",
          "midi": 54,
          "time": 9.428562,
          "velocity": 0.7480314960629921,
          "duration": 0.14285699999999935
        },
        {
          "name": "C#3",
          "midi": 49,
          "time": 9.428562,
          "velocity": 0.7480314960629921,
          "duration": 0.14285699999999935
        },
        {
          "name": "F#2",
          "midi": 42,
          "time": 9.428562,
          "velocity": 0.7480314960629921,
          "duration": 0.14285699999999935
        },
        {
          "name": "F#3",
          "midi": 54,
          "time": 9.571418999999999,
          "velocity": 0.7480314960629921,
          "duration": 0.14285699999999935
        },
        {
          "name": "C#3",
          "midi": 49,
          "time": 9.571418999999999,
          "velocity": 0.7480314960629921,
          "duration": 0.14285699999999935
        },
        {
          "name": "F#2",
          "midi": 42,
          "time": 9.571418999999999,
          "velocity": 0.7480314960629921,
          "duration": 0.14285699999999935
        },
        {
          "name": "F#3",
          "midi": 54,
          "time": 9.714275999999998,
          "velocity": 0.7480314960629921,
          "duration": 0.14285699999999935
        },
        {
          "name": "C#3",
          "midi": 49,
          "time": 9.714275999999998,
          "velocity": 0.7480314960629921,
          "duration": 0.14285699999999935
        },
        {
          "name": "F#2",
          "midi": 42,
          "time": 9.714275999999998,
          "velocity": 0.7480314960629921,
          "duration": 0.14285699999999935
        },
        {
          "name": "F#3",
          "midi": 54,
          "time": 9.857132999999997,
          "velocity": 0.7480314960629921,
          "duration": 0.14285699999999935
        },
        {
          "name": "C#3",
          "midi": 49,
          "time": 9.857132999999997,
          "velocity": 0.7480314960629921,
          "duration": 0.14285699999999935
        },
        {
          "name": "F#2",
          "midi": 42,
          "time": 9.857132999999997,
          "velocity": 0.7480314960629921,
          "duration": 0.14285699999999935
        },
        {
          "name": "F#3",
          "midi": 54,
          "time": 9.999989999999997,
          "velocity": 0.7480314960629921,
          "duration": 0.14285699999999935
        },
        {
          "name": "C#3",
          "midi": 49,
          "time": 9.999989999999997,
          "velocity": 0.7480314960629921,
          "duration": 0.14285699999999935
        },
        {
          "name": "F#2",
          "midi": 42,
          "time": 9.999989999999997,
          "velocity": 0.7480314960629921,
          "duration": 0.14285699999999935
        },
        {
          "name": "F#3",
          "midi": 54,
          "time": 10.142846999999996,
          "velocity": 0.7480314960629921,
          "duration": 0.14285699999999935
        },
        {
          "name": "C#3",
          "midi": 49,
          "time": 10.142846999999996,
          "velocity": 0.7480314960629921,
          "duration": 0.14285699999999935
        },
        {
          "name": "F#2",
          "midi": 42,
          "time": 10.142846999999996,
          "velocity": 0.7480314960629921,
          "duration": 0.14285699999999935
        },
        {
          "name": "F#3",
          "midi": 54,
          "time": 10.285703999999996,
          "velocity": 0.7480314960629921,
          "duration": 0.14285699999999935
        },
        {
          "name": "C#3",
          "midi": 49,
          "time": 10.285703999999996,
          "velocity": 0.7480314960629921,
          "duration": 0.14285699999999935
        },
        {
          "name": "F#2",
          "midi": 42,
          "time": 10.285703999999996,
          "velocity": 0.7480314960629921,
          "duration": 0.14285699999999935
        },
        {
          "name": "F#3",
          "midi": 54,
          "time": 10.428560999999995,
          "velocity": 0.7480314960629921,
          "duration": 0.14285699999999935
        },
        {
          "name": "C#3",
          "midi": 49,
          "time": 10.428560999999995,
          "velocity": 0.7480314960629921,
          "duration": 0.14285699999999935
        },
        {
          "name": "F#2",
          "midi": 42,
          "time": 10.428560999999995,
          "velocity": 0.7480314960629921,
          "duration": 0.14285699999999935
        },
        {
          "name": "F#3",
          "midi": 54,
          "time": 10.571417999999994,
          "velocity": 0.7480314960629921,
          "duration": 0.14285699999999935
        },
        {
          "name": "C#3",
          "midi": 49,
          "time": 10.571417999999994,
          "velocity": 0.7480314960629921,
          "duration": 0.14285699999999935
        },
        {
          "name": "F#2",
          "midi": 42,
          "time": 10.571417999999994,
          "velocity": 0.7480314960629921,
          "duration": 0.14285699999999935
        },
        {
          "name": "F#3",
          "midi": 54,
          "time": 10.714274999999994,
          "velocity": 0.7480314960629921,
          "duration": 0.14285699999999935
        },
        {
          "name": "C#3",
          "midi": 49,
          "time": 10.714274999999994,
          "velocity": 0.7480314960629921,
          "duration": 0.14285699999999935
        },
        {
          "name": "F#2",
          "midi": 42,
          "time": 10.714274999999994,
          "velocity": 0.7480314960629921,
          "duration": 0.14285699999999935
        },
        {
          "name": "F#3",
          "midi": 54,
          "time": 10.857131999999993,
          "velocity": 0.7480314960629921,
          "duration": 0.14285699999999935
        },
        {
          "name": "C#3",
          "midi": 49,
          "time": 10.857131999999993,
          "velocity": 0.7480314960629921,
          "duration": 0.14285699999999935
        },
        {
          "name": "F#2",
          "midi": 42,
          "time": 10.857131999999993,
          "velocity": 0.7480314960629921,
          "duration": 0.14285699999999935
        },
        {
          "name": "F#3",
          "midi": 54,
          "time": 10.999988999999992,
          "velocity": 0.7480314960629921,
          "duration": 0.14285699999999935
        },
        {
          "name": "C#3",
          "midi": 49,
          "time": 10.999988999999992,
          "velocity": 0.7480314960629921,
          "duration": 0.14285699999999935
        },
        {
          "name": "F#2",
          "midi": 42,
          "time": 10.999988999999992,
          "velocity": 0.7480314960629921,
          "duration": 0.14285699999999935
        },
        {
          "name": "F#3",
          "midi": 54,
          "time": 11.142845999999992,
          "velocity": 0.7480314960629921,
          "duration": 0.14285699999999935
        },
        {
          "name": "C#3",
          "midi": 49,
          "time": 11.142845999999992,
          "velocity": 0.7480314960629921,
          "duration": 0.14285699999999935
        },
        {
          "name": "F#2",
          "midi": 42,
          "time": 11.142845999999992,
          "velocity": 0.7480314960629921,
          "duration": 0.14285699999999935
        },
        {
          "name": "F#3",
          "midi": 54,
          "time": 11.285702999999991,
          "velocity": 0.7480314960629921,
          "duration": 0.14285699999999935
        },
        {
          "name": "C#3",
          "midi": 49,
          "time": 11.285702999999991,
          "velocity": 0.7480314960629921,
          "duration": 0.14285699999999935
        },
        {
          "name": "F#2",
          "midi": 42,
          "time": 11.285702999999991,
          "velocity": 0.7480314960629921,
          "duration": 0.14285699999999935
        },
        {
          "name": "F#3",
          "midi": 54,
          "time": 11.42855999999999,
          "velocity": 0.7480314960629921,
          "duration": 0.14285699999999935
        },
        {
          "name": "C#3",
          "midi": 49,
          "time": 11.42855999999999,
          "velocity": 0.7480314960629921,
          "duration": 0.14285699999999935
        },
        {
          "name": "F#2",
          "midi": 42,
          "time": 11.42855999999999,
          "velocity": 0.7480314960629921,
          "duration": 0.14285699999999935
        },
        {
          "name": "F#3",
          "midi": 54,
          "time": 11.57141699999999,
          "velocity": 0.7480314960629921,
          "duration": 0.14285699999999935
        },
        {
          "name": "C#3",
          "midi": 49,
          "time": 11.57141699999999,
          "velocity": 0.7480314960629921,
          "duration": 0.14285699999999935
        },
        {
          "name": "F#2",
          "midi": 42,
          "time": 11.57141699999999,
          "velocity": 0.7480314960629921,
          "duration": 0.14285699999999935
        },
        {
          "name": "F#3",
          "midi": 54,
          "time": 11.714273999999989,
          "velocity": 0.7480314960629921,
          "duration": 0.14285699999999935
        },
        {
          "name": "C#3",
          "midi": 49,
          "time": 11.714273999999989,
          "velocity": 0.7480314960629921,
          "duration": 0.14285699999999935
        },
        {
          "name": "F#2",
          "midi": 42,
          "time": 11.714273999999989,
          "velocity": 0.7480314960629921,
          "duration": 0.14285699999999935
        },
        {
          "name": "F#3",
          "midi": 54,
          "time": 11.857130999999988,
          "velocity": 0.7480314960629921,
          "duration": 0.14285699999999935
        },
        {
          "name": "C#3",
          "midi": 49,
          "time": 11.857130999999988,
          "velocity": 0.7480314960629921,
          "duration": 0.14285699999999935
        },
        {
          "name": "F#2",
          "midi": 42,
          "time": 11.857130999999988,
          "velocity": 0.7480314960629921,
          "duration": 0.14285699999999935
        },
        {
          "name": "F#3",
          "midi": 54,
          "time": 11.999987999999988,
          "velocity": 0.7480314960629921,
          "duration": 0.14285699999999935
        },
        {
          "name": "C#3",
          "midi": 49,
          "time": 11.999987999999988,
          "velocity": 0.7480314960629921,
          "duration": 0.14285699999999935
        },
        {
          "name": "F#2",
          "midi": 42,
          "time": 11.999987999999988,
          "velocity": 0.7480314960629921,
          "duration": 0.14285699999999935
        },
        {
          "name": "F#3",
          "midi": 54,
          "time": 12.142844999999987,
          "velocity": 0.7480314960629921,
          "duration": 0.14285699999999935
        },
        {
          "name": "C#3",
          "midi": 49,
          "time": 12.142844999999987,
          "velocity": 0.7480314960629921,
          "duration": 0.14285699999999935
        },
        {
          "name": "F#2",
          "midi": 42,
          "time": 12.142844999999987,
          "velocity": 0.7480314960629921,
          "duration": 0.14285699999999935
        },
        {
          "name": "F#3",
          "midi": 54,
          "time": 12.285701999999986,
          "velocity": 0.7480314960629921,
          "duration": 0.14285699999999935
        },
        {
          "name": "C#3",
          "midi": 49,
          "time": 12.285701999999986,
          "velocity": 0.7480314960629921,
          "duration": 0.14285699999999935
        },
        {
          "name": "F#2",
          "midi": 42,
          "time": 12.285701999999986,
          "velocity": 0.7480314960629921,
          "duration": 0.14285699999999935
        },
        {
          "name": "F#3",
          "midi": 54,
          "time": 12.428558999999986,
          "velocity": 0.7480314960629921,
          "duration": 0.14285699999999935
        },
        {
          "name": "C#3",
          "midi": 49,
          "time": 12.428558999999986,
          "velocity": 0.7480314960629921,
          "duration": 0.14285699999999935
        },
        {
          "name": "F#2",
          "midi": 42,
          "time": 12.428558999999986,
          "velocity": 0.7480314960629921,
          "duration": 0.14285699999999935
        },
        {
          "name": "F#3",
          "midi": 54,
          "time": 12.571415999999985,
          "velocity": 0.7480314960629921,
          "duration": 0.14285699999999935
        },
        {
          "name": "C#3",
          "midi": 49,
          "time": 12.571415999999985,
          "velocity": 0.7480314960629921,
          "duration": 0.14285699999999935
        },
        {
          "name": "F#2",
          "midi": 42,
          "time": 12.571415999999985,
          "velocity": 0.7480314960629921,
          "duration": 0.14285699999999935
        },
        {
          "name": "F#3",
          "midi": 54,
          "time": 12.714272999999984,
          "velocity": 0.7480314960629921,
          "duration": 0.14285699999999935
        },
        {
          "name": "C#3",
          "midi": 49,
          "time": 12.714272999999984,
          "velocity": 0.7480314960629921,
          "duration": 0.14285699999999935
        },
        {
          "name": "F#2",
          "midi": 42,
          "time": 12.714272999999984,
          "velocity": 0.7480314960629921,
          "duration": 0.14285699999999935
        },
        {
          "name": "F#3",
          "midi": 54,
          "time": 12.857129999999984,
          "velocity": 0.7480314960629921,
          "duration": 0.14285699999999935
        },
        {
          "name": "C#3",
          "midi": 49,
          "time": 12.857129999999984,
          "velocity": 0.7480314960629921,
          "duration": 0.14285699999999935
        },
        {
          "name": "F#2",
          "midi": 42,
          "time": 12.857129999999984,
          "velocity": 0.7480314960629921,
          "duration": 0.14285699999999935
        },
        {
          "name": "F#3",
          "midi": 54,
          "time": 12.999986999999983,
          "velocity": 0.7480314960629921,
          "duration": 0.14285699999999935
        },
        {
          "name": "C#3",
          "midi": 49,
          "time": 12.999986999999983,
          "velocity": 0.7480314960629921,
          "duration": 0.14285699999999935
        },
        {
          "name": "F#2",
          "midi": 42,
          "time": 12.999986999999983,
          "velocity": 0.7480314960629921,
          "duration": 0.14285699999999935
        },
        {
          "name": "F#3",
          "midi": 54,
          "time": 13.142843999999982,
          "velocity": 0.7480314960629921,
          "duration": 0.14285699999999935
        },
        {
          "name": "C#3",
          "midi": 49,
          "time": 13.142843999999982,
          "velocity": 0.7480314960629921,
          "duration": 0.14285699999999935
        },
        {
          "name": "F#2",
          "midi": 42,
          "time": 13.142843999999982,
          "velocity": 0.7480314960629921,
          "duration": 0.14285699999999935
        },
        {
          "name": "F#3",
          "midi": 54,
          "time": 13.285700999999982,
          "velocity": 0.7480314960629921,
          "duration": 0.14285699999999935
        },
        {
          "name": "C#3",
          "midi": 49,
          "time": 13.285700999999982,
          "velocity": 0.7480314960629921,
          "duration": 0.14285699999999935
        },
        {
          "name": "F#2",
          "midi": 42,
          "time": 13.285700999999982,
          "velocity": 0.7480314960629921,
          "duration": 0.14285699999999935
        },
        {
          "name": "F#3",
          "midi": 54,
          "time": 13.428557999999981,
          "velocity": 0.7480314960629921,
          "duration": 0.14285699999999935
        },
        {
          "name": "C#3",
          "midi": 49,
          "time": 13.428557999999981,
          "velocity": 0.7480314960629921,
          "duration": 0.14285699999999935
        },
        {
          "name": "F#2",
          "midi": 42,
          "time": 13.428557999999981,
          "velocity": 0.7480314960629921,
          "duration": 0.14285699999999935
        },
        {
          "name": "F#3",
          "midi": 54,
          "time": 13.57141499999998,
          "velocity": 0.7480314960629921,
          "duration": 0.14285699999999935
        },
        {
          "name": "C#3",
          "midi": 49,
          "time": 13.57141499999998,
          "velocity": 0.7480314960629921,
          "duration": 0.14285699999999935
        },
        {
          "name": "F#2",
          "midi": 42,
          "time": 13.57141499999998,
          "velocity": 0.7480314960629921,
          "duration": 0.14285699999999935
        },
        {
          "name": "F#3",
          "midi": 54,
          "time": 13.71427199999998,
          "velocity": 0.7480314960629921,
          "duration": 0.14285699999999935
        },
        {
          "name": "C#3",
          "midi": 49,
          "time": 13.71427199999998,
          "velocity": 0.7480314960629921,
          "duration": 0.14285699999999935
        },
        {
          "name": "F#2",
          "midi": 42,
          "time": 13.71427199999998,
          "velocity": 0.7480314960629921,
          "duration": 0.14285699999999935
        },
        {
          "name": "F#3",
          "midi": 54,
          "time": 13.85712899999998,
          "velocity": 0.7480314960629921,
          "duration": 0.14285699999999935
        },
        {
          "name": "C#3",
          "midi": 49,
          "time": 13.85712899999998,
          "velocity": 0.7480314960629921,
          "duration": 0.14285699999999935
        },
        {
          "name": "F#2",
          "midi": 42,
          "time": 13.85712899999998,
          "velocity": 0.7480314960629921,
          "duration": 0.14285699999999935
        },
        {
          "name": "F#3",
          "midi": 54,
          "time": 13.999985999999979,
          "velocity": 0.7480314960629921,
          "duration": 0.14285699999999935
        },
        {
          "name": "C#3",
          "midi": 49,
          "time": 13.999985999999979,
          "velocity": 0.7480314960629921,
          "duration": 0.14285699999999935
        },
        {
          "name": "F#2",
          "midi": 42,
          "time": 13.999985999999979,
          "velocity": 0.7480314960629921,
          "duration": 0.14285699999999935
        },
        {
          "name": "F#3",
          "midi": 54,
          "time": 14.142842999999978,
          "velocity": 0.7480314960629921,
          "duration": 0.14285699999999935
        },
        {
          "name": "C#3",
          "midi": 49,
          "time": 14.142842999999978,
          "velocity": 0.7480314960629921,
          "duration": 0.14285699999999935
        },
        {
          "name": "F#2",
          "midi": 42,
          "time": 14.142842999999978,
          "velocity": 0.7480314960629921,
          "duration": 0.14285699999999935
        },
        {
          "name": "F#3",
          "midi": 54,
          "time": 14.285699999999977,
          "velocity": 0.7480314960629921,
          "duration": 0.14285699999999935
        },
        {
          "name": "C#3",
          "midi": 49,
          "time": 14.285699999999977,
          "velocity": 0.7480314960629921,
          "duration": 0.14285699999999935
        },
        {
          "name": "F#2",
          "midi": 42,
          "time": 14.285699999999977,
          "velocity": 0.7480314960629921,
          "duration": 0.14285699999999935
        },
        {
          "name": "F#3",
          "midi": 54,
          "time": 14.428556999999977,
          "velocity": 0.7480314960629921,
          "duration": 0.14285699999999935
        },
        {
          "name": "C#3",
          "midi": 49,
          "time": 14.428556999999977,
          "velocity": 0.7480314960629921,
          "duration": 0.14285699999999935
        },
        {
          "name": "F#2",
          "midi": 42,
          "time": 14.428556999999977,
          "velocity": 0.7480314960629921,
          "duration": 0.14285699999999935
        },
        {
          "name": "F#3",
          "midi": 54,
          "time": 14.571413999999976,
          "velocity": 0.7480314960629921,
          "duration": 0.14285699999999935
        },
        {
          "name": "C#3",
          "midi": 49,
          "time": 14.571413999999976,
          "velocity": 0.7480314960629921,
          "duration": 0.14285699999999935
        },
        {
          "name": "F#2",
          "midi": 42,
          "time": 14.571413999999976,
          "velocity": 0.7480314960629921,
          "duration": 0.14285699999999935
        },
        {
          "name": "F#3",
          "midi": 54,
          "time": 14.714270999999975,
          "velocity": 0.7480314960629921,
          "duration": 0.14285699999999935
        },
        {
          "name": "C#3",
          "midi": 49,
          "time": 14.714270999999975,
          "velocity": 0.7480314960629921,
          "duration": 0.14285699999999935
        },
        {
          "name": "F#2",
          "midi": 42,
          "time": 14.714270999999975,
          "velocity": 0.7480314960629921,
          "duration": 0.14285699999999935
        },
        {
          "name": "F#3",
          "midi": 54,
          "time": 14.857127999999975,
          "velocity": 0.7480314960629921,
          "duration": 0.14285699999999935
        },
        {
          "name": "C#3",
          "midi": 49,
          "time": 14.857127999999975,
          "velocity": 0.7480314960629921,
          "duration": 0.14285699999999935
        },
        {
          "name": "F#2",
          "midi": 42,
          "time": 14.857127999999975,
          "velocity": 0.7480314960629921,
          "duration": 0.14285699999999935
        },
        {
          "name": "F#3",
          "midi": 54,
          "time": 14.999984999999974,
          "velocity": 0.7480314960629921,
          "duration": 0.14285699999999935
        },
        {
          "name": "C#3",
          "midi": 49,
          "time": 14.999984999999974,
          "velocity": 0.7480314960629921,
          "duration": 0.14285699999999935
        },
        {
          "name": "F#2",
          "midi": 42,
          "time": 14.999984999999974,
          "velocity": 0.7480314960629921,
          "duration": 0.14285699999999935
        },
        {
          "name": "F#3",
          "midi": 54,
          "time": 15.142841999999973,
          "velocity": 0.7480314960629921,
          "duration": 0.14285699999999935
        },
        {
          "name": "C#3",
          "midi": 49,
          "time": 15.142841999999973,
          "velocity": 0.7480314960629921,
          "duration": 0.14285699999999935
        },
        {
          "name": "F#2",
          "midi": 42,
          "time": 15.142841999999973,
          "velocity": 0.7480314960629921,
          "duration": 0.14285699999999935
        },
        {
          "name": "F#3",
          "midi": 54,
          "time": 15.285698999999973,
          "velocity": 0.7480314960629921,
          "duration": 0.14285699999999935
        },
        {
          "name": "C#3",
          "midi": 49,
          "time": 15.285698999999973,
          "velocity": 0.7480314960629921,
          "duration": 0.14285699999999935
        },
        {
          "name": "F#2",
          "midi": 42,
          "time": 15.285698999999973,
          "velocity": 0.7480314960629921,
          "duration": 0.14285699999999935
        },
        {
          "name": "F#3",
          "midi": 54,
          "time": 15.428555999999972,
          "velocity": 0.7480314960629921,
          "duration": 0.14285699999999935
        },
        {
          "name": "C#3",
          "midi": 49,
          "time": 15.428555999999972,
          "velocity": 0.7480314960629921,
          "duration": 0.14285699999999935
        },
        {
          "name": "F#2",
          "midi": 42,
          "time": 15.428555999999972,
          "velocity": 0.7480314960629921,
          "duration": 0.14285699999999935
        },
        {
          "name": "F#3",
          "midi": 54,
          "time": 15.571412999999971,
          "velocity": 0.7480314960629921,
          "duration": 0.14285699999999935
        },
        {
          "name": "C#3",
          "midi": 49,
          "time": 15.571412999999971,
          "velocity": 0.7480314960629921,
          "duration": 0.14285699999999935
        },
        {
          "name": "F#2",
          "midi": 42,
          "time": 15.571412999999971,
          "velocity": 0.7480314960629921,
          "duration": 0.14285699999999935
        },
        {
          "name": "F#3",
          "midi": 54,
          "time": 15.71426999999997,
          "velocity": 0.7480314960629921,
          "duration": 0.14285699999999935
        },
        {
          "name": "C#3",
          "midi": 49,
          "time": 15.71426999999997,
          "velocity": 0.7480314960629921,
          "duration": 0.14285699999999935
        },
        {
          "name": "F#2",
          "midi": 42,
          "time": 15.71426999999997,
          "velocity": 0.7480314960629921,
          "duration": 0.14285699999999935
        },
        {
          "name": "F#3",
          "midi": 54,
          "time": 15.85712699999997,
          "velocity": 0.7480314960629921,
          "duration": 0.14285699999999935
        },
        {
          "name": "C#3",
          "midi": 49,
          "time": 15.85712699999997,
          "velocity": 0.7480314960629921,
          "duration": 0.14285699999999935
        },
        {
          "name": "F#2",
          "midi": 42,
          "time": 15.85712699999997,
          "velocity": 0.7480314960629921,
          "duration": 0.14285699999999935
        },
        {
          "name": "F#3",
          "midi": 54,
          "time": 15.99998399999997,
          "velocity": 0.7480314960629921,
          "duration": 0.14285699999999935
        },
        {
          "name": "C#3",
          "midi": 49,
          "time": 15.99998399999997,
          "velocity": 0.7480314960629921,
          "duration": 0.14285699999999935
        },
        {
          "name": "F#2",
          "midi": 42,
          "time": 15.99998399999997,
          "velocity": 0.7480314960629921,
          "duration": 0.14285699999999935
        },
        {
          "name": "F#3",
          "midi": 54,
          "time": 16.14284099999997,
          "velocity": 0.7480314960629921,
          "duration": 0.14285699999999935
        },
        {
          "name": "C#3",
          "midi": 49,
          "time": 16.14284099999997,
          "velocity": 0.7480314960629921,
          "duration": 0.14285699999999935
        },
        {
          "name": "F#2",
          "midi": 42,
          "time": 16.14284099999997,
          "velocity": 0.7480314960629921,
          "duration": 0.14285699999999935
        },
        {
          "name": "F#3",
          "midi": 54,
          "time": 16.285697999999968,
          "velocity": 0.7480314960629921,
          "duration": 0.14285699999999935
        },
        {
          "name": "C#3",
          "midi": 49,
          "time": 16.285697999999968,
          "velocity": 0.7480314960629921,
          "duration": 0.14285699999999935
        },
        {
          "name": "F#2",
          "midi": 42,
          "time": 16.285697999999968,
          "velocity": 0.7480314960629921,
          "duration": 0.14285699999999935
        },
        {
          "name": "F#3",
          "midi": 54,
          "time": 16.428554999999967,
          "velocity": 0.7480314960629921,
          "duration": 0.14285699999999935
        },
        {
          "name": "C#3",
          "midi": 49,
          "time": 16.428554999999967,
          "velocity": 0.7480314960629921,
          "duration": 0.14285699999999935
        },
        {
          "name": "F#2",
          "midi": 42,
          "time": 16.428554999999967,
          "velocity": 0.7480314960629921,
          "duration": 0.14285699999999935
        },
        {
          "name": "F#3",
          "midi": 54,
          "time": 16.571411999999967,
          "velocity": 0.7480314960629921,
          "duration": 0.14285699999999935
        },
        {
          "name": "C#3",
          "midi": 49,
          "time": 16.571411999999967,
          "velocity": 0.7480314960629921,
          "duration": 0.14285699999999935
        },
        {
          "name": "F#2",
          "midi": 42,
          "time": 16.571411999999967,
          "velocity": 0.7480314960629921,
          "duration": 0.14285699999999935
        },
        {
          "name": "F#3",
          "midi": 54,
          "time": 16.714268999999966,
          "velocity": 0.7480314960629921,
          "duration": 0.14285699999999935
        },
        {
          "name": "C#3",
          "midi": 49,
          "time": 16.714268999999966,
          "velocity": 0.7480314960629921,
          "duration": 0.14285699999999935
        },
        {
          "name": "F#2",
          "midi": 42,
          "time": 16.714268999999966,
          "velocity": 0.7480314960629921,
          "duration": 0.14285699999999935
        },
        {
          "name": "F#3",
          "midi": 54,
          "time": 16.857125999999965,
          "velocity": 0.7480314960629921,
          "duration": 0.14285699999999935
        },
        {
          "name": "C#3",
          "midi": 49,
          "time": 16.857125999999965,
          "velocity": 0.7480314960629921,
          "duration": 0.14285699999999935
        },
        {
          "name": "F#2",
          "midi": 42,
          "time": 16.857125999999965,
          "velocity": 0.7480314960629921,
          "duration": 0.14285699999999935
        },
        {
          "name": "F#3",
          "midi": 54,
          "time": 16.999982999999965,
          "velocity": 0.7480314960629921,
          "duration": 0.14285699999999935
        },
        {
          "name": "C#3",
          "midi": 49,
          "time": 16.999982999999965,
          "velocity": 0.7480314960629921,
          "duration": 0.14285699999999935
        },
        {
          "name": "F#2",
          "midi": 42,
          "time": 16.999982999999965,
          "velocity": 0.7480314960629921,
          "duration": 0.14285699999999935
        },
        {
          "name": "F#3",
          "midi": 54,
          "time": 17.142839999999964,
          "velocity": 0.7480314960629921,
          "duration": 0.14285699999999935
        },
        {
          "name": "C#3",
          "midi": 49,
          "time": 17.142839999999964,
          "velocity": 0.7480314960629921,
          "duration": 0.14285699999999935
        },
        {
          "name": "F#2",
          "midi": 42,
          "time": 17.142839999999964,
          "velocity": 0.7480314960629921,
          "duration": 0.14285699999999935
        },
        {
          "name": "F#3",
          "midi": 54,
          "time": 17.285696999999963,
          "velocity": 0.7480314960629921,
          "duration": 0.14285699999999935
        },
        {
          "name": "C#3",
          "midi": 49,
          "time": 17.285696999999963,
          "velocity": 0.7480314960629921,
          "duration": 0.14285699999999935
        },
        {
          "name": "F#2",
          "midi": 42,
          "time": 17.285696999999963,
          "velocity": 0.7480314960629921,
          "duration": 0.14285699999999935
        },
        {
          "name": "F#3",
          "midi": 54,
          "time": 17.428553999999963,
          "velocity": 0.7480314960629921,
          "duration": 0.14285699999999935
        },
        {
          "name": "C#3",
          "midi": 49,
          "time": 17.428553999999963,
          "velocity": 0.7480314960629921,
          "duration": 0.14285699999999935
        },
        {
          "name": "F#2",
          "midi": 42,
          "time": 17.428553999999963,
          "velocity": 0.7480314960629921,
          "duration": 0.14285699999999935
        },
        {
          "name": "F#3",
          "midi": 54,
          "time": 17.571410999999962,
          "velocity": 0.7480314960629921,
          "duration": 0.14285699999999935
        },
        {
          "name": "C#3",
          "midi": 49,
          "time": 17.571410999999962,
          "velocity": 0.7480314960629921,
          "duration": 0.14285699999999935
        },
        {
          "name": "F#2",
          "midi": 42,
          "time": 17.571410999999962,
          "velocity": 0.7480314960629921,
          "duration": 0.14285699999999935
        },
        {
          "name": "F#3",
          "midi": 54,
          "time": 17.71426799999996,
          "velocity": 0.7480314960629921,
          "duration": 0.14285699999999935
        },
        {
          "name": "C#3",
          "midi": 49,
          "time": 17.71426799999996,
          "velocity": 0.7480314960629921,
          "duration": 0.14285699999999935
        },
        {
          "name": "F#2",
          "midi": 42,
          "time": 17.71426799999996,
          "velocity": 0.7480314960629921,
          "duration": 0.14285699999999935
        },
        {
          "name": "F#3",
          "midi": 54,
          "time": 17.85712499999996,
          "velocity": 0.7480314960629921,
          "duration": 0.14285699999999935
        },
        {
          "name": "C#3",
          "midi": 49,
          "time": 17.85712499999996,
          "velocity": 0.7480314960629921,
          "duration": 0.14285699999999935
        },
        {
          "name": "F#2",
          "midi": 42,
          "time": 17.85712499999996,
          "velocity": 0.7480314960629921,
          "duration": 0.14285699999999935
        },
        {
          "name": "F#3",
          "midi": 54,
          "time": 17.99998199999996,
          "velocity": 0.7480314960629921,
          "duration": 0.14285699999999935
        },
        {
          "name": "C#3",
          "midi": 49,
          "time": 17.99998199999996,
          "velocity": 0.7480314960629921,
          "duration": 0.14285699999999935
        },
        {
          "name": "F#2",
          "midi": 42,
          "time": 17.99998199999996,
          "velocity": 0.7480314960629921,
          "duration": 0.14285699999999935
        },
        {
          "name": "F#3",
          "midi": 54,
          "time": 18.14283899999996,
          "velocity": 0.7480314960629921,
          "duration": 0.14285699999999935
        },
        {
          "name": "C#3",
          "midi": 49,
          "time": 18.14283899999996,
          "velocity": 0.7480314960629921,
          "duration": 0.14285699999999935
        },
        {
          "name": "F#2",
          "midi": 42,
          "time": 18.14283899999996,
          "velocity": 0.7480314960629921,
          "duration": 0.14285699999999935
        },
        {
          "name": "C#4",
          "midi": 61,
          "time": 18.28569599999996,
          "velocity": 0.7480314960629921,
          "duration": 0.2857139999999987
        },
        {
          "name": "G#3",
          "midi": 56,
          "time": 18.28569599999996,
          "velocity": 0.7480314960629921,
          "duration": 0.2857139999999987
        },
        {
          "name": "C#3",
          "midi": 49,
          "time": 18.28569599999996,
          "velocity": 0.7480314960629921,
          "duration": 0.14285699999999935
        },
        {
          "name": "C#4",
          "midi": 61,
          "time": 18.571409999999958,
          "velocity": 0.7480314960629921,
          "duration": 0.14285699999999935
        },
        {
          "name": "G#3",
          "midi": 56,
          "time": 18.571409999999958,
          "velocity": 0.7480314960629921,
          "duration": 0.14285699999999935
        },
        {
          "name": "C#3",
          "midi": 49,
          "time": 18.571409999999958,
          "velocity": 0.7480314960629921,
          "duration": 0.14285699999999935
        },
        {
          "name": "B3",
          "midi": 59,
          "time": 18.714266999999957,
          "velocity": 0.7480314960629921,
          "duration": 0.2857139999999987
        },
        {
          "name": "F#3",
          "midi": 54,
          "time": 18.714266999999957,
          "velocity": 0.7480314960629921,
          "duration": 0.2857139999999987
        },
        {
          "name": "B2",
          "midi": 47,
          "time": 18.714266999999957,
          "velocity": 0.7480314960629921,
          "duration": 0.14285699999999935
        },
        {
          "name": "B3",
          "midi": 59,
          "time": 18.999980999999956,
          "velocity": 0.7480314960629921,
          "duration": 0.2857139999999987
        },
        {
          "name": "F#3",
          "midi": 54,
          "time": 18.999980999999956,
          "velocity": 0.7480314960629921,
          "duration": 0.2857139999999987
        },
        {
          "name": "B2",
          "midi": 47,
          "time": 18.999980999999956,
          "velocity": 0.7480314960629921,
          "duration": 0.14285699999999935
        },
        {
          "name": "B3",
          "midi": 59,
          "time": 19.285694999999954,
          "velocity": 0.7480314960629921,
          "duration": 0.14285699999999935
        },
        {
          "name": "F#3",
          "midi": 54,
          "time": 19.285694999999954,
          "velocity": 0.7480314960629921,
          "duration": 0.14285699999999935
        },
        {
          "name": "B2",
          "midi": 47,
          "time": 19.285694999999954,
          "velocity": 0.7480314960629921,
          "duration": 0.14285699999999935
        },
        {
          "name": "A3",
          "midi": 57,
          "time": 19.428551999999954,
          "velocity": 0.7480314960629921,
          "duration": 0.2857139999999987
        },
        {
          "name": "E3",
          "midi": 52,
          "time": 19.428551999999954,
          "velocity": 0.7480314960629921,
          "duration": 0.2857139999999987
        },
        {
          "name": "A2",
          "midi": 45,
          "time": 19.428551999999954,
          "velocity": 0.7480314960629921,
          "duration": 0.2857139999999987
        },
        {
          "name": "A3",
          "midi": 57,
          "time": 19.714265999999952,
          "velocity": 0.7480314960629921,
          "duration": 0.2857139999999987
        },
        {
          "name": "E3",
          "midi": 52,
          "time": 19.714265999999952,
          "velocity": 0.7480314960629921,
          "duration": 0.2857139999999987
        },
        {
          "name": "A2",
          "midi": 45,
          "time": 19.714265999999952,
          "velocity": 0.7480314960629921,
          "duration": 0.2857139999999987
        },
        {
          "name": "F#3",
          "midi": 54,
          "time": 19.99997999999995,
          "velocity": 0.7480314960629921,
          "duration": 0.2857139999999987
        },
        {
          "name": "C#3",
          "midi": 49,
          "time": 19.99997999999995,
          "velocity": 0.7480314960629921,
          "duration": 0.2857139999999987
        },
        {
          "name": "F#2",
          "midi": 42,
          "time": 19.99997999999995,
          "velocity": 0.7480314960629921,
          "duration": 0.2857139999999987
        },
        {
          "name": "F#3",
          "midi": 54,
          "time": 20.28569399999995,
          "velocity": 0.7480314960629921,
          "duration": 0.2857139999999987
        },
        {
          "name": "C#3",
          "midi": 49,
          "time": 20.28569399999995,
          "velocity": 0.7480314960629921,
          "duration": 0.2857139999999987
        },
        {
          "name": "F#2",
          "midi": 42,
          "time": 20.28569399999995,
          "velocity": 0.7480314960629921,
          "duration": 0.2857139999999987
        },
        {
          "name": "C#4",
          "midi": 61,
          "time": 20.57140799999995,
          "velocity": 0.7480314960629921,
          "duration": 0.2857139999999987
        },
        {
          "name": "G#3",
          "midi": 56,
          "time": 20.57140799999995,
          "velocity": 0.7480314960629921,
          "duration": 0.2857139999999987
        },
        {
          "name": "C#3",
          "midi": 49,
          "time": 20.57140799999995,
          "velocity": 0.7480314960629921,
          "duration": 0.2857139999999987
        },
        {
          "name": "C#4",
          "midi": 61,
          "time": 20.857121999999947,
          "velocity": 0.7480314960629921,
          "duration": 0.14285699999999935
        },
        {
          "name": "G#3",
          "midi": 56,
          "time": 20.857121999999947,
          "velocity": 0.7480314960629921,
          "duration": 0.14285699999999935
        },
        {
          "name": "C#3",
          "midi": 49,
          "time": 20.857121999999947,
          "velocity": 0.7480314960629921,
          "duration": 0.14285699999999935
        },
        {
          "name": "B3",
          "midi": 59,
          "time": 20.999978999999946,
          "velocity": 0.7480314960629921,
          "duration": 0.2857139999999987
        },
        {
          "name": "F#3",
          "midi": 54,
          "time": 20.999978999999946,
          "velocity": 0.7480314960629921,
          "duration": 0.2857139999999987
        },
        {
          "name": "B2",
          "midi": 47,
          "time": 20.999978999999946,
          "velocity": 0.7480314960629921,
          "duration": 0.2857139999999987
        },
        {
          "name": "B3",
          "midi": 59,
          "time": 21.285692999999945,
          "velocity": 0.7480314960629921,
          "duration": 0.14285699999999935
        },
        {
          "name": "F#3",
          "midi": 54,
          "time": 21.285692999999945,
          "velocity": 0.7480314960629921,
          "duration": 0.2857139999999987
        },
        {
          "name": "B2",
          "midi": 47,
          "time": 21.285692999999945,
          "velocity": 0.7480314960629921,
          "duration": 0.2857139999999987
        },
        {
          "name": "B3",
          "midi": 59,
          "time": 21.571406999999944,
          "velocity": 0.7480314960629921,
          "duration": 0.14285699999999935
        },
        {
          "name": "F#3",
          "midi": 54,
          "time": 21.571406999999944,
          "velocity": 0.7480314960629921,
          "duration": 0.14285699999999935
        },
        {
          "name": "B2",
          "midi": 47,
          "time": 21.571406999999944,
          "velocity": 0.7480314960629921,
          "duration": 0.14285699999999935
        },
        {
          "name": "A3",
          "midi": 57,
          "time": 21.714263999999943,
          "velocity": 0.7480314960629921,
          "duration": 0.2857139999999987
        },
        {
          "name": "E3",
          "midi": 52,
          "time": 21.714263999999943,
          "velocity": 0.7480314960629921,
          "duration": 0.2857139999999987
        },
        {
          "name": "A2",
          "midi": 45,
          "time": 21.714263999999943,
          "velocity": 0.7480314960629921,
          "duration": 0.2857139999999987
        },
        {
          "name": "A3",
          "midi": 57,
          "time": 21.999977999999942,
          "velocity": 0.7480314960629921,
          "duration": 0.2857139999999987
        },
        {
          "name": "E3",
          "midi": 52,
          "time": 21.999977999999942,
          "velocity": 0.7480314960629921,
          "duration": 0.2857139999999987
        },
        {
          "name": "A2",
          "midi": 45,
          "time": 21.999977999999942,
          "velocity": 0.7480314960629921,
          "duration": 0.2857139999999987
        },
        {
          "name": "F#3",
          "midi": 54,
          "time": 22.28569199999994,
          "velocity": 0.7480314960629921,
          "duration": 0.2857139999999987
        },
        {
          "name": "C#3",
          "midi": 49,
          "time": 22.28569199999994,
          "velocity": 0.7480314960629921,
          "duration": 0.2857139999999987
        },
        {
          "name": "F#2",
          "midi": 42,
          "time": 22.28569199999994,
          "velocity": 0.7480314960629921,
          "duration": 0.2857139999999987
        },
        {
          "name": "F#3",
          "midi": 54,
          "time": 22.57140599999994,
          "velocity": 0.7480314960629921,
          "duration": 0.2857139999999987
        },
        {
          "name": "C#3",
          "midi": 49,
          "time": 22.57140599999994,
          "velocity": 0.7480314960629921,
          "duration": 0.2857139999999987
        },
        {
          "name": "F#2",
          "midi": 42,
          "time": 22.57140599999994,
          "velocity": 0.7480314960629921,
          "duration": 0.2857139999999987
        },
        {
          "name": "C#4",
          "midi": 61,
          "time": 22.857119999999938,
          "velocity": 0.7480314960629921,
          "duration": 0.2857139999999987
        },
        {
          "name": "G#3",
          "midi": 56,
          "time": 22.857119999999938,
          "velocity": 0.7480314960629921,
          "duration": 0.2857139999999987
        },
        {
          "name": "C#3",
          "midi": 49,
          "time": 22.857119999999938,
          "velocity": 0.7480314960629921,
          "duration": 0.2857139999999987
        },
        {
          "name": "C#4",
          "midi": 61,
          "time": 23.142833999999937,
          "velocity": 0.7480314960629921,
          "duration": 0.14285699999999935
        },
        {
          "name": "G#3",
          "midi": 56,
          "time": 23.142833999999937,
          "velocity": 0.7480314960629921,
          "duration": 0.14285699999999935
        },
        {
          "name": "C#3",
          "midi": 49,
          "time": 23.142833999999937,
          "velocity": 0.7480314960629921,
          "duration": 0.14285699999999935
        },
        {
          "name": "B3",
          "midi": 59,
          "time": 23.285690999999936,
          "velocity": 0.7480314960629921,
          "duration": 0.2857139999999987
        },
        {
          "name": "F#3",
          "midi": 54,
          "time": 23.285690999999936,
          "velocity": 0.7480314960629921,
          "duration": 0.2857139999999987
        },
        {
          "name": "B2",
          "midi": 47,
          "time": 23.285690999999936,
          "velocity": 0.7480314960629921,
          "duration": 0.2857139999999987
        },
        {
          "name": "B3",
          "midi": 59,
          "time": 23.571404999999935,
          "velocity": 0.7480314960629921,
          "duration": 0.14285699999999935
        },
        {
          "name": "F#3",
          "midi": 54,
          "time": 23.571404999999935,
          "velocity": 0.7480314960629921,
          "duration": 0.2857139999999987
        },
        {
          "name": "B2",
          "midi": 47,
          "time": 23.571404999999935,
          "velocity": 0.7480314960629921,
          "duration": 0.2857139999999987
        },
        {
          "name": "B3",
          "midi": 59,
          "time": 23.857118999999933,
          "velocity": 0.7480314960629921,
          "duration": 0.14285699999999935
        },
        {
          "name": "F#3",
          "midi": 54,
          "time": 23.857118999999933,
          "velocity": 0.7480314960629921,
          "duration": 0.14285699999999935
        },
        {
          "name": "B2",
          "midi": 47,
          "time": 23.857118999999933,
          "velocity": 0.7480314960629921,
          "duration": 0.14285699999999935
        },
        {
          "name": "A3",
          "midi": 57,
          "time": 23.999975999999933,
          "velocity": 0.7480314960629921,
          "duration": 0.2857139999999987
        },
        {
          "name": "E3",
          "midi": 52,
          "time": 23.999975999999933,
          "velocity": 0.7480314960629921,
          "duration": 0.2857139999999987
        },
        {
          "name": "A2",
          "midi": 45,
          "time": 23.999975999999933,
          "velocity": 0.7480314960629921,
          "duration": 0.2857139999999987
        },
        {
          "name": "A3",
          "midi": 57,
          "time": 24.28568999999993,
          "velocity": 0.7480314960629921,
          "duration": 0.2857139999999987
        },
        {
          "name": "E3",
          "midi": 52,
          "time": 24.28568999999993,
          "velocity": 0.7480314960629921,
          "duration": 0.2857139999999987
        },
        {
          "name": "A2",
          "midi": 45,
          "time": 24.28568999999993,
          "velocity": 0.7480314960629921,
          "duration": 0.2857139999999987
        },
        {
          "name": "F#3",
          "midi": 54,
          "time": 24.57140399999993,
          "velocity": 0.7480314960629921,
          "duration": 0.2857139999999987
        },
        {
          "name": "C#3",
          "midi": 49,
          "time": 24.57140399999993,
          "velocity": 0.7480314960629921,
          "duration": 0.2857139999999987
        },
        {
          "name": "F#2",
          "midi": 42,
          "time": 24.57140399999993,
          "velocity": 0.7480314960629921,
          "duration": 0.2857139999999987
        },
        {
          "name": "F#3",
          "midi": 54,
          "time": 24.85711799999993,
          "velocity": 0.7480314960629921,
          "duration": 0.2857139999999987
        },
        {
          "name": "C#3",
          "midi": 49,
          "time": 24.85711799999993,
          "velocity": 0.7480314960629921,
          "duration": 0.2857139999999987
        },
        {
          "name": "F#2",
          "midi": 42,
          "time": 24.85711799999993,
          "velocity": 0.7480314960629921,
          "duration": 0.2857139999999987
        },
        {
          "name": "C#4",
          "midi": 61,
          "time": 25.142831999999927,
          "velocity": 0.7480314960629921,
          "duration": 0.14285699999999935
        },
        {
          "name": "G#3",
          "midi": 56,
          "time": 25.142831999999927,
          "velocity": 0.7480314960629921,
          "duration": 0.2857139999999987
        },
        {
          "name": "C#3",
          "midi": 49,
          "time": 25.142831999999927,
          "velocity": 0.7480314960629921,
          "duration": 0.2857139999999987
        },
        {
          "name": "C#4",
          "midi": 61,
          "time": 25.428545999999926,
          "velocity": 0.7480314960629921,
          "duration": 0.14285699999999935
        },
        {
          "name": "G#3",
          "midi": 56,
          "time": 25.428545999999926,
          "velocity": 0.7480314960629921,
          "duration": 0.14285699999999935
        },
        {
          "name": "C#3",
          "midi": 49,
          "time": 25.428545999999926,
          "velocity": 0.7480314960629921,
          "duration": 0.14285699999999935
        },
        {
          "name": "B3",
          "midi": 59,
          "time": 25.571402999999925,
          "velocity": 0.7480314960629921,
          "duration": 0.2857139999999987
        },
        {
          "name": "F#3",
          "midi": 54,
          "time": 25.571402999999925,
          "velocity": 0.7480314960629921,
          "duration": 0.2857139999999987
        },
        {
          "name": "B2",
          "midi": 47,
          "time": 25.571402999999925,
          "velocity": 0.7480314960629921,
          "duration": 0.2857139999999987
        },
        {
          "name": "B3",
          "midi": 59,
          "time": 25.857116999999924,
          "velocity": 0.7480314960629921,
          "duration": 0.14285699999999935
        },
        {
          "name": "F#3",
          "midi": 54,
          "time": 25.857116999999924,
          "velocity": 0.7480314960629921,
          "duration": 0.2857139999999987
        },
        {
          "name": "B2",
          "midi": 47,
          "time": 25.857116999999924,
          "velocity": 0.7480314960629921,
          "duration": 0.2857139999999987
        },
        {
          "name": "B3",
          "midi": 59,
          "time": 26.142830999999923,
          "velocity": 0.7480314960629921,
          "duration": 0.14285699999999935
        },
        {
          "name": "F#3",
          "midi": 54,
          "time": 26.142830999999923,
          "velocity": 0.7480314960629921,
          "duration": 0.14285699999999935
        },
        {
          "name": "B2",
          "midi": 47,
          "time": 26.142830999999923,
          "velocity": 0.7480314960629921,
          "duration": 0.14285699999999935
        },
        {
          "name": "A3",
          "midi": 57,
          "time": 26.285687999999922,
          "velocity": 0.7480314960629921,
          "duration": 0.2857139999999987
        },
        {
          "name": "E3",
          "midi": 52,
          "time": 26.285687999999922,
          "velocity": 0.7480314960629921,
          "duration": 0.2857139999999987
        },
        {
          "name": "A2",
          "midi": 45,
          "time": 26.285687999999922,
          "velocity": 0.7480314960629921,
          "duration": 0.2857139999999987
        },
        {
          "name": "A3",
          "midi": 57,
          "time": 26.57140199999992,
          "velocity": 0.7480314960629921,
          "duration": 0.2857139999999987
        },
        {
          "name": "E3",
          "midi": 52,
          "time": 26.57140199999992,
          "velocity": 0.7480314960629921,
          "duration": 0.2857139999999987
        },
        {
          "name": "A2",
          "midi": 45,
          "time": 26.57140199999992,
          "velocity": 0.7480314960629921,
          "duration": 0.2857139999999987
        },
        {
          "name": "F#3",
          "midi": 54,
          "time": 26.85711599999992,
          "velocity": 0.7480314960629921,
          "duration": 0.2857139999999987
        },
        {
          "name": "C#3",
          "midi": 49,
          "time": 26.85711599999992,
          "velocity": 0.7480314960629921,
          "duration": 0.2857139999999987
        },
        {
          "name": "F#2",
          "midi": 42,
          "time": 26.85711599999992,
          "velocity": 0.7480314960629921,
          "duration": 0.2857139999999987
        },
        {
          "name": "C#4",
          "midi": 61,
          "time": 27.428543999999917,
          "velocity": 0.7480314960629921,
          "duration": 0.2857139999999987
        },
        {
          "name": "G#3",
          "midi": 56,
          "time": 27.428543999999917,
          "velocity": 0.7480314960629921,
          "duration": 0.2857139999999987
        },
        {
          "name": "C#3",
          "midi": 49,
          "time": 27.428543999999917,
          "velocity": 0.7480314960629921,
          "duration": 0.14285699999999935
        },
        {
          "name": "C#4",
          "midi": 61,
          "time": 27.714257999999916,
          "velocity": 0.7480314960629921,
          "duration": 0.14285699999999935
        },
        {
          "name": "G#3",
          "midi": 56,
          "time": 27.714257999999916,
          "velocity": 0.7480314960629921,
          "duration": 0.14285699999999935
        },
        {
          "name": "C#3",
          "midi": 49,
          "time": 27.714257999999916,
          "velocity": 0.7480314960629921,
          "duration": 0.14285699999999935
        },
        {
          "name": "B3",
          "midi": 59,
          "time": 27.857114999999915,
          "velocity": 0.7480314960629921,
          "duration": 0.2857139999999987
        },
        {
          "name": "F#3",
          "midi": 54,
          "time": 27.857114999999915,
          "velocity": 0.7480314960629921,
          "duration": 0.2857139999999987
        },
        {
          "name": "B2",
          "midi": 47,
          "time": 27.857114999999915,
          "velocity": 0.7480314960629921,
          "duration": 0.14285699999999935
        },
        {
          "name": "B3",
          "midi": 59,
          "time": 28.142828999999914,
          "velocity": 0.7480314960629921,
          "duration": 0.2857139999999987
        },
        {
          "name": "F#3",
          "midi": 54,
          "time": 28.142828999999914,
          "velocity": 0.7480314960629921,
          "duration": 0.2857139999999987
        },
        {
          "name": "B2",
          "midi": 47,
          "time": 28.142828999999914,
          "velocity": 0.7480314960629921,
          "duration": 0.14285699999999935
        },
        {
          "name": "B3",
          "midi": 59,
          "time": 28.428542999999912,
          "velocity": 0.7480314960629921,
          "duration": 0.14285699999999935
        },
        {
          "name": "F#3",
          "midi": 54,
          "time": 28.428542999999912,
          "velocity": 0.7480314960629921,
          "duration": 0.14285699999999935
        },
        {
          "name": "B2",
          "midi": 47,
          "time": 28.428542999999912,
          "velocity": 0.7480314960629921,
          "duration": 0.14285699999999935
        },
        {
          "name": "A3",
          "midi": 57,
          "time": 28.57139999999991,
          "velocity": 0.7480314960629921,
          "duration": 0.2857139999999987
        },
        {
          "name": "E3",
          "midi": 52,
          "time": 28.57139999999991,
          "velocity": 0.7480314960629921,
          "duration": 0.2857139999999987
        },
        {
          "name": "A2",
          "midi": 45,
          "time": 28.57139999999991,
          "velocity": 0.7480314960629921,
          "duration": 0.2857139999999987
        },
        {
          "name": "A3",
          "midi": 57,
          "time": 28.85711399999991,
          "velocity": 0.7480314960629921,
          "duration": 0.2857139999999987
        },
        {
          "name": "E3",
          "midi": 52,
          "time": 28.85711399999991,
          "velocity": 0.7480314960629921,
          "duration": 0.2857139999999987
        },
        {
          "name": "A2",
          "midi": 45,
          "time": 28.85711399999991,
          "velocity": 0.7480314960629921,
          "duration": 0.2857139999999987
        },
        {
          "name": "F#3",
          "midi": 54,
          "time": 29.14282799999991,
          "velocity": 0.7480314960629921,
          "duration": 0.2857139999999987
        },
        {
          "name": "C#3",
          "midi": 49,
          "time": 29.14282799999991,
          "velocity": 0.7480314960629921,
          "duration": 0.2857139999999987
        },
        {
          "name": "F#2",
          "midi": 42,
          "time": 29.14282799999991,
          "velocity": 0.7480314960629921,
          "duration": 0.2857139999999987
        },
        {
          "name": "F#3",
          "midi": 54,
          "time": 29.428541999999908,
          "velocity": 0.7480314960629921,
          "duration": 0.2857139999999987
        },
        {
          "name": "C#3",
          "midi": 49,
          "time": 29.428541999999908,
          "velocity": 0.7480314960629921,
          "duration": 0.2857139999999987
        },
        {
          "name": "F#2",
          "midi": 42,
          "time": 29.428541999999908,
          "velocity": 0.7480314960629921,
          "duration": 0.2857139999999987
        },
        {
          "name": "C#4",
          "midi": 61,
          "time": 29.714255999999907,
          "velocity": 0.7480314960629921,
          "duration": 0.2857139999999987
        },
        {
          "name": "G#3",
          "midi": 56,
          "time": 29.714255999999907,
          "velocity": 0.7480314960629921,
          "duration": 0.2857139999999987
        },
        {
          "name": "C#3",
          "midi": 49,
          "time": 29.714255999999907,
          "velocity": 0.7480314960629921,
          "duration": 0.2857139999999987
        },
        {
          "name": "C#4",
          "midi": 61,
          "time": 29.999969999999905,
          "velocity": 0.7480314960629921,
          "duration": 0.14285699999999935
        },
        {
          "name": "G#3",
          "midi": 56,
          "time": 29.999969999999905,
          "velocity": 0.7480314960629921,
          "duration": 0.14285699999999935
        },
        {
          "name": "C#3",
          "midi": 49,
          "time": 29.999969999999905,
          "velocity": 0.7480314960629921,
          "duration": 0.14285699999999935
        },
        {
          "name": "B3",
          "midi": 59,
          "time": 30.142826999999905,
          "velocity": 0.7480314960629921,
          "duration": 0.2857139999999987
        },
        {
          "name": "F#3",
          "midi": 54,
          "time": 30.142826999999905,
          "velocity": 0.7480314960629921,
          "duration": 0.2857139999999987
        },
        {
          "name": "B2",
          "midi": 47,
          "time": 30.142826999999905,
          "velocity": 0.7480314960629921,
          "duration": 0.2857139999999987
        },
        {
          "name": "B3",
          "midi": 59,
          "time": 30.428540999999903,
          "velocity": 0.7480314960629921,
          "duration": 0.14285699999999935
        },
        {
          "name": "F#3",
          "midi": 54,
          "time": 30.428540999999903,
          "velocity": 0.7480314960629921,
          "duration": 0.2857139999999987
        },
        {
          "name": "B2",
          "midi": 47,
          "time": 30.428540999999903,
          "velocity": 0.7480314960629921,
          "duration": 0.2857139999999987
        },
        {
          "name": "B3",
          "midi": 59,
          "time": 30.714254999999902,
          "velocity": 0.7480314960629921,
          "duration": 0.14285699999999935
        },
        {
          "name": "F#3",
          "midi": 54,
          "time": 30.714254999999902,
          "velocity": 0.7480314960629921,
          "duration": 0.14285699999999935
        },
        {
          "name": "B2",
          "midi": 47,
          "time": 30.714254999999902,
          "velocity": 0.7480314960629921,
          "duration": 0.14285699999999935
        },
        {
          "name": "A3",
          "midi": 57,
          "time": 30.8571119999999,
          "velocity": 0.7480314960629921,
          "duration": 0.2857139999999987
        },
        {
          "name": "E3",
          "midi": 52,
          "time": 30.8571119999999,
          "velocity": 0.7480314960629921,
          "duration": 0.2857139999999987
        },
        {
          "name": "A2",
          "midi": 45,
          "time": 30.8571119999999,
          "velocity": 0.7480314960629921,
          "duration": 0.2857139999999987
        },
        {
          "name": "A3",
          "midi": 57,
          "time": 31.1428259999999,
          "velocity": 0.7480314960629921,
          "duration": 0.2857139999999987
        },
        {
          "name": "E3",
          "midi": 52,
          "time": 31.1428259999999,
          "velocity": 0.7480314960629921,
          "duration": 0.2857139999999987
        },
        {
          "name": "A2",
          "midi": 45,
          "time": 31.1428259999999,
          "velocity": 0.7480314960629921,
          "duration": 0.2857139999999987
        },
        {
          "name": "F#3",
          "midi": 54,
          "time": 31.4285399999999,
          "velocity": 0.7480314960629921,
          "duration": 0.2857139999999987
        },
        {
          "name": "C#3",
          "midi": 49,
          "time": 31.4285399999999,
          "velocity": 0.7480314960629921,
          "duration": 0.2857139999999987
        },
        {
          "name": "F#2",
          "midi": 42,
          "time": 31.4285399999999,
          "velocity": 0.7480314960629921,
          "duration": 0.2857139999999987
        },
        {
          "name": "F#3",
          "midi": 54,
          "time": 31.714253999999897,
          "velocity": 0.7480314960629921,
          "duration": 0.2857139999999987
        },
        {
          "name": "C#3",
          "midi": 49,
          "time": 31.714253999999897,
          "velocity": 0.7480314960629921,
          "duration": 0.2857139999999987
        },
        {
          "name": "F#2",
          "midi": 42,
          "time": 31.714253999999897,
          "velocity": 0.7480314960629921,
          "duration": 0.2857139999999987
        },
        {
          "name": "C#4",
          "midi": 61,
          "time": 31.999967999999896,
          "velocity": 0.7480314960629921,
          "duration": 0.2857139999999987
        },
        {
          "name": "G#3",
          "midi": 56,
          "time": 31.999967999999896,
          "velocity": 0.7480314960629921,
          "duration": 0.2857139999999987
        },
        {
          "name": "C#3",
          "midi": 49,
          "time": 31.999967999999896,
          "velocity": 0.7480314960629921,
          "duration": 0.2857139999999987
        },
        {
          "name": "C#4",
          "midi": 61,
          "time": 32.285681999999895,
          "velocity": 0.7480314960629921,
          "duration": 0.14285699999999935
        },
        {
          "name": "G#3",
          "midi": 56,
          "time": 32.285681999999895,
          "velocity": 0.7480314960629921,
          "duration": 0.14285699999999935
        },
        {
          "name": "C#3",
          "midi": 49,
          "time": 32.285681999999895,
          "velocity": 0.7480314960629921,
          "duration": 0.14285699999999935
        },
        {
          "name": "B3",
          "midi": 59,
          "time": 32.428538999999894,
          "velocity": 0.7480314960629921,
          "duration": 0.2857139999999987
        },
        {
          "name": "F#3",
          "midi": 54,
          "time": 32.428538999999894,
          "velocity": 0.7480314960629921,
          "duration": 0.2857139999999987
        },
        {
          "name": "B2",
          "midi": 47,
          "time": 32.428538999999894,
          "velocity": 0.7480314960629921,
          "duration": 0.2857139999999987
        },
        {
          "name": "B3",
          "midi": 59,
          "time": 32.71425299999989,
          "velocity": 0.7480314960629921,
          "duration": 0.14285699999999935
        },
        {
          "name": "F#3",
          "midi": 54,
          "time": 32.71425299999989,
          "velocity": 0.7480314960629921,
          "duration": 0.2857139999999987
        },
        {
          "name": "B2",
          "midi": 47,
          "time": 32.71425299999989,
          "velocity": 0.7480314960629921,
          "duration": 0.2857139999999987
        },
        {
          "name": "B3",
          "midi": 59,
          "time": 32.99996699999989,
          "velocity": 0.7480314960629921,
          "duration": 0.14285699999999935
        },
        {
          "name": "F#3",
          "midi": 54,
          "time": 32.99996699999989,
          "velocity": 0.7480314960629921,
          "duration": 0.14285699999999935
        },
        {
          "name": "B2",
          "midi": 47,
          "time": 32.99996699999989,
          "velocity": 0.7480314960629921,
          "duration": 0.14285699999999935
        },
        {
          "name": "A3",
          "midi": 57,
          "time": 33.14282399999989,
          "velocity": 0.7480314960629921,
          "duration": 0.2857139999999987
        },
        {
          "name": "E3",
          "midi": 52,
          "time": 33.14282399999989,
          "velocity": 0.7480314960629921,
          "duration": 0.2857139999999987
        },
        {
          "name": "A2",
          "midi": 45,
          "time": 33.14282399999989,
          "velocity": 0.7480314960629921,
          "duration": 0.2857139999999987
        },
        {
          "name": "A3",
          "midi": 57,
          "time": 33.42853799999989,
          "velocity": 0.7480314960629921,
          "duration": 0.2857139999999987
        },
        {
          "name": "E3",
          "midi": 52,
          "time": 33.42853799999989,
          "velocity": 0.7480314960629921,
          "duration": 0.2857139999999987
        },
        {
          "name": "A2",
          "midi": 45,
          "time": 33.42853799999989,
          "velocity": 0.7480314960629921,
          "duration": 0.2857139999999987
        },
        {
          "name": "F#3",
          "midi": 54,
          "time": 33.71425199999989,
          "velocity": 0.7480314960629921,
          "duration": 0.2857139999999987
        },
        {
          "name": "C#3",
          "midi": 49,
          "time": 33.71425199999989,
          "velocity": 0.7480314960629921,
          "duration": 0.2857139999999987
        },
        {
          "name": "F#2",
          "midi": 42,
          "time": 33.71425199999989,
          "velocity": 0.7480314960629921,
          "duration": 0.2857139999999987
        },
        {
          "name": "F#3",
          "midi": 54,
          "time": 33.99996599999989,
          "velocity": 0.7480314960629921,
          "duration": 0.2857139999999987
        },
        {
          "name": "C#3",
          "midi": 49,
          "time": 33.99996599999989,
          "velocity": 0.7480314960629921,
          "duration": 0.2857139999999987
        },
        {
          "name": "F#2",
          "midi": 42,
          "time": 33.99996599999989,
          "velocity": 0.7480314960629921,
          "duration": 0.2857139999999987
        },
        {
          "name": "C#4",
          "midi": 61,
          "time": 34.285679999999886,
          "velocity": 0.7480314960629921,
          "duration": 0.14285699999999935
        },
        {
          "name": "G#3",
          "midi": 56,
          "time": 34.285679999999886,
          "velocity": 0.7480314960629921,
          "duration": 0.2857139999999987
        },
        {
          "name": "C#3",
          "midi": 49,
          "time": 34.285679999999886,
          "velocity": 0.7480314960629921,
          "duration": 0.2857139999999987
        },
        {
          "name": "C#4",
          "midi": 61,
          "time": 34.571393999999884,
          "velocity": 0.7480314960629921,
          "duration": 0.14285699999999935
        },
        {
          "name": "G#3",
          "midi": 56,
          "time": 34.571393999999884,
          "velocity": 0.7480314960629921,
          "duration": 0.14285699999999935
        },
        {
          "name": "C#3",
          "midi": 49,
          "time": 34.571393999999884,
          "velocity": 0.7480314960629921,
          "duration": 0.14285699999999935
        },
        {
          "name": "B3",
          "midi": 59,
          "time": 34.714250999999884,
          "velocity": 0.7480314960629921,
          "duration": 0.2857139999999987
        },
        {
          "name": "F#3",
          "midi": 54,
          "time": 34.714250999999884,
          "velocity": 0.7480314960629921,
          "duration": 0.2857139999999987
        },
        {
          "name": "B2",
          "midi": 47,
          "time": 34.714250999999884,
          "velocity": 0.7480314960629921,
          "duration": 0.2857139999999987
        },
        {
          "name": "B3",
          "midi": 59,
          "time": 34.99996499999988,
          "velocity": 0.7480314960629921,
          "duration": 0.14285699999999935
        },
        {
          "name": "F#3",
          "midi": 54,
          "time": 34.99996499999988,
          "velocity": 0.7480314960629921,
          "duration": 0.2857139999999987
        },
        {
          "name": "B2",
          "midi": 47,
          "time": 34.99996499999988,
          "velocity": 0.7480314960629921,
          "duration": 0.2857139999999987
        },
        {
          "name": "B3",
          "midi": 59,
          "time": 35.28567899999988,
          "velocity": 0.7480314960629921,
          "duration": 0.14285699999999935
        },
        {
          "name": "F#3",
          "midi": 54,
          "time": 35.28567899999988,
          "velocity": 0.7480314960629921,
          "duration": 0.14285699999999935
        },
        {
          "name": "B2",
          "midi": 47,
          "time": 35.28567899999988,
          "velocity": 0.7480314960629921,
          "duration": 0.14285699999999935
        },
        {
          "name": "A3",
          "midi": 57,
          "time": 35.42853599999988,
          "velocity": 0.7480314960629921,
          "duration": 0.2857139999999987
        },
        {
          "name": "E3",
          "midi": 52,
          "time": 35.42853599999988,
          "velocity": 0.7480314960629921,
          "duration": 0.2857139999999987
        },
        {
          "name": "A2",
          "midi": 45,
          "time": 35.42853599999988,
          "velocity": 0.7480314960629921,
          "duration": 0.2857139999999987
        },
        {
          "name": "A3",
          "midi": 57,
          "time": 35.71424999999988,
          "velocity": 0.7480314960629921,
          "duration": 0.2857139999999987
        },
        {
          "name": "E3",
          "midi": 52,
          "time": 35.71424999999988,
          "velocity": 0.7480314960629921,
          "duration": 0.2857139999999987
        },
        {
          "name": "A2",
          "midi": 45,
          "time": 35.71424999999988,
          "velocity": 0.7480314960629921,
          "duration": 0.2857139999999987
        },
        {
          "name": "F#3",
          "midi": 54,
          "time": 35.99996399999988,
          "velocity": 0.7480314960629921,
          "duration": 0.2857139999999987
        },
        {
          "name": "C#3",
          "midi": 49,
          "time": 35.99996399999988,
          "velocity": 0.7480314960629921,
          "duration": 0.2857139999999987
        },
        {
          "name": "F#2",
          "midi": 42,
          "time": 35.99996399999988,
          "velocity": 0.7480314960629921,
          "duration": 0.2857139999999987
        },
        {
          "name": "C#4",
          "midi": 61,
          "time": 36.571391999999875,
          "velocity": 0.7480314960629921,
          "duration": 0.2857139999999987
        },
        {
          "name": "G#3",
          "midi": 56,
          "time": 36.571391999999875,
          "velocity": 0.7480314960629921,
          "duration": 0.2857139999999987
        },
        {
          "name": "C#3",
          "midi": 49,
          "time": 36.571391999999875,
          "velocity": 0.7480314960629921,
          "duration": 0.14285699999999935
        },
        {
          "name": "C#4",
          "midi": 61,
          "time": 36.857105999999874,
          "velocity": 0.7480314960629921,
          "duration": 0.14285699999999935
        },
        {
          "name": "G#3",
          "midi": 56,
          "time": 36.857105999999874,
          "velocity": 0.7480314960629921,
          "duration": 0.14285699999999935
        },
        {
          "name": "C#3",
          "midi": 49,
          "time": 36.857105999999874,
          "velocity": 0.7480314960629921,
          "duration": 0.14285699999999935
        },
        {
          "name": "B3",
          "midi": 59,
          "time": 36.99996299999987,
          "velocity": 0.7480314960629921,
          "duration": 0.2857139999999987
        },
        {
          "name": "F#3",
          "midi": 54,
          "time": 36.99996299999987,
          "velocity": 0.7480314960629921,
          "duration": 0.2857139999999987
        },
        {
          "name": "B2",
          "midi": 47,
          "time": 36.99996299999987,
          "velocity": 0.7480314960629921,
          "duration": 0.14285699999999935
        },
        {
          "name": "B3",
          "midi": 59,
          "time": 37.28567699999987,
          "velocity": 0.7480314960629921,
          "duration": 0.2857139999999987
        },
        {
          "name": "F#3",
          "midi": 54,
          "time": 37.28567699999987,
          "velocity": 0.7480314960629921,
          "duration": 0.2857139999999987
        },
        {
          "name": "B2",
          "midi": 47,
          "time": 37.28567699999987,
          "velocity": 0.7480314960629921,
          "duration": 0.14285699999999935
        },
        {
          "name": "B3",
          "midi": 59,
          "time": 37.57139099999987,
          "velocity": 0.7480314960629921,
          "duration": 0.14285699999999935
        },
        {
          "name": "F#3",
          "midi": 54,
          "time": 37.57139099999987,
          "velocity": 0.7480314960629921,
          "duration": 0.14285699999999935
        },
        {
          "name": "B2",
          "midi": 47,
          "time": 37.57139099999987,
          "velocity": 0.7480314960629921,
          "duration": 0.14285699999999935
        },
        {
          "name": "A3",
          "midi": 57,
          "time": 37.71424799999987,
          "velocity": 0.7480314960629921,
          "duration": 0.2857139999999987
        },
        {
          "name": "E3",
          "midi": 52,
          "time": 37.71424799999987,
          "velocity": 0.7480314960629921,
          "duration": 0.2857139999999987
        },
        {
          "name": "A2",
          "midi": 45,
          "time": 37.71424799999987,
          "velocity": 0.7480314960629921,
          "duration": 0.2857139999999987
        },
        {
          "name": "A3",
          "midi": 57,
          "time": 37.99996199999987,
          "velocity": 0.7480314960629921,
          "duration": 0.2857139999999987
        },
        {
          "name": "E3",
          "midi": 52,
          "time": 37.99996199999987,
          "velocity": 0.7480314960629921,
          "duration": 0.2857139999999987
        },
        {
          "name": "A2",
          "midi": 45,
          "time": 37.99996199999987,
          "velocity": 0.7480314960629921,
          "duration": 0.2857139999999987
        },
        {
          "name": "F#3",
          "midi": 54,
          "time": 38.28567599999987,
          "velocity": 0.7480314960629921,
          "duration": 0.2857139999999987
        },
        {
          "name": "C#3",
          "midi": 49,
          "time": 38.28567599999987,
          "velocity": 0.7480314960629921,
          "duration": 0.2857139999999987
        },
        {
          "name": "F#2",
          "midi": 42,
          "time": 38.28567599999987,
          "velocity": 0.7480314960629921,
          "duration": 0.2857139999999987
        },
        {
          "name": "F#3",
          "midi": 54,
          "time": 38.571389999999866,
          "velocity": 0.7480314960629921,
          "duration": 0.2857139999999987
        },
        {
          "name": "C#3",
          "midi": 49,
          "time": 38.571389999999866,
          "velocity": 0.7480314960629921,
          "duration": 0.2857139999999987
        },
        {
          "name": "F#2",
          "midi": 42,
          "time": 38.571389999999866,
          "velocity": 0.7480314960629921,
          "duration": 0.2857139999999987
        },
        {
          "name": "C#4",
          "midi": 61,
          "time": 38.857103999999865,
          "velocity": 0.7480314960629921,
          "duration": 0.2857139999999987
        },
        {
          "name": "G#3",
          "midi": 56,
          "time": 38.857103999999865,
          "velocity": 0.7480314960629921,
          "duration": 0.2857139999999987
        },
        {
          "name": "C#3",
          "midi": 49,
          "time": 38.857103999999865,
          "velocity": 0.7480314960629921,
          "duration": 0.2857139999999987
        },
        {
          "name": "C#4",
          "midi": 61,
          "time": 39.14281799999986,
          "velocity": 0.7480314960629921,
          "duration": 0.14285699999999935
        },
        {
          "name": "G#3",
          "midi": 56,
          "time": 39.14281799999986,
          "velocity": 0.7480314960629921,
          "duration": 0.14285699999999935
        },
        {
          "name": "C#3",
          "midi": 49,
          "time": 39.14281799999986,
          "velocity": 0.7480314960629921,
          "duration": 0.14285699999999935
        },
        {
          "name": "B3",
          "midi": 59,
          "time": 39.28567499999986,
          "velocity": 0.7480314960629921,
          "duration": 0.2857139999999987
        },
        {
          "name": "F#3",
          "midi": 54,
          "time": 39.28567499999986,
          "velocity": 0.7480314960629921,
          "duration": 0.2857139999999987
        },
        {
          "name": "B2",
          "midi": 47,
          "time": 39.28567499999986,
          "velocity": 0.7480314960629921,
          "duration": 0.2857139999999987
        },
        {
          "name": "B3",
          "midi": 59,
          "time": 39.57138899999986,
          "velocity": 0.7480314960629921,
          "duration": 0.14285699999999935
        },
        {
          "name": "F#3",
          "midi": 54,
          "time": 39.57138899999986,
          "velocity": 0.7480314960629921,
          "duration": 0.2857139999999987
        },
        {
          "name": "B2",
          "midi": 47,
          "time": 39.57138899999986,
          "velocity": 0.7480314960629921,
          "duration": 0.2857139999999987
        },
        {
          "name": "B3",
          "midi": 59,
          "time": 39.85710299999986,
          "velocity": 0.7480314960629921,
          "duration": 0.14285699999999935
        },
        {
          "name": "F#3",
          "midi": 54,
          "time": 39.85710299999986,
          "velocity": 0.7480314960629921,
          "duration": 0.14285699999999935
        },
        {
          "name": "B2",
          "midi": 47,
          "time": 39.85710299999986,
          "velocity": 0.7480314960629921,
          "duration": 0.14285699999999935
        },
        {
          "name": "A3",
          "midi": 57,
          "time": 39.99995999999986,
          "velocity": 0.7480314960629921,
          "duration": 0.2857139999999987
        },
        {
          "name": "E3",
          "midi": 52,
          "time": 39.99995999999986,
          "velocity": 0.7480314960629921,
          "duration": 0.2857139999999987
        },
        {
          "name": "A2",
          "midi": 45,
          "time": 39.99995999999986,
          "velocity": 0.7480314960629921,
          "duration": 0.2857139999999987
        },
        {
          "name": "A3",
          "midi": 57,
          "time": 40.28567399999986,
          "velocity": 0.7480314960629921,
          "duration": 0.2857139999999987
        },
        {
          "name": "E3",
          "midi": 52,
          "time": 40.28567399999986,
          "velocity": 0.7480314960629921,
          "duration": 0.2857139999999987
        },
        {
          "name": "A2",
          "midi": 45,
          "time": 40.28567399999986,
          "velocity": 0.7480314960629921,
          "duration": 0.2857139999999987
        },
        {
          "name": "F#3",
          "midi": 54,
          "time": 40.57138799999986,
          "velocity": 0.7480314960629921,
          "duration": 0.2857139999999987
        },
        {
          "name": "C#3",
          "midi": 49,
          "time": 40.57138799999986,
          "velocity": 0.7480314960629921,
          "duration": 0.2857139999999987
        },
        {
          "name": "F#2",
          "midi": 42,
          "time": 40.57138799999986,
          "velocity": 0.7480314960629921,
          "duration": 0.2857139999999987
        },
        {
          "name": "F#3",
          "midi": 54,
          "time": 40.857101999999855,
          "velocity": 0.7480314960629921,
          "duration": 0.2857139999999987
        },
        {
          "name": "C#3",
          "midi": 49,
          "time": 40.857101999999855,
          "velocity": 0.7480314960629921,
          "duration": 0.2857139999999987
        },
        {
          "name": "F#2",
          "midi": 42,
          "time": 40.857101999999855,
          "velocity": 0.7480314960629921,
          "duration": 0.2857139999999987
        },
        {
          "name": "C#4",
          "midi": 61,
          "time": 41.142815999999854,
          "velocity": 0.7480314960629921,
          "duration": 0.2857139999999987
        },
        {
          "name": "G#3",
          "midi": 56,
          "time": 41.142815999999854,
          "velocity": 0.7480314960629921,
          "duration": 0.2857139999999987
        },
        {
          "name": "C#3",
          "midi": 49,
          "time": 41.142815999999854,
          "velocity": 0.7480314960629921,
          "duration": 0.2857139999999987
        },
        {
          "name": "C#4",
          "midi": 61,
          "time": 41.42852999999985,
          "velocity": 0.7480314960629921,
          "duration": 0.14285699999999935
        },
        {
          "name": "G#3",
          "midi": 56,
          "time": 41.42852999999985,
          "velocity": 0.7480314960629921,
          "duration": 0.14285699999999935
        },
        {
          "name": "C#3",
          "midi": 49,
          "time": 41.42852999999985,
          "velocity": 0.7480314960629921,
          "duration": 0.14285699999999935
        },
        {
          "name": "B3",
          "midi": 59,
          "time": 41.57138699999985,
          "velocity": 0.7480314960629921,
          "duration": 0.2857139999999987
        },
        {
          "name": "F#3",
          "midi": 54,
          "time": 41.57138699999985,
          "velocity": 0.7480314960629921,
          "duration": 0.2857139999999987
        },
        {
          "name": "B2",
          "midi": 47,
          "time": 41.57138699999985,
          "velocity": 0.7480314960629921,
          "duration": 0.2857139999999987
        },
        {
          "name": "B3",
          "midi": 59,
          "time": 41.85710099999985,
          "velocity": 0.7480314960629921,
          "duration": 0.14285699999999935
        },
        {
          "name": "F#3",
          "midi": 54,
          "time": 41.85710099999985,
          "velocity": 0.7480314960629921,
          "duration": 0.2857139999999987
        },
        {
          "name": "B2",
          "midi": 47,
          "time": 41.85710099999985,
          "velocity": 0.7480314960629921,
          "duration": 0.2857139999999987
        },
        {
          "name": "B3",
          "midi": 59,
          "time": 42.14281499999985,
          "velocity": 0.7480314960629921,
          "duration": 0.14285699999999935
        },
        {
          "name": "F#3",
          "midi": 54,
          "time": 42.14281499999985,
          "velocity": 0.7480314960629921,
          "duration": 0.14285699999999935
        },
        {
          "name": "B2",
          "midi": 47,
          "time": 42.14281499999985,
          "velocity": 0.7480314960629921,
          "duration": 0.14285699999999935
        },
        {
          "name": "A3",
          "midi": 57,
          "time": 42.28567199999985,
          "velocity": 0.7480314960629921,
          "duration": 0.2857139999999987
        },
        {
          "name": "E3",
          "midi": 52,
          "time": 42.28567199999985,
          "velocity": 0.7480314960629921,
          "duration": 0.2857139999999987
        },
        {
          "name": "A2",
          "midi": 45,
          "time": 42.28567199999985,
          "velocity": 0.7480314960629921,
          "duration": 0.2857139999999987
        },
        {
          "name": "A3",
          "midi": 57,
          "time": 42.57138599999985,
          "velocity": 0.7480314960629921,
          "duration": 0.2857139999999987
        },
        {
          "name": "E3",
          "midi": 52,
          "time": 42.57138599999985,
          "velocity": 0.7480314960629921,
          "duration": 0.2857139999999987
        },
        {
          "name": "A2",
          "midi": 45,
          "time": 42.57138599999985,
          "velocity": 0.7480314960629921,
          "duration": 0.2857139999999987
        },
        {
          "name": "F#3",
          "midi": 54,
          "time": 42.857099999999846,
          "velocity": 0.7480314960629921,
          "duration": 0.2857139999999987
        },
        {
          "name": "C#3",
          "midi": 49,
          "time": 42.857099999999846,
          "velocity": 0.7480314960629921,
          "duration": 0.2857139999999987
        },
        {
          "name": "F#2",
          "midi": 42,
          "time": 42.857099999999846,
          "velocity": 0.7480314960629921,
          "duration": 0.2857139999999987
        },
        {
          "name": "F#3",
          "midi": 54,
          "time": 43.142813999999845,
          "velocity": 0.7480314960629921,
          "duration": 0.2857139999999987
        },
        {
          "name": "C#3",
          "midi": 49,
          "time": 43.142813999999845,
          "velocity": 0.7480314960629921,
          "duration": 0.2857139999999987
        },
        {
          "name": "F#2",
          "midi": 42,
          "time": 43.142813999999845,
          "velocity": 0.7480314960629921,
          "duration": 0.2857139999999987
        },
        {
          "name": "C#4",
          "midi": 61,
          "time": 43.428527999999844,
          "velocity": 0.7480314960629921,
          "duration": 0.14285699999999935
        },
        {
          "name": "G#3",
          "midi": 56,
          "time": 43.428527999999844,
          "velocity": 0.7480314960629921,
          "duration": 0.2857139999999987
        },
        {
          "name": "C#3",
          "midi": 49,
          "time": 43.428527999999844,
          "velocity": 0.7480314960629921,
          "duration": 0.2857139999999987
        },
        {
          "name": "C#4",
          "midi": 61,
          "time": 43.71424199999984,
          "velocity": 0.7480314960629921,
          "duration": 0.14285699999999935
        },
        {
          "name": "G#3",
          "midi": 56,
          "time": 43.71424199999984,
          "velocity": 0.7480314960629921,
          "duration": 0.14285699999999935
        },
        {
          "name": "C#3",
          "midi": 49,
          "time": 43.71424199999984,
          "velocity": 0.7480314960629921,
          "duration": 0.14285699999999935
        },
        {
          "name": "B3",
          "midi": 59,
          "time": 43.85709899999984,
          "velocity": 0.7480314960629921,
          "duration": 0.2857139999999987
        },
        {
          "name": "F#3",
          "midi": 54,
          "time": 43.85709899999984,
          "velocity": 0.7480314960629921,
          "duration": 0.2857139999999987
        },
        {
          "name": "B2",
          "midi": 47,
          "time": 43.85709899999984,
          "velocity": 0.7480314960629921,
          "duration": 0.2857139999999987
        },
        {
          "name": "B3",
          "midi": 59,
          "time": 44.14281299999984,
          "velocity": 0.7480314960629921,
          "duration": 0.14285699999999935
        },
        {
          "name": "F#3",
          "midi": 54,
          "time": 44.14281299999984,
          "velocity": 0.7480314960629921,
          "duration": 0.2857139999999987
        },
        {
          "name": "B2",
          "midi": 47,
          "time": 44.14281299999984,
          "velocity": 0.7480314960629921,
          "duration": 0.2857139999999987
        },
        {
          "name": "B3",
          "midi": 59,
          "time": 44.42852699999984,
          "velocity": 0.7480314960629921,
          "duration": 0.14285699999999935
        },
        {
          "name": "F#3",
          "midi": 54,
          "time": 44.42852699999984,
          "velocity": 0.7480314960629921,
          "duration": 0.14285699999999935
        },
        {
          "name": "B2",
          "midi": 47,
          "time": 44.42852699999984,
          "velocity": 0.7480314960629921,
          "duration": 0.14285699999999935
        },
        {
          "name": "A3",
          "midi": 57,
          "time": 44.57138399999984,
          "velocity": 0.7480314960629921,
          "duration": 0.2857139999999987
        },
        {
          "name": "E3",
          "midi": 52,
          "time": 44.57138399999984,
          "velocity": 0.7480314960629921,
          "duration": 0.2857139999999987
        },
        {
          "name": "A2",
          "midi": 45,
          "time": 44.57138399999984,
          "velocity": 0.7480314960629921,
          "duration": 0.2857139999999987
        },
        {
          "name": "A3",
          "midi": 57,
          "time": 44.85709799999984,
          "velocity": 0.7480314960629921,
          "duration": 0.2857139999999987
        },
        {
          "name": "E3",
          "midi": 52,
          "time": 44.85709799999984,
          "velocity": 0.7480314960629921,
          "duration": 0.2857139999999987
        },
        {
          "name": "A2",
          "midi": 45,
          "time": 44.85709799999984,
          "velocity": 0.7480314960629921,
          "duration": 0.2857139999999987
        },
        {
          "name": "F#3",
          "midi": 54,
          "time": 45.142811999999836,
          "velocity": 0.7480314960629921,
          "duration": 0.2857139999999987
        },
        {
          "name": "C#3",
          "midi": 49,
          "time": 45.142811999999836,
          "velocity": 0.7480314960629921,
          "duration": 0.2857139999999987
        },
        {
          "name": "F#2",
          "midi": 42,
          "time": 45.142811999999836,
          "velocity": 0.7480314960629921,
          "duration": 0.2857139999999987
        },
        {
          "name": "F#3",
          "midi": 54,
          "time": 45.71423999999983,
          "velocity": 0.7480314960629921,
          "duration": 0.2857139999999987
        },
        {
          "name": "C#3",
          "midi": 49,
          "time": 45.71423999999983,
          "velocity": 0.7480314960629921,
          "duration": 0.2857139999999987
        },
        {
          "name": "F#2",
          "midi": 42,
          "time": 45.71423999999983,
          "velocity": 0.7480314960629921,
          "duration": 0.2857139999999987
        },
        {
          "name": "F#3",
          "midi": 54,
          "time": 45.99995399999983,
          "velocity": 0.7480314960629921,
          "duration": 0.2857139999999987
        },
        {
          "name": "C#3",
          "midi": 49,
          "time": 45.99995399999983,
          "velocity": 0.7480314960629921,
          "duration": 0.2857139999999987
        },
        {
          "name": "F#2",
          "midi": 42,
          "time": 45.99995399999983,
          "velocity": 0.7480314960629921,
          "duration": 0.2857139999999987
        },
        {
          "name": "F#3",
          "midi": 54,
          "time": 46.28566799999983,
          "velocity": 0.7480314960629921,
          "duration": 0.2857139999999987
        },
        {
          "name": "C#3",
          "midi": 49,
          "time": 46.28566799999983,
          "velocity": 0.7480314960629921,
          "duration": 0.2857139999999987
        },
        {
          "name": "F#2",
          "midi": 42,
          "time": 46.28566799999983,
          "velocity": 0.7480314960629921,
          "duration": 0.2857139999999987
        },
        {
          "name": "F#3",
          "midi": 54,
          "time": 46.57138199999983,
          "velocity": 0.7480314960629921,
          "duration": 0.2857139999999987
        },
        {
          "name": "C#3",
          "midi": 49,
          "time": 46.57138199999983,
          "velocity": 0.7480314960629921,
          "duration": 0.2857139999999987
        },
        {
          "name": "F#2",
          "midi": 42,
          "time": 46.57138199999983,
          "velocity": 0.7480314960629921,
          "duration": 0.2857139999999987
        },
        {
          "name": "F#3",
          "midi": 54,
          "time": 46.85709599999983,
          "velocity": 0.7480314960629921,
          "duration": 0.2857139999999987
        },
        {
          "name": "C#3",
          "midi": 49,
          "time": 46.85709599999983,
          "velocity": 0.7480314960629921,
          "duration": 0.2857139999999987
        },
        {
          "name": "F#2",
          "midi": 42,
          "time": 46.85709599999983,
          "velocity": 0.7480314960629921,
          "duration": 0.2857139999999987
        },
        {
          "name": "F#3",
          "midi": 54,
          "time": 47.14280999999983,
          "velocity": 0.7480314960629921,
          "duration": 0.2857139999999987
        },
        {
          "name": "C#3",
          "midi": 49,
          "time": 47.14280999999983,
          "velocity": 0.7480314960629921,
          "duration": 0.2857139999999987
        },
        {
          "name": "F#2",
          "midi": 42,
          "time": 47.14280999999983,
          "velocity": 0.7480314960629921,
          "duration": 0.2857139999999987
        },
        {
          "name": "F#3",
          "midi": 54,
          "time": 47.428523999999825,
          "velocity": 0.7480314960629921,
          "duration": 0.2857139999999987
        },
        {
          "name": "C#3",
          "midi": 49,
          "time": 47.428523999999825,
          "velocity": 0.7480314960629921,
          "duration": 0.2857139999999987
        },
        {
          "name": "F#2",
          "midi": 42,
          "time": 47.428523999999825,
          "velocity": 0.7480314960629921,
          "duration": 0.2857139999999987
        },
        {
          "name": "F#3",
          "midi": 54,
          "time": 47.714237999999824,
          "velocity": 0.7480314960629921,
          "duration": 0.2857139999999987
        },
        {
          "name": "C#3",
          "midi": 49,
          "time": 47.714237999999824,
          "velocity": 0.7480314960629921,
          "duration": 0.2857139999999987
        },
        {
          "name": "F#2",
          "midi": 42,
          "time": 47.714237999999824,
          "velocity": 0.7480314960629921,
          "duration": 0.2857139999999987
        },
        {
          "name": "A3",
          "midi": 57,
          "time": 47.99995199999982,
          "velocity": 0.7480314960629921,
          "duration": 0.2857139999999987
        },
        {
          "name": "E3",
          "midi": 52,
          "time": 47.99995199999982,
          "velocity": 0.7480314960629921,
          "duration": 0.2857139999999987
        },
        {
          "name": "A2",
          "midi": 45,
          "time": 47.99995199999982,
          "velocity": 0.7480314960629921,
          "duration": 0.2857139999999987
        },
        {
          "name": "A3",
          "midi": 57,
          "time": 48.28566599999982,
          "velocity": 0.7480314960629921,
          "duration": 0.2857139999999987
        },
        {
          "name": "E3",
          "midi": 52,
          "time": 48.28566599999982,
          "velocity": 0.7480314960629921,
          "duration": 0.2857139999999987
        },
        {
          "name": "A2",
          "midi": 45,
          "time": 48.28566599999982,
          "velocity": 0.7480314960629921,
          "duration": 0.2857139999999987
        },
        {
          "name": "A3",
          "midi": 57,
          "time": 48.57137999999982,
          "velocity": 0.7480314960629921,
          "duration": 0.2857139999999987
        },
        {
          "name": "E3",
          "midi": 52,
          "time": 48.57137999999982,
          "velocity": 0.7480314960629921,
          "duration": 0.2857139999999987
        },
        {
          "name": "A2",
          "midi": 45,
          "time": 48.57137999999982,
          "velocity": 0.7480314960629921,
          "duration": 0.2857139999999987
        },
        {
          "name": "A3",
          "midi": 57,
          "time": 48.85709399999982,
          "velocity": 0.7480314960629921,
          "duration": 0.2857139999999987
        },
        {
          "name": "E3",
          "midi": 52,
          "time": 48.85709399999982,
          "velocity": 0.7480314960629921,
          "duration": 0.2857139999999987
        },
        {
          "name": "A2",
          "midi": 45,
          "time": 48.85709399999982,
          "velocity": 0.7480314960629921,
          "duration": 0.2857139999999987
        },
        {
          "name": "A3",
          "midi": 57,
          "time": 49.14280799999982,
          "velocity": 0.7480314960629921,
          "duration": 0.2857139999999987
        },
        {
          "name": "E3",
          "midi": 52,
          "time": 49.14280799999982,
          "velocity": 0.7480314960629921,
          "duration": 0.2857139999999987
        },
        {
          "name": "A2",
          "midi": 45,
          "time": 49.14280799999982,
          "velocity": 0.7480314960629921,
          "duration": 0.2857139999999987
        },
        {
          "name": "A3",
          "midi": 57,
          "time": 49.428521999999816,
          "velocity": 0.7480314960629921,
          "duration": 0.2857139999999987
        },
        {
          "name": "E3",
          "midi": 52,
          "time": 49.428521999999816,
          "velocity": 0.7480314960629921,
          "duration": 0.2857139999999987
        },
        {
          "name": "A2",
          "midi": 45,
          "time": 49.428521999999816,
          "velocity": 0.7480314960629921,
          "duration": 0.2857139999999987
        },
        {
          "name": "A3",
          "midi": 57,
          "time": 49.714235999999815,
          "velocity": 0.7480314960629921,
          "duration": 0.2857139999999987
        },
        {
          "name": "E3",
          "midi": 52,
          "time": 49.714235999999815,
          "velocity": 0.7480314960629921,
          "duration": 0.2857139999999987
        },
        {
          "name": "A2",
          "midi": 45,
          "time": 49.714235999999815,
          "velocity": 0.7480314960629921,
          "duration": 0.2857139999999987
        },
        {
          "name": "A3",
          "midi": 57,
          "time": 49.999949999999814,
          "velocity": 0.7480314960629921,
          "duration": 0.2857139999999987
        },
        {
          "name": "E3",
          "midi": 52,
          "time": 49.999949999999814,
          "velocity": 0.7480314960629921,
          "duration": 0.2857139999999987
        },
        {
          "name": "A2",
          "midi": 45,
          "time": 49.999949999999814,
          "velocity": 0.7480314960629921,
          "duration": 0.2857139999999987
        },
        {
          "name": "E4",
          "midi": 64,
          "time": 50.28566399999981,
          "velocity": 0.7480314960629921,
          "duration": 0.2857139999999987
        },
        {
          "name": "B3",
          "midi": 59,
          "time": 50.28566399999981,
          "velocity": 0.7480314960629921,
          "duration": 0.2857139999999987
        },
        {
          "name": "E3",
          "midi": 52,
          "time": 50.28566399999981,
          "velocity": 0.7480314960629921,
          "duration": 0.2857139999999987
        },
        {
          "name": "E4",
          "midi": 64,
          "time": 50.57137799999981,
          "velocity": 0.7480314960629921,
          "duration": 0.2857139999999987
        },
        {
          "name": "B3",
          "midi": 59,
          "time": 50.57137799999981,
          "velocity": 0.7480314960629921,
          "duration": 0.2857139999999987
        },
        {
          "name": "E3",
          "midi": 52,
          "time": 50.57137799999981,
          "velocity": 0.7480314960629921,
          "duration": 0.2857139999999987
        },
        {
          "name": "E4",
          "midi": 64,
          "time": 50.85709199999981,
          "velocity": 0.7480314960629921,
          "duration": 0.2857139999999987
        },
        {
          "name": "B3",
          "midi": 59,
          "time": 50.85709199999981,
          "velocity": 0.7480314960629921,
          "duration": 0.2857139999999987
        },
        {
          "name": "E3",
          "midi": 52,
          "time": 50.85709199999981,
          "velocity": 0.7480314960629921,
          "duration": 0.2857139999999987
        },
        {
          "name": "E4",
          "midi": 64,
          "time": 51.14280599999981,
          "velocity": 0.7480314960629921,
          "duration": 0.2857139999999987
        },
        {
          "name": "B3",
          "midi": 59,
          "time": 51.14280599999981,
          "velocity": 0.7480314960629921,
          "duration": 0.2857139999999987
        },
        {
          "name": "E3",
          "midi": 52,
          "time": 51.14280599999981,
          "velocity": 0.7480314960629921,
          "duration": 0.2857139999999987
        },
        {
          "name": "E4",
          "midi": 64,
          "time": 51.42851999999981,
          "velocity": 0.7480314960629921,
          "duration": 0.2857139999999987
        },
        {
          "name": "B3",
          "midi": 59,
          "time": 51.42851999999981,
          "velocity": 0.7480314960629921,
          "duration": 0.2857139999999987
        },
        {
          "name": "E3",
          "midi": 52,
          "time": 51.42851999999981,
          "velocity": 0.7480314960629921,
          "duration": 0.2857139999999987
        },
        {
          "name": "E4",
          "midi": 64,
          "time": 51.714233999999806,
          "velocity": 0.7480314960629921,
          "duration": 0.2857139999999987
        },
        {
          "name": "B3",
          "midi": 59,
          "time": 51.714233999999806,
          "velocity": 0.7480314960629921,
          "duration": 0.2857139999999987
        },
        {
          "name": "E3",
          "midi": 52,
          "time": 51.714233999999806,
          "velocity": 0.7480314960629921,
          "duration": 0.2857139999999987
        },
        {
          "name": "E4",
          "midi": 64,
          "time": 51.999947999999804,
          "velocity": 0.7480314960629921,
          "duration": 0.2857139999999987
        },
        {
          "name": "B3",
          "midi": 59,
          "time": 51.999947999999804,
          "velocity": 0.7480314960629921,
          "duration": 0.2857139999999987
        },
        {
          "name": "E3",
          "midi": 52,
          "time": 51.999947999999804,
          "velocity": 0.7480314960629921,
          "duration": 0.2857139999999987
        },
        {
          "name": "E4",
          "midi": 64,
          "time": 52.2856619999998,
          "velocity": 0.7480314960629921,
          "duration": 0.2857139999999987
        },
        {
          "name": "B3",
          "midi": 59,
          "time": 52.2856619999998,
          "velocity": 0.7480314960629921,
          "duration": 0.2857139999999987
        },
        {
          "name": "E3",
          "midi": 52,
          "time": 52.2856619999998,
          "velocity": 0.7480314960629921,
          "duration": 0.2857139999999987
        },
        {
          "name": "F#3",
          "midi": 54,
          "time": 52.5713759999998,
          "velocity": 0.7480314960629921,
          "duration": 0.2857139999999987
        },
        {
          "name": "C#3",
          "midi": 49,
          "time": 52.5713759999998,
          "velocity": 0.7480314960629921,
          "duration": 0.2857139999999987
        },
        {
          "name": "F#2",
          "midi": 42,
          "time": 52.5713759999998,
          "velocity": 0.7480314960629921,
          "duration": 0.2857139999999987
        },
        {
          "name": "F#3",
          "midi": 54,
          "time": 52.8570899999998,
          "velocity": 0.7480314960629921,
          "duration": 0.2857139999999987
        },
        {
          "name": "C#3",
          "midi": 49,
          "time": 52.8570899999998,
          "velocity": 0.7480314960629921,
          "duration": 0.2857139999999987
        },
        {
          "name": "F#2",
          "midi": 42,
          "time": 52.8570899999998,
          "velocity": 0.7480314960629921,
          "duration": 0.2857139999999987
        },
        {
          "name": "F#3",
          "midi": 54,
          "time": 53.1428039999998,
          "velocity": 0.7480314960629921,
          "duration": 0.2857139999999987
        },
        {
          "name": "C#3",
          "midi": 49,
          "time": 53.1428039999998,
          "velocity": 0.7480314960629921,
          "duration": 0.2857139999999987
        },
        {
          "name": "F#2",
          "midi": 42,
          "time": 53.1428039999998,
          "velocity": 0.7480314960629921,
          "duration": 0.2857139999999987
        },
        {
          "name": "F#3",
          "midi": 54,
          "time": 53.4285179999998,
          "velocity": 0.7480314960629921,
          "duration": 0.2857139999999987
        },
        {
          "name": "C#3",
          "midi": 49,
          "time": 53.4285179999998,
          "velocity": 0.7480314960629921,
          "duration": 0.2857139999999987
        },
        {
          "name": "F#2",
          "midi": 42,
          "time": 53.4285179999998,
          "velocity": 0.7480314960629921,
          "duration": 0.2857139999999987
        },
        {
          "name": "F#3",
          "midi": 54,
          "time": 53.7142319999998,
          "velocity": 0.7480314960629921,
          "duration": 0.2857139999999987
        },
        {
          "name": "C#3",
          "midi": 49,
          "time": 53.7142319999998,
          "velocity": 0.7480314960629921,
          "duration": 0.2857139999999987
        },
        {
          "name": "F#2",
          "midi": 42,
          "time": 53.7142319999998,
          "velocity": 0.7480314960629921,
          "duration": 0.2857139999999987
        },
        {
          "name": "F#3",
          "midi": 54,
          "time": 53.999945999999795,
          "velocity": 0.7480314960629921,
          "duration": 0.2857139999999987
        },
        {
          "name": "C#3",
          "midi": 49,
          "time": 53.999945999999795,
          "velocity": 0.7480314960629921,
          "duration": 0.2857139999999987
        },
        {
          "name": "F#2",
          "midi": 42,
          "time": 53.999945999999795,
          "velocity": 0.7480314960629921,
          "duration": 0.2857139999999987
        },
        {
          "name": "F#3",
          "midi": 54,
          "time": 54.285659999999794,
          "velocity": 0.7480314960629921,
          "duration": 0.2857139999999987
        },
        {
          "name": "C#3",
          "midi": 49,
          "time": 54.285659999999794,
          "velocity": 0.7480314960629921,
          "duration": 0.2857139999999987
        },
        {
          "name": "F#2",
          "midi": 42,
          "time": 54.285659999999794,
          "velocity": 0.7480314960629921,
          "duration": 0.2857139999999987
        },
        {
          "name": "F#3",
          "midi": 54,
          "time": 54.57137399999979,
          "velocity": 0.7480314960629921,
          "duration": 0.2857139999999987
        },
        {
          "name": "C#3",
          "midi": 49,
          "time": 54.57137399999979,
          "velocity": 0.7480314960629921,
          "duration": 0.2857139999999987
        },
        {
          "name": "F#2",
          "midi": 42,
          "time": 54.57137399999979,
          "velocity": 0.7480314960629921,
          "duration": 0.2857139999999987
        },
        {
          "name": "F#3",
          "midi": 54,
          "time": 54.85708799999979,
          "velocity": 0.7480314960629921,
          "duration": 0.2857139999999987
        },
        {
          "name": "C#3",
          "midi": 49,
          "time": 54.85708799999979,
          "velocity": 0.7480314960629921,
          "duration": 0.2857139999999987
        },
        {
          "name": "F#2",
          "midi": 42,
          "time": 54.85708799999979,
          "velocity": 0.7480314960629921,
          "duration": 0.2857139999999987
        },
        {
          "name": "F#3",
          "midi": 54,
          "time": 55.14280199999979,
          "velocity": 0.7480314960629921,
          "duration": 0.2857139999999987
        },
        {
          "name": "C#3",
          "midi": 49,
          "time": 55.14280199999979,
          "velocity": 0.7480314960629921,
          "duration": 0.2857139999999987
        },
        {
          "name": "F#2",
          "midi": 42,
          "time": 55.14280199999979,
          "velocity": 0.7480314960629921,
          "duration": 0.2857139999999987
        },
        {
          "name": "F#3",
          "midi": 54,
          "time": 55.42851599999979,
          "velocity": 0.7480314960629921,
          "duration": 0.2857139999999987
        },
        {
          "name": "C#3",
          "midi": 49,
          "time": 55.42851599999979,
          "velocity": 0.7480314960629921,
          "duration": 0.2857139999999987
        },
        {
          "name": "F#2",
          "midi": 42,
          "time": 55.42851599999979,
          "velocity": 0.7480314960629921,
          "duration": 0.2857139999999987
        },
        {
          "name": "F#3",
          "midi": 54,
          "time": 55.71422999999979,
          "velocity": 0.7480314960629921,
          "duration": 0.2857139999999987
        },
        {
          "name": "C#3",
          "midi": 49,
          "time": 55.71422999999979,
          "velocity": 0.7480314960629921,
          "duration": 0.2857139999999987
        },
        {
          "name": "F#2",
          "midi": 42,
          "time": 55.71422999999979,
          "velocity": 0.7480314960629921,
          "duration": 0.2857139999999987
        },
        {
          "name": "F#3",
          "midi": 54,
          "time": 55.999943999999786,
          "velocity": 0.7480314960629921,
          "duration": 0.2857139999999987
        },
        {
          "name": "C#3",
          "midi": 49,
          "time": 55.999943999999786,
          "velocity": 0.7480314960629921,
          "duration": 0.2857139999999987
        },
        {
          "name": "F#2",
          "midi": 42,
          "time": 55.999943999999786,
          "velocity": 0.7480314960629921,
          "duration": 0.2857139999999987
        },
        {
          "name": "F#3",
          "midi": 54,
          "time": 56.285657999999785,
          "velocity": 0.7480314960629921,
          "duration": 0.2857139999999987
        },
        {
          "name": "C#3",
          "midi": 49,
          "time": 56.285657999999785,
          "velocity": 0.7480314960629921,
          "duration": 0.2857139999999987
        },
        {
          "name": "F#2",
          "midi": 42,
          "time": 56.285657999999785,
          "velocity": 0.7480314960629921,
          "duration": 0.2857139999999987
        },
        {
          "name": "F#3",
          "midi": 54,
          "time": 56.57137199999978,
          "velocity": 0.7480314960629921,
          "duration": 0.2857139999999987
        },
        {
          "name": "C#3",
          "midi": 49,
          "time": 56.57137199999978,
          "velocity": 0.7480314960629921,
          "duration": 0.2857139999999987
        },
        {
          "name": "F#2",
          "midi": 42,
          "time": 56.57137199999978,
          "velocity": 0.7480314960629921,
          "duration": 0.2857139999999987
        },
        {
          "name": "F#3",
          "midi": 54,
          "time": 56.85708599999978,
          "velocity": 0.7480314960629921,
          "duration": 0.2857139999999987
        },
        {
          "name": "C#3",
          "midi": 49,
          "time": 56.85708599999978,
          "velocity": 0.7480314960629921,
          "duration": 0.2857139999999987
        },
        {
          "name": "F#2",
          "midi": 42,
          "time": 56.85708599999978,
          "velocity": 0.7480314960629921,
          "duration": 0.2857139999999987
        },
        {
          "name": "A3",
          "midi": 57,
          "time": 57.14279999999978,
          "velocity": 0.7480314960629921,
          "duration": 0.2857139999999987
        },
        {
          "name": "E3",
          "midi": 52,
          "time": 57.14279999999978,
          "velocity": 0.7480314960629921,
          "duration": 0.2857139999999987
        },
        {
          "name": "A2",
          "midi": 45,
          "time": 57.14279999999978,
          "velocity": 0.7480314960629921,
          "duration": 0.2857139999999987
        },
        {
          "name": "A3",
          "midi": 57,
          "time": 57.42851399999978,
          "velocity": 0.7480314960629921,
          "duration": 0.2857139999999987
        },
        {
          "name": "E3",
          "midi": 52,
          "time": 57.42851399999978,
          "velocity": 0.7480314960629921,
          "duration": 0.2857139999999987
        },
        {
          "name": "A2",
          "midi": 45,
          "time": 57.42851399999978,
          "velocity": 0.7480314960629921,
          "duration": 0.2857139999999987
        },
        {
          "name": "A3",
          "midi": 57,
          "time": 57.71422799999978,
          "velocity": 0.7480314960629921,
          "duration": 0.2857139999999987
        },
        {
          "name": "E3",
          "midi": 52,
          "time": 57.71422799999978,
          "velocity": 0.7480314960629921,
          "duration": 0.2857139999999987
        },
        {
          "name": "A2",
          "midi": 45,
          "time": 57.71422799999978,
          "velocity": 0.7480314960629921,
          "duration": 0.2857139999999987
        },
        {
          "name": "A3",
          "midi": 57,
          "time": 57.99994199999978,
          "velocity": 0.7480314960629921,
          "duration": 0.2857139999999987
        },
        {
          "name": "E3",
          "midi": 52,
          "time": 57.99994199999978,
          "velocity": 0.7480314960629921,
          "duration": 0.2857139999999987
        },
        {
          "name": "A2",
          "midi": 45,
          "time": 57.99994199999978,
          "velocity": 0.7480314960629921,
          "duration": 0.2857139999999987
        },
        {
          "name": "A3",
          "midi": 57,
          "time": 58.285655999999776,
          "velocity": 0.7480314960629921,
          "duration": 0.2857139999999987
        },
        {
          "name": "E3",
          "midi": 52,
          "time": 58.285655999999776,
          "velocity": 0.7480314960629921,
          "duration": 0.2857139999999987
        },
        {
          "name": "A2",
          "midi": 45,
          "time": 58.285655999999776,
          "velocity": 0.7480314960629921,
          "duration": 0.2857139999999987
        },
        {
          "name": "A3",
          "midi": 57,
          "time": 58.571369999999774,
          "velocity": 0.7480314960629921,
          "duration": 0.2857139999999987
        },
        {
          "name": "E3",
          "midi": 52,
          "time": 58.571369999999774,
          "velocity": 0.7480314960629921,
          "duration": 0.2857139999999987
        },
        {
          "name": "A2",
          "midi": 45,
          "time": 58.571369999999774,
          "velocity": 0.7480314960629921,
          "duration": 0.2857139999999987
        },
        {
          "name": "A3",
          "midi": 57,
          "time": 58.85708399999977,
          "velocity": 0.7480314960629921,
          "duration": 0.2857139999999987
        },
        {
          "name": "E3",
          "midi": 52,
          "time": 58.85708399999977,
          "velocity": 0.7480314960629921,
          "duration": 0.2857139999999987
        },
        {
          "name": "A2",
          "midi": 45,
          "time": 58.85708399999977,
          "velocity": 0.7480314960629921,
          "duration": 0.2857139999999987
        },
        {
          "name": "A3",
          "midi": 57,
          "time": 59.14279799999977,
          "velocity": 0.7480314960629921,
          "duration": 0.2857139999999987
        },
        {
          "name": "E3",
          "midi": 52,
          "time": 59.14279799999977,
          "velocity": 0.7480314960629921,
          "duration": 0.2857139999999987
        },
        {
          "name": "A2",
          "midi": 45,
          "time": 59.14279799999977,
          "velocity": 0.7480314960629921,
          "duration": 0.2857139999999987
        },
        {
          "name": "E4",
          "midi": 64,
          "time": 59.42851199999977,
          "velocity": 0.7480314960629921,
          "duration": 0.2857139999999987
        },
        {
          "name": "B3",
          "midi": 59,
          "time": 59.42851199999977,
          "velocity": 0.7480314960629921,
          "duration": 0.2857139999999987
        },
        {
          "name": "E3",
          "midi": 52,
          "time": 59.42851199999977,
          "velocity": 0.7480314960629921,
          "duration": 0.2857139999999987
        },
        {
          "name": "E4",
          "midi": 64,
          "time": 59.71422599999977,
          "velocity": 0.7480314960629921,
          "duration": 0.2857139999999987
        },
        {
          "name": "B3",
          "midi": 59,
          "time": 59.71422599999977,
          "velocity": 0.7480314960629921,
          "duration": 0.2857139999999987
        },
        {
          "name": "E3",
          "midi": 52,
          "time": 59.71422599999977,
          "velocity": 0.7480314960629921,
          "duration": 0.2857139999999987
        },
        {
          "name": "E4",
          "midi": 64,
          "time": 59.99993999999977,
          "velocity": 0.7480314960629921,
          "duration": 0.2857139999999987
        },
        {
          "name": "B3",
          "midi": 59,
          "time": 59.99993999999977,
          "velocity": 0.7480314960629921,
          "duration": 0.2857139999999987
        },
        {
          "name": "E3",
          "midi": 52,
          "time": 59.99993999999977,
          "velocity": 0.7480314960629921,
          "duration": 0.2857139999999987
        },
        {
          "name": "E4",
          "midi": 64,
          "time": 60.28565399999977,
          "velocity": 0.7480314960629921,
          "duration": 0.2857139999999987
        },
        {
          "name": "B3",
          "midi": 59,
          "time": 60.28565399999977,
          "velocity": 0.7480314960629921,
          "duration": 0.2857139999999987
        },
        {
          "name": "E3",
          "midi": 52,
          "time": 60.28565399999977,
          "velocity": 0.7480314960629921,
          "duration": 0.2857139999999987
        },
        {
          "name": "E4",
          "midi": 64,
          "time": 60.571367999999765,
          "velocity": 0.7480314960629921,
          "duration": 0.2857139999999987
        },
        {
          "name": "B3",
          "midi": 59,
          "time": 60.571367999999765,
          "velocity": 0.7480314960629921,
          "duration": 0.2857139999999987
        },
        {
          "name": "E3",
          "midi": 52,
          "time": 60.571367999999765,
          "velocity": 0.7480314960629921,
          "duration": 0.2857139999999987
        },
        {
          "name": "E4",
          "midi": 64,
          "time": 60.857081999999764,
          "velocity": 0.7480314960629921,
          "duration": 0.2857139999999987
        },
        {
          "name": "B3",
          "midi": 59,
          "time": 60.857081999999764,
          "velocity": 0.7480314960629921,
          "duration": 0.2857139999999987
        },
        {
          "name": "E3",
          "midi": 52,
          "time": 60.857081999999764,
          "velocity": 0.7480314960629921,
          "duration": 0.2857139999999987
        },
        {
          "name": "E4",
          "midi": 64,
          "time": 61.14279599999976,
          "velocity": 0.7480314960629921,
          "duration": 0.2857139999999987
        },
        {
          "name": "B3",
          "midi": 59,
          "time": 61.14279599999976,
          "velocity": 0.7480314960629921,
          "duration": 0.2857139999999987
        },
        {
          "name": "E3",
          "midi": 52,
          "time": 61.14279599999976,
          "velocity": 0.7480314960629921,
          "duration": 0.2857139999999987
        },
        {
          "name": "E4",
          "midi": 64,
          "time": 61.42850999999976,
          "velocity": 0.7480314960629921,
          "duration": 0.2857139999999987
        },
        {
          "name": "B3",
          "midi": 59,
          "time": 61.42850999999976,
          "velocity": 0.7480314960629921,
          "duration": 0.2857139999999987
        },
        {
          "name": "E3",
          "midi": 52,
          "time": 61.42850999999976,
          "velocity": 0.7480314960629921,
          "duration": 0.2857139999999987
        },
        {
          "name": "C#4",
          "midi": 61,
          "time": 61.71422399999976,
          "velocity": 0.7480314960629921,
          "duration": 0.2857139999999987
        },
        {
          "name": "G#3",
          "midi": 56,
          "time": 61.71422399999976,
          "velocity": 0.7480314960629921,
          "duration": 0.2857139999999987
        },
        {
          "name": "C#3",
          "midi": 49,
          "time": 61.71422399999976,
          "velocity": 0.7480314960629921,
          "duration": 0.2857139999999987
        },
        {
          "name": "C#4",
          "midi": 61,
          "time": 61.99993799999976,
          "velocity": 0.7480314960629921,
          "duration": 0.2857139999999987
        },
        {
          "name": "G#3",
          "midi": 56,
          "time": 61.99993799999976,
          "velocity": 0.7480314960629921,
          "duration": 0.2857139999999987
        },
        {
          "name": "C#3",
          "midi": 49,
          "time": 61.99993799999976,
          "velocity": 0.7480314960629921,
          "duration": 0.2857139999999987
        },
        {
          "name": "C#4",
          "midi": 61,
          "time": 62.28565199999976,
          "velocity": 0.7480314960629921,
          "duration": 0.2857139999999987
        },
        {
          "name": "G#3",
          "midi": 56,
          "time": 62.28565199999976,
          "velocity": 0.7480314960629921,
          "duration": 0.2857139999999987
        },
        {
          "name": "C#3",
          "midi": 49,
          "time": 62.28565199999976,
          "velocity": 0.7480314960629921,
          "duration": 0.2857139999999987
        },
        {
          "name": "C#4",
          "midi": 61,
          "time": 62.571365999999756,
          "velocity": 0.7480314960629921,
          "duration": 0.2857139999999987
        },
        {
          "name": "G#3",
          "midi": 56,
          "time": 62.571365999999756,
          "velocity": 0.7480314960629921,
          "duration": 0.2857139999999987
        },
        {
          "name": "C#3",
          "midi": 49,
          "time": 62.571365999999756,
          "velocity": 0.7480314960629921,
          "duration": 0.2857139999999987
        },
        {
          "name": "C#4",
          "midi": 61,
          "time": 62.857079999999755,
          "velocity": 0.7480314960629921,
          "duration": 0.2857139999999987
        },
        {
          "name": "G#3",
          "midi": 56,
          "time": 62.857079999999755,
          "velocity": 0.7480314960629921,
          "duration": 0.2857139999999987
        },
        {
          "name": "C#3",
          "midi": 49,
          "time": 62.857079999999755,
          "velocity": 0.7480314960629921,
          "duration": 0.2857139999999987
        },
        {
          "name": "C#4",
          "midi": 61,
          "time": 63.14279399999975,
          "velocity": 0.7480314960629921,
          "duration": 0.2857139999999987
        },
        {
          "name": "G#3",
          "midi": 56,
          "time": 63.14279399999975,
          "velocity": 0.7480314960629921,
          "duration": 0.2857139999999987
        },
        {
          "name": "C#3",
          "midi": 49,
          "time": 63.14279399999975,
          "velocity": 0.7480314960629921,
          "duration": 0.2857139999999987
        },
        {
          "name": "C#4",
          "midi": 61,
          "time": 63.42850799999975,
          "velocity": 0.7480314960629921,
          "duration": 0.2857139999999987
        },
        {
          "name": "G#3",
          "midi": 56,
          "time": 63.42850799999975,
          "velocity": 0.7480314960629921,
          "duration": 0.2857139999999987
        },
        {
          "name": "C#3",
          "midi": 49,
          "time": 63.42850799999975,
          "velocity": 0.7480314960629921,
          "duration": 0.2857139999999987
        },
        {
          "name": "C#4",
          "midi": 61,
          "time": 63.71422199999975,
          "velocity": 0.7480314960629921,
          "duration": 0.2857139999999987
        },
        {
          "name": "G#3",
          "midi": 56,
          "time": 63.71422199999975,
          "velocity": 0.7480314960629921,
          "duration": 0.2857139999999987
        },
        {
          "name": "C#3",
          "midi": 49,
          "time": 63.71422199999975,
          "velocity": 0.7480314960629921,
          "duration": 0.2857139999999987
        },
        {
          "name": "C#4",
          "midi": 61,
          "time": 63.99993599999975,
          "velocity": 0.7480314960629921,
          "duration": 0.2857140000000129
        },
        {
          "name": "G#3",
          "midi": 56,
          "time": 63.99993599999975,
          "velocity": 0.7480314960629921,
          "duration": 0.2857140000000129
        },
        {
          "name": "C#3",
          "midi": 49,
          "time": 63.99993599999975,
          "velocity": 0.7480314960629921,
          "duration": 0.14285700000000645
        },
        {
          "name": "C#4",
          "midi": 61,
          "time": 64.28564999999976,
          "velocity": 0.7480314960629921,
          "duration": 0.14285700000000645
        },
        {
          "name": "G#3",
          "midi": 56,
          "time": 64.28564999999976,
          "velocity": 0.7480314960629921,
          "duration": 0.14285700000000645
        },
        {
          "name": "C#3",
          "midi": 49,
          "time": 64.28564999999976,
          "velocity": 0.7480314960629921,
          "duration": 0.14285700000000645
        },
        {
          "name": "B3",
          "midi": 59,
          "time": 64.42850699999977,
          "velocity": 0.7480314960629921,
          "duration": 0.2857140000000129
        },
        {
          "name": "F#3",
          "midi": 54,
          "time": 64.42850699999977,
          "velocity": 0.7480314960629921,
          "duration": 0.2857140000000129
        },
        {
          "name": "B2",
          "midi": 47,
          "time": 64.42850699999977,
          "velocity": 0.7480314960629921,
          "duration": 0.14285700000000645
        },
        {
          "name": "B3",
          "midi": 59,
          "time": 64.71422099999978,
          "velocity": 0.7480314960629921,
          "duration": 0.2857140000000129
        },
        {
          "name": "F#3",
          "midi": 54,
          "time": 64.71422099999978,
          "velocity": 0.7480314960629921,
          "duration": 0.2857140000000129
        },
        {
          "name": "B2",
          "midi": 47,
          "time": 64.71422099999978,
          "velocity": 0.7480314960629921,
          "duration": 0.14285700000000645
        },
        {
          "name": "B3",
          "midi": 59,
          "time": 64.9999349999998,
          "velocity": 0.7480314960629921,
          "duration": 0.14285700000000645
        },
        {
          "name": "F#3",
          "midi": 54,
          "time": 64.9999349999998,
          "velocity": 0.7480314960629921,
          "duration": 0.14285700000000645
        },
        {
          "name": "B2",
          "midi": 47,
          "time": 64.9999349999998,
          "velocity": 0.7480314960629921,
          "duration": 0.14285700000000645
        },
        {
          "name": "A3",
          "midi": 57,
          "time": 65.1427919999998,
          "velocity": 0.7480314960629921,
          "duration": 0.2857139999999987
        },
        {
          "name": "E3",
          "midi": 52,
          "time": 65.1427919999998,
          "velocity": 0.7480314960629921,
          "duration": 0.2857139999999987
        },
        {
          "name": "A2",
          "midi": 45,
          "time": 65.1427919999998,
          "velocity": 0.7480314960629921,
          "duration": 0.2857139999999987
        },
        {
          "name": "A3",
          "midi": 57,
          "time": 65.4285059999998,
          "velocity": 0.7480314960629921,
          "duration": 0.2857139999999987
        },
        {
          "name": "E3",
          "midi": 52,
          "time": 65.4285059999998,
          "velocity": 0.7480314960629921,
          "duration": 0.2857139999999987
        },
        {
          "name": "A2",
          "midi": 45,
          "time": 65.4285059999998,
          "velocity": 0.7480314960629921,
          "duration": 0.2857139999999987
        },
        {
          "name": "F#3",
          "midi": 54,
          "time": 65.7142199999998,
          "velocity": 0.7480314960629921,
          "duration": 0.2857139999999987
        },
        {
          "name": "C#3",
          "midi": 49,
          "time": 65.7142199999998,
          "velocity": 0.7480314960629921,
          "duration": 0.2857139999999987
        },
        {
          "name": "F#2",
          "midi": 42,
          "time": 65.7142199999998,
          "velocity": 0.7480314960629921,
          "duration": 0.2857139999999987
        },
        {
          "name": "F#3",
          "midi": 54,
          "time": 65.9999339999998,
          "velocity": 0.7480314960629921,
          "duration": 0.2857139999999987
        },
        {
          "name": "C#3",
          "midi": 49,
          "time": 65.9999339999998,
          "velocity": 0.7480314960629921,
          "duration": 0.2857139999999987
        },
        {
          "name": "F#2",
          "midi": 42,
          "time": 65.9999339999998,
          "velocity": 0.7480314960629921,
          "duration": 0.2857139999999987
        },
        {
          "name": "C#4",
          "midi": 61,
          "time": 66.2856479999998,
          "velocity": 0.7480314960629921,
          "duration": 0.2857139999999987
        },
        {
          "name": "G#3",
          "midi": 56,
          "time": 66.2856479999998,
          "velocity": 0.7480314960629921,
          "duration": 0.2857139999999987
        },
        {
          "name": "C#3",
          "midi": 49,
          "time": 66.2856479999998,
          "velocity": 0.7480314960629921,
          "duration": 0.2857139999999987
        },
        {
          "name": "C#4",
          "midi": 61,
          "time": 66.5713619999998,
          "velocity": 0.7480314960629921,
          "duration": 0.14285700000000645
        },
        {
          "name": "G#3",
          "midi": 56,
          "time": 66.5713619999998,
          "velocity": 0.7480314960629921,
          "duration": 0.14285700000000645
        },
        {
          "name": "C#3",
          "midi": 49,
          "time": 66.5713619999998,
          "velocity": 0.7480314960629921,
          "duration": 0.14285700000000645
        },
        {
          "name": "B3",
          "midi": 59,
          "time": 66.7142189999998,
          "velocity": 0.7480314960629921,
          "duration": 0.2857139999999987
        },
        {
          "name": "F#3",
          "midi": 54,
          "time": 66.7142189999998,
          "velocity": 0.7480314960629921,
          "duration": 0.2857139999999987
        },
        {
          "name": "B2",
          "midi": 47,
          "time": 66.7142189999998,
          "velocity": 0.7480314960629921,
          "duration": 0.2857139999999987
        },
        {
          "name": "B3",
          "midi": 59,
          "time": 66.9999329999998,
          "velocity": 0.7480314960629921,
          "duration": 0.14285700000000645
        },
        {
          "name": "F#3",
          "midi": 54,
          "time": 66.9999329999998,
          "velocity": 0.7480314960629921,
          "duration": 0.2857140000000129
        },
        {
          "name": "B2",
          "midi": 47,
          "time": 66.9999329999998,
          "velocity": 0.7480314960629921,
          "duration": 0.2857140000000129
        },
        {
          "name": "B3",
          "midi": 59,
          "time": 67.28564699999981,
          "velocity": 0.7480314960629921,
          "duration": 0.14285700000000645
        },
        {
          "name": "F#3",
          "midi": 54,
          "time": 67.28564699999981,
          "velocity": 0.7480314960629921,
          "duration": 0.14285700000000645
        },
        {
          "name": "B2",
          "midi": 47,
          "time": 67.28564699999981,
          "velocity": 0.7480314960629921,
          "duration": 0.14285700000000645
        },
        {
          "name": "A3",
          "midi": 57,
          "time": 67.42850399999982,
          "velocity": 0.7480314960629921,
          "duration": 0.2857139999999987
        },
        {
          "name": "E3",
          "midi": 52,
          "time": 67.42850399999982,
          "velocity": 0.7480314960629921,
          "duration": 0.2857139999999987
        },
        {
          "name": "A2",
          "midi": 45,
          "time": 67.42850399999982,
          "velocity": 0.7480314960629921,
          "duration": 0.2857139999999987
        },
        {
          "name": "A3",
          "midi": 57,
          "time": 67.71421799999982,
          "velocity": 0.7480314960629921,
          "duration": 0.2857139999999987
        },
        {
          "name": "E3",
          "midi": 52,
          "time": 67.71421799999982,
          "velocity": 0.7480314960629921,
          "duration": 0.2857139999999987
        },
        {
          "name": "A2",
          "midi": 45,
          "time": 67.71421799999982,
          "velocity": 0.7480314960629921,
          "duration": 0.2857139999999987
        },
        {
          "name": "F#3",
          "midi": 54,
          "time": 67.99993199999982,
          "velocity": 0.7480314960629921,
          "duration": 0.2857139999999987
        },
        {
          "name": "C#3",
          "midi": 49,
          "time": 67.99993199999982,
          "velocity": 0.7480314960629921,
          "duration": 0.2857139999999987
        },
        {
          "name": "F#2",
          "midi": 42,
          "time": 67.99993199999982,
          "velocity": 0.7480314960629921,
          "duration": 0.2857139999999987
        },
        {
          "name": "F#3",
          "midi": 54,
          "time": 68.28564599999982,
          "velocity": 0.7480314960629921,
          "duration": 0.2857139999999987
        },
        {
          "name": "C#3",
          "midi": 49,
          "time": 68.28564599999982,
          "velocity": 0.7480314960629921,
          "duration": 0.2857139999999987
        },
        {
          "name": "F#2",
          "midi": 42,
          "time": 68.28564599999982,
          "velocity": 0.7480314960629921,
          "duration": 0.2857139999999987
        },
        {
          "name": "C#4",
          "midi": 61,
          "time": 68.57135999999981,
          "velocity": 0.7480314960629921,
          "duration": 0.2857139999999987
        },
        {
          "name": "G#3",
          "midi": 56,
          "time": 68.57135999999981,
          "velocity": 0.7480314960629921,
          "duration": 0.2857139999999987
        },
        {
          "name": "C#3",
          "midi": 49,
          "time": 68.57135999999981,
          "velocity": 0.7480314960629921,
          "duration": 0.2857139999999987
        },
        {
          "name": "C#4",
          "midi": 61,
          "time": 68.85707399999981,
          "velocity": 0.7480314960629921,
          "duration": 0.14285700000000645
        },
        {
          "name": "G#3",
          "midi": 56,
          "time": 68.85707399999981,
          "velocity": 0.7480314960629921,
          "duration": 0.14285700000000645
        },
        {
          "name": "C#3",
          "midi": 49,
          "time": 68.85707399999981,
          "velocity": 0.7480314960629921,
          "duration": 0.14285700000000645
        },
        {
          "name": "B3",
          "midi": 59,
          "time": 68.99993099999982,
          "velocity": 0.7480314960629921,
          "duration": 0.2857139999999987
        },
        {
          "name": "F#3",
          "midi": 54,
          "time": 68.99993099999982,
          "velocity": 0.7480314960629921,
          "duration": 0.2857139999999987
        },
        {
          "name": "B2",
          "midi": 47,
          "time": 68.99993099999982,
          "velocity": 0.7480314960629921,
          "duration": 0.2857139999999987
        },
        {
          "name": "B3",
          "midi": 59,
          "time": 69.28564499999982,
          "velocity": 0.7480314960629921,
          "duration": 0.14285700000000645
        },
        {
          "name": "F#3",
          "midi": 54,
          "time": 69.28564499999982,
          "velocity": 0.7480314960629921,
          "duration": 0.2857140000000129
        },
        {
          "name": "B2",
          "midi": 47,
          "time": 69.28564499999982,
          "velocity": 0.7480314960629921,
          "duration": 0.2857140000000129
        },
        {
          "name": "B3",
          "midi": 59,
          "time": 69.57135899999983,
          "velocity": 0.7480314960629921,
          "duration": 0.14285700000000645
        },
        {
          "name": "F#3",
          "midi": 54,
          "time": 69.57135899999983,
          "velocity": 0.7480314960629921,
          "duration": 0.14285700000000645
        },
        {
          "name": "B2",
          "midi": 47,
          "time": 69.57135899999983,
          "velocity": 0.7480314960629921,
          "duration": 0.14285700000000645
        },
        {
          "name": "A3",
          "midi": 57,
          "time": 69.71421599999984,
          "velocity": 0.7480314960629921,
          "duration": 0.2857139999999987
        },
        {
          "name": "E3",
          "midi": 52,
          "time": 69.71421599999984,
          "velocity": 0.7480314960629921,
          "duration": 0.2857139999999987
        },
        {
          "name": "A2",
          "midi": 45,
          "time": 69.71421599999984,
          "velocity": 0.7480314960629921,
          "duration": 0.2857139999999987
        },
        {
          "name": "A3",
          "midi": 57,
          "time": 69.99992999999984,
          "velocity": 0.7480314960629921,
          "duration": 0.2857139999999987
        },
        {
          "name": "E3",
          "midi": 52,
          "time": 69.99992999999984,
          "velocity": 0.7480314960629921,
          "duration": 0.2857139999999987
        },
        {
          "name": "A2",
          "midi": 45,
          "time": 69.99992999999984,
          "velocity": 0.7480314960629921,
          "duration": 0.2857139999999987
        },
        {
          "name": "F#3",
          "midi": 54,
          "time": 70.28564399999983,
          "velocity": 0.7480314960629921,
          "duration": 0.2857139999999987
        },
        {
          "name": "C#3",
          "midi": 49,
          "time": 70.28564399999983,
          "velocity": 0.7480314960629921,
          "duration": 0.2857139999999987
        },
        {
          "name": "F#2",
          "midi": 42,
          "time": 70.28564399999983,
          "velocity": 0.7480314960629921,
          "duration": 0.2857139999999987
        },
        {
          "name": "F#3",
          "midi": 54,
          "time": 70.57135799999983,
          "velocity": 0.7480314960629921,
          "duration": 0.2857139999999987
        },
        {
          "name": "C#3",
          "midi": 49,
          "time": 70.57135799999983,
          "velocity": 0.7480314960629921,
          "duration": 0.2857139999999987
        },
        {
          "name": "F#2",
          "midi": 42,
          "time": 70.57135799999983,
          "velocity": 0.7480314960629921,
          "duration": 0.2857139999999987
        },
        {
          "name": "C#4",
          "midi": 61,
          "time": 70.85707199999983,
          "velocity": 0.7480314960629921,
          "duration": 0.14285700000000645
        },
        {
          "name": "G#3",
          "midi": 56,
          "time": 70.85707199999983,
          "velocity": 0.7480314960629921,
          "duration": 0.2857140000000129
        },
        {
          "name": "C#3",
          "midi": 49,
          "time": 70.85707199999983,
          "velocity": 0.7480314960629921,
          "duration": 0.2857140000000129
        },
        {
          "name": "C#4",
          "midi": 61,
          "time": 71.14278599999984,
          "velocity": 0.7480314960629921,
          "duration": 0.14285700000000645
        },
        {
          "name": "G#3",
          "midi": 56,
          "time": 71.14278599999984,
          "velocity": 0.7480314960629921,
          "duration": 0.14285700000000645
        },
        {
          "name": "C#3",
          "midi": 49,
          "time": 71.14278599999984,
          "velocity": 0.7480314960629921,
          "duration": 0.14285700000000645
        },
        {
          "name": "B3",
          "midi": 59,
          "time": 71.28564299999985,
          "velocity": 0.7480314960629921,
          "duration": 0.2857139999999987
        },
        {
          "name": "F#3",
          "midi": 54,
          "time": 71.28564299999985,
          "velocity": 0.7480314960629921,
          "duration": 0.2857139999999987
        },
        {
          "name": "B2",
          "midi": 47,
          "time": 71.28564299999985,
          "velocity": 0.7480314960629921,
          "duration": 0.2857139999999987
        },
        {
          "name": "B3",
          "midi": 59,
          "time": 71.57135699999985,
          "velocity": 0.7480314960629921,
          "duration": 0.14285700000000645
        },
        {
          "name": "F#3",
          "midi": 54,
          "time": 71.57135699999985,
          "velocity": 0.7480314960629921,
          "duration": 0.2857140000000129
        },
        {
          "name": "B2",
          "midi": 47,
          "time": 71.57135699999985,
          "velocity": 0.7480314960629921,
          "duration": 0.2857140000000129
        },
        {
          "name": "B3",
          "midi": 59,
          "time": 71.85707099999986,
          "velocity": 0.7480314960629921,
          "duration": 0.14285700000000645
        },
        {
          "name": "F#3",
          "midi": 54,
          "time": 71.85707099999986,
          "velocity": 0.7480314960629921,
          "duration": 0.14285700000000645
        },
        {
          "name": "B2",
          "midi": 47,
          "time": 71.85707099999986,
          "velocity": 0.7480314960629921,
          "duration": 0.14285700000000645
        },
        {
          "name": "A3",
          "midi": 57,
          "time": 71.99992799999987,
          "velocity": 0.7480314960629921,
          "duration": 0.2857139999999987
        },
        {
          "name": "E3",
          "midi": 52,
          "time": 71.99992799999987,
          "velocity": 0.7480314960629921,
          "duration": 0.2857139999999987
        },
        {
          "name": "A2",
          "midi": 45,
          "time": 71.99992799999987,
          "velocity": 0.7480314960629921,
          "duration": 0.2857139999999987
        },
        {
          "name": "A3",
          "midi": 57,
          "time": 72.28564199999987,
          "velocity": 0.7480314960629921,
          "duration": 0.2857139999999987
        },
        {
          "name": "E3",
          "midi": 52,
          "time": 72.28564199999987,
          "velocity": 0.7480314960629921,
          "duration": 0.2857139999999987
        },
        {
          "name": "A2",
          "midi": 45,
          "time": 72.28564199999987,
          "velocity": 0.7480314960629921,
          "duration": 0.2857139999999987
        },
        {
          "name": "F#3",
          "midi": 54,
          "time": 72.57135599999987,
          "velocity": 0.7480314960629921,
          "duration": 0.2857139999999987
        },
        {
          "name": "C#3",
          "midi": 49,
          "time": 72.57135599999987,
          "velocity": 0.7480314960629921,
          "duration": 0.2857139999999987
        },
        {
          "name": "F#2",
          "midi": 42,
          "time": 72.57135599999987,
          "velocity": 0.7480314960629921,
          "duration": 0.2857139999999987
        },
        {
          "name": "C#4",
          "midi": 61,
          "time": 73.14278399999986,
          "velocity": 0.7480314960629921,
          "duration": 0.2857140000000129
        },
        {
          "name": "G#3",
          "midi": 56,
          "time": 73.14278399999986,
          "velocity": 0.7480314960629921,
          "duration": 0.2857140000000129
        },
        {
          "name": "C#3",
          "midi": 49,
          "time": 73.14278399999986,
          "velocity": 0.7480314960629921,
          "duration": 0.14285700000000645
        },
        {
          "name": "C#4",
          "midi": 61,
          "time": 73.42849799999988,
          "velocity": 0.7480314960629921,
          "duration": 0.14285700000000645
        },
        {
          "name": "G#3",
          "midi": 56,
          "time": 73.42849799999988,
          "velocity": 0.7480314960629921,
          "duration": 0.14285700000000645
        },
        {
          "name": "C#3",
          "midi": 49,
          "time": 73.42849799999988,
          "velocity": 0.7480314960629921,
          "duration": 0.14285700000000645
        },
        {
          "name": "B3",
          "midi": 59,
          "time": 73.57135499999988,
          "velocity": 0.7480314960629921,
          "duration": 0.2857140000000129
        },
        {
          "name": "F#3",
          "midi": 54,
          "time": 73.57135499999988,
          "velocity": 0.7480314960629921,
          "duration": 0.2857140000000129
        },
        {
          "name": "B2",
          "midi": 47,
          "time": 73.57135499999988,
          "velocity": 0.7480314960629921,
          "duration": 0.14285700000000645
        },
        {
          "name": "B3",
          "midi": 59,
          "time": 73.8570689999999,
          "velocity": 0.7480314960629921,
          "duration": 0.2857140000000129
        },
        {
          "name": "F#3",
          "midi": 54,
          "time": 73.8570689999999,
          "velocity": 0.7480314960629921,
          "duration": 0.2857140000000129
        },
        {
          "name": "B2",
          "midi": 47,
          "time": 73.8570689999999,
          "velocity": 0.7480314960629921,
          "duration": 0.14285700000000645
        },
        {
          "name": "B3",
          "midi": 59,
          "time": 74.14278299999991,
          "velocity": 0.7480314960629921,
          "duration": 0.14285700000000645
        },
        {
          "name": "F#3",
          "midi": 54,
          "time": 74.14278299999991,
          "velocity": 0.7480314960629921,
          "duration": 0.14285700000000645
        },
        {
          "name": "B2",
          "midi": 47,
          "time": 74.14278299999991,
          "velocity": 0.7480314960629921,
          "duration": 0.14285700000000645
        },
        {
          "name": "A3",
          "midi": 57,
          "time": 74.28563999999992,
          "velocity": 0.7480314960629921,
          "duration": 0.2857139999999987
        },
        {
          "name": "E3",
          "midi": 52,
          "time": 74.28563999999992,
          "velocity": 0.7480314960629921,
          "duration": 0.2857139999999987
        },
        {
          "name": "A2",
          "midi": 45,
          "time": 74.28563999999992,
          "velocity": 0.7480314960629921,
          "duration": 0.2857139999999987
        },
        {
          "name": "A3",
          "midi": 57,
          "time": 74.57135399999991,
          "velocity": 0.7480314960629921,
          "duration": 0.2857139999999987
        },
        {
          "name": "E3",
          "midi": 52,
          "time": 74.57135399999991,
          "velocity": 0.7480314960629921,
          "duration": 0.2857139999999987
        },
        {
          "name": "A2",
          "midi": 45,
          "time": 74.57135399999991,
          "velocity": 0.7480314960629921,
          "duration": 0.2857139999999987
        },
        {
          "name": "F#3",
          "midi": 54,
          "time": 74.85706799999991,
          "velocity": 0.7480314960629921,
          "duration": 0.2857139999999987
        },
        {
          "name": "C#3",
          "midi": 49,
          "time": 74.85706799999991,
          "velocity": 0.7480314960629921,
          "duration": 0.2857139999999987
        },
        {
          "name": "F#2",
          "midi": 42,
          "time": 74.85706799999991,
          "velocity": 0.7480314960629921,
          "duration": 0.2857139999999987
        },
        {
          "name": "F#3",
          "midi": 54,
          "time": 75.14278199999991,
          "velocity": 0.7480314960629921,
          "duration": 0.2857139999999987
        },
        {
          "name": "C#3",
          "midi": 49,
          "time": 75.14278199999991,
          "velocity": 0.7480314960629921,
          "duration": 0.2857139999999987
        },
        {
          "name": "F#2",
          "midi": 42,
          "time": 75.14278199999991,
          "velocity": 0.7480314960629921,
          "duration": 0.2857139999999987
        },
        {
          "name": "C#4",
          "midi": 61,
          "time": 75.42849599999991,
          "velocity": 0.7480314960629921,
          "duration": 0.2857139999999987
        },
        {
          "name": "G#3",
          "midi": 56,
          "time": 75.42849599999991,
          "velocity": 0.7480314960629921,
          "duration": 0.2857139999999987
        },
        {
          "name": "C#3",
          "midi": 49,
          "time": 75.42849599999991,
          "velocity": 0.7480314960629921,
          "duration": 0.2857139999999987
        },
        {
          "name": "C#4",
          "midi": 61,
          "time": 75.71420999999991,
          "velocity": 0.7480314960629921,
          "duration": 0.14285700000000645
        },
        {
          "name": "G#3",
          "midi": 56,
          "time": 75.71420999999991,
          "velocity": 0.7480314960629921,
          "duration": 0.14285700000000645
        },
        {
          "name": "C#3",
          "midi": 49,
          "time": 75.71420999999991,
          "velocity": 0.7480314960629921,
          "duration": 0.14285700000000645
        },
        {
          "name": "B3",
          "midi": 59,
          "time": 75.85706699999992,
          "velocity": 0.7480314960629921,
          "duration": 0.2857139999999987
        },
        {
          "name": "F#3",
          "midi": 54,
          "time": 75.85706699999992,
          "velocity": 0.7480314960629921,
          "duration": 0.2857139999999987
        },
        {
          "name": "B2",
          "midi": 47,
          "time": 75.85706699999992,
          "velocity": 0.7480314960629921,
          "duration": 0.2857139999999987
        },
        {
          "name": "B3",
          "midi": 59,
          "time": 76.14278099999991,
          "velocity": 0.7480314960629921,
          "duration": 0.14285700000000645
        },
        {
          "name": "F#3",
          "midi": 54,
          "time": 76.14278099999991,
          "velocity": 0.7480314960629921,
          "duration": 0.2857140000000129
        },
        {
          "name": "B2",
          "midi": 47,
          "time": 76.14278099999991,
          "velocity": 0.7480314960629921,
          "duration": 0.2857140000000129
        },
        {
          "name": "B3",
          "midi": 59,
          "time": 76.42849499999993,
          "velocity": 0.7480314960629921,
          "duration": 0.14285700000000645
        },
        {
          "name": "F#3",
          "midi": 54,
          "time": 76.42849499999993,
          "velocity": 0.7480314960629921,
          "duration": 0.14285700000000645
        },
        {
          "name": "B2",
          "midi": 47,
          "time": 76.42849499999993,
          "velocity": 0.7480314960629921,
          "duration": 0.14285700000000645
        },
        {
          "name": "A3",
          "midi": 57,
          "time": 76.57135199999993,
          "velocity": 0.7480314960629921,
          "duration": 0.2857139999999987
        },
        {
          "name": "E3",
          "midi": 52,
          "time": 76.57135199999993,
          "velocity": 0.7480314960629921,
          "duration": 0.2857139999999987
        },
        {
          "name": "A2",
          "midi": 45,
          "time": 76.57135199999993,
          "velocity": 0.7480314960629921,
          "duration": 0.2857139999999987
        },
        {
          "name": "A3",
          "midi": 57,
          "time": 76.85706599999993,
          "velocity": 0.7480314960629921,
          "duration": 0.2857139999999987
        },
        {
          "name": "E3",
          "midi": 52,
          "time": 76.85706599999993,
          "velocity": 0.7480314960629921,
          "duration": 0.2857139999999987
        },
        {
          "name": "A2",
          "midi": 45,
          "time": 76.85706599999993,
          "velocity": 0.7480314960629921,
          "duration": 0.2857139999999987
        },
        {
          "name": "F#3",
          "midi": 54,
          "time": 77.14277999999993,
          "velocity": 0.7480314960629921,
          "duration": 0.2857139999999987
        },
        {
          "name": "C#3",
          "midi": 49,
          "time": 77.14277999999993,
          "velocity": 0.7480314960629921,
          "duration": 0.2857139999999987
        },
        {
          "name": "F#2",
          "midi": 42,
          "time": 77.14277999999993,
          "velocity": 0.7480314960629921,
          "duration": 0.2857139999999987
        },
        {
          "name": "F#3",
          "midi": 54,
          "time": 77.42849399999993,
          "velocity": 0.7480314960629921,
          "duration": 0.2857139999999987
        },
        {
          "name": "C#3",
          "midi": 49,
          "time": 77.42849399999993,
          "velocity": 0.7480314960629921,
          "duration": 0.2857139999999987
        },
        {
          "name": "F#2",
          "midi": 42,
          "time": 77.42849399999993,
          "velocity": 0.7480314960629921,
          "duration": 0.2857139999999987
        },
        {
          "name": "C#4",
          "midi": 61,
          "time": 77.71420799999993,
          "velocity": 0.7480314960629921,
          "duration": 0.2857139999999987
        },
        {
          "name": "G#3",
          "midi": 56,
          "time": 77.71420799999993,
          "velocity": 0.7480314960629921,
          "duration": 0.2857139999999987
        },
        {
          "name": "C#3",
          "midi": 49,
          "time": 77.71420799999993,
          "velocity": 0.7480314960629921,
          "duration": 0.2857139999999987
        },
        {
          "name": "C#4",
          "midi": 61,
          "time": 77.99992199999993,
          "velocity": 0.7480314960629921,
          "duration": 0.14285700000000645
        },
        {
          "name": "G#3",
          "midi": 56,
          "time": 77.99992199999993,
          "velocity": 0.7480314960629921,
          "duration": 0.14285700000000645
        },
        {
          "name": "C#3",
          "midi": 49,
          "time": 77.99992199999993,
          "velocity": 0.7480314960629921,
          "duration": 0.14285700000000645
        },
        {
          "name": "B3",
          "midi": 59,
          "time": 78.14277899999993,
          "velocity": 0.7480314960629921,
          "duration": 0.2857139999999987
        },
        {
          "name": "F#3",
          "midi": 54,
          "time": 78.14277899999993,
          "velocity": 0.7480314960629921,
          "duration": 0.2857139999999987
        },
        {
          "name": "B2",
          "midi": 47,
          "time": 78.14277899999993,
          "velocity": 0.7480314960629921,
          "duration": 0.2857139999999987
        },
        {
          "name": "B3",
          "midi": 59,
          "time": 78.42849299999993,
          "velocity": 0.7480314960629921,
          "duration": 0.14285700000000645
        },
        {
          "name": "F#3",
          "midi": 54,
          "time": 78.42849299999993,
          "velocity": 0.7480314960629921,
          "duration": 0.2857140000000129
        },
        {
          "name": "B2",
          "midi": 47,
          "time": 78.42849299999993,
          "velocity": 0.7480314960629921,
          "duration": 0.2857140000000129
        },
        {
          "name": "B3",
          "midi": 59,
          "time": 78.71420699999994,
          "velocity": 0.7480314960629921,
          "duration": 0.14285700000000645
        },
        {
          "name": "F#3",
          "midi": 54,
          "time": 78.71420699999994,
          "velocity": 0.7480314960629921,
          "duration": 0.14285700000000645
        },
        {
          "name": "B2",
          "midi": 47,
          "time": 78.71420699999994,
          "velocity": 0.7480314960629921,
          "duration": 0.14285700000000645
        },
        {
          "name": "A3",
          "midi": 57,
          "time": 78.85706399999995,
          "velocity": 0.7480314960629921,
          "duration": 0.2857139999999987
        },
        {
          "name": "E3",
          "midi": 52,
          "time": 78.85706399999995,
          "velocity": 0.7480314960629921,
          "duration": 0.2857139999999987
        },
        {
          "name": "A2",
          "midi": 45,
          "time": 78.85706399999995,
          "velocity": 0.7480314960629921,
          "duration": 0.2857139999999987
        },
        {
          "name": "A3",
          "midi": 57,
          "time": 79.14277799999995,
          "velocity": 0.7480314960629921,
          "duration": 0.2857139999999987
        },
        {
          "name": "E3",
          "midi": 52,
          "time": 79.14277799999995,
          "velocity": 0.7480314960629921,
          "duration": 0.2857139999999987
        },
        {
          "name": "A2",
          "midi": 45,
          "time": 79.14277799999995,
          "velocity": 0.7480314960629921,
          "duration": 0.2857139999999987
        },
        {
          "name": "F#3",
          "midi": 54,
          "time": 79.42849199999995,
          "velocity": 0.7480314960629921,
          "duration": 0.2857139999999987
        },
        {
          "name": "C#3",
          "midi": 49,
          "time": 79.42849199999995,
          "velocity": 0.7480314960629921,
          "duration": 0.2857139999999987
        },
        {
          "name": "F#2",
          "midi": 42,
          "time": 79.42849199999995,
          "velocity": 0.7480314960629921,
          "duration": 0.2857139999999987
        },
        {
          "name": "F#3",
          "midi": 54,
          "time": 79.71420599999995,
          "velocity": 0.7480314960629921,
          "duration": 0.2857139999999987
        },
        {
          "name": "C#3",
          "midi": 49,
          "time": 79.71420599999995,
          "velocity": 0.7480314960629921,
          "duration": 0.2857139999999987
        },
        {
          "name": "F#2",
          "midi": 42,
          "time": 79.71420599999995,
          "velocity": 0.7480314960629921,
          "duration": 0.2857139999999987
        },
        {
          "name": "C#4",
          "midi": 61,
          "time": 79.99991999999995,
          "velocity": 0.7480314960629921,
          "duration": 0.14285700000000645
        },
        {
          "name": "G#3",
          "midi": 56,
          "time": 79.99991999999995,
          "velocity": 0.7480314960629921,
          "duration": 0.2857140000000129
        },
        {
          "name": "C#3",
          "midi": 49,
          "time": 79.99991999999995,
          "velocity": 0.7480314960629921,
          "duration": 0.2857140000000129
        },
        {
          "name": "C#4",
          "midi": 61,
          "time": 80.28563399999996,
          "velocity": 0.7480314960629921,
          "duration": 0.14285700000000645
        },
        {
          "name": "G#3",
          "midi": 56,
          "time": 80.28563399999996,
          "velocity": 0.7480314960629921,
          "duration": 0.14285700000000645
        },
        {
          "name": "C#3",
          "midi": 49,
          "time": 80.28563399999996,
          "velocity": 0.7480314960629921,
          "duration": 0.14285700000000645
        },
        {
          "name": "B3",
          "midi": 59,
          "time": 80.42849099999997,
          "velocity": 0.7480314960629921,
          "duration": 0.2857139999999987
        },
        {
          "name": "F#3",
          "midi": 54,
          "time": 80.42849099999997,
          "velocity": 0.7480314960629921,
          "duration": 0.2857139999999987
        },
        {
          "name": "B2",
          "midi": 47,
          "time": 80.42849099999997,
          "velocity": 0.7480314960629921,
          "duration": 0.2857139999999987
        },
        {
          "name": "B3",
          "midi": 59,
          "time": 80.71420499999996,
          "velocity": 0.7480314960629921,
          "duration": 0.14285700000000645
        },
        {
          "name": "F#3",
          "midi": 54,
          "time": 80.71420499999996,
          "velocity": 0.7480314960629921,
          "duration": 0.2857140000000129
        },
        {
          "name": "B2",
          "midi": 47,
          "time": 80.71420499999996,
          "velocity": 0.7480314960629921,
          "duration": 0.2857140000000129
        },
        {
          "name": "B3",
          "midi": 59,
          "time": 80.99991899999998,
          "velocity": 0.7480314960629921,
          "duration": 0.14285700000000645
        },
        {
          "name": "F#3",
          "midi": 54,
          "time": 80.99991899999998,
          "velocity": 0.7480314960629921,
          "duration": 0.14285700000000645
        },
        {
          "name": "B2",
          "midi": 47,
          "time": 80.99991899999998,
          "velocity": 0.7480314960629921,
          "duration": 0.14285700000000645
        },
        {
          "name": "A3",
          "midi": 57,
          "time": 81.14277599999998,
          "velocity": 0.7480314960629921,
          "duration": 0.2857139999999987
        },
        {
          "name": "E3",
          "midi": 52,
          "time": 81.14277599999998,
          "velocity": 0.7480314960629921,
          "duration": 0.2857139999999987
        },
        {
          "name": "A2",
          "midi": 45,
          "time": 81.14277599999998,
          "velocity": 0.7480314960629921,
          "duration": 0.2857139999999987
        },
        {
          "name": "A3",
          "midi": 57,
          "time": 81.42848999999998,
          "velocity": 0.7480314960629921,
          "duration": 0.2857139999999987
        },
        {
          "name": "E3",
          "midi": 52,
          "time": 81.42848999999998,
          "velocity": 0.7480314960629921,
          "duration": 0.2857139999999987
        },
        {
          "name": "A2",
          "midi": 45,
          "time": 81.42848999999998,
          "velocity": 0.7480314960629921,
          "duration": 0.2857139999999987
        },
        {
          "name": "F#3",
          "midi": 54,
          "time": 81.71420399999998,
          "velocity": 0.7480314960629921,
          "duration": 0.2857139999999987
        },
        {
          "name": "C#3",
          "midi": 49,
          "time": 81.71420399999998,
          "velocity": 0.7480314960629921,
          "duration": 0.2857139999999987
        },
        {
          "name": "F#2",
          "midi": 42,
          "time": 81.71420399999998,
          "velocity": 0.7480314960629921,
          "duration": 0.2857139999999987
        },
        {
          "name": "C#4",
          "midi": 61,
          "time": 82.28563199999998,
          "velocity": 0.7480314960629921,
          "duration": 0.2857140000000129
        },
        {
          "name": "G#3",
          "midi": 56,
          "time": 82.28563199999998,
          "velocity": 0.7480314960629921,
          "duration": 0.2857140000000129
        },
        {
          "name": "C#3",
          "midi": 49,
          "time": 82.28563199999998,
          "velocity": 0.7480314960629921,
          "duration": 0.14285700000000645
        },
        {
          "name": "C#4",
          "midi": 61,
          "time": 82.57134599999999,
          "velocity": 0.7480314960629921,
          "duration": 0.14285700000000645
        },
        {
          "name": "G#3",
          "midi": 56,
          "time": 82.57134599999999,
          "velocity": 0.7480314960629921,
          "duration": 0.14285700000000645
        },
        {
          "name": "C#3",
          "midi": 49,
          "time": 82.57134599999999,
          "velocity": 0.7480314960629921,
          "duration": 0.14285700000000645
        },
        {
          "name": "B3",
          "midi": 59,
          "time": 82.714203,
          "velocity": 0.7480314960629921,
          "duration": 0.2857140000000129
        },
        {
          "name": "F#3",
          "midi": 54,
          "time": 82.714203,
          "velocity": 0.7480314960629921,
          "duration": 0.2857140000000129
        },
        {
          "name": "B2",
          "midi": 47,
          "time": 82.714203,
          "velocity": 0.7480314960629921,
          "duration": 0.14285700000000645
        },
        {
          "name": "B3",
          "midi": 59,
          "time": 82.99991700000001,
          "velocity": 0.7480314960629921,
          "duration": 0.2857140000000129
        },
        {
          "name": "F#3",
          "midi": 54,
          "time": 82.99991700000001,
          "velocity": 0.7480314960629921,
          "duration": 0.2857140000000129
        },
        {
          "name": "B2",
          "midi": 47,
          "time": 82.99991700000001,
          "velocity": 0.7480314960629921,
          "duration": 0.14285700000000645
        },
        {
          "name": "B3",
          "midi": 59,
          "time": 83.28563100000002,
          "velocity": 0.7480314960629921,
          "duration": 0.14285700000000645
        },
        {
          "name": "F#3",
          "midi": 54,
          "time": 83.28563100000002,
          "velocity": 0.7480314960629921,
          "duration": 0.14285700000000645
        },
        {
          "name": "B2",
          "midi": 47,
          "time": 83.28563100000002,
          "velocity": 0.7480314960629921,
          "duration": 0.14285700000000645
        },
        {
          "name": "A3",
          "midi": 57,
          "time": 83.42848800000003,
          "velocity": 0.7480314960629921,
          "duration": 0.2857139999999987
        },
        {
          "name": "E3",
          "midi": 52,
          "time": 83.42848800000003,
          "velocity": 0.7480314960629921,
          "duration": 0.2857139999999987
        },
        {
          "name": "A2",
          "midi": 45,
          "time": 83.42848800000003,
          "velocity": 0.7480314960629921,
          "duration": 0.2857139999999987
        },
        {
          "name": "A3",
          "midi": 57,
          "time": 83.71420200000003,
          "velocity": 0.7480314960629921,
          "duration": 0.2857139999999987
        },
        {
          "name": "E3",
          "midi": 52,
          "time": 83.71420200000003,
          "velocity": 0.7480314960629921,
          "duration": 0.2857139999999987
        },
        {
          "name": "A2",
          "midi": 45,
          "time": 83.71420200000003,
          "velocity": 0.7480314960629921,
          "duration": 0.2857139999999987
        },
        {
          "name": "F#3",
          "midi": 54,
          "time": 83.99991600000003,
          "velocity": 0.7480314960629921,
          "duration": 0.2857139999999987
        },
        {
          "name": "C#3",
          "midi": 49,
          "time": 83.99991600000003,
          "velocity": 0.7480314960629921,
          "duration": 0.2857139999999987
        },
        {
          "name": "F#2",
          "midi": 42,
          "time": 83.99991600000003,
          "velocity": 0.7480314960629921,
          "duration": 0.2857139999999987
        },
        {
          "name": "F#3",
          "midi": 54,
          "time": 84.28563000000003,
          "velocity": 0.7480314960629921,
          "duration": 0.2857139999999987
        },
        {
          "name": "C#3",
          "midi": 49,
          "time": 84.28563000000003,
          "velocity": 0.7480314960629921,
          "duration": 0.2857139999999987
        },
        {
          "name": "F#2",
          "midi": 42,
          "time": 84.28563000000003,
          "velocity": 0.7480314960629921,
          "duration": 0.2857139999999987
        },
        {
          "name": "C#4",
          "midi": 61,
          "time": 84.57134400000002,
          "velocity": 0.7480314960629921,
          "duration": 0.2857139999999987
        },
        {
          "name": "G#3",
          "midi": 56,
          "time": 84.57134400000002,
          "velocity": 0.7480314960629921,
          "duration": 0.2857139999999987
        },
        {
          "name": "C#3",
          "midi": 49,
          "time": 84.57134400000002,
          "velocity": 0.7480314960629921,
          "duration": 0.2857139999999987
        },
        {
          "name": "C#4",
          "midi": 61,
          "time": 84.85705800000002,
          "velocity": 0.7480314960629921,
          "duration": 0.14285700000000645
        },
        {
          "name": "G#3",
          "midi": 56,
          "time": 84.85705800000002,
          "velocity": 0.7480314960629921,
          "duration": 0.14285700000000645
        },
        {
          "name": "C#3",
          "midi": 49,
          "time": 84.85705800000002,
          "velocity": 0.7480314960629921,
          "duration": 0.14285700000000645
        },
        {
          "name": "B3",
          "midi": 59,
          "time": 84.99991500000003,
          "velocity": 0.7480314960629921,
          "duration": 0.2857139999999987
        },
        {
          "name": "F#3",
          "midi": 54,
          "time": 84.99991500000003,
          "velocity": 0.7480314960629921,
          "duration": 0.2857139999999987
        },
        {
          "name": "B2",
          "midi": 47,
          "time": 84.99991500000003,
          "velocity": 0.7480314960629921,
          "duration": 0.2857139999999987
        },
        {
          "name": "B3",
          "midi": 59,
          "time": 85.28562900000003,
          "velocity": 0.7480314960629921,
          "duration": 0.14285700000000645
        },
        {
          "name": "F#3",
          "midi": 54,
          "time": 85.28562900000003,
          "velocity": 0.7480314960629921,
          "duration": 0.2857140000000129
        },
        {
          "name": "B2",
          "midi": 47,
          "time": 85.28562900000003,
          "velocity": 0.7480314960629921,
          "duration": 0.2857140000000129
        },
        {
          "name": "B3",
          "midi": 59,
          "time": 85.57134300000004,
          "velocity": 0.7480314960629921,
          "duration": 0.14285700000000645
        },
        {
          "name": "F#3",
          "midi": 54,
          "time": 85.57134300000004,
          "velocity": 0.7480314960629921,
          "duration": 0.14285700000000645
        },
        {
          "name": "B2",
          "midi": 47,
          "time": 85.57134300000004,
          "velocity": 0.7480314960629921,
          "duration": 0.14285700000000645
        },
        {
          "name": "A3",
          "midi": 57,
          "time": 85.71420000000005,
          "velocity": 0.7480314960629921,
          "duration": 0.2857139999999987
        },
        {
          "name": "E3",
          "midi": 52,
          "time": 85.71420000000005,
          "velocity": 0.7480314960629921,
          "duration": 0.2857139999999987
        },
        {
          "name": "A2",
          "midi": 45,
          "time": 85.71420000000005,
          "velocity": 0.7480314960629921,
          "duration": 0.2857139999999987
        },
        {
          "name": "A3",
          "midi": 57,
          "time": 85.99991400000005,
          "velocity": 0.7480314960629921,
          "duration": 0.2857139999999987
        },
        {
          "name": "E3",
          "midi": 52,
          "time": 85.99991400000005,
          "velocity": 0.7480314960629921,
          "duration": 0.2857139999999987
        },
        {
          "name": "A2",
          "midi": 45,
          "time": 85.99991400000005,
          "velocity": 0.7480314960629921,
          "duration": 0.2857139999999987
        },
        {
          "name": "F#3",
          "midi": 54,
          "time": 86.28562800000005,
          "velocity": 0.7480314960629921,
          "duration": 0.2857139999999987
        },
        {
          "name": "C#3",
          "midi": 49,
          "time": 86.28562800000005,
          "velocity": 0.7480314960629921,
          "duration": 0.2857139999999987
        },
        {
          "name": "F#2",
          "midi": 42,
          "time": 86.28562800000005,
          "velocity": 0.7480314960629921,
          "duration": 0.2857139999999987
        },
        {
          "name": "F#3",
          "midi": 54,
          "time": 86.57134200000004,
          "velocity": 0.7480314960629921,
          "duration": 0.2857139999999987
        },
        {
          "name": "C#3",
          "midi": 49,
          "time": 86.57134200000004,
          "velocity": 0.7480314960629921,
          "duration": 0.2857139999999987
        },
        {
          "name": "F#2",
          "midi": 42,
          "time": 86.57134200000004,
          "velocity": 0.7480314960629921,
          "duration": 0.2857139999999987
        },
        {
          "name": "C#4",
          "midi": 61,
          "time": 86.85705600000004,
          "velocity": 0.7480314960629921,
          "duration": 0.2857139999999987
        },
        {
          "name": "G#3",
          "midi": 56,
          "time": 86.85705600000004,
          "velocity": 0.7480314960629921,
          "duration": 0.2857139999999987
        },
        {
          "name": "C#3",
          "midi": 49,
          "time": 86.85705600000004,
          "velocity": 0.7480314960629921,
          "duration": 0.2857139999999987
        },
        {
          "name": "C#4",
          "midi": 61,
          "time": 87.14277000000004,
          "velocity": 0.7480314960629921,
          "duration": 0.14285700000000645
        },
        {
          "name": "G#3",
          "midi": 56,
          "time": 87.14277000000004,
          "velocity": 0.7480314960629921,
          "duration": 0.14285700000000645
        },
        {
          "name": "C#3",
          "midi": 49,
          "time": 87.14277000000004,
          "velocity": 0.7480314960629921,
          "duration": 0.14285700000000645
        },
        {
          "name": "B3",
          "midi": 59,
          "time": 87.28562700000005,
          "velocity": 0.7480314960629921,
          "duration": 0.2857139999999987
        },
        {
          "name": "F#3",
          "midi": 54,
          "time": 87.28562700000005,
          "velocity": 0.7480314960629921,
          "duration": 0.2857139999999987
        },
        {
          "name": "B2",
          "midi": 47,
          "time": 87.28562700000005,
          "velocity": 0.7480314960629921,
          "duration": 0.2857139999999987
        },
        {
          "name": "B3",
          "midi": 59,
          "time": 87.57134100000005,
          "velocity": 0.7480314960629921,
          "duration": 0.14285700000000645
        },
        {
          "name": "F#3",
          "midi": 54,
          "time": 87.57134100000005,
          "velocity": 0.7480314960629921,
          "duration": 0.2857140000000129
        },
        {
          "name": "B2",
          "midi": 47,
          "time": 87.57134100000005,
          "velocity": 0.7480314960629921,
          "duration": 0.2857140000000129
        },
        {
          "name": "B3",
          "midi": 59,
          "time": 87.85705500000006,
          "velocity": 0.7480314960629921,
          "duration": 0.14285700000000645
        },
        {
          "name": "F#3",
          "midi": 54,
          "time": 87.85705500000006,
          "velocity": 0.7480314960629921,
          "duration": 0.14285700000000645
        },
        {
          "name": "B2",
          "midi": 47,
          "time": 87.85705500000006,
          "velocity": 0.7480314960629921,
          "duration": 0.14285700000000645
        },
        {
          "name": "A3",
          "midi": 57,
          "time": 87.99991200000007,
          "velocity": 0.7480314960629921,
          "duration": 0.2857139999999987
        },
        {
          "name": "E3",
          "midi": 52,
          "time": 87.99991200000007,
          "velocity": 0.7480314960629921,
          "duration": 0.2857139999999987
        },
        {
          "name": "A2",
          "midi": 45,
          "time": 87.99991200000007,
          "velocity": 0.7480314960629921,
          "duration": 0.2857139999999987
        },
        {
          "name": "A3",
          "midi": 57,
          "time": 88.28562600000006,
          "velocity": 0.7480314960629921,
          "duration": 0.2857139999999987
        },
        {
          "name": "E3",
          "midi": 52,
          "time": 88.28562600000006,
          "velocity": 0.7480314960629921,
          "duration": 0.2857139999999987
        },
        {
          "name": "A2",
          "midi": 45,
          "time": 88.28562600000006,
          "velocity": 0.7480314960629921,
          "duration": 0.2857139999999987
        },
        {
          "name": "F#3",
          "midi": 54,
          "time": 88.57134000000006,
          "velocity": 0.7480314960629921,
          "duration": 0.2857139999999987
        },
        {
          "name": "C#3",
          "midi": 49,
          "time": 88.57134000000006,
          "velocity": 0.7480314960629921,
          "duration": 0.2857139999999987
        },
        {
          "name": "F#2",
          "midi": 42,
          "time": 88.57134000000006,
          "velocity": 0.7480314960629921,
          "duration": 0.2857139999999987
        },
        {
          "name": "F#3",
          "midi": 54,
          "time": 88.85705400000006,
          "velocity": 0.7480314960629921,
          "duration": 0.2857139999999987
        },
        {
          "name": "C#3",
          "midi": 49,
          "time": 88.85705400000006,
          "velocity": 0.7480314960629921,
          "duration": 0.2857139999999987
        },
        {
          "name": "F#2",
          "midi": 42,
          "time": 88.85705400000006,
          "velocity": 0.7480314960629921,
          "duration": 0.2857139999999987
        },
        {
          "name": "C#4",
          "midi": 61,
          "time": 89.14276800000006,
          "velocity": 0.7480314960629921,
          "duration": 0.14285700000000645
        },
        {
          "name": "G#3",
          "midi": 56,
          "time": 89.14276800000006,
          "velocity": 0.7480314960629921,
          "duration": 0.2857140000000129
        },
        {
          "name": "C#3",
          "midi": 49,
          "time": 89.14276800000006,
          "velocity": 0.7480314960629921,
          "duration": 0.2857140000000129
        },
        {
          "name": "C#4",
          "midi": 61,
          "time": 89.42848200000007,
          "velocity": 0.7480314960629921,
          "duration": 0.14285700000000645
        },
        {
          "name": "G#3",
          "midi": 56,
          "time": 89.42848200000007,
          "velocity": 0.7480314960629921,
          "duration": 0.14285700000000645
        },
        {
          "name": "C#3",
          "midi": 49,
          "time": 89.42848200000007,
          "velocity": 0.7480314960629921,
          "duration": 0.14285700000000645
        },
        {
          "name": "B3",
          "midi": 59,
          "time": 89.57133900000008,
          "velocity": 0.7480314960629921,
          "duration": 0.2857139999999987
        },
        {
          "name": "F#3",
          "midi": 54,
          "time": 89.57133900000008,
          "velocity": 0.7480314960629921,
          "duration": 0.2857139999999987
        },
        {
          "name": "B2",
          "midi": 47,
          "time": 89.57133900000008,
          "velocity": 0.7480314960629921,
          "duration": 0.2857139999999987
        },
        {
          "name": "B3",
          "midi": 59,
          "time": 89.85705300000008,
          "velocity": 0.7480314960629921,
          "duration": 0.14285700000000645
        },
        {
          "name": "F#3",
          "midi": 54,
          "time": 89.85705300000008,
          "velocity": 0.7480314960629921,
          "duration": 0.2857140000000129
        },
        {
          "name": "B2",
          "midi": 47,
          "time": 89.85705300000008,
          "velocity": 0.7480314960629921,
          "duration": 0.2857140000000129
        },
        {
          "name": "B3",
          "midi": 59,
          "time": 90.14276700000009,
          "velocity": 0.7480314960629921,
          "duration": 0.14285700000000645
        },
        {
          "name": "F#3",
          "midi": 54,
          "time": 90.14276700000009,
          "velocity": 0.7480314960629921,
          "duration": 0.14285700000000645
        },
        {
          "name": "B2",
          "midi": 47,
          "time": 90.14276700000009,
          "velocity": 0.7480314960629921,
          "duration": 0.14285700000000645
        },
        {
          "name": "A3",
          "midi": 57,
          "time": 90.2856240000001,
          "velocity": 0.7480314960629921,
          "duration": 0.2857139999999987
        },
        {
          "name": "E3",
          "midi": 52,
          "time": 90.2856240000001,
          "velocity": 0.7480314960629921,
          "duration": 0.2857139999999987
        },
        {
          "name": "A2",
          "midi": 45,
          "time": 90.2856240000001,
          "velocity": 0.7480314960629921,
          "duration": 0.2857139999999987
        },
        {
          "name": "A3",
          "midi": 57,
          "time": 90.5713380000001,
          "velocity": 0.7480314960629921,
          "duration": 0.2857139999999987
        },
        {
          "name": "E3",
          "midi": 52,
          "time": 90.5713380000001,
          "velocity": 0.7480314960629921,
          "duration": 0.2857139999999987
        },
        {
          "name": "A2",
          "midi": 45,
          "time": 90.5713380000001,
          "velocity": 0.7480314960629921,
          "duration": 0.2857139999999987
        },
        {
          "name": "F#3",
          "midi": 54,
          "time": 90.8570520000001,
          "velocity": 0.7480314960629921,
          "duration": 0.2857139999999987
        },
        {
          "name": "C#3",
          "midi": 49,
          "time": 90.8570520000001,
          "velocity": 0.7480314960629921,
          "duration": 0.2857139999999987
        },
        {
          "name": "F#2",
          "midi": 42,
          "time": 90.8570520000001,
          "velocity": 0.7480314960629921,
          "duration": 0.2857139999999987
        },
        {
          "name": "F#3",
          "midi": 54,
          "time": 91.42848000000009,
          "velocity": 0.7480314960629921,
          "duration": 0.2857139999999987
        },
        {
          "name": "C#3",
          "midi": 49,
          "time": 91.42848000000009,
          "velocity": 0.7480314960629921,
          "duration": 0.2857139999999987
        },
        {
          "name": "F#2",
          "midi": 42,
          "time": 91.42848000000009,
          "velocity": 0.7480314960629921,
          "duration": 0.2857139999999987
        },
        {
          "name": "F#3",
          "midi": 54,
          "time": 91.71419400000009,
          "velocity": 0.7480314960629921,
          "duration": 0.2857139999999987
        },
        {
          "name": "C#3",
          "midi": 49,
          "time": 91.71419400000009,
          "velocity": 0.7480314960629921,
          "duration": 0.2857139999999987
        },
        {
          "name": "F#2",
          "midi": 42,
          "time": 91.71419400000009,
          "velocity": 0.7480314960629921,
          "duration": 0.2857139999999987
        },
        {
          "name": "F#3",
          "midi": 54,
          "time": 91.99990800000009,
          "velocity": 0.7480314960629921,
          "duration": 0.2857139999999987
        },
        {
          "name": "C#3",
          "midi": 49,
          "time": 91.99990800000009,
          "velocity": 0.7480314960629921,
          "duration": 0.2857139999999987
        },
        {
          "name": "F#2",
          "midi": 42,
          "time": 91.99990800000009,
          "velocity": 0.7480314960629921,
          "duration": 0.2857139999999987
        },
        {
          "name": "F#3",
          "midi": 54,
          "time": 92.28562200000009,
          "velocity": 0.7480314960629921,
          "duration": 0.2857139999999987
        },
        {
          "name": "C#3",
          "midi": 49,
          "time": 92.28562200000009,
          "velocity": 0.7480314960629921,
          "duration": 0.2857139999999987
        },
        {
          "name": "F#2",
          "midi": 42,
          "time": 92.28562200000009,
          "velocity": 0.7480314960629921,
          "duration": 0.2857139999999987
        },
        {
          "name": "F#3",
          "midi": 54,
          "time": 92.57133600000009,
          "velocity": 0.7480314960629921,
          "duration": 0.2857139999999987
        },
        {
          "name": "C#3",
          "midi": 49,
          "time": 92.57133600000009,
          "velocity": 0.7480314960629921,
          "duration": 0.2857139999999987
        },
        {
          "name": "F#2",
          "midi": 42,
          "time": 92.57133600000009,
          "velocity": 0.7480314960629921,
          "duration": 0.2857139999999987
        },
        {
          "name": "F#3",
          "midi": 54,
          "time": 92.85705000000009,
          "velocity": 0.7480314960629921,
          "duration": 0.2857139999999987
        },
        {
          "name": "C#3",
          "midi": 49,
          "time": 92.85705000000009,
          "velocity": 0.7480314960629921,
          "duration": 0.2857139999999987
        },
        {
          "name": "F#2",
          "midi": 42,
          "time": 92.85705000000009,
          "velocity": 0.7480314960629921,
          "duration": 0.2857139999999987
        },
        {
          "name": "F#3",
          "midi": 54,
          "time": 93.14276400000008,
          "velocity": 0.7480314960629921,
          "duration": 0.2857139999999987
        },
        {
          "name": "C#3",
          "midi": 49,
          "time": 93.14276400000008,
          "velocity": 0.7480314960629921,
          "duration": 0.2857139999999987
        },
        {
          "name": "F#2",
          "midi": 42,
          "time": 93.14276400000008,
          "velocity": 0.7480314960629921,
          "duration": 0.2857139999999987
        },
        {
          "name": "F#3",
          "midi": 54,
          "time": 93.42847800000008,
          "velocity": 0.7480314960629921,
          "duration": 0.2857139999999987
        },
        {
          "name": "C#3",
          "midi": 49,
          "time": 93.42847800000008,
          "velocity": 0.7480314960629921,
          "duration": 0.2857139999999987
        },
        {
          "name": "F#2",
          "midi": 42,
          "time": 93.42847800000008,
          "velocity": 0.7480314960629921,
          "duration": 0.2857139999999987
        },
        {
          "name": "A3",
          "midi": 57,
          "time": 93.71419200000008,
          "velocity": 0.7480314960629921,
          "duration": 0.2857139999999987
        },
        {
          "name": "E3",
          "midi": 52,
          "time": 93.71419200000008,
          "velocity": 0.7480314960629921,
          "duration": 0.2857139999999987
        },
        {
          "name": "A2",
          "midi": 45,
          "time": 93.71419200000008,
          "velocity": 0.7480314960629921,
          "duration": 0.2857139999999987
        },
        {
          "name": "A3",
          "midi": 57,
          "time": 93.99990600000008,
          "velocity": 0.7480314960629921,
          "duration": 0.2857139999999987
        },
        {
          "name": "E3",
          "midi": 52,
          "time": 93.99990600000008,
          "velocity": 0.7480314960629921,
          "duration": 0.2857139999999987
        },
        {
          "name": "A2",
          "midi": 45,
          "time": 93.99990600000008,
          "velocity": 0.7480314960629921,
          "duration": 0.2857139999999987
        },
        {
          "name": "A3",
          "midi": 57,
          "time": 94.28562000000008,
          "velocity": 0.7480314960629921,
          "duration": 0.2857139999999987
        },
        {
          "name": "E3",
          "midi": 52,
          "time": 94.28562000000008,
          "velocity": 0.7480314960629921,
          "duration": 0.2857139999999987
        },
        {
          "name": "A2",
          "midi": 45,
          "time": 94.28562000000008,
          "velocity": 0.7480314960629921,
          "duration": 0.2857139999999987
        },
        {
          "name": "A3",
          "midi": 57,
          "time": 94.57133400000008,
          "velocity": 0.7480314960629921,
          "duration": 0.2857139999999987
        },
        {
          "name": "E3",
          "midi": 52,
          "time": 94.57133400000008,
          "velocity": 0.7480314960629921,
          "duration": 0.2857139999999987
        },
        {
          "name": "A2",
          "midi": 45,
          "time": 94.57133400000008,
          "velocity": 0.7480314960629921,
          "duration": 0.2857139999999987
        },
        {
          "name": "A3",
          "midi": 57,
          "time": 94.85704800000008,
          "velocity": 0.7480314960629921,
          "duration": 0.2857139999999987
        },
        {
          "name": "E3",
          "midi": 52,
          "time": 94.85704800000008,
          "velocity": 0.7480314960629921,
          "duration": 0.2857139999999987
        },
        {
          "name": "A2",
          "midi": 45,
          "time": 94.85704800000008,
          "velocity": 0.7480314960629921,
          "duration": 0.2857139999999987
        },
        {
          "name": "A3",
          "midi": 57,
          "time": 95.14276200000008,
          "velocity": 0.7480314960629921,
          "duration": 0.2857139999999987
        },
        {
          "name": "E3",
          "midi": 52,
          "time": 95.14276200000008,
          "velocity": 0.7480314960629921,
          "duration": 0.2857139999999987
        },
        {
          "name": "A2",
          "midi": 45,
          "time": 95.14276200000008,
          "velocity": 0.7480314960629921,
          "duration": 0.2857139999999987
        },
        {
          "name": "A3",
          "midi": 57,
          "time": 95.42847600000007,
          "velocity": 0.7480314960629921,
          "duration": 0.2857139999999987
        },
        {
          "name": "E3",
          "midi": 52,
          "time": 95.42847600000007,
          "velocity": 0.7480314960629921,
          "duration": 0.2857139999999987
        },
        {
          "name": "A2",
          "midi": 45,
          "time": 95.42847600000007,
          "velocity": 0.7480314960629921,
          "duration": 0.2857139999999987
        },
        {
          "name": "A3",
          "midi": 57,
          "time": 95.71419000000007,
          "velocity": 0.7480314960629921,
          "duration": 0.2857139999999987
        },
        {
          "name": "E3",
          "midi": 52,
          "time": 95.71419000000007,
          "velocity": 0.7480314960629921,
          "duration": 0.2857139999999987
        },
        {
          "name": "A2",
          "midi": 45,
          "time": 95.71419000000007,
          "velocity": 0.7480314960629921,
          "duration": 0.2857139999999987
        },
        {
          "name": "E4",
          "midi": 64,
          "time": 95.99990400000007,
          "velocity": 0.7480314960629921,
          "duration": 0.2857139999999987
        },
        {
          "name": "B3",
          "midi": 59,
          "time": 95.99990400000007,
          "velocity": 0.7480314960629921,
          "duration": 0.2857139999999987
        },
        {
          "name": "E3",
          "midi": 52,
          "time": 95.99990400000007,
          "velocity": 0.7480314960629921,
          "duration": 0.2857139999999987
        },
        {
          "name": "E4",
          "midi": 64,
          "time": 96.28561800000007,
          "velocity": 0.7480314960629921,
          "duration": 0.2857139999999987
        },
        {
          "name": "B3",
          "midi": 59,
          "time": 96.28561800000007,
          "velocity": 0.7480314960629921,
          "duration": 0.2857139999999987
        },
        {
          "name": "E3",
          "midi": 52,
          "time": 96.28561800000007,
          "velocity": 0.7480314960629921,
          "duration": 0.2857139999999987
        },
        {
          "name": "E4",
          "midi": 64,
          "time": 96.57133200000007,
          "velocity": 0.7480314960629921,
          "duration": 0.2857139999999987
        },
        {
          "name": "B3",
          "midi": 59,
          "time": 96.57133200000007,
          "velocity": 0.7480314960629921,
          "duration": 0.2857139999999987
        },
        {
          "name": "E3",
          "midi": 52,
          "time": 96.57133200000007,
          "velocity": 0.7480314960629921,
          "duration": 0.2857139999999987
        },
        {
          "name": "E4",
          "midi": 64,
          "time": 96.85704600000007,
          "velocity": 0.7480314960629921,
          "duration": 0.2857139999999987
        },
        {
          "name": "B3",
          "midi": 59,
          "time": 96.85704600000007,
          "velocity": 0.7480314960629921,
          "duration": 0.2857139999999987
        },
        {
          "name": "E3",
          "midi": 52,
          "time": 96.85704600000007,
          "velocity": 0.7480314960629921,
          "duration": 0.2857139999999987
        },
        {
          "name": "E4",
          "midi": 64,
          "time": 97.14276000000007,
          "velocity": 0.7480314960629921,
          "duration": 0.2857139999999987
        },
        {
          "name": "B3",
          "midi": 59,
          "time": 97.14276000000007,
          "velocity": 0.7480314960629921,
          "duration": 0.2857139999999987
        },
        {
          "name": "E3",
          "midi": 52,
          "time": 97.14276000000007,
          "velocity": 0.7480314960629921,
          "duration": 0.2857139999999987
        },
        {
          "name": "E4",
          "midi": 64,
          "time": 97.42847400000007,
          "velocity": 0.7480314960629921,
          "duration": 0.2857139999999987
        },
        {
          "name": "B3",
          "midi": 59,
          "time": 97.42847400000007,
          "velocity": 0.7480314960629921,
          "duration": 0.2857139999999987
        },
        {
          "name": "E3",
          "midi": 52,
          "time": 97.42847400000007,
          "velocity": 0.7480314960629921,
          "duration": 0.2857139999999987
        },
        {
          "name": "E4",
          "midi": 64,
          "time": 97.71418800000006,
          "velocity": 0.7480314960629921,
          "duration": 0.2857139999999987
        },
        {
          "name": "B3",
          "midi": 59,
          "time": 97.71418800000006,
          "velocity": 0.7480314960629921,
          "duration": 0.2857139999999987
        },
        {
          "name": "E3",
          "midi": 52,
          "time": 97.71418800000006,
          "velocity": 0.7480314960629921,
          "duration": 0.2857139999999987
        },
        {
          "name": "E4",
          "midi": 64,
          "time": 97.99990200000006,
          "velocity": 0.7480314960629921,
          "duration": 0.2857139999999987
        },
        {
          "name": "B3",
          "midi": 59,
          "time": 97.99990200000006,
          "velocity": 0.7480314960629921,
          "duration": 0.2857139999999987
        },
        {
          "name": "E3",
          "midi": 52,
          "time": 97.99990200000006,
          "velocity": 0.7480314960629921,
          "duration": 0.2857139999999987
        },
        {
          "name": "F#3",
          "midi": 54,
          "time": 98.28561600000006,
          "velocity": 0.7480314960629921,
          "duration": 0.2857139999999987
        },
        {
          "name": "C#3",
          "midi": 49,
          "time": 98.28561600000006,
          "velocity": 0.7480314960629921,
          "duration": 0.2857139999999987
        },
        {
          "name": "F#2",
          "midi": 42,
          "time": 98.28561600000006,
          "velocity": 0.7480314960629921,
          "duration": 0.2857139999999987
        },
        {
          "name": "F#3",
          "midi": 54,
          "time": 98.57133000000006,
          "velocity": 0.7480314960629921,
          "duration": 0.2857139999999987
        },
        {
          "name": "C#3",
          "midi": 49,
          "time": 98.57133000000006,
          "velocity": 0.7480314960629921,
          "duration": 0.2857139999999987
        },
        {
          "name": "F#2",
          "midi": 42,
          "time": 98.57133000000006,
          "velocity": 0.7480314960629921,
          "duration": 0.2857139999999987
        },
        {
          "name": "F#3",
          "midi": 54,
          "time": 98.85704400000006,
          "velocity": 0.7480314960629921,
          "duration": 0.2857139999999987
        },
        {
          "name": "C#3",
          "midi": 49,
          "time": 98.85704400000006,
          "velocity": 0.7480314960629921,
          "duration": 0.2857139999999987
        },
        {
          "name": "F#2",
          "midi": 42,
          "time": 98.85704400000006,
          "velocity": 0.7480314960629921,
          "duration": 0.2857139999999987
        },
        {
          "name": "F#3",
          "midi": 54,
          "time": 99.14275800000006,
          "velocity": 0.7480314960629921,
          "duration": 0.2857139999999987
        },
        {
          "name": "C#3",
          "midi": 49,
          "time": 99.14275800000006,
          "velocity": 0.7480314960629921,
          "duration": 0.2857139999999987
        },
        {
          "name": "F#2",
          "midi": 42,
          "time": 99.14275800000006,
          "velocity": 0.7480314960629921,
          "duration": 0.2857139999999987
        },
        {
          "name": "F#3",
          "midi": 54,
          "time": 99.42847200000006,
          "velocity": 0.7480314960629921,
          "duration": 0.2857139999999987
        },
        {
          "name": "C#3",
          "midi": 49,
          "time": 99.42847200000006,
          "velocity": 0.7480314960629921,
          "duration": 0.2857139999999987
        },
        {
          "name": "F#2",
          "midi": 42,
          "time": 99.42847200000006,
          "velocity": 0.7480314960629921,
          "duration": 0.2857139999999987
        },
        {
          "name": "F#3",
          "midi": 54,
          "time": 99.71418600000005,
          "velocity": 0.7480314960629921,
          "duration": 0.2857139999999987
        },
        {
          "name": "C#3",
          "midi": 49,
          "time": 99.71418600000005,
          "velocity": 0.7480314960629921,
          "duration": 0.2857139999999987
        },
        {
          "name": "F#2",
          "midi": 42,
          "time": 99.71418600000005,
          "velocity": 0.7480314960629921,
          "duration": 0.2857139999999987
        },
        {
          "name": "F#3",
          "midi": 54,
          "time": 99.99990000000005,
          "velocity": 0.7480314960629921,
          "duration": 0.2857139999999987
        },
        {
          "name": "C#3",
          "midi": 49,
          "time": 99.99990000000005,
          "velocity": 0.7480314960629921,
          "duration": 0.2857139999999987
        },
        {
          "name": "F#2",
          "midi": 42,
          "time": 99.99990000000005,
          "velocity": 0.7480314960629921,
          "duration": 0.2857139999999987
        },
        {
          "name": "F#3",
          "midi": 54,
          "time": 100.28561400000005,
          "velocity": 0.7480314960629921,
          "duration": 0.2857139999999987
        },
        {
          "name": "C#3",
          "midi": 49,
          "time": 100.28561400000005,
          "velocity": 0.7480314960629921,
          "duration": 0.2857139999999987
        },
        {
          "name": "F#2",
          "midi": 42,
          "time": 100.28561400000005,
          "velocity": 0.7480314960629921,
          "duration": 0.2857139999999987
        },
        {
          "name": "F#3",
          "midi": 54,
          "time": 100.57132800000005,
          "velocity": 0.7480314960629921,
          "duration": 0.2857139999999987
        },
        {
          "name": "C#3",
          "midi": 49,
          "time": 100.57132800000005,
          "velocity": 0.7480314960629921,
          "duration": 0.2857139999999987
        },
        {
          "name": "F#2",
          "midi": 42,
          "time": 100.57132800000005,
          "velocity": 0.7480314960629921,
          "duration": 0.2857139999999987
        },
        {
          "name": "F#3",
          "midi": 54,
          "time": 100.85704200000005,
          "velocity": 0.7480314960629921,
          "duration": 0.2857139999999987
        },
        {
          "name": "C#3",
          "midi": 49,
          "time": 100.85704200000005,
          "velocity": 0.7480314960629921,
          "duration": 0.2857139999999987
        },
        {
          "name": "F#2",
          "midi": 42,
          "time": 100.85704200000005,
          "velocity": 0.7480314960629921,
          "duration": 0.2857139999999987
        },
        {
          "name": "F#3",
          "midi": 54,
          "time": 101.14275600000005,
          "velocity": 0.7480314960629921,
          "duration": 0.2857139999999987
        },
        {
          "name": "C#3",
          "midi": 49,
          "time": 101.14275600000005,
          "velocity": 0.7480314960629921,
          "duration": 0.2857139999999987
        },
        {
          "name": "F#2",
          "midi": 42,
          "time": 101.14275600000005,
          "velocity": 0.7480314960629921,
          "duration": 0.2857139999999987
        },
        {
          "name": "F#3",
          "midi": 54,
          "time": 101.42847000000005,
          "velocity": 0.7480314960629921,
          "duration": 0.2857139999999987
        },
        {
          "name": "C#3",
          "midi": 49,
          "time": 101.42847000000005,
          "velocity": 0.7480314960629921,
          "duration": 0.2857139999999987
        },
        {
          "name": "F#2",
          "midi": 42,
          "time": 101.42847000000005,
          "velocity": 0.7480314960629921,
          "duration": 0.2857139999999987
        },
        {
          "name": "F#3",
          "midi": 54,
          "time": 101.71418400000005,
          "velocity": 0.7480314960629921,
          "duration": 0.2857139999999987
        },
        {
          "name": "C#3",
          "midi": 49,
          "time": 101.71418400000005,
          "velocity": 0.7480314960629921,
          "duration": 0.2857139999999987
        },
        {
          "name": "F#2",
          "midi": 42,
          "time": 101.71418400000005,
          "velocity": 0.7480314960629921,
          "duration": 0.2857139999999987
        },
        {
          "name": "F#3",
          "midi": 54,
          "time": 101.99989800000004,
          "velocity": 0.7480314960629921,
          "duration": 0.2857139999999987
        },
        {
          "name": "C#3",
          "midi": 49,
          "time": 101.99989800000004,
          "velocity": 0.7480314960629921,
          "duration": 0.2857139999999987
        },
        {
          "name": "F#2",
          "midi": 42,
          "time": 101.99989800000004,
          "velocity": 0.7480314960629921,
          "duration": 0.2857139999999987
        },
        {
          "name": "F#3",
          "midi": 54,
          "time": 102.28561200000004,
          "velocity": 0.7480314960629921,
          "duration": 0.2857139999999987
        },
        {
          "name": "C#3",
          "midi": 49,
          "time": 102.28561200000004,
          "velocity": 0.7480314960629921,
          "duration": 0.2857139999999987
        },
        {
          "name": "F#2",
          "midi": 42,
          "time": 102.28561200000004,
          "velocity": 0.7480314960629921,
          "duration": 0.2857139999999987
        },
        {
          "name": "F#3",
          "midi": 54,
          "time": 102.57132600000004,
          "velocity": 0.7480314960629921,
          "duration": 0.2857139999999987
        },
        {
          "name": "C#3",
          "midi": 49,
          "time": 102.57132600000004,
          "velocity": 0.7480314960629921,
          "duration": 0.2857139999999987
        },
        {
          "name": "F#2",
          "midi": 42,
          "time": 102.57132600000004,
          "velocity": 0.7480314960629921,
          "duration": 0.2857139999999987
        },
        {
          "name": "A3",
          "midi": 57,
          "time": 102.85704000000004,
          "velocity": 0.7480314960629921,
          "duration": 0.2857139999999987
        },
        {
          "name": "E3",
          "midi": 52,
          "time": 102.85704000000004,
          "velocity": 0.7480314960629921,
          "duration": 0.2857139999999987
        },
        {
          "name": "A2",
          "midi": 45,
          "time": 102.85704000000004,
          "velocity": 0.7480314960629921,
          "duration": 0.2857139999999987
        },
        {
          "name": "A3",
          "midi": 57,
          "time": 103.14275400000004,
          "velocity": 0.7480314960629921,
          "duration": 0.2857139999999987
        },
        {
          "name": "E3",
          "midi": 52,
          "time": 103.14275400000004,
          "velocity": 0.7480314960629921,
          "duration": 0.2857139999999987
        },
        {
          "name": "A2",
          "midi": 45,
          "time": 103.14275400000004,
          "velocity": 0.7480314960629921,
          "duration": 0.2857139999999987
        },
        {
          "name": "A3",
          "midi": 57,
          "time": 103.42846800000004,
          "velocity": 0.7480314960629921,
          "duration": 0.2857139999999987
        },
        {
          "name": "E3",
          "midi": 52,
          "time": 103.42846800000004,
          "velocity": 0.7480314960629921,
          "duration": 0.2857139999999987
        },
        {
          "name": "A2",
          "midi": 45,
          "time": 103.42846800000004,
          "velocity": 0.7480314960629921,
          "duration": 0.2857139999999987
        },
        {
          "name": "A3",
          "midi": 57,
          "time": 103.71418200000004,
          "velocity": 0.7480314960629921,
          "duration": 0.2857139999999987
        },
        {
          "name": "E3",
          "midi": 52,
          "time": 103.71418200000004,
          "velocity": 0.7480314960629921,
          "duration": 0.2857139999999987
        },
        {
          "name": "A2",
          "midi": 45,
          "time": 103.71418200000004,
          "velocity": 0.7480314960629921,
          "duration": 0.2857139999999987
        },
        {
          "name": "A3",
          "midi": 57,
          "time": 103.99989600000004,
          "velocity": 0.7480314960629921,
          "duration": 0.2857139999999987
        },
        {
          "name": "E3",
          "midi": 52,
          "time": 103.99989600000004,
          "velocity": 0.7480314960629921,
          "duration": 0.2857139999999987
        },
        {
          "name": "A2",
          "midi": 45,
          "time": 103.99989600000004,
          "velocity": 0.7480314960629921,
          "duration": 0.2857139999999987
        },
        {
          "name": "A3",
          "midi": 57,
          "time": 104.28561000000003,
          "velocity": 0.7480314960629921,
          "duration": 0.2857139999999987
        },
        {
          "name": "E3",
          "midi": 52,
          "time": 104.28561000000003,
          "velocity": 0.7480314960629921,
          "duration": 0.2857139999999987
        },
        {
          "name": "A2",
          "midi": 45,
          "time": 104.28561000000003,
          "velocity": 0.7480314960629921,
          "duration": 0.2857139999999987
        },
        {
          "name": "A3",
          "midi": 57,
          "time": 104.57132400000003,
          "velocity": 0.7480314960629921,
          "duration": 0.2857139999999987
        },
        {
          "name": "E3",
          "midi": 52,
          "time": 104.57132400000003,
          "velocity": 0.7480314960629921,
          "duration": 0.2857139999999987
        },
        {
          "name": "A2",
          "midi": 45,
          "time": 104.57132400000003,
          "velocity": 0.7480314960629921,
          "duration": 0.2857139999999987
        },
        {
          "name": "A3",
          "midi": 57,
          "time": 104.85703800000003,
          "velocity": 0.7480314960629921,
          "duration": 0.2857139999999987
        },
        {
          "name": "E3",
          "midi": 52,
          "time": 104.85703800000003,
          "velocity": 0.7480314960629921,
          "duration": 0.2857139999999987
        },
        {
          "name": "A2",
          "midi": 45,
          "time": 104.85703800000003,
          "velocity": 0.7480314960629921,
          "duration": 0.2857139999999987
        },
        {
          "name": "E4",
          "midi": 64,
          "time": 105.14275200000003,
          "velocity": 0.7480314960629921,
          "duration": 0.2857139999999987
        },
        {
          "name": "B3",
          "midi": 59,
          "time": 105.14275200000003,
          "velocity": 0.7480314960629921,
          "duration": 0.2857139999999987
        },
        {
          "name": "E3",
          "midi": 52,
          "time": 105.14275200000003,
          "velocity": 0.7480314960629921,
          "duration": 0.2857139999999987
        },
        {
          "name": "E4",
          "midi": 64,
          "time": 105.42846600000003,
          "velocity": 0.7480314960629921,
          "duration": 0.2857139999999987
        },
        {
          "name": "B3",
          "midi": 59,
          "time": 105.42846600000003,
          "velocity": 0.7480314960629921,
          "duration": 0.2857139999999987
        },
        {
          "name": "E3",
          "midi": 52,
          "time": 105.42846600000003,
          "velocity": 0.7480314960629921,
          "duration": 0.2857139999999987
        },
        {
          "name": "E4",
          "midi": 64,
          "time": 105.71418000000003,
          "velocity": 0.7480314960629921,
          "duration": 0.2857139999999987
        },
        {
          "name": "B3",
          "midi": 59,
          "time": 105.71418000000003,
          "velocity": 0.7480314960629921,
          "duration": 0.2857139999999987
        },
        {
          "name": "E3",
          "midi": 52,
          "time": 105.71418000000003,
          "velocity": 0.7480314960629921,
          "duration": 0.2857139999999987
        },
        {
          "name": "E4",
          "midi": 64,
          "time": 105.99989400000003,
          "velocity": 0.7480314960629921,
          "duration": 0.2857139999999987
        },
        {
          "name": "B3",
          "midi": 59,
          "time": 105.99989400000003,
          "velocity": 0.7480314960629921,
          "duration": 0.2857139999999987
        },
        {
          "name": "E3",
          "midi": 52,
          "time": 105.99989400000003,
          "velocity": 0.7480314960629921,
          "duration": 0.2857139999999987
        },
        {
          "name": "E4",
          "midi": 64,
          "time": 106.28560800000002,
          "velocity": 0.7480314960629921,
          "duration": 0.2857139999999987
        },
        {
          "name": "B3",
          "midi": 59,
          "time": 106.28560800000002,
          "velocity": 0.7480314960629921,
          "duration": 0.2857139999999987
        },
        {
          "name": "E3",
          "midi": 52,
          "time": 106.28560800000002,
          "velocity": 0.7480314960629921,
          "duration": 0.2857139999999987
        },
        {
          "name": "E4",
          "midi": 64,
          "time": 106.57132200000002,
          "velocity": 0.7480314960629921,
          "duration": 0.2857139999999987
        },
        {
          "name": "B3",
          "midi": 59,
          "time": 106.57132200000002,
          "velocity": 0.7480314960629921,
          "duration": 0.2857139999999987
        },
        {
          "name": "E3",
          "midi": 52,
          "time": 106.57132200000002,
          "velocity": 0.7480314960629921,
          "duration": 0.2857139999999987
        },
        {
          "name": "E4",
          "midi": 64,
          "time": 106.85703600000002,
          "velocity": 0.7480314960629921,
          "duration": 0.2857139999999987
        },
        {
          "name": "B3",
          "midi": 59,
          "time": 106.85703600000002,
          "velocity": 0.7480314960629921,
          "duration": 0.2857139999999987
        },
        {
          "name": "E3",
          "midi": 52,
          "time": 106.85703600000002,
          "velocity": 0.7480314960629921,
          "duration": 0.2857139999999987
        },
        {
          "name": "E4",
          "midi": 64,
          "time": 107.14275000000002,
          "velocity": 0.7480314960629921,
          "duration": 0.2857139999999987
        },
        {
          "name": "B3",
          "midi": 59,
          "time": 107.14275000000002,
          "velocity": 0.7480314960629921,
          "duration": 0.2857139999999987
        },
        {
          "name": "E3",
          "midi": 52,
          "time": 107.14275000000002,
          "velocity": 0.7480314960629921,
          "duration": 0.2857139999999987
        },
        {
          "name": "C#4",
          "midi": 61,
          "time": 107.42846400000002,
          "velocity": 0.7480314960629921,
          "duration": 0.2857139999999987
        },
        {
          "name": "G#3",
          "midi": 56,
          "time": 107.42846400000002,
          "velocity": 0.7480314960629921,
          "duration": 0.2857139999999987
        },
        {
          "name": "C#3",
          "midi": 49,
          "time": 107.42846400000002,
          "velocity": 0.7480314960629921,
          "duration": 0.2857139999999987
        },
        {
          "name": "C#4",
          "midi": 61,
          "time": 107.71417800000002,
          "velocity": 0.7480314960629921,
          "duration": 0.2857139999999987
        },
        {
          "name": "G#3",
          "midi": 56,
          "time": 107.71417800000002,
          "velocity": 0.7480314960629921,
          "duration": 0.2857139999999987
        },
        {
          "name": "C#3",
          "midi": 49,
          "time": 107.71417800000002,
          "velocity": 0.7480314960629921,
          "duration": 0.2857139999999987
        },
        {
          "name": "C#4",
          "midi": 61,
          "time": 107.99989200000002,
          "velocity": 0.7480314960629921,
          "duration": 0.2857139999999987
        },
        {
          "name": "G#3",
          "midi": 56,
          "time": 107.99989200000002,
          "velocity": 0.7480314960629921,
          "duration": 0.2857139999999987
        },
        {
          "name": "C#3",
          "midi": 49,
          "time": 107.99989200000002,
          "velocity": 0.7480314960629921,
          "duration": 0.2857139999999987
        },
        {
          "name": "C#4",
          "midi": 61,
          "time": 108.28560600000002,
          "velocity": 0.7480314960629921,
          "duration": 0.2857139999999987
        },
        {
          "name": "G#3",
          "midi": 56,
          "time": 108.28560600000002,
          "velocity": 0.7480314960629921,
          "duration": 0.2857139999999987
        },
        {
          "name": "C#3",
          "midi": 49,
          "time": 108.28560600000002,
          "velocity": 0.7480314960629921,
          "duration": 0.2857139999999987
        },
        {
          "name": "C#4",
          "midi": 61,
          "time": 108.57132000000001,
          "velocity": 0.7480314960629921,
          "duration": 0.2857139999999987
        },
        {
          "name": "G#3",
          "midi": 56,
          "time": 108.57132000000001,
          "velocity": 0.7480314960629921,
          "duration": 0.2857139999999987
        },
        {
          "name": "C#3",
          "midi": 49,
          "time": 108.57132000000001,
          "velocity": 0.7480314960629921,
          "duration": 0.2857139999999987
        },
        {
          "name": "C#4",
          "midi": 61,
          "time": 108.85703400000001,
          "velocity": 0.7480314960629921,
          "duration": 0.2857139999999987
        },
        {
          "name": "G#3",
          "midi": 56,
          "time": 108.85703400000001,
          "velocity": 0.7480314960629921,
          "duration": 0.2857139999999987
        },
        {
          "name": "C#3",
          "midi": 49,
          "time": 108.85703400000001,
          "velocity": 0.7480314960629921,
          "duration": 0.2857139999999987
        },
        {
          "name": "C#4",
          "midi": 61,
          "time": 109.14274800000001,
          "velocity": 0.7480314960629921,
          "duration": 0.2857139999999987
        },
        {
          "name": "G#3",
          "midi": 56,
          "time": 109.14274800000001,
          "velocity": 0.7480314960629921,
          "duration": 0.2857139999999987
        },
        {
          "name": "C#3",
          "midi": 49,
          "time": 109.14274800000001,
          "velocity": 0.7480314960629921,
          "duration": 0.2857139999999987
        },
        {
          "name": "C#4",
          "midi": 61,
          "time": 109.42846200000001,
          "velocity": 0.7480314960629921,
          "duration": 0.2857139999999987
        },
        {
          "name": "G#3",
          "midi": 56,
          "time": 109.42846200000001,
          "velocity": 0.7480314960629921,
          "duration": 0.2857139999999987
        },
        {
          "name": "C#3",
          "midi": 49,
          "time": 109.42846200000001,
          "velocity": 0.7480314960629921,
          "duration": 0.2857139999999987
        },
        {
          "name": "A3",
          "midi": 57,
          "time": 109.71417600000001,
          "velocity": 0.7480314960629921,
          "duration": 0.2857139999999987
        },
        {
          "name": "E3",
          "midi": 52,
          "time": 109.71417600000001,
          "velocity": 0.7480314960629921,
          "duration": 0.2857139999999987
        },
        {
          "name": "A2",
          "midi": 45,
          "time": 109.71417600000001,
          "velocity": 0.7480314960629921,
          "duration": 0.2857139999999987
        },
        {
          "name": "A3",
          "midi": 57,
          "time": 109.99989000000001,
          "velocity": 0.7480314960629921,
          "duration": 0.2857139999999987
        },
        {
          "name": "E3",
          "midi": 52,
          "time": 109.99989000000001,
          "velocity": 0.7480314960629921,
          "duration": 0.2857139999999987
        },
        {
          "name": "A2",
          "midi": 45,
          "time": 109.99989000000001,
          "velocity": 0.7480314960629921,
          "duration": 0.2857139999999987
        },
        {
          "name": "A3",
          "midi": 57,
          "time": 110.285604,
          "velocity": 0.7480314960629921,
          "duration": 0.2857139999999987
        },
        {
          "name": "E3",
          "midi": 52,
          "time": 110.285604,
          "velocity": 0.7480314960629921,
          "duration": 0.2857139999999987
        },
        {
          "name": "A2",
          "midi": 45,
          "time": 110.285604,
          "velocity": 0.7480314960629921,
          "duration": 0.2857139999999987
        },
        {
          "name": "A3",
          "midi": 57,
          "time": 110.571318,
          "velocity": 0.7480314960629921,
          "duration": 0.2857139999999987
        },
        {
          "name": "E3",
          "midi": 52,
          "time": 110.571318,
          "velocity": 0.7480314960629921,
          "duration": 0.2857139999999987
        },
        {
          "name": "A2",
          "midi": 45,
          "time": 110.571318,
          "velocity": 0.7480314960629921,
          "duration": 0.2857139999999987
        },
        {
          "name": "A3",
          "midi": 57,
          "time": 110.857032,
          "velocity": 0.7480314960629921,
          "duration": 0.2857139999999987
        },
        {
          "name": "E3",
          "midi": 52,
          "time": 110.857032,
          "velocity": 0.7480314960629921,
          "duration": 0.2857139999999987
        },
        {
          "name": "A2",
          "midi": 45,
          "time": 110.857032,
          "velocity": 0.7480314960629921,
          "duration": 0.2857139999999987
        },
        {
          "name": "A3",
          "midi": 57,
          "time": 111.142746,
          "velocity": 0.7480314960629921,
          "duration": 0.2857139999999987
        },
        {
          "name": "E3",
          "midi": 52,
          "time": 111.142746,
          "velocity": 0.7480314960629921,
          "duration": 0.2857139999999987
        },
        {
          "name": "A2",
          "midi": 45,
          "time": 111.142746,
          "velocity": 0.7480314960629921,
          "duration": 0.2857139999999987
        },
        {
          "name": "A3",
          "midi": 57,
          "time": 111.42846,
          "velocity": 0.7480314960629921,
          "duration": 0.2857139999999987
        },
        {
          "name": "E3",
          "midi": 52,
          "time": 111.42846,
          "velocity": 0.7480314960629921,
          "duration": 0.2857139999999987
        },
        {
          "name": "A2",
          "midi": 45,
          "time": 111.42846,
          "velocity": 0.7480314960629921,
          "duration": 0.2857139999999987
        },
        {
          "name": "A3",
          "midi": 57,
          "time": 111.714174,
          "velocity": 0.7480314960629921,
          "duration": 0.2857139999999987
        },
        {
          "name": "E3",
          "midi": 52,
          "time": 111.714174,
          "velocity": 0.7480314960629921,
          "duration": 0.2857139999999987
        },
        {
          "name": "A2",
          "midi": 45,
          "time": 111.714174,
          "velocity": 0.7480314960629921,
          "duration": 0.2857139999999987
        },
        {
          "name": "E3",
          "midi": 52,
          "time": 111.999888,
          "velocity": 0.7480314960629921,
          "duration": 0.2857139999999987
        },
        {
          "name": "B2",
          "midi": 47,
          "time": 111.999888,
          "velocity": 0.7480314960629921,
          "duration": 0.2857139999999987
        },
        {
          "name": "E2",
          "midi": 40,
          "time": 111.999888,
          "velocity": 0.7480314960629921,
          "duration": 0.2857139999999987
        },
        {
          "name": "E3",
          "midi": 52,
          "time": 112.285602,
          "velocity": 0.7480314960629921,
          "duration": 0.2857139999999987
        },
        {
          "name": "B2",
          "midi": 47,
          "time": 112.285602,
          "velocity": 0.7480314960629921,
          "duration": 0.2857139999999987
        },
        {
          "name": "E2",
          "midi": 40,
          "time": 112.285602,
          "velocity": 0.7480314960629921,
          "duration": 0.2857139999999987
        },
        {
          "name": "E3",
          "midi": 52,
          "time": 112.571316,
          "velocity": 0.7480314960629921,
          "duration": 0.2857139999999987
        },
        {
          "name": "B2",
          "midi": 47,
          "time": 112.571316,
          "velocity": 0.7480314960629921,
          "duration": 0.2857139999999987
        },
        {
          "name": "E2",
          "midi": 40,
          "time": 112.571316,
          "velocity": 0.7480314960629921,
          "duration": 0.2857139999999987
        },
        {
          "name": "E3",
          "midi": 52,
          "time": 112.85703,
          "velocity": 0.7480314960629921,
          "duration": 0.2857139999999987
        },
        {
          "name": "B2",
          "midi": 47,
          "time": 112.85703,
          "velocity": 0.7480314960629921,
          "duration": 0.2857139999999987
        },
        {
          "name": "E2",
          "midi": 40,
          "time": 112.85703,
          "velocity": 0.7480314960629921,
          "duration": 0.2857139999999987
        },
        {
          "name": "E3",
          "midi": 52,
          "time": 113.142744,
          "velocity": 0.7480314960629921,
          "duration": 0.2857139999999987
        },
        {
          "name": "B2",
          "midi": 47,
          "time": 113.142744,
          "velocity": 0.7480314960629921,
          "duration": 0.2857139999999987
        },
        {
          "name": "E2",
          "midi": 40,
          "time": 113.142744,
          "velocity": 0.7480314960629921,
          "duration": 0.2857139999999987
        },
        {
          "name": "E3",
          "midi": 52,
          "time": 113.42845799999999,
          "velocity": 0.7480314960629921,
          "duration": 0.2857139999999987
        },
        {
          "name": "B2",
          "midi": 47,
          "time": 113.42845799999999,
          "velocity": 0.7480314960629921,
          "duration": 0.2857139999999987
        },
        {
          "name": "E2",
          "midi": 40,
          "time": 113.42845799999999,
          "velocity": 0.7480314960629921,
          "duration": 0.2857139999999987
        },
        {
          "name": "E3",
          "midi": 52,
          "time": 113.71417199999999,
          "velocity": 0.7480314960629921,
          "duration": 0.2857139999999987
        },
        {
          "name": "B2",
          "midi": 47,
          "time": 113.71417199999999,
          "velocity": 0.7480314960629921,
          "duration": 0.2857139999999987
        },
        {
          "name": "E2",
          "midi": 40,
          "time": 113.71417199999999,
          "velocity": 0.7480314960629921,
          "duration": 0.2857139999999987
        },
        {
          "name": "E3",
          "midi": 52,
          "time": 113.99988599999999,
          "velocity": 0.7480314960629921,
          "duration": 0.2857139999999987
        },
        {
          "name": "B2",
          "midi": 47,
          "time": 113.99988599999999,
          "velocity": 0.7480314960629921,
          "duration": 0.2857139999999987
        },
        {
          "name": "E2",
          "midi": 40,
          "time": 113.99988599999999,
          "velocity": 0.7480314960629921,
          "duration": 0.2857139999999987
        },
        {
          "name": "F#3",
          "midi": 54,
          "time": 114.28559999999999,
          "velocity": 0.7480314960629921,
          "duration": 0.2857139999999987
        },
        {
          "name": "C#3",
          "midi": 49,
          "time": 114.28559999999999,
          "velocity": 0.7480314960629921,
          "duration": 0.2857139999999987
        },
        {
          "name": "F#2",
          "midi": 42,
          "time": 114.28559999999999,
          "velocity": 0.7480314960629921,
          "duration": 0.2857139999999987
        },
        {
          "name": "F#3",
          "midi": 54,
          "time": 114.57131399999999,
          "velocity": 0.7480314960629921,
          "duration": 0.2857139999999987
        },
        {
          "name": "C#3",
          "midi": 49,
          "time": 114.57131399999999,
          "velocity": 0.7480314960629921,
          "duration": 0.2857139999999987
        },
        {
          "name": "F#2",
          "midi": 42,
          "time": 114.57131399999999,
          "velocity": 0.7480314960629921,
          "duration": 0.2857139999999987
        },
        {
          "name": "F#3",
          "midi": 54,
          "time": 114.85702799999999,
          "velocity": 0.7480314960629921,
          "duration": 0.2857139999999987
        },
        {
          "name": "C#3",
          "midi": 49,
          "time": 114.85702799999999,
          "velocity": 0.7480314960629921,
          "duration": 0.2857139999999987
        },
        {
          "name": "F#2",
          "midi": 42,
          "time": 114.85702799999999,
          "velocity": 0.7480314960629921,
          "duration": 0.2857139999999987
        },
        {
          "name": "F#3",
          "midi": 54,
          "time": 115.14274199999998,
          "velocity": 0.7480314960629921,
          "duration": 0.2857139999999987
        },
        {
          "name": "C#3",
          "midi": 49,
          "time": 115.14274199999998,
          "velocity": 0.7480314960629921,
          "duration": 0.2857139999999987
        },
        {
          "name": "F#2",
          "midi": 42,
          "time": 115.14274199999998,
          "velocity": 0.7480314960629921,
          "duration": 0.2857139999999987
        },
        {
          "name": "F#3",
          "midi": 54,
          "time": 115.42845599999998,
          "velocity": 0.7480314960629921,
          "duration": 0.2857139999999987
        },
        {
          "name": "C#3",
          "midi": 49,
          "time": 115.42845599999998,
          "velocity": 0.7480314960629921,
          "duration": 0.2857139999999987
        },
        {
          "name": "F#2",
          "midi": 42,
          "time": 115.42845599999998,
          "velocity": 0.7480314960629921,
          "duration": 0.2857139999999987
        },
        {
          "name": "F#3",
          "midi": 54,
          "time": 115.71416999999998,
          "velocity": 0.7480314960629921,
          "duration": 0.2857139999999987
        },
        {
          "name": "C#3",
          "midi": 49,
          "time": 115.71416999999998,
          "velocity": 0.7480314960629921,
          "duration": 0.2857139999999987
        },
        {
          "name": "F#2",
          "midi": 42,
          "time": 115.71416999999998,
          "velocity": 0.7480314960629921,
          "duration": 0.2857139999999987
        },
        {
          "name": "F#3",
          "midi": 54,
          "time": 115.99988399999998,
          "velocity": 0.7480314960629921,
          "duration": 0.2857139999999987
        },
        {
          "name": "C#3",
          "midi": 49,
          "time": 115.99988399999998,
          "velocity": 0.7480314960629921,
          "duration": 0.2857139999999987
        },
        {
          "name": "F#2",
          "midi": 42,
          "time": 115.99988399999998,
          "velocity": 0.7480314960629921,
          "duration": 0.2857139999999987
        },
        {
          "name": "F#3",
          "midi": 54,
          "time": 116.28559799999998,
          "velocity": 0.7480314960629921,
          "duration": 0.2857139999999987
        },
        {
          "name": "C#3",
          "midi": 49,
          "time": 116.28559799999998,
          "velocity": 0.7480314960629921,
          "duration": 0.2857139999999987
        },
        {
          "name": "F#2",
          "midi": 42,
          "time": 116.28559799999998,
          "velocity": 0.7480314960629921,
          "duration": 0.2857139999999987
        },
        {
          "name": "F#3",
          "midi": 54,
          "time": 116.57131199999998,
          "velocity": 0.7480314960629921,
          "duration": 0.2857139999999987
        },
        {
          "name": "C#3",
          "midi": 49,
          "time": 116.57131199999998,
          "velocity": 0.7480314960629921,
          "duration": 0.2857139999999987
        },
        {
          "name": "F#2",
          "midi": 42,
          "time": 116.57131199999998,
          "velocity": 0.7480314960629921,
          "duration": 0.2857139999999987
        },
        {
          "name": "F#3",
          "midi": 54,
          "time": 116.85702599999998,
          "velocity": 0.7480314960629921,
          "duration": 0.2857139999999987
        },
        {
          "name": "C#3",
          "midi": 49,
          "time": 116.85702599999998,
          "velocity": 0.7480314960629921,
          "duration": 0.2857139999999987
        },
        {
          "name": "F#2",
          "midi": 42,
          "time": 116.85702599999998,
          "velocity": 0.7480314960629921,
          "duration": 0.2857139999999987
        },
        {
          "name": "F#3",
          "midi": 54,
          "time": 117.14273999999997,
          "velocity": 0.7480314960629921,
          "duration": 0.2857139999999987
        },
        {
          "name": "C#3",
          "midi": 49,
          "time": 117.14273999999997,
          "velocity": 0.7480314960629921,
          "duration": 0.2857139999999987
        },
        {
          "name": "F#2",
          "midi": 42,
          "time": 117.14273999999997,
          "velocity": 0.7480314960629921,
          "duration": 0.2857139999999987
        },
        {
          "name": "F#3",
          "midi": 54,
          "time": 117.42845399999997,
          "velocity": 0.7480314960629921,
          "duration": 0.2857139999999987
        },
        {
          "name": "C#3",
          "midi": 49,
          "time": 117.42845399999997,
          "velocity": 0.7480314960629921,
          "duration": 0.2857139999999987
        },
        {
          "name": "F#2",
          "midi": 42,
          "time": 117.42845399999997,
          "velocity": 0.7480314960629921,
          "duration": 0.2857139999999987
        },
        {
          "name": "F#3",
          "midi": 54,
          "time": 117.71416799999997,
          "velocity": 0.7480314960629921,
          "duration": 0.2857139999999987
        },
        {
          "name": "C#3",
          "midi": 49,
          "time": 117.71416799999997,
          "velocity": 0.7480314960629921,
          "duration": 0.2857139999999987
        },
        {
          "name": "F#2",
          "midi": 42,
          "time": 117.71416799999997,
          "velocity": 0.7480314960629921,
          "duration": 0.2857139999999987
        },
        {
          "name": "F#3",
          "midi": 54,
          "time": 117.99988199999997,
          "velocity": 0.7480314960629921,
          "duration": 0.2857139999999987
        },
        {
          "name": "C#3",
          "midi": 49,
          "time": 117.99988199999997,
          "velocity": 0.7480314960629921,
          "duration": 0.2857139999999987
        },
        {
          "name": "F#2",
          "midi": 42,
          "time": 117.99988199999997,
          "velocity": 0.7480314960629921,
          "duration": 0.2857139999999987
        },
        {
          "name": "F#3",
          "midi": 54,
          "time": 118.28559599999997,
          "velocity": 0.7480314960629921,
          "duration": 0.2857139999999987
        },
        {
          "name": "C#3",
          "midi": 49,
          "time": 118.28559599999997,
          "velocity": 0.7480314960629921,
          "duration": 0.2857139999999987
        },
        {
          "name": "F#2",
          "midi": 42,
          "time": 118.28559599999997,
          "velocity": 0.7480314960629921,
          "duration": 0.2857139999999987
        },
        {
          "name": "F#3",
          "midi": 54,
          "time": 118.57130999999997,
          "velocity": 0.7480314960629921,
          "duration": 0.2857139999999987
        },
        {
          "name": "C#3",
          "midi": 49,
          "time": 118.57130999999997,
          "velocity": 0.7480314960629921,
          "duration": 0.2857139999999987
        },
        {
          "name": "F#2",
          "midi": 42,
          "time": 118.57130999999997,
          "velocity": 0.7480314960629921,
          "duration": 0.2857139999999987
        },
        {
          "name": "A3",
          "midi": 57,
          "time": 118.85702399999997,
          "velocity": 0.7480314960629921,
          "duration": 0.2857139999999987
        },
        {
          "name": "E3",
          "midi": 52,
          "time": 118.85702399999997,
          "velocity": 0.7480314960629921,
          "duration": 0.2857139999999987
        },
        {
          "name": "A2",
          "midi": 45,
          "time": 118.85702399999997,
          "velocity": 0.7480314960629921,
          "duration": 0.2857139999999987
        },
        {
          "name": "A3",
          "midi": 57,
          "time": 119.14273799999997,
          "velocity": 0.7480314960629921,
          "duration": 0.2857139999999987
        },
        {
          "name": "E3",
          "midi": 52,
          "time": 119.14273799999997,
          "velocity": 0.7480314960629921,
          "duration": 0.2857139999999987
        },
        {
          "name": "A2",
          "midi": 45,
          "time": 119.14273799999997,
          "velocity": 0.7480314960629921,
          "duration": 0.2857139999999987
        },
        {
          "name": "A3",
          "midi": 57,
          "time": 119.42845199999996,
          "velocity": 0.7480314960629921,
          "duration": 0.2857139999999987
        },
        {
          "name": "E3",
          "midi": 52,
          "time": 119.42845199999996,
          "velocity": 0.7480314960629921,
          "duration": 0.2857139999999987
        },
        {
          "name": "A2",
          "midi": 45,
          "time": 119.42845199999996,
          "velocity": 0.7480314960629921,
          "duration": 0.2857139999999987
        },
        {
          "name": "A3",
          "midi": 57,
          "time": 119.71416599999996,
          "velocity": 0.7480314960629921,
          "duration": 0.2857139999999987
        },
        {
          "name": "E3",
          "midi": 52,
          "time": 119.71416599999996,
          "velocity": 0.7480314960629921,
          "duration": 0.2857139999999987
        },
        {
          "name": "A2",
          "midi": 45,
          "time": 119.71416599999996,
          "velocity": 0.7480314960629921,
          "duration": 0.2857139999999987
        },
        {
          "name": "A3",
          "midi": 57,
          "time": 119.99987999999996,
          "velocity": 0.7480314960629921,
          "duration": 0.2857139999999987
        },
        {
          "name": "E3",
          "midi": 52,
          "time": 119.99987999999996,
          "velocity": 0.7480314960629921,
          "duration": 0.2857139999999987
        },
        {
          "name": "A2",
          "midi": 45,
          "time": 119.99987999999996,
          "velocity": 0.7480314960629921,
          "duration": 0.2857139999999987
        },
        {
          "name": "A3",
          "midi": 57,
          "time": 120.28559399999996,
          "velocity": 0.7480314960629921,
          "duration": 0.2857139999999987
        },
        {
          "name": "E3",
          "midi": 52,
          "time": 120.28559399999996,
          "velocity": 0.7480314960629921,
          "duration": 0.2857139999999987
        },
        {
          "name": "A2",
          "midi": 45,
          "time": 120.28559399999996,
          "velocity": 0.7480314960629921,
          "duration": 0.2857139999999987
        },
        {
          "name": "A3",
          "midi": 57,
          "time": 120.57130799999996,
          "velocity": 0.7480314960629921,
          "duration": 0.2857139999999987
        },
        {
          "name": "E3",
          "midi": 52,
          "time": 120.57130799999996,
          "velocity": 0.7480314960629921,
          "duration": 0.2857139999999987
        },
        {
          "name": "A2",
          "midi": 45,
          "time": 120.57130799999996,
          "velocity": 0.7480314960629921,
          "duration": 0.2857139999999987
        },
        {
          "name": "A3",
          "midi": 57,
          "time": 120.85702199999996,
          "velocity": 0.7480314960629921,
          "duration": 0.2857139999999987
        },
        {
          "name": "E3",
          "midi": 52,
          "time": 120.85702199999996,
          "velocity": 0.7480314960629921,
          "duration": 0.2857139999999987
        },
        {
          "name": "A2",
          "midi": 45,
          "time": 120.85702199999996,
          "velocity": 0.7480314960629921,
          "duration": 0.2857139999999987
        },
        {
          "name": "E3",
          "midi": 52,
          "time": 121.14273599999996,
          "velocity": 0.7480314960629921,
          "duration": 0.2857139999999987
        },
        {
          "name": "B2",
          "midi": 47,
          "time": 121.14273599999996,
          "velocity": 0.7480314960629921,
          "duration": 0.2857139999999987
        },
        {
          "name": "E2",
          "midi": 40,
          "time": 121.14273599999996,
          "velocity": 0.7480314960629921,
          "duration": 0.2857139999999987
        },
        {
          "name": "E3",
          "midi": 52,
          "time": 121.42844999999996,
          "velocity": 0.7480314960629921,
          "duration": 0.2857139999999987
        },
        {
          "name": "B2",
          "midi": 47,
          "time": 121.42844999999996,
          "velocity": 0.7480314960629921,
          "duration": 0.2857139999999987
        },
        {
          "name": "E2",
          "midi": 40,
          "time": 121.42844999999996,
          "velocity": 0.7480314960629921,
          "duration": 0.2857139999999987
        },
        {
          "name": "E3",
          "midi": 52,
          "time": 121.71416399999995,
          "velocity": 0.7480314960629921,
          "duration": 0.2857139999999987
        },
        {
          "name": "B2",
          "midi": 47,
          "time": 121.71416399999995,
          "velocity": 0.7480314960629921,
          "duration": 0.2857139999999987
        },
        {
          "name": "E2",
          "midi": 40,
          "time": 121.71416399999995,
          "velocity": 0.7480314960629921,
          "duration": 0.2857139999999987
        },
        {
          "name": "E3",
          "midi": 52,
          "time": 121.99987799999995,
          "velocity": 0.7480314960629921,
          "duration": 0.2857139999999987
        },
        {
          "name": "B2",
          "midi": 47,
          "time": 121.99987799999995,
          "velocity": 0.7480314960629921,
          "duration": 0.2857139999999987
        },
        {
          "name": "E2",
          "midi": 40,
          "time": 121.99987799999995,
          "velocity": 0.7480314960629921,
          "duration": 0.2857139999999987
        },
        {
          "name": "E3",
          "midi": 52,
          "time": 122.28559199999995,
          "velocity": 0.7480314960629921,
          "duration": 0.2857139999999987
        },
        {
          "name": "B2",
          "midi": 47,
          "time": 122.28559199999995,
          "velocity": 0.7480314960629921,
          "duration": 0.2857139999999987
        },
        {
          "name": "E2",
          "midi": 40,
          "time": 122.28559199999995,
          "velocity": 0.7480314960629921,
          "duration": 0.2857139999999987
        },
        {
          "name": "E3",
          "midi": 52,
          "time": 122.57130599999995,
          "velocity": 0.7480314960629921,
          "duration": 0.2857139999999987
        },
        {
          "name": "B2",
          "midi": 47,
          "time": 122.57130599999995,
          "velocity": 0.7480314960629921,
          "duration": 0.2857139999999987
        },
        {
          "name": "E2",
          "midi": 40,
          "time": 122.57130599999995,
          "velocity": 0.7480314960629921,
          "duration": 0.2857139999999987
        },
        {
          "name": "E3",
          "midi": 52,
          "time": 122.85701999999995,
          "velocity": 0.7480314960629921,
          "duration": 0.2857139999999987
        },
        {
          "name": "B2",
          "midi": 47,
          "time": 122.85701999999995,
          "velocity": 0.7480314960629921,
          "duration": 0.2857139999999987
        },
        {
          "name": "E2",
          "midi": 40,
          "time": 122.85701999999995,
          "velocity": 0.7480314960629921,
          "duration": 0.2857139999999987
        },
        {
          "name": "E3",
          "midi": 52,
          "time": 123.14273399999995,
          "velocity": 0.7480314960629921,
          "duration": 0.2857139999999987
        },
        {
          "name": "B2",
          "midi": 47,
          "time": 123.14273399999995,
          "velocity": 0.7480314960629921,
          "duration": 0.2857139999999987
        },
        {
          "name": "E2",
          "midi": 40,
          "time": 123.14273399999995,
          "velocity": 0.7480314960629921,
          "duration": 0.2857139999999987
        },
        {
          "name": "F#3",
          "midi": 54,
          "time": 123.42844799999995,
          "velocity": 0.7480314960629921,
          "duration": 0.2857139999999987
        },
        {
          "name": "C#3",
          "midi": 49,
          "time": 123.42844799999995,
          "velocity": 0.7480314960629921,
          "duration": 0.2857139999999987
        },
        {
          "name": "F#2",
          "midi": 42,
          "time": 123.42844799999995,
          "velocity": 0.7480314960629921,
          "duration": 0.2857139999999987
        },
        {
          "name": "F#3",
          "midi": 54,
          "time": 123.71416199999994,
          "velocity": 0.7480314960629921,
          "duration": 0.2857139999999987
        },
        {
          "name": "C#3",
          "midi": 49,
          "time": 123.71416199999994,
          "velocity": 0.7480314960629921,
          "duration": 0.2857139999999987
        },
        {
          "name": "F#2",
          "midi": 42,
          "time": 123.71416199999994,
          "velocity": 0.7480314960629921,
          "duration": 0.2857139999999987
        },
        {
          "name": "F#3",
          "midi": 54,
          "time": 124.57130399999994,
          "velocity": 0.7480314960629921,
          "duration": 0.2857139999999987
        },
        {
          "name": "C#3",
          "midi": 49,
          "time": 124.57130399999994,
          "velocity": 0.7480314960629921,
          "duration": 0.2857139999999987
        },
        {
          "name": "F#2",
          "midi": 42,
          "time": 124.57130399999994,
          "velocity": 0.7480314960629921,
          "duration": 0.2857139999999987
        },
        {
          "name": "F#3",
          "midi": 54,
          "time": 124.85701799999994,
          "velocity": 0.7480314960629921,
          "duration": 0.2857139999999987
        },
        {
          "name": "C#3",
          "midi": 49,
          "time": 124.85701799999994,
          "velocity": 0.7480314960629921,
          "duration": 0.2857139999999987
        },
        {
          "name": "F#2",
          "midi": 42,
          "time": 124.85701799999994,
          "velocity": 0.7480314960629921,
          "duration": 0.2857139999999987
        },
        {
          "name": "F#3",
          "midi": 54,
          "time": 125.71415999999994,
          "velocity": 0.7480314960629921,
          "duration": 0.2857139999999987
        },
        {
          "name": "C#3",
          "midi": 49,
          "time": 125.71415999999994,
          "velocity": 0.7480314960629921,
          "duration": 0.2857139999999987
        },
        {
          "name": "F#2",
          "midi": 42,
          "time": 125.71415999999994,
          "velocity": 0.7480314960629921,
          "duration": 0.2857139999999987
        },
        {
          "name": "F#3",
          "midi": 54,
          "time": 125.99987399999993,
          "velocity": 0.7480314960629921,
          "duration": 0.2857139999999987
        },
        {
          "name": "C#3",
          "midi": 49,
          "time": 125.99987399999993,
          "velocity": 0.7480314960629921,
          "duration": 0.2857139999999987
        },
        {
          "name": "F#2",
          "midi": 42,
          "time": 125.99987399999993,
          "velocity": 0.7480314960629921,
          "duration": 0.2857139999999987
        },
        {
          "name": "F#3",
          "midi": 54,
          "time": 126.85701599999993,
          "velocity": 0.7480314960629921,
          "duration": 0.2857139999999987
        },
        {
          "name": "C#3",
          "midi": 49,
          "time": 126.85701599999993,
          "velocity": 0.7480314960629921,
          "duration": 0.2857139999999987
        },
        {
          "name": "F#2",
          "midi": 42,
          "time": 126.85701599999993,
          "velocity": 0.7480314960629921,
          "duration": 0.2857139999999987
        },
        {
          "name": "F#3",
          "midi": 54,
          "time": 127.14272999999993,
          "velocity": 0.7480314960629921,
          "duration": 0.2857139999999987
        },
        {
          "name": "C#3",
          "midi": 49,
          "time": 127.14272999999993,
          "velocity": 0.7480314960629921,
          "duration": 0.2857139999999987
        },
        {
          "name": "F#2",
          "midi": 42,
          "time": 127.14272999999993,
          "velocity": 0.7480314960629921,
          "duration": 0.2857139999999987
        },
        {
          "name": "F#3",
          "midi": 54,
          "time": 127.99987199999993,
          "velocity": 0.7480314960629921,
          "duration": 0.2857140000000129
        },
        {
          "name": "C#3",
          "midi": 49,
          "time": 127.99987199999993,
          "velocity": 0.7480314960629921,
          "duration": 0.2857140000000129
        },
        {
          "name": "F#2",
          "midi": 42,
          "time": 127.99987199999993,
          "velocity": 0.7480314960629921,
          "duration": 0.2857140000000129
        },
        {
          "name": "F#3",
          "midi": 54,
          "time": 128.28558599999994,
          "velocity": 0.7480314960629921,
          "duration": 0.2857140000000129
        },
        {
          "name": "C#3",
          "midi": 49,
          "time": 128.28558599999994,
          "velocity": 0.7480314960629921,
          "duration": 0.2857140000000129
        },
        {
          "name": "F#2",
          "midi": 42,
          "time": 128.28558599999994,
          "velocity": 0.7480314960629921,
          "duration": 0.2857140000000129
        },
        {
          "name": "F#3",
          "midi": 54,
          "time": 129.14272799999995,
          "velocity": 0.7480314960629921,
          "duration": 0.2857140000000129
        },
        {
          "name": "C#3",
          "midi": 49,
          "time": 129.14272799999995,
          "velocity": 0.7480314960629921,
          "duration": 0.2857140000000129
        },
        {
          "name": "F#2",
          "midi": 42,
          "time": 129.14272799999995,
          "velocity": 0.7480314960629921,
          "duration": 0.2857140000000129
        },
        {
          "name": "F#3",
          "midi": 54,
          "time": 129.42844199999996,
          "velocity": 0.7480314960629921,
          "duration": 0.2857140000000129
        },
        {
          "name": "C#3",
          "midi": 49,
          "time": 129.42844199999996,
          "velocity": 0.7480314960629921,
          "duration": 0.2857140000000129
        },
        {
          "name": "F#2",
          "midi": 42,
          "time": 129.42844199999996,
          "velocity": 0.7480314960629921,
          "duration": 0.2857140000000129
        },
        {
          "name": "F#3",
          "midi": 54,
          "time": 130.28558399999997,
          "velocity": 0.7480314960629921,
          "duration": 0.2857140000000129
        },
        {
          "name": "C#3",
          "midi": 49,
          "time": 130.28558399999997,
          "velocity": 0.7480314960629921,
          "duration": 0.2857140000000129
        },
        {
          "name": "F#2",
          "midi": 42,
          "time": 130.28558399999997,
          "velocity": 0.7480314960629921,
          "duration": 0.2857140000000129
        },
        {
          "name": "F#3",
          "midi": 54,
          "time": 130.57129799999998,
          "velocity": 0.7480314960629921,
          "duration": 0.2857140000000129
        },
        {
          "name": "C#3",
          "midi": 49,
          "time": 130.57129799999998,
          "velocity": 0.7480314960629921,
          "duration": 0.2857140000000129
        },
        {
          "name": "F#2",
          "midi": 42,
          "time": 130.57129799999998,
          "velocity": 0.7480314960629921,
          "duration": 0.2857140000000129
        },
        {
          "name": "F#3",
          "midi": 54,
          "time": 131.42844,
          "velocity": 0.7480314960629921,
          "duration": 0.2857140000000129
        },
        {
          "name": "C#3",
          "midi": 49,
          "time": 131.42844,
          "velocity": 0.7480314960629921,
          "duration": 0.2857140000000129
        },
        {
          "name": "F#2",
          "midi": 42,
          "time": 131.42844,
          "velocity": 0.7480314960629921,
          "duration": 0.2857140000000129
        },
        {
          "name": "F#3",
          "midi": 54,
          "time": 131.714154,
          "velocity": 0.7480314960629921,
          "duration": 0.2857140000000129
        },
        {
          "name": "C#3",
          "midi": 49,
          "time": 131.714154,
          "velocity": 0.7480314960629921,
          "duration": 0.2857140000000129
        },
        {
          "name": "F#2",
          "midi": 42,
          "time": 131.714154,
          "velocity": 0.7480314960629921,
          "duration": 0.2857140000000129
        },
        {
          "name": "F#3",
          "midi": 54,
          "time": 132.57129600000002,
          "velocity": 0.7480314960629921,
          "duration": 0.2857140000000129
        },
        {
          "name": "C#3",
          "midi": 49,
          "time": 132.57129600000002,
          "velocity": 0.7480314960629921,
          "duration": 0.2857140000000129
        },
        {
          "name": "F#2",
          "midi": 42,
          "time": 132.57129600000002,
          "velocity": 0.7480314960629921,
          "duration": 0.2857140000000129
        },
        {
          "name": "F#3",
          "midi": 54,
          "time": 132.85701000000003,
          "velocity": 0.7480314960629921,
          "duration": 0.2857140000000129
        },
        {
          "name": "C#3",
          "midi": 49,
          "time": 132.85701000000003,
          "velocity": 0.7480314960629921,
          "duration": 0.2857140000000129
        },
        {
          "name": "F#2",
          "midi": 42,
          "time": 132.85701000000003,
          "velocity": 0.7480314960629921,
          "duration": 0.2857140000000129
        },
        {
          "name": "F#3",
          "midi": 54,
          "time": 133.14272400000004,
          "velocity": 0.7480314960629921,
          "duration": 0.2857140000000129
        },
        {
          "name": "C#3",
          "midi": 49,
          "time": 133.14272400000004,
          "velocity": 0.7480314960629921,
          "duration": 0.2857140000000129
        },
        {
          "name": "F#2",
          "midi": 42,
          "time": 133.14272400000004,
          "velocity": 0.7480314960629921,
          "duration": 0.2857140000000129
        },
        {
          "name": "F#3",
          "midi": 54,
          "time": 133.42843800000006,
          "velocity": 0.7480314960629921,
          "duration": 0.2857140000000129
        },
        {
          "name": "C#3",
          "midi": 49,
          "time": 133.42843800000006,
          "velocity": 0.7480314960629921,
          "duration": 0.2857140000000129
        },
        {
          "name": "F#2",
          "midi": 42,
          "time": 133.42843800000006,
          "velocity": 0.7480314960629921,
          "duration": 0.2857140000000129
        },
        {
          "name": "F#3",
          "midi": 54,
          "time": 133.71415200000007,
          "velocity": 0.7480314960629921,
          "duration": 0.2857140000000129
        },
        {
          "name": "C#3",
          "midi": 49,
          "time": 133.71415200000007,
          "velocity": 0.7480314960629921,
          "duration": 0.2857140000000129
        },
        {
          "name": "F#2",
          "midi": 42,
          "time": 133.71415200000007,
          "velocity": 0.7480314960629921,
          "duration": 0.2857140000000129
        },
        {
          "name": "F#3",
          "midi": 54,
          "time": 133.99986600000008,
          "velocity": 0.7480314960629921,
          "duration": 0.2857140000000129
        },
        {
          "name": "C#3",
          "midi": 49,
          "time": 133.99986600000008,
          "velocity": 0.7480314960629921,
          "duration": 0.2857140000000129
        },
        {
          "name": "F#2",
          "midi": 42,
          "time": 133.99986600000008,
          "velocity": 0.7480314960629921,
          "duration": 0.2857140000000129
        },
        {
          "name": "F#3",
          "midi": 54,
          "time": 134.2855800000001,
          "velocity": 0.7480314960629921,
          "duration": 0.2857140000000129
        },
        {
          "name": "C#3",
          "midi": 49,
          "time": 134.2855800000001,
          "velocity": 0.7480314960629921,
          "duration": 0.2857140000000129
        },
        {
          "name": "F#2",
          "midi": 42,
          "time": 134.2855800000001,
          "velocity": 0.7480314960629921,
          "duration": 0.2857140000000129
        },
        {
          "name": "F#3",
          "midi": 54,
          "time": 134.5712940000001,
          "velocity": 0.7480314960629921,
          "duration": 0.2857140000000129
        },
        {
          "name": "C#3",
          "midi": 49,
          "time": 134.5712940000001,
          "velocity": 0.7480314960629921,
          "duration": 0.2857140000000129
        },
        {
          "name": "F#2",
          "midi": 42,
          "time": 134.5712940000001,
          "velocity": 0.7480314960629921,
          "duration": 0.2857140000000129
        },
        {
          "name": "F#3",
          "midi": 54,
          "time": 134.85700800000012,
          "velocity": 0.7480314960629921,
          "duration": 0.2857140000000129
        },
        {
          "name": "C#3",
          "midi": 49,
          "time": 134.85700800000012,
          "velocity": 0.7480314960629921,
          "duration": 0.2857140000000129
        },
        {
          "name": "F#2",
          "midi": 42,
          "time": 134.85700800000012,
          "velocity": 0.7480314960629921,
          "duration": 0.2857140000000129
        },
        {
          "name": "F#3",
          "midi": 54,
          "time": 135.14272200000013,
          "velocity": 0.7480314960629921,
          "duration": 0.2857140000000129
        },
        {
          "name": "C#3",
          "midi": 49,
          "time": 135.14272200000013,
          "velocity": 0.7480314960629921,
          "duration": 0.2857140000000129
        },
        {
          "name": "F#2",
          "midi": 42,
          "time": 135.14272200000013,
          "velocity": 0.7480314960629921,
          "duration": 0.2857140000000129
        },
        {
          "name": "F#3",
          "midi": 54,
          "time": 135.42843600000015,
          "velocity": 0.7480314960629921,
          "duration": 0.2857140000000129
        },
        {
          "name": "C#3",
          "midi": 49,
          "time": 135.42843600000015,
          "velocity": 0.7480314960629921,
          "duration": 0.2857140000000129
        },
        {
          "name": "F#2",
          "midi": 42,
          "time": 135.42843600000015,
          "velocity": 0.7480314960629921,
          "duration": 0.2857140000000129
        },
        {
          "name": "F#3",
          "midi": 54,
          "time": 135.71415000000016,
          "velocity": 0.7480314960629921,
          "duration": 0.2857140000000129
        },
        {
          "name": "C#3",
          "midi": 49,
          "time": 135.71415000000016,
          "velocity": 0.7480314960629921,
          "duration": 0.2857140000000129
        },
        {
          "name": "F#2",
          "midi": 42,
          "time": 135.71415000000016,
          "velocity": 0.7480314960629921,
          "duration": 0.2857140000000129
        },
        {
          "name": "F#3",
          "midi": 54,
          "time": 135.99986400000017,
          "velocity": 0.7480314960629921,
          "duration": 0.2857140000000129
        },
        {
          "name": "C#3",
          "midi": 49,
          "time": 135.99986400000017,
          "velocity": 0.7480314960629921,
          "duration": 0.2857140000000129
        },
        {
          "name": "F#2",
          "midi": 42,
          "time": 135.99986400000017,
          "velocity": 0.7480314960629921,
          "duration": 0.2857140000000129
        },
        {
          "name": "F#3",
          "midi": 54,
          "time": 136.28557800000019,
          "velocity": 0.7480314960629921,
          "duration": 0.2857140000000129
        },
        {
          "name": "C#3",
          "midi": 49,
          "time": 136.28557800000019,
          "velocity": 0.7480314960629921,
          "duration": 0.2857140000000129
        },
        {
          "name": "F#2",
          "midi": 42,
          "time": 136.28557800000019,
          "velocity": 0.7480314960629921,
          "duration": 0.2857140000000129
        },
        {
          "name": "F#3",
          "midi": 54,
          "time": 136.5712920000002,
          "velocity": 0.7480314960629921,
          "duration": 0.2857140000000129
        },
        {
          "name": "C#3",
          "midi": 49,
          "time": 136.5712920000002,
          "velocity": 0.7480314960629921,
          "duration": 0.2857140000000129
        },
        {
          "name": "F#2",
          "midi": 42,
          "time": 136.5712920000002,
          "velocity": 0.7480314960629921,
          "duration": 0.2857140000000129
        },
        {
          "name": "F#3",
          "midi": 54,
          "time": 136.8570060000002,
          "velocity": 0.7480314960629921,
          "duration": 0.2857140000000129
        },
        {
          "name": "C#3",
          "midi": 49,
          "time": 136.8570060000002,
          "velocity": 0.7480314960629921,
          "duration": 0.2857140000000129
        },
        {
          "name": "F#2",
          "midi": 42,
          "time": 136.8570060000002,
          "velocity": 0.7480314960629921,
          "duration": 0.2857140000000129
        },
        {
          "name": "F#3",
          "midi": 54,
          "time": 137.14272000000022,
          "velocity": 0.7480314960629921,
          "duration": 0.2857140000000129
        },
        {
          "name": "C#3",
          "midi": 49,
          "time": 137.14272000000022,
          "velocity": 0.7480314960629921,
          "duration": 0.2857140000000129
        },
        {
          "name": "F#2",
          "midi": 42,
          "time": 137.14272000000022,
          "velocity": 0.7480314960629921,
          "duration": 0.2857140000000129
        },
        {
          "name": "F#3",
          "midi": 54,
          "time": 137.42843400000024,
          "velocity": 0.7480314960629921,
          "duration": 0.2857140000000129
        },
        {
          "name": "C#3",
          "midi": 49,
          "time": 137.42843400000024,
          "velocity": 0.7480314960629921,
          "duration": 0.2857140000000129
        },
        {
          "name": "F#2",
          "midi": 42,
          "time": 137.42843400000024,
          "velocity": 0.7480314960629921,
          "duration": 0.2857140000000129
        },
        {
          "name": "F#3",
          "midi": 54,
          "time": 137.71414800000025,
          "velocity": 0.7480314960629921,
          "duration": 0.2857140000000129
        },
        {
          "name": "C#3",
          "midi": 49,
          "time": 137.71414800000025,
          "velocity": 0.7480314960629921,
          "duration": 0.2857140000000129
        },
        {
          "name": "F#2",
          "midi": 42,
          "time": 137.71414800000025,
          "velocity": 0.7480314960629921,
          "duration": 0.2857140000000129
        },
        {
          "name": "F#3",
          "midi": 54,
          "time": 137.99986200000026,
          "velocity": 0.7480314960629921,
          "duration": 0.2857140000000129
        },
        {
          "name": "C#3",
          "midi": 49,
          "time": 137.99986200000026,
          "velocity": 0.7480314960629921,
          "duration": 0.2857140000000129
        },
        {
          "name": "F#2",
          "midi": 42,
          "time": 137.99986200000026,
          "velocity": 0.7480314960629921,
          "duration": 0.2857140000000129
        },
        {
          "name": "F#3",
          "midi": 54,
          "time": 138.28557600000028,
          "velocity": 0.7480314960629921,
          "duration": 0.2857140000000129
        },
        {
          "name": "C#3",
          "midi": 49,
          "time": 138.28557600000028,
          "velocity": 0.7480314960629921,
          "duration": 0.2857140000000129
        },
        {
          "name": "F#2",
          "midi": 42,
          "time": 138.28557600000028,
          "velocity": 0.7480314960629921,
          "duration": 0.2857140000000129
        },
        {
          "name": "F#3",
          "midi": 54,
          "time": 138.5712900000003,
          "velocity": 0.7480314960629921,
          "duration": 0.2857140000000129
        },
        {
          "name": "C#3",
          "midi": 49,
          "time": 138.5712900000003,
          "velocity": 0.7480314960629921,
          "duration": 0.2857140000000129
        },
        {
          "name": "F#2",
          "midi": 42,
          "time": 138.5712900000003,
          "velocity": 0.7480314960629921,
          "duration": 0.2857140000000129
        },
        {
          "name": "F#3",
          "midi": 54,
          "time": 138.8570040000003,
          "velocity": 0.7480314960629921,
          "duration": 0.2857140000000129
        },
        {
          "name": "C#3",
          "midi": 49,
          "time": 138.8570040000003,
          "velocity": 0.7480314960629921,
          "duration": 0.2857140000000129
        },
        {
          "name": "F#2",
          "midi": 42,
          "time": 138.8570040000003,
          "velocity": 0.7480314960629921,
          "duration": 0.2857140000000129
        },
        {
          "name": "F#3",
          "midi": 54,
          "time": 139.14271800000031,
          "velocity": 0.7480314960629921,
          "duration": 0.2857140000000129
        },
        {
          "name": "C#3",
          "midi": 49,
          "time": 139.14271800000031,
          "velocity": 0.7480314960629921,
          "duration": 0.2857140000000129
        },
        {
          "name": "F#2",
          "midi": 42,
          "time": 139.14271800000031,
          "velocity": 0.7480314960629921,
          "duration": 0.2857140000000129
        },
        {
          "name": "F#3",
          "midi": 54,
          "time": 139.42843200000033,
          "velocity": 0.7480314960629921,
          "duration": 0.2857140000000129
        },
        {
          "name": "C#3",
          "midi": 49,
          "time": 139.42843200000033,
          "velocity": 0.7480314960629921,
          "duration": 0.2857140000000129
        },
        {
          "name": "F#2",
          "midi": 42,
          "time": 139.42843200000033,
          "velocity": 0.7480314960629921,
          "duration": 0.2857140000000129
        },
        {
          "name": "F#3",
          "midi": 54,
          "time": 139.71414600000034,
          "velocity": 0.7480314960629921,
          "duration": 0.2857140000000129
        },
        {
          "name": "C#3",
          "midi": 49,
          "time": 139.71414600000034,
          "velocity": 0.7480314960629921,
          "duration": 0.2857140000000129
        },
        {
          "name": "F#2",
          "midi": 42,
          "time": 139.71414600000034,
          "velocity": 0.7480314960629921,
          "duration": 0.2857140000000129
        },
        {
          "name": "F#3",
          "midi": 54,
          "time": 139.99986000000035,
          "velocity": 0.7480314960629921,
          "duration": 0.2857140000000129
        },
        {
          "name": "C#3",
          "midi": 49,
          "time": 139.99986000000035,
          "velocity": 0.7480314960629921,
          "duration": 0.2857140000000129
        },
        {
          "name": "F#2",
          "midi": 42,
          "time": 139.99986000000035,
          "velocity": 0.7480314960629921,
          "duration": 0.2857140000000129
        },
        {
          "name": "F#3",
          "midi": 54,
          "time": 140.28557400000037,
          "velocity": 0.7480314960629921,
          "duration": 0.2857140000000129
        },
        {
          "name": "C#3",
          "midi": 49,
          "time": 140.28557400000037,
          "velocity": 0.7480314960629921,
          "duration": 0.2857140000000129
        },
        {
          "name": "F#2",
          "midi": 42,
          "time": 140.28557400000037,
          "velocity": 0.7480314960629921,
          "duration": 0.2857140000000129
        },
        {
          "name": "F#3",
          "midi": 54,
          "time": 140.57128800000038,
          "velocity": 0.7480314960629921,
          "duration": 0.2857140000000129
        },
        {
          "name": "C#3",
          "midi": 49,
          "time": 140.57128800000038,
          "velocity": 0.7480314960629921,
          "duration": 0.2857140000000129
        },
        {
          "name": "F#2",
          "midi": 42,
          "time": 140.57128800000038,
          "velocity": 0.7480314960629921,
          "duration": 0.2857140000000129
        },
        {
          "name": "F#3",
          "midi": 54,
          "time": 140.8570020000004,
          "velocity": 0.7480314960629921,
          "duration": 0.2857140000000129
        },
        {
          "name": "C#3",
          "midi": 49,
          "time": 140.8570020000004,
          "velocity": 0.7480314960629921,
          "duration": 0.2857140000000129
        },
        {
          "name": "F#2",
          "midi": 42,
          "time": 140.8570020000004,
          "velocity": 0.7480314960629921,
          "duration": 0.2857140000000129
        },
        {
          "name": "F#3",
          "midi": 54,
          "time": 141.1427160000004,
          "velocity": 0.7480314960629921,
          "duration": 0.2857140000000129
        },
        {
          "name": "C#3",
          "midi": 49,
          "time": 141.1427160000004,
          "velocity": 0.7480314960629921,
          "duration": 0.2857140000000129
        },
        {
          "name": "F#2",
          "midi": 42,
          "time": 141.1427160000004,
          "velocity": 0.7480314960629921,
          "duration": 0.2857140000000129
        },
        {
          "name": "F#3",
          "midi": 54,
          "time": 141.42843000000042,
          "velocity": 0.7480314960629921,
          "duration": 0.2857140000000129
        },
        {
          "name": "C#3",
          "midi": 49,
          "time": 141.42843000000042,
          "velocity": 0.7480314960629921,
          "duration": 0.2857140000000129
        },
        {
          "name": "F#2",
          "midi": 42,
          "time": 141.42843000000042,
          "velocity": 0.7480314960629921,
          "duration": 0.2857140000000129
        },
        {
          "name": "F#3",
          "midi": 54,
          "time": 141.71414400000043,
          "velocity": 0.7480314960629921,
          "duration": 0.2857140000000129
        },
        {
          "name": "C#3",
          "midi": 49,
          "time": 141.71414400000043,
          "velocity": 0.7480314960629921,
          "duration": 0.2857140000000129
        },
        {
          "name": "F#2",
          "midi": 42,
          "time": 141.71414400000043,
          "velocity": 0.7480314960629921,
          "duration": 0.2857140000000129
        },
        {
          "name": "F#3",
          "midi": 54,
          "time": 143.99985600000045,
          "velocity": 0.7480314960629921,
          "duration": 0.2857140000000129
        },
        {
          "name": "C#3",
          "midi": 49,
          "time": 143.99985600000045,
          "velocity": 0.7480314960629921,
          "duration": 0.2857140000000129
        },
        {
          "name": "F#2",
          "midi": 42,
          "time": 143.99985600000045,
          "velocity": 0.7480314960629921,
          "duration": 0.2857140000000129
        },
        {
          "name": "F#3",
          "midi": 54,
          "time": 144.28557000000046,
          "velocity": 0.7480314960629921,
          "duration": 0.2857140000000129
        },
        {
          "name": "C#3",
          "midi": 49,
          "time": 144.28557000000046,
          "velocity": 0.7480314960629921,
          "duration": 0.2857140000000129
        },
        {
          "name": "F#2",
          "midi": 42,
          "time": 144.28557000000046,
          "velocity": 0.7480314960629921,
          "duration": 0.2857140000000129
        },
        {
          "name": "F#3",
          "midi": 54,
          "time": 144.57128400000047,
          "velocity": 0.7480314960629921,
          "duration": 0.2857140000000129
        },
        {
          "name": "C#3",
          "midi": 49,
          "time": 144.57128400000047,
          "velocity": 0.7480314960629921,
          "duration": 0.2857140000000129
        },
        {
          "name": "F#2",
          "midi": 42,
          "time": 144.57128400000047,
          "velocity": 0.7480314960629921,
          "duration": 0.2857140000000129
        },
        {
          "name": "F#3",
          "midi": 54,
          "time": 144.8569980000005,
          "velocity": 0.7480314960629921,
          "duration": 0.2857140000000129
        },
        {
          "name": "C#3",
          "midi": 49,
          "time": 144.8569980000005,
          "velocity": 0.7480314960629921,
          "duration": 0.2857140000000129
        },
        {
          "name": "F#2",
          "midi": 42,
          "time": 144.8569980000005,
          "velocity": 0.7480314960629921,
          "duration": 0.2857140000000129
        },
        {
          "name": "F#3",
          "midi": 54,
          "time": 145.1427120000005,
          "velocity": 0.7480314960629921,
          "duration": 0.2857140000000129
        },
        {
          "name": "C#3",
          "midi": 49,
          "time": 145.1427120000005,
          "velocity": 0.7480314960629921,
          "duration": 0.2857140000000129
        },
        {
          "name": "F#2",
          "midi": 42,
          "time": 145.1427120000005,
          "velocity": 0.7480314960629921,
          "duration": 0.2857140000000129
        },
        {
          "name": "F#3",
          "midi": 54,
          "time": 145.4284260000005,
          "velocity": 0.7480314960629921,
          "duration": 0.2857140000000129
        },
        {
          "name": "C#3",
          "midi": 49,
          "time": 145.4284260000005,
          "velocity": 0.7480314960629921,
          "duration": 0.2857140000000129
        },
        {
          "name": "F#2",
          "midi": 42,
          "time": 145.4284260000005,
          "velocity": 0.7480314960629921,
          "duration": 0.2857140000000129
        },
        {
          "name": "F#3",
          "midi": 54,
          "time": 145.71414000000053,
          "velocity": 0.7480314960629921,
          "duration": 0.2857140000000129
        },
        {
          "name": "C#3",
          "midi": 49,
          "time": 145.71414000000053,
          "velocity": 0.7480314960629921,
          "duration": 0.2857140000000129
        },
        {
          "name": "F#2",
          "midi": 42,
          "time": 145.71414000000053,
          "velocity": 0.7480314960629921,
          "duration": 0.2857140000000129
        },
        {
          "name": "F#3",
          "midi": 54,
          "time": 145.99985400000054,
          "velocity": 0.7480314960629921,
          "duration": 0.2857140000000129
        },
        {
          "name": "C#3",
          "midi": 49,
          "time": 145.99985400000054,
          "velocity": 0.7480314960629921,
          "duration": 0.2857140000000129
        },
        {
          "name": "F#2",
          "midi": 42,
          "time": 145.99985400000054,
          "velocity": 0.7480314960629921,
          "duration": 0.2857140000000129
        },
        {
          "name": "A3",
          "midi": 57,
          "time": 146.28556800000055,
          "velocity": 0.7480314960629921,
          "duration": 0.2857140000000129
        },
        {
          "name": "E3",
          "midi": 52,
          "time": 146.28556800000055,
          "velocity": 0.7480314960629921,
          "duration": 0.2857140000000129
        },
        {
          "name": "A2",
          "midi": 45,
          "time": 146.28556800000055,
          "velocity": 0.7480314960629921,
          "duration": 0.2857140000000129
        },
        {
          "name": "A3",
          "midi": 57,
          "time": 146.57128200000056,
          "velocity": 0.7480314960629921,
          "duration": 0.2857140000000129
        },
        {
          "name": "E3",
          "midi": 52,
          "time": 146.57128200000056,
          "velocity": 0.7480314960629921,
          "duration": 0.2857140000000129
        },
        {
          "name": "A2",
          "midi": 45,
          "time": 146.57128200000056,
          "velocity": 0.7480314960629921,
          "duration": 0.2857140000000129
        },
        {
          "name": "A3",
          "midi": 57,
          "time": 146.85699600000058,
          "velocity": 0.7480314960629921,
          "duration": 0.2857140000000129
        },
        {
          "name": "E3",
          "midi": 52,
          "time": 146.85699600000058,
          "velocity": 0.7480314960629921,
          "duration": 0.2857140000000129
        },
        {
          "name": "A2",
          "midi": 45,
          "time": 146.85699600000058,
          "velocity": 0.7480314960629921,
          "duration": 0.2857140000000129
        },
        {
          "name": "A3",
          "midi": 57,
          "time": 147.1427100000006,
          "velocity": 0.7480314960629921,
          "duration": 0.2857140000000129
        },
        {
          "name": "E3",
          "midi": 52,
          "time": 147.1427100000006,
          "velocity": 0.7480314960629921,
          "duration": 0.2857140000000129
        },
        {
          "name": "A2",
          "midi": 45,
          "time": 147.1427100000006,
          "velocity": 0.7480314960629921,
          "duration": 0.2857140000000129
        },
        {
          "name": "A3",
          "midi": 57,
          "time": 147.4284240000006,
          "velocity": 0.7480314960629921,
          "duration": 0.2857140000000129
        },
        {
          "name": "E3",
          "midi": 52,
          "time": 147.4284240000006,
          "velocity": 0.7480314960629921,
          "duration": 0.2857140000000129
        },
        {
          "name": "A2",
          "midi": 45,
          "time": 147.4284240000006,
          "velocity": 0.7480314960629921,
          "duration": 0.2857140000000129
        },
        {
          "name": "A3",
          "midi": 57,
          "time": 147.71413800000062,
          "velocity": 0.7480314960629921,
          "duration": 0.2857140000000129
        },
        {
          "name": "E3",
          "midi": 52,
          "time": 147.71413800000062,
          "velocity": 0.7480314960629921,
          "duration": 0.2857140000000129
        },
        {
          "name": "A2",
          "midi": 45,
          "time": 147.71413800000062,
          "velocity": 0.7480314960629921,
          "duration": 0.2857140000000129
        },
        {
          "name": "A3",
          "midi": 57,
          "time": 147.99985200000063,
          "velocity": 0.7480314960629921,
          "duration": 0.2857140000000129
        },
        {
          "name": "E3",
          "midi": 52,
          "time": 147.99985200000063,
          "velocity": 0.7480314960629921,
          "duration": 0.2857140000000129
        },
        {
          "name": "A2",
          "midi": 45,
          "time": 147.99985200000063,
          "velocity": 0.7480314960629921,
          "duration": 0.2857140000000129
        },
        {
          "name": "A3",
          "midi": 57,
          "time": 148.28556600000064,
          "velocity": 0.7480314960629921,
          "duration": 0.2857140000000129
        },
        {
          "name": "E3",
          "midi": 52,
          "time": 148.28556600000064,
          "velocity": 0.7480314960629921,
          "duration": 0.2857140000000129
        },
        {
          "name": "A2",
          "midi": 45,
          "time": 148.28556600000064,
          "velocity": 0.7480314960629921,
          "duration": 0.2857140000000129
        },
        {
          "name": "E4",
          "midi": 64,
          "time": 148.57128000000066,
          "velocity": 0.7480314960629921,
          "duration": 0.2857140000000129
        },
        {
          "name": "B3",
          "midi": 59,
          "time": 148.57128000000066,
          "velocity": 0.7480314960629921,
          "duration": 0.2857140000000129
        },
        {
          "name": "E3",
          "midi": 52,
          "time": 148.57128000000066,
          "velocity": 0.7480314960629921,
          "duration": 0.2857140000000129
        },
        {
          "name": "E4",
          "midi": 64,
          "time": 148.85699400000067,
          "velocity": 0.7480314960629921,
          "duration": 0.2857140000000129
        },
        {
          "name": "B3",
          "midi": 59,
          "time": 148.85699400000067,
          "velocity": 0.7480314960629921,
          "duration": 0.2857140000000129
        },
        {
          "name": "E3",
          "midi": 52,
          "time": 148.85699400000067,
          "velocity": 0.7480314960629921,
          "duration": 0.2857140000000129
        },
        {
          "name": "E4",
          "midi": 64,
          "time": 149.14270800000068,
          "velocity": 0.7480314960629921,
          "duration": 0.2857140000000129
        },
        {
          "name": "B3",
          "midi": 59,
          "time": 149.14270800000068,
          "velocity": 0.7480314960629921,
          "duration": 0.2857140000000129
        },
        {
          "name": "E3",
          "midi": 52,
          "time": 149.14270800000068,
          "velocity": 0.7480314960629921,
          "duration": 0.2857140000000129
        },
        {
          "name": "E4",
          "midi": 64,
          "time": 149.4284220000007,
          "velocity": 0.7480314960629921,
          "duration": 0.2857140000000129
        },
        {
          "name": "B3",
          "midi": 59,
          "time": 149.4284220000007,
          "velocity": 0.7480314960629921,
          "duration": 0.2857140000000129
        },
        {
          "name": "E3",
          "midi": 52,
          "time": 149.4284220000007,
          "velocity": 0.7480314960629921,
          "duration": 0.2857140000000129
        },
        {
          "name": "E4",
          "midi": 64,
          "time": 149.7141360000007,
          "velocity": 0.7480314960629921,
          "duration": 0.2857140000000129
        },
        {
          "name": "B3",
          "midi": 59,
          "time": 149.7141360000007,
          "velocity": 0.7480314960629921,
          "duration": 0.2857140000000129
        },
        {
          "name": "E3",
          "midi": 52,
          "time": 149.7141360000007,
          "velocity": 0.7480314960629921,
          "duration": 0.2857140000000129
        },
        {
          "name": "E4",
          "midi": 64,
          "time": 149.99985000000072,
          "velocity": 0.7480314960629921,
          "duration": 0.2857140000000129
        },
        {
          "name": "B3",
          "midi": 59,
          "time": 149.99985000000072,
          "velocity": 0.7480314960629921,
          "duration": 0.2857140000000129
        },
        {
          "name": "E3",
          "midi": 52,
          "time": 149.99985000000072,
          "velocity": 0.7480314960629921,
          "duration": 0.2857140000000129
        },
        {
          "name": "E4",
          "midi": 64,
          "time": 150.28556400000073,
          "velocity": 0.7480314960629921,
          "duration": 0.2857140000000129
        },
        {
          "name": "B3",
          "midi": 59,
          "time": 150.28556400000073,
          "velocity": 0.7480314960629921,
          "duration": 0.2857140000000129
        },
        {
          "name": "E3",
          "midi": 52,
          "time": 150.28556400000073,
          "velocity": 0.7480314960629921,
          "duration": 0.2857140000000129
        },
        {
          "name": "E4",
          "midi": 64,
          "time": 150.57127800000075,
          "velocity": 0.7480314960629921,
          "duration": 0.2857140000000129
        },
        {
          "name": "B3",
          "midi": 59,
          "time": 150.57127800000075,
          "velocity": 0.7480314960629921,
          "duration": 0.2857140000000129
        },
        {
          "name": "E3",
          "midi": 52,
          "time": 150.57127800000075,
          "velocity": 0.7480314960629921,
          "duration": 0.2857140000000129
        },
        {
          "name": "F#3",
          "midi": 54,
          "time": 150.85699200000076,
          "velocity": 0.7480314960629921,
          "duration": 0.2857140000000129
        },
        {
          "name": "C#3",
          "midi": 49,
          "time": 150.85699200000076,
          "velocity": 0.7480314960629921,
          "duration": 0.2857140000000129
        },
        {
          "name": "F#2",
          "midi": 42,
          "time": 150.85699200000076,
          "velocity": 0.7480314960629921,
          "duration": 0.2857140000000129
        },
        {
          "name": "F#3",
          "midi": 54,
          "time": 151.14270600000077,
          "velocity": 0.7480314960629921,
          "duration": 0.2857140000000129
        },
        {
          "name": "C#3",
          "midi": 49,
          "time": 151.14270600000077,
          "velocity": 0.7480314960629921,
          "duration": 0.2857140000000129
        },
        {
          "name": "F#2",
          "midi": 42,
          "time": 151.14270600000077,
          "velocity": 0.7480314960629921,
          "duration": 0.2857140000000129
        },
        {
          "name": "F#3",
          "midi": 54,
          "time": 151.42842000000078,
          "velocity": 0.7480314960629921,
          "duration": 0.2857140000000129
        },
        {
          "name": "C#3",
          "midi": 49,
          "time": 151.42842000000078,
          "velocity": 0.7480314960629921,
          "duration": 0.2857140000000129
        },
        {
          "name": "F#2",
          "midi": 42,
          "time": 151.42842000000078,
          "velocity": 0.7480314960629921,
          "duration": 0.2857140000000129
        },
        {
          "name": "F#3",
          "midi": 54,
          "time": 151.7141340000008,
          "velocity": 0.7480314960629921,
          "duration": 0.2857140000000129
        },
        {
          "name": "C#3",
          "midi": 49,
          "time": 151.7141340000008,
          "velocity": 0.7480314960629921,
          "duration": 0.2857140000000129
        },
        {
          "name": "F#2",
          "midi": 42,
          "time": 151.7141340000008,
          "velocity": 0.7480314960629921,
          "duration": 0.2857140000000129
        },
        {
          "name": "F#3",
          "midi": 54,
          "time": 151.9998480000008,
          "velocity": 0.7480314960629921,
          "duration": 0.2857140000000129
        },
        {
          "name": "C#3",
          "midi": 49,
          "time": 151.9998480000008,
          "velocity": 0.7480314960629921,
          "duration": 0.2857140000000129
        },
        {
          "name": "F#2",
          "midi": 42,
          "time": 151.9998480000008,
          "velocity": 0.7480314960629921,
          "duration": 0.2857140000000129
        },
        {
          "name": "F#3",
          "midi": 54,
          "time": 152.28556200000082,
          "velocity": 0.7480314960629921,
          "duration": 0.2857140000000129
        },
        {
          "name": "C#3",
          "midi": 49,
          "time": 152.28556200000082,
          "velocity": 0.7480314960629921,
          "duration": 0.2857140000000129
        },
        {
          "name": "F#2",
          "midi": 42,
          "time": 152.28556200000082,
          "velocity": 0.7480314960629921,
          "duration": 0.2857140000000129
        },
        {
          "name": "F#3",
          "midi": 54,
          "time": 152.57127600000084,
          "velocity": 0.7480314960629921,
          "duration": 0.2857140000000129
        },
        {
          "name": "C#3",
          "midi": 49,
          "time": 152.57127600000084,
          "velocity": 0.7480314960629921,
          "duration": 0.2857140000000129
        },
        {
          "name": "F#2",
          "midi": 42,
          "time": 152.57127600000084,
          "velocity": 0.7480314960629921,
          "duration": 0.2857140000000129
        },
        {
          "name": "F#3",
          "midi": 54,
          "time": 152.85699000000085,
          "velocity": 0.7480314960629921,
          "duration": 0.2857140000000129
        },
        {
          "name": "C#3",
          "midi": 49,
          "time": 152.85699000000085,
          "velocity": 0.7480314960629921,
          "duration": 0.2857140000000129
        },
        {
          "name": "F#2",
          "midi": 42,
          "time": 152.85699000000085,
          "velocity": 0.7480314960629921,
          "duration": 0.2857140000000129
        },
        {
          "name": "F#3",
          "midi": 54,
          "time": 153.14270400000086,
          "velocity": 0.7480314960629921,
          "duration": 0.2857140000000129
        },
        {
          "name": "C#3",
          "midi": 49,
          "time": 153.14270400000086,
          "velocity": 0.7480314960629921,
          "duration": 0.2857140000000129
        },
        {
          "name": "F#2",
          "midi": 42,
          "time": 153.14270400000086,
          "velocity": 0.7480314960629921,
          "duration": 0.2857140000000129
        },
        {
          "name": "F#3",
          "midi": 54,
          "time": 153.42841800000087,
          "velocity": 0.7480314960629921,
          "duration": 0.2857140000000129
        },
        {
          "name": "C#3",
          "midi": 49,
          "time": 153.42841800000087,
          "velocity": 0.7480314960629921,
          "duration": 0.2857140000000129
        },
        {
          "name": "F#2",
          "midi": 42,
          "time": 153.42841800000087,
          "velocity": 0.7480314960629921,
          "duration": 0.2857140000000129
        },
        {
          "name": "F#3",
          "midi": 54,
          "time": 153.7141320000009,
          "velocity": 0.7480314960629921,
          "duration": 0.2857140000000129
        },
        {
          "name": "C#3",
          "midi": 49,
          "time": 153.7141320000009,
          "velocity": 0.7480314960629921,
          "duration": 0.2857140000000129
        },
        {
          "name": "F#2",
          "midi": 42,
          "time": 153.7141320000009,
          "velocity": 0.7480314960629921,
          "duration": 0.2857140000000129
        },
        {
          "name": "F#3",
          "midi": 54,
          "time": 153.9998460000009,
          "velocity": 0.7480314960629921,
          "duration": 0.2857140000000129
        },
        {
          "name": "C#3",
          "midi": 49,
          "time": 153.9998460000009,
          "velocity": 0.7480314960629921,
          "duration": 0.2857140000000129
        },
        {
          "name": "F#2",
          "midi": 42,
          "time": 153.9998460000009,
          "velocity": 0.7480314960629921,
          "duration": 0.2857140000000129
        },
        {
          "name": "F#3",
          "midi": 54,
          "time": 154.2855600000009,
          "velocity": 0.7480314960629921,
          "duration": 0.2857140000000129
        },
        {
          "name": "C#3",
          "midi": 49,
          "time": 154.2855600000009,
          "velocity": 0.7480314960629921,
          "duration": 0.2857140000000129
        },
        {
          "name": "F#2",
          "midi": 42,
          "time": 154.2855600000009,
          "velocity": 0.7480314960629921,
          "duration": 0.2857140000000129
        },
        {
          "name": "F#3",
          "midi": 54,
          "time": 154.57127400000093,
          "velocity": 0.7480314960629921,
          "duration": 0.2857140000000129
        },
        {
          "name": "C#3",
          "midi": 49,
          "time": 154.57127400000093,
          "velocity": 0.7480314960629921,
          "duration": 0.2857140000000129
        },
        {
          "name": "F#2",
          "midi": 42,
          "time": 154.57127400000093,
          "velocity": 0.7480314960629921,
          "duration": 0.2857140000000129
        },
        {
          "name": "F#3",
          "midi": 54,
          "time": 154.85698800000094,
          "velocity": 0.7480314960629921,
          "duration": 0.2857140000000129
        },
        {
          "name": "C#3",
          "midi": 49,
          "time": 154.85698800000094,
          "velocity": 0.7480314960629921,
          "duration": 0.2857140000000129
        },
        {
          "name": "F#2",
          "midi": 42,
          "time": 154.85698800000094,
          "velocity": 0.7480314960629921,
          "duration": 0.2857140000000129
        },
        {
          "name": "F#3",
          "midi": 54,
          "time": 155.14270200000095,
          "velocity": 0.7480314960629921,
          "duration": 0.2857140000000129
        },
        {
          "name": "C#3",
          "midi": 49,
          "time": 155.14270200000095,
          "velocity": 0.7480314960629921,
          "duration": 0.2857140000000129
        },
        {
          "name": "F#2",
          "midi": 42,
          "time": 155.14270200000095,
          "velocity": 0.7480314960629921,
          "duration": 0.2857140000000129
        },
        {
          "name": "A3",
          "midi": 57,
          "time": 155.42841600000096,
          "velocity": 0.7480314960629921,
          "duration": 0.2857140000000129
        },
        {
          "name": "E3",
          "midi": 52,
          "time": 155.42841600000096,
          "velocity": 0.7480314960629921,
          "duration": 0.2857140000000129
        },
        {
          "name": "A2",
          "midi": 45,
          "time": 155.42841600000096,
          "velocity": 0.7480314960629921,
          "duration": 0.2857140000000129
        },
        {
          "name": "A3",
          "midi": 57,
          "time": 155.71413000000098,
          "velocity": 0.7480314960629921,
          "duration": 0.2857140000000129
        },
        {
          "name": "E3",
          "midi": 52,
          "time": 155.71413000000098,
          "velocity": 0.7480314960629921,
          "duration": 0.2857140000000129
        },
        {
          "name": "A2",
          "midi": 45,
          "time": 155.71413000000098,
          "velocity": 0.7480314960629921,
          "duration": 0.2857140000000129
        },
        {
          "name": "A3",
          "midi": 57,
          "time": 155.999844000001,
          "velocity": 0.7480314960629921,
          "duration": 0.2857140000000129
        },
        {
          "name": "E3",
          "midi": 52,
          "time": 155.999844000001,
          "velocity": 0.7480314960629921,
          "duration": 0.2857140000000129
        },
        {
          "name": "A2",
          "midi": 45,
          "time": 155.999844000001,
          "velocity": 0.7480314960629921,
          "duration": 0.2857140000000129
        },
        {
          "name": "A3",
          "midi": 57,
          "time": 156.285558000001,
          "velocity": 0.7480314960629921,
          "duration": 0.2857140000000129
        },
        {
          "name": "E3",
          "midi": 52,
          "time": 156.285558000001,
          "velocity": 0.7480314960629921,
          "duration": 0.2857140000000129
        },
        {
          "name": "A2",
          "midi": 45,
          "time": 156.285558000001,
          "velocity": 0.7480314960629921,
          "duration": 0.2857140000000129
        },
        {
          "name": "A3",
          "midi": 57,
          "time": 156.57127200000102,
          "velocity": 0.7480314960629921,
          "duration": 0.2857140000000129
        },
        {
          "name": "E3",
          "midi": 52,
          "time": 156.57127200000102,
          "velocity": 0.7480314960629921,
          "duration": 0.2857140000000129
        },
        {
          "name": "A2",
          "midi": 45,
          "time": 156.57127200000102,
          "velocity": 0.7480314960629921,
          "duration": 0.2857140000000129
        },
        {
          "name": "A3",
          "midi": 57,
          "time": 156.85698600000103,
          "velocity": 0.7480314960629921,
          "duration": 0.2857140000000129
        },
        {
          "name": "E3",
          "midi": 52,
          "time": 156.85698600000103,
          "velocity": 0.7480314960629921,
          "duration": 0.2857140000000129
        },
        {
          "name": "A2",
          "midi": 45,
          "time": 156.85698600000103,
          "velocity": 0.7480314960629921,
          "duration": 0.2857140000000129
        },
        {
          "name": "A3",
          "midi": 57,
          "time": 157.14270000000104,
          "velocity": 0.7480314960629921,
          "duration": 0.2857140000000129
        },
        {
          "name": "E3",
          "midi": 52,
          "time": 157.14270000000104,
          "velocity": 0.7480314960629921,
          "duration": 0.2857140000000129
        },
        {
          "name": "A2",
          "midi": 45,
          "time": 157.14270000000104,
          "velocity": 0.7480314960629921,
          "duration": 0.2857140000000129
        },
        {
          "name": "A3",
          "midi": 57,
          "time": 157.42841400000106,
          "velocity": 0.7480314960629921,
          "duration": 0.2857140000000129
        },
        {
          "name": "E3",
          "midi": 52,
          "time": 157.42841400000106,
          "velocity": 0.7480314960629921,
          "duration": 0.2857140000000129
        },
        {
          "name": "A2",
          "midi": 45,
          "time": 157.42841400000106,
          "velocity": 0.7480314960629921,
          "duration": 0.2857140000000129
        },
        {
          "name": "E4",
          "midi": 64,
          "time": 157.71412800000107,
          "velocity": 0.7480314960629921,
          "duration": 0.2857140000000129
        },
        {
          "name": "B3",
          "midi": 59,
          "time": 157.71412800000107,
          "velocity": 0.7480314960629921,
          "duration": 0.2857140000000129
        },
        {
          "name": "E3",
          "midi": 52,
          "time": 157.71412800000107,
          "velocity": 0.7480314960629921,
          "duration": 0.2857140000000129
        },
        {
          "name": "E4",
          "midi": 64,
          "time": 157.99984200000108,
          "velocity": 0.7480314960629921,
          "duration": 0.2857140000000129
        },
        {
          "name": "B3",
          "midi": 59,
          "time": 157.99984200000108,
          "velocity": 0.7480314960629921,
          "duration": 0.2857140000000129
        },
        {
          "name": "E3",
          "midi": 52,
          "time": 157.99984200000108,
          "velocity": 0.7480314960629921,
          "duration": 0.2857140000000129
        },
        {
          "name": "E4",
          "midi": 64,
          "time": 158.2855560000011,
          "velocity": 0.7480314960629921,
          "duration": 0.2857140000000129
        },
        {
          "name": "B3",
          "midi": 59,
          "time": 158.2855560000011,
          "velocity": 0.7480314960629921,
          "duration": 0.2857140000000129
        },
        {
          "name": "E3",
          "midi": 52,
          "time": 158.2855560000011,
          "velocity": 0.7480314960629921,
          "duration": 0.2857140000000129
        },
        {
          "name": "E4",
          "midi": 64,
          "time": 158.5712700000011,
          "velocity": 0.7480314960629921,
          "duration": 0.2857140000000129
        },
        {
          "name": "B3",
          "midi": 59,
          "time": 158.5712700000011,
          "velocity": 0.7480314960629921,
          "duration": 0.2857140000000129
        },
        {
          "name": "E3",
          "midi": 52,
          "time": 158.5712700000011,
          "velocity": 0.7480314960629921,
          "duration": 0.2857140000000129
        },
        {
          "name": "E4",
          "midi": 64,
          "time": 158.85698400000112,
          "velocity": 0.7480314960629921,
          "duration": 0.2857140000000129
        },
        {
          "name": "B3",
          "midi": 59,
          "time": 158.85698400000112,
          "velocity": 0.7480314960629921,
          "duration": 0.2857140000000129
        },
        {
          "name": "E3",
          "midi": 52,
          "time": 158.85698400000112,
          "velocity": 0.7480314960629921,
          "duration": 0.2857140000000129
        },
        {
          "name": "E4",
          "midi": 64,
          "time": 159.14269800000113,
          "velocity": 0.7480314960629921,
          "duration": 0.2857140000000129
        },
        {
          "name": "B3",
          "midi": 59,
          "time": 159.14269800000113,
          "velocity": 0.7480314960629921,
          "duration": 0.2857140000000129
        },
        {
          "name": "E3",
          "midi": 52,
          "time": 159.14269800000113,
          "velocity": 0.7480314960629921,
          "duration": 0.2857140000000129
        },
        {
          "name": "E4",
          "midi": 64,
          "time": 159.42841200000115,
          "velocity": 0.7480314960629921,
          "duration": 0.2857140000000129
        },
        {
          "name": "B3",
          "midi": 59,
          "time": 159.42841200000115,
          "velocity": 0.7480314960629921,
          "duration": 0.2857140000000129
        },
        {
          "name": "E3",
          "midi": 52,
          "time": 159.42841200000115,
          "velocity": 0.7480314960629921,
          "duration": 0.2857140000000129
        },
        {
          "name": "E4",
          "midi": 64,
          "time": 159.71412600000116,
          "velocity": 0.7480314960629921,
          "duration": 0.2857140000000129
        },
        {
          "name": "B3",
          "midi": 59,
          "time": 159.71412600000116,
          "velocity": 0.7480314960629921,
          "duration": 0.2857140000000129
        },
        {
          "name": "E3",
          "midi": 52,
          "time": 159.71412600000116,
          "velocity": 0.7480314960629921,
          "duration": 0.2857140000000129
        },
        {
          "name": "C#4",
          "midi": 61,
          "time": 159.99984000000117,
          "velocity": 0.7480314960629921,
          "duration": 2.2857119999999895
        },
        {
          "name": "G#3",
          "midi": 56,
          "time": 159.99984000000117,
          "velocity": 0.7480314960629921,
          "duration": 2.2857119999999895
        },
        {
          "name": "C#3",
          "midi": 49,
          "time": 159.99984000000117,
          "velocity": 0.7480314960629921,
          "duration": 2.2857119999999895
        },
        {
          "name": "F#3",
          "midi": 54,
          "time": 162.28555200000116,
          "velocity": 0.7480314960629921,
          "duration": 4.5714240000000075
        },
        {
          "name": "C#3",
          "midi": 49,
          "time": 162.28555200000116,
          "velocity": 0.7480314960629921,
          "duration": 4.5714240000000075
        },
        {
          "name": "F#2",
          "midi": 42,
          "time": 162.28555200000116,
          "velocity": 0.7480314960629921,
          "duration": 4.5714240000000075
        }
      ],
      "controlChanges": {
        "6": [
          {
            "number": 6,
            "time": 0,
            "value": 0.09448818897637795
          },
          {
            "number": 6,
            "time": 0,
            "value": 0.5039370078740157
          },
          {
            "number": 6,
            "time": 0,
            "value": 0.09448818897637795
          },
          {
            "number": 6,
            "time": 0,
            "value": 0.5039370078740157
          },
          {
            "number": 6,
            "time": 0,
            "value": 0.5039370078740157
          },
          {
            "number": 6,
            "time": 0,
            "value": 0.5039370078740157
          }
        ],
        "7": [
          {
            "number": 7,
            "time": 0,
            "value": 0.7559055118110236
          },
          {
            "number": 7,
            "time": 0,
            "value": 0.7559055118110236
          }
        ],
        "10": [
          {
            "number": 10,
            "time": 0,
            "value": 0.5039370078740157
          },
          {
            "number": 10,
            "time": 0,
            "value": 0.5039370078740157
          }
        ],
        "38": [
          {
            "number": 38,
            "time": 0,
            "value": 0
          },
          {
            "number": 38,
            "time": 0,
            "value": 0
          }
        ],
        "91": [
          {
            "number": 91,
            "time": 0,
            "value": 0
          },
          {
            "number": 91,
            "time": 0,
            "value": 0
          }
        ],
        "92": [
          {
            "number": 92,
            "time": 0,
            "value": 0
          },
          {
            "number": 92,
            "time": 0,
            "value": 0
          }
        ],
        "93": [
          {
            "number": 93,
            "time": 0,
            "value": 0
          },
          {
            "number": 93,
            "time": 0,
            "value": 0
          }
        ],
        "95": [
          {
            "number": 95,
            "time": 0,
            "value": 0
          },
          {
            "number": 95,
            "time": 0,
            "value": 0
          }
        ],
        "100": [
          {
            "number": 100,
            "time": 0,
            "value": 0
          },
          {
            "number": 100,
            "time": 0,
            "value": 0.007874015748031496
          },
          {
            "number": 100,
            "time": 0,
            "value": 1
          },
          {
            "number": 100,
            "time": 0,
            "value": 0
          },
          {
            "number": 100,
            "time": 0,
            "value": 0.007874015748031496
          },
          {
            "number": 100,
            "time": 0,
            "value": 1
          },
          {
            "number": 100,
            "time": 0,
            "value": 0.015748031496062992
          },
          {
            "number": 100,
            "time": 0,
            "value": 1
          },
          {
            "number": 100,
            "time": 0,
            "value": 0.015748031496062992
          },
          {
            "number": 100,
            "time": 0,
            "value": 1
          }
        ],
        "101": [
          {
            "number": 101,
            "time": 0,
            "value": 0
          },
          {
            "number": 101,
            "time": 0,
            "value": 0
          },
          {
            "number": 101,
            "time": 0,
            "value": 1
          },
          {
            "number": 101,
            "time": 0,
            "value": 0
          },
          {
            "number": 101,
            "time": 0,
            "value": 0
          },
          {
            "number": 101,
            "time": 0,
            "value": 1
          },
          {
            "number": 101,
            "time": 0,
            "value": 0
          },
          {
            "number": 101,
            "time": 0,
            "value": 1
          },
          {
            "number": 101,
            "time": 0,
            "value": 0
          },
          {
            "number": 101,
            "time": 0,
            "value": 1
          }
        ]
      },
      "id": 2,
      "name": "Jamie",
      "instrumentNumber": 29,
      "instrument": "overdriven guitar",
      "instrumentFamily": "guitar",
      "channelNumber": 0,
      "isPercussion": false
    },
    {
      "startTime": 0,
      "duration": 166.85697599999995,
      "length": 841,
      "notes": [
        {
          "name": "F#1",
          "midi": 30,
          "time": 0,
          "velocity": 0.7480314960629921,
          "duration": 0.285714
        },
        {
          "name": "F#1",
          "midi": 30,
          "time": 0.285714,
          "velocity": 0.7480314960629921,
          "duration": 0.285714
        },
        {
          "name": "F#1",
          "midi": 30,
          "time": 1.142856,
          "velocity": 0.7480314960629921,
          "duration": 0.285714
        },
        {
          "name": "F#1",
          "midi": 30,
          "time": 1.4285700000000001,
          "velocity": 0.7480314960629921,
          "duration": 0.285714
        },
        {
          "name": "F#1",
          "midi": 30,
          "time": 2.285712,
          "velocity": 0.7480314960629921,
          "duration": 0.285714
        },
        {
          "name": "F#1",
          "midi": 30,
          "time": 2.571426,
          "velocity": 0.7480314960629921,
          "duration": 0.285714
        },
        {
          "name": "F#1",
          "midi": 30,
          "time": 3.4285680000000003,
          "velocity": 0.7480314960629921,
          "duration": 0.285714
        },
        {
          "name": "F#1",
          "midi": 30,
          "time": 3.7142820000000003,
          "velocity": 0.7480314960629921,
          "duration": 0.285714
        },
        {
          "name": "F#1",
          "midi": 30,
          "time": 4.571424,
          "velocity": 0.7480314960629921,
          "duration": 0.28571400000000047
        },
        {
          "name": "F#1",
          "midi": 30,
          "time": 4.857138000000001,
          "velocity": 0.7480314960629921,
          "duration": 0.28571400000000047
        },
        {
          "name": "F#1",
          "midi": 30,
          "time": 5.714280000000001,
          "velocity": 0.7480314960629921,
          "duration": 0.2857139999999996
        },
        {
          "name": "F#1",
          "midi": 30,
          "time": 5.999994000000001,
          "velocity": 0.7480314960629921,
          "duration": 0.28571400000000047
        },
        {
          "name": "F#1",
          "midi": 30,
          "time": 6.8571360000000015,
          "velocity": 0.7480314960629921,
          "duration": 0.2857139999999996
        },
        {
          "name": "F#1",
          "midi": 30,
          "time": 7.142850000000001,
          "velocity": 0.7480314960629921,
          "duration": 0.28571400000000047
        },
        {
          "name": "F#1",
          "midi": 30,
          "time": 7.9999920000000015,
          "velocity": 0.7480314960629921,
          "duration": 0.2857139999999996
        },
        {
          "name": "F#1",
          "midi": 30,
          "time": 8.285706000000001,
          "velocity": 0.7480314960629921,
          "duration": 0.28571400000000047
        },
        {
          "name": "F#1",
          "midi": 30,
          "time": 9.142848,
          "velocity": 0.7480314960629921,
          "duration": 0.14285699999999935
        },
        {
          "name": "F#1",
          "midi": 30,
          "time": 9.285705,
          "velocity": 0.7480314960629921,
          "duration": 0.14285699999999935
        },
        {
          "name": "F#1",
          "midi": 30,
          "time": 9.428562,
          "velocity": 0.7480314960629921,
          "duration": 0.14285699999999935
        },
        {
          "name": "F#1",
          "midi": 30,
          "time": 9.571418999999999,
          "velocity": 0.7480314960629921,
          "duration": 0.14285699999999935
        },
        {
          "name": "F#1",
          "midi": 30,
          "time": 9.714275999999998,
          "velocity": 0.7480314960629921,
          "duration": 0.14285699999999935
        },
        {
          "name": "F#1",
          "midi": 30,
          "time": 9.857132999999997,
          "velocity": 0.7480314960629921,
          "duration": 0.14285699999999935
        },
        {
          "name": "F#1",
          "midi": 30,
          "time": 9.999989999999997,
          "velocity": 0.7480314960629921,
          "duration": 0.14285699999999935
        },
        {
          "name": "F#1",
          "midi": 30,
          "time": 10.142846999999996,
          "velocity": 0.7480314960629921,
          "duration": 0.14285699999999935
        },
        {
          "name": "F#1",
          "midi": 30,
          "time": 10.285703999999996,
          "velocity": 0.7480314960629921,
          "duration": 0.14285699999999935
        },
        {
          "name": "F#1",
          "midi": 30,
          "time": 10.428560999999995,
          "velocity": 0.7480314960629921,
          "duration": 0.14285699999999935
        },
        {
          "name": "F#1",
          "midi": 30,
          "time": 10.571417999999994,
          "velocity": 0.7480314960629921,
          "duration": 0.14285699999999935
        },
        {
          "name": "F#1",
          "midi": 30,
          "time": 10.714274999999994,
          "velocity": 0.7480314960629921,
          "duration": 0.14285699999999935
        },
        {
          "name": "F#1",
          "midi": 30,
          "time": 10.857131999999993,
          "velocity": 0.7480314960629921,
          "duration": 0.14285699999999935
        },
        {
          "name": "F#1",
          "midi": 30,
          "time": 10.999988999999992,
          "velocity": 0.7480314960629921,
          "duration": 0.14285699999999935
        },
        {
          "name": "F#1",
          "midi": 30,
          "time": 11.142845999999992,
          "velocity": 0.7480314960629921,
          "duration": 0.14285699999999935
        },
        {
          "name": "F#1",
          "midi": 30,
          "time": 11.285702999999991,
          "velocity": 0.7480314960629921,
          "duration": 0.14285699999999935
        },
        {
          "name": "F#1",
          "midi": 30,
          "time": 11.42855999999999,
          "velocity": 0.7480314960629921,
          "duration": 0.14285699999999935
        },
        {
          "name": "F#1",
          "midi": 30,
          "time": 11.57141699999999,
          "velocity": 0.7480314960629921,
          "duration": 0.14285699999999935
        },
        {
          "name": "F#1",
          "midi": 30,
          "time": 11.714273999999989,
          "velocity": 0.7480314960629921,
          "duration": 0.14285699999999935
        },
        {
          "name": "F#1",
          "midi": 30,
          "time": 11.857130999999988,
          "velocity": 0.7480314960629921,
          "duration": 0.14285699999999935
        },
        {
          "name": "F#1",
          "midi": 30,
          "time": 11.999987999999988,
          "velocity": 0.7480314960629921,
          "duration": 0.14285699999999935
        },
        {
          "name": "F#1",
          "midi": 30,
          "time": 12.142844999999987,
          "velocity": 0.7480314960629921,
          "duration": 0.14285699999999935
        },
        {
          "name": "F#1",
          "midi": 30,
          "time": 12.285701999999986,
          "velocity": 0.7480314960629921,
          "duration": 0.14285699999999935
        },
        {
          "name": "F#1",
          "midi": 30,
          "time": 12.428558999999986,
          "velocity": 0.7480314960629921,
          "duration": 0.14285699999999935
        },
        {
          "name": "F#1",
          "midi": 30,
          "time": 12.571415999999985,
          "velocity": 0.7480314960629921,
          "duration": 0.14285699999999935
        },
        {
          "name": "F#1",
          "midi": 30,
          "time": 12.714272999999984,
          "velocity": 0.7480314960629921,
          "duration": 0.14285699999999935
        },
        {
          "name": "F#1",
          "midi": 30,
          "time": 12.857129999999984,
          "velocity": 0.7480314960629921,
          "duration": 0.14285699999999935
        },
        {
          "name": "F#1",
          "midi": 30,
          "time": 12.999986999999983,
          "velocity": 0.7480314960629921,
          "duration": 0.14285699999999935
        },
        {
          "name": "F#1",
          "midi": 30,
          "time": 13.142843999999982,
          "velocity": 0.7480314960629921,
          "duration": 0.14285699999999935
        },
        {
          "name": "F#1",
          "midi": 30,
          "time": 13.285700999999982,
          "velocity": 0.7480314960629921,
          "duration": 0.14285699999999935
        },
        {
          "name": "F#1",
          "midi": 30,
          "time": 13.428557999999981,
          "velocity": 0.7480314960629921,
          "duration": 0.14285699999999935
        },
        {
          "name": "F#1",
          "midi": 30,
          "time": 13.57141499999998,
          "velocity": 0.7480314960629921,
          "duration": 0.14285699999999935
        },
        {
          "name": "F#1",
          "midi": 30,
          "time": 13.71427199999998,
          "velocity": 0.7480314960629921,
          "duration": 0.14285699999999935
        },
        {
          "name": "F#1",
          "midi": 30,
          "time": 13.85712899999998,
          "velocity": 0.7480314960629921,
          "duration": 0.14285699999999935
        },
        {
          "name": "F#1",
          "midi": 30,
          "time": 13.999985999999979,
          "velocity": 0.7480314960629921,
          "duration": 0.14285699999999935
        },
        {
          "name": "F#1",
          "midi": 30,
          "time": 14.142842999999978,
          "velocity": 0.7480314960629921,
          "duration": 0.14285699999999935
        },
        {
          "name": "F#1",
          "midi": 30,
          "time": 14.285699999999977,
          "velocity": 0.7480314960629921,
          "duration": 0.14285699999999935
        },
        {
          "name": "F#1",
          "midi": 30,
          "time": 14.428556999999977,
          "velocity": 0.7480314960629921,
          "duration": 0.14285699999999935
        },
        {
          "name": "F#1",
          "midi": 30,
          "time": 14.571413999999976,
          "velocity": 0.7480314960629921,
          "duration": 0.14285699999999935
        },
        {
          "name": "F#1",
          "midi": 30,
          "time": 14.714270999999975,
          "velocity": 0.7480314960629921,
          "duration": 0.14285699999999935
        },
        {
          "name": "F#1",
          "midi": 30,
          "time": 14.857127999999975,
          "velocity": 0.7480314960629921,
          "duration": 0.14285699999999935
        },
        {
          "name": "F#1",
          "midi": 30,
          "time": 14.999984999999974,
          "velocity": 0.7480314960629921,
          "duration": 0.14285699999999935
        },
        {
          "name": "F#1",
          "midi": 30,
          "time": 15.142841999999973,
          "velocity": 0.7480314960629921,
          "duration": 0.14285699999999935
        },
        {
          "name": "F#1",
          "midi": 30,
          "time": 15.285698999999973,
          "velocity": 0.7480314960629921,
          "duration": 0.14285699999999935
        },
        {
          "name": "F#1",
          "midi": 30,
          "time": 15.428555999999972,
          "velocity": 0.7480314960629921,
          "duration": 0.14285699999999935
        },
        {
          "name": "F#1",
          "midi": 30,
          "time": 15.571412999999971,
          "velocity": 0.7480314960629921,
          "duration": 0.14285699999999935
        },
        {
          "name": "F#1",
          "midi": 30,
          "time": 15.71426999999997,
          "velocity": 0.7480314960629921,
          "duration": 0.14285699999999935
        },
        {
          "name": "F#1",
          "midi": 30,
          "time": 15.85712699999997,
          "velocity": 0.7480314960629921,
          "duration": 0.14285699999999935
        },
        {
          "name": "F#1",
          "midi": 30,
          "time": 15.99998399999997,
          "velocity": 0.7480314960629921,
          "duration": 0.14285699999999935
        },
        {
          "name": "F#1",
          "midi": 30,
          "time": 16.14284099999997,
          "velocity": 0.7480314960629921,
          "duration": 0.14285699999999935
        },
        {
          "name": "F#1",
          "midi": 30,
          "time": 16.285697999999968,
          "velocity": 0.7480314960629921,
          "duration": 0.14285699999999935
        },
        {
          "name": "F#1",
          "midi": 30,
          "time": 16.428554999999967,
          "velocity": 0.7480314960629921,
          "duration": 0.14285699999999935
        },
        {
          "name": "F#1",
          "midi": 30,
          "time": 16.571411999999967,
          "velocity": 0.7480314960629921,
          "duration": 0.14285699999999935
        },
        {
          "name": "F#1",
          "midi": 30,
          "time": 16.714268999999966,
          "velocity": 0.7480314960629921,
          "duration": 0.14285699999999935
        },
        {
          "name": "F#1",
          "midi": 30,
          "time": 16.857125999999965,
          "velocity": 0.7480314960629921,
          "duration": 0.14285699999999935
        },
        {
          "name": "F#1",
          "midi": 30,
          "time": 16.999982999999965,
          "velocity": 0.7480314960629921,
          "duration": 0.14285699999999935
        },
        {
          "name": "F#1",
          "midi": 30,
          "time": 17.142839999999964,
          "velocity": 0.7480314960629921,
          "duration": 0.14285699999999935
        },
        {
          "name": "F#1",
          "midi": 30,
          "time": 17.285696999999963,
          "velocity": 0.7480314960629921,
          "duration": 0.14285699999999935
        },
        {
          "name": "F#1",
          "midi": 30,
          "time": 17.428553999999963,
          "velocity": 0.7480314960629921,
          "duration": 0.14285699999999935
        },
        {
          "name": "F#1",
          "midi": 30,
          "time": 17.571410999999962,
          "velocity": 0.7480314960629921,
          "duration": 0.14285699999999935
        },
        {
          "name": "F#1",
          "midi": 30,
          "time": 17.71426799999996,
          "velocity": 0.7480314960629921,
          "duration": 0.14285699999999935
        },
        {
          "name": "F#1",
          "midi": 30,
          "time": 17.85712499999996,
          "velocity": 0.7480314960629921,
          "duration": 0.14285699999999935
        },
        {
          "name": "F#1",
          "midi": 30,
          "time": 17.99998199999996,
          "velocity": 0.7480314960629921,
          "duration": 0.14285699999999935
        },
        {
          "name": "F#1",
          "midi": 30,
          "time": 18.14283899999996,
          "velocity": 0.7480314960629921,
          "duration": 0.14285699999999935
        },
        {
          "name": "C#2",
          "midi": 37,
          "time": 18.28569599999996,
          "velocity": 0.7480314960629921,
          "duration": 0.2857139999999987
        },
        {
          "name": "C#2",
          "midi": 37,
          "time": 18.571409999999958,
          "velocity": 0.7480314960629921,
          "duration": 0.14285699999999935
        },
        {
          "name": "B1",
          "midi": 35,
          "time": 18.714266999999957,
          "velocity": 0.7480314960629921,
          "duration": 0.2857139999999987
        },
        {
          "name": "B1",
          "midi": 35,
          "time": 18.999980999999956,
          "velocity": 0.7480314960629921,
          "duration": 0.2857139999999987
        },
        {
          "name": "B1",
          "midi": 35,
          "time": 19.285694999999954,
          "velocity": 0.7480314960629921,
          "duration": 0.14285699999999935
        },
        {
          "name": "A1",
          "midi": 33,
          "time": 19.428551999999954,
          "velocity": 0.7480314960629921,
          "duration": 0.2857139999999987
        },
        {
          "name": "A1",
          "midi": 33,
          "time": 19.714265999999952,
          "velocity": 0.7480314960629921,
          "duration": 0.2857139999999987
        },
        {
          "name": "F#1",
          "midi": 30,
          "time": 19.99997999999995,
          "velocity": 0.7480314960629921,
          "duration": 0.2857139999999987
        },
        {
          "name": "F#1",
          "midi": 30,
          "time": 20.28569399999995,
          "velocity": 0.7480314960629921,
          "duration": 0.2857139999999987
        },
        {
          "name": "C#2",
          "midi": 37,
          "time": 20.57140799999995,
          "velocity": 0.7480314960629921,
          "duration": 0.2857139999999987
        },
        {
          "name": "C#2",
          "midi": 37,
          "time": 20.857121999999947,
          "velocity": 0.7480314960629921,
          "duration": 0.14285699999999935
        },
        {
          "name": "B1",
          "midi": 35,
          "time": 20.999978999999946,
          "velocity": 0.7480314960629921,
          "duration": 0.2857139999999987
        },
        {
          "name": "B1",
          "midi": 35,
          "time": 21.285692999999945,
          "velocity": 0.7480314960629921,
          "duration": 0.2857139999999987
        },
        {
          "name": "B1",
          "midi": 35,
          "time": 21.571406999999944,
          "velocity": 0.7480314960629921,
          "duration": 0.14285699999999935
        },
        {
          "name": "A1",
          "midi": 33,
          "time": 21.714263999999943,
          "velocity": 0.7480314960629921,
          "duration": 0.2857139999999987
        },
        {
          "name": "A1",
          "midi": 33,
          "time": 21.999977999999942,
          "velocity": 0.7480314960629921,
          "duration": 0.2857139999999987
        },
        {
          "name": "F#1",
          "midi": 30,
          "time": 22.28569199999994,
          "velocity": 0.7480314960629921,
          "duration": 0.2857139999999987
        },
        {
          "name": "F#1",
          "midi": 30,
          "time": 22.57140599999994,
          "velocity": 0.7480314960629921,
          "duration": 0.2857139999999987
        },
        {
          "name": "C#2",
          "midi": 37,
          "time": 22.857119999999938,
          "velocity": 0.7480314960629921,
          "duration": 0.2857139999999987
        },
        {
          "name": "C#2",
          "midi": 37,
          "time": 23.142833999999937,
          "velocity": 0.7480314960629921,
          "duration": 0.14285699999999935
        },
        {
          "name": "B1",
          "midi": 35,
          "time": 23.285690999999936,
          "velocity": 0.7480314960629921,
          "duration": 0.2857139999999987
        },
        {
          "name": "B1",
          "midi": 35,
          "time": 23.571404999999935,
          "velocity": 0.7480314960629921,
          "duration": 0.2857139999999987
        },
        {
          "name": "B1",
          "midi": 35,
          "time": 23.857118999999933,
          "velocity": 0.7480314960629921,
          "duration": 0.14285699999999935
        },
        {
          "name": "A1",
          "midi": 33,
          "time": 23.999975999999933,
          "velocity": 0.7480314960629921,
          "duration": 0.2857139999999987
        },
        {
          "name": "A1",
          "midi": 33,
          "time": 24.28568999999993,
          "velocity": 0.7480314960629921,
          "duration": 0.2857139999999987
        },
        {
          "name": "F#1",
          "midi": 30,
          "time": 24.57140399999993,
          "velocity": 0.7480314960629921,
          "duration": 0.2857139999999987
        },
        {
          "name": "F#1",
          "midi": 30,
          "time": 24.85711799999993,
          "velocity": 0.7480314960629921,
          "duration": 0.2857139999999987
        },
        {
          "name": "C#2",
          "midi": 37,
          "time": 25.142831999999927,
          "velocity": 0.7480314960629921,
          "duration": 0.2857139999999987
        },
        {
          "name": "C#2",
          "midi": 37,
          "time": 25.428545999999926,
          "velocity": 0.7480314960629921,
          "duration": 0.14285699999999935
        },
        {
          "name": "B1",
          "midi": 35,
          "time": 25.571402999999925,
          "velocity": 0.7480314960629921,
          "duration": 0.2857139999999987
        },
        {
          "name": "B1",
          "midi": 35,
          "time": 25.857116999999924,
          "velocity": 0.7480314960629921,
          "duration": 0.2857139999999987
        },
        {
          "name": "B1",
          "midi": 35,
          "time": 26.142830999999923,
          "velocity": 0.7480314960629921,
          "duration": 0.14285699999999935
        },
        {
          "name": "A1",
          "midi": 33,
          "time": 26.285687999999922,
          "velocity": 0.7480314960629921,
          "duration": 0.2857139999999987
        },
        {
          "name": "A1",
          "midi": 33,
          "time": 26.57140199999992,
          "velocity": 0.7480314960629921,
          "duration": 0.2857139999999987
        },
        {
          "name": "F#1",
          "midi": 30,
          "time": 26.85711599999992,
          "velocity": 0.7480314960629921,
          "duration": 0.2857139999999987
        },
        {
          "name": "C#2",
          "midi": 37,
          "time": 27.428543999999917,
          "velocity": 0.7480314960629921,
          "duration": 0.2857139999999987
        },
        {
          "name": "C#2",
          "midi": 37,
          "time": 27.714257999999916,
          "velocity": 0.7480314960629921,
          "duration": 0.14285699999999935
        },
        {
          "name": "B1",
          "midi": 35,
          "time": 27.857114999999915,
          "velocity": 0.7480314960629921,
          "duration": 0.2857139999999987
        },
        {
          "name": "B1",
          "midi": 35,
          "time": 28.142828999999914,
          "velocity": 0.7480314960629921,
          "duration": 0.2857139999999987
        },
        {
          "name": "B1",
          "midi": 35,
          "time": 28.428542999999912,
          "velocity": 0.7480314960629921,
          "duration": 0.14285699999999935
        },
        {
          "name": "A1",
          "midi": 33,
          "time": 28.57139999999991,
          "velocity": 0.7480314960629921,
          "duration": 0.2857139999999987
        },
        {
          "name": "A1",
          "midi": 33,
          "time": 28.85711399999991,
          "velocity": 0.7480314960629921,
          "duration": 0.2857139999999987
        },
        {
          "name": "F#1",
          "midi": 30,
          "time": 29.14282799999991,
          "velocity": 0.7480314960629921,
          "duration": 0.2857139999999987
        },
        {
          "name": "F#1",
          "midi": 30,
          "time": 29.428541999999908,
          "velocity": 0.7480314960629921,
          "duration": 0.2857139999999987
        },
        {
          "name": "C#2",
          "midi": 37,
          "time": 29.714255999999907,
          "velocity": 0.7480314960629921,
          "duration": 0.2857139999999987
        },
        {
          "name": "C#2",
          "midi": 37,
          "time": 29.999969999999905,
          "velocity": 0.7480314960629921,
          "duration": 0.14285699999999935
        },
        {
          "name": "B1",
          "midi": 35,
          "time": 30.142826999999905,
          "velocity": 0.7480314960629921,
          "duration": 0.2857139999999987
        },
        {
          "name": "B1",
          "midi": 35,
          "time": 30.428540999999903,
          "velocity": 0.7480314960629921,
          "duration": 0.2857139999999987
        },
        {
          "name": "B1",
          "midi": 35,
          "time": 30.714254999999902,
          "velocity": 0.7480314960629921,
          "duration": 0.14285699999999935
        },
        {
          "name": "A1",
          "midi": 33,
          "time": 30.8571119999999,
          "velocity": 0.7480314960629921,
          "duration": 0.2857139999999987
        },
        {
          "name": "A1",
          "midi": 33,
          "time": 31.1428259999999,
          "velocity": 0.7480314960629921,
          "duration": 0.2857139999999987
        },
        {
          "name": "F#1",
          "midi": 30,
          "time": 31.4285399999999,
          "velocity": 0.7480314960629921,
          "duration": 0.2857139999999987
        },
        {
          "name": "F#1",
          "midi": 30,
          "time": 31.714253999999897,
          "velocity": 0.7480314960629921,
          "duration": 0.2857139999999987
        },
        {
          "name": "C#2",
          "midi": 37,
          "time": 31.999967999999896,
          "velocity": 0.7480314960629921,
          "duration": 0.2857139999999987
        },
        {
          "name": "C#2",
          "midi": 37,
          "time": 32.285681999999895,
          "velocity": 0.7480314960629921,
          "duration": 0.14285699999999935
        },
        {
          "name": "B1",
          "midi": 35,
          "time": 32.428538999999894,
          "velocity": 0.7480314960629921,
          "duration": 0.2857139999999987
        },
        {
          "name": "B1",
          "midi": 35,
          "time": 32.71425299999989,
          "velocity": 0.7480314960629921,
          "duration": 0.2857139999999987
        },
        {
          "name": "B1",
          "midi": 35,
          "time": 32.99996699999989,
          "velocity": 0.7480314960629921,
          "duration": 0.14285699999999935
        },
        {
          "name": "A1",
          "midi": 33,
          "time": 33.14282399999989,
          "velocity": 0.7480314960629921,
          "duration": 0.2857139999999987
        },
        {
          "name": "A1",
          "midi": 33,
          "time": 33.42853799999989,
          "velocity": 0.7480314960629921,
          "duration": 0.2857139999999987
        },
        {
          "name": "F#1",
          "midi": 30,
          "time": 33.71425199999989,
          "velocity": 0.7480314960629921,
          "duration": 0.2857139999999987
        },
        {
          "name": "F#1",
          "midi": 30,
          "time": 33.99996599999989,
          "velocity": 0.7480314960629921,
          "duration": 0.2857139999999987
        },
        {
          "name": "C#2",
          "midi": 37,
          "time": 34.285679999999886,
          "velocity": 0.7480314960629921,
          "duration": 0.2857139999999987
        },
        {
          "name": "C#2",
          "midi": 37,
          "time": 34.571393999999884,
          "velocity": 0.7480314960629921,
          "duration": 0.14285699999999935
        },
        {
          "name": "B1",
          "midi": 35,
          "time": 34.714250999999884,
          "velocity": 0.7480314960629921,
          "duration": 0.2857139999999987
        },
        {
          "name": "B1",
          "midi": 35,
          "time": 34.99996499999988,
          "velocity": 0.7480314960629921,
          "duration": 0.2857139999999987
        },
        {
          "name": "B1",
          "midi": 35,
          "time": 35.28567899999988,
          "velocity": 0.7480314960629921,
          "duration": 0.14285699999999935
        },
        {
          "name": "A1",
          "midi": 33,
          "time": 35.42853599999988,
          "velocity": 0.7480314960629921,
          "duration": 0.2857139999999987
        },
        {
          "name": "A1",
          "midi": 33,
          "time": 35.71424999999988,
          "velocity": 0.7480314960629921,
          "duration": 0.2857139999999987
        },
        {
          "name": "F#1",
          "midi": 30,
          "time": 35.99996399999988,
          "velocity": 0.7480314960629921,
          "duration": 0.2857139999999987
        },
        {
          "name": "F#1",
          "midi": 30,
          "time": 36.285677999999876,
          "velocity": 0.7480314960629921,
          "duration": 0.2857139999999987
        },
        {
          "name": "C#2",
          "midi": 37,
          "time": 36.571391999999875,
          "velocity": 0.7480314960629921,
          "duration": 0.2857139999999987
        },
        {
          "name": "C#2",
          "midi": 37,
          "time": 36.857105999999874,
          "velocity": 0.7480314960629921,
          "duration": 0.14285699999999935
        },
        {
          "name": "B1",
          "midi": 35,
          "time": 36.99996299999987,
          "velocity": 0.7480314960629921,
          "duration": 0.2857139999999987
        },
        {
          "name": "B1",
          "midi": 35,
          "time": 37.28567699999987,
          "velocity": 0.7480314960629921,
          "duration": 0.2857139999999987
        },
        {
          "name": "B1",
          "midi": 35,
          "time": 37.57139099999987,
          "velocity": 0.7480314960629921,
          "duration": 0.14285699999999935
        },
        {
          "name": "A1",
          "midi": 33,
          "time": 37.71424799999987,
          "velocity": 0.7480314960629921,
          "duration": 0.2857139999999987
        },
        {
          "name": "A1",
          "midi": 33,
          "time": 37.99996199999987,
          "velocity": 0.7480314960629921,
          "duration": 0.2857139999999987
        },
        {
          "name": "F#1",
          "midi": 30,
          "time": 38.28567599999987,
          "velocity": 0.7480314960629921,
          "duration": 0.2857139999999987
        },
        {
          "name": "F#1",
          "midi": 30,
          "time": 38.571389999999866,
          "velocity": 0.7480314960629921,
          "duration": 0.2857139999999987
        },
        {
          "name": "C#2",
          "midi": 37,
          "time": 38.857103999999865,
          "velocity": 0.7480314960629921,
          "duration": 0.2857139999999987
        },
        {
          "name": "C#2",
          "midi": 37,
          "time": 39.14281799999986,
          "velocity": 0.7480314960629921,
          "duration": 0.14285699999999935
        },
        {
          "name": "B1",
          "midi": 35,
          "time": 39.28567499999986,
          "velocity": 0.7480314960629921,
          "duration": 0.2857139999999987
        },
        {
          "name": "B1",
          "midi": 35,
          "time": 39.57138899999986,
          "velocity": 0.7480314960629921,
          "duration": 0.2857139999999987
        },
        {
          "name": "B1",
          "midi": 35,
          "time": 39.85710299999986,
          "velocity": 0.7480314960629921,
          "duration": 0.14285699999999935
        },
        {
          "name": "A1",
          "midi": 33,
          "time": 39.99995999999986,
          "velocity": 0.7480314960629921,
          "duration": 0.2857139999999987
        },
        {
          "name": "A1",
          "midi": 33,
          "time": 40.28567399999986,
          "velocity": 0.7480314960629921,
          "duration": 0.2857139999999987
        },
        {
          "name": "F#1",
          "midi": 30,
          "time": 40.57138799999986,
          "velocity": 0.7480314960629921,
          "duration": 0.2857139999999987
        },
        {
          "name": "F#1",
          "midi": 30,
          "time": 40.857101999999855,
          "velocity": 0.7480314960629921,
          "duration": 0.2857139999999987
        },
        {
          "name": "C#2",
          "midi": 37,
          "time": 41.142815999999854,
          "velocity": 0.7480314960629921,
          "duration": 0.2857139999999987
        },
        {
          "name": "C#2",
          "midi": 37,
          "time": 41.42852999999985,
          "velocity": 0.7480314960629921,
          "duration": 0.14285699999999935
        },
        {
          "name": "B1",
          "midi": 35,
          "time": 41.57138699999985,
          "velocity": 0.7480314960629921,
          "duration": 0.2857139999999987
        },
        {
          "name": "B1",
          "midi": 35,
          "time": 41.85710099999985,
          "velocity": 0.7480314960629921,
          "duration": 0.2857139999999987
        },
        {
          "name": "B1",
          "midi": 35,
          "time": 42.14281499999985,
          "velocity": 0.7480314960629921,
          "duration": 0.14285699999999935
        },
        {
          "name": "A1",
          "midi": 33,
          "time": 42.28567199999985,
          "velocity": 0.7480314960629921,
          "duration": 0.2857139999999987
        },
        {
          "name": "A1",
          "midi": 33,
          "time": 42.57138599999985,
          "velocity": 0.7480314960629921,
          "duration": 0.2857139999999987
        },
        {
          "name": "F#1",
          "midi": 30,
          "time": 42.857099999999846,
          "velocity": 0.7480314960629921,
          "duration": 0.2857139999999987
        },
        {
          "name": "F#1",
          "midi": 30,
          "time": 43.142813999999845,
          "velocity": 0.7480314960629921,
          "duration": 0.2857139999999987
        },
        {
          "name": "C#2",
          "midi": 37,
          "time": 43.428527999999844,
          "velocity": 0.7480314960629921,
          "duration": 0.2857139999999987
        },
        {
          "name": "C#2",
          "midi": 37,
          "time": 43.71424199999984,
          "velocity": 0.7480314960629921,
          "duration": 0.14285699999999935
        },
        {
          "name": "B1",
          "midi": 35,
          "time": 43.85709899999984,
          "velocity": 0.7480314960629921,
          "duration": 0.2857139999999987
        },
        {
          "name": "B1",
          "midi": 35,
          "time": 44.14281299999984,
          "velocity": 0.7480314960629921,
          "duration": 0.2857139999999987
        },
        {
          "name": "B1",
          "midi": 35,
          "time": 44.42852699999984,
          "velocity": 0.7480314960629921,
          "duration": 0.14285699999999935
        },
        {
          "name": "A1",
          "midi": 33,
          "time": 44.57138399999984,
          "velocity": 0.7480314960629921,
          "duration": 0.2857139999999987
        },
        {
          "name": "A1",
          "midi": 33,
          "time": 44.85709799999984,
          "velocity": 0.7480314960629921,
          "duration": 0.2857139999999987
        },
        {
          "name": "F#1",
          "midi": 30,
          "time": 45.142811999999836,
          "velocity": 0.7480314960629921,
          "duration": 0.2857139999999987
        },
        {
          "name": "F#1",
          "midi": 30,
          "time": 45.428525999999835,
          "velocity": 0.7480314960629921,
          "duration": 0.2857139999999987
        },
        {
          "name": "F#1",
          "midi": 30,
          "time": 45.71423999999983,
          "velocity": 0.7480314960629921,
          "duration": 0.14285699999999935
        },
        {
          "name": "F#1",
          "midi": 30,
          "time": 45.85709699999983,
          "velocity": 0.7480314960629921,
          "duration": 0.14285699999999935
        },
        {
          "name": "F#1",
          "midi": 30,
          "time": 45.99995399999983,
          "velocity": 0.7480314960629921,
          "duration": 0.14285699999999935
        },
        {
          "name": "F#1",
          "midi": 30,
          "time": 46.14281099999983,
          "velocity": 0.7480314960629921,
          "duration": 0.14285699999999935
        },
        {
          "name": "F#1",
          "midi": 30,
          "time": 46.28566799999983,
          "velocity": 0.7480314960629921,
          "duration": 0.14285699999999935
        },
        {
          "name": "F#1",
          "midi": 30,
          "time": 46.42852499999983,
          "velocity": 0.7480314960629921,
          "duration": 0.14285699999999935
        },
        {
          "name": "F#1",
          "midi": 30,
          "time": 46.57138199999983,
          "velocity": 0.7480314960629921,
          "duration": 0.14285699999999935
        },
        {
          "name": "F#1",
          "midi": 30,
          "time": 46.71423899999983,
          "velocity": 0.7480314960629921,
          "duration": 0.14285699999999935
        },
        {
          "name": "F#1",
          "midi": 30,
          "time": 46.85709599999983,
          "velocity": 0.7480314960629921,
          "duration": 0.14285699999999935
        },
        {
          "name": "F#1",
          "midi": 30,
          "time": 46.99995299999983,
          "velocity": 0.7480314960629921,
          "duration": 0.14285699999999935
        },
        {
          "name": "F#1",
          "midi": 30,
          "time": 47.14280999999983,
          "velocity": 0.7480314960629921,
          "duration": 0.14285699999999935
        },
        {
          "name": "F#1",
          "midi": 30,
          "time": 47.285666999999826,
          "velocity": 0.7480314960629921,
          "duration": 0.14285699999999935
        },
        {
          "name": "F#1",
          "midi": 30,
          "time": 47.428523999999825,
          "velocity": 0.7480314960629921,
          "duration": 0.14285699999999935
        },
        {
          "name": "F#1",
          "midi": 30,
          "time": 47.571380999999825,
          "velocity": 0.7480314960629921,
          "duration": 0.14285699999999935
        },
        {
          "name": "F#1",
          "midi": 30,
          "time": 47.714237999999824,
          "velocity": 0.7480314960629921,
          "duration": 0.14285699999999935
        },
        {
          "name": "F#1",
          "midi": 30,
          "time": 47.85709499999982,
          "velocity": 0.7480314960629921,
          "duration": 0.14285699999999935
        },
        {
          "name": "A1",
          "midi": 33,
          "time": 47.99995199999982,
          "velocity": 0.7480314960629921,
          "duration": 0.14285699999999935
        },
        {
          "name": "A1",
          "midi": 33,
          "time": 48.14280899999982,
          "velocity": 0.7480314960629921,
          "duration": 0.14285699999999935
        },
        {
          "name": "A1",
          "midi": 33,
          "time": 48.28566599999982,
          "velocity": 0.7480314960629921,
          "duration": 0.14285699999999935
        },
        {
          "name": "A1",
          "midi": 33,
          "time": 48.42852299999982,
          "velocity": 0.7480314960629921,
          "duration": 0.14285699999999935
        },
        {
          "name": "A1",
          "midi": 33,
          "time": 48.57137999999982,
          "velocity": 0.7480314960629921,
          "duration": 0.14285699999999935
        },
        {
          "name": "A1",
          "midi": 33,
          "time": 48.71423699999982,
          "velocity": 0.7480314960629921,
          "duration": 0.14285699999999935
        },
        {
          "name": "A1",
          "midi": 33,
          "time": 48.85709399999982,
          "velocity": 0.7480314960629921,
          "duration": 0.14285699999999935
        },
        {
          "name": "A1",
          "midi": 33,
          "time": 48.99995099999982,
          "velocity": 0.7480314960629921,
          "duration": 0.14285699999999935
        },
        {
          "name": "A1",
          "midi": 33,
          "time": 49.14280799999982,
          "velocity": 0.7480314960629921,
          "duration": 0.14285699999999935
        },
        {
          "name": "A1",
          "midi": 33,
          "time": 49.28566499999982,
          "velocity": 0.7480314960629921,
          "duration": 0.14285699999999935
        },
        {
          "name": "A1",
          "midi": 33,
          "time": 49.428521999999816,
          "velocity": 0.7480314960629921,
          "duration": 0.14285699999999935
        },
        {
          "name": "A1",
          "midi": 33,
          "time": 49.571378999999816,
          "velocity": 0.7480314960629921,
          "duration": 0.14285699999999935
        },
        {
          "name": "A1",
          "midi": 33,
          "time": 49.714235999999815,
          "velocity": 0.7480314960629921,
          "duration": 0.14285699999999935
        },
        {
          "name": "A1",
          "midi": 33,
          "time": 49.857092999999814,
          "velocity": 0.7480314960629921,
          "duration": 0.14285699999999935
        },
        {
          "name": "A1",
          "midi": 33,
          "time": 49.999949999999814,
          "velocity": 0.7480314960629921,
          "duration": 0.14285699999999935
        },
        {
          "name": "A1",
          "midi": 33,
          "time": 50.14280699999981,
          "velocity": 0.7480314960629921,
          "duration": 0.14285699999999935
        },
        {
          "name": "E2",
          "midi": 40,
          "time": 50.28566399999981,
          "velocity": 0.7480314960629921,
          "duration": 0.14285699999999935
        },
        {
          "name": "E2",
          "midi": 40,
          "time": 50.42852099999981,
          "velocity": 0.7480314960629921,
          "duration": 0.14285699999999935
        },
        {
          "name": "E2",
          "midi": 40,
          "time": 50.57137799999981,
          "velocity": 0.7480314960629921,
          "duration": 0.14285699999999935
        },
        {
          "name": "E2",
          "midi": 40,
          "time": 50.71423499999981,
          "velocity": 0.7480314960629921,
          "duration": 0.14285699999999935
        },
        {
          "name": "E2",
          "midi": 40,
          "time": 50.85709199999981,
          "velocity": 0.7480314960629921,
          "duration": 0.14285699999999935
        },
        {
          "name": "E2",
          "midi": 40,
          "time": 50.99994899999981,
          "velocity": 0.7480314960629921,
          "duration": 0.14285699999999935
        },
        {
          "name": "E2",
          "midi": 40,
          "time": 51.14280599999981,
          "velocity": 0.7480314960629921,
          "duration": 0.14285699999999935
        },
        {
          "name": "E2",
          "midi": 40,
          "time": 51.28566299999981,
          "velocity": 0.7480314960629921,
          "duration": 0.14285699999999935
        },
        {
          "name": "E2",
          "midi": 40,
          "time": 51.42851999999981,
          "velocity": 0.7480314960629921,
          "duration": 0.14285699999999935
        },
        {
          "name": "E2",
          "midi": 40,
          "time": 51.571376999999806,
          "velocity": 0.7480314960629921,
          "duration": 0.14285699999999935
        },
        {
          "name": "E2",
          "midi": 40,
          "time": 51.714233999999806,
          "velocity": 0.7480314960629921,
          "duration": 0.14285699999999935
        },
        {
          "name": "E2",
          "midi": 40,
          "time": 51.857090999999805,
          "velocity": 0.7480314960629921,
          "duration": 0.14285699999999935
        },
        {
          "name": "E2",
          "midi": 40,
          "time": 51.999947999999804,
          "velocity": 0.7480314960629921,
          "duration": 0.14285699999999935
        },
        {
          "name": "E2",
          "midi": 40,
          "time": 52.142804999999804,
          "velocity": 0.7480314960629921,
          "duration": 0.14285699999999935
        },
        {
          "name": "E2",
          "midi": 40,
          "time": 52.2856619999998,
          "velocity": 0.7480314960629921,
          "duration": 0.14285699999999935
        },
        {
          "name": "E2",
          "midi": 40,
          "time": 52.4285189999998,
          "velocity": 0.7480314960629921,
          "duration": 0.14285699999999935
        },
        {
          "name": "F#1",
          "midi": 30,
          "time": 52.5713759999998,
          "velocity": 0.7480314960629921,
          "duration": 0.14285699999999935
        },
        {
          "name": "F#1",
          "midi": 30,
          "time": 52.7142329999998,
          "velocity": 0.7480314960629921,
          "duration": 0.14285699999999935
        },
        {
          "name": "F#1",
          "midi": 30,
          "time": 52.8570899999998,
          "velocity": 0.7480314960629921,
          "duration": 0.14285699999999935
        },
        {
          "name": "F#1",
          "midi": 30,
          "time": 52.9999469999998,
          "velocity": 0.7480314960629921,
          "duration": 0.14285699999999935
        },
        {
          "name": "F#1",
          "midi": 30,
          "time": 53.1428039999998,
          "velocity": 0.7480314960629921,
          "duration": 0.14285699999999935
        },
        {
          "name": "F#1",
          "midi": 30,
          "time": 53.2856609999998,
          "velocity": 0.7480314960629921,
          "duration": 0.14285699999999935
        },
        {
          "name": "F#1",
          "midi": 30,
          "time": 53.4285179999998,
          "velocity": 0.7480314960629921,
          "duration": 0.14285699999999935
        },
        {
          "name": "F#1",
          "midi": 30,
          "time": 53.5713749999998,
          "velocity": 0.7480314960629921,
          "duration": 0.14285699999999935
        },
        {
          "name": "F#1",
          "midi": 30,
          "time": 53.7142319999998,
          "velocity": 0.7480314960629921,
          "duration": 0.14285699999999935
        },
        {
          "name": "F#1",
          "midi": 30,
          "time": 53.857088999999796,
          "velocity": 0.7480314960629921,
          "duration": 0.14285699999999935
        },
        {
          "name": "F#1",
          "midi": 30,
          "time": 53.999945999999795,
          "velocity": 0.7480314960629921,
          "duration": 0.14285699999999935
        },
        {
          "name": "F#1",
          "midi": 30,
          "time": 54.142802999999795,
          "velocity": 0.7480314960629921,
          "duration": 0.14285699999999935
        },
        {
          "name": "F#1",
          "midi": 30,
          "time": 54.285659999999794,
          "velocity": 0.7480314960629921,
          "duration": 0.14285699999999935
        },
        {
          "name": "F#1",
          "midi": 30,
          "time": 54.42851699999979,
          "velocity": 0.7480314960629921,
          "duration": 0.14285699999999935
        },
        {
          "name": "F#1",
          "midi": 30,
          "time": 54.57137399999979,
          "velocity": 0.7480314960629921,
          "duration": 0.14285699999999935
        },
        {
          "name": "F#1",
          "midi": 30,
          "time": 54.71423099999979,
          "velocity": 0.7480314960629921,
          "duration": 0.14285699999999935
        },
        {
          "name": "F#1",
          "midi": 30,
          "time": 54.85708799999979,
          "velocity": 0.7480314960629921,
          "duration": 0.14285699999999935
        },
        {
          "name": "F#1",
          "midi": 30,
          "time": 54.99994499999979,
          "velocity": 0.7480314960629921,
          "duration": 0.14285699999999935
        },
        {
          "name": "F#1",
          "midi": 30,
          "time": 55.14280199999979,
          "velocity": 0.7480314960629921,
          "duration": 0.14285699999999935
        },
        {
          "name": "F#1",
          "midi": 30,
          "time": 55.28565899999979,
          "velocity": 0.7480314960629921,
          "duration": 0.14285699999999935
        },
        {
          "name": "F#1",
          "midi": 30,
          "time": 55.42851599999979,
          "velocity": 0.7480314960629921,
          "duration": 0.14285699999999935
        },
        {
          "name": "F#1",
          "midi": 30,
          "time": 55.57137299999979,
          "velocity": 0.7480314960629921,
          "duration": 0.14285699999999935
        },
        {
          "name": "F#1",
          "midi": 30,
          "time": 55.71422999999979,
          "velocity": 0.7480314960629921,
          "duration": 0.14285699999999935
        },
        {
          "name": "F#1",
          "midi": 30,
          "time": 55.85708699999979,
          "velocity": 0.7480314960629921,
          "duration": 0.14285699999999935
        },
        {
          "name": "F#1",
          "midi": 30,
          "time": 55.999943999999786,
          "velocity": 0.7480314960629921,
          "duration": 0.14285699999999935
        },
        {
          "name": "F#1",
          "midi": 30,
          "time": 56.142800999999785,
          "velocity": 0.7480314960629921,
          "duration": 0.14285699999999935
        },
        {
          "name": "F#1",
          "midi": 30,
          "time": 56.285657999999785,
          "velocity": 0.7480314960629921,
          "duration": 0.14285699999999935
        },
        {
          "name": "F#1",
          "midi": 30,
          "time": 56.428514999999784,
          "velocity": 0.7480314960629921,
          "duration": 0.14285699999999935
        },
        {
          "name": "F#1",
          "midi": 30,
          "time": 56.57137199999978,
          "velocity": 0.7480314960629921,
          "duration": 0.14285699999999935
        },
        {
          "name": "F#1",
          "midi": 30,
          "time": 56.71422899999978,
          "velocity": 0.7480314960629921,
          "duration": 0.14285699999999935
        },
        {
          "name": "F#1",
          "midi": 30,
          "time": 56.85708599999978,
          "velocity": 0.7480314960629921,
          "duration": 0.14285699999999935
        },
        {
          "name": "F#1",
          "midi": 30,
          "time": 56.99994299999978,
          "velocity": 0.7480314960629921,
          "duration": 0.14285699999999935
        },
        {
          "name": "A1",
          "midi": 33,
          "time": 57.14279999999978,
          "velocity": 0.7480314960629921,
          "duration": 0.14285699999999935
        },
        {
          "name": "A1",
          "midi": 33,
          "time": 57.28565699999978,
          "velocity": 0.7480314960629921,
          "duration": 0.14285699999999935
        },
        {
          "name": "A1",
          "midi": 33,
          "time": 57.42851399999978,
          "velocity": 0.7480314960629921,
          "duration": 0.14285699999999935
        },
        {
          "name": "A1",
          "midi": 33,
          "time": 57.57137099999978,
          "velocity": 0.7480314960629921,
          "duration": 0.14285699999999935
        },
        {
          "name": "A1",
          "midi": 33,
          "time": 57.71422799999978,
          "velocity": 0.7480314960629921,
          "duration": 0.14285699999999935
        },
        {
          "name": "A1",
          "midi": 33,
          "time": 57.85708499999978,
          "velocity": 0.7480314960629921,
          "duration": 0.14285699999999935
        },
        {
          "name": "A1",
          "midi": 33,
          "time": 57.99994199999978,
          "velocity": 0.7480314960629921,
          "duration": 0.14285699999999935
        },
        {
          "name": "A1",
          "midi": 33,
          "time": 58.142798999999776,
          "velocity": 0.7480314960629921,
          "duration": 0.14285699999999935
        },
        {
          "name": "A1",
          "midi": 33,
          "time": 58.285655999999776,
          "velocity": 0.7480314960629921,
          "duration": 0.14285699999999935
        },
        {
          "name": "A1",
          "midi": 33,
          "time": 58.428512999999775,
          "velocity": 0.7480314960629921,
          "duration": 0.14285699999999935
        },
        {
          "name": "A1",
          "midi": 33,
          "time": 58.571369999999774,
          "velocity": 0.7480314960629921,
          "duration": 0.14285699999999935
        },
        {
          "name": "A1",
          "midi": 33,
          "time": 58.714226999999774,
          "velocity": 0.7480314960629921,
          "duration": 0.14285699999999935
        },
        {
          "name": "A1",
          "midi": 33,
          "time": 58.85708399999977,
          "velocity": 0.7480314960629921,
          "duration": 0.14285699999999935
        },
        {
          "name": "A1",
          "midi": 33,
          "time": 58.99994099999977,
          "velocity": 0.7480314960629921,
          "duration": 0.14285699999999935
        },
        {
          "name": "A1",
          "midi": 33,
          "time": 59.14279799999977,
          "velocity": 0.7480314960629921,
          "duration": 0.14285699999999935
        },
        {
          "name": "A1",
          "midi": 33,
          "time": 59.28565499999977,
          "velocity": 0.7480314960629921,
          "duration": 0.14285699999999935
        },
        {
          "name": "E2",
          "midi": 40,
          "time": 59.42851199999977,
          "velocity": 0.7480314960629921,
          "duration": 0.14285699999999935
        },
        {
          "name": "E2",
          "midi": 40,
          "time": 59.57136899999977,
          "velocity": 0.7480314960629921,
          "duration": 0.14285699999999935
        },
        {
          "name": "E2",
          "midi": 40,
          "time": 59.71422599999977,
          "velocity": 0.7480314960629921,
          "duration": 0.14285699999999935
        },
        {
          "name": "E2",
          "midi": 40,
          "time": 59.85708299999977,
          "velocity": 0.7480314960629921,
          "duration": 0.14285699999999935
        },
        {
          "name": "E2",
          "midi": 40,
          "time": 59.99993999999977,
          "velocity": 0.7480314960629921,
          "duration": 0.14285699999999935
        },
        {
          "name": "E2",
          "midi": 40,
          "time": 60.14279699999977,
          "velocity": 0.7480314960629921,
          "duration": 0.14285699999999935
        },
        {
          "name": "E2",
          "midi": 40,
          "time": 60.28565399999977,
          "velocity": 0.7480314960629921,
          "duration": 0.14285699999999935
        },
        {
          "name": "E2",
          "midi": 40,
          "time": 60.428510999999766,
          "velocity": 0.7480314960629921,
          "duration": 0.14285699999999935
        },
        {
          "name": "E2",
          "midi": 40,
          "time": 60.571367999999765,
          "velocity": 0.7480314960629921,
          "duration": 0.14285699999999935
        },
        {
          "name": "E2",
          "midi": 40,
          "time": 60.714224999999765,
          "velocity": 0.7480314960629921,
          "duration": 0.14285699999999935
        },
        {
          "name": "E2",
          "midi": 40,
          "time": 60.857081999999764,
          "velocity": 0.7480314960629921,
          "duration": 0.14285699999999935
        },
        {
          "name": "E2",
          "midi": 40,
          "time": 60.99993899999976,
          "velocity": 0.7480314960629921,
          "duration": 0.14285699999999935
        },
        {
          "name": "E2",
          "midi": 40,
          "time": 61.14279599999976,
          "velocity": 0.7480314960629921,
          "duration": 0.14285699999999935
        },
        {
          "name": "E2",
          "midi": 40,
          "time": 61.28565299999976,
          "velocity": 0.7480314960629921,
          "duration": 0.14285699999999935
        },
        {
          "name": "E2",
          "midi": 40,
          "time": 61.42850999999976,
          "velocity": 0.7480314960629921,
          "duration": 0.14285699999999935
        },
        {
          "name": "E2",
          "midi": 40,
          "time": 61.57136699999976,
          "velocity": 0.7480314960629921,
          "duration": 0.14285699999999935
        },
        {
          "name": "C#2",
          "midi": 37,
          "time": 61.71422399999976,
          "velocity": 0.7480314960629921,
          "duration": 0.14285699999999935
        },
        {
          "name": "C#2",
          "midi": 37,
          "time": 61.85708099999976,
          "velocity": 0.7480314960629921,
          "duration": 0.14285699999999935
        },
        {
          "name": "C#2",
          "midi": 37,
          "time": 61.99993799999976,
          "velocity": 0.7480314960629921,
          "duration": 0.14285699999999935
        },
        {
          "name": "C#2",
          "midi": 37,
          "time": 62.14279499999976,
          "velocity": 0.7480314960629921,
          "duration": 0.14285699999999935
        },
        {
          "name": "C#2",
          "midi": 37,
          "time": 62.28565199999976,
          "velocity": 0.7480314960629921,
          "duration": 0.14285699999999935
        },
        {
          "name": "C#2",
          "midi": 37,
          "time": 62.42850899999976,
          "velocity": 0.7480314960629921,
          "duration": 0.14285699999999935
        },
        {
          "name": "C#2",
          "midi": 37,
          "time": 62.571365999999756,
          "velocity": 0.7480314960629921,
          "duration": 0.14285699999999935
        },
        {
          "name": "C#2",
          "midi": 37,
          "time": 62.714222999999755,
          "velocity": 0.7480314960629921,
          "duration": 0.14285699999999935
        },
        {
          "name": "C#2",
          "midi": 37,
          "time": 62.857079999999755,
          "velocity": 0.7480314960629921,
          "duration": 0.14285699999999935
        },
        {
          "name": "C#2",
          "midi": 37,
          "time": 62.999936999999754,
          "velocity": 0.7480314960629921,
          "duration": 0.14285699999999935
        },
        {
          "name": "C#2",
          "midi": 37,
          "time": 63.14279399999975,
          "velocity": 0.7480314960629921,
          "duration": 0.14285699999999935
        },
        {
          "name": "C#2",
          "midi": 37,
          "time": 63.28565099999975,
          "velocity": 0.7480314960629921,
          "duration": 0.14285699999999935
        },
        {
          "name": "C#2",
          "midi": 37,
          "time": 63.42850799999975,
          "velocity": 0.7480314960629921,
          "duration": 0.14285699999999935
        },
        {
          "name": "C#2",
          "midi": 37,
          "time": 63.57136499999975,
          "velocity": 0.7480314960629921,
          "duration": 0.14285699999999935
        },
        {
          "name": "C#2",
          "midi": 37,
          "time": 63.71422199999975,
          "velocity": 0.7480314960629921,
          "duration": 0.14285699999999935
        },
        {
          "name": "C#2",
          "midi": 37,
          "time": 63.85707899999975,
          "velocity": 0.7480314960629921,
          "duration": 0.14285699999999935
        },
        {
          "name": "C#2",
          "midi": 37,
          "time": 63.99993599999975,
          "velocity": 0.7480314960629921,
          "duration": 0.2857139999999987
        },
        {
          "name": "C#2",
          "midi": 37,
          "time": 64.28564999999975,
          "velocity": 0.7480314960629921,
          "duration": 0.14285700000000645
        },
        {
          "name": "B1",
          "midi": 35,
          "time": 64.42850699999975,
          "velocity": 0.7480314960629921,
          "duration": 0.2857139999999987
        },
        {
          "name": "B1",
          "midi": 35,
          "time": 64.71422099999975,
          "velocity": 0.7480314960629921,
          "duration": 0.2857139999999987
        },
        {
          "name": "B1",
          "midi": 35,
          "time": 64.99993499999975,
          "velocity": 0.7480314960629921,
          "duration": 0.14285700000000645
        },
        {
          "name": "A1",
          "midi": 33,
          "time": 65.14279199999976,
          "velocity": 0.7480314960629921,
          "duration": 0.2857139999999987
        },
        {
          "name": "A1",
          "midi": 33,
          "time": 65.42850599999976,
          "velocity": 0.7480314960629921,
          "duration": 0.2857139999999987
        },
        {
          "name": "F#1",
          "midi": 30,
          "time": 65.71421999999976,
          "velocity": 0.7480314960629921,
          "duration": 0.2857139999999987
        },
        {
          "name": "F#1",
          "midi": 30,
          "time": 65.99993399999975,
          "velocity": 0.7480314960629921,
          "duration": 0.2857139999999987
        },
        {
          "name": "C#2",
          "midi": 37,
          "time": 66.28564799999975,
          "velocity": 0.7480314960629921,
          "duration": 0.2857139999999987
        },
        {
          "name": "C#2",
          "midi": 37,
          "time": 66.57136199999975,
          "velocity": 0.7480314960629921,
          "duration": 0.14285700000000645
        },
        {
          "name": "B1",
          "midi": 35,
          "time": 66.71421899999976,
          "velocity": 0.7480314960629921,
          "duration": 0.2857139999999987
        },
        {
          "name": "B1",
          "midi": 35,
          "time": 66.99993299999976,
          "velocity": 0.7480314960629921,
          "duration": 0.2857139999999987
        },
        {
          "name": "B1",
          "midi": 35,
          "time": 67.28564699999976,
          "velocity": 0.7480314960629921,
          "duration": 0.14285700000000645
        },
        {
          "name": "A1",
          "midi": 33,
          "time": 67.42850399999976,
          "velocity": 0.7480314960629921,
          "duration": 0.2857139999999987
        },
        {
          "name": "A1",
          "midi": 33,
          "time": 67.71421799999976,
          "velocity": 0.7480314960629921,
          "duration": 0.2857139999999987
        },
        {
          "name": "F#1",
          "midi": 30,
          "time": 67.99993199999976,
          "velocity": 0.7480314960629921,
          "duration": 0.2857139999999987
        },
        {
          "name": "F#1",
          "midi": 30,
          "time": 68.28564599999976,
          "velocity": 0.7480314960629921,
          "duration": 0.2857139999999987
        },
        {
          "name": "C#2",
          "midi": 37,
          "time": 68.57135999999976,
          "velocity": 0.7480314960629921,
          "duration": 0.2857139999999987
        },
        {
          "name": "C#2",
          "midi": 37,
          "time": 68.85707399999976,
          "velocity": 0.7480314960629921,
          "duration": 0.14285700000000645
        },
        {
          "name": "B1",
          "midi": 35,
          "time": 68.99993099999976,
          "velocity": 0.7480314960629921,
          "duration": 0.2857139999999987
        },
        {
          "name": "B1",
          "midi": 35,
          "time": 69.28564499999976,
          "velocity": 0.7480314960629921,
          "duration": 0.2857139999999987
        },
        {
          "name": "B1",
          "midi": 35,
          "time": 69.57135899999976,
          "velocity": 0.7480314960629921,
          "duration": 0.14285700000000645
        },
        {
          "name": "A1",
          "midi": 33,
          "time": 69.71421599999977,
          "velocity": 0.7480314960629921,
          "duration": 0.2857139999999987
        },
        {
          "name": "A1",
          "midi": 33,
          "time": 69.99992999999976,
          "velocity": 0.7480314960629921,
          "duration": 0.2857139999999987
        },
        {
          "name": "F#1",
          "midi": 30,
          "time": 70.28564399999976,
          "velocity": 0.7480314960629921,
          "duration": 0.2857139999999987
        },
        {
          "name": "F#1",
          "midi": 30,
          "time": 70.57135799999976,
          "velocity": 0.7480314960629921,
          "duration": 0.2857139999999987
        },
        {
          "name": "C#2",
          "midi": 37,
          "time": 70.85707199999976,
          "velocity": 0.7480314960629921,
          "duration": 0.2857139999999987
        },
        {
          "name": "C#2",
          "midi": 37,
          "time": 71.14278599999976,
          "velocity": 0.7480314960629921,
          "duration": 0.14285700000000645
        },
        {
          "name": "B1",
          "midi": 35,
          "time": 71.28564299999977,
          "velocity": 0.7480314960629921,
          "duration": 0.2857139999999987
        },
        {
          "name": "B1",
          "midi": 35,
          "time": 71.57135699999976,
          "velocity": 0.7480314960629921,
          "duration": 0.2857139999999987
        },
        {
          "name": "B1",
          "midi": 35,
          "time": 71.85707099999976,
          "velocity": 0.7480314960629921,
          "duration": 0.14285700000000645
        },
        {
          "name": "A1",
          "midi": 33,
          "time": 71.99992799999977,
          "velocity": 0.7480314960629921,
          "duration": 0.2857139999999987
        },
        {
          "name": "A1",
          "midi": 33,
          "time": 72.28564199999977,
          "velocity": 0.7480314960629921,
          "duration": 0.2857139999999987
        },
        {
          "name": "F#1",
          "midi": 30,
          "time": 72.57135599999977,
          "velocity": 0.7480314960629921,
          "duration": 0.2857139999999987
        },
        {
          "name": "C#2",
          "midi": 37,
          "time": 73.14278399999976,
          "velocity": 0.7480314960629921,
          "duration": 0.2857139999999987
        },
        {
          "name": "C#2",
          "midi": 37,
          "time": 73.42849799999976,
          "velocity": 0.7480314960629921,
          "duration": 0.14285700000000645
        },
        {
          "name": "B1",
          "midi": 35,
          "time": 73.57135499999977,
          "velocity": 0.7480314960629921,
          "duration": 0.2857139999999987
        },
        {
          "name": "B1",
          "midi": 35,
          "time": 73.85706899999977,
          "velocity": 0.7480314960629921,
          "duration": 0.2857139999999987
        },
        {
          "name": "B1",
          "midi": 35,
          "time": 74.14278299999977,
          "velocity": 0.7480314960629921,
          "duration": 0.14285700000000645
        },
        {
          "name": "A1",
          "midi": 33,
          "time": 74.28563999999977,
          "velocity": 0.7480314960629921,
          "duration": 0.2857139999999987
        },
        {
          "name": "A1",
          "midi": 33,
          "time": 74.57135399999977,
          "velocity": 0.7480314960629921,
          "duration": 0.2857139999999987
        },
        {
          "name": "F#1",
          "midi": 30,
          "time": 74.85706799999977,
          "velocity": 0.7480314960629921,
          "duration": 0.2857139999999987
        },
        {
          "name": "F#1",
          "midi": 30,
          "time": 75.14278199999977,
          "velocity": 0.7480314960629921,
          "duration": 0.2857139999999987
        },
        {
          "name": "C#2",
          "midi": 37,
          "time": 75.42849599999977,
          "velocity": 0.7480314960629921,
          "duration": 0.2857139999999987
        },
        {
          "name": "C#2",
          "midi": 37,
          "time": 75.71420999999977,
          "velocity": 0.7480314960629921,
          "duration": 0.14285700000000645
        },
        {
          "name": "B1",
          "midi": 35,
          "time": 75.85706699999977,
          "velocity": 0.7480314960629921,
          "duration": 0.2857139999999987
        },
        {
          "name": "B1",
          "midi": 35,
          "time": 76.14278099999977,
          "velocity": 0.7480314960629921,
          "duration": 0.2857139999999987
        },
        {
          "name": "B1",
          "midi": 35,
          "time": 76.42849499999977,
          "velocity": 0.7480314960629921,
          "duration": 0.14285700000000645
        },
        {
          "name": "A1",
          "midi": 33,
          "time": 76.57135199999978,
          "velocity": 0.7480314960629921,
          "duration": 0.2857139999999987
        },
        {
          "name": "A1",
          "midi": 33,
          "time": 76.85706599999978,
          "velocity": 0.7480314960629921,
          "duration": 0.2857139999999987
        },
        {
          "name": "F#1",
          "midi": 30,
          "time": 77.14277999999977,
          "velocity": 0.7480314960629921,
          "duration": 0.2857139999999987
        },
        {
          "name": "F#1",
          "midi": 30,
          "time": 77.42849399999977,
          "velocity": 0.7480314960629921,
          "duration": 0.2857139999999987
        },
        {
          "name": "C#2",
          "midi": 37,
          "time": 77.71420799999977,
          "velocity": 0.7480314960629921,
          "duration": 0.2857139999999987
        },
        {
          "name": "C#2",
          "midi": 37,
          "time": 77.99992199999977,
          "velocity": 0.7480314960629921,
          "duration": 0.14285700000000645
        },
        {
          "name": "B1",
          "midi": 35,
          "time": 78.14277899999978,
          "velocity": 0.7480314960629921,
          "duration": 0.2857139999999987
        },
        {
          "name": "B1",
          "midi": 35,
          "time": 78.42849299999978,
          "velocity": 0.7480314960629921,
          "duration": 0.2857139999999987
        },
        {
          "name": "B1",
          "midi": 35,
          "time": 78.71420699999977,
          "velocity": 0.7480314960629921,
          "duration": 0.14285700000000645
        },
        {
          "name": "A1",
          "midi": 33,
          "time": 78.85706399999978,
          "velocity": 0.7480314960629921,
          "duration": 0.2857139999999987
        },
        {
          "name": "A1",
          "midi": 33,
          "time": 79.14277799999978,
          "velocity": 0.7480314960629921,
          "duration": 0.2857139999999987
        },
        {
          "name": "F#1",
          "midi": 30,
          "time": 79.42849199999978,
          "velocity": 0.7480314960629921,
          "duration": 0.2857139999999987
        },
        {
          "name": "F#1",
          "midi": 30,
          "time": 79.71420599999978,
          "velocity": 0.7480314960629921,
          "duration": 0.2857139999999987
        },
        {
          "name": "C#2",
          "midi": 37,
          "time": 79.99991999999978,
          "velocity": 0.7480314960629921,
          "duration": 0.2857139999999987
        },
        {
          "name": "C#2",
          "midi": 37,
          "time": 80.28563399999977,
          "velocity": 0.7480314960629921,
          "duration": 0.14285700000000645
        },
        {
          "name": "B1",
          "midi": 35,
          "time": 80.42849099999978,
          "velocity": 0.7480314960629921,
          "duration": 0.2857139999999987
        },
        {
          "name": "B1",
          "midi": 35,
          "time": 80.71420499999978,
          "velocity": 0.7480314960629921,
          "duration": 0.2857139999999987
        },
        {
          "name": "B1",
          "midi": 35,
          "time": 80.99991899999978,
          "velocity": 0.7480314960629921,
          "duration": 0.14285700000000645
        },
        {
          "name": "A1",
          "midi": 33,
          "time": 81.14277599999978,
          "velocity": 0.7480314960629921,
          "duration": 0.2857139999999987
        },
        {
          "name": "A1",
          "midi": 33,
          "time": 81.42848999999978,
          "velocity": 0.7480314960629921,
          "duration": 0.2857139999999987
        },
        {
          "name": "F#1",
          "midi": 30,
          "time": 81.71420399999978,
          "velocity": 0.7480314960629921,
          "duration": 0.2857139999999987
        },
        {
          "name": "F#1",
          "midi": 30,
          "time": 81.99991799999978,
          "velocity": 0.7480314960629921,
          "duration": 0.2857139999999987
        },
        {
          "name": "C#2",
          "midi": 37,
          "time": 82.28563199999978,
          "velocity": 0.7480314960629921,
          "duration": 0.2857139999999987
        },
        {
          "name": "C#2",
          "midi": 37,
          "time": 82.57134599999978,
          "velocity": 0.7480314960629921,
          "duration": 0.14285700000000645
        },
        {
          "name": "B1",
          "midi": 35,
          "time": 82.71420299999978,
          "velocity": 0.7480314960629921,
          "duration": 0.2857139999999987
        },
        {
          "name": "B1",
          "midi": 35,
          "time": 82.99991699999978,
          "velocity": 0.7480314960629921,
          "duration": 0.2857139999999987
        },
        {
          "name": "B1",
          "midi": 35,
          "time": 83.28563099999978,
          "velocity": 0.7480314960629921,
          "duration": 0.14285700000000645
        },
        {
          "name": "A1",
          "midi": 33,
          "time": 83.42848799999979,
          "velocity": 0.7480314960629921,
          "duration": 0.2857139999999987
        },
        {
          "name": "A1",
          "midi": 33,
          "time": 83.71420199999979,
          "velocity": 0.7480314960629921,
          "duration": 0.2857139999999987
        },
        {
          "name": "F#1",
          "midi": 30,
          "time": 83.99991599999979,
          "velocity": 0.7480314960629921,
          "duration": 0.2857139999999987
        },
        {
          "name": "F#1",
          "midi": 30,
          "time": 84.28562999999978,
          "velocity": 0.7480314960629921,
          "duration": 0.2857139999999987
        },
        {
          "name": "C#2",
          "midi": 37,
          "time": 84.57134399999978,
          "velocity": 0.7480314960629921,
          "duration": 0.2857139999999987
        },
        {
          "name": "C#2",
          "midi": 37,
          "time": 84.85705799999978,
          "velocity": 0.7480314960629921,
          "duration": 0.14285700000000645
        },
        {
          "name": "B1",
          "midi": 35,
          "time": 84.99991499999979,
          "velocity": 0.7480314960629921,
          "duration": 0.2857139999999987
        },
        {
          "name": "B1",
          "midi": 35,
          "time": 85.28562899999979,
          "velocity": 0.7480314960629921,
          "duration": 0.2857139999999987
        },
        {
          "name": "B1",
          "midi": 35,
          "time": 85.57134299999979,
          "velocity": 0.7480314960629921,
          "duration": 0.14285700000000645
        },
        {
          "name": "A1",
          "midi": 33,
          "time": 85.71419999999979,
          "velocity": 0.7480314960629921,
          "duration": 0.2857139999999987
        },
        {
          "name": "A1",
          "midi": 33,
          "time": 85.99991399999979,
          "velocity": 0.7480314960629921,
          "duration": 0.2857139999999987
        },
        {
          "name": "F#1",
          "midi": 30,
          "time": 86.28562799999979,
          "velocity": 0.7480314960629921,
          "duration": 0.2857139999999987
        },
        {
          "name": "F#1",
          "midi": 30,
          "time": 86.57134199999979,
          "velocity": 0.7480314960629921,
          "duration": 0.2857139999999987
        },
        {
          "name": "C#2",
          "midi": 37,
          "time": 86.85705599999979,
          "velocity": 0.7480314960629921,
          "duration": 0.2857139999999987
        },
        {
          "name": "C#2",
          "midi": 37,
          "time": 87.14276999999979,
          "velocity": 0.7480314960629921,
          "duration": 0.14285700000000645
        },
        {
          "name": "B1",
          "midi": 35,
          "time": 87.28562699999979,
          "velocity": 0.7480314960629921,
          "duration": 0.2857139999999987
        },
        {
          "name": "B1",
          "midi": 35,
          "time": 87.57134099999979,
          "velocity": 0.7480314960629921,
          "duration": 0.2857139999999987
        },
        {
          "name": "B1",
          "midi": 35,
          "time": 87.85705499999979,
          "velocity": 0.7480314960629921,
          "duration": 0.14285700000000645
        },
        {
          "name": "A1",
          "midi": 33,
          "time": 87.9999119999998,
          "velocity": 0.7480314960629921,
          "duration": 0.2857139999999987
        },
        {
          "name": "A1",
          "midi": 33,
          "time": 88.2856259999998,
          "velocity": 0.7480314960629921,
          "duration": 0.2857139999999987
        },
        {
          "name": "F#1",
          "midi": 30,
          "time": 88.5713399999998,
          "velocity": 0.7480314960629921,
          "duration": 0.2857139999999987
        },
        {
          "name": "F#1",
          "midi": 30,
          "time": 88.85705399999979,
          "velocity": 0.7480314960629921,
          "duration": 0.2857139999999987
        },
        {
          "name": "C#2",
          "midi": 37,
          "time": 89.14276799999979,
          "velocity": 0.7480314960629921,
          "duration": 0.2857139999999987
        },
        {
          "name": "C#2",
          "midi": 37,
          "time": 89.42848199999979,
          "velocity": 0.7480314960629921,
          "duration": 0.14285700000000645
        },
        {
          "name": "B1",
          "midi": 35,
          "time": 89.5713389999998,
          "velocity": 0.7480314960629921,
          "duration": 0.2857139999999987
        },
        {
          "name": "B1",
          "midi": 35,
          "time": 89.8570529999998,
          "velocity": 0.7480314960629921,
          "duration": 0.2857139999999987
        },
        {
          "name": "B1",
          "midi": 35,
          "time": 90.1427669999998,
          "velocity": 0.7480314960629921,
          "duration": 0.14285700000000645
        },
        {
          "name": "A1",
          "midi": 33,
          "time": 90.2856239999998,
          "velocity": 0.7480314960629921,
          "duration": 0.2857139999999987
        },
        {
          "name": "A1",
          "midi": 33,
          "time": 90.5713379999998,
          "velocity": 0.7480314960629921,
          "duration": 0.2857139999999987
        },
        {
          "name": "F#1",
          "midi": 30,
          "time": 90.8570519999998,
          "velocity": 0.7480314960629921,
          "duration": 0.2857139999999987
        },
        {
          "name": "F#1",
          "midi": 30,
          "time": 91.1427659999998,
          "velocity": 0.7480314960629921,
          "duration": 0.2857139999999987
        },
        {
          "name": "F#1",
          "midi": 30,
          "time": 91.4284799999998,
          "velocity": 0.7480314960629921,
          "duration": 0.14285700000000645
        },
        {
          "name": "F#1",
          "midi": 30,
          "time": 91.5713369999998,
          "velocity": 0.7480314960629921,
          "duration": 0.14285700000000645
        },
        {
          "name": "F#1",
          "midi": 30,
          "time": 91.71419399999981,
          "velocity": 0.7480314960629921,
          "duration": 0.14285700000000645
        },
        {
          "name": "F#1",
          "midi": 30,
          "time": 91.85705099999981,
          "velocity": 0.7480314960629921,
          "duration": 0.14285700000000645
        },
        {
          "name": "F#1",
          "midi": 30,
          "time": 91.99990799999982,
          "velocity": 0.7480314960629921,
          "duration": 0.14285700000000645
        },
        {
          "name": "F#1",
          "midi": 30,
          "time": 92.14276499999983,
          "velocity": 0.7480314960629921,
          "duration": 0.14285700000000645
        },
        {
          "name": "F#1",
          "midi": 30,
          "time": 92.28562199999983,
          "velocity": 0.7480314960629921,
          "duration": 0.14285700000000645
        },
        {
          "name": "F#1",
          "midi": 30,
          "time": 92.42847899999984,
          "velocity": 0.7480314960629921,
          "duration": 0.14285700000000645
        },
        {
          "name": "F#1",
          "midi": 30,
          "time": 92.57133599999985,
          "velocity": 0.7480314960629921,
          "duration": 0.14285700000000645
        },
        {
          "name": "F#1",
          "midi": 30,
          "time": 92.71419299999985,
          "velocity": 0.7480314960629921,
          "duration": 0.14285700000000645
        },
        {
          "name": "F#1",
          "midi": 30,
          "time": 92.85704999999986,
          "velocity": 0.7480314960629921,
          "duration": 0.14285700000000645
        },
        {
          "name": "F#1",
          "midi": 30,
          "time": 92.99990699999987,
          "velocity": 0.7480314960629921,
          "duration": 0.14285700000000645
        },
        {
          "name": "F#1",
          "midi": 30,
          "time": 93.14276399999987,
          "velocity": 0.7480314960629921,
          "duration": 0.14285700000000645
        },
        {
          "name": "F#1",
          "midi": 30,
          "time": 93.28562099999988,
          "velocity": 0.7480314960629921,
          "duration": 0.14285700000000645
        },
        {
          "name": "F#1",
          "midi": 30,
          "time": 93.42847799999988,
          "velocity": 0.7480314960629921,
          "duration": 0.14285700000000645
        },
        {
          "name": "F#1",
          "midi": 30,
          "time": 93.57133499999989,
          "velocity": 0.7480314960629921,
          "duration": 0.14285700000000645
        },
        {
          "name": "A1",
          "midi": 33,
          "time": 93.7141919999999,
          "velocity": 0.7480314960629921,
          "duration": 0.14285700000000645
        },
        {
          "name": "A1",
          "midi": 33,
          "time": 93.8570489999999,
          "velocity": 0.7480314960629921,
          "duration": 0.14285700000000645
        },
        {
          "name": "A1",
          "midi": 33,
          "time": 93.99990599999991,
          "velocity": 0.7480314960629921,
          "duration": 0.14285700000000645
        },
        {
          "name": "A1",
          "midi": 33,
          "time": 94.14276299999992,
          "velocity": 0.7480314960629921,
          "duration": 0.14285700000000645
        },
        {
          "name": "A1",
          "midi": 33,
          "time": 94.28561999999992,
          "velocity": 0.7480314960629921,
          "duration": 0.14285700000000645
        },
        {
          "name": "A1",
          "midi": 33,
          "time": 94.42847699999993,
          "velocity": 0.7480314960629921,
          "duration": 0.14285700000000645
        },
        {
          "name": "A1",
          "midi": 33,
          "time": 94.57133399999994,
          "velocity": 0.7480314960629921,
          "duration": 0.14285700000000645
        },
        {
          "name": "A1",
          "midi": 33,
          "time": 94.71419099999994,
          "velocity": 0.7480314960629921,
          "duration": 0.14285700000000645
        },
        {
          "name": "A1",
          "midi": 33,
          "time": 94.85704799999995,
          "velocity": 0.7480314960629921,
          "duration": 0.14285700000000645
        },
        {
          "name": "A1",
          "midi": 33,
          "time": 94.99990499999996,
          "velocity": 0.7480314960629921,
          "duration": 0.14285700000000645
        },
        {
          "name": "A1",
          "midi": 33,
          "time": 95.14276199999996,
          "velocity": 0.7480314960629921,
          "duration": 0.14285700000000645
        },
        {
          "name": "A1",
          "midi": 33,
          "time": 95.28561899999997,
          "velocity": 0.7480314960629921,
          "duration": 0.14285700000000645
        },
        {
          "name": "A1",
          "midi": 33,
          "time": 95.42847599999997,
          "velocity": 0.7480314960629921,
          "duration": 0.14285700000000645
        },
        {
          "name": "A1",
          "midi": 33,
          "time": 95.57133299999998,
          "velocity": 0.7480314960629921,
          "duration": 0.14285700000000645
        },
        {
          "name": "A1",
          "midi": 33,
          "time": 95.71418999999999,
          "velocity": 0.7480314960629921,
          "duration": 0.14285700000000645
        },
        {
          "name": "A1",
          "midi": 33,
          "time": 95.857047,
          "velocity": 0.7480314960629921,
          "duration": 0.14285700000000645
        },
        {
          "name": "E2",
          "midi": 40,
          "time": 95.999904,
          "velocity": 0.7480314960629921,
          "duration": 0.14285700000000645
        },
        {
          "name": "E2",
          "midi": 40,
          "time": 96.14276100000001,
          "velocity": 0.7480314960629921,
          "duration": 0.14285700000000645
        },
        {
          "name": "E2",
          "midi": 40,
          "time": 96.28561800000001,
          "velocity": 0.7480314960629921,
          "duration": 0.14285700000000645
        },
        {
          "name": "E2",
          "midi": 40,
          "time": 96.42847500000002,
          "velocity": 0.7480314960629921,
          "duration": 0.14285700000000645
        },
        {
          "name": "E2",
          "midi": 40,
          "time": 96.57133200000003,
          "velocity": 0.7480314960629921,
          "duration": 0.14285700000000645
        },
        {
          "name": "E2",
          "midi": 40,
          "time": 96.71418900000003,
          "velocity": 0.7480314960629921,
          "duration": 0.14285700000000645
        },
        {
          "name": "E2",
          "midi": 40,
          "time": 96.85704600000004,
          "velocity": 0.7480314960629921,
          "duration": 0.14285700000000645
        },
        {
          "name": "E2",
          "midi": 40,
          "time": 96.99990300000005,
          "velocity": 0.7480314960629921,
          "duration": 0.14285700000000645
        },
        {
          "name": "E2",
          "midi": 40,
          "time": 97.14276000000005,
          "velocity": 0.7480314960629921,
          "duration": 0.14285700000000645
        },
        {
          "name": "E2",
          "midi": 40,
          "time": 97.28561700000006,
          "velocity": 0.7480314960629921,
          "duration": 0.14285700000000645
        },
        {
          "name": "E2",
          "midi": 40,
          "time": 97.42847400000007,
          "velocity": 0.7480314960629921,
          "duration": 0.14285700000000645
        },
        {
          "name": "E2",
          "midi": 40,
          "time": 97.57133100000007,
          "velocity": 0.7480314960629921,
          "duration": 0.14285700000000645
        },
        {
          "name": "E2",
          "midi": 40,
          "time": 97.71418800000008,
          "velocity": 0.7480314960629921,
          "duration": 0.14285700000000645
        },
        {
          "name": "E2",
          "midi": 40,
          "time": 97.85704500000008,
          "velocity": 0.7480314960629921,
          "duration": 0.14285700000000645
        },
        {
          "name": "E2",
          "midi": 40,
          "time": 97.99990200000009,
          "velocity": 0.7480314960629921,
          "duration": 0.14285700000000645
        },
        {
          "name": "E2",
          "midi": 40,
          "time": 98.1427590000001,
          "velocity": 0.7480314960629921,
          "duration": 0.14285700000000645
        },
        {
          "name": "F#1",
          "midi": 30,
          "time": 98.2856160000001,
          "velocity": 0.7480314960629921,
          "duration": 0.14285700000000645
        },
        {
          "name": "F#1",
          "midi": 30,
          "time": 98.42847300000011,
          "velocity": 0.7480314960629921,
          "duration": 0.14285700000000645
        },
        {
          "name": "F#1",
          "midi": 30,
          "time": 98.57133000000012,
          "velocity": 0.7480314960629921,
          "duration": 0.14285700000000645
        },
        {
          "name": "F#1",
          "midi": 30,
          "time": 98.71418700000012,
          "velocity": 0.7480314960629921,
          "duration": 0.14285700000000645
        },
        {
          "name": "F#1",
          "midi": 30,
          "time": 98.85704400000013,
          "velocity": 0.7480314960629921,
          "duration": 0.14285700000000645
        },
        {
          "name": "F#1",
          "midi": 30,
          "time": 98.99990100000014,
          "velocity": 0.7480314960629921,
          "duration": 0.14285700000000645
        },
        {
          "name": "F#1",
          "midi": 30,
          "time": 99.14275800000014,
          "velocity": 0.7480314960629921,
          "duration": 0.14285700000000645
        },
        {
          "name": "F#1",
          "midi": 30,
          "time": 99.28561500000015,
          "velocity": 0.7480314960629921,
          "duration": 0.14285700000000645
        },
        {
          "name": "F#1",
          "midi": 30,
          "time": 99.42847200000016,
          "velocity": 0.7480314960629921,
          "duration": 0.14285700000000645
        },
        {
          "name": "F#1",
          "midi": 30,
          "time": 99.57132900000016,
          "velocity": 0.7480314960629921,
          "duration": 0.14285700000000645
        },
        {
          "name": "F#1",
          "midi": 30,
          "time": 99.71418600000017,
          "velocity": 0.7480314960629921,
          "duration": 0.14285700000000645
        },
        {
          "name": "F#1",
          "midi": 30,
          "time": 99.85704300000017,
          "velocity": 0.7480314960629921,
          "duration": 0.14285700000000645
        },
        {
          "name": "F#1",
          "midi": 30,
          "time": 99.99990000000018,
          "velocity": 0.7480314960629921,
          "duration": 0.14285700000000645
        },
        {
          "name": "F#1",
          "midi": 30,
          "time": 100.14275700000019,
          "velocity": 0.7480314960629921,
          "duration": 0.14285700000000645
        },
        {
          "name": "F#1",
          "midi": 30,
          "time": 100.2856140000002,
          "velocity": 0.7480314960629921,
          "duration": 0.14285700000000645
        },
        {
          "name": "F#1",
          "midi": 30,
          "time": 100.4284710000002,
          "velocity": 0.7480314960629921,
          "duration": 0.14285700000000645
        },
        {
          "name": "F#1",
          "midi": 30,
          "time": 100.57132800000021,
          "velocity": 0.7480314960629921,
          "duration": 0.14285700000000645
        },
        {
          "name": "F#1",
          "midi": 30,
          "time": 100.71418500000021,
          "velocity": 0.7480314960629921,
          "duration": 0.14285700000000645
        },
        {
          "name": "F#1",
          "midi": 30,
          "time": 100.85704200000022,
          "velocity": 0.7480314960629921,
          "duration": 0.14285700000000645
        },
        {
          "name": "F#1",
          "midi": 30,
          "time": 100.99989900000023,
          "velocity": 0.7480314960629921,
          "duration": 0.14285700000000645
        },
        {
          "name": "F#1",
          "midi": 30,
          "time": 101.14275600000023,
          "velocity": 0.7480314960629921,
          "duration": 0.14285700000000645
        },
        {
          "name": "F#1",
          "midi": 30,
          "time": 101.28561300000024,
          "velocity": 0.7480314960629921,
          "duration": 0.14285700000000645
        },
        {
          "name": "F#1",
          "midi": 30,
          "time": 101.42847000000025,
          "velocity": 0.7480314960629921,
          "duration": 0.14285700000000645
        },
        {
          "name": "F#1",
          "midi": 30,
          "time": 101.57132700000025,
          "velocity": 0.7480314960629921,
          "duration": 0.14285700000000645
        },
        {
          "name": "F#1",
          "midi": 30,
          "time": 101.71418400000026,
          "velocity": 0.7480314960629921,
          "duration": 0.14285700000000645
        },
        {
          "name": "F#1",
          "midi": 30,
          "time": 101.85704100000027,
          "velocity": 0.7480314960629921,
          "duration": 0.14285700000000645
        },
        {
          "name": "F#1",
          "midi": 30,
          "time": 101.99989800000027,
          "velocity": 0.7480314960629921,
          "duration": 0.14285700000000645
        },
        {
          "name": "F#1",
          "midi": 30,
          "time": 102.14275500000028,
          "velocity": 0.7480314960629921,
          "duration": 0.14285700000000645
        },
        {
          "name": "F#1",
          "midi": 30,
          "time": 102.28561200000028,
          "velocity": 0.7480314960629921,
          "duration": 0.14285700000000645
        },
        {
          "name": "F#1",
          "midi": 30,
          "time": 102.42846900000029,
          "velocity": 0.7480314960629921,
          "duration": 0.14285700000000645
        },
        {
          "name": "F#1",
          "midi": 30,
          "time": 102.5713260000003,
          "velocity": 0.7480314960629921,
          "duration": 0.14285700000000645
        },
        {
          "name": "F#1",
          "midi": 30,
          "time": 102.7141830000003,
          "velocity": 0.7480314960629921,
          "duration": 0.14285700000000645
        },
        {
          "name": "A1",
          "midi": 33,
          "time": 102.85704000000031,
          "velocity": 0.7480314960629921,
          "duration": 0.14285700000000645
        },
        {
          "name": "A1",
          "midi": 33,
          "time": 102.99989700000032,
          "velocity": 0.7480314960629921,
          "duration": 0.14285700000000645
        },
        {
          "name": "A1",
          "midi": 33,
          "time": 103.14275400000032,
          "velocity": 0.7480314960629921,
          "duration": 0.14285700000000645
        },
        {
          "name": "A1",
          "midi": 33,
          "time": 103.28561100000033,
          "velocity": 0.7480314960629921,
          "duration": 0.14285700000000645
        },
        {
          "name": "A1",
          "midi": 33,
          "time": 103.42846800000034,
          "velocity": 0.7480314960629921,
          "duration": 0.14285700000000645
        },
        {
          "name": "A1",
          "midi": 33,
          "time": 103.57132500000034,
          "velocity": 0.7480314960629921,
          "duration": 0.14285700000000645
        },
        {
          "name": "A1",
          "midi": 33,
          "time": 103.71418200000035,
          "velocity": 0.7480314960629921,
          "duration": 0.14285700000000645
        },
        {
          "name": "A1",
          "midi": 33,
          "time": 103.85703900000036,
          "velocity": 0.7480314960629921,
          "duration": 0.14285700000000645
        },
        {
          "name": "A1",
          "midi": 33,
          "time": 103.99989600000036,
          "velocity": 0.7480314960629921,
          "duration": 0.14285700000000645
        },
        {
          "name": "A1",
          "midi": 33,
          "time": 104.14275300000037,
          "velocity": 0.7480314960629921,
          "duration": 0.14285700000000645
        },
        {
          "name": "A1",
          "midi": 33,
          "time": 104.28561000000037,
          "velocity": 0.7480314960629921,
          "duration": 0.14285700000000645
        },
        {
          "name": "A1",
          "midi": 33,
          "time": 104.42846700000038,
          "velocity": 0.7480314960629921,
          "duration": 0.14285700000000645
        },
        {
          "name": "A1",
          "midi": 33,
          "time": 104.57132400000039,
          "velocity": 0.7480314960629921,
          "duration": 0.14285700000000645
        },
        {
          "name": "A1",
          "midi": 33,
          "time": 104.7141810000004,
          "velocity": 0.7480314960629921,
          "duration": 0.14285700000000645
        },
        {
          "name": "A1",
          "midi": 33,
          "time": 104.8570380000004,
          "velocity": 0.7480314960629921,
          "duration": 0.14285700000000645
        },
        {
          "name": "A1",
          "midi": 33,
          "time": 104.99989500000041,
          "velocity": 0.7480314960629921,
          "duration": 0.14285700000000645
        },
        {
          "name": "E2",
          "midi": 40,
          "time": 105.14275200000041,
          "velocity": 0.7480314960629921,
          "duration": 0.14285700000000645
        },
        {
          "name": "E2",
          "midi": 40,
          "time": 105.28560900000042,
          "velocity": 0.7480314960629921,
          "duration": 0.14285700000000645
        },
        {
          "name": "E2",
          "midi": 40,
          "time": 105.42846600000043,
          "velocity": 0.7480314960629921,
          "duration": 0.14285700000000645
        },
        {
          "name": "E2",
          "midi": 40,
          "time": 105.57132300000043,
          "velocity": 0.7480314960629921,
          "duration": 0.14285700000000645
        },
        {
          "name": "E2",
          "midi": 40,
          "time": 105.71418000000044,
          "velocity": 0.7480314960629921,
          "duration": 0.14285700000000645
        },
        {
          "name": "E2",
          "midi": 40,
          "time": 105.85703700000045,
          "velocity": 0.7480314960629921,
          "duration": 0.14285700000000645
        },
        {
          "name": "E2",
          "midi": 40,
          "time": 105.99989400000045,
          "velocity": 0.7480314960629921,
          "duration": 0.14285700000000645
        },
        {
          "name": "E2",
          "midi": 40,
          "time": 106.14275100000046,
          "velocity": 0.7480314960629921,
          "duration": 0.14285700000000645
        },
        {
          "name": "E2",
          "midi": 40,
          "time": 106.28560800000047,
          "velocity": 0.7480314960629921,
          "duration": 0.14285700000000645
        },
        {
          "name": "E2",
          "midi": 40,
          "time": 106.42846500000047,
          "velocity": 0.7480314960629921,
          "duration": 0.14285700000000645
        },
        {
          "name": "E2",
          "midi": 40,
          "time": 106.57132200000048,
          "velocity": 0.7480314960629921,
          "duration": 0.14285700000000645
        },
        {
          "name": "E2",
          "midi": 40,
          "time": 106.71417900000048,
          "velocity": 0.7480314960629921,
          "duration": 0.14285700000000645
        },
        {
          "name": "E2",
          "midi": 40,
          "time": 106.85703600000049,
          "velocity": 0.7480314960629921,
          "duration": 0.14285700000000645
        },
        {
          "name": "E2",
          "midi": 40,
          "time": 106.9998930000005,
          "velocity": 0.7480314960629921,
          "duration": 0.14285700000000645
        },
        {
          "name": "E2",
          "midi": 40,
          "time": 107.1427500000005,
          "velocity": 0.7480314960629921,
          "duration": 0.14285700000000645
        },
        {
          "name": "E2",
          "midi": 40,
          "time": 107.28560700000051,
          "velocity": 0.7480314960629921,
          "duration": 0.14285700000000645
        },
        {
          "name": "C#2",
          "midi": 37,
          "time": 107.42846400000052,
          "velocity": 0.7480314960629921,
          "duration": 0.14285700000000645
        },
        {
          "name": "C#2",
          "midi": 37,
          "time": 107.57132100000052,
          "velocity": 0.7480314960629921,
          "duration": 0.14285700000000645
        },
        {
          "name": "C#2",
          "midi": 37,
          "time": 107.71417800000053,
          "velocity": 0.7480314960629921,
          "duration": 0.14285700000000645
        },
        {
          "name": "C#2",
          "midi": 37,
          "time": 107.85703500000054,
          "velocity": 0.7480314960629921,
          "duration": 0.14285700000000645
        },
        {
          "name": "C#2",
          "midi": 37,
          "time": 107.99989200000054,
          "velocity": 0.7480314960629921,
          "duration": 0.14285700000000645
        },
        {
          "name": "C#2",
          "midi": 37,
          "time": 108.14274900000055,
          "velocity": 0.7480314960629921,
          "duration": 0.14285700000000645
        },
        {
          "name": "C#2",
          "midi": 37,
          "time": 108.28560600000056,
          "velocity": 0.7480314960629921,
          "duration": 0.14285700000000645
        },
        {
          "name": "C#2",
          "midi": 37,
          "time": 108.42846300000056,
          "velocity": 0.7480314960629921,
          "duration": 0.14285700000000645
        },
        {
          "name": "C#2",
          "midi": 37,
          "time": 108.57132000000057,
          "velocity": 0.7480314960629921,
          "duration": 0.14285700000000645
        },
        {
          "name": "C#2",
          "midi": 37,
          "time": 108.71417700000057,
          "velocity": 0.7480314960629921,
          "duration": 0.14285700000000645
        },
        {
          "name": "C#2",
          "midi": 37,
          "time": 108.85703400000058,
          "velocity": 0.7480314960629921,
          "duration": 0.14285700000000645
        },
        {
          "name": "C#2",
          "midi": 37,
          "time": 108.99989100000059,
          "velocity": 0.7480314960629921,
          "duration": 0.14285700000000645
        },
        {
          "name": "C#2",
          "midi": 37,
          "time": 109.1427480000006,
          "velocity": 0.7480314960629921,
          "duration": 0.14285700000000645
        },
        {
          "name": "C#2",
          "midi": 37,
          "time": 109.2856050000006,
          "velocity": 0.7480314960629921,
          "duration": 0.14285700000000645
        },
        {
          "name": "C#2",
          "midi": 37,
          "time": 109.42846200000061,
          "velocity": 0.7480314960629921,
          "duration": 0.14285700000000645
        },
        {
          "name": "C#2",
          "midi": 37,
          "time": 109.57131900000061,
          "velocity": 0.7480314960629921,
          "duration": 0.14285700000000645
        },
        {
          "name": "A1",
          "midi": 33,
          "time": 109.71417600000062,
          "velocity": 0.7480314960629921,
          "duration": 0.14285700000000645
        },
        {
          "name": "A1",
          "midi": 33,
          "time": 109.85703300000063,
          "velocity": 0.7480314960629921,
          "duration": 0.14285700000000645
        },
        {
          "name": "A1",
          "midi": 33,
          "time": 109.99989000000063,
          "velocity": 0.7480314960629921,
          "duration": 0.14285700000000645
        },
        {
          "name": "A1",
          "midi": 33,
          "time": 110.14274700000064,
          "velocity": 0.7480314960629921,
          "duration": 0.14285700000000645
        },
        {
          "name": "A1",
          "midi": 33,
          "time": 110.28560400000065,
          "velocity": 0.7480314960629921,
          "duration": 0.14285700000000645
        },
        {
          "name": "A1",
          "midi": 33,
          "time": 110.42846100000065,
          "velocity": 0.7480314960629921,
          "duration": 0.14285700000000645
        },
        {
          "name": "A1",
          "midi": 33,
          "time": 110.57131800000066,
          "velocity": 0.7480314960629921,
          "duration": 0.14285700000000645
        },
        {
          "name": "A1",
          "midi": 33,
          "time": 110.71417500000067,
          "velocity": 0.7480314960629921,
          "duration": 0.14285700000000645
        },
        {
          "name": "A1",
          "midi": 33,
          "time": 110.85703200000067,
          "velocity": 0.7480314960629921,
          "duration": 0.14285700000000645
        },
        {
          "name": "A1",
          "midi": 33,
          "time": 110.99988900000068,
          "velocity": 0.7480314960629921,
          "duration": 0.14285700000000645
        },
        {
          "name": "A1",
          "midi": 33,
          "time": 111.14274600000068,
          "velocity": 0.7480314960629921,
          "duration": 0.14285700000000645
        },
        {
          "name": "A1",
          "midi": 33,
          "time": 111.28560300000069,
          "velocity": 0.7480314960629921,
          "duration": 0.14285700000000645
        },
        {
          "name": "A1",
          "midi": 33,
          "time": 111.4284600000007,
          "velocity": 0.7480314960629921,
          "duration": 0.14285700000000645
        },
        {
          "name": "A1",
          "midi": 33,
          "time": 111.5713170000007,
          "velocity": 0.7480314960629921,
          "duration": 0.14285700000000645
        },
        {
          "name": "A1",
          "midi": 33,
          "time": 111.71417400000071,
          "velocity": 0.7480314960629921,
          "duration": 0.14285700000000645
        },
        {
          "name": "A1",
          "midi": 33,
          "time": 111.85703100000072,
          "velocity": 0.7480314960629921,
          "duration": 0.14285700000000645
        },
        {
          "name": "E1",
          "midi": 28,
          "time": 111.99988800000072,
          "velocity": 0.7480314960629921,
          "duration": 0.14285700000000645
        },
        {
          "name": "E1",
          "midi": 28,
          "time": 112.14274500000073,
          "velocity": 0.7480314960629921,
          "duration": 0.14285700000000645
        },
        {
          "name": "E1",
          "midi": 28,
          "time": 112.28560200000074,
          "velocity": 0.7480314960629921,
          "duration": 0.14285700000000645
        },
        {
          "name": "E1",
          "midi": 28,
          "time": 112.42845900000074,
          "velocity": 0.7480314960629921,
          "duration": 0.14285700000000645
        },
        {
          "name": "E1",
          "midi": 28,
          "time": 112.57131600000075,
          "velocity": 0.7480314960629921,
          "duration": 0.14285700000000645
        },
        {
          "name": "E1",
          "midi": 28,
          "time": 112.71417300000076,
          "velocity": 0.7480314960629921,
          "duration": 0.14285700000000645
        },
        {
          "name": "E1",
          "midi": 28,
          "time": 112.85703000000076,
          "velocity": 0.7480314960629921,
          "duration": 0.14285700000000645
        },
        {
          "name": "E1",
          "midi": 28,
          "time": 112.99988700000077,
          "velocity": 0.7480314960629921,
          "duration": 0.14285700000000645
        },
        {
          "name": "E1",
          "midi": 28,
          "time": 113.14274400000077,
          "velocity": 0.7480314960629921,
          "duration": 0.14285700000000645
        },
        {
          "name": "E1",
          "midi": 28,
          "time": 113.28560100000078,
          "velocity": 0.7480314960629921,
          "duration": 0.14285700000000645
        },
        {
          "name": "E1",
          "midi": 28,
          "time": 113.42845800000079,
          "velocity": 0.7480314960629921,
          "duration": 0.14285700000000645
        },
        {
          "name": "E1",
          "midi": 28,
          "time": 113.5713150000008,
          "velocity": 0.7480314960629921,
          "duration": 0.14285700000000645
        },
        {
          "name": "E1",
          "midi": 28,
          "time": 113.7141720000008,
          "velocity": 0.7480314960629921,
          "duration": 0.14285700000000645
        },
        {
          "name": "E1",
          "midi": 28,
          "time": 113.85702900000081,
          "velocity": 0.7480314960629921,
          "duration": 0.14285700000000645
        },
        {
          "name": "E1",
          "midi": 28,
          "time": 113.99988600000081,
          "velocity": 0.7480314960629921,
          "duration": 0.14285700000000645
        },
        {
          "name": "E1",
          "midi": 28,
          "time": 114.14274300000082,
          "velocity": 0.7480314960629921,
          "duration": 0.14285700000000645
        },
        {
          "name": "F#1",
          "midi": 30,
          "time": 114.28560000000083,
          "velocity": 0.7480314960629921,
          "duration": 0.14285700000000645
        },
        {
          "name": "F#1",
          "midi": 30,
          "time": 114.42845700000083,
          "velocity": 0.7480314960629921,
          "duration": 0.14285700000000645
        },
        {
          "name": "F#1",
          "midi": 30,
          "time": 114.57131400000084,
          "velocity": 0.7480314960629921,
          "duration": 0.14285700000000645
        },
        {
          "name": "F#1",
          "midi": 30,
          "time": 114.71417100000085,
          "velocity": 0.7480314960629921,
          "duration": 0.14285700000000645
        },
        {
          "name": "F#1",
          "midi": 30,
          "time": 114.85702800000085,
          "velocity": 0.7480314960629921,
          "duration": 0.14285700000000645
        },
        {
          "name": "F#1",
          "midi": 30,
          "time": 114.99988500000086,
          "velocity": 0.7480314960629921,
          "duration": 0.14285700000000645
        },
        {
          "name": "F#1",
          "midi": 30,
          "time": 115.14274200000087,
          "velocity": 0.7480314960629921,
          "duration": 0.14285700000000645
        },
        {
          "name": "F#1",
          "midi": 30,
          "time": 115.28559900000087,
          "velocity": 0.7480314960629921,
          "duration": 0.14285700000000645
        },
        {
          "name": "F#1",
          "midi": 30,
          "time": 115.42845600000088,
          "velocity": 0.7480314960629921,
          "duration": 0.14285700000000645
        },
        {
          "name": "F#1",
          "midi": 30,
          "time": 115.57131300000088,
          "velocity": 0.7480314960629921,
          "duration": 0.14285700000000645
        },
        {
          "name": "F#1",
          "midi": 30,
          "time": 115.71417000000089,
          "velocity": 0.7480314960629921,
          "duration": 0.14285700000000645
        },
        {
          "name": "F#1",
          "midi": 30,
          "time": 115.8570270000009,
          "velocity": 0.7480314960629921,
          "duration": 0.14285700000000645
        },
        {
          "name": "F#1",
          "midi": 30,
          "time": 115.9998840000009,
          "velocity": 0.7480314960629921,
          "duration": 0.14285700000000645
        },
        {
          "name": "F#1",
          "midi": 30,
          "time": 116.14274100000091,
          "velocity": 0.7480314960629921,
          "duration": 0.14285700000000645
        },
        {
          "name": "F#1",
          "midi": 30,
          "time": 116.28559800000092,
          "velocity": 0.7480314960629921,
          "duration": 0.14285700000000645
        },
        {
          "name": "F#1",
          "midi": 30,
          "time": 116.42845500000092,
          "velocity": 0.7480314960629921,
          "duration": 0.14285700000000645
        },
        {
          "name": "F#1",
          "midi": 30,
          "time": 116.57131200000093,
          "velocity": 0.7480314960629921,
          "duration": 0.14285700000000645
        },
        {
          "name": "F#1",
          "midi": 30,
          "time": 116.71416900000094,
          "velocity": 0.7480314960629921,
          "duration": 0.14285700000000645
        },
        {
          "name": "F#1",
          "midi": 30,
          "time": 116.85702600000094,
          "velocity": 0.7480314960629921,
          "duration": 0.14285700000000645
        },
        {
          "name": "F#1",
          "midi": 30,
          "time": 116.99988300000095,
          "velocity": 0.7480314960629921,
          "duration": 0.14285700000000645
        },
        {
          "name": "F#1",
          "midi": 30,
          "time": 117.14274000000096,
          "velocity": 0.7480314960629921,
          "duration": 0.14285700000000645
        },
        {
          "name": "F#1",
          "midi": 30,
          "time": 117.28559700000096,
          "velocity": 0.7480314960629921,
          "duration": 0.14285700000000645
        },
        {
          "name": "F#1",
          "midi": 30,
          "time": 117.42845400000097,
          "velocity": 0.7480314960629921,
          "duration": 0.14285700000000645
        },
        {
          "name": "F#1",
          "midi": 30,
          "time": 117.57131100000097,
          "velocity": 0.7480314960629921,
          "duration": 0.14285700000000645
        },
        {
          "name": "F#1",
          "midi": 30,
          "time": 117.71416800000098,
          "velocity": 0.7480314960629921,
          "duration": 0.14285700000000645
        },
        {
          "name": "F#1",
          "midi": 30,
          "time": 117.85702500000099,
          "velocity": 0.7480314960629921,
          "duration": 0.14285700000000645
        },
        {
          "name": "F#1",
          "midi": 30,
          "time": 117.999882000001,
          "velocity": 0.7480314960629921,
          "duration": 0.14285700000000645
        },
        {
          "name": "F#1",
          "midi": 30,
          "time": 118.142739000001,
          "velocity": 0.7480314960629921,
          "duration": 0.14285700000000645
        },
        {
          "name": "F#1",
          "midi": 30,
          "time": 118.28559600000101,
          "velocity": 0.7480314960629921,
          "duration": 0.14285700000000645
        },
        {
          "name": "F#1",
          "midi": 30,
          "time": 118.42845300000101,
          "velocity": 0.7480314960629921,
          "duration": 0.14285700000000645
        },
        {
          "name": "F#1",
          "midi": 30,
          "time": 118.57131000000102,
          "velocity": 0.7480314960629921,
          "duration": 0.14285700000000645
        },
        {
          "name": "F#1",
          "midi": 30,
          "time": 118.71416700000103,
          "velocity": 0.7480314960629921,
          "duration": 0.14285700000000645
        },
        {
          "name": "A1",
          "midi": 33,
          "time": 118.85702400000103,
          "velocity": 0.7480314960629921,
          "duration": 0.14285700000000645
        },
        {
          "name": "A1",
          "midi": 33,
          "time": 118.99988100000104,
          "velocity": 0.7480314960629921,
          "duration": 0.14285700000000645
        },
        {
          "name": "A1",
          "midi": 33,
          "time": 119.14273800000105,
          "velocity": 0.7480314960629921,
          "duration": 0.14285700000000645
        },
        {
          "name": "A1",
          "midi": 33,
          "time": 119.28559500000105,
          "velocity": 0.7480314960629921,
          "duration": 0.14285700000000645
        },
        {
          "name": "A1",
          "midi": 33,
          "time": 119.42845200000106,
          "velocity": 0.7480314960629921,
          "duration": 0.14285700000000645
        },
        {
          "name": "A1",
          "midi": 33,
          "time": 119.57130900000107,
          "velocity": 0.7480314960629921,
          "duration": 0.14285700000000645
        },
        {
          "name": "A1",
          "midi": 33,
          "time": 119.71416600000107,
          "velocity": 0.7480314960629921,
          "duration": 0.14285700000000645
        },
        {
          "name": "A1",
          "midi": 33,
          "time": 119.85702300000108,
          "velocity": 0.7480314960629921,
          "duration": 0.14285700000000645
        },
        {
          "name": "A1",
          "midi": 33,
          "time": 119.99988000000108,
          "velocity": 0.7480314960629921,
          "duration": 0.14285700000000645
        },
        {
          "name": "A1",
          "midi": 33,
          "time": 120.14273700000109,
          "velocity": 0.7480314960629921,
          "duration": 0.14285700000000645
        },
        {
          "name": "A1",
          "midi": 33,
          "time": 120.2855940000011,
          "velocity": 0.7480314960629921,
          "duration": 0.14285700000000645
        },
        {
          "name": "A1",
          "midi": 33,
          "time": 120.4284510000011,
          "velocity": 0.7480314960629921,
          "duration": 0.14285700000000645
        },
        {
          "name": "A1",
          "midi": 33,
          "time": 120.57130800000111,
          "velocity": 0.7480314960629921,
          "duration": 0.14285700000000645
        },
        {
          "name": "A1",
          "midi": 33,
          "time": 120.71416500000112,
          "velocity": 0.7480314960629921,
          "duration": 0.14285700000000645
        },
        {
          "name": "A1",
          "midi": 33,
          "time": 120.85702200000112,
          "velocity": 0.7480314960629921,
          "duration": 0.14285700000000645
        },
        {
          "name": "A1",
          "midi": 33,
          "time": 120.99987900000113,
          "velocity": 0.7480314960629921,
          "duration": 0.14285700000000645
        },
        {
          "name": "E1",
          "midi": 28,
          "time": 121.14273600000114,
          "velocity": 0.7480314960629921,
          "duration": 0.14285700000000645
        },
        {
          "name": "E1",
          "midi": 28,
          "time": 121.28559300000114,
          "velocity": 0.7480314960629921,
          "duration": 0.14285700000000645
        },
        {
          "name": "E1",
          "midi": 28,
          "time": 121.42845000000115,
          "velocity": 0.7480314960629921,
          "duration": 0.14285700000000645
        },
        {
          "name": "E1",
          "midi": 28,
          "time": 121.57130700000116,
          "velocity": 0.7480314960629921,
          "duration": 0.14285700000000645
        },
        {
          "name": "E1",
          "midi": 28,
          "time": 121.71416400000116,
          "velocity": 0.7480314960629921,
          "duration": 0.14285700000000645
        },
        {
          "name": "E1",
          "midi": 28,
          "time": 121.85702100000117,
          "velocity": 0.7480314960629921,
          "duration": 0.14285700000000645
        },
        {
          "name": "E1",
          "midi": 28,
          "time": 121.99987800000117,
          "velocity": 0.7480314960629921,
          "duration": 0.14285700000000645
        },
        {
          "name": "E1",
          "midi": 28,
          "time": 122.14273500000118,
          "velocity": 0.7480314960629921,
          "duration": 0.14285700000000645
        },
        {
          "name": "E1",
          "midi": 28,
          "time": 122.28559200000119,
          "velocity": 0.7480314960629921,
          "duration": 0.14285700000000645
        },
        {
          "name": "E1",
          "midi": 28,
          "time": 122.4284490000012,
          "velocity": 0.7480314960629921,
          "duration": 0.14285700000000645
        },
        {
          "name": "E1",
          "midi": 28,
          "time": 122.5713060000012,
          "velocity": 0.7480314960629921,
          "duration": 0.14285700000000645
        },
        {
          "name": "E1",
          "midi": 28,
          "time": 122.71416300000121,
          "velocity": 0.7480314960629921,
          "duration": 0.14285700000000645
        },
        {
          "name": "E1",
          "midi": 28,
          "time": 122.85702000000121,
          "velocity": 0.7480314960629921,
          "duration": 0.14285700000000645
        },
        {
          "name": "E1",
          "midi": 28,
          "time": 122.99987700000122,
          "velocity": 0.7480314960629921,
          "duration": 0.14285700000000645
        },
        {
          "name": "E1",
          "midi": 28,
          "time": 123.14273400000123,
          "velocity": 0.7480314960629921,
          "duration": 0.14285700000000645
        },
        {
          "name": "E1",
          "midi": 28,
          "time": 123.28559100000123,
          "velocity": 0.7480314960629921,
          "duration": 0.14285700000000645
        },
        {
          "name": "F#1",
          "midi": 30,
          "time": 123.42844800000124,
          "velocity": 0.7480314960629921,
          "duration": 0.2857139999999987
        },
        {
          "name": "F#1",
          "midi": 30,
          "time": 123.71416200000124,
          "velocity": 0.7480314960629921,
          "duration": 0.2857139999999987
        },
        {
          "name": "F#1",
          "midi": 30,
          "time": 124.57130400000123,
          "velocity": 0.7480314960629921,
          "duration": 0.2857139999999987
        },
        {
          "name": "F#1",
          "midi": 30,
          "time": 124.85701800000123,
          "velocity": 0.7480314960629921,
          "duration": 0.2857139999999987
        },
        {
          "name": "F#1",
          "midi": 30,
          "time": 125.71416000000123,
          "velocity": 0.7480314960629921,
          "duration": 0.2857139999999987
        },
        {
          "name": "F#1",
          "midi": 30,
          "time": 125.99987400000123,
          "velocity": 0.7480314960629921,
          "duration": 0.2857139999999987
        },
        {
          "name": "F#1",
          "midi": 30,
          "time": 126.85701600000122,
          "velocity": 0.7480314960629921,
          "duration": 0.2857139999999987
        },
        {
          "name": "F#1",
          "midi": 30,
          "time": 127.14273000000122,
          "velocity": 0.7480314960629921,
          "duration": 0.2857139999999987
        },
        {
          "name": "F#1",
          "midi": 30,
          "time": 127.99987200000122,
          "velocity": 0.7480314960629921,
          "duration": 0.2857139999999987
        },
        {
          "name": "F#1",
          "midi": 30,
          "time": 128.28558600000122,
          "velocity": 0.7480314960629921,
          "duration": 0.2857140000000129
        },
        {
          "name": "F#1",
          "midi": 30,
          "time": 129.14272800000123,
          "velocity": 0.7480314960629921,
          "duration": 0.2857140000000129
        },
        {
          "name": "F#1",
          "midi": 30,
          "time": 129.42844200000124,
          "velocity": 0.7480314960629921,
          "duration": 0.2857140000000129
        },
        {
          "name": "F#1",
          "midi": 30,
          "time": 130.28558400000125,
          "velocity": 0.7480314960629921,
          "duration": 0.2857140000000129
        },
        {
          "name": "F#1",
          "midi": 30,
          "time": 130.57129800000126,
          "velocity": 0.7480314960629921,
          "duration": 0.2857140000000129
        },
        {
          "name": "F#1",
          "midi": 30,
          "time": 131.42844000000127,
          "velocity": 0.7480314960629921,
          "duration": 0.2857140000000129
        },
        {
          "name": "F#1",
          "midi": 30,
          "time": 131.7141540000013,
          "velocity": 0.7480314960629921,
          "duration": 0.2857140000000129
        },
        {
          "name": "F#1",
          "midi": 30,
          "time": 132.5712960000013,
          "velocity": 0.7480314960629921,
          "duration": 0.14285699999999224
        },
        {
          "name": "F#1",
          "midi": 30,
          "time": 132.7141530000013,
          "velocity": 0.7480314960629921,
          "duration": 0.14285699999999224
        },
        {
          "name": "F#1",
          "midi": 30,
          "time": 132.85701000000128,
          "velocity": 0.7480314960629921,
          "duration": 0.14285699999999224
        },
        {
          "name": "F#1",
          "midi": 30,
          "time": 132.99986700000127,
          "velocity": 0.7480314960629921,
          "duration": 0.14285699999999224
        },
        {
          "name": "F#1",
          "midi": 30,
          "time": 133.14272400000127,
          "velocity": 0.7480314960629921,
          "duration": 0.14285699999999224
        },
        {
          "name": "F#1",
          "midi": 30,
          "time": 133.28558100000126,
          "velocity": 0.7480314960629921,
          "duration": 0.14285699999999224
        },
        {
          "name": "F#1",
          "midi": 30,
          "time": 133.42843800000125,
          "velocity": 0.7480314960629921,
          "duration": 0.14285699999999224
        },
        {
          "name": "F#1",
          "midi": 30,
          "time": 133.57129500000124,
          "velocity": 0.7480314960629921,
          "duration": 0.14285699999999224
        },
        {
          "name": "F#1",
          "midi": 30,
          "time": 133.71415200000123,
          "velocity": 0.7480314960629921,
          "duration": 0.14285699999999224
        },
        {
          "name": "F#1",
          "midi": 30,
          "time": 133.85700900000123,
          "velocity": 0.7480314960629921,
          "duration": 0.14285699999999224
        },
        {
          "name": "F#1",
          "midi": 30,
          "time": 133.99986600000122,
          "velocity": 0.7480314960629921,
          "duration": 0.14285699999999224
        },
        {
          "name": "F#1",
          "midi": 30,
          "time": 134.1427230000012,
          "velocity": 0.7480314960629921,
          "duration": 0.14285699999999224
        },
        {
          "name": "F#1",
          "midi": 30,
          "time": 134.2855800000012,
          "velocity": 0.7480314960629921,
          "duration": 0.14285699999999224
        },
        {
          "name": "F#1",
          "midi": 30,
          "time": 134.4284370000012,
          "velocity": 0.7480314960629921,
          "duration": 0.14285699999999224
        },
        {
          "name": "F#1",
          "midi": 30,
          "time": 134.5712940000012,
          "velocity": 0.7480314960629921,
          "duration": 0.14285699999999224
        },
        {
          "name": "F#1",
          "midi": 30,
          "time": 134.71415100000118,
          "velocity": 0.7480314960629921,
          "duration": 0.14285699999999224
        },
        {
          "name": "F#1",
          "midi": 30,
          "time": 134.85700800000117,
          "velocity": 0.7480314960629921,
          "duration": 0.14285699999999224
        },
        {
          "name": "F#1",
          "midi": 30,
          "time": 134.99986500000117,
          "velocity": 0.7480314960629921,
          "duration": 0.14285699999999224
        },
        {
          "name": "F#1",
          "midi": 30,
          "time": 135.14272200000116,
          "velocity": 0.7480314960629921,
          "duration": 0.14285699999999224
        },
        {
          "name": "F#1",
          "midi": 30,
          "time": 135.28557900000115,
          "velocity": 0.7480314960629921,
          "duration": 0.14285699999999224
        },
        {
          "name": "F#1",
          "midi": 30,
          "time": 135.42843600000114,
          "velocity": 0.7480314960629921,
          "duration": 0.14285699999999224
        },
        {
          "name": "F#1",
          "midi": 30,
          "time": 135.57129300000113,
          "velocity": 0.7480314960629921,
          "duration": 0.14285699999999224
        },
        {
          "name": "F#1",
          "midi": 30,
          "time": 135.71415000000113,
          "velocity": 0.7480314960629921,
          "duration": 0.14285699999999224
        },
        {
          "name": "F#1",
          "midi": 30,
          "time": 135.85700700000112,
          "velocity": 0.7480314960629921,
          "duration": 0.14285699999999224
        },
        {
          "name": "F#1",
          "midi": 30,
          "time": 135.9998640000011,
          "velocity": 0.7480314960629921,
          "duration": 0.14285699999999224
        },
        {
          "name": "F#1",
          "midi": 30,
          "time": 136.1427210000011,
          "velocity": 0.7480314960629921,
          "duration": 0.14285699999999224
        },
        {
          "name": "F#1",
          "midi": 30,
          "time": 136.2855780000011,
          "velocity": 0.7480314960629921,
          "duration": 0.14285699999999224
        },
        {
          "name": "F#1",
          "midi": 30,
          "time": 136.4284350000011,
          "velocity": 0.7480314960629921,
          "duration": 0.14285699999999224
        },
        {
          "name": "F#1",
          "midi": 30,
          "time": 136.57129200000108,
          "velocity": 0.7480314960629921,
          "duration": 0.14285699999999224
        },
        {
          "name": "F#1",
          "midi": 30,
          "time": 136.71414900000107,
          "velocity": 0.7480314960629921,
          "duration": 0.14285699999999224
        },
        {
          "name": "F#1",
          "midi": 30,
          "time": 136.85700600000106,
          "velocity": 0.7480314960629921,
          "duration": 0.14285699999999224
        },
        {
          "name": "F#1",
          "midi": 30,
          "time": 136.99986300000106,
          "velocity": 0.7480314960629921,
          "duration": 0.14285699999999224
        },
        {
          "name": "F#1",
          "midi": 30,
          "time": 137.14272000000105,
          "velocity": 0.7480314960629921,
          "duration": 0.14285699999999224
        },
        {
          "name": "F#1",
          "midi": 30,
          "time": 137.28557700000104,
          "velocity": 0.7480314960629921,
          "duration": 0.14285699999999224
        },
        {
          "name": "F#1",
          "midi": 30,
          "time": 137.42843400000103,
          "velocity": 0.7480314960629921,
          "duration": 0.14285699999999224
        },
        {
          "name": "F#1",
          "midi": 30,
          "time": 137.57129100000103,
          "velocity": 0.7480314960629921,
          "duration": 0.14285699999999224
        },
        {
          "name": "F#1",
          "midi": 30,
          "time": 137.71414800000102,
          "velocity": 0.7480314960629921,
          "duration": 0.14285699999999224
        },
        {
          "name": "F#1",
          "midi": 30,
          "time": 137.857005000001,
          "velocity": 0.7480314960629921,
          "duration": 0.14285699999999224
        },
        {
          "name": "F#1",
          "midi": 30,
          "time": 137.999862000001,
          "velocity": 0.7480314960629921,
          "duration": 0.14285699999999224
        },
        {
          "name": "F#1",
          "midi": 30,
          "time": 138.142719000001,
          "velocity": 0.7480314960629921,
          "duration": 0.14285699999999224
        },
        {
          "name": "F#1",
          "midi": 30,
          "time": 138.285576000001,
          "velocity": 0.7480314960629921,
          "duration": 0.14285699999999224
        },
        {
          "name": "F#1",
          "midi": 30,
          "time": 138.42843300000098,
          "velocity": 0.7480314960629921,
          "duration": 0.14285699999999224
        },
        {
          "name": "F#1",
          "midi": 30,
          "time": 138.57129000000097,
          "velocity": 0.7480314960629921,
          "duration": 0.14285699999999224
        },
        {
          "name": "F#1",
          "midi": 30,
          "time": 138.71414700000096,
          "velocity": 0.7480314960629921,
          "duration": 0.14285699999999224
        },
        {
          "name": "F#1",
          "midi": 30,
          "time": 138.85700400000096,
          "velocity": 0.7480314960629921,
          "duration": 0.14285699999999224
        },
        {
          "name": "F#1",
          "midi": 30,
          "time": 138.99986100000095,
          "velocity": 0.7480314960629921,
          "duration": 0.14285699999999224
        },
        {
          "name": "F#1",
          "midi": 30,
          "time": 139.14271800000094,
          "velocity": 0.7480314960629921,
          "duration": 0.14285699999999224
        },
        {
          "name": "F#1",
          "midi": 30,
          "time": 139.28557500000093,
          "velocity": 0.7480314960629921,
          "duration": 0.14285699999999224
        },
        {
          "name": "F#1",
          "midi": 30,
          "time": 139.42843200000092,
          "velocity": 0.7480314960629921,
          "duration": 0.14285699999999224
        },
        {
          "name": "F#1",
          "midi": 30,
          "time": 139.57128900000092,
          "velocity": 0.7480314960629921,
          "duration": 0.14285699999999224
        },
        {
          "name": "F#1",
          "midi": 30,
          "time": 139.7141460000009,
          "velocity": 0.7480314960629921,
          "duration": 0.14285699999999224
        },
        {
          "name": "F#1",
          "midi": 30,
          "time": 139.8570030000009,
          "velocity": 0.7480314960629921,
          "duration": 0.14285699999999224
        },
        {
          "name": "F#1",
          "midi": 30,
          "time": 139.9998600000009,
          "velocity": 0.7480314960629921,
          "duration": 0.14285699999999224
        },
        {
          "name": "F#1",
          "midi": 30,
          "time": 140.14271700000089,
          "velocity": 0.7480314960629921,
          "duration": 0.14285699999999224
        },
        {
          "name": "F#1",
          "midi": 30,
          "time": 140.28557400000088,
          "velocity": 0.7480314960629921,
          "duration": 0.14285699999999224
        },
        {
          "name": "F#1",
          "midi": 30,
          "time": 140.42843100000087,
          "velocity": 0.7480314960629921,
          "duration": 0.14285699999999224
        },
        {
          "name": "F#1",
          "midi": 30,
          "time": 140.57128800000086,
          "velocity": 0.7480314960629921,
          "duration": 0.14285699999999224
        },
        {
          "name": "F#1",
          "midi": 30,
          "time": 140.71414500000085,
          "velocity": 0.7480314960629921,
          "duration": 0.14285699999999224
        },
        {
          "name": "F#1",
          "midi": 30,
          "time": 140.85700200000085,
          "velocity": 0.7480314960629921,
          "duration": 0.14285699999999224
        },
        {
          "name": "F#1",
          "midi": 30,
          "time": 140.99985900000084,
          "velocity": 0.7480314960629921,
          "duration": 0.14285699999999224
        },
        {
          "name": "F#1",
          "midi": 30,
          "time": 141.14271600000083,
          "velocity": 0.7480314960629921,
          "duration": 0.14285699999999224
        },
        {
          "name": "F#1",
          "midi": 30,
          "time": 141.28557300000082,
          "velocity": 0.7480314960629921,
          "duration": 0.14285699999999224
        },
        {
          "name": "F#1",
          "midi": 30,
          "time": 141.42843000000082,
          "velocity": 0.7480314960629921,
          "duration": 0.14285699999999224
        },
        {
          "name": "F#1",
          "midi": 30,
          "time": 141.5712870000008,
          "velocity": 0.7480314960629921,
          "duration": 0.14285699999999224
        },
        {
          "name": "F#1",
          "midi": 30,
          "time": 141.7141440000008,
          "velocity": 0.7480314960629921,
          "duration": 0.2857140000000129
        },
        {
          "name": "F#1",
          "midi": 30,
          "time": 143.99985600000082,
          "velocity": 0.7480314960629921,
          "duration": 0.14285699999999224
        },
        {
          "name": "F#1",
          "midi": 30,
          "time": 144.1427130000008,
          "velocity": 0.7480314960629921,
          "duration": 0.14285699999999224
        },
        {
          "name": "F#1",
          "midi": 30,
          "time": 144.2855700000008,
          "velocity": 0.7480314960629921,
          "duration": 0.14285699999999224
        },
        {
          "name": "F#1",
          "midi": 30,
          "time": 144.4284270000008,
          "velocity": 0.7480314960629921,
          "duration": 0.14285699999999224
        },
        {
          "name": "F#1",
          "midi": 30,
          "time": 144.5712840000008,
          "velocity": 0.7480314960629921,
          "duration": 0.14285699999999224
        },
        {
          "name": "F#1",
          "midi": 30,
          "time": 144.71414100000078,
          "velocity": 0.7480314960629921,
          "duration": 0.14285699999999224
        },
        {
          "name": "F#1",
          "midi": 30,
          "time": 144.85699800000077,
          "velocity": 0.7480314960629921,
          "duration": 0.14285699999999224
        },
        {
          "name": "F#1",
          "midi": 30,
          "time": 144.99985500000076,
          "velocity": 0.7480314960629921,
          "duration": 0.14285699999999224
        },
        {
          "name": "F#1",
          "midi": 30,
          "time": 145.14271200000076,
          "velocity": 0.7480314960629921,
          "duration": 0.14285699999999224
        },
        {
          "name": "F#1",
          "midi": 30,
          "time": 145.28556900000075,
          "velocity": 0.7480314960629921,
          "duration": 0.14285699999999224
        },
        {
          "name": "F#1",
          "midi": 30,
          "time": 145.42842600000074,
          "velocity": 0.7480314960629921,
          "duration": 0.14285699999999224
        },
        {
          "name": "F#1",
          "midi": 30,
          "time": 145.57128300000073,
          "velocity": 0.7480314960629921,
          "duration": 0.14285699999999224
        },
        {
          "name": "F#1",
          "midi": 30,
          "time": 145.71414000000073,
          "velocity": 0.7480314960629921,
          "duration": 0.14285699999999224
        },
        {
          "name": "F#1",
          "midi": 30,
          "time": 145.85699700000072,
          "velocity": 0.7480314960629921,
          "duration": 0.14285699999999224
        },
        {
          "name": "F#1",
          "midi": 30,
          "time": 145.9998540000007,
          "velocity": 0.7480314960629921,
          "duration": 0.14285699999999224
        },
        {
          "name": "F#1",
          "midi": 30,
          "time": 146.1427110000007,
          "velocity": 0.7480314960629921,
          "duration": 0.14285699999999224
        },
        {
          "name": "A1",
          "midi": 33,
          "time": 146.2855680000007,
          "velocity": 0.7480314960629921,
          "duration": 0.14285699999999224
        },
        {
          "name": "A1",
          "midi": 33,
          "time": 146.4284250000007,
          "velocity": 0.7480314960629921,
          "duration": 0.14285699999999224
        },
        {
          "name": "A1",
          "midi": 33,
          "time": 146.57128200000068,
          "velocity": 0.7480314960629921,
          "duration": 0.14285699999999224
        },
        {
          "name": "A1",
          "midi": 33,
          "time": 146.71413900000067,
          "velocity": 0.7480314960629921,
          "duration": 0.14285699999999224
        },
        {
          "name": "A1",
          "midi": 33,
          "time": 146.85699600000066,
          "velocity": 0.7480314960629921,
          "duration": 0.14285699999999224
        },
        {
          "name": "A1",
          "midi": 33,
          "time": 146.99985300000066,
          "velocity": 0.7480314960629921,
          "duration": 0.14285699999999224
        },
        {
          "name": "A1",
          "midi": 33,
          "time": 147.14271000000065,
          "velocity": 0.7480314960629921,
          "duration": 0.14285699999999224
        },
        {
          "name": "A1",
          "midi": 33,
          "time": 147.28556700000064,
          "velocity": 0.7480314960629921,
          "duration": 0.14285699999999224
        },
        {
          "name": "A1",
          "midi": 33,
          "time": 147.42842400000063,
          "velocity": 0.7480314960629921,
          "duration": 0.14285699999999224
        },
        {
          "name": "A1",
          "midi": 33,
          "time": 147.57128100000062,
          "velocity": 0.7480314960629921,
          "duration": 0.14285699999999224
        },
        {
          "name": "A1",
          "midi": 33,
          "time": 147.71413800000062,
          "velocity": 0.7480314960629921,
          "duration": 0.14285699999999224
        },
        {
          "name": "A1",
          "midi": 33,
          "time": 147.8569950000006,
          "velocity": 0.7480314960629921,
          "duration": 0.14285699999999224
        },
        {
          "name": "A1",
          "midi": 33,
          "time": 147.9998520000006,
          "velocity": 0.7480314960629921,
          "duration": 0.14285699999999224
        },
        {
          "name": "A1",
          "midi": 33,
          "time": 148.1427090000006,
          "velocity": 0.7480314960629921,
          "duration": 0.14285699999999224
        },
        {
          "name": "A1",
          "midi": 33,
          "time": 148.28556600000059,
          "velocity": 0.7480314960629921,
          "duration": 0.14285699999999224
        },
        {
          "name": "A1",
          "midi": 33,
          "time": 148.42842300000058,
          "velocity": 0.7480314960629921,
          "duration": 0.14285699999999224
        },
        {
          "name": "E2",
          "midi": 40,
          "time": 148.57128000000057,
          "velocity": 0.7480314960629921,
          "duration": 0.14285699999999224
        },
        {
          "name": "E2",
          "midi": 40,
          "time": 148.71413700000056,
          "velocity": 0.7480314960629921,
          "duration": 0.14285699999999224
        },
        {
          "name": "E2",
          "midi": 40,
          "time": 148.85699400000055,
          "velocity": 0.7480314960629921,
          "duration": 0.14285699999999224
        },
        {
          "name": "E2",
          "midi": 40,
          "time": 148.99985100000055,
          "velocity": 0.7480314960629921,
          "duration": 0.14285699999999224
        },
        {
          "name": "E2",
          "midi": 40,
          "time": 149.14270800000054,
          "velocity": 0.7480314960629921,
          "duration": 0.14285699999999224
        },
        {
          "name": "E2",
          "midi": 40,
          "time": 149.28556500000053,
          "velocity": 0.7480314960629921,
          "duration": 0.14285699999999224
        },
        {
          "name": "E2",
          "midi": 40,
          "time": 149.42842200000052,
          "velocity": 0.7480314960629921,
          "duration": 0.14285699999999224
        },
        {
          "name": "E2",
          "midi": 40,
          "time": 149.57127900000052,
          "velocity": 0.7480314960629921,
          "duration": 0.14285699999999224
        },
        {
          "name": "E2",
          "midi": 40,
          "time": 149.7141360000005,
          "velocity": 0.7480314960629921,
          "duration": 0.14285699999999224
        },
        {
          "name": "E2",
          "midi": 40,
          "time": 149.8569930000005,
          "velocity": 0.7480314960629921,
          "duration": 0.14285699999999224
        },
        {
          "name": "E2",
          "midi": 40,
          "time": 149.9998500000005,
          "velocity": 0.7480314960629921,
          "duration": 0.14285699999999224
        },
        {
          "name": "E2",
          "midi": 40,
          "time": 150.14270700000048,
          "velocity": 0.7480314960629921,
          "duration": 0.14285699999999224
        },
        {
          "name": "E2",
          "midi": 40,
          "time": 150.28556400000048,
          "velocity": 0.7480314960629921,
          "duration": 0.14285699999999224
        },
        {
          "name": "E2",
          "midi": 40,
          "time": 150.42842100000047,
          "velocity": 0.7480314960629921,
          "duration": 0.14285699999999224
        },
        {
          "name": "E2",
          "midi": 40,
          "time": 150.57127800000046,
          "velocity": 0.7480314960629921,
          "duration": 0.14285699999999224
        },
        {
          "name": "E2",
          "midi": 40,
          "time": 150.71413500000045,
          "velocity": 0.7480314960629921,
          "duration": 0.14285699999999224
        },
        {
          "name": "F#1",
          "midi": 30,
          "time": 150.85699200000045,
          "velocity": 0.7480314960629921,
          "duration": 0.14285699999999224
        },
        {
          "name": "F#1",
          "midi": 30,
          "time": 150.99984900000044,
          "velocity": 0.7480314960629921,
          "duration": 0.14285699999999224
        },
        {
          "name": "F#1",
          "midi": 30,
          "time": 151.14270600000043,
          "velocity": 0.7480314960629921,
          "duration": 0.14285699999999224
        },
        {
          "name": "F#1",
          "midi": 30,
          "time": 151.28556300000042,
          "velocity": 0.7480314960629921,
          "duration": 0.14285699999999224
        },
        {
          "name": "F#1",
          "midi": 30,
          "time": 151.42842000000041,
          "velocity": 0.7480314960629921,
          "duration": 0.14285699999999224
        },
        {
          "name": "F#1",
          "midi": 30,
          "time": 151.5712770000004,
          "velocity": 0.7480314960629921,
          "duration": 0.14285699999999224
        },
        {
          "name": "F#1",
          "midi": 30,
          "time": 151.7141340000004,
          "velocity": 0.7480314960629921,
          "duration": 0.14285699999999224
        },
        {
          "name": "F#1",
          "midi": 30,
          "time": 151.8569910000004,
          "velocity": 0.7480314960629921,
          "duration": 0.14285699999999224
        },
        {
          "name": "F#1",
          "midi": 30,
          "time": 151.99984800000038,
          "velocity": 0.7480314960629921,
          "duration": 0.14285699999999224
        },
        {
          "name": "F#1",
          "midi": 30,
          "time": 152.14270500000038,
          "velocity": 0.7480314960629921,
          "duration": 0.14285699999999224
        },
        {
          "name": "F#1",
          "midi": 30,
          "time": 152.28556200000037,
          "velocity": 0.7480314960629921,
          "duration": 0.14285699999999224
        },
        {
          "name": "F#1",
          "midi": 30,
          "time": 152.42841900000036,
          "velocity": 0.7480314960629921,
          "duration": 0.14285699999999224
        },
        {
          "name": "F#1",
          "midi": 30,
          "time": 152.57127600000035,
          "velocity": 0.7480314960629921,
          "duration": 0.14285699999999224
        },
        {
          "name": "F#1",
          "midi": 30,
          "time": 152.71413300000034,
          "velocity": 0.7480314960629921,
          "duration": 0.14285699999999224
        },
        {
          "name": "F#1",
          "midi": 30,
          "time": 152.85699000000034,
          "velocity": 0.7480314960629921,
          "duration": 0.14285699999999224
        },
        {
          "name": "F#1",
          "midi": 30,
          "time": 152.99984700000033,
          "velocity": 0.7480314960629921,
          "duration": 0.14285699999999224
        },
        {
          "name": "F#1",
          "midi": 30,
          "time": 153.14270400000032,
          "velocity": 0.7480314960629921,
          "duration": 0.14285699999999224
        },
        {
          "name": "F#1",
          "midi": 30,
          "time": 153.2855610000003,
          "velocity": 0.7480314960629921,
          "duration": 0.14285699999999224
        },
        {
          "name": "F#1",
          "midi": 30,
          "time": 153.4284180000003,
          "velocity": 0.7480314960629921,
          "duration": 0.14285699999999224
        },
        {
          "name": "F#1",
          "midi": 30,
          "time": 153.5712750000003,
          "velocity": 0.7480314960629921,
          "duration": 0.14285699999999224
        },
        {
          "name": "F#1",
          "midi": 30,
          "time": 153.7141320000003,
          "velocity": 0.7480314960629921,
          "duration": 0.14285699999999224
        },
        {
          "name": "F#1",
          "midi": 30,
          "time": 153.85698900000028,
          "velocity": 0.7480314960629921,
          "duration": 0.14285699999999224
        },
        {
          "name": "F#1",
          "midi": 30,
          "time": 153.99984600000028,
          "velocity": 0.7480314960629921,
          "duration": 0.14285699999999224
        },
        {
          "name": "F#1",
          "midi": 30,
          "time": 154.14270300000027,
          "velocity": 0.7480314960629921,
          "duration": 0.14285699999999224
        },
        {
          "name": "F#1",
          "midi": 30,
          "time": 154.28556000000026,
          "velocity": 0.7480314960629921,
          "duration": 0.14285699999999224
        },
        {
          "name": "F#1",
          "midi": 30,
          "time": 154.42841700000025,
          "velocity": 0.7480314960629921,
          "duration": 0.14285699999999224
        },
        {
          "name": "F#1",
          "midi": 30,
          "time": 154.57127400000024,
          "velocity": 0.7480314960629921,
          "duration": 0.14285699999999224
        },
        {
          "name": "F#1",
          "midi": 30,
          "time": 154.71413100000024,
          "velocity": 0.7480314960629921,
          "duration": 0.14285699999999224
        },
        {
          "name": "F#1",
          "midi": 30,
          "time": 154.85698800000023,
          "velocity": 0.7480314960629921,
          "duration": 0.14285699999999224
        },
        {
          "name": "F#1",
          "midi": 30,
          "time": 154.99984500000022,
          "velocity": 0.7480314960629921,
          "duration": 0.14285699999999224
        },
        {
          "name": "F#1",
          "midi": 30,
          "time": 155.1427020000002,
          "velocity": 0.7480314960629921,
          "duration": 0.14285699999999224
        },
        {
          "name": "F#1",
          "midi": 30,
          "time": 155.2855590000002,
          "velocity": 0.7480314960629921,
          "duration": 0.14285699999999224
        },
        {
          "name": "A1",
          "midi": 33,
          "time": 155.4284160000002,
          "velocity": 0.7480314960629921,
          "duration": 0.14285699999999224
        },
        {
          "name": "A1",
          "midi": 33,
          "time": 155.5712730000002,
          "velocity": 0.7480314960629921,
          "duration": 0.14285699999999224
        },
        {
          "name": "A1",
          "midi": 33,
          "time": 155.71413000000018,
          "velocity": 0.7480314960629921,
          "duration": 0.14285699999999224
        },
        {
          "name": "A1",
          "midi": 33,
          "time": 155.85698700000017,
          "velocity": 0.7480314960629921,
          "duration": 0.14285699999999224
        },
        {
          "name": "A1",
          "midi": 33,
          "time": 155.99984400000017,
          "velocity": 0.7480314960629921,
          "duration": 0.14285699999999224
        },
        {
          "name": "A1",
          "midi": 33,
          "time": 156.14270100000016,
          "velocity": 0.7480314960629921,
          "duration": 0.14285699999999224
        },
        {
          "name": "A1",
          "midi": 33,
          "time": 156.28555800000015,
          "velocity": 0.7480314960629921,
          "duration": 0.14285699999999224
        },
        {
          "name": "A1",
          "midi": 33,
          "time": 156.42841500000014,
          "velocity": 0.7480314960629921,
          "duration": 0.14285699999999224
        },
        {
          "name": "A1",
          "midi": 33,
          "time": 156.57127200000014,
          "velocity": 0.7480314960629921,
          "duration": 0.14285699999999224
        },
        {
          "name": "A1",
          "midi": 33,
          "time": 156.71412900000013,
          "velocity": 0.7480314960629921,
          "duration": 0.14285699999999224
        },
        {
          "name": "A1",
          "midi": 33,
          "time": 156.85698600000012,
          "velocity": 0.7480314960629921,
          "duration": 0.14285699999999224
        },
        {
          "name": "A1",
          "midi": 33,
          "time": 156.9998430000001,
          "velocity": 0.7480314960629921,
          "duration": 0.14285699999999224
        },
        {
          "name": "A1",
          "midi": 33,
          "time": 157.1427000000001,
          "velocity": 0.7480314960629921,
          "duration": 0.14285699999999224
        },
        {
          "name": "A1",
          "midi": 33,
          "time": 157.2855570000001,
          "velocity": 0.7480314960629921,
          "duration": 0.14285699999999224
        },
        {
          "name": "A1",
          "midi": 33,
          "time": 157.4284140000001,
          "velocity": 0.7480314960629921,
          "duration": 0.14285699999999224
        },
        {
          "name": "A1",
          "midi": 33,
          "time": 157.57127100000008,
          "velocity": 0.7480314960629921,
          "duration": 0.14285699999999224
        },
        {
          "name": "E2",
          "midi": 40,
          "time": 157.71412800000007,
          "velocity": 0.7480314960629921,
          "duration": 0.14285699999999224
        },
        {
          "name": "E2",
          "midi": 40,
          "time": 157.85698500000007,
          "velocity": 0.7480314960629921,
          "duration": 0.14285699999999224
        },
        {
          "name": "E2",
          "midi": 40,
          "time": 157.99984200000006,
          "velocity": 0.7480314960629921,
          "duration": 0.14285699999999224
        },
        {
          "name": "E2",
          "midi": 40,
          "time": 158.14269900000005,
          "velocity": 0.7480314960629921,
          "duration": 0.14285699999999224
        },
        {
          "name": "E2",
          "midi": 40,
          "time": 158.28555600000004,
          "velocity": 0.7480314960629921,
          "duration": 0.14285699999999224
        },
        {
          "name": "E2",
          "midi": 40,
          "time": 158.42841300000003,
          "velocity": 0.7480314960629921,
          "duration": 0.14285699999999224
        },
        {
          "name": "E2",
          "midi": 40,
          "time": 158.57127000000003,
          "velocity": 0.7480314960629921,
          "duration": 0.14285699999999224
        },
        {
          "name": "E2",
          "midi": 40,
          "time": 158.71412700000002,
          "velocity": 0.7480314960629921,
          "duration": 0.14285699999999224
        },
        {
          "name": "E2",
          "midi": 40,
          "time": 158.856984,
          "velocity": 0.7480314960629921,
          "duration": 0.14285699999999224
        },
        {
          "name": "E2",
          "midi": 40,
          "time": 158.999841,
          "velocity": 0.7480314960629921,
          "duration": 0.14285699999999224
        },
        {
          "name": "E2",
          "midi": 40,
          "time": 159.142698,
          "velocity": 0.7480314960629921,
          "duration": 0.14285699999999224
        },
        {
          "name": "E2",
          "midi": 40,
          "time": 159.285555,
          "velocity": 0.7480314960629921,
          "duration": 0.14285699999999224
        },
        {
          "name": "E2",
          "midi": 40,
          "time": 159.42841199999998,
          "velocity": 0.7480314960629921,
          "duration": 0.14285699999999224
        },
        {
          "name": "E2",
          "midi": 40,
          "time": 159.57126899999997,
          "velocity": 0.7480314960629921,
          "duration": 0.14285699999999224
        },
        {
          "name": "E2",
          "midi": 40,
          "time": 159.71412599999996,
          "velocity": 0.7480314960629921,
          "duration": 0.14285699999999224
        },
        {
          "name": "E2",
          "midi": 40,
          "time": 159.85698299999996,
          "velocity": 0.7480314960629921,
          "duration": 0.14285699999999224
        },
        {
          "name": "C#2",
          "midi": 37,
          "time": 159.99983999999995,
          "velocity": 0.7480314960629921,
          "duration": 2.2857119999999895
        },
        {
          "name": "F#1",
          "midi": 30,
          "time": 162.28555199999994,
          "velocity": 0.7480314960629921,
          "duration": 4.5714240000000075
        }
      ],
      "controlChanges": {
        "6": [
          {
            "number": 6,
            "time": 0,
            "value": 0.09448818897637795
          },
          {
            "number": 6,
            "time": 0,
            "value": 0.5039370078740157
          },
          {
            "number": 6,
            "time": 0,
            "value": 0.09448818897637795
          },
          {
            "number": 6,
            "time": 0,
            "value": 0.5039370078740157
          },
          {
            "number": 6,
            "time": 0,
            "value": 0.5039370078740157
          },
          {
            "number": 6,
            "time": 0,
            "value": 0.5039370078740157
          }
        ],
        "7": [
          {
            "number": 7,
            "time": 0,
            "value": 0.8818897637795275
          },
          {
            "number": 7,
            "time": 0,
            "value": 0.8818897637795275
          }
        ],
        "10": [
          {
            "number": 10,
            "time": 0,
            "value": 0.5039370078740157
          },
          {
            "number": 10,
            "time": 0,
            "value": 0.5039370078740157
          }
        ],
        "38": [
          {
            "number": 38,
            "time": 0,
            "value": 0
          },
          {
            "number": 38,
            "time": 0,
            "value": 0
          }
        ],
        "91": [
          {
            "number": 91,
            "time": 0,
            "value": 0
          },
          {
            "number": 91,
            "time": 0,
            "value": 0
          }
        ],
        "92": [
          {
            "number": 92,
            "time": 0,
            "value": 0
          },
          {
            "number": 92,
            "time": 0,
            "value": 0
          }
        ],
        "93": [
          {
            "number": 93,
            "time": 0,
            "value": 0
          },
          {
            "number": 93,
            "time": 0,
            "value": 0
          }
        ],
        "95": [
          {
            "number": 95,
            "time": 0,
            "value": 0
          },
          {
            "number": 95,
            "time": 0,
            "value": 0
          }
        ],
        "100": [
          {
            "number": 100,
            "time": 0,
            "value": 0
          },
          {
            "number": 100,
            "time": 0,
            "value": 0.007874015748031496
          },
          {
            "number": 100,
            "time": 0,
            "value": 1
          },
          {
            "number": 100,
            "time": 0,
            "value": 0
          },
          {
            "number": 100,
            "time": 0,
            "value": 0.007874015748031496
          },
          {
            "number": 100,
            "time": 0,
            "value": 1
          },
          {
            "number": 100,
            "time": 0,
            "value": 0.015748031496062992
          },
          {
            "number": 100,
            "time": 0,
            "value": 1
          },
          {
            "number": 100,
            "time": 0,
            "value": 0.015748031496062992
          },
          {
            "number": 100,
            "time": 0,
            "value": 1
          }
        ],
        "101": [
          {
            "number": 101,
            "time": 0,
            "value": 0
          },
          {
            "number": 101,
            "time": 0,
            "value": 0
          },
          {
            "number": 101,
            "time": 0,
            "value": 1
          },
          {
            "number": 101,
            "time": 0,
            "value": 0
          },
          {
            "number": 101,
            "time": 0,
            "value": 0
          },
          {
            "number": 101,
            "time": 0,
            "value": 1
          },
          {
            "number": 101,
            "time": 0,
            "value": 0
          },
          {
            "number": 101,
            "time": 0,
            "value": 1
          },
          {
            "number": 101,
            "time": 0,
            "value": 0
          },
          {
            "number": 101,
            "time": 0,
            "value": 1
          }
        ]
      },
      "id": 3,
      "name": "Andy",
      "instrumentNumber": 34,
      "instrument": "electric bass (pick)",
      "instrumentFamily": "bass",
      "channelNumber": 4,
      "isPercussion": false
    },
    {
      "startTime": 0,
      "duration": 166.85697600000097,
      "length": 1171,
      "notes": [
        {
          "name": "D2",
          "midi": 38,
          "time": 0,
          "velocity": 0.7480314960629921,
          "duration": 0.142857
        },
        {
          "name": "D2",
          "midi": 38,
          "time": 0.142857,
          "velocity": 0.7480314960629921,
          "duration": 0.142857
        },
        {
          "name": "D2",
          "midi": 38,
          "time": 0.285714,
          "velocity": 0.7480314960629921,
          "duration": 0.285714
        },
        {
          "name": "D2",
          "midi": 38,
          "time": 0.571428,
          "velocity": 0.7480314960629921,
          "duration": 0.285714
        },
        {
          "name": "D2",
          "midi": 38,
          "time": 0.8571420000000001,
          "velocity": 0.7480314960629921,
          "duration": 0.142857
        },
        {
          "name": "D2",
          "midi": 38,
          "time": 0.9999990000000001,
          "velocity": 0.7480314960629921,
          "duration": 0.142857
        },
        {
          "name": "D2",
          "midi": 38,
          "time": 1.142856,
          "velocity": 0.7480314960629921,
          "duration": 0.142857
        },
        {
          "name": "D2",
          "midi": 38,
          "time": 1.285713,
          "velocity": 0.7480314960629921,
          "duration": 0.142857
        },
        {
          "name": "D2",
          "midi": 38,
          "time": 1.4285700000000001,
          "velocity": 0.7480314960629921,
          "duration": 0.285714
        },
        {
          "name": "D2",
          "midi": 38,
          "time": 1.7142840000000001,
          "velocity": 0.7480314960629921,
          "duration": 0.285714
        },
        {
          "name": "D2",
          "midi": 38,
          "time": 1.9999980000000002,
          "velocity": 0.7480314960629921,
          "duration": 0.07142850000000012
        },
        {
          "name": "D2",
          "midi": 38,
          "time": 2.0714265000000003,
          "velocity": 0.7480314960629921,
          "duration": 0.07142850000000012
        },
        {
          "name": "D2",
          "midi": 38,
          "time": 2.1428550000000004,
          "velocity": 0.7480314960629921,
          "duration": 0.1428569999999998
        },
        {
          "name": "D2",
          "midi": 38,
          "time": 2.285712,
          "velocity": 0.7480314960629921,
          "duration": 0.14285700000000023
        },
        {
          "name": "D2",
          "midi": 38,
          "time": 2.4285690000000004,
          "velocity": 0.7480314960629921,
          "duration": 0.14285700000000023
        },
        {
          "name": "D2",
          "midi": 38,
          "time": 2.5714260000000007,
          "velocity": 0.7480314960629921,
          "duration": 0.285714
        },
        {
          "name": "D2",
          "midi": 38,
          "time": 2.8571400000000007,
          "velocity": 0.7480314960629921,
          "duration": 0.285714
        },
        {
          "name": "D2",
          "midi": 38,
          "time": 3.1428540000000007,
          "velocity": 0.7480314960629921,
          "duration": 0.14285700000000023
        },
        {
          "name": "D2",
          "midi": 38,
          "time": 3.285711000000001,
          "velocity": 0.7480314960629921,
          "duration": 0.14285700000000023
        },
        {
          "name": "D2",
          "midi": 38,
          "time": 3.428568000000001,
          "velocity": 0.7480314960629921,
          "duration": 0.14285700000000023
        },
        {
          "name": "D2",
          "midi": 38,
          "time": 3.5714250000000014,
          "velocity": 0.7480314960629921,
          "duration": 0.14285700000000023
        },
        {
          "name": "D2",
          "midi": 38,
          "time": 3.7142820000000016,
          "velocity": 0.7480314960629921,
          "duration": 0.285714
        },
        {
          "name": "D2",
          "midi": 38,
          "time": 3.9999960000000017,
          "velocity": 0.7480314960629921,
          "duration": 0.285714
        },
        {
          "name": "D2",
          "midi": 38,
          "time": 4.285710000000002,
          "velocity": 0.7480314960629921,
          "duration": 0.14285700000000023
        },
        {
          "name": "D2",
          "midi": 38,
          "time": 4.428567000000002,
          "velocity": 0.7480314960629921,
          "duration": 0.14285700000000023
        },
        {
          "name": "D2",
          "midi": 38,
          "time": 4.571424000000002,
          "velocity": 0.7480314960629921,
          "duration": 0.14285700000000023
        },
        {
          "name": "D2",
          "midi": 38,
          "time": 4.714281000000002,
          "velocity": 0.7480314960629921,
          "duration": 0.14285700000000023
        },
        {
          "name": "D2",
          "midi": 38,
          "time": 4.857138000000003,
          "velocity": 0.7480314960629921,
          "duration": 0.28571400000000047
        },
        {
          "name": "D2",
          "midi": 38,
          "time": 5.142852000000003,
          "velocity": 0.7480314960629921,
          "duration": 0.28571400000000047
        },
        {
          "name": "D2",
          "midi": 38,
          "time": 5.4285660000000036,
          "velocity": 0.7480314960629921,
          "duration": 0.14285700000000023
        },
        {
          "name": "D2",
          "midi": 38,
          "time": 5.571423000000004,
          "velocity": 0.7480314960629921,
          "duration": 0.14285700000000023
        },
        {
          "name": "D2",
          "midi": 38,
          "time": 5.714280000000004,
          "velocity": 0.7480314960629921,
          "duration": 0.14285700000000023
        },
        {
          "name": "D2",
          "midi": 38,
          "time": 5.857137000000004,
          "velocity": 0.7480314960629921,
          "duration": 0.14285700000000023
        },
        {
          "name": "D2",
          "midi": 38,
          "time": 5.9999940000000045,
          "velocity": 0.7480314960629921,
          "duration": 0.28571400000000047
        },
        {
          "name": "D2",
          "midi": 38,
          "time": 6.285708000000005,
          "velocity": 0.7480314960629921,
          "duration": 0.28571400000000047
        },
        {
          "name": "D2",
          "midi": 38,
          "time": 6.571422000000005,
          "velocity": 0.7480314960629921,
          "duration": 0.07142849999999967
        },
        {
          "name": "D2",
          "midi": 38,
          "time": 6.642850500000005,
          "velocity": 0.7480314960629921,
          "duration": 0.07142849999999967
        },
        {
          "name": "D2",
          "midi": 38,
          "time": 6.714279000000005,
          "velocity": 0.7480314960629921,
          "duration": 0.14285700000000023
        },
        {
          "name": "D2",
          "midi": 38,
          "time": 6.857136000000005,
          "velocity": 0.7480314960629921,
          "duration": 0.14285700000000023
        },
        {
          "name": "D2",
          "midi": 38,
          "time": 6.999993000000005,
          "velocity": 0.7480314960629921,
          "duration": 0.14285700000000023
        },
        {
          "name": "D2",
          "midi": 38,
          "time": 7.1428500000000055,
          "velocity": 0.7480314960629921,
          "duration": 0.2857139999999996
        },
        {
          "name": "D2",
          "midi": 38,
          "time": 7.428564000000005,
          "velocity": 0.7480314960629921,
          "duration": 0.28571400000000047
        },
        {
          "name": "D2",
          "midi": 38,
          "time": 7.7142780000000055,
          "velocity": 0.7480314960629921,
          "duration": 0.14285700000000023
        },
        {
          "name": "D2",
          "midi": 38,
          "time": 7.857135000000006,
          "velocity": 0.7480314960629921,
          "duration": 0.14285700000000023
        },
        {
          "name": "D2",
          "midi": 38,
          "time": 7.999992000000006,
          "velocity": 0.7480314960629921,
          "duration": 0.14285699999999935
        },
        {
          "name": "D2",
          "midi": 38,
          "time": 8.142849000000005,
          "velocity": 0.7480314960629921,
          "duration": 0.14285699999999935
        },
        {
          "name": "D2",
          "midi": 38,
          "time": 8.285706000000005,
          "velocity": 0.7480314960629921,
          "duration": 0.28571400000000047
        },
        {
          "name": "D2",
          "midi": 38,
          "time": 8.571420000000005,
          "velocity": 0.7480314960629921,
          "duration": 0.28571400000000047
        },
        {
          "name": "D2",
          "midi": 38,
          "time": 8.857134000000006,
          "velocity": 0.7480314960629921,
          "duration": 0.14285699999999935
        },
        {
          "name": "D2",
          "midi": 38,
          "time": 8.999991000000005,
          "velocity": 0.7480314960629921,
          "duration": 0.14285699999999935
        },
        {
          "name": "F#2",
          "midi": 42,
          "time": 9.142848000000004,
          "velocity": 0.7480314960629921,
          "duration": 0.28571400000000047
        },
        {
          "name": "D2",
          "midi": 38,
          "time": 9.142848000000004,
          "velocity": 0.7480314960629921,
          "duration": 0.28571400000000047
        },
        {
          "name": "F#2",
          "midi": 42,
          "time": 9.428562000000005,
          "velocity": 0.7480314960629921,
          "duration": 0.28571400000000047
        },
        {
          "name": "D2",
          "midi": 38,
          "time": 9.428562000000005,
          "velocity": 0.7480314960629921,
          "duration": 0.28571400000000047
        },
        {
          "name": "F#2",
          "midi": 42,
          "time": 9.714276000000005,
          "velocity": 0.7480314960629921,
          "duration": 0.2857139999999987
        },
        {
          "name": "D2",
          "midi": 38,
          "time": 9.714276000000005,
          "velocity": 0.7480314960629921,
          "duration": 0.14285699999999935
        },
        {
          "name": "C2",
          "midi": 36,
          "time": 9.857133000000005,
          "velocity": 0.7480314960629921,
          "duration": 0.14285699999999935
        },
        {
          "name": "F#2",
          "midi": 42,
          "time": 9.999990000000004,
          "velocity": 0.7480314960629921,
          "duration": 0.2857139999999987
        },
        {
          "name": "D2",
          "midi": 38,
          "time": 9.999990000000004,
          "velocity": 0.7480314960629921,
          "duration": 0.14285699999999935
        },
        {
          "name": "C2",
          "midi": 36,
          "time": 10.142847000000003,
          "velocity": 0.7480314960629921,
          "duration": 0.14285699999999935
        },
        {
          "name": "F#2",
          "midi": 42,
          "time": 10.285704000000003,
          "velocity": 0.7480314960629921,
          "duration": 0.28571400000000047
        },
        {
          "name": "D2",
          "midi": 38,
          "time": 10.285704000000003,
          "velocity": 0.7480314960629921,
          "duration": 0.28571400000000047
        },
        {
          "name": "F#2",
          "midi": 42,
          "time": 10.571418000000003,
          "velocity": 0.7480314960629921,
          "duration": 0.28571400000000047
        },
        {
          "name": "D2",
          "midi": 38,
          "time": 10.571418000000003,
          "velocity": 0.7480314960629921,
          "duration": 0.28571400000000047
        },
        {
          "name": "F#2",
          "midi": 42,
          "time": 10.857132000000004,
          "velocity": 0.7480314960629921,
          "duration": 0.2857139999999987
        },
        {
          "name": "D2",
          "midi": 38,
          "time": 10.857132000000004,
          "velocity": 0.7480314960629921,
          "duration": 0.14285699999999935
        },
        {
          "name": "C2",
          "midi": 36,
          "time": 10.999989000000003,
          "velocity": 0.7480314960629921,
          "duration": 0.14285699999999935
        },
        {
          "name": "F#2",
          "midi": 42,
          "time": 11.142846000000002,
          "velocity": 0.7480314960629921,
          "duration": 0.2857139999999987
        },
        {
          "name": "D2",
          "midi": 38,
          "time": 11.142846000000002,
          "velocity": 0.7480314960629921,
          "duration": 0.14285699999999935
        },
        {
          "name": "C2",
          "midi": 36,
          "time": 11.285703000000002,
          "velocity": 0.7480314960629921,
          "duration": 0.14285699999999935
        },
        {
          "name": "F#2",
          "midi": 42,
          "time": 11.428560000000001,
          "velocity": 0.7480314960629921,
          "duration": 0.28571400000000047
        },
        {
          "name": "D2",
          "midi": 38,
          "time": 11.428560000000001,
          "velocity": 0.7480314960629921,
          "duration": 0.28571400000000047
        },
        {
          "name": "F#2",
          "midi": 42,
          "time": 11.714274000000001,
          "velocity": 0.7480314960629921,
          "duration": 0.28571400000000047
        },
        {
          "name": "D2",
          "midi": 38,
          "time": 11.714274000000001,
          "velocity": 0.7480314960629921,
          "duration": 0.28571400000000047
        },
        {
          "name": "F#2",
          "midi": 42,
          "time": 11.999988000000002,
          "velocity": 0.7480314960629921,
          "duration": 0.2857139999999987
        },
        {
          "name": "D2",
          "midi": 38,
          "time": 11.999988000000002,
          "velocity": 0.7480314960629921,
          "duration": 0.14285699999999935
        },
        {
          "name": "C2",
          "midi": 36,
          "time": 12.142845000000001,
          "velocity": 0.7480314960629921,
          "duration": 0.14285699999999935
        },
        {
          "name": "F#2",
          "midi": 42,
          "time": 12.285702,
          "velocity": 0.7480314960629921,
          "duration": 0.2857139999999987
        },
        {
          "name": "D2",
          "midi": 38,
          "time": 12.285702,
          "velocity": 0.7480314960629921,
          "duration": 0.14285699999999935
        },
        {
          "name": "C2",
          "midi": 36,
          "time": 12.428559,
          "velocity": 0.7480314960629921,
          "duration": 0.14285699999999935
        },
        {
          "name": "F#2",
          "midi": 42,
          "time": 12.571416,
          "velocity": 0.7480314960629921,
          "duration": 0.28571400000000047
        },
        {
          "name": "D2",
          "midi": 38,
          "time": 12.571416,
          "velocity": 0.7480314960629921,
          "duration": 0.28571400000000047
        },
        {
          "name": "F#2",
          "midi": 42,
          "time": 12.85713,
          "velocity": 0.7480314960629921,
          "duration": 0.28571400000000047
        },
        {
          "name": "D2",
          "midi": 38,
          "time": 12.85713,
          "velocity": 0.7480314960629921,
          "duration": 0.28571400000000047
        },
        {
          "name": "F#2",
          "midi": 42,
          "time": 13.142844,
          "velocity": 0.7480314960629921,
          "duration": 0.2857139999999987
        },
        {
          "name": "D2",
          "midi": 38,
          "time": 13.142844,
          "velocity": 0.7480314960629921,
          "duration": 0.14285699999999935
        },
        {
          "name": "C2",
          "midi": 36,
          "time": 13.285701,
          "velocity": 0.7480314960629921,
          "duration": 0.14285699999999935
        },
        {
          "name": "F#2",
          "midi": 42,
          "time": 13.428557999999999,
          "velocity": 0.7480314960629921,
          "duration": 0.2857139999999987
        },
        {
          "name": "D2",
          "midi": 38,
          "time": 13.428557999999999,
          "velocity": 0.7480314960629921,
          "duration": 0.14285699999999935
        },
        {
          "name": "C2",
          "midi": 36,
          "time": 13.571414999999998,
          "velocity": 0.7480314960629921,
          "duration": 0.14285699999999935
        },
        {
          "name": "D2",
          "midi": 38,
          "time": 13.714271999999998,
          "velocity": 0.7480314960629921,
          "duration": 0.28571400000000047
        },
        {
          "name": "C#3",
          "midi": 49,
          "time": 13.714271999999998,
          "velocity": 0.7480314960629921,
          "duration": 1.1428559999999983
        },
        {
          "name": "F#2",
          "midi": 42,
          "time": 13.999985999999998,
          "velocity": 0.7480314960629921,
          "duration": 0.28571400000000047
        },
        {
          "name": "D2",
          "midi": 38,
          "time": 13.999985999999998,
          "velocity": 0.7480314960629921,
          "duration": 0.28571400000000047
        },
        {
          "name": "F#2",
          "midi": 42,
          "time": 14.285699999999999,
          "velocity": 0.7480314960629921,
          "duration": 0.2857139999999987
        },
        {
          "name": "D2",
          "midi": 38,
          "time": 14.285699999999999,
          "velocity": 0.7480314960629921,
          "duration": 0.14285699999999935
        },
        {
          "name": "C2",
          "midi": 36,
          "time": 14.428556999999998,
          "velocity": 0.7480314960629921,
          "duration": 0.14285699999999935
        },
        {
          "name": "F#2",
          "midi": 42,
          "time": 14.571413999999997,
          "velocity": 0.7480314960629921,
          "duration": 0.2857139999999987
        },
        {
          "name": "D2",
          "midi": 38,
          "time": 14.571413999999997,
          "velocity": 0.7480314960629921,
          "duration": 0.14285699999999935
        },
        {
          "name": "C2",
          "midi": 36,
          "time": 14.714270999999997,
          "velocity": 0.7480314960629921,
          "duration": 0.14285699999999935
        },
        {
          "name": "C#3",
          "midi": 49,
          "time": 14.857127999999996,
          "velocity": 0.7480314960629921,
          "duration": 0.28571400000000047
        },
        {
          "name": "D2",
          "midi": 38,
          "time": 14.857127999999996,
          "velocity": 0.7480314960629921,
          "duration": 0.28571400000000047
        },
        {
          "name": "F#2",
          "midi": 42,
          "time": 15.142841999999996,
          "velocity": 0.7480314960629921,
          "duration": 0.28571400000000047
        },
        {
          "name": "D2",
          "midi": 38,
          "time": 15.142841999999996,
          "velocity": 0.7480314960629921,
          "duration": 0.28571400000000047
        },
        {
          "name": "F#2",
          "midi": 42,
          "time": 15.428555999999997,
          "velocity": 0.7480314960629921,
          "duration": 0.2857139999999987
        },
        {
          "name": "D2",
          "midi": 38,
          "time": 15.428555999999997,
          "velocity": 0.7480314960629921,
          "duration": 0.14285699999999935
        },
        {
          "name": "C2",
          "midi": 36,
          "time": 15.571412999999996,
          "velocity": 0.7480314960629921,
          "duration": 0.14285699999999935
        },
        {
          "name": "F#2",
          "midi": 42,
          "time": 15.714269999999996,
          "velocity": 0.7480314960629921,
          "duration": 0.2857139999999987
        },
        {
          "name": "D2",
          "midi": 38,
          "time": 15.714269999999996,
          "velocity": 0.7480314960629921,
          "duration": 0.14285699999999935
        },
        {
          "name": "C2",
          "midi": 36,
          "time": 15.857126999999995,
          "velocity": 0.7480314960629921,
          "duration": 0.14285699999999935
        },
        {
          "name": "C#3",
          "midi": 49,
          "time": 15.999983999999994,
          "velocity": 0.7480314960629921,
          "duration": 0.2857139999999987
        },
        {
          "name": "D2",
          "midi": 38,
          "time": 15.999983999999994,
          "velocity": 0.7480314960629921,
          "duration": 0.2857139999999987
        },
        {
          "name": "F#2",
          "midi": 42,
          "time": 16.285697999999993,
          "velocity": 0.7480314960629921,
          "duration": 0.2857139999999987
        },
        {
          "name": "D2",
          "midi": 38,
          "time": 16.285697999999993,
          "velocity": 0.7480314960629921,
          "duration": 0.2857139999999987
        },
        {
          "name": "C#3",
          "midi": 49,
          "time": 16.57141199999999,
          "velocity": 0.7480314960629921,
          "duration": 0.2857139999999987
        },
        {
          "name": "D2",
          "midi": 38,
          "time": 16.57141199999999,
          "velocity": 0.7480314960629921,
          "duration": 0.14285699999999935
        },
        {
          "name": "C2",
          "midi": 36,
          "time": 16.71426899999999,
          "velocity": 0.7480314960629921,
          "duration": 0.14285699999999935
        },
        {
          "name": "F#2",
          "midi": 42,
          "time": 16.85712599999999,
          "velocity": 0.7480314960629921,
          "duration": 0.2857139999999987
        },
        {
          "name": "D2",
          "midi": 38,
          "time": 16.85712599999999,
          "velocity": 0.7480314960629921,
          "duration": 0.14285699999999935
        },
        {
          "name": "C2",
          "midi": 36,
          "time": 16.99998299999999,
          "velocity": 0.7480314960629921,
          "duration": 0.14285699999999935
        },
        {
          "name": "C#3",
          "midi": 49,
          "time": 17.14283999999999,
          "velocity": 0.7480314960629921,
          "duration": 0.2857139999999987
        },
        {
          "name": "D2",
          "midi": 38,
          "time": 17.14283999999999,
          "velocity": 0.7480314960629921,
          "duration": 0.2857139999999987
        },
        {
          "name": "C#3",
          "midi": 49,
          "time": 17.428553999999988,
          "velocity": 0.7480314960629921,
          "duration": 0.2857139999999987
        },
        {
          "name": "D2",
          "midi": 38,
          "time": 17.428553999999988,
          "velocity": 0.7480314960629921,
          "duration": 0.2857139999999987
        },
        {
          "name": "C#3",
          "midi": 49,
          "time": 17.714267999999986,
          "velocity": 0.7480314960629921,
          "duration": 0.2857139999999987
        },
        {
          "name": "D2",
          "midi": 38,
          "time": 17.714267999999986,
          "velocity": 0.7480314960629921,
          "duration": 0.14285699999999935
        },
        {
          "name": "C#3",
          "midi": 49,
          "time": 17.999981999999985,
          "velocity": 0.7480314960629921,
          "duration": 0.2857139999999987
        },
        {
          "name": "D2",
          "midi": 38,
          "time": 17.999981999999985,
          "velocity": 0.7480314960629921,
          "duration": 0.2857139999999987
        },
        {
          "name": "F#2",
          "midi": 42,
          "time": 18.285695999999984,
          "velocity": 0.7480314960629921,
          "duration": 0.2857139999999987
        },
        {
          "name": "C2",
          "midi": 36,
          "time": 18.285695999999984,
          "velocity": 0.7480314960629921,
          "duration": 0.2857139999999987
        },
        {
          "name": "F#2",
          "midi": 42,
          "time": 18.571409999999982,
          "velocity": 0.7480314960629921,
          "duration": 0.2857139999999987
        },
        {
          "name": "D2",
          "midi": 38,
          "time": 18.571409999999982,
          "velocity": 0.7480314960629921,
          "duration": 0.14285699999999935
        },
        {
          "name": "C2",
          "midi": 36,
          "time": 18.714266999999982,
          "velocity": 0.7480314960629921,
          "duration": 0.2857139999999987
        },
        {
          "name": "F#2",
          "midi": 42,
          "time": 18.85712399999998,
          "velocity": 0.7480314960629921,
          "duration": 0.2857139999999987
        },
        {
          "name": "C2",
          "midi": 36,
          "time": 18.99998099999998,
          "velocity": 0.7480314960629921,
          "duration": 0.14285699999999935
        },
        {
          "name": "F#2",
          "midi": 42,
          "time": 19.14283799999998,
          "velocity": 0.7480314960629921,
          "duration": 0.2857139999999987
        },
        {
          "name": "D2",
          "midi": 38,
          "time": 19.14283799999998,
          "velocity": 0.7480314960629921,
          "duration": 0.2857139999999987
        },
        {
          "name": "F#2",
          "midi": 42,
          "time": 19.42855199999998,
          "velocity": 0.7480314960629921,
          "duration": 0.2857139999999987
        },
        {
          "name": "C2",
          "midi": 36,
          "time": 19.42855199999998,
          "velocity": 0.7480314960629921,
          "duration": 0.2857139999999987
        },
        {
          "name": "F#2",
          "midi": 42,
          "time": 19.714265999999977,
          "velocity": 0.7480314960629921,
          "duration": 0.2857139999999987
        },
        {
          "name": "D2",
          "midi": 38,
          "time": 19.714265999999977,
          "velocity": 0.7480314960629921,
          "duration": 0.14285699999999935
        },
        {
          "name": "F#2",
          "midi": 42,
          "time": 19.999979999999976,
          "velocity": 0.7480314960629921,
          "duration": 0.2857139999999987
        },
        {
          "name": "C2",
          "midi": 36,
          "time": 19.999979999999976,
          "velocity": 0.7480314960629921,
          "duration": 0.2857139999999987
        },
        {
          "name": "F#2",
          "midi": 42,
          "time": 20.285693999999975,
          "velocity": 0.7480314960629921,
          "duration": 0.2857139999999987
        },
        {
          "name": "D2",
          "midi": 38,
          "time": 20.285693999999975,
          "velocity": 0.7480314960629921,
          "duration": 0.2857139999999987
        },
        {
          "name": "F#2",
          "midi": 42,
          "time": 20.571407999999973,
          "velocity": 0.7480314960629921,
          "duration": 0.2857139999999987
        },
        {
          "name": "C2",
          "midi": 36,
          "time": 20.571407999999973,
          "velocity": 0.7480314960629921,
          "duration": 0.2857139999999987
        },
        {
          "name": "F#2",
          "midi": 42,
          "time": 20.857121999999972,
          "velocity": 0.7480314960629921,
          "duration": 0.2857139999999987
        },
        {
          "name": "D2",
          "midi": 38,
          "time": 20.857121999999972,
          "velocity": 0.7480314960629921,
          "duration": 0.14285699999999935
        },
        {
          "name": "C2",
          "midi": 36,
          "time": 20.99997899999997,
          "velocity": 0.7480314960629921,
          "duration": 0.2857139999999987
        },
        {
          "name": "F#2",
          "midi": 42,
          "time": 21.14283599999997,
          "velocity": 0.7480314960629921,
          "duration": 0.2857139999999987
        },
        {
          "name": "C2",
          "midi": 36,
          "time": 21.28569299999997,
          "velocity": 0.7480314960629921,
          "duration": 0.14285699999999935
        },
        {
          "name": "F#2",
          "midi": 42,
          "time": 21.42854999999997,
          "velocity": 0.7480314960629921,
          "duration": 0.2857139999999987
        },
        {
          "name": "D2",
          "midi": 38,
          "time": 21.42854999999997,
          "velocity": 0.7480314960629921,
          "duration": 0.2857139999999987
        },
        {
          "name": "F#2",
          "midi": 42,
          "time": 21.714263999999968,
          "velocity": 0.7480314960629921,
          "duration": 0.2857139999999987
        },
        {
          "name": "C2",
          "midi": 36,
          "time": 21.714263999999968,
          "velocity": 0.7480314960629921,
          "duration": 0.2857139999999987
        },
        {
          "name": "F#2",
          "midi": 42,
          "time": 21.999977999999967,
          "velocity": 0.7480314960629921,
          "duration": 0.2857139999999987
        },
        {
          "name": "D2",
          "midi": 38,
          "time": 21.999977999999967,
          "velocity": 0.7480314960629921,
          "duration": 0.14285699999999935
        },
        {
          "name": "F#2",
          "midi": 42,
          "time": 22.285691999999965,
          "velocity": 0.7480314960629921,
          "duration": 0.2857139999999987
        },
        {
          "name": "C2",
          "midi": 36,
          "time": 22.285691999999965,
          "velocity": 0.7480314960629921,
          "duration": 0.2857139999999987
        },
        {
          "name": "F#2",
          "midi": 42,
          "time": 22.571405999999964,
          "velocity": 0.7480314960629921,
          "duration": 0.2857139999999987
        },
        {
          "name": "D2",
          "midi": 38,
          "time": 22.571405999999964,
          "velocity": 0.7480314960629921,
          "duration": 0.2857139999999987
        },
        {
          "name": "F#2",
          "midi": 42,
          "time": 22.857119999999963,
          "velocity": 0.7480314960629921,
          "duration": 0.2857139999999987
        },
        {
          "name": "C2",
          "midi": 36,
          "time": 22.857119999999963,
          "velocity": 0.7480314960629921,
          "duration": 0.2857139999999987
        },
        {
          "name": "F#2",
          "midi": 42,
          "time": 23.14283399999996,
          "velocity": 0.7480314960629921,
          "duration": 0.2857139999999987
        },
        {
          "name": "D2",
          "midi": 38,
          "time": 23.14283399999996,
          "velocity": 0.7480314960629921,
          "duration": 0.14285699999999935
        },
        {
          "name": "C2",
          "midi": 36,
          "time": 23.28569099999996,
          "velocity": 0.7480314960629921,
          "duration": 0.2857139999999987
        },
        {
          "name": "F#2",
          "midi": 42,
          "time": 23.42854799999996,
          "velocity": 0.7480314960629921,
          "duration": 0.2857139999999987
        },
        {
          "name": "C2",
          "midi": 36,
          "time": 23.57140499999996,
          "velocity": 0.7480314960629921,
          "duration": 0.14285699999999935
        },
        {
          "name": "F#2",
          "midi": 42,
          "time": 23.71426199999996,
          "velocity": 0.7480314960629921,
          "duration": 0.2857139999999987
        },
        {
          "name": "D2",
          "midi": 38,
          "time": 23.71426199999996,
          "velocity": 0.7480314960629921,
          "duration": 0.2857139999999987
        },
        {
          "name": "F#2",
          "midi": 42,
          "time": 23.999975999999958,
          "velocity": 0.7480314960629921,
          "duration": 0.2857139999999987
        },
        {
          "name": "C2",
          "midi": 36,
          "time": 23.999975999999958,
          "velocity": 0.7480314960629921,
          "duration": 0.2857139999999987
        },
        {
          "name": "F#2",
          "midi": 42,
          "time": 24.285689999999956,
          "velocity": 0.7480314960629921,
          "duration": 0.2857139999999987
        },
        {
          "name": "D2",
          "midi": 38,
          "time": 24.285689999999956,
          "velocity": 0.7480314960629921,
          "duration": 0.14285699999999935
        },
        {
          "name": "F#2",
          "midi": 42,
          "time": 24.571403999999955,
          "velocity": 0.7480314960629921,
          "duration": 0.2857139999999987
        },
        {
          "name": "C2",
          "midi": 36,
          "time": 24.571403999999955,
          "velocity": 0.7480314960629921,
          "duration": 0.2857139999999987
        },
        {
          "name": "F#2",
          "midi": 42,
          "time": 24.857117999999954,
          "velocity": 0.7480314960629921,
          "duration": 0.2857139999999987
        },
        {
          "name": "D2",
          "midi": 38,
          "time": 24.857117999999954,
          "velocity": 0.7480314960629921,
          "duration": 0.2857139999999987
        },
        {
          "name": "F#2",
          "midi": 42,
          "time": 25.142831999999952,
          "velocity": 0.7480314960629921,
          "duration": 0.2857139999999987
        },
        {
          "name": "C2",
          "midi": 36,
          "time": 25.142831999999952,
          "velocity": 0.7480314960629921,
          "duration": 0.2857139999999987
        },
        {
          "name": "F#2",
          "midi": 42,
          "time": 25.42854599999995,
          "velocity": 0.7480314960629921,
          "duration": 0.2857139999999987
        },
        {
          "name": "D2",
          "midi": 38,
          "time": 25.42854599999995,
          "velocity": 0.7480314960629921,
          "duration": 0.14285699999999935
        },
        {
          "name": "C2",
          "midi": 36,
          "time": 25.57140299999995,
          "velocity": 0.7480314960629921,
          "duration": 0.2857139999999987
        },
        {
          "name": "F#2",
          "midi": 42,
          "time": 25.71425999999995,
          "velocity": 0.7480314960629921,
          "duration": 0.2857139999999987
        },
        {
          "name": "C2",
          "midi": 36,
          "time": 25.85711699999995,
          "velocity": 0.7480314960629921,
          "duration": 0.14285699999999935
        },
        {
          "name": "F#2",
          "midi": 42,
          "time": 25.99997399999995,
          "velocity": 0.7480314960629921,
          "duration": 0.2857139999999987
        },
        {
          "name": "D2",
          "midi": 38,
          "time": 25.99997399999995,
          "velocity": 0.7480314960629921,
          "duration": 0.2857139999999987
        },
        {
          "name": "F#2",
          "midi": 42,
          "time": 26.285687999999947,
          "velocity": 0.7480314960629921,
          "duration": 0.2857139999999987
        },
        {
          "name": "C2",
          "midi": 36,
          "time": 26.285687999999947,
          "velocity": 0.7480314960629921,
          "duration": 0.2857139999999987
        },
        {
          "name": "A#2",
          "midi": 46,
          "time": 26.571401999999946,
          "velocity": 0.7480314960629921,
          "duration": 0.2857139999999987
        },
        {
          "name": "D2",
          "midi": 38,
          "time": 26.571401999999946,
          "velocity": 0.7480314960629921,
          "duration": 0.8571419999999996
        },
        {
          "name": "C#3",
          "midi": 49,
          "time": 26.857115999999944,
          "velocity": 0.7480314960629921,
          "duration": 0.5714280000000009
        },
        {
          "name": "C#3",
          "midi": 49,
          "time": 27.428543999999945,
          "velocity": 0.7480314960629921,
          "duration": 0.2857139999999987
        },
        {
          "name": "C2",
          "midi": 36,
          "time": 27.428543999999945,
          "velocity": 0.7480314960629921,
          "duration": 0.2857139999999987
        },
        {
          "name": "F#2",
          "midi": 42,
          "time": 27.714257999999944,
          "velocity": 0.7480314960629921,
          "duration": 0.2857139999999987
        },
        {
          "name": "D2",
          "midi": 38,
          "time": 27.714257999999944,
          "velocity": 0.7480314960629921,
          "duration": 0.14285699999999935
        },
        {
          "name": "C2",
          "midi": 36,
          "time": 27.857114999999943,
          "velocity": 0.7480314960629921,
          "duration": 0.2857139999999987
        },
        {
          "name": "F#2",
          "midi": 42,
          "time": 27.999971999999943,
          "velocity": 0.7480314960629921,
          "duration": 0.2857139999999987
        },
        {
          "name": "C2",
          "midi": 36,
          "time": 28.142828999999942,
          "velocity": 0.7480314960629921,
          "duration": 0.14285699999999935
        },
        {
          "name": "F#2",
          "midi": 42,
          "time": 28.28568599999994,
          "velocity": 0.7480314960629921,
          "duration": 0.2857139999999987
        },
        {
          "name": "D2",
          "midi": 38,
          "time": 28.28568599999994,
          "velocity": 0.7480314960629921,
          "duration": 0.2857139999999987
        },
        {
          "name": "F#2",
          "midi": 42,
          "time": 28.57139999999994,
          "velocity": 0.7480314960629921,
          "duration": 0.2857139999999987
        },
        {
          "name": "C2",
          "midi": 36,
          "time": 28.57139999999994,
          "velocity": 0.7480314960629921,
          "duration": 0.2857139999999987
        },
        {
          "name": "F#2",
          "midi": 42,
          "time": 28.85711399999994,
          "velocity": 0.7480314960629921,
          "duration": 0.2857139999999987
        },
        {
          "name": "D2",
          "midi": 38,
          "time": 28.85711399999994,
          "velocity": 0.7480314960629921,
          "duration": 0.14285699999999935
        },
        {
          "name": "F#2",
          "midi": 42,
          "time": 29.142827999999938,
          "velocity": 0.7480314960629921,
          "duration": 0.2857139999999987
        },
        {
          "name": "C2",
          "midi": 36,
          "time": 29.142827999999938,
          "velocity": 0.7480314960629921,
          "duration": 0.2857139999999987
        },
        {
          "name": "F#2",
          "midi": 42,
          "time": 29.428541999999936,
          "velocity": 0.7480314960629921,
          "duration": 0.2857139999999987
        },
        {
          "name": "D2",
          "midi": 38,
          "time": 29.428541999999936,
          "velocity": 0.7480314960629921,
          "duration": 0.2857139999999987
        },
        {
          "name": "F#2",
          "midi": 42,
          "time": 29.714255999999935,
          "velocity": 0.7480314960629921,
          "duration": 0.2857139999999987
        },
        {
          "name": "C2",
          "midi": 36,
          "time": 29.714255999999935,
          "velocity": 0.7480314960629921,
          "duration": 0.2857139999999987
        },
        {
          "name": "F#2",
          "midi": 42,
          "time": 29.999969999999934,
          "velocity": 0.7480314960629921,
          "duration": 0.2857139999999987
        },
        {
          "name": "D2",
          "midi": 38,
          "time": 29.999969999999934,
          "velocity": 0.7480314960629921,
          "duration": 0.14285699999999935
        },
        {
          "name": "C2",
          "midi": 36,
          "time": 30.142826999999933,
          "velocity": 0.7480314960629921,
          "duration": 0.2857139999999987
        },
        {
          "name": "F#2",
          "midi": 42,
          "time": 30.285683999999932,
          "velocity": 0.7480314960629921,
          "duration": 0.2857139999999987
        },
        {
          "name": "C2",
          "midi": 36,
          "time": 30.42854099999993,
          "velocity": 0.7480314960629921,
          "duration": 0.14285699999999935
        },
        {
          "name": "F#2",
          "midi": 42,
          "time": 30.57139799999993,
          "velocity": 0.7480314960629921,
          "duration": 0.2857139999999987
        },
        {
          "name": "D2",
          "midi": 38,
          "time": 30.57139799999993,
          "velocity": 0.7480314960629921,
          "duration": 0.2857139999999987
        },
        {
          "name": "F#2",
          "midi": 42,
          "time": 30.85711199999993,
          "velocity": 0.7480314960629921,
          "duration": 0.2857139999999987
        },
        {
          "name": "C2",
          "midi": 36,
          "time": 30.85711199999993,
          "velocity": 0.7480314960629921,
          "duration": 0.2857139999999987
        },
        {
          "name": "F#2",
          "midi": 42,
          "time": 31.14282599999993,
          "velocity": 0.7480314960629921,
          "duration": 0.2857139999999987
        },
        {
          "name": "D2",
          "midi": 38,
          "time": 31.14282599999993,
          "velocity": 0.7480314960629921,
          "duration": 0.14285699999999935
        },
        {
          "name": "F#2",
          "midi": 42,
          "time": 31.428539999999927,
          "velocity": 0.7480314960629921,
          "duration": 0.2857139999999987
        },
        {
          "name": "C2",
          "midi": 36,
          "time": 31.428539999999927,
          "velocity": 0.7480314960629921,
          "duration": 0.2857139999999987
        },
        {
          "name": "F#2",
          "midi": 42,
          "time": 31.714253999999926,
          "velocity": 0.7480314960629921,
          "duration": 0.2857139999999987
        },
        {
          "name": "D2",
          "midi": 38,
          "time": 31.714253999999926,
          "velocity": 0.7480314960629921,
          "duration": 0.2857139999999987
        },
        {
          "name": "F#2",
          "midi": 42,
          "time": 31.999967999999924,
          "velocity": 0.7480314960629921,
          "duration": 0.2857139999999987
        },
        {
          "name": "C2",
          "midi": 36,
          "time": 31.999967999999924,
          "velocity": 0.7480314960629921,
          "duration": 0.2857139999999987
        },
        {
          "name": "F#2",
          "midi": 42,
          "time": 32.28568199999992,
          "velocity": 0.7480314960629921,
          "duration": 0.2857139999999987
        },
        {
          "name": "D2",
          "midi": 38,
          "time": 32.28568199999992,
          "velocity": 0.7480314960629921,
          "duration": 0.14285699999999935
        },
        {
          "name": "C2",
          "midi": 36,
          "time": 32.42853899999992,
          "velocity": 0.7480314960629921,
          "duration": 0.2857139999999987
        },
        {
          "name": "F#2",
          "midi": 42,
          "time": 32.57139599999992,
          "velocity": 0.7480314960629921,
          "duration": 0.2857139999999987
        },
        {
          "name": "C2",
          "midi": 36,
          "time": 32.71425299999992,
          "velocity": 0.7480314960629921,
          "duration": 0.14285699999999935
        },
        {
          "name": "F#2",
          "midi": 42,
          "time": 32.85710999999992,
          "velocity": 0.7480314960629921,
          "duration": 0.2857139999999987
        },
        {
          "name": "D2",
          "midi": 38,
          "time": 32.85710999999992,
          "velocity": 0.7480314960629921,
          "duration": 0.2857139999999987
        },
        {
          "name": "F#2",
          "midi": 42,
          "time": 33.14282399999992,
          "velocity": 0.7480314960629921,
          "duration": 0.2857139999999987
        },
        {
          "name": "C2",
          "midi": 36,
          "time": 33.14282399999992,
          "velocity": 0.7480314960629921,
          "duration": 0.2857139999999987
        },
        {
          "name": "F#2",
          "midi": 42,
          "time": 33.42853799999992,
          "velocity": 0.7480314960629921,
          "duration": 0.2857139999999987
        },
        {
          "name": "D2",
          "midi": 38,
          "time": 33.42853799999992,
          "velocity": 0.7480314960629921,
          "duration": 0.14285699999999935
        },
        {
          "name": "F#2",
          "midi": 42,
          "time": 33.71425199999992,
          "velocity": 0.7480314960629921,
          "duration": 0.2857139999999987
        },
        {
          "name": "C2",
          "midi": 36,
          "time": 33.71425199999992,
          "velocity": 0.7480314960629921,
          "duration": 0.2857139999999987
        },
        {
          "name": "F#2",
          "midi": 42,
          "time": 33.999965999999915,
          "velocity": 0.7480314960629921,
          "duration": 0.2857139999999987
        },
        {
          "name": "D2",
          "midi": 38,
          "time": 33.999965999999915,
          "velocity": 0.7480314960629921,
          "duration": 0.2857139999999987
        },
        {
          "name": "F#2",
          "midi": 42,
          "time": 34.285679999999914,
          "velocity": 0.7480314960629921,
          "duration": 0.2857139999999987
        },
        {
          "name": "C2",
          "midi": 36,
          "time": 34.285679999999914,
          "velocity": 0.7480314960629921,
          "duration": 0.2857139999999987
        },
        {
          "name": "F#2",
          "midi": 42,
          "time": 34.57139399999991,
          "velocity": 0.7480314960629921,
          "duration": 0.2857139999999987
        },
        {
          "name": "D2",
          "midi": 38,
          "time": 34.57139399999991,
          "velocity": 0.7480314960629921,
          "duration": 0.14285699999999935
        },
        {
          "name": "C2",
          "midi": 36,
          "time": 34.71425099999991,
          "velocity": 0.7480314960629921,
          "duration": 0.2857139999999987
        },
        {
          "name": "F#2",
          "midi": 42,
          "time": 34.85710799999991,
          "velocity": 0.7480314960629921,
          "duration": 0.2857139999999987
        },
        {
          "name": "C2",
          "midi": 36,
          "time": 34.99996499999991,
          "velocity": 0.7480314960629921,
          "duration": 0.14285699999999935
        },
        {
          "name": "F#2",
          "midi": 42,
          "time": 35.14282199999991,
          "velocity": 0.7480314960629921,
          "duration": 0.2857139999999987
        },
        {
          "name": "D2",
          "midi": 38,
          "time": 35.14282199999991,
          "velocity": 0.7480314960629921,
          "duration": 0.2857139999999987
        },
        {
          "name": "F#2",
          "midi": 42,
          "time": 35.42853599999991,
          "velocity": 0.7480314960629921,
          "duration": 0.2857139999999987
        },
        {
          "name": "C2",
          "midi": 36,
          "time": 35.42853599999991,
          "velocity": 0.7480314960629921,
          "duration": 0.2857139999999987
        },
        {
          "name": "F#2",
          "midi": 42,
          "time": 35.71424999999991,
          "velocity": 0.7480314960629921,
          "duration": 0.2857139999999987
        },
        {
          "name": "D2",
          "midi": 38,
          "time": 35.71424999999991,
          "velocity": 0.7480314960629921,
          "duration": 0.14285699999999935
        },
        {
          "name": "C#3",
          "midi": 49,
          "time": 35.999963999999906,
          "velocity": 0.7480314960629921,
          "duration": 0.2857139999999987
        },
        {
          "name": "C2",
          "midi": 36,
          "time": 35.999963999999906,
          "velocity": 0.7480314960629921,
          "duration": 0.2857139999999987
        },
        {
          "name": "C#3",
          "midi": 49,
          "time": 36.285677999999905,
          "velocity": 0.7480314960629921,
          "duration": 0.2857139999999987
        },
        {
          "name": "D2",
          "midi": 38,
          "time": 36.285677999999905,
          "velocity": 0.7480314960629921,
          "duration": 0.2857139999999987
        },
        {
          "name": "C#3",
          "midi": 49,
          "time": 36.5713919999999,
          "velocity": 0.7480314960629921,
          "duration": 0.2857139999999987
        },
        {
          "name": "C2",
          "midi": 36,
          "time": 36.5713919999999,
          "velocity": 0.7480314960629921,
          "duration": 0.2857139999999987
        },
        {
          "name": "F#2",
          "midi": 42,
          "time": 36.8571059999999,
          "velocity": 0.7480314960629921,
          "duration": 0.2857139999999987
        },
        {
          "name": "D2",
          "midi": 38,
          "time": 36.8571059999999,
          "velocity": 0.7480314960629921,
          "duration": 0.14285699999999935
        },
        {
          "name": "C2",
          "midi": 36,
          "time": 36.9999629999999,
          "velocity": 0.7480314960629921,
          "duration": 0.2857139999999987
        },
        {
          "name": "F#2",
          "midi": 42,
          "time": 37.1428199999999,
          "velocity": 0.7480314960629921,
          "duration": 0.2857139999999987
        },
        {
          "name": "C2",
          "midi": 36,
          "time": 37.2856769999999,
          "velocity": 0.7480314960629921,
          "duration": 0.14285699999999935
        },
        {
          "name": "F#2",
          "midi": 42,
          "time": 37.4285339999999,
          "velocity": 0.7480314960629921,
          "duration": 0.2857139999999987
        },
        {
          "name": "D2",
          "midi": 38,
          "time": 37.4285339999999,
          "velocity": 0.7480314960629921,
          "duration": 0.2857139999999987
        },
        {
          "name": "F#2",
          "midi": 42,
          "time": 37.7142479999999,
          "velocity": 0.7480314960629921,
          "duration": 0.2857139999999987
        },
        {
          "name": "C2",
          "midi": 36,
          "time": 37.7142479999999,
          "velocity": 0.7480314960629921,
          "duration": 0.2857139999999987
        },
        {
          "name": "F#2",
          "midi": 42,
          "time": 37.9999619999999,
          "velocity": 0.7480314960629921,
          "duration": 0.2857139999999987
        },
        {
          "name": "D2",
          "midi": 38,
          "time": 37.9999619999999,
          "velocity": 0.7480314960629921,
          "duration": 0.14285699999999935
        },
        {
          "name": "F#2",
          "midi": 42,
          "time": 38.285675999999896,
          "velocity": 0.7480314960629921,
          "duration": 0.2857139999999987
        },
        {
          "name": "C2",
          "midi": 36,
          "time": 38.285675999999896,
          "velocity": 0.7480314960629921,
          "duration": 0.2857139999999987
        },
        {
          "name": "F#2",
          "midi": 42,
          "time": 38.571389999999894,
          "velocity": 0.7480314960629921,
          "duration": 0.2857139999999987
        },
        {
          "name": "D2",
          "midi": 38,
          "time": 38.571389999999894,
          "velocity": 0.7480314960629921,
          "duration": 0.2857139999999987
        },
        {
          "name": "F#2",
          "midi": 42,
          "time": 38.85710399999989,
          "velocity": 0.7480314960629921,
          "duration": 0.2857139999999987
        },
        {
          "name": "C2",
          "midi": 36,
          "time": 38.85710399999989,
          "velocity": 0.7480314960629921,
          "duration": 0.2857139999999987
        },
        {
          "name": "F#2",
          "midi": 42,
          "time": 39.14281799999989,
          "velocity": 0.7480314960629921,
          "duration": 0.2857139999999987
        },
        {
          "name": "D2",
          "midi": 38,
          "time": 39.14281799999989,
          "velocity": 0.7480314960629921,
          "duration": 0.14285699999999935
        },
        {
          "name": "C2",
          "midi": 36,
          "time": 39.28567499999989,
          "velocity": 0.7480314960629921,
          "duration": 0.2857139999999987
        },
        {
          "name": "F#2",
          "midi": 42,
          "time": 39.42853199999989,
          "velocity": 0.7480314960629921,
          "duration": 0.2857139999999987
        },
        {
          "name": "C2",
          "midi": 36,
          "time": 39.57138899999989,
          "velocity": 0.7480314960629921,
          "duration": 0.14285699999999935
        },
        {
          "name": "F#2",
          "midi": 42,
          "time": 39.71424599999989,
          "velocity": 0.7480314960629921,
          "duration": 0.2857139999999987
        },
        {
          "name": "D2",
          "midi": 38,
          "time": 39.71424599999989,
          "velocity": 0.7480314960629921,
          "duration": 0.2857139999999987
        },
        {
          "name": "F#2",
          "midi": 42,
          "time": 39.99995999999989,
          "velocity": 0.7480314960629921,
          "duration": 0.2857139999999987
        },
        {
          "name": "C2",
          "midi": 36,
          "time": 39.99995999999989,
          "velocity": 0.7480314960629921,
          "duration": 0.2857139999999987
        },
        {
          "name": "F#2",
          "midi": 42,
          "time": 40.28567399999989,
          "velocity": 0.7480314960629921,
          "duration": 0.2857139999999987
        },
        {
          "name": "D2",
          "midi": 38,
          "time": 40.28567399999989,
          "velocity": 0.7480314960629921,
          "duration": 0.14285699999999935
        },
        {
          "name": "F#2",
          "midi": 42,
          "time": 40.571387999999885,
          "velocity": 0.7480314960629921,
          "duration": 0.2857139999999987
        },
        {
          "name": "C2",
          "midi": 36,
          "time": 40.571387999999885,
          "velocity": 0.7480314960629921,
          "duration": 0.2857139999999987
        },
        {
          "name": "F#2",
          "midi": 42,
          "time": 40.857101999999884,
          "velocity": 0.7480314960629921,
          "duration": 0.2857139999999987
        },
        {
          "name": "D2",
          "midi": 38,
          "time": 40.857101999999884,
          "velocity": 0.7480314960629921,
          "duration": 0.2857139999999987
        },
        {
          "name": "F#2",
          "midi": 42,
          "time": 41.14281599999988,
          "velocity": 0.7480314960629921,
          "duration": 0.2857139999999987
        },
        {
          "name": "C2",
          "midi": 36,
          "time": 41.14281599999988,
          "velocity": 0.7480314960629921,
          "duration": 0.2857139999999987
        },
        {
          "name": "F#2",
          "midi": 42,
          "time": 41.42852999999988,
          "velocity": 0.7480314960629921,
          "duration": 0.2857139999999987
        },
        {
          "name": "D2",
          "midi": 38,
          "time": 41.42852999999988,
          "velocity": 0.7480314960629921,
          "duration": 0.14285699999999935
        },
        {
          "name": "C2",
          "midi": 36,
          "time": 41.57138699999988,
          "velocity": 0.7480314960629921,
          "duration": 0.2857139999999987
        },
        {
          "name": "F#2",
          "midi": 42,
          "time": 41.71424399999988,
          "velocity": 0.7480314960629921,
          "duration": 0.2857139999999987
        },
        {
          "name": "C2",
          "midi": 36,
          "time": 41.85710099999988,
          "velocity": 0.7480314960629921,
          "duration": 0.14285699999999935
        },
        {
          "name": "F#2",
          "midi": 42,
          "time": 41.99995799999988,
          "velocity": 0.7480314960629921,
          "duration": 0.2857139999999987
        },
        {
          "name": "D2",
          "midi": 38,
          "time": 41.99995799999988,
          "velocity": 0.7480314960629921,
          "duration": 0.2857139999999987
        },
        {
          "name": "F#2",
          "midi": 42,
          "time": 42.28567199999988,
          "velocity": 0.7480314960629921,
          "duration": 0.2857139999999987
        },
        {
          "name": "C2",
          "midi": 36,
          "time": 42.28567199999988,
          "velocity": 0.7480314960629921,
          "duration": 0.2857139999999987
        },
        {
          "name": "F#2",
          "midi": 42,
          "time": 42.571385999999876,
          "velocity": 0.7480314960629921,
          "duration": 0.2857139999999987
        },
        {
          "name": "D2",
          "midi": 38,
          "time": 42.571385999999876,
          "velocity": 0.7480314960629921,
          "duration": 0.14285699999999935
        },
        {
          "name": "F#2",
          "midi": 42,
          "time": 42.857099999999875,
          "velocity": 0.7480314960629921,
          "duration": 0.2857139999999987
        },
        {
          "name": "C2",
          "midi": 36,
          "time": 42.857099999999875,
          "velocity": 0.7480314960629921,
          "duration": 0.2857139999999987
        },
        {
          "name": "F#2",
          "midi": 42,
          "time": 43.14281399999987,
          "velocity": 0.7480314960629921,
          "duration": 0.2857139999999987
        },
        {
          "name": "D2",
          "midi": 38,
          "time": 43.14281399999987,
          "velocity": 0.7480314960629921,
          "duration": 0.2857139999999987
        },
        {
          "name": "A#2",
          "midi": 46,
          "time": 43.42852799999987,
          "velocity": 0.7480314960629921,
          "duration": 0.2857139999999987
        },
        {
          "name": "C2",
          "midi": 36,
          "time": 43.42852799999987,
          "velocity": 0.7480314960629921,
          "duration": 0.2857139999999987
        },
        {
          "name": "A#2",
          "midi": 46,
          "time": 43.71424199999987,
          "velocity": 0.7480314960629921,
          "duration": 0.2857139999999987
        },
        {
          "name": "D2",
          "midi": 38,
          "time": 43.71424199999987,
          "velocity": 0.7480314960629921,
          "duration": 0.14285699999999935
        },
        {
          "name": "A#2",
          "midi": 46,
          "time": 43.99995599999987,
          "velocity": 0.7480314960629921,
          "duration": 0.2857139999999987
        },
        {
          "name": "C2",
          "midi": 36,
          "time": 43.99995599999987,
          "velocity": 0.7480314960629921,
          "duration": 0.2857139999999987
        },
        {
          "name": "A#2",
          "midi": 46,
          "time": 44.28566999999987,
          "velocity": 0.7480314960629921,
          "duration": 0.2857139999999987
        },
        {
          "name": "D2",
          "midi": 38,
          "time": 44.28566999999987,
          "velocity": 0.7480314960629921,
          "duration": 0.2857139999999987
        },
        {
          "name": "A#2",
          "midi": 46,
          "time": 44.57138399999987,
          "velocity": 0.7480314960629921,
          "duration": 0.2857139999999987
        },
        {
          "name": "C2",
          "midi": 36,
          "time": 44.57138399999987,
          "velocity": 0.7480314960629921,
          "duration": 0.2857139999999987
        },
        {
          "name": "A#2",
          "midi": 46,
          "time": 44.857097999999866,
          "velocity": 0.7480314960629921,
          "duration": 0.2857139999999987
        },
        {
          "name": "D2",
          "midi": 38,
          "time": 44.857097999999866,
          "velocity": 0.7480314960629921,
          "duration": 0.14285699999999935
        },
        {
          "name": "A#2",
          "midi": 46,
          "time": 45.142811999999864,
          "velocity": 0.7480314960629921,
          "duration": 0.2857139999999987
        },
        {
          "name": "C2",
          "midi": 36,
          "time": 45.142811999999864,
          "velocity": 0.7480314960629921,
          "duration": 0.2857139999999987
        },
        {
          "name": "C#3",
          "midi": 49,
          "time": 45.42852599999986,
          "velocity": 0.7480314960629921,
          "duration": 0.2857139999999987
        },
        {
          "name": "D2",
          "midi": 38,
          "time": 45.42852599999986,
          "velocity": 0.7480314960629921,
          "duration": 0.14285699999999935
        },
        {
          "name": "F#2",
          "midi": 42,
          "time": 45.71423999999986,
          "velocity": 0.7480314960629921,
          "duration": 0.2857139999999987
        },
        {
          "name": "D2",
          "midi": 38,
          "time": 45.71423999999986,
          "velocity": 0.7480314960629921,
          "duration": 0.2857139999999987
        },
        {
          "name": "F#2",
          "midi": 42,
          "time": 45.99995399999986,
          "velocity": 0.7480314960629921,
          "duration": 0.2857139999999987
        },
        {
          "name": "D2",
          "midi": 38,
          "time": 45.99995399999986,
          "velocity": 0.7480314960629921,
          "duration": 0.2857139999999987
        },
        {
          "name": "F#2",
          "midi": 42,
          "time": 46.28566799999986,
          "velocity": 0.7480314960629921,
          "duration": 0.2857139999999987
        },
        {
          "name": "D2",
          "midi": 38,
          "time": 46.28566799999986,
          "velocity": 0.7480314960629921,
          "duration": 0.2857139999999987
        },
        {
          "name": "F#2",
          "midi": 42,
          "time": 46.57138199999986,
          "velocity": 0.7480314960629921,
          "duration": 0.2857139999999987
        },
        {
          "name": "D2",
          "midi": 38,
          "time": 46.57138199999986,
          "velocity": 0.7480314960629921,
          "duration": 0.2857139999999987
        },
        {
          "name": "F#2",
          "midi": 42,
          "time": 46.857095999999856,
          "velocity": 0.7480314960629921,
          "duration": 0.2857139999999987
        },
        {
          "name": "D2",
          "midi": 38,
          "time": 46.857095999999856,
          "velocity": 0.7480314960629921,
          "duration": 0.2857139999999987
        },
        {
          "name": "F#2",
          "midi": 42,
          "time": 47.142809999999855,
          "velocity": 0.7480314960629921,
          "duration": 0.2857139999999987
        },
        {
          "name": "D2",
          "midi": 38,
          "time": 47.142809999999855,
          "velocity": 0.7480314960629921,
          "duration": 0.2857139999999987
        },
        {
          "name": "F#2",
          "midi": 42,
          "time": 47.428523999999854,
          "velocity": 0.7480314960629921,
          "duration": 0.2857139999999987
        },
        {
          "name": "D2",
          "midi": 38,
          "time": 47.428523999999854,
          "velocity": 0.7480314960629921,
          "duration": 0.2857139999999987
        },
        {
          "name": "F#2",
          "midi": 42,
          "time": 47.71423799999985,
          "velocity": 0.7480314960629921,
          "duration": 0.2857139999999987
        },
        {
          "name": "D2",
          "midi": 38,
          "time": 47.71423799999985,
          "velocity": 0.7480314960629921,
          "duration": 0.2857139999999987
        },
        {
          "name": "F#2",
          "midi": 42,
          "time": 47.99995199999985,
          "velocity": 0.7480314960629921,
          "duration": 0.2857139999999987
        },
        {
          "name": "D2",
          "midi": 38,
          "time": 47.99995199999985,
          "velocity": 0.7480314960629921,
          "duration": 0.2857139999999987
        },
        {
          "name": "F#2",
          "midi": 42,
          "time": 48.28566599999985,
          "velocity": 0.7480314960629921,
          "duration": 0.2857139999999987
        },
        {
          "name": "D2",
          "midi": 38,
          "time": 48.28566599999985,
          "velocity": 0.7480314960629921,
          "duration": 0.2857139999999987
        },
        {
          "name": "F#2",
          "midi": 42,
          "time": 48.57137999999985,
          "velocity": 0.7480314960629921,
          "duration": 0.2857139999999987
        },
        {
          "name": "D2",
          "midi": 38,
          "time": 48.57137999999985,
          "velocity": 0.7480314960629921,
          "duration": 0.2857139999999987
        },
        {
          "name": "F#2",
          "midi": 42,
          "time": 48.85709399999985,
          "velocity": 0.7480314960629921,
          "duration": 0.2857139999999987
        },
        {
          "name": "D2",
          "midi": 38,
          "time": 48.85709399999985,
          "velocity": 0.7480314960629921,
          "duration": 0.2857139999999987
        },
        {
          "name": "F#2",
          "midi": 42,
          "time": 49.142807999999846,
          "velocity": 0.7480314960629921,
          "duration": 0.2857139999999987
        },
        {
          "name": "D2",
          "midi": 38,
          "time": 49.142807999999846,
          "velocity": 0.7480314960629921,
          "duration": 0.2857139999999987
        },
        {
          "name": "F#2",
          "midi": 42,
          "time": 49.428521999999845,
          "velocity": 0.7480314960629921,
          "duration": 0.2857139999999987
        },
        {
          "name": "D2",
          "midi": 38,
          "time": 49.428521999999845,
          "velocity": 0.7480314960629921,
          "duration": 0.2857139999999987
        },
        {
          "name": "F#2",
          "midi": 42,
          "time": 49.71423599999984,
          "velocity": 0.7480314960629921,
          "duration": 0.2857139999999987
        },
        {
          "name": "D2",
          "midi": 38,
          "time": 49.71423599999984,
          "velocity": 0.7480314960629921,
          "duration": 0.2857139999999987
        },
        {
          "name": "F#2",
          "midi": 42,
          "time": 49.99994999999984,
          "velocity": 0.7480314960629921,
          "duration": 0.2857139999999987
        },
        {
          "name": "D2",
          "midi": 38,
          "time": 49.99994999999984,
          "velocity": 0.7480314960629921,
          "duration": 0.2857139999999987
        },
        {
          "name": "C#3",
          "midi": 49,
          "time": 50.28566399999984,
          "velocity": 0.7480314960629921,
          "duration": 0.2857139999999987
        },
        {
          "name": "D2",
          "midi": 38,
          "time": 50.28566399999984,
          "velocity": 0.7480314960629921,
          "duration": 0.2857139999999987
        },
        {
          "name": "F#2",
          "midi": 42,
          "time": 50.57137799999984,
          "velocity": 0.7480314960629921,
          "duration": 0.2857139999999987
        },
        {
          "name": "D2",
          "midi": 38,
          "time": 50.57137799999984,
          "velocity": 0.7480314960629921,
          "duration": 0.2857139999999987
        },
        {
          "name": "F#2",
          "midi": 42,
          "time": 50.85709199999984,
          "velocity": 0.7480314960629921,
          "duration": 0.2857139999999987
        },
        {
          "name": "D2",
          "midi": 38,
          "time": 50.85709199999984,
          "velocity": 0.7480314960629921,
          "duration": 0.2857139999999987
        },
        {
          "name": "F#2",
          "midi": 42,
          "time": 51.14280599999984,
          "velocity": 0.7480314960629921,
          "duration": 0.2857139999999987
        },
        {
          "name": "D2",
          "midi": 38,
          "time": 51.14280599999984,
          "velocity": 0.7480314960629921,
          "duration": 0.2857139999999987
        },
        {
          "name": "F#2",
          "midi": 42,
          "time": 51.428519999999835,
          "velocity": 0.7480314960629921,
          "duration": 0.2857139999999987
        },
        {
          "name": "D2",
          "midi": 38,
          "time": 51.428519999999835,
          "velocity": 0.7480314960629921,
          "duration": 0.2857139999999987
        },
        {
          "name": "F#2",
          "midi": 42,
          "time": 51.714233999999834,
          "velocity": 0.7480314960629921,
          "duration": 0.2857139999999987
        },
        {
          "name": "D2",
          "midi": 38,
          "time": 51.714233999999834,
          "velocity": 0.7480314960629921,
          "duration": 0.2857139999999987
        },
        {
          "name": "F#2",
          "midi": 42,
          "time": 51.99994799999983,
          "velocity": 0.7480314960629921,
          "duration": 0.2857139999999987
        },
        {
          "name": "D2",
          "midi": 38,
          "time": 51.99994799999983,
          "velocity": 0.7480314960629921,
          "duration": 0.2857139999999987
        },
        {
          "name": "F#2",
          "midi": 42,
          "time": 52.28566199999983,
          "velocity": 0.7480314960629921,
          "duration": 0.2857139999999987
        },
        {
          "name": "D2",
          "midi": 38,
          "time": 52.28566199999983,
          "velocity": 0.7480314960629921,
          "duration": 0.2857139999999987
        },
        {
          "name": "F#2",
          "midi": 42,
          "time": 52.57137599999983,
          "velocity": 0.7480314960629921,
          "duration": 0.2857139999999987
        },
        {
          "name": "D2",
          "midi": 38,
          "time": 52.57137599999983,
          "velocity": 0.7480314960629921,
          "duration": 0.2857139999999987
        },
        {
          "name": "F#2",
          "midi": 42,
          "time": 52.85708999999983,
          "velocity": 0.7480314960629921,
          "duration": 0.2857139999999987
        },
        {
          "name": "D2",
          "midi": 38,
          "time": 52.85708999999983,
          "velocity": 0.7480314960629921,
          "duration": 0.2857139999999987
        },
        {
          "name": "F#2",
          "midi": 42,
          "time": 53.14280399999983,
          "velocity": 0.7480314960629921,
          "duration": 0.2857139999999987
        },
        {
          "name": "D2",
          "midi": 38,
          "time": 53.14280399999983,
          "velocity": 0.7480314960629921,
          "duration": 0.2857139999999987
        },
        {
          "name": "F#2",
          "midi": 42,
          "time": 53.428517999999826,
          "velocity": 0.7480314960629921,
          "duration": 0.2857139999999987
        },
        {
          "name": "D2",
          "midi": 38,
          "time": 53.428517999999826,
          "velocity": 0.7480314960629921,
          "duration": 0.2857139999999987
        },
        {
          "name": "C#3",
          "midi": 49,
          "time": 53.714231999999825,
          "velocity": 0.7480314960629921,
          "duration": 1.1428560000000019
        },
        {
          "name": "D2",
          "midi": 38,
          "time": 53.714231999999825,
          "velocity": 0.7480314960629921,
          "duration": 0.2857139999999987
        },
        {
          "name": "D2",
          "midi": 38,
          "time": 53.999945999999824,
          "velocity": 0.7480314960629921,
          "duration": 0.07142850000000323
        },
        {
          "name": "D2",
          "midi": 38,
          "time": 54.07137449999983,
          "velocity": 0.7480314960629921,
          "duration": 0.07142850000000323
        },
        {
          "name": "D2",
          "midi": 38,
          "time": 54.14280299999983,
          "velocity": 0.7480314960629921,
          "duration": 0.14285699999999935
        },
        {
          "name": "D2",
          "midi": 38,
          "time": 54.28565999999983,
          "velocity": 0.7480314960629921,
          "duration": 0.14285699999999935
        },
        {
          "name": "D2",
          "midi": 38,
          "time": 54.42851699999983,
          "velocity": 0.7480314960629921,
          "duration": 0.14285699999999935
        },
        {
          "name": "D2",
          "midi": 38,
          "time": 54.57137399999983,
          "velocity": 0.7480314960629921,
          "duration": 0.14285699999999935
        },
        {
          "name": "D2",
          "midi": 38,
          "time": 54.71423099999983,
          "velocity": 0.7480314960629921,
          "duration": 0.14285699999999935
        },
        {
          "name": "C#3",
          "midi": 49,
          "time": 54.85708799999983,
          "velocity": 0.7480314960629921,
          "duration": 0.2857139999999987
        },
        {
          "name": "C2",
          "midi": 36,
          "time": 54.85708799999983,
          "velocity": 0.7480314960629921,
          "duration": 0.2857139999999987
        },
        {
          "name": "F#2",
          "midi": 42,
          "time": 55.142801999999826,
          "velocity": 0.7480314960629921,
          "duration": 0.2857139999999987
        },
        {
          "name": "D2",
          "midi": 38,
          "time": 55.142801999999826,
          "velocity": 0.7480314960629921,
          "duration": 0.2857139999999987
        },
        {
          "name": "F#2",
          "midi": 42,
          "time": 55.428515999999824,
          "velocity": 0.7480314960629921,
          "duration": 0.2857139999999987
        },
        {
          "name": "C2",
          "midi": 36,
          "time": 55.428515999999824,
          "velocity": 0.7480314960629921,
          "duration": 0.14285699999999935
        },
        {
          "name": "C2",
          "midi": 36,
          "time": 55.571372999999824,
          "velocity": 0.7480314960629921,
          "duration": 0.14285699999999935
        },
        {
          "name": "F#2",
          "midi": 42,
          "time": 55.71422999999982,
          "velocity": 0.7480314960629921,
          "duration": 0.2857139999999987
        },
        {
          "name": "D2",
          "midi": 38,
          "time": 55.71422999999982,
          "velocity": 0.7480314960629921,
          "duration": 0.2857139999999987
        },
        {
          "name": "F#2",
          "midi": 42,
          "time": 55.99994399999982,
          "velocity": 0.7480314960629921,
          "duration": 0.2857139999999987
        },
        {
          "name": "C2",
          "midi": 36,
          "time": 55.99994399999982,
          "velocity": 0.7480314960629921,
          "duration": 0.2857139999999987
        },
        {
          "name": "F#2",
          "midi": 42,
          "time": 56.28565799999982,
          "velocity": 0.7480314960629921,
          "duration": 0.2857139999999987
        },
        {
          "name": "D2",
          "midi": 38,
          "time": 56.28565799999982,
          "velocity": 0.7480314960629921,
          "duration": 0.2857139999999987
        },
        {
          "name": "F#2",
          "midi": 42,
          "time": 56.57137199999982,
          "velocity": 0.7480314960629921,
          "duration": 0.2857139999999987
        },
        {
          "name": "C2",
          "midi": 36,
          "time": 56.57137199999982,
          "velocity": 0.7480314960629921,
          "duration": 0.14285699999999935
        },
        {
          "name": "C2",
          "midi": 36,
          "time": 56.71422899999982,
          "velocity": 0.7480314960629921,
          "duration": 0.14285699999999935
        },
        {
          "name": "F#2",
          "midi": 42,
          "time": 56.85708599999982,
          "velocity": 0.7480314960629921,
          "duration": 0.2857139999999987
        },
        {
          "name": "D2",
          "midi": 38,
          "time": 56.85708599999982,
          "velocity": 0.7480314960629921,
          "duration": 0.2857139999999987
        },
        {
          "name": "F#2",
          "midi": 42,
          "time": 57.142799999999816,
          "velocity": 0.7480314960629921,
          "duration": 0.2857139999999987
        },
        {
          "name": "C2",
          "midi": 36,
          "time": 57.142799999999816,
          "velocity": 0.7480314960629921,
          "duration": 0.2857139999999987
        },
        {
          "name": "F#2",
          "midi": 42,
          "time": 57.428513999999815,
          "velocity": 0.7480314960629921,
          "duration": 0.2857139999999987
        },
        {
          "name": "D2",
          "midi": 38,
          "time": 57.428513999999815,
          "velocity": 0.7480314960629921,
          "duration": 0.2857139999999987
        },
        {
          "name": "F#2",
          "midi": 42,
          "time": 57.714227999999814,
          "velocity": 0.7480314960629921,
          "duration": 0.2857139999999987
        },
        {
          "name": "C2",
          "midi": 36,
          "time": 57.714227999999814,
          "velocity": 0.7480314960629921,
          "duration": 0.14285699999999935
        },
        {
          "name": "C2",
          "midi": 36,
          "time": 57.85708499999981,
          "velocity": 0.7480314960629921,
          "duration": 0.14285699999999935
        },
        {
          "name": "F#2",
          "midi": 42,
          "time": 57.99994199999981,
          "velocity": 0.7480314960629921,
          "duration": 0.2857139999999987
        },
        {
          "name": "D2",
          "midi": 38,
          "time": 57.99994199999981,
          "velocity": 0.7480314960629921,
          "duration": 0.2857139999999987
        },
        {
          "name": "F#2",
          "midi": 42,
          "time": 58.28565599999981,
          "velocity": 0.7480314960629921,
          "duration": 0.2857139999999987
        },
        {
          "name": "C2",
          "midi": 36,
          "time": 58.28565599999981,
          "velocity": 0.7480314960629921,
          "duration": 0.2857139999999987
        },
        {
          "name": "F#2",
          "midi": 42,
          "time": 58.57136999999981,
          "velocity": 0.7480314960629921,
          "duration": 0.2857139999999987
        },
        {
          "name": "D2",
          "midi": 38,
          "time": 58.57136999999981,
          "velocity": 0.7480314960629921,
          "duration": 0.2857139999999987
        },
        {
          "name": "F#2",
          "midi": 42,
          "time": 58.85708399999981,
          "velocity": 0.7480314960629921,
          "duration": 0.2857139999999987
        },
        {
          "name": "C2",
          "midi": 36,
          "time": 58.85708399999981,
          "velocity": 0.7480314960629921,
          "duration": 0.14285699999999935
        },
        {
          "name": "C2",
          "midi": 36,
          "time": 58.99994099999981,
          "velocity": 0.7480314960629921,
          "duration": 0.14285699999999935
        },
        {
          "name": "F#2",
          "midi": 42,
          "time": 59.14279799999981,
          "velocity": 0.7480314960629921,
          "duration": 0.2857139999999987
        },
        {
          "name": "D2",
          "midi": 38,
          "time": 59.14279799999981,
          "velocity": 0.7480314960629921,
          "duration": 0.2857139999999987
        },
        {
          "name": "F#2",
          "midi": 42,
          "time": 59.428511999999806,
          "velocity": 0.7480314960629921,
          "duration": 0.2857139999999987
        },
        {
          "name": "C2",
          "midi": 36,
          "time": 59.428511999999806,
          "velocity": 0.7480314960629921,
          "duration": 0.2857139999999987
        },
        {
          "name": "F#2",
          "midi": 42,
          "time": 59.714225999999805,
          "velocity": 0.7480314960629921,
          "duration": 0.2857139999999987
        },
        {
          "name": "D2",
          "midi": 38,
          "time": 59.714225999999805,
          "velocity": 0.7480314960629921,
          "duration": 0.2857139999999987
        },
        {
          "name": "F#2",
          "midi": 42,
          "time": 59.9999399999998,
          "velocity": 0.7480314960629921,
          "duration": 0.2857139999999987
        },
        {
          "name": "C2",
          "midi": 36,
          "time": 59.9999399999998,
          "velocity": 0.7480314960629921,
          "duration": 0.14285699999999935
        },
        {
          "name": "C2",
          "midi": 36,
          "time": 60.1427969999998,
          "velocity": 0.7480314960629921,
          "duration": 0.14285699999999935
        },
        {
          "name": "F#2",
          "midi": 42,
          "time": 60.2856539999998,
          "velocity": 0.7480314960629921,
          "duration": 0.2857139999999987
        },
        {
          "name": "D2",
          "midi": 38,
          "time": 60.2856539999998,
          "velocity": 0.7480314960629921,
          "duration": 0.2857139999999987
        },
        {
          "name": "F#2",
          "midi": 42,
          "time": 60.5713679999998,
          "velocity": 0.7480314960629921,
          "duration": 0.2857139999999987
        },
        {
          "name": "C2",
          "midi": 36,
          "time": 60.5713679999998,
          "velocity": 0.7480314960629921,
          "duration": 0.2857139999999987
        },
        {
          "name": "F#2",
          "midi": 42,
          "time": 60.8570819999998,
          "velocity": 0.7480314960629921,
          "duration": 0.2857139999999987
        },
        {
          "name": "D2",
          "midi": 38,
          "time": 60.8570819999998,
          "velocity": 0.7480314960629921,
          "duration": 0.2857139999999987
        },
        {
          "name": "F#2",
          "midi": 42,
          "time": 61.1427959999998,
          "velocity": 0.7480314960629921,
          "duration": 0.2857139999999987
        },
        {
          "name": "C2",
          "midi": 36,
          "time": 61.1427959999998,
          "velocity": 0.7480314960629921,
          "duration": 0.14285699999999935
        },
        {
          "name": "C2",
          "midi": 36,
          "time": 61.2856529999998,
          "velocity": 0.7480314960629921,
          "duration": 0.14285699999999935
        },
        {
          "name": "F#2",
          "midi": 42,
          "time": 61.4285099999998,
          "velocity": 0.7480314960629921,
          "duration": 0.2857139999999987
        },
        {
          "name": "D2",
          "midi": 38,
          "time": 61.4285099999998,
          "velocity": 0.7480314960629921,
          "duration": 0.2857139999999987
        },
        {
          "name": "F#2",
          "midi": 42,
          "time": 61.714223999999795,
          "velocity": 0.7480314960629921,
          "duration": 0.2857139999999987
        },
        {
          "name": "C2",
          "midi": 36,
          "time": 61.714223999999795,
          "velocity": 0.7480314960629921,
          "duration": 0.2857139999999987
        },
        {
          "name": "F#2",
          "midi": 42,
          "time": 61.999937999999794,
          "velocity": 0.7480314960629921,
          "duration": 0.2857139999999987
        },
        {
          "name": "D2",
          "midi": 38,
          "time": 61.999937999999794,
          "velocity": 0.7480314960629921,
          "duration": 0.2857139999999987
        },
        {
          "name": "F#2",
          "midi": 42,
          "time": 62.28565199999979,
          "velocity": 0.7480314960629921,
          "duration": 0.2857139999999987
        },
        {
          "name": "C2",
          "midi": 36,
          "time": 62.28565199999979,
          "velocity": 0.7480314960629921,
          "duration": 0.14285699999999935
        },
        {
          "name": "C2",
          "midi": 36,
          "time": 62.42850899999979,
          "velocity": 0.7480314960629921,
          "duration": 0.14285699999999935
        },
        {
          "name": "F#2",
          "midi": 42,
          "time": 62.57136599999979,
          "velocity": 0.7480314960629921,
          "duration": 0.2857139999999987
        },
        {
          "name": "D2",
          "midi": 38,
          "time": 62.57136599999979,
          "velocity": 0.7480314960629921,
          "duration": 0.2857139999999987
        },
        {
          "name": "F#2",
          "midi": 42,
          "time": 62.85707999999979,
          "velocity": 0.7480314960629921,
          "duration": 0.2857139999999987
        },
        {
          "name": "C2",
          "midi": 36,
          "time": 62.85707999999979,
          "velocity": 0.7480314960629921,
          "duration": 0.2857139999999987
        },
        {
          "name": "F#2",
          "midi": 42,
          "time": 63.14279399999979,
          "velocity": 0.7480314960629921,
          "duration": 0.2857139999999987
        },
        {
          "name": "D2",
          "midi": 38,
          "time": 63.14279399999979,
          "velocity": 0.7480314960629921,
          "duration": 0.2857139999999987
        },
        {
          "name": "F#2",
          "midi": 42,
          "time": 63.42850799999979,
          "velocity": 0.7480314960629921,
          "duration": 0.2857139999999987
        },
        {
          "name": "C2",
          "midi": 36,
          "time": 63.42850799999979,
          "velocity": 0.7480314960629921,
          "duration": 0.2857139999999987
        },
        {
          "name": "A#2",
          "midi": 46,
          "time": 63.714221999999786,
          "velocity": 0.7480314960629921,
          "duration": 0.2857139999999987
        },
        {
          "name": "D2",
          "midi": 38,
          "time": 63.714221999999786,
          "velocity": 0.7480314960629921,
          "duration": 0.14285699999999935
        },
        {
          "name": "D2",
          "midi": 38,
          "time": 63.857078999999786,
          "velocity": 0.7480314960629921,
          "duration": 0.14285699999999935
        },
        {
          "name": "C#3",
          "midi": 49,
          "time": 63.999935999999785,
          "velocity": 0.7480314960629921,
          "duration": 0.2857140000000058
        },
        {
          "name": "C2",
          "midi": 36,
          "time": 63.999935999999785,
          "velocity": 0.7480314960629921,
          "duration": 0.2857140000000058
        },
        {
          "name": "F#2",
          "midi": 42,
          "time": 64.28564999999979,
          "velocity": 0.7480314960629921,
          "duration": 0.2857140000000129
        },
        {
          "name": "D2",
          "midi": 38,
          "time": 64.28564999999979,
          "velocity": 0.7480314960629921,
          "duration": 0.14285700000000645
        },
        {
          "name": "C2",
          "midi": 36,
          "time": 64.4285069999998,
          "velocity": 0.7480314960629921,
          "duration": 0.2857140000000129
        },
        {
          "name": "F#2",
          "midi": 42,
          "time": 64.5713639999998,
          "velocity": 0.7480314960629921,
          "duration": 0.2857140000000129
        },
        {
          "name": "C2",
          "midi": 36,
          "time": 64.71422099999981,
          "velocity": 0.7480314960629921,
          "duration": 0.14285700000000645
        },
        {
          "name": "F#2",
          "midi": 42,
          "time": 64.85707799999982,
          "velocity": 0.7480314960629921,
          "duration": 0.2857139999999987
        },
        {
          "name": "D2",
          "midi": 38,
          "time": 64.85707799999982,
          "velocity": 0.7480314960629921,
          "duration": 0.2857139999999987
        },
        {
          "name": "F#2",
          "midi": 42,
          "time": 65.14279199999982,
          "velocity": 0.7480314960629921,
          "duration": 0.2857139999999987
        },
        {
          "name": "C2",
          "midi": 36,
          "time": 65.14279199999982,
          "velocity": 0.7480314960629921,
          "duration": 0.2857139999999987
        },
        {
          "name": "F#2",
          "midi": 42,
          "time": 65.42850599999981,
          "velocity": 0.7480314960629921,
          "duration": 0.2857140000000129
        },
        {
          "name": "D2",
          "midi": 38,
          "time": 65.42850599999981,
          "velocity": 0.7480314960629921,
          "duration": 0.14285700000000645
        },
        {
          "name": "F#2",
          "midi": 42,
          "time": 65.71421999999983,
          "velocity": 0.7480314960629921,
          "duration": 0.2857139999999987
        },
        {
          "name": "C2",
          "midi": 36,
          "time": 65.71421999999983,
          "velocity": 0.7480314960629921,
          "duration": 0.2857139999999987
        },
        {
          "name": "F#2",
          "midi": 42,
          "time": 65.99993399999983,
          "velocity": 0.7480314960629921,
          "duration": 0.2857139999999987
        },
        {
          "name": "D2",
          "midi": 38,
          "time": 65.99993399999983,
          "velocity": 0.7480314960629921,
          "duration": 0.2857139999999987
        },
        {
          "name": "F#2",
          "midi": 42,
          "time": 66.28564799999982,
          "velocity": 0.7480314960629921,
          "duration": 0.2857139999999987
        },
        {
          "name": "C2",
          "midi": 36,
          "time": 66.28564799999982,
          "velocity": 0.7480314960629921,
          "duration": 0.2857139999999987
        },
        {
          "name": "F#2",
          "midi": 42,
          "time": 66.57136199999982,
          "velocity": 0.7480314960629921,
          "duration": 0.2857140000000129
        },
        {
          "name": "D2",
          "midi": 38,
          "time": 66.57136199999982,
          "velocity": 0.7480314960629921,
          "duration": 0.14285700000000645
        },
        {
          "name": "C2",
          "midi": 36,
          "time": 66.71421899999983,
          "velocity": 0.7480314960629921,
          "duration": 0.2857140000000129
        },
        {
          "name": "F#2",
          "midi": 42,
          "time": 66.85707599999984,
          "velocity": 0.7480314960629921,
          "duration": 0.2857140000000129
        },
        {
          "name": "C2",
          "midi": 36,
          "time": 66.99993299999984,
          "velocity": 0.7480314960629921,
          "duration": 0.14285700000000645
        },
        {
          "name": "F#2",
          "midi": 42,
          "time": 67.14278999999985,
          "velocity": 0.7480314960629921,
          "duration": 0.2857139999999987
        },
        {
          "name": "D2",
          "midi": 38,
          "time": 67.14278999999985,
          "velocity": 0.7480314960629921,
          "duration": 0.2857139999999987
        },
        {
          "name": "F#2",
          "midi": 42,
          "time": 67.42850399999985,
          "velocity": 0.7480314960629921,
          "duration": 0.2857139999999987
        },
        {
          "name": "C2",
          "midi": 36,
          "time": 67.42850399999985,
          "velocity": 0.7480314960629921,
          "duration": 0.2857139999999987
        },
        {
          "name": "F#2",
          "midi": 42,
          "time": 67.71421799999985,
          "velocity": 0.7480314960629921,
          "duration": 0.2857140000000129
        },
        {
          "name": "D2",
          "midi": 38,
          "time": 67.71421799999985,
          "velocity": 0.7480314960629921,
          "duration": 0.14285700000000645
        },
        {
          "name": "F#2",
          "midi": 42,
          "time": 67.99993199999986,
          "velocity": 0.7480314960629921,
          "duration": 0.2857139999999987
        },
        {
          "name": "C2",
          "midi": 36,
          "time": 67.99993199999986,
          "velocity": 0.7480314960629921,
          "duration": 0.2857139999999987
        },
        {
          "name": "F#2",
          "midi": 42,
          "time": 68.28564599999986,
          "velocity": 0.7480314960629921,
          "duration": 0.2857139999999987
        },
        {
          "name": "D2",
          "midi": 38,
          "time": 68.28564599999986,
          "velocity": 0.7480314960629921,
          "duration": 0.2857139999999987
        },
        {
          "name": "F#2",
          "midi": 42,
          "time": 68.57135999999986,
          "velocity": 0.7480314960629921,
          "duration": 0.2857139999999987
        },
        {
          "name": "C2",
          "midi": 36,
          "time": 68.57135999999986,
          "velocity": 0.7480314960629921,
          "duration": 0.2857139999999987
        },
        {
          "name": "F#2",
          "midi": 42,
          "time": 68.85707399999986,
          "velocity": 0.7480314960629921,
          "duration": 0.2857140000000129
        },
        {
          "name": "D2",
          "midi": 38,
          "time": 68.85707399999986,
          "velocity": 0.7480314960629921,
          "duration": 0.14285700000000645
        },
        {
          "name": "C2",
          "midi": 36,
          "time": 68.99993099999986,
          "velocity": 0.7480314960629921,
          "duration": 0.2857140000000129
        },
        {
          "name": "F#2",
          "midi": 42,
          "time": 69.14278799999987,
          "velocity": 0.7480314960629921,
          "duration": 0.2857140000000129
        },
        {
          "name": "C2",
          "midi": 36,
          "time": 69.28564499999987,
          "velocity": 0.7480314960629921,
          "duration": 0.14285700000000645
        },
        {
          "name": "F#2",
          "midi": 42,
          "time": 69.42850199999988,
          "velocity": 0.7480314960629921,
          "duration": 0.2857139999999987
        },
        {
          "name": "D2",
          "midi": 38,
          "time": 69.42850199999988,
          "velocity": 0.7480314960629921,
          "duration": 0.2857139999999987
        },
        {
          "name": "F#2",
          "midi": 42,
          "time": 69.71421599999988,
          "velocity": 0.7480314960629921,
          "duration": 0.2857139999999987
        },
        {
          "name": "C2",
          "midi": 36,
          "time": 69.71421599999988,
          "velocity": 0.7480314960629921,
          "duration": 0.2857139999999987
        },
        {
          "name": "F#2",
          "midi": 42,
          "time": 69.99992999999988,
          "velocity": 0.7480314960629921,
          "duration": 0.2857140000000129
        },
        {
          "name": "D2",
          "midi": 38,
          "time": 69.99992999999988,
          "velocity": 0.7480314960629921,
          "duration": 0.14285700000000645
        },
        {
          "name": "F#2",
          "midi": 42,
          "time": 70.28564399999989,
          "velocity": 0.7480314960629921,
          "duration": 0.2857139999999987
        },
        {
          "name": "C2",
          "midi": 36,
          "time": 70.28564399999989,
          "velocity": 0.7480314960629921,
          "duration": 0.2857139999999987
        },
        {
          "name": "F#2",
          "midi": 42,
          "time": 70.57135799999989,
          "velocity": 0.7480314960629921,
          "duration": 0.2857139999999987
        },
        {
          "name": "D2",
          "midi": 38,
          "time": 70.57135799999989,
          "velocity": 0.7480314960629921,
          "duration": 0.2857139999999987
        },
        {
          "name": "F#2",
          "midi": 42,
          "time": 70.85707199999989,
          "velocity": 0.7480314960629921,
          "duration": 0.2857139999999987
        },
        {
          "name": "C2",
          "midi": 36,
          "time": 70.85707199999989,
          "velocity": 0.7480314960629921,
          "duration": 0.2857139999999987
        },
        {
          "name": "F#2",
          "midi": 42,
          "time": 71.14278599999989,
          "velocity": 0.7480314960629921,
          "duration": 0.2857140000000129
        },
        {
          "name": "D2",
          "midi": 38,
          "time": 71.14278599999989,
          "velocity": 0.7480314960629921,
          "duration": 0.14285700000000645
        },
        {
          "name": "C2",
          "midi": 36,
          "time": 71.2856429999999,
          "velocity": 0.7480314960629921,
          "duration": 0.2857140000000129
        },
        {
          "name": "F#2",
          "midi": 42,
          "time": 71.4284999999999,
          "velocity": 0.7480314960629921,
          "duration": 0.2857140000000129
        },
        {
          "name": "C2",
          "midi": 36,
          "time": 71.5713569999999,
          "velocity": 0.7480314960629921,
          "duration": 0.14285700000000645
        },
        {
          "name": "F#2",
          "midi": 42,
          "time": 71.71421399999991,
          "velocity": 0.7480314960629921,
          "duration": 0.2857139999999987
        },
        {
          "name": "D2",
          "midi": 38,
          "time": 71.71421399999991,
          "velocity": 0.7480314960629921,
          "duration": 0.2857139999999987
        },
        {
          "name": "F#2",
          "midi": 42,
          "time": 71.99992799999991,
          "velocity": 0.7480314960629921,
          "duration": 0.2857139999999987
        },
        {
          "name": "C2",
          "midi": 36,
          "time": 71.99992799999991,
          "velocity": 0.7480314960629921,
          "duration": 0.2857139999999987
        },
        {
          "name": "A#2",
          "midi": 46,
          "time": 72.28564199999991,
          "velocity": 0.7480314960629921,
          "duration": 0.2857139999999987
        },
        {
          "name": "D2",
          "midi": 38,
          "time": 72.28564199999991,
          "velocity": 0.7480314960629921,
          "duration": 0.8571419999999961
        },
        {
          "name": "C#3",
          "midi": 49,
          "time": 72.57135599999991,
          "velocity": 0.7480314960629921,
          "duration": 0.5714279999999974
        },
        {
          "name": "C#3",
          "midi": 49,
          "time": 73.1427839999999,
          "velocity": 0.7480314960629921,
          "duration": 0.2857139999999987
        },
        {
          "name": "C2",
          "midi": 36,
          "time": 73.1427839999999,
          "velocity": 0.7480314960629921,
          "duration": 0.2857139999999987
        },
        {
          "name": "F#2",
          "midi": 42,
          "time": 73.4284979999999,
          "velocity": 0.7480314960629921,
          "duration": 0.2857140000000129
        },
        {
          "name": "D2",
          "midi": 38,
          "time": 73.4284979999999,
          "velocity": 0.7480314960629921,
          "duration": 0.14285700000000645
        },
        {
          "name": "C2",
          "midi": 36,
          "time": 73.57135499999991,
          "velocity": 0.7480314960629921,
          "duration": 0.2857140000000129
        },
        {
          "name": "F#2",
          "midi": 42,
          "time": 73.71421199999992,
          "velocity": 0.7480314960629921,
          "duration": 0.2857140000000129
        },
        {
          "name": "C2",
          "midi": 36,
          "time": 73.85706899999992,
          "velocity": 0.7480314960629921,
          "duration": 0.14285700000000645
        },
        {
          "name": "F#2",
          "midi": 42,
          "time": 73.99992599999993,
          "velocity": 0.7480314960629921,
          "duration": 0.2857139999999987
        },
        {
          "name": "D2",
          "midi": 38,
          "time": 73.99992599999993,
          "velocity": 0.7480314960629921,
          "duration": 0.2857139999999987
        },
        {
          "name": "F#2",
          "midi": 42,
          "time": 74.28563999999993,
          "velocity": 0.7480314960629921,
          "duration": 0.2857139999999987
        },
        {
          "name": "C2",
          "midi": 36,
          "time": 74.28563999999993,
          "velocity": 0.7480314960629921,
          "duration": 0.2857139999999987
        },
        {
          "name": "F#2",
          "midi": 42,
          "time": 74.57135399999993,
          "velocity": 0.7480314960629921,
          "duration": 0.2857140000000129
        },
        {
          "name": "D2",
          "midi": 38,
          "time": 74.57135399999993,
          "velocity": 0.7480314960629921,
          "duration": 0.14285700000000645
        },
        {
          "name": "F#2",
          "midi": 42,
          "time": 74.85706799999994,
          "velocity": 0.7480314960629921,
          "duration": 0.2857139999999987
        },
        {
          "name": "C2",
          "midi": 36,
          "time": 74.85706799999994,
          "velocity": 0.7480314960629921,
          "duration": 0.2857139999999987
        },
        {
          "name": "F#2",
          "midi": 42,
          "time": 75.14278199999994,
          "velocity": 0.7480314960629921,
          "duration": 0.2857139999999987
        },
        {
          "name": "D2",
          "midi": 38,
          "time": 75.14278199999994,
          "velocity": 0.7480314960629921,
          "duration": 0.2857139999999987
        },
        {
          "name": "F#2",
          "midi": 42,
          "time": 75.42849599999994,
          "velocity": 0.7480314960629921,
          "duration": 0.2857139999999987
        },
        {
          "name": "C2",
          "midi": 36,
          "time": 75.42849599999994,
          "velocity": 0.7480314960629921,
          "duration": 0.2857139999999987
        },
        {
          "name": "F#2",
          "midi": 42,
          "time": 75.71420999999994,
          "velocity": 0.7480314960629921,
          "duration": 0.2857140000000129
        },
        {
          "name": "D2",
          "midi": 38,
          "time": 75.71420999999994,
          "velocity": 0.7480314960629921,
          "duration": 0.14285700000000645
        },
        {
          "name": "C2",
          "midi": 36,
          "time": 75.85706699999994,
          "velocity": 0.7480314960629921,
          "duration": 0.2857140000000129
        },
        {
          "name": "F#2",
          "midi": 42,
          "time": 75.99992399999995,
          "velocity": 0.7480314960629921,
          "duration": 0.2857140000000129
        },
        {
          "name": "C2",
          "midi": 36,
          "time": 76.14278099999996,
          "velocity": 0.7480314960629921,
          "duration": 0.14285700000000645
        },
        {
          "name": "F#2",
          "midi": 42,
          "time": 76.28563799999996,
          "velocity": 0.7480314960629921,
          "duration": 0.2857139999999987
        },
        {
          "name": "D2",
          "midi": 38,
          "time": 76.28563799999996,
          "velocity": 0.7480314960629921,
          "duration": 0.2857139999999987
        },
        {
          "name": "F#2",
          "midi": 42,
          "time": 76.57135199999996,
          "velocity": 0.7480314960629921,
          "duration": 0.2857139999999987
        },
        {
          "name": "C2",
          "midi": 36,
          "time": 76.57135199999996,
          "velocity": 0.7480314960629921,
          "duration": 0.2857139999999987
        },
        {
          "name": "F#2",
          "midi": 42,
          "time": 76.85706599999996,
          "velocity": 0.7480314960629921,
          "duration": 0.2857140000000129
        },
        {
          "name": "D2",
          "midi": 38,
          "time": 76.85706599999996,
          "velocity": 0.7480314960629921,
          "duration": 0.14285700000000645
        },
        {
          "name": "F#2",
          "midi": 42,
          "time": 77.14277999999997,
          "velocity": 0.7480314960629921,
          "duration": 0.2857140000000129
        },
        {
          "name": "C2",
          "midi": 36,
          "time": 77.14277999999997,
          "velocity": 0.7480314960629921,
          "duration": 0.14285700000000645
        },
        {
          "name": "D2",
          "midi": 38,
          "time": 77.28563699999998,
          "velocity": 0.7480314960629921,
          "duration": 0.14285700000000645
        },
        {
          "name": "F#2",
          "midi": 42,
          "time": 77.42849399999999,
          "velocity": 0.7480314960629921,
          "duration": 0.2857140000000129
        },
        {
          "name": "D2",
          "midi": 38,
          "time": 77.57135099999999,
          "velocity": 0.7480314960629921,
          "duration": 0.14285700000000645
        },
        {
          "name": "F#2",
          "midi": 42,
          "time": 77.714208,
          "velocity": 0.7480314960629921,
          "duration": 0.2857139999999987
        },
        {
          "name": "C2",
          "midi": 36,
          "time": 77.714208,
          "velocity": 0.7480314960629921,
          "duration": 0.2857139999999987
        },
        {
          "name": "F#2",
          "midi": 42,
          "time": 77.999922,
          "velocity": 0.7480314960629921,
          "duration": 0.2857140000000129
        },
        {
          "name": "D2",
          "midi": 38,
          "time": 77.999922,
          "velocity": 0.7480314960629921,
          "duration": 0.14285700000000645
        },
        {
          "name": "C2",
          "midi": 36,
          "time": 78.142779,
          "velocity": 0.7480314960629921,
          "duration": 0.2857140000000129
        },
        {
          "name": "F#2",
          "midi": 42,
          "time": 78.28563600000001,
          "velocity": 0.7480314960629921,
          "duration": 0.2857140000000129
        },
        {
          "name": "C2",
          "midi": 36,
          "time": 78.42849300000002,
          "velocity": 0.7480314960629921,
          "duration": 0.14285700000000645
        },
        {
          "name": "F#2",
          "midi": 42,
          "time": 78.57135000000002,
          "velocity": 0.7480314960629921,
          "duration": 0.2857139999999987
        },
        {
          "name": "D2",
          "midi": 38,
          "time": 78.57135000000002,
          "velocity": 0.7480314960629921,
          "duration": 0.2857139999999987
        },
        {
          "name": "F#2",
          "midi": 42,
          "time": 78.85706400000002,
          "velocity": 0.7480314960629921,
          "duration": 0.2857139999999987
        },
        {
          "name": "C2",
          "midi": 36,
          "time": 78.85706400000002,
          "velocity": 0.7480314960629921,
          "duration": 0.2857139999999987
        },
        {
          "name": "F#2",
          "midi": 42,
          "time": 79.14277800000002,
          "velocity": 0.7480314960629921,
          "duration": 0.2857140000000129
        },
        {
          "name": "D2",
          "midi": 38,
          "time": 79.14277800000002,
          "velocity": 0.7480314960629921,
          "duration": 0.14285700000000645
        },
        {
          "name": "F#2",
          "midi": 42,
          "time": 79.42849200000003,
          "velocity": 0.7480314960629921,
          "duration": 0.2857139999999987
        },
        {
          "name": "C2",
          "midi": 36,
          "time": 79.42849200000003,
          "velocity": 0.7480314960629921,
          "duration": 0.2857139999999987
        },
        {
          "name": "F#2",
          "midi": 42,
          "time": 79.71420600000003,
          "velocity": 0.7480314960629921,
          "duration": 0.2857139999999987
        },
        {
          "name": "D2",
          "midi": 38,
          "time": 79.71420600000003,
          "velocity": 0.7480314960629921,
          "duration": 0.2857139999999987
        },
        {
          "name": "F#2",
          "midi": 42,
          "time": 79.99992000000003,
          "velocity": 0.7480314960629921,
          "duration": 0.2857139999999987
        },
        {
          "name": "C2",
          "midi": 36,
          "time": 79.99992000000003,
          "velocity": 0.7480314960629921,
          "duration": 0.2857139999999987
        },
        {
          "name": "F#2",
          "midi": 42,
          "time": 80.28563400000003,
          "velocity": 0.7480314960629921,
          "duration": 0.2857140000000129
        },
        {
          "name": "D2",
          "midi": 38,
          "time": 80.28563400000003,
          "velocity": 0.7480314960629921,
          "duration": 0.14285700000000645
        },
        {
          "name": "C2",
          "midi": 36,
          "time": 80.42849100000004,
          "velocity": 0.7480314960629921,
          "duration": 0.2857140000000129
        },
        {
          "name": "F#2",
          "midi": 42,
          "time": 80.57134800000004,
          "velocity": 0.7480314960629921,
          "duration": 0.2857140000000129
        },
        {
          "name": "C2",
          "midi": 36,
          "time": 80.71420500000005,
          "velocity": 0.7480314960629921,
          "duration": 0.14285700000000645
        },
        {
          "name": "F#2",
          "midi": 42,
          "time": 80.85706200000006,
          "velocity": 0.7480314960629921,
          "duration": 0.2857139999999987
        },
        {
          "name": "D2",
          "midi": 38,
          "time": 80.85706200000006,
          "velocity": 0.7480314960629921,
          "duration": 0.2857139999999987
        },
        {
          "name": "F#2",
          "midi": 42,
          "time": 81.14277600000005,
          "velocity": 0.7480314960629921,
          "duration": 0.2857139999999987
        },
        {
          "name": "C2",
          "midi": 36,
          "time": 81.14277600000005,
          "velocity": 0.7480314960629921,
          "duration": 0.2857139999999987
        },
        {
          "name": "F#2",
          "midi": 42,
          "time": 81.42849000000005,
          "velocity": 0.7480314960629921,
          "duration": 0.2857140000000129
        },
        {
          "name": "D2",
          "midi": 38,
          "time": 81.42849000000005,
          "velocity": 0.7480314960629921,
          "duration": 0.14285700000000645
        },
        {
          "name": "C#3",
          "midi": 49,
          "time": 81.71420400000007,
          "velocity": 0.7480314960629921,
          "duration": 0.2857139999999987
        },
        {
          "name": "C2",
          "midi": 36,
          "time": 81.71420400000007,
          "velocity": 0.7480314960629921,
          "duration": 0.2857139999999987
        },
        {
          "name": "C#3",
          "midi": 49,
          "time": 81.99991800000006,
          "velocity": 0.7480314960629921,
          "duration": 0.2857139999999987
        },
        {
          "name": "D2",
          "midi": 38,
          "time": 81.99991800000006,
          "velocity": 0.7480314960629921,
          "duration": 0.2857139999999987
        },
        {
          "name": "C#3",
          "midi": 49,
          "time": 82.28563200000006,
          "velocity": 0.7480314960629921,
          "duration": 0.2857139999999987
        },
        {
          "name": "C2",
          "midi": 36,
          "time": 82.28563200000006,
          "velocity": 0.7480314960629921,
          "duration": 0.2857139999999987
        },
        {
          "name": "F#2",
          "midi": 42,
          "time": 82.57134600000006,
          "velocity": 0.7480314960629921,
          "duration": 0.2857140000000129
        },
        {
          "name": "D2",
          "midi": 38,
          "time": 82.57134600000006,
          "velocity": 0.7480314960629921,
          "duration": 0.14285700000000645
        },
        {
          "name": "C2",
          "midi": 36,
          "time": 82.71420300000007,
          "velocity": 0.7480314960629921,
          "duration": 0.2857140000000129
        },
        {
          "name": "F#2",
          "midi": 42,
          "time": 82.85706000000008,
          "velocity": 0.7480314960629921,
          "duration": 0.2857140000000129
        },
        {
          "name": "C2",
          "midi": 36,
          "time": 82.99991700000008,
          "velocity": 0.7480314960629921,
          "duration": 0.14285700000000645
        },
        {
          "name": "F#2",
          "midi": 42,
          "time": 83.14277400000009,
          "velocity": 0.7480314960629921,
          "duration": 0.2857139999999987
        },
        {
          "name": "D2",
          "midi": 38,
          "time": 83.14277400000009,
          "velocity": 0.7480314960629921,
          "duration": 0.2857139999999987
        },
        {
          "name": "F#2",
          "midi": 42,
          "time": 83.42848800000009,
          "velocity": 0.7480314960629921,
          "duration": 0.2857139999999987
        },
        {
          "name": "C2",
          "midi": 36,
          "time": 83.42848800000009,
          "velocity": 0.7480314960629921,
          "duration": 0.2857139999999987
        },
        {
          "name": "F#2",
          "midi": 42,
          "time": 83.71420200000009,
          "velocity": 0.7480314960629921,
          "duration": 0.2857140000000129
        },
        {
          "name": "D2",
          "midi": 38,
          "time": 83.71420200000009,
          "velocity": 0.7480314960629921,
          "duration": 0.14285700000000645
        },
        {
          "name": "F#2",
          "midi": 42,
          "time": 83.9999160000001,
          "velocity": 0.7480314960629921,
          "duration": 0.2857139999999987
        },
        {
          "name": "C2",
          "midi": 36,
          "time": 83.9999160000001,
          "velocity": 0.7480314960629921,
          "duration": 0.2857139999999987
        },
        {
          "name": "F#2",
          "midi": 42,
          "time": 84.2856300000001,
          "velocity": 0.7480314960629921,
          "duration": 0.2857139999999987
        },
        {
          "name": "D2",
          "midi": 38,
          "time": 84.2856300000001,
          "velocity": 0.7480314960629921,
          "duration": 0.2857139999999987
        },
        {
          "name": "F#2",
          "midi": 42,
          "time": 84.5713440000001,
          "velocity": 0.7480314960629921,
          "duration": 0.2857139999999987
        },
        {
          "name": "C2",
          "midi": 36,
          "time": 84.5713440000001,
          "velocity": 0.7480314960629921,
          "duration": 0.2857139999999987
        },
        {
          "name": "F#2",
          "midi": 42,
          "time": 84.8570580000001,
          "velocity": 0.7480314960629921,
          "duration": 0.2857140000000129
        },
        {
          "name": "D2",
          "midi": 38,
          "time": 84.8570580000001,
          "velocity": 0.7480314960629921,
          "duration": 0.14285700000000645
        },
        {
          "name": "C2",
          "midi": 36,
          "time": 84.9999150000001,
          "velocity": 0.7480314960629921,
          "duration": 0.2857140000000129
        },
        {
          "name": "F#2",
          "midi": 42,
          "time": 85.14277200000011,
          "velocity": 0.7480314960629921,
          "duration": 0.2857140000000129
        },
        {
          "name": "C2",
          "midi": 36,
          "time": 85.28562900000011,
          "velocity": 0.7480314960629921,
          "duration": 0.14285700000000645
        },
        {
          "name": "F#2",
          "midi": 42,
          "time": 85.42848600000012,
          "velocity": 0.7480314960629921,
          "duration": 0.2857139999999987
        },
        {
          "name": "D2",
          "midi": 38,
          "time": 85.42848600000012,
          "velocity": 0.7480314960629921,
          "duration": 0.2857139999999987
        },
        {
          "name": "F#2",
          "midi": 42,
          "time": 85.71420000000012,
          "velocity": 0.7480314960629921,
          "duration": 0.2857139999999987
        },
        {
          "name": "C2",
          "midi": 36,
          "time": 85.71420000000012,
          "velocity": 0.7480314960629921,
          "duration": 0.2857139999999987
        },
        {
          "name": "F#2",
          "midi": 42,
          "time": 85.99991400000012,
          "velocity": 0.7480314960629921,
          "duration": 0.2857140000000129
        },
        {
          "name": "D2",
          "midi": 38,
          "time": 85.99991400000012,
          "velocity": 0.7480314960629921,
          "duration": 0.14285700000000645
        },
        {
          "name": "F#2",
          "midi": 42,
          "time": 86.28562800000013,
          "velocity": 0.7480314960629921,
          "duration": 0.2857139999999987
        },
        {
          "name": "C2",
          "midi": 36,
          "time": 86.28562800000013,
          "velocity": 0.7480314960629921,
          "duration": 0.2857139999999987
        },
        {
          "name": "F#2",
          "midi": 42,
          "time": 86.57134200000013,
          "velocity": 0.7480314960629921,
          "duration": 0.2857139999999987
        },
        {
          "name": "D2",
          "midi": 38,
          "time": 86.57134200000013,
          "velocity": 0.7480314960629921,
          "duration": 0.2857139999999987
        },
        {
          "name": "F#2",
          "midi": 42,
          "time": 86.85705600000013,
          "velocity": 0.7480314960629921,
          "duration": 0.2857139999999987
        },
        {
          "name": "C2",
          "midi": 36,
          "time": 86.85705600000013,
          "velocity": 0.7480314960629921,
          "duration": 0.2857139999999987
        },
        {
          "name": "F#2",
          "midi": 42,
          "time": 87.14277000000013,
          "velocity": 0.7480314960629921,
          "duration": 0.2857140000000129
        },
        {
          "name": "D2",
          "midi": 38,
          "time": 87.14277000000013,
          "velocity": 0.7480314960629921,
          "duration": 0.14285700000000645
        },
        {
          "name": "C2",
          "midi": 36,
          "time": 87.28562700000013,
          "velocity": 0.7480314960629921,
          "duration": 0.2857140000000129
        },
        {
          "name": "F#2",
          "midi": 42,
          "time": 87.42848400000014,
          "velocity": 0.7480314960629921,
          "duration": 0.2857140000000129
        },
        {
          "name": "C2",
          "midi": 36,
          "time": 87.57134100000015,
          "velocity": 0.7480314960629921,
          "duration": 0.14285700000000645
        },
        {
          "name": "F#2",
          "midi": 42,
          "time": 87.71419800000015,
          "velocity": 0.7480314960629921,
          "duration": 0.2857139999999987
        },
        {
          "name": "D2",
          "midi": 38,
          "time": 87.71419800000015,
          "velocity": 0.7480314960629921,
          "duration": 0.2857139999999987
        },
        {
          "name": "F#2",
          "midi": 42,
          "time": 87.99991200000015,
          "velocity": 0.7480314960629921,
          "duration": 0.2857139999999987
        },
        {
          "name": "C2",
          "midi": 36,
          "time": 87.99991200000015,
          "velocity": 0.7480314960629921,
          "duration": 0.2857139999999987
        },
        {
          "name": "F#2",
          "midi": 42,
          "time": 88.28562600000015,
          "velocity": 0.7480314960629921,
          "duration": 0.2857140000000129
        },
        {
          "name": "D2",
          "midi": 38,
          "time": 88.28562600000015,
          "velocity": 0.7480314960629921,
          "duration": 0.14285700000000645
        },
        {
          "name": "F#2",
          "midi": 42,
          "time": 88.57134000000016,
          "velocity": 0.7480314960629921,
          "duration": 0.2857139999999987
        },
        {
          "name": "C2",
          "midi": 36,
          "time": 88.57134000000016,
          "velocity": 0.7480314960629921,
          "duration": 0.2857139999999987
        },
        {
          "name": "F#2",
          "midi": 42,
          "time": 88.85705400000016,
          "velocity": 0.7480314960629921,
          "duration": 0.2857139999999987
        },
        {
          "name": "D2",
          "midi": 38,
          "time": 88.85705400000016,
          "velocity": 0.7480314960629921,
          "duration": 0.2857139999999987
        },
        {
          "name": "A#2",
          "midi": 46,
          "time": 89.14276800000016,
          "velocity": 0.7480314960629921,
          "duration": 0.2857139999999987
        },
        {
          "name": "C2",
          "midi": 36,
          "time": 89.14276800000016,
          "velocity": 0.7480314960629921,
          "duration": 0.2857139999999987
        },
        {
          "name": "A#2",
          "midi": 46,
          "time": 89.42848200000016,
          "velocity": 0.7480314960629921,
          "duration": 0.2857140000000129
        },
        {
          "name": "D2",
          "midi": 38,
          "time": 89.42848200000016,
          "velocity": 0.7480314960629921,
          "duration": 0.14285700000000645
        },
        {
          "name": "A#2",
          "midi": 46,
          "time": 89.71419600000017,
          "velocity": 0.7480314960629921,
          "duration": 0.2857139999999987
        },
        {
          "name": "C2",
          "midi": 36,
          "time": 89.71419600000017,
          "velocity": 0.7480314960629921,
          "duration": 0.2857139999999987
        },
        {
          "name": "A#2",
          "midi": 46,
          "time": 89.99991000000017,
          "velocity": 0.7480314960629921,
          "duration": 0.2857139999999987
        },
        {
          "name": "D2",
          "midi": 38,
          "time": 89.99991000000017,
          "velocity": 0.7480314960629921,
          "duration": 0.2857139999999987
        },
        {
          "name": "A#2",
          "midi": 46,
          "time": 90.28562400000017,
          "velocity": 0.7480314960629921,
          "duration": 0.2857139999999987
        },
        {
          "name": "C2",
          "midi": 36,
          "time": 90.28562400000017,
          "velocity": 0.7480314960629921,
          "duration": 0.2857139999999987
        },
        {
          "name": "A#2",
          "midi": 46,
          "time": 90.57133800000017,
          "velocity": 0.7480314960629921,
          "duration": 0.2857140000000129
        },
        {
          "name": "D2",
          "midi": 38,
          "time": 90.57133800000017,
          "velocity": 0.7480314960629921,
          "duration": 0.14285700000000645
        },
        {
          "name": "A#2",
          "midi": 46,
          "time": 90.85705200000018,
          "velocity": 0.7480314960629921,
          "duration": 0.2857139999999987
        },
        {
          "name": "C2",
          "midi": 36,
          "time": 90.85705200000018,
          "velocity": 0.7480314960629921,
          "duration": 0.2857139999999987
        },
        {
          "name": "C#3",
          "midi": 49,
          "time": 91.14276600000018,
          "velocity": 0.7480314960629921,
          "duration": 0.2857140000000129
        },
        {
          "name": "D2",
          "midi": 38,
          "time": 91.14276600000018,
          "velocity": 0.7480314960629921,
          "duration": 0.14285700000000645
        },
        {
          "name": "F#2",
          "midi": 42,
          "time": 91.42848000000019,
          "velocity": 0.7480314960629921,
          "duration": 0.2857139999999987
        },
        {
          "name": "D2",
          "midi": 38,
          "time": 91.42848000000019,
          "velocity": 0.7480314960629921,
          "duration": 0.2857139999999987
        },
        {
          "name": "F#2",
          "midi": 42,
          "time": 91.71419400000019,
          "velocity": 0.7480314960629921,
          "duration": 0.2857139999999987
        },
        {
          "name": "D2",
          "midi": 38,
          "time": 91.71419400000019,
          "velocity": 0.7480314960629921,
          "duration": 0.2857139999999987
        },
        {
          "name": "F#2",
          "midi": 42,
          "time": 91.99990800000019,
          "velocity": 0.7480314960629921,
          "duration": 0.2857139999999987
        },
        {
          "name": "D2",
          "midi": 38,
          "time": 91.99990800000019,
          "velocity": 0.7480314960629921,
          "duration": 0.2857139999999987
        },
        {
          "name": "F#2",
          "midi": 42,
          "time": 92.28562200000019,
          "velocity": 0.7480314960629921,
          "duration": 0.2857139999999987
        },
        {
          "name": "D2",
          "midi": 38,
          "time": 92.28562200000019,
          "velocity": 0.7480314960629921,
          "duration": 0.2857139999999987
        },
        {
          "name": "F#2",
          "midi": 42,
          "time": 92.57133600000019,
          "velocity": 0.7480314960629921,
          "duration": 0.2857139999999987
        },
        {
          "name": "D2",
          "midi": 38,
          "time": 92.57133600000019,
          "velocity": 0.7480314960629921,
          "duration": 0.2857139999999987
        },
        {
          "name": "F#2",
          "midi": 42,
          "time": 92.85705000000019,
          "velocity": 0.7480314960629921,
          "duration": 0.2857139999999987
        },
        {
          "name": "D2",
          "midi": 38,
          "time": 92.85705000000019,
          "velocity": 0.7480314960629921,
          "duration": 0.2857139999999987
        },
        {
          "name": "F#2",
          "midi": 42,
          "time": 93.14276400000018,
          "velocity": 0.7480314960629921,
          "duration": 0.2857139999999987
        },
        {
          "name": "D2",
          "midi": 38,
          "time": 93.14276400000018,
          "velocity": 0.7480314960629921,
          "duration": 0.2857139999999987
        },
        {
          "name": "F#2",
          "midi": 42,
          "time": 93.42847800000018,
          "velocity": 0.7480314960629921,
          "duration": 0.2857139999999987
        },
        {
          "name": "D2",
          "midi": 38,
          "time": 93.42847800000018,
          "velocity": 0.7480314960629921,
          "duration": 0.2857139999999987
        },
        {
          "name": "F#2",
          "midi": 42,
          "time": 93.71419200000018,
          "velocity": 0.7480314960629921,
          "duration": 0.2857139999999987
        },
        {
          "name": "D2",
          "midi": 38,
          "time": 93.71419200000018,
          "velocity": 0.7480314960629921,
          "duration": 0.2857139999999987
        },
        {
          "name": "F#2",
          "midi": 42,
          "time": 93.99990600000018,
          "velocity": 0.7480314960629921,
          "duration": 0.2857139999999987
        },
        {
          "name": "D2",
          "midi": 38,
          "time": 93.99990600000018,
          "velocity": 0.7480314960629921,
          "duration": 0.2857139999999987
        },
        {
          "name": "F#2",
          "midi": 42,
          "time": 94.28562000000018,
          "velocity": 0.7480314960629921,
          "duration": 0.2857139999999987
        },
        {
          "name": "D2",
          "midi": 38,
          "time": 94.28562000000018,
          "velocity": 0.7480314960629921,
          "duration": 0.2857139999999987
        },
        {
          "name": "F#2",
          "midi": 42,
          "time": 94.57133400000018,
          "velocity": 0.7480314960629921,
          "duration": 0.2857139999999987
        },
        {
          "name": "D2",
          "midi": 38,
          "time": 94.57133400000018,
          "velocity": 0.7480314960629921,
          "duration": 0.2857139999999987
        },
        {
          "name": "F#2",
          "midi": 42,
          "time": 94.85704800000018,
          "velocity": 0.7480314960629921,
          "duration": 0.2857139999999987
        },
        {
          "name": "D2",
          "midi": 38,
          "time": 94.85704800000018,
          "velocity": 0.7480314960629921,
          "duration": 0.2857139999999987
        },
        {
          "name": "F#2",
          "midi": 42,
          "time": 95.14276200000018,
          "velocity": 0.7480314960629921,
          "duration": 0.2857139999999987
        },
        {
          "name": "D2",
          "midi": 38,
          "time": 95.14276200000018,
          "velocity": 0.7480314960629921,
          "duration": 0.2857139999999987
        },
        {
          "name": "F#2",
          "midi": 42,
          "time": 95.42847600000017,
          "velocity": 0.7480314960629921,
          "duration": 0.2857139999999987
        },
        {
          "name": "D2",
          "midi": 38,
          "time": 95.42847600000017,
          "velocity": 0.7480314960629921,
          "duration": 0.2857139999999987
        },
        {
          "name": "F#2",
          "midi": 42,
          "time": 95.71419000000017,
          "velocity": 0.7480314960629921,
          "duration": 0.2857139999999987
        },
        {
          "name": "D2",
          "midi": 38,
          "time": 95.71419000000017,
          "velocity": 0.7480314960629921,
          "duration": 0.2857139999999987
        },
        {
          "name": "C#3",
          "midi": 49,
          "time": 95.99990400000017,
          "velocity": 0.7480314960629921,
          "duration": 0.2857139999999987
        },
        {
          "name": "D2",
          "midi": 38,
          "time": 95.99990400000017,
          "velocity": 0.7480314960629921,
          "duration": 0.2857139999999987
        },
        {
          "name": "F#2",
          "midi": 42,
          "time": 96.28561800000017,
          "velocity": 0.7480314960629921,
          "duration": 0.2857139999999987
        },
        {
          "name": "D2",
          "midi": 38,
          "time": 96.28561800000017,
          "velocity": 0.7480314960629921,
          "duration": 0.2857139999999987
        },
        {
          "name": "F#2",
          "midi": 42,
          "time": 96.57133200000017,
          "velocity": 0.7480314960629921,
          "duration": 0.2857139999999987
        },
        {
          "name": "D2",
          "midi": 38,
          "time": 96.57133200000017,
          "velocity": 0.7480314960629921,
          "duration": 0.2857139999999987
        },
        {
          "name": "F#2",
          "midi": 42,
          "time": 96.85704600000017,
          "velocity": 0.7480314960629921,
          "duration": 0.2857139999999987
        },
        {
          "name": "D2",
          "midi": 38,
          "time": 96.85704600000017,
          "velocity": 0.7480314960629921,
          "duration": 0.2857139999999987
        },
        {
          "name": "F#2",
          "midi": 42,
          "time": 97.14276000000017,
          "velocity": 0.7480314960629921,
          "duration": 0.2857139999999987
        },
        {
          "name": "D2",
          "midi": 38,
          "time": 97.14276000000017,
          "velocity": 0.7480314960629921,
          "duration": 0.2857139999999987
        },
        {
          "name": "F#2",
          "midi": 42,
          "time": 97.42847400000016,
          "velocity": 0.7480314960629921,
          "duration": 0.2857139999999987
        },
        {
          "name": "D2",
          "midi": 38,
          "time": 97.42847400000016,
          "velocity": 0.7480314960629921,
          "duration": 0.2857139999999987
        },
        {
          "name": "F#2",
          "midi": 42,
          "time": 97.71418800000016,
          "velocity": 0.7480314960629921,
          "duration": 0.2857139999999987
        },
        {
          "name": "D2",
          "midi": 38,
          "time": 97.71418800000016,
          "velocity": 0.7480314960629921,
          "duration": 0.2857139999999987
        },
        {
          "name": "F#2",
          "midi": 42,
          "time": 97.99990200000016,
          "velocity": 0.7480314960629921,
          "duration": 0.2857139999999987
        },
        {
          "name": "D2",
          "midi": 38,
          "time": 97.99990200000016,
          "velocity": 0.7480314960629921,
          "duration": 0.2857139999999987
        },
        {
          "name": "F#2",
          "midi": 42,
          "time": 98.28561600000016,
          "velocity": 0.7480314960629921,
          "duration": 0.2857139999999987
        },
        {
          "name": "D2",
          "midi": 38,
          "time": 98.28561600000016,
          "velocity": 0.7480314960629921,
          "duration": 0.2857139999999987
        },
        {
          "name": "F#2",
          "midi": 42,
          "time": 98.57133000000016,
          "velocity": 0.7480314960629921,
          "duration": 0.2857139999999987
        },
        {
          "name": "D2",
          "midi": 38,
          "time": 98.57133000000016,
          "velocity": 0.7480314960629921,
          "duration": 0.2857139999999987
        },
        {
          "name": "F#2",
          "midi": 42,
          "time": 98.85704400000016,
          "velocity": 0.7480314960629921,
          "duration": 0.2857139999999987
        },
        {
          "name": "D2",
          "midi": 38,
          "time": 98.85704400000016,
          "velocity": 0.7480314960629921,
          "duration": 0.2857139999999987
        },
        {
          "name": "C#3",
          "midi": 49,
          "time": 99.14275800000016,
          "velocity": 0.7480314960629921,
          "duration": 1.428570000000036
        },
        {
          "name": "D2",
          "midi": 38,
          "time": 99.14275800000016,
          "velocity": 0.7480314960629921,
          "duration": 0.2857139999999987
        },
        {
          "name": "D2",
          "midi": 38,
          "time": 99.42847200000016,
          "velocity": 0.7480314960629921,
          "duration": 0.07142849999999612
        },
        {
          "name": "D2",
          "midi": 38,
          "time": 99.49990050000015,
          "velocity": 0.7480314960629921,
          "duration": 0.07142849999999612
        },
        {
          "name": "D2",
          "midi": 38,
          "time": 99.57132900000015,
          "velocity": 0.7480314960629921,
          "duration": 0.14285700000000645
        },
        {
          "name": "D2",
          "midi": 38,
          "time": 99.71418600000015,
          "velocity": 0.7480314960629921,
          "duration": 0.14285700000000645
        },
        {
          "name": "D2",
          "midi": 38,
          "time": 99.85704300000016,
          "velocity": 0.7480314960629921,
          "duration": 0.14285700000000645
        },
        {
          "name": "C3",
          "midi": 48,
          "time": 99.99990000000017,
          "velocity": 0.7480314960629921,
          "duration": 0.14285700000000645
        },
        {
          "name": "C3",
          "midi": 48,
          "time": 100.14275700000017,
          "velocity": 0.7480314960629921,
          "duration": 0.14285700000000645
        },
        {
          "name": "A2",
          "midi": 45,
          "time": 100.28561400000018,
          "velocity": 0.7480314960629921,
          "duration": 0.14285700000000645
        },
        {
          "name": "A2",
          "midi": 45,
          "time": 100.42847100000019,
          "velocity": 0.7480314960629921,
          "duration": 0.14285700000000645
        },
        {
          "name": "C#3",
          "midi": 49,
          "time": 100.5713280000002,
          "velocity": 0.7480314960629921,
          "duration": 0.2857139999999987
        },
        {
          "name": "C2",
          "midi": 36,
          "time": 100.5713280000002,
          "velocity": 0.7480314960629921,
          "duration": 0.2857139999999987
        },
        {
          "name": "F#2",
          "midi": 42,
          "time": 100.85704200000019,
          "velocity": 0.7480314960629921,
          "duration": 0.2857139999999987
        },
        {
          "name": "D2",
          "midi": 38,
          "time": 100.85704200000019,
          "velocity": 0.7480314960629921,
          "duration": 0.2857139999999987
        },
        {
          "name": "F#2",
          "midi": 42,
          "time": 101.14275600000019,
          "velocity": 0.7480314960629921,
          "duration": 0.2857140000000129
        },
        {
          "name": "C2",
          "midi": 36,
          "time": 101.14275600000019,
          "velocity": 0.7480314960629921,
          "duration": 0.14285700000000645
        },
        {
          "name": "C2",
          "midi": 36,
          "time": 101.2856130000002,
          "velocity": 0.7480314960629921,
          "duration": 0.14285700000000645
        },
        {
          "name": "F#2",
          "midi": 42,
          "time": 101.4284700000002,
          "velocity": 0.7480314960629921,
          "duration": 0.2857139999999987
        },
        {
          "name": "D2",
          "midi": 38,
          "time": 101.4284700000002,
          "velocity": 0.7480314960629921,
          "duration": 0.2857139999999987
        },
        {
          "name": "F#2",
          "midi": 42,
          "time": 101.7141840000002,
          "velocity": 0.7480314960629921,
          "duration": 0.2857139999999987
        },
        {
          "name": "C2",
          "midi": 36,
          "time": 101.7141840000002,
          "velocity": 0.7480314960629921,
          "duration": 0.2857139999999987
        },
        {
          "name": "F#2",
          "midi": 42,
          "time": 101.9998980000002,
          "velocity": 0.7480314960629921,
          "duration": 0.2857139999999987
        },
        {
          "name": "D2",
          "midi": 38,
          "time": 101.9998980000002,
          "velocity": 0.7480314960629921,
          "duration": 0.2857139999999987
        },
        {
          "name": "F#2",
          "midi": 42,
          "time": 102.2856120000002,
          "velocity": 0.7480314960629921,
          "duration": 0.2857140000000129
        },
        {
          "name": "C2",
          "midi": 36,
          "time": 102.2856120000002,
          "velocity": 0.7480314960629921,
          "duration": 0.14285700000000645
        },
        {
          "name": "C2",
          "midi": 36,
          "time": 102.4284690000002,
          "velocity": 0.7480314960629921,
          "duration": 0.14285700000000645
        },
        {
          "name": "F#2",
          "midi": 42,
          "time": 102.57132600000021,
          "velocity": 0.7480314960629921,
          "duration": 0.2857139999999987
        },
        {
          "name": "D2",
          "midi": 38,
          "time": 102.57132600000021,
          "velocity": 0.7480314960629921,
          "duration": 0.2857139999999987
        },
        {
          "name": "F#2",
          "midi": 42,
          "time": 102.85704000000021,
          "velocity": 0.7480314960629921,
          "duration": 0.2857139999999987
        },
        {
          "name": "C2",
          "midi": 36,
          "time": 102.85704000000021,
          "velocity": 0.7480314960629921,
          "duration": 0.2857139999999987
        },
        {
          "name": "F#2",
          "midi": 42,
          "time": 103.14275400000021,
          "velocity": 0.7480314960629921,
          "duration": 0.2857139999999987
        },
        {
          "name": "D2",
          "midi": 38,
          "time": 103.14275400000021,
          "velocity": 0.7480314960629921,
          "duration": 0.2857139999999987
        },
        {
          "name": "F#2",
          "midi": 42,
          "time": 103.42846800000021,
          "velocity": 0.7480314960629921,
          "duration": 0.2857140000000129
        },
        {
          "name": "C2",
          "midi": 36,
          "time": 103.42846800000021,
          "velocity": 0.7480314960629921,
          "duration": 0.14285700000000645
        },
        {
          "name": "C2",
          "midi": 36,
          "time": 103.57132500000021,
          "velocity": 0.7480314960629921,
          "duration": 0.14285700000000645
        },
        {
          "name": "F#2",
          "midi": 42,
          "time": 103.71418200000022,
          "velocity": 0.7480314960629921,
          "duration": 0.2857139999999987
        },
        {
          "name": "D2",
          "midi": 38,
          "time": 103.71418200000022,
          "velocity": 0.7480314960629921,
          "duration": 0.2857139999999987
        },
        {
          "name": "F#2",
          "midi": 42,
          "time": 103.99989600000022,
          "velocity": 0.7480314960629921,
          "duration": 0.2857139999999987
        },
        {
          "name": "C2",
          "midi": 36,
          "time": 103.99989600000022,
          "velocity": 0.7480314960629921,
          "duration": 0.2857139999999987
        },
        {
          "name": "F#2",
          "midi": 42,
          "time": 104.28561000000022,
          "velocity": 0.7480314960629921,
          "duration": 0.2857139999999987
        },
        {
          "name": "D2",
          "midi": 38,
          "time": 104.28561000000022,
          "velocity": 0.7480314960629921,
          "duration": 0.2857139999999987
        },
        {
          "name": "F#2",
          "midi": 42,
          "time": 104.57132400000022,
          "velocity": 0.7480314960629921,
          "duration": 0.2857140000000129
        },
        {
          "name": "C2",
          "midi": 36,
          "time": 104.57132400000022,
          "velocity": 0.7480314960629921,
          "duration": 0.14285700000000645
        },
        {
          "name": "C2",
          "midi": 36,
          "time": 104.71418100000022,
          "velocity": 0.7480314960629921,
          "duration": 0.14285700000000645
        },
        {
          "name": "F#2",
          "midi": 42,
          "time": 104.85703800000023,
          "velocity": 0.7480314960629921,
          "duration": 0.2857139999999987
        },
        {
          "name": "D2",
          "midi": 38,
          "time": 104.85703800000023,
          "velocity": 0.7480314960629921,
          "duration": 0.2857139999999987
        },
        {
          "name": "F#2",
          "midi": 42,
          "time": 105.14275200000023,
          "velocity": 0.7480314960629921,
          "duration": 0.2857139999999987
        },
        {
          "name": "C2",
          "midi": 36,
          "time": 105.14275200000023,
          "velocity": 0.7480314960629921,
          "duration": 0.2857139999999987
        },
        {
          "name": "F#2",
          "midi": 42,
          "time": 105.42846600000023,
          "velocity": 0.7480314960629921,
          "duration": 0.2857139999999987
        },
        {
          "name": "D2",
          "midi": 38,
          "time": 105.42846600000023,
          "velocity": 0.7480314960629921,
          "duration": 0.2857139999999987
        },
        {
          "name": "F#2",
          "midi": 42,
          "time": 105.71418000000023,
          "velocity": 0.7480314960629921,
          "duration": 0.2857140000000129
        },
        {
          "name": "C2",
          "midi": 36,
          "time": 105.71418000000023,
          "velocity": 0.7480314960629921,
          "duration": 0.14285700000000645
        },
        {
          "name": "C2",
          "midi": 36,
          "time": 105.85703700000023,
          "velocity": 0.7480314960629921,
          "duration": 0.14285700000000645
        },
        {
          "name": "F#2",
          "midi": 42,
          "time": 105.99989400000024,
          "velocity": 0.7480314960629921,
          "duration": 0.2857139999999987
        },
        {
          "name": "D2",
          "midi": 38,
          "time": 105.99989400000024,
          "velocity": 0.7480314960629921,
          "duration": 0.2857139999999987
        },
        {
          "name": "F#2",
          "midi": 42,
          "time": 106.28560800000024,
          "velocity": 0.7480314960629921,
          "duration": 0.2857139999999987
        },
        {
          "name": "C2",
          "midi": 36,
          "time": 106.28560800000024,
          "velocity": 0.7480314960629921,
          "duration": 0.2857139999999987
        },
        {
          "name": "F#2",
          "midi": 42,
          "time": 106.57132200000024,
          "velocity": 0.7480314960629921,
          "duration": 0.2857139999999987
        },
        {
          "name": "D2",
          "midi": 38,
          "time": 106.57132200000024,
          "velocity": 0.7480314960629921,
          "duration": 0.2857139999999987
        },
        {
          "name": "F#2",
          "midi": 42,
          "time": 106.85703600000024,
          "velocity": 0.7480314960629921,
          "duration": 0.2857140000000129
        },
        {
          "name": "C2",
          "midi": 36,
          "time": 106.85703600000024,
          "velocity": 0.7480314960629921,
          "duration": 0.14285700000000645
        },
        {
          "name": "C2",
          "midi": 36,
          "time": 106.99989300000024,
          "velocity": 0.7480314960629921,
          "duration": 0.14285700000000645
        },
        {
          "name": "F#2",
          "midi": 42,
          "time": 107.14275000000025,
          "velocity": 0.7480314960629921,
          "duration": 0.2857139999999987
        },
        {
          "name": "D2",
          "midi": 38,
          "time": 107.14275000000025,
          "velocity": 0.7480314960629921,
          "duration": 0.2857139999999987
        },
        {
          "name": "F#2",
          "midi": 42,
          "time": 107.42846400000025,
          "velocity": 0.7480314960629921,
          "duration": 0.2857139999999987
        },
        {
          "name": "C2",
          "midi": 36,
          "time": 107.42846400000025,
          "velocity": 0.7480314960629921,
          "duration": 0.2857139999999987
        },
        {
          "name": "F#2",
          "midi": 42,
          "time": 107.71417800000025,
          "velocity": 0.7480314960629921,
          "duration": 0.2857139999999987
        },
        {
          "name": "D2",
          "midi": 38,
          "time": 107.71417800000025,
          "velocity": 0.7480314960629921,
          "duration": 0.2857139999999987
        },
        {
          "name": "F#2",
          "midi": 42,
          "time": 107.99989200000024,
          "velocity": 0.7480314960629921,
          "duration": 0.2857140000000129
        },
        {
          "name": "C2",
          "midi": 36,
          "time": 107.99989200000024,
          "velocity": 0.7480314960629921,
          "duration": 0.14285700000000645
        },
        {
          "name": "C2",
          "midi": 36,
          "time": 108.14274900000025,
          "velocity": 0.7480314960629921,
          "duration": 0.14285700000000645
        },
        {
          "name": "F#2",
          "midi": 42,
          "time": 108.28560600000026,
          "velocity": 0.7480314960629921,
          "duration": 0.2857139999999987
        },
        {
          "name": "D2",
          "midi": 38,
          "time": 108.28560600000026,
          "velocity": 0.7480314960629921,
          "duration": 0.2857139999999987
        },
        {
          "name": "F#2",
          "midi": 42,
          "time": 108.57132000000026,
          "velocity": 0.7480314960629921,
          "duration": 0.2857139999999987
        },
        {
          "name": "C2",
          "midi": 36,
          "time": 108.57132000000026,
          "velocity": 0.7480314960629921,
          "duration": 0.2857139999999987
        },
        {
          "name": "F#2",
          "midi": 42,
          "time": 108.85703400000025,
          "velocity": 0.7480314960629921,
          "duration": 0.2857139999999987
        },
        {
          "name": "D2",
          "midi": 38,
          "time": 108.85703400000025,
          "velocity": 0.7480314960629921,
          "duration": 0.2857139999999987
        },
        {
          "name": "F#2",
          "midi": 42,
          "time": 109.14274800000025,
          "velocity": 0.7480314960629921,
          "duration": 0.2857140000000129
        },
        {
          "name": "C2",
          "midi": 36,
          "time": 109.14274800000025,
          "velocity": 0.7480314960629921,
          "duration": 0.14285700000000645
        },
        {
          "name": "C2",
          "midi": 36,
          "time": 109.28560500000026,
          "velocity": 0.7480314960629921,
          "duration": 0.14285700000000645
        },
        {
          "name": "A#2",
          "midi": 46,
          "time": 109.42846200000027,
          "velocity": 0.7480314960629921,
          "duration": 0.2857140000000129
        },
        {
          "name": "D2",
          "midi": 38,
          "time": 109.42846200000027,
          "velocity": 0.7480314960629921,
          "duration": 0.14285700000000645
        },
        {
          "name": "D2",
          "midi": 38,
          "time": 109.57131900000027,
          "velocity": 0.7480314960629921,
          "duration": 0.14285700000000645
        },
        {
          "name": "C#3",
          "midi": 49,
          "time": 109.71417600000028,
          "velocity": 0.7480314960629921,
          "duration": 0.2857139999999987
        },
        {
          "name": "C2",
          "midi": 36,
          "time": 109.71417600000028,
          "velocity": 0.7480314960629921,
          "duration": 0.2857139999999987
        },
        {
          "name": "F#2",
          "midi": 42,
          "time": 109.99989000000028,
          "velocity": 0.7480314960629921,
          "duration": 0.2857139999999987
        },
        {
          "name": "D2",
          "midi": 38,
          "time": 109.99989000000028,
          "velocity": 0.7480314960629921,
          "duration": 0.2857139999999987
        },
        {
          "name": "F#2",
          "midi": 42,
          "time": 110.28560400000028,
          "velocity": 0.7480314960629921,
          "duration": 0.2857140000000129
        },
        {
          "name": "C2",
          "midi": 36,
          "time": 110.28560400000028,
          "velocity": 0.7480314960629921,
          "duration": 0.14285700000000645
        },
        {
          "name": "C2",
          "midi": 36,
          "time": 110.42846100000028,
          "velocity": 0.7480314960629921,
          "duration": 0.14285700000000645
        },
        {
          "name": "F#2",
          "midi": 42,
          "time": 110.57131800000029,
          "velocity": 0.7480314960629921,
          "duration": 0.2857139999999987
        },
        {
          "name": "D2",
          "midi": 38,
          "time": 110.57131800000029,
          "velocity": 0.7480314960629921,
          "duration": 0.2857139999999987
        },
        {
          "name": "F#2",
          "midi": 42,
          "time": 110.85703200000029,
          "velocity": 0.7480314960629921,
          "duration": 0.2857139999999987
        },
        {
          "name": "C2",
          "midi": 36,
          "time": 110.85703200000029,
          "velocity": 0.7480314960629921,
          "duration": 0.2857139999999987
        },
        {
          "name": "F#2",
          "midi": 42,
          "time": 111.14274600000029,
          "velocity": 0.7480314960629921,
          "duration": 0.2857139999999987
        },
        {
          "name": "D2",
          "midi": 38,
          "time": 111.14274600000029,
          "velocity": 0.7480314960629921,
          "duration": 0.2857139999999987
        },
        {
          "name": "F#2",
          "midi": 42,
          "time": 111.42846000000029,
          "velocity": 0.7480314960629921,
          "duration": 0.2857140000000129
        },
        {
          "name": "C2",
          "midi": 36,
          "time": 111.42846000000029,
          "velocity": 0.7480314960629921,
          "duration": 0.14285700000000645
        },
        {
          "name": "C2",
          "midi": 36,
          "time": 111.57131700000029,
          "velocity": 0.7480314960629921,
          "duration": 0.14285700000000645
        },
        {
          "name": "F#2",
          "midi": 42,
          "time": 111.7141740000003,
          "velocity": 0.7480314960629921,
          "duration": 0.2857139999999987
        },
        {
          "name": "D2",
          "midi": 38,
          "time": 111.7141740000003,
          "velocity": 0.7480314960629921,
          "duration": 0.2857139999999987
        },
        {
          "name": "F#2",
          "midi": 42,
          "time": 111.9998880000003,
          "velocity": 0.7480314960629921,
          "duration": 0.2857139999999987
        },
        {
          "name": "C2",
          "midi": 36,
          "time": 111.9998880000003,
          "velocity": 0.7480314960629921,
          "duration": 0.2857139999999987
        },
        {
          "name": "F#2",
          "midi": 42,
          "time": 112.2856020000003,
          "velocity": 0.7480314960629921,
          "duration": 0.2857139999999987
        },
        {
          "name": "D2",
          "midi": 38,
          "time": 112.2856020000003,
          "velocity": 0.7480314960629921,
          "duration": 0.2857139999999987
        },
        {
          "name": "F#2",
          "midi": 42,
          "time": 112.5713160000003,
          "velocity": 0.7480314960629921,
          "duration": 0.2857140000000129
        },
        {
          "name": "C2",
          "midi": 36,
          "time": 112.5713160000003,
          "velocity": 0.7480314960629921,
          "duration": 0.14285700000000645
        },
        {
          "name": "C2",
          "midi": 36,
          "time": 112.7141730000003,
          "velocity": 0.7480314960629921,
          "duration": 0.14285700000000645
        },
        {
          "name": "F#2",
          "midi": 42,
          "time": 112.85703000000031,
          "velocity": 0.7480314960629921,
          "duration": 0.2857139999999987
        },
        {
          "name": "D2",
          "midi": 38,
          "time": 112.85703000000031,
          "velocity": 0.7480314960629921,
          "duration": 0.2857139999999987
        },
        {
          "name": "F#2",
          "midi": 42,
          "time": 113.1427440000003,
          "velocity": 0.7480314960629921,
          "duration": 0.2857139999999987
        },
        {
          "name": "C2",
          "midi": 36,
          "time": 113.1427440000003,
          "velocity": 0.7480314960629921,
          "duration": 0.2857139999999987
        },
        {
          "name": "F#2",
          "midi": 42,
          "time": 113.4284580000003,
          "velocity": 0.7480314960629921,
          "duration": 0.2857139999999987
        },
        {
          "name": "D2",
          "midi": 38,
          "time": 113.4284580000003,
          "velocity": 0.7480314960629921,
          "duration": 0.2857139999999987
        },
        {
          "name": "F#2",
          "midi": 42,
          "time": 113.7141720000003,
          "velocity": 0.7480314960629921,
          "duration": 0.2857140000000129
        },
        {
          "name": "C2",
          "midi": 36,
          "time": 113.7141720000003,
          "velocity": 0.7480314960629921,
          "duration": 0.14285700000000645
        },
        {
          "name": "C2",
          "midi": 36,
          "time": 113.85702900000031,
          "velocity": 0.7480314960629921,
          "duration": 0.14285700000000645
        },
        {
          "name": "F#2",
          "midi": 42,
          "time": 113.99988600000032,
          "velocity": 0.7480314960629921,
          "duration": 0.2857139999999987
        },
        {
          "name": "D2",
          "midi": 38,
          "time": 113.99988600000032,
          "velocity": 0.7480314960629921,
          "duration": 0.2857139999999987
        },
        {
          "name": "F#2",
          "midi": 42,
          "time": 114.28560000000031,
          "velocity": 0.7480314960629921,
          "duration": 0.2857139999999987
        },
        {
          "name": "C2",
          "midi": 36,
          "time": 114.28560000000031,
          "velocity": 0.7480314960629921,
          "duration": 0.2857139999999987
        },
        {
          "name": "F#2",
          "midi": 42,
          "time": 114.57131400000031,
          "velocity": 0.7480314960629921,
          "duration": 0.2857139999999987
        },
        {
          "name": "D2",
          "midi": 38,
          "time": 114.57131400000031,
          "velocity": 0.7480314960629921,
          "duration": 0.2857139999999987
        },
        {
          "name": "F#2",
          "midi": 42,
          "time": 114.85702800000031,
          "velocity": 0.7480314960629921,
          "duration": 0.2857140000000129
        },
        {
          "name": "C2",
          "midi": 36,
          "time": 114.85702800000031,
          "velocity": 0.7480314960629921,
          "duration": 0.14285700000000645
        },
        {
          "name": "C2",
          "midi": 36,
          "time": 114.99988500000032,
          "velocity": 0.7480314960629921,
          "duration": 0.14285700000000645
        },
        {
          "name": "F#2",
          "midi": 42,
          "time": 115.14274200000033,
          "velocity": 0.7480314960629921,
          "duration": 0.2857139999999987
        },
        {
          "name": "D2",
          "midi": 38,
          "time": 115.14274200000033,
          "velocity": 0.7480314960629921,
          "duration": 0.2857139999999987
        },
        {
          "name": "F#2",
          "midi": 42,
          "time": 115.42845600000032,
          "velocity": 0.7480314960629921,
          "duration": 0.2857139999999987
        },
        {
          "name": "C2",
          "midi": 36,
          "time": 115.42845600000032,
          "velocity": 0.7480314960629921,
          "duration": 0.2857139999999987
        },
        {
          "name": "F#2",
          "midi": 42,
          "time": 115.71417000000032,
          "velocity": 0.7480314960629921,
          "duration": 0.2857139999999987
        },
        {
          "name": "D2",
          "midi": 38,
          "time": 115.71417000000032,
          "velocity": 0.7480314960629921,
          "duration": 0.2857139999999987
        },
        {
          "name": "F#2",
          "midi": 42,
          "time": 115.99988400000032,
          "velocity": 0.7480314960629921,
          "duration": 0.2857140000000129
        },
        {
          "name": "C2",
          "midi": 36,
          "time": 115.99988400000032,
          "velocity": 0.7480314960629921,
          "duration": 0.14285700000000645
        },
        {
          "name": "C2",
          "midi": 36,
          "time": 116.14274100000033,
          "velocity": 0.7480314960629921,
          "duration": 0.14285700000000645
        },
        {
          "name": "F#2",
          "midi": 42,
          "time": 116.28559800000033,
          "velocity": 0.7480314960629921,
          "duration": 0.2857139999999987
        },
        {
          "name": "D2",
          "midi": 38,
          "time": 116.28559800000033,
          "velocity": 0.7480314960629921,
          "duration": 0.2857139999999987
        },
        {
          "name": "F#2",
          "midi": 42,
          "time": 116.57131200000033,
          "velocity": 0.7480314960629921,
          "duration": 0.2857139999999987
        },
        {
          "name": "C2",
          "midi": 36,
          "time": 116.57131200000033,
          "velocity": 0.7480314960629921,
          "duration": 0.2857139999999987
        },
        {
          "name": "F#2",
          "midi": 42,
          "time": 116.85702600000033,
          "velocity": 0.7480314960629921,
          "duration": 0.2857139999999987
        },
        {
          "name": "D2",
          "midi": 38,
          "time": 116.85702600000033,
          "velocity": 0.7480314960629921,
          "duration": 0.2857139999999987
        },
        {
          "name": "F#2",
          "midi": 42,
          "time": 117.14274000000033,
          "velocity": 0.7480314960629921,
          "duration": 0.2857140000000129
        },
        {
          "name": "C2",
          "midi": 36,
          "time": 117.14274000000033,
          "velocity": 0.7480314960629921,
          "duration": 0.14285700000000645
        },
        {
          "name": "C2",
          "midi": 36,
          "time": 117.28559700000034,
          "velocity": 0.7480314960629921,
          "duration": 0.14285700000000645
        },
        {
          "name": "F#2",
          "midi": 42,
          "time": 117.42845400000034,
          "velocity": 0.7480314960629921,
          "duration": 0.2857139999999987
        },
        {
          "name": "D2",
          "midi": 38,
          "time": 117.42845400000034,
          "velocity": 0.7480314960629921,
          "duration": 0.2857139999999987
        },
        {
          "name": "F#2",
          "midi": 42,
          "time": 117.71416800000034,
          "velocity": 0.7480314960629921,
          "duration": 0.2857139999999987
        },
        {
          "name": "C2",
          "midi": 36,
          "time": 117.71416800000034,
          "velocity": 0.7480314960629921,
          "duration": 0.2857139999999987
        },
        {
          "name": "F#2",
          "midi": 42,
          "time": 117.99988200000034,
          "velocity": 0.7480314960629921,
          "duration": 0.2857139999999987
        },
        {
          "name": "D2",
          "midi": 38,
          "time": 117.99988200000034,
          "velocity": 0.7480314960629921,
          "duration": 0.2857139999999987
        },
        {
          "name": "F#2",
          "midi": 42,
          "time": 118.28559600000034,
          "velocity": 0.7480314960629921,
          "duration": 0.2857140000000129
        },
        {
          "name": "C2",
          "midi": 36,
          "time": 118.28559600000034,
          "velocity": 0.7480314960629921,
          "duration": 0.14285700000000645
        },
        {
          "name": "C2",
          "midi": 36,
          "time": 118.42845300000035,
          "velocity": 0.7480314960629921,
          "duration": 0.14285700000000645
        },
        {
          "name": "A#2",
          "midi": 46,
          "time": 118.57131000000035,
          "velocity": 0.7480314960629921,
          "duration": 0.2857140000000129
        },
        {
          "name": "D2",
          "midi": 38,
          "time": 118.57131000000035,
          "velocity": 0.7480314960629921,
          "duration": 0.14285700000000645
        },
        {
          "name": "D2",
          "midi": 38,
          "time": 118.71416700000036,
          "velocity": 0.7480314960629921,
          "duration": 0.14285700000000645
        },
        {
          "name": "C#3",
          "midi": 49,
          "time": 118.85702400000037,
          "velocity": 0.7480314960629921,
          "duration": 0.2857139999999987
        },
        {
          "name": "C2",
          "midi": 36,
          "time": 118.85702400000037,
          "velocity": 0.7480314960629921,
          "duration": 0.2857139999999987
        },
        {
          "name": "F#2",
          "midi": 42,
          "time": 119.14273800000036,
          "velocity": 0.7480314960629921,
          "duration": 0.2857139999999987
        },
        {
          "name": "D2",
          "midi": 38,
          "time": 119.14273800000036,
          "velocity": 0.7480314960629921,
          "duration": 0.2857139999999987
        },
        {
          "name": "F#2",
          "midi": 42,
          "time": 119.42845200000036,
          "velocity": 0.7480314960629921,
          "duration": 0.2857140000000129
        },
        {
          "name": "C2",
          "midi": 36,
          "time": 119.42845200000036,
          "velocity": 0.7480314960629921,
          "duration": 0.14285700000000645
        },
        {
          "name": "C2",
          "midi": 36,
          "time": 119.57130900000037,
          "velocity": 0.7480314960629921,
          "duration": 0.14285700000000645
        },
        {
          "name": "F#2",
          "midi": 42,
          "time": 119.71416600000038,
          "velocity": 0.7480314960629921,
          "duration": 0.2857139999999987
        },
        {
          "name": "D2",
          "midi": 38,
          "time": 119.71416600000038,
          "velocity": 0.7480314960629921,
          "duration": 0.2857139999999987
        },
        {
          "name": "F#2",
          "midi": 42,
          "time": 119.99988000000037,
          "velocity": 0.7480314960629921,
          "duration": 0.2857139999999987
        },
        {
          "name": "C2",
          "midi": 36,
          "time": 119.99988000000037,
          "velocity": 0.7480314960629921,
          "duration": 0.2857139999999987
        },
        {
          "name": "F#2",
          "midi": 42,
          "time": 120.28559400000037,
          "velocity": 0.7480314960629921,
          "duration": 0.2857139999999987
        },
        {
          "name": "D2",
          "midi": 38,
          "time": 120.28559400000037,
          "velocity": 0.7480314960629921,
          "duration": 0.2857139999999987
        },
        {
          "name": "F#2",
          "midi": 42,
          "time": 120.57130800000037,
          "velocity": 0.7480314960629921,
          "duration": 0.2857140000000129
        },
        {
          "name": "C2",
          "midi": 36,
          "time": 120.57130800000037,
          "velocity": 0.7480314960629921,
          "duration": 0.14285700000000645
        },
        {
          "name": "C2",
          "midi": 36,
          "time": 120.71416500000038,
          "velocity": 0.7480314960629921,
          "duration": 0.14285700000000645
        },
        {
          "name": "F#2",
          "midi": 42,
          "time": 120.85702200000038,
          "velocity": 0.7480314960629921,
          "duration": 0.2857139999999987
        },
        {
          "name": "D2",
          "midi": 38,
          "time": 120.85702200000038,
          "velocity": 0.7480314960629921,
          "duration": 0.2857139999999987
        },
        {
          "name": "F#2",
          "midi": 42,
          "time": 121.14273600000038,
          "velocity": 0.7480314960629921,
          "duration": 0.2857139999999987
        },
        {
          "name": "C2",
          "midi": 36,
          "time": 121.14273600000038,
          "velocity": 0.7480314960629921,
          "duration": 0.2857139999999987
        },
        {
          "name": "F#2",
          "midi": 42,
          "time": 121.42845000000038,
          "velocity": 0.7480314960629921,
          "duration": 0.2857139999999987
        },
        {
          "name": "D2",
          "midi": 38,
          "time": 121.42845000000038,
          "velocity": 0.7480314960629921,
          "duration": 0.2857139999999987
        },
        {
          "name": "F#2",
          "midi": 42,
          "time": 121.71416400000038,
          "velocity": 0.7480314960629921,
          "duration": 0.2857140000000129
        },
        {
          "name": "C2",
          "midi": 36,
          "time": 121.71416400000038,
          "velocity": 0.7480314960629921,
          "duration": 0.14285700000000645
        },
        {
          "name": "C2",
          "midi": 36,
          "time": 121.85702100000039,
          "velocity": 0.7480314960629921,
          "duration": 0.14285700000000645
        },
        {
          "name": "F#2",
          "midi": 42,
          "time": 121.9998780000004,
          "velocity": 0.7480314960629921,
          "duration": 0.2857139999999987
        },
        {
          "name": "D2",
          "midi": 38,
          "time": 121.9998780000004,
          "velocity": 0.7480314960629921,
          "duration": 0.2857139999999987
        },
        {
          "name": "F#2",
          "midi": 42,
          "time": 122.28559200000039,
          "velocity": 0.7480314960629921,
          "duration": 0.2857139999999987
        },
        {
          "name": "C2",
          "midi": 36,
          "time": 122.28559200000039,
          "velocity": 0.7480314960629921,
          "duration": 0.2857139999999987
        },
        {
          "name": "F#2",
          "midi": 42,
          "time": 122.57130600000039,
          "velocity": 0.7480314960629921,
          "duration": 0.2857139999999987
        },
        {
          "name": "D2",
          "midi": 38,
          "time": 122.57130600000039,
          "velocity": 0.7480314960629921,
          "duration": 0.2857139999999987
        },
        {
          "name": "F#2",
          "midi": 42,
          "time": 122.85702000000039,
          "velocity": 0.7480314960629921,
          "duration": 0.2857140000000129
        },
        {
          "name": "C2",
          "midi": 36,
          "time": 122.85702000000039,
          "velocity": 0.7480314960629921,
          "duration": 0.14285700000000645
        },
        {
          "name": "C2",
          "midi": 36,
          "time": 122.9998770000004,
          "velocity": 0.7480314960629921,
          "duration": 0.14285700000000645
        },
        {
          "name": "F#2",
          "midi": 42,
          "time": 123.1427340000004,
          "velocity": 0.7480314960629921,
          "duration": 0.2857139999999987
        },
        {
          "name": "D2",
          "midi": 38,
          "time": 123.1427340000004,
          "velocity": 0.7480314960629921,
          "duration": 0.2857139999999987
        },
        {
          "name": "D2",
          "midi": 38,
          "time": 123.4284480000004,
          "velocity": 0.7480314960629921,
          "duration": 0.14285700000000645
        },
        {
          "name": "D2",
          "midi": 38,
          "time": 123.57130500000041,
          "velocity": 0.7480314960629921,
          "duration": 0.14285700000000645
        },
        {
          "name": "D2",
          "midi": 38,
          "time": 123.71416200000041,
          "velocity": 0.7480314960629921,
          "duration": 0.2857139999999987
        },
        {
          "name": "D2",
          "midi": 38,
          "time": 123.99987600000041,
          "velocity": 0.7480314960629921,
          "duration": 0.2857139999999987
        },
        {
          "name": "D2",
          "midi": 38,
          "time": 124.28559000000041,
          "velocity": 0.7480314960629921,
          "duration": 0.14285700000000645
        },
        {
          "name": "D2",
          "midi": 38,
          "time": 124.42844700000042,
          "velocity": 0.7480314960629921,
          "duration": 0.14285700000000645
        },
        {
          "name": "D2",
          "midi": 38,
          "time": 124.57130400000042,
          "velocity": 0.7480314960629921,
          "duration": 0.14285700000000645
        },
        {
          "name": "D2",
          "midi": 38,
          "time": 124.71416100000043,
          "velocity": 0.7480314960629921,
          "duration": 0.14285700000000645
        },
        {
          "name": "D2",
          "midi": 38,
          "time": 124.85701800000044,
          "velocity": 0.7480314960629921,
          "duration": 0.2857139999999987
        },
        {
          "name": "D2",
          "midi": 38,
          "time": 125.14273200000044,
          "velocity": 0.7480314960629921,
          "duration": 0.2857139999999987
        },
        {
          "name": "D2",
          "midi": 38,
          "time": 125.42844600000043,
          "velocity": 0.7480314960629921,
          "duration": 0.07142849999999612
        },
        {
          "name": "D2",
          "midi": 38,
          "time": 125.49987450000043,
          "velocity": 0.7480314960629921,
          "duration": 0.07142849999999612
        },
        {
          "name": "D2",
          "midi": 38,
          "time": 125.57130300000043,
          "velocity": 0.7480314960629921,
          "duration": 0.14285700000000645
        },
        {
          "name": "D2",
          "midi": 38,
          "time": 125.71416000000043,
          "velocity": 0.7480314960629921,
          "duration": 0.14285700000000645
        },
        {
          "name": "D2",
          "midi": 38,
          "time": 125.85701700000044,
          "velocity": 0.7480314960629921,
          "duration": 0.14285700000000645
        },
        {
          "name": "D2",
          "midi": 38,
          "time": 125.99987400000045,
          "velocity": 0.7480314960629921,
          "duration": 0.2857139999999987
        },
        {
          "name": "D2",
          "midi": 38,
          "time": 126.28558800000044,
          "velocity": 0.7480314960629921,
          "duration": 0.2857139999999987
        },
        {
          "name": "D2",
          "midi": 38,
          "time": 126.57130200000044,
          "velocity": 0.7480314960629921,
          "duration": 0.14285700000000645
        },
        {
          "name": "D2",
          "midi": 38,
          "time": 126.71415900000045,
          "velocity": 0.7480314960629921,
          "duration": 0.14285700000000645
        },
        {
          "name": "D2",
          "midi": 38,
          "time": 126.85701600000046,
          "velocity": 0.7480314960629921,
          "duration": 0.14285700000000645
        },
        {
          "name": "D2",
          "midi": 38,
          "time": 126.99987300000046,
          "velocity": 0.7480314960629921,
          "duration": 0.14285700000000645
        },
        {
          "name": "D2",
          "midi": 38,
          "time": 127.14273000000047,
          "velocity": 0.7480314960629921,
          "duration": 0.2857139999999987
        },
        {
          "name": "D2",
          "midi": 38,
          "time": 127.42844400000047,
          "velocity": 0.7480314960629921,
          "duration": 0.2857139999999987
        },
        {
          "name": "D2",
          "midi": 38,
          "time": 127.71415800000047,
          "velocity": 0.7480314960629921,
          "duration": 0.14285700000000645
        },
        {
          "name": "D2",
          "midi": 38,
          "time": 127.85701500000047,
          "velocity": 0.7480314960629921,
          "duration": 0.14285700000000645
        },
        {
          "name": "D2",
          "midi": 38,
          "time": 127.99987200000048,
          "velocity": 0.7480314960629921,
          "duration": 0.14285700000000645
        },
        {
          "name": "D2",
          "midi": 38,
          "time": 128.1427290000005,
          "velocity": 0.7480314960629921,
          "duration": 0.14285699999999224
        },
        {
          "name": "D2",
          "midi": 38,
          "time": 128.28558600000048,
          "velocity": 0.7480314960629921,
          "duration": 0.2857140000000129
        },
        {
          "name": "D2",
          "midi": 38,
          "time": 128.5713000000005,
          "velocity": 0.7480314960629921,
          "duration": 0.2857140000000129
        },
        {
          "name": "D2",
          "midi": 38,
          "time": 128.8570140000005,
          "velocity": 0.7480314960629921,
          "duration": 0.14285699999999224
        },
        {
          "name": "D2",
          "midi": 38,
          "time": 128.9998710000005,
          "velocity": 0.7480314960629921,
          "duration": 0.14285699999999224
        },
        {
          "name": "D2",
          "midi": 38,
          "time": 129.1427280000005,
          "velocity": 0.7480314960629921,
          "duration": 0.14285699999999224
        },
        {
          "name": "D2",
          "midi": 38,
          "time": 129.28558500000048,
          "velocity": 0.7480314960629921,
          "duration": 0.14285699999999224
        },
        {
          "name": "D2",
          "midi": 38,
          "time": 129.42844200000047,
          "velocity": 0.7480314960629921,
          "duration": 0.2857140000000129
        },
        {
          "name": "D2",
          "midi": 38,
          "time": 129.7141560000005,
          "velocity": 0.7480314960629921,
          "duration": 0.2857140000000129
        },
        {
          "name": "D2",
          "midi": 38,
          "time": 129.9998700000005,
          "velocity": 0.7480314960629921,
          "duration": 0.07142849999999612
        },
        {
          "name": "D2",
          "midi": 38,
          "time": 130.0712985000005,
          "velocity": 0.7480314960629921,
          "duration": 0.07142849999999612
        },
        {
          "name": "D2",
          "midi": 38,
          "time": 130.1427270000005,
          "velocity": 0.7480314960629921,
          "duration": 0.14285699999999224
        },
        {
          "name": "D2",
          "midi": 38,
          "time": 130.28558400000048,
          "velocity": 0.7480314960629921,
          "duration": 0.14285699999999224
        },
        {
          "name": "D2",
          "midi": 38,
          "time": 130.42844100000048,
          "velocity": 0.7480314960629921,
          "duration": 0.14285699999999224
        },
        {
          "name": "D2",
          "midi": 38,
          "time": 130.57129800000047,
          "velocity": 0.7480314960629921,
          "duration": 0.2857140000000129
        },
        {
          "name": "D2",
          "midi": 38,
          "time": 130.85701200000048,
          "velocity": 0.7480314960629921,
          "duration": 0.2857140000000129
        },
        {
          "name": "D2",
          "midi": 38,
          "time": 131.1427260000005,
          "velocity": 0.7480314960629921,
          "duration": 0.14285699999999224
        },
        {
          "name": "D2",
          "midi": 38,
          "time": 131.28558300000049,
          "velocity": 0.7480314960629921,
          "duration": 0.14285699999999224
        },
        {
          "name": "D2",
          "midi": 38,
          "time": 131.42844000000048,
          "velocity": 0.7480314960629921,
          "duration": 0.14285699999999224
        },
        {
          "name": "D2",
          "midi": 38,
          "time": 131.57129700000047,
          "velocity": 0.7480314960629921,
          "duration": 0.14285699999999224
        },
        {
          "name": "D2",
          "midi": 38,
          "time": 131.71415400000046,
          "velocity": 0.7480314960629921,
          "duration": 0.2857140000000129
        },
        {
          "name": "D2",
          "midi": 38,
          "time": 131.99986800000048,
          "velocity": 0.7480314960629921,
          "duration": 0.2857140000000129
        },
        {
          "name": "D2",
          "midi": 38,
          "time": 132.2855820000005,
          "velocity": 0.7480314960629921,
          "duration": 0.14285699999999224
        },
        {
          "name": "D2",
          "midi": 38,
          "time": 132.42843900000048,
          "velocity": 0.7480314960629921,
          "duration": 0.14285699999999224
        },
        {
          "name": "F#2",
          "midi": 42,
          "time": 132.57129600000047,
          "velocity": 0.7480314960629921,
          "duration": 0.2857140000000129
        },
        {
          "name": "D2",
          "midi": 38,
          "time": 132.57129600000047,
          "velocity": 0.7480314960629921,
          "duration": 0.2857140000000129
        },
        {
          "name": "F#2",
          "midi": 42,
          "time": 132.85701000000049,
          "velocity": 0.7480314960629921,
          "duration": 0.2857140000000129
        },
        {
          "name": "D2",
          "midi": 38,
          "time": 132.85701000000049,
          "velocity": 0.7480314960629921,
          "duration": 0.2857140000000129
        },
        {
          "name": "F#2",
          "midi": 42,
          "time": 133.1427240000005,
          "velocity": 0.7480314960629921,
          "duration": 0.2857139999999845
        },
        {
          "name": "D2",
          "midi": 38,
          "time": 133.1427240000005,
          "velocity": 0.7480314960629921,
          "duration": 0.14285699999999224
        },
        {
          "name": "C2",
          "midi": 36,
          "time": 133.2855810000005,
          "velocity": 0.7480314960629921,
          "duration": 0.14285699999999224
        },
        {
          "name": "F#2",
          "midi": 42,
          "time": 133.42843800000048,
          "velocity": 0.7480314960629921,
          "duration": 0.2857139999999845
        },
        {
          "name": "D2",
          "midi": 38,
          "time": 133.42843800000048,
          "velocity": 0.7480314960629921,
          "duration": 0.14285699999999224
        },
        {
          "name": "C2",
          "midi": 36,
          "time": 133.57129500000048,
          "velocity": 0.7480314960629921,
          "duration": 0.14285699999999224
        },
        {
          "name": "F#2",
          "midi": 42,
          "time": 133.71415200000047,
          "velocity": 0.7480314960629921,
          "duration": 0.2857140000000129
        },
        {
          "name": "D2",
          "midi": 38,
          "time": 133.71415200000047,
          "velocity": 0.7480314960629921,
          "duration": 0.2857140000000129
        },
        {
          "name": "F#2",
          "midi": 42,
          "time": 133.99986600000048,
          "velocity": 0.7480314960629921,
          "duration": 0.2857140000000129
        },
        {
          "name": "D2",
          "midi": 38,
          "time": 133.99986600000048,
          "velocity": 0.7480314960629921,
          "duration": 0.2857140000000129
        },
        {
          "name": "F#2",
          "midi": 42,
          "time": 134.2855800000005,
          "velocity": 0.7480314960629921,
          "duration": 0.2857139999999845
        },
        {
          "name": "D2",
          "midi": 38,
          "time": 134.2855800000005,
          "velocity": 0.7480314960629921,
          "duration": 0.14285699999999224
        },
        {
          "name": "C2",
          "midi": 36,
          "time": 134.42843700000049,
          "velocity": 0.7480314960629921,
          "duration": 0.14285699999999224
        },
        {
          "name": "F#2",
          "midi": 42,
          "time": 134.57129400000048,
          "velocity": 0.7480314960629921,
          "duration": 0.2857139999999845
        },
        {
          "name": "D2",
          "midi": 38,
          "time": 134.57129400000048,
          "velocity": 0.7480314960629921,
          "duration": 0.14285699999999224
        },
        {
          "name": "C2",
          "midi": 36,
          "time": 134.71415100000047,
          "velocity": 0.7480314960629921,
          "duration": 0.14285699999999224
        },
        {
          "name": "C#3",
          "midi": 49,
          "time": 134.85700800000046,
          "velocity": 0.7480314960629921,
          "duration": 0.2857140000000129
        },
        {
          "name": "D2",
          "midi": 38,
          "time": 134.85700800000046,
          "velocity": 0.7480314960629921,
          "duration": 0.2857140000000129
        },
        {
          "name": "F#2",
          "midi": 42,
          "time": 135.14272200000048,
          "velocity": 0.7480314960629921,
          "duration": 0.2857140000000129
        },
        {
          "name": "D2",
          "midi": 38,
          "time": 135.14272200000048,
          "velocity": 0.7480314960629921,
          "duration": 0.2857140000000129
        },
        {
          "name": "F#2",
          "midi": 42,
          "time": 135.4284360000005,
          "velocity": 0.7480314960629921,
          "duration": 0.2857139999999845
        },
        {
          "name": "D2",
          "midi": 38,
          "time": 135.4284360000005,
          "velocity": 0.7480314960629921,
          "duration": 0.14285699999999224
        },
        {
          "name": "C2",
          "midi": 36,
          "time": 135.57129300000048,
          "velocity": 0.7480314960629921,
          "duration": 0.14285699999999224
        },
        {
          "name": "F#2",
          "midi": 42,
          "time": 135.71415000000047,
          "velocity": 0.7480314960629921,
          "duration": 0.2857139999999845
        },
        {
          "name": "D2",
          "midi": 38,
          "time": 135.71415000000047,
          "velocity": 0.7480314960629921,
          "duration": 0.14285699999999224
        },
        {
          "name": "C2",
          "midi": 36,
          "time": 135.85700700000046,
          "velocity": 0.7480314960629921,
          "duration": 0.14285699999999224
        },
        {
          "name": "C#3",
          "midi": 49,
          "time": 135.99986400000046,
          "velocity": 0.7480314960629921,
          "duration": 0.2857140000000129
        },
        {
          "name": "D2",
          "midi": 38,
          "time": 135.99986400000046,
          "velocity": 0.7480314960629921,
          "duration": 0.2857140000000129
        },
        {
          "name": "F#2",
          "midi": 42,
          "time": 136.28557800000047,
          "velocity": 0.7480314960629921,
          "duration": 0.2857140000000129
        },
        {
          "name": "D2",
          "midi": 38,
          "time": 136.28557800000047,
          "velocity": 0.7480314960629921,
          "duration": 0.2857140000000129
        },
        {
          "name": "F#2",
          "midi": 42,
          "time": 136.57129200000048,
          "velocity": 0.7480314960629921,
          "duration": 0.2857139999999845
        },
        {
          "name": "D2",
          "midi": 38,
          "time": 136.57129200000048,
          "velocity": 0.7480314960629921,
          "duration": 0.14285699999999224
        },
        {
          "name": "C2",
          "midi": 36,
          "time": 136.71414900000048,
          "velocity": 0.7480314960629921,
          "duration": 0.14285699999999224
        },
        {
          "name": "F#2",
          "midi": 42,
          "time": 136.85700600000047,
          "velocity": 0.7480314960629921,
          "duration": 0.2857139999999845
        },
        {
          "name": "D2",
          "midi": 38,
          "time": 136.85700600000047,
          "velocity": 0.7480314960629921,
          "duration": 0.14285699999999224
        },
        {
          "name": "C2",
          "midi": 36,
          "time": 136.99986300000046,
          "velocity": 0.7480314960629921,
          "duration": 0.14285699999999224
        },
        {
          "name": "D2",
          "midi": 38,
          "time": 137.14272000000045,
          "velocity": 0.7480314960629921,
          "duration": 0.2857140000000129
        },
        {
          "name": "C#3",
          "midi": 49,
          "time": 137.14272000000045,
          "velocity": 0.7480314960629921,
          "duration": 1.1428559999999948
        },
        {
          "name": "F#2",
          "midi": 42,
          "time": 137.42843400000046,
          "velocity": 0.7480314960629921,
          "duration": 0.2857140000000129
        },
        {
          "name": "D2",
          "midi": 38,
          "time": 137.42843400000046,
          "velocity": 0.7480314960629921,
          "duration": 0.2857140000000129
        },
        {
          "name": "F#2",
          "midi": 42,
          "time": 137.71414800000048,
          "velocity": 0.7480314960629921,
          "duration": 0.2857139999999845
        },
        {
          "name": "D2",
          "midi": 38,
          "time": 137.71414800000048,
          "velocity": 0.7480314960629921,
          "duration": 0.14285699999999224
        },
        {
          "name": "C2",
          "midi": 36,
          "time": 137.85700500000047,
          "velocity": 0.7480314960629921,
          "duration": 0.14285699999999224
        },
        {
          "name": "F#2",
          "midi": 42,
          "time": 137.99986200000046,
          "velocity": 0.7480314960629921,
          "duration": 0.2857139999999845
        },
        {
          "name": "D2",
          "midi": 38,
          "time": 137.99986200000046,
          "velocity": 0.7480314960629921,
          "duration": 0.14285699999999224
        },
        {
          "name": "C2",
          "midi": 36,
          "time": 138.14271900000045,
          "velocity": 0.7480314960629921,
          "duration": 0.14285699999999224
        },
        {
          "name": "C#3",
          "midi": 49,
          "time": 138.28557600000045,
          "velocity": 0.7480314960629921,
          "duration": 0.2857140000000129
        },
        {
          "name": "D2",
          "midi": 38,
          "time": 138.28557600000045,
          "velocity": 0.7480314960629921,
          "duration": 0.2857140000000129
        },
        {
          "name": "F#2",
          "midi": 42,
          "time": 138.57129000000046,
          "velocity": 0.7480314960629921,
          "duration": 0.2857140000000129
        },
        {
          "name": "D2",
          "midi": 38,
          "time": 138.57129000000046,
          "velocity": 0.7480314960629921,
          "duration": 0.2857140000000129
        },
        {
          "name": "F#2",
          "midi": 42,
          "time": 138.85700400000047,
          "velocity": 0.7480314960629921,
          "duration": 0.2857139999999845
        },
        {
          "name": "D2",
          "midi": 38,
          "time": 138.85700400000047,
          "velocity": 0.7480314960629921,
          "duration": 0.14285699999999224
        },
        {
          "name": "C2",
          "midi": 36,
          "time": 138.99986100000046,
          "velocity": 0.7480314960629921,
          "duration": 0.14285699999999224
        },
        {
          "name": "F#2",
          "midi": 42,
          "time": 139.14271800000046,
          "velocity": 0.7480314960629921,
          "duration": 0.2857139999999845
        },
        {
          "name": "D2",
          "midi": 38,
          "time": 139.14271800000046,
          "velocity": 0.7480314960629921,
          "duration": 0.14285699999999224
        },
        {
          "name": "C2",
          "midi": 36,
          "time": 139.28557500000045,
          "velocity": 0.7480314960629921,
          "duration": 0.14285699999999224
        },
        {
          "name": "C#3",
          "midi": 49,
          "time": 139.42843200000044,
          "velocity": 0.7480314960629921,
          "duration": 0.2857140000000129
        },
        {
          "name": "D2",
          "midi": 38,
          "time": 139.42843200000044,
          "velocity": 0.7480314960629921,
          "duration": 0.2857140000000129
        },
        {
          "name": "F#2",
          "midi": 42,
          "time": 139.71414600000045,
          "velocity": 0.7480314960629921,
          "duration": 0.2857140000000129
        },
        {
          "name": "D2",
          "midi": 38,
          "time": 139.71414600000045,
          "velocity": 0.7480314960629921,
          "duration": 0.2857140000000129
        },
        {
          "name": "F#2",
          "midi": 42,
          "time": 139.99986000000047,
          "velocity": 0.7480314960629921,
          "duration": 0.2857139999999845
        },
        {
          "name": "D2",
          "midi": 38,
          "time": 139.99986000000047,
          "velocity": 0.7480314960629921,
          "duration": 0.14285699999999224
        },
        {
          "name": "C2",
          "midi": 36,
          "time": 140.14271700000046,
          "velocity": 0.7480314960629921,
          "duration": 0.14285699999999224
        },
        {
          "name": "F#2",
          "midi": 42,
          "time": 140.28557400000045,
          "velocity": 0.7480314960629921,
          "duration": 0.2857139999999845
        },
        {
          "name": "D2",
          "midi": 38,
          "time": 140.28557400000045,
          "velocity": 0.7480314960629921,
          "duration": 0.14285699999999224
        },
        {
          "name": "C2",
          "midi": 36,
          "time": 140.42843100000044,
          "velocity": 0.7480314960629921,
          "duration": 0.14285699999999224
        },
        {
          "name": "F#2",
          "midi": 42,
          "time": 140.57128800000044,
          "velocity": 0.7480314960629921,
          "duration": 0.2857140000000129
        },
        {
          "name": "D2",
          "midi": 38,
          "time": 140.57128800000044,
          "velocity": 0.7480314960629921,
          "duration": 0.2857140000000129
        },
        {
          "name": "F#2",
          "midi": 42,
          "time": 140.85700200000045,
          "velocity": 0.7480314960629921,
          "duration": 0.2857140000000129
        },
        {
          "name": "D2",
          "midi": 38,
          "time": 140.85700200000045,
          "velocity": 0.7480314960629921,
          "duration": 0.2857140000000129
        },
        {
          "name": "F#2",
          "midi": 42,
          "time": 141.14271600000046,
          "velocity": 0.7480314960629921,
          "duration": 0.2857139999999845
        },
        {
          "name": "D2",
          "midi": 38,
          "time": 141.14271600000046,
          "velocity": 0.7480314960629921,
          "duration": 0.14285699999999224
        },
        {
          "name": "C#3",
          "midi": 49,
          "time": 141.42843000000045,
          "velocity": 0.7480314960629921,
          "duration": 0.2857140000000129
        },
        {
          "name": "D2",
          "midi": 38,
          "time": 141.42843000000045,
          "velocity": 0.7480314960629921,
          "duration": 0.2857140000000129
        },
        {
          "name": "D2",
          "midi": 38,
          "time": 141.71414400000046,
          "velocity": 0.7480314960629921,
          "duration": 0.2857140000000129
        },
        {
          "name": "C#3",
          "midi": 49,
          "time": 143.71414200000046,
          "velocity": 0.7480314960629921,
          "duration": 0.2857140000000129
        },
        {
          "name": "C#3",
          "midi": 49,
          "time": 143.99985600000048,
          "velocity": 0.7480314960629921,
          "duration": 0.2857140000000129
        },
        {
          "name": "C2",
          "midi": 36,
          "time": 143.99985600000048,
          "velocity": 0.7480314960629921,
          "duration": 0.2857140000000129
        },
        {
          "name": "F#2",
          "midi": 42,
          "time": 144.2855700000005,
          "velocity": 0.7480314960629921,
          "duration": 0.2857140000000129
        },
        {
          "name": "D2",
          "midi": 38,
          "time": 144.2855700000005,
          "velocity": 0.7480314960629921,
          "duration": 0.2857140000000129
        },
        {
          "name": "F#2",
          "midi": 42,
          "time": 144.5712840000005,
          "velocity": 0.7480314960629921,
          "duration": 0.2857139999999845
        },
        {
          "name": "C2",
          "midi": 36,
          "time": 144.5712840000005,
          "velocity": 0.7480314960629921,
          "duration": 0.14285699999999224
        },
        {
          "name": "C2",
          "midi": 36,
          "time": 144.7141410000005,
          "velocity": 0.7480314960629921,
          "duration": 0.14285699999999224
        },
        {
          "name": "F#2",
          "midi": 42,
          "time": 144.8569980000005,
          "velocity": 0.7480314960629921,
          "duration": 0.2857140000000129
        },
        {
          "name": "D2",
          "midi": 38,
          "time": 144.8569980000005,
          "velocity": 0.7480314960629921,
          "duration": 0.2857140000000129
        },
        {
          "name": "F#2",
          "midi": 42,
          "time": 145.1427120000005,
          "velocity": 0.7480314960629921,
          "duration": 0.2857140000000129
        },
        {
          "name": "C2",
          "midi": 36,
          "time": 145.1427120000005,
          "velocity": 0.7480314960629921,
          "duration": 0.2857140000000129
        },
        {
          "name": "F#2",
          "midi": 42,
          "time": 145.4284260000005,
          "velocity": 0.7480314960629921,
          "duration": 0.2857140000000129
        },
        {
          "name": "D2",
          "midi": 38,
          "time": 145.4284260000005,
          "velocity": 0.7480314960629921,
          "duration": 0.2857140000000129
        },
        {
          "name": "F#2",
          "midi": 42,
          "time": 145.71414000000053,
          "velocity": 0.7480314960629921,
          "duration": 0.2857139999999845
        },
        {
          "name": "C2",
          "midi": 36,
          "time": 145.71414000000053,
          "velocity": 0.7480314960629921,
          "duration": 0.14285699999999224
        },
        {
          "name": "C2",
          "midi": 36,
          "time": 145.85699700000052,
          "velocity": 0.7480314960629921,
          "duration": 0.14285699999999224
        },
        {
          "name": "F#2",
          "midi": 42,
          "time": 145.9998540000005,
          "velocity": 0.7480314960629921,
          "duration": 0.2857140000000129
        },
        {
          "name": "D2",
          "midi": 38,
          "time": 145.9998540000005,
          "velocity": 0.7480314960629921,
          "duration": 0.2857140000000129
        },
        {
          "name": "F#2",
          "midi": 42,
          "time": 146.28556800000052,
          "velocity": 0.7480314960629921,
          "duration": 0.2857140000000129
        },
        {
          "name": "C2",
          "midi": 36,
          "time": 146.28556800000052,
          "velocity": 0.7480314960629921,
          "duration": 0.2857140000000129
        },
        {
          "name": "F#2",
          "midi": 42,
          "time": 146.57128200000054,
          "velocity": 0.7480314960629921,
          "duration": 0.2857140000000129
        },
        {
          "name": "D2",
          "midi": 38,
          "time": 146.57128200000054,
          "velocity": 0.7480314960629921,
          "duration": 0.2857140000000129
        },
        {
          "name": "F#2",
          "midi": 42,
          "time": 146.85699600000055,
          "velocity": 0.7480314960629921,
          "duration": 0.2857139999999845
        },
        {
          "name": "C2",
          "midi": 36,
          "time": 146.85699600000055,
          "velocity": 0.7480314960629921,
          "duration": 0.14285699999999224
        },
        {
          "name": "C2",
          "midi": 36,
          "time": 146.99985300000054,
          "velocity": 0.7480314960629921,
          "duration": 0.14285699999999224
        },
        {
          "name": "F#2",
          "midi": 42,
          "time": 147.14271000000053,
          "velocity": 0.7480314960629921,
          "duration": 0.2857140000000129
        },
        {
          "name": "D2",
          "midi": 38,
          "time": 147.14271000000053,
          "velocity": 0.7480314960629921,
          "duration": 0.2857140000000129
        },
        {
          "name": "F#2",
          "midi": 42,
          "time": 147.42842400000055,
          "velocity": 0.7480314960629921,
          "duration": 0.2857140000000129
        },
        {
          "name": "C2",
          "midi": 36,
          "time": 147.42842400000055,
          "velocity": 0.7480314960629921,
          "duration": 0.2857140000000129
        },
        {
          "name": "F#2",
          "midi": 42,
          "time": 147.71413800000056,
          "velocity": 0.7480314960629921,
          "duration": 0.2857140000000129
        },
        {
          "name": "D2",
          "midi": 38,
          "time": 147.71413800000056,
          "velocity": 0.7480314960629921,
          "duration": 0.2857140000000129
        },
        {
          "name": "F#2",
          "midi": 42,
          "time": 147.99985200000057,
          "velocity": 0.7480314960629921,
          "duration": 0.2857139999999845
        },
        {
          "name": "C2",
          "midi": 36,
          "time": 147.99985200000057,
          "velocity": 0.7480314960629921,
          "duration": 0.14285699999999224
        },
        {
          "name": "C2",
          "midi": 36,
          "time": 148.14270900000056,
          "velocity": 0.7480314960629921,
          "duration": 0.14285699999999224
        },
        {
          "name": "F#2",
          "midi": 42,
          "time": 148.28556600000056,
          "velocity": 0.7480314960629921,
          "duration": 0.2857140000000129
        },
        {
          "name": "D2",
          "midi": 38,
          "time": 148.28556600000056,
          "velocity": 0.7480314960629921,
          "duration": 0.2857140000000129
        },
        {
          "name": "F#2",
          "midi": 42,
          "time": 148.57128000000057,
          "velocity": 0.7480314960629921,
          "duration": 0.2857140000000129
        },
        {
          "name": "C2",
          "midi": 36,
          "time": 148.57128000000057,
          "velocity": 0.7480314960629921,
          "duration": 0.2857140000000129
        },
        {
          "name": "F#2",
          "midi": 42,
          "time": 148.85699400000058,
          "velocity": 0.7480314960629921,
          "duration": 0.2857140000000129
        },
        {
          "name": "D2",
          "midi": 38,
          "time": 148.85699400000058,
          "velocity": 0.7480314960629921,
          "duration": 0.2857140000000129
        },
        {
          "name": "F#2",
          "midi": 42,
          "time": 149.1427080000006,
          "velocity": 0.7480314960629921,
          "duration": 0.2857139999999845
        },
        {
          "name": "C2",
          "midi": 36,
          "time": 149.1427080000006,
          "velocity": 0.7480314960629921,
          "duration": 0.14285699999999224
        },
        {
          "name": "C2",
          "midi": 36,
          "time": 149.2855650000006,
          "velocity": 0.7480314960629921,
          "duration": 0.14285699999999224
        },
        {
          "name": "F#2",
          "midi": 42,
          "time": 149.42842200000058,
          "velocity": 0.7480314960629921,
          "duration": 0.2857140000000129
        },
        {
          "name": "D2",
          "midi": 38,
          "time": 149.42842200000058,
          "velocity": 0.7480314960629921,
          "duration": 0.2857140000000129
        },
        {
          "name": "F#2",
          "midi": 42,
          "time": 149.7141360000006,
          "velocity": 0.7480314960629921,
          "duration": 0.2857140000000129
        },
        {
          "name": "C2",
          "midi": 36,
          "time": 149.7141360000006,
          "velocity": 0.7480314960629921,
          "duration": 0.2857140000000129
        },
        {
          "name": "F#2",
          "midi": 42,
          "time": 149.9998500000006,
          "velocity": 0.7480314960629921,
          "duration": 0.2857140000000129
        },
        {
          "name": "D2",
          "midi": 38,
          "time": 149.9998500000006,
          "velocity": 0.7480314960629921,
          "duration": 0.2857140000000129
        },
        {
          "name": "F#2",
          "midi": 42,
          "time": 150.28556400000062,
          "velocity": 0.7480314960629921,
          "duration": 0.2857139999999845
        },
        {
          "name": "C2",
          "midi": 36,
          "time": 150.28556400000062,
          "velocity": 0.7480314960629921,
          "duration": 0.14285699999999224
        },
        {
          "name": "C2",
          "midi": 36,
          "time": 150.4284210000006,
          "velocity": 0.7480314960629921,
          "duration": 0.14285699999999224
        },
        {
          "name": "F#2",
          "midi": 42,
          "time": 150.5712780000006,
          "velocity": 0.7480314960629921,
          "duration": 0.2857140000000129
        },
        {
          "name": "D2",
          "midi": 38,
          "time": 150.5712780000006,
          "velocity": 0.7480314960629921,
          "duration": 0.2857140000000129
        },
        {
          "name": "F#2",
          "midi": 42,
          "time": 150.85699200000062,
          "velocity": 0.7480314960629921,
          "duration": 0.2857140000000129
        },
        {
          "name": "C2",
          "midi": 36,
          "time": 150.85699200000062,
          "velocity": 0.7480314960629921,
          "duration": 0.2857140000000129
        },
        {
          "name": "F#2",
          "midi": 42,
          "time": 151.14270600000063,
          "velocity": 0.7480314960629921,
          "duration": 0.2857140000000129
        },
        {
          "name": "D2",
          "midi": 38,
          "time": 151.14270600000063,
          "velocity": 0.7480314960629921,
          "duration": 0.2857140000000129
        },
        {
          "name": "F#2",
          "midi": 42,
          "time": 151.42842000000064,
          "velocity": 0.7480314960629921,
          "duration": 0.2857139999999845
        },
        {
          "name": "C2",
          "midi": 36,
          "time": 151.42842000000064,
          "velocity": 0.7480314960629921,
          "duration": 0.14285699999999224
        },
        {
          "name": "C2",
          "midi": 36,
          "time": 151.57127700000063,
          "velocity": 0.7480314960629921,
          "duration": 0.14285699999999224
        },
        {
          "name": "F#2",
          "midi": 42,
          "time": 151.71413400000063,
          "velocity": 0.7480314960629921,
          "duration": 0.2857140000000129
        },
        {
          "name": "D2",
          "midi": 38,
          "time": 151.71413400000063,
          "velocity": 0.7480314960629921,
          "duration": 0.2857140000000129
        },
        {
          "name": "F#2",
          "midi": 42,
          "time": 151.99984800000064,
          "velocity": 0.7480314960629921,
          "duration": 0.2857140000000129
        },
        {
          "name": "C2",
          "midi": 36,
          "time": 151.99984800000064,
          "velocity": 0.7480314960629921,
          "duration": 0.2857140000000129
        },
        {
          "name": "F#2",
          "midi": 42,
          "time": 152.28556200000065,
          "velocity": 0.7480314960629921,
          "duration": 0.2857140000000129
        },
        {
          "name": "D2",
          "midi": 38,
          "time": 152.28556200000065,
          "velocity": 0.7480314960629921,
          "duration": 0.2857140000000129
        },
        {
          "name": "F#2",
          "midi": 42,
          "time": 152.57127600000067,
          "velocity": 0.7480314960629921,
          "duration": 0.2857139999999845
        },
        {
          "name": "C2",
          "midi": 36,
          "time": 152.57127600000067,
          "velocity": 0.7480314960629921,
          "duration": 0.14285699999999224
        },
        {
          "name": "C2",
          "midi": 36,
          "time": 152.71413300000066,
          "velocity": 0.7480314960629921,
          "duration": 0.14285699999999224
        },
        {
          "name": "A#2",
          "midi": 46,
          "time": 152.85699000000065,
          "velocity": 0.7480314960629921,
          "duration": 0.2857139999999845
        },
        {
          "name": "D2",
          "midi": 38,
          "time": 152.85699000000065,
          "velocity": 0.7480314960629921,
          "duration": 0.14285699999999224
        },
        {
          "name": "D2",
          "midi": 38,
          "time": 152.99984700000064,
          "velocity": 0.7480314960629921,
          "duration": 0.14285699999999224
        },
        {
          "name": "C#3",
          "midi": 49,
          "time": 153.14270400000063,
          "velocity": 0.7480314960629921,
          "duration": 0.2857140000000129
        },
        {
          "name": "D2",
          "midi": 38,
          "time": 153.14270400000063,
          "velocity": 0.7480314960629921,
          "duration": 0.2857140000000129
        },
        {
          "name": "F#2",
          "midi": 42,
          "time": 153.42841800000065,
          "velocity": 0.7480314960629921,
          "duration": 0.2857140000000129
        },
        {
          "name": "D2",
          "midi": 38,
          "time": 153.42841800000065,
          "velocity": 0.7480314960629921,
          "duration": 0.2857140000000129
        },
        {
          "name": "F#2",
          "midi": 42,
          "time": 153.71413200000066,
          "velocity": 0.7480314960629921,
          "duration": 0.2857140000000129
        },
        {
          "name": "D2",
          "midi": 38,
          "time": 153.71413200000066,
          "velocity": 0.7480314960629921,
          "duration": 0.2857140000000129
        },
        {
          "name": "F#2",
          "midi": 42,
          "time": 153.99984600000067,
          "velocity": 0.7480314960629921,
          "duration": 0.2857140000000129
        },
        {
          "name": "D2",
          "midi": 38,
          "time": 153.99984600000067,
          "velocity": 0.7480314960629921,
          "duration": 0.2857140000000129
        },
        {
          "name": "F#2",
          "midi": 42,
          "time": 154.2855600000007,
          "velocity": 0.7480314960629921,
          "duration": 0.2857140000000129
        },
        {
          "name": "D2",
          "midi": 38,
          "time": 154.2855600000007,
          "velocity": 0.7480314960629921,
          "duration": 0.2857140000000129
        },
        {
          "name": "F#2",
          "midi": 42,
          "time": 154.5712740000007,
          "velocity": 0.7480314960629921,
          "duration": 0.2857140000000129
        },
        {
          "name": "D2",
          "midi": 38,
          "time": 154.5712740000007,
          "velocity": 0.7480314960629921,
          "duration": 0.2857140000000129
        },
        {
          "name": "F#2",
          "midi": 42,
          "time": 154.8569880000007,
          "velocity": 0.7480314960629921,
          "duration": 0.2857140000000129
        },
        {
          "name": "D2",
          "midi": 38,
          "time": 154.8569880000007,
          "velocity": 0.7480314960629921,
          "duration": 0.2857140000000129
        },
        {
          "name": "F#2",
          "midi": 42,
          "time": 155.14270200000072,
          "velocity": 0.7480314960629921,
          "duration": 0.2857140000000129
        },
        {
          "name": "D2",
          "midi": 38,
          "time": 155.14270200000072,
          "velocity": 0.7480314960629921,
          "duration": 0.2857140000000129
        },
        {
          "name": "C#3",
          "midi": 49,
          "time": 155.42841600000074,
          "velocity": 0.7480314960629921,
          "duration": 0.2857140000000129
        },
        {
          "name": "D2",
          "midi": 38,
          "time": 155.42841600000074,
          "velocity": 0.7480314960629921,
          "duration": 0.2857140000000129
        },
        {
          "name": "F#2",
          "midi": 42,
          "time": 155.71413000000075,
          "velocity": 0.7480314960629921,
          "duration": 0.2857140000000129
        },
        {
          "name": "D2",
          "midi": 38,
          "time": 155.71413000000075,
          "velocity": 0.7480314960629921,
          "duration": 0.2857140000000129
        },
        {
          "name": "F#2",
          "midi": 42,
          "time": 155.99984400000076,
          "velocity": 0.7480314960629921,
          "duration": 0.2857140000000129
        },
        {
          "name": "D2",
          "midi": 38,
          "time": 155.99984400000076,
          "velocity": 0.7480314960629921,
          "duration": 0.2857140000000129
        },
        {
          "name": "F#2",
          "midi": 42,
          "time": 156.28555800000078,
          "velocity": 0.7480314960629921,
          "duration": 0.2857140000000129
        },
        {
          "name": "D2",
          "midi": 38,
          "time": 156.28555800000078,
          "velocity": 0.7480314960629921,
          "duration": 0.2857140000000129
        },
        {
          "name": "F#2",
          "midi": 42,
          "time": 156.5712720000008,
          "velocity": 0.7480314960629921,
          "duration": 0.2857140000000129
        },
        {
          "name": "D2",
          "midi": 38,
          "time": 156.5712720000008,
          "velocity": 0.7480314960629921,
          "duration": 0.2857140000000129
        },
        {
          "name": "F#2",
          "midi": 42,
          "time": 156.8569860000008,
          "velocity": 0.7480314960629921,
          "duration": 0.2857140000000129
        },
        {
          "name": "D2",
          "midi": 38,
          "time": 156.8569860000008,
          "velocity": 0.7480314960629921,
          "duration": 0.2857140000000129
        },
        {
          "name": "F#2",
          "midi": 42,
          "time": 157.14270000000081,
          "velocity": 0.7480314960629921,
          "duration": 0.2857140000000129
        },
        {
          "name": "D2",
          "midi": 38,
          "time": 157.14270000000081,
          "velocity": 0.7480314960629921,
          "duration": 0.2857140000000129
        },
        {
          "name": "F#2",
          "midi": 42,
          "time": 157.42841400000083,
          "velocity": 0.7480314960629921,
          "duration": 0.2857140000000129
        },
        {
          "name": "D2",
          "midi": 38,
          "time": 157.42841400000083,
          "velocity": 0.7480314960629921,
          "duration": 0.2857140000000129
        },
        {
          "name": "C#3",
          "midi": 49,
          "time": 157.71412800000084,
          "velocity": 0.7480314960629921,
          "duration": 0.2857140000000129
        },
        {
          "name": "D2",
          "midi": 38,
          "time": 157.71412800000084,
          "velocity": 0.7480314960629921,
          "duration": 0.2857140000000129
        },
        {
          "name": "F#2",
          "midi": 42,
          "time": 157.99984200000085,
          "velocity": 0.7480314960629921,
          "duration": 0.2857140000000129
        },
        {
          "name": "D2",
          "midi": 38,
          "time": 157.99984200000085,
          "velocity": 0.7480314960629921,
          "duration": 0.2857140000000129
        },
        {
          "name": "F#2",
          "midi": 42,
          "time": 158.28555600000087,
          "velocity": 0.7480314960629921,
          "duration": 0.2857140000000129
        },
        {
          "name": "D2",
          "midi": 38,
          "time": 158.28555600000087,
          "velocity": 0.7480314960629921,
          "duration": 0.2857140000000129
        },
        {
          "name": "F#2",
          "midi": 42,
          "time": 158.57127000000088,
          "velocity": 0.7480314960629921,
          "duration": 0.2857140000000129
        },
        {
          "name": "D2",
          "midi": 38,
          "time": 158.57127000000088,
          "velocity": 0.7480314960629921,
          "duration": 0.2857140000000129
        },
        {
          "name": "F#2",
          "midi": 42,
          "time": 158.8569840000009,
          "velocity": 0.7480314960629921,
          "duration": 0.2857140000000129
        },
        {
          "name": "D2",
          "midi": 38,
          "time": 158.8569840000009,
          "velocity": 0.7480314960629921,
          "duration": 0.2857140000000129
        },
        {
          "name": "F#2",
          "midi": 42,
          "time": 159.1426980000009,
          "velocity": 0.7480314960629921,
          "duration": 0.2857140000000129
        },
        {
          "name": "D2",
          "midi": 38,
          "time": 159.1426980000009,
          "velocity": 0.7480314960629921,
          "duration": 0.2857140000000129
        },
        {
          "name": "F#2",
          "midi": 42,
          "time": 159.42841200000092,
          "velocity": 0.7480314960629921,
          "duration": 0.2857140000000129
        },
        {
          "name": "D2",
          "midi": 38,
          "time": 159.42841200000092,
          "velocity": 0.7480314960629921,
          "duration": 0.2857140000000129
        },
        {
          "name": "F#2",
          "midi": 42,
          "time": 159.71412600000093,
          "velocity": 0.7480314960629921,
          "duration": 0.2857140000000129
        },
        {
          "name": "D2",
          "midi": 38,
          "time": 159.71412600000093,
          "velocity": 0.7480314960629921,
          "duration": 0.2857140000000129
        },
        {
          "name": "C#3",
          "midi": 49,
          "time": 159.99984000000094,
          "velocity": 0.7480314960629921,
          "duration": 2.285712000000018
        },
        {
          "name": "D2",
          "midi": 38,
          "time": 159.99984000000094,
          "velocity": 0.7480314960629921,
          "duration": 0.2857140000000129
        },
        {
          "name": "C3",
          "midi": 48,
          "time": 160.42841100000095,
          "velocity": 0.7480314960629921,
          "duration": 0.42857100000000514
        },
        {
          "name": "A2",
          "midi": 45,
          "time": 160.85698200000095,
          "velocity": 0.7480314960629921,
          "duration": 0.14285699999999224
        },
        {
          "name": "D2",
          "midi": 38,
          "time": 161.14269600000094,
          "velocity": 0.7480314960629921,
          "duration": 0.5714279999999974
        },
        {
          "name": "C3",
          "midi": 48,
          "time": 161.71412400000094,
          "velocity": 0.7480314960629921,
          "duration": 0.2857140000000129
        },
        {
          "name": "C#3",
          "midi": 49,
          "time": 162.28555200000096,
          "velocity": 0.7480314960629921,
          "duration": 4.5714240000000075
        }
      ],
      "controlChanges": {
        "6": [
          {
            "number": 6,
            "time": 0,
            "value": 0.09448818897637795
          },
          {
            "number": 6,
            "time": 0,
            "value": 0.5039370078740157
          }
        ],
        "7": [
          {
            "number": 7,
            "time": 0,
            "value": 1
          }
        ],
        "10": [
          {
            "number": 10,
            "time": 0,
            "value": 0.5039370078740157
          }
        ],
        "38": [
          {
            "number": 38,
            "time": 0,
            "value": 0
          }
        ],
        "91": [
          {
            "number": 91,
            "time": 0,
            "value": 0
          }
        ],
        "92": [
          {
            "number": 92,
            "time": 0,
            "value": 0
          }
        ],
        "93": [
          {
            "number": 93,
            "time": 0,
            "value": 0
          }
        ],
        "95": [
          {
            "number": 95,
            "time": 0,
            "value": 0
          }
        ],
        "100": [
          {
            "number": 100,
            "time": 0,
            "value": 0
          },
          {
            "number": 100,
            "time": 0,
            "value": 0.007874015748031496
          },
          {
            "number": 100,
            "time": 0,
            "value": 1
          }
        ],
        "101": [
          {
            "number": 101,
            "time": 0,
            "value": 0
          },
          {
            "number": 101,
            "time": 0,
            "value": 0
          },
          {
            "number": 101,
            "time": 0,
            "value": 1
          }
        ]
      },
      "id": 4,
      "name": "Matt",
      "instrumentNumber": 0,
      "instrument": "standard kit",
      "instrumentFamily": "drums",
      "channelNumber": 9,
      "isPercussion": true
    }
  ]
}