{
  "header": {
    "PPQ": 480,
    "bpm": 82.00003553334874,
    "timeSignature": [
      4,
      4
    ],
    "name": "Sugar We're Goin' Down"
  },
  "startTime": 0,
  "duration": 213.6584440000001,
  "tracks": [
    {
      "startTime": 0,
      "duration": 0,
      "length": 0,
      "notes": [],
      "controlChanges": {},
      "id": 0,
      "name": "Sugar We're Goin' Down"
    },
    {
      "startTime": 2.195121,
      "duration": 213.6584440000001,
      "length": 1773,
      "notes": [
        {
          "name": "D3",
          "midi": 50,
          "time": 2.195121,
          "velocity": 0.8740157480314961,
          "duration": 0.03048779166666682
        },
        {
          "name": "A2",
          "midi": 45,
          "time": 2.195121,
          "velocity": 0.8740157480314961,
          "duration": 0.03048779166666682
        },
        {
          "name": "D2",
          "midi": 38,
          "time": 2.195121,
          "velocity": 0.8740157480314961,
          "duration": 0.03048779166666682
        },
        {
          "name": "D3",
          "midi": 50,
          "time": 2.37804775,
          "velocity": 0.8740157480314961,
          "duration": 0.03048779166666682
        },
        {
          "name": "A2",
          "midi": 45,
          "time": 2.37804775,
          "velocity": 0.8740157480314961,
          "duration": 0.03048779166666682
        },
        {
          "name": "D2",
          "midi": 38,
          "time": 2.37804775,
          "velocity": 0.8740157480314961,
          "duration": 0.03048779166666682
        },
        {
          "name": "D3",
          "midi": 50,
          "time": 2.5609745,
          "velocity": 0.8740157480314961,
          "duration": 0.03048779166666682
        },
        {
          "name": "A2",
          "midi": 45,
          "time": 2.5609745,
          "velocity": 0.8740157480314961,
          "duration": 0.03048779166666682
        },
        {
          "name": "D2",
          "midi": 38,
          "time": 2.5609745,
          "velocity": 0.8740157480314961,
          "duration": 0.03048779166666682
        },
        {
          "name": "D3",
          "midi": 50,
          "time": 2.74390125,
          "velocity": 0.8740157480314961,
          "duration": 0.03048779166666682
        },
        {
          "name": "A2",
          "midi": 45,
          "time": 2.74390125,
          "velocity": 0.8740157480314961,
          "duration": 0.03048779166666682
        },
        {
          "name": "D2",
          "midi": 38,
          "time": 2.74390125,
          "velocity": 0.8740157480314961,
          "duration": 0.03048779166666682
        },
        {
          "name": "D3",
          "midi": 50,
          "time": 2.926828,
          "velocity": 0.8740157480314961,
          "duration": 0.18292675000000003
        },
        {
          "name": "A2",
          "midi": 45,
          "time": 2.926828,
          "velocity": 0.8740157480314961,
          "duration": 0.18292675000000003
        },
        {
          "name": "D2",
          "midi": 38,
          "time": 2.926828,
          "velocity": 0.8740157480314961,
          "duration": 0.18292675000000003
        },
        {
          "name": "D3",
          "midi": 50,
          "time": 3.10975475,
          "velocity": 0.8740157480314961,
          "duration": 0.18292675000000003
        },
        {
          "name": "A2",
          "midi": 45,
          "time": 3.10975475,
          "velocity": 0.8740157480314961,
          "duration": 0.18292675000000003
        },
        {
          "name": "D2",
          "midi": 38,
          "time": 3.10975475,
          "velocity": 0.8740157480314961,
          "duration": 0.18292675000000003
        },
        {
          "name": "D3",
          "midi": 50,
          "time": 3.2926815,
          "velocity": 0.8740157480314961,
          "duration": 0.18292675000000003
        },
        {
          "name": "A2",
          "midi": 45,
          "time": 3.2926815,
          "velocity": 0.8740157480314961,
          "duration": 0.18292675000000003
        },
        {
          "name": "D2",
          "midi": 38,
          "time": 3.2926815,
          "velocity": 0.8740157480314961,
          "duration": 0.18292675000000003
        },
        {
          "name": "D3",
          "midi": 50,
          "time": 3.47560825,
          "velocity": 0.8740157480314961,
          "duration": 0.18292675000000003
        },
        {
          "name": "A2",
          "midi": 45,
          "time": 3.47560825,
          "velocity": 0.8740157480314961,
          "duration": 0.18292675000000003
        },
        {
          "name": "D2",
          "midi": 38,
          "time": 3.47560825,
          "velocity": 0.8740157480314961,
          "duration": 0.18292675000000003
        },
        {
          "name": "D3",
          "midi": 50,
          "time": 3.658535,
          "velocity": 0.8740157480314961,
          "duration": 0.18292675000000003
        },
        {
          "name": "A2",
          "midi": 45,
          "time": 3.658535,
          "velocity": 0.8740157480314961,
          "duration": 0.18292675000000003
        },
        {
          "name": "D2",
          "midi": 38,
          "time": 3.658535,
          "velocity": 0.8740157480314961,
          "duration": 0.18292675000000003
        },
        {
          "name": "D3",
          "midi": 50,
          "time": 3.84146175,
          "velocity": 0.8740157480314961,
          "duration": 0.18292674999999958
        },
        {
          "name": "A2",
          "midi": 45,
          "time": 3.84146175,
          "velocity": 0.8740157480314961,
          "duration": 0.18292674999999958
        },
        {
          "name": "D2",
          "midi": 38,
          "time": 3.84146175,
          "velocity": 0.8740157480314961,
          "duration": 0.18292674999999958
        },
        {
          "name": "D3",
          "midi": 50,
          "time": 4.0243885,
          "velocity": 0.8740157480314961,
          "duration": 0.18292675000000003
        },
        {
          "name": "A2",
          "midi": 45,
          "time": 4.0243885,
          "velocity": 0.8740157480314961,
          "duration": 0.18292675000000003
        },
        {
          "name": "D2",
          "midi": 38,
          "time": 4.0243885,
          "velocity": 0.8740157480314961,
          "duration": 0.18292675000000003
        },
        {
          "name": "D3",
          "midi": 50,
          "time": 4.20731525,
          "velocity": 0.8740157480314961,
          "duration": 0.18292675000000003
        },
        {
          "name": "A2",
          "midi": 45,
          "time": 4.20731525,
          "velocity": 0.8740157480314961,
          "duration": 0.18292675000000003
        },
        {
          "name": "D2",
          "midi": 38,
          "time": 4.20731525,
          "velocity": 0.8740157480314961,
          "duration": 0.18292675000000003
        },
        {
          "name": "D3",
          "midi": 50,
          "time": 4.390242,
          "velocity": 0.8740157480314961,
          "duration": 0.18292675000000003
        },
        {
          "name": "A2",
          "midi": 45,
          "time": 4.390242,
          "velocity": 0.8740157480314961,
          "duration": 0.18292675000000003
        },
        {
          "name": "D2",
          "midi": 38,
          "time": 4.390242,
          "velocity": 0.8740157480314961,
          "duration": 0.18292675000000003
        },
        {
          "name": "D3",
          "midi": 50,
          "time": 4.57316875,
          "velocity": 0.8740157480314961,
          "duration": 0.18292675000000003
        },
        {
          "name": "A2",
          "midi": 45,
          "time": 4.57316875,
          "velocity": 0.8740157480314961,
          "duration": 0.18292675000000003
        },
        {
          "name": "D2",
          "midi": 38,
          "time": 4.57316875,
          "velocity": 0.8740157480314961,
          "duration": 0.18292675000000003
        },
        {
          "name": "D3",
          "midi": 50,
          "time": 4.7560955,
          "velocity": 0.8740157480314961,
          "duration": 0.18292675000000003
        },
        {
          "name": "A2",
          "midi": 45,
          "time": 4.7560955,
          "velocity": 0.8740157480314961,
          "duration": 0.18292675000000003
        },
        {
          "name": "D2",
          "midi": 38,
          "time": 4.7560955,
          "velocity": 0.8740157480314961,
          "duration": 0.18292675000000003
        },
        {
          "name": "D3",
          "midi": 50,
          "time": 4.93902225,
          "velocity": 0.8740157480314961,
          "duration": 0.18292675000000003
        },
        {
          "name": "A2",
          "midi": 45,
          "time": 4.93902225,
          "velocity": 0.8740157480314961,
          "duration": 0.18292675000000003
        },
        {
          "name": "D2",
          "midi": 38,
          "time": 4.93902225,
          "velocity": 0.8740157480314961,
          "duration": 0.18292675000000003
        },
        {
          "name": "D3",
          "midi": 50,
          "time": 5.121949,
          "velocity": 0.8740157480314961,
          "duration": 0.18292675000000003
        },
        {
          "name": "A2",
          "midi": 45,
          "time": 5.121949,
          "velocity": 0.8740157480314961,
          "duration": 0.18292675000000003
        },
        {
          "name": "D2",
          "midi": 38,
          "time": 5.121949,
          "velocity": 0.8740157480314961,
          "duration": 0.18292675000000003
        },
        {
          "name": "D3",
          "midi": 50,
          "time": 5.30487575,
          "velocity": 0.8740157480314961,
          "duration": 0.18292675000000003
        },
        {
          "name": "A2",
          "midi": 45,
          "time": 5.30487575,
          "velocity": 0.8740157480314961,
          "duration": 0.18292675000000003
        },
        {
          "name": "D2",
          "midi": 38,
          "time": 5.30487575,
          "velocity": 0.8740157480314961,
          "duration": 0.18292675000000003
        },
        {
          "name": "D3",
          "midi": 50,
          "time": 5.4878025,
          "velocity": 0.8740157480314961,
          "duration": 0.18292675000000003
        },
        {
          "name": "A2",
          "midi": 45,
          "time": 5.4878025,
          "velocity": 0.8740157480314961,
          "duration": 0.18292675000000003
        },
        {
          "name": "D2",
          "midi": 38,
          "time": 5.4878025,
          "velocity": 0.8740157480314961,
          "duration": 0.18292675000000003
        },
        {
          "name": "D3",
          "midi": 50,
          "time": 5.67072925,
          "velocity": 0.8740157480314961,
          "duration": 0.18292675000000003
        },
        {
          "name": "A2",
          "midi": 45,
          "time": 5.67072925,
          "velocity": 0.8740157480314961,
          "duration": 0.18292675000000003
        },
        {
          "name": "D2",
          "midi": 38,
          "time": 5.67072925,
          "velocity": 0.8740157480314961,
          "duration": 0.18292675000000003
        },
        {
          "name": "G3",
          "midi": 55,
          "time": 5.853656,
          "velocity": 0.8740157480314961,
          "duration": 0.18292675000000003
        },
        {
          "name": "D3",
          "midi": 50,
          "time": 5.853656,
          "velocity": 0.8740157480314961,
          "duration": 0.18292675000000003
        },
        {
          "name": "G2",
          "midi": 43,
          "time": 5.853656,
          "velocity": 0.8740157480314961,
          "duration": 0.18292675000000003
        },
        {
          "name": "G3",
          "midi": 55,
          "time": 6.03658275,
          "velocity": 0.8740157480314961,
          "duration": 0.18292675000000003
        },
        {
          "name": "D3",
          "midi": 50,
          "time": 6.03658275,
          "velocity": 0.8740157480314961,
          "duration": 0.18292675000000003
        },
        {
          "name": "G2",
          "midi": 43,
          "time": 6.03658275,
          "velocity": 0.8740157480314961,
          "duration": 0.18292675000000003
        },
        {
          "name": "G3",
          "midi": 55,
          "time": 6.2195095,
          "velocity": 0.8740157480314961,
          "duration": 0.18292675000000003
        },
        {
          "name": "D3",
          "midi": 50,
          "time": 6.2195095,
          "velocity": 0.8740157480314961,
          "duration": 0.18292675000000003
        },
        {
          "name": "G2",
          "midi": 43,
          "time": 6.2195095,
          "velocity": 0.8740157480314961,
          "duration": 0.18292675000000003
        },
        {
          "name": "G3",
          "midi": 55,
          "time": 6.40243625,
          "velocity": 0.8740157480314961,
          "duration": 0.18292675000000003
        },
        {
          "name": "D3",
          "midi": 50,
          "time": 6.40243625,
          "velocity": 0.8740157480314961,
          "duration": 0.18292675000000003
        },
        {
          "name": "G2",
          "midi": 43,
          "time": 6.40243625,
          "velocity": 0.8740157480314961,
          "duration": 0.18292675000000003
        },
        {
          "name": "G3",
          "midi": 55,
          "time": 6.585363,
          "velocity": 0.8740157480314961,
          "duration": 0.18292675000000003
        },
        {
          "name": "D3",
          "midi": 50,
          "time": 6.585363,
          "velocity": 0.8740157480314961,
          "duration": 0.18292675000000003
        },
        {
          "name": "G2",
          "midi": 43,
          "time": 6.585363,
          "velocity": 0.8740157480314961,
          "duration": 0.18292675000000003
        },
        {
          "name": "G3",
          "midi": 55,
          "time": 6.76828975,
          "velocity": 0.8740157480314961,
          "duration": 0.18292675000000003
        },
        {
          "name": "D3",
          "midi": 50,
          "time": 6.76828975,
          "velocity": 0.8740157480314961,
          "duration": 0.18292675000000003
        },
        {
          "name": "G2",
          "midi": 43,
          "time": 6.76828975,
          "velocity": 0.8740157480314961,
          "duration": 0.18292675000000003
        },
        {
          "name": "G3",
          "midi": 55,
          "time": 6.9512165,
          "velocity": 0.8740157480314961,
          "duration": 0.18292675000000003
        },
        {
          "name": "D3",
          "midi": 50,
          "time": 6.9512165,
          "velocity": 0.8740157480314961,
          "duration": 0.18292675000000003
        },
        {
          "name": "G2",
          "midi": 43,
          "time": 6.9512165,
          "velocity": 0.8740157480314961,
          "duration": 0.18292675000000003
        },
        {
          "name": "G3",
          "midi": 55,
          "time": 7.13414325,
          "velocity": 0.8740157480314961,
          "duration": 0.18292675000000003
        },
        {
          "name": "D3",
          "midi": 50,
          "time": 7.13414325,
          "velocity": 0.8740157480314961,
          "duration": 0.18292675000000003
        },
        {
          "name": "G2",
          "midi": 43,
          "time": 7.13414325,
          "velocity": 0.8740157480314961,
          "duration": 0.18292675000000003
        },
        {
          "name": "G3",
          "midi": 55,
          "time": 7.31707,
          "velocity": 0.8740157480314961,
          "duration": 0.18292675000000003
        },
        {
          "name": "D3",
          "midi": 50,
          "time": 7.31707,
          "velocity": 0.8740157480314961,
          "duration": 0.18292675000000003
        },
        {
          "name": "G2",
          "midi": 43,
          "time": 7.31707,
          "velocity": 0.8740157480314961,
          "duration": 0.18292675000000003
        },
        {
          "name": "G3",
          "midi": 55,
          "time": 7.49999675,
          "velocity": 0.8740157480314961,
          "duration": 0.18292675000000003
        },
        {
          "name": "D3",
          "midi": 50,
          "time": 7.49999675,
          "velocity": 0.8740157480314961,
          "duration": 0.18292675000000003
        },
        {
          "name": "G2",
          "midi": 43,
          "time": 7.49999675,
          "velocity": 0.8740157480314961,
          "duration": 0.18292675000000003
        },
        {
          "name": "G3",
          "midi": 55,
          "time": 7.6829235,
          "velocity": 0.8740157480314961,
          "duration": 0.18292675000000003
        },
        {
          "name": "D3",
          "midi": 50,
          "time": 7.6829235,
          "velocity": 0.8740157480314961,
          "duration": 0.18292675000000003
        },
        {
          "name": "G2",
          "midi": 43,
          "time": 7.6829235,
          "velocity": 0.8740157480314961,
          "duration": 0.18292675000000003
        },
        {
          "name": "G3",
          "midi": 55,
          "time": 7.86585025,
          "velocity": 0.8740157480314961,
          "duration": 0.18292674999999914
        },
        {
          "name": "D3",
          "midi": 50,
          "time": 7.86585025,
          "velocity": 0.8740157480314961,
          "duration": 0.18292674999999914
        },
        {
          "name": "G2",
          "midi": 43,
          "time": 7.86585025,
          "velocity": 0.8740157480314961,
          "duration": 0.18292674999999914
        },
        {
          "name": "G3",
          "midi": 55,
          "time": 8.048777,
          "velocity": 0.8740157480314961,
          "duration": 0.18292675000000003
        },
        {
          "name": "D3",
          "midi": 50,
          "time": 8.048777,
          "velocity": 0.8740157480314961,
          "duration": 0.18292675000000003
        },
        {
          "name": "G2",
          "midi": 43,
          "time": 8.048777,
          "velocity": 0.8740157480314961,
          "duration": 0.18292675000000003
        },
        {
          "name": "G3",
          "midi": 55,
          "time": 8.23170375,
          "velocity": 0.8740157480314961,
          "duration": 0.18292675000000003
        },
        {
          "name": "D3",
          "midi": 50,
          "time": 8.23170375,
          "velocity": 0.8740157480314961,
          "duration": 0.18292675000000003
        },
        {
          "name": "G2",
          "midi": 43,
          "time": 8.23170375,
          "velocity": 0.8740157480314961,
          "duration": 0.18292675000000003
        },
        {
          "name": "G3",
          "midi": 55,
          "time": 8.4146305,
          "velocity": 0.8740157480314961,
          "duration": 0.18292675000000003
        },
        {
          "name": "D3",
          "midi": 50,
          "time": 8.4146305,
          "velocity": 0.8740157480314961,
          "duration": 0.18292675000000003
        },
        {
          "name": "G2",
          "midi": 43,
          "time": 8.4146305,
          "velocity": 0.8740157480314961,
          "duration": 0.18292675000000003
        },
        {
          "name": "D3",
          "midi": 50,
          "time": 8.59755725,
          "velocity": 0.8740157480314961,
          "duration": 0.18292675000000003
        },
        {
          "name": "A2",
          "midi": 45,
          "time": 8.59755725,
          "velocity": 0.8740157480314961,
          "duration": 0.18292675000000003
        },
        {
          "name": "D2",
          "midi": 38,
          "time": 8.59755725,
          "velocity": 0.8740157480314961,
          "duration": 0.18292675000000003
        },
        {
          "name": "B3",
          "midi": 59,
          "time": 8.780484,
          "velocity": 0.8740157480314961,
          "duration": 0.18292675000000003
        },
        {
          "name": "F#3",
          "midi": 54,
          "time": 8.780484,
          "velocity": 0.8740157480314961,
          "duration": 0.18292675000000003
        },
        {
          "name": "B2",
          "midi": 47,
          "time": 8.780484,
          "velocity": 0.8740157480314961,
          "duration": 0.18292675000000003
        },
        {
          "name": "B3",
          "midi": 59,
          "time": 8.96341075,
          "velocity": 0.8740157480314961,
          "duration": 0.18292675000000003
        },
        {
          "name": "F#3",
          "midi": 54,
          "time": 8.96341075,
          "velocity": 0.8740157480314961,
          "duration": 0.18292675000000003
        },
        {
          "name": "B2",
          "midi": 47,
          "time": 8.96341075,
          "velocity": 0.8740157480314961,
          "duration": 0.18292675000000003
        },
        {
          "name": "B3",
          "midi": 59,
          "time": 9.1463375,
          "velocity": 0.8740157480314961,
          "duration": 0.18292675000000003
        },
        {
          "name": "F#3",
          "midi": 54,
          "time": 9.1463375,
          "velocity": 0.8740157480314961,
          "duration": 0.18292675000000003
        },
        {
          "name": "B2",
          "midi": 47,
          "time": 9.1463375,
          "velocity": 0.8740157480314961,
          "duration": 0.18292675000000003
        },
        {
          "name": "B3",
          "midi": 59,
          "time": 9.32926425,
          "velocity": 0.8740157480314961,
          "duration": 0.18292675000000003
        },
        {
          "name": "F#3",
          "midi": 54,
          "time": 9.32926425,
          "velocity": 0.8740157480314961,
          "duration": 0.18292675000000003
        },
        {
          "name": "B2",
          "midi": 47,
          "time": 9.32926425,
          "velocity": 0.8740157480314961,
          "duration": 0.18292675000000003
        },
        {
          "name": "B3",
          "midi": 59,
          "time": 9.512191,
          "velocity": 0.8740157480314961,
          "duration": 0.18292675000000003
        },
        {
          "name": "F#3",
          "midi": 54,
          "time": 9.512191,
          "velocity": 0.8740157480314961,
          "duration": 0.18292675000000003
        },
        {
          "name": "B2",
          "midi": 47,
          "time": 9.512191,
          "velocity": 0.8740157480314961,
          "duration": 0.18292675000000003
        },
        {
          "name": "B3",
          "midi": 59,
          "time": 9.69511775,
          "velocity": 0.8740157480314961,
          "duration": 0.18292675000000003
        },
        {
          "name": "F#3",
          "midi": 54,
          "time": 9.69511775,
          "velocity": 0.8740157480314961,
          "duration": 0.18292675000000003
        },
        {
          "name": "B2",
          "midi": 47,
          "time": 9.69511775,
          "velocity": 0.8740157480314961,
          "duration": 0.18292675000000003
        },
        {
          "name": "B3",
          "midi": 59,
          "time": 9.8780445,
          "velocity": 0.8740157480314961,
          "duration": 0.18292675000000003
        },
        {
          "name": "F#3",
          "midi": 54,
          "time": 9.8780445,
          "velocity": 0.8740157480314961,
          "duration": 0.18292675000000003
        },
        {
          "name": "B2",
          "midi": 47,
          "time": 9.8780445,
          "velocity": 0.8740157480314961,
          "duration": 0.18292675000000003
        },
        {
          "name": "B3",
          "midi": 59,
          "time": 10.06097125,
          "velocity": 0.8740157480314961,
          "duration": 0.18292675000000003
        },
        {
          "name": "F#3",
          "midi": 54,
          "time": 10.06097125,
          "velocity": 0.8740157480314961,
          "duration": 0.18292675000000003
        },
        {
          "name": "B2",
          "midi": 47,
          "time": 10.06097125,
          "velocity": 0.8740157480314961,
          "duration": 0.18292675000000003
        },
        {
          "name": "B3",
          "midi": 59,
          "time": 10.243898,
          "velocity": 0.8740157480314961,
          "duration": 0.18292675000000003
        },
        {
          "name": "F#3",
          "midi": 54,
          "time": 10.243898,
          "velocity": 0.8740157480314961,
          "duration": 0.18292675000000003
        },
        {
          "name": "B2",
          "midi": 47,
          "time": 10.243898,
          "velocity": 0.8740157480314961,
          "duration": 0.18292675000000003
        },
        {
          "name": "B3",
          "midi": 59,
          "time": 10.42682475,
          "velocity": 0.8740157480314961,
          "duration": 0.18292675000000003
        },
        {
          "name": "F#3",
          "midi": 54,
          "time": 10.42682475,
          "velocity": 0.8740157480314961,
          "duration": 0.18292675000000003
        },
        {
          "name": "B2",
          "midi": 47,
          "time": 10.42682475,
          "velocity": 0.8740157480314961,
          "duration": 0.18292675000000003
        },
        {
          "name": "B3",
          "midi": 59,
          "time": 10.6097515,
          "velocity": 0.8740157480314961,
          "duration": 0.18292675000000003
        },
        {
          "name": "F#3",
          "midi": 54,
          "time": 10.6097515,
          "velocity": 0.8740157480314961,
          "duration": 0.18292675000000003
        },
        {
          "name": "B2",
          "midi": 47,
          "time": 10.6097515,
          "velocity": 0.8740157480314961,
          "duration": 0.18292675000000003
        },
        {
          "name": "B3",
          "midi": 59,
          "time": 10.79267825,
          "velocity": 0.8740157480314961,
          "duration": 0.18292675000000003
        },
        {
          "name": "F#3",
          "midi": 54,
          "time": 10.79267825,
          "velocity": 0.8740157480314961,
          "duration": 0.18292675000000003
        },
        {
          "name": "B2",
          "midi": 47,
          "time": 10.79267825,
          "velocity": 0.8740157480314961,
          "duration": 0.18292675000000003
        },
        {
          "name": "B3",
          "midi": 59,
          "time": 10.975605,
          "velocity": 0.8740157480314961,
          "duration": 0.18292675000000003
        },
        {
          "name": "F#3",
          "midi": 54,
          "time": 10.975605,
          "velocity": 0.8740157480314961,
          "duration": 0.18292675000000003
        },
        {
          "name": "B2",
          "midi": 47,
          "time": 10.975605,
          "velocity": 0.8740157480314961,
          "duration": 0.18292675000000003
        },
        {
          "name": "B3",
          "midi": 59,
          "time": 11.15853175,
          "velocity": 0.8740157480314961,
          "duration": 0.18292675000000003
        },
        {
          "name": "F#3",
          "midi": 54,
          "time": 11.15853175,
          "velocity": 0.8740157480314961,
          "duration": 0.18292675000000003
        },
        {
          "name": "B2",
          "midi": 47,
          "time": 11.15853175,
          "velocity": 0.8740157480314961,
          "duration": 0.18292675000000003
        },
        {
          "name": "B3",
          "midi": 59,
          "time": 11.3414585,
          "velocity": 0.8740157480314961,
          "duration": 0.18292675000000003
        },
        {
          "name": "F#3",
          "midi": 54,
          "time": 11.3414585,
          "velocity": 0.8740157480314961,
          "duration": 0.18292675000000003
        },
        {
          "name": "B2",
          "midi": 47,
          "time": 11.3414585,
          "velocity": 0.8740157480314961,
          "duration": 0.18292675000000003
        },
        {
          "name": "D3",
          "midi": 50,
          "time": 11.52438525,
          "velocity": 0.8740157480314961,
          "duration": 0.18292675000000003
        },
        {
          "name": "A2",
          "midi": 45,
          "time": 11.52438525,
          "velocity": 0.8740157480314961,
          "duration": 0.18292675000000003
        },
        {
          "name": "D2",
          "midi": 38,
          "time": 11.52438525,
          "velocity": 0.8740157480314961,
          "duration": 0.18292675000000003
        },
        {
          "name": "G3",
          "midi": 55,
          "time": 11.707312,
          "velocity": 0.8740157480314961,
          "duration": 0.18292675000000003
        },
        {
          "name": "D3",
          "midi": 50,
          "time": 11.707312,
          "velocity": 0.8740157480314961,
          "duration": 0.18292675000000003
        },
        {
          "name": "G2",
          "midi": 43,
          "time": 11.707312,
          "velocity": 0.8740157480314961,
          "duration": 0.18292675000000003
        },
        {
          "name": "G3",
          "midi": 55,
          "time": 11.89023875,
          "velocity": 0.8740157480314961,
          "duration": 0.18292675000000003
        },
        {
          "name": "D3",
          "midi": 50,
          "time": 11.89023875,
          "velocity": 0.8740157480314961,
          "duration": 0.18292675000000003
        },
        {
          "name": "G2",
          "midi": 43,
          "time": 11.89023875,
          "velocity": 0.8740157480314961,
          "duration": 0.18292675000000003
        },
        {
          "name": "G3",
          "midi": 55,
          "time": 12.0731655,
          "velocity": 0.8740157480314961,
          "duration": 0.18292675000000003
        },
        {
          "name": "D3",
          "midi": 50,
          "time": 12.0731655,
          "velocity": 0.8740157480314961,
          "duration": 0.18292675000000003
        },
        {
          "name": "G2",
          "midi": 43,
          "time": 12.0731655,
          "velocity": 0.8740157480314961,
          "duration": 0.18292675000000003
        },
        {
          "name": "G3",
          "midi": 55,
          "time": 12.25609225,
          "velocity": 0.8740157480314961,
          "duration": 0.18292675000000003
        },
        {
          "name": "D3",
          "midi": 50,
          "time": 12.25609225,
          "velocity": 0.8740157480314961,
          "duration": 0.18292675000000003
        },
        {
          "name": "G2",
          "midi": 43,
          "time": 12.25609225,
          "velocity": 0.8740157480314961,
          "duration": 0.18292675000000003
        },
        {
          "name": "G3",
          "midi": 55,
          "time": 12.439019,
          "velocity": 0.8740157480314961,
          "duration": 0.18292675000000003
        },
        {
          "name": "D3",
          "midi": 50,
          "time": 12.439019,
          "velocity": 0.8740157480314961,
          "duration": 0.18292675000000003
        },
        {
          "name": "G2",
          "midi": 43,
          "time": 12.439019,
          "velocity": 0.8740157480314961,
          "duration": 0.18292675000000003
        },
        {
          "name": "G3",
          "midi": 55,
          "time": 12.62194575,
          "velocity": 0.8740157480314961,
          "duration": 0.18292675000000003
        },
        {
          "name": "D3",
          "midi": 50,
          "time": 12.62194575,
          "velocity": 0.8740157480314961,
          "duration": 0.18292675000000003
        },
        {
          "name": "G2",
          "midi": 43,
          "time": 12.62194575,
          "velocity": 0.8740157480314961,
          "duration": 0.18292675000000003
        },
        {
          "name": "G3",
          "midi": 55,
          "time": 12.8048725,
          "velocity": 0.8740157480314961,
          "duration": 0.18292675000000003
        },
        {
          "name": "D3",
          "midi": 50,
          "time": 12.8048725,
          "velocity": 0.8740157480314961,
          "duration": 0.18292675000000003
        },
        {
          "name": "G2",
          "midi": 43,
          "time": 12.8048725,
          "velocity": 0.8740157480314961,
          "duration": 0.18292675000000003
        },
        {
          "name": "G3",
          "midi": 55,
          "time": 12.98779925,
          "velocity": 0.8740157480314961,
          "duration": 0.18292675000000003
        },
        {
          "name": "D3",
          "midi": 50,
          "time": 12.98779925,
          "velocity": 0.8740157480314961,
          "duration": 0.18292675000000003
        },
        {
          "name": "G2",
          "midi": 43,
          "time": 12.98779925,
          "velocity": 0.8740157480314961,
          "duration": 0.18292675000000003
        },
        {
          "name": "G3",
          "midi": 55,
          "time": 13.170726,
          "velocity": 0.8740157480314961,
          "duration": 0.18292675000000003
        },
        {
          "name": "D3",
          "midi": 50,
          "time": 13.170726,
          "velocity": 0.8740157480314961,
          "duration": 0.18292675000000003
        },
        {
          "name": "G2",
          "midi": 43,
          "time": 13.170726,
          "velocity": 0.8740157480314961,
          "duration": 0.18292675000000003
        },
        {
          "name": "G3",
          "midi": 55,
          "time": 13.35365275,
          "velocity": 0.8740157480314961,
          "duration": 0.18292675000000003
        },
        {
          "name": "D3",
          "midi": 50,
          "time": 13.35365275,
          "velocity": 0.8740157480314961,
          "duration": 0.18292675000000003
        },
        {
          "name": "G2",
          "midi": 43,
          "time": 13.35365275,
          "velocity": 0.8740157480314961,
          "duration": 0.18292675000000003
        },
        {
          "name": "G3",
          "midi": 55,
          "time": 13.5365795,
          "velocity": 0.8740157480314961,
          "duration": 0.18292675000000003
        },
        {
          "name": "D3",
          "midi": 50,
          "time": 13.5365795,
          "velocity": 0.8740157480314961,
          "duration": 0.18292675000000003
        },
        {
          "name": "G2",
          "midi": 43,
          "time": 13.5365795,
          "velocity": 0.8740157480314961,
          "duration": 0.18292675000000003
        },
        {
          "name": "G3",
          "midi": 55,
          "time": 13.71950625,
          "velocity": 0.8740157480314961,
          "duration": 0.18292675000000003
        },
        {
          "name": "D3",
          "midi": 50,
          "time": 13.71950625,
          "velocity": 0.8740157480314961,
          "duration": 0.18292675000000003
        },
        {
          "name": "G2",
          "midi": 43,
          "time": 13.71950625,
          "velocity": 0.8740157480314961,
          "duration": 0.18292675000000003
        },
        {
          "name": "A2",
          "midi": 45,
          "time": 13.902433,
          "velocity": 0.8740157480314961,
          "duration": 0.030487791666667263
        },
        {
          "name": "D2",
          "midi": 38,
          "time": 13.902433,
          "velocity": 0.8740157480314961,
          "duration": 0.030487791666667263
        },
        {
          "name": "A2",
          "midi": 45,
          "time": 14.08535975,
          "velocity": 0.8740157480314961,
          "duration": 0.030487791666667263
        },
        {
          "name": "D2",
          "midi": 38,
          "time": 14.08535975,
          "velocity": 0.8740157480314961,
          "duration": 0.030487791666667263
        },
        {
          "name": "A2",
          "midi": 45,
          "time": 14.2682865,
          "velocity": 0.8740157480314961,
          "duration": 0.030487791666667263
        },
        {
          "name": "D2",
          "midi": 38,
          "time": 14.2682865,
          "velocity": 0.8740157480314961,
          "duration": 0.030487791666667263
        },
        {
          "name": "D3",
          "midi": 50,
          "time": 14.45121325,
          "velocity": 0.8740157480314961,
          "duration": 0.030487791666667263
        },
        {
          "name": "A2",
          "midi": 45,
          "time": 14.45121325,
          "velocity": 0.8740157480314961,
          "duration": 0.030487791666667263
        },
        {
          "name": "D2",
          "midi": 38,
          "time": 14.45121325,
          "velocity": 0.8740157480314961,
          "duration": 0.030487791666667263
        },
        {
          "name": "F#4",
          "midi": 66,
          "time": 14.63414,
          "velocity": 0.8740157480314961,
          "duration": 0.18292675000000003
        },
        {
          "name": "D4",
          "midi": 62,
          "time": 14.63414,
          "velocity": 0.8740157480314961,
          "duration": 0.18292675000000003
        },
        {
          "name": "F#4",
          "midi": 66,
          "time": 14.81706675,
          "velocity": 0.8740157480314961,
          "duration": 0.18292675000000003
        },
        {
          "name": "D4",
          "midi": 62,
          "time": 14.81706675,
          "velocity": 0.8740157480314961,
          "duration": 0.18292675000000003
        },
        {
          "name": "F#4",
          "midi": 66,
          "time": 14.9999935,
          "velocity": 0.8740157480314961,
          "duration": 0.18292675000000003
        },
        {
          "name": "D4",
          "midi": 62,
          "time": 14.9999935,
          "velocity": 0.8740157480314961,
          "duration": 0.18292675000000003
        },
        {
          "name": "E4",
          "midi": 64,
          "time": 15.18292025,
          "velocity": 0.8740157480314961,
          "duration": 0.18292675000000003
        },
        {
          "name": "D4",
          "midi": 62,
          "time": 15.18292025,
          "velocity": 0.8740157480314961,
          "duration": 0.18292675000000003
        },
        {
          "name": "E4",
          "midi": 64,
          "time": 15.365847,
          "velocity": 0.8740157480314961,
          "duration": 0.18292675000000003
        },
        {
          "name": "D4",
          "midi": 62,
          "time": 15.365847,
          "velocity": 0.8740157480314961,
          "duration": 0.18292675000000003
        },
        {
          "name": "E4",
          "midi": 64,
          "time": 15.54877375,
          "velocity": 0.8740157480314961,
          "duration": 0.18292675000000003
        },
        {
          "name": "D4",
          "midi": 62,
          "time": 15.54877375,
          "velocity": 0.8740157480314961,
          "duration": 0.18292675000000003
        },
        {
          "name": "G4",
          "midi": 67,
          "time": 15.7317005,
          "velocity": 0.8740157480314961,
          "duration": 0.18292675000000003
        },
        {
          "name": "D4",
          "midi": 62,
          "time": 15.7317005,
          "velocity": 0.8740157480314961,
          "duration": 0.18292675000000003
        },
        {
          "name": "G4",
          "midi": 67,
          "time": 15.91462725,
          "velocity": 0.8740157480314961,
          "duration": 0.18292674999999825
        },
        {
          "name": "D4",
          "midi": 62,
          "time": 15.91462725,
          "velocity": 0.8740157480314961,
          "duration": 0.18292674999999825
        },
        {
          "name": "G4",
          "midi": 67,
          "time": 16.097554,
          "velocity": 0.8740157480314961,
          "duration": 0.18292675000000003
        },
        {
          "name": "D4",
          "midi": 62,
          "time": 16.097554,
          "velocity": 0.8740157480314961,
          "duration": 0.18292675000000003
        },
        {
          "name": "E4",
          "midi": 64,
          "time": 16.28048075,
          "velocity": 0.8740157480314961,
          "duration": 0.18292675000000003
        },
        {
          "name": "D4",
          "midi": 62,
          "time": 16.28048075,
          "velocity": 0.8740157480314961,
          "duration": 0.18292675000000003
        },
        {
          "name": "E4",
          "midi": 64,
          "time": 16.4634075,
          "velocity": 0.8740157480314961,
          "duration": 0.18292675000000003
        },
        {
          "name": "D4",
          "midi": 62,
          "time": 16.4634075,
          "velocity": 0.8740157480314961,
          "duration": 0.18292675000000003
        },
        {
          "name": "E4",
          "midi": 64,
          "time": 16.64633425,
          "velocity": 0.8740157480314961,
          "duration": 0.18292675000000003
        },
        {
          "name": "D4",
          "midi": 62,
          "time": 16.64633425,
          "velocity": 0.8740157480314961,
          "duration": 0.18292675000000003
        },
        {
          "name": "F#4",
          "midi": 66,
          "time": 16.829261,
          "velocity": 0.8740157480314961,
          "duration": 0.18292675000000003
        },
        {
          "name": "D4",
          "midi": 62,
          "time": 16.829261,
          "velocity": 0.8740157480314961,
          "duration": 0.18292675000000003
        },
        {
          "name": "F#4",
          "midi": 66,
          "time": 17.01218775,
          "velocity": 0.8740157480314961,
          "duration": 0.18292675000000003
        },
        {
          "name": "D4",
          "midi": 62,
          "time": 17.01218775,
          "velocity": 0.8740157480314961,
          "duration": 0.18292675000000003
        },
        {
          "name": "E4",
          "midi": 64,
          "time": 17.1951145,
          "velocity": 0.8740157480314961,
          "duration": 0.36585350000000005
        },
        {
          "name": "D4",
          "midi": 62,
          "time": 17.1951145,
          "velocity": 0.8740157480314961,
          "duration": 0.36585350000000005
        },
        {
          "name": "F#4",
          "midi": 66,
          "time": 17.560968,
          "velocity": 0.8740157480314961,
          "duration": 0.18292675000000003
        },
        {
          "name": "D4",
          "midi": 62,
          "time": 17.560968,
          "velocity": 0.8740157480314961,
          "duration": 0.18292675000000003
        },
        {
          "name": "F#4",
          "midi": 66,
          "time": 17.74389475,
          "velocity": 0.8740157480314961,
          "duration": 0.18292675000000003
        },
        {
          "name": "D4",
          "midi": 62,
          "time": 17.74389475,
          "velocity": 0.8740157480314961,
          "duration": 0.18292675000000003
        },
        {
          "name": "F#4",
          "midi": 66,
          "time": 17.9268215,
          "velocity": 0.8740157480314961,
          "duration": 0.18292675000000003
        },
        {
          "name": "D4",
          "midi": 62,
          "time": 17.9268215,
          "velocity": 0.8740157480314961,
          "duration": 0.18292675000000003
        },
        {
          "name": "E4",
          "midi": 64,
          "time": 18.10974825,
          "velocity": 0.8740157480314961,
          "duration": 0.18292675000000003
        },
        {
          "name": "D4",
          "midi": 62,
          "time": 18.10974825,
          "velocity": 0.8740157480314961,
          "duration": 0.18292675000000003
        },
        {
          "name": "E4",
          "midi": 64,
          "time": 18.292675,
          "velocity": 0.8740157480314961,
          "duration": 0.18292675000000003
        },
        {
          "name": "D4",
          "midi": 62,
          "time": 18.292675,
          "velocity": 0.8740157480314961,
          "duration": 0.18292675000000003
        },
        {
          "name": "E4",
          "midi": 64,
          "time": 18.47560175,
          "velocity": 0.8740157480314961,
          "duration": 0.18292675000000003
        },
        {
          "name": "D4",
          "midi": 62,
          "time": 18.47560175,
          "velocity": 0.8740157480314961,
          "duration": 0.18292675000000003
        },
        {
          "name": "G4",
          "midi": 67,
          "time": 18.6585285,
          "velocity": 0.8740157480314961,
          "duration": 0.18292675000000003
        },
        {
          "name": "D4",
          "midi": 62,
          "time": 18.6585285,
          "velocity": 0.8740157480314961,
          "duration": 0.18292675000000003
        },
        {
          "name": "G4",
          "midi": 67,
          "time": 18.84145525,
          "velocity": 0.8740157480314961,
          "duration": 0.18292675000000003
        },
        {
          "name": "D4",
          "midi": 62,
          "time": 18.84145525,
          "velocity": 0.8740157480314961,
          "duration": 0.18292675000000003
        },
        {
          "name": "G4",
          "midi": 67,
          "time": 19.024382,
          "velocity": 0.8740157480314961,
          "duration": 0.18292675000000003
        },
        {
          "name": "D4",
          "midi": 62,
          "time": 19.024382,
          "velocity": 0.8740157480314961,
          "duration": 0.18292675000000003
        },
        {
          "name": "E4",
          "midi": 64,
          "time": 19.20730875,
          "velocity": 0.8740157480314961,
          "duration": 0.18292675000000003
        },
        {
          "name": "D4",
          "midi": 62,
          "time": 19.20730875,
          "velocity": 0.8740157480314961,
          "duration": 0.18292675000000003
        },
        {
          "name": "E4",
          "midi": 64,
          "time": 19.3902355,
          "velocity": 0.8740157480314961,
          "duration": 0.18292675000000003
        },
        {
          "name": "D4",
          "midi": 62,
          "time": 19.3902355,
          "velocity": 0.8740157480314961,
          "duration": 0.18292675000000003
        },
        {
          "name": "E4",
          "midi": 64,
          "time": 19.57316225,
          "velocity": 0.8740157480314961,
          "duration": 0.18292675000000003
        },
        {
          "name": "D4",
          "midi": 62,
          "time": 19.57316225,
          "velocity": 0.8740157480314961,
          "duration": 0.18292675000000003
        },
        {
          "name": "F#4",
          "midi": 66,
          "time": 19.756089,
          "velocity": 0.8740157480314961,
          "duration": 0.18292675000000003
        },
        {
          "name": "D4",
          "midi": 62,
          "time": 19.756089,
          "velocity": 0.8740157480314961,
          "duration": 0.18292675000000003
        },
        {
          "name": "F#4",
          "midi": 66,
          "time": 19.93901575,
          "velocity": 0.8740157480314961,
          "duration": 0.18292675000000003
        },
        {
          "name": "D4",
          "midi": 62,
          "time": 19.93901575,
          "velocity": 0.8740157480314961,
          "duration": 0.18292675000000003
        },
        {
          "name": "E4",
          "midi": 64,
          "time": 20.1219425,
          "velocity": 0.8740157480314961,
          "duration": 0.36585350000000005
        },
        {
          "name": "D4",
          "midi": 62,
          "time": 20.1219425,
          "velocity": 0.8740157480314961,
          "duration": 0.36585350000000005
        },
        {
          "name": "F#4",
          "midi": 66,
          "time": 20.487796,
          "velocity": 0.8740157480314961,
          "duration": 0.18292675000000003
        },
        {
          "name": "D4",
          "midi": 62,
          "time": 20.487796,
          "velocity": 0.8740157480314961,
          "duration": 0.18292675000000003
        },
        {
          "name": "F#4",
          "midi": 66,
          "time": 20.67072275,
          "velocity": 0.8740157480314961,
          "duration": 0.18292675000000003
        },
        {
          "name": "D4",
          "midi": 62,
          "time": 20.67072275,
          "velocity": 0.8740157480314961,
          "duration": 0.18292675000000003
        },
        {
          "name": "F#4",
          "midi": 66,
          "time": 20.8536495,
          "velocity": 0.8740157480314961,
          "duration": 0.18292675000000003
        },
        {
          "name": "D4",
          "midi": 62,
          "time": 20.8536495,
          "velocity": 0.8740157480314961,
          "duration": 0.18292675000000003
        },
        {
          "name": "E4",
          "midi": 64,
          "time": 21.03657625,
          "velocity": 0.8740157480314961,
          "duration": 0.18292675000000003
        },
        {
          "name": "D4",
          "midi": 62,
          "time": 21.03657625,
          "velocity": 0.8740157480314961,
          "duration": 0.18292675000000003
        },
        {
          "name": "E4",
          "midi": 64,
          "time": 21.219503,
          "velocity": 0.8740157480314961,
          "duration": 0.18292675000000003
        },
        {
          "name": "D4",
          "midi": 62,
          "time": 21.219503,
          "velocity": 0.8740157480314961,
          "duration": 0.18292675000000003
        },
        {
          "name": "E4",
          "midi": 64,
          "time": 21.40242975,
          "velocity": 0.8740157480314961,
          "duration": 0.18292675000000003
        },
        {
          "name": "D4",
          "midi": 62,
          "time": 21.40242975,
          "velocity": 0.8740157480314961,
          "duration": 0.18292675000000003
        },
        {
          "name": "G4",
          "midi": 67,
          "time": 21.5853565,
          "velocity": 0.8740157480314961,
          "duration": 0.18292675000000003
        },
        {
          "name": "D4",
          "midi": 62,
          "time": 21.5853565,
          "velocity": 0.8740157480314961,
          "duration": 0.18292675000000003
        },
        {
          "name": "G4",
          "midi": 67,
          "time": 21.76828325,
          "velocity": 0.8740157480314961,
          "duration": 0.18292675000000003
        },
        {
          "name": "D4",
          "midi": 62,
          "time": 21.76828325,
          "velocity": 0.8740157480314961,
          "duration": 0.18292675000000003
        },
        {
          "name": "G4",
          "midi": 67,
          "time": 21.95121,
          "velocity": 0.8740157480314961,
          "duration": 0.18292675000000003
        },
        {
          "name": "D4",
          "midi": 62,
          "time": 21.95121,
          "velocity": 0.8740157480314961,
          "duration": 0.18292675000000003
        },
        {
          "name": "E4",
          "midi": 64,
          "time": 22.13413675,
          "velocity": 0.8740157480314961,
          "duration": 0.18292675000000003
        },
        {
          "name": "D4",
          "midi": 62,
          "time": 22.13413675,
          "velocity": 0.8740157480314961,
          "duration": 0.18292675000000003
        },
        {
          "name": "E4",
          "midi": 64,
          "time": 22.3170635,
          "velocity": 0.8740157480314961,
          "duration": 0.18292675000000003
        },
        {
          "name": "D4",
          "midi": 62,
          "time": 22.3170635,
          "velocity": 0.8740157480314961,
          "duration": 0.18292675000000003
        },
        {
          "name": "E4",
          "midi": 64,
          "time": 22.49999025,
          "velocity": 0.8740157480314961,
          "duration": 0.18292675000000003
        },
        {
          "name": "D4",
          "midi": 62,
          "time": 22.49999025,
          "velocity": 0.8740157480314961,
          "duration": 0.18292675000000003
        },
        {
          "name": "F#4",
          "midi": 66,
          "time": 22.682917,
          "velocity": 0.8740157480314961,
          "duration": 0.18292675000000003
        },
        {
          "name": "D4",
          "midi": 62,
          "time": 22.682917,
          "velocity": 0.8740157480314961,
          "duration": 0.18292675000000003
        },
        {
          "name": "F#4",
          "midi": 66,
          "time": 22.86584375,
          "velocity": 0.8740157480314961,
          "duration": 0.18292675000000003
        },
        {
          "name": "D4",
          "midi": 62,
          "time": 22.86584375,
          "velocity": 0.8740157480314961,
          "duration": 0.18292675000000003
        },
        {
          "name": "E4",
          "midi": 64,
          "time": 23.0487705,
          "velocity": 0.8740157480314961,
          "duration": 0.36585350000000005
        },
        {
          "name": "D4",
          "midi": 62,
          "time": 23.0487705,
          "velocity": 0.8740157480314961,
          "duration": 0.36585350000000005
        },
        {
          "name": "F#4",
          "midi": 66,
          "time": 23.414624,
          "velocity": 0.8740157480314961,
          "duration": 2.9268280000000004
        },
        {
          "name": "D4",
          "midi": 62,
          "time": 23.414624,
          "velocity": 0.8740157480314961,
          "duration": 2.9268280000000004
        },
        {
          "name": "D3",
          "midi": 50,
          "time": 38.048764,
          "velocity": 0.7874015748031497,
          "duration": 0.18292675000000003
        },
        {
          "name": "D3",
          "midi": 50,
          "time": 38.23169075,
          "velocity": 0.7874015748031497,
          "duration": 0.18292675000000003
        },
        {
          "name": "A3",
          "midi": 57,
          "time": 38.4146175,
          "velocity": 0.8740157480314961,
          "duration": 0.36585350000000005
        },
        {
          "name": "D3",
          "midi": 50,
          "time": 38.4146175,
          "velocity": 0.8740157480314961,
          "duration": 0.36585350000000005
        },
        {
          "name": "A3",
          "midi": 57,
          "time": 38.780471,
          "velocity": 0.8740157480314961,
          "duration": 0.18292675000000003
        },
        {
          "name": "D3",
          "midi": 50,
          "time": 38.780471,
          "velocity": 0.8740157480314961,
          "duration": 0.18292675000000003
        },
        {
          "name": "B3",
          "midi": 59,
          "time": 38.96339775,
          "velocity": 0.8740157480314961,
          "duration": 0.18292675000000003
        },
        {
          "name": "A3",
          "midi": 57,
          "time": 39.1463245,
          "velocity": 0.8740157480314961,
          "duration": 0.36585350000000005
        },
        {
          "name": "D3",
          "midi": 50,
          "time": 39.1463245,
          "velocity": 0.8740157480314961,
          "duration": 0.36585350000000005
        },
        {
          "name": "E3",
          "midi": 52,
          "time": 39.512178,
          "velocity": 0.8740157480314961,
          "duration": 0.18292675000000003
        },
        {
          "name": "F#3",
          "midi": 54,
          "time": 39.69510475,
          "velocity": 0.8740157480314961,
          "duration": 0.18292675000000003
        },
        {
          "name": "A3",
          "midi": 57,
          "time": 39.8780315,
          "velocity": 0.8740157480314961,
          "duration": 0.18292675000000003
        },
        {
          "name": "B3",
          "midi": 59,
          "time": 40.06095825,
          "velocity": 0.8740157480314961,
          "duration": 0.18292675000000003
        },
        {
          "name": "A3",
          "midi": 57,
          "time": 40.243885,
          "velocity": 0.8740157480314961,
          "duration": 0.36585350000000005
        },
        {
          "name": "A3",
          "midi": 57,
          "time": 40.6097385,
          "velocity": 0.8740157480314961,
          "duration": 0.36585350000000005
        },
        {
          "name": "F#3",
          "midi": 54,
          "time": 40.6097385,
          "velocity": 0.8740157480314961,
          "duration": 0.36585350000000005
        },
        {
          "name": "D3",
          "midi": 50,
          "time": 40.975592,
          "velocity": 0.7874015748031497,
          "duration": 0.18292675000000003
        },
        {
          "name": "D3",
          "midi": 50,
          "time": 41.15851875,
          "velocity": 0.7874015748031497,
          "duration": 0.18292675000000003
        },
        {
          "name": "A3",
          "midi": 57,
          "time": 41.3414455,
          "velocity": 0.8740157480314961,
          "duration": 0.36585350000000005
        },
        {
          "name": "D3",
          "midi": 50,
          "time": 41.3414455,
          "velocity": 0.8740157480314961,
          "duration": 0.36585350000000005
        },
        {
          "name": "A3",
          "midi": 57,
          "time": 41.707299,
          "velocity": 0.8740157480314961,
          "duration": 0.18292675000000003
        },
        {
          "name": "D3",
          "midi": 50,
          "time": 41.707299,
          "velocity": 0.8740157480314961,
          "duration": 0.18292675000000003
        },
        {
          "name": "B3",
          "midi": 59,
          "time": 41.89022575,
          "velocity": 0.8740157480314961,
          "duration": 0.18292675000000003
        },
        {
          "name": "A3",
          "midi": 57,
          "time": 42.0731525,
          "velocity": 0.8740157480314961,
          "duration": 0.36585350000000005
        },
        {
          "name": "D3",
          "midi": 50,
          "time": 42.0731525,
          "velocity": 0.8740157480314961,
          "duration": 0.36585350000000005
        },
        {
          "name": "E3",
          "midi": 52,
          "time": 42.439006,
          "velocity": 0.8740157480314961,
          "duration": 0.18292675000000003
        },
        {
          "name": "F#3",
          "midi": 54,
          "time": 42.62193275,
          "velocity": 0.8740157480314961,
          "duration": 0.18292675000000003
        },
        {
          "name": "A3",
          "midi": 57,
          "time": 42.8048595,
          "velocity": 0.8740157480314961,
          "duration": 0.18292675000000003
        },
        {
          "name": "B3",
          "midi": 59,
          "time": 42.98778625,
          "velocity": 0.8740157480314961,
          "duration": 0.18292675000000003
        },
        {
          "name": "A3",
          "midi": 57,
          "time": 43.170713,
          "velocity": 0.8740157480314961,
          "duration": 0.36585350000000005
        },
        {
          "name": "A3",
          "midi": 57,
          "time": 43.5365665,
          "velocity": 0.8740157480314961,
          "duration": 0.36585350000000005
        },
        {
          "name": "F#3",
          "midi": 54,
          "time": 43.5365665,
          "velocity": 0.8740157480314961,
          "duration": 0.36585350000000005
        },
        {
          "name": "D3",
          "midi": 50,
          "time": 43.90242,
          "velocity": 0.7874015748031497,
          "duration": 0.18292675000000003
        },
        {
          "name": "D3",
          "midi": 50,
          "time": 44.08534675,
          "velocity": 0.7874015748031497,
          "duration": 0.18292675000000003
        },
        {
          "name": "A3",
          "midi": 57,
          "time": 44.2682735,
          "velocity": 0.8740157480314961,
          "duration": 0.36585350000000005
        },
        {
          "name": "D3",
          "midi": 50,
          "time": 44.2682735,
          "velocity": 0.8740157480314961,
          "duration": 0.36585350000000005
        },
        {
          "name": "A3",
          "midi": 57,
          "time": 44.634127,
          "velocity": 0.8740157480314961,
          "duration": 0.18292675000000003
        },
        {
          "name": "D3",
          "midi": 50,
          "time": 44.634127,
          "velocity": 0.8740157480314961,
          "duration": 0.18292675000000003
        },
        {
          "name": "B3",
          "midi": 59,
          "time": 44.81705375,
          "velocity": 0.8740157480314961,
          "duration": 0.18292675000000003
        },
        {
          "name": "A3",
          "midi": 57,
          "time": 44.9999805,
          "velocity": 0.8740157480314961,
          "duration": 0.36585350000000005
        },
        {
          "name": "D3",
          "midi": 50,
          "time": 44.9999805,
          "velocity": 0.8740157480314961,
          "duration": 0.36585350000000005
        },
        {
          "name": "E3",
          "midi": 52,
          "time": 45.365834,
          "velocity": 0.8740157480314961,
          "duration": 0.18292675000000003
        },
        {
          "name": "F#3",
          "midi": 54,
          "time": 45.54876075,
          "velocity": 0.8740157480314961,
          "duration": 0.18292675000000003
        },
        {
          "name": "A3",
          "midi": 57,
          "time": 45.7316875,
          "velocity": 0.8740157480314961,
          "duration": 0.18292675000000003
        },
        {
          "name": "B3",
          "midi": 59,
          "time": 45.91461425,
          "velocity": 0.8740157480314961,
          "duration": 0.18292675000000003
        },
        {
          "name": "A3",
          "midi": 57,
          "time": 46.097541,
          "velocity": 0.8740157480314961,
          "duration": 0.36585350000000005
        },
        {
          "name": "A3",
          "midi": 57,
          "time": 46.4633945,
          "velocity": 0.8740157480314961,
          "duration": 0.36585350000000005
        },
        {
          "name": "F#3",
          "midi": 54,
          "time": 46.4633945,
          "velocity": 0.8740157480314961,
          "duration": 0.36585350000000005
        },
        {
          "name": "D3",
          "midi": 50,
          "time": 46.829248,
          "velocity": 0.7874015748031497,
          "duration": 0.18292675000000003
        },
        {
          "name": "D3",
          "midi": 50,
          "time": 47.01217475,
          "velocity": 0.7874015748031497,
          "duration": 0.18292675000000003
        },
        {
          "name": "A3",
          "midi": 57,
          "time": 47.1951015,
          "velocity": 0.8740157480314961,
          "duration": 0.36585350000000005
        },
        {
          "name": "D3",
          "midi": 50,
          "time": 47.1951015,
          "velocity": 0.8740157480314961,
          "duration": 0.36585350000000005
        },
        {
          "name": "A3",
          "midi": 57,
          "time": 47.560955,
          "velocity": 0.8740157480314961,
          "duration": 0.18292675000000003
        },
        {
          "name": "D3",
          "midi": 50,
          "time": 47.560955,
          "velocity": 0.8740157480314961,
          "duration": 0.18292675000000003
        },
        {
          "name": "B3",
          "midi": 59,
          "time": 47.74388175,
          "velocity": 0.8740157480314961,
          "duration": 0.18292675000000003
        },
        {
          "name": "A3",
          "midi": 57,
          "time": 47.9268085,
          "velocity": 0.8740157480314961,
          "duration": 0.36585350000000005
        },
        {
          "name": "D3",
          "midi": 50,
          "time": 47.9268085,
          "velocity": 0.8740157480314961,
          "duration": 0.36585350000000005
        },
        {
          "name": "E3",
          "midi": 52,
          "time": 48.292662,
          "velocity": 0.8740157480314961,
          "duration": 0.18292675000000003
        },
        {
          "name": "F#3",
          "midi": 54,
          "time": 48.47558875,
          "velocity": 0.8740157480314961,
          "duration": 0.18292675000000003
        },
        {
          "name": "A3",
          "midi": 57,
          "time": 48.6585155,
          "velocity": 0.8740157480314961,
          "duration": 0.18292675000000003
        },
        {
          "name": "B3",
          "midi": 59,
          "time": 48.84144225,
          "velocity": 0.8740157480314961,
          "duration": 0.18292675000000003
        },
        {
          "name": "A3",
          "midi": 57,
          "time": 49.024369,
          "velocity": 0.8740157480314961,
          "duration": 0.36585350000000005
        },
        {
          "name": "A3",
          "midi": 57,
          "time": 49.3902225,
          "velocity": 0.8740157480314961,
          "duration": 0.36585350000000005
        },
        {
          "name": "F#3",
          "midi": 54,
          "time": 49.3902225,
          "velocity": 0.8740157480314961,
          "duration": 0.36585350000000005
        },
        {
          "name": "F#2",
          "midi": 42,
          "time": 49.756076,
          "velocity": 0.7874015748031497,
          "duration": 0.18292675000000003
        },
        {
          "name": "F#2",
          "midi": 42,
          "time": 49.93900275,
          "velocity": 0.7874015748031497,
          "duration": 0.18292675000000003
        },
        {
          "name": "F#2",
          "midi": 42,
          "time": 50.1219295,
          "velocity": 0.7874015748031497,
          "duration": 0.18292675000000003
        },
        {
          "name": "F#2",
          "midi": 42,
          "time": 50.30485625,
          "velocity": 0.7874015748031497,
          "duration": 0.18292675000000003
        },
        {
          "name": "F#2",
          "midi": 42,
          "time": 50.487783,
          "velocity": 0.7874015748031497,
          "duration": 0.18292675000000003
        },
        {
          "name": "F#2",
          "midi": 42,
          "time": 50.67070975,
          "velocity": 0.7874015748031497,
          "duration": 0.18292675000000003
        },
        {
          "name": "G2",
          "midi": 43,
          "time": 50.8536365,
          "velocity": 0.7874015748031497,
          "duration": 0.18292675000000003
        },
        {
          "name": "G2",
          "midi": 43,
          "time": 51.03656325,
          "velocity": 0.7874015748031497,
          "duration": 0.18292675000000003
        },
        {
          "name": "G2",
          "midi": 43,
          "time": 51.21949,
          "velocity": 0.7874015748031497,
          "duration": 0.18292675000000003
        },
        {
          "name": "G2",
          "midi": 43,
          "time": 51.40241675,
          "velocity": 0.7874015748031497,
          "duration": 0.18292675000000003
        },
        {
          "name": "G2",
          "midi": 43,
          "time": 51.5853435,
          "velocity": 0.7874015748031497,
          "duration": 0.18292675000000003
        },
        {
          "name": "G2",
          "midi": 43,
          "time": 51.76827025,
          "velocity": 0.7874015748031497,
          "duration": 0.18292675000000003
        },
        {
          "name": "G2",
          "midi": 43,
          "time": 51.951197,
          "velocity": 0.7874015748031497,
          "duration": 0.18292675000000003
        },
        {
          "name": "G2",
          "midi": 43,
          "time": 52.13412375,
          "velocity": 0.7874015748031497,
          "duration": 0.18292675000000003
        },
        {
          "name": "G2",
          "midi": 43,
          "time": 52.3170505,
          "velocity": 0.7874015748031497,
          "duration": 0.18292675000000003
        },
        {
          "name": "G2",
          "midi": 43,
          "time": 52.49997725,
          "velocity": 0.7874015748031497,
          "duration": 0.18292675000000003
        },
        {
          "name": "A2",
          "midi": 45,
          "time": 52.682904,
          "velocity": 0.7874015748031497,
          "duration": 0.18292675000000003
        },
        {
          "name": "A2",
          "midi": 45,
          "time": 52.86583075,
          "velocity": 0.7874015748031497,
          "duration": 0.18292675000000003
        },
        {
          "name": "A2",
          "midi": 45,
          "time": 53.0487575,
          "velocity": 0.7874015748031497,
          "duration": 0.18292675000000003
        },
        {
          "name": "A2",
          "midi": 45,
          "time": 53.23168425,
          "velocity": 0.7874015748031497,
          "duration": 0.18292675000000003
        },
        {
          "name": "A2",
          "midi": 45,
          "time": 53.414611,
          "velocity": 0.7874015748031497,
          "duration": 0.18292675000000003
        },
        {
          "name": "A2",
          "midi": 45,
          "time": 53.59753775,
          "velocity": 0.7874015748031497,
          "duration": 0.18292675000000003
        },
        {
          "name": "B2",
          "midi": 47,
          "time": 53.7804645,
          "velocity": 0.7874015748031497,
          "duration": 0.18292675000000003
        },
        {
          "name": "B2",
          "midi": 47,
          "time": 53.96339125,
          "velocity": 0.7874015748031497,
          "duration": 0.18292675000000003
        },
        {
          "name": "B2",
          "midi": 47,
          "time": 54.146318,
          "velocity": 0.7874015748031497,
          "duration": 0.18292675000000003
        },
        {
          "name": "B2",
          "midi": 47,
          "time": 54.32924475,
          "velocity": 0.7874015748031497,
          "duration": 0.18292675000000003
        },
        {
          "name": "B2",
          "midi": 47,
          "time": 54.5121715,
          "velocity": 0.7874015748031497,
          "duration": 0.18292675000000003
        },
        {
          "name": "B2",
          "midi": 47,
          "time": 54.69509825,
          "velocity": 0.7874015748031497,
          "duration": 0.18292675000000003
        },
        {
          "name": "B2",
          "midi": 47,
          "time": 54.878025,
          "velocity": 0.7874015748031497,
          "duration": 0.18292675000000003
        },
        {
          "name": "B2",
          "midi": 47,
          "time": 55.06095175,
          "velocity": 0.7874015748031497,
          "duration": 0.18292675000000003
        },
        {
          "name": "B2",
          "midi": 47,
          "time": 55.2438785,
          "velocity": 0.7874015748031497,
          "duration": 0.18292675000000003
        },
        {
          "name": "B2",
          "midi": 47,
          "time": 55.42680525,
          "velocity": 0.7874015748031497,
          "duration": 0.18292675000000003
        },
        {
          "name": "C3",
          "midi": 48,
          "time": 55.609732,
          "velocity": 0.7874015748031497,
          "duration": 0.18292675000000003
        },
        {
          "name": "C3",
          "midi": 48,
          "time": 55.79265875,
          "velocity": 0.7874015748031497,
          "duration": 0.18292675000000003
        },
        {
          "name": "C3",
          "midi": 48,
          "time": 55.9755855,
          "velocity": 0.7874015748031497,
          "duration": 0.18292675000000003
        },
        {
          "name": "C3",
          "midi": 48,
          "time": 56.15851225,
          "velocity": 0.7874015748031497,
          "duration": 0.18292675000000003
        },
        {
          "name": "C3",
          "midi": 48,
          "time": 56.341439,
          "velocity": 0.7874015748031497,
          "duration": 0.18292675000000003
        },
        {
          "name": "C3",
          "midi": 48,
          "time": 56.52436575,
          "velocity": 0.7874015748031497,
          "duration": 0.18292675000000003
        },
        {
          "name": "B2",
          "midi": 47,
          "time": 56.7072925,
          "velocity": 0.7874015748031497,
          "duration": 0.18292675000000003
        },
        {
          "name": "B2",
          "midi": 47,
          "time": 56.89021925,
          "velocity": 0.7874015748031497,
          "duration": 0.18292675000000003
        },
        {
          "name": "B2",
          "midi": 47,
          "time": 57.073146,
          "velocity": 0.7874015748031497,
          "duration": 0.18292675000000003
        },
        {
          "name": "B2",
          "midi": 47,
          "time": 57.25607275,
          "velocity": 0.7874015748031497,
          "duration": 0.18292675000000003
        },
        {
          "name": "B2",
          "midi": 47,
          "time": 57.4389995,
          "velocity": 0.7874015748031497,
          "duration": 0.18292675000000003
        },
        {
          "name": "B2",
          "midi": 47,
          "time": 57.62192625,
          "velocity": 0.7874015748031497,
          "duration": 0.18292675000000003
        },
        {
          "name": "B2",
          "midi": 47,
          "time": 57.804853,
          "velocity": 0.7874015748031497,
          "duration": 0.18292675000000003
        },
        {
          "name": "B2",
          "midi": 47,
          "time": 57.98777975,
          "velocity": 0.7874015748031497,
          "duration": 0.18292675000000003
        },
        {
          "name": "B2",
          "midi": 47,
          "time": 58.1707065,
          "velocity": 0.7874015748031497,
          "duration": 0.18292675000000003
        },
        {
          "name": "B2",
          "midi": 47,
          "time": 58.35363325,
          "velocity": 0.7874015748031497,
          "duration": 0.18292675000000003
        },
        {
          "name": "G2",
          "midi": 43,
          "time": 58.53656,
          "velocity": 0.7874015748031497,
          "duration": 0.18292675000000003
        },
        {
          "name": "G2",
          "midi": 43,
          "time": 58.71948675,
          "velocity": 0.7874015748031497,
          "duration": 0.18292675000000003
        },
        {
          "name": "G2",
          "midi": 43,
          "time": 58.9024135,
          "velocity": 0.7874015748031497,
          "duration": 0.18292675000000003
        },
        {
          "name": "G2",
          "midi": 43,
          "time": 59.08534025,
          "velocity": 0.7874015748031497,
          "duration": 0.18292675000000003
        },
        {
          "name": "G2",
          "midi": 43,
          "time": 59.268267,
          "velocity": 0.7874015748031497,
          "duration": 0.18292675000000003
        },
        {
          "name": "G2",
          "midi": 43,
          "time": 59.45119375,
          "velocity": 0.7874015748031497,
          "duration": 0.18292675000000003
        },
        {
          "name": "G2",
          "midi": 43,
          "time": 59.6341205,
          "velocity": 0.7874015748031497,
          "duration": 0.18292675000000003
        },
        {
          "name": "G2",
          "midi": 43,
          "time": 59.81704725,
          "velocity": 0.7874015748031497,
          "duration": 0.18292675000000003
        },
        {
          "name": "D3",
          "midi": 50,
          "time": 59.999974,
          "velocity": 0.8740157480314961,
          "duration": 0.18292675000000003
        },
        {
          "name": "G2",
          "midi": 43,
          "time": 59.999974,
          "velocity": 0.8740157480314961,
          "duration": 0.18292675000000003
        },
        {
          "name": "D3",
          "midi": 50,
          "time": 60.18290075,
          "velocity": 0.8740157480314961,
          "duration": 0.18292675000000003
        },
        {
          "name": "G2",
          "midi": 43,
          "time": 60.18290075,
          "velocity": 0.8740157480314961,
          "duration": 0.18292675000000003
        },
        {
          "name": "D3",
          "midi": 50,
          "time": 60.3658275,
          "velocity": 0.8740157480314961,
          "duration": 0.18292675000000003
        },
        {
          "name": "G2",
          "midi": 43,
          "time": 60.3658275,
          "velocity": 0.8740157480314961,
          "duration": 0.18292675000000003
        },
        {
          "name": "D3",
          "midi": 50,
          "time": 60.54875425,
          "velocity": 0.8740157480314961,
          "duration": 0.18292675000000003
        },
        {
          "name": "G2",
          "midi": 43,
          "time": 60.54875425,
          "velocity": 0.8740157480314961,
          "duration": 0.18292675000000003
        },
        {
          "name": "A2",
          "midi": 45,
          "time": 60.731681,
          "velocity": 0.8740157480314961,
          "duration": 0.030487791666665487
        },
        {
          "name": "D2",
          "midi": 38,
          "time": 60.731681,
          "velocity": 0.8740157480314961,
          "duration": 0.030487791666665487
        },
        {
          "name": "A2",
          "midi": 45,
          "time": 60.91460775,
          "velocity": 0.8740157480314961,
          "duration": 0.030487791666665487
        },
        {
          "name": "D2",
          "midi": 38,
          "time": 60.91460775,
          "velocity": 0.8740157480314961,
          "duration": 0.030487791666665487
        },
        {
          "name": "A2",
          "midi": 45,
          "time": 61.0975345,
          "velocity": 0.8740157480314961,
          "duration": 0.030487791666665487
        },
        {
          "name": "D2",
          "midi": 38,
          "time": 61.0975345,
          "velocity": 0.8740157480314961,
          "duration": 0.030487791666665487
        },
        {
          "name": "A2",
          "midi": 45,
          "time": 61.28046125,
          "velocity": 0.8740157480314961,
          "duration": 0.030487791666665487
        },
        {
          "name": "D2",
          "midi": 38,
          "time": 61.28046125,
          "velocity": 0.8740157480314961,
          "duration": 0.030487791666665487
        },
        {
          "name": "D3",
          "midi": 50,
          "time": 61.463388,
          "velocity": 0.8740157480314961,
          "duration": 0.18292675000000003
        },
        {
          "name": "A2",
          "midi": 45,
          "time": 61.463388,
          "velocity": 0.8740157480314961,
          "duration": 0.18292675000000003
        },
        {
          "name": "D2",
          "midi": 38,
          "time": 61.463388,
          "velocity": 0.8740157480314961,
          "duration": 0.18292675000000003
        },
        {
          "name": "D3",
          "midi": 50,
          "time": 61.64631475,
          "velocity": 0.8740157480314961,
          "duration": 0.18292675000000003
        },
        {
          "name": "A2",
          "midi": 45,
          "time": 61.64631475,
          "velocity": 0.8740157480314961,
          "duration": 0.18292675000000003
        },
        {
          "name": "D2",
          "midi": 38,
          "time": 61.64631475,
          "velocity": 0.8740157480314961,
          "duration": 0.18292675000000003
        },
        {
          "name": "D3",
          "midi": 50,
          "time": 61.8292415,
          "velocity": 0.8740157480314961,
          "duration": 0.18292675000000003
        },
        {
          "name": "A2",
          "midi": 45,
          "time": 61.8292415,
          "velocity": 0.8740157480314961,
          "duration": 0.18292675000000003
        },
        {
          "name": "D2",
          "midi": 38,
          "time": 61.8292415,
          "velocity": 0.8740157480314961,
          "duration": 0.18292675000000003
        },
        {
          "name": "D3",
          "midi": 50,
          "time": 62.01216825,
          "velocity": 0.8740157480314961,
          "duration": 0.18292675000000003
        },
        {
          "name": "A2",
          "midi": 45,
          "time": 62.01216825,
          "velocity": 0.8740157480314961,
          "duration": 0.18292675000000003
        },
        {
          "name": "D2",
          "midi": 38,
          "time": 62.01216825,
          "velocity": 0.8740157480314961,
          "duration": 0.18292675000000003
        },
        {
          "name": "D3",
          "midi": 50,
          "time": 62.195095,
          "velocity": 0.8740157480314961,
          "duration": 0.18292675000000003
        },
        {
          "name": "A2",
          "midi": 45,
          "time": 62.195095,
          "velocity": 0.8740157480314961,
          "duration": 0.18292675000000003
        },
        {
          "name": "D2",
          "midi": 38,
          "time": 62.195095,
          "velocity": 0.8740157480314961,
          "duration": 0.18292675000000003
        },
        {
          "name": "D3",
          "midi": 50,
          "time": 62.37802175,
          "velocity": 0.8740157480314961,
          "duration": 0.18292675000000003
        },
        {
          "name": "A2",
          "midi": 45,
          "time": 62.37802175,
          "velocity": 0.8740157480314961,
          "duration": 0.18292675000000003
        },
        {
          "name": "D2",
          "midi": 38,
          "time": 62.37802175,
          "velocity": 0.8740157480314961,
          "duration": 0.18292675000000003
        },
        {
          "name": "D3",
          "midi": 50,
          "time": 62.5609485,
          "velocity": 0.8740157480314961,
          "duration": 0.18292675000000003
        },
        {
          "name": "A2",
          "midi": 45,
          "time": 62.5609485,
          "velocity": 0.8740157480314961,
          "duration": 0.18292675000000003
        },
        {
          "name": "D2",
          "midi": 38,
          "time": 62.5609485,
          "velocity": 0.8740157480314961,
          "duration": 0.18292675000000003
        },
        {
          "name": "D3",
          "midi": 50,
          "time": 62.74387525,
          "velocity": 0.8740157480314961,
          "duration": 0.18292675000000003
        },
        {
          "name": "A2",
          "midi": 45,
          "time": 62.74387525,
          "velocity": 0.8740157480314961,
          "duration": 0.18292675000000003
        },
        {
          "name": "D2",
          "midi": 38,
          "time": 62.74387525,
          "velocity": 0.8740157480314961,
          "duration": 0.18292675000000003
        },
        {
          "name": "D3",
          "midi": 50,
          "time": 62.926802,
          "velocity": 0.8740157480314961,
          "duration": 0.18292675000000003
        },
        {
          "name": "A2",
          "midi": 45,
          "time": 62.926802,
          "velocity": 0.8740157480314961,
          "duration": 0.18292675000000003
        },
        {
          "name": "D2",
          "midi": 38,
          "time": 62.926802,
          "velocity": 0.8740157480314961,
          "duration": 0.18292675000000003
        },
        {
          "name": "D3",
          "midi": 50,
          "time": 63.10972875,
          "velocity": 0.8740157480314961,
          "duration": 0.18292675000000003
        },
        {
          "name": "A2",
          "midi": 45,
          "time": 63.10972875,
          "velocity": 0.8740157480314961,
          "duration": 0.18292675000000003
        },
        {
          "name": "D2",
          "midi": 38,
          "time": 63.10972875,
          "velocity": 0.8740157480314961,
          "duration": 0.18292675000000003
        },
        {
          "name": "D3",
          "midi": 50,
          "time": 63.2926555,
          "velocity": 0.8740157480314961,
          "duration": 0.18292675000000003
        },
        {
          "name": "A2",
          "midi": 45,
          "time": 63.2926555,
          "velocity": 0.8740157480314961,
          "duration": 0.18292675000000003
        },
        {
          "name": "D2",
          "midi": 38,
          "time": 63.2926555,
          "velocity": 0.8740157480314961,
          "duration": 0.18292675000000003
        },
        {
          "name": "D3",
          "midi": 50,
          "time": 63.47558225,
          "velocity": 0.8740157480314961,
          "duration": 0.18292675000000003
        },
        {
          "name": "A2",
          "midi": 45,
          "time": 63.47558225,
          "velocity": 0.8740157480314961,
          "duration": 0.18292675000000003
        },
        {
          "name": "D2",
          "midi": 38,
          "time": 63.47558225,
          "velocity": 0.8740157480314961,
          "duration": 0.18292675000000003
        },
        {
          "name": "D3",
          "midi": 50,
          "time": 63.658509,
          "velocity": 0.8740157480314961,
          "duration": 0.18292675000000003
        },
        {
          "name": "A2",
          "midi": 45,
          "time": 63.658509,
          "velocity": 0.8740157480314961,
          "duration": 0.18292675000000003
        },
        {
          "name": "D2",
          "midi": 38,
          "time": 63.658509,
          "velocity": 0.8740157480314961,
          "duration": 0.18292675000000003
        },
        {
          "name": "D3",
          "midi": 50,
          "time": 63.84143575,
          "velocity": 0.8740157480314961,
          "duration": 0.18292674999999292
        },
        {
          "name": "A2",
          "midi": 45,
          "time": 63.84143575,
          "velocity": 0.8740157480314961,
          "duration": 0.18292674999999292
        },
        {
          "name": "D2",
          "midi": 38,
          "time": 63.84143575,
          "velocity": 0.8740157480314961,
          "duration": 0.18292674999999292
        },
        {
          "name": "D3",
          "midi": 50,
          "time": 64.0243625,
          "velocity": 0.8740157480314961,
          "duration": 0.18292674999999292
        },
        {
          "name": "A2",
          "midi": 45,
          "time": 64.0243625,
          "velocity": 0.8740157480314961,
          "duration": 0.18292674999999292
        },
        {
          "name": "D2",
          "midi": 38,
          "time": 64.0243625,
          "velocity": 0.8740157480314961,
          "duration": 0.18292674999999292
        },
        {
          "name": "D3",
          "midi": 50,
          "time": 64.20728924999999,
          "velocity": 0.8740157480314961,
          "duration": 0.18292674999999292
        },
        {
          "name": "A2",
          "midi": 45,
          "time": 64.20728924999999,
          "velocity": 0.8740157480314961,
          "duration": 0.18292674999999292
        },
        {
          "name": "D2",
          "midi": 38,
          "time": 64.20728924999999,
          "velocity": 0.8740157480314961,
          "duration": 0.18292674999999292
        },
        {
          "name": "G3",
          "midi": 55,
          "time": 64.39021599999998,
          "velocity": 0.8740157480314961,
          "duration": 0.18292674999999292
        },
        {
          "name": "D3",
          "midi": 50,
          "time": 64.39021599999998,
          "velocity": 0.8740157480314961,
          "duration": 0.18292674999999292
        },
        {
          "name": "G2",
          "midi": 43,
          "time": 64.39021599999998,
          "velocity": 0.8740157480314961,
          "duration": 0.18292674999999292
        },
        {
          "name": "G3",
          "midi": 55,
          "time": 64.57314274999997,
          "velocity": 0.8740157480314961,
          "duration": 0.18292674999999292
        },
        {
          "name": "D3",
          "midi": 50,
          "time": 64.57314274999997,
          "velocity": 0.8740157480314961,
          "duration": 0.18292674999999292
        },
        {
          "name": "G2",
          "midi": 43,
          "time": 64.57314274999997,
          "velocity": 0.8740157480314961,
          "duration": 0.18292674999999292
        },
        {
          "name": "G3",
          "midi": 55,
          "time": 64.75606949999997,
          "velocity": 0.8740157480314961,
          "duration": 0.18292674999999292
        },
        {
          "name": "D3",
          "midi": 50,
          "time": 64.75606949999997,
          "velocity": 0.8740157480314961,
          "duration": 0.18292674999999292
        },
        {
          "name": "G2",
          "midi": 43,
          "time": 64.75606949999997,
          "velocity": 0.8740157480314961,
          "duration": 0.18292674999999292
        },
        {
          "name": "G3",
          "midi": 55,
          "time": 64.93899624999996,
          "velocity": 0.8740157480314961,
          "duration": 0.18292674999999292
        },
        {
          "name": "D3",
          "midi": 50,
          "time": 64.93899624999996,
          "velocity": 0.8740157480314961,
          "duration": 0.18292674999999292
        },
        {
          "name": "G2",
          "midi": 43,
          "time": 64.93899624999996,
          "velocity": 0.8740157480314961,
          "duration": 0.18292674999999292
        },
        {
          "name": "G3",
          "midi": 55,
          "time": 65.12192299999995,
          "velocity": 0.8740157480314961,
          "duration": 0.18292674999999292
        },
        {
          "name": "D3",
          "midi": 50,
          "time": 65.12192299999995,
          "velocity": 0.8740157480314961,
          "duration": 0.18292674999999292
        },
        {
          "name": "G2",
          "midi": 43,
          "time": 65.12192299999995,
          "velocity": 0.8740157480314961,
          "duration": 0.18292674999999292
        },
        {
          "name": "G3",
          "midi": 55,
          "time": 65.30484974999995,
          "velocity": 0.8740157480314961,
          "duration": 0.18292674999999292
        },
        {
          "name": "D3",
          "midi": 50,
          "time": 65.30484974999995,
          "velocity": 0.8740157480314961,
          "duration": 0.18292674999999292
        },
        {
          "name": "G2",
          "midi": 43,
          "time": 65.30484974999995,
          "velocity": 0.8740157480314961,
          "duration": 0.18292674999999292
        },
        {
          "name": "G3",
          "midi": 55,
          "time": 65.48777649999994,
          "velocity": 0.8740157480314961,
          "duration": 0.18292674999999292
        },
        {
          "name": "D3",
          "midi": 50,
          "time": 65.48777649999994,
          "velocity": 0.8740157480314961,
          "duration": 0.18292674999999292
        },
        {
          "name": "G2",
          "midi": 43,
          "time": 65.48777649999994,
          "velocity": 0.8740157480314961,
          "duration": 0.18292674999999292
        },
        {
          "name": "G3",
          "midi": 55,
          "time": 65.67070324999993,
          "velocity": 0.8740157480314961,
          "duration": 0.18292674999999292
        },
        {
          "name": "D3",
          "midi": 50,
          "time": 65.67070324999993,
          "velocity": 0.8740157480314961,
          "duration": 0.18292674999999292
        },
        {
          "name": "G2",
          "midi": 43,
          "time": 65.67070324999993,
          "velocity": 0.8740157480314961,
          "duration": 0.18292674999999292
        },
        {
          "name": "G3",
          "midi": 55,
          "time": 65.85362999999992,
          "velocity": 0.8740157480314961,
          "duration": 0.18292674999999292
        },
        {
          "name": "D3",
          "midi": 50,
          "time": 65.85362999999992,
          "velocity": 0.8740157480314961,
          "duration": 0.18292674999999292
        },
        {
          "name": "G2",
          "midi": 43,
          "time": 65.85362999999992,
          "velocity": 0.8740157480314961,
          "duration": 0.18292674999999292
        },
        {
          "name": "G3",
          "midi": 55,
          "time": 66.03655674999992,
          "velocity": 0.8740157480314961,
          "duration": 0.18292674999999292
        },
        {
          "name": "D3",
          "midi": 50,
          "time": 66.03655674999992,
          "velocity": 0.8740157480314961,
          "duration": 0.18292674999999292
        },
        {
          "name": "G2",
          "midi": 43,
          "time": 66.03655674999992,
          "velocity": 0.8740157480314961,
          "duration": 0.18292674999999292
        },
        {
          "name": "G3",
          "midi": 55,
          "time": 66.21948349999991,
          "velocity": 0.8740157480314961,
          "duration": 0.18292674999999292
        },
        {
          "name": "D3",
          "midi": 50,
          "time": 66.21948349999991,
          "velocity": 0.8740157480314961,
          "duration": 0.18292674999999292
        },
        {
          "name": "G2",
          "midi": 43,
          "time": 66.21948349999991,
          "velocity": 0.8740157480314961,
          "duration": 0.18292674999999292
        },
        {
          "name": "G3",
          "midi": 55,
          "time": 66.4024102499999,
          "velocity": 0.8740157480314961,
          "duration": 0.18292674999999292
        },
        {
          "name": "D3",
          "midi": 50,
          "time": 66.4024102499999,
          "velocity": 0.8740157480314961,
          "duration": 0.18292674999999292
        },
        {
          "name": "G2",
          "midi": 43,
          "time": 66.4024102499999,
          "velocity": 0.8740157480314961,
          "duration": 0.18292674999999292
        },
        {
          "name": "G3",
          "midi": 55,
          "time": 66.5853369999999,
          "velocity": 0.8740157480314961,
          "duration": 0.18292674999999292
        },
        {
          "name": "D3",
          "midi": 50,
          "time": 66.5853369999999,
          "velocity": 0.8740157480314961,
          "duration": 0.18292674999999292
        },
        {
          "name": "G2",
          "midi": 43,
          "time": 66.5853369999999,
          "velocity": 0.8740157480314961,
          "duration": 0.18292674999999292
        },
        {
          "name": "G3",
          "midi": 55,
          "time": 66.76826374999989,
          "velocity": 0.8740157480314961,
          "duration": 0.18292674999999292
        },
        {
          "name": "D3",
          "midi": 50,
          "time": 66.76826374999989,
          "velocity": 0.8740157480314961,
          "duration": 0.18292674999999292
        },
        {
          "name": "G2",
          "midi": 43,
          "time": 66.76826374999989,
          "velocity": 0.8740157480314961,
          "duration": 0.18292674999999292
        },
        {
          "name": "G3",
          "midi": 55,
          "time": 66.95119049999988,
          "velocity": 0.8740157480314961,
          "duration": 0.18292674999999292
        },
        {
          "name": "D3",
          "midi": 50,
          "time": 66.95119049999988,
          "velocity": 0.8740157480314961,
          "duration": 0.18292674999999292
        },
        {
          "name": "G2",
          "midi": 43,
          "time": 66.95119049999988,
          "velocity": 0.8740157480314961,
          "duration": 0.18292674999999292
        },
        {
          "name": "D3",
          "midi": 50,
          "time": 67.13411724999987,
          "velocity": 0.8740157480314961,
          "duration": 0.18292674999999292
        },
        {
          "name": "A2",
          "midi": 45,
          "time": 67.13411724999987,
          "velocity": 0.8740157480314961,
          "duration": 0.18292674999999292
        },
        {
          "name": "D2",
          "midi": 38,
          "time": 67.13411724999987,
          "velocity": 0.8740157480314961,
          "duration": 0.18292674999999292
        },
        {
          "name": "B3",
          "midi": 59,
          "time": 67.31704399999987,
          "velocity": 0.8740157480314961,
          "duration": 0.18292674999999292
        },
        {
          "name": "F#3",
          "midi": 54,
          "time": 67.31704399999987,
          "velocity": 0.8740157480314961,
          "duration": 0.18292674999999292
        },
        {
          "name": "B2",
          "midi": 47,
          "time": 67.31704399999987,
          "velocity": 0.8740157480314961,
          "duration": 0.18292674999999292
        },
        {
          "name": "B3",
          "midi": 59,
          "time": 67.49997074999986,
          "velocity": 0.8740157480314961,
          "duration": 0.18292674999999292
        },
        {
          "name": "F#3",
          "midi": 54,
          "time": 67.49997074999986,
          "velocity": 0.8740157480314961,
          "duration": 0.18292674999999292
        },
        {
          "name": "B2",
          "midi": 47,
          "time": 67.49997074999986,
          "velocity": 0.8740157480314961,
          "duration": 0.18292674999999292
        },
        {
          "name": "B3",
          "midi": 59,
          "time": 67.68289749999985,
          "velocity": 0.8740157480314961,
          "duration": 0.18292674999999292
        },
        {
          "name": "F#3",
          "midi": 54,
          "time": 67.68289749999985,
          "velocity": 0.8740157480314961,
          "duration": 0.18292674999999292
        },
        {
          "name": "B2",
          "midi": 47,
          "time": 67.68289749999985,
          "velocity": 0.8740157480314961,
          "duration": 0.18292674999999292
        },
        {
          "name": "B3",
          "midi": 59,
          "time": 67.86582424999985,
          "velocity": 0.8740157480314961,
          "duration": 0.18292674999999292
        },
        {
          "name": "F#3",
          "midi": 54,
          "time": 67.86582424999985,
          "velocity": 0.8740157480314961,
          "duration": 0.18292674999999292
        },
        {
          "name": "B2",
          "midi": 47,
          "time": 67.86582424999985,
          "velocity": 0.8740157480314961,
          "duration": 0.18292674999999292
        },
        {
          "name": "B3",
          "midi": 59,
          "time": 68.04875099999984,
          "velocity": 0.8740157480314961,
          "duration": 0.18292674999999292
        },
        {
          "name": "F#3",
          "midi": 54,
          "time": 68.04875099999984,
          "velocity": 0.8740157480314961,
          "duration": 0.18292674999999292
        },
        {
          "name": "B2",
          "midi": 47,
          "time": 68.04875099999984,
          "velocity": 0.8740157480314961,
          "duration": 0.18292674999999292
        },
        {
          "name": "B3",
          "midi": 59,
          "time": 68.23167774999983,
          "velocity": 0.8740157480314961,
          "duration": 0.18292674999999292
        },
        {
          "name": "F#3",
          "midi": 54,
          "time": 68.23167774999983,
          "velocity": 0.8740157480314961,
          "duration": 0.18292674999999292
        },
        {
          "name": "B2",
          "midi": 47,
          "time": 68.23167774999983,
          "velocity": 0.8740157480314961,
          "duration": 0.18292674999999292
        },
        {
          "name": "B3",
          "midi": 59,
          "time": 68.41460449999983,
          "velocity": 0.8740157480314961,
          "duration": 0.18292674999999292
        },
        {
          "name": "F#3",
          "midi": 54,
          "time": 68.41460449999983,
          "velocity": 0.8740157480314961,
          "duration": 0.18292674999999292
        },
        {
          "name": "B2",
          "midi": 47,
          "time": 68.41460449999983,
          "velocity": 0.8740157480314961,
          "duration": 0.18292674999999292
        },
        {
          "name": "B3",
          "midi": 59,
          "time": 68.59753124999982,
          "velocity": 0.8740157480314961,
          "duration": 0.18292674999999292
        },
        {
          "name": "F#3",
          "midi": 54,
          "time": 68.59753124999982,
          "velocity": 0.8740157480314961,
          "duration": 0.18292674999999292
        },
        {
          "name": "B2",
          "midi": 47,
          "time": 68.59753124999982,
          "velocity": 0.8740157480314961,
          "duration": 0.18292674999999292
        },
        {
          "name": "B3",
          "midi": 59,
          "time": 68.78045799999981,
          "velocity": 0.8740157480314961,
          "duration": 0.18292674999999292
        },
        {
          "name": "F#3",
          "midi": 54,
          "time": 68.78045799999981,
          "velocity": 0.8740157480314961,
          "duration": 0.18292674999999292
        },
        {
          "name": "B2",
          "midi": 47,
          "time": 68.78045799999981,
          "velocity": 0.8740157480314961,
          "duration": 0.18292674999999292
        },
        {
          "name": "B3",
          "midi": 59,
          "time": 68.9633847499998,
          "velocity": 0.8740157480314961,
          "duration": 0.18292674999999292
        },
        {
          "name": "F#3",
          "midi": 54,
          "time": 68.9633847499998,
          "velocity": 0.8740157480314961,
          "duration": 0.18292674999999292
        },
        {
          "name": "B2",
          "midi": 47,
          "time": 68.9633847499998,
          "velocity": 0.8740157480314961,
          "duration": 0.18292674999999292
        },
        {
          "name": "B3",
          "midi": 59,
          "time": 69.1463114999998,
          "velocity": 0.8740157480314961,
          "duration": 0.18292674999999292
        },
        {
          "name": "F#3",
          "midi": 54,
          "time": 69.1463114999998,
          "velocity": 0.8740157480314961,
          "duration": 0.18292674999999292
        },
        {
          "name": "B2",
          "midi": 47,
          "time": 69.1463114999998,
          "velocity": 0.8740157480314961,
          "duration": 0.18292674999999292
        },
        {
          "name": "B3",
          "midi": 59,
          "time": 69.32923824999979,
          "velocity": 0.8740157480314961,
          "duration": 0.18292674999999292
        },
        {
          "name": "F#3",
          "midi": 54,
          "time": 69.32923824999979,
          "velocity": 0.8740157480314961,
          "duration": 0.18292674999999292
        },
        {
          "name": "B2",
          "midi": 47,
          "time": 69.32923824999979,
          "velocity": 0.8740157480314961,
          "duration": 0.18292674999999292
        },
        {
          "name": "B3",
          "midi": 59,
          "time": 69.51216499999978,
          "velocity": 0.8740157480314961,
          "duration": 0.18292674999999292
        },
        {
          "name": "F#3",
          "midi": 54,
          "time": 69.51216499999978,
          "velocity": 0.8740157480314961,
          "duration": 0.18292674999999292
        },
        {
          "name": "B2",
          "midi": 47,
          "time": 69.51216499999978,
          "velocity": 0.8740157480314961,
          "duration": 0.18292674999999292
        },
        {
          "name": "B3",
          "midi": 59,
          "time": 69.69509174999978,
          "velocity": 0.8740157480314961,
          "duration": 0.18292674999999292
        },
        {
          "name": "F#3",
          "midi": 54,
          "time": 69.69509174999978,
          "velocity": 0.8740157480314961,
          "duration": 0.18292674999999292
        },
        {
          "name": "B2",
          "midi": 47,
          "time": 69.69509174999978,
          "velocity": 0.8740157480314961,
          "duration": 0.18292674999999292
        },
        {
          "name": "B3",
          "midi": 59,
          "time": 69.87801849999977,
          "velocity": 0.8740157480314961,
          "duration": 0.18292674999999292
        },
        {
          "name": "F#3",
          "midi": 54,
          "time": 69.87801849999977,
          "velocity": 0.8740157480314961,
          "duration": 0.18292674999999292
        },
        {
          "name": "B2",
          "midi": 47,
          "time": 69.87801849999977,
          "velocity": 0.8740157480314961,
          "duration": 0.18292674999999292
        },
        {
          "name": "D3",
          "midi": 50,
          "time": 70.06094524999976,
          "velocity": 0.8740157480314961,
          "duration": 0.18292674999999292
        },
        {
          "name": "A2",
          "midi": 45,
          "time": 70.06094524999976,
          "velocity": 0.8740157480314961,
          "duration": 0.18292674999999292
        },
        {
          "name": "D2",
          "midi": 38,
          "time": 70.06094524999976,
          "velocity": 0.8740157480314961,
          "duration": 0.18292674999999292
        },
        {
          "name": "A3",
          "midi": 57,
          "time": 70.24387199999975,
          "velocity": 0.8740157480314961,
          "duration": 0.18292674999999292
        },
        {
          "name": "D3",
          "midi": 50,
          "time": 70.24387199999975,
          "velocity": 0.8740157480314961,
          "duration": 0.18292674999999292
        },
        {
          "name": "G2",
          "midi": 43,
          "time": 70.24387199999975,
          "velocity": 0.8740157480314961,
          "duration": 0.18292674999999292
        },
        {
          "name": "A3",
          "midi": 57,
          "time": 70.42679874999975,
          "velocity": 0.8740157480314961,
          "duration": 0.18292674999999292
        },
        {
          "name": "D3",
          "midi": 50,
          "time": 70.42679874999975,
          "velocity": 0.8740157480314961,
          "duration": 0.18292674999999292
        },
        {
          "name": "G2",
          "midi": 43,
          "time": 70.42679874999975,
          "velocity": 0.8740157480314961,
          "duration": 0.18292674999999292
        },
        {
          "name": "A3",
          "midi": 57,
          "time": 70.60972549999974,
          "velocity": 0.8740157480314961,
          "duration": 0.18292674999999292
        },
        {
          "name": "D3",
          "midi": 50,
          "time": 70.60972549999974,
          "velocity": 0.8740157480314961,
          "duration": 0.18292674999999292
        },
        {
          "name": "G2",
          "midi": 43,
          "time": 70.60972549999974,
          "velocity": 0.8740157480314961,
          "duration": 0.18292674999999292
        },
        {
          "name": "A3",
          "midi": 57,
          "time": 70.79265224999973,
          "velocity": 0.8740157480314961,
          "duration": 0.18292674999999292
        },
        {
          "name": "D3",
          "midi": 50,
          "time": 70.79265224999973,
          "velocity": 0.8740157480314961,
          "duration": 0.18292674999999292
        },
        {
          "name": "G2",
          "midi": 43,
          "time": 70.79265224999973,
          "velocity": 0.8740157480314961,
          "duration": 0.18292674999999292
        },
        {
          "name": "A3",
          "midi": 57,
          "time": 70.97557899999973,
          "velocity": 0.8740157480314961,
          "duration": 0.18292674999999292
        },
        {
          "name": "D3",
          "midi": 50,
          "time": 70.97557899999973,
          "velocity": 0.8740157480314961,
          "duration": 0.18292674999999292
        },
        {
          "name": "G2",
          "midi": 43,
          "time": 70.97557899999973,
          "velocity": 0.8740157480314961,
          "duration": 0.18292674999999292
        },
        {
          "name": "A3",
          "midi": 57,
          "time": 71.15850574999972,
          "velocity": 0.8740157480314961,
          "duration": 0.18292674999999292
        },
        {
          "name": "D3",
          "midi": 50,
          "time": 71.15850574999972,
          "velocity": 0.8740157480314961,
          "duration": 0.18292674999999292
        },
        {
          "name": "G2",
          "midi": 43,
          "time": 71.15850574999972,
          "velocity": 0.8740157480314961,
          "duration": 0.18292674999999292
        },
        {
          "name": "A3",
          "midi": 57,
          "time": 71.34143249999971,
          "velocity": 0.8740157480314961,
          "duration": 0.18292674999999292
        },
        {
          "name": "D3",
          "midi": 50,
          "time": 71.34143249999971,
          "velocity": 0.8740157480314961,
          "duration": 0.18292674999999292
        },
        {
          "name": "G2",
          "midi": 43,
          "time": 71.34143249999971,
          "velocity": 0.8740157480314961,
          "duration": 0.18292674999999292
        },
        {
          "name": "A3",
          "midi": 57,
          "time": 71.5243592499997,
          "velocity": 0.8740157480314961,
          "duration": 0.18292674999999292
        },
        {
          "name": "D3",
          "midi": 50,
          "time": 71.5243592499997,
          "velocity": 0.8740157480314961,
          "duration": 0.18292674999999292
        },
        {
          "name": "G2",
          "midi": 43,
          "time": 71.5243592499997,
          "velocity": 0.8740157480314961,
          "duration": 0.18292674999999292
        },
        {
          "name": "A3",
          "midi": 57,
          "time": 71.7072859999997,
          "velocity": 0.8740157480314961,
          "duration": 0.18292674999999292
        },
        {
          "name": "D3",
          "midi": 50,
          "time": 71.7072859999997,
          "velocity": 0.8740157480314961,
          "duration": 0.18292674999999292
        },
        {
          "name": "G2",
          "midi": 43,
          "time": 71.7072859999997,
          "velocity": 0.8740157480314961,
          "duration": 0.18292674999999292
        },
        {
          "name": "A3",
          "midi": 57,
          "time": 71.89021274999969,
          "velocity": 0.8740157480314961,
          "duration": 0.18292674999999292
        },
        {
          "name": "D3",
          "midi": 50,
          "time": 71.89021274999969,
          "velocity": 0.8740157480314961,
          "duration": 0.18292674999999292
        },
        {
          "name": "G2",
          "midi": 43,
          "time": 71.89021274999969,
          "velocity": 0.8740157480314961,
          "duration": 0.18292674999999292
        },
        {
          "name": "A3",
          "midi": 57,
          "time": 72.07313949999968,
          "velocity": 0.8740157480314961,
          "duration": 0.18292674999999292
        },
        {
          "name": "D3",
          "midi": 50,
          "time": 72.07313949999968,
          "velocity": 0.8740157480314961,
          "duration": 0.18292674999999292
        },
        {
          "name": "G2",
          "midi": 43,
          "time": 72.07313949999968,
          "velocity": 0.8740157480314961,
          "duration": 0.18292674999999292
        },
        {
          "name": "A3",
          "midi": 57,
          "time": 72.25606624999968,
          "velocity": 0.8740157480314961,
          "duration": 0.18292674999999292
        },
        {
          "name": "D3",
          "midi": 50,
          "time": 72.25606624999968,
          "velocity": 0.8740157480314961,
          "duration": 0.18292674999999292
        },
        {
          "name": "G2",
          "midi": 43,
          "time": 72.25606624999968,
          "velocity": 0.8740157480314961,
          "duration": 0.18292674999999292
        },
        {
          "name": "A2",
          "midi": 45,
          "time": 72.43899299999967,
          "velocity": 0.8740157480314961,
          "duration": 0.030487791666672592
        },
        {
          "name": "D2",
          "midi": 38,
          "time": 72.43899299999967,
          "velocity": 0.8740157480314961,
          "duration": 0.030487791666672592
        },
        {
          "name": "A2",
          "midi": 45,
          "time": 72.62191974999968,
          "velocity": 0.8740157480314961,
          "duration": 0.030487791666672592
        },
        {
          "name": "D2",
          "midi": 38,
          "time": 72.62191974999968,
          "velocity": 0.8740157480314961,
          "duration": 0.030487791666672592
        },
        {
          "name": "A2",
          "midi": 45,
          "time": 72.80484649999968,
          "velocity": 0.8740157480314961,
          "duration": 0.030487791666672592
        },
        {
          "name": "D2",
          "midi": 38,
          "time": 72.80484649999968,
          "velocity": 0.8740157480314961,
          "duration": 0.030487791666672592
        },
        {
          "name": "D3",
          "midi": 50,
          "time": 72.98777324999969,
          "velocity": 0.8740157480314961,
          "duration": 0.030487791666672592
        },
        {
          "name": "A2",
          "midi": 45,
          "time": 72.98777324999969,
          "velocity": 0.8740157480314961,
          "duration": 0.030487791666672592
        },
        {
          "name": "D2",
          "midi": 38,
          "time": 72.98777324999969,
          "velocity": 0.8740157480314961,
          "duration": 0.030487791666672592
        },
        {
          "name": "D3",
          "midi": 50,
          "time": 73.1706999999997,
          "velocity": 0.8740157480314961,
          "duration": 0.18292674999999292
        },
        {
          "name": "A2",
          "midi": 45,
          "time": 73.1706999999997,
          "velocity": 0.8740157480314961,
          "duration": 0.18292674999999292
        },
        {
          "name": "D2",
          "midi": 38,
          "time": 73.1706999999997,
          "velocity": 0.8740157480314961,
          "duration": 0.18292674999999292
        },
        {
          "name": "D3",
          "midi": 50,
          "time": 73.35362674999969,
          "velocity": 0.8740157480314961,
          "duration": 0.18292674999999292
        },
        {
          "name": "A2",
          "midi": 45,
          "time": 73.35362674999969,
          "velocity": 0.8740157480314961,
          "duration": 0.18292674999999292
        },
        {
          "name": "D2",
          "midi": 38,
          "time": 73.35362674999969,
          "velocity": 0.8740157480314961,
          "duration": 0.18292674999999292
        },
        {
          "name": "D3",
          "midi": 50,
          "time": 73.53655349999968,
          "velocity": 0.8740157480314961,
          "duration": 0.18292674999999292
        },
        {
          "name": "A2",
          "midi": 45,
          "time": 73.53655349999968,
          "velocity": 0.8740157480314961,
          "duration": 0.18292674999999292
        },
        {
          "name": "D2",
          "midi": 38,
          "time": 73.53655349999968,
          "velocity": 0.8740157480314961,
          "duration": 0.18292674999999292
        },
        {
          "name": "D3",
          "midi": 50,
          "time": 73.71948024999968,
          "velocity": 0.8740157480314961,
          "duration": 0.18292674999999292
        },
        {
          "name": "A2",
          "midi": 45,
          "time": 73.71948024999968,
          "velocity": 0.8740157480314961,
          "duration": 0.18292674999999292
        },
        {
          "name": "D2",
          "midi": 38,
          "time": 73.71948024999968,
          "velocity": 0.8740157480314961,
          "duration": 0.18292674999999292
        },
        {
          "name": "D4",
          "midi": 62,
          "time": 73.90240699999967,
          "velocity": 0.8740157480314961,
          "duration": 0.18292674999999292
        },
        {
          "name": "D3",
          "midi": 50,
          "time": 73.90240699999967,
          "velocity": 0.8740157480314961,
          "duration": 0.18292674999999292
        },
        {
          "name": "D4",
          "midi": 62,
          "time": 74.08533374999966,
          "velocity": 0.8740157480314961,
          "duration": 0.18292674999999292
        },
        {
          "name": "D3",
          "midi": 50,
          "time": 74.08533374999966,
          "velocity": 0.8740157480314961,
          "duration": 0.18292674999999292
        },
        {
          "name": "D4",
          "midi": 62,
          "time": 74.26826049999966,
          "velocity": 0.8740157480314961,
          "duration": 0.18292674999999292
        },
        {
          "name": "D3",
          "midi": 50,
          "time": 74.26826049999966,
          "velocity": 0.8740157480314961,
          "duration": 0.18292674999999292
        },
        {
          "name": "D4",
          "midi": 62,
          "time": 74.45118724999965,
          "velocity": 0.8740157480314961,
          "duration": 0.18292674999999292
        },
        {
          "name": "D3",
          "midi": 50,
          "time": 74.45118724999965,
          "velocity": 0.8740157480314961,
          "duration": 0.18292674999999292
        },
        {
          "name": "D3",
          "midi": 50,
          "time": 74.63411399999964,
          "velocity": 0.8740157480314961,
          "duration": 0.18292674999999292
        },
        {
          "name": "A2",
          "midi": 45,
          "time": 74.63411399999964,
          "velocity": 0.8740157480314961,
          "duration": 0.18292674999999292
        },
        {
          "name": "D2",
          "midi": 38,
          "time": 74.63411399999964,
          "velocity": 0.8740157480314961,
          "duration": 0.18292674999999292
        },
        {
          "name": "D3",
          "midi": 50,
          "time": 74.81704074999963,
          "velocity": 0.8740157480314961,
          "duration": 0.18292674999999292
        },
        {
          "name": "A2",
          "midi": 45,
          "time": 74.81704074999963,
          "velocity": 0.8740157480314961,
          "duration": 0.18292674999999292
        },
        {
          "name": "D2",
          "midi": 38,
          "time": 74.81704074999963,
          "velocity": 0.8740157480314961,
          "duration": 0.18292674999999292
        },
        {
          "name": "D3",
          "midi": 50,
          "time": 74.99996749999963,
          "velocity": 0.8740157480314961,
          "duration": 0.18292674999999292
        },
        {
          "name": "A2",
          "midi": 45,
          "time": 74.99996749999963,
          "velocity": 0.8740157480314961,
          "duration": 0.18292674999999292
        },
        {
          "name": "D2",
          "midi": 38,
          "time": 74.99996749999963,
          "velocity": 0.8740157480314961,
          "duration": 0.18292674999999292
        },
        {
          "name": "D3",
          "midi": 50,
          "time": 75.18289424999962,
          "velocity": 0.8740157480314961,
          "duration": 0.18292674999999292
        },
        {
          "name": "A2",
          "midi": 45,
          "time": 75.18289424999962,
          "velocity": 0.8740157480314961,
          "duration": 0.18292674999999292
        },
        {
          "name": "D2",
          "midi": 38,
          "time": 75.18289424999962,
          "velocity": 0.8740157480314961,
          "duration": 0.18292674999999292
        },
        {
          "name": "D4",
          "midi": 62,
          "time": 75.36582099999961,
          "velocity": 0.8740157480314961,
          "duration": 0.18292674999999292
        },
        {
          "name": "D3",
          "midi": 50,
          "time": 75.36582099999961,
          "velocity": 0.8740157480314961,
          "duration": 0.18292674999999292
        },
        {
          "name": "D4",
          "midi": 62,
          "time": 75.5487477499996,
          "velocity": 0.8740157480314961,
          "duration": 0.18292674999999292
        },
        {
          "name": "D3",
          "midi": 50,
          "time": 75.5487477499996,
          "velocity": 0.8740157480314961,
          "duration": 0.18292674999999292
        },
        {
          "name": "D4",
          "midi": 62,
          "time": 75.7316744999996,
          "velocity": 0.8740157480314961,
          "duration": 0.18292674999999292
        },
        {
          "name": "D3",
          "midi": 50,
          "time": 75.7316744999996,
          "velocity": 0.8740157480314961,
          "duration": 0.18292674999999292
        },
        {
          "name": "G3",
          "midi": 55,
          "time": 75.91460124999959,
          "velocity": 0.8740157480314961,
          "duration": 0.18292674999999292
        },
        {
          "name": "D3",
          "midi": 50,
          "time": 75.91460124999959,
          "velocity": 0.8740157480314961,
          "duration": 0.18292674999999292
        },
        {
          "name": "A2",
          "midi": 45,
          "time": 75.91460124999959,
          "velocity": 0.8740157480314961,
          "duration": 0.18292674999999292
        },
        {
          "name": "A3",
          "midi": 57,
          "time": 76.09752799999958,
          "velocity": 0.8740157480314961,
          "duration": 0.18292674999999292
        },
        {
          "name": "D3",
          "midi": 50,
          "time": 76.09752799999958,
          "velocity": 0.8740157480314961,
          "duration": 0.18292674999999292
        },
        {
          "name": "G2",
          "midi": 43,
          "time": 76.09752799999958,
          "velocity": 0.8740157480314961,
          "duration": 0.18292674999999292
        },
        {
          "name": "A3",
          "midi": 57,
          "time": 76.28045474999958,
          "velocity": 0.8740157480314961,
          "duration": 0.18292674999999292
        },
        {
          "name": "D3",
          "midi": 50,
          "time": 76.28045474999958,
          "velocity": 0.8740157480314961,
          "duration": 0.18292674999999292
        },
        {
          "name": "G2",
          "midi": 43,
          "time": 76.28045474999958,
          "velocity": 0.8740157480314961,
          "duration": 0.18292674999999292
        },
        {
          "name": "A3",
          "midi": 57,
          "time": 76.46338149999957,
          "velocity": 0.8740157480314961,
          "duration": 0.18292674999999292
        },
        {
          "name": "D3",
          "midi": 50,
          "time": 76.46338149999957,
          "velocity": 0.8740157480314961,
          "duration": 0.18292674999999292
        },
        {
          "name": "G2",
          "midi": 43,
          "time": 76.46338149999957,
          "velocity": 0.8740157480314961,
          "duration": 0.18292674999999292
        },
        {
          "name": "A3",
          "midi": 57,
          "time": 76.64630824999956,
          "velocity": 0.8740157480314961,
          "duration": 0.18292674999999292
        },
        {
          "name": "D3",
          "midi": 50,
          "time": 76.64630824999956,
          "velocity": 0.8740157480314961,
          "duration": 0.18292674999999292
        },
        {
          "name": "G2",
          "midi": 43,
          "time": 76.64630824999956,
          "velocity": 0.8740157480314961,
          "duration": 0.18292674999999292
        },
        {
          "name": "D4",
          "midi": 62,
          "time": 76.82923499999956,
          "velocity": 0.8740157480314961,
          "duration": 0.18292674999999292
        },
        {
          "name": "D3",
          "midi": 50,
          "time": 76.82923499999956,
          "velocity": 0.8740157480314961,
          "duration": 0.18292674999999292
        },
        {
          "name": "D4",
          "midi": 62,
          "time": 77.01216174999955,
          "velocity": 0.8740157480314961,
          "duration": 0.18292674999999292
        },
        {
          "name": "D3",
          "midi": 50,
          "time": 77.01216174999955,
          "velocity": 0.8740157480314961,
          "duration": 0.18292674999999292
        },
        {
          "name": "D4",
          "midi": 62,
          "time": 77.19508849999954,
          "velocity": 0.8740157480314961,
          "duration": 0.18292674999999292
        },
        {
          "name": "D3",
          "midi": 50,
          "time": 77.19508849999954,
          "velocity": 0.8740157480314961,
          "duration": 0.18292674999999292
        },
        {
          "name": "D4",
          "midi": 62,
          "time": 77.37801524999954,
          "velocity": 0.8740157480314961,
          "duration": 0.18292674999999292
        },
        {
          "name": "D3",
          "midi": 50,
          "time": 77.37801524999954,
          "velocity": 0.8740157480314961,
          "duration": 0.18292674999999292
        },
        {
          "name": "A3",
          "midi": 57,
          "time": 77.56094199999953,
          "velocity": 0.8740157480314961,
          "duration": 0.18292674999999292
        },
        {
          "name": "D3",
          "midi": 50,
          "time": 77.56094199999953,
          "velocity": 0.8740157480314961,
          "duration": 0.18292674999999292
        },
        {
          "name": "G2",
          "midi": 43,
          "time": 77.56094199999953,
          "velocity": 0.8740157480314961,
          "duration": 0.18292674999999292
        },
        {
          "name": "A3",
          "midi": 57,
          "time": 77.74386874999952,
          "velocity": 0.8740157480314961,
          "duration": 0.18292674999999292
        },
        {
          "name": "D3",
          "midi": 50,
          "time": 77.74386874999952,
          "velocity": 0.8740157480314961,
          "duration": 0.18292674999999292
        },
        {
          "name": "G2",
          "midi": 43,
          "time": 77.74386874999952,
          "velocity": 0.8740157480314961,
          "duration": 0.18292674999999292
        },
        {
          "name": "A3",
          "midi": 57,
          "time": 77.92679549999951,
          "velocity": 0.8740157480314961,
          "duration": 0.18292674999999292
        },
        {
          "name": "D3",
          "midi": 50,
          "time": 77.92679549999951,
          "velocity": 0.8740157480314961,
          "duration": 0.18292674999999292
        },
        {
          "name": "G2",
          "midi": 43,
          "time": 77.92679549999951,
          "velocity": 0.8740157480314961,
          "duration": 0.18292674999999292
        },
        {
          "name": "A3",
          "midi": 57,
          "time": 78.1097222499995,
          "velocity": 0.8740157480314961,
          "duration": 0.18292674999999292
        },
        {
          "name": "D3",
          "midi": 50,
          "time": 78.1097222499995,
          "velocity": 0.8740157480314961,
          "duration": 0.18292674999999292
        },
        {
          "name": "G2",
          "midi": 43,
          "time": 78.1097222499995,
          "velocity": 0.8740157480314961,
          "duration": 0.18292674999999292
        },
        {
          "name": "D4",
          "midi": 62,
          "time": 78.2926489999995,
          "velocity": 0.8740157480314961,
          "duration": 0.18292674999999292
        },
        {
          "name": "D3",
          "midi": 50,
          "time": 78.2926489999995,
          "velocity": 0.8740157480314961,
          "duration": 0.18292674999999292
        },
        {
          "name": "D4",
          "midi": 62,
          "time": 78.47557574999949,
          "velocity": 0.8740157480314961,
          "duration": 0.18292674999999292
        },
        {
          "name": "D3",
          "midi": 50,
          "time": 78.47557574999949,
          "velocity": 0.8740157480314961,
          "duration": 0.18292674999999292
        },
        {
          "name": "D4",
          "midi": 62,
          "time": 78.65850249999949,
          "velocity": 0.8740157480314961,
          "duration": 0.18292674999999292
        },
        {
          "name": "D3",
          "midi": 50,
          "time": 78.65850249999949,
          "velocity": 0.8740157480314961,
          "duration": 0.18292674999999292
        },
        {
          "name": "D4",
          "midi": 62,
          "time": 78.84142924999948,
          "velocity": 0.8740157480314961,
          "duration": 0.18292674999999292
        },
        {
          "name": "D3",
          "midi": 50,
          "time": 78.84142924999948,
          "velocity": 0.8740157480314961,
          "duration": 0.18292674999999292
        },
        {
          "name": "B3",
          "midi": 59,
          "time": 79.02435599999947,
          "velocity": 0.8740157480314961,
          "duration": 0.18292674999999292
        },
        {
          "name": "F#3",
          "midi": 54,
          "time": 79.02435599999947,
          "velocity": 0.8740157480314961,
          "duration": 0.18292674999999292
        },
        {
          "name": "B2",
          "midi": 47,
          "time": 79.02435599999947,
          "velocity": 0.8740157480314961,
          "duration": 0.18292674999999292
        },
        {
          "name": "B3",
          "midi": 59,
          "time": 79.20728274999946,
          "velocity": 0.8740157480314961,
          "duration": 0.18292674999999292
        },
        {
          "name": "F#3",
          "midi": 54,
          "time": 79.20728274999946,
          "velocity": 0.8740157480314961,
          "duration": 0.18292674999999292
        },
        {
          "name": "B2",
          "midi": 47,
          "time": 79.20728274999946,
          "velocity": 0.8740157480314961,
          "duration": 0.18292674999999292
        },
        {
          "name": "B3",
          "midi": 59,
          "time": 79.39020949999946,
          "velocity": 0.8740157480314961,
          "duration": 0.18292674999999292
        },
        {
          "name": "F#3",
          "midi": 54,
          "time": 79.39020949999946,
          "velocity": 0.8740157480314961,
          "duration": 0.18292674999999292
        },
        {
          "name": "B2",
          "midi": 47,
          "time": 79.39020949999946,
          "velocity": 0.8740157480314961,
          "duration": 0.18292674999999292
        },
        {
          "name": "B3",
          "midi": 59,
          "time": 79.57313624999945,
          "velocity": 0.8740157480314961,
          "duration": 0.18292674999999292
        },
        {
          "name": "F#3",
          "midi": 54,
          "time": 79.57313624999945,
          "velocity": 0.8740157480314961,
          "duration": 0.18292674999999292
        },
        {
          "name": "B2",
          "midi": 47,
          "time": 79.57313624999945,
          "velocity": 0.8740157480314961,
          "duration": 0.18292674999999292
        },
        {
          "name": "F#4",
          "midi": 66,
          "time": 79.75606299999944,
          "velocity": 0.8740157480314961,
          "duration": 0.18292675000000713
        },
        {
          "name": "D3",
          "midi": 50,
          "time": 79.75606299999944,
          "velocity": 0.8740157480314961,
          "duration": 0.030487791666672592
        },
        {
          "name": "F#3",
          "midi": 54,
          "time": 79.75606299999944,
          "velocity": 0.8740157480314961,
          "duration": 0.18292675000000713
        },
        {
          "name": "F#4",
          "midi": 66,
          "time": 79.93898974999945,
          "velocity": 0.8740157480314961,
          "duration": 0.18292675000000713
        },
        {
          "name": "D3",
          "midi": 50,
          "time": 79.93898974999945,
          "velocity": 0.8740157480314961,
          "duration": 0.030487791666672592
        },
        {
          "name": "F#3",
          "midi": 54,
          "time": 79.93898974999945,
          "velocity": 0.8740157480314961,
          "duration": 0.18292675000000713
        },
        {
          "name": "F#4",
          "midi": 66,
          "time": 80.12191649999946,
          "velocity": 0.8740157480314961,
          "duration": 0.18292675000000713
        },
        {
          "name": "D3",
          "midi": 50,
          "time": 80.12191649999946,
          "velocity": 0.8740157480314961,
          "duration": 0.030487791666672592
        },
        {
          "name": "F#3",
          "midi": 54,
          "time": 80.12191649999946,
          "velocity": 0.8740157480314961,
          "duration": 0.18292675000000713
        },
        {
          "name": "A2",
          "midi": 45,
          "time": 80.30484324999946,
          "velocity": 0.8740157480314961,
          "duration": 0.18292674999999292
        },
        {
          "name": "D2",
          "midi": 38,
          "time": 80.30484324999946,
          "velocity": 0.8740157480314961,
          "duration": 0.18292674999999292
        },
        {
          "name": "B3",
          "midi": 59,
          "time": 80.48776999999946,
          "velocity": 0.8740157480314961,
          "duration": 0.18292674999999292
        },
        {
          "name": "F#3",
          "midi": 54,
          "time": 80.48776999999946,
          "velocity": 0.8740157480314961,
          "duration": 0.18292674999999292
        },
        {
          "name": "B2",
          "midi": 47,
          "time": 80.48776999999946,
          "velocity": 0.8740157480314961,
          "duration": 0.18292674999999292
        },
        {
          "name": "B3",
          "midi": 59,
          "time": 80.67069674999945,
          "velocity": 0.8740157480314961,
          "duration": 0.18292674999999292
        },
        {
          "name": "F#3",
          "midi": 54,
          "time": 80.67069674999945,
          "velocity": 0.8740157480314961,
          "duration": 0.18292674999999292
        },
        {
          "name": "B2",
          "midi": 47,
          "time": 80.67069674999945,
          "velocity": 0.8740157480314961,
          "duration": 0.18292674999999292
        },
        {
          "name": "B3",
          "midi": 59,
          "time": 80.85362349999944,
          "velocity": 0.8740157480314961,
          "duration": 0.18292674999999292
        },
        {
          "name": "F#3",
          "midi": 54,
          "time": 80.85362349999944,
          "velocity": 0.8740157480314961,
          "duration": 0.18292674999999292
        },
        {
          "name": "B2",
          "midi": 47,
          "time": 80.85362349999944,
          "velocity": 0.8740157480314961,
          "duration": 0.18292674999999292
        },
        {
          "name": "B3",
          "midi": 59,
          "time": 81.03655024999944,
          "velocity": 0.8740157480314961,
          "duration": 0.18292674999999292
        },
        {
          "name": "F#3",
          "midi": 54,
          "time": 81.03655024999944,
          "velocity": 0.8740157480314961,
          "duration": 0.18292674999999292
        },
        {
          "name": "B2",
          "midi": 47,
          "time": 81.03655024999944,
          "velocity": 0.8740157480314961,
          "duration": 0.18292674999999292
        },
        {
          "name": "F#4",
          "midi": 66,
          "time": 81.21947699999943,
          "velocity": 0.8740157480314961,
          "duration": 0.18292675000000713
        },
        {
          "name": "D3",
          "midi": 50,
          "time": 81.21947699999943,
          "velocity": 0.8740157480314961,
          "duration": 0.030487791666672592
        },
        {
          "name": "F#3",
          "midi": 54,
          "time": 81.21947699999943,
          "velocity": 0.8740157480314961,
          "duration": 0.18292675000000713
        },
        {
          "name": "F#4",
          "midi": 66,
          "time": 81.40240374999944,
          "velocity": 0.8740157480314961,
          "duration": 0.18292675000000713
        },
        {
          "name": "D3",
          "midi": 50,
          "time": 81.40240374999944,
          "velocity": 0.8740157480314961,
          "duration": 0.030487791666672592
        },
        {
          "name": "F#3",
          "midi": 54,
          "time": 81.40240374999944,
          "velocity": 0.8740157480314961,
          "duration": 0.18292675000000713
        },
        {
          "name": "F#4",
          "midi": 66,
          "time": 81.58533049999944,
          "velocity": 0.8740157480314961,
          "duration": 0.18292675000000713
        },
        {
          "name": "D3",
          "midi": 50,
          "time": 81.58533049999944,
          "velocity": 0.8740157480314961,
          "duration": 0.030487791666672592
        },
        {
          "name": "F#3",
          "midi": 54,
          "time": 81.58533049999944,
          "velocity": 0.8740157480314961,
          "duration": 0.18292675000000713
        },
        {
          "name": "D3",
          "midi": 50,
          "time": 81.76825724999945,
          "velocity": 0.8740157480314961,
          "duration": 0.18292674999999292
        },
        {
          "name": "A2",
          "midi": 45,
          "time": 81.76825724999945,
          "velocity": 0.8740157480314961,
          "duration": 0.18292674999999292
        },
        {
          "name": "A3",
          "midi": 57,
          "time": 81.95118399999944,
          "velocity": 0.8740157480314961,
          "duration": 0.18292674999999292
        },
        {
          "name": "D3",
          "midi": 50,
          "time": 81.95118399999944,
          "velocity": 0.8740157480314961,
          "duration": 0.18292674999999292
        },
        {
          "name": "G2",
          "midi": 43,
          "time": 81.95118399999944,
          "velocity": 0.8740157480314961,
          "duration": 0.18292674999999292
        },
        {
          "name": "A3",
          "midi": 57,
          "time": 82.13411074999944,
          "velocity": 0.8740157480314961,
          "duration": 0.18292674999999292
        },
        {
          "name": "D3",
          "midi": 50,
          "time": 82.13411074999944,
          "velocity": 0.8740157480314961,
          "duration": 0.18292674999999292
        },
        {
          "name": "G2",
          "midi": 43,
          "time": 82.13411074999944,
          "velocity": 0.8740157480314961,
          "duration": 0.18292674999999292
        },
        {
          "name": "A3",
          "midi": 57,
          "time": 82.31703749999943,
          "velocity": 0.8740157480314961,
          "duration": 0.18292674999999292
        },
        {
          "name": "D3",
          "midi": 50,
          "time": 82.31703749999943,
          "velocity": 0.8740157480314961,
          "duration": 0.18292674999999292
        },
        {
          "name": "G2",
          "midi": 43,
          "time": 82.31703749999943,
          "velocity": 0.8740157480314961,
          "duration": 0.18292674999999292
        },
        {
          "name": "A3",
          "midi": 57,
          "time": 82.49996424999942,
          "velocity": 0.8740157480314961,
          "duration": 0.18292674999999292
        },
        {
          "name": "D3",
          "midi": 50,
          "time": 82.49996424999942,
          "velocity": 0.8740157480314961,
          "duration": 0.18292674999999292
        },
        {
          "name": "G2",
          "midi": 43,
          "time": 82.49996424999942,
          "velocity": 0.8740157480314961,
          "duration": 0.18292674999999292
        },
        {
          "name": "D4",
          "midi": 62,
          "time": 82.68289099999942,
          "velocity": 0.8740157480314961,
          "duration": 0.18292674999999292
        },
        {
          "name": "D3",
          "midi": 50,
          "time": 82.68289099999942,
          "velocity": 0.8740157480314961,
          "duration": 0.18292674999999292
        },
        {
          "name": "D4",
          "midi": 62,
          "time": 82.86581774999941,
          "velocity": 0.8740157480314961,
          "duration": 0.18292674999999292
        },
        {
          "name": "D3",
          "midi": 50,
          "time": 82.86581774999941,
          "velocity": 0.8740157480314961,
          "duration": 0.18292674999999292
        },
        {
          "name": "D4",
          "midi": 62,
          "time": 83.0487444999994,
          "velocity": 0.8740157480314961,
          "duration": 0.18292674999999292
        },
        {
          "name": "D3",
          "midi": 50,
          "time": 83.0487444999994,
          "velocity": 0.8740157480314961,
          "duration": 0.18292674999999292
        },
        {
          "name": "D4",
          "midi": 62,
          "time": 83.2316712499994,
          "velocity": 0.8740157480314961,
          "duration": 0.18292674999999292
        },
        {
          "name": "D3",
          "midi": 50,
          "time": 83.2316712499994,
          "velocity": 0.8740157480314961,
          "duration": 0.18292674999999292
        },
        {
          "name": "D4",
          "midi": 62,
          "time": 83.41459799999939,
          "velocity": 0.8740157480314961,
          "duration": 0.18292674999999292
        },
        {
          "name": "A3",
          "midi": 57,
          "time": 83.41459799999939,
          "velocity": 0.8740157480314961,
          "duration": 0.18292674999999292
        },
        {
          "name": "D3",
          "midi": 50,
          "time": 83.41459799999939,
          "velocity": 0.8740157480314961,
          "duration": 0.18292674999999292
        },
        {
          "name": "G2",
          "midi": 43,
          "time": 83.41459799999939,
          "velocity": 0.8740157480314961,
          "duration": 0.18292674999999292
        },
        {
          "name": "D4",
          "midi": 62,
          "time": 83.59752474999938,
          "velocity": 0.8740157480314961,
          "duration": 0.18292674999999292
        },
        {
          "name": "A3",
          "midi": 57,
          "time": 83.59752474999938,
          "velocity": 0.8740157480314961,
          "duration": 0.18292674999999292
        },
        {
          "name": "D3",
          "midi": 50,
          "time": 83.59752474999938,
          "velocity": 0.8740157480314961,
          "duration": 0.18292674999999292
        },
        {
          "name": "G2",
          "midi": 43,
          "time": 83.59752474999938,
          "velocity": 0.8740157480314961,
          "duration": 0.18292674999999292
        },
        {
          "name": "D4",
          "midi": 62,
          "time": 83.78045149999937,
          "velocity": 0.8740157480314961,
          "duration": 0.18292674999999292
        },
        {
          "name": "A3",
          "midi": 57,
          "time": 83.78045149999937,
          "velocity": 0.8740157480314961,
          "duration": 0.18292674999999292
        },
        {
          "name": "D3",
          "midi": 50,
          "time": 83.78045149999937,
          "velocity": 0.8740157480314961,
          "duration": 0.18292674999999292
        },
        {
          "name": "G2",
          "midi": 43,
          "time": 83.78045149999937,
          "velocity": 0.8740157480314961,
          "duration": 0.18292674999999292
        },
        {
          "name": "D4",
          "midi": 62,
          "time": 83.96337824999937,
          "velocity": 0.8740157480314961,
          "duration": 0.18292674999999292
        },
        {
          "name": "A3",
          "midi": 57,
          "time": 83.96337824999937,
          "velocity": 0.8740157480314961,
          "duration": 0.18292674999999292
        },
        {
          "name": "D3",
          "midi": 50,
          "time": 83.96337824999937,
          "velocity": 0.8740157480314961,
          "duration": 0.18292674999999292
        },
        {
          "name": "G2",
          "midi": 43,
          "time": 83.96337824999937,
          "velocity": 0.8740157480314961,
          "duration": 0.18292674999999292
        },
        {
          "name": "D4",
          "midi": 62,
          "time": 84.14630499999936,
          "velocity": 0.8740157480314961,
          "duration": 0.18292674999999292
        },
        {
          "name": "A3",
          "midi": 57,
          "time": 84.14630499999936,
          "velocity": 0.8740157480314961,
          "duration": 0.18292674999999292
        },
        {
          "name": "D3",
          "midi": 50,
          "time": 84.14630499999936,
          "velocity": 0.8740157480314961,
          "duration": 0.18292674999999292
        },
        {
          "name": "G2",
          "midi": 43,
          "time": 84.14630499999936,
          "velocity": 0.8740157480314961,
          "duration": 0.18292674999999292
        },
        {
          "name": "D4",
          "midi": 62,
          "time": 84.32923174999935,
          "velocity": 0.8740157480314961,
          "duration": 0.18292674999999292
        },
        {
          "name": "A3",
          "midi": 57,
          "time": 84.32923174999935,
          "velocity": 0.8740157480314961,
          "duration": 0.18292674999999292
        },
        {
          "name": "D3",
          "midi": 50,
          "time": 84.32923174999935,
          "velocity": 0.8740157480314961,
          "duration": 0.18292674999999292
        },
        {
          "name": "G2",
          "midi": 43,
          "time": 84.32923174999935,
          "velocity": 0.8740157480314961,
          "duration": 0.18292674999999292
        },
        {
          "name": "D4",
          "midi": 62,
          "time": 84.51215849999934,
          "velocity": 0.8740157480314961,
          "duration": 0.36585350000000005
        },
        {
          "name": "A3",
          "midi": 57,
          "time": 84.51215849999934,
          "velocity": 0.8740157480314961,
          "duration": 0.36585350000000005
        },
        {
          "name": "D3",
          "midi": 50,
          "time": 84.51215849999934,
          "velocity": 0.8740157480314961,
          "duration": 0.36585350000000005
        },
        {
          "name": "G2",
          "midi": 43,
          "time": 84.51215849999934,
          "velocity": 0.8740157480314961,
          "duration": 0.36585350000000005
        },
        {
          "name": "F#2",
          "midi": 42,
          "time": 84.87801199999934,
          "velocity": 0.7874015748031497,
          "duration": 0.18292674999999292
        },
        {
          "name": "F#2",
          "midi": 42,
          "time": 85.06093874999934,
          "velocity": 0.7874015748031497,
          "duration": 0.18292674999999292
        },
        {
          "name": "F#2",
          "midi": 42,
          "time": 85.24386549999933,
          "velocity": 0.7874015748031497,
          "duration": 0.18292674999999292
        },
        {
          "name": "F#2",
          "midi": 42,
          "time": 85.42679224999932,
          "velocity": 0.7874015748031497,
          "duration": 0.18292674999999292
        },
        {
          "name": "C#3",
          "midi": 49,
          "time": 85.60971899999932,
          "velocity": 0.8740157480314961,
          "duration": 0.18292674999999292
        },
        {
          "name": "F#2",
          "midi": 42,
          "time": 85.60971899999932,
          "velocity": 0.8740157480314961,
          "duration": 0.18292674999999292
        },
        {
          "name": "F#2",
          "midi": 42,
          "time": 85.79264574999931,
          "velocity": 0.7874015748031497,
          "duration": 0.18292674999999292
        },
        {
          "name": "F#2",
          "midi": 42,
          "time": 85.9755724999993,
          "velocity": 0.7874015748031497,
          "duration": 0.18292674999999292
        },
        {
          "name": "F#2",
          "midi": 42,
          "time": 86.1584992499993,
          "velocity": 0.7874015748031497,
          "duration": 0.09146337500000357
        },
        {
          "name": "F#2",
          "midi": 42,
          "time": 86.2499626249993,
          "velocity": 0.7874015748031497,
          "duration": 0.09146337500000357
        },
        {
          "name": "G2",
          "midi": 43,
          "time": 86.3414259999993,
          "velocity": 0.7874015748031497,
          "duration": 0.18292674999999292
        },
        {
          "name": "G2",
          "midi": 43,
          "time": 86.5243527499993,
          "velocity": 0.7874015748031497,
          "duration": 0.18292674999999292
        },
        {
          "name": "G2",
          "midi": 43,
          "time": 86.70727949999929,
          "velocity": 0.7874015748031497,
          "duration": 0.18292674999999292
        },
        {
          "name": "G2",
          "midi": 43,
          "time": 86.89020624999928,
          "velocity": 0.7874015748031497,
          "duration": 0.18292674999999292
        },
        {
          "name": "D3",
          "midi": 50,
          "time": 87.07313299999927,
          "velocity": 0.8740157480314961,
          "duration": 0.18292674999999292
        },
        {
          "name": "G2",
          "midi": 43,
          "time": 87.07313299999927,
          "velocity": 0.8740157480314961,
          "duration": 0.18292674999999292
        },
        {
          "name": "G2",
          "midi": 43,
          "time": 87.25605974999927,
          "velocity": 0.7874015748031497,
          "duration": 0.18292674999999292
        },
        {
          "name": "G2",
          "midi": 43,
          "time": 87.43898649999926,
          "velocity": 0.8740157480314961,
          "duration": 0.36585350000000005
        },
        {
          "name": "A2",
          "midi": 45,
          "time": 87.80483999999926,
          "velocity": 0.7874015748031497,
          "duration": 0.18292674999999292
        },
        {
          "name": "A2",
          "midi": 45,
          "time": 87.98776674999925,
          "velocity": 0.7874015748031497,
          "duration": 0.18292674999999292
        },
        {
          "name": "A2",
          "midi": 45,
          "time": 88.17069349999925,
          "velocity": 0.7874015748031497,
          "duration": 0.18292674999999292
        },
        {
          "name": "A2",
          "midi": 45,
          "time": 88.35362024999924,
          "velocity": 0.8740157480314961,
          "duration": 0.18292674999999292
        },
        {
          "name": "E3",
          "midi": 52,
          "time": 88.53654699999923,
          "velocity": 0.8740157480314961,
          "duration": 0.18292674999999292
        },
        {
          "name": "A2",
          "midi": 45,
          "time": 88.53654699999923,
          "velocity": 0.8740157480314961,
          "duration": 0.18292674999999292
        },
        {
          "name": "A2",
          "midi": 45,
          "time": 88.90240049999922,
          "velocity": 0.7874015748031497,
          "duration": 0.18292674999999292
        },
        {
          "name": "A2",
          "midi": 45,
          "time": 89.08532724999921,
          "velocity": 0.7874015748031497,
          "duration": 0.09146337500000357
        },
        {
          "name": "A2",
          "midi": 45,
          "time": 89.17679062499921,
          "velocity": 0.7874015748031497,
          "duration": 0.09146337500000357
        },
        {
          "name": "B2",
          "midi": 47,
          "time": 89.26825399999922,
          "velocity": 0.7874015748031497,
          "duration": 0.18292674999999292
        },
        {
          "name": "B2",
          "midi": 47,
          "time": 89.45118074999921,
          "velocity": 0.7874015748031497,
          "duration": 0.09146337500000357
        },
        {
          "name": "B2",
          "midi": 47,
          "time": 89.54264412499921,
          "velocity": 0.7874015748031497,
          "duration": 0.09146337500000357
        },
        {
          "name": "B2",
          "midi": 47,
          "time": 89.63410749999922,
          "velocity": 0.7874015748031497,
          "duration": 0.18292674999999292
        },
        {
          "name": "B2",
          "midi": 47,
          "time": 89.81703424999921,
          "velocity": 0.7874015748031497,
          "duration": 0.18292674999999292
        },
        {
          "name": "F#3",
          "midi": 54,
          "time": 89.9999609999992,
          "velocity": 0.8740157480314961,
          "duration": 0.18292674999999292
        },
        {
          "name": "B2",
          "midi": 47,
          "time": 89.9999609999992,
          "velocity": 0.8740157480314961,
          "duration": 0.18292674999999292
        },
        {
          "name": "B2",
          "midi": 47,
          "time": 90.1828877499992,
          "velocity": 0.7874015748031497,
          "duration": 0.18292674999999292
        },
        {
          "name": "B2",
          "midi": 47,
          "time": 90.36581449999919,
          "velocity": 0.8740157480314961,
          "duration": 0.36585350000000005
        },
        {
          "name": "C3",
          "midi": 48,
          "time": 90.73166799999919,
          "velocity": 0.8740157480314961,
          "duration": 0.18292674999999292
        },
        {
          "name": "C3",
          "midi": 48,
          "time": 90.91459474999918,
          "velocity": 0.8740157480314961,
          "duration": 0.18292674999999292
        },
        {
          "name": "C3",
          "midi": 48,
          "time": 91.09752149999917,
          "velocity": 0.8740157480314961,
          "duration": 0.18292674999999292
        },
        {
          "name": "C3",
          "midi": 48,
          "time": 91.28044824999917,
          "velocity": 0.8740157480314961,
          "duration": 0.18292674999999292
        },
        {
          "name": "G3",
          "midi": 55,
          "time": 91.46337499999916,
          "velocity": 0.8740157480314961,
          "duration": 0.18292674999999292
        },
        {
          "name": "C3",
          "midi": 48,
          "time": 91.46337499999916,
          "velocity": 0.8740157480314961,
          "duration": 0.18292674999999292
        },
        {
          "name": "C3",
          "midi": 48,
          "time": 91.64630174999915,
          "velocity": 0.8740157480314961,
          "duration": 0.18292674999999292
        },
        {
          "name": "C3",
          "midi": 48,
          "time": 91.82922849999915,
          "velocity": 0.8740157480314961,
          "duration": 0.18292674999999292
        },
        {
          "name": "C3",
          "midi": 48,
          "time": 92.01215524999914,
          "velocity": 0.8740157480314961,
          "duration": 0.09146337500000357
        },
        {
          "name": "C3",
          "midi": 48,
          "time": 92.10361862499914,
          "velocity": 0.8740157480314961,
          "duration": 0.09146337500000357
        },
        {
          "name": "B2",
          "midi": 47,
          "time": 92.19508199999915,
          "velocity": 0.8740157480314961,
          "duration": 0.18292674999999292
        },
        {
          "name": "B2",
          "midi": 47,
          "time": 92.37800874999914,
          "velocity": 0.8740157480314961,
          "duration": 0.18292674999999292
        },
        {
          "name": "B2",
          "midi": 47,
          "time": 92.56093549999913,
          "velocity": 0.8740157480314961,
          "duration": 0.18292674999999292
        },
        {
          "name": "B2",
          "midi": 47,
          "time": 92.74386224999913,
          "velocity": 0.8740157480314961,
          "duration": 0.18292674999999292
        },
        {
          "name": "F#3",
          "midi": 54,
          "time": 92.92678899999912,
          "velocity": 0.8740157480314961,
          "duration": 0.18292674999999292
        },
        {
          "name": "B2",
          "midi": 47,
          "time": 92.92678899999912,
          "velocity": 0.8740157480314961,
          "duration": 0.18292674999999292
        },
        {
          "name": "B2",
          "midi": 47,
          "time": 93.10971574999911,
          "velocity": 0.8740157480314961,
          "duration": 0.18292674999999292
        },
        {
          "name": "B2",
          "midi": 47,
          "time": 93.2926424999991,
          "velocity": 0.8740157480314961,
          "duration": 0.18292674999999292
        },
        {
          "name": "A2",
          "midi": 45,
          "time": 93.4755692499991,
          "velocity": 0.8740157480314961,
          "duration": 0.18292674999999292
        },
        {
          "name": "D2",
          "midi": 38,
          "time": 93.4755692499991,
          "velocity": 0.8740157480314961,
          "duration": 0.18292674999999292
        },
        {
          "name": "A3",
          "midi": 57,
          "time": 93.65849599999909,
          "velocity": 0.8740157480314961,
          "duration": 1.0975605000000002
        },
        {
          "name": "D3",
          "midi": 50,
          "time": 93.65849599999909,
          "velocity": 0.8740157480314961,
          "duration": 1.0975605000000002
        },
        {
          "name": "G2",
          "midi": 43,
          "time": 93.65849599999909,
          "velocity": 0.8740157480314961,
          "duration": 1.0975605000000002
        },
        {
          "name": "D4",
          "midi": 62,
          "time": 94.75605649999909,
          "velocity": 0.8740157480314961,
          "duration": 0.548780249999993
        },
        {
          "name": "A3",
          "midi": 57,
          "time": 94.75605649999909,
          "velocity": 0.8740157480314961,
          "duration": 0.548780249999993
        },
        {
          "name": "D3",
          "midi": 50,
          "time": 94.75605649999909,
          "velocity": 0.8740157480314961,
          "duration": 0.548780249999993
        },
        {
          "name": "G2",
          "midi": 43,
          "time": 94.75605649999909,
          "velocity": 0.8740157480314961,
          "duration": 0.548780249999993
        },
        {
          "name": "D4",
          "midi": 62,
          "time": 95.30483674999908,
          "velocity": 0.8740157480314961,
          "duration": 0.18292674999999292
        },
        {
          "name": "A3",
          "midi": 57,
          "time": 95.30483674999908,
          "velocity": 0.8740157480314961,
          "duration": 0.18292674999999292
        },
        {
          "name": "D3",
          "midi": 50,
          "time": 95.30483674999908,
          "velocity": 0.8740157480314961,
          "duration": 0.18292674999999292
        },
        {
          "name": "G2",
          "midi": 43,
          "time": 95.30483674999908,
          "velocity": 0.8740157480314961,
          "duration": 0.18292674999999292
        },
        {
          "name": "D4",
          "midi": 62,
          "time": 95.48776349999908,
          "velocity": 0.8740157480314961,
          "duration": 0.18292674999999292
        },
        {
          "name": "A3",
          "midi": 57,
          "time": 95.48776349999908,
          "velocity": 0.8740157480314961,
          "duration": 0.18292674999999292
        },
        {
          "name": "D3",
          "midi": 50,
          "time": 95.48776349999908,
          "velocity": 0.8740157480314961,
          "duration": 0.18292674999999292
        },
        {
          "name": "G2",
          "midi": 43,
          "time": 95.48776349999908,
          "velocity": 0.8740157480314961,
          "duration": 0.18292674999999292
        },
        {
          "name": "D4",
          "midi": 62,
          "time": 95.67069024999907,
          "velocity": 0.8740157480314961,
          "duration": 0.18292674999999292
        },
        {
          "name": "A3",
          "midi": 57,
          "time": 95.67069024999907,
          "velocity": 0.8740157480314961,
          "duration": 0.18292674999999292
        },
        {
          "name": "D3",
          "midi": 50,
          "time": 95.67069024999907,
          "velocity": 0.8740157480314961,
          "duration": 0.18292674999999292
        },
        {
          "name": "G2",
          "midi": 43,
          "time": 95.67069024999907,
          "velocity": 0.8740157480314961,
          "duration": 0.18292674999999292
        },
        {
          "name": "D4",
          "midi": 62,
          "time": 95.85361699999906,
          "velocity": 0.8740157480314961,
          "duration": 0.18292674999999292
        },
        {
          "name": "A3",
          "midi": 57,
          "time": 95.85361699999906,
          "velocity": 0.8740157480314961,
          "duration": 0.18292674999999292
        },
        {
          "name": "D3",
          "midi": 50,
          "time": 95.85361699999906,
          "velocity": 0.8740157480314961,
          "duration": 0.18292674999999292
        },
        {
          "name": "G2",
          "midi": 43,
          "time": 95.85361699999906,
          "velocity": 0.8740157480314961,
          "duration": 0.18292674999999292
        },
        {
          "name": "D4",
          "midi": 62,
          "time": 96.03654374999905,
          "velocity": 0.8740157480314961,
          "duration": 0.18292674999999292
        },
        {
          "name": "A3",
          "midi": 57,
          "time": 96.03654374999905,
          "velocity": 0.8740157480314961,
          "duration": 0.18292674999999292
        },
        {
          "name": "D3",
          "midi": 50,
          "time": 96.03654374999905,
          "velocity": 0.8740157480314961,
          "duration": 0.18292674999999292
        },
        {
          "name": "G2",
          "midi": 43,
          "time": 96.03654374999905,
          "velocity": 0.8740157480314961,
          "duration": 0.18292674999999292
        },
        {
          "name": "D4",
          "midi": 62,
          "time": 96.21947049999905,
          "velocity": 0.8740157480314961,
          "duration": 0.18292674999999292
        },
        {
          "name": "A3",
          "midi": 57,
          "time": 96.21947049999905,
          "velocity": 0.8740157480314961,
          "duration": 0.18292674999999292
        },
        {
          "name": "D3",
          "midi": 50,
          "time": 96.21947049999905,
          "velocity": 0.8740157480314961,
          "duration": 0.18292674999999292
        },
        {
          "name": "G2",
          "midi": 43,
          "time": 96.21947049999905,
          "velocity": 0.8740157480314961,
          "duration": 0.18292674999999292
        },
        {
          "name": "D4",
          "midi": 62,
          "time": 96.40239724999904,
          "velocity": 0.8740157480314961,
          "duration": 0.18292674999999292
        },
        {
          "name": "A3",
          "midi": 57,
          "time": 96.40239724999904,
          "velocity": 0.8740157480314961,
          "duration": 0.18292674999999292
        },
        {
          "name": "D3",
          "midi": 50,
          "time": 96.40239724999904,
          "velocity": 0.8740157480314961,
          "duration": 0.18292674999999292
        },
        {
          "name": "G2",
          "midi": 43,
          "time": 96.40239724999904,
          "velocity": 0.8740157480314961,
          "duration": 0.18292674999999292
        },
        {
          "name": "D3",
          "midi": 50,
          "time": 96.58532399999903,
          "velocity": 0.5590551181102362,
          "duration": 0.18292674999999292
        },
        {
          "name": "D3",
          "midi": 50,
          "time": 96.76825074999903,
          "velocity": 0.5590551181102362,
          "duration": 0.18292674999999292
        },
        {
          "name": "D3",
          "midi": 50,
          "time": 96.95117749999902,
          "velocity": 0.5590551181102362,
          "duration": 0.18292674999999292
        },
        {
          "name": "D3",
          "midi": 50,
          "time": 97.13410424999901,
          "velocity": 0.5590551181102362,
          "duration": 0.18292674999999292
        },
        {
          "name": "D3",
          "midi": 50,
          "time": 97.317030999999,
          "velocity": 0.5590551181102362,
          "duration": 0.18292674999999292
        },
        {
          "name": "D3",
          "midi": 50,
          "time": 97.499957749999,
          "velocity": 0.5590551181102362,
          "duration": 0.18292674999999292
        },
        {
          "name": "D3",
          "midi": 50,
          "time": 97.68288449999899,
          "velocity": 0.5590551181102362,
          "duration": 0.18292674999999292
        },
        {
          "name": "D3",
          "midi": 50,
          "time": 97.86581124999898,
          "velocity": 0.5590551181102362,
          "duration": 0.18292674999999292
        },
        {
          "name": "D3",
          "midi": 50,
          "time": 98.04873799999898,
          "velocity": 0.5590551181102362,
          "duration": 0.18292674999999292
        },
        {
          "name": "D3",
          "midi": 50,
          "time": 98.23166474999897,
          "velocity": 0.5590551181102362,
          "duration": 0.18292674999999292
        },
        {
          "name": "D3",
          "midi": 50,
          "time": 98.41459149999896,
          "velocity": 0.5590551181102362,
          "duration": 0.18292674999999292
        },
        {
          "name": "D3",
          "midi": 50,
          "time": 98.59751824999896,
          "velocity": 0.5590551181102362,
          "duration": 0.18292674999999292
        },
        {
          "name": "D3",
          "midi": 50,
          "time": 98.78044499999895,
          "velocity": 0.5590551181102362,
          "duration": 0.18292674999999292
        },
        {
          "name": "D3",
          "midi": 50,
          "time": 98.96337174999894,
          "velocity": 0.5590551181102362,
          "duration": 0.18292674999999292
        },
        {
          "name": "D3",
          "midi": 50,
          "time": 99.14629849999893,
          "velocity": 0.5590551181102362,
          "duration": 0.18292674999999292
        },
        {
          "name": "D3",
          "midi": 50,
          "time": 99.32922524999893,
          "velocity": 0.5590551181102362,
          "duration": 0.18292674999999292
        },
        {
          "name": "D3",
          "midi": 50,
          "time": 99.51215199999892,
          "velocity": 0.5590551181102362,
          "duration": 0.18292674999999292
        },
        {
          "name": "D3",
          "midi": 50,
          "time": 99.69507874999891,
          "velocity": 0.5590551181102362,
          "duration": 0.18292674999999292
        },
        {
          "name": "D3",
          "midi": 50,
          "time": 99.8780054999989,
          "velocity": 0.5590551181102362,
          "duration": 0.18292674999999292
        },
        {
          "name": "D3",
          "midi": 50,
          "time": 100.0609322499989,
          "velocity": 0.5590551181102362,
          "duration": 0.18292674999999292
        },
        {
          "name": "D3",
          "midi": 50,
          "time": 100.24385899999889,
          "velocity": 0.5590551181102362,
          "duration": 0.18292674999999292
        },
        {
          "name": "D3",
          "midi": 50,
          "time": 100.42678574999888,
          "velocity": 0.5590551181102362,
          "duration": 0.18292674999999292
        },
        {
          "name": "D3",
          "midi": 50,
          "time": 100.60971249999888,
          "velocity": 0.5590551181102362,
          "duration": 0.18292674999999292
        },
        {
          "name": "D3",
          "midi": 50,
          "time": 100.79263924999887,
          "velocity": 0.5590551181102362,
          "duration": 0.18292674999999292
        },
        {
          "name": "D3",
          "midi": 50,
          "time": 100.97556599999886,
          "velocity": 0.5590551181102362,
          "duration": 0.18292674999999292
        },
        {
          "name": "D3",
          "midi": 50,
          "time": 101.15849274999886,
          "velocity": 0.5590551181102362,
          "duration": 0.18292674999999292
        },
        {
          "name": "D3",
          "midi": 50,
          "time": 101.34141949999885,
          "velocity": 0.5590551181102362,
          "duration": 0.18292674999999292
        },
        {
          "name": "D3",
          "midi": 50,
          "time": 101.52434624999884,
          "velocity": 0.5590551181102362,
          "duration": 0.18292674999999292
        },
        {
          "name": "D3",
          "midi": 50,
          "time": 101.70727299999884,
          "velocity": 0.5590551181102362,
          "duration": 0.18292674999999292
        },
        {
          "name": "D3",
          "midi": 50,
          "time": 101.89019974999883,
          "velocity": 0.5590551181102362,
          "duration": 0.18292674999999292
        },
        {
          "name": "D3",
          "midi": 50,
          "time": 102.07312649999882,
          "velocity": 0.5590551181102362,
          "duration": 0.18292674999999292
        },
        {
          "name": "D3",
          "midi": 50,
          "time": 102.25605324999881,
          "velocity": 0.5590551181102362,
          "duration": 0.18292674999999292
        },
        {
          "name": "D3",
          "midi": 50,
          "time": 102.4389799999988,
          "velocity": 0.5590551181102362,
          "duration": 0.18292674999999292
        },
        {
          "name": "D3",
          "midi": 50,
          "time": 102.6219067499988,
          "velocity": 0.5590551181102362,
          "duration": 0.18292674999999292
        },
        {
          "name": "D3",
          "midi": 50,
          "time": 102.8048334999988,
          "velocity": 0.5590551181102362,
          "duration": 0.18292674999999292
        },
        {
          "name": "D3",
          "midi": 50,
          "time": 102.98776024999879,
          "velocity": 0.5590551181102362,
          "duration": 0.18292674999999292
        },
        {
          "name": "D3",
          "midi": 50,
          "time": 103.17068699999878,
          "velocity": 0.5590551181102362,
          "duration": 0.18292674999999292
        },
        {
          "name": "D3",
          "midi": 50,
          "time": 103.35361374999877,
          "velocity": 0.5590551181102362,
          "duration": 0.18292674999999292
        },
        {
          "name": "D3",
          "midi": 50,
          "time": 103.53654049999876,
          "velocity": 0.5590551181102362,
          "duration": 0.18292674999999292
        },
        {
          "name": "D3",
          "midi": 50,
          "time": 103.71946724999876,
          "velocity": 0.5590551181102362,
          "duration": 0.18292674999999292
        },
        {
          "name": "D3",
          "midi": 50,
          "time": 103.90239399999875,
          "velocity": 0.5590551181102362,
          "duration": 0.18292674999999292
        },
        {
          "name": "D3",
          "midi": 50,
          "time": 104.08532074999874,
          "velocity": 0.5590551181102362,
          "duration": 0.18292674999999292
        },
        {
          "name": "D3",
          "midi": 50,
          "time": 104.26824749999874,
          "velocity": 0.5590551181102362,
          "duration": 0.18292674999999292
        },
        {
          "name": "D3",
          "midi": 50,
          "time": 104.45117424999873,
          "velocity": 0.5590551181102362,
          "duration": 0.18292674999999292
        },
        {
          "name": "D3",
          "midi": 50,
          "time": 104.63410099999872,
          "velocity": 0.5590551181102362,
          "duration": 0.18292674999999292
        },
        {
          "name": "D3",
          "midi": 50,
          "time": 104.81702774999872,
          "velocity": 0.5590551181102362,
          "duration": 0.18292674999999292
        },
        {
          "name": "D3",
          "midi": 50,
          "time": 104.99995449999871,
          "velocity": 0.5590551181102362,
          "duration": 0.18292674999999292
        },
        {
          "name": "D3",
          "midi": 50,
          "time": 105.1828812499987,
          "velocity": 0.5590551181102362,
          "duration": 0.18292674999999292
        },
        {
          "name": "D3",
          "midi": 50,
          "time": 105.3658079999987,
          "velocity": 0.5590551181102362,
          "duration": 0.18292674999999292
        },
        {
          "name": "D3",
          "midi": 50,
          "time": 105.54873474999869,
          "velocity": 0.5590551181102362,
          "duration": 0.18292674999999292
        },
        {
          "name": "D3",
          "midi": 50,
          "time": 105.73166149999868,
          "velocity": 0.5590551181102362,
          "duration": 0.18292674999999292
        },
        {
          "name": "D3",
          "midi": 50,
          "time": 105.91458824999867,
          "velocity": 0.5590551181102362,
          "duration": 0.18292674999999292
        },
        {
          "name": "D3",
          "midi": 50,
          "time": 106.09751499999867,
          "velocity": 0.5590551181102362,
          "duration": 0.18292674999999292
        },
        {
          "name": "D3",
          "midi": 50,
          "time": 106.28044174999866,
          "velocity": 0.5590551181102362,
          "duration": 0.18292674999999292
        },
        {
          "name": "D3",
          "midi": 50,
          "time": 106.46336849999865,
          "velocity": 0.5590551181102362,
          "duration": 0.18292674999999292
        },
        {
          "name": "D3",
          "midi": 50,
          "time": 106.64629524999864,
          "velocity": 0.5590551181102362,
          "duration": 0.18292674999999292
        },
        {
          "name": "D3",
          "midi": 50,
          "time": 106.82922199999864,
          "velocity": 0.5590551181102362,
          "duration": 0.18292674999999292
        },
        {
          "name": "D3",
          "midi": 50,
          "time": 107.01214874999863,
          "velocity": 0.5590551181102362,
          "duration": 0.18292674999999292
        },
        {
          "name": "D3",
          "midi": 50,
          "time": 107.19507549999862,
          "velocity": 0.5590551181102362,
          "duration": 0.18292674999999292
        },
        {
          "name": "D3",
          "midi": 50,
          "time": 107.37800224999862,
          "velocity": 0.6220472440944882,
          "duration": 0.18292674999999292
        },
        {
          "name": "D3",
          "midi": 50,
          "time": 107.56092899999861,
          "velocity": 0.6220472440944882,
          "duration": 0.18292674999999292
        },
        {
          "name": "D3",
          "midi": 50,
          "time": 107.7438557499986,
          "velocity": 0.6220472440944882,
          "duration": 0.18292674999999292
        },
        {
          "name": "D3",
          "midi": 50,
          "time": 107.9267824999986,
          "velocity": 0.6220472440944882,
          "duration": 0.18292674999999292
        },
        {
          "name": "D3",
          "midi": 50,
          "time": 108.10970924999859,
          "velocity": 0.6220472440944882,
          "duration": 0.18292674999999292
        },
        {
          "name": "D4",
          "midi": 62,
          "time": 108.29263599999858,
          "velocity": 0.8740157480314961,
          "duration": 0.18292674999999292
        },
        {
          "name": "D3",
          "midi": 50,
          "time": 108.29263599999858,
          "velocity": 0.8740157480314961,
          "duration": 0.18292674999999292
        },
        {
          "name": "D4",
          "midi": 62,
          "time": 108.47556274999857,
          "velocity": 0.8740157480314961,
          "duration": 0.18292674999999292
        },
        {
          "name": "D3",
          "midi": 50,
          "time": 108.47556274999857,
          "velocity": 0.8740157480314961,
          "duration": 0.18292674999999292
        },
        {
          "name": "D4",
          "midi": 62,
          "time": 108.84141624999856,
          "velocity": 0.8740157480314961,
          "duration": 0.18292674999999292
        },
        {
          "name": "D3",
          "midi": 50,
          "time": 108.84141624999856,
          "velocity": 0.8740157480314961,
          "duration": 0.18292674999999292
        },
        {
          "name": "D4",
          "midi": 62,
          "time": 109.02434299999855,
          "velocity": 0.8740157480314961,
          "duration": 0.18292674999999292
        },
        {
          "name": "D3",
          "midi": 50,
          "time": 109.02434299999855,
          "velocity": 0.8740157480314961,
          "duration": 0.18292674999999292
        },
        {
          "name": "F#4",
          "midi": 66,
          "time": 109.39019649999854,
          "velocity": 0.8740157480314961,
          "duration": 0.18292674999999292
        },
        {
          "name": "D4",
          "midi": 62,
          "time": 109.39019649999854,
          "velocity": 0.8740157480314961,
          "duration": 0.18292674999999292
        },
        {
          "name": "D3",
          "midi": 50,
          "time": 109.39019649999854,
          "velocity": 0.8740157480314961,
          "duration": 0.18292674999999292
        },
        {
          "name": "F#4",
          "midi": 66,
          "time": 109.75604999999852,
          "velocity": 0.8740157480314961,
          "duration": 0.18292674999999292
        },
        {
          "name": "D4",
          "midi": 62,
          "time": 109.75604999999852,
          "velocity": 0.8740157480314961,
          "duration": 0.18292674999999292
        },
        {
          "name": "D3",
          "midi": 50,
          "time": 109.75604999999852,
          "velocity": 0.8740157480314961,
          "duration": 0.18292674999999292
        },
        {
          "name": "F#4",
          "midi": 66,
          "time": 110.12190349999851,
          "velocity": 0.8740157480314961,
          "duration": 0.18292674999999292
        },
        {
          "name": "D4",
          "midi": 62,
          "time": 110.12190349999851,
          "velocity": 0.8740157480314961,
          "duration": 0.18292674999999292
        },
        {
          "name": "D3",
          "midi": 50,
          "time": 110.12190349999851,
          "velocity": 0.8740157480314961,
          "duration": 0.18292674999999292
        },
        {
          "name": "F#4",
          "midi": 66,
          "time": 110.4877569999985,
          "velocity": 0.8740157480314961,
          "duration": 0.18292674999999292
        },
        {
          "name": "D4",
          "midi": 62,
          "time": 110.4877569999985,
          "velocity": 0.8740157480314961,
          "duration": 0.18292674999999292
        },
        {
          "name": "D3",
          "midi": 50,
          "time": 110.4877569999985,
          "velocity": 0.8740157480314961,
          "duration": 0.18292674999999292
        },
        {
          "name": "F#4",
          "midi": 66,
          "time": 110.85361049999848,
          "velocity": 0.8740157480314961,
          "duration": 0.18292674999999292
        },
        {
          "name": "D4",
          "midi": 62,
          "time": 110.85361049999848,
          "velocity": 0.8740157480314961,
          "duration": 0.18292674999999292
        },
        {
          "name": "D3",
          "midi": 50,
          "time": 110.85361049999848,
          "velocity": 0.8740157480314961,
          "duration": 0.18292674999999292
        },
        {
          "name": "D4",
          "midi": 62,
          "time": 111.21946399999847,
          "velocity": 0.8740157480314961,
          "duration": 0.18292674999999292
        },
        {
          "name": "D3",
          "midi": 50,
          "time": 111.21946399999847,
          "velocity": 0.8740157480314961,
          "duration": 0.18292674999999292
        },
        {
          "name": "D4",
          "midi": 62,
          "time": 111.40239074999846,
          "velocity": 0.8740157480314961,
          "duration": 0.18292674999999292
        },
        {
          "name": "D3",
          "midi": 50,
          "time": 111.40239074999846,
          "velocity": 0.8740157480314961,
          "duration": 0.18292674999999292
        },
        {
          "name": "D4",
          "midi": 62,
          "time": 111.76824424999845,
          "velocity": 0.8740157480314961,
          "duration": 0.18292674999999292
        },
        {
          "name": "D3",
          "midi": 50,
          "time": 111.76824424999845,
          "velocity": 0.8740157480314961,
          "duration": 0.18292674999999292
        },
        {
          "name": "D4",
          "midi": 62,
          "time": 111.95117099999844,
          "velocity": 0.8740157480314961,
          "duration": 0.18292674999999292
        },
        {
          "name": "D3",
          "midi": 50,
          "time": 111.95117099999844,
          "velocity": 0.8740157480314961,
          "duration": 0.18292674999999292
        },
        {
          "name": "F#4",
          "midi": 66,
          "time": 112.31702449999842,
          "velocity": 0.8740157480314961,
          "duration": 0.18292674999999292
        },
        {
          "name": "D4",
          "midi": 62,
          "time": 112.31702449999842,
          "velocity": 0.8740157480314961,
          "duration": 0.18292674999999292
        },
        {
          "name": "D3",
          "midi": 50,
          "time": 112.31702449999842,
          "velocity": 0.8740157480314961,
          "duration": 0.18292674999999292
        },
        {
          "name": "F#4",
          "midi": 66,
          "time": 112.68287799999841,
          "velocity": 0.8740157480314961,
          "duration": 0.18292674999999292
        },
        {
          "name": "D4",
          "midi": 62,
          "time": 112.68287799999841,
          "velocity": 0.8740157480314961,
          "duration": 0.18292674999999292
        },
        {
          "name": "D3",
          "midi": 50,
          "time": 112.68287799999841,
          "velocity": 0.8740157480314961,
          "duration": 0.18292674999999292
        },
        {
          "name": "F#4",
          "midi": 66,
          "time": 113.0487314999984,
          "velocity": 0.8740157480314961,
          "duration": 0.18292674999999292
        },
        {
          "name": "D4",
          "midi": 62,
          "time": 113.0487314999984,
          "velocity": 0.8740157480314961,
          "duration": 0.18292674999999292
        },
        {
          "name": "D3",
          "midi": 50,
          "time": 113.0487314999984,
          "velocity": 0.8740157480314961,
          "duration": 0.18292674999999292
        },
        {
          "name": "F#4",
          "midi": 66,
          "time": 113.41458499999838,
          "velocity": 0.8740157480314961,
          "duration": 0.18292674999999292
        },
        {
          "name": "D4",
          "midi": 62,
          "time": 113.41458499999838,
          "velocity": 0.8740157480314961,
          "duration": 0.18292674999999292
        },
        {
          "name": "D3",
          "midi": 50,
          "time": 113.41458499999838,
          "velocity": 0.8740157480314961,
          "duration": 0.18292674999999292
        },
        {
          "name": "F#4",
          "midi": 66,
          "time": 113.78043849999837,
          "velocity": 0.8740157480314961,
          "duration": 0.18292674999999292
        },
        {
          "name": "D4",
          "midi": 62,
          "time": 113.78043849999837,
          "velocity": 0.8740157480314961,
          "duration": 0.18292674999999292
        },
        {
          "name": "D3",
          "midi": 50,
          "time": 113.78043849999837,
          "velocity": 0.8740157480314961,
          "duration": 0.18292674999999292
        },
        {
          "name": "D4",
          "midi": 62,
          "time": 114.14629199999835,
          "velocity": 0.8740157480314961,
          "duration": 0.18292674999999292
        },
        {
          "name": "D3",
          "midi": 50,
          "time": 114.14629199999835,
          "velocity": 0.8740157480314961,
          "duration": 0.18292674999999292
        },
        {
          "name": "D4",
          "midi": 62,
          "time": 114.32921874999835,
          "velocity": 0.8740157480314961,
          "duration": 0.18292674999999292
        },
        {
          "name": "D3",
          "midi": 50,
          "time": 114.32921874999835,
          "velocity": 0.8740157480314961,
          "duration": 0.18292674999999292
        },
        {
          "name": "D4",
          "midi": 62,
          "time": 114.69507224999833,
          "velocity": 0.8740157480314961,
          "duration": 0.18292674999999292
        },
        {
          "name": "D3",
          "midi": 50,
          "time": 114.69507224999833,
          "velocity": 0.8740157480314961,
          "duration": 0.18292674999999292
        },
        {
          "name": "D4",
          "midi": 62,
          "time": 114.87799899999833,
          "velocity": 0.8740157480314961,
          "duration": 0.18292674999999292
        },
        {
          "name": "D3",
          "midi": 50,
          "time": 114.87799899999833,
          "velocity": 0.8740157480314961,
          "duration": 0.18292674999999292
        },
        {
          "name": "F#4",
          "midi": 66,
          "time": 115.24385249999831,
          "velocity": 0.8740157480314961,
          "duration": 0.18292674999999292
        },
        {
          "name": "D4",
          "midi": 62,
          "time": 115.24385249999831,
          "velocity": 0.8740157480314961,
          "duration": 0.18292674999999292
        },
        {
          "name": "D3",
          "midi": 50,
          "time": 115.24385249999831,
          "velocity": 0.8740157480314961,
          "duration": 0.18292674999999292
        },
        {
          "name": "F#4",
          "midi": 66,
          "time": 115.6097059999983,
          "velocity": 0.8740157480314961,
          "duration": 0.18292674999999292
        },
        {
          "name": "D4",
          "midi": 62,
          "time": 115.6097059999983,
          "velocity": 0.8740157480314961,
          "duration": 0.18292674999999292
        },
        {
          "name": "D3",
          "midi": 50,
          "time": 115.6097059999983,
          "velocity": 0.8740157480314961,
          "duration": 0.18292674999999292
        },
        {
          "name": "F#4",
          "midi": 66,
          "time": 115.97555949999828,
          "velocity": 0.8740157480314961,
          "duration": 0.18292674999999292
        },
        {
          "name": "D4",
          "midi": 62,
          "time": 115.97555949999828,
          "velocity": 0.8740157480314961,
          "duration": 0.18292674999999292
        },
        {
          "name": "D3",
          "midi": 50,
          "time": 115.97555949999828,
          "velocity": 0.8740157480314961,
          "duration": 0.18292674999999292
        },
        {
          "name": "F#4",
          "midi": 66,
          "time": 116.34141299999827,
          "velocity": 0.8740157480314961,
          "duration": 0.18292674999999292
        },
        {
          "name": "D4",
          "midi": 62,
          "time": 116.34141299999827,
          "velocity": 0.8740157480314961,
          "duration": 0.18292674999999292
        },
        {
          "name": "D3",
          "midi": 50,
          "time": 116.34141299999827,
          "velocity": 0.8740157480314961,
          "duration": 0.18292674999999292
        },
        {
          "name": "F#4",
          "midi": 66,
          "time": 116.70726649999825,
          "velocity": 0.8740157480314961,
          "duration": 0.18292674999999292
        },
        {
          "name": "D4",
          "midi": 62,
          "time": 116.70726649999825,
          "velocity": 0.8740157480314961,
          "duration": 0.18292674999999292
        },
        {
          "name": "D3",
          "midi": 50,
          "time": 116.70726649999825,
          "velocity": 0.8740157480314961,
          "duration": 0.18292674999999292
        },
        {
          "name": "D4",
          "midi": 62,
          "time": 117.07311999999824,
          "velocity": 0.8740157480314961,
          "duration": 0.18292674999999292
        },
        {
          "name": "D3",
          "midi": 50,
          "time": 117.07311999999824,
          "velocity": 0.8740157480314961,
          "duration": 0.18292674999999292
        },
        {
          "name": "D4",
          "midi": 62,
          "time": 117.25604674999823,
          "velocity": 0.8740157480314961,
          "duration": 0.18292674999999292
        },
        {
          "name": "D3",
          "midi": 50,
          "time": 117.25604674999823,
          "velocity": 0.8740157480314961,
          "duration": 0.18292674999999292
        },
        {
          "name": "D4",
          "midi": 62,
          "time": 117.62190024999822,
          "velocity": 0.8740157480314961,
          "duration": 0.18292674999999292
        },
        {
          "name": "D3",
          "midi": 50,
          "time": 117.62190024999822,
          "velocity": 0.8740157480314961,
          "duration": 0.18292674999999292
        },
        {
          "name": "D4",
          "midi": 62,
          "time": 117.80482699999821,
          "velocity": 0.8740157480314961,
          "duration": 0.18292674999999292
        },
        {
          "name": "D3",
          "midi": 50,
          "time": 117.80482699999821,
          "velocity": 0.8740157480314961,
          "duration": 0.18292674999999292
        },
        {
          "name": "F#4",
          "midi": 66,
          "time": 118.1706804999982,
          "velocity": 0.8740157480314961,
          "duration": 0.18292674999999292
        },
        {
          "name": "D4",
          "midi": 62,
          "time": 118.1706804999982,
          "velocity": 0.8740157480314961,
          "duration": 0.18292674999999292
        },
        {
          "name": "D3",
          "midi": 50,
          "time": 118.1706804999982,
          "velocity": 0.8740157480314961,
          "duration": 0.18292674999999292
        },
        {
          "name": "F#4",
          "midi": 66,
          "time": 118.53653399999818,
          "velocity": 0.8740157480314961,
          "duration": 0.18292674999999292
        },
        {
          "name": "D4",
          "midi": 62,
          "time": 118.53653399999818,
          "velocity": 0.8740157480314961,
          "duration": 0.18292674999999292
        },
        {
          "name": "D3",
          "midi": 50,
          "time": 118.53653399999818,
          "velocity": 0.8740157480314961,
          "duration": 0.18292674999999292
        },
        {
          "name": "F#4",
          "midi": 66,
          "time": 118.90238749999817,
          "velocity": 0.8740157480314961,
          "duration": 0.18292674999999292
        },
        {
          "name": "D4",
          "midi": 62,
          "time": 118.90238749999817,
          "velocity": 0.8740157480314961,
          "duration": 0.18292674999999292
        },
        {
          "name": "D3",
          "midi": 50,
          "time": 118.90238749999817,
          "velocity": 0.8740157480314961,
          "duration": 0.18292674999999292
        },
        {
          "name": "F#4",
          "midi": 66,
          "time": 119.26824099999816,
          "velocity": 0.8740157480314961,
          "duration": 0.18292674999999292
        },
        {
          "name": "D4",
          "midi": 62,
          "time": 119.26824099999816,
          "velocity": 0.8740157480314961,
          "duration": 0.18292674999999292
        },
        {
          "name": "D3",
          "midi": 50,
          "time": 119.26824099999816,
          "velocity": 0.8740157480314961,
          "duration": 0.18292674999999292
        },
        {
          "name": "F#4",
          "midi": 66,
          "time": 119.63409449999814,
          "velocity": 0.8740157480314961,
          "duration": 0.18292674999999292
        },
        {
          "name": "D4",
          "midi": 62,
          "time": 119.63409449999814,
          "velocity": 0.8740157480314961,
          "duration": 0.18292674999999292
        },
        {
          "name": "D3",
          "midi": 50,
          "time": 119.63409449999814,
          "velocity": 0.8740157480314961,
          "duration": 0.18292674999999292
        },
        {
          "name": "F#2",
          "midi": 42,
          "time": 119.99994799999813,
          "velocity": 0.7874015748031497,
          "duration": 0.18292674999999292
        },
        {
          "name": "F#2",
          "midi": 42,
          "time": 120.18287474999812,
          "velocity": 0.7874015748031497,
          "duration": 0.18292674999999292
        },
        {
          "name": "F#2",
          "midi": 42,
          "time": 120.36580149999811,
          "velocity": 0.7874015748031497,
          "duration": 0.18292674999999292
        },
        {
          "name": "F#2",
          "midi": 42,
          "time": 120.5487282499981,
          "velocity": 0.7874015748031497,
          "duration": 0.18292674999999292
        },
        {
          "name": "F#2",
          "midi": 42,
          "time": 120.7316549999981,
          "velocity": 0.7874015748031497,
          "duration": 0.18292674999999292
        },
        {
          "name": "F#2",
          "midi": 42,
          "time": 120.91458174999809,
          "velocity": 0.7874015748031497,
          "duration": 0.18292674999999292
        },
        {
          "name": "G2",
          "midi": 43,
          "time": 121.09750849999809,
          "velocity": 0.7874015748031497,
          "duration": 0.18292674999999292
        },
        {
          "name": "G2",
          "midi": 43,
          "time": 121.28043524999808,
          "velocity": 0.7874015748031497,
          "duration": 0.18292674999999292
        },
        {
          "name": "G2",
          "midi": 43,
          "time": 121.46336199999807,
          "velocity": 0.7874015748031497,
          "duration": 0.18292674999999292
        },
        {
          "name": "G2",
          "midi": 43,
          "time": 121.64628874999806,
          "velocity": 0.7874015748031497,
          "duration": 0.18292674999999292
        },
        {
          "name": "G2",
          "midi": 43,
          "time": 121.82921549999806,
          "velocity": 0.7874015748031497,
          "duration": 0.18292674999999292
        },
        {
          "name": "G2",
          "midi": 43,
          "time": 122.01214224999805,
          "velocity": 0.7874015748031497,
          "duration": 0.18292674999999292
        },
        {
          "name": "G2",
          "midi": 43,
          "time": 122.19506899999804,
          "velocity": 0.7874015748031497,
          "duration": 0.18292674999999292
        },
        {
          "name": "G2",
          "midi": 43,
          "time": 122.37799574999804,
          "velocity": 0.7874015748031497,
          "duration": 0.18292674999999292
        },
        {
          "name": "G2",
          "midi": 43,
          "time": 122.56092249999803,
          "velocity": 0.7874015748031497,
          "duration": 0.18292674999999292
        },
        {
          "name": "G2",
          "midi": 43,
          "time": 122.74384924999802,
          "velocity": 0.7874015748031497,
          "duration": 0.18292674999999292
        },
        {
          "name": "A2",
          "midi": 45,
          "time": 122.92677599999801,
          "velocity": 0.7874015748031497,
          "duration": 0.18292674999999292
        },
        {
          "name": "A2",
          "midi": 45,
          "time": 123.10970274999801,
          "velocity": 0.7874015748031497,
          "duration": 0.18292674999999292
        },
        {
          "name": "A2",
          "midi": 45,
          "time": 123.292629499998,
          "velocity": 0.7874015748031497,
          "duration": 0.18292674999999292
        },
        {
          "name": "A2",
          "midi": 45,
          "time": 123.475556249998,
          "velocity": 0.7874015748031497,
          "duration": 0.18292674999999292
        },
        {
          "name": "A2",
          "midi": 45,
          "time": 123.65848299999799,
          "velocity": 0.7874015748031497,
          "duration": 0.18292674999999292
        },
        {
          "name": "A2",
          "midi": 45,
          "time": 123.84140974999798,
          "velocity": 0.7874015748031497,
          "duration": 0.18292674999999292
        },
        {
          "name": "B2",
          "midi": 47,
          "time": 124.02433649999797,
          "velocity": 0.7874015748031497,
          "duration": 0.18292674999999292
        },
        {
          "name": "B2",
          "midi": 47,
          "time": 124.20726324999796,
          "velocity": 0.7874015748031497,
          "duration": 0.18292674999999292
        },
        {
          "name": "B2",
          "midi": 47,
          "time": 124.39018999999796,
          "velocity": 0.7874015748031497,
          "duration": 0.18292674999999292
        },
        {
          "name": "B2",
          "midi": 47,
          "time": 124.57311674999795,
          "velocity": 0.7874015748031497,
          "duration": 0.18292674999999292
        },
        {
          "name": "B2",
          "midi": 47,
          "time": 124.75604349999794,
          "velocity": 0.7874015748031497,
          "duration": 0.18292674999999292
        },
        {
          "name": "B2",
          "midi": 47,
          "time": 124.93897024999794,
          "velocity": 0.7874015748031497,
          "duration": 0.18292674999999292
        },
        {
          "name": "B2",
          "midi": 47,
          "time": 125.12189699999793,
          "velocity": 0.7874015748031497,
          "duration": 0.18292674999999292
        },
        {
          "name": "B2",
          "midi": 47,
          "time": 125.30482374999792,
          "velocity": 0.7874015748031497,
          "duration": 0.18292674999999292
        },
        {
          "name": "B2",
          "midi": 47,
          "time": 125.48775049999792,
          "velocity": 0.7874015748031497,
          "duration": 0.18292674999999292
        },
        {
          "name": "B2",
          "midi": 47,
          "time": 125.67067724999791,
          "velocity": 0.7874015748031497,
          "duration": 0.18292674999999292
        },
        {
          "name": "C3",
          "midi": 48,
          "time": 125.8536039999979,
          "velocity": 0.7874015748031497,
          "duration": 0.18292674999999292
        },
        {
          "name": "C3",
          "midi": 48,
          "time": 126.0365307499979,
          "velocity": 0.7874015748031497,
          "duration": 0.18292674999999292
        },
        {
          "name": "C3",
          "midi": 48,
          "time": 126.21945749999789,
          "velocity": 0.7874015748031497,
          "duration": 0.18292674999999292
        },
        {
          "name": "C3",
          "midi": 48,
          "time": 126.40238424999788,
          "velocity": 0.7874015748031497,
          "duration": 0.18292674999999292
        },
        {
          "name": "C3",
          "midi": 48,
          "time": 126.58531099999787,
          "velocity": 0.7874015748031497,
          "duration": 0.18292674999999292
        },
        {
          "name": "C3",
          "midi": 48,
          "time": 126.76823774999787,
          "velocity": 0.7874015748031497,
          "duration": 0.18292674999999292
        },
        {
          "name": "B2",
          "midi": 47,
          "time": 126.95116449999786,
          "velocity": 0.7874015748031497,
          "duration": 0.18292674999999292
        },
        {
          "name": "B2",
          "midi": 47,
          "time": 127.13409124999785,
          "velocity": 0.7874015748031497,
          "duration": 0.18292674999999292
        },
        {
          "name": "B2",
          "midi": 47,
          "time": 127.31701799999784,
          "velocity": 0.7874015748031497,
          "duration": 0.18292674999999292
        },
        {
          "name": "B2",
          "midi": 47,
          "time": 127.49994474999784,
          "velocity": 0.7874015748031497,
          "duration": 0.18292674999999292
        },
        {
          "name": "B2",
          "midi": 47,
          "time": 127.68287149999783,
          "velocity": 0.7874015748031497,
          "duration": 0.18292674999999292
        },
        {
          "name": "B2",
          "midi": 47,
          "time": 127.86579824999782,
          "velocity": 0.7874015748031497,
          "duration": 0.18292675000000713
        },
        {
          "name": "B2",
          "midi": 47,
          "time": 128.04872499999783,
          "velocity": 0.7874015748031497,
          "duration": 0.18292675000000713
        },
        {
          "name": "B2",
          "midi": 47,
          "time": 128.23165174999784,
          "velocity": 0.7874015748031497,
          "duration": 0.18292675000000713
        },
        {
          "name": "B2",
          "midi": 47,
          "time": 128.41457849999784,
          "velocity": 0.7874015748031497,
          "duration": 0.18292675000000713
        },
        {
          "name": "B2",
          "midi": 47,
          "time": 128.59750524999785,
          "velocity": 0.7874015748031497,
          "duration": 0.18292675000000713
        },
        {
          "name": "D4",
          "midi": 62,
          "time": 128.78043199999786,
          "velocity": 0.7480314960629921,
          "duration": 2.195121000000057
        },
        {
          "name": "A3",
          "midi": 57,
          "time": 128.78043199999786,
          "velocity": 0.7480314960629921,
          "duration": 2.195121000000057
        },
        {
          "name": "D3",
          "midi": 50,
          "time": 128.78043199999786,
          "velocity": 0.7480314960629921,
          "duration": 2.195121000000057
        },
        {
          "name": "G2",
          "midi": 43,
          "time": 128.78043199999786,
          "velocity": 0.7480314960629921,
          "duration": 2.195121000000057
        },
        {
          "name": "D4",
          "midi": 62,
          "time": 130.97555299999792,
          "velocity": 0.7480314960629921,
          "duration": 0.18292675000000713
        },
        {
          "name": "A3",
          "midi": 57,
          "time": 130.97555299999792,
          "velocity": 0.7480314960629921,
          "duration": 0.18292675000000713
        },
        {
          "name": "D3",
          "midi": 50,
          "time": 130.97555299999792,
          "velocity": 0.7480314960629921,
          "duration": 0.18292675000000713
        },
        {
          "name": "G2",
          "midi": 43,
          "time": 130.97555299999792,
          "velocity": 0.7480314960629921,
          "duration": 0.18292675000000713
        },
        {
          "name": "D3",
          "midi": 50,
          "time": 131.70725999999792,
          "velocity": 0.8740157480314961,
          "duration": 0.18292675000000713
        },
        {
          "name": "A2",
          "midi": 45,
          "time": 131.70725999999792,
          "velocity": 0.8740157480314961,
          "duration": 0.18292675000000713
        },
        {
          "name": "D2",
          "midi": 38,
          "time": 131.70725999999792,
          "velocity": 0.8740157480314961,
          "duration": 0.18292675000000713
        },
        {
          "name": "D3",
          "midi": 50,
          "time": 131.89018674999792,
          "velocity": 0.8740157480314961,
          "duration": 0.18292675000000713
        },
        {
          "name": "A2",
          "midi": 45,
          "time": 131.89018674999792,
          "velocity": 0.8740157480314961,
          "duration": 0.18292675000000713
        },
        {
          "name": "D2",
          "midi": 38,
          "time": 131.89018674999792,
          "velocity": 0.8740157480314961,
          "duration": 0.18292675000000713
        },
        {
          "name": "D3",
          "midi": 50,
          "time": 132.07311349999793,
          "velocity": 0.8740157480314961,
          "duration": 0.18292675000000713
        },
        {
          "name": "A2",
          "midi": 45,
          "time": 132.07311349999793,
          "velocity": 0.8740157480314961,
          "duration": 0.18292675000000713
        },
        {
          "name": "D2",
          "midi": 38,
          "time": 132.07311349999793,
          "velocity": 0.8740157480314961,
          "duration": 0.18292675000000713
        },
        {
          "name": "D3",
          "midi": 50,
          "time": 132.25604024999794,
          "velocity": 0.8740157480314961,
          "duration": 0.18292675000000713
        },
        {
          "name": "A2",
          "midi": 45,
          "time": 132.25604024999794,
          "velocity": 0.8740157480314961,
          "duration": 0.18292675000000713
        },
        {
          "name": "D2",
          "midi": 38,
          "time": 132.25604024999794,
          "velocity": 0.8740157480314961,
          "duration": 0.18292675000000713
        },
        {
          "name": "D3",
          "midi": 50,
          "time": 132.43896699999794,
          "velocity": 0.8740157480314961,
          "duration": 0.18292675000000713
        },
        {
          "name": "A2",
          "midi": 45,
          "time": 132.43896699999794,
          "velocity": 0.8740157480314961,
          "duration": 0.18292675000000713
        },
        {
          "name": "D2",
          "midi": 38,
          "time": 132.43896699999794,
          "velocity": 0.8740157480314961,
          "duration": 0.18292675000000713
        },
        {
          "name": "D3",
          "midi": 50,
          "time": 132.62189374999795,
          "velocity": 0.8740157480314961,
          "duration": 0.18292675000000713
        },
        {
          "name": "A2",
          "midi": 45,
          "time": 132.62189374999795,
          "velocity": 0.8740157480314961,
          "duration": 0.18292675000000713
        },
        {
          "name": "D2",
          "midi": 38,
          "time": 132.62189374999795,
          "velocity": 0.8740157480314961,
          "duration": 0.18292675000000713
        },
        {
          "name": "D3",
          "midi": 50,
          "time": 132.80482049999796,
          "velocity": 0.8740157480314961,
          "duration": 0.18292675000000713
        },
        {
          "name": "A2",
          "midi": 45,
          "time": 132.80482049999796,
          "velocity": 0.8740157480314961,
          "duration": 0.18292675000000713
        },
        {
          "name": "D2",
          "midi": 38,
          "time": 132.80482049999796,
          "velocity": 0.8740157480314961,
          "duration": 0.18292675000000713
        },
        {
          "name": "D3",
          "midi": 50,
          "time": 132.98774724999797,
          "velocity": 0.8740157480314961,
          "duration": 0.18292675000000713
        },
        {
          "name": "A2",
          "midi": 45,
          "time": 132.98774724999797,
          "velocity": 0.8740157480314961,
          "duration": 0.18292675000000713
        },
        {
          "name": "D2",
          "midi": 38,
          "time": 132.98774724999797,
          "velocity": 0.8740157480314961,
          "duration": 0.18292675000000713
        },
        {
          "name": "D3",
          "midi": 50,
          "time": 133.17067399999797,
          "velocity": 0.8740157480314961,
          "duration": 0.18292675000000713
        },
        {
          "name": "A2",
          "midi": 45,
          "time": 133.17067399999797,
          "velocity": 0.8740157480314961,
          "duration": 0.18292675000000713
        },
        {
          "name": "D2",
          "midi": 38,
          "time": 133.17067399999797,
          "velocity": 0.8740157480314961,
          "duration": 0.18292675000000713
        },
        {
          "name": "D3",
          "midi": 50,
          "time": 133.35360074999798,
          "velocity": 0.8740157480314961,
          "duration": 0.18292675000000713
        },
        {
          "name": "A2",
          "midi": 45,
          "time": 133.35360074999798,
          "velocity": 0.8740157480314961,
          "duration": 0.18292675000000713
        },
        {
          "name": "D2",
          "midi": 38,
          "time": 133.35360074999798,
          "velocity": 0.8740157480314961,
          "duration": 0.18292675000000713
        },
        {
          "name": "D3",
          "midi": 50,
          "time": 133.536527499998,
          "velocity": 0.8740157480314961,
          "duration": 0.18292675000000713
        },
        {
          "name": "A2",
          "midi": 45,
          "time": 133.536527499998,
          "velocity": 0.8740157480314961,
          "duration": 0.18292675000000713
        },
        {
          "name": "D2",
          "midi": 38,
          "time": 133.536527499998,
          "velocity": 0.8740157480314961,
          "duration": 0.18292675000000713
        },
        {
          "name": "D3",
          "midi": 50,
          "time": 133.719454249998,
          "velocity": 0.8740157480314961,
          "duration": 0.18292675000000713
        },
        {
          "name": "A2",
          "midi": 45,
          "time": 133.719454249998,
          "velocity": 0.8740157480314961,
          "duration": 0.18292675000000713
        },
        {
          "name": "D2",
          "midi": 38,
          "time": 133.719454249998,
          "velocity": 0.8740157480314961,
          "duration": 0.18292675000000713
        },
        {
          "name": "D3",
          "midi": 50,
          "time": 133.902380999998,
          "velocity": 0.8740157480314961,
          "duration": 0.18292675000000713
        },
        {
          "name": "A2",
          "midi": 45,
          "time": 133.902380999998,
          "velocity": 0.8740157480314961,
          "duration": 0.18292675000000713
        },
        {
          "name": "D2",
          "midi": 38,
          "time": 133.902380999998,
          "velocity": 0.8740157480314961,
          "duration": 0.18292675000000713
        },
        {
          "name": "D3",
          "midi": 50,
          "time": 134.085307749998,
          "velocity": 0.8740157480314961,
          "duration": 0.18292675000000713
        },
        {
          "name": "A2",
          "midi": 45,
          "time": 134.085307749998,
          "velocity": 0.8740157480314961,
          "duration": 0.18292675000000713
        },
        {
          "name": "D2",
          "midi": 38,
          "time": 134.085307749998,
          "velocity": 0.8740157480314961,
          "duration": 0.18292675000000713
        },
        {
          "name": "D3",
          "midi": 50,
          "time": 134.26823449999802,
          "velocity": 0.8740157480314961,
          "duration": 0.18292675000000713
        },
        {
          "name": "A2",
          "midi": 45,
          "time": 134.26823449999802,
          "velocity": 0.8740157480314961,
          "duration": 0.18292675000000713
        },
        {
          "name": "D2",
          "midi": 38,
          "time": 134.26823449999802,
          "velocity": 0.8740157480314961,
          "duration": 0.18292675000000713
        },
        {
          "name": "D3",
          "midi": 50,
          "time": 134.45116124999802,
          "velocity": 0.8740157480314961,
          "duration": 0.18292675000000713
        },
        {
          "name": "A2",
          "midi": 45,
          "time": 134.45116124999802,
          "velocity": 0.8740157480314961,
          "duration": 0.18292675000000713
        },
        {
          "name": "D2",
          "midi": 38,
          "time": 134.45116124999802,
          "velocity": 0.8740157480314961,
          "duration": 0.18292675000000713
        },
        {
          "name": "G3",
          "midi": 55,
          "time": 134.63408799999803,
          "velocity": 0.8740157480314961,
          "duration": 0.18292675000000713
        },
        {
          "name": "D3",
          "midi": 50,
          "time": 134.63408799999803,
          "velocity": 0.8740157480314961,
          "duration": 0.18292675000000713
        },
        {
          "name": "G2",
          "midi": 43,
          "time": 134.63408799999803,
          "velocity": 0.8740157480314961,
          "duration": 0.18292675000000713
        },
        {
          "name": "G3",
          "midi": 55,
          "time": 134.81701474999804,
          "velocity": 0.8740157480314961,
          "duration": 0.18292675000000713
        },
        {
          "name": "D3",
          "midi": 50,
          "time": 134.81701474999804,
          "velocity": 0.8740157480314961,
          "duration": 0.18292675000000713
        },
        {
          "name": "G2",
          "midi": 43,
          "time": 134.81701474999804,
          "velocity": 0.8740157480314961,
          "duration": 0.18292675000000713
        },
        {
          "name": "G3",
          "midi": 55,
          "time": 134.99994149999804,
          "velocity": 0.8740157480314961,
          "duration": 0.18292675000000713
        },
        {
          "name": "D3",
          "midi": 50,
          "time": 134.99994149999804,
          "velocity": 0.8740157480314961,
          "duration": 0.18292675000000713
        },
        {
          "name": "G2",
          "midi": 43,
          "time": 134.99994149999804,
          "velocity": 0.8740157480314961,
          "duration": 0.18292675000000713
        },
        {
          "name": "G3",
          "midi": 55,
          "time": 135.18286824999805,
          "velocity": 0.8740157480314961,
          "duration": 0.18292675000000713
        },
        {
          "name": "D3",
          "midi": 50,
          "time": 135.18286824999805,
          "velocity": 0.8740157480314961,
          "duration": 0.18292675000000713
        },
        {
          "name": "G2",
          "midi": 43,
          "time": 135.18286824999805,
          "velocity": 0.8740157480314961,
          "duration": 0.18292675000000713
        },
        {
          "name": "G3",
          "midi": 55,
          "time": 135.36579499999806,
          "velocity": 0.8740157480314961,
          "duration": 0.18292675000000713
        },
        {
          "name": "D3",
          "midi": 50,
          "time": 135.36579499999806,
          "velocity": 0.8740157480314961,
          "duration": 0.18292675000000713
        },
        {
          "name": "G2",
          "midi": 43,
          "time": 135.36579499999806,
          "velocity": 0.8740157480314961,
          "duration": 0.18292675000000713
        },
        {
          "name": "G3",
          "midi": 55,
          "time": 135.54872174999807,
          "velocity": 0.8740157480314961,
          "duration": 0.18292675000000713
        },
        {
          "name": "D3",
          "midi": 50,
          "time": 135.54872174999807,
          "velocity": 0.8740157480314961,
          "duration": 0.18292675000000713
        },
        {
          "name": "G2",
          "midi": 43,
          "time": 135.54872174999807,
          "velocity": 0.8740157480314961,
          "duration": 0.18292675000000713
        },
        {
          "name": "G3",
          "midi": 55,
          "time": 135.73164849999807,
          "velocity": 0.8740157480314961,
          "duration": 0.18292675000000713
        },
        {
          "name": "D3",
          "midi": 50,
          "time": 135.73164849999807,
          "velocity": 0.8740157480314961,
          "duration": 0.18292675000000713
        },
        {
          "name": "G2",
          "midi": 43,
          "time": 135.73164849999807,
          "velocity": 0.8740157480314961,
          "duration": 0.18292675000000713
        },
        {
          "name": "G3",
          "midi": 55,
          "time": 135.91457524999808,
          "velocity": 0.8740157480314961,
          "duration": 0.18292675000000713
        },
        {
          "name": "D3",
          "midi": 50,
          "time": 135.91457524999808,
          "velocity": 0.8740157480314961,
          "duration": 0.18292675000000713
        },
        {
          "name": "G2",
          "midi": 43,
          "time": 135.91457524999808,
          "velocity": 0.8740157480314961,
          "duration": 0.18292675000000713
        },
        {
          "name": "G3",
          "midi": 55,
          "time": 136.0975019999981,
          "velocity": 0.8740157480314961,
          "duration": 0.18292675000000713
        },
        {
          "name": "D3",
          "midi": 50,
          "time": 136.0975019999981,
          "velocity": 0.8740157480314961,
          "duration": 0.18292675000000713
        },
        {
          "name": "G2",
          "midi": 43,
          "time": 136.0975019999981,
          "velocity": 0.8740157480314961,
          "duration": 0.18292675000000713
        },
        {
          "name": "G3",
          "midi": 55,
          "time": 136.2804287499981,
          "velocity": 0.8740157480314961,
          "duration": 0.18292675000000713
        },
        {
          "name": "D3",
          "midi": 50,
          "time": 136.2804287499981,
          "velocity": 0.8740157480314961,
          "duration": 0.18292675000000713
        },
        {
          "name": "G2",
          "midi": 43,
          "time": 136.2804287499981,
          "velocity": 0.8740157480314961,
          "duration": 0.18292675000000713
        },
        {
          "name": "G3",
          "midi": 55,
          "time": 136.4633554999981,
          "velocity": 0.8740157480314961,
          "duration": 0.18292675000000713
        },
        {
          "name": "D3",
          "midi": 50,
          "time": 136.4633554999981,
          "velocity": 0.8740157480314961,
          "duration": 0.18292675000000713
        },
        {
          "name": "G2",
          "midi": 43,
          "time": 136.4633554999981,
          "velocity": 0.8740157480314961,
          "duration": 0.18292675000000713
        },
        {
          "name": "G3",
          "midi": 55,
          "time": 136.6462822499981,
          "velocity": 0.8740157480314961,
          "duration": 0.18292675000000713
        },
        {
          "name": "D3",
          "midi": 50,
          "time": 136.6462822499981,
          "velocity": 0.8740157480314961,
          "duration": 0.18292675000000713
        },
        {
          "name": "G2",
          "midi": 43,
          "time": 136.6462822499981,
          "velocity": 0.8740157480314961,
          "duration": 0.18292675000000713
        },
        {
          "name": "G3",
          "midi": 55,
          "time": 136.82920899999812,
          "velocity": 0.8740157480314961,
          "duration": 0.18292675000000713
        },
        {
          "name": "D3",
          "midi": 50,
          "time": 136.82920899999812,
          "velocity": 0.8740157480314961,
          "duration": 0.18292675000000713
        },
        {
          "name": "G2",
          "midi": 43,
          "time": 136.82920899999812,
          "velocity": 0.8740157480314961,
          "duration": 0.18292675000000713
        },
        {
          "name": "G3",
          "midi": 55,
          "time": 137.01213574999812,
          "velocity": 0.8740157480314961,
          "duration": 0.18292675000000713
        },
        {
          "name": "D3",
          "midi": 50,
          "time": 137.01213574999812,
          "velocity": 0.8740157480314961,
          "duration": 0.18292675000000713
        },
        {
          "name": "G2",
          "midi": 43,
          "time": 137.01213574999812,
          "velocity": 0.8740157480314961,
          "duration": 0.18292675000000713
        },
        {
          "name": "G3",
          "midi": 55,
          "time": 137.19506249999813,
          "velocity": 0.8740157480314961,
          "duration": 0.18292675000000713
        },
        {
          "name": "D3",
          "midi": 50,
          "time": 137.19506249999813,
          "velocity": 0.8740157480314961,
          "duration": 0.18292675000000713
        },
        {
          "name": "G2",
          "midi": 43,
          "time": 137.19506249999813,
          "velocity": 0.8740157480314961,
          "duration": 0.18292675000000713
        },
        {
          "name": "D3",
          "midi": 50,
          "time": 137.37798924999814,
          "velocity": 0.8740157480314961,
          "duration": 0.18292675000000713
        },
        {
          "name": "A2",
          "midi": 45,
          "time": 137.37798924999814,
          "velocity": 0.8740157480314961,
          "duration": 0.18292675000000713
        },
        {
          "name": "D2",
          "midi": 38,
          "time": 137.37798924999814,
          "velocity": 0.8740157480314961,
          "duration": 0.18292675000000713
        },
        {
          "name": "B3",
          "midi": 59,
          "time": 137.56091599999814,
          "velocity": 0.8740157480314961,
          "duration": 0.18292675000000713
        },
        {
          "name": "F#3",
          "midi": 54,
          "time": 137.56091599999814,
          "velocity": 0.8740157480314961,
          "duration": 0.18292675000000713
        },
        {
          "name": "B2",
          "midi": 47,
          "time": 137.56091599999814,
          "velocity": 0.8740157480314961,
          "duration": 0.18292675000000713
        },
        {
          "name": "B3",
          "midi": 59,
          "time": 137.74384274999815,
          "velocity": 0.8740157480314961,
          "duration": 0.18292675000000713
        },
        {
          "name": "F#3",
          "midi": 54,
          "time": 137.74384274999815,
          "velocity": 0.8740157480314961,
          "duration": 0.18292675000000713
        },
        {
          "name": "B2",
          "midi": 47,
          "time": 137.74384274999815,
          "velocity": 0.8740157480314961,
          "duration": 0.18292675000000713
        },
        {
          "name": "B3",
          "midi": 59,
          "time": 137.92676949999816,
          "velocity": 0.8740157480314961,
          "duration": 0.18292675000000713
        },
        {
          "name": "F#3",
          "midi": 54,
          "time": 137.92676949999816,
          "velocity": 0.8740157480314961,
          "duration": 0.18292675000000713
        },
        {
          "name": "B2",
          "midi": 47,
          "time": 137.92676949999816,
          "velocity": 0.8740157480314961,
          "duration": 0.18292675000000713
        },
        {
          "name": "B3",
          "midi": 59,
          "time": 138.10969624999817,
          "velocity": 0.8740157480314961,
          "duration": 0.18292675000000713
        },
        {
          "name": "F#3",
          "midi": 54,
          "time": 138.10969624999817,
          "velocity": 0.8740157480314961,
          "duration": 0.18292675000000713
        },
        {
          "name": "B2",
          "midi": 47,
          "time": 138.10969624999817,
          "velocity": 0.8740157480314961,
          "duration": 0.18292675000000713
        },
        {
          "name": "B3",
          "midi": 59,
          "time": 138.29262299999817,
          "velocity": 0.8740157480314961,
          "duration": 0.18292675000000713
        },
        {
          "name": "F#3",
          "midi": 54,
          "time": 138.29262299999817,
          "velocity": 0.8740157480314961,
          "duration": 0.18292675000000713
        },
        {
          "name": "B2",
          "midi": 47,
          "time": 138.29262299999817,
          "velocity": 0.8740157480314961,
          "duration": 0.18292675000000713
        },
        {
          "name": "B3",
          "midi": 59,
          "time": 138.47554974999818,
          "velocity": 0.8740157480314961,
          "duration": 0.18292675000000713
        },
        {
          "name": "F#3",
          "midi": 54,
          "time": 138.47554974999818,
          "velocity": 0.8740157480314961,
          "duration": 0.18292675000000713
        },
        {
          "name": "B2",
          "midi": 47,
          "time": 138.47554974999818,
          "velocity": 0.8740157480314961,
          "duration": 0.18292675000000713
        },
        {
          "name": "B3",
          "midi": 59,
          "time": 138.6584764999982,
          "velocity": 0.8740157480314961,
          "duration": 0.18292675000000713
        },
        {
          "name": "F#3",
          "midi": 54,
          "time": 138.6584764999982,
          "velocity": 0.8740157480314961,
          "duration": 0.18292675000000713
        },
        {
          "name": "B2",
          "midi": 47,
          "time": 138.6584764999982,
          "velocity": 0.8740157480314961,
          "duration": 0.18292675000000713
        },
        {
          "name": "B3",
          "midi": 59,
          "time": 138.8414032499982,
          "velocity": 0.8740157480314961,
          "duration": 0.18292675000000713
        },
        {
          "name": "F#3",
          "midi": 54,
          "time": 138.8414032499982,
          "velocity": 0.8740157480314961,
          "duration": 0.18292675000000713
        },
        {
          "name": "B2",
          "midi": 47,
          "time": 138.8414032499982,
          "velocity": 0.8740157480314961,
          "duration": 0.18292675000000713
        },
        {
          "name": "B3",
          "midi": 59,
          "time": 139.0243299999982,
          "velocity": 0.8740157480314961,
          "duration": 0.18292675000000713
        },
        {
          "name": "F#3",
          "midi": 54,
          "time": 139.0243299999982,
          "velocity": 0.8740157480314961,
          "duration": 0.18292675000000713
        },
        {
          "name": "B2",
          "midi": 47,
          "time": 139.0243299999982,
          "velocity": 0.8740157480314961,
          "duration": 0.18292675000000713
        },
        {
          "name": "B3",
          "midi": 59,
          "time": 139.2072567499982,
          "velocity": 0.8740157480314961,
          "duration": 0.18292675000000713
        },
        {
          "name": "F#3",
          "midi": 54,
          "time": 139.2072567499982,
          "velocity": 0.8740157480314961,
          "duration": 0.18292675000000713
        },
        {
          "name": "B2",
          "midi": 47,
          "time": 139.2072567499982,
          "velocity": 0.8740157480314961,
          "duration": 0.18292675000000713
        },
        {
          "name": "B3",
          "midi": 59,
          "time": 139.39018349999822,
          "velocity": 0.8740157480314961,
          "duration": 0.18292675000000713
        },
        {
          "name": "F#3",
          "midi": 54,
          "time": 139.39018349999822,
          "velocity": 0.8740157480314961,
          "duration": 0.18292675000000713
        },
        {
          "name": "B2",
          "midi": 47,
          "time": 139.39018349999822,
          "velocity": 0.8740157480314961,
          "duration": 0.18292675000000713
        },
        {
          "name": "B3",
          "midi": 59,
          "time": 139.57311024999822,
          "velocity": 0.8740157480314961,
          "duration": 0.18292675000000713
        },
        {
          "name": "F#3",
          "midi": 54,
          "time": 139.57311024999822,
          "velocity": 0.8740157480314961,
          "duration": 0.18292675000000713
        },
        {
          "name": "B2",
          "midi": 47,
          "time": 139.57311024999822,
          "velocity": 0.8740157480314961,
          "duration": 0.18292675000000713
        },
        {
          "name": "B3",
          "midi": 59,
          "time": 139.75603699999823,
          "velocity": 0.8740157480314961,
          "duration": 0.18292675000000713
        },
        {
          "name": "F#3",
          "midi": 54,
          "time": 139.75603699999823,
          "velocity": 0.8740157480314961,
          "duration": 0.18292675000000713
        },
        {
          "name": "B2",
          "midi": 47,
          "time": 139.75603699999823,
          "velocity": 0.8740157480314961,
          "duration": 0.18292675000000713
        },
        {
          "name": "B3",
          "midi": 59,
          "time": 139.93896374999824,
          "velocity": 0.8740157480314961,
          "duration": 0.18292675000000713
        },
        {
          "name": "F#3",
          "midi": 54,
          "time": 139.93896374999824,
          "velocity": 0.8740157480314961,
          "duration": 0.18292675000000713
        },
        {
          "name": "B2",
          "midi": 47,
          "time": 139.93896374999824,
          "velocity": 0.8740157480314961,
          "duration": 0.18292675000000713
        },
        {
          "name": "B3",
          "midi": 59,
          "time": 140.12189049999824,
          "velocity": 0.8740157480314961,
          "duration": 0.18292675000000713
        },
        {
          "name": "F#3",
          "midi": 54,
          "time": 140.12189049999824,
          "velocity": 0.8740157480314961,
          "duration": 0.18292675000000713
        },
        {
          "name": "B2",
          "midi": 47,
          "time": 140.12189049999824,
          "velocity": 0.8740157480314961,
          "duration": 0.18292675000000713
        },
        {
          "name": "D3",
          "midi": 50,
          "time": 140.30481724999825,
          "velocity": 0.8740157480314961,
          "duration": 0.18292675000000713
        },
        {
          "name": "A2",
          "midi": 45,
          "time": 140.30481724999825,
          "velocity": 0.8740157480314961,
          "duration": 0.18292675000000713
        },
        {
          "name": "D2",
          "midi": 38,
          "time": 140.30481724999825,
          "velocity": 0.8740157480314961,
          "duration": 0.18292675000000713
        },
        {
          "name": "G3",
          "midi": 55,
          "time": 140.48774399999826,
          "velocity": 0.8740157480314961,
          "duration": 0.18292675000000713
        },
        {
          "name": "D3",
          "midi": 50,
          "time": 140.48774399999826,
          "velocity": 0.8740157480314961,
          "duration": 0.18292675000000713
        },
        {
          "name": "G2",
          "midi": 43,
          "time": 140.48774399999826,
          "velocity": 0.8740157480314961,
          "duration": 0.18292675000000713
        },
        {
          "name": "G3",
          "midi": 55,
          "time": 140.67067074999827,
          "velocity": 0.8740157480314961,
          "duration": 0.18292675000000713
        },
        {
          "name": "D3",
          "midi": 50,
          "time": 140.67067074999827,
          "velocity": 0.8740157480314961,
          "duration": 0.18292675000000713
        },
        {
          "name": "G2",
          "midi": 43,
          "time": 140.67067074999827,
          "velocity": 0.8740157480314961,
          "duration": 0.18292675000000713
        },
        {
          "name": "G3",
          "midi": 55,
          "time": 140.85359749999827,
          "velocity": 0.8740157480314961,
          "duration": 0.18292675000000713
        },
        {
          "name": "D3",
          "midi": 50,
          "time": 140.85359749999827,
          "velocity": 0.8740157480314961,
          "duration": 0.18292675000000713
        },
        {
          "name": "G2",
          "midi": 43,
          "time": 140.85359749999827,
          "velocity": 0.8740157480314961,
          "duration": 0.18292675000000713
        },
        {
          "name": "G3",
          "midi": 55,
          "time": 141.03652424999828,
          "velocity": 0.8740157480314961,
          "duration": 0.18292675000000713
        },
        {
          "name": "D3",
          "midi": 50,
          "time": 141.03652424999828,
          "velocity": 0.8740157480314961,
          "duration": 0.18292675000000713
        },
        {
          "name": "G2",
          "midi": 43,
          "time": 141.03652424999828,
          "velocity": 0.8740157480314961,
          "duration": 0.18292675000000713
        },
        {
          "name": "G3",
          "midi": 55,
          "time": 141.2194509999983,
          "velocity": 0.8740157480314961,
          "duration": 0.18292675000000713
        },
        {
          "name": "D3",
          "midi": 50,
          "time": 141.2194509999983,
          "velocity": 0.8740157480314961,
          "duration": 0.18292675000000713
        },
        {
          "name": "G2",
          "midi": 43,
          "time": 141.2194509999983,
          "velocity": 0.8740157480314961,
          "duration": 0.18292675000000713
        },
        {
          "name": "G3",
          "midi": 55,
          "time": 141.4023777499983,
          "velocity": 0.8740157480314961,
          "duration": 0.18292675000000713
        },
        {
          "name": "D3",
          "midi": 50,
          "time": 141.4023777499983,
          "velocity": 0.8740157480314961,
          "duration": 0.18292675000000713
        },
        {
          "name": "G2",
          "midi": 43,
          "time": 141.4023777499983,
          "velocity": 0.8740157480314961,
          "duration": 0.18292675000000713
        },
        {
          "name": "G3",
          "midi": 55,
          "time": 141.5853044999983,
          "velocity": 0.8740157480314961,
          "duration": 0.18292675000000713
        },
        {
          "name": "D3",
          "midi": 50,
          "time": 141.5853044999983,
          "velocity": 0.8740157480314961,
          "duration": 0.18292675000000713
        },
        {
          "name": "G2",
          "midi": 43,
          "time": 141.5853044999983,
          "velocity": 0.8740157480314961,
          "duration": 0.18292675000000713
        },
        {
          "name": "G3",
          "midi": 55,
          "time": 141.7682312499983,
          "velocity": 0.8740157480314961,
          "duration": 0.18292675000000713
        },
        {
          "name": "D3",
          "midi": 50,
          "time": 141.7682312499983,
          "velocity": 0.8740157480314961,
          "duration": 0.18292675000000713
        },
        {
          "name": "G2",
          "midi": 43,
          "time": 141.7682312499983,
          "velocity": 0.8740157480314961,
          "duration": 0.18292675000000713
        },
        {
          "name": "G3",
          "midi": 55,
          "time": 141.95115799999832,
          "velocity": 0.8740157480314961,
          "duration": 0.18292675000000713
        },
        {
          "name": "D3",
          "midi": 50,
          "time": 141.95115799999832,
          "velocity": 0.8740157480314961,
          "duration": 0.18292675000000713
        },
        {
          "name": "G2",
          "midi": 43,
          "time": 141.95115799999832,
          "velocity": 0.8740157480314961,
          "duration": 0.18292675000000713
        },
        {
          "name": "G3",
          "midi": 55,
          "time": 142.13408474999832,
          "velocity": 0.8740157480314961,
          "duration": 0.18292675000000713
        },
        {
          "name": "D3",
          "midi": 50,
          "time": 142.13408474999832,
          "velocity": 0.8740157480314961,
          "duration": 0.18292675000000713
        },
        {
          "name": "G2",
          "midi": 43,
          "time": 142.13408474999832,
          "velocity": 0.8740157480314961,
          "duration": 0.18292675000000713
        },
        {
          "name": "G3",
          "midi": 55,
          "time": 142.31701149999833,
          "velocity": 0.8740157480314961,
          "duration": 0.18292675000000713
        },
        {
          "name": "D3",
          "midi": 50,
          "time": 142.31701149999833,
          "velocity": 0.8740157480314961,
          "duration": 0.18292675000000713
        },
        {
          "name": "G2",
          "midi": 43,
          "time": 142.31701149999833,
          "velocity": 0.8740157480314961,
          "duration": 0.18292675000000713
        },
        {
          "name": "G3",
          "midi": 55,
          "time": 142.49993824999834,
          "velocity": 0.8740157480314961,
          "duration": 0.18292675000000713
        },
        {
          "name": "D3",
          "midi": 50,
          "time": 142.49993824999834,
          "velocity": 0.8740157480314961,
          "duration": 0.18292675000000713
        },
        {
          "name": "G2",
          "midi": 43,
          "time": 142.49993824999834,
          "velocity": 0.8740157480314961,
          "duration": 0.18292675000000713
        },
        {
          "name": "A2",
          "midi": 45,
          "time": 142.68286499999834,
          "velocity": 0.8740157480314961,
          "duration": 0.030487791666672592
        },
        {
          "name": "D2",
          "midi": 38,
          "time": 142.68286499999834,
          "velocity": 0.8740157480314961,
          "duration": 0.030487791666672592
        },
        {
          "name": "A2",
          "midi": 45,
          "time": 142.86579174999835,
          "velocity": 0.8740157480314961,
          "duration": 0.030487791666672592
        },
        {
          "name": "D2",
          "midi": 38,
          "time": 142.86579174999835,
          "velocity": 0.8740157480314961,
          "duration": 0.030487791666672592
        },
        {
          "name": "A2",
          "midi": 45,
          "time": 143.04871849999836,
          "velocity": 0.8740157480314961,
          "duration": 0.030487791666672592
        },
        {
          "name": "D2",
          "midi": 38,
          "time": 143.04871849999836,
          "velocity": 0.8740157480314961,
          "duration": 0.030487791666672592
        },
        {
          "name": "D3",
          "midi": 50,
          "time": 143.23164524999837,
          "velocity": 0.8740157480314961,
          "duration": 0.030487791666672592
        },
        {
          "name": "A2",
          "midi": 45,
          "time": 143.23164524999837,
          "velocity": 0.8740157480314961,
          "duration": 0.030487791666672592
        },
        {
          "name": "D2",
          "midi": 38,
          "time": 143.23164524999837,
          "velocity": 0.8740157480314961,
          "duration": 0.030487791666672592
        },
        {
          "name": "F#4",
          "midi": 66,
          "time": 143.41457199999837,
          "velocity": 0.8740157480314961,
          "duration": 0.18292675000000713
        },
        {
          "name": "D4",
          "midi": 62,
          "time": 143.41457199999837,
          "velocity": 0.8740157480314961,
          "duration": 0.18292675000000713
        },
        {
          "name": "F#4",
          "midi": 66,
          "time": 143.59749874999838,
          "velocity": 0.8740157480314961,
          "duration": 0.18292675000000713
        },
        {
          "name": "D4",
          "midi": 62,
          "time": 143.59749874999838,
          "velocity": 0.8740157480314961,
          "duration": 0.18292675000000713
        },
        {
          "name": "F#4",
          "midi": 66,
          "time": 143.7804254999984,
          "velocity": 0.8740157480314961,
          "duration": 0.18292675000000713
        },
        {
          "name": "D4",
          "midi": 62,
          "time": 143.7804254999984,
          "velocity": 0.8740157480314961,
          "duration": 0.18292675000000713
        },
        {
          "name": "E4",
          "midi": 64,
          "time": 143.9633522499984,
          "velocity": 0.8740157480314961,
          "duration": 0.18292675000000713
        },
        {
          "name": "D4",
          "midi": 62,
          "time": 143.9633522499984,
          "velocity": 0.8740157480314961,
          "duration": 0.18292675000000713
        },
        {
          "name": "E4",
          "midi": 64,
          "time": 144.1462789999984,
          "velocity": 0.8740157480314961,
          "duration": 0.18292675000000713
        },
        {
          "name": "D4",
          "midi": 62,
          "time": 144.1462789999984,
          "velocity": 0.8740157480314961,
          "duration": 0.18292675000000713
        },
        {
          "name": "E4",
          "midi": 64,
          "time": 144.3292057499984,
          "velocity": 0.8740157480314961,
          "duration": 0.18292675000000713
        },
        {
          "name": "D4",
          "midi": 62,
          "time": 144.3292057499984,
          "velocity": 0.8740157480314961,
          "duration": 0.18292675000000713
        },
        {
          "name": "G4",
          "midi": 67,
          "time": 144.51213249999842,
          "velocity": 0.8740157480314961,
          "duration": 0.18292675000000713
        },
        {
          "name": "D4",
          "midi": 62,
          "time": 144.51213249999842,
          "velocity": 0.8740157480314961,
          "duration": 0.18292675000000713
        },
        {
          "name": "G4",
          "midi": 67,
          "time": 144.69505924999842,
          "velocity": 0.8740157480314961,
          "duration": 0.18292675000000713
        },
        {
          "name": "D4",
          "midi": 62,
          "time": 144.69505924999842,
          "velocity": 0.8740157480314961,
          "duration": 0.18292675000000713
        },
        {
          "name": "G4",
          "midi": 67,
          "time": 144.87798599999843,
          "velocity": 0.8740157480314961,
          "duration": 0.18292675000000713
        },
        {
          "name": "D4",
          "midi": 62,
          "time": 144.87798599999843,
          "velocity": 0.8740157480314961,
          "duration": 0.18292675000000713
        },
        {
          "name": "E4",
          "midi": 64,
          "time": 145.06091274999844,
          "velocity": 0.8740157480314961,
          "duration": 0.18292675000000713
        },
        {
          "name": "D4",
          "midi": 62,
          "time": 145.06091274999844,
          "velocity": 0.8740157480314961,
          "duration": 0.18292675000000713
        },
        {
          "name": "E4",
          "midi": 64,
          "time": 145.24383949999844,
          "velocity": 0.8740157480314961,
          "duration": 0.18292675000000713
        },
        {
          "name": "D4",
          "midi": 62,
          "time": 145.24383949999844,
          "velocity": 0.8740157480314961,
          "duration": 0.18292675000000713
        },
        {
          "name": "E4",
          "midi": 64,
          "time": 145.42676624999845,
          "velocity": 0.8740157480314961,
          "duration": 0.18292675000000713
        },
        {
          "name": "D4",
          "midi": 62,
          "time": 145.42676624999845,
          "velocity": 0.8740157480314961,
          "duration": 0.18292675000000713
        },
        {
          "name": "F#4",
          "midi": 66,
          "time": 145.60969299999846,
          "velocity": 0.8740157480314961,
          "duration": 0.18292675000000713
        },
        {
          "name": "D4",
          "midi": 62,
          "time": 145.60969299999846,
          "velocity": 0.8740157480314961,
          "duration": 0.18292675000000713
        },
        {
          "name": "F#4",
          "midi": 66,
          "time": 145.79261974999847,
          "velocity": 0.8740157480314961,
          "duration": 0.18292675000000713
        },
        {
          "name": "D4",
          "midi": 62,
          "time": 145.79261974999847,
          "velocity": 0.8740157480314961,
          "duration": 0.18292675000000713
        },
        {
          "name": "E4",
          "midi": 64,
          "time": 145.97554649999847,
          "velocity": 0.8740157480314961,
          "duration": 0.36585349999998584
        },
        {
          "name": "D4",
          "midi": 62,
          "time": 145.97554649999847,
          "velocity": 0.8740157480314961,
          "duration": 0.36585349999998584
        },
        {
          "name": "F#4",
          "midi": 66,
          "time": 146.34139999999846,
          "velocity": 0.8740157480314961,
          "duration": 0.18292675000000713
        },
        {
          "name": "D4",
          "midi": 62,
          "time": 146.34139999999846,
          "velocity": 0.8740157480314961,
          "duration": 0.18292675000000713
        },
        {
          "name": "F#4",
          "midi": 66,
          "time": 146.52432674999847,
          "velocity": 0.8740157480314961,
          "duration": 0.18292675000000713
        },
        {
          "name": "D4",
          "midi": 62,
          "time": 146.52432674999847,
          "velocity": 0.8740157480314961,
          "duration": 0.18292675000000713
        },
        {
          "name": "F#4",
          "midi": 66,
          "time": 146.70725349999847,
          "velocity": 0.8740157480314961,
          "duration": 0.18292675000000713
        },
        {
          "name": "D4",
          "midi": 62,
          "time": 146.70725349999847,
          "velocity": 0.8740157480314961,
          "duration": 0.18292675000000713
        },
        {
          "name": "E4",
          "midi": 64,
          "time": 146.89018024999848,
          "velocity": 0.8740157480314961,
          "duration": 0.18292675000000713
        },
        {
          "name": "D4",
          "midi": 62,
          "time": 146.89018024999848,
          "velocity": 0.8740157480314961,
          "duration": 0.18292675000000713
        },
        {
          "name": "E4",
          "midi": 64,
          "time": 147.0731069999985,
          "velocity": 0.8740157480314961,
          "duration": 0.18292675000000713
        },
        {
          "name": "D4",
          "midi": 62,
          "time": 147.0731069999985,
          "velocity": 0.8740157480314961,
          "duration": 0.18292675000000713
        },
        {
          "name": "E4",
          "midi": 64,
          "time": 147.2560337499985,
          "velocity": 0.8740157480314961,
          "duration": 0.18292675000000713
        },
        {
          "name": "D4",
          "midi": 62,
          "time": 147.2560337499985,
          "velocity": 0.8740157480314961,
          "duration": 0.18292675000000713
        },
        {
          "name": "G4",
          "midi": 67,
          "time": 147.4389604999985,
          "velocity": 0.8740157480314961,
          "duration": 0.18292675000000713
        },
        {
          "name": "D4",
          "midi": 62,
          "time": 147.4389604999985,
          "velocity": 0.8740157480314961,
          "duration": 0.18292675000000713
        },
        {
          "name": "G4",
          "midi": 67,
          "time": 147.6218872499985,
          "velocity": 0.8740157480314961,
          "duration": 0.18292675000000713
        },
        {
          "name": "D4",
          "midi": 62,
          "time": 147.6218872499985,
          "velocity": 0.8740157480314961,
          "duration": 0.18292675000000713
        },
        {
          "name": "G4",
          "midi": 67,
          "time": 147.80481399999852,
          "velocity": 0.8740157480314961,
          "duration": 0.18292675000000713
        },
        {
          "name": "D4",
          "midi": 62,
          "time": 147.80481399999852,
          "velocity": 0.8740157480314961,
          "duration": 0.18292675000000713
        },
        {
          "name": "E4",
          "midi": 64,
          "time": 147.98774074999852,
          "velocity": 0.8740157480314961,
          "duration": 0.18292675000000713
        },
        {
          "name": "D4",
          "midi": 62,
          "time": 147.98774074999852,
          "velocity": 0.8740157480314961,
          "duration": 0.18292675000000713
        },
        {
          "name": "E4",
          "midi": 64,
          "time": 148.17066749999853,
          "velocity": 0.8740157480314961,
          "duration": 0.18292675000000713
        },
        {
          "name": "D4",
          "midi": 62,
          "time": 148.17066749999853,
          "velocity": 0.8740157480314961,
          "duration": 0.18292675000000713
        },
        {
          "name": "E4",
          "midi": 64,
          "time": 148.35359424999854,
          "velocity": 0.8740157480314961,
          "duration": 0.18292675000000713
        },
        {
          "name": "D4",
          "midi": 62,
          "time": 148.35359424999854,
          "velocity": 0.8740157480314961,
          "duration": 0.18292675000000713
        },
        {
          "name": "F#4",
          "midi": 66,
          "time": 148.53652099999854,
          "velocity": 0.8740157480314961,
          "duration": 0.18292675000000713
        },
        {
          "name": "D4",
          "midi": 62,
          "time": 148.53652099999854,
          "velocity": 0.8740157480314961,
          "duration": 0.18292675000000713
        },
        {
          "name": "F#4",
          "midi": 66,
          "time": 148.71944774999855,
          "velocity": 0.8740157480314961,
          "duration": 0.18292675000000713
        },
        {
          "name": "D4",
          "midi": 62,
          "time": 148.71944774999855,
          "velocity": 0.8740157480314961,
          "duration": 0.18292675000000713
        },
        {
          "name": "E4",
          "midi": 64,
          "time": 148.90237449999856,
          "velocity": 0.8740157480314961,
          "duration": 0.36585349999998584
        },
        {
          "name": "D4",
          "midi": 62,
          "time": 148.90237449999856,
          "velocity": 0.8740157480314961,
          "duration": 0.36585349999998584
        },
        {
          "name": "F#4",
          "midi": 66,
          "time": 149.26822799999854,
          "velocity": 0.8740157480314961,
          "duration": 0.18292675000000713
        },
        {
          "name": "D4",
          "midi": 62,
          "time": 149.26822799999854,
          "velocity": 0.8740157480314961,
          "duration": 0.18292675000000713
        },
        {
          "name": "F#4",
          "midi": 66,
          "time": 149.45115474999855,
          "velocity": 0.8740157480314961,
          "duration": 0.18292675000000713
        },
        {
          "name": "D4",
          "midi": 62,
          "time": 149.45115474999855,
          "velocity": 0.8740157480314961,
          "duration": 0.18292675000000713
        },
        {
          "name": "F#4",
          "midi": 66,
          "time": 149.63408149999856,
          "velocity": 0.8740157480314961,
          "duration": 0.18292675000000713
        },
        {
          "name": "D4",
          "midi": 62,
          "time": 149.63408149999856,
          "velocity": 0.8740157480314961,
          "duration": 0.18292675000000713
        },
        {
          "name": "E4",
          "midi": 64,
          "time": 149.81700824999857,
          "velocity": 0.8740157480314961,
          "duration": 0.18292675000000713
        },
        {
          "name": "D4",
          "midi": 62,
          "time": 149.81700824999857,
          "velocity": 0.8740157480314961,
          "duration": 0.18292675000000713
        },
        {
          "name": "E4",
          "midi": 64,
          "time": 149.99993499999857,
          "velocity": 0.8740157480314961,
          "duration": 0.18292675000000713
        },
        {
          "name": "D4",
          "midi": 62,
          "time": 149.99993499999857,
          "velocity": 0.8740157480314961,
          "duration": 0.18292675000000713
        },
        {
          "name": "E4",
          "midi": 64,
          "time": 150.18286174999858,
          "velocity": 0.8740157480314961,
          "duration": 0.18292675000000713
        },
        {
          "name": "D4",
          "midi": 62,
          "time": 150.18286174999858,
          "velocity": 0.8740157480314961,
          "duration": 0.18292675000000713
        },
        {
          "name": "G4",
          "midi": 67,
          "time": 150.3657884999986,
          "velocity": 0.8740157480314961,
          "duration": 0.18292675000000713
        },
        {
          "name": "D4",
          "midi": 62,
          "time": 150.3657884999986,
          "velocity": 0.8740157480314961,
          "duration": 0.18292675000000713
        },
        {
          "name": "G4",
          "midi": 67,
          "time": 150.5487152499986,
          "velocity": 0.8740157480314961,
          "duration": 0.18292675000000713
        },
        {
          "name": "D4",
          "midi": 62,
          "time": 150.5487152499986,
          "velocity": 0.8740157480314961,
          "duration": 0.18292675000000713
        },
        {
          "name": "G4",
          "midi": 67,
          "time": 150.7316419999986,
          "velocity": 0.8740157480314961,
          "duration": 0.18292675000000713
        },
        {
          "name": "D4",
          "midi": 62,
          "time": 150.7316419999986,
          "velocity": 0.8740157480314961,
          "duration": 0.18292675000000713
        },
        {
          "name": "E4",
          "midi": 64,
          "time": 150.9145687499986,
          "velocity": 0.8740157480314961,
          "duration": 0.18292675000000713
        },
        {
          "name": "D4",
          "midi": 62,
          "time": 150.9145687499986,
          "velocity": 0.8740157480314961,
          "duration": 0.18292675000000713
        },
        {
          "name": "E4",
          "midi": 64,
          "time": 151.09749549999862,
          "velocity": 0.8740157480314961,
          "duration": 0.18292675000000713
        },
        {
          "name": "D4",
          "midi": 62,
          "time": 151.09749549999862,
          "velocity": 0.8740157480314961,
          "duration": 0.18292675000000713
        },
        {
          "name": "E4",
          "midi": 64,
          "time": 151.28042224999862,
          "velocity": 0.8740157480314961,
          "duration": 0.18292675000000713
        },
        {
          "name": "D4",
          "midi": 62,
          "time": 151.28042224999862,
          "velocity": 0.8740157480314961,
          "duration": 0.18292675000000713
        },
        {
          "name": "F#4",
          "midi": 66,
          "time": 151.46334899999863,
          "velocity": 0.8740157480314961,
          "duration": 0.18292675000000713
        },
        {
          "name": "D4",
          "midi": 62,
          "time": 151.46334899999863,
          "velocity": 0.8740157480314961,
          "duration": 0.18292675000000713
        },
        {
          "name": "F#4",
          "midi": 66,
          "time": 151.64627574999864,
          "velocity": 0.8740157480314961,
          "duration": 0.18292675000000713
        },
        {
          "name": "D4",
          "midi": 62,
          "time": 151.64627574999864,
          "velocity": 0.8740157480314961,
          "duration": 0.18292675000000713
        },
        {
          "name": "E4",
          "midi": 64,
          "time": 151.82920249999864,
          "velocity": 0.8740157480314961,
          "duration": 0.36585349999998584
        },
        {
          "name": "D4",
          "midi": 62,
          "time": 151.82920249999864,
          "velocity": 0.8740157480314961,
          "duration": 0.36585349999998584
        },
        {
          "name": "F#4",
          "midi": 66,
          "time": 152.19505599999863,
          "velocity": 0.8740157480314961,
          "duration": 0.18292675000000713
        },
        {
          "name": "D4",
          "midi": 62,
          "time": 152.19505599999863,
          "velocity": 0.8740157480314961,
          "duration": 0.18292675000000713
        },
        {
          "name": "F#4",
          "midi": 66,
          "time": 152.37798274999864,
          "velocity": 0.8740157480314961,
          "duration": 0.18292675000000713
        },
        {
          "name": "D4",
          "midi": 62,
          "time": 152.37798274999864,
          "velocity": 0.8740157480314961,
          "duration": 0.18292675000000713
        },
        {
          "name": "F#4",
          "midi": 66,
          "time": 152.56090949999864,
          "velocity": 0.8740157480314961,
          "duration": 0.18292675000000713
        },
        {
          "name": "D4",
          "midi": 62,
          "time": 152.56090949999864,
          "velocity": 0.8740157480314961,
          "duration": 0.18292675000000713
        },
        {
          "name": "E4",
          "midi": 64,
          "time": 152.74383624999865,
          "velocity": 0.8740157480314961,
          "duration": 0.18292675000000713
        },
        {
          "name": "D4",
          "midi": 62,
          "time": 152.74383624999865,
          "velocity": 0.8740157480314961,
          "duration": 0.18292675000000713
        },
        {
          "name": "E4",
          "midi": 64,
          "time": 152.92676299999866,
          "velocity": 0.8740157480314961,
          "duration": 0.18292675000000713
        },
        {
          "name": "D4",
          "midi": 62,
          "time": 152.92676299999866,
          "velocity": 0.8740157480314961,
          "duration": 0.18292675000000713
        },
        {
          "name": "E4",
          "midi": 64,
          "time": 153.10968974999867,
          "velocity": 0.8740157480314961,
          "duration": 0.18292675000000713
        },
        {
          "name": "D4",
          "midi": 62,
          "time": 153.10968974999867,
          "velocity": 0.8740157480314961,
          "duration": 0.18292675000000713
        },
        {
          "name": "G4",
          "midi": 67,
          "time": 153.29261649999867,
          "velocity": 0.8740157480314961,
          "duration": 0.18292675000000713
        },
        {
          "name": "D4",
          "midi": 62,
          "time": 153.29261649999867,
          "velocity": 0.8740157480314961,
          "duration": 0.18292675000000713
        },
        {
          "name": "G4",
          "midi": 67,
          "time": 153.47554324999868,
          "velocity": 0.8740157480314961,
          "duration": 0.18292675000000713
        },
        {
          "name": "D4",
          "midi": 62,
          "time": 153.47554324999868,
          "velocity": 0.8740157480314961,
          "duration": 0.18292675000000713
        },
        {
          "name": "G4",
          "midi": 67,
          "time": 153.6584699999987,
          "velocity": 0.8740157480314961,
          "duration": 0.18292675000000713
        },
        {
          "name": "D4",
          "midi": 62,
          "time": 153.6584699999987,
          "velocity": 0.8740157480314961,
          "duration": 0.18292675000000713
        },
        {
          "name": "E4",
          "midi": 64,
          "time": 153.8413967499987,
          "velocity": 0.8740157480314961,
          "duration": 0.18292675000000713
        },
        {
          "name": "D4",
          "midi": 62,
          "time": 153.8413967499987,
          "velocity": 0.8740157480314961,
          "duration": 0.18292675000000713
        },
        {
          "name": "E4",
          "midi": 64,
          "time": 154.0243234999987,
          "velocity": 0.8740157480314961,
          "duration": 0.18292675000000713
        },
        {
          "name": "D4",
          "midi": 62,
          "time": 154.0243234999987,
          "velocity": 0.8740157480314961,
          "duration": 0.18292675000000713
        },
        {
          "name": "E4",
          "midi": 64,
          "time": 154.2072502499987,
          "velocity": 0.8740157480314961,
          "duration": 0.18292675000000713
        },
        {
          "name": "D4",
          "midi": 62,
          "time": 154.2072502499987,
          "velocity": 0.8740157480314961,
          "duration": 0.18292675000000713
        },
        {
          "name": "F#4",
          "midi": 66,
          "time": 154.39017699999872,
          "velocity": 0.8740157480314961,
          "duration": 0.18292675000000713
        },
        {
          "name": "D4",
          "midi": 62,
          "time": 154.39017699999872,
          "velocity": 0.8740157480314961,
          "duration": 0.18292675000000713
        },
        {
          "name": "F#4",
          "midi": 66,
          "time": 154.57310374999872,
          "velocity": 0.8740157480314961,
          "duration": 0.18292675000000713
        },
        {
          "name": "D4",
          "midi": 62,
          "time": 154.57310374999872,
          "velocity": 0.8740157480314961,
          "duration": 0.18292675000000713
        },
        {
          "name": "E4",
          "midi": 64,
          "time": 154.75603049999873,
          "velocity": 0.8740157480314961,
          "duration": 0.36585349999998584
        },
        {
          "name": "D4",
          "midi": 62,
          "time": 154.75603049999873,
          "velocity": 0.8740157480314961,
          "duration": 0.36585349999998584
        },
        {
          "name": "E3",
          "midi": 52,
          "time": 155.12188399999872,
          "velocity": 0.7480314960629921,
          "duration": 0.18292675000000713
        },
        {
          "name": "B2",
          "midi": 47,
          "time": 155.12188399999872,
          "velocity": 0.7480314960629921,
          "duration": 0.18292675000000713
        },
        {
          "name": "E2",
          "midi": 40,
          "time": 155.12188399999872,
          "velocity": 0.7480314960629921,
          "duration": 0.18292675000000713
        },
        {
          "name": "B2",
          "midi": 47,
          "time": 155.30481074999872,
          "velocity": 0.6771653543307087,
          "duration": 0.18292675000000713
        },
        {
          "name": "E2",
          "midi": 40,
          "time": 155.30481074999872,
          "velocity": 0.6771653543307087,
          "duration": 0.18292675000000713
        },
        {
          "name": "B2",
          "midi": 47,
          "time": 155.67066424999874,
          "velocity": 0.6771653543307087,
          "duration": 0.18292675000000713
        },
        {
          "name": "E2",
          "midi": 40,
          "time": 155.67066424999874,
          "velocity": 0.6771653543307087,
          "duration": 0.18292675000000713
        },
        {
          "name": "B2",
          "midi": 47,
          "time": 156.03651774999875,
          "velocity": 0.6771653543307087,
          "duration": 0.18292675000000713
        },
        {
          "name": "E2",
          "midi": 40,
          "time": 156.03651774999875,
          "velocity": 0.6771653543307087,
          "duration": 0.18292675000000713
        },
        {
          "name": "D3",
          "midi": 50,
          "time": 156.21944449999876,
          "velocity": 0.7480314960629921,
          "duration": 6.219509499999987
        },
        {
          "name": "A2",
          "midi": 45,
          "time": 156.21944449999876,
          "velocity": 0.7480314960629921,
          "duration": 6.219509499999987
        },
        {
          "name": "D2",
          "midi": 38,
          "time": 156.21944449999876,
          "velocity": 0.7480314960629921,
          "duration": 6.219509499999987
        },
        {
          "name": "G3",
          "midi": 55,
          "time": 162.43895399999874,
          "velocity": 0.7480314960629921,
          "duration": 5.853656000000001
        },
        {
          "name": "D3",
          "midi": 50,
          "time": 162.43895399999874,
          "velocity": 0.7480314960629921,
          "duration": 5.853656000000001
        },
        {
          "name": "G2",
          "midi": 43,
          "time": 162.43895399999874,
          "velocity": 0.7480314960629921,
          "duration": 5.853656000000001
        },
        {
          "name": "F#4",
          "midi": 66,
          "time": 168.29260999999875,
          "velocity": 0.8740157480314961,
          "duration": 0.18292675000000713
        },
        {
          "name": "D4",
          "midi": 62,
          "time": 168.29260999999875,
          "velocity": 0.8740157480314961,
          "duration": 0.18292675000000713
        },
        {
          "name": "F#4",
          "midi": 66,
          "time": 168.47553674999875,
          "velocity": 0.8740157480314961,
          "duration": 0.18292675000000713
        },
        {
          "name": "D4",
          "midi": 62,
          "time": 168.47553674999875,
          "velocity": 0.8740157480314961,
          "duration": 0.18292675000000713
        },
        {
          "name": "F#4",
          "midi": 66,
          "time": 168.65846349999876,
          "velocity": 0.8740157480314961,
          "duration": 0.18292675000000713
        },
        {
          "name": "D4",
          "midi": 62,
          "time": 168.65846349999876,
          "velocity": 0.8740157480314961,
          "duration": 0.18292675000000713
        },
        {
          "name": "E4",
          "midi": 64,
          "time": 168.84139024999877,
          "velocity": 0.8740157480314961,
          "duration": 0.18292675000000713
        },
        {
          "name": "D4",
          "midi": 62,
          "time": 168.84139024999877,
          "velocity": 0.8740157480314961,
          "duration": 0.18292675000000713
        },
        {
          "name": "E4",
          "midi": 64,
          "time": 169.02431699999877,
          "velocity": 0.8740157480314961,
          "duration": 0.18292675000000713
        },
        {
          "name": "D4",
          "midi": 62,
          "time": 169.02431699999877,
          "velocity": 0.8740157480314961,
          "duration": 0.18292675000000713
        },
        {
          "name": "E4",
          "midi": 64,
          "time": 169.20724374999878,
          "velocity": 0.8740157480314961,
          "duration": 0.18292675000000713
        },
        {
          "name": "D4",
          "midi": 62,
          "time": 169.20724374999878,
          "velocity": 0.8740157480314961,
          "duration": 0.18292675000000713
        },
        {
          "name": "G4",
          "midi": 67,
          "time": 169.3901704999988,
          "velocity": 0.8740157480314961,
          "duration": 0.18292675000000713
        },
        {
          "name": "D4",
          "midi": 62,
          "time": 169.3901704999988,
          "velocity": 0.8740157480314961,
          "duration": 0.18292675000000713
        },
        {
          "name": "G4",
          "midi": 67,
          "time": 169.5730972499988,
          "velocity": 0.8740157480314961,
          "duration": 0.18292675000000713
        },
        {
          "name": "D4",
          "midi": 62,
          "time": 169.5730972499988,
          "velocity": 0.8740157480314961,
          "duration": 0.18292675000000713
        },
        {
          "name": "G4",
          "midi": 67,
          "time": 169.7560239999988,
          "velocity": 0.8740157480314961,
          "duration": 0.18292675000000713
        },
        {
          "name": "D4",
          "midi": 62,
          "time": 169.7560239999988,
          "velocity": 0.8740157480314961,
          "duration": 0.18292675000000713
        },
        {
          "name": "E4",
          "midi": 64,
          "time": 169.9389507499988,
          "velocity": 0.8740157480314961,
          "duration": 0.18292675000000713
        },
        {
          "name": "D4",
          "midi": 62,
          "time": 169.9389507499988,
          "velocity": 0.8740157480314961,
          "duration": 0.18292675000000713
        },
        {
          "name": "E4",
          "midi": 64,
          "time": 170.12187749999882,
          "velocity": 0.8740157480314961,
          "duration": 0.18292675000000713
        },
        {
          "name": "D4",
          "midi": 62,
          "time": 170.12187749999882,
          "velocity": 0.8740157480314961,
          "duration": 0.18292675000000713
        },
        {
          "name": "E4",
          "midi": 64,
          "time": 170.30480424999882,
          "velocity": 0.8740157480314961,
          "duration": 0.18292675000000713
        },
        {
          "name": "D4",
          "midi": 62,
          "time": 170.30480424999882,
          "velocity": 0.8740157480314961,
          "duration": 0.18292675000000713
        },
        {
          "name": "F#4",
          "midi": 66,
          "time": 170.48773099999883,
          "velocity": 0.8740157480314961,
          "duration": 0.18292675000000713
        },
        {
          "name": "D4",
          "midi": 62,
          "time": 170.48773099999883,
          "velocity": 0.8740157480314961,
          "duration": 0.18292675000000713
        },
        {
          "name": "F#4",
          "midi": 66,
          "time": 170.67065774999884,
          "velocity": 0.8740157480314961,
          "duration": 0.18292675000000713
        },
        {
          "name": "D4",
          "midi": 62,
          "time": 170.67065774999884,
          "velocity": 0.8740157480314961,
          "duration": 0.18292675000000713
        },
        {
          "name": "E4",
          "midi": 64,
          "time": 170.85358449999885,
          "velocity": 0.8740157480314961,
          "duration": 0.36585349999998584
        },
        {
          "name": "D4",
          "midi": 62,
          "time": 170.85358449999885,
          "velocity": 0.8740157480314961,
          "duration": 0.36585349999998584
        },
        {
          "name": "F#4",
          "midi": 66,
          "time": 171.21943799999883,
          "velocity": 0.8740157480314961,
          "duration": 0.18292675000000713
        },
        {
          "name": "D4",
          "midi": 62,
          "time": 171.21943799999883,
          "velocity": 0.8740157480314961,
          "duration": 0.18292675000000713
        },
        {
          "name": "F#4",
          "midi": 66,
          "time": 171.40236474999884,
          "velocity": 0.8740157480314961,
          "duration": 0.18292675000000713
        },
        {
          "name": "D4",
          "midi": 62,
          "time": 171.40236474999884,
          "velocity": 0.8740157480314961,
          "duration": 0.18292675000000713
        },
        {
          "name": "F#4",
          "midi": 66,
          "time": 171.58529149999885,
          "velocity": 0.8740157480314961,
          "duration": 0.18292675000000713
        },
        {
          "name": "D4",
          "midi": 62,
          "time": 171.58529149999885,
          "velocity": 0.8740157480314961,
          "duration": 0.18292675000000713
        },
        {
          "name": "E4",
          "midi": 64,
          "time": 171.76821824999885,
          "velocity": 0.8740157480314961,
          "duration": 0.18292675000000713
        },
        {
          "name": "D4",
          "midi": 62,
          "time": 171.76821824999885,
          "velocity": 0.8740157480314961,
          "duration": 0.18292675000000713
        },
        {
          "name": "E4",
          "midi": 64,
          "time": 171.95114499999886,
          "velocity": 0.8740157480314961,
          "duration": 0.18292675000000713
        },
        {
          "name": "D4",
          "midi": 62,
          "time": 171.95114499999886,
          "velocity": 0.8740157480314961,
          "duration": 0.18292675000000713
        },
        {
          "name": "E4",
          "midi": 64,
          "time": 172.13407174999887,
          "velocity": 0.8740157480314961,
          "duration": 0.18292675000000713
        },
        {
          "name": "D4",
          "midi": 62,
          "time": 172.13407174999887,
          "velocity": 0.8740157480314961,
          "duration": 0.18292675000000713
        },
        {
          "name": "G4",
          "midi": 67,
          "time": 172.31699849999887,
          "velocity": 0.8740157480314961,
          "duration": 0.18292675000000713
        },
        {
          "name": "D4",
          "midi": 62,
          "time": 172.31699849999887,
          "velocity": 0.8740157480314961,
          "duration": 0.18292675000000713
        },
        {
          "name": "G4",
          "midi": 67,
          "time": 172.49992524999888,
          "velocity": 0.8740157480314961,
          "duration": 0.18292675000000713
        },
        {
          "name": "D4",
          "midi": 62,
          "time": 172.49992524999888,
          "velocity": 0.8740157480314961,
          "duration": 0.18292675000000713
        },
        {
          "name": "G4",
          "midi": 67,
          "time": 172.6828519999989,
          "velocity": 0.8740157480314961,
          "duration": 0.18292675000000713
        },
        {
          "name": "D4",
          "midi": 62,
          "time": 172.6828519999989,
          "velocity": 0.8740157480314961,
          "duration": 0.18292675000000713
        },
        {
          "name": "E4",
          "midi": 64,
          "time": 172.8657787499989,
          "velocity": 0.8740157480314961,
          "duration": 0.18292675000000713
        },
        {
          "name": "D4",
          "midi": 62,
          "time": 172.8657787499989,
          "velocity": 0.8740157480314961,
          "duration": 0.18292675000000713
        },
        {
          "name": "E4",
          "midi": 64,
          "time": 173.0487054999989,
          "velocity": 0.8740157480314961,
          "duration": 0.18292675000000713
        },
        {
          "name": "D4",
          "midi": 62,
          "time": 173.0487054999989,
          "velocity": 0.8740157480314961,
          "duration": 0.18292675000000713
        },
        {
          "name": "E4",
          "midi": 64,
          "time": 173.2316322499989,
          "velocity": 0.8740157480314961,
          "duration": 0.18292675000000713
        },
        {
          "name": "D4",
          "midi": 62,
          "time": 173.2316322499989,
          "velocity": 0.8740157480314961,
          "duration": 0.18292675000000713
        },
        {
          "name": "F#4",
          "midi": 66,
          "time": 173.41455899999892,
          "velocity": 0.8740157480314961,
          "duration": 0.18292675000000713
        },
        {
          "name": "D4",
          "midi": 62,
          "time": 173.41455899999892,
          "velocity": 0.8740157480314961,
          "duration": 0.18292675000000713
        },
        {
          "name": "F#4",
          "midi": 66,
          "time": 173.59748574999892,
          "velocity": 0.8740157480314961,
          "duration": 0.18292675000000713
        },
        {
          "name": "D4",
          "midi": 62,
          "time": 173.59748574999892,
          "velocity": 0.8740157480314961,
          "duration": 0.18292675000000713
        },
        {
          "name": "E4",
          "midi": 64,
          "time": 173.78041249999893,
          "velocity": 0.8740157480314961,
          "duration": 0.36585349999998584
        },
        {
          "name": "D4",
          "midi": 62,
          "time": 173.78041249999893,
          "velocity": 0.8740157480314961,
          "duration": 0.36585349999998584
        },
        {
          "name": "F#4",
          "midi": 66,
          "time": 174.14626599999892,
          "velocity": 0.8740157480314961,
          "duration": 0.18292675000000713
        },
        {
          "name": "D4",
          "midi": 62,
          "time": 174.14626599999892,
          "velocity": 0.8740157480314961,
          "duration": 0.18292675000000713
        },
        {
          "name": "F#4",
          "midi": 66,
          "time": 174.32919274999892,
          "velocity": 0.8740157480314961,
          "duration": 0.18292675000000713
        },
        {
          "name": "D4",
          "midi": 62,
          "time": 174.32919274999892,
          "velocity": 0.8740157480314961,
          "duration": 0.18292675000000713
        },
        {
          "name": "F#4",
          "midi": 66,
          "time": 174.51211949999893,
          "velocity": 0.8740157480314961,
          "duration": 0.18292675000000713
        },
        {
          "name": "D4",
          "midi": 62,
          "time": 174.51211949999893,
          "velocity": 0.8740157480314961,
          "duration": 0.18292675000000713
        },
        {
          "name": "E4",
          "midi": 64,
          "time": 174.69504624999894,
          "velocity": 0.8740157480314961,
          "duration": 0.18292675000000713
        },
        {
          "name": "D4",
          "midi": 62,
          "time": 174.69504624999894,
          "velocity": 0.8740157480314961,
          "duration": 0.18292675000000713
        },
        {
          "name": "E4",
          "midi": 64,
          "time": 174.87797299999895,
          "velocity": 0.8740157480314961,
          "duration": 0.18292675000000713
        },
        {
          "name": "D4",
          "midi": 62,
          "time": 174.87797299999895,
          "velocity": 0.8740157480314961,
          "duration": 0.18292675000000713
        },
        {
          "name": "E4",
          "midi": 64,
          "time": 175.06089974999895,
          "velocity": 0.8740157480314961,
          "duration": 0.18292675000000713
        },
        {
          "name": "D4",
          "midi": 62,
          "time": 175.06089974999895,
          "velocity": 0.8740157480314961,
          "duration": 0.18292675000000713
        },
        {
          "name": "G4",
          "midi": 67,
          "time": 175.24382649999896,
          "velocity": 0.8740157480314961,
          "duration": 0.18292675000000713
        },
        {
          "name": "D4",
          "midi": 62,
          "time": 175.24382649999896,
          "velocity": 0.8740157480314961,
          "duration": 0.18292675000000713
        },
        {
          "name": "G4",
          "midi": 67,
          "time": 175.42675324999897,
          "velocity": 0.8740157480314961,
          "duration": 0.18292675000000713
        },
        {
          "name": "D4",
          "midi": 62,
          "time": 175.42675324999897,
          "velocity": 0.8740157480314961,
          "duration": 0.18292675000000713
        },
        {
          "name": "G4",
          "midi": 67,
          "time": 175.60967999999897,
          "velocity": 0.8740157480314961,
          "duration": 0.18292675000000713
        },
        {
          "name": "D4",
          "midi": 62,
          "time": 175.60967999999897,
          "velocity": 0.8740157480314961,
          "duration": 0.18292675000000713
        },
        {
          "name": "E4",
          "midi": 64,
          "time": 175.79260674999898,
          "velocity": 0.8740157480314961,
          "duration": 0.18292675000000713
        },
        {
          "name": "D4",
          "midi": 62,
          "time": 175.79260674999898,
          "velocity": 0.8740157480314961,
          "duration": 0.18292675000000713
        },
        {
          "name": "E4",
          "midi": 64,
          "time": 175.975533499999,
          "velocity": 0.8740157480314961,
          "duration": 0.18292675000000713
        },
        {
          "name": "D4",
          "midi": 62,
          "time": 175.975533499999,
          "velocity": 0.8740157480314961,
          "duration": 0.18292675000000713
        },
        {
          "name": "E4",
          "midi": 64,
          "time": 176.158460249999,
          "velocity": 0.8740157480314961,
          "duration": 0.18292675000000713
        },
        {
          "name": "D4",
          "midi": 62,
          "time": 176.158460249999,
          "velocity": 0.8740157480314961,
          "duration": 0.18292675000000713
        },
        {
          "name": "F#4",
          "midi": 66,
          "time": 176.341386999999,
          "velocity": 0.8740157480314961,
          "duration": 0.18292675000000713
        },
        {
          "name": "D4",
          "midi": 62,
          "time": 176.341386999999,
          "velocity": 0.8740157480314961,
          "duration": 0.18292675000000713
        },
        {
          "name": "F#4",
          "midi": 66,
          "time": 176.524313749999,
          "velocity": 0.8740157480314961,
          "duration": 0.18292675000000713
        },
        {
          "name": "D4",
          "midi": 62,
          "time": 176.524313749999,
          "velocity": 0.8740157480314961,
          "duration": 0.18292675000000713
        },
        {
          "name": "E4",
          "midi": 64,
          "time": 176.70724049999902,
          "velocity": 0.8740157480314961,
          "duration": 0.36585349999998584
        },
        {
          "name": "D4",
          "midi": 62,
          "time": 176.70724049999902,
          "velocity": 0.8740157480314961,
          "duration": 0.36585349999998584
        },
        {
          "name": "F#4",
          "midi": 66,
          "time": 177.073093999999,
          "velocity": 0.7480314960629921,
          "duration": 0.18292675000000713
        },
        {
          "name": "D4",
          "midi": 62,
          "time": 177.073093999999,
          "velocity": 0.7480314960629921,
          "duration": 0.18292675000000713
        },
        {
          "name": "F#4",
          "midi": 66,
          "time": 177.256020749999,
          "velocity": 0.7480314960629921,
          "duration": 0.18292675000000713
        },
        {
          "name": "D4",
          "midi": 62,
          "time": 177.256020749999,
          "velocity": 0.7480314960629921,
          "duration": 0.18292675000000713
        },
        {
          "name": "C#4",
          "midi": 61,
          "time": 180.182848749999,
          "velocity": 0.7480314960629921,
          "duration": 0.18292675000000713
        },
        {
          "name": "D4",
          "midi": 62,
          "time": 180.36577549999902,
          "velocity": 0.7480314960629921,
          "duration": 0.18292675000000713
        },
        {
          "name": "A3",
          "midi": 57,
          "time": 180.54870224999902,
          "velocity": 0.6771653543307087,
          "duration": 0.18292675000000713
        },
        {
          "name": "C#4",
          "midi": 61,
          "time": 180.73162899999903,
          "velocity": 0.7480314960629921,
          "duration": 0.18292675000000713
        },
        {
          "name": "D4",
          "midi": 62,
          "time": 180.91455574999904,
          "velocity": 0.7480314960629921,
          "duration": 0.18292675000000713
        },
        {
          "name": "A3",
          "midi": 57,
          "time": 181.09748249999905,
          "velocity": 0.6771653543307087,
          "duration": 0.18292675000000713
        },
        {
          "name": "D4",
          "midi": 62,
          "time": 181.28040924999905,
          "velocity": 0.7480314960629921,
          "duration": 0.18292675000000713
        },
        {
          "name": "C#4",
          "midi": 61,
          "time": 181.64626274999907,
          "velocity": 0.7480314960629921,
          "duration": 0.18292675000000713
        },
        {
          "name": "D4",
          "midi": 62,
          "time": 181.82918949999907,
          "velocity": 0.7480314960629921,
          "duration": 0.18292675000000713
        },
        {
          "name": "A3",
          "midi": 57,
          "time": 182.01211624999908,
          "velocity": 0.6771653543307087,
          "duration": 0.18292675000000713
        },
        {
          "name": "C#4",
          "midi": 61,
          "time": 182.1950429999991,
          "velocity": 0.7480314960629921,
          "duration": 0.18292675000000713
        },
        {
          "name": "D4",
          "midi": 62,
          "time": 182.3779697499991,
          "velocity": 0.7480314960629921,
          "duration": 0.18292675000000713
        },
        {
          "name": "A3",
          "midi": 57,
          "time": 182.5608964999991,
          "velocity": 0.6771653543307087,
          "duration": 0.18292675000000713
        },
        {
          "name": "D4",
          "midi": 62,
          "time": 182.7438232499991,
          "velocity": 0.7480314960629921,
          "duration": 0.18292675000000713
        },
        {
          "name": "C#4",
          "midi": 61,
          "time": 183.10967674999912,
          "velocity": 0.7480314960629921,
          "duration": 0.18292675000000713
        },
        {
          "name": "D4",
          "midi": 62,
          "time": 183.29260349999913,
          "velocity": 0.7480314960629921,
          "duration": 0.18292675000000713
        },
        {
          "name": "A3",
          "midi": 57,
          "time": 183.47553024999914,
          "velocity": 0.6771653543307087,
          "duration": 0.18292675000000713
        },
        {
          "name": "C#4",
          "midi": 61,
          "time": 183.65845699999915,
          "velocity": 0.7480314960629921,
          "duration": 0.18292675000000713
        },
        {
          "name": "D4",
          "midi": 62,
          "time": 183.84138374999915,
          "velocity": 0.7480314960629921,
          "duration": 0.18292675000000713
        },
        {
          "name": "A3",
          "midi": 57,
          "time": 184.02431049999916,
          "velocity": 0.6771653543307087,
          "duration": 0.18292675000000713
        },
        {
          "name": "D4",
          "midi": 62,
          "time": 184.20723724999917,
          "velocity": 0.7480314960629921,
          "duration": 0.18292675000000713
        },
        {
          "name": "C#4",
          "midi": 61,
          "time": 184.57309074999918,
          "velocity": 0.7480314960629921,
          "duration": 0.18292675000000713
        },
        {
          "name": "D4",
          "midi": 62,
          "time": 184.7560174999992,
          "velocity": 0.7480314960629921,
          "duration": 0.18292675000000713
        },
        {
          "name": "A3",
          "midi": 57,
          "time": 184.9389442499992,
          "velocity": 0.6771653543307087,
          "duration": 0.18292675000000713
        },
        {
          "name": "C#4",
          "midi": 61,
          "time": 185.1218709999992,
          "velocity": 0.7480314960629921,
          "duration": 0.18292675000000713
        },
        {
          "name": "D4",
          "midi": 62,
          "time": 185.3047977499992,
          "velocity": 0.7480314960629921,
          "duration": 0.18292675000000713
        },
        {
          "name": "A3",
          "midi": 57,
          "time": 185.48772449999922,
          "velocity": 0.6771653543307087,
          "duration": 0.18292675000000713
        },
        {
          "name": "D4",
          "midi": 62,
          "time": 185.67065124999922,
          "velocity": 0.7480314960629921,
          "duration": 0.18292675000000713
        },
        {
          "name": "C#4",
          "midi": 61,
          "time": 186.03650474999924,
          "velocity": 0.7480314960629921,
          "duration": 0.18292675000000713
        },
        {
          "name": "D4",
          "midi": 62,
          "time": 186.21943149999925,
          "velocity": 0.7480314960629921,
          "duration": 0.18292675000000713
        },
        {
          "name": "A3",
          "midi": 57,
          "time": 186.40235824999925,
          "velocity": 0.6771653543307087,
          "duration": 0.18292675000000713
        },
        {
          "name": "C#4",
          "midi": 61,
          "time": 186.58528499999926,
          "velocity": 0.7480314960629921,
          "duration": 0.18292675000000713
        },
        {
          "name": "D4",
          "midi": 62,
          "time": 186.76821174999927,
          "velocity": 0.7480314960629921,
          "duration": 0.18292675000000713
        },
        {
          "name": "A3",
          "midi": 57,
          "time": 186.95113849999927,
          "velocity": 0.6771653543307087,
          "duration": 0.18292675000000713
        },
        {
          "name": "D4",
          "midi": 62,
          "time": 187.13406524999928,
          "velocity": 0.7480314960629921,
          "duration": 0.18292675000000713
        },
        {
          "name": "C#4",
          "midi": 61,
          "time": 187.4999187499993,
          "velocity": 0.7480314960629921,
          "duration": 0.18292675000000713
        },
        {
          "name": "D4",
          "midi": 62,
          "time": 187.6828454999993,
          "velocity": 0.7480314960629921,
          "duration": 0.18292675000000713
        },
        {
          "name": "A3",
          "midi": 57,
          "time": 187.8657722499993,
          "velocity": 0.6771653543307087,
          "duration": 0.18292675000000713
        },
        {
          "name": "C#4",
          "midi": 61,
          "time": 188.04869899999932,
          "velocity": 0.7480314960629921,
          "duration": 0.18292675000000713
        },
        {
          "name": "D4",
          "midi": 62,
          "time": 188.23162574999932,
          "velocity": 0.7480314960629921,
          "duration": 0.18292675000000713
        },
        {
          "name": "A3",
          "midi": 57,
          "time": 188.41455249999933,
          "velocity": 0.6771653543307087,
          "duration": 0.18292675000000713
        },
        {
          "name": "D4",
          "midi": 62,
          "time": 188.59747924999934,
          "velocity": 0.7480314960629921,
          "duration": 0.18292675000000713
        },
        {
          "name": "C#4",
          "midi": 61,
          "time": 188.96333274999935,
          "velocity": 0.7480314960629921,
          "duration": 0.18292675000000713
        },
        {
          "name": "D4",
          "midi": 62,
          "time": 189.14625949999936,
          "velocity": 0.7480314960629921,
          "duration": 0.18292675000000713
        },
        {
          "name": "A3",
          "midi": 57,
          "time": 189.32918624999937,
          "velocity": 0.6771653543307087,
          "duration": 0.18292675000000713
        },
        {
          "name": "C#4",
          "midi": 61,
          "time": 189.51211299999937,
          "velocity": 0.7480314960629921,
          "duration": 0.18292675000000713
        },
        {
          "name": "D4",
          "midi": 62,
          "time": 189.69503974999938,
          "velocity": 0.7480314960629921,
          "duration": 0.18292675000000713
        },
        {
          "name": "A3",
          "midi": 57,
          "time": 189.8779664999994,
          "velocity": 0.6771653543307087,
          "duration": 0.18292675000000713
        },
        {
          "name": "D4",
          "midi": 62,
          "time": 190.0608932499994,
          "velocity": 0.7480314960629921,
          "duration": 0.18292675000000713
        },
        {
          "name": "C#4",
          "midi": 61,
          "time": 190.4267467499994,
          "velocity": 0.7480314960629921,
          "duration": 0.18292675000000713
        },
        {
          "name": "D4",
          "midi": 62,
          "time": 190.60967349999942,
          "velocity": 0.7480314960629921,
          "duration": 0.18292675000000713
        },
        {
          "name": "A3",
          "midi": 57,
          "time": 190.79260024999942,
          "velocity": 0.6771653543307087,
          "duration": 0.18292675000000713
        },
        {
          "name": "C#4",
          "midi": 61,
          "time": 190.97552699999943,
          "velocity": 0.7480314960629921,
          "duration": 0.18292675000000713
        },
        {
          "name": "D4",
          "midi": 62,
          "time": 191.15845374999944,
          "velocity": 0.7480314960629921,
          "duration": 0.18292675000000713
        },
        {
          "name": "A3",
          "midi": 57,
          "time": 191.34138049999945,
          "velocity": 0.6771653543307087,
          "duration": 0.18292675000000713
        },
        {
          "name": "D4",
          "midi": 62,
          "time": 191.52430724999945,
          "velocity": 0.7480314960629921,
          "duration": 0.18292675000000713
        },
        {
          "name": "F#4",
          "midi": 66,
          "time": 191.70723399999946,
          "velocity": 0.8740157480314961,
          "duration": 0.18292675000000713
        },
        {
          "name": "D4",
          "midi": 62,
          "time": 191.70723399999946,
          "velocity": 0.8740157480314961,
          "duration": 0.18292675000000713
        },
        {
          "name": "F#4",
          "midi": 66,
          "time": 191.89016074999947,
          "velocity": 0.8740157480314961,
          "duration": 0.18292675000000713
        },
        {
          "name": "D4",
          "midi": 62,
          "time": 191.89016074999947,
          "velocity": 0.8740157480314961,
          "duration": 0.18292675000000713
        },
        {
          "name": "F#4",
          "midi": 66,
          "time": 192.07308749999947,
          "velocity": 0.8740157480314961,
          "duration": 0.18292675000000713
        },
        {
          "name": "D4",
          "midi": 62,
          "time": 192.07308749999947,
          "velocity": 0.8740157480314961,
          "duration": 0.18292675000000713
        },
        {
          "name": "E4",
          "midi": 64,
          "time": 192.25601424999948,
          "velocity": 0.8740157480314961,
          "duration": 0.18292675000000713
        },
        {
          "name": "D4",
          "midi": 62,
          "time": 192.25601424999948,
          "velocity": 0.8740157480314961,
          "duration": 0.18292675000000713
        },
        {
          "name": "E4",
          "midi": 64,
          "time": 192.4389409999995,
          "velocity": 0.8740157480314961,
          "duration": 0.18292675000000713
        },
        {
          "name": "D4",
          "midi": 62,
          "time": 192.4389409999995,
          "velocity": 0.8740157480314961,
          "duration": 0.18292675000000713
        },
        {
          "name": "E4",
          "midi": 64,
          "time": 192.6218677499995,
          "velocity": 0.8740157480314961,
          "duration": 0.18292675000000713
        },
        {
          "name": "D4",
          "midi": 62,
          "time": 192.6218677499995,
          "velocity": 0.8740157480314961,
          "duration": 0.18292675000000713
        },
        {
          "name": "G4",
          "midi": 67,
          "time": 192.8047944999995,
          "velocity": 0.8740157480314961,
          "duration": 0.18292675000000713
        },
        {
          "name": "D4",
          "midi": 62,
          "time": 192.8047944999995,
          "velocity": 0.8740157480314961,
          "duration": 0.18292675000000713
        },
        {
          "name": "G4",
          "midi": 67,
          "time": 192.9877212499995,
          "velocity": 0.8740157480314961,
          "duration": 0.18292675000000713
        },
        {
          "name": "D4",
          "midi": 62,
          "time": 192.9877212499995,
          "velocity": 0.8740157480314961,
          "duration": 0.18292675000000713
        },
        {
          "name": "G4",
          "midi": 67,
          "time": 193.17064799999952,
          "velocity": 0.8740157480314961,
          "duration": 0.18292675000000713
        },
        {
          "name": "D4",
          "midi": 62,
          "time": 193.17064799999952,
          "velocity": 0.8740157480314961,
          "duration": 0.18292675000000713
        },
        {
          "name": "E4",
          "midi": 64,
          "time": 193.35357474999952,
          "velocity": 0.8740157480314961,
          "duration": 0.18292675000000713
        },
        {
          "name": "D4",
          "midi": 62,
          "time": 193.35357474999952,
          "velocity": 0.8740157480314961,
          "duration": 0.18292675000000713
        },
        {
          "name": "E4",
          "midi": 64,
          "time": 193.53650149999953,
          "velocity": 0.8740157480314961,
          "duration": 0.18292675000000713
        },
        {
          "name": "D4",
          "midi": 62,
          "time": 193.53650149999953,
          "velocity": 0.8740157480314961,
          "duration": 0.18292675000000713
        },
        {
          "name": "E4",
          "midi": 64,
          "time": 193.71942824999954,
          "velocity": 0.8740157480314961,
          "duration": 0.18292675000000713
        },
        {
          "name": "D4",
          "midi": 62,
          "time": 193.71942824999954,
          "velocity": 0.8740157480314961,
          "duration": 0.18292675000000713
        },
        {
          "name": "F#4",
          "midi": 66,
          "time": 193.90235499999955,
          "velocity": 0.8740157480314961,
          "duration": 0.18292675000000713
        },
        {
          "name": "D4",
          "midi": 62,
          "time": 193.90235499999955,
          "velocity": 0.8740157480314961,
          "duration": 0.18292675000000713
        },
        {
          "name": "F#4",
          "midi": 66,
          "time": 194.08528174999955,
          "velocity": 0.8740157480314961,
          "duration": 0.18292675000000713
        },
        {
          "name": "D4",
          "midi": 62,
          "time": 194.08528174999955,
          "velocity": 0.8740157480314961,
          "duration": 0.18292675000000713
        },
        {
          "name": "E4",
          "midi": 64,
          "time": 194.26820849999956,
          "velocity": 0.8740157480314961,
          "duration": 0.36585349999998584
        },
        {
          "name": "D4",
          "midi": 62,
          "time": 194.26820849999956,
          "velocity": 0.8740157480314961,
          "duration": 0.36585349999998584
        },
        {
          "name": "F#4",
          "midi": 66,
          "time": 194.63406199999955,
          "velocity": 0.8740157480314961,
          "duration": 0.18292675000000713
        },
        {
          "name": "D4",
          "midi": 62,
          "time": 194.63406199999955,
          "velocity": 0.8740157480314961,
          "duration": 0.18292675000000713
        },
        {
          "name": "F#4",
          "midi": 66,
          "time": 194.81698874999955,
          "velocity": 0.8740157480314961,
          "duration": 0.18292675000000713
        },
        {
          "name": "D4",
          "midi": 62,
          "time": 194.81698874999955,
          "velocity": 0.8740157480314961,
          "duration": 0.18292675000000713
        },
        {
          "name": "F#4",
          "midi": 66,
          "time": 194.99991549999956,
          "velocity": 0.8740157480314961,
          "duration": 0.18292675000000713
        },
        {
          "name": "D4",
          "midi": 62,
          "time": 194.99991549999956,
          "velocity": 0.8740157480314961,
          "duration": 0.18292675000000713
        },
        {
          "name": "E4",
          "midi": 64,
          "time": 195.18284224999957,
          "velocity": 0.8740157480314961,
          "duration": 0.18292675000000713
        },
        {
          "name": "D4",
          "midi": 62,
          "time": 195.18284224999957,
          "velocity": 0.8740157480314961,
          "duration": 0.18292675000000713
        },
        {
          "name": "E4",
          "midi": 64,
          "time": 195.36576899999957,
          "velocity": 0.8740157480314961,
          "duration": 0.18292675000000713
        },
        {
          "name": "D4",
          "midi": 62,
          "time": 195.36576899999957,
          "velocity": 0.8740157480314961,
          "duration": 0.18292675000000713
        },
        {
          "name": "E4",
          "midi": 64,
          "time": 195.54869574999958,
          "velocity": 0.8740157480314961,
          "duration": 0.18292675000000713
        },
        {
          "name": "D4",
          "midi": 62,
          "time": 195.54869574999958,
          "velocity": 0.8740157480314961,
          "duration": 0.18292675000000713
        },
        {
          "name": "G4",
          "midi": 67,
          "time": 195.7316224999996,
          "velocity": 0.8740157480314961,
          "duration": 0.18292675000000713
        },
        {
          "name": "D4",
          "midi": 62,
          "time": 195.7316224999996,
          "velocity": 0.8740157480314961,
          "duration": 0.18292675000000713
        },
        {
          "name": "G4",
          "midi": 67,
          "time": 195.9145492499996,
          "velocity": 0.8740157480314961,
          "duration": 0.18292675000000713
        },
        {
          "name": "D4",
          "midi": 62,
          "time": 195.9145492499996,
          "velocity": 0.8740157480314961,
          "duration": 0.18292675000000713
        },
        {
          "name": "G4",
          "midi": 67,
          "time": 196.0974759999996,
          "velocity": 0.8740157480314961,
          "duration": 0.18292675000000713
        },
        {
          "name": "D4",
          "midi": 62,
          "time": 196.0974759999996,
          "velocity": 0.8740157480314961,
          "duration": 0.18292675000000713
        },
        {
          "name": "E4",
          "midi": 64,
          "time": 196.2804027499996,
          "velocity": 0.8740157480314961,
          "duration": 0.18292675000000713
        },
        {
          "name": "D4",
          "midi": 62,
          "time": 196.2804027499996,
          "velocity": 0.8740157480314961,
          "duration": 0.18292675000000713
        },
        {
          "name": "E4",
          "midi": 64,
          "time": 196.46332949999962,
          "velocity": 0.8740157480314961,
          "duration": 0.18292675000000713
        },
        {
          "name": "D4",
          "midi": 62,
          "time": 196.46332949999962,
          "velocity": 0.8740157480314961,
          "duration": 0.18292675000000713
        },
        {
          "name": "E4",
          "midi": 64,
          "time": 196.64625624999962,
          "velocity": 0.8740157480314961,
          "duration": 0.18292675000000713
        },
        {
          "name": "D4",
          "midi": 62,
          "time": 196.64625624999962,
          "velocity": 0.8740157480314961,
          "duration": 0.18292675000000713
        },
        {
          "name": "F#4",
          "midi": 66,
          "time": 196.82918299999963,
          "velocity": 0.8740157480314961,
          "duration": 0.18292675000000713
        },
        {
          "name": "D4",
          "midi": 62,
          "time": 196.82918299999963,
          "velocity": 0.8740157480314961,
          "duration": 0.18292675000000713
        },
        {
          "name": "F#4",
          "midi": 66,
          "time": 197.01210974999964,
          "velocity": 0.8740157480314961,
          "duration": 0.18292675000000713
        },
        {
          "name": "D4",
          "midi": 62,
          "time": 197.01210974999964,
          "velocity": 0.8740157480314961,
          "duration": 0.18292675000000713
        },
        {
          "name": "E4",
          "midi": 64,
          "time": 197.19503649999965,
          "velocity": 0.8740157480314961,
          "duration": 0.36585349999998584
        },
        {
          "name": "D4",
          "midi": 62,
          "time": 197.19503649999965,
          "velocity": 0.8740157480314961,
          "duration": 0.36585349999998584
        },
        {
          "name": "F#4",
          "midi": 66,
          "time": 197.56088999999963,
          "velocity": 0.8740157480314961,
          "duration": 0.18292675000000713
        },
        {
          "name": "D4",
          "midi": 62,
          "time": 197.56088999999963,
          "velocity": 0.8740157480314961,
          "duration": 0.18292675000000713
        },
        {
          "name": "F#4",
          "midi": 66,
          "time": 197.74381674999964,
          "velocity": 0.8740157480314961,
          "duration": 0.18292675000000713
        },
        {
          "name": "D4",
          "midi": 62,
          "time": 197.74381674999964,
          "velocity": 0.8740157480314961,
          "duration": 0.18292675000000713
        },
        {
          "name": "F#4",
          "midi": 66,
          "time": 197.92674349999965,
          "velocity": 0.8740157480314961,
          "duration": 0.18292675000000713
        },
        {
          "name": "D4",
          "midi": 62,
          "time": 197.92674349999965,
          "velocity": 0.8740157480314961,
          "duration": 0.18292675000000713
        },
        {
          "name": "E4",
          "midi": 64,
          "time": 198.10967024999965,
          "velocity": 0.8740157480314961,
          "duration": 0.18292675000000713
        },
        {
          "name": "D4",
          "midi": 62,
          "time": 198.10967024999965,
          "velocity": 0.8740157480314961,
          "duration": 0.18292675000000713
        },
        {
          "name": "E4",
          "midi": 64,
          "time": 198.29259699999966,
          "velocity": 0.8740157480314961,
          "duration": 0.18292675000000713
        },
        {
          "name": "D4",
          "midi": 62,
          "time": 198.29259699999966,
          "velocity": 0.8740157480314961,
          "duration": 0.18292675000000713
        },
        {
          "name": "E4",
          "midi": 64,
          "time": 198.47552374999967,
          "velocity": 0.8740157480314961,
          "duration": 0.18292675000000713
        },
        {
          "name": "D4",
          "midi": 62,
          "time": 198.47552374999967,
          "velocity": 0.8740157480314961,
          "duration": 0.18292675000000713
        },
        {
          "name": "G4",
          "midi": 67,
          "time": 198.65845049999967,
          "velocity": 0.8740157480314961,
          "duration": 0.18292675000000713
        },
        {
          "name": "D4",
          "midi": 62,
          "time": 198.65845049999967,
          "velocity": 0.8740157480314961,
          "duration": 0.18292675000000713
        },
        {
          "name": "G4",
          "midi": 67,
          "time": 198.84137724999968,
          "velocity": 0.8740157480314961,
          "duration": 0.18292675000000713
        },
        {
          "name": "D4",
          "midi": 62,
          "time": 198.84137724999968,
          "velocity": 0.8740157480314961,
          "duration": 0.18292675000000713
        },
        {
          "name": "G4",
          "midi": 67,
          "time": 199.0243039999997,
          "velocity": 0.8740157480314961,
          "duration": 0.18292675000000713
        },
        {
          "name": "D4",
          "midi": 62,
          "time": 199.0243039999997,
          "velocity": 0.8740157480314961,
          "duration": 0.18292675000000713
        },
        {
          "name": "E4",
          "midi": 64,
          "time": 199.2072307499997,
          "velocity": 0.8740157480314961,
          "duration": 0.18292675000000713
        },
        {
          "name": "D4",
          "midi": 62,
          "time": 199.2072307499997,
          "velocity": 0.8740157480314961,
          "duration": 0.18292675000000713
        },
        {
          "name": "E4",
          "midi": 64,
          "time": 199.3901574999997,
          "velocity": 0.8740157480314961,
          "duration": 0.18292675000000713
        },
        {
          "name": "D4",
          "midi": 62,
          "time": 199.3901574999997,
          "velocity": 0.8740157480314961,
          "duration": 0.18292675000000713
        },
        {
          "name": "E4",
          "midi": 64,
          "time": 199.5730842499997,
          "velocity": 0.8740157480314961,
          "duration": 0.18292675000000713
        },
        {
          "name": "D4",
          "midi": 62,
          "time": 199.5730842499997,
          "velocity": 0.8740157480314961,
          "duration": 0.18292675000000713
        },
        {
          "name": "F#4",
          "midi": 66,
          "time": 199.75601099999972,
          "velocity": 0.8740157480314961,
          "duration": 0.18292675000000713
        },
        {
          "name": "D4",
          "midi": 62,
          "time": 199.75601099999972,
          "velocity": 0.8740157480314961,
          "duration": 0.18292675000000713
        },
        {
          "name": "F#4",
          "midi": 66,
          "time": 199.93893774999972,
          "velocity": 0.8740157480314961,
          "duration": 0.18292675000000713
        },
        {
          "name": "D4",
          "midi": 62,
          "time": 199.93893774999972,
          "velocity": 0.8740157480314961,
          "duration": 0.18292675000000713
        },
        {
          "name": "E4",
          "midi": 64,
          "time": 200.12186449999973,
          "velocity": 0.8740157480314961,
          "duration": 0.36585349999998584
        },
        {
          "name": "D4",
          "midi": 62,
          "time": 200.12186449999973,
          "velocity": 0.8740157480314961,
          "duration": 0.36585349999998584
        },
        {
          "name": "F#4",
          "midi": 66,
          "time": 200.48771799999972,
          "velocity": 0.7480314960629921,
          "duration": 0.18292675000000713
        },
        {
          "name": "D4",
          "midi": 62,
          "time": 200.48771799999972,
          "velocity": 0.7480314960629921,
          "duration": 0.18292675000000713
        },
        {
          "name": "E3",
          "midi": 52,
          "time": 203.41454599999972,
          "velocity": 0.7480314960629921,
          "duration": 0.18292675000000713
        },
        {
          "name": "B2",
          "midi": 47,
          "time": 203.41454599999972,
          "velocity": 0.7480314960629921,
          "duration": 0.18292675000000713
        },
        {
          "name": "E2",
          "midi": 40,
          "time": 203.41454599999972,
          "velocity": 0.7480314960629921,
          "duration": 0.18292675000000713
        },
        {
          "name": "B2",
          "midi": 47,
          "time": 203.59747274999972,
          "velocity": 0.6771653543307087,
          "duration": 0.18292675000000713
        },
        {
          "name": "E2",
          "midi": 40,
          "time": 203.59747274999972,
          "velocity": 0.6771653543307087,
          "duration": 0.18292675000000713
        },
        {
          "name": "B2",
          "midi": 47,
          "time": 203.96332624999974,
          "velocity": 0.6771653543307087,
          "duration": 0.18292675000000713
        },
        {
          "name": "E2",
          "midi": 40,
          "time": 203.96332624999974,
          "velocity": 0.6771653543307087,
          "duration": 0.18292675000000713
        },
        {
          "name": "B2",
          "midi": 47,
          "time": 204.32917974999975,
          "velocity": 0.6771653543307087,
          "duration": 0.18292675000000713
        },
        {
          "name": "E2",
          "midi": 40,
          "time": 204.32917974999975,
          "velocity": 0.6771653543307087,
          "duration": 0.18292675000000713
        },
        {
          "name": "D3",
          "midi": 50,
          "time": 204.51210649999976,
          "velocity": 0.7480314960629921,
          "duration": 0.36585349999998584
        },
        {
          "name": "A2",
          "midi": 45,
          "time": 204.51210649999976,
          "velocity": 0.7480314960629921,
          "duration": 6.219509500000214
        },
        {
          "name": "D2",
          "midi": 38,
          "time": 204.51210649999976,
          "velocity": 0.7480314960629921,
          "duration": 6.219509500000214
        },
        {
          "name": "F#4",
          "midi": 66,
          "time": 204.87795999999975,
          "velocity": 0.7480314960629921,
          "duration": 0.18292675000000713
        },
        {
          "name": "D4",
          "midi": 62,
          "time": 204.87795999999975,
          "velocity": 0.7480314960629921,
          "duration": 0.18292675000000713
        },
        {
          "name": "D3",
          "midi": 50,
          "time": 204.87795999999975,
          "velocity": 0.7480314960629921,
          "duration": 0.18292675000000713
        },
        {
          "name": "F#4",
          "midi": 66,
          "time": 205.06088674999975,
          "velocity": 0.7480314960629921,
          "duration": 0.18292675000000713
        },
        {
          "name": "D4",
          "midi": 62,
          "time": 205.06088674999975,
          "velocity": 0.7480314960629921,
          "duration": 0.18292675000000713
        },
        {
          "name": "D3",
          "midi": 50,
          "time": 205.06088674999975,
          "velocity": 0.7480314960629921,
          "duration": 0.18292675000000713
        },
        {
          "name": "F#4",
          "midi": 66,
          "time": 205.24381349999976,
          "velocity": 0.7480314960629921,
          "duration": 0.18292675000000713
        },
        {
          "name": "D4",
          "midi": 62,
          "time": 205.24381349999976,
          "velocity": 0.7480314960629921,
          "duration": 0.18292675000000713
        },
        {
          "name": "D3",
          "midi": 50,
          "time": 205.24381349999976,
          "velocity": 0.7480314960629921,
          "duration": 0.18292675000000713
        },
        {
          "name": "E4",
          "midi": 64,
          "time": 205.42674024999977,
          "velocity": 0.7480314960629921,
          "duration": 0.18292675000000713
        },
        {
          "name": "D4",
          "midi": 62,
          "time": 205.42674024999977,
          "velocity": 0.7480314960629921,
          "duration": 0.18292675000000713
        },
        {
          "name": "D3",
          "midi": 50,
          "time": 205.42674024999977,
          "velocity": 0.7480314960629921,
          "duration": 0.18292675000000713
        },
        {
          "name": "E4",
          "midi": 64,
          "time": 205.60966699999977,
          "velocity": 0.7480314960629921,
          "duration": 0.18292675000000713
        },
        {
          "name": "D4",
          "midi": 62,
          "time": 205.60966699999977,
          "velocity": 0.7480314960629921,
          "duration": 0.18292675000000713
        },
        {
          "name": "D3",
          "midi": 50,
          "time": 205.60966699999977,
          "velocity": 0.7480314960629921,
          "duration": 0.18292675000000713
        },
        {
          "name": "E4",
          "midi": 64,
          "time": 205.79259374999978,
          "velocity": 0.7480314960629921,
          "duration": 0.18292675000000713
        },
        {
          "name": "D4",
          "midi": 62,
          "time": 205.79259374999978,
          "velocity": 0.7480314960629921,
          "duration": 0.18292675000000713
        },
        {
          "name": "D3",
          "midi": 50,
          "time": 205.79259374999978,
          "velocity": 0.7480314960629921,
          "duration": 0.18292675000000713
        },
        {
          "name": "G4",
          "midi": 67,
          "time": 205.9755204999998,
          "velocity": 0.7480314960629921,
          "duration": 0.18292675000000713
        },
        {
          "name": "D4",
          "midi": 62,
          "time": 205.9755204999998,
          "velocity": 0.7480314960629921,
          "duration": 0.18292675000000713
        },
        {
          "name": "D3",
          "midi": 50,
          "time": 205.9755204999998,
          "velocity": 0.7480314960629921,
          "duration": 0.18292675000000713
        },
        {
          "name": "G4",
          "midi": 67,
          "time": 206.1584472499998,
          "velocity": 0.7480314960629921,
          "duration": 0.18292675000000713
        },
        {
          "name": "D4",
          "midi": 62,
          "time": 206.1584472499998,
          "velocity": 0.7480314960629921,
          "duration": 0.18292675000000713
        },
        {
          "name": "D3",
          "midi": 50,
          "time": 206.1584472499998,
          "velocity": 0.7480314960629921,
          "duration": 0.18292675000000713
        },
        {
          "name": "G4",
          "midi": 67,
          "time": 206.3413739999998,
          "velocity": 0.7480314960629921,
          "duration": 0.18292675000000713
        },
        {
          "name": "D4",
          "midi": 62,
          "time": 206.3413739999998,
          "velocity": 0.7480314960629921,
          "duration": 0.18292675000000713
        },
        {
          "name": "D3",
          "midi": 50,
          "time": 206.3413739999998,
          "velocity": 0.7480314960629921,
          "duration": 0.18292675000000713
        },
        {
          "name": "E4",
          "midi": 64,
          "time": 206.5243007499998,
          "velocity": 0.7480314960629921,
          "duration": 0.18292675000000713
        },
        {
          "name": "D4",
          "midi": 62,
          "time": 206.5243007499998,
          "velocity": 0.7480314960629921,
          "duration": 0.18292675000000713
        },
        {
          "name": "D3",
          "midi": 50,
          "time": 206.5243007499998,
          "velocity": 0.7480314960629921,
          "duration": 0.18292675000000713
        },
        {
          "name": "E4",
          "midi": 64,
          "time": 206.70722749999982,
          "velocity": 0.7480314960629921,
          "duration": 0.18292675000000713
        },
        {
          "name": "D4",
          "midi": 62,
          "time": 206.70722749999982,
          "velocity": 0.7480314960629921,
          "duration": 0.18292675000000713
        },
        {
          "name": "D3",
          "midi": 50,
          "time": 206.70722749999982,
          "velocity": 0.7480314960629921,
          "duration": 0.18292675000000713
        },
        {
          "name": "E4",
          "midi": 64,
          "time": 206.89015424999982,
          "velocity": 0.7480314960629921,
          "duration": 0.18292675000000713
        },
        {
          "name": "D4",
          "midi": 62,
          "time": 206.89015424999982,
          "velocity": 0.7480314960629921,
          "duration": 0.18292675000000713
        },
        {
          "name": "D3",
          "midi": 50,
          "time": 206.89015424999982,
          "velocity": 0.7480314960629921,
          "duration": 0.18292675000000713
        },
        {
          "name": "F#4",
          "midi": 66,
          "time": 207.07308099999983,
          "velocity": 0.7480314960629921,
          "duration": 0.18292675000000713
        },
        {
          "name": "D4",
          "midi": 62,
          "time": 207.07308099999983,
          "velocity": 0.7480314960629921,
          "duration": 0.18292675000000713
        },
        {
          "name": "D3",
          "midi": 50,
          "time": 207.07308099999983,
          "velocity": 0.7480314960629921,
          "duration": 0.18292675000000713
        },
        {
          "name": "F#4",
          "midi": 66,
          "time": 207.25600774999984,
          "velocity": 0.7480314960629921,
          "duration": 0.18292675000000713
        },
        {
          "name": "D4",
          "midi": 62,
          "time": 207.25600774999984,
          "velocity": 0.7480314960629921,
          "duration": 0.18292675000000713
        },
        {
          "name": "D3",
          "midi": 50,
          "time": 207.25600774999984,
          "velocity": 0.7480314960629921,
          "duration": 0.18292675000000713
        },
        {
          "name": "E4",
          "midi": 64,
          "time": 207.43893449999985,
          "velocity": 0.7480314960629921,
          "duration": 0.18292675000000713
        },
        {
          "name": "D4",
          "midi": 62,
          "time": 207.43893449999985,
          "velocity": 0.7480314960629921,
          "duration": 0.18292675000000713
        },
        {
          "name": "D3",
          "midi": 50,
          "time": 207.43893449999985,
          "velocity": 0.7480314960629921,
          "duration": 0.18292675000000713
        },
        {
          "name": "E4",
          "midi": 64,
          "time": 207.62186124999985,
          "velocity": 0.7480314960629921,
          "duration": 0.18292675000000713
        },
        {
          "name": "D4",
          "midi": 62,
          "time": 207.62186124999985,
          "velocity": 0.7480314960629921,
          "duration": 0.18292675000000713
        },
        {
          "name": "D3",
          "midi": 50,
          "time": 207.62186124999985,
          "velocity": 0.7480314960629921,
          "duration": 0.18292675000000713
        },
        {
          "name": "F#4",
          "midi": 66,
          "time": 207.80478799999986,
          "velocity": 0.7480314960629921,
          "duration": 0.18292675000000713
        },
        {
          "name": "D4",
          "midi": 62,
          "time": 207.80478799999986,
          "velocity": 0.7480314960629921,
          "duration": 0.18292675000000713
        },
        {
          "name": "D3",
          "midi": 50,
          "time": 207.80478799999986,
          "velocity": 0.7480314960629921,
          "duration": 0.18292675000000713
        },
        {
          "name": "F#4",
          "midi": 66,
          "time": 207.98771474999987,
          "velocity": 0.7480314960629921,
          "duration": 0.18292675000000713
        },
        {
          "name": "D4",
          "midi": 62,
          "time": 207.98771474999987,
          "velocity": 0.7480314960629921,
          "duration": 0.18292675000000713
        },
        {
          "name": "D3",
          "midi": 50,
          "time": 207.98771474999987,
          "velocity": 0.7480314960629921,
          "duration": 0.18292675000000713
        },
        {
          "name": "F#4",
          "midi": 66,
          "time": 208.17064149999987,
          "velocity": 0.7480314960629921,
          "duration": 0.18292675000000713
        },
        {
          "name": "D4",
          "midi": 62,
          "time": 208.17064149999987,
          "velocity": 0.7480314960629921,
          "duration": 0.18292675000000713
        },
        {
          "name": "D3",
          "midi": 50,
          "time": 208.17064149999987,
          "velocity": 0.7480314960629921,
          "duration": 0.18292675000000713
        },
        {
          "name": "E4",
          "midi": 64,
          "time": 208.35356824999988,
          "velocity": 0.7480314960629921,
          "duration": 0.18292675000000713
        },
        {
          "name": "D4",
          "midi": 62,
          "time": 208.35356824999988,
          "velocity": 0.7480314960629921,
          "duration": 0.18292675000000713
        },
        {
          "name": "D3",
          "midi": 50,
          "time": 208.35356824999988,
          "velocity": 0.7480314960629921,
          "duration": 0.18292675000000713
        },
        {
          "name": "E4",
          "midi": 64,
          "time": 208.5364949999999,
          "velocity": 0.7480314960629921,
          "duration": 0.18292675000000713
        },
        {
          "name": "D4",
          "midi": 62,
          "time": 208.5364949999999,
          "velocity": 0.7480314960629921,
          "duration": 0.18292675000000713
        },
        {
          "name": "D3",
          "midi": 50,
          "time": 208.5364949999999,
          "velocity": 0.7480314960629921,
          "duration": 0.18292675000000713
        },
        {
          "name": "E4",
          "midi": 64,
          "time": 208.7194217499999,
          "velocity": 0.7480314960629921,
          "duration": 0.18292675000000713
        },
        {
          "name": "D4",
          "midi": 62,
          "time": 208.7194217499999,
          "velocity": 0.7480314960629921,
          "duration": 0.18292675000000713
        },
        {
          "name": "D3",
          "midi": 50,
          "time": 208.7194217499999,
          "velocity": 0.7480314960629921,
          "duration": 0.18292675000000713
        },
        {
          "name": "G4",
          "midi": 67,
          "time": 208.9023484999999,
          "velocity": 0.7480314960629921,
          "duration": 0.18292675000000713
        },
        {
          "name": "D4",
          "midi": 62,
          "time": 208.9023484999999,
          "velocity": 0.7480314960629921,
          "duration": 0.18292675000000713
        },
        {
          "name": "D3",
          "midi": 50,
          "time": 208.9023484999999,
          "velocity": 0.7480314960629921,
          "duration": 0.18292675000000713
        },
        {
          "name": "G4",
          "midi": 67,
          "time": 209.0852752499999,
          "velocity": 0.7480314960629921,
          "duration": 0.18292675000000713
        },
        {
          "name": "D4",
          "midi": 62,
          "time": 209.0852752499999,
          "velocity": 0.7480314960629921,
          "duration": 0.18292675000000713
        },
        {
          "name": "D3",
          "midi": 50,
          "time": 209.0852752499999,
          "velocity": 0.7480314960629921,
          "duration": 0.18292675000000713
        },
        {
          "name": "G4",
          "midi": 67,
          "time": 209.26820199999992,
          "velocity": 0.7480314960629921,
          "duration": 0.18292675000000713
        },
        {
          "name": "D4",
          "midi": 62,
          "time": 209.26820199999992,
          "velocity": 0.7480314960629921,
          "duration": 0.18292675000000713
        },
        {
          "name": "D3",
          "midi": 50,
          "time": 209.26820199999992,
          "velocity": 0.7480314960629921,
          "duration": 0.18292675000000713
        },
        {
          "name": "E4",
          "midi": 64,
          "time": 209.45112874999992,
          "velocity": 0.7480314960629921,
          "duration": 0.18292675000000713
        },
        {
          "name": "D4",
          "midi": 62,
          "time": 209.45112874999992,
          "velocity": 0.7480314960629921,
          "duration": 0.18292675000000713
        },
        {
          "name": "D3",
          "midi": 50,
          "time": 209.45112874999992,
          "velocity": 0.7480314960629921,
          "duration": 0.18292675000000713
        },
        {
          "name": "E4",
          "midi": 64,
          "time": 209.63405549999993,
          "velocity": 0.7480314960629921,
          "duration": 0.18292675000000713
        },
        {
          "name": "D4",
          "midi": 62,
          "time": 209.63405549999993,
          "velocity": 0.7480314960629921,
          "duration": 0.18292675000000713
        },
        {
          "name": "D3",
          "midi": 50,
          "time": 209.63405549999993,
          "velocity": 0.7480314960629921,
          "duration": 0.18292675000000713
        },
        {
          "name": "E4",
          "midi": 64,
          "time": 209.81698224999994,
          "velocity": 0.7480314960629921,
          "duration": 0.18292675000000713
        },
        {
          "name": "D4",
          "midi": 62,
          "time": 209.81698224999994,
          "velocity": 0.7480314960629921,
          "duration": 0.18292675000000713
        },
        {
          "name": "D3",
          "midi": 50,
          "time": 209.81698224999994,
          "velocity": 0.7480314960629921,
          "duration": 0.18292675000000713
        },
        {
          "name": "F#4",
          "midi": 66,
          "time": 209.99990899999995,
          "velocity": 0.7480314960629921,
          "duration": 0.18292675000000713
        },
        {
          "name": "D4",
          "midi": 62,
          "time": 209.99990899999995,
          "velocity": 0.7480314960629921,
          "duration": 0.18292675000000713
        },
        {
          "name": "D3",
          "midi": 50,
          "time": 209.99990899999995,
          "velocity": 0.7480314960629921,
          "duration": 0.18292675000000713
        },
        {
          "name": "F#4",
          "midi": 66,
          "time": 210.18283574999995,
          "velocity": 0.7480314960629921,
          "duration": 0.18292675000000713
        },
        {
          "name": "D4",
          "midi": 62,
          "time": 210.18283574999995,
          "velocity": 0.7480314960629921,
          "duration": 0.18292675000000713
        },
        {
          "name": "D3",
          "midi": 50,
          "time": 210.18283574999995,
          "velocity": 0.7480314960629921,
          "duration": 0.18292675000000713
        },
        {
          "name": "E4",
          "midi": 64,
          "time": 210.36576249999996,
          "velocity": 0.7480314960629921,
          "duration": 0.18292675000000713
        },
        {
          "name": "D4",
          "midi": 62,
          "time": 210.36576249999996,
          "velocity": 0.7480314960629921,
          "duration": 0.18292675000000713
        },
        {
          "name": "D3",
          "midi": 50,
          "time": 210.36576249999996,
          "velocity": 0.7480314960629921,
          "duration": 0.18292675000000713
        },
        {
          "name": "E4",
          "midi": 64,
          "time": 210.54868924999997,
          "velocity": 0.7480314960629921,
          "duration": 0.18292675000000713
        },
        {
          "name": "D4",
          "midi": 62,
          "time": 210.54868924999997,
          "velocity": 0.7480314960629921,
          "duration": 0.18292675000000713
        },
        {
          "name": "D3",
          "midi": 50,
          "time": 210.54868924999997,
          "velocity": 0.7480314960629921,
          "duration": 0.18292675000000713
        },
        {
          "name": "F#4",
          "midi": 66,
          "time": 210.73161599999997,
          "velocity": 0.7480314960629921,
          "duration": 2.926828000000114
        },
        {
          "name": "D4",
          "midi": 62,
          "time": 210.73161599999997,
          "velocity": 0.7480314960629921,
          "duration": 2.926828000000114
        },
        {
          "name": "D3",
          "midi": 50,
          "time": 210.73161599999997,
          "velocity": 0.7480314960629921,
          "duration": 2.926828000000114
        }
      ],
      "controlChanges": {
        "6": [
          {
            "number": 6,
            "time": 0,
            "value": 0.09448818897637795
          },
          {
            "number": 6,
            "time": 0,
            "value": 0.09448818897637795
          }
        ],
        "7": [
          {
            "number": 7,
            "time": 0,
            "value": 0.9448818897637795
          },
          {
            "number": 7,
            "time": 0,
            "value": 0.9448818897637795
          },
          {
            "number": 7,
            "time": 128.78043199999786,
            "value": 0.09448818897637795
          },
          {
            "number": 7,
            "time": 128.78043199999786,
            "value": 0.09448818897637795
          },
          {
            "number": 7,
            "time": 128.96335874999787,
            "value": 0.1889763779527559
          },
          {
            "number": 7,
            "time": 128.96335874999787,
            "value": 0.1889763779527559
          },
          {
            "number": 7,
            "time": 129.14628549999787,
            "value": 0.28346456692913385
          },
          {
            "number": 7,
            "time": 129.14628549999787,
            "value": 0.28346456692913385
          },
          {
            "number": 7,
            "time": 129.32921224999788,
            "value": 0.3779527559055118
          },
          {
            "number": 7,
            "time": 129.32921224999788,
            "value": 0.3779527559055118
          },
          {
            "number": 7,
            "time": 129.5121389999979,
            "value": 0.47244094488188976
          },
          {
            "number": 7,
            "time": 129.5121389999979,
            "value": 0.47244094488188976
          },
          {
            "number": 7,
            "time": 129.6950657499979,
            "value": 0.5669291338582677
          },
          {
            "number": 7,
            "time": 129.6950657499979,
            "value": 0.5669291338582677
          },
          {
            "number": 7,
            "time": 129.8779924999979,
            "value": 0.6614173228346457
          },
          {
            "number": 7,
            "time": 129.8779924999979,
            "value": 0.6614173228346457
          },
          {
            "number": 7,
            "time": 130.0609192499979,
            "value": 0.7559055118110236
          },
          {
            "number": 7,
            "time": 130.0609192499979,
            "value": 0.7559055118110236
          },
          {
            "number": 7,
            "time": 130.24384599999792,
            "value": 0.8503937007874016
          },
          {
            "number": 7,
            "time": 130.24384599999792,
            "value": 0.8503937007874016
          },
          {
            "number": 7,
            "time": 130.42677274999792,
            "value": 0.9448818897637795
          },
          {
            "number": 7,
            "time": 130.42677274999792,
            "value": 0.9448818897637795
          },
          {
            "number": 7,
            "time": 204.87795999999975,
            "value": 0.9291338582677166
          },
          {
            "number": 7,
            "time": 204.87795999999975,
            "value": 0.9291338582677166
          },
          {
            "number": 7,
            "time": 205.06088674999975,
            "value": 0.905511811023622
          },
          {
            "number": 7,
            "time": 205.06088674999975,
            "value": 0.905511811023622
          },
          {
            "number": 7,
            "time": 205.24381349999976,
            "value": 0.889763779527559
          },
          {
            "number": 7,
            "time": 205.24381349999976,
            "value": 0.889763779527559
          },
          {
            "number": 7,
            "time": 205.42674024999977,
            "value": 0.8661417322834646
          },
          {
            "number": 7,
            "time": 205.42674024999977,
            "value": 0.8661417322834646
          },
          {
            "number": 7,
            "time": 205.60966699999977,
            "value": 0.8503937007874016
          },
          {
            "number": 7,
            "time": 205.60966699999977,
            "value": 0.8503937007874016
          },
          {
            "number": 7,
            "time": 205.79259374999978,
            "value": 0.8267716535433071
          },
          {
            "number": 7,
            "time": 205.79259374999978,
            "value": 0.8267716535433071
          },
          {
            "number": 7,
            "time": 205.9755204999998,
            "value": 0.8110236220472441
          },
          {
            "number": 7,
            "time": 205.9755204999998,
            "value": 0.8110236220472441
          },
          {
            "number": 7,
            "time": 206.1584472499998,
            "value": 0.7874015748031497
          },
          {
            "number": 7,
            "time": 206.1584472499998,
            "value": 0.7874015748031497
          },
          {
            "number": 7,
            "time": 206.3413739999998,
            "value": 0.7716535433070866
          },
          {
            "number": 7,
            "time": 206.3413739999998,
            "value": 0.7716535433070866
          },
          {
            "number": 7,
            "time": 206.5243007499998,
            "value": 0.7559055118110236
          },
          {
            "number": 7,
            "time": 206.5243007499998,
            "value": 0.7559055118110236
          },
          {
            "number": 7,
            "time": 206.70722749999982,
            "value": 0.7322834645669292
          },
          {
            "number": 7,
            "time": 206.70722749999982,
            "value": 0.7322834645669292
          },
          {
            "number": 7,
            "time": 206.89015424999982,
            "value": 0.7165354330708661
          },
          {
            "number": 7,
            "time": 206.89015424999982,
            "value": 0.7165354330708661
          },
          {
            "number": 7,
            "time": 207.07308099999983,
            "value": 0.6929133858267716
          },
          {
            "number": 7,
            "time": 207.07308099999983,
            "value": 0.6929133858267716
          },
          {
            "number": 7,
            "time": 207.25600774999984,
            "value": 0.6771653543307087
          },
          {
            "number": 7,
            "time": 207.25600774999984,
            "value": 0.6771653543307087
          },
          {
            "number": 7,
            "time": 207.43893449999985,
            "value": 0.6535433070866141
          },
          {
            "number": 7,
            "time": 207.43893449999985,
            "value": 0.6535433070866141
          },
          {
            "number": 7,
            "time": 207.62186124999985,
            "value": 0.6377952755905512
          },
          {
            "number": 7,
            "time": 207.62186124999985,
            "value": 0.6377952755905512
          },
          {
            "number": 7,
            "time": 207.80478799999986,
            "value": 0.6141732283464567
          },
          {
            "number": 7,
            "time": 207.80478799999986,
            "value": 0.6141732283464567
          },
          {
            "number": 7,
            "time": 207.98771474999987,
            "value": 0.5984251968503937
          },
          {
            "number": 7,
            "time": 207.98771474999987,
            "value": 0.5984251968503937
          },
          {
            "number": 7,
            "time": 208.17064149999987,
            "value": 0.5748031496062992
          },
          {
            "number": 7,
            "time": 208.17064149999987,
            "value": 0.5748031496062992
          },
          {
            "number": 7,
            "time": 208.35356824999988,
            "value": 0.5590551181102362
          },
          {
            "number": 7,
            "time": 208.35356824999988,
            "value": 0.5590551181102362
          },
          {
            "number": 7,
            "time": 208.5364949999999,
            "value": 0.5433070866141733
          },
          {
            "number": 7,
            "time": 208.5364949999999,
            "value": 0.5433070866141733
          },
          {
            "number": 7,
            "time": 208.7194217499999,
            "value": 0.5196850393700787
          },
          {
            "number": 7,
            "time": 208.7194217499999,
            "value": 0.5196850393700787
          },
          {
            "number": 7,
            "time": 208.9023484999999,
            "value": 0.5039370078740157
          },
          {
            "number": 7,
            "time": 208.9023484999999,
            "value": 0.5039370078740157
          },
          {
            "number": 7,
            "time": 209.0852752499999,
            "value": 0.48031496062992124
          },
          {
            "number": 7,
            "time": 209.0852752499999,
            "value": 0.48031496062992124
          },
          {
            "number": 7,
            "time": 209.26820199999992,
            "value": 0.4645669291338583
          },
          {
            "number": 7,
            "time": 209.26820199999992,
            "value": 0.4645669291338583
          },
          {
            "number": 7,
            "time": 209.45112874999992,
            "value": 0.4409448818897638
          },
          {
            "number": 7,
            "time": 209.45112874999992,
            "value": 0.4409448818897638
          },
          {
            "number": 7,
            "time": 209.63405549999993,
            "value": 0.4251968503937008
          },
          {
            "number": 7,
            "time": 209.63405549999993,
            "value": 0.4251968503937008
          },
          {
            "number": 7,
            "time": 209.81698224999994,
            "value": 0.4015748031496063
          },
          {
            "number": 7,
            "time": 209.81698224999994,
            "value": 0.4015748031496063
          },
          {
            "number": 7,
            "time": 209.99990899999995,
            "value": 0.3858267716535433
          },
          {
            "number": 7,
            "time": 209.99990899999995,
            "value": 0.3858267716535433
          },
          {
            "number": 7,
            "time": 210.18283574999995,
            "value": 0.3700787401574803
          },
          {
            "number": 7,
            "time": 210.18283574999995,
            "value": 0.3700787401574803
          },
          {
            "number": 7,
            "time": 210.36576249999996,
            "value": 0.3464566929133858
          },
          {
            "number": 7,
            "time": 210.36576249999996,
            "value": 0.3464566929133858
          },
          {
            "number": 7,
            "time": 210.54868924999997,
            "value": 0.33070866141732286
          },
          {
            "number": 7,
            "time": 210.54868924999997,
            "value": 0.33070866141732286
          },
          {
            "number": 7,
            "time": 210.73161599999997,
            "value": 0.30708661417322836
          },
          {
            "number": 7,
            "time": 210.73161599999997,
            "value": 0.30708661417322836
          },
          {
            "number": 7,
            "time": 210.91454274999998,
            "value": 0.29133858267716534
          },
          {
            "number": 7,
            "time": 210.91454274999998,
            "value": 0.29133858267716534
          },
          {
            "number": 7,
            "time": 211.0974695,
            "value": 0.2677165354330709
          },
          {
            "number": 7,
            "time": 211.0974695,
            "value": 0.2677165354330709
          },
          {
            "number": 7,
            "time": 211.28039625,
            "value": 0.25196850393700787
          },
          {
            "number": 7,
            "time": 211.28039625,
            "value": 0.25196850393700787
          },
          {
            "number": 7,
            "time": 211.463323,
            "value": 0.2283464566929134
          },
          {
            "number": 7,
            "time": 211.463323,
            "value": 0.2283464566929134
          },
          {
            "number": 7,
            "time": 211.64624975,
            "value": 0.2125984251968504
          },
          {
            "number": 7,
            "time": 211.64624975,
            "value": 0.2125984251968504
          },
          {
            "number": 7,
            "time": 211.82917650000002,
            "value": 0.1889763779527559
          },
          {
            "number": 7,
            "time": 211.82917650000002,
            "value": 0.1889763779527559
          },
          {
            "number": 7,
            "time": 212.01210325000002,
            "value": 0.1732283464566929
          },
          {
            "number": 7,
            "time": 212.01210325000002,
            "value": 0.1732283464566929
          },
          {
            "number": 7,
            "time": 212.19503000000003,
            "value": 0.15748031496062992
          },
          {
            "number": 7,
            "time": 212.19503000000003,
            "value": 0.15748031496062992
          },
          {
            "number": 7,
            "time": 212.37795675000004,
            "value": 0.13385826771653545
          },
          {
            "number": 7,
            "time": 212.37795675000004,
            "value": 0.13385826771653545
          },
          {
            "number": 7,
            "time": 212.56088350000005,
            "value": 0.11811023622047244
          },
          {
            "number": 7,
            "time": 212.56088350000005,
            "value": 0.11811023622047244
          },
          {
            "number": 7,
            "time": 212.74381025000005,
            "value": 0.09448818897637795
          },
          {
            "number": 7,
            "time": 212.74381025000005,
            "value": 0.09448818897637795
          },
          {
            "number": 7,
            "time": 212.92673700000006,
            "value": 0.07874015748031496
          },
          {
            "number": 7,
            "time": 212.92673700000006,
            "value": 0.07874015748031496
          },
          {
            "number": 7,
            "time": 213.10966375000007,
            "value": 0.05511811023622047
          },
          {
            "number": 7,
            "time": 213.10966375000007,
            "value": 0.05511811023622047
          },
          {
            "number": 7,
            "time": 213.29259050000007,
            "value": 0.03937007874015748
          },
          {
            "number": 7,
            "time": 213.29259050000007,
            "value": 0.03937007874015748
          },
          {
            "number": 7,
            "time": 213.47551725000008,
            "value": 0.015748031496062992
          },
          {
            "number": 7,
            "time": 213.47551725000008,
            "value": 0.015748031496062992
          },
          {
            "number": 7,
            "time": 213.6584440000001,
            "value": 0
          },
          {
            "number": 7,
            "time": 213.6584440000001,
            "value": 0
          }
        ],
        "10": [
          {
            "number": 10,
            "time": 0,
            "value": 0.1889763779527559
          },
          {
            "number": 10,
            "time": 0,
            "value": 0.1889763779527559
          }
        ],
        "91": [
          {
            "number": 91,
            "time": 0,
            "value": 0
          },
          {
            "number": 91,
            "time": 0,
            "value": 0
          }
        ],
        "92": [
          {
            "number": 92,
            "time": 0,
            "value": 0
          },
          {
            "number": 92,
            "time": 0,
            "value": 0
          }
        ],
        "93": [
          {
            "number": 93,
            "time": 0,
            "value": 0
          },
          {
            "number": 93,
            "time": 0,
            "value": 0
          }
        ],
        "95": [
          {
            "number": 95,
            "time": 0,
            "value": 0
          },
          {
            "number": 95,
            "time": 0,
            "value": 0
          }
        ],
        "100": [
          {
            "number": 100,
            "time": 0,
            "value": 0
          },
          {
            "number": 100,
            "time": 0,
            "value": 0
          }
        ],
        "101": [
          {
            "number": 101,
            "time": 0,
            "value": 0
          },
          {
            "number": 101,
            "time": 0,
            "value": 0
          }
        ]
      },
      "id": 1,
      "name": "Track 1",
      "instrumentNumber": 30,
      "instrument": "overdrive guitar",
      "instrumentFamily": "guitar",
      "channelNumber": 1,
      "isPercussion": false
    },
    {
      "startTime": 2.195121,
      "duration": 213.65844399999978,
      "length": 1748,
      "notes": [
        {
          "name": "D3",
          "midi": 50,
          "time": 2.195121,
          "velocity": 0.8740157480314961,
          "duration": 0.03048779166666682
        },
        {
          "name": "A2",
          "midi": 45,
          "time": 2.195121,
          "velocity": 0.8740157480314961,
          "duration": 0.03048779166666682
        },
        {
          "name": "D2",
          "midi": 38,
          "time": 2.195121,
          "velocity": 0.8740157480314961,
          "duration": 0.03048779166666682
        },
        {
          "name": "D3",
          "midi": 50,
          "time": 2.37804775,
          "velocity": 0.8740157480314961,
          "duration": 0.03048779166666682
        },
        {
          "name": "A2",
          "midi": 45,
          "time": 2.37804775,
          "velocity": 0.8740157480314961,
          "duration": 0.03048779166666682
        },
        {
          "name": "D2",
          "midi": 38,
          "time": 2.37804775,
          "velocity": 0.8740157480314961,
          "duration": 0.03048779166666682
        },
        {
          "name": "D3",
          "midi": 50,
          "time": 2.5609745,
          "velocity": 0.8740157480314961,
          "duration": 0.03048779166666682
        },
        {
          "name": "A2",
          "midi": 45,
          "time": 2.5609745,
          "velocity": 0.8740157480314961,
          "duration": 0.03048779166666682
        },
        {
          "name": "D2",
          "midi": 38,
          "time": 2.5609745,
          "velocity": 0.8740157480314961,
          "duration": 0.03048779166666682
        },
        {
          "name": "D3",
          "midi": 50,
          "time": 2.74390125,
          "velocity": 0.8740157480314961,
          "duration": 0.03048779166666682
        },
        {
          "name": "A2",
          "midi": 45,
          "time": 2.74390125,
          "velocity": 0.8740157480314961,
          "duration": 0.03048779166666682
        },
        {
          "name": "D2",
          "midi": 38,
          "time": 2.74390125,
          "velocity": 0.8740157480314961,
          "duration": 0.03048779166666682
        },
        {
          "name": "D3",
          "midi": 50,
          "time": 2.926828,
          "velocity": 0.8740157480314961,
          "duration": 0.18292675000000003
        },
        {
          "name": "A2",
          "midi": 45,
          "time": 2.926828,
          "velocity": 0.8740157480314961,
          "duration": 0.18292675000000003
        },
        {
          "name": "D2",
          "midi": 38,
          "time": 2.926828,
          "velocity": 0.8740157480314961,
          "duration": 0.18292675000000003
        },
        {
          "name": "D3",
          "midi": 50,
          "time": 3.10975475,
          "velocity": 0.8740157480314961,
          "duration": 0.18292675000000003
        },
        {
          "name": "A2",
          "midi": 45,
          "time": 3.10975475,
          "velocity": 0.8740157480314961,
          "duration": 0.18292675000000003
        },
        {
          "name": "D2",
          "midi": 38,
          "time": 3.10975475,
          "velocity": 0.8740157480314961,
          "duration": 0.18292675000000003
        },
        {
          "name": "D3",
          "midi": 50,
          "time": 3.2926815,
          "velocity": 0.8740157480314961,
          "duration": 0.18292675000000003
        },
        {
          "name": "A2",
          "midi": 45,
          "time": 3.2926815,
          "velocity": 0.8740157480314961,
          "duration": 0.18292675000000003
        },
        {
          "name": "D2",
          "midi": 38,
          "time": 3.2926815,
          "velocity": 0.8740157480314961,
          "duration": 0.18292675000000003
        },
        {
          "name": "D3",
          "midi": 50,
          "time": 3.47560825,
          "velocity": 0.8740157480314961,
          "duration": 0.18292675000000003
        },
        {
          "name": "A2",
          "midi": 45,
          "time": 3.47560825,
          "velocity": 0.8740157480314961,
          "duration": 0.18292675000000003
        },
        {
          "name": "D2",
          "midi": 38,
          "time": 3.47560825,
          "velocity": 0.8740157480314961,
          "duration": 0.18292675000000003
        },
        {
          "name": "D3",
          "midi": 50,
          "time": 3.658535,
          "velocity": 0.8740157480314961,
          "duration": 0.18292675000000003
        },
        {
          "name": "A2",
          "midi": 45,
          "time": 3.658535,
          "velocity": 0.8740157480314961,
          "duration": 0.18292675000000003
        },
        {
          "name": "D2",
          "midi": 38,
          "time": 3.658535,
          "velocity": 0.8740157480314961,
          "duration": 0.18292675000000003
        },
        {
          "name": "D3",
          "midi": 50,
          "time": 3.84146175,
          "velocity": 0.8740157480314961,
          "duration": 0.18292674999999958
        },
        {
          "name": "A2",
          "midi": 45,
          "time": 3.84146175,
          "velocity": 0.8740157480314961,
          "duration": 0.18292674999999958
        },
        {
          "name": "D2",
          "midi": 38,
          "time": 3.84146175,
          "velocity": 0.8740157480314961,
          "duration": 0.18292674999999958
        },
        {
          "name": "D3",
          "midi": 50,
          "time": 4.0243885,
          "velocity": 0.8740157480314961,
          "duration": 0.18292675000000003
        },
        {
          "name": "A2",
          "midi": 45,
          "time": 4.0243885,
          "velocity": 0.8740157480314961,
          "duration": 0.18292675000000003
        },
        {
          "name": "D2",
          "midi": 38,
          "time": 4.0243885,
          "velocity": 0.8740157480314961,
          "duration": 0.18292675000000003
        },
        {
          "name": "D3",
          "midi": 50,
          "time": 4.20731525,
          "velocity": 0.8740157480314961,
          "duration": 0.18292675000000003
        },
        {
          "name": "A2",
          "midi": 45,
          "time": 4.20731525,
          "velocity": 0.8740157480314961,
          "duration": 0.18292675000000003
        },
        {
          "name": "D2",
          "midi": 38,
          "time": 4.20731525,
          "velocity": 0.8740157480314961,
          "duration": 0.18292675000000003
        },
        {
          "name": "D3",
          "midi": 50,
          "time": 4.390242,
          "velocity": 0.8740157480314961,
          "duration": 0.18292675000000003
        },
        {
          "name": "A2",
          "midi": 45,
          "time": 4.390242,
          "velocity": 0.8740157480314961,
          "duration": 0.18292675000000003
        },
        {
          "name": "D2",
          "midi": 38,
          "time": 4.390242,
          "velocity": 0.8740157480314961,
          "duration": 0.18292675000000003
        },
        {
          "name": "D3",
          "midi": 50,
          "time": 4.57316875,
          "velocity": 0.8740157480314961,
          "duration": 0.18292675000000003
        },
        {
          "name": "A2",
          "midi": 45,
          "time": 4.57316875,
          "velocity": 0.8740157480314961,
          "duration": 0.18292675000000003
        },
        {
          "name": "D2",
          "midi": 38,
          "time": 4.57316875,
          "velocity": 0.8740157480314961,
          "duration": 0.18292675000000003
        },
        {
          "name": "D3",
          "midi": 50,
          "time": 4.7560955,
          "velocity": 0.8740157480314961,
          "duration": 0.18292675000000003
        },
        {
          "name": "A2",
          "midi": 45,
          "time": 4.7560955,
          "velocity": 0.8740157480314961,
          "duration": 0.18292675000000003
        },
        {
          "name": "D2",
          "midi": 38,
          "time": 4.7560955,
          "velocity": 0.8740157480314961,
          "duration": 0.18292675000000003
        },
        {
          "name": "D3",
          "midi": 50,
          "time": 4.93902225,
          "velocity": 0.8740157480314961,
          "duration": 0.18292675000000003
        },
        {
          "name": "A2",
          "midi": 45,
          "time": 4.93902225,
          "velocity": 0.8740157480314961,
          "duration": 0.18292675000000003
        },
        {
          "name": "D2",
          "midi": 38,
          "time": 4.93902225,
          "velocity": 0.8740157480314961,
          "duration": 0.18292675000000003
        },
        {
          "name": "D3",
          "midi": 50,
          "time": 5.121949,
          "velocity": 0.8740157480314961,
          "duration": 0.18292675000000003
        },
        {
          "name": "A2",
          "midi": 45,
          "time": 5.121949,
          "velocity": 0.8740157480314961,
          "duration": 0.18292675000000003
        },
        {
          "name": "D2",
          "midi": 38,
          "time": 5.121949,
          "velocity": 0.8740157480314961,
          "duration": 0.18292675000000003
        },
        {
          "name": "D3",
          "midi": 50,
          "time": 5.30487575,
          "velocity": 0.8740157480314961,
          "duration": 0.18292675000000003
        },
        {
          "name": "A2",
          "midi": 45,
          "time": 5.30487575,
          "velocity": 0.8740157480314961,
          "duration": 0.18292675000000003
        },
        {
          "name": "D2",
          "midi": 38,
          "time": 5.30487575,
          "velocity": 0.8740157480314961,
          "duration": 0.18292675000000003
        },
        {
          "name": "D3",
          "midi": 50,
          "time": 5.4878025,
          "velocity": 0.8740157480314961,
          "duration": 0.18292675000000003
        },
        {
          "name": "A2",
          "midi": 45,
          "time": 5.4878025,
          "velocity": 0.8740157480314961,
          "duration": 0.18292675000000003
        },
        {
          "name": "D2",
          "midi": 38,
          "time": 5.4878025,
          "velocity": 0.8740157480314961,
          "duration": 0.18292675000000003
        },
        {
          "name": "D3",
          "midi": 50,
          "time": 5.67072925,
          "velocity": 0.8740157480314961,
          "duration": 0.18292675000000003
        },
        {
          "name": "A2",
          "midi": 45,
          "time": 5.67072925,
          "velocity": 0.8740157480314961,
          "duration": 0.18292675000000003
        },
        {
          "name": "D2",
          "midi": 38,
          "time": 5.67072925,
          "velocity": 0.8740157480314961,
          "duration": 0.18292675000000003
        },
        {
          "name": "G3",
          "midi": 55,
          "time": 5.853656,
          "velocity": 0.8740157480314961,
          "duration": 0.18292675000000003
        },
        {
          "name": "D3",
          "midi": 50,
          "time": 5.853656,
          "velocity": 0.8740157480314961,
          "duration": 0.18292675000000003
        },
        {
          "name": "G2",
          "midi": 43,
          "time": 5.853656,
          "velocity": 0.8740157480314961,
          "duration": 0.18292675000000003
        },
        {
          "name": "G3",
          "midi": 55,
          "time": 6.03658275,
          "velocity": 0.8740157480314961,
          "duration": 0.18292675000000003
        },
        {
          "name": "D3",
          "midi": 50,
          "time": 6.03658275,
          "velocity": 0.8740157480314961,
          "duration": 0.18292675000000003
        },
        {
          "name": "G2",
          "midi": 43,
          "time": 6.03658275,
          "velocity": 0.8740157480314961,
          "duration": 0.18292675000000003
        },
        {
          "name": "G3",
          "midi": 55,
          "time": 6.2195095,
          "velocity": 0.8740157480314961,
          "duration": 0.18292675000000003
        },
        {
          "name": "D3",
          "midi": 50,
          "time": 6.2195095,
          "velocity": 0.8740157480314961,
          "duration": 0.18292675000000003
        },
        {
          "name": "G2",
          "midi": 43,
          "time": 6.2195095,
          "velocity": 0.8740157480314961,
          "duration": 0.18292675000000003
        },
        {
          "name": "G3",
          "midi": 55,
          "time": 6.40243625,
          "velocity": 0.8740157480314961,
          "duration": 0.18292675000000003
        },
        {
          "name": "D3",
          "midi": 50,
          "time": 6.40243625,
          "velocity": 0.8740157480314961,
          "duration": 0.18292675000000003
        },
        {
          "name": "G2",
          "midi": 43,
          "time": 6.40243625,
          "velocity": 0.8740157480314961,
          "duration": 0.18292675000000003
        },
        {
          "name": "G3",
          "midi": 55,
          "time": 6.585363,
          "velocity": 0.8740157480314961,
          "duration": 0.18292675000000003
        },
        {
          "name": "D3",
          "midi": 50,
          "time": 6.585363,
          "velocity": 0.8740157480314961,
          "duration": 0.18292675000000003
        },
        {
          "name": "G2",
          "midi": 43,
          "time": 6.585363,
          "velocity": 0.8740157480314961,
          "duration": 0.18292675000000003
        },
        {
          "name": "G3",
          "midi": 55,
          "time": 6.76828975,
          "velocity": 0.8740157480314961,
          "duration": 0.18292675000000003
        },
        {
          "name": "D3",
          "midi": 50,
          "time": 6.76828975,
          "velocity": 0.8740157480314961,
          "duration": 0.18292675000000003
        },
        {
          "name": "G2",
          "midi": 43,
          "time": 6.76828975,
          "velocity": 0.8740157480314961,
          "duration": 0.18292675000000003
        },
        {
          "name": "G3",
          "midi": 55,
          "time": 6.9512165,
          "velocity": 0.8740157480314961,
          "duration": 0.18292675000000003
        },
        {
          "name": "D3",
          "midi": 50,
          "time": 6.9512165,
          "velocity": 0.8740157480314961,
          "duration": 0.18292675000000003
        },
        {
          "name": "G2",
          "midi": 43,
          "time": 6.9512165,
          "velocity": 0.8740157480314961,
          "duration": 0.18292675000000003
        },
        {
          "name": "G3",
          "midi": 55,
          "time": 7.13414325,
          "velocity": 0.8740157480314961,
          "duration": 0.18292675000000003
        },
        {
          "name": "D3",
          "midi": 50,
          "time": 7.13414325,
          "velocity": 0.8740157480314961,
          "duration": 0.18292675000000003
        },
        {
          "name": "G2",
          "midi": 43,
          "time": 7.13414325,
          "velocity": 0.8740157480314961,
          "duration": 0.18292675000000003
        },
        {
          "name": "G3",
          "midi": 55,
          "time": 7.31707,
          "velocity": 0.8740157480314961,
          "duration": 0.18292675000000003
        },
        {
          "name": "D3",
          "midi": 50,
          "time": 7.31707,
          "velocity": 0.8740157480314961,
          "duration": 0.18292675000000003
        },
        {
          "name": "G2",
          "midi": 43,
          "time": 7.31707,
          "velocity": 0.8740157480314961,
          "duration": 0.18292675000000003
        },
        {
          "name": "G3",
          "midi": 55,
          "time": 7.49999675,
          "velocity": 0.8740157480314961,
          "duration": 0.18292675000000003
        },
        {
          "name": "D3",
          "midi": 50,
          "time": 7.49999675,
          "velocity": 0.8740157480314961,
          "duration": 0.18292675000000003
        },
        {
          "name": "G2",
          "midi": 43,
          "time": 7.49999675,
          "velocity": 0.8740157480314961,
          "duration": 0.18292675000000003
        },
        {
          "name": "G3",
          "midi": 55,
          "time": 7.6829235,
          "velocity": 0.8740157480314961,
          "duration": 0.18292675000000003
        },
        {
          "name": "D3",
          "midi": 50,
          "time": 7.6829235,
          "velocity": 0.8740157480314961,
          "duration": 0.18292675000000003
        },
        {
          "name": "G2",
          "midi": 43,
          "time": 7.6829235,
          "velocity": 0.8740157480314961,
          "duration": 0.18292675000000003
        },
        {
          "name": "G3",
          "midi": 55,
          "time": 7.86585025,
          "velocity": 0.8740157480314961,
          "duration": 0.18292674999999914
        },
        {
          "name": "D3",
          "midi": 50,
          "time": 7.86585025,
          "velocity": 0.8740157480314961,
          "duration": 0.18292674999999914
        },
        {
          "name": "G2",
          "midi": 43,
          "time": 7.86585025,
          "velocity": 0.8740157480314961,
          "duration": 0.18292674999999914
        },
        {
          "name": "G3",
          "midi": 55,
          "time": 8.048777,
          "velocity": 0.8740157480314961,
          "duration": 0.18292675000000003
        },
        {
          "name": "D3",
          "midi": 50,
          "time": 8.048777,
          "velocity": 0.8740157480314961,
          "duration": 0.18292675000000003
        },
        {
          "name": "G2",
          "midi": 43,
          "time": 8.048777,
          "velocity": 0.8740157480314961,
          "duration": 0.18292675000000003
        },
        {
          "name": "G3",
          "midi": 55,
          "time": 8.23170375,
          "velocity": 0.8740157480314961,
          "duration": 0.18292675000000003
        },
        {
          "name": "D3",
          "midi": 50,
          "time": 8.23170375,
          "velocity": 0.8740157480314961,
          "duration": 0.18292675000000003
        },
        {
          "name": "G2",
          "midi": 43,
          "time": 8.23170375,
          "velocity": 0.8740157480314961,
          "duration": 0.18292675000000003
        },
        {
          "name": "G3",
          "midi": 55,
          "time": 8.4146305,
          "velocity": 0.8740157480314961,
          "duration": 0.18292675000000003
        },
        {
          "name": "D3",
          "midi": 50,
          "time": 8.4146305,
          "velocity": 0.8740157480314961,
          "duration": 0.18292675000000003
        },
        {
          "name": "G2",
          "midi": 43,
          "time": 8.4146305,
          "velocity": 0.8740157480314961,
          "duration": 0.18292675000000003
        },
        {
          "name": "D3",
          "midi": 50,
          "time": 8.59755725,
          "velocity": 0.8740157480314961,
          "duration": 0.18292675000000003
        },
        {
          "name": "A2",
          "midi": 45,
          "time": 8.59755725,
          "velocity": 0.8740157480314961,
          "duration": 0.18292675000000003
        },
        {
          "name": "D2",
          "midi": 38,
          "time": 8.59755725,
          "velocity": 0.8740157480314961,
          "duration": 0.18292675000000003
        },
        {
          "name": "B3",
          "midi": 59,
          "time": 8.780484,
          "velocity": 0.8740157480314961,
          "duration": 0.18292675000000003
        },
        {
          "name": "F#3",
          "midi": 54,
          "time": 8.780484,
          "velocity": 0.8740157480314961,
          "duration": 0.18292675000000003
        },
        {
          "name": "B2",
          "midi": 47,
          "time": 8.780484,
          "velocity": 0.8740157480314961,
          "duration": 0.18292675000000003
        },
        {
          "name": "B3",
          "midi": 59,
          "time": 8.96341075,
          "velocity": 0.8740157480314961,
          "duration": 0.18292675000000003
        },
        {
          "name": "F#3",
          "midi": 54,
          "time": 8.96341075,
          "velocity": 0.8740157480314961,
          "duration": 0.18292675000000003
        },
        {
          "name": "B2",
          "midi": 47,
          "time": 8.96341075,
          "velocity": 0.8740157480314961,
          "duration": 0.18292675000000003
        },
        {
          "name": "B3",
          "midi": 59,
          "time": 9.1463375,
          "velocity": 0.8740157480314961,
          "duration": 0.18292675000000003
        },
        {
          "name": "F#3",
          "midi": 54,
          "time": 9.1463375,
          "velocity": 0.8740157480314961,
          "duration": 0.18292675000000003
        },
        {
          "name": "B2",
          "midi": 47,
          "time": 9.1463375,
          "velocity": 0.8740157480314961,
          "duration": 0.18292675000000003
        },
        {
          "name": "B3",
          "midi": 59,
          "time": 9.32926425,
          "velocity": 0.8740157480314961,
          "duration": 0.18292675000000003
        },
        {
          "name": "F#3",
          "midi": 54,
          "time": 9.32926425,
          "velocity": 0.8740157480314961,
          "duration": 0.18292675000000003
        },
        {
          "name": "B2",
          "midi": 47,
          "time": 9.32926425,
          "velocity": 0.8740157480314961,
          "duration": 0.18292675000000003
        },
        {
          "name": "B3",
          "midi": 59,
          "time": 9.512191,
          "velocity": 0.8740157480314961,
          "duration": 0.18292675000000003
        },
        {
          "name": "F#3",
          "midi": 54,
          "time": 9.512191,
          "velocity": 0.8740157480314961,
          "duration": 0.18292675000000003
        },
        {
          "name": "B2",
          "midi": 47,
          "time": 9.512191,
          "velocity": 0.8740157480314961,
          "duration": 0.18292675000000003
        },
        {
          "name": "B3",
          "midi": 59,
          "time": 9.69511775,
          "velocity": 0.8740157480314961,
          "duration": 0.18292675000000003
        },
        {
          "name": "F#3",
          "midi": 54,
          "time": 9.69511775,
          "velocity": 0.8740157480314961,
          "duration": 0.18292675000000003
        },
        {
          "name": "B2",
          "midi": 47,
          "time": 9.69511775,
          "velocity": 0.8740157480314961,
          "duration": 0.18292675000000003
        },
        {
          "name": "B3",
          "midi": 59,
          "time": 9.8780445,
          "velocity": 0.8740157480314961,
          "duration": 0.18292675000000003
        },
        {
          "name": "F#3",
          "midi": 54,
          "time": 9.8780445,
          "velocity": 0.8740157480314961,
          "duration": 0.18292675000000003
        },
        {
          "name": "B2",
          "midi": 47,
          "time": 9.8780445,
          "velocity": 0.8740157480314961,
          "duration": 0.18292675000000003
        },
        {
          "name": "B3",
          "midi": 59,
          "time": 10.06097125,
          "velocity": 0.8740157480314961,
          "duration": 0.18292675000000003
        },
        {
          "name": "F#3",
          "midi": 54,
          "time": 10.06097125,
          "velocity": 0.8740157480314961,
          "duration": 0.18292675000000003
        },
        {
          "name": "B2",
          "midi": 47,
          "time": 10.06097125,
          "velocity": 0.8740157480314961,
          "duration": 0.18292675000000003
        },
        {
          "name": "B3",
          "midi": 59,
          "time": 10.243898,
          "velocity": 0.8740157480314961,
          "duration": 0.18292675000000003
        },
        {
          "name": "F#3",
          "midi": 54,
          "time": 10.243898,
          "velocity": 0.8740157480314961,
          "duration": 0.18292675000000003
        },
        {
          "name": "B2",
          "midi": 47,
          "time": 10.243898,
          "velocity": 0.8740157480314961,
          "duration": 0.18292675000000003
        },
        {
          "name": "B3",
          "midi": 59,
          "time": 10.42682475,
          "velocity": 0.8740157480314961,
          "duration": 0.18292675000000003
        },
        {
          "name": "F#3",
          "midi": 54,
          "time": 10.42682475,
          "velocity": 0.8740157480314961,
          "duration": 0.18292675000000003
        },
        {
          "name": "B2",
          "midi": 47,
          "time": 10.42682475,
          "velocity": 0.8740157480314961,
          "duration": 0.18292675000000003
        },
        {
          "name": "B3",
          "midi": 59,
          "time": 10.6097515,
          "velocity": 0.8740157480314961,
          "duration": 0.18292675000000003
        },
        {
          "name": "F#3",
          "midi": 54,
          "time": 10.6097515,
          "velocity": 0.8740157480314961,
          "duration": 0.18292675000000003
        },
        {
          "name": "B2",
          "midi": 47,
          "time": 10.6097515,
          "velocity": 0.8740157480314961,
          "duration": 0.18292675000000003
        },
        {
          "name": "B3",
          "midi": 59,
          "time": 10.79267825,
          "velocity": 0.8740157480314961,
          "duration": 0.18292675000000003
        },
        {
          "name": "F#3",
          "midi": 54,
          "time": 10.79267825,
          "velocity": 0.8740157480314961,
          "duration": 0.18292675000000003
        },
        {
          "name": "B2",
          "midi": 47,
          "time": 10.79267825,
          "velocity": 0.8740157480314961,
          "duration": 0.18292675000000003
        },
        {
          "name": "B3",
          "midi": 59,
          "time": 10.975605,
          "velocity": 0.8740157480314961,
          "duration": 0.18292675000000003
        },
        {
          "name": "F#3",
          "midi": 54,
          "time": 10.975605,
          "velocity": 0.8740157480314961,
          "duration": 0.18292675000000003
        },
        {
          "name": "B2",
          "midi": 47,
          "time": 10.975605,
          "velocity": 0.8740157480314961,
          "duration": 0.18292675000000003
        },
        {
          "name": "B3",
          "midi": 59,
          "time": 11.15853175,
          "velocity": 0.8740157480314961,
          "duration": 0.18292675000000003
        },
        {
          "name": "F#3",
          "midi": 54,
          "time": 11.15853175,
          "velocity": 0.8740157480314961,
          "duration": 0.18292675000000003
        },
        {
          "name": "B2",
          "midi": 47,
          "time": 11.15853175,
          "velocity": 0.8740157480314961,
          "duration": 0.18292675000000003
        },
        {
          "name": "B3",
          "midi": 59,
          "time": 11.3414585,
          "velocity": 0.8740157480314961,
          "duration": 0.18292675000000003
        },
        {
          "name": "F#3",
          "midi": 54,
          "time": 11.3414585,
          "velocity": 0.8740157480314961,
          "duration": 0.18292675000000003
        },
        {
          "name": "B2",
          "midi": 47,
          "time": 11.3414585,
          "velocity": 0.8740157480314961,
          "duration": 0.18292675000000003
        },
        {
          "name": "D3",
          "midi": 50,
          "time": 11.52438525,
          "velocity": 0.8740157480314961,
          "duration": 0.18292675000000003
        },
        {
          "name": "A2",
          "midi": 45,
          "time": 11.52438525,
          "velocity": 0.8740157480314961,
          "duration": 0.18292675000000003
        },
        {
          "name": "D2",
          "midi": 38,
          "time": 11.52438525,
          "velocity": 0.8740157480314961,
          "duration": 0.18292675000000003
        },
        {
          "name": "G3",
          "midi": 55,
          "time": 11.707312,
          "velocity": 0.8740157480314961,
          "duration": 0.18292675000000003
        },
        {
          "name": "D3",
          "midi": 50,
          "time": 11.707312,
          "velocity": 0.8740157480314961,
          "duration": 0.18292675000000003
        },
        {
          "name": "G2",
          "midi": 43,
          "time": 11.707312,
          "velocity": 0.8740157480314961,
          "duration": 0.18292675000000003
        },
        {
          "name": "G3",
          "midi": 55,
          "time": 11.89023875,
          "velocity": 0.8740157480314961,
          "duration": 0.18292675000000003
        },
        {
          "name": "D3",
          "midi": 50,
          "time": 11.89023875,
          "velocity": 0.8740157480314961,
          "duration": 0.18292675000000003
        },
        {
          "name": "G2",
          "midi": 43,
          "time": 11.89023875,
          "velocity": 0.8740157480314961,
          "duration": 0.18292675000000003
        },
        {
          "name": "G3",
          "midi": 55,
          "time": 12.0731655,
          "velocity": 0.8740157480314961,
          "duration": 0.18292675000000003
        },
        {
          "name": "D3",
          "midi": 50,
          "time": 12.0731655,
          "velocity": 0.8740157480314961,
          "duration": 0.18292675000000003
        },
        {
          "name": "G2",
          "midi": 43,
          "time": 12.0731655,
          "velocity": 0.8740157480314961,
          "duration": 0.18292675000000003
        },
        {
          "name": "G3",
          "midi": 55,
          "time": 12.25609225,
          "velocity": 0.8740157480314961,
          "duration": 0.18292675000000003
        },
        {
          "name": "D3",
          "midi": 50,
          "time": 12.25609225,
          "velocity": 0.8740157480314961,
          "duration": 0.18292675000000003
        },
        {
          "name": "G2",
          "midi": 43,
          "time": 12.25609225,
          "velocity": 0.8740157480314961,
          "duration": 0.18292675000000003
        },
        {
          "name": "G3",
          "midi": 55,
          "time": 12.439019,
          "velocity": 0.8740157480314961,
          "duration": 0.18292675000000003
        },
        {
          "name": "D3",
          "midi": 50,
          "time": 12.439019,
          "velocity": 0.8740157480314961,
          "duration": 0.18292675000000003
        },
        {
          "name": "G2",
          "midi": 43,
          "time": 12.439019,
          "velocity": 0.8740157480314961,
          "duration": 0.18292675000000003
        },
        {
          "name": "G3",
          "midi": 55,
          "time": 12.62194575,
          "velocity": 0.8740157480314961,
          "duration": 0.18292675000000003
        },
        {
          "name": "D3",
          "midi": 50,
          "time": 12.62194575,
          "velocity": 0.8740157480314961,
          "duration": 0.18292675000000003
        },
        {
          "name": "G2",
          "midi": 43,
          "time": 12.62194575,
          "velocity": 0.8740157480314961,
          "duration": 0.18292675000000003
        },
        {
          "name": "G3",
          "midi": 55,
          "time": 12.8048725,
          "velocity": 0.8740157480314961,
          "duration": 0.18292675000000003
        },
        {
          "name": "D3",
          "midi": 50,
          "time": 12.8048725,
          "velocity": 0.8740157480314961,
          "duration": 0.18292675000000003
        },
        {
          "name": "G2",
          "midi": 43,
          "time": 12.8048725,
          "velocity": 0.8740157480314961,
          "duration": 0.18292675000000003
        },
        {
          "name": "G3",
          "midi": 55,
          "time": 12.98779925,
          "velocity": 0.8740157480314961,
          "duration": 0.18292675000000003
        },
        {
          "name": "D3",
          "midi": 50,
          "time": 12.98779925,
          "velocity": 0.8740157480314961,
          "duration": 0.18292675000000003
        },
        {
          "name": "G2",
          "midi": 43,
          "time": 12.98779925,
          "velocity": 0.8740157480314961,
          "duration": 0.18292675000000003
        },
        {
          "name": "G3",
          "midi": 55,
          "time": 13.170726,
          "velocity": 0.8740157480314961,
          "duration": 0.18292675000000003
        },
        {
          "name": "D3",
          "midi": 50,
          "time": 13.170726,
          "velocity": 0.8740157480314961,
          "duration": 0.18292675000000003
        },
        {
          "name": "G2",
          "midi": 43,
          "time": 13.170726,
          "velocity": 0.8740157480314961,
          "duration": 0.18292675000000003
        },
        {
          "name": "G3",
          "midi": 55,
          "time": 13.35365275,
          "velocity": 0.8740157480314961,
          "duration": 0.18292675000000003
        },
        {
          "name": "D3",
          "midi": 50,
          "time": 13.35365275,
          "velocity": 0.8740157480314961,
          "duration": 0.18292675000000003
        },
        {
          "name": "G2",
          "midi": 43,
          "time": 13.35365275,
          "velocity": 0.8740157480314961,
          "duration": 0.18292675000000003
        },
        {
          "name": "G3",
          "midi": 55,
          "time": 13.5365795,
          "velocity": 0.8740157480314961,
          "duration": 0.18292675000000003
        },
        {
          "name": "D3",
          "midi": 50,
          "time": 13.5365795,
          "velocity": 0.8740157480314961,
          "duration": 0.18292675000000003
        },
        {
          "name": "G2",
          "midi": 43,
          "time": 13.5365795,
          "velocity": 0.8740157480314961,
          "duration": 0.18292675000000003
        },
        {
          "name": "G3",
          "midi": 55,
          "time": 13.71950625,
          "velocity": 0.8740157480314961,
          "duration": 0.18292675000000003
        },
        {
          "name": "D3",
          "midi": 50,
          "time": 13.71950625,
          "velocity": 0.8740157480314961,
          "duration": 0.18292675000000003
        },
        {
          "name": "G2",
          "midi": 43,
          "time": 13.71950625,
          "velocity": 0.8740157480314961,
          "duration": 0.18292675000000003
        },
        {
          "name": "A2",
          "midi": 45,
          "time": 13.902433,
          "velocity": 0.8740157480314961,
          "duration": 0.030487791666667263
        },
        {
          "name": "D2",
          "midi": 38,
          "time": 13.902433,
          "velocity": 0.8740157480314961,
          "duration": 0.030487791666667263
        },
        {
          "name": "A2",
          "midi": 45,
          "time": 14.08535975,
          "velocity": 0.8740157480314961,
          "duration": 0.030487791666667263
        },
        {
          "name": "D2",
          "midi": 38,
          "time": 14.08535975,
          "velocity": 0.8740157480314961,
          "duration": 0.030487791666667263
        },
        {
          "name": "A2",
          "midi": 45,
          "time": 14.2682865,
          "velocity": 0.8740157480314961,
          "duration": 0.030487791666667263
        },
        {
          "name": "D2",
          "midi": 38,
          "time": 14.2682865,
          "velocity": 0.8740157480314961,
          "duration": 0.030487791666667263
        },
        {
          "name": "D3",
          "midi": 50,
          "time": 14.45121325,
          "velocity": 0.8740157480314961,
          "duration": 0.030487791666667263
        },
        {
          "name": "A2",
          "midi": 45,
          "time": 14.45121325,
          "velocity": 0.8740157480314961,
          "duration": 0.030487791666667263
        },
        {
          "name": "D2",
          "midi": 38,
          "time": 14.45121325,
          "velocity": 0.8740157480314961,
          "duration": 0.030487791666667263
        },
        {
          "name": "D3",
          "midi": 50,
          "time": 14.63414,
          "velocity": 0.8740157480314961,
          "duration": 0.18292675000000003
        },
        {
          "name": "A2",
          "midi": 45,
          "time": 14.63414,
          "velocity": 0.8740157480314961,
          "duration": 0.18292675000000003
        },
        {
          "name": "D2",
          "midi": 38,
          "time": 14.63414,
          "velocity": 0.8740157480314961,
          "duration": 0.18292675000000003
        },
        {
          "name": "D3",
          "midi": 50,
          "time": 14.81706675,
          "velocity": 0.8740157480314961,
          "duration": 0.18292675000000003
        },
        {
          "name": "A2",
          "midi": 45,
          "time": 14.81706675,
          "velocity": 0.8740157480314961,
          "duration": 0.18292675000000003
        },
        {
          "name": "D2",
          "midi": 38,
          "time": 14.81706675,
          "velocity": 0.8740157480314961,
          "duration": 0.18292675000000003
        },
        {
          "name": "D3",
          "midi": 50,
          "time": 14.9999935,
          "velocity": 0.8740157480314961,
          "duration": 0.18292675000000003
        },
        {
          "name": "A2",
          "midi": 45,
          "time": 14.9999935,
          "velocity": 0.8740157480314961,
          "duration": 0.18292675000000003
        },
        {
          "name": "D2",
          "midi": 38,
          "time": 14.9999935,
          "velocity": 0.8740157480314961,
          "duration": 0.18292675000000003
        },
        {
          "name": "D3",
          "midi": 50,
          "time": 15.18292025,
          "velocity": 0.8740157480314961,
          "duration": 0.18292675000000003
        },
        {
          "name": "A2",
          "midi": 45,
          "time": 15.18292025,
          "velocity": 0.8740157480314961,
          "duration": 0.18292675000000003
        },
        {
          "name": "D2",
          "midi": 38,
          "time": 15.18292025,
          "velocity": 0.8740157480314961,
          "duration": 0.18292675000000003
        },
        {
          "name": "D4",
          "midi": 62,
          "time": 15.365847,
          "velocity": 0.8740157480314961,
          "duration": 0.18292675000000003
        },
        {
          "name": "D3",
          "midi": 50,
          "time": 15.365847,
          "velocity": 0.8740157480314961,
          "duration": 0.18292675000000003
        },
        {
          "name": "D4",
          "midi": 62,
          "time": 15.54877375,
          "velocity": 0.8740157480314961,
          "duration": 0.18292675000000003
        },
        {
          "name": "D3",
          "midi": 50,
          "time": 15.54877375,
          "velocity": 0.8740157480314961,
          "duration": 0.18292675000000003
        },
        {
          "name": "D4",
          "midi": 62,
          "time": 15.7317005,
          "velocity": 0.8740157480314961,
          "duration": 0.18292675000000003
        },
        {
          "name": "D3",
          "midi": 50,
          "time": 15.7317005,
          "velocity": 0.8740157480314961,
          "duration": 0.18292675000000003
        },
        {
          "name": "D4",
          "midi": 62,
          "time": 15.91462725,
          "velocity": 0.8740157480314961,
          "duration": 0.18292674999999825
        },
        {
          "name": "D3",
          "midi": 50,
          "time": 15.91462725,
          "velocity": 0.8740157480314961,
          "duration": 0.18292674999999825
        },
        {
          "name": "D3",
          "midi": 50,
          "time": 16.097554,
          "velocity": 0.8740157480314961,
          "duration": 0.18292675000000003
        },
        {
          "name": "A2",
          "midi": 45,
          "time": 16.097554,
          "velocity": 0.8740157480314961,
          "duration": 0.18292675000000003
        },
        {
          "name": "D2",
          "midi": 38,
          "time": 16.097554,
          "velocity": 0.8740157480314961,
          "duration": 0.18292675000000003
        },
        {
          "name": "D3",
          "midi": 50,
          "time": 16.28048075,
          "velocity": 0.8740157480314961,
          "duration": 0.18292675000000003
        },
        {
          "name": "A2",
          "midi": 45,
          "time": 16.28048075,
          "velocity": 0.8740157480314961,
          "duration": 0.18292675000000003
        },
        {
          "name": "D2",
          "midi": 38,
          "time": 16.28048075,
          "velocity": 0.8740157480314961,
          "duration": 0.18292675000000003
        },
        {
          "name": "D3",
          "midi": 50,
          "time": 16.4634075,
          "velocity": 0.8740157480314961,
          "duration": 0.18292675000000003
        },
        {
          "name": "A2",
          "midi": 45,
          "time": 16.4634075,
          "velocity": 0.8740157480314961,
          "duration": 0.18292675000000003
        },
        {
          "name": "D2",
          "midi": 38,
          "time": 16.4634075,
          "velocity": 0.8740157480314961,
          "duration": 0.18292675000000003
        },
        {
          "name": "D3",
          "midi": 50,
          "time": 16.64633425,
          "velocity": 0.8740157480314961,
          "duration": 0.18292675000000003
        },
        {
          "name": "A2",
          "midi": 45,
          "time": 16.64633425,
          "velocity": 0.8740157480314961,
          "duration": 0.18292675000000003
        },
        {
          "name": "D2",
          "midi": 38,
          "time": 16.64633425,
          "velocity": 0.8740157480314961,
          "duration": 0.18292675000000003
        },
        {
          "name": "D4",
          "midi": 62,
          "time": 16.829261,
          "velocity": 0.8740157480314961,
          "duration": 0.18292675000000003
        },
        {
          "name": "D3",
          "midi": 50,
          "time": 16.829261,
          "velocity": 0.8740157480314961,
          "duration": 0.18292675000000003
        },
        {
          "name": "D4",
          "midi": 62,
          "time": 17.01218775,
          "velocity": 0.8740157480314961,
          "duration": 0.18292675000000003
        },
        {
          "name": "D3",
          "midi": 50,
          "time": 17.01218775,
          "velocity": 0.8740157480314961,
          "duration": 0.18292675000000003
        },
        {
          "name": "D4",
          "midi": 62,
          "time": 17.1951145,
          "velocity": 0.8740157480314961,
          "duration": 0.18292675000000003
        },
        {
          "name": "D3",
          "midi": 50,
          "time": 17.1951145,
          "velocity": 0.8740157480314961,
          "duration": 0.18292675000000003
        },
        {
          "name": "D4",
          "midi": 62,
          "time": 17.37804125,
          "velocity": 0.8740157480314961,
          "duration": 0.18292675000000003
        },
        {
          "name": "D3",
          "midi": 50,
          "time": 17.37804125,
          "velocity": 0.8740157480314961,
          "duration": 0.18292675000000003
        },
        {
          "name": "G3",
          "midi": 55,
          "time": 17.560968,
          "velocity": 0.8740157480314961,
          "duration": 0.18292675000000003
        },
        {
          "name": "D3",
          "midi": 50,
          "time": 17.560968,
          "velocity": 0.8740157480314961,
          "duration": 0.18292675000000003
        },
        {
          "name": "G2",
          "midi": 43,
          "time": 17.560968,
          "velocity": 0.8740157480314961,
          "duration": 0.18292675000000003
        },
        {
          "name": "G3",
          "midi": 55,
          "time": 17.74389475,
          "velocity": 0.8740157480314961,
          "duration": 0.18292675000000003
        },
        {
          "name": "D3",
          "midi": 50,
          "time": 17.74389475,
          "velocity": 0.8740157480314961,
          "duration": 0.18292675000000003
        },
        {
          "name": "G2",
          "midi": 43,
          "time": 17.74389475,
          "velocity": 0.8740157480314961,
          "duration": 0.18292675000000003
        },
        {
          "name": "G3",
          "midi": 55,
          "time": 17.9268215,
          "velocity": 0.8740157480314961,
          "duration": 0.18292675000000003
        },
        {
          "name": "D3",
          "midi": 50,
          "time": 17.9268215,
          "velocity": 0.8740157480314961,
          "duration": 0.18292675000000003
        },
        {
          "name": "G2",
          "midi": 43,
          "time": 17.9268215,
          "velocity": 0.8740157480314961,
          "duration": 0.18292675000000003
        },
        {
          "name": "G3",
          "midi": 55,
          "time": 18.10974825,
          "velocity": 0.8740157480314961,
          "duration": 0.18292675000000003
        },
        {
          "name": "D3",
          "midi": 50,
          "time": 18.10974825,
          "velocity": 0.8740157480314961,
          "duration": 0.18292675000000003
        },
        {
          "name": "G2",
          "midi": 43,
          "time": 18.10974825,
          "velocity": 0.8740157480314961,
          "duration": 0.18292675000000003
        },
        {
          "name": "D4",
          "midi": 62,
          "time": 18.292675,
          "velocity": 0.8740157480314961,
          "duration": 0.18292675000000003
        },
        {
          "name": "D3",
          "midi": 50,
          "time": 18.292675,
          "velocity": 0.8740157480314961,
          "duration": 0.18292675000000003
        },
        {
          "name": "D4",
          "midi": 62,
          "time": 18.47560175,
          "velocity": 0.8740157480314961,
          "duration": 0.18292675000000003
        },
        {
          "name": "D3",
          "midi": 50,
          "time": 18.47560175,
          "velocity": 0.8740157480314961,
          "duration": 0.18292675000000003
        },
        {
          "name": "D4",
          "midi": 62,
          "time": 18.6585285,
          "velocity": 0.8740157480314961,
          "duration": 0.18292675000000003
        },
        {
          "name": "D3",
          "midi": 50,
          "time": 18.6585285,
          "velocity": 0.8740157480314961,
          "duration": 0.18292675000000003
        },
        {
          "name": "D4",
          "midi": 62,
          "time": 18.84145525,
          "velocity": 0.8740157480314961,
          "duration": 0.18292675000000003
        },
        {
          "name": "D3",
          "midi": 50,
          "time": 18.84145525,
          "velocity": 0.8740157480314961,
          "duration": 0.18292675000000003
        },
        {
          "name": "G3",
          "midi": 55,
          "time": 19.024382,
          "velocity": 0.8740157480314961,
          "duration": 0.18292675000000003
        },
        {
          "name": "D3",
          "midi": 50,
          "time": 19.024382,
          "velocity": 0.8740157480314961,
          "duration": 0.18292675000000003
        },
        {
          "name": "G2",
          "midi": 43,
          "time": 19.024382,
          "velocity": 0.8740157480314961,
          "duration": 0.18292675000000003
        },
        {
          "name": "G3",
          "midi": 55,
          "time": 19.20730875,
          "velocity": 0.8740157480314961,
          "duration": 0.18292675000000003
        },
        {
          "name": "D3",
          "midi": 50,
          "time": 19.20730875,
          "velocity": 0.8740157480314961,
          "duration": 0.18292675000000003
        },
        {
          "name": "G2",
          "midi": 43,
          "time": 19.20730875,
          "velocity": 0.8740157480314961,
          "duration": 0.18292675000000003
        },
        {
          "name": "G3",
          "midi": 55,
          "time": 19.3902355,
          "velocity": 0.8740157480314961,
          "duration": 0.18292675000000003
        },
        {
          "name": "D3",
          "midi": 50,
          "time": 19.3902355,
          "velocity": 0.8740157480314961,
          "duration": 0.18292675000000003
        },
        {
          "name": "G2",
          "midi": 43,
          "time": 19.3902355,
          "velocity": 0.8740157480314961,
          "duration": 0.18292675000000003
        },
        {
          "name": "G3",
          "midi": 55,
          "time": 19.57316225,
          "velocity": 0.8740157480314961,
          "duration": 0.18292675000000003
        },
        {
          "name": "D3",
          "midi": 50,
          "time": 19.57316225,
          "velocity": 0.8740157480314961,
          "duration": 0.18292675000000003
        },
        {
          "name": "G2",
          "midi": 43,
          "time": 19.57316225,
          "velocity": 0.8740157480314961,
          "duration": 0.18292675000000003
        },
        {
          "name": "D4",
          "midi": 62,
          "time": 19.756089,
          "velocity": 0.8740157480314961,
          "duration": 0.18292675000000003
        },
        {
          "name": "D3",
          "midi": 50,
          "time": 19.756089,
          "velocity": 0.8740157480314961,
          "duration": 0.18292675000000003
        },
        {
          "name": "D4",
          "midi": 62,
          "time": 19.93901575,
          "velocity": 0.8740157480314961,
          "duration": 0.18292675000000003
        },
        {
          "name": "D3",
          "midi": 50,
          "time": 19.93901575,
          "velocity": 0.8740157480314961,
          "duration": 0.18292675000000003
        },
        {
          "name": "D4",
          "midi": 62,
          "time": 20.1219425,
          "velocity": 0.8740157480314961,
          "duration": 0.18292675000000003
        },
        {
          "name": "D3",
          "midi": 50,
          "time": 20.1219425,
          "velocity": 0.8740157480314961,
          "duration": 0.18292675000000003
        },
        {
          "name": "D4",
          "midi": 62,
          "time": 20.30486925,
          "velocity": 0.8740157480314961,
          "duration": 0.18292675000000003
        },
        {
          "name": "D3",
          "midi": 50,
          "time": 20.30486925,
          "velocity": 0.8740157480314961,
          "duration": 0.18292675000000003
        },
        {
          "name": "B3",
          "midi": 59,
          "time": 20.487796,
          "velocity": 0.8740157480314961,
          "duration": 0.18292675000000003
        },
        {
          "name": "F#3",
          "midi": 54,
          "time": 20.487796,
          "velocity": 0.8740157480314961,
          "duration": 0.18292675000000003
        },
        {
          "name": "B2",
          "midi": 47,
          "time": 20.487796,
          "velocity": 0.8740157480314961,
          "duration": 0.18292675000000003
        },
        {
          "name": "B3",
          "midi": 59,
          "time": 20.67072275,
          "velocity": 0.8740157480314961,
          "duration": 0.18292675000000003
        },
        {
          "name": "F#3",
          "midi": 54,
          "time": 20.67072275,
          "velocity": 0.8740157480314961,
          "duration": 0.18292675000000003
        },
        {
          "name": "B2",
          "midi": 47,
          "time": 20.67072275,
          "velocity": 0.8740157480314961,
          "duration": 0.18292675000000003
        },
        {
          "name": "B3",
          "midi": 59,
          "time": 20.8536495,
          "velocity": 0.8740157480314961,
          "duration": 0.18292675000000003
        },
        {
          "name": "F#3",
          "midi": 54,
          "time": 20.8536495,
          "velocity": 0.8740157480314961,
          "duration": 0.18292675000000003
        },
        {
          "name": "B2",
          "midi": 47,
          "time": 20.8536495,
          "velocity": 0.8740157480314961,
          "duration": 0.18292675000000003
        },
        {
          "name": "B3",
          "midi": 59,
          "time": 21.03657625,
          "velocity": 0.8740157480314961,
          "duration": 0.18292675000000003
        },
        {
          "name": "F#3",
          "midi": 54,
          "time": 21.03657625,
          "velocity": 0.8740157480314961,
          "duration": 0.18292675000000003
        },
        {
          "name": "B2",
          "midi": 47,
          "time": 21.03657625,
          "velocity": 0.8740157480314961,
          "duration": 0.18292675000000003
        },
        {
          "name": "F#4",
          "midi": 66,
          "time": 21.219503,
          "velocity": 0.8740157480314961,
          "duration": 0.18292675000000003
        },
        {
          "name": "D3",
          "midi": 50,
          "time": 21.219503,
          "velocity": 0.8740157480314961,
          "duration": 0.030487791666665487
        },
        {
          "name": "F#3",
          "midi": 54,
          "time": 21.219503,
          "velocity": 0.8740157480314961,
          "duration": 0.18292675000000003
        },
        {
          "name": "F#4",
          "midi": 66,
          "time": 21.40242975,
          "velocity": 0.8740157480314961,
          "duration": 0.18292675000000003
        },
        {
          "name": "D3",
          "midi": 50,
          "time": 21.40242975,
          "velocity": 0.8740157480314961,
          "duration": 0.030487791666665487
        },
        {
          "name": "F#3",
          "midi": 54,
          "time": 21.40242975,
          "velocity": 0.8740157480314961,
          "duration": 0.18292675000000003
        },
        {
          "name": "F#4",
          "midi": 66,
          "time": 21.5853565,
          "velocity": 0.8740157480314961,
          "duration": 0.18292675000000003
        },
        {
          "name": "D3",
          "midi": 50,
          "time": 21.5853565,
          "velocity": 0.8740157480314961,
          "duration": 0.030487791666665487
        },
        {
          "name": "F#3",
          "midi": 54,
          "time": 21.5853565,
          "velocity": 0.8740157480314961,
          "duration": 0.18292675000000003
        },
        {
          "name": "F#4",
          "midi": 66,
          "time": 21.76828325,
          "velocity": 0.8740157480314961,
          "duration": 0.18292675000000003
        },
        {
          "name": "D3",
          "midi": 50,
          "time": 21.76828325,
          "velocity": 0.8740157480314961,
          "duration": 0.030487791666665487
        },
        {
          "name": "F#3",
          "midi": 54,
          "time": 21.76828325,
          "velocity": 0.8740157480314961,
          "duration": 0.18292675000000003
        },
        {
          "name": "B3",
          "midi": 59,
          "time": 21.95121,
          "velocity": 0.8740157480314961,
          "duration": 0.18292675000000003
        },
        {
          "name": "F#3",
          "midi": 54,
          "time": 21.95121,
          "velocity": 0.8740157480314961,
          "duration": 0.18292675000000003
        },
        {
          "name": "B2",
          "midi": 47,
          "time": 21.95121,
          "velocity": 0.8740157480314961,
          "duration": 0.18292675000000003
        },
        {
          "name": "B3",
          "midi": 59,
          "time": 22.13413675,
          "velocity": 0.8740157480314961,
          "duration": 0.18292675000000003
        },
        {
          "name": "F#3",
          "midi": 54,
          "time": 22.13413675,
          "velocity": 0.8740157480314961,
          "duration": 0.18292675000000003
        },
        {
          "name": "B2",
          "midi": 47,
          "time": 22.13413675,
          "velocity": 0.8740157480314961,
          "duration": 0.18292675000000003
        },
        {
          "name": "B3",
          "midi": 59,
          "time": 22.3170635,
          "velocity": 0.8740157480314961,
          "duration": 0.18292675000000003
        },
        {
          "name": "F#3",
          "midi": 54,
          "time": 22.3170635,
          "velocity": 0.8740157480314961,
          "duration": 0.18292675000000003
        },
        {
          "name": "B2",
          "midi": 47,
          "time": 22.3170635,
          "velocity": 0.8740157480314961,
          "duration": 0.18292675000000003
        },
        {
          "name": "B3",
          "midi": 59,
          "time": 22.49999025,
          "velocity": 0.8740157480314961,
          "duration": 0.18292675000000003
        },
        {
          "name": "F#3",
          "midi": 54,
          "time": 22.49999025,
          "velocity": 0.8740157480314961,
          "duration": 0.18292675000000003
        },
        {
          "name": "B2",
          "midi": 47,
          "time": 22.49999025,
          "velocity": 0.8740157480314961,
          "duration": 0.18292675000000003
        },
        {
          "name": "F#4",
          "midi": 66,
          "time": 22.682917,
          "velocity": 0.8740157480314961,
          "duration": 0.18292675000000003
        },
        {
          "name": "D3",
          "midi": 50,
          "time": 22.682917,
          "velocity": 0.8740157480314961,
          "duration": 0.030487791666665487
        },
        {
          "name": "F#3",
          "midi": 54,
          "time": 22.682917,
          "velocity": 0.8740157480314961,
          "duration": 0.18292675000000003
        },
        {
          "name": "F#4",
          "midi": 66,
          "time": 22.86584375,
          "velocity": 0.8740157480314961,
          "duration": 0.18292675000000003
        },
        {
          "name": "D3",
          "midi": 50,
          "time": 22.86584375,
          "velocity": 0.8740157480314961,
          "duration": 0.030487791666665487
        },
        {
          "name": "F#3",
          "midi": 54,
          "time": 22.86584375,
          "velocity": 0.8740157480314961,
          "duration": 0.18292675000000003
        },
        {
          "name": "F#4",
          "midi": 66,
          "time": 23.0487705,
          "velocity": 0.8740157480314961,
          "duration": 0.18292675000000003
        },
        {
          "name": "D3",
          "midi": 50,
          "time": 23.0487705,
          "velocity": 0.8740157480314961,
          "duration": 0.030487791666665487
        },
        {
          "name": "F#3",
          "midi": 54,
          "time": 23.0487705,
          "velocity": 0.8740157480314961,
          "duration": 0.18292675000000003
        },
        {
          "name": "F#4",
          "midi": 66,
          "time": 23.23169725,
          "velocity": 0.8740157480314961,
          "duration": 0.18292675000000003
        },
        {
          "name": "D3",
          "midi": 50,
          "time": 23.23169725,
          "velocity": 0.8740157480314961,
          "duration": 0.030487791666665487
        },
        {
          "name": "F#3",
          "midi": 54,
          "time": 23.23169725,
          "velocity": 0.8740157480314961,
          "duration": 0.18292675000000003
        },
        {
          "name": "A3",
          "midi": 57,
          "time": 23.414624,
          "velocity": 0.8740157480314961,
          "duration": 2.9268280000000004
        },
        {
          "name": "D3",
          "midi": 50,
          "time": 23.414624,
          "velocity": 0.8740157480314961,
          "duration": 2.9268280000000004
        },
        {
          "name": "G2",
          "midi": 43,
          "time": 23.414624,
          "velocity": 0.8740157480314961,
          "duration": 2.9268280000000004
        },
        {
          "name": "D4",
          "midi": 62,
          "time": 38.048764,
          "velocity": 0.8740157480314961,
          "duration": 0.18292675000000003
        },
        {
          "name": "D3",
          "midi": 50,
          "time": 38.048764,
          "velocity": 0.8740157480314961,
          "duration": 0.18292675000000003
        },
        {
          "name": "D4",
          "midi": 62,
          "time": 38.4146175,
          "velocity": 0.8740157480314961,
          "duration": 0.18292675000000003
        },
        {
          "name": "D3",
          "midi": 50,
          "time": 38.4146175,
          "velocity": 0.8740157480314961,
          "duration": 0.18292675000000003
        },
        {
          "name": "D4",
          "midi": 62,
          "time": 38.780471,
          "velocity": 0.8740157480314961,
          "duration": 0.18292675000000003
        },
        {
          "name": "D3",
          "midi": 50,
          "time": 38.780471,
          "velocity": 0.8740157480314961,
          "duration": 0.18292675000000003
        },
        {
          "name": "D4",
          "midi": 62,
          "time": 39.1463245,
          "velocity": 0.8740157480314961,
          "duration": 0.18292675000000003
        },
        {
          "name": "D3",
          "midi": 50,
          "time": 39.1463245,
          "velocity": 0.8740157480314961,
          "duration": 0.18292675000000003
        },
        {
          "name": "D4",
          "midi": 62,
          "time": 39.512178,
          "velocity": 0.8740157480314961,
          "duration": 0.18292675000000003
        },
        {
          "name": "E3",
          "midi": 52,
          "time": 39.512178,
          "velocity": 0.8740157480314961,
          "duration": 0.18292675000000003
        },
        {
          "name": "D4",
          "midi": 62,
          "time": 39.8780315,
          "velocity": 0.8740157480314961,
          "duration": 0.18292675000000003
        },
        {
          "name": "E3",
          "midi": 52,
          "time": 39.8780315,
          "velocity": 0.8740157480314961,
          "duration": 0.18292675000000003
        },
        {
          "name": "D4",
          "midi": 62,
          "time": 40.243885,
          "velocity": 0.8740157480314961,
          "duration": 0.18292675000000003
        },
        {
          "name": "E3",
          "midi": 52,
          "time": 40.243885,
          "velocity": 0.8740157480314961,
          "duration": 0.18292675000000003
        },
        {
          "name": "D4",
          "midi": 62,
          "time": 40.6097385,
          "velocity": 0.8740157480314961,
          "duration": 0.18292675000000003
        },
        {
          "name": "E3",
          "midi": 52,
          "time": 40.6097385,
          "velocity": 0.8740157480314961,
          "duration": 0.18292675000000003
        },
        {
          "name": "D4",
          "midi": 62,
          "time": 40.975592,
          "velocity": 0.8740157480314961,
          "duration": 0.18292675000000003
        },
        {
          "name": "D3",
          "midi": 50,
          "time": 40.975592,
          "velocity": 0.8740157480314961,
          "duration": 0.18292675000000003
        },
        {
          "name": "D4",
          "midi": 62,
          "time": 41.3414455,
          "velocity": 0.8740157480314961,
          "duration": 0.18292675000000003
        },
        {
          "name": "D3",
          "midi": 50,
          "time": 41.3414455,
          "velocity": 0.8740157480314961,
          "duration": 0.18292675000000003
        },
        {
          "name": "D4",
          "midi": 62,
          "time": 41.707299,
          "velocity": 0.8740157480314961,
          "duration": 0.18292675000000003
        },
        {
          "name": "D3",
          "midi": 50,
          "time": 41.707299,
          "velocity": 0.8740157480314961,
          "duration": 0.18292675000000003
        },
        {
          "name": "D4",
          "midi": 62,
          "time": 42.0731525,
          "velocity": 0.8740157480314961,
          "duration": 0.18292675000000003
        },
        {
          "name": "D3",
          "midi": 50,
          "time": 42.0731525,
          "velocity": 0.8740157480314961,
          "duration": 0.18292675000000003
        },
        {
          "name": "D4",
          "midi": 62,
          "time": 42.439006,
          "velocity": 0.8740157480314961,
          "duration": 0.18292675000000003
        },
        {
          "name": "E3",
          "midi": 52,
          "time": 42.439006,
          "velocity": 0.8740157480314961,
          "duration": 0.18292675000000003
        },
        {
          "name": "D4",
          "midi": 62,
          "time": 42.8048595,
          "velocity": 0.8740157480314961,
          "duration": 0.18292675000000003
        },
        {
          "name": "E3",
          "midi": 52,
          "time": 42.8048595,
          "velocity": 0.8740157480314961,
          "duration": 0.18292675000000003
        },
        {
          "name": "D4",
          "midi": 62,
          "time": 43.170713,
          "velocity": 0.8740157480314961,
          "duration": 0.18292675000000003
        },
        {
          "name": "E3",
          "midi": 52,
          "time": 43.170713,
          "velocity": 0.8740157480314961,
          "duration": 0.18292675000000003
        },
        {
          "name": "D4",
          "midi": 62,
          "time": 43.5365665,
          "velocity": 0.8740157480314961,
          "duration": 0.18292675000000003
        },
        {
          "name": "E3",
          "midi": 52,
          "time": 43.5365665,
          "velocity": 0.8740157480314961,
          "duration": 0.18292675000000003
        },
        {
          "name": "D4",
          "midi": 62,
          "time": 43.90242,
          "velocity": 0.8740157480314961,
          "duration": 0.18292675000000003
        },
        {
          "name": "D3",
          "midi": 50,
          "time": 43.90242,
          "velocity": 0.8740157480314961,
          "duration": 0.18292675000000003
        },
        {
          "name": "D4",
          "midi": 62,
          "time": 44.2682735,
          "velocity": 0.8740157480314961,
          "duration": 0.18292675000000003
        },
        {
          "name": "D3",
          "midi": 50,
          "time": 44.2682735,
          "velocity": 0.8740157480314961,
          "duration": 0.18292675000000003
        },
        {
          "name": "D4",
          "midi": 62,
          "time": 44.634127,
          "velocity": 0.8740157480314961,
          "duration": 0.18292675000000003
        },
        {
          "name": "D3",
          "midi": 50,
          "time": 44.634127,
          "velocity": 0.8740157480314961,
          "duration": 0.18292675000000003
        },
        {
          "name": "D4",
          "midi": 62,
          "time": 44.9999805,
          "velocity": 0.8740157480314961,
          "duration": 0.18292675000000003
        },
        {
          "name": "D3",
          "midi": 50,
          "time": 44.9999805,
          "velocity": 0.8740157480314961,
          "duration": 0.18292675000000003
        },
        {
          "name": "D4",
          "midi": 62,
          "time": 45.365834,
          "velocity": 0.8740157480314961,
          "duration": 0.18292675000000003
        },
        {
          "name": "E3",
          "midi": 52,
          "time": 45.365834,
          "velocity": 0.8740157480314961,
          "duration": 0.18292675000000003
        },
        {
          "name": "D4",
          "midi": 62,
          "time": 45.7316875,
          "velocity": 0.8740157480314961,
          "duration": 0.18292675000000003
        },
        {
          "name": "E3",
          "midi": 52,
          "time": 45.7316875,
          "velocity": 0.8740157480314961,
          "duration": 0.18292675000000003
        },
        {
          "name": "D4",
          "midi": 62,
          "time": 46.097541,
          "velocity": 0.8740157480314961,
          "duration": 0.18292675000000003
        },
        {
          "name": "E3",
          "midi": 52,
          "time": 46.097541,
          "velocity": 0.8740157480314961,
          "duration": 0.18292675000000003
        },
        {
          "name": "D4",
          "midi": 62,
          "time": 46.4633945,
          "velocity": 0.8740157480314961,
          "duration": 0.18292675000000003
        },
        {
          "name": "E3",
          "midi": 52,
          "time": 46.4633945,
          "velocity": 0.8740157480314961,
          "duration": 0.18292675000000003
        },
        {
          "name": "D4",
          "midi": 62,
          "time": 46.829248,
          "velocity": 0.8740157480314961,
          "duration": 0.18292675000000003
        },
        {
          "name": "D3",
          "midi": 50,
          "time": 46.829248,
          "velocity": 0.8740157480314961,
          "duration": 0.18292675000000003
        },
        {
          "name": "D4",
          "midi": 62,
          "time": 47.1951015,
          "velocity": 0.8740157480314961,
          "duration": 0.18292675000000003
        },
        {
          "name": "D3",
          "midi": 50,
          "time": 47.1951015,
          "velocity": 0.8740157480314961,
          "duration": 0.18292675000000003
        },
        {
          "name": "D4",
          "midi": 62,
          "time": 47.560955,
          "velocity": 0.8740157480314961,
          "duration": 0.18292675000000003
        },
        {
          "name": "D3",
          "midi": 50,
          "time": 47.560955,
          "velocity": 0.8740157480314961,
          "duration": 0.18292675000000003
        },
        {
          "name": "D4",
          "midi": 62,
          "time": 47.9268085,
          "velocity": 0.8740157480314961,
          "duration": 0.18292675000000003
        },
        {
          "name": "D3",
          "midi": 50,
          "time": 47.9268085,
          "velocity": 0.8740157480314961,
          "duration": 0.18292675000000003
        },
        {
          "name": "D4",
          "midi": 62,
          "time": 48.292662,
          "velocity": 0.8740157480314961,
          "duration": 0.18292675000000003
        },
        {
          "name": "E3",
          "midi": 52,
          "time": 48.292662,
          "velocity": 0.8740157480314961,
          "duration": 0.18292675000000003
        },
        {
          "name": "D4",
          "midi": 62,
          "time": 48.6585155,
          "velocity": 0.8740157480314961,
          "duration": 0.18292675000000003
        },
        {
          "name": "E3",
          "midi": 52,
          "time": 48.6585155,
          "velocity": 0.8740157480314961,
          "duration": 0.18292675000000003
        },
        {
          "name": "D4",
          "midi": 62,
          "time": 49.024369,
          "velocity": 0.8740157480314961,
          "duration": 0.18292675000000003
        },
        {
          "name": "E3",
          "midi": 52,
          "time": 49.024369,
          "velocity": 0.8740157480314961,
          "duration": 0.18292675000000003
        },
        {
          "name": "D4",
          "midi": 62,
          "time": 49.3902225,
          "velocity": 0.8740157480314961,
          "duration": 0.18292675000000003
        },
        {
          "name": "E3",
          "midi": 52,
          "time": 49.3902225,
          "velocity": 0.8740157480314961,
          "duration": 0.18292675000000003
        },
        {
          "name": "F#2",
          "midi": 42,
          "time": 49.756076,
          "velocity": 0.7874015748031497,
          "duration": 0.18292675000000003
        },
        {
          "name": "F#2",
          "midi": 42,
          "time": 49.93900275,
          "velocity": 0.7874015748031497,
          "duration": 0.18292675000000003
        },
        {
          "name": "F#2",
          "midi": 42,
          "time": 50.1219295,
          "velocity": 0.7874015748031497,
          "duration": 0.18292675000000003
        },
        {
          "name": "F#2",
          "midi": 42,
          "time": 50.30485625,
          "velocity": 0.7874015748031497,
          "duration": 0.18292675000000003
        },
        {
          "name": "F#2",
          "midi": 42,
          "time": 50.487783,
          "velocity": 0.7874015748031497,
          "duration": 0.18292675000000003
        },
        {
          "name": "F#2",
          "midi": 42,
          "time": 50.67070975,
          "velocity": 0.7874015748031497,
          "duration": 0.18292675000000003
        },
        {
          "name": "G2",
          "midi": 43,
          "time": 50.8536365,
          "velocity": 0.7874015748031497,
          "duration": 0.18292675000000003
        },
        {
          "name": "G2",
          "midi": 43,
          "time": 51.03656325,
          "velocity": 0.7874015748031497,
          "duration": 0.18292675000000003
        },
        {
          "name": "G2",
          "midi": 43,
          "time": 51.21949,
          "velocity": 0.7874015748031497,
          "duration": 0.18292675000000003
        },
        {
          "name": "G2",
          "midi": 43,
          "time": 51.40241675,
          "velocity": 0.7874015748031497,
          "duration": 0.18292675000000003
        },
        {
          "name": "G2",
          "midi": 43,
          "time": 51.5853435,
          "velocity": 0.7874015748031497,
          "duration": 0.18292675000000003
        },
        {
          "name": "G2",
          "midi": 43,
          "time": 51.76827025,
          "velocity": 0.7874015748031497,
          "duration": 0.18292675000000003
        },
        {
          "name": "G2",
          "midi": 43,
          "time": 51.951197,
          "velocity": 0.7874015748031497,
          "duration": 0.18292675000000003
        },
        {
          "name": "G2",
          "midi": 43,
          "time": 52.13412375,
          "velocity": 0.7874015748031497,
          "duration": 0.18292675000000003
        },
        {
          "name": "G2",
          "midi": 43,
          "time": 52.3170505,
          "velocity": 0.7874015748031497,
          "duration": 0.18292675000000003
        },
        {
          "name": "G2",
          "midi": 43,
          "time": 52.49997725,
          "velocity": 0.7874015748031497,
          "duration": 0.18292675000000003
        },
        {
          "name": "A2",
          "midi": 45,
          "time": 52.682904,
          "velocity": 0.7874015748031497,
          "duration": 0.18292675000000003
        },
        {
          "name": "A2",
          "midi": 45,
          "time": 52.86583075,
          "velocity": 0.7874015748031497,
          "duration": 0.18292675000000003
        },
        {
          "name": "A2",
          "midi": 45,
          "time": 53.0487575,
          "velocity": 0.7874015748031497,
          "duration": 0.18292675000000003
        },
        {
          "name": "A2",
          "midi": 45,
          "time": 53.23168425,
          "velocity": 0.7874015748031497,
          "duration": 0.18292675000000003
        },
        {
          "name": "A2",
          "midi": 45,
          "time": 53.414611,
          "velocity": 0.7874015748031497,
          "duration": 0.18292675000000003
        },
        {
          "name": "A2",
          "midi": 45,
          "time": 53.59753775,
          "velocity": 0.7874015748031497,
          "duration": 0.18292675000000003
        },
        {
          "name": "B2",
          "midi": 47,
          "time": 53.7804645,
          "velocity": 0.7874015748031497,
          "duration": 0.18292675000000003
        },
        {
          "name": "B2",
          "midi": 47,
          "time": 53.96339125,
          "velocity": 0.7874015748031497,
          "duration": 0.18292675000000003
        },
        {
          "name": "B2",
          "midi": 47,
          "time": 54.146318,
          "velocity": 0.7874015748031497,
          "duration": 0.18292675000000003
        },
        {
          "name": "B2",
          "midi": 47,
          "time": 54.32924475,
          "velocity": 0.7874015748031497,
          "duration": 0.18292675000000003
        },
        {
          "name": "B2",
          "midi": 47,
          "time": 54.5121715,
          "velocity": 0.7874015748031497,
          "duration": 0.18292675000000003
        },
        {
          "name": "B2",
          "midi": 47,
          "time": 54.69509825,
          "velocity": 0.7874015748031497,
          "duration": 0.18292675000000003
        },
        {
          "name": "B2",
          "midi": 47,
          "time": 54.878025,
          "velocity": 0.7874015748031497,
          "duration": 0.18292675000000003
        },
        {
          "name": "B2",
          "midi": 47,
          "time": 55.06095175,
          "velocity": 0.7874015748031497,
          "duration": 0.18292675000000003
        },
        {
          "name": "B2",
          "midi": 47,
          "time": 55.2438785,
          "velocity": 0.7874015748031497,
          "duration": 0.18292675000000003
        },
        {
          "name": "B2",
          "midi": 47,
          "time": 55.42680525,
          "velocity": 0.7874015748031497,
          "duration": 0.18292675000000003
        },
        {
          "name": "C3",
          "midi": 48,
          "time": 55.609732,
          "velocity": 0.7874015748031497,
          "duration": 0.18292675000000003
        },
        {
          "name": "C3",
          "midi": 48,
          "time": 55.79265875,
          "velocity": 0.7874015748031497,
          "duration": 0.18292675000000003
        },
        {
          "name": "C3",
          "midi": 48,
          "time": 55.9755855,
          "velocity": 0.7874015748031497,
          "duration": 0.18292675000000003
        },
        {
          "name": "C3",
          "midi": 48,
          "time": 56.15851225,
          "velocity": 0.7874015748031497,
          "duration": 0.18292675000000003
        },
        {
          "name": "C3",
          "midi": 48,
          "time": 56.341439,
          "velocity": 0.7874015748031497,
          "duration": 0.18292675000000003
        },
        {
          "name": "C3",
          "midi": 48,
          "time": 56.52436575,
          "velocity": 0.7874015748031497,
          "duration": 0.18292675000000003
        },
        {
          "name": "B2",
          "midi": 47,
          "time": 56.7072925,
          "velocity": 0.7874015748031497,
          "duration": 0.18292675000000003
        },
        {
          "name": "B2",
          "midi": 47,
          "time": 56.89021925,
          "velocity": 0.7874015748031497,
          "duration": 0.18292675000000003
        },
        {
          "name": "B2",
          "midi": 47,
          "time": 57.073146,
          "velocity": 0.7874015748031497,
          "duration": 0.18292675000000003
        },
        {
          "name": "B2",
          "midi": 47,
          "time": 57.25607275,
          "velocity": 0.7874015748031497,
          "duration": 0.18292675000000003
        },
        {
          "name": "B2",
          "midi": 47,
          "time": 57.4389995,
          "velocity": 0.7874015748031497,
          "duration": 0.18292675000000003
        },
        {
          "name": "B2",
          "midi": 47,
          "time": 57.62192625,
          "velocity": 0.7874015748031497,
          "duration": 0.18292675000000003
        },
        {
          "name": "B2",
          "midi": 47,
          "time": 57.804853,
          "velocity": 0.7874015748031497,
          "duration": 0.18292675000000003
        },
        {
          "name": "B2",
          "midi": 47,
          "time": 57.98777975,
          "velocity": 0.7874015748031497,
          "duration": 0.18292675000000003
        },
        {
          "name": "B2",
          "midi": 47,
          "time": 58.1707065,
          "velocity": 0.7874015748031497,
          "duration": 0.18292675000000003
        },
        {
          "name": "B2",
          "midi": 47,
          "time": 58.35363325,
          "velocity": 0.7874015748031497,
          "duration": 0.18292675000000003
        },
        {
          "name": "G2",
          "midi": 43,
          "time": 58.53656,
          "velocity": 0.7874015748031497,
          "duration": 0.18292675000000003
        },
        {
          "name": "G2",
          "midi": 43,
          "time": 58.71948675,
          "velocity": 0.7874015748031497,
          "duration": 0.18292675000000003
        },
        {
          "name": "G2",
          "midi": 43,
          "time": 58.9024135,
          "velocity": 0.7874015748031497,
          "duration": 0.18292675000000003
        },
        {
          "name": "G2",
          "midi": 43,
          "time": 59.08534025,
          "velocity": 0.7874015748031497,
          "duration": 0.18292675000000003
        },
        {
          "name": "G2",
          "midi": 43,
          "time": 59.268267,
          "velocity": 0.7874015748031497,
          "duration": 0.18292675000000003
        },
        {
          "name": "G2",
          "midi": 43,
          "time": 59.45119375,
          "velocity": 0.7874015748031497,
          "duration": 0.18292675000000003
        },
        {
          "name": "G2",
          "midi": 43,
          "time": 59.6341205,
          "velocity": 0.7874015748031497,
          "duration": 0.18292675000000003
        },
        {
          "name": "G2",
          "midi": 43,
          "time": 59.81704725,
          "velocity": 0.7874015748031497,
          "duration": 0.18292675000000003
        },
        {
          "name": "D3",
          "midi": 50,
          "time": 59.999974,
          "velocity": 0.8740157480314961,
          "duration": 0.18292675000000003
        },
        {
          "name": "G2",
          "midi": 43,
          "time": 59.999974,
          "velocity": 0.8740157480314961,
          "duration": 0.18292675000000003
        },
        {
          "name": "D3",
          "midi": 50,
          "time": 60.18290075,
          "velocity": 0.8740157480314961,
          "duration": 0.18292675000000003
        },
        {
          "name": "G2",
          "midi": 43,
          "time": 60.18290075,
          "velocity": 0.8740157480314961,
          "duration": 0.18292675000000003
        },
        {
          "name": "D3",
          "midi": 50,
          "time": 60.3658275,
          "velocity": 0.8740157480314961,
          "duration": 0.18292675000000003
        },
        {
          "name": "G2",
          "midi": 43,
          "time": 60.3658275,
          "velocity": 0.8740157480314961,
          "duration": 0.18292675000000003
        },
        {
          "name": "D3",
          "midi": 50,
          "time": 60.54875425,
          "velocity": 0.8740157480314961,
          "duration": 0.18292675000000003
        },
        {
          "name": "G2",
          "midi": 43,
          "time": 60.54875425,
          "velocity": 0.8740157480314961,
          "duration": 0.18292675000000003
        },
        {
          "name": "A2",
          "midi": 45,
          "time": 60.731681,
          "velocity": 0.8740157480314961,
          "duration": 0.030487791666665487
        },
        {
          "name": "D2",
          "midi": 38,
          "time": 60.731681,
          "velocity": 0.8740157480314961,
          "duration": 0.030487791666665487
        },
        {
          "name": "A2",
          "midi": 45,
          "time": 60.91460775,
          "velocity": 0.8740157480314961,
          "duration": 0.030487791666665487
        },
        {
          "name": "D2",
          "midi": 38,
          "time": 60.91460775,
          "velocity": 0.8740157480314961,
          "duration": 0.030487791666665487
        },
        {
          "name": "A2",
          "midi": 45,
          "time": 61.0975345,
          "velocity": 0.8740157480314961,
          "duration": 0.030487791666665487
        },
        {
          "name": "D2",
          "midi": 38,
          "time": 61.0975345,
          "velocity": 0.8740157480314961,
          "duration": 0.030487791666665487
        },
        {
          "name": "A2",
          "midi": 45,
          "time": 61.28046125,
          "velocity": 0.8740157480314961,
          "duration": 0.030487791666665487
        },
        {
          "name": "D2",
          "midi": 38,
          "time": 61.28046125,
          "velocity": 0.8740157480314961,
          "duration": 0.030487791666665487
        },
        {
          "name": "D3",
          "midi": 50,
          "time": 61.463388,
          "velocity": 0.8740157480314961,
          "duration": 0.18292675000000003
        },
        {
          "name": "A2",
          "midi": 45,
          "time": 61.463388,
          "velocity": 0.8740157480314961,
          "duration": 0.18292675000000003
        },
        {
          "name": "D2",
          "midi": 38,
          "time": 61.463388,
          "velocity": 0.8740157480314961,
          "duration": 0.18292675000000003
        },
        {
          "name": "D3",
          "midi": 50,
          "time": 61.64631475,
          "velocity": 0.8740157480314961,
          "duration": 0.18292675000000003
        },
        {
          "name": "A2",
          "midi": 45,
          "time": 61.64631475,
          "velocity": 0.8740157480314961,
          "duration": 0.18292675000000003
        },
        {
          "name": "D2",
          "midi": 38,
          "time": 61.64631475,
          "velocity": 0.8740157480314961,
          "duration": 0.18292675000000003
        },
        {
          "name": "D3",
          "midi": 50,
          "time": 61.8292415,
          "velocity": 0.8740157480314961,
          "duration": 0.18292675000000003
        },
        {
          "name": "A2",
          "midi": 45,
          "time": 61.8292415,
          "velocity": 0.8740157480314961,
          "duration": 0.18292675000000003
        },
        {
          "name": "D2",
          "midi": 38,
          "time": 61.8292415,
          "velocity": 0.8740157480314961,
          "duration": 0.18292675000000003
        },
        {
          "name": "D3",
          "midi": 50,
          "time": 62.01216825,
          "velocity": 0.8740157480314961,
          "duration": 0.18292675000000003
        },
        {
          "name": "A2",
          "midi": 45,
          "time": 62.01216825,
          "velocity": 0.8740157480314961,
          "duration": 0.18292675000000003
        },
        {
          "name": "D2",
          "midi": 38,
          "time": 62.01216825,
          "velocity": 0.8740157480314961,
          "duration": 0.18292675000000003
        },
        {
          "name": "D3",
          "midi": 50,
          "time": 62.195095,
          "velocity": 0.8740157480314961,
          "duration": 0.18292675000000003
        },
        {
          "name": "A2",
          "midi": 45,
          "time": 62.195095,
          "velocity": 0.8740157480314961,
          "duration": 0.18292675000000003
        },
        {
          "name": "D2",
          "midi": 38,
          "time": 62.195095,
          "velocity": 0.8740157480314961,
          "duration": 0.18292675000000003
        },
        {
          "name": "D3",
          "midi": 50,
          "time": 62.37802175,
          "velocity": 0.8740157480314961,
          "duration": 0.18292675000000003
        },
        {
          "name": "A2",
          "midi": 45,
          "time": 62.37802175,
          "velocity": 0.8740157480314961,
          "duration": 0.18292675000000003
        },
        {
          "name": "D2",
          "midi": 38,
          "time": 62.37802175,
          "velocity": 0.8740157480314961,
          "duration": 0.18292675000000003
        },
        {
          "name": "D3",
          "midi": 50,
          "time": 62.5609485,
          "velocity": 0.8740157480314961,
          "duration": 0.18292675000000003
        },
        {
          "name": "A2",
          "midi": 45,
          "time": 62.5609485,
          "velocity": 0.8740157480314961,
          "duration": 0.18292675000000003
        },
        {
          "name": "D2",
          "midi": 38,
          "time": 62.5609485,
          "velocity": 0.8740157480314961,
          "duration": 0.18292675000000003
        },
        {
          "name": "D3",
          "midi": 50,
          "time": 62.74387525,
          "velocity": 0.8740157480314961,
          "duration": 0.18292675000000003
        },
        {
          "name": "A2",
          "midi": 45,
          "time": 62.74387525,
          "velocity": 0.8740157480314961,
          "duration": 0.18292675000000003
        },
        {
          "name": "D2",
          "midi": 38,
          "time": 62.74387525,
          "velocity": 0.8740157480314961,
          "duration": 0.18292675000000003
        },
        {
          "name": "D3",
          "midi": 50,
          "time": 62.926802,
          "velocity": 0.8740157480314961,
          "duration": 0.18292675000000003
        },
        {
          "name": "A2",
          "midi": 45,
          "time": 62.926802,
          "velocity": 0.8740157480314961,
          "duration": 0.18292675000000003
        },
        {
          "name": "D2",
          "midi": 38,
          "time": 62.926802,
          "velocity": 0.8740157480314961,
          "duration": 0.18292675000000003
        },
        {
          "name": "D3",
          "midi": 50,
          "time": 63.10972875,
          "velocity": 0.8740157480314961,
          "duration": 0.18292675000000003
        },
        {
          "name": "A2",
          "midi": 45,
          "time": 63.10972875,
          "velocity": 0.8740157480314961,
          "duration": 0.18292675000000003
        },
        {
          "name": "D2",
          "midi": 38,
          "time": 63.10972875,
          "velocity": 0.8740157480314961,
          "duration": 0.18292675000000003
        },
        {
          "name": "D3",
          "midi": 50,
          "time": 63.2926555,
          "velocity": 0.8740157480314961,
          "duration": 0.18292675000000003
        },
        {
          "name": "A2",
          "midi": 45,
          "time": 63.2926555,
          "velocity": 0.8740157480314961,
          "duration": 0.18292675000000003
        },
        {
          "name": "D2",
          "midi": 38,
          "time": 63.2926555,
          "velocity": 0.8740157480314961,
          "duration": 0.18292675000000003
        },
        {
          "name": "D3",
          "midi": 50,
          "time": 63.47558225,
          "velocity": 0.8740157480314961,
          "duration": 0.18292675000000003
        },
        {
          "name": "A2",
          "midi": 45,
          "time": 63.47558225,
          "velocity": 0.8740157480314961,
          "duration": 0.18292675000000003
        },
        {
          "name": "D2",
          "midi": 38,
          "time": 63.47558225,
          "velocity": 0.8740157480314961,
          "duration": 0.18292675000000003
        },
        {
          "name": "D3",
          "midi": 50,
          "time": 63.658509,
          "velocity": 0.8740157480314961,
          "duration": 0.18292675000000003
        },
        {
          "name": "A2",
          "midi": 45,
          "time": 63.658509,
          "velocity": 0.8740157480314961,
          "duration": 0.18292675000000003
        },
        {
          "name": "D2",
          "midi": 38,
          "time": 63.658509,
          "velocity": 0.8740157480314961,
          "duration": 0.18292675000000003
        },
        {
          "name": "D3",
          "midi": 50,
          "time": 63.84143575,
          "velocity": 0.8740157480314961,
          "duration": 0.18292674999999292
        },
        {
          "name": "A2",
          "midi": 45,
          "time": 63.84143575,
          "velocity": 0.8740157480314961,
          "duration": 0.18292674999999292
        },
        {
          "name": "D2",
          "midi": 38,
          "time": 63.84143575,
          "velocity": 0.8740157480314961,
          "duration": 0.18292674999999292
        },
        {
          "name": "D3",
          "midi": 50,
          "time": 64.0243625,
          "velocity": 0.8740157480314961,
          "duration": 0.18292674999999292
        },
        {
          "name": "A2",
          "midi": 45,
          "time": 64.0243625,
          "velocity": 0.8740157480314961,
          "duration": 0.18292674999999292
        },
        {
          "name": "D2",
          "midi": 38,
          "time": 64.0243625,
          "velocity": 0.8740157480314961,
          "duration": 0.18292674999999292
        },
        {
          "name": "D3",
          "midi": 50,
          "time": 64.20728924999999,
          "velocity": 0.8740157480314961,
          "duration": 0.18292674999999292
        },
        {
          "name": "A2",
          "midi": 45,
          "time": 64.20728924999999,
          "velocity": 0.8740157480314961,
          "duration": 0.18292674999999292
        },
        {
          "name": "D2",
          "midi": 38,
          "time": 64.20728924999999,
          "velocity": 0.8740157480314961,
          "duration": 0.18292674999999292
        },
        {
          "name": "G3",
          "midi": 55,
          "time": 64.39021599999998,
          "velocity": 0.8740157480314961,
          "duration": 0.18292674999999292
        },
        {
          "name": "D3",
          "midi": 50,
          "time": 64.39021599999998,
          "velocity": 0.8740157480314961,
          "duration": 0.18292674999999292
        },
        {
          "name": "G2",
          "midi": 43,
          "time": 64.39021599999998,
          "velocity": 0.8740157480314961,
          "duration": 0.18292674999999292
        },
        {
          "name": "G3",
          "midi": 55,
          "time": 64.57314274999997,
          "velocity": 0.8740157480314961,
          "duration": 0.18292674999999292
        },
        {
          "name": "D3",
          "midi": 50,
          "time": 64.57314274999997,
          "velocity": 0.8740157480314961,
          "duration": 0.18292674999999292
        },
        {
          "name": "G2",
          "midi": 43,
          "time": 64.57314274999997,
          "velocity": 0.8740157480314961,
          "duration": 0.18292674999999292
        },
        {
          "name": "G3",
          "midi": 55,
          "time": 64.75606949999997,
          "velocity": 0.8740157480314961,
          "duration": 0.18292674999999292
        },
        {
          "name": "D3",
          "midi": 50,
          "time": 64.75606949999997,
          "velocity": 0.8740157480314961,
          "duration": 0.18292674999999292
        },
        {
          "name": "G2",
          "midi": 43,
          "time": 64.75606949999997,
          "velocity": 0.8740157480314961,
          "duration": 0.18292674999999292
        },
        {
          "name": "G3",
          "midi": 55,
          "time": 64.93899624999996,
          "velocity": 0.8740157480314961,
          "duration": 0.18292674999999292
        },
        {
          "name": "D3",
          "midi": 50,
          "time": 64.93899624999996,
          "velocity": 0.8740157480314961,
          "duration": 0.18292674999999292
        },
        {
          "name": "G2",
          "midi": 43,
          "time": 64.93899624999996,
          "velocity": 0.8740157480314961,
          "duration": 0.18292674999999292
        },
        {
          "name": "G3",
          "midi": 55,
          "time": 65.12192299999995,
          "velocity": 0.8740157480314961,
          "duration": 0.18292674999999292
        },
        {
          "name": "D3",
          "midi": 50,
          "time": 65.12192299999995,
          "velocity": 0.8740157480314961,
          "duration": 0.18292674999999292
        },
        {
          "name": "G2",
          "midi": 43,
          "time": 65.12192299999995,
          "velocity": 0.8740157480314961,
          "duration": 0.18292674999999292
        },
        {
          "name": "G3",
          "midi": 55,
          "time": 65.30484974999995,
          "velocity": 0.8740157480314961,
          "duration": 0.18292674999999292
        },
        {
          "name": "D3",
          "midi": 50,
          "time": 65.30484974999995,
          "velocity": 0.8740157480314961,
          "duration": 0.18292674999999292
        },
        {
          "name": "G2",
          "midi": 43,
          "time": 65.30484974999995,
          "velocity": 0.8740157480314961,
          "duration": 0.18292674999999292
        },
        {
          "name": "G3",
          "midi": 55,
          "time": 65.48777649999994,
          "velocity": 0.8740157480314961,
          "duration": 0.18292674999999292
        },
        {
          "name": "D3",
          "midi": 50,
          "time": 65.48777649999994,
          "velocity": 0.8740157480314961,
          "duration": 0.18292674999999292
        },
        {
          "name": "G2",
          "midi": 43,
          "time": 65.48777649999994,
          "velocity": 0.8740157480314961,
          "duration": 0.18292674999999292
        },
        {
          "name": "G3",
          "midi": 55,
          "time": 65.67070324999993,
          "velocity": 0.8740157480314961,
          "duration": 0.18292674999999292
        },
        {
          "name": "D3",
          "midi": 50,
          "time": 65.67070324999993,
          "velocity": 0.8740157480314961,
          "duration": 0.18292674999999292
        },
        {
          "name": "G2",
          "midi": 43,
          "time": 65.67070324999993,
          "velocity": 0.8740157480314961,
          "duration": 0.18292674999999292
        },
        {
          "name": "G3",
          "midi": 55,
          "time": 65.85362999999992,
          "velocity": 0.8740157480314961,
          "duration": 0.18292674999999292
        },
        {
          "name": "D3",
          "midi": 50,
          "time": 65.85362999999992,
          "velocity": 0.8740157480314961,
          "duration": 0.18292674999999292
        },
        {
          "name": "G2",
          "midi": 43,
          "time": 65.85362999999992,
          "velocity": 0.8740157480314961,
          "duration": 0.18292674999999292
        },
        {
          "name": "G3",
          "midi": 55,
          "time": 66.03655674999992,
          "velocity": 0.8740157480314961,
          "duration": 0.18292674999999292
        },
        {
          "name": "D3",
          "midi": 50,
          "time": 66.03655674999992,
          "velocity": 0.8740157480314961,
          "duration": 0.18292674999999292
        },
        {
          "name": "G2",
          "midi": 43,
          "time": 66.03655674999992,
          "velocity": 0.8740157480314961,
          "duration": 0.18292674999999292
        },
        {
          "name": "G3",
          "midi": 55,
          "time": 66.21948349999991,
          "velocity": 0.8740157480314961,
          "duration": 0.18292674999999292
        },
        {
          "name": "D3",
          "midi": 50,
          "time": 66.21948349999991,
          "velocity": 0.8740157480314961,
          "duration": 0.18292674999999292
        },
        {
          "name": "G2",
          "midi": 43,
          "time": 66.21948349999991,
          "velocity": 0.8740157480314961,
          "duration": 0.18292674999999292
        },
        {
          "name": "G3",
          "midi": 55,
          "time": 66.4024102499999,
          "velocity": 0.8740157480314961,
          "duration": 0.18292674999999292
        },
        {
          "name": "D3",
          "midi": 50,
          "time": 66.4024102499999,
          "velocity": 0.8740157480314961,
          "duration": 0.18292674999999292
        },
        {
          "name": "G2",
          "midi": 43,
          "time": 66.4024102499999,
          "velocity": 0.8740157480314961,
          "duration": 0.18292674999999292
        },
        {
          "name": "G3",
          "midi": 55,
          "time": 66.5853369999999,
          "velocity": 0.8740157480314961,
          "duration": 0.18292674999999292
        },
        {
          "name": "D3",
          "midi": 50,
          "time": 66.5853369999999,
          "velocity": 0.8740157480314961,
          "duration": 0.18292674999999292
        },
        {
          "name": "G2",
          "midi": 43,
          "time": 66.5853369999999,
          "velocity": 0.8740157480314961,
          "duration": 0.18292674999999292
        },
        {
          "name": "G3",
          "midi": 55,
          "time": 66.76826374999989,
          "velocity": 0.8740157480314961,
          "duration": 0.18292674999999292
        },
        {
          "name": "D3",
          "midi": 50,
          "time": 66.76826374999989,
          "velocity": 0.8740157480314961,
          "duration": 0.18292674999999292
        },
        {
          "name": "G2",
          "midi": 43,
          "time": 66.76826374999989,
          "velocity": 0.8740157480314961,
          "duration": 0.18292674999999292
        },
        {
          "name": "G3",
          "midi": 55,
          "time": 66.95119049999988,
          "velocity": 0.8740157480314961,
          "duration": 0.18292674999999292
        },
        {
          "name": "D3",
          "midi": 50,
          "time": 66.95119049999988,
          "velocity": 0.8740157480314961,
          "duration": 0.18292674999999292
        },
        {
          "name": "G2",
          "midi": 43,
          "time": 66.95119049999988,
          "velocity": 0.8740157480314961,
          "duration": 0.18292674999999292
        },
        {
          "name": "D3",
          "midi": 50,
          "time": 67.13411724999987,
          "velocity": 0.8740157480314961,
          "duration": 0.18292674999999292
        },
        {
          "name": "A2",
          "midi": 45,
          "time": 67.13411724999987,
          "velocity": 0.8740157480314961,
          "duration": 0.18292674999999292
        },
        {
          "name": "D2",
          "midi": 38,
          "time": 67.13411724999987,
          "velocity": 0.8740157480314961,
          "duration": 0.18292674999999292
        },
        {
          "name": "B3",
          "midi": 59,
          "time": 67.31704399999987,
          "velocity": 0.8740157480314961,
          "duration": 0.18292674999999292
        },
        {
          "name": "F#3",
          "midi": 54,
          "time": 67.31704399999987,
          "velocity": 0.8740157480314961,
          "duration": 0.18292674999999292
        },
        {
          "name": "B2",
          "midi": 47,
          "time": 67.31704399999987,
          "velocity": 0.8740157480314961,
          "duration": 0.18292674999999292
        },
        {
          "name": "B3",
          "midi": 59,
          "time": 67.49997074999986,
          "velocity": 0.8740157480314961,
          "duration": 0.18292674999999292
        },
        {
          "name": "F#3",
          "midi": 54,
          "time": 67.49997074999986,
          "velocity": 0.8740157480314961,
          "duration": 0.18292674999999292
        },
        {
          "name": "B2",
          "midi": 47,
          "time": 67.49997074999986,
          "velocity": 0.8740157480314961,
          "duration": 0.18292674999999292
        },
        {
          "name": "B3",
          "midi": 59,
          "time": 67.68289749999985,
          "velocity": 0.8740157480314961,
          "duration": 0.18292674999999292
        },
        {
          "name": "F#3",
          "midi": 54,
          "time": 67.68289749999985,
          "velocity": 0.8740157480314961,
          "duration": 0.18292674999999292
        },
        {
          "name": "B2",
          "midi": 47,
          "time": 67.68289749999985,
          "velocity": 0.8740157480314961,
          "duration": 0.18292674999999292
        },
        {
          "name": "B3",
          "midi": 59,
          "time": 67.86582424999985,
          "velocity": 0.8740157480314961,
          "duration": 0.18292674999999292
        },
        {
          "name": "F#3",
          "midi": 54,
          "time": 67.86582424999985,
          "velocity": 0.8740157480314961,
          "duration": 0.18292674999999292
        },
        {
          "name": "B2",
          "midi": 47,
          "time": 67.86582424999985,
          "velocity": 0.8740157480314961,
          "duration": 0.18292674999999292
        },
        {
          "name": "B3",
          "midi": 59,
          "time": 68.04875099999984,
          "velocity": 0.8740157480314961,
          "duration": 0.18292674999999292
        },
        {
          "name": "F#3",
          "midi": 54,
          "time": 68.04875099999984,
          "velocity": 0.8740157480314961,
          "duration": 0.18292674999999292
        },
        {
          "name": "B2",
          "midi": 47,
          "time": 68.04875099999984,
          "velocity": 0.8740157480314961,
          "duration": 0.18292674999999292
        },
        {
          "name": "B3",
          "midi": 59,
          "time": 68.23167774999983,
          "velocity": 0.8740157480314961,
          "duration": 0.18292674999999292
        },
        {
          "name": "F#3",
          "midi": 54,
          "time": 68.23167774999983,
          "velocity": 0.8740157480314961,
          "duration": 0.18292674999999292
        },
        {
          "name": "B2",
          "midi": 47,
          "time": 68.23167774999983,
          "velocity": 0.8740157480314961,
          "duration": 0.18292674999999292
        },
        {
          "name": "B3",
          "midi": 59,
          "time": 68.41460449999983,
          "velocity": 0.8740157480314961,
          "duration": 0.18292674999999292
        },
        {
          "name": "F#3",
          "midi": 54,
          "time": 68.41460449999983,
          "velocity": 0.8740157480314961,
          "duration": 0.18292674999999292
        },
        {
          "name": "B2",
          "midi": 47,
          "time": 68.41460449999983,
          "velocity": 0.8740157480314961,
          "duration": 0.18292674999999292
        },
        {
          "name": "B3",
          "midi": 59,
          "time": 68.59753124999982,
          "velocity": 0.8740157480314961,
          "duration": 0.18292674999999292
        },
        {
          "name": "F#3",
          "midi": 54,
          "time": 68.59753124999982,
          "velocity": 0.8740157480314961,
          "duration": 0.18292674999999292
        },
        {
          "name": "B2",
          "midi": 47,
          "time": 68.59753124999982,
          "velocity": 0.8740157480314961,
          "duration": 0.18292674999999292
        },
        {
          "name": "B3",
          "midi": 59,
          "time": 68.78045799999981,
          "velocity": 0.8740157480314961,
          "duration": 0.18292674999999292
        },
        {
          "name": "F#3",
          "midi": 54,
          "time": 68.78045799999981,
          "velocity": 0.8740157480314961,
          "duration": 0.18292674999999292
        },
        {
          "name": "B2",
          "midi": 47,
          "time": 68.78045799999981,
          "velocity": 0.8740157480314961,
          "duration": 0.18292674999999292
        },
        {
          "name": "B3",
          "midi": 59,
          "time": 68.9633847499998,
          "velocity": 0.8740157480314961,
          "duration": 0.18292674999999292
        },
        {
          "name": "F#3",
          "midi": 54,
          "time": 68.9633847499998,
          "velocity": 0.8740157480314961,
          "duration": 0.18292674999999292
        },
        {
          "name": "B2",
          "midi": 47,
          "time": 68.9633847499998,
          "velocity": 0.8740157480314961,
          "duration": 0.18292674999999292
        },
        {
          "name": "B3",
          "midi": 59,
          "time": 69.1463114999998,
          "velocity": 0.8740157480314961,
          "duration": 0.18292674999999292
        },
        {
          "name": "F#3",
          "midi": 54,
          "time": 69.1463114999998,
          "velocity": 0.8740157480314961,
          "duration": 0.18292674999999292
        },
        {
          "name": "B2",
          "midi": 47,
          "time": 69.1463114999998,
          "velocity": 0.8740157480314961,
          "duration": 0.18292674999999292
        },
        {
          "name": "B3",
          "midi": 59,
          "time": 69.32923824999979,
          "velocity": 0.8740157480314961,
          "duration": 0.18292674999999292
        },
        {
          "name": "F#3",
          "midi": 54,
          "time": 69.32923824999979,
          "velocity": 0.8740157480314961,
          "duration": 0.18292674999999292
        },
        {
          "name": "B2",
          "midi": 47,
          "time": 69.32923824999979,
          "velocity": 0.8740157480314961,
          "duration": 0.18292674999999292
        },
        {
          "name": "B3",
          "midi": 59,
          "time": 69.51216499999978,
          "velocity": 0.8740157480314961,
          "duration": 0.18292674999999292
        },
        {
          "name": "F#3",
          "midi": 54,
          "time": 69.51216499999978,
          "velocity": 0.8740157480314961,
          "duration": 0.18292674999999292
        },
        {
          "name": "B2",
          "midi": 47,
          "time": 69.51216499999978,
          "velocity": 0.8740157480314961,
          "duration": 0.18292674999999292
        },
        {
          "name": "B3",
          "midi": 59,
          "time": 69.69509174999978,
          "velocity": 0.8740157480314961,
          "duration": 0.18292674999999292
        },
        {
          "name": "F#3",
          "midi": 54,
          "time": 69.69509174999978,
          "velocity": 0.8740157480314961,
          "duration": 0.18292674999999292
        },
        {
          "name": "B2",
          "midi": 47,
          "time": 69.69509174999978,
          "velocity": 0.8740157480314961,
          "duration": 0.18292674999999292
        },
        {
          "name": "B3",
          "midi": 59,
          "time": 69.87801849999977,
          "velocity": 0.8740157480314961,
          "duration": 0.18292674999999292
        },
        {
          "name": "F#3",
          "midi": 54,
          "time": 69.87801849999977,
          "velocity": 0.8740157480314961,
          "duration": 0.18292674999999292
        },
        {
          "name": "B2",
          "midi": 47,
          "time": 69.87801849999977,
          "velocity": 0.8740157480314961,
          "duration": 0.18292674999999292
        },
        {
          "name": "D3",
          "midi": 50,
          "time": 70.06094524999976,
          "velocity": 0.8740157480314961,
          "duration": 0.18292674999999292
        },
        {
          "name": "A2",
          "midi": 45,
          "time": 70.06094524999976,
          "velocity": 0.8740157480314961,
          "duration": 0.18292674999999292
        },
        {
          "name": "D2",
          "midi": 38,
          "time": 70.06094524999976,
          "velocity": 0.8740157480314961,
          "duration": 0.18292674999999292
        },
        {
          "name": "A3",
          "midi": 57,
          "time": 70.24387199999975,
          "velocity": 0.8740157480314961,
          "duration": 0.18292674999999292
        },
        {
          "name": "D3",
          "midi": 50,
          "time": 70.24387199999975,
          "velocity": 0.8740157480314961,
          "duration": 0.18292674999999292
        },
        {
          "name": "G2",
          "midi": 43,
          "time": 70.24387199999975,
          "velocity": 0.8740157480314961,
          "duration": 0.18292674999999292
        },
        {
          "name": "A3",
          "midi": 57,
          "time": 70.42679874999975,
          "velocity": 0.8740157480314961,
          "duration": 0.18292674999999292
        },
        {
          "name": "D3",
          "midi": 50,
          "time": 70.42679874999975,
          "velocity": 0.8740157480314961,
          "duration": 0.18292674999999292
        },
        {
          "name": "G2",
          "midi": 43,
          "time": 70.42679874999975,
          "velocity": 0.8740157480314961,
          "duration": 0.18292674999999292
        },
        {
          "name": "A3",
          "midi": 57,
          "time": 70.60972549999974,
          "velocity": 0.8740157480314961,
          "duration": 0.18292674999999292
        },
        {
          "name": "D3",
          "midi": 50,
          "time": 70.60972549999974,
          "velocity": 0.8740157480314961,
          "duration": 0.18292674999999292
        },
        {
          "name": "G2",
          "midi": 43,
          "time": 70.60972549999974,
          "velocity": 0.8740157480314961,
          "duration": 0.18292674999999292
        },
        {
          "name": "A3",
          "midi": 57,
          "time": 70.79265224999973,
          "velocity": 0.8740157480314961,
          "duration": 0.18292674999999292
        },
        {
          "name": "D3",
          "midi": 50,
          "time": 70.79265224999973,
          "velocity": 0.8740157480314961,
          "duration": 0.18292674999999292
        },
        {
          "name": "G2",
          "midi": 43,
          "time": 70.79265224999973,
          "velocity": 0.8740157480314961,
          "duration": 0.18292674999999292
        },
        {
          "name": "A3",
          "midi": 57,
          "time": 70.97557899999973,
          "velocity": 0.8740157480314961,
          "duration": 0.18292674999999292
        },
        {
          "name": "D3",
          "midi": 50,
          "time": 70.97557899999973,
          "velocity": 0.8740157480314961,
          "duration": 0.18292674999999292
        },
        {
          "name": "G2",
          "midi": 43,
          "time": 70.97557899999973,
          "velocity": 0.8740157480314961,
          "duration": 0.18292674999999292
        },
        {
          "name": "A3",
          "midi": 57,
          "time": 71.15850574999972,
          "velocity": 0.8740157480314961,
          "duration": 0.18292674999999292
        },
        {
          "name": "D3",
          "midi": 50,
          "time": 71.15850574999972,
          "velocity": 0.8740157480314961,
          "duration": 0.18292674999999292
        },
        {
          "name": "G2",
          "midi": 43,
          "time": 71.15850574999972,
          "velocity": 0.8740157480314961,
          "duration": 0.18292674999999292
        },
        {
          "name": "A3",
          "midi": 57,
          "time": 71.34143249999971,
          "velocity": 0.8740157480314961,
          "duration": 0.18292674999999292
        },
        {
          "name": "D3",
          "midi": 50,
          "time": 71.34143249999971,
          "velocity": 0.8740157480314961,
          "duration": 0.18292674999999292
        },
        {
          "name": "G2",
          "midi": 43,
          "time": 71.34143249999971,
          "velocity": 0.8740157480314961,
          "duration": 0.18292674999999292
        },
        {
          "name": "A3",
          "midi": 57,
          "time": 71.5243592499997,
          "velocity": 0.8740157480314961,
          "duration": 0.18292674999999292
        },
        {
          "name": "D3",
          "midi": 50,
          "time": 71.5243592499997,
          "velocity": 0.8740157480314961,
          "duration": 0.18292674999999292
        },
        {
          "name": "G2",
          "midi": 43,
          "time": 71.5243592499997,
          "velocity": 0.8740157480314961,
          "duration": 0.18292674999999292
        },
        {
          "name": "A3",
          "midi": 57,
          "time": 71.7072859999997,
          "velocity": 0.8740157480314961,
          "duration": 0.18292674999999292
        },
        {
          "name": "D3",
          "midi": 50,
          "time": 71.7072859999997,
          "velocity": 0.8740157480314961,
          "duration": 0.18292674999999292
        },
        {
          "name": "G2",
          "midi": 43,
          "time": 71.7072859999997,
          "velocity": 0.8740157480314961,
          "duration": 0.18292674999999292
        },
        {
          "name": "A3",
          "midi": 57,
          "time": 71.89021274999969,
          "velocity": 0.8740157480314961,
          "duration": 0.18292674999999292
        },
        {
          "name": "D3",
          "midi": 50,
          "time": 71.89021274999969,
          "velocity": 0.8740157480314961,
          "duration": 0.18292674999999292
        },
        {
          "name": "G2",
          "midi": 43,
          "time": 71.89021274999969,
          "velocity": 0.8740157480314961,
          "duration": 0.18292674999999292
        },
        {
          "name": "A3",
          "midi": 57,
          "time": 72.07313949999968,
          "velocity": 0.8740157480314961,
          "duration": 0.18292674999999292
        },
        {
          "name": "D3",
          "midi": 50,
          "time": 72.07313949999968,
          "velocity": 0.8740157480314961,
          "duration": 0.18292674999999292
        },
        {
          "name": "G2",
          "midi": 43,
          "time": 72.07313949999968,
          "velocity": 0.8740157480314961,
          "duration": 0.18292674999999292
        },
        {
          "name": "A3",
          "midi": 57,
          "time": 72.25606624999968,
          "velocity": 0.8740157480314961,
          "duration": 0.18292674999999292
        },
        {
          "name": "D3",
          "midi": 50,
          "time": 72.25606624999968,
          "velocity": 0.8740157480314961,
          "duration": 0.18292674999999292
        },
        {
          "name": "G2",
          "midi": 43,
          "time": 72.25606624999968,
          "velocity": 0.8740157480314961,
          "duration": 0.18292674999999292
        },
        {
          "name": "A2",
          "midi": 45,
          "time": 72.43899299999967,
          "velocity": 0.8740157480314961,
          "duration": 0.030487791666672592
        },
        {
          "name": "D2",
          "midi": 38,
          "time": 72.43899299999967,
          "velocity": 0.8740157480314961,
          "duration": 0.030487791666672592
        },
        {
          "name": "A2",
          "midi": 45,
          "time": 72.62191974999968,
          "velocity": 0.8740157480314961,
          "duration": 0.030487791666672592
        },
        {
          "name": "D2",
          "midi": 38,
          "time": 72.62191974999968,
          "velocity": 0.8740157480314961,
          "duration": 0.030487791666672592
        },
        {
          "name": "A2",
          "midi": 45,
          "time": 72.80484649999968,
          "velocity": 0.8740157480314961,
          "duration": 0.030487791666672592
        },
        {
          "name": "D2",
          "midi": 38,
          "time": 72.80484649999968,
          "velocity": 0.8740157480314961,
          "duration": 0.030487791666672592
        },
        {
          "name": "D3",
          "midi": 50,
          "time": 72.98777324999969,
          "velocity": 0.8740157480314961,
          "duration": 0.030487791666672592
        },
        {
          "name": "A2",
          "midi": 45,
          "time": 72.98777324999969,
          "velocity": 0.8740157480314961,
          "duration": 0.030487791666672592
        },
        {
          "name": "D2",
          "midi": 38,
          "time": 72.98777324999969,
          "velocity": 0.8740157480314961,
          "duration": 0.030487791666672592
        },
        {
          "name": "D3",
          "midi": 50,
          "time": 73.1706999999997,
          "velocity": 0.8740157480314961,
          "duration": 0.18292674999999292
        },
        {
          "name": "A2",
          "midi": 45,
          "time": 73.1706999999997,
          "velocity": 0.8740157480314961,
          "duration": 0.18292674999999292
        },
        {
          "name": "D2",
          "midi": 38,
          "time": 73.1706999999997,
          "velocity": 0.8740157480314961,
          "duration": 0.18292674999999292
        },
        {
          "name": "D3",
          "midi": 50,
          "time": 73.35362674999969,
          "velocity": 0.8740157480314961,
          "duration": 0.18292674999999292
        },
        {
          "name": "A2",
          "midi": 45,
          "time": 73.35362674999969,
          "velocity": 0.8740157480314961,
          "duration": 0.18292674999999292
        },
        {
          "name": "D2",
          "midi": 38,
          "time": 73.35362674999969,
          "velocity": 0.8740157480314961,
          "duration": 0.18292674999999292
        },
        {
          "name": "D3",
          "midi": 50,
          "time": 73.53655349999968,
          "velocity": 0.8740157480314961,
          "duration": 0.18292674999999292
        },
        {
          "name": "A2",
          "midi": 45,
          "time": 73.53655349999968,
          "velocity": 0.8740157480314961,
          "duration": 0.18292674999999292
        },
        {
          "name": "D2",
          "midi": 38,
          "time": 73.53655349999968,
          "velocity": 0.8740157480314961,
          "duration": 0.18292674999999292
        },
        {
          "name": "D3",
          "midi": 50,
          "time": 73.71948024999968,
          "velocity": 0.8740157480314961,
          "duration": 0.18292674999999292
        },
        {
          "name": "A2",
          "midi": 45,
          "time": 73.71948024999968,
          "velocity": 0.8740157480314961,
          "duration": 0.18292674999999292
        },
        {
          "name": "D2",
          "midi": 38,
          "time": 73.71948024999968,
          "velocity": 0.8740157480314961,
          "duration": 0.18292674999999292
        },
        {
          "name": "D4",
          "midi": 62,
          "time": 73.90240699999967,
          "velocity": 0.8740157480314961,
          "duration": 0.18292674999999292
        },
        {
          "name": "D3",
          "midi": 50,
          "time": 73.90240699999967,
          "velocity": 0.8740157480314961,
          "duration": 0.18292674999999292
        },
        {
          "name": "D4",
          "midi": 62,
          "time": 74.08533374999966,
          "velocity": 0.8740157480314961,
          "duration": 0.18292674999999292
        },
        {
          "name": "D3",
          "midi": 50,
          "time": 74.08533374999966,
          "velocity": 0.8740157480314961,
          "duration": 0.18292674999999292
        },
        {
          "name": "D4",
          "midi": 62,
          "time": 74.26826049999966,
          "velocity": 0.8740157480314961,
          "duration": 0.18292674999999292
        },
        {
          "name": "D3",
          "midi": 50,
          "time": 74.26826049999966,
          "velocity": 0.8740157480314961,
          "duration": 0.18292674999999292
        },
        {
          "name": "D4",
          "midi": 62,
          "time": 74.45118724999965,
          "velocity": 0.8740157480314961,
          "duration": 0.18292674999999292
        },
        {
          "name": "D3",
          "midi": 50,
          "time": 74.45118724999965,
          "velocity": 0.8740157480314961,
          "duration": 0.18292674999999292
        },
        {
          "name": "D3",
          "midi": 50,
          "time": 74.63411399999964,
          "velocity": 0.8740157480314961,
          "duration": 0.18292674999999292
        },
        {
          "name": "A2",
          "midi": 45,
          "time": 74.63411399999964,
          "velocity": 0.8740157480314961,
          "duration": 0.18292674999999292
        },
        {
          "name": "D2",
          "midi": 38,
          "time": 74.63411399999964,
          "velocity": 0.8740157480314961,
          "duration": 0.18292674999999292
        },
        {
          "name": "D3",
          "midi": 50,
          "time": 74.81704074999963,
          "velocity": 0.8740157480314961,
          "duration": 0.18292674999999292
        },
        {
          "name": "A2",
          "midi": 45,
          "time": 74.81704074999963,
          "velocity": 0.8740157480314961,
          "duration": 0.18292674999999292
        },
        {
          "name": "D2",
          "midi": 38,
          "time": 74.81704074999963,
          "velocity": 0.8740157480314961,
          "duration": 0.18292674999999292
        },
        {
          "name": "D3",
          "midi": 50,
          "time": 74.99996749999963,
          "velocity": 0.8740157480314961,
          "duration": 0.18292674999999292
        },
        {
          "name": "A2",
          "midi": 45,
          "time": 74.99996749999963,
          "velocity": 0.8740157480314961,
          "duration": 0.18292674999999292
        },
        {
          "name": "D2",
          "midi": 38,
          "time": 74.99996749999963,
          "velocity": 0.8740157480314961,
          "duration": 0.18292674999999292
        },
        {
          "name": "D3",
          "midi": 50,
          "time": 75.18289424999962,
          "velocity": 0.8740157480314961,
          "duration": 0.18292674999999292
        },
        {
          "name": "A2",
          "midi": 45,
          "time": 75.18289424999962,
          "velocity": 0.8740157480314961,
          "duration": 0.18292674999999292
        },
        {
          "name": "D2",
          "midi": 38,
          "time": 75.18289424999962,
          "velocity": 0.8740157480314961,
          "duration": 0.18292674999999292
        },
        {
          "name": "D4",
          "midi": 62,
          "time": 75.36582099999961,
          "velocity": 0.8740157480314961,
          "duration": 0.18292674999999292
        },
        {
          "name": "D3",
          "midi": 50,
          "time": 75.36582099999961,
          "velocity": 0.8740157480314961,
          "duration": 0.18292674999999292
        },
        {
          "name": "D4",
          "midi": 62,
          "time": 75.5487477499996,
          "velocity": 0.8740157480314961,
          "duration": 0.18292674999999292
        },
        {
          "name": "D3",
          "midi": 50,
          "time": 75.5487477499996,
          "velocity": 0.8740157480314961,
          "duration": 0.18292674999999292
        },
        {
          "name": "D4",
          "midi": 62,
          "time": 75.7316744999996,
          "velocity": 0.8740157480314961,
          "duration": 0.18292674999999292
        },
        {
          "name": "D3",
          "midi": 50,
          "time": 75.7316744999996,
          "velocity": 0.8740157480314961,
          "duration": 0.18292674999999292
        },
        {
          "name": "G3",
          "midi": 55,
          "time": 75.91460124999959,
          "velocity": 0.8740157480314961,
          "duration": 0.18292674999999292
        },
        {
          "name": "D3",
          "midi": 50,
          "time": 75.91460124999959,
          "velocity": 0.8740157480314961,
          "duration": 0.18292674999999292
        },
        {
          "name": "A2",
          "midi": 45,
          "time": 75.91460124999959,
          "velocity": 0.8740157480314961,
          "duration": 0.18292674999999292
        },
        {
          "name": "A3",
          "midi": 57,
          "time": 76.09752799999958,
          "velocity": 0.8740157480314961,
          "duration": 0.18292674999999292
        },
        {
          "name": "D3",
          "midi": 50,
          "time": 76.09752799999958,
          "velocity": 0.8740157480314961,
          "duration": 0.18292674999999292
        },
        {
          "name": "G2",
          "midi": 43,
          "time": 76.09752799999958,
          "velocity": 0.8740157480314961,
          "duration": 0.18292674999999292
        },
        {
          "name": "A3",
          "midi": 57,
          "time": 76.28045474999958,
          "velocity": 0.8740157480314961,
          "duration": 0.18292674999999292
        },
        {
          "name": "D3",
          "midi": 50,
          "time": 76.28045474999958,
          "velocity": 0.8740157480314961,
          "duration": 0.18292674999999292
        },
        {
          "name": "G2",
          "midi": 43,
          "time": 76.28045474999958,
          "velocity": 0.8740157480314961,
          "duration": 0.18292674999999292
        },
        {
          "name": "A3",
          "midi": 57,
          "time": 76.46338149999957,
          "velocity": 0.8740157480314961,
          "duration": 0.18292674999999292
        },
        {
          "name": "D3",
          "midi": 50,
          "time": 76.46338149999957,
          "velocity": 0.8740157480314961,
          "duration": 0.18292674999999292
        },
        {
          "name": "G2",
          "midi": 43,
          "time": 76.46338149999957,
          "velocity": 0.8740157480314961,
          "duration": 0.18292674999999292
        },
        {
          "name": "A3",
          "midi": 57,
          "time": 76.64630824999956,
          "velocity": 0.8740157480314961,
          "duration": 0.18292674999999292
        },
        {
          "name": "D3",
          "midi": 50,
          "time": 76.64630824999956,
          "velocity": 0.8740157480314961,
          "duration": 0.18292674999999292
        },
        {
          "name": "G2",
          "midi": 43,
          "time": 76.64630824999956,
          "velocity": 0.8740157480314961,
          "duration": 0.18292674999999292
        },
        {
          "name": "D4",
          "midi": 62,
          "time": 76.82923499999956,
          "velocity": 0.8740157480314961,
          "duration": 0.18292674999999292
        },
        {
          "name": "D3",
          "midi": 50,
          "time": 76.82923499999956,
          "velocity": 0.8740157480314961,
          "duration": 0.18292674999999292
        },
        {
          "name": "D4",
          "midi": 62,
          "time": 77.01216174999955,
          "velocity": 0.8740157480314961,
          "duration": 0.18292674999999292
        },
        {
          "name": "D3",
          "midi": 50,
          "time": 77.01216174999955,
          "velocity": 0.8740157480314961,
          "duration": 0.18292674999999292
        },
        {
          "name": "D4",
          "midi": 62,
          "time": 77.19508849999954,
          "velocity": 0.8740157480314961,
          "duration": 0.18292674999999292
        },
        {
          "name": "D3",
          "midi": 50,
          "time": 77.19508849999954,
          "velocity": 0.8740157480314961,
          "duration": 0.18292674999999292
        },
        {
          "name": "D4",
          "midi": 62,
          "time": 77.37801524999954,
          "velocity": 0.8740157480314961,
          "duration": 0.18292674999999292
        },
        {
          "name": "D3",
          "midi": 50,
          "time": 77.37801524999954,
          "velocity": 0.8740157480314961,
          "duration": 0.18292674999999292
        },
        {
          "name": "A3",
          "midi": 57,
          "time": 77.56094199999953,
          "velocity": 0.8740157480314961,
          "duration": 0.18292674999999292
        },
        {
          "name": "D3",
          "midi": 50,
          "time": 77.56094199999953,
          "velocity": 0.8740157480314961,
          "duration": 0.18292674999999292
        },
        {
          "name": "G2",
          "midi": 43,
          "time": 77.56094199999953,
          "velocity": 0.8740157480314961,
          "duration": 0.18292674999999292
        },
        {
          "name": "A3",
          "midi": 57,
          "time": 77.74386874999952,
          "velocity": 0.8740157480314961,
          "duration": 0.18292674999999292
        },
        {
          "name": "D3",
          "midi": 50,
          "time": 77.74386874999952,
          "velocity": 0.8740157480314961,
          "duration": 0.18292674999999292
        },
        {
          "name": "G2",
          "midi": 43,
          "time": 77.74386874999952,
          "velocity": 0.8740157480314961,
          "duration": 0.18292674999999292
        },
        {
          "name": "A3",
          "midi": 57,
          "time": 77.92679549999951,
          "velocity": 0.8740157480314961,
          "duration": 0.18292674999999292
        },
        {
          "name": "D3",
          "midi": 50,
          "time": 77.92679549999951,
          "velocity": 0.8740157480314961,
          "duration": 0.18292674999999292
        },
        {
          "name": "G2",
          "midi": 43,
          "time": 77.92679549999951,
          "velocity": 0.8740157480314961,
          "duration": 0.18292674999999292
        },
        {
          "name": "A3",
          "midi": 57,
          "time": 78.1097222499995,
          "velocity": 0.8740157480314961,
          "duration": 0.18292674999999292
        },
        {
          "name": "D3",
          "midi": 50,
          "time": 78.1097222499995,
          "velocity": 0.8740157480314961,
          "duration": 0.18292674999999292
        },
        {
          "name": "G2",
          "midi": 43,
          "time": 78.1097222499995,
          "velocity": 0.8740157480314961,
          "duration": 0.18292674999999292
        },
        {
          "name": "D4",
          "midi": 62,
          "time": 78.2926489999995,
          "velocity": 0.8740157480314961,
          "duration": 0.18292674999999292
        },
        {
          "name": "D3",
          "midi": 50,
          "time": 78.2926489999995,
          "velocity": 0.8740157480314961,
          "duration": 0.18292674999999292
        },
        {
          "name": "D4",
          "midi": 62,
          "time": 78.47557574999949,
          "velocity": 0.8740157480314961,
          "duration": 0.18292674999999292
        },
        {
          "name": "D3",
          "midi": 50,
          "time": 78.47557574999949,
          "velocity": 0.8740157480314961,
          "duration": 0.18292674999999292
        },
        {
          "name": "D4",
          "midi": 62,
          "time": 78.65850249999949,
          "velocity": 0.8740157480314961,
          "duration": 0.18292674999999292
        },
        {
          "name": "D3",
          "midi": 50,
          "time": 78.65850249999949,
          "velocity": 0.8740157480314961,
          "duration": 0.18292674999999292
        },
        {
          "name": "D4",
          "midi": 62,
          "time": 78.84142924999948,
          "velocity": 0.8740157480314961,
          "duration": 0.18292674999999292
        },
        {
          "name": "D3",
          "midi": 50,
          "time": 78.84142924999948,
          "velocity": 0.8740157480314961,
          "duration": 0.18292674999999292
        },
        {
          "name": "B3",
          "midi": 59,
          "time": 79.02435599999947,
          "velocity": 0.8740157480314961,
          "duration": 0.18292674999999292
        },
        {
          "name": "F#3",
          "midi": 54,
          "time": 79.02435599999947,
          "velocity": 0.8740157480314961,
          "duration": 0.18292674999999292
        },
        {
          "name": "B2",
          "midi": 47,
          "time": 79.02435599999947,
          "velocity": 0.8740157480314961,
          "duration": 0.18292674999999292
        },
        {
          "name": "B3",
          "midi": 59,
          "time": 79.20728274999946,
          "velocity": 0.8740157480314961,
          "duration": 0.18292674999999292
        },
        {
          "name": "F#3",
          "midi": 54,
          "time": 79.20728274999946,
          "velocity": 0.8740157480314961,
          "duration": 0.18292674999999292
        },
        {
          "name": "B2",
          "midi": 47,
          "time": 79.20728274999946,
          "velocity": 0.8740157480314961,
          "duration": 0.18292674999999292
        },
        {
          "name": "B3",
          "midi": 59,
          "time": 79.39020949999946,
          "velocity": 0.8740157480314961,
          "duration": 0.18292674999999292
        },
        {
          "name": "F#3",
          "midi": 54,
          "time": 79.39020949999946,
          "velocity": 0.8740157480314961,
          "duration": 0.18292674999999292
        },
        {
          "name": "B2",
          "midi": 47,
          "time": 79.39020949999946,
          "velocity": 0.8740157480314961,
          "duration": 0.18292674999999292
        },
        {
          "name": "B3",
          "midi": 59,
          "time": 79.57313624999945,
          "velocity": 0.8740157480314961,
          "duration": 0.18292674999999292
        },
        {
          "name": "F#3",
          "midi": 54,
          "time": 79.57313624999945,
          "velocity": 0.8740157480314961,
          "duration": 0.18292674999999292
        },
        {
          "name": "B2",
          "midi": 47,
          "time": 79.57313624999945,
          "velocity": 0.8740157480314961,
          "duration": 0.18292674999999292
        },
        {
          "name": "F#4",
          "midi": 66,
          "time": 79.75606299999944,
          "velocity": 0.8740157480314961,
          "duration": 0.18292675000000713
        },
        {
          "name": "D3",
          "midi": 50,
          "time": 79.75606299999944,
          "velocity": 0.8740157480314961,
          "duration": 0.030487791666672592
        },
        {
          "name": "F#3",
          "midi": 54,
          "time": 79.75606299999944,
          "velocity": 0.8740157480314961,
          "duration": 0.18292675000000713
        },
        {
          "name": "F#4",
          "midi": 66,
          "time": 79.93898974999945,
          "velocity": 0.8740157480314961,
          "duration": 0.18292675000000713
        },
        {
          "name": "D3",
          "midi": 50,
          "time": 79.93898974999945,
          "velocity": 0.8740157480314961,
          "duration": 0.030487791666672592
        },
        {
          "name": "F#3",
          "midi": 54,
          "time": 79.93898974999945,
          "velocity": 0.8740157480314961,
          "duration": 0.18292675000000713
        },
        {
          "name": "F#4",
          "midi": 66,
          "time": 80.12191649999946,
          "velocity": 0.8740157480314961,
          "duration": 0.18292675000000713
        },
        {
          "name": "D3",
          "midi": 50,
          "time": 80.12191649999946,
          "velocity": 0.8740157480314961,
          "duration": 0.030487791666672592
        },
        {
          "name": "F#3",
          "midi": 54,
          "time": 80.12191649999946,
          "velocity": 0.8740157480314961,
          "duration": 0.18292675000000713
        },
        {
          "name": "A2",
          "midi": 45,
          "time": 80.30484324999946,
          "velocity": 0.8740157480314961,
          "duration": 0.18292674999999292
        },
        {
          "name": "D2",
          "midi": 38,
          "time": 80.30484324999946,
          "velocity": 0.8740157480314961,
          "duration": 0.18292674999999292
        },
        {
          "name": "B3",
          "midi": 59,
          "time": 80.48776999999946,
          "velocity": 0.8740157480314961,
          "duration": 0.18292674999999292
        },
        {
          "name": "F#3",
          "midi": 54,
          "time": 80.48776999999946,
          "velocity": 0.8740157480314961,
          "duration": 0.18292674999999292
        },
        {
          "name": "B2",
          "midi": 47,
          "time": 80.48776999999946,
          "velocity": 0.8740157480314961,
          "duration": 0.18292674999999292
        },
        {
          "name": "B3",
          "midi": 59,
          "time": 80.67069674999945,
          "velocity": 0.8740157480314961,
          "duration": 0.18292674999999292
        },
        {
          "name": "F#3",
          "midi": 54,
          "time": 80.67069674999945,
          "velocity": 0.8740157480314961,
          "duration": 0.18292674999999292
        },
        {
          "name": "B2",
          "midi": 47,
          "time": 80.67069674999945,
          "velocity": 0.8740157480314961,
          "duration": 0.18292674999999292
        },
        {
          "name": "B3",
          "midi": 59,
          "time": 80.85362349999944,
          "velocity": 0.8740157480314961,
          "duration": 0.18292674999999292
        },
        {
          "name": "F#3",
          "midi": 54,
          "time": 80.85362349999944,
          "velocity": 0.8740157480314961,
          "duration": 0.18292674999999292
        },
        {
          "name": "B2",
          "midi": 47,
          "time": 80.85362349999944,
          "velocity": 0.8740157480314961,
          "duration": 0.18292674999999292
        },
        {
          "name": "B3",
          "midi": 59,
          "time": 81.03655024999944,
          "velocity": 0.8740157480314961,
          "duration": 0.18292674999999292
        },
        {
          "name": "F#3",
          "midi": 54,
          "time": 81.03655024999944,
          "velocity": 0.8740157480314961,
          "duration": 0.18292674999999292
        },
        {
          "name": "B2",
          "midi": 47,
          "time": 81.03655024999944,
          "velocity": 0.8740157480314961,
          "duration": 0.18292674999999292
        },
        {
          "name": "F#4",
          "midi": 66,
          "time": 81.21947699999943,
          "velocity": 0.8740157480314961,
          "duration": 0.18292675000000713
        },
        {
          "name": "D3",
          "midi": 50,
          "time": 81.21947699999943,
          "velocity": 0.8740157480314961,
          "duration": 0.030487791666672592
        },
        {
          "name": "F#3",
          "midi": 54,
          "time": 81.21947699999943,
          "velocity": 0.8740157480314961,
          "duration": 0.18292675000000713
        },
        {
          "name": "F#4",
          "midi": 66,
          "time": 81.40240374999944,
          "velocity": 0.8740157480314961,
          "duration": 0.18292675000000713
        },
        {
          "name": "D3",
          "midi": 50,
          "time": 81.40240374999944,
          "velocity": 0.8740157480314961,
          "duration": 0.030487791666672592
        },
        {
          "name": "F#3",
          "midi": 54,
          "time": 81.40240374999944,
          "velocity": 0.8740157480314961,
          "duration": 0.18292675000000713
        },
        {
          "name": "F#4",
          "midi": 66,
          "time": 81.58533049999944,
          "velocity": 0.8740157480314961,
          "duration": 0.18292675000000713
        },
        {
          "name": "D3",
          "midi": 50,
          "time": 81.58533049999944,
          "velocity": 0.8740157480314961,
          "duration": 0.030487791666672592
        },
        {
          "name": "F#3",
          "midi": 54,
          "time": 81.58533049999944,
          "velocity": 0.8740157480314961,
          "duration": 0.18292675000000713
        },
        {
          "name": "D3",
          "midi": 50,
          "time": 81.76825724999945,
          "velocity": 0.8740157480314961,
          "duration": 0.18292674999999292
        },
        {
          "name": "A2",
          "midi": 45,
          "time": 81.76825724999945,
          "velocity": 0.8740157480314961,
          "duration": 0.18292674999999292
        },
        {
          "name": "A3",
          "midi": 57,
          "time": 81.95118399999944,
          "velocity": 0.8740157480314961,
          "duration": 0.18292674999999292
        },
        {
          "name": "D3",
          "midi": 50,
          "time": 81.95118399999944,
          "velocity": 0.8740157480314961,
          "duration": 0.18292674999999292
        },
        {
          "name": "G2",
          "midi": 43,
          "time": 81.95118399999944,
          "velocity": 0.8740157480314961,
          "duration": 0.18292674999999292
        },
        {
          "name": "A3",
          "midi": 57,
          "time": 82.13411074999944,
          "velocity": 0.8740157480314961,
          "duration": 0.18292674999999292
        },
        {
          "name": "D3",
          "midi": 50,
          "time": 82.13411074999944,
          "velocity": 0.8740157480314961,
          "duration": 0.18292674999999292
        },
        {
          "name": "G2",
          "midi": 43,
          "time": 82.13411074999944,
          "velocity": 0.8740157480314961,
          "duration": 0.18292674999999292
        },
        {
          "name": "A3",
          "midi": 57,
          "time": 82.31703749999943,
          "velocity": 0.8740157480314961,
          "duration": 0.18292674999999292
        },
        {
          "name": "D3",
          "midi": 50,
          "time": 82.31703749999943,
          "velocity": 0.8740157480314961,
          "duration": 0.18292674999999292
        },
        {
          "name": "G2",
          "midi": 43,
          "time": 82.31703749999943,
          "velocity": 0.8740157480314961,
          "duration": 0.18292674999999292
        },
        {
          "name": "A3",
          "midi": 57,
          "time": 82.49996424999942,
          "velocity": 0.8740157480314961,
          "duration": 0.18292674999999292
        },
        {
          "name": "D3",
          "midi": 50,
          "time": 82.49996424999942,
          "velocity": 0.8740157480314961,
          "duration": 0.18292674999999292
        },
        {
          "name": "G2",
          "midi": 43,
          "time": 82.49996424999942,
          "velocity": 0.8740157480314961,
          "duration": 0.18292674999999292
        },
        {
          "name": "D4",
          "midi": 62,
          "time": 82.68289099999942,
          "velocity": 0.8740157480314961,
          "duration": 0.18292674999999292
        },
        {
          "name": "D3",
          "midi": 50,
          "time": 82.68289099999942,
          "velocity": 0.8740157480314961,
          "duration": 0.18292674999999292
        },
        {
          "name": "D4",
          "midi": 62,
          "time": 82.86581774999941,
          "velocity": 0.8740157480314961,
          "duration": 0.18292674999999292
        },
        {
          "name": "D3",
          "midi": 50,
          "time": 82.86581774999941,
          "velocity": 0.8740157480314961,
          "duration": 0.18292674999999292
        },
        {
          "name": "D4",
          "midi": 62,
          "time": 83.0487444999994,
          "velocity": 0.8740157480314961,
          "duration": 0.18292674999999292
        },
        {
          "name": "D3",
          "midi": 50,
          "time": 83.0487444999994,
          "velocity": 0.8740157480314961,
          "duration": 0.18292674999999292
        },
        {
          "name": "D4",
          "midi": 62,
          "time": 83.2316712499994,
          "velocity": 0.8740157480314961,
          "duration": 0.18292674999999292
        },
        {
          "name": "D3",
          "midi": 50,
          "time": 83.2316712499994,
          "velocity": 0.8740157480314961,
          "duration": 0.18292674999999292
        },
        {
          "name": "D4",
          "midi": 62,
          "time": 83.41459799999939,
          "velocity": 0.8740157480314961,
          "duration": 0.18292674999999292
        },
        {
          "name": "A3",
          "midi": 57,
          "time": 83.41459799999939,
          "velocity": 0.8740157480314961,
          "duration": 0.18292674999999292
        },
        {
          "name": "D3",
          "midi": 50,
          "time": 83.41459799999939,
          "velocity": 0.8740157480314961,
          "duration": 0.18292674999999292
        },
        {
          "name": "G2",
          "midi": 43,
          "time": 83.41459799999939,
          "velocity": 0.8740157480314961,
          "duration": 0.18292674999999292
        },
        {
          "name": "D4",
          "midi": 62,
          "time": 83.59752474999938,
          "velocity": 0.8740157480314961,
          "duration": 0.18292674999999292
        },
        {
          "name": "A3",
          "midi": 57,
          "time": 83.59752474999938,
          "velocity": 0.8740157480314961,
          "duration": 0.18292674999999292
        },
        {
          "name": "D3",
          "midi": 50,
          "time": 83.59752474999938,
          "velocity": 0.8740157480314961,
          "duration": 0.18292674999999292
        },
        {
          "name": "G2",
          "midi": 43,
          "time": 83.59752474999938,
          "velocity": 0.8740157480314961,
          "duration": 0.18292674999999292
        },
        {
          "name": "D4",
          "midi": 62,
          "time": 83.78045149999937,
          "velocity": 0.8740157480314961,
          "duration": 0.18292674999999292
        },
        {
          "name": "A3",
          "midi": 57,
          "time": 83.78045149999937,
          "velocity": 0.8740157480314961,
          "duration": 0.18292674999999292
        },
        {
          "name": "D3",
          "midi": 50,
          "time": 83.78045149999937,
          "velocity": 0.8740157480314961,
          "duration": 0.18292674999999292
        },
        {
          "name": "G2",
          "midi": 43,
          "time": 83.78045149999937,
          "velocity": 0.8740157480314961,
          "duration": 0.18292674999999292
        },
        {
          "name": "D4",
          "midi": 62,
          "time": 83.96337824999937,
          "velocity": 0.8740157480314961,
          "duration": 0.18292674999999292
        },
        {
          "name": "A3",
          "midi": 57,
          "time": 83.96337824999937,
          "velocity": 0.8740157480314961,
          "duration": 0.18292674999999292
        },
        {
          "name": "D3",
          "midi": 50,
          "time": 83.96337824999937,
          "velocity": 0.8740157480314961,
          "duration": 0.18292674999999292
        },
        {
          "name": "G2",
          "midi": 43,
          "time": 83.96337824999937,
          "velocity": 0.8740157480314961,
          "duration": 0.18292674999999292
        },
        {
          "name": "D4",
          "midi": 62,
          "time": 84.14630499999936,
          "velocity": 0.8740157480314961,
          "duration": 0.18292674999999292
        },
        {
          "name": "A3",
          "midi": 57,
          "time": 84.14630499999936,
          "velocity": 0.8740157480314961,
          "duration": 0.18292674999999292
        },
        {
          "name": "D3",
          "midi": 50,
          "time": 84.14630499999936,
          "velocity": 0.8740157480314961,
          "duration": 0.18292674999999292
        },
        {
          "name": "G2",
          "midi": 43,
          "time": 84.14630499999936,
          "velocity": 0.8740157480314961,
          "duration": 0.18292674999999292
        },
        {
          "name": "D4",
          "midi": 62,
          "time": 84.32923174999935,
          "velocity": 0.8740157480314961,
          "duration": 0.18292674999999292
        },
        {
          "name": "A3",
          "midi": 57,
          "time": 84.32923174999935,
          "velocity": 0.8740157480314961,
          "duration": 0.18292674999999292
        },
        {
          "name": "D3",
          "midi": 50,
          "time": 84.32923174999935,
          "velocity": 0.8740157480314961,
          "duration": 0.18292674999999292
        },
        {
          "name": "G2",
          "midi": 43,
          "time": 84.32923174999935,
          "velocity": 0.8740157480314961,
          "duration": 0.18292674999999292
        },
        {
          "name": "D4",
          "midi": 62,
          "time": 84.51215849999934,
          "velocity": 0.8740157480314961,
          "duration": 0.36585350000000005
        },
        {
          "name": "A3",
          "midi": 57,
          "time": 84.51215849999934,
          "velocity": 0.8740157480314961,
          "duration": 0.36585350000000005
        },
        {
          "name": "D3",
          "midi": 50,
          "time": 84.51215849999934,
          "velocity": 0.8740157480314961,
          "duration": 0.36585350000000005
        },
        {
          "name": "G2",
          "midi": 43,
          "time": 84.51215849999934,
          "velocity": 0.8740157480314961,
          "duration": 0.36585350000000005
        },
        {
          "name": "F#2",
          "midi": 42,
          "time": 84.87801199999934,
          "velocity": 0.7874015748031497,
          "duration": 0.18292674999999292
        },
        {
          "name": "F#2",
          "midi": 42,
          "time": 85.06093874999934,
          "velocity": 0.7874015748031497,
          "duration": 0.18292674999999292
        },
        {
          "name": "F#2",
          "midi": 42,
          "time": 85.24386549999933,
          "velocity": 0.7874015748031497,
          "duration": 0.18292674999999292
        },
        {
          "name": "F#2",
          "midi": 42,
          "time": 85.42679224999932,
          "velocity": 0.7874015748031497,
          "duration": 0.18292674999999292
        },
        {
          "name": "C#3",
          "midi": 49,
          "time": 85.60971899999932,
          "velocity": 0.8740157480314961,
          "duration": 0.18292674999999292
        },
        {
          "name": "F#2",
          "midi": 42,
          "time": 85.60971899999932,
          "velocity": 0.8740157480314961,
          "duration": 0.18292674999999292
        },
        {
          "name": "F#2",
          "midi": 42,
          "time": 85.79264574999931,
          "velocity": 0.7874015748031497,
          "duration": 0.18292674999999292
        },
        {
          "name": "F#2",
          "midi": 42,
          "time": 85.9755724999993,
          "velocity": 0.7874015748031497,
          "duration": 0.18292674999999292
        },
        {
          "name": "F#2",
          "midi": 42,
          "time": 86.1584992499993,
          "velocity": 0.7874015748031497,
          "duration": 0.09146337500000357
        },
        {
          "name": "F#2",
          "midi": 42,
          "time": 86.2499626249993,
          "velocity": 0.7874015748031497,
          "duration": 0.09146337500000357
        },
        {
          "name": "G2",
          "midi": 43,
          "time": 86.3414259999993,
          "velocity": 0.7874015748031497,
          "duration": 0.18292674999999292
        },
        {
          "name": "G2",
          "midi": 43,
          "time": 86.5243527499993,
          "velocity": 0.7874015748031497,
          "duration": 0.18292674999999292
        },
        {
          "name": "G2",
          "midi": 43,
          "time": 86.70727949999929,
          "velocity": 0.7874015748031497,
          "duration": 0.18292674999999292
        },
        {
          "name": "G2",
          "midi": 43,
          "time": 86.89020624999928,
          "velocity": 0.7874015748031497,
          "duration": 0.18292674999999292
        },
        {
          "name": "D3",
          "midi": 50,
          "time": 87.07313299999927,
          "velocity": 0.8740157480314961,
          "duration": 0.18292674999999292
        },
        {
          "name": "G2",
          "midi": 43,
          "time": 87.07313299999927,
          "velocity": 0.8740157480314961,
          "duration": 0.18292674999999292
        },
        {
          "name": "G2",
          "midi": 43,
          "time": 87.25605974999927,
          "velocity": 0.7874015748031497,
          "duration": 0.18292674999999292
        },
        {
          "name": "G2",
          "midi": 43,
          "time": 87.43898649999926,
          "velocity": 0.8740157480314961,
          "duration": 0.36585350000000005
        },
        {
          "name": "A2",
          "midi": 45,
          "time": 87.80483999999926,
          "velocity": 0.7874015748031497,
          "duration": 0.18292674999999292
        },
        {
          "name": "A2",
          "midi": 45,
          "time": 87.98776674999925,
          "velocity": 0.7874015748031497,
          "duration": 0.18292674999999292
        },
        {
          "name": "A2",
          "midi": 45,
          "time": 88.17069349999925,
          "velocity": 0.7874015748031497,
          "duration": 0.18292674999999292
        },
        {
          "name": "A2",
          "midi": 45,
          "time": 88.35362024999924,
          "velocity": 0.8740157480314961,
          "duration": 0.18292674999999292
        },
        {
          "name": "E3",
          "midi": 52,
          "time": 88.53654699999923,
          "velocity": 0.8740157480314961,
          "duration": 0.18292674999999292
        },
        {
          "name": "A2",
          "midi": 45,
          "time": 88.53654699999923,
          "velocity": 0.8740157480314961,
          "duration": 0.18292674999999292
        },
        {
          "name": "A2",
          "midi": 45,
          "time": 88.90240049999922,
          "velocity": 0.7874015748031497,
          "duration": 0.18292674999999292
        },
        {
          "name": "A2",
          "midi": 45,
          "time": 89.08532724999921,
          "velocity": 0.7874015748031497,
          "duration": 0.09146337500000357
        },
        {
          "name": "A2",
          "midi": 45,
          "time": 89.17679062499921,
          "velocity": 0.7874015748031497,
          "duration": 0.09146337500000357
        },
        {
          "name": "B2",
          "midi": 47,
          "time": 89.26825399999922,
          "velocity": 0.7874015748031497,
          "duration": 0.18292674999999292
        },
        {
          "name": "B2",
          "midi": 47,
          "time": 89.45118074999921,
          "velocity": 0.7874015748031497,
          "duration": 0.09146337500000357
        },
        {
          "name": "B2",
          "midi": 47,
          "time": 89.54264412499921,
          "velocity": 0.7874015748031497,
          "duration": 0.09146337500000357
        },
        {
          "name": "B2",
          "midi": 47,
          "time": 89.63410749999922,
          "velocity": 0.7874015748031497,
          "duration": 0.18292674999999292
        },
        {
          "name": "B2",
          "midi": 47,
          "time": 89.81703424999921,
          "velocity": 0.7874015748031497,
          "duration": 0.18292674999999292
        },
        {
          "name": "F#3",
          "midi": 54,
          "time": 89.9999609999992,
          "velocity": 0.8740157480314961,
          "duration": 0.18292674999999292
        },
        {
          "name": "B2",
          "midi": 47,
          "time": 89.9999609999992,
          "velocity": 0.8740157480314961,
          "duration": 0.18292674999999292
        },
        {
          "name": "B2",
          "midi": 47,
          "time": 90.1828877499992,
          "velocity": 0.7874015748031497,
          "duration": 0.18292674999999292
        },
        {
          "name": "B2",
          "midi": 47,
          "time": 90.36581449999919,
          "velocity": 0.8740157480314961,
          "duration": 0.36585350000000005
        },
        {
          "name": "C3",
          "midi": 48,
          "time": 90.73166799999919,
          "velocity": 0.8740157480314961,
          "duration": 0.18292674999999292
        },
        {
          "name": "C3",
          "midi": 48,
          "time": 90.91459474999918,
          "velocity": 0.8740157480314961,
          "duration": 0.18292674999999292
        },
        {
          "name": "C3",
          "midi": 48,
          "time": 91.09752149999917,
          "velocity": 0.8740157480314961,
          "duration": 0.18292674999999292
        },
        {
          "name": "C3",
          "midi": 48,
          "time": 91.28044824999917,
          "velocity": 0.8740157480314961,
          "duration": 0.18292674999999292
        },
        {
          "name": "G3",
          "midi": 55,
          "time": 91.46337499999916,
          "velocity": 0.8740157480314961,
          "duration": 0.18292674999999292
        },
        {
          "name": "C3",
          "midi": 48,
          "time": 91.46337499999916,
          "velocity": 0.8740157480314961,
          "duration": 0.18292674999999292
        },
        {
          "name": "C3",
          "midi": 48,
          "time": 91.64630174999915,
          "velocity": 0.8740157480314961,
          "duration": 0.18292674999999292
        },
        {
          "name": "C3",
          "midi": 48,
          "time": 91.82922849999915,
          "velocity": 0.8740157480314961,
          "duration": 0.18292674999999292
        },
        {
          "name": "C3",
          "midi": 48,
          "time": 92.01215524999914,
          "velocity": 0.8740157480314961,
          "duration": 0.09146337500000357
        },
        {
          "name": "C3",
          "midi": 48,
          "time": 92.10361862499914,
          "velocity": 0.8740157480314961,
          "duration": 0.09146337500000357
        },
        {
          "name": "B2",
          "midi": 47,
          "time": 92.19508199999915,
          "velocity": 0.8740157480314961,
          "duration": 0.18292674999999292
        },
        {
          "name": "B2",
          "midi": 47,
          "time": 92.37800874999914,
          "velocity": 0.8740157480314961,
          "duration": 0.18292674999999292
        },
        {
          "name": "B2",
          "midi": 47,
          "time": 92.56093549999913,
          "velocity": 0.8740157480314961,
          "duration": 0.18292674999999292
        },
        {
          "name": "B2",
          "midi": 47,
          "time": 92.74386224999913,
          "velocity": 0.8740157480314961,
          "duration": 0.18292674999999292
        },
        {
          "name": "F#3",
          "midi": 54,
          "time": 92.92678899999912,
          "velocity": 0.8740157480314961,
          "duration": 0.18292674999999292
        },
        {
          "name": "B2",
          "midi": 47,
          "time": 92.92678899999912,
          "velocity": 0.8740157480314961,
          "duration": 0.18292674999999292
        },
        {
          "name": "B2",
          "midi": 47,
          "time": 93.10971574999911,
          "velocity": 0.8740157480314961,
          "duration": 0.18292674999999292
        },
        {
          "name": "B2",
          "midi": 47,
          "time": 93.2926424999991,
          "velocity": 0.8740157480314961,
          "duration": 0.18292674999999292
        },
        {
          "name": "A2",
          "midi": 45,
          "time": 93.4755692499991,
          "velocity": 0.8740157480314961,
          "duration": 0.18292674999999292
        },
        {
          "name": "D2",
          "midi": 38,
          "time": 93.4755692499991,
          "velocity": 0.8740157480314961,
          "duration": 0.18292674999999292
        },
        {
          "name": "A3",
          "midi": 57,
          "time": 93.65849599999909,
          "velocity": 0.8740157480314961,
          "duration": 1.0975605000000002
        },
        {
          "name": "D3",
          "midi": 50,
          "time": 93.65849599999909,
          "velocity": 0.8740157480314961,
          "duration": 1.0975605000000002
        },
        {
          "name": "G2",
          "midi": 43,
          "time": 93.65849599999909,
          "velocity": 0.8740157480314961,
          "duration": 1.0975605000000002
        },
        {
          "name": "D4",
          "midi": 62,
          "time": 94.75605649999909,
          "velocity": 0.8740157480314961,
          "duration": 0.548780249999993
        },
        {
          "name": "A3",
          "midi": 57,
          "time": 94.75605649999909,
          "velocity": 0.8740157480314961,
          "duration": 0.548780249999993
        },
        {
          "name": "D3",
          "midi": 50,
          "time": 94.75605649999909,
          "velocity": 0.8740157480314961,
          "duration": 0.548780249999993
        },
        {
          "name": "G2",
          "midi": 43,
          "time": 94.75605649999909,
          "velocity": 0.8740157480314961,
          "duration": 0.548780249999993
        },
        {
          "name": "D4",
          "midi": 62,
          "time": 95.30483674999908,
          "velocity": 0.8740157480314961,
          "duration": 0.18292674999999292
        },
        {
          "name": "A3",
          "midi": 57,
          "time": 95.30483674999908,
          "velocity": 0.8740157480314961,
          "duration": 0.18292674999999292
        },
        {
          "name": "D3",
          "midi": 50,
          "time": 95.30483674999908,
          "velocity": 0.8740157480314961,
          "duration": 0.18292674999999292
        },
        {
          "name": "G2",
          "midi": 43,
          "time": 95.30483674999908,
          "velocity": 0.8740157480314961,
          "duration": 0.18292674999999292
        },
        {
          "name": "D4",
          "midi": 62,
          "time": 95.48776349999908,
          "velocity": 0.8740157480314961,
          "duration": 0.18292674999999292
        },
        {
          "name": "A3",
          "midi": 57,
          "time": 95.48776349999908,
          "velocity": 0.8740157480314961,
          "duration": 0.18292674999999292
        },
        {
          "name": "D3",
          "midi": 50,
          "time": 95.48776349999908,
          "velocity": 0.8740157480314961,
          "duration": 0.18292674999999292
        },
        {
          "name": "G2",
          "midi": 43,
          "time": 95.48776349999908,
          "velocity": 0.8740157480314961,
          "duration": 0.18292674999999292
        },
        {
          "name": "D4",
          "midi": 62,
          "time": 95.67069024999907,
          "velocity": 0.8740157480314961,
          "duration": 0.18292674999999292
        },
        {
          "name": "A3",
          "midi": 57,
          "time": 95.67069024999907,
          "velocity": 0.8740157480314961,
          "duration": 0.18292674999999292
        },
        {
          "name": "D3",
          "midi": 50,
          "time": 95.67069024999907,
          "velocity": 0.8740157480314961,
          "duration": 0.18292674999999292
        },
        {
          "name": "G2",
          "midi": 43,
          "time": 95.67069024999907,
          "velocity": 0.8740157480314961,
          "duration": 0.18292674999999292
        },
        {
          "name": "D4",
          "midi": 62,
          "time": 95.85361699999906,
          "velocity": 0.8740157480314961,
          "duration": 0.18292674999999292
        },
        {
          "name": "A3",
          "midi": 57,
          "time": 95.85361699999906,
          "velocity": 0.8740157480314961,
          "duration": 0.18292674999999292
        },
        {
          "name": "D3",
          "midi": 50,
          "time": 95.85361699999906,
          "velocity": 0.8740157480314961,
          "duration": 0.18292674999999292
        },
        {
          "name": "G2",
          "midi": 43,
          "time": 95.85361699999906,
          "velocity": 0.8740157480314961,
          "duration": 0.18292674999999292
        },
        {
          "name": "D4",
          "midi": 62,
          "time": 96.03654374999905,
          "velocity": 0.8740157480314961,
          "duration": 0.18292674999999292
        },
        {
          "name": "A3",
          "midi": 57,
          "time": 96.03654374999905,
          "velocity": 0.8740157480314961,
          "duration": 0.18292674999999292
        },
        {
          "name": "D3",
          "midi": 50,
          "time": 96.03654374999905,
          "velocity": 0.8740157480314961,
          "duration": 0.18292674999999292
        },
        {
          "name": "G2",
          "midi": 43,
          "time": 96.03654374999905,
          "velocity": 0.8740157480314961,
          "duration": 0.18292674999999292
        },
        {
          "name": "D4",
          "midi": 62,
          "time": 96.21947049999905,
          "velocity": 0.8740157480314961,
          "duration": 0.18292674999999292
        },
        {
          "name": "A3",
          "midi": 57,
          "time": 96.21947049999905,
          "velocity": 0.8740157480314961,
          "duration": 0.18292674999999292
        },
        {
          "name": "D3",
          "midi": 50,
          "time": 96.21947049999905,
          "velocity": 0.8740157480314961,
          "duration": 0.18292674999999292
        },
        {
          "name": "G2",
          "midi": 43,
          "time": 96.21947049999905,
          "velocity": 0.8740157480314961,
          "duration": 0.18292674999999292
        },
        {
          "name": "D4",
          "midi": 62,
          "time": 96.40239724999904,
          "velocity": 0.8740157480314961,
          "duration": 0.18292674999999292
        },
        {
          "name": "A3",
          "midi": 57,
          "time": 96.40239724999904,
          "velocity": 0.8740157480314961,
          "duration": 0.18292674999999292
        },
        {
          "name": "D3",
          "midi": 50,
          "time": 96.40239724999904,
          "velocity": 0.8740157480314961,
          "duration": 0.18292674999999292
        },
        {
          "name": "G2",
          "midi": 43,
          "time": 96.40239724999904,
          "velocity": 0.8740157480314961,
          "duration": 0.18292674999999292
        },
        {
          "name": "D3",
          "midi": 50,
          "time": 96.58532399999903,
          "velocity": 0.5590551181102362,
          "duration": 0.18292674999999292
        },
        {
          "name": "D3",
          "midi": 50,
          "time": 96.76825074999903,
          "velocity": 0.5590551181102362,
          "duration": 0.18292674999999292
        },
        {
          "name": "D3",
          "midi": 50,
          "time": 96.95117749999902,
          "velocity": 0.5590551181102362,
          "duration": 0.18292674999999292
        },
        {
          "name": "D3",
          "midi": 50,
          "time": 97.13410424999901,
          "velocity": 0.5590551181102362,
          "duration": 0.18292674999999292
        },
        {
          "name": "D3",
          "midi": 50,
          "time": 97.317030999999,
          "velocity": 0.5590551181102362,
          "duration": 0.18292674999999292
        },
        {
          "name": "D3",
          "midi": 50,
          "time": 97.499957749999,
          "velocity": 0.5590551181102362,
          "duration": 0.18292674999999292
        },
        {
          "name": "D3",
          "midi": 50,
          "time": 97.68288449999899,
          "velocity": 0.5590551181102362,
          "duration": 0.18292674999999292
        },
        {
          "name": "D3",
          "midi": 50,
          "time": 97.86581124999898,
          "velocity": 0.5590551181102362,
          "duration": 0.18292674999999292
        },
        {
          "name": "D3",
          "midi": 50,
          "time": 98.04873799999898,
          "velocity": 0.5590551181102362,
          "duration": 0.18292674999999292
        },
        {
          "name": "D3",
          "midi": 50,
          "time": 98.23166474999897,
          "velocity": 0.5590551181102362,
          "duration": 0.18292674999999292
        },
        {
          "name": "D3",
          "midi": 50,
          "time": 98.41459149999896,
          "velocity": 0.5590551181102362,
          "duration": 0.18292674999999292
        },
        {
          "name": "D3",
          "midi": 50,
          "time": 98.59751824999896,
          "velocity": 0.5590551181102362,
          "duration": 0.18292674999999292
        },
        {
          "name": "D3",
          "midi": 50,
          "time": 98.78044499999895,
          "velocity": 0.5590551181102362,
          "duration": 0.18292674999999292
        },
        {
          "name": "D3",
          "midi": 50,
          "time": 98.96337174999894,
          "velocity": 0.5590551181102362,
          "duration": 0.18292674999999292
        },
        {
          "name": "D3",
          "midi": 50,
          "time": 99.14629849999893,
          "velocity": 0.5590551181102362,
          "duration": 0.18292674999999292
        },
        {
          "name": "D3",
          "midi": 50,
          "time": 99.32922524999893,
          "velocity": 0.5590551181102362,
          "duration": 0.18292674999999292
        },
        {
          "name": "D3",
          "midi": 50,
          "time": 99.51215199999892,
          "velocity": 0.5590551181102362,
          "duration": 0.18292674999999292
        },
        {
          "name": "D3",
          "midi": 50,
          "time": 99.69507874999891,
          "velocity": 0.5590551181102362,
          "duration": 0.18292674999999292
        },
        {
          "name": "D3",
          "midi": 50,
          "time": 99.8780054999989,
          "velocity": 0.5590551181102362,
          "duration": 0.18292674999999292
        },
        {
          "name": "D3",
          "midi": 50,
          "time": 100.0609322499989,
          "velocity": 0.5590551181102362,
          "duration": 0.18292674999999292
        },
        {
          "name": "D3",
          "midi": 50,
          "time": 100.24385899999889,
          "velocity": 0.5590551181102362,
          "duration": 0.18292674999999292
        },
        {
          "name": "D3",
          "midi": 50,
          "time": 100.42678574999888,
          "velocity": 0.5590551181102362,
          "duration": 0.18292674999999292
        },
        {
          "name": "D3",
          "midi": 50,
          "time": 100.60971249999888,
          "velocity": 0.5590551181102362,
          "duration": 0.18292674999999292
        },
        {
          "name": "D3",
          "midi": 50,
          "time": 100.79263924999887,
          "velocity": 0.5590551181102362,
          "duration": 0.18292674999999292
        },
        {
          "name": "D3",
          "midi": 50,
          "time": 100.97556599999886,
          "velocity": 0.5590551181102362,
          "duration": 0.18292674999999292
        },
        {
          "name": "D3",
          "midi": 50,
          "time": 101.15849274999886,
          "velocity": 0.5590551181102362,
          "duration": 0.18292674999999292
        },
        {
          "name": "D3",
          "midi": 50,
          "time": 101.34141949999885,
          "velocity": 0.5590551181102362,
          "duration": 0.18292674999999292
        },
        {
          "name": "D3",
          "midi": 50,
          "time": 101.52434624999884,
          "velocity": 0.5590551181102362,
          "duration": 0.18292674999999292
        },
        {
          "name": "D3",
          "midi": 50,
          "time": 101.70727299999884,
          "velocity": 0.5590551181102362,
          "duration": 0.18292674999999292
        },
        {
          "name": "D3",
          "midi": 50,
          "time": 101.89019974999883,
          "velocity": 0.5590551181102362,
          "duration": 0.18292674999999292
        },
        {
          "name": "D3",
          "midi": 50,
          "time": 102.07312649999882,
          "velocity": 0.5590551181102362,
          "duration": 0.18292674999999292
        },
        {
          "name": "D3",
          "midi": 50,
          "time": 102.25605324999881,
          "velocity": 0.5590551181102362,
          "duration": 0.18292674999999292
        },
        {
          "name": "D3",
          "midi": 50,
          "time": 102.4389799999988,
          "velocity": 0.5590551181102362,
          "duration": 0.18292674999999292
        },
        {
          "name": "D3",
          "midi": 50,
          "time": 102.6219067499988,
          "velocity": 0.5590551181102362,
          "duration": 0.18292674999999292
        },
        {
          "name": "D3",
          "midi": 50,
          "time": 102.8048334999988,
          "velocity": 0.5590551181102362,
          "duration": 0.18292674999999292
        },
        {
          "name": "D3",
          "midi": 50,
          "time": 102.98776024999879,
          "velocity": 0.5590551181102362,
          "duration": 0.18292674999999292
        },
        {
          "name": "D3",
          "midi": 50,
          "time": 103.17068699999878,
          "velocity": 0.5590551181102362,
          "duration": 0.18292674999999292
        },
        {
          "name": "D3",
          "midi": 50,
          "time": 103.35361374999877,
          "velocity": 0.5590551181102362,
          "duration": 0.18292674999999292
        },
        {
          "name": "D3",
          "midi": 50,
          "time": 103.53654049999876,
          "velocity": 0.5590551181102362,
          "duration": 0.18292674999999292
        },
        {
          "name": "D3",
          "midi": 50,
          "time": 103.71946724999876,
          "velocity": 0.5590551181102362,
          "duration": 0.18292674999999292
        },
        {
          "name": "D3",
          "midi": 50,
          "time": 103.90239399999875,
          "velocity": 0.5590551181102362,
          "duration": 0.18292674999999292
        },
        {
          "name": "D3",
          "midi": 50,
          "time": 104.08532074999874,
          "velocity": 0.5590551181102362,
          "duration": 0.18292674999999292
        },
        {
          "name": "D3",
          "midi": 50,
          "time": 104.26824749999874,
          "velocity": 0.5590551181102362,
          "duration": 0.18292674999999292
        },
        {
          "name": "D3",
          "midi": 50,
          "time": 104.45117424999873,
          "velocity": 0.5590551181102362,
          "duration": 0.18292674999999292
        },
        {
          "name": "D3",
          "midi": 50,
          "time": 104.63410099999872,
          "velocity": 0.5590551181102362,
          "duration": 0.18292674999999292
        },
        {
          "name": "D3",
          "midi": 50,
          "time": 104.81702774999872,
          "velocity": 0.5590551181102362,
          "duration": 0.18292674999999292
        },
        {
          "name": "D3",
          "midi": 50,
          "time": 104.99995449999871,
          "velocity": 0.5590551181102362,
          "duration": 0.18292674999999292
        },
        {
          "name": "D3",
          "midi": 50,
          "time": 105.1828812499987,
          "velocity": 0.5590551181102362,
          "duration": 0.18292674999999292
        },
        {
          "name": "D3",
          "midi": 50,
          "time": 105.3658079999987,
          "velocity": 0.5590551181102362,
          "duration": 0.18292674999999292
        },
        {
          "name": "D3",
          "midi": 50,
          "time": 105.54873474999869,
          "velocity": 0.5590551181102362,
          "duration": 0.18292674999999292
        },
        {
          "name": "D3",
          "midi": 50,
          "time": 105.73166149999868,
          "velocity": 0.5590551181102362,
          "duration": 0.18292674999999292
        },
        {
          "name": "D3",
          "midi": 50,
          "time": 105.91458824999867,
          "velocity": 0.5590551181102362,
          "duration": 0.18292674999999292
        },
        {
          "name": "D3",
          "midi": 50,
          "time": 106.09751499999867,
          "velocity": 0.5590551181102362,
          "duration": 0.18292674999999292
        },
        {
          "name": "D3",
          "midi": 50,
          "time": 106.28044174999866,
          "velocity": 0.5590551181102362,
          "duration": 0.18292674999999292
        },
        {
          "name": "D3",
          "midi": 50,
          "time": 106.46336849999865,
          "velocity": 0.5590551181102362,
          "duration": 0.18292674999999292
        },
        {
          "name": "D3",
          "midi": 50,
          "time": 106.64629524999864,
          "velocity": 0.5590551181102362,
          "duration": 0.18292674999999292
        },
        {
          "name": "D3",
          "midi": 50,
          "time": 106.82922199999864,
          "velocity": 0.5590551181102362,
          "duration": 0.18292674999999292
        },
        {
          "name": "D3",
          "midi": 50,
          "time": 107.01214874999863,
          "velocity": 0.5590551181102362,
          "duration": 0.18292674999999292
        },
        {
          "name": "D3",
          "midi": 50,
          "time": 107.19507549999862,
          "velocity": 0.5590551181102362,
          "duration": 0.18292674999999292
        },
        {
          "name": "D3",
          "midi": 50,
          "time": 107.37800224999862,
          "velocity": 0.6220472440944882,
          "duration": 0.18292674999999292
        },
        {
          "name": "D3",
          "midi": 50,
          "time": 107.56092899999861,
          "velocity": 0.6220472440944882,
          "duration": 0.18292674999999292
        },
        {
          "name": "D3",
          "midi": 50,
          "time": 107.7438557499986,
          "velocity": 0.6220472440944882,
          "duration": 0.18292674999999292
        },
        {
          "name": "D3",
          "midi": 50,
          "time": 107.9267824999986,
          "velocity": 0.6220472440944882,
          "duration": 0.18292674999999292
        },
        {
          "name": "D3",
          "midi": 50,
          "time": 108.10970924999859,
          "velocity": 0.6220472440944882,
          "duration": 0.18292674999999292
        },
        {
          "name": "D4",
          "midi": 62,
          "time": 108.29263599999858,
          "velocity": 0.8740157480314961,
          "duration": 0.18292674999999292
        },
        {
          "name": "D3",
          "midi": 50,
          "time": 108.29263599999858,
          "velocity": 0.8740157480314961,
          "duration": 0.18292674999999292
        },
        {
          "name": "D4",
          "midi": 62,
          "time": 108.65848949999857,
          "velocity": 0.8740157480314961,
          "duration": 0.18292674999999292
        },
        {
          "name": "D3",
          "midi": 50,
          "time": 108.65848949999857,
          "velocity": 0.8740157480314961,
          "duration": 0.18292674999999292
        },
        {
          "name": "D4",
          "midi": 62,
          "time": 109.02434299999855,
          "velocity": 0.8740157480314961,
          "duration": 0.18292674999999292
        },
        {
          "name": "D3",
          "midi": 50,
          "time": 109.02434299999855,
          "velocity": 0.8740157480314961,
          "duration": 0.18292674999999292
        },
        {
          "name": "D4",
          "midi": 62,
          "time": 109.39019649999854,
          "velocity": 0.8740157480314961,
          "duration": 0.18292674999999292
        },
        {
          "name": "D3",
          "midi": 50,
          "time": 109.39019649999854,
          "velocity": 0.8740157480314961,
          "duration": 0.18292674999999292
        },
        {
          "name": "D4",
          "midi": 62,
          "time": 109.75604999999852,
          "velocity": 0.8740157480314961,
          "duration": 0.18292674999999292
        },
        {
          "name": "E3",
          "midi": 52,
          "time": 109.75604999999852,
          "velocity": 0.8740157480314961,
          "duration": 0.18292674999999292
        },
        {
          "name": "D4",
          "midi": 62,
          "time": 110.12190349999851,
          "velocity": 0.8740157480314961,
          "duration": 0.18292674999999292
        },
        {
          "name": "E3",
          "midi": 52,
          "time": 110.12190349999851,
          "velocity": 0.8740157480314961,
          "duration": 0.18292674999999292
        },
        {
          "name": "D4",
          "midi": 62,
          "time": 110.4877569999985,
          "velocity": 0.8740157480314961,
          "duration": 0.18292674999999292
        },
        {
          "name": "E3",
          "midi": 52,
          "time": 110.4877569999985,
          "velocity": 0.8740157480314961,
          "duration": 0.18292674999999292
        },
        {
          "name": "D4",
          "midi": 62,
          "time": 110.85361049999848,
          "velocity": 0.8740157480314961,
          "duration": 0.18292674999999292
        },
        {
          "name": "E3",
          "midi": 52,
          "time": 110.85361049999848,
          "velocity": 0.8740157480314961,
          "duration": 0.18292674999999292
        },
        {
          "name": "D4",
          "midi": 62,
          "time": 111.21946399999847,
          "velocity": 0.8740157480314961,
          "duration": 0.18292674999999292
        },
        {
          "name": "D3",
          "midi": 50,
          "time": 111.21946399999847,
          "velocity": 0.8740157480314961,
          "duration": 0.18292674999999292
        },
        {
          "name": "D4",
          "midi": 62,
          "time": 111.58531749999845,
          "velocity": 0.8740157480314961,
          "duration": 0.18292674999999292
        },
        {
          "name": "D3",
          "midi": 50,
          "time": 111.58531749999845,
          "velocity": 0.8740157480314961,
          "duration": 0.18292674999999292
        },
        {
          "name": "D4",
          "midi": 62,
          "time": 111.95117099999844,
          "velocity": 0.8740157480314961,
          "duration": 0.18292674999999292
        },
        {
          "name": "D3",
          "midi": 50,
          "time": 111.95117099999844,
          "velocity": 0.8740157480314961,
          "duration": 0.18292674999999292
        },
        {
          "name": "D4",
          "midi": 62,
          "time": 112.31702449999842,
          "velocity": 0.8740157480314961,
          "duration": 0.18292674999999292
        },
        {
          "name": "D3",
          "midi": 50,
          "time": 112.31702449999842,
          "velocity": 0.8740157480314961,
          "duration": 0.18292674999999292
        },
        {
          "name": "D4",
          "midi": 62,
          "time": 112.68287799999841,
          "velocity": 0.8740157480314961,
          "duration": 0.18292674999999292
        },
        {
          "name": "E3",
          "midi": 52,
          "time": 112.68287799999841,
          "velocity": 0.8740157480314961,
          "duration": 0.18292674999999292
        },
        {
          "name": "D4",
          "midi": 62,
          "time": 113.0487314999984,
          "velocity": 0.8740157480314961,
          "duration": 0.18292674999999292
        },
        {
          "name": "E3",
          "midi": 52,
          "time": 113.0487314999984,
          "velocity": 0.8740157480314961,
          "duration": 0.18292674999999292
        },
        {
          "name": "D4",
          "midi": 62,
          "time": 113.41458499999838,
          "velocity": 0.8740157480314961,
          "duration": 0.18292674999999292
        },
        {
          "name": "E3",
          "midi": 52,
          "time": 113.41458499999838,
          "velocity": 0.8740157480314961,
          "duration": 0.18292674999999292
        },
        {
          "name": "D4",
          "midi": 62,
          "time": 113.78043849999837,
          "velocity": 0.8740157480314961,
          "duration": 0.18292674999999292
        },
        {
          "name": "E3",
          "midi": 52,
          "time": 113.78043849999837,
          "velocity": 0.8740157480314961,
          "duration": 0.18292674999999292
        },
        {
          "name": "D4",
          "midi": 62,
          "time": 114.14629199999835,
          "velocity": 0.8740157480314961,
          "duration": 0.18292674999999292
        },
        {
          "name": "D3",
          "midi": 50,
          "time": 114.14629199999835,
          "velocity": 0.8740157480314961,
          "duration": 0.18292674999999292
        },
        {
          "name": "D4",
          "midi": 62,
          "time": 114.51214549999834,
          "velocity": 0.8740157480314961,
          "duration": 0.18292674999999292
        },
        {
          "name": "D3",
          "midi": 50,
          "time": 114.51214549999834,
          "velocity": 0.8740157480314961,
          "duration": 0.18292674999999292
        },
        {
          "name": "D4",
          "midi": 62,
          "time": 114.87799899999833,
          "velocity": 0.8740157480314961,
          "duration": 0.18292674999999292
        },
        {
          "name": "D3",
          "midi": 50,
          "time": 114.87799899999833,
          "velocity": 0.8740157480314961,
          "duration": 0.18292674999999292
        },
        {
          "name": "D4",
          "midi": 62,
          "time": 115.24385249999831,
          "velocity": 0.8740157480314961,
          "duration": 0.18292674999999292
        },
        {
          "name": "D3",
          "midi": 50,
          "time": 115.24385249999831,
          "velocity": 0.8740157480314961,
          "duration": 0.18292674999999292
        },
        {
          "name": "D4",
          "midi": 62,
          "time": 115.6097059999983,
          "velocity": 0.8740157480314961,
          "duration": 0.18292674999999292
        },
        {
          "name": "E3",
          "midi": 52,
          "time": 115.6097059999983,
          "velocity": 0.8740157480314961,
          "duration": 0.18292674999999292
        },
        {
          "name": "D4",
          "midi": 62,
          "time": 115.97555949999828,
          "velocity": 0.8740157480314961,
          "duration": 0.18292674999999292
        },
        {
          "name": "E3",
          "midi": 52,
          "time": 115.97555949999828,
          "velocity": 0.8740157480314961,
          "duration": 0.18292674999999292
        },
        {
          "name": "D4",
          "midi": 62,
          "time": 116.34141299999827,
          "velocity": 0.8740157480314961,
          "duration": 0.18292674999999292
        },
        {
          "name": "E3",
          "midi": 52,
          "time": 116.34141299999827,
          "velocity": 0.8740157480314961,
          "duration": 0.18292674999999292
        },
        {
          "name": "D4",
          "midi": 62,
          "time": 116.70726649999825,
          "velocity": 0.8740157480314961,
          "duration": 0.18292674999999292
        },
        {
          "name": "E3",
          "midi": 52,
          "time": 116.70726649999825,
          "velocity": 0.8740157480314961,
          "duration": 0.18292674999999292
        },
        {
          "name": "D4",
          "midi": 62,
          "time": 117.07311999999824,
          "velocity": 0.8740157480314961,
          "duration": 0.18292674999999292
        },
        {
          "name": "D3",
          "midi": 50,
          "time": 117.07311999999824,
          "velocity": 0.8740157480314961,
          "duration": 0.18292674999999292
        },
        {
          "name": "D4",
          "midi": 62,
          "time": 117.43897349999823,
          "velocity": 0.8740157480314961,
          "duration": 0.18292674999999292
        },
        {
          "name": "D3",
          "midi": 50,
          "time": 117.43897349999823,
          "velocity": 0.8740157480314961,
          "duration": 0.18292674999999292
        },
        {
          "name": "D4",
          "midi": 62,
          "time": 117.80482699999821,
          "velocity": 0.8740157480314961,
          "duration": 0.18292674999999292
        },
        {
          "name": "D3",
          "midi": 50,
          "time": 117.80482699999821,
          "velocity": 0.8740157480314961,
          "duration": 0.18292674999999292
        },
        {
          "name": "D4",
          "midi": 62,
          "time": 118.1706804999982,
          "velocity": 0.8740157480314961,
          "duration": 0.18292674999999292
        },
        {
          "name": "D3",
          "midi": 50,
          "time": 118.1706804999982,
          "velocity": 0.8740157480314961,
          "duration": 0.18292674999999292
        },
        {
          "name": "D4",
          "midi": 62,
          "time": 118.53653399999818,
          "velocity": 0.8740157480314961,
          "duration": 0.18292674999999292
        },
        {
          "name": "E3",
          "midi": 52,
          "time": 118.53653399999818,
          "velocity": 0.8740157480314961,
          "duration": 0.18292674999999292
        },
        {
          "name": "D4",
          "midi": 62,
          "time": 118.90238749999817,
          "velocity": 0.8740157480314961,
          "duration": 0.18292674999999292
        },
        {
          "name": "E3",
          "midi": 52,
          "time": 118.90238749999817,
          "velocity": 0.8740157480314961,
          "duration": 0.18292674999999292
        },
        {
          "name": "D4",
          "midi": 62,
          "time": 119.26824099999816,
          "velocity": 0.8740157480314961,
          "duration": 0.18292674999999292
        },
        {
          "name": "E3",
          "midi": 52,
          "time": 119.26824099999816,
          "velocity": 0.8740157480314961,
          "duration": 0.18292674999999292
        },
        {
          "name": "D4",
          "midi": 62,
          "time": 119.63409449999814,
          "velocity": 0.8740157480314961,
          "duration": 0.18292674999999292
        },
        {
          "name": "E3",
          "midi": 52,
          "time": 119.63409449999814,
          "velocity": 0.8740157480314961,
          "duration": 0.18292674999999292
        },
        {
          "name": "F#2",
          "midi": 42,
          "time": 119.99994799999813,
          "velocity": 0.7874015748031497,
          "duration": 0.18292674999999292
        },
        {
          "name": "F#2",
          "midi": 42,
          "time": 120.18287474999812,
          "velocity": 0.7874015748031497,
          "duration": 0.18292674999999292
        },
        {
          "name": "F#2",
          "midi": 42,
          "time": 120.36580149999811,
          "velocity": 0.7874015748031497,
          "duration": 0.18292674999999292
        },
        {
          "name": "F#2",
          "midi": 42,
          "time": 120.5487282499981,
          "velocity": 0.7874015748031497,
          "duration": 0.18292674999999292
        },
        {
          "name": "F#2",
          "midi": 42,
          "time": 120.7316549999981,
          "velocity": 0.7874015748031497,
          "duration": 0.18292674999999292
        },
        {
          "name": "F#2",
          "midi": 42,
          "time": 120.91458174999809,
          "velocity": 0.7874015748031497,
          "duration": 0.18292674999999292
        },
        {
          "name": "G2",
          "midi": 43,
          "time": 121.09750849999809,
          "velocity": 0.7874015748031497,
          "duration": 0.18292674999999292
        },
        {
          "name": "G2",
          "midi": 43,
          "time": 121.28043524999808,
          "velocity": 0.7874015748031497,
          "duration": 0.18292674999999292
        },
        {
          "name": "G2",
          "midi": 43,
          "time": 121.46336199999807,
          "velocity": 0.7874015748031497,
          "duration": 0.18292674999999292
        },
        {
          "name": "G2",
          "midi": 43,
          "time": 121.64628874999806,
          "velocity": 0.7874015748031497,
          "duration": 0.18292674999999292
        },
        {
          "name": "G2",
          "midi": 43,
          "time": 121.82921549999806,
          "velocity": 0.7874015748031497,
          "duration": 0.18292674999999292
        },
        {
          "name": "G2",
          "midi": 43,
          "time": 122.01214224999805,
          "velocity": 0.7874015748031497,
          "duration": 0.18292674999999292
        },
        {
          "name": "G2",
          "midi": 43,
          "time": 122.19506899999804,
          "velocity": 0.7874015748031497,
          "duration": 0.18292674999999292
        },
        {
          "name": "G2",
          "midi": 43,
          "time": 122.37799574999804,
          "velocity": 0.7874015748031497,
          "duration": 0.18292674999999292
        },
        {
          "name": "G2",
          "midi": 43,
          "time": 122.56092249999803,
          "velocity": 0.7874015748031497,
          "duration": 0.18292674999999292
        },
        {
          "name": "G2",
          "midi": 43,
          "time": 122.74384924999802,
          "velocity": 0.7874015748031497,
          "duration": 0.18292674999999292
        },
        {
          "name": "A2",
          "midi": 45,
          "time": 122.92677599999801,
          "velocity": 0.7874015748031497,
          "duration": 0.18292674999999292
        },
        {
          "name": "A2",
          "midi": 45,
          "time": 123.10970274999801,
          "velocity": 0.7874015748031497,
          "duration": 0.18292674999999292
        },
        {
          "name": "A2",
          "midi": 45,
          "time": 123.292629499998,
          "velocity": 0.7874015748031497,
          "duration": 0.18292674999999292
        },
        {
          "name": "A2",
          "midi": 45,
          "time": 123.475556249998,
          "velocity": 0.7874015748031497,
          "duration": 0.18292674999999292
        },
        {
          "name": "A2",
          "midi": 45,
          "time": 123.65848299999799,
          "velocity": 0.7874015748031497,
          "duration": 0.18292674999999292
        },
        {
          "name": "A2",
          "midi": 45,
          "time": 123.84140974999798,
          "velocity": 0.7874015748031497,
          "duration": 0.18292674999999292
        },
        {
          "name": "B2",
          "midi": 47,
          "time": 124.02433649999797,
          "velocity": 0.7874015748031497,
          "duration": 0.18292674999999292
        },
        {
          "name": "B2",
          "midi": 47,
          "time": 124.20726324999796,
          "velocity": 0.7874015748031497,
          "duration": 0.18292674999999292
        },
        {
          "name": "B2",
          "midi": 47,
          "time": 124.39018999999796,
          "velocity": 0.7874015748031497,
          "duration": 0.18292674999999292
        },
        {
          "name": "B2",
          "midi": 47,
          "time": 124.57311674999795,
          "velocity": 0.7874015748031497,
          "duration": 0.18292674999999292
        },
        {
          "name": "B2",
          "midi": 47,
          "time": 124.75604349999794,
          "velocity": 0.7874015748031497,
          "duration": 0.18292674999999292
        },
        {
          "name": "B2",
          "midi": 47,
          "time": 124.93897024999794,
          "velocity": 0.7874015748031497,
          "duration": 0.18292674999999292
        },
        {
          "name": "B2",
          "midi": 47,
          "time": 125.12189699999793,
          "velocity": 0.7874015748031497,
          "duration": 0.18292674999999292
        },
        {
          "name": "B2",
          "midi": 47,
          "time": 125.30482374999792,
          "velocity": 0.7874015748031497,
          "duration": 0.18292674999999292
        },
        {
          "name": "B2",
          "midi": 47,
          "time": 125.48775049999792,
          "velocity": 0.7874015748031497,
          "duration": 0.18292674999999292
        },
        {
          "name": "B2",
          "midi": 47,
          "time": 125.67067724999791,
          "velocity": 0.7874015748031497,
          "duration": 0.18292674999999292
        },
        {
          "name": "C3",
          "midi": 48,
          "time": 125.8536039999979,
          "velocity": 0.7874015748031497,
          "duration": 0.18292674999999292
        },
        {
          "name": "C3",
          "midi": 48,
          "time": 126.0365307499979,
          "velocity": 0.7874015748031497,
          "duration": 0.18292674999999292
        },
        {
          "name": "C3",
          "midi": 48,
          "time": 126.21945749999789,
          "velocity": 0.7874015748031497,
          "duration": 0.18292674999999292
        },
        {
          "name": "C3",
          "midi": 48,
          "time": 126.40238424999788,
          "velocity": 0.7874015748031497,
          "duration": 0.18292674999999292
        },
        {
          "name": "C3",
          "midi": 48,
          "time": 126.58531099999787,
          "velocity": 0.7874015748031497,
          "duration": 0.18292674999999292
        },
        {
          "name": "C3",
          "midi": 48,
          "time": 126.76823774999787,
          "velocity": 0.7874015748031497,
          "duration": 0.18292674999999292
        },
        {
          "name": "B2",
          "midi": 47,
          "time": 126.95116449999786,
          "velocity": 0.7874015748031497,
          "duration": 0.18292674999999292
        },
        {
          "name": "B2",
          "midi": 47,
          "time": 127.13409124999785,
          "velocity": 0.7874015748031497,
          "duration": 0.18292674999999292
        },
        {
          "name": "B2",
          "midi": 47,
          "time": 127.31701799999784,
          "velocity": 0.7874015748031497,
          "duration": 0.18292674999999292
        },
        {
          "name": "B2",
          "midi": 47,
          "time": 127.49994474999784,
          "velocity": 0.7874015748031497,
          "duration": 0.18292674999999292
        },
        {
          "name": "B2",
          "midi": 47,
          "time": 127.68287149999783,
          "velocity": 0.7874015748031497,
          "duration": 0.18292674999999292
        },
        {
          "name": "B2",
          "midi": 47,
          "time": 127.86579824999782,
          "velocity": 0.7874015748031497,
          "duration": 0.18292675000000713
        },
        {
          "name": "B2",
          "midi": 47,
          "time": 128.04872499999783,
          "velocity": 0.7874015748031497,
          "duration": 0.18292675000000713
        },
        {
          "name": "B2",
          "midi": 47,
          "time": 128.23165174999784,
          "velocity": 0.7874015748031497,
          "duration": 0.18292675000000713
        },
        {
          "name": "B2",
          "midi": 47,
          "time": 128.41457849999784,
          "velocity": 0.7874015748031497,
          "duration": 0.18292675000000713
        },
        {
          "name": "B2",
          "midi": 47,
          "time": 128.59750524999785,
          "velocity": 0.7874015748031497,
          "duration": 0.18292675000000713
        },
        {
          "name": "D4",
          "midi": 62,
          "time": 128.78043199999786,
          "velocity": 0.7480314960629921,
          "duration": 2.195121000000057
        },
        {
          "name": "A3",
          "midi": 57,
          "time": 128.78043199999786,
          "velocity": 0.7480314960629921,
          "duration": 2.195121000000057
        },
        {
          "name": "D3",
          "midi": 50,
          "time": 128.78043199999786,
          "velocity": 0.7480314960629921,
          "duration": 2.195121000000057
        },
        {
          "name": "G2",
          "midi": 43,
          "time": 128.78043199999786,
          "velocity": 0.7480314960629921,
          "duration": 2.195121000000057
        },
        {
          "name": "D4",
          "midi": 62,
          "time": 130.97555299999792,
          "velocity": 0.7480314960629921,
          "duration": 0.18292675000000713
        },
        {
          "name": "A3",
          "midi": 57,
          "time": 130.97555299999792,
          "velocity": 0.7480314960629921,
          "duration": 0.18292675000000713
        },
        {
          "name": "D3",
          "midi": 50,
          "time": 130.97555299999792,
          "velocity": 0.7480314960629921,
          "duration": 0.18292675000000713
        },
        {
          "name": "G2",
          "midi": 43,
          "time": 130.97555299999792,
          "velocity": 0.7480314960629921,
          "duration": 0.18292675000000713
        },
        {
          "name": "D3",
          "midi": 50,
          "time": 131.70725999999792,
          "velocity": 0.8740157480314961,
          "duration": 0.18292675000000713
        },
        {
          "name": "A2",
          "midi": 45,
          "time": 131.70725999999792,
          "velocity": 0.8740157480314961,
          "duration": 0.18292675000000713
        },
        {
          "name": "D2",
          "midi": 38,
          "time": 131.70725999999792,
          "velocity": 0.8740157480314961,
          "duration": 0.18292675000000713
        },
        {
          "name": "D3",
          "midi": 50,
          "time": 131.89018674999792,
          "velocity": 0.8740157480314961,
          "duration": 0.18292675000000713
        },
        {
          "name": "A2",
          "midi": 45,
          "time": 131.89018674999792,
          "velocity": 0.8740157480314961,
          "duration": 0.18292675000000713
        },
        {
          "name": "D2",
          "midi": 38,
          "time": 131.89018674999792,
          "velocity": 0.8740157480314961,
          "duration": 0.18292675000000713
        },
        {
          "name": "D3",
          "midi": 50,
          "time": 132.07311349999793,
          "velocity": 0.8740157480314961,
          "duration": 0.18292675000000713
        },
        {
          "name": "A2",
          "midi": 45,
          "time": 132.07311349999793,
          "velocity": 0.8740157480314961,
          "duration": 0.18292675000000713
        },
        {
          "name": "D2",
          "midi": 38,
          "time": 132.07311349999793,
          "velocity": 0.8740157480314961,
          "duration": 0.18292675000000713
        },
        {
          "name": "D3",
          "midi": 50,
          "time": 132.25604024999794,
          "velocity": 0.8740157480314961,
          "duration": 0.18292675000000713
        },
        {
          "name": "A2",
          "midi": 45,
          "time": 132.25604024999794,
          "velocity": 0.8740157480314961,
          "duration": 0.18292675000000713
        },
        {
          "name": "D2",
          "midi": 38,
          "time": 132.25604024999794,
          "velocity": 0.8740157480314961,
          "duration": 0.18292675000000713
        },
        {
          "name": "D3",
          "midi": 50,
          "time": 132.43896699999794,
          "velocity": 0.8740157480314961,
          "duration": 0.18292675000000713
        },
        {
          "name": "A2",
          "midi": 45,
          "time": 132.43896699999794,
          "velocity": 0.8740157480314961,
          "duration": 0.18292675000000713
        },
        {
          "name": "D2",
          "midi": 38,
          "time": 132.43896699999794,
          "velocity": 0.8740157480314961,
          "duration": 0.18292675000000713
        },
        {
          "name": "D3",
          "midi": 50,
          "time": 132.62189374999795,
          "velocity": 0.8740157480314961,
          "duration": 0.18292675000000713
        },
        {
          "name": "A2",
          "midi": 45,
          "time": 132.62189374999795,
          "velocity": 0.8740157480314961,
          "duration": 0.18292675000000713
        },
        {
          "name": "D2",
          "midi": 38,
          "time": 132.62189374999795,
          "velocity": 0.8740157480314961,
          "duration": 0.18292675000000713
        },
        {
          "name": "D3",
          "midi": 50,
          "time": 132.80482049999796,
          "velocity": 0.8740157480314961,
          "duration": 0.18292675000000713
        },
        {
          "name": "A2",
          "midi": 45,
          "time": 132.80482049999796,
          "velocity": 0.8740157480314961,
          "duration": 0.18292675000000713
        },
        {
          "name": "D2",
          "midi": 38,
          "time": 132.80482049999796,
          "velocity": 0.8740157480314961,
          "duration": 0.18292675000000713
        },
        {
          "name": "D3",
          "midi": 50,
          "time": 132.98774724999797,
          "velocity": 0.8740157480314961,
          "duration": 0.18292675000000713
        },
        {
          "name": "A2",
          "midi": 45,
          "time": 132.98774724999797,
          "velocity": 0.8740157480314961,
          "duration": 0.18292675000000713
        },
        {
          "name": "D2",
          "midi": 38,
          "time": 132.98774724999797,
          "velocity": 0.8740157480314961,
          "duration": 0.18292675000000713
        },
        {
          "name": "D3",
          "midi": 50,
          "time": 133.17067399999797,
          "velocity": 0.8740157480314961,
          "duration": 0.18292675000000713
        },
        {
          "name": "A2",
          "midi": 45,
          "time": 133.17067399999797,
          "velocity": 0.8740157480314961,
          "duration": 0.18292675000000713
        },
        {
          "name": "D2",
          "midi": 38,
          "time": 133.17067399999797,
          "velocity": 0.8740157480314961,
          "duration": 0.18292675000000713
        },
        {
          "name": "D3",
          "midi": 50,
          "time": 133.35360074999798,
          "velocity": 0.8740157480314961,
          "duration": 0.18292675000000713
        },
        {
          "name": "A2",
          "midi": 45,
          "time": 133.35360074999798,
          "velocity": 0.8740157480314961,
          "duration": 0.18292675000000713
        },
        {
          "name": "D2",
          "midi": 38,
          "time": 133.35360074999798,
          "velocity": 0.8740157480314961,
          "duration": 0.18292675000000713
        },
        {
          "name": "D3",
          "midi": 50,
          "time": 133.536527499998,
          "velocity": 0.8740157480314961,
          "duration": 0.18292675000000713
        },
        {
          "name": "A2",
          "midi": 45,
          "time": 133.536527499998,
          "velocity": 0.8740157480314961,
          "duration": 0.18292675000000713
        },
        {
          "name": "D2",
          "midi": 38,
          "time": 133.536527499998,
          "velocity": 0.8740157480314961,
          "duration": 0.18292675000000713
        },
        {
          "name": "D3",
          "midi": 50,
          "time": 133.719454249998,
          "velocity": 0.8740157480314961,
          "duration": 0.18292675000000713
        },
        {
          "name": "A2",
          "midi": 45,
          "time": 133.719454249998,
          "velocity": 0.8740157480314961,
          "duration": 0.18292675000000713
        },
        {
          "name": "D2",
          "midi": 38,
          "time": 133.719454249998,
          "velocity": 0.8740157480314961,
          "duration": 0.18292675000000713
        },
        {
          "name": "D3",
          "midi": 50,
          "time": 133.902380999998,
          "velocity": 0.8740157480314961,
          "duration": 0.18292675000000713
        },
        {
          "name": "A2",
          "midi": 45,
          "time": 133.902380999998,
          "velocity": 0.8740157480314961,
          "duration": 0.18292675000000713
        },
        {
          "name": "D2",
          "midi": 38,
          "time": 133.902380999998,
          "velocity": 0.8740157480314961,
          "duration": 0.18292675000000713
        },
        {
          "name": "D3",
          "midi": 50,
          "time": 134.085307749998,
          "velocity": 0.8740157480314961,
          "duration": 0.18292675000000713
        },
        {
          "name": "A2",
          "midi": 45,
          "time": 134.085307749998,
          "velocity": 0.8740157480314961,
          "duration": 0.18292675000000713
        },
        {
          "name": "D2",
          "midi": 38,
          "time": 134.085307749998,
          "velocity": 0.8740157480314961,
          "duration": 0.18292675000000713
        },
        {
          "name": "D3",
          "midi": 50,
          "time": 134.26823449999802,
          "velocity": 0.8740157480314961,
          "duration": 0.18292675000000713
        },
        {
          "name": "A2",
          "midi": 45,
          "time": 134.26823449999802,
          "velocity": 0.8740157480314961,
          "duration": 0.18292675000000713
        },
        {
          "name": "D2",
          "midi": 38,
          "time": 134.26823449999802,
          "velocity": 0.8740157480314961,
          "duration": 0.18292675000000713
        },
        {
          "name": "D3",
          "midi": 50,
          "time": 134.45116124999802,
          "velocity": 0.8740157480314961,
          "duration": 0.18292675000000713
        },
        {
          "name": "A2",
          "midi": 45,
          "time": 134.45116124999802,
          "velocity": 0.8740157480314961,
          "duration": 0.18292675000000713
        },
        {
          "name": "D2",
          "midi": 38,
          "time": 134.45116124999802,
          "velocity": 0.8740157480314961,
          "duration": 0.18292675000000713
        },
        {
          "name": "G3",
          "midi": 55,
          "time": 134.63408799999803,
          "velocity": 0.8740157480314961,
          "duration": 0.18292675000000713
        },
        {
          "name": "D3",
          "midi": 50,
          "time": 134.63408799999803,
          "velocity": 0.8740157480314961,
          "duration": 0.18292675000000713
        },
        {
          "name": "G2",
          "midi": 43,
          "time": 134.63408799999803,
          "velocity": 0.8740157480314961,
          "duration": 0.18292675000000713
        },
        {
          "name": "G3",
          "midi": 55,
          "time": 134.81701474999804,
          "velocity": 0.8740157480314961,
          "duration": 0.18292675000000713
        },
        {
          "name": "D3",
          "midi": 50,
          "time": 134.81701474999804,
          "velocity": 0.8740157480314961,
          "duration": 0.18292675000000713
        },
        {
          "name": "G2",
          "midi": 43,
          "time": 134.81701474999804,
          "velocity": 0.8740157480314961,
          "duration": 0.18292675000000713
        },
        {
          "name": "G3",
          "midi": 55,
          "time": 134.99994149999804,
          "velocity": 0.8740157480314961,
          "duration": 0.18292675000000713
        },
        {
          "name": "D3",
          "midi": 50,
          "time": 134.99994149999804,
          "velocity": 0.8740157480314961,
          "duration": 0.18292675000000713
        },
        {
          "name": "G2",
          "midi": 43,
          "time": 134.99994149999804,
          "velocity": 0.8740157480314961,
          "duration": 0.18292675000000713
        },
        {
          "name": "G3",
          "midi": 55,
          "time": 135.18286824999805,
          "velocity": 0.8740157480314961,
          "duration": 0.18292675000000713
        },
        {
          "name": "D3",
          "midi": 50,
          "time": 135.18286824999805,
          "velocity": 0.8740157480314961,
          "duration": 0.18292675000000713
        },
        {
          "name": "G2",
          "midi": 43,
          "time": 135.18286824999805,
          "velocity": 0.8740157480314961,
          "duration": 0.18292675000000713
        },
        {
          "name": "G3",
          "midi": 55,
          "time": 135.36579499999806,
          "velocity": 0.8740157480314961,
          "duration": 0.18292675000000713
        },
        {
          "name": "D3",
          "midi": 50,
          "time": 135.36579499999806,
          "velocity": 0.8740157480314961,
          "duration": 0.18292675000000713
        },
        {
          "name": "G2",
          "midi": 43,
          "time": 135.36579499999806,
          "velocity": 0.8740157480314961,
          "duration": 0.18292675000000713
        },
        {
          "name": "G3",
          "midi": 55,
          "time": 135.54872174999807,
          "velocity": 0.8740157480314961,
          "duration": 0.18292675000000713
        },
        {
          "name": "D3",
          "midi": 50,
          "time": 135.54872174999807,
          "velocity": 0.8740157480314961,
          "duration": 0.18292675000000713
        },
        {
          "name": "G2",
          "midi": 43,
          "time": 135.54872174999807,
          "velocity": 0.8740157480314961,
          "duration": 0.18292675000000713
        },
        {
          "name": "G3",
          "midi": 55,
          "time": 135.73164849999807,
          "velocity": 0.8740157480314961,
          "duration": 0.18292675000000713
        },
        {
          "name": "D3",
          "midi": 50,
          "time": 135.73164849999807,
          "velocity": 0.8740157480314961,
          "duration": 0.18292675000000713
        },
        {
          "name": "G2",
          "midi": 43,
          "time": 135.73164849999807,
          "velocity": 0.8740157480314961,
          "duration": 0.18292675000000713
        },
        {
          "name": "G3",
          "midi": 55,
          "time": 135.91457524999808,
          "velocity": 0.8740157480314961,
          "duration": 0.18292675000000713
        },
        {
          "name": "D3",
          "midi": 50,
          "time": 135.91457524999808,
          "velocity": 0.8740157480314961,
          "duration": 0.18292675000000713
        },
        {
          "name": "G2",
          "midi": 43,
          "time": 135.91457524999808,
          "velocity": 0.8740157480314961,
          "duration": 0.18292675000000713
        },
        {
          "name": "G3",
          "midi": 55,
          "time": 136.0975019999981,
          "velocity": 0.8740157480314961,
          "duration": 0.18292675000000713
        },
        {
          "name": "D3",
          "midi": 50,
          "time": 136.0975019999981,
          "velocity": 0.8740157480314961,
          "duration": 0.18292675000000713
        },
        {
          "name": "G2",
          "midi": 43,
          "time": 136.0975019999981,
          "velocity": 0.8740157480314961,
          "duration": 0.18292675000000713
        },
        {
          "name": "G3",
          "midi": 55,
          "time": 136.2804287499981,
          "velocity": 0.8740157480314961,
          "duration": 0.18292675000000713
        },
        {
          "name": "D3",
          "midi": 50,
          "time": 136.2804287499981,
          "velocity": 0.8740157480314961,
          "duration": 0.18292675000000713
        },
        {
          "name": "G2",
          "midi": 43,
          "time": 136.2804287499981,
          "velocity": 0.8740157480314961,
          "duration": 0.18292675000000713
        },
        {
          "name": "G3",
          "midi": 55,
          "time": 136.4633554999981,
          "velocity": 0.8740157480314961,
          "duration": 0.18292675000000713
        },
        {
          "name": "D3",
          "midi": 50,
          "time": 136.4633554999981,
          "velocity": 0.8740157480314961,
          "duration": 0.18292675000000713
        },
        {
          "name": "G2",
          "midi": 43,
          "time": 136.4633554999981,
          "velocity": 0.8740157480314961,
          "duration": 0.18292675000000713
        },
        {
          "name": "G3",
          "midi": 55,
          "time": 136.6462822499981,
          "velocity": 0.8740157480314961,
          "duration": 0.18292675000000713
        },
        {
          "name": "D3",
          "midi": 50,
          "time": 136.6462822499981,
          "velocity": 0.8740157480314961,
          "duration": 0.18292675000000713
        },
        {
          "name": "G2",
          "midi": 43,
          "time": 136.6462822499981,
          "velocity": 0.8740157480314961,
          "duration": 0.18292675000000713
        },
        {
          "name": "G3",
          "midi": 55,
          "time": 136.82920899999812,
          "velocity": 0.8740157480314961,
          "duration": 0.18292675000000713
        },
        {
          "name": "D3",
          "midi": 50,
          "time": 136.82920899999812,
          "velocity": 0.8740157480314961,
          "duration": 0.18292675000000713
        },
        {
          "name": "G2",
          "midi": 43,
          "time": 136.82920899999812,
          "velocity": 0.8740157480314961,
          "duration": 0.18292675000000713
        },
        {
          "name": "G3",
          "midi": 55,
          "time": 137.01213574999812,
          "velocity": 0.8740157480314961,
          "duration": 0.18292675000000713
        },
        {
          "name": "D3",
          "midi": 50,
          "time": 137.01213574999812,
          "velocity": 0.8740157480314961,
          "duration": 0.18292675000000713
        },
        {
          "name": "G2",
          "midi": 43,
          "time": 137.01213574999812,
          "velocity": 0.8740157480314961,
          "duration": 0.18292675000000713
        },
        {
          "name": "G3",
          "midi": 55,
          "time": 137.19506249999813,
          "velocity": 0.8740157480314961,
          "duration": 0.18292675000000713
        },
        {
          "name": "D3",
          "midi": 50,
          "time": 137.19506249999813,
          "velocity": 0.8740157480314961,
          "duration": 0.18292675000000713
        },
        {
          "name": "G2",
          "midi": 43,
          "time": 137.19506249999813,
          "velocity": 0.8740157480314961,
          "duration": 0.18292675000000713
        },
        {
          "name": "D3",
          "midi": 50,
          "time": 137.37798924999814,
          "velocity": 0.8740157480314961,
          "duration": 0.18292675000000713
        },
        {
          "name": "A2",
          "midi": 45,
          "time": 137.37798924999814,
          "velocity": 0.8740157480314961,
          "duration": 0.18292675000000713
        },
        {
          "name": "D2",
          "midi": 38,
          "time": 137.37798924999814,
          "velocity": 0.8740157480314961,
          "duration": 0.18292675000000713
        },
        {
          "name": "B3",
          "midi": 59,
          "time": 137.56091599999814,
          "velocity": 0.8740157480314961,
          "duration": 0.18292675000000713
        },
        {
          "name": "F#3",
          "midi": 54,
          "time": 137.56091599999814,
          "velocity": 0.8740157480314961,
          "duration": 0.18292675000000713
        },
        {
          "name": "B2",
          "midi": 47,
          "time": 137.56091599999814,
          "velocity": 0.8740157480314961,
          "duration": 0.18292675000000713
        },
        {
          "name": "B3",
          "midi": 59,
          "time": 137.74384274999815,
          "velocity": 0.8740157480314961,
          "duration": 0.18292675000000713
        },
        {
          "name": "F#3",
          "midi": 54,
          "time": 137.74384274999815,
          "velocity": 0.8740157480314961,
          "duration": 0.18292675000000713
        },
        {
          "name": "B2",
          "midi": 47,
          "time": 137.74384274999815,
          "velocity": 0.8740157480314961,
          "duration": 0.18292675000000713
        },
        {
          "name": "B3",
          "midi": 59,
          "time": 137.92676949999816,
          "velocity": 0.8740157480314961,
          "duration": 0.18292675000000713
        },
        {
          "name": "F#3",
          "midi": 54,
          "time": 137.92676949999816,
          "velocity": 0.8740157480314961,
          "duration": 0.18292675000000713
        },
        {
          "name": "B2",
          "midi": 47,
          "time": 137.92676949999816,
          "velocity": 0.8740157480314961,
          "duration": 0.18292675000000713
        },
        {
          "name": "B3",
          "midi": 59,
          "time": 138.10969624999817,
          "velocity": 0.8740157480314961,
          "duration": 0.18292675000000713
        },
        {
          "name": "F#3",
          "midi": 54,
          "time": 138.10969624999817,
          "velocity": 0.8740157480314961,
          "duration": 0.18292675000000713
        },
        {
          "name": "B2",
          "midi": 47,
          "time": 138.10969624999817,
          "velocity": 0.8740157480314961,
          "duration": 0.18292675000000713
        },
        {
          "name": "B3",
          "midi": 59,
          "time": 138.29262299999817,
          "velocity": 0.8740157480314961,
          "duration": 0.18292675000000713
        },
        {
          "name": "F#3",
          "midi": 54,
          "time": 138.29262299999817,
          "velocity": 0.8740157480314961,
          "duration": 0.18292675000000713
        },
        {
          "name": "B2",
          "midi": 47,
          "time": 138.29262299999817,
          "velocity": 0.8740157480314961,
          "duration": 0.18292675000000713
        },
        {
          "name": "B3",
          "midi": 59,
          "time": 138.47554974999818,
          "velocity": 0.8740157480314961,
          "duration": 0.18292675000000713
        },
        {
          "name": "F#3",
          "midi": 54,
          "time": 138.47554974999818,
          "velocity": 0.8740157480314961,
          "duration": 0.18292675000000713
        },
        {
          "name": "B2",
          "midi": 47,
          "time": 138.47554974999818,
          "velocity": 0.8740157480314961,
          "duration": 0.18292675000000713
        },
        {
          "name": "B3",
          "midi": 59,
          "time": 138.6584764999982,
          "velocity": 0.8740157480314961,
          "duration": 0.18292675000000713
        },
        {
          "name": "F#3",
          "midi": 54,
          "time": 138.6584764999982,
          "velocity": 0.8740157480314961,
          "duration": 0.18292675000000713
        },
        {
          "name": "B2",
          "midi": 47,
          "time": 138.6584764999982,
          "velocity": 0.8740157480314961,
          "duration": 0.18292675000000713
        },
        {
          "name": "B3",
          "midi": 59,
          "time": 138.8414032499982,
          "velocity": 0.8740157480314961,
          "duration": 0.18292675000000713
        },
        {
          "name": "F#3",
          "midi": 54,
          "time": 138.8414032499982,
          "velocity": 0.8740157480314961,
          "duration": 0.18292675000000713
        },
        {
          "name": "B2",
          "midi": 47,
          "time": 138.8414032499982,
          "velocity": 0.8740157480314961,
          "duration": 0.18292675000000713
        },
        {
          "name": "B3",
          "midi": 59,
          "time": 139.0243299999982,
          "velocity": 0.8740157480314961,
          "duration": 0.18292675000000713
        },
        {
          "name": "F#3",
          "midi": 54,
          "time": 139.0243299999982,
          "velocity": 0.8740157480314961,
          "duration": 0.18292675000000713
        },
        {
          "name": "B2",
          "midi": 47,
          "time": 139.0243299999982,
          "velocity": 0.8740157480314961,
          "duration": 0.18292675000000713
        },
        {
          "name": "B3",
          "midi": 59,
          "time": 139.2072567499982,
          "velocity": 0.8740157480314961,
          "duration": 0.18292675000000713
        },
        {
          "name": "F#3",
          "midi": 54,
          "time": 139.2072567499982,
          "velocity": 0.8740157480314961,
          "duration": 0.18292675000000713
        },
        {
          "name": "B2",
          "midi": 47,
          "time": 139.2072567499982,
          "velocity": 0.8740157480314961,
          "duration": 0.18292675000000713
        },
        {
          "name": "B3",
          "midi": 59,
          "time": 139.39018349999822,
          "velocity": 0.8740157480314961,
          "duration": 0.18292675000000713
        },
        {
          "name": "F#3",
          "midi": 54,
          "time": 139.39018349999822,
          "velocity": 0.8740157480314961,
          "duration": 0.18292675000000713
        },
        {
          "name": "B2",
          "midi": 47,
          "time": 139.39018349999822,
          "velocity": 0.8740157480314961,
          "duration": 0.18292675000000713
        },
        {
          "name": "B3",
          "midi": 59,
          "time": 139.57311024999822,
          "velocity": 0.8740157480314961,
          "duration": 0.18292675000000713
        },
        {
          "name": "F#3",
          "midi": 54,
          "time": 139.57311024999822,
          "velocity": 0.8740157480314961,
          "duration": 0.18292675000000713
        },
        {
          "name": "B2",
          "midi": 47,
          "time": 139.57311024999822,
          "velocity": 0.8740157480314961,
          "duration": 0.18292675000000713
        },
        {
          "name": "B3",
          "midi": 59,
          "time": 139.75603699999823,
          "velocity": 0.8740157480314961,
          "duration": 0.18292675000000713
        },
        {
          "name": "F#3",
          "midi": 54,
          "time": 139.75603699999823,
          "velocity": 0.8740157480314961,
          "duration": 0.18292675000000713
        },
        {
          "name": "B2",
          "midi": 47,
          "time": 139.75603699999823,
          "velocity": 0.8740157480314961,
          "duration": 0.18292675000000713
        },
        {
          "name": "B3",
          "midi": 59,
          "time": 139.93896374999824,
          "velocity": 0.8740157480314961,
          "duration": 0.18292675000000713
        },
        {
          "name": "F#3",
          "midi": 54,
          "time": 139.93896374999824,
          "velocity": 0.8740157480314961,
          "duration": 0.18292675000000713
        },
        {
          "name": "B2",
          "midi": 47,
          "time": 139.93896374999824,
          "velocity": 0.8740157480314961,
          "duration": 0.18292675000000713
        },
        {
          "name": "B3",
          "midi": 59,
          "time": 140.12189049999824,
          "velocity": 0.8740157480314961,
          "duration": 0.18292675000000713
        },
        {
          "name": "F#3",
          "midi": 54,
          "time": 140.12189049999824,
          "velocity": 0.8740157480314961,
          "duration": 0.18292675000000713
        },
        {
          "name": "B2",
          "midi": 47,
          "time": 140.12189049999824,
          "velocity": 0.8740157480314961,
          "duration": 0.18292675000000713
        },
        {
          "name": "D3",
          "midi": 50,
          "time": 140.30481724999825,
          "velocity": 0.8740157480314961,
          "duration": 0.18292675000000713
        },
        {
          "name": "A2",
          "midi": 45,
          "time": 140.30481724999825,
          "velocity": 0.8740157480314961,
          "duration": 0.18292675000000713
        },
        {
          "name": "D2",
          "midi": 38,
          "time": 140.30481724999825,
          "velocity": 0.8740157480314961,
          "duration": 0.18292675000000713
        },
        {
          "name": "G3",
          "midi": 55,
          "time": 140.48774399999826,
          "velocity": 0.8740157480314961,
          "duration": 0.18292675000000713
        },
        {
          "name": "D3",
          "midi": 50,
          "time": 140.48774399999826,
          "velocity": 0.8740157480314961,
          "duration": 0.18292675000000713
        },
        {
          "name": "G2",
          "midi": 43,
          "time": 140.48774399999826,
          "velocity": 0.8740157480314961,
          "duration": 0.18292675000000713
        },
        {
          "name": "G3",
          "midi": 55,
          "time": 140.67067074999827,
          "velocity": 0.8740157480314961,
          "duration": 0.18292675000000713
        },
        {
          "name": "D3",
          "midi": 50,
          "time": 140.67067074999827,
          "velocity": 0.8740157480314961,
          "duration": 0.18292675000000713
        },
        {
          "name": "G2",
          "midi": 43,
          "time": 140.67067074999827,
          "velocity": 0.8740157480314961,
          "duration": 0.18292675000000713
        },
        {
          "name": "G3",
          "midi": 55,
          "time": 140.85359749999827,
          "velocity": 0.8740157480314961,
          "duration": 0.18292675000000713
        },
        {
          "name": "D3",
          "midi": 50,
          "time": 140.85359749999827,
          "velocity": 0.8740157480314961,
          "duration": 0.18292675000000713
        },
        {
          "name": "G2",
          "midi": 43,
          "time": 140.85359749999827,
          "velocity": 0.8740157480314961,
          "duration": 0.18292675000000713
        },
        {
          "name": "G3",
          "midi": 55,
          "time": 141.03652424999828,
          "velocity": 0.8740157480314961,
          "duration": 0.18292675000000713
        },
        {
          "name": "D3",
          "midi": 50,
          "time": 141.03652424999828,
          "velocity": 0.8740157480314961,
          "duration": 0.18292675000000713
        },
        {
          "name": "G2",
          "midi": 43,
          "time": 141.03652424999828,
          "velocity": 0.8740157480314961,
          "duration": 0.18292675000000713
        },
        {
          "name": "G3",
          "midi": 55,
          "time": 141.2194509999983,
          "velocity": 0.8740157480314961,
          "duration": 0.18292675000000713
        },
        {
          "name": "D3",
          "midi": 50,
          "time": 141.2194509999983,
          "velocity": 0.8740157480314961,
          "duration": 0.18292675000000713
        },
        {
          "name": "G2",
          "midi": 43,
          "time": 141.2194509999983,
          "velocity": 0.8740157480314961,
          "duration": 0.18292675000000713
        },
        {
          "name": "G3",
          "midi": 55,
          "time": 141.4023777499983,
          "velocity": 0.8740157480314961,
          "duration": 0.18292675000000713
        },
        {
          "name": "D3",
          "midi": 50,
          "time": 141.4023777499983,
          "velocity": 0.8740157480314961,
          "duration": 0.18292675000000713
        },
        {
          "name": "G2",
          "midi": 43,
          "time": 141.4023777499983,
          "velocity": 0.8740157480314961,
          "duration": 0.18292675000000713
        },
        {
          "name": "G3",
          "midi": 55,
          "time": 141.5853044999983,
          "velocity": 0.8740157480314961,
          "duration": 0.18292675000000713
        },
        {
          "name": "D3",
          "midi": 50,
          "time": 141.5853044999983,
          "velocity": 0.8740157480314961,
          "duration": 0.18292675000000713
        },
        {
          "name": "G2",
          "midi": 43,
          "time": 141.5853044999983,
          "velocity": 0.8740157480314961,
          "duration": 0.18292675000000713
        },
        {
          "name": "G3",
          "midi": 55,
          "time": 141.7682312499983,
          "velocity": 0.8740157480314961,
          "duration": 0.18292675000000713
        },
        {
          "name": "D3",
          "midi": 50,
          "time": 141.7682312499983,
          "velocity": 0.8740157480314961,
          "duration": 0.18292675000000713
        },
        {
          "name": "G2",
          "midi": 43,
          "time": 141.7682312499983,
          "velocity": 0.8740157480314961,
          "duration": 0.18292675000000713
        },
        {
          "name": "G3",
          "midi": 55,
          "time": 141.95115799999832,
          "velocity": 0.8740157480314961,
          "duration": 0.18292675000000713
        },
        {
          "name": "D3",
          "midi": 50,
          "time": 141.95115799999832,
          "velocity": 0.8740157480314961,
          "duration": 0.18292675000000713
        },
        {
          "name": "G2",
          "midi": 43,
          "time": 141.95115799999832,
          "velocity": 0.8740157480314961,
          "duration": 0.18292675000000713
        },
        {
          "name": "G3",
          "midi": 55,
          "time": 142.13408474999832,
          "velocity": 0.8740157480314961,
          "duration": 0.18292675000000713
        },
        {
          "name": "D3",
          "midi": 50,
          "time": 142.13408474999832,
          "velocity": 0.8740157480314961,
          "duration": 0.18292675000000713
        },
        {
          "name": "G2",
          "midi": 43,
          "time": 142.13408474999832,
          "velocity": 0.8740157480314961,
          "duration": 0.18292675000000713
        },
        {
          "name": "G3",
          "midi": 55,
          "time": 142.31701149999833,
          "velocity": 0.8740157480314961,
          "duration": 0.18292675000000713
        },
        {
          "name": "D3",
          "midi": 50,
          "time": 142.31701149999833,
          "velocity": 0.8740157480314961,
          "duration": 0.18292675000000713
        },
        {
          "name": "G2",
          "midi": 43,
          "time": 142.31701149999833,
          "velocity": 0.8740157480314961,
          "duration": 0.18292675000000713
        },
        {
          "name": "G3",
          "midi": 55,
          "time": 142.49993824999834,
          "velocity": 0.8740157480314961,
          "duration": 0.18292675000000713
        },
        {
          "name": "D3",
          "midi": 50,
          "time": 142.49993824999834,
          "velocity": 0.8740157480314961,
          "duration": 0.18292675000000713
        },
        {
          "name": "G2",
          "midi": 43,
          "time": 142.49993824999834,
          "velocity": 0.8740157480314961,
          "duration": 0.18292675000000713
        },
        {
          "name": "A2",
          "midi": 45,
          "time": 142.68286499999834,
          "velocity": 0.8740157480314961,
          "duration": 0.030487791666672592
        },
        {
          "name": "D2",
          "midi": 38,
          "time": 142.68286499999834,
          "velocity": 0.8740157480314961,
          "duration": 0.030487791666672592
        },
        {
          "name": "A2",
          "midi": 45,
          "time": 142.86579174999835,
          "velocity": 0.8740157480314961,
          "duration": 0.030487791666672592
        },
        {
          "name": "D2",
          "midi": 38,
          "time": 142.86579174999835,
          "velocity": 0.8740157480314961,
          "duration": 0.030487791666672592
        },
        {
          "name": "A2",
          "midi": 45,
          "time": 143.04871849999836,
          "velocity": 0.8740157480314961,
          "duration": 0.030487791666672592
        },
        {
          "name": "D2",
          "midi": 38,
          "time": 143.04871849999836,
          "velocity": 0.8740157480314961,
          "duration": 0.030487791666672592
        },
        {
          "name": "D3",
          "midi": 50,
          "time": 143.23164524999837,
          "velocity": 0.8740157480314961,
          "duration": 0.030487791666672592
        },
        {
          "name": "A2",
          "midi": 45,
          "time": 143.23164524999837,
          "velocity": 0.8740157480314961,
          "duration": 0.030487791666672592
        },
        {
          "name": "D2",
          "midi": 38,
          "time": 143.23164524999837,
          "velocity": 0.8740157480314961,
          "duration": 0.030487791666672592
        },
        {
          "name": "D3",
          "midi": 50,
          "time": 143.41457199999837,
          "velocity": 0.8740157480314961,
          "duration": 0.18292675000000713
        },
        {
          "name": "A2",
          "midi": 45,
          "time": 143.41457199999837,
          "velocity": 0.8740157480314961,
          "duration": 0.18292675000000713
        },
        {
          "name": "D2",
          "midi": 38,
          "time": 143.41457199999837,
          "velocity": 0.8740157480314961,
          "duration": 0.18292675000000713
        },
        {
          "name": "D3",
          "midi": 50,
          "time": 143.59749874999838,
          "velocity": 0.8740157480314961,
          "duration": 0.18292675000000713
        },
        {
          "name": "A2",
          "midi": 45,
          "time": 143.59749874999838,
          "velocity": 0.8740157480314961,
          "duration": 0.18292675000000713
        },
        {
          "name": "D2",
          "midi": 38,
          "time": 143.59749874999838,
          "velocity": 0.8740157480314961,
          "duration": 0.18292675000000713
        },
        {
          "name": "D3",
          "midi": 50,
          "time": 143.7804254999984,
          "velocity": 0.8740157480314961,
          "duration": 0.18292675000000713
        },
        {
          "name": "A2",
          "midi": 45,
          "time": 143.7804254999984,
          "velocity": 0.8740157480314961,
          "duration": 0.18292675000000713
        },
        {
          "name": "D2",
          "midi": 38,
          "time": 143.7804254999984,
          "velocity": 0.8740157480314961,
          "duration": 0.18292675000000713
        },
        {
          "name": "D3",
          "midi": 50,
          "time": 143.9633522499984,
          "velocity": 0.8740157480314961,
          "duration": 0.18292675000000713
        },
        {
          "name": "A2",
          "midi": 45,
          "time": 143.9633522499984,
          "velocity": 0.8740157480314961,
          "duration": 0.18292675000000713
        },
        {
          "name": "D2",
          "midi": 38,
          "time": 143.9633522499984,
          "velocity": 0.8740157480314961,
          "duration": 0.18292675000000713
        },
        {
          "name": "D4",
          "midi": 62,
          "time": 144.1462789999984,
          "velocity": 0.8740157480314961,
          "duration": 0.18292675000000713
        },
        {
          "name": "D3",
          "midi": 50,
          "time": 144.1462789999984,
          "velocity": 0.8740157480314961,
          "duration": 0.18292675000000713
        },
        {
          "name": "D4",
          "midi": 62,
          "time": 144.3292057499984,
          "velocity": 0.8740157480314961,
          "duration": 0.18292675000000713
        },
        {
          "name": "D3",
          "midi": 50,
          "time": 144.3292057499984,
          "velocity": 0.8740157480314961,
          "duration": 0.18292675000000713
        },
        {
          "name": "D4",
          "midi": 62,
          "time": 144.51213249999842,
          "velocity": 0.8740157480314961,
          "duration": 0.18292675000000713
        },
        {
          "name": "D3",
          "midi": 50,
          "time": 144.51213249999842,
          "velocity": 0.8740157480314961,
          "duration": 0.18292675000000713
        },
        {
          "name": "D4",
          "midi": 62,
          "time": 144.69505924999842,
          "velocity": 0.8740157480314961,
          "duration": 0.18292675000000713
        },
        {
          "name": "D3",
          "midi": 50,
          "time": 144.69505924999842,
          "velocity": 0.8740157480314961,
          "duration": 0.18292675000000713
        },
        {
          "name": "D3",
          "midi": 50,
          "time": 144.87798599999843,
          "velocity": 0.8740157480314961,
          "duration": 0.18292675000000713
        },
        {
          "name": "A2",
          "midi": 45,
          "time": 144.87798599999843,
          "velocity": 0.8740157480314961,
          "duration": 0.18292675000000713
        },
        {
          "name": "D2",
          "midi": 38,
          "time": 144.87798599999843,
          "velocity": 0.8740157480314961,
          "duration": 0.18292675000000713
        },
        {
          "name": "D3",
          "midi": 50,
          "time": 145.06091274999844,
          "velocity": 0.8740157480314961,
          "duration": 0.18292675000000713
        },
        {
          "name": "A2",
          "midi": 45,
          "time": 145.06091274999844,
          "velocity": 0.8740157480314961,
          "duration": 0.18292675000000713
        },
        {
          "name": "D2",
          "midi": 38,
          "time": 145.06091274999844,
          "velocity": 0.8740157480314961,
          "duration": 0.18292675000000713
        },
        {
          "name": "D3",
          "midi": 50,
          "time": 145.24383949999844,
          "velocity": 0.8740157480314961,
          "duration": 0.18292675000000713
        },
        {
          "name": "A2",
          "midi": 45,
          "time": 145.24383949999844,
          "velocity": 0.8740157480314961,
          "duration": 0.18292675000000713
        },
        {
          "name": "D2",
          "midi": 38,
          "time": 145.24383949999844,
          "velocity": 0.8740157480314961,
          "duration": 0.18292675000000713
        },
        {
          "name": "D3",
          "midi": 50,
          "time": 145.42676624999845,
          "velocity": 0.8740157480314961,
          "duration": 0.18292675000000713
        },
        {
          "name": "A2",
          "midi": 45,
          "time": 145.42676624999845,
          "velocity": 0.8740157480314961,
          "duration": 0.18292675000000713
        },
        {
          "name": "D2",
          "midi": 38,
          "time": 145.42676624999845,
          "velocity": 0.8740157480314961,
          "duration": 0.18292675000000713
        },
        {
          "name": "D4",
          "midi": 62,
          "time": 145.60969299999846,
          "velocity": 0.8740157480314961,
          "duration": 0.18292675000000713
        },
        {
          "name": "D3",
          "midi": 50,
          "time": 145.60969299999846,
          "velocity": 0.8740157480314961,
          "duration": 0.18292675000000713
        },
        {
          "name": "D4",
          "midi": 62,
          "time": 145.79261974999847,
          "velocity": 0.8740157480314961,
          "duration": 0.18292675000000713
        },
        {
          "name": "D3",
          "midi": 50,
          "time": 145.79261974999847,
          "velocity": 0.8740157480314961,
          "duration": 0.18292675000000713
        },
        {
          "name": "D4",
          "midi": 62,
          "time": 145.97554649999847,
          "velocity": 0.8740157480314961,
          "duration": 0.18292675000000713
        },
        {
          "name": "D3",
          "midi": 50,
          "time": 145.97554649999847,
          "velocity": 0.8740157480314961,
          "duration": 0.18292675000000713
        },
        {
          "name": "D4",
          "midi": 62,
          "time": 146.15847324999848,
          "velocity": 0.8740157480314961,
          "duration": 0.18292675000000713
        },
        {
          "name": "D3",
          "midi": 50,
          "time": 146.15847324999848,
          "velocity": 0.8740157480314961,
          "duration": 0.18292675000000713
        },
        {
          "name": "A3",
          "midi": 57,
          "time": 146.3413999999985,
          "velocity": 0.8740157480314961,
          "duration": 0.18292675000000713
        },
        {
          "name": "D3",
          "midi": 50,
          "time": 146.3413999999985,
          "velocity": 0.8740157480314961,
          "duration": 0.18292675000000713
        },
        {
          "name": "G2",
          "midi": 43,
          "time": 146.3413999999985,
          "velocity": 0.8740157480314961,
          "duration": 0.18292675000000713
        },
        {
          "name": "A3",
          "midi": 57,
          "time": 146.5243267499985,
          "velocity": 0.8740157480314961,
          "duration": 0.18292675000000713
        },
        {
          "name": "D3",
          "midi": 50,
          "time": 146.5243267499985,
          "velocity": 0.8740157480314961,
          "duration": 0.18292675000000713
        },
        {
          "name": "G2",
          "midi": 43,
          "time": 146.5243267499985,
          "velocity": 0.8740157480314961,
          "duration": 0.18292675000000713
        },
        {
          "name": "A3",
          "midi": 57,
          "time": 146.7072534999985,
          "velocity": 0.8740157480314961,
          "duration": 0.18292675000000713
        },
        {
          "name": "D3",
          "midi": 50,
          "time": 146.7072534999985,
          "velocity": 0.8740157480314961,
          "duration": 0.18292675000000713
        },
        {
          "name": "G2",
          "midi": 43,
          "time": 146.7072534999985,
          "velocity": 0.8740157480314961,
          "duration": 0.18292675000000713
        },
        {
          "name": "A3",
          "midi": 57,
          "time": 146.8901802499985,
          "velocity": 0.8740157480314961,
          "duration": 0.18292675000000713
        },
        {
          "name": "D3",
          "midi": 50,
          "time": 146.8901802499985,
          "velocity": 0.8740157480314961,
          "duration": 0.18292675000000713
        },
        {
          "name": "G2",
          "midi": 43,
          "time": 146.8901802499985,
          "velocity": 0.8740157480314961,
          "duration": 0.18292675000000713
        },
        {
          "name": "D4",
          "midi": 62,
          "time": 147.07310699999852,
          "velocity": 0.8740157480314961,
          "duration": 0.18292675000000713
        },
        {
          "name": "D3",
          "midi": 50,
          "time": 147.07310699999852,
          "velocity": 0.8740157480314961,
          "duration": 0.18292675000000713
        },
        {
          "name": "D4",
          "midi": 62,
          "time": 147.25603374999852,
          "velocity": 0.8740157480314961,
          "duration": 0.18292675000000713
        },
        {
          "name": "D3",
          "midi": 50,
          "time": 147.25603374999852,
          "velocity": 0.8740157480314961,
          "duration": 0.18292675000000713
        },
        {
          "name": "D4",
          "midi": 62,
          "time": 147.43896049999853,
          "velocity": 0.8740157480314961,
          "duration": 0.18292675000000713
        },
        {
          "name": "D3",
          "midi": 50,
          "time": 147.43896049999853,
          "velocity": 0.8740157480314961,
          "duration": 0.18292675000000713
        },
        {
          "name": "D4",
          "midi": 62,
          "time": 147.62188724999854,
          "velocity": 0.8740157480314961,
          "duration": 0.18292675000000713
        },
        {
          "name": "D3",
          "midi": 50,
          "time": 147.62188724999854,
          "velocity": 0.8740157480314961,
          "duration": 0.18292675000000713
        },
        {
          "name": "A3",
          "midi": 57,
          "time": 147.80481399999854,
          "velocity": 0.8740157480314961,
          "duration": 0.18292675000000713
        },
        {
          "name": "D3",
          "midi": 50,
          "time": 147.80481399999854,
          "velocity": 0.8740157480314961,
          "duration": 0.18292675000000713
        },
        {
          "name": "G2",
          "midi": 43,
          "time": 147.80481399999854,
          "velocity": 0.8740157480314961,
          "duration": 0.18292675000000713
        },
        {
          "name": "A3",
          "midi": 57,
          "time": 147.98774074999855,
          "velocity": 0.8740157480314961,
          "duration": 0.18292675000000713
        },
        {
          "name": "D3",
          "midi": 50,
          "time": 147.98774074999855,
          "velocity": 0.8740157480314961,
          "duration": 0.18292675000000713
        },
        {
          "name": "G2",
          "midi": 43,
          "time": 147.98774074999855,
          "velocity": 0.8740157480314961,
          "duration": 0.18292675000000713
        },
        {
          "name": "A3",
          "midi": 57,
          "time": 148.17066749999856,
          "velocity": 0.8740157480314961,
          "duration": 0.18292675000000713
        },
        {
          "name": "D3",
          "midi": 50,
          "time": 148.17066749999856,
          "velocity": 0.8740157480314961,
          "duration": 0.18292675000000713
        },
        {
          "name": "G2",
          "midi": 43,
          "time": 148.17066749999856,
          "velocity": 0.8740157480314961,
          "duration": 0.18292675000000713
        },
        {
          "name": "A3",
          "midi": 57,
          "time": 148.35359424999857,
          "velocity": 0.8740157480314961,
          "duration": 0.18292675000000713
        },
        {
          "name": "D3",
          "midi": 50,
          "time": 148.35359424999857,
          "velocity": 0.8740157480314961,
          "duration": 0.18292675000000713
        },
        {
          "name": "G2",
          "midi": 43,
          "time": 148.35359424999857,
          "velocity": 0.8740157480314961,
          "duration": 0.18292675000000713
        },
        {
          "name": "D4",
          "midi": 62,
          "time": 148.53652099999857,
          "velocity": 0.8740157480314961,
          "duration": 0.18292675000000713
        },
        {
          "name": "D3",
          "midi": 50,
          "time": 148.53652099999857,
          "velocity": 0.8740157480314961,
          "duration": 0.18292675000000713
        },
        {
          "name": "D4",
          "midi": 62,
          "time": 148.71944774999858,
          "velocity": 0.8740157480314961,
          "duration": 0.18292675000000713
        },
        {
          "name": "D3",
          "midi": 50,
          "time": 148.71944774999858,
          "velocity": 0.8740157480314961,
          "duration": 0.18292675000000713
        },
        {
          "name": "D4",
          "midi": 62,
          "time": 148.9023744999986,
          "velocity": 0.8740157480314961,
          "duration": 0.18292675000000713
        },
        {
          "name": "D3",
          "midi": 50,
          "time": 148.9023744999986,
          "velocity": 0.8740157480314961,
          "duration": 0.18292675000000713
        },
        {
          "name": "D4",
          "midi": 62,
          "time": 149.0853012499986,
          "velocity": 0.8740157480314961,
          "duration": 0.18292675000000713
        },
        {
          "name": "D3",
          "midi": 50,
          "time": 149.0853012499986,
          "velocity": 0.8740157480314961,
          "duration": 0.18292675000000713
        },
        {
          "name": "B3",
          "midi": 59,
          "time": 149.2682279999986,
          "velocity": 0.8740157480314961,
          "duration": 0.18292675000000713
        },
        {
          "name": "F#3",
          "midi": 54,
          "time": 149.2682279999986,
          "velocity": 0.8740157480314961,
          "duration": 0.18292675000000713
        },
        {
          "name": "B2",
          "midi": 47,
          "time": 149.2682279999986,
          "velocity": 0.8740157480314961,
          "duration": 0.18292675000000713
        },
        {
          "name": "B3",
          "midi": 59,
          "time": 149.4511547499986,
          "velocity": 0.8740157480314961,
          "duration": 0.18292675000000713
        },
        {
          "name": "F#3",
          "midi": 54,
          "time": 149.4511547499986,
          "velocity": 0.8740157480314961,
          "duration": 0.18292675000000713
        },
        {
          "name": "B2",
          "midi": 47,
          "time": 149.4511547499986,
          "velocity": 0.8740157480314961,
          "duration": 0.18292675000000713
        },
        {
          "name": "B3",
          "midi": 59,
          "time": 149.63408149999862,
          "velocity": 0.8740157480314961,
          "duration": 0.18292675000000713
        },
        {
          "name": "F#3",
          "midi": 54,
          "time": 149.63408149999862,
          "velocity": 0.8740157480314961,
          "duration": 0.18292675000000713
        },
        {
          "name": "B2",
          "midi": 47,
          "time": 149.63408149999862,
          "velocity": 0.8740157480314961,
          "duration": 0.18292675000000713
        },
        {
          "name": "B3",
          "midi": 59,
          "time": 149.81700824999862,
          "velocity": 0.8740157480314961,
          "duration": 0.18292675000000713
        },
        {
          "name": "F#3",
          "midi": 54,
          "time": 149.81700824999862,
          "velocity": 0.8740157480314961,
          "duration": 0.18292675000000713
        },
        {
          "name": "B2",
          "midi": 47,
          "time": 149.81700824999862,
          "velocity": 0.8740157480314961,
          "duration": 0.18292675000000713
        },
        {
          "name": "F#4",
          "midi": 66,
          "time": 149.99993499999863,
          "velocity": 0.8740157480314961,
          "duration": 0.18292675000000713
        },
        {
          "name": "D3",
          "midi": 50,
          "time": 149.99993499999863,
          "velocity": 0.8740157480314961,
          "duration": 0.030487791666672592
        },
        {
          "name": "F#3",
          "midi": 54,
          "time": 149.99993499999863,
          "velocity": 0.8740157480314961,
          "duration": 0.18292675000000713
        },
        {
          "name": "F#4",
          "midi": 66,
          "time": 150.18286174999864,
          "velocity": 0.8740157480314961,
          "duration": 0.18292675000000713
        },
        {
          "name": "D3",
          "midi": 50,
          "time": 150.18286174999864,
          "velocity": 0.8740157480314961,
          "duration": 0.030487791666672592
        },
        {
          "name": "F#3",
          "midi": 54,
          "time": 150.18286174999864,
          "velocity": 0.8740157480314961,
          "duration": 0.18292675000000713
        },
        {
          "name": "F#4",
          "midi": 66,
          "time": 150.36578849999864,
          "velocity": 0.8740157480314961,
          "duration": 0.18292675000000713
        },
        {
          "name": "D3",
          "midi": 50,
          "time": 150.36578849999864,
          "velocity": 0.8740157480314961,
          "duration": 0.030487791666672592
        },
        {
          "name": "F#3",
          "midi": 54,
          "time": 150.36578849999864,
          "velocity": 0.8740157480314961,
          "duration": 0.18292675000000713
        },
        {
          "name": "A2",
          "midi": 45,
          "time": 150.54871524999865,
          "velocity": 0.8740157480314961,
          "duration": 0.18292675000000713
        },
        {
          "name": "D2",
          "midi": 38,
          "time": 150.54871524999865,
          "velocity": 0.8740157480314961,
          "duration": 0.18292675000000713
        },
        {
          "name": "B3",
          "midi": 59,
          "time": 150.73164199999866,
          "velocity": 0.8740157480314961,
          "duration": 0.18292675000000713
        },
        {
          "name": "F#3",
          "midi": 54,
          "time": 150.73164199999866,
          "velocity": 0.8740157480314961,
          "duration": 0.18292675000000713
        },
        {
          "name": "B2",
          "midi": 47,
          "time": 150.73164199999866,
          "velocity": 0.8740157480314961,
          "duration": 0.18292675000000713
        },
        {
          "name": "B3",
          "midi": 59,
          "time": 150.91456874999866,
          "velocity": 0.8740157480314961,
          "duration": 0.18292675000000713
        },
        {
          "name": "F#3",
          "midi": 54,
          "time": 150.91456874999866,
          "velocity": 0.8740157480314961,
          "duration": 0.18292675000000713
        },
        {
          "name": "B2",
          "midi": 47,
          "time": 150.91456874999866,
          "velocity": 0.8740157480314961,
          "duration": 0.18292675000000713
        },
        {
          "name": "B3",
          "midi": 59,
          "time": 151.09749549999867,
          "velocity": 0.8740157480314961,
          "duration": 0.18292675000000713
        },
        {
          "name": "F#3",
          "midi": 54,
          "time": 151.09749549999867,
          "velocity": 0.8740157480314961,
          "duration": 0.18292675000000713
        },
        {
          "name": "B2",
          "midi": 47,
          "time": 151.09749549999867,
          "velocity": 0.8740157480314961,
          "duration": 0.18292675000000713
        },
        {
          "name": "B3",
          "midi": 59,
          "time": 151.28042224999868,
          "velocity": 0.8740157480314961,
          "duration": 0.18292675000000713
        },
        {
          "name": "F#3",
          "midi": 54,
          "time": 151.28042224999868,
          "velocity": 0.8740157480314961,
          "duration": 0.18292675000000713
        },
        {
          "name": "B2",
          "midi": 47,
          "time": 151.28042224999868,
          "velocity": 0.8740157480314961,
          "duration": 0.18292675000000713
        },
        {
          "name": "F#4",
          "midi": 66,
          "time": 151.4633489999987,
          "velocity": 0.8740157480314961,
          "duration": 0.18292675000000713
        },
        {
          "name": "D3",
          "midi": 50,
          "time": 151.4633489999987,
          "velocity": 0.8740157480314961,
          "duration": 0.030487791666672592
        },
        {
          "name": "F#3",
          "midi": 54,
          "time": 151.4633489999987,
          "velocity": 0.8740157480314961,
          "duration": 0.18292675000000713
        },
        {
          "name": "F#4",
          "midi": 66,
          "time": 151.6462757499987,
          "velocity": 0.8740157480314961,
          "duration": 0.18292675000000713
        },
        {
          "name": "D3",
          "midi": 50,
          "time": 151.6462757499987,
          "velocity": 0.8740157480314961,
          "duration": 0.030487791666672592
        },
        {
          "name": "F#3",
          "midi": 54,
          "time": 151.6462757499987,
          "velocity": 0.8740157480314961,
          "duration": 0.18292675000000713
        },
        {
          "name": "F#4",
          "midi": 66,
          "time": 151.8292024999987,
          "velocity": 0.8740157480314961,
          "duration": 0.18292675000000713
        },
        {
          "name": "D3",
          "midi": 50,
          "time": 151.8292024999987,
          "velocity": 0.8740157480314961,
          "duration": 0.030487791666672592
        },
        {
          "name": "F#3",
          "midi": 54,
          "time": 151.8292024999987,
          "velocity": 0.8740157480314961,
          "duration": 0.18292675000000713
        },
        {
          "name": "D3",
          "midi": 50,
          "time": 152.0121292499987,
          "velocity": 0.8740157480314961,
          "duration": 0.18292675000000713
        },
        {
          "name": "A2",
          "midi": 45,
          "time": 152.0121292499987,
          "velocity": 0.8740157480314961,
          "duration": 0.18292675000000713
        },
        {
          "name": "A3",
          "midi": 57,
          "time": 152.19505599999871,
          "velocity": 0.8740157480314961,
          "duration": 0.18292675000000713
        },
        {
          "name": "D3",
          "midi": 50,
          "time": 152.19505599999871,
          "velocity": 0.8740157480314961,
          "duration": 0.18292675000000713
        },
        {
          "name": "G2",
          "midi": 43,
          "time": 152.19505599999871,
          "velocity": 0.8740157480314961,
          "duration": 0.18292675000000713
        },
        {
          "name": "A3",
          "midi": 57,
          "time": 152.37798274999872,
          "velocity": 0.8740157480314961,
          "duration": 0.18292675000000713
        },
        {
          "name": "D3",
          "midi": 50,
          "time": 152.37798274999872,
          "velocity": 0.8740157480314961,
          "duration": 0.18292675000000713
        },
        {
          "name": "G2",
          "midi": 43,
          "time": 152.37798274999872,
          "velocity": 0.8740157480314961,
          "duration": 0.18292675000000713
        },
        {
          "name": "A3",
          "midi": 57,
          "time": 152.56090949999873,
          "velocity": 0.8740157480314961,
          "duration": 0.18292675000000713
        },
        {
          "name": "D3",
          "midi": 50,
          "time": 152.56090949999873,
          "velocity": 0.8740157480314961,
          "duration": 0.18292675000000713
        },
        {
          "name": "G2",
          "midi": 43,
          "time": 152.56090949999873,
          "velocity": 0.8740157480314961,
          "duration": 0.18292675000000713
        },
        {
          "name": "A3",
          "midi": 57,
          "time": 152.74383624999874,
          "velocity": 0.8740157480314961,
          "duration": 0.18292675000000713
        },
        {
          "name": "D3",
          "midi": 50,
          "time": 152.74383624999874,
          "velocity": 0.8740157480314961,
          "duration": 0.18292675000000713
        },
        {
          "name": "G2",
          "midi": 43,
          "time": 152.74383624999874,
          "velocity": 0.8740157480314961,
          "duration": 0.18292675000000713
        },
        {
          "name": "D4",
          "midi": 62,
          "time": 152.92676299999874,
          "velocity": 0.8740157480314961,
          "duration": 0.18292675000000713
        },
        {
          "name": "D3",
          "midi": 50,
          "time": 152.92676299999874,
          "velocity": 0.8740157480314961,
          "duration": 0.18292675000000713
        },
        {
          "name": "D4",
          "midi": 62,
          "time": 153.10968974999875,
          "velocity": 0.8740157480314961,
          "duration": 0.18292675000000713
        },
        {
          "name": "D3",
          "midi": 50,
          "time": 153.10968974999875,
          "velocity": 0.8740157480314961,
          "duration": 0.18292675000000713
        },
        {
          "name": "D4",
          "midi": 62,
          "time": 153.29261649999876,
          "velocity": 0.8740157480314961,
          "duration": 0.18292675000000713
        },
        {
          "name": "D3",
          "midi": 50,
          "time": 153.29261649999876,
          "velocity": 0.8740157480314961,
          "duration": 0.18292675000000713
        },
        {
          "name": "D4",
          "midi": 62,
          "time": 153.47554324999876,
          "velocity": 0.8740157480314961,
          "duration": 0.18292675000000713
        },
        {
          "name": "D3",
          "midi": 50,
          "time": 153.47554324999876,
          "velocity": 0.8740157480314961,
          "duration": 0.18292675000000713
        },
        {
          "name": "D4",
          "midi": 62,
          "time": 153.65846999999877,
          "velocity": 0.8740157480314961,
          "duration": 0.18292675000000713
        },
        {
          "name": "A3",
          "midi": 57,
          "time": 153.65846999999877,
          "velocity": 0.8740157480314961,
          "duration": 0.18292675000000713
        },
        {
          "name": "D3",
          "midi": 50,
          "time": 153.65846999999877,
          "velocity": 0.8740157480314961,
          "duration": 0.18292675000000713
        },
        {
          "name": "G2",
          "midi": 43,
          "time": 153.65846999999877,
          "velocity": 0.8740157480314961,
          "duration": 0.18292675000000713
        },
        {
          "name": "D4",
          "midi": 62,
          "time": 153.84139674999878,
          "velocity": 0.8740157480314961,
          "duration": 0.18292675000000713
        },
        {
          "name": "A3",
          "midi": 57,
          "time": 153.84139674999878,
          "velocity": 0.8740157480314961,
          "duration": 0.18292675000000713
        },
        {
          "name": "D3",
          "midi": 50,
          "time": 153.84139674999878,
          "velocity": 0.8740157480314961,
          "duration": 0.18292675000000713
        },
        {
          "name": "G2",
          "midi": 43,
          "time": 153.84139674999878,
          "velocity": 0.8740157480314961,
          "duration": 0.18292675000000713
        },
        {
          "name": "D4",
          "midi": 62,
          "time": 154.0243234999988,
          "velocity": 0.8740157480314961,
          "duration": 0.18292675000000713
        },
        {
          "name": "A3",
          "midi": 57,
          "time": 154.0243234999988,
          "velocity": 0.8740157480314961,
          "duration": 0.18292675000000713
        },
        {
          "name": "D3",
          "midi": 50,
          "time": 154.0243234999988,
          "velocity": 0.8740157480314961,
          "duration": 0.18292675000000713
        },
        {
          "name": "G2",
          "midi": 43,
          "time": 154.0243234999988,
          "velocity": 0.8740157480314961,
          "duration": 0.18292675000000713
        },
        {
          "name": "D4",
          "midi": 62,
          "time": 154.2072502499988,
          "velocity": 0.8740157480314961,
          "duration": 0.18292675000000713
        },
        {
          "name": "A3",
          "midi": 57,
          "time": 154.2072502499988,
          "velocity": 0.8740157480314961,
          "duration": 0.18292675000000713
        },
        {
          "name": "D3",
          "midi": 50,
          "time": 154.2072502499988,
          "velocity": 0.8740157480314961,
          "duration": 0.18292675000000713
        },
        {
          "name": "G2",
          "midi": 43,
          "time": 154.2072502499988,
          "velocity": 0.8740157480314961,
          "duration": 0.18292675000000713
        },
        {
          "name": "D4",
          "midi": 62,
          "time": 154.3901769999988,
          "velocity": 0.8740157480314961,
          "duration": 0.18292675000000713
        },
        {
          "name": "A3",
          "midi": 57,
          "time": 154.3901769999988,
          "velocity": 0.8740157480314961,
          "duration": 0.18292675000000713
        },
        {
          "name": "D3",
          "midi": 50,
          "time": 154.3901769999988,
          "velocity": 0.8740157480314961,
          "duration": 0.18292675000000713
        },
        {
          "name": "G2",
          "midi": 43,
          "time": 154.3901769999988,
          "velocity": 0.8740157480314961,
          "duration": 0.18292675000000713
        },
        {
          "name": "D4",
          "midi": 62,
          "time": 154.5731037499988,
          "velocity": 0.8740157480314961,
          "duration": 0.18292675000000713
        },
        {
          "name": "A3",
          "midi": 57,
          "time": 154.5731037499988,
          "velocity": 0.8740157480314961,
          "duration": 0.18292675000000713
        },
        {
          "name": "D3",
          "midi": 50,
          "time": 154.5731037499988,
          "velocity": 0.8740157480314961,
          "duration": 0.18292675000000713
        },
        {
          "name": "G2",
          "midi": 43,
          "time": 154.5731037499988,
          "velocity": 0.8740157480314961,
          "duration": 0.18292675000000713
        },
        {
          "name": "D4",
          "midi": 62,
          "time": 154.75603049999881,
          "velocity": 0.8740157480314961,
          "duration": 0.36585349999998584
        },
        {
          "name": "A3",
          "midi": 57,
          "time": 154.75603049999881,
          "velocity": 0.8740157480314961,
          "duration": 0.36585349999998584
        },
        {
          "name": "D3",
          "midi": 50,
          "time": 154.75603049999881,
          "velocity": 0.8740157480314961,
          "duration": 0.36585349999998584
        },
        {
          "name": "G2",
          "midi": 43,
          "time": 154.75603049999881,
          "velocity": 0.8740157480314961,
          "duration": 0.36585349999998584
        },
        {
          "name": "E3",
          "midi": 52,
          "time": 155.1218839999988,
          "velocity": 0.7480314960629921,
          "duration": 0.18292675000000713
        },
        {
          "name": "B2",
          "midi": 47,
          "time": 155.1218839999988,
          "velocity": 0.7480314960629921,
          "duration": 0.18292675000000713
        },
        {
          "name": "E2",
          "midi": 40,
          "time": 155.1218839999988,
          "velocity": 0.7480314960629921,
          "duration": 0.18292675000000713
        },
        {
          "name": "B2",
          "midi": 47,
          "time": 155.3048107499988,
          "velocity": 0.6771653543307087,
          "duration": 0.18292675000000713
        },
        {
          "name": "E2",
          "midi": 40,
          "time": 155.3048107499988,
          "velocity": 0.6771653543307087,
          "duration": 0.18292675000000713
        },
        {
          "name": "B2",
          "midi": 47,
          "time": 155.67066424999882,
          "velocity": 0.6771653543307087,
          "duration": 0.18292675000000713
        },
        {
          "name": "E2",
          "midi": 40,
          "time": 155.67066424999882,
          "velocity": 0.6771653543307087,
          "duration": 0.18292675000000713
        },
        {
          "name": "B2",
          "midi": 47,
          "time": 156.03651774999884,
          "velocity": 0.6771653543307087,
          "duration": 0.18292675000000713
        },
        {
          "name": "E2",
          "midi": 40,
          "time": 156.03651774999884,
          "velocity": 0.6771653543307087,
          "duration": 0.18292675000000713
        },
        {
          "name": "D3",
          "midi": 50,
          "time": 156.21944449999884,
          "velocity": 0.7480314960629921,
          "duration": 6.219509499999987
        },
        {
          "name": "A2",
          "midi": 45,
          "time": 156.21944449999884,
          "velocity": 0.7480314960629921,
          "duration": 6.219509499999987
        },
        {
          "name": "D2",
          "midi": 38,
          "time": 156.21944449999884,
          "velocity": 0.7480314960629921,
          "duration": 6.219509499999987
        },
        {
          "name": "G3",
          "midi": 55,
          "time": 162.43895399999883,
          "velocity": 0.7480314960629921,
          "duration": 5.853656000000001
        },
        {
          "name": "D3",
          "midi": 50,
          "time": 162.43895399999883,
          "velocity": 0.7480314960629921,
          "duration": 5.853656000000001
        },
        {
          "name": "G2",
          "midi": 43,
          "time": 162.43895399999883,
          "velocity": 0.7480314960629921,
          "duration": 5.853656000000001
        },
        {
          "name": "D3",
          "midi": 50,
          "time": 168.29260999999883,
          "velocity": 0.7480314960629921,
          "duration": 5.853656000000001
        },
        {
          "name": "A2",
          "midi": 45,
          "time": 168.29260999999883,
          "velocity": 0.7480314960629921,
          "duration": 5.853656000000001
        },
        {
          "name": "D2",
          "midi": 38,
          "time": 168.29260999999883,
          "velocity": 0.7480314960629921,
          "duration": 5.853656000000001
        },
        {
          "name": "G3",
          "midi": 55,
          "time": 174.14626599999883,
          "velocity": 0.7480314960629921,
          "duration": 2.9268280000000004
        },
        {
          "name": "D3",
          "midi": 50,
          "time": 174.14626599999883,
          "velocity": 0.7480314960629921,
          "duration": 2.9268280000000004
        },
        {
          "name": "G2",
          "midi": 43,
          "time": 174.14626599999883,
          "velocity": 0.7480314960629921,
          "duration": 2.9268280000000004
        },
        {
          "name": "G3",
          "midi": 55,
          "time": 177.07309399999883,
          "velocity": 0.7480314960629921,
          "duration": 0.18292675000000713
        },
        {
          "name": "D3",
          "midi": 50,
          "time": 177.07309399999883,
          "velocity": 0.7480314960629921,
          "duration": 0.18292675000000713
        },
        {
          "name": "G2",
          "midi": 43,
          "time": 177.07309399999883,
          "velocity": 0.7480314960629921,
          "duration": 0.18292675000000713
        },
        {
          "name": "G3",
          "midi": 55,
          "time": 177.25602074999884,
          "velocity": 0.7480314960629921,
          "duration": 0.18292675000000713
        },
        {
          "name": "D3",
          "midi": 50,
          "time": 177.25602074999884,
          "velocity": 0.7480314960629921,
          "duration": 0.18292675000000713
        },
        {
          "name": "G2",
          "midi": 43,
          "time": 177.25602074999884,
          "velocity": 0.7480314960629921,
          "duration": 0.18292675000000713
        },
        {
          "name": "B3",
          "midi": 59,
          "time": 179.26821499999883,
          "velocity": 0.7480314960629921,
          "duration": 0.7317069999999717
        },
        {
          "name": "E3",
          "midi": 52,
          "time": 179.26821499999883,
          "velocity": 0.7480314960629921,
          "duration": 0.7317069999999717
        },
        {
          "name": "A2",
          "midi": 45,
          "time": 179.9999219999988,
          "velocity": 0.6771653543307087,
          "duration": 0.18292675000000713
        },
        {
          "name": "D2",
          "midi": 38,
          "time": 179.9999219999988,
          "velocity": 0.6771653543307087,
          "duration": 0.18292675000000713
        },
        {
          "name": "A2",
          "midi": 45,
          "time": 180.1828487499988,
          "velocity": 0.6771653543307087,
          "duration": 0.18292675000000713
        },
        {
          "name": "D2",
          "midi": 38,
          "time": 180.1828487499988,
          "velocity": 0.6771653543307087,
          "duration": 0.18292675000000713
        },
        {
          "name": "A2",
          "midi": 45,
          "time": 180.36577549999882,
          "velocity": 0.6771653543307087,
          "duration": 0.18292675000000713
        },
        {
          "name": "D2",
          "midi": 38,
          "time": 180.36577549999882,
          "velocity": 0.6771653543307087,
          "duration": 0.18292675000000713
        },
        {
          "name": "A2",
          "midi": 45,
          "time": 180.54870224999883,
          "velocity": 0.6771653543307087,
          "duration": 0.18292675000000713
        },
        {
          "name": "D2",
          "midi": 38,
          "time": 180.54870224999883,
          "velocity": 0.6771653543307087,
          "duration": 0.18292675000000713
        },
        {
          "name": "A2",
          "midi": 45,
          "time": 180.73162899999883,
          "velocity": 0.7480314960629921,
          "duration": 0.18292675000000713
        },
        {
          "name": "D2",
          "midi": 38,
          "time": 180.73162899999883,
          "velocity": 0.7480314960629921,
          "duration": 0.18292675000000713
        },
        {
          "name": "A2",
          "midi": 45,
          "time": 181.46333599999883,
          "velocity": 0.6771653543307087,
          "duration": 0.18292675000000713
        },
        {
          "name": "D2",
          "midi": 38,
          "time": 181.46333599999883,
          "velocity": 0.6771653543307087,
          "duration": 0.18292675000000713
        },
        {
          "name": "A2",
          "midi": 45,
          "time": 181.64626274999884,
          "velocity": 0.6771653543307087,
          "duration": 0.18292675000000713
        },
        {
          "name": "D2",
          "midi": 38,
          "time": 181.64626274999884,
          "velocity": 0.6771653543307087,
          "duration": 0.18292675000000713
        },
        {
          "name": "A2",
          "midi": 45,
          "time": 181.82918949999885,
          "velocity": 0.6771653543307087,
          "duration": 0.18292675000000713
        },
        {
          "name": "D2",
          "midi": 38,
          "time": 181.82918949999885,
          "velocity": 0.6771653543307087,
          "duration": 0.18292675000000713
        },
        {
          "name": "A2",
          "midi": 45,
          "time": 182.01211624999885,
          "velocity": 0.6771653543307087,
          "duration": 0.18292675000000713
        },
        {
          "name": "D2",
          "midi": 38,
          "time": 182.01211624999885,
          "velocity": 0.6771653543307087,
          "duration": 0.18292675000000713
        },
        {
          "name": "A2",
          "midi": 45,
          "time": 182.19504299999886,
          "velocity": 0.7480314960629921,
          "duration": 0.18292675000000713
        },
        {
          "name": "D2",
          "midi": 38,
          "time": 182.19504299999886,
          "velocity": 0.7480314960629921,
          "duration": 0.18292675000000713
        },
        {
          "name": "D3",
          "midi": 50,
          "time": 182.92674999999886,
          "velocity": 0.6771653543307087,
          "duration": 0.18292675000000713
        },
        {
          "name": "G2",
          "midi": 43,
          "time": 182.92674999999886,
          "velocity": 0.6771653543307087,
          "duration": 0.18292675000000713
        },
        {
          "name": "D3",
          "midi": 50,
          "time": 183.10967674999887,
          "velocity": 0.6771653543307087,
          "duration": 0.18292675000000713
        },
        {
          "name": "G2",
          "midi": 43,
          "time": 183.10967674999887,
          "velocity": 0.6771653543307087,
          "duration": 0.18292675000000713
        },
        {
          "name": "D3",
          "midi": 50,
          "time": 183.29260349999888,
          "velocity": 0.6771653543307087,
          "duration": 0.18292675000000713
        },
        {
          "name": "G2",
          "midi": 43,
          "time": 183.29260349999888,
          "velocity": 0.6771653543307087,
          "duration": 0.18292675000000713
        },
        {
          "name": "D3",
          "midi": 50,
          "time": 183.47553024999888,
          "velocity": 0.6771653543307087,
          "duration": 0.18292675000000713
        },
        {
          "name": "G2",
          "midi": 43,
          "time": 183.47553024999888,
          "velocity": 0.6771653543307087,
          "duration": 0.18292675000000713
        },
        {
          "name": "D3",
          "midi": 50,
          "time": 183.6584569999989,
          "velocity": 0.7480314960629921,
          "duration": 0.18292675000000713
        },
        {
          "name": "G2",
          "midi": 43,
          "time": 183.6584569999989,
          "velocity": 0.7480314960629921,
          "duration": 0.18292675000000713
        },
        {
          "name": "D3",
          "midi": 50,
          "time": 184.3901639999989,
          "velocity": 0.6771653543307087,
          "duration": 0.18292675000000713
        },
        {
          "name": "G2",
          "midi": 43,
          "time": 184.3901639999989,
          "velocity": 0.6771653543307087,
          "duration": 0.18292675000000713
        },
        {
          "name": "D3",
          "midi": 50,
          "time": 184.5730907499989,
          "velocity": 0.6771653543307087,
          "duration": 0.18292675000000713
        },
        {
          "name": "G2",
          "midi": 43,
          "time": 184.5730907499989,
          "velocity": 0.6771653543307087,
          "duration": 0.18292675000000713
        },
        {
          "name": "D3",
          "midi": 50,
          "time": 184.7560174999989,
          "velocity": 0.6771653543307087,
          "duration": 0.18292675000000713
        },
        {
          "name": "G2",
          "midi": 43,
          "time": 184.7560174999989,
          "velocity": 0.6771653543307087,
          "duration": 0.18292675000000713
        },
        {
          "name": "D3",
          "midi": 50,
          "time": 184.9389442499989,
          "velocity": 0.6771653543307087,
          "duration": 0.18292675000000713
        },
        {
          "name": "G2",
          "midi": 43,
          "time": 184.9389442499989,
          "velocity": 0.6771653543307087,
          "duration": 0.18292675000000713
        },
        {
          "name": "D3",
          "midi": 50,
          "time": 185.12187099999892,
          "velocity": 0.7480314960629921,
          "duration": 0.18292675000000713
        },
        {
          "name": "G2",
          "midi": 43,
          "time": 185.12187099999892,
          "velocity": 0.7480314960629921,
          "duration": 0.18292675000000713
        },
        {
          "name": "F#3",
          "midi": 54,
          "time": 185.85357799999892,
          "velocity": 0.6771653543307087,
          "duration": 0.18292675000000713
        },
        {
          "name": "B2",
          "midi": 47,
          "time": 185.85357799999892,
          "velocity": 0.6771653543307087,
          "duration": 0.18292675000000713
        },
        {
          "name": "F#3",
          "midi": 54,
          "time": 186.03650474999893,
          "velocity": 0.6771653543307087,
          "duration": 0.18292675000000713
        },
        {
          "name": "B2",
          "midi": 47,
          "time": 186.03650474999893,
          "velocity": 0.6771653543307087,
          "duration": 0.18292675000000713
        },
        {
          "name": "F#3",
          "midi": 54,
          "time": 186.21943149999893,
          "velocity": 0.6771653543307087,
          "duration": 0.18292675000000713
        },
        {
          "name": "B2",
          "midi": 47,
          "time": 186.21943149999893,
          "velocity": 0.6771653543307087,
          "duration": 0.18292675000000713
        },
        {
          "name": "F#3",
          "midi": 54,
          "time": 186.40235824999894,
          "velocity": 0.6771653543307087,
          "duration": 0.18292675000000713
        },
        {
          "name": "B2",
          "midi": 47,
          "time": 186.40235824999894,
          "velocity": 0.6771653543307087,
          "duration": 0.18292675000000713
        },
        {
          "name": "F#3",
          "midi": 54,
          "time": 186.58528499999895,
          "velocity": 0.7480314960629921,
          "duration": 0.18292675000000713
        },
        {
          "name": "B2",
          "midi": 47,
          "time": 186.58528499999895,
          "velocity": 0.7480314960629921,
          "duration": 0.18292675000000713
        },
        {
          "name": "F#3",
          "midi": 54,
          "time": 187.31699199999895,
          "velocity": 0.6771653543307087,
          "duration": 0.18292675000000713
        },
        {
          "name": "B2",
          "midi": 47,
          "time": 187.31699199999895,
          "velocity": 0.6771653543307087,
          "duration": 0.18292675000000713
        },
        {
          "name": "F#3",
          "midi": 54,
          "time": 187.49991874999895,
          "velocity": 0.6771653543307087,
          "duration": 0.18292675000000713
        },
        {
          "name": "B2",
          "midi": 47,
          "time": 187.49991874999895,
          "velocity": 0.7480314960629921,
          "duration": 0.18292675000000713
        },
        {
          "name": "F#3",
          "midi": 54,
          "time": 187.68284549999896,
          "velocity": 0.6771653543307087,
          "duration": 0.18292675000000713
        },
        {
          "name": "B2",
          "midi": 47,
          "time": 187.68284549999896,
          "velocity": 0.6771653543307087,
          "duration": 0.18292675000000713
        },
        {
          "name": "F#3",
          "midi": 54,
          "time": 187.86577224999897,
          "velocity": 0.6771653543307087,
          "duration": 0.18292675000000713
        },
        {
          "name": "B2",
          "midi": 47,
          "time": 187.86577224999897,
          "velocity": 0.6771653543307087,
          "duration": 0.18292675000000713
        },
        {
          "name": "F#3",
          "midi": 54,
          "time": 188.04869899999898,
          "velocity": 0.7480314960629921,
          "duration": 0.18292675000000713
        },
        {
          "name": "B2",
          "midi": 47,
          "time": 188.04869899999898,
          "velocity": 0.7480314960629921,
          "duration": 0.18292675000000713
        },
        {
          "name": "D3",
          "midi": 50,
          "time": 188.78040599999898,
          "velocity": 0.6771653543307087,
          "duration": 0.18292675000000713
        },
        {
          "name": "G2",
          "midi": 43,
          "time": 188.78040599999898,
          "velocity": 0.6771653543307087,
          "duration": 0.18292675000000713
        },
        {
          "name": "D3",
          "midi": 50,
          "time": 188.96333274999898,
          "velocity": 0.6771653543307087,
          "duration": 0.18292675000000713
        },
        {
          "name": "G2",
          "midi": 43,
          "time": 188.96333274999898,
          "velocity": 0.6771653543307087,
          "duration": 0.18292675000000713
        },
        {
          "name": "D3",
          "midi": 50,
          "time": 189.146259499999,
          "velocity": 0.6771653543307087,
          "duration": 0.18292675000000713
        },
        {
          "name": "G2",
          "midi": 43,
          "time": 189.146259499999,
          "velocity": 0.6771653543307087,
          "duration": 0.18292675000000713
        },
        {
          "name": "D3",
          "midi": 50,
          "time": 189.329186249999,
          "velocity": 0.6771653543307087,
          "duration": 0.18292675000000713
        },
        {
          "name": "G2",
          "midi": 43,
          "time": 189.329186249999,
          "velocity": 0.6771653543307087,
          "duration": 0.18292675000000713
        },
        {
          "name": "D3",
          "midi": 50,
          "time": 189.512112999999,
          "velocity": 0.7480314960629921,
          "duration": 0.18292675000000713
        },
        {
          "name": "G2",
          "midi": 43,
          "time": 189.512112999999,
          "velocity": 0.7480314960629921,
          "duration": 0.18292675000000713
        },
        {
          "name": "D3",
          "midi": 50,
          "time": 190.243819999999,
          "velocity": 0.6771653543307087,
          "duration": 0.18292675000000713
        },
        {
          "name": "G2",
          "midi": 43,
          "time": 190.243819999999,
          "velocity": 0.6771653543307087,
          "duration": 0.18292675000000713
        },
        {
          "name": "D3",
          "midi": 50,
          "time": 190.426746749999,
          "velocity": 0.6771653543307087,
          "duration": 0.18292675000000713
        },
        {
          "name": "G2",
          "midi": 43,
          "time": 190.426746749999,
          "velocity": 0.6771653543307087,
          "duration": 0.18292675000000713
        },
        {
          "name": "D3",
          "midi": 50,
          "time": 190.60967349999902,
          "velocity": 0.6771653543307087,
          "duration": 0.18292675000000713
        },
        {
          "name": "G2",
          "midi": 43,
          "time": 190.60967349999902,
          "velocity": 0.6771653543307087,
          "duration": 0.18292675000000713
        },
        {
          "name": "D3",
          "midi": 50,
          "time": 190.79260024999903,
          "velocity": 0.6771653543307087,
          "duration": 0.18292675000000713
        },
        {
          "name": "G2",
          "midi": 43,
          "time": 190.79260024999903,
          "velocity": 0.6771653543307087,
          "duration": 0.18292675000000713
        },
        {
          "name": "A3",
          "midi": 57,
          "time": 190.97552699999903,
          "velocity": 0.7480314960629921,
          "duration": 0.18292675000000713
        },
        {
          "name": "D3",
          "midi": 50,
          "time": 190.97552699999903,
          "velocity": 0.7480314960629921,
          "duration": 0.18292675000000713
        },
        {
          "name": "G2",
          "midi": 43,
          "time": 190.97552699999903,
          "velocity": 0.7480314960629921,
          "duration": 0.18292675000000713
        },
        {
          "name": "A3",
          "midi": 57,
          "time": 191.15845374999904,
          "velocity": 0.7480314960629921,
          "duration": 0.18292675000000713
        },
        {
          "name": "D3",
          "midi": 50,
          "time": 191.15845374999904,
          "velocity": 0.7480314960629921,
          "duration": 0.18292675000000713
        },
        {
          "name": "G2",
          "midi": 43,
          "time": 191.15845374999904,
          "velocity": 0.7480314960629921,
          "duration": 0.18292675000000713
        },
        {
          "name": "A3",
          "midi": 57,
          "time": 191.34138049999905,
          "velocity": 0.7480314960629921,
          "duration": 0.18292675000000713
        },
        {
          "name": "D3",
          "midi": 50,
          "time": 191.34138049999905,
          "velocity": 0.7480314960629921,
          "duration": 0.18292675000000713
        },
        {
          "name": "G2",
          "midi": 43,
          "time": 191.34138049999905,
          "velocity": 0.7480314960629921,
          "duration": 0.18292675000000713
        },
        {
          "name": "A3",
          "midi": 57,
          "time": 191.52430724999905,
          "velocity": 0.7480314960629921,
          "duration": 0.18292675000000713
        },
        {
          "name": "D3",
          "midi": 50,
          "time": 191.52430724999905,
          "velocity": 0.7480314960629921,
          "duration": 0.18292675000000713
        },
        {
          "name": "G2",
          "midi": 43,
          "time": 191.52430724999905,
          "velocity": 0.7480314960629921,
          "duration": 0.18292675000000713
        },
        {
          "name": "D3",
          "midi": 50,
          "time": 191.70723399999906,
          "velocity": 0.7480314960629921,
          "duration": 0.18292675000000713
        },
        {
          "name": "A2",
          "midi": 45,
          "time": 191.70723399999906,
          "velocity": 0.7480314960629921,
          "duration": 0.18292675000000713
        },
        {
          "name": "D2",
          "midi": 38,
          "time": 191.70723399999906,
          "velocity": 0.7480314960629921,
          "duration": 0.18292675000000713
        },
        {
          "name": "D3",
          "midi": 50,
          "time": 191.89016074999907,
          "velocity": 0.7480314960629921,
          "duration": 0.18292675000000713
        },
        {
          "name": "A2",
          "midi": 45,
          "time": 191.89016074999907,
          "velocity": 0.7480314960629921,
          "duration": 0.18292675000000713
        },
        {
          "name": "D2",
          "midi": 38,
          "time": 191.89016074999907,
          "velocity": 0.7480314960629921,
          "duration": 0.18292675000000713
        },
        {
          "name": "D3",
          "midi": 50,
          "time": 192.07308749999908,
          "velocity": 0.7480314960629921,
          "duration": 0.18292675000000713
        },
        {
          "name": "A2",
          "midi": 45,
          "time": 192.07308749999908,
          "velocity": 0.7480314960629921,
          "duration": 0.18292675000000713
        },
        {
          "name": "D2",
          "midi": 38,
          "time": 192.07308749999908,
          "velocity": 0.7480314960629921,
          "duration": 0.18292675000000713
        },
        {
          "name": "D3",
          "midi": 50,
          "time": 192.25601424999908,
          "velocity": 0.7480314960629921,
          "duration": 0.18292675000000713
        },
        {
          "name": "A2",
          "midi": 45,
          "time": 192.25601424999908,
          "velocity": 0.7480314960629921,
          "duration": 0.18292675000000713
        },
        {
          "name": "D2",
          "midi": 38,
          "time": 192.25601424999908,
          "velocity": 0.7480314960629921,
          "duration": 0.18292675000000713
        },
        {
          "name": "D3",
          "midi": 50,
          "time": 192.4389409999991,
          "velocity": 0.7480314960629921,
          "duration": 0.18292675000000713
        },
        {
          "name": "A2",
          "midi": 45,
          "time": 192.4389409999991,
          "velocity": 0.7480314960629921,
          "duration": 0.18292675000000713
        },
        {
          "name": "D2",
          "midi": 38,
          "time": 192.4389409999991,
          "velocity": 0.7480314960629921,
          "duration": 0.18292675000000713
        },
        {
          "name": "D3",
          "midi": 50,
          "time": 192.6218677499991,
          "velocity": 0.7480314960629921,
          "duration": 0.18292675000000713
        },
        {
          "name": "A2",
          "midi": 45,
          "time": 192.6218677499991,
          "velocity": 0.7480314960629921,
          "duration": 0.18292675000000713
        },
        {
          "name": "D2",
          "midi": 38,
          "time": 192.6218677499991,
          "velocity": 0.7480314960629921,
          "duration": 0.18292675000000713
        },
        {
          "name": "D3",
          "midi": 50,
          "time": 192.8047944999991,
          "velocity": 0.7480314960629921,
          "duration": 0.18292675000000713
        },
        {
          "name": "A2",
          "midi": 45,
          "time": 192.8047944999991,
          "velocity": 0.7480314960629921,
          "duration": 0.18292675000000713
        },
        {
          "name": "D2",
          "midi": 38,
          "time": 192.8047944999991,
          "velocity": 0.7480314960629921,
          "duration": 0.18292675000000713
        },
        {
          "name": "D3",
          "midi": 50,
          "time": 192.9877212499991,
          "velocity": 0.7480314960629921,
          "duration": 0.18292675000000713
        },
        {
          "name": "A2",
          "midi": 45,
          "time": 192.9877212499991,
          "velocity": 0.7480314960629921,
          "duration": 0.18292675000000713
        },
        {
          "name": "D2",
          "midi": 38,
          "time": 192.9877212499991,
          "velocity": 0.7480314960629921,
          "duration": 0.18292675000000713
        },
        {
          "name": "D3",
          "midi": 50,
          "time": 193.17064799999912,
          "velocity": 0.7480314960629921,
          "duration": 0.18292675000000713
        },
        {
          "name": "A2",
          "midi": 45,
          "time": 193.17064799999912,
          "velocity": 0.7480314960629921,
          "duration": 0.18292675000000713
        },
        {
          "name": "D2",
          "midi": 38,
          "time": 193.17064799999912,
          "velocity": 0.7480314960629921,
          "duration": 0.18292675000000713
        },
        {
          "name": "D3",
          "midi": 50,
          "time": 193.35357474999913,
          "velocity": 0.7480314960629921,
          "duration": 0.18292675000000713
        },
        {
          "name": "A2",
          "midi": 45,
          "time": 193.35357474999913,
          "velocity": 0.7480314960629921,
          "duration": 0.18292675000000713
        },
        {
          "name": "D2",
          "midi": 38,
          "time": 193.35357474999913,
          "velocity": 0.7480314960629921,
          "duration": 0.18292675000000713
        },
        {
          "name": "D3",
          "midi": 50,
          "time": 193.53650149999913,
          "velocity": 0.7480314960629921,
          "duration": 0.18292675000000713
        },
        {
          "name": "A2",
          "midi": 45,
          "time": 193.53650149999913,
          "velocity": 0.7480314960629921,
          "duration": 0.18292675000000713
        },
        {
          "name": "D2",
          "midi": 38,
          "time": 193.53650149999913,
          "velocity": 0.7480314960629921,
          "duration": 0.18292675000000713
        },
        {
          "name": "D3",
          "midi": 50,
          "time": 193.71942824999914,
          "velocity": 0.7480314960629921,
          "duration": 0.18292675000000713
        },
        {
          "name": "A2",
          "midi": 45,
          "time": 193.71942824999914,
          "velocity": 0.7480314960629921,
          "duration": 0.18292675000000713
        },
        {
          "name": "D2",
          "midi": 38,
          "time": 193.71942824999914,
          "velocity": 0.7480314960629921,
          "duration": 0.18292675000000713
        },
        {
          "name": "D3",
          "midi": 50,
          "time": 193.90235499999915,
          "velocity": 0.7480314960629921,
          "duration": 0.18292675000000713
        },
        {
          "name": "A2",
          "midi": 45,
          "time": 193.90235499999915,
          "velocity": 0.7480314960629921,
          "duration": 0.18292675000000713
        },
        {
          "name": "D2",
          "midi": 38,
          "time": 193.90235499999915,
          "velocity": 0.7480314960629921,
          "duration": 0.18292675000000713
        },
        {
          "name": "D3",
          "midi": 50,
          "time": 194.08528174999915,
          "velocity": 0.7480314960629921,
          "duration": 0.18292675000000713
        },
        {
          "name": "A2",
          "midi": 45,
          "time": 194.08528174999915,
          "velocity": 0.7480314960629921,
          "duration": 0.18292675000000713
        },
        {
          "name": "D2",
          "midi": 38,
          "time": 194.08528174999915,
          "velocity": 0.7480314960629921,
          "duration": 0.18292675000000713
        },
        {
          "name": "D3",
          "midi": 50,
          "time": 194.26820849999916,
          "velocity": 0.7480314960629921,
          "duration": 0.18292675000000713
        },
        {
          "name": "A2",
          "midi": 45,
          "time": 194.26820849999916,
          "velocity": 0.7480314960629921,
          "duration": 0.18292675000000713
        },
        {
          "name": "D2",
          "midi": 38,
          "time": 194.26820849999916,
          "velocity": 0.7480314960629921,
          "duration": 0.18292675000000713
        },
        {
          "name": "D3",
          "midi": 50,
          "time": 194.45113524999917,
          "velocity": 0.7480314960629921,
          "duration": 0.18292675000000713
        },
        {
          "name": "A2",
          "midi": 45,
          "time": 194.45113524999917,
          "velocity": 0.7480314960629921,
          "duration": 0.18292675000000713
        },
        {
          "name": "D2",
          "midi": 38,
          "time": 194.45113524999917,
          "velocity": 0.7480314960629921,
          "duration": 0.18292675000000713
        },
        {
          "name": "G3",
          "midi": 55,
          "time": 194.63406199999918,
          "velocity": 0.7480314960629921,
          "duration": 0.18292675000000713
        },
        {
          "name": "D3",
          "midi": 50,
          "time": 194.63406199999918,
          "velocity": 0.7480314960629921,
          "duration": 0.18292675000000713
        },
        {
          "name": "G2",
          "midi": 43,
          "time": 194.63406199999918,
          "velocity": 0.7480314960629921,
          "duration": 0.18292675000000713
        },
        {
          "name": "G3",
          "midi": 55,
          "time": 194.81698874999918,
          "velocity": 0.7480314960629921,
          "duration": 0.18292675000000713
        },
        {
          "name": "D3",
          "midi": 50,
          "time": 194.81698874999918,
          "velocity": 0.7480314960629921,
          "duration": 0.18292675000000713
        },
        {
          "name": "G2",
          "midi": 43,
          "time": 194.81698874999918,
          "velocity": 0.7480314960629921,
          "duration": 0.18292675000000713
        },
        {
          "name": "G3",
          "midi": 55,
          "time": 194.9999154999992,
          "velocity": 0.7480314960629921,
          "duration": 0.18292675000000713
        },
        {
          "name": "D3",
          "midi": 50,
          "time": 194.9999154999992,
          "velocity": 0.7480314960629921,
          "duration": 0.18292675000000713
        },
        {
          "name": "G2",
          "midi": 43,
          "time": 194.9999154999992,
          "velocity": 0.7480314960629921,
          "duration": 0.18292675000000713
        },
        {
          "name": "G3",
          "midi": 55,
          "time": 195.1828422499992,
          "velocity": 0.7480314960629921,
          "duration": 0.18292675000000713
        },
        {
          "name": "D3",
          "midi": 50,
          "time": 195.1828422499992,
          "velocity": 0.7480314960629921,
          "duration": 0.18292675000000713
        },
        {
          "name": "G2",
          "midi": 43,
          "time": 195.1828422499992,
          "velocity": 0.7480314960629921,
          "duration": 0.18292675000000713
        },
        {
          "name": "G3",
          "midi": 55,
          "time": 195.3657689999992,
          "velocity": 0.7480314960629921,
          "duration": 0.18292675000000713
        },
        {
          "name": "D3",
          "midi": 50,
          "time": 195.3657689999992,
          "velocity": 0.7480314960629921,
          "duration": 0.18292675000000713
        },
        {
          "name": "G2",
          "midi": 43,
          "time": 195.3657689999992,
          "velocity": 0.7480314960629921,
          "duration": 0.18292675000000713
        },
        {
          "name": "G3",
          "midi": 55,
          "time": 195.5486957499992,
          "velocity": 0.7480314960629921,
          "duration": 0.18292675000000713
        },
        {
          "name": "D3",
          "midi": 50,
          "time": 195.5486957499992,
          "velocity": 0.7480314960629921,
          "duration": 0.18292675000000713
        },
        {
          "name": "G2",
          "midi": 43,
          "time": 195.5486957499992,
          "velocity": 0.7480314960629921,
          "duration": 0.18292675000000713
        },
        {
          "name": "G3",
          "midi": 55,
          "time": 195.73162249999922,
          "velocity": 0.7480314960629921,
          "duration": 0.18292675000000713
        },
        {
          "name": "D3",
          "midi": 50,
          "time": 195.73162249999922,
          "velocity": 0.7480314960629921,
          "duration": 0.18292675000000713
        },
        {
          "name": "G2",
          "midi": 43,
          "time": 195.73162249999922,
          "velocity": 0.7480314960629921,
          "duration": 0.18292675000000713
        },
        {
          "name": "G3",
          "midi": 55,
          "time": 195.91454924999923,
          "velocity": 0.7480314960629921,
          "duration": 0.18292675000000713
        },
        {
          "name": "D3",
          "midi": 50,
          "time": 195.91454924999923,
          "velocity": 0.7480314960629921,
          "duration": 0.18292675000000713
        },
        {
          "name": "G2",
          "midi": 43,
          "time": 195.91454924999923,
          "velocity": 0.7480314960629921,
          "duration": 0.18292675000000713
        },
        {
          "name": "G3",
          "midi": 55,
          "time": 196.09747599999923,
          "velocity": 0.7480314960629921,
          "duration": 0.18292675000000713
        },
        {
          "name": "D3",
          "midi": 50,
          "time": 196.09747599999923,
          "velocity": 0.7480314960629921,
          "duration": 0.18292675000000713
        },
        {
          "name": "G2",
          "midi": 43,
          "time": 196.09747599999923,
          "velocity": 0.7480314960629921,
          "duration": 0.18292675000000713
        },
        {
          "name": "G3",
          "midi": 55,
          "time": 196.28040274999924,
          "velocity": 0.7480314960629921,
          "duration": 0.18292675000000713
        },
        {
          "name": "D3",
          "midi": 50,
          "time": 196.28040274999924,
          "velocity": 0.7480314960629921,
          "duration": 0.18292675000000713
        },
        {
          "name": "G2",
          "midi": 43,
          "time": 196.28040274999924,
          "velocity": 0.7480314960629921,
          "duration": 0.18292675000000713
        },
        {
          "name": "G3",
          "midi": 55,
          "time": 196.46332949999925,
          "velocity": 0.7480314960629921,
          "duration": 0.18292675000000713
        },
        {
          "name": "D3",
          "midi": 50,
          "time": 196.46332949999925,
          "velocity": 0.7480314960629921,
          "duration": 0.18292675000000713
        },
        {
          "name": "G2",
          "midi": 43,
          "time": 196.46332949999925,
          "velocity": 0.7480314960629921,
          "duration": 0.18292675000000713
        },
        {
          "name": "G3",
          "midi": 55,
          "time": 196.64625624999925,
          "velocity": 0.7480314960629921,
          "duration": 0.18292675000000713
        },
        {
          "name": "D3",
          "midi": 50,
          "time": 196.64625624999925,
          "velocity": 0.7480314960629921,
          "duration": 0.18292675000000713
        },
        {
          "name": "G2",
          "midi": 43,
          "time": 196.64625624999925,
          "velocity": 0.7480314960629921,
          "duration": 0.18292675000000713
        },
        {
          "name": "G3",
          "midi": 55,
          "time": 196.82918299999926,
          "velocity": 0.7480314960629921,
          "duration": 0.18292675000000713
        },
        {
          "name": "D3",
          "midi": 50,
          "time": 196.82918299999926,
          "velocity": 0.7480314960629921,
          "duration": 0.18292675000000713
        },
        {
          "name": "G2",
          "midi": 43,
          "time": 196.82918299999926,
          "velocity": 0.7480314960629921,
          "duration": 0.18292675000000713
        },
        {
          "name": "G3",
          "midi": 55,
          "time": 197.01210974999927,
          "velocity": 0.7480314960629921,
          "duration": 0.18292675000000713
        },
        {
          "name": "D3",
          "midi": 50,
          "time": 197.01210974999927,
          "velocity": 0.7480314960629921,
          "duration": 0.18292675000000713
        },
        {
          "name": "G2",
          "midi": 43,
          "time": 197.01210974999927,
          "velocity": 0.7480314960629921,
          "duration": 0.18292675000000713
        },
        {
          "name": "G3",
          "midi": 55,
          "time": 197.19503649999928,
          "velocity": 0.7480314960629921,
          "duration": 0.18292675000000713
        },
        {
          "name": "D3",
          "midi": 50,
          "time": 197.19503649999928,
          "velocity": 0.7480314960629921,
          "duration": 0.18292675000000713
        },
        {
          "name": "G2",
          "midi": 43,
          "time": 197.19503649999928,
          "velocity": 0.7480314960629921,
          "duration": 0.18292675000000713
        },
        {
          "name": "D3",
          "midi": 50,
          "time": 197.37796324999928,
          "velocity": 0.7480314960629921,
          "duration": 0.18292675000000713
        },
        {
          "name": "A2",
          "midi": 45,
          "time": 197.37796324999928,
          "velocity": 0.7480314960629921,
          "duration": 0.18292675000000713
        },
        {
          "name": "D2",
          "midi": 38,
          "time": 197.37796324999928,
          "velocity": 0.7480314960629921,
          "duration": 0.18292675000000713
        },
        {
          "name": "B3",
          "midi": 59,
          "time": 197.5608899999993,
          "velocity": 0.7480314960629921,
          "duration": 0.18292675000000713
        },
        {
          "name": "F#3",
          "midi": 54,
          "time": 197.5608899999993,
          "velocity": 0.7480314960629921,
          "duration": 0.18292675000000713
        },
        {
          "name": "B2",
          "midi": 47,
          "time": 197.5608899999993,
          "velocity": 0.7480314960629921,
          "duration": 0.18292675000000713
        },
        {
          "name": "B3",
          "midi": 59,
          "time": 197.7438167499993,
          "velocity": 0.7480314960629921,
          "duration": 0.18292675000000713
        },
        {
          "name": "F#3",
          "midi": 54,
          "time": 197.7438167499993,
          "velocity": 0.7480314960629921,
          "duration": 0.18292675000000713
        },
        {
          "name": "B2",
          "midi": 47,
          "time": 197.7438167499993,
          "velocity": 0.7480314960629921,
          "duration": 0.18292675000000713
        },
        {
          "name": "B3",
          "midi": 59,
          "time": 197.9267434999993,
          "velocity": 0.7480314960629921,
          "duration": 0.18292675000000713
        },
        {
          "name": "F#3",
          "midi": 54,
          "time": 197.9267434999993,
          "velocity": 0.7480314960629921,
          "duration": 0.18292675000000713
        },
        {
          "name": "B2",
          "midi": 47,
          "time": 197.9267434999993,
          "velocity": 0.7480314960629921,
          "duration": 0.18292675000000713
        },
        {
          "name": "B3",
          "midi": 59,
          "time": 198.1096702499993,
          "velocity": 0.7480314960629921,
          "duration": 0.18292675000000713
        },
        {
          "name": "F#3",
          "midi": 54,
          "time": 198.1096702499993,
          "velocity": 0.7480314960629921,
          "duration": 0.18292675000000713
        },
        {
          "name": "B2",
          "midi": 47,
          "time": 198.1096702499993,
          "velocity": 0.7480314960629921,
          "duration": 0.18292675000000713
        },
        {
          "name": "B3",
          "midi": 59,
          "time": 198.29259699999932,
          "velocity": 0.7480314960629921,
          "duration": 0.18292675000000713
        },
        {
          "name": "F#3",
          "midi": 54,
          "time": 198.29259699999932,
          "velocity": 0.7480314960629921,
          "duration": 0.18292675000000713
        },
        {
          "name": "B2",
          "midi": 47,
          "time": 198.29259699999932,
          "velocity": 0.7480314960629921,
          "duration": 0.18292675000000713
        },
        {
          "name": "B3",
          "midi": 59,
          "time": 198.47552374999933,
          "velocity": 0.7480314960629921,
          "duration": 0.18292675000000713
        },
        {
          "name": "F#3",
          "midi": 54,
          "time": 198.47552374999933,
          "velocity": 0.7480314960629921,
          "duration": 0.18292675000000713
        },
        {
          "name": "B2",
          "midi": 47,
          "time": 198.47552374999933,
          "velocity": 0.7480314960629921,
          "duration": 0.18292675000000713
        },
        {
          "name": "B3",
          "midi": 59,
          "time": 198.65845049999933,
          "velocity": 0.7480314960629921,
          "duration": 0.18292675000000713
        },
        {
          "name": "F#3",
          "midi": 54,
          "time": 198.65845049999933,
          "velocity": 0.7480314960629921,
          "duration": 0.18292675000000713
        },
        {
          "name": "B2",
          "midi": 47,
          "time": 198.65845049999933,
          "velocity": 0.7480314960629921,
          "duration": 0.18292675000000713
        },
        {
          "name": "B3",
          "midi": 59,
          "time": 198.84137724999934,
          "velocity": 0.7480314960629921,
          "duration": 0.18292675000000713
        },
        {
          "name": "F#3",
          "midi": 54,
          "time": 198.84137724999934,
          "velocity": 0.7480314960629921,
          "duration": 0.18292675000000713
        },
        {
          "name": "B2",
          "midi": 47,
          "time": 198.84137724999934,
          "velocity": 0.7480314960629921,
          "duration": 0.18292675000000713
        },
        {
          "name": "B3",
          "midi": 59,
          "time": 199.02430399999935,
          "velocity": 0.7480314960629921,
          "duration": 0.18292675000000713
        },
        {
          "name": "F#3",
          "midi": 54,
          "time": 199.02430399999935,
          "velocity": 0.7480314960629921,
          "duration": 0.18292675000000713
        },
        {
          "name": "B2",
          "midi": 47,
          "time": 199.02430399999935,
          "velocity": 0.7480314960629921,
          "duration": 0.18292675000000713
        },
        {
          "name": "B3",
          "midi": 59,
          "time": 199.20723074999935,
          "velocity": 0.7480314960629921,
          "duration": 0.18292675000000713
        },
        {
          "name": "F#3",
          "midi": 54,
          "time": 199.20723074999935,
          "velocity": 0.7480314960629921,
          "duration": 0.18292675000000713
        },
        {
          "name": "B2",
          "midi": 47,
          "time": 199.20723074999935,
          "velocity": 0.7480314960629921,
          "duration": 0.18292675000000713
        },
        {
          "name": "B3",
          "midi": 59,
          "time": 199.39015749999936,
          "velocity": 0.7480314960629921,
          "duration": 0.18292675000000713
        },
        {
          "name": "F#3",
          "midi": 54,
          "time": 199.39015749999936,
          "velocity": 0.7480314960629921,
          "duration": 0.18292675000000713
        },
        {
          "name": "B2",
          "midi": 47,
          "time": 199.39015749999936,
          "velocity": 0.7480314960629921,
          "duration": 0.18292675000000713
        },
        {
          "name": "B3",
          "midi": 59,
          "time": 199.57308424999937,
          "velocity": 0.7480314960629921,
          "duration": 0.18292675000000713
        },
        {
          "name": "F#3",
          "midi": 54,
          "time": 199.57308424999937,
          "velocity": 0.7480314960629921,
          "duration": 0.18292675000000713
        },
        {
          "name": "B2",
          "midi": 47,
          "time": 199.57308424999937,
          "velocity": 0.7480314960629921,
          "duration": 0.18292675000000713
        },
        {
          "name": "B3",
          "midi": 59,
          "time": 199.75601099999938,
          "velocity": 0.7480314960629921,
          "duration": 0.18292675000000713
        },
        {
          "name": "F#3",
          "midi": 54,
          "time": 199.75601099999938,
          "velocity": 0.7480314960629921,
          "duration": 0.18292675000000713
        },
        {
          "name": "B2",
          "midi": 47,
          "time": 199.75601099999938,
          "velocity": 0.7480314960629921,
          "duration": 0.18292675000000713
        },
        {
          "name": "B3",
          "midi": 59,
          "time": 199.93893774999938,
          "velocity": 0.7480314960629921,
          "duration": 0.18292675000000713
        },
        {
          "name": "F#3",
          "midi": 54,
          "time": 199.93893774999938,
          "velocity": 0.7480314960629921,
          "duration": 0.18292675000000713
        },
        {
          "name": "B2",
          "midi": 47,
          "time": 199.93893774999938,
          "velocity": 0.7480314960629921,
          "duration": 0.18292675000000713
        },
        {
          "name": "B3",
          "midi": 59,
          "time": 200.1218644999994,
          "velocity": 0.7480314960629921,
          "duration": 0.18292675000000713
        },
        {
          "name": "F#3",
          "midi": 54,
          "time": 200.1218644999994,
          "velocity": 0.7480314960629921,
          "duration": 0.18292675000000713
        },
        {
          "name": "B2",
          "midi": 47,
          "time": 200.1218644999994,
          "velocity": 0.7480314960629921,
          "duration": 0.18292675000000713
        },
        {
          "name": "D3",
          "midi": 50,
          "time": 200.3047912499994,
          "velocity": 0.7480314960629921,
          "duration": 0.18292675000000713
        },
        {
          "name": "A2",
          "midi": 45,
          "time": 200.3047912499994,
          "velocity": 0.7480314960629921,
          "duration": 0.18292675000000713
        },
        {
          "name": "D2",
          "midi": 38,
          "time": 200.3047912499994,
          "velocity": 0.7480314960629921,
          "duration": 0.18292675000000713
        },
        {
          "name": "A3",
          "midi": 57,
          "time": 200.4877179999994,
          "velocity": 0.7480314960629921,
          "duration": 0.18292675000000713
        },
        {
          "name": "D3",
          "midi": 50,
          "time": 200.4877179999994,
          "velocity": 0.7480314960629921,
          "duration": 0.18292675000000713
        },
        {
          "name": "G2",
          "midi": 43,
          "time": 200.4877179999994,
          "velocity": 0.7480314960629921,
          "duration": 0.18292675000000713
        },
        {
          "name": "E3",
          "midi": 52,
          "time": 203.4145459999994,
          "velocity": 0.7480314960629921,
          "duration": 0.18292675000000713
        },
        {
          "name": "B2",
          "midi": 47,
          "time": 203.4145459999994,
          "velocity": 0.7480314960629921,
          "duration": 0.18292675000000713
        },
        {
          "name": "E2",
          "midi": 40,
          "time": 203.4145459999994,
          "velocity": 0.7480314960629921,
          "duration": 0.18292675000000713
        },
        {
          "name": "B2",
          "midi": 47,
          "time": 203.5974727499994,
          "velocity": 0.6771653543307087,
          "duration": 0.18292675000000713
        },
        {
          "name": "E2",
          "midi": 40,
          "time": 203.5974727499994,
          "velocity": 0.6771653543307087,
          "duration": 0.18292675000000713
        },
        {
          "name": "B2",
          "midi": 47,
          "time": 203.96332624999943,
          "velocity": 0.6771653543307087,
          "duration": 0.18292675000000713
        },
        {
          "name": "E2",
          "midi": 40,
          "time": 203.96332624999943,
          "velocity": 0.6771653543307087,
          "duration": 0.18292675000000713
        },
        {
          "name": "B2",
          "midi": 47,
          "time": 204.32917974999944,
          "velocity": 0.6771653543307087,
          "duration": 0.18292675000000713
        },
        {
          "name": "E2",
          "midi": 40,
          "time": 204.32917974999944,
          "velocity": 0.6771653543307087,
          "duration": 0.18292675000000713
        },
        {
          "name": "D3",
          "midi": 50,
          "time": 204.51210649999945,
          "velocity": 0.7480314960629921,
          "duration": 9.146337500000328
        },
        {
          "name": "A2",
          "midi": 45,
          "time": 204.51210649999945,
          "velocity": 0.7480314960629921,
          "duration": 9.146337500000328
        },
        {
          "name": "D2",
          "midi": 38,
          "time": 204.51210649999945,
          "velocity": 0.7480314960629921,
          "duration": 9.146337500000328
        }
      ],
      "controlChanges": {
        "6": [
          {
            "number": 6,
            "time": 0,
            "value": 0.09448818897637795
          },
          {
            "number": 6,
            "time": 0,
            "value": 0.09448818897637795
          }
        ],
        "7": [
          {
            "number": 7,
            "time": 0,
            "value": 0.9448818897637795
          },
          {
            "number": 7,
            "time": 0,
            "value": 0.9448818897637795
          },
          {
            "number": 7,
            "time": 128.78043199999786,
            "value": 0.09448818897637795
          },
          {
            "number": 7,
            "time": 128.78043199999786,
            "value": 0.09448818897637795
          },
          {
            "number": 7,
            "time": 128.96335874999787,
            "value": 0.1889763779527559
          },
          {
            "number": 7,
            "time": 128.96335874999787,
            "value": 0.1889763779527559
          },
          {
            "number": 7,
            "time": 129.14628549999787,
            "value": 0.28346456692913385
          },
          {
            "number": 7,
            "time": 129.14628549999787,
            "value": 0.28346456692913385
          },
          {
            "number": 7,
            "time": 129.32921224999788,
            "value": 0.3779527559055118
          },
          {
            "number": 7,
            "time": 129.32921224999788,
            "value": 0.3779527559055118
          },
          {
            "number": 7,
            "time": 129.5121389999979,
            "value": 0.47244094488188976
          },
          {
            "number": 7,
            "time": 129.5121389999979,
            "value": 0.47244094488188976
          },
          {
            "number": 7,
            "time": 129.6950657499979,
            "value": 0.5669291338582677
          },
          {
            "number": 7,
            "time": 129.6950657499979,
            "value": 0.5669291338582677
          },
          {
            "number": 7,
            "time": 129.8779924999979,
            "value": 0.6614173228346457
          },
          {
            "number": 7,
            "time": 129.8779924999979,
            "value": 0.6614173228346457
          },
          {
            "number": 7,
            "time": 130.0609192499979,
            "value": 0.7559055118110236
          },
          {
            "number": 7,
            "time": 130.0609192499979,
            "value": 0.7559055118110236
          },
          {
            "number": 7,
            "time": 130.24384599999792,
            "value": 0.8503937007874016
          },
          {
            "number": 7,
            "time": 130.24384599999792,
            "value": 0.8503937007874016
          },
          {
            "number": 7,
            "time": 130.42677274999792,
            "value": 0.9448818897637795
          },
          {
            "number": 7,
            "time": 130.42677274999792,
            "value": 0.9448818897637795
          },
          {
            "number": 7,
            "time": 204.87795999999943,
            "value": 0.9291338582677166
          },
          {
            "number": 7,
            "time": 204.87795999999943,
            "value": 0.9291338582677166
          },
          {
            "number": 7,
            "time": 205.06088674999944,
            "value": 0.905511811023622
          },
          {
            "number": 7,
            "time": 205.06088674999944,
            "value": 0.905511811023622
          },
          {
            "number": 7,
            "time": 205.24381349999945,
            "value": 0.889763779527559
          },
          {
            "number": 7,
            "time": 205.24381349999945,
            "value": 0.889763779527559
          },
          {
            "number": 7,
            "time": 205.42674024999945,
            "value": 0.8661417322834646
          },
          {
            "number": 7,
            "time": 205.42674024999945,
            "value": 0.8661417322834646
          },
          {
            "number": 7,
            "time": 205.60966699999946,
            "value": 0.8503937007874016
          },
          {
            "number": 7,
            "time": 205.60966699999946,
            "value": 0.8503937007874016
          },
          {
            "number": 7,
            "time": 205.79259374999947,
            "value": 0.8267716535433071
          },
          {
            "number": 7,
            "time": 205.79259374999947,
            "value": 0.8267716535433071
          },
          {
            "number": 7,
            "time": 205.97552049999948,
            "value": 0.8110236220472441
          },
          {
            "number": 7,
            "time": 205.97552049999948,
            "value": 0.8110236220472441
          },
          {
            "number": 7,
            "time": 206.15844724999948,
            "value": 0.7874015748031497
          },
          {
            "number": 7,
            "time": 206.15844724999948,
            "value": 0.7874015748031497
          },
          {
            "number": 7,
            "time": 206.3413739999995,
            "value": 0.7716535433070866
          },
          {
            "number": 7,
            "time": 206.3413739999995,
            "value": 0.7716535433070866
          },
          {
            "number": 7,
            "time": 206.5243007499995,
            "value": 0.7559055118110236
          },
          {
            "number": 7,
            "time": 206.5243007499995,
            "value": 0.7559055118110236
          },
          {
            "number": 7,
            "time": 206.7072274999995,
            "value": 0.7322834645669292
          },
          {
            "number": 7,
            "time": 206.7072274999995,
            "value": 0.7322834645669292
          },
          {
            "number": 7,
            "time": 206.8901542499995,
            "value": 0.7165354330708661
          },
          {
            "number": 7,
            "time": 206.8901542499995,
            "value": 0.7165354330708661
          },
          {
            "number": 7,
            "time": 207.07308099999952,
            "value": 0.6929133858267716
          },
          {
            "number": 7,
            "time": 207.07308099999952,
            "value": 0.6929133858267716
          },
          {
            "number": 7,
            "time": 207.25600774999953,
            "value": 0.6771653543307087
          },
          {
            "number": 7,
            "time": 207.25600774999953,
            "value": 0.6771653543307087
          },
          {
            "number": 7,
            "time": 207.43893449999953,
            "value": 0.6535433070866141
          },
          {
            "number": 7,
            "time": 207.43893449999953,
            "value": 0.6535433070866141
          },
          {
            "number": 7,
            "time": 207.62186124999954,
            "value": 0.6377952755905512
          },
          {
            "number": 7,
            "time": 207.62186124999954,
            "value": 0.6377952755905512
          },
          {
            "number": 7,
            "time": 207.80478799999955,
            "value": 0.6141732283464567
          },
          {
            "number": 7,
            "time": 207.80478799999955,
            "value": 0.6141732283464567
          },
          {
            "number": 7,
            "time": 207.98771474999955,
            "value": 0.5984251968503937
          },
          {
            "number": 7,
            "time": 207.98771474999955,
            "value": 0.5984251968503937
          },
          {
            "number": 7,
            "time": 208.17064149999956,
            "value": 0.5748031496062992
          },
          {
            "number": 7,
            "time": 208.17064149999956,
            "value": 0.5748031496062992
          },
          {
            "number": 7,
            "time": 208.35356824999957,
            "value": 0.5590551181102362
          },
          {
            "number": 7,
            "time": 208.35356824999957,
            "value": 0.5590551181102362
          },
          {
            "number": 7,
            "time": 208.53649499999958,
            "value": 0.5433070866141733
          },
          {
            "number": 7,
            "time": 208.53649499999958,
            "value": 0.5433070866141733
          },
          {
            "number": 7,
            "time": 208.71942174999958,
            "value": 0.5196850393700787
          },
          {
            "number": 7,
            "time": 208.71942174999958,
            "value": 0.5196850393700787
          },
          {
            "number": 7,
            "time": 208.9023484999996,
            "value": 0.5039370078740157
          },
          {
            "number": 7,
            "time": 208.9023484999996,
            "value": 0.5039370078740157
          },
          {
            "number": 7,
            "time": 209.0852752499996,
            "value": 0.48031496062992124
          },
          {
            "number": 7,
            "time": 209.0852752499996,
            "value": 0.48031496062992124
          },
          {
            "number": 7,
            "time": 209.2682019999996,
            "value": 0.4645669291338583
          },
          {
            "number": 7,
            "time": 209.2682019999996,
            "value": 0.4645669291338583
          },
          {
            "number": 7,
            "time": 209.4511287499996,
            "value": 0.4409448818897638
          },
          {
            "number": 7,
            "time": 209.4511287499996,
            "value": 0.4409448818897638
          },
          {
            "number": 7,
            "time": 209.63405549999962,
            "value": 0.4251968503937008
          },
          {
            "number": 7,
            "time": 209.63405549999962,
            "value": 0.4251968503937008
          },
          {
            "number": 7,
            "time": 209.81698224999963,
            "value": 0.4015748031496063
          },
          {
            "number": 7,
            "time": 209.81698224999963,
            "value": 0.4015748031496063
          },
          {
            "number": 7,
            "time": 209.99990899999963,
            "value": 0.3858267716535433
          },
          {
            "number": 7,
            "time": 209.99990899999963,
            "value": 0.3858267716535433
          },
          {
            "number": 7,
            "time": 210.18283574999964,
            "value": 0.3700787401574803
          },
          {
            "number": 7,
            "time": 210.18283574999964,
            "value": 0.3700787401574803
          },
          {
            "number": 7,
            "time": 210.36576249999965,
            "value": 0.3464566929133858
          },
          {
            "number": 7,
            "time": 210.36576249999965,
            "value": 0.3464566929133858
          },
          {
            "number": 7,
            "time": 210.54868924999965,
            "value": 0.33070866141732286
          },
          {
            "number": 7,
            "time": 210.54868924999965,
            "value": 0.33070866141732286
          },
          {
            "number": 7,
            "time": 210.73161599999966,
            "value": 0.30708661417322836
          },
          {
            "number": 7,
            "time": 210.73161599999966,
            "value": 0.30708661417322836
          },
          {
            "number": 7,
            "time": 210.91454274999967,
            "value": 0.29133858267716534
          },
          {
            "number": 7,
            "time": 210.91454274999967,
            "value": 0.29133858267716534
          },
          {
            "number": 7,
            "time": 211.09746949999968,
            "value": 0.2677165354330709
          },
          {
            "number": 7,
            "time": 211.09746949999968,
            "value": 0.2677165354330709
          },
          {
            "number": 7,
            "time": 211.28039624999968,
            "value": 0.25196850393700787
          },
          {
            "number": 7,
            "time": 211.28039624999968,
            "value": 0.25196850393700787
          },
          {
            "number": 7,
            "time": 211.4633229999997,
            "value": 0.2283464566929134
          },
          {
            "number": 7,
            "time": 211.4633229999997,
            "value": 0.2283464566929134
          },
          {
            "number": 7,
            "time": 211.6462497499997,
            "value": 0.2125984251968504
          },
          {
            "number": 7,
            "time": 211.6462497499997,
            "value": 0.2125984251968504
          },
          {
            "number": 7,
            "time": 211.8291764999997,
            "value": 0.1889763779527559
          },
          {
            "number": 7,
            "time": 211.8291764999997,
            "value": 0.1889763779527559
          },
          {
            "number": 7,
            "time": 212.0121032499997,
            "value": 0.1732283464566929
          },
          {
            "number": 7,
            "time": 212.0121032499997,
            "value": 0.1732283464566929
          },
          {
            "number": 7,
            "time": 212.19502999999972,
            "value": 0.15748031496062992
          },
          {
            "number": 7,
            "time": 212.19502999999972,
            "value": 0.15748031496062992
          },
          {
            "number": 7,
            "time": 212.37795674999973,
            "value": 0.13385826771653545
          },
          {
            "number": 7,
            "time": 212.37795674999973,
            "value": 0.13385826771653545
          },
          {
            "number": 7,
            "time": 212.56088349999973,
            "value": 0.11811023622047244
          },
          {
            "number": 7,
            "time": 212.56088349999973,
            "value": 0.11811023622047244
          },
          {
            "number": 7,
            "time": 212.74381024999974,
            "value": 0.09448818897637795
          },
          {
            "number": 7,
            "time": 212.74381024999974,
            "value": 0.09448818897637795
          },
          {
            "number": 7,
            "time": 212.92673699999975,
            "value": 0.07874015748031496
          },
          {
            "number": 7,
            "time": 212.92673699999975,
            "value": 0.07874015748031496
          },
          {
            "number": 7,
            "time": 213.10966374999975,
            "value": 0.05511811023622047
          },
          {
            "number": 7,
            "time": 213.10966374999975,
            "value": 0.05511811023622047
          },
          {
            "number": 7,
            "time": 213.29259049999976,
            "value": 0.03937007874015748
          },
          {
            "number": 7,
            "time": 213.29259049999976,
            "value": 0.03937007874015748
          },
          {
            "number": 7,
            "time": 213.47551724999977,
            "value": 0.015748031496062992
          },
          {
            "number": 7,
            "time": 213.47551724999977,
            "value": 0.015748031496062992
          },
          {
            "number": 7,
            "time": 213.65844399999978,
            "value": 0
          },
          {
            "number": 7,
            "time": 213.65844399999978,
            "value": 0
          }
        ],
        "10": [
          {
            "number": 10,
            "time": 0,
            "value": 0.8188976377952756
          },
          {
            "number": 10,
            "time": 0,
            "value": 0.8188976377952756
          }
        ],
        "91": [
          {
            "number": 91,
            "time": 0,
            "value": 0
          },
          {
            "number": 91,
            "time": 0,
            "value": 0
          }
        ],
        "92": [
          {
            "number": 92,
            "time": 0,
            "value": 0
          },
          {
            "number": 92,
            "time": 0,
            "value": 0
          }
        ],
        "93": [
          {
            "number": 93,
            "time": 0,
            "value": 0
          },
          {
            "number": 93,
            "time": 0,
            "value": 0
          }
        ],
        "95": [
          {
            "number": 95,
            "time": 0,
            "value": 0
          },
          {
            "number": 95,
            "time": 0,
            "value": 0
          }
        ],
        "100": [
          {
            "number": 100,
            "time": 0,
            "value": 0
          },
          {
            "number": 100,
            "time": 0,
            "value": 0
          }
        ],
        "101": [
          {
            "number": 101,
            "time": 0,
            "value": 0
          },
          {
            "number": 101,
            "time": 0,
            "value": 0
          }
        ]
      },
      "id": 2,
      "name": "Track 2",
      "instrumentNumber": 30,
      "instrument": "distortion guitar",
      "instrumentFamily": "guitar",
      "channelNumber": 3,
      "isPercussion": false
    },
    {
      "startTime": 2.195121,
      "duration": 213.65844399999946,
      "length": 838,
      "notes": [
        {
          "name": "D1",
          "midi": 26,
          "time": 2.195121,
          "velocity": 0.7480314960629921,
          "duration": 0.03048779166666682
        },
        {
          "name": "D1",
          "midi": 26,
          "time": 2.37804775,
          "velocity": 0.7480314960629921,
          "duration": 0.03048779166666682
        },
        {
          "name": "D1",
          "midi": 26,
          "time": 2.5609745,
          "velocity": 0.7480314960629921,
          "duration": 0.03048779166666682
        },
        {
          "name": "D1",
          "midi": 26,
          "time": 2.74390125,
          "velocity": 0.7480314960629921,
          "duration": 0.03048779166666682
        },
        {
          "name": "D1",
          "midi": 26,
          "time": 2.926828,
          "velocity": 0.7480314960629921,
          "duration": 0.18292675000000003
        },
        {
          "name": "D1",
          "midi": 26,
          "time": 3.10975475,
          "velocity": 0.7480314960629921,
          "duration": 0.18292675000000003
        },
        {
          "name": "D1",
          "midi": 26,
          "time": 3.2926815,
          "velocity": 0.7480314960629921,
          "duration": 0.18292675000000003
        },
        {
          "name": "D1",
          "midi": 26,
          "time": 3.47560825,
          "velocity": 0.7480314960629921,
          "duration": 0.18292675000000003
        },
        {
          "name": "D1",
          "midi": 26,
          "time": 3.658535,
          "velocity": 0.7480314960629921,
          "duration": 0.18292675000000003
        },
        {
          "name": "D1",
          "midi": 26,
          "time": 3.84146175,
          "velocity": 0.7480314960629921,
          "duration": 0.18292674999999958
        },
        {
          "name": "D1",
          "midi": 26,
          "time": 4.0243885,
          "velocity": 0.7480314960629921,
          "duration": 0.18292675000000003
        },
        {
          "name": "D1",
          "midi": 26,
          "time": 4.20731525,
          "velocity": 0.7480314960629921,
          "duration": 0.18292675000000003
        },
        {
          "name": "D1",
          "midi": 26,
          "time": 4.390242,
          "velocity": 0.7480314960629921,
          "duration": 0.18292675000000003
        },
        {
          "name": "D1",
          "midi": 26,
          "time": 4.57316875,
          "velocity": 0.7480314960629921,
          "duration": 0.18292675000000003
        },
        {
          "name": "D1",
          "midi": 26,
          "time": 4.7560955,
          "velocity": 0.7480314960629921,
          "duration": 0.18292675000000003
        },
        {
          "name": "D1",
          "midi": 26,
          "time": 4.93902225,
          "velocity": 0.7480314960629921,
          "duration": 0.18292675000000003
        },
        {
          "name": "D1",
          "midi": 26,
          "time": 5.121949,
          "velocity": 0.7480314960629921,
          "duration": 0.18292675000000003
        },
        {
          "name": "D1",
          "midi": 26,
          "time": 5.30487575,
          "velocity": 0.7480314960629921,
          "duration": 0.18292675000000003
        },
        {
          "name": "D1",
          "midi": 26,
          "time": 5.4878025,
          "velocity": 0.7480314960629921,
          "duration": 0.18292675000000003
        },
        {
          "name": "D1",
          "midi": 26,
          "time": 5.67072925,
          "velocity": 0.7480314960629921,
          "duration": 0.18292675000000003
        },
        {
          "name": "G1",
          "midi": 31,
          "time": 5.853656,
          "velocity": 0.7480314960629921,
          "duration": 0.18292675000000003
        },
        {
          "name": "G1",
          "midi": 31,
          "time": 6.03658275,
          "velocity": 0.7480314960629921,
          "duration": 0.18292675000000003
        },
        {
          "name": "G1",
          "midi": 31,
          "time": 6.2195095,
          "velocity": 0.7480314960629921,
          "duration": 0.18292675000000003
        },
        {
          "name": "G1",
          "midi": 31,
          "time": 6.40243625,
          "velocity": 0.7480314960629921,
          "duration": 0.18292675000000003
        },
        {
          "name": "G1",
          "midi": 31,
          "time": 6.585363,
          "velocity": 0.7480314960629921,
          "duration": 0.18292675000000003
        },
        {
          "name": "G1",
          "midi": 31,
          "time": 6.76828975,
          "velocity": 0.7480314960629921,
          "duration": 0.18292675000000003
        },
        {
          "name": "G1",
          "midi": 31,
          "time": 6.9512165,
          "velocity": 0.7480314960629921,
          "duration": 0.18292675000000003
        },
        {
          "name": "G1",
          "midi": 31,
          "time": 7.13414325,
          "velocity": 0.7480314960629921,
          "duration": 0.18292675000000003
        },
        {
          "name": "G1",
          "midi": 31,
          "time": 7.31707,
          "velocity": 0.7480314960629921,
          "duration": 0.18292675000000003
        },
        {
          "name": "G1",
          "midi": 31,
          "time": 7.49999675,
          "velocity": 0.7480314960629921,
          "duration": 0.18292675000000003
        },
        {
          "name": "G1",
          "midi": 31,
          "time": 7.6829235,
          "velocity": 0.7480314960629921,
          "duration": 0.18292675000000003
        },
        {
          "name": "G1",
          "midi": 31,
          "time": 7.86585025,
          "velocity": 0.7480314960629921,
          "duration": 0.18292674999999914
        },
        {
          "name": "G1",
          "midi": 31,
          "time": 8.048777,
          "velocity": 0.7480314960629921,
          "duration": 0.18292675000000003
        },
        {
          "name": "G1",
          "midi": 31,
          "time": 8.23170375,
          "velocity": 0.7480314960629921,
          "duration": 0.18292675000000003
        },
        {
          "name": "G1",
          "midi": 31,
          "time": 8.4146305,
          "velocity": 0.7480314960629921,
          "duration": 0.18292675000000003
        },
        {
          "name": "G1",
          "midi": 31,
          "time": 8.59755725,
          "velocity": 0.7480314960629921,
          "duration": 0.1829267500000018
        },
        {
          "name": "B1",
          "midi": 35,
          "time": 8.780484000000001,
          "velocity": 0.6771653543307087,
          "duration": 0.18292675000000003
        },
        {
          "name": "B1",
          "midi": 35,
          "time": 8.963410750000001,
          "velocity": 0.7480314960629921,
          "duration": 0.18292675000000003
        },
        {
          "name": "B1",
          "midi": 35,
          "time": 9.146337500000001,
          "velocity": 0.7480314960629921,
          "duration": 0.18292675000000003
        },
        {
          "name": "B1",
          "midi": 35,
          "time": 9.329264250000001,
          "velocity": 0.7480314960629921,
          "duration": 0.18292675000000003
        },
        {
          "name": "B1",
          "midi": 35,
          "time": 9.512191000000001,
          "velocity": 0.7480314960629921,
          "duration": 0.18292675000000003
        },
        {
          "name": "B1",
          "midi": 35,
          "time": 9.695117750000001,
          "velocity": 0.7480314960629921,
          "duration": 0.18292675000000003
        },
        {
          "name": "B1",
          "midi": 35,
          "time": 9.878044500000001,
          "velocity": 0.7480314960629921,
          "duration": 0.18292675000000003
        },
        {
          "name": "B1",
          "midi": 35,
          "time": 10.060971250000001,
          "velocity": 0.7480314960629921,
          "duration": 0.18292675000000003
        },
        {
          "name": "B1",
          "midi": 35,
          "time": 10.243898000000002,
          "velocity": 0.7480314960629921,
          "duration": 0.18292675000000003
        },
        {
          "name": "B1",
          "midi": 35,
          "time": 10.426824750000002,
          "velocity": 0.7480314960629921,
          "duration": 0.18292675000000003
        },
        {
          "name": "B1",
          "midi": 35,
          "time": 10.609751500000002,
          "velocity": 0.7480314960629921,
          "duration": 0.18292675000000003
        },
        {
          "name": "B1",
          "midi": 35,
          "time": 10.792678250000002,
          "velocity": 0.7480314960629921,
          "duration": 0.18292675000000003
        },
        {
          "name": "B1",
          "midi": 35,
          "time": 10.975605000000002,
          "velocity": 0.7480314960629921,
          "duration": 0.18292675000000003
        },
        {
          "name": "B1",
          "midi": 35,
          "time": 11.158531750000002,
          "velocity": 0.7480314960629921,
          "duration": 0.18292675000000003
        },
        {
          "name": "B1",
          "midi": 35,
          "time": 11.341458500000002,
          "velocity": 0.7480314960629921,
          "duration": 0.18292675000000003
        },
        {
          "name": "D1",
          "midi": 26,
          "time": 11.524385250000002,
          "velocity": 0.7480314960629921,
          "duration": 0.18292675000000003
        },
        {
          "name": "G1",
          "midi": 31,
          "time": 11.707312000000002,
          "velocity": 0.7480314960629921,
          "duration": 0.18292675000000003
        },
        {
          "name": "G1",
          "midi": 31,
          "time": 11.890238750000002,
          "velocity": 0.7480314960629921,
          "duration": 0.18292675000000003
        },
        {
          "name": "G1",
          "midi": 31,
          "time": 12.073165500000002,
          "velocity": 0.7480314960629921,
          "duration": 0.18292675000000003
        },
        {
          "name": "G1",
          "midi": 31,
          "time": 12.256092250000002,
          "velocity": 0.7480314960629921,
          "duration": 0.18292675000000003
        },
        {
          "name": "G1",
          "midi": 31,
          "time": 12.439019000000002,
          "velocity": 0.7480314960629921,
          "duration": 0.18292675000000003
        },
        {
          "name": "G1",
          "midi": 31,
          "time": 12.621945750000002,
          "velocity": 0.7480314960629921,
          "duration": 0.18292675000000003
        },
        {
          "name": "G1",
          "midi": 31,
          "time": 12.804872500000002,
          "velocity": 0.7480314960629921,
          "duration": 0.18292675000000003
        },
        {
          "name": "G1",
          "midi": 31,
          "time": 12.987799250000002,
          "velocity": 0.7480314960629921,
          "duration": 0.18292675000000003
        },
        {
          "name": "G1",
          "midi": 31,
          "time": 13.170726000000002,
          "velocity": 0.7480314960629921,
          "duration": 0.18292675000000003
        },
        {
          "name": "G1",
          "midi": 31,
          "time": 13.353652750000002,
          "velocity": 0.7480314960629921,
          "duration": 0.18292675000000003
        },
        {
          "name": "G1",
          "midi": 31,
          "time": 13.536579500000002,
          "velocity": 0.7480314960629921,
          "duration": 0.18292675000000003
        },
        {
          "name": "G1",
          "midi": 31,
          "time": 13.719506250000002,
          "velocity": 0.7480314960629921,
          "duration": 0.18292675000000003
        },
        {
          "name": "D1",
          "midi": 26,
          "time": 13.902433000000002,
          "velocity": 0.7480314960629921,
          "duration": 0.030487791666667263
        },
        {
          "name": "D1",
          "midi": 26,
          "time": 14.085359750000002,
          "velocity": 0.7480314960629921,
          "duration": 0.030487791666667263
        },
        {
          "name": "D1",
          "midi": 26,
          "time": 14.268286500000002,
          "velocity": 0.7480314960629921,
          "duration": 0.030487791666667263
        },
        {
          "name": "D1",
          "midi": 26,
          "time": 14.451213250000002,
          "velocity": 0.7480314960629921,
          "duration": 0.030487791666667263
        },
        {
          "name": "D1",
          "midi": 26,
          "time": 14.634140000000002,
          "velocity": 0.7480314960629921,
          "duration": 0.18292675000000003
        },
        {
          "name": "D1",
          "midi": 26,
          "time": 14.817066750000002,
          "velocity": 0.7480314960629921,
          "duration": 0.18292675000000003
        },
        {
          "name": "D1",
          "midi": 26,
          "time": 14.999993500000002,
          "velocity": 0.7480314960629921,
          "duration": 0.18292675000000003
        },
        {
          "name": "D1",
          "midi": 26,
          "time": 15.182920250000002,
          "velocity": 0.7480314960629921,
          "duration": 0.18292675000000003
        },
        {
          "name": "D1",
          "midi": 26,
          "time": 15.365847000000002,
          "velocity": 0.7480314960629921,
          "duration": 0.18292675000000003
        },
        {
          "name": "D1",
          "midi": 26,
          "time": 15.548773750000002,
          "velocity": 0.7480314960629921,
          "duration": 0.18292675000000003
        },
        {
          "name": "D1",
          "midi": 26,
          "time": 15.731700500000002,
          "velocity": 0.7480314960629921,
          "duration": 0.18292675000000003
        },
        {
          "name": "D1",
          "midi": 26,
          "time": 15.914627250000002,
          "velocity": 0.7480314960629921,
          "duration": 0.18292675000000003
        },
        {
          "name": "D1",
          "midi": 26,
          "time": 16.097554000000002,
          "velocity": 0.7480314960629921,
          "duration": 0.18292675000000003
        },
        {
          "name": "D1",
          "midi": 26,
          "time": 16.280480750000002,
          "velocity": 0.7480314960629921,
          "duration": 0.18292675000000003
        },
        {
          "name": "D1",
          "midi": 26,
          "time": 16.463407500000002,
          "velocity": 0.7480314960629921,
          "duration": 0.18292675000000003
        },
        {
          "name": "D1",
          "midi": 26,
          "time": 16.646334250000002,
          "velocity": 0.7480314960629921,
          "duration": 0.18292675000000003
        },
        {
          "name": "D1",
          "midi": 26,
          "time": 16.829261000000002,
          "velocity": 0.7480314960629921,
          "duration": 0.18292675000000003
        },
        {
          "name": "D1",
          "midi": 26,
          "time": 17.012187750000002,
          "velocity": 0.7480314960629921,
          "duration": 0.18292675000000003
        },
        {
          "name": "D1",
          "midi": 26,
          "time": 17.195114500000003,
          "velocity": 0.7480314960629921,
          "duration": 0.18292675000000003
        },
        {
          "name": "D1",
          "midi": 26,
          "time": 17.378041250000003,
          "velocity": 0.7480314960629921,
          "duration": 0.18292675000000003
        },
        {
          "name": "G1",
          "midi": 31,
          "time": 17.560968000000003,
          "velocity": 0.7480314960629921,
          "duration": 0.18292675000000003
        },
        {
          "name": "G1",
          "midi": 31,
          "time": 17.743894750000003,
          "velocity": 0.7480314960629921,
          "duration": 0.18292675000000003
        },
        {
          "name": "G1",
          "midi": 31,
          "time": 17.926821500000003,
          "velocity": 0.7480314960629921,
          "duration": 0.18292675000000003
        },
        {
          "name": "G1",
          "midi": 31,
          "time": 18.109748250000003,
          "velocity": 0.7480314960629921,
          "duration": 0.18292675000000003
        },
        {
          "name": "G1",
          "midi": 31,
          "time": 18.292675000000003,
          "velocity": 0.7480314960629921,
          "duration": 0.18292675000000003
        },
        {
          "name": "G1",
          "midi": 31,
          "time": 18.475601750000003,
          "velocity": 0.7480314960629921,
          "duration": 0.18292675000000003
        },
        {
          "name": "G1",
          "midi": 31,
          "time": 18.658528500000003,
          "velocity": 0.7480314960629921,
          "duration": 0.18292675000000003
        },
        {
          "name": "G1",
          "midi": 31,
          "time": 18.841455250000003,
          "velocity": 0.7480314960629921,
          "duration": 0.18292675000000003
        },
        {
          "name": "G1",
          "midi": 31,
          "time": 19.024382000000003,
          "velocity": 0.7480314960629921,
          "duration": 0.18292675000000003
        },
        {
          "name": "G1",
          "midi": 31,
          "time": 19.207308750000003,
          "velocity": 0.7480314960629921,
          "duration": 0.18292675000000003
        },
        {
          "name": "G1",
          "midi": 31,
          "time": 19.390235500000003,
          "velocity": 0.7480314960629921,
          "duration": 0.18292675000000003
        },
        {
          "name": "G1",
          "midi": 31,
          "time": 19.573162250000003,
          "velocity": 0.7480314960629921,
          "duration": 0.18292675000000003
        },
        {
          "name": "G1",
          "midi": 31,
          "time": 19.756089000000003,
          "velocity": 0.7480314960629921,
          "duration": 0.18292675000000003
        },
        {
          "name": "G1",
          "midi": 31,
          "time": 19.939015750000003,
          "velocity": 0.7480314960629921,
          "duration": 0.18292675000000003
        },
        {
          "name": "G1",
          "midi": 31,
          "time": 20.121942500000003,
          "velocity": 0.7480314960629921,
          "duration": 0.18292675000000003
        },
        {
          "name": "G1",
          "midi": 31,
          "time": 20.304869250000003,
          "velocity": 0.7480314960629921,
          "duration": 0.18292675000000003
        },
        {
          "name": "B1",
          "midi": 35,
          "time": 20.487796000000003,
          "velocity": 0.7480314960629921,
          "duration": 0.18292675000000003
        },
        {
          "name": "B1",
          "midi": 35,
          "time": 20.670722750000003,
          "velocity": 0.7480314960629921,
          "duration": 0.18292675000000003
        },
        {
          "name": "B1",
          "midi": 35,
          "time": 20.853649500000003,
          "velocity": 0.7480314960629921,
          "duration": 0.18292675000000003
        },
        {
          "name": "B1",
          "midi": 35,
          "time": 21.036576250000003,
          "velocity": 0.7480314960629921,
          "duration": 0.18292675000000003
        },
        {
          "name": "B1",
          "midi": 35,
          "time": 21.219503000000003,
          "velocity": 0.7480314960629921,
          "duration": 0.18292675000000003
        },
        {
          "name": "B1",
          "midi": 35,
          "time": 21.402429750000003,
          "velocity": 0.7480314960629921,
          "duration": 0.18292675000000003
        },
        {
          "name": "B1",
          "midi": 35,
          "time": 21.585356500000003,
          "velocity": 0.7480314960629921,
          "duration": 0.18292675000000003
        },
        {
          "name": "B1",
          "midi": 35,
          "time": 21.768283250000003,
          "velocity": 0.7480314960629921,
          "duration": 0.18292675000000003
        },
        {
          "name": "B1",
          "midi": 35,
          "time": 21.951210000000003,
          "velocity": 0.7480314960629921,
          "duration": 0.18292675000000003
        },
        {
          "name": "B1",
          "midi": 35,
          "time": 22.134136750000003,
          "velocity": 0.7480314960629921,
          "duration": 0.18292675000000003
        },
        {
          "name": "B1",
          "midi": 35,
          "time": 22.317063500000003,
          "velocity": 0.7480314960629921,
          "duration": 0.18292675000000003
        },
        {
          "name": "B1",
          "midi": 35,
          "time": 22.499990250000003,
          "velocity": 0.7480314960629921,
          "duration": 0.18292675000000003
        },
        {
          "name": "B1",
          "midi": 35,
          "time": 22.682917000000003,
          "velocity": 0.7480314960629921,
          "duration": 0.18292675000000003
        },
        {
          "name": "B1",
          "midi": 35,
          "time": 22.865843750000003,
          "velocity": 0.7480314960629921,
          "duration": 0.18292675000000003
        },
        {
          "name": "B1",
          "midi": 35,
          "time": 23.048770500000003,
          "velocity": 0.7480314960629921,
          "duration": 0.18292675000000003
        },
        {
          "name": "A1",
          "midi": 33,
          "time": 23.231697250000003,
          "velocity": 0.7480314960629921,
          "duration": 0.18292675000000003
        },
        {
          "name": "G1",
          "midi": 31,
          "time": 23.414624000000003,
          "velocity": 0.7480314960629921,
          "duration": 0.36585350000000005
        },
        {
          "name": "G1",
          "midi": 31,
          "time": 23.780477500000003,
          "velocity": 0.7480314960629921,
          "duration": 0.18292675000000003
        },
        {
          "name": "G1",
          "midi": 31,
          "time": 23.963404250000004,
          "velocity": 0.7480314960629921,
          "duration": 0.36585350000000005
        },
        {
          "name": "G1",
          "midi": 31,
          "time": 24.329257750000004,
          "velocity": 0.7480314960629921,
          "duration": 0.18292675000000003
        },
        {
          "name": "G1",
          "midi": 31,
          "time": 24.512184500000004,
          "velocity": 0.7480314960629921,
          "duration": 0.36585350000000005
        },
        {
          "name": "G1",
          "midi": 31,
          "time": 24.878038000000004,
          "velocity": 0.7480314960629921,
          "duration": 0.18292675000000003
        },
        {
          "name": "G1",
          "midi": 31,
          "time": 25.060964750000004,
          "velocity": 0.7480314960629921,
          "duration": 0.36585350000000005
        },
        {
          "name": "G1",
          "midi": 31,
          "time": 25.426818250000004,
          "velocity": 0.7480314960629921,
          "duration": 0.18292675000000003
        },
        {
          "name": "G1",
          "midi": 31,
          "time": 25.609745000000004,
          "velocity": 0.7480314960629921,
          "duration": 0.18292675000000003
        },
        {
          "name": "G1",
          "midi": 31,
          "time": 25.792671750000004,
          "velocity": 0.7480314960629921,
          "duration": 0.18292675000000003
        },
        {
          "name": "G1",
          "midi": 31,
          "time": 25.975598500000004,
          "velocity": 0.7480314960629921,
          "duration": 0.18292675000000003
        },
        {
          "name": "G1",
          "midi": 31,
          "time": 26.158525250000004,
          "velocity": 0.7480314960629921,
          "duration": 0.18292675000000003
        },
        {
          "name": "D2",
          "midi": 38,
          "time": 26.341452000000004,
          "velocity": 0.7480314960629921,
          "duration": 0.18292675000000003
        },
        {
          "name": "D2",
          "midi": 38,
          "time": 26.524378750000004,
          "velocity": 0.7480314960629921,
          "duration": 0.18292675000000003
        },
        {
          "name": "D2",
          "midi": 38,
          "time": 26.707305500000004,
          "velocity": 0.7480314960629921,
          "duration": 0.36585350000000005
        },
        {
          "name": "D2",
          "midi": 38,
          "time": 27.073159000000004,
          "velocity": 0.7480314960629921,
          "duration": 0.36585350000000005
        },
        {
          "name": "D2",
          "midi": 38,
          "time": 27.439012500000004,
          "velocity": 0.7480314960629921,
          "duration": 0.18292675000000003
        },
        {
          "name": "A1",
          "midi": 33,
          "time": 27.621939250000004,
          "velocity": 0.7480314960629921,
          "duration": 0.18292675000000003
        },
        {
          "name": "G1",
          "midi": 31,
          "time": 27.804866000000004,
          "velocity": 0.7480314960629921,
          "duration": 0.18292675000000003
        },
        {
          "name": "G1",
          "midi": 31,
          "time": 27.987792750000004,
          "velocity": 0.7480314960629921,
          "duration": 0.18292675000000003
        },
        {
          "name": "G1",
          "midi": 31,
          "time": 28.170719500000004,
          "velocity": 0.7480314960629921,
          "duration": 0.36585350000000005
        },
        {
          "name": "G1",
          "midi": 31,
          "time": 28.536573000000004,
          "velocity": 0.7480314960629921,
          "duration": 0.18292675000000003
        },
        {
          "name": "G1",
          "midi": 31,
          "time": 28.719499750000004,
          "velocity": 0.7480314960629921,
          "duration": 0.18292675000000003
        },
        {
          "name": "G1",
          "midi": 31,
          "time": 28.902426500000004,
          "velocity": 0.7480314960629921,
          "duration": 0.18292675000000003
        },
        {
          "name": "G1",
          "midi": 31,
          "time": 29.085353250000004,
          "velocity": 0.7480314960629921,
          "duration": 0.18292675000000003
        },
        {
          "name": "B1",
          "midi": 35,
          "time": 29.268280000000004,
          "velocity": 0.7480314960629921,
          "duration": 0.18292675000000003
        },
        {
          "name": "B1",
          "midi": 35,
          "time": 29.451206750000004,
          "velocity": 0.7480314960629921,
          "duration": 0.18292675000000003
        },
        {
          "name": "B1",
          "midi": 35,
          "time": 29.634133500000004,
          "velocity": 0.7480314960629921,
          "duration": 0.18292675000000003
        },
        {
          "name": "B1",
          "midi": 35,
          "time": 29.817060250000004,
          "velocity": 0.7480314960629921,
          "duration": 0.18292675000000003
        },
        {
          "name": "B1",
          "midi": 35,
          "time": 29.999987000000004,
          "velocity": 0.7480314960629921,
          "duration": 0.18292675000000003
        },
        {
          "name": "B1",
          "midi": 35,
          "time": 30.182913750000004,
          "velocity": 0.7480314960629921,
          "duration": 0.18292675000000003
        },
        {
          "name": "B1",
          "midi": 35,
          "time": 30.365840500000004,
          "velocity": 0.7480314960629921,
          "duration": 0.18292675000000003
        },
        {
          "name": "A1",
          "midi": 33,
          "time": 30.548767250000004,
          "velocity": 0.7480314960629921,
          "duration": 0.18292675000000003
        },
        {
          "name": "G1",
          "midi": 31,
          "time": 30.731694000000005,
          "velocity": 0.6771653543307087,
          "duration": 0.18292675000000003
        },
        {
          "name": "G1",
          "midi": 31,
          "time": 30.914620750000005,
          "velocity": 0.7480314960629921,
          "duration": 0.18292675000000003
        },
        {
          "name": "G1",
          "midi": 31,
          "time": 31.097547500000005,
          "velocity": 0.7480314960629921,
          "duration": 0.18292675000000003
        },
        {
          "name": "G1",
          "midi": 31,
          "time": 31.280474250000005,
          "velocity": 0.7480314960629921,
          "duration": 0.18292675000000003
        },
        {
          "name": "G1",
          "midi": 31,
          "time": 31.463401000000005,
          "velocity": 0.7480314960629921,
          "duration": 0.18292675000000003
        },
        {
          "name": "G1",
          "midi": 31,
          "time": 31.646327750000005,
          "velocity": 0.7480314960629921,
          "duration": 0.18292675000000003
        },
        {
          "name": "G1",
          "midi": 31,
          "time": 31.829254500000005,
          "velocity": 0.7480314960629921,
          "duration": 0.18292675000000003
        },
        {
          "name": "G1",
          "midi": 31,
          "time": 32.012181250000005,
          "velocity": 0.7480314960629921,
          "duration": 0.18292675000000003
        },
        {
          "name": "D2",
          "midi": 38,
          "time": 32.195108000000005,
          "velocity": 0.7480314960629921,
          "duration": 0.18292675000000003
        },
        {
          "name": "D2",
          "midi": 38,
          "time": 32.378034750000005,
          "velocity": 0.7480314960629921,
          "duration": 0.18292675000000003
        },
        {
          "name": "D2",
          "midi": 38,
          "time": 32.560961500000005,
          "velocity": 0.7480314960629921,
          "duration": 0.36585350000000005
        },
        {
          "name": "D2",
          "midi": 38,
          "time": 32.926815000000005,
          "velocity": 0.7480314960629921,
          "duration": 0.36585350000000005
        },
        {
          "name": "D2",
          "midi": 38,
          "time": 33.292668500000005,
          "velocity": 0.7480314960629921,
          "duration": 0.18292675000000003
        },
        {
          "name": "A1",
          "midi": 33,
          "time": 33.475595250000005,
          "velocity": 0.7480314960629921,
          "duration": 0.18292675000000003
        },
        {
          "name": "G1",
          "midi": 31,
          "time": 33.658522000000005,
          "velocity": 0.7480314960629921,
          "duration": 0.18292675000000003
        },
        {
          "name": "G1",
          "midi": 31,
          "time": 33.841448750000005,
          "velocity": 0.7480314960629921,
          "duration": 0.18292675000000003
        },
        {
          "name": "G1",
          "midi": 31,
          "time": 34.024375500000005,
          "velocity": 0.7480314960629921,
          "duration": 0.36585350000000005
        },
        {
          "name": "G1",
          "midi": 31,
          "time": 34.390229000000005,
          "velocity": 0.7480314960629921,
          "duration": 0.18292675000000003
        },
        {
          "name": "G1",
          "midi": 31,
          "time": 34.573155750000005,
          "velocity": 0.7480314960629921,
          "duration": 0.18292675000000003
        },
        {
          "name": "G1",
          "midi": 31,
          "time": 34.756082500000005,
          "velocity": 0.7480314960629921,
          "duration": 0.18292675000000003
        },
        {
          "name": "G1",
          "midi": 31,
          "time": 34.939009250000005,
          "velocity": 0.7480314960629921,
          "duration": 0.18292675000000003
        },
        {
          "name": "B1",
          "midi": 35,
          "time": 35.121936000000005,
          "velocity": 0.7480314960629921,
          "duration": 0.18292675000000003
        },
        {
          "name": "B1",
          "midi": 35,
          "time": 35.304862750000005,
          "velocity": 0.7480314960629921,
          "duration": 0.18292675000000003
        },
        {
          "name": "B1",
          "midi": 35,
          "time": 35.487789500000005,
          "velocity": 0.7480314960629921,
          "duration": 0.18292675000000003
        },
        {
          "name": "B1",
          "midi": 35,
          "time": 35.670716250000005,
          "velocity": 0.7480314960629921,
          "duration": 0.18292675000000003
        },
        {
          "name": "B1",
          "midi": 35,
          "time": 35.853643000000005,
          "velocity": 0.7480314960629921,
          "duration": 0.18292675000000003
        },
        {
          "name": "B1",
          "midi": 35,
          "time": 36.036569750000005,
          "velocity": 0.7480314960629921,
          "duration": 0.18292675000000003
        },
        {
          "name": "B1",
          "midi": 35,
          "time": 36.219496500000005,
          "velocity": 0.7480314960629921,
          "duration": 0.18292675000000003
        },
        {
          "name": "A1",
          "midi": 33,
          "time": 36.402423250000005,
          "velocity": 0.7480314960629921,
          "duration": 0.18292674999999292
        },
        {
          "name": "G1",
          "midi": 31,
          "time": 36.58535,
          "velocity": 0.6771653543307087,
          "duration": 0.18292675000000003
        },
        {
          "name": "G1",
          "midi": 31,
          "time": 36.76827675,
          "velocity": 0.7480314960629921,
          "duration": 0.18292675000000003
        },
        {
          "name": "G1",
          "midi": 31,
          "time": 36.9512035,
          "velocity": 0.7480314960629921,
          "duration": 0.18292675000000003
        },
        {
          "name": "G1",
          "midi": 31,
          "time": 37.13413025,
          "velocity": 0.7480314960629921,
          "duration": 0.18292675000000003
        },
        {
          "name": "G1",
          "midi": 31,
          "time": 37.317057,
          "velocity": 0.7480314960629921,
          "duration": 0.18292675000000003
        },
        {
          "name": "G1",
          "midi": 31,
          "time": 37.49998375,
          "velocity": 0.7480314960629921,
          "duration": 0.18292675000000003
        },
        {
          "name": "G1",
          "midi": 31,
          "time": 37.6829105,
          "velocity": 0.7480314960629921,
          "duration": 0.18292675000000003
        },
        {
          "name": "G1",
          "midi": 31,
          "time": 37.86583725,
          "velocity": 0.7480314960629921,
          "duration": 0.18292675000000003
        },
        {
          "name": "D2",
          "midi": 38,
          "time": 38.048764,
          "velocity": 0.7480314960629921,
          "duration": 0.18292675000000003
        },
        {
          "name": "D2",
          "midi": 38,
          "time": 38.23169075,
          "velocity": 0.7480314960629921,
          "duration": 0.18292675000000003
        },
        {
          "name": "D2",
          "midi": 38,
          "time": 38.4146175,
          "velocity": 0.7480314960629921,
          "duration": 0.36585350000000005
        },
        {
          "name": "D2",
          "midi": 38,
          "time": 38.780471,
          "velocity": 0.7480314960629921,
          "duration": 0.36585350000000005
        },
        {
          "name": "D2",
          "midi": 38,
          "time": 39.1463245,
          "velocity": 0.7480314960629921,
          "duration": 0.18292675000000003
        },
        {
          "name": "A1",
          "midi": 33,
          "time": 39.32925125,
          "velocity": 0.7480314960629921,
          "duration": 0.18292675000000003
        },
        {
          "name": "G1",
          "midi": 31,
          "time": 39.512178,
          "velocity": 0.7480314960629921,
          "duration": 0.18292675000000003
        },
        {
          "name": "G1",
          "midi": 31,
          "time": 39.69510475,
          "velocity": 0.7480314960629921,
          "duration": 0.18292675000000003
        },
        {
          "name": "G1",
          "midi": 31,
          "time": 39.8780315,
          "velocity": 0.7480314960629921,
          "duration": 0.36585350000000005
        },
        {
          "name": "G1",
          "midi": 31,
          "time": 40.243885,
          "velocity": 0.7480314960629921,
          "duration": 0.18292675000000003
        },
        {
          "name": "G1",
          "midi": 31,
          "time": 40.42681175,
          "velocity": 0.7480314960629921,
          "duration": 0.18292675000000003
        },
        {
          "name": "G1",
          "midi": 31,
          "time": 40.6097385,
          "velocity": 0.7480314960629921,
          "duration": 0.18292675000000003
        },
        {
          "name": "G1",
          "midi": 31,
          "time": 40.79266525,
          "velocity": 0.7480314960629921,
          "duration": 0.18292675000000003
        },
        {
          "name": "B1",
          "midi": 35,
          "time": 40.975592,
          "velocity": 0.7480314960629921,
          "duration": 0.18292675000000003
        },
        {
          "name": "B1",
          "midi": 35,
          "time": 41.15851875,
          "velocity": 0.7480314960629921,
          "duration": 0.18292675000000003
        },
        {
          "name": "B1",
          "midi": 35,
          "time": 41.3414455,
          "velocity": 0.7480314960629921,
          "duration": 0.18292675000000003
        },
        {
          "name": "B1",
          "midi": 35,
          "time": 41.52437225,
          "velocity": 0.7480314960629921,
          "duration": 0.18292675000000003
        },
        {
          "name": "B1",
          "midi": 35,
          "time": 41.707299,
          "velocity": 0.7480314960629921,
          "duration": 0.18292675000000003
        },
        {
          "name": "B1",
          "midi": 35,
          "time": 41.89022575,
          "velocity": 0.7480314960629921,
          "duration": 0.18292675000000003
        },
        {
          "name": "B1",
          "midi": 35,
          "time": 42.0731525,
          "velocity": 0.7480314960629921,
          "duration": 0.18292675000000003
        },
        {
          "name": "A1",
          "midi": 33,
          "time": 42.25607925,
          "velocity": 0.7480314960629921,
          "duration": 0.18292674999999292
        },
        {
          "name": "G1",
          "midi": 31,
          "time": 42.43900599999999,
          "velocity": 0.6771653543307087,
          "duration": 0.18292675000000003
        },
        {
          "name": "G1",
          "midi": 31,
          "time": 42.62193274999999,
          "velocity": 0.7480314960629921,
          "duration": 0.18292675000000003
        },
        {
          "name": "G1",
          "midi": 31,
          "time": 42.80485949999999,
          "velocity": 0.7480314960629921,
          "duration": 0.18292675000000003
        },
        {
          "name": "G1",
          "midi": 31,
          "time": 42.98778624999999,
          "velocity": 0.7480314960629921,
          "duration": 0.18292675000000003
        },
        {
          "name": "G1",
          "midi": 31,
          "time": 43.17071299999999,
          "velocity": 0.7480314960629921,
          "duration": 0.18292675000000003
        },
        {
          "name": "G1",
          "midi": 31,
          "time": 43.35363974999999,
          "velocity": 0.7480314960629921,
          "duration": 0.18292675000000003
        },
        {
          "name": "G1",
          "midi": 31,
          "time": 43.53656649999999,
          "velocity": 0.7480314960629921,
          "duration": 0.18292675000000003
        },
        {
          "name": "G1",
          "midi": 31,
          "time": 43.71949324999999,
          "velocity": 0.7480314960629921,
          "duration": 0.18292675000000003
        },
        {
          "name": "D2",
          "midi": 38,
          "time": 43.90241999999999,
          "velocity": 0.7480314960629921,
          "duration": 0.18292675000000003
        },
        {
          "name": "D2",
          "midi": 38,
          "time": 44.08534674999999,
          "velocity": 0.7480314960629921,
          "duration": 0.18292675000000003
        },
        {
          "name": "D2",
          "midi": 38,
          "time": 44.26827349999999,
          "velocity": 0.7480314960629921,
          "duration": 0.36585350000000005
        },
        {
          "name": "D2",
          "midi": 38,
          "time": 44.63412699999999,
          "velocity": 0.7480314960629921,
          "duration": 0.36585350000000005
        },
        {
          "name": "D2",
          "midi": 38,
          "time": 44.99998049999999,
          "velocity": 0.7480314960629921,
          "duration": 0.18292675000000003
        },
        {
          "name": "A1",
          "midi": 33,
          "time": 45.18290724999999,
          "velocity": 0.7480314960629921,
          "duration": 0.18292675000000003
        },
        {
          "name": "G1",
          "midi": 31,
          "time": 45.36583399999999,
          "velocity": 0.7480314960629921,
          "duration": 0.18292675000000003
        },
        {
          "name": "G1",
          "midi": 31,
          "time": 45.54876074999999,
          "velocity": 0.7480314960629921,
          "duration": 0.18292675000000003
        },
        {
          "name": "G1",
          "midi": 31,
          "time": 45.73168749999999,
          "velocity": 0.7480314960629921,
          "duration": 0.36585350000000005
        },
        {
          "name": "G1",
          "midi": 31,
          "time": 46.09754099999999,
          "velocity": 0.7480314960629921,
          "duration": 0.18292675000000003
        },
        {
          "name": "G1",
          "midi": 31,
          "time": 46.28046774999999,
          "velocity": 0.7480314960629921,
          "duration": 0.18292675000000003
        },
        {
          "name": "G1",
          "midi": 31,
          "time": 46.46339449999999,
          "velocity": 0.7480314960629921,
          "duration": 0.18292675000000003
        },
        {
          "name": "G1",
          "midi": 31,
          "time": 46.64632124999999,
          "velocity": 0.7480314960629921,
          "duration": 0.18292675000000003
        },
        {
          "name": "B1",
          "midi": 35,
          "time": 46.82924799999999,
          "velocity": 0.7480314960629921,
          "duration": 0.18292675000000003
        },
        {
          "name": "B1",
          "midi": 35,
          "time": 47.01217474999999,
          "velocity": 0.7480314960629921,
          "duration": 0.18292675000000003
        },
        {
          "name": "B1",
          "midi": 35,
          "time": 47.19510149999999,
          "velocity": 0.7480314960629921,
          "duration": 0.18292675000000003
        },
        {
          "name": "B1",
          "midi": 35,
          "time": 47.37802824999999,
          "velocity": 0.7480314960629921,
          "duration": 0.18292675000000003
        },
        {
          "name": "B1",
          "midi": 35,
          "time": 47.56095499999999,
          "velocity": 0.7480314960629921,
          "duration": 0.18292675000000003
        },
        {
          "name": "B1",
          "midi": 35,
          "time": 47.74388174999999,
          "velocity": 0.7480314960629921,
          "duration": 0.18292675000000003
        },
        {
          "name": "B1",
          "midi": 35,
          "time": 47.92680849999999,
          "velocity": 0.7480314960629921,
          "duration": 0.18292675000000003
        },
        {
          "name": "A1",
          "midi": 33,
          "time": 48.10973524999999,
          "velocity": 0.7480314960629921,
          "duration": 0.18292674999999292
        },
        {
          "name": "G1",
          "midi": 31,
          "time": 48.292661999999986,
          "velocity": 0.6771653543307087,
          "duration": 0.18292675000000003
        },
        {
          "name": "G1",
          "midi": 31,
          "time": 48.475588749999986,
          "velocity": 0.7480314960629921,
          "duration": 0.18292675000000003
        },
        {
          "name": "G1",
          "midi": 31,
          "time": 48.658515499999986,
          "velocity": 0.7480314960629921,
          "duration": 0.18292675000000003
        },
        {
          "name": "G1",
          "midi": 31,
          "time": 48.841442249999986,
          "velocity": 0.7480314960629921,
          "duration": 0.18292675000000003
        },
        {
          "name": "G1",
          "midi": 31,
          "time": 49.024368999999986,
          "velocity": 0.7480314960629921,
          "duration": 0.18292675000000003
        },
        {
          "name": "G1",
          "midi": 31,
          "time": 49.207295749999986,
          "velocity": 0.7480314960629921,
          "duration": 0.18292675000000003
        },
        {
          "name": "G1",
          "midi": 31,
          "time": 49.390222499999986,
          "velocity": 0.7480314960629921,
          "duration": 0.18292675000000003
        },
        {
          "name": "G1",
          "midi": 31,
          "time": 49.573149249999986,
          "velocity": 0.7480314960629921,
          "duration": 0.18292675000000003
        },
        {
          "name": "F#1",
          "midi": 30,
          "time": 49.756075999999986,
          "velocity": 0.7480314960629921,
          "duration": 0.18292675000000003
        },
        {
          "name": "F#1",
          "midi": 30,
          "time": 49.939002749999986,
          "velocity": 0.7480314960629921,
          "duration": 0.18292675000000003
        },
        {
          "name": "F#1",
          "midi": 30,
          "time": 50.121929499999986,
          "velocity": 0.7480314960629921,
          "duration": 0.18292675000000003
        },
        {
          "name": "F#1",
          "midi": 30,
          "time": 50.304856249999986,
          "velocity": 0.7480314960629921,
          "duration": 0.18292675000000003
        },
        {
          "name": "F#1",
          "midi": 30,
          "time": 50.487782999999986,
          "velocity": 0.7480314960629921,
          "duration": 0.18292675000000003
        },
        {
          "name": "F#1",
          "midi": 30,
          "time": 50.670709749999986,
          "velocity": 0.7480314960629921,
          "duration": 0.18292675000000003
        },
        {
          "name": "G2",
          "midi": 43,
          "time": 50.853636499999986,
          "velocity": 0.7480314960629921,
          "duration": 0.18292675000000003
        },
        {
          "name": "G2",
          "midi": 43,
          "time": 51.036563249999986,
          "velocity": 0.7480314960629921,
          "duration": 0.18292675000000003
        },
        {
          "name": "G2",
          "midi": 43,
          "time": 51.219489999999986,
          "velocity": 0.7480314960629921,
          "duration": 0.18292675000000003
        },
        {
          "name": "G2",
          "midi": 43,
          "time": 51.402416749999986,
          "velocity": 0.7480314960629921,
          "duration": 0.18292675000000003
        },
        {
          "name": "G2",
          "midi": 43,
          "time": 51.585343499999986,
          "velocity": 0.7480314960629921,
          "duration": 0.18292675000000003
        },
        {
          "name": "G2",
          "midi": 43,
          "time": 51.768270249999986,
          "velocity": 0.7480314960629921,
          "duration": 0.18292675000000003
        },
        {
          "name": "G2",
          "midi": 43,
          "time": 51.951196999999986,
          "velocity": 0.7480314960629921,
          "duration": 0.18292675000000003
        },
        {
          "name": "G2",
          "midi": 43,
          "time": 52.134123749999986,
          "velocity": 0.7480314960629921,
          "duration": 0.18292675000000003
        },
        {
          "name": "G2",
          "midi": 43,
          "time": 52.317050499999986,
          "velocity": 0.7480314960629921,
          "duration": 0.18292675000000003
        },
        {
          "name": "G2",
          "midi": 43,
          "time": 52.499977249999986,
          "velocity": 0.7480314960629921,
          "duration": 0.18292675000000003
        },
        {
          "name": "A2",
          "midi": 45,
          "time": 52.682903999999986,
          "velocity": 0.7480314960629921,
          "duration": 0.18292675000000003
        },
        {
          "name": "A2",
          "midi": 45,
          "time": 52.865830749999986,
          "velocity": 0.7480314960629921,
          "duration": 0.18292675000000003
        },
        {
          "name": "A2",
          "midi": 45,
          "time": 53.04875749999999,
          "velocity": 0.7480314960629921,
          "duration": 0.18292675000000003
        },
        {
          "name": "A2",
          "midi": 45,
          "time": 53.23168424999999,
          "velocity": 0.7480314960629921,
          "duration": 0.18292675000000003
        },
        {
          "name": "A2",
          "midi": 45,
          "time": 53.41461099999999,
          "velocity": 0.7480314960629921,
          "duration": 0.18292675000000003
        },
        {
          "name": "A2",
          "midi": 45,
          "time": 53.59753774999999,
          "velocity": 0.7480314960629921,
          "duration": 0.18292675000000003
        },
        {
          "name": "B2",
          "midi": 47,
          "time": 53.78046449999999,
          "velocity": 0.7480314960629921,
          "duration": 0.18292675000000003
        },
        {
          "name": "B2",
          "midi": 47,
          "time": 53.96339124999999,
          "velocity": 0.7480314960629921,
          "duration": 0.18292675000000003
        },
        {
          "name": "B2",
          "midi": 47,
          "time": 54.14631799999999,
          "velocity": 0.7480314960629921,
          "duration": 0.18292675000000003
        },
        {
          "name": "B2",
          "midi": 47,
          "time": 54.32924474999999,
          "velocity": 0.7480314960629921,
          "duration": 0.18292675000000003
        },
        {
          "name": "B2",
          "midi": 47,
          "time": 54.51217149999999,
          "velocity": 0.7480314960629921,
          "duration": 0.18292675000000003
        },
        {
          "name": "B2",
          "midi": 47,
          "time": 54.69509824999999,
          "velocity": 0.7480314960629921,
          "duration": 0.18292675000000003
        },
        {
          "name": "B2",
          "midi": 47,
          "time": 54.87802499999999,
          "velocity": 0.7480314960629921,
          "duration": 0.18292675000000003
        },
        {
          "name": "B2",
          "midi": 47,
          "time": 55.06095174999999,
          "velocity": 0.7480314960629921,
          "duration": 0.18292675000000003
        },
        {
          "name": "B2",
          "midi": 47,
          "time": 55.24387849999999,
          "velocity": 0.7480314960629921,
          "duration": 0.18292675000000003
        },
        {
          "name": "B2",
          "midi": 47,
          "time": 55.42680524999999,
          "velocity": 0.7480314960629921,
          "duration": 0.18292675000000003
        },
        {
          "name": "C3",
          "midi": 48,
          "time": 55.60973199999999,
          "velocity": 0.7480314960629921,
          "duration": 0.18292675000000003
        },
        {
          "name": "C3",
          "midi": 48,
          "time": 55.79265874999999,
          "velocity": 0.7480314960629921,
          "duration": 0.18292675000000003
        },
        {
          "name": "C3",
          "midi": 48,
          "time": 55.97558549999999,
          "velocity": 0.7480314960629921,
          "duration": 0.18292675000000003
        },
        {
          "name": "C3",
          "midi": 48,
          "time": 56.15851224999999,
          "velocity": 0.7480314960629921,
          "duration": 0.18292675000000003
        },
        {
          "name": "C3",
          "midi": 48,
          "time": 56.34143899999999,
          "velocity": 0.7480314960629921,
          "duration": 0.18292675000000003
        },
        {
          "name": "C3",
          "midi": 48,
          "time": 56.52436574999999,
          "velocity": 0.7480314960629921,
          "duration": 0.18292675000000003
        },
        {
          "name": "B2",
          "midi": 47,
          "time": 56.70729249999999,
          "velocity": 0.7480314960629921,
          "duration": 0.18292675000000003
        },
        {
          "name": "B2",
          "midi": 47,
          "time": 56.89021924999999,
          "velocity": 0.7480314960629921,
          "duration": 0.18292675000000003
        },
        {
          "name": "B2",
          "midi": 47,
          "time": 57.07314599999999,
          "velocity": 0.7480314960629921,
          "duration": 0.18292675000000003
        },
        {
          "name": "B2",
          "midi": 47,
          "time": 57.25607274999999,
          "velocity": 0.7480314960629921,
          "duration": 0.18292675000000003
        },
        {
          "name": "B2",
          "midi": 47,
          "time": 57.43899949999999,
          "velocity": 0.7480314960629921,
          "duration": 0.18292675000000003
        },
        {
          "name": "B2",
          "midi": 47,
          "time": 57.62192624999999,
          "velocity": 0.7480314960629921,
          "duration": 0.18292675000000003
        },
        {
          "name": "B2",
          "midi": 47,
          "time": 57.80485299999999,
          "velocity": 0.7480314960629921,
          "duration": 0.18292675000000003
        },
        {
          "name": "B2",
          "midi": 47,
          "time": 57.98777974999999,
          "velocity": 0.7480314960629921,
          "duration": 0.18292675000000003
        },
        {
          "name": "B2",
          "midi": 47,
          "time": 58.17070649999999,
          "velocity": 0.7480314960629921,
          "duration": 0.18292675000000003
        },
        {
          "name": "D2",
          "midi": 38,
          "time": 58.35363324999999,
          "velocity": 0.7480314960629921,
          "duration": 0.18292675000000003
        },
        {
          "name": "G2",
          "midi": 43,
          "time": 58.53655999999999,
          "velocity": 0.7480314960629921,
          "duration": 0.18292675000000003
        },
        {
          "name": "G2",
          "midi": 43,
          "time": 58.71948674999999,
          "velocity": 0.7480314960629921,
          "duration": 0.18292675000000003
        },
        {
          "name": "G2",
          "midi": 43,
          "time": 58.90241349999999,
          "velocity": 0.7480314960629921,
          "duration": 0.18292675000000003
        },
        {
          "name": "G2",
          "midi": 43,
          "time": 59.08534024999999,
          "velocity": 0.7480314960629921,
          "duration": 0.18292675000000003
        },
        {
          "name": "G2",
          "midi": 43,
          "time": 59.26826699999999,
          "velocity": 0.7480314960629921,
          "duration": 0.18292675000000003
        },
        {
          "name": "G2",
          "midi": 43,
          "time": 59.45119374999999,
          "velocity": 0.7480314960629921,
          "duration": 0.18292675000000003
        },
        {
          "name": "G2",
          "midi": 43,
          "time": 59.63412049999999,
          "velocity": 0.7480314960629921,
          "duration": 0.18292675000000003
        },
        {
          "name": "G2",
          "midi": 43,
          "time": 59.81704724999999,
          "velocity": 0.7480314960629921,
          "duration": 0.18292675000000003
        },
        {
          "name": "G2",
          "midi": 43,
          "time": 59.99997399999999,
          "velocity": 0.49606299212598426,
          "duration": 0.18292675000000003
        },
        {
          "name": "G2",
          "midi": 43,
          "time": 60.18290074999999,
          "velocity": 0.6220472440944882,
          "duration": 0.18292675000000003
        },
        {
          "name": "G2",
          "midi": 43,
          "time": 60.36582749999999,
          "velocity": 0.7480314960629921,
          "duration": 0.18292675000000003
        },
        {
          "name": "G2",
          "midi": 43,
          "time": 60.54875424999999,
          "velocity": 0.7480314960629921,
          "duration": 0.18292675000000003
        },
        {
          "name": "D1",
          "midi": 26,
          "time": 60.73168099999999,
          "velocity": 0.7480314960629921,
          "duration": 0.030487791666665487
        },
        {
          "name": "D1",
          "midi": 26,
          "time": 60.91460774999999,
          "velocity": 0.7480314960629921,
          "duration": 0.030487791666665487
        },
        {
          "name": "D1",
          "midi": 26,
          "time": 61.09753449999999,
          "velocity": 0.7480314960629921,
          "duration": 0.030487791666665487
        },
        {
          "name": "D1",
          "midi": 26,
          "time": 61.28046124999999,
          "velocity": 0.7480314960629921,
          "duration": 0.030487791666665487
        },
        {
          "name": "D1",
          "midi": 26,
          "time": 61.46338799999999,
          "velocity": 0.7480314960629921,
          "duration": 0.18292675000000003
        },
        {
          "name": "D1",
          "midi": 26,
          "time": 61.64631474999999,
          "velocity": 0.7480314960629921,
          "duration": 0.18292675000000003
        },
        {
          "name": "D1",
          "midi": 26,
          "time": 61.82924149999999,
          "velocity": 0.7480314960629921,
          "duration": 0.18292675000000003
        },
        {
          "name": "D1",
          "midi": 26,
          "time": 62.01216824999999,
          "velocity": 0.7480314960629921,
          "duration": 0.18292675000000003
        },
        {
          "name": "D1",
          "midi": 26,
          "time": 62.19509499999999,
          "velocity": 0.7480314960629921,
          "duration": 0.18292675000000003
        },
        {
          "name": "D1",
          "midi": 26,
          "time": 62.37802174999999,
          "velocity": 0.7480314960629921,
          "duration": 0.18292675000000003
        },
        {
          "name": "D1",
          "midi": 26,
          "time": 62.56094849999999,
          "velocity": 0.7480314960629921,
          "duration": 0.18292675000000003
        },
        {
          "name": "D1",
          "midi": 26,
          "time": 62.74387524999999,
          "velocity": 0.7480314960629921,
          "duration": 0.18292675000000003
        },
        {
          "name": "D1",
          "midi": 26,
          "time": 62.92680199999999,
          "velocity": 0.7480314960629921,
          "duration": 0.18292675000000003
        },
        {
          "name": "D1",
          "midi": 26,
          "time": 63.10972874999999,
          "velocity": 0.7480314960629921,
          "duration": 0.18292675000000003
        },
        {
          "name": "D1",
          "midi": 26,
          "time": 63.29265549999999,
          "velocity": 0.7480314960629921,
          "duration": 0.18292675000000003
        },
        {
          "name": "D1",
          "midi": 26,
          "time": 63.47558224999999,
          "velocity": 0.7480314960629921,
          "duration": 0.18292675000000003
        },
        {
          "name": "D1",
          "midi": 26,
          "time": 63.65850899999999,
          "velocity": 0.7480314960629921,
          "duration": 0.18292675000000003
        },
        {
          "name": "D1",
          "midi": 26,
          "time": 63.84143574999999,
          "velocity": 0.7480314960629921,
          "duration": 0.18292674999999292
        },
        {
          "name": "D1",
          "midi": 26,
          "time": 64.02436249999998,
          "velocity": 0.7480314960629921,
          "duration": 0.18292674999999292
        },
        {
          "name": "D1",
          "midi": 26,
          "time": 64.20728924999997,
          "velocity": 0.7480314960629921,
          "duration": 0.18292674999999292
        },
        {
          "name": "G1",
          "midi": 31,
          "time": 64.39021599999997,
          "velocity": 0.7480314960629921,
          "duration": 0.18292674999999292
        },
        {
          "name": "G1",
          "midi": 31,
          "time": 64.57314274999996,
          "velocity": 0.7480314960629921,
          "duration": 0.18292674999999292
        },
        {
          "name": "G1",
          "midi": 31,
          "time": 64.75606949999995,
          "velocity": 0.7480314960629921,
          "duration": 0.18292674999999292
        },
        {
          "name": "G1",
          "midi": 31,
          "time": 64.93899624999995,
          "velocity": 0.7480314960629921,
          "duration": 0.18292674999999292
        },
        {
          "name": "G1",
          "midi": 31,
          "time": 65.12192299999994,
          "velocity": 0.7480314960629921,
          "duration": 0.18292674999999292
        },
        {
          "name": "G1",
          "midi": 31,
          "time": 65.30484974999993,
          "velocity": 0.7480314960629921,
          "duration": 0.18292674999999292
        },
        {
          "name": "G1",
          "midi": 31,
          "time": 65.48777649999992,
          "velocity": 0.7480314960629921,
          "duration": 0.18292674999999292
        },
        {
          "name": "G1",
          "midi": 31,
          "time": 65.67070324999992,
          "velocity": 0.7480314960629921,
          "duration": 0.18292674999999292
        },
        {
          "name": "G1",
          "midi": 31,
          "time": 65.85362999999991,
          "velocity": 0.7480314960629921,
          "duration": 0.18292674999999292
        },
        {
          "name": "G1",
          "midi": 31,
          "time": 66.0365567499999,
          "velocity": 0.7480314960629921,
          "duration": 0.18292674999999292
        },
        {
          "name": "G1",
          "midi": 31,
          "time": 66.2194834999999,
          "velocity": 0.7480314960629921,
          "duration": 0.18292674999999292
        },
        {
          "name": "G1",
          "midi": 31,
          "time": 66.40241024999989,
          "velocity": 0.7480314960629921,
          "duration": 0.18292674999999292
        },
        {
          "name": "G1",
          "midi": 31,
          "time": 66.58533699999988,
          "velocity": 0.7480314960629921,
          "duration": 0.18292674999999292
        },
        {
          "name": "G1",
          "midi": 31,
          "time": 66.76826374999987,
          "velocity": 0.7480314960629921,
          "duration": 0.18292674999999292
        },
        {
          "name": "G1",
          "midi": 31,
          "time": 66.95119049999987,
          "velocity": 0.7480314960629921,
          "duration": 0.18292674999999292
        },
        {
          "name": "G1",
          "midi": 31,
          "time": 67.13411724999986,
          "velocity": 0.7480314960629921,
          "duration": 0.18292675000002134
        },
        {
          "name": "B1",
          "midi": 35,
          "time": 67.31704399999988,
          "velocity": 0.6771653543307087,
          "duration": 0.18292674999999292
        },
        {
          "name": "B1",
          "midi": 35,
          "time": 67.49997074999987,
          "velocity": 0.7480314960629921,
          "duration": 0.18292674999999292
        },
        {
          "name": "B1",
          "midi": 35,
          "time": 67.68289749999987,
          "velocity": 0.7480314960629921,
          "duration": 0.18292674999999292
        },
        {
          "name": "B1",
          "midi": 35,
          "time": 67.86582424999986,
          "velocity": 0.7480314960629921,
          "duration": 0.18292674999999292
        },
        {
          "name": "B1",
          "midi": 35,
          "time": 68.04875099999985,
          "velocity": 0.7480314960629921,
          "duration": 0.18292674999999292
        },
        {
          "name": "B1",
          "midi": 35,
          "time": 68.23167774999985,
          "velocity": 0.7480314960629921,
          "duration": 0.18292674999999292
        },
        {
          "name": "B1",
          "midi": 35,
          "time": 68.41460449999984,
          "velocity": 0.7480314960629921,
          "duration": 0.18292674999999292
        },
        {
          "name": "B1",
          "midi": 35,
          "time": 68.59753124999983,
          "velocity": 0.7480314960629921,
          "duration": 0.18292674999999292
        },
        {
          "name": "B1",
          "midi": 35,
          "time": 68.78045799999983,
          "velocity": 0.7480314960629921,
          "duration": 0.18292674999999292
        },
        {
          "name": "B1",
          "midi": 35,
          "time": 68.96338474999982,
          "velocity": 0.7480314960629921,
          "duration": 0.18292674999999292
        },
        {
          "name": "B1",
          "midi": 35,
          "time": 69.14631149999981,
          "velocity": 0.7480314960629921,
          "duration": 0.18292674999999292
        },
        {
          "name": "B1",
          "midi": 35,
          "time": 69.3292382499998,
          "velocity": 0.7480314960629921,
          "duration": 0.18292674999999292
        },
        {
          "name": "B1",
          "midi": 35,
          "time": 69.5121649999998,
          "velocity": 0.7480314960629921,
          "duration": 0.18292674999999292
        },
        {
          "name": "B1",
          "midi": 35,
          "time": 69.69509174999979,
          "velocity": 0.7480314960629921,
          "duration": 0.18292674999999292
        },
        {
          "name": "B1",
          "midi": 35,
          "time": 69.87801849999978,
          "velocity": 0.7480314960629921,
          "duration": 0.18292674999999292
        },
        {
          "name": "D1",
          "midi": 26,
          "time": 70.06094524999978,
          "velocity": 0.7480314960629921,
          "duration": 0.18292674999999292
        },
        {
          "name": "G1",
          "midi": 31,
          "time": 70.24387199999977,
          "velocity": 0.7480314960629921,
          "duration": 0.18292674999999292
        },
        {
          "name": "G1",
          "midi": 31,
          "time": 70.42679874999976,
          "velocity": 0.7480314960629921,
          "duration": 0.18292674999999292
        },
        {
          "name": "G1",
          "midi": 31,
          "time": 70.60972549999975,
          "velocity": 0.7480314960629921,
          "duration": 0.18292674999999292
        },
        {
          "name": "G1",
          "midi": 31,
          "time": 70.79265224999975,
          "velocity": 0.7480314960629921,
          "duration": 0.18292674999999292
        },
        {
          "name": "G1",
          "midi": 31,
          "time": 70.97557899999974,
          "velocity": 0.7480314960629921,
          "duration": 0.18292674999999292
        },
        {
          "name": "G1",
          "midi": 31,
          "time": 71.15850574999973,
          "velocity": 0.7480314960629921,
          "duration": 0.18292674999999292
        },
        {
          "name": "G1",
          "midi": 31,
          "time": 71.34143249999973,
          "velocity": 0.7480314960629921,
          "duration": 0.18292674999999292
        },
        {
          "name": "G1",
          "midi": 31,
          "time": 71.52435924999972,
          "velocity": 0.7480314960629921,
          "duration": 0.18292674999999292
        },
        {
          "name": "G1",
          "midi": 31,
          "time": 71.70728599999971,
          "velocity": 0.7480314960629921,
          "duration": 0.18292674999999292
        },
        {
          "name": "G1",
          "midi": 31,
          "time": 71.8902127499997,
          "velocity": 0.7480314960629921,
          "duration": 0.18292674999999292
        },
        {
          "name": "G1",
          "midi": 31,
          "time": 72.0731394999997,
          "velocity": 0.7480314960629921,
          "duration": 0.18292674999999292
        },
        {
          "name": "G1",
          "midi": 31,
          "time": 72.25606624999969,
          "velocity": 0.7480314960629921,
          "duration": 0.18292674999999292
        },
        {
          "name": "D1",
          "midi": 26,
          "time": 72.43899299999968,
          "velocity": 0.7480314960629921,
          "duration": 0.030487791666672592
        },
        {
          "name": "D1",
          "midi": 26,
          "time": 72.62191974999969,
          "velocity": 0.7480314960629921,
          "duration": 0.030487791666672592
        },
        {
          "name": "D1",
          "midi": 26,
          "time": 72.8048464999997,
          "velocity": 0.7480314960629921,
          "duration": 0.030487791666672592
        },
        {
          "name": "D1",
          "midi": 26,
          "time": 72.9877732499997,
          "velocity": 0.7480314960629921,
          "duration": 0.030487791666672592
        },
        {
          "name": "D1",
          "midi": 26,
          "time": 73.17069999999971,
          "velocity": 0.7480314960629921,
          "duration": 0.18292674999999292
        },
        {
          "name": "D1",
          "midi": 26,
          "time": 73.3536267499997,
          "velocity": 0.7480314960629921,
          "duration": 0.18292674999999292
        },
        {
          "name": "D1",
          "midi": 26,
          "time": 73.5365534999997,
          "velocity": 0.7480314960629921,
          "duration": 0.18292674999999292
        },
        {
          "name": "D1",
          "midi": 26,
          "time": 73.71948024999969,
          "velocity": 0.7480314960629921,
          "duration": 0.18292674999999292
        },
        {
          "name": "D1",
          "midi": 26,
          "time": 73.90240699999968,
          "velocity": 0.7480314960629921,
          "duration": 0.18292674999999292
        },
        {
          "name": "D1",
          "midi": 26,
          "time": 74.63411399999967,
          "velocity": 0.7480314960629921,
          "duration": 0.18292674999999292
        },
        {
          "name": "D1",
          "midi": 26,
          "time": 74.81704074999966,
          "velocity": 0.7480314960629921,
          "duration": 0.18292674999999292
        },
        {
          "name": "D1",
          "midi": 26,
          "time": 74.99996749999966,
          "velocity": 0.7480314960629921,
          "duration": 0.18292674999999292
        },
        {
          "name": "D1",
          "midi": 26,
          "time": 75.18289424999965,
          "velocity": 0.7480314960629921,
          "duration": 0.18292674999999292
        },
        {
          "name": "D1",
          "midi": 26,
          "time": 75.36582099999964,
          "velocity": 0.7480314960629921,
          "duration": 0.18292674999999292
        },
        {
          "name": "G1",
          "midi": 31,
          "time": 76.09752799999963,
          "velocity": 0.7480314960629921,
          "duration": 0.18292674999999292
        },
        {
          "name": "G1",
          "midi": 31,
          "time": 76.28045474999962,
          "velocity": 0.7480314960629921,
          "duration": 0.18292674999999292
        },
        {
          "name": "G1",
          "midi": 31,
          "time": 76.46338149999961,
          "velocity": 0.7480314960629921,
          "duration": 0.18292674999999292
        },
        {
          "name": "G1",
          "midi": 31,
          "time": 76.6463082499996,
          "velocity": 0.7480314960629921,
          "duration": 0.18292674999999292
        },
        {
          "name": "G1",
          "midi": 31,
          "time": 76.8292349999996,
          "velocity": 0.7480314960629921,
          "duration": 0.18292674999999292
        },
        {
          "name": "G1",
          "midi": 31,
          "time": 77.56094199999959,
          "velocity": 0.7480314960629921,
          "duration": 0.18292674999999292
        },
        {
          "name": "G1",
          "midi": 31,
          "time": 77.74386874999958,
          "velocity": 0.7480314960629921,
          "duration": 0.18292674999999292
        },
        {
          "name": "G1",
          "midi": 31,
          "time": 77.92679549999957,
          "velocity": 0.7480314960629921,
          "duration": 0.18292674999999292
        },
        {
          "name": "G1",
          "midi": 31,
          "time": 78.10972224999956,
          "velocity": 0.7480314960629921,
          "duration": 0.18292674999999292
        },
        {
          "name": "G1",
          "midi": 31,
          "time": 78.29264899999956,
          "velocity": 0.7480314960629921,
          "duration": 0.18292674999999292
        },
        {
          "name": "B1",
          "midi": 35,
          "time": 79.02435599999954,
          "velocity": 0.7480314960629921,
          "duration": 0.18292674999999292
        },
        {
          "name": "B1",
          "midi": 35,
          "time": 79.20728274999954,
          "velocity": 0.7480314960629921,
          "duration": 0.18292674999999292
        },
        {
          "name": "B1",
          "midi": 35,
          "time": 79.39020949999953,
          "velocity": 0.7480314960629921,
          "duration": 0.18292674999999292
        },
        {
          "name": "B1",
          "midi": 35,
          "time": 79.57313624999952,
          "velocity": 0.7480314960629921,
          "duration": 0.18292674999999292
        },
        {
          "name": "B1",
          "midi": 35,
          "time": 79.75606299999951,
          "velocity": 0.7480314960629921,
          "duration": 0.18292674999999292
        },
        {
          "name": "B1",
          "midi": 35,
          "time": 80.4877699999995,
          "velocity": 0.7480314960629921,
          "duration": 0.18292674999999292
        },
        {
          "name": "B1",
          "midi": 35,
          "time": 80.6706967499995,
          "velocity": 0.7480314960629921,
          "duration": 0.18292674999999292
        },
        {
          "name": "B1",
          "midi": 35,
          "time": 80.85362349999949,
          "velocity": 0.7480314960629921,
          "duration": 0.18292674999999292
        },
        {
          "name": "B1",
          "midi": 35,
          "time": 81.03655024999948,
          "velocity": 0.7480314960629921,
          "duration": 0.18292674999999292
        },
        {
          "name": "B1",
          "midi": 35,
          "time": 81.21947699999947,
          "velocity": 0.7480314960629921,
          "duration": 0.18292674999999292
        },
        {
          "name": "G1",
          "midi": 31,
          "time": 81.95118399999946,
          "velocity": 0.7480314960629921,
          "duration": 0.18292674999999292
        },
        {
          "name": "G1",
          "midi": 31,
          "time": 82.13411074999945,
          "velocity": 0.7480314960629921,
          "duration": 0.18292674999999292
        },
        {
          "name": "G1",
          "midi": 31,
          "time": 82.31703749999944,
          "velocity": 0.7480314960629921,
          "duration": 0.18292674999999292
        },
        {
          "name": "G1",
          "midi": 31,
          "time": 82.49996424999944,
          "velocity": 0.7480314960629921,
          "duration": 0.18292674999999292
        },
        {
          "name": "G1",
          "midi": 31,
          "time": 82.68289099999943,
          "velocity": 0.7480314960629921,
          "duration": 0.18292674999999292
        },
        {
          "name": "G1",
          "midi": 31,
          "time": 83.41459799999942,
          "velocity": 0.7480314960629921,
          "duration": 0.18292674999999292
        },
        {
          "name": "G1",
          "midi": 31,
          "time": 83.59752474999941,
          "velocity": 0.7480314960629921,
          "duration": 0.18292674999999292
        },
        {
          "name": "G1",
          "midi": 31,
          "time": 83.7804514999994,
          "velocity": 0.7480314960629921,
          "duration": 0.18292674999999292
        },
        {
          "name": "G1",
          "midi": 31,
          "time": 83.9633782499994,
          "velocity": 0.7480314960629921,
          "duration": 0.18292674999999292
        },
        {
          "name": "G1",
          "midi": 31,
          "time": 84.14630499999939,
          "velocity": 0.7480314960629921,
          "duration": 0.18292674999999292
        },
        {
          "name": "G1",
          "midi": 31,
          "time": 84.32923174999938,
          "velocity": 0.7480314960629921,
          "duration": 0.18292674999999292
        },
        {
          "name": "F#1",
          "midi": 30,
          "time": 84.87801199999937,
          "velocity": 0.7480314960629921,
          "duration": 0.18292674999999292
        },
        {
          "name": "F#1",
          "midi": 30,
          "time": 85.06093874999937,
          "velocity": 0.7480314960629921,
          "duration": 0.18292674999999292
        },
        {
          "name": "F#1",
          "midi": 30,
          "time": 85.24386549999936,
          "velocity": 0.7480314960629921,
          "duration": 0.18292674999999292
        },
        {
          "name": "F#1",
          "midi": 30,
          "time": 85.42679224999935,
          "velocity": 0.7480314960629921,
          "duration": 0.18292674999999292
        },
        {
          "name": "F#1",
          "midi": 30,
          "time": 85.60971899999934,
          "velocity": 0.7480314960629921,
          "duration": 0.18292674999999292
        },
        {
          "name": "F#1",
          "midi": 30,
          "time": 85.79264574999934,
          "velocity": 0.7480314960629921,
          "duration": 0.18292674999999292
        },
        {
          "name": "F#1",
          "midi": 30,
          "time": 85.97557249999933,
          "velocity": 0.7480314960629921,
          "duration": 0.18292674999999292
        },
        {
          "name": "F#1",
          "midi": 30,
          "time": 86.15849924999932,
          "velocity": 0.7480314960629921,
          "duration": 0.09146337500000357
        },
        {
          "name": "F#1",
          "midi": 30,
          "time": 86.24996262499933,
          "velocity": 0.7480314960629921,
          "duration": 0.09146337500000357
        },
        {
          "name": "G1",
          "midi": 31,
          "time": 86.34142599999933,
          "velocity": 0.7480314960629921,
          "duration": 0.18292674999999292
        },
        {
          "name": "G1",
          "midi": 31,
          "time": 86.52435274999932,
          "velocity": 0.7480314960629921,
          "duration": 0.18292674999999292
        },
        {
          "name": "G1",
          "midi": 31,
          "time": 86.70727949999932,
          "velocity": 0.7480314960629921,
          "duration": 0.18292674999999292
        },
        {
          "name": "G1",
          "midi": 31,
          "time": 86.89020624999931,
          "velocity": 0.7480314960629921,
          "duration": 0.18292674999999292
        },
        {
          "name": "G1",
          "midi": 31,
          "time": 87.0731329999993,
          "velocity": 0.7480314960629921,
          "duration": 0.18292674999999292
        },
        {
          "name": "G1",
          "midi": 31,
          "time": 87.2560597499993,
          "velocity": 0.7480314960629921,
          "duration": 0.18292674999999292
        },
        {
          "name": "G1",
          "midi": 31,
          "time": 87.43898649999929,
          "velocity": 0.7480314960629921,
          "duration": 0.36585350000000005
        },
        {
          "name": "A1",
          "midi": 33,
          "time": 87.80483999999929,
          "velocity": 0.7480314960629921,
          "duration": 0.18292674999999292
        },
        {
          "name": "A1",
          "midi": 33,
          "time": 87.98776674999928,
          "velocity": 0.7480314960629921,
          "duration": 0.18292674999999292
        },
        {
          "name": "A1",
          "midi": 33,
          "time": 88.17069349999927,
          "velocity": 0.7480314960629921,
          "duration": 0.18292674999999292
        },
        {
          "name": "A1",
          "midi": 33,
          "time": 88.35362024999927,
          "velocity": 0.7480314960629921,
          "duration": 0.18292674999999292
        },
        {
          "name": "A1",
          "midi": 33,
          "time": 88.53654699999926,
          "velocity": 0.7480314960629921,
          "duration": 0.18292674999999292
        },
        {
          "name": "A1",
          "midi": 33,
          "time": 88.71947374999925,
          "velocity": 0.7480314960629921,
          "duration": 0.18292674999999292
        },
        {
          "name": "A1",
          "midi": 33,
          "time": 88.90240049999925,
          "velocity": 0.7480314960629921,
          "duration": 0.18292674999999292
        },
        {
          "name": "A1",
          "midi": 33,
          "time": 89.08532724999924,
          "velocity": 0.7480314960629921,
          "duration": 0.09146337500000357
        },
        {
          "name": "A1",
          "midi": 33,
          "time": 89.17679062499924,
          "velocity": 0.7480314960629921,
          "duration": 0.09146337500000357
        },
        {
          "name": "B1",
          "midi": 35,
          "time": 89.26825399999925,
          "velocity": 0.7480314960629921,
          "duration": 0.18292674999999292
        },
        {
          "name": "B1",
          "midi": 35,
          "time": 89.45118074999924,
          "velocity": 0.7480314960629921,
          "duration": 0.09146337500000357
        },
        {
          "name": "B1",
          "midi": 35,
          "time": 89.54264412499924,
          "velocity": 0.7480314960629921,
          "duration": 0.09146337500000357
        },
        {
          "name": "B1",
          "midi": 35,
          "time": 89.63410749999925,
          "velocity": 0.7480314960629921,
          "duration": 0.18292674999999292
        },
        {
          "name": "B1",
          "midi": 35,
          "time": 89.81703424999924,
          "velocity": 0.7480314960629921,
          "duration": 0.18292674999999292
        },
        {
          "name": "B1",
          "midi": 35,
          "time": 89.99996099999923,
          "velocity": 0.7480314960629921,
          "duration": 0.18292674999999292
        },
        {
          "name": "B1",
          "midi": 35,
          "time": 90.18288774999922,
          "velocity": 0.7480314960629921,
          "duration": 0.18292674999999292
        },
        {
          "name": "B1",
          "midi": 35,
          "time": 90.36581449999922,
          "velocity": 0.7480314960629921,
          "duration": 0.36585350000000005
        },
        {
          "name": "C2",
          "midi": 36,
          "time": 90.73166799999922,
          "velocity": 0.7480314960629921,
          "duration": 0.18292674999999292
        },
        {
          "name": "C2",
          "midi": 36,
          "time": 90.91459474999921,
          "velocity": 0.7480314960629921,
          "duration": 0.18292674999999292
        },
        {
          "name": "C2",
          "midi": 36,
          "time": 91.0975214999992,
          "velocity": 0.7480314960629921,
          "duration": 0.18292674999999292
        },
        {
          "name": "C2",
          "midi": 36,
          "time": 91.2804482499992,
          "velocity": 0.7480314960629921,
          "duration": 0.18292674999999292
        },
        {
          "name": "C2",
          "midi": 36,
          "time": 91.46337499999919,
          "velocity": 0.7480314960629921,
          "duration": 0.18292674999999292
        },
        {
          "name": "C2",
          "midi": 36,
          "time": 91.64630174999918,
          "velocity": 0.7480314960629921,
          "duration": 0.18292674999999292
        },
        {
          "name": "C2",
          "midi": 36,
          "time": 91.82922849999918,
          "velocity": 0.7480314960629921,
          "duration": 0.18292674999999292
        },
        {
          "name": "C2",
          "midi": 36,
          "time": 92.01215524999917,
          "velocity": 0.7480314960629921,
          "duration": 0.09146337500000357
        },
        {
          "name": "C2",
          "midi": 36,
          "time": 92.10361862499917,
          "velocity": 0.7480314960629921,
          "duration": 0.09146337500000357
        },
        {
          "name": "B1",
          "midi": 35,
          "time": 92.19508199999918,
          "velocity": 0.7480314960629921,
          "duration": 0.18292674999999292
        },
        {
          "name": "B1",
          "midi": 35,
          "time": 92.37800874999917,
          "velocity": 0.7480314960629921,
          "duration": 0.18292674999999292
        },
        {
          "name": "B1",
          "midi": 35,
          "time": 92.56093549999916,
          "velocity": 0.7480314960629921,
          "duration": 0.18292674999999292
        },
        {
          "name": "B1",
          "midi": 35,
          "time": 92.74386224999915,
          "velocity": 0.7480314960629921,
          "duration": 0.18292674999999292
        },
        {
          "name": "B1",
          "midi": 35,
          "time": 92.92678899999915,
          "velocity": 0.7480314960629921,
          "duration": 0.18292674999999292
        },
        {
          "name": "B1",
          "midi": 35,
          "time": 93.10971574999914,
          "velocity": 0.7480314960629921,
          "duration": 0.18292674999999292
        },
        {
          "name": "B1",
          "midi": 35,
          "time": 93.29264249999913,
          "velocity": 0.7480314960629921,
          "duration": 0.18292674999999292
        },
        {
          "name": "D1",
          "midi": 26,
          "time": 93.47556924999913,
          "velocity": 0.7480314960629921,
          "duration": 0.18292674999999292
        },
        {
          "name": "G1",
          "midi": 31,
          "time": 93.65849599999912,
          "velocity": 0.7480314960629921,
          "duration": 0.36585350000000005
        },
        {
          "name": "G1",
          "midi": 31,
          "time": 94.02434949999912,
          "velocity": 0.7480314960629921,
          "duration": 0.18292674999999292
        },
        {
          "name": "G1",
          "midi": 31,
          "time": 94.20727624999911,
          "velocity": 0.7480314960629921,
          "duration": 0.18292674999999292
        },
        {
          "name": "G1",
          "midi": 31,
          "time": 94.3902029999991,
          "velocity": 0.7480314960629921,
          "duration": 0.36585350000000005
        },
        {
          "name": "G1",
          "midi": 31,
          "time": 94.7560564999991,
          "velocity": 0.7480314960629921,
          "duration": 0.36585350000000005
        },
        {
          "name": "G1",
          "midi": 31,
          "time": 95.1219099999991,
          "velocity": 0.7480314960629921,
          "duration": 0.18292674999999292
        },
        {
          "name": "G1",
          "midi": 31,
          "time": 95.3048367499991,
          "velocity": 0.7480314960629921,
          "duration": 0.18292674999999292
        },
        {
          "name": "G1",
          "midi": 31,
          "time": 95.48776349999909,
          "velocity": 0.7480314960629921,
          "duration": 0.36585350000000005
        },
        {
          "name": "G1",
          "midi": 31,
          "time": 95.85361699999909,
          "velocity": 0.7480314960629921,
          "duration": 0.36585350000000005
        },
        {
          "name": "G1",
          "midi": 31,
          "time": 96.21947049999909,
          "velocity": 0.7480314960629921,
          "duration": 0.18292674999999292
        },
        {
          "name": "G1",
          "midi": 31,
          "time": 96.40239724999908,
          "velocity": 0.7480314960629921,
          "duration": 0.18292674999999292
        },
        {
          "name": "D2",
          "midi": 38,
          "time": 96.58532399999908,
          "velocity": 0.7480314960629921,
          "duration": 0.18292674999999292
        },
        {
          "name": "D2",
          "midi": 38,
          "time": 96.76825074999907,
          "velocity": 0.7480314960629921,
          "duration": 0.18292674999999292
        },
        {
          "name": "D2",
          "midi": 38,
          "time": 96.95117749999906,
          "velocity": 0.7480314960629921,
          "duration": 0.36585350000000005
        },
        {
          "name": "D2",
          "midi": 38,
          "time": 97.31703099999906,
          "velocity": 0.7480314960629921,
          "duration": 0.36585350000000005
        },
        {
          "name": "D2",
          "midi": 38,
          "time": 97.68288449999906,
          "velocity": 0.7480314960629921,
          "duration": 0.18292674999999292
        },
        {
          "name": "A1",
          "midi": 33,
          "time": 97.86581124999906,
          "velocity": 0.7480314960629921,
          "duration": 0.18292674999999292
        },
        {
          "name": "G1",
          "midi": 31,
          "time": 98.04873799999905,
          "velocity": 0.7480314960629921,
          "duration": 0.18292674999999292
        },
        {
          "name": "G1",
          "midi": 31,
          "time": 98.23166474999904,
          "velocity": 0.7480314960629921,
          "duration": 0.18292674999999292
        },
        {
          "name": "G1",
          "midi": 31,
          "time": 98.41459149999903,
          "velocity": 0.7480314960629921,
          "duration": 0.36585350000000005
        },
        {
          "name": "G1",
          "midi": 31,
          "time": 98.78044499999903,
          "velocity": 0.7480314960629921,
          "duration": 0.18292674999999292
        },
        {
          "name": "G1",
          "midi": 31,
          "time": 98.96337174999903,
          "velocity": 0.7480314960629921,
          "duration": 0.18292674999999292
        },
        {
          "name": "G1",
          "midi": 31,
          "time": 99.14629849999902,
          "velocity": 0.7480314960629921,
          "duration": 0.18292674999999292
        },
        {
          "name": "G1",
          "midi": 31,
          "time": 99.32922524999901,
          "velocity": 0.7480314960629921,
          "duration": 0.18292674999999292
        },
        {
          "name": "B1",
          "midi": 35,
          "time": 99.512151999999,
          "velocity": 0.7480314960629921,
          "duration": 0.18292674999999292
        },
        {
          "name": "B1",
          "midi": 35,
          "time": 99.695078749999,
          "velocity": 0.7480314960629921,
          "duration": 0.18292674999999292
        },
        {
          "name": "B1",
          "midi": 35,
          "time": 99.87800549999899,
          "velocity": 0.7480314960629921,
          "duration": 0.18292674999999292
        },
        {
          "name": "B1",
          "midi": 35,
          "time": 100.06093224999898,
          "velocity": 0.7480314960629921,
          "duration": 0.18292674999999292
        },
        {
          "name": "B1",
          "midi": 35,
          "time": 100.24385899999898,
          "velocity": 0.7480314960629921,
          "duration": 0.18292674999999292
        },
        {
          "name": "B1",
          "midi": 35,
          "time": 100.42678574999897,
          "velocity": 0.7480314960629921,
          "duration": 0.18292674999999292
        },
        {
          "name": "B1",
          "midi": 35,
          "time": 100.60971249999896,
          "velocity": 0.7480314960629921,
          "duration": 0.18292675000000713
        },
        {
          "name": "A1",
          "midi": 33,
          "time": 100.79263924999897,
          "velocity": 0.6771653543307087,
          "duration": 0.18292674999999292
        },
        {
          "name": "G1",
          "midi": 31,
          "time": 100.97556599999896,
          "velocity": 0.7480314960629921,
          "duration": 0.18292674999999292
        },
        {
          "name": "G1",
          "midi": 31,
          "time": 101.15849274999896,
          "velocity": 0.7480314960629921,
          "duration": 0.18292674999999292
        },
        {
          "name": "G1",
          "midi": 31,
          "time": 101.34141949999895,
          "velocity": 0.7480314960629921,
          "duration": 0.18292674999999292
        },
        {
          "name": "G1",
          "midi": 31,
          "time": 101.52434624999894,
          "velocity": 0.7480314960629921,
          "duration": 0.18292674999999292
        },
        {
          "name": "G1",
          "midi": 31,
          "time": 101.70727299999893,
          "velocity": 0.7480314960629921,
          "duration": 0.18292674999999292
        },
        {
          "name": "G1",
          "midi": 31,
          "time": 101.89019974999893,
          "velocity": 0.7480314960629921,
          "duration": 0.18292674999999292
        },
        {
          "name": "G1",
          "midi": 31,
          "time": 102.07312649999892,
          "velocity": 0.7480314960629921,
          "duration": 0.18292674999999292
        },
        {
          "name": "G1",
          "midi": 31,
          "time": 102.25605324999891,
          "velocity": 0.7480314960629921,
          "duration": 0.18292674999999292
        },
        {
          "name": "D2",
          "midi": 38,
          "time": 102.4389799999989,
          "velocity": 0.7480314960629921,
          "duration": 0.18292674999999292
        },
        {
          "name": "D2",
          "midi": 38,
          "time": 102.6219067499989,
          "velocity": 0.7480314960629921,
          "duration": 0.18292674999999292
        },
        {
          "name": "D2",
          "midi": 38,
          "time": 102.80483349999889,
          "velocity": 0.7480314960629921,
          "duration": 0.36585350000000005
        },
        {
          "name": "D2",
          "midi": 38,
          "time": 103.17068699999889,
          "velocity": 0.7480314960629921,
          "duration": 0.36585350000000005
        },
        {
          "name": "D2",
          "midi": 38,
          "time": 103.53654049999889,
          "velocity": 0.7480314960629921,
          "duration": 0.18292674999999292
        },
        {
          "name": "A1",
          "midi": 33,
          "time": 103.71946724999889,
          "velocity": 0.7480314960629921,
          "duration": 0.18292674999999292
        },
        {
          "name": "G1",
          "midi": 31,
          "time": 103.90239399999888,
          "velocity": 0.7480314960629921,
          "duration": 0.18292674999999292
        },
        {
          "name": "G1",
          "midi": 31,
          "time": 104.08532074999887,
          "velocity": 0.7480314960629921,
          "duration": 0.18292674999999292
        },
        {
          "name": "G1",
          "midi": 31,
          "time": 104.26824749999886,
          "velocity": 0.7480314960629921,
          "duration": 0.36585350000000005
        },
        {
          "name": "G1",
          "midi": 31,
          "time": 104.63410099999886,
          "velocity": 0.7480314960629921,
          "duration": 0.18292674999999292
        },
        {
          "name": "G1",
          "midi": 31,
          "time": 104.81702774999886,
          "velocity": 0.7480314960629921,
          "duration": 0.18292674999999292
        },
        {
          "name": "G1",
          "midi": 31,
          "time": 104.99995449999885,
          "velocity": 0.7480314960629921,
          "duration": 0.18292674999999292
        },
        {
          "name": "G1",
          "midi": 31,
          "time": 105.18288124999884,
          "velocity": 0.7480314960629921,
          "duration": 0.18292674999999292
        },
        {
          "name": "B1",
          "midi": 35,
          "time": 105.36580799999884,
          "velocity": 0.7480314960629921,
          "duration": 0.18292674999999292
        },
        {
          "name": "B1",
          "midi": 35,
          "time": 105.54873474999883,
          "velocity": 0.7480314960629921,
          "duration": 0.18292674999999292
        },
        {
          "name": "B1",
          "midi": 35,
          "time": 105.73166149999882,
          "velocity": 0.7480314960629921,
          "duration": 0.18292674999999292
        },
        {
          "name": "B1",
          "midi": 35,
          "time": 105.91458824999881,
          "velocity": 0.7480314960629921,
          "duration": 0.18292674999999292
        },
        {
          "name": "B1",
          "midi": 35,
          "time": 106.09751499999881,
          "velocity": 0.7480314960629921,
          "duration": 0.18292674999999292
        },
        {
          "name": "B1",
          "midi": 35,
          "time": 106.2804417499988,
          "velocity": 0.7480314960629921,
          "duration": 0.18292674999999292
        },
        {
          "name": "B1",
          "midi": 35,
          "time": 106.4633684999988,
          "velocity": 0.7480314960629921,
          "duration": 0.18292675000000713
        },
        {
          "name": "A1",
          "midi": 33,
          "time": 106.6462952499988,
          "velocity": 0.6771653543307087,
          "duration": 0.18292674999999292
        },
        {
          "name": "G1",
          "midi": 31,
          "time": 106.8292219999988,
          "velocity": 0.7480314960629921,
          "duration": 0.18292674999999292
        },
        {
          "name": "G1",
          "midi": 31,
          "time": 107.01214874999879,
          "velocity": 0.7480314960629921,
          "duration": 0.18292674999999292
        },
        {
          "name": "G1",
          "midi": 31,
          "time": 107.19507549999878,
          "velocity": 0.7480314960629921,
          "duration": 0.18292674999999292
        },
        {
          "name": "G1",
          "midi": 31,
          "time": 107.37800224999877,
          "velocity": 0.7480314960629921,
          "duration": 0.18292674999999292
        },
        {
          "name": "G1",
          "midi": 31,
          "time": 107.56092899999877,
          "velocity": 0.7480314960629921,
          "duration": 0.18292674999999292
        },
        {
          "name": "G1",
          "midi": 31,
          "time": 107.74385574999876,
          "velocity": 0.7480314960629921,
          "duration": 0.18292674999999292
        },
        {
          "name": "G1",
          "midi": 31,
          "time": 107.92678249999875,
          "velocity": 0.7480314960629921,
          "duration": 0.18292674999999292
        },
        {
          "name": "G1",
          "midi": 31,
          "time": 108.10970924999874,
          "velocity": 0.7480314960629921,
          "duration": 0.18292674999999292
        },
        {
          "name": "D2",
          "midi": 38,
          "time": 108.29263599999874,
          "velocity": 0.7480314960629921,
          "duration": 0.18292674999999292
        },
        {
          "name": "D2",
          "midi": 38,
          "time": 108.47556274999873,
          "velocity": 0.7480314960629921,
          "duration": 0.18292674999999292
        },
        {
          "name": "D2",
          "midi": 38,
          "time": 108.65848949999872,
          "velocity": 0.7480314960629921,
          "duration": 0.36585350000000005
        },
        {
          "name": "D2",
          "midi": 38,
          "time": 109.02434299999872,
          "velocity": 0.7480314960629921,
          "duration": 0.36585350000000005
        },
        {
          "name": "D2",
          "midi": 38,
          "time": 109.39019649999872,
          "velocity": 0.7480314960629921,
          "duration": 0.18292674999999292
        },
        {
          "name": "A1",
          "midi": 33,
          "time": 109.57312324999872,
          "velocity": 0.7480314960629921,
          "duration": 0.18292674999999292
        },
        {
          "name": "G1",
          "midi": 31,
          "time": 109.75604999999871,
          "velocity": 0.7480314960629921,
          "duration": 0.18292674999999292
        },
        {
          "name": "G1",
          "midi": 31,
          "time": 109.9389767499987,
          "velocity": 0.7480314960629921,
          "duration": 0.18292674999999292
        },
        {
          "name": "G1",
          "midi": 31,
          "time": 110.1219034999987,
          "velocity": 0.7480314960629921,
          "duration": 0.36585350000000005
        },
        {
          "name": "G1",
          "midi": 31,
          "time": 110.4877569999987,
          "velocity": 0.7480314960629921,
          "duration": 0.18292674999999292
        },
        {
          "name": "G1",
          "midi": 31,
          "time": 110.67068374999869,
          "velocity": 0.7480314960629921,
          "duration": 0.18292674999999292
        },
        {
          "name": "G1",
          "midi": 31,
          "time": 110.85361049999868,
          "velocity": 0.7480314960629921,
          "duration": 0.18292674999999292
        },
        {
          "name": "G1",
          "midi": 31,
          "time": 111.03653724999867,
          "velocity": 0.7480314960629921,
          "duration": 0.18292674999999292
        },
        {
          "name": "B1",
          "midi": 35,
          "time": 111.21946399999867,
          "velocity": 0.7480314960629921,
          "duration": 0.18292674999999292
        },
        {
          "name": "B1",
          "midi": 35,
          "time": 111.40239074999866,
          "velocity": 0.7480314960629921,
          "duration": 0.18292674999999292
        },
        {
          "name": "B1",
          "midi": 35,
          "time": 111.58531749999865,
          "velocity": 0.7480314960629921,
          "duration": 0.18292674999999292
        },
        {
          "name": "B1",
          "midi": 35,
          "time": 111.76824424999865,
          "velocity": 0.7480314960629921,
          "duration": 0.18292674999999292
        },
        {
          "name": "B1",
          "midi": 35,
          "time": 111.95117099999864,
          "velocity": 0.7480314960629921,
          "duration": 0.18292674999999292
        },
        {
          "name": "B1",
          "midi": 35,
          "time": 112.13409774999863,
          "velocity": 0.7480314960629921,
          "duration": 0.18292674999999292
        },
        {
          "name": "B1",
          "midi": 35,
          "time": 112.31702449999862,
          "velocity": 0.7480314960629921,
          "duration": 0.18292675000000713
        },
        {
          "name": "A1",
          "midi": 33,
          "time": 112.49995124999863,
          "velocity": 0.6771653543307087,
          "duration": 0.18292674999999292
        },
        {
          "name": "G1",
          "midi": 31,
          "time": 112.68287799999862,
          "velocity": 0.7480314960629921,
          "duration": 0.18292674999999292
        },
        {
          "name": "G1",
          "midi": 31,
          "time": 112.86580474999862,
          "velocity": 0.7480314960629921,
          "duration": 0.18292674999999292
        },
        {
          "name": "G1",
          "midi": 31,
          "time": 113.04873149999861,
          "velocity": 0.7480314960629921,
          "duration": 0.18292674999999292
        },
        {
          "name": "G1",
          "midi": 31,
          "time": 113.2316582499986,
          "velocity": 0.7480314960629921,
          "duration": 0.18292674999999292
        },
        {
          "name": "G1",
          "midi": 31,
          "time": 113.4145849999986,
          "velocity": 0.7480314960629921,
          "duration": 0.18292674999999292
        },
        {
          "name": "G1",
          "midi": 31,
          "time": 113.59751174999859,
          "velocity": 0.7480314960629921,
          "duration": 0.18292674999999292
        },
        {
          "name": "G1",
          "midi": 31,
          "time": 113.78043849999858,
          "velocity": 0.7480314960629921,
          "duration": 0.18292674999999292
        },
        {
          "name": "G1",
          "midi": 31,
          "time": 113.96336524999857,
          "velocity": 0.7480314960629921,
          "duration": 0.18292674999999292
        },
        {
          "name": "D2",
          "midi": 38,
          "time": 114.14629199999857,
          "velocity": 0.7480314960629921,
          "duration": 0.18292674999999292
        },
        {
          "name": "D2",
          "midi": 38,
          "time": 114.32921874999856,
          "velocity": 0.7480314960629921,
          "duration": 0.18292674999999292
        },
        {
          "name": "D2",
          "midi": 38,
          "time": 114.51214549999855,
          "velocity": 0.7480314960629921,
          "duration": 0.36585350000000005
        },
        {
          "name": "D2",
          "midi": 38,
          "time": 114.87799899999855,
          "velocity": 0.7480314960629921,
          "duration": 0.36585350000000005
        },
        {
          "name": "D2",
          "midi": 38,
          "time": 115.24385249999855,
          "velocity": 0.7480314960629921,
          "duration": 0.18292674999999292
        },
        {
          "name": "A1",
          "midi": 33,
          "time": 115.42677924999855,
          "velocity": 0.7480314960629921,
          "duration": 0.18292674999999292
        },
        {
          "name": "G1",
          "midi": 31,
          "time": 115.60970599999854,
          "velocity": 0.7480314960629921,
          "duration": 0.18292674999999292
        },
        {
          "name": "G1",
          "midi": 31,
          "time": 115.79263274999853,
          "velocity": 0.7480314960629921,
          "duration": 0.18292674999999292
        },
        {
          "name": "G1",
          "midi": 31,
          "time": 115.97555949999852,
          "velocity": 0.7480314960629921,
          "duration": 0.36585350000000005
        },
        {
          "name": "G1",
          "midi": 31,
          "time": 116.34141299999852,
          "velocity": 0.7480314960629921,
          "duration": 0.18292674999999292
        },
        {
          "name": "G1",
          "midi": 31,
          "time": 116.52433974999852,
          "velocity": 0.7480314960629921,
          "duration": 0.18292674999999292
        },
        {
          "name": "G1",
          "midi": 31,
          "time": 116.70726649999851,
          "velocity": 0.7480314960629921,
          "duration": 0.18292674999999292
        },
        {
          "name": "G1",
          "midi": 31,
          "time": 116.8901932499985,
          "velocity": 0.7480314960629921,
          "duration": 0.18292674999999292
        },
        {
          "name": "B1",
          "midi": 35,
          "time": 117.0731199999985,
          "velocity": 0.7480314960629921,
          "duration": 0.18292674999999292
        },
        {
          "name": "B1",
          "midi": 35,
          "time": 117.25604674999849,
          "velocity": 0.7480314960629921,
          "duration": 0.18292674999999292
        },
        {
          "name": "B1",
          "midi": 35,
          "time": 117.43897349999848,
          "velocity": 0.7480314960629921,
          "duration": 0.18292674999999292
        },
        {
          "name": "B1",
          "midi": 35,
          "time": 117.62190024999848,
          "velocity": 0.7480314960629921,
          "duration": 0.18292674999999292
        },
        {
          "name": "B1",
          "midi": 35,
          "time": 117.80482699999847,
          "velocity": 0.7480314960629921,
          "duration": 0.18292674999999292
        },
        {
          "name": "B1",
          "midi": 35,
          "time": 117.98775374999846,
          "velocity": 0.7480314960629921,
          "duration": 0.18292674999999292
        },
        {
          "name": "B1",
          "midi": 35,
          "time": 118.17068049999845,
          "velocity": 0.7480314960629921,
          "duration": 0.18292675000000713
        },
        {
          "name": "A1",
          "midi": 33,
          "time": 118.35360724999846,
          "velocity": 0.6771653543307087,
          "duration": 0.18292674999999292
        },
        {
          "name": "G1",
          "midi": 31,
          "time": 118.53653399999845,
          "velocity": 0.7480314960629921,
          "duration": 0.18292674999999292
        },
        {
          "name": "G1",
          "midi": 31,
          "time": 118.71946074999845,
          "velocity": 0.7480314960629921,
          "duration": 0.18292674999999292
        },
        {
          "name": "G1",
          "midi": 31,
          "time": 118.90238749999844,
          "velocity": 0.7480314960629921,
          "duration": 0.18292674999999292
        },
        {
          "name": "G1",
          "midi": 31,
          "time": 119.08531424999843,
          "velocity": 0.7480314960629921,
          "duration": 0.18292674999999292
        },
        {
          "name": "G1",
          "midi": 31,
          "time": 119.26824099999843,
          "velocity": 0.7480314960629921,
          "duration": 0.18292674999999292
        },
        {
          "name": "G1",
          "midi": 31,
          "time": 119.45116774999842,
          "velocity": 0.7480314960629921,
          "duration": 0.18292674999999292
        },
        {
          "name": "G1",
          "midi": 31,
          "time": 119.63409449999841,
          "velocity": 0.7480314960629921,
          "duration": 0.18292674999999292
        },
        {
          "name": "G1",
          "midi": 31,
          "time": 119.8170212499984,
          "velocity": 0.7480314960629921,
          "duration": 0.18292674999999292
        },
        {
          "name": "F#1",
          "midi": 30,
          "time": 119.9999479999984,
          "velocity": 0.7480314960629921,
          "duration": 0.18292674999999292
        },
        {
          "name": "F#1",
          "midi": 30,
          "time": 120.18287474999839,
          "velocity": 0.7480314960629921,
          "duration": 0.18292674999999292
        },
        {
          "name": "F#1",
          "midi": 30,
          "time": 120.36580149999838,
          "velocity": 0.7480314960629921,
          "duration": 0.18292674999999292
        },
        {
          "name": "F#1",
          "midi": 30,
          "time": 120.54872824999838,
          "velocity": 0.7480314960629921,
          "duration": 0.18292674999999292
        },
        {
          "name": "F#1",
          "midi": 30,
          "time": 120.73165499999837,
          "velocity": 0.7480314960629921,
          "duration": 0.18292674999999292
        },
        {
          "name": "F#1",
          "midi": 30,
          "time": 120.91458174999836,
          "velocity": 0.7480314960629921,
          "duration": 0.18292674999999292
        },
        {
          "name": "G2",
          "midi": 43,
          "time": 121.09750849999836,
          "velocity": 0.7480314960629921,
          "duration": 0.18292674999999292
        },
        {
          "name": "G2",
          "midi": 43,
          "time": 121.28043524999835,
          "velocity": 0.7480314960629921,
          "duration": 0.18292674999999292
        },
        {
          "name": "G2",
          "midi": 43,
          "time": 121.46336199999834,
          "velocity": 0.7480314960629921,
          "duration": 0.18292674999999292
        },
        {
          "name": "G2",
          "midi": 43,
          "time": 121.64628874999833,
          "velocity": 0.7480314960629921,
          "duration": 0.18292674999999292
        },
        {
          "name": "G2",
          "midi": 43,
          "time": 121.82921549999833,
          "velocity": 0.7480314960629921,
          "duration": 0.18292674999999292
        },
        {
          "name": "G2",
          "midi": 43,
          "time": 122.01214224999832,
          "velocity": 0.7480314960629921,
          "duration": 0.18292674999999292
        },
        {
          "name": "G2",
          "midi": 43,
          "time": 122.19506899999831,
          "velocity": 0.7480314960629921,
          "duration": 0.18292674999999292
        },
        {
          "name": "G2",
          "midi": 43,
          "time": 122.3779957499983,
          "velocity": 0.7480314960629921,
          "duration": 0.18292674999999292
        },
        {
          "name": "G2",
          "midi": 43,
          "time": 122.5609224999983,
          "velocity": 0.7480314960629921,
          "duration": 0.18292674999999292
        },
        {
          "name": "G2",
          "midi": 43,
          "time": 122.74384924999829,
          "velocity": 0.7480314960629921,
          "duration": 0.18292674999999292
        },
        {
          "name": "A2",
          "midi": 45,
          "time": 122.92677599999828,
          "velocity": 0.7480314960629921,
          "duration": 0.18292674999999292
        },
        {
          "name": "A2",
          "midi": 45,
          "time": 123.10970274999828,
          "velocity": 0.7480314960629921,
          "duration": 0.18292674999999292
        },
        {
          "name": "A2",
          "midi": 45,
          "time": 123.29262949999827,
          "velocity": 0.7480314960629921,
          "duration": 0.18292674999999292
        },
        {
          "name": "A2",
          "midi": 45,
          "time": 123.47555624999826,
          "velocity": 0.7480314960629921,
          "duration": 0.18292674999999292
        },
        {
          "name": "A2",
          "midi": 45,
          "time": 123.65848299999826,
          "velocity": 0.7480314960629921,
          "duration": 0.18292674999999292
        },
        {
          "name": "A2",
          "midi": 45,
          "time": 123.84140974999825,
          "velocity": 0.7480314960629921,
          "duration": 0.18292674999999292
        },
        {
          "name": "B2",
          "midi": 47,
          "time": 124.02433649999824,
          "velocity": 0.7480314960629921,
          "duration": 0.18292674999999292
        },
        {
          "name": "B2",
          "midi": 47,
          "time": 124.20726324999823,
          "velocity": 0.7480314960629921,
          "duration": 0.18292674999999292
        },
        {
          "name": "B2",
          "midi": 47,
          "time": 124.39018999999823,
          "velocity": 0.7480314960629921,
          "duration": 0.18292674999999292
        },
        {
          "name": "B2",
          "midi": 47,
          "time": 124.57311674999822,
          "velocity": 0.7480314960629921,
          "duration": 0.18292674999999292
        },
        {
          "name": "B2",
          "midi": 47,
          "time": 124.75604349999821,
          "velocity": 0.7480314960629921,
          "duration": 0.18292674999999292
        },
        {
          "name": "B2",
          "midi": 47,
          "time": 124.9389702499982,
          "velocity": 0.7480314960629921,
          "duration": 0.18292674999999292
        },
        {
          "name": "B2",
          "midi": 47,
          "time": 125.1218969999982,
          "velocity": 0.7480314960629921,
          "duration": 0.18292674999999292
        },
        {
          "name": "B2",
          "midi": 47,
          "time": 125.30482374999819,
          "velocity": 0.7480314960629921,
          "duration": 0.18292674999999292
        },
        {
          "name": "B2",
          "midi": 47,
          "time": 125.48775049999819,
          "velocity": 0.7480314960629921,
          "duration": 0.18292674999999292
        },
        {
          "name": "B2",
          "midi": 47,
          "time": 125.67067724999818,
          "velocity": 0.7480314960629921,
          "duration": 0.18292674999999292
        },
        {
          "name": "C3",
          "midi": 48,
          "time": 125.85360399999817,
          "velocity": 0.7480314960629921,
          "duration": 0.18292674999999292
        },
        {
          "name": "C3",
          "midi": 48,
          "time": 126.03653074999816,
          "velocity": 0.7480314960629921,
          "duration": 0.18292674999999292
        },
        {
          "name": "C3",
          "midi": 48,
          "time": 126.21945749999816,
          "velocity": 0.7480314960629921,
          "duration": 0.18292674999999292
        },
        {
          "name": "C3",
          "midi": 48,
          "time": 126.40238424999815,
          "velocity": 0.7480314960629921,
          "duration": 0.18292674999999292
        },
        {
          "name": "C3",
          "midi": 48,
          "time": 126.58531099999814,
          "velocity": 0.7480314960629921,
          "duration": 0.18292674999999292
        },
        {
          "name": "C3",
          "midi": 48,
          "time": 126.76823774999814,
          "velocity": 0.7480314960629921,
          "duration": 0.18292674999999292
        },
        {
          "name": "B2",
          "midi": 47,
          "time": 126.95116449999813,
          "velocity": 0.7480314960629921,
          "duration": 0.18292674999999292
        },
        {
          "name": "B2",
          "midi": 47,
          "time": 127.13409124999812,
          "velocity": 0.7480314960629921,
          "duration": 0.18292674999999292
        },
        {
          "name": "B2",
          "midi": 47,
          "time": 127.31701799999811,
          "velocity": 0.7480314960629921,
          "duration": 0.18292674999999292
        },
        {
          "name": "B2",
          "midi": 47,
          "time": 127.49994474999811,
          "velocity": 0.7480314960629921,
          "duration": 0.18292674999999292
        },
        {
          "name": "B2",
          "midi": 47,
          "time": 127.6828714999981,
          "velocity": 0.7480314960629921,
          "duration": 0.18292674999999292
        },
        {
          "name": "B2",
          "midi": 47,
          "time": 127.8657982499981,
          "velocity": 0.7480314960629921,
          "duration": 0.18292674999999292
        },
        {
          "name": "B2",
          "midi": 47,
          "time": 128.0487249999981,
          "velocity": 0.7480314960629921,
          "duration": 0.18292675000000713
        },
        {
          "name": "B2",
          "midi": 47,
          "time": 128.2316517499981,
          "velocity": 0.7480314960629921,
          "duration": 0.18292675000000713
        },
        {
          "name": "B2",
          "midi": 47,
          "time": 128.4145784999981,
          "velocity": 0.7480314960629921,
          "duration": 0.18292675000000713
        },
        {
          "name": "D2",
          "midi": 38,
          "time": 128.5975052499981,
          "velocity": 0.7480314960629921,
          "duration": 0.18292675000000713
        },
        {
          "name": "G2",
          "midi": 43,
          "time": 128.78043199999811,
          "velocity": 0.7480314960629921,
          "duration": 2.560974499999986
        },
        {
          "name": "D1",
          "midi": 26,
          "time": 131.7072599999981,
          "velocity": 0.7480314960629921,
          "duration": 0.18292675000000713
        },
        {
          "name": "D1",
          "midi": 26,
          "time": 131.8901867499981,
          "velocity": 0.7480314960629921,
          "duration": 0.18292675000000713
        },
        {
          "name": "D1",
          "midi": 26,
          "time": 132.0731134999981,
          "velocity": 0.7480314960629921,
          "duration": 0.18292675000000713
        },
        {
          "name": "D1",
          "midi": 26,
          "time": 132.2560402499981,
          "velocity": 0.7480314960629921,
          "duration": 0.18292675000000713
        },
        {
          "name": "D1",
          "midi": 26,
          "time": 132.43896699999812,
          "velocity": 0.7480314960629921,
          "duration": 0.18292675000000713
        },
        {
          "name": "D1",
          "midi": 26,
          "time": 132.62189374999812,
          "velocity": 0.7480314960629921,
          "duration": 0.18292675000000713
        },
        {
          "name": "D1",
          "midi": 26,
          "time": 132.80482049999813,
          "velocity": 0.7480314960629921,
          "duration": 0.18292675000000713
        },
        {
          "name": "D1",
          "midi": 26,
          "time": 132.98774724999814,
          "velocity": 0.7480314960629921,
          "duration": 0.18292675000000713
        },
        {
          "name": "D1",
          "midi": 26,
          "time": 133.17067399999814,
          "velocity": 0.7480314960629921,
          "duration": 0.18292675000000713
        },
        {
          "name": "D1",
          "midi": 26,
          "time": 133.35360074999815,
          "velocity": 0.7480314960629921,
          "duration": 0.18292675000000713
        },
        {
          "name": "D1",
          "midi": 26,
          "time": 133.53652749999816,
          "velocity": 0.7480314960629921,
          "duration": 0.18292675000000713
        },
        {
          "name": "D1",
          "midi": 26,
          "time": 133.71945424999817,
          "velocity": 0.7480314960629921,
          "duration": 0.18292675000000713
        },
        {
          "name": "D1",
          "midi": 26,
          "time": 133.90238099999817,
          "velocity": 0.7480314960629921,
          "duration": 0.18292675000000713
        },
        {
          "name": "D1",
          "midi": 26,
          "time": 134.08530774999818,
          "velocity": 0.7480314960629921,
          "duration": 0.18292675000000713
        },
        {
          "name": "D1",
          "midi": 26,
          "time": 134.2682344999982,
          "velocity": 0.7480314960629921,
          "duration": 0.18292675000000713
        },
        {
          "name": "D1",
          "midi": 26,
          "time": 134.4511612499982,
          "velocity": 0.7480314960629921,
          "duration": 0.18292675000000713
        },
        {
          "name": "G1",
          "midi": 31,
          "time": 134.6340879999982,
          "velocity": 0.7480314960629921,
          "duration": 0.18292675000000713
        },
        {
          "name": "G1",
          "midi": 31,
          "time": 134.8170147499982,
          "velocity": 0.7480314960629921,
          "duration": 0.18292675000000713
        },
        {
          "name": "G1",
          "midi": 31,
          "time": 134.99994149999822,
          "velocity": 0.7480314960629921,
          "duration": 0.18292675000000713
        },
        {
          "name": "G1",
          "midi": 31,
          "time": 135.18286824999822,
          "velocity": 0.7480314960629921,
          "duration": 0.18292675000000713
        },
        {
          "name": "G1",
          "midi": 31,
          "time": 135.36579499999823,
          "velocity": 0.7480314960629921,
          "duration": 0.18292675000000713
        },
        {
          "name": "G1",
          "midi": 31,
          "time": 135.54872174999824,
          "velocity": 0.7480314960629921,
          "duration": 0.18292675000000713
        },
        {
          "name": "G1",
          "midi": 31,
          "time": 135.73164849999824,
          "velocity": 0.7480314960629921,
          "duration": 0.18292675000000713
        },
        {
          "name": "G1",
          "midi": 31,
          "time": 135.91457524999825,
          "velocity": 0.7480314960629921,
          "duration": 0.18292675000000713
        },
        {
          "name": "G1",
          "midi": 31,
          "time": 136.09750199999826,
          "velocity": 0.7480314960629921,
          "duration": 0.18292675000000713
        },
        {
          "name": "G1",
          "midi": 31,
          "time": 136.28042874999826,
          "velocity": 0.7480314960629921,
          "duration": 0.18292675000000713
        },
        {
          "name": "G1",
          "midi": 31,
          "time": 136.46335549999827,
          "velocity": 0.7480314960629921,
          "duration": 0.18292675000000713
        },
        {
          "name": "G1",
          "midi": 31,
          "time": 136.64628224999828,
          "velocity": 0.7480314960629921,
          "duration": 0.18292675000000713
        },
        {
          "name": "G1",
          "midi": 31,
          "time": 136.8292089999983,
          "velocity": 0.7480314960629921,
          "duration": 0.18292675000000713
        },
        {
          "name": "G1",
          "midi": 31,
          "time": 137.0121357499983,
          "velocity": 0.7480314960629921,
          "duration": 0.18292675000000713
        },
        {
          "name": "G1",
          "midi": 31,
          "time": 137.1950624999983,
          "velocity": 0.7480314960629921,
          "duration": 0.18292675000000713
        },
        {
          "name": "G1",
          "midi": 31,
          "time": 137.3779892499983,
          "velocity": 0.7480314960629921,
          "duration": 0.18292675000000713
        },
        {
          "name": "B1",
          "midi": 35,
          "time": 137.56091599999831,
          "velocity": 0.6771653543307087,
          "duration": 0.18292675000000713
        },
        {
          "name": "B1",
          "midi": 35,
          "time": 137.74384274999832,
          "velocity": 0.7480314960629921,
          "duration": 0.18292675000000713
        },
        {
          "name": "B1",
          "midi": 35,
          "time": 137.92676949999833,
          "velocity": 0.7480314960629921,
          "duration": 0.18292675000000713
        },
        {
          "name": "B1",
          "midi": 35,
          "time": 138.10969624999834,
          "velocity": 0.7480314960629921,
          "duration": 0.18292675000000713
        },
        {
          "name": "B1",
          "midi": 35,
          "time": 138.29262299999834,
          "velocity": 0.7480314960629921,
          "duration": 0.18292675000000713
        },
        {
          "name": "B1",
          "midi": 35,
          "time": 138.47554974999835,
          "velocity": 0.7480314960629921,
          "duration": 0.18292675000000713
        },
        {
          "name": "B1",
          "midi": 35,
          "time": 138.65847649999836,
          "velocity": 0.7480314960629921,
          "duration": 0.18292675000000713
        },
        {
          "name": "B1",
          "midi": 35,
          "time": 138.84140324999836,
          "velocity": 0.7480314960629921,
          "duration": 0.18292675000000713
        },
        {
          "name": "B1",
          "midi": 35,
          "time": 139.02432999999837,
          "velocity": 0.7480314960629921,
          "duration": 0.18292675000000713
        },
        {
          "name": "B1",
          "midi": 35,
          "time": 139.20725674999838,
          "velocity": 0.7480314960629921,
          "duration": 0.18292675000000713
        },
        {
          "name": "B1",
          "midi": 35,
          "time": 139.3901834999984,
          "velocity": 0.7480314960629921,
          "duration": 0.18292675000000713
        },
        {
          "name": "B1",
          "midi": 35,
          "time": 139.5731102499984,
          "velocity": 0.7480314960629921,
          "duration": 0.18292675000000713
        },
        {
          "name": "B1",
          "midi": 35,
          "time": 139.7560369999984,
          "velocity": 0.7480314960629921,
          "duration": 0.18292675000000713
        },
        {
          "name": "B1",
          "midi": 35,
          "time": 139.9389637499984,
          "velocity": 0.7480314960629921,
          "duration": 0.18292675000000713
        },
        {
          "name": "B1",
          "midi": 35,
          "time": 140.12189049999841,
          "velocity": 0.7480314960629921,
          "duration": 0.18292675000000713
        },
        {
          "name": "D1",
          "midi": 26,
          "time": 140.30481724999842,
          "velocity": 0.7480314960629921,
          "duration": 0.18292675000000713
        },
        {
          "name": "G1",
          "midi": 31,
          "time": 140.48774399999843,
          "velocity": 0.7480314960629921,
          "duration": 0.18292675000000713
        },
        {
          "name": "G1",
          "midi": 31,
          "time": 140.67067074999844,
          "velocity": 0.7480314960629921,
          "duration": 0.18292675000000713
        },
        {
          "name": "G1",
          "midi": 31,
          "time": 140.85359749999844,
          "velocity": 0.7480314960629921,
          "duration": 0.18292675000000713
        },
        {
          "name": "G1",
          "midi": 31,
          "time": 141.03652424999845,
          "velocity": 0.7480314960629921,
          "duration": 0.18292675000000713
        },
        {
          "name": "G1",
          "midi": 31,
          "time": 141.21945099999846,
          "velocity": 0.7480314960629921,
          "duration": 0.18292675000000713
        },
        {
          "name": "G1",
          "midi": 31,
          "time": 141.40237774999846,
          "velocity": 0.7480314960629921,
          "duration": 0.18292675000000713
        },
        {
          "name": "G1",
          "midi": 31,
          "time": 141.58530449999847,
          "velocity": 0.7480314960629921,
          "duration": 0.18292675000000713
        },
        {
          "name": "G1",
          "midi": 31,
          "time": 141.76823124999848,
          "velocity": 0.7480314960629921,
          "duration": 0.18292675000000713
        },
        {
          "name": "G1",
          "midi": 31,
          "time": 141.9511579999985,
          "velocity": 0.7480314960629921,
          "duration": 0.18292675000000713
        },
        {
          "name": "G1",
          "midi": 31,
          "time": 142.1340847499985,
          "velocity": 0.7480314960629921,
          "duration": 0.18292675000000713
        },
        {
          "name": "G1",
          "midi": 31,
          "time": 142.3170114999985,
          "velocity": 0.7480314960629921,
          "duration": 0.18292675000000713
        },
        {
          "name": "G1",
          "midi": 31,
          "time": 142.4999382499985,
          "velocity": 0.7480314960629921,
          "duration": 0.18292675000000713
        },
        {
          "name": "D1",
          "midi": 26,
          "time": 142.68286499999851,
          "velocity": 0.7480314960629921,
          "duration": 0.030487791666672592
        },
        {
          "name": "D1",
          "midi": 26,
          "time": 142.86579174999852,
          "velocity": 0.7480314960629921,
          "duration": 0.030487791666672592
        },
        {
          "name": "D1",
          "midi": 26,
          "time": 143.04871849999853,
          "velocity": 0.7480314960629921,
          "duration": 0.030487791666672592
        },
        {
          "name": "D1",
          "midi": 26,
          "time": 143.23164524999854,
          "velocity": 0.7480314960629921,
          "duration": 0.030487791666672592
        },
        {
          "name": "D1",
          "midi": 26,
          "time": 143.41457199999854,
          "velocity": 0.7480314960629921,
          "duration": 0.18292675000000713
        },
        {
          "name": "D1",
          "midi": 26,
          "time": 143.59749874999855,
          "velocity": 0.7480314960629921,
          "duration": 0.18292675000000713
        },
        {
          "name": "D1",
          "midi": 26,
          "time": 143.78042549999856,
          "velocity": 0.7480314960629921,
          "duration": 0.18292675000000713
        },
        {
          "name": "D1",
          "midi": 26,
          "time": 143.96335224999856,
          "velocity": 0.7480314960629921,
          "duration": 0.18292675000000713
        },
        {
          "name": "D1",
          "midi": 26,
          "time": 144.14627899999857,
          "velocity": 0.7480314960629921,
          "duration": 0.18292675000000713
        },
        {
          "name": "D1",
          "midi": 26,
          "time": 144.87798599999857,
          "velocity": 0.7480314960629921,
          "duration": 0.18292675000000713
        },
        {
          "name": "D1",
          "midi": 26,
          "time": 145.06091274999858,
          "velocity": 0.7480314960629921,
          "duration": 0.18292675000000713
        },
        {
          "name": "D1",
          "midi": 26,
          "time": 145.2438394999986,
          "velocity": 0.7480314960629921,
          "duration": 0.18292675000000713
        },
        {
          "name": "D1",
          "midi": 26,
          "time": 145.4267662499986,
          "velocity": 0.7480314960629921,
          "duration": 0.18292675000000713
        },
        {
          "name": "D1",
          "midi": 26,
          "time": 145.6096929999986,
          "velocity": 0.7480314960629921,
          "duration": 0.18292675000000713
        },
        {
          "name": "G1",
          "midi": 31,
          "time": 146.3413999999986,
          "velocity": 0.7480314960629921,
          "duration": 0.18292675000000713
        },
        {
          "name": "G1",
          "midi": 31,
          "time": 146.5243267499986,
          "velocity": 0.7480314960629921,
          "duration": 0.18292675000000713
        },
        {
          "name": "G1",
          "midi": 31,
          "time": 146.70725349999861,
          "velocity": 0.7480314960629921,
          "duration": 0.18292675000000713
        },
        {
          "name": "G1",
          "midi": 31,
          "time": 146.89018024999862,
          "velocity": 0.7480314960629921,
          "duration": 0.18292675000000713
        },
        {
          "name": "G1",
          "midi": 31,
          "time": 147.07310699999863,
          "velocity": 0.7480314960629921,
          "duration": 0.18292675000000713
        },
        {
          "name": "G1",
          "midi": 31,
          "time": 147.80481399999863,
          "velocity": 0.7480314960629921,
          "duration": 0.18292675000000713
        },
        {
          "name": "G1",
          "midi": 31,
          "time": 147.98774074999864,
          "velocity": 0.7480314960629921,
          "duration": 0.18292675000000713
        },
        {
          "name": "G1",
          "midi": 31,
          "time": 148.17066749999864,
          "velocity": 0.7480314960629921,
          "duration": 0.18292675000000713
        },
        {
          "name": "G1",
          "midi": 31,
          "time": 148.35359424999865,
          "velocity": 0.7480314960629921,
          "duration": 0.18292675000000713
        },
        {
          "name": "G1",
          "midi": 31,
          "time": 148.53652099999866,
          "velocity": 0.7480314960629921,
          "duration": 0.18292675000000713
        },
        {
          "name": "B1",
          "midi": 35,
          "time": 149.26822799999866,
          "velocity": 0.7480314960629921,
          "duration": 0.18292675000000713
        },
        {
          "name": "B1",
          "midi": 35,
          "time": 149.45115474999866,
          "velocity": 0.7480314960629921,
          "duration": 0.18292675000000713
        },
        {
          "name": "B1",
          "midi": 35,
          "time": 149.63408149999867,
          "velocity": 0.7480314960629921,
          "duration": 0.18292675000000713
        },
        {
          "name": "B1",
          "midi": 35,
          "time": 149.81700824999868,
          "velocity": 0.7480314960629921,
          "duration": 0.18292675000000713
        },
        {
          "name": "B1",
          "midi": 35,
          "time": 149.9999349999987,
          "velocity": 0.7480314960629921,
          "duration": 0.18292675000000713
        },
        {
          "name": "B1",
          "midi": 35,
          "time": 150.7316419999987,
          "velocity": 0.7480314960629921,
          "duration": 0.18292675000000713
        },
        {
          "name": "B1",
          "midi": 35,
          "time": 150.9145687499987,
          "velocity": 0.7480314960629921,
          "duration": 0.18292675000000713
        },
        {
          "name": "B1",
          "midi": 35,
          "time": 151.0974954999987,
          "velocity": 0.7480314960629921,
          "duration": 0.18292675000000713
        },
        {
          "name": "B1",
          "midi": 35,
          "time": 151.2804222499987,
          "velocity": 0.7480314960629921,
          "duration": 0.18292675000000713
        },
        {
          "name": "B1",
          "midi": 35,
          "time": 151.46334899999871,
          "velocity": 0.7480314960629921,
          "duration": 0.18292675000000713
        },
        {
          "name": "G1",
          "midi": 31,
          "time": 152.19505599999871,
          "velocity": 0.7480314960629921,
          "duration": 0.18292675000000713
        },
        {
          "name": "G1",
          "midi": 31,
          "time": 152.37798274999872,
          "velocity": 0.7480314960629921,
          "duration": 0.18292675000000713
        },
        {
          "name": "G1",
          "midi": 31,
          "time": 152.56090949999873,
          "velocity": 0.7480314960629921,
          "duration": 0.18292675000000713
        },
        {
          "name": "G1",
          "midi": 31,
          "time": 152.74383624999874,
          "velocity": 0.7480314960629921,
          "duration": 0.18292675000000713
        },
        {
          "name": "G1",
          "midi": 31,
          "time": 152.92676299999874,
          "velocity": 0.7480314960629921,
          "duration": 0.18292675000000713
        },
        {
          "name": "G1",
          "midi": 31,
          "time": 153.65846999999874,
          "velocity": 0.7480314960629921,
          "duration": 0.18292675000000713
        },
        {
          "name": "G1",
          "midi": 31,
          "time": 153.84139674999875,
          "velocity": 0.7480314960629921,
          "duration": 0.18292675000000713
        },
        {
          "name": "G1",
          "midi": 31,
          "time": 154.02432349999876,
          "velocity": 0.7480314960629921,
          "duration": 0.18292675000000713
        },
        {
          "name": "G1",
          "midi": 31,
          "time": 154.20725024999876,
          "velocity": 0.7480314960629921,
          "duration": 0.18292675000000713
        },
        {
          "name": "G1",
          "midi": 31,
          "time": 154.39017699999877,
          "velocity": 0.7480314960629921,
          "duration": 0.18292675000000713
        },
        {
          "name": "G1",
          "midi": 31,
          "time": 154.57310374999878,
          "velocity": 0.7480314960629921,
          "duration": 0.18292675000000713
        },
        {
          "name": "E1",
          "midi": 28,
          "time": 155.12188399999877,
          "velocity": 0.7480314960629921,
          "duration": 0.18292675000000713
        },
        {
          "name": "E1",
          "midi": 28,
          "time": 155.30481074999878,
          "velocity": 0.7480314960629921,
          "duration": 0.18292675000000713
        },
        {
          "name": "E1",
          "midi": 28,
          "time": 155.6706642499988,
          "velocity": 0.7480314960629921,
          "duration": 0.18292675000000713
        },
        {
          "name": "E1",
          "midi": 28,
          "time": 156.0365177499988,
          "velocity": 0.7480314960629921,
          "duration": 0.18292675000000713
        },
        {
          "name": "D1",
          "midi": 26,
          "time": 156.21944449999881,
          "velocity": 0.7480314960629921,
          "duration": 6.219509499999987
        },
        {
          "name": "G1",
          "midi": 31,
          "time": 162.4389539999988,
          "velocity": 0.7480314960629921,
          "duration": 5.853656000000001
        },
        {
          "name": "D1",
          "midi": 26,
          "time": 168.2926099999988,
          "velocity": 0.7480314960629921,
          "duration": 5.853656000000001
        },
        {
          "name": "G1",
          "midi": 31,
          "time": 174.1462659999988,
          "velocity": 0.7480314960629921,
          "duration": 2.9268280000000004
        },
        {
          "name": "G1",
          "midi": 31,
          "time": 177.0730939999988,
          "velocity": 0.7480314960629921,
          "duration": 0.18292675000000713
        },
        {
          "name": "G1",
          "midi": 31,
          "time": 177.2560207499988,
          "velocity": 0.7480314960629921,
          "duration": 0.18292675000000713
        },
        {
          "name": "D1",
          "midi": 26,
          "time": 179.9999219999988,
          "velocity": 0.7480314960629921,
          "duration": 0.18292675000000713
        },
        {
          "name": "D1",
          "midi": 26,
          "time": 180.1828487499988,
          "velocity": 0.7480314960629921,
          "duration": 0.18292675000000713
        },
        {
          "name": "D1",
          "midi": 26,
          "time": 180.36577549999882,
          "velocity": 0.7480314960629921,
          "duration": 0.18292675000000713
        },
        {
          "name": "D1",
          "midi": 26,
          "time": 180.54870224999883,
          "velocity": 0.7480314960629921,
          "duration": 0.18292675000000713
        },
        {
          "name": "D1",
          "midi": 26,
          "time": 180.73162899999883,
          "velocity": 0.7480314960629921,
          "duration": 0.18292675000000713
        },
        {
          "name": "D1",
          "midi": 26,
          "time": 181.46333599999883,
          "velocity": 0.7480314960629921,
          "duration": 0.18292675000000713
        },
        {
          "name": "D1",
          "midi": 26,
          "time": 181.64626274999884,
          "velocity": 0.7480314960629921,
          "duration": 0.18292675000000713
        },
        {
          "name": "D1",
          "midi": 26,
          "time": 181.82918949999885,
          "velocity": 0.7480314960629921,
          "duration": 0.18292675000000713
        },
        {
          "name": "D1",
          "midi": 26,
          "time": 182.01211624999885,
          "velocity": 0.7480314960629921,
          "duration": 0.18292675000000713
        },
        {
          "name": "D1",
          "midi": 26,
          "time": 182.19504299999886,
          "velocity": 0.7480314960629921,
          "duration": 0.18292675000000713
        },
        {
          "name": "G1",
          "midi": 31,
          "time": 182.92674999999886,
          "velocity": 0.7480314960629921,
          "duration": 0.18292675000000713
        },
        {
          "name": "G1",
          "midi": 31,
          "time": 183.10967674999887,
          "velocity": 0.7480314960629921,
          "duration": 0.18292675000000713
        },
        {
          "name": "G1",
          "midi": 31,
          "time": 183.29260349999888,
          "velocity": 0.7480314960629921,
          "duration": 0.18292675000000713
        },
        {
          "name": "G1",
          "midi": 31,
          "time": 183.47553024999888,
          "velocity": 0.7480314960629921,
          "duration": 0.18292675000000713
        },
        {
          "name": "G1",
          "midi": 31,
          "time": 183.6584569999989,
          "velocity": 0.7480314960629921,
          "duration": 0.18292675000000713
        },
        {
          "name": "G1",
          "midi": 31,
          "time": 184.3901639999989,
          "velocity": 0.7480314960629921,
          "duration": 0.18292675000000713
        },
        {
          "name": "G1",
          "midi": 31,
          "time": 184.5730907499989,
          "velocity": 0.7480314960629921,
          "duration": 0.18292675000000713
        },
        {
          "name": "G1",
          "midi": 31,
          "time": 184.7560174999989,
          "velocity": 0.7480314960629921,
          "duration": 0.18292675000000713
        },
        {
          "name": "G1",
          "midi": 31,
          "time": 184.9389442499989,
          "velocity": 0.7480314960629921,
          "duration": 0.18292675000000713
        },
        {
          "name": "G1",
          "midi": 31,
          "time": 185.12187099999892,
          "velocity": 0.7480314960629921,
          "duration": 0.18292675000000713
        },
        {
          "name": "B1",
          "midi": 35,
          "time": 185.85357799999892,
          "velocity": 0.7480314960629921,
          "duration": 0.18292675000000713
        },
        {
          "name": "B1",
          "midi": 35,
          "time": 186.03650474999893,
          "velocity": 0.7480314960629921,
          "duration": 0.18292675000000713
        },
        {
          "name": "B1",
          "midi": 35,
          "time": 186.21943149999893,
          "velocity": 0.7480314960629921,
          "duration": 0.18292675000000713
        },
        {
          "name": "B1",
          "midi": 35,
          "time": 186.40235824999894,
          "velocity": 0.7480314960629921,
          "duration": 0.18292675000000713
        },
        {
          "name": "B1",
          "midi": 35,
          "time": 186.58528499999895,
          "velocity": 0.7480314960629921,
          "duration": 0.18292675000000713
        },
        {
          "name": "B1",
          "midi": 35,
          "time": 187.31699199999895,
          "velocity": 0.7480314960629921,
          "duration": 0.18292675000000713
        },
        {
          "name": "B1",
          "midi": 35,
          "time": 187.49991874999895,
          "velocity": 0.7480314960629921,
          "duration": 0.18292675000000713
        },
        {
          "name": "B1",
          "midi": 35,
          "time": 187.68284549999896,
          "velocity": 0.7480314960629921,
          "duration": 0.18292675000000713
        },
        {
          "name": "B1",
          "midi": 35,
          "time": 187.86577224999897,
          "velocity": 0.7480314960629921,
          "duration": 0.18292675000000713
        },
        {
          "name": "B1",
          "midi": 35,
          "time": 188.04869899999898,
          "velocity": 0.7480314960629921,
          "duration": 0.18292675000000713
        },
        {
          "name": "G1",
          "midi": 31,
          "time": 188.78040599999898,
          "velocity": 0.7480314960629921,
          "duration": 0.18292675000000713
        },
        {
          "name": "G1",
          "midi": 31,
          "time": 188.96333274999898,
          "velocity": 0.7480314960629921,
          "duration": 0.18292675000000713
        },
        {
          "name": "G1",
          "midi": 31,
          "time": 189.146259499999,
          "velocity": 0.7480314960629921,
          "duration": 0.18292675000000713
        },
        {
          "name": "G1",
          "midi": 31,
          "time": 189.329186249999,
          "velocity": 0.7480314960629921,
          "duration": 0.18292675000000713
        },
        {
          "name": "G1",
          "midi": 31,
          "time": 189.512112999999,
          "velocity": 0.7480314960629921,
          "duration": 0.18292675000000713
        },
        {
          "name": "G1",
          "midi": 31,
          "time": 190.243819999999,
          "velocity": 0.7480314960629921,
          "duration": 0.18292675000000713
        },
        {
          "name": "G1",
          "midi": 31,
          "time": 190.426746749999,
          "velocity": 0.7480314960629921,
          "duration": 0.18292675000000713
        },
        {
          "name": "G1",
          "midi": 31,
          "time": 190.60967349999902,
          "velocity": 0.7480314960629921,
          "duration": 0.18292675000000713
        },
        {
          "name": "G1",
          "midi": 31,
          "time": 190.79260024999903,
          "velocity": 0.7480314960629921,
          "duration": 0.18292675000000713
        },
        {
          "name": "G1",
          "midi": 31,
          "time": 190.97552699999903,
          "velocity": 0.7480314960629921,
          "duration": 0.18292675000000713
        },
        {
          "name": "G1",
          "midi": 31,
          "time": 191.15845374999904,
          "velocity": 0.7480314960629921,
          "duration": 0.18292675000000713
        },
        {
          "name": "G1",
          "midi": 31,
          "time": 191.34138049999905,
          "velocity": 0.7480314960629921,
          "duration": 0.18292675000000713
        },
        {
          "name": "G1",
          "midi": 31,
          "time": 191.52430724999905,
          "velocity": 0.7480314960629921,
          "duration": 0.18292675000000713
        },
        {
          "name": "D1",
          "midi": 26,
          "time": 191.70723399999906,
          "velocity": 0.7480314960629921,
          "duration": 0.18292675000000713
        },
        {
          "name": "D1",
          "midi": 26,
          "time": 191.89016074999907,
          "velocity": 0.7480314960629921,
          "duration": 0.18292675000000713
        },
        {
          "name": "D1",
          "midi": 26,
          "time": 192.07308749999908,
          "velocity": 0.7480314960629921,
          "duration": 0.18292675000000713
        },
        {
          "name": "D1",
          "midi": 26,
          "time": 192.25601424999908,
          "velocity": 0.7480314960629921,
          "duration": 0.548780249999993
        },
        {
          "name": "D1",
          "midi": 26,
          "time": 192.80479449999908,
          "velocity": 0.7480314960629921,
          "duration": 0.36585349999998584
        },
        {
          "name": "D1",
          "midi": 26,
          "time": 193.17064799999906,
          "velocity": 0.7480314960629921,
          "duration": 0.18292675000000713
        },
        {
          "name": "D1",
          "midi": 26,
          "time": 193.35357474999907,
          "velocity": 0.7480314960629921,
          "duration": 0.18292675000000713
        },
        {
          "name": "D1",
          "midi": 26,
          "time": 193.53650149999908,
          "velocity": 0.7480314960629921,
          "duration": 0.18292675000000713
        },
        {
          "name": "D1",
          "midi": 26,
          "time": 193.71942824999908,
          "velocity": 0.7480314960629921,
          "duration": 0.36585349999998584
        },
        {
          "name": "D1",
          "midi": 26,
          "time": 194.08528174999907,
          "velocity": 0.7480314960629921,
          "duration": 0.18292675000000713
        },
        {
          "name": "D1",
          "midi": 26,
          "time": 194.26820849999908,
          "velocity": 0.7480314960629921,
          "duration": 0.36585349999998584
        },
        {
          "name": "G1",
          "midi": 31,
          "time": 194.63406199999906,
          "velocity": 0.7480314960629921,
          "duration": 0.18292675000000713
        },
        {
          "name": "G1",
          "midi": 31,
          "time": 194.81698874999907,
          "velocity": 0.7480314960629921,
          "duration": 0.18292675000000713
        },
        {
          "name": "G1",
          "midi": 31,
          "time": 194.99991549999908,
          "velocity": 0.7480314960629921,
          "duration": 0.18292675000000713
        },
        {
          "name": "G1",
          "midi": 31,
          "time": 195.18284224999908,
          "velocity": 0.7480314960629921,
          "duration": 0.548780249999993
        },
        {
          "name": "G1",
          "midi": 31,
          "time": 195.73162249999908,
          "velocity": 0.7480314960629921,
          "duration": 0.36585349999998584
        },
        {
          "name": "G1",
          "midi": 31,
          "time": 196.09747599999906,
          "velocity": 0.7480314960629921,
          "duration": 0.18292675000000713
        },
        {
          "name": "G1",
          "midi": 31,
          "time": 196.28040274999907,
          "velocity": 0.7480314960629921,
          "duration": 0.18292675000000713
        },
        {
          "name": "G1",
          "midi": 31,
          "time": 196.46332949999908,
          "velocity": 0.7480314960629921,
          "duration": 0.18292675000000713
        },
        {
          "name": "G1",
          "midi": 31,
          "time": 196.64625624999908,
          "velocity": 0.7480314960629921,
          "duration": 0.36585349999998584
        },
        {
          "name": "G1",
          "midi": 31,
          "time": 197.01210974999907,
          "velocity": 0.7480314960629921,
          "duration": 0.18292675000000713
        },
        {
          "name": "G1",
          "midi": 31,
          "time": 197.19503649999908,
          "velocity": 0.7480314960629921,
          "duration": 0.18292675000000713
        },
        {
          "name": "G1",
          "midi": 31,
          "time": 197.37796324999908,
          "velocity": 0.7480314960629921,
          "duration": 0.18292675000000713
        },
        {
          "name": "B1",
          "midi": 35,
          "time": 197.5608899999991,
          "velocity": 0.7480314960629921,
          "duration": 0.18292675000000713
        },
        {
          "name": "B1",
          "midi": 35,
          "time": 197.7438167499991,
          "velocity": 0.7480314960629921,
          "duration": 0.18292675000000713
        },
        {
          "name": "B1",
          "midi": 35,
          "time": 197.9267434999991,
          "velocity": 0.7480314960629921,
          "duration": 0.18292675000000713
        },
        {
          "name": "B1",
          "midi": 35,
          "time": 198.1096702499991,
          "velocity": 0.7480314960629921,
          "duration": 0.548780249999993
        },
        {
          "name": "B1",
          "midi": 35,
          "time": 198.6584504999991,
          "velocity": 0.7480314960629921,
          "duration": 0.36585349999998584
        },
        {
          "name": "B1",
          "midi": 35,
          "time": 199.0243039999991,
          "velocity": 0.7480314960629921,
          "duration": 0.18292675000000713
        },
        {
          "name": "B1",
          "midi": 35,
          "time": 199.2072307499991,
          "velocity": 0.7480314960629921,
          "duration": 0.18292675000000713
        },
        {
          "name": "B1",
          "midi": 35,
          "time": 199.3901574999991,
          "velocity": 0.7480314960629921,
          "duration": 0.18292675000000713
        },
        {
          "name": "B1",
          "midi": 35,
          "time": 199.5730842499991,
          "velocity": 0.7480314960629921,
          "duration": 0.36585349999998584
        },
        {
          "name": "B1",
          "midi": 35,
          "time": 199.9389377499991,
          "velocity": 0.7480314960629921,
          "duration": 0.18292675000000713
        },
        {
          "name": "B1",
          "midi": 35,
          "time": 200.1218644999991,
          "velocity": 0.7480314960629921,
          "duration": 0.18292675000000713
        },
        {
          "name": "B1",
          "midi": 35,
          "time": 200.3047912499991,
          "velocity": 0.7480314960629921,
          "duration": 0.18292675000000713
        },
        {
          "name": "G1",
          "midi": 31,
          "time": 200.48771799999912,
          "velocity": 0.7480314960629921,
          "duration": 0.18292675000000713
        },
        {
          "name": "E1",
          "midi": 28,
          "time": 203.41454599999912,
          "velocity": 0.7480314960629921,
          "duration": 0.18292675000000713
        },
        {
          "name": "E1",
          "midi": 28,
          "time": 203.59747274999913,
          "velocity": 0.7480314960629921,
          "duration": 0.36585349999998584
        },
        {
          "name": "E1",
          "midi": 28,
          "time": 203.9633262499991,
          "velocity": 0.7480314960629921,
          "duration": 0.18292675000000713
        },
        {
          "name": "E1",
          "midi": 28,
          "time": 204.32917974999913,
          "velocity": 0.7480314960629921,
          "duration": 0.18292675000000713
        },
        {
          "name": "D1",
          "midi": 26,
          "time": 204.51210649999913,
          "velocity": 0.7480314960629921,
          "duration": 9.146337500000328
        }
      ],
      "controlChanges": {
        "6": [
          {
            "number": 6,
            "time": 0,
            "value": 0.09448818897637795
          },
          {
            "number": 6,
            "time": 0,
            "value": 0.09448818897637795
          }
        ],
        "7": [
          {
            "number": 7,
            "time": 0,
            "value": 1
          },
          {
            "number": 7,
            "time": 0,
            "value": 1
          },
          {
            "number": 7,
            "time": 204.87795999999912,
            "value": 0.984251968503937
          },
          {
            "number": 7,
            "time": 204.87795999999912,
            "value": 0.984251968503937
          },
          {
            "number": 7,
            "time": 205.06088674999913,
            "value": 0.968503937007874
          },
          {
            "number": 7,
            "time": 205.06088674999913,
            "value": 0.968503937007874
          },
          {
            "number": 7,
            "time": 205.24381349999913,
            "value": 0.9448818897637795
          },
          {
            "number": 7,
            "time": 205.24381349999913,
            "value": 0.9448818897637795
          },
          {
            "number": 7,
            "time": 205.42674024999914,
            "value": 0.9291338582677166
          },
          {
            "number": 7,
            "time": 205.42674024999914,
            "value": 0.9291338582677166
          },
          {
            "number": 7,
            "time": 205.60966699999915,
            "value": 0.905511811023622
          },
          {
            "number": 7,
            "time": 205.60966699999915,
            "value": 0.905511811023622
          },
          {
            "number": 7,
            "time": 205.79259374999916,
            "value": 0.8818897637795275
          },
          {
            "number": 7,
            "time": 205.79259374999916,
            "value": 0.8818897637795275
          },
          {
            "number": 7,
            "time": 205.97552049999916,
            "value": 0.8661417322834646
          },
          {
            "number": 7,
            "time": 205.97552049999916,
            "value": 0.8661417322834646
          },
          {
            "number": 7,
            "time": 206.15844724999917,
            "value": 0.84251968503937
          },
          {
            "number": 7,
            "time": 206.15844724999917,
            "value": 0.84251968503937
          },
          {
            "number": 7,
            "time": 206.34137399999918,
            "value": 0.8188976377952756
          },
          {
            "number": 7,
            "time": 206.34137399999918,
            "value": 0.8188976377952756
          },
          {
            "number": 7,
            "time": 206.52430074999918,
            "value": 0.8031496062992126
          },
          {
            "number": 7,
            "time": 206.52430074999918,
            "value": 0.8031496062992126
          },
          {
            "number": 7,
            "time": 206.7072274999992,
            "value": 0.7795275590551181
          },
          {
            "number": 7,
            "time": 206.7072274999992,
            "value": 0.7795275590551181
          },
          {
            "number": 7,
            "time": 206.8901542499992,
            "value": 0.7637795275590551
          },
          {
            "number": 7,
            "time": 206.8901542499992,
            "value": 0.7637795275590551
          },
          {
            "number": 7,
            "time": 207.0730809999992,
            "value": 0.7401574803149606
          },
          {
            "number": 7,
            "time": 207.0730809999992,
            "value": 0.7401574803149606
          },
          {
            "number": 7,
            "time": 207.2560077499992,
            "value": 0.7165354330708661
          },
          {
            "number": 7,
            "time": 207.2560077499992,
            "value": 0.7165354330708661
          },
          {
            "number": 7,
            "time": 207.43893449999922,
            "value": 0.7007874015748031
          },
          {
            "number": 7,
            "time": 207.43893449999922,
            "value": 0.7007874015748031
          },
          {
            "number": 7,
            "time": 207.62186124999923,
            "value": 0.6771653543307087
          },
          {
            "number": 7,
            "time": 207.62186124999923,
            "value": 0.6771653543307087
          },
          {
            "number": 7,
            "time": 207.80478799999923,
            "value": 0.6614173228346457
          },
          {
            "number": 7,
            "time": 207.80478799999923,
            "value": 0.6614173228346457
          },
          {
            "number": 7,
            "time": 207.98771474999924,
            "value": 0.6377952755905512
          },
          {
            "number": 7,
            "time": 207.98771474999924,
            "value": 0.6377952755905512
          },
          {
            "number": 7,
            "time": 208.17064149999925,
            "value": 0.6141732283464567
          },
          {
            "number": 7,
            "time": 208.17064149999925,
            "value": 0.6141732283464567
          },
          {
            "number": 7,
            "time": 208.35356824999926,
            "value": 0.5984251968503937
          },
          {
            "number": 7,
            "time": 208.35356824999926,
            "value": 0.5984251968503937
          },
          {
            "number": 7,
            "time": 208.53649499999926,
            "value": 0.5748031496062992
          },
          {
            "number": 7,
            "time": 208.53649499999926,
            "value": 0.5748031496062992
          },
          {
            "number": 7,
            "time": 208.71942174999927,
            "value": 0.5590551181102362
          },
          {
            "number": 7,
            "time": 208.71942174999927,
            "value": 0.5590551181102362
          },
          {
            "number": 7,
            "time": 208.90234849999928,
            "value": 0.5354330708661418
          },
          {
            "number": 7,
            "time": 208.90234849999928,
            "value": 0.5354330708661418
          },
          {
            "number": 7,
            "time": 209.08527524999928,
            "value": 0.5118110236220472
          },
          {
            "number": 7,
            "time": 209.08527524999928,
            "value": 0.5118110236220472
          },
          {
            "number": 7,
            "time": 209.2682019999993,
            "value": 0.49606299212598426
          },
          {
            "number": 7,
            "time": 209.2682019999993,
            "value": 0.49606299212598426
          },
          {
            "number": 7,
            "time": 209.4511287499993,
            "value": 0.47244094488188976
          },
          {
            "number": 7,
            "time": 209.4511287499993,
            "value": 0.47244094488188976
          },
          {
            "number": 7,
            "time": 209.6340554999993,
            "value": 0.44881889763779526
          },
          {
            "number": 7,
            "time": 209.6340554999993,
            "value": 0.44881889763779526
          },
          {
            "number": 7,
            "time": 209.8169822499993,
            "value": 0.4330708661417323
          },
          {
            "number": 7,
            "time": 209.8169822499993,
            "value": 0.4330708661417323
          },
          {
            "number": 7,
            "time": 209.99990899999932,
            "value": 0.4094488188976378
          },
          {
            "number": 7,
            "time": 209.99990899999932,
            "value": 0.4094488188976378
          },
          {
            "number": 7,
            "time": 210.18283574999933,
            "value": 0.3937007874015748
          },
          {
            "number": 7,
            "time": 210.18283574999933,
            "value": 0.3937007874015748
          },
          {
            "number": 7,
            "time": 210.36576249999933,
            "value": 0.3700787401574803
          },
          {
            "number": 7,
            "time": 210.36576249999933,
            "value": 0.3700787401574803
          },
          {
            "number": 7,
            "time": 210.54868924999934,
            "value": 0.3464566929133858
          },
          {
            "number": 7,
            "time": 210.54868924999934,
            "value": 0.3464566929133858
          },
          {
            "number": 7,
            "time": 210.73161599999935,
            "value": 0.33070866141732286
          },
          {
            "number": 7,
            "time": 210.73161599999935,
            "value": 0.33070866141732286
          },
          {
            "number": 7,
            "time": 210.91454274999936,
            "value": 0.30708661417322836
          },
          {
            "number": 7,
            "time": 210.91454274999936,
            "value": 0.30708661417322836
          },
          {
            "number": 7,
            "time": 211.09746949999936,
            "value": 0.29133858267716534
          },
          {
            "number": 7,
            "time": 211.09746949999936,
            "value": 0.29133858267716534
          },
          {
            "number": 7,
            "time": 211.28039624999937,
            "value": 0.2677165354330709
          },
          {
            "number": 7,
            "time": 211.28039624999937,
            "value": 0.2677165354330709
          },
          {
            "number": 7,
            "time": 211.46332299999938,
            "value": 0.2440944881889764
          },
          {
            "number": 7,
            "time": 211.46332299999938,
            "value": 0.2440944881889764
          },
          {
            "number": 7,
            "time": 211.64624974999938,
            "value": 0.2283464566929134
          },
          {
            "number": 7,
            "time": 211.64624974999938,
            "value": 0.2283464566929134
          },
          {
            "number": 7,
            "time": 211.8291764999994,
            "value": 0.2047244094488189
          },
          {
            "number": 7,
            "time": 211.8291764999994,
            "value": 0.2047244094488189
          },
          {
            "number": 7,
            "time": 212.0121032499994,
            "value": 0.1889763779527559
          },
          {
            "number": 7,
            "time": 212.0121032499994,
            "value": 0.1889763779527559
          },
          {
            "number": 7,
            "time": 212.1950299999994,
            "value": 0.16535433070866143
          },
          {
            "number": 7,
            "time": 212.1950299999994,
            "value": 0.16535433070866143
          },
          {
            "number": 7,
            "time": 212.3779567499994,
            "value": 0.14173228346456693
          },
          {
            "number": 7,
            "time": 212.3779567499994,
            "value": 0.14173228346456693
          },
          {
            "number": 7,
            "time": 212.56088349999942,
            "value": 0.12598425196850394
          },
          {
            "number": 7,
            "time": 212.56088349999942,
            "value": 0.12598425196850394
          },
          {
            "number": 7,
            "time": 212.74381024999943,
            "value": 0.10236220472440945
          },
          {
            "number": 7,
            "time": 212.74381024999943,
            "value": 0.10236220472440945
          },
          {
            "number": 7,
            "time": 212.92673699999943,
            "value": 0.07874015748031496
          },
          {
            "number": 7,
            "time": 212.92673699999943,
            "value": 0.07874015748031496
          },
          {
            "number": 7,
            "time": 213.10966374999944,
            "value": 0.06299212598425197
          },
          {
            "number": 7,
            "time": 213.10966374999944,
            "value": 0.06299212598425197
          },
          {
            "number": 7,
            "time": 213.29259049999945,
            "value": 0.03937007874015748
          },
          {
            "number": 7,
            "time": 213.29259049999945,
            "value": 0.03937007874015748
          },
          {
            "number": 7,
            "time": 213.47551724999946,
            "value": 0.023622047244094488
          },
          {
            "number": 7,
            "time": 213.47551724999946,
            "value": 0.023622047244094488
          },
          {
            "number": 7,
            "time": 213.65844399999946,
            "value": 0
          },
          {
            "number": 7,
            "time": 213.65844399999946,
            "value": 0
          }
        ],
        "10": [
          {
            "number": 10,
            "time": 0,
            "value": 0.5039370078740157
          },
          {
            "number": 10,
            "time": 0,
            "value": 0.5039370078740157
          }
        ],
        "91": [
          {
            "number": 91,
            "time": 0,
            "value": 0
          },
          {
            "number": 91,
            "time": 0,
            "value": 0
          }
        ],
        "92": [
          {
            "number": 92,
            "time": 0,
            "value": 0
          },
          {
            "number": 92,
            "time": 0,
            "value": 0
          }
        ],
        "93": [
          {
            "number": 93,
            "time": 0,
            "value": 0
          },
          {
            "number": 93,
            "time": 0,
            "value": 0
          }
        ],
        "95": [
          {
            "number": 95,
            "time": 0,
            "value": 0
          },
          {
            "number": 95,
            "time": 0,
            "value": 0
          }
        ],
        "100": [
          {
            "number": 100,
            "time": 0,
            "value": 0
          },
          {
            "number": 100,
            "time": 0,
            "value": 0
          }
        ],
        "101": [
          {
            "number": 101,
            "time": 0,
            "value": 0
          },
          {
            "number": 101,
            "time": 0,
            "value": 0
          }
        ]
      },
      "id": 3,
      "name": "Track 3",
      "instrumentNumber": 34,
      "instrument": "electric bass (pick)",
      "instrumentFamily": "bass",
      "channelNumber": 5,
      "isPercussion": false
    },
    {
      "startTime": 191.89016075,
      "duration": 200.48771800000034,
      "length": 42,
      "notes": [
        {
          "name": "C#4",
          "midi": 61,
          "time": 191.89016075,
          "velocity": 0.7480314960629921,
          "duration": 0.18292675000000713
        },
        {
          "name": "D4",
          "midi": 62,
          "time": 192.0730875,
          "velocity": 0.7480314960629921,
          "duration": 0.18292675000000713
        },
        {
          "name": "A3",
          "midi": 57,
          "time": 192.25601425000002,
          "velocity": 0.6771653543307087,
          "duration": 0.18292675000000713
        },
        {
          "name": "C#4",
          "midi": 61,
          "time": 192.43894100000003,
          "velocity": 0.7480314960629921,
          "duration": 0.18292675000000713
        },
        {
          "name": "D4",
          "midi": 62,
          "time": 192.62186775000004,
          "velocity": 0.7480314960629921,
          "duration": 0.18292675000000713
        },
        {
          "name": "A3",
          "midi": 57,
          "time": 192.80479450000004,
          "velocity": 0.6771653543307087,
          "duration": 0.18292675000000713
        },
        {
          "name": "D4",
          "midi": 62,
          "time": 192.98772125000005,
          "velocity": 0.7480314960629921,
          "duration": 0.18292675000000713
        },
        {
          "name": "C#4",
          "midi": 61,
          "time": 193.35357475000006,
          "velocity": 0.7480314960629921,
          "duration": 0.18292675000000713
        },
        {
          "name": "D4",
          "midi": 62,
          "time": 193.53650150000007,
          "velocity": 0.7480314960629921,
          "duration": 0.18292675000000713
        },
        {
          "name": "A3",
          "midi": 57,
          "time": 193.71942825000008,
          "velocity": 0.6771653543307087,
          "duration": 0.18292675000000713
        },
        {
          "name": "C#4",
          "midi": 61,
          "time": 193.90235500000009,
          "velocity": 0.7480314960629921,
          "duration": 0.18292675000000713
        },
        {
          "name": "D4",
          "midi": 62,
          "time": 194.0852817500001,
          "velocity": 0.7480314960629921,
          "duration": 0.18292675000000713
        },
        {
          "name": "A3",
          "midi": 57,
          "time": 194.2682085000001,
          "velocity": 0.6771653543307087,
          "duration": 0.18292675000000713
        },
        {
          "name": "D4",
          "midi": 62,
          "time": 194.4511352500001,
          "velocity": 0.7480314960629921,
          "duration": 0.18292675000000713
        },
        {
          "name": "C#4",
          "midi": 61,
          "time": 194.81698875000012,
          "velocity": 0.7480314960629921,
          "duration": 0.18292675000000713
        },
        {
          "name": "D4",
          "midi": 62,
          "time": 194.99991550000013,
          "velocity": 0.7480314960629921,
          "duration": 0.18292675000000713
        },
        {
          "name": "A3",
          "midi": 57,
          "time": 195.18284225000014,
          "velocity": 0.6771653543307087,
          "duration": 0.18292675000000713
        },
        {
          "name": "C#4",
          "midi": 61,
          "time": 195.36576900000014,
          "velocity": 0.7480314960629921,
          "duration": 0.18292675000000713
        },
        {
          "name": "D4",
          "midi": 62,
          "time": 195.54869575000015,
          "velocity": 0.7480314960629921,
          "duration": 0.18292675000000713
        },
        {
          "name": "A3",
          "midi": 57,
          "time": 195.73162250000016,
          "velocity": 0.6771653543307087,
          "duration": 0.18292675000000713
        },
        {
          "name": "D4",
          "midi": 62,
          "time": 195.91454925000016,
          "velocity": 0.7480314960629921,
          "duration": 0.18292675000000713
        },
        {
          "name": "C#4",
          "midi": 61,
          "time": 196.28040275000018,
          "velocity": 0.7480314960629921,
          "duration": 0.18292675000000713
        },
        {
          "name": "D4",
          "midi": 62,
          "time": 196.46332950000019,
          "velocity": 0.7480314960629921,
          "duration": 0.18292675000000713
        },
        {
          "name": "A3",
          "midi": 57,
          "time": 196.6462562500002,
          "velocity": 0.6771653543307087,
          "duration": 0.18292675000000713
        },
        {
          "name": "C#4",
          "midi": 61,
          "time": 196.8291830000002,
          "velocity": 0.7480314960629921,
          "duration": 0.18292675000000713
        },
        {
          "name": "D4",
          "midi": 62,
          "time": 197.0121097500002,
          "velocity": 0.7480314960629921,
          "duration": 0.18292675000000713
        },
        {
          "name": "A3",
          "midi": 57,
          "time": 197.1950365000002,
          "velocity": 0.6771653543307087,
          "duration": 0.18292675000000713
        },
        {
          "name": "D4",
          "midi": 62,
          "time": 197.37796325000022,
          "velocity": 0.7480314960629921,
          "duration": 0.18292675000000713
        },
        {
          "name": "C#4",
          "midi": 61,
          "time": 197.74381675000024,
          "velocity": 0.7480314960629921,
          "duration": 0.18292675000000713
        },
        {
          "name": "D4",
          "midi": 62,
          "time": 197.92674350000024,
          "velocity": 0.7480314960629921,
          "duration": 0.18292675000000713
        },
        {
          "name": "A3",
          "midi": 57,
          "time": 198.10967025000025,
          "velocity": 0.6771653543307087,
          "duration": 0.18292675000000713
        },
        {
          "name": "C#4",
          "midi": 61,
          "time": 198.29259700000026,
          "velocity": 0.7480314960629921,
          "duration": 0.18292675000000713
        },
        {
          "name": "D4",
          "midi": 62,
          "time": 198.47552375000026,
          "velocity": 0.7480314960629921,
          "duration": 0.18292675000000713
        },
        {
          "name": "A3",
          "midi": 57,
          "time": 198.65845050000027,
          "velocity": 0.6771653543307087,
          "duration": 0.18292675000000713
        },
        {
          "name": "D4",
          "midi": 62,
          "time": 198.84137725000028,
          "velocity": 0.7480314960629921,
          "duration": 0.18292675000000713
        },
        {
          "name": "C#4",
          "midi": 61,
          "time": 199.2072307500003,
          "velocity": 0.7480314960629921,
          "duration": 0.18292675000000713
        },
        {
          "name": "D4",
          "midi": 62,
          "time": 199.3901575000003,
          "velocity": 0.7480314960629921,
          "duration": 0.18292675000000713
        },
        {
          "name": "A3",
          "midi": 57,
          "time": 199.5730842500003,
          "velocity": 0.6771653543307087,
          "duration": 0.18292675000000713
        },
        {
          "name": "C#4",
          "midi": 61,
          "time": 199.7560110000003,
          "velocity": 0.7480314960629921,
          "duration": 0.18292675000000713
        },
        {
          "name": "D4",
          "midi": 62,
          "time": 199.93893775000032,
          "velocity": 0.7480314960629921,
          "duration": 0.18292675000000713
        },
        {
          "name": "A3",
          "midi": 57,
          "time": 200.12186450000033,
          "velocity": 0.6771653543307087,
          "duration": 0.18292675000000713
        },
        {
          "name": "D4",
          "midi": 62,
          "time": 200.30479125000033,
          "velocity": 0.7480314960629921,
          "duration": 0.18292675000000713
        }
      ],
      "controlChanges": {
        "6": [
          {
            "number": 6,
            "time": 0,
            "value": 0.09448818897637795
          },
          {
            "number": 6,
            "time": 0,
            "value": 0.09448818897637795
          }
        ],
        "7": [
          {
            "number": 7,
            "time": 0,
            "value": 0.9448818897637795
          },
          {
            "number": 7,
            "time": 0,
            "value": 0.9448818897637795
          },
          {
            "number": 7,
            "time": 204.87796000000034,
            "value": 0.9291338582677166
          },
          {
            "number": 7,
            "time": 204.87796000000034,
            "value": 0.9291338582677166
          },
          {
            "number": 7,
            "time": 205.06088675000035,
            "value": 0.905511811023622
          },
          {
            "number": 7,
            "time": 205.06088675000035,
            "value": 0.905511811023622
          },
          {
            "number": 7,
            "time": 205.24381350000036,
            "value": 0.889763779527559
          },
          {
            "number": 7,
            "time": 205.24381350000036,
            "value": 0.889763779527559
          },
          {
            "number": 7,
            "time": 205.42674025000036,
            "value": 0.8661417322834646
          },
          {
            "number": 7,
            "time": 205.42674025000036,
            "value": 0.8661417322834646
          },
          {
            "number": 7,
            "time": 205.60966700000037,
            "value": 0.8503937007874016
          },
          {
            "number": 7,
            "time": 205.60966700000037,
            "value": 0.8503937007874016
          },
          {
            "number": 7,
            "time": 205.79259375000038,
            "value": 0.8267716535433071
          },
          {
            "number": 7,
            "time": 205.79259375000038,
            "value": 0.8267716535433071
          },
          {
            "number": 7,
            "time": 205.97552050000039,
            "value": 0.8110236220472441
          },
          {
            "number": 7,
            "time": 205.97552050000039,
            "value": 0.8110236220472441
          },
          {
            "number": 7,
            "time": 206.1584472500004,
            "value": 0.7874015748031497
          },
          {
            "number": 7,
            "time": 206.1584472500004,
            "value": 0.7874015748031497
          },
          {
            "number": 7,
            "time": 206.3413740000004,
            "value": 0.7716535433070866
          },
          {
            "number": 7,
            "time": 206.3413740000004,
            "value": 0.7716535433070866
          },
          {
            "number": 7,
            "time": 206.5243007500004,
            "value": 0.7559055118110236
          },
          {
            "number": 7,
            "time": 206.5243007500004,
            "value": 0.7559055118110236
          },
          {
            "number": 7,
            "time": 206.7072275000004,
            "value": 0.7322834645669292
          },
          {
            "number": 7,
            "time": 206.7072275000004,
            "value": 0.7322834645669292
          },
          {
            "number": 7,
            "time": 206.89015425000042,
            "value": 0.7165354330708661
          },
          {
            "number": 7,
            "time": 206.89015425000042,
            "value": 0.7165354330708661
          },
          {
            "number": 7,
            "time": 207.07308100000043,
            "value": 0.6929133858267716
          },
          {
            "number": 7,
            "time": 207.07308100000043,
            "value": 0.6929133858267716
          },
          {
            "number": 7,
            "time": 207.25600775000044,
            "value": 0.6771653543307087
          },
          {
            "number": 7,
            "time": 207.25600775000044,
            "value": 0.6771653543307087
          },
          {
            "number": 7,
            "time": 207.43893450000044,
            "value": 0.6535433070866141
          },
          {
            "number": 7,
            "time": 207.43893450000044,
            "value": 0.6535433070866141
          },
          {
            "number": 7,
            "time": 207.62186125000045,
            "value": 0.6377952755905512
          },
          {
            "number": 7,
            "time": 207.62186125000045,
            "value": 0.6377952755905512
          },
          {
            "number": 7,
            "time": 207.80478800000046,
            "value": 0.6141732283464567
          },
          {
            "number": 7,
            "time": 207.80478800000046,
            "value": 0.6141732283464567
          },
          {
            "number": 7,
            "time": 207.98771475000046,
            "value": 0.5984251968503937
          },
          {
            "number": 7,
            "time": 207.98771475000046,
            "value": 0.5984251968503937
          },
          {
            "number": 7,
            "time": 208.17064150000047,
            "value": 0.5748031496062992
          },
          {
            "number": 7,
            "time": 208.17064150000047,
            "value": 0.5748031496062992
          },
          {
            "number": 7,
            "time": 208.35356825000048,
            "value": 0.5590551181102362
          },
          {
            "number": 7,
            "time": 208.35356825000048,
            "value": 0.5590551181102362
          },
          {
            "number": 7,
            "time": 208.53649500000049,
            "value": 0.5433070866141733
          },
          {
            "number": 7,
            "time": 208.53649500000049,
            "value": 0.5433070866141733
          },
          {
            "number": 7,
            "time": 208.7194217500005,
            "value": 0.5196850393700787
          },
          {
            "number": 7,
            "time": 208.7194217500005,
            "value": 0.5196850393700787
          },
          {
            "number": 7,
            "time": 208.9023485000005,
            "value": 0.5039370078740157
          },
          {
            "number": 7,
            "time": 208.9023485000005,
            "value": 0.5039370078740157
          },
          {
            "number": 7,
            "time": 209.0852752500005,
            "value": 0.48031496062992124
          },
          {
            "number": 7,
            "time": 209.0852752500005,
            "value": 0.48031496062992124
          },
          {
            "number": 7,
            "time": 209.2682020000005,
            "value": 0.4645669291338583
          },
          {
            "number": 7,
            "time": 209.2682020000005,
            "value": 0.4645669291338583
          },
          {
            "number": 7,
            "time": 209.45112875000052,
            "value": 0.4409448818897638
          },
          {
            "number": 7,
            "time": 209.45112875000052,
            "value": 0.4409448818897638
          },
          {
            "number": 7,
            "time": 209.63405550000053,
            "value": 0.4251968503937008
          },
          {
            "number": 7,
            "time": 209.63405550000053,
            "value": 0.4251968503937008
          },
          {
            "number": 7,
            "time": 209.81698225000054,
            "value": 0.4015748031496063
          },
          {
            "number": 7,
            "time": 209.81698225000054,
            "value": 0.4015748031496063
          },
          {
            "number": 7,
            "time": 209.99990900000054,
            "value": 0.3858267716535433
          },
          {
            "number": 7,
            "time": 209.99990900000054,
            "value": 0.3858267716535433
          },
          {
            "number": 7,
            "time": 210.18283575000055,
            "value": 0.3700787401574803
          },
          {
            "number": 7,
            "time": 210.18283575000055,
            "value": 0.3700787401574803
          },
          {
            "number": 7,
            "time": 210.36576250000056,
            "value": 0.3464566929133858
          },
          {
            "number": 7,
            "time": 210.36576250000056,
            "value": 0.3464566929133858
          },
          {
            "number": 7,
            "time": 210.54868925000056,
            "value": 0.33070866141732286
          },
          {
            "number": 7,
            "time": 210.54868925000056,
            "value": 0.33070866141732286
          },
          {
            "number": 7,
            "time": 210.73161600000057,
            "value": 0.30708661417322836
          },
          {
            "number": 7,
            "time": 210.73161600000057,
            "value": 0.30708661417322836
          },
          {
            "number": 7,
            "time": 210.91454275000058,
            "value": 0.29133858267716534
          },
          {
            "number": 7,
            "time": 210.91454275000058,
            "value": 0.29133858267716534
          },
          {
            "number": 7,
            "time": 211.09746950000059,
            "value": 0.2677165354330709
          },
          {
            "number": 7,
            "time": 211.09746950000059,
            "value": 0.2677165354330709
          },
          {
            "number": 7,
            "time": 211.2803962500006,
            "value": 0.25196850393700787
          },
          {
            "number": 7,
            "time": 211.2803962500006,
            "value": 0.25196850393700787
          },
          {
            "number": 7,
            "time": 211.4633230000006,
            "value": 0.2283464566929134
          },
          {
            "number": 7,
            "time": 211.4633230000006,
            "value": 0.2283464566929134
          },
          {
            "number": 7,
            "time": 211.6462497500006,
            "value": 0.2125984251968504
          },
          {
            "number": 7,
            "time": 211.6462497500006,
            "value": 0.2125984251968504
          },
          {
            "number": 7,
            "time": 211.8291765000006,
            "value": 0.1889763779527559
          },
          {
            "number": 7,
            "time": 211.8291765000006,
            "value": 0.1889763779527559
          },
          {
            "number": 7,
            "time": 212.01210325000062,
            "value": 0.1732283464566929
          },
          {
            "number": 7,
            "time": 212.01210325000062,
            "value": 0.1732283464566929
          },
          {
            "number": 7,
            "time": 212.19503000000063,
            "value": 0.15748031496062992
          },
          {
            "number": 7,
            "time": 212.19503000000063,
            "value": 0.15748031496062992
          },
          {
            "number": 7,
            "time": 212.37795675000064,
            "value": 0.13385826771653545
          },
          {
            "number": 7,
            "time": 212.37795675000064,
            "value": 0.13385826771653545
          },
          {
            "number": 7,
            "time": 212.56088350000064,
            "value": 0.11811023622047244
          },
          {
            "number": 7,
            "time": 212.56088350000064,
            "value": 0.11811023622047244
          },
          {
            "number": 7,
            "time": 212.74381025000065,
            "value": 0.09448818897637795
          },
          {
            "number": 7,
            "time": 212.74381025000065,
            "value": 0.09448818897637795
          },
          {
            "number": 7,
            "time": 212.92673700000066,
            "value": 0.07874015748031496
          },
          {
            "number": 7,
            "time": 212.92673700000066,
            "value": 0.07874015748031496
          },
          {
            "number": 7,
            "time": 213.10966375000066,
            "value": 0.05511811023622047
          },
          {
            "number": 7,
            "time": 213.10966375000066,
            "value": 0.05511811023622047
          },
          {
            "number": 7,
            "time": 213.29259050000067,
            "value": 0.03937007874015748
          },
          {
            "number": 7,
            "time": 213.29259050000067,
            "value": 0.03937007874015748
          },
          {
            "number": 7,
            "time": 213.47551725000068,
            "value": 0.015748031496062992
          },
          {
            "number": 7,
            "time": 213.47551725000068,
            "value": 0.015748031496062992
          },
          {
            "number": 7,
            "time": 213.65844400000069,
            "value": 0
          },
          {
            "number": 7,
            "time": 213.65844400000069,
            "value": 0
          }
        ],
        "10": [
          {
            "number": 10,
            "time": 0,
            "value": 0.5039370078740157
          },
          {
            "number": 10,
            "time": 0,
            "value": 0.5039370078740157
          }
        ],
        "91": [
          {
            "number": 91,
            "time": 0,
            "value": 0
          },
          {
            "number": 91,
            "time": 0,
            "value": 0
          }
        ],
        "92": [
          {
            "number": 92,
            "time": 0,
            "value": 0
          },
          {
            "number": 92,
            "time": 0,
            "value": 0
          }
        ],
        "93": [
          {
            "number": 93,
            "time": 0,
            "value": 0
          },
          {
            "number": 93,
            "time": 0,
            "value": 0
          }
        ],
        "95": [
          {
            "number": 95,
            "time": 0,
            "value": 0
          },
          {
            "number": 95,
            "time": 0,
            "value": 0
          }
        ],
        "100": [
          {
            "number": 100,
            "time": 0,
            "value": 0
          },
          {
            "number": 100,
            "time": 0,
            "value": 0
          }
        ],
        "101": [
          {
            "number": 101,
            "time": 0,
            "value": 0
          },
          {
            "number": 101,
            "time": 0,
            "value": 0
          }
        ]
      },
      "id": 4,
      "name": "Track 6",
      "instrumentNumber": 30,
      "instrumentFamily": "drums",
      "channelNumber": 10,
      "isPercussion": true
    },
    {
      "startTime": 95.853617,
      "duration": 108.292636,
      "length": 23,
      "notes": [
        {
          "name": "D4",
          "midi": 62,
          "time": 95.853617,
          "velocity": 1,
          "duration": 0.36585350000000005
        },
        {
          "name": "E4",
          "midi": 64,
          "time": 96.2194705,
          "velocity": 1,
          "duration": 1.0975605000000002
        },
        {
          "name": "F#4",
          "midi": 66,
          "time": 96.585324,
          "velocity": 1,
          "duration": 1.8292675000000003
        },
        {
          "name": "E4",
          "midi": 64,
          "time": 97.317031,
          "velocity": 1,
          "duration": 0.36585350000000005
        },
        {
          "name": "D4",
          "midi": 62,
          "time": 97.6828845,
          "velocity": 1,
          "duration": 0.36585350000000005
        },
        {
          "name": "E4",
          "midi": 64,
          "time": 98.048738,
          "velocity": 1,
          "duration": 0.7317070000000001
        },
        {
          "name": "F#4",
          "midi": 66,
          "time": 98.4145915,
          "velocity": 1,
          "duration": 2.5609745000000004
        },
        {
          "name": "E4",
          "midi": 64,
          "time": 98.780445,
          "velocity": 1,
          "duration": 0.36585350000000005
        },
        {
          "name": "D4",
          "midi": 62,
          "time": 99.1462985,
          "velocity": 1,
          "duration": 3.2926815000000005
        },
        {
          "name": "A4",
          "midi": 69,
          "time": 100.975566,
          "velocity": 1,
          "duration": 0.7317070000000001
        },
        {
          "name": "A4",
          "midi": 69,
          "time": 101.707273,
          "velocity": 0.6220472440944882,
          "duration": 0.7317070000000001
        },
        {
          "name": "D4",
          "midi": 62,
          "time": 102.43898,
          "velocity": 1,
          "duration": 1.4634140000000002
        },
        {
          "name": "D3",
          "midi": 50,
          "time": 102.43898,
          "velocity": 1,
          "duration": 1.4634140000000002
        },
        {
          "name": "G4",
          "midi": 67,
          "time": 103.902394,
          "velocity": 1,
          "duration": 0.7317070000000001
        },
        {
          "name": "D3",
          "midi": 50,
          "time": 103.902394,
          "velocity": 1,
          "duration": 2.9268280000000004
        },
        {
          "name": "G4",
          "midi": 67,
          "time": 104.634101,
          "velocity": 0.6220472440944882,
          "duration": 0.7317070000000001
        },
        {
          "name": "F#4",
          "midi": 66,
          "time": 105.365808,
          "velocity": 1,
          "duration": 1.0975605000000002
        },
        {
          "name": "E4",
          "midi": 64,
          "time": 105.7316615,
          "velocity": 1,
          "duration": 0.36585350000000005
        },
        {
          "name": "D4",
          "midi": 62,
          "time": 106.097515,
          "velocity": 1,
          "duration": 0.7317070000000001
        },
        {
          "name": "F#4",
          "midi": 66,
          "time": 106.4633685,
          "velocity": 1,
          "duration": 1.8292675000000003
        },
        {
          "name": "E4",
          "midi": 64,
          "time": 106.829222,
          "velocity": 1,
          "duration": 0.36585350000000005
        },
        {
          "name": "D4",
          "midi": 62,
          "time": 107.1950755,
          "velocity": 1,
          "duration": 0.36585350000000005
        },
        {
          "name": "D4",
          "midi": 62,
          "time": 107.560929,
          "velocity": 1,
          "duration": 0.7317070000000001
        }
      ],
      "controlChanges": {
        "6": [
          {
            "number": 6,
            "time": 0,
            "value": 0.09448818897637795
          },
          {
            "number": 6,
            "time": 0,
            "value": 0.09448818897637795
          }
        ],
        "7": [
          {
            "number": 7,
            "time": 0,
            "value": 1
          },
          {
            "number": 7,
            "time": 0,
            "value": 1
          },
          {
            "number": 7,
            "time": 204.87796,
            "value": 0.984251968503937
          },
          {
            "number": 7,
            "time": 204.87796,
            "value": 0.984251968503937
          },
          {
            "number": 7,
            "time": 205.06088675,
            "value": 0.968503937007874
          },
          {
            "number": 7,
            "time": 205.06088675,
            "value": 0.968503937007874
          },
          {
            "number": 7,
            "time": 205.24381350000002,
            "value": 0.9448818897637795
          },
          {
            "number": 7,
            "time": 205.24381350000002,
            "value": 0.9448818897637795
          },
          {
            "number": 7,
            "time": 205.42674025000002,
            "value": 0.9291338582677166
          },
          {
            "number": 7,
            "time": 205.42674025000002,
            "value": 0.9291338582677166
          },
          {
            "number": 7,
            "time": 205.60966700000003,
            "value": 0.905511811023622
          },
          {
            "number": 7,
            "time": 205.60966700000003,
            "value": 0.905511811023622
          },
          {
            "number": 7,
            "time": 205.79259375000004,
            "value": 0.8818897637795275
          },
          {
            "number": 7,
            "time": 205.79259375000004,
            "value": 0.8818897637795275
          },
          {
            "number": 7,
            "time": 205.97552050000004,
            "value": 0.8661417322834646
          },
          {
            "number": 7,
            "time": 205.97552050000004,
            "value": 0.8661417322834646
          },
          {
            "number": 7,
            "time": 206.15844725000005,
            "value": 0.84251968503937
          },
          {
            "number": 7,
            "time": 206.15844725000005,
            "value": 0.84251968503937
          },
          {
            "number": 7,
            "time": 206.34137400000006,
            "value": 0.8188976377952756
          },
          {
            "number": 7,
            "time": 206.34137400000006,
            "value": 0.8188976377952756
          },
          {
            "number": 7,
            "time": 206.52430075000007,
            "value": 0.8031496062992126
          },
          {
            "number": 7,
            "time": 206.52430075000007,
            "value": 0.8031496062992126
          },
          {
            "number": 7,
            "time": 206.70722750000007,
            "value": 0.7795275590551181
          },
          {
            "number": 7,
            "time": 206.70722750000007,
            "value": 0.7795275590551181
          },
          {
            "number": 7,
            "time": 206.89015425000008,
            "value": 0.7637795275590551
          },
          {
            "number": 7,
            "time": 206.89015425000008,
            "value": 0.7637795275590551
          },
          {
            "number": 7,
            "time": 207.0730810000001,
            "value": 0.7401574803149606
          },
          {
            "number": 7,
            "time": 207.0730810000001,
            "value": 0.7401574803149606
          },
          {
            "number": 7,
            "time": 207.2560077500001,
            "value": 0.7165354330708661
          },
          {
            "number": 7,
            "time": 207.2560077500001,
            "value": 0.7165354330708661
          },
          {
            "number": 7,
            "time": 207.4389345000001,
            "value": 0.7007874015748031
          },
          {
            "number": 7,
            "time": 207.4389345000001,
            "value": 0.7007874015748031
          },
          {
            "number": 7,
            "time": 207.6218612500001,
            "value": 0.6771653543307087
          },
          {
            "number": 7,
            "time": 207.6218612500001,
            "value": 0.6771653543307087
          },
          {
            "number": 7,
            "time": 207.80478800000012,
            "value": 0.6614173228346457
          },
          {
            "number": 7,
            "time": 207.80478800000012,
            "value": 0.6614173228346457
          },
          {
            "number": 7,
            "time": 207.98771475000012,
            "value": 0.6377952755905512
          },
          {
            "number": 7,
            "time": 207.98771475000012,
            "value": 0.6377952755905512
          },
          {
            "number": 7,
            "time": 208.17064150000013,
            "value": 0.6141732283464567
          },
          {
            "number": 7,
            "time": 208.17064150000013,
            "value": 0.6141732283464567
          },
          {
            "number": 7,
            "time": 208.35356825000014,
            "value": 0.5984251968503937
          },
          {
            "number": 7,
            "time": 208.35356825000014,
            "value": 0.5984251968503937
          },
          {
            "number": 7,
            "time": 208.53649500000014,
            "value": 0.5748031496062992
          },
          {
            "number": 7,
            "time": 208.53649500000014,
            "value": 0.5748031496062992
          },
          {
            "number": 7,
            "time": 208.71942175000015,
            "value": 0.5590551181102362
          },
          {
            "number": 7,
            "time": 208.71942175000015,
            "value": 0.5590551181102362
          },
          {
            "number": 7,
            "time": 208.90234850000016,
            "value": 0.5354330708661418
          },
          {
            "number": 7,
            "time": 208.90234850000016,
            "value": 0.5354330708661418
          },
          {
            "number": 7,
            "time": 209.08527525000017,
            "value": 0.5118110236220472
          },
          {
            "number": 7,
            "time": 209.08527525000017,
            "value": 0.5118110236220472
          },
          {
            "number": 7,
            "time": 209.26820200000017,
            "value": 0.49606299212598426
          },
          {
            "number": 7,
            "time": 209.26820200000017,
            "value": 0.49606299212598426
          },
          {
            "number": 7,
            "time": 209.45112875000018,
            "value": 0.47244094488188976
          },
          {
            "number": 7,
            "time": 209.45112875000018,
            "value": 0.47244094488188976
          },
          {
            "number": 7,
            "time": 209.6340555000002,
            "value": 0.44881889763779526
          },
          {
            "number": 7,
            "time": 209.6340555000002,
            "value": 0.44881889763779526
          },
          {
            "number": 7,
            "time": 209.8169822500002,
            "value": 0.4330708661417323
          },
          {
            "number": 7,
            "time": 209.8169822500002,
            "value": 0.4330708661417323
          },
          {
            "number": 7,
            "time": 209.9999090000002,
            "value": 0.4094488188976378
          },
          {
            "number": 7,
            "time": 209.9999090000002,
            "value": 0.4094488188976378
          },
          {
            "number": 7,
            "time": 210.1828357500002,
            "value": 0.3937007874015748
          },
          {
            "number": 7,
            "time": 210.1828357500002,
            "value": 0.3937007874015748
          },
          {
            "number": 7,
            "time": 210.36576250000022,
            "value": 0.3700787401574803
          },
          {
            "number": 7,
            "time": 210.36576250000022,
            "value": 0.3700787401574803
          },
          {
            "number": 7,
            "time": 210.54868925000022,
            "value": 0.3464566929133858
          },
          {
            "number": 7,
            "time": 210.54868925000022,
            "value": 0.3464566929133858
          },
          {
            "number": 7,
            "time": 210.73161600000023,
            "value": 0.33070866141732286
          },
          {
            "number": 7,
            "time": 210.73161600000023,
            "value": 0.33070866141732286
          },
          {
            "number": 7,
            "time": 210.91454275000024,
            "value": 0.30708661417322836
          },
          {
            "number": 7,
            "time": 210.91454275000024,
            "value": 0.30708661417322836
          },
          {
            "number": 7,
            "time": 211.09746950000024,
            "value": 0.29133858267716534
          },
          {
            "number": 7,
            "time": 211.09746950000024,
            "value": 0.29133858267716534
          },
          {
            "number": 7,
            "time": 211.28039625000025,
            "value": 0.2677165354330709
          },
          {
            "number": 7,
            "time": 211.28039625000025,
            "value": 0.2677165354330709
          },
          {
            "number": 7,
            "time": 211.46332300000026,
            "value": 0.2440944881889764
          },
          {
            "number": 7,
            "time": 211.46332300000026,
            "value": 0.2440944881889764
          },
          {
            "number": 7,
            "time": 211.64624975000027,
            "value": 0.2283464566929134
          },
          {
            "number": 7,
            "time": 211.64624975000027,
            "value": 0.2283464566929134
          },
          {
            "number": 7,
            "time": 211.82917650000027,
            "value": 0.2047244094488189
          },
          {
            "number": 7,
            "time": 211.82917650000027,
            "value": 0.2047244094488189
          },
          {
            "number": 7,
            "time": 212.01210325000028,
            "value": 0.1889763779527559
          },
          {
            "number": 7,
            "time": 212.01210325000028,
            "value": 0.1889763779527559
          },
          {
            "number": 7,
            "time": 212.1950300000003,
            "value": 0.16535433070866143
          },
          {
            "number": 7,
            "time": 212.1950300000003,
            "value": 0.16535433070866143
          },
          {
            "number": 7,
            "time": 212.3779567500003,
            "value": 0.14173228346456693
          },
          {
            "number": 7,
            "time": 212.3779567500003,
            "value": 0.14173228346456693
          },
          {
            "number": 7,
            "time": 212.5608835000003,
            "value": 0.12598425196850394
          },
          {
            "number": 7,
            "time": 212.5608835000003,
            "value": 0.12598425196850394
          },
          {
            "number": 7,
            "time": 212.7438102500003,
            "value": 0.10236220472440945
          },
          {
            "number": 7,
            "time": 212.7438102500003,
            "value": 0.10236220472440945
          },
          {
            "number": 7,
            "time": 212.92673700000032,
            "value": 0.07874015748031496
          },
          {
            "number": 7,
            "time": 212.92673700000032,
            "value": 0.07874015748031496
          },
          {
            "number": 7,
            "time": 213.10966375000032,
            "value": 0.06299212598425197
          },
          {
            "number": 7,
            "time": 213.10966375000032,
            "value": 0.06299212598425197
          },
          {
            "number": 7,
            "time": 213.29259050000033,
            "value": 0.03937007874015748
          },
          {
            "number": 7,
            "time": 213.29259050000033,
            "value": 0.03937007874015748
          },
          {
            "number": 7,
            "time": 213.47551725000034,
            "value": 0.023622047244094488
          },
          {
            "number": 7,
            "time": 213.47551725000034,
            "value": 0.023622047244094488
          },
          {
            "number": 7,
            "time": 213.65844400000034,
            "value": 0
          },
          {
            "number": 7,
            "time": 213.65844400000034,
            "value": 0
          }
        ],
        "10": [
          {
            "number": 10,
            "time": 0,
            "value": 0.5039370078740157
          },
          {
            "number": 10,
            "time": 0,
            "value": 0.5039370078740157
          }
        ],
        "91": [
          {
            "number": 91,
            "time": 0,
            "value": 0
          },
          {
            "number": 91,
            "time": 0,
            "value": 0
          }
        ],
        "92": [
          {
            "number": 92,
            "time": 0,
            "value": 0
          },
          {
            "number": 92,
            "time": 0,
            "value": 0
          }
        ],
        "93": [
          {
            "number": 93,
            "time": 0,
            "value": 0
          },
          {
            "number": 93,
            "time": 0,
            "value": 0
          }
        ],
        "95": [
          {
            "number": 95,
            "time": 0,
            "value": 0
          },
          {
            "number": 95,
            "time": 0,
            "value": 0
          }
        ],
        "100": [
          {
            "number": 100,
            "time": 0,
            "value": 0
          },
          {
            "number": 100,
            "time": 0,
            "value": 0
          }
        ],
        "101": [
          {
            "number": 101,
            "time": 0,
            "value": 0
          },
          {
            "number": 101,
            "time": 0,
            "value": 0
          }
        ]
      },
      "id": 5,
      "name": "Track 4",
      "instrumentNumber": 1,
      "instrument": "bright acoustic piano",
      "instrumentFamily": "piano",
      "channelNumber": 7,
      "isPercussion": false
    },
    {
      "startTime": 0,
      "duration": 204.87795999999918,
      "length": 1217,
      "notes": [
        {
          "name": "F#2",
          "midi": 42,
          "time": 0,
          "velocity": 0.7480314960629921,
          "duration": 0.18292675
        },
        {
          "name": "C2",
          "midi": 36,
          "time": 0,
          "velocity": 0.7480314960629921,
          "duration": 0.18292675
        },
        {
          "name": "C2",
          "midi": 36,
          "time": 0.18292675,
          "velocity": 0.7480314960629921,
          "duration": 0.18292675
        },
        {
          "name": "F#2",
          "midi": 42,
          "time": 0.3658535,
          "velocity": 0.7480314960629921,
          "duration": 0.18292674999999997
        },
        {
          "name": "C2",
          "midi": 36,
          "time": 0.54878025,
          "velocity": 0.7480314960629921,
          "duration": 0.18292675000000003
        },
        {
          "name": "F#2",
          "midi": 42,
          "time": 0.731707,
          "velocity": 0.7480314960629921,
          "duration": 0.18292675000000003
        },
        {
          "name": "E2",
          "midi": 40,
          "time": 0.731707,
          "velocity": 0.7480314960629921,
          "duration": 0.18292675000000003
        },
        {
          "name": "E2",
          "midi": 40,
          "time": 0.91463375,
          "velocity": 0.7480314960629921,
          "duration": 0.18292674999999992
        },
        {
          "name": "F#2",
          "midi": 42,
          "time": 1.0975605,
          "velocity": 0.7480314960629921,
          "duration": 0.18292675000000003
        },
        {
          "name": "C2",
          "midi": 36,
          "time": 1.28048725,
          "velocity": 0.7480314960629921,
          "duration": 0.18292675000000003
        },
        {
          "name": "F#2",
          "midi": 42,
          "time": 1.463414,
          "velocity": 0.7480314960629921,
          "duration": 0.18292675000000003
        },
        {
          "name": "C2",
          "midi": 36,
          "time": 1.463414,
          "velocity": 0.7480314960629921,
          "duration": 0.18292675000000003
        },
        {
          "name": "C2",
          "midi": 36,
          "time": 1.64634075,
          "velocity": 0.7480314960629921,
          "duration": 0.18292675000000003
        },
        {
          "name": "F#2",
          "midi": 42,
          "time": 1.8292675,
          "velocity": 0.7480314960629921,
          "duration": 0.1829267499999998
        },
        {
          "name": "C2",
          "midi": 36,
          "time": 2.01219425,
          "velocity": 0.7480314960629921,
          "duration": 0.18292675000000003
        },
        {
          "name": "E2",
          "midi": 40,
          "time": 2.195121,
          "velocity": 0.7480314960629921,
          "duration": 0.18292675000000003
        },
        {
          "name": "C2",
          "midi": 36,
          "time": 2.37804775,
          "velocity": 0.7480314960629921,
          "duration": 0.18292675000000003
        },
        {
          "name": "E2",
          "midi": 40,
          "time": 2.5609745,
          "velocity": 0.7480314960629921,
          "duration": 0.18292675000000003
        },
        {
          "name": "C2",
          "midi": 36,
          "time": 2.74390125,
          "velocity": 0.7480314960629921,
          "duration": 0.18292675000000003
        },
        {
          "name": "A3",
          "midi": 57,
          "time": 2.926828,
          "velocity": 0.7480314960629921,
          "duration": 0.18292675000000003
        },
        {
          "name": "C2",
          "midi": 36,
          "time": 2.926828,
          "velocity": 0.7480314960629921,
          "duration": 0.18292675000000003
        },
        {
          "name": "C2",
          "midi": 36,
          "time": 3.10975475,
          "velocity": 0.7480314960629921,
          "duration": 0.18292675000000003
        },
        {
          "name": "A3",
          "midi": 57,
          "time": 3.2926815,
          "velocity": 0.7480314960629921,
          "duration": 0.18292675000000003
        },
        {
          "name": "C2",
          "midi": 36,
          "time": 3.47560825,
          "velocity": 0.7480314960629921,
          "duration": 0.18292675000000003
        },
        {
          "name": "A3",
          "midi": 57,
          "time": 3.658535,
          "velocity": 0.7480314960629921,
          "duration": 0.18292675000000003
        },
        {
          "name": "E2",
          "midi": 40,
          "time": 3.658535,
          "velocity": 0.7480314960629921,
          "duration": 0.18292675000000003
        },
        {
          "name": "E2",
          "midi": 40,
          "time": 3.84146175,
          "velocity": 0.7480314960629921,
          "duration": 0.18292674999999958
        },
        {
          "name": "A3",
          "midi": 57,
          "time": 4.0243885,
          "velocity": 0.7480314960629921,
          "duration": 0.18292675000000003
        },
        {
          "name": "C2",
          "midi": 36,
          "time": 4.20731525,
          "velocity": 0.7480314960629921,
          "duration": 0.18292675000000003
        },
        {
          "name": "A3",
          "midi": 57,
          "time": 4.390242,
          "velocity": 0.7480314960629921,
          "duration": 0.18292675000000003
        },
        {
          "name": "C2",
          "midi": 36,
          "time": 4.390242,
          "velocity": 0.7480314960629921,
          "duration": 0.18292675000000003
        },
        {
          "name": "C2",
          "midi": 36,
          "time": 4.57316875,
          "velocity": 0.7480314960629921,
          "duration": 0.18292675000000003
        },
        {
          "name": "A3",
          "midi": 57,
          "time": 4.7560955,
          "velocity": 0.7480314960629921,
          "duration": 0.18292675000000003
        },
        {
          "name": "C2",
          "midi": 36,
          "time": 4.93902225,
          "velocity": 0.7480314960629921,
          "duration": 0.18292675000000003
        },
        {
          "name": "A3",
          "midi": 57,
          "time": 5.121949,
          "velocity": 0.7480314960629921,
          "duration": 0.18292675000000003
        },
        {
          "name": "E2",
          "midi": 40,
          "time": 5.121949,
          "velocity": 0.7480314960629921,
          "duration": 0.18292675000000003
        },
        {
          "name": "E2",
          "midi": 40,
          "time": 5.30487575,
          "velocity": 0.7480314960629921,
          "duration": 0.18292675000000003
        },
        {
          "name": "A3",
          "midi": 57,
          "time": 5.4878025,
          "velocity": 0.7480314960629921,
          "duration": 0.18292675000000003
        },
        {
          "name": "C2",
          "midi": 36,
          "time": 5.67072925,
          "velocity": 0.7480314960629921,
          "duration": 0.18292675000000003
        },
        {
          "name": "A3",
          "midi": 57,
          "time": 5.853656,
          "velocity": 0.7480314960629921,
          "duration": 0.18292675000000003
        },
        {
          "name": "C2",
          "midi": 36,
          "time": 5.853656,
          "velocity": 0.7480314960629921,
          "duration": 0.18292675000000003
        },
        {
          "name": "C2",
          "midi": 36,
          "time": 6.03658275,
          "velocity": 0.7480314960629921,
          "duration": 0.18292675000000003
        },
        {
          "name": "A3",
          "midi": 57,
          "time": 6.2195095,
          "velocity": 0.7480314960629921,
          "duration": 0.18292675000000003
        },
        {
          "name": "C2",
          "midi": 36,
          "time": 6.40243625,
          "velocity": 0.7480314960629921,
          "duration": 0.18292675000000003
        },
        {
          "name": "A3",
          "midi": 57,
          "time": 6.585363,
          "velocity": 0.7480314960629921,
          "duration": 0.18292675000000003
        },
        {
          "name": "E2",
          "midi": 40,
          "time": 6.585363,
          "velocity": 0.7480314960629921,
          "duration": 0.18292675000000003
        },
        {
          "name": "E2",
          "midi": 40,
          "time": 6.76828975,
          "velocity": 0.7480314960629921,
          "duration": 0.18292675000000003
        },
        {
          "name": "A3",
          "midi": 57,
          "time": 6.9512165,
          "velocity": 0.7480314960629921,
          "duration": 0.18292675000000003
        },
        {
          "name": "C2",
          "midi": 36,
          "time": 7.13414325,
          "velocity": 0.7480314960629921,
          "duration": 0.18292675000000003
        },
        {
          "name": "A3",
          "midi": 57,
          "time": 7.31707,
          "velocity": 0.7480314960629921,
          "duration": 0.18292675000000003
        },
        {
          "name": "C2",
          "midi": 36,
          "time": 7.31707,
          "velocity": 0.7480314960629921,
          "duration": 0.18292675000000003
        },
        {
          "name": "C2",
          "midi": 36,
          "time": 7.49999675,
          "velocity": 0.7480314960629921,
          "duration": 0.18292675000000003
        },
        {
          "name": "A3",
          "midi": 57,
          "time": 7.6829235,
          "velocity": 0.7480314960629921,
          "duration": 0.18292675000000003
        },
        {
          "name": "C2",
          "midi": 36,
          "time": 7.86585025,
          "velocity": 0.7480314960629921,
          "duration": 0.18292674999999914
        },
        {
          "name": "A3",
          "midi": 57,
          "time": 8.048777,
          "velocity": 0.7480314960629921,
          "duration": 0.18292675000000003
        },
        {
          "name": "E2",
          "midi": 40,
          "time": 8.048777,
          "velocity": 0.7480314960629921,
          "duration": 0.18292675000000003
        },
        {
          "name": "E2",
          "midi": 40,
          "time": 8.23170375,
          "velocity": 0.7480314960629921,
          "duration": 0.18292675000000003
        },
        {
          "name": "A3",
          "midi": 57,
          "time": 8.4146305,
          "velocity": 0.7480314960629921,
          "duration": 0.18292675000000003
        },
        {
          "name": "C2",
          "midi": 36,
          "time": 8.59755725,
          "velocity": 0.7480314960629921,
          "duration": 0.18292675000000003
        },
        {
          "name": "A#2",
          "midi": 46,
          "time": 8.780484,
          "velocity": 1,
          "duration": 0.18292675000000003
        },
        {
          "name": "C2",
          "midi": 36,
          "time": 8.780484,
          "velocity": 0.7480314960629921,
          "duration": 0.18292675000000003
        },
        {
          "name": "C2",
          "midi": 36,
          "time": 8.96341075,
          "velocity": 0.7480314960629921,
          "duration": 0.18292675000000003
        },
        {
          "name": "A3",
          "midi": 57,
          "time": 9.1463375,
          "velocity": 0.7480314960629921,
          "duration": 0.18292675000000003
        },
        {
          "name": "C2",
          "midi": 36,
          "time": 9.32926425,
          "velocity": 0.7480314960629921,
          "duration": 0.18292675000000003
        },
        {
          "name": "A3",
          "midi": 57,
          "time": 9.512191,
          "velocity": 0.7480314960629921,
          "duration": 0.18292675000000003
        },
        {
          "name": "E2",
          "midi": 40,
          "time": 9.512191,
          "velocity": 0.7480314960629921,
          "duration": 0.18292675000000003
        },
        {
          "name": "E2",
          "midi": 40,
          "time": 9.69511775,
          "velocity": 0.7480314960629921,
          "duration": 0.18292675000000003
        },
        {
          "name": "A3",
          "midi": 57,
          "time": 9.8780445,
          "velocity": 0.7480314960629921,
          "duration": 0.18292675000000003
        },
        {
          "name": "C2",
          "midi": 36,
          "time": 10.06097125,
          "velocity": 0.7480314960629921,
          "duration": 0.18292675000000003
        },
        {
          "name": "A3",
          "midi": 57,
          "time": 10.243898,
          "velocity": 0.7480314960629921,
          "duration": 0.18292675000000003
        },
        {
          "name": "C2",
          "midi": 36,
          "time": 10.243898,
          "velocity": 0.7480314960629921,
          "duration": 0.18292675000000003
        },
        {
          "name": "C2",
          "midi": 36,
          "time": 10.42682475,
          "velocity": 0.7480314960629921,
          "duration": 0.18292675000000003
        },
        {
          "name": "A3",
          "midi": 57,
          "time": 10.6097515,
          "velocity": 0.7480314960629921,
          "duration": 0.18292675000000003
        },
        {
          "name": "C2",
          "midi": 36,
          "time": 10.79267825,
          "velocity": 0.7480314960629921,
          "duration": 0.18292675000000003
        },
        {
          "name": "A3",
          "midi": 57,
          "time": 10.975605,
          "velocity": 0.7480314960629921,
          "duration": 0.18292675000000003
        },
        {
          "name": "E2",
          "midi": 40,
          "time": 10.975605,
          "velocity": 0.7480314960629921,
          "duration": 0.18292675000000003
        },
        {
          "name": "E2",
          "midi": 40,
          "time": 11.15853175,
          "velocity": 0.7480314960629921,
          "duration": 0.18292675000000003
        },
        {
          "name": "A3",
          "midi": 57,
          "time": 11.3414585,
          "velocity": 0.7480314960629921,
          "duration": 0.18292675000000003
        },
        {
          "name": "C2",
          "midi": 36,
          "time": 11.52438525,
          "velocity": 0.7480314960629921,
          "duration": 0.18292675000000003
        },
        {
          "name": "A3",
          "midi": 57,
          "time": 11.707312,
          "velocity": 0.7480314960629921,
          "duration": 0.18292675000000003
        },
        {
          "name": "C2",
          "midi": 36,
          "time": 11.707312,
          "velocity": 0.7480314960629921,
          "duration": 0.18292675000000003
        },
        {
          "name": "C2",
          "midi": 36,
          "time": 11.89023875,
          "velocity": 0.7480314960629921,
          "duration": 0.18292675000000003
        },
        {
          "name": "A3",
          "midi": 57,
          "time": 12.0731655,
          "velocity": 0.7480314960629921,
          "duration": 0.18292675000000003
        },
        {
          "name": "C2",
          "midi": 36,
          "time": 12.25609225,
          "velocity": 0.7480314960629921,
          "duration": 0.18292675000000003
        },
        {
          "name": "A3",
          "midi": 57,
          "time": 12.439019,
          "velocity": 0.7480314960629921,
          "duration": 0.18292675000000003
        },
        {
          "name": "E2",
          "midi": 40,
          "time": 12.439019,
          "velocity": 0.7480314960629921,
          "duration": 0.18292675000000003
        },
        {
          "name": "E2",
          "midi": 40,
          "time": 12.62194575,
          "velocity": 0.7480314960629921,
          "duration": 0.18292675000000003
        },
        {
          "name": "A3",
          "midi": 57,
          "time": 12.8048725,
          "velocity": 0.7480314960629921,
          "duration": 0.18292675000000003
        },
        {
          "name": "C2",
          "midi": 36,
          "time": 12.98779925,
          "velocity": 0.7480314960629921,
          "duration": 0.18292675000000003
        },
        {
          "name": "A3",
          "midi": 57,
          "time": 13.170726,
          "velocity": 0.7480314960629921,
          "duration": 0.18292675000000003
        },
        {
          "name": "C2",
          "midi": 36,
          "time": 13.170726,
          "velocity": 0.7480314960629921,
          "duration": 0.18292675000000003
        },
        {
          "name": "C2",
          "midi": 36,
          "time": 13.35365275,
          "velocity": 0.7480314960629921,
          "duration": 0.18292675000000003
        },
        {
          "name": "A3",
          "midi": 57,
          "time": 13.5365795,
          "velocity": 0.7480314960629921,
          "duration": 0.18292675000000003
        },
        {
          "name": "C2",
          "midi": 36,
          "time": 13.71950625,
          "velocity": 0.7480314960629921,
          "duration": 0.18292675000000003
        },
        {
          "name": "E2",
          "midi": 40,
          "time": 13.902433,
          "velocity": 0.7480314960629921,
          "duration": 0.18292675000000003
        },
        {
          "name": "C2",
          "midi": 36,
          "time": 14.08535975,
          "velocity": 0.7480314960629921,
          "duration": 0.18292675000000003
        },
        {
          "name": "E2",
          "midi": 40,
          "time": 14.2682865,
          "velocity": 0.7480314960629921,
          "duration": 0.18292675000000003
        },
        {
          "name": "C2",
          "midi": 36,
          "time": 14.45121325,
          "velocity": 0.7480314960629921,
          "duration": 0.18292675000000003
        },
        {
          "name": "C#3",
          "midi": 49,
          "time": 14.63414,
          "velocity": 0.7480314960629921,
          "duration": 0.18292675000000003
        },
        {
          "name": "C2",
          "midi": 36,
          "time": 14.63414,
          "velocity": 0.7480314960629921,
          "duration": 0.18292675000000003
        },
        {
          "name": "C2",
          "midi": 36,
          "time": 14.81706675,
          "velocity": 0.7480314960629921,
          "duration": 0.18292675000000003
        },
        {
          "name": "A3",
          "midi": 57,
          "time": 14.9999935,
          "velocity": 0.7480314960629921,
          "duration": 0.18292675000000003
        },
        {
          "name": "C2",
          "midi": 36,
          "time": 15.18292025,
          "velocity": 0.7480314960629921,
          "duration": 0.18292675000000003
        },
        {
          "name": "A3",
          "midi": 57,
          "time": 15.365847,
          "velocity": 0.7480314960629921,
          "duration": 0.18292675000000003
        },
        {
          "name": "E2",
          "midi": 40,
          "time": 15.365847,
          "velocity": 0.7480314960629921,
          "duration": 0.18292675000000003
        },
        {
          "name": "E2",
          "midi": 40,
          "time": 15.54877375,
          "velocity": 0.7480314960629921,
          "duration": 0.18292675000000003
        },
        {
          "name": "A3",
          "midi": 57,
          "time": 15.7317005,
          "velocity": 0.7480314960629921,
          "duration": 0.18292675000000003
        },
        {
          "name": "C2",
          "midi": 36,
          "time": 15.91462725,
          "velocity": 0.7480314960629921,
          "duration": 0.18292674999999825
        },
        {
          "name": "A3",
          "midi": 57,
          "time": 16.097554,
          "velocity": 0.7480314960629921,
          "duration": 0.18292675000000003
        },
        {
          "name": "C2",
          "midi": 36,
          "time": 16.097554,
          "velocity": 0.7480314960629921,
          "duration": 0.18292675000000003
        },
        {
          "name": "C2",
          "midi": 36,
          "time": 16.28048075,
          "velocity": 0.7480314960629921,
          "duration": 0.18292675000000003
        },
        {
          "name": "A3",
          "midi": 57,
          "time": 16.4634075,
          "velocity": 0.7480314960629921,
          "duration": 0.18292675000000003
        },
        {
          "name": "C2",
          "midi": 36,
          "time": 16.64633425,
          "velocity": 0.7480314960629921,
          "duration": 0.18292675000000003
        },
        {
          "name": "A3",
          "midi": 57,
          "time": 16.829261,
          "velocity": 0.7480314960629921,
          "duration": 0.18292675000000003
        },
        {
          "name": "E2",
          "midi": 40,
          "time": 16.829261,
          "velocity": 0.7480314960629921,
          "duration": 0.18292675000000003
        },
        {
          "name": "E2",
          "midi": 40,
          "time": 17.01218775,
          "velocity": 0.7480314960629921,
          "duration": 0.18292675000000003
        },
        {
          "name": "A3",
          "midi": 57,
          "time": 17.1951145,
          "velocity": 0.7480314960629921,
          "duration": 0.18292675000000003
        },
        {
          "name": "C2",
          "midi": 36,
          "time": 17.37804125,
          "velocity": 0.7480314960629921,
          "duration": 0.18292675000000003
        },
        {
          "name": "A3",
          "midi": 57,
          "time": 17.560968,
          "velocity": 0.7480314960629921,
          "duration": 0.18292675000000003
        },
        {
          "name": "C2",
          "midi": 36,
          "time": 17.560968,
          "velocity": 0.7480314960629921,
          "duration": 0.18292675000000003
        },
        {
          "name": "C2",
          "midi": 36,
          "time": 17.74389475,
          "velocity": 0.7480314960629921,
          "duration": 0.18292675000000003
        },
        {
          "name": "A3",
          "midi": 57,
          "time": 17.9268215,
          "velocity": 0.7480314960629921,
          "duration": 0.18292675000000003
        },
        {
          "name": "C2",
          "midi": 36,
          "time": 18.10974825,
          "velocity": 0.7480314960629921,
          "duration": 0.18292675000000003
        },
        {
          "name": "A3",
          "midi": 57,
          "time": 18.292675,
          "velocity": 0.7480314960629921,
          "duration": 0.18292675000000003
        },
        {
          "name": "E2",
          "midi": 40,
          "time": 18.292675,
          "velocity": 0.7480314960629921,
          "duration": 0.18292675000000003
        },
        {
          "name": "E2",
          "midi": 40,
          "time": 18.47560175,
          "velocity": 0.7480314960629921,
          "duration": 0.18292675000000003
        },
        {
          "name": "A3",
          "midi": 57,
          "time": 18.6585285,
          "velocity": 0.7480314960629921,
          "duration": 0.18292675000000003
        },
        {
          "name": "C2",
          "midi": 36,
          "time": 18.84145525,
          "velocity": 0.7480314960629921,
          "duration": 0.18292675000000003
        },
        {
          "name": "A3",
          "midi": 57,
          "time": 19.024382,
          "velocity": 0.7480314960629921,
          "duration": 0.18292675000000003
        },
        {
          "name": "C2",
          "midi": 36,
          "time": 19.024382,
          "velocity": 0.7480314960629921,
          "duration": 0.18292675000000003
        },
        {
          "name": "C2",
          "midi": 36,
          "time": 19.20730875,
          "velocity": 0.7480314960629921,
          "duration": 0.18292675000000003
        },
        {
          "name": "A3",
          "midi": 57,
          "time": 19.3902355,
          "velocity": 0.7480314960629921,
          "duration": 0.18292675000000003
        },
        {
          "name": "C2",
          "midi": 36,
          "time": 19.57316225,
          "velocity": 0.7480314960629921,
          "duration": 0.18292675000000003
        },
        {
          "name": "A3",
          "midi": 57,
          "time": 19.756089,
          "velocity": 0.7480314960629921,
          "duration": 0.18292675000000003
        },
        {
          "name": "E2",
          "midi": 40,
          "time": 19.756089,
          "velocity": 0.7480314960629921,
          "duration": 0.18292675000000003
        },
        {
          "name": "E2",
          "midi": 40,
          "time": 19.93901575,
          "velocity": 0.7480314960629921,
          "duration": 0.18292675000000003
        },
        {
          "name": "A3",
          "midi": 57,
          "time": 20.1219425,
          "velocity": 0.7480314960629921,
          "duration": 0.18292675000000003
        },
        {
          "name": "C2",
          "midi": 36,
          "time": 20.30486925,
          "velocity": 0.7480314960629921,
          "duration": 0.18292675000000003
        },
        {
          "name": "A#2",
          "midi": 46,
          "time": 20.487796,
          "velocity": 0.7480314960629921,
          "duration": 0.18292675000000003
        },
        {
          "name": "C2",
          "midi": 36,
          "time": 20.487796,
          "velocity": 0.7480314960629921,
          "duration": 0.18292675000000003
        },
        {
          "name": "C2",
          "midi": 36,
          "time": 20.67072275,
          "velocity": 0.7480314960629921,
          "duration": 0.18292675000000003
        },
        {
          "name": "A3",
          "midi": 57,
          "time": 20.8536495,
          "velocity": 0.7480314960629921,
          "duration": 0.18292675000000003
        },
        {
          "name": "C2",
          "midi": 36,
          "time": 21.03657625,
          "velocity": 0.7480314960629921,
          "duration": 0.18292675000000003
        },
        {
          "name": "A3",
          "midi": 57,
          "time": 21.219503,
          "velocity": 0.7480314960629921,
          "duration": 0.18292675000000003
        },
        {
          "name": "E2",
          "midi": 40,
          "time": 21.219503,
          "velocity": 0.7480314960629921,
          "duration": 0.18292675000000003
        },
        {
          "name": "E2",
          "midi": 40,
          "time": 21.40242975,
          "velocity": 0.7480314960629921,
          "duration": 0.18292675000000003
        },
        {
          "name": "A3",
          "midi": 57,
          "time": 21.5853565,
          "velocity": 0.7480314960629921,
          "duration": 0.18292675000000003
        },
        {
          "name": "C2",
          "midi": 36,
          "time": 21.76828325,
          "velocity": 0.7480314960629921,
          "duration": 0.18292675000000003
        },
        {
          "name": "A3",
          "midi": 57,
          "time": 21.95121,
          "velocity": 0.7480314960629921,
          "duration": 0.18292675000000003
        },
        {
          "name": "C2",
          "midi": 36,
          "time": 21.95121,
          "velocity": 0.7480314960629921,
          "duration": 0.18292675000000003
        },
        {
          "name": "C2",
          "midi": 36,
          "time": 22.13413675,
          "velocity": 0.7480314960629921,
          "duration": 0.18292675000000003
        },
        {
          "name": "A3",
          "midi": 57,
          "time": 22.3170635,
          "velocity": 0.7480314960629921,
          "duration": 0.18292675000000003
        },
        {
          "name": "C2",
          "midi": 36,
          "time": 22.49999025,
          "velocity": 0.7480314960629921,
          "duration": 0.18292675000000003
        },
        {
          "name": "A3",
          "midi": 57,
          "time": 22.682917,
          "velocity": 0.7480314960629921,
          "duration": 0.18292675000000003
        },
        {
          "name": "E2",
          "midi": 40,
          "time": 22.682917,
          "velocity": 0.7480314960629921,
          "duration": 0.18292675000000003
        },
        {
          "name": "E2",
          "midi": 40,
          "time": 22.86584375,
          "velocity": 0.7480314960629921,
          "duration": 0.18292675000000003
        },
        {
          "name": "A3",
          "midi": 57,
          "time": 23.0487705,
          "velocity": 0.7480314960629921,
          "duration": 0.18292675000000003
        },
        {
          "name": "C2",
          "midi": 36,
          "time": 23.23169725,
          "velocity": 0.7480314960629921,
          "duration": 0.18292675000000003
        },
        {
          "name": "A3",
          "midi": 57,
          "time": 23.414624,
          "velocity": 0.7480314960629921,
          "duration": 0.18292675000000003
        },
        {
          "name": "A#2",
          "midi": 46,
          "time": 23.7804775,
          "velocity": 0.7480314960629921,
          "duration": 0.18292675000000003
        },
        {
          "name": "C2",
          "midi": 36,
          "time": 23.7804775,
          "velocity": 0.7480314960629921,
          "duration": 0.18292675000000003
        },
        {
          "name": "E2",
          "midi": 40,
          "time": 23.96340425,
          "velocity": 0.7480314960629921,
          "duration": 0.18292675000000003
        },
        {
          "name": "A#2",
          "midi": 46,
          "time": 24.146331,
          "velocity": 0.7480314960629921,
          "duration": 0.18292675000000003
        },
        {
          "name": "C2",
          "midi": 36,
          "time": 24.32925775,
          "velocity": 0.7480314960629921,
          "duration": 0.18292675000000003
        },
        {
          "name": "A#2",
          "midi": 46,
          "time": 24.5121845,
          "velocity": 0.7480314960629921,
          "duration": 0.18292675000000003
        },
        {
          "name": "E2",
          "midi": 40,
          "time": 24.5121845,
          "velocity": 0.7480314960629921,
          "duration": 0.18292675000000003
        },
        {
          "name": "A#2",
          "midi": 46,
          "time": 24.878038,
          "velocity": 0.7480314960629921,
          "duration": 0.18292675000000003
        },
        {
          "name": "C2",
          "midi": 36,
          "time": 24.878038,
          "velocity": 0.7480314960629921,
          "duration": 0.18292675000000003
        },
        {
          "name": "E2",
          "midi": 40,
          "time": 25.06096475,
          "velocity": 0.7480314960629921,
          "duration": 0.18292675000000003
        },
        {
          "name": "A#2",
          "midi": 46,
          "time": 25.2438915,
          "velocity": 0.7480314960629921,
          "duration": 0.18292675000000003
        },
        {
          "name": "C2",
          "midi": 36,
          "time": 25.42681825,
          "velocity": 0.7480314960629921,
          "duration": 0.18292675000000003
        },
        {
          "name": "E2",
          "midi": 40,
          "time": 25.609745,
          "velocity": 0.7480314960629921,
          "duration": 0.18292675000000003
        },
        {
          "name": "A2",
          "midi": 45,
          "time": 25.79267175,
          "velocity": 0.7480314960629921,
          "duration": 0.18292675000000003
        },
        {
          "name": "F2",
          "midi": 41,
          "time": 25.9755985,
          "velocity": 0.7480314960629921,
          "duration": 0.18292675000000003
        },
        {
          "name": "G2",
          "midi": 43,
          "time": 26.15852525,
          "velocity": 0.7480314960629921,
          "duration": 0.18292675000000003
        },
        {
          "name": "F#2",
          "midi": 42,
          "time": 26.341452,
          "velocity": 0.7480314960629921,
          "duration": 0.36585350000000005
        },
        {
          "name": "C2",
          "midi": 36,
          "time": 26.341452,
          "velocity": 0.7480314960629921,
          "duration": 0.36585350000000005
        },
        {
          "name": "F#2",
          "midi": 42,
          "time": 26.7073055,
          "velocity": 0.7480314960629921,
          "duration": 0.36585350000000005
        },
        {
          "name": "C2",
          "midi": 36,
          "time": 26.7073055,
          "velocity": 0.7480314960629921,
          "duration": 0.36585350000000005
        },
        {
          "name": "F#2",
          "midi": 42,
          "time": 27.073159,
          "velocity": 0.7480314960629921,
          "duration": 0.36585350000000005
        },
        {
          "name": "C2",
          "midi": 36,
          "time": 27.073159,
          "velocity": 0.7480314960629921,
          "duration": 0.36585350000000005
        },
        {
          "name": "F#2",
          "midi": 42,
          "time": 27.4390125,
          "velocity": 0.7480314960629921,
          "duration": 0.36585350000000005
        },
        {
          "name": "C2",
          "midi": 36,
          "time": 27.4390125,
          "velocity": 0.7480314960629921,
          "duration": 0.36585350000000005
        },
        {
          "name": "F#2",
          "midi": 42,
          "time": 27.804866,
          "velocity": 0.7480314960629921,
          "duration": 0.36585350000000005
        },
        {
          "name": "C2",
          "midi": 36,
          "time": 27.804866,
          "velocity": 0.7480314960629921,
          "duration": 0.36585350000000005
        },
        {
          "name": "F#2",
          "midi": 42,
          "time": 28.1707195,
          "velocity": 0.7480314960629921,
          "duration": 0.36585350000000005
        },
        {
          "name": "C2",
          "midi": 36,
          "time": 28.1707195,
          "velocity": 0.7480314960629921,
          "duration": 0.36585350000000005
        },
        {
          "name": "F#2",
          "midi": 42,
          "time": 28.536573,
          "velocity": 0.7480314960629921,
          "duration": 0.36585350000000005
        },
        {
          "name": "C2",
          "midi": 36,
          "time": 28.536573,
          "velocity": 0.7480314960629921,
          "duration": 0.36585350000000005
        },
        {
          "name": "F#2",
          "midi": 42,
          "time": 28.9024265,
          "velocity": 0.7480314960629921,
          "duration": 0.36585350000000005
        },
        {
          "name": "C2",
          "midi": 36,
          "time": 28.9024265,
          "velocity": 0.7480314960629921,
          "duration": 0.36585350000000005
        },
        {
          "name": "F#2",
          "midi": 42,
          "time": 29.26828,
          "velocity": 0.7480314960629921,
          "duration": 0.36585350000000005
        },
        {
          "name": "C2",
          "midi": 36,
          "time": 29.26828,
          "velocity": 0.7480314960629921,
          "duration": 0.36585350000000005
        },
        {
          "name": "F#2",
          "midi": 42,
          "time": 29.6341335,
          "velocity": 0.7480314960629921,
          "duration": 0.36585350000000005
        },
        {
          "name": "C2",
          "midi": 36,
          "time": 29.6341335,
          "velocity": 0.7480314960629921,
          "duration": 0.36585350000000005
        },
        {
          "name": "F#2",
          "midi": 42,
          "time": 29.999987,
          "velocity": 0.7480314960629921,
          "duration": 0.36585350000000005
        },
        {
          "name": "C2",
          "midi": 36,
          "time": 29.999987,
          "velocity": 0.7480314960629921,
          "duration": 0.36585350000000005
        },
        {
          "name": "F#2",
          "midi": 42,
          "time": 30.3658405,
          "velocity": 0.7480314960629921,
          "duration": 0.36585350000000005
        },
        {
          "name": "C2",
          "midi": 36,
          "time": 30.3658405,
          "velocity": 0.7480314960629921,
          "duration": 0.36585350000000005
        },
        {
          "name": "F#2",
          "midi": 42,
          "time": 30.731694,
          "velocity": 0.7480314960629921,
          "duration": 0.36585350000000005
        },
        {
          "name": "C2",
          "midi": 36,
          "time": 30.731694,
          "velocity": 0.7480314960629921,
          "duration": 0.36585350000000005
        },
        {
          "name": "F#2",
          "midi": 42,
          "time": 31.0975475,
          "velocity": 0.7480314960629921,
          "duration": 0.36585350000000005
        },
        {
          "name": "C2",
          "midi": 36,
          "time": 31.0975475,
          "velocity": 0.7480314960629921,
          "duration": 0.36585350000000005
        },
        {
          "name": "F#2",
          "midi": 42,
          "time": 31.463401,
          "velocity": 0.7480314960629921,
          "duration": 0.36585350000000005
        },
        {
          "name": "C2",
          "midi": 36,
          "time": 31.463401,
          "velocity": 0.7480314960629921,
          "duration": 0.36585350000000005
        },
        {
          "name": "F#2",
          "midi": 42,
          "time": 31.8292545,
          "velocity": 0.7480314960629921,
          "duration": 0.3658534999999965
        },
        {
          "name": "C2",
          "midi": 36,
          "time": 31.8292545,
          "velocity": 0.7480314960629921,
          "duration": 0.3658534999999965
        },
        {
          "name": "F#2",
          "midi": 42,
          "time": 32.195108,
          "velocity": 0.7480314960629921,
          "duration": 0.36585350000000005
        },
        {
          "name": "C2",
          "midi": 36,
          "time": 32.195108,
          "velocity": 0.7480314960629921,
          "duration": 0.36585350000000005
        },
        {
          "name": "F#2",
          "midi": 42,
          "time": 32.5609615,
          "velocity": 0.7480314960629921,
          "duration": 0.36585350000000005
        },
        {
          "name": "C2",
          "midi": 36,
          "time": 32.5609615,
          "velocity": 0.7480314960629921,
          "duration": 0.36585350000000005
        },
        {
          "name": "F#2",
          "midi": 42,
          "time": 32.926815,
          "velocity": 0.7480314960629921,
          "duration": 0.36585350000000005
        },
        {
          "name": "C2",
          "midi": 36,
          "time": 32.926815,
          "velocity": 0.7480314960629921,
          "duration": 0.36585350000000005
        },
        {
          "name": "F#2",
          "midi": 42,
          "time": 33.2926685,
          "velocity": 0.7480314960629921,
          "duration": 0.36585350000000005
        },
        {
          "name": "C2",
          "midi": 36,
          "time": 33.2926685,
          "velocity": 0.7480314960629921,
          "duration": 0.36585350000000005
        },
        {
          "name": "F#2",
          "midi": 42,
          "time": 33.658522,
          "velocity": 1,
          "duration": 0.36585350000000005
        },
        {
          "name": "C2",
          "midi": 36,
          "time": 33.658522,
          "velocity": 0.7480314960629921,
          "duration": 0.36585350000000005
        },
        {
          "name": "F#2",
          "midi": 42,
          "time": 34.0243755,
          "velocity": 1,
          "duration": 0.36585350000000005
        },
        {
          "name": "C2",
          "midi": 36,
          "time": 34.0243755,
          "velocity": 0.7480314960629921,
          "duration": 0.36585350000000005
        },
        {
          "name": "F#2",
          "midi": 42,
          "time": 34.390229,
          "velocity": 1,
          "duration": 0.36585350000000005
        },
        {
          "name": "C2",
          "midi": 36,
          "time": 34.390229,
          "velocity": 0.7480314960629921,
          "duration": 0.36585350000000005
        },
        {
          "name": "F#2",
          "midi": 42,
          "time": 34.7560825,
          "velocity": 1,
          "duration": 0.36585350000000005
        },
        {
          "name": "C2",
          "midi": 36,
          "time": 34.7560825,
          "velocity": 0.7480314960629921,
          "duration": 0.36585350000000005
        },
        {
          "name": "A#2",
          "midi": 46,
          "time": 35.121936,
          "velocity": 0.7480314960629921,
          "duration": 0.36585350000000005
        },
        {
          "name": "C2",
          "midi": 36,
          "time": 35.121936,
          "velocity": 0.7480314960629921,
          "duration": 0.36585350000000005
        },
        {
          "name": "A#2",
          "midi": 46,
          "time": 35.4877895,
          "velocity": 0.7480314960629921,
          "duration": 0.36585350000000005
        },
        {
          "name": "C2",
          "midi": 36,
          "time": 35.4877895,
          "velocity": 0.7480314960629921,
          "duration": 0.36585350000000005
        },
        {
          "name": "A#2",
          "midi": 46,
          "time": 35.853643,
          "velocity": 0.7480314960629921,
          "duration": 0.36585350000000005
        },
        {
          "name": "C2",
          "midi": 36,
          "time": 35.853643,
          "velocity": 0.7480314960629921,
          "duration": 0.36585350000000005
        },
        {
          "name": "A#2",
          "midi": 46,
          "time": 36.2194965,
          "velocity": 1,
          "duration": 0.36585350000000005
        },
        {
          "name": "C2",
          "midi": 36,
          "time": 36.2194965,
          "velocity": 0.7480314960629921,
          "duration": 0.36585350000000005
        },
        {
          "name": "A#2",
          "midi": 46,
          "time": 36.58535,
          "velocity": 1,
          "duration": 0.36585350000000005
        },
        {
          "name": "C2",
          "midi": 36,
          "time": 36.58535,
          "velocity": 0.7480314960629921,
          "duration": 0.36585350000000005
        },
        {
          "name": "A#2",
          "midi": 46,
          "time": 36.9512035,
          "velocity": 1,
          "duration": 0.36585350000000005
        },
        {
          "name": "C2",
          "midi": 36,
          "time": 36.9512035,
          "velocity": 0.7480314960629921,
          "duration": 0.36585350000000005
        },
        {
          "name": "A#2",
          "midi": 46,
          "time": 37.317057,
          "velocity": 1,
          "duration": 0.36585350000000005
        },
        {
          "name": "C2",
          "midi": 36,
          "time": 37.317057,
          "velocity": 0.7480314960629921,
          "duration": 0.36585350000000005
        },
        {
          "name": "E2",
          "midi": 40,
          "time": 37.6829105,
          "velocity": 0.7480314960629921,
          "duration": 0.36585350000000005
        },
        {
          "name": "A#2",
          "midi": 46,
          "time": 38.048764,
          "velocity": 0.7480314960629921,
          "duration": 0.18292675000000003
        },
        {
          "name": "C2",
          "midi": 36,
          "time": 38.048764,
          "velocity": 0.7480314960629921,
          "duration": 0.18292675000000003
        },
        {
          "name": "C2",
          "midi": 36,
          "time": 38.23169075,
          "velocity": 0.7480314960629921,
          "duration": 0.18292675000000003
        },
        {
          "name": "A#2",
          "midi": 46,
          "time": 38.4146175,
          "velocity": 0.7480314960629921,
          "duration": 0.18292675000000003
        },
        {
          "name": "C2",
          "midi": 36,
          "time": 38.4146175,
          "velocity": 0.7480314960629921,
          "duration": 0.18292675000000003
        },
        {
          "name": "C2",
          "midi": 36,
          "time": 38.59754425,
          "velocity": 0.7480314960629921,
          "duration": 0.18292675000000003
        },
        {
          "name": "A#2",
          "midi": 46,
          "time": 38.780471,
          "velocity": 0.7480314960629921,
          "duration": 0.18292675000000003
        },
        {
          "name": "E2",
          "midi": 40,
          "time": 38.780471,
          "velocity": 0.7480314960629921,
          "duration": 0.18292675000000003
        },
        {
          "name": "A#2",
          "midi": 46,
          "time": 39.1463245,
          "velocity": 0.7480314960629921,
          "duration": 0.18292675000000003
        },
        {
          "name": "A#2",
          "midi": 46,
          "time": 39.512178,
          "velocity": 0.7480314960629921,
          "duration": 0.18292675000000003
        },
        {
          "name": "C2",
          "midi": 36,
          "time": 39.512178,
          "velocity": 0.7480314960629921,
          "duration": 0.18292675000000003
        },
        {
          "name": "C2",
          "midi": 36,
          "time": 39.69510475,
          "velocity": 0.7480314960629921,
          "duration": 0.18292675000000003
        },
        {
          "name": "A#2",
          "midi": 46,
          "time": 39.8780315,
          "velocity": 0.7480314960629921,
          "duration": 0.18292675000000003
        },
        {
          "name": "C2",
          "midi": 36,
          "time": 39.8780315,
          "velocity": 0.7480314960629921,
          "duration": 0.18292675000000003
        },
        {
          "name": "C2",
          "midi": 36,
          "time": 40.06095825,
          "velocity": 0.7480314960629921,
          "duration": 0.18292675000000003
        },
        {
          "name": "A#2",
          "midi": 46,
          "time": 40.243885,
          "velocity": 0.7480314960629921,
          "duration": 0.18292675000000003
        },
        {
          "name": "E2",
          "midi": 40,
          "time": 40.243885,
          "velocity": 0.7480314960629921,
          "duration": 0.18292675000000003
        },
        {
          "name": "A#2",
          "midi": 46,
          "time": 40.6097385,
          "velocity": 0.7480314960629921,
          "duration": 0.18292675000000003
        },
        {
          "name": "C2",
          "midi": 36,
          "time": 40.6097385,
          "velocity": 0.7480314960629921,
          "duration": 0.18292675000000003
        },
        {
          "name": "E2",
          "midi": 40,
          "time": 40.79266525,
          "velocity": 0.7480314960629921,
          "duration": 0.18292675000000003
        },
        {
          "name": "A#2",
          "midi": 46,
          "time": 40.975592,
          "velocity": 0.7480314960629921,
          "duration": 0.18292675000000003
        },
        {
          "name": "C2",
          "midi": 36,
          "time": 40.975592,
          "velocity": 0.7480314960629921,
          "duration": 0.18292675000000003
        },
        {
          "name": "C2",
          "midi": 36,
          "time": 41.15851875,
          "velocity": 0.7480314960629921,
          "duration": 0.18292675000000003
        },
        {
          "name": "A#2",
          "midi": 46,
          "time": 41.3414455,
          "velocity": 0.7480314960629921,
          "duration": 0.18292675000000003
        },
        {
          "name": "C2",
          "midi": 36,
          "time": 41.3414455,
          "velocity": 0.7480314960629921,
          "duration": 0.18292675000000003
        },
        {
          "name": "C2",
          "midi": 36,
          "time": 41.52437225,
          "velocity": 0.7480314960629921,
          "duration": 0.18292675000000003
        },
        {
          "name": "A#2",
          "midi": 46,
          "time": 41.707299,
          "velocity": 0.7480314960629921,
          "duration": 0.18292675000000003
        },
        {
          "name": "E2",
          "midi": 40,
          "time": 41.707299,
          "velocity": 0.7480314960629921,
          "duration": 0.18292675000000003
        },
        {
          "name": "A#2",
          "midi": 46,
          "time": 42.0731525,
          "velocity": 0.7480314960629921,
          "duration": 0.18292675000000003
        },
        {
          "name": "A#2",
          "midi": 46,
          "time": 42.439006,
          "velocity": 0.7480314960629921,
          "duration": 0.18292675000000003
        },
        {
          "name": "C2",
          "midi": 36,
          "time": 42.439006,
          "velocity": 0.7480314960629921,
          "duration": 0.18292675000000003
        },
        {
          "name": "C2",
          "midi": 36,
          "time": 42.62193275,
          "velocity": 0.7480314960629921,
          "duration": 0.18292675000000003
        },
        {
          "name": "A#2",
          "midi": 46,
          "time": 42.8048595,
          "velocity": 0.7480314960629921,
          "duration": 0.18292675000000003
        },
        {
          "name": "C2",
          "midi": 36,
          "time": 42.8048595,
          "velocity": 0.7480314960629921,
          "duration": 0.18292675000000003
        },
        {
          "name": "C2",
          "midi": 36,
          "time": 42.98778625,
          "velocity": 0.7480314960629921,
          "duration": 0.18292675000000003
        },
        {
          "name": "A#2",
          "midi": 46,
          "time": 43.170713,
          "velocity": 0.7480314960629921,
          "duration": 0.18292675000000003
        },
        {
          "name": "E2",
          "midi": 40,
          "time": 43.170713,
          "velocity": 0.7480314960629921,
          "duration": 0.18292675000000003
        },
        {
          "name": "A#2",
          "midi": 46,
          "time": 43.5365665,
          "velocity": 0.7480314960629921,
          "duration": 0.18292675000000003
        },
        {
          "name": "C2",
          "midi": 36,
          "time": 43.5365665,
          "velocity": 0.7480314960629921,
          "duration": 0.18292675000000003
        },
        {
          "name": "E2",
          "midi": 40,
          "time": 43.71949325,
          "velocity": 0.7480314960629921,
          "duration": 0.18292675000000003
        },
        {
          "name": "A#2",
          "midi": 46,
          "time": 43.90242,
          "velocity": 0.7480314960629921,
          "duration": 0.18292675000000003
        },
        {
          "name": "C2",
          "midi": 36,
          "time": 43.90242,
          "velocity": 0.7480314960629921,
          "duration": 0.18292675000000003
        },
        {
          "name": "C2",
          "midi": 36,
          "time": 44.08534675,
          "velocity": 0.7480314960629921,
          "duration": 0.18292675000000003
        },
        {
          "name": "A#2",
          "midi": 46,
          "time": 44.2682735,
          "velocity": 0.7480314960629921,
          "duration": 0.18292675000000003
        },
        {
          "name": "C2",
          "midi": 36,
          "time": 44.2682735,
          "velocity": 0.7480314960629921,
          "duration": 0.18292675000000003
        },
        {
          "name": "C2",
          "midi": 36,
          "time": 44.45120025,
          "velocity": 0.7480314960629921,
          "duration": 0.18292675000000003
        },
        {
          "name": "A#2",
          "midi": 46,
          "time": 44.634127,
          "velocity": 0.7480314960629921,
          "duration": 0.18292675000000003
        },
        {
          "name": "E2",
          "midi": 40,
          "time": 44.634127,
          "velocity": 0.7480314960629921,
          "duration": 0.18292675000000003
        },
        {
          "name": "A#2",
          "midi": 46,
          "time": 44.9999805,
          "velocity": 0.7480314960629921,
          "duration": 0.18292675000000003
        },
        {
          "name": "A#2",
          "midi": 46,
          "time": 45.365834,
          "velocity": 0.7480314960629921,
          "duration": 0.18292675000000003
        },
        {
          "name": "C2",
          "midi": 36,
          "time": 45.365834,
          "velocity": 0.7480314960629921,
          "duration": 0.18292675000000003
        },
        {
          "name": "C2",
          "midi": 36,
          "time": 45.54876075,
          "velocity": 0.7480314960629921,
          "duration": 0.18292675000000003
        },
        {
          "name": "A#2",
          "midi": 46,
          "time": 45.7316875,
          "velocity": 0.7480314960629921,
          "duration": 0.18292675000000003
        },
        {
          "name": "C2",
          "midi": 36,
          "time": 45.7316875,
          "velocity": 0.7480314960629921,
          "duration": 0.18292675000000003
        },
        {
          "name": "C2",
          "midi": 36,
          "time": 45.91461425,
          "velocity": 0.7480314960629921,
          "duration": 0.18292675000000003
        },
        {
          "name": "A#2",
          "midi": 46,
          "time": 46.097541,
          "velocity": 0.7480314960629921,
          "duration": 0.18292675000000003
        },
        {
          "name": "E2",
          "midi": 40,
          "time": 46.097541,
          "velocity": 0.7480314960629921,
          "duration": 0.18292675000000003
        },
        {
          "name": "A#2",
          "midi": 46,
          "time": 46.4633945,
          "velocity": 0.7480314960629921,
          "duration": 0.18292675000000003
        },
        {
          "name": "C2",
          "midi": 36,
          "time": 46.4633945,
          "velocity": 0.7480314960629921,
          "duration": 0.18292675000000003
        },
        {
          "name": "E2",
          "midi": 40,
          "time": 46.64632125,
          "velocity": 0.7480314960629921,
          "duration": 0.18292675000000003
        },
        {
          "name": "A#2",
          "midi": 46,
          "time": 46.829248,
          "velocity": 0.7480314960629921,
          "duration": 0.18292675000000003
        },
        {
          "name": "C2",
          "midi": 36,
          "time": 46.829248,
          "velocity": 0.7480314960629921,
          "duration": 0.18292675000000003
        },
        {
          "name": "C2",
          "midi": 36,
          "time": 47.01217475,
          "velocity": 0.7480314960629921,
          "duration": 0.18292675000000003
        },
        {
          "name": "A#2",
          "midi": 46,
          "time": 47.1951015,
          "velocity": 0.7480314960629921,
          "duration": 0.18292675000000003
        },
        {
          "name": "C2",
          "midi": 36,
          "time": 47.1951015,
          "velocity": 0.7480314960629921,
          "duration": 0.18292675000000003
        },
        {
          "name": "C2",
          "midi": 36,
          "time": 47.37802825,
          "velocity": 0.7480314960629921,
          "duration": 0.18292675000000003
        },
        {
          "name": "A#2",
          "midi": 46,
          "time": 47.560955,
          "velocity": 0.7480314960629921,
          "duration": 0.18292675000000003
        },
        {
          "name": "E2",
          "midi": 40,
          "time": 47.560955,
          "velocity": 0.7480314960629921,
          "duration": 0.18292675000000003
        },
        {
          "name": "A#2",
          "midi": 46,
          "time": 47.9268085,
          "velocity": 0.7480314960629921,
          "duration": 0.18292675000000003
        },
        {
          "name": "A#2",
          "midi": 46,
          "time": 48.292662,
          "velocity": 0.7480314960629921,
          "duration": 0.18292675000000003
        },
        {
          "name": "C2",
          "midi": 36,
          "time": 48.292662,
          "velocity": 0.7480314960629921,
          "duration": 0.18292675000000003
        },
        {
          "name": "C2",
          "midi": 36,
          "time": 48.47558875,
          "velocity": 0.7480314960629921,
          "duration": 0.18292675000000003
        },
        {
          "name": "A#2",
          "midi": 46,
          "time": 48.6585155,
          "velocity": 0.7480314960629921,
          "duration": 0.18292675000000003
        },
        {
          "name": "C2",
          "midi": 36,
          "time": 48.6585155,
          "velocity": 0.7480314960629921,
          "duration": 0.18292675000000003
        },
        {
          "name": "C2",
          "midi": 36,
          "time": 48.84144225,
          "velocity": 0.7480314960629921,
          "duration": 0.18292675000000003
        },
        {
          "name": "E2",
          "midi": 40,
          "time": 49.024369,
          "velocity": 0.7480314960629921,
          "duration": 0.18292675000000003
        },
        {
          "name": "C2",
          "midi": 36,
          "time": 49.20729575,
          "velocity": 0.7480314960629921,
          "duration": 0.18292675000000003
        },
        {
          "name": "E2",
          "midi": 40,
          "time": 49.3902225,
          "velocity": 0.7480314960629921,
          "duration": 0.18292675000000003
        },
        {
          "name": "C2",
          "midi": 36,
          "time": 49.57314925,
          "velocity": 0.7480314960629921,
          "duration": 0.18292675000000003
        },
        {
          "name": "D#3",
          "midi": 51,
          "time": 49.756076,
          "velocity": 0.7480314960629921,
          "duration": 0.18292675000000003
        },
        {
          "name": "C#2",
          "midi": 37,
          "time": 49.756076,
          "velocity": 0.7480314960629921,
          "duration": 0.18292675000000003
        },
        {
          "name": "C2",
          "midi": 36,
          "time": 49.756076,
          "velocity": 0.7480314960629921,
          "duration": 0.18292675000000003
        },
        {
          "name": "D#3",
          "midi": 51,
          "time": 49.93900275,
          "velocity": 0.49606299212598426,
          "duration": 0.18292675000000003
        },
        {
          "name": "D#3",
          "midi": 51,
          "time": 50.1219295,
          "velocity": 0.7480314960629921,
          "duration": 0.18292675000000003
        },
        {
          "name": "C#2",
          "midi": 37,
          "time": 50.1219295,
          "velocity": 0.7480314960629921,
          "duration": 0.18292675000000003
        },
        {
          "name": "D#3",
          "midi": 51,
          "time": 50.30485625,
          "velocity": 0.49606299212598426,
          "duration": 0.18292675000000003
        },
        {
          "name": "D#3",
          "midi": 51,
          "time": 50.487783,
          "velocity": 0.7480314960629921,
          "duration": 0.18292675000000003
        },
        {
          "name": "C#2",
          "midi": 37,
          "time": 50.487783,
          "velocity": 0.7480314960629921,
          "duration": 0.18292675000000003
        },
        {
          "name": "D#3",
          "midi": 51,
          "time": 50.67070975,
          "velocity": 0.49606299212598426,
          "duration": 0.18292675000000003
        },
        {
          "name": "C2",
          "midi": 36,
          "time": 50.67070975,
          "velocity": 0.7480314960629921,
          "duration": 0.18292675000000003
        },
        {
          "name": "D#3",
          "midi": 51,
          "time": 50.8536365,
          "velocity": 0.7480314960629921,
          "duration": 0.18292675000000003
        },
        {
          "name": "C#2",
          "midi": 37,
          "time": 50.8536365,
          "velocity": 0.7480314960629921,
          "duration": 0.18292675000000003
        },
        {
          "name": "C2",
          "midi": 36,
          "time": 50.8536365,
          "velocity": 0.7480314960629921,
          "duration": 0.18292675000000003
        },
        {
          "name": "D#3",
          "midi": 51,
          "time": 51.03656325,
          "velocity": 0.49606299212598426,
          "duration": 0.18292675000000003
        },
        {
          "name": "D#3",
          "midi": 51,
          "time": 51.21949,
          "velocity": 0.7480314960629921,
          "duration": 0.18292675000000003
        },
        {
          "name": "C#2",
          "midi": 37,
          "time": 51.21949,
          "velocity": 0.7480314960629921,
          "duration": 0.18292675000000003
        },
        {
          "name": "D#3",
          "midi": 51,
          "time": 51.40241675,
          "velocity": 0.49606299212598426,
          "duration": 0.18292675000000003
        },
        {
          "name": "D#3",
          "midi": 51,
          "time": 51.5853435,
          "velocity": 0.7480314960629921,
          "duration": 0.18292675000000003
        },
        {
          "name": "C#2",
          "midi": 37,
          "time": 51.5853435,
          "velocity": 0.7480314960629921,
          "duration": 0.18292675000000003
        },
        {
          "name": "D#3",
          "midi": 51,
          "time": 51.76827025,
          "velocity": 0.49606299212598426,
          "duration": 0.18292675000000003
        },
        {
          "name": "D#3",
          "midi": 51,
          "time": 51.951197,
          "velocity": 0.7480314960629921,
          "duration": 0.18292675000000003
        },
        {
          "name": "C#2",
          "midi": 37,
          "time": 51.951197,
          "velocity": 0.7480314960629921,
          "duration": 0.18292675000000003
        },
        {
          "name": "D#3",
          "midi": 51,
          "time": 52.13412375,
          "velocity": 0.49606299212598426,
          "duration": 0.18292675000000003
        },
        {
          "name": "D#3",
          "midi": 51,
          "time": 52.3170505,
          "velocity": 0.7480314960629921,
          "duration": 0.18292675000000003
        },
        {
          "name": "C#2",
          "midi": 37,
          "time": 52.3170505,
          "velocity": 0.7480314960629921,
          "duration": 0.18292675000000003
        },
        {
          "name": "D#3",
          "midi": 51,
          "time": 52.49997725,
          "velocity": 0.49606299212598426,
          "duration": 0.18292675000000003
        },
        {
          "name": "D#3",
          "midi": 51,
          "time": 52.682904,
          "velocity": 0.7480314960629921,
          "duration": 0.18292675000000003
        },
        {
          "name": "C#2",
          "midi": 37,
          "time": 52.682904,
          "velocity": 0.7480314960629921,
          "duration": 0.18292675000000003
        },
        {
          "name": "C2",
          "midi": 36,
          "time": 52.682904,
          "velocity": 0.7480314960629921,
          "duration": 0.18292675000000003
        },
        {
          "name": "D#3",
          "midi": 51,
          "time": 52.86583075,
          "velocity": 0.49606299212598426,
          "duration": 0.18292675000000003
        },
        {
          "name": "D#3",
          "midi": 51,
          "time": 53.0487575,
          "velocity": 0.7480314960629921,
          "duration": 0.18292675000000003
        },
        {
          "name": "C#2",
          "midi": 37,
          "time": 53.0487575,
          "velocity": 0.7480314960629921,
          "duration": 0.18292675000000003
        },
        {
          "name": "D#3",
          "midi": 51,
          "time": 53.23168425,
          "velocity": 0.49606299212598426,
          "duration": 0.18292675000000003
        },
        {
          "name": "D#3",
          "midi": 51,
          "time": 53.414611,
          "velocity": 0.7480314960629921,
          "duration": 0.18292675000000003
        },
        {
          "name": "C#2",
          "midi": 37,
          "time": 53.414611,
          "velocity": 0.7480314960629921,
          "duration": 0.18292675000000003
        },
        {
          "name": "D#3",
          "midi": 51,
          "time": 53.59753775,
          "velocity": 0.49606299212598426,
          "duration": 0.18292675000000003
        },
        {
          "name": "C2",
          "midi": 36,
          "time": 53.59753775,
          "velocity": 0.7480314960629921,
          "duration": 0.18292675000000003
        },
        {
          "name": "D#3",
          "midi": 51,
          "time": 53.7804645,
          "velocity": 0.7480314960629921,
          "duration": 0.18292675000000003
        },
        {
          "name": "C#2",
          "midi": 37,
          "time": 53.7804645,
          "velocity": 0.7480314960629921,
          "duration": 0.18292675000000003
        },
        {
          "name": "C2",
          "midi": 36,
          "time": 53.7804645,
          "velocity": 0.7480314960629921,
          "duration": 0.18292675000000003
        },
        {
          "name": "D#3",
          "midi": 51,
          "time": 53.96339125,
          "velocity": 0.49606299212598426,
          "duration": 0.18292675000000003
        },
        {
          "name": "D#3",
          "midi": 51,
          "time": 54.146318,
          "velocity": 0.7480314960629921,
          "duration": 0.18292675000000003
        },
        {
          "name": "C#2",
          "midi": 37,
          "time": 54.146318,
          "velocity": 0.7480314960629921,
          "duration": 0.18292675000000003
        },
        {
          "name": "D#3",
          "midi": 51,
          "time": 54.32924475,
          "velocity": 0.49606299212598426,
          "duration": 0.18292675000000003
        },
        {
          "name": "D#3",
          "midi": 51,
          "time": 54.5121715,
          "velocity": 0.7480314960629921,
          "duration": 0.18292675000000003
        },
        {
          "name": "C#2",
          "midi": 37,
          "time": 54.5121715,
          "velocity": 0.7480314960629921,
          "duration": 0.18292675000000003
        },
        {
          "name": "D#3",
          "midi": 51,
          "time": 54.69509825,
          "velocity": 0.49606299212598426,
          "duration": 0.18292675000000003
        },
        {
          "name": "D#3",
          "midi": 51,
          "time": 54.878025,
          "velocity": 0.7480314960629921,
          "duration": 0.18292675000000003
        },
        {
          "name": "C#2",
          "midi": 37,
          "time": 54.878025,
          "velocity": 0.7480314960629921,
          "duration": 0.18292675000000003
        },
        {
          "name": "D#3",
          "midi": 51,
          "time": 55.06095175,
          "velocity": 0.49606299212598426,
          "duration": 0.18292675000000003
        },
        {
          "name": "C2",
          "midi": 36,
          "time": 55.06095175,
          "velocity": 0.7480314960629921,
          "duration": 0.18292675000000003
        },
        {
          "name": "D#3",
          "midi": 51,
          "time": 55.2438785,
          "velocity": 0.7480314960629921,
          "duration": 0.18292675000000003
        },
        {
          "name": "C#2",
          "midi": 37,
          "time": 55.2438785,
          "velocity": 0.7480314960629921,
          "duration": 0.18292675000000003
        },
        {
          "name": "D#3",
          "midi": 51,
          "time": 55.42680525,
          "velocity": 0.49606299212598426,
          "duration": 0.18292675000000003
        },
        {
          "name": "C2",
          "midi": 36,
          "time": 55.42680525,
          "velocity": 0.7480314960629921,
          "duration": 0.18292675000000003
        },
        {
          "name": "D#3",
          "midi": 51,
          "time": 55.609732,
          "velocity": 0.7480314960629921,
          "duration": 0.18292675000000003
        },
        {
          "name": "C#2",
          "midi": 37,
          "time": 55.609732,
          "velocity": 0.7480314960629921,
          "duration": 0.18292675000000003
        },
        {
          "name": "C2",
          "midi": 36,
          "time": 55.609732,
          "velocity": 0.7480314960629921,
          "duration": 0.18292675000000003
        },
        {
          "name": "D#3",
          "midi": 51,
          "time": 55.9755855,
          "velocity": 0.7480314960629921,
          "duration": 0.18292675000000003
        },
        {
          "name": "C#2",
          "midi": 37,
          "time": 55.9755855,
          "velocity": 0.7480314960629921,
          "duration": 0.18292675000000003
        },
        {
          "name": "D#3",
          "midi": 51,
          "time": 56.341439,
          "velocity": 0.7480314960629921,
          "duration": 0.18292675000000003
        },
        {
          "name": "C#2",
          "midi": 37,
          "time": 56.341439,
          "velocity": 0.7480314960629921,
          "duration": 0.18292675000000003
        },
        {
          "name": "C2",
          "midi": 36,
          "time": 56.52436575,
          "velocity": 0.7480314960629921,
          "duration": 0.18292675000000003
        },
        {
          "name": "D#3",
          "midi": 51,
          "time": 56.7072925,
          "velocity": 0.7480314960629921,
          "duration": 0.18292675000000003
        },
        {
          "name": "C#2",
          "midi": 37,
          "time": 56.7072925,
          "velocity": 0.7480314960629921,
          "duration": 0.18292675000000003
        },
        {
          "name": "C2",
          "midi": 36,
          "time": 56.7072925,
          "velocity": 0.7480314960629921,
          "duration": 0.18292675000000003
        },
        {
          "name": "D#3",
          "midi": 51,
          "time": 57.073146,
          "velocity": 0.7480314960629921,
          "duration": 0.18292675000000003
        },
        {
          "name": "C#2",
          "midi": 37,
          "time": 57.073146,
          "velocity": 0.7480314960629921,
          "duration": 0.18292675000000003
        },
        {
          "name": "D#3",
          "midi": 51,
          "time": 57.4389995,
          "velocity": 0.7480314960629921,
          "duration": 0.18292675000000003
        },
        {
          "name": "C#2",
          "midi": 37,
          "time": 57.4389995,
          "velocity": 0.7480314960629921,
          "duration": 0.18292675000000003
        },
        {
          "name": "D#3",
          "midi": 51,
          "time": 57.804853,
          "velocity": 0.7480314960629921,
          "duration": 0.18292675000000003
        },
        {
          "name": "C#2",
          "midi": 37,
          "time": 57.804853,
          "velocity": 0.7480314960629921,
          "duration": 0.18292675000000003
        },
        {
          "name": "D#3",
          "midi": 51,
          "time": 58.1707065,
          "velocity": 0.7480314960629921,
          "duration": 0.18292675000000003
        },
        {
          "name": "C#2",
          "midi": 37,
          "time": 58.1707065,
          "velocity": 0.7480314960629921,
          "duration": 0.18292675000000003
        },
        {
          "name": "D#3",
          "midi": 51,
          "time": 58.53656,
          "velocity": 0.7480314960629921,
          "duration": 0.18292675000000003
        },
        {
          "name": "E2",
          "midi": 40,
          "time": 58.53656,
          "velocity": 0.7480314960629921,
          "duration": 0.18292675000000003
        },
        {
          "name": "C2",
          "midi": 36,
          "time": 58.53656,
          "velocity": 0.7480314960629921,
          "duration": 0.18292675000000003
        },
        {
          "name": "E2",
          "midi": 40,
          "time": 58.71948675,
          "velocity": 0.3700787401574803,
          "duration": 0.18292675000000003
        },
        {
          "name": "G2",
          "midi": 43,
          "time": 58.71948675,
          "velocity": 0.3700787401574803,
          "duration": 0.18292675000000003
        },
        {
          "name": "E2",
          "midi": 40,
          "time": 58.9024135,
          "velocity": 0.3700787401574803,
          "duration": 0.18292675000000003
        },
        {
          "name": "G2",
          "midi": 43,
          "time": 58.9024135,
          "velocity": 0.3700787401574803,
          "duration": 0.18292675000000003
        },
        {
          "name": "E2",
          "midi": 40,
          "time": 59.08534025,
          "velocity": 0.49606299212598426,
          "duration": 0.18292675000000003
        },
        {
          "name": "G2",
          "midi": 43,
          "time": 59.08534025,
          "velocity": 0.49606299212598426,
          "duration": 0.18292675000000003
        },
        {
          "name": "E2",
          "midi": 40,
          "time": 59.268267,
          "velocity": 0.49606299212598426,
          "duration": 0.18292675000000003
        },
        {
          "name": "G2",
          "midi": 43,
          "time": 59.268267,
          "velocity": 0.49606299212598426,
          "duration": 0.18292675000000003
        },
        {
          "name": "E2",
          "midi": 40,
          "time": 59.45119375,
          "velocity": 0.6220472440944882,
          "duration": 0.18292675000000003
        },
        {
          "name": "G2",
          "midi": 43,
          "time": 59.45119375,
          "velocity": 0.6220472440944882,
          "duration": 0.18292675000000003
        },
        {
          "name": "E2",
          "midi": 40,
          "time": 59.6341205,
          "velocity": 0.6220472440944882,
          "duration": 0.18292675000000003
        },
        {
          "name": "G2",
          "midi": 43,
          "time": 59.6341205,
          "velocity": 0.6220472440944882,
          "duration": 0.18292675000000003
        },
        {
          "name": "E2",
          "midi": 40,
          "time": 59.81704725,
          "velocity": 0.7480314960629921,
          "duration": 0.18292675000000003
        },
        {
          "name": "G2",
          "midi": 43,
          "time": 59.81704725,
          "velocity": 0.7480314960629921,
          "duration": 0.18292675000000003
        },
        {
          "name": "E2",
          "midi": 40,
          "time": 59.999974,
          "velocity": 0.7480314960629921,
          "duration": 0.18292675000000003
        },
        {
          "name": "G2",
          "midi": 43,
          "time": 59.999974,
          "velocity": 0.7480314960629921,
          "duration": 0.18292675000000003
        },
        {
          "name": "E2",
          "midi": 40,
          "time": 60.18290075,
          "velocity": 0.7480314960629921,
          "duration": 0.18292675000000003
        },
        {
          "name": "G2",
          "midi": 43,
          "time": 60.18290075,
          "velocity": 0.7480314960629921,
          "duration": 0.18292675000000003
        },
        {
          "name": "E2",
          "midi": 40,
          "time": 60.3658275,
          "velocity": 0.7480314960629921,
          "duration": 0.18292675000000003
        },
        {
          "name": "G2",
          "midi": 43,
          "time": 60.3658275,
          "velocity": 0.7480314960629921,
          "duration": 0.18292675000000003
        },
        {
          "name": "E2",
          "midi": 40,
          "time": 60.54875425,
          "velocity": 0.7480314960629921,
          "duration": 0.18292675000000003
        },
        {
          "name": "G2",
          "midi": 43,
          "time": 60.54875425,
          "velocity": 0.7480314960629921,
          "duration": 0.18292675000000003
        },
        {
          "name": "E2",
          "midi": 40,
          "time": 60.731681,
          "velocity": 0.7480314960629921,
          "duration": 0.18292675000000003
        },
        {
          "name": "C2",
          "midi": 36,
          "time": 60.91460775,
          "velocity": 0.7480314960629921,
          "duration": 0.18292675000000003
        },
        {
          "name": "E2",
          "midi": 40,
          "time": 61.0975345,
          "velocity": 0.7480314960629921,
          "duration": 0.18292675000000003
        },
        {
          "name": "C2",
          "midi": 36,
          "time": 61.28046125,
          "velocity": 0.7480314960629921,
          "duration": 0.18292675000000003
        },
        {
          "name": "A3",
          "midi": 57,
          "time": 61.463388,
          "velocity": 0.7480314960629921,
          "duration": 0.18292675000000003
        },
        {
          "name": "C2",
          "midi": 36,
          "time": 61.463388,
          "velocity": 0.7480314960629921,
          "duration": 0.18292675000000003
        },
        {
          "name": "C2",
          "midi": 36,
          "time": 61.64631475,
          "velocity": 0.7480314960629921,
          "duration": 0.18292675000000003
        },
        {
          "name": "A3",
          "midi": 57,
          "time": 61.8292415,
          "velocity": 0.7480314960629921,
          "duration": 0.18292675000000003
        },
        {
          "name": "C2",
          "midi": 36,
          "time": 62.01216825,
          "velocity": 0.7480314960629921,
          "duration": 0.18292675000000003
        },
        {
          "name": "A3",
          "midi": 57,
          "time": 62.195095,
          "velocity": 0.7480314960629921,
          "duration": 0.18292675000000003
        },
        {
          "name": "E2",
          "midi": 40,
          "time": 62.195095,
          "velocity": 0.7480314960629921,
          "duration": 0.18292675000000003
        },
        {
          "name": "E2",
          "midi": 40,
          "time": 62.37802175,
          "velocity": 0.7480314960629921,
          "duration": 0.18292675000000003
        },
        {
          "name": "A3",
          "midi": 57,
          "time": 62.5609485,
          "velocity": 0.7480314960629921,
          "duration": 0.18292675000000003
        },
        {
          "name": "C2",
          "midi": 36,
          "time": 62.74387525,
          "velocity": 0.7480314960629921,
          "duration": 0.18292675000000003
        },
        {
          "name": "A3",
          "midi": 57,
          "time": 62.926802,
          "velocity": 0.7480314960629921,
          "duration": 0.18292675000000003
        },
        {
          "name": "C2",
          "midi": 36,
          "time": 62.926802,
          "velocity": 0.7480314960629921,
          "duration": 0.18292675000000003
        },
        {
          "name": "C2",
          "midi": 36,
          "time": 63.10972875,
          "velocity": 0.7480314960629921,
          "duration": 0.18292675000000003
        },
        {
          "name": "A3",
          "midi": 57,
          "time": 63.2926555,
          "velocity": 0.7480314960629921,
          "duration": 0.18292675000000003
        },
        {
          "name": "C2",
          "midi": 36,
          "time": 63.47558225,
          "velocity": 0.7480314960629921,
          "duration": 0.18292675000000003
        },
        {
          "name": "A3",
          "midi": 57,
          "time": 63.658509,
          "velocity": 0.7480314960629921,
          "duration": 0.18292675000000003
        },
        {
          "name": "E2",
          "midi": 40,
          "time": 63.658509,
          "velocity": 0.7480314960629921,
          "duration": 0.18292675000000003
        },
        {
          "name": "E2",
          "midi": 40,
          "time": 63.84143575,
          "velocity": 0.7480314960629921,
          "duration": 0.18292674999999292
        },
        {
          "name": "A3",
          "midi": 57,
          "time": 64.0243625,
          "velocity": 0.7480314960629921,
          "duration": 0.18292674999999292
        },
        {
          "name": "C2",
          "midi": 36,
          "time": 64.20728924999999,
          "velocity": 0.7480314960629921,
          "duration": 0.18292674999999292
        },
        {
          "name": "A3",
          "midi": 57,
          "time": 64.39021599999998,
          "velocity": 0.7480314960629921,
          "duration": 0.18292674999999292
        },
        {
          "name": "C2",
          "midi": 36,
          "time": 64.39021599999998,
          "velocity": 0.7480314960629921,
          "duration": 0.18292674999999292
        },
        {
          "name": "C2",
          "midi": 36,
          "time": 64.57314274999997,
          "velocity": 0.7480314960629921,
          "duration": 0.18292674999999292
        },
        {
          "name": "A3",
          "midi": 57,
          "time": 64.75606949999997,
          "velocity": 0.7480314960629921,
          "duration": 0.18292674999999292
        },
        {
          "name": "C2",
          "midi": 36,
          "time": 64.93899624999996,
          "velocity": 0.7480314960629921,
          "duration": 0.18292674999999292
        },
        {
          "name": "A3",
          "midi": 57,
          "time": 65.12192299999995,
          "velocity": 0.7480314960629921,
          "duration": 0.18292674999999292
        },
        {
          "name": "E2",
          "midi": 40,
          "time": 65.12192299999995,
          "velocity": 0.7480314960629921,
          "duration": 0.18292674999999292
        },
        {
          "name": "E2",
          "midi": 40,
          "time": 65.30484974999995,
          "velocity": 0.7480314960629921,
          "duration": 0.18292674999999292
        },
        {
          "name": "A3",
          "midi": 57,
          "time": 65.48777649999994,
          "velocity": 0.7480314960629921,
          "duration": 0.18292674999999292
        },
        {
          "name": "C2",
          "midi": 36,
          "time": 65.67070324999993,
          "velocity": 0.7480314960629921,
          "duration": 0.18292674999999292
        },
        {
          "name": "A3",
          "midi": 57,
          "time": 65.85362999999992,
          "velocity": 0.7480314960629921,
          "duration": 0.18292674999999292
        },
        {
          "name": "C2",
          "midi": 36,
          "time": 65.85362999999992,
          "velocity": 0.7480314960629921,
          "duration": 0.18292674999999292
        },
        {
          "name": "C2",
          "midi": 36,
          "time": 66.03655674999992,
          "velocity": 0.7480314960629921,
          "duration": 0.18292674999999292
        },
        {
          "name": "A3",
          "midi": 57,
          "time": 66.21948349999991,
          "velocity": 0.7480314960629921,
          "duration": 0.18292674999999292
        },
        {
          "name": "C2",
          "midi": 36,
          "time": 66.4024102499999,
          "velocity": 0.7480314960629921,
          "duration": 0.18292674999999292
        },
        {
          "name": "A3",
          "midi": 57,
          "time": 66.5853369999999,
          "velocity": 0.7480314960629921,
          "duration": 0.18292674999999292
        },
        {
          "name": "E2",
          "midi": 40,
          "time": 66.5853369999999,
          "velocity": 0.7480314960629921,
          "duration": 0.18292674999999292
        },
        {
          "name": "E2",
          "midi": 40,
          "time": 66.76826374999989,
          "velocity": 0.7480314960629921,
          "duration": 0.18292674999999292
        },
        {
          "name": "A3",
          "midi": 57,
          "time": 66.95119049999988,
          "velocity": 0.7480314960629921,
          "duration": 0.18292674999999292
        },
        {
          "name": "C2",
          "midi": 36,
          "time": 67.13411724999987,
          "velocity": 0.7480314960629921,
          "duration": 0.18292674999999292
        },
        {
          "name": "A#2",
          "midi": 46,
          "time": 67.31704399999987,
          "velocity": 1,
          "duration": 0.18292674999999292
        },
        {
          "name": "C2",
          "midi": 36,
          "time": 67.31704399999987,
          "velocity": 0.7480314960629921,
          "duration": 0.18292674999999292
        },
        {
          "name": "C2",
          "midi": 36,
          "time": 67.49997074999986,
          "velocity": 0.7480314960629921,
          "duration": 0.18292674999999292
        },
        {
          "name": "A3",
          "midi": 57,
          "time": 67.68289749999985,
          "velocity": 0.7480314960629921,
          "duration": 0.18292674999999292
        },
        {
          "name": "C2",
          "midi": 36,
          "time": 67.86582424999985,
          "velocity": 0.7480314960629921,
          "duration": 0.18292674999999292
        },
        {
          "name": "A3",
          "midi": 57,
          "time": 68.04875099999984,
          "velocity": 0.7480314960629921,
          "duration": 0.18292674999999292
        },
        {
          "name": "E2",
          "midi": 40,
          "time": 68.04875099999984,
          "velocity": 0.7480314960629921,
          "duration": 0.18292674999999292
        },
        {
          "name": "E2",
          "midi": 40,
          "time": 68.23167774999983,
          "velocity": 0.7480314960629921,
          "duration": 0.18292674999999292
        },
        {
          "name": "A3",
          "midi": 57,
          "time": 68.41460449999983,
          "velocity": 0.7480314960629921,
          "duration": 0.18292674999999292
        },
        {
          "name": "C2",
          "midi": 36,
          "time": 68.59753124999982,
          "velocity": 0.7480314960629921,
          "duration": 0.18292674999999292
        },
        {
          "name": "A3",
          "midi": 57,
          "time": 68.78045799999981,
          "velocity": 0.7480314960629921,
          "duration": 0.18292674999999292
        },
        {
          "name": "C2",
          "midi": 36,
          "time": 68.78045799999981,
          "velocity": 0.7480314960629921,
          "duration": 0.18292674999999292
        },
        {
          "name": "C2",
          "midi": 36,
          "time": 68.9633847499998,
          "velocity": 0.7480314960629921,
          "duration": 0.18292674999999292
        },
        {
          "name": "A3",
          "midi": 57,
          "time": 69.1463114999998,
          "velocity": 0.7480314960629921,
          "duration": 0.18292674999999292
        },
        {
          "name": "C2",
          "midi": 36,
          "time": 69.32923824999979,
          "velocity": 0.7480314960629921,
          "duration": 0.18292674999999292
        },
        {
          "name": "A3",
          "midi": 57,
          "time": 69.51216499999978,
          "velocity": 0.7480314960629921,
          "duration": 0.18292674999999292
        },
        {
          "name": "E2",
          "midi": 40,
          "time": 69.51216499999978,
          "velocity": 0.7480314960629921,
          "duration": 0.18292674999999292
        },
        {
          "name": "E2",
          "midi": 40,
          "time": 69.69509174999978,
          "velocity": 0.7480314960629921,
          "duration": 0.18292674999999292
        },
        {
          "name": "A3",
          "midi": 57,
          "time": 69.87801849999977,
          "velocity": 0.7480314960629921,
          "duration": 0.18292674999999292
        },
        {
          "name": "C2",
          "midi": 36,
          "time": 70.06094524999976,
          "velocity": 0.7480314960629921,
          "duration": 0.18292674999999292
        },
        {
          "name": "A3",
          "midi": 57,
          "time": 70.24387199999975,
          "velocity": 0.7480314960629921,
          "duration": 0.18292674999999292
        },
        {
          "name": "C2",
          "midi": 36,
          "time": 70.24387199999975,
          "velocity": 0.7480314960629921,
          "duration": 0.18292674999999292
        },
        {
          "name": "C2",
          "midi": 36,
          "time": 70.42679874999975,
          "velocity": 0.7480314960629921,
          "duration": 0.18292674999999292
        },
        {
          "name": "A3",
          "midi": 57,
          "time": 70.60972549999974,
          "velocity": 0.7480314960629921,
          "duration": 0.18292674999999292
        },
        {
          "name": "C2",
          "midi": 36,
          "time": 70.79265224999973,
          "velocity": 0.7480314960629921,
          "duration": 0.18292674999999292
        },
        {
          "name": "A3",
          "midi": 57,
          "time": 70.97557899999973,
          "velocity": 0.7480314960629921,
          "duration": 0.18292674999999292
        },
        {
          "name": "E2",
          "midi": 40,
          "time": 70.97557899999973,
          "velocity": 0.7480314960629921,
          "duration": 0.18292674999999292
        },
        {
          "name": "E2",
          "midi": 40,
          "time": 71.15850574999972,
          "velocity": 0.7480314960629921,
          "duration": 0.18292674999999292
        },
        {
          "name": "A3",
          "midi": 57,
          "time": 71.34143249999971,
          "velocity": 0.7480314960629921,
          "duration": 0.18292674999999292
        },
        {
          "name": "C2",
          "midi": 36,
          "time": 71.5243592499997,
          "velocity": 0.7480314960629921,
          "duration": 0.18292674999999292
        },
        {
          "name": "A3",
          "midi": 57,
          "time": 71.7072859999997,
          "velocity": 0.7480314960629921,
          "duration": 0.18292674999999292
        },
        {
          "name": "C2",
          "midi": 36,
          "time": 71.7072859999997,
          "velocity": 0.7480314960629921,
          "duration": 0.18292674999999292
        },
        {
          "name": "C2",
          "midi": 36,
          "time": 71.89021274999969,
          "velocity": 0.7480314960629921,
          "duration": 0.18292674999999292
        },
        {
          "name": "A3",
          "midi": 57,
          "time": 72.07313949999968,
          "velocity": 0.7480314960629921,
          "duration": 0.18292674999999292
        },
        {
          "name": "C2",
          "midi": 36,
          "time": 72.25606624999968,
          "velocity": 0.7480314960629921,
          "duration": 0.18292674999999292
        },
        {
          "name": "E2",
          "midi": 40,
          "time": 72.43899299999967,
          "velocity": 0.7480314960629921,
          "duration": 0.18292674999999292
        },
        {
          "name": "C2",
          "midi": 36,
          "time": 72.62191974999966,
          "velocity": 0.7480314960629921,
          "duration": 0.18292674999999292
        },
        {
          "name": "E2",
          "midi": 40,
          "time": 72.80484649999966,
          "velocity": 0.7480314960629921,
          "duration": 0.18292674999999292
        },
        {
          "name": "C2",
          "midi": 36,
          "time": 72.98777324999965,
          "velocity": 0.7480314960629921,
          "duration": 0.18292674999999292
        },
        {
          "name": "A3",
          "midi": 57,
          "time": 73.17069999999964,
          "velocity": 0.7480314960629921,
          "duration": 0.18292674999999292
        },
        {
          "name": "C2",
          "midi": 36,
          "time": 73.17069999999964,
          "velocity": 0.7480314960629921,
          "duration": 0.18292674999999292
        },
        {
          "name": "C2",
          "midi": 36,
          "time": 73.35362674999963,
          "velocity": 0.7480314960629921,
          "duration": 0.18292674999999292
        },
        {
          "name": "A3",
          "midi": 57,
          "time": 73.53655349999963,
          "velocity": 0.7480314960629921,
          "duration": 0.18292674999999292
        },
        {
          "name": "C2",
          "midi": 36,
          "time": 73.53655349999963,
          "velocity": 0.7480314960629921,
          "duration": 0.18292674999999292
        },
        {
          "name": "C2",
          "midi": 36,
          "time": 73.71948024999962,
          "velocity": 0.7480314960629921,
          "duration": 0.18292674999999292
        },
        {
          "name": "A#2",
          "midi": 46,
          "time": 73.90240699999961,
          "velocity": 1,
          "duration": 0.7317070000000001
        },
        {
          "name": "E2",
          "midi": 40,
          "time": 73.90240699999961,
          "velocity": 0.7480314960629921,
          "duration": 0.7317070000000001
        },
        {
          "name": "A3",
          "midi": 57,
          "time": 74.63411399999961,
          "velocity": 0.7480314960629921,
          "duration": 0.18292674999999292
        },
        {
          "name": "C2",
          "midi": 36,
          "time": 74.63411399999961,
          "velocity": 0.7480314960629921,
          "duration": 0.18292674999999292
        },
        {
          "name": "C2",
          "midi": 36,
          "time": 74.8170407499996,
          "velocity": 0.7480314960629921,
          "duration": 0.18292674999999292
        },
        {
          "name": "A3",
          "midi": 57,
          "time": 74.9999674999996,
          "velocity": 0.7480314960629921,
          "duration": 0.18292674999999292
        },
        {
          "name": "C2",
          "midi": 36,
          "time": 74.9999674999996,
          "velocity": 0.7480314960629921,
          "duration": 0.18292674999999292
        },
        {
          "name": "C2",
          "midi": 36,
          "time": 75.18289424999959,
          "velocity": 0.7480314960629921,
          "duration": 0.18292674999999292
        },
        {
          "name": "A#2",
          "midi": 46,
          "time": 75.36582099999958,
          "velocity": 1,
          "duration": 0.7317070000000001
        },
        {
          "name": "E2",
          "midi": 40,
          "time": 75.36582099999958,
          "velocity": 0.7480314960629921,
          "duration": 0.7317070000000001
        },
        {
          "name": "A3",
          "midi": 57,
          "time": 76.09752799999958,
          "velocity": 0.7480314960629921,
          "duration": 0.18292674999999292
        },
        {
          "name": "C2",
          "midi": 36,
          "time": 76.09752799999958,
          "velocity": 0.7480314960629921,
          "duration": 0.18292674999999292
        },
        {
          "name": "C2",
          "midi": 36,
          "time": 76.28045474999958,
          "velocity": 0.7480314960629921,
          "duration": 0.18292674999999292
        },
        {
          "name": "A3",
          "midi": 57,
          "time": 76.46338149999957,
          "velocity": 0.7480314960629921,
          "duration": 0.18292674999999292
        },
        {
          "name": "C2",
          "midi": 36,
          "time": 76.46338149999957,
          "velocity": 0.7480314960629921,
          "duration": 0.18292674999999292
        },
        {
          "name": "C2",
          "midi": 36,
          "time": 76.64630824999956,
          "velocity": 0.7480314960629921,
          "duration": 0.18292674999999292
        },
        {
          "name": "A#2",
          "midi": 46,
          "time": 76.82923499999956,
          "velocity": 1,
          "duration": 0.7317070000000001
        },
        {
          "name": "E2",
          "midi": 40,
          "time": 76.82923499999956,
          "velocity": 0.7480314960629921,
          "duration": 0.7317070000000001
        },
        {
          "name": "A3",
          "midi": 57,
          "time": 77.56094199999956,
          "velocity": 0.7480314960629921,
          "duration": 0.18292674999999292
        },
        {
          "name": "C2",
          "midi": 36,
          "time": 77.56094199999956,
          "velocity": 0.7480314960629921,
          "duration": 0.18292674999999292
        },
        {
          "name": "C2",
          "midi": 36,
          "time": 77.74386874999955,
          "velocity": 0.7480314960629921,
          "duration": 0.18292674999999292
        },
        {
          "name": "A3",
          "midi": 57,
          "time": 77.92679549999954,
          "velocity": 0.7480314960629921,
          "duration": 0.18292674999999292
        },
        {
          "name": "C2",
          "midi": 36,
          "time": 77.92679549999954,
          "velocity": 0.7480314960629921,
          "duration": 0.18292674999999292
        },
        {
          "name": "C2",
          "midi": 36,
          "time": 78.10972224999954,
          "velocity": 0.7480314960629921,
          "duration": 0.18292674999999292
        },
        {
          "name": "E2",
          "midi": 40,
          "time": 78.29264899999953,
          "velocity": 0.7480314960629921,
          "duration": 0.18292674999999292
        },
        {
          "name": "C2",
          "midi": 36,
          "time": 78.47557574999952,
          "velocity": 0.7480314960629921,
          "duration": 0.18292674999999292
        },
        {
          "name": "E2",
          "midi": 40,
          "time": 78.65850249999951,
          "velocity": 0.7480314960629921,
          "duration": 0.18292674999999292
        },
        {
          "name": "C2",
          "midi": 36,
          "time": 78.8414292499995,
          "velocity": 0.7480314960629921,
          "duration": 0.18292674999999292
        },
        {
          "name": "A3",
          "midi": 57,
          "time": 79.0243559999995,
          "velocity": 0.7480314960629921,
          "duration": 0.18292674999999292
        },
        {
          "name": "C2",
          "midi": 36,
          "time": 79.0243559999995,
          "velocity": 0.7480314960629921,
          "duration": 0.18292674999999292
        },
        {
          "name": "C2",
          "midi": 36,
          "time": 79.2072827499995,
          "velocity": 0.7480314960629921,
          "duration": 0.18292674999999292
        },
        {
          "name": "A3",
          "midi": 57,
          "time": 79.39020949999949,
          "velocity": 0.7480314960629921,
          "duration": 0.18292674999999292
        },
        {
          "name": "C2",
          "midi": 36,
          "time": 79.39020949999949,
          "velocity": 0.7480314960629921,
          "duration": 0.18292674999999292
        },
        {
          "name": "C2",
          "midi": 36,
          "time": 79.57313624999948,
          "velocity": 0.7480314960629921,
          "duration": 0.18292674999999292
        },
        {
          "name": "A#2",
          "midi": 46,
          "time": 79.75606299999947,
          "velocity": 1,
          "duration": 0.7317070000000001
        },
        {
          "name": "E2",
          "midi": 40,
          "time": 79.75606299999947,
          "velocity": 0.7480314960629921,
          "duration": 0.7317070000000001
        },
        {
          "name": "A3",
          "midi": 57,
          "time": 80.48776999999947,
          "velocity": 0.7480314960629921,
          "duration": 0.18292674999999292
        },
        {
          "name": "C2",
          "midi": 36,
          "time": 80.48776999999947,
          "velocity": 0.7480314960629921,
          "duration": 0.18292674999999292
        },
        {
          "name": "C2",
          "midi": 36,
          "time": 80.67069674999946,
          "velocity": 0.7480314960629921,
          "duration": 0.18292674999999292
        },
        {
          "name": "A3",
          "midi": 57,
          "time": 80.85362349999946,
          "velocity": 0.7480314960629921,
          "duration": 0.18292674999999292
        },
        {
          "name": "C2",
          "midi": 36,
          "time": 80.85362349999946,
          "velocity": 0.7480314960629921,
          "duration": 0.18292674999999292
        },
        {
          "name": "C2",
          "midi": 36,
          "time": 81.03655024999945,
          "velocity": 0.7480314960629921,
          "duration": 0.18292674999999292
        },
        {
          "name": "A#2",
          "midi": 46,
          "time": 81.21947699999944,
          "velocity": 1,
          "duration": 0.7317070000000001
        },
        {
          "name": "E2",
          "midi": 40,
          "time": 81.21947699999944,
          "velocity": 0.7480314960629921,
          "duration": 0.7317070000000001
        },
        {
          "name": "A3",
          "midi": 57,
          "time": 81.95118399999944,
          "velocity": 0.7480314960629921,
          "duration": 0.18292674999999292
        },
        {
          "name": "C2",
          "midi": 36,
          "time": 81.95118399999944,
          "velocity": 0.7480314960629921,
          "duration": 0.18292674999999292
        },
        {
          "name": "C2",
          "midi": 36,
          "time": 82.13411074999944,
          "velocity": 0.7480314960629921,
          "duration": 0.18292674999999292
        },
        {
          "name": "A3",
          "midi": 57,
          "time": 82.31703749999943,
          "velocity": 0.7480314960629921,
          "duration": 0.18292674999999292
        },
        {
          "name": "C2",
          "midi": 36,
          "time": 82.31703749999943,
          "velocity": 0.7480314960629921,
          "duration": 0.18292674999999292
        },
        {
          "name": "C2",
          "midi": 36,
          "time": 82.49996424999942,
          "velocity": 0.7480314960629921,
          "duration": 0.18292674999999292
        },
        {
          "name": "A#2",
          "midi": 46,
          "time": 82.68289099999942,
          "velocity": 0.7480314960629921,
          "duration": 0.18292674999999292
        },
        {
          "name": "E2",
          "midi": 40,
          "time": 82.68289099999942,
          "velocity": 0.7480314960629921,
          "duration": 0.18292674999999292
        },
        {
          "name": "A#2",
          "midi": 46,
          "time": 83.0487444999994,
          "velocity": 0.7480314960629921,
          "duration": 0.18292674999999292
        },
        {
          "name": "E2",
          "midi": 40,
          "time": 83.0487444999994,
          "velocity": 0.7480314960629921,
          "duration": 0.18292674999999292
        },
        {
          "name": "A#2",
          "midi": 46,
          "time": 83.41459799999939,
          "velocity": 0.7480314960629921,
          "duration": 0.18292674999999292
        },
        {
          "name": "C2",
          "midi": 36,
          "time": 83.41459799999939,
          "velocity": 0.7480314960629921,
          "duration": 0.18292674999999292
        },
        {
          "name": "E2",
          "midi": 40,
          "time": 83.59752474999938,
          "velocity": 0.7480314960629921,
          "duration": 0.18292674999999292
        },
        {
          "name": "A#2",
          "midi": 46,
          "time": 83.78045149999937,
          "velocity": 0.7480314960629921,
          "duration": 0.18292674999999292
        },
        {
          "name": "C2",
          "midi": 36,
          "time": 83.96337824999937,
          "velocity": 0.7480314960629921,
          "duration": 0.18292674999999292
        },
        {
          "name": "A#2",
          "midi": 46,
          "time": 84.14630499999936,
          "velocity": 0.7480314960629921,
          "duration": 0.18292674999999292
        },
        {
          "name": "E2",
          "midi": 40,
          "time": 84.14630499999936,
          "velocity": 0.7480314960629921,
          "duration": 0.18292674999999292
        },
        {
          "name": "C2",
          "midi": 36,
          "time": 84.32923174999935,
          "velocity": 0.7480314960629921,
          "duration": 0.18292674999999292
        },
        {
          "name": "A#2",
          "midi": 46,
          "time": 84.51215849999934,
          "velocity": 0.7480314960629921,
          "duration": 0.18292674999999292
        },
        {
          "name": "C2",
          "midi": 36,
          "time": 84.51215849999934,
          "velocity": 0.7480314960629921,
          "duration": 0.18292674999999292
        },
        {
          "name": "A3",
          "midi": 57,
          "time": 84.87801199999933,
          "velocity": 0.7480314960629921,
          "duration": 0.18292674999999292
        },
        {
          "name": "A2",
          "midi": 45,
          "time": 85.06093874999932,
          "velocity": 0.7480314960629921,
          "duration": 0.18292674999999292
        },
        {
          "name": "B2",
          "midi": 47,
          "time": 85.24386549999932,
          "velocity": 0.7480314960629921,
          "duration": 0.18292674999999292
        },
        {
          "name": "A2",
          "midi": 45,
          "time": 85.42679224999931,
          "velocity": 0.7480314960629921,
          "duration": 0.18292674999999292
        },
        {
          "name": "E2",
          "midi": 40,
          "time": 85.6097189999993,
          "velocity": 0.7480314960629921,
          "duration": 0.18292674999999292
        },
        {
          "name": "A2",
          "midi": 45,
          "time": 85.7926457499993,
          "velocity": 0.7480314960629921,
          "duration": 0.18292674999999292
        },
        {
          "name": "A2",
          "midi": 45,
          "time": 85.97557249999929,
          "velocity": 0.7480314960629921,
          "duration": 0.18292674999999292
        },
        {
          "name": "B2",
          "midi": 47,
          "time": 86.15849924999928,
          "velocity": 0.7480314960629921,
          "duration": 0.09146337500000357
        },
        {
          "name": "A2",
          "midi": 45,
          "time": 86.24996262499928,
          "velocity": 0.7480314960629921,
          "duration": 0.09146337500000357
        },
        {
          "name": "A2",
          "midi": 45,
          "time": 86.34142599999929,
          "velocity": 0.7480314960629921,
          "duration": 0.18292674999999292
        },
        {
          "name": "A2",
          "midi": 45,
          "time": 86.52435274999928,
          "velocity": 0.7480314960629921,
          "duration": 0.18292674999999292
        },
        {
          "name": "A2",
          "midi": 45,
          "time": 86.70727949999927,
          "velocity": 0.7480314960629921,
          "duration": 0.18292674999999292
        },
        {
          "name": "A2",
          "midi": 45,
          "time": 86.89020624999927,
          "velocity": 0.7480314960629921,
          "duration": 0.18292674999999292
        },
        {
          "name": "E2",
          "midi": 40,
          "time": 87.07313299999926,
          "velocity": 0.7480314960629921,
          "duration": 0.18292674999999292
        },
        {
          "name": "A#2",
          "midi": 46,
          "time": 87.25605974999925,
          "velocity": 0.7480314960629921,
          "duration": 0.36585350000000005
        },
        {
          "name": "G#2",
          "midi": 44,
          "time": 87.62191324999925,
          "velocity": 0.7480314960629921,
          "duration": 0.18292674999999292
        },
        {
          "name": "B2",
          "midi": 47,
          "time": 87.80483999999925,
          "velocity": 0.7480314960629921,
          "duration": 0.18292674999999292
        },
        {
          "name": "A2",
          "midi": 45,
          "time": 87.98776674999924,
          "velocity": 0.7480314960629921,
          "duration": 0.18292674999999292
        },
        {
          "name": "B2",
          "midi": 47,
          "time": 88.17069349999923,
          "velocity": 0.7480314960629921,
          "duration": 0.18292674999999292
        },
        {
          "name": "A2",
          "midi": 45,
          "time": 88.35362024999922,
          "velocity": 0.7480314960629921,
          "duration": 0.18292674999999292
        },
        {
          "name": "E2",
          "midi": 40,
          "time": 88.53654699999922,
          "velocity": 0.7480314960629921,
          "duration": 0.18292674999999292
        },
        {
          "name": "B2",
          "midi": 47,
          "time": 88.71947374999921,
          "velocity": 0.7480314960629921,
          "duration": 0.18292674999999292
        },
        {
          "name": "A2",
          "midi": 45,
          "time": 88.9024004999992,
          "velocity": 0.7480314960629921,
          "duration": 0.18292674999999292
        },
        {
          "name": "B2",
          "midi": 47,
          "time": 89.0853272499992,
          "velocity": 0.7480314960629921,
          "duration": 0.09146337500000357
        },
        {
          "name": "A2",
          "midi": 45,
          "time": 89.1767906249992,
          "velocity": 0.7480314960629921,
          "duration": 0.09146337500000357
        },
        {
          "name": "B2",
          "midi": 47,
          "time": 89.2682539999992,
          "velocity": 0.7480314960629921,
          "duration": 0.18292674999999292
        },
        {
          "name": "B2",
          "midi": 47,
          "time": 89.4511807499992,
          "velocity": 0.7480314960629921,
          "duration": 0.09146337500000357
        },
        {
          "name": "A2",
          "midi": 45,
          "time": 89.5426441249992,
          "velocity": 0.7480314960629921,
          "duration": 0.09146337500000357
        },
        {
          "name": "A2",
          "midi": 45,
          "time": 89.6341074999992,
          "velocity": 0.7480314960629921,
          "duration": 0.18292674999999292
        },
        {
          "name": "A2",
          "midi": 45,
          "time": 89.8170342499992,
          "velocity": 0.7480314960629921,
          "duration": 0.18292674999999292
        },
        {
          "name": "E2",
          "midi": 40,
          "time": 89.99996099999919,
          "velocity": 0.7480314960629921,
          "duration": 0.18292674999999292
        },
        {
          "name": "A#2",
          "midi": 46,
          "time": 90.18288774999918,
          "velocity": 0.7480314960629921,
          "duration": 0.36585350000000005
        },
        {
          "name": "G#2",
          "midi": 44,
          "time": 90.54874124999918,
          "velocity": 0.7480314960629921,
          "duration": 0.18292674999999292
        },
        {
          "name": "B2",
          "midi": 47,
          "time": 90.73166799999917,
          "velocity": 0.7480314960629921,
          "duration": 0.18292674999999292
        },
        {
          "name": "A2",
          "midi": 45,
          "time": 90.91459474999917,
          "velocity": 0.7480314960629921,
          "duration": 0.18292674999999292
        },
        {
          "name": "B2",
          "midi": 47,
          "time": 91.09752149999916,
          "velocity": 0.7480314960629921,
          "duration": 0.18292674999999292
        },
        {
          "name": "A2",
          "midi": 45,
          "time": 91.28044824999915,
          "velocity": 0.7480314960629921,
          "duration": 0.18292674999999292
        },
        {
          "name": "E2",
          "midi": 40,
          "time": 91.46337499999915,
          "velocity": 0.7480314960629921,
          "duration": 0.18292674999999292
        },
        {
          "name": "A2",
          "midi": 45,
          "time": 91.64630174999914,
          "velocity": 0.7480314960629921,
          "duration": 0.18292674999999292
        },
        {
          "name": "A2",
          "midi": 45,
          "time": 91.82922849999913,
          "velocity": 0.7480314960629921,
          "duration": 0.18292674999999292
        },
        {
          "name": "B2",
          "midi": 47,
          "time": 92.01215524999913,
          "velocity": 0.7480314960629921,
          "duration": 0.09146337500000357
        },
        {
          "name": "A2",
          "midi": 45,
          "time": 92.10361862499913,
          "velocity": 0.7480314960629921,
          "duration": 0.09146337500000357
        },
        {
          "name": "A2",
          "midi": 45,
          "time": 92.19508199999913,
          "velocity": 0.7480314960629921,
          "duration": 0.18292674999999292
        },
        {
          "name": "A2",
          "midi": 45,
          "time": 92.37800874999913,
          "velocity": 0.7480314960629921,
          "duration": 0.18292674999999292
        },
        {
          "name": "A2",
          "midi": 45,
          "time": 92.56093549999912,
          "velocity": 0.7480314960629921,
          "duration": 0.18292674999999292
        },
        {
          "name": "A2",
          "midi": 45,
          "time": 92.74386224999911,
          "velocity": 0.7480314960629921,
          "duration": 0.18292674999999292
        },
        {
          "name": "E2",
          "midi": 40,
          "time": 92.9267889999991,
          "velocity": 0.7480314960629921,
          "duration": 0.18292674999999292
        },
        {
          "name": "A#2",
          "midi": 46,
          "time": 93.1097157499991,
          "velocity": 0.7480314960629921,
          "duration": 0.548780249999993
        },
        {
          "name": "B2",
          "midi": 47,
          "time": 93.65849599999909,
          "velocity": 0.7480314960629921,
          "duration": 0.18292674999999292
        },
        {
          "name": "A2",
          "midi": 45,
          "time": 93.84142274999908,
          "velocity": 0.7480314960629921,
          "duration": 0.18292674999999292
        },
        {
          "name": "G2",
          "midi": 43,
          "time": 94.02434949999908,
          "velocity": 0.7480314960629921,
          "duration": 0.18292674999999292
        },
        {
          "name": "A2",
          "midi": 45,
          "time": 94.20727624999907,
          "velocity": 0.7480314960629921,
          "duration": 0.18292674999999292
        },
        {
          "name": "A#2",
          "midi": 46,
          "time": 94.39020299999906,
          "velocity": 0.7480314960629921,
          "duration": 0.18292674999999292
        },
        {
          "name": "E2",
          "midi": 40,
          "time": 94.39020299999906,
          "velocity": 0.7480314960629921,
          "duration": 0.18292674999999292
        },
        {
          "name": "B2",
          "midi": 47,
          "time": 94.57312974999905,
          "velocity": 0.7480314960629921,
          "duration": 0.18292674999999292
        },
        {
          "name": "A2",
          "midi": 45,
          "time": 94.75605649999905,
          "velocity": 0.7480314960629921,
          "duration": 0.18292674999999292
        },
        {
          "name": "G2",
          "midi": 43,
          "time": 94.93898324999904,
          "velocity": 0.7480314960629921,
          "duration": 0.18292674999999292
        },
        {
          "name": "A2",
          "midi": 45,
          "time": 95.12190999999903,
          "velocity": 0.7480314960629921,
          "duration": 0.18292674999999292
        },
        {
          "name": "A#2",
          "midi": 46,
          "time": 95.30483674999903,
          "velocity": 0.7480314960629921,
          "duration": 0.18292674999999292
        },
        {
          "name": "E2",
          "midi": 40,
          "time": 95.30483674999903,
          "velocity": 0.7480314960629921,
          "duration": 0.18292674999999292
        },
        {
          "name": "E2",
          "midi": 40,
          "time": 95.67069024999901,
          "velocity": 0.7480314960629921,
          "duration": 0.09146337500000357
        },
        {
          "name": "E2",
          "midi": 40,
          "time": 95.76215362499902,
          "velocity": 0.7480314960629921,
          "duration": 0.09146337500000357
        },
        {
          "name": "E2",
          "midi": 40,
          "time": 95.85361699999902,
          "velocity": 0.7480314960629921,
          "duration": 0.18292674999999292
        },
        {
          "name": "B2",
          "midi": 47,
          "time": 96.03654374999901,
          "velocity": 0.7480314960629921,
          "duration": 0.18292674999999292
        },
        {
          "name": "A2",
          "midi": 45,
          "time": 96.219470499999,
          "velocity": 0.7480314960629921,
          "duration": 0.18292674999999292
        },
        {
          "name": "G2",
          "midi": 43,
          "time": 96.402397249999,
          "velocity": 0.7480314960629921,
          "duration": 0.18292674999999292
        },
        {
          "name": "C#3",
          "midi": 49,
          "time": 96.58532399999899,
          "velocity": 0.7480314960629921,
          "duration": 0.18292674999999292
        },
        {
          "name": "C2",
          "midi": 36,
          "time": 96.58532399999899,
          "velocity": 0.7480314960629921,
          "duration": 0.18292674999999292
        },
        {
          "name": "C2",
          "midi": 36,
          "time": 96.76825074999898,
          "velocity": 0.7480314960629921,
          "duration": 0.18292674999999292
        },
        {
          "name": "F#2",
          "midi": 42,
          "time": 96.95117749999898,
          "velocity": 0.7480314960629921,
          "duration": 0.18292674999999292
        },
        {
          "name": "C2",
          "midi": 36,
          "time": 96.95117749999898,
          "velocity": 0.7480314960629921,
          "duration": 0.18292674999999292
        },
        {
          "name": "C2",
          "midi": 36,
          "time": 97.13410424999897,
          "velocity": 0.7480314960629921,
          "duration": 0.18292674999999292
        },
        {
          "name": "F#2",
          "midi": 42,
          "time": 97.31703099999896,
          "velocity": 0.7480314960629921,
          "duration": 0.18292674999999292
        },
        {
          "name": "E2",
          "midi": 40,
          "time": 97.31703099999896,
          "velocity": 0.7480314960629921,
          "duration": 0.18292674999999292
        },
        {
          "name": "F#2",
          "midi": 42,
          "time": 97.68288449999895,
          "velocity": 0.7480314960629921,
          "duration": 0.18292674999999292
        },
        {
          "name": "F#2",
          "midi": 42,
          "time": 98.04873799999893,
          "velocity": 0.7480314960629921,
          "duration": 0.18292674999999292
        },
        {
          "name": "C2",
          "midi": 36,
          "time": 98.04873799999893,
          "velocity": 0.7480314960629921,
          "duration": 0.18292674999999292
        },
        {
          "name": "C2",
          "midi": 36,
          "time": 98.23166474999893,
          "velocity": 0.7480314960629921,
          "duration": 0.18292674999999292
        },
        {
          "name": "F#2",
          "midi": 42,
          "time": 98.41459149999892,
          "velocity": 0.7480314960629921,
          "duration": 0.18292674999999292
        },
        {
          "name": "C2",
          "midi": 36,
          "time": 98.41459149999892,
          "velocity": 0.7480314960629921,
          "duration": 0.18292674999999292
        },
        {
          "name": "C2",
          "midi": 36,
          "time": 98.59751824999891,
          "velocity": 0.7480314960629921,
          "duration": 0.18292674999999292
        },
        {
          "name": "F#2",
          "midi": 42,
          "time": 98.7804449999989,
          "velocity": 0.7480314960629921,
          "duration": 0.18292674999999292
        },
        {
          "name": "E2",
          "midi": 40,
          "time": 98.7804449999989,
          "velocity": 0.7480314960629921,
          "duration": 0.18292674999999292
        },
        {
          "name": "C2",
          "midi": 36,
          "time": 98.9633717499989,
          "velocity": 0.7480314960629921,
          "duration": 0.18292674999999292
        },
        {
          "name": "F#2",
          "midi": 42,
          "time": 99.14629849999889,
          "velocity": 0.7480314960629921,
          "duration": 0.18292674999999292
        },
        {
          "name": "F#2",
          "midi": 42,
          "time": 99.51215199999888,
          "velocity": 0.7480314960629921,
          "duration": 0.18292674999999292
        },
        {
          "name": "C2",
          "midi": 36,
          "time": 99.51215199999888,
          "velocity": 0.7480314960629921,
          "duration": 0.18292674999999292
        },
        {
          "name": "C2",
          "midi": 36,
          "time": 99.69507874999887,
          "velocity": 0.7480314960629921,
          "duration": 0.18292674999999292
        },
        {
          "name": "F#2",
          "midi": 42,
          "time": 99.87800549999886,
          "velocity": 0.7480314960629921,
          "duration": 0.18292674999999292
        },
        {
          "name": "C2",
          "midi": 36,
          "time": 99.87800549999886,
          "velocity": 0.7480314960629921,
          "duration": 0.18292674999999292
        },
        {
          "name": "C2",
          "midi": 36,
          "time": 100.06093224999886,
          "velocity": 0.7480314960629921,
          "duration": 0.18292674999999292
        },
        {
          "name": "F#2",
          "midi": 42,
          "time": 100.24385899999885,
          "velocity": 0.7480314960629921,
          "duration": 0.18292674999999292
        },
        {
          "name": "E2",
          "midi": 40,
          "time": 100.24385899999885,
          "velocity": 0.7480314960629921,
          "duration": 0.18292674999999292
        },
        {
          "name": "F#2",
          "midi": 42,
          "time": 100.60971249999884,
          "velocity": 0.7480314960629921,
          "duration": 0.18292674999999292
        },
        {
          "name": "F#2",
          "midi": 42,
          "time": 100.97556599999882,
          "velocity": 0.7480314960629921,
          "duration": 0.18292674999999292
        },
        {
          "name": "C2",
          "midi": 36,
          "time": 100.97556599999882,
          "velocity": 0.7480314960629921,
          "duration": 0.18292674999999292
        },
        {
          "name": "C2",
          "midi": 36,
          "time": 101.15849274999881,
          "velocity": 0.7480314960629921,
          "duration": 0.18292674999999292
        },
        {
          "name": "F#2",
          "midi": 42,
          "time": 101.3414194999988,
          "velocity": 0.7480314960629921,
          "duration": 0.18292674999999292
        },
        {
          "name": "C2",
          "midi": 36,
          "time": 101.3414194999988,
          "velocity": 0.7480314960629921,
          "duration": 0.18292674999999292
        },
        {
          "name": "C2",
          "midi": 36,
          "time": 101.5243462499988,
          "velocity": 0.7480314960629921,
          "duration": 0.18292674999999292
        },
        {
          "name": "F#2",
          "midi": 42,
          "time": 101.70727299999879,
          "velocity": 0.7480314960629921,
          "duration": 0.18292674999999292
        },
        {
          "name": "E2",
          "midi": 40,
          "time": 101.70727299999879,
          "velocity": 0.7480314960629921,
          "duration": 0.18292674999999292
        },
        {
          "name": "C2",
          "midi": 36,
          "time": 101.89019974999879,
          "velocity": 0.7480314960629921,
          "duration": 0.18292674999999292
        },
        {
          "name": "F#2",
          "midi": 42,
          "time": 102.07312649999878,
          "velocity": 0.7480314960629921,
          "duration": 0.18292674999999292
        },
        {
          "name": "E2",
          "midi": 40,
          "time": 102.25605324999877,
          "velocity": 0.7480314960629921,
          "duration": 0.18292674999999292
        },
        {
          "name": "F#2",
          "midi": 42,
          "time": 102.43897999999876,
          "velocity": 0.7480314960629921,
          "duration": 0.18292674999999292
        },
        {
          "name": "C2",
          "midi": 36,
          "time": 102.43897999999876,
          "velocity": 0.7480314960629921,
          "duration": 0.18292674999999292
        },
        {
          "name": "C2",
          "midi": 36,
          "time": 102.62190674999876,
          "velocity": 0.7480314960629921,
          "duration": 0.18292674999999292
        },
        {
          "name": "F#2",
          "midi": 42,
          "time": 102.80483349999875,
          "velocity": 0.7480314960629921,
          "duration": 0.18292674999999292
        },
        {
          "name": "C2",
          "midi": 36,
          "time": 102.80483349999875,
          "velocity": 0.7480314960629921,
          "duration": 0.18292674999999292
        },
        {
          "name": "C2",
          "midi": 36,
          "time": 102.98776024999874,
          "velocity": 0.7480314960629921,
          "duration": 0.18292674999999292
        },
        {
          "name": "F#2",
          "midi": 42,
          "time": 103.17068699999874,
          "velocity": 0.7480314960629921,
          "duration": 0.18292674999999292
        },
        {
          "name": "E2",
          "midi": 40,
          "time": 103.17068699999874,
          "velocity": 0.7480314960629921,
          "duration": 0.18292674999999292
        },
        {
          "name": "F#2",
          "midi": 42,
          "time": 103.53654049999872,
          "velocity": 0.7480314960629921,
          "duration": 0.18292674999999292
        },
        {
          "name": "F#2",
          "midi": 42,
          "time": 103.90239399999871,
          "velocity": 0.7480314960629921,
          "duration": 0.18292674999999292
        },
        {
          "name": "C2",
          "midi": 36,
          "time": 103.90239399999871,
          "velocity": 0.7480314960629921,
          "duration": 0.18292674999999292
        },
        {
          "name": "C2",
          "midi": 36,
          "time": 104.0853207499987,
          "velocity": 0.7480314960629921,
          "duration": 0.18292674999999292
        },
        {
          "name": "F#2",
          "midi": 42,
          "time": 104.2682474999987,
          "velocity": 0.7480314960629921,
          "duration": 0.18292674999999292
        },
        {
          "name": "C2",
          "midi": 36,
          "time": 104.2682474999987,
          "velocity": 0.7480314960629921,
          "duration": 0.18292674999999292
        },
        {
          "name": "C2",
          "midi": 36,
          "time": 104.45117424999869,
          "velocity": 0.7480314960629921,
          "duration": 0.18292674999999292
        },
        {
          "name": "F#2",
          "midi": 42,
          "time": 104.63410099999868,
          "velocity": 0.7480314960629921,
          "duration": 0.18292674999999292
        },
        {
          "name": "E2",
          "midi": 40,
          "time": 104.63410099999868,
          "velocity": 0.7480314960629921,
          "duration": 0.18292674999999292
        },
        {
          "name": "C2",
          "midi": 36,
          "time": 104.81702774999867,
          "velocity": 0.7480314960629921,
          "duration": 0.18292674999999292
        },
        {
          "name": "F#2",
          "midi": 42,
          "time": 104.99995449999867,
          "velocity": 0.7480314960629921,
          "duration": 0.18292674999999292
        },
        {
          "name": "F#2",
          "midi": 42,
          "time": 105.36580799999865,
          "velocity": 0.7480314960629921,
          "duration": 0.18292674999999292
        },
        {
          "name": "C2",
          "midi": 36,
          "time": 105.36580799999865,
          "velocity": 0.7480314960629921,
          "duration": 0.18292674999999292
        },
        {
          "name": "C2",
          "midi": 36,
          "time": 105.54873474999864,
          "velocity": 0.7480314960629921,
          "duration": 0.18292674999999292
        },
        {
          "name": "F#2",
          "midi": 42,
          "time": 105.73166149999864,
          "velocity": 0.7480314960629921,
          "duration": 0.18292674999999292
        },
        {
          "name": "C2",
          "midi": 36,
          "time": 105.73166149999864,
          "velocity": 0.7480314960629921,
          "duration": 0.18292674999999292
        },
        {
          "name": "C2",
          "midi": 36,
          "time": 105.91458824999863,
          "velocity": 0.7480314960629921,
          "duration": 0.18292674999999292
        },
        {
          "name": "F#2",
          "midi": 42,
          "time": 106.09751499999862,
          "velocity": 0.7480314960629921,
          "duration": 0.18292674999999292
        },
        {
          "name": "E2",
          "midi": 40,
          "time": 106.09751499999862,
          "velocity": 0.7480314960629921,
          "duration": 0.18292674999999292
        },
        {
          "name": "F#2",
          "midi": 42,
          "time": 106.46336849999861,
          "velocity": 0.7480314960629921,
          "duration": 0.18292674999999292
        },
        {
          "name": "A#2",
          "midi": 46,
          "time": 106.8292219999986,
          "velocity": 0.7480314960629921,
          "duration": 0.18292674999999292
        },
        {
          "name": "C2",
          "midi": 36,
          "time": 106.8292219999986,
          "velocity": 0.7480314960629921,
          "duration": 0.18292674999999292
        },
        {
          "name": "C2",
          "midi": 36,
          "time": 107.01214874999859,
          "velocity": 0.7480314960629921,
          "duration": 0.18292674999999292
        },
        {
          "name": "A#2",
          "midi": 46,
          "time": 107.19507549999858,
          "velocity": 0.7480314960629921,
          "duration": 0.18292674999999292
        },
        {
          "name": "C2",
          "midi": 36,
          "time": 107.19507549999858,
          "velocity": 0.7480314960629921,
          "duration": 0.18292674999999292
        },
        {
          "name": "C2",
          "midi": 36,
          "time": 107.37800224999857,
          "velocity": 0.7480314960629921,
          "duration": 0.18292674999999292
        },
        {
          "name": "A#2",
          "midi": 46,
          "time": 107.56092899999857,
          "velocity": 0.7480314960629921,
          "duration": 0.18292674999999292
        },
        {
          "name": "E2",
          "midi": 40,
          "time": 107.56092899999857,
          "velocity": 0.7480314960629921,
          "duration": 0.18292674999999292
        },
        {
          "name": "C2",
          "midi": 36,
          "time": 107.74385574999856,
          "velocity": 0.7480314960629921,
          "duration": 0.18292674999999292
        },
        {
          "name": "A#2",
          "midi": 46,
          "time": 107.92678249999855,
          "velocity": 0.7480314960629921,
          "duration": 0.18292674999999292
        },
        {
          "name": "E2",
          "midi": 40,
          "time": 108.10970924999855,
          "velocity": 0.7480314960629921,
          "duration": 0.18292674999999292
        },
        {
          "name": "C#3",
          "midi": 49,
          "time": 108.29263599999854,
          "velocity": 0.7480314960629921,
          "duration": 0.18292674999999292
        },
        {
          "name": "C2",
          "midi": 36,
          "time": 108.29263599999854,
          "velocity": 0.7480314960629921,
          "duration": 0.18292674999999292
        },
        {
          "name": "C2",
          "midi": 36,
          "time": 108.47556274999853,
          "velocity": 0.7480314960629921,
          "duration": 0.18292674999999292
        },
        {
          "name": "A#2",
          "midi": 46,
          "time": 108.65848949999852,
          "velocity": 0.7480314960629921,
          "duration": 0.18292674999999292
        },
        {
          "name": "C2",
          "midi": 36,
          "time": 108.65848949999852,
          "velocity": 0.7480314960629921,
          "duration": 0.18292674999999292
        },
        {
          "name": "C2",
          "midi": 36,
          "time": 108.84141624999852,
          "velocity": 0.7480314960629921,
          "duration": 0.18292674999999292
        },
        {
          "name": "A#2",
          "midi": 46,
          "time": 109.02434299999851,
          "velocity": 0.7480314960629921,
          "duration": 0.18292674999999292
        },
        {
          "name": "E2",
          "midi": 40,
          "time": 109.02434299999851,
          "velocity": 0.7480314960629921,
          "duration": 0.18292674999999292
        },
        {
          "name": "A#2",
          "midi": 46,
          "time": 109.3901964999985,
          "velocity": 0.7480314960629921,
          "duration": 0.18292674999999292
        },
        {
          "name": "A#2",
          "midi": 46,
          "time": 109.75604999999848,
          "velocity": 0.7480314960629921,
          "duration": 0.18292674999999292
        },
        {
          "name": "C2",
          "midi": 36,
          "time": 109.75604999999848,
          "velocity": 0.7480314960629921,
          "duration": 0.18292674999999292
        },
        {
          "name": "C2",
          "midi": 36,
          "time": 109.93897674999847,
          "velocity": 0.7480314960629921,
          "duration": 0.18292674999999292
        },
        {
          "name": "A#2",
          "midi": 46,
          "time": 110.12190349999847,
          "velocity": 0.7480314960629921,
          "duration": 0.18292674999999292
        },
        {
          "name": "C2",
          "midi": 36,
          "time": 110.12190349999847,
          "velocity": 0.7480314960629921,
          "duration": 0.18292674999999292
        },
        {
          "name": "C2",
          "midi": 36,
          "time": 110.30483024999846,
          "velocity": 0.7480314960629921,
          "duration": 0.18292674999999292
        },
        {
          "name": "A#2",
          "midi": 46,
          "time": 110.48775699999845,
          "velocity": 0.7480314960629921,
          "duration": 0.18292674999999292
        },
        {
          "name": "E2",
          "midi": 40,
          "time": 110.48775699999845,
          "velocity": 0.7480314960629921,
          "duration": 0.18292674999999292
        },
        {
          "name": "C2",
          "midi": 36,
          "time": 110.67068374999845,
          "velocity": 0.7480314960629921,
          "duration": 0.18292674999999292
        },
        {
          "name": "A#2",
          "midi": 46,
          "time": 110.85361049999844,
          "velocity": 0.7480314960629921,
          "duration": 0.18292674999999292
        },
        {
          "name": "A#2",
          "midi": 46,
          "time": 111.21946399999842,
          "velocity": 0.7480314960629921,
          "duration": 0.18292674999999292
        },
        {
          "name": "C2",
          "midi": 36,
          "time": 111.21946399999842,
          "velocity": 0.7480314960629921,
          "duration": 0.18292674999999292
        },
        {
          "name": "C2",
          "midi": 36,
          "time": 111.40239074999842,
          "velocity": 0.7480314960629921,
          "duration": 0.18292674999999292
        },
        {
          "name": "A#2",
          "midi": 46,
          "time": 111.58531749999841,
          "velocity": 0.7480314960629921,
          "duration": 0.18292674999999292
        },
        {
          "name": "C2",
          "midi": 36,
          "time": 111.58531749999841,
          "velocity": 0.7480314960629921,
          "duration": 0.18292674999999292
        },
        {
          "name": "C2",
          "midi": 36,
          "time": 111.7682442499984,
          "velocity": 0.7480314960629921,
          "duration": 0.18292674999999292
        },
        {
          "name": "A#2",
          "midi": 46,
          "time": 111.9511709999984,
          "velocity": 0.7480314960629921,
          "duration": 0.18292674999999292
        },
        {
          "name": "E2",
          "midi": 40,
          "time": 111.9511709999984,
          "velocity": 0.7480314960629921,
          "duration": 0.18292674999999292
        },
        {
          "name": "A#2",
          "midi": 46,
          "time": 112.31702449999838,
          "velocity": 0.7480314960629921,
          "duration": 0.18292674999999292
        },
        {
          "name": "A#2",
          "midi": 46,
          "time": 112.68287799999837,
          "velocity": 0.7480314960629921,
          "duration": 0.18292674999999292
        },
        {
          "name": "C2",
          "midi": 36,
          "time": 112.68287799999837,
          "velocity": 0.7480314960629921,
          "duration": 0.18292674999999292
        },
        {
          "name": "C2",
          "midi": 36,
          "time": 112.86580474999836,
          "velocity": 0.7480314960629921,
          "duration": 0.18292674999999292
        },
        {
          "name": "A#2",
          "midi": 46,
          "time": 113.04873149999835,
          "velocity": 0.7480314960629921,
          "duration": 0.18292674999999292
        },
        {
          "name": "C2",
          "midi": 36,
          "time": 113.04873149999835,
          "velocity": 0.7480314960629921,
          "duration": 0.18292674999999292
        },
        {
          "name": "C2",
          "midi": 36,
          "time": 113.23165824999835,
          "velocity": 0.7480314960629921,
          "duration": 0.18292674999999292
        },
        {
          "name": "A#2",
          "midi": 46,
          "time": 113.41458499999834,
          "velocity": 0.7480314960629921,
          "duration": 0.18292674999999292
        },
        {
          "name": "E2",
          "midi": 40,
          "time": 113.41458499999834,
          "velocity": 0.7480314960629921,
          "duration": 0.18292674999999292
        },
        {
          "name": "C2",
          "midi": 36,
          "time": 113.59751174999833,
          "velocity": 0.7480314960629921,
          "duration": 0.18292674999999292
        },
        {
          "name": "A#2",
          "midi": 46,
          "time": 113.78043849999833,
          "velocity": 0.7480314960629921,
          "duration": 0.18292674999999292
        },
        {
          "name": "E2",
          "midi": 40,
          "time": 113.96336524999832,
          "velocity": 0.7480314960629921,
          "duration": 0.18292674999999292
        },
        {
          "name": "C#3",
          "midi": 49,
          "time": 114.14629199999831,
          "velocity": 0.7480314960629921,
          "duration": 0.18292674999999292
        },
        {
          "name": "C2",
          "midi": 36,
          "time": 114.14629199999831,
          "velocity": 0.7480314960629921,
          "duration": 0.18292674999999292
        },
        {
          "name": "C2",
          "midi": 36,
          "time": 114.3292187499983,
          "velocity": 0.7480314960629921,
          "duration": 0.18292674999999292
        },
        {
          "name": "A#2",
          "midi": 46,
          "time": 114.5121454999983,
          "velocity": 0.7480314960629921,
          "duration": 0.18292674999999292
        },
        {
          "name": "C2",
          "midi": 36,
          "time": 114.5121454999983,
          "velocity": 0.7480314960629921,
          "duration": 0.18292674999999292
        },
        {
          "name": "C2",
          "midi": 36,
          "time": 114.69507224999829,
          "velocity": 0.7480314960629921,
          "duration": 0.18292674999999292
        },
        {
          "name": "A#2",
          "midi": 46,
          "time": 114.87799899999828,
          "velocity": 0.7480314960629921,
          "duration": 0.18292674999999292
        },
        {
          "name": "E2",
          "midi": 40,
          "time": 114.87799899999828,
          "velocity": 0.7480314960629921,
          "duration": 0.18292674999999292
        },
        {
          "name": "A#2",
          "midi": 46,
          "time": 115.24385249999827,
          "velocity": 0.7480314960629921,
          "duration": 0.18292674999999292
        },
        {
          "name": "A#2",
          "midi": 46,
          "time": 115.60970599999825,
          "velocity": 0.7480314960629921,
          "duration": 0.18292674999999292
        },
        {
          "name": "C2",
          "midi": 36,
          "time": 115.60970599999825,
          "velocity": 0.7480314960629921,
          "duration": 0.18292674999999292
        },
        {
          "name": "C2",
          "midi": 36,
          "time": 115.79263274999825,
          "velocity": 0.7480314960629921,
          "duration": 0.18292674999999292
        },
        {
          "name": "A#2",
          "midi": 46,
          "time": 115.97555949999824,
          "velocity": 0.7480314960629921,
          "duration": 0.18292674999999292
        },
        {
          "name": "C2",
          "midi": 36,
          "time": 115.97555949999824,
          "velocity": 0.7480314960629921,
          "duration": 0.18292674999999292
        },
        {
          "name": "C2",
          "midi": 36,
          "time": 116.15848624999823,
          "velocity": 0.7480314960629921,
          "duration": 0.18292674999999292
        },
        {
          "name": "A#2",
          "midi": 46,
          "time": 116.34141299999823,
          "velocity": 0.7480314960629921,
          "duration": 0.18292674999999292
        },
        {
          "name": "E2",
          "midi": 40,
          "time": 116.34141299999823,
          "velocity": 0.7480314960629921,
          "duration": 0.18292674999999292
        },
        {
          "name": "C2",
          "midi": 36,
          "time": 116.52433974999822,
          "velocity": 0.7480314960629921,
          "duration": 0.18292674999999292
        },
        {
          "name": "A#2",
          "midi": 46,
          "time": 116.70726649999821,
          "velocity": 0.7480314960629921,
          "duration": 0.18292674999999292
        },
        {
          "name": "A#2",
          "midi": 46,
          "time": 117.0731199999982,
          "velocity": 0.7480314960629921,
          "duration": 0.18292674999999292
        },
        {
          "name": "C2",
          "midi": 36,
          "time": 117.0731199999982,
          "velocity": 0.7480314960629921,
          "duration": 0.18292674999999292
        },
        {
          "name": "C2",
          "midi": 36,
          "time": 117.25604674999819,
          "velocity": 0.7480314960629921,
          "duration": 0.18292674999999292
        },
        {
          "name": "A#2",
          "midi": 46,
          "time": 117.43897349999818,
          "velocity": 0.7480314960629921,
          "duration": 0.18292674999999292
        },
        {
          "name": "C2",
          "midi": 36,
          "time": 117.43897349999818,
          "velocity": 0.7480314960629921,
          "duration": 0.18292674999999292
        },
        {
          "name": "C2",
          "midi": 36,
          "time": 117.62190024999818,
          "velocity": 0.7480314960629921,
          "duration": 0.18292674999999292
        },
        {
          "name": "A#2",
          "midi": 46,
          "time": 117.80482699999817,
          "velocity": 0.7480314960629921,
          "duration": 0.18292674999999292
        },
        {
          "name": "E2",
          "midi": 40,
          "time": 117.80482699999817,
          "velocity": 0.7480314960629921,
          "duration": 0.18292674999999292
        },
        {
          "name": "A#2",
          "midi": 46,
          "time": 118.17068049999816,
          "velocity": 0.7480314960629921,
          "duration": 0.18292674999999292
        },
        {
          "name": "A#2",
          "midi": 46,
          "time": 118.53653399999814,
          "velocity": 0.7480314960629921,
          "duration": 0.18292674999999292
        },
        {
          "name": "C2",
          "midi": 36,
          "time": 118.53653399999814,
          "velocity": 0.7480314960629921,
          "duration": 0.18292674999999292
        },
        {
          "name": "C2",
          "midi": 36,
          "time": 118.71946074999813,
          "velocity": 0.7480314960629921,
          "duration": 0.18292674999999292
        },
        {
          "name": "A#2",
          "midi": 46,
          "time": 118.90238749999813,
          "velocity": 0.7480314960629921,
          "duration": 0.18292674999999292
        },
        {
          "name": "C2",
          "midi": 36,
          "time": 118.90238749999813,
          "velocity": 0.7480314960629921,
          "duration": 0.18292674999999292
        },
        {
          "name": "C2",
          "midi": 36,
          "time": 119.08531424999812,
          "velocity": 0.7480314960629921,
          "duration": 0.18292674999999292
        },
        {
          "name": "E2",
          "midi": 40,
          "time": 119.26824099999811,
          "velocity": 0.7480314960629921,
          "duration": 0.18292674999999292
        },
        {
          "name": "C2",
          "midi": 36,
          "time": 119.4511677499981,
          "velocity": 0.7480314960629921,
          "duration": 0.18292674999999292
        },
        {
          "name": "E2",
          "midi": 40,
          "time": 119.6340944999981,
          "velocity": 0.7480314960629921,
          "duration": 0.18292674999999292
        },
        {
          "name": "C2",
          "midi": 36,
          "time": 119.81702124999809,
          "velocity": 0.7480314960629921,
          "duration": 0.18292674999999292
        },
        {
          "name": "A3",
          "midi": 57,
          "time": 119.99994799999808,
          "velocity": 0.7480314960629921,
          "duration": 0.18292674999999292
        },
        {
          "name": "C#2",
          "midi": 37,
          "time": 119.99994799999808,
          "velocity": 0.7480314960629921,
          "duration": 0.18292674999999292
        },
        {
          "name": "C2",
          "midi": 36,
          "time": 119.99994799999808,
          "velocity": 0.7480314960629921,
          "duration": 0.18292674999999292
        },
        {
          "name": "D#3",
          "midi": 51,
          "time": 120.18287474999808,
          "velocity": 0.49606299212598426,
          "duration": 0.18292674999999292
        },
        {
          "name": "D#3",
          "midi": 51,
          "time": 120.36580149999807,
          "velocity": 0.7480314960629921,
          "duration": 0.18292674999999292
        },
        {
          "name": "C#2",
          "midi": 37,
          "time": 120.36580149999807,
          "velocity": 0.7480314960629921,
          "duration": 0.18292674999999292
        },
        {
          "name": "D#3",
          "midi": 51,
          "time": 120.54872824999806,
          "velocity": 0.49606299212598426,
          "duration": 0.18292674999999292
        },
        {
          "name": "D#3",
          "midi": 51,
          "time": 120.73165499999806,
          "velocity": 0.7480314960629921,
          "duration": 0.18292674999999292
        },
        {
          "name": "C#2",
          "midi": 37,
          "time": 120.73165499999806,
          "velocity": 0.7480314960629921,
          "duration": 0.18292674999999292
        },
        {
          "name": "D#3",
          "midi": 51,
          "time": 120.91458174999805,
          "velocity": 0.49606299212598426,
          "duration": 0.18292674999999292
        },
        {
          "name": "C2",
          "midi": 36,
          "time": 120.91458174999805,
          "velocity": 0.7480314960629921,
          "duration": 0.18292674999999292
        },
        {
          "name": "D#3",
          "midi": 51,
          "time": 121.09750849999804,
          "velocity": 0.7480314960629921,
          "duration": 0.18292674999999292
        },
        {
          "name": "C#2",
          "midi": 37,
          "time": 121.09750849999804,
          "velocity": 0.7480314960629921,
          "duration": 0.18292674999999292
        },
        {
          "name": "C2",
          "midi": 36,
          "time": 121.09750849999804,
          "velocity": 0.7480314960629921,
          "duration": 0.18292674999999292
        },
        {
          "name": "D#3",
          "midi": 51,
          "time": 121.28043524999804,
          "velocity": 0.49606299212598426,
          "duration": 0.18292674999999292
        },
        {
          "name": "D#3",
          "midi": 51,
          "time": 121.46336199999803,
          "velocity": 0.7480314960629921,
          "duration": 0.18292674999999292
        },
        {
          "name": "C#2",
          "midi": 37,
          "time": 121.46336199999803,
          "velocity": 0.7480314960629921,
          "duration": 0.18292674999999292
        },
        {
          "name": "D#3",
          "midi": 51,
          "time": 121.64628874999802,
          "velocity": 0.49606299212598426,
          "duration": 0.18292674999999292
        },
        {
          "name": "D#3",
          "midi": 51,
          "time": 121.82921549999801,
          "velocity": 0.7480314960629921,
          "duration": 0.18292674999999292
        },
        {
          "name": "C#2",
          "midi": 37,
          "time": 121.82921549999801,
          "velocity": 0.7480314960629921,
          "duration": 0.18292674999999292
        },
        {
          "name": "D#3",
          "midi": 51,
          "time": 122.012142249998,
          "velocity": 0.49606299212598426,
          "duration": 0.18292674999999292
        },
        {
          "name": "D#3",
          "midi": 51,
          "time": 122.195068999998,
          "velocity": 0.7480314960629921,
          "duration": 0.18292674999999292
        },
        {
          "name": "C#2",
          "midi": 37,
          "time": 122.195068999998,
          "velocity": 0.7480314960629921,
          "duration": 0.18292674999999292
        },
        {
          "name": "D#3",
          "midi": 51,
          "time": 122.377995749998,
          "velocity": 0.49606299212598426,
          "duration": 0.18292674999999292
        },
        {
          "name": "D#3",
          "midi": 51,
          "time": 122.56092249999799,
          "velocity": 0.7480314960629921,
          "duration": 0.18292674999999292
        },
        {
          "name": "C#2",
          "midi": 37,
          "time": 122.56092249999799,
          "velocity": 0.7480314960629921,
          "duration": 0.18292674999999292
        },
        {
          "name": "D#3",
          "midi": 51,
          "time": 122.74384924999798,
          "velocity": 0.49606299212598426,
          "duration": 0.18292674999999292
        },
        {
          "name": "D#3",
          "midi": 51,
          "time": 122.92677599999797,
          "velocity": 0.7480314960629921,
          "duration": 0.18292674999999292
        },
        {
          "name": "C#2",
          "midi": 37,
          "time": 122.92677599999797,
          "velocity": 0.7480314960629921,
          "duration": 0.18292674999999292
        },
        {
          "name": "C2",
          "midi": 36,
          "time": 122.92677599999797,
          "velocity": 0.7480314960629921,
          "duration": 0.18292674999999292
        },
        {
          "name": "D#3",
          "midi": 51,
          "time": 123.10970274999796,
          "velocity": 0.49606299212598426,
          "duration": 0.18292674999999292
        },
        {
          "name": "D#3",
          "midi": 51,
          "time": 123.29262949999796,
          "velocity": 0.7480314960629921,
          "duration": 0.18292674999999292
        },
        {
          "name": "C#2",
          "midi": 37,
          "time": 123.29262949999796,
          "velocity": 0.7480314960629921,
          "duration": 0.18292674999999292
        },
        {
          "name": "D#3",
          "midi": 51,
          "time": 123.47555624999795,
          "velocity": 0.49606299212598426,
          "duration": 0.18292674999999292
        },
        {
          "name": "D#3",
          "midi": 51,
          "time": 123.65848299999794,
          "velocity": 0.7480314960629921,
          "duration": 0.18292674999999292
        },
        {
          "name": "C#2",
          "midi": 37,
          "time": 123.65848299999794,
          "velocity": 0.7480314960629921,
          "duration": 0.18292674999999292
        },
        {
          "name": "D#3",
          "midi": 51,
          "time": 123.84140974999794,
          "velocity": 0.49606299212598426,
          "duration": 0.18292674999999292
        },
        {
          "name": "C2",
          "midi": 36,
          "time": 123.84140974999794,
          "velocity": 0.7480314960629921,
          "duration": 0.18292674999999292
        },
        {
          "name": "D#3",
          "midi": 51,
          "time": 124.02433649999793,
          "velocity": 0.7480314960629921,
          "duration": 0.18292674999999292
        },
        {
          "name": "C#2",
          "midi": 37,
          "time": 124.02433649999793,
          "velocity": 0.7480314960629921,
          "duration": 0.18292674999999292
        },
        {
          "name": "C2",
          "midi": 36,
          "time": 124.02433649999793,
          "velocity": 0.7480314960629921,
          "duration": 0.18292674999999292
        },
        {
          "name": "D#3",
          "midi": 51,
          "time": 124.20726324999792,
          "velocity": 0.49606299212598426,
          "duration": 0.18292674999999292
        },
        {
          "name": "D#3",
          "midi": 51,
          "time": 124.39018999999792,
          "velocity": 0.7480314960629921,
          "duration": 0.18292674999999292
        },
        {
          "name": "C#2",
          "midi": 37,
          "time": 124.39018999999792,
          "velocity": 0.7480314960629921,
          "duration": 0.18292674999999292
        },
        {
          "name": "D#3",
          "midi": 51,
          "time": 124.57311674999791,
          "velocity": 0.49606299212598426,
          "duration": 0.18292674999999292
        },
        {
          "name": "D#3",
          "midi": 51,
          "time": 124.7560434999979,
          "velocity": 0.7480314960629921,
          "duration": 0.18292674999999292
        },
        {
          "name": "C#2",
          "midi": 37,
          "time": 124.7560434999979,
          "velocity": 0.7480314960629921,
          "duration": 0.18292674999999292
        },
        {
          "name": "D#3",
          "midi": 51,
          "time": 124.9389702499979,
          "velocity": 0.49606299212598426,
          "duration": 0.18292674999999292
        },
        {
          "name": "D#3",
          "midi": 51,
          "time": 125.12189699999789,
          "velocity": 0.7480314960629921,
          "duration": 0.18292674999999292
        },
        {
          "name": "C#2",
          "midi": 37,
          "time": 125.12189699999789,
          "velocity": 0.7480314960629921,
          "duration": 0.18292674999999292
        },
        {
          "name": "D#3",
          "midi": 51,
          "time": 125.30482374999788,
          "velocity": 0.49606299212598426,
          "duration": 0.18292674999999292
        },
        {
          "name": "C2",
          "midi": 36,
          "time": 125.30482374999788,
          "velocity": 0.7480314960629921,
          "duration": 0.18292674999999292
        },
        {
          "name": "D#3",
          "midi": 51,
          "time": 125.48775049999787,
          "velocity": 0.7480314960629921,
          "duration": 0.18292674999999292
        },
        {
          "name": "C#2",
          "midi": 37,
          "time": 125.48775049999787,
          "velocity": 0.7480314960629921,
          "duration": 0.18292674999999292
        },
        {
          "name": "D#3",
          "midi": 51,
          "time": 125.67067724999787,
          "velocity": 0.49606299212598426,
          "duration": 0.18292674999999292
        },
        {
          "name": "C2",
          "midi": 36,
          "time": 125.67067724999787,
          "velocity": 0.7480314960629921,
          "duration": 0.18292674999999292
        },
        {
          "name": "D#3",
          "midi": 51,
          "time": 125.85360399999786,
          "velocity": 0.7480314960629921,
          "duration": 0.18292674999999292
        },
        {
          "name": "C#2",
          "midi": 37,
          "time": 125.85360399999786,
          "velocity": 0.7480314960629921,
          "duration": 0.18292674999999292
        },
        {
          "name": "C2",
          "midi": 36,
          "time": 125.85360399999786,
          "velocity": 0.7480314960629921,
          "duration": 0.18292674999999292
        },
        {
          "name": "D#3",
          "midi": 51,
          "time": 126.03653074999785,
          "velocity": 0.49606299212598426,
          "duration": 0.18292674999999292
        },
        {
          "name": "D#3",
          "midi": 51,
          "time": 126.21945749999784,
          "velocity": 0.7480314960629921,
          "duration": 0.18292674999999292
        },
        {
          "name": "C#2",
          "midi": 37,
          "time": 126.21945749999784,
          "velocity": 0.7480314960629921,
          "duration": 0.18292674999999292
        },
        {
          "name": "D#3",
          "midi": 51,
          "time": 126.40238424999784,
          "velocity": 0.49606299212598426,
          "duration": 0.18292674999999292
        },
        {
          "name": "D#3",
          "midi": 51,
          "time": 126.58531099999783,
          "velocity": 0.7480314960629921,
          "duration": 0.18292674999999292
        },
        {
          "name": "C#2",
          "midi": 37,
          "time": 126.58531099999783,
          "velocity": 0.7480314960629921,
          "duration": 0.18292674999999292
        },
        {
          "name": "D#3",
          "midi": 51,
          "time": 126.76823774999782,
          "velocity": 0.49606299212598426,
          "duration": 0.18292674999999292
        },
        {
          "name": "C2",
          "midi": 36,
          "time": 126.76823774999782,
          "velocity": 0.7480314960629921,
          "duration": 0.18292674999999292
        },
        {
          "name": "D#3",
          "midi": 51,
          "time": 126.95116449999782,
          "velocity": 0.7480314960629921,
          "duration": 0.18292674999999292
        },
        {
          "name": "C#2",
          "midi": 37,
          "time": 126.95116449999782,
          "velocity": 0.7480314960629921,
          "duration": 0.18292674999999292
        },
        {
          "name": "C2",
          "midi": 36,
          "time": 126.95116449999782,
          "velocity": 0.7480314960629921,
          "duration": 0.18292674999999292
        },
        {
          "name": "D#3",
          "midi": 51,
          "time": 127.13409124999781,
          "velocity": 0.49606299212598426,
          "duration": 0.18292674999999292
        },
        {
          "name": "D#3",
          "midi": 51,
          "time": 127.3170179999978,
          "velocity": 0.7480314960629921,
          "duration": 0.18292674999999292
        },
        {
          "name": "C#2",
          "midi": 37,
          "time": 127.3170179999978,
          "velocity": 0.7480314960629921,
          "duration": 0.18292674999999292
        },
        {
          "name": "D#3",
          "midi": 51,
          "time": 127.4999447499978,
          "velocity": 0.49606299212598426,
          "duration": 0.18292674999999292
        },
        {
          "name": "D#3",
          "midi": 51,
          "time": 127.68287149999779,
          "velocity": 0.7480314960629921,
          "duration": 0.18292674999999292
        },
        {
          "name": "C#2",
          "midi": 37,
          "time": 127.68287149999779,
          "velocity": 0.7480314960629921,
          "duration": 0.18292674999999292
        },
        {
          "name": "D#3",
          "midi": 51,
          "time": 127.86579824999778,
          "velocity": 0.49606299212598426,
          "duration": 0.18292674999999292
        },
        {
          "name": "D#3",
          "midi": 51,
          "time": 128.04872499999777,
          "velocity": 0.7480314960629921,
          "duration": 0.18292675000000713
        },
        {
          "name": "C#2",
          "midi": 37,
          "time": 128.04872499999777,
          "velocity": 0.7480314960629921,
          "duration": 0.18292675000000713
        },
        {
          "name": "D#3",
          "midi": 51,
          "time": 128.23165174999778,
          "velocity": 0.49606299212598426,
          "duration": 0.18292675000000713
        },
        {
          "name": "D#3",
          "midi": 51,
          "time": 128.4145784999978,
          "velocity": 0.7480314960629921,
          "duration": 0.18292675000000713
        },
        {
          "name": "C#2",
          "midi": 37,
          "time": 128.4145784999978,
          "velocity": 0.7480314960629921,
          "duration": 0.18292675000000713
        },
        {
          "name": "D#3",
          "midi": 51,
          "time": 128.5975052499978,
          "velocity": 0.49606299212598426,
          "duration": 0.18292675000000713
        },
        {
          "name": "D#3",
          "midi": 51,
          "time": 128.7804319999978,
          "velocity": 0.7480314960629921,
          "duration": 0.18292675000000713
        },
        {
          "name": "D#3",
          "midi": 51,
          "time": 128.9633587499978,
          "velocity": 0.49606299212598426,
          "duration": 0.18292675000000713
        },
        {
          "name": "D#3",
          "midi": 51,
          "time": 129.14628549999782,
          "velocity": 0.7480314960629921,
          "duration": 0.18292675000000713
        },
        {
          "name": "D#3",
          "midi": 51,
          "time": 129.32921224999782,
          "velocity": 0.49606299212598426,
          "duration": 0.18292675000000713
        },
        {
          "name": "D#3",
          "midi": 51,
          "time": 129.51213899999783,
          "velocity": 0.7480314960629921,
          "duration": 0.18292675000000713
        },
        {
          "name": "D#3",
          "midi": 51,
          "time": 129.69506574999784,
          "velocity": 0.49606299212598426,
          "duration": 0.18292675000000713
        },
        {
          "name": "D#3",
          "midi": 51,
          "time": 129.87799249999784,
          "velocity": 0.7480314960629921,
          "duration": 0.18292675000000713
        },
        {
          "name": "D#3",
          "midi": 51,
          "time": 130.06091924999785,
          "velocity": 0.49606299212598426,
          "duration": 0.18292675000000713
        },
        {
          "name": "D#3",
          "midi": 51,
          "time": 130.24384599999786,
          "velocity": 0.7480314960629921,
          "duration": 0.18292675000000713
        },
        {
          "name": "E2",
          "midi": 40,
          "time": 130.42677274999787,
          "velocity": 0.49606299212598426,
          "duration": 0.18292675000000713
        },
        {
          "name": "B2",
          "midi": 47,
          "time": 130.60969949999787,
          "velocity": 0.7480314960629921,
          "duration": 0.09146337499998936
        },
        {
          "name": "A2",
          "midi": 45,
          "time": 130.70116287499786,
          "velocity": 0.7480314960629921,
          "duration": 0.09146337499998936
        },
        {
          "name": "G2",
          "midi": 43,
          "time": 130.79262624999785,
          "velocity": 0.7480314960629921,
          "duration": 0.09146337499998936
        },
        {
          "name": "A2",
          "midi": 45,
          "time": 130.88408962499784,
          "velocity": 0.7480314960629921,
          "duration": 0.09146337499998936
        },
        {
          "name": "E2",
          "midi": 40,
          "time": 130.97555299999783,
          "velocity": 0.7480314960629921,
          "duration": 0.7317070000000001
        },
        {
          "name": "A3",
          "midi": 57,
          "time": 131.70725999999783,
          "velocity": 0.7480314960629921,
          "duration": 0.18292675000000713
        },
        {
          "name": "C2",
          "midi": 36,
          "time": 131.70725999999783,
          "velocity": 0.7480314960629921,
          "duration": 0.18292675000000713
        },
        {
          "name": "C2",
          "midi": 36,
          "time": 131.89018674999784,
          "velocity": 0.7480314960629921,
          "duration": 0.18292675000000713
        },
        {
          "name": "A3",
          "midi": 57,
          "time": 132.07311349999785,
          "velocity": 0.7480314960629921,
          "duration": 0.18292675000000713
        },
        {
          "name": "C2",
          "midi": 36,
          "time": 132.25604024999785,
          "velocity": 0.7480314960629921,
          "duration": 0.18292675000000713
        },
        {
          "name": "A3",
          "midi": 57,
          "time": 132.43896699999786,
          "velocity": 0.7480314960629921,
          "duration": 0.18292675000000713
        },
        {
          "name": "E2",
          "midi": 40,
          "time": 132.43896699999786,
          "velocity": 0.7480314960629921,
          "duration": 0.18292675000000713
        },
        {
          "name": "E2",
          "midi": 40,
          "time": 132.62189374999787,
          "velocity": 0.7480314960629921,
          "duration": 0.18292675000000713
        },
        {
          "name": "A3",
          "midi": 57,
          "time": 132.80482049999787,
          "velocity": 0.7480314960629921,
          "duration": 0.18292675000000713
        },
        {
          "name": "C2",
          "midi": 36,
          "time": 132.98774724999788,
          "velocity": 0.7480314960629921,
          "duration": 0.18292675000000713
        },
        {
          "name": "A3",
          "midi": 57,
          "time": 133.1706739999979,
          "velocity": 0.7480314960629921,
          "duration": 0.18292675000000713
        },
        {
          "name": "C2",
          "midi": 36,
          "time": 133.1706739999979,
          "velocity": 0.7480314960629921,
          "duration": 0.18292675000000713
        },
        {
          "name": "C2",
          "midi": 36,
          "time": 133.3536007499979,
          "velocity": 0.7480314960629921,
          "duration": 0.18292675000000713
        },
        {
          "name": "A3",
          "midi": 57,
          "time": 133.5365274999979,
          "velocity": 0.7480314960629921,
          "duration": 0.18292675000000713
        },
        {
          "name": "C2",
          "midi": 36,
          "time": 133.7194542499979,
          "velocity": 0.7480314960629921,
          "duration": 0.18292675000000713
        },
        {
          "name": "A3",
          "midi": 57,
          "time": 133.90238099999792,
          "velocity": 0.7480314960629921,
          "duration": 0.18292675000000713
        },
        {
          "name": "E2",
          "midi": 40,
          "time": 133.90238099999792,
          "velocity": 0.7480314960629921,
          "duration": 0.18292675000000713
        },
        {
          "name": "E2",
          "midi": 40,
          "time": 134.08530774999792,
          "velocity": 0.7480314960629921,
          "duration": 0.18292675000000713
        },
        {
          "name": "A3",
          "midi": 57,
          "time": 134.26823449999793,
          "velocity": 0.7480314960629921,
          "duration": 0.18292675000000713
        },
        {
          "name": "C2",
          "midi": 36,
          "time": 134.45116124999794,
          "velocity": 0.7480314960629921,
          "duration": 0.18292675000000713
        },
        {
          "name": "A3",
          "midi": 57,
          "time": 134.63408799999794,
          "velocity": 0.7480314960629921,
          "duration": 0.18292675000000713
        },
        {
          "name": "C2",
          "midi": 36,
          "time": 134.63408799999794,
          "velocity": 0.7480314960629921,
          "duration": 0.18292675000000713
        },
        {
          "name": "C2",
          "midi": 36,
          "time": 134.81701474999795,
          "velocity": 0.7480314960629921,
          "duration": 0.18292675000000713
        },
        {
          "name": "A3",
          "midi": 57,
          "time": 134.99994149999796,
          "velocity": 0.7480314960629921,
          "duration": 0.18292675000000713
        },
        {
          "name": "C2",
          "midi": 36,
          "time": 135.18286824999797,
          "velocity": 0.7480314960629921,
          "duration": 0.18292675000000713
        },
        {
          "name": "A3",
          "midi": 57,
          "time": 135.36579499999797,
          "velocity": 0.7480314960629921,
          "duration": 0.18292675000000713
        },
        {
          "name": "E2",
          "midi": 40,
          "time": 135.36579499999797,
          "velocity": 0.7480314960629921,
          "duration": 0.18292675000000713
        },
        {
          "name": "E2",
          "midi": 40,
          "time": 135.54872174999798,
          "velocity": 0.7480314960629921,
          "duration": 0.18292675000000713
        },
        {
          "name": "A3",
          "midi": 57,
          "time": 135.731648499998,
          "velocity": 0.7480314960629921,
          "duration": 0.18292675000000713
        },
        {
          "name": "C2",
          "midi": 36,
          "time": 135.914575249998,
          "velocity": 0.7480314960629921,
          "duration": 0.18292675000000713
        },
        {
          "name": "A3",
          "midi": 57,
          "time": 136.097501999998,
          "velocity": 0.7480314960629921,
          "duration": 0.18292675000000713
        },
        {
          "name": "C2",
          "midi": 36,
          "time": 136.097501999998,
          "velocity": 0.7480314960629921,
          "duration": 0.18292675000000713
        },
        {
          "name": "C2",
          "midi": 36,
          "time": 136.280428749998,
          "velocity": 0.7480314960629921,
          "duration": 0.18292675000000713
        },
        {
          "name": "A3",
          "midi": 57,
          "time": 136.46335549999802,
          "velocity": 0.7480314960629921,
          "duration": 0.18292675000000713
        },
        {
          "name": "C2",
          "midi": 36,
          "time": 136.64628224999802,
          "velocity": 0.7480314960629921,
          "duration": 0.18292675000000713
        },
        {
          "name": "A3",
          "midi": 57,
          "time": 136.82920899999803,
          "velocity": 0.7480314960629921,
          "duration": 0.18292675000000713
        },
        {
          "name": "E2",
          "midi": 40,
          "time": 136.82920899999803,
          "velocity": 0.7480314960629921,
          "duration": 0.18292675000000713
        },
        {
          "name": "E2",
          "midi": 40,
          "time": 137.01213574999804,
          "velocity": 0.7480314960629921,
          "duration": 0.18292675000000713
        },
        {
          "name": "A3",
          "midi": 57,
          "time": 137.19506249999804,
          "velocity": 0.7480314960629921,
          "duration": 0.18292675000000713
        },
        {
          "name": "C2",
          "midi": 36,
          "time": 137.37798924999805,
          "velocity": 0.7480314960629921,
          "duration": 0.18292675000000713
        },
        {
          "name": "A#2",
          "midi": 46,
          "time": 137.56091599999806,
          "velocity": 1,
          "duration": 0.18292675000000713
        },
        {
          "name": "C2",
          "midi": 36,
          "time": 137.56091599999806,
          "velocity": 0.7480314960629921,
          "duration": 0.18292675000000713
        },
        {
          "name": "C2",
          "midi": 36,
          "time": 137.74384274999807,
          "velocity": 0.7480314960629921,
          "duration": 0.18292675000000713
        },
        {
          "name": "A3",
          "midi": 57,
          "time": 137.92676949999807,
          "velocity": 0.7480314960629921,
          "duration": 0.18292675000000713
        },
        {
          "name": "C2",
          "midi": 36,
          "time": 138.10969624999808,
          "velocity": 0.7480314960629921,
          "duration": 0.18292675000000713
        },
        {
          "name": "A3",
          "midi": 57,
          "time": 138.2926229999981,
          "velocity": 0.7480314960629921,
          "duration": 0.18292675000000713
        },
        {
          "name": "E2",
          "midi": 40,
          "time": 138.2926229999981,
          "velocity": 0.7480314960629921,
          "duration": 0.18292675000000713
        },
        {
          "name": "E2",
          "midi": 40,
          "time": 138.4755497499981,
          "velocity": 0.7480314960629921,
          "duration": 0.18292675000000713
        },
        {
          "name": "A3",
          "midi": 57,
          "time": 138.6584764999981,
          "velocity": 0.7480314960629921,
          "duration": 0.18292675000000713
        },
        {
          "name": "C2",
          "midi": 36,
          "time": 138.8414032499981,
          "velocity": 0.7480314960629921,
          "duration": 0.18292675000000713
        },
        {
          "name": "A3",
          "midi": 57,
          "time": 139.02432999999812,
          "velocity": 0.7480314960629921,
          "duration": 0.18292675000000713
        },
        {
          "name": "C2",
          "midi": 36,
          "time": 139.02432999999812,
          "velocity": 0.7480314960629921,
          "duration": 0.18292675000000713
        },
        {
          "name": "C2",
          "midi": 36,
          "time": 139.20725674999812,
          "velocity": 0.7480314960629921,
          "duration": 0.18292675000000713
        },
        {
          "name": "A3",
          "midi": 57,
          "time": 139.39018349999813,
          "velocity": 0.7480314960629921,
          "duration": 0.18292675000000713
        },
        {
          "name": "C2",
          "midi": 36,
          "time": 139.57311024999814,
          "velocity": 0.7480314960629921,
          "duration": 0.18292675000000713
        },
        {
          "name": "A3",
          "midi": 57,
          "time": 139.75603699999814,
          "velocity": 0.7480314960629921,
          "duration": 0.18292675000000713
        },
        {
          "name": "E2",
          "midi": 40,
          "time": 139.75603699999814,
          "velocity": 0.7480314960629921,
          "duration": 0.18292675000000713
        },
        {
          "name": "E2",
          "midi": 40,
          "time": 139.93896374999815,
          "velocity": 0.7480314960629921,
          "duration": 0.18292675000000713
        },
        {
          "name": "A3",
          "midi": 57,
          "time": 140.12189049999816,
          "velocity": 0.7480314960629921,
          "duration": 0.18292675000000713
        },
        {
          "name": "C2",
          "midi": 36,
          "time": 140.30481724999817,
          "velocity": 0.7480314960629921,
          "duration": 0.18292675000000713
        },
        {
          "name": "A3",
          "midi": 57,
          "time": 140.48774399999817,
          "velocity": 0.7480314960629921,
          "duration": 0.18292675000000713
        },
        {
          "name": "C2",
          "midi": 36,
          "time": 140.48774399999817,
          "velocity": 0.7480314960629921,
          "duration": 0.18292675000000713
        },
        {
          "name": "C2",
          "midi": 36,
          "time": 140.67067074999818,
          "velocity": 0.7480314960629921,
          "duration": 0.18292675000000713
        },
        {
          "name": "A3",
          "midi": 57,
          "time": 140.8535974999982,
          "velocity": 0.7480314960629921,
          "duration": 0.18292675000000713
        },
        {
          "name": "C2",
          "midi": 36,
          "time": 141.0365242499982,
          "velocity": 0.7480314960629921,
          "duration": 0.18292675000000713
        },
        {
          "name": "A3",
          "midi": 57,
          "time": 141.2194509999982,
          "velocity": 0.7480314960629921,
          "duration": 0.18292675000000713
        },
        {
          "name": "E2",
          "midi": 40,
          "time": 141.2194509999982,
          "velocity": 0.7480314960629921,
          "duration": 0.18292675000000713
        },
        {
          "name": "E2",
          "midi": 40,
          "time": 141.4023777499982,
          "velocity": 0.7480314960629921,
          "duration": 0.18292675000000713
        },
        {
          "name": "A3",
          "midi": 57,
          "time": 141.58530449999822,
          "velocity": 0.7480314960629921,
          "duration": 0.18292675000000713
        },
        {
          "name": "C2",
          "midi": 36,
          "time": 141.76823124999822,
          "velocity": 0.7480314960629921,
          "duration": 0.18292675000000713
        },
        {
          "name": "A3",
          "midi": 57,
          "time": 141.95115799999823,
          "velocity": 0.7480314960629921,
          "duration": 0.18292675000000713
        },
        {
          "name": "C2",
          "midi": 36,
          "time": 141.95115799999823,
          "velocity": 0.7480314960629921,
          "duration": 0.18292675000000713
        },
        {
          "name": "C2",
          "midi": 36,
          "time": 142.13408474999824,
          "velocity": 0.7480314960629921,
          "duration": 0.18292675000000713
        },
        {
          "name": "A3",
          "midi": 57,
          "time": 142.31701149999824,
          "velocity": 0.7480314960629921,
          "duration": 0.18292675000000713
        },
        {
          "name": "C2",
          "midi": 36,
          "time": 142.49993824999825,
          "velocity": 0.7480314960629921,
          "duration": 0.18292675000000713
        },
        {
          "name": "E2",
          "midi": 40,
          "time": 142.68286499999826,
          "velocity": 0.7480314960629921,
          "duration": 0.18292675000000713
        },
        {
          "name": "C2",
          "midi": 36,
          "time": 142.86579174999827,
          "velocity": 0.7480314960629921,
          "duration": 0.18292675000000713
        },
        {
          "name": "E2",
          "midi": 40,
          "time": 143.04871849999827,
          "velocity": 0.7480314960629921,
          "duration": 0.18292675000000713
        },
        {
          "name": "C2",
          "midi": 36,
          "time": 143.23164524999828,
          "velocity": 0.7480314960629921,
          "duration": 0.18292675000000713
        },
        {
          "name": "A3",
          "midi": 57,
          "time": 143.4145719999983,
          "velocity": 0.7480314960629921,
          "duration": 0.18292675000000713
        },
        {
          "name": "C2",
          "midi": 36,
          "time": 143.4145719999983,
          "velocity": 0.7480314960629921,
          "duration": 0.18292675000000713
        },
        {
          "name": "C2",
          "midi": 36,
          "time": 143.5974987499983,
          "velocity": 0.7480314960629921,
          "duration": 0.18292675000000713
        },
        {
          "name": "A3",
          "midi": 57,
          "time": 143.7804254999983,
          "velocity": 0.7480314960629921,
          "duration": 0.18292675000000713
        },
        {
          "name": "C2",
          "midi": 36,
          "time": 143.7804254999983,
          "velocity": 0.7480314960629921,
          "duration": 0.18292675000000713
        },
        {
          "name": "C2",
          "midi": 36,
          "time": 143.9633522499983,
          "velocity": 0.7480314960629921,
          "duration": 0.18292675000000713
        },
        {
          "name": "A#2",
          "midi": 46,
          "time": 144.14627899999832,
          "velocity": 1,
          "duration": 0.7317070000000001
        },
        {
          "name": "E2",
          "midi": 40,
          "time": 144.14627899999832,
          "velocity": 0.7480314960629921,
          "duration": 0.7317070000000001
        },
        {
          "name": "A3",
          "midi": 57,
          "time": 144.87798599999832,
          "velocity": 0.7480314960629921,
          "duration": 0.18292675000000713
        },
        {
          "name": "C2",
          "midi": 36,
          "time": 144.87798599999832,
          "velocity": 0.7480314960629921,
          "duration": 0.18292675000000713
        },
        {
          "name": "C2",
          "midi": 36,
          "time": 145.06091274999832,
          "velocity": 0.7480314960629921,
          "duration": 0.18292675000000713
        },
        {
          "name": "A3",
          "midi": 57,
          "time": 145.24383949999833,
          "velocity": 0.7480314960629921,
          "duration": 0.18292675000000713
        },
        {
          "name": "C2",
          "midi": 36,
          "time": 145.24383949999833,
          "velocity": 0.7480314960629921,
          "duration": 0.18292675000000713
        },
        {
          "name": "C2",
          "midi": 36,
          "time": 145.42676624999834,
          "velocity": 0.7480314960629921,
          "duration": 0.18292675000000713
        },
        {
          "name": "A#2",
          "midi": 46,
          "time": 145.60969299999834,
          "velocity": 1,
          "duration": 0.7317070000000001
        },
        {
          "name": "E2",
          "midi": 40,
          "time": 145.60969299999834,
          "velocity": 0.7480314960629921,
          "duration": 0.7317070000000001
        },
        {
          "name": "A3",
          "midi": 57,
          "time": 146.34139999999834,
          "velocity": 0.7480314960629921,
          "duration": 0.18292675000000713
        },
        {
          "name": "C2",
          "midi": 36,
          "time": 146.34139999999834,
          "velocity": 0.7480314960629921,
          "duration": 0.18292675000000713
        },
        {
          "name": "C2",
          "midi": 36,
          "time": 146.52432674999835,
          "velocity": 0.7480314960629921,
          "duration": 0.18292675000000713
        },
        {
          "name": "A3",
          "midi": 57,
          "time": 146.70725349999836,
          "velocity": 0.7480314960629921,
          "duration": 0.18292675000000713
        },
        {
          "name": "C2",
          "midi": 36,
          "time": 146.70725349999836,
          "velocity": 0.7480314960629921,
          "duration": 0.18292675000000713
        },
        {
          "name": "C2",
          "midi": 36,
          "time": 146.89018024999837,
          "velocity": 0.7480314960629921,
          "duration": 0.18292675000000713
        },
        {
          "name": "A#2",
          "midi": 46,
          "time": 147.07310699999837,
          "velocity": 1,
          "duration": 0.7317070000000001
        },
        {
          "name": "E2",
          "midi": 40,
          "time": 147.07310699999837,
          "velocity": 0.7480314960629921,
          "duration": 0.7317070000000001
        },
        {
          "name": "A3",
          "midi": 57,
          "time": 147.80481399999837,
          "velocity": 0.7480314960629921,
          "duration": 0.18292675000000713
        },
        {
          "name": "C2",
          "midi": 36,
          "time": 147.80481399999837,
          "velocity": 0.7480314960629921,
          "duration": 0.18292675000000713
        },
        {
          "name": "C2",
          "midi": 36,
          "time": 147.98774074999838,
          "velocity": 0.7480314960629921,
          "duration": 0.18292675000000713
        },
        {
          "name": "A3",
          "midi": 57,
          "time": 148.1706674999984,
          "velocity": 0.7480314960629921,
          "duration": 0.18292675000000713
        },
        {
          "name": "C2",
          "midi": 36,
          "time": 148.1706674999984,
          "velocity": 0.7480314960629921,
          "duration": 0.18292675000000713
        },
        {
          "name": "C2",
          "midi": 36,
          "time": 148.3535942499984,
          "velocity": 0.7480314960629921,
          "duration": 0.18292675000000713
        },
        {
          "name": "E2",
          "midi": 40,
          "time": 148.5365209999984,
          "velocity": 0.7480314960629921,
          "duration": 0.18292675000000713
        },
        {
          "name": "C2",
          "midi": 36,
          "time": 148.7194477499984,
          "velocity": 0.7480314960629921,
          "duration": 0.18292675000000713
        },
        {
          "name": "E2",
          "midi": 40,
          "time": 148.90237449999842,
          "velocity": 0.7480314960629921,
          "duration": 0.18292675000000713
        },
        {
          "name": "C2",
          "midi": 36,
          "time": 149.08530124999842,
          "velocity": 0.7480314960629921,
          "duration": 0.18292675000000713
        },
        {
          "name": "A3",
          "midi": 57,
          "time": 149.26822799999843,
          "velocity": 0.7480314960629921,
          "duration": 0.18292675000000713
        },
        {
          "name": "C2",
          "midi": 36,
          "time": 149.26822799999843,
          "velocity": 0.7480314960629921,
          "duration": 0.18292675000000713
        },
        {
          "name": "C2",
          "midi": 36,
          "time": 149.45115474999844,
          "velocity": 0.7480314960629921,
          "duration": 0.18292675000000713
        },
        {
          "name": "A3",
          "midi": 57,
          "time": 149.63408149999844,
          "velocity": 0.7480314960629921,
          "duration": 0.18292675000000713
        },
        {
          "name": "C2",
          "midi": 36,
          "time": 149.63408149999844,
          "velocity": 0.7480314960629921,
          "duration": 0.18292675000000713
        },
        {
          "name": "C2",
          "midi": 36,
          "time": 149.81700824999845,
          "velocity": 0.7480314960629921,
          "duration": 0.18292675000000713
        },
        {
          "name": "A#2",
          "midi": 46,
          "time": 149.99993499999846,
          "velocity": 1,
          "duration": 0.7317070000000001
        },
        {
          "name": "E2",
          "midi": 40,
          "time": 149.99993499999846,
          "velocity": 0.7480314960629921,
          "duration": 0.7317070000000001
        },
        {
          "name": "A3",
          "midi": 57,
          "time": 150.73164199999846,
          "velocity": 0.7480314960629921,
          "duration": 0.18292675000000713
        },
        {
          "name": "C2",
          "midi": 36,
          "time": 150.73164199999846,
          "velocity": 0.7480314960629921,
          "duration": 0.18292675000000713
        },
        {
          "name": "C2",
          "midi": 36,
          "time": 150.91456874999847,
          "velocity": 0.7480314960629921,
          "duration": 0.18292675000000713
        },
        {
          "name": "A3",
          "midi": 57,
          "time": 151.09749549999847,
          "velocity": 0.7480314960629921,
          "duration": 0.18292675000000713
        },
        {
          "name": "C2",
          "midi": 36,
          "time": 151.09749549999847,
          "velocity": 0.7480314960629921,
          "duration": 0.18292675000000713
        },
        {
          "name": "C2",
          "midi": 36,
          "time": 151.28042224999848,
          "velocity": 0.7480314960629921,
          "duration": 0.18292675000000713
        },
        {
          "name": "A#2",
          "midi": 46,
          "time": 151.4633489999985,
          "velocity": 1,
          "duration": 0.7317070000000001
        },
        {
          "name": "E2",
          "midi": 40,
          "time": 151.4633489999985,
          "velocity": 0.7480314960629921,
          "duration": 0.7317070000000001
        },
        {
          "name": "A3",
          "midi": 57,
          "time": 152.1950559999985,
          "velocity": 0.7480314960629921,
          "duration": 0.18292675000000713
        },
        {
          "name": "C2",
          "midi": 36,
          "time": 152.1950559999985,
          "velocity": 0.7480314960629921,
          "duration": 0.18292675000000713
        },
        {
          "name": "C2",
          "midi": 36,
          "time": 152.3779827499985,
          "velocity": 0.7480314960629921,
          "duration": 0.18292675000000713
        },
        {
          "name": "A3",
          "midi": 57,
          "time": 152.5609094999985,
          "velocity": 0.7480314960629921,
          "duration": 0.18292675000000713
        },
        {
          "name": "C2",
          "midi": 36,
          "time": 152.5609094999985,
          "velocity": 0.7480314960629921,
          "duration": 0.18292675000000713
        },
        {
          "name": "C2",
          "midi": 36,
          "time": 152.7438362499985,
          "velocity": 0.7480314960629921,
          "duration": 0.18292675000000713
        },
        {
          "name": "A#2",
          "midi": 46,
          "time": 152.92676299999852,
          "velocity": 0.7480314960629921,
          "duration": 0.18292675000000713
        },
        {
          "name": "E2",
          "midi": 40,
          "time": 152.92676299999852,
          "velocity": 0.7480314960629921,
          "duration": 0.18292675000000713
        },
        {
          "name": "A#2",
          "midi": 46,
          "time": 153.29261649999853,
          "velocity": 0.7480314960629921,
          "duration": 0.18292675000000713
        },
        {
          "name": "E2",
          "midi": 40,
          "time": 153.29261649999853,
          "velocity": 0.7480314960629921,
          "duration": 0.18292675000000713
        },
        {
          "name": "A#2",
          "midi": 46,
          "time": 153.65846999999854,
          "velocity": 0.7480314960629921,
          "duration": 0.18292675000000713
        },
        {
          "name": "C2",
          "midi": 36,
          "time": 153.65846999999854,
          "velocity": 0.7480314960629921,
          "duration": 0.18292675000000713
        },
        {
          "name": "E2",
          "midi": 40,
          "time": 153.84139674999855,
          "velocity": 0.7480314960629921,
          "duration": 0.18292675000000713
        },
        {
          "name": "A#2",
          "midi": 46,
          "time": 154.02432349999856,
          "velocity": 0.7480314960629921,
          "duration": 0.18292675000000713
        },
        {
          "name": "C2",
          "midi": 36,
          "time": 154.20725024999857,
          "velocity": 0.7480314960629921,
          "duration": 0.18292675000000713
        },
        {
          "name": "A#2",
          "midi": 46,
          "time": 154.39017699999857,
          "velocity": 0.7480314960629921,
          "duration": 0.18292675000000713
        },
        {
          "name": "E2",
          "midi": 40,
          "time": 154.39017699999857,
          "velocity": 0.7480314960629921,
          "duration": 0.18292675000000713
        },
        {
          "name": "C2",
          "midi": 36,
          "time": 154.57310374999858,
          "velocity": 0.7480314960629921,
          "duration": 0.18292675000000713
        },
        {
          "name": "A#2",
          "midi": 46,
          "time": 154.7560304999986,
          "velocity": 0.7480314960629921,
          "duration": 0.18292675000000713
        },
        {
          "name": "C2",
          "midi": 36,
          "time": 154.7560304999986,
          "velocity": 0.7480314960629921,
          "duration": 0.18292675000000713
        },
        {
          "name": "E2",
          "midi": 40,
          "time": 155.1218839999986,
          "velocity": 0.7480314960629921,
          "duration": 0.18292675000000713
        },
        {
          "name": "G2",
          "midi": 43,
          "time": 155.3048107499986,
          "velocity": 0.7480314960629921,
          "duration": 0.36585349999998584
        },
        {
          "name": "G2",
          "midi": 43,
          "time": 155.6706642499986,
          "velocity": 0.7480314960629921,
          "duration": 0.36585349999998584
        },
        {
          "name": "G2",
          "midi": 43,
          "time": 156.03651774999858,
          "velocity": 0.7480314960629921,
          "duration": 0.18292675000000713
        },
        {
          "name": "A3",
          "midi": 57,
          "time": 156.2194444999986,
          "velocity": 0.7480314960629921,
          "duration": 0.36585349999998584
        },
        {
          "name": "A3",
          "midi": 57,
          "time": 162.43895399999857,
          "velocity": 0.7480314960629921,
          "duration": 2.9268280000000004
        },
        {
          "name": "C2",
          "midi": 36,
          "time": 162.43895399999857,
          "velocity": 0.7480314960629921,
          "duration": 2.9268280000000004
        },
        {
          "name": "A3",
          "midi": 57,
          "time": 168.29260999999858,
          "velocity": 0.7480314960629921,
          "duration": 2.9268280000000004
        },
        {
          "name": "C2",
          "midi": 36,
          "time": 168.29260999999858,
          "velocity": 0.7480314960629921,
          "duration": 2.9268280000000004
        },
        {
          "name": "A3",
          "midi": 57,
          "time": 174.14626599999858,
          "velocity": 0.7480314960629921,
          "duration": 2.9268280000000004
        },
        {
          "name": "C2",
          "midi": 36,
          "time": 174.14626599999858,
          "velocity": 0.7480314960629921,
          "duration": 2.9268280000000004
        },
        {
          "name": "A3",
          "midi": 57,
          "time": 177.07309399999858,
          "velocity": 0.7480314960629921,
          "duration": 0.18292675000000713
        },
        {
          "name": "C2",
          "midi": 36,
          "time": 177.07309399999858,
          "velocity": 0.7480314960629921,
          "duration": 0.18292675000000713
        },
        {
          "name": "A3",
          "midi": 57,
          "time": 177.25602074999858,
          "velocity": 0.7480314960629921,
          "duration": 0.18292675000000713
        },
        {
          "name": "C2",
          "midi": 36,
          "time": 177.25602074999858,
          "velocity": 0.7480314960629921,
          "duration": 0.18292675000000713
        },
        {
          "name": "G2",
          "midi": 43,
          "time": 179.26821499999858,
          "velocity": 0.7480314960629921,
          "duration": 0.18292675000000713
        },
        {
          "name": "E2",
          "midi": 40,
          "time": 179.26821499999858,
          "velocity": 0.7480314960629921,
          "duration": 0.18292675000000713
        },
        {
          "name": "A2",
          "midi": 45,
          "time": 179.45114174999858,
          "velocity": 0.7480314960629921,
          "duration": 0.09146337499998936
        },
        {
          "name": "B2",
          "midi": 47,
          "time": 179.54260512499857,
          "velocity": 0.7480314960629921,
          "duration": 0.09146337499998936
        },
        {
          "name": "G2",
          "midi": 43,
          "time": 179.63406849999856,
          "velocity": 0.7480314960629921,
          "duration": 0.18292675000000713
        },
        {
          "name": "F2",
          "midi": 41,
          "time": 179.63406849999856,
          "velocity": 0.7480314960629921,
          "duration": 0.18292675000000713
        },
        {
          "name": "A3",
          "midi": 57,
          "time": 179.99992199999858,
          "velocity": 0.7480314960629921,
          "duration": 0.18292675000000713
        },
        {
          "name": "E2",
          "midi": 40,
          "time": 179.99992199999858,
          "velocity": 0.7480314960629921,
          "duration": 0.18292675000000713
        },
        {
          "name": "C2",
          "midi": 36,
          "time": 179.99992199999858,
          "velocity": 0.7480314960629921,
          "duration": 0.18292675000000713
        },
        {
          "name": "C2",
          "midi": 36,
          "time": 180.18284874999858,
          "velocity": 0.7480314960629921,
          "duration": 0.18292675000000713
        },
        {
          "name": "A3",
          "midi": 57,
          "time": 180.3657754999986,
          "velocity": 0.7480314960629921,
          "duration": 0.18292675000000713
        },
        {
          "name": "C2",
          "midi": 36,
          "time": 180.3657754999986,
          "velocity": 0.7480314960629921,
          "duration": 0.18292675000000713
        },
        {
          "name": "C2",
          "midi": 36,
          "time": 180.5487022499986,
          "velocity": 0.7480314960629921,
          "duration": 0.18292675000000713
        },
        {
          "name": "A3",
          "midi": 57,
          "time": 180.7316289999986,
          "velocity": 0.7480314960629921,
          "duration": 0.18292675000000713
        },
        {
          "name": "E2",
          "midi": 40,
          "time": 180.7316289999986,
          "velocity": 0.7480314960629921,
          "duration": 0.18292675000000713
        },
        {
          "name": "A3",
          "midi": 57,
          "time": 181.09748249999862,
          "velocity": 0.7480314960629921,
          "duration": 0.18292675000000713
        },
        {
          "name": "A3",
          "midi": 57,
          "time": 181.46333599999863,
          "velocity": 0.7480314960629921,
          "duration": 0.18292675000000713
        },
        {
          "name": "E2",
          "midi": 40,
          "time": 181.46333599999863,
          "velocity": 0.7480314960629921,
          "duration": 0.18292675000000713
        },
        {
          "name": "C2",
          "midi": 36,
          "time": 181.46333599999863,
          "velocity": 0.7480314960629921,
          "duration": 0.18292675000000713
        },
        {
          "name": "C2",
          "midi": 36,
          "time": 181.64626274999864,
          "velocity": 0.7480314960629921,
          "duration": 0.18292675000000713
        },
        {
          "name": "A3",
          "midi": 57,
          "time": 181.82918949999865,
          "velocity": 0.7480314960629921,
          "duration": 0.18292675000000713
        },
        {
          "name": "C2",
          "midi": 36,
          "time": 181.82918949999865,
          "velocity": 0.7480314960629921,
          "duration": 0.18292675000000713
        },
        {
          "name": "C2",
          "midi": 36,
          "time": 182.01211624999866,
          "velocity": 0.7480314960629921,
          "duration": 0.18292675000000713
        },
        {
          "name": "A3",
          "midi": 57,
          "time": 182.19504299999866,
          "velocity": 0.7480314960629921,
          "duration": 0.18292675000000713
        },
        {
          "name": "E2",
          "midi": 40,
          "time": 182.19504299999866,
          "velocity": 0.7480314960629921,
          "duration": 0.18292675000000713
        },
        {
          "name": "A3",
          "midi": 57,
          "time": 182.56089649999868,
          "velocity": 0.7480314960629921,
          "duration": 0.18292675000000713
        },
        {
          "name": "A3",
          "midi": 57,
          "time": 182.9267499999987,
          "velocity": 0.7480314960629921,
          "duration": 0.18292675000000713
        },
        {
          "name": "E2",
          "midi": 40,
          "time": 182.9267499999987,
          "velocity": 0.7480314960629921,
          "duration": 0.18292675000000713
        },
        {
          "name": "C2",
          "midi": 36,
          "time": 182.9267499999987,
          "velocity": 0.7480314960629921,
          "duration": 0.18292675000000713
        },
        {
          "name": "C2",
          "midi": 36,
          "time": 183.1096767499987,
          "velocity": 0.7480314960629921,
          "duration": 0.18292675000000713
        },
        {
          "name": "A3",
          "midi": 57,
          "time": 183.2926034999987,
          "velocity": 0.7480314960629921,
          "duration": 0.18292675000000713
        },
        {
          "name": "C2",
          "midi": 36,
          "time": 183.2926034999987,
          "velocity": 0.7480314960629921,
          "duration": 0.18292675000000713
        },
        {
          "name": "C2",
          "midi": 36,
          "time": 183.4755302499987,
          "velocity": 0.7480314960629921,
          "duration": 0.18292675000000713
        },
        {
          "name": "A3",
          "midi": 57,
          "time": 183.65845699999872,
          "velocity": 0.7480314960629921,
          "duration": 0.18292675000000713
        },
        {
          "name": "E2",
          "midi": 40,
          "time": 183.65845699999872,
          "velocity": 0.7480314960629921,
          "duration": 0.18292675000000713
        },
        {
          "name": "A3",
          "midi": 57,
          "time": 184.02431049999873,
          "velocity": 0.7480314960629921,
          "duration": 0.18292675000000713
        },
        {
          "name": "A3",
          "midi": 57,
          "time": 184.39016399999875,
          "velocity": 0.7480314960629921,
          "duration": 0.18292675000000713
        },
        {
          "name": "E2",
          "midi": 40,
          "time": 184.39016399999875,
          "velocity": 0.7480314960629921,
          "duration": 0.18292675000000713
        },
        {
          "name": "C2",
          "midi": 36,
          "time": 184.39016399999875,
          "velocity": 0.7480314960629921,
          "duration": 0.18292675000000713
        },
        {
          "name": "C2",
          "midi": 36,
          "time": 184.57309074999876,
          "velocity": 0.7480314960629921,
          "duration": 0.18292675000000713
        },
        {
          "name": "A3",
          "midi": 57,
          "time": 184.75601749999876,
          "velocity": 0.7480314960629921,
          "duration": 0.18292675000000713
        },
        {
          "name": "C2",
          "midi": 36,
          "time": 184.75601749999876,
          "velocity": 0.7480314960629921,
          "duration": 0.18292675000000713
        },
        {
          "name": "C2",
          "midi": 36,
          "time": 184.93894424999877,
          "velocity": 0.7480314960629921,
          "duration": 0.18292675000000713
        },
        {
          "name": "A#2",
          "midi": 46,
          "time": 185.12187099999878,
          "velocity": 1,
          "duration": 0.18292675000000713
        },
        {
          "name": "E2",
          "midi": 40,
          "time": 185.12187099999878,
          "velocity": 0.7480314960629921,
          "duration": 0.18292675000000713
        },
        {
          "name": "C2",
          "midi": 36,
          "time": 185.30479774999878,
          "velocity": 0.7480314960629921,
          "duration": 0.18292675000000713
        },
        {
          "name": "E2",
          "midi": 40,
          "time": 185.4877244999988,
          "velocity": 0.7480314960629921,
          "duration": 0.18292675000000713
        },
        {
          "name": "C2",
          "midi": 36,
          "time": 185.6706512499988,
          "velocity": 0.7480314960629921,
          "duration": 0.18292675000000713
        },
        {
          "name": "A3",
          "midi": 57,
          "time": 185.8535779999988,
          "velocity": 0.7480314960629921,
          "duration": 0.18292675000000713
        },
        {
          "name": "E2",
          "midi": 40,
          "time": 185.8535779999988,
          "velocity": 0.7480314960629921,
          "duration": 0.18292675000000713
        },
        {
          "name": "C2",
          "midi": 36,
          "time": 185.8535779999988,
          "velocity": 0.7480314960629921,
          "duration": 0.18292675000000713
        },
        {
          "name": "C2",
          "midi": 36,
          "time": 186.0365047499988,
          "velocity": 0.7480314960629921,
          "duration": 0.18292675000000713
        },
        {
          "name": "A3",
          "midi": 57,
          "time": 186.21943149999882,
          "velocity": 0.7480314960629921,
          "duration": 0.18292675000000713
        },
        {
          "name": "C2",
          "midi": 36,
          "time": 186.21943149999882,
          "velocity": 0.7480314960629921,
          "duration": 0.18292675000000713
        },
        {
          "name": "C2",
          "midi": 36,
          "time": 186.40235824999883,
          "velocity": 0.7480314960629921,
          "duration": 0.18292675000000713
        },
        {
          "name": "A3",
          "midi": 57,
          "time": 186.58528499999883,
          "velocity": 0.7480314960629921,
          "duration": 0.18292675000000713
        },
        {
          "name": "E2",
          "midi": 40,
          "time": 186.58528499999883,
          "velocity": 0.7480314960629921,
          "duration": 0.18292675000000713
        },
        {
          "name": "A3",
          "midi": 57,
          "time": 186.95113849999885,
          "velocity": 0.7480314960629921,
          "duration": 0.18292675000000713
        },
        {
          "name": "A3",
          "midi": 57,
          "time": 187.31699199999886,
          "velocity": 0.7480314960629921,
          "duration": 0.18292675000000713
        },
        {
          "name": "E2",
          "midi": 40,
          "time": 187.31699199999886,
          "velocity": 0.7480314960629921,
          "duration": 0.18292675000000713
        },
        {
          "name": "C2",
          "midi": 36,
          "time": 187.31699199999886,
          "velocity": 0.7480314960629921,
          "duration": 0.18292675000000713
        },
        {
          "name": "C2",
          "midi": 36,
          "time": 187.49991874999887,
          "velocity": 0.7480314960629921,
          "duration": 0.18292675000000713
        },
        {
          "name": "A3",
          "midi": 57,
          "time": 187.68284549999888,
          "velocity": 0.7480314960629921,
          "duration": 0.18292675000000713
        },
        {
          "name": "C2",
          "midi": 36,
          "time": 187.68284549999888,
          "velocity": 0.7480314960629921,
          "duration": 0.18292675000000713
        },
        {
          "name": "C2",
          "midi": 36,
          "time": 187.86577224999888,
          "velocity": 0.7480314960629921,
          "duration": 0.18292675000000713
        },
        {
          "name": "A3",
          "midi": 57,
          "time": 188.0486989999989,
          "velocity": 0.7480314960629921,
          "duration": 0.18292675000000713
        },
        {
          "name": "E2",
          "midi": 40,
          "time": 188.0486989999989,
          "velocity": 0.7480314960629921,
          "duration": 0.18292675000000713
        },
        {
          "name": "A3",
          "midi": 57,
          "time": 188.4145524999989,
          "velocity": 0.7480314960629921,
          "duration": 0.18292675000000713
        },
        {
          "name": "A3",
          "midi": 57,
          "time": 188.78040599999892,
          "velocity": 0.7480314960629921,
          "duration": 0.18292675000000713
        },
        {
          "name": "E2",
          "midi": 40,
          "time": 188.78040599999892,
          "velocity": 0.7480314960629921,
          "duration": 0.18292675000000713
        },
        {
          "name": "C2",
          "midi": 36,
          "time": 188.78040599999892,
          "velocity": 0.7480314960629921,
          "duration": 0.18292675000000713
        },
        {
          "name": "C2",
          "midi": 36,
          "time": 188.96333274999893,
          "velocity": 0.7480314960629921,
          "duration": 0.18292675000000713
        },
        {
          "name": "A3",
          "midi": 57,
          "time": 189.14625949999893,
          "velocity": 0.7480314960629921,
          "duration": 0.18292675000000713
        },
        {
          "name": "C2",
          "midi": 36,
          "time": 189.14625949999893,
          "velocity": 0.7480314960629921,
          "duration": 0.18292675000000713
        },
        {
          "name": "C2",
          "midi": 36,
          "time": 189.32918624999894,
          "velocity": 0.7480314960629921,
          "duration": 0.18292675000000713
        },
        {
          "name": "A3",
          "midi": 57,
          "time": 189.51211299999895,
          "velocity": 0.7480314960629921,
          "duration": 0.18292675000000713
        },
        {
          "name": "E2",
          "midi": 40,
          "time": 189.51211299999895,
          "velocity": 0.7480314960629921,
          "duration": 0.18292675000000713
        },
        {
          "name": "A3",
          "midi": 57,
          "time": 189.87796649999896,
          "velocity": 0.7480314960629921,
          "duration": 0.18292675000000713
        },
        {
          "name": "A3",
          "midi": 57,
          "time": 190.24381999999898,
          "velocity": 0.7480314960629921,
          "duration": 0.18292675000000713
        },
        {
          "name": "E2",
          "midi": 40,
          "time": 190.24381999999898,
          "velocity": 0.7480314960629921,
          "duration": 0.18292675000000713
        },
        {
          "name": "C2",
          "midi": 36,
          "time": 190.24381999999898,
          "velocity": 0.7480314960629921,
          "duration": 0.18292675000000713
        },
        {
          "name": "C2",
          "midi": 36,
          "time": 190.42674674999898,
          "velocity": 0.7480314960629921,
          "duration": 0.18292675000000713
        },
        {
          "name": "E2",
          "midi": 40,
          "time": 190.609673499999,
          "velocity": 0.7480314960629921,
          "duration": 0.09146337499998936
        },
        {
          "name": "E2",
          "midi": 40,
          "time": 190.70113687499898,
          "velocity": 0.7480314960629921,
          "duration": 0.09146337499998936
        },
        {
          "name": "E2",
          "midi": 40,
          "time": 190.79260024999897,
          "velocity": 0.7480314960629921,
          "duration": 0.09146337499998936
        },
        {
          "name": "A2",
          "midi": 45,
          "time": 190.88406362499896,
          "velocity": 0.7480314960629921,
          "duration": 0.09146337499998936
        },
        {
          "name": "A2",
          "midi": 45,
          "time": 190.97552699999895,
          "velocity": 0.7480314960629921,
          "duration": 0.09146337499998936
        },
        {
          "name": "A2",
          "midi": 45,
          "time": 191.06699037499894,
          "velocity": 0.7480314960629921,
          "duration": 0.09146337499998936
        },
        {
          "name": "A2",
          "midi": 45,
          "time": 191.15845374999893,
          "velocity": 0.7480314960629921,
          "duration": 0.09146337499998936
        },
        {
          "name": "E2",
          "midi": 40,
          "time": 191.24991712499892,
          "velocity": 0.7480314960629921,
          "duration": 0.09146337499998936
        },
        {
          "name": "E2",
          "midi": 40,
          "time": 191.3413804999989,
          "velocity": 0.7480314960629921,
          "duration": 0.09146337499998936
        },
        {
          "name": "E2",
          "midi": 40,
          "time": 191.4328438749989,
          "velocity": 0.7480314960629921,
          "duration": 0.09146337499998936
        },
        {
          "name": "E2",
          "midi": 40,
          "time": 191.52430724999888,
          "velocity": 0.7480314960629921,
          "duration": 0.09146337499998936
        },
        {
          "name": "E2",
          "midi": 40,
          "time": 191.61577062499887,
          "velocity": 0.7480314960629921,
          "duration": 0.09146337499998936
        },
        {
          "name": "A3",
          "midi": 57,
          "time": 191.70723399999886,
          "velocity": 0.7480314960629921,
          "duration": 0.18292675000000713
        },
        {
          "name": "C2",
          "midi": 36,
          "time": 191.70723399999886,
          "velocity": 0.7480314960629921,
          "duration": 0.18292675000000713
        },
        {
          "name": "C2",
          "midi": 36,
          "time": 191.89016074999887,
          "velocity": 0.7480314960629921,
          "duration": 0.18292675000000713
        },
        {
          "name": "A3",
          "midi": 57,
          "time": 192.07308749999888,
          "velocity": 0.7480314960629921,
          "duration": 0.18292675000000713
        },
        {
          "name": "E2",
          "midi": 40,
          "time": 192.07308749999888,
          "velocity": 0.7480314960629921,
          "duration": 0.18292675000000713
        },
        {
          "name": "C2",
          "midi": 36,
          "time": 192.25601424999888,
          "velocity": 0.7480314960629921,
          "duration": 0.18292675000000713
        },
        {
          "name": "A3",
          "midi": 57,
          "time": 192.4389409999989,
          "velocity": 0.7480314960629921,
          "duration": 0.18292675000000713
        },
        {
          "name": "C2",
          "midi": 36,
          "time": 192.6218677499989,
          "velocity": 0.7480314960629921,
          "duration": 0.18292675000000713
        },
        {
          "name": "A3",
          "midi": 57,
          "time": 192.8047944999989,
          "velocity": 0.7480314960629921,
          "duration": 0.18292675000000713
        },
        {
          "name": "E2",
          "midi": 40,
          "time": 192.8047944999989,
          "velocity": 0.7480314960629921,
          "duration": 0.18292675000000713
        },
        {
          "name": "A3",
          "midi": 57,
          "time": 193.17064799999892,
          "velocity": 0.7480314960629921,
          "duration": 0.18292675000000713
        },
        {
          "name": "C2",
          "midi": 36,
          "time": 193.35357474999893,
          "velocity": 0.7480314960629921,
          "duration": 0.18292675000000713
        },
        {
          "name": "A3",
          "midi": 57,
          "time": 193.53650149999893,
          "velocity": 0.7480314960629921,
          "duration": 0.18292675000000713
        },
        {
          "name": "E2",
          "midi": 40,
          "time": 193.53650149999893,
          "velocity": 0.7480314960629921,
          "duration": 0.18292675000000713
        },
        {
          "name": "A3",
          "midi": 57,
          "time": 193.90235499999895,
          "velocity": 0.7480314960629921,
          "duration": 0.18292675000000713
        },
        {
          "name": "C2",
          "midi": 36,
          "time": 193.90235499999895,
          "velocity": 0.7480314960629921,
          "duration": 0.18292675000000713
        },
        {
          "name": "C2",
          "midi": 36,
          "time": 194.08528174999896,
          "velocity": 0.7480314960629921,
          "duration": 0.18292675000000713
        },
        {
          "name": "A3",
          "midi": 57,
          "time": 194.26820849999896,
          "velocity": 0.7480314960629921,
          "duration": 0.18292675000000713
        },
        {
          "name": "E2",
          "midi": 40,
          "time": 194.26820849999896,
          "velocity": 0.7480314960629921,
          "duration": 0.18292675000000713
        },
        {
          "name": "C2",
          "midi": 36,
          "time": 194.45113524999897,
          "velocity": 0.7480314960629921,
          "duration": 0.18292675000000713
        },
        {
          "name": "A3",
          "midi": 57,
          "time": 194.63406199999898,
          "velocity": 0.7480314960629921,
          "duration": 0.18292675000000713
        },
        {
          "name": "C2",
          "midi": 36,
          "time": 194.63406199999898,
          "velocity": 0.7480314960629921,
          "duration": 0.18292675000000713
        },
        {
          "name": "C2",
          "midi": 36,
          "time": 194.81698874999898,
          "velocity": 0.7480314960629921,
          "duration": 0.18292675000000713
        },
        {
          "name": "A3",
          "midi": 57,
          "time": 194.999915499999,
          "velocity": 0.7480314960629921,
          "duration": 0.18292675000000713
        },
        {
          "name": "E2",
          "midi": 40,
          "time": 194.999915499999,
          "velocity": 0.7480314960629921,
          "duration": 0.18292675000000713
        },
        {
          "name": "C2",
          "midi": 36,
          "time": 195.182842249999,
          "velocity": 0.7480314960629921,
          "duration": 0.18292675000000713
        },
        {
          "name": "A3",
          "midi": 57,
          "time": 195.365768999999,
          "velocity": 0.7480314960629921,
          "duration": 0.18292675000000713
        },
        {
          "name": "C2",
          "midi": 36,
          "time": 195.548695749999,
          "velocity": 0.7480314960629921,
          "duration": 0.18292675000000713
        },
        {
          "name": "A3",
          "midi": 57,
          "time": 195.73162249999902,
          "velocity": 0.7480314960629921,
          "duration": 0.18292675000000713
        },
        {
          "name": "E2",
          "midi": 40,
          "time": 195.73162249999902,
          "velocity": 0.7480314960629921,
          "duration": 0.18292675000000713
        },
        {
          "name": "A3",
          "midi": 57,
          "time": 196.09747599999903,
          "velocity": 0.7480314960629921,
          "duration": 0.18292675000000713
        },
        {
          "name": "C2",
          "midi": 36,
          "time": 196.28040274999904,
          "velocity": 0.7480314960629921,
          "duration": 0.18292675000000713
        },
        {
          "name": "A3",
          "midi": 57,
          "time": 196.46332949999905,
          "velocity": 0.7480314960629921,
          "duration": 0.18292675000000713
        },
        {
          "name": "E2",
          "midi": 40,
          "time": 196.46332949999905,
          "velocity": 0.7480314960629921,
          "duration": 0.18292675000000713
        },
        {
          "name": "A3",
          "midi": 57,
          "time": 196.82918299999906,
          "velocity": 0.7480314960629921,
          "duration": 0.18292675000000713
        },
        {
          "name": "C2",
          "midi": 36,
          "time": 196.82918299999906,
          "velocity": 0.7480314960629921,
          "duration": 0.18292675000000713
        },
        {
          "name": "C2",
          "midi": 36,
          "time": 197.01210974999907,
          "velocity": 0.7480314960629921,
          "duration": 0.18292675000000713
        },
        {
          "name": "A3",
          "midi": 57,
          "time": 197.19503649999908,
          "velocity": 0.7480314960629921,
          "duration": 0.18292675000000713
        },
        {
          "name": "E2",
          "midi": 40,
          "time": 197.19503649999908,
          "velocity": 0.7480314960629921,
          "duration": 0.18292675000000713
        },
        {
          "name": "C2",
          "midi": 36,
          "time": 197.37796324999908,
          "velocity": 0.7480314960629921,
          "duration": 0.18292675000000713
        },
        {
          "name": "A3",
          "midi": 57,
          "time": 197.5608899999991,
          "velocity": 0.7480314960629921,
          "duration": 0.18292675000000713
        },
        {
          "name": "C2",
          "midi": 36,
          "time": 197.5608899999991,
          "velocity": 0.7480314960629921,
          "duration": 0.18292675000000713
        },
        {
          "name": "C2",
          "midi": 36,
          "time": 197.7438167499991,
          "velocity": 0.7480314960629921,
          "duration": 0.18292675000000713
        },
        {
          "name": "A3",
          "midi": 57,
          "time": 197.9267434999991,
          "velocity": 0.7480314960629921,
          "duration": 0.18292675000000713
        },
        {
          "name": "E2",
          "midi": 40,
          "time": 197.9267434999991,
          "velocity": 0.7480314960629921,
          "duration": 0.18292675000000713
        },
        {
          "name": "C2",
          "midi": 36,
          "time": 198.1096702499991,
          "velocity": 0.7480314960629921,
          "duration": 0.18292675000000713
        },
        {
          "name": "A3",
          "midi": 57,
          "time": 198.29259699999912,
          "velocity": 0.7480314960629921,
          "duration": 0.18292675000000713
        },
        {
          "name": "C2",
          "midi": 36,
          "time": 198.47552374999913,
          "velocity": 0.7480314960629921,
          "duration": 0.18292675000000713
        },
        {
          "name": "A3",
          "midi": 57,
          "time": 198.65845049999913,
          "velocity": 0.7480314960629921,
          "duration": 0.18292675000000713
        },
        {
          "name": "E2",
          "midi": 40,
          "time": 198.65845049999913,
          "velocity": 0.7480314960629921,
          "duration": 0.18292675000000713
        },
        {
          "name": "A3",
          "midi": 57,
          "time": 199.02430399999915,
          "velocity": 0.7480314960629921,
          "duration": 0.18292675000000713
        },
        {
          "name": "C2",
          "midi": 36,
          "time": 199.20723074999916,
          "velocity": 0.7480314960629921,
          "duration": 0.18292675000000713
        },
        {
          "name": "A3",
          "midi": 57,
          "time": 199.39015749999916,
          "velocity": 0.7480314960629921,
          "duration": 0.18292675000000713
        },
        {
          "name": "E2",
          "midi": 40,
          "time": 199.39015749999916,
          "velocity": 0.7480314960629921,
          "duration": 0.18292675000000713
        },
        {
          "name": "A3",
          "midi": 57,
          "time": 199.75601099999918,
          "velocity": 0.7480314960629921,
          "duration": 0.18292675000000713
        },
        {
          "name": "C2",
          "midi": 36,
          "time": 199.75601099999918,
          "velocity": 0.7480314960629921,
          "duration": 0.18292675000000713
        },
        {
          "name": "C2",
          "midi": 36,
          "time": 199.93893774999918,
          "velocity": 0.7480314960629921,
          "duration": 0.18292675000000713
        },
        {
          "name": "A3",
          "midi": 57,
          "time": 200.1218644999992,
          "velocity": 0.7480314960629921,
          "duration": 0.18292675000000713
        },
        {
          "name": "E2",
          "midi": 40,
          "time": 200.1218644999992,
          "velocity": 0.7480314960629921,
          "duration": 0.18292675000000713
        },
        {
          "name": "C2",
          "midi": 36,
          "time": 200.3047912499992,
          "velocity": 0.7480314960629921,
          "duration": 0.18292675000000713
        },
        {
          "name": "A3",
          "midi": 57,
          "time": 200.4877179999992,
          "velocity": 0.7480314960629921,
          "duration": 0.7317070000000001
        },
        {
          "name": "C2",
          "midi": 36,
          "time": 200.4877179999992,
          "velocity": 0.7480314960629921,
          "duration": 0.7317070000000001
        },
        {
          "name": "E2",
          "midi": 40,
          "time": 203.4145459999992,
          "velocity": 0.7480314960629921,
          "duration": 0.18292675000000713
        },
        {
          "name": "F2",
          "midi": 41,
          "time": 203.5974727499992,
          "velocity": 0.7480314960629921,
          "duration": 0.36585349999998584
        },
        {
          "name": "G2",
          "midi": 43,
          "time": 203.5974727499992,
          "velocity": 0.7480314960629921,
          "duration": 0.36585349999998584
        },
        {
          "name": "F2",
          "midi": 41,
          "time": 203.9633262499992,
          "velocity": 0.7480314960629921,
          "duration": 0.36585349999998584
        },
        {
          "name": "G2",
          "midi": 43,
          "time": 203.9633262499992,
          "velocity": 0.7480314960629921,
          "duration": 0.36585349999998584
        },
        {
          "name": "F2",
          "midi": 41,
          "time": 204.32917974999918,
          "velocity": 0.7480314960629921,
          "duration": 0.18292675000000713
        },
        {
          "name": "G2",
          "midi": 43,
          "time": 204.32917974999918,
          "velocity": 0.7480314960629921,
          "duration": 0.18292675000000713
        },
        {
          "name": "A3",
          "midi": 57,
          "time": 204.5121064999992,
          "velocity": 0.7480314960629921,
          "duration": 0.36585349999998584
        }
      ],
      "controlChanges": {
        "6": [
          {
            "number": 6,
            "time": 0,
            "value": 0.09448818897637795
          }
        ],
        "7": [
          {
            "number": 7,
            "time": 0,
            "value": 0.8818897637795275
          },
          {
            "number": 7,
            "time": 204.87795999999918,
            "value": 0.8661417322834646
          },
          {
            "number": 7,
            "time": 205.06088674999918,
            "value": 0.84251968503937
          },
          {
            "number": 7,
            "time": 205.2438134999992,
            "value": 0.8267716535433071
          },
          {
            "number": 7,
            "time": 205.4267402499992,
            "value": 0.8110236220472441
          },
          {
            "number": 7,
            "time": 205.6096669999992,
            "value": 0.7952755905511811
          },
          {
            "number": 7,
            "time": 205.7925937499992,
            "value": 0.7716535433070866
          },
          {
            "number": 7,
            "time": 205.97552049999922,
            "value": 0.7559055118110236
          },
          {
            "number": 7,
            "time": 206.15844724999923,
            "value": 0.7401574803149606
          },
          {
            "number": 7,
            "time": 206.34137399999923,
            "value": 0.7165354330708661
          },
          {
            "number": 7,
            "time": 206.52430074999924,
            "value": 0.7007874015748031
          },
          {
            "number": 7,
            "time": 206.70722749999925,
            "value": 0.6850393700787402
          },
          {
            "number": 7,
            "time": 206.89015424999926,
            "value": 0.6692913385826772
          },
          {
            "number": 7,
            "time": 207.07308099999926,
            "value": 0.6456692913385826
          },
          {
            "number": 7,
            "time": 207.25600774999927,
            "value": 0.6299212598425197
          },
          {
            "number": 7,
            "time": 207.43893449999928,
            "value": 0.6141732283464567
          },
          {
            "number": 7,
            "time": 207.62186124999928,
            "value": 0.5905511811023622
          },
          {
            "number": 7,
            "time": 207.8047879999993,
            "value": 0.5748031496062992
          },
          {
            "number": 7,
            "time": 207.9877147499993,
            "value": 0.5590551181102362
          },
          {
            "number": 7,
            "time": 208.1706414999993,
            "value": 0.5433070866141733
          },
          {
            "number": 7,
            "time": 208.3535682499993,
            "value": 0.5196850393700787
          },
          {
            "number": 7,
            "time": 208.53649499999932,
            "value": 0.5039370078740157
          },
          {
            "number": 7,
            "time": 208.71942174999933,
            "value": 0.4881889763779528
          },
          {
            "number": 7,
            "time": 208.90234849999933,
            "value": 0.4645669291338583
          },
          {
            "number": 7,
            "time": 209.08527524999934,
            "value": 0.44881889763779526
          },
          {
            "number": 7,
            "time": 209.26820199999935,
            "value": 0.4330708661417323
          },
          {
            "number": 7,
            "time": 209.45112874999936,
            "value": 0.41732283464566927
          },
          {
            "number": 7,
            "time": 209.63405549999936,
            "value": 0.3937007874015748
          },
          {
            "number": 7,
            "time": 209.81698224999937,
            "value": 0.3779527559055118
          },
          {
            "number": 7,
            "time": 209.99990899999938,
            "value": 0.36220472440944884
          },
          {
            "number": 7,
            "time": 210.18283574999938,
            "value": 0.33858267716535434
          },
          {
            "number": 7,
            "time": 210.3657624999994,
            "value": 0.3228346456692913
          },
          {
            "number": 7,
            "time": 210.5486892499994,
            "value": 0.30708661417322836
          },
          {
            "number": 7,
            "time": 210.7316159999994,
            "value": 0.29133858267716534
          },
          {
            "number": 7,
            "time": 210.9145427499994,
            "value": 0.2677165354330709
          },
          {
            "number": 7,
            "time": 211.09746949999942,
            "value": 0.25196850393700787
          },
          {
            "number": 7,
            "time": 211.28039624999943,
            "value": 0.23622047244094488
          },
          {
            "number": 7,
            "time": 211.46332299999943,
            "value": 0.2125984251968504
          },
          {
            "number": 7,
            "time": 211.64624974999944,
            "value": 0.1968503937007874
          },
          {
            "number": 7,
            "time": 211.82917649999945,
            "value": 0.18110236220472442
          },
          {
            "number": 7,
            "time": 212.01210324999946,
            "value": 0.16535433070866143
          },
          {
            "number": 7,
            "time": 212.19502999999946,
            "value": 0.14173228346456693
          },
          {
            "number": 7,
            "time": 212.37795674999947,
            "value": 0.12598425196850394
          },
          {
            "number": 7,
            "time": 212.56088349999948,
            "value": 0.11023622047244094
          },
          {
            "number": 7,
            "time": 212.74381024999948,
            "value": 0.08661417322834646
          },
          {
            "number": 7,
            "time": 212.9267369999995,
            "value": 0.07086614173228346
          },
          {
            "number": 7,
            "time": 213.1096637499995,
            "value": 0.05511811023622047
          },
          {
            "number": 7,
            "time": 213.2925904999995,
            "value": 0.03937007874015748
          },
          {
            "number": 7,
            "time": 213.4755172499995,
            "value": 0.015748031496062992
          },
          {
            "number": 7,
            "time": 213.65844399999952,
            "value": 0
          }
        ],
        "10": [
          {
            "number": 10,
            "time": 0,
            "value": 0.5039370078740157
          }
        ],
        "91": [
          {
            "number": 91,
            "time": 0,
            "value": 0
          }
        ],
        "92": [
          {
            "number": 92,
            "time": 0,
            "value": 0
          }
        ],
        "93": [
          {
            "number": 93,
            "time": 0,
            "value": 0
          }
        ],
        "95": [
          {
            "number": 95,
            "time": 0,
            "value": 0
          }
        ],
        "100": [
          {
            "number": 100,
            "time": 0,
            "value": 0
          }
        ],
        "101": [
          {
            "number": 101,
            "time": 0,
            "value": 0
          }
        ]
      },
      "id": 6,
      "name": "Percussion",
      "instrumentNumber": 0,
      "instrument": "standard kit",
      "instrumentFamily": "drums",
      "channelNumber": 9,
      "isPercussion": true
    }
  ]
}