{
  "header": {
    "PPQ": 384,
    "timeSignature": [
      4,
      4
    ],
    "bpm": 114.0001710002565,
    "name": ""
  },
  "startTime": 0,
  "duration": 239.9941575520913,
  "tracks": [
    {
      "startTime": 0,
      "duration": 0,
      "length": 0,
      "notes": [],
      "controlChanges": {},
      "id": 0
    },
    {
      "startTime": 1.3157874999999999,
      "duration": 239.9941575520873,
      "length": 1474,
      "notes": [
        {
          "name": "F4",
          "midi": 65,
          "time": 1.3157874999999999,
          "velocity": 0.7874015748031497,
          "duration": 0.2576750520833333
        },
        {
          "name": "A#3",
          "midi": 58,
          "time": 1.3157874999999999,
          "velocity": 0.7874015748031497,
          "duration": 0.2576750520833333
        },
        {
          "name": "F4",
          "midi": 65,
          "time": 1.5789449999999998,
          "velocity": 0.7874015748031497,
          "duration": 0.2576750520833333
        },
        {
          "name": "A#3",
          "midi": 58,
          "time": 1.5789449999999998,
          "velocity": 0.7874015748031497,
          "duration": 0.2576750520833333
        },
        {
          "name": "G4",
          "midi": 67,
          "time": 1.8421024999999998,
          "velocity": 0.7874015748031497,
          "duration": 0.2576750520833335
        },
        {
          "name": "C4",
          "midi": 60,
          "time": 1.8421024999999998,
          "velocity": 0.7874015748031497,
          "duration": 0.2576750520833335
        },
        {
          "name": "G4",
          "midi": 67,
          "time": 2.10526,
          "velocity": 0.7874015748031497,
          "duration": 0.2576750520833335
        },
        {
          "name": "C4",
          "midi": 60,
          "time": 2.10526,
          "velocity": 0.7874015748031497,
          "duration": 0.2576750520833335
        },
        {
          "name": "G4",
          "midi": 67,
          "time": 2.3684175,
          "velocity": 0.7874015748031497,
          "duration": 0.2576750520833335
        },
        {
          "name": "C4",
          "midi": 60,
          "time": 2.3684175,
          "velocity": 0.7874015748031497,
          "duration": 0.2576750520833335
        },
        {
          "name": "G4",
          "midi": 67,
          "time": 2.631575,
          "velocity": 0.7874015748031497,
          "duration": 0.5208325520833332
        },
        {
          "name": "C4",
          "midi": 60,
          "time": 2.631575,
          "velocity": 0.7874015748031497,
          "duration": 0.5208325520833332
        },
        {
          "name": "F4",
          "midi": 65,
          "time": 3.4210475000000002,
          "velocity": 0.7874015748031497,
          "duration": 0.2576750520833331
        },
        {
          "name": "A#3",
          "midi": 58,
          "time": 3.4210475000000002,
          "velocity": 0.7874015748031497,
          "duration": 0.2576750520833331
        },
        {
          "name": "F4",
          "midi": 65,
          "time": 3.684205,
          "velocity": 0.7874015748031497,
          "duration": 0.2576750520833335
        },
        {
          "name": "A#3",
          "midi": 58,
          "time": 3.684205,
          "velocity": 0.7874015748031497,
          "duration": 0.2576750520833335
        },
        {
          "name": "D#4",
          "midi": 63,
          "time": 3.9473625,
          "velocity": 0.7874015748031497,
          "duration": 0.2576750520833335
        },
        {
          "name": "G#3",
          "midi": 56,
          "time": 3.9473625,
          "velocity": 0.7874015748031497,
          "duration": 0.2576750520833335
        },
        {
          "name": "D#4",
          "midi": 63,
          "time": 4.210520000000001,
          "velocity": 0.7874015748031497,
          "duration": 0.2576750520833331
        },
        {
          "name": "G#3",
          "midi": 56,
          "time": 4.210520000000001,
          "velocity": 0.7874015748031497,
          "duration": 0.2576750520833331
        },
        {
          "name": "D#4",
          "midi": 63,
          "time": 4.473677500000001,
          "velocity": 0.7874015748031497,
          "duration": 0.2576750520833331
        },
        {
          "name": "G#3",
          "midi": 56,
          "time": 4.473677500000001,
          "velocity": 0.7874015748031497,
          "duration": 0.2576750520833331
        },
        {
          "name": "D#4",
          "midi": 63,
          "time": 4.736835000000001,
          "velocity": 0.7874015748031497,
          "duration": 0.5208325520833332
        },
        {
          "name": "G#3",
          "midi": 56,
          "time": 4.736835000000001,
          "velocity": 0.7874015748031497,
          "duration": 0.5208325520833332
        },
        {
          "name": "F4",
          "midi": 65,
          "time": 5.526307500000001,
          "velocity": 0.7874015748031497,
          "duration": 0.2576750520833331
        },
        {
          "name": "A#3",
          "midi": 58,
          "time": 5.526307500000001,
          "velocity": 0.7874015748031497,
          "duration": 0.2576750520833331
        },
        {
          "name": "F4",
          "midi": 65,
          "time": 5.789465000000001,
          "velocity": 0.7874015748031497,
          "duration": 0.2576750520833331
        },
        {
          "name": "A#3",
          "midi": 58,
          "time": 5.789465000000001,
          "velocity": 0.7874015748031497,
          "duration": 0.2576750520833331
        },
        {
          "name": "G4",
          "midi": 67,
          "time": 6.052622500000001,
          "velocity": 0.7874015748031497,
          "duration": 0.2576750520833331
        },
        {
          "name": "C4",
          "midi": 60,
          "time": 6.052622500000001,
          "velocity": 0.7874015748031497,
          "duration": 0.2576750520833331
        },
        {
          "name": "G4",
          "midi": 67,
          "time": 6.315780000000001,
          "velocity": 0.7874015748031497,
          "duration": 0.2576750520833331
        },
        {
          "name": "C4",
          "midi": 60,
          "time": 6.315780000000001,
          "velocity": 0.7874015748031497,
          "duration": 0.2576750520833331
        },
        {
          "name": "G4",
          "midi": 67,
          "time": 6.578937500000001,
          "velocity": 0.7874015748031497,
          "duration": 0.2576750520833331
        },
        {
          "name": "C4",
          "midi": 60,
          "time": 6.578937500000001,
          "velocity": 0.7874015748031497,
          "duration": 0.2576750520833331
        },
        {
          "name": "G4",
          "midi": 67,
          "time": 6.842095000000001,
          "velocity": 0.7874015748031497,
          "duration": 0.5208325520833332
        },
        {
          "name": "C4",
          "midi": 60,
          "time": 6.842095000000001,
          "velocity": 0.7874015748031497,
          "duration": 0.5208325520833332
        },
        {
          "name": "F4",
          "midi": 65,
          "time": 7.631567500000001,
          "velocity": 0.7874015748031497,
          "duration": 0.2576750520833331
        },
        {
          "name": "A#3",
          "midi": 58,
          "time": 7.631567500000001,
          "velocity": 0.7874015748031497,
          "duration": 0.2576750520833331
        },
        {
          "name": "F4",
          "midi": 65,
          "time": 7.894725000000001,
          "velocity": 0.7874015748031497,
          "duration": 0.25767505208333397
        },
        {
          "name": "A#3",
          "midi": 58,
          "time": 7.894725000000001,
          "velocity": 0.7874015748031497,
          "duration": 0.25767505208333397
        },
        {
          "name": "D#4",
          "midi": 63,
          "time": 8.157882500000001,
          "velocity": 0.7874015748031497,
          "duration": 0.25767505208333397
        },
        {
          "name": "G#3",
          "midi": 56,
          "time": 8.157882500000001,
          "velocity": 0.7874015748031497,
          "duration": 0.25767505208333397
        },
        {
          "name": "D#4",
          "midi": 63,
          "time": 8.421040000000001,
          "velocity": 0.7874015748031497,
          "duration": 0.25767505208333397
        },
        {
          "name": "G#3",
          "midi": 56,
          "time": 8.421040000000001,
          "velocity": 0.7874015748031497,
          "duration": 0.25767505208333397
        },
        {
          "name": "D#4",
          "midi": 63,
          "time": 8.684197500000002,
          "velocity": 0.7874015748031497,
          "duration": 0.25767505208333397
        },
        {
          "name": "G#3",
          "midi": 56,
          "time": 8.684197500000002,
          "velocity": 0.7874015748031497,
          "duration": 0.25767505208333397
        },
        {
          "name": "D#4",
          "midi": 63,
          "time": 8.947355000000002,
          "velocity": 0.7874015748031497,
          "duration": 0.25767505208333397
        },
        {
          "name": "G#3",
          "midi": 56,
          "time": 8.947355000000002,
          "velocity": 0.7874015748031497,
          "duration": 0.25767505208333397
        },
        {
          "name": "D#4",
          "midi": 63,
          "time": 9.210512500000002,
          "velocity": 0.7874015748031497,
          "duration": 0.126096302083333
        },
        {
          "name": "G#3",
          "midi": 56,
          "time": 9.210512500000002,
          "velocity": 0.7874015748031497,
          "duration": 0.126096302083333
        },
        {
          "name": "D#4",
          "midi": 63,
          "time": 9.342091250000001,
          "velocity": 0.7874015748031497,
          "duration": 0.126096302083333
        },
        {
          "name": "G#3",
          "midi": 56,
          "time": 9.342091250000001,
          "velocity": 0.7874015748031497,
          "duration": 0.126096302083333
        },
        {
          "name": "D#4",
          "midi": 63,
          "time": 9.47367,
          "velocity": 0.7874015748031497,
          "duration": 0.126096302083333
        },
        {
          "name": "G#3",
          "midi": 56,
          "time": 9.47367,
          "velocity": 0.7874015748031497,
          "duration": 0.126096302083333
        },
        {
          "name": "D#4",
          "midi": 63,
          "time": 9.60524875,
          "velocity": 0.7874015748031497,
          "duration": 0.126096302083333
        },
        {
          "name": "G#3",
          "midi": 56,
          "time": 9.60524875,
          "velocity": 0.7874015748031497,
          "duration": 0.126096302083333
        },
        {
          "name": "A#3",
          "midi": 58,
          "time": 9.736827499999999,
          "velocity": 0.7874015748031497,
          "duration": 0.25767505208333397
        },
        {
          "name": "F4",
          "midi": 65,
          "time": 9.736827499999999,
          "velocity": 0.7874015748031497,
          "duration": 0.25767505208333397
        },
        {
          "name": "F4",
          "midi": 65,
          "time": 9.999984999999999,
          "velocity": 0.7874015748031497,
          "duration": 0.25767505208333397
        },
        {
          "name": "A#3",
          "midi": 58,
          "time": 9.999984999999999,
          "velocity": 0.7874015748031497,
          "duration": 0.25767505208333397
        },
        {
          "name": "F4",
          "midi": 65,
          "time": 10.263142499999999,
          "velocity": 0.7874015748031497,
          "duration": 0.2576750520833322
        },
        {
          "name": "A#3",
          "midi": 58,
          "time": 10.263142499999999,
          "velocity": 0.7874015748031497,
          "duration": 0.2576750520833322
        },
        {
          "name": "G4",
          "midi": 67,
          "time": 10.526299999999997,
          "velocity": 0.7874015748031497,
          "duration": 0.25767505208333397
        },
        {
          "name": "C4",
          "midi": 60,
          "time": 10.526299999999997,
          "velocity": 0.7874015748031497,
          "duration": 0.25767505208333397
        },
        {
          "name": "G4",
          "midi": 67,
          "time": 10.789457499999997,
          "velocity": 0.7874015748031497,
          "duration": 0.25767505208333397
        },
        {
          "name": "C4",
          "midi": 60,
          "time": 10.789457499999997,
          "velocity": 0.7874015748031497,
          "duration": 0.25767505208333397
        },
        {
          "name": "G4",
          "midi": 67,
          "time": 11.052614999999998,
          "velocity": 0.7874015748031497,
          "duration": 0.25767505208333397
        },
        {
          "name": "C4",
          "midi": 60,
          "time": 11.052614999999998,
          "velocity": 0.7874015748031497,
          "duration": 0.25767505208333397
        },
        {
          "name": "G4",
          "midi": 67,
          "time": 11.315772499999998,
          "velocity": 0.7874015748031497,
          "duration": 0.038377135416666874
        },
        {
          "name": "C4",
          "midi": 60,
          "time": 11.315772499999998,
          "velocity": 0.7874015748031497,
          "duration": 0.038377135416666874
        },
        {
          "name": "F4",
          "midi": 65,
          "time": 11.447351249999999,
          "velocity": 0.7874015748031497,
          "duration": 0.126096302083333
        },
        {
          "name": "A#3",
          "midi": 58,
          "time": 11.447351249999999,
          "velocity": 0.7874015748031497,
          "duration": 0.126096302083333
        },
        {
          "name": "F4",
          "midi": 65,
          "time": 11.578929999999998,
          "velocity": 0.7874015748031497,
          "duration": 0.25767505208333397
        },
        {
          "name": "A#3",
          "midi": 58,
          "time": 11.578929999999998,
          "velocity": 0.7874015748031497,
          "duration": 0.25767505208333397
        },
        {
          "name": "F4",
          "midi": 65,
          "time": 11.842087499999998,
          "velocity": 0.7874015748031497,
          "duration": 0.25767505208333397
        },
        {
          "name": "A#3",
          "midi": 58,
          "time": 11.842087499999998,
          "velocity": 0.7874015748031497,
          "duration": 0.25767505208333397
        },
        {
          "name": "F4",
          "midi": 65,
          "time": 12.105244999999998,
          "velocity": 0.7874015748031497,
          "duration": 0.25767505208333397
        },
        {
          "name": "A#3",
          "midi": 58,
          "time": 12.105244999999998,
          "velocity": 0.7874015748031497,
          "duration": 0.25767505208333397
        },
        {
          "name": "F4",
          "midi": 65,
          "time": 12.368402499999998,
          "velocity": 0.7874015748031497,
          "duration": 0.038377135416666874
        },
        {
          "name": "A#3",
          "midi": 58,
          "time": 12.368402499999998,
          "velocity": 0.7874015748031497,
          "duration": 0.038377135416666874
        },
        {
          "name": "F4",
          "midi": 65,
          "time": 12.49998125,
          "velocity": 0.7874015748031497,
          "duration": 0.038377135416666874
        },
        {
          "name": "A#3",
          "midi": 58,
          "time": 12.49998125,
          "velocity": 0.7874015748031497,
          "duration": 0.038377135416666874
        },
        {
          "name": "D#4",
          "midi": 63,
          "time": 12.63156,
          "velocity": 0.7874015748031497,
          "duration": 0.25767505208333397
        },
        {
          "name": "G#3",
          "midi": 56,
          "time": 12.63156,
          "velocity": 0.7874015748031497,
          "duration": 0.25767505208333397
        },
        {
          "name": "D#4",
          "midi": 63,
          "time": 12.8947175,
          "velocity": 0.7874015748031497,
          "duration": 0.25767505208333397
        },
        {
          "name": "G#3",
          "midi": 56,
          "time": 12.8947175,
          "velocity": 0.7874015748031497,
          "duration": 0.25767505208333397
        },
        {
          "name": "D#4",
          "midi": 63,
          "time": 13.157875,
          "velocity": 0.7874015748031497,
          "duration": 0.38925380208333316
        },
        {
          "name": "G#3",
          "midi": 56,
          "time": 13.157875,
          "velocity": 0.7874015748031497,
          "duration": 0.38925380208333316
        },
        {
          "name": "D#4",
          "midi": 63,
          "time": 13.55261125,
          "velocity": 0.7874015748031497,
          "duration": 0.038377135416666874
        },
        {
          "name": "G#3",
          "midi": 56,
          "time": 13.55261125,
          "velocity": 0.7874015748031497,
          "duration": 0.038377135416666874
        },
        {
          "name": "F4",
          "midi": 65,
          "time": 13.684190000000001,
          "velocity": 0.7874015748031497,
          "duration": 0.25767505208333397
        },
        {
          "name": "A#3",
          "midi": 58,
          "time": 13.684190000000001,
          "velocity": 0.7874015748031497,
          "duration": 0.25767505208333397
        },
        {
          "name": "F4",
          "midi": 65,
          "time": 13.947347500000001,
          "velocity": 0.7874015748031497,
          "duration": 0.25767505208333397
        },
        {
          "name": "A#3",
          "midi": 58,
          "time": 13.947347500000001,
          "velocity": 0.7874015748031497,
          "duration": 0.25767505208333397
        },
        {
          "name": "F4",
          "midi": 65,
          "time": 14.210505000000001,
          "velocity": 0.7874015748031497,
          "duration": 0.25767505208333397
        },
        {
          "name": "A#3",
          "midi": 58,
          "time": 14.210505000000001,
          "velocity": 0.7874015748031497,
          "duration": 0.25767505208333397
        },
        {
          "name": "F4",
          "midi": 65,
          "time": 14.473662500000001,
          "velocity": 0.7874015748031497,
          "duration": 0.038377135416666874
        },
        {
          "name": "A#3",
          "midi": 58,
          "time": 14.473662500000001,
          "velocity": 0.7874015748031497,
          "duration": 0.038377135416666874
        },
        {
          "name": "F4",
          "midi": 65,
          "time": 14.605241250000002,
          "velocity": 0.7874015748031497,
          "duration": 0.038377135416666874
        },
        {
          "name": "A#3",
          "midi": 58,
          "time": 14.605241250000002,
          "velocity": 0.7874015748031497,
          "duration": 0.038377135416666874
        },
        {
          "name": "G4",
          "midi": 67,
          "time": 14.736820000000003,
          "velocity": 0.7874015748031497,
          "duration": 0.25767505208333397
        },
        {
          "name": "C4",
          "midi": 60,
          "time": 14.736820000000003,
          "velocity": 0.7874015748031497,
          "duration": 0.25767505208333397
        },
        {
          "name": "G4",
          "midi": 67,
          "time": 14.999977500000004,
          "velocity": 0.7874015748031497,
          "duration": 0.25767505208333397
        },
        {
          "name": "C4",
          "midi": 60,
          "time": 14.999977500000004,
          "velocity": 0.7874015748031497,
          "duration": 0.25767505208333397
        },
        {
          "name": "G4",
          "midi": 67,
          "time": 15.263135000000004,
          "velocity": 0.7874015748031497,
          "duration": 0.25767505208333397
        },
        {
          "name": "C4",
          "midi": 60,
          "time": 15.263135000000004,
          "velocity": 0.7874015748031497,
          "duration": 0.25767505208333397
        },
        {
          "name": "G4",
          "midi": 67,
          "time": 15.526292500000004,
          "velocity": 0.7874015748031497,
          "duration": 0.038377135416666874
        },
        {
          "name": "C4",
          "midi": 60,
          "time": 15.526292500000004,
          "velocity": 0.7874015748031497,
          "duration": 0.038377135416666874
        },
        {
          "name": "F4",
          "midi": 65,
          "time": 15.657871250000005,
          "velocity": 0.7874015748031497,
          "duration": 0.126096302083333
        },
        {
          "name": "A#3",
          "midi": 58,
          "time": 15.657871250000005,
          "velocity": 0.7874015748031497,
          "duration": 0.126096302083333
        },
        {
          "name": "F4",
          "midi": 65,
          "time": 15.789450000000004,
          "velocity": 0.7874015748031497,
          "duration": 0.126096302083333
        },
        {
          "name": "A#3",
          "midi": 58,
          "time": 15.789450000000004,
          "velocity": 0.7874015748031497,
          "duration": 0.126096302083333
        },
        {
          "name": "F4",
          "midi": 65,
          "time": 15.921028750000003,
          "velocity": 0.7874015748031497,
          "duration": 0.12609630208333478
        },
        {
          "name": "A#3",
          "midi": 58,
          "time": 15.921028750000003,
          "velocity": 0.7874015748031497,
          "duration": 0.12609630208333478
        },
        {
          "name": "F4",
          "midi": 65,
          "time": 16.052607500000004,
          "velocity": 0.7874015748031497,
          "duration": 0.2576750520833322
        },
        {
          "name": "A#3",
          "midi": 58,
          "time": 16.052607500000004,
          "velocity": 0.7874015748031497,
          "duration": 0.2576750520833322
        },
        {
          "name": "F4",
          "midi": 65,
          "time": 16.315765000000003,
          "velocity": 0.7874015748031497,
          "duration": 0.2576750520833322
        },
        {
          "name": "A#3",
          "midi": 58,
          "time": 16.315765000000003,
          "velocity": 0.7874015748031497,
          "duration": 0.2576750520833322
        },
        {
          "name": "F4",
          "midi": 65,
          "time": 16.5789225,
          "velocity": 0.7874015748031497,
          "duration": 0.038377135416666874
        },
        {
          "name": "A#3",
          "midi": 58,
          "time": 16.5789225,
          "velocity": 0.7874015748031497,
          "duration": 0.038377135416666874
        },
        {
          "name": "D#4",
          "midi": 63,
          "time": 16.842080000000003,
          "velocity": 0.7874015748031497,
          "duration": 0.2576750520833322
        },
        {
          "name": "G#3",
          "midi": 56,
          "time": 16.842080000000003,
          "velocity": 0.7874015748031497,
          "duration": 0.2576750520833322
        },
        {
          "name": "D#4",
          "midi": 63,
          "time": 17.1052375,
          "velocity": 0.7874015748031497,
          "duration": 0.2576750520833322
        },
        {
          "name": "G#3",
          "midi": 56,
          "time": 17.1052375,
          "velocity": 0.7874015748031497,
          "duration": 0.2576750520833322
        },
        {
          "name": "D#4",
          "midi": 63,
          "time": 17.368395,
          "velocity": 0.7874015748031497,
          "duration": 0.2576750520833322
        },
        {
          "name": "G#3",
          "midi": 56,
          "time": 17.368395,
          "velocity": 0.7874015748031497,
          "duration": 0.2576750520833322
        },
        {
          "name": "D#4",
          "midi": 63,
          "time": 17.631552499999998,
          "velocity": 0.7874015748031497,
          "duration": 0.038377135416666874
        },
        {
          "name": "G#3",
          "midi": 56,
          "time": 17.631552499999998,
          "velocity": 0.7874015748031497,
          "duration": 0.038377135416666874
        },
        {
          "name": "F4",
          "midi": 65,
          "time": 17.763131249999997,
          "velocity": 0.7874015748031497,
          "duration": 0.126096302083333
        },
        {
          "name": "A#3",
          "midi": 58,
          "time": 17.763131249999997,
          "velocity": 0.7874015748031497,
          "duration": 0.126096302083333
        },
        {
          "name": "F4",
          "midi": 65,
          "time": 17.894709999999996,
          "velocity": 0.7874015748031497,
          "duration": 0.126096302083333
        },
        {
          "name": "A#3",
          "midi": 58,
          "time": 17.894709999999996,
          "velocity": 0.7874015748031497,
          "duration": 0.126096302083333
        },
        {
          "name": "F4",
          "midi": 65,
          "time": 18.026288749999996,
          "velocity": 0.7874015748031497,
          "duration": 0.126096302083333
        },
        {
          "name": "A#3",
          "midi": 58,
          "time": 18.026288749999996,
          "velocity": 0.7874015748031497,
          "duration": 0.126096302083333
        },
        {
          "name": "F4",
          "midi": 65,
          "time": 18.157867499999995,
          "velocity": 0.7874015748031497,
          "duration": 0.2576750520833322
        },
        {
          "name": "A#3",
          "midi": 58,
          "time": 18.157867499999995,
          "velocity": 0.7874015748031497,
          "duration": 0.2576750520833322
        },
        {
          "name": "F4",
          "midi": 65,
          "time": 18.421024999999993,
          "velocity": 0.7874015748031497,
          "duration": 0.2576750520833322
        },
        {
          "name": "A#3",
          "midi": 58,
          "time": 18.421024999999993,
          "velocity": 0.7874015748031497,
          "duration": 0.2576750520833322
        },
        {
          "name": "F#4",
          "midi": 66,
          "time": 18.68418249999999,
          "velocity": 0.7874015748031497,
          "duration": 0.2576750520833322
        },
        {
          "name": "B3",
          "midi": 59,
          "time": 18.68418249999999,
          "velocity": 0.7874015748031497,
          "duration": 0.2576750520833322
        },
        {
          "name": "G4",
          "midi": 67,
          "time": 18.94733999999999,
          "velocity": 0.7874015748031497,
          "duration": 1.0471475520833344
        },
        {
          "name": "C4",
          "midi": 60,
          "time": 18.94733999999999,
          "velocity": 0.7874015748031497,
          "duration": 1.0471475520833344
        },
        {
          "name": "F4",
          "midi": 65,
          "time": 19.99996999999999,
          "velocity": 0.7874015748031497,
          "duration": 0.7839900520833325
        },
        {
          "name": "A#3",
          "midi": 58,
          "time": 19.99996999999999,
          "velocity": 0.7874015748031497,
          "duration": 0.7839900520833325
        },
        {
          "name": "F4",
          "midi": 65,
          "time": 20.78944249999999,
          "velocity": 0.7874015748031497,
          "duration": 0.126096302083333
        },
        {
          "name": "A#3",
          "midi": 58,
          "time": 20.78944249999999,
          "velocity": 0.7874015748031497,
          "duration": 0.126096302083333
        },
        {
          "name": "D#4",
          "midi": 63,
          "time": 21.052599999999988,
          "velocity": 0.7874015748031497,
          "duration": 1.0471475520833344
        },
        {
          "name": "G#3",
          "midi": 56,
          "time": 21.052599999999988,
          "velocity": 0.7874015748031497,
          "duration": 1.0471475520833344
        },
        {
          "name": "F4",
          "midi": 65,
          "time": 22.36838749999999,
          "velocity": 0.7874015748031497,
          "duration": 0.2576750520833322
        },
        {
          "name": "A#3",
          "midi": 58,
          "time": 22.36838749999999,
          "velocity": 0.7874015748031497,
          "duration": 0.2576750520833322
        },
        {
          "name": "F4",
          "midi": 65,
          "time": 22.63154499999999,
          "velocity": 0.7874015748031497,
          "duration": 0.2576750520833322
        },
        {
          "name": "A#3",
          "midi": 58,
          "time": 22.63154499999999,
          "velocity": 0.7874015748031497,
          "duration": 0.2576750520833322
        },
        {
          "name": "C4",
          "midi": 60,
          "time": 22.894702499999987,
          "velocity": 0.7874015748031497,
          "duration": 0.2576750520833322
        },
        {
          "name": "G4",
          "midi": 67,
          "time": 22.894702499999987,
          "velocity": 0.7874015748031497,
          "duration": 0.2576750520833322
        },
        {
          "name": "G4",
          "midi": 67,
          "time": 23.157859999999985,
          "velocity": 0.7874015748031497,
          "duration": 1.0471475520833344
        },
        {
          "name": "C4",
          "midi": 60,
          "time": 23.157859999999985,
          "velocity": 0.7874015748031497,
          "duration": 1.0471475520833344
        },
        {
          "name": "F4",
          "midi": 65,
          "time": 24.210489999999986,
          "velocity": 0.7874015748031497,
          "duration": 1.0471475520833344
        },
        {
          "name": "A#3",
          "midi": 58,
          "time": 24.210489999999986,
          "velocity": 0.7874015748031497,
          "duration": 1.0471475520833344
        },
        {
          "name": "D#4",
          "midi": 63,
          "time": 25.263119999999986,
          "velocity": 0.7874015748031497,
          "duration": 1.0471475520833344
        },
        {
          "name": "G#3",
          "midi": 56,
          "time": 25.263119999999986,
          "velocity": 0.7874015748031497,
          "duration": 1.0471475520833344
        },
        {
          "name": "F4",
          "midi": 65,
          "time": 26.57890749999999,
          "velocity": 0.7874015748031497,
          "duration": 0.2576750520833322
        },
        {
          "name": "A#3",
          "midi": 58,
          "time": 26.57890749999999,
          "velocity": 0.7874015748031497,
          "duration": 0.2576750520833322
        },
        {
          "name": "F4",
          "midi": 65,
          "time": 26.842064999999987,
          "velocity": 0.7874015748031497,
          "duration": 0.2576750520833322
        },
        {
          "name": "A#3",
          "midi": 58,
          "time": 26.842064999999987,
          "velocity": 0.7874015748031497,
          "duration": 0.2576750520833322
        },
        {
          "name": "F4",
          "midi": 65,
          "time": 27.105222499999986,
          "velocity": 0.7874015748031497,
          "duration": 0.126096302083333
        },
        {
          "name": "A#3",
          "midi": 58,
          "time": 27.105222499999986,
          "velocity": 0.7874015748031497,
          "duration": 0.126096302083333
        },
        {
          "name": "C4",
          "midi": 60,
          "time": 27.368379999999984,
          "velocity": 0.7874015748031497,
          "duration": 1.0471475520833344
        },
        {
          "name": "F4",
          "midi": 65,
          "time": 28.421009999999985,
          "velocity": 0.7874015748031497,
          "duration": 1.0471475520833344
        },
        {
          "name": "A#3",
          "midi": 58,
          "time": 28.421009999999985,
          "velocity": 0.7874015748031497,
          "duration": 1.0471475520833344
        },
        {
          "name": "D#4",
          "midi": 63,
          "time": 29.473639999999985,
          "velocity": 0.7874015748031497,
          "duration": 1.0471475520833344
        },
        {
          "name": "G#3",
          "midi": 56,
          "time": 29.473639999999985,
          "velocity": 0.7874015748031497,
          "duration": 1.0471475520833344
        },
        {
          "name": "D#4",
          "midi": 63,
          "time": 30.526269999999986,
          "velocity": 0.7874015748031497,
          "duration": 0.038377135416666874
        },
        {
          "name": "G#3",
          "midi": 56,
          "time": 30.526269999999986,
          "velocity": 0.7874015748031497,
          "duration": 0.038377135416666874
        },
        {
          "name": "G#3",
          "midi": 56,
          "time": 30.657848749999985,
          "velocity": 0.7874015748031497,
          "duration": 0.038377135416666874
        },
        {
          "name": "D#4",
          "midi": 63,
          "time": 30.657848749999985,
          "velocity": 0.7874015748031497,
          "duration": 0.038377135416666874
        },
        {
          "name": "A#3",
          "midi": 58,
          "time": 30.789427499999984,
          "velocity": 0.7874015748031497,
          "duration": 0.2576750520833322
        },
        {
          "name": "F4",
          "midi": 65,
          "time": 30.789427499999984,
          "velocity": 0.7874015748031497,
          "duration": 0.2576750520833322
        },
        {
          "name": "F4",
          "midi": 65,
          "time": 31.052584999999983,
          "velocity": 0.7874015748031497,
          "duration": 0.2576750520833322
        },
        {
          "name": "A#3",
          "midi": 58,
          "time": 31.052584999999983,
          "velocity": 0.7874015748031497,
          "duration": 0.2576750520833322
        },
        {
          "name": "G4",
          "midi": 67,
          "time": 31.31574249999998,
          "velocity": 0.7874015748031497,
          "duration": 0.2576750520833322
        },
        {
          "name": "C4",
          "midi": 60,
          "time": 31.31574249999998,
          "velocity": 0.7874015748031497,
          "duration": 0.2576750520833322
        },
        {
          "name": "G4",
          "midi": 67,
          "time": 31.57889999999998,
          "velocity": 0.7874015748031497,
          "duration": 1.0471475520833344
        },
        {
          "name": "C4",
          "midi": 60,
          "time": 31.57889999999998,
          "velocity": 0.7874015748031497,
          "duration": 1.0471475520833344
        },
        {
          "name": "F4",
          "midi": 65,
          "time": 32.89468749999998,
          "velocity": 0.7874015748031497,
          "duration": 0.25767505208333574
        },
        {
          "name": "A#3",
          "midi": 58,
          "time": 32.89468749999998,
          "velocity": 0.7874015748031497,
          "duration": 0.25767505208333574
        },
        {
          "name": "F4",
          "midi": 65,
          "time": 33.15784499999999,
          "velocity": 0.7874015748031497,
          "duration": 0.25767505208333574
        },
        {
          "name": "A#3",
          "midi": 58,
          "time": 33.15784499999999,
          "velocity": 0.7874015748031497,
          "duration": 0.25767505208333574
        },
        {
          "name": "D#4",
          "midi": 63,
          "time": 33.42100249999999,
          "velocity": 0.7874015748031497,
          "duration": 0.126096302083333
        },
        {
          "name": "G#3",
          "midi": 56,
          "time": 33.42100249999999,
          "velocity": 0.7874015748031497,
          "duration": 0.126096302083333
        },
        {
          "name": "G#3",
          "midi": 56,
          "time": 33.552581249999996,
          "velocity": 0.7874015748031497,
          "duration": 0.126096302083333
        },
        {
          "name": "D#4",
          "midi": 63,
          "time": 33.552581249999996,
          "velocity": 0.7874015748031497,
          "duration": 0.126096302083333
        },
        {
          "name": "A#4",
          "midi": 70,
          "time": 33.68416,
          "velocity": 0.7874015748031497,
          "duration": 1.0471475520833309
        },
        {
          "name": "D#5",
          "midi": 75,
          "time": 34.9999475,
          "velocity": 0.7874015748031497,
          "duration": 0.25767505208333574
        },
        {
          "name": "A#4",
          "midi": 70,
          "time": 34.9999475,
          "velocity": 0.7874015748031497,
          "duration": 0.25767505208333574
        },
        {
          "name": "F4",
          "midi": 65,
          "time": 35.263105,
          "velocity": 0.7874015748031497,
          "duration": 0.25767505208333574
        },
        {
          "name": "A#4",
          "midi": 70,
          "time": 35.52626250000001,
          "velocity": 0.7874015748031497,
          "duration": 0.25767505208333574
        },
        {
          "name": "D#5",
          "midi": 75,
          "time": 35.52626250000001,
          "velocity": 0.7874015748031497,
          "duration": 0.25767505208333574
        },
        {
          "name": "G4",
          "midi": 67,
          "time": 35.789420000000014,
          "velocity": 0.7874015748031497,
          "duration": 1.0471475520833309
        },
        {
          "name": "C4",
          "midi": 60,
          "time": 35.789420000000014,
          "velocity": 0.7874015748031497,
          "duration": 1.0471475520833309
        },
        {
          "name": "F4",
          "midi": 65,
          "time": 36.842050000000015,
          "velocity": 0.7874015748031497,
          "duration": 1.0471475520833309
        },
        {
          "name": "A#3",
          "midi": 58,
          "time": 36.842050000000015,
          "velocity": 0.7874015748031497,
          "duration": 1.0471475520833309
        },
        {
          "name": "D#4",
          "midi": 63,
          "time": 37.894680000000015,
          "velocity": 0.7874015748031497,
          "duration": 1.0471475520833309
        },
        {
          "name": "G#3",
          "midi": 56,
          "time": 37.894680000000015,
          "velocity": 0.7874015748031497,
          "duration": 1.0471475520833309
        },
        {
          "name": "D#4",
          "midi": 63,
          "time": 38.947310000000016,
          "velocity": 0.7874015748031497,
          "duration": 0.126096302083333
        },
        {
          "name": "G#3",
          "midi": 56,
          "time": 38.947310000000016,
          "velocity": 0.7874015748031497,
          "duration": 0.126096302083333
        },
        {
          "name": "D#4",
          "midi": 63,
          "time": 39.07888875000002,
          "velocity": 0.7874015748031497,
          "duration": 0.126096302083333
        },
        {
          "name": "G#3",
          "midi": 56,
          "time": 39.07888875000002,
          "velocity": 0.7874015748031497,
          "duration": 0.126096302083333
        },
        {
          "name": "F4",
          "midi": 65,
          "time": 39.21046750000002,
          "velocity": 0.7874015748031497,
          "duration": 0.25767505208333574
        },
        {
          "name": "A#3",
          "midi": 58,
          "time": 39.21046750000002,
          "velocity": 0.7874015748031497,
          "duration": 0.25767505208333574
        },
        {
          "name": "F4",
          "midi": 65,
          "time": 39.47362500000003,
          "velocity": 0.7874015748031497,
          "duration": 0.25767505208333574
        },
        {
          "name": "A#3",
          "midi": 58,
          "time": 39.47362500000003,
          "velocity": 0.7874015748031497,
          "duration": 0.25767505208333574
        },
        {
          "name": "G4",
          "midi": 67,
          "time": 39.73678250000003,
          "velocity": 0.7874015748031497,
          "duration": 0.126096302083333
        },
        {
          "name": "C4",
          "midi": 60,
          "time": 39.73678250000003,
          "velocity": 0.7874015748031497,
          "duration": 0.126096302083333
        },
        {
          "name": "C4",
          "midi": 60,
          "time": 39.868361250000035,
          "velocity": 0.7874015748031497,
          "duration": 0.126096302083333
        },
        {
          "name": "G4",
          "midi": 67,
          "time": 39.868361250000035,
          "velocity": 0.7874015748031497,
          "duration": 0.126096302083333
        },
        {
          "name": "C4",
          "midi": 60,
          "time": 39.99994000000004,
          "velocity": 0.7874015748031497,
          "duration": 1.0471475520833309
        },
        {
          "name": "G4",
          "midi": 67,
          "time": 39.99994000000004,
          "velocity": 0.7874015748031497,
          "duration": 1.0471475520833309
        },
        {
          "name": "F4",
          "midi": 65,
          "time": 41.05257000000004,
          "velocity": 0.7874015748031497,
          "duration": 1.0471475520833309
        },
        {
          "name": "A#3",
          "midi": 58,
          "time": 41.05257000000004,
          "velocity": 0.7874015748031497,
          "duration": 1.0471475520833309
        },
        {
          "name": "G#3",
          "midi": 56,
          "time": 42.10520000000004,
          "velocity": 0.7874015748031497,
          "duration": 1.0471475520833309
        },
        {
          "name": "D#4",
          "midi": 63,
          "time": 42.10520000000004,
          "velocity": 0.7874015748031497,
          "duration": 1.0471475520833309
        },
        {
          "name": "F4",
          "midi": 65,
          "time": 43.42098750000004,
          "velocity": 0.7874015748031497,
          "duration": 0.25767505208333574
        },
        {
          "name": "A#3",
          "midi": 58,
          "time": 43.42098750000004,
          "velocity": 0.7874015748031497,
          "duration": 0.25767505208333574
        },
        {
          "name": "F4",
          "midi": 65,
          "time": 43.68414500000004,
          "velocity": 0.7874015748031497,
          "duration": 0.25767505208333574
        },
        {
          "name": "A#3",
          "midi": 58,
          "time": 43.68414500000004,
          "velocity": 0.7874015748031497,
          "duration": 0.25767505208333574
        },
        {
          "name": "F4",
          "midi": 65,
          "time": 43.94730250000005,
          "velocity": 0.7874015748031497,
          "duration": 0.038377135416666874
        },
        {
          "name": "A#3",
          "midi": 58,
          "time": 43.94730250000005,
          "velocity": 0.7874015748031497,
          "duration": 0.038377135416666874
        },
        {
          "name": "F4",
          "midi": 65,
          "time": 44.07888125000005,
          "velocity": 0.7874015748031497,
          "duration": 0.038377135416666874
        },
        {
          "name": "A#3",
          "midi": 58,
          "time": 44.07888125000005,
          "velocity": 0.7874015748031497,
          "duration": 0.038377135416666874
        },
        {
          "name": "C4",
          "midi": 60,
          "time": 44.210460000000054,
          "velocity": 0.7874015748031497,
          "duration": 1.0471475520833309
        },
        {
          "name": "G4",
          "midi": 67,
          "time": 44.210460000000054,
          "velocity": 0.7874015748031497,
          "duration": 1.0471475520833309
        },
        {
          "name": "F4",
          "midi": 65,
          "time": 45.263090000000055,
          "velocity": 0.7874015748031497,
          "duration": 1.0471475520833309
        },
        {
          "name": "A#3",
          "midi": 58,
          "time": 45.263090000000055,
          "velocity": 0.7874015748031497,
          "duration": 1.0471475520833309
        },
        {
          "name": "D#4",
          "midi": 63,
          "time": 46.315720000000056,
          "velocity": 0.7874015748031497,
          "duration": 0.5208325520833341
        },
        {
          "name": "G#3",
          "midi": 56,
          "time": 46.315720000000056,
          "velocity": 0.7874015748031497,
          "duration": 0.5208325520833341
        },
        {
          "name": "D#4",
          "midi": 63,
          "time": 46.84203500000006,
          "velocity": 0.7874015748031497,
          "duration": 0.126096302083333
        },
        {
          "name": "G#3",
          "midi": 56,
          "time": 46.84203500000006,
          "velocity": 0.7874015748031497,
          "duration": 0.126096302083333
        },
        {
          "name": "F4",
          "midi": 65,
          "time": 46.97361375000006,
          "velocity": 0.7874015748031497,
          "duration": 0.3892538020833314
        },
        {
          "name": "A#3",
          "midi": 58,
          "time": 46.97361375000006,
          "velocity": 0.7874015748031497,
          "duration": 0.3892538020833314
        },
        {
          "name": "A#3",
          "midi": 58,
          "time": 47.63150750000006,
          "velocity": 0.7874015748031497,
          "duration": 0.25767505208333574
        },
        {
          "name": "F4",
          "midi": 65,
          "time": 47.63150750000006,
          "velocity": 0.7874015748031497,
          "duration": 0.25767505208333574
        },
        {
          "name": "F4",
          "midi": 65,
          "time": 47.89466500000007,
          "velocity": 0.7874015748031497,
          "duration": 0.126096302083333
        },
        {
          "name": "A#3",
          "midi": 58,
          "time": 47.89466500000007,
          "velocity": 0.7874015748031497,
          "duration": 0.126096302083333
        },
        {
          "name": "F4",
          "midi": 65,
          "time": 48.02624375000007,
          "velocity": 0.7874015748031497,
          "duration": 0.126096302083333
        },
        {
          "name": "A#3",
          "midi": 58,
          "time": 48.02624375000007,
          "velocity": 0.7874015748031497,
          "duration": 0.126096302083333
        },
        {
          "name": "F4",
          "midi": 65,
          "time": 48.15782250000007,
          "velocity": 0.7874015748031497,
          "duration": 0.25767505208333574
        },
        {
          "name": "A#3",
          "midi": 58,
          "time": 48.15782250000007,
          "velocity": 0.7874015748031497,
          "duration": 0.25767505208333574
        },
        {
          "name": "C4",
          "midi": 60,
          "time": 48.42098000000008,
          "velocity": 0.7874015748031497,
          "duration": 1.0471475520833309
        },
        {
          "name": "G4",
          "midi": 67,
          "time": 48.42098000000008,
          "velocity": 0.7874015748031497,
          "duration": 1.0471475520833309
        },
        {
          "name": "F4",
          "midi": 65,
          "time": 49.47361000000008,
          "velocity": 0.7874015748031497,
          "duration": 0.5208325520833341
        },
        {
          "name": "A#3",
          "midi": 58,
          "time": 49.47361000000008,
          "velocity": 0.7874015748031497,
          "duration": 0.5208325520833341
        },
        {
          "name": "C4",
          "midi": 60,
          "time": 49.99992500000008,
          "velocity": 0.7874015748031497,
          "duration": 0.25767505208333574
        },
        {
          "name": "G#3",
          "midi": 56,
          "time": 49.99992500000008,
          "velocity": 0.7874015748031497,
          "duration": 0.25767505208333574
        },
        {
          "name": "C4",
          "midi": 60,
          "time": 50.26308250000009,
          "velocity": 0.7874015748031497,
          "duration": 0.25767505208333574
        },
        {
          "name": "G#3",
          "midi": 56,
          "time": 50.26308250000009,
          "velocity": 0.7874015748031497,
          "duration": 0.25767505208333574
        },
        {
          "name": "C4",
          "midi": 60,
          "time": 50.526240000000094,
          "velocity": 0.7874015748031497,
          "duration": 0.126096302083333
        },
        {
          "name": "C4",
          "midi": 60,
          "time": 50.6578187500001,
          "velocity": 0.7874015748031497,
          "duration": 0.126096302083333
        },
        {
          "name": "G#3",
          "midi": 56,
          "time": 50.6578187500001,
          "velocity": 0.7874015748031497,
          "duration": 0.126096302083333
        },
        {
          "name": "C4",
          "midi": 60,
          "time": 50.7893975000001,
          "velocity": 0.7874015748031497,
          "duration": 0.126096302083333
        },
        {
          "name": "C4",
          "midi": 60,
          "time": 50.9209762500001,
          "velocity": 0.7874015748031497,
          "duration": 0.126096302083333
        },
        {
          "name": "C4",
          "midi": 60,
          "time": 51.052555000000105,
          "velocity": 0.7874015748031497,
          "duration": 0.126096302083333
        },
        {
          "name": "G#3",
          "midi": 56,
          "time": 51.052555000000105,
          "velocity": 0.7874015748031497,
          "duration": 0.126096302083333
        },
        {
          "name": "C4",
          "midi": 60,
          "time": 51.18413375000011,
          "velocity": 0.7874015748031497,
          "duration": 0.126096302083333
        },
        {
          "name": "C4",
          "midi": 60,
          "time": 51.31571250000011,
          "velocity": 0.7874015748031497,
          "duration": 0.126096302083333
        },
        {
          "name": "C4",
          "midi": 60,
          "time": 51.44729125000011,
          "velocity": 0.7874015748031497,
          "duration": 0.126096302083333
        },
        {
          "name": "G#3",
          "midi": 56,
          "time": 51.44729125000011,
          "velocity": 0.7874015748031497,
          "duration": 0.126096302083333
        },
        {
          "name": "F4",
          "midi": 65,
          "time": 51.578870000000116,
          "velocity": 0.7874015748031497,
          "duration": 0.126096302083333
        },
        {
          "name": "A#3",
          "midi": 58,
          "time": 51.578870000000116,
          "velocity": 0.7874015748031497,
          "duration": 0.126096302083333
        },
        {
          "name": "F4",
          "midi": 65,
          "time": 51.71044875000012,
          "velocity": 0.7874015748031497,
          "duration": 0.126096302083333
        },
        {
          "name": "A#3",
          "midi": 58,
          "time": 51.71044875000012,
          "velocity": 0.7874015748031497,
          "duration": 0.126096302083333
        },
        {
          "name": "F4",
          "midi": 65,
          "time": 51.84202750000012,
          "velocity": 0.7874015748031497,
          "duration": 0.25767505208333574
        },
        {
          "name": "A#3",
          "midi": 58,
          "time": 51.84202750000012,
          "velocity": 0.7874015748031497,
          "duration": 0.25767505208333574
        },
        {
          "name": "F4",
          "midi": 65,
          "time": 52.10518500000013,
          "velocity": 0.7874015748031497,
          "duration": 0.126096302083333
        },
        {
          "name": "A#3",
          "midi": 58,
          "time": 52.10518500000013,
          "velocity": 0.7874015748031497,
          "duration": 0.126096302083333
        },
        {
          "name": "A#3",
          "midi": 58,
          "time": 52.23676375000013,
          "velocity": 0.7874015748031497,
          "duration": 0.126096302083333
        },
        {
          "name": "F4",
          "midi": 65,
          "time": 52.23676375000013,
          "velocity": 0.7874015748031497,
          "duration": 0.126096302083333
        },
        {
          "name": "F4",
          "midi": 65,
          "time": 52.36834250000013,
          "velocity": 0.7874015748031497,
          "duration": 0.25767505208333574
        },
        {
          "name": "A#3",
          "midi": 58,
          "time": 52.36834250000013,
          "velocity": 0.7874015748031497,
          "duration": 0.25767505208333574
        },
        {
          "name": "C4",
          "midi": 60,
          "time": 52.63150000000014,
          "velocity": 0.7874015748031497,
          "duration": 0.25767505208333574
        },
        {
          "name": "G4",
          "midi": 67,
          "time": 52.63150000000014,
          "velocity": 0.7874015748031497,
          "duration": 0.25767505208333574
        },
        {
          "name": "G4",
          "midi": 67,
          "time": 52.89465750000014,
          "velocity": 0.7874015748031497,
          "duration": 0.25767505208333574
        },
        {
          "name": "C4",
          "midi": 60,
          "time": 52.89465750000014,
          "velocity": 0.7874015748031497,
          "duration": 0.25767505208333574
        },
        {
          "name": "C4",
          "midi": 60,
          "time": 53.15781500000015,
          "velocity": 0.7874015748031497,
          "duration": 0.25767505208333574
        },
        {
          "name": "G4",
          "midi": 67,
          "time": 53.15781500000015,
          "velocity": 0.7874015748031497,
          "duration": 0.25767505208333574
        },
        {
          "name": "G4",
          "midi": 67,
          "time": 53.420972500000154,
          "velocity": 0.7874015748031497,
          "duration": 0.126096302083333
        },
        {
          "name": "C4",
          "midi": 60,
          "time": 53.420972500000154,
          "velocity": 0.7874015748031497,
          "duration": 0.126096302083333
        },
        {
          "name": "C4",
          "midi": 60,
          "time": 53.55255125000016,
          "velocity": 0.7874015748031497,
          "duration": 0.126096302083333
        },
        {
          "name": "G4",
          "midi": 67,
          "time": 53.55255125000016,
          "velocity": 0.7874015748031497,
          "duration": 0.126096302083333
        },
        {
          "name": "A#3",
          "midi": 58,
          "time": 53.68413000000016,
          "velocity": 0.7874015748031497,
          "duration": 0.25767505208333574
        },
        {
          "name": "F4",
          "midi": 65,
          "time": 53.68413000000016,
          "velocity": 0.7874015748031497,
          "duration": 0.25767505208333574
        },
        {
          "name": "F4",
          "midi": 65,
          "time": 53.947287500000165,
          "velocity": 0.7874015748031497,
          "duration": 0.25767505208333574
        },
        {
          "name": "A#3",
          "midi": 58,
          "time": 53.947287500000165,
          "velocity": 0.7874015748031497,
          "duration": 0.25767505208333574
        },
        {
          "name": "F4",
          "midi": 65,
          "time": 54.21044500000017,
          "velocity": 0.7874015748031497,
          "duration": 0.25767505208333574
        },
        {
          "name": "A#3",
          "midi": 58,
          "time": 54.21044500000017,
          "velocity": 0.7874015748031497,
          "duration": 0.25767505208333574
        },
        {
          "name": "F4",
          "midi": 65,
          "time": 54.473602500000176,
          "velocity": 0.7874015748031497,
          "duration": 0.038377135416666874
        },
        {
          "name": "A#3",
          "midi": 58,
          "time": 54.473602500000176,
          "velocity": 0.7874015748031497,
          "duration": 0.038377135416666874
        },
        {
          "name": "F4",
          "midi": 65,
          "time": 54.60518125000018,
          "velocity": 0.7874015748031497,
          "duration": 0.038377135416666874
        },
        {
          "name": "A#3",
          "midi": 58,
          "time": 54.60518125000018,
          "velocity": 0.7874015748031497,
          "duration": 0.038377135416666874
        },
        {
          "name": "C4",
          "midi": 60,
          "time": 54.73676000000018,
          "velocity": 0.7874015748031497,
          "duration": 0.5208325520833341
        },
        {
          "name": "G#3",
          "midi": 56,
          "time": 54.73676000000018,
          "velocity": 0.7874015748031497,
          "duration": 0.5208325520833341
        },
        {
          "name": "G#3",
          "midi": 56,
          "time": 55.263075000000185,
          "velocity": 0.7874015748031497,
          "duration": 0.25767505208333574
        },
        {
          "name": "C4",
          "midi": 60,
          "time": 55.263075000000185,
          "velocity": 0.7874015748031497,
          "duration": 0.25767505208333574
        },
        {
          "name": "G3",
          "midi": 55,
          "time": 55.52623250000019,
          "velocity": 0.7874015748031497,
          "duration": 0.126096302083333
        },
        {
          "name": "C4",
          "midi": 60,
          "time": 55.52623250000019,
          "velocity": 0.7874015748031497,
          "duration": 0.126096302083333
        },
        {
          "name": "C4",
          "midi": 60,
          "time": 55.657811250000194,
          "velocity": 0.7874015748031497,
          "duration": 0.126096302083333
        },
        {
          "name": "G3",
          "midi": 55,
          "time": 55.657811250000194,
          "velocity": 0.7874015748031497,
          "duration": 0.126096302083333
        },
        {
          "name": "F4",
          "midi": 65,
          "time": 55.789390000000196,
          "velocity": 0.7874015748031497,
          "duration": 0.126096302083333
        },
        {
          "name": "A#3",
          "midi": 58,
          "time": 55.789390000000196,
          "velocity": 0.7874015748031497,
          "duration": 0.126096302083333
        },
        {
          "name": "A#3",
          "midi": 58,
          "time": 55.9209687500002,
          "velocity": 0.7874015748031497,
          "duration": 0.126096302083333
        },
        {
          "name": "F4",
          "midi": 65,
          "time": 55.9209687500002,
          "velocity": 0.7874015748031497,
          "duration": 0.126096302083333
        },
        {
          "name": "F4",
          "midi": 65,
          "time": 56.0525475000002,
          "velocity": 0.7874015748031497,
          "duration": 0.25767505208333574
        },
        {
          "name": "A#3",
          "midi": 58,
          "time": 56.0525475000002,
          "velocity": 0.7874015748031497,
          "duration": 0.25767505208333574
        },
        {
          "name": "A#3",
          "midi": 58,
          "time": 56.31570500000021,
          "velocity": 0.7874015748031497,
          "duration": 0.25767505208333574
        },
        {
          "name": "F4",
          "midi": 65,
          "time": 56.31570500000021,
          "velocity": 0.7874015748031497,
          "duration": 0.25767505208333574
        },
        {
          "name": "F4",
          "midi": 65,
          "time": 56.57886250000021,
          "velocity": 0.7874015748031497,
          "duration": 0.126096302083333
        },
        {
          "name": "A#3",
          "midi": 58,
          "time": 56.57886250000021,
          "velocity": 0.7874015748031497,
          "duration": 0.126096302083333
        },
        {
          "name": "C4",
          "midi": 60,
          "time": 56.710441250000216,
          "velocity": 0.7874015748031497,
          "duration": 0.126096302083333
        },
        {
          "name": "G4",
          "midi": 67,
          "time": 56.710441250000216,
          "velocity": 0.7874015748031497,
          "duration": 0.126096302083333
        },
        {
          "name": "G4",
          "midi": 67,
          "time": 56.84202000000022,
          "velocity": 0.7874015748031497,
          "duration": 0.5208325520833341
        },
        {
          "name": "C4",
          "midi": 60,
          "time": 56.84202000000022,
          "velocity": 0.7874015748031497,
          "duration": 0.5208325520833341
        },
        {
          "name": "G4",
          "midi": 67,
          "time": 57.36833500000022,
          "velocity": 0.7874015748031497,
          "duration": 0.25767505208333574
        },
        {
          "name": "C4",
          "midi": 60,
          "time": 57.36833500000022,
          "velocity": 0.7874015748031497,
          "duration": 0.25767505208333574
        },
        {
          "name": "G4",
          "midi": 67,
          "time": 57.63149250000023,
          "velocity": 0.7874015748031497,
          "duration": 0.126096302083333
        },
        {
          "name": "C4",
          "midi": 60,
          "time": 57.63149250000023,
          "velocity": 0.7874015748031497,
          "duration": 0.126096302083333
        },
        {
          "name": "C4",
          "midi": 60,
          "time": 57.76307125000023,
          "velocity": 0.7874015748031497,
          "duration": 0.126096302083333
        },
        {
          "name": "G4",
          "midi": 67,
          "time": 57.76307125000023,
          "velocity": 0.7874015748031497,
          "duration": 0.126096302083333
        },
        {
          "name": "F4",
          "midi": 65,
          "time": 57.89465000000023,
          "velocity": 0.7874015748031497,
          "duration": 0.126096302083333
        },
        {
          "name": "A#3",
          "midi": 58,
          "time": 57.89465000000023,
          "velocity": 0.7874015748031497,
          "duration": 0.126096302083333
        },
        {
          "name": "A#3",
          "midi": 58,
          "time": 58.026228750000236,
          "velocity": 0.7874015748031497,
          "duration": 0.126096302083333
        },
        {
          "name": "F4",
          "midi": 65,
          "time": 58.026228750000236,
          "velocity": 0.7874015748031497,
          "duration": 0.126096302083333
        },
        {
          "name": "F4",
          "midi": 65,
          "time": 58.15780750000024,
          "velocity": 0.7874015748031497,
          "duration": 0.25767505208333574
        },
        {
          "name": "A#3",
          "midi": 58,
          "time": 58.15780750000024,
          "velocity": 0.7874015748031497,
          "duration": 0.25767505208333574
        },
        {
          "name": "D#4",
          "midi": 63,
          "time": 58.420965000000244,
          "velocity": 0.7874015748031497,
          "duration": 0.25767505208333574
        },
        {
          "name": "G#3",
          "midi": 56,
          "time": 58.420965000000244,
          "velocity": 0.7874015748031497,
          "duration": 0.25767505208333574
        },
        {
          "name": "D#4",
          "midi": 63,
          "time": 58.68412250000025,
          "velocity": 0.7874015748031497,
          "duration": 0.126096302083333
        },
        {
          "name": "G#3",
          "midi": 56,
          "time": 58.68412250000025,
          "velocity": 0.7874015748031497,
          "duration": 0.126096302083333
        },
        {
          "name": "G#3",
          "midi": 56,
          "time": 58.81570125000025,
          "velocity": 0.7874015748031497,
          "duration": 0.126096302083333
        },
        {
          "name": "D#4",
          "midi": 63,
          "time": 58.81570125000025,
          "velocity": 0.7874015748031497,
          "duration": 0.126096302083333
        },
        {
          "name": "C4",
          "midi": 60,
          "time": 58.947280000000255,
          "velocity": 0.7874015748031497,
          "duration": 0.5208325520833341
        },
        {
          "name": "G#3",
          "midi": 56,
          "time": 58.947280000000255,
          "velocity": 0.7874015748031497,
          "duration": 0.5208325520833341
        },
        {
          "name": "C4",
          "midi": 60,
          "time": 59.47359500000026,
          "velocity": 0.7874015748031497,
          "duration": 0.25767505208333574
        },
        {
          "name": "G#3",
          "midi": 56,
          "time": 59.47359500000026,
          "velocity": 0.7874015748031497,
          "duration": 0.25767505208333574
        },
        {
          "name": "C4",
          "midi": 60,
          "time": 59.736752500000264,
          "velocity": 0.7874015748031497,
          "duration": 0.038377135416666874
        },
        {
          "name": "G#3",
          "midi": 56,
          "time": 59.736752500000264,
          "velocity": 0.7874015748031497,
          "duration": 0.038377135416666874
        },
        {
          "name": "G#3",
          "midi": 56,
          "time": 59.86833125000027,
          "velocity": 0.7874015748031497,
          "duration": 0.038377135416666874
        },
        {
          "name": "C4",
          "midi": 60,
          "time": 59.86833125000027,
          "velocity": 0.7874015748031497,
          "duration": 0.038377135416666874
        },
        {
          "name": "D#4",
          "midi": 63,
          "time": 59.99991000000027,
          "velocity": 0.7874015748031497,
          "duration": 0.126096302083333
        },
        {
          "name": "A#3",
          "midi": 58,
          "time": 59.99991000000027,
          "velocity": 0.7874015748031497,
          "duration": 0.126096302083333
        },
        {
          "name": "A#3",
          "midi": 58,
          "time": 60.13148875000027,
          "velocity": 0.7874015748031497,
          "duration": 0.126096302083333
        },
        {
          "name": "D#4",
          "midi": 63,
          "time": 60.13148875000027,
          "velocity": 0.7874015748031497,
          "duration": 0.126096302083333
        },
        {
          "name": "D#4",
          "midi": 63,
          "time": 60.263067500000275,
          "velocity": 0.7874015748031497,
          "duration": 0.126096302083333
        },
        {
          "name": "A#3",
          "midi": 58,
          "time": 60.263067500000275,
          "velocity": 0.7874015748031497,
          "duration": 0.126096302083333
        },
        {
          "name": "D#4",
          "midi": 63,
          "time": 60.39464625000028,
          "velocity": 0.7874015748031497,
          "duration": 0.126096302083333
        },
        {
          "name": "A#3",
          "midi": 58,
          "time": 60.39464625000028,
          "velocity": 0.7874015748031497,
          "duration": 0.126096302083333
        },
        {
          "name": "D#4",
          "midi": 63,
          "time": 60.52622500000028,
          "velocity": 0.7874015748031497,
          "duration": 0.25767505208333574
        },
        {
          "name": "A#3",
          "midi": 58,
          "time": 60.52622500000028,
          "velocity": 0.7874015748031497,
          "duration": 0.25767505208333574
        },
        {
          "name": "D#4",
          "midi": 63,
          "time": 60.789382500000286,
          "velocity": 0.7874015748031497,
          "duration": 0.126096302083333
        },
        {
          "name": "A#3",
          "midi": 58,
          "time": 60.789382500000286,
          "velocity": 0.7874015748031497,
          "duration": 0.126096302083333
        },
        {
          "name": "C4",
          "midi": 60,
          "time": 60.92096125000029,
          "velocity": 0.7874015748031497,
          "duration": 0.126096302083333
        },
        {
          "name": "G4",
          "midi": 67,
          "time": 60.92096125000029,
          "velocity": 0.7874015748031497,
          "duration": 0.126096302083333
        },
        {
          "name": "G4",
          "midi": 67,
          "time": 61.05254000000029,
          "velocity": 0.7874015748031497,
          "duration": 0.25767505208333574
        },
        {
          "name": "C4",
          "midi": 60,
          "time": 61.05254000000029,
          "velocity": 0.7874015748031497,
          "duration": 0.25767505208333574
        },
        {
          "name": "C4",
          "midi": 60,
          "time": 61.3156975000003,
          "velocity": 0.7874015748031497,
          "duration": 0.25767505208333574
        },
        {
          "name": "G4",
          "midi": 67,
          "time": 61.3156975000003,
          "velocity": 0.7874015748031497,
          "duration": 0.25767505208333574
        },
        {
          "name": "G4",
          "midi": 67,
          "time": 61.5788550000003,
          "velocity": 0.7874015748031497,
          "duration": 0.25767505208333574
        },
        {
          "name": "C4",
          "midi": 60,
          "time": 61.5788550000003,
          "velocity": 0.7874015748031497,
          "duration": 0.25767505208333574
        },
        {
          "name": "G4",
          "midi": 67,
          "time": 61.84201250000031,
          "velocity": 0.7874015748031497,
          "duration": 0.126096302083333
        },
        {
          "name": "C4",
          "midi": 60,
          "time": 61.84201250000031,
          "velocity": 0.7874015748031497,
          "duration": 0.126096302083333
        },
        {
          "name": "C4",
          "midi": 60,
          "time": 61.97359125000031,
          "velocity": 0.7874015748031497,
          "duration": 0.126096302083333
        },
        {
          "name": "G4",
          "midi": 67,
          "time": 61.97359125000031,
          "velocity": 0.7874015748031497,
          "duration": 0.126096302083333
        },
        {
          "name": "F4",
          "midi": 65,
          "time": 62.105170000000314,
          "velocity": 0.7874015748031497,
          "duration": 0.126096302083333
        },
        {
          "name": "A#3",
          "midi": 58,
          "time": 62.105170000000314,
          "velocity": 0.7874015748031497,
          "duration": 0.126096302083333
        },
        {
          "name": "A#3",
          "midi": 58,
          "time": 62.23674875000032,
          "velocity": 0.7874015748031497,
          "duration": 0.126096302083333
        },
        {
          "name": "F4",
          "midi": 65,
          "time": 62.23674875000032,
          "velocity": 0.7874015748031497,
          "duration": 0.126096302083333
        },
        {
          "name": "F4",
          "midi": 65,
          "time": 62.36832750000032,
          "velocity": 0.7874015748031497,
          "duration": 0.25767505208333574
        },
        {
          "name": "A#3",
          "midi": 58,
          "time": 62.36832750000032,
          "velocity": 0.7874015748031497,
          "duration": 0.25767505208333574
        },
        {
          "name": "F4",
          "midi": 65,
          "time": 62.631485000000325,
          "velocity": 0.7874015748031497,
          "duration": 0.25767505208333574
        },
        {
          "name": "A#3",
          "midi": 58,
          "time": 62.631485000000325,
          "velocity": 0.7874015748031497,
          "duration": 0.25767505208333574
        },
        {
          "name": "F4",
          "midi": 65,
          "time": 62.89464250000033,
          "velocity": 0.7874015748031497,
          "duration": 0.126096302083333
        },
        {
          "name": "A#3",
          "midi": 58,
          "time": 62.89464250000033,
          "velocity": 0.7874015748031497,
          "duration": 0.126096302083333
        },
        {
          "name": "F4",
          "midi": 65,
          "time": 63.02622125000033,
          "velocity": 0.7874015748031497,
          "duration": 0.126096302083333
        },
        {
          "name": "A#3",
          "midi": 58,
          "time": 63.02622125000033,
          "velocity": 0.7874015748031497,
          "duration": 0.126096302083333
        },
        {
          "name": "C4",
          "midi": 60,
          "time": 63.157800000000336,
          "velocity": 0.7874015748031497,
          "duration": 0.25767505208333574
        },
        {
          "name": "G#3",
          "midi": 56,
          "time": 63.157800000000336,
          "velocity": 0.7874015748031497,
          "duration": 0.25767505208333574
        },
        {
          "name": "C4",
          "midi": 60,
          "time": 63.42095750000034,
          "velocity": 0.7874015748031497,
          "duration": 0.25767505208333574
        },
        {
          "name": "G#3",
          "midi": 56,
          "time": 63.42095750000034,
          "velocity": 0.7874015748031497,
          "duration": 0.25767505208333574
        },
        {
          "name": "C4",
          "midi": 60,
          "time": 63.68411500000035,
          "velocity": 0.7874015748031497,
          "duration": 0.25767505208333574
        },
        {
          "name": "G#3",
          "midi": 56,
          "time": 63.68411500000035,
          "velocity": 0.7874015748031497,
          "duration": 0.25767505208333574
        },
        {
          "name": "C4",
          "midi": 60,
          "time": 63.94727250000035,
          "velocity": 0.7874015748031497,
          "duration": 0.038377135416666874
        },
        {
          "name": "G#3",
          "midi": 56,
          "time": 63.94727250000035,
          "velocity": 0.7874015748031497,
          "duration": 0.038377135416666874
        },
        {
          "name": "C4",
          "midi": 60,
          "time": 64.07885125000035,
          "velocity": 0.7874015748031497,
          "duration": 0.038377135416666874
        },
        {
          "name": "G#3",
          "midi": 56,
          "time": 64.07885125000035,
          "velocity": 0.7874015748031497,
          "duration": 0.038377135416666874
        },
        {
          "name": "F4",
          "midi": 65,
          "time": 64.21043000000036,
          "velocity": 0.7874015748031497,
          "duration": 0.1260963020833401
        },
        {
          "name": "A#3",
          "midi": 58,
          "time": 64.21043000000036,
          "velocity": 0.7874015748031497,
          "duration": 0.1260963020833401
        },
        {
          "name": "A#3",
          "midi": 58,
          "time": 64.34200875000036,
          "velocity": 0.7874015748031497,
          "duration": 0.1260963020833401
        },
        {
          "name": "F4",
          "midi": 65,
          "time": 64.34200875000036,
          "velocity": 0.7874015748031497,
          "duration": 0.1260963020833401
        },
        {
          "name": "F4",
          "midi": 65,
          "time": 64.47358750000036,
          "velocity": 0.7874015748031497,
          "duration": 0.25767505208332864
        },
        {
          "name": "A#3",
          "midi": 58,
          "time": 64.47358750000036,
          "velocity": 0.7874015748031497,
          "duration": 0.25767505208332864
        },
        {
          "name": "A#3",
          "midi": 58,
          "time": 64.73674500000035,
          "velocity": 0.7874015748031497,
          "duration": 0.25767505208332864
        },
        {
          "name": "F4",
          "midi": 65,
          "time": 64.73674500000035,
          "velocity": 0.7874015748031497,
          "duration": 0.25767505208332864
        },
        {
          "name": "F4",
          "midi": 65,
          "time": 64.99990250000035,
          "velocity": 0.7874015748031497,
          "duration": 0.1260963020833401
        },
        {
          "name": "A#3",
          "midi": 58,
          "time": 64.99990250000035,
          "velocity": 0.7874015748031497,
          "duration": 0.1260963020833401
        },
        {
          "name": "G4",
          "midi": 67,
          "time": 65.13148125000035,
          "velocity": 0.7874015748031497,
          "duration": 0.1260963020833401
        },
        {
          "name": "C4",
          "midi": 60,
          "time": 65.13148125000035,
          "velocity": 0.7874015748031497,
          "duration": 0.1260963020833401
        },
        {
          "name": "G4",
          "midi": 67,
          "time": 65.26306000000035,
          "velocity": 0.7874015748031497,
          "duration": 0.25767505208332864
        },
        {
          "name": "C4",
          "midi": 60,
          "time": 65.26306000000035,
          "velocity": 0.7874015748031497,
          "duration": 0.25767505208332864
        },
        {
          "name": "C4",
          "midi": 60,
          "time": 65.52621750000034,
          "velocity": 0.7874015748031497,
          "duration": 0.25767505208332864
        },
        {
          "name": "G4",
          "midi": 67,
          "time": 65.52621750000034,
          "velocity": 0.7874015748031497,
          "duration": 0.25767505208332864
        },
        {
          "name": "G4",
          "midi": 67,
          "time": 65.78937500000033,
          "velocity": 0.7874015748031497,
          "duration": 0.25767505208332864
        },
        {
          "name": "C4",
          "midi": 60,
          "time": 65.78937500000033,
          "velocity": 0.7874015748031497,
          "duration": 0.25767505208332864
        },
        {
          "name": "G4",
          "midi": 67,
          "time": 66.05253250000032,
          "velocity": 0.7874015748031497,
          "duration": 0.038377135416666874
        },
        {
          "name": "C4",
          "midi": 60,
          "time": 66.05253250000032,
          "velocity": 0.7874015748031497,
          "duration": 0.038377135416666874
        },
        {
          "name": "C4",
          "midi": 60,
          "time": 66.18411125000033,
          "velocity": 0.7874015748031497,
          "duration": 0.038377135416666874
        },
        {
          "name": "G4",
          "midi": 67,
          "time": 66.18411125000033,
          "velocity": 0.7874015748031497,
          "duration": 0.038377135416666874
        },
        {
          "name": "G4",
          "midi": 67,
          "time": 66.31569000000033,
          "velocity": 0.7874015748031497,
          "duration": 0.038377135416666874
        },
        {
          "name": "C4",
          "midi": 60,
          "time": 66.31569000000033,
          "velocity": 0.7874015748031497,
          "duration": 0.038377135416666874
        },
        {
          "name": "F4",
          "midi": 65,
          "time": 66.57884750000034,
          "velocity": 0.7874015748031497,
          "duration": 0.25767505208332864
        },
        {
          "name": "A#3",
          "midi": 58,
          "time": 66.57884750000034,
          "velocity": 0.7874015748031497,
          "duration": 0.25767505208332864
        },
        {
          "name": "A#3",
          "midi": 58,
          "time": 66.84200500000033,
          "velocity": 0.7874015748031497,
          "duration": 0.25767505208332864
        },
        {
          "name": "F4",
          "midi": 65,
          "time": 66.84200500000033,
          "velocity": 0.7874015748031497,
          "duration": 0.25767505208332864
        },
        {
          "name": "F4",
          "midi": 65,
          "time": 67.10516250000032,
          "velocity": 0.7874015748031497,
          "duration": 0.1260963020833401
        },
        {
          "name": "A#3",
          "midi": 58,
          "time": 67.10516250000032,
          "velocity": 0.7874015748031497,
          "duration": 0.1260963020833401
        },
        {
          "name": "A#3",
          "midi": 58,
          "time": 67.23674125000032,
          "velocity": 0.7874015748031497,
          "duration": 0.1260963020833401
        },
        {
          "name": "F4",
          "midi": 65,
          "time": 67.23674125000032,
          "velocity": 0.7874015748031497,
          "duration": 0.1260963020833401
        },
        {
          "name": "C4",
          "midi": 60,
          "time": 67.36832000000032,
          "velocity": 0.7874015748031497,
          "duration": 0.5208325520833341
        },
        {
          "name": "G#3",
          "midi": 56,
          "time": 67.36832000000032,
          "velocity": 0.7874015748031497,
          "duration": 0.5208325520833341
        },
        {
          "name": "C4",
          "midi": 60,
          "time": 67.89463500000032,
          "velocity": 0.7874015748031497,
          "duration": 0.25767505208332864
        },
        {
          "name": "G#3",
          "midi": 56,
          "time": 67.89463500000032,
          "velocity": 0.7874015748031497,
          "duration": 0.25767505208332864
        },
        {
          "name": "C4",
          "midi": 60,
          "time": 68.15779250000031,
          "velocity": 0.7874015748031497,
          "duration": 0.038377135416666874
        },
        {
          "name": "G#3",
          "midi": 56,
          "time": 68.15779250000031,
          "velocity": 0.7874015748031497,
          "duration": 0.038377135416666874
        },
        {
          "name": "A#3",
          "midi": 58,
          "time": 68.28937125000031,
          "velocity": 0.7874015748031497,
          "duration": 0.1260963020833401
        },
        {
          "name": "F4",
          "midi": 65,
          "time": 68.28937125000031,
          "velocity": 0.7874015748031497,
          "duration": 0.1260963020833401
        },
        {
          "name": "F4",
          "midi": 65,
          "time": 68.42095000000032,
          "velocity": 0.7874015748031497,
          "duration": 0.25767505208332864
        },
        {
          "name": "A#3",
          "midi": 58,
          "time": 68.42095000000032,
          "velocity": 0.7874015748031497,
          "duration": 0.25767505208332864
        },
        {
          "name": "A#3",
          "midi": 58,
          "time": 68.68410750000031,
          "velocity": 0.7874015748031497,
          "duration": 0.25767505208332864
        },
        {
          "name": "F4",
          "midi": 65,
          "time": 68.68410750000031,
          "velocity": 0.7874015748031497,
          "duration": 0.25767505208332864
        },
        {
          "name": "F4",
          "midi": 65,
          "time": 68.9472650000003,
          "velocity": 0.7874015748031497,
          "duration": 0.1260963020833401
        },
        {
          "name": "A#3",
          "midi": 58,
          "time": 68.9472650000003,
          "velocity": 0.7874015748031497,
          "duration": 0.1260963020833401
        },
        {
          "name": "F4",
          "midi": 65,
          "time": 69.0788437500003,
          "velocity": 0.7874015748031497,
          "duration": 0.1260963020833401
        },
        {
          "name": "A#3",
          "midi": 58,
          "time": 69.0788437500003,
          "velocity": 0.7874015748031497,
          "duration": 0.1260963020833401
        },
        {
          "name": "F4",
          "midi": 65,
          "time": 69.2104225000003,
          "velocity": 0.7874015748031497,
          "duration": 0.25767505208332864
        },
        {
          "name": "A#3",
          "midi": 58,
          "time": 69.2104225000003,
          "velocity": 0.7874015748031497,
          "duration": 0.25767505208332864
        },
        {
          "name": "G4",
          "midi": 67,
          "time": 69.4735800000003,
          "velocity": 0.7874015748031497,
          "duration": 1.0471475520833309
        },
        {
          "name": "C4",
          "midi": 60,
          "time": 69.4735800000003,
          "velocity": 0.7874015748031497,
          "duration": 1.0471475520833309
        },
        {
          "name": "F4",
          "midi": 65,
          "time": 70.52621000000029,
          "velocity": 0.7874015748031497,
          "duration": 1.0471475520833309
        },
        {
          "name": "A#3",
          "midi": 58,
          "time": 70.52621000000029,
          "velocity": 0.7874015748031497,
          "duration": 1.0471475520833309
        },
        {
          "name": "C4",
          "midi": 60,
          "time": 71.57884000000028,
          "velocity": 0.7874015748031497,
          "duration": 1.0471475520833309
        },
        {
          "name": "G#3",
          "midi": 56,
          "time": 71.57884000000028,
          "velocity": 0.7874015748031497,
          "duration": 1.0471475520833309
        },
        {
          "name": "F4",
          "midi": 65,
          "time": 72.89462750000028,
          "velocity": 0.7874015748031497,
          "duration": 0.25767505208332864
        },
        {
          "name": "A#3",
          "midi": 58,
          "time": 72.89462750000028,
          "velocity": 0.7874015748031497,
          "duration": 0.25767505208332864
        },
        {
          "name": "A#3",
          "midi": 58,
          "time": 73.15778500000027,
          "velocity": 0.7874015748031497,
          "duration": 0.25767505208332864
        },
        {
          "name": "F4",
          "midi": 65,
          "time": 73.15778500000027,
          "velocity": 0.7874015748031497,
          "duration": 0.25767505208332864
        },
        {
          "name": "F4",
          "midi": 65,
          "time": 73.42094250000027,
          "velocity": 0.7874015748031497,
          "duration": 0.06030692708333163
        },
        {
          "name": "A#3",
          "midi": 58,
          "time": 73.42094250000027,
          "velocity": 0.7874015748031497,
          "duration": 0.06030692708333163
        },
        {
          "name": "G4",
          "midi": 67,
          "time": 73.68410000000026,
          "velocity": 0.7874015748031497,
          "duration": 1.0471475520833309
        },
        {
          "name": "C4",
          "midi": 60,
          "time": 73.68410000000026,
          "velocity": 0.7874015748031497,
          "duration": 1.0471475520833309
        },
        {
          "name": "F4",
          "midi": 65,
          "time": 74.73673000000025,
          "velocity": 0.7874015748031497,
          "duration": 1.0471475520833309
        },
        {
          "name": "A#3",
          "midi": 58,
          "time": 74.73673000000025,
          "velocity": 0.7874015748031497,
          "duration": 1.0471475520833309
        },
        {
          "name": "C4",
          "midi": 60,
          "time": 75.78936000000024,
          "velocity": 0.7874015748031497,
          "duration": 1.0471475520833309
        },
        {
          "name": "G#3",
          "midi": 56,
          "time": 75.78936000000024,
          "velocity": 0.7874015748031497,
          "duration": 1.0471475520833309
        },
        {
          "name": "F4",
          "midi": 65,
          "time": 77.10514750000024,
          "velocity": 0.7874015748031497,
          "duration": 0.25767505208332864
        },
        {
          "name": "A#3",
          "midi": 58,
          "time": 77.10514750000024,
          "velocity": 0.7874015748031497,
          "duration": 0.25767505208332864
        },
        {
          "name": "A#3",
          "midi": 58,
          "time": 77.36830500000023,
          "velocity": 0.7874015748031497,
          "duration": 0.25767505208332864
        },
        {
          "name": "F4",
          "midi": 65,
          "time": 77.36830500000023,
          "velocity": 0.7874015748031497,
          "duration": 0.25767505208332864
        },
        {
          "name": "F4",
          "midi": 65,
          "time": 77.63146250000023,
          "velocity": 0.7874015748031497,
          "duration": 0.25767505208332864
        },
        {
          "name": "A#3",
          "midi": 58,
          "time": 77.63146250000023,
          "velocity": 0.7874015748031497,
          "duration": 0.25767505208332864
        },
        {
          "name": "G4",
          "midi": 67,
          "time": 77.89462000000022,
          "velocity": 0.7874015748031497,
          "duration": 1.0471475520833309
        },
        {
          "name": "C4",
          "midi": 60,
          "time": 77.89462000000022,
          "velocity": 0.7874015748031497,
          "duration": 1.0471475520833309
        },
        {
          "name": "F4",
          "midi": 65,
          "time": 78.94725000000021,
          "velocity": 0.7874015748031497,
          "duration": 1.0471475520833309
        },
        {
          "name": "A#3",
          "midi": 58,
          "time": 78.94725000000021,
          "velocity": 0.7874015748031497,
          "duration": 1.0471475520833309
        },
        {
          "name": "C4",
          "midi": 60,
          "time": 79.9998800000002,
          "velocity": 0.7874015748031497,
          "duration": 1.0471475520833309
        },
        {
          "name": "G#3",
          "midi": 56,
          "time": 79.9998800000002,
          "velocity": 0.7874015748031497,
          "duration": 1.0471475520833309
        },
        {
          "name": "F4",
          "midi": 65,
          "time": 81.3156675000002,
          "velocity": 0.7874015748031497,
          "duration": 0.25767505208332864
        },
        {
          "name": "A#3",
          "midi": 58,
          "time": 81.3156675000002,
          "velocity": 0.7874015748031497,
          "duration": 0.25767505208332864
        },
        {
          "name": "A#3",
          "midi": 58,
          "time": 81.5788250000002,
          "velocity": 0.7874015748031497,
          "duration": 0.25767505208332864
        },
        {
          "name": "F4",
          "midi": 65,
          "time": 81.5788250000002,
          "velocity": 0.7874015748031497,
          "duration": 0.25767505208332864
        },
        {
          "name": "F4",
          "midi": 65,
          "time": 81.84198250000019,
          "velocity": 0.7874015748031497,
          "duration": 0.06030692708333163
        },
        {
          "name": "A#3",
          "midi": 58,
          "time": 81.84198250000019,
          "velocity": 0.7874015748031497,
          "duration": 0.06030692708333163
        },
        {
          "name": "G4",
          "midi": 67,
          "time": 82.10514000000018,
          "velocity": 0.7874015748031497,
          "duration": 1.0471475520833309
        },
        {
          "name": "C4",
          "midi": 60,
          "time": 82.10514000000018,
          "velocity": 0.7874015748031497,
          "duration": 1.0471475520833309
        },
        {
          "name": "F4",
          "midi": 65,
          "time": 83.15777000000017,
          "velocity": 0.7874015748031497,
          "duration": 1.0471475520833309
        },
        {
          "name": "A#3",
          "midi": 58,
          "time": 83.15777000000017,
          "velocity": 0.7874015748031497,
          "duration": 1.0471475520833309
        },
        {
          "name": "C4",
          "midi": 60,
          "time": 84.21040000000016,
          "velocity": 0.7874015748031497,
          "duration": 1.0471475520833309
        },
        {
          "name": "G#3",
          "midi": 56,
          "time": 84.21040000000016,
          "velocity": 0.7874015748031497,
          "duration": 1.0471475520833309
        },
        {
          "name": "F4",
          "midi": 65,
          "time": 85.52618750000016,
          "velocity": 0.7874015748031497,
          "duration": 0.1260963020833401
        },
        {
          "name": "A#3",
          "midi": 58,
          "time": 85.52618750000016,
          "velocity": 0.7874015748031497,
          "duration": 0.1260963020833401
        },
        {
          "name": "F4",
          "midi": 65,
          "time": 85.65776625000017,
          "velocity": 0.7874015748031497,
          "duration": 0.1260963020833401
        },
        {
          "name": "A#3",
          "midi": 58,
          "time": 85.65776625000017,
          "velocity": 0.7874015748031497,
          "duration": 0.1260963020833401
        },
        {
          "name": "F4",
          "midi": 65,
          "time": 85.78934500000017,
          "velocity": 0.7874015748031497,
          "duration": 0.25767505208332864
        },
        {
          "name": "A#3",
          "midi": 58,
          "time": 85.78934500000017,
          "velocity": 0.7874015748031497,
          "duration": 0.25767505208332864
        },
        {
          "name": "F4",
          "midi": 65,
          "time": 86.05250250000016,
          "velocity": 0.7874015748031497,
          "duration": 0.06030692708333163
        },
        {
          "name": "A#3",
          "midi": 58,
          "time": 86.05250250000016,
          "velocity": 0.7874015748031497,
          "duration": 0.06030692708333163
        },
        {
          "name": "G4",
          "midi": 67,
          "time": 86.31566000000015,
          "velocity": 0.7874015748031497,
          "duration": 1.0471475520833309
        },
        {
          "name": "C4",
          "midi": 60,
          "time": 86.31566000000015,
          "velocity": 0.7874015748031497,
          "duration": 1.0471475520833309
        },
        {
          "name": "F4",
          "midi": 65,
          "time": 87.36829000000014,
          "velocity": 0.7874015748031497,
          "duration": 1.0471475520833309
        },
        {
          "name": "A#3",
          "midi": 58,
          "time": 87.36829000000014,
          "velocity": 0.7874015748031497,
          "duration": 1.0471475520833309
        },
        {
          "name": "C4",
          "midi": 60,
          "time": 88.42092000000014,
          "velocity": 0.7874015748031497,
          "duration": 1.0471475520833309
        },
        {
          "name": "G#3",
          "midi": 56,
          "time": 88.42092000000014,
          "velocity": 0.7874015748031497,
          "duration": 1.0471475520833309
        },
        {
          "name": "C4",
          "midi": 60,
          "time": 89.47355000000013,
          "velocity": 0.7874015748031497,
          "duration": 0.038377135416666874
        },
        {
          "name": "G#3",
          "midi": 56,
          "time": 89.47355000000013,
          "velocity": 0.7874015748031497,
          "duration": 0.038377135416666874
        },
        {
          "name": "F4",
          "midi": 65,
          "time": 89.73670750000014,
          "velocity": 0.7874015748031497,
          "duration": 0.1260963020833401
        },
        {
          "name": "A#3",
          "midi": 58,
          "time": 89.73670750000014,
          "velocity": 0.7874015748031497,
          "duration": 0.1260963020833401
        },
        {
          "name": "F4",
          "midi": 65,
          "time": 89.86828625000014,
          "velocity": 0.7874015748031497,
          "duration": 0.1260963020833401
        },
        {
          "name": "A#3",
          "midi": 58,
          "time": 89.86828625000014,
          "velocity": 0.7874015748031497,
          "duration": 0.1260963020833401
        },
        {
          "name": "F4",
          "midi": 65,
          "time": 89.99986500000014,
          "velocity": 0.7874015748031497,
          "duration": 0.25767505208332864
        },
        {
          "name": "A#3",
          "midi": 58,
          "time": 89.99986500000014,
          "velocity": 0.7874015748031497,
          "duration": 0.25767505208332864
        },
        {
          "name": "F4",
          "midi": 65,
          "time": 90.26302250000013,
          "velocity": 0.7874015748031497,
          "duration": 0.06030692708333163
        },
        {
          "name": "A#3",
          "midi": 58,
          "time": 90.26302250000013,
          "velocity": 0.7874015748031497,
          "duration": 0.06030692708333163
        },
        {
          "name": "G4",
          "midi": 67,
          "time": 90.52618000000012,
          "velocity": 0.7874015748031497,
          "duration": 1.0471475520833309
        },
        {
          "name": "C4",
          "midi": 60,
          "time": 90.52618000000012,
          "velocity": 0.7874015748031497,
          "duration": 1.0471475520833309
        },
        {
          "name": "F4",
          "midi": 65,
          "time": 91.57881000000012,
          "velocity": 0.7874015748031497,
          "duration": 1.0471475520833309
        },
        {
          "name": "A#3",
          "midi": 58,
          "time": 91.57881000000012,
          "velocity": 0.7874015748031497,
          "duration": 1.0471475520833309
        },
        {
          "name": "C4",
          "midi": 60,
          "time": 92.63144000000011,
          "velocity": 0.7874015748031497,
          "duration": 1.0471475520833309
        },
        {
          "name": "G#3",
          "midi": 56,
          "time": 92.63144000000011,
          "velocity": 0.7874015748031497,
          "duration": 1.0471475520833309
        },
        {
          "name": "F4",
          "midi": 65,
          "time": 93.94722750000011,
          "velocity": 0.7874015748031497,
          "duration": 0.1260963020833401
        },
        {
          "name": "A#3",
          "midi": 58,
          "time": 93.94722750000011,
          "velocity": 0.7874015748031497,
          "duration": 0.1260963020833401
        },
        {
          "name": "F4",
          "midi": 65,
          "time": 94.07880625000011,
          "velocity": 0.7874015748031497,
          "duration": 0.1260963020833401
        },
        {
          "name": "A#3",
          "midi": 58,
          "time": 94.07880625000011,
          "velocity": 0.7874015748031497,
          "duration": 0.1260963020833401
        },
        {
          "name": "F4",
          "midi": 65,
          "time": 94.21038500000012,
          "velocity": 0.7874015748031497,
          "duration": 0.25767505208332864
        },
        {
          "name": "A#3",
          "midi": 58,
          "time": 94.21038500000012,
          "velocity": 0.7874015748031497,
          "duration": 0.25767505208332864
        },
        {
          "name": "F4",
          "midi": 65,
          "time": 94.47354250000011,
          "velocity": 0.7874015748031497,
          "duration": 0.06030692708333163
        },
        {
          "name": "A#3",
          "midi": 58,
          "time": 94.47354250000011,
          "velocity": 0.7874015748031497,
          "duration": 0.06030692708333163
        },
        {
          "name": "G4",
          "midi": 67,
          "time": 94.7367000000001,
          "velocity": 0.7874015748031497,
          "duration": 1.0471475520833309
        },
        {
          "name": "C4",
          "midi": 60,
          "time": 94.7367000000001,
          "velocity": 0.7874015748031497,
          "duration": 1.0471475520833309
        },
        {
          "name": "F4",
          "midi": 65,
          "time": 95.78933000000009,
          "velocity": 0.7874015748031497,
          "duration": 1.0471475520833309
        },
        {
          "name": "A#3",
          "midi": 58,
          "time": 95.78933000000009,
          "velocity": 0.7874015748031497,
          "duration": 1.0471475520833309
        },
        {
          "name": "C4",
          "midi": 60,
          "time": 96.84196000000009,
          "velocity": 0.7874015748031497,
          "duration": 1.0471475520833309
        },
        {
          "name": "G#3",
          "midi": 56,
          "time": 96.84196000000009,
          "velocity": 0.7874015748031497,
          "duration": 1.0471475520833309
        },
        {
          "name": "F4",
          "midi": 65,
          "time": 98.15774750000008,
          "velocity": 0.7874015748031497,
          "duration": 0.25767505208332864
        },
        {
          "name": "A#3",
          "midi": 58,
          "time": 98.15774750000008,
          "velocity": 0.7874015748031497,
          "duration": 0.25767505208332864
        },
        {
          "name": "F4",
          "midi": 65,
          "time": 98.42090500000008,
          "velocity": 0.7874015748031497,
          "duration": 0.25767505208332864
        },
        {
          "name": "A#3",
          "midi": 58,
          "time": 98.42090500000008,
          "velocity": 0.7874015748031497,
          "duration": 0.25767505208332864
        },
        {
          "name": "G4",
          "midi": 67,
          "time": 98.68406250000007,
          "velocity": 0.7874015748031497,
          "duration": 0.1260963020833401
        },
        {
          "name": "C4",
          "midi": 60,
          "time": 98.68406250000007,
          "velocity": 0.7874015748031497,
          "duration": 0.1260963020833401
        },
        {
          "name": "C4",
          "midi": 60,
          "time": 98.81564125000007,
          "velocity": 0.7874015748031497,
          "duration": 0.1260963020833401
        },
        {
          "name": "G4",
          "midi": 67,
          "time": 98.81564125000007,
          "velocity": 0.7874015748031497,
          "duration": 0.1260963020833401
        },
        {
          "name": "G4",
          "midi": 67,
          "time": 98.94722000000007,
          "velocity": 0.7874015748031497,
          "duration": 1.0471475520833309
        },
        {
          "name": "C4",
          "midi": 60,
          "time": 98.94722000000007,
          "velocity": 0.7874015748031497,
          "duration": 1.0471475520833309
        },
        {
          "name": "F4",
          "midi": 65,
          "time": 99.99985000000007,
          "velocity": 0.7874015748031497,
          "duration": 1.0471475520833309
        },
        {
          "name": "A#3",
          "midi": 58,
          "time": 99.99985000000007,
          "velocity": 0.7874015748031497,
          "duration": 1.0471475520833309
        },
        {
          "name": "C4",
          "midi": 60,
          "time": 101.05248000000006,
          "velocity": 0.7874015748031497,
          "duration": 1.0471475520833309
        },
        {
          "name": "G#3",
          "midi": 56,
          "time": 101.05248000000006,
          "velocity": 0.7874015748031497,
          "duration": 1.0471475520833309
        },
        {
          "name": "F4",
          "midi": 65,
          "time": 102.36826750000006,
          "velocity": 0.7874015748031497,
          "duration": 0.25767505208332864
        },
        {
          "name": "A#3",
          "midi": 58,
          "time": 102.36826750000006,
          "velocity": 0.7874015748031497,
          "duration": 0.25767505208332864
        },
        {
          "name": "F4",
          "midi": 65,
          "time": 102.63142500000005,
          "velocity": 0.7874015748031497,
          "duration": 0.25767505208332864
        },
        {
          "name": "A#3",
          "midi": 58,
          "time": 102.63142500000005,
          "velocity": 0.7874015748031497,
          "duration": 0.25767505208332864
        },
        {
          "name": "F4",
          "midi": 65,
          "time": 102.89458250000004,
          "velocity": 0.7874015748031497,
          "duration": 0.1260963020833401
        },
        {
          "name": "A#3",
          "midi": 58,
          "time": 102.89458250000004,
          "velocity": 0.7874015748031497,
          "duration": 0.1260963020833401
        },
        {
          "name": "F4",
          "midi": 65,
          "time": 103.02616125000004,
          "velocity": 0.7874015748031497,
          "duration": 0.1260963020833401
        },
        {
          "name": "A#3",
          "midi": 58,
          "time": 103.02616125000004,
          "velocity": 0.7874015748031497,
          "duration": 0.1260963020833401
        },
        {
          "name": "C4",
          "midi": 60,
          "time": 103.15774000000005,
          "velocity": 0.7874015748031497,
          "duration": 0.5208325520833341
        },
        {
          "name": "G4",
          "midi": 67,
          "time": 103.15774000000005,
          "velocity": 0.7874015748031497,
          "duration": 0.5208325520833341
        },
        {
          "name": "G4",
          "midi": 67,
          "time": 103.68405500000004,
          "velocity": 0.7874015748031497,
          "duration": 0.25767505208332864
        },
        {
          "name": "C4",
          "midi": 60,
          "time": 103.68405500000004,
          "velocity": 0.7874015748031497,
          "duration": 0.25767505208332864
        },
        {
          "name": "G4",
          "midi": 67,
          "time": 103.94721250000003,
          "velocity": 0.7874015748031497,
          "duration": 0.038377135416666874
        },
        {
          "name": "C4",
          "midi": 60,
          "time": 103.94721250000003,
          "velocity": 0.7874015748031497,
          "duration": 0.038377135416666874
        },
        {
          "name": "C4",
          "midi": 60,
          "time": 104.07879125000004,
          "velocity": 0.7874015748031497,
          "duration": 0.038377135416666874
        },
        {
          "name": "G4",
          "midi": 67,
          "time": 104.07879125000004,
          "velocity": 0.7874015748031497,
          "duration": 0.038377135416666874
        },
        {
          "name": "F4",
          "midi": 65,
          "time": 104.47352750000003,
          "velocity": 0.7874015748031497,
          "duration": 0.25767505208332864
        },
        {
          "name": "A#3",
          "midi": 58,
          "time": 104.47352750000003,
          "velocity": 0.7874015748031497,
          "duration": 0.25767505208332864
        },
        {
          "name": "F4",
          "midi": 65,
          "time": 104.73668500000002,
          "velocity": 0.7874015748031497,
          "duration": 0.25767505208332864
        },
        {
          "name": "A#3",
          "midi": 58,
          "time": 104.73668500000002,
          "velocity": 0.7874015748031497,
          "duration": 0.25767505208332864
        },
        {
          "name": "F4",
          "midi": 65,
          "time": 104.99984250000001,
          "velocity": 0.7874015748031497,
          "duration": 0.1260963020833401
        },
        {
          "name": "A#3",
          "midi": 58,
          "time": 104.99984250000001,
          "velocity": 0.7874015748031497,
          "duration": 0.1260963020833401
        },
        {
          "name": "A#3",
          "midi": 58,
          "time": 105.13142125000002,
          "velocity": 0.7874015748031497,
          "duration": 0.1260963020833401
        },
        {
          "name": "F4",
          "midi": 65,
          "time": 105.13142125000002,
          "velocity": 0.7874015748031497,
          "duration": 0.1260963020833401
        },
        {
          "name": "C4",
          "midi": 60,
          "time": 105.26300000000002,
          "velocity": 0.7874015748031497,
          "duration": 0.25767505208332864
        },
        {
          "name": "G#3",
          "midi": 56,
          "time": 105.26300000000002,
          "velocity": 0.7874015748031497,
          "duration": 0.25767505208332864
        },
        {
          "name": "C4",
          "midi": 60,
          "time": 105.52615750000001,
          "velocity": 0.7874015748031497,
          "duration": 0.1260963020833401
        },
        {
          "name": "G#3",
          "midi": 56,
          "time": 105.52615750000001,
          "velocity": 0.7874015748031497,
          "duration": 0.1260963020833401
        },
        {
          "name": "G#3",
          "midi": 56,
          "time": 105.65773625000001,
          "velocity": 0.7874015748031497,
          "duration": 0.1260963020833401
        },
        {
          "name": "C4",
          "midi": 60,
          "time": 105.65773625000001,
          "velocity": 0.7874015748031497,
          "duration": 0.1260963020833401
        },
        {
          "name": "C4",
          "midi": 60,
          "time": 105.78931500000002,
          "velocity": 0.7874015748031497,
          "duration": 0.25767505208332864
        },
        {
          "name": "G#3",
          "midi": 56,
          "time": 105.78931500000002,
          "velocity": 0.7874015748031497,
          "duration": 0.25767505208332864
        },
        {
          "name": "C4",
          "midi": 60,
          "time": 106.05247250000001,
          "velocity": 0.7874015748031497,
          "duration": 0.038377135416666874
        },
        {
          "name": "G#3",
          "midi": 56,
          "time": 106.05247250000001,
          "velocity": 0.7874015748031497,
          "duration": 0.038377135416666874
        },
        {
          "name": "G#3",
          "midi": 56,
          "time": 106.18405125000001,
          "velocity": 0.7874015748031497,
          "duration": 0.038377135416666874
        },
        {
          "name": "C4",
          "midi": 60,
          "time": 106.18405125000001,
          "velocity": 0.7874015748031497,
          "duration": 0.038377135416666874
        },
        {
          "name": "C4",
          "midi": 60,
          "time": 106.31563000000001,
          "velocity": 0.7874015748031497,
          "duration": 0.038377135416666874
        },
        {
          "name": "G#3",
          "midi": 56,
          "time": 106.31563000000001,
          "velocity": 0.7874015748031497,
          "duration": 0.038377135416666874
        },
        {
          "name": "G#3",
          "midi": 56,
          "time": 106.44720875000002,
          "velocity": 0.7874015748031497,
          "duration": 0.038377135416666874
        },
        {
          "name": "C4",
          "midi": 60,
          "time": 106.44720875000002,
          "velocity": 0.7874015748031497,
          "duration": 0.038377135416666874
        },
        {
          "name": "F4",
          "midi": 65,
          "time": 106.57878750000002,
          "velocity": 0.7874015748031497,
          "duration": 0.25767505208332864
        },
        {
          "name": "A#3",
          "midi": 58,
          "time": 106.57878750000002,
          "velocity": 0.7874015748031497,
          "duration": 0.25767505208332864
        },
        {
          "name": "F4",
          "midi": 65,
          "time": 106.84194500000001,
          "velocity": 0.7874015748031497,
          "duration": 0.25767505208332864
        },
        {
          "name": "A#3",
          "midi": 58,
          "time": 106.84194500000001,
          "velocity": 0.7874015748031497,
          "duration": 0.25767505208332864
        },
        {
          "name": "F4",
          "midi": 65,
          "time": 107.1051025,
          "velocity": 0.7874015748031497,
          "duration": 0.07127182291667111
        },
        {
          "name": "A#3",
          "midi": 58,
          "time": 107.1051025,
          "velocity": 0.7874015748031497,
          "duration": 0.07127182291667111
        },
        {
          "name": "C4",
          "midi": 60,
          "time": 107.36826,
          "velocity": 0.7874015748031497,
          "duration": 0.5208325520833341
        },
        {
          "name": "G4",
          "midi": 67,
          "time": 107.36826,
          "velocity": 0.7874015748031497,
          "duration": 0.5208325520833341
        },
        {
          "name": "G4",
          "midi": 67,
          "time": 107.894575,
          "velocity": 0.7874015748031497,
          "duration": 0.5208325520833341
        },
        {
          "name": "C4",
          "midi": 60,
          "time": 107.894575,
          "velocity": 0.7874015748031497,
          "duration": 0.5208325520833341
        },
        {
          "name": "F4",
          "midi": 65,
          "time": 108.42089,
          "velocity": 0.7874015748031497,
          "duration": 0.25767505208332864
        },
        {
          "name": "A#3",
          "midi": 58,
          "time": 108.42089,
          "velocity": 0.7874015748031497,
          "duration": 0.25767505208332864
        },
        {
          "name": "A#3",
          "midi": 58,
          "time": 108.68404749999999,
          "velocity": 0.7874015748031497,
          "duration": 0.25767505208332864
        },
        {
          "name": "F4",
          "midi": 65,
          "time": 108.68404749999999,
          "velocity": 0.7874015748031497,
          "duration": 0.25767505208332864
        },
        {
          "name": "F4",
          "midi": 65,
          "time": 108.94720499999998,
          "velocity": 0.7874015748031497,
          "duration": 0.25767505208332864
        },
        {
          "name": "A#3",
          "midi": 58,
          "time": 108.94720499999998,
          "velocity": 0.7874015748031497,
          "duration": 0.25767505208332864
        },
        {
          "name": "F4",
          "midi": 65,
          "time": 109.21036249999997,
          "velocity": 0.7874015748031497,
          "duration": 0.038377135416666874
        },
        {
          "name": "A#3",
          "midi": 58,
          "time": 109.21036249999997,
          "velocity": 0.7874015748031497,
          "duration": 0.038377135416666874
        },
        {
          "name": "C4",
          "midi": 60,
          "time": 109.34194124999998,
          "velocity": 0.7874015748031497,
          "duration": 0.1260963020833401
        },
        {
          "name": "G#3",
          "midi": 56,
          "time": 109.34194124999998,
          "velocity": 0.7874015748031497,
          "duration": 0.1260963020833401
        },
        {
          "name": "C4",
          "midi": 60,
          "time": 109.47351999999998,
          "velocity": 0.7874015748031497,
          "duration": 0.25767505208332864
        },
        {
          "name": "G#3",
          "midi": 56,
          "time": 109.47351999999998,
          "velocity": 0.7874015748031497,
          "duration": 0.25767505208332864
        },
        {
          "name": "C4",
          "midi": 60,
          "time": 109.73667749999997,
          "velocity": 0.7874015748031497,
          "duration": 0.25767505208332864
        },
        {
          "name": "G#3",
          "midi": 56,
          "time": 109.73667749999997,
          "velocity": 0.7874015748031497,
          "duration": 0.25767505208332864
        },
        {
          "name": "G#3",
          "midi": 56,
          "time": 109.99983499999996,
          "velocity": 0.7874015748031497,
          "duration": 0.25767505208332864
        },
        {
          "name": "C4",
          "midi": 60,
          "time": 109.99983499999996,
          "velocity": 0.7874015748031497,
          "duration": 0.25767505208332864
        },
        {
          "name": "C4",
          "midi": 60,
          "time": 110.26299249999995,
          "velocity": 0.7874015748031497,
          "duration": 0.038377135416666874
        },
        {
          "name": "G#3",
          "midi": 56,
          "time": 110.26299249999995,
          "velocity": 0.7874015748031497,
          "duration": 0.038377135416666874
        },
        {
          "name": "G#3",
          "midi": 56,
          "time": 110.39457124999996,
          "velocity": 0.7874015748031497,
          "duration": 0.038377135416666874
        },
        {
          "name": "C4",
          "midi": 60,
          "time": 110.39457124999996,
          "velocity": 0.7874015748031497,
          "duration": 0.038377135416666874
        },
        {
          "name": "F4",
          "midi": 65,
          "time": 110.52614999999996,
          "velocity": 0.7874015748031497,
          "duration": 0.1260963020833401
        },
        {
          "name": "A#3",
          "midi": 58,
          "time": 110.52614999999996,
          "velocity": 0.7874015748031497,
          "duration": 0.1260963020833401
        },
        {
          "name": "A#3",
          "midi": 58,
          "time": 110.65772874999996,
          "velocity": 0.7874015748031497,
          "duration": 0.1260963020833401
        },
        {
          "name": "F4",
          "midi": 65,
          "time": 110.65772874999996,
          "velocity": 0.7874015748031497,
          "duration": 0.1260963020833401
        },
        {
          "name": "F#4",
          "midi": 66,
          "time": 110.78930749999996,
          "velocity": 0.7874015748031497,
          "duration": 0.25767505208332864
        },
        {
          "name": "B3",
          "midi": 59,
          "time": 110.78930749999996,
          "velocity": 0.7874015748031497,
          "duration": 0.25767505208332864
        },
        {
          "name": "B3",
          "midi": 59,
          "time": 111.05246499999996,
          "velocity": 0.7874015748031497,
          "duration": 0.25767505208332864
        },
        {
          "name": "F#4",
          "midi": 66,
          "time": 111.05246499999996,
          "velocity": 0.7874015748031497,
          "duration": 0.25767505208332864
        },
        {
          "name": "F#4",
          "midi": 66,
          "time": 111.31562249999995,
          "velocity": 0.7874015748031497,
          "duration": 0.038377135416666874
        },
        {
          "name": "B3",
          "midi": 59,
          "time": 111.31562249999995,
          "velocity": 0.7874015748031497,
          "duration": 0.038377135416666874
        },
        {
          "name": "G#4",
          "midi": 68,
          "time": 111.44720124999995,
          "velocity": 0.7874015748031497,
          "duration": 0.1260963020833401
        },
        {
          "name": "C#4",
          "midi": 61,
          "time": 111.44720124999995,
          "velocity": 0.7874015748031497,
          "duration": 0.1260963020833401
        },
        {
          "name": "C4",
          "midi": 60,
          "time": 111.57877999999995,
          "velocity": 0.7874015748031497,
          "duration": 0.25767505208332864
        },
        {
          "name": "G4",
          "midi": 67,
          "time": 111.57877999999995,
          "velocity": 0.7874015748031497,
          "duration": 0.25767505208332864
        },
        {
          "name": "G4",
          "midi": 67,
          "time": 111.84193749999994,
          "velocity": 0.7874015748031497,
          "duration": 0.25767505208332864
        },
        {
          "name": "C4",
          "midi": 60,
          "time": 111.84193749999994,
          "velocity": 0.7874015748031497,
          "duration": 0.25767505208332864
        },
        {
          "name": "C4",
          "midi": 60,
          "time": 112.10509499999993,
          "velocity": 0.7874015748031497,
          "duration": 0.25767505208332864
        },
        {
          "name": "G4",
          "midi": 67,
          "time": 112.10509499999993,
          "velocity": 0.7874015748031497,
          "duration": 0.25767505208332864
        },
        {
          "name": "G4",
          "midi": 67,
          "time": 112.36825249999993,
          "velocity": 0.7874015748031497,
          "duration": 0.038377135416666874
        },
        {
          "name": "C4",
          "midi": 60,
          "time": 112.36825249999993,
          "velocity": 0.7874015748031497,
          "duration": 0.038377135416666874
        },
        {
          "name": "F4",
          "midi": 65,
          "time": 112.49983124999993,
          "velocity": 0.7874015748031497,
          "duration": 0.1260963020833401
        },
        {
          "name": "A#3",
          "midi": 58,
          "time": 112.49983124999993,
          "velocity": 0.7874015748031497,
          "duration": 0.1260963020833401
        },
        {
          "name": "A#3",
          "midi": 58,
          "time": 112.63140999999993,
          "velocity": 0.7874015748031497,
          "duration": 0.1260963020833401
        },
        {
          "name": "F4",
          "midi": 65,
          "time": 112.63140999999993,
          "velocity": 0.7874015748031497,
          "duration": 0.1260963020833401
        },
        {
          "name": "F4",
          "midi": 65,
          "time": 112.76298874999993,
          "velocity": 0.7874015748031497,
          "duration": 0.1260963020833401
        },
        {
          "name": "A#3",
          "midi": 58,
          "time": 112.76298874999993,
          "velocity": 0.7874015748031497,
          "duration": 0.1260963020833401
        },
        {
          "name": "F4",
          "midi": 65,
          "time": 112.89456749999994,
          "velocity": 0.7874015748031497,
          "duration": 0.25767505208332864
        },
        {
          "name": "A#3",
          "midi": 58,
          "time": 112.89456749999994,
          "velocity": 0.7874015748031497,
          "duration": 0.25767505208332864
        },
        {
          "name": "A#3",
          "midi": 58,
          "time": 113.15772499999993,
          "velocity": 0.7874015748031497,
          "duration": 0.25767505208332864
        },
        {
          "name": "F4",
          "midi": 65,
          "time": 113.15772499999993,
          "velocity": 0.7874015748031497,
          "duration": 0.25767505208332864
        },
        {
          "name": "F4",
          "midi": 65,
          "time": 113.42088249999992,
          "velocity": 0.7874015748031497,
          "duration": 0.038377135416666874
        },
        {
          "name": "A#3",
          "midi": 58,
          "time": 113.42088249999992,
          "velocity": 0.7874015748031497,
          "duration": 0.038377135416666874
        },
        {
          "name": "F4",
          "midi": 65,
          "time": 113.55246124999992,
          "velocity": 0.7874015748031497,
          "duration": 0.038377135416666874
        },
        {
          "name": "A#3",
          "midi": 58,
          "time": 113.55246124999992,
          "velocity": 0.7874015748031497,
          "duration": 0.038377135416666874
        },
        {
          "name": "C4",
          "midi": 60,
          "time": 113.68403999999992,
          "velocity": 0.7874015748031497,
          "duration": 0.25767505208332864
        },
        {
          "name": "G#3",
          "midi": 56,
          "time": 113.68403999999992,
          "velocity": 0.7874015748031497,
          "duration": 0.25767505208332864
        },
        {
          "name": "C4",
          "midi": 60,
          "time": 113.94719749999992,
          "velocity": 0.7874015748031497,
          "duration": 0.25767505208332864
        },
        {
          "name": "G#3",
          "midi": 56,
          "time": 113.94719749999992,
          "velocity": 0.7874015748031497,
          "duration": 0.25767505208332864
        },
        {
          "name": "G#3",
          "midi": 56,
          "time": 114.21035499999991,
          "velocity": 0.7874015748031497,
          "duration": 0.25767505208332864
        },
        {
          "name": "C4",
          "midi": 60,
          "time": 114.21035499999991,
          "velocity": 0.7874015748031497,
          "duration": 0.25767505208332864
        },
        {
          "name": "C4",
          "midi": 60,
          "time": 114.4735124999999,
          "velocity": 0.7874015748031497,
          "duration": 0.038377135416666874
        },
        {
          "name": "G#3",
          "midi": 56,
          "time": 114.4735124999999,
          "velocity": 0.7874015748031497,
          "duration": 0.038377135416666874
        },
        {
          "name": "G#3",
          "midi": 56,
          "time": 114.6050912499999,
          "velocity": 0.7874015748031497,
          "duration": 0.038377135416666874
        },
        {
          "name": "C4",
          "midi": 60,
          "time": 114.6050912499999,
          "velocity": 0.7874015748031497,
          "duration": 0.038377135416666874
        },
        {
          "name": "F4",
          "midi": 65,
          "time": 114.7366699999999,
          "velocity": 0.7874015748031497,
          "duration": 0.1260963020833401
        },
        {
          "name": "A#3",
          "midi": 58,
          "time": 114.7366699999999,
          "velocity": 0.7874015748031497,
          "duration": 0.1260963020833401
        },
        {
          "name": "A#3",
          "midi": 58,
          "time": 114.8682487499999,
          "velocity": 0.7874015748031497,
          "duration": 0.1260963020833401
        },
        {
          "name": "F4",
          "midi": 65,
          "time": 114.8682487499999,
          "velocity": 0.7874015748031497,
          "duration": 0.1260963020833401
        },
        {
          "name": "F4",
          "midi": 65,
          "time": 114.99982749999991,
          "velocity": 0.7874015748031497,
          "duration": 0.25767505208332864
        },
        {
          "name": "A#3",
          "midi": 58,
          "time": 114.99982749999991,
          "velocity": 0.7874015748031497,
          "duration": 0.25767505208332864
        },
        {
          "name": "A#3",
          "midi": 58,
          "time": 115.2629849999999,
          "velocity": 0.7874015748031497,
          "duration": 0.25767505208332864
        },
        {
          "name": "F4",
          "midi": 65,
          "time": 115.2629849999999,
          "velocity": 0.7874015748031497,
          "duration": 0.25767505208332864
        },
        {
          "name": "F4",
          "midi": 65,
          "time": 115.52614249999989,
          "velocity": 0.7874015748031497,
          "duration": 0.038377135416666874
        },
        {
          "name": "A#3",
          "midi": 58,
          "time": 115.52614249999989,
          "velocity": 0.7874015748031497,
          "duration": 0.038377135416666874
        },
        {
          "name": "G4",
          "midi": 67,
          "time": 115.6577212499999,
          "velocity": 0.7874015748031497,
          "duration": 0.1260963020833401
        },
        {
          "name": "C4",
          "midi": 60,
          "time": 115.6577212499999,
          "velocity": 0.7874015748031497,
          "duration": 0.1260963020833401
        },
        {
          "name": "G4",
          "midi": 67,
          "time": 115.7892999999999,
          "velocity": 0.7874015748031497,
          "duration": 0.25767505208332864
        },
        {
          "name": "C4",
          "midi": 60,
          "time": 115.7892999999999,
          "velocity": 0.7874015748031497,
          "duration": 0.25767505208332864
        },
        {
          "name": "C4",
          "midi": 60,
          "time": 116.05245749999989,
          "velocity": 0.7874015748031497,
          "duration": 0.25767505208332864
        },
        {
          "name": "G4",
          "midi": 67,
          "time": 116.05245749999989,
          "velocity": 0.7874015748031497,
          "duration": 0.25767505208332864
        },
        {
          "name": "G4",
          "midi": 67,
          "time": 116.31561499999988,
          "velocity": 0.7874015748031497,
          "duration": 0.25767505208332864
        },
        {
          "name": "C4",
          "midi": 60,
          "time": 116.31561499999988,
          "velocity": 0.7874015748031497,
          "duration": 0.25767505208332864
        },
        {
          "name": "C4",
          "midi": 60,
          "time": 116.57877249999987,
          "velocity": 0.7874015748031497,
          "duration": 0.1260963020833401
        },
        {
          "name": "G4",
          "midi": 67,
          "time": 116.57877249999987,
          "velocity": 0.7874015748031497,
          "duration": 0.1260963020833401
        },
        {
          "name": "G4",
          "midi": 67,
          "time": 116.71035124999987,
          "velocity": 0.7874015748031497,
          "duration": 0.1260963020833401
        },
        {
          "name": "C4",
          "midi": 60,
          "time": 116.71035124999987,
          "velocity": 0.7874015748031497,
          "duration": 0.1260963020833401
        },
        {
          "name": "F4",
          "midi": 65,
          "time": 116.84192999999988,
          "velocity": 0.7874015748031497,
          "duration": 0.25767505208332864
        },
        {
          "name": "A#3",
          "midi": 58,
          "time": 116.84192999999988,
          "velocity": 0.7874015748031497,
          "duration": 0.25767505208332864
        },
        {
          "name": "F4",
          "midi": 65,
          "time": 117.10508749999987,
          "velocity": 0.7874015748031497,
          "duration": 0.1260963020833401
        },
        {
          "name": "A#3",
          "midi": 58,
          "time": 117.10508749999987,
          "velocity": 0.7874015748031497,
          "duration": 0.1260963020833401
        },
        {
          "name": "F4",
          "midi": 65,
          "time": 117.23666624999987,
          "velocity": 0.7874015748031497,
          "duration": 0.1260963020833401
        },
        {
          "name": "A#3",
          "midi": 58,
          "time": 117.23666624999987,
          "velocity": 0.7874015748031497,
          "duration": 0.1260963020833401
        },
        {
          "name": "F4",
          "midi": 65,
          "time": 117.36824499999987,
          "velocity": 0.7874015748031497,
          "duration": 0.25767505208332864
        },
        {
          "name": "A#3",
          "midi": 58,
          "time": 117.36824499999987,
          "velocity": 0.7874015748031497,
          "duration": 0.25767505208332864
        },
        {
          "name": "F4",
          "midi": 65,
          "time": 117.63140249999987,
          "velocity": 0.7874015748031497,
          "duration": 0.038377135416666874
        },
        {
          "name": "A#3",
          "midi": 58,
          "time": 117.63140249999987,
          "velocity": 0.7874015748031497,
          "duration": 0.038377135416666874
        },
        {
          "name": "A#3",
          "midi": 58,
          "time": 117.76298124999987,
          "velocity": 0.7874015748031497,
          "duration": 0.038377135416666874
        },
        {
          "name": "F4",
          "midi": 65,
          "time": 117.76298124999987,
          "velocity": 0.7874015748031497,
          "duration": 0.038377135416666874
        },
        {
          "name": "C4",
          "midi": 60,
          "time": 117.89455999999987,
          "velocity": 0.7874015748031497,
          "duration": 0.1260963020833401
        },
        {
          "name": "G#3",
          "midi": 56,
          "time": 117.89455999999987,
          "velocity": 0.7874015748031497,
          "duration": 0.1260963020833401
        },
        {
          "name": "C4",
          "midi": 60,
          "time": 118.02613874999987,
          "velocity": 0.7874015748031497,
          "duration": 0.1260963020833401
        },
        {
          "name": "G#3",
          "midi": 56,
          "time": 118.02613874999987,
          "velocity": 0.7874015748031497,
          "duration": 0.1260963020833401
        },
        {
          "name": "C4",
          "midi": 60,
          "time": 118.15771749999988,
          "velocity": 0.7874015748031497,
          "duration": 0.25767505208332864
        },
        {
          "name": "G#3",
          "midi": 56,
          "time": 118.15771749999988,
          "velocity": 0.7874015748031497,
          "duration": 0.25767505208332864
        },
        {
          "name": "C4",
          "midi": 60,
          "time": 118.42087499999987,
          "velocity": 0.7874015748031497,
          "duration": 0.25767505208332864
        },
        {
          "name": "G#3",
          "midi": 56,
          "time": 118.42087499999987,
          "velocity": 0.7874015748031497,
          "duration": 0.25767505208332864
        },
        {
          "name": "C4",
          "midi": 60,
          "time": 118.68403249999986,
          "velocity": 0.7874015748031497,
          "duration": 0.038377135416666874
        },
        {
          "name": "G#3",
          "midi": 56,
          "time": 118.68403249999986,
          "velocity": 0.7874015748031497,
          "duration": 0.038377135416666874
        },
        {
          "name": "G#3",
          "midi": 56,
          "time": 118.81561124999986,
          "velocity": 0.7874015748031497,
          "duration": 0.038377135416666874
        },
        {
          "name": "C4",
          "midi": 60,
          "time": 118.81561124999986,
          "velocity": 0.7874015748031497,
          "duration": 0.038377135416666874
        },
        {
          "name": "C4",
          "midi": 60,
          "time": 118.94718999999986,
          "velocity": 0.7874015748031497,
          "duration": 0.038377135416666874
        },
        {
          "name": "G#3",
          "midi": 56,
          "time": 118.94718999999986,
          "velocity": 0.7874015748031497,
          "duration": 0.038377135416666874
        },
        {
          "name": "F4",
          "midi": 65,
          "time": 119.07876874999987,
          "velocity": 0.7874015748031497,
          "duration": 0.1260963020833401
        },
        {
          "name": "A#3",
          "midi": 58,
          "time": 119.07876874999987,
          "velocity": 0.7874015748031497,
          "duration": 0.1260963020833401
        },
        {
          "name": "F4",
          "midi": 65,
          "time": 119.21034749999987,
          "velocity": 0.7874015748031497,
          "duration": 0.25767505208332864
        },
        {
          "name": "A#3",
          "midi": 58,
          "time": 119.21034749999987,
          "velocity": 0.7874015748031497,
          "duration": 0.25767505208332864
        },
        {
          "name": "F4",
          "midi": 65,
          "time": 119.47350499999986,
          "velocity": 0.7874015748031497,
          "duration": 0.5208325520833341
        },
        {
          "name": "A#3",
          "midi": 58,
          "time": 119.47350499999986,
          "velocity": 0.7874015748031497,
          "duration": 0.5208325520833341
        },
        {
          "name": "G4",
          "midi": 67,
          "time": 119.99981999999986,
          "velocity": 0.7874015748031497,
          "duration": 1.0471475520833309
        },
        {
          "name": "C4",
          "midi": 60,
          "time": 119.99981999999986,
          "velocity": 0.7874015748031497,
          "duration": 1.0471475520833309
        },
        {
          "name": "F4",
          "midi": 65,
          "time": 121.05244999999985,
          "velocity": 0.7874015748031497,
          "duration": 1.0471475520833309
        },
        {
          "name": "A#3",
          "midi": 58,
          "time": 121.05244999999985,
          "velocity": 0.7874015748031497,
          "duration": 1.0471475520833309
        },
        {
          "name": "C4",
          "midi": 60,
          "time": 122.10507999999984,
          "velocity": 0.7874015748031497,
          "duration": 0.25767505208332864
        },
        {
          "name": "G#3",
          "midi": 56,
          "time": 122.10507999999984,
          "velocity": 0.7874015748031497,
          "duration": 0.25767505208332864
        },
        {
          "name": "C4",
          "midi": 60,
          "time": 122.36823749999984,
          "velocity": 0.7874015748031497,
          "duration": 0.1260963020833401
        },
        {
          "name": "G#3",
          "midi": 56,
          "time": 122.36823749999984,
          "velocity": 0.7874015748031497,
          "duration": 0.1260963020833401
        },
        {
          "name": "G#3",
          "midi": 56,
          "time": 122.49981624999984,
          "velocity": 0.7874015748031497,
          "duration": 0.1260963020833401
        },
        {
          "name": "C4",
          "midi": 60,
          "time": 122.49981624999984,
          "velocity": 0.7874015748031497,
          "duration": 0.1260963020833401
        },
        {
          "name": "C4",
          "midi": 60,
          "time": 122.63139499999984,
          "velocity": 0.7874015748031497,
          "duration": 0.5208325520833341
        },
        {
          "name": "G#3",
          "midi": 56,
          "time": 122.63139499999984,
          "velocity": 0.7874015748031497,
          "duration": 0.5208325520833341
        },
        {
          "name": "F4",
          "midi": 65,
          "time": 123.42086749999984,
          "velocity": 0.7874015748031497,
          "duration": 0.1260963020833401
        },
        {
          "name": "A#3",
          "midi": 58,
          "time": 123.42086749999984,
          "velocity": 0.7874015748031497,
          "duration": 0.1260963020833401
        },
        {
          "name": "A#3",
          "midi": 58,
          "time": 123.55244624999985,
          "velocity": 0.7874015748031497,
          "duration": 0.1260963020833401
        },
        {
          "name": "F4",
          "midi": 65,
          "time": 123.55244624999985,
          "velocity": 0.7874015748031497,
          "duration": 0.1260963020833401
        },
        {
          "name": "F4",
          "midi": 65,
          "time": 123.68402499999985,
          "velocity": 0.7874015748031497,
          "duration": 0.5208325520833341
        },
        {
          "name": "A#3",
          "midi": 58,
          "time": 123.68402499999985,
          "velocity": 0.7874015748031497,
          "duration": 0.5208325520833341
        },
        {
          "name": "G4",
          "midi": 67,
          "time": 124.21033999999985,
          "velocity": 0.7874015748031497,
          "duration": 1.0471475520833309
        },
        {
          "name": "C4",
          "midi": 60,
          "time": 124.21033999999985,
          "velocity": 0.7874015748031497,
          "duration": 1.0471475520833309
        },
        {
          "name": "F4",
          "midi": 65,
          "time": 125.26296999999984,
          "velocity": 0.7874015748031497,
          "duration": 1.0471475520833309
        },
        {
          "name": "A#3",
          "midi": 58,
          "time": 125.26296999999984,
          "velocity": 0.7874015748031497,
          "duration": 1.0471475520833309
        },
        {
          "name": "G#3",
          "midi": 56,
          "time": 126.31559999999983,
          "velocity": 0.7874015748031497,
          "duration": 1.0471475520833309
        },
        {
          "name": "C4",
          "midi": 60,
          "time": 126.31559999999983,
          "velocity": 0.7874015748031497,
          "duration": 1.0471475520833309
        },
        {
          "name": "F4",
          "midi": 65,
          "time": 127.49980874999983,
          "velocity": 0.7874015748031497,
          "duration": 0.1260963020833401
        },
        {
          "name": "A#3",
          "midi": 58,
          "time": 127.49980874999983,
          "velocity": 0.7874015748031497,
          "duration": 0.1260963020833401
        },
        {
          "name": "F4",
          "midi": 65,
          "time": 127.63138749999983,
          "velocity": 0.7874015748031497,
          "duration": 0.25767505208332864
        },
        {
          "name": "A#3",
          "midi": 58,
          "time": 127.63138749999983,
          "velocity": 0.7874015748031497,
          "duration": 0.25767505208332864
        },
        {
          "name": "F4",
          "midi": 65,
          "time": 127.89454499999982,
          "velocity": 0.7874015748031497,
          "duration": 0.5208325520833341
        },
        {
          "name": "A#3",
          "midi": 58,
          "time": 127.89454499999982,
          "velocity": 0.7874015748031497,
          "duration": 0.5208325520833341
        },
        {
          "name": "G4",
          "midi": 67,
          "time": 128.42085999999983,
          "velocity": 0.7874015748031497,
          "duration": 1.047147552083345
        },
        {
          "name": "C4",
          "midi": 60,
          "time": 128.42085999999983,
          "velocity": 0.7874015748031497,
          "duration": 1.047147552083345
        },
        {
          "name": "F4",
          "midi": 65,
          "time": 129.47348999999986,
          "velocity": 0.7874015748031497,
          "duration": 1.047147552083345
        },
        {
          "name": "A#3",
          "midi": 58,
          "time": 129.47348999999986,
          "velocity": 0.7874015748031497,
          "duration": 1.047147552083345
        },
        {
          "name": "G#3",
          "midi": 56,
          "time": 130.52611999999988,
          "velocity": 0.7874015748031497,
          "duration": 0.5208325520833341
        },
        {
          "name": "C4",
          "midi": 60,
          "time": 130.52611999999988,
          "velocity": 0.7874015748031497,
          "duration": 0.5208325520833341
        },
        {
          "name": "C4",
          "midi": 60,
          "time": 131.0524349999999,
          "velocity": 0.7874015748031497,
          "duration": 0.25767505208332864
        },
        {
          "name": "G#3",
          "midi": 56,
          "time": 131.0524349999999,
          "velocity": 0.7874015748031497,
          "duration": 0.25767505208332864
        },
        {
          "name": "C4",
          "midi": 60,
          "time": 131.3155924999999,
          "velocity": 0.7874015748031497,
          "duration": 0.1260963020833401
        },
        {
          "name": "G#3",
          "midi": 56,
          "time": 131.3155924999999,
          "velocity": 0.7874015748031497,
          "duration": 0.1260963020833401
        },
        {
          "name": "G#3",
          "midi": 56,
          "time": 131.4471712499999,
          "velocity": 0.7874015748031497,
          "duration": 0.1260963020833401
        },
        {
          "name": "C4",
          "midi": 60,
          "time": 131.4471712499999,
          "velocity": 0.7874015748031497,
          "duration": 0.1260963020833401
        },
        {
          "name": "F4",
          "midi": 65,
          "time": 131.8419074999999,
          "velocity": 0.7874015748031497,
          "duration": 0.25767505208332864
        },
        {
          "name": "A#3",
          "midi": 58,
          "time": 131.8419074999999,
          "velocity": 0.7874015748031497,
          "duration": 0.25767505208332864
        },
        {
          "name": "F4",
          "midi": 65,
          "time": 132.1050649999999,
          "velocity": 0.7874015748031497,
          "duration": 0.5208325520833341
        },
        {
          "name": "A#3",
          "midi": 58,
          "time": 132.1050649999999,
          "velocity": 0.7874015748031497,
          "duration": 0.5208325520833341
        },
        {
          "name": "G4",
          "midi": 67,
          "time": 132.63137999999992,
          "velocity": 0.7874015748031497,
          "duration": 1.047147552083345
        },
        {
          "name": "C4",
          "midi": 60,
          "time": 132.63137999999992,
          "velocity": 0.7874015748031497,
          "duration": 1.047147552083345
        },
        {
          "name": "F4",
          "midi": 65,
          "time": 133.68400999999994,
          "velocity": 0.7874015748031497,
          "duration": 1.047147552083345
        },
        {
          "name": "A#3",
          "midi": 58,
          "time": 133.68400999999994,
          "velocity": 0.7874015748031497,
          "duration": 1.047147552083345
        },
        {
          "name": "G#3",
          "midi": 56,
          "time": 134.73663999999997,
          "velocity": 0.7874015748031497,
          "duration": 0.5208325520833341
        },
        {
          "name": "C4",
          "midi": 60,
          "time": 134.73663999999997,
          "velocity": 0.7874015748031497,
          "duration": 0.5208325520833341
        },
        {
          "name": "C4",
          "midi": 60,
          "time": 135.26295499999998,
          "velocity": 0.7874015748031497,
          "duration": 0.3892538020833456
        },
        {
          "name": "G#3",
          "midi": 56,
          "time": 135.26295499999998,
          "velocity": 0.7874015748031497,
          "duration": 0.3892538020833456
        },
        {
          "name": "F4",
          "midi": 65,
          "time": 135.65769125,
          "velocity": 0.7874015748031497,
          "duration": 0.1260963020833401
        },
        {
          "name": "A#3",
          "midi": 58,
          "time": 135.65769125,
          "velocity": 0.7874015748031497,
          "duration": 0.1260963020833401
        },
        {
          "name": "F4",
          "midi": 65,
          "time": 135.78927000000002,
          "velocity": 0.7874015748031497,
          "duration": 0.25767505208332864
        },
        {
          "name": "A#3",
          "midi": 58,
          "time": 135.78927000000002,
          "velocity": 0.7874015748031497,
          "duration": 0.25767505208332864
        },
        {
          "name": "F4",
          "midi": 65,
          "time": 136.05242750000002,
          "velocity": 0.7874015748031497,
          "duration": 0.1260963020833401
        },
        {
          "name": "A#3",
          "midi": 58,
          "time": 136.05242750000002,
          "velocity": 0.7874015748031497,
          "duration": 0.1260963020833401
        },
        {
          "name": "F4",
          "midi": 65,
          "time": 136.18400625000004,
          "velocity": 0.7874015748031497,
          "duration": 0.1260963020833401
        },
        {
          "name": "A#3",
          "midi": 58,
          "time": 136.18400625000004,
          "velocity": 0.7874015748031497,
          "duration": 0.1260963020833401
        },
        {
          "name": "F4",
          "midi": 65,
          "time": 136.31558500000006,
          "velocity": 0.7874015748031497,
          "duration": 0.1260963020833401
        },
        {
          "name": "A#3",
          "midi": 58,
          "time": 136.31558500000006,
          "velocity": 0.7874015748031497,
          "duration": 0.1260963020833401
        },
        {
          "name": "F4",
          "midi": 65,
          "time": 136.44716375000007,
          "velocity": 0.7874015748031497,
          "duration": 0.1260963020833401
        },
        {
          "name": "A#3",
          "midi": 58,
          "time": 136.44716375000007,
          "velocity": 0.7874015748031497,
          "duration": 0.1260963020833401
        },
        {
          "name": "F4",
          "midi": 65,
          "time": 136.5787425000001,
          "velocity": 0.7874015748031497,
          "duration": 0.25767505208332864
        },
        {
          "name": "A#3",
          "midi": 58,
          "time": 136.5787425000001,
          "velocity": 0.7874015748031497,
          "duration": 0.25767505208332864
        },
        {
          "name": "G4",
          "midi": 67,
          "time": 136.8419000000001,
          "velocity": 0.7874015748031497,
          "duration": 1.047147552083345
        },
        {
          "name": "C4",
          "midi": 60,
          "time": 136.8419000000001,
          "velocity": 0.7874015748031497,
          "duration": 1.047147552083345
        },
        {
          "name": "F4",
          "midi": 65,
          "time": 137.89453000000012,
          "velocity": 0.7874015748031497,
          "duration": 1.047147552083345
        },
        {
          "name": "A#3",
          "midi": 58,
          "time": 137.89453000000012,
          "velocity": 0.7874015748031497,
          "duration": 1.047147552083345
        },
        {
          "name": "G#3",
          "midi": 56,
          "time": 138.94716000000014,
          "velocity": 0.7874015748031497,
          "duration": 1.047147552083345
        },
        {
          "name": "C4",
          "midi": 60,
          "time": 138.94716000000014,
          "velocity": 0.7874015748031497,
          "duration": 1.047147552083345
        },
        {
          "name": "C4",
          "midi": 60,
          "time": 139.99979000000016,
          "velocity": 0.7874015748031497,
          "duration": 0.038377135416652663
        },
        {
          "name": "G#3",
          "midi": 56,
          "time": 139.99979000000016,
          "velocity": 0.7874015748031497,
          "duration": 0.038377135416652663
        },
        {
          "name": "G#3",
          "midi": 56,
          "time": 140.13136875000015,
          "velocity": 0.7874015748031497,
          "duration": 0.038377135416652663
        },
        {
          "name": "C4",
          "midi": 60,
          "time": 140.13136875000015,
          "velocity": 0.7874015748031497,
          "duration": 0.038377135416652663
        },
        {
          "name": "F4",
          "midi": 65,
          "time": 140.26294750000014,
          "velocity": 0.7874015748031497,
          "duration": 0.1260963020833401
        },
        {
          "name": "A#3",
          "midi": 58,
          "time": 140.26294750000014,
          "velocity": 0.7874015748031497,
          "duration": 0.1260963020833401
        },
        {
          "name": "F4",
          "midi": 65,
          "time": 140.39452625000015,
          "velocity": 0.7874015748031497,
          "duration": 0.1260963020833401
        },
        {
          "name": "A#3",
          "midi": 58,
          "time": 140.39452625000015,
          "velocity": 0.7874015748031497,
          "duration": 0.1260963020833401
        },
        {
          "name": "F4",
          "midi": 65,
          "time": 140.52610500000017,
          "velocity": 0.7874015748031497,
          "duration": 0.1260963020833401
        },
        {
          "name": "A#3",
          "midi": 58,
          "time": 140.52610500000017,
          "velocity": 0.7874015748031497,
          "duration": 0.1260963020833401
        },
        {
          "name": "F4",
          "midi": 65,
          "time": 140.6576837500002,
          "velocity": 0.7874015748031497,
          "duration": 0.1260963020833401
        },
        {
          "name": "A#3",
          "midi": 58,
          "time": 140.6576837500002,
          "velocity": 0.7874015748031497,
          "duration": 0.1260963020833401
        },
        {
          "name": "F4",
          "midi": 65,
          "time": 140.7892625000002,
          "velocity": 0.7874015748031497,
          "duration": 0.1260963020833401
        },
        {
          "name": "A#3",
          "midi": 58,
          "time": 140.7892625000002,
          "velocity": 0.7874015748031497,
          "duration": 0.1260963020833401
        },
        {
          "name": "F4",
          "midi": 65,
          "time": 140.92084125000022,
          "velocity": 0.7874015748031497,
          "duration": 0.038377135416652663
        },
        {
          "name": "A#3",
          "midi": 58,
          "time": 140.92084125000022,
          "velocity": 0.7874015748031497,
          "duration": 0.038377135416652663
        },
        {
          "name": "G4",
          "midi": 67,
          "time": 141.0524200000002,
          "velocity": 0.7874015748031497,
          "duration": 1.047147552083345
        },
        {
          "name": "C4",
          "midi": 60,
          "time": 141.0524200000002,
          "velocity": 0.7874015748031497,
          "duration": 1.047147552083345
        },
        {
          "name": "F4",
          "midi": 65,
          "time": 142.10505000000023,
          "velocity": 0.7874015748031497,
          "duration": 1.047147552083345
        },
        {
          "name": "A#3",
          "midi": 58,
          "time": 142.10505000000023,
          "velocity": 0.7874015748031497,
          "duration": 1.047147552083345
        },
        {
          "name": "G#3",
          "midi": 56,
          "time": 143.15768000000025,
          "velocity": 0.7874015748031497,
          "duration": 1.047147552083345
        },
        {
          "name": "C4",
          "midi": 60,
          "time": 143.15768000000025,
          "velocity": 0.7874015748031497,
          "duration": 1.047147552083345
        },
        {
          "name": "F4",
          "midi": 65,
          "time": 144.47346750000025,
          "velocity": 0.7874015748031497,
          "duration": 0.1260963020833401
        },
        {
          "name": "A#3",
          "midi": 58,
          "time": 144.47346750000025,
          "velocity": 0.7874015748031497,
          "duration": 0.1260963020833401
        },
        {
          "name": "F4",
          "midi": 65,
          "time": 144.60504625000027,
          "velocity": 0.7874015748031497,
          "duration": 0.1260963020833401
        },
        {
          "name": "A#3",
          "midi": 58,
          "time": 144.60504625000027,
          "velocity": 0.7874015748031497,
          "duration": 0.1260963020833401
        },
        {
          "name": "F4",
          "midi": 65,
          "time": 144.7366250000003,
          "velocity": 0.7874015748031497,
          "duration": 0.25767505208332864
        },
        {
          "name": "A#3",
          "midi": 58,
          "time": 144.7366250000003,
          "velocity": 0.7874015748031497,
          "duration": 0.25767505208332864
        },
        {
          "name": "F4",
          "midi": 65,
          "time": 144.9997825000003,
          "velocity": 0.7874015748031497,
          "duration": 0.25767505208332864
        },
        {
          "name": "A#3",
          "midi": 58,
          "time": 144.9997825000003,
          "velocity": 0.7874015748031497,
          "duration": 0.25767505208332864
        },
        {
          "name": "G4",
          "midi": 67,
          "time": 145.2629400000003,
          "velocity": 0.7874015748031497,
          "duration": 1.047147552083345
        },
        {
          "name": "C4",
          "midi": 60,
          "time": 145.2629400000003,
          "velocity": 0.7874015748031497,
          "duration": 1.047147552083345
        },
        {
          "name": "F4",
          "midi": 65,
          "time": 146.31557000000032,
          "velocity": 0.7874015748031497,
          "duration": 1.047147552083345
        },
        {
          "name": "A#3",
          "midi": 58,
          "time": 146.31557000000032,
          "velocity": 0.7874015748031497,
          "duration": 1.047147552083345
        },
        {
          "name": "G#3",
          "midi": 56,
          "time": 147.36820000000034,
          "velocity": 0.7874015748031497,
          "duration": 1.047147552083345
        },
        {
          "name": "C4",
          "midi": 60,
          "time": 147.36820000000034,
          "velocity": 0.7874015748031497,
          "duration": 1.047147552083345
        },
        {
          "name": "F4",
          "midi": 65,
          "time": 148.68398750000034,
          "velocity": 0.7874015748031497,
          "duration": 0.1260963020833401
        },
        {
          "name": "A#3",
          "midi": 58,
          "time": 148.68398750000034,
          "velocity": 0.7874015748031497,
          "duration": 0.1260963020833401
        },
        {
          "name": "F4",
          "midi": 65,
          "time": 148.81556625000036,
          "velocity": 0.7874015748031497,
          "duration": 0.1260963020833401
        },
        {
          "name": "A#3",
          "midi": 58,
          "time": 148.81556625000036,
          "velocity": 0.7874015748031497,
          "duration": 0.1260963020833401
        },
        {
          "name": "F4",
          "midi": 65,
          "time": 148.94714500000038,
          "velocity": 0.7874015748031497,
          "duration": 0.25767505208332864
        },
        {
          "name": "A#3",
          "midi": 58,
          "time": 148.94714500000038,
          "velocity": 0.7874015748031497,
          "duration": 0.25767505208332864
        },
        {
          "name": "F4",
          "midi": 65,
          "time": 149.21030250000038,
          "velocity": 0.7874015748031497,
          "duration": 0.25767505208332864
        },
        {
          "name": "A#3",
          "midi": 58,
          "time": 149.21030250000038,
          "velocity": 0.7874015748031497,
          "duration": 0.25767505208332864
        },
        {
          "name": "G4",
          "midi": 67,
          "time": 149.4734600000004,
          "velocity": 0.7874015748031497,
          "duration": 1.047147552083345
        },
        {
          "name": "C4",
          "midi": 60,
          "time": 149.4734600000004,
          "velocity": 0.7874015748031497,
          "duration": 1.047147552083345
        },
        {
          "name": "F4",
          "midi": 65,
          "time": 150.5260900000004,
          "velocity": 0.7874015748031497,
          "duration": 0.5208325520833341
        },
        {
          "name": "A#3",
          "midi": 58,
          "time": 150.5260900000004,
          "velocity": 0.7874015748031497,
          "duration": 0.5208325520833341
        },
        {
          "name": "F4",
          "midi": 65,
          "time": 151.05240500000042,
          "velocity": 0.7874015748031497,
          "duration": 0.5208325520833341
        },
        {
          "name": "A#3",
          "midi": 58,
          "time": 151.05240500000042,
          "velocity": 0.7874015748031497,
          "duration": 0.5208325520833341
        },
        {
          "name": "C4",
          "midi": 60,
          "time": 151.57872000000043,
          "velocity": 0.7874015748031497,
          "duration": 0.1260963020833401
        },
        {
          "name": "C4",
          "midi": 60,
          "time": 151.71029875000045,
          "velocity": 0.7874015748031497,
          "duration": 0.25767505208332864
        },
        {
          "name": "G#3",
          "midi": 56,
          "time": 151.71029875000045,
          "velocity": 0.7874015748031497,
          "duration": 0.25767505208332864
        },
        {
          "name": "C4",
          "midi": 60,
          "time": 151.97345625000045,
          "velocity": 0.7874015748031497,
          "duration": 0.1260963020833401
        },
        {
          "name": "G#3",
          "midi": 56,
          "time": 151.97345625000045,
          "velocity": 0.7874015748031497,
          "duration": 0.1260963020833401
        },
        {
          "name": "C4",
          "midi": 60,
          "time": 152.10503500000047,
          "velocity": 0.7874015748031497,
          "duration": 0.25767505208332864
        },
        {
          "name": "G#3",
          "midi": 56,
          "time": 152.10503500000047,
          "velocity": 0.7874015748031497,
          "duration": 0.25767505208332864
        },
        {
          "name": "C4",
          "midi": 60,
          "time": 152.36819250000048,
          "velocity": 0.7874015748031497,
          "duration": 0.1260963020833401
        },
        {
          "name": "G#3",
          "midi": 56,
          "time": 152.36819250000048,
          "velocity": 0.7874015748031497,
          "duration": 0.1260963020833401
        },
        {
          "name": "G#3",
          "midi": 56,
          "time": 152.4997712500005,
          "velocity": 0.7874015748031497,
          "duration": 0.1260963020833401
        },
        {
          "name": "C4",
          "midi": 60,
          "time": 152.4997712500005,
          "velocity": 0.7874015748031497,
          "duration": 0.1260963020833401
        },
        {
          "name": "C4",
          "midi": 60,
          "time": 152.6313500000005,
          "velocity": 0.7874015748031497,
          "duration": 0.25767505208332864
        },
        {
          "name": "G#3",
          "midi": 56,
          "time": 152.6313500000005,
          "velocity": 0.7874015748031497,
          "duration": 0.25767505208332864
        },
        {
          "name": "F4",
          "midi": 65,
          "time": 152.89450750000051,
          "velocity": 0.7874015748031497,
          "duration": 0.1260963020833401
        },
        {
          "name": "A#3",
          "midi": 58,
          "time": 152.89450750000051,
          "velocity": 0.7874015748031497,
          "duration": 0.1260963020833401
        },
        {
          "name": "A#3",
          "midi": 58,
          "time": 153.02608625000053,
          "velocity": 0.7874015748031497,
          "duration": 0.1260963020833401
        },
        {
          "name": "F4",
          "midi": 65,
          "time": 153.02608625000053,
          "velocity": 0.7874015748031497,
          "duration": 0.1260963020833401
        },
        {
          "name": "F4",
          "midi": 65,
          "time": 153.15766500000055,
          "velocity": 0.7874015748031497,
          "duration": 0.25767505208332864
        },
        {
          "name": "A#3",
          "midi": 58,
          "time": 153.15766500000055,
          "velocity": 0.7874015748031497,
          "duration": 0.25767505208332864
        },
        {
          "name": "F4",
          "midi": 65,
          "time": 153.42082250000055,
          "velocity": 0.7874015748031497,
          "duration": 0.04934203125000636
        },
        {
          "name": "A#3",
          "midi": 58,
          "time": 153.42082250000055,
          "velocity": 0.7874015748031497,
          "duration": 0.04934203125000636
        },
        {
          "name": "G4",
          "midi": 67,
          "time": 153.68398000000056,
          "velocity": 0.7874015748031497,
          "duration": 0.25767505208332864
        },
        {
          "name": "C4",
          "midi": 60,
          "time": 153.68398000000056,
          "velocity": 0.7874015748031497,
          "duration": 0.25767505208332864
        },
        {
          "name": "G4",
          "midi": 67,
          "time": 153.94713750000057,
          "velocity": 0.7874015748031497,
          "duration": 0.1260963020833401
        },
        {
          "name": "C4",
          "midi": 60,
          "time": 153.94713750000057,
          "velocity": 0.7874015748031497,
          "duration": 0.1260963020833401
        },
        {
          "name": "C4",
          "midi": 60,
          "time": 154.07871625000058,
          "velocity": 0.7874015748031497,
          "duration": 0.1260963020833401
        },
        {
          "name": "G4",
          "midi": 67,
          "time": 154.07871625000058,
          "velocity": 0.7874015748031497,
          "duration": 0.1260963020833401
        },
        {
          "name": "G4",
          "midi": 67,
          "time": 154.2102950000006,
          "velocity": 0.7874015748031497,
          "duration": 0.25767505208332864
        },
        {
          "name": "C4",
          "midi": 60,
          "time": 154.2102950000006,
          "velocity": 0.7874015748031497,
          "duration": 0.25767505208332864
        },
        {
          "name": "G4",
          "midi": 67,
          "time": 154.4734525000006,
          "velocity": 0.7874015748031497,
          "duration": 0.1260963020833401
        },
        {
          "name": "C4",
          "midi": 60,
          "time": 154.4734525000006,
          "velocity": 0.7874015748031497,
          "duration": 0.1260963020833401
        },
        {
          "name": "F4",
          "midi": 65,
          "time": 154.60503125000062,
          "velocity": 0.7874015748031497,
          "duration": 0.1260963020833401
        },
        {
          "name": "A#3",
          "midi": 58,
          "time": 154.60503125000062,
          "velocity": 0.7874015748031497,
          "duration": 0.1260963020833401
        },
        {
          "name": "A#3",
          "midi": 58,
          "time": 154.73661000000064,
          "velocity": 0.7874015748031497,
          "duration": 0.1260963020833401
        },
        {
          "name": "F4",
          "midi": 65,
          "time": 154.73661000000064,
          "velocity": 0.7874015748031497,
          "duration": 0.1260963020833401
        },
        {
          "name": "F4",
          "midi": 65,
          "time": 154.86818875000066,
          "velocity": 0.7874015748031497,
          "duration": 0.1260963020833401
        },
        {
          "name": "A#3",
          "midi": 58,
          "time": 154.86818875000066,
          "velocity": 0.7874015748031497,
          "duration": 0.1260963020833401
        },
        {
          "name": "A#3",
          "midi": 58,
          "time": 154.99976750000067,
          "velocity": 0.7874015748031497,
          "duration": 0.1260963020833401
        },
        {
          "name": "F4",
          "midi": 65,
          "time": 154.99976750000067,
          "velocity": 0.7874015748031497,
          "duration": 0.1260963020833401
        },
        {
          "name": "F4",
          "midi": 65,
          "time": 155.1313462500007,
          "velocity": 0.7874015748031497,
          "duration": 0.1260963020833401
        },
        {
          "name": "A#3",
          "midi": 58,
          "time": 155.1313462500007,
          "velocity": 0.7874015748031497,
          "duration": 0.1260963020833401
        },
        {
          "name": "A#3",
          "midi": 58,
          "time": 155.2629250000007,
          "velocity": 0.7874015748031497,
          "duration": 0.25767505208332864
        },
        {
          "name": "F4",
          "midi": 65,
          "time": 155.2629250000007,
          "velocity": 0.7874015748031497,
          "duration": 0.25767505208332864
        },
        {
          "name": "F4",
          "midi": 65,
          "time": 155.5260825000007,
          "velocity": 0.7874015748031497,
          "duration": 0.1260963020833401
        },
        {
          "name": "A#3",
          "midi": 58,
          "time": 155.5260825000007,
          "velocity": 0.7874015748031497,
          "duration": 0.1260963020833401
        },
        {
          "name": "A#3",
          "midi": 58,
          "time": 155.65766125000073,
          "velocity": 0.7874015748031497,
          "duration": 0.1260963020833401
        },
        {
          "name": "F4",
          "midi": 65,
          "time": 155.65766125000073,
          "velocity": 0.7874015748031497,
          "duration": 0.1260963020833401
        },
        {
          "name": "G#3",
          "midi": 56,
          "time": 155.78924000000075,
          "velocity": 0.7874015748031497,
          "duration": 0.25767505208332864
        },
        {
          "name": "C4",
          "midi": 60,
          "time": 155.78924000000075,
          "velocity": 0.7874015748031497,
          "duration": 0.25767505208332864
        },
        {
          "name": "C4",
          "midi": 60,
          "time": 156.05239750000075,
          "velocity": 0.7874015748031497,
          "duration": 0.25767505208332864
        },
        {
          "name": "G#3",
          "midi": 56,
          "time": 156.05239750000075,
          "velocity": 0.7874015748031497,
          "duration": 0.25767505208332864
        },
        {
          "name": "G#3",
          "midi": 56,
          "time": 156.31555500000076,
          "velocity": 0.7874015748031497,
          "duration": 0.25767505208332864
        },
        {
          "name": "C4",
          "midi": 60,
          "time": 156.31555500000076,
          "velocity": 0.7874015748031497,
          "duration": 0.25767505208332864
        },
        {
          "name": "C4",
          "midi": 60,
          "time": 156.57871250000076,
          "velocity": 0.7874015748031497,
          "duration": 0.1260963020833401
        },
        {
          "name": "G#3",
          "midi": 56,
          "time": 156.57871250000076,
          "velocity": 0.7874015748031497,
          "duration": 0.1260963020833401
        },
        {
          "name": "C4",
          "midi": 60,
          "time": 156.71029125000078,
          "velocity": 0.7874015748031497,
          "duration": 0.1260963020833401
        },
        {
          "name": "G#3",
          "midi": 56,
          "time": 156.71029125000078,
          "velocity": 0.7874015748031497,
          "duration": 0.1260963020833401
        },
        {
          "name": "F4",
          "midi": 65,
          "time": 156.8418700000008,
          "velocity": 0.7874015748031497,
          "duration": 0.25767505208332864
        },
        {
          "name": "A#3",
          "midi": 58,
          "time": 156.8418700000008,
          "velocity": 0.7874015748031497,
          "duration": 0.25767505208332864
        },
        {
          "name": "A#3",
          "midi": 58,
          "time": 157.1050275000008,
          "velocity": 0.7874015748031497,
          "duration": 0.1260963020833401
        },
        {
          "name": "F4",
          "midi": 65,
          "time": 157.1050275000008,
          "velocity": 0.7874015748031497,
          "duration": 0.1260963020833401
        },
        {
          "name": "F4",
          "midi": 65,
          "time": 157.23660625000082,
          "velocity": 0.7874015748031497,
          "duration": 0.1260963020833401
        },
        {
          "name": "A#3",
          "midi": 58,
          "time": 157.23660625000082,
          "velocity": 0.7874015748031497,
          "duration": 0.1260963020833401
        },
        {
          "name": "F4",
          "midi": 65,
          "time": 157.36818500000084,
          "velocity": 0.7874015748031497,
          "duration": 0.25767505208332864
        },
        {
          "name": "A#3",
          "midi": 58,
          "time": 157.36818500000084,
          "velocity": 0.7874015748031497,
          "duration": 0.25767505208332864
        },
        {
          "name": "F4",
          "midi": 65,
          "time": 157.63134250000084,
          "velocity": 0.7874015748031497,
          "duration": 0.038377135416652663
        },
        {
          "name": "A#3",
          "midi": 58,
          "time": 157.63134250000084,
          "velocity": 0.7874015748031497,
          "duration": 0.038377135416652663
        },
        {
          "name": "F4",
          "midi": 65,
          "time": 157.76292125000083,
          "velocity": 0.7874015748031497,
          "duration": 0.038377135416652663
        },
        {
          "name": "A#3",
          "midi": 58,
          "time": 157.76292125000083,
          "velocity": 0.7874015748031497,
          "duration": 0.038377135416652663
        },
        {
          "name": "G4",
          "midi": 67,
          "time": 157.89450000000082,
          "velocity": 0.7874015748031497,
          "duration": 0.25767505208332864
        },
        {
          "name": "C4",
          "midi": 60,
          "time": 157.89450000000082,
          "velocity": 0.7874015748031497,
          "duration": 0.25767505208332864
        },
        {
          "name": "G4",
          "midi": 67,
          "time": 158.15765750000082,
          "velocity": 0.7874015748031497,
          "duration": 0.25767505208332864
        },
        {
          "name": "C4",
          "midi": 60,
          "time": 158.15765750000082,
          "velocity": 0.7874015748031497,
          "duration": 0.25767505208332864
        },
        {
          "name": "C4",
          "midi": 60,
          "time": 158.42081500000083,
          "velocity": 0.7874015748031497,
          "duration": 0.25767505208332864
        },
        {
          "name": "G4",
          "midi": 67,
          "time": 158.42081500000083,
          "velocity": 0.7874015748031497,
          "duration": 0.25767505208332864
        },
        {
          "name": "G4",
          "midi": 67,
          "time": 158.68397250000083,
          "velocity": 0.7874015748031497,
          "duration": 0.1260963020833401
        },
        {
          "name": "C4",
          "midi": 60,
          "time": 158.68397250000083,
          "velocity": 0.7874015748031497,
          "duration": 0.1260963020833401
        },
        {
          "name": "C4",
          "midi": 60,
          "time": 158.81555125000085,
          "velocity": 0.7874015748031497,
          "duration": 0.1260963020833401
        },
        {
          "name": "G4",
          "midi": 67,
          "time": 158.81555125000085,
          "velocity": 0.7874015748031497,
          "duration": 0.1260963020833401
        },
        {
          "name": "F4",
          "midi": 65,
          "time": 158.94713000000087,
          "velocity": 0.7874015748031497,
          "duration": 0.25767505208332864
        },
        {
          "name": "A#3",
          "midi": 58,
          "time": 158.94713000000087,
          "velocity": 0.7874015748031497,
          "duration": 0.25767505208332864
        },
        {
          "name": "A#3",
          "midi": 58,
          "time": 159.21028750000087,
          "velocity": 0.7874015748031497,
          "duration": 0.25767505208332864
        },
        {
          "name": "F4",
          "midi": 65,
          "time": 159.21028750000087,
          "velocity": 0.7874015748031497,
          "duration": 0.25767505208332864
        },
        {
          "name": "F4",
          "midi": 65,
          "time": 159.47344500000088,
          "velocity": 0.7874015748031497,
          "duration": 0.25767505208332864
        },
        {
          "name": "A#3",
          "midi": 58,
          "time": 159.47344500000088,
          "velocity": 0.7874015748031497,
          "duration": 0.25767505208332864
        },
        {
          "name": "F4",
          "midi": 65,
          "time": 159.73660250000088,
          "velocity": 0.7874015748031497,
          "duration": 0.1260963020833401
        },
        {
          "name": "A#3",
          "midi": 58,
          "time": 159.73660250000088,
          "velocity": 0.7874015748031497,
          "duration": 0.1260963020833401
        },
        {
          "name": "F4",
          "midi": 65,
          "time": 159.8681812500009,
          "velocity": 0.7874015748031497,
          "duration": 0.1260963020833401
        },
        {
          "name": "A#3",
          "midi": 58,
          "time": 159.8681812500009,
          "velocity": 0.7874015748031497,
          "duration": 0.1260963020833401
        },
        {
          "name": "G#3",
          "midi": 56,
          "time": 159.99976000000092,
          "velocity": 0.7874015748031497,
          "duration": 0.25767505208332864
        },
        {
          "name": "C4",
          "midi": 60,
          "time": 159.99976000000092,
          "velocity": 0.7874015748031497,
          "duration": 0.25767505208332864
        },
        {
          "name": "C4",
          "midi": 60,
          "time": 160.26291750000092,
          "velocity": 0.7874015748031497,
          "duration": 0.25767505208332864
        },
        {
          "name": "G#3",
          "midi": 56,
          "time": 160.26291750000092,
          "velocity": 0.7874015748031497,
          "duration": 0.25767505208332864
        },
        {
          "name": "G#3",
          "midi": 56,
          "time": 160.52607500000093,
          "velocity": 0.7874015748031497,
          "duration": 0.25767505208332864
        },
        {
          "name": "C4",
          "midi": 60,
          "time": 160.52607500000093,
          "velocity": 0.7874015748031497,
          "duration": 0.25767505208332864
        },
        {
          "name": "C4",
          "midi": 60,
          "time": 160.78923250000094,
          "velocity": 0.7874015748031497,
          "duration": 0.1260963020833401
        },
        {
          "name": "G#3",
          "midi": 56,
          "time": 160.78923250000094,
          "velocity": 0.7874015748031497,
          "duration": 0.1260963020833401
        },
        {
          "name": "C4",
          "midi": 60,
          "time": 160.92081125000095,
          "velocity": 0.7874015748031497,
          "duration": 0.1260963020833401
        },
        {
          "name": "G#3",
          "midi": 56,
          "time": 160.92081125000095,
          "velocity": 0.7874015748031497,
          "duration": 0.1260963020833401
        },
        {
          "name": "F4",
          "midi": 65,
          "time": 161.05239000000097,
          "velocity": 0.7874015748031497,
          "duration": 0.25767505208332864
        },
        {
          "name": "A#3",
          "midi": 58,
          "time": 161.05239000000097,
          "velocity": 0.7874015748031497,
          "duration": 0.25767505208332864
        },
        {
          "name": "A#3",
          "midi": 58,
          "time": 161.31554750000097,
          "velocity": 0.7874015748031497,
          "duration": 0.1260963020833401
        },
        {
          "name": "F4",
          "midi": 65,
          "time": 161.31554750000097,
          "velocity": 0.7874015748031497,
          "duration": 0.1260963020833401
        },
        {
          "name": "F4",
          "midi": 65,
          "time": 161.447126250001,
          "velocity": 0.7874015748031497,
          "duration": 0.1260963020833401
        },
        {
          "name": "A#3",
          "midi": 58,
          "time": 161.447126250001,
          "velocity": 0.7874015748031497,
          "duration": 0.1260963020833401
        },
        {
          "name": "F4",
          "midi": 65,
          "time": 161.578705000001,
          "velocity": 0.7874015748031497,
          "duration": 0.25767505208332864
        },
        {
          "name": "A#3",
          "midi": 58,
          "time": 161.578705000001,
          "velocity": 0.7874015748031497,
          "duration": 0.25767505208332864
        },
        {
          "name": "F4",
          "midi": 65,
          "time": 161.841862500001,
          "velocity": 0.7874015748031497,
          "duration": 0.038377135416652663
        },
        {
          "name": "A#3",
          "midi": 58,
          "time": 161.841862500001,
          "velocity": 0.7874015748031497,
          "duration": 0.038377135416652663
        },
        {
          "name": "F4",
          "midi": 65,
          "time": 161.973441250001,
          "velocity": 0.7874015748031497,
          "duration": 0.038377135416652663
        },
        {
          "name": "A#3",
          "midi": 58,
          "time": 161.973441250001,
          "velocity": 0.7874015748031497,
          "duration": 0.038377135416652663
        },
        {
          "name": "G4",
          "midi": 67,
          "time": 162.105020000001,
          "velocity": 0.7874015748031497,
          "duration": 0.25767505208332864
        },
        {
          "name": "C4",
          "midi": 60,
          "time": 162.105020000001,
          "velocity": 0.7874015748031497,
          "duration": 0.25767505208332864
        },
        {
          "name": "G4",
          "midi": 67,
          "time": 162.368177500001,
          "velocity": 0.7874015748031497,
          "duration": 0.25767505208332864
        },
        {
          "name": "C4",
          "midi": 60,
          "time": 162.368177500001,
          "velocity": 0.7874015748031497,
          "duration": 0.25767505208332864
        },
        {
          "name": "C4",
          "midi": 60,
          "time": 162.631335000001,
          "velocity": 0.7874015748031497,
          "duration": 0.25767505208332864
        },
        {
          "name": "G4",
          "midi": 67,
          "time": 162.631335000001,
          "velocity": 0.7874015748031497,
          "duration": 0.25767505208332864
        },
        {
          "name": "G4",
          "midi": 67,
          "time": 162.894492500001,
          "velocity": 0.7874015748031497,
          "duration": 0.1260963020833401
        },
        {
          "name": "C4",
          "midi": 60,
          "time": 162.894492500001,
          "velocity": 0.7874015748031497,
          "duration": 0.1260963020833401
        },
        {
          "name": "C4",
          "midi": 60,
          "time": 163.02607125000102,
          "velocity": 0.7874015748031497,
          "duration": 0.1260963020833401
        },
        {
          "name": "G4",
          "midi": 67,
          "time": 163.02607125000102,
          "velocity": 0.7874015748031497,
          "duration": 0.1260963020833401
        },
        {
          "name": "F4",
          "midi": 65,
          "time": 163.15765000000104,
          "velocity": 0.7874015748031497,
          "duration": 0.25767505208332864
        },
        {
          "name": "A#3",
          "midi": 58,
          "time": 163.15765000000104,
          "velocity": 0.7874015748031497,
          "duration": 0.25767505208332864
        },
        {
          "name": "A#3",
          "midi": 58,
          "time": 163.42080750000105,
          "velocity": 0.7874015748031497,
          "duration": 0.25767505208332864
        },
        {
          "name": "F4",
          "midi": 65,
          "time": 163.42080750000105,
          "velocity": 0.7874015748031497,
          "duration": 0.25767505208332864
        },
        {
          "name": "F4",
          "midi": 65,
          "time": 163.68396500000105,
          "velocity": 0.7874015748031497,
          "duration": 0.25767505208332864
        },
        {
          "name": "A#3",
          "midi": 58,
          "time": 163.68396500000105,
          "velocity": 0.7874015748031497,
          "duration": 0.25767505208332864
        },
        {
          "name": "F4",
          "midi": 65,
          "time": 163.94712250000106,
          "velocity": 0.7874015748031497,
          "duration": 0.1260963020833401
        },
        {
          "name": "A#3",
          "midi": 58,
          "time": 163.94712250000106,
          "velocity": 0.7874015748031497,
          "duration": 0.1260963020833401
        },
        {
          "name": "F4",
          "midi": 65,
          "time": 164.07870125000107,
          "velocity": 0.7874015748031497,
          "duration": 0.1260963020833401
        },
        {
          "name": "A#3",
          "midi": 58,
          "time": 164.07870125000107,
          "velocity": 0.7874015748031497,
          "duration": 0.1260963020833401
        },
        {
          "name": "G#3",
          "midi": 56,
          "time": 164.2102800000011,
          "velocity": 0.7874015748031497,
          "duration": 0.25767505208332864
        },
        {
          "name": "C4",
          "midi": 60,
          "time": 164.2102800000011,
          "velocity": 0.7874015748031497,
          "duration": 0.25767505208332864
        },
        {
          "name": "C4",
          "midi": 60,
          "time": 164.4734375000011,
          "velocity": 0.7874015748031497,
          "duration": 0.25767505208332864
        },
        {
          "name": "G#3",
          "midi": 56,
          "time": 164.4734375000011,
          "velocity": 0.7874015748031497,
          "duration": 0.25767505208332864
        },
        {
          "name": "G#3",
          "midi": 56,
          "time": 164.7365950000011,
          "velocity": 0.7874015748031497,
          "duration": 0.25767505208332864
        },
        {
          "name": "C4",
          "midi": 60,
          "time": 164.7365950000011,
          "velocity": 0.7874015748031497,
          "duration": 0.25767505208332864
        },
        {
          "name": "C4",
          "midi": 60,
          "time": 164.9997525000011,
          "velocity": 0.7874015748031497,
          "duration": 0.1260963020833401
        },
        {
          "name": "G#3",
          "midi": 56,
          "time": 164.9997525000011,
          "velocity": 0.7874015748031497,
          "duration": 0.1260963020833401
        },
        {
          "name": "C4",
          "midi": 60,
          "time": 165.13133125000112,
          "velocity": 0.7874015748031497,
          "duration": 0.1260963020833401
        },
        {
          "name": "G#3",
          "midi": 56,
          "time": 165.13133125000112,
          "velocity": 0.7874015748031497,
          "duration": 0.1260963020833401
        },
        {
          "name": "F4",
          "midi": 65,
          "time": 165.26291000000114,
          "velocity": 0.7874015748031497,
          "duration": 0.25767505208332864
        },
        {
          "name": "A#3",
          "midi": 58,
          "time": 165.26291000000114,
          "velocity": 0.7874015748031497,
          "duration": 0.25767505208332864
        },
        {
          "name": "A#3",
          "midi": 58,
          "time": 165.52606750000115,
          "velocity": 0.7874015748031497,
          "duration": 0.1260963020833401
        },
        {
          "name": "F4",
          "midi": 65,
          "time": 165.52606750000115,
          "velocity": 0.7874015748031497,
          "duration": 0.1260963020833401
        },
        {
          "name": "F4",
          "midi": 65,
          "time": 165.65764625000116,
          "velocity": 0.7874015748031497,
          "duration": 0.1260963020833401
        },
        {
          "name": "A#3",
          "midi": 58,
          "time": 165.65764625000116,
          "velocity": 0.7874015748031497,
          "duration": 0.1260963020833401
        },
        {
          "name": "F4",
          "midi": 65,
          "time": 165.78922500000118,
          "velocity": 0.7874015748031497,
          "duration": 0.25767505208332864
        },
        {
          "name": "A#3",
          "midi": 58,
          "time": 165.78922500000118,
          "velocity": 0.7874015748031497,
          "duration": 0.25767505208332864
        },
        {
          "name": "F4",
          "midi": 65,
          "time": 166.0523825000012,
          "velocity": 0.7874015748031497,
          "duration": 0.038377135416652663
        },
        {
          "name": "A#3",
          "midi": 58,
          "time": 166.0523825000012,
          "velocity": 0.7874015748031497,
          "duration": 0.038377135416652663
        },
        {
          "name": "F4",
          "midi": 65,
          "time": 166.18396125000118,
          "velocity": 0.7874015748031497,
          "duration": 0.038377135416652663
        },
        {
          "name": "A#3",
          "midi": 58,
          "time": 166.18396125000118,
          "velocity": 0.7874015748031497,
          "duration": 0.038377135416652663
        },
        {
          "name": "G4",
          "midi": 67,
          "time": 166.31554000000116,
          "velocity": 0.7874015748031497,
          "duration": 0.25767505208332864
        },
        {
          "name": "C4",
          "midi": 60,
          "time": 166.31554000000116,
          "velocity": 0.7874015748031497,
          "duration": 0.25767505208332864
        },
        {
          "name": "G4",
          "midi": 67,
          "time": 166.57869750000117,
          "velocity": 0.7874015748031497,
          "duration": 0.25767505208332864
        },
        {
          "name": "C4",
          "midi": 60,
          "time": 166.57869750000117,
          "velocity": 0.7874015748031497,
          "duration": 0.25767505208332864
        },
        {
          "name": "C4",
          "midi": 60,
          "time": 166.84185500000117,
          "velocity": 0.7874015748031497,
          "duration": 0.25767505208332864
        },
        {
          "name": "G4",
          "midi": 67,
          "time": 166.84185500000117,
          "velocity": 0.7874015748031497,
          "duration": 0.25767505208332864
        },
        {
          "name": "G4",
          "midi": 67,
          "time": 167.10501250000118,
          "velocity": 0.7874015748031497,
          "duration": 0.1260963020833401
        },
        {
          "name": "C4",
          "midi": 60,
          "time": 167.10501250000118,
          "velocity": 0.7874015748031497,
          "duration": 0.1260963020833401
        },
        {
          "name": "C4",
          "midi": 60,
          "time": 167.2365912500012,
          "velocity": 0.7874015748031497,
          "duration": 0.1260963020833401
        },
        {
          "name": "G4",
          "midi": 67,
          "time": 167.2365912500012,
          "velocity": 0.7874015748031497,
          "duration": 0.1260963020833401
        },
        {
          "name": "F4",
          "midi": 65,
          "time": 167.36817000000121,
          "velocity": 0.7874015748031497,
          "duration": 0.25767505208332864
        },
        {
          "name": "A#3",
          "midi": 58,
          "time": 167.36817000000121,
          "velocity": 0.7874015748031497,
          "duration": 0.25767505208332864
        },
        {
          "name": "A#3",
          "midi": 58,
          "time": 167.63132750000122,
          "velocity": 0.7874015748031497,
          "duration": 0.25767505208332864
        },
        {
          "name": "F4",
          "midi": 65,
          "time": 167.63132750000122,
          "velocity": 0.7874015748031497,
          "duration": 0.25767505208332864
        },
        {
          "name": "F4",
          "midi": 65,
          "time": 167.89448500000123,
          "velocity": 0.7874015748031497,
          "duration": 0.25767505208332864
        },
        {
          "name": "A#3",
          "midi": 58,
          "time": 167.89448500000123,
          "velocity": 0.7874015748031497,
          "duration": 0.25767505208332864
        },
        {
          "name": "F4",
          "midi": 65,
          "time": 168.15764250000123,
          "velocity": 0.7874015748031497,
          "duration": 0.1260963020833401
        },
        {
          "name": "A#3",
          "midi": 58,
          "time": 168.15764250000123,
          "velocity": 0.7874015748031497,
          "duration": 0.1260963020833401
        },
        {
          "name": "F4",
          "midi": 65,
          "time": 168.28922125000125,
          "velocity": 0.7874015748031497,
          "duration": 0.1260963020833401
        },
        {
          "name": "A#3",
          "midi": 58,
          "time": 168.28922125000125,
          "velocity": 0.7874015748031497,
          "duration": 0.1260963020833401
        },
        {
          "name": "G#3",
          "midi": 56,
          "time": 168.42080000000126,
          "velocity": 0.7874015748031497,
          "duration": 0.25767505208332864
        },
        {
          "name": "C4",
          "midi": 60,
          "time": 168.42080000000126,
          "velocity": 0.7874015748031497,
          "duration": 0.25767505208332864
        },
        {
          "name": "C4",
          "midi": 60,
          "time": 168.68395750000127,
          "velocity": 0.7874015748031497,
          "duration": 0.25767505208332864
        },
        {
          "name": "G#3",
          "midi": 56,
          "time": 168.68395750000127,
          "velocity": 0.7874015748031497,
          "duration": 0.25767505208332864
        },
        {
          "name": "G#3",
          "midi": 56,
          "time": 168.94711500000128,
          "velocity": 0.7874015748031497,
          "duration": 0.25767505208332864
        },
        {
          "name": "C4",
          "midi": 60,
          "time": 168.94711500000128,
          "velocity": 0.7874015748031497,
          "duration": 0.25767505208332864
        },
        {
          "name": "C4",
          "midi": 60,
          "time": 169.21027250000128,
          "velocity": 0.7874015748031497,
          "duration": 0.1260963020833401
        },
        {
          "name": "G#3",
          "midi": 56,
          "time": 169.21027250000128,
          "velocity": 0.7874015748031497,
          "duration": 0.1260963020833401
        },
        {
          "name": "C4",
          "midi": 60,
          "time": 169.3418512500013,
          "velocity": 0.7874015748031497,
          "duration": 0.1260963020833401
        },
        {
          "name": "G#3",
          "midi": 56,
          "time": 169.3418512500013,
          "velocity": 0.7874015748031497,
          "duration": 0.1260963020833401
        },
        {
          "name": "F4",
          "midi": 65,
          "time": 169.47343000000131,
          "velocity": 0.7874015748031497,
          "duration": 0.25767505208332864
        },
        {
          "name": "A#3",
          "midi": 58,
          "time": 169.47343000000131,
          "velocity": 0.7874015748031497,
          "duration": 0.25767505208332864
        },
        {
          "name": "A#3",
          "midi": 58,
          "time": 169.73658750000132,
          "velocity": 0.7874015748031497,
          "duration": 0.1260963020833401
        },
        {
          "name": "F4",
          "midi": 65,
          "time": 169.73658750000132,
          "velocity": 0.7874015748031497,
          "duration": 0.1260963020833401
        },
        {
          "name": "F4",
          "midi": 65,
          "time": 169.86816625000134,
          "velocity": 0.7874015748031497,
          "duration": 0.1260963020833401
        },
        {
          "name": "A#3",
          "midi": 58,
          "time": 169.86816625000134,
          "velocity": 0.7874015748031497,
          "duration": 0.1260963020833401
        },
        {
          "name": "F4",
          "midi": 65,
          "time": 169.99974500000135,
          "velocity": 0.7874015748031497,
          "duration": 0.25767505208332864
        },
        {
          "name": "A#3",
          "midi": 58,
          "time": 169.99974500000135,
          "velocity": 0.7874015748031497,
          "duration": 0.25767505208332864
        },
        {
          "name": "F4",
          "midi": 65,
          "time": 170.26290250000136,
          "velocity": 0.7874015748031497,
          "duration": 0.038377135416652663
        },
        {
          "name": "A#3",
          "midi": 58,
          "time": 170.26290250000136,
          "velocity": 0.7874015748031497,
          "duration": 0.038377135416652663
        },
        {
          "name": "F4",
          "midi": 65,
          "time": 170.39448125000135,
          "velocity": 0.7874015748031497,
          "duration": 0.038377135416652663
        },
        {
          "name": "A#3",
          "midi": 58,
          "time": 170.39448125000135,
          "velocity": 0.7874015748031497,
          "duration": 0.038377135416652663
        },
        {
          "name": "G4",
          "midi": 67,
          "time": 170.52606000000134,
          "velocity": 0.7874015748031497,
          "duration": 1.047147552083345
        },
        {
          "name": "C4",
          "midi": 60,
          "time": 170.52606000000134,
          "velocity": 0.7874015748031497,
          "duration": 1.047147552083345
        },
        {
          "name": "F4",
          "midi": 65,
          "time": 171.57869000000136,
          "velocity": 0.7874015748031497,
          "duration": 0.25767505208332864
        },
        {
          "name": "A#3",
          "midi": 58,
          "time": 171.57869000000136,
          "velocity": 0.7874015748031497,
          "duration": 0.25767505208332864
        },
        {
          "name": "F4",
          "midi": 65,
          "time": 171.84184750000136,
          "velocity": 0.7874015748031497,
          "duration": 0.7839900520833396
        },
        {
          "name": "A#3",
          "midi": 58,
          "time": 171.84184750000136,
          "velocity": 0.7874015748031497,
          "duration": 0.7839900520833396
        },
        {
          "name": "C4",
          "midi": 60,
          "time": 172.63132000000138,
          "velocity": 0.7874015748031497,
          "duration": 1.047147552083345
        },
        {
          "name": "G#3",
          "midi": 56,
          "time": 172.63132000000138,
          "velocity": 0.7874015748031497,
          "duration": 1.047147552083345
        },
        {
          "name": "F4",
          "midi": 65,
          "time": 173.94710750000138,
          "velocity": 0.7874015748031497,
          "duration": 0.1260963020833401
        },
        {
          "name": "A#3",
          "midi": 58,
          "time": 173.94710750000138,
          "velocity": 0.7874015748031497,
          "duration": 0.1260963020833401
        },
        {
          "name": "F4",
          "midi": 65,
          "time": 174.0786862500014,
          "velocity": 0.7874015748031497,
          "duration": 0.1260963020833401
        },
        {
          "name": "A#3",
          "midi": 58,
          "time": 174.0786862500014,
          "velocity": 0.7874015748031497,
          "duration": 0.1260963020833401
        },
        {
          "name": "F4",
          "midi": 65,
          "time": 174.2102650000014,
          "velocity": 0.7874015748031497,
          "duration": 0.25767505208332864
        },
        {
          "name": "A#3",
          "midi": 58,
          "time": 174.2102650000014,
          "velocity": 0.7874015748031497,
          "duration": 0.25767505208332864
        },
        {
          "name": "G4",
          "midi": 67,
          "time": 174.47342250000142,
          "velocity": 0.7874015748031497,
          "duration": 0.25767505208332864
        },
        {
          "name": "C4",
          "midi": 60,
          "time": 174.47342250000142,
          "velocity": 0.7874015748031497,
          "duration": 0.25767505208332864
        },
        {
          "name": "G4",
          "midi": 67,
          "time": 174.73658000000142,
          "velocity": 0.7874015748031497,
          "duration": 1.047147552083345
        },
        {
          "name": "C4",
          "midi": 60,
          "time": 174.73658000000142,
          "velocity": 0.7874015748031497,
          "duration": 1.047147552083345
        },
        {
          "name": "F4",
          "midi": 65,
          "time": 175.78921000000145,
          "velocity": 0.7874015748031497,
          "duration": 1.047147552083345
        },
        {
          "name": "A#3",
          "midi": 58,
          "time": 175.78921000000145,
          "velocity": 0.7874015748031497,
          "duration": 1.047147552083345
        },
        {
          "name": "C4",
          "midi": 60,
          "time": 176.84184000000147,
          "velocity": 0.7874015748031497,
          "duration": 1.047147552083345
        },
        {
          "name": "G#3",
          "midi": 56,
          "time": 176.84184000000147,
          "velocity": 0.7874015748031497,
          "duration": 1.047147552083345
        },
        {
          "name": "F4",
          "midi": 65,
          "time": 178.15762750000147,
          "velocity": 0.7874015748031497,
          "duration": 0.1260963020833401
        },
        {
          "name": "A#3",
          "midi": 58,
          "time": 178.15762750000147,
          "velocity": 0.7874015748031497,
          "duration": 0.1260963020833401
        },
        {
          "name": "F4",
          "midi": 65,
          "time": 178.28920625000148,
          "velocity": 0.7874015748031497,
          "duration": 0.1260963020833401
        },
        {
          "name": "A#3",
          "midi": 58,
          "time": 178.28920625000148,
          "velocity": 0.7874015748031497,
          "duration": 0.1260963020833401
        },
        {
          "name": "F4",
          "midi": 65,
          "time": 178.4207850000015,
          "velocity": 0.7874015748031497,
          "duration": 0.25767505208332864
        },
        {
          "name": "A#3",
          "midi": 58,
          "time": 178.4207850000015,
          "velocity": 0.7874015748031497,
          "duration": 0.25767505208332864
        },
        {
          "name": "G4",
          "midi": 67,
          "time": 178.6839425000015,
          "velocity": 0.7874015748031497,
          "duration": 0.25767505208332864
        },
        {
          "name": "C4",
          "midi": 60,
          "time": 178.6839425000015,
          "velocity": 0.7874015748031497,
          "duration": 0.25767505208332864
        },
        {
          "name": "G4",
          "midi": 67,
          "time": 178.9471000000015,
          "velocity": 0.7874015748031497,
          "duration": 1.047147552083345
        },
        {
          "name": "C4",
          "midi": 60,
          "time": 178.9471000000015,
          "velocity": 0.7874015748031497,
          "duration": 1.047147552083345
        },
        {
          "name": "F4",
          "midi": 65,
          "time": 179.99973000000153,
          "velocity": 0.7874015748031497,
          "duration": 1.047147552083345
        },
        {
          "name": "A#3",
          "midi": 58,
          "time": 179.99973000000153,
          "velocity": 0.7874015748031497,
          "duration": 1.047147552083345
        },
        {
          "name": "C4",
          "midi": 60,
          "time": 181.05236000000156,
          "velocity": 0.7874015748031497,
          "duration": 1.047147552083345
        },
        {
          "name": "G#3",
          "midi": 56,
          "time": 181.05236000000156,
          "velocity": 0.7874015748031497,
          "duration": 1.047147552083345
        },
        {
          "name": "F4",
          "midi": 65,
          "time": 182.36814750000156,
          "velocity": 0.7874015748031497,
          "duration": 0.1260963020833401
        },
        {
          "name": "A#3",
          "midi": 58,
          "time": 182.36814750000156,
          "velocity": 0.7874015748031497,
          "duration": 0.1260963020833401
        },
        {
          "name": "F4",
          "midi": 65,
          "time": 182.49972625000157,
          "velocity": 0.7874015748031497,
          "duration": 0.1260963020833401
        },
        {
          "name": "A#3",
          "midi": 58,
          "time": 182.49972625000157,
          "velocity": 0.7874015748031497,
          "duration": 0.1260963020833401
        },
        {
          "name": "F4",
          "midi": 65,
          "time": 182.6313050000016,
          "velocity": 0.7874015748031497,
          "duration": 0.25767505208332864
        },
        {
          "name": "A#3",
          "midi": 58,
          "time": 182.6313050000016,
          "velocity": 0.7874015748031497,
          "duration": 0.25767505208332864
        },
        {
          "name": "G4",
          "midi": 67,
          "time": 182.8944625000016,
          "velocity": 0.7874015748031497,
          "duration": 0.25767505208332864
        },
        {
          "name": "C4",
          "midi": 60,
          "time": 182.8944625000016,
          "velocity": 0.7874015748031497,
          "duration": 0.25767505208332864
        },
        {
          "name": "G4",
          "midi": 67,
          "time": 183.1576200000016,
          "velocity": 0.7874015748031497,
          "duration": 1.047147552083345
        },
        {
          "name": "C4",
          "midi": 60,
          "time": 183.1576200000016,
          "velocity": 0.7874015748031497,
          "duration": 1.047147552083345
        },
        {
          "name": "F4",
          "midi": 65,
          "time": 184.21025000000162,
          "velocity": 0.7874015748031497,
          "duration": 1.047147552083345
        },
        {
          "name": "A#3",
          "midi": 58,
          "time": 184.21025000000162,
          "velocity": 0.7874015748031497,
          "duration": 1.047147552083345
        },
        {
          "name": "C4",
          "midi": 60,
          "time": 185.26288000000164,
          "velocity": 0.7874015748031497,
          "duration": 1.047147552083345
        },
        {
          "name": "G#3",
          "midi": 56,
          "time": 185.26288000000164,
          "velocity": 0.7874015748031497,
          "duration": 1.047147552083345
        },
        {
          "name": "F4",
          "midi": 65,
          "time": 186.57866750000164,
          "velocity": 0.7874015748031497,
          "duration": 0.1260963020833401
        },
        {
          "name": "A#3",
          "midi": 58,
          "time": 186.57866750000164,
          "velocity": 0.7874015748031497,
          "duration": 0.1260963020833401
        },
        {
          "name": "F4",
          "midi": 65,
          "time": 186.71024625000166,
          "velocity": 0.7874015748031497,
          "duration": 0.1260963020833401
        },
        {
          "name": "A#3",
          "midi": 58,
          "time": 186.71024625000166,
          "velocity": 0.7874015748031497,
          "duration": 0.1260963020833401
        },
        {
          "name": "F4",
          "midi": 65,
          "time": 186.84182500000168,
          "velocity": 0.7874015748031497,
          "duration": 0.25767505208332864
        },
        {
          "name": "A#3",
          "midi": 58,
          "time": 186.84182500000168,
          "velocity": 0.7874015748031497,
          "duration": 0.25767505208332864
        },
        {
          "name": "G4",
          "midi": 67,
          "time": 187.10498250000168,
          "velocity": 0.7874015748031497,
          "duration": 0.25767505208332864
        },
        {
          "name": "C4",
          "midi": 60,
          "time": 187.10498250000168,
          "velocity": 0.7874015748031497,
          "duration": 0.25767505208332864
        },
        {
          "name": "G4",
          "midi": 67,
          "time": 187.3681400000017,
          "velocity": 0.7874015748031497,
          "duration": 1.047147552083345
        },
        {
          "name": "C4",
          "midi": 60,
          "time": 187.3681400000017,
          "velocity": 0.7874015748031497,
          "duration": 1.047147552083345
        },
        {
          "name": "F4",
          "midi": 65,
          "time": 188.4207700000017,
          "velocity": 0.7874015748031497,
          "duration": 1.047147552083345
        },
        {
          "name": "A#3",
          "midi": 58,
          "time": 188.4207700000017,
          "velocity": 0.7874015748031497,
          "duration": 1.047147552083345
        },
        {
          "name": "C4",
          "midi": 60,
          "time": 189.47340000000173,
          "velocity": 0.7874015748031497,
          "duration": 1.047147552083345
        },
        {
          "name": "G#3",
          "midi": 56,
          "time": 189.47340000000173,
          "velocity": 0.7874015748031497,
          "duration": 1.047147552083345
        },
        {
          "name": "A#3",
          "midi": 58,
          "time": 190.52603000000175,
          "velocity": 0.7874015748031497,
          "duration": 0.038377135416652663
        },
        {
          "name": "F4",
          "midi": 65,
          "time": 190.52603000000175,
          "velocity": 0.7874015748031497,
          "duration": 0.038377135416652663
        },
        {
          "name": "F4",
          "midi": 65,
          "time": 190.65760875000174,
          "velocity": 0.7874015748031497,
          "duration": 0.038377135416652663
        },
        {
          "name": "A#3",
          "midi": 58,
          "time": 190.65760875000174,
          "velocity": 0.7874015748031497,
          "duration": 0.038377135416652663
        },
        {
          "name": "F4",
          "midi": 65,
          "time": 190.78918750000173,
          "velocity": 0.7874015748031497,
          "duration": 0.1260963020833401
        },
        {
          "name": "A#3",
          "midi": 58,
          "time": 190.78918750000173,
          "velocity": 0.7874015748031497,
          "duration": 0.1260963020833401
        },
        {
          "name": "F4",
          "midi": 65,
          "time": 190.92076625000175,
          "velocity": 0.7874015748031497,
          "duration": 0.1260963020833401
        },
        {
          "name": "A#3",
          "midi": 58,
          "time": 190.92076625000175,
          "velocity": 0.7874015748031497,
          "duration": 0.1260963020833401
        },
        {
          "name": "F4",
          "midi": 65,
          "time": 191.05234500000176,
          "velocity": 0.7874015748031497,
          "duration": 0.25767505208332864
        },
        {
          "name": "A#3",
          "midi": 58,
          "time": 191.05234500000176,
          "velocity": 0.7874015748031497,
          "duration": 0.25767505208332864
        },
        {
          "name": "G4",
          "midi": 67,
          "time": 191.31550250000177,
          "velocity": 0.7874015748031497,
          "duration": 0.25767505208332864
        },
        {
          "name": "C4",
          "midi": 60,
          "time": 191.31550250000177,
          "velocity": 0.7874015748031497,
          "duration": 0.25767505208332864
        },
        {
          "name": "G4",
          "midi": 67,
          "time": 191.57866000000178,
          "velocity": 0.7874015748031497,
          "duration": 1.047147552083345
        },
        {
          "name": "C4",
          "midi": 60,
          "time": 191.57866000000178,
          "velocity": 0.7874015748031497,
          "duration": 1.047147552083345
        },
        {
          "name": "F4",
          "midi": 65,
          "time": 192.6312900000018,
          "velocity": 0.7874015748031497,
          "duration": 1.047147552083345
        },
        {
          "name": "A#3",
          "midi": 58,
          "time": 192.6312900000018,
          "velocity": 0.7874015748031497,
          "duration": 1.047147552083345
        },
        {
          "name": "C4",
          "midi": 60,
          "time": 193.68392000000182,
          "velocity": 0.7874015748031497,
          "duration": 1.047147552083345
        },
        {
          "name": "G#3",
          "midi": 56,
          "time": 193.68392000000182,
          "velocity": 0.7874015748031497,
          "duration": 1.047147552083345
        },
        {
          "name": "F4",
          "midi": 65,
          "time": 194.99970750000182,
          "velocity": 0.7874015748031497,
          "duration": 0.1260963020833401
        },
        {
          "name": "A#3",
          "midi": 58,
          "time": 194.99970750000182,
          "velocity": 0.7874015748031497,
          "duration": 0.1260963020833401
        },
        {
          "name": "F4",
          "midi": 65,
          "time": 195.13128625000184,
          "velocity": 0.7874015748031497,
          "duration": 0.1260963020833401
        },
        {
          "name": "A#3",
          "midi": 58,
          "time": 195.13128625000184,
          "velocity": 0.7874015748031497,
          "duration": 0.1260963020833401
        },
        {
          "name": "F4",
          "midi": 65,
          "time": 195.26286500000185,
          "velocity": 0.7874015748031497,
          "duration": 0.25767505208332864
        },
        {
          "name": "A#3",
          "midi": 58,
          "time": 195.26286500000185,
          "velocity": 0.7874015748031497,
          "duration": 0.25767505208332864
        },
        {
          "name": "G4",
          "midi": 67,
          "time": 195.52602250000186,
          "velocity": 0.7874015748031497,
          "duration": 0.25767505208332864
        },
        {
          "name": "C4",
          "midi": 60,
          "time": 195.52602250000186,
          "velocity": 0.7874015748031497,
          "duration": 0.25767505208332864
        },
        {
          "name": "G4",
          "midi": 67,
          "time": 195.78918000000186,
          "velocity": 0.7874015748031497,
          "duration": 1.047147552083345
        },
        {
          "name": "C4",
          "midi": 60,
          "time": 195.78918000000186,
          "velocity": 0.7874015748031497,
          "duration": 1.047147552083345
        },
        {
          "name": "F4",
          "midi": 65,
          "time": 196.84181000000189,
          "velocity": 0.7874015748031497,
          "duration": 1.047147552083345
        },
        {
          "name": "A#3",
          "midi": 58,
          "time": 196.84181000000189,
          "velocity": 0.7874015748031497,
          "duration": 1.047147552083345
        },
        {
          "name": "C4",
          "midi": 60,
          "time": 197.8944400000019,
          "velocity": 0.7874015748031497,
          "duration": 1.047147552083345
        },
        {
          "name": "G#3",
          "midi": 56,
          "time": 197.8944400000019,
          "velocity": 0.7874015748031497,
          "duration": 1.047147552083345
        },
        {
          "name": "F4",
          "midi": 65,
          "time": 199.2102275000019,
          "velocity": 0.7874015748031497,
          "duration": 0.1260963020833401
        },
        {
          "name": "A#3",
          "midi": 58,
          "time": 199.2102275000019,
          "velocity": 0.7874015748031497,
          "duration": 0.1260963020833401
        },
        {
          "name": "F4",
          "midi": 65,
          "time": 199.34180625000192,
          "velocity": 0.7874015748031497,
          "duration": 0.1260963020833401
        },
        {
          "name": "A#3",
          "midi": 58,
          "time": 199.34180625000192,
          "velocity": 0.7874015748031497,
          "duration": 0.1260963020833401
        },
        {
          "name": "F4",
          "midi": 65,
          "time": 199.47338500000194,
          "velocity": 0.7874015748031497,
          "duration": 0.25767505208332864
        },
        {
          "name": "A#3",
          "midi": 58,
          "time": 199.47338500000194,
          "velocity": 0.7874015748031497,
          "duration": 0.25767505208332864
        },
        {
          "name": "G4",
          "midi": 67,
          "time": 199.73654250000195,
          "velocity": 0.7874015748031497,
          "duration": 0.25767505208332864
        },
        {
          "name": "C4",
          "midi": 60,
          "time": 199.73654250000195,
          "velocity": 0.7874015748031497,
          "duration": 0.25767505208332864
        },
        {
          "name": "G4",
          "midi": 67,
          "time": 199.99970000000195,
          "velocity": 0.7874015748031497,
          "duration": 1.047147552083345
        },
        {
          "name": "C4",
          "midi": 60,
          "time": 199.99970000000195,
          "velocity": 0.7874015748031497,
          "duration": 1.047147552083345
        },
        {
          "name": "F4",
          "midi": 65,
          "time": 201.05233000000197,
          "velocity": 0.7874015748031497,
          "duration": 1.047147552083345
        },
        {
          "name": "A#3",
          "midi": 58,
          "time": 201.05233000000197,
          "velocity": 0.7874015748031497,
          "duration": 1.047147552083345
        },
        {
          "name": "G#3",
          "midi": 56,
          "time": 202.104960000002,
          "velocity": 0.7874015748031497,
          "duration": 0.1260963020833401
        },
        {
          "name": "C4",
          "midi": 60,
          "time": 202.236538750002,
          "velocity": 0.7874015748031497,
          "duration": 0.1260963020833401
        },
        {
          "name": "G#3",
          "midi": 56,
          "time": 202.236538750002,
          "velocity": 0.7874015748031497,
          "duration": 0.1260963020833401
        },
        {
          "name": "G#3",
          "midi": 56,
          "time": 202.36811750000203,
          "velocity": 0.7874015748031497,
          "duration": 0.1260963020833401
        },
        {
          "name": "G#3",
          "midi": 56,
          "time": 202.49969625000205,
          "velocity": 0.7874015748031497,
          "duration": 0.1260963020833401
        },
        {
          "name": "G#3",
          "midi": 56,
          "time": 202.63127500000206,
          "velocity": 0.7874015748031497,
          "duration": 0.1260963020833401
        },
        {
          "name": "C4",
          "midi": 60,
          "time": 202.63127500000206,
          "velocity": 0.7874015748031497,
          "duration": 0.1260963020833401
        },
        {
          "name": "G#3",
          "midi": 56,
          "time": 202.76285375000208,
          "velocity": 0.7874015748031497,
          "duration": 0.1260963020833401
        },
        {
          "name": "G#3",
          "midi": 56,
          "time": 202.8944325000021,
          "velocity": 0.7874015748031497,
          "duration": 0.1260963020833401
        },
        {
          "name": "G#3",
          "midi": 56,
          "time": 203.0260112500021,
          "velocity": 0.7874015748031497,
          "duration": 0.1260963020833401
        },
        {
          "name": "C4",
          "midi": 60,
          "time": 203.0260112500021,
          "velocity": 0.7874015748031497,
          "duration": 0.1260963020833401
        },
        {
          "name": "C4",
          "midi": 60,
          "time": 203.15759000000213,
          "velocity": 0.7874015748031497,
          "duration": 0.1260963020833401
        },
        {
          "name": "G#3",
          "midi": 56,
          "time": 203.15759000000213,
          "velocity": 0.7874015748031497,
          "duration": 0.1260963020833401
        },
        {
          "name": "A#3",
          "midi": 58,
          "time": 203.28916875000215,
          "velocity": 0.7874015748031497,
          "duration": 0.1260963020833401
        },
        {
          "name": "F4",
          "midi": 65,
          "time": 203.28916875000215,
          "velocity": 0.7874015748031497,
          "duration": 0.1260963020833401
        },
        {
          "name": "F4",
          "midi": 65,
          "time": 203.42074750000216,
          "velocity": 0.7874015748031497,
          "duration": 0.25767505208332864
        },
        {
          "name": "A#3",
          "midi": 58,
          "time": 203.42074750000216,
          "velocity": 0.7874015748031497,
          "duration": 0.25767505208332864
        },
        {
          "name": "F4",
          "midi": 65,
          "time": 203.68390500000217,
          "velocity": 0.7874015748031497,
          "duration": 0.1260963020833401
        },
        {
          "name": "A#3",
          "midi": 58,
          "time": 203.68390500000217,
          "velocity": 0.7874015748031497,
          "duration": 0.1260963020833401
        },
        {
          "name": "F4",
          "midi": 65,
          "time": 203.8154837500022,
          "velocity": 0.7874015748031497,
          "duration": 0.1260963020833401
        },
        {
          "name": "A#3",
          "midi": 58,
          "time": 203.8154837500022,
          "velocity": 0.7874015748031497,
          "duration": 0.1260963020833401
        },
        {
          "name": "F4",
          "midi": 65,
          "time": 203.9470625000022,
          "velocity": 0.7874015748031497,
          "duration": 0.25767505208332864
        },
        {
          "name": "A#3",
          "midi": 58,
          "time": 203.9470625000022,
          "velocity": 0.7874015748031497,
          "duration": 0.25767505208332864
        },
        {
          "name": "C4",
          "midi": 60,
          "time": 204.2102200000022,
          "velocity": 0.7874015748031497,
          "duration": 0.25767505208332864
        },
        {
          "name": "G4",
          "midi": 67,
          "time": 204.2102200000022,
          "velocity": 0.7874015748031497,
          "duration": 0.25767505208332864
        },
        {
          "name": "G4",
          "midi": 67,
          "time": 204.47337750000221,
          "velocity": 0.7874015748031497,
          "duration": 0.25767505208332864
        },
        {
          "name": "C4",
          "midi": 60,
          "time": 204.47337750000221,
          "velocity": 0.7874015748031497,
          "duration": 0.25767505208332864
        },
        {
          "name": "G4",
          "midi": 67,
          "time": 204.73653500000222,
          "velocity": 0.7874015748031497,
          "duration": 0.25767505208332864
        },
        {
          "name": "C4",
          "midi": 60,
          "time": 204.73653500000222,
          "velocity": 0.7874015748031497,
          "duration": 0.25767505208332864
        },
        {
          "name": "G4",
          "midi": 67,
          "time": 204.99969250000223,
          "velocity": 0.7874015748031497,
          "duration": 0.1260963020833401
        },
        {
          "name": "C4",
          "midi": 60,
          "time": 204.99969250000223,
          "velocity": 0.7874015748031497,
          "duration": 0.1260963020833401
        },
        {
          "name": "F4",
          "midi": 65,
          "time": 205.13127125000224,
          "velocity": 0.7874015748031497,
          "duration": 0.1260963020833401
        },
        {
          "name": "A#3",
          "midi": 58,
          "time": 205.13127125000224,
          "velocity": 0.7874015748031497,
          "duration": 0.1260963020833401
        },
        {
          "name": "A#3",
          "midi": 58,
          "time": 205.26285000000226,
          "velocity": 0.7874015748031497,
          "duration": 0.1260963020833401
        },
        {
          "name": "F4",
          "midi": 65,
          "time": 205.26285000000226,
          "velocity": 0.7874015748031497,
          "duration": 0.1260963020833401
        },
        {
          "name": "F4",
          "midi": 65,
          "time": 205.39442875000228,
          "velocity": 0.7874015748031497,
          "duration": 0.1260963020833401
        },
        {
          "name": "A#3",
          "midi": 58,
          "time": 205.39442875000228,
          "velocity": 0.7874015748031497,
          "duration": 0.1260963020833401
        },
        {
          "name": "F4",
          "midi": 65,
          "time": 205.5260075000023,
          "velocity": 0.7874015748031497,
          "duration": 0.25767505208332864
        },
        {
          "name": "A#3",
          "midi": 58,
          "time": 205.5260075000023,
          "velocity": 0.7874015748031497,
          "duration": 0.25767505208332864
        },
        {
          "name": "A#3",
          "midi": 58,
          "time": 205.7891650000023,
          "velocity": 0.7874015748031497,
          "duration": 0.25767505208332864
        },
        {
          "name": "F4",
          "midi": 65,
          "time": 205.7891650000023,
          "velocity": 0.7874015748031497,
          "duration": 0.25767505208332864
        },
        {
          "name": "F4",
          "midi": 65,
          "time": 206.0523225000023,
          "velocity": 0.7874015748031497,
          "duration": 0.1260963020833401
        },
        {
          "name": "A#3",
          "midi": 58,
          "time": 206.0523225000023,
          "velocity": 0.7874015748031497,
          "duration": 0.1260963020833401
        },
        {
          "name": "G#3",
          "midi": 56,
          "time": 206.18390125000232,
          "velocity": 0.7874015748031497,
          "duration": 0.1260963020833401
        },
        {
          "name": "C4",
          "midi": 60,
          "time": 206.18390125000232,
          "velocity": 0.7874015748031497,
          "duration": 0.1260963020833401
        },
        {
          "name": "C4",
          "midi": 60,
          "time": 206.31548000000234,
          "velocity": 0.7874015748031497,
          "duration": 0.25767505208332864
        },
        {
          "name": "G#3",
          "midi": 56,
          "time": 206.31548000000234,
          "velocity": 0.7874015748031497,
          "duration": 0.25767505208332864
        },
        {
          "name": "G#3",
          "midi": 56,
          "time": 206.57863750000234,
          "velocity": 0.7874015748031497,
          "duration": 0.25767505208332864
        },
        {
          "name": "C4",
          "midi": 60,
          "time": 206.57863750000234,
          "velocity": 0.7874015748031497,
          "duration": 0.25767505208332864
        },
        {
          "name": "C4",
          "midi": 60,
          "time": 206.84179500000235,
          "velocity": 0.7874015748031497,
          "duration": 0.25767505208332864
        },
        {
          "name": "G#3",
          "midi": 56,
          "time": 206.84179500000235,
          "velocity": 0.7874015748031497,
          "duration": 0.25767505208332864
        },
        {
          "name": "C4",
          "midi": 60,
          "time": 207.10495250000236,
          "velocity": 0.7874015748031497,
          "duration": 0.1260963020833401
        },
        {
          "name": "G#3",
          "midi": 56,
          "time": 207.10495250000236,
          "velocity": 0.7874015748031497,
          "duration": 0.1260963020833401
        },
        {
          "name": "G#3",
          "midi": 56,
          "time": 207.23653125000237,
          "velocity": 0.7874015748031497,
          "duration": 0.1260963020833401
        },
        {
          "name": "C4",
          "midi": 60,
          "time": 207.23653125000237,
          "velocity": 0.7874015748031497,
          "duration": 0.1260963020833401
        },
        {
          "name": "C4",
          "midi": 60,
          "time": 207.3681100000024,
          "velocity": 0.7874015748031497,
          "duration": 0.25767505208332864
        },
        {
          "name": "G#3",
          "midi": 56,
          "time": 207.3681100000024,
          "velocity": 0.7874015748031497,
          "duration": 0.25767505208332864
        },
        {
          "name": "G#3",
          "midi": 56,
          "time": 207.6312675000024,
          "velocity": 0.7874015748031497,
          "duration": 0.25767505208332864
        },
        {
          "name": "C4",
          "midi": 60,
          "time": 207.6312675000024,
          "velocity": 0.7874015748031497,
          "duration": 0.25767505208332864
        },
        {
          "name": "C4",
          "midi": 60,
          "time": 207.8944250000024,
          "velocity": 0.7874015748031497,
          "duration": 0.25767505208332864
        },
        {
          "name": "G#3",
          "midi": 56,
          "time": 207.8944250000024,
          "velocity": 0.7874015748031497,
          "duration": 0.25767505208332864
        },
        {
          "name": "C4",
          "midi": 60,
          "time": 208.1575825000024,
          "velocity": 0.7874015748031497,
          "duration": 0.1260963020833401
        },
        {
          "name": "G4",
          "midi": 67,
          "time": 208.1575825000024,
          "velocity": 0.7874015748031497,
          "duration": 0.1260963020833401
        },
        {
          "name": "G4",
          "midi": 67,
          "time": 208.28916125000242,
          "velocity": 0.7874015748031497,
          "duration": 0.1260963020833401
        },
        {
          "name": "C4",
          "midi": 60,
          "time": 208.28916125000242,
          "velocity": 0.7874015748031497,
          "duration": 0.1260963020833401
        },
        {
          "name": "G4",
          "midi": 67,
          "time": 208.42074000000244,
          "velocity": 0.7874015748031497,
          "duration": 0.5208325520833341
        },
        {
          "name": "C4",
          "midi": 60,
          "time": 208.42074000000244,
          "velocity": 0.7874015748031497,
          "duration": 0.5208325520833341
        },
        {
          "name": "G4",
          "midi": 67,
          "time": 208.94705500000245,
          "velocity": 0.7874015748031497,
          "duration": 0.5208325520833341
        },
        {
          "name": "C4",
          "midi": 60,
          "time": 208.94705500000245,
          "velocity": 0.7874015748031497,
          "duration": 0.5208325520833341
        },
        {
          "name": "C4",
          "midi": 60,
          "time": 209.47337000000246,
          "velocity": 0.7874015748031497,
          "duration": 0.1260963020833401
        },
        {
          "name": "G4",
          "midi": 67,
          "time": 209.47337000000246,
          "velocity": 0.7874015748031497,
          "duration": 0.1260963020833401
        },
        {
          "name": "G4",
          "midi": 67,
          "time": 209.60494875000248,
          "velocity": 0.7874015748031497,
          "duration": 0.1260963020833401
        },
        {
          "name": "C4",
          "midi": 60,
          "time": 209.60494875000248,
          "velocity": 0.7874015748031497,
          "duration": 0.1260963020833401
        },
        {
          "name": "C4",
          "midi": 60,
          "time": 209.7365275000025,
          "velocity": 0.7874015748031497,
          "duration": 0.1260963020833401
        },
        {
          "name": "G4",
          "midi": 67,
          "time": 209.7365275000025,
          "velocity": 0.7874015748031497,
          "duration": 0.1260963020833401
        },
        {
          "name": "G4",
          "midi": 67,
          "time": 209.8681062500025,
          "velocity": 0.7874015748031497,
          "duration": 0.1260963020833401
        },
        {
          "name": "C4",
          "midi": 60,
          "time": 209.8681062500025,
          "velocity": 0.7874015748031497,
          "duration": 0.1260963020833401
        },
        {
          "name": "G4",
          "midi": 67,
          "time": 209.99968500000253,
          "velocity": 0.7874015748031497,
          "duration": 0.25767505208332864
        },
        {
          "name": "C4",
          "midi": 60,
          "time": 209.99968500000253,
          "velocity": 0.7874015748031497,
          "duration": 0.25767505208332864
        },
        {
          "name": "C4",
          "midi": 60,
          "time": 210.26284250000253,
          "velocity": 0.7874015748031497,
          "duration": 0.1260963020833401
        },
        {
          "name": "G4",
          "midi": 67,
          "time": 210.26284250000253,
          "velocity": 0.7874015748031497,
          "duration": 0.1260963020833401
        },
        {
          "name": "G4",
          "midi": 67,
          "time": 210.39442125000255,
          "velocity": 0.7874015748031497,
          "duration": 0.1260963020833401
        },
        {
          "name": "C4",
          "midi": 60,
          "time": 210.39442125000255,
          "velocity": 0.7874015748031497,
          "duration": 0.1260963020833401
        },
        {
          "name": "G4",
          "midi": 67,
          "time": 210.52600000000257,
          "velocity": 0.7874015748031497,
          "duration": 0.25767505208332864
        },
        {
          "name": "C4",
          "midi": 60,
          "time": 210.52600000000257,
          "velocity": 0.7874015748031497,
          "duration": 0.25767505208332864
        },
        {
          "name": "C4",
          "midi": 60,
          "time": 210.78915750000257,
          "velocity": 0.7874015748031497,
          "duration": 0.25767505208332864
        },
        {
          "name": "G#3",
          "midi": 56,
          "time": 210.78915750000257,
          "velocity": 0.7874015748031497,
          "duration": 0.25767505208332864
        },
        {
          "name": "C4",
          "midi": 60,
          "time": 211.05231500000258,
          "velocity": 0.7874015748031497,
          "duration": 0.5208325520833341
        },
        {
          "name": "G#3",
          "midi": 56,
          "time": 211.05231500000258,
          "velocity": 0.7874015748031497,
          "duration": 0.5208325520833341
        },
        {
          "name": "C4",
          "midi": 60,
          "time": 211.5786300000026,
          "velocity": 0.7874015748031497,
          "duration": 0.1260963020833401
        },
        {
          "name": "G4",
          "midi": 67,
          "time": 211.5786300000026,
          "velocity": 0.7874015748031497,
          "duration": 0.1260963020833401
        },
        {
          "name": "G4",
          "midi": 67,
          "time": 211.7102087500026,
          "velocity": 0.7874015748031497,
          "duration": 0.1260963020833401
        },
        {
          "name": "C4",
          "midi": 60,
          "time": 211.7102087500026,
          "velocity": 0.7874015748031497,
          "duration": 0.1260963020833401
        },
        {
          "name": "G4",
          "midi": 67,
          "time": 211.84178750000262,
          "velocity": 0.7874015748031497,
          "duration": 0.1260963020833401
        },
        {
          "name": "C4",
          "midi": 60,
          "time": 211.84178750000262,
          "velocity": 0.7874015748031497,
          "duration": 0.1260963020833401
        },
        {
          "name": "G4",
          "midi": 67,
          "time": 211.97336625000264,
          "velocity": 0.7874015748031497,
          "duration": 0.25767505208332864
        },
        {
          "name": "C4",
          "midi": 60,
          "time": 211.97336625000264,
          "velocity": 0.7874015748031497,
          "duration": 0.25767505208332864
        },
        {
          "name": "G4",
          "midi": 67,
          "time": 212.23652375000265,
          "velocity": 0.7874015748031497,
          "duration": 0.1260963020833401
        },
        {
          "name": "C4",
          "midi": 60,
          "time": 212.23652375000265,
          "velocity": 0.7874015748031497,
          "duration": 0.1260963020833401
        },
        {
          "name": "G4",
          "midi": 67,
          "time": 212.36810250000266,
          "velocity": 0.7874015748031497,
          "duration": 0.25767505208332864
        },
        {
          "name": "C4",
          "midi": 60,
          "time": 212.36810250000266,
          "velocity": 0.7874015748031497,
          "duration": 0.25767505208332864
        },
        {
          "name": "C4",
          "midi": 60,
          "time": 212.89441750000265,
          "velocity": 0.7874015748031497,
          "duration": 0.25767505208332864
        },
        {
          "name": "G4",
          "midi": 67,
          "time": 212.89441750000265,
          "velocity": 0.7874015748031497,
          "duration": 0.25767505208332864
        },
        {
          "name": "G4",
          "midi": 67,
          "time": 213.15757500000265,
          "velocity": 0.7874015748031497,
          "duration": 0.5208325520833341
        },
        {
          "name": "C4",
          "midi": 60,
          "time": 213.15757500000265,
          "velocity": 0.7874015748031497,
          "duration": 0.5208325520833341
        },
        {
          "name": "C4",
          "midi": 60,
          "time": 213.68389000000266,
          "velocity": 0.7874015748031497,
          "duration": 0.1260963020833401
        },
        {
          "name": "G4",
          "midi": 67,
          "time": 213.68389000000266,
          "velocity": 0.7874015748031497,
          "duration": 0.1260963020833401
        },
        {
          "name": "G4",
          "midi": 67,
          "time": 213.81546875000268,
          "velocity": 0.7874015748031497,
          "duration": 0.1260963020833401
        },
        {
          "name": "C4",
          "midi": 60,
          "time": 213.81546875000268,
          "velocity": 0.7874015748031497,
          "duration": 0.1260963020833401
        },
        {
          "name": "C4",
          "midi": 60,
          "time": 213.9470475000027,
          "velocity": 0.7874015748031497,
          "duration": 0.1260963020833401
        },
        {
          "name": "G4",
          "midi": 67,
          "time": 213.9470475000027,
          "velocity": 0.7874015748031497,
          "duration": 0.1260963020833401
        },
        {
          "name": "G4",
          "midi": 67,
          "time": 214.0786262500027,
          "velocity": 0.7874015748031497,
          "duration": 0.1260963020833401
        },
        {
          "name": "C4",
          "midi": 60,
          "time": 214.0786262500027,
          "velocity": 0.7874015748031497,
          "duration": 0.1260963020833401
        },
        {
          "name": "C4",
          "midi": 60,
          "time": 214.21020500000273,
          "velocity": 0.7874015748031497,
          "duration": 0.1260963020833401
        },
        {
          "name": "G4",
          "midi": 67,
          "time": 214.21020500000273,
          "velocity": 0.7874015748031497,
          "duration": 0.1260963020833401
        },
        {
          "name": "G4",
          "midi": 67,
          "time": 214.34178375000275,
          "velocity": 0.7874015748031497,
          "duration": 0.1260963020833401
        },
        {
          "name": "C4",
          "midi": 60,
          "time": 214.34178375000275,
          "velocity": 0.7874015748031497,
          "duration": 0.1260963020833401
        },
        {
          "name": "G4",
          "midi": 67,
          "time": 214.47336250000276,
          "velocity": 0.7874015748031497,
          "duration": 0.25767505208332864
        },
        {
          "name": "C4",
          "midi": 60,
          "time": 214.47336250000276,
          "velocity": 0.7874015748031497,
          "duration": 0.25767505208332864
        },
        {
          "name": "C4",
          "midi": 60,
          "time": 214.99967750000275,
          "velocity": 0.7874015748031497,
          "duration": 0.25767505208332864
        },
        {
          "name": "G#3",
          "midi": 56,
          "time": 214.99967750000275,
          "velocity": 0.7874015748031497,
          "duration": 0.25767505208332864
        },
        {
          "name": "C4",
          "midi": 60,
          "time": 215.26283500000275,
          "velocity": 0.7874015748031497,
          "duration": 0.5208325520833341
        },
        {
          "name": "G#3",
          "midi": 56,
          "time": 215.26283500000275,
          "velocity": 0.7874015748031497,
          "duration": 0.5208325520833341
        },
        {
          "name": "C4",
          "midi": 60,
          "time": 216.05230750000274,
          "velocity": 0.7874015748031497,
          "duration": 0.1260963020833401
        },
        {
          "name": "G4",
          "midi": 67,
          "time": 216.05230750000274,
          "velocity": 0.7874015748031497,
          "duration": 0.1260963020833401
        },
        {
          "name": "G4",
          "midi": 67,
          "time": 216.18388625000276,
          "velocity": 0.7874015748031497,
          "duration": 0.1260963020833401
        },
        {
          "name": "C4",
          "midi": 60,
          "time": 216.18388625000276,
          "velocity": 0.7874015748031497,
          "duration": 0.1260963020833401
        },
        {
          "name": "C4",
          "midi": 60,
          "time": 216.31546500000277,
          "velocity": 0.7874015748031497,
          "duration": 0.1260963020833401
        },
        {
          "name": "G4",
          "midi": 67,
          "time": 216.31546500000277,
          "velocity": 0.7874015748031497,
          "duration": 0.1260963020833401
        },
        {
          "name": "G4",
          "midi": 67,
          "time": 216.4470437500028,
          "velocity": 0.7874015748031497,
          "duration": 0.1260963020833401
        },
        {
          "name": "C4",
          "midi": 60,
          "time": 216.4470437500028,
          "velocity": 0.7874015748031497,
          "duration": 0.1260963020833401
        },
        {
          "name": "G4",
          "midi": 67,
          "time": 216.5786225000028,
          "velocity": 0.7874015748031497,
          "duration": 0.25767505208332864
        },
        {
          "name": "C4",
          "midi": 60,
          "time": 216.5786225000028,
          "velocity": 0.7874015748031497,
          "duration": 0.25767505208332864
        },
        {
          "name": "C4",
          "midi": 60,
          "time": 217.1049375000028,
          "velocity": 0.7874015748031497,
          "duration": 0.25767505208332864
        },
        {
          "name": "G4",
          "midi": 67,
          "time": 217.1049375000028,
          "velocity": 0.7874015748031497,
          "duration": 0.25767505208332864
        },
        {
          "name": "G4",
          "midi": 67,
          "time": 217.3680950000028,
          "velocity": 0.7874015748031497,
          "duration": 0.5208325520833341
        },
        {
          "name": "C4",
          "midi": 60,
          "time": 217.3680950000028,
          "velocity": 0.7874015748031497,
          "duration": 0.5208325520833341
        },
        {
          "name": "C4",
          "midi": 60,
          "time": 217.8944100000028,
          "velocity": 0.7874015748031497,
          "duration": 0.1260963020833401
        },
        {
          "name": "G4",
          "midi": 67,
          "time": 217.8944100000028,
          "velocity": 0.7874015748031497,
          "duration": 0.1260963020833401
        },
        {
          "name": "G4",
          "midi": 67,
          "time": 218.02598875000282,
          "velocity": 0.7874015748031497,
          "duration": 0.1260963020833401
        },
        {
          "name": "C4",
          "midi": 60,
          "time": 218.02598875000282,
          "velocity": 0.7874015748031497,
          "duration": 0.1260963020833401
        },
        {
          "name": "C4",
          "midi": 60,
          "time": 218.15756750000284,
          "velocity": 0.7874015748031497,
          "duration": 0.1260963020833401
        },
        {
          "name": "G4",
          "midi": 67,
          "time": 218.15756750000284,
          "velocity": 0.7874015748031497,
          "duration": 0.1260963020833401
        },
        {
          "name": "G4",
          "midi": 67,
          "time": 218.28914625000286,
          "velocity": 0.7874015748031497,
          "duration": 0.1260963020833401
        },
        {
          "name": "C4",
          "midi": 60,
          "time": 218.28914625000286,
          "velocity": 0.7874015748031497,
          "duration": 0.1260963020833401
        },
        {
          "name": "C4",
          "midi": 60,
          "time": 218.42072500000288,
          "velocity": 0.7874015748031497,
          "duration": 0.1260963020833401
        },
        {
          "name": "G4",
          "midi": 67,
          "time": 218.42072500000288,
          "velocity": 0.7874015748031497,
          "duration": 0.1260963020833401
        },
        {
          "name": "G4",
          "midi": 67,
          "time": 218.5523037500029,
          "velocity": 0.7874015748031497,
          "duration": 0.1260963020833401
        },
        {
          "name": "C4",
          "midi": 60,
          "time": 218.5523037500029,
          "velocity": 0.7874015748031497,
          "duration": 0.1260963020833401
        },
        {
          "name": "G4",
          "midi": 67,
          "time": 218.6838825000029,
          "velocity": 0.7874015748031497,
          "duration": 0.25767505208332864
        },
        {
          "name": "C4",
          "midi": 60,
          "time": 218.6838825000029,
          "velocity": 0.7874015748031497,
          "duration": 0.25767505208332864
        },
        {
          "name": "C4",
          "midi": 60,
          "time": 219.2101975000029,
          "velocity": 0.7874015748031497,
          "duration": 0.25767505208332864
        },
        {
          "name": "G#3",
          "midi": 56,
          "time": 219.2101975000029,
          "velocity": 0.7874015748031497,
          "duration": 0.25767505208332864
        },
        {
          "name": "C4",
          "midi": 60,
          "time": 219.4733550000029,
          "velocity": 0.7874015748031497,
          "duration": 0.5208325520833341
        },
        {
          "name": "G#3",
          "midi": 56,
          "time": 219.4733550000029,
          "velocity": 0.7874015748031497,
          "duration": 0.5208325520833341
        },
        {
          "name": "C4",
          "midi": 60,
          "time": 220.26282750000289,
          "velocity": 0.7874015748031497,
          "duration": 0.1260963020833401
        },
        {
          "name": "G4",
          "midi": 67,
          "time": 220.26282750000289,
          "velocity": 0.7874015748031497,
          "duration": 0.1260963020833401
        },
        {
          "name": "G4",
          "midi": 67,
          "time": 220.3944062500029,
          "velocity": 0.7874015748031497,
          "duration": 0.1260963020833401
        },
        {
          "name": "C4",
          "midi": 60,
          "time": 220.3944062500029,
          "velocity": 0.7874015748031497,
          "duration": 0.1260963020833401
        },
        {
          "name": "C4",
          "midi": 60,
          "time": 220.52598500000292,
          "velocity": 0.7874015748031497,
          "duration": 0.1260963020833401
        },
        {
          "name": "G4",
          "midi": 67,
          "time": 220.52598500000292,
          "velocity": 0.7874015748031497,
          "duration": 0.1260963020833401
        },
        {
          "name": "G4",
          "midi": 67,
          "time": 220.65756375000294,
          "velocity": 0.7874015748031497,
          "duration": 0.1260963020833401
        },
        {
          "name": "C4",
          "midi": 60,
          "time": 220.65756375000294,
          "velocity": 0.7874015748031497,
          "duration": 0.1260963020833401
        },
        {
          "name": "G4",
          "midi": 67,
          "time": 220.78914250000295,
          "velocity": 0.7874015748031497,
          "duration": 0.25767505208332864
        },
        {
          "name": "C4",
          "midi": 60,
          "time": 220.78914250000295,
          "velocity": 0.7874015748031497,
          "duration": 0.25767505208332864
        },
        {
          "name": "C4",
          "midi": 60,
          "time": 221.31545750000296,
          "velocity": 0.7874015748031497,
          "duration": 0.25767505208332864
        },
        {
          "name": "G4",
          "midi": 67,
          "time": 221.31545750000296,
          "velocity": 0.7874015748031497,
          "duration": 0.25767505208332864
        },
        {
          "name": "G4",
          "midi": 67,
          "time": 221.57861500000297,
          "velocity": 0.7874015748031497,
          "duration": 0.1260963020833401
        },
        {
          "name": "C4",
          "midi": 60,
          "time": 221.57861500000297,
          "velocity": 0.7874015748031497,
          "duration": 0.1260963020833401
        },
        {
          "name": "G4",
          "midi": 67,
          "time": 221.710193750003,
          "velocity": 0.7874015748031497,
          "duration": 0.1260963020833401
        },
        {
          "name": "C4",
          "midi": 60,
          "time": 221.710193750003,
          "velocity": 0.7874015748031497,
          "duration": 0.1260963020833401
        },
        {
          "name": "G4",
          "midi": 67,
          "time": 221.973351250003,
          "velocity": 0.7874015748031497,
          "duration": 0.1260963020833401
        },
        {
          "name": "C4",
          "midi": 60,
          "time": 221.973351250003,
          "velocity": 0.7874015748031497,
          "duration": 0.1260963020833401
        },
        {
          "name": "G4",
          "midi": 67,
          "time": 222.104930000003,
          "velocity": 0.7874015748031497,
          "duration": 0.25767505208332864
        },
        {
          "name": "C4",
          "midi": 60,
          "time": 222.104930000003,
          "velocity": 0.7874015748031497,
          "duration": 0.25767505208332864
        },
        {
          "name": "G4",
          "midi": 67,
          "time": 222.368087500003,
          "velocity": 0.7874015748031497,
          "duration": 0.1260963020833401
        },
        {
          "name": "C4",
          "midi": 60,
          "time": 222.368087500003,
          "velocity": 0.7874015748031497,
          "duration": 0.1260963020833401
        },
        {
          "name": "G4",
          "midi": 67,
          "time": 222.49966625000303,
          "velocity": 0.7874015748031497,
          "duration": 0.1260963020833401
        },
        {
          "name": "C4",
          "midi": 60,
          "time": 222.49966625000303,
          "velocity": 0.7874015748031497,
          "duration": 0.1260963020833401
        },
        {
          "name": "G4",
          "midi": 67,
          "time": 222.63124500000305,
          "velocity": 0.7874015748031497,
          "duration": 0.1260963020833401
        },
        {
          "name": "C4",
          "midi": 60,
          "time": 222.63124500000305,
          "velocity": 0.7874015748031497,
          "duration": 0.1260963020833401
        },
        {
          "name": "G4",
          "midi": 67,
          "time": 222.76282375000307,
          "velocity": 0.7874015748031497,
          "duration": 0.1260963020833401
        },
        {
          "name": "C4",
          "midi": 60,
          "time": 222.76282375000307,
          "velocity": 0.7874015748031497,
          "duration": 0.1260963020833401
        },
        {
          "name": "F4",
          "midi": 65,
          "time": 222.89440250000308,
          "velocity": 0.7874015748031497,
          "duration": 0.25767505208332864
        },
        {
          "name": "A#3",
          "midi": 58,
          "time": 222.89440250000308,
          "velocity": 0.7874015748031497,
          "duration": 0.25767505208332864
        },
        {
          "name": "C4",
          "midi": 60,
          "time": 223.1575600000031,
          "velocity": 0.7874015748031497,
          "duration": 0.25767505208332864
        },
        {
          "name": "G#3",
          "midi": 56,
          "time": 223.1575600000031,
          "velocity": 0.7874015748031497,
          "duration": 0.25767505208332864
        },
        {
          "name": "C4",
          "midi": 60,
          "time": 223.4207175000031,
          "velocity": 0.7874015748031497,
          "duration": 0.25767505208332864
        },
        {
          "name": "G#3",
          "midi": 56,
          "time": 223.4207175000031,
          "velocity": 0.7874015748031497,
          "duration": 0.25767505208332864
        },
        {
          "name": "C4",
          "midi": 60,
          "time": 223.6838750000031,
          "velocity": 0.7874015748031497,
          "duration": 0.1260963020833401
        },
        {
          "name": "G#3",
          "midi": 56,
          "time": 223.6838750000031,
          "velocity": 0.7874015748031497,
          "duration": 0.1260963020833401
        },
        {
          "name": "C4",
          "midi": 60,
          "time": 223.81545375000312,
          "velocity": 0.7874015748031497,
          "duration": 0.1260963020833401
        },
        {
          "name": "G#3",
          "midi": 56,
          "time": 223.81545375000312,
          "velocity": 0.7874015748031497,
          "duration": 0.1260963020833401
        },
        {
          "name": "C4",
          "midi": 60,
          "time": 223.94703250000313,
          "velocity": 0.7874015748031497,
          "duration": 0.25767505208332864
        },
        {
          "name": "G#3",
          "midi": 56,
          "time": 223.94703250000313,
          "velocity": 0.7874015748031497,
          "duration": 0.25767505208332864
        },
        {
          "name": "G4",
          "midi": 67,
          "time": 224.47334750000311,
          "velocity": 0.7874015748031497,
          "duration": 0.1260963020833401
        },
        {
          "name": "C4",
          "midi": 60,
          "time": 224.47334750000311,
          "velocity": 0.7874015748031497,
          "duration": 0.1260963020833401
        },
        {
          "name": "G4",
          "midi": 67,
          "time": 224.60492625000313,
          "velocity": 0.7874015748031497,
          "duration": 0.1260963020833401
        },
        {
          "name": "C4",
          "midi": 60,
          "time": 224.60492625000313,
          "velocity": 0.7874015748031497,
          "duration": 0.1260963020833401
        },
        {
          "name": "C4",
          "midi": 60,
          "time": 224.73650500000315,
          "velocity": 0.7874015748031497,
          "duration": 0.1260963020833401
        },
        {
          "name": "G4",
          "midi": 67,
          "time": 224.73650500000315,
          "velocity": 0.7874015748031497,
          "duration": 0.1260963020833401
        },
        {
          "name": "C4",
          "midi": 60,
          "time": 224.86808375000317,
          "velocity": 0.7874015748031497,
          "duration": 0.1260963020833401
        },
        {
          "name": "G4",
          "midi": 67,
          "time": 224.86808375000317,
          "velocity": 0.7874015748031497,
          "duration": 0.1260963020833401
        },
        {
          "name": "C4",
          "midi": 60,
          "time": 224.99966250000318,
          "velocity": 0.7874015748031497,
          "duration": 0.1260963020833401
        },
        {
          "name": "G4",
          "midi": 67,
          "time": 224.99966250000318,
          "velocity": 0.7874015748031497,
          "duration": 0.1260963020833401
        },
        {
          "name": "C4",
          "midi": 60,
          "time": 225.1312412500032,
          "velocity": 0.7874015748031497,
          "duration": 0.1260963020833401
        },
        {
          "name": "G4",
          "midi": 67,
          "time": 225.1312412500032,
          "velocity": 0.7874015748031497,
          "duration": 0.1260963020833401
        },
        {
          "name": "G4",
          "midi": 67,
          "time": 225.5259775000032,
          "velocity": 0.7874015748031497,
          "duration": 0.25767505208332864
        },
        {
          "name": "C4",
          "midi": 60,
          "time": 225.5259775000032,
          "velocity": 0.7874015748031497,
          "duration": 0.25767505208332864
        },
        {
          "name": "C4",
          "midi": 60,
          "time": 225.7891350000032,
          "velocity": 0.7874015748031497,
          "duration": 0.25767505208332864
        },
        {
          "name": "G4",
          "midi": 67,
          "time": 225.7891350000032,
          "velocity": 0.7874015748031497,
          "duration": 0.25767505208332864
        },
        {
          "name": "G4",
          "midi": 67,
          "time": 226.0522925000032,
          "velocity": 0.7874015748031497,
          "duration": 0.1260963020833401
        },
        {
          "name": "C4",
          "midi": 60,
          "time": 226.0522925000032,
          "velocity": 0.7874015748031497,
          "duration": 0.1260963020833401
        },
        {
          "name": "G4",
          "midi": 67,
          "time": 226.18387125000322,
          "velocity": 0.7874015748031497,
          "duration": 0.1260963020833401
        },
        {
          "name": "C4",
          "midi": 60,
          "time": 226.18387125000322,
          "velocity": 0.7874015748031497,
          "duration": 0.1260963020833401
        },
        {
          "name": "G4",
          "midi": 67,
          "time": 226.31545000000324,
          "velocity": 0.7874015748031497,
          "duration": 0.25767505208332864
        },
        {
          "name": "C4",
          "midi": 60,
          "time": 226.31545000000324,
          "velocity": 0.7874015748031497,
          "duration": 0.25767505208332864
        },
        {
          "name": "G4",
          "midi": 67,
          "time": 226.57860750000324,
          "velocity": 0.7874015748031497,
          "duration": 0.1260963020833401
        },
        {
          "name": "C4",
          "midi": 60,
          "time": 226.57860750000324,
          "velocity": 0.7874015748031497,
          "duration": 0.1260963020833401
        },
        {
          "name": "C4",
          "midi": 60,
          "time": 226.71018625000326,
          "velocity": 0.7874015748031497,
          "duration": 0.1260963020833401
        },
        {
          "name": "G4",
          "midi": 67,
          "time": 226.71018625000326,
          "velocity": 0.7874015748031497,
          "duration": 0.1260963020833401
        },
        {
          "name": "G4",
          "midi": 67,
          "time": 226.84176500000328,
          "velocity": 0.7874015748031497,
          "duration": 0.1260963020833401
        },
        {
          "name": "C4",
          "midi": 60,
          "time": 226.84176500000328,
          "velocity": 0.7874015748031497,
          "duration": 0.1260963020833401
        },
        {
          "name": "C4",
          "midi": 60,
          "time": 226.9733437500033,
          "velocity": 0.7874015748031497,
          "duration": 0.1260963020833401
        },
        {
          "name": "G4",
          "midi": 67,
          "time": 226.9733437500033,
          "velocity": 0.7874015748031497,
          "duration": 0.1260963020833401
        },
        {
          "name": "G4",
          "midi": 67,
          "time": 227.1049225000033,
          "velocity": 0.7874015748031497,
          "duration": 0.25767505208332864
        },
        {
          "name": "C4",
          "midi": 60,
          "time": 227.1049225000033,
          "velocity": 0.7874015748031497,
          "duration": 0.25767505208332864
        },
        {
          "name": "C4",
          "midi": 60,
          "time": 227.6312375000033,
          "velocity": 0.7874015748031497,
          "duration": 0.25767505208332864
        },
        {
          "name": "G#3",
          "midi": 56,
          "time": 227.6312375000033,
          "velocity": 0.7874015748031497,
          "duration": 0.25767505208332864
        },
        {
          "name": "G#3",
          "midi": 56,
          "time": 227.8943950000033,
          "velocity": 0.7874015748031497,
          "duration": 0.25767505208332864
        },
        {
          "name": "C4",
          "midi": 60,
          "time": 227.8943950000033,
          "velocity": 0.7874015748031497,
          "duration": 0.25767505208332864
        },
        {
          "name": "C4",
          "midi": 60,
          "time": 228.1575525000033,
          "velocity": 0.7874015748031497,
          "duration": 0.1260963020833401
        },
        {
          "name": "G#3",
          "midi": 56,
          "time": 228.1575525000033,
          "velocity": 0.7874015748031497,
          "duration": 0.1260963020833401
        },
        {
          "name": "C4",
          "midi": 60,
          "time": 228.28913125000332,
          "velocity": 0.7874015748031497,
          "duration": 0.1260963020833401
        },
        {
          "name": "G#3",
          "midi": 56,
          "time": 228.28913125000332,
          "velocity": 0.7874015748031497,
          "duration": 0.1260963020833401
        },
        {
          "name": "G4",
          "midi": 67,
          "time": 228.42071000000334,
          "velocity": 0.7874015748031497,
          "duration": 0.1260963020833401
        },
        {
          "name": "C4",
          "midi": 60,
          "time": 228.42071000000334,
          "velocity": 0.7874015748031497,
          "duration": 0.1260963020833401
        },
        {
          "name": "G4",
          "midi": 67,
          "time": 228.55228875000336,
          "velocity": 0.7874015748031497,
          "duration": 0.1260963020833401
        },
        {
          "name": "C4",
          "midi": 60,
          "time": 228.55228875000336,
          "velocity": 0.7874015748031497,
          "duration": 0.1260963020833401
        },
        {
          "name": "G4",
          "midi": 67,
          "time": 228.68386750000337,
          "velocity": 0.7874015748031497,
          "duration": 0.1260963020833401
        },
        {
          "name": "C4",
          "midi": 60,
          "time": 228.68386750000337,
          "velocity": 0.7874015748031497,
          "duration": 0.1260963020833401
        },
        {
          "name": "G4",
          "midi": 67,
          "time": 228.8154462500034,
          "velocity": 0.7874015748031497,
          "duration": 0.1260963020833401
        },
        {
          "name": "C4",
          "midi": 60,
          "time": 228.8154462500034,
          "velocity": 0.7874015748031497,
          "duration": 0.1260963020833401
        },
        {
          "name": "G4",
          "midi": 67,
          "time": 228.9470250000034,
          "velocity": 0.7874015748031497,
          "duration": 0.1260963020833401
        },
        {
          "name": "C4",
          "midi": 60,
          "time": 228.9470250000034,
          "velocity": 0.7874015748031497,
          "duration": 0.1260963020833401
        },
        {
          "name": "G4",
          "midi": 67,
          "time": 229.07860375000342,
          "velocity": 0.7874015748031497,
          "duration": 0.1260963020833401
        },
        {
          "name": "C4",
          "midi": 60,
          "time": 229.07860375000342,
          "velocity": 0.7874015748031497,
          "duration": 0.1260963020833401
        },
        {
          "name": "G4",
          "midi": 67,
          "time": 229.21018250000344,
          "velocity": 0.7874015748031497,
          "duration": 0.25767505208332864
        },
        {
          "name": "C4",
          "midi": 60,
          "time": 229.21018250000344,
          "velocity": 0.7874015748031497,
          "duration": 0.25767505208332864
        },
        {
          "name": "G4",
          "midi": 67,
          "time": 229.47334000000345,
          "velocity": 0.7874015748031497,
          "duration": 0.5208325520833341
        },
        {
          "name": "C4",
          "midi": 60,
          "time": 229.47334000000345,
          "velocity": 0.7874015748031497,
          "duration": 0.5208325520833341
        },
        {
          "name": "G4",
          "midi": 67,
          "time": 229.99965500000346,
          "velocity": 0.7874015748031497,
          "duration": 0.25767505208332864
        },
        {
          "name": "C4",
          "midi": 60,
          "time": 229.99965500000346,
          "velocity": 0.7874015748031497,
          "duration": 0.25767505208332864
        },
        {
          "name": "G4",
          "midi": 67,
          "time": 230.26281250000346,
          "velocity": 0.7874015748031497,
          "duration": 0.1260963020833401
        },
        {
          "name": "C4",
          "midi": 60,
          "time": 230.26281250000346,
          "velocity": 0.7874015748031497,
          "duration": 0.1260963020833401
        },
        {
          "name": "G4",
          "midi": 67,
          "time": 230.39439125000348,
          "velocity": 0.7874015748031497,
          "duration": 0.1260963020833401
        },
        {
          "name": "C4",
          "midi": 60,
          "time": 230.39439125000348,
          "velocity": 0.7874015748031497,
          "duration": 0.1260963020833401
        },
        {
          "name": "G4",
          "midi": 67,
          "time": 230.7891275000035,
          "velocity": 0.7874015748031497,
          "duration": 0.1260963020833401
        },
        {
          "name": "C4",
          "midi": 60,
          "time": 230.7891275000035,
          "velocity": 0.7874015748031497,
          "duration": 0.1260963020833401
        },
        {
          "name": "G4",
          "midi": 67,
          "time": 230.92070625000352,
          "velocity": 0.7874015748031497,
          "duration": 0.1260963020833401
        },
        {
          "name": "C4",
          "midi": 60,
          "time": 230.92070625000352,
          "velocity": 0.7874015748031497,
          "duration": 0.1260963020833401
        },
        {
          "name": "G4",
          "midi": 67,
          "time": 231.05228500000354,
          "velocity": 0.7874015748031497,
          "duration": 0.1260963020833401
        },
        {
          "name": "C4",
          "midi": 60,
          "time": 231.05228500000354,
          "velocity": 0.7874015748031497,
          "duration": 0.1260963020833401
        },
        {
          "name": "G4",
          "midi": 67,
          "time": 231.18386375000355,
          "velocity": 0.7874015748031497,
          "duration": 0.1260963020833401
        },
        {
          "name": "C4",
          "midi": 60,
          "time": 231.18386375000355,
          "velocity": 0.7874015748031497,
          "duration": 0.1260963020833401
        },
        {
          "name": "C4",
          "midi": 60,
          "time": 231.31544250000357,
          "velocity": 0.7874015748031497,
          "duration": 0.25767505208332864
        },
        {
          "name": "G4",
          "midi": 67,
          "time": 231.31544250000357,
          "velocity": 0.7874015748031497,
          "duration": 0.25767505208332864
        },
        {
          "name": "C4",
          "midi": 60,
          "time": 231.57860000000358,
          "velocity": 0.7874015748031497,
          "duration": 0.25767505208332864
        },
        {
          "name": "G#3",
          "midi": 56,
          "time": 231.57860000000358,
          "velocity": 0.7874015748031497,
          "duration": 0.25767505208332864
        },
        {
          "name": "G#3",
          "midi": 56,
          "time": 231.84175750000358,
          "velocity": 0.7874015748031497,
          "duration": 0.25767505208332864
        },
        {
          "name": "C4",
          "midi": 60,
          "time": 231.84175750000358,
          "velocity": 0.7874015748031497,
          "duration": 0.25767505208332864
        },
        {
          "name": "C4",
          "midi": 60,
          "time": 232.1049150000036,
          "velocity": 0.7874015748031497,
          "duration": 0.5208325520833341
        },
        {
          "name": "G#3",
          "midi": 56,
          "time": 232.1049150000036,
          "velocity": 0.7874015748031497,
          "duration": 0.5208325520833341
        },
        {
          "name": "C4",
          "midi": 60,
          "time": 232.8943875000036,
          "velocity": 0.7874015748031497,
          "duration": 0.1260963020833401
        },
        {
          "name": "G#3",
          "midi": 56,
          "time": 232.8943875000036,
          "velocity": 0.7874015748031497,
          "duration": 0.1260963020833401
        },
        {
          "name": "G#3",
          "midi": 56,
          "time": 233.02596625000362,
          "velocity": 0.7874015748031497,
          "duration": 0.1260963020833401
        },
        {
          "name": "C4",
          "midi": 60,
          "time": 233.02596625000362,
          "velocity": 0.7874015748031497,
          "duration": 0.1260963020833401
        },
        {
          "name": "C4",
          "midi": 60,
          "time": 233.15754500000364,
          "velocity": 0.7874015748031497,
          "duration": 0.1260963020833401
        },
        {
          "name": "G#3",
          "midi": 56,
          "time": 233.15754500000364,
          "velocity": 0.7874015748031497,
          "duration": 0.1260963020833401
        },
        {
          "name": "G#3",
          "midi": 56,
          "time": 233.28912375000365,
          "velocity": 0.7874015748031497,
          "duration": 0.1260963020833401
        },
        {
          "name": "C4",
          "midi": 60,
          "time": 233.28912375000365,
          "velocity": 0.7874015748031497,
          "duration": 0.1260963020833401
        },
        {
          "name": "C4",
          "midi": 60,
          "time": 233.42070250000367,
          "velocity": 0.7874015748031497,
          "duration": 0.25767505208332864
        },
        {
          "name": "G#3",
          "midi": 56,
          "time": 233.42070250000367,
          "velocity": 0.7874015748031497,
          "duration": 0.25767505208332864
        },
        {
          "name": "G4",
          "midi": 67,
          "time": 233.68386000000368,
          "velocity": 0.7874015748031497,
          "duration": 0.25767505208332864
        },
        {
          "name": "C4",
          "midi": 60,
          "time": 233.68386000000368,
          "velocity": 0.7874015748031497,
          "duration": 0.25767505208332864
        },
        {
          "name": "C4",
          "midi": 60,
          "time": 233.94701750000368,
          "velocity": 0.7874015748031497,
          "duration": 0.25767505208332864
        },
        {
          "name": "G4",
          "midi": 67,
          "time": 233.94701750000368,
          "velocity": 0.7874015748031497,
          "duration": 0.25767505208332864
        },
        {
          "name": "G4",
          "midi": 67,
          "time": 234.2101750000037,
          "velocity": 0.7874015748031497,
          "duration": 0.25767505208332864
        },
        {
          "name": "C4",
          "midi": 60,
          "time": 234.2101750000037,
          "velocity": 0.7874015748031497,
          "duration": 0.25767505208332864
        },
        {
          "name": "G4",
          "midi": 67,
          "time": 234.4733325000037,
          "velocity": 0.7874015748031497,
          "duration": 0.1260963020833401
        },
        {
          "name": "C4",
          "midi": 60,
          "time": 234.4733325000037,
          "velocity": 0.7874015748031497,
          "duration": 0.1260963020833401
        },
        {
          "name": "C4",
          "midi": 60,
          "time": 234.6049112500037,
          "velocity": 0.7874015748031497,
          "duration": 0.1260963020833401
        },
        {
          "name": "G4",
          "midi": 67,
          "time": 234.6049112500037,
          "velocity": 0.7874015748031497,
          "duration": 0.1260963020833401
        },
        {
          "name": "G4",
          "midi": 67,
          "time": 234.73649000000373,
          "velocity": 0.7874015748031497,
          "duration": 0.25767505208332864
        },
        {
          "name": "C4",
          "midi": 60,
          "time": 234.73649000000373,
          "velocity": 0.7874015748031497,
          "duration": 0.25767505208332864
        },
        {
          "name": "G4",
          "midi": 67,
          "time": 234.99964750000373,
          "velocity": 0.7874015748031497,
          "duration": 0.1260963020833401
        },
        {
          "name": "C4",
          "midi": 60,
          "time": 234.99964750000373,
          "velocity": 0.7874015748031497,
          "duration": 0.1260963020833401
        },
        {
          "name": "C4",
          "midi": 60,
          "time": 235.13122625000375,
          "velocity": 0.7874015748031497,
          "duration": 0.1260963020833401
        },
        {
          "name": "G4",
          "midi": 67,
          "time": 235.13122625000375,
          "velocity": 0.7874015748031497,
          "duration": 0.1260963020833401
        },
        {
          "name": "G4",
          "midi": 67,
          "time": 235.26280500000377,
          "velocity": 0.7874015748031497,
          "duration": 0.1260963020833401
        },
        {
          "name": "C4",
          "midi": 60,
          "time": 235.26280500000377,
          "velocity": 0.7874015748031497,
          "duration": 0.1260963020833401
        },
        {
          "name": "C4",
          "midi": 60,
          "time": 235.39438375000378,
          "velocity": 0.7874015748031497,
          "duration": 0.1260963020833401
        },
        {
          "name": "G4",
          "midi": 67,
          "time": 235.39438375000378,
          "velocity": 0.7874015748031497,
          "duration": 0.1260963020833401
        },
        {
          "name": "G4",
          "midi": 67,
          "time": 235.5259625000038,
          "velocity": 0.7874015748031497,
          "duration": 0.25767505208332864
        },
        {
          "name": "C4",
          "midi": 60,
          "time": 235.5259625000038,
          "velocity": 0.7874015748031497,
          "duration": 0.25767505208332864
        },
        {
          "name": "C4",
          "midi": 60,
          "time": 235.7891200000038,
          "velocity": 0.7874015748031497,
          "duration": 0.25767505208332864
        },
        {
          "name": "G#3",
          "midi": 56,
          "time": 235.7891200000038,
          "velocity": 0.7874015748031497,
          "duration": 0.25767505208332864
        },
        {
          "name": "G#3",
          "midi": 56,
          "time": 236.0522775000038,
          "velocity": 0.7874015748031497,
          "duration": 0.25767505208332864
        },
        {
          "name": "C4",
          "midi": 60,
          "time": 236.0522775000038,
          "velocity": 0.7874015748031497,
          "duration": 0.25767505208332864
        },
        {
          "name": "C4",
          "midi": 60,
          "time": 236.31543500000382,
          "velocity": 0.7874015748031497,
          "duration": 0.5208325520833341
        },
        {
          "name": "G#3",
          "midi": 56,
          "time": 236.31543500000382,
          "velocity": 0.7874015748031497,
          "duration": 0.5208325520833341
        },
        {
          "name": "G4",
          "midi": 67,
          "time": 237.10490750000383,
          "velocity": 0.7874015748031497,
          "duration": 0.1260963020833401
        },
        {
          "name": "C4",
          "midi": 60,
          "time": 237.10490750000383,
          "velocity": 0.7874015748031497,
          "duration": 0.1260963020833401
        },
        {
          "name": "C4",
          "midi": 60,
          "time": 237.23648625000385,
          "velocity": 0.7874015748031497,
          "duration": 0.1260963020833401
        },
        {
          "name": "G4",
          "midi": 67,
          "time": 237.23648625000385,
          "velocity": 0.7874015748031497,
          "duration": 0.1260963020833401
        },
        {
          "name": "G4",
          "midi": 67,
          "time": 237.36806500000387,
          "velocity": 0.7874015748031497,
          "duration": 0.1260963020833401
        },
        {
          "name": "C4",
          "midi": 60,
          "time": 237.36806500000387,
          "velocity": 0.7874015748031497,
          "duration": 0.1260963020833401
        },
        {
          "name": "G4",
          "midi": 67,
          "time": 237.49964375000388,
          "velocity": 0.7874015748031497,
          "duration": 0.1260963020833401
        },
        {
          "name": "C4",
          "midi": 60,
          "time": 237.49964375000388,
          "velocity": 0.7874015748031497,
          "duration": 0.1260963020833401
        },
        {
          "name": "G4",
          "midi": 67,
          "time": 237.6312225000039,
          "velocity": 0.7874015748031497,
          "duration": 0.25767505208332864
        },
        {
          "name": "C4",
          "midi": 60,
          "time": 237.6312225000039,
          "velocity": 0.7874015748031497,
          "duration": 0.25767505208332864
        },
        {
          "name": "G4",
          "midi": 67,
          "time": 237.8943800000039,
          "velocity": 0.7874015748031497,
          "duration": 0.25767505208332864
        },
        {
          "name": "C4",
          "midi": 60,
          "time": 237.8943800000039,
          "velocity": 0.7874015748031497,
          "duration": 0.25767505208332864
        },
        {
          "name": "C4",
          "midi": 60,
          "time": 238.1575375000039,
          "velocity": 0.7874015748031497,
          "duration": 0.25767505208332864
        },
        {
          "name": "G4",
          "midi": 67,
          "time": 238.1575375000039,
          "velocity": 0.7874015748031497,
          "duration": 0.25767505208332864
        },
        {
          "name": "G4",
          "midi": 67,
          "time": 238.42069500000392,
          "velocity": 0.7874015748031497,
          "duration": 0.5208325520833341
        },
        {
          "name": "C4",
          "midi": 60,
          "time": 238.42069500000392,
          "velocity": 0.7874015748031497,
          "duration": 0.5208325520833341
        },
        {
          "name": "G4",
          "midi": 67,
          "time": 239.2101675000039,
          "velocity": 0.7874015748031497,
          "duration": 0.1260963020833401
        },
        {
          "name": "C4",
          "midi": 60,
          "time": 239.2101675000039,
          "velocity": 0.7874015748031497,
          "duration": 0.1260963020833401
        },
        {
          "name": "C4",
          "midi": 60,
          "time": 239.34174625000392,
          "velocity": 0.7874015748031497,
          "duration": 0.1260963020833401
        },
        {
          "name": "G4",
          "midi": 67,
          "time": 239.34174625000392,
          "velocity": 0.7874015748031497,
          "duration": 0.1260963020833401
        },
        {
          "name": "G4",
          "midi": 67,
          "time": 239.47332500000394,
          "velocity": 0.7874015748031497,
          "duration": 0.1260963020833401
        },
        {
          "name": "C4",
          "midi": 60,
          "time": 239.47332500000394,
          "velocity": 0.7874015748031497,
          "duration": 0.1260963020833401
        },
        {
          "name": "G4",
          "midi": 67,
          "time": 239.60490375000396,
          "velocity": 0.7874015748031497,
          "duration": 0.1260963020833401
        },
        {
          "name": "C4",
          "midi": 60,
          "time": 239.60490375000396,
          "velocity": 0.7874015748031497,
          "duration": 0.1260963020833401
        },
        {
          "name": "G4",
          "midi": 67,
          "time": 239.73648250000397,
          "velocity": 0.7874015748031497,
          "duration": 0.25767505208332864
        },
        {
          "name": "C4",
          "midi": 60,
          "time": 239.73648250000397,
          "velocity": 0.7874015748031497,
          "duration": 0.25767505208332864
        }
      ],
      "controlChanges": {
        "7": [
          {
            "number": 7,
            "time": 0,
            "value": 0.3937007874015748
          },
          {
            "number": 7,
            "time": 9.736827499999999,
            "value": 0.23622047244094488
          },
          {
            "number": 7,
            "time": 221.05230000000296,
            "value": 0.6299212598425197
          },
          {
            "number": 7,
            "time": 227.6312375000033,
            "value": 0.6141732283464567
          },
          {
            "number": 7,
            "time": 227.8943950000033,
            "value": 0.5984251968503937
          },
          {
            "number": 7,
            "time": 228.1575525000033,
            "value": 0.5826771653543307
          },
          {
            "number": 7,
            "time": 228.42071000000334,
            "value": 0.5669291338582677
          },
          {
            "number": 7,
            "time": 228.68386750000337,
            "value": 0.5511811023622047
          },
          {
            "number": 7,
            "time": 228.9470250000034,
            "value": 0.5354330708661418
          },
          {
            "number": 7,
            "time": 229.21018250000344,
            "value": 0.5196850393700787
          },
          {
            "number": 7,
            "time": 229.47334000000345,
            "value": 0.5039370078740157
          },
          {
            "number": 7,
            "time": 229.73649750000345,
            "value": 0.4881889763779528
          },
          {
            "number": 7,
            "time": 229.99965500000346,
            "value": 0.47244094488188976
          },
          {
            "number": 7,
            "time": 230.26281250000346,
            "value": 0.4566929133858268
          },
          {
            "number": 7,
            "time": 230.5259700000035,
            "value": 0.4409448818897638
          },
          {
            "number": 7,
            "time": 230.7891275000035,
            "value": 0.4251968503937008
          },
          {
            "number": 7,
            "time": 231.05228500000354,
            "value": 0.4094488188976378
          },
          {
            "number": 7,
            "time": 231.31544250000357,
            "value": 0.3937007874015748
          },
          {
            "number": 7,
            "time": 231.57860000000358,
            "value": 0.3779527559055118
          },
          {
            "number": 7,
            "time": 231.84175750000358,
            "value": 0.36220472440944884
          },
          {
            "number": 7,
            "time": 232.1049150000036,
            "value": 0.3464566929133858
          },
          {
            "number": 7,
            "time": 232.3680725000036,
            "value": 0.33070866141732286
          },
          {
            "number": 7,
            "time": 232.6312300000036,
            "value": 0.31496062992125984
          },
          {
            "number": 7,
            "time": 232.8943875000036,
            "value": 0.2992125984251969
          },
          {
            "number": 7,
            "time": 233.15754500000364,
            "value": 0.28346456692913385
          },
          {
            "number": 7,
            "time": 233.42070250000367,
            "value": 0.2677165354330709
          },
          {
            "number": 7,
            "time": 233.68386000000368,
            "value": 0.25196850393700787
          },
          {
            "number": 7,
            "time": 233.94701750000368,
            "value": 0.23622047244094488
          },
          {
            "number": 7,
            "time": 234.2101750000037,
            "value": 0.2204724409448819
          },
          {
            "number": 7,
            "time": 234.4733325000037,
            "value": 0.2047244094488189
          },
          {
            "number": 7,
            "time": 234.73649000000373,
            "value": 0.1889763779527559
          },
          {
            "number": 7,
            "time": 234.99964750000373,
            "value": 0.1732283464566929
          },
          {
            "number": 7,
            "time": 235.26280500000377,
            "value": 0.15748031496062992
          },
          {
            "number": 7,
            "time": 235.5259625000038,
            "value": 0.14173228346456693
          },
          {
            "number": 7,
            "time": 235.7891200000038,
            "value": 0.12598425196850394
          },
          {
            "number": 7,
            "time": 236.0522775000038,
            "value": 0.11023622047244094
          },
          {
            "number": 7,
            "time": 236.31543500000382,
            "value": 0.09448818897637795
          },
          {
            "number": 7,
            "time": 236.57859250000382,
            "value": 0.07874015748031496
          },
          {
            "number": 7,
            "time": 236.84175000000383,
            "value": 0.06299212598425197
          },
          {
            "number": 7,
            "time": 237.10490750000383,
            "value": 0.047244094488188976
          },
          {
            "number": 7,
            "time": 237.36806500000387,
            "value": 0.031496062992125984
          },
          {
            "number": 7,
            "time": 237.8943800000039,
            "value": 0.015748031496062992
          },
          {
            "number": 7,
            "time": 239.47332500000394,
            "value": 0
          }
        ]
      },
      "id": 1,
      "name": "All Along the",
      "instrumentNumber": 20,
      "instrument": "acoustic guitar",
      "instrumentFamily": "guitar",
      "channelNumber": 0,
      "isPercussion": false
    },
    {
      "startTime": 9.7368275,
      "duration": 239.9941575520913,
      "length": 909,
      "notes": [
        {
          "name": "G5",
          "midi": 79,
          "time": 9.7368275,
          "velocity": 0.7874015748031497,
          "duration": 0.25767505208333397
        },
        {
          "name": "A#5",
          "midi": 82,
          "time": 9.999985,
          "velocity": 0.7874015748031497,
          "duration": 0.25767505208333397
        },
        {
          "name": "C6",
          "midi": 84,
          "time": 10.2631425,
          "velocity": 0.7874015748031497,
          "duration": 0.2576750520833393
        },
        {
          "name": "C6",
          "midi": 84,
          "time": 10.526300000000006,
          "velocity": 0.7874015748031497,
          "duration": 0.2576750520833393
        },
        {
          "name": "C6",
          "midi": 84,
          "time": 10.789457500000012,
          "velocity": 0.7874015748031497,
          "duration": 0.2576750520833393
        },
        {
          "name": "C#6",
          "midi": 85,
          "time": 11.052615000000017,
          "velocity": 0.7874015748031497,
          "duration": 0.520832552083343
        },
        {
          "name": "C6",
          "midi": 84,
          "time": 11.842087500000027,
          "velocity": 0.7874015748031497,
          "duration": 0.25767505208332864
        },
        {
          "name": "A#5",
          "midi": 82,
          "time": 12.105245000000021,
          "velocity": 0.7874015748031497,
          "duration": 0.25767505208333397
        },
        {
          "name": "F5",
          "midi": 77,
          "time": 12.368402500000022,
          "velocity": 0.7874015748031497,
          "duration": 0.2576750520833322
        },
        {
          "name": "F5",
          "midi": 77,
          "time": 12.63156000000002,
          "velocity": 0.7874015748031497,
          "duration": 0.25767505208333397
        },
        {
          "name": "F5",
          "midi": 77,
          "time": 12.89471750000002,
          "velocity": 0.7874015748031497,
          "duration": 0.25767505208333397
        },
        {
          "name": "F5",
          "midi": 77,
          "time": 13.15787500000002,
          "velocity": 0.7874015748031497,
          "duration": 0.7839900520833414
        },
        {
          "name": "C5",
          "midi": 72,
          "time": 13.947347500000028,
          "velocity": 0.7874015748031497,
          "duration": 0.25767505208333397
        },
        {
          "name": "D#5",
          "midi": 75,
          "time": 14.210505000000028,
          "velocity": 0.7874015748031497,
          "duration": 0.25767505208333397
        },
        {
          "name": "F5",
          "midi": 77,
          "time": 14.473662500000028,
          "velocity": 0.7874015748031497,
          "duration": 0.25767505208333397
        },
        {
          "name": "F5",
          "midi": 77,
          "time": 14.736820000000028,
          "velocity": 0.7874015748031497,
          "duration": 0.25767505208333574
        },
        {
          "name": "F5",
          "midi": 77,
          "time": 14.99997750000003,
          "velocity": 0.7874015748031497,
          "duration": 0.25767505208333397
        },
        {
          "name": "G5",
          "midi": 79,
          "time": 15.26313500000003,
          "velocity": 0.7874015748031497,
          "duration": 1.0471475520833415
        },
        {
          "name": "D#5",
          "midi": 75,
          "time": 16.315765000000038,
          "velocity": 0.7874015748031497,
          "duration": 0.2576750520833322
        },
        {
          "name": "C5",
          "midi": 72,
          "time": 16.578922500000036,
          "velocity": 0.7874015748031497,
          "duration": 0.2576750520833322
        },
        {
          "name": "G5",
          "midi": 79,
          "time": 16.842080000000035,
          "velocity": 0.7874015748031497,
          "duration": 0.25767505208333574
        },
        {
          "name": "D#5",
          "midi": 75,
          "time": 17.105237500000037,
          "velocity": 0.7874015748031497,
          "duration": 0.2576750520833322
        },
        {
          "name": "B5",
          "midi": 83,
          "time": 17.368395000000035,
          "velocity": 0.7874015748031497,
          "duration": 1.0471475520833025
        },
        {
          "name": "B5",
          "midi": 83,
          "time": 18.421025000000004,
          "velocity": 0.7874015748031497,
          "duration": 0.5208325520833235
        },
        {
          "name": "F5",
          "midi": 77,
          "time": 19.473654999999994,
          "velocity": 0.7874015748031497,
          "duration": 0.2576750520833322
        },
        {
          "name": "A#4",
          "midi": 70,
          "time": 19.736812499999992,
          "velocity": 0.7874015748031497,
          "duration": 0.2576750520833322
        },
        {
          "name": "A#4",
          "midi": 70,
          "time": 20.263127499999992,
          "velocity": 0.7874015748031497,
          "duration": 0.5208325520833341
        },
        {
          "name": "F4",
          "midi": 65,
          "time": 20.263127499999992,
          "velocity": 0.7874015748031497,
          "duration": 0.5208325520833341
        },
        {
          "name": "G#4",
          "midi": 68,
          "time": 20.789442499999993,
          "velocity": 0.7874015748031497,
          "duration": 0.2576750520833322
        },
        {
          "name": "D#4",
          "midi": 63,
          "time": 20.789442499999993,
          "velocity": 0.7874015748031497,
          "duration": 0.2576750520833322
        },
        {
          "name": "G#4",
          "midi": 68,
          "time": 21.05259999999999,
          "velocity": 0.7874015748031497,
          "duration": 0.5208325520833341
        },
        {
          "name": "D#4",
          "midi": 63,
          "time": 21.05259999999999,
          "velocity": 0.7874015748031497,
          "duration": 0.5208325520833341
        },
        {
          "name": "A#3",
          "midi": 58,
          "time": 21.84755494791666,
          "velocity": 0.7874015748031497,
          "duration": 0.2576750520833322
        },
        {
          "name": "F4",
          "midi": 65,
          "time": 22.10522999999999,
          "velocity": 0.7874015748031497,
          "duration": 0.2576750520833322
        },
        {
          "name": "A#4",
          "midi": 70,
          "time": 22.36838749999999,
          "velocity": 0.7874015748031497,
          "duration": 0.2576750520833322
        },
        {
          "name": "A#4",
          "midi": 70,
          "time": 22.63154499999999,
          "velocity": 0.7874015748031497,
          "duration": 0.2576750520833322
        },
        {
          "name": "F4",
          "midi": 65,
          "time": 22.63154499999999,
          "velocity": 0.7874015748031497,
          "duration": 0.2576750520833322
        },
        {
          "name": "D#4",
          "midi": 63,
          "time": 22.894702499999987,
          "velocity": 0.7874015748031497,
          "duration": 0.2576750520833322
        },
        {
          "name": "C4",
          "midi": 60,
          "time": 23.157859999999985,
          "velocity": 0.7874015748031497,
          "duration": 0.5208325520833306
        },
        {
          "name": "D#5",
          "midi": 75,
          "time": 23.684174999999982,
          "velocity": 0.7874015748031497,
          "duration": 0.2576750520833322
        },
        {
          "name": "G4",
          "midi": 67,
          "time": 23.94733249999998,
          "velocity": 0.7874015748031497,
          "duration": 0.2576750520833322
        },
        {
          "name": "A#4",
          "midi": 70,
          "time": 24.73680499999998,
          "velocity": 0.7874015748031497,
          "duration": 0.2576750520833322
        },
        {
          "name": "F4",
          "midi": 65,
          "time": 24.73680499999998,
          "velocity": 0.7874015748031497,
          "duration": 0.2576750520833322
        },
        {
          "name": "G#4",
          "midi": 68,
          "time": 24.999962499999977,
          "velocity": 0.7874015748031497,
          "duration": 1.0471475520833309
        },
        {
          "name": "D#4",
          "midi": 63,
          "time": 24.999962499999977,
          "velocity": 0.7874015748031497,
          "duration": 0.2576750520833322
        },
        {
          "name": "D#4",
          "midi": 63,
          "time": 25.263119999999976,
          "velocity": 0.7874015748031497,
          "duration": 0.7839900520833325
        },
        {
          "name": "G#4",
          "midi": 68,
          "time": 26.05807494791664,
          "velocity": 0.7874015748031497,
          "duration": 0.2576750520833322
        },
        {
          "name": "G4",
          "midi": 67,
          "time": 26.315749999999973,
          "velocity": 0.7874015748031497,
          "duration": 0.2576750520833322
        },
        {
          "name": "A#4",
          "midi": 70,
          "time": 26.57890749999997,
          "velocity": 0.7874015748031497,
          "duration": 0.5208325520833306
        },
        {
          "name": "G4",
          "midi": 67,
          "time": 27.105222499999968,
          "velocity": 0.7874015748031497,
          "duration": 0.2576750520833322
        },
        {
          "name": "C4",
          "midi": 60,
          "time": 27.368379999999966,
          "velocity": 0.7874015748031497,
          "duration": 1.0471475520833344
        },
        {
          "name": "A#4",
          "midi": 70,
          "time": 27.894694999999967,
          "velocity": 0.7874015748031497,
          "duration": 0.5208325520833341
        },
        {
          "name": "D#5",
          "midi": 75,
          "time": 27.894694999999967,
          "velocity": 0.7874015748031497,
          "duration": 0.5208325520833341
        },
        {
          "name": "A#3",
          "midi": 58,
          "time": 28.421009999999967,
          "velocity": 0.7874015748031497,
          "duration": 0.2576750520833322
        },
        {
          "name": "A#3",
          "midi": 58,
          "time": 28.684167499999965,
          "velocity": 0.7874015748031497,
          "duration": 0.2576750520833322
        },
        {
          "name": "D5",
          "midi": 74,
          "time": 28.947324999999964,
          "velocity": 0.7874015748031497,
          "duration": 1.3103050520833364
        },
        {
          "name": "F4",
          "midi": 65,
          "time": 30.268594947916633,
          "velocity": 0.7874015748031497,
          "duration": 0.2576750520833322
        },
        {
          "name": "A#3",
          "midi": 58,
          "time": 30.526269999999965,
          "velocity": 0.7874015748031497,
          "duration": 0.2576750520833322
        },
        {
          "name": "D#4",
          "midi": 63,
          "time": 30.789427499999963,
          "velocity": 0.7874015748031497,
          "duration": 0.2576750520833322
        },
        {
          "name": "A#4",
          "midi": 70,
          "time": 31.05258499999996,
          "velocity": 0.7874015748031497,
          "duration": 0.2576750520833322
        },
        {
          "name": "F4",
          "midi": 65,
          "time": 31.05258499999996,
          "velocity": 0.7874015748031497,
          "duration": 0.2576750520833322
        },
        {
          "name": "C4",
          "midi": 60,
          "time": 31.31574249999996,
          "velocity": 0.7874015748031497,
          "duration": 0.25767505208333574
        },
        {
          "name": "C4",
          "midi": 60,
          "time": 31.584382447916628,
          "velocity": 0.7874015748031497,
          "duration": 0.783990052083336
        },
        {
          "name": "F5",
          "midi": 77,
          "time": 32.10521499999996,
          "velocity": 0.7874015748031497,
          "duration": 0.5208325520833412
        },
        {
          "name": "C4",
          "midi": 60,
          "time": 32.368372499999964,
          "velocity": 0.7874015748031497,
          "duration": 0.25767505208333574
        },
        {
          "name": "A#3",
          "midi": 58,
          "time": 32.63152999999997,
          "velocity": 0.7874015748031497,
          "duration": 0.7839900520833325
        },
        {
          "name": "A#3",
          "midi": 58,
          "time": 33.42100249999997,
          "velocity": 0.7874015748031497,
          "duration": 0.25767505208333574
        },
        {
          "name": "D#5",
          "midi": 75,
          "time": 33.68415999999998,
          "velocity": 0.7874015748031497,
          "duration": 0.7839900520833325
        },
        {
          "name": "C5",
          "midi": 72,
          "time": 33.68415999999998,
          "velocity": 0.7874015748031497,
          "duration": 0.7839900520833325
        },
        {
          "name": "G#4",
          "midi": 68,
          "time": 33.68415999999998,
          "velocity": 0.7874015748031497,
          "duration": 0.7839900520833325
        },
        {
          "name": "D#4",
          "midi": 63,
          "time": 33.68415999999998,
          "velocity": 0.7874015748031497,
          "duration": 0.7839900520833325
        },
        {
          "name": "D#4",
          "midi": 63,
          "time": 34.47363249999998,
          "velocity": 0.7874015748031497,
          "duration": 0.25767505208333574
        },
        {
          "name": "G#4",
          "midi": 68,
          "time": 34.47363249999998,
          "velocity": 0.7874015748031497,
          "duration": 0.25767505208333574
        },
        {
          "name": "F4",
          "midi": 65,
          "time": 34.736789999999985,
          "velocity": 0.7874015748031497,
          "duration": 0.25767505208333574
        },
        {
          "name": "D#5",
          "midi": 75,
          "time": 34.99994749999999,
          "velocity": 0.7874015748031497,
          "duration": 0.7839900520833396
        },
        {
          "name": "D#5",
          "midi": 75,
          "time": 36.315735,
          "velocity": 0.7874015748031497,
          "duration": 0.5208325520833341
        },
        {
          "name": "F4",
          "midi": 65,
          "time": 36.84205,
          "velocity": 0.7874015748031497,
          "duration": 0.25767505208333574
        },
        {
          "name": "A#4",
          "midi": 70,
          "time": 36.84205,
          "velocity": 0.7874015748031497,
          "duration": 0.25767505208333574
        },
        {
          "name": "A#4",
          "midi": 70,
          "time": 37.105207500000006,
          "velocity": 0.7874015748031497,
          "duration": 0.5208325520833341
        },
        {
          "name": "F4",
          "midi": 65,
          "time": 37.105207500000006,
          "velocity": 0.7874015748031497,
          "duration": 0.5208325520833341
        },
        {
          "name": "G#4",
          "midi": 68,
          "time": 37.63152250000001,
          "velocity": 0.7874015748031497,
          "duration": 0.25767505208333574
        },
        {
          "name": "D#4",
          "midi": 63,
          "time": 37.63152250000001,
          "velocity": 0.7874015748031497,
          "duration": 0.25767505208333574
        },
        {
          "name": "G#4",
          "midi": 68,
          "time": 37.894680000000015,
          "velocity": 0.7874015748031497,
          "duration": 0.7839900520833325
        },
        {
          "name": "D#4",
          "midi": 63,
          "time": 37.894680000000015,
          "velocity": 0.7874015748031497,
          "duration": 0.7839900520833325
        },
        {
          "name": "F4",
          "midi": 65,
          "time": 38.68963494791669,
          "velocity": 0.7874015748031497,
          "duration": 0.25767505208333574
        },
        {
          "name": "D#5",
          "midi": 75,
          "time": 38.94731000000002,
          "velocity": 0.7874015748031497,
          "duration": 0.25767505208333574
        },
        {
          "name": "A#4",
          "midi": 70,
          "time": 38.94731000000002,
          "velocity": 0.7874015748031497,
          "duration": 0.25767505208333574
        },
        {
          "name": "A#4",
          "midi": 70,
          "time": 39.21046750000003,
          "velocity": 0.7874015748031497,
          "duration": 0.7839900520833396
        },
        {
          "name": "D#5",
          "midi": 75,
          "time": 39.21046750000003,
          "velocity": 0.7874015748031497,
          "duration": 0.7839900520833396
        },
        {
          "name": "F4",
          "midi": 65,
          "time": 40.00542244791671,
          "velocity": 0.7874015748031497,
          "duration": 0.25767505208333574
        },
        {
          "name": "A#4",
          "midi": 70,
          "time": 40.26309750000004,
          "velocity": 0.7874015748031497,
          "duration": 0.25767505208333574
        },
        {
          "name": "D#5",
          "midi": 75,
          "time": 40.29599218750005,
          "velocity": 0.7874015748031497,
          "duration": 0.2247803645833315
        },
        {
          "name": "F4",
          "midi": 65,
          "time": 40.52625500000005,
          "velocity": 0.7874015748031497,
          "duration": 0.25767505208333574
        },
        {
          "name": "A#4",
          "midi": 70,
          "time": 40.52625500000005,
          "velocity": 0.7874015748031497,
          "duration": 0.25767505208333574
        },
        {
          "name": "G4",
          "midi": 67,
          "time": 40.789412500000054,
          "velocity": 0.7874015748031497,
          "duration": 0.25767505208333574
        },
        {
          "name": "F4",
          "midi": 65,
          "time": 41.05257000000006,
          "velocity": 0.7874015748031497,
          "duration": 0.25767505208333574
        },
        {
          "name": "A#4",
          "midi": 70,
          "time": 41.05257000000006,
          "velocity": 0.7874015748031497,
          "duration": 0.25767505208333574
        },
        {
          "name": "A#4",
          "midi": 70,
          "time": 41.315727500000065,
          "velocity": 0.7874015748031497,
          "duration": 0.25767505208333574
        },
        {
          "name": "F4",
          "midi": 65,
          "time": 41.315727500000065,
          "velocity": 0.7874015748031497,
          "duration": 0.25767505208333574
        },
        {
          "name": "D#5",
          "midi": 75,
          "time": 41.57888500000007,
          "velocity": 0.7874015748031497,
          "duration": 0.25767505208333574
        },
        {
          "name": "D#4",
          "midi": 63,
          "time": 41.842042500000076,
          "velocity": 0.7874015748031497,
          "duration": 0.25767505208333574
        },
        {
          "name": "G#4",
          "midi": 68,
          "time": 41.842042500000076,
          "velocity": 0.7874015748031497,
          "duration": 0.25767505208333574
        },
        {
          "name": "D#4",
          "midi": 63,
          "time": 42.10520000000008,
          "velocity": 0.7874015748031497,
          "duration": 0.7839900520833325
        },
        {
          "name": "G#4",
          "midi": 68,
          "time": 42.10520000000008,
          "velocity": 0.7874015748031497,
          "duration": 0.7839900520833325
        },
        {
          "name": "A#3",
          "midi": 58,
          "time": 42.894672500000084,
          "velocity": 0.7874015748031497,
          "duration": 0.25767505208333574
        },
        {
          "name": "D#4",
          "midi": 63,
          "time": 43.15783000000009,
          "velocity": 0.7874015748031497,
          "duration": 0.25767505208333574
        },
        {
          "name": "A#4",
          "midi": 70,
          "time": 43.420987500000095,
          "velocity": 0.7874015748031497,
          "duration": 0.25767505208333574
        },
        {
          "name": "A#4",
          "midi": 70,
          "time": 43.6841450000001,
          "velocity": 0.7874015748031497,
          "duration": 0.5208325520833554
        },
        {
          "name": "C4",
          "midi": 60,
          "time": 44.215942447916795,
          "velocity": 0.7874015748031497,
          "duration": 1.047147552083345
        },
        {
          "name": "D#5",
          "midi": 75,
          "time": 44.73677500000013,
          "velocity": 0.7874015748031497,
          "duration": 0.25767505208333574
        },
        {
          "name": "G4",
          "midi": 67,
          "time": 44.999932500000135,
          "velocity": 0.7874015748031497,
          "duration": 0.25767505208333574
        },
        {
          "name": "A#4",
          "midi": 70,
          "time": 45.26309000000014,
          "velocity": 0.7874015748031497,
          "duration": 0.5208325520833341
        },
        {
          "name": "A#4",
          "midi": 70,
          "time": 45.789405000000144,
          "velocity": 0.7874015748031497,
          "duration": 0.25767505208333574
        },
        {
          "name": "F4",
          "midi": 65,
          "time": 45.789405000000144,
          "velocity": 0.7874015748031497,
          "duration": 0.25767505208333574
        },
        {
          "name": "G#4",
          "midi": 68,
          "time": 46.05256250000015,
          "velocity": 0.7874015748031497,
          "duration": 0.25767505208333574
        },
        {
          "name": "D#4",
          "midi": 63,
          "time": 46.05256250000015,
          "velocity": 0.7874015748031497,
          "duration": 0.25767505208333574
        },
        {
          "name": "C4",
          "midi": 60,
          "time": 46.315720000000155,
          "velocity": 0.7874015748031497,
          "duration": 0.5208325520833341
        },
        {
          "name": "G#4",
          "midi": 68,
          "time": 46.84203500000016,
          "velocity": 0.7874015748031497,
          "duration": 0.25767505208333574
        },
        {
          "name": "D#4",
          "midi": 63,
          "time": 46.84203500000016,
          "velocity": 0.7874015748031497,
          "duration": 0.25767505208333574
        },
        {
          "name": "C#5",
          "midi": 73,
          "time": 47.105192500000165,
          "velocity": 0.7874015748031497,
          "duration": 0.25767505208333574
        },
        {
          "name": "G#4",
          "midi": 68,
          "time": 47.36835000000017,
          "velocity": 0.7874015748031497,
          "duration": 0.25767505208333574
        },
        {
          "name": "G4",
          "midi": 67,
          "time": 47.631507500000176,
          "velocity": 0.7874015748031497,
          "duration": 0.25767505208333574
        },
        {
          "name": "A#4",
          "midi": 70,
          "time": 47.89466500000018,
          "velocity": 0.7874015748031497,
          "duration": 0.5208325520833412
        },
        {
          "name": "C4",
          "midi": 60,
          "time": 48.42098000000019,
          "velocity": 0.7874015748031497,
          "duration": 1.0471475520833309
        },
        {
          "name": "D#5",
          "midi": 75,
          "time": 48.94729500000019,
          "velocity": 0.7874015748031497,
          "duration": 0.5208325520833341
        },
        {
          "name": "A#4",
          "midi": 70,
          "time": 49.47361000000019,
          "velocity": 0.7874015748031497,
          "duration": 0.25767505208333574
        },
        {
          "name": "F4",
          "midi": 65,
          "time": 49.47361000000019,
          "velocity": 0.7874015748031497,
          "duration": 0.25767505208333574
        },
        {
          "name": "F4",
          "midi": 65,
          "time": 49.7367675000002,
          "velocity": 0.7874015748031497,
          "duration": 0.25767505208333574
        },
        {
          "name": "A#4",
          "midi": 70,
          "time": 49.7367675000002,
          "velocity": 0.7874015748031497,
          "duration": 0.25767505208333574
        },
        {
          "name": "A#4",
          "midi": 70,
          "time": 49.999925000000204,
          "velocity": 0.7874015748031497,
          "duration": 0.25767505208333574
        },
        {
          "name": "F4",
          "midi": 65,
          "time": 49.999925000000204,
          "velocity": 0.7874015748031497,
          "duration": 0.25767505208333574
        },
        {
          "name": "G#4",
          "midi": 68,
          "time": 50.26308250000021,
          "velocity": 0.7874015748031497,
          "duration": 0.25767505208333574
        },
        {
          "name": "C4",
          "midi": 60,
          "time": 50.526240000000215,
          "velocity": 0.7874015748031497,
          "duration": 0.5208325520833341
        },
        {
          "name": "G#4",
          "midi": 68,
          "time": 51.05255500000022,
          "velocity": 0.7874015748031497,
          "duration": 0.25767505208333574
        },
        {
          "name": "D#4",
          "midi": 63,
          "time": 51.05255500000022,
          "velocity": 0.7874015748031497,
          "duration": 0.25767505208333574
        },
        {
          "name": "C4",
          "midi": 60,
          "time": 51.315712500000224,
          "velocity": 0.7874015748031497,
          "duration": 0.126096302083333
        },
        {
          "name": "G#4",
          "midi": 68,
          "time": 51.44729125000023,
          "velocity": 0.7874015748031497,
          "duration": 0.6524113020833298
        },
        {
          "name": "D#4",
          "midi": 63,
          "time": 51.44729125000023,
          "velocity": 0.7874015748031497,
          "duration": 0.6524113020833298
        },
        {
          "name": "A#5",
          "midi": 82,
          "time": 52.110667447916896,
          "velocity": 0.7874015748031497,
          "duration": 0.5208325520832915
        },
        {
          "name": "B5",
          "midi": 83,
          "time": 52.63150000000019,
          "velocity": 0.7874015748031497,
          "duration": 1.047147552083338
        },
        {
          "name": "A#5",
          "midi": 82,
          "time": 53.684130000000195,
          "velocity": 0.7874015748031497,
          "duration": 0.3892538020833669
        },
        {
          "name": "G5",
          "midi": 79,
          "time": 54.07886625000023,
          "velocity": 0.7874015748031497,
          "duration": 0.126096302083333
        },
        {
          "name": "G5",
          "midi": 79,
          "time": 54.210445000000234,
          "velocity": 0.7874015748031497,
          "duration": 0.25767505208333574
        },
        {
          "name": "F5",
          "midi": 77,
          "time": 54.47360250000024,
          "velocity": 0.7874015748031497,
          "duration": 0.25767505208333574
        },
        {
          "name": "G5",
          "midi": 79,
          "time": 54.47360250000024,
          "velocity": 0.7874015748031497,
          "duration": 0.25767505208333574
        },
        {
          "name": "G5",
          "midi": 79,
          "time": 54.736760000000245,
          "velocity": 0.7874015748031497,
          "duration": 1.836620052083326
        },
        {
          "name": "C5",
          "midi": 72,
          "time": 56.57886250000024,
          "velocity": 0.7874015748031497,
          "duration": 0.25767505208333574
        },
        {
          "name": "D#5",
          "midi": 75,
          "time": 56.84202000000025,
          "velocity": 0.7874015748031497,
          "duration": 0.25767505208333574
        },
        {
          "name": "F5",
          "midi": 77,
          "time": 57.10517750000025,
          "velocity": 0.7874015748031497,
          "duration": 0.25767505208333574
        },
        {
          "name": "A#5",
          "midi": 82,
          "time": 57.36833500000026,
          "velocity": 0.7874015748031497,
          "duration": 0.25767505208333574
        },
        {
          "name": "D6",
          "midi": 86,
          "time": 57.63149250000026,
          "velocity": 0.7874015748031497,
          "duration": 0.7839900520833396
        },
        {
          "name": "D6",
          "midi": 86,
          "time": 58.42096500000027,
          "velocity": 0.7874015748031497,
          "duration": 0.25767505208334995
        },
        {
          "name": "A#5",
          "midi": 82,
          "time": 58.68412250000029,
          "velocity": 0.7874015748031497,
          "duration": 0.25767505208333574
        },
        {
          "name": "D6",
          "midi": 86,
          "time": 58.9472800000003,
          "velocity": 0.7874015748031497,
          "duration": 1.047147552083338
        },
        {
          "name": "D6",
          "midi": 86,
          "time": 60.263067500000304,
          "velocity": 0.7874015748031497,
          "duration": 0.7839900520832757
        },
        {
          "name": "D6",
          "midi": 86,
          "time": 61.05254000000025,
          "velocity": 0.7874015748031497,
          "duration": 1.047147552083338
        },
        {
          "name": "D6",
          "midi": 86,
          "time": 62.10517000000026,
          "velocity": 0.7874015748031497,
          "duration": 0.5208325520833554
        },
        {
          "name": "A#5",
          "midi": 82,
          "time": 62.63148500000028,
          "velocity": 0.7874015748031497,
          "duration": 0.25767505208333574
        },
        {
          "name": "C6",
          "midi": 84,
          "time": 62.89464250000029,
          "velocity": 0.7874015748031497,
          "duration": 0.25767505208333574
        },
        {
          "name": "A#5",
          "midi": 82,
          "time": 63.15780000000029,
          "velocity": 0.7874015748031497,
          "duration": 0.25767505208332864
        },
        {
          "name": "A#5",
          "midi": 82,
          "time": 63.42095750000029,
          "velocity": 0.7874015748031497,
          "duration": 0.25767505208333574
        },
        {
          "name": "A#4",
          "midi": 70,
          "time": 63.6841150000003,
          "velocity": 0.7874015748031497,
          "duration": 0.25767505208333574
        },
        {
          "name": "C#5",
          "midi": 73,
          "time": 63.9472725000003,
          "velocity": 0.7874015748031497,
          "duration": 0.25767505208333574
        },
        {
          "name": "D#5",
          "midi": 75,
          "time": 64.2104300000003,
          "velocity": 0.7874015748031497,
          "duration": 0.25767505208332864
        },
        {
          "name": "F5",
          "midi": 77,
          "time": 64.47358750000029,
          "velocity": 0.7874015748031497,
          "duration": 0.389253802083374
        },
        {
          "name": "G5",
          "midi": 79,
          "time": 64.86832375000033,
          "velocity": 0.7874015748031497,
          "duration": 0.25767505208332864
        },
        {
          "name": "C6",
          "midi": 84,
          "time": 65.26306000000032,
          "velocity": 0.7874015748031497,
          "duration": 0.25767505208332864
        },
        {
          "name": "A#5",
          "midi": 82,
          "time": 65.52621750000031,
          "velocity": 0.7874015748031497,
          "duration": 0.25767505208335706
        },
        {
          "name": "C6",
          "midi": 84,
          "time": 65.78937500000033,
          "velocity": 0.7874015748031497,
          "duration": 0.1260963020833401
        },
        {
          "name": "A#5",
          "midi": 82,
          "time": 65.92095375000034,
          "velocity": 0.7874015748031497,
          "duration": 0.1260963020833401
        },
        {
          "name": "G5",
          "midi": 79,
          "time": 66.05253250000034,
          "velocity": 0.7874015748031497,
          "duration": 0.1260963020833401
        },
        {
          "name": "F5",
          "midi": 77,
          "time": 66.18411125000034,
          "velocity": 0.7874015748031497,
          "duration": 0.12609630208336853
        },
        {
          "name": "G5",
          "midi": 79,
          "time": 66.31569000000037,
          "velocity": 0.7874015748031497,
          "duration": 0.1260963020833401
        },
        {
          "name": "C6",
          "midi": 84,
          "time": 66.44726875000038,
          "velocity": 0.7874015748031497,
          "duration": 0.1260963020833401
        },
        {
          "name": "A#5",
          "midi": 82,
          "time": 66.57884750000038,
          "velocity": 0.7874015748031497,
          "duration": 0.1260963020833401
        },
        {
          "name": "G5",
          "midi": 79,
          "time": 66.71042625000038,
          "velocity": 0.7874015748031497,
          "duration": 0.1260963020833401
        },
        {
          "name": "F#5",
          "midi": 78,
          "time": 66.84200500000038,
          "velocity": 0.7874015748031497,
          "duration": 0.1260963020833401
        },
        {
          "name": "F5",
          "midi": 77,
          "time": 66.97358375000039,
          "velocity": 0.7874015748031497,
          "duration": 0.25767505208334285
        },
        {
          "name": "C5",
          "midi": 72,
          "time": 67.23674125000039,
          "velocity": 0.7874015748031497,
          "duration": 0.1260963020833401
        },
        {
          "name": "F5",
          "midi": 77,
          "time": 67.3683200000004,
          "velocity": 0.7874015748031497,
          "duration": 0.25767505208335706
        },
        {
          "name": "D#5",
          "midi": 75,
          "time": 67.63147750000041,
          "velocity": 0.7874015748031497,
          "duration": 1.1787263020834473
        },
        {
          "name": "C6",
          "midi": 84,
          "time": 68.81568625000052,
          "velocity": 0.7874015748031497,
          "duration": 0.1260963020833401
        },
        {
          "name": "C5",
          "midi": 72,
          "time": 68.94726500000053,
          "velocity": 0.7874015748031497,
          "duration": 0.038377135416666874
        },
        {
          "name": "G4",
          "midi": 67,
          "time": 72.36831250000053,
          "velocity": 0.7874015748031497,
          "duration": 0.25767505208332864
        },
        {
          "name": "A#4",
          "midi": 70,
          "time": 72.63147000000052,
          "velocity": 0.7874015748031497,
          "duration": 1.047147552083345
        },
        {
          "name": "D#5",
          "midi": 75,
          "time": 74.21041500000052,
          "velocity": 0.7874015748031497,
          "duration": 0.25767505208332864
        },
        {
          "name": "G4",
          "midi": 67,
          "time": 74.47357250000051,
          "velocity": 0.7874015748031497,
          "duration": 0.25767505208332864
        },
        {
          "name": "A#4",
          "midi": 70,
          "time": 74.7367300000005,
          "velocity": 0.7874015748031497,
          "duration": 0.25767505208332864
        },
        {
          "name": "F4",
          "midi": 65,
          "time": 74.7367300000005,
          "velocity": 0.7874015748031497,
          "duration": 0.25767505208332864
        },
        {
          "name": "F4",
          "midi": 65,
          "time": 74.9998875000005,
          "velocity": 0.7874015748031497,
          "duration": 0.25767505208332864
        },
        {
          "name": "A#4",
          "midi": 70,
          "time": 74.9998875000005,
          "velocity": 0.7874015748031497,
          "duration": 0.25767505208332864
        },
        {
          "name": "G#3",
          "midi": 56,
          "time": 75.5262025000005,
          "velocity": 0.7874015748031497,
          "duration": 0.25767505208332864
        },
        {
          "name": "G#3",
          "midi": 56,
          "time": 75.79484244791715,
          "velocity": 0.7874015748031497,
          "duration": 0.5208325520833341
        },
        {
          "name": "D#4",
          "midi": 63,
          "time": 76.05251750000048,
          "velocity": 0.7874015748031497,
          "duration": 0.5208325520833341
        },
        {
          "name": "G#4",
          "midi": 68,
          "time": 76.31567500000048,
          "velocity": 0.7874015748031497,
          "duration": 0.3892538020833314
        },
        {
          "name": "A#3",
          "midi": 58,
          "time": 76.57883250000047,
          "velocity": 0.7874015748031497,
          "duration": 0.25767505208334285
        },
        {
          "name": "D#4",
          "midi": 63,
          "time": 76.84199000000048,
          "velocity": 0.7874015748031497,
          "duration": 0.25767505208332864
        },
        {
          "name": "A#4",
          "midi": 70,
          "time": 77.10514750000047,
          "velocity": 0.7874015748031497,
          "duration": 0.25767505208332864
        },
        {
          "name": "G#4",
          "midi": 68,
          "time": 77.36830500000046,
          "velocity": 0.7874015748031497,
          "duration": 0.5208325520833341
        },
        {
          "name": "G4",
          "midi": 67,
          "time": 78.15777750000046,
          "velocity": 0.7874015748031497,
          "duration": 0.25767505208332864
        },
        {
          "name": "D#5",
          "midi": 75,
          "time": 78.42093500000045,
          "velocity": 0.7874015748031497,
          "duration": 0.25767505208334285
        },
        {
          "name": "A#4",
          "midi": 70,
          "time": 78.68409250000046,
          "velocity": 0.7874015748031497,
          "duration": 0.25767505208332864
        },
        {
          "name": "A#4",
          "midi": 70,
          "time": 79.47356500000046,
          "velocity": 0.7874015748031497,
          "duration": 0.25767505208332864
        },
        {
          "name": "F4",
          "midi": 65,
          "time": 79.47356500000046,
          "velocity": 0.7874015748031497,
          "duration": 0.25767505208332864
        },
        {
          "name": "D#4",
          "midi": 63,
          "time": 79.73672250000045,
          "velocity": 0.7874015748031497,
          "duration": 0.25767505208332864
        },
        {
          "name": "G#4",
          "midi": 68,
          "time": 79.73672250000045,
          "velocity": 0.7874015748031497,
          "duration": 0.25767505208332864
        },
        {
          "name": "C#5",
          "midi": 73,
          "time": 80.26303750000045,
          "velocity": 0.7874015748031497,
          "duration": 0.25767505208332864
        },
        {
          "name": "C5",
          "midi": 72,
          "time": 80.52619500000044,
          "velocity": 0.7874015748031497,
          "duration": 0.25767505208332864
        },
        {
          "name": "F4",
          "midi": 65,
          "time": 80.78935250000043,
          "velocity": 0.7874015748031497,
          "duration": 0.5208325520833341
        },
        {
          "name": "A#4",
          "midi": 70,
          "time": 81.31566750000043,
          "velocity": 0.7874015748031497,
          "duration": 0.25767505208332864
        },
        {
          "name": "F4",
          "midi": 65,
          "time": 81.57882500000042,
          "velocity": 0.7874015748031497,
          "duration": 0.25767505208334285
        },
        {
          "name": "A#4",
          "midi": 70,
          "time": 81.84198250000043,
          "velocity": 0.7874015748031497,
          "duration": 0.25767505208332864
        },
        {
          "name": "C4",
          "midi": 60,
          "time": 82.10514000000042,
          "velocity": 0.7874015748031497,
          "duration": 0.5208325520833341
        },
        {
          "name": "F5",
          "midi": 77,
          "time": 82.63145500000041,
          "velocity": 0.7874015748031497,
          "duration": 0.25767505208334285
        },
        {
          "name": "F4",
          "midi": 65,
          "time": 83.15777000000043,
          "velocity": 0.7874015748031497,
          "duration": 0.25767505208332864
        },
        {
          "name": "A#4",
          "midi": 70,
          "time": 83.15777000000043,
          "velocity": 0.7874015748031497,
          "duration": 0.25767505208332864
        },
        {
          "name": "A#4",
          "midi": 70,
          "time": 83.42092750000042,
          "velocity": 0.7874015748031497,
          "duration": 0.5208325520833341
        },
        {
          "name": "F4",
          "midi": 65,
          "time": 83.42092750000042,
          "velocity": 0.7874015748031497,
          "duration": 0.5208325520833341
        },
        {
          "name": "D#4",
          "midi": 63,
          "time": 84.21040000000042,
          "velocity": 0.7874015748031497,
          "duration": 1.8366200520833331
        },
        {
          "name": "A#3",
          "midi": 58,
          "time": 86.05250250000041,
          "velocity": 0.7874015748031497,
          "duration": 0.25767505208332864
        },
        {
          "name": "C4",
          "midi": 60,
          "time": 86.3156600000004,
          "velocity": 0.7874015748031497,
          "duration": 0.5208325520833341
        },
        {
          "name": "D#5",
          "midi": 75,
          "time": 86.8419750000004,
          "velocity": 0.7874015748031497,
          "duration": 0.25767505208332864
        },
        {
          "name": "G4",
          "midi": 67,
          "time": 87.1051325000004,
          "velocity": 0.7874015748031497,
          "duration": 0.25767505208332864
        },
        {
          "name": "A#4",
          "midi": 70,
          "time": 87.36829000000039,
          "velocity": 0.7874015748031497,
          "duration": 0.25767505208332864
        },
        {
          "name": "F4",
          "midi": 65,
          "time": 87.36829000000039,
          "velocity": 0.7874015748031497,
          "duration": 0.25767505208332864
        },
        {
          "name": "F4",
          "midi": 65,
          "time": 87.63144750000038,
          "velocity": 0.7874015748031497,
          "duration": 0.5208325520833341
        },
        {
          "name": "D#5",
          "midi": 75,
          "time": 89.21039250000038,
          "velocity": 0.7874015748031497,
          "duration": 0.25767505208334285
        },
        {
          "name": "A#4",
          "midi": 70,
          "time": 89.47355000000039,
          "velocity": 0.7874015748031497,
          "duration": 0.25767505208334285
        },
        {
          "name": "F4",
          "midi": 65,
          "time": 89.73670750000039,
          "velocity": 0.7874015748031497,
          "duration": 0.25767505208334285
        },
        {
          "name": "D#5",
          "midi": 75,
          "time": 89.9998650000004,
          "velocity": 0.7874015748031497,
          "duration": 0.25767505208332864
        },
        {
          "name": "A#4",
          "midi": 70,
          "time": 89.9998650000004,
          "velocity": 0.7874015748031497,
          "duration": 0.25767505208332864
        },
        {
          "name": "G4",
          "midi": 67,
          "time": 90.26302250000039,
          "velocity": 0.7874015748031497,
          "duration": 0.25767505208332864
        },
        {
          "name": "C4",
          "midi": 60,
          "time": 90.52618000000038,
          "velocity": 0.7874015748031497,
          "duration": 0.5208325520833341
        },
        {
          "name": "A#4",
          "midi": 70,
          "time": 91.05249500000038,
          "velocity": 0.7874015748031497,
          "duration": 0.25767505208332864
        },
        {
          "name": "G4",
          "midi": 67,
          "time": 91.05249500000038,
          "velocity": 0.7874015748031497,
          "duration": 0.25767505208332864
        },
        {
          "name": "G4",
          "midi": 67,
          "time": 91.31565250000037,
          "velocity": 0.7874015748031497,
          "duration": 0.25767505208332864
        },
        {
          "name": "F4",
          "midi": 65,
          "time": 91.57881000000036,
          "velocity": 0.7874015748031497,
          "duration": 0.25767505208332864
        },
        {
          "name": "A#4",
          "midi": 70,
          "time": 91.57881000000036,
          "velocity": 0.7874015748031497,
          "duration": 0.25767505208332864
        },
        {
          "name": "A#4",
          "midi": 70,
          "time": 91.84196750000035,
          "velocity": 0.7874015748031497,
          "duration": 0.5208325520833341
        },
        {
          "name": "F4",
          "midi": 65,
          "time": 91.84196750000035,
          "velocity": 0.7874015748031497,
          "duration": 0.5208325520833341
        },
        {
          "name": "G#4",
          "midi": 68,
          "time": 92.36828250000035,
          "velocity": 0.7874015748031497,
          "duration": 0.5208325520833341
        },
        {
          "name": "D#4",
          "midi": 63,
          "time": 92.36828250000035,
          "velocity": 0.7874015748031497,
          "duration": 0.5208325520833341
        },
        {
          "name": "A#3",
          "midi": 58,
          "time": 92.89459750000034,
          "velocity": 0.7874015748031497,
          "duration": 0.25767505208334285
        },
        {
          "name": "D#4",
          "midi": 63,
          "time": 93.15775500000035,
          "velocity": 0.7874015748031497,
          "duration": 0.25767505208332864
        },
        {
          "name": "F4",
          "midi": 65,
          "time": 93.42091250000034,
          "velocity": 0.7874015748031497,
          "duration": 0.25767505208334285
        },
        {
          "name": "A#4",
          "midi": 70,
          "time": 93.68407000000035,
          "velocity": 0.7874015748031497,
          "duration": 0.25767505208332864
        },
        {
          "name": "D#5",
          "midi": 75,
          "time": 93.94722750000034,
          "velocity": 0.7874015748031497,
          "duration": 0.7839900520833396
        },
        {
          "name": "A#4",
          "midi": 70,
          "time": 93.94722750000034,
          "velocity": 0.7874015748031497,
          "duration": 0.7839900520833396
        },
        {
          "name": "C4",
          "midi": 60,
          "time": 94.73670000000034,
          "velocity": 0.7874015748031497,
          "duration": 0.25767505208332864
        },
        {
          "name": "G4",
          "midi": 67,
          "time": 94.99985750000033,
          "velocity": 0.7874015748031497,
          "duration": 0.25767505208332864
        },
        {
          "name": "D#5",
          "midi": 75,
          "time": 95.26301500000032,
          "velocity": 0.7874015748031497,
          "duration": 0.25767505208334285
        },
        {
          "name": "G4",
          "midi": 67,
          "time": 95.52617250000033,
          "velocity": 0.7874015748031497,
          "duration": 0.25767505208332864
        },
        {
          "name": "D5",
          "midi": 74,
          "time": 95.78933000000032,
          "velocity": 0.7874015748031497,
          "duration": 0.25767505208332864
        },
        {
          "name": "A#4",
          "midi": 70,
          "time": 95.78933000000032,
          "velocity": 0.7874015748031497,
          "duration": 0.25767505208332864
        },
        {
          "name": "F4",
          "midi": 65,
          "time": 95.78933000000032,
          "velocity": 0.7874015748031497,
          "duration": 0.25767505208332864
        },
        {
          "name": "F4",
          "midi": 65,
          "time": 96.05248750000031,
          "velocity": 0.7874015748031497,
          "duration": 0.5208325520833341
        },
        {
          "name": "A#4",
          "midi": 70,
          "time": 96.31564500000032,
          "velocity": 0.7874015748031497,
          "duration": 0.25767505208332864
        },
        {
          "name": "G#4",
          "midi": 68,
          "time": 96.57880250000031,
          "velocity": 0.7874015748031497,
          "duration": 0.5208325520833341
        },
        {
          "name": "D#4",
          "midi": 63,
          "time": 96.57880250000031,
          "velocity": 0.7874015748031497,
          "duration": 0.5208325520833341
        },
        {
          "name": "D#5",
          "midi": 75,
          "time": 97.1051175000003,
          "velocity": 0.7874015748031497,
          "duration": 0.7839900520833396
        },
        {
          "name": "A#4",
          "midi": 70,
          "time": 97.1051175000003,
          "velocity": 0.7874015748031497,
          "duration": 0.7839900520833396
        },
        {
          "name": "G#4",
          "midi": 68,
          "time": 97.8945900000003,
          "velocity": 0.7874015748031497,
          "duration": 0.25767505208332864
        },
        {
          "name": "G4",
          "midi": 67,
          "time": 98.1577475000003,
          "velocity": 0.7874015748031497,
          "duration": 0.25767505208332864
        },
        {
          "name": "A#4",
          "midi": 70,
          "time": 98.42090500000029,
          "velocity": 0.7874015748031497,
          "duration": 0.25767505208334285
        },
        {
          "name": "G4",
          "midi": 67,
          "time": 98.6840625000003,
          "velocity": 0.7874015748031497,
          "duration": 0.25767505208332864
        },
        {
          "name": "C4",
          "midi": 60,
          "time": 98.94722000000029,
          "velocity": 0.7874015748031497,
          "duration": 0.5208325520833341
        },
        {
          "name": "D#5",
          "midi": 75,
          "time": 99.47353500000028,
          "velocity": 0.7874015748031497,
          "duration": 0.25767505208334285
        },
        {
          "name": "G4",
          "midi": 67,
          "time": 99.73669250000029,
          "velocity": 0.7874015748031497,
          "duration": 0.25767505208332864
        },
        {
          "name": "D5",
          "midi": 74,
          "time": 99.99985000000028,
          "velocity": 0.7874015748031497,
          "duration": 0.25767505208332864
        },
        {
          "name": "A#4",
          "midi": 70,
          "time": 99.99985000000028,
          "velocity": 0.7874015748031497,
          "duration": 0.25767505208332864
        },
        {
          "name": "F4",
          "midi": 65,
          "time": 99.99985000000028,
          "velocity": 0.7874015748031497,
          "duration": 0.25767505208332864
        },
        {
          "name": "F4",
          "midi": 65,
          "time": 100.26300750000027,
          "velocity": 0.7874015748031497,
          "duration": 0.25767505208332864
        },
        {
          "name": "A#4",
          "midi": 70,
          "time": 100.26300750000027,
          "velocity": 0.7874015748031497,
          "duration": 0.25767505208332864
        },
        {
          "name": "G#4",
          "midi": 68,
          "time": 100.78932250000027,
          "velocity": 0.7874015748031497,
          "duration": 0.25767505208332864
        },
        {
          "name": "D#4",
          "midi": 63,
          "time": 100.78932250000027,
          "velocity": 0.7874015748031497,
          "duration": 0.25767505208332864
        },
        {
          "name": "G#4",
          "midi": 68,
          "time": 101.05248000000026,
          "velocity": 0.7874015748031497,
          "duration": 0.7839900520833396
        },
        {
          "name": "D#4",
          "midi": 63,
          "time": 101.05248000000026,
          "velocity": 0.7874015748031497,
          "duration": 0.7839900520833396
        },
        {
          "name": "F4",
          "midi": 65,
          "time": 101.84195250000026,
          "velocity": 0.7874015748031497,
          "duration": 0.25767505208334285
        },
        {
          "name": "A#4",
          "midi": 70,
          "time": 102.10511000000027,
          "velocity": 0.7874015748031497,
          "duration": 0.25767505208332864
        },
        {
          "name": "C5",
          "midi": 72,
          "time": 102.36826750000026,
          "velocity": 0.7874015748031497,
          "duration": 0.25767505208332864
        },
        {
          "name": "A#4",
          "midi": 70,
          "time": 102.63142500000025,
          "velocity": 0.7874015748031497,
          "duration": 0.25767505208332864
        },
        {
          "name": "G4",
          "midi": 67,
          "time": 102.89458250000024,
          "velocity": 0.7874015748031497,
          "duration": 0.25767505208332864
        },
        {
          "name": "D#5",
          "midi": 75,
          "time": 103.15774000000023,
          "velocity": 0.7874015748031497,
          "duration": 0.1260963020833401
        },
        {
          "name": "D#5",
          "midi": 75,
          "time": 103.28931875000023,
          "velocity": 0.7874015748031497,
          "duration": 0.1260963020833401
        },
        {
          "name": "D#5",
          "midi": 75,
          "time": 103.42089750000024,
          "velocity": 0.7874015748031497,
          "duration": 0.25767505208332864
        },
        {
          "name": "D#5",
          "midi": 75,
          "time": 103.68405500000023,
          "velocity": 0.7874015748031497,
          "duration": 0.3892538020833314
        },
        {
          "name": "D#5",
          "midi": 75,
          "time": 104.07879125000022,
          "velocity": 0.7874015748031497,
          "duration": 0.25767505208334285
        },
        {
          "name": "F5",
          "midi": 77,
          "time": 104.34194875000023,
          "velocity": 0.7874015748031497,
          "duration": 0.1260963020833401
        },
        {
          "name": "F5",
          "midi": 77,
          "time": 104.47352750000023,
          "velocity": 0.7874015748031497,
          "duration": 0.25767505208332864
        },
        {
          "name": "C5",
          "midi": 72,
          "time": 104.73668500000022,
          "velocity": 0.7874015748031497,
          "duration": 1.047147552083473
        },
        {
          "name": "A#5",
          "midi": 82,
          "time": 106.31563000000035,
          "velocity": 0.7874015748031497,
          "duration": 0.5208325520833483
        },
        {
          "name": "A#5",
          "midi": 82,
          "time": 107.36826000000038,
          "velocity": 0.7874015748031497,
          "duration": 0.26863994791668233
        },
        {
          "name": "G5",
          "midi": 79,
          "time": 107.6314175000004,
          "velocity": 0.7874015748031497,
          "duration": 0.25767505208332864
        },
        {
          "name": "F5",
          "midi": 77,
          "time": 107.89457500000039,
          "velocity": 0.7874015748031497,
          "duration": 0.25767505208332864
        },
        {
          "name": "F5",
          "midi": 77,
          "time": 108.15773250000038,
          "velocity": 0.7874015748031497,
          "duration": 0.25767505208332864
        },
        {
          "name": "F5",
          "midi": 77,
          "time": 108.42089000000037,
          "velocity": 0.7874015748031497,
          "duration": 0.25767505208335706
        },
        {
          "name": "F#5",
          "midi": 78,
          "time": 108.68404750000039,
          "velocity": 0.7874015748031497,
          "duration": 1.5734625520835266
        },
        {
          "name": "F5",
          "midi": 77,
          "time": 110.26299250000058,
          "velocity": 0.7874015748031497,
          "duration": 0.5208325520833625
        },
        {
          "name": "C5",
          "midi": 72,
          "time": 110.7893075000006,
          "velocity": 0.7874015748031497,
          "duration": 0.25767505208332864
        },
        {
          "name": "F5",
          "midi": 77,
          "time": 111.0524650000006,
          "velocity": 0.7874015748031497,
          "duration": 0.2576750520833144
        },
        {
          "name": "G5",
          "midi": 79,
          "time": 111.31562250000057,
          "velocity": 0.7874015748031497,
          "duration": 0.25767505208332864
        },
        {
          "name": "C6",
          "midi": 84,
          "time": 111.57878000000056,
          "velocity": 0.7874015748031497,
          "duration": 0.25767505208332864
        },
        {
          "name": "C6",
          "midi": 84,
          "time": 111.84193750000055,
          "velocity": 0.7874015748031497,
          "duration": 0.25767505208332864
        },
        {
          "name": "D#6",
          "midi": 87,
          "time": 112.10509500000055,
          "velocity": 0.7874015748031497,
          "duration": 0.25767505208332864
        },
        {
          "name": "F6",
          "midi": 89,
          "time": 112.36825250000054,
          "velocity": 0.7874015748031497,
          "duration": 0.25767505208332864
        },
        {
          "name": "F#6",
          "midi": 90,
          "time": 112.63141000000053,
          "velocity": 0.7874015748031497,
          "duration": 0.915568802083456
        },
        {
          "name": "F#6",
          "midi": 90,
          "time": 113.55246125000065,
          "velocity": 0.7874015748031497,
          "duration": 0.3892538020833456
        },
        {
          "name": "D#6",
          "midi": 87,
          "time": 113.94719750000066,
          "velocity": 0.7874015748031497,
          "duration": 0.25767505208332864
        },
        {
          "name": "F6",
          "midi": 89,
          "time": 114.21035500000065,
          "velocity": 0.7874015748031497,
          "duration": 0.25767505208332864
        },
        {
          "name": "F6",
          "midi": 89,
          "time": 114.47351250000064,
          "velocity": 0.7874015748031497,
          "duration": 0.25767505208332864
        },
        {
          "name": "D#6",
          "midi": 87,
          "time": 114.73667000000063,
          "velocity": 0.7874015748031497,
          "duration": 0.25767505208335706
        },
        {
          "name": "D#6",
          "midi": 87,
          "time": 114.99982750000065,
          "velocity": 0.7874015748031497,
          "duration": 0.25767505208332864
        },
        {
          "name": "C6",
          "midi": 84,
          "time": 115.26298500000064,
          "velocity": 0.7874015748031497,
          "duration": 0.3892538020833314
        },
        {
          "name": "D#6",
          "midi": 87,
          "time": 115.65772125000063,
          "velocity": 0.7874015748031497,
          "duration": 0.1260963020833401
        },
        {
          "name": "C6",
          "midi": 84,
          "time": 115.78930000000064,
          "velocity": 0.7874015748031497,
          "duration": 1.047147552083345
        },
        {
          "name": "C6",
          "midi": 84,
          "time": 116.84193000000064,
          "velocity": 0.7874015748031497,
          "duration": 0.7730251562500143
        },
        {
          "name": "C6",
          "midi": 84,
          "time": 117.63140250000066,
          "velocity": 0.7874015748031497,
          "duration": 0.24671015625000337
        },
        {
          "name": "C6",
          "midi": 84,
          "time": 117.89456000000067,
          "velocity": 0.7874015748031497,
          "duration": 0.24671015625001758
        },
        {
          "name": "C6",
          "midi": 84,
          "time": 118.15771750000069,
          "velocity": 0.7874015748031497,
          "duration": 0.24671015625000337
        },
        {
          "name": "C6",
          "midi": 84,
          "time": 118.42087500000069,
          "velocity": 0.7874015748031497,
          "duration": 0.24671015625001758
        },
        {
          "name": "C6",
          "midi": 84,
          "time": 118.68403250000071,
          "velocity": 0.7874015748031497,
          "duration": 0.25767505208332864
        },
        {
          "name": "F#5",
          "midi": 78,
          "time": 118.9471900000007,
          "velocity": 0.7874015748031497,
          "duration": 1.047147552083345
        },
        {
          "name": "A5",
          "midi": 81,
          "time": 121.0524500000007,
          "velocity": 0.7874015748031497,
          "duration": 0.0822367187500106
        },
        {
          "name": "C#6",
          "midi": 85,
          "time": 121.0524500000007,
          "velocity": 0.7874015748031497,
          "duration": 0.0822367187500106
        },
        {
          "name": "E5",
          "midi": 76,
          "time": 121.0524500000007,
          "velocity": 0.7874015748031497,
          "duration": 0.0822367187500106
        },
        {
          "name": "G#5",
          "midi": 80,
          "time": 121.12372182291737,
          "velocity": 0.7874015748031497,
          "duration": 0.08223671874999638
        },
        {
          "name": "C6",
          "midi": 84,
          "time": 121.12372182291737,
          "velocity": 0.7874015748031497,
          "duration": 0.08223671874999638
        },
        {
          "name": "D5",
          "midi": 74,
          "time": 121.20047609375071,
          "velocity": 0.7874015748031497,
          "duration": 0.08223671874999638
        },
        {
          "name": "F#5",
          "midi": 78,
          "time": 121.27723036458404,
          "velocity": 0.7874015748031497,
          "duration": 0.08223671874999638
        },
        {
          "name": "C#5",
          "midi": 73,
          "time": 121.27723036458404,
          "velocity": 0.7874015748031497,
          "duration": 0.08223671874999638
        },
        {
          "name": "A5",
          "midi": 81,
          "time": 121.35398463541738,
          "velocity": 0.7874015748031497,
          "duration": 0.08223671874999638
        },
        {
          "name": "E5",
          "midi": 76,
          "time": 121.43073890625071,
          "velocity": 0.7874015748031497,
          "duration": 0.08223671874999638
        },
        {
          "name": "B4",
          "midi": 71,
          "time": 121.43073890625071,
          "velocity": 0.7874015748031497,
          "duration": 0.08223671874999638
        },
        {
          "name": "G5",
          "midi": 79,
          "time": 121.50749317708404,
          "velocity": 0.7874015748031497,
          "duration": 0.08223671874999638
        },
        {
          "name": "D5",
          "midi": 74,
          "time": 121.58424744791738,
          "velocity": 0.7874015748031497,
          "duration": 0.08223671874999638
        },
        {
          "name": "A4",
          "midi": 69,
          "time": 121.58424744791738,
          "velocity": 0.7874015748031497,
          "duration": 0.08223671874999638
        },
        {
          "name": "F5",
          "midi": 77,
          "time": 121.66100171875071,
          "velocity": 0.7874015748031497,
          "duration": 0.08223671874999638
        },
        {
          "name": "E5",
          "midi": 76,
          "time": 121.73775598958404,
          "velocity": 0.7874015748031497,
          "duration": 0.08223671874999638
        },
        {
          "name": "G4",
          "midi": 67,
          "time": 121.73775598958404,
          "velocity": 0.7874015748031497,
          "duration": 0.08223671874999638
        },
        {
          "name": "D#5",
          "midi": 75,
          "time": 121.81451026041738,
          "velocity": 0.7874015748031497,
          "duration": 0.08223671874999638
        },
        {
          "name": "F#4",
          "midi": 66,
          "time": 121.81451026041738,
          "velocity": 0.7874015748031497,
          "duration": 0.08223671874999638
        },
        {
          "name": "F4",
          "midi": 65,
          "time": 121.89126453125071,
          "velocity": 0.7874015748031497,
          "duration": 0.08223671874999638
        },
        {
          "name": "C#5",
          "midi": 73,
          "time": 121.96801880208405,
          "velocity": 0.7874015748031497,
          "duration": 0.08223671874999638
        },
        {
          "name": "C5",
          "midi": 72,
          "time": 122.03380817708404,
          "velocity": 0.7874015748031497,
          "duration": 0.0822367187500106
        },
        {
          "name": "D#4",
          "midi": 63,
          "time": 122.03380817708404,
          "velocity": 0.7874015748031497,
          "duration": 0.0822367187500106
        },
        {
          "name": "C5",
          "midi": 72,
          "time": 122.10508000000071,
          "velocity": 0.7874015748031497,
          "duration": 1.047147552083345
        },
        {
          "name": "G#4",
          "midi": 68,
          "time": 122.10508000000071,
          "velocity": 0.7874015748031497,
          "duration": 1.047147552083345
        },
        {
          "name": "D#4",
          "midi": 63,
          "time": 122.10508000000071,
          "velocity": 0.7874015748031497,
          "duration": 1.047147552083345
        },
        {
          "name": "F4",
          "midi": 65,
          "time": 123.68950744791739,
          "velocity": 0.7874015748031497,
          "duration": 0.07675427083333375
        },
        {
          "name": "F#4",
          "midi": 66,
          "time": 123.75529682291739,
          "velocity": 0.7874015748031497,
          "duration": 0.07675427083333375
        },
        {
          "name": "G4",
          "midi": 67,
          "time": 123.82656864583406,
          "velocity": 0.7874015748031497,
          "duration": 0.07675427083333375
        },
        {
          "name": "G#4",
          "midi": 68,
          "time": 123.90332291666739,
          "velocity": 0.7874015748031497,
          "duration": 0.07675427083333375
        },
        {
          "name": "A4",
          "midi": 69,
          "time": 123.98007718750073,
          "velocity": 0.7874015748031497,
          "duration": 0.07675427083333375
        },
        {
          "name": "A#4",
          "midi": 70,
          "time": 124.05683145833406,
          "velocity": 0.7874015748031497,
          "duration": 0.07675427083333375
        },
        {
          "name": "B4",
          "midi": 71,
          "time": 124.12810328125073,
          "velocity": 0.7874015748031497,
          "duration": 0.07675427083333375
        },
        {
          "name": "C5",
          "midi": 72,
          "time": 124.21034000000073,
          "velocity": 0.7874015748031497,
          "duration": 1.5734625520833276
        },
        {
          "name": "D5",
          "midi": 74,
          "time": 125.78928500000072,
          "velocity": 0.7874015748031497,
          "duration": 2.0997775520835376
        },
        {
          "name": "F4",
          "midi": 65,
          "time": 125.78928500000072,
          "velocity": 0.7874015748031497,
          "duration": 2.0997775520835376
        },
        {
          "name": "D5",
          "midi": 74,
          "time": 126.31560000000079,
          "velocity": 0.7874015748031497,
          "duration": 1.5734625520834697
        },
        {
          "name": "D#5",
          "midi": 75,
          "time": 127.89454500000092,
          "velocity": 0.7874015748031497,
          "duration": 0.34539421875000187
        },
        {
          "name": "D#5",
          "midi": 75,
          "time": 128.23993921875092,
          "velocity": 0.7874015748031497,
          "duration": 0.16995588541666962
        },
        {
          "name": "B4",
          "midi": 71,
          "time": 128.42086000000094,
          "velocity": 0.7874015748031497,
          "duration": 1.5734625520835266
        },
        {
          "name": "B5",
          "midi": 83,
          "time": 129.99980500000115,
          "velocity": 0.7874015748031497,
          "duration": 2.0997775520835944
        },
        {
          "name": "D5",
          "midi": 74,
          "time": 129.99980500000115,
          "velocity": 0.7874015748031497,
          "duration": 2.0997775520835944
        },
        {
          "name": "G4",
          "midi": 67,
          "time": 129.99980500000115,
          "velocity": 0.7874015748031497,
          "duration": 2.0997775520835944
        },
        {
          "name": "D#5",
          "midi": 75,
          "time": 132.10506500000142,
          "velocity": 0.7874015748031497,
          "duration": 0.5208325520833341
        },
        {
          "name": "F#5",
          "midi": 78,
          "time": 132.63138000000143,
          "velocity": 0.7874015748031497,
          "duration": 1.0471475520834304
        },
        {
          "name": "F5",
          "midi": 77,
          "time": 133.68401000000154,
          "velocity": 0.7874015748031497,
          "duration": 0.520832552083391
        },
        {
          "name": "D#5",
          "midi": 75,
          "time": 134.2103250000016,
          "velocity": 0.7874015748031497,
          "duration": 0.5208325520833341
        },
        {
          "name": "F5",
          "midi": 77,
          "time": 134.73664000000161,
          "velocity": 0.7874015748031497,
          "duration": 0.5208325520834194
        },
        {
          "name": "C5",
          "midi": 72,
          "time": 135.2629550000017,
          "velocity": 0.7874015748031497,
          "duration": 0.02741223958332739
        },
        {
          "name": "G#4",
          "midi": 68,
          "time": 135.2629550000017,
          "velocity": 0.7874015748031497,
          "duration": 0.02741223958332739
        },
        {
          "name": "F5",
          "midi": 77,
          "time": 140.7947449479184,
          "velocity": 0.7874015748031497,
          "duration": 0.1260963020833401
        },
        {
          "name": "G5",
          "midi": 79,
          "time": 140.92084125000173,
          "velocity": 0.7874015748031497,
          "duration": 0.1260963020833401
        },
        {
          "name": "C6",
          "midi": 84,
          "time": 141.05242000000175,
          "velocity": 0.7874015748031497,
          "duration": 0.1260963020833401
        },
        {
          "name": "A#5",
          "midi": 82,
          "time": 141.18399875000176,
          "velocity": 0.7874015748031497,
          "duration": 0.1260963020833401
        },
        {
          "name": "C6",
          "midi": 84,
          "time": 141.31557750000178,
          "velocity": 0.7874015748031497,
          "duration": 0.1260963020833401
        },
        {
          "name": "A#5",
          "midi": 82,
          "time": 141.4471562500018,
          "velocity": 0.7874015748031497,
          "duration": 0.1260963020833401
        },
        {
          "name": "C6",
          "midi": 84,
          "time": 141.5787350000018,
          "velocity": 0.7874015748031497,
          "duration": 0.1260963020833401
        },
        {
          "name": "F5",
          "midi": 77,
          "time": 141.71031375000183,
          "velocity": 0.7874015748031497,
          "duration": 0.1260963020833401
        },
        {
          "name": "G5",
          "midi": 79,
          "time": 141.84189250000185,
          "velocity": 0.7874015748031497,
          "duration": 0.1260963020833401
        },
        {
          "name": "C6",
          "midi": 84,
          "time": 141.97347125000186,
          "velocity": 0.7874015748031497,
          "duration": 0.1260963020833401
        },
        {
          "name": "A#5",
          "midi": 82,
          "time": 142.10505000000188,
          "velocity": 0.7874015748031497,
          "duration": 0.1260963020833401
        },
        {
          "name": "G5",
          "midi": 79,
          "time": 142.2366287500019,
          "velocity": 0.7874015748031497,
          "duration": 0.1260963020833401
        },
        {
          "name": "F5",
          "midi": 77,
          "time": 142.3736899479186,
          "velocity": 0.7874015748031497,
          "duration": 0.1260963020833401
        },
        {
          "name": "F5",
          "midi": 77,
          "time": 142.49978625000193,
          "velocity": 0.7874015748031497,
          "duration": 0.1260963020833401
        },
        {
          "name": "D#5",
          "midi": 75,
          "time": 142.63136500000195,
          "velocity": 0.7874015748031497,
          "duration": 0.1260963020833401
        },
        {
          "name": "C5",
          "midi": 72,
          "time": 142.76294375000197,
          "velocity": 0.7874015748031497,
          "duration": 0.1260963020833401
        },
        {
          "name": "D#5",
          "midi": 75,
          "time": 142.89452250000198,
          "velocity": 0.7874015748031497,
          "duration": 0.1260963020833401
        },
        {
          "name": "F5",
          "midi": 77,
          "time": 143.026101250002,
          "velocity": 0.7874015748031497,
          "duration": 0.1260963020833401
        },
        {
          "name": "G5",
          "midi": 79,
          "time": 143.420837500002,
          "velocity": 0.7874015748031497,
          "duration": 0.7839900520833396
        },
        {
          "name": "C6",
          "midi": 84,
          "time": 145.262940000002,
          "velocity": 0.7874015748031497,
          "duration": 0.1260963020833401
        },
        {
          "name": "A#5",
          "midi": 82,
          "time": 145.39451875000202,
          "velocity": 0.7874015748031497,
          "duration": 0.1260963020833401
        },
        {
          "name": "C6",
          "midi": 84,
          "time": 145.52609750000204,
          "velocity": 0.7874015748031497,
          "duration": 0.1260963020833401
        },
        {
          "name": "D6",
          "midi": 86,
          "time": 145.65767625000205,
          "velocity": 0.7874015748031497,
          "duration": 0.1260963020833401
        },
        {
          "name": "C6",
          "midi": 84,
          "time": 145.78925500000207,
          "velocity": 0.7874015748031497,
          "duration": 0.1260963020833401
        },
        {
          "name": "G5",
          "midi": 79,
          "time": 145.9208337500021,
          "velocity": 0.7874015748031497,
          "duration": 0.1260963020833401
        },
        {
          "name": "A#5",
          "midi": 82,
          "time": 146.0524125000021,
          "velocity": 0.7874015748031497,
          "duration": 0.1260963020833401
        },
        {
          "name": "C6",
          "midi": 84,
          "time": 146.18399125000212,
          "velocity": 0.7874015748031497,
          "duration": 0.1260963020833401
        },
        {
          "name": "D6",
          "midi": 86,
          "time": 146.31557000000214,
          "velocity": 0.7874015748031497,
          "duration": 0.1260963020833401
        },
        {
          "name": "C6",
          "midi": 84,
          "time": 146.44714875000216,
          "velocity": 0.7874015748031497,
          "duration": 0.1260963020833401
        },
        {
          "name": "G5",
          "midi": 79,
          "time": 146.57872750000217,
          "velocity": 0.7874015748031497,
          "duration": 0.1260963020833401
        },
        {
          "name": "A#5",
          "midi": 82,
          "time": 146.7103062500022,
          "velocity": 0.7874015748031497,
          "duration": 0.1260963020833401
        },
        {
          "name": "C6",
          "midi": 84,
          "time": 146.8418850000022,
          "velocity": 0.7874015748031497,
          "duration": 0.1260963020833401
        },
        {
          "name": "D6",
          "midi": 86,
          "time": 146.97346375000222,
          "velocity": 0.7874015748031497,
          "duration": 0.1260963020833401
        },
        {
          "name": "C6",
          "midi": 84,
          "time": 147.10504250000224,
          "velocity": 0.7874015748031497,
          "duration": 0.1260963020833401
        },
        {
          "name": "G5",
          "midi": 79,
          "time": 147.23662125000226,
          "velocity": 0.7874015748031497,
          "duration": 0.1260963020833401
        },
        {
          "name": "A#5",
          "midi": 82,
          "time": 147.37368244791892,
          "velocity": 0.7874015748031497,
          "duration": 0.25767505208332864
        },
        {
          "name": "C6",
          "midi": 84,
          "time": 147.63135750000225,
          "velocity": 0.7874015748031497,
          "duration": 0.1260963020833401
        },
        {
          "name": "A#5",
          "midi": 82,
          "time": 147.76293625000227,
          "velocity": 0.7874015748031497,
          "duration": 0.1260963020833401
        },
        {
          "name": "C6",
          "midi": 84,
          "time": 147.8945150000023,
          "velocity": 0.7874015748031497,
          "duration": 0.1260963020833401
        },
        {
          "name": "F5",
          "midi": 77,
          "time": 148.03157619791895,
          "velocity": 0.7874015748031497,
          "duration": 0.1260963020833401
        },
        {
          "name": "G5",
          "midi": 79,
          "time": 148.1576725000023,
          "velocity": 0.7874015748031497,
          "duration": 0.1260963020833401
        },
        {
          "name": "C6",
          "midi": 84,
          "time": 148.2892512500023,
          "velocity": 0.7874015748031497,
          "duration": 0.1260963020833401
        },
        {
          "name": "A#5",
          "midi": 82,
          "time": 148.42083000000233,
          "velocity": 0.7874015748031497,
          "duration": 0.1260963020833401
        },
        {
          "name": "G5",
          "midi": 79,
          "time": 148.55240875000234,
          "velocity": 0.7874015748031497,
          "duration": 0.1260963020833401
        },
        {
          "name": "F5",
          "midi": 77,
          "time": 148.689469947919,
          "velocity": 0.7874015748031497,
          "duration": 0.1260963020833401
        },
        {
          "name": "F5",
          "midi": 77,
          "time": 148.81556625000235,
          "velocity": 0.7874015748031497,
          "duration": 0.1260963020833401
        },
        {
          "name": "D#5",
          "midi": 75,
          "time": 148.94714500000237,
          "velocity": 0.7874015748031497,
          "duration": 0.25767505208332864
        },
        {
          "name": "B5",
          "midi": 83,
          "time": 149.73661750000235,
          "velocity": 0.7874015748031497,
          "duration": 0.3289468750000424
        },
        {
          "name": "C6",
          "midi": 84,
          "time": 150.26293250000242,
          "velocity": 0.7874015748031497,
          "duration": 0.32894687500001396
        },
        {
          "name": "C#6",
          "midi": 85,
          "time": 151.57872000000245,
          "velocity": 0.7874015748031497,
          "duration": 0.32894687500001396
        },
        {
          "name": "C#6",
          "midi": 85,
          "time": 151.97345625000247,
          "velocity": 0.7874015748031497,
          "duration": 0.32894687499998554
        },
        {
          "name": "D6",
          "midi": 86,
          "time": 152.10503500000246,
          "velocity": 0.7874015748031497,
          "duration": 1.0471475520833167
        },
        {
          "name": "D6",
          "midi": 86,
          "time": 152.10503500000246,
          "velocity": 0.7874015748031497,
          "duration": 1.0471475520833167
        },
        {
          "name": "D5",
          "midi": 74,
          "time": 153.15766500000245,
          "velocity": 0.7874015748031497,
          "duration": 0.038377135416652663
        },
        {
          "name": "D5",
          "midi": 74,
          "time": 153.28924375000244,
          "velocity": 0.7874015748031497,
          "duration": 0.038377135416652663
        },
        {
          "name": "D5",
          "midi": 74,
          "time": 153.42082250000243,
          "velocity": 0.7874015748031497,
          "duration": 0.038377135416652663
        },
        {
          "name": "D5",
          "midi": 74,
          "time": 153.55240125000242,
          "velocity": 0.7874015748031497,
          "duration": 0.038377135416652663
        },
        {
          "name": "G5",
          "midi": 79,
          "time": 153.6839800000024,
          "velocity": 0.7874015748031497,
          "duration": 0.25767505208332864
        },
        {
          "name": "D6",
          "midi": 86,
          "time": 153.6839800000024,
          "velocity": 0.7874015748031497,
          "duration": 0.25767505208332864
        },
        {
          "name": "G5",
          "midi": 79,
          "time": 153.9471375000024,
          "velocity": 0.7874015748031497,
          "duration": 0.1260963020833401
        },
        {
          "name": "C6",
          "midi": 84,
          "time": 153.9471375000024,
          "velocity": 0.7874015748031497,
          "duration": 0.1260963020833401
        },
        {
          "name": "C6",
          "midi": 84,
          "time": 154.07871625000243,
          "velocity": 0.7874015748031497,
          "duration": 0.1260963020833401
        },
        {
          "name": "G5",
          "midi": 79,
          "time": 154.07871625000243,
          "velocity": 0.7874015748031497,
          "duration": 0.1260963020833401
        },
        {
          "name": "G5",
          "midi": 79,
          "time": 154.21029500000245,
          "velocity": 0.7874015748031497,
          "duration": 0.1260963020833401
        },
        {
          "name": "C6",
          "midi": 84,
          "time": 154.21029500000245,
          "velocity": 0.7874015748031497,
          "duration": 0.1260963020833401
        },
        {
          "name": "C6",
          "midi": 84,
          "time": 154.34187375000246,
          "velocity": 0.7874015748031497,
          "duration": 0.1260963020833401
        },
        {
          "name": "G5",
          "midi": 79,
          "time": 154.34187375000246,
          "velocity": 0.7874015748031497,
          "duration": 0.1260963020833401
        },
        {
          "name": "C6",
          "midi": 84,
          "time": 154.47345250000248,
          "velocity": 0.7874015748031497,
          "duration": 0.25767505208332864
        },
        {
          "name": "G5",
          "midi": 79,
          "time": 154.47345250000248,
          "velocity": 0.7874015748031497,
          "duration": 0.25767505208332864
        },
        {
          "name": "F5",
          "midi": 77,
          "time": 154.73661000000249,
          "velocity": 0.7874015748031497,
          "duration": 0.2576750520833855
        },
        {
          "name": "D5",
          "midi": 74,
          "time": 154.73661000000249,
          "velocity": 0.7874015748031497,
          "duration": 0.2576750520833855
        },
        {
          "name": "A#5",
          "midi": 82,
          "time": 154.73661000000249,
          "velocity": 0.7874015748031497,
          "duration": 0.2576750520833855
        },
        {
          "name": "F5",
          "midi": 77,
          "time": 154.99976750000255,
          "velocity": 0.7874015748031497,
          "duration": 0.25767505208332864
        },
        {
          "name": "C6",
          "midi": 84,
          "time": 154.99976750000255,
          "velocity": 0.7874015748031497,
          "duration": 0.25767505208332864
        },
        {
          "name": "C6",
          "midi": 84,
          "time": 155.26292500000255,
          "velocity": 0.7874015748031497,
          "duration": 0.1260963020833401
        },
        {
          "name": "F5",
          "midi": 77,
          "time": 155.26292500000255,
          "velocity": 0.7874015748031497,
          "duration": 0.1260963020833401
        },
        {
          "name": "F5",
          "midi": 77,
          "time": 155.39450375000257,
          "velocity": 0.7874015748031497,
          "duration": 0.1260963020833401
        },
        {
          "name": "A#5",
          "midi": 82,
          "time": 155.39450375000257,
          "velocity": 0.7874015748031497,
          "duration": 0.1260963020833401
        },
        {
          "name": "A#5",
          "midi": 82,
          "time": 155.5260825000026,
          "velocity": 0.7874015748031497,
          "duration": 0.25767505208332864
        },
        {
          "name": "F5",
          "midi": 77,
          "time": 155.5260825000026,
          "velocity": 0.7874015748031497,
          "duration": 0.25767505208332864
        },
        {
          "name": "D5",
          "midi": 74,
          "time": 155.5260825000026,
          "velocity": 0.7874015748031497,
          "duration": 0.25767505208332864
        },
        {
          "name": "D#5",
          "midi": 75,
          "time": 155.7892400000026,
          "velocity": 0.7874015748031497,
          "duration": 0.2576750520833855
        },
        {
          "name": "C5",
          "midi": 72,
          "time": 155.7892400000026,
          "velocity": 0.7874015748031497,
          "duration": 0.2576750520833855
        },
        {
          "name": "G#5",
          "midi": 80,
          "time": 155.7892400000026,
          "velocity": 0.7874015748031497,
          "duration": 0.2576750520833855
        },
        {
          "name": "G#5",
          "midi": 80,
          "time": 156.05239750000266,
          "velocity": 0.7874015748031497,
          "duration": 0.25767505208332864
        },
        {
          "name": "D#5",
          "midi": 75,
          "time": 156.05239750000266,
          "velocity": 0.7874015748031497,
          "duration": 0.25767505208332864
        },
        {
          "name": "D#5",
          "midi": 75,
          "time": 156.31555500000266,
          "velocity": 0.7874015748031497,
          "duration": 0.12609630208328326
        },
        {
          "name": "F#5",
          "midi": 78,
          "time": 156.31555500000266,
          "velocity": 0.7874015748031497,
          "duration": 0.12609630208328326
        },
        {
          "name": "F#5",
          "midi": 78,
          "time": 156.44713375000262,
          "velocity": 0.7874015748031497,
          "duration": 0.1260963020833401
        },
        {
          "name": "D#5",
          "midi": 75,
          "time": 156.44713375000262,
          "velocity": 0.7874015748031497,
          "duration": 0.1260963020833401
        },
        {
          "name": "F#5",
          "midi": 78,
          "time": 156.57871250000264,
          "velocity": 0.7874015748031497,
          "duration": 0.1260963020833401
        },
        {
          "name": "D#5",
          "midi": 75,
          "time": 156.57871250000264,
          "velocity": 0.7874015748031497,
          "duration": 0.1260963020833401
        },
        {
          "name": "F#5",
          "midi": 78,
          "time": 156.71029125000265,
          "velocity": 0.7874015748031497,
          "duration": 0.1260963020833401
        },
        {
          "name": "D#5",
          "midi": 75,
          "time": 156.71029125000265,
          "velocity": 0.7874015748031497,
          "duration": 0.1260963020833401
        },
        {
          "name": "F5",
          "midi": 77,
          "time": 156.84187000000267,
          "velocity": 0.7874015748031497,
          "duration": 0.12609630208328326
        },
        {
          "name": "G#5",
          "midi": 80,
          "time": 156.84187000000267,
          "velocity": 0.7874015748031497,
          "duration": 0.12609630208328326
        },
        {
          "name": "G#5",
          "midi": 80,
          "time": 156.97344875000263,
          "velocity": 0.7874015748031497,
          "duration": 0.1260963020833401
        },
        {
          "name": "F5",
          "midi": 77,
          "time": 156.97344875000263,
          "velocity": 0.7874015748031497,
          "duration": 0.1260963020833401
        },
        {
          "name": "G#5",
          "midi": 80,
          "time": 157.10502750000265,
          "velocity": 0.7874015748031497,
          "duration": 0.1260963020833401
        },
        {
          "name": "F5",
          "midi": 77,
          "time": 157.10502750000265,
          "velocity": 0.7874015748031497,
          "duration": 0.1260963020833401
        },
        {
          "name": "G#5",
          "midi": 80,
          "time": 157.23660625000267,
          "velocity": 0.7874015748031497,
          "duration": 0.1260963020833401
        },
        {
          "name": "F5",
          "midi": 77,
          "time": 157.23660625000267,
          "velocity": 0.7874015748031497,
          "duration": 0.1260963020833401
        },
        {
          "name": "G#5",
          "midi": 80,
          "time": 157.36818500000268,
          "velocity": 0.7874015748031497,
          "duration": 0.2576750520833002
        },
        {
          "name": "F5",
          "midi": 77,
          "time": 157.36818500000268,
          "velocity": 0.7874015748031497,
          "duration": 0.2576750520833002
        },
        {
          "name": "A#4",
          "midi": 70,
          "time": 157.76292125000265,
          "velocity": 0.7874015748031497,
          "duration": 0.04934203125000636
        },
        {
          "name": "C5",
          "midi": 72,
          "time": 157.89450000000267,
          "velocity": 0.7874015748031497,
          "duration": 0.2576750520833002
        },
        {
          "name": "G5",
          "midi": 79,
          "time": 158.15765750000264,
          "velocity": 0.7874015748031497,
          "duration": 0.25767505208332864
        },
        {
          "name": "D6",
          "midi": 86,
          "time": 158.42081500000265,
          "velocity": 0.7874015748031497,
          "duration": 0.1260963020833401
        },
        {
          "name": "G5",
          "midi": 79,
          "time": 158.42081500000265,
          "velocity": 0.7874015748031497,
          "duration": 0.1260963020833401
        },
        {
          "name": "G5",
          "midi": 79,
          "time": 158.55239375000266,
          "velocity": 0.7874015748031497,
          "duration": 0.1260963020833401
        },
        {
          "name": "C6",
          "midi": 84,
          "time": 158.55239375000266,
          "velocity": 0.7874015748031497,
          "duration": 0.1260963020833401
        },
        {
          "name": "C6",
          "midi": 84,
          "time": 158.68397250000268,
          "velocity": 0.7874015748031497,
          "duration": 0.25767505208332864
        },
        {
          "name": "F5",
          "midi": 77,
          "time": 158.9471300000027,
          "velocity": 0.7874015748031497,
          "duration": 0.2576750520833002
        },
        {
          "name": "D5",
          "midi": 74,
          "time": 158.9471300000027,
          "velocity": 0.7874015748031497,
          "duration": 0.2576750520833002
        },
        {
          "name": "A#5",
          "midi": 82,
          "time": 158.9471300000027,
          "velocity": 0.7874015748031497,
          "duration": 0.2576750520833002
        },
        {
          "name": "A#5",
          "midi": 82,
          "time": 159.21028750000266,
          "velocity": 0.7874015748031497,
          "duration": 0.25767505208332864
        },
        {
          "name": "F5",
          "midi": 77,
          "time": 159.21028750000266,
          "velocity": 0.7874015748031497,
          "duration": 0.25767505208332864
        },
        {
          "name": "D5",
          "midi": 74,
          "time": 159.21028750000266,
          "velocity": 0.7874015748031497,
          "duration": 0.25767505208332864
        },
        {
          "name": "F5",
          "midi": 77,
          "time": 159.47344500000267,
          "velocity": 0.7874015748031497,
          "duration": 0.1260963020833401
        },
        {
          "name": "C6",
          "midi": 84,
          "time": 159.47344500000267,
          "velocity": 0.7874015748031497,
          "duration": 0.1260963020833401
        },
        {
          "name": "A#5",
          "midi": 82,
          "time": 159.6050237500027,
          "velocity": 0.7874015748031497,
          "duration": 0.1260963020833401
        },
        {
          "name": "F5",
          "midi": 77,
          "time": 159.6050237500027,
          "velocity": 0.7874015748031497,
          "duration": 0.1260963020833401
        },
        {
          "name": "A#5",
          "midi": 82,
          "time": 159.7366025000027,
          "velocity": 0.7874015748031497,
          "duration": 0.25767505208332864
        },
        {
          "name": "F5",
          "midi": 77,
          "time": 159.7366025000027,
          "velocity": 0.7874015748031497,
          "duration": 0.25767505208332864
        },
        {
          "name": "C5",
          "midi": 72,
          "time": 159.9997600000027,
          "velocity": 0.7874015748031497,
          "duration": 0.2576750520833002
        },
        {
          "name": "G#5",
          "midi": 80,
          "time": 160.2629175000027,
          "velocity": 0.7874015748031497,
          "duration": 0.25767505208332864
        },
        {
          "name": "D#5",
          "midi": 75,
          "time": 160.2629175000027,
          "velocity": 0.7874015748031497,
          "duration": 0.25767505208332864
        },
        {
          "name": "G#5",
          "midi": 80,
          "time": 160.5260750000027,
          "velocity": 0.7874015748031497,
          "duration": 0.1260963020833401
        },
        {
          "name": "D#5",
          "midi": 75,
          "time": 160.5260750000027,
          "velocity": 0.7874015748031497,
          "duration": 0.1260963020833401
        },
        {
          "name": "D#5",
          "midi": 75,
          "time": 160.6576537500027,
          "velocity": 0.7874015748031497,
          "duration": 0.02741223958332739
        },
        {
          "name": "G#5",
          "midi": 80,
          "time": 160.6576537500027,
          "velocity": 0.7874015748031497,
          "duration": 0.02741223958332739
        },
        {
          "name": "D#5",
          "midi": 75,
          "time": 160.7892325000027,
          "velocity": 0.7874015748031497,
          "duration": 0.02741223958332739
        },
        {
          "name": "G#5",
          "midi": 80,
          "time": 160.7892325000027,
          "velocity": 0.7874015748031497,
          "duration": 0.02741223958332739
        },
        {
          "name": "D#5",
          "midi": 75,
          "time": 160.92081125000269,
          "velocity": 0.7874015748031497,
          "duration": 0.02741223958332739
        },
        {
          "name": "G#5",
          "midi": 80,
          "time": 160.92081125000269,
          "velocity": 0.7874015748031497,
          "duration": 0.02741223958332739
        },
        {
          "name": "D#5",
          "midi": 75,
          "time": 161.05239000000267,
          "velocity": 0.7874015748031497,
          "duration": 0.02741223958332739
        },
        {
          "name": "G#5",
          "midi": 80,
          "time": 161.05239000000267,
          "velocity": 0.7874015748031497,
          "duration": 0.02741223958332739
        },
        {
          "name": "D#5",
          "midi": 75,
          "time": 161.18396875000266,
          "velocity": 0.7874015748031497,
          "duration": 0.02741223958332739
        },
        {
          "name": "G#5",
          "midi": 80,
          "time": 161.18396875000266,
          "velocity": 0.7874015748031497,
          "duration": 0.02741223958332739
        },
        {
          "name": "D#5",
          "midi": 75,
          "time": 161.31554750000265,
          "velocity": 0.7874015748031497,
          "duration": 0.02741223958332739
        },
        {
          "name": "G#5",
          "midi": 80,
          "time": 161.31554750000265,
          "velocity": 0.7874015748031497,
          "duration": 0.02741223958332739
        },
        {
          "name": "D#5",
          "midi": 75,
          "time": 161.44712625000264,
          "velocity": 0.7874015748031497,
          "duration": 0.02741223958332739
        },
        {
          "name": "G#5",
          "midi": 80,
          "time": 161.44712625000264,
          "velocity": 0.7874015748031497,
          "duration": 0.02741223958332739
        },
        {
          "name": "D#5",
          "midi": 75,
          "time": 161.57870500000263,
          "velocity": 0.7874015748031497,
          "duration": 0.02741223958332739
        },
        {
          "name": "G#5",
          "midi": 80,
          "time": 161.57870500000263,
          "velocity": 0.7874015748031497,
          "duration": 0.02741223958332739
        },
        {
          "name": "D#5",
          "midi": 75,
          "time": 161.71028375000262,
          "velocity": 0.7874015748031497,
          "duration": 0.02741223958332739
        },
        {
          "name": "G#5",
          "midi": 80,
          "time": 161.71028375000262,
          "velocity": 0.7874015748031497,
          "duration": 0.02741223958332739
        },
        {
          "name": "D#5",
          "midi": 75,
          "time": 161.8418625000026,
          "velocity": 0.7874015748031497,
          "duration": 0.02741223958332739
        },
        {
          "name": "G#5",
          "midi": 80,
          "time": 161.8418625000026,
          "velocity": 0.7874015748031497,
          "duration": 0.02741223958332739
        },
        {
          "name": "D#5",
          "midi": 75,
          "time": 161.9734412500026,
          "velocity": 0.7874015748031497,
          "duration": 0.02741223958332739
        },
        {
          "name": "G#5",
          "midi": 80,
          "time": 161.9734412500026,
          "velocity": 0.7874015748031497,
          "duration": 0.02741223958332739
        },
        {
          "name": "B4",
          "midi": 71,
          "time": 162.10502000000258,
          "velocity": 0.7874015748031497,
          "duration": 0.2576750520833002
        },
        {
          "name": "C6",
          "midi": 84,
          "time": 162.36817750000256,
          "velocity": 0.7874015748031497,
          "duration": 0.25767505208332864
        },
        {
          "name": "G5",
          "midi": 79,
          "time": 162.36817750000256,
          "velocity": 0.7874015748031497,
          "duration": 0.25767505208332864
        },
        {
          "name": "D6",
          "midi": 86,
          "time": 162.63133500000257,
          "velocity": 0.7874015748031497,
          "duration": 0.1260963020833401
        },
        {
          "name": "G5",
          "midi": 79,
          "time": 162.63133500000257,
          "velocity": 0.7874015748031497,
          "duration": 0.1260963020833401
        },
        {
          "name": "C6",
          "midi": 84,
          "time": 162.76291375000258,
          "velocity": 0.7874015748031497,
          "duration": 0.1260963020833401
        },
        {
          "name": "G5",
          "midi": 79,
          "time": 162.76291375000258,
          "velocity": 0.7874015748031497,
          "duration": 0.1260963020833401
        },
        {
          "name": "C6",
          "midi": 84,
          "time": 162.8944925000026,
          "velocity": 0.7874015748031497,
          "duration": 0.1260963020833401
        },
        {
          "name": "G5",
          "midi": 79,
          "time": 162.8944925000026,
          "velocity": 0.7874015748031497,
          "duration": 0.1260963020833401
        },
        {
          "name": "D#5",
          "midi": 75,
          "time": 163.02607125000262,
          "velocity": 0.7874015748031497,
          "duration": 0.02741223958332739
        },
        {
          "name": "G5",
          "midi": 79,
          "time": 163.02607125000262,
          "velocity": 0.7874015748031497,
          "duration": 0.02741223958332739
        },
        {
          "name": "D5",
          "midi": 74,
          "time": 163.1576500000026,
          "velocity": 0.7874015748031497,
          "duration": 0.2576750520833002
        },
        {
          "name": "A#5",
          "midi": 82,
          "time": 163.42080750000258,
          "velocity": 0.7874015748031497,
          "duration": 0.25767505208332864
        },
        {
          "name": "F5",
          "midi": 77,
          "time": 163.42080750000258,
          "velocity": 0.7874015748031497,
          "duration": 0.25767505208332864
        },
        {
          "name": "C6",
          "midi": 84,
          "time": 163.6839650000026,
          "velocity": 0.7874015748031497,
          "duration": 0.1260963020833401
        },
        {
          "name": "F5",
          "midi": 77,
          "time": 163.6839650000026,
          "velocity": 0.7874015748031497,
          "duration": 0.1260963020833401
        },
        {
          "name": "F5",
          "midi": 77,
          "time": 163.8155437500026,
          "velocity": 0.7874015748031497,
          "duration": 0.1260963020833401
        },
        {
          "name": "A#5",
          "midi": 82,
          "time": 163.8155437500026,
          "velocity": 0.7874015748031497,
          "duration": 0.1260963020833401
        },
        {
          "name": "F5",
          "midi": 77,
          "time": 163.94712250000262,
          "velocity": 0.7874015748031497,
          "duration": 0.1260963020833401
        },
        {
          "name": "A#5",
          "midi": 82,
          "time": 163.94712250000262,
          "velocity": 0.7874015748031497,
          "duration": 0.1260963020833401
        },
        {
          "name": "A#4",
          "midi": 70,
          "time": 164.07870125000264,
          "velocity": 0.7874015748031497,
          "duration": 0.02741223958332739
        },
        {
          "name": "D5",
          "midi": 74,
          "time": 164.07870125000264,
          "velocity": 0.7874015748031497,
          "duration": 0.02741223958332739
        },
        {
          "name": "C5",
          "midi": 72,
          "time": 164.21028000000263,
          "velocity": 0.7874015748031497,
          "duration": 0.2576750520833002
        },
        {
          "name": "G#5",
          "midi": 80,
          "time": 164.4734375000026,
          "velocity": 0.7874015748031497,
          "duration": 0.25767505208332864
        },
        {
          "name": "D#5",
          "midi": 75,
          "time": 164.4734375000026,
          "velocity": 0.7874015748031497,
          "duration": 0.25767505208332864
        },
        {
          "name": "F#5",
          "midi": 78,
          "time": 164.7365950000026,
          "velocity": 0.7874015748031497,
          "duration": 0.1260963020833401
        },
        {
          "name": "D#5",
          "midi": 75,
          "time": 164.7365950000026,
          "velocity": 0.7874015748031497,
          "duration": 0.1260963020833401
        },
        {
          "name": "D#5",
          "midi": 75,
          "time": 164.86817375000263,
          "velocity": 0.7874015748031497,
          "duration": 0.1260963020833401
        },
        {
          "name": "F#5",
          "midi": 78,
          "time": 164.86817375000263,
          "velocity": 0.7874015748031497,
          "duration": 0.1260963020833401
        },
        {
          "name": "D#5",
          "midi": 75,
          "time": 164.99975250000264,
          "velocity": 0.7874015748031497,
          "duration": 0.1260963020833401
        },
        {
          "name": "F#5",
          "midi": 78,
          "time": 164.99975250000264,
          "velocity": 0.7874015748031497,
          "duration": 0.1260963020833401
        },
        {
          "name": "F5",
          "midi": 77,
          "time": 165.13133125000266,
          "velocity": 0.7874015748031497,
          "duration": 0.25767505208332864
        },
        {
          "name": "G#5",
          "midi": 80,
          "time": 165.13133125000266,
          "velocity": 0.7874015748031497,
          "duration": 0.25767505208332864
        },
        {
          "name": "G#5",
          "midi": 80,
          "time": 165.39448875000267,
          "velocity": 0.7874015748031497,
          "duration": 0.1260963020833401
        },
        {
          "name": "F5",
          "midi": 77,
          "time": 165.39448875000267,
          "velocity": 0.7874015748031497,
          "duration": 0.1260963020833401
        },
        {
          "name": "A#5",
          "midi": 82,
          "time": 165.52606750000268,
          "velocity": 0.7874015748031497,
          "duration": 0.25767505208332864
        },
        {
          "name": "G5",
          "midi": 79,
          "time": 165.52606750000268,
          "velocity": 0.7874015748031497,
          "duration": 0.25767505208332864
        },
        {
          "name": "D#5",
          "midi": 75,
          "time": 165.7892250000027,
          "velocity": 0.7874015748031497,
          "duration": 0.02741223958332739
        },
        {
          "name": "G#5",
          "midi": 80,
          "time": 165.7892250000027,
          "velocity": 0.7874015748031497,
          "duration": 0.02741223958332739
        },
        {
          "name": "G#5",
          "midi": 80,
          "time": 165.92080375000268,
          "velocity": 0.7874015748031497,
          "duration": 0.02741223958332739
        },
        {
          "name": "D#5",
          "midi": 75,
          "time": 165.92080375000268,
          "velocity": 0.7874015748031497,
          "duration": 0.02741223958332739
        },
        {
          "name": "D#5",
          "midi": 75,
          "time": 166.05238250000266,
          "velocity": 0.7874015748031497,
          "duration": 0.02741223958332739
        },
        {
          "name": "A#4",
          "midi": 70,
          "time": 166.05238250000266,
          "velocity": 0.7874015748031497,
          "duration": 0.02741223958332739
        },
        {
          "name": "D#5",
          "midi": 75,
          "time": 166.18396125000265,
          "velocity": 0.7874015748031497,
          "duration": 0.02741223958332739
        },
        {
          "name": "G#5",
          "midi": 80,
          "time": 166.18396125000265,
          "velocity": 0.7874015748031497,
          "duration": 0.02741223958332739
        },
        {
          "name": "B5",
          "midi": 83,
          "time": 166.31554000000264,
          "velocity": 0.7874015748031497,
          "duration": 0.25767505208335706
        },
        {
          "name": "B5",
          "midi": 83,
          "time": 166.57869750000268,
          "velocity": 0.7874015748031497,
          "duration": 0.1260963020833401
        },
        {
          "name": "B5",
          "midi": 83,
          "time": 166.7102762500027,
          "velocity": 0.7874015748031497,
          "duration": 0.1260963020833401
        },
        {
          "name": "B5",
          "midi": 83,
          "time": 166.8418550000027,
          "velocity": 0.7874015748031497,
          "duration": 0.1260963020833401
        },
        {
          "name": "B5",
          "midi": 83,
          "time": 166.97343375000273,
          "velocity": 0.7874015748031497,
          "duration": 0.1260963020833401
        },
        {
          "name": "B5",
          "midi": 83,
          "time": 167.10501250000274,
          "velocity": 0.7874015748031497,
          "duration": 0.1260963020833401
        },
        {
          "name": "C6",
          "midi": 84,
          "time": 167.23659125000276,
          "velocity": 0.7874015748031497,
          "duration": 0.12609630208331168
        },
        {
          "name": "C6",
          "midi": 84,
          "time": 167.36817000000275,
          "velocity": 0.7874015748031497,
          "duration": 0.1260963020833401
        },
        {
          "name": "C6",
          "midi": 84,
          "time": 167.49974875000277,
          "velocity": 0.7874015748031497,
          "duration": 0.1260963020833401
        },
        {
          "name": "C6",
          "midi": 84,
          "time": 167.63132750000278,
          "velocity": 0.7874015748031497,
          "duration": 0.1260963020833401
        },
        {
          "name": "C6",
          "midi": 84,
          "time": 167.7629062500028,
          "velocity": 0.7874015748031497,
          "duration": 0.1260963020833401
        },
        {
          "name": "C#6",
          "midi": 85,
          "time": 167.89448500000282,
          "velocity": 0.7874015748031497,
          "duration": 0.12609630208331168
        },
        {
          "name": "C#6",
          "midi": 85,
          "time": 168.0260637500028,
          "velocity": 0.7874015748031497,
          "duration": 0.1260963020833401
        },
        {
          "name": "C#6",
          "midi": 85,
          "time": 168.15764250000282,
          "velocity": 0.7874015748031497,
          "duration": 0.1260963020833401
        },
        {
          "name": "C#6",
          "midi": 85,
          "time": 168.28922125000284,
          "velocity": 0.7874015748031497,
          "duration": 0.1260963020833401
        },
        {
          "name": "C#6",
          "midi": 85,
          "time": 168.42080000000286,
          "velocity": 0.7874015748031497,
          "duration": 0.25767505208332864
        },
        {
          "name": "D#6",
          "midi": 87,
          "time": 168.68395750000286,
          "velocity": 0.7874015748031497,
          "duration": 0.12609630208331168
        },
        {
          "name": "D#6",
          "midi": 87,
          "time": 168.81553625000285,
          "velocity": 0.7874015748031497,
          "duration": 0.1260963020833401
        },
        {
          "name": "D#6",
          "midi": 87,
          "time": 168.94711500000287,
          "velocity": 0.7874015748031497,
          "duration": 0.1260963020833401
        },
        {
          "name": "D#6",
          "midi": 87,
          "time": 169.07869375000288,
          "velocity": 0.7874015748031497,
          "duration": 0.1260963020833401
        },
        {
          "name": "D#6",
          "midi": 87,
          "time": 169.2102725000029,
          "velocity": 0.7874015748031497,
          "duration": 0.25767505208332864
        },
        {
          "name": "F6",
          "midi": 89,
          "time": 169.4734300000029,
          "velocity": 0.7874015748031497,
          "duration": 0.12609630208331168
        },
        {
          "name": "F6",
          "midi": 89,
          "time": 169.6050087500029,
          "velocity": 0.7874015748031497,
          "duration": 0.1260963020833401
        },
        {
          "name": "F6",
          "midi": 89,
          "time": 169.7365875000029,
          "velocity": 0.7874015748031497,
          "duration": 0.1260963020833401
        },
        {
          "name": "F6",
          "midi": 89,
          "time": 169.86816625000293,
          "velocity": 0.7874015748031497,
          "duration": 0.1260963020833401
        },
        {
          "name": "F6",
          "midi": 89,
          "time": 169.99974500000295,
          "velocity": 0.7874015748031497,
          "duration": 0.1260963020833401
        },
        {
          "name": "F3",
          "midi": 53,
          "time": 172.36816250000297,
          "velocity": 0.7874015748031497,
          "duration": 0.25767505208332864
        },
        {
          "name": "F3",
          "midi": 53,
          "time": 172.63132000000297,
          "velocity": 0.7874015748031497,
          "duration": 0.5208325520833341
        },
        {
          "name": "G3",
          "midi": 55,
          "time": 173.42079250000296,
          "velocity": 0.7874015748031497,
          "duration": 0.25767505208332864
        },
        {
          "name": "A#3",
          "midi": 58,
          "time": 173.68395000000297,
          "velocity": 0.7874015748031497,
          "duration": 0.5208325520833625
        },
        {
          "name": "F3",
          "midi": 53,
          "time": 174.210265000003,
          "velocity": 0.7874015748031497,
          "duration": 0.1260963020833401
        },
        {
          "name": "D#3",
          "midi": 51,
          "time": 174.34184375000302,
          "velocity": 0.7874015748031497,
          "duration": 0.3892538020833456
        },
        {
          "name": "C4",
          "midi": 60,
          "time": 174.73658000000304,
          "velocity": 0.7874015748031497,
          "duration": 0.5208325520833625
        },
        {
          "name": "D#5",
          "midi": 75,
          "time": 175.26289500000308,
          "velocity": 0.7874015748031497,
          "duration": 0.5208325520833625
        },
        {
          "name": "D#5",
          "midi": 75,
          "time": 177.36815500000313,
          "velocity": 0.7874015748031497,
          "duration": 0.5208325520833341
        },
        {
          "name": "G4",
          "midi": 67,
          "time": 177.89447000000314,
          "velocity": 0.7874015748031497,
          "duration": 0.2576750520833855
        },
        {
          "name": "D#5",
          "midi": 75,
          "time": 178.1576275000032,
          "velocity": 0.7874015748031497,
          "duration": 0.7839900520833112
        },
        {
          "name": "A#4",
          "midi": 70,
          "time": 178.1576275000032,
          "velocity": 0.7874015748031497,
          "duration": 0.7839900520833112
        },
        {
          "name": "D#5",
          "midi": 75,
          "time": 179.4734150000032,
          "velocity": 0.7874015748031497,
          "duration": 0.3892538020833456
        },
        {
          "name": "A#4",
          "midi": 70,
          "time": 179.4734150000032,
          "velocity": 0.7874015748031497,
          "duration": 0.3892538020833456
        },
        {
          "name": "A#4",
          "midi": 70,
          "time": 179.86815125000322,
          "velocity": 0.7874015748031497,
          "duration": 0.1260963020833401
        },
        {
          "name": "D#5",
          "midi": 75,
          "time": 179.86815125000322,
          "velocity": 0.7874015748031497,
          "duration": 0.1260963020833401
        },
        {
          "name": "F4",
          "midi": 65,
          "time": 180.26288750000322,
          "velocity": 0.7874015748031497,
          "duration": 0.5208325520833341
        },
        {
          "name": "A#4",
          "midi": 70,
          "time": 180.26288750000322,
          "velocity": 0.7874015748031497,
          "duration": 0.5208325520833341
        },
        {
          "name": "A#4",
          "midi": 70,
          "time": 180.78920250000323,
          "velocity": 0.7874015748031497,
          "duration": 0.1260963020833401
        },
        {
          "name": "F4",
          "midi": 65,
          "time": 180.78920250000323,
          "velocity": 0.7874015748031497,
          "duration": 0.1260963020833401
        },
        {
          "name": "A#4",
          "midi": 70,
          "time": 180.92078125000324,
          "velocity": 0.7874015748031497,
          "duration": 0.1260963020833401
        },
        {
          "name": "F4",
          "midi": 65,
          "time": 180.92078125000324,
          "velocity": 0.7874015748031497,
          "duration": 0.1260963020833401
        },
        {
          "name": "G#4",
          "midi": 68,
          "time": 181.05236000000326,
          "velocity": 0.7874015748031497,
          "duration": 0.5208325520833341
        },
        {
          "name": "D#4",
          "midi": 63,
          "time": 181.05236000000326,
          "velocity": 0.7874015748031497,
          "duration": 0.5208325520833341
        },
        {
          "name": "D#5",
          "midi": 75,
          "time": 181.57867500000327,
          "velocity": 0.7874015748031497,
          "duration": 0.1260963020833401
        },
        {
          "name": "C5",
          "midi": 72,
          "time": 181.84183250000328,
          "velocity": 0.7874015748031497,
          "duration": 0.1260963020833401
        },
        {
          "name": "F5",
          "midi": 77,
          "time": 181.9734112500033,
          "velocity": 0.7874015748031497,
          "duration": 0.1260963020833401
        },
        {
          "name": "D#5",
          "midi": 75,
          "time": 182.3681475000033,
          "velocity": 0.7874015748031497,
          "duration": 0.7839900520833112
        },
        {
          "name": "A#4",
          "midi": 70,
          "time": 182.3681475000033,
          "velocity": 0.7874015748031497,
          "duration": 0.7839900520833112
        },
        {
          "name": "G4",
          "midi": 67,
          "time": 183.15762000000328,
          "velocity": 0.7874015748031497,
          "duration": 0.25767505208332864
        },
        {
          "name": "A#4",
          "midi": 70,
          "time": 183.42077750000328,
          "velocity": 0.7874015748031497,
          "duration": 0.25767505208332864
        },
        {
          "name": "D#5",
          "midi": 75,
          "time": 183.42077750000328,
          "velocity": 0.7874015748031497,
          "duration": 0.25767505208332864
        },
        {
          "name": "D#5",
          "midi": 75,
          "time": 183.6839350000033,
          "velocity": 0.7874015748031497,
          "duration": 0.25767505208335706
        },
        {
          "name": "A#4",
          "midi": 70,
          "time": 183.94709250000332,
          "velocity": 0.7874015748031497,
          "duration": 0.25767505208332864
        },
        {
          "name": "F4",
          "midi": 65,
          "time": 184.21025000000333,
          "velocity": 0.7874015748031497,
          "duration": 0.25767505208332864
        },
        {
          "name": "D5",
          "midi": 74,
          "time": 184.47340750000333,
          "velocity": 0.7874015748031497,
          "duration": 0.1260963020833401
        },
        {
          "name": "A#4",
          "midi": 70,
          "time": 184.47340750000333,
          "velocity": 0.7874015748031497,
          "duration": 0.1260963020833401
        },
        {
          "name": "A#4",
          "midi": 70,
          "time": 184.60498625000335,
          "velocity": 0.7874015748031497,
          "duration": 0.1260963020833401
        },
        {
          "name": "D5",
          "midi": 74,
          "time": 184.60498625000335,
          "velocity": 0.7874015748031497,
          "duration": 0.1260963020833401
        },
        {
          "name": "A#4",
          "midi": 70,
          "time": 184.73656500000337,
          "velocity": 0.7874015748031497,
          "duration": 0.1260963020833401
        },
        {
          "name": "F4",
          "midi": 65,
          "time": 184.73656500000337,
          "velocity": 0.7874015748031497,
          "duration": 0.1260963020833401
        },
        {
          "name": "D4",
          "midi": 62,
          "time": 184.86814375000338,
          "velocity": 0.7874015748031497,
          "duration": 0.1260963020833401
        },
        {
          "name": "F4",
          "midi": 65,
          "time": 184.9997225000034,
          "velocity": 0.7874015748031497,
          "duration": 0.25767505208332864
        },
        {
          "name": "F4",
          "midi": 65,
          "time": 185.2628800000034,
          "velocity": 0.7874015748031497,
          "duration": 0.2576750520833855
        },
        {
          "name": "F4",
          "midi": 65,
          "time": 185.52603750000347,
          "velocity": 0.7874015748031497,
          "duration": 0.038377135416652663
        },
        {
          "name": "F4",
          "midi": 65,
          "time": 185.65761625000346,
          "velocity": 0.7874015748031497,
          "duration": 0.1260963020833401
        },
        {
          "name": "F4",
          "midi": 65,
          "time": 185.78919500000347,
          "velocity": 0.7874015748031497,
          "duration": 0.5208325520833341
        },
        {
          "name": "C4",
          "midi": 60,
          "time": 187.36814000000348,
          "velocity": 0.7874015748031497,
          "duration": 0.25767505208332864
        },
        {
          "name": "G5",
          "midi": 79,
          "time": 187.89445500000346,
          "velocity": 0.7874015748031497,
          "duration": 0.25767505208332864
        },
        {
          "name": "G4",
          "midi": 67,
          "time": 188.15761250000347,
          "velocity": 0.7874015748031497,
          "duration": 0.1260963020833401
        },
        {
          "name": "A#4",
          "midi": 70,
          "time": 188.15761250000347,
          "velocity": 0.7874015748031497,
          "duration": 0.1260963020833401
        },
        {
          "name": "A#4",
          "midi": 70,
          "time": 188.28919125000348,
          "velocity": 0.7874015748031497,
          "duration": 0.1260963020833401
        },
        {
          "name": "G4",
          "midi": 67,
          "time": 188.28919125000348,
          "velocity": 0.7874015748031497,
          "duration": 0.1260963020833401
        },
        {
          "name": "F4",
          "midi": 65,
          "time": 188.68392750000348,
          "velocity": 0.7874015748031497,
          "duration": 0.5208325520833341
        },
        {
          "name": "F4",
          "midi": 65,
          "time": 188.68392750000348,
          "velocity": 0.7874015748031497,
          "duration": 0.5208325520833341
        },
        {
          "name": "A#4",
          "midi": 70,
          "time": 189.2102425000035,
          "velocity": 0.7874015748031497,
          "duration": 0.25767505208332864
        },
        {
          "name": "F4",
          "midi": 65,
          "time": 189.2102425000035,
          "velocity": 0.7874015748031497,
          "duration": 0.25767505208332864
        },
        {
          "name": "A#4",
          "midi": 70,
          "time": 189.9997150000035,
          "velocity": 0.7874015748031497,
          "duration": 0.25767505208332864
        },
        {
          "name": "C5",
          "midi": 72,
          "time": 190.2628725000035,
          "velocity": 0.7874015748031497,
          "duration": 0.1260963020833401
        },
        {
          "name": "D#5",
          "midi": 75,
          "time": 190.2628725000035,
          "velocity": 0.7874015748031497,
          "duration": 0.1260963020833401
        },
        {
          "name": "D#5",
          "midi": 75,
          "time": 190.39445125000353,
          "velocity": 0.7874015748031497,
          "duration": 0.1260963020833401
        },
        {
          "name": "C5",
          "midi": 72,
          "time": 190.39445125000353,
          "velocity": 0.7874015748031497,
          "duration": 0.1260963020833401
        },
        {
          "name": "G4",
          "midi": 67,
          "time": 190.52603000000354,
          "velocity": 0.7874015748031497,
          "duration": 0.2576750520833855
        },
        {
          "name": "D#5",
          "midi": 75,
          "time": 190.7891875000036,
          "velocity": 0.7874015748031497,
          "duration": 0.7839900520833112
        },
        {
          "name": "A#4",
          "midi": 70,
          "time": 190.7891875000036,
          "velocity": 0.7874015748031497,
          "duration": 0.7839900520833112
        },
        {
          "name": "C4",
          "midi": 60,
          "time": 191.5786600000036,
          "velocity": 0.7874015748031497,
          "duration": 0.5208325520833341
        },
        {
          "name": "G5",
          "midi": 79,
          "time": 192.1049750000036,
          "velocity": 0.7874015748031497,
          "duration": 0.25767505208332864
        },
        {
          "name": "A#4",
          "midi": 70,
          "time": 192.3681325000036,
          "velocity": 0.7874015748031497,
          "duration": 0.1260963020833401
        },
        {
          "name": "D#5",
          "midi": 75,
          "time": 192.49971125000363,
          "velocity": 0.7874015748031497,
          "duration": 0.1260963020833401
        },
        {
          "name": "A#4",
          "midi": 70,
          "time": 192.49971125000363,
          "velocity": 0.7874015748031497,
          "duration": 0.1260963020833401
        },
        {
          "name": "G4",
          "midi": 67,
          "time": 192.49971125000363,
          "velocity": 0.7874015748031497,
          "duration": 0.1260963020833401
        },
        {
          "name": "A#4",
          "midi": 70,
          "time": 192.63129000000364,
          "velocity": 0.7874015748031497,
          "duration": 0.25767505208332864
        },
        {
          "name": "F4",
          "midi": 65,
          "time": 192.63129000000364,
          "velocity": 0.7874015748031497,
          "duration": 0.25767505208332864
        },
        {
          "name": "A#4",
          "midi": 70,
          "time": 192.89444750000365,
          "velocity": 0.7874015748031497,
          "duration": 0.5208325520833341
        },
        {
          "name": "F4",
          "midi": 65,
          "time": 192.89444750000365,
          "velocity": 0.7874015748031497,
          "duration": 0.5208325520833341
        },
        {
          "name": "F4",
          "midi": 65,
          "time": 193.42076250000366,
          "velocity": 0.7874015748031497,
          "duration": 0.1260963020833401
        },
        {
          "name": "A#4",
          "midi": 70,
          "time": 193.55234125000368,
          "velocity": 0.7874015748031497,
          "duration": 0.1260963020833401
        },
        {
          "name": "F5",
          "midi": 77,
          "time": 194.2102350000037,
          "velocity": 0.7874015748031497,
          "duration": 0.25767505208332864
        },
        {
          "name": "A#4",
          "midi": 70,
          "time": 194.4733925000037,
          "velocity": 0.7874015748031497,
          "duration": 0.1260963020833401
        },
        {
          "name": "F4",
          "midi": 65,
          "time": 194.4733925000037,
          "velocity": 0.7874015748031497,
          "duration": 0.1260963020833401
        },
        {
          "name": "G4",
          "midi": 67,
          "time": 194.60497125000373,
          "velocity": 0.7874015748031497,
          "duration": 0.1260963020833401
        },
        {
          "name": "C5",
          "midi": 72,
          "time": 194.60497125000373,
          "velocity": 0.7874015748031497,
          "duration": 0.1260963020833401
        },
        {
          "name": "G4",
          "midi": 67,
          "time": 194.73655000000375,
          "velocity": 0.7874015748031497,
          "duration": 0.25767505208332864
        },
        {
          "name": "D#5",
          "midi": 75,
          "time": 194.99970750000375,
          "velocity": 0.7874015748031497,
          "duration": 0.5208325520833057
        },
        {
          "name": "A#4",
          "midi": 70,
          "time": 194.99970750000375,
          "velocity": 0.7874015748031497,
          "duration": 0.5208325520833057
        },
        {
          "name": "D#5",
          "midi": 75,
          "time": 196.31549500000372,
          "velocity": 0.7874015748031497,
          "duration": 0.25767505208335706
        },
        {
          "name": "G4",
          "midi": 67,
          "time": 196.57865250000376,
          "velocity": 0.7874015748031497,
          "duration": 0.1260963020833401
        },
        {
          "name": "A#4",
          "midi": 70,
          "time": 196.71023125000377,
          "velocity": 0.7874015748031497,
          "duration": 0.1260963020833401
        },
        {
          "name": "D#5",
          "midi": 75,
          "time": 196.71023125000377,
          "velocity": 0.7874015748031497,
          "duration": 0.1260963020833401
        },
        {
          "name": "A#4",
          "midi": 70,
          "time": 197.10496750000377,
          "velocity": 0.7874015748031497,
          "duration": 0.5208325520833341
        },
        {
          "name": "F4",
          "midi": 65,
          "time": 197.10496750000377,
          "velocity": 0.7874015748031497,
          "duration": 0.5208325520833341
        },
        {
          "name": "F4",
          "midi": 65,
          "time": 197.63128250000378,
          "velocity": 0.7874015748031497,
          "duration": 0.1260963020833401
        },
        {
          "name": "A#4",
          "midi": 70,
          "time": 197.7628612500038,
          "velocity": 0.7874015748031497,
          "duration": 0.1260963020833401
        },
        {
          "name": "D#4",
          "midi": 63,
          "time": 197.8944400000038,
          "velocity": 0.7874015748031497,
          "duration": 0.25767505208335706
        },
        {
          "name": "A#3",
          "midi": 58,
          "time": 198.15759750000385,
          "velocity": 0.7874015748031497,
          "duration": 0.25767505208332864
        },
        {
          "name": "D#4",
          "midi": 63,
          "time": 198.42075500000385,
          "velocity": 0.7874015748031497,
          "duration": 0.25767505208332864
        },
        {
          "name": "F4",
          "midi": 65,
          "time": 198.68391250000386,
          "velocity": 0.7874015748031497,
          "duration": 0.25767505208332864
        },
        {
          "name": "A#4",
          "midi": 70,
          "time": 198.94707000000386,
          "velocity": 0.7874015748031497,
          "duration": 0.25767505208332864
        },
        {
          "name": "D#5",
          "midi": 75,
          "time": 199.21022750000387,
          "velocity": 0.7874015748031497,
          "duration": 0.6524113020833227
        },
        {
          "name": "A#4",
          "midi": 70,
          "time": 199.21022750000387,
          "velocity": 0.7874015748031497,
          "duration": 0.6524113020833227
        },
        {
          "name": "D5",
          "midi": 74,
          "time": 199.86812125000387,
          "velocity": 0.7874015748031497,
          "duration": 0.038377135416652663
        },
        {
          "name": "A#4",
          "midi": 70,
          "time": 199.86812125000387,
          "velocity": 0.7874015748031497,
          "duration": 0.038377135416652663
        },
        {
          "name": "C4",
          "midi": 60,
          "time": 199.99970000000386,
          "velocity": 0.7874015748031497,
          "duration": 0.5208325520833341
        },
        {
          "name": "G4",
          "midi": 67,
          "time": 199.99970000000386,
          "velocity": 0.7874015748031497,
          "duration": 0.5208325520833341
        },
        {
          "name": "D5",
          "midi": 74,
          "time": 200.52601500000387,
          "velocity": 0.7874015748031497,
          "duration": 0.25767505208335706
        },
        {
          "name": "A#4",
          "midi": 70,
          "time": 200.7891725000039,
          "velocity": 0.7874015748031497,
          "duration": 0.1260963020833401
        },
        {
          "name": "D#5",
          "midi": 75,
          "time": 200.92075125000392,
          "velocity": 0.7874015748031497,
          "duration": 0.1260963020833401
        },
        {
          "name": "A#3",
          "midi": 58,
          "time": 201.05233000000393,
          "velocity": 0.7874015748031497,
          "duration": 0.25767505208332864
        },
        {
          "name": "F4",
          "midi": 65,
          "time": 201.31548750000394,
          "velocity": 0.7874015748031497,
          "duration": 0.25767505208332864
        },
        {
          "name": "F4",
          "midi": 65,
          "time": 201.57864500000395,
          "velocity": 0.7874015748031497,
          "duration": 0.25767505208332864
        },
        {
          "name": "A#4",
          "midi": 70,
          "time": 201.57864500000395,
          "velocity": 0.7874015748031497,
          "duration": 0.25767505208332864
        },
        {
          "name": "G#4",
          "midi": 68,
          "time": 201.84180250000395,
          "velocity": 0.7874015748031497,
          "duration": 0.1260963020833401
        },
        {
          "name": "D#4",
          "midi": 63,
          "time": 201.84180250000395,
          "velocity": 0.7874015748031497,
          "duration": 0.1260963020833401
        },
        {
          "name": "G#4",
          "midi": 68,
          "time": 201.97338125000397,
          "velocity": 0.7874015748031497,
          "duration": 0.1260963020833401
        },
        {
          "name": "A#4",
          "midi": 70,
          "time": 202.11044244792066,
          "velocity": 0.7874015748031497,
          "duration": 0.1260963020833401
        },
        {
          "name": "D#5",
          "midi": 75,
          "time": 202.236538750004,
          "velocity": 0.7874015748031497,
          "duration": 0.1260963020833401
        },
        {
          "name": "A#4",
          "midi": 70,
          "time": 202.36811750000402,
          "velocity": 0.7874015748031497,
          "duration": 0.1260963020833401
        },
        {
          "name": "G#5",
          "midi": 80,
          "time": 202.49969625000404,
          "velocity": 0.7874015748031497,
          "duration": 0.1260963020833401
        },
        {
          "name": "D#5",
          "midi": 75,
          "time": 202.63127500000405,
          "velocity": 0.7874015748031497,
          "duration": 0.3892538020833456
        },
        {
          "name": "A#4",
          "midi": 70,
          "time": 202.63127500000405,
          "velocity": 0.7874015748031497,
          "duration": 0.3892538020833456
        },
        {
          "name": "A#4",
          "midi": 70,
          "time": 203.02601125000407,
          "velocity": 0.7874015748031497,
          "duration": 0.1260963020833401
        },
        {
          "name": "D#5",
          "midi": 75,
          "time": 203.02601125000407,
          "velocity": 0.7874015748031497,
          "duration": 0.1260963020833401
        },
        {
          "name": "D#5",
          "midi": 75,
          "time": 203.1575900000041,
          "velocity": 0.7874015748031497,
          "duration": 0.25767505208332864
        },
        {
          "name": "A#4",
          "midi": 70,
          "time": 203.1575900000041,
          "velocity": 0.7874015748031497,
          "duration": 0.25767505208332864
        },
        {
          "name": "D#5",
          "midi": 75,
          "time": 203.4207475000041,
          "velocity": 0.7874015748031497,
          "duration": 0.1260963020833401
        },
        {
          "name": "A#4",
          "midi": 70,
          "time": 203.4207475000041,
          "velocity": 0.7874015748031497,
          "duration": 0.1260963020833401
        },
        {
          "name": "A#4",
          "midi": 70,
          "time": 203.5523262500041,
          "velocity": 0.7874015748031497,
          "duration": 0.1260963020833401
        },
        {
          "name": "D#5",
          "midi": 75,
          "time": 203.5523262500041,
          "velocity": 0.7874015748031497,
          "duration": 0.1260963020833401
        },
        {
          "name": "F5",
          "midi": 77,
          "time": 203.68390500000413,
          "velocity": 0.7874015748031497,
          "duration": 0.1260963020833401
        },
        {
          "name": "C5",
          "midi": 72,
          "time": 203.68390500000413,
          "velocity": 0.7874015748031497,
          "duration": 0.1260963020833401
        },
        {
          "name": "C5",
          "midi": 72,
          "time": 203.81548375000415,
          "velocity": 0.7874015748031497,
          "duration": 0.1260963020833401
        },
        {
          "name": "F5",
          "midi": 77,
          "time": 203.81548375000415,
          "velocity": 0.7874015748031497,
          "duration": 0.1260963020833401
        },
        {
          "name": "A#4",
          "midi": 70,
          "time": 203.94706250000417,
          "velocity": 0.7874015748031497,
          "duration": 0.1260963020833401
        },
        {
          "name": "D#5",
          "midi": 75,
          "time": 203.94706250000417,
          "velocity": 0.7874015748031497,
          "duration": 0.1260963020833401
        },
        {
          "name": "D#5",
          "midi": 75,
          "time": 204.07864125000418,
          "velocity": 0.7874015748031497,
          "duration": 0.1260963020833401
        },
        {
          "name": "A#4",
          "midi": 70,
          "time": 204.07864125000418,
          "velocity": 0.7874015748031497,
          "duration": 0.1260963020833401
        },
        {
          "name": "A#5",
          "midi": 82,
          "time": 204.2102200000042,
          "velocity": 0.7874015748031497,
          "duration": 0.389253802083374
        },
        {
          "name": "A#5",
          "midi": 82,
          "time": 204.60495625000425,
          "velocity": 0.7874015748031497,
          "duration": 0.1260963020833401
        },
        {
          "name": "A#5",
          "midi": 82,
          "time": 204.73653500000427,
          "velocity": 0.7874015748031497,
          "duration": 0.25767505208335706
        },
        {
          "name": "A#5",
          "midi": 82,
          "time": 204.9996925000043,
          "velocity": 0.7874015748031497,
          "duration": 0.25767505208335706
        },
        {
          "name": "A#5",
          "midi": 82,
          "time": 205.26285000000433,
          "velocity": 0.7874015748031497,
          "duration": 0.520832552083391
        },
        {
          "name": "A#5",
          "midi": 82,
          "time": 205.7891650000044,
          "velocity": 0.7874015748031497,
          "duration": 0.25767505208335706
        },
        {
          "name": "A#5",
          "midi": 82,
          "time": 206.05232250000444,
          "velocity": 0.7874015748031497,
          "duration": 0.1260963020833401
        },
        {
          "name": "A#5",
          "midi": 82,
          "time": 206.18390125000445,
          "velocity": 0.7874015748031497,
          "duration": 0.1260963020833401
        },
        {
          "name": "A#5",
          "midi": 82,
          "time": 206.31548000000447,
          "velocity": 0.7874015748031497,
          "duration": 0.25767505208335706
        },
        {
          "name": "A#5",
          "midi": 82,
          "time": 206.5786375000045,
          "velocity": 0.7874015748031497,
          "duration": 0.25767505208335706
        },
        {
          "name": "A#5",
          "midi": 82,
          "time": 206.84179500000454,
          "velocity": 0.7874015748031497,
          "duration": 0.25767505208335706
        },
        {
          "name": "A#5",
          "midi": 82,
          "time": 207.10495250000457,
          "velocity": 0.7874015748031497,
          "duration": 0.25767505208335706
        },
        {
          "name": "B5",
          "midi": 83,
          "time": 207.3681100000046,
          "velocity": 0.7874015748031497,
          "duration": 1.1787263020834473
        },
        {
          "name": "C6",
          "midi": 84,
          "time": 208.68389750000472,
          "velocity": 0.7874015748031497,
          "duration": 0.25767505208335706
        },
        {
          "name": "C6",
          "midi": 84,
          "time": 208.94705500000475,
          "velocity": 0.7874015748031497,
          "duration": 0.25767505208332864
        },
        {
          "name": "C6",
          "midi": 84,
          "time": 209.21021250000476,
          "velocity": 0.7874015748031497,
          "duration": 0.25767505208332864
        },
        {
          "name": "C#6",
          "midi": 85,
          "time": 209.47337000000476,
          "velocity": 0.7874015748031497,
          "duration": 0.7839900520834249
        },
        {
          "name": "C#6",
          "midi": 85,
          "time": 210.26284250000487,
          "velocity": 0.7874015748031497,
          "duration": 0.25767505208332864
        },
        {
          "name": "C#6",
          "midi": 85,
          "time": 210.52600000000487,
          "velocity": 0.7874015748031497,
          "duration": 0.25767505208332864
        },
        {
          "name": "C#6",
          "midi": 85,
          "time": 210.78915750000488,
          "velocity": 0.7874015748031497,
          "duration": 0.2576750520833855
        },
        {
          "name": "C#6",
          "midi": 85,
          "time": 211.05231500000494,
          "velocity": 0.7874015748031497,
          "duration": 0.2576750520833855
        },
        {
          "name": "B5",
          "midi": 83,
          "time": 211.315472500005,
          "velocity": 0.7874015748031497,
          "duration": 0.25767505208332864
        },
        {
          "name": "C6",
          "midi": 84,
          "time": 211.578630000005,
          "velocity": 0.7874015748031497,
          "duration": 1.0471475520834588
        },
        {
          "name": "A5",
          "midi": 81,
          "time": 212.89441750000515,
          "velocity": 0.7874015748031497,
          "duration": 0.25767505208335706
        },
        {
          "name": "B5",
          "midi": 83,
          "time": 213.15757500000518,
          "velocity": 0.7874015748031497,
          "duration": 0.25767505208332864
        },
        {
          "name": "B5",
          "midi": 83,
          "time": 213.4207325000052,
          "velocity": 0.7874015748031497,
          "duration": 0.25767505208332864
        },
        {
          "name": "B5",
          "midi": 83,
          "time": 213.6838900000052,
          "velocity": 0.7874015748031497,
          "duration": 1.0471475520834588
        },
        {
          "name": "A5",
          "midi": 81,
          "time": 214.73652000000533,
          "velocity": 0.7874015748031497,
          "duration": 0.25767505208335706
        },
        {
          "name": "A5",
          "midi": 81,
          "time": 214.99967750000536,
          "velocity": 0.7874015748031497,
          "duration": 0.25767505208335706
        },
        {
          "name": "A5",
          "midi": 81,
          "time": 215.2628350000054,
          "velocity": 0.7874015748031497,
          "duration": 0.25767505208335706
        },
        {
          "name": "A5",
          "midi": 81,
          "time": 215.52599250000543,
          "velocity": 0.7874015748031497,
          "duration": 0.25767505208335706
        },
        {
          "name": "A#5",
          "midi": 82,
          "time": 215.78915000000546,
          "velocity": 0.7874015748031497,
          "duration": 1.0471475520834588
        },
        {
          "name": "B5",
          "midi": 83,
          "time": 217.10493750000558,
          "velocity": 0.7874015748031497,
          "duration": 0.17543833333334646
        },
        {
          "name": "B5",
          "midi": 83,
          "time": 217.36809500000558,
          "velocity": 0.7874015748031497,
          "duration": 0.17543833333334646
        },
        {
          "name": "B5",
          "midi": 83,
          "time": 217.6312525000056,
          "velocity": 0.7874015748031497,
          "duration": 0.17543833333334646
        },
        {
          "name": "D6",
          "midi": 86,
          "time": 217.8944100000056,
          "velocity": 0.7874015748031497,
          "duration": 0.17543833333334646
        },
        {
          "name": "D6",
          "midi": 86,
          "time": 218.1575675000056,
          "velocity": 0.7874015748031497,
          "duration": 0.08771916666665902
        },
        {
          "name": "D6",
          "midi": 86,
          "time": 218.2891462500056,
          "velocity": 0.7874015748031497,
          "duration": 0.08771916666665902
        },
        {
          "name": "D6",
          "midi": 86,
          "time": 218.42072500000558,
          "velocity": 0.7874015748031497,
          "duration": 0.08771916666665902
        },
        {
          "name": "D6",
          "midi": 86,
          "time": 218.55230375000556,
          "velocity": 0.7874015748031497,
          "duration": 0.08771916666665902
        },
        {
          "name": "D6",
          "midi": 86,
          "time": 218.68388250000555,
          "velocity": 0.7874015748031497,
          "duration": 0.17543833333334646
        },
        {
          "name": "D#6",
          "midi": 87,
          "time": 218.95252244792223,
          "velocity": 0.7874015748031497,
          "duration": 0.17543833333334646
        },
        {
          "name": "D#6",
          "midi": 87,
          "time": 219.2101975000056,
          "velocity": 0.7874015748031497,
          "duration": 0.17543833333334646
        },
        {
          "name": "E6",
          "midi": 88,
          "time": 219.4733550000056,
          "velocity": 0.7874015748031497,
          "duration": 0.3508766666666929
        },
        {
          "name": "F6",
          "midi": 89,
          "time": 219.99967000000564,
          "velocity": 0.7874015748031497,
          "duration": 0.0877191666666306
        },
        {
          "name": "F6",
          "midi": 89,
          "time": 220.1312487500056,
          "velocity": 0.7874015748031497,
          "duration": 0.08771916666665902
        },
        {
          "name": "F6",
          "midi": 89,
          "time": 220.26282750000559,
          "velocity": 0.7874015748031497,
          "duration": 0.08771916666665902
        },
        {
          "name": "F6",
          "midi": 89,
          "time": 220.39440625000557,
          "velocity": 0.7874015748031497,
          "duration": 0.08771916666665902
        },
        {
          "name": "F6",
          "midi": 89,
          "time": 220.52598500000556,
          "velocity": 0.7874015748031497,
          "duration": 0.08771916666665902
        },
        {
          "name": "F6",
          "midi": 89,
          "time": 220.65756375000555,
          "velocity": 0.7874015748031497,
          "duration": 0.08771916666665902
        },
        {
          "name": "F6",
          "midi": 89,
          "time": 220.78914250000554,
          "velocity": 0.7874015748031497,
          "duration": 0.08771916666665902
        },
        {
          "name": "A#6",
          "midi": 94,
          "time": 220.92072125000553,
          "velocity": 0.7874015748031497,
          "duration": 0.08771916666665902
        },
        {
          "name": "A#6",
          "midi": 94,
          "time": 221.05230000000552,
          "velocity": 0.7874015748031497,
          "duration": 0.25767505208335706
        },
        {
          "name": "A#6",
          "midi": 94,
          "time": 221.31545750000555,
          "velocity": 0.7874015748031497,
          "duration": 0.1260963020833401
        },
        {
          "name": "A#6",
          "midi": 94,
          "time": 221.44703625000557,
          "velocity": 0.7874015748031497,
          "duration": 0.1260963020833401
        },
        {
          "name": "A#6",
          "midi": 94,
          "time": 221.57861500000558,
          "velocity": 0.7874015748031497,
          "duration": 0.1260963020833401
        },
        {
          "name": "A#6",
          "midi": 94,
          "time": 221.7101937500056,
          "velocity": 0.7874015748031497,
          "duration": 0.1260963020833401
        },
        {
          "name": "A#6",
          "midi": 94,
          "time": 221.84177250000562,
          "velocity": 0.7874015748031497,
          "duration": 0.1260963020833401
        },
        {
          "name": "A#6",
          "midi": 94,
          "time": 221.97335125000563,
          "velocity": 0.7874015748031497,
          "duration": 0.1260963020833401
        },
        {
          "name": "A#6",
          "midi": 94,
          "time": 222.10493000000565,
          "velocity": 0.7874015748031497,
          "duration": 0.1260963020833401
        },
        {
          "name": "A#6",
          "midi": 94,
          "time": 222.23650875000567,
          "velocity": 0.7874015748031497,
          "duration": 0.1260963020833401
        },
        {
          "name": "A#6",
          "midi": 94,
          "time": 222.3680875000057,
          "velocity": 0.7874015748031497,
          "duration": 0.1260963020833401
        },
        {
          "name": "A#6",
          "midi": 94,
          "time": 222.4996662500057,
          "velocity": 0.7874015748031497,
          "duration": 0.1260963020833401
        },
        {
          "name": "A#6",
          "midi": 94,
          "time": 222.63124500000572,
          "velocity": 0.7874015748031497,
          "duration": 0.1260963020833401
        },
        {
          "name": "A#6",
          "midi": 94,
          "time": 222.76282375000574,
          "velocity": 0.7874015748031497,
          "duration": 0.1260963020833401
        },
        {
          "name": "A#6",
          "midi": 94,
          "time": 222.89440250000575,
          "velocity": 0.7874015748031497,
          "duration": 0.1260963020833401
        },
        {
          "name": "A#6",
          "midi": 94,
          "time": 223.02598125000577,
          "velocity": 0.7874015748031497,
          "duration": 0.1260963020833401
        },
        {
          "name": "A#6",
          "midi": 94,
          "time": 223.1575600000058,
          "velocity": 0.7874015748031497,
          "duration": 0.1260963020833401
        },
        {
          "name": "A#6",
          "midi": 94,
          "time": 223.2891387500058,
          "velocity": 0.7874015748031497,
          "duration": 0.12609630208336853
        },
        {
          "name": "A#6",
          "midi": 94,
          "time": 223.42071750000585,
          "velocity": 0.7874015748031497,
          "duration": 0.1260963020833401
        },
        {
          "name": "A#6",
          "midi": 94,
          "time": 223.55229625000587,
          "velocity": 0.7874015748031497,
          "duration": 0.1260963020833401
        },
        {
          "name": "A#6",
          "midi": 94,
          "time": 223.68387500000588,
          "velocity": 0.7874015748031497,
          "duration": 0.1260963020833401
        },
        {
          "name": "A#6",
          "midi": 94,
          "time": 223.8154537500059,
          "velocity": 0.7874015748031497,
          "duration": 0.1260963020833401
        },
        {
          "name": "A#6",
          "midi": 94,
          "time": 223.94703250000592,
          "velocity": 0.7874015748031497,
          "duration": 0.1260963020833401
        },
        {
          "name": "A#6",
          "midi": 94,
          "time": 224.07861125000593,
          "velocity": 0.7874015748031497,
          "duration": 0.1260963020833401
        },
        {
          "name": "A#6",
          "midi": 94,
          "time": 224.21019000000595,
          "velocity": 0.7874015748031497,
          "duration": 0.1260963020833401
        },
        {
          "name": "A#6",
          "midi": 94,
          "time": 224.34176875000597,
          "velocity": 0.7874015748031497,
          "duration": 0.1260963020833401
        },
        {
          "name": "A#6",
          "midi": 94,
          "time": 224.47334750000599,
          "velocity": 0.7874015748031497,
          "duration": 0.1260963020833401
        },
        {
          "name": "A#6",
          "midi": 94,
          "time": 224.604926250006,
          "velocity": 0.7874015748031497,
          "duration": 0.1260963020833401
        },
        {
          "name": "A#6",
          "midi": 94,
          "time": 224.73650500000602,
          "velocity": 0.7874015748031497,
          "duration": 0.1260963020833401
        },
        {
          "name": "A#6",
          "midi": 94,
          "time": 224.86808375000604,
          "velocity": 0.7874015748031497,
          "duration": 0.1260963020833401
        },
        {
          "name": "A#6",
          "midi": 94,
          "time": 224.99966250000605,
          "velocity": 0.7874015748031497,
          "duration": 0.1260963020833401
        },
        {
          "name": "A#6",
          "midi": 94,
          "time": 225.13124125000607,
          "velocity": 0.7874015748031497,
          "duration": 0.1260963020833401
        },
        {
          "name": "A#6",
          "midi": 94,
          "time": 225.2628200000061,
          "velocity": 0.7874015748031497,
          "duration": 0.1260963020833401
        },
        {
          "name": "A#6",
          "midi": 94,
          "time": 225.3943987500061,
          "velocity": 0.7874015748031497,
          "duration": 0.1260963020833401
        },
        {
          "name": "A#6",
          "midi": 94,
          "time": 225.52597750000612,
          "velocity": 0.7874015748031497,
          "duration": 0.1260963020833401
        },
        {
          "name": "A#6",
          "midi": 94,
          "time": 225.65755625000614,
          "velocity": 0.7874015748031497,
          "duration": 0.1260963020833401
        },
        {
          "name": "A#6",
          "midi": 94,
          "time": 225.78913500000615,
          "velocity": 0.7874015748031497,
          "duration": 0.1260963020833401
        },
        {
          "name": "A#6",
          "midi": 94,
          "time": 225.92071375000617,
          "velocity": 0.7874015748031497,
          "duration": 0.1260963020833401
        },
        {
          "name": "A#6",
          "midi": 94,
          "time": 226.0522925000062,
          "velocity": 0.7874015748031497,
          "duration": 0.1260963020833401
        },
        {
          "name": "A#6",
          "midi": 94,
          "time": 226.1838712500062,
          "velocity": 0.7874015748031497,
          "duration": 0.1260963020833401
        },
        {
          "name": "A#6",
          "midi": 94,
          "time": 226.31545000000622,
          "velocity": 0.7874015748031497,
          "duration": 0.1260963020833401
        },
        {
          "name": "A#6",
          "midi": 94,
          "time": 226.44702875000624,
          "velocity": 0.7874015748031497,
          "duration": 0.1260963020833401
        },
        {
          "name": "A#6",
          "midi": 94,
          "time": 226.57860750000626,
          "velocity": 0.7874015748031497,
          "duration": 0.1260963020833401
        },
        {
          "name": "A#6",
          "midi": 94,
          "time": 226.71018625000627,
          "velocity": 0.7874015748031497,
          "duration": 0.1260963020833401
        },
        {
          "name": "B6",
          "midi": 95,
          "time": 226.8417650000063,
          "velocity": 0.7874015748031497,
          "duration": 0.520832552083391
        },
        {
          "name": "B6",
          "midi": 95,
          "time": 227.36808000000636,
          "velocity": 0.7874015748031497,
          "duration": 0.25767505208335706
        },
        {
          "name": "B6",
          "midi": 95,
          "time": 227.6312375000064,
          "velocity": 0.7874015748031497,
          "duration": 0.1260963020833401
        },
        {
          "name": "B6",
          "midi": 95,
          "time": 227.7628162500064,
          "velocity": 0.7874015748031497,
          "duration": 0.1260963020833401
        },
        {
          "name": "B6",
          "midi": 95,
          "time": 227.89439500000643,
          "velocity": 0.7874015748031497,
          "duration": 0.25767505208335706
        },
        {
          "name": "B6",
          "midi": 95,
          "time": 228.15755250000646,
          "velocity": 0.7874015748031497,
          "duration": 0.1260963020833401
        },
        {
          "name": "B6",
          "midi": 95,
          "time": 228.28913125000648,
          "velocity": 0.7874015748031497,
          "duration": 0.1260963020833401
        },
        {
          "name": "B6",
          "midi": 95,
          "time": 228.4207100000065,
          "velocity": 0.7874015748031497,
          "duration": 0.1260963020833401
        },
        {
          "name": "B6",
          "midi": 95,
          "time": 228.5522887500065,
          "velocity": 0.7874015748031497,
          "duration": 0.1260963020833401
        },
        {
          "name": "B6",
          "midi": 95,
          "time": 228.68386750000653,
          "velocity": 0.7874015748031497,
          "duration": 0.1260963020833401
        },
        {
          "name": "B6",
          "midi": 95,
          "time": 228.81544625000654,
          "velocity": 0.7874015748031497,
          "duration": 0.1260963020833401
        },
        {
          "name": "B6",
          "midi": 95,
          "time": 228.94702500000656,
          "velocity": 0.7874015748031497,
          "duration": 0.1260963020833401
        },
        {
          "name": "B6",
          "midi": 95,
          "time": 229.07860375000658,
          "velocity": 0.7874015748031497,
          "duration": 0.1260963020833401
        },
        {
          "name": "B6",
          "midi": 95,
          "time": 229.2101825000066,
          "velocity": 0.7874015748031497,
          "duration": 0.1260963020833401
        },
        {
          "name": "B6",
          "midi": 95,
          "time": 229.3417612500066,
          "velocity": 0.7874015748031497,
          "duration": 0.1260963020833401
        },
        {
          "name": "B6",
          "midi": 95,
          "time": 229.47334000000663,
          "velocity": 0.7874015748031497,
          "duration": 0.25767505208335706
        },
        {
          "name": "B6",
          "midi": 95,
          "time": 229.73649750000666,
          "velocity": 0.7874015748031497,
          "duration": 0.1260963020833401
        },
        {
          "name": "B6",
          "midi": 95,
          "time": 229.86807625000668,
          "velocity": 0.7874015748031497,
          "duration": 0.1260963020833401
        },
        {
          "name": "B6",
          "midi": 95,
          "time": 229.9996550000067,
          "velocity": 0.7874015748031497,
          "duration": 0.25767505208335706
        },
        {
          "name": "B6",
          "midi": 95,
          "time": 230.26281250000673,
          "velocity": 0.7874015748031497,
          "duration": 0.1260963020833401
        },
        {
          "name": "B6",
          "midi": 95,
          "time": 230.39439125000675,
          "velocity": 0.7874015748031497,
          "duration": 0.1260963020833401
        },
        {
          "name": "B6",
          "midi": 95,
          "time": 230.52597000000677,
          "velocity": 0.7874015748031497,
          "duration": 0.1260963020833401
        },
        {
          "name": "B6",
          "midi": 95,
          "time": 230.65754875000678,
          "velocity": 0.7874015748031497,
          "duration": 0.1260963020833401
        },
        {
          "name": "B6",
          "midi": 95,
          "time": 230.7891275000068,
          "velocity": 0.7874015748031497,
          "duration": 0.1260963020833401
        },
        {
          "name": "B6",
          "midi": 95,
          "time": 230.92070625000682,
          "velocity": 0.7874015748031497,
          "duration": 0.1260963020833401
        },
        {
          "name": "B6",
          "midi": 95,
          "time": 231.05228500000683,
          "velocity": 0.7874015748031497,
          "duration": 0.520832552083391
        },
        {
          "name": "B6",
          "midi": 95,
          "time": 231.5786000000069,
          "velocity": 0.7874015748031497,
          "duration": 0.25767505208335706
        },
        {
          "name": "B6",
          "midi": 95,
          "time": 231.84175750000693,
          "velocity": 0.7874015748031497,
          "duration": 0.1260963020833401
        },
        {
          "name": "B6",
          "midi": 95,
          "time": 231.97333625000695,
          "velocity": 0.7874015748031497,
          "duration": 0.1260963020833401
        },
        {
          "name": "B6",
          "midi": 95,
          "time": 232.10491500000697,
          "velocity": 0.7874015748031497,
          "duration": 0.1260963020833401
        },
        {
          "name": "B6",
          "midi": 95,
          "time": 232.23649375000699,
          "velocity": 0.7874015748031497,
          "duration": 0.1260963020833401
        },
        {
          "name": "B6",
          "midi": 95,
          "time": 232.368072500007,
          "velocity": 0.7874015748031497,
          "duration": 0.1260963020833401
        },
        {
          "name": "B6",
          "midi": 95,
          "time": 232.49965125000702,
          "velocity": 0.7874015748031497,
          "duration": 0.1260963020833401
        },
        {
          "name": "B6",
          "midi": 95,
          "time": 232.63123000000704,
          "velocity": 0.7874015748031497,
          "duration": 0.1260963020833401
        },
        {
          "name": "B6",
          "midi": 95,
          "time": 232.76280875000705,
          "velocity": 0.7874015748031497,
          "duration": 0.1260963020833401
        },
        {
          "name": "B6",
          "midi": 95,
          "time": 232.89438750000707,
          "velocity": 0.7874015748031497,
          "duration": 0.1260963020833401
        },
        {
          "name": "B6",
          "midi": 95,
          "time": 233.0259662500071,
          "velocity": 0.7874015748031497,
          "duration": 0.1260963020833401
        },
        {
          "name": "B6",
          "midi": 95,
          "time": 233.1575450000071,
          "velocity": 0.7874015748031497,
          "duration": 0.1260963020833401
        },
        {
          "name": "B6",
          "midi": 95,
          "time": 233.28912375000712,
          "velocity": 0.7874015748031497,
          "duration": 0.1260963020833401
        },
        {
          "name": "B6",
          "midi": 95,
          "time": 233.42070250000714,
          "velocity": 0.7874015748031497,
          "duration": 0.1260963020833401
        },
        {
          "name": "B6",
          "midi": 95,
          "time": 233.55228125000716,
          "velocity": 0.7874015748031497,
          "duration": 0.1260963020833401
        },
        {
          "name": "B6",
          "midi": 95,
          "time": 233.68386000000717,
          "velocity": 0.7874015748031497,
          "duration": 0.25767505208335706
        },
        {
          "name": "B6",
          "midi": 95,
          "time": 233.9470175000072,
          "velocity": 0.7874015748031497,
          "duration": 0.1260963020833401
        },
        {
          "name": "B6",
          "midi": 95,
          "time": 234.07859625000722,
          "velocity": 0.7874015748031497,
          "duration": 0.1260963020833401
        },
        {
          "name": "A#6",
          "midi": 94,
          "time": 234.21017500000724,
          "velocity": 0.7874015748031497,
          "duration": 0.1260963020833401
        },
        {
          "name": "A#6",
          "midi": 94,
          "time": 234.34175375000726,
          "velocity": 0.7874015748031497,
          "duration": 0.1260963020833401
        },
        {
          "name": "A#6",
          "midi": 94,
          "time": 234.47333250000727,
          "velocity": 0.7874015748031497,
          "duration": 0.1260963020833401
        },
        {
          "name": "A#6",
          "midi": 94,
          "time": 234.6049112500073,
          "velocity": 0.7874015748031497,
          "duration": 0.1260963020833401
        },
        {
          "name": "A#6",
          "midi": 94,
          "time": 234.7364900000073,
          "velocity": 0.7874015748031497,
          "duration": 0.1260963020833401
        },
        {
          "name": "A#6",
          "midi": 94,
          "time": 234.86806875000732,
          "velocity": 0.7874015748031497,
          "duration": 0.1260963020833401
        },
        {
          "name": "A#6",
          "midi": 94,
          "time": 234.99964750000734,
          "velocity": 0.7874015748031497,
          "duration": 0.1260963020833401
        },
        {
          "name": "A#6",
          "midi": 94,
          "time": 235.13122625000736,
          "velocity": 0.7874015748031497,
          "duration": 0.1260963020833401
        },
        {
          "name": "A#6",
          "midi": 94,
          "time": 235.26280500000738,
          "velocity": 0.7874015748031497,
          "duration": 0.1260963020833401
        },
        {
          "name": "A#6",
          "midi": 94,
          "time": 235.3943837500074,
          "velocity": 0.7874015748031497,
          "duration": 0.1260963020833401
        },
        {
          "name": "A#6",
          "midi": 94,
          "time": 235.5259625000074,
          "velocity": 0.7874015748031497,
          "duration": 0.1260963020833401
        },
        {
          "name": "A#6",
          "midi": 94,
          "time": 235.65754125000743,
          "velocity": 0.7874015748031497,
          "duration": 0.1260963020833401
        },
        {
          "name": "A#6",
          "midi": 94,
          "time": 235.78912000000744,
          "velocity": 0.7874015748031497,
          "duration": 0.1260963020833401
        },
        {
          "name": "A#6",
          "midi": 94,
          "time": 235.92069875000746,
          "velocity": 0.7874015748031497,
          "duration": 0.1260963020833401
        },
        {
          "name": "A#6",
          "midi": 94,
          "time": 236.05227750000748,
          "velocity": 0.7874015748031497,
          "duration": 0.1260963020833401
        },
        {
          "name": "A#6",
          "midi": 94,
          "time": 236.1838562500075,
          "velocity": 0.7874015748031497,
          "duration": 0.1260963020833401
        },
        {
          "name": "A#6",
          "midi": 94,
          "time": 236.3154350000075,
          "velocity": 0.7874015748031497,
          "duration": 0.1260963020833401
        },
        {
          "name": "A#6",
          "midi": 94,
          "time": 236.44701375000753,
          "velocity": 0.7874015748031497,
          "duration": 0.1260963020833401
        },
        {
          "name": "A#6",
          "midi": 94,
          "time": 236.57859250000755,
          "velocity": 0.7874015748031497,
          "duration": 0.1260963020833401
        },
        {
          "name": "A#6",
          "midi": 94,
          "time": 236.71017125000756,
          "velocity": 0.7874015748031497,
          "duration": 0.1260963020833401
        },
        {
          "name": "A#6",
          "midi": 94,
          "time": 236.84175000000758,
          "velocity": 0.7874015748031497,
          "duration": 0.1260963020833401
        },
        {
          "name": "A#6",
          "midi": 94,
          "time": 236.9733287500076,
          "velocity": 0.7874015748031497,
          "duration": 0.1260963020833401
        },
        {
          "name": "A#6",
          "midi": 94,
          "time": 237.1049075000076,
          "velocity": 0.7874015748031497,
          "duration": 0.1260963020833401
        },
        {
          "name": "A#6",
          "midi": 94,
          "time": 237.23648625000763,
          "velocity": 0.7874015748031497,
          "duration": 0.1260963020833401
        },
        {
          "name": "A#6",
          "midi": 94,
          "time": 237.36806500000765,
          "velocity": 0.7874015748031497,
          "duration": 0.1260963020833401
        },
        {
          "name": "A#6",
          "midi": 94,
          "time": 237.49964375000766,
          "velocity": 0.7874015748031497,
          "duration": 0.1260963020833401
        },
        {
          "name": "A#6",
          "midi": 94,
          "time": 237.63122250000768,
          "velocity": 0.7874015748031497,
          "duration": 0.1260963020833401
        },
        {
          "name": "A#6",
          "midi": 94,
          "time": 237.7628012500077,
          "velocity": 0.7874015748031497,
          "duration": 0.1260963020833401
        },
        {
          "name": "B6",
          "midi": 95,
          "time": 237.89438000000771,
          "velocity": 0.7874015748031497,
          "duration": 0.25767505208335706
        },
        {
          "name": "B6",
          "midi": 95,
          "time": 238.15753750000775,
          "velocity": 0.7874015748031497,
          "duration": 0.1260963020833401
        },
        {
          "name": "B6",
          "midi": 95,
          "time": 238.28911625000777,
          "velocity": 0.7874015748031497,
          "duration": 0.1260963020833401
        },
        {
          "name": "B6",
          "midi": 95,
          "time": 238.42069500000778,
          "velocity": 0.7874015748031497,
          "duration": 0.25767505208335706
        },
        {
          "name": "B6",
          "midi": 95,
          "time": 238.68385250000782,
          "velocity": 0.7874015748031497,
          "duration": 0.25767505208335706
        },
        {
          "name": "B6",
          "midi": 95,
          "time": 238.94701000000785,
          "velocity": 0.7874015748031497,
          "duration": 0.1260963020833401
        },
        {
          "name": "B6",
          "midi": 95,
          "time": 239.07858875000787,
          "velocity": 0.7874015748031497,
          "duration": 0.1260963020833401
        },
        {
          "name": "B6",
          "midi": 95,
          "time": 239.21016750000788,
          "velocity": 0.7874015748031497,
          "duration": 0.1260963020833401
        },
        {
          "name": "B6",
          "midi": 95,
          "time": 239.3417462500079,
          "velocity": 0.7874015748031497,
          "duration": 0.1260963020833401
        },
        {
          "name": "A#6",
          "midi": 94,
          "time": 239.47332500000792,
          "velocity": 0.7874015748031497,
          "duration": 0.25767505208335706
        },
        {
          "name": "A#6",
          "midi": 94,
          "time": 239.73648250000795,
          "velocity": 0.7874015748031497,
          "duration": 0.1260963020833401
        },
        {
          "name": "A#6",
          "midi": 94,
          "time": 239.86806125000797,
          "velocity": 0.7874015748031497,
          "duration": 0.1260963020833401
        }
      ],
      "controlChanges": {
        "7": [
          {
            "number": 7,
            "time": 8.42104,
            "value": 0.6692913385826772
          },
          {
            "number": 7,
            "time": 18.947339999999993,
            "value": 0.31496062992125984
          },
          {
            "number": 7,
            "time": 21.842072499999993,
            "value": 0.47244094488188976
          },
          {
            "number": 7,
            "time": 23.421017499999984,
            "value": 0.31496062992125984
          },
          {
            "number": 7,
            "time": 26.052592499999975,
            "value": 0.47244094488188976
          },
          {
            "number": 7,
            "time": 27.894694999999967,
            "value": 0.31496062992125984
          },
          {
            "number": 7,
            "time": 30.263112499999966,
            "value": 0.47244094488188976
          },
          {
            "number": 7,
            "time": 31.578899999999962,
            "value": 0.31496062992125984
          },
          {
            "number": 7,
            "time": 33.68415999999998,
            "value": 0.23622047244094488
          },
          {
            "number": 7,
            "time": 34.47363249999998,
            "value": 0.47244094488188976
          },
          {
            "number": 7,
            "time": 35.78942,
            "value": 0.31496062992125984
          },
          {
            "number": 7,
            "time": 38.68415250000002,
            "value": 0.47244094488188976
          },
          {
            "number": 7,
            "time": 39.99994000000004,
            "value": 0.31496062992125984
          },
          {
            "number": 7,
            "time": 42.10520000000008,
            "value": 0.47244094488188976
          },
          {
            "number": 7,
            "time": 44.210460000000126,
            "value": 0.31496062992125984
          },
          {
            "number": 7,
            "time": 52.105185000000226,
            "value": 0.6299212598425197
          },
          {
            "number": 7,
            "time": 71.57884000000053,
            "value": 0.47244094488188976
          },
          {
            "number": 7,
            "time": 73.68410000000053,
            "value": 0.31496062992125984
          },
          {
            "number": 7,
            "time": 75.78936000000049,
            "value": 0.47244094488188976
          },
          {
            "number": 7,
            "time": 77.89462000000046,
            "value": 0.31496062992125984
          },
          {
            "number": 7,
            "time": 79.99988000000045,
            "value": 0.47244094488188976
          },
          {
            "number": 7,
            "time": 82.10514000000042,
            "value": 0.31496062992125984
          },
          {
            "number": 7,
            "time": 84.21040000000042,
            "value": 0.47244094488188976
          },
          {
            "number": 7,
            "time": 86.3156600000004,
            "value": 0.31496062992125984
          },
          {
            "number": 7,
            "time": 88.42092000000038,
            "value": 0.47244094488188976
          },
          {
            "number": 7,
            "time": 90.52618000000038,
            "value": 0.31496062992125984
          },
          {
            "number": 7,
            "time": 92.89459750000034,
            "value": 0.47244094488188976
          },
          {
            "number": 7,
            "time": 94.73670000000034,
            "value": 0.31496062992125984
          },
          {
            "number": 7,
            "time": 97.36827500000031,
            "value": 0.47244094488188976
          },
          {
            "number": 7,
            "time": 98.94722000000029,
            "value": 0.31496062992125984
          },
          {
            "number": 7,
            "time": 101.84195250000026,
            "value": 0.47244094488188976
          },
          {
            "number": 7,
            "time": 102.10511000000027,
            "value": 0.5118110236220472
          },
          {
            "number": 7,
            "time": 102.36826750000026,
            "value": 0.5511811023622047
          },
          {
            "number": 7,
            "time": 102.63142500000025,
            "value": 0.5905511811023622
          },
          {
            "number": 7,
            "time": 103.15774000000023,
            "value": 0.6299212598425197
          },
          {
            "number": 7,
            "time": 108.67856505208373,
            "value": 0.47244094488188976
          },
          {
            "number": 7,
            "time": 110.26299250000058,
            "value": 0.6299212598425197
          },
          {
            "number": 7,
            "time": 119.99982000000071,
            "value": 0.2283464566929134
          },
          {
            "number": 7,
            "time": 123.68402500000073,
            "value": 0.47244094488188976
          },
          {
            "number": 7,
            "time": 128.41537755208427,
            "value": 0.6299212598425197
          },
          {
            "number": 7,
            "time": 129.99432255208447,
            "value": 0.3543307086614173
          },
          {
            "number": 7,
            "time": 132.09958255208474,
            "value": 0.6299212598425197
          },
          {
            "number": 7,
            "time": 140.7892625000017,
            "value": 0.47244094488188976
          },
          {
            "number": 7,
            "time": 170.52606000000296,
            "value": 0.31496062992125984
          },
          {
            "number": 7,
            "time": 173.42079250000296,
            "value": 0.5118110236220472
          },
          {
            "number": 7,
            "time": 175.26289500000308,
            "value": 0.31496062992125984
          },
          {
            "number": 7,
            "time": 176.84184000000312,
            "value": 0.47244094488188976
          },
          {
            "number": 7,
            "time": 178.9471000000032,
            "value": 0.31496062992125984
          },
          {
            "number": 7,
            "time": 181.5731925520866,
            "value": 0.47244094488188976
          },
          {
            "number": 7,
            "time": 183.15762000000328,
            "value": 0.31496062992125984
          },
          {
            "number": 7,
            "time": 189.4734000000035,
            "value": 0.47244094488188976
          },
          {
            "number": 7,
            "time": 191.5786600000036,
            "value": 0.31496062992125984
          },
          {
            "number": 7,
            "time": 193.6839200000037,
            "value": 0.47244094488188976
          },
          {
            "number": 7,
            "time": 195.7891800000037,
            "value": 0.31496062992125984
          },
          {
            "number": 7,
            "time": 197.8944400000038,
            "value": 0.47244094488188976
          },
          {
            "number": 7,
            "time": 199.99970000000386,
            "value": 0.31496062992125984
          },
          {
            "number": 7,
            "time": 202.10496000000398,
            "value": 0.3937007874015748
          },
          {
            "number": 7,
            "time": 204.2102200000042,
            "value": 0.6299212598425197
          },
          {
            "number": 7,
            "time": 218.94704000000556,
            "value": 0.6299212598425197
          },
          {
            "number": 7,
            "time": 227.6312375000064,
            "value": 0.6141732283464567
          },
          {
            "number": 7,
            "time": 227.89439500000643,
            "value": 0.5984251968503937
          },
          {
            "number": 7,
            "time": 228.15755250000646,
            "value": 0.5826771653543307
          },
          {
            "number": 7,
            "time": 228.4207100000065,
            "value": 0.5669291338582677
          },
          {
            "number": 7,
            "time": 228.68386750000653,
            "value": 0.5511811023622047
          },
          {
            "number": 7,
            "time": 228.94702500000656,
            "value": 0.5354330708661418
          },
          {
            "number": 7,
            "time": 229.2101825000066,
            "value": 0.5196850393700787
          },
          {
            "number": 7,
            "time": 229.47334000000663,
            "value": 0.5039370078740157
          },
          {
            "number": 7,
            "time": 229.73649750000666,
            "value": 0.4881889763779528
          },
          {
            "number": 7,
            "time": 229.9996550000067,
            "value": 0.47244094488188976
          },
          {
            "number": 7,
            "time": 230.26281250000673,
            "value": 0.4566929133858268
          },
          {
            "number": 7,
            "time": 230.52597000000677,
            "value": 0.4409448818897638
          },
          {
            "number": 7,
            "time": 230.7891275000068,
            "value": 0.4251968503937008
          },
          {
            "number": 7,
            "time": 231.05228500000683,
            "value": 0.4094488188976378
          },
          {
            "number": 7,
            "time": 231.5786000000069,
            "value": 0.3937007874015748
          },
          {
            "number": 7,
            "time": 231.84175750000693,
            "value": 0.3779527559055118
          },
          {
            "number": 7,
            "time": 232.10491500000697,
            "value": 0.36220472440944884
          },
          {
            "number": 7,
            "time": 232.368072500007,
            "value": 0.3464566929133858
          },
          {
            "number": 7,
            "time": 232.63123000000704,
            "value": 0.33070866141732286
          },
          {
            "number": 7,
            "time": 232.89438750000707,
            "value": 0.31496062992125984
          },
          {
            "number": 7,
            "time": 233.1575450000071,
            "value": 0.2992125984251969
          },
          {
            "number": 7,
            "time": 233.42070250000714,
            "value": 0.28346456692913385
          },
          {
            "number": 7,
            "time": 233.68386000000717,
            "value": 0.2677165354330709
          },
          {
            "number": 7,
            "time": 233.9470175000072,
            "value": 0.25196850393700787
          },
          {
            "number": 7,
            "time": 234.21017500000724,
            "value": 0.23622047244094488
          },
          {
            "number": 7,
            "time": 234.47333250000727,
            "value": 0.2204724409448819
          },
          {
            "number": 7,
            "time": 234.7364900000073,
            "value": 0.2047244094488189
          },
          {
            "number": 7,
            "time": 234.99964750000734,
            "value": 0.1889763779527559
          },
          {
            "number": 7,
            "time": 235.26280500000738,
            "value": 0.1732283464566929
          },
          {
            "number": 7,
            "time": 235.5259625000074,
            "value": 0.15748031496062992
          },
          {
            "number": 7,
            "time": 235.78912000000744,
            "value": 0.14173228346456693
          },
          {
            "number": 7,
            "time": 236.05227750000748,
            "value": 0.12598425196850394
          },
          {
            "number": 7,
            "time": 236.3154350000075,
            "value": 0.11023622047244094
          },
          {
            "number": 7,
            "time": 236.57859250000755,
            "value": 0.09448818897637795
          },
          {
            "number": 7,
            "time": 236.84175000000758,
            "value": 0.07086614173228346
          },
          {
            "number": 7,
            "time": 237.1049075000076,
            "value": 0.047244094488188976
          },
          {
            "number": 7,
            "time": 237.36806500000765,
            "value": 0.023622047244094488
          },
          {
            "number": 7,
            "time": 237.63122250000768,
            "value": 0
          }
        ]
      },
      "id": 2,
      "name": "Watchtower 1968",
      "instrumentNumber": 30,
      "instrument": "distortion guitar",
      "instrumentFamily": "guitar",
      "channelNumber": 1,
      "isPercussion": false
    },
    {
      "startTime": 1.3157874999999999,
      "duration": 239.99415755208872,
      "length": 990,
      "notes": [
        {
          "name": "A#1",
          "midi": 34,
          "time": 1.3157874999999999,
          "velocity": 0.7874015748031497,
          "duration": 0.2576750520833333
        },
        {
          "name": "A#1",
          "midi": 34,
          "time": 1.5789449999999998,
          "velocity": 0.7874015748031497,
          "duration": 0.2576750520833333
        },
        {
          "name": "C2",
          "midi": 36,
          "time": 1.8421024999999998,
          "velocity": 0.7874015748031497,
          "duration": 0.2576750520833335
        },
        {
          "name": "C2",
          "midi": 36,
          "time": 2.10526,
          "velocity": 0.7874015748031497,
          "duration": 0.2576750520833335
        },
        {
          "name": "C2",
          "midi": 36,
          "time": 2.3684175,
          "velocity": 0.7874015748031497,
          "duration": 0.2576750520833335
        },
        {
          "name": "C2",
          "midi": 36,
          "time": 2.631575,
          "velocity": 0.7874015748031497,
          "duration": 0.5208325520833332
        },
        {
          "name": "A#1",
          "midi": 34,
          "time": 3.4210475000000002,
          "velocity": 0.7874015748031497,
          "duration": 0.2576750520833331
        },
        {
          "name": "A#1",
          "midi": 34,
          "time": 3.684205,
          "velocity": 0.7874015748031497,
          "duration": 0.2576750520833335
        },
        {
          "name": "G#1",
          "midi": 32,
          "time": 3.9473625,
          "velocity": 0.7874015748031497,
          "duration": 0.2576750520833335
        },
        {
          "name": "G#1",
          "midi": 32,
          "time": 4.210520000000001,
          "velocity": 0.7874015748031497,
          "duration": 0.2576750520833331
        },
        {
          "name": "G#1",
          "midi": 32,
          "time": 4.473677500000001,
          "velocity": 0.7874015748031497,
          "duration": 0.2576750520833331
        },
        {
          "name": "G#1",
          "midi": 32,
          "time": 4.736835000000001,
          "velocity": 0.7874015748031497,
          "duration": 0.5208325520833332
        },
        {
          "name": "A#1",
          "midi": 34,
          "time": 5.526307500000001,
          "velocity": 0.7874015748031497,
          "duration": 0.2576750520833331
        },
        {
          "name": "A#1",
          "midi": 34,
          "time": 5.789465000000001,
          "velocity": 0.7874015748031497,
          "duration": 0.2576750520833331
        },
        {
          "name": "C2",
          "midi": 36,
          "time": 6.052622500000001,
          "velocity": 0.7874015748031497,
          "duration": 0.2576750520833331
        },
        {
          "name": "C2",
          "midi": 36,
          "time": 6.315780000000001,
          "velocity": 0.7874015748031497,
          "duration": 0.2576750520833331
        },
        {
          "name": "C2",
          "midi": 36,
          "time": 6.578937500000001,
          "velocity": 0.7874015748031497,
          "duration": 0.2576750520833331
        },
        {
          "name": "C2",
          "midi": 36,
          "time": 6.842095000000001,
          "velocity": 0.7874015748031497,
          "duration": 0.5208325520833332
        },
        {
          "name": "A#1",
          "midi": 34,
          "time": 7.631567500000001,
          "velocity": 0.7874015748031497,
          "duration": 0.2576750520833331
        },
        {
          "name": "A#1",
          "midi": 34,
          "time": 7.894725000000001,
          "velocity": 0.7874015748031497,
          "duration": 0.25767505208333397
        },
        {
          "name": "G#1",
          "midi": 32,
          "time": 8.157882500000001,
          "velocity": 0.7874015748031497,
          "duration": 0.25767505208333397
        },
        {
          "name": "G#1",
          "midi": 32,
          "time": 8.421040000000001,
          "velocity": 0.7874015748031497,
          "duration": 0.25767505208333397
        },
        {
          "name": "D#1",
          "midi": 27,
          "time": 8.684197500000002,
          "velocity": 0.7874015748031497,
          "duration": 0.126096302083333
        },
        {
          "name": "D#1",
          "midi": 27,
          "time": 8.81577625,
          "velocity": 0.7874015748031497,
          "duration": 0.126096302083333
        },
        {
          "name": "F1",
          "midi": 29,
          "time": 8.947355,
          "velocity": 0.7874015748031497,
          "duration": 0.25767505208333397
        },
        {
          "name": "F#1",
          "midi": 30,
          "time": 9.2105125,
          "velocity": 0.7874015748031497,
          "duration": 0.126096302083333
        },
        {
          "name": "F#1",
          "midi": 30,
          "time": 9.34209125,
          "velocity": 0.7874015748031497,
          "duration": 0.126096302083333
        },
        {
          "name": "F#1",
          "midi": 30,
          "time": 9.473669999999998,
          "velocity": 0.7874015748031497,
          "duration": 0.25767505208333397
        },
        {
          "name": "G1",
          "midi": 31,
          "time": 9.736827499999999,
          "velocity": 0.7874015748031497,
          "duration": 0.25767505208333397
        },
        {
          "name": "A#1",
          "midi": 34,
          "time": 9.999984999999999,
          "velocity": 0.7874015748031497,
          "duration": 0.25767505208333397
        },
        {
          "name": "B1",
          "midi": 35,
          "time": 10.263142499999999,
          "velocity": 0.7874015748031497,
          "duration": 0.25767505208333397
        },
        {
          "name": "C2",
          "midi": 36,
          "time": 10.526299999999999,
          "velocity": 0.7874015748031497,
          "duration": 0.5208325520833341
        },
        {
          "name": "C2",
          "midi": 36,
          "time": 11.052615,
          "velocity": 0.7874015748031497,
          "duration": 0.38925380208333316
        },
        {
          "name": "F1",
          "midi": 29,
          "time": 11.447351249999999,
          "velocity": 0.7874015748031497,
          "duration": 0.126096302083333
        },
        {
          "name": "A#1",
          "midi": 34,
          "time": 11.578929999999998,
          "velocity": 0.7874015748031497,
          "duration": 0.25767505208333397
        },
        {
          "name": "A#1",
          "midi": 34,
          "time": 11.842087499999998,
          "velocity": 0.7874015748031497,
          "duration": 0.5208325520833341
        },
        {
          "name": "A#1",
          "midi": 34,
          "time": 12.368402499999998,
          "velocity": 0.7874015748031497,
          "duration": 0.126096302083333
        },
        {
          "name": "A#1",
          "midi": 34,
          "time": 12.499981249999998,
          "velocity": 0.7874015748031497,
          "duration": 0.126096302083333
        },
        {
          "name": "G#1",
          "midi": 32,
          "time": 12.631559999999997,
          "velocity": 0.7874015748031497,
          "duration": 0.25767505208333397
        },
        {
          "name": "D#1",
          "midi": 27,
          "time": 12.894717499999997,
          "velocity": 0.7874015748031497,
          "duration": 0.25767505208333397
        },
        {
          "name": "F1",
          "midi": 29,
          "time": 13.157874999999997,
          "velocity": 0.7874015748031497,
          "duration": 0.38925380208333316
        },
        {
          "name": "F1",
          "midi": 29,
          "time": 13.552611249999996,
          "velocity": 0.7874015748031497,
          "duration": 0.126096302083333
        },
        {
          "name": "F#1",
          "midi": 30,
          "time": 13.684189999999996,
          "velocity": 0.7874015748031497,
          "duration": 0.25767505208333397
        },
        {
          "name": "G1",
          "midi": 31,
          "time": 13.947347499999996,
          "velocity": 0.7874015748031497,
          "duration": 0.25767505208333397
        },
        {
          "name": "A#1",
          "midi": 34,
          "time": 14.210504999999996,
          "velocity": 0.7874015748031497,
          "duration": 0.25767505208333397
        },
        {
          "name": "B1",
          "midi": 35,
          "time": 14.473662499999996,
          "velocity": 0.7874015748031497,
          "duration": 0.25767505208333397
        },
        {
          "name": "C2",
          "midi": 36,
          "time": 14.736819999999996,
          "velocity": 0.7874015748031497,
          "duration": 0.25767505208333397
        },
        {
          "name": "C2",
          "midi": 36,
          "time": 14.999977499999996,
          "velocity": 0.7874015748031497,
          "duration": 0.25767505208333397
        },
        {
          "name": "C2",
          "midi": 36,
          "time": 15.263134999999997,
          "velocity": 0.7874015748031497,
          "duration": 0.38925380208333316
        },
        {
          "name": "G#1",
          "midi": 32,
          "time": 15.657871249999996,
          "velocity": 0.7874015748031497,
          "duration": 0.126096302083333
        },
        {
          "name": "A#1",
          "midi": 34,
          "time": 15.789449999999995,
          "velocity": 0.7874015748031497,
          "duration": 0.2576750520833322
        },
        {
          "name": "F2",
          "midi": 41,
          "time": 16.052607499999993,
          "velocity": 0.7874015748031497,
          "duration": 0.2576750520833322
        },
        {
          "name": "A#2",
          "midi": 46,
          "time": 16.315764999999992,
          "velocity": 0.7874015748031497,
          "duration": 0.126096302083333
        },
        {
          "name": "A#2",
          "midi": 46,
          "time": 16.44734374999999,
          "velocity": 0.7874015748031497,
          "duration": 0.126096302083333
        },
        {
          "name": "F2",
          "midi": 41,
          "time": 16.57892249999999,
          "velocity": 0.7874015748031497,
          "duration": 0.2576750520833322
        },
        {
          "name": "G#1",
          "midi": 32,
          "time": 16.84207999999999,
          "velocity": 0.7874015748031497,
          "duration": 0.2576750520833322
        },
        {
          "name": "D#1",
          "midi": 27,
          "time": 17.105237499999987,
          "velocity": 0.7874015748031497,
          "duration": 0.2576750520833322
        },
        {
          "name": "F1",
          "midi": 29,
          "time": 17.368394999999985,
          "velocity": 0.7874015748031497,
          "duration": 0.5208325520833341
        },
        {
          "name": "F#1",
          "midi": 30,
          "time": 17.894709999999986,
          "velocity": 0.7874015748031497,
          "duration": 0.2576750520833322
        },
        {
          "name": "G1",
          "midi": 31,
          "time": 18.157867499999984,
          "velocity": 0.7874015748031497,
          "duration": 0.2576750520833322
        },
        {
          "name": "A#1",
          "midi": 34,
          "time": 18.421024999999982,
          "velocity": 0.7874015748031497,
          "duration": 0.2576750520833322
        },
        {
          "name": "B1",
          "midi": 35,
          "time": 18.68418249999998,
          "velocity": 0.7874015748031497,
          "duration": 0.2576750520833322
        },
        {
          "name": "C2",
          "midi": 36,
          "time": 18.94733999999998,
          "velocity": 0.7874015748031497,
          "duration": 0.5208325520833341
        },
        {
          "name": "F2",
          "midi": 41,
          "time": 19.86839124999998,
          "velocity": 0.7874015748031497,
          "duration": 0.126096302083333
        },
        {
          "name": "A#1",
          "midi": 34,
          "time": 19.99996999999998,
          "velocity": 0.7874015748031497,
          "duration": 0.2576750520833322
        },
        {
          "name": "A#1",
          "midi": 34,
          "time": 20.263127499999978,
          "velocity": 0.7874015748031497,
          "duration": 0.5208325520833341
        },
        {
          "name": "A#1",
          "midi": 34,
          "time": 20.78944249999998,
          "velocity": 0.7874015748031497,
          "duration": 0.2576750520833322
        },
        {
          "name": "G#1",
          "midi": 32,
          "time": 21.052599999999977,
          "velocity": 0.7874015748031497,
          "duration": 1.0471475520833344
        },
        {
          "name": "G#2",
          "midi": 44,
          "time": 22.105229999999978,
          "velocity": 0.7874015748031497,
          "duration": 0.2576750520833322
        },
        {
          "name": "A#1",
          "midi": 34,
          "time": 22.368387499999976,
          "velocity": 0.7874015748031497,
          "duration": 0.126096302083333
        },
        {
          "name": "A#1",
          "midi": 34,
          "time": 22.499966249999975,
          "velocity": 0.7874015748031497,
          "duration": 0.126096302083333
        },
        {
          "name": "A#1",
          "midi": 34,
          "time": 22.631544999999974,
          "velocity": 0.7874015748031497,
          "duration": 0.126096302083333
        },
        {
          "name": "A#1",
          "midi": 34,
          "time": 22.763123749999973,
          "velocity": 0.7874015748031497,
          "duration": 0.126096302083333
        },
        {
          "name": "B1",
          "midi": 35,
          "time": 22.894702499999973,
          "velocity": 0.7874015748031497,
          "duration": 0.2576750520833322
        },
        {
          "name": "C2",
          "midi": 36,
          "time": 23.15785999999997,
          "velocity": 0.7874015748031497,
          "duration": 0.9155688020833317
        },
        {
          "name": "F2",
          "midi": 41,
          "time": 24.07891124999997,
          "velocity": 0.7874015748031497,
          "duration": 0.126096302083333
        },
        {
          "name": "A#1",
          "midi": 34,
          "time": 24.210489999999968,
          "velocity": 0.7874015748031497,
          "duration": 0.2576750520833322
        },
        {
          "name": "A#1",
          "midi": 34,
          "time": 24.473647499999966,
          "velocity": 0.7874015748031497,
          "duration": 0.38925380208333493
        },
        {
          "name": "F2",
          "midi": 41,
          "time": 24.868383749999968,
          "velocity": 0.7874015748031497,
          "duration": 0.126096302083333
        },
        {
          "name": "A#1",
          "midi": 34,
          "time": 24.999962499999967,
          "velocity": 0.7874015748031497,
          "duration": 0.2576750520833322
        },
        {
          "name": "G#1",
          "midi": 32,
          "time": 25.263119999999965,
          "velocity": 0.7874015748031497,
          "duration": 0.2576750520833322
        },
        {
          "name": "G#1",
          "midi": 32,
          "time": 25.526277499999964,
          "velocity": 0.7874015748031497,
          "duration": 0.6524113020833333
        },
        {
          "name": "D#2",
          "midi": 39,
          "time": 26.184171249999963,
          "velocity": 0.7874015748031497,
          "duration": 0.126096302083333
        },
        {
          "name": "G#2",
          "midi": 44,
          "time": 26.315749999999962,
          "velocity": 0.7874015748031497,
          "duration": 0.2576750520833322
        },
        {
          "name": "A#1",
          "midi": 34,
          "time": 26.57890749999996,
          "velocity": 0.7874015748031497,
          "duration": 0.2576750520833322
        },
        {
          "name": "A#1",
          "midi": 34,
          "time": 26.84206499999996,
          "velocity": 0.7874015748031497,
          "duration": 0.126096302083333
        },
        {
          "name": "A#1",
          "midi": 34,
          "time": 26.973643749999958,
          "velocity": 0.7874015748031497,
          "duration": 0.126096302083333
        },
        {
          "name": "B1",
          "midi": 35,
          "time": 27.105222499999957,
          "velocity": 0.7874015748031497,
          "duration": 0.126096302083333
        },
        {
          "name": "B1",
          "midi": 35,
          "time": 27.236801249999957,
          "velocity": 0.7874015748031497,
          "duration": 0.126096302083333
        },
        {
          "name": "C2",
          "midi": 36,
          "time": 27.368379999999956,
          "velocity": 0.7874015748031497,
          "duration": 0.9155688020833317
        },
        {
          "name": "F2",
          "midi": 41,
          "time": 28.289431249999954,
          "velocity": 0.7874015748031497,
          "duration": 0.126096302083333
        },
        {
          "name": "A#1",
          "midi": 34,
          "time": 28.421009999999953,
          "velocity": 0.7874015748031497,
          "duration": 0.2576750520833322
        },
        {
          "name": "A#1",
          "midi": 34,
          "time": 28.68416749999995,
          "velocity": 0.7874015748031497,
          "duration": 0.38925380208333493
        },
        {
          "name": "F2",
          "midi": 41,
          "time": 29.078903749999952,
          "velocity": 0.7874015748031497,
          "duration": 0.126096302083333
        },
        {
          "name": "A#1",
          "midi": 34,
          "time": 29.21048249999995,
          "velocity": 0.7874015748031497,
          "duration": 0.2576750520833322
        },
        {
          "name": "G#1",
          "midi": 32,
          "time": 29.47363999999995,
          "velocity": 0.7874015748031497,
          "duration": 0.5208325520833341
        },
        {
          "name": "G#2",
          "midi": 44,
          "time": 29.99995499999995,
          "velocity": 0.7874015748031497,
          "duration": 0.126096302083333
        },
        {
          "name": "G#2",
          "midi": 44,
          "time": 30.26311249999995,
          "velocity": 0.7874015748031497,
          "duration": 0.16995588541666606
        },
        {
          "name": "G#2",
          "midi": 44,
          "time": 30.433068385416615,
          "velocity": 0.7874015748031497,
          "duration": 0.08223671874999994
        },
        {
          "name": "G#2",
          "midi": 44,
          "time": 30.526269999999947,
          "velocity": 0.7874015748031497,
          "duration": 0.25767505208333574
        },
        {
          "name": "A#1",
          "midi": 34,
          "time": 30.78942749999995,
          "velocity": 0.7874015748031497,
          "duration": 0.126096302083333
        },
        {
          "name": "A#1",
          "midi": 34,
          "time": 30.921006249999948,
          "velocity": 0.7874015748031497,
          "duration": 0.126096302083333
        },
        {
          "name": "A#1",
          "midi": 34,
          "time": 31.052584999999947,
          "velocity": 0.7874015748031497,
          "duration": 0.126096302083333
        },
        {
          "name": "A#1",
          "midi": 34,
          "time": 31.184163749999946,
          "velocity": 0.7874015748031497,
          "duration": 0.126096302083333
        },
        {
          "name": "B1",
          "midi": 35,
          "time": 31.315742499999946,
          "velocity": 0.7874015748031497,
          "duration": 0.126096302083333
        },
        {
          "name": "B1",
          "midi": 35,
          "time": 31.447321249999945,
          "velocity": 0.7874015748031497,
          "duration": 0.126096302083333
        },
        {
          "name": "C2",
          "midi": 36,
          "time": 31.578899999999944,
          "velocity": 0.7874015748031497,
          "duration": 0.9155688020833317
        },
        {
          "name": "F2",
          "midi": 41,
          "time": 32.499951249999945,
          "velocity": 0.7874015748031497,
          "duration": 0.126096302083333
        },
        {
          "name": "A1",
          "midi": 33,
          "time": 32.63152999999995,
          "velocity": 0.7874015748031497,
          "duration": 0.25767505208333574
        },
        {
          "name": "A1",
          "midi": 33,
          "time": 32.894687499999954,
          "velocity": 0.7874015748031497,
          "duration": 0.3892538020833314
        },
        {
          "name": "D#1",
          "midi": 27,
          "time": 33.289423749999955,
          "velocity": 0.7874015748031497,
          "duration": 0.126096302083333
        },
        {
          "name": "G#1",
          "midi": 32,
          "time": 33.42100249999996,
          "velocity": 0.7874015748031497,
          "duration": 0.126096302083333
        },
        {
          "name": "D#1",
          "midi": 27,
          "time": 33.55258124999996,
          "velocity": 0.7874015748031497,
          "duration": 0.126096302083333
        },
        {
          "name": "D#2",
          "midi": 39,
          "time": 33.68415999999996,
          "velocity": 0.7874015748031497,
          "duration": 0.25767505208332864
        },
        {
          "name": "F2",
          "midi": 41,
          "time": 33.94731749999996,
          "velocity": 0.7874015748031497,
          "duration": 0.126096302083333
        },
        {
          "name": "F2",
          "midi": 41,
          "time": 34.078896249999964,
          "velocity": 0.7874015748031497,
          "duration": 0.126096302083333
        },
        {
          "name": "F2",
          "midi": 41,
          "time": 34.21047499999997,
          "velocity": 0.7874015748031497,
          "duration": 0.5208325520833341
        },
        {
          "name": "D#2",
          "midi": 39,
          "time": 34.73678999999997,
          "velocity": 0.7874015748031497,
          "duration": 0.25767505208333574
        },
        {
          "name": "D#2",
          "midi": 39,
          "time": 34.999947499999976,
          "velocity": 0.7874015748031497,
          "duration": 0.25767505208333574
        },
        {
          "name": "A#1",
          "midi": 34,
          "time": 35.26310499999998,
          "velocity": 0.7874015748031497,
          "duration": 0.126096302083333
        },
        {
          "name": "A#1",
          "midi": 34,
          "time": 35.394683749999984,
          "velocity": 0.7874015748031497,
          "duration": 0.038377135416666874
        },
        {
          "name": "A#1",
          "midi": 34,
          "time": 35.52626249999999,
          "velocity": 0.7874015748031497,
          "duration": 0.25767505208333574
        },
        {
          "name": "C2",
          "midi": 36,
          "time": 35.78941999999999,
          "velocity": 0.7874015748031497,
          "duration": 0.9155688020833352
        },
        {
          "name": "D#1",
          "midi": 27,
          "time": 36.71047125,
          "velocity": 0.7874015748031497,
          "duration": 0.126096302083333
        },
        {
          "name": "A#1",
          "midi": 34,
          "time": 36.84205,
          "velocity": 0.7874015748031497,
          "duration": 0.25767505208333574
        },
        {
          "name": "A#1",
          "midi": 34,
          "time": 37.105207500000006,
          "velocity": 0.7874015748031497,
          "duration": 0.5208325520833341
        },
        {
          "name": "A#1",
          "midi": 34,
          "time": 37.63152250000001,
          "velocity": 0.7874015748031497,
          "duration": 0.25767505208333574
        },
        {
          "name": "G#1",
          "midi": 32,
          "time": 37.894680000000015,
          "velocity": 0.7874015748031497,
          "duration": 0.25767505208333574
        },
        {
          "name": "G#1",
          "midi": 32,
          "time": 38.15783750000002,
          "velocity": 0.7874015748031497,
          "duration": 0.126096302083333
        },
        {
          "name": "G#1",
          "midi": 32,
          "time": 38.28941625000002,
          "velocity": 0.7874015748031497,
          "duration": 0.126096302083333
        },
        {
          "name": "G#1",
          "midi": 32,
          "time": 38.420995000000026,
          "velocity": 0.7874015748031497,
          "duration": 0.5208325520833341
        },
        {
          "name": "D#3",
          "midi": 51,
          "time": 38.94731000000003,
          "velocity": 0.7874015748031497,
          "duration": 0.25767505208333574
        },
        {
          "name": "C3",
          "midi": 48,
          "time": 39.210467500000036,
          "velocity": 0.7874015748031497,
          "duration": 0.126096302083333
        },
        {
          "name": "A#2",
          "midi": 46,
          "time": 39.34204625000004,
          "velocity": 0.7874015748031497,
          "duration": 0.25767505208333574
        },
        {
          "name": "F2",
          "midi": 41,
          "time": 39.605203750000044,
          "velocity": 0.7874015748031497,
          "duration": 0.126096302083333
        },
        {
          "name": "F#2",
          "midi": 42,
          "time": 39.73678250000005,
          "velocity": 0.7874015748031497,
          "duration": 0.25767505208332864
        },
        {
          "name": "C2",
          "midi": 36,
          "time": 39.999940000000045,
          "velocity": 0.7874015748031497,
          "duration": 0.9155688020833352
        },
        {
          "name": "D#1",
          "midi": 27,
          "time": 40.92099125000005,
          "velocity": 0.7874015748031497,
          "duration": 0.126096302083333
        },
        {
          "name": "A#1",
          "midi": 34,
          "time": 41.05257000000005,
          "velocity": 0.7874015748031497,
          "duration": 0.25767505208333574
        },
        {
          "name": "A#1",
          "midi": 34,
          "time": 41.31572750000006,
          "velocity": 0.7874015748031497,
          "duration": 0.3892538020833314
        },
        {
          "name": "F2",
          "midi": 41,
          "time": 41.71046375000006,
          "velocity": 0.7874015748031497,
          "duration": 0.126096302083333
        },
        {
          "name": "G#1",
          "midi": 32,
          "time": 41.84204250000006,
          "velocity": 0.7874015748031497,
          "duration": 0.25767505208333574
        },
        {
          "name": "G#1",
          "midi": 32,
          "time": 42.10520000000007,
          "velocity": 0.7874015748031497,
          "duration": 0.5208325520833341
        },
        {
          "name": "D#2",
          "midi": 39,
          "time": 42.63151500000007,
          "velocity": 0.7874015748031497,
          "duration": 0.126096302083333
        },
        {
          "name": "G#2",
          "midi": 44,
          "time": 42.763093750000074,
          "velocity": 0.7874015748031497,
          "duration": 0.126096302083333
        },
        {
          "name": "D#2",
          "midi": 39,
          "time": 42.89467250000008,
          "velocity": 0.7874015748031497,
          "duration": 0.126096302083333
        },
        {
          "name": "D#2",
          "midi": 39,
          "time": 43.02625125000008,
          "velocity": 0.7874015748031497,
          "duration": 0.126096302083333
        },
        {
          "name": "D#2",
          "midi": 39,
          "time": 43.15783000000008,
          "velocity": 0.7874015748031497,
          "duration": 0.25767505208333574
        },
        {
          "name": "A#1",
          "midi": 34,
          "time": 43.42098750000009,
          "velocity": 0.7874015748031497,
          "duration": 0.25767505208333574
        },
        {
          "name": "A#1",
          "midi": 34,
          "time": 43.68414500000009,
          "velocity": 0.7874015748031497,
          "duration": 0.25767505208333574
        },
        {
          "name": "D#1",
          "midi": 27,
          "time": 43.9473025000001,
          "velocity": 0.7874015748031497,
          "duration": 0.126096302083333
        },
        {
          "name": "B1",
          "midi": 35,
          "time": 44.0788812500001,
          "velocity": 0.7874015748031497,
          "duration": 0.126096302083333
        },
        {
          "name": "C2",
          "midi": 36,
          "time": 44.210460000000104,
          "velocity": 0.7874015748031497,
          "duration": 0.5208325520833341
        },
        {
          "name": "C2",
          "midi": 36,
          "time": 44.73677500000011,
          "velocity": 0.7874015748031497,
          "duration": 0.3892538020833314
        },
        {
          "name": "D#1",
          "midi": 27,
          "time": 45.13151125000011,
          "velocity": 0.7874015748031497,
          "duration": 0.126096302083333
        },
        {
          "name": "A#1",
          "midi": 34,
          "time": 45.26309000000011,
          "velocity": 0.7874015748031497,
          "duration": 0.25767505208333574
        },
        {
          "name": "A#1",
          "midi": 34,
          "time": 45.52624750000012,
          "velocity": 0.7874015748031497,
          "duration": 0.25767505208333574
        },
        {
          "name": "A#1",
          "midi": 34,
          "time": 45.78940500000012,
          "velocity": 0.7874015748031497,
          "duration": 0.25767505208333574
        },
        {
          "name": "A#1",
          "midi": 34,
          "time": 46.05256250000013,
          "velocity": 0.7874015748031497,
          "duration": 0.25767505208332864
        },
        {
          "name": "D#2",
          "midi": 39,
          "time": 46.31572000000013,
          "velocity": 0.7874015748031497,
          "duration": 0.5208325520833341
        },
        {
          "name": "G#1",
          "midi": 32,
          "time": 46.31572000000013,
          "velocity": 0.7874015748031497,
          "duration": 0.5208325520833341
        },
        {
          "name": "G#2",
          "midi": 44,
          "time": 46.84203500000013,
          "velocity": 0.7874015748031497,
          "duration": 0.5208325520833341
        },
        {
          "name": "D#3",
          "midi": 51,
          "time": 47.368350000000135,
          "velocity": 0.7874015748031497,
          "duration": 0.25767505208333574
        },
        {
          "name": "C3",
          "midi": 48,
          "time": 47.63150750000014,
          "velocity": 0.7874015748031497,
          "duration": 0.126096302083333
        },
        {
          "name": "A#2",
          "midi": 46,
          "time": 47.76308625000014,
          "velocity": 0.7874015748031497,
          "duration": 0.126096302083333
        },
        {
          "name": "F2",
          "midi": 41,
          "time": 48.02624375000014,
          "velocity": 0.7874015748031497,
          "duration": 0.126096302083333
        },
        {
          "name": "F#2",
          "midi": 42,
          "time": 48.157822500000144,
          "velocity": 0.7874015748031497,
          "duration": 0.126096302083333
        },
        {
          "name": "G2",
          "midi": 43,
          "time": 48.28940125000015,
          "velocity": 0.7874015748031497,
          "duration": 0.126096302083333
        },
        {
          "name": "C2",
          "midi": 36,
          "time": 48.42098000000015,
          "velocity": 0.7874015748031497,
          "duration": 0.9155688020833352
        },
        {
          "name": "G#1",
          "midi": 32,
          "time": 49.342031250000154,
          "velocity": 0.7874015748031497,
          "duration": 0.126096302083333
        },
        {
          "name": "A#1",
          "midi": 34,
          "time": 49.47361000000016,
          "velocity": 0.7874015748031497,
          "duration": 0.25767505208333574
        },
        {
          "name": "A#1",
          "midi": 34,
          "time": 49.73676750000016,
          "velocity": 0.7874015748031497,
          "duration": 0.25767505208333574
        },
        {
          "name": "A#1",
          "midi": 34,
          "time": 50.131503750000164,
          "velocity": 0.7874015748031497,
          "duration": 0.25767505208333574
        },
        {
          "name": "C3",
          "midi": 48,
          "time": 50.263082500000166,
          "velocity": 0.7874015748031497,
          "duration": 0.126096302083333
        },
        {
          "name": "A#2",
          "midi": 46,
          "time": 50.39466125000017,
          "velocity": 0.7874015748031497,
          "duration": 0.126096302083333
        },
        {
          "name": "C3",
          "midi": 48,
          "time": 50.52624000000017,
          "velocity": 0.7874015748031497,
          "duration": 0.126096302083333
        },
        {
          "name": "C3",
          "midi": 48,
          "time": 50.657818750000175,
          "velocity": 0.7874015748031497,
          "duration": 0.126096302083333
        },
        {
          "name": "C3",
          "midi": 48,
          "time": 50.78939750000018,
          "velocity": 0.7874015748031497,
          "duration": 0.126096302083333
        },
        {
          "name": "C3",
          "midi": 48,
          "time": 50.92097625000018,
          "velocity": 0.7874015748031497,
          "duration": 0.126096302083333
        },
        {
          "name": "C3",
          "midi": 48,
          "time": 51.05255500000018,
          "velocity": 0.7874015748031497,
          "duration": 0.126096302083333
        },
        {
          "name": "C3",
          "midi": 48,
          "time": 51.184133750000186,
          "velocity": 0.7874015748031497,
          "duration": 0.126096302083333
        },
        {
          "name": "F#2",
          "midi": 42,
          "time": 51.31571250000019,
          "velocity": 0.7874015748031497,
          "duration": 0.126096302083333
        },
        {
          "name": "E3",
          "midi": 52,
          "time": 51.44729125000019,
          "velocity": 0.7874015748031497,
          "duration": 0.25767505208333574
        },
        {
          "name": "E3",
          "midi": 52,
          "time": 51.7104487500002,
          "velocity": 0.7874015748031497,
          "duration": 0.126096302083333
        },
        {
          "name": "F3",
          "midi": 53,
          "time": 51.8420275000002,
          "velocity": 0.7874015748031497,
          "duration": 0.25767505208333574
        },
        {
          "name": "F#3",
          "midi": 54,
          "time": 52.105185000000205,
          "velocity": 0.7874015748031497,
          "duration": 0.25767505208333574
        },
        {
          "name": "G3",
          "midi": 55,
          "time": 52.36834250000021,
          "velocity": 0.7874015748031497,
          "duration": 0.25767505208333574
        },
        {
          "name": "C3",
          "midi": 48,
          "time": 52.631500000000216,
          "velocity": 0.7874015748031497,
          "duration": 0.25767505208333574
        },
        {
          "name": "G2",
          "midi": 43,
          "time": 52.89465750000022,
          "velocity": 0.7874015748031497,
          "duration": 0.25767505208333574
        },
        {
          "name": "C2",
          "midi": 36,
          "time": 53.15781500000023,
          "velocity": 0.7874015748031497,
          "duration": 0.25767505208333574
        },
        {
          "name": "G2",
          "midi": 43,
          "time": 53.42097250000023,
          "velocity": 0.7874015748031497,
          "duration": 0.25767505208333574
        },
        {
          "name": "A#2",
          "midi": 46,
          "time": 53.68413000000024,
          "velocity": 0.7874015748031497,
          "duration": 0.25767505208333574
        },
        {
          "name": "F2",
          "midi": 41,
          "time": 53.94728750000024,
          "velocity": 0.7874015748031497,
          "duration": 0.25767505208333574
        },
        {
          "name": "A#1",
          "midi": 34,
          "time": 54.21044500000025,
          "velocity": 0.7874015748031497,
          "duration": 0.25767505208333574
        },
        {
          "name": "F2",
          "midi": 41,
          "time": 54.473602500000254,
          "velocity": 0.7874015748031497,
          "duration": 0.25767505208333574
        },
        {
          "name": "G#1",
          "midi": 32,
          "time": 54.73676000000026,
          "velocity": 0.7874015748031497,
          "duration": 0.25767505208333574
        },
        {
          "name": "D#1",
          "midi": 27,
          "time": 54.999917500000265,
          "velocity": 0.7874015748031497,
          "duration": 0.126096302083333
        },
        {
          "name": "D#1",
          "midi": 27,
          "time": 55.13149625000027,
          "velocity": 0.7874015748031497,
          "duration": 0.126096302083333
        },
        {
          "name": "G#1",
          "midi": 32,
          "time": 55.26307500000027,
          "velocity": 0.7874015748031497,
          "duration": 0.126096302083333
        },
        {
          "name": "G#1",
          "midi": 32,
          "time": 55.39465375000027,
          "velocity": 0.7874015748031497,
          "duration": 0.126096302083333
        },
        {
          "name": "C2",
          "midi": 36,
          "time": 55.65781125000027,
          "velocity": 0.7874015748031497,
          "duration": 0.126096302083333
        },
        {
          "name": "D#2",
          "midi": 39,
          "time": 55.789390000000274,
          "velocity": 0.7874015748031497,
          "duration": 0.25767505208333574
        },
        {
          "name": "F2",
          "midi": 41,
          "time": 56.05254750000028,
          "velocity": 0.7874015748031497,
          "duration": 0.126096302083333
        },
        {
          "name": "F2",
          "midi": 41,
          "time": 56.18412625000028,
          "velocity": 0.7874015748031497,
          "duration": 0.25767505208333574
        },
        {
          "name": "G2",
          "midi": 43,
          "time": 56.44728375000029,
          "velocity": 0.7874015748031497,
          "duration": 0.126096302083333
        },
        {
          "name": "A#2",
          "midi": 46,
          "time": 56.57886250000029,
          "velocity": 0.7874015748031497,
          "duration": 0.25767505208333574
        },
        {
          "name": "C3",
          "midi": 48,
          "time": 56.842020000000296,
          "velocity": 0.7874015748031497,
          "duration": 0.25767505208333574
        },
        {
          "name": "G2",
          "midi": 43,
          "time": 57.1051775000003,
          "velocity": 0.7874015748031497,
          "duration": 0.25767505208333574
        },
        {
          "name": "C2",
          "midi": 36,
          "time": 57.36833500000031,
          "velocity": 0.7874015748031497,
          "duration": 0.25767505208333574
        },
        {
          "name": "G2",
          "midi": 43,
          "time": 57.63149250000031,
          "velocity": 0.7874015748031497,
          "duration": 0.25767505208333574
        },
        {
          "name": "A#2",
          "midi": 46,
          "time": 57.89465000000032,
          "velocity": 0.7874015748031497,
          "duration": 0.126096302083333
        },
        {
          "name": "A#2",
          "midi": 46,
          "time": 58.02622875000032,
          "velocity": 0.7874015748031497,
          "duration": 0.126096302083333
        },
        {
          "name": "F2",
          "midi": 41,
          "time": 58.157807500000324,
          "velocity": 0.7874015748031497,
          "duration": 0.25767505208333574
        },
        {
          "name": "A#1",
          "midi": 34,
          "time": 58.42096500000033,
          "velocity": 0.7874015748031497,
          "duration": 0.25767505208333574
        },
        {
          "name": "F2",
          "midi": 41,
          "time": 58.684122500000335,
          "velocity": 0.7874015748031497,
          "duration": 0.25767505208333574
        },
        {
          "name": "G#1",
          "midi": 32,
          "time": 58.94728000000034,
          "velocity": 0.7874015748031497,
          "duration": 0.25767505208333574
        },
        {
          "name": "D#1",
          "midi": 27,
          "time": 59.210437500000346,
          "velocity": 0.7874015748031497,
          "duration": 0.126096302083333
        },
        {
          "name": "D#1",
          "midi": 27,
          "time": 59.34201625000035,
          "velocity": 0.7874015748031497,
          "duration": 0.126096302083333
        },
        {
          "name": "G#1",
          "midi": 32,
          "time": 59.47359500000035,
          "velocity": 0.7874015748031497,
          "duration": 0.25767505208333574
        },
        {
          "name": "G#2",
          "midi": 44,
          "time": 59.73675250000036,
          "velocity": 0.7874015748031497,
          "duration": 0.126096302083333
        },
        {
          "name": "G#2",
          "midi": 44,
          "time": 59.86833125000036,
          "velocity": 0.7874015748031497,
          "duration": 0.126096302083333
        },
        {
          "name": "G#2",
          "midi": 44,
          "time": 59.99991000000036,
          "velocity": 0.7874015748031497,
          "duration": 0.25767505208333574
        },
        {
          "name": "A#1",
          "midi": 34,
          "time": 60.26306750000037,
          "velocity": 0.7874015748031497,
          "duration": 0.126096302083333
        },
        {
          "name": "A#1",
          "midi": 34,
          "time": 60.39464625000037,
          "velocity": 0.7874015748031497,
          "duration": 0.126096302083333
        },
        {
          "name": "A#1",
          "midi": 34,
          "time": 60.52622500000037,
          "velocity": 0.7874015748031497,
          "duration": 0.126096302083333
        },
        {
          "name": "A#1",
          "midi": 34,
          "time": 60.657803750000376,
          "velocity": 0.7874015748031497,
          "duration": 0.126096302083333
        },
        {
          "name": "A#1",
          "midi": 34,
          "time": 60.78938250000038,
          "velocity": 0.7874015748031497,
          "duration": 0.126096302083333
        },
        {
          "name": "D#1",
          "midi": 27,
          "time": 60.92096125000038,
          "velocity": 0.7874015748031497,
          "duration": 0.126096302083333
        },
        {
          "name": "C2",
          "midi": 36,
          "time": 61.052540000000384,
          "velocity": 0.7874015748031497,
          "duration": 0.25767505208333574
        },
        {
          "name": "G2",
          "midi": 43,
          "time": 61.31569750000039,
          "velocity": 0.7874015748031497,
          "duration": 0.126096302083333
        },
        {
          "name": "G2",
          "midi": 43,
          "time": 61.44727625000039,
          "velocity": 0.7874015748031497,
          "duration": 0.126096302083333
        },
        {
          "name": "C3",
          "midi": 48,
          "time": 61.578855000000395,
          "velocity": 0.7874015748031497,
          "duration": 0.25767505208333574
        },
        {
          "name": "G2",
          "midi": 43,
          "time": 61.8420125000004,
          "velocity": 0.7874015748031497,
          "duration": 0.25767505208333574
        },
        {
          "name": "A#1",
          "midi": 34,
          "time": 62.105170000000406,
          "velocity": 0.7874015748031497,
          "duration": 0.25767505208333574
        },
        {
          "name": "F2",
          "midi": 41,
          "time": 62.36832750000041,
          "velocity": 0.7874015748031497,
          "duration": 0.126096302083333
        },
        {
          "name": "F2",
          "midi": 41,
          "time": 62.499906250000414,
          "velocity": 0.7874015748031497,
          "duration": 0.126096302083333
        },
        {
          "name": "A#2",
          "midi": 46,
          "time": 62.63148500000042,
          "velocity": 0.7874015748031497,
          "duration": 0.25767505208333574
        },
        {
          "name": "F2",
          "midi": 41,
          "time": 62.89464250000042,
          "velocity": 0.7874015748031497,
          "duration": 0.25767505208333574
        },
        {
          "name": "G#1",
          "midi": 32,
          "time": 63.15780000000043,
          "velocity": 0.7874015748031497,
          "duration": 0.25767505208333574
        },
        {
          "name": "D#1",
          "midi": 27,
          "time": 63.42095750000043,
          "velocity": 0.7874015748031497,
          "duration": 0.25767505208333574
        },
        {
          "name": "G#1",
          "midi": 32,
          "time": 63.68411500000044,
          "velocity": 0.7874015748031497,
          "duration": 0.25767505208333574
        },
        {
          "name": "G#2",
          "midi": 44,
          "time": 63.947272500000444,
          "velocity": 0.7874015748031497,
          "duration": 0.25767505208333574
        },
        {
          "name": "G2",
          "midi": 43,
          "time": 64.21043000000044,
          "velocity": 0.7874015748031497,
          "duration": 0.25767505208332864
        },
        {
          "name": "A#2",
          "midi": 46,
          "time": 64.47358750000043,
          "velocity": 0.7874015748031497,
          "duration": 0.1260963020833401
        },
        {
          "name": "B2",
          "midi": 47,
          "time": 64.60516625000044,
          "velocity": 0.7874015748031497,
          "duration": 0.25767505208334285
        },
        {
          "name": "F#2",
          "midi": 42,
          "time": 64.86832375000044,
          "velocity": 0.7874015748031497,
          "duration": 0.3892538020833314
        },
        {
          "name": "C2",
          "midi": 36,
          "time": 65.26306000000044,
          "velocity": 0.7874015748031497,
          "duration": 0.25767505208332864
        },
        {
          "name": "C3",
          "midi": 48,
          "time": 65.52621750000043,
          "velocity": 0.7874015748031497,
          "duration": 0.25767505208332864
        },
        {
          "name": "G2",
          "midi": 43,
          "time": 65.78937500000042,
          "velocity": 0.7874015748031497,
          "duration": 0.25767505208332864
        },
        {
          "name": "C2",
          "midi": 36,
          "time": 66.05253250000041,
          "velocity": 0.7874015748031497,
          "duration": 0.25767505208332864
        },
        {
          "name": "A#1",
          "midi": 34,
          "time": 66.3156900000004,
          "velocity": 0.7874015748031497,
          "duration": 0.25767505208332864
        },
        {
          "name": "A#2",
          "midi": 46,
          "time": 66.57884750000039,
          "velocity": 0.7874015748031497,
          "duration": 0.25767505208332864
        },
        {
          "name": "F2",
          "midi": 41,
          "time": 66.84200500000038,
          "velocity": 0.7874015748031497,
          "duration": 0.25767505208332864
        },
        {
          "name": "A#1",
          "midi": 34,
          "time": 67.10516250000038,
          "velocity": 0.7874015748031497,
          "duration": 0.25767505208332864
        },
        {
          "name": "G#1",
          "midi": 32,
          "time": 67.36832000000037,
          "velocity": 0.7874015748031497,
          "duration": 0.25767505208332864
        },
        {
          "name": "D#1",
          "midi": 27,
          "time": 67.63147750000036,
          "velocity": 0.7874015748031497,
          "duration": 0.1260963020833401
        },
        {
          "name": "D#1",
          "midi": 27,
          "time": 67.76305625000036,
          "velocity": 0.7874015748031497,
          "duration": 0.1260963020833401
        },
        {
          "name": "G#1",
          "midi": 32,
          "time": 67.89463500000036,
          "velocity": 0.7874015748031497,
          "duration": 0.25767505208332864
        },
        {
          "name": "G#2",
          "midi": 44,
          "time": 68.15779250000035,
          "velocity": 0.7874015748031497,
          "duration": 0.1260963020833401
        },
        {
          "name": "G#2",
          "midi": 44,
          "time": 68.28937125000036,
          "velocity": 0.7874015748031497,
          "duration": 0.1260963020833401
        },
        {
          "name": "A#2",
          "midi": 46,
          "time": 68.42095000000036,
          "velocity": 0.7874015748031497,
          "duration": 0.25767505208332864
        },
        {
          "name": "F2",
          "midi": 41,
          "time": 68.68410750000035,
          "velocity": 0.7874015748031497,
          "duration": 0.1260963020833401
        },
        {
          "name": "G2",
          "midi": 43,
          "time": 68.81568625000035,
          "velocity": 0.7874015748031497,
          "duration": 0.1260963020833401
        },
        {
          "name": "G2",
          "midi": 43,
          "time": 68.94726500000036,
          "velocity": 0.7874015748031497,
          "duration": 0.25767505208332864
        },
        {
          "name": "C2",
          "midi": 36,
          "time": 69.21042250000035,
          "velocity": 0.7874015748031497,
          "duration": 0.25767505208332864
        },
        {
          "name": "C2",
          "midi": 36,
          "time": 69.47358000000034,
          "velocity": 0.7874015748031497,
          "duration": 0.25767505208332864
        },
        {
          "name": "C2",
          "midi": 36,
          "time": 69.73673750000033,
          "velocity": 0.7874015748031497,
          "duration": 0.25767505208332864
        },
        {
          "name": "G#1",
          "midi": 32,
          "time": 70.39463125000033,
          "velocity": 0.7874015748031497,
          "duration": 0.1260963020833401
        },
        {
          "name": "A#1",
          "midi": 34,
          "time": 70.52621000000033,
          "velocity": 0.7874015748031497,
          "duration": 0.25767505208332864
        },
        {
          "name": "A#1",
          "midi": 34,
          "time": 70.78936750000032,
          "velocity": 0.7874015748031497,
          "duration": 0.25767505208332864
        },
        {
          "name": "F2",
          "midi": 41,
          "time": 71.18410375000032,
          "velocity": 0.7874015748031497,
          "duration": 0.1260963020833401
        },
        {
          "name": "A#1",
          "midi": 34,
          "time": 71.31568250000032,
          "velocity": 0.7874015748031497,
          "duration": 0.25767505208332864
        },
        {
          "name": "G#1",
          "midi": 32,
          "time": 71.57884000000031,
          "velocity": 0.7874015748031497,
          "duration": 0.25767505208332864
        },
        {
          "name": "G#1",
          "midi": 32,
          "time": 71.8419975000003,
          "velocity": 0.7874015748031497,
          "duration": 0.25767505208332864
        },
        {
          "name": "D#3",
          "midi": 51,
          "time": 72.6314700000003,
          "velocity": 0.7874015748031497,
          "duration": 0.25767505208332864
        },
        {
          "name": "C3",
          "midi": 48,
          "time": 72.8946275000003,
          "velocity": 0.7874015748031497,
          "duration": 0.1260963020833401
        },
        {
          "name": "A#2",
          "midi": 46,
          "time": 73.0262062500003,
          "velocity": 0.7874015748031497,
          "duration": 0.25767505208332864
        },
        {
          "name": "F2",
          "midi": 41,
          "time": 73.28936375000029,
          "velocity": 0.7874015748031497,
          "duration": 0.1260963020833401
        },
        {
          "name": "F#2",
          "midi": 42,
          "time": 73.4209425000003,
          "velocity": 0.7874015748031497,
          "duration": 0.1260963020833401
        },
        {
          "name": "G2",
          "midi": 43,
          "time": 73.5525212500003,
          "velocity": 0.7874015748031497,
          "duration": 0.1260963020833401
        },
        {
          "name": "C2",
          "midi": 36,
          "time": 73.6841000000003,
          "velocity": 0.7874015748031497,
          "duration": 0.25767505208332864
        },
        {
          "name": "C2",
          "midi": 36,
          "time": 73.94725750000029,
          "velocity": 0.7874015748031497,
          "duration": 0.25767505208332864
        },
        {
          "name": "D#3",
          "midi": 51,
          "time": 74.34199375000028,
          "velocity": 0.7874015748031497,
          "duration": 0.1260963020833401
        },
        {
          "name": "C2",
          "midi": 36,
          "time": 74.47357250000029,
          "velocity": 0.7874015748031497,
          "duration": 0.1260963020833401
        },
        {
          "name": "C2",
          "midi": 36,
          "time": 74.60515125000029,
          "velocity": 0.7874015748031497,
          "duration": 0.1260963020833401
        },
        {
          "name": "A#1",
          "midi": 34,
          "time": 74.73673000000029,
          "velocity": 0.7874015748031497,
          "duration": 0.25767505208332864
        },
        {
          "name": "A#1",
          "midi": 34,
          "time": 74.99988750000028,
          "velocity": 0.7874015748031497,
          "duration": 0.25767505208332864
        },
        {
          "name": "D#1",
          "midi": 27,
          "time": 75.39462375000028,
          "velocity": 0.7874015748031497,
          "duration": 0.1260963020833401
        },
        {
          "name": "G#1",
          "midi": 32,
          "time": 75.52620250000028,
          "velocity": 0.7874015748031497,
          "duration": 0.25767505208332864
        },
        {
          "name": "G#1",
          "midi": 32,
          "time": 75.78936000000027,
          "velocity": 0.7874015748031497,
          "duration": 0.25767505208332864
        },
        {
          "name": "G#1",
          "midi": 32,
          "time": 76.05251750000026,
          "velocity": 0.7874015748031497,
          "duration": 0.5208325520833341
        },
        {
          "name": "G#2",
          "midi": 44,
          "time": 76.57883250000026,
          "velocity": 0.7874015748031497,
          "duration": 0.25767505208332864
        },
        {
          "name": "G#2",
          "midi": 44,
          "time": 76.84199000000025,
          "velocity": 0.7874015748031497,
          "duration": 0.3892538020833456
        },
        {
          "name": "D#2",
          "midi": 39,
          "time": 77.23672625000026,
          "velocity": 0.7874015748031497,
          "duration": 0.25767505208334285
        },
        {
          "name": "F2",
          "midi": 41,
          "time": 77.49988375000027,
          "velocity": 0.7874015748031497,
          "duration": 0.1260963020833401
        },
        {
          "name": "A#1",
          "midi": 34,
          "time": 77.63146250000027,
          "velocity": 0.7874015748031497,
          "duration": 0.1260963020833401
        },
        {
          "name": "B1",
          "midi": 35,
          "time": 77.76304125000027,
          "velocity": 0.7874015748031497,
          "duration": 0.1260963020833401
        },
        {
          "name": "C2",
          "midi": 36,
          "time": 77.89462000000027,
          "velocity": 0.7874015748031497,
          "duration": 0.25767505208332864
        },
        {
          "name": "C2",
          "midi": 36,
          "time": 78.15777750000026,
          "velocity": 0.7874015748031497,
          "duration": 0.25767505208332864
        },
        {
          "name": "D#1",
          "midi": 27,
          "time": 78.55251375000026,
          "velocity": 0.7874015748031497,
          "duration": 0.1260963020833401
        },
        {
          "name": "C2",
          "midi": 36,
          "time": 78.68409250000026,
          "velocity": 0.7874015748031497,
          "duration": 0.25767505208332864
        },
        {
          "name": "A#1",
          "midi": 34,
          "time": 78.94725000000025,
          "velocity": 0.7874015748031497,
          "duration": 0.25767505208332864
        },
        {
          "name": "A#1",
          "midi": 34,
          "time": 79.21040750000024,
          "velocity": 0.7874015748031497,
          "duration": 0.25767505208332864
        },
        {
          "name": "D#1",
          "midi": 27,
          "time": 79.60514375000024,
          "velocity": 0.7874015748031497,
          "duration": 0.1260963020833401
        },
        {
          "name": "A#1",
          "midi": 34,
          "time": 79.73672250000024,
          "velocity": 0.7874015748031497,
          "duration": 0.25767505208332864
        },
        {
          "name": "G#1",
          "midi": 32,
          "time": 79.99988000000023,
          "velocity": 0.7874015748031497,
          "duration": 0.25767505208332864
        },
        {
          "name": "G#1",
          "midi": 32,
          "time": 80.26303750000022,
          "velocity": 0.7874015748031497,
          "duration": 0.25767505208332864
        },
        {
          "name": "F3",
          "midi": 53,
          "time": 80.78935250000022,
          "velocity": 0.7874015748031497,
          "duration": 0.1260963020833401
        },
        {
          "name": "A#2",
          "midi": 46,
          "time": 80.92093125000022,
          "velocity": 0.7874015748031497,
          "duration": 0.1260963020833401
        },
        {
          "name": "G2",
          "midi": 43,
          "time": 81.05251000000023,
          "velocity": 0.7874015748031497,
          "duration": 0.25767505208332864
        },
        {
          "name": "G#2",
          "midi": 44,
          "time": 81.31566750000022,
          "velocity": 0.7874015748031497,
          "duration": 0.25767505208332864
        },
        {
          "name": "A#2",
          "midi": 46,
          "time": 81.57882500000021,
          "velocity": 0.7874015748031497,
          "duration": 0.1260963020833401
        },
        {
          "name": "A#2",
          "midi": 46,
          "time": 81.71040375000021,
          "velocity": 0.7874015748031497,
          "duration": 0.1260963020833401
        },
        {
          "name": "A#1",
          "midi": 34,
          "time": 81.84198250000021,
          "velocity": 0.7874015748031497,
          "duration": 0.1260963020833401
        },
        {
          "name": "B1",
          "midi": 35,
          "time": 81.97356125000022,
          "velocity": 0.7874015748031497,
          "duration": 0.1260963020833401
        },
        {
          "name": "C2",
          "midi": 36,
          "time": 82.10514000000022,
          "velocity": 0.7874015748031497,
          "duration": 0.25767505208332864
        },
        {
          "name": "C2",
          "midi": 36,
          "time": 82.36829750000021,
          "velocity": 0.7874015748031497,
          "duration": 0.25767505208332864
        },
        {
          "name": "C2",
          "midi": 36,
          "time": 82.7630337500002,
          "velocity": 0.7874015748031497,
          "duration": 0.1260963020833401
        },
        {
          "name": "C2",
          "midi": 36,
          "time": 82.8946125000002,
          "velocity": 0.7874015748031497,
          "duration": 0.25767505208332864
        },
        {
          "name": "A#1",
          "midi": 34,
          "time": 83.1577700000002,
          "velocity": 0.7874015748031497,
          "duration": 0.25767505208332864
        },
        {
          "name": "A#1",
          "midi": 34,
          "time": 83.42092750000019,
          "velocity": 0.7874015748031497,
          "duration": 0.25767505208332864
        },
        {
          "name": "D#2",
          "midi": 39,
          "time": 83.81566375000018,
          "velocity": 0.7874015748031497,
          "duration": 0.1260963020833401
        },
        {
          "name": "A#1",
          "midi": 34,
          "time": 83.94724250000019,
          "velocity": 0.7874015748031497,
          "duration": 0.25767505208332864
        },
        {
          "name": "F2",
          "midi": 41,
          "time": 84.21040000000018,
          "velocity": 0.7874015748031497,
          "duration": 0.5208325520833341
        },
        {
          "name": "D#2",
          "midi": 39,
          "time": 84.73671500000017,
          "velocity": 0.7874015748031497,
          "duration": 0.25767505208332864
        },
        {
          "name": "D#2",
          "midi": 39,
          "time": 84.99987250000017,
          "velocity": 0.7874015748031497,
          "duration": 0.1260963020833401
        },
        {
          "name": "D#2",
          "midi": 39,
          "time": 85.13145125000017,
          "velocity": 0.7874015748031497,
          "duration": 0.1260963020833401
        },
        {
          "name": "C2",
          "midi": 36,
          "time": 85.26303000000017,
          "velocity": 0.7874015748031497,
          "duration": 0.25767505208332864
        },
        {
          "name": "A#1",
          "midi": 34,
          "time": 85.52618750000016,
          "velocity": 0.7874015748031497,
          "duration": 0.1260963020833401
        },
        {
          "name": "A#1",
          "midi": 34,
          "time": 85.65776625000017,
          "velocity": 0.7874015748031497,
          "duration": 0.1260963020833401
        },
        {
          "name": "A#1",
          "midi": 34,
          "time": 85.78934500000017,
          "velocity": 0.7874015748031497,
          "duration": 0.25767505208332864
        },
        {
          "name": "A#1",
          "midi": 34,
          "time": 86.05250250000016,
          "velocity": 0.7874015748031497,
          "duration": 0.1260963020833401
        },
        {
          "name": "A#1",
          "midi": 34,
          "time": 86.18408125000016,
          "velocity": 0.7874015748031497,
          "duration": 0.1260963020833401
        },
        {
          "name": "C2",
          "midi": 36,
          "time": 86.31566000000016,
          "velocity": 0.7874015748031497,
          "duration": 0.7839900520833396
        },
        {
          "name": "G#1",
          "midi": 32,
          "time": 87.10513250000017,
          "velocity": 0.7874015748031497,
          "duration": 0.1260963020833401
        },
        {
          "name": "C2",
          "midi": 36,
          "time": 87.23671125000017,
          "velocity": 0.7874015748031497,
          "duration": 0.1260963020833401
        },
        {
          "name": "A#1",
          "midi": 34,
          "time": 87.36829000000017,
          "velocity": 0.7874015748031497,
          "duration": 0.25767505208332864
        },
        {
          "name": "A#1",
          "midi": 34,
          "time": 87.63144750000016,
          "velocity": 0.7874015748031497,
          "duration": 0.5208325520833341
        },
        {
          "name": "G#2",
          "midi": 44,
          "time": 88.15776250000016,
          "velocity": 0.7874015748031497,
          "duration": 0.1260963020833401
        },
        {
          "name": "A#1",
          "midi": 34,
          "time": 88.28934125000016,
          "velocity": 0.7874015748031497,
          "duration": 0.1260963020833401
        },
        {
          "name": "G#1",
          "midi": 32,
          "time": 88.42092000000017,
          "velocity": 0.7874015748031497,
          "duration": 1.0471475520833309
        },
        {
          "name": "D#3",
          "midi": 51,
          "time": 89.47355000000016,
          "velocity": 0.7874015748031497,
          "duration": 0.25767505208332864
        },
        {
          "name": "C3",
          "midi": 48,
          "time": 89.73670750000015,
          "velocity": 0.7874015748031497,
          "duration": 0.1260963020833401
        },
        {
          "name": "A#2",
          "midi": 46,
          "time": 89.86828625000015,
          "velocity": 0.7874015748031497,
          "duration": 0.25767505208334285
        },
        {
          "name": "A#2",
          "midi": 46,
          "time": 90.13144375000016,
          "velocity": 0.7874015748031497,
          "duration": 0.1260963020833401
        },
        {
          "name": "G2",
          "midi": 43,
          "time": 90.26302250000016,
          "velocity": 0.7874015748031497,
          "duration": 0.25767505208332864
        },
        {
          "name": "C2",
          "midi": 36,
          "time": 90.52618000000015,
          "velocity": 0.7874015748031497,
          "duration": 0.9155688020833281
        },
        {
          "name": "D#1",
          "midi": 27,
          "time": 91.44723125000014,
          "velocity": 0.7874015748031497,
          "duration": 0.1260963020833401
        },
        {
          "name": "A#1",
          "midi": 34,
          "time": 91.57881000000015,
          "velocity": 0.7874015748031497,
          "duration": 0.25767505208332864
        },
        {
          "name": "A#1",
          "midi": 34,
          "time": 91.84196750000014,
          "velocity": 0.7874015748031497,
          "duration": 0.3892538020833314
        },
        {
          "name": "D#1",
          "midi": 27,
          "time": 92.23670375000013,
          "velocity": 0.7874015748031497,
          "duration": 0.1260963020833401
        },
        {
          "name": "A#1",
          "midi": 34,
          "time": 92.36828250000013,
          "velocity": 0.7874015748031497,
          "duration": 0.25767505208332864
        },
        {
          "name": "G#1",
          "midi": 32,
          "time": 92.63144000000013,
          "velocity": 0.7874015748031497,
          "duration": 0.5208325520833341
        },
        {
          "name": "G#1",
          "midi": 32,
          "time": 93.15775500000012,
          "velocity": 0.7874015748031497,
          "duration": 0.3892538020833314
        },
        {
          "name": "G#1",
          "midi": 32,
          "time": 93.55249125000012,
          "velocity": 0.7874015748031497,
          "duration": 0.038377135416666874
        },
        {
          "name": "F2",
          "midi": 41,
          "time": 93.68407000000012,
          "velocity": 0.7874015748031497,
          "duration": 0.25767505208332864
        },
        {
          "name": "F2",
          "midi": 41,
          "time": 93.94722750000011,
          "velocity": 0.7874015748031497,
          "duration": 0.3892538020833314
        },
        {
          "name": "A#1",
          "midi": 34,
          "time": 94.3419637500001,
          "velocity": 0.7874015748031497,
          "duration": 0.25767505208334285
        },
        {
          "name": "A#1",
          "midi": 34,
          "time": 94.60512125000011,
          "velocity": 0.7874015748031497,
          "duration": 0.1260963020833401
        },
        {
          "name": "C2",
          "midi": 36,
          "time": 94.73670000000011,
          "velocity": 0.7874015748031497,
          "duration": 0.25767505208332864
        },
        {
          "name": "C2",
          "midi": 36,
          "time": 94.9998575000001,
          "velocity": 0.7874015748031497,
          "duration": 0.25767505208332864
        },
        {
          "name": "C3",
          "midi": 48,
          "time": 95.2630150000001,
          "velocity": 0.7874015748031497,
          "duration": 0.25767505208332864
        },
        {
          "name": "G#1",
          "midi": 32,
          "time": 95.65775125000009,
          "velocity": 0.7874015748031497,
          "duration": 0.1260963020833401
        },
        {
          "name": "A#1",
          "midi": 34,
          "time": 95.78933000000009,
          "velocity": 0.7874015748031497,
          "duration": 0.25767505208332864
        },
        {
          "name": "A#1",
          "midi": 34,
          "time": 96.05248750000008,
          "velocity": 0.7874015748031497,
          "duration": 0.25767505208332864
        },
        {
          "name": "F2",
          "midi": 41,
          "time": 96.31564500000007,
          "velocity": 0.7874015748031497,
          "duration": 0.1260963020833401
        },
        {
          "name": "A#2",
          "midi": 46,
          "time": 96.44722375000008,
          "velocity": 0.7874015748031497,
          "duration": 0.1260963020833401
        },
        {
          "name": "F2",
          "midi": 41,
          "time": 96.57880250000008,
          "velocity": 0.7874015748031497,
          "duration": 0.25767505208332864
        },
        {
          "name": "G#1",
          "midi": 32,
          "time": 96.84196000000007,
          "velocity": 0.7874015748031497,
          "duration": 0.5208325520833341
        },
        {
          "name": "G#2",
          "midi": 44,
          "time": 97.36827500000007,
          "velocity": 0.7874015748031497,
          "duration": 0.25767505208332864
        },
        {
          "name": "G#2",
          "midi": 44,
          "time": 97.63143250000006,
          "velocity": 0.7874015748031497,
          "duration": 0.25767505208332864
        },
        {
          "name": "A#1",
          "midi": 34,
          "time": 98.15774750000006,
          "velocity": 0.7874015748031497,
          "duration": 0.1260963020833401
        },
        {
          "name": "A#1",
          "midi": 34,
          "time": 98.28932625000006,
          "velocity": 0.7874015748031497,
          "duration": 0.1260963020833401
        },
        {
          "name": "A#1",
          "midi": 34,
          "time": 98.42090500000006,
          "velocity": 0.7874015748031497,
          "duration": 0.1260963020833401
        },
        {
          "name": "A#1",
          "midi": 34,
          "time": 98.55248375000006,
          "velocity": 0.7874015748031497,
          "duration": 0.1260963020833401
        },
        {
          "name": "B1",
          "midi": 35,
          "time": 98.68406250000007,
          "velocity": 0.7874015748031497,
          "duration": 0.25767505208332864
        },
        {
          "name": "C2",
          "midi": 36,
          "time": 98.94722000000006,
          "velocity": 0.7874015748031497,
          "duration": 1.0471475520833309
        },
        {
          "name": "A#1",
          "midi": 34,
          "time": 99.99985000000005,
          "velocity": 0.7874015748031497,
          "duration": 0.25767505208332864
        },
        {
          "name": "A#1",
          "midi": 34,
          "time": 100.26300750000004,
          "velocity": 0.7874015748031497,
          "duration": 0.7839900520833396
        },
        {
          "name": "C3",
          "midi": 48,
          "time": 101.05248000000005,
          "velocity": 0.7874015748031497,
          "duration": 0.1260963020833401
        },
        {
          "name": "C3",
          "midi": 48,
          "time": 101.18405875000005,
          "velocity": 0.7874015748031497,
          "duration": 0.1260963020833401
        },
        {
          "name": "C3",
          "midi": 48,
          "time": 101.31563750000005,
          "velocity": 0.7874015748031497,
          "duration": 0.1260963020833401
        },
        {
          "name": "C3",
          "midi": 48,
          "time": 101.44721625000005,
          "velocity": 0.7874015748031497,
          "duration": 0.25767505208332864
        },
        {
          "name": "C3",
          "midi": 48,
          "time": 101.71037375000004,
          "velocity": 0.7874015748031497,
          "duration": 0.1260963020833401
        },
        {
          "name": "E3",
          "midi": 52,
          "time": 101.84195250000005,
          "velocity": 0.7874015748031497,
          "duration": 0.3892538020833314
        },
        {
          "name": "F3",
          "midi": 53,
          "time": 102.23668875000004,
          "velocity": 0.7874015748031497,
          "duration": 0.25767505208332864
        },
        {
          "name": "F3",
          "midi": 53,
          "time": 102.49984625000003,
          "velocity": 0.7874015748031497,
          "duration": 0.1260963020833401
        },
        {
          "name": "F#3",
          "midi": 54,
          "time": 102.63142500000004,
          "velocity": 0.7874015748031497,
          "duration": 0.25767505208332864
        },
        {
          "name": "G3",
          "midi": 55,
          "time": 102.89458250000003,
          "velocity": 0.7874015748031497,
          "duration": 0.25767505208332864
        },
        {
          "name": "C3",
          "midi": 48,
          "time": 103.15774000000002,
          "velocity": 0.7874015748031497,
          "duration": 0.25767505208332864
        },
        {
          "name": "G2",
          "midi": 43,
          "time": 103.42089750000001,
          "velocity": 0.7874015748031497,
          "duration": 0.25767505208332864
        },
        {
          "name": "C2",
          "midi": 36,
          "time": 103.684055,
          "velocity": 0.7874015748031497,
          "duration": 0.1260963020833401
        },
        {
          "name": "C2",
          "midi": 36,
          "time": 103.81563375,
          "velocity": 0.7874015748031497,
          "duration": 0.1260963020833401
        },
        {
          "name": "G2",
          "midi": 43,
          "time": 103.9472125,
          "velocity": 0.7874015748031497,
          "duration": 0.25767505208332864
        },
        {
          "name": "A#2",
          "midi": 46,
          "time": 104.21037,
          "velocity": 0.7874015748031497,
          "duration": 0.25767505208332864
        },
        {
          "name": "F2",
          "midi": 41,
          "time": 104.47352749999999,
          "velocity": 0.7874015748031497,
          "duration": 0.1260963020833401
        },
        {
          "name": "F2",
          "midi": 41,
          "time": 104.60510624999999,
          "velocity": 0.7874015748031497,
          "duration": 0.1260963020833401
        },
        {
          "name": "A#2",
          "midi": 46,
          "time": 104.736685,
          "velocity": 0.7874015748031497,
          "duration": 0.1260963020833401
        },
        {
          "name": "F2",
          "midi": 41,
          "time": 104.86826375,
          "velocity": 0.7874015748031497,
          "duration": 0.1260963020833401
        },
        {
          "name": "F2",
          "midi": 41,
          "time": 104.9998425,
          "velocity": 0.7874015748031497,
          "duration": 0.25767505208332864
        },
        {
          "name": "G#1",
          "midi": 32,
          "time": 105.26299999999999,
          "velocity": 0.7874015748031497,
          "duration": 0.25767505208332864
        },
        {
          "name": "D#2",
          "midi": 39,
          "time": 105.52615749999998,
          "velocity": 0.7874015748031497,
          "duration": 0.25767505208332864
        },
        {
          "name": "G#2",
          "midi": 44,
          "time": 105.78931499999997,
          "velocity": 0.7874015748031497,
          "duration": 0.25767505208332864
        },
        {
          "name": "D#2",
          "midi": 39,
          "time": 106.05247249999996,
          "velocity": 0.7874015748031497,
          "duration": 0.1260963020833401
        },
        {
          "name": "C2",
          "midi": 36,
          "time": 106.18405124999997,
          "velocity": 0.7874015748031497,
          "duration": 0.1260963020833401
        },
        {
          "name": "D#3",
          "midi": 51,
          "time": 106.31562999999997,
          "velocity": 0.7874015748031497,
          "duration": 0.1260963020833401
        },
        {
          "name": "F3",
          "midi": 53,
          "time": 106.44720874999997,
          "velocity": 0.7874015748031497,
          "duration": 0.1260963020833401
        },
        {
          "name": "F3",
          "midi": 53,
          "time": 106.57878749999998,
          "velocity": 0.7874015748031497,
          "duration": 0.1260963020833401
        },
        {
          "name": "A#2",
          "midi": 46,
          "time": 106.71036624999998,
          "velocity": 0.7874015748031497,
          "duration": 0.1260963020833401
        },
        {
          "name": "C3",
          "midi": 48,
          "time": 106.84194499999998,
          "velocity": 0.7874015748031497,
          "duration": 0.1260963020833401
        },
        {
          "name": "C3",
          "midi": 48,
          "time": 106.97352374999998,
          "velocity": 0.7874015748031497,
          "duration": 0.1260963020833401
        },
        {
          "name": "F2",
          "midi": 41,
          "time": 107.10510249999999,
          "velocity": 0.7874015748031497,
          "duration": 0.25767505208334285
        },
        {
          "name": "C2",
          "midi": 36,
          "time": 107.36825999999999,
          "velocity": 0.7874015748031497,
          "duration": 0.25767505208332864
        },
        {
          "name": "G2",
          "midi": 43,
          "time": 107.63141749999998,
          "velocity": 0.7874015748031497,
          "duration": 0.25767505208332864
        },
        {
          "name": "C3",
          "midi": 48,
          "time": 107.89457499999997,
          "velocity": 0.7874015748031497,
          "duration": 0.25767505208332864
        },
        {
          "name": "G2",
          "midi": 43,
          "time": 108.15773249999997,
          "velocity": 0.7874015748031497,
          "duration": 0.25767505208332864
        },
        {
          "name": "A#1",
          "midi": 34,
          "time": 108.42088999999996,
          "velocity": 0.7874015748031497,
          "duration": 0.25767505208332864
        },
        {
          "name": "F2",
          "midi": 41,
          "time": 108.68404749999995,
          "velocity": 0.7874015748031497,
          "duration": 0.25767505208332864
        },
        {
          "name": "A#2",
          "midi": 46,
          "time": 108.94720499999994,
          "velocity": 0.7874015748031497,
          "duration": 0.25767505208332864
        },
        {
          "name": "F2",
          "midi": 41,
          "time": 109.21036249999993,
          "velocity": 0.7874015748031497,
          "duration": 0.25767505208332864
        },
        {
          "name": "G#1",
          "midi": 32,
          "time": 109.47351999999992,
          "velocity": 0.7874015748031497,
          "duration": 0.25767505208332864
        },
        {
          "name": "G#2",
          "midi": 44,
          "time": 109.73667749999991,
          "velocity": 0.7874015748031497,
          "duration": 0.1260963020833401
        },
        {
          "name": "G#2",
          "midi": 44,
          "time": 109.86825624999992,
          "velocity": 0.7874015748031497,
          "duration": 0.1260963020833401
        },
        {
          "name": "A#2",
          "midi": 46,
          "time": 109.99983499999992,
          "velocity": 0.7874015748031497,
          "duration": 0.25767505208334285
        },
        {
          "name": "C3",
          "midi": 48,
          "time": 110.26299249999992,
          "velocity": 0.7874015748031497,
          "duration": 0.1260963020833401
        },
        {
          "name": "F2",
          "midi": 41,
          "time": 110.39457124999993,
          "velocity": 0.7874015748031497,
          "duration": 0.25767505208334285
        },
        {
          "name": "G2",
          "midi": 43,
          "time": 110.65772874999993,
          "velocity": 0.7874015748031497,
          "duration": 0.1260963020833401
        },
        {
          "name": "A#2",
          "midi": 46,
          "time": 110.78930749999994,
          "velocity": 0.7874015748031497,
          "duration": 0.25767505208334285
        },
        {
          "name": "C3",
          "midi": 48,
          "time": 111.05246499999994,
          "velocity": 0.7874015748031497,
          "duration": 0.1260963020833401
        },
        {
          "name": "F2",
          "midi": 41,
          "time": 111.18404374999994,
          "velocity": 0.7874015748031497,
          "duration": 0.25767505208334285
        },
        {
          "name": "G2",
          "midi": 43,
          "time": 111.44720124999995,
          "velocity": 0.7874015748031497,
          "duration": 0.1260963020833401
        },
        {
          "name": "C2",
          "midi": 36,
          "time": 111.57877999999995,
          "velocity": 0.7874015748031497,
          "duration": 0.25767505208332864
        },
        {
          "name": "G2",
          "midi": 43,
          "time": 111.84193749999994,
          "velocity": 0.7874015748031497,
          "duration": 0.25767505208332864
        },
        {
          "name": "C3",
          "midi": 48,
          "time": 112.10509499999993,
          "velocity": 0.7874015748031497,
          "duration": 0.25767505208332864
        },
        {
          "name": "G2",
          "midi": 43,
          "time": 112.36825249999993,
          "velocity": 0.7874015748031497,
          "duration": 0.25767505208332864
        },
        {
          "name": "A#1",
          "midi": 34,
          "time": 112.63140999999992,
          "velocity": 0.7874015748031497,
          "duration": 0.25767505208332864
        },
        {
          "name": "F2",
          "midi": 41,
          "time": 112.89456749999991,
          "velocity": 0.7874015748031497,
          "duration": 0.1260963020833401
        },
        {
          "name": "F2",
          "midi": 41,
          "time": 113.02614624999991,
          "velocity": 0.7874015748031497,
          "duration": 0.1260963020833401
        },
        {
          "name": "A#2",
          "midi": 46,
          "time": 113.15772499999991,
          "velocity": 0.7874015748031497,
          "duration": 0.25767505208332864
        },
        {
          "name": "F2",
          "midi": 41,
          "time": 113.4208824999999,
          "velocity": 0.7874015748031497,
          "duration": 0.25767505208332864
        },
        {
          "name": "G#1",
          "midi": 32,
          "time": 113.6840399999999,
          "velocity": 0.7874015748031497,
          "duration": 0.5208325520833341
        },
        {
          "name": "D#1",
          "midi": 27,
          "time": 114.2103549999999,
          "velocity": 0.7874015748031497,
          "duration": 0.1260963020833401
        },
        {
          "name": "G#1",
          "midi": 32,
          "time": 114.3419337499999,
          "velocity": 0.7874015748031497,
          "duration": 0.25767505208332864
        },
        {
          "name": "D#1",
          "midi": 27,
          "time": 114.60509124999989,
          "velocity": 0.7874015748031497,
          "duration": 0.1260963020833401
        },
        {
          "name": "C2",
          "midi": 36,
          "time": 114.73666999999989,
          "velocity": 0.7874015748031497,
          "duration": 0.25767505208332864
        },
        {
          "name": "A#1",
          "midi": 34,
          "time": 114.99982749999988,
          "velocity": 0.7874015748031497,
          "duration": 0.1260963020833401
        },
        {
          "name": "A#1",
          "midi": 34,
          "time": 115.13140624999988,
          "velocity": 0.7874015748031497,
          "duration": 0.1260963020833401
        },
        {
          "name": "F2",
          "midi": 41,
          "time": 115.26298499999989,
          "velocity": 0.7874015748031497,
          "duration": 0.25767505208332864
        },
        {
          "name": "D#2",
          "midi": 39,
          "time": 115.52614249999988,
          "velocity": 0.7874015748031497,
          "duration": 0.25767505208332864
        },
        {
          "name": "C2",
          "midi": 36,
          "time": 115.78929999999987,
          "velocity": 0.7874015748031497,
          "duration": 0.25767505208332864
        },
        {
          "name": "G2",
          "midi": 43,
          "time": 116.05245749999986,
          "velocity": 0.7874015748031497,
          "duration": 0.1260963020833401
        },
        {
          "name": "G2",
          "midi": 43,
          "time": 116.18403624999986,
          "velocity": 0.7874015748031497,
          "duration": 0.1260963020833401
        },
        {
          "name": "C3",
          "midi": 48,
          "time": 116.31561499999987,
          "velocity": 0.7874015748031497,
          "duration": 0.25767505208332864
        },
        {
          "name": "G2",
          "midi": 43,
          "time": 116.57877249999986,
          "velocity": 0.7874015748031497,
          "duration": 0.25767505208332864
        },
        {
          "name": "A#2",
          "midi": 46,
          "time": 116.84192999999985,
          "velocity": 0.7874015748031497,
          "duration": 0.1260963020833401
        },
        {
          "name": "A#2",
          "midi": 46,
          "time": 116.97350874999985,
          "velocity": 0.7874015748031497,
          "duration": 0.1260963020833401
        },
        {
          "name": "F2",
          "midi": 41,
          "time": 117.10508749999985,
          "velocity": 0.7874015748031497,
          "duration": 0.25767505208332864
        },
        {
          "name": "A#1",
          "midi": 34,
          "time": 117.36824499999985,
          "velocity": 0.7874015748031497,
          "duration": 0.25767505208332864
        },
        {
          "name": "F2",
          "midi": 41,
          "time": 117.63140249999984,
          "velocity": 0.7874015748031497,
          "duration": 0.25767505208332864
        },
        {
          "name": "G#1",
          "midi": 32,
          "time": 117.89455999999983,
          "velocity": 0.7874015748031497,
          "duration": 0.5208325520833341
        },
        {
          "name": "G#1",
          "midi": 32,
          "time": 118.42087499999982,
          "velocity": 0.7874015748031497,
          "duration": 0.1260963020833401
        },
        {
          "name": "G#1",
          "midi": 32,
          "time": 118.55245374999983,
          "velocity": 0.7874015748031497,
          "duration": 0.1260963020833401
        },
        {
          "name": "G#1",
          "midi": 32,
          "time": 118.68403249999983,
          "velocity": 0.7874015748031497,
          "duration": 0.1260963020833401
        },
        {
          "name": "G#1",
          "midi": 32,
          "time": 118.81561124999983,
          "velocity": 0.7874015748031497,
          "duration": 0.1260963020833401
        },
        {
          "name": "G#1",
          "midi": 32,
          "time": 118.94718999999984,
          "velocity": 0.7874015748031497,
          "duration": 0.25767505208332864
        },
        {
          "name": "A#1",
          "midi": 34,
          "time": 119.21034749999983,
          "velocity": 0.7874015748031497,
          "duration": 0.1260963020833401
        },
        {
          "name": "A#1",
          "midi": 34,
          "time": 119.34192624999983,
          "velocity": 0.7874015748031497,
          "duration": 0.1260963020833401
        },
        {
          "name": "A#1",
          "midi": 34,
          "time": 119.47350499999983,
          "velocity": 0.7874015748031497,
          "duration": 0.25767505208332864
        },
        {
          "name": "A#1",
          "midi": 34,
          "time": 119.73666249999982,
          "velocity": 0.7874015748031497,
          "duration": 0.1260963020833401
        },
        {
          "name": "B1",
          "midi": 35,
          "time": 119.86824124999983,
          "velocity": 0.7874015748031497,
          "duration": 0.1260963020833401
        },
        {
          "name": "C2",
          "midi": 36,
          "time": 119.99981999999983,
          "velocity": 0.7874015748031497,
          "duration": 0.25767505208332864
        },
        {
          "name": "G2",
          "midi": 43,
          "time": 120.26297749999982,
          "velocity": 0.7874015748031497,
          "duration": 0.25767505208332864
        },
        {
          "name": "C3",
          "midi": 48,
          "time": 120.52613499999981,
          "velocity": 0.7874015748031497,
          "duration": 0.5208325520833341
        },
        {
          "name": "A#1",
          "midi": 34,
          "time": 121.05244999999981,
          "velocity": 0.7874015748031497,
          "duration": 0.25767505208332864
        },
        {
          "name": "F2",
          "midi": 41,
          "time": 121.3156074999998,
          "velocity": 0.7874015748031497,
          "duration": 0.25767505208332864
        },
        {
          "name": "A#2",
          "midi": 46,
          "time": 121.57876499999979,
          "velocity": 0.7874015748031497,
          "duration": 0.5208325520833341
        },
        {
          "name": "G#1",
          "midi": 32,
          "time": 122.10507999999979,
          "velocity": 0.7874015748031497,
          "duration": 0.25767505208332864
        },
        {
          "name": "D#2",
          "midi": 39,
          "time": 122.36823749999978,
          "velocity": 0.7874015748031497,
          "duration": 0.25767505208332864
        },
        {
          "name": "G#2",
          "midi": 44,
          "time": 122.63139499999977,
          "velocity": 0.7874015748031497,
          "duration": 0.5208325520833341
        },
        {
          "name": "C3",
          "midi": 48,
          "time": 123.15770999999977,
          "velocity": 0.7874015748031497,
          "duration": 0.1260963020833401
        },
        {
          "name": "C3",
          "midi": 48,
          "time": 123.28928874999977,
          "velocity": 0.7874015748031497,
          "duration": 0.1260963020833401
        },
        {
          "name": "G#2",
          "midi": 44,
          "time": 123.68402499999978,
          "velocity": 0.7874015748031497,
          "duration": 0.1260963020833401
        },
        {
          "name": "G#2",
          "midi": 44,
          "time": 123.81560374999978,
          "velocity": 0.7874015748031497,
          "duration": 0.1260963020833401
        },
        {
          "name": "A#1",
          "midi": 34,
          "time": 124.07876124999979,
          "velocity": 0.7874015748031497,
          "duration": 0.1260963020833401
        },
        {
          "name": "C2",
          "midi": 36,
          "time": 124.21033999999979,
          "velocity": 0.7874015748031497,
          "duration": 0.25767505208332864
        },
        {
          "name": "G2",
          "midi": 43,
          "time": 124.47349749999978,
          "velocity": 0.7874015748031497,
          "duration": 0.25767505208332864
        },
        {
          "name": "C3",
          "midi": 48,
          "time": 124.73665499999977,
          "velocity": 0.7874015748031497,
          "duration": 0.25767505208332864
        },
        {
          "name": "A#1",
          "midi": 34,
          "time": 125.13139124999977,
          "velocity": 0.7874015748031497,
          "duration": 0.03289468750000424
        },
        {
          "name": "A#1",
          "midi": 34,
          "time": 125.26296999999977,
          "velocity": 0.7874015748031497,
          "duration": 0.25767505208332864
        },
        {
          "name": "F2",
          "midi": 41,
          "time": 125.52612749999976,
          "velocity": 0.7874015748031497,
          "duration": 0.25767505208332864
        },
        {
          "name": "A#2",
          "midi": 46,
          "time": 125.78928499999975,
          "velocity": 0.7874015748031497,
          "duration": 0.25767505208332864
        },
        {
          "name": "G#2",
          "midi": 44,
          "time": 126.18402124999974,
          "velocity": 0.7874015748031497,
          "duration": 0.03289468750000424
        },
        {
          "name": "G#1",
          "midi": 32,
          "time": 126.31559999999975,
          "velocity": 0.7874015748031497,
          "duration": 0.25767505208332864
        },
        {
          "name": "D#2",
          "midi": 39,
          "time": 126.57875749999974,
          "velocity": 0.7874015748031497,
          "duration": 0.25767505208332864
        },
        {
          "name": "G#2",
          "midi": 44,
          "time": 126.84191499999973,
          "velocity": 0.7874015748031497,
          "duration": 0.5208325520833341
        },
        {
          "name": "A#1",
          "midi": 34,
          "time": 127.36822999999973,
          "velocity": 0.7874015748031497,
          "duration": 0.1260963020833401
        },
        {
          "name": "A#1",
          "midi": 34,
          "time": 127.49980874999973,
          "velocity": 0.7874015748031497,
          "duration": 0.1260963020833401
        },
        {
          "name": "A#1",
          "midi": 34,
          "time": 127.63138749999973,
          "velocity": 0.7874015748031497,
          "duration": 0.1260963020833401
        },
        {
          "name": "A#1",
          "midi": 34,
          "time": 127.76296624999974,
          "velocity": 0.7874015748031497,
          "duration": 0.1260963020833401
        },
        {
          "name": "A#1",
          "midi": 34,
          "time": 127.89454499999974,
          "velocity": 0.7874015748031497,
          "duration": 0.1260963020833401
        },
        {
          "name": "A#1",
          "midi": 34,
          "time": 128.02612374999975,
          "velocity": 0.7874015748031497,
          "duration": 0.1260963020833401
        },
        {
          "name": "A#1",
          "midi": 34,
          "time": 128.15770249999977,
          "velocity": 0.7874015748031497,
          "duration": 0.1260963020833401
        },
        {
          "name": "B1",
          "midi": 35,
          "time": 128.2892812499998,
          "velocity": 0.7874015748031497,
          "duration": 0.1260963020833401
        },
        {
          "name": "C2",
          "midi": 36,
          "time": 128.4208599999998,
          "velocity": 0.7874015748031497,
          "duration": 0.1260963020833401
        },
        {
          "name": "C2",
          "midi": 36,
          "time": 128.55243874999982,
          "velocity": 0.7874015748031497,
          "duration": 0.1260963020833401
        },
        {
          "name": "G2",
          "midi": 43,
          "time": 128.68401749999984,
          "velocity": 0.7874015748031497,
          "duration": 0.1260963020833401
        },
        {
          "name": "G2",
          "midi": 43,
          "time": 128.81559624999986,
          "velocity": 0.7874015748031497,
          "duration": 0.1260963020833401
        },
        {
          "name": "C3",
          "midi": 48,
          "time": 128.94717499999987,
          "velocity": 0.7874015748031497,
          "duration": 0.5208325520833341
        },
        {
          "name": "A#1",
          "midi": 34,
          "time": 129.47348999999988,
          "velocity": 0.7874015748031497,
          "duration": 0.1260963020833401
        },
        {
          "name": "A#1",
          "midi": 34,
          "time": 129.6050687499999,
          "velocity": 0.7874015748031497,
          "duration": 0.1260963020833401
        },
        {
          "name": "F2",
          "midi": 41,
          "time": 129.73664749999992,
          "velocity": 0.7874015748031497,
          "duration": 0.1260963020833401
        },
        {
          "name": "F2",
          "midi": 41,
          "time": 129.86822624999994,
          "velocity": 0.7874015748031497,
          "duration": 0.1260963020833401
        },
        {
          "name": "A#2",
          "midi": 46,
          "time": 129.99980499999995,
          "velocity": 0.7874015748031497,
          "duration": 0.5208325520833341
        },
        {
          "name": "G#1",
          "midi": 32,
          "time": 130.52611999999996,
          "velocity": 0.7874015748031497,
          "duration": 0.1260963020833401
        },
        {
          "name": "G#1",
          "midi": 32,
          "time": 130.65769874999998,
          "velocity": 0.7874015748031497,
          "duration": 0.1260963020833401
        },
        {
          "name": "D#2",
          "midi": 39,
          "time": 130.7892775,
          "velocity": 0.7874015748031497,
          "duration": 0.25767505208332864
        },
        {
          "name": "G#2",
          "midi": 44,
          "time": 131.052435,
          "velocity": 0.7874015748031497,
          "duration": 0.5208325520833341
        },
        {
          "name": "D#2",
          "midi": 39,
          "time": 131.57875,
          "velocity": 0.7874015748031497,
          "duration": 0.25767505208335706
        },
        {
          "name": "F2",
          "midi": 41,
          "time": 131.84190750000005,
          "velocity": 0.7874015748031497,
          "duration": 0.1260963020833401
        },
        {
          "name": "D#2",
          "midi": 39,
          "time": 131.97348625000006,
          "velocity": 0.7874015748031497,
          "duration": 0.1260963020833401
        },
        {
          "name": "F2",
          "midi": 41,
          "time": 132.10506500000008,
          "velocity": 0.7874015748031497,
          "duration": 0.1260963020833401
        },
        {
          "name": "D#2",
          "midi": 39,
          "time": 132.2366437500001,
          "velocity": 0.7874015748031497,
          "duration": 0.1260963020833401
        },
        {
          "name": "A#1",
          "midi": 34,
          "time": 132.36822250000012,
          "velocity": 0.7874015748031497,
          "duration": 0.1260963020833401
        },
        {
          "name": "B1",
          "midi": 35,
          "time": 132.49980125000013,
          "velocity": 0.7874015748031497,
          "duration": 0.1260963020833401
        },
        {
          "name": "C2",
          "midi": 36,
          "time": 132.63138000000015,
          "velocity": 0.7874015748031497,
          "duration": 0.1260963020833401
        },
        {
          "name": "C2",
          "midi": 36,
          "time": 132.76295875000017,
          "velocity": 0.7874015748031497,
          "duration": 0.1260963020833401
        },
        {
          "name": "G2",
          "midi": 43,
          "time": 132.89453750000018,
          "velocity": 0.7874015748031497,
          "duration": 0.1260963020833401
        },
        {
          "name": "G2",
          "midi": 43,
          "time": 133.0261162500002,
          "velocity": 0.7874015748031497,
          "duration": 0.1260963020833401
        },
        {
          "name": "C3",
          "midi": 48,
          "time": 133.15769500000022,
          "velocity": 0.7874015748031497,
          "duration": 0.5208325520833341
        },
        {
          "name": "A#2",
          "midi": 46,
          "time": 133.68401000000023,
          "velocity": 0.7874015748031497,
          "duration": 0.1260963020833401
        },
        {
          "name": "A#2",
          "midi": 46,
          "time": 133.81558875000024,
          "velocity": 0.7874015748031497,
          "duration": 0.1260963020833401
        },
        {
          "name": "F2",
          "midi": 41,
          "time": 133.94716750000026,
          "velocity": 0.7874015748031497,
          "duration": 0.25767505208332864
        },
        {
          "name": "A#1",
          "midi": 34,
          "time": 134.21032500000027,
          "velocity": 0.7874015748031497,
          "duration": 0.5208325520833341
        },
        {
          "name": "G#1",
          "midi": 32,
          "time": 134.73664000000028,
          "velocity": 0.7874015748031497,
          "duration": 0.1260963020833401
        },
        {
          "name": "G#1",
          "midi": 32,
          "time": 134.8682187500003,
          "velocity": 0.7874015748031497,
          "duration": 0.1260963020833401
        },
        {
          "name": "D#2",
          "midi": 39,
          "time": 134.9997975000003,
          "velocity": 0.7874015748031497,
          "duration": 0.25767505208332864
        },
        {
          "name": "G#2",
          "midi": 44,
          "time": 135.26295500000032,
          "velocity": 0.7874015748031497,
          "duration": 0.5208325520833341
        },
        {
          "name": "A#2",
          "midi": 46,
          "time": 135.78927000000033,
          "velocity": 0.7874015748031497,
          "duration": 0.25767505208332864
        },
        {
          "name": "C3",
          "midi": 48,
          "time": 136.05242750000033,
          "velocity": 0.7874015748031497,
          "duration": 0.1260963020833401
        },
        {
          "name": "F2",
          "midi": 41,
          "time": 136.18400625000035,
          "velocity": 0.7874015748031497,
          "duration": 0.1260963020833401
        },
        {
          "name": "F#2",
          "midi": 42,
          "time": 136.31558500000037,
          "velocity": 0.7874015748031497,
          "duration": 0.1260963020833401
        },
        {
          "name": "G2",
          "midi": 43,
          "time": 136.44716375000039,
          "velocity": 0.7874015748031497,
          "duration": 0.1260963020833401
        },
        {
          "name": "F2",
          "midi": 41,
          "time": 136.5787425000004,
          "velocity": 0.7874015748031497,
          "duration": 0.1260963020833401
        },
        {
          "name": "G2",
          "midi": 43,
          "time": 136.71032125000042,
          "velocity": 0.7874015748031497,
          "duration": 0.1260963020833401
        },
        {
          "name": "C2",
          "midi": 36,
          "time": 136.84190000000044,
          "velocity": 0.7874015748031497,
          "duration": 0.1260963020833401
        },
        {
          "name": "C2",
          "midi": 36,
          "time": 136.97347875000045,
          "velocity": 0.7874015748031497,
          "duration": 0.1260963020833401
        },
        {
          "name": "F#2",
          "midi": 42,
          "time": 137.10505750000047,
          "velocity": 0.7874015748031497,
          "duration": 0.1260963020833401
        },
        {
          "name": "G2",
          "midi": 43,
          "time": 137.2366362500005,
          "velocity": 0.7874015748031497,
          "duration": 0.1260963020833401
        },
        {
          "name": "C3",
          "midi": 48,
          "time": 137.3682150000005,
          "velocity": 0.7874015748031497,
          "duration": 0.5208325520833341
        },
        {
          "name": "A#2",
          "midi": 46,
          "time": 137.89453000000051,
          "velocity": 0.7874015748031497,
          "duration": 0.25767505208332864
        },
        {
          "name": "F2",
          "midi": 41,
          "time": 138.15768750000052,
          "velocity": 0.7874015748031497,
          "duration": 0.25767505208332864
        },
        {
          "name": "A#1",
          "midi": 34,
          "time": 138.42084500000053,
          "velocity": 0.7874015748031497,
          "duration": 0.5208325520833341
        },
        {
          "name": "G#1",
          "midi": 32,
          "time": 138.94716000000054,
          "velocity": 0.7874015748031497,
          "duration": 0.25767505208332864
        },
        {
          "name": "G#1",
          "midi": 32,
          "time": 139.21031750000054,
          "velocity": 0.7874015748031497,
          "duration": 0.25767505208332864
        },
        {
          "name": "G#1",
          "midi": 32,
          "time": 139.47347500000055,
          "velocity": 0.7874015748031497,
          "duration": 0.5208325520833341
        },
        {
          "name": "D#2",
          "midi": 39,
          "time": 139.99979000000056,
          "velocity": 0.7874015748031497,
          "duration": 0.25767505208332864
        },
        {
          "name": "F2",
          "midi": 41,
          "time": 140.26294750000056,
          "velocity": 0.7874015748031497,
          "duration": 0.1260963020833401
        },
        {
          "name": "D#2",
          "midi": 39,
          "time": 140.39452625000058,
          "velocity": 0.7874015748031497,
          "duration": 0.1260963020833401
        },
        {
          "name": "F2",
          "midi": 41,
          "time": 140.5261050000006,
          "velocity": 0.7874015748031497,
          "duration": 0.1260963020833401
        },
        {
          "name": "D#2",
          "midi": 39,
          "time": 140.65768375000061,
          "velocity": 0.7874015748031497,
          "duration": 0.1260963020833401
        },
        {
          "name": "A#1",
          "midi": 34,
          "time": 140.78926250000063,
          "velocity": 0.7874015748031497,
          "duration": 0.1260963020833401
        },
        {
          "name": "B1",
          "midi": 35,
          "time": 140.92084125000065,
          "velocity": 0.7874015748031497,
          "duration": 0.1260963020833401
        },
        {
          "name": "C2",
          "midi": 36,
          "time": 141.05242000000067,
          "velocity": 0.7874015748031497,
          "duration": 0.25767505208332864
        },
        {
          "name": "C2",
          "midi": 36,
          "time": 141.31557750000067,
          "velocity": 0.7874015748031497,
          "duration": 0.25767505208332864
        },
        {
          "name": "A#1",
          "midi": 34,
          "time": 141.71031375000067,
          "velocity": 0.7874015748031497,
          "duration": 0.038377135416652663
        },
        {
          "name": "A#2",
          "midi": 46,
          "time": 141.97347125000064,
          "velocity": 0.7874015748031497,
          "duration": 0.1260963020833401
        },
        {
          "name": "A#1",
          "midi": 34,
          "time": 142.10505000000066,
          "velocity": 0.7874015748031497,
          "duration": 0.25767505208332864
        },
        {
          "name": "A#1",
          "midi": 34,
          "time": 142.36820750000066,
          "velocity": 0.7874015748031497,
          "duration": 0.25767505208332864
        },
        {
          "name": "A#1",
          "midi": 34,
          "time": 142.89452250000065,
          "velocity": 0.7874015748031497,
          "duration": 0.1260963020833401
        },
        {
          "name": "A#1",
          "midi": 34,
          "time": 143.02610125000066,
          "velocity": 0.7874015748031497,
          "duration": 0.1260963020833401
        },
        {
          "name": "G#1",
          "midi": 32,
          "time": 143.15768000000068,
          "velocity": 0.7874015748031497,
          "duration": 0.25767505208332864
        },
        {
          "name": "G#1",
          "midi": 32,
          "time": 143.4208375000007,
          "velocity": 0.7874015748031497,
          "duration": 0.25767505208332864
        },
        {
          "name": "A#2",
          "midi": 46,
          "time": 144.21031000000067,
          "velocity": 0.7874015748031497,
          "duration": 0.25767505208332864
        },
        {
          "name": "C3",
          "midi": 48,
          "time": 144.47346750000068,
          "velocity": 0.7874015748031497,
          "duration": 0.1260963020833401
        },
        {
          "name": "F2",
          "midi": 41,
          "time": 144.6050462500007,
          "velocity": 0.7874015748031497,
          "duration": 0.1260963020833401
        },
        {
          "name": "F#2",
          "midi": 42,
          "time": 144.7366250000007,
          "velocity": 0.7874015748031497,
          "duration": 0.1260963020833401
        },
        {
          "name": "F#2",
          "midi": 42,
          "time": 144.86820375000073,
          "velocity": 0.7874015748031497,
          "duration": 0.1260963020833401
        },
        {
          "name": "G2",
          "midi": 43,
          "time": 144.99978250000075,
          "velocity": 0.7874015748031497,
          "duration": 0.25767505208332864
        },
        {
          "name": "C2",
          "midi": 36,
          "time": 145.26294000000075,
          "velocity": 0.7874015748031497,
          "duration": 0.25767505208332864
        },
        {
          "name": "G2",
          "midi": 43,
          "time": 145.52609750000076,
          "velocity": 0.7874015748031497,
          "duration": 0.1260963020833401
        },
        {
          "name": "G2",
          "midi": 43,
          "time": 145.65767625000078,
          "velocity": 0.7874015748031497,
          "duration": 0.1260963020833401
        },
        {
          "name": "C3",
          "midi": 48,
          "time": 145.7892550000008,
          "velocity": 0.7874015748031497,
          "duration": 0.5208325520833341
        },
        {
          "name": "A#1",
          "midi": 34,
          "time": 146.3155700000008,
          "velocity": 0.7874015748031497,
          "duration": 0.1260963020833401
        },
        {
          "name": "A#1",
          "midi": 34,
          "time": 146.44714875000082,
          "velocity": 0.7874015748031497,
          "duration": 0.1260963020833401
        },
        {
          "name": "F2",
          "midi": 41,
          "time": 146.57872750000084,
          "velocity": 0.7874015748031497,
          "duration": 0.1260963020833401
        },
        {
          "name": "F2",
          "midi": 41,
          "time": 146.71030625000085,
          "velocity": 0.7874015748031497,
          "duration": 0.1260963020833401
        },
        {
          "name": "A#2",
          "midi": 46,
          "time": 146.84188500000087,
          "velocity": 0.7874015748031497,
          "duration": 0.1260963020833401
        },
        {
          "name": "A#2",
          "midi": 46,
          "time": 146.9734637500009,
          "velocity": 0.7874015748031497,
          "duration": 0.1260963020833401
        },
        {
          "name": "G#1",
          "midi": 32,
          "time": 147.36820000000088,
          "velocity": 0.7874015748031497,
          "duration": 0.25767505208332864
        },
        {
          "name": "G#1",
          "midi": 32,
          "time": 147.6313575000009,
          "velocity": 0.7874015748031497,
          "duration": 0.1260963020833401
        },
        {
          "name": "G#1",
          "midi": 32,
          "time": 147.7629362500009,
          "velocity": 0.7874015748031497,
          "duration": 0.1260963020833401
        },
        {
          "name": "G#1",
          "midi": 32,
          "time": 147.89451500000092,
          "velocity": 0.7874015748031497,
          "duration": 0.25767505208332864
        },
        {
          "name": "G#2",
          "midi": 44,
          "time": 148.15767250000093,
          "velocity": 0.7874015748031497,
          "duration": 0.1260963020833401
        },
        {
          "name": "G#2",
          "midi": 44,
          "time": 148.28925125000094,
          "velocity": 0.7874015748031497,
          "duration": 0.1260963020833401
        },
        {
          "name": "G#2",
          "midi": 44,
          "time": 148.42083000000096,
          "velocity": 0.7874015748031497,
          "duration": 0.25767505208332864
        },
        {
          "name": "A#1",
          "midi": 34,
          "time": 148.68398750000097,
          "velocity": 0.7874015748031497,
          "duration": 0.1260963020833401
        },
        {
          "name": "A#1",
          "midi": 34,
          "time": 148.81556625000098,
          "velocity": 0.7874015748031497,
          "duration": 0.1260963020833401
        },
        {
          "name": "A#1",
          "midi": 34,
          "time": 148.947145000001,
          "velocity": 0.7874015748031497,
          "duration": 0.1260963020833401
        },
        {
          "name": "A#1",
          "midi": 34,
          "time": 149.07872375000102,
          "velocity": 0.7874015748031497,
          "duration": 0.1260963020833401
        },
        {
          "name": "B1",
          "midi": 35,
          "time": 149.21030250000103,
          "velocity": 0.7874015748031497,
          "duration": 0.1260963020833401
        },
        {
          "name": "B1",
          "midi": 35,
          "time": 149.34188125000105,
          "velocity": 0.7874015748031497,
          "duration": 0.1260963020833401
        },
        {
          "name": "C2",
          "midi": 36,
          "time": 149.47346000000107,
          "velocity": 0.7874015748031497,
          "duration": 0.25767505208332864
        },
        {
          "name": "G2",
          "midi": 43,
          "time": 149.73661750000107,
          "velocity": 0.7874015748031497,
          "duration": 0.1260963020833401
        },
        {
          "name": "G2",
          "midi": 43,
          "time": 149.8681962500011,
          "velocity": 0.7874015748031497,
          "duration": 0.1260963020833401
        },
        {
          "name": "C3",
          "midi": 48,
          "time": 149.9997750000011,
          "velocity": 0.7874015748031497,
          "duration": 0.5208325520833341
        },
        {
          "name": "A#1",
          "midi": 34,
          "time": 150.52609000000112,
          "velocity": 0.7874015748031497,
          "duration": 0.1260963020833401
        },
        {
          "name": "A#1",
          "midi": 34,
          "time": 150.65766875000114,
          "velocity": 0.7874015748031497,
          "duration": 0.1260963020833401
        },
        {
          "name": "F2",
          "midi": 41,
          "time": 150.78924750000115,
          "velocity": 0.7874015748031497,
          "duration": 0.1260963020833401
        },
        {
          "name": "F2",
          "midi": 41,
          "time": 150.92082625000117,
          "velocity": 0.7874015748031497,
          "duration": 0.1260963020833401
        },
        {
          "name": "A#2",
          "midi": 46,
          "time": 151.0524050000012,
          "velocity": 0.7874015748031497,
          "duration": 0.25767505208332864
        },
        {
          "name": "D3",
          "midi": 50,
          "time": 151.44714125000118,
          "velocity": 0.7874015748031497,
          "duration": 0.1260963020833401
        },
        {
          "name": "F3",
          "midi": 53,
          "time": 151.5787200000012,
          "velocity": 0.7874015748031497,
          "duration": 0.1260963020833401
        },
        {
          "name": "F3",
          "midi": 53,
          "time": 151.71029875000121,
          "velocity": 0.7874015748031497,
          "duration": 0.25767505208332864
        },
        {
          "name": "F3",
          "midi": 53,
          "time": 151.97345625000122,
          "velocity": 0.7874015748031497,
          "duration": 0.1260963020833401
        },
        {
          "name": "F3",
          "midi": 53,
          "time": 152.10503500000124,
          "velocity": 0.7874015748031497,
          "duration": 0.1260963020833401
        },
        {
          "name": "F3",
          "midi": 53,
          "time": 152.23661375000125,
          "velocity": 0.7874015748031497,
          "duration": 0.1260963020833401
        },
        {
          "name": "F#3",
          "midi": 54,
          "time": 152.36819250000127,
          "velocity": 0.7874015748031497,
          "duration": 0.25767505208332864
        },
        {
          "name": "G3",
          "midi": 55,
          "time": 152.63135000000128,
          "velocity": 0.7874015748031497,
          "duration": 0.1260963020833401
        },
        {
          "name": "G3",
          "midi": 55,
          "time": 152.7629287500013,
          "velocity": 0.7874015748031497,
          "duration": 0.1260963020833401
        },
        {
          "name": "G3",
          "midi": 55,
          "time": 152.8945075000013,
          "velocity": 0.7874015748031497,
          "duration": 0.25767505208332864
        },
        {
          "name": "D#3",
          "midi": 51,
          "time": 153.15766500000132,
          "velocity": 0.7874015748031497,
          "duration": 0.1260963020833401
        },
        {
          "name": "G2",
          "midi": 43,
          "time": 153.28924375000133,
          "velocity": 0.7874015748031497,
          "duration": 0.1260963020833401
        },
        {
          "name": "A#2",
          "midi": 46,
          "time": 153.42082250000135,
          "velocity": 0.7874015748031497,
          "duration": 0.25767505208332864
        },
        {
          "name": "C3",
          "midi": 48,
          "time": 153.68398000000136,
          "velocity": 0.7874015748031497,
          "duration": 0.25767505208332864
        },
        {
          "name": "C3",
          "midi": 48,
          "time": 153.94713750000136,
          "velocity": 0.7874015748031497,
          "duration": 0.25767505208332864
        },
        {
          "name": "G#2",
          "midi": 44,
          "time": 154.47345250000134,
          "velocity": 0.7874015748031497,
          "duration": 0.25767505208332864
        },
        {
          "name": "A#2",
          "midi": 46,
          "time": 154.73661000000135,
          "velocity": 0.7874015748031497,
          "duration": 0.25767505208332864
        },
        {
          "name": "A#2",
          "midi": 46,
          "time": 154.99976750000135,
          "velocity": 0.7874015748031497,
          "duration": 0.25767505208332864
        },
        {
          "name": "A#2",
          "midi": 46,
          "time": 155.52608250000134,
          "velocity": 0.7874015748031497,
          "duration": 0.25767505208332864
        },
        {
          "name": "G#2",
          "midi": 44,
          "time": 155.78924000000134,
          "velocity": 0.7874015748031497,
          "duration": 0.25767505208332864
        },
        {
          "name": "G#2",
          "midi": 44,
          "time": 156.05239750000135,
          "velocity": 0.7874015748031497,
          "duration": 0.25767505208332864
        },
        {
          "name": "F#2",
          "midi": 42,
          "time": 156.31555500000135,
          "velocity": 0.7874015748031497,
          "duration": 0.1260963020833401
        },
        {
          "name": "G2",
          "midi": 43,
          "time": 156.44713375000137,
          "velocity": 0.7874015748031497,
          "duration": 0.1260963020833401
        },
        {
          "name": "G#2",
          "midi": 44,
          "time": 156.5787125000014,
          "velocity": 0.7874015748031497,
          "duration": 0.25767505208332864
        },
        {
          "name": "A#2",
          "midi": 46,
          "time": 156.8418700000014,
          "velocity": 0.7874015748031497,
          "duration": 0.1260963020833401
        },
        {
          "name": "C3",
          "midi": 48,
          "time": 156.9734487500014,
          "velocity": 0.7874015748031497,
          "duration": 0.1260963020833401
        },
        {
          "name": "C3",
          "midi": 48,
          "time": 157.10502750000143,
          "velocity": 0.7874015748031497,
          "duration": 0.1260963020833401
        },
        {
          "name": "F2",
          "midi": 41,
          "time": 157.23660625000144,
          "velocity": 0.7874015748031497,
          "duration": 0.1260963020833401
        },
        {
          "name": "G2",
          "midi": 43,
          "time": 157.36818500000146,
          "velocity": 0.7874015748031497,
          "duration": 0.1260963020833401
        },
        {
          "name": "G2",
          "midi": 43,
          "time": 157.49976375000148,
          "velocity": 0.7874015748031497,
          "duration": 0.1260963020833401
        },
        {
          "name": "A#2",
          "midi": 46,
          "time": 157.6313425000015,
          "velocity": 0.7874015748031497,
          "duration": 0.25767505208332864
        },
        {
          "name": "C2",
          "midi": 36,
          "time": 157.8945000000015,
          "velocity": 0.7874015748031497,
          "duration": 0.25767505208332864
        },
        {
          "name": "C2",
          "midi": 36,
          "time": 158.1576575000015,
          "velocity": 0.7874015748031497,
          "duration": 0.1260963020833401
        },
        {
          "name": "C2",
          "midi": 36,
          "time": 158.28923625000152,
          "velocity": 0.7874015748031497,
          "duration": 0.1260963020833401
        },
        {
          "name": "G2",
          "midi": 43,
          "time": 158.42081500000154,
          "velocity": 0.7874015748031497,
          "duration": 0.1260963020833401
        },
        {
          "name": "G2",
          "midi": 43,
          "time": 158.55239375000156,
          "velocity": 0.7874015748031497,
          "duration": 0.1260963020833401
        },
        {
          "name": "C3",
          "midi": 48,
          "time": 158.68397250000157,
          "velocity": 0.7874015748031497,
          "duration": 0.25767505208332864
        },
        {
          "name": "A#1",
          "midi": 34,
          "time": 158.94713000000158,
          "velocity": 0.7874015748031497,
          "duration": 0.1260963020833401
        },
        {
          "name": "A#1",
          "midi": 34,
          "time": 159.0787087500016,
          "velocity": 0.7874015748031497,
          "duration": 0.1260963020833401
        },
        {
          "name": "F2",
          "midi": 41,
          "time": 159.2102875000016,
          "velocity": 0.7874015748031497,
          "duration": 0.25767505208332864
        },
        {
          "name": "A#2",
          "midi": 46,
          "time": 159.47344500000162,
          "velocity": 0.7874015748031497,
          "duration": 0.25767505208332864
        },
        {
          "name": "F2",
          "midi": 41,
          "time": 159.73660250000162,
          "velocity": 0.7874015748031497,
          "duration": 0.1260963020833401
        },
        {
          "name": "F2",
          "midi": 41,
          "time": 159.86818125000164,
          "velocity": 0.7874015748031497,
          "duration": 0.1260963020833401
        },
        {
          "name": "G#1",
          "midi": 32,
          "time": 159.99976000000166,
          "velocity": 0.7874015748031497,
          "duration": 0.25767505208332864
        },
        {
          "name": "G#1",
          "midi": 32,
          "time": 160.26291750000166,
          "velocity": 0.7874015748031497,
          "duration": 0.25767505208332864
        },
        {
          "name": "G#1",
          "midi": 32,
          "time": 160.52607500000167,
          "velocity": 0.7874015748031497,
          "duration": 0.1260963020833401
        },
        {
          "name": "G#1",
          "midi": 32,
          "time": 160.65765375000169,
          "velocity": 0.7874015748031497,
          "duration": 0.1260963020833401
        },
        {
          "name": "D#1",
          "midi": 27,
          "time": 160.7892325000017,
          "velocity": 0.7874015748031497,
          "duration": 0.25767505208332864
        },
        {
          "name": "F1",
          "midi": 29,
          "time": 161.0523900000017,
          "velocity": 0.7874015748031497,
          "duration": 0.25767505208332864
        },
        {
          "name": "F#1",
          "midi": 30,
          "time": 161.3155475000017,
          "velocity": 0.7874015748031497,
          "duration": 0.25767505208332864
        },
        {
          "name": "G1",
          "midi": 31,
          "time": 161.57870500000172,
          "velocity": 0.7874015748031497,
          "duration": 0.25767505208332864
        },
        {
          "name": "A#1",
          "midi": 34,
          "time": 161.84186250000172,
          "velocity": 0.7874015748031497,
          "duration": 0.25767505208332864
        },
        {
          "name": "C2",
          "midi": 36,
          "time": 162.10502000000173,
          "velocity": 0.7874015748031497,
          "duration": 0.25767505208332864
        },
        {
          "name": "G2",
          "midi": 43,
          "time": 162.36817750000174,
          "velocity": 0.7874015748031497,
          "duration": 0.25767505208332864
        },
        {
          "name": "C3",
          "midi": 48,
          "time": 162.63133500000174,
          "velocity": 0.7874015748031497,
          "duration": 0.25767505208332864
        },
        {
          "name": "A#2",
          "midi": 46,
          "time": 162.89449250000175,
          "velocity": 0.7874015748031497,
          "duration": 0.038377135416652663
        },
        {
          "name": "A#2",
          "midi": 46,
          "time": 163.02607125000173,
          "velocity": 0.7874015748031497,
          "duration": 0.038377135416652663
        },
        {
          "name": "A#2",
          "midi": 46,
          "time": 163.15765000000172,
          "velocity": 0.7874015748031497,
          "duration": 0.1260963020833401
        },
        {
          "name": "A#2",
          "midi": 46,
          "time": 163.28922875000174,
          "velocity": 0.7874015748031497,
          "duration": 0.1260963020833401
        },
        {
          "name": "A#2",
          "midi": 46,
          "time": 163.42080750000176,
          "velocity": 0.7874015748031497,
          "duration": 0.25767505208332864
        },
        {
          "name": "F2",
          "midi": 41,
          "time": 163.68396500000176,
          "velocity": 0.7874015748031497,
          "duration": 0.25767505208332864
        },
        {
          "name": "F2",
          "midi": 41,
          "time": 163.94712250000177,
          "velocity": 0.7874015748031497,
          "duration": 0.038377135416652663
        },
        {
          "name": "F2",
          "midi": 41,
          "time": 164.07870125000176,
          "velocity": 0.7874015748031497,
          "duration": 0.038377135416652663
        },
        {
          "name": "G#1",
          "midi": 32,
          "time": 164.21028000000175,
          "velocity": 0.7874015748031497,
          "duration": 0.25767505208332864
        },
        {
          "name": "C2",
          "midi": 36,
          "time": 164.47343750000175,
          "velocity": 0.7874015748031497,
          "duration": 0.25767505208332864
        },
        {
          "name": "C#2",
          "midi": 37,
          "time": 164.73659500000176,
          "velocity": 0.7874015748031497,
          "duration": 0.25767505208332864
        },
        {
          "name": "D2",
          "midi": 38,
          "time": 164.99975250000176,
          "velocity": 0.7874015748031497,
          "duration": 0.1260963020833401
        },
        {
          "name": "D#2",
          "midi": 39,
          "time": 165.13133125000178,
          "velocity": 0.7874015748031497,
          "duration": 0.25767505208332864
        },
        {
          "name": "E2",
          "midi": 40,
          "time": 165.39448875000178,
          "velocity": 0.7874015748031497,
          "duration": 0.1260963020833401
        },
        {
          "name": "F2",
          "midi": 41,
          "time": 165.5260675000018,
          "velocity": 0.7874015748031497,
          "duration": 0.25767505208332864
        },
        {
          "name": "G2",
          "midi": 43,
          "time": 165.7892250000018,
          "velocity": 0.7874015748031497,
          "duration": 0.25767505208332864
        },
        {
          "name": "A#2",
          "midi": 46,
          "time": 166.0523825000018,
          "velocity": 0.7874015748031497,
          "duration": 0.25767505208332864
        },
        {
          "name": "C3",
          "midi": 48,
          "time": 166.31554000000182,
          "velocity": 0.7874015748031497,
          "duration": 0.25767505208332864
        },
        {
          "name": "G2",
          "midi": 43,
          "time": 166.57869750000182,
          "velocity": 0.7874015748031497,
          "duration": 0.25767505208332864
        },
        {
          "name": "C2",
          "midi": 36,
          "time": 166.84185500000183,
          "velocity": 0.7874015748031497,
          "duration": 0.3892538020833456
        },
        {
          "name": "C2",
          "midi": 36,
          "time": 167.23659125000185,
          "velocity": 0.7874015748031497,
          "duration": 0.038377135416652663
        },
        {
          "name": "A#2",
          "midi": 46,
          "time": 167.36817000000184,
          "velocity": 0.7874015748031497,
          "duration": 0.25767505208332864
        },
        {
          "name": "F2",
          "midi": 41,
          "time": 167.63132750000185,
          "velocity": 0.7874015748031497,
          "duration": 0.25767505208332864
        },
        {
          "name": "A#1",
          "midi": 34,
          "time": 167.89448500000185,
          "velocity": 0.7874015748031497,
          "duration": 0.3892538020833456
        },
        {
          "name": "A#1",
          "midi": 34,
          "time": 168.28922125000187,
          "velocity": 0.7874015748031497,
          "duration": 0.038377135416652663
        },
        {
          "name": "G#2",
          "midi": 44,
          "time": 168.42080000000186,
          "velocity": 0.7874015748031497,
          "duration": 0.25767505208332864
        },
        {
          "name": "D#2",
          "midi": 39,
          "time": 168.68395750000187,
          "velocity": 0.7874015748031497,
          "duration": 0.25767505208332864
        },
        {
          "name": "G#1",
          "midi": 32,
          "time": 168.94711500000187,
          "velocity": 0.7874015748031497,
          "duration": 0.25767505208332864
        },
        {
          "name": "D#1",
          "midi": 27,
          "time": 169.21027250000188,
          "velocity": 0.7874015748031497,
          "duration": 0.25767505208332864
        },
        {
          "name": "F1",
          "midi": 29,
          "time": 169.47343000000188,
          "velocity": 0.7874015748031497,
          "duration": 0.25767505208332864
        },
        {
          "name": "F#1",
          "midi": 30,
          "time": 169.7365875000019,
          "velocity": 0.7874015748031497,
          "duration": 0.25767505208332864
        },
        {
          "name": "G1",
          "midi": 31,
          "time": 169.9997450000019,
          "velocity": 0.7874015748031497,
          "duration": 0.25767505208332864
        },
        {
          "name": "A#1",
          "midi": 34,
          "time": 170.2629025000019,
          "velocity": 0.7874015748031497,
          "duration": 0.25767505208332864
        },
        {
          "name": "C2",
          "midi": 36,
          "time": 170.5260600000019,
          "velocity": 0.7874015748031497,
          "duration": 0.5208325520833341
        },
        {
          "name": "G1",
          "midi": 31,
          "time": 171.4471112500019,
          "velocity": 0.7874015748031497,
          "duration": 0.1260963020833401
        },
        {
          "name": "A#1",
          "midi": 34,
          "time": 171.57869000000193,
          "velocity": 0.7874015748031497,
          "duration": 0.25767505208332864
        },
        {
          "name": "A#1",
          "midi": 34,
          "time": 171.84184750000193,
          "velocity": 0.7874015748031497,
          "duration": 0.25767505208332864
        },
        {
          "name": "G#1",
          "midi": 32,
          "time": 172.36816250000192,
          "velocity": 0.7874015748031497,
          "duration": 0.1260963020833401
        },
        {
          "name": "A#1",
          "midi": 34,
          "time": 172.49974125000193,
          "velocity": 0.7874015748031497,
          "duration": 0.1260963020833401
        },
        {
          "name": "G#1",
          "midi": 32,
          "time": 172.63132000000195,
          "velocity": 0.7874015748031497,
          "duration": 1.047147552083345
        },
        {
          "name": "C3",
          "midi": 48,
          "time": 173.68395000000197,
          "velocity": 0.7874015748031497,
          "duration": 0.1260963020833401
        },
        {
          "name": "C3",
          "midi": 48,
          "time": 173.815528750002,
          "velocity": 0.7874015748031497,
          "duration": 0.1260963020833401
        },
        {
          "name": "C3",
          "midi": 48,
          "time": 173.947107500002,
          "velocity": 0.7874015748031497,
          "duration": 0.25767505208332864
        },
        {
          "name": "F2",
          "midi": 41,
          "time": 174.210265000002,
          "velocity": 0.7874015748031497,
          "duration": 0.1260963020833401
        },
        {
          "name": "F#2",
          "midi": 42,
          "time": 174.34184375000203,
          "velocity": 0.7874015748031497,
          "duration": 0.1260963020833401
        },
        {
          "name": "G2",
          "midi": 43,
          "time": 174.47342250000204,
          "velocity": 0.7874015748031497,
          "duration": 0.25767505208332864
        },
        {
          "name": "C2",
          "midi": 36,
          "time": 174.73658000000205,
          "velocity": 0.7874015748031497,
          "duration": 0.7839900520833396
        },
        {
          "name": "G#1",
          "midi": 32,
          "time": 175.65763125000205,
          "velocity": 0.7874015748031497,
          "duration": 0.1260963020833401
        },
        {
          "name": "A#1",
          "midi": 34,
          "time": 175.78921000000207,
          "velocity": 0.7874015748031497,
          "duration": 0.25767505208332864
        },
        {
          "name": "A#1",
          "midi": 34,
          "time": 176.05236750000208,
          "velocity": 0.7874015748031497,
          "duration": 0.3892538020833456
        },
        {
          "name": "G#1",
          "midi": 32,
          "time": 176.4471037500021,
          "velocity": 0.7874015748031497,
          "duration": 0.1260963020833401
        },
        {
          "name": "A#1",
          "midi": 34,
          "time": 176.57868250000212,
          "velocity": 0.7874015748031497,
          "duration": 0.25767505208332864
        },
        {
          "name": "G#1",
          "midi": 32,
          "time": 176.84184000000212,
          "velocity": 0.7874015748031497,
          "duration": 0.7839900520833396
        },
        {
          "name": "D#2",
          "midi": 39,
          "time": 177.76289125000213,
          "velocity": 0.7874015748031497,
          "duration": 0.1260963020833401
        },
        {
          "name": "F2",
          "midi": 41,
          "time": 177.89447000000214,
          "velocity": 0.7874015748031497,
          "duration": 0.25767505208332864
        },
        {
          "name": "F2",
          "midi": 41,
          "time": 178.15762750000215,
          "velocity": 0.7874015748031497,
          "duration": 0.25767505208332864
        },
        {
          "name": "F2",
          "midi": 41,
          "time": 178.42078500000216,
          "velocity": 0.7874015748031497,
          "duration": 0.25767505208332864
        },
        {
          "name": "D#2",
          "midi": 39,
          "time": 178.68394250000216,
          "velocity": 0.7874015748031497,
          "duration": 0.1260963020833401
        },
        {
          "name": "C2",
          "midi": 36,
          "time": 178.81552125000218,
          "velocity": 0.7874015748031497,
          "duration": 0.1260963020833401
        },
        {
          "name": "C2",
          "midi": 36,
          "time": 178.9471000000022,
          "velocity": 0.7874015748031497,
          "duration": 0.7839900520833396
        },
        {
          "name": "F2",
          "midi": 41,
          "time": 179.8681512500022,
          "velocity": 0.7874015748031497,
          "duration": 0.1260963020833401
        },
        {
          "name": "A#1",
          "midi": 34,
          "time": 179.99973000000222,
          "velocity": 0.7874015748031497,
          "duration": 0.25767505208332864
        },
        {
          "name": "A#1",
          "midi": 34,
          "time": 180.26288750000222,
          "velocity": 0.7874015748031497,
          "duration": 0.5208325520833341
        },
        {
          "name": "A#1",
          "midi": 34,
          "time": 180.78920250000223,
          "velocity": 0.7874015748031497,
          "duration": 0.25767505208332864
        },
        {
          "name": "G#1",
          "midi": 32,
          "time": 181.05236000000224,
          "velocity": 0.7874015748031497,
          "duration": 0.25767505208332864
        },
        {
          "name": "G#1",
          "midi": 32,
          "time": 181.31551750000224,
          "velocity": 0.7874015748031497,
          "duration": 0.5208325520833341
        },
        {
          "name": "G#2",
          "midi": 44,
          "time": 182.10499000000223,
          "velocity": 0.7874015748031497,
          "duration": 0.5208325520833341
        },
        {
          "name": "A#1",
          "midi": 34,
          "time": 182.63130500000224,
          "velocity": 0.7874015748031497,
          "duration": 0.1260963020833401
        },
        {
          "name": "A#1",
          "midi": 34,
          "time": 182.76288375000226,
          "velocity": 0.7874015748031497,
          "duration": 0.1260963020833401
        },
        {
          "name": "G#1",
          "midi": 32,
          "time": 183.02604125000227,
          "velocity": 0.7874015748031497,
          "duration": 0.1260963020833401
        },
        {
          "name": "C2",
          "midi": 36,
          "time": 183.15762000000228,
          "velocity": 0.7874015748031497,
          "duration": 0.7839900520833396
        },
        {
          "name": "G#1",
          "midi": 32,
          "time": 184.0786712500023,
          "velocity": 0.7874015748031497,
          "duration": 0.1260963020833401
        },
        {
          "name": "A#1",
          "midi": 34,
          "time": 184.2102500000023,
          "velocity": 0.7874015748031497,
          "duration": 0.25767505208332864
        },
        {
          "name": "A#1",
          "midi": 34,
          "time": 184.4734075000023,
          "velocity": 0.7874015748031497,
          "duration": 0.3892538020833456
        },
        {
          "name": "G#1",
          "midi": 32,
          "time": 184.86814375000233,
          "velocity": 0.7874015748031497,
          "duration": 0.1260963020833401
        },
        {
          "name": "A#1",
          "midi": 34,
          "time": 184.99972250000235,
          "velocity": 0.7874015748031497,
          "duration": 0.25767505208332864
        },
        {
          "name": "F2",
          "midi": 41,
          "time": 185.26288000000235,
          "velocity": 0.7874015748031497,
          "duration": 1.047147552083345
        },
        {
          "name": "F3",
          "midi": 53,
          "time": 186.31551000000238,
          "velocity": 0.7874015748031497,
          "duration": 0.25767505208332864
        },
        {
          "name": "F2",
          "midi": 41,
          "time": 186.57866750000238,
          "velocity": 0.7874015748031497,
          "duration": 0.3892538020833456
        },
        {
          "name": "B2",
          "midi": 47,
          "time": 186.9734037500024,
          "velocity": 0.7874015748031497,
          "duration": 0.1260963020833401
        },
        {
          "name": "C3",
          "midi": 48,
          "time": 187.10498250000242,
          "velocity": 0.7874015748031497,
          "duration": 0.25767505208332864
        },
        {
          "name": "C2",
          "midi": 36,
          "time": 187.36814000000243,
          "velocity": 0.7874015748031497,
          "duration": 0.7839900520833396
        },
        {
          "name": "G#1",
          "midi": 32,
          "time": 188.28919125000243,
          "velocity": 0.7874015748031497,
          "duration": 0.1260963020833401
        },
        {
          "name": "A#1",
          "midi": 34,
          "time": 188.42077000000245,
          "velocity": 0.7874015748031497,
          "duration": 0.25767505208332864
        },
        {
          "name": "A#1",
          "midi": 34,
          "time": 188.68392750000245,
          "velocity": 0.7874015748031497,
          "duration": 0.3892538020833456
        },
        {
          "name": "F2",
          "midi": 41,
          "time": 189.07866375000248,
          "velocity": 0.7874015748031497,
          "duration": 0.1260963020833401
        },
        {
          "name": "A#1",
          "midi": 34,
          "time": 189.2102425000025,
          "velocity": 0.7874015748031497,
          "duration": 0.25767505208332864
        },
        {
          "name": "G#1",
          "midi": 32,
          "time": 189.4734000000025,
          "velocity": 0.7874015748031497,
          "duration": 0.7839900520833396
        },
        {
          "name": "G#1",
          "midi": 32,
          "time": 190.26287250000252,
          "velocity": 0.7874015748031497,
          "duration": 0.1260963020833401
        },
        {
          "name": "G#1",
          "midi": 32,
          "time": 190.39445125000253,
          "velocity": 0.7874015748031497,
          "duration": 0.1260963020833401
        },
        {
          "name": "A#2",
          "midi": 46,
          "time": 190.52603000000255,
          "velocity": 0.7874015748031497,
          "duration": 0.1260963020833401
        },
        {
          "name": "A#2",
          "midi": 46,
          "time": 190.65760875000257,
          "velocity": 0.7874015748031497,
          "duration": 0.1260963020833401
        },
        {
          "name": "A#2",
          "midi": 46,
          "time": 190.78918750000258,
          "velocity": 0.7874015748031497,
          "duration": 0.1260963020833401
        },
        {
          "name": "A#2",
          "midi": 46,
          "time": 190.9207662500026,
          "velocity": 0.7874015748031497,
          "duration": 0.1260963020833401
        },
        {
          "name": "C3",
          "midi": 48,
          "time": 191.05234500000262,
          "velocity": 0.7874015748031497,
          "duration": 0.1260963020833401
        },
        {
          "name": "C3",
          "midi": 48,
          "time": 191.18392375000263,
          "velocity": 0.7874015748031497,
          "duration": 0.1260963020833401
        },
        {
          "name": "C3",
          "midi": 48,
          "time": 191.31550250000265,
          "velocity": 0.7874015748031497,
          "duration": 0.25767505208332864
        },
        {
          "name": "C2",
          "midi": 36,
          "time": 191.57866000000266,
          "velocity": 0.7874015748031497,
          "duration": 0.7839900520833396
        },
        {
          "name": "G#1",
          "midi": 32,
          "time": 192.49971125000266,
          "velocity": 0.7874015748031497,
          "duration": 0.1260963020833401
        },
        {
          "name": "A#1",
          "midi": 34,
          "time": 192.63129000000268,
          "velocity": 0.7874015748031497,
          "duration": 0.25767505208332864
        },
        {
          "name": "A#1",
          "midi": 34,
          "time": 192.89444750000268,
          "velocity": 0.7874015748031497,
          "duration": 0.3892538020833456
        },
        {
          "name": "G#1",
          "midi": 32,
          "time": 193.2891837500027,
          "velocity": 0.7874015748031497,
          "duration": 0.1260963020833401
        },
        {
          "name": "A#1",
          "midi": 34,
          "time": 193.42076250000272,
          "velocity": 0.7874015748031497,
          "duration": 0.25767505208332864
        },
        {
          "name": "G#1",
          "midi": 32,
          "time": 193.68392000000273,
          "velocity": 0.7874015748031497,
          "duration": 0.5208325520833341
        },
        {
          "name": "C3",
          "midi": 48,
          "time": 194.21023500000274,
          "velocity": 0.7874015748031497,
          "duration": 0.1260963020833401
        },
        {
          "name": "C2",
          "midi": 36,
          "time": 194.34181375000276,
          "velocity": 0.7874015748031497,
          "duration": 0.1260963020833401
        },
        {
          "name": "C3",
          "midi": 48,
          "time": 194.47339250000277,
          "velocity": 0.7874015748031497,
          "duration": 0.1260963020833401
        },
        {
          "name": "C3",
          "midi": 48,
          "time": 194.6049712500028,
          "velocity": 0.7874015748031497,
          "duration": 0.1260963020833401
        },
        {
          "name": "C3",
          "midi": 48,
          "time": 194.7365500000028,
          "velocity": 0.7874015748031497,
          "duration": 0.25767505208332864
        },
        {
          "name": "C2",
          "midi": 36,
          "time": 194.9997075000028,
          "velocity": 0.7874015748031497,
          "duration": 0.1260963020833401
        },
        {
          "name": "G2",
          "midi": 43,
          "time": 195.13128625000283,
          "velocity": 0.7874015748031497,
          "duration": 0.1260963020833401
        },
        {
          "name": "C3",
          "midi": 48,
          "time": 195.26286500000285,
          "velocity": 0.7874015748031497,
          "duration": 0.1260963020833401
        },
        {
          "name": "C2",
          "midi": 36,
          "time": 195.39444375000286,
          "velocity": 0.7874015748031497,
          "duration": 0.1260963020833401
        },
        {
          "name": "C3",
          "midi": 48,
          "time": 195.52602250000288,
          "velocity": 0.7874015748031497,
          "duration": 0.25767505208332864
        },
        {
          "name": "C2",
          "midi": 36,
          "time": 195.7891800000029,
          "velocity": 0.7874015748031497,
          "duration": 0.7839900520833396
        },
        {
          "name": "G#1",
          "midi": 32,
          "time": 196.7102312500029,
          "velocity": 0.7874015748031497,
          "duration": 0.1260963020833401
        },
        {
          "name": "A#1",
          "midi": 34,
          "time": 196.8418100000029,
          "velocity": 0.7874015748031497,
          "duration": 0.25767505208332864
        },
        {
          "name": "A#1",
          "midi": 34,
          "time": 197.1049675000029,
          "velocity": 0.7874015748031497,
          "duration": 0.3892538020833456
        },
        {
          "name": "A#2",
          "midi": 46,
          "time": 197.49970375000294,
          "velocity": 0.7874015748031497,
          "duration": 0.1260963020833401
        },
        {
          "name": "A#1",
          "midi": 34,
          "time": 197.63128250000295,
          "velocity": 0.7874015748031497,
          "duration": 0.25767505208332864
        },
        {
          "name": "G#1",
          "midi": 32,
          "time": 197.89444000000296,
          "velocity": 0.7874015748031497,
          "duration": 0.7839900520833396
        },
        {
          "name": "G#1",
          "midi": 32,
          "time": 198.68391250000298,
          "velocity": 0.7874015748031497,
          "duration": 0.25767505208332864
        },
        {
          "name": "C3",
          "midi": 48,
          "time": 198.94707000000298,
          "velocity": 0.7874015748031497,
          "duration": 0.1260963020833401
        },
        {
          "name": "C3",
          "midi": 48,
          "time": 199.078648750003,
          "velocity": 0.7874015748031497,
          "duration": 0.1260963020833401
        },
        {
          "name": "F2",
          "midi": 41,
          "time": 199.473385000003,
          "velocity": 0.7874015748031497,
          "duration": 0.1260963020833401
        },
        {
          "name": "F2",
          "midi": 41,
          "time": 199.604963750003,
          "velocity": 0.7874015748031497,
          "duration": 0.1260963020833401
        },
        {
          "name": "D#2",
          "midi": 39,
          "time": 199.73654250000303,
          "velocity": 0.7874015748031497,
          "duration": 0.25767505208332864
        },
        {
          "name": "C2",
          "midi": 36,
          "time": 199.99970000000303,
          "velocity": 0.7874015748031497,
          "duration": 0.7839900520833396
        },
        {
          "name": "G#1",
          "midi": 32,
          "time": 200.92075125000304,
          "velocity": 0.7874015748031497,
          "duration": 0.1260963020833401
        },
        {
          "name": "A#1",
          "midi": 34,
          "time": 201.05233000000305,
          "velocity": 0.7874015748031497,
          "duration": 0.25767505208332864
        },
        {
          "name": "A#1",
          "midi": 34,
          "time": 201.31548750000306,
          "velocity": 0.7874015748031497,
          "duration": 0.25767505208332864
        },
        {
          "name": "C3",
          "midi": 48,
          "time": 202.10496000000305,
          "velocity": 0.7874015748031497,
          "duration": 0.1260963020833401
        },
        {
          "name": "C3",
          "midi": 48,
          "time": 202.23653875000306,
          "velocity": 0.7874015748031497,
          "duration": 0.1260963020833401
        },
        {
          "name": "F#2",
          "midi": 42,
          "time": 202.36811750000308,
          "velocity": 0.7874015748031497,
          "duration": 0.1260963020833401
        },
        {
          "name": "E3",
          "midi": 52,
          "time": 202.4996962500031,
          "velocity": 0.7874015748031497,
          "duration": 0.3892538020833456
        },
        {
          "name": "F3",
          "midi": 53,
          "time": 202.89443250000312,
          "velocity": 0.7874015748031497,
          "duration": 0.1260963020833401
        },
        {
          "name": "F3",
          "midi": 53,
          "time": 203.02601125000314,
          "velocity": 0.7874015748031497,
          "duration": 0.1260963020833401
        },
        {
          "name": "F3",
          "midi": 53,
          "time": 203.15759000000315,
          "velocity": 0.7874015748031497,
          "duration": 0.1260963020833401
        },
        {
          "name": "F#3",
          "midi": 54,
          "time": 203.28916875000317,
          "velocity": 0.7874015748031497,
          "duration": 0.1260963020833401
        },
        {
          "name": "F#3",
          "midi": 54,
          "time": 203.4207475000032,
          "velocity": 0.7874015748031497,
          "duration": 0.1260963020833401
        },
        {
          "name": "F#3",
          "midi": 54,
          "time": 203.5523262500032,
          "velocity": 0.7874015748031497,
          "duration": 0.1260963020833401
        },
        {
          "name": "G3",
          "midi": 55,
          "time": 203.68390500000322,
          "velocity": 0.7874015748031497,
          "duration": 0.1260963020833401
        },
        {
          "name": "G3",
          "midi": 55,
          "time": 203.81548375000324,
          "velocity": 0.7874015748031497,
          "duration": 0.1260963020833401
        },
        {
          "name": "G3",
          "midi": 55,
          "time": 203.94706250000326,
          "velocity": 0.7874015748031497,
          "duration": 0.25767505208332864
        },
        {
          "name": "C3",
          "midi": 48,
          "time": 204.21022000000326,
          "velocity": 0.7874015748031497,
          "duration": 0.25767505208332864
        },
        {
          "name": "G2",
          "midi": 43,
          "time": 204.47337750000327,
          "velocity": 0.7874015748031497,
          "duration": 0.25767505208332864
        },
        {
          "name": "C2",
          "midi": 36,
          "time": 204.73653500000327,
          "velocity": 0.7874015748031497,
          "duration": 0.25767505208332864
        },
        {
          "name": "G2",
          "midi": 43,
          "time": 204.99969250000328,
          "velocity": 0.7874015748031497,
          "duration": 0.25767505208332864
        },
        {
          "name": "A#2",
          "midi": 46,
          "time": 205.26285000000328,
          "velocity": 0.7874015748031497,
          "duration": 0.1260963020833401
        },
        {
          "name": "A#2",
          "midi": 46,
          "time": 205.3944287500033,
          "velocity": 0.7874015748031497,
          "duration": 0.1260963020833401
        },
        {
          "name": "F2",
          "midi": 41,
          "time": 205.52600750000332,
          "velocity": 0.7874015748031497,
          "duration": 0.25767505208332864
        },
        {
          "name": "A#1",
          "midi": 34,
          "time": 205.78916500000332,
          "velocity": 0.7874015748031497,
          "duration": 0.25767505208332864
        },
        {
          "name": "F2",
          "midi": 41,
          "time": 206.05232250000333,
          "velocity": 0.7874015748031497,
          "duration": 0.25767505208332864
        },
        {
          "name": "G#2",
          "midi": 44,
          "time": 206.31548000000333,
          "velocity": 0.7874015748031497,
          "duration": 0.1260963020833401
        },
        {
          "name": "G#2",
          "midi": 44,
          "time": 206.44705875000335,
          "velocity": 0.7874015748031497,
          "duration": 0.1260963020833401
        },
        {
          "name": "D#2",
          "midi": 39,
          "time": 206.57863750000337,
          "velocity": 0.7874015748031497,
          "duration": 0.25767505208332864
        },
        {
          "name": "G#2",
          "midi": 44,
          "time": 206.84179500000337,
          "velocity": 0.7874015748031497,
          "duration": 0.25767505208332864
        },
        {
          "name": "D#2",
          "midi": 39,
          "time": 207.10495250000338,
          "velocity": 0.7874015748031497,
          "duration": 0.1260963020833401
        },
        {
          "name": "D#2",
          "midi": 39,
          "time": 207.2365312500034,
          "velocity": 0.7874015748031497,
          "duration": 0.1260963020833401
        },
        {
          "name": "C3",
          "midi": 48,
          "time": 207.3681100000034,
          "velocity": 0.7874015748031497,
          "duration": 0.1260963020833401
        },
        {
          "name": "C3",
          "midi": 48,
          "time": 207.49968875000343,
          "velocity": 0.7874015748031497,
          "duration": 0.1260963020833401
        },
        {
          "name": "C3",
          "midi": 48,
          "time": 207.63126750000345,
          "velocity": 0.7874015748031497,
          "duration": 0.1260963020833401
        },
        {
          "name": "C3",
          "midi": 48,
          "time": 207.76284625000346,
          "velocity": 0.7874015748031497,
          "duration": 0.1260963020833401
        },
        {
          "name": "F2",
          "midi": 41,
          "time": 207.89442500000348,
          "velocity": 0.7874015748031497,
          "duration": 0.25767505208332864
        },
        {
          "name": "G2",
          "midi": 43,
          "time": 208.15758250000349,
          "velocity": 0.7874015748031497,
          "duration": 0.25767505208332864
        },
        {
          "name": "C2",
          "midi": 36,
          "time": 208.4207400000035,
          "velocity": 0.7874015748031497,
          "duration": 0.25767505208332864
        },
        {
          "name": "G2",
          "midi": 43,
          "time": 208.6838975000035,
          "velocity": 0.7874015748031497,
          "duration": 0.1260963020833401
        },
        {
          "name": "G2",
          "midi": 43,
          "time": 208.8154762500035,
          "velocity": 0.7874015748031497,
          "duration": 0.1260963020833401
        },
        {
          "name": "C3",
          "midi": 48,
          "time": 208.94705500000353,
          "velocity": 0.7874015748031497,
          "duration": 0.1260963020833401
        },
        {
          "name": "C3",
          "midi": 48,
          "time": 209.07863375000355,
          "velocity": 0.7874015748031497,
          "duration": 0.1260963020833401
        },
        {
          "name": "G2",
          "midi": 43,
          "time": 209.21021250000356,
          "velocity": 0.7874015748031497,
          "duration": 0.25767505208332864
        },
        {
          "name": "A#1",
          "midi": 34,
          "time": 209.47337000000357,
          "velocity": 0.7874015748031497,
          "duration": 0.25767505208332864
        },
        {
          "name": "F2",
          "midi": 41,
          "time": 209.73652750000358,
          "velocity": 0.7874015748031497,
          "duration": 0.25767505208332864
        },
        {
          "name": "A#2",
          "midi": 46,
          "time": 209.99968500000358,
          "velocity": 0.7874015748031497,
          "duration": 0.25767505208332864
        },
        {
          "name": "F2",
          "midi": 41,
          "time": 210.2628425000036,
          "velocity": 0.7874015748031497,
          "duration": 0.25767505208332864
        },
        {
          "name": "G1",
          "midi": 31,
          "time": 210.5260000000036,
          "velocity": 0.7874015748031497,
          "duration": 0.25767505208332864
        },
        {
          "name": "D2",
          "midi": 38,
          "time": 210.7891575000036,
          "velocity": 0.7874015748031497,
          "duration": 0.25767505208332864
        },
        {
          "name": "G2",
          "midi": 43,
          "time": 211.0523150000036,
          "velocity": 0.7874015748031497,
          "duration": 0.1260963020833401
        },
        {
          "name": "G2",
          "midi": 43,
          "time": 211.18389375000362,
          "velocity": 0.7874015748031497,
          "duration": 0.1260963020833401
        },
        {
          "name": "G2",
          "midi": 43,
          "time": 211.31547250000364,
          "velocity": 0.7874015748031497,
          "duration": 0.25767505208332864
        },
        {
          "name": "A#1",
          "midi": 34,
          "time": 211.57863000000364,
          "velocity": 0.7874015748031497,
          "duration": 0.25767505208332864
        },
        {
          "name": "C2",
          "midi": 36,
          "time": 211.84178750000365,
          "velocity": 0.7874015748031497,
          "duration": 0.1260963020833401
        },
        {
          "name": "A#1",
          "midi": 34,
          "time": 211.97336625000366,
          "velocity": 0.7874015748031497,
          "duration": 0.1260963020833401
        },
        {
          "name": "A#1",
          "midi": 34,
          "time": 212.10494500000368,
          "velocity": 0.7874015748031497,
          "duration": 0.1260963020833401
        },
        {
          "name": "A#1",
          "midi": 34,
          "time": 212.2365237500037,
          "velocity": 0.7874015748031497,
          "duration": 0.1260963020833401
        },
        {
          "name": "B1",
          "midi": 35,
          "time": 212.36810250000372,
          "velocity": 0.7874015748031497,
          "duration": 0.1260963020833401
        },
        {
          "name": "B1",
          "midi": 35,
          "time": 212.49968125000373,
          "velocity": 0.7874015748031497,
          "duration": 0.1260963020833401
        },
        {
          "name": "C2",
          "midi": 36,
          "time": 212.63126000000375,
          "velocity": 0.7874015748031497,
          "duration": 0.5208325520833341
        },
        {
          "name": "F2",
          "midi": 41,
          "time": 213.15757500000376,
          "velocity": 0.7874015748031497,
          "duration": 0.1260963020833401
        },
        {
          "name": "F#2",
          "midi": 42,
          "time": 213.28915375000378,
          "velocity": 0.7874015748031497,
          "duration": 0.1260963020833401
        },
        {
          "name": "G2",
          "midi": 43,
          "time": 213.4207325000038,
          "velocity": 0.7874015748031497,
          "duration": 0.25767505208332864
        },
        {
          "name": "A#1",
          "midi": 34,
          "time": 213.6838900000038,
          "velocity": 0.7874015748031497,
          "duration": 0.25767505208332864
        },
        {
          "name": "A#2",
          "midi": 46,
          "time": 213.9470475000038,
          "velocity": 0.7874015748031497,
          "duration": 0.1260963020833401
        },
        {
          "name": "A#2",
          "midi": 46,
          "time": 214.07862625000382,
          "velocity": 0.7874015748031497,
          "duration": 0.1260963020833401
        },
        {
          "name": "D#2",
          "midi": 39,
          "time": 214.21020500000384,
          "velocity": 0.7874015748031497,
          "duration": 0.1260963020833401
        },
        {
          "name": "E2",
          "midi": 40,
          "time": 214.34178375000386,
          "velocity": 0.7874015748031497,
          "duration": 0.1260963020833401
        },
        {
          "name": "F2",
          "midi": 41,
          "time": 214.47336250000387,
          "velocity": 0.7874015748031497,
          "duration": 0.1260963020833401
        },
        {
          "name": "G#1",
          "midi": 32,
          "time": 214.6049412500039,
          "velocity": 0.7874015748031497,
          "duration": 0.1260963020833401
        },
        {
          "name": "G#1",
          "midi": 32,
          "time": 214.7365200000039,
          "velocity": 0.7874015748031497,
          "duration": 0.5208325520833341
        },
        {
          "name": "C2",
          "midi": 36,
          "time": 215.26283500000392,
          "velocity": 0.7874015748031497,
          "duration": 0.25767505208332864
        },
        {
          "name": "D2",
          "midi": 38,
          "time": 215.52599250000392,
          "velocity": 0.7874015748031497,
          "duration": 0.1260963020833401
        },
        {
          "name": "D#2",
          "midi": 39,
          "time": 215.65757125000394,
          "velocity": 0.7874015748031497,
          "duration": 0.1260963020833401
        },
        {
          "name": "A#1",
          "midi": 34,
          "time": 215.78915000000396,
          "velocity": 0.7874015748031497,
          "duration": 0.3892538020833456
        },
        {
          "name": "F2",
          "midi": 41,
          "time": 216.18388625000398,
          "velocity": 0.7874015748031497,
          "duration": 0.1260963020833401
        },
        {
          "name": "A#2",
          "midi": 46,
          "time": 216.315465000004,
          "velocity": 0.7874015748031497,
          "duration": 0.1260963020833401
        },
        {
          "name": "A#1",
          "midi": 34,
          "time": 216.447043750004,
          "velocity": 0.7874015748031497,
          "duration": 0.1260963020833401
        },
        {
          "name": "A#1",
          "midi": 34,
          "time": 216.57862250000403,
          "velocity": 0.7874015748031497,
          "duration": 0.25767505208332864
        },
        {
          "name": "C2",
          "midi": 36,
          "time": 216.84178000000404,
          "velocity": 0.7874015748031497,
          "duration": 0.25767505208332864
        },
        {
          "name": "G2",
          "midi": 43,
          "time": 217.10493750000404,
          "velocity": 0.7874015748031497,
          "duration": 0.1260963020833401
        },
        {
          "name": "G2",
          "midi": 43,
          "time": 217.23651625000406,
          "velocity": 0.7874015748031497,
          "duration": 0.1260963020833401
        },
        {
          "name": "C3",
          "midi": 48,
          "time": 217.36809500000408,
          "velocity": 0.7874015748031497,
          "duration": 0.25767505208332864
        },
        {
          "name": "G2",
          "midi": 43,
          "time": 217.76283125000407,
          "velocity": 0.7874015748031497,
          "duration": 0.1260963020833401
        },
        {
          "name": "A#2",
          "midi": 46,
          "time": 217.8944100000041,
          "velocity": 0.7874015748031497,
          "duration": 0.1260963020833401
        },
        {
          "name": "A#2",
          "midi": 46,
          "time": 218.0259887500041,
          "velocity": 0.7874015748031497,
          "duration": 0.1260963020833401
        },
        {
          "name": "F2",
          "midi": 41,
          "time": 218.15756750000412,
          "velocity": 0.7874015748031497,
          "duration": 0.25767505208332864
        },
        {
          "name": "A#1",
          "midi": 34,
          "time": 218.42072500000413,
          "velocity": 0.7874015748031497,
          "duration": 0.25767505208332864
        },
        {
          "name": "A#2",
          "midi": 46,
          "time": 218.81546125000412,
          "velocity": 0.7874015748031497,
          "duration": 0.1260963020833401
        },
        {
          "name": "F3",
          "midi": 53,
          "time": 218.94704000000414,
          "velocity": 0.7874015748031497,
          "duration": 0.1260963020833401
        },
        {
          "name": "F3",
          "midi": 53,
          "time": 219.07861875000415,
          "velocity": 0.7874015748031497,
          "duration": 0.1260963020833401
        },
        {
          "name": "F3",
          "midi": 53,
          "time": 219.21019750000417,
          "velocity": 0.7874015748031497,
          "duration": 0.1260963020833401
        },
        {
          "name": "A#2",
          "midi": 46,
          "time": 219.3417762500042,
          "velocity": 0.7874015748031497,
          "duration": 0.1260963020833401
        },
        {
          "name": "C3",
          "midi": 48,
          "time": 219.4733550000042,
          "velocity": 0.7874015748031497,
          "duration": 0.1260963020833401
        },
        {
          "name": "C3",
          "midi": 48,
          "time": 219.60493375000422,
          "velocity": 0.7874015748031497,
          "duration": 0.1260963020833401
        },
        {
          "name": "C3",
          "midi": 48,
          "time": 219.73651250000424,
          "velocity": 0.7874015748031497,
          "duration": 0.1260963020833401
        },
        {
          "name": "C3",
          "midi": 48,
          "time": 219.86809125000426,
          "velocity": 0.7874015748031497,
          "duration": 0.1260963020833401
        },
        {
          "name": "F2",
          "midi": 41,
          "time": 219.99967000000427,
          "velocity": 0.7874015748031497,
          "duration": 0.25767505208332864
        },
        {
          "name": "G2",
          "midi": 43,
          "time": 220.26282750000428,
          "velocity": 0.7874015748031497,
          "duration": 0.1260963020833401
        },
        {
          "name": "G2",
          "midi": 43,
          "time": 220.3944062500043,
          "velocity": 0.7874015748031497,
          "duration": 0.1260963020833401
        },
        {
          "name": "F2",
          "midi": 41,
          "time": 220.5259850000043,
          "velocity": 0.7874015748031497,
          "duration": 0.25767505208332864
        },
        {
          "name": "D#2",
          "midi": 39,
          "time": 220.78914250000432,
          "velocity": 0.7874015748031497,
          "duration": 0.25767505208332864
        },
        {
          "name": "C2",
          "midi": 36,
          "time": 221.05230000000432,
          "velocity": 0.7874015748031497,
          "duration": 0.25767505208332864
        },
        {
          "name": "C2",
          "midi": 36,
          "time": 221.31545750000433,
          "velocity": 0.7874015748031497,
          "duration": 0.25767505208332864
        },
        {
          "name": "A#1",
          "midi": 34,
          "time": 222.10493000000432,
          "velocity": 0.7874015748031497,
          "duration": 0.25767505208332864
        },
        {
          "name": "A#1",
          "midi": 34,
          "time": 222.36808750000432,
          "velocity": 0.7874015748031497,
          "duration": 0.25767505208332864
        },
        {
          "name": "A#1",
          "midi": 34,
          "time": 222.76282375000432,
          "velocity": 0.7874015748031497,
          "duration": 0.1260963020833401
        },
        {
          "name": "A#1",
          "midi": 34,
          "time": 222.89440250000433,
          "velocity": 0.7874015748031497,
          "duration": 0.25767505208332864
        },
        {
          "name": "G#1",
          "midi": 32,
          "time": 223.15756000000434,
          "velocity": 0.7874015748031497,
          "duration": 0.1260963020833401
        },
        {
          "name": "G#1",
          "midi": 32,
          "time": 223.28913875000435,
          "velocity": 0.7874015748031497,
          "duration": 0.1260963020833401
        },
        {
          "name": "G#1",
          "midi": 32,
          "time": 223.42071750000437,
          "velocity": 0.7874015748031497,
          "duration": 0.25767505208332864
        },
        {
          "name": "G#2",
          "midi": 44,
          "time": 223.68387500000438,
          "velocity": 0.7874015748031497,
          "duration": 0.1260963020833401
        },
        {
          "name": "F2",
          "midi": 41,
          "time": 223.8154537500044,
          "velocity": 0.7874015748031497,
          "duration": 0.1260963020833401
        },
        {
          "name": "G#2",
          "midi": 44,
          "time": 223.9470325000044,
          "velocity": 0.7874015748031497,
          "duration": 0.25767505208332864
        },
        {
          "name": "A#2",
          "midi": 46,
          "time": 224.21019000000442,
          "velocity": 0.7874015748031497,
          "duration": 0.25767505208332864
        },
        {
          "name": "B2",
          "midi": 47,
          "time": 224.47334750000442,
          "velocity": 0.7874015748031497,
          "duration": 0.25767505208332864
        },
        {
          "name": "C3",
          "midi": 48,
          "time": 224.73650500000443,
          "velocity": 0.7874015748031497,
          "duration": 0.25767505208332864
        },
        {
          "name": "C3",
          "midi": 48,
          "time": 224.99966250000443,
          "velocity": 0.7874015748031497,
          "duration": 0.1260963020833401
        },
        {
          "name": "C3",
          "midi": 48,
          "time": 225.13124125000445,
          "velocity": 0.7874015748031497,
          "duration": 0.1260963020833401
        },
        {
          "name": "A#2",
          "midi": 46,
          "time": 225.26282000000447,
          "velocity": 0.7874015748031497,
          "duration": 0.25767505208335706
        },
        {
          "name": "C3",
          "midi": 48,
          "time": 225.5259775000045,
          "velocity": 0.7874015748031497,
          "duration": 0.1260963020833401
        },
        {
          "name": "C3",
          "midi": 48,
          "time": 225.65755625000452,
          "velocity": 0.7874015748031497,
          "duration": 0.1260963020833401
        },
        {
          "name": "F2",
          "midi": 41,
          "time": 225.78913500000453,
          "velocity": 0.7874015748031497,
          "duration": 0.25767505208332864
        },
        {
          "name": "G2",
          "midi": 43,
          "time": 226.05229250000454,
          "velocity": 0.7874015748031497,
          "duration": 0.1260963020833401
        },
        {
          "name": "G2",
          "midi": 43,
          "time": 226.18387125000456,
          "velocity": 0.7874015748031497,
          "duration": 0.1260963020833401
        },
        {
          "name": "G#2",
          "midi": 44,
          "time": 226.31545000000457,
          "velocity": 0.7874015748031497,
          "duration": 0.25767505208332864
        },
        {
          "name": "G#2",
          "midi": 44,
          "time": 226.57860750000458,
          "velocity": 0.7874015748031497,
          "duration": 0.1260963020833401
        },
        {
          "name": "G#2",
          "midi": 44,
          "time": 226.7101862500046,
          "velocity": 0.7874015748031497,
          "duration": 0.1260963020833401
        },
        {
          "name": "F2",
          "midi": 41,
          "time": 226.8417650000046,
          "velocity": 0.7874015748031497,
          "duration": 0.1260963020833401
        },
        {
          "name": "F2",
          "midi": 41,
          "time": 226.97334375000463,
          "velocity": 0.7874015748031497,
          "duration": 0.1260963020833401
        },
        {
          "name": "F#2",
          "midi": 42,
          "time": 227.10492250000465,
          "velocity": 0.7874015748031497,
          "duration": 0.1260963020833401
        },
        {
          "name": "G2",
          "midi": 43,
          "time": 227.23650125000466,
          "velocity": 0.7874015748031497,
          "duration": 0.1260963020833401
        },
        {
          "name": "G#2",
          "midi": 44,
          "time": 227.36808000000468,
          "velocity": 0.7874015748031497,
          "duration": 0.25767505208332864
        },
        {
          "name": "G#2",
          "midi": 44,
          "time": 227.6312375000047,
          "velocity": 0.7874015748031497,
          "duration": 0.25767505208332864
        },
        {
          "name": "D#3",
          "midi": 51,
          "time": 228.1575525000047,
          "velocity": 0.7874015748031497,
          "duration": 0.1260963020833401
        },
        {
          "name": "F#3",
          "midi": 54,
          "time": 228.1575525000047,
          "velocity": 0.7874015748031497,
          "duration": 0.1260963020833401
        },
        {
          "name": "D#3",
          "midi": 51,
          "time": 228.28913125000471,
          "velocity": 0.7874015748031497,
          "duration": 0.1260963020833401
        },
        {
          "name": "F#3",
          "midi": 54,
          "time": 228.28913125000471,
          "velocity": 0.7874015748031497,
          "duration": 0.1260963020833401
        },
        {
          "name": "G#3",
          "midi": 56,
          "time": 228.42071000000473,
          "velocity": 0.7874015748031497,
          "duration": 0.25767505208332864
        },
        {
          "name": "G#3",
          "midi": 56,
          "time": 228.68386750000474,
          "velocity": 0.7874015748031497,
          "duration": 0.25767505208332864
        },
        {
          "name": "F2",
          "midi": 41,
          "time": 228.94702500000474,
          "velocity": 0.7874015748031497,
          "duration": 0.1260963020833401
        },
        {
          "name": "G2",
          "midi": 43,
          "time": 229.07860375000476,
          "velocity": 0.7874015748031497,
          "duration": 0.1260963020833401
        },
        {
          "name": "A#2",
          "midi": 46,
          "time": 229.21018250000478,
          "velocity": 0.7874015748031497,
          "duration": 0.1260963020833401
        },
        {
          "name": "B2",
          "midi": 47,
          "time": 229.3417612500048,
          "velocity": 0.7874015748031497,
          "duration": 0.1260963020833401
        },
        {
          "name": "C3",
          "midi": 48,
          "time": 229.4733400000048,
          "velocity": 0.7874015748031497,
          "duration": 0.25767505208332864
        },
        {
          "name": "C3",
          "midi": 48,
          "time": 229.73649750000482,
          "velocity": 0.7874015748031497,
          "duration": 0.25767505208332864
        },
        {
          "name": "G#1",
          "midi": 32,
          "time": 230.1312337500048,
          "velocity": 0.7874015748031497,
          "duration": 0.1260963020833401
        },
        {
          "name": "G2",
          "midi": 43,
          "time": 230.26281250000483,
          "velocity": 0.7874015748031497,
          "duration": 0.1260963020833401
        },
        {
          "name": "G#2",
          "midi": 44,
          "time": 230.39439125000484,
          "velocity": 0.7874015748031497,
          "duration": 0.1260963020833401
        },
        {
          "name": "G2",
          "midi": 43,
          "time": 230.52597000000486,
          "velocity": 0.7874015748031497,
          "duration": 0.25767505208332864
        },
        {
          "name": "G2",
          "midi": 43,
          "time": 230.78912750000487,
          "velocity": 0.7874015748031497,
          "duration": 0.25767505208332864
        },
        {
          "name": "G2",
          "midi": 43,
          "time": 231.18386375000486,
          "velocity": 0.7874015748031497,
          "duration": 0.1260963020833401
        },
        {
          "name": "G2",
          "midi": 43,
          "time": 231.31544250000488,
          "velocity": 0.7874015748031497,
          "duration": 0.1260963020833401
        },
        {
          "name": "G#2",
          "midi": 44,
          "time": 231.4470212500049,
          "velocity": 0.7874015748031497,
          "duration": 0.1260963020833401
        },
        {
          "name": "G#2",
          "midi": 44,
          "time": 231.5786000000049,
          "velocity": 0.7874015748031497,
          "duration": 0.25767505208332864
        },
        {
          "name": "G#2",
          "midi": 44,
          "time": 231.84175750000492,
          "velocity": 0.7874015748031497,
          "duration": 0.25767505208332864
        },
        {
          "name": "D#2",
          "midi": 39,
          "time": 232.2364937500049,
          "velocity": 0.7874015748031497,
          "duration": 0.1260963020833401
        },
        {
          "name": "D#2",
          "midi": 39,
          "time": 232.36807250000493,
          "velocity": 0.7874015748031497,
          "duration": 0.1260963020833401
        },
        {
          "name": "E2",
          "midi": 40,
          "time": 232.49965125000494,
          "velocity": 0.7874015748031497,
          "duration": 0.1260963020833401
        },
        {
          "name": "F2",
          "midi": 41,
          "time": 232.63123000000496,
          "velocity": 0.7874015748031497,
          "duration": 0.25767505208332864
        },
        {
          "name": "F#2",
          "midi": 42,
          "time": 232.89438750000497,
          "velocity": 0.7874015748031497,
          "duration": 0.25767505208332864
        },
        {
          "name": "G2",
          "midi": 43,
          "time": 233.15754500000497,
          "velocity": 0.7874015748031497,
          "duration": 0.1260963020833401
        },
        {
          "name": "G2",
          "midi": 43,
          "time": 233.289123750005,
          "velocity": 0.7874015748031497,
          "duration": 0.1260963020833401
        },
        {
          "name": "A#2",
          "midi": 46,
          "time": 233.420702500005,
          "velocity": 0.7874015748031497,
          "duration": 0.1260963020833401
        },
        {
          "name": "B2",
          "midi": 47,
          "time": 233.55228125000502,
          "velocity": 0.7874015748031497,
          "duration": 0.1260963020833401
        },
        {
          "name": "C3",
          "midi": 48,
          "time": 233.68386000000504,
          "velocity": 0.7874015748031497,
          "duration": 0.25767505208332864
        },
        {
          "name": "C3",
          "midi": 48,
          "time": 233.94701750000505,
          "velocity": 0.7874015748031497,
          "duration": 0.25767505208332864
        },
        {
          "name": "F2",
          "midi": 41,
          "time": 234.34175375000504,
          "velocity": 0.7874015748031497,
          "duration": 0.1260963020833401
        },
        {
          "name": "F2",
          "midi": 41,
          "time": 234.47333250000506,
          "velocity": 0.7874015748031497,
          "duration": 0.1260963020833401
        },
        {
          "name": "F#2",
          "midi": 42,
          "time": 234.60491125000507,
          "velocity": 0.7874015748031497,
          "duration": 0.1260963020833401
        },
        {
          "name": "G2",
          "midi": 43,
          "time": 234.7364900000051,
          "velocity": 0.7874015748031497,
          "duration": 0.25767505208332864
        },
        {
          "name": "G2",
          "midi": 43,
          "time": 234.9996475000051,
          "velocity": 0.7874015748031497,
          "duration": 0.25767505208332864
        },
        {
          "name": "G2",
          "midi": 43,
          "time": 235.3943837500051,
          "velocity": 0.7874015748031497,
          "duration": 0.1260963020833401
        },
        {
          "name": "G2",
          "midi": 43,
          "time": 235.5259625000051,
          "velocity": 0.7874015748031497,
          "duration": 0.25767505208332864
        },
        {
          "name": "G#2",
          "midi": 44,
          "time": 235.7891200000051,
          "velocity": 0.7874015748031497,
          "duration": 0.1260963020833401
        },
        {
          "name": "G#3",
          "midi": 56,
          "time": 235.92069875000513,
          "velocity": 0.7874015748031497,
          "duration": 0.1260963020833401
        },
        {
          "name": "G#3",
          "midi": 56,
          "time": 236.05227750000515,
          "velocity": 0.7874015748031497,
          "duration": 0.1260963020833401
        },
        {
          "name": "G#2",
          "midi": 44,
          "time": 236.18385625000516,
          "velocity": 0.7874015748031497,
          "duration": 0.1260963020833401
        },
        {
          "name": "G#3",
          "midi": 56,
          "time": 236.31543500000518,
          "velocity": 0.7874015748031497,
          "duration": 0.1260963020833401
        },
        {
          "name": "G#3",
          "midi": 56,
          "time": 236.4470137500052,
          "velocity": 0.7874015748031497,
          "duration": 0.1260963020833401
        },
        {
          "name": "G#2",
          "midi": 44,
          "time": 236.57859250000521,
          "velocity": 0.7874015748031497,
          "duration": 0.1260963020833401
        },
        {
          "name": "G#3",
          "midi": 56,
          "time": 236.71017125000523,
          "velocity": 0.7874015748031497,
          "duration": 0.1260963020833401
        },
        {
          "name": "G#2",
          "midi": 44,
          "time": 236.84175000000525,
          "velocity": 0.7874015748031497,
          "duration": 0.25767505208332864
        },
        {
          "name": "G2",
          "midi": 43,
          "time": 237.10490750000525,
          "velocity": 0.7874015748031497,
          "duration": 0.1260963020833401
        },
        {
          "name": "G2",
          "midi": 43,
          "time": 237.23648625000527,
          "velocity": 0.7874015748031497,
          "duration": 0.1260963020833401
        },
        {
          "name": "A#2",
          "midi": 46,
          "time": 237.3680650000053,
          "velocity": 0.7874015748031497,
          "duration": 0.1260963020833401
        },
        {
          "name": "B2",
          "midi": 47,
          "time": 237.4996437500053,
          "velocity": 0.7874015748031497,
          "duration": 0.1260963020833401
        },
        {
          "name": "C3",
          "midi": 48,
          "time": 237.63122250000532,
          "velocity": 0.7874015748031497,
          "duration": 0.25767505208332864
        },
        {
          "name": "C2",
          "midi": 36,
          "time": 237.89438000000533,
          "velocity": 0.7874015748031497,
          "duration": 0.25767505208332864
        },
        {
          "name": "C3",
          "midi": 48,
          "time": 238.15753750000533,
          "velocity": 0.7874015748031497,
          "duration": 0.25767505208332864
        },
        {
          "name": "G2",
          "midi": 43,
          "time": 238.42069500000534,
          "velocity": 0.7874015748031497,
          "duration": 0.25767505208332864
        },
        {
          "name": "C2",
          "midi": 36,
          "time": 238.68385250000534,
          "velocity": 0.7874015748031497,
          "duration": 0.25767505208332864
        },
        {
          "name": "A#1",
          "midi": 34,
          "time": 238.94701000000535,
          "velocity": 0.7874015748031497,
          "duration": 0.25767505208332864
        },
        {
          "name": "A#2",
          "midi": 46,
          "time": 239.21016750000535,
          "velocity": 0.7874015748031497,
          "duration": 0.1260963020833401
        },
        {
          "name": "A#2",
          "midi": 46,
          "time": 239.34174625000537,
          "velocity": 0.7874015748031497,
          "duration": 0.1260963020833401
        },
        {
          "name": "F2",
          "midi": 41,
          "time": 239.4733250000054,
          "velocity": 0.7874015748031497,
          "duration": 0.25767505208332864
        },
        {
          "name": "A#1",
          "midi": 34,
          "time": 239.7364825000054,
          "velocity": 0.7874015748031497,
          "duration": 0.25767505208332864
        }
      ],
      "controlChanges": {
        "7": [
          {
            "number": 7,
            "time": 0,
            "value": 0.7086614173228346
          },
          {
            "number": 7,
            "time": 218.94704000000414,
            "value": 0.7086614173228346
          },
          {
            "number": 7,
            "time": 227.6312375000047,
            "value": 0.6929133858267716
          },
          {
            "number": 7,
            "time": 227.8943950000047,
            "value": 0.6771653543307087
          },
          {
            "number": 7,
            "time": 228.1575525000047,
            "value": 0.6614173228346457
          },
          {
            "number": 7,
            "time": 228.42071000000473,
            "value": 0.6456692913385826
          },
          {
            "number": 7,
            "time": 228.68386750000474,
            "value": 0.6299212598425197
          },
          {
            "number": 7,
            "time": 228.94702500000474,
            "value": 0.6141732283464567
          },
          {
            "number": 7,
            "time": 229.21018250000478,
            "value": 0.5984251968503937
          },
          {
            "number": 7,
            "time": 229.4733400000048,
            "value": 0.5826771653543307
          },
          {
            "number": 7,
            "time": 229.73649750000482,
            "value": 0.5669291338582677
          },
          {
            "number": 7,
            "time": 229.99965500000482,
            "value": 0.5511811023622047
          },
          {
            "number": 7,
            "time": 230.26281250000483,
            "value": 0.5354330708661418
          },
          {
            "number": 7,
            "time": 230.52597000000486,
            "value": 0.5196850393700787
          },
          {
            "number": 7,
            "time": 230.78912750000487,
            "value": 0.49606299212598426
          },
          {
            "number": 7,
            "time": 231.05228500000487,
            "value": 0.47244094488188976
          },
          {
            "number": 7,
            "time": 231.31544250000488,
            "value": 0.44881889763779526
          },
          {
            "number": 7,
            "time": 231.5786000000049,
            "value": 0.4251968503937008
          },
          {
            "number": 7,
            "time": 231.84175750000492,
            "value": 0.4015748031496063
          },
          {
            "number": 7,
            "time": 232.10491500000492,
            "value": 0.3779527559055118
          },
          {
            "number": 7,
            "time": 232.36807250000493,
            "value": 0.3543307086614173
          },
          {
            "number": 7,
            "time": 232.63123000000496,
            "value": 0.33070866141732286
          },
          {
            "number": 7,
            "time": 232.89438750000497,
            "value": 0.30708661417322836
          },
          {
            "number": 7,
            "time": 233.15754500000497,
            "value": 0.28346456692913385
          },
          {
            "number": 7,
            "time": 233.420702500005,
            "value": 0.25984251968503935
          },
          {
            "number": 7,
            "time": 233.68386000000504,
            "value": 0.23622047244094488
          },
          {
            "number": 7,
            "time": 233.94701750000505,
            "value": 0.2125984251968504
          },
          {
            "number": 7,
            "time": 234.21017500000505,
            "value": 0.1889763779527559
          },
          {
            "number": 7,
            "time": 234.47333250000506,
            "value": 0.16535433070866143
          },
          {
            "number": 7,
            "time": 234.7364900000051,
            "value": 0.14173228346456693
          },
          {
            "number": 7,
            "time": 234.9996475000051,
            "value": 0.12598425196850394
          },
          {
            "number": 7,
            "time": 235.2628050000051,
            "value": 0.11023622047244094
          },
          {
            "number": 7,
            "time": 235.5259625000051,
            "value": 0.09448818897637795
          },
          {
            "number": 7,
            "time": 235.7891200000051,
            "value": 0.07874015748031496
          },
          {
            "number": 7,
            "time": 236.31543500000518,
            "value": 0.07086614173228346
          },
          {
            "number": 7,
            "time": 236.84175000000525,
            "value": 0.06299212598425197
          },
          {
            "number": 7,
            "time": 237.3680650000053,
            "value": 0.05511811023622047
          },
          {
            "number": 7,
            "time": 237.89438000000533,
            "value": 0.047244094488188976
          },
          {
            "number": 7,
            "time": 238.42069500000534,
            "value": 0.03937007874015748
          },
          {
            "number": 7,
            "time": 238.94701000000535,
            "value": 0.023622047244094488
          },
          {
            "number": 7,
            "time": 239.4733250000054,
            "value": 0
          }
        ]
      },
      "id": 3,
      "name": "Jimi Hendrix",
      "instrumentNumber": 38,
      "instrument": "synth bass 1",
      "instrumentFamily": "bass",
      "channelNumber": 2,
      "isPercussion": false
    },
    {
      "startTime": 52.187421718749995,
      "duration": 220.87686166666862,
      "length": 150,
      "notes": [
        {
          "name": "A#5",
          "midi": 82,
          "time": 52.187421718749995,
          "velocity": 0.7874015748031497,
          "duration": 0.5208325520833057
        },
        {
          "name": "B5",
          "midi": 83,
          "time": 52.7082542708333,
          "velocity": 0.7874015748031497,
          "duration": 1.047147552083338
        },
        {
          "name": "A#5",
          "midi": 82,
          "time": 53.76088427083331,
          "velocity": 0.7874015748031497,
          "duration": 0.3892538020833669
        },
        {
          "name": "G5",
          "midi": 79,
          "time": 54.155620520833345,
          "velocity": 0.7874015748031497,
          "duration": 0.126096302083333
        },
        {
          "name": "G5",
          "midi": 79,
          "time": 54.28719927083335,
          "velocity": 0.7874015748031497,
          "duration": 0.25767505208333574
        },
        {
          "name": "F5",
          "midi": 77,
          "time": 54.55035677083335,
          "velocity": 0.7874015748031497,
          "duration": 0.25767505208333574
        },
        {
          "name": "G5",
          "midi": 79,
          "time": 54.55035677083335,
          "velocity": 0.7874015748031497,
          "duration": 0.25767505208333574
        },
        {
          "name": "G5",
          "midi": 79,
          "time": 54.99991750000002,
          "velocity": 0.7874015748031497,
          "duration": 1.836620052083326
        },
        {
          "name": "C5",
          "midi": 72,
          "time": 56.84202000000002,
          "velocity": 0.7874015748031497,
          "duration": 0.25767505208333574
        },
        {
          "name": "D#5",
          "midi": 75,
          "time": 57.105177500000025,
          "velocity": 0.7874015748031497,
          "duration": 0.25767505208333574
        },
        {
          "name": "F5",
          "midi": 77,
          "time": 57.36833500000003,
          "velocity": 0.7874015748031497,
          "duration": 0.25767505208333574
        },
        {
          "name": "A#5",
          "midi": 82,
          "time": 57.631492500000036,
          "velocity": 0.7874015748031497,
          "duration": 0.25767505208333574
        },
        {
          "name": "D6",
          "midi": 86,
          "time": 57.89465000000004,
          "velocity": 0.7874015748031497,
          "duration": 0.7839900520833396
        },
        {
          "name": "D6",
          "midi": 86,
          "time": 58.68412250000005,
          "velocity": 0.7874015748031497,
          "duration": 0.25767505208334995
        },
        {
          "name": "A#5",
          "midi": 82,
          "time": 58.94728000000007,
          "velocity": 0.7874015748031497,
          "duration": 0.25767505208333574
        },
        {
          "name": "D6",
          "midi": 86,
          "time": 59.210437500000076,
          "velocity": 0.7874015748031497,
          "duration": 1.047147552083338
        },
        {
          "name": "D6",
          "midi": 86,
          "time": 60.52622500000008,
          "velocity": 0.7874015748031497,
          "duration": 0.7839900520832757
        },
        {
          "name": "D6",
          "midi": 86,
          "time": 61.31569750000003,
          "velocity": 0.7874015748031497,
          "duration": 1.047147552083338
        },
        {
          "name": "D6",
          "midi": 86,
          "time": 62.368327500000035,
          "velocity": 0.7874015748031497,
          "duration": 0.5208325520833554
        },
        {
          "name": "A#5",
          "midi": 82,
          "time": 62.89464250000006,
          "velocity": 0.7874015748031497,
          "duration": 0.25767505208333574
        },
        {
          "name": "C6",
          "midi": 84,
          "time": 63.157800000000066,
          "velocity": 0.7874015748031497,
          "duration": 0.25767505208333574
        },
        {
          "name": "A#5",
          "midi": 82,
          "time": 63.42095750000007,
          "velocity": 0.7874015748031497,
          "duration": 0.25767505208332864
        },
        {
          "name": "A#5",
          "midi": 82,
          "time": 63.68411500000007,
          "velocity": 0.7874015748031497,
          "duration": 0.25767505208333574
        },
        {
          "name": "A#4",
          "midi": 70,
          "time": 63.947272500000075,
          "velocity": 0.7874015748031497,
          "duration": 0.25767505208333574
        },
        {
          "name": "C#5",
          "midi": 73,
          "time": 64.21043000000007,
          "velocity": 0.7874015748031497,
          "duration": 0.25767505208332864
        },
        {
          "name": "D#5",
          "midi": 75,
          "time": 64.47358750000006,
          "velocity": 0.7874015748031497,
          "duration": 0.25767505208332864
        },
        {
          "name": "F5",
          "midi": 77,
          "time": 64.73674500000006,
          "velocity": 0.7874015748031497,
          "duration": 0.389253802083374
        },
        {
          "name": "G5",
          "midi": 79,
          "time": 65.13148125000009,
          "velocity": 0.7874015748031497,
          "duration": 0.25767505208332864
        },
        {
          "name": "C6",
          "midi": 84,
          "time": 65.52621750000009,
          "velocity": 0.7874015748031497,
          "duration": 0.25767505208332864
        },
        {
          "name": "A#5",
          "midi": 82,
          "time": 65.78937500000008,
          "velocity": 0.7874015748031497,
          "duration": 0.25767505208335706
        },
        {
          "name": "C6",
          "midi": 84,
          "time": 66.0525325000001,
          "velocity": 0.7874015748031497,
          "duration": 0.1260963020833401
        },
        {
          "name": "A#5",
          "midi": 82,
          "time": 66.1841112500001,
          "velocity": 0.7874015748031497,
          "duration": 0.1260963020833401
        },
        {
          "name": "G5",
          "midi": 79,
          "time": 66.3156900000001,
          "velocity": 0.7874015748031497,
          "duration": 0.1260963020833401
        },
        {
          "name": "F5",
          "midi": 77,
          "time": 66.4472687500001,
          "velocity": 0.7874015748031497,
          "duration": 0.12609630208336853
        },
        {
          "name": "G5",
          "midi": 79,
          "time": 66.57884750000014,
          "velocity": 0.7874015748031497,
          "duration": 0.1260963020833401
        },
        {
          "name": "C6",
          "midi": 84,
          "time": 66.71042625000014,
          "velocity": 0.7874015748031497,
          "duration": 0.1260963020833401
        },
        {
          "name": "A#5",
          "midi": 82,
          "time": 66.84200500000014,
          "velocity": 0.7874015748031497,
          "duration": 0.1260963020833401
        },
        {
          "name": "G5",
          "midi": 79,
          "time": 66.97358375000015,
          "velocity": 0.7874015748031497,
          "duration": 0.1260963020833401
        },
        {
          "name": "F#5",
          "midi": 78,
          "time": 67.10516250000015,
          "velocity": 0.7874015748031497,
          "duration": 0.1260963020833401
        },
        {
          "name": "F5",
          "midi": 77,
          "time": 67.23674125000015,
          "velocity": 0.7874015748031497,
          "duration": 0.25767505208334285
        },
        {
          "name": "C5",
          "midi": 72,
          "time": 67.49989875000016,
          "velocity": 0.7874015748031497,
          "duration": 0.1260963020833401
        },
        {
          "name": "F5",
          "midi": 77,
          "time": 67.63147750000016,
          "velocity": 0.7874015748031497,
          "duration": 0.25767505208335706
        },
        {
          "name": "D#5",
          "midi": 75,
          "time": 67.89463500000018,
          "velocity": 0.7874015748031497,
          "duration": 1.1787263020834473
        },
        {
          "name": "C6",
          "midi": 84,
          "time": 69.07884375000029,
          "velocity": 0.7874015748031497,
          "duration": 0.1260963020833401
        },
        {
          "name": "C5",
          "midi": 72,
          "time": 69.21042250000029,
          "velocity": 0.7874015748031497,
          "duration": 0.038377135416666874
        },
        {
          "name": "A#5",
          "midi": 82,
          "time": 106.8419450000003,
          "velocity": 0.7874015748031497,
          "duration": 0.1260963020833401
        },
        {
          "name": "C6",
          "midi": 84,
          "time": 106.9735237500003,
          "velocity": 0.7874015748031497,
          "duration": 0.1260963020833401
        },
        {
          "name": "C6",
          "midi": 84,
          "time": 107.1051025000003,
          "velocity": 0.7874015748031497,
          "duration": 0.25767505208332864
        },
        {
          "name": "A#5",
          "midi": 82,
          "time": 107.1051025000003,
          "velocity": 0.7874015748031497,
          "duration": 0.25767505208332864
        },
        {
          "name": "F#5",
          "midi": 78,
          "time": 108.68404750000029,
          "velocity": 0.7874015748031497,
          "duration": 1.5734625520835266
        },
        {
          "name": "C#6",
          "midi": 85,
          "time": 166.31554000000048,
          "velocity": 0.7874015748031497,
          "duration": 0.25767505208332864
        },
        {
          "name": "C#6",
          "midi": 85,
          "time": 166.5786975000005,
          "velocity": 0.7874015748031497,
          "duration": 0.1260963020833401
        },
        {
          "name": "C#6",
          "midi": 85,
          "time": 166.7102762500005,
          "velocity": 0.7874015748031497,
          "duration": 0.1260963020833401
        },
        {
          "name": "C#6",
          "midi": 85,
          "time": 166.84185500000052,
          "velocity": 0.7874015748031497,
          "duration": 0.1260963020833401
        },
        {
          "name": "C#6",
          "midi": 85,
          "time": 166.97343375000054,
          "velocity": 0.7874015748031497,
          "duration": 0.1260963020833401
        },
        {
          "name": "C#6",
          "midi": 85,
          "time": 167.10501250000056,
          "velocity": 0.7874015748031497,
          "duration": 0.1260963020833401
        },
        {
          "name": "D6",
          "midi": 86,
          "time": 167.23659125000057,
          "velocity": 0.7874015748031497,
          "duration": 0.1260963020833401
        },
        {
          "name": "D6",
          "midi": 86,
          "time": 167.3681700000006,
          "velocity": 0.7874015748031497,
          "duration": 0.1260963020833401
        },
        {
          "name": "D6",
          "midi": 86,
          "time": 167.4997487500006,
          "velocity": 0.7874015748031497,
          "duration": 0.1260963020833401
        },
        {
          "name": "D6",
          "midi": 86,
          "time": 167.63132750000062,
          "velocity": 0.7874015748031497,
          "duration": 0.1260963020833401
        },
        {
          "name": "D6",
          "midi": 86,
          "time": 167.76290625000064,
          "velocity": 0.7874015748031497,
          "duration": 0.1260963020833401
        },
        {
          "name": "D#6",
          "midi": 87,
          "time": 167.89448500000066,
          "velocity": 0.7874015748031497,
          "duration": 0.1260963020833401
        },
        {
          "name": "D#6",
          "midi": 87,
          "time": 168.02606375000067,
          "velocity": 0.7874015748031497,
          "duration": 0.1260963020833401
        },
        {
          "name": "D#6",
          "midi": 87,
          "time": 168.1576425000007,
          "velocity": 0.7874015748031497,
          "duration": 0.1260963020833401
        },
        {
          "name": "D#6",
          "midi": 87,
          "time": 168.2892212500007,
          "velocity": 0.7874015748031497,
          "duration": 0.1260963020833401
        },
        {
          "name": "D#6",
          "midi": 87,
          "time": 168.42080000000072,
          "velocity": 0.7874015748031497,
          "duration": 0.25767505208332864
        },
        {
          "name": "F6",
          "midi": 89,
          "time": 168.68395750000073,
          "velocity": 0.7874015748031497,
          "duration": 0.1260963020833401
        },
        {
          "name": "F6",
          "midi": 89,
          "time": 168.81553625000075,
          "velocity": 0.7874015748031497,
          "duration": 0.1260963020833401
        },
        {
          "name": "F6",
          "midi": 89,
          "time": 168.94711500000076,
          "velocity": 0.7874015748031497,
          "duration": 0.1260963020833401
        },
        {
          "name": "F6",
          "midi": 89,
          "time": 169.07869375000078,
          "velocity": 0.7874015748031497,
          "duration": 0.1260963020833401
        },
        {
          "name": "F6",
          "midi": 89,
          "time": 169.2102725000008,
          "velocity": 0.7874015748031497,
          "duration": 0.25767505208332864
        },
        {
          "name": "G6",
          "midi": 91,
          "time": 169.4734300000008,
          "velocity": 0.7874015748031497,
          "duration": 0.1260963020833401
        },
        {
          "name": "G6",
          "midi": 91,
          "time": 169.60500875000082,
          "velocity": 0.7874015748031497,
          "duration": 0.1260963020833401
        },
        {
          "name": "G6",
          "midi": 91,
          "time": 169.73658750000084,
          "velocity": 0.7874015748031497,
          "duration": 0.1260963020833401
        },
        {
          "name": "G6",
          "midi": 91,
          "time": 169.86816625000085,
          "velocity": 0.7874015748031497,
          "duration": 0.1260963020833401
        },
        {
          "name": "G6",
          "midi": 91,
          "time": 169.99974500000087,
          "velocity": 0.7874015748031497,
          "duration": 0.25767505208332864
        },
        {
          "name": "C5",
          "midi": 72,
          "time": 177.36815500000085,
          "velocity": 0.7874015748031497,
          "duration": 0.5208325520833341
        },
        {
          "name": "C5",
          "midi": 72,
          "time": 181.57867500000086,
          "velocity": 0.7874015748031497,
          "duration": 0.1260963020833401
        },
        {
          "name": "D#5",
          "midi": 75,
          "time": 189.99971500000086,
          "velocity": 0.7874015748031497,
          "duration": 0.25767505208332864
        },
        {
          "name": "A#4",
          "midi": 70,
          "time": 196.31549500000088,
          "velocity": 0.7874015748031497,
          "duration": 0.25767505208332864
        },
        {
          "name": "A#4",
          "midi": 70,
          "time": 202.24202119791755,
          "velocity": 0.7874015748031497,
          "duration": 0.1260963020833401
        },
        {
          "name": "D#5",
          "midi": 75,
          "time": 202.3681175000009,
          "velocity": 0.7874015748031497,
          "duration": 0.1260963020833401
        },
        {
          "name": "A#4",
          "midi": 70,
          "time": 202.4996962500009,
          "velocity": 0.7874015748031497,
          "duration": 0.1260963020833401
        },
        {
          "name": "G#5",
          "midi": 80,
          "time": 202.63127500000093,
          "velocity": 0.7874015748031497,
          "duration": 0.1260963020833401
        },
        {
          "name": "D#5",
          "midi": 75,
          "time": 202.76285375000094,
          "velocity": 0.7874015748031497,
          "duration": 0.3892538020833456
        },
        {
          "name": "A#4",
          "midi": 70,
          "time": 202.76285375000094,
          "velocity": 0.7874015748031497,
          "duration": 0.3892538020833456
        },
        {
          "name": "A#4",
          "midi": 70,
          "time": 203.15759000000097,
          "velocity": 0.7874015748031497,
          "duration": 0.1260963020833401
        },
        {
          "name": "D#5",
          "midi": 75,
          "time": 203.15759000000097,
          "velocity": 0.7874015748031497,
          "duration": 0.1260963020833401
        },
        {
          "name": "D#5",
          "midi": 75,
          "time": 203.28916875000098,
          "velocity": 0.7874015748031497,
          "duration": 0.25767505208332864
        },
        {
          "name": "A#4",
          "midi": 70,
          "time": 203.28916875000098,
          "velocity": 0.7874015748031497,
          "duration": 0.25767505208332864
        },
        {
          "name": "D#5",
          "midi": 75,
          "time": 203.552326250001,
          "velocity": 0.7874015748031497,
          "duration": 0.1260963020833401
        },
        {
          "name": "A#4",
          "midi": 70,
          "time": 203.552326250001,
          "velocity": 0.7874015748031497,
          "duration": 0.1260963020833401
        },
        {
          "name": "A#4",
          "midi": 70,
          "time": 203.683905000001,
          "velocity": 0.7874015748031497,
          "duration": 0.1260963020833401
        },
        {
          "name": "D#5",
          "midi": 75,
          "time": 203.683905000001,
          "velocity": 0.7874015748031497,
          "duration": 0.1260963020833401
        },
        {
          "name": "F5",
          "midi": 77,
          "time": 203.81548375000102,
          "velocity": 0.7874015748031497,
          "duration": 0.1260963020833401
        },
        {
          "name": "C5",
          "midi": 72,
          "time": 203.81548375000102,
          "velocity": 0.7874015748031497,
          "duration": 0.1260963020833401
        },
        {
          "name": "C5",
          "midi": 72,
          "time": 203.94706250000104,
          "velocity": 0.7874015748031497,
          "duration": 0.1260963020833401
        },
        {
          "name": "F5",
          "midi": 77,
          "time": 203.94706250000104,
          "velocity": 0.7874015748031497,
          "duration": 0.1260963020833401
        },
        {
          "name": "A#4",
          "midi": 70,
          "time": 204.07864125000106,
          "velocity": 0.7874015748031497,
          "duration": 0.1260963020833401
        },
        {
          "name": "D#5",
          "midi": 75,
          "time": 204.07864125000106,
          "velocity": 0.7874015748031497,
          "duration": 0.1260963020833401
        },
        {
          "name": "A#5",
          "midi": 82,
          "time": 204.21022000000107,
          "velocity": 0.7874015748031497,
          "duration": 0.389253802083374
        },
        {
          "name": "A#5",
          "midi": 82,
          "time": 204.60495625000112,
          "velocity": 0.7874015748031497,
          "duration": 0.1260963020833401
        },
        {
          "name": "A#5",
          "midi": 82,
          "time": 204.73653500000114,
          "velocity": 0.7874015748031497,
          "duration": 0.25767505208335706
        },
        {
          "name": "A#5",
          "midi": 82,
          "time": 204.99969250000117,
          "velocity": 0.7874015748031497,
          "duration": 0.25767505208335706
        },
        {
          "name": "A#5",
          "midi": 82,
          "time": 205.2628500000012,
          "velocity": 0.7874015748031497,
          "duration": 0.520832552083391
        },
        {
          "name": "A#5",
          "midi": 82,
          "time": 205.78916500000128,
          "velocity": 0.7874015748031497,
          "duration": 0.25767505208335706
        },
        {
          "name": "A#5",
          "midi": 82,
          "time": 206.0523225000013,
          "velocity": 0.7874015748031497,
          "duration": 0.1260963020833401
        },
        {
          "name": "A#5",
          "midi": 82,
          "time": 206.18390125000133,
          "velocity": 0.7874015748031497,
          "duration": 0.1260963020833401
        },
        {
          "name": "C6",
          "midi": 84,
          "time": 206.31548000000134,
          "velocity": 0.7874015748031497,
          "duration": 0.25767505208332864
        },
        {
          "name": "C6",
          "midi": 84,
          "time": 206.57863750000135,
          "velocity": 0.7874015748031497,
          "duration": 0.25767505208332864
        },
        {
          "name": "C6",
          "midi": 84,
          "time": 206.84179500000135,
          "velocity": 0.7874015748031497,
          "duration": 0.25767505208332864
        },
        {
          "name": "C6",
          "midi": 84,
          "time": 207.10495250000136,
          "velocity": 0.7874015748031497,
          "duration": 0.25767505208332864
        },
        {
          "name": "B5",
          "midi": 83,
          "time": 207.36811000000137,
          "velocity": 0.7874015748031497,
          "duration": 1.1787263020834473
        },
        {
          "name": "C#6",
          "midi": 85,
          "time": 208.68389750000148,
          "velocity": 0.7874015748031497,
          "duration": 0.25767505208332864
        },
        {
          "name": "C#6",
          "midi": 85,
          "time": 208.94705500000148,
          "velocity": 0.7874015748031497,
          "duration": 0.25767505208332864
        },
        {
          "name": "C#6",
          "midi": 85,
          "time": 209.2102125000015,
          "velocity": 0.7874015748031497,
          "duration": 0.25767505208332864
        },
        {
          "name": "C#6",
          "midi": 85,
          "time": 209.4733700000015,
          "velocity": 0.7874015748031497,
          "duration": 0.7839900520834249
        },
        {
          "name": "C#6",
          "midi": 85,
          "time": 210.2628425000016,
          "velocity": 0.7874015748031497,
          "duration": 0.25767505208332864
        },
        {
          "name": "C#6",
          "midi": 85,
          "time": 210.5260000000016,
          "velocity": 0.7874015748031497,
          "duration": 0.25767505208332864
        },
        {
          "name": "C#6",
          "midi": 85,
          "time": 210.7891575000016,
          "velocity": 0.7874015748031497,
          "duration": 0.25767505208332864
        },
        {
          "name": "C#6",
          "midi": 85,
          "time": 211.0523150000016,
          "velocity": 0.7874015748031497,
          "duration": 0.25767505208332864
        },
        {
          "name": "C6",
          "midi": 84,
          "time": 211.5786300000016,
          "velocity": 0.7874015748031497,
          "duration": 1.0471475520834588
        },
        {
          "name": "B5",
          "midi": 83,
          "time": 212.89441750000174,
          "velocity": 0.7874015748031497,
          "duration": 0.25767505208332864
        },
        {
          "name": "B5",
          "midi": 83,
          "time": 213.15757500000174,
          "velocity": 0.7874015748031497,
          "duration": 0.25767505208332864
        },
        {
          "name": "B5",
          "midi": 83,
          "time": 213.42073250000175,
          "velocity": 0.7874015748031497,
          "duration": 0.25767505208332864
        },
        {
          "name": "B5",
          "midi": 83,
          "time": 213.68389000000175,
          "velocity": 0.7874015748031497,
          "duration": 1.0471475520834588
        },
        {
          "name": "B5",
          "midi": 83,
          "time": 214.7365200000019,
          "velocity": 0.7874015748031497,
          "duration": 0.25767505208332864
        },
        {
          "name": "B5",
          "midi": 83,
          "time": 214.9996775000019,
          "velocity": 0.7874015748031497,
          "duration": 0.25767505208332864
        },
        {
          "name": "B5",
          "midi": 83,
          "time": 215.2628350000019,
          "velocity": 0.7874015748031497,
          "duration": 0.25767505208332864
        },
        {
          "name": "B5",
          "midi": 83,
          "time": 215.5259925000019,
          "velocity": 0.7874015748031497,
          "duration": 0.25767505208332864
        },
        {
          "name": "A#5",
          "midi": 82,
          "time": 215.7891500000019,
          "velocity": 0.7874015748031497,
          "duration": 1.0471475520834588
        },
        {
          "name": "C#6",
          "midi": 85,
          "time": 217.10493750000202,
          "velocity": 0.7874015748031497,
          "duration": 0.17543833333334646
        },
        {
          "name": "C#6",
          "midi": 85,
          "time": 217.36809500000203,
          "velocity": 0.7874015748031497,
          "duration": 0.17543833333334646
        },
        {
          "name": "C#6",
          "midi": 85,
          "time": 217.63125250000203,
          "velocity": 0.7874015748031497,
          "duration": 0.17543833333334646
        },
        {
          "name": "D6",
          "midi": 86,
          "time": 217.89441000000204,
          "velocity": 0.7874015748031497,
          "duration": 0.17543833333334646
        },
        {
          "name": "D6",
          "midi": 86,
          "time": 218.15756750000205,
          "velocity": 0.7874015748031497,
          "duration": 0.08771916666665902
        },
        {
          "name": "D6",
          "midi": 86,
          "time": 218.28914625000203,
          "velocity": 0.7874015748031497,
          "duration": 0.08771916666665902
        },
        {
          "name": "D6",
          "midi": 86,
          "time": 218.42072500000202,
          "velocity": 0.7874015748031497,
          "duration": 0.08771916666665902
        },
        {
          "name": "D6",
          "midi": 86,
          "time": 218.552303750002,
          "velocity": 0.7874015748031497,
          "duration": 0.08771916666665902
        },
        {
          "name": "D6",
          "midi": 86,
          "time": 218.683882500002,
          "velocity": 0.7874015748031497,
          "duration": 0.17543833333334646
        },
        {
          "name": "F6",
          "midi": 89,
          "time": 218.947040000002,
          "velocity": 0.7874015748031497,
          "duration": 0.17543833333334646
        },
        {
          "name": "F6",
          "midi": 89,
          "time": 219.210197500002,
          "velocity": 0.7874015748031497,
          "duration": 0.17543833333334646
        },
        {
          "name": "F6",
          "midi": 89,
          "time": 219.47335500000202,
          "velocity": 0.7874015748031497,
          "duration": 0.3508766666666645
        },
        {
          "name": "G6",
          "midi": 91,
          "time": 219.99967000000203,
          "velocity": 0.7874015748031497,
          "duration": 0.08771916666665902
        },
        {
          "name": "G6",
          "midi": 91,
          "time": 220.13124875000202,
          "velocity": 0.7874015748031497,
          "duration": 0.08771916666665902
        },
        {
          "name": "G6",
          "midi": 91,
          "time": 220.262827500002,
          "velocity": 0.7874015748031497,
          "duration": 0.08771916666665902
        },
        {
          "name": "G6",
          "midi": 91,
          "time": 220.394406250002,
          "velocity": 0.7874015748031497,
          "duration": 0.08771916666665902
        },
        {
          "name": "G6",
          "midi": 91,
          "time": 220.52598500000198,
          "velocity": 0.7874015748031497,
          "duration": 0.08771916666665902
        },
        {
          "name": "G6",
          "midi": 91,
          "time": 220.65756375000197,
          "velocity": 0.7874015748031497,
          "duration": 0.08771916666665902
        },
        {
          "name": "G6",
          "midi": 91,
          "time": 220.78914250000196,
          "velocity": 0.7874015748031497,
          "duration": 0.08771916666665902
        }
      ],
      "controlChanges": {
        "7": [
          {
            "number": 7,
            "time": 52.181939270833325,
            "value": 0.2125984251968504
          },
          {
            "number": 7,
            "time": 105.26300000000029,
            "value": 0.6299212598425197
          },
          {
            "number": 7,
            "time": 108.67856505208363,
            "value": 0.47244094488188976
          },
          {
            "number": 7,
            "time": 110.26299250000048,
            "value": 0.6299212598425197
          },
          {
            "number": 7,
            "time": 195.78918000000087,
            "value": 0.31496062992125984
          },
          {
            "number": 7,
            "time": 202.23653875000088,
            "value": 0.47244094488188976
          },
          {
            "number": 7,
            "time": 204.2047375520844,
            "value": 0.5118110236220472
          }
        ]
      },
      "id": 4,
      "name": "Trans. by CRAy1000",
      "instrumentNumber": 30,
      "instrument": "distortion guitar",
      "instrumentFamily": "guitar",
      "channelNumber": 3,
      "isPercussion": false
    },
    {
      "startTime": 19.2104975,
      "duration": 237.88889755208362,
      "length": 220,
      "notes": [
        {
          "name": "C5",
          "midi": 72,
          "time": 19.2104975,
          "velocity": 0.7874015748031497,
          "duration": 0.2576750520833322
        },
        {
          "name": "A#4",
          "midi": 70,
          "time": 19.473654999999997,
          "velocity": 0.7874015748031497,
          "duration": 0.2576750520833322
        },
        {
          "name": "C5",
          "midi": 72,
          "time": 19.736812499999996,
          "velocity": 0.7874015748031497,
          "duration": 0.2576750520833322
        },
        {
          "name": "A#4",
          "midi": 70,
          "time": 19.999969999999994,
          "velocity": 0.7874015748031497,
          "duration": 0.2576750520833322
        },
        {
          "name": "C5",
          "midi": 72,
          "time": 20.263127499999992,
          "velocity": 0.7874015748031497,
          "duration": 0.2576750520833322
        },
        {
          "name": "A#4",
          "midi": 70,
          "time": 20.52628499999999,
          "velocity": 0.7874015748031497,
          "duration": 0.2576750520833322
        },
        {
          "name": "C5",
          "midi": 72,
          "time": 20.78944249999999,
          "velocity": 0.7874015748031497,
          "duration": 0.2576750520833322
        },
        {
          "name": "D#5",
          "midi": 75,
          "time": 21.052599999999988,
          "velocity": 0.7874015748031497,
          "duration": 0.2576750520833322
        },
        {
          "name": "A#4",
          "midi": 70,
          "time": 21.315757499999986,
          "velocity": 0.7874015748031497,
          "duration": 0.2576750520833322
        },
        {
          "name": "C5",
          "midi": 72,
          "time": 21.578914999999984,
          "velocity": 0.7874015748031497,
          "duration": 0.2576750520833322
        },
        {
          "name": "G4",
          "midi": 67,
          "time": 21.842072499999983,
          "velocity": 0.7874015748031497,
          "duration": 0.2576750520833322
        },
        {
          "name": "A#4",
          "midi": 70,
          "time": 23.42101749999998,
          "velocity": 0.7874015748031497,
          "duration": 0.2576750520833322
        },
        {
          "name": "C5",
          "midi": 72,
          "time": 23.68417499999998,
          "velocity": 0.7874015748031497,
          "duration": 0.2576750520833322
        },
        {
          "name": "D#5",
          "midi": 75,
          "time": 23.947332499999977,
          "velocity": 0.7874015748031497,
          "duration": 0.2576750520833322
        },
        {
          "name": "A#4",
          "midi": 70,
          "time": 24.210489999999975,
          "velocity": 0.7874015748031497,
          "duration": 0.2576750520833322
        },
        {
          "name": "A#4",
          "midi": 70,
          "time": 24.473647499999974,
          "velocity": 0.7874015748031497,
          "duration": 0.2576750520833322
        },
        {
          "name": "C5",
          "midi": 72,
          "time": 24.736804999999972,
          "velocity": 0.7874015748031497,
          "duration": 0.2576750520833322
        },
        {
          "name": "C5",
          "midi": 72,
          "time": 24.99996249999997,
          "velocity": 0.7874015748031497,
          "duration": 0.2576750520833322
        },
        {
          "name": "G#4",
          "midi": 68,
          "time": 25.26311999999997,
          "velocity": 0.7874015748031497,
          "duration": 0.2576750520833322
        },
        {
          "name": "A#4",
          "midi": 70,
          "time": 27.63153749999997,
          "velocity": 0.7874015748031497,
          "duration": 0.2576750520833322
        },
        {
          "name": "A#4",
          "midi": 70,
          "time": 27.894694999999967,
          "velocity": 0.7874015748031497,
          "duration": 0.2576750520833322
        },
        {
          "name": "C5",
          "midi": 72,
          "time": 28.157852499999965,
          "velocity": 0.7874015748031497,
          "duration": 0.2576750520833322
        },
        {
          "name": "A#4",
          "midi": 70,
          "time": 28.421009999999963,
          "velocity": 0.7874015748031497,
          "duration": 0.2576750520833322
        },
        {
          "name": "D#5",
          "midi": 75,
          "time": 28.684167499999962,
          "velocity": 0.7874015748031497,
          "duration": 0.2576750520833322
        },
        {
          "name": "C5",
          "midi": 72,
          "time": 28.94732499999996,
          "velocity": 0.7874015748031497,
          "duration": 0.5208325520833341
        },
        {
          "name": "G4",
          "midi": 67,
          "time": 29.47363999999996,
          "velocity": 0.7874015748031497,
          "duration": 0.2576750520833322
        },
        {
          "name": "G4",
          "midi": 67,
          "time": 29.99995499999996,
          "velocity": 0.7874015748031497,
          "duration": 0.2576750520833322
        },
        {
          "name": "A#4",
          "midi": 70,
          "time": 31.84205749999996,
          "velocity": 0.7874015748031497,
          "duration": 0.25767505208333574
        },
        {
          "name": "A#4",
          "midi": 70,
          "time": 32.105214999999966,
          "velocity": 0.7874015748031497,
          "duration": 0.5208325520833341
        },
        {
          "name": "D#5",
          "midi": 75,
          "time": 32.63152999999997,
          "velocity": 0.7874015748031497,
          "duration": 0.25767505208333574
        },
        {
          "name": "C5",
          "midi": 72,
          "time": 32.894687499999975,
          "velocity": 0.7874015748031497,
          "duration": 0.25767505208333574
        },
        {
          "name": "C5",
          "midi": 72,
          "time": 33.15784499999998,
          "velocity": 0.7874015748031497,
          "duration": 0.25767505208333574
        },
        {
          "name": "C5",
          "midi": 72,
          "time": 33.421002499999986,
          "velocity": 0.7874015748031497,
          "duration": 0.25767505208333574
        },
        {
          "name": "G#4",
          "midi": 68,
          "time": 33.68415999999999,
          "velocity": 0.7874015748031497,
          "duration": 0.25767505208333574
        },
        {
          "name": "F#5",
          "midi": 78,
          "time": 36.05257749999999,
          "velocity": 0.7874015748031497,
          "duration": 0.25767505208333574
        },
        {
          "name": "F5",
          "midi": 77,
          "time": 36.315735,
          "velocity": 0.7874015748031497,
          "duration": 0.25767505208333574
        },
        {
          "name": "F5",
          "midi": 77,
          "time": 36.5788925,
          "velocity": 0.7874015748031497,
          "duration": 0.25767505208333574
        },
        {
          "name": "D#5",
          "midi": 75,
          "time": 36.84205000000001,
          "velocity": 0.7874015748031497,
          "duration": 0.25767505208333574
        },
        {
          "name": "A4",
          "midi": 69,
          "time": 37.63152250000001,
          "velocity": 0.7874015748031497,
          "duration": 0.25767505208333574
        },
        {
          "name": "G5",
          "midi": 79,
          "time": 37.894680000000015,
          "velocity": 0.7874015748031497,
          "duration": 0.25767505208333574
        },
        {
          "name": "C5",
          "midi": 72,
          "time": 38.15783750000002,
          "velocity": 0.7874015748031497,
          "duration": 0.25767505208333574
        },
        {
          "name": "D#5",
          "midi": 75,
          "time": 38.420995000000026,
          "velocity": 0.7874015748031497,
          "duration": 1.0471475520833309
        },
        {
          "name": "A#4",
          "midi": 70,
          "time": 40.26309750000002,
          "velocity": 0.7874015748031497,
          "duration": 0.25767505208333574
        },
        {
          "name": "C5",
          "midi": 72,
          "time": 40.52625500000003,
          "velocity": 0.7874015748031497,
          "duration": 0.5208325520833341
        },
        {
          "name": "D#5",
          "midi": 75,
          "time": 41.05257000000003,
          "velocity": 0.7874015748031497,
          "duration": 0.25767505208333574
        },
        {
          "name": "C5",
          "midi": 72,
          "time": 41.31572750000004,
          "velocity": 0.7874015748031497,
          "duration": 0.25767505208333574
        },
        {
          "name": "C5",
          "midi": 72,
          "time": 41.57888500000004,
          "velocity": 0.7874015748031497,
          "duration": 0.5208325520833341
        },
        {
          "name": "F#5",
          "midi": 78,
          "time": 44.473617500000046,
          "velocity": 0.7874015748031497,
          "duration": 0.25767505208333574
        },
        {
          "name": "F5",
          "midi": 77,
          "time": 44.73677500000005,
          "velocity": 0.7874015748031497,
          "duration": 0.25767505208333574
        },
        {
          "name": "D#5",
          "midi": 75,
          "time": 44.99993250000006,
          "velocity": 0.7874015748031497,
          "duration": 0.25767505208333574
        },
        {
          "name": "F5",
          "midi": 77,
          "time": 45.26309000000006,
          "velocity": 0.7874015748031497,
          "duration": 0.25767505208333574
        },
        {
          "name": "D#5",
          "midi": 75,
          "time": 45.52624750000007,
          "velocity": 0.7874015748031497,
          "duration": 0.5208325520833341
        },
        {
          "name": "G5",
          "midi": 79,
          "time": 46.05256250000007,
          "velocity": 0.7874015748031497,
          "duration": 0.25767505208333574
        },
        {
          "name": "C5",
          "midi": 72,
          "time": 46.31572000000008,
          "velocity": 0.7874015748031497,
          "duration": 0.25767505208333574
        },
        {
          "name": "C5",
          "midi": 72,
          "time": 46.57887750000008,
          "velocity": 0.7874015748031497,
          "duration": 0.25767505208333574
        },
        {
          "name": "D#5",
          "midi": 75,
          "time": 46.84203500000009,
          "velocity": 0.7874015748031497,
          "duration": 0.5208325520833341
        },
        {
          "name": "G#4",
          "midi": 68,
          "time": 47.23677125000009,
          "velocity": 0.7874015748031497,
          "duration": 0.5208325520833341
        },
        {
          "name": "A#4",
          "midi": 70,
          "time": 48.68413750000009,
          "velocity": 0.7874015748031497,
          "duration": 0.25767505208333574
        },
        {
          "name": "C5",
          "midi": 72,
          "time": 48.947295000000096,
          "velocity": 0.7874015748031497,
          "duration": 0.25767505208333574
        },
        {
          "name": "C5",
          "midi": 72,
          "time": 49.2104525000001,
          "velocity": 0.7874015748031497,
          "duration": 0.25767505208333574
        },
        {
          "name": "D#5",
          "midi": 75,
          "time": 49.47361000000011,
          "velocity": 0.7874015748031497,
          "duration": 0.25767505208333574
        },
        {
          "name": "C5",
          "midi": 72,
          "time": 49.73676750000011,
          "velocity": 0.7874015748031497,
          "duration": 0.25767505208333574
        },
        {
          "name": "C5",
          "midi": 72,
          "time": 49.99992500000012,
          "velocity": 0.7874015748031497,
          "duration": 0.25767505208333574
        },
        {
          "name": "C5",
          "midi": 72,
          "time": 50.263082500000124,
          "velocity": 0.7874015748031497,
          "duration": 0.25767505208333574
        },
        {
          "name": "G#4",
          "midi": 68,
          "time": 50.52624000000013,
          "velocity": 0.7874015748031497,
          "duration": 0.5208325520833341
        },
        {
          "name": "D#5",
          "midi": 75,
          "time": 51.31571250000013,
          "velocity": 0.7874015748031497,
          "duration": 0.5208325520833341
        },
        {
          "name": "A#4",
          "midi": 70,
          "time": 51.842027500000135,
          "velocity": 0.7874015748031497,
          "duration": 0.5208325520833341
        },
        {
          "name": "C5",
          "midi": 72,
          "time": 52.36834250000014,
          "velocity": 0.7874015748031497,
          "duration": 0.25767505208333574
        },
        {
          "name": "G5",
          "midi": 79,
          "time": 69.73673750000015,
          "velocity": 0.7874015748031497,
          "duration": 0.25767505208332864
        },
        {
          "name": "F5",
          "midi": 77,
          "time": 69.99989500000014,
          "velocity": 0.7874015748031497,
          "duration": 0.25767505208332864
        },
        {
          "name": "D#5",
          "midi": 75,
          "time": 70.26305250000013,
          "velocity": 0.7874015748031497,
          "duration": 0.25767505208332864
        },
        {
          "name": "F5",
          "midi": 77,
          "time": 70.52621000000012,
          "velocity": 0.7874015748031497,
          "duration": 0.25767505208332864
        },
        {
          "name": "F5",
          "midi": 77,
          "time": 70.78936750000011,
          "velocity": 0.7874015748031497,
          "duration": 0.25767505208332864
        },
        {
          "name": "D#5",
          "midi": 75,
          "time": 71.0525250000001,
          "velocity": 0.7874015748031497,
          "duration": 0.25767505208332864
        },
        {
          "name": "G5",
          "midi": 79,
          "time": 71.3156825000001,
          "velocity": 0.7874015748031497,
          "duration": 0.25767505208332864
        },
        {
          "name": "G5",
          "midi": 79,
          "time": 71.57884000000008,
          "velocity": 0.7874015748031497,
          "duration": 0.3892538020833314
        },
        {
          "name": "G4",
          "midi": 67,
          "time": 72.23673375000008,
          "velocity": 0.7874015748031497,
          "duration": 0.038377135416666874
        },
        {
          "name": "A#4",
          "midi": 70,
          "time": 73.94725750000009,
          "velocity": 0.7874015748031497,
          "duration": 0.25767505208332864
        },
        {
          "name": "C5",
          "midi": 72,
          "time": 74.21041500000008,
          "velocity": 0.7874015748031497,
          "duration": 0.25767505208332864
        },
        {
          "name": "C5",
          "midi": 72,
          "time": 74.47357250000007,
          "velocity": 0.7874015748031497,
          "duration": 0.25767505208332864
        },
        {
          "name": "D#5",
          "midi": 75,
          "time": 74.73673000000007,
          "velocity": 0.7874015748031497,
          "duration": 0.25767505208332864
        },
        {
          "name": "C5",
          "midi": 72,
          "time": 74.99988750000006,
          "velocity": 0.7874015748031497,
          "duration": 0.25767505208332864
        },
        {
          "name": "C5",
          "midi": 72,
          "time": 75.26304500000005,
          "velocity": 0.7874015748031497,
          "duration": 0.25767505208332864
        },
        {
          "name": "F#4",
          "midi": 66,
          "time": 75.52620250000004,
          "velocity": 0.7874015748031497,
          "duration": 0.25767505208332864
        },
        {
          "name": "A#4",
          "midi": 70,
          "time": 78.15777750000004,
          "velocity": 0.7874015748031497,
          "duration": 0.25767505208332864
        },
        {
          "name": "A#4",
          "midi": 70,
          "time": 78.42093500000003,
          "velocity": 0.7874015748031497,
          "duration": 0.25767505208332864
        },
        {
          "name": "C5",
          "midi": 72,
          "time": 78.68409250000002,
          "velocity": 0.7874015748031497,
          "duration": 0.25767505208332864
        },
        {
          "name": "A#4",
          "midi": 70,
          "time": 78.94725000000001,
          "velocity": 0.7874015748031497,
          "duration": 0.25767505208332864
        },
        {
          "name": "C5",
          "midi": 72,
          "time": 79.2104075,
          "velocity": 0.7874015748031497,
          "duration": 0.25767505208332864
        },
        {
          "name": "C5",
          "midi": 72,
          "time": 79.473565,
          "velocity": 0.7874015748031497,
          "duration": 0.25767505208332864
        },
        {
          "name": "D#5",
          "midi": 75,
          "time": 79.73672249999998,
          "velocity": 0.7874015748031497,
          "duration": 0.25767505208332864
        },
        {
          "name": "F5",
          "midi": 77,
          "time": 79.99987999999998,
          "velocity": 0.7874015748031497,
          "duration": 0.7839900520833396
        },
        {
          "name": "D#4",
          "midi": 63,
          "time": 80.92093124999998,
          "velocity": 0.7874015748031497,
          "duration": 0.038377135416666874
        },
        {
          "name": "G5",
          "midi": 79,
          "time": 82.36829749999998,
          "velocity": 0.7874015748031497,
          "duration": 0.25767505208332864
        },
        {
          "name": "F5",
          "midi": 77,
          "time": 82.63145499999997,
          "velocity": 0.7874015748031497,
          "duration": 0.16995588541666962
        },
        {
          "name": "D#5",
          "midi": 75,
          "time": 82.80141088541664,
          "velocity": 0.7874015748031497,
          "duration": 0.16995588541666962
        },
        {
          "name": "F5",
          "midi": 77,
          "time": 82.97684921874998,
          "velocity": 0.7874015748031497,
          "duration": 0.42763093749999825
        },
        {
          "name": "C5",
          "midi": 72,
          "time": 83.42092749999998,
          "velocity": 0.7874015748031497,
          "duration": 0.25767505208332864
        },
        {
          "name": "C5",
          "midi": 72,
          "time": 83.68408499999997,
          "velocity": 0.7874015748031497,
          "duration": 0.1260963020833401
        },
        {
          "name": "C5",
          "midi": 72,
          "time": 83.81566374999997,
          "velocity": 0.7874015748031497,
          "duration": 0.1260963020833401
        },
        {
          "name": "D#5",
          "midi": 75,
          "time": 83.94724249999997,
          "velocity": 0.7874015748031497,
          "duration": 0.25767505208332864
        },
        {
          "name": "G4",
          "midi": 67,
          "time": 85.92092374999997,
          "velocity": 0.7874015748031497,
          "duration": 0.1260963020833401
        },
        {
          "name": "F4",
          "midi": 65,
          "time": 86.18408124999998,
          "velocity": 0.7874015748031497,
          "duration": 0.1260963020833401
        },
        {
          "name": "G5",
          "midi": 79,
          "time": 86.57881749999999,
          "velocity": 0.7874015748031497,
          "duration": 0.25767505208332864
        },
        {
          "name": "F5",
          "midi": 77,
          "time": 86.84197499999998,
          "velocity": 0.7874015748031497,
          "duration": 0.25767505208332864
        },
        {
          "name": "D#5",
          "midi": 75,
          "time": 87.10513249999997,
          "velocity": 0.7874015748031497,
          "duration": 0.25767505208332864
        },
        {
          "name": "F5",
          "midi": 77,
          "time": 87.36828999999996,
          "velocity": 0.7874015748031497,
          "duration": 0.25767505208332864
        },
        {
          "name": "C5",
          "midi": 72,
          "time": 87.63144749999995,
          "velocity": 0.7874015748031497,
          "duration": 0.5208325520833341
        },
        {
          "name": "D#5",
          "midi": 75,
          "time": 88.15776249999995,
          "velocity": 0.7874015748031497,
          "duration": 0.1260963020833401
        },
        {
          "name": "C5",
          "midi": 72,
          "time": 88.28934124999995,
          "velocity": 0.7874015748031497,
          "duration": 0.3892538020833314
        },
        {
          "name": "C5",
          "midi": 72,
          "time": 88.68407749999994,
          "velocity": 0.7874015748031497,
          "duration": 0.25767505208332864
        },
        {
          "name": "F5",
          "midi": 77,
          "time": 88.94723499999994,
          "velocity": 0.7874015748031497,
          "duration": 0.5208325520833341
        },
        {
          "name": "A#4",
          "midi": 70,
          "time": 90.78933749999993,
          "velocity": 0.7874015748031497,
          "duration": 0.25767505208332864
        },
        {
          "name": "C5",
          "midi": 72,
          "time": 91.05249499999992,
          "velocity": 0.7874015748031497,
          "duration": 0.25767505208332864
        },
        {
          "name": "C5",
          "midi": 72,
          "time": 91.31565249999991,
          "velocity": 0.7874015748031497,
          "duration": 0.25767505208332864
        },
        {
          "name": "D#5",
          "midi": 75,
          "time": 91.5788099999999,
          "velocity": 0.7874015748031497,
          "duration": 0.25767505208332864
        },
        {
          "name": "C5",
          "midi": 72,
          "time": 91.8419674999999,
          "velocity": 0.7874015748031497,
          "duration": 0.5208325520833341
        },
        {
          "name": "C5",
          "midi": 72,
          "time": 92.36828249999989,
          "velocity": 0.7874015748031497,
          "duration": 0.25767505208332864
        },
        {
          "name": "F#4",
          "midi": 66,
          "time": 92.63143999999988,
          "velocity": 0.7874015748031497,
          "duration": 0.5208325520833341
        },
        {
          "name": "C5",
          "midi": 72,
          "time": 94.99985749999989,
          "velocity": 0.7874015748031497,
          "duration": 0.25767505208332864
        },
        {
          "name": "A#4",
          "midi": 70,
          "time": 95.26301499999988,
          "velocity": 0.7874015748031497,
          "duration": 0.25767505208332864
        },
        {
          "name": "C5",
          "midi": 72,
          "time": 95.52617249999987,
          "velocity": 0.7874015748031497,
          "duration": 0.25767505208332864
        },
        {
          "name": "A#4",
          "midi": 70,
          "time": 95.78932999999986,
          "velocity": 0.7874015748031497,
          "duration": 0.25767505208332864
        },
        {
          "name": "C5",
          "midi": 72,
          "time": 96.05248749999986,
          "velocity": 0.7874015748031497,
          "duration": 0.25767505208332864
        },
        {
          "name": "D#5",
          "midi": 75,
          "time": 96.57880249999985,
          "velocity": 0.7874015748031497,
          "duration": 0.25767505208332864
        },
        {
          "name": "A#4",
          "midi": 70,
          "time": 96.84195999999984,
          "velocity": 0.7874015748031497,
          "duration": 0.25767505208332864
        },
        {
          "name": "G#4",
          "midi": 68,
          "time": 97.10511749999984,
          "velocity": 0.7874015748031497,
          "duration": 0.25767505208332864
        },
        {
          "name": "G#4",
          "midi": 68,
          "time": 97.36827499999983,
          "velocity": 0.7874015748031497,
          "duration": 0.25767505208332864
        },
        {
          "name": "A#4",
          "midi": 70,
          "time": 99.21037749999982,
          "velocity": 0.7874015748031497,
          "duration": 0.25767505208332864
        },
        {
          "name": "C5",
          "midi": 72,
          "time": 99.47353499999981,
          "velocity": 0.7874015748031497,
          "duration": 0.25767505208332864
        },
        {
          "name": "C5",
          "midi": 72,
          "time": 99.7366924999998,
          "velocity": 0.7874015748031497,
          "duration": 0.25767505208332864
        },
        {
          "name": "E5",
          "midi": 76,
          "time": 99.9998499999998,
          "velocity": 0.7874015748031497,
          "duration": 0.25767505208332864
        },
        {
          "name": "F5",
          "midi": 77,
          "time": 100.26300749999979,
          "velocity": 0.7874015748031497,
          "duration": 0.25767505208332864
        },
        {
          "name": "G5",
          "midi": 79,
          "time": 100.78932249999978,
          "velocity": 0.7874015748031497,
          "duration": 0.25767505208332864
        },
        {
          "name": "A#5",
          "midi": 82,
          "time": 102.10510999999978,
          "velocity": 0.7874015748031497,
          "duration": 0.5208325520833341
        },
        {
          "name": "A#5",
          "midi": 82,
          "time": 170.52605999999977,
          "velocity": 0.7874015748031497,
          "duration": 0.5208325520833341
        },
        {
          "name": "G5",
          "midi": 79,
          "time": 171.05237499999978,
          "velocity": 0.7874015748031497,
          "duration": 0.5208325520833341
        },
        {
          "name": "F5",
          "midi": 77,
          "time": 171.5786899999998,
          "velocity": 0.7874015748031497,
          "duration": 0.25767505208332864
        },
        {
          "name": "F5",
          "midi": 77,
          "time": 172.10500499999978,
          "velocity": 0.7874015748031497,
          "duration": 0.25767505208332864
        },
        {
          "name": "F5",
          "midi": 77,
          "time": 172.36816249999978,
          "velocity": 0.7874015748031497,
          "duration": 0.25767505208332864
        },
        {
          "name": "C5",
          "midi": 72,
          "time": 172.76289874999978,
          "velocity": 0.7874015748031497,
          "duration": 0.25767505208332864
        },
        {
          "name": "D#5",
          "midi": 75,
          "time": 173.02605624999978,
          "velocity": 0.7874015748031497,
          "duration": 0.25767505208332864
        },
        {
          "name": "A#4",
          "midi": 70,
          "time": 174.99973749999978,
          "velocity": 0.7874015748031497,
          "duration": 0.25767505208332864
        },
        {
          "name": "C5",
          "midi": 72,
          "time": 175.2628949999998,
          "velocity": 0.7874015748031497,
          "duration": 0.5208325520833341
        },
        {
          "name": "D#5",
          "midi": 75,
          "time": 175.7892099999998,
          "velocity": 0.7874015748031497,
          "duration": 0.25767505208332864
        },
        {
          "name": "C5",
          "midi": 72,
          "time": 176.0523674999998,
          "velocity": 0.7874015748031497,
          "duration": 0.5208325520833341
        },
        {
          "name": "C5",
          "midi": 72,
          "time": 176.57868249999981,
          "velocity": 0.7874015748031497,
          "duration": 0.25767505208332864
        },
        {
          "name": "C5",
          "midi": 72,
          "time": 179.2102574999998,
          "velocity": 0.7874015748031497,
          "duration": 0.25767505208332864
        },
        {
          "name": "A#4",
          "midi": 70,
          "time": 179.47341499999982,
          "velocity": 0.7874015748031497,
          "duration": 0.25767505208332864
        },
        {
          "name": "C5",
          "midi": 72,
          "time": 179.73657249999982,
          "velocity": 0.7874015748031497,
          "duration": 0.25767505208332864
        },
        {
          "name": "A#4",
          "midi": 70,
          "time": 179.99972999999983,
          "velocity": 0.7874015748031497,
          "duration": 0.25767505208332864
        },
        {
          "name": "C5",
          "midi": 72,
          "time": 180.26288749999983,
          "velocity": 0.7874015748031497,
          "duration": 0.5208325520833341
        },
        {
          "name": "D#5",
          "midi": 75,
          "time": 180.78920249999985,
          "velocity": 0.7874015748031497,
          "duration": 0.5208325520833341
        },
        {
          "name": "C5",
          "midi": 72,
          "time": 181.31551749999986,
          "velocity": 0.7874015748031497,
          "duration": 0.25767505208332864
        },
        {
          "name": "F4",
          "midi": 65,
          "time": 181.57867499999986,
          "velocity": 0.7874015748031497,
          "duration": 0.5208325520833341
        },
        {
          "name": "D#5",
          "midi": 75,
          "time": 183.42077749999987,
          "velocity": 0.7874015748031497,
          "duration": 0.25767505208332864
        },
        {
          "name": "D#5",
          "midi": 75,
          "time": 183.68393499999988,
          "velocity": 0.7874015748031497,
          "duration": 0.5208325520833341
        },
        {
          "name": "F5",
          "midi": 77,
          "time": 184.2102499999999,
          "velocity": 0.7874015748031497,
          "duration": 0.25767505208332864
        },
        {
          "name": "C5",
          "midi": 72,
          "time": 184.4734074999999,
          "velocity": 0.7874015748031497,
          "duration": 0.5208325520833341
        },
        {
          "name": "D#5",
          "midi": 75,
          "time": 184.9997224999999,
          "velocity": 0.7874015748031497,
          "duration": 0.5208325520833341
        },
        {
          "name": "G4",
          "midi": 67,
          "time": 187.2365612499999,
          "velocity": 0.7874015748031497,
          "duration": 0.1260963020833401
        },
        {
          "name": "G5",
          "midi": 79,
          "time": 187.36813999999993,
          "velocity": 0.7874015748031497,
          "duration": 0.5208325520833341
        },
        {
          "name": "G5",
          "midi": 79,
          "time": 187.89445499999994,
          "velocity": 0.7874015748031497,
          "duration": 0.5208325520833341
        },
        {
          "name": "F5",
          "midi": 77,
          "time": 188.42076999999995,
          "velocity": 0.7874015748031497,
          "duration": 0.25767505208332864
        },
        {
          "name": "D#5",
          "midi": 75,
          "time": 188.68392749999995,
          "velocity": 0.7874015748031497,
          "duration": 0.25767505208332864
        },
        {
          "name": "F5",
          "midi": 77,
          "time": 188.94708499999996,
          "velocity": 0.7874015748031497,
          "duration": 0.5208325520833341
        },
        {
          "name": "F5",
          "midi": 77,
          "time": 189.47339999999997,
          "velocity": 0.7874015748031497,
          "duration": 0.25767505208332864
        },
        {
          "name": "D#5",
          "midi": 75,
          "time": 189.73655749999998,
          "velocity": 0.7874015748031497,
          "duration": 0.25767505208332864
        },
        {
          "name": "A#4",
          "midi": 70,
          "time": 191.84181749999996,
          "velocity": 0.7874015748031497,
          "duration": 0.25767505208332864
        },
        {
          "name": "D#5",
          "midi": 75,
          "time": 192.10497499999997,
          "velocity": 0.7874015748031497,
          "duration": 0.25767505208332864
        },
        {
          "name": "D#5",
          "midi": 75,
          "time": 192.36813249999997,
          "velocity": 0.7874015748031497,
          "duration": 0.25767505208332864
        },
        {
          "name": "D#5",
          "midi": 75,
          "time": 192.89444749999996,
          "velocity": 0.7874015748031497,
          "duration": 0.25767505208332864
        },
        {
          "name": "D#5",
          "midi": 75,
          "time": 193.42076249999994,
          "velocity": 0.7874015748031497,
          "duration": 0.25767505208332864
        },
        {
          "name": "D#5",
          "midi": 75,
          "time": 196.05233749999994,
          "velocity": 0.7874015748031497,
          "duration": 0.25767505208332864
        },
        {
          "name": "D5",
          "midi": 74,
          "time": 196.31549499999994,
          "velocity": 0.7874015748031497,
          "duration": 0.25767505208332864
        },
        {
          "name": "D#5",
          "midi": 75,
          "time": 196.57865249999995,
          "velocity": 0.7874015748031497,
          "duration": 0.25767505208332864
        },
        {
          "name": "D#5",
          "midi": 75,
          "time": 196.84180999999995,
          "velocity": 0.7874015748031497,
          "duration": 0.25767505208332864
        },
        {
          "name": "D#5",
          "midi": 75,
          "time": 197.10496749999996,
          "velocity": 0.7874015748031497,
          "duration": 0.25767505208332864
        },
        {
          "name": "A#4",
          "midi": 70,
          "time": 197.36812499999996,
          "velocity": 0.7874015748031497,
          "duration": 0.25767505208332864
        },
        {
          "name": "A#4",
          "midi": 70,
          "time": 197.63128249999997,
          "velocity": 0.7874015748031497,
          "duration": 0.25767505208332864
        },
        {
          "name": "C5",
          "midi": 72,
          "time": 199.47338499999995,
          "velocity": 0.7874015748031497,
          "duration": 0.25767505208332864
        },
        {
          "name": "C5",
          "midi": 72,
          "time": 199.73654249999996,
          "velocity": 0.7874015748031497,
          "duration": 0.25767505208332864
        },
        {
          "name": "G#5",
          "midi": 80,
          "time": 199.99969999999996,
          "velocity": 0.7874015748031497,
          "duration": 0.5208325520833341
        },
        {
          "name": "G5",
          "midi": 79,
          "time": 200.78917249999995,
          "velocity": 0.7874015748031497,
          "duration": 0.25767505208332864
        },
        {
          "name": "F5",
          "midi": 77,
          "time": 201.05232999999996,
          "velocity": 0.7874015748031497,
          "duration": 0.25767505208332864
        },
        {
          "name": "D#5",
          "midi": 75,
          "time": 201.31548749999996,
          "velocity": 0.7874015748031497,
          "duration": 0.25767505208332864
        },
        {
          "name": "G5",
          "midi": 79,
          "time": 201.57864499999997,
          "velocity": 0.7874015748031497,
          "duration": 0.5208325520833341
        },
        {
          "name": "G#5",
          "midi": 80,
          "time": 203.15758999999997,
          "velocity": 0.7874015748031497,
          "duration": 0.5208325520833341
        },
        {
          "name": "G5",
          "midi": 79,
          "time": 211.31547249999997,
          "velocity": 0.7874015748031497,
          "duration": 0.1260963020833401
        },
        {
          "name": "F5",
          "midi": 77,
          "time": 211.44705125,
          "velocity": 0.7874015748031497,
          "duration": 0.1260963020833401
        },
        {
          "name": "G5",
          "midi": 79,
          "time": 211.57863,
          "velocity": 0.7874015748031497,
          "duration": 0.25767505208332864
        },
        {
          "name": "F5",
          "midi": 77,
          "time": 211.8417875,
          "velocity": 0.7874015748031497,
          "duration": 0.1260963020833401
        },
        {
          "name": "G5",
          "midi": 79,
          "time": 211.97336625000003,
          "velocity": 0.7874015748031497,
          "duration": 0.3892538020833456
        },
        {
          "name": "G5",
          "midi": 79,
          "time": 212.36810250000005,
          "velocity": 0.7874015748031497,
          "duration": 0.3892538020833456
        },
        {
          "name": "G#4",
          "midi": 68,
          "time": 212.76283875000007,
          "velocity": 0.7874015748031497,
          "duration": 0.3892538020833456
        },
        {
          "name": "C5",
          "midi": 72,
          "time": 215.5259925000001,
          "velocity": 0.7874015748031497,
          "duration": 0.25767505208332864
        },
        {
          "name": "C5",
          "midi": 72,
          "time": 215.7891500000001,
          "velocity": 0.7874015748031497,
          "duration": 0.25767505208332864
        },
        {
          "name": "D#5",
          "midi": 75,
          "time": 216.0523075000001,
          "velocity": 0.7874015748031497,
          "duration": 0.25767505208332864
        },
        {
          "name": "C5",
          "midi": 72,
          "time": 216.3154650000001,
          "velocity": 0.7874015748031497,
          "duration": 0.25767505208332864
        },
        {
          "name": "C5",
          "midi": 72,
          "time": 216.5786225000001,
          "velocity": 0.7874015748031497,
          "duration": 0.25767505208332864
        },
        {
          "name": "G4",
          "midi": 67,
          "time": 216.8417800000001,
          "velocity": 0.7874015748031497,
          "duration": 0.5208325520833341
        },
        {
          "name": "D#5",
          "midi": 75,
          "time": 218.42072500000012,
          "velocity": 0.7874015748031497,
          "duration": 0.1260963020833401
        },
        {
          "name": "D#5",
          "midi": 75,
          "time": 218.55230375000014,
          "velocity": 0.7874015748031497,
          "duration": 0.1260963020833401
        },
        {
          "name": "D#5",
          "midi": 75,
          "time": 218.68388250000015,
          "velocity": 0.7874015748031497,
          "duration": 0.1260963020833401
        },
        {
          "name": "D#5",
          "midi": 75,
          "time": 218.81546125000017,
          "velocity": 0.7874015748031497,
          "duration": 0.1260963020833401
        },
        {
          "name": "D#5",
          "midi": 75,
          "time": 218.9470400000002,
          "velocity": 0.7874015748031497,
          "duration": 0.5208325520833341
        },
        {
          "name": "G5",
          "midi": 79,
          "time": 219.99967000000018,
          "velocity": 0.7874015748031497,
          "duration": 0.1260963020833401
        },
        {
          "name": "G5",
          "midi": 79,
          "time": 220.1312487500002,
          "velocity": 0.7874015748031497,
          "duration": 0.1260963020833401
        },
        {
          "name": "G5",
          "midi": 79,
          "time": 220.2628275000002,
          "velocity": 0.7874015748031497,
          "duration": 0.1260963020833401
        },
        {
          "name": "G5",
          "midi": 79,
          "time": 220.39440625000023,
          "velocity": 0.7874015748031497,
          "duration": 0.1260963020833401
        },
        {
          "name": "G5",
          "midi": 79,
          "time": 220.52598500000025,
          "velocity": 0.7874015748031497,
          "duration": 0.25767505208332864
        },
        {
          "name": "F5",
          "midi": 77,
          "time": 220.78914250000025,
          "velocity": 0.7874015748031497,
          "duration": 0.25767505208332864
        },
        {
          "name": "G5",
          "midi": 79,
          "time": 221.05230000000026,
          "velocity": 0.7874015748031497,
          "duration": 0.25767505208332864
        },
        {
          "name": "A#5",
          "midi": 82,
          "time": 235.78912000000025,
          "velocity": 0.7874015748031497,
          "duration": 0.5208325520833341
        },
        {
          "name": "G5",
          "midi": 79,
          "time": 236.31543500000026,
          "velocity": 0.7874015748031497,
          "duration": 0.5208325520833341
        },
        {
          "name": "D#5",
          "midi": 75,
          "time": 236.84175000000027,
          "velocity": 0.7874015748031497,
          "duration": 0.25767505208332864
        },
        {
          "name": "F5",
          "midi": 77,
          "time": 237.10490750000028,
          "velocity": 0.7874015748031497,
          "duration": 0.1260963020833401
        },
        {
          "name": "F5",
          "midi": 77,
          "time": 237.2364862500003,
          "velocity": 0.7874015748031497,
          "duration": 0.1260963020833401
        },
        {
          "name": "C5",
          "midi": 72,
          "time": 237.4996437500003,
          "velocity": 0.7874015748031497,
          "duration": 0.25767505208332864
        },
        {
          "name": "D#5",
          "midi": 75,
          "time": 237.6312225000003,
          "velocity": 0.7874015748031497,
          "duration": 0.25767505208332864
        }
      ],
      "controlChanges": {
        "7": [
          {
            "number": 7,
            "time": 18.94734,
            "value": 0.6299212598425197
          }
        ]
      },
      "id": 5,
      "name": "Gotta get away",
      "instrumentNumber": 102,
      "instrument": "fx 7 (echoes)",
      "instrumentFamily": "synth effects",
      "channelNumber": 4,
      "isPercussion": false
    },
    {
      "startTime": 136.84189999999998,
      "duration": 152.30240312500092,
      "length": 84,
      "notes": [
        {
          "name": "D#5",
          "midi": 75,
          "time": 136.84189999999998,
          "velocity": 0.7874015748031497,
          "duration": 0.1260963020833401
        },
        {
          "name": "D#4",
          "midi": 63,
          "time": 136.84189999999998,
          "velocity": 0.7874015748031497,
          "duration": 0.1260963020833401
        },
        {
          "name": "D#5",
          "midi": 75,
          "time": 136.97347875,
          "velocity": 0.7874015748031497,
          "duration": 0.1260963020833401
        },
        {
          "name": "D#4",
          "midi": 63,
          "time": 136.97347875,
          "velocity": 0.7874015748031497,
          "duration": 0.1260963020833401
        },
        {
          "name": "D#5",
          "midi": 75,
          "time": 137.10505750000002,
          "velocity": 0.7874015748031497,
          "duration": 0.1260963020833401
        },
        {
          "name": "D#4",
          "midi": 63,
          "time": 137.10505750000002,
          "velocity": 0.7874015748031497,
          "duration": 0.1260963020833401
        },
        {
          "name": "D#5",
          "midi": 75,
          "time": 137.23663625000003,
          "velocity": 0.7874015748031497,
          "duration": 0.1260963020833401
        },
        {
          "name": "D#4",
          "midi": 63,
          "time": 137.23663625000003,
          "velocity": 0.7874015748031497,
          "duration": 0.1260963020833401
        },
        {
          "name": "D#5",
          "midi": 75,
          "time": 137.36821500000005,
          "velocity": 0.7874015748031497,
          "duration": 0.25767505208335706
        },
        {
          "name": "D#4",
          "midi": 63,
          "time": 137.36821500000005,
          "velocity": 0.7874015748031497,
          "duration": 0.25767505208335706
        },
        {
          "name": "F4",
          "midi": 65,
          "time": 137.63137250000008,
          "velocity": 0.7874015748031497,
          "duration": 0.1260963020833401
        },
        {
          "name": "F5",
          "midi": 77,
          "time": 137.63137250000008,
          "velocity": 0.7874015748031497,
          "duration": 0.1260963020833401
        },
        {
          "name": "F4",
          "midi": 65,
          "time": 137.7629512500001,
          "velocity": 0.7874015748031497,
          "duration": 0.1260963020833401
        },
        {
          "name": "F5",
          "midi": 77,
          "time": 137.7629512500001,
          "velocity": 0.7874015748031497,
          "duration": 0.1260963020833401
        },
        {
          "name": "F4",
          "midi": 65,
          "time": 137.89453000000012,
          "velocity": 0.7874015748031497,
          "duration": 0.25767505208335706
        },
        {
          "name": "F5",
          "midi": 77,
          "time": 137.89453000000012,
          "velocity": 0.7874015748031497,
          "duration": 0.25767505208335706
        },
        {
          "name": "G#4",
          "midi": 68,
          "time": 138.15768750000015,
          "velocity": 0.7874015748031497,
          "duration": 0.1260963020833401
        },
        {
          "name": "G#5",
          "midi": 80,
          "time": 138.15768750000015,
          "velocity": 0.7874015748031497,
          "duration": 0.1260963020833401
        },
        {
          "name": "G#5",
          "midi": 80,
          "time": 138.28926625000017,
          "velocity": 0.7874015748031497,
          "duration": 0.1260963020833401
        },
        {
          "name": "G#4",
          "midi": 68,
          "time": 138.28926625000017,
          "velocity": 0.7874015748031497,
          "duration": 0.1260963020833401
        },
        {
          "name": "G#4",
          "midi": 68,
          "time": 138.42084500000018,
          "velocity": 0.7874015748031497,
          "duration": 0.1260963020833401
        },
        {
          "name": "G#5",
          "midi": 80,
          "time": 138.42084500000018,
          "velocity": 0.7874015748031497,
          "duration": 0.1260963020833401
        },
        {
          "name": "A#4",
          "midi": 70,
          "time": 138.5524237500002,
          "velocity": 0.7874015748031497,
          "duration": 0.1260963020833401
        },
        {
          "name": "A#5",
          "midi": 82,
          "time": 138.5524237500002,
          "velocity": 0.7874015748031497,
          "duration": 0.1260963020833401
        },
        {
          "name": "A#4",
          "midi": 70,
          "time": 138.68400250000022,
          "velocity": 0.7874015748031497,
          "duration": 0.1260963020833401
        },
        {
          "name": "A#5",
          "midi": 82,
          "time": 138.68400250000022,
          "velocity": 0.7874015748031497,
          "duration": 0.1260963020833401
        },
        {
          "name": "A#5",
          "midi": 82,
          "time": 138.81558125000024,
          "velocity": 0.7874015748031497,
          "duration": 0.1260963020833401
        },
        {
          "name": "A#4",
          "midi": 70,
          "time": 138.81558125000024,
          "velocity": 0.7874015748031497,
          "duration": 0.1260963020833401
        },
        {
          "name": "A#5",
          "midi": 82,
          "time": 138.95264244791693,
          "velocity": 0.7874015748031497,
          "duration": 0.5208325520832773
        },
        {
          "name": "A#4",
          "midi": 70,
          "time": 138.95264244791693,
          "velocity": 0.7874015748031497,
          "duration": 0.5208325520832773
        },
        {
          "name": "A#5",
          "midi": 82,
          "time": 139.47895744791688,
          "velocity": 0.7874015748031497,
          "duration": 0.5208325520832773
        },
        {
          "name": "A#4",
          "midi": 70,
          "time": 139.47895744791688,
          "velocity": 0.7874015748031497,
          "duration": 0.5208325520832773
        },
        {
          "name": "A#5",
          "midi": 82,
          "time": 140.00527244791684,
          "velocity": 0.7874015748031497,
          "duration": 0.5208325520832773
        },
        {
          "name": "A#4",
          "midi": 70,
          "time": 140.00527244791684,
          "velocity": 0.7874015748031497,
          "duration": 0.5208325520832773
        },
        {
          "name": "F5",
          "midi": 77,
          "time": 140.7947449479168,
          "velocity": 0.7874015748031497,
          "duration": 0.1260963020833401
        },
        {
          "name": "G5",
          "midi": 79,
          "time": 140.92084125000014,
          "velocity": 0.7874015748031497,
          "duration": 0.1260963020833401
        },
        {
          "name": "C6",
          "midi": 84,
          "time": 141.05242000000015,
          "velocity": 0.7874015748031497,
          "duration": 0.1260963020833401
        },
        {
          "name": "A#5",
          "midi": 82,
          "time": 141.18399875000017,
          "velocity": 0.7874015748031497,
          "duration": 0.1260963020833401
        },
        {
          "name": "C6",
          "midi": 84,
          "time": 141.3155775000002,
          "velocity": 0.7874015748031497,
          "duration": 0.1260963020833401
        },
        {
          "name": "A#5",
          "midi": 82,
          "time": 141.4471562500002,
          "velocity": 0.7874015748031497,
          "duration": 0.1260963020833401
        },
        {
          "name": "C6",
          "midi": 84,
          "time": 141.57873500000022,
          "velocity": 0.7874015748031497,
          "duration": 0.1260963020833401
        },
        {
          "name": "F5",
          "midi": 77,
          "time": 141.71031375000024,
          "velocity": 0.7874015748031497,
          "duration": 0.1260963020833401
        },
        {
          "name": "G5",
          "midi": 79,
          "time": 141.84189250000026,
          "velocity": 0.7874015748031497,
          "duration": 0.1260963020833401
        },
        {
          "name": "C6",
          "midi": 84,
          "time": 141.97347125000027,
          "velocity": 0.7874015748031497,
          "duration": 0.1260963020833401
        },
        {
          "name": "A#5",
          "midi": 82,
          "time": 142.1050500000003,
          "velocity": 0.7874015748031497,
          "duration": 0.1260963020833401
        },
        {
          "name": "G5",
          "midi": 79,
          "time": 142.2366287500003,
          "velocity": 0.7874015748031497,
          "duration": 0.1260963020833401
        },
        {
          "name": "F5",
          "midi": 77,
          "time": 142.373689947917,
          "velocity": 0.7874015748031497,
          "duration": 0.1260963020833401
        },
        {
          "name": "F5",
          "midi": 77,
          "time": 142.49978625000034,
          "velocity": 0.7874015748031497,
          "duration": 0.1260963020833401
        },
        {
          "name": "D#5",
          "midi": 75,
          "time": 142.63136500000036,
          "velocity": 0.7874015748031497,
          "duration": 0.1260963020833401
        },
        {
          "name": "C5",
          "midi": 72,
          "time": 142.76294375000037,
          "velocity": 0.7874015748031497,
          "duration": 0.1260963020833401
        },
        {
          "name": "D#5",
          "midi": 75,
          "time": 142.8945225000004,
          "velocity": 0.7874015748031497,
          "duration": 0.1260963020833401
        },
        {
          "name": "F5",
          "midi": 77,
          "time": 143.0261012500004,
          "velocity": 0.7874015748031497,
          "duration": 0.1260963020833401
        },
        {
          "name": "G5",
          "midi": 79,
          "time": 143.42083750000043,
          "velocity": 0.7874015748031497,
          "duration": 0.7839900520833396
        },
        {
          "name": "C6",
          "midi": 84,
          "time": 145.26294000000044,
          "velocity": 0.7874015748031497,
          "duration": 0.1260963020833401
        },
        {
          "name": "A#5",
          "midi": 82,
          "time": 145.39451875000046,
          "velocity": 0.7874015748031497,
          "duration": 0.1260963020833401
        },
        {
          "name": "C6",
          "midi": 84,
          "time": 145.52609750000047,
          "velocity": 0.7874015748031497,
          "duration": 0.1260963020833401
        },
        {
          "name": "D6",
          "midi": 86,
          "time": 145.6576762500005,
          "velocity": 0.7874015748031497,
          "duration": 0.1260963020833401
        },
        {
          "name": "C6",
          "midi": 84,
          "time": 145.7892550000005,
          "velocity": 0.7874015748031497,
          "duration": 0.1260963020833401
        },
        {
          "name": "G5",
          "midi": 79,
          "time": 145.92083375000053,
          "velocity": 0.7874015748031497,
          "duration": 0.1260963020833401
        },
        {
          "name": "A#5",
          "midi": 82,
          "time": 146.05241250000054,
          "velocity": 0.7874015748031497,
          "duration": 0.1260963020833401
        },
        {
          "name": "C6",
          "midi": 84,
          "time": 146.18399125000056,
          "velocity": 0.7874015748031497,
          "duration": 0.1260963020833401
        },
        {
          "name": "D6",
          "midi": 86,
          "time": 146.31557000000058,
          "velocity": 0.7874015748031497,
          "duration": 0.1260963020833401
        },
        {
          "name": "C6",
          "midi": 84,
          "time": 146.4471487500006,
          "velocity": 0.7874015748031497,
          "duration": 0.1260963020833401
        },
        {
          "name": "G5",
          "midi": 79,
          "time": 146.5787275000006,
          "velocity": 0.7874015748031497,
          "duration": 0.1260963020833401
        },
        {
          "name": "A#5",
          "midi": 82,
          "time": 146.71030625000063,
          "velocity": 0.7874015748031497,
          "duration": 0.1260963020833401
        },
        {
          "name": "C6",
          "midi": 84,
          "time": 146.84188500000064,
          "velocity": 0.7874015748031497,
          "duration": 0.1260963020833401
        },
        {
          "name": "D6",
          "midi": 86,
          "time": 146.97346375000066,
          "velocity": 0.7874015748031497,
          "duration": 0.1260963020833401
        },
        {
          "name": "C6",
          "midi": 84,
          "time": 147.10504250000068,
          "velocity": 0.7874015748031497,
          "duration": 0.1260963020833401
        },
        {
          "name": "G5",
          "midi": 79,
          "time": 147.2366212500007,
          "velocity": 0.7874015748031497,
          "duration": 0.1260963020833401
        },
        {
          "name": "A#5",
          "midi": 82,
          "time": 147.37368244791736,
          "velocity": 0.7874015748031497,
          "duration": 0.25767505208332864
        },
        {
          "name": "C6",
          "midi": 84,
          "time": 147.6313575000007,
          "velocity": 0.7874015748031497,
          "duration": 0.1260963020833401
        },
        {
          "name": "A#5",
          "midi": 82,
          "time": 147.7629362500007,
          "velocity": 0.7874015748031497,
          "duration": 0.1260963020833401
        },
        {
          "name": "C6",
          "midi": 84,
          "time": 147.89451500000072,
          "velocity": 0.7874015748031497,
          "duration": 0.1260963020833401
        },
        {
          "name": "F5",
          "midi": 77,
          "time": 148.03157619791742,
          "velocity": 0.7874015748031497,
          "duration": 0.1260963020833401
        },
        {
          "name": "G5",
          "midi": 79,
          "time": 148.15767250000076,
          "velocity": 0.7874015748031497,
          "duration": 0.1260963020833401
        },
        {
          "name": "C6",
          "midi": 84,
          "time": 148.28925125000077,
          "velocity": 0.7874015748031497,
          "duration": 0.1260963020833401
        },
        {
          "name": "A#5",
          "midi": 82,
          "time": 148.4208300000008,
          "velocity": 0.7874015748031497,
          "duration": 0.1260963020833401
        },
        {
          "name": "G5",
          "midi": 79,
          "time": 148.5524087500008,
          "velocity": 0.7874015748031497,
          "duration": 0.1260963020833401
        },
        {
          "name": "F5",
          "midi": 77,
          "time": 148.6894699479175,
          "velocity": 0.7874015748031497,
          "duration": 0.1260963020833401
        },
        {
          "name": "F5",
          "midi": 77,
          "time": 148.81556625000084,
          "velocity": 0.7874015748031497,
          "duration": 0.1260963020833401
        },
        {
          "name": "D#5",
          "midi": 75,
          "time": 148.94714500000086,
          "velocity": 0.7874015748031497,
          "duration": 0.25767505208332864
        },
        {
          "name": "B5",
          "midi": 83,
          "time": 149.73661750000085,
          "velocity": 0.7874015748031497,
          "duration": 0.25767505208335706
        },
        {
          "name": "C6",
          "midi": 84,
          "time": 150.2629325000009,
          "velocity": 0.7874015748031497,
          "duration": 0.32894687500001396
        },
        {
          "name": "D6",
          "midi": 86,
          "time": 151.9734562500009,
          "velocity": 0.7874015748031497,
          "duration": 0.32894687500001396
        }
      ],
      "controlChanges": {
        "7": [
          {
            "number": 7,
            "time": 136.84189999999998,
            "value": 0.7086614173228346
          },
          {
            "number": 7,
            "time": 137.10505750000002,
            "value": 0
          },
          {
            "number": 7,
            "time": 137.36821500000005,
            "value": 0.7086614173228346
          },
          {
            "number": 7,
            "time": 137.63137250000008,
            "value": 0
          },
          {
            "number": 7,
            "time": 137.89453000000012,
            "value": 0.7086614173228346
          },
          {
            "number": 7,
            "time": 138.15768750000015,
            "value": 0
          },
          {
            "number": 7,
            "time": 138.4153625520835,
            "value": 0.7086614173228346
          },
          {
            "number": 7,
            "time": 138.68400250000022,
            "value": 0
          },
          {
            "number": 7,
            "time": 138.94716000000025,
            "value": 0.5511811023622047
          },
          {
            "number": 7,
            "time": 139.4734750000002,
            "value": 0.31496062992125984
          },
          {
            "number": 7,
            "time": 139.99979000000016,
            "value": 0.05511811023622047
          },
          {
            "number": 7,
            "time": 140.78926250000012,
            "value": 0.7086614173228346
          },
          {
            "number": 7,
            "time": 141.05242000000015,
            "value": 0
          },
          {
            "number": 7,
            "time": 141.3155775000002,
            "value": 0.7086614173228346
          },
          {
            "number": 7,
            "time": 141.57873500000022,
            "value": 0
          },
          {
            "number": 7,
            "time": 141.84189250000026,
            "value": 0.7086614173228346
          },
          {
            "number": 7,
            "time": 142.1050500000003,
            "value": 0
          },
          {
            "number": 7,
            "time": 142.36820750000032,
            "value": 0.7086614173228346
          },
          {
            "number": 7,
            "time": 142.76294375000037,
            "value": 0
          },
          {
            "number": 7,
            "time": 143.0261012500004,
            "value": 0.7086614173228346
          },
          {
            "number": 7,
            "time": 143.15768000000043,
            "value": 0
          },
          {
            "number": 7,
            "time": 143.42083750000043,
            "value": 0.7086614173228346
          },
          {
            "number": 7,
            "time": 143.68399500000044,
            "value": 0
          },
          {
            "number": 7,
            "time": 145.26294000000044,
            "value": 0
          },
          {
            "number": 7,
            "time": 145.52609750000047,
            "value": 0.7086614173228346
          },
          {
            "number": 7,
            "time": 145.7892550000005,
            "value": 0
          },
          {
            "number": 7,
            "time": 146.05241250000054,
            "value": 0.7086614173228346
          },
          {
            "number": 7,
            "time": 146.31557000000058,
            "value": 0
          },
          {
            "number": 7,
            "time": 146.5787275000006,
            "value": 0.7086614173228346
          },
          {
            "number": 7,
            "time": 146.97346375000066,
            "value": 0
          },
          {
            "number": 7,
            "time": 147.2366212500007,
            "value": 0.7086614173228346
          },
          {
            "number": 7,
            "time": 147.7629362500007,
            "value": 0
          },
          {
            "number": 7,
            "time": 147.89451500000072,
            "value": 0.7086614173228346
          },
          {
            "number": 7,
            "time": 148.02609375000074,
            "value": 0
          },
          {
            "number": 7,
            "time": 148.4208300000008,
            "value": 0.7086614173228346
          },
          {
            "number": 7,
            "time": 148.68398750000082,
            "value": 0
          },
          {
            "number": 7,
            "time": 148.94714500000086,
            "value": 0.7086614173228346
          }
        ]
      },
      "id": 6,
      "name": "Enjoy, Fade to ",
      "instrumentNumber": 73,
      "instrument": "flute",
      "instrumentFamily": "pipe",
      "channelNumber": 5,
      "isPercussion": false
    },
    {
      "startTime": 136.84189999999998,
      "duration": 152.43398187500102,
      "length": 85,
      "notes": [
        {
          "name": "D#4",
          "midi": 63,
          "time": 136.84189999999998,
          "velocity": 0.7874015748031497,
          "duration": 0.1260963020833401
        },
        {
          "name": "D#5",
          "midi": 75,
          "time": 136.84189999999998,
          "velocity": 0.7874015748031497,
          "duration": 0.1260963020833401
        },
        {
          "name": "D#5",
          "midi": 75,
          "time": 136.97347875,
          "velocity": 0.7874015748031497,
          "duration": 0.1260963020833401
        },
        {
          "name": "D#4",
          "midi": 63,
          "time": 136.97347875,
          "velocity": 0.7874015748031497,
          "duration": 0.1260963020833401
        },
        {
          "name": "D#4",
          "midi": 63,
          "time": 137.10505750000002,
          "velocity": 0.7874015748031497,
          "duration": 0.1260963020833401
        },
        {
          "name": "D#5",
          "midi": 75,
          "time": 137.10505750000002,
          "velocity": 0.7874015748031497,
          "duration": 0.1260963020833401
        },
        {
          "name": "D#4",
          "midi": 63,
          "time": 137.23663625000003,
          "velocity": 0.7874015748031497,
          "duration": 0.1260963020833401
        },
        {
          "name": "D#5",
          "midi": 75,
          "time": 137.23663625000003,
          "velocity": 0.7874015748031497,
          "duration": 0.1260963020833401
        },
        {
          "name": "F5",
          "midi": 77,
          "time": 137.36821500000005,
          "velocity": 0.7874015748031497,
          "duration": 0.25767505208332864
        },
        {
          "name": "F4",
          "midi": 65,
          "time": 137.36821500000005,
          "velocity": 0.7874015748031497,
          "duration": 0.25767505208332864
        },
        {
          "name": "F4",
          "midi": 65,
          "time": 137.63137250000005,
          "velocity": 0.7874015748031497,
          "duration": 0.1260963020833401
        },
        {
          "name": "F5",
          "midi": 77,
          "time": 137.63137250000005,
          "velocity": 0.7874015748031497,
          "duration": 0.1260963020833401
        },
        {
          "name": "F4",
          "midi": 65,
          "time": 137.76295125000007,
          "velocity": 0.7874015748031497,
          "duration": 0.1260963020833401
        },
        {
          "name": "F5",
          "midi": 77,
          "time": 137.76295125000007,
          "velocity": 0.7874015748031497,
          "duration": 0.1260963020833401
        },
        {
          "name": "G5",
          "midi": 79,
          "time": 137.8945300000001,
          "velocity": 0.7874015748031497,
          "duration": 0.25767505208332864
        },
        {
          "name": "G4",
          "midi": 67,
          "time": 137.8945300000001,
          "velocity": 0.7874015748031497,
          "duration": 0.25767505208332864
        },
        {
          "name": "G4",
          "midi": 67,
          "time": 138.1576875000001,
          "velocity": 0.7874015748031497,
          "duration": 0.1260963020833401
        },
        {
          "name": "G5",
          "midi": 79,
          "time": 138.1576875000001,
          "velocity": 0.7874015748031497,
          "duration": 0.1260963020833401
        },
        {
          "name": "G4",
          "midi": 67,
          "time": 138.2892662500001,
          "velocity": 0.7874015748031497,
          "duration": 0.1260963020833401
        },
        {
          "name": "G5",
          "midi": 79,
          "time": 138.2892662500001,
          "velocity": 0.7874015748031497,
          "duration": 0.1260963020833401
        },
        {
          "name": "A#4",
          "midi": 70,
          "time": 138.42084500000013,
          "velocity": 0.7874015748031497,
          "duration": 0.25767505208332864
        },
        {
          "name": "A#5",
          "midi": 82,
          "time": 138.42084500000013,
          "velocity": 0.7874015748031497,
          "duration": 0.25767505208332864
        },
        {
          "name": "A#4",
          "midi": 70,
          "time": 138.68400250000013,
          "velocity": 0.7874015748031497,
          "duration": 0.1260963020833401
        },
        {
          "name": "A#5",
          "midi": 82,
          "time": 138.68400250000013,
          "velocity": 0.7874015748031497,
          "duration": 0.1260963020833401
        },
        {
          "name": "A#4",
          "midi": 70,
          "time": 138.81558125000015,
          "velocity": 0.7874015748031497,
          "duration": 0.1260963020833401
        },
        {
          "name": "A#5",
          "midi": 82,
          "time": 138.81558125000015,
          "velocity": 0.7874015748031497,
          "duration": 0.1260963020833401
        },
        {
          "name": "A#5",
          "midi": 82,
          "time": 138.95264244791684,
          "velocity": 0.7874015748031497,
          "duration": 0.5208325520832773
        },
        {
          "name": "A#4",
          "midi": 70,
          "time": 138.95264244791684,
          "velocity": 0.7874015748031497,
          "duration": 0.5208325520832773
        },
        {
          "name": "A#5",
          "midi": 82,
          "time": 139.4789574479168,
          "velocity": 0.7874015748031497,
          "duration": 0.5208325520832773
        },
        {
          "name": "A#4",
          "midi": 70,
          "time": 139.4789574479168,
          "velocity": 0.7874015748031497,
          "duration": 0.5208325520832773
        },
        {
          "name": "A#5",
          "midi": 82,
          "time": 140.00527244791675,
          "velocity": 0.7874015748031497,
          "duration": 0.5208325520832773
        },
        {
          "name": "A#4",
          "midi": 70,
          "time": 140.00527244791675,
          "velocity": 0.7874015748031497,
          "duration": 0.5208325520832773
        },
        {
          "name": "F5",
          "midi": 77,
          "time": 140.7947449479167,
          "velocity": 0.7874015748031497,
          "duration": 0.1260963020833401
        },
        {
          "name": "G5",
          "midi": 79,
          "time": 140.92084125000005,
          "velocity": 0.7874015748031497,
          "duration": 0.1260963020833401
        },
        {
          "name": "C6",
          "midi": 84,
          "time": 141.05242000000007,
          "velocity": 0.7874015748031497,
          "duration": 0.1260963020833401
        },
        {
          "name": "A#5",
          "midi": 82,
          "time": 141.1839987500001,
          "velocity": 0.7874015748031497,
          "duration": 0.1260963020833401
        },
        {
          "name": "C6",
          "midi": 84,
          "time": 141.3155775000001,
          "velocity": 0.7874015748031497,
          "duration": 0.1260963020833401
        },
        {
          "name": "A#5",
          "midi": 82,
          "time": 141.44715625000012,
          "velocity": 0.7874015748031497,
          "duration": 0.1260963020833401
        },
        {
          "name": "C6",
          "midi": 84,
          "time": 141.57873500000014,
          "velocity": 0.7874015748031497,
          "duration": 0.1260963020833401
        },
        {
          "name": "F5",
          "midi": 77,
          "time": 141.71031375000015,
          "velocity": 0.7874015748031497,
          "duration": 0.1260963020833401
        },
        {
          "name": "G5",
          "midi": 79,
          "time": 141.84189250000017,
          "velocity": 0.7874015748031497,
          "duration": 0.1260963020833401
        },
        {
          "name": "C6",
          "midi": 84,
          "time": 141.9734712500002,
          "velocity": 0.7874015748031497,
          "duration": 0.1260963020833401
        },
        {
          "name": "A#5",
          "midi": 82,
          "time": 142.1050500000002,
          "velocity": 0.7874015748031497,
          "duration": 0.1260963020833401
        },
        {
          "name": "G5",
          "midi": 79,
          "time": 142.23662875000022,
          "velocity": 0.7874015748031497,
          "duration": 0.1260963020833401
        },
        {
          "name": "F5",
          "midi": 77,
          "time": 142.37368994791692,
          "velocity": 0.7874015748031497,
          "duration": 0.1260963020833401
        },
        {
          "name": "F5",
          "midi": 77,
          "time": 142.49978625000026,
          "velocity": 0.7874015748031497,
          "duration": 0.1260963020833401
        },
        {
          "name": "D#5",
          "midi": 75,
          "time": 142.63136500000027,
          "velocity": 0.7874015748031497,
          "duration": 0.1260963020833401
        },
        {
          "name": "C5",
          "midi": 72,
          "time": 142.7629437500003,
          "velocity": 0.7874015748031497,
          "duration": 0.1260963020833401
        },
        {
          "name": "D#5",
          "midi": 75,
          "time": 142.8945225000003,
          "velocity": 0.7874015748031497,
          "duration": 0.1260963020833401
        },
        {
          "name": "F5",
          "midi": 77,
          "time": 143.02610125000032,
          "velocity": 0.7874015748031497,
          "duration": 0.1260963020833401
        },
        {
          "name": "F#5",
          "midi": 78,
          "time": 143.15768000000034,
          "velocity": 0.7874015748031497,
          "duration": 0.25767505208335706
        },
        {
          "name": "F#5",
          "midi": 78,
          "time": 143.68399500000035,
          "velocity": 0.7874015748031497,
          "duration": 0.520832552083391
        },
        {
          "name": "A#5",
          "midi": 82,
          "time": 144.73662500000046,
          "velocity": 0.7874015748031497,
          "duration": 0.5208325520833625
        },
        {
          "name": "C6",
          "midi": 84,
          "time": 145.2629400000005,
          "velocity": 0.7874015748031497,
          "duration": 0.1260963020833401
        },
        {
          "name": "A#5",
          "midi": 82,
          "time": 145.39451875000051,
          "velocity": 0.7874015748031497,
          "duration": 0.1260963020833401
        },
        {
          "name": "C6",
          "midi": 84,
          "time": 145.52609750000053,
          "velocity": 0.7874015748031497,
          "duration": 0.1260963020833401
        },
        {
          "name": "D6",
          "midi": 86,
          "time": 145.65767625000055,
          "velocity": 0.7874015748031497,
          "duration": 0.1260963020833401
        },
        {
          "name": "C6",
          "midi": 84,
          "time": 145.78925500000057,
          "velocity": 0.7874015748031497,
          "duration": 0.1260963020833401
        },
        {
          "name": "G5",
          "midi": 79,
          "time": 145.92083375000058,
          "velocity": 0.7874015748031497,
          "duration": 0.1260963020833401
        },
        {
          "name": "A#5",
          "midi": 82,
          "time": 146.0524125000006,
          "velocity": 0.7874015748031497,
          "duration": 0.1260963020833401
        },
        {
          "name": "C6",
          "midi": 84,
          "time": 146.18399125000062,
          "velocity": 0.7874015748031497,
          "duration": 0.1260963020833401
        },
        {
          "name": "D6",
          "midi": 86,
          "time": 146.31557000000063,
          "velocity": 0.7874015748031497,
          "duration": 0.1260963020833401
        },
        {
          "name": "C6",
          "midi": 84,
          "time": 146.44714875000065,
          "velocity": 0.7874015748031497,
          "duration": 0.1260963020833401
        },
        {
          "name": "G5",
          "midi": 79,
          "time": 146.57872750000067,
          "velocity": 0.7874015748031497,
          "duration": 0.1260963020833401
        },
        {
          "name": "A#5",
          "midi": 82,
          "time": 146.71030625000068,
          "velocity": 0.7874015748031497,
          "duration": 0.1260963020833401
        },
        {
          "name": "C6",
          "midi": 84,
          "time": 146.8418850000007,
          "velocity": 0.7874015748031497,
          "duration": 0.1260963020833401
        },
        {
          "name": "D6",
          "midi": 86,
          "time": 146.97346375000072,
          "velocity": 0.7874015748031497,
          "duration": 0.1260963020833401
        },
        {
          "name": "C6",
          "midi": 84,
          "time": 147.10504250000074,
          "velocity": 0.7874015748031497,
          "duration": 0.1260963020833401
        },
        {
          "name": "G5",
          "midi": 79,
          "time": 147.23662125000075,
          "velocity": 0.7874015748031497,
          "duration": 0.1260963020833401
        },
        {
          "name": "A#5",
          "midi": 82,
          "time": 147.36820000000077,
          "velocity": 0.7874015748031497,
          "duration": 0.25767505208335706
        },
        {
          "name": "C6",
          "midi": 84,
          "time": 147.6313575000008,
          "velocity": 0.7874015748031497,
          "duration": 0.1260963020833401
        },
        {
          "name": "A#5",
          "midi": 82,
          "time": 147.76293625000082,
          "velocity": 0.7874015748031497,
          "duration": 0.1260963020833401
        },
        {
          "name": "C6",
          "midi": 84,
          "time": 147.89451500000084,
          "velocity": 0.7874015748031497,
          "duration": 0.1260963020833401
        },
        {
          "name": "F5",
          "midi": 77,
          "time": 148.02609375000085,
          "velocity": 0.7874015748031497,
          "duration": 0.12609630208336853
        },
        {
          "name": "G5",
          "midi": 79,
          "time": 148.1576725000009,
          "velocity": 0.7874015748031497,
          "duration": 0.1260963020833401
        },
        {
          "name": "C6",
          "midi": 84,
          "time": 148.28925125000092,
          "velocity": 0.7874015748031497,
          "duration": 0.1260963020833401
        },
        {
          "name": "A#5",
          "midi": 82,
          "time": 148.42083000000093,
          "velocity": 0.7874015748031497,
          "duration": 0.1260963020833401
        },
        {
          "name": "G5",
          "midi": 79,
          "time": 148.55240875000095,
          "velocity": 0.7874015748031497,
          "duration": 0.1260963020833401
        },
        {
          "name": "F5",
          "midi": 77,
          "time": 148.68398750000097,
          "velocity": 0.7874015748031497,
          "duration": 0.12609630208331168
        },
        {
          "name": "F5",
          "midi": 77,
          "time": 148.81556625000096,
          "velocity": 0.7874015748031497,
          "duration": 0.1260963020833401
        },
        {
          "name": "D#5",
          "midi": 75,
          "time": 148.94714500000097,
          "velocity": 0.7874015748031497,
          "duration": 0.25767505208332864
        },
        {
          "name": "C6",
          "midi": 84,
          "time": 149.99977500000097,
          "velocity": 0.7874015748031497,
          "duration": 0.32894687500001396
        },
        {
          "name": "C6",
          "midi": 84,
          "time": 150.52609000000098,
          "velocity": 0.7874015748031497,
          "duration": 1.047147552083345
        },
        {
          "name": "C#6",
          "midi": 85,
          "time": 151.578720000001,
          "velocity": 0.7874015748031497,
          "duration": 0.32894687500001396
        },
        {
          "name": "C#6",
          "midi": 85,
          "time": 152.105035000001,
          "velocity": 0.7874015748031497,
          "duration": 0.32894687500001396
        }
      ],
      "controlChanges": {
        "7": [
          {
            "number": 7,
            "time": 136.84189999999998,
            "value": 0.23622047244094488
          },
          {
            "number": 7,
            "time": 137.10505750000002,
            "value": 0.5511811023622047
          },
          {
            "number": 7,
            "time": 137.36821500000005,
            "value": 0.23622047244094488
          },
          {
            "number": 7,
            "time": 137.63137250000005,
            "value": 0.5511811023622047
          },
          {
            "number": 7,
            "time": 137.8945300000001,
            "value": 0.23622047244094488
          },
          {
            "number": 7,
            "time": 138.1576875000001,
            "value": 0.5511811023622047
          },
          {
            "number": 7,
            "time": 138.42084500000013,
            "value": 0.23622047244094488
          },
          {
            "number": 7,
            "time": 138.68400250000013,
            "value": 0.5511811023622047
          },
          {
            "number": 7,
            "time": 138.94716000000017,
            "value": 0.5511811023622047
          },
          {
            "number": 7,
            "time": 139.47347500000012,
            "value": 0.31496062992125984
          },
          {
            "number": 7,
            "time": 139.99979000000008,
            "value": 0.05511811023622047
          },
          {
            "number": 7,
            "time": 140.78926250000004,
            "value": 0.7086614173228346
          },
          {
            "number": 7,
            "time": 141.05242000000007,
            "value": 0.5511811023622047
          },
          {
            "number": 7,
            "time": 141.3155775000001,
            "value": 0.23622047244094488
          },
          {
            "number": 7,
            "time": 141.57873500000014,
            "value": 0.5511811023622047
          },
          {
            "number": 7,
            "time": 141.84189250000017,
            "value": 0.23622047244094488
          },
          {
            "number": 7,
            "time": 142.1050500000002,
            "value": 0.5511811023622047
          },
          {
            "number": 7,
            "time": 142.36820750000024,
            "value": 0.23622047244094488
          },
          {
            "number": 7,
            "time": 142.7629437500003,
            "value": 0.5511811023622047
          },
          {
            "number": 7,
            "time": 143.02610125000032,
            "value": 0.23622047244094488
          },
          {
            "number": 7,
            "time": 143.15768000000034,
            "value": 0.5511811023622047
          },
          {
            "number": 7,
            "time": 145.2629400000005,
            "value": 0.5511811023622047
          },
          {
            "number": 7,
            "time": 145.52609750000053,
            "value": 0.23622047244094488
          },
          {
            "number": 7,
            "time": 145.78925500000057,
            "value": 0.5511811023622047
          },
          {
            "number": 7,
            "time": 146.0524125000006,
            "value": 0.23622047244094488
          },
          {
            "number": 7,
            "time": 146.31557000000063,
            "value": 0.5511811023622047
          },
          {
            "number": 7,
            "time": 146.57872750000067,
            "value": 0.23622047244094488
          },
          {
            "number": 7,
            "time": 146.97346375000072,
            "value": 0.5511811023622047
          },
          {
            "number": 7,
            "time": 147.23662125000075,
            "value": 0.23622047244094488
          },
          {
            "number": 7,
            "time": 147.36820000000077,
            "value": 0.5511811023622047
          },
          {
            "number": 7,
            "time": 147.6313575000008,
            "value": 0.23622047244094488
          },
          {
            "number": 7,
            "time": 147.76293625000082,
            "value": 0.5511811023622047
          },
          {
            "number": 7,
            "time": 147.89451500000084,
            "value": 0.23622047244094488
          },
          {
            "number": 7,
            "time": 148.02609375000085,
            "value": 0.5511811023622047
          },
          {
            "number": 7,
            "time": 148.42083000000093,
            "value": 0.23622047244094488
          },
          {
            "number": 7,
            "time": 148.68398750000097,
            "value": 0.5511811023622047
          },
          {
            "number": 7,
            "time": 148.94714500000097,
            "value": 0.23622047244094488
          },
          {
            "number": 7,
            "time": 151.97345625000102,
            "value": 0.11811023622047244
          }
        ]
      },
      "id": 7,
      "name": "Black is next!",
      "instrumentNumber": 52,
      "instrument": "choir aahs",
      "instrumentFamily": "ensemble",
      "channelNumber": 6,
      "isPercussion": false
    },
    {
      "startTime": 0,
      "duration": 0,
      "length": 0,
      "notes": [],
      "controlChanges": {},
      "id": 8
    },
    {
      "startTime": 0,
      "duration": 0,
      "length": 0,
      "notes": [],
      "controlChanges": {},
      "id": 9
    },
    {
      "startTime": 0,
      "duration": 0,
      "length": 0,
      "notes": [],
      "controlChanges": {},
      "id": 10
    },
    {
      "startTime": 0,
      "duration": 0,
      "length": 0,
      "notes": [],
      "controlChanges": {},
      "id": 11
    }
  ]
}
