{
  "header": {
    "PPQ": 480,
    "timeSignature": [
      4,
      4
    ],
    "bpm": 69.00001725000432,
    "name": "Debaser"
  },
  "startTime": 0,
  "duration": 166.95647999999915,
  "tracks": [
    {
      "startTime": 0,
      "duration": 0,
      "length": 0,
      "notes": [],
      "controlChanges": {},
      "id": 0,
      "name": "Debaser"
    },
    {
      "startTime": 0.010869562499999999,
      "duration": 165.21734999999944,
      "length": 725,
      "notes": [
        {
          "name": "A#1",
          "midi": 34,
          "time": 0.010869562499999999,
          "velocity": 0.7480314960629921,
          "duration": 0.2065216875
        },
        {
          "name": "A#1",
          "midi": 34,
          "time": 0.21739124999999998,
          "velocity": 0.7480314960629921,
          "duration": 0.21739124999999998
        },
        {
          "name": "A#1",
          "midi": 34,
          "time": 0.43478249999999996,
          "velocity": 0.7480314960629921,
          "duration": 0.21739125000000004
        },
        {
          "name": "A#1",
          "midi": 34,
          "time": 0.65217375,
          "velocity": 0.7480314960629921,
          "duration": 0.21739124999999992
        },
        {
          "name": "F1",
          "midi": 29,
          "time": 0.8695649999999999,
          "velocity": 0.7480314960629921,
          "duration": 0.21739124999999992
        },
        {
          "name": "F1",
          "midi": 29,
          "time": 1.0869562499999998,
          "velocity": 0.7480314960629921,
          "duration": 0.21739124999999992
        },
        {
          "name": "F1",
          "midi": 29,
          "time": 1.3043474999999998,
          "velocity": 0.7480314960629921,
          "duration": 0.21739124999999992
        },
        {
          "name": "F1",
          "midi": 29,
          "time": 1.5217387499999997,
          "velocity": 0.7480314960629921,
          "duration": 0.21739124999999992
        },
        {
          "name": "C2",
          "midi": 36,
          "time": 1.7391299999999996,
          "velocity": 0.7480314960629921,
          "duration": 0.21739124999999992
        },
        {
          "name": "C2",
          "midi": 36,
          "time": 1.9565212499999995,
          "velocity": 0.7480314960629921,
          "duration": 0.21739125000000015
        },
        {
          "name": "C2",
          "midi": 36,
          "time": 2.1739124999999997,
          "velocity": 0.7480314960629921,
          "duration": 0.21739124999999992
        },
        {
          "name": "C2",
          "midi": 36,
          "time": 2.3913037499999996,
          "velocity": 0.7480314960629921,
          "duration": 0.21739124999999992
        },
        {
          "name": "F1",
          "midi": 29,
          "time": 2.6086949999999995,
          "velocity": 0.7480314960629921,
          "duration": 0.21739124999999992
        },
        {
          "name": "F1",
          "midi": 29,
          "time": 2.8260862499999995,
          "velocity": 0.7480314960629921,
          "duration": 0.21739124999999992
        },
        {
          "name": "F1",
          "midi": 29,
          "time": 3.0434774999999994,
          "velocity": 0.7480314960629921,
          "duration": 0.21739124999999992
        },
        {
          "name": "F1",
          "midi": 29,
          "time": 3.2608687499999993,
          "velocity": 0.7480314960629921,
          "duration": 0.21739124999999992
        },
        {
          "name": "D2",
          "midi": 38,
          "time": 3.4782599999999992,
          "velocity": 0.7480314960629921,
          "duration": 0.21739124999999992
        },
        {
          "name": "D2",
          "midi": 38,
          "time": 3.695651249999999,
          "velocity": 0.7480314960629921,
          "duration": 0.21739124999999992
        },
        {
          "name": "D2",
          "midi": 38,
          "time": 3.913042499999999,
          "velocity": 0.7480314960629921,
          "duration": 0.21739124999999992
        },
        {
          "name": "D2",
          "midi": 38,
          "time": 4.130433749999999,
          "velocity": 0.7480314960629921,
          "duration": 0.21739125000000037
        },
        {
          "name": "A1",
          "midi": 33,
          "time": 4.347824999999999,
          "velocity": 0.7480314960629921,
          "duration": 0.21739125000000037
        },
        {
          "name": "A1",
          "midi": 33,
          "time": 4.56521625,
          "velocity": 0.7480314960629921,
          "duration": 0.21739125000000037
        },
        {
          "name": "A1",
          "midi": 33,
          "time": 4.7826075,
          "velocity": 0.7480314960629921,
          "duration": 0.21739125000000037
        },
        {
          "name": "A1",
          "midi": 33,
          "time": 4.9999987500000005,
          "velocity": 0.7480314960629921,
          "duration": 0.21739125000000037
        },
        {
          "name": "A#1",
          "midi": 34,
          "time": 5.217390000000001,
          "velocity": 0.7480314960629921,
          "duration": 0.21739125000000037
        },
        {
          "name": "A#1",
          "midi": 34,
          "time": 5.434781250000001,
          "velocity": 0.7480314960629921,
          "duration": 0.21739125000000037
        },
        {
          "name": "A#1",
          "midi": 34,
          "time": 5.652172500000002,
          "velocity": 0.7480314960629921,
          "duration": 0.21739125000000037
        },
        {
          "name": "A#1",
          "midi": 34,
          "time": 5.869563750000002,
          "velocity": 0.7480314960629921,
          "duration": 0.21739125000000037
        },
        {
          "name": "C2",
          "midi": 36,
          "time": 6.086955000000002,
          "velocity": 0.7480314960629921,
          "duration": 0.21739125000000037
        },
        {
          "name": "C2",
          "midi": 36,
          "time": 6.304346250000003,
          "velocity": 0.7480314960629921,
          "duration": 0.21739125000000037
        },
        {
          "name": "C2",
          "midi": 36,
          "time": 6.521737500000003,
          "velocity": 0.7480314960629921,
          "duration": 0.21739125000000037
        },
        {
          "name": "C2",
          "midi": 36,
          "time": 6.739128750000003,
          "velocity": 0.7480314960629921,
          "duration": 0.21739125000000037
        },
        {
          "name": "F1",
          "midi": 29,
          "time": 6.956520000000004,
          "velocity": 0.7480314960629921,
          "duration": 0.21739125000000037
        },
        {
          "name": "F1",
          "midi": 29,
          "time": 7.173911250000004,
          "velocity": 0.7480314960629921,
          "duration": 0.21739125000000037
        },
        {
          "name": "F1",
          "midi": 29,
          "time": 7.3913025000000045,
          "velocity": 0.7480314960629921,
          "duration": 0.21739125000000037
        },
        {
          "name": "F1",
          "midi": 29,
          "time": 7.608693750000005,
          "velocity": 0.7480314960629921,
          "duration": 0.21739125000000037
        },
        {
          "name": "A1",
          "midi": 33,
          "time": 7.826085000000005,
          "velocity": 0.7480314960629921,
          "duration": 0.21739124999999948
        },
        {
          "name": "A1",
          "midi": 33,
          "time": 8.043476250000005,
          "velocity": 0.7480314960629921,
          "duration": 0.21739125000000037
        },
        {
          "name": "A1",
          "midi": 33,
          "time": 8.260867500000005,
          "velocity": 0.7480314960629921,
          "duration": 0.21739125000000037
        },
        {
          "name": "A1",
          "midi": 33,
          "time": 8.478258750000006,
          "velocity": 0.7480314960629921,
          "duration": 0.21739125000000037
        },
        {
          "name": "C2",
          "midi": 36,
          "time": 8.695650000000006,
          "velocity": 0.7480314960629921,
          "duration": 0.21739125000000037
        },
        {
          "name": "C2",
          "midi": 36,
          "time": 8.913041250000006,
          "velocity": 0.7480314960629921,
          "duration": 0.21739125000000037
        },
        {
          "name": "C2",
          "midi": 36,
          "time": 9.130432500000007,
          "velocity": 0.7480314960629921,
          "duration": 0.21739125000000037
        },
        {
          "name": "C2",
          "midi": 36,
          "time": 9.347823750000007,
          "velocity": 0.7480314960629921,
          "duration": 0.21739125000000037
        },
        {
          "name": "D2",
          "midi": 38,
          "time": 9.565215000000007,
          "velocity": 0.7480314960629921,
          "duration": 0.21739125000000037
        },
        {
          "name": "D2",
          "midi": 38,
          "time": 9.782606250000008,
          "velocity": 0.7480314960629921,
          "duration": 0.21739125000000037
        },
        {
          "name": "D2",
          "midi": 38,
          "time": 9.999997500000008,
          "velocity": 0.7480314960629921,
          "duration": 0.21739125000000037
        },
        {
          "name": "D2",
          "midi": 38,
          "time": 10.217388750000008,
          "velocity": 0.7480314960629921,
          "duration": 0.21739125000000037
        },
        {
          "name": "A#1",
          "midi": 34,
          "time": 10.434780000000009,
          "velocity": 0.7480314960629921,
          "duration": 0.21739125000000037
        },
        {
          "name": "A#1",
          "midi": 34,
          "time": 10.65217125000001,
          "velocity": 0.7480314960629921,
          "duration": 0.21739125000000037
        },
        {
          "name": "A#1",
          "midi": 34,
          "time": 10.86956250000001,
          "velocity": 0.7480314960629921,
          "duration": 0.21739125000000037
        },
        {
          "name": "A#1",
          "midi": 34,
          "time": 11.08695375000001,
          "velocity": 0.7480314960629921,
          "duration": 0.21739125000000037
        },
        {
          "name": "C2",
          "midi": 36,
          "time": 11.30434500000001,
          "velocity": 0.7480314960629921,
          "duration": 0.21739125000000037
        },
        {
          "name": "C2",
          "midi": 36,
          "time": 11.52173625000001,
          "velocity": 0.7480314960629921,
          "duration": 0.21739125000000037
        },
        {
          "name": "C2",
          "midi": 36,
          "time": 11.739127500000011,
          "velocity": 0.7480314960629921,
          "duration": 0.21739125000000037
        },
        {
          "name": "C2",
          "midi": 36,
          "time": 11.956518750000011,
          "velocity": 0.7480314960629921,
          "duration": 0.21739125000000037
        },
        {
          "name": "G1",
          "midi": 31,
          "time": 12.173910000000012,
          "velocity": 0.7480314960629921,
          "duration": 0.21739125000000037
        },
        {
          "name": "G1",
          "midi": 31,
          "time": 12.391301250000012,
          "velocity": 0.7480314960629921,
          "duration": 0.21739125000000037
        },
        {
          "name": "G1",
          "midi": 31,
          "time": 12.608692500000013,
          "velocity": 0.7480314960629921,
          "duration": 0.21739125000000037
        },
        {
          "name": "G1",
          "midi": 31,
          "time": 12.826083750000013,
          "velocity": 0.7480314960629921,
          "duration": 0.21739125000000037
        },
        {
          "name": "C2",
          "midi": 36,
          "time": 13.478257500000014,
          "velocity": 0.7480314960629921,
          "duration": 0.21739125000000037
        },
        {
          "name": "C2",
          "midi": 36,
          "time": 13.695648750000014,
          "velocity": 0.7480314960629921,
          "duration": 0.21739125000000037
        },
        {
          "name": "F1",
          "midi": 29,
          "time": 13.913040000000015,
          "velocity": 0.7480314960629921,
          "duration": 0.21739125000000037
        },
        {
          "name": "F1",
          "midi": 29,
          "time": 14.130431250000015,
          "velocity": 0.7480314960629921,
          "duration": 0.21739125000000037
        },
        {
          "name": "F1",
          "midi": 29,
          "time": 14.347822500000015,
          "velocity": 0.7480314960629921,
          "duration": 0.21739125000000037
        },
        {
          "name": "F1",
          "midi": 29,
          "time": 14.565213750000016,
          "velocity": 0.7480314960629921,
          "duration": 0.21739125000000037
        },
        {
          "name": "A1",
          "midi": 33,
          "time": 14.782605000000016,
          "velocity": 0.7480314960629921,
          "duration": 0.21739125000000037
        },
        {
          "name": "A1",
          "midi": 33,
          "time": 14.999996250000017,
          "velocity": 0.7480314960629921,
          "duration": 0.21739125000000037
        },
        {
          "name": "A1",
          "midi": 33,
          "time": 15.217387500000017,
          "velocity": 0.7480314960629921,
          "duration": 0.21739125000000037
        },
        {
          "name": "A1",
          "midi": 33,
          "time": 15.434778750000017,
          "velocity": 0.7480314960629921,
          "duration": 0.21739125000000037
        },
        {
          "name": "C2",
          "midi": 36,
          "time": 15.652170000000018,
          "velocity": 0.7480314960629921,
          "duration": 0.21739125000000037
        },
        {
          "name": "C2",
          "midi": 36,
          "time": 15.869561250000018,
          "velocity": 0.7480314960629921,
          "duration": 0.2173912499999986
        },
        {
          "name": "C2",
          "midi": 36,
          "time": 16.086952500000017,
          "velocity": 0.7480314960629921,
          "duration": 0.2173912499999986
        },
        {
          "name": "C2",
          "midi": 36,
          "time": 16.304343750000015,
          "velocity": 0.7480314960629921,
          "duration": 0.2173912499999986
        },
        {
          "name": "D2",
          "midi": 38,
          "time": 16.521735000000014,
          "velocity": 0.7480314960629921,
          "duration": 0.2173912499999986
        },
        {
          "name": "D2",
          "midi": 38,
          "time": 16.739126250000012,
          "velocity": 0.7480314960629921,
          "duration": 0.2173912499999986
        },
        {
          "name": "D2",
          "midi": 38,
          "time": 16.95651750000001,
          "velocity": 0.7480314960629921,
          "duration": 0.2173912499999986
        },
        {
          "name": "D2",
          "midi": 38,
          "time": 17.17390875000001,
          "velocity": 0.7480314960629921,
          "duration": 0.2173912499999986
        },
        {
          "name": "A#1",
          "midi": 34,
          "time": 17.391300000000008,
          "velocity": 0.7480314960629921,
          "duration": 0.2173912499999986
        },
        {
          "name": "A#1",
          "midi": 34,
          "time": 17.608691250000007,
          "velocity": 0.7480314960629921,
          "duration": 0.2173912499999986
        },
        {
          "name": "A#1",
          "midi": 34,
          "time": 17.826082500000005,
          "velocity": 0.7480314960629921,
          "duration": 0.2173912499999986
        },
        {
          "name": "A#1",
          "midi": 34,
          "time": 18.043473750000004,
          "velocity": 0.7480314960629921,
          "duration": 0.2173912499999986
        },
        {
          "name": "C2",
          "midi": 36,
          "time": 18.260865000000003,
          "velocity": 0.7480314960629921,
          "duration": 0.2173912499999986
        },
        {
          "name": "C2",
          "midi": 36,
          "time": 18.47825625,
          "velocity": 0.7480314960629921,
          "duration": 0.2173912499999986
        },
        {
          "name": "C2",
          "midi": 36,
          "time": 18.6956475,
          "velocity": 0.7480314960629921,
          "duration": 0.2173912499999986
        },
        {
          "name": "C2",
          "midi": 36,
          "time": 18.91303875,
          "velocity": 0.7480314960629921,
          "duration": 0.2173912499999986
        },
        {
          "name": "G1",
          "midi": 31,
          "time": 19.130429999999997,
          "velocity": 0.7480314960629921,
          "duration": 0.2173912499999986
        },
        {
          "name": "G1",
          "midi": 31,
          "time": 19.347821249999996,
          "velocity": 0.7480314960629921,
          "duration": 0.2173912499999986
        },
        {
          "name": "G1",
          "midi": 31,
          "time": 19.565212499999994,
          "velocity": 0.7480314960629921,
          "duration": 0.2173912499999986
        },
        {
          "name": "G1",
          "midi": 31,
          "time": 19.782603749999993,
          "velocity": 0.7480314960629921,
          "duration": 0.2173912499999986
        },
        {
          "name": "C2",
          "midi": 36,
          "time": 20.434777499999992,
          "velocity": 0.7480314960629921,
          "duration": 0.2173912499999986
        },
        {
          "name": "C2",
          "midi": 36,
          "time": 20.65216874999999,
          "velocity": 0.7480314960629921,
          "duration": 0.2173912499999986
        },
        {
          "name": "F1",
          "midi": 29,
          "time": 20.86955999999999,
          "velocity": 0.7480314960629921,
          "duration": 0.2173912499999986
        },
        {
          "name": "F1",
          "midi": 29,
          "time": 21.086951249999988,
          "velocity": 0.7480314960629921,
          "duration": 0.2173912499999986
        },
        {
          "name": "F1",
          "midi": 29,
          "time": 21.304342499999986,
          "velocity": 0.7480314960629921,
          "duration": 0.2173912499999986
        },
        {
          "name": "F1",
          "midi": 29,
          "time": 21.521733749999985,
          "velocity": 0.7480314960629921,
          "duration": 0.1086956249999993
        },
        {
          "name": "F1",
          "midi": 29,
          "time": 21.630429374999984,
          "velocity": 0.7480314960629921,
          "duration": 0.1086956249999993
        },
        {
          "name": "A#1",
          "midi": 34,
          "time": 21.739124999999984,
          "velocity": 0.7480314960629921,
          "duration": 0.2173912499999986
        },
        {
          "name": "A#1",
          "midi": 34,
          "time": 21.956516249999982,
          "velocity": 0.7480314960629921,
          "duration": 0.2173912499999986
        },
        {
          "name": "A#1",
          "midi": 34,
          "time": 22.17390749999998,
          "velocity": 0.7480314960629921,
          "duration": 0.2173912499999986
        },
        {
          "name": "A#1",
          "midi": 34,
          "time": 22.39129874999998,
          "velocity": 0.7480314960629921,
          "duration": 0.2173912499999986
        },
        {
          "name": "G1",
          "midi": 31,
          "time": 22.608689999999978,
          "velocity": 0.7480314960629921,
          "duration": 0.2173912499999986
        },
        {
          "name": "G1",
          "midi": 31,
          "time": 22.826081249999977,
          "velocity": 0.7480314960629921,
          "duration": 0.2173912499999986
        },
        {
          "name": "G1",
          "midi": 31,
          "time": 23.043472499999975,
          "velocity": 0.7480314960629921,
          "duration": 0.2173912499999986
        },
        {
          "name": "G1",
          "midi": 31,
          "time": 23.260863749999974,
          "velocity": 0.7480314960629921,
          "duration": 0.1086956249999993
        },
        {
          "name": "G1",
          "midi": 31,
          "time": 23.369559374999973,
          "velocity": 0.7480314960629921,
          "duration": 0.1086956249999993
        },
        {
          "name": "A#1",
          "midi": 34,
          "time": 23.478254999999972,
          "velocity": 0.7480314960629921,
          "duration": 0.2173912499999986
        },
        {
          "name": "A#1",
          "midi": 34,
          "time": 23.69564624999997,
          "velocity": 0.7480314960629921,
          "duration": 0.2173912499999986
        },
        {
          "name": "A#1",
          "midi": 34,
          "time": 23.91303749999997,
          "velocity": 0.7480314960629921,
          "duration": 0.2173912499999986
        },
        {
          "name": "A#1",
          "midi": 34,
          "time": 24.130428749999968,
          "velocity": 0.7480314960629921,
          "duration": 0.2173912499999986
        },
        {
          "name": "F1",
          "midi": 29,
          "time": 24.347819999999967,
          "velocity": 0.7480314960629921,
          "duration": 0.2173912499999986
        },
        {
          "name": "F1",
          "midi": 29,
          "time": 24.565211249999965,
          "velocity": 0.7480314960629921,
          "duration": 0.2173912499999986
        },
        {
          "name": "F1",
          "midi": 29,
          "time": 24.782602499999964,
          "velocity": 0.7480314960629921,
          "duration": 0.2173912499999986
        },
        {
          "name": "F1",
          "midi": 29,
          "time": 24.999993749999962,
          "velocity": 0.7480314960629921,
          "duration": 0.1086956249999993
        },
        {
          "name": "F1",
          "midi": 29,
          "time": 25.108689374999962,
          "velocity": 0.7480314960629921,
          "duration": 0.1086956249999993
        },
        {
          "name": "A#1",
          "midi": 34,
          "time": 25.21738499999996,
          "velocity": 0.7480314960629921,
          "duration": 0.2173912499999986
        },
        {
          "name": "A#1",
          "midi": 34,
          "time": 25.43477624999996,
          "velocity": 0.7480314960629921,
          "duration": 0.2173912499999986
        },
        {
          "name": "A#1",
          "midi": 34,
          "time": 25.65216749999996,
          "velocity": 0.7480314960629921,
          "duration": 0.2173912499999986
        },
        {
          "name": "A#1",
          "midi": 34,
          "time": 25.869558749999957,
          "velocity": 0.7480314960629921,
          "duration": 0.2173912499999986
        },
        {
          "name": "G1",
          "midi": 31,
          "time": 26.086949999999955,
          "velocity": 0.7480314960629921,
          "duration": 0.2173912499999986
        },
        {
          "name": "G1",
          "midi": 31,
          "time": 26.304341249999954,
          "velocity": 0.7480314960629921,
          "duration": 0.2173912499999986
        },
        {
          "name": "G1",
          "midi": 31,
          "time": 26.521732499999953,
          "velocity": 0.7480314960629921,
          "duration": 0.2173912499999986
        },
        {
          "name": "G1",
          "midi": 31,
          "time": 26.73912374999995,
          "velocity": 0.7480314960629921,
          "duration": 0.1086956249999993
        },
        {
          "name": "G1",
          "midi": 31,
          "time": 26.84781937499995,
          "velocity": 0.7480314960629921,
          "duration": 0.1086956249999993
        },
        {
          "name": "A#1",
          "midi": 34,
          "time": 26.95651499999995,
          "velocity": 0.7480314960629921,
          "duration": 0.2173912499999986
        },
        {
          "name": "A#1",
          "midi": 34,
          "time": 27.17390624999995,
          "velocity": 0.7480314960629921,
          "duration": 0.2173912499999986
        },
        {
          "name": "A#1",
          "midi": 34,
          "time": 27.391297499999947,
          "velocity": 0.7480314960629921,
          "duration": 0.2173912499999986
        },
        {
          "name": "A#1",
          "midi": 34,
          "time": 27.608688749999946,
          "velocity": 0.7480314960629921,
          "duration": 0.2173912499999986
        },
        {
          "name": "F1",
          "midi": 29,
          "time": 27.826079999999944,
          "velocity": 0.7480314960629921,
          "duration": 0.2173912499999986
        },
        {
          "name": "F1",
          "midi": 29,
          "time": 28.043471249999943,
          "velocity": 0.7480314960629921,
          "duration": 0.2173912499999986
        },
        {
          "name": "F1",
          "midi": 29,
          "time": 28.26086249999994,
          "velocity": 0.7480314960629921,
          "duration": 0.2173912499999986
        },
        {
          "name": "F1",
          "midi": 29,
          "time": 28.47825374999994,
          "velocity": 0.7480314960629921,
          "duration": 0.1086956249999993
        },
        {
          "name": "F1",
          "midi": 29,
          "time": 28.58694937499994,
          "velocity": 0.7480314960629921,
          "duration": 0.1086956249999993
        },
        {
          "name": "A#1",
          "midi": 34,
          "time": 28.69564499999994,
          "velocity": 0.7480314960629921,
          "duration": 0.2173912499999986
        },
        {
          "name": "A#1",
          "midi": 34,
          "time": 28.913036249999937,
          "velocity": 0.7480314960629921,
          "duration": 0.2173912499999986
        },
        {
          "name": "A#1",
          "midi": 34,
          "time": 29.130427499999936,
          "velocity": 0.7480314960629921,
          "duration": 0.2173912499999986
        },
        {
          "name": "A#1",
          "midi": 34,
          "time": 29.347818749999934,
          "velocity": 0.7480314960629921,
          "duration": 0.2173912499999986
        },
        {
          "name": "G1",
          "midi": 31,
          "time": 29.565209999999933,
          "velocity": 0.7480314960629921,
          "duration": 0.2173912499999986
        },
        {
          "name": "G1",
          "midi": 31,
          "time": 29.78260124999993,
          "velocity": 0.7480314960629921,
          "duration": 0.2173912499999986
        },
        {
          "name": "G1",
          "midi": 31,
          "time": 29.99999249999993,
          "velocity": 0.7480314960629921,
          "duration": 0.2173912499999986
        },
        {
          "name": "G1",
          "midi": 31,
          "time": 30.21738374999993,
          "velocity": 0.7480314960629921,
          "duration": 0.1086956249999993
        },
        {
          "name": "G1",
          "midi": 31,
          "time": 30.326079374999928,
          "velocity": 0.7480314960629921,
          "duration": 0.1086956249999993
        },
        {
          "name": "A#1",
          "midi": 34,
          "time": 30.434774999999927,
          "velocity": 0.7480314960629921,
          "duration": 0.2173912499999986
        },
        {
          "name": "A#1",
          "midi": 34,
          "time": 30.652166249999926,
          "velocity": 0.7480314960629921,
          "duration": 0.2173912499999986
        },
        {
          "name": "A#1",
          "midi": 34,
          "time": 30.869557499999924,
          "velocity": 0.7480314960629921,
          "duration": 0.2173912499999986
        },
        {
          "name": "A#1",
          "midi": 34,
          "time": 31.086948749999923,
          "velocity": 0.7480314960629921,
          "duration": 0.2173912499999986
        },
        {
          "name": "F1",
          "midi": 29,
          "time": 31.30433999999992,
          "velocity": 0.7480314960629921,
          "duration": 0.2173912499999986
        },
        {
          "name": "F1",
          "midi": 29,
          "time": 31.52173124999992,
          "velocity": 0.7480314960629921,
          "duration": 0.2173912499999986
        },
        {
          "name": "F1",
          "midi": 29,
          "time": 31.73912249999992,
          "velocity": 0.7480314960629921,
          "duration": 0.2173912499999986
        },
        {
          "name": "F1",
          "midi": 29,
          "time": 31.956513749999917,
          "velocity": 0.7480314960629921,
          "duration": 0.1086956249999993
        },
        {
          "name": "F1",
          "midi": 29,
          "time": 32.06520937499992,
          "velocity": 0.7480314960629921,
          "duration": 0.10869562500000285
        },
        {
          "name": "A#1",
          "midi": 34,
          "time": 32.17390499999992,
          "velocity": 0.7480314960629921,
          "duration": 0.2173912499999986
        },
        {
          "name": "A#1",
          "midi": 34,
          "time": 32.39129624999992,
          "velocity": 0.7480314960629921,
          "duration": 0.2173912499999986
        },
        {
          "name": "A#1",
          "midi": 34,
          "time": 32.60868749999992,
          "velocity": 0.7480314960629921,
          "duration": 0.2173912499999986
        },
        {
          "name": "A#1",
          "midi": 34,
          "time": 32.826078749999915,
          "velocity": 0.7480314960629921,
          "duration": 0.2173912499999986
        },
        {
          "name": "G1",
          "midi": 31,
          "time": 33.043469999999914,
          "velocity": 0.7480314960629921,
          "duration": 0.2173912499999986
        },
        {
          "name": "G1",
          "midi": 31,
          "time": 33.26086124999991,
          "velocity": 0.7480314960629921,
          "duration": 0.2173912499999986
        },
        {
          "name": "G1",
          "midi": 31,
          "time": 33.47825249999991,
          "velocity": 0.7480314960629921,
          "duration": 0.2173912499999986
        },
        {
          "name": "G1",
          "midi": 31,
          "time": 33.69564374999991,
          "velocity": 0.7480314960629921,
          "duration": 0.10869562500000285
        },
        {
          "name": "G1",
          "midi": 31,
          "time": 33.80433937499991,
          "velocity": 0.7480314960629921,
          "duration": 0.10869562500000285
        },
        {
          "name": "A#1",
          "midi": 34,
          "time": 33.913034999999915,
          "velocity": 0.7480314960629921,
          "duration": 0.2173912499999986
        },
        {
          "name": "A#1",
          "midi": 34,
          "time": 34.130426249999914,
          "velocity": 0.7480314960629921,
          "duration": 0.2173912499999986
        },
        {
          "name": "A#1",
          "midi": 34,
          "time": 34.34781749999991,
          "velocity": 0.7480314960629921,
          "duration": 0.2173912499999986
        },
        {
          "name": "A#1",
          "midi": 34,
          "time": 34.56520874999991,
          "velocity": 0.7480314960629921,
          "duration": 0.2173912499999986
        },
        {
          "name": "F1",
          "midi": 29,
          "time": 34.78259999999991,
          "velocity": 0.7480314960629921,
          "duration": 0.2173912499999986
        },
        {
          "name": "F1",
          "midi": 29,
          "time": 34.99999124999991,
          "velocity": 0.7480314960629921,
          "duration": 0.2173912499999986
        },
        {
          "name": "F1",
          "midi": 29,
          "time": 35.21738249999991,
          "velocity": 0.7480314960629921,
          "duration": 0.2173912499999986
        },
        {
          "name": "F1",
          "midi": 29,
          "time": 35.434773749999906,
          "velocity": 0.7480314960629921,
          "duration": 0.10869562500000285
        },
        {
          "name": "F1",
          "midi": 29,
          "time": 35.54346937499991,
          "velocity": 0.7480314960629921,
          "duration": 0.10869562500000285
        },
        {
          "name": "A#1",
          "midi": 34,
          "time": 35.65216499999991,
          "velocity": 0.7480314960629921,
          "duration": 0.2173912499999986
        },
        {
          "name": "A#1",
          "midi": 34,
          "time": 35.86955624999991,
          "velocity": 0.7480314960629921,
          "duration": 0.2173912499999986
        },
        {
          "name": "A#1",
          "midi": 34,
          "time": 36.08694749999991,
          "velocity": 0.7480314960629921,
          "duration": 0.2173912499999986
        },
        {
          "name": "A#1",
          "midi": 34,
          "time": 36.30433874999991,
          "velocity": 0.7480314960629921,
          "duration": 0.2173912499999986
        },
        {
          "name": "G1",
          "midi": 31,
          "time": 36.521729999999906,
          "velocity": 0.7480314960629921,
          "duration": 0.2173912499999986
        },
        {
          "name": "G1",
          "midi": 31,
          "time": 36.739121249999904,
          "velocity": 0.7480314960629921,
          "duration": 0.2173912499999986
        },
        {
          "name": "G1",
          "midi": 31,
          "time": 36.9565124999999,
          "velocity": 0.7480314960629921,
          "duration": 0.2173912499999986
        },
        {
          "name": "G1",
          "midi": 31,
          "time": 37.1739037499999,
          "velocity": 0.7480314960629921,
          "duration": 0.10869562500000285
        },
        {
          "name": "G1",
          "midi": 31,
          "time": 37.282599374999904,
          "velocity": 0.7480314960629921,
          "duration": 0.10869562500000285
        },
        {
          "name": "A#1",
          "midi": 34,
          "time": 37.39129499999991,
          "velocity": 0.7480314960629921,
          "duration": 0.2173912499999986
        },
        {
          "name": "A#1",
          "midi": 34,
          "time": 37.608686249999906,
          "velocity": 0.7480314960629921,
          "duration": 0.2173912499999986
        },
        {
          "name": "A#1",
          "midi": 34,
          "time": 37.826077499999904,
          "velocity": 0.7480314960629921,
          "duration": 0.2173912499999986
        },
        {
          "name": "A#1",
          "midi": 34,
          "time": 38.0434687499999,
          "velocity": 0.7480314960629921,
          "duration": 0.2173912499999986
        },
        {
          "name": "F1",
          "midi": 29,
          "time": 38.2608599999999,
          "velocity": 0.7480314960629921,
          "duration": 0.2173912499999986
        },
        {
          "name": "F1",
          "midi": 29,
          "time": 38.4782512499999,
          "velocity": 0.7480314960629921,
          "duration": 0.2173912499999986
        },
        {
          "name": "F1",
          "midi": 29,
          "time": 38.6956424999999,
          "velocity": 0.7480314960629921,
          "duration": 0.2173912499999986
        },
        {
          "name": "F1",
          "midi": 29,
          "time": 38.9130337499999,
          "velocity": 0.7480314960629921,
          "duration": 0.10869562500000285
        },
        {
          "name": "F1",
          "midi": 29,
          "time": 39.0217293749999,
          "velocity": 0.7480314960629921,
          "duration": 0.10869562500000285
        },
        {
          "name": "A#1",
          "midi": 34,
          "time": 39.1304249999999,
          "velocity": 0.7480314960629921,
          "duration": 0.2173912499999986
        },
        {
          "name": "A#1",
          "midi": 34,
          "time": 39.3478162499999,
          "velocity": 0.7480314960629921,
          "duration": 0.2173912499999986
        },
        {
          "name": "A#1",
          "midi": 34,
          "time": 39.5652074999999,
          "velocity": 0.7480314960629921,
          "duration": 0.2173912499999986
        },
        {
          "name": "A#1",
          "midi": 34,
          "time": 39.7825987499999,
          "velocity": 0.7480314960629921,
          "duration": 0.2173912499999986
        },
        {
          "name": "G1",
          "midi": 31,
          "time": 39.9999899999999,
          "velocity": 0.7480314960629921,
          "duration": 0.2173912499999986
        },
        {
          "name": "G1",
          "midi": 31,
          "time": 40.217381249999896,
          "velocity": 0.7480314960629921,
          "duration": 0.2173912499999986
        },
        {
          "name": "G1",
          "midi": 31,
          "time": 40.434772499999895,
          "velocity": 0.7480314960629921,
          "duration": 0.2173912499999986
        },
        {
          "name": "G1",
          "midi": 31,
          "time": 40.65216374999989,
          "velocity": 0.7480314960629921,
          "duration": 0.10869562500000285
        },
        {
          "name": "G1",
          "midi": 31,
          "time": 40.760859374999896,
          "velocity": 0.7480314960629921,
          "duration": 0.10869562500000285
        },
        {
          "name": "A#1",
          "midi": 34,
          "time": 40.8695549999999,
          "velocity": 0.7480314960629921,
          "duration": 0.2173912499999986
        },
        {
          "name": "A#1",
          "midi": 34,
          "time": 41.0869462499999,
          "velocity": 0.7480314960629921,
          "duration": 0.2173912499999986
        },
        {
          "name": "A#1",
          "midi": 34,
          "time": 41.304337499999896,
          "velocity": 0.7480314960629921,
          "duration": 0.2173912499999986
        },
        {
          "name": "A#1",
          "midi": 34,
          "time": 41.521728749999895,
          "velocity": 0.7480314960629921,
          "duration": 0.2173912499999986
        },
        {
          "name": "F1",
          "midi": 29,
          "time": 41.73911999999989,
          "velocity": 0.7480314960629921,
          "duration": 0.2173912499999986
        },
        {
          "name": "F1",
          "midi": 29,
          "time": 41.95651124999989,
          "velocity": 0.7480314960629921,
          "duration": 0.2173912499999986
        },
        {
          "name": "F1",
          "midi": 29,
          "time": 42.17390249999989,
          "velocity": 0.7480314960629921,
          "duration": 0.2173912499999986
        },
        {
          "name": "F1",
          "midi": 29,
          "time": 42.39129374999989,
          "velocity": 0.7480314960629921,
          "duration": 0.10869562500000285
        },
        {
          "name": "F1",
          "midi": 29,
          "time": 42.49998937499989,
          "velocity": 0.7480314960629921,
          "duration": 0.10869562500000285
        },
        {
          "name": "A#1",
          "midi": 34,
          "time": 42.608684999999895,
          "velocity": 0.7480314960629921,
          "duration": 0.2173912499999986
        },
        {
          "name": "A#1",
          "midi": 34,
          "time": 42.82607624999989,
          "velocity": 0.7480314960629921,
          "duration": 0.2173912499999986
        },
        {
          "name": "A#1",
          "midi": 34,
          "time": 43.04346749999989,
          "velocity": 0.7480314960629921,
          "duration": 0.2173912499999986
        },
        {
          "name": "A#1",
          "midi": 34,
          "time": 43.26085874999989,
          "velocity": 0.7480314960629921,
          "duration": 0.2173912499999986
        },
        {
          "name": "G1",
          "midi": 31,
          "time": 43.47824999999989,
          "velocity": 0.7480314960629921,
          "duration": 0.2173912499999986
        },
        {
          "name": "G1",
          "midi": 31,
          "time": 43.69564124999989,
          "velocity": 0.7480314960629921,
          "duration": 0.2173912499999986
        },
        {
          "name": "G1",
          "midi": 31,
          "time": 43.913032499999886,
          "velocity": 0.7480314960629921,
          "duration": 0.2173912499999986
        },
        {
          "name": "G1",
          "midi": 31,
          "time": 44.130423749999885,
          "velocity": 0.7480314960629921,
          "duration": 0.10869562500000285
        },
        {
          "name": "G1",
          "midi": 31,
          "time": 44.23911937499989,
          "velocity": 0.7480314960629921,
          "duration": 0.10869562500000285
        },
        {
          "name": "A#1",
          "midi": 34,
          "time": 44.34781499999989,
          "velocity": 0.7480314960629921,
          "duration": 0.2173912499999986
        },
        {
          "name": "A#1",
          "midi": 34,
          "time": 44.56520624999989,
          "velocity": 0.7480314960629921,
          "duration": 0.2173912499999986
        },
        {
          "name": "A#1",
          "midi": 34,
          "time": 44.78259749999989,
          "velocity": 0.7480314960629921,
          "duration": 0.2173912499999986
        },
        {
          "name": "A#1",
          "midi": 34,
          "time": 44.999988749999886,
          "velocity": 0.7480314960629921,
          "duration": 0.2173912499999986
        },
        {
          "name": "F1",
          "midi": 29,
          "time": 45.217379999999885,
          "velocity": 0.7480314960629921,
          "duration": 0.2173912499999986
        },
        {
          "name": "F1",
          "midi": 29,
          "time": 45.43477124999988,
          "velocity": 0.7480314960629921,
          "duration": 0.2173912499999986
        },
        {
          "name": "F1",
          "midi": 29,
          "time": 45.65216249999988,
          "velocity": 0.7480314960629921,
          "duration": 0.2173912499999986
        },
        {
          "name": "F1",
          "midi": 29,
          "time": 45.86955374999988,
          "velocity": 0.7480314960629921,
          "duration": 0.10869562500000285
        },
        {
          "name": "F1",
          "midi": 29,
          "time": 45.97824937499988,
          "velocity": 0.7480314960629921,
          "duration": 0.10869562500000285
        },
        {
          "name": "A#1",
          "midi": 34,
          "time": 46.086944999999886,
          "velocity": 0.7480314960629921,
          "duration": 0.2173912499999986
        },
        {
          "name": "A#1",
          "midi": 34,
          "time": 46.304336249999885,
          "velocity": 0.7480314960629921,
          "duration": 0.2173912499999986
        },
        {
          "name": "A#1",
          "midi": 34,
          "time": 46.52172749999988,
          "velocity": 0.7480314960629921,
          "duration": 0.2173912499999986
        },
        {
          "name": "A#1",
          "midi": 34,
          "time": 46.73911874999988,
          "velocity": 0.7480314960629921,
          "duration": 0.2173912499999986
        },
        {
          "name": "G1",
          "midi": 31,
          "time": 46.95650999999988,
          "velocity": 0.7480314960629921,
          "duration": 0.2173912499999986
        },
        {
          "name": "G1",
          "midi": 31,
          "time": 47.17390124999988,
          "velocity": 0.7480314960629921,
          "duration": 0.2173912499999986
        },
        {
          "name": "G1",
          "midi": 31,
          "time": 47.39129249999988,
          "velocity": 0.7480314960629921,
          "duration": 0.2173912499999986
        },
        {
          "name": "G1",
          "midi": 31,
          "time": 47.60868374999988,
          "velocity": 0.7480314960629921,
          "duration": 0.10869562500000285
        },
        {
          "name": "G1",
          "midi": 31,
          "time": 47.71737937499988,
          "velocity": 0.7480314960629921,
          "duration": 0.10869562500000285
        },
        {
          "name": "A#1",
          "midi": 34,
          "time": 47.82607499999988,
          "velocity": 0.7480314960629921,
          "duration": 0.2173912499999986
        },
        {
          "name": "A#1",
          "midi": 34,
          "time": 48.04346624999988,
          "velocity": 0.7480314960629921,
          "duration": 0.2173912499999986
        },
        {
          "name": "A#1",
          "midi": 34,
          "time": 48.26085749999988,
          "velocity": 0.7480314960629921,
          "duration": 0.2173912499999986
        },
        {
          "name": "A#1",
          "midi": 34,
          "time": 48.47824874999988,
          "velocity": 0.7480314960629921,
          "duration": 0.2173912499999986
        },
        {
          "name": "A#1",
          "midi": 34,
          "time": 48.69563999999988,
          "velocity": 0.7480314960629921,
          "duration": 0.2173912499999986
        },
        {
          "name": "A#1",
          "midi": 34,
          "time": 48.913031249999875,
          "velocity": 0.7480314960629921,
          "duration": 0.2173912499999986
        },
        {
          "name": "A#1",
          "midi": 34,
          "time": 49.130422499999874,
          "velocity": 0.7480314960629921,
          "duration": 0.2173912499999986
        },
        {
          "name": "A#1",
          "midi": 34,
          "time": 49.34781374999987,
          "velocity": 0.7480314960629921,
          "duration": 0.2173912499999986
        },
        {
          "name": "A#1",
          "midi": 34,
          "time": 49.56520499999987,
          "velocity": 0.7480314960629921,
          "duration": 0.2173912499999986
        },
        {
          "name": "A#1",
          "midi": 34,
          "time": 49.78259624999987,
          "velocity": 0.7480314960629921,
          "duration": 0.2173912499999986
        },
        {
          "name": "A#1",
          "midi": 34,
          "time": 49.99998749999987,
          "velocity": 0.7480314960629921,
          "duration": 0.2173912499999986
        },
        {
          "name": "A#1",
          "midi": 34,
          "time": 50.21737874999987,
          "velocity": 0.7480314960629921,
          "duration": 0.2173912499999986
        },
        {
          "name": "A#1",
          "midi": 34,
          "time": 50.434769999999865,
          "velocity": 0.7480314960629921,
          "duration": 0.2173912499999986
        },
        {
          "name": "A#1",
          "midi": 34,
          "time": 50.652161249999864,
          "velocity": 0.7480314960629921,
          "duration": 0.2173912499999986
        },
        {
          "name": "A#1",
          "midi": 34,
          "time": 50.86955249999986,
          "velocity": 0.7480314960629921,
          "duration": 0.2173912499999986
        },
        {
          "name": "A#1",
          "midi": 34,
          "time": 51.08694374999986,
          "velocity": 0.7480314960629921,
          "duration": 0.2173912499999986
        },
        {
          "name": "A#1",
          "midi": 34,
          "time": 51.30433499999986,
          "velocity": 0.7480314960629921,
          "duration": 0.2173912499999986
        },
        {
          "name": "A#1",
          "midi": 34,
          "time": 51.52172624999986,
          "velocity": 0.7480314960629921,
          "duration": 0.2173912499999986
        },
        {
          "name": "A#1",
          "midi": 34,
          "time": 51.73911749999986,
          "velocity": 0.7480314960629921,
          "duration": 0.2173912499999986
        },
        {
          "name": "A#1",
          "midi": 34,
          "time": 51.956508749999855,
          "velocity": 0.7480314960629921,
          "duration": 0.2173912499999986
        },
        {
          "name": "A#1",
          "midi": 34,
          "time": 52.173899999999854,
          "velocity": 0.7480314960629921,
          "duration": 0.2173912499999986
        },
        {
          "name": "A#1",
          "midi": 34,
          "time": 52.39129124999985,
          "velocity": 0.7480314960629921,
          "duration": 0.2173912499999986
        },
        {
          "name": "A#1",
          "midi": 34,
          "time": 52.60868249999985,
          "velocity": 0.7480314960629921,
          "duration": 0.2173912499999986
        },
        {
          "name": "A#1",
          "midi": 34,
          "time": 52.82607374999985,
          "velocity": 0.7480314960629921,
          "duration": 0.2173912499999986
        },
        {
          "name": "F1",
          "midi": 29,
          "time": 53.04346499999985,
          "velocity": 0.7480314960629921,
          "duration": 0.2173912499999986
        },
        {
          "name": "F1",
          "midi": 29,
          "time": 53.26085624999985,
          "velocity": 0.7480314960629921,
          "duration": 0.2173912499999986
        },
        {
          "name": "F1",
          "midi": 29,
          "time": 53.478247499999846,
          "velocity": 0.7480314960629921,
          "duration": 0.2173912499999986
        },
        {
          "name": "F1",
          "midi": 29,
          "time": 53.695638749999844,
          "velocity": 0.7480314960629921,
          "duration": 0.2173912499999986
        },
        {
          "name": "C2",
          "midi": 36,
          "time": 53.91302999999984,
          "velocity": 0.7480314960629921,
          "duration": 0.2173912499999986
        },
        {
          "name": "C2",
          "midi": 36,
          "time": 54.13042124999984,
          "velocity": 0.7480314960629921,
          "duration": 0.2173912499999986
        },
        {
          "name": "C2",
          "midi": 36,
          "time": 54.34781249999984,
          "velocity": 0.7480314960629921,
          "duration": 0.2173912499999986
        },
        {
          "name": "C2",
          "midi": 36,
          "time": 54.56520374999984,
          "velocity": 0.7480314960629921,
          "duration": 0.2173912499999986
        },
        {
          "name": "F1",
          "midi": 29,
          "time": 54.78259499999984,
          "velocity": 0.7480314960629921,
          "duration": 0.2173912499999986
        },
        {
          "name": "F1",
          "midi": 29,
          "time": 54.999986249999836,
          "velocity": 0.7480314960629921,
          "duration": 0.2173912499999986
        },
        {
          "name": "F1",
          "midi": 29,
          "time": 55.217377499999834,
          "velocity": 0.7480314960629921,
          "duration": 0.2173912499999986
        },
        {
          "name": "F1",
          "midi": 29,
          "time": 55.43476874999983,
          "velocity": 0.7480314960629921,
          "duration": 0.2173912499999986
        },
        {
          "name": "D2",
          "midi": 38,
          "time": 55.65215999999983,
          "velocity": 0.7480314960629921,
          "duration": 0.2173912499999986
        },
        {
          "name": "D2",
          "midi": 38,
          "time": 55.86955124999983,
          "velocity": 0.7480314960629921,
          "duration": 0.2173912499999986
        },
        {
          "name": "D2",
          "midi": 38,
          "time": 56.08694249999983,
          "velocity": 0.7480314960629921,
          "duration": 0.2173912499999986
        },
        {
          "name": "D2",
          "midi": 38,
          "time": 56.30433374999983,
          "velocity": 0.7480314960629921,
          "duration": 0.2173912499999986
        },
        {
          "name": "A1",
          "midi": 33,
          "time": 56.521724999999826,
          "velocity": 0.7480314960629921,
          "duration": 0.2173912499999986
        },
        {
          "name": "A1",
          "midi": 33,
          "time": 56.739116249999825,
          "velocity": 0.7480314960629921,
          "duration": 0.2173912499999986
        },
        {
          "name": "A1",
          "midi": 33,
          "time": 56.95650749999982,
          "velocity": 0.7480314960629921,
          "duration": 0.2173912499999986
        },
        {
          "name": "A1",
          "midi": 33,
          "time": 57.17389874999982,
          "velocity": 0.7480314960629921,
          "duration": 0.2173912499999986
        },
        {
          "name": "A#1",
          "midi": 34,
          "time": 57.39128999999982,
          "velocity": 0.7480314960629921,
          "duration": 0.2173912499999986
        },
        {
          "name": "A#1",
          "midi": 34,
          "time": 57.60868124999982,
          "velocity": 0.7480314960629921,
          "duration": 0.2173912499999986
        },
        {
          "name": "A#1",
          "midi": 34,
          "time": 57.82607249999982,
          "velocity": 0.7480314960629921,
          "duration": 0.2173912499999986
        },
        {
          "name": "A#1",
          "midi": 34,
          "time": 58.043463749999816,
          "velocity": 0.7480314960629921,
          "duration": 0.2173912499999986
        },
        {
          "name": "C2",
          "midi": 36,
          "time": 58.260854999999815,
          "velocity": 0.7480314960629921,
          "duration": 0.2173912499999986
        },
        {
          "name": "C2",
          "midi": 36,
          "time": 58.47824624999981,
          "velocity": 0.7480314960629921,
          "duration": 0.2173912499999986
        },
        {
          "name": "C2",
          "midi": 36,
          "time": 58.69563749999981,
          "velocity": 0.7480314960629921,
          "duration": 0.2173912499999986
        },
        {
          "name": "C2",
          "midi": 36,
          "time": 58.91302874999981,
          "velocity": 0.7480314960629921,
          "duration": 0.2173912499999986
        },
        {
          "name": "F1",
          "midi": 29,
          "time": 59.13041999999981,
          "velocity": 0.7480314960629921,
          "duration": 0.2173912499999986
        },
        {
          "name": "F1",
          "midi": 29,
          "time": 59.34781124999981,
          "velocity": 0.7480314960629921,
          "duration": 0.2173912499999986
        },
        {
          "name": "F1",
          "midi": 29,
          "time": 59.565202499999806,
          "velocity": 0.7480314960629921,
          "duration": 0.2173912499999986
        },
        {
          "name": "F1",
          "midi": 29,
          "time": 59.782593749999805,
          "velocity": 0.7480314960629921,
          "duration": 0.2173912499999986
        },
        {
          "name": "A1",
          "midi": 33,
          "time": 59.9999849999998,
          "velocity": 0.7480314960629921,
          "duration": 0.2173912499999986
        },
        {
          "name": "A1",
          "midi": 33,
          "time": 60.2173762499998,
          "velocity": 0.7480314960629921,
          "duration": 0.2173912499999986
        },
        {
          "name": "A1",
          "midi": 33,
          "time": 60.4347674999998,
          "velocity": 0.7480314960629921,
          "duration": 0.2173912499999986
        },
        {
          "name": "A1",
          "midi": 33,
          "time": 60.6521587499998,
          "velocity": 0.7480314960629921,
          "duration": 0.2173912499999986
        },
        {
          "name": "C2",
          "midi": 36,
          "time": 60.8695499999998,
          "velocity": 0.7480314960629921,
          "duration": 0.2173912499999986
        },
        {
          "name": "C2",
          "midi": 36,
          "time": 61.086941249999796,
          "velocity": 0.7480314960629921,
          "duration": 0.2173912499999986
        },
        {
          "name": "C2",
          "midi": 36,
          "time": 61.304332499999795,
          "velocity": 0.7480314960629921,
          "duration": 0.2173912499999986
        },
        {
          "name": "C2",
          "midi": 36,
          "time": 61.52172374999979,
          "velocity": 0.7480314960629921,
          "duration": 0.2173912499999986
        },
        {
          "name": "D2",
          "midi": 38,
          "time": 61.73911499999979,
          "velocity": 0.7480314960629921,
          "duration": 0.2173912499999986
        },
        {
          "name": "D2",
          "midi": 38,
          "time": 61.95650624999979,
          "velocity": 0.7480314960629921,
          "duration": 0.2173912499999986
        },
        {
          "name": "D2",
          "midi": 38,
          "time": 62.17389749999979,
          "velocity": 0.7480314960629921,
          "duration": 0.2173912499999986
        },
        {
          "name": "D2",
          "midi": 38,
          "time": 62.39128874999979,
          "velocity": 0.7480314960629921,
          "duration": 0.2173912499999986
        },
        {
          "name": "A#1",
          "midi": 34,
          "time": 62.60867999999979,
          "velocity": 0.7480314960629921,
          "duration": 0.2173912499999986
        },
        {
          "name": "A#1",
          "midi": 34,
          "time": 62.826071249999785,
          "velocity": 0.7480314960629921,
          "duration": 0.2173912499999986
        },
        {
          "name": "A#1",
          "midi": 34,
          "time": 63.043462499999784,
          "velocity": 0.7480314960629921,
          "duration": 0.2173912499999986
        },
        {
          "name": "A#1",
          "midi": 34,
          "time": 63.26085374999978,
          "velocity": 0.7480314960629921,
          "duration": 0.2173912499999986
        },
        {
          "name": "C2",
          "midi": 36,
          "time": 63.47824499999978,
          "velocity": 0.7480314960629921,
          "duration": 0.2173912499999986
        },
        {
          "name": "C2",
          "midi": 36,
          "time": 63.69563624999978,
          "velocity": 0.7480314960629921,
          "duration": 0.2173912499999986
        },
        {
          "name": "C2",
          "midi": 36,
          "time": 63.91302749999978,
          "velocity": 0.7480314960629921,
          "duration": 0.2173912499999986
        },
        {
          "name": "C2",
          "midi": 36,
          "time": 64.13041874999978,
          "velocity": 0.7480314960629921,
          "duration": 0.2173912500000057
        },
        {
          "name": "G1",
          "midi": 31,
          "time": 64.34780999999978,
          "velocity": 0.7480314960629921,
          "duration": 0.2173912500000057
        },
        {
          "name": "G1",
          "midi": 31,
          "time": 64.56520124999979,
          "velocity": 0.7480314960629921,
          "duration": 0.2173912500000057
        },
        {
          "name": "G1",
          "midi": 31,
          "time": 64.7825924999998,
          "velocity": 0.7480314960629921,
          "duration": 0.2173912500000057
        },
        {
          "name": "G1",
          "midi": 31,
          "time": 64.9999837499998,
          "velocity": 0.7480314960629921,
          "duration": 0.2173912500000057
        },
        {
          "name": "C2",
          "midi": 36,
          "time": 65.6521574999998,
          "velocity": 0.7480314960629921,
          "duration": 0.2173912500000057
        },
        {
          "name": "C2",
          "midi": 36,
          "time": 65.86954874999981,
          "velocity": 0.7480314960629921,
          "duration": 0.2173912500000057
        },
        {
          "name": "F1",
          "midi": 29,
          "time": 66.08693999999981,
          "velocity": 0.7480314960629921,
          "duration": 0.2173912500000057
        },
        {
          "name": "F1",
          "midi": 29,
          "time": 66.30433124999982,
          "velocity": 0.7480314960629921,
          "duration": 0.2173912500000057
        },
        {
          "name": "F1",
          "midi": 29,
          "time": 66.52172249999983,
          "velocity": 0.7480314960629921,
          "duration": 0.2173912500000057
        },
        {
          "name": "F1",
          "midi": 29,
          "time": 66.73911374999983,
          "velocity": 0.7480314960629921,
          "duration": 0.2173912500000057
        },
        {
          "name": "A1",
          "midi": 33,
          "time": 66.95650499999984,
          "velocity": 0.7480314960629921,
          "duration": 0.2173912500000057
        },
        {
          "name": "A1",
          "midi": 33,
          "time": 67.17389624999984,
          "velocity": 0.7480314960629921,
          "duration": 0.2173912500000057
        },
        {
          "name": "A1",
          "midi": 33,
          "time": 67.39128749999985,
          "velocity": 0.7480314960629921,
          "duration": 0.2173912500000057
        },
        {
          "name": "A1",
          "midi": 33,
          "time": 67.60867874999985,
          "velocity": 0.7480314960629921,
          "duration": 0.2173912500000057
        },
        {
          "name": "C2",
          "midi": 36,
          "time": 67.82606999999986,
          "velocity": 0.7480314960629921,
          "duration": 0.2173912500000057
        },
        {
          "name": "C2",
          "midi": 36,
          "time": 68.04346124999987,
          "velocity": 0.7480314960629921,
          "duration": 0.2173912500000057
        },
        {
          "name": "C2",
          "midi": 36,
          "time": 68.26085249999987,
          "velocity": 0.7480314960629921,
          "duration": 0.2173912500000057
        },
        {
          "name": "C2",
          "midi": 36,
          "time": 68.47824374999988,
          "velocity": 0.7480314960629921,
          "duration": 0.2173912500000057
        },
        {
          "name": "D2",
          "midi": 38,
          "time": 68.69563499999988,
          "velocity": 0.7480314960629921,
          "duration": 0.2173912500000057
        },
        {
          "name": "D2",
          "midi": 38,
          "time": 68.91302624999989,
          "velocity": 0.7480314960629921,
          "duration": 0.2173912500000057
        },
        {
          "name": "D2",
          "midi": 38,
          "time": 69.1304174999999,
          "velocity": 0.7480314960629921,
          "duration": 0.2173912500000057
        },
        {
          "name": "D2",
          "midi": 38,
          "time": 69.3478087499999,
          "velocity": 0.7480314960629921,
          "duration": 0.2173912500000057
        },
        {
          "name": "A#1",
          "midi": 34,
          "time": 69.5651999999999,
          "velocity": 0.7480314960629921,
          "duration": 0.2173912500000057
        },
        {
          "name": "A#1",
          "midi": 34,
          "time": 69.78259124999991,
          "velocity": 0.7480314960629921,
          "duration": 0.2173912500000057
        },
        {
          "name": "A#1",
          "midi": 34,
          "time": 69.99998249999992,
          "velocity": 0.7480314960629921,
          "duration": 0.2173912500000057
        },
        {
          "name": "A#1",
          "midi": 34,
          "time": 70.21737374999992,
          "velocity": 0.7480314960629921,
          "duration": 0.2173912500000057
        },
        {
          "name": "C2",
          "midi": 36,
          "time": 70.43476499999993,
          "velocity": 0.7480314960629921,
          "duration": 0.2173912500000057
        },
        {
          "name": "C2",
          "midi": 36,
          "time": 70.65215624999993,
          "velocity": 0.7480314960629921,
          "duration": 0.2173912500000057
        },
        {
          "name": "C2",
          "midi": 36,
          "time": 70.86954749999994,
          "velocity": 0.7480314960629921,
          "duration": 0.2173912500000057
        },
        {
          "name": "C2",
          "midi": 36,
          "time": 71.08693874999994,
          "velocity": 0.7480314960629921,
          "duration": 0.2173912500000057
        },
        {
          "name": "G1",
          "midi": 31,
          "time": 71.30432999999995,
          "velocity": 0.7480314960629921,
          "duration": 0.2173912500000057
        },
        {
          "name": "G1",
          "midi": 31,
          "time": 71.52172124999996,
          "velocity": 0.7480314960629921,
          "duration": 0.2173912500000057
        },
        {
          "name": "G1",
          "midi": 31,
          "time": 71.73911249999996,
          "velocity": 0.7480314960629921,
          "duration": 0.2173912500000057
        },
        {
          "name": "G1",
          "midi": 31,
          "time": 71.95650374999997,
          "velocity": 0.7480314960629921,
          "duration": 0.2173912500000057
        },
        {
          "name": "C2",
          "midi": 36,
          "time": 72.60867749999997,
          "velocity": 0.7480314960629921,
          "duration": 0.2173912500000057
        },
        {
          "name": "C2",
          "midi": 36,
          "time": 72.82606874999998,
          "velocity": 0.7480314960629921,
          "duration": 0.2173912500000057
        },
        {
          "name": "F1",
          "midi": 29,
          "time": 86.95649999999998,
          "velocity": 0.7480314960629921,
          "duration": 0.2173912500000057
        },
        {
          "name": "F1",
          "midi": 29,
          "time": 87.17389124999998,
          "velocity": 0.7480314960629921,
          "duration": 0.2173912500000057
        },
        {
          "name": "F1",
          "midi": 29,
          "time": 87.39128249999999,
          "velocity": 0.7480314960629921,
          "duration": 0.2173912500000057
        },
        {
          "name": "F1",
          "midi": 29,
          "time": 87.60867375,
          "velocity": 0.7480314960629921,
          "duration": 0.10869562499999574
        },
        {
          "name": "F1",
          "midi": 29,
          "time": 87.71736937499999,
          "velocity": 0.7480314960629921,
          "duration": 0.10869562499999574
        },
        {
          "name": "A#1",
          "midi": 34,
          "time": 87.82606499999999,
          "velocity": 0.7480314960629921,
          "duration": 0.2173912500000057
        },
        {
          "name": "A#1",
          "midi": 34,
          "time": 88.04345624999999,
          "velocity": 0.7480314960629921,
          "duration": 0.2173912500000057
        },
        {
          "name": "A#1",
          "midi": 34,
          "time": 88.2608475,
          "velocity": 0.7480314960629921,
          "duration": 0.2173912500000057
        },
        {
          "name": "A#1",
          "midi": 34,
          "time": 88.47823875,
          "velocity": 0.7480314960629921,
          "duration": 0.2173912500000057
        },
        {
          "name": "G1",
          "midi": 31,
          "time": 88.69563000000001,
          "velocity": 0.7480314960629921,
          "duration": 0.2173912500000057
        },
        {
          "name": "G1",
          "midi": 31,
          "time": 88.91302125000001,
          "velocity": 0.7480314960629921,
          "duration": 0.2173912500000057
        },
        {
          "name": "G1",
          "midi": 31,
          "time": 89.13041250000002,
          "velocity": 0.7480314960629921,
          "duration": 0.2173912500000057
        },
        {
          "name": "G1",
          "midi": 31,
          "time": 89.34780375000003,
          "velocity": 0.7480314960629921,
          "duration": 0.10869562499999574
        },
        {
          "name": "G1",
          "midi": 31,
          "time": 89.45649937500002,
          "velocity": 0.7480314960629921,
          "duration": 0.10869562499999574
        },
        {
          "name": "A#1",
          "midi": 34,
          "time": 89.56519500000002,
          "velocity": 0.7480314960629921,
          "duration": 0.2173912500000057
        },
        {
          "name": "A#1",
          "midi": 34,
          "time": 89.78258625000002,
          "velocity": 0.7480314960629921,
          "duration": 0.2173912500000057
        },
        {
          "name": "A#1",
          "midi": 34,
          "time": 89.99997750000003,
          "velocity": 0.7480314960629921,
          "duration": 0.2173912500000057
        },
        {
          "name": "A#1",
          "midi": 34,
          "time": 90.21736875000003,
          "velocity": 0.7480314960629921,
          "duration": 0.2173912500000057
        },
        {
          "name": "F1",
          "midi": 29,
          "time": 90.43476000000004,
          "velocity": 0.7480314960629921,
          "duration": 0.2173912500000057
        },
        {
          "name": "F1",
          "midi": 29,
          "time": 90.65215125000005,
          "velocity": 0.7480314960629921,
          "duration": 0.2173912500000057
        },
        {
          "name": "F1",
          "midi": 29,
          "time": 90.86954250000005,
          "velocity": 0.7480314960629921,
          "duration": 0.2173912500000057
        },
        {
          "name": "F1",
          "midi": 29,
          "time": 91.08693375000006,
          "velocity": 0.7480314960629921,
          "duration": 0.10869562499999574
        },
        {
          "name": "F1",
          "midi": 29,
          "time": 91.19562937500005,
          "velocity": 0.7480314960629921,
          "duration": 0.10869562499999574
        },
        {
          "name": "A#1",
          "midi": 34,
          "time": 91.30432500000005,
          "velocity": 0.7480314960629921,
          "duration": 0.2173912500000057
        },
        {
          "name": "A#1",
          "midi": 34,
          "time": 91.52171625000005,
          "velocity": 0.7480314960629921,
          "duration": 0.2173912500000057
        },
        {
          "name": "A#1",
          "midi": 34,
          "time": 91.73910750000006,
          "velocity": 0.7480314960629921,
          "duration": 0.2173912500000057
        },
        {
          "name": "A#1",
          "midi": 34,
          "time": 91.95649875000007,
          "velocity": 0.7480314960629921,
          "duration": 0.2173912500000057
        },
        {
          "name": "G1",
          "midi": 31,
          "time": 92.17389000000007,
          "velocity": 0.7480314960629921,
          "duration": 0.2173912500000057
        },
        {
          "name": "G1",
          "midi": 31,
          "time": 92.39128125000008,
          "velocity": 0.7480314960629921,
          "duration": 0.2173912500000057
        },
        {
          "name": "G1",
          "midi": 31,
          "time": 92.60867250000008,
          "velocity": 0.7480314960629921,
          "duration": 0.2173912500000057
        },
        {
          "name": "G1",
          "midi": 31,
          "time": 92.82606375000009,
          "velocity": 0.7480314960629921,
          "duration": 0.10869562499999574
        },
        {
          "name": "G1",
          "midi": 31,
          "time": 92.93475937500008,
          "velocity": 0.7480314960629921,
          "duration": 0.10869562499999574
        },
        {
          "name": "A#1",
          "midi": 34,
          "time": 93.04345500000008,
          "velocity": 0.7480314960629921,
          "duration": 0.2173912500000057
        },
        {
          "name": "A#1",
          "midi": 34,
          "time": 93.26084625000009,
          "velocity": 0.7480314960629921,
          "duration": 0.2173912500000057
        },
        {
          "name": "A#1",
          "midi": 34,
          "time": 93.47823750000009,
          "velocity": 0.7480314960629921,
          "duration": 0.2173912500000057
        },
        {
          "name": "A#1",
          "midi": 34,
          "time": 93.6956287500001,
          "velocity": 0.7480314960629921,
          "duration": 0.2173912500000057
        },
        {
          "name": "F1",
          "midi": 29,
          "time": 93.9130200000001,
          "velocity": 0.7480314960629921,
          "duration": 0.2173912500000057
        },
        {
          "name": "F1",
          "midi": 29,
          "time": 94.13041125000011,
          "velocity": 0.7480314960629921,
          "duration": 0.2173912500000057
        },
        {
          "name": "F1",
          "midi": 29,
          "time": 94.34780250000011,
          "velocity": 0.7480314960629921,
          "duration": 0.2173912500000057
        },
        {
          "name": "F1",
          "midi": 29,
          "time": 94.56519375000012,
          "velocity": 0.7480314960629921,
          "duration": 0.10869562499999574
        },
        {
          "name": "F1",
          "midi": 29,
          "time": 94.67388937500012,
          "velocity": 0.7480314960629921,
          "duration": 0.10869562499999574
        },
        {
          "name": "A#1",
          "midi": 34,
          "time": 94.78258500000011,
          "velocity": 0.7480314960629921,
          "duration": 0.2173912500000057
        },
        {
          "name": "A#1",
          "midi": 34,
          "time": 94.99997625000012,
          "velocity": 0.7480314960629921,
          "duration": 0.2173912500000057
        },
        {
          "name": "A#1",
          "midi": 34,
          "time": 95.21736750000012,
          "velocity": 0.7480314960629921,
          "duration": 0.2173912500000057
        },
        {
          "name": "A#1",
          "midi": 34,
          "time": 95.43475875000013,
          "velocity": 0.7480314960629921,
          "duration": 0.2173912500000057
        },
        {
          "name": "G1",
          "midi": 31,
          "time": 95.65215000000013,
          "velocity": 0.7480314960629921,
          "duration": 0.2173912500000057
        },
        {
          "name": "G1",
          "midi": 31,
          "time": 95.86954125000014,
          "velocity": 0.7480314960629921,
          "duration": 0.2173912500000057
        },
        {
          "name": "G1",
          "midi": 31,
          "time": 96.08693250000015,
          "velocity": 0.7480314960629921,
          "duration": 0.2173912500000057
        },
        {
          "name": "G1",
          "midi": 31,
          "time": 96.30432375000015,
          "velocity": 0.7480314960629921,
          "duration": 0.10869562499999574
        },
        {
          "name": "G1",
          "midi": 31,
          "time": 96.41301937500015,
          "velocity": 0.7480314960629921,
          "duration": 0.10869562499999574
        },
        {
          "name": "A#1",
          "midi": 34,
          "time": 96.52171500000014,
          "velocity": 0.7480314960629921,
          "duration": 0.2173912500000057
        },
        {
          "name": "A#1",
          "midi": 34,
          "time": 96.73910625000015,
          "velocity": 0.7480314960629921,
          "duration": 0.2173912500000057
        },
        {
          "name": "A#1",
          "midi": 34,
          "time": 96.95649750000015,
          "velocity": 0.7480314960629921,
          "duration": 0.2173912500000057
        },
        {
          "name": "A#1",
          "midi": 34,
          "time": 97.17388875000016,
          "velocity": 0.7480314960629921,
          "duration": 0.2173912500000057
        },
        {
          "name": "F1",
          "midi": 29,
          "time": 97.39128000000017,
          "velocity": 0.7480314960629921,
          "duration": 0.2173912500000057
        },
        {
          "name": "F1",
          "midi": 29,
          "time": 97.60867125000017,
          "velocity": 0.7480314960629921,
          "duration": 0.2173912500000057
        },
        {
          "name": "F1",
          "midi": 29,
          "time": 97.82606250000018,
          "velocity": 0.7480314960629921,
          "duration": 0.2173912500000057
        },
        {
          "name": "F1",
          "midi": 29,
          "time": 98.04345375000018,
          "velocity": 0.7480314960629921,
          "duration": 0.10869562499999574
        },
        {
          "name": "F1",
          "midi": 29,
          "time": 98.15214937500018,
          "velocity": 0.7480314960629921,
          "duration": 0.10869562499999574
        },
        {
          "name": "A#1",
          "midi": 34,
          "time": 98.26084500000017,
          "velocity": 0.7480314960629921,
          "duration": 0.2173912500000057
        },
        {
          "name": "A#1",
          "midi": 34,
          "time": 98.47823625000018,
          "velocity": 0.7480314960629921,
          "duration": 0.2173912500000057
        },
        {
          "name": "A#1",
          "midi": 34,
          "time": 98.69562750000019,
          "velocity": 0.7480314960629921,
          "duration": 0.2173912500000057
        },
        {
          "name": "A#1",
          "midi": 34,
          "time": 98.91301875000019,
          "velocity": 0.7480314960629921,
          "duration": 0.2173912500000057
        },
        {
          "name": "G1",
          "midi": 31,
          "time": 99.1304100000002,
          "velocity": 0.7480314960629921,
          "duration": 0.2173912500000057
        },
        {
          "name": "G1",
          "midi": 31,
          "time": 99.3478012500002,
          "velocity": 0.7480314960629921,
          "duration": 0.2173912500000057
        },
        {
          "name": "G1",
          "midi": 31,
          "time": 99.56519250000021,
          "velocity": 0.7480314960629921,
          "duration": 0.2173912500000057
        },
        {
          "name": "G1",
          "midi": 31,
          "time": 99.78258375000021,
          "velocity": 0.7480314960629921,
          "duration": 0.10869562499999574
        },
        {
          "name": "G1",
          "midi": 31,
          "time": 99.89127937500021,
          "velocity": 0.7480314960629921,
          "duration": 0.10869562499999574
        },
        {
          "name": "A#1",
          "midi": 34,
          "time": 99.9999750000002,
          "velocity": 0.7480314960629921,
          "duration": 0.2173912500000057
        },
        {
          "name": "A#1",
          "midi": 34,
          "time": 100.21736625000021,
          "velocity": 0.7480314960629921,
          "duration": 0.2173912500000057
        },
        {
          "name": "A#1",
          "midi": 34,
          "time": 100.43475750000022,
          "velocity": 0.7480314960629921,
          "duration": 0.2173912500000057
        },
        {
          "name": "A#1",
          "midi": 34,
          "time": 100.65214875000022,
          "velocity": 0.7480314960629921,
          "duration": 0.2173912500000057
        },
        {
          "name": "A#1",
          "midi": 34,
          "time": 100.86954000000023,
          "velocity": 0.7480314960629921,
          "duration": 0.2173912500000057
        },
        {
          "name": "A#1",
          "midi": 34,
          "time": 101.08693125000023,
          "velocity": 0.7480314960629921,
          "duration": 0.2173912500000057
        },
        {
          "name": "A#1",
          "midi": 34,
          "time": 101.30432250000024,
          "velocity": 0.7480314960629921,
          "duration": 0.2173912500000057
        },
        {
          "name": "A#1",
          "midi": 34,
          "time": 101.52171375000025,
          "velocity": 0.7480314960629921,
          "duration": 0.2173912500000057
        },
        {
          "name": "F1",
          "midi": 29,
          "time": 101.73910500000025,
          "velocity": 0.7480314960629921,
          "duration": 0.2173912500000057
        },
        {
          "name": "F1",
          "midi": 29,
          "time": 101.95649625000026,
          "velocity": 0.7480314960629921,
          "duration": 0.2173912500000057
        },
        {
          "name": "F1",
          "midi": 29,
          "time": 102.17388750000026,
          "velocity": 0.7480314960629921,
          "duration": 0.2173912500000057
        },
        {
          "name": "F1",
          "midi": 29,
          "time": 102.39127875000027,
          "velocity": 0.7480314960629921,
          "duration": 0.2173912500000057
        },
        {
          "name": "C2",
          "midi": 36,
          "time": 102.60867000000027,
          "velocity": 0.7480314960629921,
          "duration": 0.2173912500000057
        },
        {
          "name": "C2",
          "midi": 36,
          "time": 102.82606125000028,
          "velocity": 0.7480314960629921,
          "duration": 0.2173912500000057
        },
        {
          "name": "C2",
          "midi": 36,
          "time": 103.04345250000028,
          "velocity": 0.7480314960629921,
          "duration": 0.2173912500000057
        },
        {
          "name": "C2",
          "midi": 36,
          "time": 103.26084375000029,
          "velocity": 0.7480314960629921,
          "duration": 0.2173912500000057
        },
        {
          "name": "F1",
          "midi": 29,
          "time": 103.4782350000003,
          "velocity": 0.7480314960629921,
          "duration": 0.2173912500000057
        },
        {
          "name": "F1",
          "midi": 29,
          "time": 103.6956262500003,
          "velocity": 0.7480314960629921,
          "duration": 0.2173912500000057
        },
        {
          "name": "F1",
          "midi": 29,
          "time": 103.91301750000031,
          "velocity": 0.7480314960629921,
          "duration": 0.2173912500000057
        },
        {
          "name": "F1",
          "midi": 29,
          "time": 104.13040875000031,
          "velocity": 0.7480314960629921,
          "duration": 0.2173912500000057
        },
        {
          "name": "D2",
          "midi": 38,
          "time": 104.34780000000032,
          "velocity": 0.7480314960629921,
          "duration": 0.2173912500000057
        },
        {
          "name": "D2",
          "midi": 38,
          "time": 104.56519125000032,
          "velocity": 0.7480314960629921,
          "duration": 0.2173912500000057
        },
        {
          "name": "D2",
          "midi": 38,
          "time": 104.78258250000033,
          "velocity": 0.7480314960629921,
          "duration": 0.2173912500000057
        },
        {
          "name": "D2",
          "midi": 38,
          "time": 104.99997375000034,
          "velocity": 0.7480314960629921,
          "duration": 0.2173912500000057
        },
        {
          "name": "A1",
          "midi": 33,
          "time": 105.21736500000034,
          "velocity": 0.7480314960629921,
          "duration": 0.2173912500000057
        },
        {
          "name": "A1",
          "midi": 33,
          "time": 105.43475625000035,
          "velocity": 0.7480314960629921,
          "duration": 0.2173912500000057
        },
        {
          "name": "A1",
          "midi": 33,
          "time": 105.65214750000035,
          "velocity": 0.7480314960629921,
          "duration": 0.2173912500000057
        },
        {
          "name": "A1",
          "midi": 33,
          "time": 105.86953875000036,
          "velocity": 0.7480314960629921,
          "duration": 0.2173912500000057
        },
        {
          "name": "A#1",
          "midi": 34,
          "time": 106.08693000000036,
          "velocity": 0.7480314960629921,
          "duration": 0.2173912500000057
        },
        {
          "name": "A#1",
          "midi": 34,
          "time": 106.30432125000037,
          "velocity": 0.7480314960629921,
          "duration": 0.2173912500000057
        },
        {
          "name": "A#1",
          "midi": 34,
          "time": 106.52171250000038,
          "velocity": 0.7480314960629921,
          "duration": 0.2173912500000057
        },
        {
          "name": "A#1",
          "midi": 34,
          "time": 106.73910375000038,
          "velocity": 0.7480314960629921,
          "duration": 0.2173912500000057
        },
        {
          "name": "C2",
          "midi": 36,
          "time": 106.95649500000039,
          "velocity": 0.7480314960629921,
          "duration": 0.2173912500000057
        },
        {
          "name": "C2",
          "midi": 36,
          "time": 107.1738862500004,
          "velocity": 0.7480314960629921,
          "duration": 0.2173912500000057
        },
        {
          "name": "C2",
          "midi": 36,
          "time": 107.3912775000004,
          "velocity": 0.7480314960629921,
          "duration": 0.2173912500000057
        },
        {
          "name": "C2",
          "midi": 36,
          "time": 107.6086687500004,
          "velocity": 0.7480314960629921,
          "duration": 0.2173912500000057
        },
        {
          "name": "F1",
          "midi": 29,
          "time": 107.82606000000041,
          "velocity": 0.7480314960629921,
          "duration": 0.2173912500000057
        },
        {
          "name": "F1",
          "midi": 29,
          "time": 108.04345125000042,
          "velocity": 0.7480314960629921,
          "duration": 0.2173912500000057
        },
        {
          "name": "F1",
          "midi": 29,
          "time": 108.26084250000042,
          "velocity": 0.7480314960629921,
          "duration": 0.2173912500000057
        },
        {
          "name": "F1",
          "midi": 29,
          "time": 108.47823375000043,
          "velocity": 0.7480314960629921,
          "duration": 0.2173912500000057
        },
        {
          "name": "A1",
          "midi": 33,
          "time": 108.69562500000043,
          "velocity": 0.7480314960629921,
          "duration": 0.2173912500000057
        },
        {
          "name": "A1",
          "midi": 33,
          "time": 108.91301625000044,
          "velocity": 0.7480314960629921,
          "duration": 0.2173912500000057
        },
        {
          "name": "A1",
          "midi": 33,
          "time": 109.13040750000044,
          "velocity": 0.7480314960629921,
          "duration": 0.2173912500000057
        },
        {
          "name": "A1",
          "midi": 33,
          "time": 109.34779875000045,
          "velocity": 0.7480314960629921,
          "duration": 0.2173912500000057
        },
        {
          "name": "C2",
          "midi": 36,
          "time": 109.56519000000046,
          "velocity": 0.7480314960629921,
          "duration": 0.2173912500000057
        },
        {
          "name": "C2",
          "midi": 36,
          "time": 109.78258125000046,
          "velocity": 0.7480314960629921,
          "duration": 0.2173912500000057
        },
        {
          "name": "C2",
          "midi": 36,
          "time": 109.99997250000047,
          "velocity": 0.7480314960629921,
          "duration": 0.2173912500000057
        },
        {
          "name": "C2",
          "midi": 36,
          "time": 110.21736375000047,
          "velocity": 0.7480314960629921,
          "duration": 0.2173912500000057
        },
        {
          "name": "D2",
          "midi": 38,
          "time": 110.43475500000048,
          "velocity": 0.7480314960629921,
          "duration": 0.2173912500000057
        },
        {
          "name": "D2",
          "midi": 38,
          "time": 110.65214625000048,
          "velocity": 0.7480314960629921,
          "duration": 0.2173912500000057
        },
        {
          "name": "D2",
          "midi": 38,
          "time": 110.86953750000049,
          "velocity": 0.7480314960629921,
          "duration": 0.2173912500000057
        },
        {
          "name": "D2",
          "midi": 38,
          "time": 111.0869287500005,
          "velocity": 0.7480314960629921,
          "duration": 0.2173912500000057
        },
        {
          "name": "A#1",
          "midi": 34,
          "time": 111.3043200000005,
          "velocity": 0.7480314960629921,
          "duration": 0.2173912500000057
        },
        {
          "name": "A#1",
          "midi": 34,
          "time": 111.52171125000051,
          "velocity": 0.7480314960629921,
          "duration": 0.2173912500000057
        },
        {
          "name": "A#1",
          "midi": 34,
          "time": 111.73910250000051,
          "velocity": 0.7480314960629921,
          "duration": 0.2173912500000057
        },
        {
          "name": "A#1",
          "midi": 34,
          "time": 111.95649375000052,
          "velocity": 0.7480314960629921,
          "duration": 0.2173912500000057
        },
        {
          "name": "C2",
          "midi": 36,
          "time": 112.17388500000052,
          "velocity": 0.7480314960629921,
          "duration": 0.2173912500000057
        },
        {
          "name": "C2",
          "midi": 36,
          "time": 112.39127625000053,
          "velocity": 0.7480314960629921,
          "duration": 0.2173912500000057
        },
        {
          "name": "C2",
          "midi": 36,
          "time": 112.60866750000054,
          "velocity": 0.7480314960629921,
          "duration": 0.2173912500000057
        },
        {
          "name": "C2",
          "midi": 36,
          "time": 112.82605875000054,
          "velocity": 0.7480314960629921,
          "duration": 0.2173912500000057
        },
        {
          "name": "G1",
          "midi": 31,
          "time": 113.04345000000055,
          "velocity": 0.7480314960629921,
          "duration": 0.2173912500000057
        },
        {
          "name": "G1",
          "midi": 31,
          "time": 113.26084125000055,
          "velocity": 0.7480314960629921,
          "duration": 0.2173912500000057
        },
        {
          "name": "G1",
          "midi": 31,
          "time": 113.47823250000056,
          "velocity": 0.7480314960629921,
          "duration": 0.2173912500000057
        },
        {
          "name": "G1",
          "midi": 31,
          "time": 113.69562375000056,
          "velocity": 0.7480314960629921,
          "duration": 0.2173912500000057
        },
        {
          "name": "C2",
          "midi": 36,
          "time": 114.34779750000057,
          "velocity": 0.7480314960629921,
          "duration": 0.2173912500000057
        },
        {
          "name": "C2",
          "midi": 36,
          "time": 114.56518875000057,
          "velocity": 0.7480314960629921,
          "duration": 0.2173912500000057
        },
        {
          "name": "F1",
          "midi": 29,
          "time": 114.78258000000058,
          "velocity": 0.7480314960629921,
          "duration": 0.2173912500000057
        },
        {
          "name": "F1",
          "midi": 29,
          "time": 114.99997125000058,
          "velocity": 0.7480314960629921,
          "duration": 0.2173912500000057
        },
        {
          "name": "F1",
          "midi": 29,
          "time": 115.21736250000059,
          "velocity": 0.7480314960629921,
          "duration": 0.2173912500000057
        },
        {
          "name": "F1",
          "midi": 29,
          "time": 115.4347537500006,
          "velocity": 0.7480314960629921,
          "duration": 0.2173912500000057
        },
        {
          "name": "A1",
          "midi": 33,
          "time": 115.6521450000006,
          "velocity": 0.7480314960629921,
          "duration": 0.2173912500000057
        },
        {
          "name": "A1",
          "midi": 33,
          "time": 115.8695362500006,
          "velocity": 0.7480314960629921,
          "duration": 0.2173912500000057
        },
        {
          "name": "A1",
          "midi": 33,
          "time": 116.08692750000061,
          "velocity": 0.7480314960629921,
          "duration": 0.2173912500000057
        },
        {
          "name": "A1",
          "midi": 33,
          "time": 116.30431875000062,
          "velocity": 0.7480314960629921,
          "duration": 0.2173912500000057
        },
        {
          "name": "C2",
          "midi": 36,
          "time": 116.52171000000062,
          "velocity": 0.7480314960629921,
          "duration": 0.2173912500000057
        },
        {
          "name": "C2",
          "midi": 36,
          "time": 116.73910125000063,
          "velocity": 0.7480314960629921,
          "duration": 0.2173912500000057
        },
        {
          "name": "C2",
          "midi": 36,
          "time": 116.95649250000064,
          "velocity": 0.7480314960629921,
          "duration": 0.2173912500000057
        },
        {
          "name": "C2",
          "midi": 36,
          "time": 117.17388375000064,
          "velocity": 0.7480314960629921,
          "duration": 0.2173912500000057
        },
        {
          "name": "D2",
          "midi": 38,
          "time": 117.39127500000065,
          "velocity": 0.7480314960629921,
          "duration": 0.2173912500000057
        },
        {
          "name": "D2",
          "midi": 38,
          "time": 117.60866625000065,
          "velocity": 0.7480314960629921,
          "duration": 0.2173912500000057
        },
        {
          "name": "D2",
          "midi": 38,
          "time": 117.82605750000066,
          "velocity": 0.7480314960629921,
          "duration": 0.2173912500000057
        },
        {
          "name": "D2",
          "midi": 38,
          "time": 118.04344875000066,
          "velocity": 0.7480314960629921,
          "duration": 0.2173912500000057
        },
        {
          "name": "A#1",
          "midi": 34,
          "time": 118.26084000000067,
          "velocity": 0.7480314960629921,
          "duration": 0.2173912500000057
        },
        {
          "name": "A#1",
          "midi": 34,
          "time": 118.47823125000068,
          "velocity": 0.7480314960629921,
          "duration": 0.2173912500000057
        },
        {
          "name": "A#1",
          "midi": 34,
          "time": 118.69562250000068,
          "velocity": 0.7480314960629921,
          "duration": 0.2173912500000057
        },
        {
          "name": "A#1",
          "midi": 34,
          "time": 118.91301375000069,
          "velocity": 0.7480314960629921,
          "duration": 0.2173912500000057
        },
        {
          "name": "C2",
          "midi": 36,
          "time": 119.13040500000069,
          "velocity": 0.7480314960629921,
          "duration": 0.2173912500000057
        },
        {
          "name": "C2",
          "midi": 36,
          "time": 119.3477962500007,
          "velocity": 0.7480314960629921,
          "duration": 0.2173912500000057
        },
        {
          "name": "C2",
          "midi": 36,
          "time": 119.5651875000007,
          "velocity": 0.7480314960629921,
          "duration": 0.2173912500000057
        },
        {
          "name": "C2",
          "midi": 36,
          "time": 119.78257875000071,
          "velocity": 0.7480314960629921,
          "duration": 0.2173912500000057
        },
        {
          "name": "G1",
          "midi": 31,
          "time": 119.99997000000072,
          "velocity": 0.7480314960629921,
          "duration": 0.2173912500000057
        },
        {
          "name": "G1",
          "midi": 31,
          "time": 120.21736125000072,
          "velocity": 0.7480314960629921,
          "duration": 0.2173912500000057
        },
        {
          "name": "G1",
          "midi": 31,
          "time": 120.43475250000073,
          "velocity": 0.7480314960629921,
          "duration": 0.2173912500000057
        },
        {
          "name": "G1",
          "midi": 31,
          "time": 120.65214375000073,
          "velocity": 0.7480314960629921,
          "duration": 0.2173912500000057
        },
        {
          "name": "C2",
          "midi": 36,
          "time": 121.30431750000074,
          "velocity": 0.7480314960629921,
          "duration": 0.2173912500000057
        },
        {
          "name": "C2",
          "midi": 36,
          "time": 121.52170875000074,
          "velocity": 0.7480314960629921,
          "duration": 0.2173912500000057
        },
        {
          "name": "F1",
          "midi": 29,
          "time": 121.73910000000075,
          "velocity": 0.7480314960629921,
          "duration": 0.2173912500000057
        },
        {
          "name": "F1",
          "midi": 29,
          "time": 121.95649125000075,
          "velocity": 0.7480314960629921,
          "duration": 0.2173912500000057
        },
        {
          "name": "F1",
          "midi": 29,
          "time": 122.17388250000076,
          "velocity": 0.7480314960629921,
          "duration": 0.2173912500000057
        },
        {
          "name": "F1",
          "midi": 29,
          "time": 122.39127375000076,
          "velocity": 0.7480314960629921,
          "duration": 0.10869562499999574
        },
        {
          "name": "F1",
          "midi": 29,
          "time": 122.49996937500076,
          "velocity": 0.7480314960629921,
          "duration": 0.10869562499999574
        },
        {
          "name": "A#1",
          "midi": 34,
          "time": 122.60866500000076,
          "velocity": 0.7480314960629921,
          "duration": 0.2173912500000057
        },
        {
          "name": "A#1",
          "midi": 34,
          "time": 122.82605625000076,
          "velocity": 0.7480314960629921,
          "duration": 0.2173912500000057
        },
        {
          "name": "A#1",
          "midi": 34,
          "time": 123.04344750000077,
          "velocity": 0.7480314960629921,
          "duration": 0.2173912500000057
        },
        {
          "name": "A#1",
          "midi": 34,
          "time": 123.26083875000077,
          "velocity": 0.7480314960629921,
          "duration": 0.2173912500000057
        },
        {
          "name": "G1",
          "midi": 31,
          "time": 123.47823000000078,
          "velocity": 0.7480314960629921,
          "duration": 0.2173912500000057
        },
        {
          "name": "G1",
          "midi": 31,
          "time": 123.69562125000078,
          "velocity": 0.7480314960629921,
          "duration": 0.2173912500000057
        },
        {
          "name": "G1",
          "midi": 31,
          "time": 123.91301250000079,
          "velocity": 0.7480314960629921,
          "duration": 0.2173912500000057
        },
        {
          "name": "G1",
          "midi": 31,
          "time": 124.1304037500008,
          "velocity": 0.7480314960629921,
          "duration": 0.10869562499999574
        },
        {
          "name": "G1",
          "midi": 31,
          "time": 124.23909937500079,
          "velocity": 0.7480314960629921,
          "duration": 0.10869562499999574
        },
        {
          "name": "A#1",
          "midi": 34,
          "time": 124.34779500000079,
          "velocity": 0.7480314960629921,
          "duration": 0.2173912500000057
        },
        {
          "name": "A#1",
          "midi": 34,
          "time": 124.56518625000079,
          "velocity": 0.7480314960629921,
          "duration": 0.2173912500000057
        },
        {
          "name": "A#1",
          "midi": 34,
          "time": 124.7825775000008,
          "velocity": 0.7480314960629921,
          "duration": 0.2173912500000057
        },
        {
          "name": "A#1",
          "midi": 34,
          "time": 124.9999687500008,
          "velocity": 0.7480314960629921,
          "duration": 0.2173912500000057
        },
        {
          "name": "F1",
          "midi": 29,
          "time": 125.21736000000081,
          "velocity": 0.7480314960629921,
          "duration": 0.2173912500000057
        },
        {
          "name": "F1",
          "midi": 29,
          "time": 125.43475125000082,
          "velocity": 0.7480314960629921,
          "duration": 0.2173912500000057
        },
        {
          "name": "F1",
          "midi": 29,
          "time": 125.65214250000082,
          "velocity": 0.7480314960629921,
          "duration": 0.2173912500000057
        },
        {
          "name": "F1",
          "midi": 29,
          "time": 125.86953375000083,
          "velocity": 0.7480314960629921,
          "duration": 0.10869562499999574
        },
        {
          "name": "F1",
          "midi": 29,
          "time": 125.97822937500082,
          "velocity": 0.7480314960629921,
          "duration": 0.10869562499999574
        },
        {
          "name": "A#1",
          "midi": 34,
          "time": 126.08692500000082,
          "velocity": 0.7480314960629921,
          "duration": 0.2173912500000057
        },
        {
          "name": "A#1",
          "midi": 34,
          "time": 126.30431625000082,
          "velocity": 0.7480314960629921,
          "duration": 0.2173912500000057
        },
        {
          "name": "A#1",
          "midi": 34,
          "time": 126.52170750000083,
          "velocity": 0.7480314960629921,
          "duration": 0.2173912500000057
        },
        {
          "name": "A#1",
          "midi": 34,
          "time": 126.73909875000084,
          "velocity": 0.7480314960629921,
          "duration": 0.2173912500000057
        },
        {
          "name": "G1",
          "midi": 31,
          "time": 126.95649000000084,
          "velocity": 0.7480314960629921,
          "duration": 0.2173912500000057
        },
        {
          "name": "G1",
          "midi": 31,
          "time": 127.17388125000085,
          "velocity": 0.7480314960629921,
          "duration": 0.2173912500000057
        },
        {
          "name": "G1",
          "midi": 31,
          "time": 127.39127250000085,
          "velocity": 0.7480314960629921,
          "duration": 0.2173912500000057
        },
        {
          "name": "G1",
          "midi": 31,
          "time": 127.60866375000086,
          "velocity": 0.7480314960629921,
          "duration": 0.10869562499999574
        },
        {
          "name": "G1",
          "midi": 31,
          "time": 127.71735937500085,
          "velocity": 0.7480314960629921,
          "duration": 0.10869562499999574
        },
        {
          "name": "A#1",
          "midi": 34,
          "time": 127.82605500000085,
          "velocity": 0.7480314960629921,
          "duration": 0.2173912499999915
        },
        {
          "name": "A#1",
          "midi": 34,
          "time": 128.04344625000084,
          "velocity": 0.7480314960629921,
          "duration": 0.2173912499999915
        },
        {
          "name": "A#1",
          "midi": 34,
          "time": 128.26083750000083,
          "velocity": 0.7480314960629921,
          "duration": 0.2173912499999915
        },
        {
          "name": "A#1",
          "midi": 34,
          "time": 128.47822875000082,
          "velocity": 0.7480314960629921,
          "duration": 0.2173912499999915
        },
        {
          "name": "F1",
          "midi": 29,
          "time": 128.69562000000082,
          "velocity": 0.7480314960629921,
          "duration": 0.2173912499999915
        },
        {
          "name": "F1",
          "midi": 29,
          "time": 128.9130112500008,
          "velocity": 0.7480314960629921,
          "duration": 0.2173912499999915
        },
        {
          "name": "F1",
          "midi": 29,
          "time": 129.1304025000008,
          "velocity": 0.7480314960629921,
          "duration": 0.2173912499999915
        },
        {
          "name": "F1",
          "midi": 29,
          "time": 129.3477937500008,
          "velocity": 0.7480314960629921,
          "duration": 0.10869562499999574
        },
        {
          "name": "F1",
          "midi": 29,
          "time": 129.45648937500079,
          "velocity": 0.7480314960629921,
          "duration": 0.10869562499999574
        },
        {
          "name": "A#1",
          "midi": 34,
          "time": 129.56518500000078,
          "velocity": 0.7480314960629921,
          "duration": 0.2173912499999915
        },
        {
          "name": "A#1",
          "midi": 34,
          "time": 129.78257625000077,
          "velocity": 0.7480314960629921,
          "duration": 0.2173912499999915
        },
        {
          "name": "A#1",
          "midi": 34,
          "time": 129.99996750000076,
          "velocity": 0.7480314960629921,
          "duration": 0.2173912499999915
        },
        {
          "name": "A#1",
          "midi": 34,
          "time": 130.21735875000076,
          "velocity": 0.7480314960629921,
          "duration": 0.2173912499999915
        },
        {
          "name": "G1",
          "midi": 31,
          "time": 130.43475000000075,
          "velocity": 0.7480314960629921,
          "duration": 0.2173912499999915
        },
        {
          "name": "G1",
          "midi": 31,
          "time": 130.65214125000074,
          "velocity": 0.7480314960629921,
          "duration": 0.2173912499999915
        },
        {
          "name": "G1",
          "midi": 31,
          "time": 130.86953250000073,
          "velocity": 0.7480314960629921,
          "duration": 0.2173912499999915
        },
        {
          "name": "G1",
          "midi": 31,
          "time": 131.08692375000072,
          "velocity": 0.7480314960629921,
          "duration": 0.10869562499999574
        },
        {
          "name": "G1",
          "midi": 31,
          "time": 131.19561937500072,
          "velocity": 0.7480314960629921,
          "duration": 0.10869562499999574
        },
        {
          "name": "A#1",
          "midi": 34,
          "time": 131.3043150000007,
          "velocity": 0.7480314960629921,
          "duration": 0.2173912499999915
        },
        {
          "name": "A#1",
          "midi": 34,
          "time": 131.5217062500007,
          "velocity": 0.7480314960629921,
          "duration": 0.2173912499999915
        },
        {
          "name": "A#1",
          "midi": 34,
          "time": 131.7390975000007,
          "velocity": 0.7480314960629921,
          "duration": 0.2173912499999915
        },
        {
          "name": "A#1",
          "midi": 34,
          "time": 131.9564887500007,
          "velocity": 0.7480314960629921,
          "duration": 0.2173912499999915
        },
        {
          "name": "F1",
          "midi": 29,
          "time": 132.17388000000068,
          "velocity": 0.7480314960629921,
          "duration": 0.2173912499999915
        },
        {
          "name": "F1",
          "midi": 29,
          "time": 132.39127125000067,
          "velocity": 0.7480314960629921,
          "duration": 0.2173912499999915
        },
        {
          "name": "F1",
          "midi": 29,
          "time": 132.60866250000066,
          "velocity": 0.7480314960629921,
          "duration": 0.2173912499999915
        },
        {
          "name": "F1",
          "midi": 29,
          "time": 132.82605375000065,
          "velocity": 0.7480314960629921,
          "duration": 0.10869562499999574
        },
        {
          "name": "F1",
          "midi": 29,
          "time": 132.93474937500065,
          "velocity": 0.7480314960629921,
          "duration": 0.10869562499999574
        },
        {
          "name": "A#1",
          "midi": 34,
          "time": 133.04344500000064,
          "velocity": 0.7480314960629921,
          "duration": 0.2173912499999915
        },
        {
          "name": "A#1",
          "midi": 34,
          "time": 133.26083625000064,
          "velocity": 0.7480314960629921,
          "duration": 0.2173912499999915
        },
        {
          "name": "A#1",
          "midi": 34,
          "time": 133.47822750000063,
          "velocity": 0.7480314960629921,
          "duration": 0.2173912499999915
        },
        {
          "name": "A#1",
          "midi": 34,
          "time": 133.69561875000062,
          "velocity": 0.7480314960629921,
          "duration": 0.2173912499999915
        },
        {
          "name": "G1",
          "midi": 31,
          "time": 133.9130100000006,
          "velocity": 0.7480314960629921,
          "duration": 0.2173912499999915
        },
        {
          "name": "G1",
          "midi": 31,
          "time": 134.1304012500006,
          "velocity": 0.7480314960629921,
          "duration": 0.2173912499999915
        },
        {
          "name": "G1",
          "midi": 31,
          "time": 134.3477925000006,
          "velocity": 0.7480314960629921,
          "duration": 0.2173912499999915
        },
        {
          "name": "G1",
          "midi": 31,
          "time": 134.56518375000059,
          "velocity": 0.7480314960629921,
          "duration": 0.10869562499999574
        },
        {
          "name": "G1",
          "midi": 31,
          "time": 134.67387937500058,
          "velocity": 0.7480314960629921,
          "duration": 0.10869562499999574
        },
        {
          "name": "A#1",
          "midi": 34,
          "time": 134.78257500000058,
          "velocity": 0.7480314960629921,
          "duration": 0.2173912499999915
        },
        {
          "name": "A#1",
          "midi": 34,
          "time": 134.99996625000057,
          "velocity": 0.7480314960629921,
          "duration": 0.2173912499999915
        },
        {
          "name": "A#1",
          "midi": 34,
          "time": 135.21735750000056,
          "velocity": 0.7480314960629921,
          "duration": 0.2173912499999915
        },
        {
          "name": "A#1",
          "midi": 34,
          "time": 135.43474875000055,
          "velocity": 0.7480314960629921,
          "duration": 0.2173912499999915
        },
        {
          "name": "F1",
          "midi": 29,
          "time": 135.65214000000054,
          "velocity": 0.7480314960629921,
          "duration": 0.2173912499999915
        },
        {
          "name": "F1",
          "midi": 29,
          "time": 135.86953125000053,
          "velocity": 0.7480314960629921,
          "duration": 0.2173912499999915
        },
        {
          "name": "F1",
          "midi": 29,
          "time": 136.08692250000053,
          "velocity": 0.7480314960629921,
          "duration": 0.2173912499999915
        },
        {
          "name": "F1",
          "midi": 29,
          "time": 136.30431375000052,
          "velocity": 0.7480314960629921,
          "duration": 0.10869562499999574
        },
        {
          "name": "F1",
          "midi": 29,
          "time": 136.4130093750005,
          "velocity": 0.7480314960629921,
          "duration": 0.10869562499999574
        },
        {
          "name": "A#1",
          "midi": 34,
          "time": 136.5217050000005,
          "velocity": 0.7480314960629921,
          "duration": 0.2173912499999915
        },
        {
          "name": "A#1",
          "midi": 34,
          "time": 136.7390962500005,
          "velocity": 0.7480314960629921,
          "duration": 0.2173912499999915
        },
        {
          "name": "A#1",
          "midi": 34,
          "time": 136.9564875000005,
          "velocity": 0.7480314960629921,
          "duration": 0.2173912499999915
        },
        {
          "name": "A#1",
          "midi": 34,
          "time": 137.17387875000048,
          "velocity": 0.7480314960629921,
          "duration": 0.2173912499999915
        },
        {
          "name": "G1",
          "midi": 31,
          "time": 137.39127000000047,
          "velocity": 0.7480314960629921,
          "duration": 0.2173912499999915
        },
        {
          "name": "G1",
          "midi": 31,
          "time": 137.60866125000047,
          "velocity": 0.7480314960629921,
          "duration": 0.2173912499999915
        },
        {
          "name": "G1",
          "midi": 31,
          "time": 137.82605250000046,
          "velocity": 0.7480314960629921,
          "duration": 0.2173912499999915
        },
        {
          "name": "G1",
          "midi": 31,
          "time": 138.04344375000045,
          "velocity": 0.7480314960629921,
          "duration": 0.10869562499999574
        },
        {
          "name": "G1",
          "midi": 31,
          "time": 138.15213937500044,
          "velocity": 0.7480314960629921,
          "duration": 0.10869562499999574
        },
        {
          "name": "A#1",
          "midi": 34,
          "time": 138.26083500000044,
          "velocity": 0.7480314960629921,
          "duration": 0.2173912499999915
        },
        {
          "name": "A#1",
          "midi": 34,
          "time": 138.47822625000043,
          "velocity": 0.7480314960629921,
          "duration": 0.2173912499999915
        },
        {
          "name": "A#1",
          "midi": 34,
          "time": 138.69561750000042,
          "velocity": 0.7480314960629921,
          "duration": 0.2173912499999915
        },
        {
          "name": "A#1",
          "midi": 34,
          "time": 138.91300875000042,
          "velocity": 0.7480314960629921,
          "duration": 0.2173912499999915
        },
        {
          "name": "F1",
          "midi": 29,
          "time": 139.1304000000004,
          "velocity": 0.7480314960629921,
          "duration": 0.2173912499999915
        },
        {
          "name": "F1",
          "midi": 29,
          "time": 139.3477912500004,
          "velocity": 0.7480314960629921,
          "duration": 0.2173912499999915
        },
        {
          "name": "F1",
          "midi": 29,
          "time": 139.5651825000004,
          "velocity": 0.7480314960629921,
          "duration": 0.2173912499999915
        },
        {
          "name": "F1",
          "midi": 29,
          "time": 139.78257375000038,
          "velocity": 0.7480314960629921,
          "duration": 0.10869562499999574
        },
        {
          "name": "F1",
          "midi": 29,
          "time": 139.89126937500038,
          "velocity": 0.7480314960629921,
          "duration": 0.10869562499999574
        },
        {
          "name": "A#1",
          "midi": 34,
          "time": 139.99996500000037,
          "velocity": 0.7480314960629921,
          "duration": 0.2173912499999915
        },
        {
          "name": "A#1",
          "midi": 34,
          "time": 140.21735625000036,
          "velocity": 0.7480314960629921,
          "duration": 0.2173912499999915
        },
        {
          "name": "A#1",
          "midi": 34,
          "time": 140.43474750000036,
          "velocity": 0.7480314960629921,
          "duration": 0.2173912499999915
        },
        {
          "name": "A#1",
          "midi": 34,
          "time": 140.65213875000035,
          "velocity": 0.7480314960629921,
          "duration": 0.2173912499999915
        },
        {
          "name": "G1",
          "midi": 31,
          "time": 140.86953000000034,
          "velocity": 0.7480314960629921,
          "duration": 0.2173912499999915
        },
        {
          "name": "G1",
          "midi": 31,
          "time": 141.08692125000033,
          "velocity": 0.7480314960629921,
          "duration": 0.2173912499999915
        },
        {
          "name": "G1",
          "midi": 31,
          "time": 141.30431250000032,
          "velocity": 0.7480314960629921,
          "duration": 0.2173912499999915
        },
        {
          "name": "G1",
          "midi": 31,
          "time": 141.5217037500003,
          "velocity": 0.7480314960629921,
          "duration": 0.10869562499999574
        },
        {
          "name": "G1",
          "midi": 31,
          "time": 141.6303993750003,
          "velocity": 0.7480314960629921,
          "duration": 0.10869562499999574
        },
        {
          "name": "A#1",
          "midi": 34,
          "time": 141.7390950000003,
          "velocity": 0.7480314960629921,
          "duration": 0.2173912499999915
        },
        {
          "name": "A#1",
          "midi": 34,
          "time": 141.9564862500003,
          "velocity": 0.7480314960629921,
          "duration": 0.2173912499999915
        },
        {
          "name": "A#1",
          "midi": 34,
          "time": 142.1738775000003,
          "velocity": 0.7480314960629921,
          "duration": 0.2173912499999915
        },
        {
          "name": "A#1",
          "midi": 34,
          "time": 142.39126875000028,
          "velocity": 0.7480314960629921,
          "duration": 0.2173912499999915
        },
        {
          "name": "F1",
          "midi": 29,
          "time": 142.60866000000027,
          "velocity": 0.7480314960629921,
          "duration": 0.2173912499999915
        },
        {
          "name": "F1",
          "midi": 29,
          "time": 142.82605125000026,
          "velocity": 0.7480314960629921,
          "duration": 0.2173912499999915
        },
        {
          "name": "F1",
          "midi": 29,
          "time": 143.04344250000025,
          "velocity": 0.7480314960629921,
          "duration": 0.2173912499999915
        },
        {
          "name": "F1",
          "midi": 29,
          "time": 143.26083375000024,
          "velocity": 0.7480314960629921,
          "duration": 0.10869562499999574
        },
        {
          "name": "F1",
          "midi": 29,
          "time": 143.36952937500024,
          "velocity": 0.7480314960629921,
          "duration": 0.10869562499999574
        },
        {
          "name": "A#1",
          "midi": 34,
          "time": 143.47822500000024,
          "velocity": 0.7480314960629921,
          "duration": 0.2173912499999915
        },
        {
          "name": "A#1",
          "midi": 34,
          "time": 143.69561625000023,
          "velocity": 0.7480314960629921,
          "duration": 0.2173912499999915
        },
        {
          "name": "A#1",
          "midi": 34,
          "time": 143.91300750000022,
          "velocity": 0.7480314960629921,
          "duration": 0.2173912499999915
        },
        {
          "name": "A#1",
          "midi": 34,
          "time": 144.1303987500002,
          "velocity": 0.7480314960629921,
          "duration": 0.2173912499999915
        },
        {
          "name": "G1",
          "midi": 31,
          "time": 144.3477900000002,
          "velocity": 0.7480314960629921,
          "duration": 0.2173912499999915
        },
        {
          "name": "G1",
          "midi": 31,
          "time": 144.5651812500002,
          "velocity": 0.7480314960629921,
          "duration": 0.2173912499999915
        },
        {
          "name": "G1",
          "midi": 31,
          "time": 144.78257250000019,
          "velocity": 0.7480314960629921,
          "duration": 0.2173912499999915
        },
        {
          "name": "G1",
          "midi": 31,
          "time": 144.99996375000018,
          "velocity": 0.7480314960629921,
          "duration": 0.10869562499999574
        },
        {
          "name": "G1",
          "midi": 31,
          "time": 145.10865937500017,
          "velocity": 0.7480314960629921,
          "duration": 0.10869562499999574
        },
        {
          "name": "A#1",
          "midi": 34,
          "time": 145.21735500000017,
          "velocity": 0.7480314960629921,
          "duration": 0.2173912499999915
        },
        {
          "name": "A#1",
          "midi": 34,
          "time": 145.43474625000016,
          "velocity": 0.7480314960629921,
          "duration": 0.2173912499999915
        },
        {
          "name": "A#1",
          "midi": 34,
          "time": 145.65213750000015,
          "velocity": 0.7480314960629921,
          "duration": 0.2173912499999915
        },
        {
          "name": "A#1",
          "midi": 34,
          "time": 145.86952875000014,
          "velocity": 0.7480314960629921,
          "duration": 0.2173912499999915
        },
        {
          "name": "F1",
          "midi": 29,
          "time": 146.08692000000013,
          "velocity": 0.7480314960629921,
          "duration": 0.2173912499999915
        },
        {
          "name": "F1",
          "midi": 29,
          "time": 146.30431125000013,
          "velocity": 0.7480314960629921,
          "duration": 0.2173912499999915
        },
        {
          "name": "F1",
          "midi": 29,
          "time": 146.52170250000012,
          "velocity": 0.7480314960629921,
          "duration": 0.2173912499999915
        },
        {
          "name": "F1",
          "midi": 29,
          "time": 146.7390937500001,
          "velocity": 0.7480314960629921,
          "duration": 0.10869562499999574
        },
        {
          "name": "F1",
          "midi": 29,
          "time": 146.8477893750001,
          "velocity": 0.7480314960629921,
          "duration": 0.10869562499999574
        },
        {
          "name": "A#1",
          "midi": 34,
          "time": 146.9564850000001,
          "velocity": 0.7480314960629921,
          "duration": 0.2173912499999915
        },
        {
          "name": "A#1",
          "midi": 34,
          "time": 147.1738762500001,
          "velocity": 0.7480314960629921,
          "duration": 0.2173912499999915
        },
        {
          "name": "A#1",
          "midi": 34,
          "time": 147.39126750000008,
          "velocity": 0.7480314960629921,
          "duration": 0.2173912499999915
        },
        {
          "name": "A#1",
          "midi": 34,
          "time": 147.60865875000007,
          "velocity": 0.7480314960629921,
          "duration": 0.2173912499999915
        },
        {
          "name": "G1",
          "midi": 31,
          "time": 147.82605000000007,
          "velocity": 0.7480314960629921,
          "duration": 0.2173912499999915
        },
        {
          "name": "G1",
          "midi": 31,
          "time": 148.04344125000006,
          "velocity": 0.7480314960629921,
          "duration": 0.2173912499999915
        },
        {
          "name": "G1",
          "midi": 31,
          "time": 148.26083250000005,
          "velocity": 0.7480314960629921,
          "duration": 0.2173912499999915
        },
        {
          "name": "G1",
          "midi": 31,
          "time": 148.47822375000004,
          "velocity": 0.7480314960629921,
          "duration": 0.10869562499999574
        },
        {
          "name": "G1",
          "midi": 31,
          "time": 148.58691937500004,
          "velocity": 0.7480314960629921,
          "duration": 0.10869562499999574
        },
        {
          "name": "A#1",
          "midi": 34,
          "time": 148.69561500000003,
          "velocity": 0.7480314960629921,
          "duration": 0.2173912499999915
        },
        {
          "name": "A#1",
          "midi": 34,
          "time": 148.91300625000002,
          "velocity": 0.7480314960629921,
          "duration": 0.2173912499999915
        },
        {
          "name": "A#1",
          "midi": 34,
          "time": 149.13039750000002,
          "velocity": 0.7480314960629921,
          "duration": 0.2173912499999915
        },
        {
          "name": "A#1",
          "midi": 34,
          "time": 149.34778875,
          "velocity": 0.7480314960629921,
          "duration": 0.2173912499999915
        },
        {
          "name": "F1",
          "midi": 29,
          "time": 149.56518,
          "velocity": 0.7480314960629921,
          "duration": 0.2173912499999915
        },
        {
          "name": "F1",
          "midi": 29,
          "time": 149.78257125,
          "velocity": 0.7480314960629921,
          "duration": 0.2173912499999915
        },
        {
          "name": "F1",
          "midi": 29,
          "time": 149.99996249999998,
          "velocity": 0.7480314960629921,
          "duration": 0.2173912499999915
        },
        {
          "name": "F1",
          "midi": 29,
          "time": 150.21735374999997,
          "velocity": 0.7480314960629921,
          "duration": 0.10869562499999574
        },
        {
          "name": "F1",
          "midi": 29,
          "time": 150.32604937499997,
          "velocity": 0.7480314960629921,
          "duration": 0.10869562499999574
        },
        {
          "name": "A#1",
          "midi": 34,
          "time": 150.43474499999996,
          "velocity": 0.7480314960629921,
          "duration": 0.2173912499999915
        },
        {
          "name": "A#1",
          "midi": 34,
          "time": 150.65213624999996,
          "velocity": 0.7480314960629921,
          "duration": 0.2173912499999915
        },
        {
          "name": "A#1",
          "midi": 34,
          "time": 150.86952749999995,
          "velocity": 0.7480314960629921,
          "duration": 0.2173912499999915
        },
        {
          "name": "A#1",
          "midi": 34,
          "time": 151.08691874999994,
          "velocity": 0.7480314960629921,
          "duration": 0.2173912499999915
        },
        {
          "name": "G1",
          "midi": 31,
          "time": 151.30430999999993,
          "velocity": 0.7480314960629921,
          "duration": 0.2173912499999915
        },
        {
          "name": "G1",
          "midi": 31,
          "time": 151.52170124999992,
          "velocity": 0.7480314960629921,
          "duration": 0.2173912499999915
        },
        {
          "name": "G1",
          "midi": 31,
          "time": 151.7390924999999,
          "velocity": 0.7480314960629921,
          "duration": 0.2173912499999915
        },
        {
          "name": "G1",
          "midi": 31,
          "time": 151.9564837499999,
          "velocity": 0.7480314960629921,
          "duration": 0.10869562499999574
        },
        {
          "name": "G1",
          "midi": 31,
          "time": 152.0651793749999,
          "velocity": 0.7480314960629921,
          "duration": 0.10869562499999574
        },
        {
          "name": "A#1",
          "midi": 34,
          "time": 152.1738749999999,
          "velocity": 0.7480314960629921,
          "duration": 0.2173912499999915
        },
        {
          "name": "A#1",
          "midi": 34,
          "time": 152.3912662499999,
          "velocity": 0.7480314960629921,
          "duration": 0.2173912499999915
        },
        {
          "name": "A#1",
          "midi": 34,
          "time": 152.60865749999988,
          "velocity": 0.7480314960629921,
          "duration": 0.2173912499999915
        },
        {
          "name": "A#1",
          "midi": 34,
          "time": 152.82604874999987,
          "velocity": 0.7480314960629921,
          "duration": 0.2173912499999915
        },
        {
          "name": "F1",
          "midi": 29,
          "time": 153.04343999999986,
          "velocity": 0.7480314960629921,
          "duration": 0.2173912499999915
        },
        {
          "name": "F1",
          "midi": 29,
          "time": 153.26083124999985,
          "velocity": 0.7480314960629921,
          "duration": 0.2173912499999915
        },
        {
          "name": "F1",
          "midi": 29,
          "time": 153.47822249999984,
          "velocity": 0.7480314960629921,
          "duration": 0.2173912499999915
        },
        {
          "name": "F1",
          "midi": 29,
          "time": 153.69561374999984,
          "velocity": 0.7480314960629921,
          "duration": 0.10869562499999574
        },
        {
          "name": "F1",
          "midi": 29,
          "time": 153.80430937499983,
          "velocity": 0.7480314960629921,
          "duration": 0.10869562499999574
        },
        {
          "name": "A#1",
          "midi": 34,
          "time": 153.91300499999983,
          "velocity": 0.7480314960629921,
          "duration": 0.2173912499999915
        },
        {
          "name": "A#1",
          "midi": 34,
          "time": 154.13039624999982,
          "velocity": 0.7480314960629921,
          "duration": 0.2173912499999915
        },
        {
          "name": "A#1",
          "midi": 34,
          "time": 154.3477874999998,
          "velocity": 0.7480314960629921,
          "duration": 0.2173912499999915
        },
        {
          "name": "A#1",
          "midi": 34,
          "time": 154.5651787499998,
          "velocity": 0.7480314960629921,
          "duration": 0.2173912499999915
        },
        {
          "name": "G1",
          "midi": 31,
          "time": 154.7825699999998,
          "velocity": 0.7480314960629921,
          "duration": 0.2173912499999915
        },
        {
          "name": "G1",
          "midi": 31,
          "time": 154.99996124999979,
          "velocity": 0.7480314960629921,
          "duration": 0.2173912499999915
        },
        {
          "name": "G1",
          "midi": 31,
          "time": 155.21735249999978,
          "velocity": 0.7480314960629921,
          "duration": 0.2173912499999915
        },
        {
          "name": "G1",
          "midi": 31,
          "time": 155.43474374999977,
          "velocity": 0.7480314960629921,
          "duration": 0.10869562499999574
        },
        {
          "name": "G1",
          "midi": 31,
          "time": 155.54343937499976,
          "velocity": 0.7480314960629921,
          "duration": 0.10869562499999574
        },
        {
          "name": "A#1",
          "midi": 34,
          "time": 155.65213499999976,
          "velocity": 0.7480314960629921,
          "duration": 0.2173912499999915
        },
        {
          "name": "A#1",
          "midi": 34,
          "time": 155.86952624999975,
          "velocity": 0.7480314960629921,
          "duration": 0.2173912499999915
        },
        {
          "name": "A#1",
          "midi": 34,
          "time": 156.08691749999974,
          "velocity": 0.7480314960629921,
          "duration": 0.2173912499999915
        },
        {
          "name": "A#1",
          "midi": 34,
          "time": 156.30430874999973,
          "velocity": 0.7480314960629921,
          "duration": 0.2173912499999915
        },
        {
          "name": "F1",
          "midi": 29,
          "time": 156.52169999999973,
          "velocity": 0.7480314960629921,
          "duration": 0.2173912499999915
        },
        {
          "name": "F1",
          "midi": 29,
          "time": 156.73909124999972,
          "velocity": 0.7480314960629921,
          "duration": 0.2173912499999915
        },
        {
          "name": "F1",
          "midi": 29,
          "time": 156.9564824999997,
          "velocity": 0.7480314960629921,
          "duration": 0.2173912499999915
        },
        {
          "name": "F1",
          "midi": 29,
          "time": 157.1738737499997,
          "velocity": 0.7480314960629921,
          "duration": 0.10869562499999574
        },
        {
          "name": "F1",
          "midi": 29,
          "time": 157.2825693749997,
          "velocity": 0.7480314960629921,
          "duration": 0.10869562499999574
        },
        {
          "name": "A#1",
          "midi": 34,
          "time": 157.3912649999997,
          "velocity": 0.7480314960629921,
          "duration": 0.2173912499999915
        },
        {
          "name": "A#1",
          "midi": 34,
          "time": 157.60865624999968,
          "velocity": 0.7480314960629921,
          "duration": 0.2173912499999915
        },
        {
          "name": "A#1",
          "midi": 34,
          "time": 157.82604749999967,
          "velocity": 0.7480314960629921,
          "duration": 0.2173912499999915
        },
        {
          "name": "A#1",
          "midi": 34,
          "time": 158.04343874999967,
          "velocity": 0.7480314960629921,
          "duration": 0.2173912499999915
        },
        {
          "name": "G1",
          "midi": 31,
          "time": 158.26082999999966,
          "velocity": 0.7480314960629921,
          "duration": 0.2173912499999915
        },
        {
          "name": "G1",
          "midi": 31,
          "time": 158.47822124999965,
          "velocity": 0.7480314960629921,
          "duration": 0.2173912499999915
        },
        {
          "name": "G1",
          "midi": 31,
          "time": 158.69561249999964,
          "velocity": 0.7480314960629921,
          "duration": 0.2173912499999915
        },
        {
          "name": "G1",
          "midi": 31,
          "time": 158.91300374999963,
          "velocity": 0.7480314960629921,
          "duration": 0.10869562499999574
        },
        {
          "name": "G1",
          "midi": 31,
          "time": 159.02169937499963,
          "velocity": 0.7480314960629921,
          "duration": 0.10869562499999574
        },
        {
          "name": "A#1",
          "midi": 34,
          "time": 159.13039499999962,
          "velocity": 0.7480314960629921,
          "duration": 0.2173912499999915
        },
        {
          "name": "A#1",
          "midi": 34,
          "time": 159.34778624999961,
          "velocity": 0.7480314960629921,
          "duration": 0.2173912499999915
        },
        {
          "name": "A#1",
          "midi": 34,
          "time": 159.5651774999996,
          "velocity": 0.7480314960629921,
          "duration": 0.2173912499999915
        },
        {
          "name": "A#1",
          "midi": 34,
          "time": 159.7825687499996,
          "velocity": 0.7480314960629921,
          "duration": 0.2173912499999915
        },
        {
          "name": "F1",
          "midi": 29,
          "time": 159.9999599999996,
          "velocity": 0.7480314960629921,
          "duration": 0.2173912499999915
        },
        {
          "name": "F1",
          "midi": 29,
          "time": 160.21735124999958,
          "velocity": 0.7480314960629921,
          "duration": 0.2173912499999915
        },
        {
          "name": "F1",
          "midi": 29,
          "time": 160.43474249999957,
          "velocity": 0.7480314960629921,
          "duration": 0.2173912499999915
        },
        {
          "name": "F1",
          "midi": 29,
          "time": 160.65213374999956,
          "velocity": 0.7480314960629921,
          "duration": 0.10869562499999574
        },
        {
          "name": "F1",
          "midi": 29,
          "time": 160.76082937499956,
          "velocity": 0.7480314960629921,
          "duration": 0.10869562499999574
        },
        {
          "name": "A#1",
          "midi": 34,
          "time": 160.86952499999956,
          "velocity": 0.7480314960629921,
          "duration": 0.2173912499999915
        },
        {
          "name": "A#1",
          "midi": 34,
          "time": 161.08691624999955,
          "velocity": 0.7480314960629921,
          "duration": 0.2173912499999915
        },
        {
          "name": "A#1",
          "midi": 34,
          "time": 161.30430749999954,
          "velocity": 0.7480314960629921,
          "duration": 0.2173912499999915
        },
        {
          "name": "A#1",
          "midi": 34,
          "time": 161.52169874999953,
          "velocity": 0.7480314960629921,
          "duration": 0.2173912499999915
        },
        {
          "name": "G1",
          "midi": 31,
          "time": 161.73908999999952,
          "velocity": 0.7480314960629921,
          "duration": 0.2173912499999915
        },
        {
          "name": "G1",
          "midi": 31,
          "time": 161.9564812499995,
          "velocity": 0.7480314960629921,
          "duration": 0.2173912499999915
        },
        {
          "name": "G1",
          "midi": 31,
          "time": 162.1738724999995,
          "velocity": 0.7480314960629921,
          "duration": 0.2173912499999915
        },
        {
          "name": "G1",
          "midi": 31,
          "time": 162.3912637499995,
          "velocity": 0.7480314960629921,
          "duration": 0.10869562499999574
        },
        {
          "name": "G1",
          "midi": 31,
          "time": 162.4999593749995,
          "velocity": 0.7480314960629921,
          "duration": 0.10869562499999574
        },
        {
          "name": "A#1",
          "midi": 34,
          "time": 162.6086549999995,
          "velocity": 0.7480314960629921,
          "duration": 0.2173912499999915
        },
        {
          "name": "A#1",
          "midi": 34,
          "time": 162.82604624999948,
          "velocity": 0.7480314960629921,
          "duration": 0.2173912499999915
        },
        {
          "name": "A#1",
          "midi": 34,
          "time": 163.04343749999947,
          "velocity": 0.7480314960629921,
          "duration": 0.2173912499999915
        },
        {
          "name": "A#1",
          "midi": 34,
          "time": 163.26082874999946,
          "velocity": 0.7480314960629921,
          "duration": 0.2173912499999915
        },
        {
          "name": "F1",
          "midi": 29,
          "time": 163.47821999999945,
          "velocity": 0.7480314960629921,
          "duration": 1.7391299999999887
        }
      ],
      "controlChanges": {
        "6": [
          {
            "number": 6,
            "time": 0.0036231874999999997,
            "value": 0.09448818897637795
          },
          {
            "number": 6,
            "time": 0.00905796875,
            "value": 0.09448818897637795
          }
        ],
        "7": [
          {
            "number": 7,
            "time": 0,
            "value": 0.6929133858267716
          },
          {
            "number": 7,
            "time": 0.010869562499999999,
            "value": 0.6929133858267716
          }
        ],
        "10": [
          {
            "number": 10,
            "time": 0,
            "value": 0.5039370078740157
          },
          {
            "number": 10,
            "time": 0.010869562499999999,
            "value": 0.5039370078740157
          }
        ],
        "38": [
          {
            "number": 38,
            "time": 0.0054347812499999995,
            "value": 0
          },
          {
            "number": 38,
            "time": 0.010869562499999999,
            "value": 0
          }
        ],
        "91": [
          {
            "number": 91,
            "time": 0.010869562499999999,
            "value": 0
          },
          {
            "number": 91,
            "time": 0.010869562499999999,
            "value": 0
          }
        ],
        "92": [
          {
            "number": 92,
            "time": 0.010869562499999999,
            "value": 0
          },
          {
            "number": 92,
            "time": 0.010869562499999999,
            "value": 0
          }
        ],
        "93": [
          {
            "number": 93,
            "time": 0.010869562499999999,
            "value": 0
          },
          {
            "number": 93,
            "time": 0.010869562499999999,
            "value": 0
          }
        ],
        "95": [
          {
            "number": 95,
            "time": 0.010869562499999999,
            "value": 0
          },
          {
            "number": 95,
            "time": 0.010869562499999999,
            "value": 0
          }
        ],
        "100": [
          {
            "number": 100,
            "time": 0.0018115937499999998,
            "value": 0
          },
          {
            "number": 100,
            "time": 0.007246374999999999,
            "value": 0
          }
        ],
        "101": [
          {
            "number": 101,
            "time": 0,
            "value": 0
          },
          {
            "number": 101,
            "time": 0.0054347812499999995,
            "value": 0
          }
        ]
      },
      "id": 1,
      "instrumentNumber": 34,
      "instrument": "electric bass (pick)",
      "instrumentFamily": "bass",
      "channelNumber": 0,
      "isPercussion": false
    },
    {
      "startTime": 3.4782599999999992,
      "duration": 165.2173499999995,
      "length": 1527,
      "notes": [
        {
          "name": "C5",
          "midi": 72,
          "time": 3.4782599999999992,
          "velocity": 0.7480314960629921,
          "duration": 0.21739124999999992
        },
        {
          "name": "G4",
          "midi": 67,
          "time": 3.4782599999999992,
          "velocity": 0.7480314960629921,
          "duration": 0.21739124999999992
        },
        {
          "name": "C5",
          "midi": 72,
          "time": 3.695651249999999,
          "velocity": 0.7480314960629921,
          "duration": 0.21739124999999992
        },
        {
          "name": "G4",
          "midi": 67,
          "time": 3.695651249999999,
          "velocity": 0.7480314960629921,
          "duration": 0.21739124999999992
        },
        {
          "name": "D5",
          "midi": 74,
          "time": 3.913042499999999,
          "velocity": 0.7480314960629921,
          "duration": 0.21739124999999992
        },
        {
          "name": "G4",
          "midi": 67,
          "time": 3.913042499999999,
          "velocity": 0.7480314960629921,
          "duration": 0.21739124999999992
        },
        {
          "name": "C5",
          "midi": 72,
          "time": 4.130433749999999,
          "velocity": 0.6771653543307087,
          "duration": 0.21739125000000037
        },
        {
          "name": "G4",
          "midi": 67,
          "time": 4.130433749999999,
          "velocity": 0.7480314960629921,
          "duration": 0.21739125000000037
        },
        {
          "name": "C5",
          "midi": 72,
          "time": 4.347824999999999,
          "velocity": 0.7480314960629921,
          "duration": 0.21739125000000037
        },
        {
          "name": "G4",
          "midi": 67,
          "time": 4.347824999999999,
          "velocity": 0.7480314960629921,
          "duration": 0.21739125000000037
        },
        {
          "name": "C5",
          "midi": 72,
          "time": 4.56521625,
          "velocity": 0.7480314960629921,
          "duration": 0.21739125000000037
        },
        {
          "name": "G4",
          "midi": 67,
          "time": 4.56521625,
          "velocity": 0.7480314960629921,
          "duration": 0.21739125000000037
        },
        {
          "name": "D5",
          "midi": 74,
          "time": 4.7826075,
          "velocity": 0.7480314960629921,
          "duration": 0.21739125000000037
        },
        {
          "name": "G4",
          "midi": 67,
          "time": 4.7826075,
          "velocity": 0.7480314960629921,
          "duration": 0.21739125000000037
        },
        {
          "name": "C5",
          "midi": 72,
          "time": 4.9999987500000005,
          "velocity": 0.6771653543307087,
          "duration": 0.21739125000000037
        },
        {
          "name": "G4",
          "midi": 67,
          "time": 4.9999987500000005,
          "velocity": 0.7480314960629921,
          "duration": 0.21739125000000037
        },
        {
          "name": "C5",
          "midi": 72,
          "time": 5.217390000000001,
          "velocity": 0.7480314960629921,
          "duration": 0.21739125000000037
        },
        {
          "name": "G4",
          "midi": 67,
          "time": 5.217390000000001,
          "velocity": 0.7480314960629921,
          "duration": 0.21739125000000037
        },
        {
          "name": "C5",
          "midi": 72,
          "time": 5.434781250000001,
          "velocity": 0.7480314960629921,
          "duration": 0.21739125000000037
        },
        {
          "name": "G4",
          "midi": 67,
          "time": 5.434781250000001,
          "velocity": 0.7480314960629921,
          "duration": 0.21739125000000037
        },
        {
          "name": "D5",
          "midi": 74,
          "time": 5.652172500000002,
          "velocity": 0.7480314960629921,
          "duration": 0.21739125000000037
        },
        {
          "name": "G4",
          "midi": 67,
          "time": 5.652172500000002,
          "velocity": 0.7480314960629921,
          "duration": 0.21739125000000037
        },
        {
          "name": "C5",
          "midi": 72,
          "time": 5.869563750000002,
          "velocity": 0.6771653543307087,
          "duration": 0.21739125000000037
        },
        {
          "name": "G4",
          "midi": 67,
          "time": 5.869563750000002,
          "velocity": 0.7480314960629921,
          "duration": 0.21739125000000037
        },
        {
          "name": "C5",
          "midi": 72,
          "time": 6.086955000000002,
          "velocity": 0.7480314960629921,
          "duration": 0.21739125000000037
        },
        {
          "name": "G4",
          "midi": 67,
          "time": 6.086955000000002,
          "velocity": 0.7480314960629921,
          "duration": 0.21739125000000037
        },
        {
          "name": "C5",
          "midi": 72,
          "time": 6.304346250000003,
          "velocity": 0.7480314960629921,
          "duration": 0.21739125000000037
        },
        {
          "name": "G4",
          "midi": 67,
          "time": 6.304346250000003,
          "velocity": 0.7480314960629921,
          "duration": 0.21739125000000037
        },
        {
          "name": "D5",
          "midi": 74,
          "time": 6.521737500000003,
          "velocity": 0.7480314960629921,
          "duration": 0.21739125000000037
        },
        {
          "name": "G4",
          "midi": 67,
          "time": 6.521737500000003,
          "velocity": 0.7480314960629921,
          "duration": 0.21739125000000037
        },
        {
          "name": "C5",
          "midi": 72,
          "time": 6.739128750000003,
          "velocity": 0.6771653543307087,
          "duration": 0.21739125000000037
        },
        {
          "name": "G4",
          "midi": 67,
          "time": 6.739128750000003,
          "velocity": 0.7480314960629921,
          "duration": 0.21739125000000037
        },
        {
          "name": "F3",
          "midi": 53,
          "time": 6.956520000000004,
          "velocity": 0.7480314960629921,
          "duration": 0.6521737500000002
        },
        {
          "name": "E3",
          "midi": 52,
          "time": 7.608693750000004,
          "velocity": 0.7480314960629921,
          "duration": 0.6521737499999993
        },
        {
          "name": "C3",
          "midi": 48,
          "time": 8.260867500000003,
          "velocity": 0.7480314960629921,
          "duration": 0.43478250000000074
        },
        {
          "name": "F3",
          "midi": 53,
          "time": 8.695650000000004,
          "velocity": 0.7480314960629921,
          "duration": 0.6521737499999993
        },
        {
          "name": "E3",
          "midi": 52,
          "time": 9.347823750000003,
          "velocity": 0.7480314960629921,
          "duration": 0.6521737499999993
        },
        {
          "name": "D3",
          "midi": 50,
          "time": 9.999997500000003,
          "velocity": 0.7480314960629921,
          "duration": 0.43478250000000074
        },
        {
          "name": "F3",
          "midi": 53,
          "time": 10.434780000000003,
          "velocity": 0.7480314960629921,
          "duration": 0.6521737499999993
        },
        {
          "name": "E3",
          "midi": 52,
          "time": 11.086953750000003,
          "velocity": 0.7480314960629921,
          "duration": 0.6521737499999993
        },
        {
          "name": "F3",
          "midi": 53,
          "time": 11.739127500000002,
          "velocity": 0.7480314960629921,
          "duration": 0.43478250000000074
        },
        {
          "name": "A#3",
          "midi": 58,
          "time": 12.173910000000003,
          "velocity": 0.7480314960629921,
          "duration": 0.21739125000000037
        },
        {
          "name": "A3",
          "midi": 57,
          "time": 12.391301250000003,
          "velocity": 0.7480314960629921,
          "duration": 0.21739125000000037
        },
        {
          "name": "A#3",
          "midi": 58,
          "time": 12.608692500000004,
          "velocity": 0.7480314960629921,
          "duration": 0.21739125000000037
        },
        {
          "name": "G3",
          "midi": 55,
          "time": 12.826083750000004,
          "velocity": 0.7480314960629921,
          "duration": 0.6521737499999993
        },
        {
          "name": "G3",
          "midi": 55,
          "time": 13.478257500000003,
          "velocity": 0.7480314960629921,
          "duration": 0.43478250000000074
        },
        {
          "name": "F3",
          "midi": 53,
          "time": 13.913040000000004,
          "velocity": 0.7480314960629921,
          "duration": 0.6521737499999993
        },
        {
          "name": "E3",
          "midi": 52,
          "time": 14.565213750000003,
          "velocity": 0.7480314960629921,
          "duration": 0.6521737499999993
        },
        {
          "name": "C3",
          "midi": 48,
          "time": 15.217387500000003,
          "velocity": 0.7480314960629921,
          "duration": 0.43478250000000074
        },
        {
          "name": "F3",
          "midi": 53,
          "time": 15.652170000000003,
          "velocity": 0.7480314960629921,
          "duration": 0.6521737500000011
        },
        {
          "name": "E3",
          "midi": 52,
          "time": 16.304343750000005,
          "velocity": 0.7480314960629921,
          "duration": 0.6521737499999993
        },
        {
          "name": "D3",
          "midi": 50,
          "time": 16.956517500000004,
          "velocity": 0.7480314960629921,
          "duration": 0.43478250000000074
        },
        {
          "name": "F3",
          "midi": 53,
          "time": 17.391300000000005,
          "velocity": 0.7480314960629921,
          "duration": 0.6521737499999993
        },
        {
          "name": "E3",
          "midi": 52,
          "time": 18.043473750000004,
          "velocity": 0.7480314960629921,
          "duration": 0.6521737499999993
        },
        {
          "name": "F3",
          "midi": 53,
          "time": 18.695647500000003,
          "velocity": 0.7480314960629921,
          "duration": 0.43478250000000074
        },
        {
          "name": "A#3",
          "midi": 58,
          "time": 19.130430000000004,
          "velocity": 0.7480314960629921,
          "duration": 0.2173912499999986
        },
        {
          "name": "A3",
          "midi": 57,
          "time": 19.347821250000003,
          "velocity": 0.7480314960629921,
          "duration": 0.2173912499999986
        },
        {
          "name": "A#3",
          "midi": 58,
          "time": 19.5652125,
          "velocity": 0.7480314960629921,
          "duration": 0.2173912499999986
        },
        {
          "name": "G3",
          "midi": 55,
          "time": 19.78260375,
          "velocity": 0.7480314960629921,
          "duration": 0.6521737499999993
        },
        {
          "name": "G3",
          "midi": 55,
          "time": 20.4347775,
          "velocity": 0.7480314960629921,
          "duration": 0.43478250000000074
        },
        {
          "name": "F3",
          "midi": 53,
          "time": 20.86956,
          "velocity": 0.7480314960629921,
          "duration": 0.2173912499999986
        },
        {
          "name": "C3",
          "midi": 48,
          "time": 20.86956,
          "velocity": 0.7480314960629921,
          "duration": 0.2173912499999986
        },
        {
          "name": "F2",
          "midi": 41,
          "time": 20.86956,
          "velocity": 0.7480314960629921,
          "duration": 0.2173912499999986
        },
        {
          "name": "F3",
          "midi": 53,
          "time": 21.08695125,
          "velocity": 0.7480314960629921,
          "duration": 0.2173912499999986
        },
        {
          "name": "C3",
          "midi": 48,
          "time": 21.08695125,
          "velocity": 0.7480314960629921,
          "duration": 0.2173912499999986
        },
        {
          "name": "F2",
          "midi": 41,
          "time": 21.08695125,
          "velocity": 0.7480314960629921,
          "duration": 0.2173912499999986
        },
        {
          "name": "F3",
          "midi": 53,
          "time": 21.304342499999997,
          "velocity": 0.7480314960629921,
          "duration": 0.2173912499999986
        },
        {
          "name": "C3",
          "midi": 48,
          "time": 21.304342499999997,
          "velocity": 0.7480314960629921,
          "duration": 0.2173912499999986
        },
        {
          "name": "F2",
          "midi": 41,
          "time": 21.304342499999997,
          "velocity": 0.7480314960629921,
          "duration": 0.2173912499999986
        },
        {
          "name": "F3",
          "midi": 53,
          "time": 21.521733749999996,
          "velocity": 0.7480314960629921,
          "duration": 0.2173912499999986
        },
        {
          "name": "C3",
          "midi": 48,
          "time": 21.521733749999996,
          "velocity": 0.7480314960629921,
          "duration": 0.2173912499999986
        },
        {
          "name": "F2",
          "midi": 41,
          "time": 21.521733749999996,
          "velocity": 0.7480314960629921,
          "duration": 0.2173912499999986
        },
        {
          "name": "A#3",
          "midi": 58,
          "time": 21.739124999999994,
          "velocity": 0.7480314960629921,
          "duration": 0.2173912499999986
        },
        {
          "name": "F3",
          "midi": 53,
          "time": 21.739124999999994,
          "velocity": 0.7480314960629921,
          "duration": 0.2173912499999986
        },
        {
          "name": "A#2",
          "midi": 46,
          "time": 21.739124999999994,
          "velocity": 0.7480314960629921,
          "duration": 0.2173912499999986
        },
        {
          "name": "A#3",
          "midi": 58,
          "time": 21.956516249999993,
          "velocity": 0.7480314960629921,
          "duration": 0.2173912499999986
        },
        {
          "name": "F3",
          "midi": 53,
          "time": 21.956516249999993,
          "velocity": 0.7480314960629921,
          "duration": 0.2173912499999986
        },
        {
          "name": "A#2",
          "midi": 46,
          "time": 21.956516249999993,
          "velocity": 0.7480314960629921,
          "duration": 0.2173912499999986
        },
        {
          "name": "A#3",
          "midi": 58,
          "time": 22.17390749999999,
          "velocity": 0.7480314960629921,
          "duration": 0.2173912499999986
        },
        {
          "name": "F3",
          "midi": 53,
          "time": 22.17390749999999,
          "velocity": 0.7480314960629921,
          "duration": 0.2173912499999986
        },
        {
          "name": "A#2",
          "midi": 46,
          "time": 22.17390749999999,
          "velocity": 0.7480314960629921,
          "duration": 0.2173912499999986
        },
        {
          "name": "A#3",
          "midi": 58,
          "time": 22.39129874999999,
          "velocity": 0.7480314960629921,
          "duration": 0.2173912499999986
        },
        {
          "name": "F3",
          "midi": 53,
          "time": 22.39129874999999,
          "velocity": 0.7480314960629921,
          "duration": 0.2173912499999986
        },
        {
          "name": "A#2",
          "midi": 46,
          "time": 22.39129874999999,
          "velocity": 0.7480314960629921,
          "duration": 0.2173912499999986
        },
        {
          "name": "G3",
          "midi": 55,
          "time": 22.60868999999999,
          "velocity": 0.7480314960629921,
          "duration": 0.2173912499999986
        },
        {
          "name": "D3",
          "midi": 50,
          "time": 22.60868999999999,
          "velocity": 0.7480314960629921,
          "duration": 0.2173912499999986
        },
        {
          "name": "G2",
          "midi": 43,
          "time": 22.60868999999999,
          "velocity": 0.7480314960629921,
          "duration": 0.2173912499999986
        },
        {
          "name": "G3",
          "midi": 55,
          "time": 22.826081249999987,
          "velocity": 0.7480314960629921,
          "duration": 0.2173912499999986
        },
        {
          "name": "D3",
          "midi": 50,
          "time": 22.826081249999987,
          "velocity": 0.7480314960629921,
          "duration": 0.2173912499999986
        },
        {
          "name": "G2",
          "midi": 43,
          "time": 22.826081249999987,
          "velocity": 0.7480314960629921,
          "duration": 0.2173912499999986
        },
        {
          "name": "G3",
          "midi": 55,
          "time": 23.043472499999986,
          "velocity": 0.7480314960629921,
          "duration": 0.2173912499999986
        },
        {
          "name": "D3",
          "midi": 50,
          "time": 23.043472499999986,
          "velocity": 0.7480314960629921,
          "duration": 0.2173912499999986
        },
        {
          "name": "G2",
          "midi": 43,
          "time": 23.043472499999986,
          "velocity": 0.7480314960629921,
          "duration": 0.2173912499999986
        },
        {
          "name": "G3",
          "midi": 55,
          "time": 23.260863749999984,
          "velocity": 0.7480314960629921,
          "duration": 0.2173912499999986
        },
        {
          "name": "D3",
          "midi": 50,
          "time": 23.260863749999984,
          "velocity": 0.7480314960629921,
          "duration": 0.2173912499999986
        },
        {
          "name": "G2",
          "midi": 43,
          "time": 23.260863749999984,
          "velocity": 0.7480314960629921,
          "duration": 0.2173912499999986
        },
        {
          "name": "A#3",
          "midi": 58,
          "time": 23.478254999999983,
          "velocity": 0.7480314960629921,
          "duration": 0.2173912499999986
        },
        {
          "name": "F3",
          "midi": 53,
          "time": 23.478254999999983,
          "velocity": 0.7480314960629921,
          "duration": 0.2173912499999986
        },
        {
          "name": "A#2",
          "midi": 46,
          "time": 23.478254999999983,
          "velocity": 0.7480314960629921,
          "duration": 0.2173912499999986
        },
        {
          "name": "A#3",
          "midi": 58,
          "time": 23.69564624999998,
          "velocity": 0.7480314960629921,
          "duration": 0.2173912499999986
        },
        {
          "name": "F3",
          "midi": 53,
          "time": 23.69564624999998,
          "velocity": 0.7480314960629921,
          "duration": 0.2173912499999986
        },
        {
          "name": "A#2",
          "midi": 46,
          "time": 23.69564624999998,
          "velocity": 0.7480314960629921,
          "duration": 0.2173912499999986
        },
        {
          "name": "A#3",
          "midi": 58,
          "time": 23.91303749999998,
          "velocity": 0.7480314960629921,
          "duration": 0.2173912499999986
        },
        {
          "name": "F3",
          "midi": 53,
          "time": 23.91303749999998,
          "velocity": 0.7480314960629921,
          "duration": 0.2173912499999986
        },
        {
          "name": "A#2",
          "midi": 46,
          "time": 23.91303749999998,
          "velocity": 0.7480314960629921,
          "duration": 0.2173912499999986
        },
        {
          "name": "A#3",
          "midi": 58,
          "time": 24.13042874999998,
          "velocity": 0.7480314960629921,
          "duration": 0.2173912499999986
        },
        {
          "name": "F3",
          "midi": 53,
          "time": 24.13042874999998,
          "velocity": 0.7480314960629921,
          "duration": 0.2173912499999986
        },
        {
          "name": "A#2",
          "midi": 46,
          "time": 24.13042874999998,
          "velocity": 0.7480314960629921,
          "duration": 0.2173912499999986
        },
        {
          "name": "F3",
          "midi": 53,
          "time": 24.347819999999977,
          "velocity": 0.7480314960629921,
          "duration": 0.2173912499999986
        },
        {
          "name": "C3",
          "midi": 48,
          "time": 24.347819999999977,
          "velocity": 0.7480314960629921,
          "duration": 0.2173912499999986
        },
        {
          "name": "F2",
          "midi": 41,
          "time": 24.347819999999977,
          "velocity": 0.7480314960629921,
          "duration": 0.2173912499999986
        },
        {
          "name": "F3",
          "midi": 53,
          "time": 24.565211249999976,
          "velocity": 0.7480314960629921,
          "duration": 0.2173912499999986
        },
        {
          "name": "C3",
          "midi": 48,
          "time": 24.565211249999976,
          "velocity": 0.7480314960629921,
          "duration": 0.2173912499999986
        },
        {
          "name": "F2",
          "midi": 41,
          "time": 24.565211249999976,
          "velocity": 0.7480314960629921,
          "duration": 0.2173912499999986
        },
        {
          "name": "F3",
          "midi": 53,
          "time": 24.782602499999975,
          "velocity": 0.7480314960629921,
          "duration": 0.2173912499999986
        },
        {
          "name": "C3",
          "midi": 48,
          "time": 24.782602499999975,
          "velocity": 0.7480314960629921,
          "duration": 0.2173912499999986
        },
        {
          "name": "F2",
          "midi": 41,
          "time": 24.782602499999975,
          "velocity": 0.7480314960629921,
          "duration": 0.2173912499999986
        },
        {
          "name": "F3",
          "midi": 53,
          "time": 24.999993749999973,
          "velocity": 0.7480314960629921,
          "duration": 0.2173912499999986
        },
        {
          "name": "C3",
          "midi": 48,
          "time": 24.999993749999973,
          "velocity": 0.7480314960629921,
          "duration": 0.2173912499999986
        },
        {
          "name": "F2",
          "midi": 41,
          "time": 24.999993749999973,
          "velocity": 0.7480314960629921,
          "duration": 0.2173912499999986
        },
        {
          "name": "A#3",
          "midi": 58,
          "time": 25.21738499999997,
          "velocity": 0.7480314960629921,
          "duration": 0.2173912499999986
        },
        {
          "name": "F3",
          "midi": 53,
          "time": 25.21738499999997,
          "velocity": 0.7480314960629921,
          "duration": 0.2173912499999986
        },
        {
          "name": "A#2",
          "midi": 46,
          "time": 25.21738499999997,
          "velocity": 0.7480314960629921,
          "duration": 0.2173912499999986
        },
        {
          "name": "A#3",
          "midi": 58,
          "time": 25.43477624999997,
          "velocity": 0.7480314960629921,
          "duration": 0.2173912499999986
        },
        {
          "name": "F3",
          "midi": 53,
          "time": 25.43477624999997,
          "velocity": 0.7480314960629921,
          "duration": 0.2173912499999986
        },
        {
          "name": "A#2",
          "midi": 46,
          "time": 25.43477624999997,
          "velocity": 0.7480314960629921,
          "duration": 0.2173912499999986
        },
        {
          "name": "A#3",
          "midi": 58,
          "time": 25.65216749999997,
          "velocity": 0.7480314960629921,
          "duration": 0.2173912499999986
        },
        {
          "name": "F3",
          "midi": 53,
          "time": 25.65216749999997,
          "velocity": 0.7480314960629921,
          "duration": 0.2173912499999986
        },
        {
          "name": "A#2",
          "midi": 46,
          "time": 25.65216749999997,
          "velocity": 0.7480314960629921,
          "duration": 0.2173912499999986
        },
        {
          "name": "A#3",
          "midi": 58,
          "time": 25.869558749999968,
          "velocity": 0.7480314960629921,
          "duration": 0.2173912499999986
        },
        {
          "name": "F3",
          "midi": 53,
          "time": 25.869558749999968,
          "velocity": 0.7480314960629921,
          "duration": 0.2173912499999986
        },
        {
          "name": "A#2",
          "midi": 46,
          "time": 25.869558749999968,
          "velocity": 0.7480314960629921,
          "duration": 0.2173912499999986
        },
        {
          "name": "G3",
          "midi": 55,
          "time": 26.086949999999966,
          "velocity": 0.7480314960629921,
          "duration": 0.2173912499999986
        },
        {
          "name": "D3",
          "midi": 50,
          "time": 26.086949999999966,
          "velocity": 0.7480314960629921,
          "duration": 0.2173912499999986
        },
        {
          "name": "G2",
          "midi": 43,
          "time": 26.086949999999966,
          "velocity": 0.7480314960629921,
          "duration": 0.2173912499999986
        },
        {
          "name": "G3",
          "midi": 55,
          "time": 26.304341249999965,
          "velocity": 0.7480314960629921,
          "duration": 0.2173912499999986
        },
        {
          "name": "D3",
          "midi": 50,
          "time": 26.304341249999965,
          "velocity": 0.7480314960629921,
          "duration": 0.2173912499999986
        },
        {
          "name": "G2",
          "midi": 43,
          "time": 26.304341249999965,
          "velocity": 0.7480314960629921,
          "duration": 0.2173912499999986
        },
        {
          "name": "G3",
          "midi": 55,
          "time": 26.521732499999963,
          "velocity": 0.7480314960629921,
          "duration": 0.2173912499999986
        },
        {
          "name": "D3",
          "midi": 50,
          "time": 26.521732499999963,
          "velocity": 0.7480314960629921,
          "duration": 0.2173912499999986
        },
        {
          "name": "G2",
          "midi": 43,
          "time": 26.521732499999963,
          "velocity": 0.7480314960629921,
          "duration": 0.2173912499999986
        },
        {
          "name": "G3",
          "midi": 55,
          "time": 26.739123749999962,
          "velocity": 0.7480314960629921,
          "duration": 0.2173912499999986
        },
        {
          "name": "D3",
          "midi": 50,
          "time": 26.739123749999962,
          "velocity": 0.7480314960629921,
          "duration": 0.2173912499999986
        },
        {
          "name": "G2",
          "midi": 43,
          "time": 26.739123749999962,
          "velocity": 0.7480314960629921,
          "duration": 0.2173912499999986
        },
        {
          "name": "A#3",
          "midi": 58,
          "time": 26.95651499999996,
          "velocity": 0.7480314960629921,
          "duration": 0.2173912499999986
        },
        {
          "name": "F3",
          "midi": 53,
          "time": 26.95651499999996,
          "velocity": 0.7480314960629921,
          "duration": 0.2173912499999986
        },
        {
          "name": "A#2",
          "midi": 46,
          "time": 26.95651499999996,
          "velocity": 0.7480314960629921,
          "duration": 0.2173912499999986
        },
        {
          "name": "A#3",
          "midi": 58,
          "time": 27.17390624999996,
          "velocity": 0.7480314960629921,
          "duration": 0.2173912499999986
        },
        {
          "name": "F3",
          "midi": 53,
          "time": 27.17390624999996,
          "velocity": 0.7480314960629921,
          "duration": 0.2173912499999986
        },
        {
          "name": "A#2",
          "midi": 46,
          "time": 27.17390624999996,
          "velocity": 0.7480314960629921,
          "duration": 0.2173912499999986
        },
        {
          "name": "A#3",
          "midi": 58,
          "time": 27.391297499999958,
          "velocity": 0.7480314960629921,
          "duration": 0.2173912499999986
        },
        {
          "name": "F3",
          "midi": 53,
          "time": 27.391297499999958,
          "velocity": 0.7480314960629921,
          "duration": 0.2173912499999986
        },
        {
          "name": "A#2",
          "midi": 46,
          "time": 27.391297499999958,
          "velocity": 0.7480314960629921,
          "duration": 0.2173912499999986
        },
        {
          "name": "A#3",
          "midi": 58,
          "time": 27.608688749999956,
          "velocity": 0.7480314960629921,
          "duration": 0.2173912499999986
        },
        {
          "name": "F3",
          "midi": 53,
          "time": 27.608688749999956,
          "velocity": 0.7480314960629921,
          "duration": 0.2173912499999986
        },
        {
          "name": "A#2",
          "midi": 46,
          "time": 27.608688749999956,
          "velocity": 0.7480314960629921,
          "duration": 0.2173912499999986
        },
        {
          "name": "F3",
          "midi": 53,
          "time": 27.826079999999955,
          "velocity": 0.7480314960629921,
          "duration": 0.2173912499999986
        },
        {
          "name": "C3",
          "midi": 48,
          "time": 27.826079999999955,
          "velocity": 0.7480314960629921,
          "duration": 0.2173912499999986
        },
        {
          "name": "F2",
          "midi": 41,
          "time": 27.826079999999955,
          "velocity": 0.7480314960629921,
          "duration": 0.2173912499999986
        },
        {
          "name": "F3",
          "midi": 53,
          "time": 28.043471249999953,
          "velocity": 0.7480314960629921,
          "duration": 0.2173912499999986
        },
        {
          "name": "C3",
          "midi": 48,
          "time": 28.043471249999953,
          "velocity": 0.7480314960629921,
          "duration": 0.2173912499999986
        },
        {
          "name": "F2",
          "midi": 41,
          "time": 28.043471249999953,
          "velocity": 0.7480314960629921,
          "duration": 0.2173912499999986
        },
        {
          "name": "F3",
          "midi": 53,
          "time": 28.260862499999952,
          "velocity": 0.7480314960629921,
          "duration": 0.2173912499999986
        },
        {
          "name": "C3",
          "midi": 48,
          "time": 28.260862499999952,
          "velocity": 0.7480314960629921,
          "duration": 0.2173912499999986
        },
        {
          "name": "F2",
          "midi": 41,
          "time": 28.260862499999952,
          "velocity": 0.7480314960629921,
          "duration": 0.2173912499999986
        },
        {
          "name": "F3",
          "midi": 53,
          "time": 28.47825374999995,
          "velocity": 0.7480314960629921,
          "duration": 0.2173912499999986
        },
        {
          "name": "C3",
          "midi": 48,
          "time": 28.47825374999995,
          "velocity": 0.7480314960629921,
          "duration": 0.2173912499999986
        },
        {
          "name": "F2",
          "midi": 41,
          "time": 28.47825374999995,
          "velocity": 0.7480314960629921,
          "duration": 0.2173912499999986
        },
        {
          "name": "A#3",
          "midi": 58,
          "time": 28.69564499999995,
          "velocity": 0.7480314960629921,
          "duration": 0.2173912499999986
        },
        {
          "name": "F3",
          "midi": 53,
          "time": 28.69564499999995,
          "velocity": 0.7480314960629921,
          "duration": 0.2173912499999986
        },
        {
          "name": "A#2",
          "midi": 46,
          "time": 28.69564499999995,
          "velocity": 0.7480314960629921,
          "duration": 0.2173912499999986
        },
        {
          "name": "A#3",
          "midi": 58,
          "time": 28.913036249999948,
          "velocity": 0.7480314960629921,
          "duration": 0.2173912499999986
        },
        {
          "name": "F3",
          "midi": 53,
          "time": 28.913036249999948,
          "velocity": 0.7480314960629921,
          "duration": 0.2173912499999986
        },
        {
          "name": "A#2",
          "midi": 46,
          "time": 28.913036249999948,
          "velocity": 0.7480314960629921,
          "duration": 0.2173912499999986
        },
        {
          "name": "A#3",
          "midi": 58,
          "time": 29.130427499999946,
          "velocity": 0.7480314960629921,
          "duration": 0.2173912499999986
        },
        {
          "name": "F3",
          "midi": 53,
          "time": 29.130427499999946,
          "velocity": 0.7480314960629921,
          "duration": 0.2173912499999986
        },
        {
          "name": "A#2",
          "midi": 46,
          "time": 29.130427499999946,
          "velocity": 0.7480314960629921,
          "duration": 0.2173912499999986
        },
        {
          "name": "A#3",
          "midi": 58,
          "time": 29.347818749999945,
          "velocity": 0.7480314960629921,
          "duration": 0.2173912499999986
        },
        {
          "name": "F3",
          "midi": 53,
          "time": 29.347818749999945,
          "velocity": 0.7480314960629921,
          "duration": 0.2173912499999986
        },
        {
          "name": "A#2",
          "midi": 46,
          "time": 29.347818749999945,
          "velocity": 0.7480314960629921,
          "duration": 0.2173912499999986
        },
        {
          "name": "G3",
          "midi": 55,
          "time": 29.565209999999944,
          "velocity": 0.7480314960629921,
          "duration": 0.2173912499999986
        },
        {
          "name": "D3",
          "midi": 50,
          "time": 29.565209999999944,
          "velocity": 0.7480314960629921,
          "duration": 0.2173912499999986
        },
        {
          "name": "G2",
          "midi": 43,
          "time": 29.565209999999944,
          "velocity": 0.7480314960629921,
          "duration": 0.2173912499999986
        },
        {
          "name": "G3",
          "midi": 55,
          "time": 29.782601249999942,
          "velocity": 0.7480314960629921,
          "duration": 0.2173912499999986
        },
        {
          "name": "D3",
          "midi": 50,
          "time": 29.782601249999942,
          "velocity": 0.7480314960629921,
          "duration": 0.2173912499999986
        },
        {
          "name": "G2",
          "midi": 43,
          "time": 29.782601249999942,
          "velocity": 0.7480314960629921,
          "duration": 0.2173912499999986
        },
        {
          "name": "G3",
          "midi": 55,
          "time": 29.99999249999994,
          "velocity": 0.7480314960629921,
          "duration": 0.2173912499999986
        },
        {
          "name": "D3",
          "midi": 50,
          "time": 29.99999249999994,
          "velocity": 0.7480314960629921,
          "duration": 0.2173912499999986
        },
        {
          "name": "G2",
          "midi": 43,
          "time": 29.99999249999994,
          "velocity": 0.7480314960629921,
          "duration": 0.2173912499999986
        },
        {
          "name": "G3",
          "midi": 55,
          "time": 30.21738374999994,
          "velocity": 0.7480314960629921,
          "duration": 0.2173912499999986
        },
        {
          "name": "D3",
          "midi": 50,
          "time": 30.21738374999994,
          "velocity": 0.7480314960629921,
          "duration": 0.2173912499999986
        },
        {
          "name": "G2",
          "midi": 43,
          "time": 30.21738374999994,
          "velocity": 0.7480314960629921,
          "duration": 0.2173912499999986
        },
        {
          "name": "A#3",
          "midi": 58,
          "time": 30.434774999999938,
          "velocity": 0.7480314960629921,
          "duration": 0.2173912499999986
        },
        {
          "name": "F3",
          "midi": 53,
          "time": 30.434774999999938,
          "velocity": 0.7480314960629921,
          "duration": 0.2173912499999986
        },
        {
          "name": "A#2",
          "midi": 46,
          "time": 30.434774999999938,
          "velocity": 0.7480314960629921,
          "duration": 0.2173912499999986
        },
        {
          "name": "A#3",
          "midi": 58,
          "time": 30.652166249999937,
          "velocity": 0.7480314960629921,
          "duration": 0.2173912499999986
        },
        {
          "name": "F3",
          "midi": 53,
          "time": 30.652166249999937,
          "velocity": 0.7480314960629921,
          "duration": 0.2173912499999986
        },
        {
          "name": "A#2",
          "midi": 46,
          "time": 30.652166249999937,
          "velocity": 0.7480314960629921,
          "duration": 0.2173912499999986
        },
        {
          "name": "A#3",
          "midi": 58,
          "time": 30.869557499999935,
          "velocity": 0.7480314960629921,
          "duration": 0.2173912499999986
        },
        {
          "name": "F3",
          "midi": 53,
          "time": 30.869557499999935,
          "velocity": 0.7480314960629921,
          "duration": 0.2173912499999986
        },
        {
          "name": "A#2",
          "midi": 46,
          "time": 30.869557499999935,
          "velocity": 0.7480314960629921,
          "duration": 0.2173912499999986
        },
        {
          "name": "A#3",
          "midi": 58,
          "time": 31.086948749999934,
          "velocity": 0.7480314960629921,
          "duration": 0.2173912499999986
        },
        {
          "name": "F3",
          "midi": 53,
          "time": 31.086948749999934,
          "velocity": 0.7480314960629921,
          "duration": 0.2173912499999986
        },
        {
          "name": "A#2",
          "midi": 46,
          "time": 31.086948749999934,
          "velocity": 0.7480314960629921,
          "duration": 0.2173912499999986
        },
        {
          "name": "F3",
          "midi": 53,
          "time": 31.304339999999932,
          "velocity": 0.7480314960629921,
          "duration": 0.2173912499999986
        },
        {
          "name": "C3",
          "midi": 48,
          "time": 31.304339999999932,
          "velocity": 0.7480314960629921,
          "duration": 0.2173912499999986
        },
        {
          "name": "F2",
          "midi": 41,
          "time": 31.304339999999932,
          "velocity": 0.7480314960629921,
          "duration": 0.2173912499999986
        },
        {
          "name": "F3",
          "midi": 53,
          "time": 31.52173124999993,
          "velocity": 0.7480314960629921,
          "duration": 0.2173912499999986
        },
        {
          "name": "C3",
          "midi": 48,
          "time": 31.52173124999993,
          "velocity": 0.7480314960629921,
          "duration": 0.2173912499999986
        },
        {
          "name": "F2",
          "midi": 41,
          "time": 31.52173124999993,
          "velocity": 0.7480314960629921,
          "duration": 0.2173912499999986
        },
        {
          "name": "F3",
          "midi": 53,
          "time": 31.73912249999993,
          "velocity": 0.7480314960629921,
          "duration": 0.2173912499999986
        },
        {
          "name": "C3",
          "midi": 48,
          "time": 31.73912249999993,
          "velocity": 0.7480314960629921,
          "duration": 0.2173912499999986
        },
        {
          "name": "F2",
          "midi": 41,
          "time": 31.73912249999993,
          "velocity": 0.7480314960629921,
          "duration": 0.2173912499999986
        },
        {
          "name": "F3",
          "midi": 53,
          "time": 31.956513749999928,
          "velocity": 0.7480314960629921,
          "duration": 0.2173912499999986
        },
        {
          "name": "C3",
          "midi": 48,
          "time": 31.956513749999928,
          "velocity": 0.7480314960629921,
          "duration": 0.2173912499999986
        },
        {
          "name": "F2",
          "midi": 41,
          "time": 31.956513749999928,
          "velocity": 0.7480314960629921,
          "duration": 0.2173912499999986
        },
        {
          "name": "A#3",
          "midi": 58,
          "time": 32.17390499999993,
          "velocity": 0.7480314960629921,
          "duration": 0.2173912499999986
        },
        {
          "name": "F3",
          "midi": 53,
          "time": 32.17390499999993,
          "velocity": 0.7480314960629921,
          "duration": 0.2173912499999986
        },
        {
          "name": "A#2",
          "midi": 46,
          "time": 32.17390499999993,
          "velocity": 0.7480314960629921,
          "duration": 0.2173912499999986
        },
        {
          "name": "A#3",
          "midi": 58,
          "time": 32.391296249999925,
          "velocity": 0.7480314960629921,
          "duration": 0.2173912499999986
        },
        {
          "name": "F3",
          "midi": 53,
          "time": 32.391296249999925,
          "velocity": 0.7480314960629921,
          "duration": 0.2173912499999986
        },
        {
          "name": "A#2",
          "midi": 46,
          "time": 32.391296249999925,
          "velocity": 0.7480314960629921,
          "duration": 0.2173912499999986
        },
        {
          "name": "A#3",
          "midi": 58,
          "time": 32.608687499999924,
          "velocity": 0.7480314960629921,
          "duration": 0.2173912499999986
        },
        {
          "name": "F3",
          "midi": 53,
          "time": 32.608687499999924,
          "velocity": 0.7480314960629921,
          "duration": 0.2173912499999986
        },
        {
          "name": "A#2",
          "midi": 46,
          "time": 32.608687499999924,
          "velocity": 0.7480314960629921,
          "duration": 0.2173912499999986
        },
        {
          "name": "A#3",
          "midi": 58,
          "time": 32.82607874999992,
          "velocity": 0.7480314960629921,
          "duration": 0.2173912499999986
        },
        {
          "name": "F3",
          "midi": 53,
          "time": 32.82607874999992,
          "velocity": 0.7480314960629921,
          "duration": 0.2173912499999986
        },
        {
          "name": "A#2",
          "midi": 46,
          "time": 32.82607874999992,
          "velocity": 0.7480314960629921,
          "duration": 0.2173912499999986
        },
        {
          "name": "G3",
          "midi": 55,
          "time": 33.04346999999992,
          "velocity": 0.7480314960629921,
          "duration": 0.2173912499999986
        },
        {
          "name": "D3",
          "midi": 50,
          "time": 33.04346999999992,
          "velocity": 0.7480314960629921,
          "duration": 0.2173912499999986
        },
        {
          "name": "G2",
          "midi": 43,
          "time": 33.04346999999992,
          "velocity": 0.7480314960629921,
          "duration": 0.2173912499999986
        },
        {
          "name": "G3",
          "midi": 55,
          "time": 33.26086124999992,
          "velocity": 0.7480314960629921,
          "duration": 0.2173912499999986
        },
        {
          "name": "D3",
          "midi": 50,
          "time": 33.26086124999992,
          "velocity": 0.7480314960629921,
          "duration": 0.2173912499999986
        },
        {
          "name": "G2",
          "midi": 43,
          "time": 33.26086124999992,
          "velocity": 0.7480314960629921,
          "duration": 0.2173912499999986
        },
        {
          "name": "G3",
          "midi": 55,
          "time": 33.47825249999992,
          "velocity": 0.7480314960629921,
          "duration": 0.2173912499999986
        },
        {
          "name": "D3",
          "midi": 50,
          "time": 33.47825249999992,
          "velocity": 0.7480314960629921,
          "duration": 0.2173912499999986
        },
        {
          "name": "G2",
          "midi": 43,
          "time": 33.47825249999992,
          "velocity": 0.7480314960629921,
          "duration": 0.2173912499999986
        },
        {
          "name": "G3",
          "midi": 55,
          "time": 33.69564374999992,
          "velocity": 0.7480314960629921,
          "duration": 0.2173912499999986
        },
        {
          "name": "D3",
          "midi": 50,
          "time": 33.69564374999992,
          "velocity": 0.7480314960629921,
          "duration": 0.2173912499999986
        },
        {
          "name": "G2",
          "midi": 43,
          "time": 33.69564374999992,
          "velocity": 0.7480314960629921,
          "duration": 0.2173912499999986
        },
        {
          "name": "A#3",
          "midi": 58,
          "time": 33.913034999999915,
          "velocity": 0.7480314960629921,
          "duration": 0.2173912499999986
        },
        {
          "name": "F3",
          "midi": 53,
          "time": 33.913034999999915,
          "velocity": 0.7480314960629921,
          "duration": 0.2173912499999986
        },
        {
          "name": "A#2",
          "midi": 46,
          "time": 33.913034999999915,
          "velocity": 0.7480314960629921,
          "duration": 0.2173912499999986
        },
        {
          "name": "A#3",
          "midi": 58,
          "time": 34.130426249999914,
          "velocity": 0.7480314960629921,
          "duration": 0.2173912499999986
        },
        {
          "name": "F3",
          "midi": 53,
          "time": 34.130426249999914,
          "velocity": 0.7480314960629921,
          "duration": 0.2173912499999986
        },
        {
          "name": "A#2",
          "midi": 46,
          "time": 34.130426249999914,
          "velocity": 0.7480314960629921,
          "duration": 0.2173912499999986
        },
        {
          "name": "A#3",
          "midi": 58,
          "time": 34.34781749999991,
          "velocity": 0.7480314960629921,
          "duration": 0.2173912499999986
        },
        {
          "name": "F3",
          "midi": 53,
          "time": 34.34781749999991,
          "velocity": 0.7480314960629921,
          "duration": 0.2173912499999986
        },
        {
          "name": "A#2",
          "midi": 46,
          "time": 34.34781749999991,
          "velocity": 0.7480314960629921,
          "duration": 0.2173912499999986
        },
        {
          "name": "A#3",
          "midi": 58,
          "time": 34.56520874999991,
          "velocity": 0.7480314960629921,
          "duration": 0.2173912499999986
        },
        {
          "name": "F3",
          "midi": 53,
          "time": 34.56520874999991,
          "velocity": 0.7480314960629921,
          "duration": 0.2173912499999986
        },
        {
          "name": "A#2",
          "midi": 46,
          "time": 34.56520874999991,
          "velocity": 0.7480314960629921,
          "duration": 0.2173912499999986
        },
        {
          "name": "F3",
          "midi": 53,
          "time": 34.78259999999991,
          "velocity": 0.7480314960629921,
          "duration": 0.2173912499999986
        },
        {
          "name": "C3",
          "midi": 48,
          "time": 34.78259999999991,
          "velocity": 0.7480314960629921,
          "duration": 0.2173912499999986
        },
        {
          "name": "F2",
          "midi": 41,
          "time": 34.78259999999991,
          "velocity": 0.7480314960629921,
          "duration": 0.2173912499999986
        },
        {
          "name": "F3",
          "midi": 53,
          "time": 34.99999124999991,
          "velocity": 0.7480314960629921,
          "duration": 0.2173912499999986
        },
        {
          "name": "C3",
          "midi": 48,
          "time": 34.99999124999991,
          "velocity": 0.7480314960629921,
          "duration": 0.2173912499999986
        },
        {
          "name": "F2",
          "midi": 41,
          "time": 34.99999124999991,
          "velocity": 0.7480314960629921,
          "duration": 0.2173912499999986
        },
        {
          "name": "F3",
          "midi": 53,
          "time": 35.21738249999991,
          "velocity": 0.7480314960629921,
          "duration": 0.2173912499999986
        },
        {
          "name": "C3",
          "midi": 48,
          "time": 35.21738249999991,
          "velocity": 0.7480314960629921,
          "duration": 0.2173912499999986
        },
        {
          "name": "F2",
          "midi": 41,
          "time": 35.21738249999991,
          "velocity": 0.7480314960629921,
          "duration": 0.2173912499999986
        },
        {
          "name": "F3",
          "midi": 53,
          "time": 35.434773749999906,
          "velocity": 0.7480314960629921,
          "duration": 0.2173912499999986
        },
        {
          "name": "C3",
          "midi": 48,
          "time": 35.434773749999906,
          "velocity": 0.7480314960629921,
          "duration": 0.2173912499999986
        },
        {
          "name": "F2",
          "midi": 41,
          "time": 35.434773749999906,
          "velocity": 0.7480314960629921,
          "duration": 0.2173912499999986
        },
        {
          "name": "A#3",
          "midi": 58,
          "time": 35.652164999999904,
          "velocity": 0.7480314960629921,
          "duration": 0.2173912499999986
        },
        {
          "name": "F3",
          "midi": 53,
          "time": 35.652164999999904,
          "velocity": 0.7480314960629921,
          "duration": 0.2173912499999986
        },
        {
          "name": "A#2",
          "midi": 46,
          "time": 35.652164999999904,
          "velocity": 0.7480314960629921,
          "duration": 0.2173912499999986
        },
        {
          "name": "A#3",
          "midi": 58,
          "time": 35.8695562499999,
          "velocity": 0.7480314960629921,
          "duration": 0.2173912499999986
        },
        {
          "name": "F3",
          "midi": 53,
          "time": 35.8695562499999,
          "velocity": 0.7480314960629921,
          "duration": 0.2173912499999986
        },
        {
          "name": "A#2",
          "midi": 46,
          "time": 35.8695562499999,
          "velocity": 0.7480314960629921,
          "duration": 0.2173912499999986
        },
        {
          "name": "A#3",
          "midi": 58,
          "time": 36.0869474999999,
          "velocity": 0.7480314960629921,
          "duration": 0.2173912499999986
        },
        {
          "name": "F3",
          "midi": 53,
          "time": 36.0869474999999,
          "velocity": 0.7480314960629921,
          "duration": 0.2173912499999986
        },
        {
          "name": "A#2",
          "midi": 46,
          "time": 36.0869474999999,
          "velocity": 0.7480314960629921,
          "duration": 0.2173912499999986
        },
        {
          "name": "A#3",
          "midi": 58,
          "time": 36.3043387499999,
          "velocity": 0.7480314960629921,
          "duration": 0.2173912499999986
        },
        {
          "name": "F3",
          "midi": 53,
          "time": 36.3043387499999,
          "velocity": 0.7480314960629921,
          "duration": 0.2173912499999986
        },
        {
          "name": "A#2",
          "midi": 46,
          "time": 36.3043387499999,
          "velocity": 0.7480314960629921,
          "duration": 0.2173912499999986
        },
        {
          "name": "G3",
          "midi": 55,
          "time": 36.5217299999999,
          "velocity": 0.7480314960629921,
          "duration": 0.2173912499999986
        },
        {
          "name": "D3",
          "midi": 50,
          "time": 36.5217299999999,
          "velocity": 0.7480314960629921,
          "duration": 0.2173912499999986
        },
        {
          "name": "G2",
          "midi": 43,
          "time": 36.5217299999999,
          "velocity": 0.7480314960629921,
          "duration": 0.2173912499999986
        },
        {
          "name": "G3",
          "midi": 55,
          "time": 36.7391212499999,
          "velocity": 0.7480314960629921,
          "duration": 0.2173912499999986
        },
        {
          "name": "D3",
          "midi": 50,
          "time": 36.7391212499999,
          "velocity": 0.7480314960629921,
          "duration": 0.2173912499999986
        },
        {
          "name": "G2",
          "midi": 43,
          "time": 36.7391212499999,
          "velocity": 0.7480314960629921,
          "duration": 0.2173912499999986
        },
        {
          "name": "G3",
          "midi": 55,
          "time": 36.956512499999896,
          "velocity": 0.7480314960629921,
          "duration": 0.2173912499999986
        },
        {
          "name": "D3",
          "midi": 50,
          "time": 36.956512499999896,
          "velocity": 0.7480314960629921,
          "duration": 0.2173912499999986
        },
        {
          "name": "G2",
          "midi": 43,
          "time": 36.956512499999896,
          "velocity": 0.7480314960629921,
          "duration": 0.2173912499999986
        },
        {
          "name": "G3",
          "midi": 55,
          "time": 37.173903749999894,
          "velocity": 0.7480314960629921,
          "duration": 0.2173912499999986
        },
        {
          "name": "D3",
          "midi": 50,
          "time": 37.173903749999894,
          "velocity": 0.7480314960629921,
          "duration": 0.2173912499999986
        },
        {
          "name": "G2",
          "midi": 43,
          "time": 37.173903749999894,
          "velocity": 0.7480314960629921,
          "duration": 0.2173912499999986
        },
        {
          "name": "A#3",
          "midi": 58,
          "time": 37.39129499999989,
          "velocity": 0.7480314960629921,
          "duration": 0.2173912499999986
        },
        {
          "name": "F3",
          "midi": 53,
          "time": 37.39129499999989,
          "velocity": 0.7480314960629921,
          "duration": 0.2173912499999986
        },
        {
          "name": "A#2",
          "midi": 46,
          "time": 37.39129499999989,
          "velocity": 0.7480314960629921,
          "duration": 0.2173912499999986
        },
        {
          "name": "A#3",
          "midi": 58,
          "time": 37.60868624999989,
          "velocity": 0.7480314960629921,
          "duration": 0.2173912499999986
        },
        {
          "name": "F3",
          "midi": 53,
          "time": 37.60868624999989,
          "velocity": 0.7480314960629921,
          "duration": 0.2173912499999986
        },
        {
          "name": "A#2",
          "midi": 46,
          "time": 37.60868624999989,
          "velocity": 0.7480314960629921,
          "duration": 0.2173912499999986
        },
        {
          "name": "A#3",
          "midi": 58,
          "time": 37.82607749999989,
          "velocity": 0.7480314960629921,
          "duration": 0.2173912499999986
        },
        {
          "name": "F3",
          "midi": 53,
          "time": 37.82607749999989,
          "velocity": 0.7480314960629921,
          "duration": 0.2173912499999986
        },
        {
          "name": "A#2",
          "midi": 46,
          "time": 37.82607749999989,
          "velocity": 0.7480314960629921,
          "duration": 0.2173912499999986
        },
        {
          "name": "A#3",
          "midi": 58,
          "time": 38.04346874999989,
          "velocity": 0.7480314960629921,
          "duration": 0.2173912499999986
        },
        {
          "name": "F3",
          "midi": 53,
          "time": 38.04346874999989,
          "velocity": 0.7480314960629921,
          "duration": 0.2173912499999986
        },
        {
          "name": "A#2",
          "midi": 46,
          "time": 38.04346874999989,
          "velocity": 0.7480314960629921,
          "duration": 0.2173912499999986
        },
        {
          "name": "F3",
          "midi": 53,
          "time": 38.26085999999989,
          "velocity": 0.7480314960629921,
          "duration": 0.2173912499999986
        },
        {
          "name": "C3",
          "midi": 48,
          "time": 38.26085999999989,
          "velocity": 0.7480314960629921,
          "duration": 0.2173912499999986
        },
        {
          "name": "F2",
          "midi": 41,
          "time": 38.26085999999989,
          "velocity": 0.7480314960629921,
          "duration": 0.2173912499999986
        },
        {
          "name": "F3",
          "midi": 53,
          "time": 38.478251249999886,
          "velocity": 0.7480314960629921,
          "duration": 0.2173912499999986
        },
        {
          "name": "C3",
          "midi": 48,
          "time": 38.478251249999886,
          "velocity": 0.7480314960629921,
          "duration": 0.2173912499999986
        },
        {
          "name": "F2",
          "midi": 41,
          "time": 38.478251249999886,
          "velocity": 0.7480314960629921,
          "duration": 0.2173912499999986
        },
        {
          "name": "F3",
          "midi": 53,
          "time": 38.695642499999884,
          "velocity": 0.7480314960629921,
          "duration": 0.2173912499999986
        },
        {
          "name": "C3",
          "midi": 48,
          "time": 38.695642499999884,
          "velocity": 0.7480314960629921,
          "duration": 0.2173912499999986
        },
        {
          "name": "F2",
          "midi": 41,
          "time": 38.695642499999884,
          "velocity": 0.7480314960629921,
          "duration": 0.2173912499999986
        },
        {
          "name": "F3",
          "midi": 53,
          "time": 38.91303374999988,
          "velocity": 0.7480314960629921,
          "duration": 0.2173912499999986
        },
        {
          "name": "C3",
          "midi": 48,
          "time": 38.91303374999988,
          "velocity": 0.7480314960629921,
          "duration": 0.2173912499999986
        },
        {
          "name": "F2",
          "midi": 41,
          "time": 38.91303374999988,
          "velocity": 0.7480314960629921,
          "duration": 0.2173912499999986
        },
        {
          "name": "A#3",
          "midi": 58,
          "time": 39.13042499999988,
          "velocity": 0.7480314960629921,
          "duration": 0.2173912499999986
        },
        {
          "name": "F3",
          "midi": 53,
          "time": 39.13042499999988,
          "velocity": 0.7480314960629921,
          "duration": 0.2173912499999986
        },
        {
          "name": "A#2",
          "midi": 46,
          "time": 39.13042499999988,
          "velocity": 0.7480314960629921,
          "duration": 0.2173912499999986
        },
        {
          "name": "A#3",
          "midi": 58,
          "time": 39.34781624999988,
          "velocity": 0.7480314960629921,
          "duration": 0.2173912499999986
        },
        {
          "name": "F3",
          "midi": 53,
          "time": 39.34781624999988,
          "velocity": 0.7480314960629921,
          "duration": 0.2173912499999986
        },
        {
          "name": "A#2",
          "midi": 46,
          "time": 39.34781624999988,
          "velocity": 0.7480314960629921,
          "duration": 0.2173912499999986
        },
        {
          "name": "A#3",
          "midi": 58,
          "time": 39.56520749999988,
          "velocity": 0.7480314960629921,
          "duration": 0.2173912499999986
        },
        {
          "name": "F3",
          "midi": 53,
          "time": 39.56520749999988,
          "velocity": 0.7480314960629921,
          "duration": 0.2173912499999986
        },
        {
          "name": "A#2",
          "midi": 46,
          "time": 39.56520749999988,
          "velocity": 0.7480314960629921,
          "duration": 0.2173912499999986
        },
        {
          "name": "A#3",
          "midi": 58,
          "time": 39.78259874999988,
          "velocity": 0.7480314960629921,
          "duration": 0.2173912499999986
        },
        {
          "name": "F3",
          "midi": 53,
          "time": 39.78259874999988,
          "velocity": 0.7480314960629921,
          "duration": 0.2173912499999986
        },
        {
          "name": "A#2",
          "midi": 46,
          "time": 39.78259874999988,
          "velocity": 0.7480314960629921,
          "duration": 0.2173912499999986
        },
        {
          "name": "G3",
          "midi": 55,
          "time": 39.999989999999876,
          "velocity": 0.7480314960629921,
          "duration": 0.2173912499999986
        },
        {
          "name": "D3",
          "midi": 50,
          "time": 39.999989999999876,
          "velocity": 0.7480314960629921,
          "duration": 0.2173912499999986
        },
        {
          "name": "G2",
          "midi": 43,
          "time": 39.999989999999876,
          "velocity": 0.7480314960629921,
          "duration": 0.2173912499999986
        },
        {
          "name": "G3",
          "midi": 55,
          "time": 40.217381249999875,
          "velocity": 0.7480314960629921,
          "duration": 0.2173912499999986
        },
        {
          "name": "D3",
          "midi": 50,
          "time": 40.217381249999875,
          "velocity": 0.7480314960629921,
          "duration": 0.2173912499999986
        },
        {
          "name": "G2",
          "midi": 43,
          "time": 40.217381249999875,
          "velocity": 0.7480314960629921,
          "duration": 0.2173912499999986
        },
        {
          "name": "G3",
          "midi": 55,
          "time": 40.43477249999987,
          "velocity": 0.7480314960629921,
          "duration": 0.2173912499999986
        },
        {
          "name": "D3",
          "midi": 50,
          "time": 40.43477249999987,
          "velocity": 0.7480314960629921,
          "duration": 0.2173912499999986
        },
        {
          "name": "G2",
          "midi": 43,
          "time": 40.43477249999987,
          "velocity": 0.7480314960629921,
          "duration": 0.2173912499999986
        },
        {
          "name": "G3",
          "midi": 55,
          "time": 40.65216374999987,
          "velocity": 0.7480314960629921,
          "duration": 0.2173912499999986
        },
        {
          "name": "D3",
          "midi": 50,
          "time": 40.65216374999987,
          "velocity": 0.7480314960629921,
          "duration": 0.2173912499999986
        },
        {
          "name": "G2",
          "midi": 43,
          "time": 40.65216374999987,
          "velocity": 0.7480314960629921,
          "duration": 0.2173912499999986
        },
        {
          "name": "A#3",
          "midi": 58,
          "time": 40.86955499999987,
          "velocity": 0.7480314960629921,
          "duration": 0.2173912499999986
        },
        {
          "name": "F3",
          "midi": 53,
          "time": 40.86955499999987,
          "velocity": 0.7480314960629921,
          "duration": 0.2173912499999986
        },
        {
          "name": "A#2",
          "midi": 46,
          "time": 40.86955499999987,
          "velocity": 0.7480314960629921,
          "duration": 0.2173912499999986
        },
        {
          "name": "A#3",
          "midi": 58,
          "time": 41.08694624999987,
          "velocity": 0.7480314960629921,
          "duration": 0.2173912499999986
        },
        {
          "name": "F3",
          "midi": 53,
          "time": 41.08694624999987,
          "velocity": 0.7480314960629921,
          "duration": 0.2173912499999986
        },
        {
          "name": "A#2",
          "midi": 46,
          "time": 41.08694624999987,
          "velocity": 0.7480314960629921,
          "duration": 0.2173912499999986
        },
        {
          "name": "A#3",
          "midi": 58,
          "time": 41.30433749999987,
          "velocity": 0.7480314960629921,
          "duration": 0.2173912499999986
        },
        {
          "name": "F3",
          "midi": 53,
          "time": 41.30433749999987,
          "velocity": 0.7480314960629921,
          "duration": 0.2173912499999986
        },
        {
          "name": "A#2",
          "midi": 46,
          "time": 41.30433749999987,
          "velocity": 0.7480314960629921,
          "duration": 0.2173912499999986
        },
        {
          "name": "A#3",
          "midi": 58,
          "time": 41.521728749999866,
          "velocity": 0.7480314960629921,
          "duration": 0.2173912499999986
        },
        {
          "name": "F3",
          "midi": 53,
          "time": 41.521728749999866,
          "velocity": 0.7480314960629921,
          "duration": 0.2173912499999986
        },
        {
          "name": "A#2",
          "midi": 46,
          "time": 41.521728749999866,
          "velocity": 0.7480314960629921,
          "duration": 0.2173912499999986
        },
        {
          "name": "F3",
          "midi": 53,
          "time": 41.739119999999865,
          "velocity": 0.7480314960629921,
          "duration": 0.2173912499999986
        },
        {
          "name": "C3",
          "midi": 48,
          "time": 41.739119999999865,
          "velocity": 0.7480314960629921,
          "duration": 0.2173912499999986
        },
        {
          "name": "F2",
          "midi": 41,
          "time": 41.739119999999865,
          "velocity": 0.7480314960629921,
          "duration": 0.2173912499999986
        },
        {
          "name": "F3",
          "midi": 53,
          "time": 41.95651124999986,
          "velocity": 0.7480314960629921,
          "duration": 0.2173912499999986
        },
        {
          "name": "C3",
          "midi": 48,
          "time": 41.95651124999986,
          "velocity": 0.7480314960629921,
          "duration": 0.2173912499999986
        },
        {
          "name": "F2",
          "midi": 41,
          "time": 41.95651124999986,
          "velocity": 0.7480314960629921,
          "duration": 0.2173912499999986
        },
        {
          "name": "F3",
          "midi": 53,
          "time": 42.17390249999986,
          "velocity": 0.7480314960629921,
          "duration": 0.2173912499999986
        },
        {
          "name": "C3",
          "midi": 48,
          "time": 42.17390249999986,
          "velocity": 0.7480314960629921,
          "duration": 0.2173912499999986
        },
        {
          "name": "F2",
          "midi": 41,
          "time": 42.17390249999986,
          "velocity": 0.7480314960629921,
          "duration": 0.2173912499999986
        },
        {
          "name": "F3",
          "midi": 53,
          "time": 42.39129374999986,
          "velocity": 0.7480314960629921,
          "duration": 0.2173912499999986
        },
        {
          "name": "C3",
          "midi": 48,
          "time": 42.39129374999986,
          "velocity": 0.7480314960629921,
          "duration": 0.2173912499999986
        },
        {
          "name": "F2",
          "midi": 41,
          "time": 42.39129374999986,
          "velocity": 0.7480314960629921,
          "duration": 0.2173912499999986
        },
        {
          "name": "A#3",
          "midi": 58,
          "time": 42.60868499999986,
          "velocity": 0.7480314960629921,
          "duration": 0.2173912499999986
        },
        {
          "name": "F3",
          "midi": 53,
          "time": 42.60868499999986,
          "velocity": 0.7480314960629921,
          "duration": 0.2173912499999986
        },
        {
          "name": "A#2",
          "midi": 46,
          "time": 42.60868499999986,
          "velocity": 0.7480314960629921,
          "duration": 0.2173912499999986
        },
        {
          "name": "A#3",
          "midi": 58,
          "time": 42.82607624999986,
          "velocity": 0.7480314960629921,
          "duration": 0.2173912499999986
        },
        {
          "name": "F3",
          "midi": 53,
          "time": 42.82607624999986,
          "velocity": 0.7480314960629921,
          "duration": 0.2173912499999986
        },
        {
          "name": "A#2",
          "midi": 46,
          "time": 42.82607624999986,
          "velocity": 0.7480314960629921,
          "duration": 0.2173912499999986
        },
        {
          "name": "A#3",
          "midi": 58,
          "time": 43.043467499999856,
          "velocity": 0.7480314960629921,
          "duration": 0.2173912499999986
        },
        {
          "name": "F3",
          "midi": 53,
          "time": 43.043467499999856,
          "velocity": 0.7480314960629921,
          "duration": 0.2173912499999986
        },
        {
          "name": "A#2",
          "midi": 46,
          "time": 43.043467499999856,
          "velocity": 0.7480314960629921,
          "duration": 0.2173912499999986
        },
        {
          "name": "A#3",
          "midi": 58,
          "time": 43.260858749999855,
          "velocity": 0.7480314960629921,
          "duration": 0.2173912499999986
        },
        {
          "name": "F3",
          "midi": 53,
          "time": 43.260858749999855,
          "velocity": 0.7480314960629921,
          "duration": 0.2173912499999986
        },
        {
          "name": "A#2",
          "midi": 46,
          "time": 43.260858749999855,
          "velocity": 0.7480314960629921,
          "duration": 0.2173912499999986
        },
        {
          "name": "G3",
          "midi": 55,
          "time": 43.47824999999985,
          "velocity": 0.7480314960629921,
          "duration": 0.2173912499999986
        },
        {
          "name": "D3",
          "midi": 50,
          "time": 43.47824999999985,
          "velocity": 0.7480314960629921,
          "duration": 0.2173912499999986
        },
        {
          "name": "G2",
          "midi": 43,
          "time": 43.47824999999985,
          "velocity": 0.7480314960629921,
          "duration": 0.2173912499999986
        },
        {
          "name": "G3",
          "midi": 55,
          "time": 43.69564124999985,
          "velocity": 0.7480314960629921,
          "duration": 0.2173912499999986
        },
        {
          "name": "D3",
          "midi": 50,
          "time": 43.69564124999985,
          "velocity": 0.7480314960629921,
          "duration": 0.2173912499999986
        },
        {
          "name": "G2",
          "midi": 43,
          "time": 43.69564124999985,
          "velocity": 0.7480314960629921,
          "duration": 0.2173912499999986
        },
        {
          "name": "G3",
          "midi": 55,
          "time": 43.91303249999985,
          "velocity": 0.7480314960629921,
          "duration": 0.2173912499999986
        },
        {
          "name": "D3",
          "midi": 50,
          "time": 43.91303249999985,
          "velocity": 0.7480314960629921,
          "duration": 0.2173912499999986
        },
        {
          "name": "G2",
          "midi": 43,
          "time": 43.91303249999985,
          "velocity": 0.7480314960629921,
          "duration": 0.2173912499999986
        },
        {
          "name": "G3",
          "midi": 55,
          "time": 44.13042374999985,
          "velocity": 0.7480314960629921,
          "duration": 0.2173912499999986
        },
        {
          "name": "D3",
          "midi": 50,
          "time": 44.13042374999985,
          "velocity": 0.7480314960629921,
          "duration": 0.2173912499999986
        },
        {
          "name": "G2",
          "midi": 43,
          "time": 44.13042374999985,
          "velocity": 0.7480314960629921,
          "duration": 0.2173912499999986
        },
        {
          "name": "A#3",
          "midi": 58,
          "time": 44.34781499999985,
          "velocity": 0.7480314960629921,
          "duration": 0.2173912499999986
        },
        {
          "name": "F3",
          "midi": 53,
          "time": 44.34781499999985,
          "velocity": 0.7480314960629921,
          "duration": 0.2173912499999986
        },
        {
          "name": "A#2",
          "midi": 46,
          "time": 44.34781499999985,
          "velocity": 0.7480314960629921,
          "duration": 0.2173912499999986
        },
        {
          "name": "A#3",
          "midi": 58,
          "time": 44.56520624999985,
          "velocity": 0.7480314960629921,
          "duration": 0.2173912499999986
        },
        {
          "name": "F3",
          "midi": 53,
          "time": 44.56520624999985,
          "velocity": 0.7480314960629921,
          "duration": 0.2173912499999986
        },
        {
          "name": "A#2",
          "midi": 46,
          "time": 44.56520624999985,
          "velocity": 0.7480314960629921,
          "duration": 0.2173912499999986
        },
        {
          "name": "A#3",
          "midi": 58,
          "time": 44.782597499999845,
          "velocity": 0.7480314960629921,
          "duration": 0.2173912499999986
        },
        {
          "name": "F3",
          "midi": 53,
          "time": 44.782597499999845,
          "velocity": 0.7480314960629921,
          "duration": 0.2173912499999986
        },
        {
          "name": "A#2",
          "midi": 46,
          "time": 44.782597499999845,
          "velocity": 0.7480314960629921,
          "duration": 0.2173912499999986
        },
        {
          "name": "A#3",
          "midi": 58,
          "time": 44.999988749999844,
          "velocity": 0.7480314960629921,
          "duration": 0.2173912499999986
        },
        {
          "name": "F3",
          "midi": 53,
          "time": 44.999988749999844,
          "velocity": 0.7480314960629921,
          "duration": 0.2173912499999986
        },
        {
          "name": "A#2",
          "midi": 46,
          "time": 44.999988749999844,
          "velocity": 0.7480314960629921,
          "duration": 0.2173912499999986
        },
        {
          "name": "F3",
          "midi": 53,
          "time": 45.21737999999984,
          "velocity": 0.7480314960629921,
          "duration": 0.2173912499999986
        },
        {
          "name": "C3",
          "midi": 48,
          "time": 45.21737999999984,
          "velocity": 0.7480314960629921,
          "duration": 0.2173912499999986
        },
        {
          "name": "F2",
          "midi": 41,
          "time": 45.21737999999984,
          "velocity": 0.7480314960629921,
          "duration": 0.2173912499999986
        },
        {
          "name": "F3",
          "midi": 53,
          "time": 45.43477124999984,
          "velocity": 0.7480314960629921,
          "duration": 0.2173912499999986
        },
        {
          "name": "C3",
          "midi": 48,
          "time": 45.43477124999984,
          "velocity": 0.7480314960629921,
          "duration": 0.2173912499999986
        },
        {
          "name": "F2",
          "midi": 41,
          "time": 45.43477124999984,
          "velocity": 0.7480314960629921,
          "duration": 0.2173912499999986
        },
        {
          "name": "F3",
          "midi": 53,
          "time": 45.65216249999984,
          "velocity": 0.7480314960629921,
          "duration": 0.2173912499999986
        },
        {
          "name": "C3",
          "midi": 48,
          "time": 45.65216249999984,
          "velocity": 0.7480314960629921,
          "duration": 0.2173912499999986
        },
        {
          "name": "F2",
          "midi": 41,
          "time": 45.65216249999984,
          "velocity": 0.7480314960629921,
          "duration": 0.2173912499999986
        },
        {
          "name": "F3",
          "midi": 53,
          "time": 45.86955374999984,
          "velocity": 0.7480314960629921,
          "duration": 0.2173912499999986
        },
        {
          "name": "C3",
          "midi": 48,
          "time": 45.86955374999984,
          "velocity": 0.7480314960629921,
          "duration": 0.2173912499999986
        },
        {
          "name": "F2",
          "midi": 41,
          "time": 45.86955374999984,
          "velocity": 0.7480314960629921,
          "duration": 0.2173912499999986
        },
        {
          "name": "A#3",
          "midi": 58,
          "time": 46.08694499999984,
          "velocity": 0.7480314960629921,
          "duration": 0.2173912499999986
        },
        {
          "name": "F3",
          "midi": 53,
          "time": 46.08694499999984,
          "velocity": 0.7480314960629921,
          "duration": 0.2173912499999986
        },
        {
          "name": "A#2",
          "midi": 46,
          "time": 46.08694499999984,
          "velocity": 0.7480314960629921,
          "duration": 0.2173912499999986
        },
        {
          "name": "A#3",
          "midi": 58,
          "time": 46.304336249999835,
          "velocity": 0.7480314960629921,
          "duration": 0.2173912499999986
        },
        {
          "name": "F3",
          "midi": 53,
          "time": 46.304336249999835,
          "velocity": 0.7480314960629921,
          "duration": 0.2173912499999986
        },
        {
          "name": "A#2",
          "midi": 46,
          "time": 46.304336249999835,
          "velocity": 0.7480314960629921,
          "duration": 0.2173912499999986
        },
        {
          "name": "A#3",
          "midi": 58,
          "time": 46.521727499999834,
          "velocity": 0.7480314960629921,
          "duration": 0.2173912499999986
        },
        {
          "name": "F3",
          "midi": 53,
          "time": 46.521727499999834,
          "velocity": 0.7480314960629921,
          "duration": 0.2173912499999986
        },
        {
          "name": "A#2",
          "midi": 46,
          "time": 46.521727499999834,
          "velocity": 0.7480314960629921,
          "duration": 0.2173912499999986
        },
        {
          "name": "A#3",
          "midi": 58,
          "time": 46.73911874999983,
          "velocity": 0.7480314960629921,
          "duration": 0.2173912499999986
        },
        {
          "name": "F3",
          "midi": 53,
          "time": 46.73911874999983,
          "velocity": 0.7480314960629921,
          "duration": 0.2173912499999986
        },
        {
          "name": "A#2",
          "midi": 46,
          "time": 46.73911874999983,
          "velocity": 0.7480314960629921,
          "duration": 0.2173912499999986
        },
        {
          "name": "G3",
          "midi": 55,
          "time": 46.95650999999983,
          "velocity": 0.7480314960629921,
          "duration": 0.2173912499999986
        },
        {
          "name": "D3",
          "midi": 50,
          "time": 46.95650999999983,
          "velocity": 0.7480314960629921,
          "duration": 0.2173912499999986
        },
        {
          "name": "G2",
          "midi": 43,
          "time": 46.95650999999983,
          "velocity": 0.7480314960629921,
          "duration": 0.2173912499999986
        },
        {
          "name": "G3",
          "midi": 55,
          "time": 47.17390124999983,
          "velocity": 0.7480314960629921,
          "duration": 0.2173912499999986
        },
        {
          "name": "D3",
          "midi": 50,
          "time": 47.17390124999983,
          "velocity": 0.7480314960629921,
          "duration": 0.2173912499999986
        },
        {
          "name": "G2",
          "midi": 43,
          "time": 47.17390124999983,
          "velocity": 0.7480314960629921,
          "duration": 0.2173912499999986
        },
        {
          "name": "G3",
          "midi": 55,
          "time": 47.39129249999983,
          "velocity": 0.7480314960629921,
          "duration": 0.2173912499999986
        },
        {
          "name": "D3",
          "midi": 50,
          "time": 47.39129249999983,
          "velocity": 0.7480314960629921,
          "duration": 0.2173912499999986
        },
        {
          "name": "G2",
          "midi": 43,
          "time": 47.39129249999983,
          "velocity": 0.7480314960629921,
          "duration": 0.2173912499999986
        },
        {
          "name": "G3",
          "midi": 55,
          "time": 47.60868374999983,
          "velocity": 0.7480314960629921,
          "duration": 0.2173912499999986
        },
        {
          "name": "D3",
          "midi": 50,
          "time": 47.60868374999983,
          "velocity": 0.7480314960629921,
          "duration": 0.2173912499999986
        },
        {
          "name": "G2",
          "midi": 43,
          "time": 47.60868374999983,
          "velocity": 0.7480314960629921,
          "duration": 0.2173912499999986
        },
        {
          "name": "A#3",
          "midi": 58,
          "time": 47.826074999999825,
          "velocity": 0.7480314960629921,
          "duration": 0.2173912499999986
        },
        {
          "name": "F3",
          "midi": 53,
          "time": 47.826074999999825,
          "velocity": 0.7480314960629921,
          "duration": 0.2173912499999986
        },
        {
          "name": "A#2",
          "midi": 46,
          "time": 47.826074999999825,
          "velocity": 0.7480314960629921,
          "duration": 0.2173912499999986
        },
        {
          "name": "A#3",
          "midi": 58,
          "time": 48.043466249999824,
          "velocity": 0.7480314960629921,
          "duration": 0.2173912499999986
        },
        {
          "name": "F3",
          "midi": 53,
          "time": 48.043466249999824,
          "velocity": 0.7480314960629921,
          "duration": 0.2173912499999986
        },
        {
          "name": "A#2",
          "midi": 46,
          "time": 48.043466249999824,
          "velocity": 0.7480314960629921,
          "duration": 0.2173912499999986
        },
        {
          "name": "A#3",
          "midi": 58,
          "time": 48.26085749999982,
          "velocity": 0.7480314960629921,
          "duration": 0.2173912499999986
        },
        {
          "name": "F3",
          "midi": 53,
          "time": 48.26085749999982,
          "velocity": 0.7480314960629921,
          "duration": 0.2173912499999986
        },
        {
          "name": "A#2",
          "midi": 46,
          "time": 48.26085749999982,
          "velocity": 0.7480314960629921,
          "duration": 0.2173912499999986
        },
        {
          "name": "A#3",
          "midi": 58,
          "time": 48.47824874999982,
          "velocity": 0.7480314960629921,
          "duration": 0.2173912499999986
        },
        {
          "name": "F3",
          "midi": 53,
          "time": 48.47824874999982,
          "velocity": 0.7480314960629921,
          "duration": 0.2173912499999986
        },
        {
          "name": "A#2",
          "midi": 46,
          "time": 48.47824874999982,
          "velocity": 0.7480314960629921,
          "duration": 0.2173912499999986
        },
        {
          "name": "C5",
          "midi": 72,
          "time": 55.65215999999982,
          "velocity": 0.7480314960629921,
          "duration": 0.2173912499999986
        },
        {
          "name": "G4",
          "midi": 67,
          "time": 55.65215999999982,
          "velocity": 0.7480314960629921,
          "duration": 0.2173912499999986
        },
        {
          "name": "C5",
          "midi": 72,
          "time": 55.869551249999816,
          "velocity": 0.7480314960629921,
          "duration": 0.2173912499999986
        },
        {
          "name": "G4",
          "midi": 67,
          "time": 55.869551249999816,
          "velocity": 0.7480314960629921,
          "duration": 0.2173912499999986
        },
        {
          "name": "D5",
          "midi": 74,
          "time": 56.086942499999815,
          "velocity": 0.7480314960629921,
          "duration": 0.2173912499999986
        },
        {
          "name": "G4",
          "midi": 67,
          "time": 56.086942499999815,
          "velocity": 0.7480314960629921,
          "duration": 0.2173912499999986
        },
        {
          "name": "C5",
          "midi": 72,
          "time": 56.30433374999981,
          "velocity": 0.6771653543307087,
          "duration": 0.2173912499999986
        },
        {
          "name": "G4",
          "midi": 67,
          "time": 56.30433374999981,
          "velocity": 0.7480314960629921,
          "duration": 0.2173912499999986
        },
        {
          "name": "C5",
          "midi": 72,
          "time": 56.52172499999981,
          "velocity": 0.7480314960629921,
          "duration": 0.2173912499999986
        },
        {
          "name": "G4",
          "midi": 67,
          "time": 56.52172499999981,
          "velocity": 0.7480314960629921,
          "duration": 0.2173912499999986
        },
        {
          "name": "C5",
          "midi": 72,
          "time": 56.73911624999981,
          "velocity": 0.7480314960629921,
          "duration": 0.2173912499999986
        },
        {
          "name": "G4",
          "midi": 67,
          "time": 56.73911624999981,
          "velocity": 0.7480314960629921,
          "duration": 0.2173912499999986
        },
        {
          "name": "D5",
          "midi": 74,
          "time": 56.95650749999981,
          "velocity": 0.7480314960629921,
          "duration": 0.2173912499999986
        },
        {
          "name": "G4",
          "midi": 67,
          "time": 56.95650749999981,
          "velocity": 0.7480314960629921,
          "duration": 0.2173912499999986
        },
        {
          "name": "C5",
          "midi": 72,
          "time": 57.17389874999981,
          "velocity": 0.6771653543307087,
          "duration": 0.2173912499999986
        },
        {
          "name": "G4",
          "midi": 67,
          "time": 57.17389874999981,
          "velocity": 0.7480314960629921,
          "duration": 0.2173912499999986
        },
        {
          "name": "C5",
          "midi": 72,
          "time": 57.391289999999806,
          "velocity": 0.7480314960629921,
          "duration": 0.2173912499999986
        },
        {
          "name": "G4",
          "midi": 67,
          "time": 57.391289999999806,
          "velocity": 0.7480314960629921,
          "duration": 0.2173912499999986
        },
        {
          "name": "C5",
          "midi": 72,
          "time": 57.608681249999805,
          "velocity": 0.7480314960629921,
          "duration": 0.2173912499999986
        },
        {
          "name": "G4",
          "midi": 67,
          "time": 57.608681249999805,
          "velocity": 0.7480314960629921,
          "duration": 0.2173912499999986
        },
        {
          "name": "D5",
          "midi": 74,
          "time": 57.8260724999998,
          "velocity": 0.7480314960629921,
          "duration": 0.2173912499999986
        },
        {
          "name": "G4",
          "midi": 67,
          "time": 57.8260724999998,
          "velocity": 0.7480314960629921,
          "duration": 0.2173912499999986
        },
        {
          "name": "C5",
          "midi": 72,
          "time": 58.0434637499998,
          "velocity": 0.6771653543307087,
          "duration": 0.2173912499999986
        },
        {
          "name": "G4",
          "midi": 67,
          "time": 58.0434637499998,
          "velocity": 0.7480314960629921,
          "duration": 0.2173912499999986
        },
        {
          "name": "C5",
          "midi": 72,
          "time": 58.2608549999998,
          "velocity": 0.7480314960629921,
          "duration": 0.2173912499999986
        },
        {
          "name": "G4",
          "midi": 67,
          "time": 58.2608549999998,
          "velocity": 0.7480314960629921,
          "duration": 0.2173912499999986
        },
        {
          "name": "C5",
          "midi": 72,
          "time": 58.4782462499998,
          "velocity": 0.7480314960629921,
          "duration": 0.2173912499999986
        },
        {
          "name": "G4",
          "midi": 67,
          "time": 58.4782462499998,
          "velocity": 0.7480314960629921,
          "duration": 0.2173912499999986
        },
        {
          "name": "D5",
          "midi": 74,
          "time": 58.6956374999998,
          "velocity": 0.7480314960629921,
          "duration": 0.2173912499999986
        },
        {
          "name": "G4",
          "midi": 67,
          "time": 58.6956374999998,
          "velocity": 0.7480314960629921,
          "duration": 0.2173912499999986
        },
        {
          "name": "C5",
          "midi": 72,
          "time": 58.913028749999796,
          "velocity": 0.6771653543307087,
          "duration": 0.2173912499999986
        },
        {
          "name": "G4",
          "midi": 67,
          "time": 58.913028749999796,
          "velocity": 0.7480314960629921,
          "duration": 0.2173912499999986
        },
        {
          "name": "F3",
          "midi": 53,
          "time": 59.130419999999795,
          "velocity": 0.7480314960629921,
          "duration": 0.6521737500000029
        },
        {
          "name": "E3",
          "midi": 52,
          "time": 59.7825937499998,
          "velocity": 0.7480314960629921,
          "duration": 0.6521737500000029
        },
        {
          "name": "C3",
          "midi": 48,
          "time": 60.4347674999998,
          "velocity": 0.7480314960629921,
          "duration": 0.4347824999999972
        },
        {
          "name": "F3",
          "midi": 53,
          "time": 60.8695499999998,
          "velocity": 0.7480314960629921,
          "duration": 0.6521737500000029
        },
        {
          "name": "E3",
          "midi": 52,
          "time": 61.5217237499998,
          "velocity": 0.7480314960629921,
          "duration": 0.6521737500000029
        },
        {
          "name": "D3",
          "midi": 50,
          "time": 62.1738974999998,
          "velocity": 0.7480314960629921,
          "duration": 0.4347824999999972
        },
        {
          "name": "F3",
          "midi": 53,
          "time": 62.6086799999998,
          "velocity": 0.7480314960629921,
          "duration": 0.6521737500000029
        },
        {
          "name": "E3",
          "midi": 52,
          "time": 63.260853749999804,
          "velocity": 0.7480314960629921,
          "duration": 0.6521737500000029
        },
        {
          "name": "F3",
          "midi": 53,
          "time": 63.91302749999981,
          "velocity": 0.7480314960629921,
          "duration": 0.4347825000000043
        },
        {
          "name": "A#3",
          "midi": 58,
          "time": 64.34780999999981,
          "velocity": 0.7480314960629921,
          "duration": 0.2173912500000057
        },
        {
          "name": "A3",
          "midi": 57,
          "time": 64.56520124999982,
          "velocity": 0.7480314960629921,
          "duration": 0.2173912500000057
        },
        {
          "name": "A#3",
          "midi": 58,
          "time": 64.78259249999982,
          "velocity": 0.7480314960629921,
          "duration": 0.2173912500000057
        },
        {
          "name": "G3",
          "midi": 55,
          "time": 64.99998374999983,
          "velocity": 0.7480314960629921,
          "duration": 0.6521737500000029
        },
        {
          "name": "G3",
          "midi": 55,
          "time": 65.65215749999983,
          "velocity": 0.7480314960629921,
          "duration": 0.4347824999999972
        },
        {
          "name": "F3",
          "midi": 53,
          "time": 66.08693999999983,
          "velocity": 0.7480314960629921,
          "duration": 0.6521737500000029
        },
        {
          "name": "E3",
          "midi": 52,
          "time": 66.73911374999983,
          "velocity": 0.7480314960629921,
          "duration": 0.6521737500000029
        },
        {
          "name": "C3",
          "midi": 48,
          "time": 67.39128749999983,
          "velocity": 0.7480314960629921,
          "duration": 0.4347824999999972
        },
        {
          "name": "F3",
          "midi": 53,
          "time": 67.82606999999983,
          "velocity": 0.7480314960629921,
          "duration": 0.6521737500000029
        },
        {
          "name": "E3",
          "midi": 52,
          "time": 68.47824374999983,
          "velocity": 0.7480314960629921,
          "duration": 0.6521737500000029
        },
        {
          "name": "D3",
          "midi": 50,
          "time": 69.13041749999984,
          "velocity": 0.7480314960629921,
          "duration": 0.4347824999999972
        },
        {
          "name": "F3",
          "midi": 53,
          "time": 69.56519999999983,
          "velocity": 0.7480314960629921,
          "duration": 0.6521737500000029
        },
        {
          "name": "E3",
          "midi": 52,
          "time": 70.21737374999984,
          "velocity": 0.7480314960629921,
          "duration": 0.6521737500000029
        },
        {
          "name": "F3",
          "midi": 53,
          "time": 70.86954749999984,
          "velocity": 0.7480314960629921,
          "duration": 0.4347824999999972
        },
        {
          "name": "A#3",
          "midi": 58,
          "time": 71.30432999999984,
          "velocity": 0.7480314960629921,
          "duration": 0.2173912500000057
        },
        {
          "name": "A3",
          "midi": 57,
          "time": 71.52172124999984,
          "velocity": 0.7480314960629921,
          "duration": 0.2173912500000057
        },
        {
          "name": "A#3",
          "midi": 58,
          "time": 71.73911249999985,
          "velocity": 0.7480314960629921,
          "duration": 0.2173912500000057
        },
        {
          "name": "G3",
          "midi": 55,
          "time": 71.95650374999985,
          "velocity": 0.7480314960629921,
          "duration": 0.6521737500000029
        },
        {
          "name": "G3",
          "midi": 55,
          "time": 72.60867749999986,
          "velocity": 0.7480314960629921,
          "duration": 0.4347824999999972
        },
        {
          "name": "F3",
          "midi": 53,
          "time": 73.04345999999985,
          "velocity": 0.7480314960629921,
          "duration": 0.2173912500000057
        },
        {
          "name": "C3",
          "midi": 48,
          "time": 73.04345999999985,
          "velocity": 0.7480314960629921,
          "duration": 0.2173912500000057
        },
        {
          "name": "F2",
          "midi": 41,
          "time": 73.04345999999985,
          "velocity": 0.7480314960629921,
          "duration": 0.2173912500000057
        },
        {
          "name": "F3",
          "midi": 53,
          "time": 73.26085124999986,
          "velocity": 0.7480314960629921,
          "duration": 0.2173912500000057
        },
        {
          "name": "C3",
          "midi": 48,
          "time": 73.26085124999986,
          "velocity": 0.7480314960629921,
          "duration": 0.2173912500000057
        },
        {
          "name": "F2",
          "midi": 41,
          "time": 73.26085124999986,
          "velocity": 0.7480314960629921,
          "duration": 0.2173912500000057
        },
        {
          "name": "F3",
          "midi": 53,
          "time": 73.47824249999987,
          "velocity": 0.7480314960629921,
          "duration": 0.2173912500000057
        },
        {
          "name": "C3",
          "midi": 48,
          "time": 73.47824249999987,
          "velocity": 0.7480314960629921,
          "duration": 0.2173912500000057
        },
        {
          "name": "F2",
          "midi": 41,
          "time": 73.47824249999987,
          "velocity": 0.7480314960629921,
          "duration": 0.2173912500000057
        },
        {
          "name": "F3",
          "midi": 53,
          "time": 73.69563374999987,
          "velocity": 0.7480314960629921,
          "duration": 0.2173912500000057
        },
        {
          "name": "C3",
          "midi": 48,
          "time": 73.69563374999987,
          "velocity": 0.7480314960629921,
          "duration": 0.2173912500000057
        },
        {
          "name": "F2",
          "midi": 41,
          "time": 73.69563374999987,
          "velocity": 0.7480314960629921,
          "duration": 0.2173912500000057
        },
        {
          "name": "A#3",
          "midi": 58,
          "time": 73.91302499999988,
          "velocity": 0.7480314960629921,
          "duration": 0.2173912500000057
        },
        {
          "name": "F3",
          "midi": 53,
          "time": 73.91302499999988,
          "velocity": 0.7480314960629921,
          "duration": 0.2173912500000057
        },
        {
          "name": "A#2",
          "midi": 46,
          "time": 73.91302499999988,
          "velocity": 0.7480314960629921,
          "duration": 0.2173912500000057
        },
        {
          "name": "A#3",
          "midi": 58,
          "time": 74.13041624999988,
          "velocity": 0.7480314960629921,
          "duration": 0.2173912500000057
        },
        {
          "name": "F3",
          "midi": 53,
          "time": 74.13041624999988,
          "velocity": 0.7480314960629921,
          "duration": 0.2173912500000057
        },
        {
          "name": "A#2",
          "midi": 46,
          "time": 74.13041624999988,
          "velocity": 0.7480314960629921,
          "duration": 0.2173912500000057
        },
        {
          "name": "A#3",
          "midi": 58,
          "time": 74.34780749999989,
          "velocity": 0.7480314960629921,
          "duration": 0.2173912500000057
        },
        {
          "name": "F3",
          "midi": 53,
          "time": 74.34780749999989,
          "velocity": 0.7480314960629921,
          "duration": 0.2173912500000057
        },
        {
          "name": "A#2",
          "midi": 46,
          "time": 74.34780749999989,
          "velocity": 0.7480314960629921,
          "duration": 0.2173912500000057
        },
        {
          "name": "A#3",
          "midi": 58,
          "time": 74.5651987499999,
          "velocity": 0.7480314960629921,
          "duration": 0.2173912500000057
        },
        {
          "name": "F3",
          "midi": 53,
          "time": 74.5651987499999,
          "velocity": 0.7480314960629921,
          "duration": 0.2173912500000057
        },
        {
          "name": "A#2",
          "midi": 46,
          "time": 74.5651987499999,
          "velocity": 0.7480314960629921,
          "duration": 0.2173912500000057
        },
        {
          "name": "G3",
          "midi": 55,
          "time": 74.7825899999999,
          "velocity": 0.7480314960629921,
          "duration": 0.2173912500000057
        },
        {
          "name": "D3",
          "midi": 50,
          "time": 74.7825899999999,
          "velocity": 0.7480314960629921,
          "duration": 0.2173912500000057
        },
        {
          "name": "G2",
          "midi": 43,
          "time": 74.7825899999999,
          "velocity": 0.7480314960629921,
          "duration": 0.2173912500000057
        },
        {
          "name": "G3",
          "midi": 55,
          "time": 74.9999812499999,
          "velocity": 0.7480314960629921,
          "duration": 0.2173912500000057
        },
        {
          "name": "D3",
          "midi": 50,
          "time": 74.9999812499999,
          "velocity": 0.7480314960629921,
          "duration": 0.2173912500000057
        },
        {
          "name": "G2",
          "midi": 43,
          "time": 74.9999812499999,
          "velocity": 0.7480314960629921,
          "duration": 0.2173912500000057
        },
        {
          "name": "G3",
          "midi": 55,
          "time": 75.21737249999991,
          "velocity": 0.7480314960629921,
          "duration": 0.2173912500000057
        },
        {
          "name": "D3",
          "midi": 50,
          "time": 75.21737249999991,
          "velocity": 0.7480314960629921,
          "duration": 0.2173912500000057
        },
        {
          "name": "G2",
          "midi": 43,
          "time": 75.21737249999991,
          "velocity": 0.7480314960629921,
          "duration": 0.2173912500000057
        },
        {
          "name": "G3",
          "midi": 55,
          "time": 75.43476374999992,
          "velocity": 0.7480314960629921,
          "duration": 0.2173912500000057
        },
        {
          "name": "D3",
          "midi": 50,
          "time": 75.43476374999992,
          "velocity": 0.7480314960629921,
          "duration": 0.2173912500000057
        },
        {
          "name": "G2",
          "midi": 43,
          "time": 75.43476374999992,
          "velocity": 0.7480314960629921,
          "duration": 0.2173912500000057
        },
        {
          "name": "A#3",
          "midi": 58,
          "time": 75.65215499999992,
          "velocity": 0.7480314960629921,
          "duration": 0.2173912500000057
        },
        {
          "name": "F3",
          "midi": 53,
          "time": 75.65215499999992,
          "velocity": 0.7480314960629921,
          "duration": 0.2173912500000057
        },
        {
          "name": "A#2",
          "midi": 46,
          "time": 75.65215499999992,
          "velocity": 0.7480314960629921,
          "duration": 0.2173912500000057
        },
        {
          "name": "A#3",
          "midi": 58,
          "time": 75.86954624999993,
          "velocity": 0.7480314960629921,
          "duration": 0.2173912500000057
        },
        {
          "name": "F3",
          "midi": 53,
          "time": 75.86954624999993,
          "velocity": 0.7480314960629921,
          "duration": 0.2173912500000057
        },
        {
          "name": "A#2",
          "midi": 46,
          "time": 75.86954624999993,
          "velocity": 0.7480314960629921,
          "duration": 0.2173912500000057
        },
        {
          "name": "A#3",
          "midi": 58,
          "time": 76.08693749999993,
          "velocity": 0.7480314960629921,
          "duration": 0.2173912500000057
        },
        {
          "name": "F3",
          "midi": 53,
          "time": 76.08693749999993,
          "velocity": 0.7480314960629921,
          "duration": 0.2173912500000057
        },
        {
          "name": "A#2",
          "midi": 46,
          "time": 76.08693749999993,
          "velocity": 0.7480314960629921,
          "duration": 0.2173912500000057
        },
        {
          "name": "A#3",
          "midi": 58,
          "time": 76.30432874999994,
          "velocity": 0.7480314960629921,
          "duration": 0.2173912500000057
        },
        {
          "name": "F3",
          "midi": 53,
          "time": 76.30432874999994,
          "velocity": 0.7480314960629921,
          "duration": 0.2173912500000057
        },
        {
          "name": "A#2",
          "midi": 46,
          "time": 76.30432874999994,
          "velocity": 0.7480314960629921,
          "duration": 0.2173912500000057
        },
        {
          "name": "F3",
          "midi": 53,
          "time": 76.52171999999995,
          "velocity": 0.7480314960629921,
          "duration": 0.2173912500000057
        },
        {
          "name": "C3",
          "midi": 48,
          "time": 76.52171999999995,
          "velocity": 0.7480314960629921,
          "duration": 0.2173912500000057
        },
        {
          "name": "F2",
          "midi": 41,
          "time": 76.52171999999995,
          "velocity": 0.7480314960629921,
          "duration": 0.2173912500000057
        },
        {
          "name": "F3",
          "midi": 53,
          "time": 76.73911124999995,
          "velocity": 0.7480314960629921,
          "duration": 0.2173912500000057
        },
        {
          "name": "C3",
          "midi": 48,
          "time": 76.73911124999995,
          "velocity": 0.7480314960629921,
          "duration": 0.2173912500000057
        },
        {
          "name": "F2",
          "midi": 41,
          "time": 76.73911124999995,
          "velocity": 0.7480314960629921,
          "duration": 0.2173912500000057
        },
        {
          "name": "F3",
          "midi": 53,
          "time": 76.95650249999996,
          "velocity": 0.7480314960629921,
          "duration": 0.2173912500000057
        },
        {
          "name": "C3",
          "midi": 48,
          "time": 76.95650249999996,
          "velocity": 0.7480314960629921,
          "duration": 0.2173912500000057
        },
        {
          "name": "F2",
          "midi": 41,
          "time": 76.95650249999996,
          "velocity": 0.7480314960629921,
          "duration": 0.2173912500000057
        },
        {
          "name": "F3",
          "midi": 53,
          "time": 77.17389374999996,
          "velocity": 0.7480314960629921,
          "duration": 0.2173912500000057
        },
        {
          "name": "C3",
          "midi": 48,
          "time": 77.17389374999996,
          "velocity": 0.7480314960629921,
          "duration": 0.2173912500000057
        },
        {
          "name": "F2",
          "midi": 41,
          "time": 77.17389374999996,
          "velocity": 0.7480314960629921,
          "duration": 0.2173912500000057
        },
        {
          "name": "A#3",
          "midi": 58,
          "time": 77.39128499999997,
          "velocity": 0.7480314960629921,
          "duration": 0.2173912500000057
        },
        {
          "name": "F3",
          "midi": 53,
          "time": 77.39128499999997,
          "velocity": 0.7480314960629921,
          "duration": 0.2173912500000057
        },
        {
          "name": "A#2",
          "midi": 46,
          "time": 77.39128499999997,
          "velocity": 0.7480314960629921,
          "duration": 0.2173912500000057
        },
        {
          "name": "A#3",
          "midi": 58,
          "time": 77.60867624999997,
          "velocity": 0.7480314960629921,
          "duration": 0.2173912500000057
        },
        {
          "name": "F3",
          "midi": 53,
          "time": 77.60867624999997,
          "velocity": 0.7480314960629921,
          "duration": 0.2173912500000057
        },
        {
          "name": "A#2",
          "midi": 46,
          "time": 77.60867624999997,
          "velocity": 0.7480314960629921,
          "duration": 0.2173912500000057
        },
        {
          "name": "A#3",
          "midi": 58,
          "time": 77.82606749999998,
          "velocity": 0.7480314960629921,
          "duration": 0.2173912500000057
        },
        {
          "name": "F3",
          "midi": 53,
          "time": 77.82606749999998,
          "velocity": 0.7480314960629921,
          "duration": 0.2173912500000057
        },
        {
          "name": "A#2",
          "midi": 46,
          "time": 77.82606749999998,
          "velocity": 0.7480314960629921,
          "duration": 0.2173912500000057
        },
        {
          "name": "A#3",
          "midi": 58,
          "time": 78.04345874999999,
          "velocity": 0.7480314960629921,
          "duration": 0.2173912500000057
        },
        {
          "name": "F3",
          "midi": 53,
          "time": 78.04345874999999,
          "velocity": 0.7480314960629921,
          "duration": 0.2173912500000057
        },
        {
          "name": "A#2",
          "midi": 46,
          "time": 78.04345874999999,
          "velocity": 0.7480314960629921,
          "duration": 0.2173912500000057
        },
        {
          "name": "G3",
          "midi": 55,
          "time": 78.26084999999999,
          "velocity": 0.7480314960629921,
          "duration": 0.2173912500000057
        },
        {
          "name": "D3",
          "midi": 50,
          "time": 78.26084999999999,
          "velocity": 0.7480314960629921,
          "duration": 0.2173912500000057
        },
        {
          "name": "G2",
          "midi": 43,
          "time": 78.26084999999999,
          "velocity": 0.7480314960629921,
          "duration": 0.2173912500000057
        },
        {
          "name": "G3",
          "midi": 55,
          "time": 78.47824125,
          "velocity": 0.7480314960629921,
          "duration": 0.2173912500000057
        },
        {
          "name": "D3",
          "midi": 50,
          "time": 78.47824125,
          "velocity": 0.7480314960629921,
          "duration": 0.2173912500000057
        },
        {
          "name": "G2",
          "midi": 43,
          "time": 78.47824125,
          "velocity": 0.7480314960629921,
          "duration": 0.2173912500000057
        },
        {
          "name": "G3",
          "midi": 55,
          "time": 78.6956325,
          "velocity": 0.7480314960629921,
          "duration": 0.2173912500000057
        },
        {
          "name": "D3",
          "midi": 50,
          "time": 78.6956325,
          "velocity": 0.7480314960629921,
          "duration": 0.2173912500000057
        },
        {
          "name": "G2",
          "midi": 43,
          "time": 78.6956325,
          "velocity": 0.7480314960629921,
          "duration": 0.2173912500000057
        },
        {
          "name": "G3",
          "midi": 55,
          "time": 78.91302375000001,
          "velocity": 0.7480314960629921,
          "duration": 0.2173912500000057
        },
        {
          "name": "D3",
          "midi": 50,
          "time": 78.91302375000001,
          "velocity": 0.7480314960629921,
          "duration": 0.2173912500000057
        },
        {
          "name": "G2",
          "midi": 43,
          "time": 78.91302375000001,
          "velocity": 0.7480314960629921,
          "duration": 0.2173912500000057
        },
        {
          "name": "A#3",
          "midi": 58,
          "time": 79.13041500000001,
          "velocity": 0.7480314960629921,
          "duration": 0.2173912500000057
        },
        {
          "name": "F3",
          "midi": 53,
          "time": 79.13041500000001,
          "velocity": 0.7480314960629921,
          "duration": 0.2173912500000057
        },
        {
          "name": "A#2",
          "midi": 46,
          "time": 79.13041500000001,
          "velocity": 0.7480314960629921,
          "duration": 0.2173912500000057
        },
        {
          "name": "A#3",
          "midi": 58,
          "time": 79.34780625000002,
          "velocity": 0.7480314960629921,
          "duration": 0.2173912500000057
        },
        {
          "name": "F3",
          "midi": 53,
          "time": 79.34780625000002,
          "velocity": 0.7480314960629921,
          "duration": 0.2173912500000057
        },
        {
          "name": "A#2",
          "midi": 46,
          "time": 79.34780625000002,
          "velocity": 0.7480314960629921,
          "duration": 0.2173912500000057
        },
        {
          "name": "A#3",
          "midi": 58,
          "time": 79.56519750000002,
          "velocity": 0.7480314960629921,
          "duration": 0.2173912500000057
        },
        {
          "name": "F3",
          "midi": 53,
          "time": 79.56519750000002,
          "velocity": 0.7480314960629921,
          "duration": 0.2173912500000057
        },
        {
          "name": "A#2",
          "midi": 46,
          "time": 79.56519750000002,
          "velocity": 0.7480314960629921,
          "duration": 0.2173912500000057
        },
        {
          "name": "A#3",
          "midi": 58,
          "time": 79.78258875000003,
          "velocity": 0.7480314960629921,
          "duration": 0.2173912500000057
        },
        {
          "name": "F3",
          "midi": 53,
          "time": 79.78258875000003,
          "velocity": 0.7480314960629921,
          "duration": 0.2173912500000057
        },
        {
          "name": "A#2",
          "midi": 46,
          "time": 79.78258875000003,
          "velocity": 0.7480314960629921,
          "duration": 0.2173912500000057
        },
        {
          "name": "F3",
          "midi": 53,
          "time": 79.99998000000004,
          "velocity": 0.7480314960629921,
          "duration": 0.2173912500000057
        },
        {
          "name": "C3",
          "midi": 48,
          "time": 79.99998000000004,
          "velocity": 0.7480314960629921,
          "duration": 0.2173912500000057
        },
        {
          "name": "F2",
          "midi": 41,
          "time": 79.99998000000004,
          "velocity": 0.7480314960629921,
          "duration": 0.2173912500000057
        },
        {
          "name": "F3",
          "midi": 53,
          "time": 80.21737125000004,
          "velocity": 0.7480314960629921,
          "duration": 0.2173912500000057
        },
        {
          "name": "C3",
          "midi": 48,
          "time": 80.21737125000004,
          "velocity": 0.7480314960629921,
          "duration": 0.2173912500000057
        },
        {
          "name": "F2",
          "midi": 41,
          "time": 80.21737125000004,
          "velocity": 0.7480314960629921,
          "duration": 0.2173912500000057
        },
        {
          "name": "F3",
          "midi": 53,
          "time": 80.43476250000005,
          "velocity": 0.7480314960629921,
          "duration": 0.2173912500000057
        },
        {
          "name": "C3",
          "midi": 48,
          "time": 80.43476250000005,
          "velocity": 0.7480314960629921,
          "duration": 0.2173912500000057
        },
        {
          "name": "F2",
          "midi": 41,
          "time": 80.43476250000005,
          "velocity": 0.7480314960629921,
          "duration": 0.2173912500000057
        },
        {
          "name": "F3",
          "midi": 53,
          "time": 80.65215375000005,
          "velocity": 0.7480314960629921,
          "duration": 0.2173912500000057
        },
        {
          "name": "C3",
          "midi": 48,
          "time": 80.65215375000005,
          "velocity": 0.7480314960629921,
          "duration": 0.2173912500000057
        },
        {
          "name": "F2",
          "midi": 41,
          "time": 80.65215375000005,
          "velocity": 0.7480314960629921,
          "duration": 0.2173912500000057
        },
        {
          "name": "A#3",
          "midi": 58,
          "time": 80.86954500000006,
          "velocity": 0.7480314960629921,
          "duration": 0.2173912500000057
        },
        {
          "name": "F3",
          "midi": 53,
          "time": 80.86954500000006,
          "velocity": 0.7480314960629921,
          "duration": 0.2173912500000057
        },
        {
          "name": "A#2",
          "midi": 46,
          "time": 80.86954500000006,
          "velocity": 0.7480314960629921,
          "duration": 0.2173912500000057
        },
        {
          "name": "A#3",
          "midi": 58,
          "time": 81.08693625000006,
          "velocity": 0.7480314960629921,
          "duration": 0.2173912500000057
        },
        {
          "name": "F3",
          "midi": 53,
          "time": 81.08693625000006,
          "velocity": 0.7480314960629921,
          "duration": 0.2173912500000057
        },
        {
          "name": "A#2",
          "midi": 46,
          "time": 81.08693625000006,
          "velocity": 0.7480314960629921,
          "duration": 0.2173912500000057
        },
        {
          "name": "A#3",
          "midi": 58,
          "time": 81.30432750000007,
          "velocity": 0.7480314960629921,
          "duration": 0.2173912500000057
        },
        {
          "name": "F3",
          "midi": 53,
          "time": 81.30432750000007,
          "velocity": 0.7480314960629921,
          "duration": 0.2173912500000057
        },
        {
          "name": "A#2",
          "midi": 46,
          "time": 81.30432750000007,
          "velocity": 0.7480314960629921,
          "duration": 0.2173912500000057
        },
        {
          "name": "A#3",
          "midi": 58,
          "time": 81.52171875000008,
          "velocity": 0.7480314960629921,
          "duration": 0.2173912500000057
        },
        {
          "name": "F3",
          "midi": 53,
          "time": 81.52171875000008,
          "velocity": 0.7480314960629921,
          "duration": 0.2173912500000057
        },
        {
          "name": "A#2",
          "midi": 46,
          "time": 81.52171875000008,
          "velocity": 0.7480314960629921,
          "duration": 0.2173912500000057
        },
        {
          "name": "G3",
          "midi": 55,
          "time": 81.73911000000008,
          "velocity": 0.7480314960629921,
          "duration": 0.2173912500000057
        },
        {
          "name": "D3",
          "midi": 50,
          "time": 81.73911000000008,
          "velocity": 0.7480314960629921,
          "duration": 0.2173912500000057
        },
        {
          "name": "G2",
          "midi": 43,
          "time": 81.73911000000008,
          "velocity": 0.7480314960629921,
          "duration": 0.2173912500000057
        },
        {
          "name": "G3",
          "midi": 55,
          "time": 81.95650125000009,
          "velocity": 0.7480314960629921,
          "duration": 0.2173912500000057
        },
        {
          "name": "D3",
          "midi": 50,
          "time": 81.95650125000009,
          "velocity": 0.7480314960629921,
          "duration": 0.2173912500000057
        },
        {
          "name": "G2",
          "midi": 43,
          "time": 81.95650125000009,
          "velocity": 0.7480314960629921,
          "duration": 0.2173912500000057
        },
        {
          "name": "G3",
          "midi": 55,
          "time": 82.1738925000001,
          "velocity": 0.7480314960629921,
          "duration": 0.2173912500000057
        },
        {
          "name": "D3",
          "midi": 50,
          "time": 82.1738925000001,
          "velocity": 0.7480314960629921,
          "duration": 0.2173912500000057
        },
        {
          "name": "G2",
          "midi": 43,
          "time": 82.1738925000001,
          "velocity": 0.7480314960629921,
          "duration": 0.2173912500000057
        },
        {
          "name": "G3",
          "midi": 55,
          "time": 82.3912837500001,
          "velocity": 0.7480314960629921,
          "duration": 0.2173912500000057
        },
        {
          "name": "D3",
          "midi": 50,
          "time": 82.3912837500001,
          "velocity": 0.7480314960629921,
          "duration": 0.2173912500000057
        },
        {
          "name": "G2",
          "midi": 43,
          "time": 82.3912837500001,
          "velocity": 0.7480314960629921,
          "duration": 0.2173912500000057
        },
        {
          "name": "A#3",
          "midi": 58,
          "time": 82.6086750000001,
          "velocity": 0.7480314960629921,
          "duration": 0.2173912500000057
        },
        {
          "name": "F3",
          "midi": 53,
          "time": 82.6086750000001,
          "velocity": 0.7480314960629921,
          "duration": 0.2173912500000057
        },
        {
          "name": "A#2",
          "midi": 46,
          "time": 82.6086750000001,
          "velocity": 0.7480314960629921,
          "duration": 0.2173912500000057
        },
        {
          "name": "A#3",
          "midi": 58,
          "time": 82.82606625000011,
          "velocity": 0.7480314960629921,
          "duration": 0.2173912500000057
        },
        {
          "name": "F3",
          "midi": 53,
          "time": 82.82606625000011,
          "velocity": 0.7480314960629921,
          "duration": 0.2173912500000057
        },
        {
          "name": "A#2",
          "midi": 46,
          "time": 82.82606625000011,
          "velocity": 0.7480314960629921,
          "duration": 0.2173912500000057
        },
        {
          "name": "A#3",
          "midi": 58,
          "time": 83.04345750000012,
          "velocity": 0.7480314960629921,
          "duration": 0.2173912500000057
        },
        {
          "name": "F3",
          "midi": 53,
          "time": 83.04345750000012,
          "velocity": 0.7480314960629921,
          "duration": 0.2173912500000057
        },
        {
          "name": "A#2",
          "midi": 46,
          "time": 83.04345750000012,
          "velocity": 0.7480314960629921,
          "duration": 0.2173912500000057
        },
        {
          "name": "A#3",
          "midi": 58,
          "time": 83.26084875000012,
          "velocity": 0.7480314960629921,
          "duration": 0.2173912500000057
        },
        {
          "name": "F3",
          "midi": 53,
          "time": 83.26084875000012,
          "velocity": 0.7480314960629921,
          "duration": 0.2173912500000057
        },
        {
          "name": "A#2",
          "midi": 46,
          "time": 83.26084875000012,
          "velocity": 0.7480314960629921,
          "duration": 0.2173912500000057
        },
        {
          "name": "F3",
          "midi": 53,
          "time": 83.47824000000013,
          "velocity": 0.7480314960629921,
          "duration": 0.2173912500000057
        },
        {
          "name": "C3",
          "midi": 48,
          "time": 83.47824000000013,
          "velocity": 0.7480314960629921,
          "duration": 0.2173912500000057
        },
        {
          "name": "F2",
          "midi": 41,
          "time": 83.47824000000013,
          "velocity": 0.7480314960629921,
          "duration": 0.2173912500000057
        },
        {
          "name": "F3",
          "midi": 53,
          "time": 83.69563125000013,
          "velocity": 0.7480314960629921,
          "duration": 0.2173912500000057
        },
        {
          "name": "C3",
          "midi": 48,
          "time": 83.69563125000013,
          "velocity": 0.7480314960629921,
          "duration": 0.2173912500000057
        },
        {
          "name": "F2",
          "midi": 41,
          "time": 83.69563125000013,
          "velocity": 0.7480314960629921,
          "duration": 0.2173912500000057
        },
        {
          "name": "F3",
          "midi": 53,
          "time": 83.91302250000014,
          "velocity": 0.7480314960629921,
          "duration": 0.2173912500000057
        },
        {
          "name": "C3",
          "midi": 48,
          "time": 83.91302250000014,
          "velocity": 0.7480314960629921,
          "duration": 0.2173912500000057
        },
        {
          "name": "F2",
          "midi": 41,
          "time": 83.91302250000014,
          "velocity": 0.7480314960629921,
          "duration": 0.2173912500000057
        },
        {
          "name": "F3",
          "midi": 53,
          "time": 84.13041375000014,
          "velocity": 0.7480314960629921,
          "duration": 0.2173912500000057
        },
        {
          "name": "C3",
          "midi": 48,
          "time": 84.13041375000014,
          "velocity": 0.7480314960629921,
          "duration": 0.2173912500000057
        },
        {
          "name": "F2",
          "midi": 41,
          "time": 84.13041375000014,
          "velocity": 0.7480314960629921,
          "duration": 0.2173912500000057
        },
        {
          "name": "A#3",
          "midi": 58,
          "time": 84.34780500000015,
          "velocity": 0.7480314960629921,
          "duration": 0.2173912500000057
        },
        {
          "name": "F3",
          "midi": 53,
          "time": 84.34780500000015,
          "velocity": 0.7480314960629921,
          "duration": 0.2173912500000057
        },
        {
          "name": "A#2",
          "midi": 46,
          "time": 84.34780500000015,
          "velocity": 0.7480314960629921,
          "duration": 0.2173912500000057
        },
        {
          "name": "A#3",
          "midi": 58,
          "time": 84.56519625000016,
          "velocity": 0.7480314960629921,
          "duration": 0.2173912500000057
        },
        {
          "name": "F3",
          "midi": 53,
          "time": 84.56519625000016,
          "velocity": 0.7480314960629921,
          "duration": 0.2173912500000057
        },
        {
          "name": "A#2",
          "midi": 46,
          "time": 84.56519625000016,
          "velocity": 0.7480314960629921,
          "duration": 0.2173912500000057
        },
        {
          "name": "A#3",
          "midi": 58,
          "time": 84.78258750000016,
          "velocity": 0.7480314960629921,
          "duration": 0.2173912500000057
        },
        {
          "name": "F3",
          "midi": 53,
          "time": 84.78258750000016,
          "velocity": 0.7480314960629921,
          "duration": 0.2173912500000057
        },
        {
          "name": "A#2",
          "midi": 46,
          "time": 84.78258750000016,
          "velocity": 0.7480314960629921,
          "duration": 0.2173912500000057
        },
        {
          "name": "A#3",
          "midi": 58,
          "time": 84.99997875000017,
          "velocity": 0.7480314960629921,
          "duration": 0.2173912500000057
        },
        {
          "name": "F3",
          "midi": 53,
          "time": 84.99997875000017,
          "velocity": 0.7480314960629921,
          "duration": 0.2173912500000057
        },
        {
          "name": "A#2",
          "midi": 46,
          "time": 84.99997875000017,
          "velocity": 0.7480314960629921,
          "duration": 0.2173912500000057
        },
        {
          "name": "G3",
          "midi": 55,
          "time": 85.21737000000017,
          "velocity": 0.7480314960629921,
          "duration": 0.2173912500000057
        },
        {
          "name": "D3",
          "midi": 50,
          "time": 85.21737000000017,
          "velocity": 0.7480314960629921,
          "duration": 0.2173912500000057
        },
        {
          "name": "G2",
          "midi": 43,
          "time": 85.21737000000017,
          "velocity": 0.7480314960629921,
          "duration": 0.2173912500000057
        },
        {
          "name": "G3",
          "midi": 55,
          "time": 85.43476125000018,
          "velocity": 0.7480314960629921,
          "duration": 0.2173912500000057
        },
        {
          "name": "D3",
          "midi": 50,
          "time": 85.43476125000018,
          "velocity": 0.7480314960629921,
          "duration": 0.2173912500000057
        },
        {
          "name": "G2",
          "midi": 43,
          "time": 85.43476125000018,
          "velocity": 0.7480314960629921,
          "duration": 0.2173912500000057
        },
        {
          "name": "G3",
          "midi": 55,
          "time": 85.65215250000018,
          "velocity": 0.7480314960629921,
          "duration": 0.2173912500000057
        },
        {
          "name": "D3",
          "midi": 50,
          "time": 85.65215250000018,
          "velocity": 0.7480314960629921,
          "duration": 0.2173912500000057
        },
        {
          "name": "G2",
          "midi": 43,
          "time": 85.65215250000018,
          "velocity": 0.7480314960629921,
          "duration": 0.2173912500000057
        },
        {
          "name": "G3",
          "midi": 55,
          "time": 85.86954375000019,
          "velocity": 0.7480314960629921,
          "duration": 0.2173912500000057
        },
        {
          "name": "D3",
          "midi": 50,
          "time": 85.86954375000019,
          "velocity": 0.7480314960629921,
          "duration": 0.2173912500000057
        },
        {
          "name": "G2",
          "midi": 43,
          "time": 85.86954375000019,
          "velocity": 0.7480314960629921,
          "duration": 0.2173912500000057
        },
        {
          "name": "A#3",
          "midi": 58,
          "time": 86.0869350000002,
          "velocity": 0.7480314960629921,
          "duration": 0.2173912500000057
        },
        {
          "name": "F3",
          "midi": 53,
          "time": 86.0869350000002,
          "velocity": 0.7480314960629921,
          "duration": 0.2173912500000057
        },
        {
          "name": "A#2",
          "midi": 46,
          "time": 86.0869350000002,
          "velocity": 0.7480314960629921,
          "duration": 0.2173912500000057
        },
        {
          "name": "A#3",
          "midi": 58,
          "time": 86.3043262500002,
          "velocity": 0.7480314960629921,
          "duration": 0.2173912500000057
        },
        {
          "name": "F3",
          "midi": 53,
          "time": 86.3043262500002,
          "velocity": 0.7480314960629921,
          "duration": 0.2173912500000057
        },
        {
          "name": "A#2",
          "midi": 46,
          "time": 86.3043262500002,
          "velocity": 0.7480314960629921,
          "duration": 0.2173912500000057
        },
        {
          "name": "A#3",
          "midi": 58,
          "time": 86.52171750000021,
          "velocity": 0.7480314960629921,
          "duration": 0.2173912500000057
        },
        {
          "name": "F3",
          "midi": 53,
          "time": 86.52171750000021,
          "velocity": 0.7480314960629921,
          "duration": 0.2173912500000057
        },
        {
          "name": "A#2",
          "midi": 46,
          "time": 86.52171750000021,
          "velocity": 0.7480314960629921,
          "duration": 0.2173912500000057
        },
        {
          "name": "A#3",
          "midi": 58,
          "time": 86.73910875000021,
          "velocity": 0.7480314960629921,
          "duration": 0.2173912500000057
        },
        {
          "name": "F3",
          "midi": 53,
          "time": 86.73910875000021,
          "velocity": 0.7480314960629921,
          "duration": 0.2173912500000057
        },
        {
          "name": "A#2",
          "midi": 46,
          "time": 86.73910875000021,
          "velocity": 0.7480314960629921,
          "duration": 0.2173912500000057
        },
        {
          "name": "F3",
          "midi": 53,
          "time": 86.95650000000022,
          "velocity": 0.7480314960629921,
          "duration": 0.2173912500000057
        },
        {
          "name": "C3",
          "midi": 48,
          "time": 86.95650000000022,
          "velocity": 0.7480314960629921,
          "duration": 0.2173912500000057
        },
        {
          "name": "F2",
          "midi": 41,
          "time": 86.95650000000022,
          "velocity": 0.7480314960629921,
          "duration": 0.2173912500000057
        },
        {
          "name": "F3",
          "midi": 53,
          "time": 87.17389125000022,
          "velocity": 0.7480314960629921,
          "duration": 0.2173912500000057
        },
        {
          "name": "C3",
          "midi": 48,
          "time": 87.17389125000022,
          "velocity": 0.7480314960629921,
          "duration": 0.2173912500000057
        },
        {
          "name": "F2",
          "midi": 41,
          "time": 87.17389125000022,
          "velocity": 0.7480314960629921,
          "duration": 0.2173912500000057
        },
        {
          "name": "F3",
          "midi": 53,
          "time": 87.39128250000023,
          "velocity": 0.7480314960629921,
          "duration": 0.2173912500000057
        },
        {
          "name": "C3",
          "midi": 48,
          "time": 87.39128250000023,
          "velocity": 0.7480314960629921,
          "duration": 0.2173912500000057
        },
        {
          "name": "F2",
          "midi": 41,
          "time": 87.39128250000023,
          "velocity": 0.7480314960629921,
          "duration": 0.2173912500000057
        },
        {
          "name": "F3",
          "midi": 53,
          "time": 87.60867375000024,
          "velocity": 0.7480314960629921,
          "duration": 0.2173912500000057
        },
        {
          "name": "C3",
          "midi": 48,
          "time": 87.60867375000024,
          "velocity": 0.7480314960629921,
          "duration": 0.2173912500000057
        },
        {
          "name": "F2",
          "midi": 41,
          "time": 87.60867375000024,
          "velocity": 0.7480314960629921,
          "duration": 0.2173912500000057
        },
        {
          "name": "A#3",
          "midi": 58,
          "time": 87.82606500000024,
          "velocity": 0.7480314960629921,
          "duration": 0.2173912500000057
        },
        {
          "name": "F3",
          "midi": 53,
          "time": 87.82606500000024,
          "velocity": 0.7480314960629921,
          "duration": 0.2173912500000057
        },
        {
          "name": "A#2",
          "midi": 46,
          "time": 87.82606500000024,
          "velocity": 0.7480314960629921,
          "duration": 0.2173912500000057
        },
        {
          "name": "A#3",
          "midi": 58,
          "time": 88.04345625000025,
          "velocity": 0.7480314960629921,
          "duration": 0.2173912500000057
        },
        {
          "name": "F3",
          "midi": 53,
          "time": 88.04345625000025,
          "velocity": 0.7480314960629921,
          "duration": 0.2173912500000057
        },
        {
          "name": "A#2",
          "midi": 46,
          "time": 88.04345625000025,
          "velocity": 0.7480314960629921,
          "duration": 0.2173912500000057
        },
        {
          "name": "A#3",
          "midi": 58,
          "time": 88.26084750000025,
          "velocity": 0.7480314960629921,
          "duration": 0.2173912500000057
        },
        {
          "name": "F3",
          "midi": 53,
          "time": 88.26084750000025,
          "velocity": 0.7480314960629921,
          "duration": 0.2173912500000057
        },
        {
          "name": "A#2",
          "midi": 46,
          "time": 88.26084750000025,
          "velocity": 0.7480314960629921,
          "duration": 0.2173912500000057
        },
        {
          "name": "A#3",
          "midi": 58,
          "time": 88.47823875000026,
          "velocity": 0.7480314960629921,
          "duration": 0.2173912500000057
        },
        {
          "name": "F3",
          "midi": 53,
          "time": 88.47823875000026,
          "velocity": 0.7480314960629921,
          "duration": 0.2173912500000057
        },
        {
          "name": "A#2",
          "midi": 46,
          "time": 88.47823875000026,
          "velocity": 0.7480314960629921,
          "duration": 0.2173912500000057
        },
        {
          "name": "G3",
          "midi": 55,
          "time": 88.69563000000026,
          "velocity": 0.7480314960629921,
          "duration": 0.2173912500000057
        },
        {
          "name": "D3",
          "midi": 50,
          "time": 88.69563000000026,
          "velocity": 0.7480314960629921,
          "duration": 0.2173912500000057
        },
        {
          "name": "G2",
          "midi": 43,
          "time": 88.69563000000026,
          "velocity": 0.7480314960629921,
          "duration": 0.2173912500000057
        },
        {
          "name": "G3",
          "midi": 55,
          "time": 88.91302125000027,
          "velocity": 0.7480314960629921,
          "duration": 0.2173912500000057
        },
        {
          "name": "D3",
          "midi": 50,
          "time": 88.91302125000027,
          "velocity": 0.7480314960629921,
          "duration": 0.2173912500000057
        },
        {
          "name": "G2",
          "midi": 43,
          "time": 88.91302125000027,
          "velocity": 0.7480314960629921,
          "duration": 0.2173912500000057
        },
        {
          "name": "G3",
          "midi": 55,
          "time": 89.13041250000028,
          "velocity": 0.7480314960629921,
          "duration": 0.2173912500000057
        },
        {
          "name": "D3",
          "midi": 50,
          "time": 89.13041250000028,
          "velocity": 0.7480314960629921,
          "duration": 0.2173912500000057
        },
        {
          "name": "G2",
          "midi": 43,
          "time": 89.13041250000028,
          "velocity": 0.7480314960629921,
          "duration": 0.2173912500000057
        },
        {
          "name": "G3",
          "midi": 55,
          "time": 89.34780375000028,
          "velocity": 0.7480314960629921,
          "duration": 0.2173912500000057
        },
        {
          "name": "D3",
          "midi": 50,
          "time": 89.34780375000028,
          "velocity": 0.7480314960629921,
          "duration": 0.2173912500000057
        },
        {
          "name": "G2",
          "midi": 43,
          "time": 89.34780375000028,
          "velocity": 0.7480314960629921,
          "duration": 0.2173912500000057
        },
        {
          "name": "A#3",
          "midi": 58,
          "time": 89.56519500000029,
          "velocity": 0.7480314960629921,
          "duration": 0.2173912500000057
        },
        {
          "name": "F3",
          "midi": 53,
          "time": 89.56519500000029,
          "velocity": 0.7480314960629921,
          "duration": 0.2173912500000057
        },
        {
          "name": "A#2",
          "midi": 46,
          "time": 89.56519500000029,
          "velocity": 0.7480314960629921,
          "duration": 0.2173912500000057
        },
        {
          "name": "A#3",
          "midi": 58,
          "time": 89.78258625000029,
          "velocity": 0.7480314960629921,
          "duration": 0.2173912500000057
        },
        {
          "name": "F3",
          "midi": 53,
          "time": 89.78258625000029,
          "velocity": 0.7480314960629921,
          "duration": 0.2173912500000057
        },
        {
          "name": "A#2",
          "midi": 46,
          "time": 89.78258625000029,
          "velocity": 0.7480314960629921,
          "duration": 0.2173912500000057
        },
        {
          "name": "A#3",
          "midi": 58,
          "time": 89.9999775000003,
          "velocity": 0.7480314960629921,
          "duration": 0.2173912500000057
        },
        {
          "name": "F3",
          "midi": 53,
          "time": 89.9999775000003,
          "velocity": 0.7480314960629921,
          "duration": 0.2173912500000057
        },
        {
          "name": "A#2",
          "midi": 46,
          "time": 89.9999775000003,
          "velocity": 0.7480314960629921,
          "duration": 0.2173912500000057
        },
        {
          "name": "A#3",
          "midi": 58,
          "time": 90.2173687500003,
          "velocity": 0.7480314960629921,
          "duration": 0.2173912500000057
        },
        {
          "name": "F3",
          "midi": 53,
          "time": 90.2173687500003,
          "velocity": 0.7480314960629921,
          "duration": 0.2173912500000057
        },
        {
          "name": "A#2",
          "midi": 46,
          "time": 90.2173687500003,
          "velocity": 0.7480314960629921,
          "duration": 0.2173912500000057
        },
        {
          "name": "F3",
          "midi": 53,
          "time": 90.43476000000031,
          "velocity": 0.7480314960629921,
          "duration": 0.2173912500000057
        },
        {
          "name": "C3",
          "midi": 48,
          "time": 90.43476000000031,
          "velocity": 0.7480314960629921,
          "duration": 0.2173912500000057
        },
        {
          "name": "F2",
          "midi": 41,
          "time": 90.43476000000031,
          "velocity": 0.7480314960629921,
          "duration": 0.2173912500000057
        },
        {
          "name": "F3",
          "midi": 53,
          "time": 90.65215125000032,
          "velocity": 0.7480314960629921,
          "duration": 0.2173912500000057
        },
        {
          "name": "C3",
          "midi": 48,
          "time": 90.65215125000032,
          "velocity": 0.7480314960629921,
          "duration": 0.2173912500000057
        },
        {
          "name": "F2",
          "midi": 41,
          "time": 90.65215125000032,
          "velocity": 0.7480314960629921,
          "duration": 0.2173912500000057
        },
        {
          "name": "F3",
          "midi": 53,
          "time": 90.86954250000032,
          "velocity": 0.7480314960629921,
          "duration": 0.2173912500000057
        },
        {
          "name": "C3",
          "midi": 48,
          "time": 90.86954250000032,
          "velocity": 0.7480314960629921,
          "duration": 0.2173912500000057
        },
        {
          "name": "F2",
          "midi": 41,
          "time": 90.86954250000032,
          "velocity": 0.7480314960629921,
          "duration": 0.2173912500000057
        },
        {
          "name": "F3",
          "midi": 53,
          "time": 91.08693375000033,
          "velocity": 0.7480314960629921,
          "duration": 0.2173912500000057
        },
        {
          "name": "C3",
          "midi": 48,
          "time": 91.08693375000033,
          "velocity": 0.7480314960629921,
          "duration": 0.2173912500000057
        },
        {
          "name": "F2",
          "midi": 41,
          "time": 91.08693375000033,
          "velocity": 0.7480314960629921,
          "duration": 0.2173912500000057
        },
        {
          "name": "A#3",
          "midi": 58,
          "time": 91.30432500000033,
          "velocity": 0.7480314960629921,
          "duration": 0.2173912500000057
        },
        {
          "name": "F3",
          "midi": 53,
          "time": 91.30432500000033,
          "velocity": 0.7480314960629921,
          "duration": 0.2173912500000057
        },
        {
          "name": "A#2",
          "midi": 46,
          "time": 91.30432500000033,
          "velocity": 0.7480314960629921,
          "duration": 0.2173912500000057
        },
        {
          "name": "A#3",
          "midi": 58,
          "time": 91.52171625000034,
          "velocity": 0.7480314960629921,
          "duration": 0.2173912500000057
        },
        {
          "name": "F3",
          "midi": 53,
          "time": 91.52171625000034,
          "velocity": 0.7480314960629921,
          "duration": 0.2173912500000057
        },
        {
          "name": "A#2",
          "midi": 46,
          "time": 91.52171625000034,
          "velocity": 0.7480314960629921,
          "duration": 0.2173912500000057
        },
        {
          "name": "A#3",
          "midi": 58,
          "time": 91.73910750000034,
          "velocity": 0.7480314960629921,
          "duration": 0.2173912500000057
        },
        {
          "name": "F3",
          "midi": 53,
          "time": 91.73910750000034,
          "velocity": 0.7480314960629921,
          "duration": 0.2173912500000057
        },
        {
          "name": "A#2",
          "midi": 46,
          "time": 91.73910750000034,
          "velocity": 0.7480314960629921,
          "duration": 0.2173912500000057
        },
        {
          "name": "A#3",
          "midi": 58,
          "time": 91.95649875000035,
          "velocity": 0.7480314960629921,
          "duration": 0.2173912500000057
        },
        {
          "name": "F3",
          "midi": 53,
          "time": 91.95649875000035,
          "velocity": 0.7480314960629921,
          "duration": 0.2173912500000057
        },
        {
          "name": "A#2",
          "midi": 46,
          "time": 91.95649875000035,
          "velocity": 0.7480314960629921,
          "duration": 0.2173912500000057
        },
        {
          "name": "G3",
          "midi": 55,
          "time": 92.17389000000036,
          "velocity": 0.7480314960629921,
          "duration": 0.2173912500000057
        },
        {
          "name": "D3",
          "midi": 50,
          "time": 92.17389000000036,
          "velocity": 0.7480314960629921,
          "duration": 0.2173912500000057
        },
        {
          "name": "G2",
          "midi": 43,
          "time": 92.17389000000036,
          "velocity": 0.7480314960629921,
          "duration": 0.2173912500000057
        },
        {
          "name": "G3",
          "midi": 55,
          "time": 92.39128125000036,
          "velocity": 0.7480314960629921,
          "duration": 0.2173912500000057
        },
        {
          "name": "D3",
          "midi": 50,
          "time": 92.39128125000036,
          "velocity": 0.7480314960629921,
          "duration": 0.2173912500000057
        },
        {
          "name": "G2",
          "midi": 43,
          "time": 92.39128125000036,
          "velocity": 0.7480314960629921,
          "duration": 0.2173912500000057
        },
        {
          "name": "G3",
          "midi": 55,
          "time": 92.60867250000037,
          "velocity": 0.7480314960629921,
          "duration": 0.2173912500000057
        },
        {
          "name": "D3",
          "midi": 50,
          "time": 92.60867250000037,
          "velocity": 0.7480314960629921,
          "duration": 0.2173912500000057
        },
        {
          "name": "G2",
          "midi": 43,
          "time": 92.60867250000037,
          "velocity": 0.7480314960629921,
          "duration": 0.2173912500000057
        },
        {
          "name": "G3",
          "midi": 55,
          "time": 92.82606375000037,
          "velocity": 0.7480314960629921,
          "duration": 0.2173912500000057
        },
        {
          "name": "D3",
          "midi": 50,
          "time": 92.82606375000037,
          "velocity": 0.7480314960629921,
          "duration": 0.2173912500000057
        },
        {
          "name": "G2",
          "midi": 43,
          "time": 92.82606375000037,
          "velocity": 0.7480314960629921,
          "duration": 0.2173912500000057
        },
        {
          "name": "A#3",
          "midi": 58,
          "time": 93.04345500000038,
          "velocity": 0.7480314960629921,
          "duration": 0.2173912500000057
        },
        {
          "name": "F3",
          "midi": 53,
          "time": 93.04345500000038,
          "velocity": 0.7480314960629921,
          "duration": 0.2173912500000057
        },
        {
          "name": "A#2",
          "midi": 46,
          "time": 93.04345500000038,
          "velocity": 0.7480314960629921,
          "duration": 0.2173912500000057
        },
        {
          "name": "A#3",
          "midi": 58,
          "time": 93.26084625000038,
          "velocity": 0.7480314960629921,
          "duration": 0.2173912500000057
        },
        {
          "name": "F3",
          "midi": 53,
          "time": 93.26084625000038,
          "velocity": 0.7480314960629921,
          "duration": 0.2173912500000057
        },
        {
          "name": "A#2",
          "midi": 46,
          "time": 93.26084625000038,
          "velocity": 0.7480314960629921,
          "duration": 0.2173912500000057
        },
        {
          "name": "A#3",
          "midi": 58,
          "time": 93.47823750000039,
          "velocity": 0.7480314960629921,
          "duration": 0.2173912500000057
        },
        {
          "name": "F3",
          "midi": 53,
          "time": 93.47823750000039,
          "velocity": 0.7480314960629921,
          "duration": 0.2173912500000057
        },
        {
          "name": "A#2",
          "midi": 46,
          "time": 93.47823750000039,
          "velocity": 0.7480314960629921,
          "duration": 0.2173912500000057
        },
        {
          "name": "A#3",
          "midi": 58,
          "time": 93.6956287500004,
          "velocity": 0.7480314960629921,
          "duration": 0.2173912500000057
        },
        {
          "name": "F3",
          "midi": 53,
          "time": 93.6956287500004,
          "velocity": 0.7480314960629921,
          "duration": 0.2173912500000057
        },
        {
          "name": "A#2",
          "midi": 46,
          "time": 93.6956287500004,
          "velocity": 0.7480314960629921,
          "duration": 0.2173912500000057
        },
        {
          "name": "F3",
          "midi": 53,
          "time": 93.9130200000004,
          "velocity": 0.7480314960629921,
          "duration": 0.2173912500000057
        },
        {
          "name": "C3",
          "midi": 48,
          "time": 93.9130200000004,
          "velocity": 0.7480314960629921,
          "duration": 0.2173912500000057
        },
        {
          "name": "F2",
          "midi": 41,
          "time": 93.9130200000004,
          "velocity": 0.7480314960629921,
          "duration": 0.2173912500000057
        },
        {
          "name": "F3",
          "midi": 53,
          "time": 94.1304112500004,
          "velocity": 0.7480314960629921,
          "duration": 0.2173912500000057
        },
        {
          "name": "C3",
          "midi": 48,
          "time": 94.1304112500004,
          "velocity": 0.7480314960629921,
          "duration": 0.2173912500000057
        },
        {
          "name": "F2",
          "midi": 41,
          "time": 94.1304112500004,
          "velocity": 0.7480314960629921,
          "duration": 0.2173912500000057
        },
        {
          "name": "F3",
          "midi": 53,
          "time": 94.34780250000041,
          "velocity": 0.7480314960629921,
          "duration": 0.2173912500000057
        },
        {
          "name": "C3",
          "midi": 48,
          "time": 94.34780250000041,
          "velocity": 0.7480314960629921,
          "duration": 0.2173912500000057
        },
        {
          "name": "F2",
          "midi": 41,
          "time": 94.34780250000041,
          "velocity": 0.7480314960629921,
          "duration": 0.2173912500000057
        },
        {
          "name": "F3",
          "midi": 53,
          "time": 94.56519375000042,
          "velocity": 0.7480314960629921,
          "duration": 0.2173912500000057
        },
        {
          "name": "C3",
          "midi": 48,
          "time": 94.56519375000042,
          "velocity": 0.7480314960629921,
          "duration": 0.2173912500000057
        },
        {
          "name": "F2",
          "midi": 41,
          "time": 94.56519375000042,
          "velocity": 0.7480314960629921,
          "duration": 0.2173912500000057
        },
        {
          "name": "A#3",
          "midi": 58,
          "time": 94.78258500000042,
          "velocity": 0.7480314960629921,
          "duration": 0.2173912500000057
        },
        {
          "name": "F3",
          "midi": 53,
          "time": 94.78258500000042,
          "velocity": 0.7480314960629921,
          "duration": 0.2173912500000057
        },
        {
          "name": "A#2",
          "midi": 46,
          "time": 94.78258500000042,
          "velocity": 0.7480314960629921,
          "duration": 0.2173912500000057
        },
        {
          "name": "A#3",
          "midi": 58,
          "time": 94.99997625000043,
          "velocity": 0.7480314960629921,
          "duration": 0.2173912500000057
        },
        {
          "name": "F3",
          "midi": 53,
          "time": 94.99997625000043,
          "velocity": 0.7480314960629921,
          "duration": 0.2173912500000057
        },
        {
          "name": "A#2",
          "midi": 46,
          "time": 94.99997625000043,
          "velocity": 0.7480314960629921,
          "duration": 0.2173912500000057
        },
        {
          "name": "A#3",
          "midi": 58,
          "time": 95.21736750000044,
          "velocity": 0.7480314960629921,
          "duration": 0.2173912500000057
        },
        {
          "name": "F3",
          "midi": 53,
          "time": 95.21736750000044,
          "velocity": 0.7480314960629921,
          "duration": 0.2173912500000057
        },
        {
          "name": "A#2",
          "midi": 46,
          "time": 95.21736750000044,
          "velocity": 0.7480314960629921,
          "duration": 0.2173912500000057
        },
        {
          "name": "A#3",
          "midi": 58,
          "time": 95.43475875000044,
          "velocity": 0.7480314960629921,
          "duration": 0.2173912500000057
        },
        {
          "name": "F3",
          "midi": 53,
          "time": 95.43475875000044,
          "velocity": 0.7480314960629921,
          "duration": 0.2173912500000057
        },
        {
          "name": "A#2",
          "midi": 46,
          "time": 95.43475875000044,
          "velocity": 0.7480314960629921,
          "duration": 0.2173912500000057
        },
        {
          "name": "G3",
          "midi": 55,
          "time": 95.65215000000045,
          "velocity": 0.7480314960629921,
          "duration": 0.2173912500000057
        },
        {
          "name": "D3",
          "midi": 50,
          "time": 95.65215000000045,
          "velocity": 0.7480314960629921,
          "duration": 0.2173912500000057
        },
        {
          "name": "G2",
          "midi": 43,
          "time": 95.65215000000045,
          "velocity": 0.7480314960629921,
          "duration": 0.2173912500000057
        },
        {
          "name": "G3",
          "midi": 55,
          "time": 95.86954125000045,
          "velocity": 0.7480314960629921,
          "duration": 0.2173912500000057
        },
        {
          "name": "D3",
          "midi": 50,
          "time": 95.86954125000045,
          "velocity": 0.7480314960629921,
          "duration": 0.2173912500000057
        },
        {
          "name": "G2",
          "midi": 43,
          "time": 95.86954125000045,
          "velocity": 0.7480314960629921,
          "duration": 0.2173912500000057
        },
        {
          "name": "G3",
          "midi": 55,
          "time": 96.08693250000046,
          "velocity": 0.7480314960629921,
          "duration": 0.2173912500000057
        },
        {
          "name": "D3",
          "midi": 50,
          "time": 96.08693250000046,
          "velocity": 0.7480314960629921,
          "duration": 0.2173912500000057
        },
        {
          "name": "G2",
          "midi": 43,
          "time": 96.08693250000046,
          "velocity": 0.7480314960629921,
          "duration": 0.2173912500000057
        },
        {
          "name": "G3",
          "midi": 55,
          "time": 96.30432375000046,
          "velocity": 0.7480314960629921,
          "duration": 0.2173912500000057
        },
        {
          "name": "D3",
          "midi": 50,
          "time": 96.30432375000046,
          "velocity": 0.7480314960629921,
          "duration": 0.2173912500000057
        },
        {
          "name": "G2",
          "midi": 43,
          "time": 96.30432375000046,
          "velocity": 0.7480314960629921,
          "duration": 0.2173912500000057
        },
        {
          "name": "A#3",
          "midi": 58,
          "time": 96.52171500000047,
          "velocity": 0.7480314960629921,
          "duration": 0.2173912500000057
        },
        {
          "name": "F3",
          "midi": 53,
          "time": 96.52171500000047,
          "velocity": 0.7480314960629921,
          "duration": 0.2173912500000057
        },
        {
          "name": "A#2",
          "midi": 46,
          "time": 96.52171500000047,
          "velocity": 0.7480314960629921,
          "duration": 0.2173912500000057
        },
        {
          "name": "A#3",
          "midi": 58,
          "time": 96.73910625000048,
          "velocity": 0.7480314960629921,
          "duration": 0.2173912500000057
        },
        {
          "name": "F3",
          "midi": 53,
          "time": 96.73910625000048,
          "velocity": 0.7480314960629921,
          "duration": 0.2173912500000057
        },
        {
          "name": "A#2",
          "midi": 46,
          "time": 96.73910625000048,
          "velocity": 0.7480314960629921,
          "duration": 0.2173912500000057
        },
        {
          "name": "A#3",
          "midi": 58,
          "time": 96.95649750000048,
          "velocity": 0.7480314960629921,
          "duration": 0.2173912500000057
        },
        {
          "name": "F3",
          "midi": 53,
          "time": 96.95649750000048,
          "velocity": 0.7480314960629921,
          "duration": 0.2173912500000057
        },
        {
          "name": "A#2",
          "midi": 46,
          "time": 96.95649750000048,
          "velocity": 0.7480314960629921,
          "duration": 0.2173912500000057
        },
        {
          "name": "A#3",
          "midi": 58,
          "time": 97.17388875000049,
          "velocity": 0.7480314960629921,
          "duration": 0.2173912500000057
        },
        {
          "name": "F3",
          "midi": 53,
          "time": 97.17388875000049,
          "velocity": 0.7480314960629921,
          "duration": 0.2173912500000057
        },
        {
          "name": "A#2",
          "midi": 46,
          "time": 97.17388875000049,
          "velocity": 0.7480314960629921,
          "duration": 0.2173912500000057
        },
        {
          "name": "F3",
          "midi": 53,
          "time": 97.39128000000049,
          "velocity": 0.7480314960629921,
          "duration": 0.2173912500000057
        },
        {
          "name": "C3",
          "midi": 48,
          "time": 97.39128000000049,
          "velocity": 0.7480314960629921,
          "duration": 0.2173912500000057
        },
        {
          "name": "F2",
          "midi": 41,
          "time": 97.39128000000049,
          "velocity": 0.7480314960629921,
          "duration": 0.2173912500000057
        },
        {
          "name": "F3",
          "midi": 53,
          "time": 97.6086712500005,
          "velocity": 0.7480314960629921,
          "duration": 0.2173912500000057
        },
        {
          "name": "C3",
          "midi": 48,
          "time": 97.6086712500005,
          "velocity": 0.7480314960629921,
          "duration": 0.2173912500000057
        },
        {
          "name": "F2",
          "midi": 41,
          "time": 97.6086712500005,
          "velocity": 0.7480314960629921,
          "duration": 0.2173912500000057
        },
        {
          "name": "F3",
          "midi": 53,
          "time": 97.8260625000005,
          "velocity": 0.7480314960629921,
          "duration": 0.2173912500000057
        },
        {
          "name": "C3",
          "midi": 48,
          "time": 97.8260625000005,
          "velocity": 0.7480314960629921,
          "duration": 0.2173912500000057
        },
        {
          "name": "F2",
          "midi": 41,
          "time": 97.8260625000005,
          "velocity": 0.7480314960629921,
          "duration": 0.2173912500000057
        },
        {
          "name": "F3",
          "midi": 53,
          "time": 98.04345375000051,
          "velocity": 0.7480314960629921,
          "duration": 0.2173912500000057
        },
        {
          "name": "C3",
          "midi": 48,
          "time": 98.04345375000051,
          "velocity": 0.7480314960629921,
          "duration": 0.2173912500000057
        },
        {
          "name": "F2",
          "midi": 41,
          "time": 98.04345375000051,
          "velocity": 0.7480314960629921,
          "duration": 0.2173912500000057
        },
        {
          "name": "A#3",
          "midi": 58,
          "time": 98.26084500000051,
          "velocity": 0.7480314960629921,
          "duration": 0.2173912500000057
        },
        {
          "name": "F3",
          "midi": 53,
          "time": 98.26084500000051,
          "velocity": 0.7480314960629921,
          "duration": 0.2173912500000057
        },
        {
          "name": "A#2",
          "midi": 46,
          "time": 98.26084500000051,
          "velocity": 0.7480314960629921,
          "duration": 0.2173912500000057
        },
        {
          "name": "A#3",
          "midi": 58,
          "time": 98.47823625000052,
          "velocity": 0.7480314960629921,
          "duration": 0.2173912500000057
        },
        {
          "name": "F3",
          "midi": 53,
          "time": 98.47823625000052,
          "velocity": 0.7480314960629921,
          "duration": 0.2173912500000057
        },
        {
          "name": "A#2",
          "midi": 46,
          "time": 98.47823625000052,
          "velocity": 0.7480314960629921,
          "duration": 0.2173912500000057
        },
        {
          "name": "A#3",
          "midi": 58,
          "time": 98.69562750000053,
          "velocity": 0.7480314960629921,
          "duration": 0.2173912500000057
        },
        {
          "name": "F3",
          "midi": 53,
          "time": 98.69562750000053,
          "velocity": 0.7480314960629921,
          "duration": 0.2173912500000057
        },
        {
          "name": "A#2",
          "midi": 46,
          "time": 98.69562750000053,
          "velocity": 0.7480314960629921,
          "duration": 0.2173912500000057
        },
        {
          "name": "A#3",
          "midi": 58,
          "time": 98.91301875000053,
          "velocity": 0.7480314960629921,
          "duration": 0.2173912500000057
        },
        {
          "name": "F3",
          "midi": 53,
          "time": 98.91301875000053,
          "velocity": 0.7480314960629921,
          "duration": 0.2173912500000057
        },
        {
          "name": "A#2",
          "midi": 46,
          "time": 98.91301875000053,
          "velocity": 0.7480314960629921,
          "duration": 0.2173912500000057
        },
        {
          "name": "G3",
          "midi": 55,
          "time": 99.13041000000054,
          "velocity": 0.7480314960629921,
          "duration": 0.2173912500000057
        },
        {
          "name": "D3",
          "midi": 50,
          "time": 99.13041000000054,
          "velocity": 0.7480314960629921,
          "duration": 0.2173912500000057
        },
        {
          "name": "G2",
          "midi": 43,
          "time": 99.13041000000054,
          "velocity": 0.7480314960629921,
          "duration": 0.2173912500000057
        },
        {
          "name": "G3",
          "midi": 55,
          "time": 99.34780125000054,
          "velocity": 0.7480314960629921,
          "duration": 0.2173912500000057
        },
        {
          "name": "D3",
          "midi": 50,
          "time": 99.34780125000054,
          "velocity": 0.7480314960629921,
          "duration": 0.2173912500000057
        },
        {
          "name": "G2",
          "midi": 43,
          "time": 99.34780125000054,
          "velocity": 0.7480314960629921,
          "duration": 0.2173912500000057
        },
        {
          "name": "G3",
          "midi": 55,
          "time": 99.56519250000055,
          "velocity": 0.7480314960629921,
          "duration": 0.2173912500000057
        },
        {
          "name": "D3",
          "midi": 50,
          "time": 99.56519250000055,
          "velocity": 0.7480314960629921,
          "duration": 0.2173912500000057
        },
        {
          "name": "G2",
          "midi": 43,
          "time": 99.56519250000055,
          "velocity": 0.7480314960629921,
          "duration": 0.2173912500000057
        },
        {
          "name": "G3",
          "midi": 55,
          "time": 99.78258375000055,
          "velocity": 0.7480314960629921,
          "duration": 0.2173912500000057
        },
        {
          "name": "D3",
          "midi": 50,
          "time": 99.78258375000055,
          "velocity": 0.7480314960629921,
          "duration": 0.2173912500000057
        },
        {
          "name": "G2",
          "midi": 43,
          "time": 99.78258375000055,
          "velocity": 0.7480314960629921,
          "duration": 0.2173912500000057
        },
        {
          "name": "A#3",
          "midi": 58,
          "time": 99.99997500000056,
          "velocity": 0.7480314960629921,
          "duration": 0.2173912500000057
        },
        {
          "name": "F3",
          "midi": 53,
          "time": 99.99997500000056,
          "velocity": 0.7480314960629921,
          "duration": 0.2173912500000057
        },
        {
          "name": "A#2",
          "midi": 46,
          "time": 99.99997500000056,
          "velocity": 0.7480314960629921,
          "duration": 0.2173912500000057
        },
        {
          "name": "A#3",
          "midi": 58,
          "time": 100.21736625000057,
          "velocity": 0.7480314960629921,
          "duration": 0.2173912500000057
        },
        {
          "name": "F3",
          "midi": 53,
          "time": 100.21736625000057,
          "velocity": 0.7480314960629921,
          "duration": 0.2173912500000057
        },
        {
          "name": "A#2",
          "midi": 46,
          "time": 100.21736625000057,
          "velocity": 0.7480314960629921,
          "duration": 0.2173912500000057
        },
        {
          "name": "A#3",
          "midi": 58,
          "time": 100.43475750000057,
          "velocity": 0.7480314960629921,
          "duration": 0.2173912500000057
        },
        {
          "name": "F3",
          "midi": 53,
          "time": 100.43475750000057,
          "velocity": 0.7480314960629921,
          "duration": 0.2173912500000057
        },
        {
          "name": "A#2",
          "midi": 46,
          "time": 100.43475750000057,
          "velocity": 0.7480314960629921,
          "duration": 0.2173912500000057
        },
        {
          "name": "A#3",
          "midi": 58,
          "time": 100.65214875000058,
          "velocity": 0.7480314960629921,
          "duration": 0.2173912500000057
        },
        {
          "name": "F3",
          "midi": 53,
          "time": 100.65214875000058,
          "velocity": 0.7480314960629921,
          "duration": 0.2173912500000057
        },
        {
          "name": "A#2",
          "midi": 46,
          "time": 100.65214875000058,
          "velocity": 0.7480314960629921,
          "duration": 0.2173912500000057
        },
        {
          "name": "C5",
          "midi": 72,
          "time": 104.34780000000059,
          "velocity": 0.7480314960629921,
          "duration": 0.2173912500000057
        },
        {
          "name": "G4",
          "midi": 67,
          "time": 104.34780000000059,
          "velocity": 0.7480314960629921,
          "duration": 0.2173912500000057
        },
        {
          "name": "C5",
          "midi": 72,
          "time": 104.5651912500006,
          "velocity": 0.7480314960629921,
          "duration": 0.2173912500000057
        },
        {
          "name": "G4",
          "midi": 67,
          "time": 104.5651912500006,
          "velocity": 0.7480314960629921,
          "duration": 0.2173912500000057
        },
        {
          "name": "D5",
          "midi": 74,
          "time": 104.7825825000006,
          "velocity": 0.7480314960629921,
          "duration": 0.2173912500000057
        },
        {
          "name": "G4",
          "midi": 67,
          "time": 104.7825825000006,
          "velocity": 0.7480314960629921,
          "duration": 0.2173912500000057
        },
        {
          "name": "C5",
          "midi": 72,
          "time": 104.9999737500006,
          "velocity": 0.6771653543307087,
          "duration": 0.2173912500000057
        },
        {
          "name": "G4",
          "midi": 67,
          "time": 104.9999737500006,
          "velocity": 0.7480314960629921,
          "duration": 0.2173912500000057
        },
        {
          "name": "C5",
          "midi": 72,
          "time": 105.21736500000061,
          "velocity": 0.7480314960629921,
          "duration": 0.2173912500000057
        },
        {
          "name": "G4",
          "midi": 67,
          "time": 105.21736500000061,
          "velocity": 0.7480314960629921,
          "duration": 0.2173912500000057
        },
        {
          "name": "C5",
          "midi": 72,
          "time": 105.43475625000062,
          "velocity": 0.7480314960629921,
          "duration": 0.2173912500000057
        },
        {
          "name": "G4",
          "midi": 67,
          "time": 105.43475625000062,
          "velocity": 0.7480314960629921,
          "duration": 0.2173912500000057
        },
        {
          "name": "D5",
          "midi": 74,
          "time": 105.65214750000062,
          "velocity": 0.7480314960629921,
          "duration": 0.2173912500000057
        },
        {
          "name": "G4",
          "midi": 67,
          "time": 105.65214750000062,
          "velocity": 0.7480314960629921,
          "duration": 0.2173912500000057
        },
        {
          "name": "C5",
          "midi": 72,
          "time": 105.86953875000063,
          "velocity": 0.6771653543307087,
          "duration": 0.2173912500000057
        },
        {
          "name": "G4",
          "midi": 67,
          "time": 105.86953875000063,
          "velocity": 0.7480314960629921,
          "duration": 0.2173912500000057
        },
        {
          "name": "C5",
          "midi": 72,
          "time": 106.08693000000063,
          "velocity": 0.7480314960629921,
          "duration": 0.2173912500000057
        },
        {
          "name": "G4",
          "midi": 67,
          "time": 106.08693000000063,
          "velocity": 0.7480314960629921,
          "duration": 0.2173912500000057
        },
        {
          "name": "C5",
          "midi": 72,
          "time": 106.30432125000064,
          "velocity": 0.7480314960629921,
          "duration": 0.2173912500000057
        },
        {
          "name": "G4",
          "midi": 67,
          "time": 106.30432125000064,
          "velocity": 0.7480314960629921,
          "duration": 0.2173912500000057
        },
        {
          "name": "D5",
          "midi": 74,
          "time": 106.52171250000065,
          "velocity": 0.7480314960629921,
          "duration": 0.2173912500000057
        },
        {
          "name": "G4",
          "midi": 67,
          "time": 106.52171250000065,
          "velocity": 0.7480314960629921,
          "duration": 0.2173912500000057
        },
        {
          "name": "C5",
          "midi": 72,
          "time": 106.73910375000065,
          "velocity": 0.6771653543307087,
          "duration": 0.2173912500000057
        },
        {
          "name": "G4",
          "midi": 67,
          "time": 106.73910375000065,
          "velocity": 0.7480314960629921,
          "duration": 0.2173912500000057
        },
        {
          "name": "C5",
          "midi": 72,
          "time": 106.95649500000066,
          "velocity": 0.7480314960629921,
          "duration": 0.2173912500000057
        },
        {
          "name": "G4",
          "midi": 67,
          "time": 106.95649500000066,
          "velocity": 0.7480314960629921,
          "duration": 0.2173912500000057
        },
        {
          "name": "C5",
          "midi": 72,
          "time": 107.17388625000066,
          "velocity": 0.7480314960629921,
          "duration": 0.2173912500000057
        },
        {
          "name": "G4",
          "midi": 67,
          "time": 107.17388625000066,
          "velocity": 0.7480314960629921,
          "duration": 0.2173912500000057
        },
        {
          "name": "D5",
          "midi": 74,
          "time": 107.39127750000067,
          "velocity": 0.7480314960629921,
          "duration": 0.2173912500000057
        },
        {
          "name": "G4",
          "midi": 67,
          "time": 107.39127750000067,
          "velocity": 0.7480314960629921,
          "duration": 0.2173912500000057
        },
        {
          "name": "C5",
          "midi": 72,
          "time": 107.60866875000067,
          "velocity": 0.6771653543307087,
          "duration": 0.2173912500000057
        },
        {
          "name": "G4",
          "midi": 67,
          "time": 107.60866875000067,
          "velocity": 0.7480314960629921,
          "duration": 0.2173912500000057
        },
        {
          "name": "F3",
          "midi": 53,
          "time": 107.82606000000068,
          "velocity": 0.7480314960629921,
          "duration": 0.6521737500000029
        },
        {
          "name": "E3",
          "midi": 52,
          "time": 108.47823375000068,
          "velocity": 0.7480314960629921,
          "duration": 0.6521737500000029
        },
        {
          "name": "C3",
          "midi": 48,
          "time": 109.13040750000069,
          "velocity": 0.7480314960629921,
          "duration": 0.4347824999999972
        },
        {
          "name": "F3",
          "midi": 53,
          "time": 109.56519000000068,
          "velocity": 0.7480314960629921,
          "duration": 0.6521737500000029
        },
        {
          "name": "E3",
          "midi": 52,
          "time": 110.21736375000069,
          "velocity": 0.7480314960629921,
          "duration": 0.6521737500000029
        },
        {
          "name": "D3",
          "midi": 50,
          "time": 110.86953750000069,
          "velocity": 0.7480314960629921,
          "duration": 0.4347824999999972
        },
        {
          "name": "F3",
          "midi": 53,
          "time": 111.30432000000069,
          "velocity": 0.7480314960629921,
          "duration": 0.6521737500000029
        },
        {
          "name": "E3",
          "midi": 52,
          "time": 111.95649375000069,
          "velocity": 0.7480314960629921,
          "duration": 0.6521737500000029
        },
        {
          "name": "F3",
          "midi": 53,
          "time": 112.60866750000069,
          "velocity": 0.7480314960629921,
          "duration": 0.4347824999999972
        },
        {
          "name": "A#3",
          "midi": 58,
          "time": 113.04345000000069,
          "velocity": 0.7480314960629921,
          "duration": 0.2173912500000057
        },
        {
          "name": "A3",
          "midi": 57,
          "time": 113.2608412500007,
          "velocity": 0.7480314960629921,
          "duration": 0.2173912500000057
        },
        {
          "name": "A#3",
          "midi": 58,
          "time": 113.4782325000007,
          "velocity": 0.7480314960629921,
          "duration": 0.2173912500000057
        },
        {
          "name": "G3",
          "midi": 55,
          "time": 113.6956237500007,
          "velocity": 0.7480314960629921,
          "duration": 0.6521737500000029
        },
        {
          "name": "G3",
          "midi": 55,
          "time": 114.34779750000071,
          "velocity": 0.7480314960629921,
          "duration": 0.4347824999999972
        },
        {
          "name": "F3",
          "midi": 53,
          "time": 114.7825800000007,
          "velocity": 0.7480314960629921,
          "duration": 0.6521737500000029
        },
        {
          "name": "E3",
          "midi": 52,
          "time": 115.43475375000071,
          "velocity": 0.7480314960629921,
          "duration": 0.6521737500000029
        },
        {
          "name": "C3",
          "midi": 48,
          "time": 116.08692750000071,
          "velocity": 0.7480314960629921,
          "duration": 0.4347824999999972
        },
        {
          "name": "F3",
          "midi": 53,
          "time": 116.52171000000071,
          "velocity": 0.7480314960629921,
          "duration": 0.6521737500000029
        },
        {
          "name": "E3",
          "midi": 52,
          "time": 117.17388375000071,
          "velocity": 0.7480314960629921,
          "duration": 0.6521737500000029
        },
        {
          "name": "D3",
          "midi": 50,
          "time": 117.82605750000072,
          "velocity": 0.7480314960629921,
          "duration": 0.4347824999999972
        },
        {
          "name": "F3",
          "midi": 53,
          "time": 118.26084000000071,
          "velocity": 0.7480314960629921,
          "duration": 0.6521737500000029
        },
        {
          "name": "E3",
          "midi": 52,
          "time": 118.91301375000072,
          "velocity": 0.7480314960629921,
          "duration": 0.6521737500000029
        },
        {
          "name": "F3",
          "midi": 53,
          "time": 119.56518750000072,
          "velocity": 0.7480314960629921,
          "duration": 0.4347824999999972
        },
        {
          "name": "A#3",
          "midi": 58,
          "time": 119.99997000000072,
          "velocity": 0.7480314960629921,
          "duration": 0.2173912500000057
        },
        {
          "name": "A3",
          "midi": 57,
          "time": 120.21736125000072,
          "velocity": 0.7480314960629921,
          "duration": 0.2173912500000057
        },
        {
          "name": "A#3",
          "midi": 58,
          "time": 120.43475250000073,
          "velocity": 0.7480314960629921,
          "duration": 0.2173912500000057
        },
        {
          "name": "G3",
          "midi": 55,
          "time": 120.65214375000073,
          "velocity": 0.7480314960629921,
          "duration": 0.6521737500000029
        },
        {
          "name": "G3",
          "midi": 55,
          "time": 121.30431750000074,
          "velocity": 0.7480314960629921,
          "duration": 0.4347824999999972
        },
        {
          "name": "F3",
          "midi": 53,
          "time": 121.73910000000073,
          "velocity": 0.7480314960629921,
          "duration": 0.2173912500000057
        },
        {
          "name": "C3",
          "midi": 48,
          "time": 121.73910000000073,
          "velocity": 0.7480314960629921,
          "duration": 0.2173912500000057
        },
        {
          "name": "F2",
          "midi": 41,
          "time": 121.73910000000073,
          "velocity": 0.7480314960629921,
          "duration": 0.2173912500000057
        },
        {
          "name": "F3",
          "midi": 53,
          "time": 121.95649125000074,
          "velocity": 0.7480314960629921,
          "duration": 0.2173912500000057
        },
        {
          "name": "C3",
          "midi": 48,
          "time": 121.95649125000074,
          "velocity": 0.7480314960629921,
          "duration": 0.2173912500000057
        },
        {
          "name": "F2",
          "midi": 41,
          "time": 121.95649125000074,
          "velocity": 0.7480314960629921,
          "duration": 0.2173912500000057
        },
        {
          "name": "F3",
          "midi": 53,
          "time": 122.17388250000074,
          "velocity": 0.7480314960629921,
          "duration": 0.2173912500000057
        },
        {
          "name": "C3",
          "midi": 48,
          "time": 122.17388250000074,
          "velocity": 0.7480314960629921,
          "duration": 0.2173912500000057
        },
        {
          "name": "F2",
          "midi": 41,
          "time": 122.17388250000074,
          "velocity": 0.7480314960629921,
          "duration": 0.2173912500000057
        },
        {
          "name": "F3",
          "midi": 53,
          "time": 122.39127375000075,
          "velocity": 0.7480314960629921,
          "duration": 0.2173912500000057
        },
        {
          "name": "C3",
          "midi": 48,
          "time": 122.39127375000075,
          "velocity": 0.7480314960629921,
          "duration": 0.2173912500000057
        },
        {
          "name": "F2",
          "midi": 41,
          "time": 122.39127375000075,
          "velocity": 0.7480314960629921,
          "duration": 0.2173912500000057
        },
        {
          "name": "A#3",
          "midi": 58,
          "time": 122.60866500000076,
          "velocity": 0.7480314960629921,
          "duration": 0.2173912500000057
        },
        {
          "name": "F3",
          "midi": 53,
          "time": 122.60866500000076,
          "velocity": 0.7480314960629921,
          "duration": 0.2173912500000057
        },
        {
          "name": "A#2",
          "midi": 46,
          "time": 122.60866500000076,
          "velocity": 0.7480314960629921,
          "duration": 0.2173912500000057
        },
        {
          "name": "A#3",
          "midi": 58,
          "time": 122.82605625000076,
          "velocity": 0.7480314960629921,
          "duration": 0.2173912500000057
        },
        {
          "name": "F3",
          "midi": 53,
          "time": 122.82605625000076,
          "velocity": 0.7480314960629921,
          "duration": 0.2173912500000057
        },
        {
          "name": "A#2",
          "midi": 46,
          "time": 122.82605625000076,
          "velocity": 0.7480314960629921,
          "duration": 0.2173912500000057
        },
        {
          "name": "A#3",
          "midi": 58,
          "time": 123.04344750000077,
          "velocity": 0.7480314960629921,
          "duration": 0.2173912500000057
        },
        {
          "name": "F3",
          "midi": 53,
          "time": 123.04344750000077,
          "velocity": 0.7480314960629921,
          "duration": 0.2173912500000057
        },
        {
          "name": "A#2",
          "midi": 46,
          "time": 123.04344750000077,
          "velocity": 0.7480314960629921,
          "duration": 0.2173912500000057
        },
        {
          "name": "A#3",
          "midi": 58,
          "time": 123.26083875000077,
          "velocity": 0.7480314960629921,
          "duration": 0.2173912500000057
        },
        {
          "name": "F3",
          "midi": 53,
          "time": 123.26083875000077,
          "velocity": 0.7480314960629921,
          "duration": 0.2173912500000057
        },
        {
          "name": "A#2",
          "midi": 46,
          "time": 123.26083875000077,
          "velocity": 0.7480314960629921,
          "duration": 0.2173912500000057
        },
        {
          "name": "G3",
          "midi": 55,
          "time": 123.47823000000078,
          "velocity": 0.7480314960629921,
          "duration": 0.2173912500000057
        },
        {
          "name": "D3",
          "midi": 50,
          "time": 123.47823000000078,
          "velocity": 0.7480314960629921,
          "duration": 0.2173912500000057
        },
        {
          "name": "G2",
          "midi": 43,
          "time": 123.47823000000078,
          "velocity": 0.7480314960629921,
          "duration": 0.2173912500000057
        },
        {
          "name": "G3",
          "midi": 55,
          "time": 123.69562125000078,
          "velocity": 0.7480314960629921,
          "duration": 0.2173912500000057
        },
        {
          "name": "D3",
          "midi": 50,
          "time": 123.69562125000078,
          "velocity": 0.7480314960629921,
          "duration": 0.2173912500000057
        },
        {
          "name": "G2",
          "midi": 43,
          "time": 123.69562125000078,
          "velocity": 0.7480314960629921,
          "duration": 0.2173912500000057
        },
        {
          "name": "G3",
          "midi": 55,
          "time": 123.91301250000079,
          "velocity": 0.7480314960629921,
          "duration": 0.2173912500000057
        },
        {
          "name": "D3",
          "midi": 50,
          "time": 123.91301250000079,
          "velocity": 0.7480314960629921,
          "duration": 0.2173912500000057
        },
        {
          "name": "G2",
          "midi": 43,
          "time": 123.91301250000079,
          "velocity": 0.7480314960629921,
          "duration": 0.2173912500000057
        },
        {
          "name": "G3",
          "midi": 55,
          "time": 124.1304037500008,
          "velocity": 0.7480314960629921,
          "duration": 0.2173912500000057
        },
        {
          "name": "D3",
          "midi": 50,
          "time": 124.1304037500008,
          "velocity": 0.7480314960629921,
          "duration": 0.2173912500000057
        },
        {
          "name": "G2",
          "midi": 43,
          "time": 124.1304037500008,
          "velocity": 0.7480314960629921,
          "duration": 0.2173912500000057
        },
        {
          "name": "A#3",
          "midi": 58,
          "time": 124.3477950000008,
          "velocity": 0.7480314960629921,
          "duration": 0.2173912500000057
        },
        {
          "name": "F3",
          "midi": 53,
          "time": 124.3477950000008,
          "velocity": 0.7480314960629921,
          "duration": 0.2173912500000057
        },
        {
          "name": "A#2",
          "midi": 46,
          "time": 124.3477950000008,
          "velocity": 0.7480314960629921,
          "duration": 0.2173912500000057
        },
        {
          "name": "A#3",
          "midi": 58,
          "time": 124.5651862500008,
          "velocity": 0.7480314960629921,
          "duration": 0.2173912500000057
        },
        {
          "name": "F3",
          "midi": 53,
          "time": 124.5651862500008,
          "velocity": 0.7480314960629921,
          "duration": 0.2173912500000057
        },
        {
          "name": "A#2",
          "midi": 46,
          "time": 124.5651862500008,
          "velocity": 0.7480314960629921,
          "duration": 0.2173912500000057
        },
        {
          "name": "A#3",
          "midi": 58,
          "time": 124.78257750000081,
          "velocity": 0.7480314960629921,
          "duration": 0.2173912500000057
        },
        {
          "name": "F3",
          "midi": 53,
          "time": 124.78257750000081,
          "velocity": 0.7480314960629921,
          "duration": 0.2173912500000057
        },
        {
          "name": "A#2",
          "midi": 46,
          "time": 124.78257750000081,
          "velocity": 0.7480314960629921,
          "duration": 0.2173912500000057
        },
        {
          "name": "A#3",
          "midi": 58,
          "time": 124.99996875000082,
          "velocity": 0.7480314960629921,
          "duration": 0.2173912500000057
        },
        {
          "name": "F3",
          "midi": 53,
          "time": 124.99996875000082,
          "velocity": 0.7480314960629921,
          "duration": 0.2173912500000057
        },
        {
          "name": "A#2",
          "midi": 46,
          "time": 124.99996875000082,
          "velocity": 0.7480314960629921,
          "duration": 0.2173912500000057
        },
        {
          "name": "F3",
          "midi": 53,
          "time": 125.21736000000082,
          "velocity": 0.7480314960629921,
          "duration": 0.2173912500000057
        },
        {
          "name": "C3",
          "midi": 48,
          "time": 125.21736000000082,
          "velocity": 0.7480314960629921,
          "duration": 0.2173912500000057
        },
        {
          "name": "F2",
          "midi": 41,
          "time": 125.21736000000082,
          "velocity": 0.7480314960629921,
          "duration": 0.2173912500000057
        },
        {
          "name": "F3",
          "midi": 53,
          "time": 125.43475125000083,
          "velocity": 0.7480314960629921,
          "duration": 0.2173912500000057
        },
        {
          "name": "C3",
          "midi": 48,
          "time": 125.43475125000083,
          "velocity": 0.7480314960629921,
          "duration": 0.2173912500000057
        },
        {
          "name": "F2",
          "midi": 41,
          "time": 125.43475125000083,
          "velocity": 0.7480314960629921,
          "duration": 0.2173912500000057
        },
        {
          "name": "F3",
          "midi": 53,
          "time": 125.65214250000083,
          "velocity": 0.7480314960629921,
          "duration": 0.2173912500000057
        },
        {
          "name": "C3",
          "midi": 48,
          "time": 125.65214250000083,
          "velocity": 0.7480314960629921,
          "duration": 0.2173912500000057
        },
        {
          "name": "F2",
          "midi": 41,
          "time": 125.65214250000083,
          "velocity": 0.7480314960629921,
          "duration": 0.2173912500000057
        },
        {
          "name": "F3",
          "midi": 53,
          "time": 125.86953375000084,
          "velocity": 0.7480314960629921,
          "duration": 0.2173912500000057
        },
        {
          "name": "C3",
          "midi": 48,
          "time": 125.86953375000084,
          "velocity": 0.7480314960629921,
          "duration": 0.2173912500000057
        },
        {
          "name": "F2",
          "midi": 41,
          "time": 125.86953375000084,
          "velocity": 0.7480314960629921,
          "duration": 0.2173912500000057
        },
        {
          "name": "A#3",
          "midi": 58,
          "time": 126.08692500000085,
          "velocity": 0.7480314960629921,
          "duration": 0.2173912500000057
        },
        {
          "name": "F3",
          "midi": 53,
          "time": 126.08692500000085,
          "velocity": 0.7480314960629921,
          "duration": 0.2173912500000057
        },
        {
          "name": "A#2",
          "midi": 46,
          "time": 126.08692500000085,
          "velocity": 0.7480314960629921,
          "duration": 0.2173912500000057
        },
        {
          "name": "A#3",
          "midi": 58,
          "time": 126.30431625000085,
          "velocity": 0.7480314960629921,
          "duration": 0.2173912500000057
        },
        {
          "name": "F3",
          "midi": 53,
          "time": 126.30431625000085,
          "velocity": 0.7480314960629921,
          "duration": 0.2173912500000057
        },
        {
          "name": "A#2",
          "midi": 46,
          "time": 126.30431625000085,
          "velocity": 0.7480314960629921,
          "duration": 0.2173912500000057
        },
        {
          "name": "A#3",
          "midi": 58,
          "time": 126.52170750000086,
          "velocity": 0.7480314960629921,
          "duration": 0.2173912500000057
        },
        {
          "name": "F3",
          "midi": 53,
          "time": 126.52170750000086,
          "velocity": 0.7480314960629921,
          "duration": 0.2173912500000057
        },
        {
          "name": "A#2",
          "midi": 46,
          "time": 126.52170750000086,
          "velocity": 0.7480314960629921,
          "duration": 0.2173912500000057
        },
        {
          "name": "A#3",
          "midi": 58,
          "time": 126.73909875000086,
          "velocity": 0.7480314960629921,
          "duration": 0.2173912500000057
        },
        {
          "name": "F3",
          "midi": 53,
          "time": 126.73909875000086,
          "velocity": 0.7480314960629921,
          "duration": 0.2173912500000057
        },
        {
          "name": "A#2",
          "midi": 46,
          "time": 126.73909875000086,
          "velocity": 0.7480314960629921,
          "duration": 0.2173912500000057
        },
        {
          "name": "G3",
          "midi": 55,
          "time": 126.95649000000087,
          "velocity": 0.7480314960629921,
          "duration": 0.2173912500000057
        },
        {
          "name": "D3",
          "midi": 50,
          "time": 126.95649000000087,
          "velocity": 0.7480314960629921,
          "duration": 0.2173912500000057
        },
        {
          "name": "G2",
          "midi": 43,
          "time": 126.95649000000087,
          "velocity": 0.7480314960629921,
          "duration": 0.2173912500000057
        },
        {
          "name": "G3",
          "midi": 55,
          "time": 127.17388125000087,
          "velocity": 0.7480314960629921,
          "duration": 0.2173912500000057
        },
        {
          "name": "D3",
          "midi": 50,
          "time": 127.17388125000087,
          "velocity": 0.7480314960629921,
          "duration": 0.2173912500000057
        },
        {
          "name": "G2",
          "midi": 43,
          "time": 127.17388125000087,
          "velocity": 0.7480314960629921,
          "duration": 0.2173912500000057
        },
        {
          "name": "G3",
          "midi": 55,
          "time": 127.39127250000088,
          "velocity": 0.7480314960629921,
          "duration": 0.2173912500000057
        },
        {
          "name": "D3",
          "midi": 50,
          "time": 127.39127250000088,
          "velocity": 0.7480314960629921,
          "duration": 0.2173912500000057
        },
        {
          "name": "G2",
          "midi": 43,
          "time": 127.39127250000088,
          "velocity": 0.7480314960629921,
          "duration": 0.2173912500000057
        },
        {
          "name": "G3",
          "midi": 55,
          "time": 127.60866375000089,
          "velocity": 0.7480314960629921,
          "duration": 0.2173912500000057
        },
        {
          "name": "D3",
          "midi": 50,
          "time": 127.60866375000089,
          "velocity": 0.7480314960629921,
          "duration": 0.2173912500000057
        },
        {
          "name": "G2",
          "midi": 43,
          "time": 127.60866375000089,
          "velocity": 0.7480314960629921,
          "duration": 0.2173912500000057
        },
        {
          "name": "A#3",
          "midi": 58,
          "time": 127.82605500000089,
          "velocity": 0.7480314960629921,
          "duration": 0.2173912500000057
        },
        {
          "name": "F3",
          "midi": 53,
          "time": 127.82605500000089,
          "velocity": 0.7480314960629921,
          "duration": 0.2173912500000057
        },
        {
          "name": "A#2",
          "midi": 46,
          "time": 127.82605500000089,
          "velocity": 0.7480314960629921,
          "duration": 0.2173912500000057
        },
        {
          "name": "A#3",
          "midi": 58,
          "time": 128.0434462500009,
          "velocity": 0.7480314960629921,
          "duration": 0.2173912499999915
        },
        {
          "name": "F3",
          "midi": 53,
          "time": 128.0434462500009,
          "velocity": 0.7480314960629921,
          "duration": 0.2173912499999915
        },
        {
          "name": "A#2",
          "midi": 46,
          "time": 128.0434462500009,
          "velocity": 0.7480314960629921,
          "duration": 0.2173912499999915
        },
        {
          "name": "A#3",
          "midi": 58,
          "time": 128.2608375000009,
          "velocity": 0.7480314960629921,
          "duration": 0.2173912499999915
        },
        {
          "name": "F3",
          "midi": 53,
          "time": 128.2608375000009,
          "velocity": 0.7480314960629921,
          "duration": 0.2173912499999915
        },
        {
          "name": "A#2",
          "midi": 46,
          "time": 128.2608375000009,
          "velocity": 0.7480314960629921,
          "duration": 0.2173912499999915
        },
        {
          "name": "A#3",
          "midi": 58,
          "time": 128.47822875000088,
          "velocity": 0.7480314960629921,
          "duration": 0.2173912499999915
        },
        {
          "name": "F3",
          "midi": 53,
          "time": 128.47822875000088,
          "velocity": 0.7480314960629921,
          "duration": 0.2173912499999915
        },
        {
          "name": "A#2",
          "midi": 46,
          "time": 128.47822875000088,
          "velocity": 0.7480314960629921,
          "duration": 0.2173912499999915
        },
        {
          "name": "F3",
          "midi": 53,
          "time": 128.69562000000087,
          "velocity": 0.7480314960629921,
          "duration": 0.2173912499999915
        },
        {
          "name": "C3",
          "midi": 48,
          "time": 128.69562000000087,
          "velocity": 0.7480314960629921,
          "duration": 0.2173912499999915
        },
        {
          "name": "F2",
          "midi": 41,
          "time": 128.69562000000087,
          "velocity": 0.7480314960629921,
          "duration": 0.2173912499999915
        },
        {
          "name": "F3",
          "midi": 53,
          "time": 128.91301125000086,
          "velocity": 0.7480314960629921,
          "duration": 0.2173912499999915
        },
        {
          "name": "C3",
          "midi": 48,
          "time": 128.91301125000086,
          "velocity": 0.7480314960629921,
          "duration": 0.2173912499999915
        },
        {
          "name": "F2",
          "midi": 41,
          "time": 128.91301125000086,
          "velocity": 0.7480314960629921,
          "duration": 0.2173912499999915
        },
        {
          "name": "F3",
          "midi": 53,
          "time": 129.13040250000086,
          "velocity": 0.7480314960629921,
          "duration": 0.2173912499999915
        },
        {
          "name": "C3",
          "midi": 48,
          "time": 129.13040250000086,
          "velocity": 0.7480314960629921,
          "duration": 0.2173912499999915
        },
        {
          "name": "F2",
          "midi": 41,
          "time": 129.13040250000086,
          "velocity": 0.7480314960629921,
          "duration": 0.2173912499999915
        },
        {
          "name": "F3",
          "midi": 53,
          "time": 129.34779375000085,
          "velocity": 0.7480314960629921,
          "duration": 0.2173912499999915
        },
        {
          "name": "C3",
          "midi": 48,
          "time": 129.34779375000085,
          "velocity": 0.7480314960629921,
          "duration": 0.2173912499999915
        },
        {
          "name": "F2",
          "midi": 41,
          "time": 129.34779375000085,
          "velocity": 0.7480314960629921,
          "duration": 0.2173912499999915
        },
        {
          "name": "A#3",
          "midi": 58,
          "time": 129.56518500000084,
          "velocity": 0.7480314960629921,
          "duration": 0.2173912499999915
        },
        {
          "name": "F3",
          "midi": 53,
          "time": 129.56518500000084,
          "velocity": 0.7480314960629921,
          "duration": 0.2173912499999915
        },
        {
          "name": "A#2",
          "midi": 46,
          "time": 129.56518500000084,
          "velocity": 0.7480314960629921,
          "duration": 0.2173912499999915
        },
        {
          "name": "A#3",
          "midi": 58,
          "time": 129.78257625000083,
          "velocity": 0.7480314960629921,
          "duration": 0.2173912499999915
        },
        {
          "name": "F3",
          "midi": 53,
          "time": 129.78257625000083,
          "velocity": 0.7480314960629921,
          "duration": 0.2173912499999915
        },
        {
          "name": "A#2",
          "midi": 46,
          "time": 129.78257625000083,
          "velocity": 0.7480314960629921,
          "duration": 0.2173912499999915
        },
        {
          "name": "A#3",
          "midi": 58,
          "time": 129.99996750000082,
          "velocity": 0.7480314960629921,
          "duration": 0.2173912499999915
        },
        {
          "name": "F3",
          "midi": 53,
          "time": 129.99996750000082,
          "velocity": 0.7480314960629921,
          "duration": 0.2173912499999915
        },
        {
          "name": "A#2",
          "midi": 46,
          "time": 129.99996750000082,
          "velocity": 0.7480314960629921,
          "duration": 0.2173912499999915
        },
        {
          "name": "A#3",
          "midi": 58,
          "time": 130.2173587500008,
          "velocity": 0.7480314960629921,
          "duration": 0.2173912499999915
        },
        {
          "name": "F3",
          "midi": 53,
          "time": 130.2173587500008,
          "velocity": 0.7480314960629921,
          "duration": 0.2173912499999915
        },
        {
          "name": "A#2",
          "midi": 46,
          "time": 130.2173587500008,
          "velocity": 0.7480314960629921,
          "duration": 0.2173912499999915
        },
        {
          "name": "G3",
          "midi": 55,
          "time": 130.4347500000008,
          "velocity": 0.7480314960629921,
          "duration": 0.2173912499999915
        },
        {
          "name": "D3",
          "midi": 50,
          "time": 130.4347500000008,
          "velocity": 0.7480314960629921,
          "duration": 0.2173912499999915
        },
        {
          "name": "G2",
          "midi": 43,
          "time": 130.4347500000008,
          "velocity": 0.7480314960629921,
          "duration": 0.2173912499999915
        },
        {
          "name": "G3",
          "midi": 55,
          "time": 130.6521412500008,
          "velocity": 0.7480314960629921,
          "duration": 0.2173912499999915
        },
        {
          "name": "D3",
          "midi": 50,
          "time": 130.6521412500008,
          "velocity": 0.7480314960629921,
          "duration": 0.2173912499999915
        },
        {
          "name": "G2",
          "midi": 43,
          "time": 130.6521412500008,
          "velocity": 0.7480314960629921,
          "duration": 0.2173912499999915
        },
        {
          "name": "G3",
          "midi": 55,
          "time": 130.8695325000008,
          "velocity": 0.7480314960629921,
          "duration": 0.2173912499999915
        },
        {
          "name": "D3",
          "midi": 50,
          "time": 130.8695325000008,
          "velocity": 0.7480314960629921,
          "duration": 0.2173912499999915
        },
        {
          "name": "G2",
          "midi": 43,
          "time": 130.8695325000008,
          "velocity": 0.7480314960629921,
          "duration": 0.2173912499999915
        },
        {
          "name": "G3",
          "midi": 55,
          "time": 131.08692375000078,
          "velocity": 0.7480314960629921,
          "duration": 0.2173912499999915
        },
        {
          "name": "D3",
          "midi": 50,
          "time": 131.08692375000078,
          "velocity": 0.7480314960629921,
          "duration": 0.2173912499999915
        },
        {
          "name": "G2",
          "midi": 43,
          "time": 131.08692375000078,
          "velocity": 0.7480314960629921,
          "duration": 0.2173912499999915
        },
        {
          "name": "A#3",
          "midi": 58,
          "time": 131.30431500000077,
          "velocity": 0.7480314960629921,
          "duration": 0.2173912499999915
        },
        {
          "name": "F3",
          "midi": 53,
          "time": 131.30431500000077,
          "velocity": 0.7480314960629921,
          "duration": 0.2173912499999915
        },
        {
          "name": "A#2",
          "midi": 46,
          "time": 131.30431500000077,
          "velocity": 0.7480314960629921,
          "duration": 0.2173912499999915
        },
        {
          "name": "A#3",
          "midi": 58,
          "time": 131.52170625000076,
          "velocity": 0.7480314960629921,
          "duration": 0.2173912499999915
        },
        {
          "name": "F3",
          "midi": 53,
          "time": 131.52170625000076,
          "velocity": 0.7480314960629921,
          "duration": 0.2173912499999915
        },
        {
          "name": "A#2",
          "midi": 46,
          "time": 131.52170625000076,
          "velocity": 0.7480314960629921,
          "duration": 0.2173912499999915
        },
        {
          "name": "A#3",
          "midi": 58,
          "time": 131.73909750000075,
          "velocity": 0.7480314960629921,
          "duration": 0.2173912499999915
        },
        {
          "name": "F3",
          "midi": 53,
          "time": 131.73909750000075,
          "velocity": 0.7480314960629921,
          "duration": 0.2173912499999915
        },
        {
          "name": "A#2",
          "midi": 46,
          "time": 131.73909750000075,
          "velocity": 0.7480314960629921,
          "duration": 0.2173912499999915
        },
        {
          "name": "A#3",
          "midi": 58,
          "time": 131.95648875000074,
          "velocity": 0.7480314960629921,
          "duration": 0.2173912499999915
        },
        {
          "name": "F3",
          "midi": 53,
          "time": 131.95648875000074,
          "velocity": 0.7480314960629921,
          "duration": 0.2173912499999915
        },
        {
          "name": "A#2",
          "midi": 46,
          "time": 131.95648875000074,
          "velocity": 0.7480314960629921,
          "duration": 0.2173912499999915
        },
        {
          "name": "F3",
          "midi": 53,
          "time": 132.17388000000074,
          "velocity": 0.7480314960629921,
          "duration": 0.2173912499999915
        },
        {
          "name": "C3",
          "midi": 48,
          "time": 132.17388000000074,
          "velocity": 0.7480314960629921,
          "duration": 0.2173912499999915
        },
        {
          "name": "F2",
          "midi": 41,
          "time": 132.17388000000074,
          "velocity": 0.7480314960629921,
          "duration": 0.2173912499999915
        },
        {
          "name": "F3",
          "midi": 53,
          "time": 132.39127125000073,
          "velocity": 0.7480314960629921,
          "duration": 0.2173912499999915
        },
        {
          "name": "C3",
          "midi": 48,
          "time": 132.39127125000073,
          "velocity": 0.7480314960629921,
          "duration": 0.2173912499999915
        },
        {
          "name": "F2",
          "midi": 41,
          "time": 132.39127125000073,
          "velocity": 0.7480314960629921,
          "duration": 0.2173912499999915
        },
        {
          "name": "F3",
          "midi": 53,
          "time": 132.60866250000072,
          "velocity": 0.7480314960629921,
          "duration": 0.2173912499999915
        },
        {
          "name": "C3",
          "midi": 48,
          "time": 132.60866250000072,
          "velocity": 0.7480314960629921,
          "duration": 0.2173912499999915
        },
        {
          "name": "F2",
          "midi": 41,
          "time": 132.60866250000072,
          "velocity": 0.7480314960629921,
          "duration": 0.2173912499999915
        },
        {
          "name": "F3",
          "midi": 53,
          "time": 132.8260537500007,
          "velocity": 0.7480314960629921,
          "duration": 0.2173912499999915
        },
        {
          "name": "C3",
          "midi": 48,
          "time": 132.8260537500007,
          "velocity": 0.7480314960629921,
          "duration": 0.2173912499999915
        },
        {
          "name": "F2",
          "midi": 41,
          "time": 132.8260537500007,
          "velocity": 0.7480314960629921,
          "duration": 0.2173912499999915
        },
        {
          "name": "A#3",
          "midi": 58,
          "time": 133.0434450000007,
          "velocity": 0.7480314960629921,
          "duration": 0.2173912499999915
        },
        {
          "name": "F3",
          "midi": 53,
          "time": 133.0434450000007,
          "velocity": 0.7480314960629921,
          "duration": 0.2173912499999915
        },
        {
          "name": "A#2",
          "midi": 46,
          "time": 133.0434450000007,
          "velocity": 0.7480314960629921,
          "duration": 0.2173912499999915
        },
        {
          "name": "A#3",
          "midi": 58,
          "time": 133.2608362500007,
          "velocity": 0.7480314960629921,
          "duration": 0.2173912499999915
        },
        {
          "name": "F3",
          "midi": 53,
          "time": 133.2608362500007,
          "velocity": 0.7480314960629921,
          "duration": 0.2173912499999915
        },
        {
          "name": "A#2",
          "midi": 46,
          "time": 133.2608362500007,
          "velocity": 0.7480314960629921,
          "duration": 0.2173912499999915
        },
        {
          "name": "A#3",
          "midi": 58,
          "time": 133.47822750000068,
          "velocity": 0.7480314960629921,
          "duration": 0.2173912499999915
        },
        {
          "name": "F3",
          "midi": 53,
          "time": 133.47822750000068,
          "velocity": 0.7480314960629921,
          "duration": 0.2173912499999915
        },
        {
          "name": "A#2",
          "midi": 46,
          "time": 133.47822750000068,
          "velocity": 0.7480314960629921,
          "duration": 0.2173912499999915
        },
        {
          "name": "A#3",
          "midi": 58,
          "time": 133.69561875000068,
          "velocity": 0.7480314960629921,
          "duration": 0.2173912499999915
        },
        {
          "name": "F3",
          "midi": 53,
          "time": 133.69561875000068,
          "velocity": 0.7480314960629921,
          "duration": 0.2173912499999915
        },
        {
          "name": "A#2",
          "midi": 46,
          "time": 133.69561875000068,
          "velocity": 0.7480314960629921,
          "duration": 0.2173912499999915
        },
        {
          "name": "G3",
          "midi": 55,
          "time": 133.91301000000067,
          "velocity": 0.7480314960629921,
          "duration": 0.2173912499999915
        },
        {
          "name": "D3",
          "midi": 50,
          "time": 133.91301000000067,
          "velocity": 0.7480314960629921,
          "duration": 0.2173912499999915
        },
        {
          "name": "G2",
          "midi": 43,
          "time": 133.91301000000067,
          "velocity": 0.7480314960629921,
          "duration": 0.2173912499999915
        },
        {
          "name": "G3",
          "midi": 55,
          "time": 134.13040125000066,
          "velocity": 0.7480314960629921,
          "duration": 0.2173912499999915
        },
        {
          "name": "D3",
          "midi": 50,
          "time": 134.13040125000066,
          "velocity": 0.7480314960629921,
          "duration": 0.2173912499999915
        },
        {
          "name": "G2",
          "midi": 43,
          "time": 134.13040125000066,
          "velocity": 0.7480314960629921,
          "duration": 0.2173912499999915
        },
        {
          "name": "G3",
          "midi": 55,
          "time": 134.34779250000065,
          "velocity": 0.7480314960629921,
          "duration": 0.2173912499999915
        },
        {
          "name": "D3",
          "midi": 50,
          "time": 134.34779250000065,
          "velocity": 0.7480314960629921,
          "duration": 0.2173912499999915
        },
        {
          "name": "G2",
          "midi": 43,
          "time": 134.34779250000065,
          "velocity": 0.7480314960629921,
          "duration": 0.2173912499999915
        },
        {
          "name": "G3",
          "midi": 55,
          "time": 134.56518375000064,
          "velocity": 0.7480314960629921,
          "duration": 0.2173912499999915
        },
        {
          "name": "D3",
          "midi": 50,
          "time": 134.56518375000064,
          "velocity": 0.7480314960629921,
          "duration": 0.2173912499999915
        },
        {
          "name": "G2",
          "midi": 43,
          "time": 134.56518375000064,
          "velocity": 0.7480314960629921,
          "duration": 0.2173912499999915
        },
        {
          "name": "A#3",
          "midi": 58,
          "time": 134.78257500000063,
          "velocity": 0.7480314960629921,
          "duration": 0.2173912499999915
        },
        {
          "name": "F3",
          "midi": 53,
          "time": 134.78257500000063,
          "velocity": 0.7480314960629921,
          "duration": 0.2173912499999915
        },
        {
          "name": "A#2",
          "midi": 46,
          "time": 134.78257500000063,
          "velocity": 0.7480314960629921,
          "duration": 0.2173912499999915
        },
        {
          "name": "A#3",
          "midi": 58,
          "time": 134.99996625000063,
          "velocity": 0.7480314960629921,
          "duration": 0.2173912499999915
        },
        {
          "name": "F3",
          "midi": 53,
          "time": 134.99996625000063,
          "velocity": 0.7480314960629921,
          "duration": 0.2173912499999915
        },
        {
          "name": "A#2",
          "midi": 46,
          "time": 134.99996625000063,
          "velocity": 0.7480314960629921,
          "duration": 0.2173912499999915
        },
        {
          "name": "A#3",
          "midi": 58,
          "time": 135.21735750000062,
          "velocity": 0.7480314960629921,
          "duration": 0.2173912499999915
        },
        {
          "name": "F3",
          "midi": 53,
          "time": 135.21735750000062,
          "velocity": 0.7480314960629921,
          "duration": 0.2173912499999915
        },
        {
          "name": "A#2",
          "midi": 46,
          "time": 135.21735750000062,
          "velocity": 0.7480314960629921,
          "duration": 0.2173912499999915
        },
        {
          "name": "A#3",
          "midi": 58,
          "time": 135.4347487500006,
          "velocity": 0.7480314960629921,
          "duration": 0.2173912499999915
        },
        {
          "name": "F3",
          "midi": 53,
          "time": 135.4347487500006,
          "velocity": 0.7480314960629921,
          "duration": 0.2173912499999915
        },
        {
          "name": "A#2",
          "midi": 46,
          "time": 135.4347487500006,
          "velocity": 0.7480314960629921,
          "duration": 0.2173912499999915
        },
        {
          "name": "F3",
          "midi": 53,
          "time": 135.6521400000006,
          "velocity": 0.7480314960629921,
          "duration": 0.2173912499999915
        },
        {
          "name": "C3",
          "midi": 48,
          "time": 135.6521400000006,
          "velocity": 0.7480314960629921,
          "duration": 0.2173912499999915
        },
        {
          "name": "F2",
          "midi": 41,
          "time": 135.6521400000006,
          "velocity": 0.7480314960629921,
          "duration": 0.2173912499999915
        },
        {
          "name": "F3",
          "midi": 53,
          "time": 135.8695312500006,
          "velocity": 0.7480314960629921,
          "duration": 0.2173912499999915
        },
        {
          "name": "C3",
          "midi": 48,
          "time": 135.8695312500006,
          "velocity": 0.7480314960629921,
          "duration": 0.2173912499999915
        },
        {
          "name": "F2",
          "midi": 41,
          "time": 135.8695312500006,
          "velocity": 0.7480314960629921,
          "duration": 0.2173912499999915
        },
        {
          "name": "F3",
          "midi": 53,
          "time": 136.08692250000058,
          "velocity": 0.7480314960629921,
          "duration": 0.2173912499999915
        },
        {
          "name": "C3",
          "midi": 48,
          "time": 136.08692250000058,
          "velocity": 0.7480314960629921,
          "duration": 0.2173912499999915
        },
        {
          "name": "F2",
          "midi": 41,
          "time": 136.08692250000058,
          "velocity": 0.7480314960629921,
          "duration": 0.2173912499999915
        },
        {
          "name": "F3",
          "midi": 53,
          "time": 136.30431375000057,
          "velocity": 0.7480314960629921,
          "duration": 0.2173912499999915
        },
        {
          "name": "C3",
          "midi": 48,
          "time": 136.30431375000057,
          "velocity": 0.7480314960629921,
          "duration": 0.2173912499999915
        },
        {
          "name": "F2",
          "midi": 41,
          "time": 136.30431375000057,
          "velocity": 0.7480314960629921,
          "duration": 0.2173912499999915
        },
        {
          "name": "A#3",
          "midi": 58,
          "time": 136.52170500000057,
          "velocity": 0.7480314960629921,
          "duration": 0.2173912499999915
        },
        {
          "name": "F3",
          "midi": 53,
          "time": 136.52170500000057,
          "velocity": 0.7480314960629921,
          "duration": 0.2173912499999915
        },
        {
          "name": "A#2",
          "midi": 46,
          "time": 136.52170500000057,
          "velocity": 0.7480314960629921,
          "duration": 0.2173912499999915
        },
        {
          "name": "A#3",
          "midi": 58,
          "time": 136.73909625000056,
          "velocity": 0.7480314960629921,
          "duration": 0.2173912499999915
        },
        {
          "name": "F3",
          "midi": 53,
          "time": 136.73909625000056,
          "velocity": 0.7480314960629921,
          "duration": 0.2173912499999915
        },
        {
          "name": "A#2",
          "midi": 46,
          "time": 136.73909625000056,
          "velocity": 0.7480314960629921,
          "duration": 0.2173912499999915
        },
        {
          "name": "A#3",
          "midi": 58,
          "time": 136.95648750000055,
          "velocity": 0.7480314960629921,
          "duration": 0.2173912499999915
        },
        {
          "name": "F3",
          "midi": 53,
          "time": 136.95648750000055,
          "velocity": 0.7480314960629921,
          "duration": 0.2173912499999915
        },
        {
          "name": "A#2",
          "midi": 46,
          "time": 136.95648750000055,
          "velocity": 0.7480314960629921,
          "duration": 0.2173912499999915
        },
        {
          "name": "A#3",
          "midi": 58,
          "time": 137.17387875000054,
          "velocity": 0.7480314960629921,
          "duration": 0.2173912499999915
        },
        {
          "name": "F3",
          "midi": 53,
          "time": 137.17387875000054,
          "velocity": 0.7480314960629921,
          "duration": 0.2173912499999915
        },
        {
          "name": "A#2",
          "midi": 46,
          "time": 137.17387875000054,
          "velocity": 0.7480314960629921,
          "duration": 0.2173912499999915
        },
        {
          "name": "G3",
          "midi": 55,
          "time": 137.39127000000053,
          "velocity": 0.7480314960629921,
          "duration": 0.2173912499999915
        },
        {
          "name": "D3",
          "midi": 50,
          "time": 137.39127000000053,
          "velocity": 0.7480314960629921,
          "duration": 0.2173912499999915
        },
        {
          "name": "G2",
          "midi": 43,
          "time": 137.39127000000053,
          "velocity": 0.7480314960629921,
          "duration": 0.2173912499999915
        },
        {
          "name": "G3",
          "midi": 55,
          "time": 137.60866125000052,
          "velocity": 0.7480314960629921,
          "duration": 0.2173912499999915
        },
        {
          "name": "D3",
          "midi": 50,
          "time": 137.60866125000052,
          "velocity": 0.7480314960629921,
          "duration": 0.2173912499999915
        },
        {
          "name": "G2",
          "midi": 43,
          "time": 137.60866125000052,
          "velocity": 0.7480314960629921,
          "duration": 0.2173912499999915
        },
        {
          "name": "G3",
          "midi": 55,
          "time": 137.82605250000051,
          "velocity": 0.7480314960629921,
          "duration": 0.2173912499999915
        },
        {
          "name": "D3",
          "midi": 50,
          "time": 137.82605250000051,
          "velocity": 0.7480314960629921,
          "duration": 0.2173912499999915
        },
        {
          "name": "G2",
          "midi": 43,
          "time": 137.82605250000051,
          "velocity": 0.7480314960629921,
          "duration": 0.2173912499999915
        },
        {
          "name": "G3",
          "midi": 55,
          "time": 138.0434437500005,
          "velocity": 0.7480314960629921,
          "duration": 0.2173912499999915
        },
        {
          "name": "D3",
          "midi": 50,
          "time": 138.0434437500005,
          "velocity": 0.7480314960629921,
          "duration": 0.2173912499999915
        },
        {
          "name": "G2",
          "midi": 43,
          "time": 138.0434437500005,
          "velocity": 0.7480314960629921,
          "duration": 0.2173912499999915
        },
        {
          "name": "A#3",
          "midi": 58,
          "time": 138.2608350000005,
          "velocity": 0.7480314960629921,
          "duration": 0.2173912499999915
        },
        {
          "name": "F3",
          "midi": 53,
          "time": 138.2608350000005,
          "velocity": 0.7480314960629921,
          "duration": 0.2173912499999915
        },
        {
          "name": "A#2",
          "midi": 46,
          "time": 138.2608350000005,
          "velocity": 0.7480314960629921,
          "duration": 0.2173912499999915
        },
        {
          "name": "A#3",
          "midi": 58,
          "time": 138.4782262500005,
          "velocity": 0.7480314960629921,
          "duration": 0.2173912499999915
        },
        {
          "name": "F3",
          "midi": 53,
          "time": 138.4782262500005,
          "velocity": 0.7480314960629921,
          "duration": 0.2173912499999915
        },
        {
          "name": "A#2",
          "midi": 46,
          "time": 138.4782262500005,
          "velocity": 0.7480314960629921,
          "duration": 0.2173912499999915
        },
        {
          "name": "A#3",
          "midi": 58,
          "time": 138.69561750000048,
          "velocity": 0.7480314960629921,
          "duration": 0.2173912499999915
        },
        {
          "name": "F3",
          "midi": 53,
          "time": 138.69561750000048,
          "velocity": 0.7480314960629921,
          "duration": 0.2173912499999915
        },
        {
          "name": "A#2",
          "midi": 46,
          "time": 138.69561750000048,
          "velocity": 0.7480314960629921,
          "duration": 0.2173912499999915
        },
        {
          "name": "A#3",
          "midi": 58,
          "time": 138.91300875000047,
          "velocity": 0.7480314960629921,
          "duration": 0.2173912499999915
        },
        {
          "name": "F3",
          "midi": 53,
          "time": 138.91300875000047,
          "velocity": 0.7480314960629921,
          "duration": 0.2173912499999915
        },
        {
          "name": "A#2",
          "midi": 46,
          "time": 138.91300875000047,
          "velocity": 0.7480314960629921,
          "duration": 0.2173912499999915
        },
        {
          "name": "F3",
          "midi": 53,
          "time": 139.13040000000046,
          "velocity": 0.7480314960629921,
          "duration": 0.2173912499999915
        },
        {
          "name": "C3",
          "midi": 48,
          "time": 139.13040000000046,
          "velocity": 0.7480314960629921,
          "duration": 0.2173912499999915
        },
        {
          "name": "F2",
          "midi": 41,
          "time": 139.13040000000046,
          "velocity": 0.7480314960629921,
          "duration": 0.2173912499999915
        },
        {
          "name": "F3",
          "midi": 53,
          "time": 139.34779125000045,
          "velocity": 0.7480314960629921,
          "duration": 0.2173912499999915
        },
        {
          "name": "C3",
          "midi": 48,
          "time": 139.34779125000045,
          "velocity": 0.7480314960629921,
          "duration": 0.2173912499999915
        },
        {
          "name": "F2",
          "midi": 41,
          "time": 139.34779125000045,
          "velocity": 0.7480314960629921,
          "duration": 0.2173912499999915
        },
        {
          "name": "F3",
          "midi": 53,
          "time": 139.56518250000045,
          "velocity": 0.7480314960629921,
          "duration": 0.2173912499999915
        },
        {
          "name": "C3",
          "midi": 48,
          "time": 139.56518250000045,
          "velocity": 0.7480314960629921,
          "duration": 0.2173912499999915
        },
        {
          "name": "F2",
          "midi": 41,
          "time": 139.56518250000045,
          "velocity": 0.7480314960629921,
          "duration": 0.2173912499999915
        },
        {
          "name": "F3",
          "midi": 53,
          "time": 139.78257375000044,
          "velocity": 0.7480314960629921,
          "duration": 0.2173912499999915
        },
        {
          "name": "C3",
          "midi": 48,
          "time": 139.78257375000044,
          "velocity": 0.7480314960629921,
          "duration": 0.2173912499999915
        },
        {
          "name": "F2",
          "midi": 41,
          "time": 139.78257375000044,
          "velocity": 0.7480314960629921,
          "duration": 0.2173912499999915
        },
        {
          "name": "A#3",
          "midi": 58,
          "time": 139.99996500000043,
          "velocity": 0.7480314960629921,
          "duration": 0.2173912499999915
        },
        {
          "name": "F3",
          "midi": 53,
          "time": 139.99996500000043,
          "velocity": 0.7480314960629921,
          "duration": 0.2173912499999915
        },
        {
          "name": "A#2",
          "midi": 46,
          "time": 139.99996500000043,
          "velocity": 0.7480314960629921,
          "duration": 0.2173912499999915
        },
        {
          "name": "A#3",
          "midi": 58,
          "time": 140.21735625000042,
          "velocity": 0.7480314960629921,
          "duration": 0.2173912499999915
        },
        {
          "name": "F3",
          "midi": 53,
          "time": 140.21735625000042,
          "velocity": 0.7480314960629921,
          "duration": 0.2173912499999915
        },
        {
          "name": "A#2",
          "midi": 46,
          "time": 140.21735625000042,
          "velocity": 0.7480314960629921,
          "duration": 0.2173912499999915
        },
        {
          "name": "A#3",
          "midi": 58,
          "time": 140.4347475000004,
          "velocity": 0.7480314960629921,
          "duration": 0.2173912499999915
        },
        {
          "name": "F3",
          "midi": 53,
          "time": 140.4347475000004,
          "velocity": 0.7480314960629921,
          "duration": 0.2173912499999915
        },
        {
          "name": "A#2",
          "midi": 46,
          "time": 140.4347475000004,
          "velocity": 0.7480314960629921,
          "duration": 0.2173912499999915
        },
        {
          "name": "A#3",
          "midi": 58,
          "time": 140.6521387500004,
          "velocity": 0.7480314960629921,
          "duration": 0.2173912499999915
        },
        {
          "name": "F3",
          "midi": 53,
          "time": 140.6521387500004,
          "velocity": 0.7480314960629921,
          "duration": 0.2173912499999915
        },
        {
          "name": "A#2",
          "midi": 46,
          "time": 140.6521387500004,
          "velocity": 0.7480314960629921,
          "duration": 0.2173912499999915
        },
        {
          "name": "G3",
          "midi": 55,
          "time": 140.8695300000004,
          "velocity": 0.7480314960629921,
          "duration": 0.2173912499999915
        },
        {
          "name": "D3",
          "midi": 50,
          "time": 140.8695300000004,
          "velocity": 0.7480314960629921,
          "duration": 0.2173912499999915
        },
        {
          "name": "G2",
          "midi": 43,
          "time": 140.8695300000004,
          "velocity": 0.7480314960629921,
          "duration": 0.2173912499999915
        },
        {
          "name": "G3",
          "midi": 55,
          "time": 141.0869212500004,
          "velocity": 0.7480314960629921,
          "duration": 0.2173912499999915
        },
        {
          "name": "D3",
          "midi": 50,
          "time": 141.0869212500004,
          "velocity": 0.7480314960629921,
          "duration": 0.2173912499999915
        },
        {
          "name": "G2",
          "midi": 43,
          "time": 141.0869212500004,
          "velocity": 0.7480314960629921,
          "duration": 0.2173912499999915
        },
        {
          "name": "G3",
          "midi": 55,
          "time": 141.30431250000038,
          "velocity": 0.7480314960629921,
          "duration": 0.2173912499999915
        },
        {
          "name": "D3",
          "midi": 50,
          "time": 141.30431250000038,
          "velocity": 0.7480314960629921,
          "duration": 0.2173912499999915
        },
        {
          "name": "G2",
          "midi": 43,
          "time": 141.30431250000038,
          "velocity": 0.7480314960629921,
          "duration": 0.2173912499999915
        },
        {
          "name": "G3",
          "midi": 55,
          "time": 141.52170375000037,
          "velocity": 0.7480314960629921,
          "duration": 0.2173912499999915
        },
        {
          "name": "D3",
          "midi": 50,
          "time": 141.52170375000037,
          "velocity": 0.7480314960629921,
          "duration": 0.2173912499999915
        },
        {
          "name": "G2",
          "midi": 43,
          "time": 141.52170375000037,
          "velocity": 0.7480314960629921,
          "duration": 0.2173912499999915
        },
        {
          "name": "A#3",
          "midi": 58,
          "time": 141.73909500000036,
          "velocity": 0.7480314960629921,
          "duration": 0.2173912499999915
        },
        {
          "name": "F3",
          "midi": 53,
          "time": 141.73909500000036,
          "velocity": 0.7480314960629921,
          "duration": 0.2173912499999915
        },
        {
          "name": "A#2",
          "midi": 46,
          "time": 141.73909500000036,
          "velocity": 0.7480314960629921,
          "duration": 0.2173912499999915
        },
        {
          "name": "A#3",
          "midi": 58,
          "time": 141.95648625000035,
          "velocity": 0.7480314960629921,
          "duration": 0.2173912499999915
        },
        {
          "name": "F3",
          "midi": 53,
          "time": 141.95648625000035,
          "velocity": 0.7480314960629921,
          "duration": 0.2173912499999915
        },
        {
          "name": "A#2",
          "midi": 46,
          "time": 141.95648625000035,
          "velocity": 0.7480314960629921,
          "duration": 0.2173912499999915
        },
        {
          "name": "A#3",
          "midi": 58,
          "time": 142.17387750000034,
          "velocity": 0.7480314960629921,
          "duration": 0.2173912499999915
        },
        {
          "name": "F3",
          "midi": 53,
          "time": 142.17387750000034,
          "velocity": 0.7480314960629921,
          "duration": 0.2173912499999915
        },
        {
          "name": "A#2",
          "midi": 46,
          "time": 142.17387750000034,
          "velocity": 0.7480314960629921,
          "duration": 0.2173912499999915
        },
        {
          "name": "A#3",
          "midi": 58,
          "time": 142.39126875000034,
          "velocity": 0.7480314960629921,
          "duration": 0.2173912499999915
        },
        {
          "name": "F3",
          "midi": 53,
          "time": 142.39126875000034,
          "velocity": 0.7480314960629921,
          "duration": 0.2173912499999915
        },
        {
          "name": "A#2",
          "midi": 46,
          "time": 142.39126875000034,
          "velocity": 0.7480314960629921,
          "duration": 0.2173912499999915
        },
        {
          "name": "F3",
          "midi": 53,
          "time": 142.60866000000033,
          "velocity": 0.7480314960629921,
          "duration": 0.2173912499999915
        },
        {
          "name": "C3",
          "midi": 48,
          "time": 142.60866000000033,
          "velocity": 0.7480314960629921,
          "duration": 0.2173912499999915
        },
        {
          "name": "F2",
          "midi": 41,
          "time": 142.60866000000033,
          "velocity": 0.7480314960629921,
          "duration": 0.2173912499999915
        },
        {
          "name": "F3",
          "midi": 53,
          "time": 142.82605125000032,
          "velocity": 0.7480314960629921,
          "duration": 0.2173912499999915
        },
        {
          "name": "C3",
          "midi": 48,
          "time": 142.82605125000032,
          "velocity": 0.7480314960629921,
          "duration": 0.2173912499999915
        },
        {
          "name": "F2",
          "midi": 41,
          "time": 142.82605125000032,
          "velocity": 0.7480314960629921,
          "duration": 0.2173912499999915
        },
        {
          "name": "F3",
          "midi": 53,
          "time": 143.0434425000003,
          "velocity": 0.7480314960629921,
          "duration": 0.2173912499999915
        },
        {
          "name": "C3",
          "midi": 48,
          "time": 143.0434425000003,
          "velocity": 0.7480314960629921,
          "duration": 0.2173912499999915
        },
        {
          "name": "F2",
          "midi": 41,
          "time": 143.0434425000003,
          "velocity": 0.7480314960629921,
          "duration": 0.2173912499999915
        },
        {
          "name": "F3",
          "midi": 53,
          "time": 143.2608337500003,
          "velocity": 0.7480314960629921,
          "duration": 0.2173912499999915
        },
        {
          "name": "C3",
          "midi": 48,
          "time": 143.2608337500003,
          "velocity": 0.7480314960629921,
          "duration": 0.2173912499999915
        },
        {
          "name": "F2",
          "midi": 41,
          "time": 143.2608337500003,
          "velocity": 0.7480314960629921,
          "duration": 0.2173912499999915
        },
        {
          "name": "A#3",
          "midi": 58,
          "time": 143.4782250000003,
          "velocity": 0.7480314960629921,
          "duration": 0.2173912499999915
        },
        {
          "name": "F3",
          "midi": 53,
          "time": 143.4782250000003,
          "velocity": 0.7480314960629921,
          "duration": 0.2173912499999915
        },
        {
          "name": "A#2",
          "midi": 46,
          "time": 143.4782250000003,
          "velocity": 0.7480314960629921,
          "duration": 0.2173912499999915
        },
        {
          "name": "A#3",
          "midi": 58,
          "time": 143.69561625000028,
          "velocity": 0.7480314960629921,
          "duration": 0.2173912499999915
        },
        {
          "name": "F3",
          "midi": 53,
          "time": 143.69561625000028,
          "velocity": 0.7480314960629921,
          "duration": 0.2173912499999915
        },
        {
          "name": "A#2",
          "midi": 46,
          "time": 143.69561625000028,
          "velocity": 0.7480314960629921,
          "duration": 0.2173912499999915
        },
        {
          "name": "A#3",
          "midi": 58,
          "time": 143.91300750000028,
          "velocity": 0.7480314960629921,
          "duration": 0.2173912499999915
        },
        {
          "name": "F3",
          "midi": 53,
          "time": 143.91300750000028,
          "velocity": 0.7480314960629921,
          "duration": 0.2173912499999915
        },
        {
          "name": "A#2",
          "midi": 46,
          "time": 143.91300750000028,
          "velocity": 0.7480314960629921,
          "duration": 0.2173912499999915
        },
        {
          "name": "A#3",
          "midi": 58,
          "time": 144.13039875000027,
          "velocity": 0.7480314960629921,
          "duration": 0.2173912499999915
        },
        {
          "name": "F3",
          "midi": 53,
          "time": 144.13039875000027,
          "velocity": 0.7480314960629921,
          "duration": 0.2173912499999915
        },
        {
          "name": "A#2",
          "midi": 46,
          "time": 144.13039875000027,
          "velocity": 0.7480314960629921,
          "duration": 0.2173912499999915
        },
        {
          "name": "G3",
          "midi": 55,
          "time": 144.34779000000026,
          "velocity": 0.7480314960629921,
          "duration": 0.2173912499999915
        },
        {
          "name": "D3",
          "midi": 50,
          "time": 144.34779000000026,
          "velocity": 0.7480314960629921,
          "duration": 0.2173912499999915
        },
        {
          "name": "G2",
          "midi": 43,
          "time": 144.34779000000026,
          "velocity": 0.7480314960629921,
          "duration": 0.2173912499999915
        },
        {
          "name": "G3",
          "midi": 55,
          "time": 144.56518125000025,
          "velocity": 0.7480314960629921,
          "duration": 0.2173912499999915
        },
        {
          "name": "D3",
          "midi": 50,
          "time": 144.56518125000025,
          "velocity": 0.7480314960629921,
          "duration": 0.2173912499999915
        },
        {
          "name": "G2",
          "midi": 43,
          "time": 144.56518125000025,
          "velocity": 0.7480314960629921,
          "duration": 0.2173912499999915
        },
        {
          "name": "G3",
          "midi": 55,
          "time": 144.78257250000024,
          "velocity": 0.7480314960629921,
          "duration": 0.2173912499999915
        },
        {
          "name": "D3",
          "midi": 50,
          "time": 144.78257250000024,
          "velocity": 0.7480314960629921,
          "duration": 0.2173912499999915
        },
        {
          "name": "G2",
          "midi": 43,
          "time": 144.78257250000024,
          "velocity": 0.7480314960629921,
          "duration": 0.2173912499999915
        },
        {
          "name": "G3",
          "midi": 55,
          "time": 144.99996375000023,
          "velocity": 0.7480314960629921,
          "duration": 0.2173912499999915
        },
        {
          "name": "D3",
          "midi": 50,
          "time": 144.99996375000023,
          "velocity": 0.7480314960629921,
          "duration": 0.2173912499999915
        },
        {
          "name": "G2",
          "midi": 43,
          "time": 144.99996375000023,
          "velocity": 0.7480314960629921,
          "duration": 0.2173912499999915
        },
        {
          "name": "A#3",
          "midi": 58,
          "time": 145.21735500000023,
          "velocity": 0.7480314960629921,
          "duration": 0.2173912499999915
        },
        {
          "name": "F3",
          "midi": 53,
          "time": 145.21735500000023,
          "velocity": 0.7480314960629921,
          "duration": 0.2173912499999915
        },
        {
          "name": "A#2",
          "midi": 46,
          "time": 145.21735500000023,
          "velocity": 0.7480314960629921,
          "duration": 0.2173912499999915
        },
        {
          "name": "A#3",
          "midi": 58,
          "time": 145.43474625000022,
          "velocity": 0.7480314960629921,
          "duration": 0.2173912499999915
        },
        {
          "name": "F3",
          "midi": 53,
          "time": 145.43474625000022,
          "velocity": 0.7480314960629921,
          "duration": 0.2173912499999915
        },
        {
          "name": "A#2",
          "midi": 46,
          "time": 145.43474625000022,
          "velocity": 0.7480314960629921,
          "duration": 0.2173912499999915
        },
        {
          "name": "A#3",
          "midi": 58,
          "time": 145.6521375000002,
          "velocity": 0.7480314960629921,
          "duration": 0.2173912499999915
        },
        {
          "name": "F3",
          "midi": 53,
          "time": 145.6521375000002,
          "velocity": 0.7480314960629921,
          "duration": 0.2173912499999915
        },
        {
          "name": "A#2",
          "midi": 46,
          "time": 145.6521375000002,
          "velocity": 0.7480314960629921,
          "duration": 0.2173912499999915
        },
        {
          "name": "A#3",
          "midi": 58,
          "time": 145.8695287500002,
          "velocity": 0.7480314960629921,
          "duration": 0.2173912499999915
        },
        {
          "name": "F3",
          "midi": 53,
          "time": 145.8695287500002,
          "velocity": 0.7480314960629921,
          "duration": 0.2173912499999915
        },
        {
          "name": "A#2",
          "midi": 46,
          "time": 145.8695287500002,
          "velocity": 0.7480314960629921,
          "duration": 0.2173912499999915
        },
        {
          "name": "F3",
          "midi": 53,
          "time": 146.0869200000002,
          "velocity": 0.7480314960629921,
          "duration": 0.2173912499999915
        },
        {
          "name": "C3",
          "midi": 48,
          "time": 146.0869200000002,
          "velocity": 0.7480314960629921,
          "duration": 0.2173912499999915
        },
        {
          "name": "F2",
          "midi": 41,
          "time": 146.0869200000002,
          "velocity": 0.7480314960629921,
          "duration": 0.2173912499999915
        },
        {
          "name": "F3",
          "midi": 53,
          "time": 146.30431125000018,
          "velocity": 0.7480314960629921,
          "duration": 0.2173912499999915
        },
        {
          "name": "C3",
          "midi": 48,
          "time": 146.30431125000018,
          "velocity": 0.7480314960629921,
          "duration": 0.2173912499999915
        },
        {
          "name": "F2",
          "midi": 41,
          "time": 146.30431125000018,
          "velocity": 0.7480314960629921,
          "duration": 0.2173912499999915
        },
        {
          "name": "F3",
          "midi": 53,
          "time": 146.52170250000017,
          "velocity": 0.7480314960629921,
          "duration": 0.2173912499999915
        },
        {
          "name": "C3",
          "midi": 48,
          "time": 146.52170250000017,
          "velocity": 0.7480314960629921,
          "duration": 0.2173912499999915
        },
        {
          "name": "F2",
          "midi": 41,
          "time": 146.52170250000017,
          "velocity": 0.7480314960629921,
          "duration": 0.2173912499999915
        },
        {
          "name": "F3",
          "midi": 53,
          "time": 146.73909375000017,
          "velocity": 0.7480314960629921,
          "duration": 0.2173912499999915
        },
        {
          "name": "C3",
          "midi": 48,
          "time": 146.73909375000017,
          "velocity": 0.7480314960629921,
          "duration": 0.2173912499999915
        },
        {
          "name": "F2",
          "midi": 41,
          "time": 146.73909375000017,
          "velocity": 0.7480314960629921,
          "duration": 0.2173912499999915
        },
        {
          "name": "A#3",
          "midi": 58,
          "time": 146.95648500000016,
          "velocity": 0.7480314960629921,
          "duration": 0.2173912499999915
        },
        {
          "name": "F3",
          "midi": 53,
          "time": 146.95648500000016,
          "velocity": 0.7480314960629921,
          "duration": 0.2173912499999915
        },
        {
          "name": "A#2",
          "midi": 46,
          "time": 146.95648500000016,
          "velocity": 0.7480314960629921,
          "duration": 0.2173912499999915
        },
        {
          "name": "A#3",
          "midi": 58,
          "time": 147.17387625000015,
          "velocity": 0.7480314960629921,
          "duration": 0.2173912499999915
        },
        {
          "name": "F3",
          "midi": 53,
          "time": 147.17387625000015,
          "velocity": 0.7480314960629921,
          "duration": 0.2173912499999915
        },
        {
          "name": "A#2",
          "midi": 46,
          "time": 147.17387625000015,
          "velocity": 0.7480314960629921,
          "duration": 0.2173912499999915
        },
        {
          "name": "A#3",
          "midi": 58,
          "time": 147.39126750000014,
          "velocity": 0.7480314960629921,
          "duration": 0.2173912499999915
        },
        {
          "name": "F3",
          "midi": 53,
          "time": 147.39126750000014,
          "velocity": 0.7480314960629921,
          "duration": 0.2173912499999915
        },
        {
          "name": "A#2",
          "midi": 46,
          "time": 147.39126750000014,
          "velocity": 0.7480314960629921,
          "duration": 0.2173912499999915
        },
        {
          "name": "A#3",
          "midi": 58,
          "time": 147.60865875000013,
          "velocity": 0.7480314960629921,
          "duration": 0.2173912499999915
        },
        {
          "name": "F3",
          "midi": 53,
          "time": 147.60865875000013,
          "velocity": 0.7480314960629921,
          "duration": 0.2173912499999915
        },
        {
          "name": "A#2",
          "midi": 46,
          "time": 147.60865875000013,
          "velocity": 0.7480314960629921,
          "duration": 0.2173912499999915
        },
        {
          "name": "G3",
          "midi": 55,
          "time": 147.82605000000012,
          "velocity": 0.7480314960629921,
          "duration": 0.2173912499999915
        },
        {
          "name": "D3",
          "midi": 50,
          "time": 147.82605000000012,
          "velocity": 0.7480314960629921,
          "duration": 0.2173912499999915
        },
        {
          "name": "G2",
          "midi": 43,
          "time": 147.82605000000012,
          "velocity": 0.7480314960629921,
          "duration": 0.2173912499999915
        },
        {
          "name": "G3",
          "midi": 55,
          "time": 148.04344125000011,
          "velocity": 0.7480314960629921,
          "duration": 0.2173912499999915
        },
        {
          "name": "D3",
          "midi": 50,
          "time": 148.04344125000011,
          "velocity": 0.7480314960629921,
          "duration": 0.2173912499999915
        },
        {
          "name": "G2",
          "midi": 43,
          "time": 148.04344125000011,
          "velocity": 0.7480314960629921,
          "duration": 0.2173912499999915
        },
        {
          "name": "G3",
          "midi": 55,
          "time": 148.2608325000001,
          "velocity": 0.7480314960629921,
          "duration": 0.2173912499999915
        },
        {
          "name": "D3",
          "midi": 50,
          "time": 148.2608325000001,
          "velocity": 0.7480314960629921,
          "duration": 0.2173912499999915
        },
        {
          "name": "G2",
          "midi": 43,
          "time": 148.2608325000001,
          "velocity": 0.7480314960629921,
          "duration": 0.2173912499999915
        },
        {
          "name": "G3",
          "midi": 55,
          "time": 148.4782237500001,
          "velocity": 0.7480314960629921,
          "duration": 0.2173912499999915
        },
        {
          "name": "D3",
          "midi": 50,
          "time": 148.4782237500001,
          "velocity": 0.7480314960629921,
          "duration": 0.2173912499999915
        },
        {
          "name": "G2",
          "midi": 43,
          "time": 148.4782237500001,
          "velocity": 0.7480314960629921,
          "duration": 0.2173912499999915
        },
        {
          "name": "A#3",
          "midi": 58,
          "time": 148.6956150000001,
          "velocity": 0.7480314960629921,
          "duration": 0.2173912499999915
        },
        {
          "name": "F3",
          "midi": 53,
          "time": 148.6956150000001,
          "velocity": 0.7480314960629921,
          "duration": 0.2173912499999915
        },
        {
          "name": "A#2",
          "midi": 46,
          "time": 148.6956150000001,
          "velocity": 0.7480314960629921,
          "duration": 0.2173912499999915
        },
        {
          "name": "A#3",
          "midi": 58,
          "time": 148.91300625000008,
          "velocity": 0.7480314960629921,
          "duration": 0.2173912499999915
        },
        {
          "name": "F3",
          "midi": 53,
          "time": 148.91300625000008,
          "velocity": 0.7480314960629921,
          "duration": 0.2173912499999915
        },
        {
          "name": "A#2",
          "midi": 46,
          "time": 148.91300625000008,
          "velocity": 0.7480314960629921,
          "duration": 0.2173912499999915
        },
        {
          "name": "A#3",
          "midi": 58,
          "time": 149.13039750000007,
          "velocity": 0.7480314960629921,
          "duration": 0.2173912499999915
        },
        {
          "name": "F3",
          "midi": 53,
          "time": 149.13039750000007,
          "velocity": 0.7480314960629921,
          "duration": 0.2173912499999915
        },
        {
          "name": "A#2",
          "midi": 46,
          "time": 149.13039750000007,
          "velocity": 0.7480314960629921,
          "duration": 0.2173912499999915
        },
        {
          "name": "A#3",
          "midi": 58,
          "time": 149.34778875000006,
          "velocity": 0.7480314960629921,
          "duration": 0.2173912499999915
        },
        {
          "name": "F3",
          "midi": 53,
          "time": 149.34778875000006,
          "velocity": 0.7480314960629921,
          "duration": 0.2173912499999915
        },
        {
          "name": "A#2",
          "midi": 46,
          "time": 149.34778875000006,
          "velocity": 0.7480314960629921,
          "duration": 0.2173912499999915
        },
        {
          "name": "F3",
          "midi": 53,
          "time": 149.56518000000005,
          "velocity": 0.7480314960629921,
          "duration": 0.2173912499999915
        },
        {
          "name": "C3",
          "midi": 48,
          "time": 149.56518000000005,
          "velocity": 0.7480314960629921,
          "duration": 0.2173912499999915
        },
        {
          "name": "F2",
          "midi": 41,
          "time": 149.56518000000005,
          "velocity": 0.7480314960629921,
          "duration": 0.2173912499999915
        },
        {
          "name": "F3",
          "midi": 53,
          "time": 149.78257125000005,
          "velocity": 0.7480314960629921,
          "duration": 0.2173912499999915
        },
        {
          "name": "C3",
          "midi": 48,
          "time": 149.78257125000005,
          "velocity": 0.7480314960629921,
          "duration": 0.2173912499999915
        },
        {
          "name": "F2",
          "midi": 41,
          "time": 149.78257125000005,
          "velocity": 0.7480314960629921,
          "duration": 0.2173912499999915
        },
        {
          "name": "F3",
          "midi": 53,
          "time": 149.99996250000004,
          "velocity": 0.7480314960629921,
          "duration": 0.2173912499999915
        },
        {
          "name": "C3",
          "midi": 48,
          "time": 149.99996250000004,
          "velocity": 0.7480314960629921,
          "duration": 0.2173912499999915
        },
        {
          "name": "F2",
          "midi": 41,
          "time": 149.99996250000004,
          "velocity": 0.7480314960629921,
          "duration": 0.2173912499999915
        },
        {
          "name": "F3",
          "midi": 53,
          "time": 150.21735375000003,
          "velocity": 0.7480314960629921,
          "duration": 0.2173912499999915
        },
        {
          "name": "C3",
          "midi": 48,
          "time": 150.21735375000003,
          "velocity": 0.7480314960629921,
          "duration": 0.2173912499999915
        },
        {
          "name": "F2",
          "midi": 41,
          "time": 150.21735375000003,
          "velocity": 0.7480314960629921,
          "duration": 0.2173912499999915
        },
        {
          "name": "A#3",
          "midi": 58,
          "time": 150.43474500000002,
          "velocity": 0.7480314960629921,
          "duration": 0.2173912499999915
        },
        {
          "name": "F3",
          "midi": 53,
          "time": 150.43474500000002,
          "velocity": 0.7480314960629921,
          "duration": 0.2173912499999915
        },
        {
          "name": "A#2",
          "midi": 46,
          "time": 150.43474500000002,
          "velocity": 0.7480314960629921,
          "duration": 0.2173912499999915
        },
        {
          "name": "A#3",
          "midi": 58,
          "time": 150.65213625,
          "velocity": 0.7480314960629921,
          "duration": 0.2173912499999915
        },
        {
          "name": "F3",
          "midi": 53,
          "time": 150.65213625,
          "velocity": 0.7480314960629921,
          "duration": 0.2173912499999915
        },
        {
          "name": "A#2",
          "midi": 46,
          "time": 150.65213625,
          "velocity": 0.7480314960629921,
          "duration": 0.2173912499999915
        },
        {
          "name": "A#3",
          "midi": 58,
          "time": 150.8695275,
          "velocity": 0.7480314960629921,
          "duration": 0.2173912499999915
        },
        {
          "name": "F3",
          "midi": 53,
          "time": 150.8695275,
          "velocity": 0.7480314960629921,
          "duration": 0.2173912499999915
        },
        {
          "name": "A#2",
          "midi": 46,
          "time": 150.8695275,
          "velocity": 0.7480314960629921,
          "duration": 0.2173912499999915
        },
        {
          "name": "A#3",
          "midi": 58,
          "time": 151.08691875,
          "velocity": 0.7480314960629921,
          "duration": 0.2173912499999915
        },
        {
          "name": "F3",
          "midi": 53,
          "time": 151.08691875,
          "velocity": 0.7480314960629921,
          "duration": 0.2173912499999915
        },
        {
          "name": "A#2",
          "midi": 46,
          "time": 151.08691875,
          "velocity": 0.7480314960629921,
          "duration": 0.2173912499999915
        },
        {
          "name": "G3",
          "midi": 55,
          "time": 151.30431,
          "velocity": 0.7480314960629921,
          "duration": 0.2173912499999915
        },
        {
          "name": "D3",
          "midi": 50,
          "time": 151.30431,
          "velocity": 0.7480314960629921,
          "duration": 0.2173912499999915
        },
        {
          "name": "G2",
          "midi": 43,
          "time": 151.30431,
          "velocity": 0.7480314960629921,
          "duration": 0.2173912499999915
        },
        {
          "name": "G3",
          "midi": 55,
          "time": 151.52170124999998,
          "velocity": 0.7480314960629921,
          "duration": 0.2173912499999915
        },
        {
          "name": "D3",
          "midi": 50,
          "time": 151.52170124999998,
          "velocity": 0.7480314960629921,
          "duration": 0.2173912499999915
        },
        {
          "name": "G2",
          "midi": 43,
          "time": 151.52170124999998,
          "velocity": 0.7480314960629921,
          "duration": 0.2173912499999915
        },
        {
          "name": "G3",
          "midi": 55,
          "time": 151.73909249999997,
          "velocity": 0.7480314960629921,
          "duration": 0.2173912499999915
        },
        {
          "name": "D3",
          "midi": 50,
          "time": 151.73909249999997,
          "velocity": 0.7480314960629921,
          "duration": 0.2173912499999915
        },
        {
          "name": "G2",
          "midi": 43,
          "time": 151.73909249999997,
          "velocity": 0.7480314960629921,
          "duration": 0.2173912499999915
        },
        {
          "name": "G3",
          "midi": 55,
          "time": 151.95648374999996,
          "velocity": 0.7480314960629921,
          "duration": 0.2173912499999915
        },
        {
          "name": "D3",
          "midi": 50,
          "time": 151.95648374999996,
          "velocity": 0.7480314960629921,
          "duration": 0.2173912499999915
        },
        {
          "name": "G2",
          "midi": 43,
          "time": 151.95648374999996,
          "velocity": 0.7480314960629921,
          "duration": 0.2173912499999915
        },
        {
          "name": "A#3",
          "midi": 58,
          "time": 152.17387499999995,
          "velocity": 0.7480314960629921,
          "duration": 0.2173912499999915
        },
        {
          "name": "F3",
          "midi": 53,
          "time": 152.17387499999995,
          "velocity": 0.7480314960629921,
          "duration": 0.2173912499999915
        },
        {
          "name": "A#2",
          "midi": 46,
          "time": 152.17387499999995,
          "velocity": 0.7480314960629921,
          "duration": 0.2173912499999915
        },
        {
          "name": "A#3",
          "midi": 58,
          "time": 152.39126624999994,
          "velocity": 0.7480314960629921,
          "duration": 0.2173912499999915
        },
        {
          "name": "F3",
          "midi": 53,
          "time": 152.39126624999994,
          "velocity": 0.7480314960629921,
          "duration": 0.2173912499999915
        },
        {
          "name": "A#2",
          "midi": 46,
          "time": 152.39126624999994,
          "velocity": 0.7480314960629921,
          "duration": 0.2173912499999915
        },
        {
          "name": "A#3",
          "midi": 58,
          "time": 152.60865749999994,
          "velocity": 0.7480314960629921,
          "duration": 0.2173912499999915
        },
        {
          "name": "F3",
          "midi": 53,
          "time": 152.60865749999994,
          "velocity": 0.7480314960629921,
          "duration": 0.2173912499999915
        },
        {
          "name": "A#2",
          "midi": 46,
          "time": 152.60865749999994,
          "velocity": 0.7480314960629921,
          "duration": 0.2173912499999915
        },
        {
          "name": "A#3",
          "midi": 58,
          "time": 152.82604874999993,
          "velocity": 0.7480314960629921,
          "duration": 0.2173912499999915
        },
        {
          "name": "F3",
          "midi": 53,
          "time": 152.82604874999993,
          "velocity": 0.7480314960629921,
          "duration": 0.2173912499999915
        },
        {
          "name": "A#2",
          "midi": 46,
          "time": 152.82604874999993,
          "velocity": 0.7480314960629921,
          "duration": 0.2173912499999915
        },
        {
          "name": "F3",
          "midi": 53,
          "time": 153.04343999999992,
          "velocity": 0.7480314960629921,
          "duration": 0.2173912499999915
        },
        {
          "name": "C3",
          "midi": 48,
          "time": 153.04343999999992,
          "velocity": 0.7480314960629921,
          "duration": 0.2173912499999915
        },
        {
          "name": "F2",
          "midi": 41,
          "time": 153.04343999999992,
          "velocity": 0.7480314960629921,
          "duration": 0.2173912499999915
        },
        {
          "name": "F3",
          "midi": 53,
          "time": 153.2608312499999,
          "velocity": 0.7480314960629921,
          "duration": 0.2173912499999915
        },
        {
          "name": "C3",
          "midi": 48,
          "time": 153.2608312499999,
          "velocity": 0.7480314960629921,
          "duration": 0.2173912499999915
        },
        {
          "name": "F2",
          "midi": 41,
          "time": 153.2608312499999,
          "velocity": 0.7480314960629921,
          "duration": 0.2173912499999915
        },
        {
          "name": "F3",
          "midi": 53,
          "time": 153.4782224999999,
          "velocity": 0.7480314960629921,
          "duration": 0.2173912499999915
        },
        {
          "name": "C3",
          "midi": 48,
          "time": 153.4782224999999,
          "velocity": 0.7480314960629921,
          "duration": 0.2173912499999915
        },
        {
          "name": "F2",
          "midi": 41,
          "time": 153.4782224999999,
          "velocity": 0.7480314960629921,
          "duration": 0.2173912499999915
        },
        {
          "name": "F3",
          "midi": 53,
          "time": 153.6956137499999,
          "velocity": 0.7480314960629921,
          "duration": 0.2173912499999915
        },
        {
          "name": "C3",
          "midi": 48,
          "time": 153.6956137499999,
          "velocity": 0.7480314960629921,
          "duration": 0.2173912499999915
        },
        {
          "name": "F2",
          "midi": 41,
          "time": 153.6956137499999,
          "velocity": 0.7480314960629921,
          "duration": 0.2173912499999915
        },
        {
          "name": "A#3",
          "midi": 58,
          "time": 153.91300499999988,
          "velocity": 0.7480314960629921,
          "duration": 0.2173912499999915
        },
        {
          "name": "F3",
          "midi": 53,
          "time": 153.91300499999988,
          "velocity": 0.7480314960629921,
          "duration": 0.2173912499999915
        },
        {
          "name": "A#2",
          "midi": 46,
          "time": 153.91300499999988,
          "velocity": 0.7480314960629921,
          "duration": 0.2173912499999915
        },
        {
          "name": "A#3",
          "midi": 58,
          "time": 154.13039624999988,
          "velocity": 0.7480314960629921,
          "duration": 0.2173912499999915
        },
        {
          "name": "F3",
          "midi": 53,
          "time": 154.13039624999988,
          "velocity": 0.7480314960629921,
          "duration": 0.2173912499999915
        },
        {
          "name": "A#2",
          "midi": 46,
          "time": 154.13039624999988,
          "velocity": 0.7480314960629921,
          "duration": 0.2173912499999915
        },
        {
          "name": "A#3",
          "midi": 58,
          "time": 154.34778749999987,
          "velocity": 0.7480314960629921,
          "duration": 0.2173912499999915
        },
        {
          "name": "F3",
          "midi": 53,
          "time": 154.34778749999987,
          "velocity": 0.7480314960629921,
          "duration": 0.2173912499999915
        },
        {
          "name": "A#2",
          "midi": 46,
          "time": 154.34778749999987,
          "velocity": 0.7480314960629921,
          "duration": 0.2173912499999915
        },
        {
          "name": "A#3",
          "midi": 58,
          "time": 154.56517874999986,
          "velocity": 0.7480314960629921,
          "duration": 0.2173912499999915
        },
        {
          "name": "F3",
          "midi": 53,
          "time": 154.56517874999986,
          "velocity": 0.7480314960629921,
          "duration": 0.2173912499999915
        },
        {
          "name": "A#2",
          "midi": 46,
          "time": 154.56517874999986,
          "velocity": 0.7480314960629921,
          "duration": 0.2173912499999915
        },
        {
          "name": "G3",
          "midi": 55,
          "time": 154.78256999999985,
          "velocity": 0.7480314960629921,
          "duration": 0.2173912499999915
        },
        {
          "name": "D3",
          "midi": 50,
          "time": 154.78256999999985,
          "velocity": 0.7480314960629921,
          "duration": 0.2173912499999915
        },
        {
          "name": "G2",
          "midi": 43,
          "time": 154.78256999999985,
          "velocity": 0.7480314960629921,
          "duration": 0.2173912499999915
        },
        {
          "name": "G3",
          "midi": 55,
          "time": 154.99996124999984,
          "velocity": 0.7480314960629921,
          "duration": 0.2173912499999915
        },
        {
          "name": "D3",
          "midi": 50,
          "time": 154.99996124999984,
          "velocity": 0.7480314960629921,
          "duration": 0.2173912499999915
        },
        {
          "name": "G2",
          "midi": 43,
          "time": 154.99996124999984,
          "velocity": 0.7480314960629921,
          "duration": 0.2173912499999915
        },
        {
          "name": "G3",
          "midi": 55,
          "time": 155.21735249999983,
          "velocity": 0.7480314960629921,
          "duration": 0.2173912499999915
        },
        {
          "name": "D3",
          "midi": 50,
          "time": 155.21735249999983,
          "velocity": 0.7480314960629921,
          "duration": 0.2173912499999915
        },
        {
          "name": "G2",
          "midi": 43,
          "time": 155.21735249999983,
          "velocity": 0.7480314960629921,
          "duration": 0.2173912499999915
        },
        {
          "name": "G3",
          "midi": 55,
          "time": 155.43474374999983,
          "velocity": 0.7480314960629921,
          "duration": 0.2173912499999915
        },
        {
          "name": "D3",
          "midi": 50,
          "time": 155.43474374999983,
          "velocity": 0.7480314960629921,
          "duration": 0.2173912499999915
        },
        {
          "name": "G2",
          "midi": 43,
          "time": 155.43474374999983,
          "velocity": 0.7480314960629921,
          "duration": 0.2173912499999915
        },
        {
          "name": "A#3",
          "midi": 58,
          "time": 155.65213499999982,
          "velocity": 0.7480314960629921,
          "duration": 0.2173912499999915
        },
        {
          "name": "F3",
          "midi": 53,
          "time": 155.65213499999982,
          "velocity": 0.7480314960629921,
          "duration": 0.2173912499999915
        },
        {
          "name": "A#2",
          "midi": 46,
          "time": 155.65213499999982,
          "velocity": 0.7480314960629921,
          "duration": 0.2173912499999915
        },
        {
          "name": "A#3",
          "midi": 58,
          "time": 155.8695262499998,
          "velocity": 0.7480314960629921,
          "duration": 0.2173912499999915
        },
        {
          "name": "F3",
          "midi": 53,
          "time": 155.8695262499998,
          "velocity": 0.7480314960629921,
          "duration": 0.2173912499999915
        },
        {
          "name": "A#2",
          "midi": 46,
          "time": 155.8695262499998,
          "velocity": 0.7480314960629921,
          "duration": 0.2173912499999915
        },
        {
          "name": "A#3",
          "midi": 58,
          "time": 156.0869174999998,
          "velocity": 0.7480314960629921,
          "duration": 0.2173912499999915
        },
        {
          "name": "F3",
          "midi": 53,
          "time": 156.0869174999998,
          "velocity": 0.7480314960629921,
          "duration": 0.2173912499999915
        },
        {
          "name": "A#2",
          "midi": 46,
          "time": 156.0869174999998,
          "velocity": 0.7480314960629921,
          "duration": 0.2173912499999915
        },
        {
          "name": "A#3",
          "midi": 58,
          "time": 156.3043087499998,
          "velocity": 0.7480314960629921,
          "duration": 0.2173912499999915
        },
        {
          "name": "F3",
          "midi": 53,
          "time": 156.3043087499998,
          "velocity": 0.7480314960629921,
          "duration": 0.2173912499999915
        },
        {
          "name": "A#2",
          "midi": 46,
          "time": 156.3043087499998,
          "velocity": 0.7480314960629921,
          "duration": 0.2173912499999915
        },
        {
          "name": "F3",
          "midi": 53,
          "time": 156.52169999999978,
          "velocity": 0.7480314960629921,
          "duration": 0.2173912499999915
        },
        {
          "name": "C3",
          "midi": 48,
          "time": 156.52169999999978,
          "velocity": 0.7480314960629921,
          "duration": 0.2173912499999915
        },
        {
          "name": "F2",
          "midi": 41,
          "time": 156.52169999999978,
          "velocity": 0.7480314960629921,
          "duration": 0.2173912499999915
        },
        {
          "name": "F3",
          "midi": 53,
          "time": 156.73909124999977,
          "velocity": 0.7480314960629921,
          "duration": 0.2173912499999915
        },
        {
          "name": "C3",
          "midi": 48,
          "time": 156.73909124999977,
          "velocity": 0.7480314960629921,
          "duration": 0.2173912499999915
        },
        {
          "name": "F2",
          "midi": 41,
          "time": 156.73909124999977,
          "velocity": 0.7480314960629921,
          "duration": 0.2173912499999915
        },
        {
          "name": "F3",
          "midi": 53,
          "time": 156.95648249999977,
          "velocity": 0.7480314960629921,
          "duration": 0.2173912499999915
        },
        {
          "name": "C3",
          "midi": 48,
          "time": 156.95648249999977,
          "velocity": 0.7480314960629921,
          "duration": 0.2173912499999915
        },
        {
          "name": "F2",
          "midi": 41,
          "time": 156.95648249999977,
          "velocity": 0.7480314960629921,
          "duration": 0.2173912499999915
        },
        {
          "name": "F3",
          "midi": 53,
          "time": 157.17387374999976,
          "velocity": 0.7480314960629921,
          "duration": 0.2173912499999915
        },
        {
          "name": "C3",
          "midi": 48,
          "time": 157.17387374999976,
          "velocity": 0.7480314960629921,
          "duration": 0.2173912499999915
        },
        {
          "name": "F2",
          "midi": 41,
          "time": 157.17387374999976,
          "velocity": 0.7480314960629921,
          "duration": 0.2173912499999915
        },
        {
          "name": "A#3",
          "midi": 58,
          "time": 157.39126499999975,
          "velocity": 0.7480314960629921,
          "duration": 0.2173912499999915
        },
        {
          "name": "F3",
          "midi": 53,
          "time": 157.39126499999975,
          "velocity": 0.7480314960629921,
          "duration": 0.2173912499999915
        },
        {
          "name": "A#2",
          "midi": 46,
          "time": 157.39126499999975,
          "velocity": 0.7480314960629921,
          "duration": 0.2173912499999915
        },
        {
          "name": "A#3",
          "midi": 58,
          "time": 157.60865624999974,
          "velocity": 0.7480314960629921,
          "duration": 0.2173912499999915
        },
        {
          "name": "F3",
          "midi": 53,
          "time": 157.60865624999974,
          "velocity": 0.7480314960629921,
          "duration": 0.2173912499999915
        },
        {
          "name": "A#2",
          "midi": 46,
          "time": 157.60865624999974,
          "velocity": 0.7480314960629921,
          "duration": 0.2173912499999915
        },
        {
          "name": "A#3",
          "midi": 58,
          "time": 157.82604749999973,
          "velocity": 0.7480314960629921,
          "duration": 0.2173912499999915
        },
        {
          "name": "F3",
          "midi": 53,
          "time": 157.82604749999973,
          "velocity": 0.7480314960629921,
          "duration": 0.2173912499999915
        },
        {
          "name": "A#2",
          "midi": 46,
          "time": 157.82604749999973,
          "velocity": 0.7480314960629921,
          "duration": 0.2173912499999915
        },
        {
          "name": "A#3",
          "midi": 58,
          "time": 158.04343874999972,
          "velocity": 0.7480314960629921,
          "duration": 0.2173912499999915
        },
        {
          "name": "F3",
          "midi": 53,
          "time": 158.04343874999972,
          "velocity": 0.7480314960629921,
          "duration": 0.2173912499999915
        },
        {
          "name": "A#2",
          "midi": 46,
          "time": 158.04343874999972,
          "velocity": 0.7480314960629921,
          "duration": 0.2173912499999915
        },
        {
          "name": "G3",
          "midi": 55,
          "time": 158.26082999999971,
          "velocity": 0.7480314960629921,
          "duration": 0.2173912499999915
        },
        {
          "name": "D3",
          "midi": 50,
          "time": 158.26082999999971,
          "velocity": 0.7480314960629921,
          "duration": 0.2173912499999915
        },
        {
          "name": "G2",
          "midi": 43,
          "time": 158.26082999999971,
          "velocity": 0.7480314960629921,
          "duration": 0.2173912499999915
        },
        {
          "name": "G3",
          "midi": 55,
          "time": 158.4782212499997,
          "velocity": 0.7480314960629921,
          "duration": 0.2173912499999915
        },
        {
          "name": "D3",
          "midi": 50,
          "time": 158.4782212499997,
          "velocity": 0.7480314960629921,
          "duration": 0.2173912499999915
        },
        {
          "name": "G2",
          "midi": 43,
          "time": 158.4782212499997,
          "velocity": 0.7480314960629921,
          "duration": 0.2173912499999915
        },
        {
          "name": "G3",
          "midi": 55,
          "time": 158.6956124999997,
          "velocity": 0.7480314960629921,
          "duration": 0.2173912499999915
        },
        {
          "name": "D3",
          "midi": 50,
          "time": 158.6956124999997,
          "velocity": 0.7480314960629921,
          "duration": 0.2173912499999915
        },
        {
          "name": "G2",
          "midi": 43,
          "time": 158.6956124999997,
          "velocity": 0.7480314960629921,
          "duration": 0.2173912499999915
        },
        {
          "name": "G3",
          "midi": 55,
          "time": 158.9130037499997,
          "velocity": 0.7480314960629921,
          "duration": 0.2173912499999915
        },
        {
          "name": "D3",
          "midi": 50,
          "time": 158.9130037499997,
          "velocity": 0.7480314960629921,
          "duration": 0.2173912499999915
        },
        {
          "name": "G2",
          "midi": 43,
          "time": 158.9130037499997,
          "velocity": 0.7480314960629921,
          "duration": 0.2173912499999915
        },
        {
          "name": "A#3",
          "midi": 58,
          "time": 159.13039499999968,
          "velocity": 0.7480314960629921,
          "duration": 0.2173912499999915
        },
        {
          "name": "F3",
          "midi": 53,
          "time": 159.13039499999968,
          "velocity": 0.7480314960629921,
          "duration": 0.2173912499999915
        },
        {
          "name": "A#2",
          "midi": 46,
          "time": 159.13039499999968,
          "velocity": 0.7480314960629921,
          "duration": 0.2173912499999915
        },
        {
          "name": "A#3",
          "midi": 58,
          "time": 159.34778624999967,
          "velocity": 0.7480314960629921,
          "duration": 0.2173912499999915
        },
        {
          "name": "F3",
          "midi": 53,
          "time": 159.34778624999967,
          "velocity": 0.7480314960629921,
          "duration": 0.2173912499999915
        },
        {
          "name": "A#2",
          "midi": 46,
          "time": 159.34778624999967,
          "velocity": 0.7480314960629921,
          "duration": 0.2173912499999915
        },
        {
          "name": "A#3",
          "midi": 58,
          "time": 159.56517749999966,
          "velocity": 0.7480314960629921,
          "duration": 0.2173912499999915
        },
        {
          "name": "F3",
          "midi": 53,
          "time": 159.56517749999966,
          "velocity": 0.7480314960629921,
          "duration": 0.2173912499999915
        },
        {
          "name": "A#2",
          "midi": 46,
          "time": 159.56517749999966,
          "velocity": 0.7480314960629921,
          "duration": 0.2173912499999915
        },
        {
          "name": "A#3",
          "midi": 58,
          "time": 159.78256874999965,
          "velocity": 0.7480314960629921,
          "duration": 0.2173912499999915
        },
        {
          "name": "F3",
          "midi": 53,
          "time": 159.78256874999965,
          "velocity": 0.7480314960629921,
          "duration": 0.2173912499999915
        },
        {
          "name": "A#2",
          "midi": 46,
          "time": 159.78256874999965,
          "velocity": 0.7480314960629921,
          "duration": 0.2173912499999915
        },
        {
          "name": "F3",
          "midi": 53,
          "time": 159.99995999999965,
          "velocity": 0.7480314960629921,
          "duration": 0.2173912499999915
        },
        {
          "name": "C3",
          "midi": 48,
          "time": 159.99995999999965,
          "velocity": 0.7480314960629921,
          "duration": 0.2173912499999915
        },
        {
          "name": "F2",
          "midi": 41,
          "time": 159.99995999999965,
          "velocity": 0.7480314960629921,
          "duration": 0.2173912499999915
        },
        {
          "name": "F3",
          "midi": 53,
          "time": 160.21735124999964,
          "velocity": 0.7480314960629921,
          "duration": 0.2173912499999915
        },
        {
          "name": "C3",
          "midi": 48,
          "time": 160.21735124999964,
          "velocity": 0.7480314960629921,
          "duration": 0.2173912499999915
        },
        {
          "name": "F2",
          "midi": 41,
          "time": 160.21735124999964,
          "velocity": 0.7480314960629921,
          "duration": 0.2173912499999915
        },
        {
          "name": "F3",
          "midi": 53,
          "time": 160.43474249999963,
          "velocity": 0.7480314960629921,
          "duration": 0.2173912499999915
        },
        {
          "name": "C3",
          "midi": 48,
          "time": 160.43474249999963,
          "velocity": 0.7480314960629921,
          "duration": 0.2173912499999915
        },
        {
          "name": "F2",
          "midi": 41,
          "time": 160.43474249999963,
          "velocity": 0.7480314960629921,
          "duration": 0.2173912499999915
        },
        {
          "name": "F3",
          "midi": 53,
          "time": 160.65213374999962,
          "velocity": 0.7480314960629921,
          "duration": 0.2173912499999915
        },
        {
          "name": "C3",
          "midi": 48,
          "time": 160.65213374999962,
          "velocity": 0.7480314960629921,
          "duration": 0.2173912499999915
        },
        {
          "name": "F2",
          "midi": 41,
          "time": 160.65213374999962,
          "velocity": 0.7480314960629921,
          "duration": 0.2173912499999915
        },
        {
          "name": "A#3",
          "midi": 58,
          "time": 160.8695249999996,
          "velocity": 0.7480314960629921,
          "duration": 0.2173912499999915
        },
        {
          "name": "F3",
          "midi": 53,
          "time": 160.8695249999996,
          "velocity": 0.7480314960629921,
          "duration": 0.2173912499999915
        },
        {
          "name": "A#2",
          "midi": 46,
          "time": 160.8695249999996,
          "velocity": 0.7480314960629921,
          "duration": 0.2173912499999915
        },
        {
          "name": "A#3",
          "midi": 58,
          "time": 161.0869162499996,
          "velocity": 0.7480314960629921,
          "duration": 0.2173912499999915
        },
        {
          "name": "F3",
          "midi": 53,
          "time": 161.0869162499996,
          "velocity": 0.7480314960629921,
          "duration": 0.2173912499999915
        },
        {
          "name": "A#2",
          "midi": 46,
          "time": 161.0869162499996,
          "velocity": 0.7480314960629921,
          "duration": 0.2173912499999915
        },
        {
          "name": "A#3",
          "midi": 58,
          "time": 161.3043074999996,
          "velocity": 0.7480314960629921,
          "duration": 0.2173912499999915
        },
        {
          "name": "F3",
          "midi": 53,
          "time": 161.3043074999996,
          "velocity": 0.7480314960629921,
          "duration": 0.2173912499999915
        },
        {
          "name": "A#2",
          "midi": 46,
          "time": 161.3043074999996,
          "velocity": 0.7480314960629921,
          "duration": 0.2173912499999915
        },
        {
          "name": "A#3",
          "midi": 58,
          "time": 161.5216987499996,
          "velocity": 0.7480314960629921,
          "duration": 0.2173912499999915
        },
        {
          "name": "F3",
          "midi": 53,
          "time": 161.5216987499996,
          "velocity": 0.7480314960629921,
          "duration": 0.2173912499999915
        },
        {
          "name": "A#2",
          "midi": 46,
          "time": 161.5216987499996,
          "velocity": 0.7480314960629921,
          "duration": 0.2173912499999915
        },
        {
          "name": "G3",
          "midi": 55,
          "time": 161.73908999999958,
          "velocity": 0.7480314960629921,
          "duration": 0.2173912499999915
        },
        {
          "name": "D3",
          "midi": 50,
          "time": 161.73908999999958,
          "velocity": 0.7480314960629921,
          "duration": 0.2173912499999915
        },
        {
          "name": "G2",
          "midi": 43,
          "time": 161.73908999999958,
          "velocity": 0.7480314960629921,
          "duration": 0.2173912499999915
        },
        {
          "name": "G3",
          "midi": 55,
          "time": 161.95648124999957,
          "velocity": 0.7480314960629921,
          "duration": 0.2173912499999915
        },
        {
          "name": "D3",
          "midi": 50,
          "time": 161.95648124999957,
          "velocity": 0.7480314960629921,
          "duration": 0.2173912499999915
        },
        {
          "name": "G2",
          "midi": 43,
          "time": 161.95648124999957,
          "velocity": 0.7480314960629921,
          "duration": 0.2173912499999915
        },
        {
          "name": "G3",
          "midi": 55,
          "time": 162.17387249999956,
          "velocity": 0.7480314960629921,
          "duration": 0.2173912499999915
        },
        {
          "name": "D3",
          "midi": 50,
          "time": 162.17387249999956,
          "velocity": 0.7480314960629921,
          "duration": 0.2173912499999915
        },
        {
          "name": "G2",
          "midi": 43,
          "time": 162.17387249999956,
          "velocity": 0.7480314960629921,
          "duration": 0.2173912499999915
        },
        {
          "name": "G3",
          "midi": 55,
          "time": 162.39126374999955,
          "velocity": 0.7480314960629921,
          "duration": 0.2173912499999915
        },
        {
          "name": "D3",
          "midi": 50,
          "time": 162.39126374999955,
          "velocity": 0.7480314960629921,
          "duration": 0.2173912499999915
        },
        {
          "name": "G2",
          "midi": 43,
          "time": 162.39126374999955,
          "velocity": 0.7480314960629921,
          "duration": 0.2173912499999915
        },
        {
          "name": "A#3",
          "midi": 58,
          "time": 162.60865499999954,
          "velocity": 0.7480314960629921,
          "duration": 0.2173912499999915
        },
        {
          "name": "F3",
          "midi": 53,
          "time": 162.60865499999954,
          "velocity": 0.7480314960629921,
          "duration": 0.2173912499999915
        },
        {
          "name": "A#2",
          "midi": 46,
          "time": 162.60865499999954,
          "velocity": 0.7480314960629921,
          "duration": 0.2173912499999915
        },
        {
          "name": "A#3",
          "midi": 58,
          "time": 162.82604624999954,
          "velocity": 0.7480314960629921,
          "duration": 0.2173912499999915
        },
        {
          "name": "F3",
          "midi": 53,
          "time": 162.82604624999954,
          "velocity": 0.7480314960629921,
          "duration": 0.2173912499999915
        },
        {
          "name": "A#2",
          "midi": 46,
          "time": 162.82604624999954,
          "velocity": 0.7480314960629921,
          "duration": 0.2173912499999915
        },
        {
          "name": "A#3",
          "midi": 58,
          "time": 163.04343749999953,
          "velocity": 0.7480314960629921,
          "duration": 0.2173912499999915
        },
        {
          "name": "F3",
          "midi": 53,
          "time": 163.04343749999953,
          "velocity": 0.7480314960629921,
          "duration": 0.2173912499999915
        },
        {
          "name": "A#2",
          "midi": 46,
          "time": 163.04343749999953,
          "velocity": 0.7480314960629921,
          "duration": 0.2173912499999915
        },
        {
          "name": "A#3",
          "midi": 58,
          "time": 163.26082874999952,
          "velocity": 0.7480314960629921,
          "duration": 0.2173912499999915
        },
        {
          "name": "F3",
          "midi": 53,
          "time": 163.26082874999952,
          "velocity": 0.7480314960629921,
          "duration": 0.2173912499999915
        },
        {
          "name": "A#2",
          "midi": 46,
          "time": 163.26082874999952,
          "velocity": 0.7480314960629921,
          "duration": 0.2173912499999915
        },
        {
          "name": "F3",
          "midi": 53,
          "time": 163.4782199999995,
          "velocity": 0.7480314960629921,
          "duration": 1.7391299999999887
        },
        {
          "name": "C3",
          "midi": 48,
          "time": 163.4782199999995,
          "velocity": 0.7480314960629921,
          "duration": 1.7391299999999887
        },
        {
          "name": "F2",
          "midi": 41,
          "time": 163.4782199999995,
          "velocity": 0.7480314960629921,
          "duration": 1.7391299999999887
        }
      ],
      "controlChanges": {
        "6": [
          {
            "number": 6,
            "time": 0.0036231874999999997,
            "value": 0.09448818897637795
          },
          {
            "number": 6,
            "time": 0.00905796875,
            "value": 0.09448818897637795
          }
        ],
        "7": [
          {
            "number": 7,
            "time": 0,
            "value": 0.8818897637795275
          },
          {
            "number": 7,
            "time": 0.010869562499999999,
            "value": 0.8818897637795275
          }
        ],
        "10": [
          {
            "number": 10,
            "time": 0,
            "value": 0.3779527559055118
          },
          {
            "number": 10,
            "time": 0.010869562499999999,
            "value": 0.3779527559055118
          }
        ],
        "38": [
          {
            "number": 38,
            "time": 0.0054347812499999995,
            "value": 0
          },
          {
            "number": 38,
            "time": 0.010869562499999999,
            "value": 0
          }
        ],
        "91": [
          {
            "number": 91,
            "time": 0.010869562499999999,
            "value": 0
          },
          {
            "number": 91,
            "time": 0.010869562499999999,
            "value": 0
          }
        ],
        "92": [
          {
            "number": 92,
            "time": 0.010869562499999999,
            "value": 0
          },
          {
            "number": 92,
            "time": 0.010869562499999999,
            "value": 0
          }
        ],
        "93": [
          {
            "number": 93,
            "time": 0.010869562499999999,
            "value": 0
          },
          {
            "number": 93,
            "time": 0.010869562499999999,
            "value": 0
          }
        ],
        "95": [
          {
            "number": 95,
            "time": 0.010869562499999999,
            "value": 0
          },
          {
            "number": 95,
            "time": 0.010869562499999999,
            "value": 0
          }
        ],
        "100": [
          {
            "number": 100,
            "time": 0.0018115937499999998,
            "value": 0
          },
          {
            "number": 100,
            "time": 0.007246374999999999,
            "value": 0
          }
        ],
        "101": [
          {
            "number": 101,
            "time": 0,
            "value": 0
          },
          {
            "number": 101,
            "time": 0.0054347812499999995,
            "value": 0
          }
        ]
      },
      "id": 2,
      "instrumentNumber": 30,
      "instrument": "distortion guitar",
      "instrumentFamily": "guitar",
      "channelNumber": 1,
      "isPercussion": false
    },
    {
      "startTime": 6.195650625,
      "duration": 166.95647999999915,
      "length": 1143,
      "notes": [
        {
          "name": "G2",
          "midi": 43,
          "time": 6.195650625,
          "velocity": 0.7480314960629921,
          "duration": 0.10869562500000018
        },
        {
          "name": "D2",
          "midi": 38,
          "time": 6.30434625,
          "velocity": 0.7480314960629921,
          "duration": 0.10869562500000018
        },
        {
          "name": "B2",
          "midi": 47,
          "time": 6.413041875,
          "velocity": 0.7480314960629921,
          "duration": 0.10869562500000018
        },
        {
          "name": "G2",
          "midi": 43,
          "time": 6.5217375,
          "velocity": 0.7480314960629921,
          "duration": 0.10869562500000018
        },
        {
          "name": "D2",
          "midi": 38,
          "time": 6.630433125000001,
          "velocity": 0.7480314960629921,
          "duration": 0.10869562500000018
        },
        {
          "name": "D2",
          "midi": 38,
          "time": 6.739128750000001,
          "velocity": 0.7480314960629921,
          "duration": 0.10869562500000018
        },
        {
          "name": "D2",
          "midi": 38,
          "time": 6.847824375000001,
          "velocity": 0.7480314960629921,
          "duration": 0.10869562500000018
        },
        {
          "name": "C#3",
          "midi": 49,
          "time": 6.956520000000001,
          "velocity": 0.7480314960629921,
          "duration": 0.43478249999999985
        },
        {
          "name": "B1",
          "midi": 35,
          "time": 6.956520000000001,
          "velocity": 0.7480314960629921,
          "duration": 0.43478249999999985
        },
        {
          "name": "A#2",
          "midi": 46,
          "time": 7.391302500000001,
          "velocity": 0.7480314960629921,
          "duration": 0.21739125000000037
        },
        {
          "name": "D2",
          "midi": 38,
          "time": 7.391302500000001,
          "velocity": 0.7480314960629921,
          "duration": 0.21739125000000037
        },
        {
          "name": "A#2",
          "midi": 46,
          "time": 7.608693750000001,
          "velocity": 0.7480314960629921,
          "duration": 0.21739125000000037
        },
        {
          "name": "A#2",
          "midi": 46,
          "time": 7.826085000000002,
          "velocity": 0.7480314960629921,
          "duration": 0.21739124999999948
        },
        {
          "name": "B1",
          "midi": 35,
          "time": 7.826085000000002,
          "velocity": 0.7480314960629921,
          "duration": 0.21739124999999948
        },
        {
          "name": "A#2",
          "midi": 46,
          "time": 8.043476250000001,
          "velocity": 0.7480314960629921,
          "duration": 0.21739125000000037
        },
        {
          "name": "B1",
          "midi": 35,
          "time": 8.043476250000001,
          "velocity": 0.7480314960629921,
          "duration": 0.21739125000000037
        },
        {
          "name": "A#2",
          "midi": 46,
          "time": 8.260867500000002,
          "velocity": 0.7480314960629921,
          "duration": 0.21739125000000037
        },
        {
          "name": "D2",
          "midi": 38,
          "time": 8.260867500000002,
          "velocity": 0.7480314960629921,
          "duration": 0.21739125000000037
        },
        {
          "name": "A#2",
          "midi": 46,
          "time": 8.478258750000002,
          "velocity": 0.7480314960629921,
          "duration": 0.21739125000000037
        },
        {
          "name": "A#2",
          "midi": 46,
          "time": 8.695650000000002,
          "velocity": 0.7480314960629921,
          "duration": 0.21739125000000037
        },
        {
          "name": "B1",
          "midi": 35,
          "time": 8.695650000000002,
          "velocity": 0.7480314960629921,
          "duration": 0.21739125000000037
        },
        {
          "name": "A#2",
          "midi": 46,
          "time": 8.913041250000003,
          "velocity": 0.7480314960629921,
          "duration": 0.21739125000000037
        },
        {
          "name": "A#2",
          "midi": 46,
          "time": 9.130432500000003,
          "velocity": 0.7480314960629921,
          "duration": 0.21739125000000037
        },
        {
          "name": "D2",
          "midi": 38,
          "time": 9.130432500000003,
          "velocity": 0.7480314960629921,
          "duration": 0.21739125000000037
        },
        {
          "name": "A#2",
          "midi": 46,
          "time": 9.347823750000003,
          "velocity": 0.7480314960629921,
          "duration": 0.21739125000000037
        },
        {
          "name": "A#2",
          "midi": 46,
          "time": 9.565215000000004,
          "velocity": 0.7480314960629921,
          "duration": 0.21739125000000037
        },
        {
          "name": "B1",
          "midi": 35,
          "time": 9.565215000000004,
          "velocity": 0.7480314960629921,
          "duration": 0.21739125000000037
        },
        {
          "name": "A#2",
          "midi": 46,
          "time": 9.782606250000004,
          "velocity": 0.7480314960629921,
          "duration": 0.21739125000000037
        },
        {
          "name": "B1",
          "midi": 35,
          "time": 9.782606250000004,
          "velocity": 0.7480314960629921,
          "duration": 0.21739125000000037
        },
        {
          "name": "A#2",
          "midi": 46,
          "time": 9.999997500000005,
          "velocity": 0.7480314960629921,
          "duration": 0.21739125000000037
        },
        {
          "name": "D2",
          "midi": 38,
          "time": 9.999997500000005,
          "velocity": 0.7480314960629921,
          "duration": 0.21739125000000037
        },
        {
          "name": "A#2",
          "midi": 46,
          "time": 10.217388750000005,
          "velocity": 0.7480314960629921,
          "duration": 0.21739125000000037
        },
        {
          "name": "C#3",
          "midi": 49,
          "time": 10.434780000000005,
          "velocity": 0.7480314960629921,
          "duration": 0.43478250000000074
        },
        {
          "name": "B1",
          "midi": 35,
          "time": 10.434780000000005,
          "velocity": 0.7480314960629921,
          "duration": 0.43478250000000074
        },
        {
          "name": "A#2",
          "midi": 46,
          "time": 10.869562500000006,
          "velocity": 0.7480314960629921,
          "duration": 0.21739125000000037
        },
        {
          "name": "D2",
          "midi": 38,
          "time": 10.869562500000006,
          "velocity": 0.7480314960629921,
          "duration": 0.21739125000000037
        },
        {
          "name": "A#2",
          "midi": 46,
          "time": 11.086953750000006,
          "velocity": 0.7480314960629921,
          "duration": 0.21739125000000037
        },
        {
          "name": "A#2",
          "midi": 46,
          "time": 11.304345000000007,
          "velocity": 0.7480314960629921,
          "duration": 0.21739125000000037
        },
        {
          "name": "B1",
          "midi": 35,
          "time": 11.304345000000007,
          "velocity": 0.7480314960629921,
          "duration": 0.21739125000000037
        },
        {
          "name": "A#2",
          "midi": 46,
          "time": 11.521736250000007,
          "velocity": 0.7480314960629921,
          "duration": 0.21739125000000037
        },
        {
          "name": "B1",
          "midi": 35,
          "time": 11.521736250000007,
          "velocity": 0.7480314960629921,
          "duration": 0.21739125000000037
        },
        {
          "name": "A#2",
          "midi": 46,
          "time": 11.739127500000007,
          "velocity": 0.7480314960629921,
          "duration": 0.21739125000000037
        },
        {
          "name": "D2",
          "midi": 38,
          "time": 11.739127500000007,
          "velocity": 0.7480314960629921,
          "duration": 0.21739125000000037
        },
        {
          "name": "A#2",
          "midi": 46,
          "time": 11.956518750000008,
          "velocity": 0.7480314960629921,
          "duration": 0.21739125000000037
        },
        {
          "name": "A#2",
          "midi": 46,
          "time": 12.173910000000008,
          "velocity": 0.7480314960629921,
          "duration": 0.21739125000000037
        },
        {
          "name": "B1",
          "midi": 35,
          "time": 12.173910000000008,
          "velocity": 0.7480314960629921,
          "duration": 0.21739125000000037
        },
        {
          "name": "A#2",
          "midi": 46,
          "time": 12.391301250000009,
          "velocity": 0.7480314960629921,
          "duration": 0.21739125000000037
        },
        {
          "name": "A#2",
          "midi": 46,
          "time": 12.608692500000009,
          "velocity": 0.7480314960629921,
          "duration": 0.21739125000000037
        },
        {
          "name": "D2",
          "midi": 38,
          "time": 12.608692500000009,
          "velocity": 0.7480314960629921,
          "duration": 0.21739125000000037
        },
        {
          "name": "A#2",
          "midi": 46,
          "time": 12.82608375000001,
          "velocity": 0.7480314960629921,
          "duration": 0.21739125000000037
        },
        {
          "name": "C#3",
          "midi": 49,
          "time": 13.04347500000001,
          "velocity": 0.7480314960629921,
          "duration": 0.1086956249999993
        },
        {
          "name": "D2",
          "midi": 38,
          "time": 13.04347500000001,
          "velocity": 0.7480314960629921,
          "duration": 0.1086956249999993
        },
        {
          "name": "G2",
          "midi": 43,
          "time": 13.152170625000009,
          "velocity": 0.7480314960629921,
          "duration": 0.1086956249999993
        },
        {
          "name": "B2",
          "midi": 47,
          "time": 13.260866250000008,
          "velocity": 0.7480314960629921,
          "duration": 0.1086956249999993
        },
        {
          "name": "C#3",
          "midi": 49,
          "time": 13.478257500000007,
          "velocity": 0.7480314960629921,
          "duration": 0.1086956249999993
        },
        {
          "name": "D2",
          "midi": 38,
          "time": 13.478257500000007,
          "velocity": 0.7480314960629921,
          "duration": 0.1086956249999993
        },
        {
          "name": "A2",
          "midi": 45,
          "time": 13.586953125000006,
          "velocity": 0.7480314960629921,
          "duration": 0.1086956249999993
        },
        {
          "name": "B2",
          "midi": 47,
          "time": 13.695648750000005,
          "velocity": 0.7480314960629921,
          "duration": 0.1086956249999993
        },
        {
          "name": "B2",
          "midi": 47,
          "time": 13.804344375000005,
          "velocity": 0.7480314960629921,
          "duration": 0.1086956249999993
        },
        {
          "name": "C#3",
          "midi": 49,
          "time": 13.913040000000004,
          "velocity": 0.7480314960629921,
          "duration": 0.43478250000000074
        },
        {
          "name": "B1",
          "midi": 35,
          "time": 13.913040000000004,
          "velocity": 0.7480314960629921,
          "duration": 0.43478250000000074
        },
        {
          "name": "A#2",
          "midi": 46,
          "time": 14.347822500000005,
          "velocity": 0.7480314960629921,
          "duration": 0.21739125000000037
        },
        {
          "name": "D2",
          "midi": 38,
          "time": 14.347822500000005,
          "velocity": 0.7480314960629921,
          "duration": 0.21739125000000037
        },
        {
          "name": "A#2",
          "midi": 46,
          "time": 14.565213750000005,
          "velocity": 0.7480314960629921,
          "duration": 0.21739125000000037
        },
        {
          "name": "A#2",
          "midi": 46,
          "time": 14.782605000000006,
          "velocity": 0.7480314960629921,
          "duration": 0.21739125000000037
        },
        {
          "name": "B1",
          "midi": 35,
          "time": 14.782605000000006,
          "velocity": 0.7480314960629921,
          "duration": 0.21739125000000037
        },
        {
          "name": "A#2",
          "midi": 46,
          "time": 14.999996250000006,
          "velocity": 0.7480314960629921,
          "duration": 0.21739125000000037
        },
        {
          "name": "B1",
          "midi": 35,
          "time": 14.999996250000006,
          "velocity": 0.7480314960629921,
          "duration": 0.21739125000000037
        },
        {
          "name": "A#2",
          "midi": 46,
          "time": 15.217387500000006,
          "velocity": 0.7480314960629921,
          "duration": 0.21739125000000037
        },
        {
          "name": "D2",
          "midi": 38,
          "time": 15.217387500000006,
          "velocity": 0.7480314960629921,
          "duration": 0.21739125000000037
        },
        {
          "name": "A#2",
          "midi": 46,
          "time": 15.434778750000007,
          "velocity": 0.7480314960629921,
          "duration": 0.21739125000000037
        },
        {
          "name": "A#2",
          "midi": 46,
          "time": 15.652170000000007,
          "velocity": 0.7480314960629921,
          "duration": 0.21739125000000037
        },
        {
          "name": "B1",
          "midi": 35,
          "time": 15.652170000000007,
          "velocity": 0.7480314960629921,
          "duration": 0.21739125000000037
        },
        {
          "name": "A#2",
          "midi": 46,
          "time": 15.869561250000007,
          "velocity": 0.7480314960629921,
          "duration": 0.2173912499999986
        },
        {
          "name": "A#2",
          "midi": 46,
          "time": 16.086952500000006,
          "velocity": 0.7480314960629921,
          "duration": 0.2173912499999986
        },
        {
          "name": "D2",
          "midi": 38,
          "time": 16.086952500000006,
          "velocity": 0.7480314960629921,
          "duration": 0.2173912499999986
        },
        {
          "name": "A#2",
          "midi": 46,
          "time": 16.304343750000005,
          "velocity": 0.7480314960629921,
          "duration": 0.2173912499999986
        },
        {
          "name": "A#2",
          "midi": 46,
          "time": 16.521735000000003,
          "velocity": 0.7480314960629921,
          "duration": 0.2173912499999986
        },
        {
          "name": "B1",
          "midi": 35,
          "time": 16.521735000000003,
          "velocity": 0.7480314960629921,
          "duration": 0.2173912499999986
        },
        {
          "name": "A#2",
          "midi": 46,
          "time": 16.73912625,
          "velocity": 0.7480314960629921,
          "duration": 0.2173912499999986
        },
        {
          "name": "B1",
          "midi": 35,
          "time": 16.73912625,
          "velocity": 0.7480314960629921,
          "duration": 0.2173912499999986
        },
        {
          "name": "A#2",
          "midi": 46,
          "time": 16.9565175,
          "velocity": 0.7480314960629921,
          "duration": 0.2173912499999986
        },
        {
          "name": "D2",
          "midi": 38,
          "time": 16.9565175,
          "velocity": 0.7480314960629921,
          "duration": 0.2173912499999986
        },
        {
          "name": "A#2",
          "midi": 46,
          "time": 17.17390875,
          "velocity": 0.7480314960629921,
          "duration": 0.2173912499999986
        },
        {
          "name": "C#3",
          "midi": 49,
          "time": 17.391299999999998,
          "velocity": 0.7480314960629921,
          "duration": 0.43478250000000074
        },
        {
          "name": "B1",
          "midi": 35,
          "time": 17.391299999999998,
          "velocity": 0.7480314960629921,
          "duration": 0.43478250000000074
        },
        {
          "name": "A#2",
          "midi": 46,
          "time": 17.8260825,
          "velocity": 0.7480314960629921,
          "duration": 0.2173912499999986
        },
        {
          "name": "D2",
          "midi": 38,
          "time": 17.8260825,
          "velocity": 0.7480314960629921,
          "duration": 0.2173912499999986
        },
        {
          "name": "A#2",
          "midi": 46,
          "time": 18.043473749999997,
          "velocity": 0.7480314960629921,
          "duration": 0.2173912499999986
        },
        {
          "name": "A#2",
          "midi": 46,
          "time": 18.260864999999995,
          "velocity": 0.7480314960629921,
          "duration": 0.2173912499999986
        },
        {
          "name": "B1",
          "midi": 35,
          "time": 18.260864999999995,
          "velocity": 0.7480314960629921,
          "duration": 0.2173912499999986
        },
        {
          "name": "A#2",
          "midi": 46,
          "time": 18.478256249999994,
          "velocity": 0.7480314960629921,
          "duration": 0.2173912499999986
        },
        {
          "name": "B1",
          "midi": 35,
          "time": 18.478256249999994,
          "velocity": 0.7480314960629921,
          "duration": 0.2173912499999986
        },
        {
          "name": "A#2",
          "midi": 46,
          "time": 18.695647499999993,
          "velocity": 0.7480314960629921,
          "duration": 0.2173912499999986
        },
        {
          "name": "D2",
          "midi": 38,
          "time": 18.695647499999993,
          "velocity": 0.7480314960629921,
          "duration": 0.2173912499999986
        },
        {
          "name": "A#2",
          "midi": 46,
          "time": 18.91303874999999,
          "velocity": 0.7480314960629921,
          "duration": 0.2173912499999986
        },
        {
          "name": "A#2",
          "midi": 46,
          "time": 19.13042999999999,
          "velocity": 0.7480314960629921,
          "duration": 0.2173912499999986
        },
        {
          "name": "B1",
          "midi": 35,
          "time": 19.13042999999999,
          "velocity": 0.7480314960629921,
          "duration": 0.2173912499999986
        },
        {
          "name": "A#2",
          "midi": 46,
          "time": 19.34782124999999,
          "velocity": 0.7480314960629921,
          "duration": 0.2173912499999986
        },
        {
          "name": "A#2",
          "midi": 46,
          "time": 19.565212499999987,
          "velocity": 0.7480314960629921,
          "duration": 0.2173912499999986
        },
        {
          "name": "D2",
          "midi": 38,
          "time": 19.565212499999987,
          "velocity": 0.7480314960629921,
          "duration": 0.2173912499999986
        },
        {
          "name": "A#2",
          "midi": 46,
          "time": 19.782603749999986,
          "velocity": 0.7480314960629921,
          "duration": 0.2173912499999986
        },
        {
          "name": "C#3",
          "midi": 49,
          "time": 20.217386249999983,
          "velocity": 0.7480314960629921,
          "duration": 0.2173912499999986
        },
        {
          "name": "D2",
          "midi": 38,
          "time": 20.217386249999983,
          "velocity": 0.7480314960629921,
          "duration": 0.2173912499999986
        },
        {
          "name": "C#3",
          "midi": 49,
          "time": 20.43477749999998,
          "velocity": 0.7480314960629921,
          "duration": 0.2173912499999986
        },
        {
          "name": "D2",
          "midi": 38,
          "time": 20.43477749999998,
          "velocity": 0.7480314960629921,
          "duration": 0.2173912499999986
        },
        {
          "name": "C#3",
          "midi": 49,
          "time": 20.65216874999998,
          "velocity": 0.7480314960629921,
          "duration": 0.2173912499999986
        },
        {
          "name": "D2",
          "midi": 38,
          "time": 20.65216874999998,
          "velocity": 0.7480314960629921,
          "duration": 0.2173912499999986
        },
        {
          "name": "C#3",
          "midi": 49,
          "time": 20.86955999999998,
          "velocity": 0.7480314960629921,
          "duration": 0.2173912499999986
        },
        {
          "name": "B1",
          "midi": 35,
          "time": 20.86955999999998,
          "velocity": 0.7480314960629921,
          "duration": 0.2173912499999986
        },
        {
          "name": "A#2",
          "midi": 46,
          "time": 21.086951249999977,
          "velocity": 0.7480314960629921,
          "duration": 0.2173912499999986
        },
        {
          "name": "A#2",
          "midi": 46,
          "time": 21.304342499999976,
          "velocity": 0.7480314960629921,
          "duration": 0.2173912499999986
        },
        {
          "name": "D2",
          "midi": 38,
          "time": 21.304342499999976,
          "velocity": 0.7480314960629921,
          "duration": 0.2173912499999986
        },
        {
          "name": "A#2",
          "midi": 46,
          "time": 21.521733749999974,
          "velocity": 0.7480314960629921,
          "duration": 0.1086956249999993
        },
        {
          "name": "B1",
          "midi": 35,
          "time": 21.521733749999974,
          "velocity": 0.7480314960629921,
          "duration": 0.1086956249999993
        },
        {
          "name": "D2",
          "midi": 38,
          "time": 21.630429374999974,
          "velocity": 0.7480314960629921,
          "duration": 0.1086956249999993
        },
        {
          "name": "A#2",
          "midi": 46,
          "time": 21.739124999999973,
          "velocity": 0.7480314960629921,
          "duration": 0.1086956249999993
        },
        {
          "name": "D2",
          "midi": 38,
          "time": 21.739124999999973,
          "velocity": 0.7480314960629921,
          "duration": 0.1086956249999993
        },
        {
          "name": "A#2",
          "midi": 46,
          "time": 21.95651624999997,
          "velocity": 0.7480314960629921,
          "duration": 0.1086956249999993
        },
        {
          "name": "B1",
          "midi": 35,
          "time": 21.95651624999997,
          "velocity": 0.7480314960629921,
          "duration": 0.1086956249999993
        },
        {
          "name": "A#2",
          "midi": 46,
          "time": 22.17390749999997,
          "velocity": 0.7480314960629921,
          "duration": 0.1086956249999993
        },
        {
          "name": "D2",
          "midi": 38,
          "time": 22.17390749999997,
          "velocity": 0.7480314960629921,
          "duration": 0.1086956249999993
        },
        {
          "name": "A#2",
          "midi": 46,
          "time": 22.28260312499997,
          "velocity": 0.7480314960629921,
          "duration": 0.1086956249999993
        },
        {
          "name": "A#2",
          "midi": 46,
          "time": 22.39129874999997,
          "velocity": 0.7480314960629921,
          "duration": 0.2173912499999986
        },
        {
          "name": "A#2",
          "midi": 46,
          "time": 22.608689999999967,
          "velocity": 0.7480314960629921,
          "duration": 0.2173912499999986
        },
        {
          "name": "B1",
          "midi": 35,
          "time": 22.608689999999967,
          "velocity": 0.7480314960629921,
          "duration": 0.2173912499999986
        },
        {
          "name": "A#2",
          "midi": 46,
          "time": 22.826081249999966,
          "velocity": 0.7480314960629921,
          "duration": 0.2173912499999986
        },
        {
          "name": "A#2",
          "midi": 46,
          "time": 23.043472499999964,
          "velocity": 0.7480314960629921,
          "duration": 0.2173912499999986
        },
        {
          "name": "D2",
          "midi": 38,
          "time": 23.043472499999964,
          "velocity": 0.7480314960629921,
          "duration": 0.2173912499999986
        },
        {
          "name": "A#2",
          "midi": 46,
          "time": 23.260863749999963,
          "velocity": 0.7480314960629921,
          "duration": 0.2173912499999986
        },
        {
          "name": "A#2",
          "midi": 46,
          "time": 23.47825499999996,
          "velocity": 0.7480314960629921,
          "duration": 0.2173912499999986
        },
        {
          "name": "B1",
          "midi": 35,
          "time": 23.47825499999996,
          "velocity": 0.7480314960629921,
          "duration": 0.2173912499999986
        },
        {
          "name": "A#2",
          "midi": 46,
          "time": 23.69564624999996,
          "velocity": 0.7480314960629921,
          "duration": 0.2173912499999986
        },
        {
          "name": "A#2",
          "midi": 46,
          "time": 23.91303749999996,
          "velocity": 0.7480314960629921,
          "duration": 0.2173912499999986
        },
        {
          "name": "D2",
          "midi": 38,
          "time": 23.91303749999996,
          "velocity": 0.7480314960629921,
          "duration": 0.2173912499999986
        },
        {
          "name": "A#2",
          "midi": 46,
          "time": 24.130428749999957,
          "velocity": 0.7480314960629921,
          "duration": 0.2173912499999986
        },
        {
          "name": "A#2",
          "midi": 46,
          "time": 24.347819999999956,
          "velocity": 0.7480314960629921,
          "duration": 0.2173912499999986
        },
        {
          "name": "B1",
          "midi": 35,
          "time": 24.347819999999956,
          "velocity": 0.7480314960629921,
          "duration": 0.2173912499999986
        },
        {
          "name": "A#2",
          "midi": 46,
          "time": 24.565211249999955,
          "velocity": 0.7480314960629921,
          "duration": 0.2173912499999986
        },
        {
          "name": "A#2",
          "midi": 46,
          "time": 24.782602499999953,
          "velocity": 0.7480314960629921,
          "duration": 0.2173912499999986
        },
        {
          "name": "D2",
          "midi": 38,
          "time": 24.782602499999953,
          "velocity": 0.7480314960629921,
          "duration": 0.2173912499999986
        },
        {
          "name": "A#2",
          "midi": 46,
          "time": 24.999993749999952,
          "velocity": 0.7480314960629921,
          "duration": 0.1086956249999993
        },
        {
          "name": "B1",
          "midi": 35,
          "time": 24.999993749999952,
          "velocity": 0.7480314960629921,
          "duration": 0.1086956249999993
        },
        {
          "name": "D2",
          "midi": 38,
          "time": 25.10868937499995,
          "velocity": 0.7480314960629921,
          "duration": 0.1086956249999993
        },
        {
          "name": "A#2",
          "midi": 46,
          "time": 25.21738499999995,
          "velocity": 0.7480314960629921,
          "duration": 0.1086956249999993
        },
        {
          "name": "D2",
          "midi": 38,
          "time": 25.21738499999995,
          "velocity": 0.7480314960629921,
          "duration": 0.1086956249999993
        },
        {
          "name": "A#2",
          "midi": 46,
          "time": 25.43477624999995,
          "velocity": 0.7480314960629921,
          "duration": 0.1086956249999993
        },
        {
          "name": "B1",
          "midi": 35,
          "time": 25.43477624999995,
          "velocity": 0.7480314960629921,
          "duration": 0.1086956249999993
        },
        {
          "name": "A#2",
          "midi": 46,
          "time": 25.652167499999948,
          "velocity": 0.7480314960629921,
          "duration": 0.1086956249999993
        },
        {
          "name": "D2",
          "midi": 38,
          "time": 25.652167499999948,
          "velocity": 0.7480314960629921,
          "duration": 0.1086956249999993
        },
        {
          "name": "A#2",
          "midi": 46,
          "time": 25.760863124999947,
          "velocity": 0.7480314960629921,
          "duration": 0.1086956249999993
        },
        {
          "name": "A#2",
          "midi": 46,
          "time": 25.869558749999946,
          "velocity": 0.7480314960629921,
          "duration": 0.2173912499999986
        },
        {
          "name": "A#2",
          "midi": 46,
          "time": 26.086949999999945,
          "velocity": 0.7480314960629921,
          "duration": 0.2173912499999986
        },
        {
          "name": "B1",
          "midi": 35,
          "time": 26.086949999999945,
          "velocity": 0.7480314960629921,
          "duration": 0.2173912499999986
        },
        {
          "name": "A#2",
          "midi": 46,
          "time": 26.304341249999943,
          "velocity": 0.7480314960629921,
          "duration": 0.2173912499999986
        },
        {
          "name": "A#2",
          "midi": 46,
          "time": 26.521732499999942,
          "velocity": 0.7480314960629921,
          "duration": 0.2173912499999986
        },
        {
          "name": "D2",
          "midi": 38,
          "time": 26.521732499999942,
          "velocity": 0.7480314960629921,
          "duration": 0.2173912499999986
        },
        {
          "name": "A#2",
          "midi": 46,
          "time": 26.73912374999994,
          "velocity": 0.7480314960629921,
          "duration": 0.2173912499999986
        },
        {
          "name": "A#2",
          "midi": 46,
          "time": 26.95651499999994,
          "velocity": 0.7480314960629921,
          "duration": 0.2173912499999986
        },
        {
          "name": "B1",
          "midi": 35,
          "time": 26.95651499999994,
          "velocity": 0.7480314960629921,
          "duration": 0.2173912499999986
        },
        {
          "name": "A#2",
          "midi": 46,
          "time": 27.173906249999938,
          "velocity": 0.7480314960629921,
          "duration": 0.2173912499999986
        },
        {
          "name": "A#2",
          "midi": 46,
          "time": 27.391297499999936,
          "velocity": 0.7480314960629921,
          "duration": 0.2173912499999986
        },
        {
          "name": "D2",
          "midi": 38,
          "time": 27.391297499999936,
          "velocity": 0.7480314960629921,
          "duration": 0.2173912499999986
        },
        {
          "name": "A#2",
          "midi": 46,
          "time": 27.608688749999935,
          "velocity": 0.7480314960629921,
          "duration": 0.2173912499999986
        },
        {
          "name": "C#3",
          "midi": 49,
          "time": 27.826079999999934,
          "velocity": 0.7480314960629921,
          "duration": 0.2173912499999986
        },
        {
          "name": "B1",
          "midi": 35,
          "time": 27.826079999999934,
          "velocity": 0.7480314960629921,
          "duration": 0.2173912499999986
        },
        {
          "name": "A#2",
          "midi": 46,
          "time": 28.043471249999932,
          "velocity": 0.7480314960629921,
          "duration": 0.2173912499999986
        },
        {
          "name": "A#2",
          "midi": 46,
          "time": 28.26086249999993,
          "velocity": 0.7480314960629921,
          "duration": 0.2173912499999986
        },
        {
          "name": "D2",
          "midi": 38,
          "time": 28.26086249999993,
          "velocity": 0.7480314960629921,
          "duration": 0.2173912499999986
        },
        {
          "name": "A#2",
          "midi": 46,
          "time": 28.47825374999993,
          "velocity": 0.7480314960629921,
          "duration": 0.1086956249999993
        },
        {
          "name": "B1",
          "midi": 35,
          "time": 28.47825374999993,
          "velocity": 0.7480314960629921,
          "duration": 0.1086956249999993
        },
        {
          "name": "D2",
          "midi": 38,
          "time": 28.58694937499993,
          "velocity": 0.7480314960629921,
          "duration": 0.1086956249999993
        },
        {
          "name": "A#2",
          "midi": 46,
          "time": 28.695644999999928,
          "velocity": 0.7480314960629921,
          "duration": 0.1086956249999993
        },
        {
          "name": "D2",
          "midi": 38,
          "time": 28.695644999999928,
          "velocity": 0.7480314960629921,
          "duration": 0.1086956249999993
        },
        {
          "name": "A#2",
          "midi": 46,
          "time": 28.913036249999926,
          "velocity": 0.7480314960629921,
          "duration": 0.1086956249999993
        },
        {
          "name": "B1",
          "midi": 35,
          "time": 28.913036249999926,
          "velocity": 0.7480314960629921,
          "duration": 0.1086956249999993
        },
        {
          "name": "A#2",
          "midi": 46,
          "time": 29.130427499999925,
          "velocity": 0.7480314960629921,
          "duration": 0.1086956249999993
        },
        {
          "name": "D2",
          "midi": 38,
          "time": 29.130427499999925,
          "velocity": 0.7480314960629921,
          "duration": 0.1086956249999993
        },
        {
          "name": "A#2",
          "midi": 46,
          "time": 29.239123124999924,
          "velocity": 0.7480314960629921,
          "duration": 0.1086956249999993
        },
        {
          "name": "A#2",
          "midi": 46,
          "time": 29.347818749999924,
          "velocity": 0.7480314960629921,
          "duration": 0.2173912499999986
        },
        {
          "name": "A#2",
          "midi": 46,
          "time": 29.565209999999922,
          "velocity": 0.7480314960629921,
          "duration": 0.2173912499999986
        },
        {
          "name": "B1",
          "midi": 35,
          "time": 29.565209999999922,
          "velocity": 0.7480314960629921,
          "duration": 0.2173912499999986
        },
        {
          "name": "A#2",
          "midi": 46,
          "time": 29.78260124999992,
          "velocity": 0.7480314960629921,
          "duration": 0.2173912499999986
        },
        {
          "name": "A#2",
          "midi": 46,
          "time": 29.99999249999992,
          "velocity": 0.7480314960629921,
          "duration": 0.2173912499999986
        },
        {
          "name": "D2",
          "midi": 38,
          "time": 29.99999249999992,
          "velocity": 0.7480314960629921,
          "duration": 0.2173912499999986
        },
        {
          "name": "A#2",
          "midi": 46,
          "time": 30.217383749999918,
          "velocity": 0.7480314960629921,
          "duration": 0.2173912499999986
        },
        {
          "name": "A#2",
          "midi": 46,
          "time": 30.434774999999917,
          "velocity": 0.7480314960629921,
          "duration": 0.2173912499999986
        },
        {
          "name": "B1",
          "midi": 35,
          "time": 30.434774999999917,
          "velocity": 0.7480314960629921,
          "duration": 0.2173912499999986
        },
        {
          "name": "A#2",
          "midi": 46,
          "time": 30.652166249999915,
          "velocity": 0.7480314960629921,
          "duration": 0.2173912499999986
        },
        {
          "name": "A#2",
          "midi": 46,
          "time": 30.869557499999914,
          "velocity": 0.7480314960629921,
          "duration": 0.2173912499999986
        },
        {
          "name": "D2",
          "midi": 38,
          "time": 30.869557499999914,
          "velocity": 0.7480314960629921,
          "duration": 0.2173912499999986
        },
        {
          "name": "A#2",
          "midi": 46,
          "time": 31.086948749999912,
          "velocity": 0.7480314960629921,
          "duration": 0.2173912499999986
        },
        {
          "name": "C#3",
          "midi": 49,
          "time": 31.30433999999991,
          "velocity": 0.7480314960629921,
          "duration": 0.2173912499999986
        },
        {
          "name": "B1",
          "midi": 35,
          "time": 31.30433999999991,
          "velocity": 0.7480314960629921,
          "duration": 0.2173912499999986
        },
        {
          "name": "A#2",
          "midi": 46,
          "time": 31.52173124999991,
          "velocity": 0.7480314960629921,
          "duration": 0.2173912499999986
        },
        {
          "name": "A#2",
          "midi": 46,
          "time": 31.739122499999908,
          "velocity": 0.7480314960629921,
          "duration": 0.2173912499999986
        },
        {
          "name": "D2",
          "midi": 38,
          "time": 31.739122499999908,
          "velocity": 0.7480314960629921,
          "duration": 0.2173912499999986
        },
        {
          "name": "A#2",
          "midi": 46,
          "time": 31.956513749999907,
          "velocity": 0.7480314960629921,
          "duration": 0.10869562500000285
        },
        {
          "name": "B1",
          "midi": 35,
          "time": 31.956513749999907,
          "velocity": 0.7480314960629921,
          "duration": 0.10869562500000285
        },
        {
          "name": "D2",
          "midi": 38,
          "time": 32.06520937499991,
          "velocity": 0.7480314960629921,
          "duration": 0.10869562500000285
        },
        {
          "name": "A#2",
          "midi": 46,
          "time": 32.17390499999991,
          "velocity": 0.7480314960629921,
          "duration": 0.10869562500000285
        },
        {
          "name": "D2",
          "midi": 38,
          "time": 32.17390499999991,
          "velocity": 0.7480314960629921,
          "duration": 0.10869562500000285
        },
        {
          "name": "A#2",
          "midi": 46,
          "time": 32.39129624999992,
          "velocity": 0.7480314960629921,
          "duration": 0.10869562500000285
        },
        {
          "name": "B1",
          "midi": 35,
          "time": 32.39129624999992,
          "velocity": 0.7480314960629921,
          "duration": 0.10869562500000285
        },
        {
          "name": "A#2",
          "midi": 46,
          "time": 32.608687499999924,
          "velocity": 0.7480314960629921,
          "duration": 0.10869562500000285
        },
        {
          "name": "D2",
          "midi": 38,
          "time": 32.608687499999924,
          "velocity": 0.7480314960629921,
          "duration": 0.10869562500000285
        },
        {
          "name": "A#2",
          "midi": 46,
          "time": 32.71738312499993,
          "velocity": 0.7480314960629921,
          "duration": 0.10869562500000285
        },
        {
          "name": "A#2",
          "midi": 46,
          "time": 32.82607874999993,
          "velocity": 0.7480314960629921,
          "duration": 0.2173912499999986
        },
        {
          "name": "A#2",
          "midi": 46,
          "time": 33.04346999999993,
          "velocity": 0.7480314960629921,
          "duration": 0.2173912499999986
        },
        {
          "name": "B1",
          "midi": 35,
          "time": 33.04346999999993,
          "velocity": 0.7480314960629921,
          "duration": 0.2173912499999986
        },
        {
          "name": "A#2",
          "midi": 46,
          "time": 33.26086124999993,
          "velocity": 0.7480314960629921,
          "duration": 0.2173912499999986
        },
        {
          "name": "A#2",
          "midi": 46,
          "time": 33.478252499999925,
          "velocity": 0.7480314960629921,
          "duration": 0.2173912499999986
        },
        {
          "name": "D2",
          "midi": 38,
          "time": 33.478252499999925,
          "velocity": 0.7480314960629921,
          "duration": 0.2173912499999986
        },
        {
          "name": "A#2",
          "midi": 46,
          "time": 33.695643749999924,
          "velocity": 0.7480314960629921,
          "duration": 0.2173912499999986
        },
        {
          "name": "A#2",
          "midi": 46,
          "time": 33.91303499999992,
          "velocity": 0.7480314960629921,
          "duration": 0.2173912499999986
        },
        {
          "name": "D2",
          "midi": 38,
          "time": 33.91303499999992,
          "velocity": 0.7480314960629921,
          "duration": 0.2173912499999986
        },
        {
          "name": "D2",
          "midi": 38,
          "time": 34.13042624999992,
          "velocity": 0.7480314960629921,
          "duration": 0.10869562500000285
        },
        {
          "name": "D2",
          "midi": 38,
          "time": 34.239121874999924,
          "velocity": 0.7480314960629921,
          "duration": 0.10869562500000285
        },
        {
          "name": "D2",
          "midi": 38,
          "time": 34.34781749999993,
          "velocity": 0.7480314960629921,
          "duration": 0.10869562500000285
        },
        {
          "name": "D2",
          "midi": 38,
          "time": 34.45651312499993,
          "velocity": 0.7480314960629921,
          "duration": 0.10869562500000285
        },
        {
          "name": "D2",
          "midi": 38,
          "time": 34.56520874999993,
          "velocity": 0.7480314960629921,
          "duration": 0.10869562500000285
        },
        {
          "name": "D2",
          "midi": 38,
          "time": 34.673904374999935,
          "velocity": 0.7480314960629921,
          "duration": 0.10869562500000285
        },
        {
          "name": "D2",
          "midi": 38,
          "time": 34.78259999999994,
          "velocity": 0.7480314960629921,
          "duration": 0.10869562500000285
        },
        {
          "name": "D2",
          "midi": 38,
          "time": 34.78259999999994,
          "velocity": 0.7480314960629921,
          "duration": 0.10869562500000285
        },
        {
          "name": "A2",
          "midi": 45,
          "time": 34.89129562499994,
          "velocity": 0.7480314960629921,
          "duration": 0.10869562500000285
        },
        {
          "name": "A2",
          "midi": 45,
          "time": 34.89129562499994,
          "velocity": 0.7480314960629921,
          "duration": 0.10869562500000285
        },
        {
          "name": "B2",
          "midi": 47,
          "time": 34.999991249999944,
          "velocity": 0.7480314960629921,
          "duration": 0.10869562500000285
        },
        {
          "name": "B2",
          "midi": 47,
          "time": 34.999991249999944,
          "velocity": 0.7480314960629921,
          "duration": 0.10869562500000285
        },
        {
          "name": "D2",
          "midi": 38,
          "time": 35.10868687499995,
          "velocity": 0.7480314960629921,
          "duration": 0.10869562500000285
        },
        {
          "name": "D2",
          "midi": 38,
          "time": 35.10868687499995,
          "velocity": 0.7480314960629921,
          "duration": 0.10869562500000285
        },
        {
          "name": "C#3",
          "midi": 49,
          "time": 35.21738249999995,
          "velocity": 0.7480314960629921,
          "duration": 0.4347824999999972
        },
        {
          "name": "D2",
          "midi": 38,
          "time": 35.21738249999995,
          "velocity": 0.7480314960629921,
          "duration": 0.4347824999999972
        },
        {
          "name": "A#2",
          "midi": 46,
          "time": 35.65216499999995,
          "velocity": 0.7480314960629921,
          "duration": 0.2173912499999986
        },
        {
          "name": "B1",
          "midi": 35,
          "time": 35.65216499999995,
          "velocity": 0.7480314960629921,
          "duration": 0.2173912499999986
        },
        {
          "name": "A#2",
          "midi": 46,
          "time": 35.869556249999945,
          "velocity": 0.7480314960629921,
          "duration": 0.2173912499999986
        },
        {
          "name": "A#2",
          "midi": 46,
          "time": 36.086947499999944,
          "velocity": 0.7480314960629921,
          "duration": 0.2173912499999986
        },
        {
          "name": "D2",
          "midi": 38,
          "time": 36.086947499999944,
          "velocity": 0.7480314960629921,
          "duration": 0.2173912499999986
        },
        {
          "name": "A#2",
          "midi": 46,
          "time": 36.30433874999994,
          "velocity": 0.7480314960629921,
          "duration": 0.2173912499999986
        },
        {
          "name": "A#2",
          "midi": 46,
          "time": 36.52172999999994,
          "velocity": 0.7480314960629921,
          "duration": 0.2173912499999986
        },
        {
          "name": "B1",
          "midi": 35,
          "time": 36.52172999999994,
          "velocity": 0.7480314960629921,
          "duration": 0.2173912499999986
        },
        {
          "name": "A#2",
          "midi": 46,
          "time": 36.73912124999994,
          "velocity": 0.7480314960629921,
          "duration": 0.2173912499999986
        },
        {
          "name": "B1",
          "midi": 35,
          "time": 36.73912124999994,
          "velocity": 0.7480314960629921,
          "duration": 0.2173912499999986
        },
        {
          "name": "A#2",
          "midi": 46,
          "time": 36.95651249999994,
          "velocity": 0.7480314960629921,
          "duration": 0.2173912499999986
        },
        {
          "name": "D2",
          "midi": 38,
          "time": 36.95651249999994,
          "velocity": 0.7480314960629921,
          "duration": 0.2173912499999986
        },
        {
          "name": "A#2",
          "midi": 46,
          "time": 37.17390374999994,
          "velocity": 0.7480314960629921,
          "duration": 0.2173912499999986
        },
        {
          "name": "A#2",
          "midi": 46,
          "time": 37.391294999999936,
          "velocity": 0.7480314960629921,
          "duration": 0.2173912499999986
        },
        {
          "name": "B1",
          "midi": 35,
          "time": 37.391294999999936,
          "velocity": 0.7480314960629921,
          "duration": 0.2173912499999986
        },
        {
          "name": "A#2",
          "midi": 46,
          "time": 37.608686249999934,
          "velocity": 0.7480314960629921,
          "duration": 0.2173912499999986
        },
        {
          "name": "A#2",
          "midi": 46,
          "time": 37.82607749999993,
          "velocity": 0.7480314960629921,
          "duration": 0.2173912499999986
        },
        {
          "name": "D2",
          "midi": 38,
          "time": 37.82607749999993,
          "velocity": 0.7480314960629921,
          "duration": 0.2173912499999986
        },
        {
          "name": "A#2",
          "midi": 46,
          "time": 38.04346874999993,
          "velocity": 0.7480314960629921,
          "duration": 0.2173912499999986
        },
        {
          "name": "D2",
          "midi": 38,
          "time": 38.26085999999993,
          "velocity": 0.7480314960629921,
          "duration": 0.10869562500000285
        },
        {
          "name": "D2",
          "midi": 38,
          "time": 38.26085999999993,
          "velocity": 0.7480314960629921,
          "duration": 0.10869562500000285
        },
        {
          "name": "A2",
          "midi": 45,
          "time": 38.36955562499993,
          "velocity": 0.7480314960629921,
          "duration": 0.10869562500000285
        },
        {
          "name": "A2",
          "midi": 45,
          "time": 38.36955562499993,
          "velocity": 0.7480314960629921,
          "duration": 0.10869562500000285
        },
        {
          "name": "B2",
          "midi": 47,
          "time": 38.478251249999936,
          "velocity": 0.7480314960629921,
          "duration": 0.10869562500000285
        },
        {
          "name": "B2",
          "midi": 47,
          "time": 38.478251249999936,
          "velocity": 0.7480314960629921,
          "duration": 0.10869562500000285
        },
        {
          "name": "D2",
          "midi": 38,
          "time": 38.58694687499994,
          "velocity": 0.7480314960629921,
          "duration": 0.10869562500000285
        },
        {
          "name": "D2",
          "midi": 38,
          "time": 38.58694687499994,
          "velocity": 0.7480314960629921,
          "duration": 0.10869562500000285
        },
        {
          "name": "C#3",
          "midi": 49,
          "time": 38.69564249999994,
          "velocity": 0.7480314960629921,
          "duration": 0.4347824999999972
        },
        {
          "name": "D2",
          "midi": 38,
          "time": 38.69564249999994,
          "velocity": 0.7480314960629921,
          "duration": 0.4347824999999972
        },
        {
          "name": "A#2",
          "midi": 46,
          "time": 39.13042499999994,
          "velocity": 0.7480314960629921,
          "duration": 0.2173912499999986
        },
        {
          "name": "B1",
          "midi": 35,
          "time": 39.13042499999994,
          "velocity": 0.7480314960629921,
          "duration": 0.2173912499999986
        },
        {
          "name": "A#2",
          "midi": 46,
          "time": 39.34781624999994,
          "velocity": 0.7480314960629921,
          "duration": 0.2173912499999986
        },
        {
          "name": "A#2",
          "midi": 46,
          "time": 39.565207499999936,
          "velocity": 0.7480314960629921,
          "duration": 0.2173912499999986
        },
        {
          "name": "D2",
          "midi": 38,
          "time": 39.565207499999936,
          "velocity": 0.7480314960629921,
          "duration": 0.2173912499999986
        },
        {
          "name": "A#2",
          "midi": 46,
          "time": 39.782598749999934,
          "velocity": 0.7480314960629921,
          "duration": 0.2173912499999986
        },
        {
          "name": "A#2",
          "midi": 46,
          "time": 39.99998999999993,
          "velocity": 0.7480314960629921,
          "duration": 0.2173912499999986
        },
        {
          "name": "B1",
          "midi": 35,
          "time": 39.99998999999993,
          "velocity": 0.7480314960629921,
          "duration": 0.2173912499999986
        },
        {
          "name": "A#2",
          "midi": 46,
          "time": 40.21738124999993,
          "velocity": 0.7480314960629921,
          "duration": 0.2173912499999986
        },
        {
          "name": "B1",
          "midi": 35,
          "time": 40.21738124999993,
          "velocity": 0.7480314960629921,
          "duration": 0.2173912499999986
        },
        {
          "name": "A#2",
          "midi": 46,
          "time": 40.43477249999993,
          "velocity": 0.7480314960629921,
          "duration": 0.2173912499999986
        },
        {
          "name": "D2",
          "midi": 38,
          "time": 40.43477249999993,
          "velocity": 0.7480314960629921,
          "duration": 0.2173912499999986
        },
        {
          "name": "A#2",
          "midi": 46,
          "time": 40.65216374999993,
          "velocity": 0.7480314960629921,
          "duration": 0.2173912499999986
        },
        {
          "name": "A#2",
          "midi": 46,
          "time": 40.86955499999993,
          "velocity": 0.7480314960629921,
          "duration": 0.2173912499999986
        },
        {
          "name": "B1",
          "midi": 35,
          "time": 40.86955499999993,
          "velocity": 0.7480314960629921,
          "duration": 0.2173912499999986
        },
        {
          "name": "A#2",
          "midi": 46,
          "time": 41.086946249999926,
          "velocity": 0.7480314960629921,
          "duration": 0.2173912499999986
        },
        {
          "name": "A#2",
          "midi": 46,
          "time": 41.304337499999924,
          "velocity": 0.7480314960629921,
          "duration": 0.2173912499999986
        },
        {
          "name": "D2",
          "midi": 38,
          "time": 41.304337499999924,
          "velocity": 0.7480314960629921,
          "duration": 0.2173912499999986
        },
        {
          "name": "A#2",
          "midi": 46,
          "time": 41.52172874999992,
          "velocity": 0.7480314960629921,
          "duration": 0.2173912499999986
        },
        {
          "name": "D2",
          "midi": 38,
          "time": 41.73911999999992,
          "velocity": 0.7480314960629921,
          "duration": 0.10869562500000285
        },
        {
          "name": "D2",
          "midi": 38,
          "time": 41.73911999999992,
          "velocity": 0.7480314960629921,
          "duration": 0.10869562500000285
        },
        {
          "name": "A2",
          "midi": 45,
          "time": 41.847815624999924,
          "velocity": 0.7480314960629921,
          "duration": 0.10869562500000285
        },
        {
          "name": "A2",
          "midi": 45,
          "time": 41.847815624999924,
          "velocity": 0.7480314960629921,
          "duration": 0.10869562500000285
        },
        {
          "name": "B2",
          "midi": 47,
          "time": 41.95651124999993,
          "velocity": 0.7480314960629921,
          "duration": 0.10869562500000285
        },
        {
          "name": "B2",
          "midi": 47,
          "time": 41.95651124999993,
          "velocity": 0.7480314960629921,
          "duration": 0.10869562500000285
        },
        {
          "name": "D2",
          "midi": 38,
          "time": 42.06520687499993,
          "velocity": 0.7480314960629921,
          "duration": 0.10869562500000285
        },
        {
          "name": "D2",
          "midi": 38,
          "time": 42.06520687499993,
          "velocity": 0.7480314960629921,
          "duration": 0.10869562500000285
        },
        {
          "name": "C#3",
          "midi": 49,
          "time": 42.17390249999993,
          "velocity": 0.7480314960629921,
          "duration": 0.4347824999999972
        },
        {
          "name": "D2",
          "midi": 38,
          "time": 42.17390249999993,
          "velocity": 0.7480314960629921,
          "duration": 0.4347824999999972
        },
        {
          "name": "A#2",
          "midi": 46,
          "time": 42.60868499999993,
          "velocity": 0.7480314960629921,
          "duration": 0.2173912499999986
        },
        {
          "name": "B1",
          "midi": 35,
          "time": 42.60868499999993,
          "velocity": 0.7480314960629921,
          "duration": 0.2173912499999986
        },
        {
          "name": "A#2",
          "midi": 46,
          "time": 42.82607624999993,
          "velocity": 0.7480314960629921,
          "duration": 0.2173912499999986
        },
        {
          "name": "A#2",
          "midi": 46,
          "time": 43.04346749999993,
          "velocity": 0.7480314960629921,
          "duration": 0.2173912499999986
        },
        {
          "name": "D2",
          "midi": 38,
          "time": 43.04346749999993,
          "velocity": 0.7480314960629921,
          "duration": 0.2173912499999986
        },
        {
          "name": "A#2",
          "midi": 46,
          "time": 43.260858749999926,
          "velocity": 0.7480314960629921,
          "duration": 0.2173912499999986
        },
        {
          "name": "A#2",
          "midi": 46,
          "time": 43.478249999999925,
          "velocity": 0.7480314960629921,
          "duration": 0.2173912499999986
        },
        {
          "name": "B1",
          "midi": 35,
          "time": 43.478249999999925,
          "velocity": 0.7480314960629921,
          "duration": 0.2173912499999986
        },
        {
          "name": "A#2",
          "midi": 46,
          "time": 43.69564124999992,
          "velocity": 0.7480314960629921,
          "duration": 0.2173912499999986
        },
        {
          "name": "B1",
          "midi": 35,
          "time": 43.69564124999992,
          "velocity": 0.7480314960629921,
          "duration": 0.2173912499999986
        },
        {
          "name": "A#2",
          "midi": 46,
          "time": 43.91303249999992,
          "velocity": 0.7480314960629921,
          "duration": 0.2173912499999986
        },
        {
          "name": "D2",
          "midi": 38,
          "time": 43.91303249999992,
          "velocity": 0.7480314960629921,
          "duration": 0.2173912499999986
        },
        {
          "name": "A#2",
          "midi": 46,
          "time": 44.13042374999992,
          "velocity": 0.7480314960629921,
          "duration": 0.2173912499999986
        },
        {
          "name": "A#2",
          "midi": 46,
          "time": 44.34781499999992,
          "velocity": 0.7480314960629921,
          "duration": 0.2173912499999986
        },
        {
          "name": "B1",
          "midi": 35,
          "time": 44.34781499999992,
          "velocity": 0.7480314960629921,
          "duration": 0.2173912499999986
        },
        {
          "name": "A#2",
          "midi": 46,
          "time": 44.56520624999992,
          "velocity": 0.7480314960629921,
          "duration": 0.2173912499999986
        },
        {
          "name": "A#2",
          "midi": 46,
          "time": 44.782597499999916,
          "velocity": 0.7480314960629921,
          "duration": 0.2173912499999986
        },
        {
          "name": "D2",
          "midi": 38,
          "time": 44.782597499999916,
          "velocity": 0.7480314960629921,
          "duration": 0.2173912499999986
        },
        {
          "name": "A#2",
          "midi": 46,
          "time": 44.999988749999915,
          "velocity": 0.7480314960629921,
          "duration": 0.2173912499999986
        },
        {
          "name": "D2",
          "midi": 38,
          "time": 45.21737999999991,
          "velocity": 0.7480314960629921,
          "duration": 0.10869562500000285
        },
        {
          "name": "D2",
          "midi": 38,
          "time": 45.21737999999991,
          "velocity": 0.7480314960629921,
          "duration": 0.10869562500000285
        },
        {
          "name": "A2",
          "midi": 45,
          "time": 45.326075624999916,
          "velocity": 0.7480314960629921,
          "duration": 0.10869562500000285
        },
        {
          "name": "A2",
          "midi": 45,
          "time": 45.326075624999916,
          "velocity": 0.7480314960629921,
          "duration": 0.10869562500000285
        },
        {
          "name": "B2",
          "midi": 47,
          "time": 45.43477124999992,
          "velocity": 0.7480314960629921,
          "duration": 0.10869562500000285
        },
        {
          "name": "B2",
          "midi": 47,
          "time": 45.43477124999992,
          "velocity": 0.7480314960629921,
          "duration": 0.10869562500000285
        },
        {
          "name": "D2",
          "midi": 38,
          "time": 45.54346687499992,
          "velocity": 0.7480314960629921,
          "duration": 0.10869562500000285
        },
        {
          "name": "D2",
          "midi": 38,
          "time": 45.54346687499992,
          "velocity": 0.7480314960629921,
          "duration": 0.10869562500000285
        },
        {
          "name": "C#3",
          "midi": 49,
          "time": 45.652162499999925,
          "velocity": 0.7480314960629921,
          "duration": 0.4347824999999972
        },
        {
          "name": "D2",
          "midi": 38,
          "time": 45.652162499999925,
          "velocity": 0.7480314960629921,
          "duration": 0.4347824999999972
        },
        {
          "name": "A#2",
          "midi": 46,
          "time": 46.08694499999992,
          "velocity": 0.7480314960629921,
          "duration": 0.2173912499999986
        },
        {
          "name": "B1",
          "midi": 35,
          "time": 46.08694499999992,
          "velocity": 0.7480314960629921,
          "duration": 0.2173912499999986
        },
        {
          "name": "A#2",
          "midi": 46,
          "time": 46.30433624999992,
          "velocity": 0.7480314960629921,
          "duration": 0.2173912499999986
        },
        {
          "name": "A#2",
          "midi": 46,
          "time": 46.52172749999992,
          "velocity": 0.7480314960629921,
          "duration": 0.2173912499999986
        },
        {
          "name": "D2",
          "midi": 38,
          "time": 46.52172749999992,
          "velocity": 0.7480314960629921,
          "duration": 0.2173912499999986
        },
        {
          "name": "A#2",
          "midi": 46,
          "time": 46.73911874999992,
          "velocity": 0.7480314960629921,
          "duration": 0.2173912499999986
        },
        {
          "name": "A#2",
          "midi": 46,
          "time": 46.956509999999916,
          "velocity": 0.7480314960629921,
          "duration": 0.2173912499999986
        },
        {
          "name": "B1",
          "midi": 35,
          "time": 46.956509999999916,
          "velocity": 0.7480314960629921,
          "duration": 0.2173912499999986
        },
        {
          "name": "A#2",
          "midi": 46,
          "time": 47.173901249999915,
          "velocity": 0.7480314960629921,
          "duration": 0.2173912499999986
        },
        {
          "name": "B1",
          "midi": 35,
          "time": 47.173901249999915,
          "velocity": 0.7480314960629921,
          "duration": 0.2173912499999986
        },
        {
          "name": "A#2",
          "midi": 46,
          "time": 47.39129249999991,
          "velocity": 0.7480314960629921,
          "duration": 0.2173912499999986
        },
        {
          "name": "D2",
          "midi": 38,
          "time": 47.39129249999991,
          "velocity": 0.7480314960629921,
          "duration": 0.2173912499999986
        },
        {
          "name": "A#2",
          "midi": 46,
          "time": 47.60868374999991,
          "velocity": 0.7480314960629921,
          "duration": 0.2173912499999986
        },
        {
          "name": "A#2",
          "midi": 46,
          "time": 47.82607499999991,
          "velocity": 0.7480314960629921,
          "duration": 0.2173912499999986
        },
        {
          "name": "B1",
          "midi": 35,
          "time": 47.82607499999991,
          "velocity": 0.7480314960629921,
          "duration": 0.2173912499999986
        },
        {
          "name": "A#2",
          "midi": 46,
          "time": 48.04346624999991,
          "velocity": 0.7480314960629921,
          "duration": 0.2173912499999986
        },
        {
          "name": "A#2",
          "midi": 46,
          "time": 48.26085749999991,
          "velocity": 0.7480314960629921,
          "duration": 0.2173912499999986
        },
        {
          "name": "D2",
          "midi": 38,
          "time": 48.26085749999991,
          "velocity": 0.7480314960629921,
          "duration": 0.2173912499999986
        },
        {
          "name": "A#2",
          "midi": 46,
          "time": 48.478248749999906,
          "velocity": 0.7480314960629921,
          "duration": 0.2173912499999986
        },
        {
          "name": "D2",
          "midi": 38,
          "time": 48.695639999999905,
          "velocity": 0.7480314960629921,
          "duration": 0.2173912499999986
        },
        {
          "name": "D2",
          "midi": 38,
          "time": 48.913031249999904,
          "velocity": 0.7480314960629921,
          "duration": 0.2173912499999986
        },
        {
          "name": "D2",
          "midi": 38,
          "time": 49.1304224999999,
          "velocity": 0.7480314960629921,
          "duration": 0.2173912499999986
        },
        {
          "name": "D2",
          "midi": 38,
          "time": 49.3478137499999,
          "velocity": 0.7480314960629921,
          "duration": 0.2173912499999986
        },
        {
          "name": "D2",
          "midi": 38,
          "time": 49.5652049999999,
          "velocity": 0.7480314960629921,
          "duration": 0.2173912499999986
        },
        {
          "name": "D2",
          "midi": 38,
          "time": 49.7825962499999,
          "velocity": 0.7480314960629921,
          "duration": 0.2173912499999986
        },
        {
          "name": "D2",
          "midi": 38,
          "time": 49.9999874999999,
          "velocity": 0.7480314960629921,
          "duration": 0.2173912499999986
        },
        {
          "name": "D2",
          "midi": 38,
          "time": 50.217378749999895,
          "velocity": 0.7480314960629921,
          "duration": 0.2173912499999986
        },
        {
          "name": "D2",
          "midi": 38,
          "time": 50.434769999999894,
          "velocity": 0.7480314960629921,
          "duration": 0.2173912499999986
        },
        {
          "name": "D2",
          "midi": 38,
          "time": 50.65216124999989,
          "velocity": 0.7480314960629921,
          "duration": 0.2173912499999986
        },
        {
          "name": "D2",
          "midi": 38,
          "time": 50.86955249999989,
          "velocity": 0.7480314960629921,
          "duration": 0.2173912499999986
        },
        {
          "name": "D2",
          "midi": 38,
          "time": 51.08694374999989,
          "velocity": 0.7480314960629921,
          "duration": 0.2173912499999986
        },
        {
          "name": "D2",
          "midi": 38,
          "time": 51.30433499999989,
          "velocity": 0.7480314960629921,
          "duration": 0.2173912499999986
        },
        {
          "name": "D2",
          "midi": 38,
          "time": 51.52172624999989,
          "velocity": 0.7480314960629921,
          "duration": 0.2173912499999986
        },
        {
          "name": "D2",
          "midi": 38,
          "time": 51.739117499999885,
          "velocity": 0.7480314960629921,
          "duration": 0.2173912499999986
        },
        {
          "name": "D2",
          "midi": 38,
          "time": 51.956508749999884,
          "velocity": 0.7480314960629921,
          "duration": 0.2173912499999986
        },
        {
          "name": "A#2",
          "midi": 46,
          "time": 52.17389999999988,
          "velocity": 0.7480314960629921,
          "duration": 0.2173912499999986
        },
        {
          "name": "B1",
          "midi": 35,
          "time": 52.17389999999988,
          "velocity": 0.7480314960629921,
          "duration": 0.2173912499999986
        },
        {
          "name": "A#2",
          "midi": 46,
          "time": 52.39129124999988,
          "velocity": 0.7480314960629921,
          "duration": 0.2173912499999986
        },
        {
          "name": "A#2",
          "midi": 46,
          "time": 52.60868249999988,
          "velocity": 0.7480314960629921,
          "duration": 0.2173912499999986
        },
        {
          "name": "D2",
          "midi": 38,
          "time": 52.60868249999988,
          "velocity": 0.7480314960629921,
          "duration": 0.2173912499999986
        },
        {
          "name": "A#2",
          "midi": 46,
          "time": 52.82607374999988,
          "velocity": 0.7480314960629921,
          "duration": 0.2173912499999986
        },
        {
          "name": "A#2",
          "midi": 46,
          "time": 53.04346499999988,
          "velocity": 0.7480314960629921,
          "duration": 0.2173912499999986
        },
        {
          "name": "B1",
          "midi": 35,
          "time": 53.04346499999988,
          "velocity": 0.7480314960629921,
          "duration": 0.2173912499999986
        },
        {
          "name": "A#2",
          "midi": 46,
          "time": 53.260856249999875,
          "velocity": 0.7480314960629921,
          "duration": 0.2173912499999986
        },
        {
          "name": "B1",
          "midi": 35,
          "time": 53.260856249999875,
          "velocity": 0.7480314960629921,
          "duration": 0.2173912499999986
        },
        {
          "name": "A#2",
          "midi": 46,
          "time": 53.478247499999874,
          "velocity": 0.7480314960629921,
          "duration": 0.2173912499999986
        },
        {
          "name": "D2",
          "midi": 38,
          "time": 53.478247499999874,
          "velocity": 0.7480314960629921,
          "duration": 0.2173912499999986
        },
        {
          "name": "A#2",
          "midi": 46,
          "time": 53.69563874999987,
          "velocity": 0.7480314960629921,
          "duration": 0.2173912499999986
        },
        {
          "name": "A#2",
          "midi": 46,
          "time": 53.91302999999987,
          "velocity": 0.7480314960629921,
          "duration": 0.2173912499999986
        },
        {
          "name": "B1",
          "midi": 35,
          "time": 53.91302999999987,
          "velocity": 0.7480314960629921,
          "duration": 0.2173912499999986
        },
        {
          "name": "A#2",
          "midi": 46,
          "time": 54.13042124999987,
          "velocity": 0.7480314960629921,
          "duration": 0.2173912499999986
        },
        {
          "name": "A#2",
          "midi": 46,
          "time": 54.34781249999987,
          "velocity": 0.7480314960629921,
          "duration": 0.2173912499999986
        },
        {
          "name": "D2",
          "midi": 38,
          "time": 54.34781249999987,
          "velocity": 0.7480314960629921,
          "duration": 0.2173912499999986
        },
        {
          "name": "A#2",
          "midi": 46,
          "time": 54.56520374999987,
          "velocity": 0.7480314960629921,
          "duration": 0.2173912499999986
        },
        {
          "name": "A#2",
          "midi": 46,
          "time": 54.782594999999866,
          "velocity": 0.7480314960629921,
          "duration": 0.2173912499999986
        },
        {
          "name": "B1",
          "midi": 35,
          "time": 54.782594999999866,
          "velocity": 0.7480314960629921,
          "duration": 0.2173912499999986
        },
        {
          "name": "A#2",
          "midi": 46,
          "time": 54.999986249999864,
          "velocity": 0.7480314960629921,
          "duration": 0.2173912499999986
        },
        {
          "name": "A#2",
          "midi": 46,
          "time": 55.21737749999986,
          "velocity": 0.7480314960629921,
          "duration": 0.2173912499999986
        },
        {
          "name": "D2",
          "midi": 38,
          "time": 55.21737749999986,
          "velocity": 0.7480314960629921,
          "duration": 0.2173912499999986
        },
        {
          "name": "A#2",
          "midi": 46,
          "time": 55.43476874999986,
          "velocity": 0.7480314960629921,
          "duration": 0.2173912499999986
        },
        {
          "name": "A#2",
          "midi": 46,
          "time": 55.65215999999986,
          "velocity": 0.7480314960629921,
          "duration": 0.2173912499999986
        },
        {
          "name": "B1",
          "midi": 35,
          "time": 55.65215999999986,
          "velocity": 0.7480314960629921,
          "duration": 0.2173912499999986
        },
        {
          "name": "A#2",
          "midi": 46,
          "time": 55.86955124999986,
          "velocity": 0.7480314960629921,
          "duration": 0.2173912499999986
        },
        {
          "name": "A#2",
          "midi": 46,
          "time": 56.08694249999986,
          "velocity": 0.7480314960629921,
          "duration": 0.2173912499999986
        },
        {
          "name": "D2",
          "midi": 38,
          "time": 56.08694249999986,
          "velocity": 0.7480314960629921,
          "duration": 0.2173912499999986
        },
        {
          "name": "A#2",
          "midi": 46,
          "time": 56.304333749999856,
          "velocity": 0.7480314960629921,
          "duration": 0.10869562500000285
        },
        {
          "name": "A#2",
          "midi": 46,
          "time": 56.41302937499986,
          "velocity": 0.7480314960629921,
          "duration": 0.10869562500000285
        },
        {
          "name": "D2",
          "midi": 38,
          "time": 56.41302937499986,
          "velocity": 0.7480314960629921,
          "duration": 0.10869562500000285
        },
        {
          "name": "A#2",
          "midi": 46,
          "time": 56.52172499999986,
          "velocity": 0.7480314960629921,
          "duration": 0.10869562500000285
        },
        {
          "name": "A#2",
          "midi": 46,
          "time": 56.630420624999864,
          "velocity": 0.7480314960629921,
          "duration": 0.10869562500000285
        },
        {
          "name": "D2",
          "midi": 38,
          "time": 56.630420624999864,
          "velocity": 0.7480314960629921,
          "duration": 0.10869562500000285
        },
        {
          "name": "A#2",
          "midi": 46,
          "time": 56.73911624999987,
          "velocity": 0.7480314960629921,
          "duration": 0.2173912499999986
        },
        {
          "name": "B1",
          "midi": 35,
          "time": 56.73911624999987,
          "velocity": 0.7480314960629921,
          "duration": 0.2173912499999986
        },
        {
          "name": "A#2",
          "midi": 46,
          "time": 56.956507499999866,
          "velocity": 0.7480314960629921,
          "duration": 0.2173912499999986
        },
        {
          "name": "D2",
          "midi": 38,
          "time": 56.956507499999866,
          "velocity": 0.7480314960629921,
          "duration": 0.2173912499999986
        },
        {
          "name": "A#2",
          "midi": 46,
          "time": 57.173898749999864,
          "velocity": 0.7480314960629921,
          "duration": 0.2173912499999986
        },
        {
          "name": "A#2",
          "midi": 46,
          "time": 57.39128999999986,
          "velocity": 0.7480314960629921,
          "duration": 0.2173912499999986
        },
        {
          "name": "D2",
          "midi": 38,
          "time": 57.39128999999986,
          "velocity": 0.7480314960629921,
          "duration": 0.2173912499999986
        },
        {
          "name": "A#2",
          "midi": 46,
          "time": 57.60868124999986,
          "velocity": 0.7480314960629921,
          "duration": 0.2173912499999986
        },
        {
          "name": "D2",
          "midi": 38,
          "time": 57.60868124999986,
          "velocity": 0.7480314960629921,
          "duration": 0.2173912499999986
        },
        {
          "name": "A#2",
          "midi": 46,
          "time": 57.82607249999986,
          "velocity": 0.7480314960629921,
          "duration": 0.2173912499999986
        },
        {
          "name": "D2",
          "midi": 38,
          "time": 57.82607249999986,
          "velocity": 0.7480314960629921,
          "duration": 0.2173912499999986
        },
        {
          "name": "D2",
          "midi": 38,
          "time": 58.04346374999986,
          "velocity": 0.7480314960629921,
          "duration": 0.2173912499999986
        },
        {
          "name": "D2",
          "midi": 38,
          "time": 58.26085499999986,
          "velocity": 0.7480314960629921,
          "duration": 0.10869562500000285
        },
        {
          "name": "D2",
          "midi": 38,
          "time": 58.36955062499986,
          "velocity": 0.7480314960629921,
          "duration": 0.10869562500000285
        },
        {
          "name": "D2",
          "midi": 38,
          "time": 58.47824624999986,
          "velocity": 0.7480314960629921,
          "duration": 0.10869562500000285
        },
        {
          "name": "D2",
          "midi": 38,
          "time": 58.586941874999866,
          "velocity": 0.7480314960629921,
          "duration": 0.10869562500000285
        },
        {
          "name": "D2",
          "midi": 38,
          "time": 58.69563749999987,
          "velocity": 0.7480314960629921,
          "duration": 0.10869562500000285
        },
        {
          "name": "D2",
          "midi": 38,
          "time": 58.80433312499987,
          "velocity": 0.7480314960629921,
          "duration": 0.10869562500000285
        },
        {
          "name": "D2",
          "midi": 38,
          "time": 58.913028749999874,
          "velocity": 0.7480314960629921,
          "duration": 0.10869562500000285
        },
        {
          "name": "D2",
          "midi": 38,
          "time": 59.02172437499988,
          "velocity": 0.7480314960629921,
          "duration": 0.10869562500000285
        },
        {
          "name": "C#3",
          "midi": 49,
          "time": 59.13041999999988,
          "velocity": 0.7480314960629921,
          "duration": 0.4347824999999972
        },
        {
          "name": "B1",
          "midi": 35,
          "time": 59.13041999999988,
          "velocity": 0.7480314960629921,
          "duration": 0.4347824999999972
        },
        {
          "name": "A#2",
          "midi": 46,
          "time": 59.56520249999988,
          "velocity": 0.7480314960629921,
          "duration": 0.2173912499999986
        },
        {
          "name": "D2",
          "midi": 38,
          "time": 59.56520249999988,
          "velocity": 0.7480314960629921,
          "duration": 0.2173912499999986
        },
        {
          "name": "A#2",
          "midi": 46,
          "time": 59.782593749999876,
          "velocity": 0.7480314960629921,
          "duration": 0.2173912499999986
        },
        {
          "name": "A#2",
          "midi": 46,
          "time": 59.999984999999874,
          "velocity": 0.7480314960629921,
          "duration": 0.2173912499999986
        },
        {
          "name": "B1",
          "midi": 35,
          "time": 59.999984999999874,
          "velocity": 0.7480314960629921,
          "duration": 0.2173912499999986
        },
        {
          "name": "A#2",
          "midi": 46,
          "time": 60.21737624999987,
          "velocity": 0.7480314960629921,
          "duration": 0.2173912499999986
        },
        {
          "name": "B1",
          "midi": 35,
          "time": 60.21737624999987,
          "velocity": 0.7480314960629921,
          "duration": 0.2173912499999986
        },
        {
          "name": "A#2",
          "midi": 46,
          "time": 60.43476749999987,
          "velocity": 0.7480314960629921,
          "duration": 0.2173912499999986
        },
        {
          "name": "D2",
          "midi": 38,
          "time": 60.43476749999987,
          "velocity": 0.7480314960629921,
          "duration": 0.2173912499999986
        },
        {
          "name": "A#2",
          "midi": 46,
          "time": 60.65215874999987,
          "velocity": 0.7480314960629921,
          "duration": 0.2173912499999986
        },
        {
          "name": "A#2",
          "midi": 46,
          "time": 60.86954999999987,
          "velocity": 0.7480314960629921,
          "duration": 0.2173912499999986
        },
        {
          "name": "B1",
          "midi": 35,
          "time": 60.86954999999987,
          "velocity": 0.7480314960629921,
          "duration": 0.2173912499999986
        },
        {
          "name": "A#2",
          "midi": 46,
          "time": 61.08694124999987,
          "velocity": 0.7480314960629921,
          "duration": 0.2173912499999986
        },
        {
          "name": "A#2",
          "midi": 46,
          "time": 61.304332499999866,
          "velocity": 0.7480314960629921,
          "duration": 0.2173912499999986
        },
        {
          "name": "D2",
          "midi": 38,
          "time": 61.304332499999866,
          "velocity": 0.7480314960629921,
          "duration": 0.2173912499999986
        },
        {
          "name": "A#2",
          "midi": 46,
          "time": 61.521723749999865,
          "velocity": 0.7480314960629921,
          "duration": 0.2173912499999986
        },
        {
          "name": "A#2",
          "midi": 46,
          "time": 61.73911499999986,
          "velocity": 0.7480314960629921,
          "duration": 0.2173912499999986
        },
        {
          "name": "B1",
          "midi": 35,
          "time": 61.73911499999986,
          "velocity": 0.7480314960629921,
          "duration": 0.2173912499999986
        },
        {
          "name": "A#2",
          "midi": 46,
          "time": 61.95650624999986,
          "velocity": 0.7480314960629921,
          "duration": 0.2173912499999986
        },
        {
          "name": "B1",
          "midi": 35,
          "time": 61.95650624999986,
          "velocity": 0.7480314960629921,
          "duration": 0.2173912499999986
        },
        {
          "name": "A#2",
          "midi": 46,
          "time": 62.17389749999986,
          "velocity": 0.7480314960629921,
          "duration": 0.2173912499999986
        },
        {
          "name": "D2",
          "midi": 38,
          "time": 62.17389749999986,
          "velocity": 0.7480314960629921,
          "duration": 0.2173912499999986
        },
        {
          "name": "A#2",
          "midi": 46,
          "time": 62.39128874999986,
          "velocity": 0.7480314960629921,
          "duration": 0.2173912499999986
        },
        {
          "name": "C#3",
          "midi": 49,
          "time": 62.60867999999986,
          "velocity": 0.7480314960629921,
          "duration": 0.4347824999999972
        },
        {
          "name": "B1",
          "midi": 35,
          "time": 62.60867999999986,
          "velocity": 0.7480314960629921,
          "duration": 0.4347824999999972
        },
        {
          "name": "A#2",
          "midi": 46,
          "time": 63.043462499999855,
          "velocity": 0.7480314960629921,
          "duration": 0.2173912499999986
        },
        {
          "name": "D2",
          "midi": 38,
          "time": 63.043462499999855,
          "velocity": 0.7480314960629921,
          "duration": 0.2173912499999986
        },
        {
          "name": "A#2",
          "midi": 46,
          "time": 63.26085374999985,
          "velocity": 0.7480314960629921,
          "duration": 0.2173912499999986
        },
        {
          "name": "A#2",
          "midi": 46,
          "time": 63.47824499999985,
          "velocity": 0.7480314960629921,
          "duration": 0.2173912499999986
        },
        {
          "name": "B1",
          "midi": 35,
          "time": 63.47824499999985,
          "velocity": 0.7480314960629921,
          "duration": 0.2173912499999986
        },
        {
          "name": "A#2",
          "midi": 46,
          "time": 63.69563624999985,
          "velocity": 0.7480314960629921,
          "duration": 0.2173912499999986
        },
        {
          "name": "B1",
          "midi": 35,
          "time": 63.69563624999985,
          "velocity": 0.7480314960629921,
          "duration": 0.2173912499999986
        },
        {
          "name": "A#2",
          "midi": 46,
          "time": 63.91302749999985,
          "velocity": 0.7480314960629921,
          "duration": 0.2173912499999986
        },
        {
          "name": "D2",
          "midi": 38,
          "time": 63.91302749999985,
          "velocity": 0.7480314960629921,
          "duration": 0.2173912499999986
        },
        {
          "name": "A#2",
          "midi": 46,
          "time": 64.13041874999985,
          "velocity": 0.7480314960629921,
          "duration": 0.2173912500000057
        },
        {
          "name": "A#2",
          "midi": 46,
          "time": 64.34780999999985,
          "velocity": 0.7480314960629921,
          "duration": 0.2173912500000057
        },
        {
          "name": "B1",
          "midi": 35,
          "time": 64.34780999999985,
          "velocity": 0.7480314960629921,
          "duration": 0.2173912500000057
        },
        {
          "name": "A#2",
          "midi": 46,
          "time": 64.56520124999986,
          "velocity": 0.7480314960629921,
          "duration": 0.2173912500000057
        },
        {
          "name": "A#2",
          "midi": 46,
          "time": 64.78259249999986,
          "velocity": 0.7480314960629921,
          "duration": 0.2173912500000057
        },
        {
          "name": "D2",
          "midi": 38,
          "time": 64.78259249999986,
          "velocity": 0.7480314960629921,
          "duration": 0.2173912500000057
        },
        {
          "name": "A#2",
          "midi": 46,
          "time": 64.99998374999987,
          "velocity": 0.7480314960629921,
          "duration": 0.2173912500000057
        },
        {
          "name": "C#3",
          "midi": 49,
          "time": 65.21737499999988,
          "velocity": 0.7480314960629921,
          "duration": 0.10869562499999574
        },
        {
          "name": "D2",
          "midi": 38,
          "time": 65.21737499999988,
          "velocity": 0.7480314960629921,
          "duration": 0.10869562499999574
        },
        {
          "name": "G2",
          "midi": 43,
          "time": 65.32607062499987,
          "velocity": 0.7480314960629921,
          "duration": 0.10869562499999574
        },
        {
          "name": "B2",
          "midi": 47,
          "time": 65.43476624999987,
          "velocity": 0.7480314960629921,
          "duration": 0.10869562499999574
        },
        {
          "name": "C#3",
          "midi": 49,
          "time": 65.65215749999986,
          "velocity": 0.7480314960629921,
          "duration": 0.10869562499999574
        },
        {
          "name": "D2",
          "midi": 38,
          "time": 65.65215749999986,
          "velocity": 0.7480314960629921,
          "duration": 0.10869562499999574
        },
        {
          "name": "A2",
          "midi": 45,
          "time": 65.76085312499985,
          "velocity": 0.7480314960629921,
          "duration": 0.10869562499999574
        },
        {
          "name": "B2",
          "midi": 47,
          "time": 65.86954874999985,
          "velocity": 0.7480314960629921,
          "duration": 0.10869562499999574
        },
        {
          "name": "B2",
          "midi": 47,
          "time": 65.97824437499985,
          "velocity": 0.7480314960629921,
          "duration": 0.10869562499999574
        },
        {
          "name": "C#3",
          "midi": 49,
          "time": 66.08693999999984,
          "velocity": 0.7480314960629921,
          "duration": 0.4347824999999972
        },
        {
          "name": "B1",
          "midi": 35,
          "time": 66.08693999999984,
          "velocity": 0.7480314960629921,
          "duration": 0.4347824999999972
        },
        {
          "name": "A#2",
          "midi": 46,
          "time": 66.52172249999984,
          "velocity": 0.7480314960629921,
          "duration": 0.2173912500000057
        },
        {
          "name": "D2",
          "midi": 38,
          "time": 66.52172249999984,
          "velocity": 0.7480314960629921,
          "duration": 0.2173912500000057
        },
        {
          "name": "A#2",
          "midi": 46,
          "time": 66.73911374999985,
          "velocity": 0.7480314960629921,
          "duration": 0.2173912500000057
        },
        {
          "name": "A#2",
          "midi": 46,
          "time": 66.95650499999985,
          "velocity": 0.7480314960629921,
          "duration": 0.2173912500000057
        },
        {
          "name": "B1",
          "midi": 35,
          "time": 66.95650499999985,
          "velocity": 0.7480314960629921,
          "duration": 0.2173912500000057
        },
        {
          "name": "A#2",
          "midi": 46,
          "time": 67.17389624999986,
          "velocity": 0.7480314960629921,
          "duration": 0.2173912500000057
        },
        {
          "name": "B1",
          "midi": 35,
          "time": 67.17389624999986,
          "velocity": 0.7480314960629921,
          "duration": 0.2173912500000057
        },
        {
          "name": "A#2",
          "midi": 46,
          "time": 67.39128749999986,
          "velocity": 0.7480314960629921,
          "duration": 0.2173912500000057
        },
        {
          "name": "D2",
          "midi": 38,
          "time": 67.39128749999986,
          "velocity": 0.7480314960629921,
          "duration": 0.2173912500000057
        },
        {
          "name": "A#2",
          "midi": 46,
          "time": 67.60867874999987,
          "velocity": 0.7480314960629921,
          "duration": 0.2173912500000057
        },
        {
          "name": "A#2",
          "midi": 46,
          "time": 67.82606999999987,
          "velocity": 0.7480314960629921,
          "duration": 0.2173912500000057
        },
        {
          "name": "B1",
          "midi": 35,
          "time": 67.82606999999987,
          "velocity": 0.7480314960629921,
          "duration": 0.2173912500000057
        },
        {
          "name": "A#2",
          "midi": 46,
          "time": 68.04346124999988,
          "velocity": 0.7480314960629921,
          "duration": 0.2173912500000057
        },
        {
          "name": "A#2",
          "midi": 46,
          "time": 68.26085249999988,
          "velocity": 0.7480314960629921,
          "duration": 0.2173912500000057
        },
        {
          "name": "D2",
          "midi": 38,
          "time": 68.26085249999988,
          "velocity": 0.7480314960629921,
          "duration": 0.2173912500000057
        },
        {
          "name": "A#2",
          "midi": 46,
          "time": 68.47824374999989,
          "velocity": 0.7480314960629921,
          "duration": 0.2173912500000057
        },
        {
          "name": "A#2",
          "midi": 46,
          "time": 68.6956349999999,
          "velocity": 0.7480314960629921,
          "duration": 0.2173912500000057
        },
        {
          "name": "B1",
          "midi": 35,
          "time": 68.6956349999999,
          "velocity": 0.7480314960629921,
          "duration": 0.2173912500000057
        },
        {
          "name": "A#2",
          "midi": 46,
          "time": 68.9130262499999,
          "velocity": 0.7480314960629921,
          "duration": 0.2173912500000057
        },
        {
          "name": "B1",
          "midi": 35,
          "time": 68.9130262499999,
          "velocity": 0.7480314960629921,
          "duration": 0.2173912500000057
        },
        {
          "name": "A#2",
          "midi": 46,
          "time": 69.13041749999991,
          "velocity": 0.7480314960629921,
          "duration": 0.2173912500000057
        },
        {
          "name": "D2",
          "midi": 38,
          "time": 69.13041749999991,
          "velocity": 0.7480314960629921,
          "duration": 0.2173912500000057
        },
        {
          "name": "A#2",
          "midi": 46,
          "time": 69.34780874999991,
          "velocity": 0.7480314960629921,
          "duration": 0.2173912500000057
        },
        {
          "name": "C#3",
          "midi": 49,
          "time": 69.56519999999992,
          "velocity": 0.7480314960629921,
          "duration": 0.4347824999999972
        },
        {
          "name": "B1",
          "midi": 35,
          "time": 69.56519999999992,
          "velocity": 0.7480314960629921,
          "duration": 0.4347824999999972
        },
        {
          "name": "A#2",
          "midi": 46,
          "time": 69.99998249999992,
          "velocity": 0.7480314960629921,
          "duration": 0.2173912500000057
        },
        {
          "name": "D2",
          "midi": 38,
          "time": 69.99998249999992,
          "velocity": 0.7480314960629921,
          "duration": 0.2173912500000057
        },
        {
          "name": "A#2",
          "midi": 46,
          "time": 70.21737374999992,
          "velocity": 0.7480314960629921,
          "duration": 0.2173912500000057
        },
        {
          "name": "A#2",
          "midi": 46,
          "time": 70.43476499999993,
          "velocity": 0.7480314960629921,
          "duration": 0.2173912500000057
        },
        {
          "name": "B1",
          "midi": 35,
          "time": 70.43476499999993,
          "velocity": 0.7480314960629921,
          "duration": 0.2173912500000057
        },
        {
          "name": "A#2",
          "midi": 46,
          "time": 70.65215624999993,
          "velocity": 0.7480314960629921,
          "duration": 0.2173912500000057
        },
        {
          "name": "B1",
          "midi": 35,
          "time": 70.65215624999993,
          "velocity": 0.7480314960629921,
          "duration": 0.2173912500000057
        },
        {
          "name": "A#2",
          "midi": 46,
          "time": 70.86954749999994,
          "velocity": 0.7480314960629921,
          "duration": 0.2173912500000057
        },
        {
          "name": "D2",
          "midi": 38,
          "time": 70.86954749999994,
          "velocity": 0.7480314960629921,
          "duration": 0.2173912500000057
        },
        {
          "name": "A#2",
          "midi": 46,
          "time": 71.08693874999994,
          "velocity": 0.7480314960629921,
          "duration": 0.2173912500000057
        },
        {
          "name": "A#2",
          "midi": 46,
          "time": 71.30432999999995,
          "velocity": 0.7480314960629921,
          "duration": 0.2173912500000057
        },
        {
          "name": "B1",
          "midi": 35,
          "time": 71.30432999999995,
          "velocity": 0.7480314960629921,
          "duration": 0.2173912500000057
        },
        {
          "name": "A#2",
          "midi": 46,
          "time": 71.52172124999996,
          "velocity": 0.7480314960629921,
          "duration": 0.2173912500000057
        },
        {
          "name": "A#2",
          "midi": 46,
          "time": 71.73911249999996,
          "velocity": 0.7480314960629921,
          "duration": 0.2173912500000057
        },
        {
          "name": "D2",
          "midi": 38,
          "time": 71.73911249999996,
          "velocity": 0.7480314960629921,
          "duration": 0.2173912500000057
        },
        {
          "name": "A#2",
          "midi": 46,
          "time": 71.95650374999997,
          "velocity": 0.7480314960629921,
          "duration": 0.2173912500000057
        },
        {
          "name": "C#3",
          "midi": 49,
          "time": 72.39128624999998,
          "velocity": 0.7480314960629921,
          "duration": 0.2173912500000057
        },
        {
          "name": "D2",
          "midi": 38,
          "time": 72.39128624999998,
          "velocity": 0.7480314960629921,
          "duration": 0.2173912500000057
        },
        {
          "name": "C#3",
          "midi": 49,
          "time": 72.60867749999998,
          "velocity": 0.7480314960629921,
          "duration": 0.2173912500000057
        },
        {
          "name": "D2",
          "midi": 38,
          "time": 72.60867749999998,
          "velocity": 0.7480314960629921,
          "duration": 0.2173912500000057
        },
        {
          "name": "C#3",
          "midi": 49,
          "time": 72.82606874999999,
          "velocity": 0.7480314960629921,
          "duration": 0.2173912500000057
        },
        {
          "name": "D2",
          "midi": 38,
          "time": 72.82606874999999,
          "velocity": 0.7480314960629921,
          "duration": 0.2173912500000057
        },
        {
          "name": "B2",
          "midi": 47,
          "time": 85.326065625,
          "velocity": 0.7480314960629921,
          "duration": 0.10869562499999574
        },
        {
          "name": "A2",
          "midi": 45,
          "time": 85.43476125,
          "velocity": 0.7480314960629921,
          "duration": 0.10869562499999574
        },
        {
          "name": "D2",
          "midi": 38,
          "time": 85.54345687499999,
          "velocity": 0.7480314960629921,
          "duration": 0.10869562499999574
        },
        {
          "name": "B2",
          "midi": 47,
          "time": 85.76084812499998,
          "velocity": 0.7480314960629921,
          "duration": 0.10869562499999574
        },
        {
          "name": "A2",
          "midi": 45,
          "time": 85.86954374999998,
          "velocity": 0.7480314960629921,
          "duration": 0.10869562499999574
        },
        {
          "name": "D2",
          "midi": 38,
          "time": 85.97823937499997,
          "velocity": 0.7480314960629921,
          "duration": 0.10869562499999574
        },
        {
          "name": "D2",
          "midi": 38,
          "time": 86.08693499999997,
          "velocity": 0.7480314960629921,
          "duration": 0.10869562499999574
        },
        {
          "name": "D2",
          "midi": 38,
          "time": 86.19563062499996,
          "velocity": 0.7480314960629921,
          "duration": 0.10869562499999574
        },
        {
          "name": "D2",
          "midi": 38,
          "time": 86.30432624999996,
          "velocity": 0.7480314960629921,
          "duration": 0.10869562499999574
        },
        {
          "name": "D2",
          "midi": 38,
          "time": 86.41302187499996,
          "velocity": 0.7480314960629921,
          "duration": 0.10869562499999574
        },
        {
          "name": "D2",
          "midi": 38,
          "time": 86.52171749999995,
          "velocity": 0.7480314960629921,
          "duration": 0.10869562499999574
        },
        {
          "name": "D2",
          "midi": 38,
          "time": 86.63041312499995,
          "velocity": 0.7480314960629921,
          "duration": 0.10869562499999574
        },
        {
          "name": "D2",
          "midi": 38,
          "time": 86.73910874999994,
          "velocity": 0.7480314960629921,
          "duration": 0.10869562499999574
        },
        {
          "name": "D2",
          "midi": 38,
          "time": 86.84780437499994,
          "velocity": 0.7480314960629921,
          "duration": 0.10869562499999574
        },
        {
          "name": "D2",
          "midi": 38,
          "time": 86.95649999999993,
          "velocity": 0.7480314960629921,
          "duration": 0.10869562499999574
        },
        {
          "name": "D2",
          "midi": 38,
          "time": 86.95649999999993,
          "velocity": 0.7480314960629921,
          "duration": 0.10869562499999574
        },
        {
          "name": "A2",
          "midi": 45,
          "time": 87.06519562499993,
          "velocity": 0.7480314960629921,
          "duration": 0.10869562499999574
        },
        {
          "name": "A2",
          "midi": 45,
          "time": 87.06519562499993,
          "velocity": 0.7480314960629921,
          "duration": 0.10869562499999574
        },
        {
          "name": "B2",
          "midi": 47,
          "time": 87.17389124999993,
          "velocity": 0.7480314960629921,
          "duration": 0.10869562499999574
        },
        {
          "name": "B2",
          "midi": 47,
          "time": 87.17389124999993,
          "velocity": 0.7480314960629921,
          "duration": 0.10869562499999574
        },
        {
          "name": "D2",
          "midi": 38,
          "time": 87.28258687499992,
          "velocity": 0.7480314960629921,
          "duration": 0.10869562499999574
        },
        {
          "name": "D2",
          "midi": 38,
          "time": 87.28258687499992,
          "velocity": 0.7480314960629921,
          "duration": 0.10869562499999574
        },
        {
          "name": "C#3",
          "midi": 49,
          "time": 87.39128249999992,
          "velocity": 0.7480314960629921,
          "duration": 0.4347824999999972
        },
        {
          "name": "D2",
          "midi": 38,
          "time": 87.39128249999992,
          "velocity": 0.7480314960629921,
          "duration": 0.4347824999999972
        },
        {
          "name": "A#2",
          "midi": 46,
          "time": 87.82606499999991,
          "velocity": 0.7480314960629921,
          "duration": 0.2173912500000057
        },
        {
          "name": "B1",
          "midi": 35,
          "time": 87.82606499999991,
          "velocity": 0.7480314960629921,
          "duration": 0.2173912500000057
        },
        {
          "name": "A#2",
          "midi": 46,
          "time": 88.04345624999992,
          "velocity": 0.7480314960629921,
          "duration": 0.2173912500000057
        },
        {
          "name": "A#2",
          "midi": 46,
          "time": 88.26084749999993,
          "velocity": 0.7480314960629921,
          "duration": 0.2173912500000057
        },
        {
          "name": "D2",
          "midi": 38,
          "time": 88.26084749999993,
          "velocity": 0.7480314960629921,
          "duration": 0.2173912500000057
        },
        {
          "name": "A#2",
          "midi": 46,
          "time": 88.47823874999993,
          "velocity": 0.7480314960629921,
          "duration": 0.2173912500000057
        },
        {
          "name": "A#2",
          "midi": 46,
          "time": 88.69562999999994,
          "velocity": 0.7480314960629921,
          "duration": 0.2173912500000057
        },
        {
          "name": "B1",
          "midi": 35,
          "time": 88.69562999999994,
          "velocity": 0.7480314960629921,
          "duration": 0.2173912500000057
        },
        {
          "name": "A#2",
          "midi": 46,
          "time": 88.91302124999994,
          "velocity": 0.7480314960629921,
          "duration": 0.2173912500000057
        },
        {
          "name": "B1",
          "midi": 35,
          "time": 88.91302124999994,
          "velocity": 0.7480314960629921,
          "duration": 0.2173912500000057
        },
        {
          "name": "A#2",
          "midi": 46,
          "time": 89.13041249999995,
          "velocity": 0.7480314960629921,
          "duration": 0.2173912500000057
        },
        {
          "name": "D2",
          "midi": 38,
          "time": 89.13041249999995,
          "velocity": 0.7480314960629921,
          "duration": 0.2173912500000057
        },
        {
          "name": "A#2",
          "midi": 46,
          "time": 89.34780374999995,
          "velocity": 0.7480314960629921,
          "duration": 0.2173912500000057
        },
        {
          "name": "A#2",
          "midi": 46,
          "time": 89.56519499999996,
          "velocity": 0.7480314960629921,
          "duration": 0.2173912500000057
        },
        {
          "name": "B1",
          "midi": 35,
          "time": 89.56519499999996,
          "velocity": 0.7480314960629921,
          "duration": 0.2173912500000057
        },
        {
          "name": "A#2",
          "midi": 46,
          "time": 89.78258624999997,
          "velocity": 0.7480314960629921,
          "duration": 0.2173912500000057
        },
        {
          "name": "A#2",
          "midi": 46,
          "time": 89.99997749999997,
          "velocity": 0.7480314960629921,
          "duration": 0.2173912500000057
        },
        {
          "name": "D2",
          "midi": 38,
          "time": 89.99997749999997,
          "velocity": 0.7480314960629921,
          "duration": 0.2173912500000057
        },
        {
          "name": "A#2",
          "midi": 46,
          "time": 90.21736874999998,
          "velocity": 0.7480314960629921,
          "duration": 0.2173912500000057
        },
        {
          "name": "D2",
          "midi": 38,
          "time": 90.43475999999998,
          "velocity": 0.7480314960629921,
          "duration": 0.10869562499999574
        },
        {
          "name": "D2",
          "midi": 38,
          "time": 90.43475999999998,
          "velocity": 0.7480314960629921,
          "duration": 0.10869562499999574
        },
        {
          "name": "A2",
          "midi": 45,
          "time": 90.54345562499998,
          "velocity": 0.7480314960629921,
          "duration": 0.10869562499999574
        },
        {
          "name": "A2",
          "midi": 45,
          "time": 90.54345562499998,
          "velocity": 0.7480314960629921,
          "duration": 0.10869562499999574
        },
        {
          "name": "B2",
          "midi": 47,
          "time": 90.65215124999997,
          "velocity": 0.7480314960629921,
          "duration": 0.10869562499999574
        },
        {
          "name": "B2",
          "midi": 47,
          "time": 90.65215124999997,
          "velocity": 0.7480314960629921,
          "duration": 0.10869562499999574
        },
        {
          "name": "D2",
          "midi": 38,
          "time": 90.76084687499997,
          "velocity": 0.7480314960629921,
          "duration": 0.10869562499999574
        },
        {
          "name": "D2",
          "midi": 38,
          "time": 90.76084687499997,
          "velocity": 0.7480314960629921,
          "duration": 0.10869562499999574
        },
        {
          "name": "C#3",
          "midi": 49,
          "time": 90.86954249999997,
          "velocity": 0.7480314960629921,
          "duration": 0.4347824999999972
        },
        {
          "name": "D2",
          "midi": 38,
          "time": 90.86954249999997,
          "velocity": 0.7480314960629921,
          "duration": 0.4347824999999972
        },
        {
          "name": "A#2",
          "midi": 46,
          "time": 91.30432499999996,
          "velocity": 0.7480314960629921,
          "duration": 0.2173912500000057
        },
        {
          "name": "B1",
          "midi": 35,
          "time": 91.30432499999996,
          "velocity": 0.7480314960629921,
          "duration": 0.2173912500000057
        },
        {
          "name": "A#2",
          "midi": 46,
          "time": 91.52171624999997,
          "velocity": 0.7480314960629921,
          "duration": 0.2173912500000057
        },
        {
          "name": "A#2",
          "midi": 46,
          "time": 91.73910749999997,
          "velocity": 0.7480314960629921,
          "duration": 0.2173912500000057
        },
        {
          "name": "D2",
          "midi": 38,
          "time": 91.73910749999997,
          "velocity": 0.7480314960629921,
          "duration": 0.2173912500000057
        },
        {
          "name": "A#2",
          "midi": 46,
          "time": 91.95649874999998,
          "velocity": 0.7480314960629921,
          "duration": 0.2173912500000057
        },
        {
          "name": "A#2",
          "midi": 46,
          "time": 92.17388999999999,
          "velocity": 0.7480314960629921,
          "duration": 0.2173912500000057
        },
        {
          "name": "B1",
          "midi": 35,
          "time": 92.17388999999999,
          "velocity": 0.7480314960629921,
          "duration": 0.2173912500000057
        },
        {
          "name": "A#2",
          "midi": 46,
          "time": 92.39128124999999,
          "velocity": 0.7480314960629921,
          "duration": 0.2173912500000057
        },
        {
          "name": "B1",
          "midi": 35,
          "time": 92.39128124999999,
          "velocity": 0.7480314960629921,
          "duration": 0.2173912500000057
        },
        {
          "name": "A#2",
          "midi": 46,
          "time": 92.6086725,
          "velocity": 0.7480314960629921,
          "duration": 0.2173912500000057
        },
        {
          "name": "D2",
          "midi": 38,
          "time": 92.6086725,
          "velocity": 0.7480314960629921,
          "duration": 0.2173912500000057
        },
        {
          "name": "A#2",
          "midi": 46,
          "time": 92.82606375,
          "velocity": 0.7480314960629921,
          "duration": 0.2173912500000057
        },
        {
          "name": "A#2",
          "midi": 46,
          "time": 93.04345500000001,
          "velocity": 0.7480314960629921,
          "duration": 0.2173912500000057
        },
        {
          "name": "B1",
          "midi": 35,
          "time": 93.04345500000001,
          "velocity": 0.7480314960629921,
          "duration": 0.2173912500000057
        },
        {
          "name": "A#2",
          "midi": 46,
          "time": 93.26084625000001,
          "velocity": 0.7480314960629921,
          "duration": 0.2173912500000057
        },
        {
          "name": "A#2",
          "midi": 46,
          "time": 93.47823750000002,
          "velocity": 0.7480314960629921,
          "duration": 0.2173912500000057
        },
        {
          "name": "D2",
          "midi": 38,
          "time": 93.47823750000002,
          "velocity": 0.7480314960629921,
          "duration": 0.2173912500000057
        },
        {
          "name": "A#2",
          "midi": 46,
          "time": 93.69562875000003,
          "velocity": 0.7480314960629921,
          "duration": 0.2173912500000057
        },
        {
          "name": "D2",
          "midi": 38,
          "time": 93.91302000000003,
          "velocity": 0.7480314960629921,
          "duration": 0.10869562499999574
        },
        {
          "name": "D2",
          "midi": 38,
          "time": 93.91302000000003,
          "velocity": 0.7480314960629921,
          "duration": 0.10869562499999574
        },
        {
          "name": "A2",
          "midi": 45,
          "time": 94.02171562500003,
          "velocity": 0.7480314960629921,
          "duration": 0.10869562499999574
        },
        {
          "name": "A2",
          "midi": 45,
          "time": 94.02171562500003,
          "velocity": 0.7480314960629921,
          "duration": 0.10869562499999574
        },
        {
          "name": "B2",
          "midi": 47,
          "time": 94.13041125000002,
          "velocity": 0.7480314960629921,
          "duration": 0.10869562499999574
        },
        {
          "name": "B2",
          "midi": 47,
          "time": 94.13041125000002,
          "velocity": 0.7480314960629921,
          "duration": 0.10869562499999574
        },
        {
          "name": "D2",
          "midi": 38,
          "time": 94.23910687500002,
          "velocity": 0.7480314960629921,
          "duration": 0.10869562499999574
        },
        {
          "name": "D2",
          "midi": 38,
          "time": 94.23910687500002,
          "velocity": 0.7480314960629921,
          "duration": 0.10869562499999574
        },
        {
          "name": "C#3",
          "midi": 49,
          "time": 94.34780250000001,
          "velocity": 0.7480314960629921,
          "duration": 0.4347824999999972
        },
        {
          "name": "D2",
          "midi": 38,
          "time": 94.34780250000001,
          "velocity": 0.7480314960629921,
          "duration": 0.4347824999999972
        },
        {
          "name": "A#2",
          "midi": 46,
          "time": 94.78258500000001,
          "velocity": 0.7480314960629921,
          "duration": 0.2173912500000057
        },
        {
          "name": "B1",
          "midi": 35,
          "time": 94.78258500000001,
          "velocity": 0.7480314960629921,
          "duration": 0.2173912500000057
        },
        {
          "name": "A#2",
          "midi": 46,
          "time": 94.99997625000002,
          "velocity": 0.7480314960629921,
          "duration": 0.2173912500000057
        },
        {
          "name": "A#2",
          "midi": 46,
          "time": 95.21736750000002,
          "velocity": 0.7480314960629921,
          "duration": 0.2173912500000057
        },
        {
          "name": "D2",
          "midi": 38,
          "time": 95.21736750000002,
          "velocity": 0.7480314960629921,
          "duration": 0.2173912500000057
        },
        {
          "name": "A#2",
          "midi": 46,
          "time": 95.43475875000003,
          "velocity": 0.7480314960629921,
          "duration": 0.2173912500000057
        },
        {
          "name": "A#2",
          "midi": 46,
          "time": 95.65215000000003,
          "velocity": 0.7480314960629921,
          "duration": 0.2173912500000057
        },
        {
          "name": "B1",
          "midi": 35,
          "time": 95.65215000000003,
          "velocity": 0.7480314960629921,
          "duration": 0.2173912500000057
        },
        {
          "name": "A#2",
          "midi": 46,
          "time": 95.86954125000004,
          "velocity": 0.7480314960629921,
          "duration": 0.2173912500000057
        },
        {
          "name": "B1",
          "midi": 35,
          "time": 95.86954125000004,
          "velocity": 0.7480314960629921,
          "duration": 0.2173912500000057
        },
        {
          "name": "A#2",
          "midi": 46,
          "time": 96.08693250000005,
          "velocity": 0.7480314960629921,
          "duration": 0.2173912500000057
        },
        {
          "name": "D2",
          "midi": 38,
          "time": 96.08693250000005,
          "velocity": 0.7480314960629921,
          "duration": 0.2173912500000057
        },
        {
          "name": "A#2",
          "midi": 46,
          "time": 96.30432375000005,
          "velocity": 0.7480314960629921,
          "duration": 0.2173912500000057
        },
        {
          "name": "A#2",
          "midi": 46,
          "time": 96.52171500000006,
          "velocity": 0.7480314960629921,
          "duration": 0.2173912500000057
        },
        {
          "name": "B1",
          "midi": 35,
          "time": 96.52171500000006,
          "velocity": 0.7480314960629921,
          "duration": 0.2173912500000057
        },
        {
          "name": "A#2",
          "midi": 46,
          "time": 96.73910625000006,
          "velocity": 0.7480314960629921,
          "duration": 0.2173912500000057
        },
        {
          "name": "A#2",
          "midi": 46,
          "time": 96.95649750000007,
          "velocity": 0.7480314960629921,
          "duration": 0.2173912500000057
        },
        {
          "name": "D2",
          "midi": 38,
          "time": 96.95649750000007,
          "velocity": 0.7480314960629921,
          "duration": 0.2173912500000057
        },
        {
          "name": "A#2",
          "midi": 46,
          "time": 97.17388875000007,
          "velocity": 0.7480314960629921,
          "duration": 0.2173912500000057
        },
        {
          "name": "D2",
          "midi": 38,
          "time": 97.39128000000008,
          "velocity": 0.7480314960629921,
          "duration": 0.10869562499999574
        },
        {
          "name": "D2",
          "midi": 38,
          "time": 97.39128000000008,
          "velocity": 0.7480314960629921,
          "duration": 0.10869562499999574
        },
        {
          "name": "A2",
          "midi": 45,
          "time": 97.49997562500008,
          "velocity": 0.7480314960629921,
          "duration": 0.10869562499999574
        },
        {
          "name": "A2",
          "midi": 45,
          "time": 97.49997562500008,
          "velocity": 0.7480314960629921,
          "duration": 0.10869562499999574
        },
        {
          "name": "B2",
          "midi": 47,
          "time": 97.60867125000007,
          "velocity": 0.7480314960629921,
          "duration": 0.10869562499999574
        },
        {
          "name": "B2",
          "midi": 47,
          "time": 97.60867125000007,
          "velocity": 0.7480314960629921,
          "duration": 0.10869562499999574
        },
        {
          "name": "D2",
          "midi": 38,
          "time": 97.71736687500007,
          "velocity": 0.7480314960629921,
          "duration": 0.10869562499999574
        },
        {
          "name": "D2",
          "midi": 38,
          "time": 97.71736687500007,
          "velocity": 0.7480314960629921,
          "duration": 0.10869562499999574
        },
        {
          "name": "C#3",
          "midi": 49,
          "time": 97.82606250000006,
          "velocity": 0.7480314960629921,
          "duration": 0.4347824999999972
        },
        {
          "name": "D2",
          "midi": 38,
          "time": 97.82606250000006,
          "velocity": 0.7480314960629921,
          "duration": 0.4347824999999972
        },
        {
          "name": "A#2",
          "midi": 46,
          "time": 98.26084500000006,
          "velocity": 0.7480314960629921,
          "duration": 0.2173912500000057
        },
        {
          "name": "B1",
          "midi": 35,
          "time": 98.26084500000006,
          "velocity": 0.7480314960629921,
          "duration": 0.2173912500000057
        },
        {
          "name": "A#2",
          "midi": 46,
          "time": 98.47823625000007,
          "velocity": 0.7480314960629921,
          "duration": 0.2173912500000057
        },
        {
          "name": "A#2",
          "midi": 46,
          "time": 98.69562750000007,
          "velocity": 0.7480314960629921,
          "duration": 0.2173912500000057
        },
        {
          "name": "D2",
          "midi": 38,
          "time": 98.69562750000007,
          "velocity": 0.7480314960629921,
          "duration": 0.2173912500000057
        },
        {
          "name": "A#2",
          "midi": 46,
          "time": 98.91301875000008,
          "velocity": 0.7480314960629921,
          "duration": 0.2173912500000057
        },
        {
          "name": "A#2",
          "midi": 46,
          "time": 99.13041000000008,
          "velocity": 0.7480314960629921,
          "duration": 0.2173912500000057
        },
        {
          "name": "B1",
          "midi": 35,
          "time": 99.13041000000008,
          "velocity": 0.7480314960629921,
          "duration": 0.2173912500000057
        },
        {
          "name": "A#2",
          "midi": 46,
          "time": 99.34780125000009,
          "velocity": 0.7480314960629921,
          "duration": 0.2173912500000057
        },
        {
          "name": "B1",
          "midi": 35,
          "time": 99.34780125000009,
          "velocity": 0.7480314960629921,
          "duration": 0.2173912500000057
        },
        {
          "name": "A#2",
          "midi": 46,
          "time": 99.5651925000001,
          "velocity": 0.7480314960629921,
          "duration": 0.2173912500000057
        },
        {
          "name": "D2",
          "midi": 38,
          "time": 99.5651925000001,
          "velocity": 0.7480314960629921,
          "duration": 0.2173912500000057
        },
        {
          "name": "A#2",
          "midi": 46,
          "time": 99.7825837500001,
          "velocity": 0.7480314960629921,
          "duration": 0.2173912500000057
        },
        {
          "name": "A#2",
          "midi": 46,
          "time": 99.9999750000001,
          "velocity": 0.7480314960629921,
          "duration": 0.2173912500000057
        },
        {
          "name": "B1",
          "midi": 35,
          "time": 99.9999750000001,
          "velocity": 0.7480314960629921,
          "duration": 0.2173912500000057
        },
        {
          "name": "A#2",
          "midi": 46,
          "time": 100.21736625000011,
          "velocity": 0.7480314960629921,
          "duration": 0.2173912500000057
        },
        {
          "name": "A#2",
          "midi": 46,
          "time": 100.43475750000012,
          "velocity": 0.7480314960629921,
          "duration": 0.2173912500000057
        },
        {
          "name": "D2",
          "midi": 38,
          "time": 100.43475750000012,
          "velocity": 0.7480314960629921,
          "duration": 0.2173912500000057
        },
        {
          "name": "A#2",
          "midi": 46,
          "time": 100.65214875000012,
          "velocity": 0.7480314960629921,
          "duration": 0.2173912500000057
        },
        {
          "name": "A#2",
          "midi": 46,
          "time": 100.86954000000013,
          "velocity": 0.7480314960629921,
          "duration": 0.2173912500000057
        },
        {
          "name": "B1",
          "midi": 35,
          "time": 100.86954000000013,
          "velocity": 0.7480314960629921,
          "duration": 0.2173912500000057
        },
        {
          "name": "A#2",
          "midi": 46,
          "time": 101.08693125000013,
          "velocity": 0.7480314960629921,
          "duration": 0.2173912500000057
        },
        {
          "name": "A#2",
          "midi": 46,
          "time": 101.30432250000014,
          "velocity": 0.7480314960629921,
          "duration": 0.2173912500000057
        },
        {
          "name": "D2",
          "midi": 38,
          "time": 101.30432250000014,
          "velocity": 0.7480314960629921,
          "duration": 0.2173912500000057
        },
        {
          "name": "A#2",
          "midi": 46,
          "time": 101.52171375000015,
          "velocity": 0.7480314960629921,
          "duration": 0.2173912500000057
        },
        {
          "name": "A#2",
          "midi": 46,
          "time": 101.73910500000015,
          "velocity": 0.7480314960629921,
          "duration": 0.2173912500000057
        },
        {
          "name": "B1",
          "midi": 35,
          "time": 101.73910500000015,
          "velocity": 0.7480314960629921,
          "duration": 0.2173912500000057
        },
        {
          "name": "A#2",
          "midi": 46,
          "time": 101.95649625000016,
          "velocity": 0.7480314960629921,
          "duration": 0.2173912500000057
        },
        {
          "name": "B1",
          "midi": 35,
          "time": 101.95649625000016,
          "velocity": 0.7480314960629921,
          "duration": 0.2173912500000057
        },
        {
          "name": "A#2",
          "midi": 46,
          "time": 102.17388750000016,
          "velocity": 0.7480314960629921,
          "duration": 0.2173912500000057
        },
        {
          "name": "D2",
          "midi": 38,
          "time": 102.17388750000016,
          "velocity": 0.7480314960629921,
          "duration": 0.2173912500000057
        },
        {
          "name": "A#2",
          "midi": 46,
          "time": 102.39127875000017,
          "velocity": 0.7480314960629921,
          "duration": 0.2173912500000057
        },
        {
          "name": "A#2",
          "midi": 46,
          "time": 102.60867000000017,
          "velocity": 0.7480314960629921,
          "duration": 0.2173912500000057
        },
        {
          "name": "B1",
          "midi": 35,
          "time": 102.60867000000017,
          "velocity": 0.7480314960629921,
          "duration": 0.2173912500000057
        },
        {
          "name": "A#2",
          "midi": 46,
          "time": 102.82606125000018,
          "velocity": 0.7480314960629921,
          "duration": 0.2173912500000057
        },
        {
          "name": "A#2",
          "midi": 46,
          "time": 103.04345250000019,
          "velocity": 0.7480314960629921,
          "duration": 0.2173912500000057
        },
        {
          "name": "D2",
          "midi": 38,
          "time": 103.04345250000019,
          "velocity": 0.7480314960629921,
          "duration": 0.2173912500000057
        },
        {
          "name": "A#2",
          "midi": 46,
          "time": 103.26084375000019,
          "velocity": 0.7480314960629921,
          "duration": 0.2173912500000057
        },
        {
          "name": "A#2",
          "midi": 46,
          "time": 103.4782350000002,
          "velocity": 0.7480314960629921,
          "duration": 0.2173912500000057
        },
        {
          "name": "B1",
          "midi": 35,
          "time": 103.4782350000002,
          "velocity": 0.7480314960629921,
          "duration": 0.2173912500000057
        },
        {
          "name": "A#2",
          "midi": 46,
          "time": 103.6956262500002,
          "velocity": 0.7480314960629921,
          "duration": 0.2173912500000057
        },
        {
          "name": "A#2",
          "midi": 46,
          "time": 103.91301750000021,
          "velocity": 0.7480314960629921,
          "duration": 0.2173912500000057
        },
        {
          "name": "D2",
          "midi": 38,
          "time": 103.91301750000021,
          "velocity": 0.7480314960629921,
          "duration": 0.2173912500000057
        },
        {
          "name": "A#2",
          "midi": 46,
          "time": 104.13040875000021,
          "velocity": 0.7480314960629921,
          "duration": 0.2173912500000057
        },
        {
          "name": "A#2",
          "midi": 46,
          "time": 104.34780000000022,
          "velocity": 0.7480314960629921,
          "duration": 0.2173912500000057
        },
        {
          "name": "B1",
          "midi": 35,
          "time": 104.34780000000022,
          "velocity": 0.7480314960629921,
          "duration": 0.2173912500000057
        },
        {
          "name": "A#2",
          "midi": 46,
          "time": 104.56519125000023,
          "velocity": 0.7480314960629921,
          "duration": 0.2173912500000057
        },
        {
          "name": "A#2",
          "midi": 46,
          "time": 104.78258250000023,
          "velocity": 0.7480314960629921,
          "duration": 0.2173912500000057
        },
        {
          "name": "D2",
          "midi": 38,
          "time": 104.78258250000023,
          "velocity": 0.7480314960629921,
          "duration": 0.2173912500000057
        },
        {
          "name": "A#2",
          "midi": 46,
          "time": 104.99997375000024,
          "velocity": 0.7480314960629921,
          "duration": 0.10869562499999574
        },
        {
          "name": "A#2",
          "midi": 46,
          "time": 105.10866937500023,
          "velocity": 0.7480314960629921,
          "duration": 0.10869562499999574
        },
        {
          "name": "D2",
          "midi": 38,
          "time": 105.10866937500023,
          "velocity": 0.7480314960629921,
          "duration": 0.10869562499999574
        },
        {
          "name": "A#2",
          "midi": 46,
          "time": 105.21736500000023,
          "velocity": 0.7480314960629921,
          "duration": 0.10869562499999574
        },
        {
          "name": "A#2",
          "midi": 46,
          "time": 105.32606062500022,
          "velocity": 0.7480314960629921,
          "duration": 0.10869562499999574
        },
        {
          "name": "D2",
          "midi": 38,
          "time": 105.32606062500022,
          "velocity": 0.7480314960629921,
          "duration": 0.10869562499999574
        },
        {
          "name": "A#2",
          "midi": 46,
          "time": 105.43475625000022,
          "velocity": 0.7480314960629921,
          "duration": 0.2173912500000057
        },
        {
          "name": "B1",
          "midi": 35,
          "time": 105.43475625000022,
          "velocity": 0.7480314960629921,
          "duration": 0.2173912500000057
        },
        {
          "name": "A#2",
          "midi": 46,
          "time": 105.65214750000023,
          "velocity": 0.7480314960629921,
          "duration": 0.2173912500000057
        },
        {
          "name": "D2",
          "midi": 38,
          "time": 105.65214750000023,
          "velocity": 0.7480314960629921,
          "duration": 0.2173912500000057
        },
        {
          "name": "A#2",
          "midi": 46,
          "time": 105.86953875000023,
          "velocity": 0.7480314960629921,
          "duration": 0.2173912500000057
        },
        {
          "name": "A#2",
          "midi": 46,
          "time": 106.08693000000024,
          "velocity": 0.7480314960629921,
          "duration": 0.2173912500000057
        },
        {
          "name": "D2",
          "midi": 38,
          "time": 106.08693000000024,
          "velocity": 0.7480314960629921,
          "duration": 0.2173912500000057
        },
        {
          "name": "A#2",
          "midi": 46,
          "time": 106.30432125000024,
          "velocity": 0.7480314960629921,
          "duration": 0.2173912500000057
        },
        {
          "name": "D2",
          "midi": 38,
          "time": 106.30432125000024,
          "velocity": 0.7480314960629921,
          "duration": 0.2173912500000057
        },
        {
          "name": "A#2",
          "midi": 46,
          "time": 106.52171250000025,
          "velocity": 0.7480314960629921,
          "duration": 0.2173912500000057
        },
        {
          "name": "D2",
          "midi": 38,
          "time": 106.52171250000025,
          "velocity": 0.7480314960629921,
          "duration": 0.2173912500000057
        },
        {
          "name": "D2",
          "midi": 38,
          "time": 106.73910375000025,
          "velocity": 0.7480314960629921,
          "duration": 0.2173912500000057
        },
        {
          "name": "D2",
          "midi": 38,
          "time": 106.95649500000026,
          "velocity": 0.7480314960629921,
          "duration": 0.10869562499999574
        },
        {
          "name": "D2",
          "midi": 38,
          "time": 107.06519062500026,
          "velocity": 0.7480314960629921,
          "duration": 0.10869562499999574
        },
        {
          "name": "D2",
          "midi": 38,
          "time": 107.17388625000025,
          "velocity": 0.7480314960629921,
          "duration": 0.10869562499999574
        },
        {
          "name": "D2",
          "midi": 38,
          "time": 107.28258187500025,
          "velocity": 0.7480314960629921,
          "duration": 0.10869562499999574
        },
        {
          "name": "D2",
          "midi": 38,
          "time": 107.39127750000024,
          "velocity": 0.7480314960629921,
          "duration": 0.10869562499999574
        },
        {
          "name": "D2",
          "midi": 38,
          "time": 107.49997312500024,
          "velocity": 0.7480314960629921,
          "duration": 0.10869562499999574
        },
        {
          "name": "D2",
          "midi": 38,
          "time": 107.60866875000023,
          "velocity": 0.7480314960629921,
          "duration": 0.10869562499999574
        },
        {
          "name": "D2",
          "midi": 38,
          "time": 107.71736437500023,
          "velocity": 0.7480314960629921,
          "duration": 0.10869562499999574
        },
        {
          "name": "C#3",
          "midi": 49,
          "time": 107.82606000000023,
          "velocity": 0.7480314960629921,
          "duration": 0.4347824999999972
        },
        {
          "name": "B1",
          "midi": 35,
          "time": 107.82606000000023,
          "velocity": 0.7480314960629921,
          "duration": 0.4347824999999972
        },
        {
          "name": "A#2",
          "midi": 46,
          "time": 108.26084250000022,
          "velocity": 0.7480314960629921,
          "duration": 0.2173912500000057
        },
        {
          "name": "D2",
          "midi": 38,
          "time": 108.26084250000022,
          "velocity": 0.7480314960629921,
          "duration": 0.2173912500000057
        },
        {
          "name": "A#2",
          "midi": 46,
          "time": 108.47823375000023,
          "velocity": 0.7480314960629921,
          "duration": 0.2173912500000057
        },
        {
          "name": "A#2",
          "midi": 46,
          "time": 108.69562500000023,
          "velocity": 0.7480314960629921,
          "duration": 0.2173912500000057
        },
        {
          "name": "B1",
          "midi": 35,
          "time": 108.69562500000023,
          "velocity": 0.7480314960629921,
          "duration": 0.2173912500000057
        },
        {
          "name": "A#2",
          "midi": 46,
          "time": 108.91301625000024,
          "velocity": 0.7480314960629921,
          "duration": 0.2173912500000057
        },
        {
          "name": "B1",
          "midi": 35,
          "time": 108.91301625000024,
          "velocity": 0.7480314960629921,
          "duration": 0.2173912500000057
        },
        {
          "name": "A#2",
          "midi": 46,
          "time": 109.13040750000025,
          "velocity": 0.7480314960629921,
          "duration": 0.2173912500000057
        },
        {
          "name": "D2",
          "midi": 38,
          "time": 109.13040750000025,
          "velocity": 0.7480314960629921,
          "duration": 0.2173912500000057
        },
        {
          "name": "A#2",
          "midi": 46,
          "time": 109.34779875000025,
          "velocity": 0.7480314960629921,
          "duration": 0.2173912500000057
        },
        {
          "name": "A#2",
          "midi": 46,
          "time": 109.56519000000026,
          "velocity": 0.7480314960629921,
          "duration": 0.2173912500000057
        },
        {
          "name": "B1",
          "midi": 35,
          "time": 109.56519000000026,
          "velocity": 0.7480314960629921,
          "duration": 0.2173912500000057
        },
        {
          "name": "A#2",
          "midi": 46,
          "time": 109.78258125000026,
          "velocity": 0.7480314960629921,
          "duration": 0.2173912500000057
        },
        {
          "name": "A#2",
          "midi": 46,
          "time": 109.99997250000027,
          "velocity": 0.7480314960629921,
          "duration": 0.2173912500000057
        },
        {
          "name": "D2",
          "midi": 38,
          "time": 109.99997250000027,
          "velocity": 0.7480314960629921,
          "duration": 0.2173912500000057
        },
        {
          "name": "A#2",
          "midi": 46,
          "time": 110.21736375000027,
          "velocity": 0.7480314960629921,
          "duration": 0.2173912500000057
        },
        {
          "name": "A#2",
          "midi": 46,
          "time": 110.43475500000028,
          "velocity": 0.7480314960629921,
          "duration": 0.2173912500000057
        },
        {
          "name": "B1",
          "midi": 35,
          "time": 110.43475500000028,
          "velocity": 0.7480314960629921,
          "duration": 0.2173912500000057
        },
        {
          "name": "A#2",
          "midi": 46,
          "time": 110.65214625000029,
          "velocity": 0.7480314960629921,
          "duration": 0.2173912500000057
        },
        {
          "name": "B1",
          "midi": 35,
          "time": 110.65214625000029,
          "velocity": 0.7480314960629921,
          "duration": 0.2173912500000057
        },
        {
          "name": "A#2",
          "midi": 46,
          "time": 110.86953750000029,
          "velocity": 0.7480314960629921,
          "duration": 0.2173912500000057
        },
        {
          "name": "D2",
          "midi": 38,
          "time": 110.86953750000029,
          "velocity": 0.7480314960629921,
          "duration": 0.2173912500000057
        },
        {
          "name": "A#2",
          "midi": 46,
          "time": 111.0869287500003,
          "velocity": 0.7480314960629921,
          "duration": 0.2173912500000057
        },
        {
          "name": "C#3",
          "midi": 49,
          "time": 111.3043200000003,
          "velocity": 0.7480314960629921,
          "duration": 0.4347824999999972
        },
        {
          "name": "B1",
          "midi": 35,
          "time": 111.3043200000003,
          "velocity": 0.7480314960629921,
          "duration": 0.4347824999999972
        },
        {
          "name": "A#2",
          "midi": 46,
          "time": 111.7391025000003,
          "velocity": 0.7480314960629921,
          "duration": 0.2173912500000057
        },
        {
          "name": "D2",
          "midi": 38,
          "time": 111.7391025000003,
          "velocity": 0.7480314960629921,
          "duration": 0.2173912500000057
        },
        {
          "name": "A#2",
          "midi": 46,
          "time": 111.9564937500003,
          "velocity": 0.7480314960629921,
          "duration": 0.2173912500000057
        },
        {
          "name": "A#2",
          "midi": 46,
          "time": 112.17388500000031,
          "velocity": 0.7480314960629921,
          "duration": 0.2173912500000057
        },
        {
          "name": "B1",
          "midi": 35,
          "time": 112.17388500000031,
          "velocity": 0.7480314960629921,
          "duration": 0.2173912500000057
        },
        {
          "name": "A#2",
          "midi": 46,
          "time": 112.39127625000032,
          "velocity": 0.7480314960629921,
          "duration": 0.2173912500000057
        },
        {
          "name": "B1",
          "midi": 35,
          "time": 112.39127625000032,
          "velocity": 0.7480314960629921,
          "duration": 0.2173912500000057
        },
        {
          "name": "A#2",
          "midi": 46,
          "time": 112.60866750000032,
          "velocity": 0.7480314960629921,
          "duration": 0.2173912500000057
        },
        {
          "name": "D2",
          "midi": 38,
          "time": 112.60866750000032,
          "velocity": 0.7480314960629921,
          "duration": 0.2173912500000057
        },
        {
          "name": "A#2",
          "midi": 46,
          "time": 112.82605875000033,
          "velocity": 0.7480314960629921,
          "duration": 0.2173912500000057
        },
        {
          "name": "A#2",
          "midi": 46,
          "time": 113.04345000000033,
          "velocity": 0.7480314960629921,
          "duration": 0.2173912500000057
        },
        {
          "name": "B1",
          "midi": 35,
          "time": 113.04345000000033,
          "velocity": 0.7480314960629921,
          "duration": 0.2173912500000057
        },
        {
          "name": "A#2",
          "midi": 46,
          "time": 113.26084125000034,
          "velocity": 0.7480314960629921,
          "duration": 0.2173912500000057
        },
        {
          "name": "A#2",
          "midi": 46,
          "time": 113.47823250000035,
          "velocity": 0.7480314960629921,
          "duration": 0.2173912500000057
        },
        {
          "name": "D2",
          "midi": 38,
          "time": 113.47823250000035,
          "velocity": 0.7480314960629921,
          "duration": 0.2173912500000057
        },
        {
          "name": "A#2",
          "midi": 46,
          "time": 113.69562375000035,
          "velocity": 0.7480314960629921,
          "duration": 0.2173912500000057
        },
        {
          "name": "C#3",
          "midi": 49,
          "time": 113.91301500000036,
          "velocity": 0.7480314960629921,
          "duration": 0.10869562499999574
        },
        {
          "name": "D2",
          "midi": 38,
          "time": 113.91301500000036,
          "velocity": 0.7480314960629921,
          "duration": 0.10869562499999574
        },
        {
          "name": "G2",
          "midi": 43,
          "time": 114.02171062500035,
          "velocity": 0.7480314960629921,
          "duration": 0.10869562499999574
        },
        {
          "name": "B2",
          "midi": 47,
          "time": 114.13040625000035,
          "velocity": 0.7480314960629921,
          "duration": 0.10869562499999574
        },
        {
          "name": "C#3",
          "midi": 49,
          "time": 114.34779750000034,
          "velocity": 0.7480314960629921,
          "duration": 0.10869562499999574
        },
        {
          "name": "D2",
          "midi": 38,
          "time": 114.34779750000034,
          "velocity": 0.7480314960629921,
          "duration": 0.10869562499999574
        },
        {
          "name": "A2",
          "midi": 45,
          "time": 114.45649312500034,
          "velocity": 0.7480314960629921,
          "duration": 0.10869562499999574
        },
        {
          "name": "B2",
          "midi": 47,
          "time": 114.56518875000033,
          "velocity": 0.7480314960629921,
          "duration": 0.10869562499999574
        },
        {
          "name": "B2",
          "midi": 47,
          "time": 114.67388437500033,
          "velocity": 0.7480314960629921,
          "duration": 0.10869562499999574
        },
        {
          "name": "C#3",
          "midi": 49,
          "time": 114.78258000000032,
          "velocity": 0.7480314960629921,
          "duration": 0.4347824999999972
        },
        {
          "name": "B1",
          "midi": 35,
          "time": 114.78258000000032,
          "velocity": 0.7480314960629921,
          "duration": 0.4347824999999972
        },
        {
          "name": "A#2",
          "midi": 46,
          "time": 115.21736250000032,
          "velocity": 0.7480314960629921,
          "duration": 0.2173912500000057
        },
        {
          "name": "D2",
          "midi": 38,
          "time": 115.21736250000032,
          "velocity": 0.7480314960629921,
          "duration": 0.2173912500000057
        },
        {
          "name": "A#2",
          "midi": 46,
          "time": 115.43475375000033,
          "velocity": 0.7480314960629921,
          "duration": 0.2173912500000057
        },
        {
          "name": "A#2",
          "midi": 46,
          "time": 115.65214500000033,
          "velocity": 0.7480314960629921,
          "duration": 0.2173912500000057
        },
        {
          "name": "B1",
          "midi": 35,
          "time": 115.65214500000033,
          "velocity": 0.7480314960629921,
          "duration": 0.2173912500000057
        },
        {
          "name": "A#2",
          "midi": 46,
          "time": 115.86953625000034,
          "velocity": 0.7480314960629921,
          "duration": 0.2173912500000057
        },
        {
          "name": "B1",
          "midi": 35,
          "time": 115.86953625000034,
          "velocity": 0.7480314960629921,
          "duration": 0.2173912500000057
        },
        {
          "name": "A#2",
          "midi": 46,
          "time": 116.08692750000034,
          "velocity": 0.7480314960629921,
          "duration": 0.2173912500000057
        },
        {
          "name": "D2",
          "midi": 38,
          "time": 116.08692750000034,
          "velocity": 0.7480314960629921,
          "duration": 0.2173912500000057
        },
        {
          "name": "A#2",
          "midi": 46,
          "time": 116.30431875000035,
          "velocity": 0.7480314960629921,
          "duration": 0.2173912500000057
        },
        {
          "name": "A#2",
          "midi": 46,
          "time": 116.52171000000035,
          "velocity": 0.7480314960629921,
          "duration": 0.2173912500000057
        },
        {
          "name": "B1",
          "midi": 35,
          "time": 116.52171000000035,
          "velocity": 0.7480314960629921,
          "duration": 0.2173912500000057
        },
        {
          "name": "A#2",
          "midi": 46,
          "time": 116.73910125000036,
          "velocity": 0.7480314960629921,
          "duration": 0.2173912500000057
        },
        {
          "name": "A#2",
          "midi": 46,
          "time": 116.95649250000037,
          "velocity": 0.7480314960629921,
          "duration": 0.2173912500000057
        },
        {
          "name": "D2",
          "midi": 38,
          "time": 116.95649250000037,
          "velocity": 0.7480314960629921,
          "duration": 0.2173912500000057
        },
        {
          "name": "A#2",
          "midi": 46,
          "time": 117.17388375000037,
          "velocity": 0.7480314960629921,
          "duration": 0.2173912500000057
        },
        {
          "name": "A#2",
          "midi": 46,
          "time": 117.39127500000038,
          "velocity": 0.7480314960629921,
          "duration": 0.2173912500000057
        },
        {
          "name": "B1",
          "midi": 35,
          "time": 117.39127500000038,
          "velocity": 0.7480314960629921,
          "duration": 0.2173912500000057
        },
        {
          "name": "A#2",
          "midi": 46,
          "time": 117.60866625000038,
          "velocity": 0.7480314960629921,
          "duration": 0.2173912500000057
        },
        {
          "name": "B1",
          "midi": 35,
          "time": 117.60866625000038,
          "velocity": 0.7480314960629921,
          "duration": 0.2173912500000057
        },
        {
          "name": "A#2",
          "midi": 46,
          "time": 117.82605750000039,
          "velocity": 0.7480314960629921,
          "duration": 0.2173912500000057
        },
        {
          "name": "D2",
          "midi": 38,
          "time": 117.82605750000039,
          "velocity": 0.7480314960629921,
          "duration": 0.2173912500000057
        },
        {
          "name": "A#2",
          "midi": 46,
          "time": 118.0434487500004,
          "velocity": 0.7480314960629921,
          "duration": 0.2173912500000057
        },
        {
          "name": "C#3",
          "midi": 49,
          "time": 118.2608400000004,
          "velocity": 0.7480314960629921,
          "duration": 0.4347824999999972
        },
        {
          "name": "B1",
          "midi": 35,
          "time": 118.2608400000004,
          "velocity": 0.7480314960629921,
          "duration": 0.4347824999999972
        },
        {
          "name": "A#2",
          "midi": 46,
          "time": 118.6956225000004,
          "velocity": 0.7480314960629921,
          "duration": 0.2173912500000057
        },
        {
          "name": "D2",
          "midi": 38,
          "time": 118.6956225000004,
          "velocity": 0.7480314960629921,
          "duration": 0.2173912500000057
        },
        {
          "name": "A#2",
          "midi": 46,
          "time": 118.9130137500004,
          "velocity": 0.7480314960629921,
          "duration": 0.2173912500000057
        },
        {
          "name": "A#2",
          "midi": 46,
          "time": 119.13040500000041,
          "velocity": 0.7480314960629921,
          "duration": 0.2173912500000057
        },
        {
          "name": "B1",
          "midi": 35,
          "time": 119.13040500000041,
          "velocity": 0.7480314960629921,
          "duration": 0.2173912500000057
        },
        {
          "name": "A#2",
          "midi": 46,
          "time": 119.34779625000041,
          "velocity": 0.7480314960629921,
          "duration": 0.2173912500000057
        },
        {
          "name": "B1",
          "midi": 35,
          "time": 119.34779625000041,
          "velocity": 0.7480314960629921,
          "duration": 0.2173912500000057
        },
        {
          "name": "A#2",
          "midi": 46,
          "time": 119.56518750000042,
          "velocity": 0.7480314960629921,
          "duration": 0.2173912500000057
        },
        {
          "name": "D2",
          "midi": 38,
          "time": 119.56518750000042,
          "velocity": 0.7480314960629921,
          "duration": 0.2173912500000057
        },
        {
          "name": "A#2",
          "midi": 46,
          "time": 119.78257875000043,
          "velocity": 0.7480314960629921,
          "duration": 0.2173912500000057
        },
        {
          "name": "A#2",
          "midi": 46,
          "time": 119.99997000000043,
          "velocity": 0.7480314960629921,
          "duration": 0.2173912500000057
        },
        {
          "name": "B1",
          "midi": 35,
          "time": 119.99997000000043,
          "velocity": 0.7480314960629921,
          "duration": 0.2173912500000057
        },
        {
          "name": "A#2",
          "midi": 46,
          "time": 120.21736125000044,
          "velocity": 0.7480314960629921,
          "duration": 0.2173912500000057
        },
        {
          "name": "A#2",
          "midi": 46,
          "time": 120.43475250000044,
          "velocity": 0.7480314960629921,
          "duration": 0.2173912500000057
        },
        {
          "name": "D2",
          "midi": 38,
          "time": 120.43475250000044,
          "velocity": 0.7480314960629921,
          "duration": 0.2173912500000057
        },
        {
          "name": "A#2",
          "midi": 46,
          "time": 120.65214375000045,
          "velocity": 0.7480314960629921,
          "duration": 0.2173912500000057
        },
        {
          "name": "C#3",
          "midi": 49,
          "time": 121.08692625000046,
          "velocity": 0.7480314960629921,
          "duration": 0.2173912500000057
        },
        {
          "name": "D2",
          "midi": 38,
          "time": 121.08692625000046,
          "velocity": 0.7480314960629921,
          "duration": 0.2173912500000057
        },
        {
          "name": "C#3",
          "midi": 49,
          "time": 121.30431750000047,
          "velocity": 0.7480314960629921,
          "duration": 0.2173912500000057
        },
        {
          "name": "D2",
          "midi": 38,
          "time": 121.30431750000047,
          "velocity": 0.7480314960629921,
          "duration": 0.2173912500000057
        },
        {
          "name": "C#3",
          "midi": 49,
          "time": 121.52170875000047,
          "velocity": 0.7480314960629921,
          "duration": 0.2173912500000057
        },
        {
          "name": "D2",
          "midi": 38,
          "time": 121.52170875000047,
          "velocity": 0.7480314960629921,
          "duration": 0.2173912500000057
        },
        {
          "name": "C#3",
          "midi": 49,
          "time": 121.73910000000048,
          "velocity": 0.7480314960629921,
          "duration": 0.2173912500000057
        },
        {
          "name": "B1",
          "midi": 35,
          "time": 121.73910000000048,
          "velocity": 0.7480314960629921,
          "duration": 0.2173912500000057
        },
        {
          "name": "A#2",
          "midi": 46,
          "time": 121.95649125000048,
          "velocity": 0.7480314960629921,
          "duration": 0.2173912500000057
        },
        {
          "name": "A#2",
          "midi": 46,
          "time": 122.17388250000049,
          "velocity": 0.7480314960629921,
          "duration": 0.2173912500000057
        },
        {
          "name": "D2",
          "midi": 38,
          "time": 122.17388250000049,
          "velocity": 0.7480314960629921,
          "duration": 0.2173912500000057
        },
        {
          "name": "A#2",
          "midi": 46,
          "time": 122.3912737500005,
          "velocity": 0.7480314960629921,
          "duration": 0.10869562499999574
        },
        {
          "name": "B1",
          "midi": 35,
          "time": 122.3912737500005,
          "velocity": 0.7480314960629921,
          "duration": 0.10869562499999574
        },
        {
          "name": "D2",
          "midi": 38,
          "time": 122.49996937500049,
          "velocity": 0.7480314960629921,
          "duration": 0.10869562499999574
        },
        {
          "name": "A#2",
          "midi": 46,
          "time": 122.60866500000049,
          "velocity": 0.7480314960629921,
          "duration": 0.10869562499999574
        },
        {
          "name": "D2",
          "midi": 38,
          "time": 122.60866500000049,
          "velocity": 0.7480314960629921,
          "duration": 0.10869562499999574
        },
        {
          "name": "A#2",
          "midi": 46,
          "time": 122.82605625000048,
          "velocity": 0.7480314960629921,
          "duration": 0.10869562499999574
        },
        {
          "name": "B1",
          "midi": 35,
          "time": 122.82605625000048,
          "velocity": 0.7480314960629921,
          "duration": 0.10869562499999574
        },
        {
          "name": "A#2",
          "midi": 46,
          "time": 123.04344750000047,
          "velocity": 0.7480314960629921,
          "duration": 0.10869562499999574
        },
        {
          "name": "D2",
          "midi": 38,
          "time": 123.04344750000047,
          "velocity": 0.7480314960629921,
          "duration": 0.10869562499999574
        },
        {
          "name": "A#2",
          "midi": 46,
          "time": 123.15214312500046,
          "velocity": 0.7480314960629921,
          "duration": 0.10869562499999574
        },
        {
          "name": "A#2",
          "midi": 46,
          "time": 123.26083875000046,
          "velocity": 0.7480314960629921,
          "duration": 0.2173912500000057
        },
        {
          "name": "A#2",
          "midi": 46,
          "time": 123.47823000000047,
          "velocity": 0.7480314960629921,
          "duration": 0.2173912500000057
        },
        {
          "name": "B1",
          "midi": 35,
          "time": 123.47823000000047,
          "velocity": 0.7480314960629921,
          "duration": 0.2173912500000057
        },
        {
          "name": "A#2",
          "midi": 46,
          "time": 123.69562125000047,
          "velocity": 0.7480314960629921,
          "duration": 0.2173912500000057
        },
        {
          "name": "A#2",
          "midi": 46,
          "time": 123.91301250000048,
          "velocity": 0.7480314960629921,
          "duration": 0.2173912500000057
        },
        {
          "name": "D2",
          "midi": 38,
          "time": 123.91301250000048,
          "velocity": 0.7480314960629921,
          "duration": 0.2173912500000057
        },
        {
          "name": "A#2",
          "midi": 46,
          "time": 124.13040375000048,
          "velocity": 0.7480314960629921,
          "duration": 0.2173912500000057
        },
        {
          "name": "A#2",
          "midi": 46,
          "time": 124.34779500000049,
          "velocity": 0.7480314960629921,
          "duration": 0.2173912500000057
        },
        {
          "name": "B1",
          "midi": 35,
          "time": 124.34779500000049,
          "velocity": 0.7480314960629921,
          "duration": 0.2173912500000057
        },
        {
          "name": "A#2",
          "midi": 46,
          "time": 124.5651862500005,
          "velocity": 0.7480314960629921,
          "duration": 0.2173912500000057
        },
        {
          "name": "A#2",
          "midi": 46,
          "time": 124.7825775000005,
          "velocity": 0.7480314960629921,
          "duration": 0.2173912500000057
        },
        {
          "name": "D2",
          "midi": 38,
          "time": 124.7825775000005,
          "velocity": 0.7480314960629921,
          "duration": 0.2173912500000057
        },
        {
          "name": "A#2",
          "midi": 46,
          "time": 124.9999687500005,
          "velocity": 0.7480314960629921,
          "duration": 0.2173912500000057
        },
        {
          "name": "C#3",
          "midi": 49,
          "time": 125.21736000000051,
          "velocity": 0.7480314960629921,
          "duration": 0.2173912500000057
        },
        {
          "name": "B1",
          "midi": 35,
          "time": 125.21736000000051,
          "velocity": 0.7480314960629921,
          "duration": 0.2173912500000057
        },
        {
          "name": "A#2",
          "midi": 46,
          "time": 125.43475125000052,
          "velocity": 0.7480314960629921,
          "duration": 0.2173912500000057
        },
        {
          "name": "A#2",
          "midi": 46,
          "time": 125.65214250000052,
          "velocity": 0.7480314960629921,
          "duration": 0.2173912500000057
        },
        {
          "name": "D2",
          "midi": 38,
          "time": 125.65214250000052,
          "velocity": 0.7480314960629921,
          "duration": 0.2173912500000057
        },
        {
          "name": "A#2",
          "midi": 46,
          "time": 125.86953375000053,
          "velocity": 0.7480314960629921,
          "duration": 0.10869562499999574
        },
        {
          "name": "B1",
          "midi": 35,
          "time": 125.86953375000053,
          "velocity": 0.7480314960629921,
          "duration": 0.10869562499999574
        },
        {
          "name": "D2",
          "midi": 38,
          "time": 125.97822937500052,
          "velocity": 0.7480314960629921,
          "duration": 0.10869562499999574
        },
        {
          "name": "A#2",
          "midi": 46,
          "time": 126.08692500000052,
          "velocity": 0.7480314960629921,
          "duration": 0.10869562499999574
        },
        {
          "name": "D2",
          "midi": 38,
          "time": 126.08692500000052,
          "velocity": 0.7480314960629921,
          "duration": 0.10869562499999574
        },
        {
          "name": "A#2",
          "midi": 46,
          "time": 126.30431625000051,
          "velocity": 0.7480314960629921,
          "duration": 0.10869562499999574
        },
        {
          "name": "B1",
          "midi": 35,
          "time": 126.30431625000051,
          "velocity": 0.7480314960629921,
          "duration": 0.10869562499999574
        },
        {
          "name": "A#2",
          "midi": 46,
          "time": 126.5217075000005,
          "velocity": 0.7480314960629921,
          "duration": 0.10869562499999574
        },
        {
          "name": "D2",
          "midi": 38,
          "time": 126.5217075000005,
          "velocity": 0.7480314960629921,
          "duration": 0.10869562499999574
        },
        {
          "name": "A#2",
          "midi": 46,
          "time": 126.6304031250005,
          "velocity": 0.7480314960629921,
          "duration": 0.10869562499999574
        },
        {
          "name": "A#2",
          "midi": 46,
          "time": 126.7390987500005,
          "velocity": 0.7480314960629921,
          "duration": 0.2173912500000057
        },
        {
          "name": "A#2",
          "midi": 46,
          "time": 126.9564900000005,
          "velocity": 0.7480314960629921,
          "duration": 0.2173912500000057
        },
        {
          "name": "B1",
          "midi": 35,
          "time": 126.9564900000005,
          "velocity": 0.7480314960629921,
          "duration": 0.2173912500000057
        },
        {
          "name": "A#2",
          "midi": 46,
          "time": 127.1738812500005,
          "velocity": 0.7480314960629921,
          "duration": 0.2173912500000057
        },
        {
          "name": "A#2",
          "midi": 46,
          "time": 127.39127250000051,
          "velocity": 0.7480314960629921,
          "duration": 0.2173912500000057
        },
        {
          "name": "D2",
          "midi": 38,
          "time": 127.39127250000051,
          "velocity": 0.7480314960629921,
          "duration": 0.2173912500000057
        },
        {
          "name": "A#2",
          "midi": 46,
          "time": 127.60866375000052,
          "velocity": 0.7480314960629921,
          "duration": 0.2173912500000057
        },
        {
          "name": "A#2",
          "midi": 46,
          "time": 127.82605500000052,
          "velocity": 0.7480314960629921,
          "duration": 0.2173912500000057
        },
        {
          "name": "D2",
          "midi": 38,
          "time": 127.82605500000052,
          "velocity": 0.7480314960629921,
          "duration": 0.2173912500000057
        },
        {
          "name": "D2",
          "midi": 38,
          "time": 128.04344625000053,
          "velocity": 0.7480314960629921,
          "duration": 0.10869562499999574
        },
        {
          "name": "D2",
          "midi": 38,
          "time": 128.15214187500052,
          "velocity": 0.7480314960629921,
          "duration": 0.10869562499999574
        },
        {
          "name": "D2",
          "midi": 38,
          "time": 128.26083750000052,
          "velocity": 0.7480314960629921,
          "duration": 0.10869562499999574
        },
        {
          "name": "D2",
          "midi": 38,
          "time": 128.36953312500052,
          "velocity": 0.7480314960629921,
          "duration": 0.10869562499999574
        },
        {
          "name": "D2",
          "midi": 38,
          "time": 128.4782287500005,
          "velocity": 0.7480314960629921,
          "duration": 0.10869562499999574
        },
        {
          "name": "D2",
          "midi": 38,
          "time": 128.5869243750005,
          "velocity": 0.7480314960629921,
          "duration": 0.10869562499999574
        },
        {
          "name": "C#3",
          "midi": 49,
          "time": 128.6956200000005,
          "velocity": 0.7480314960629921,
          "duration": 0.2173912499999915
        },
        {
          "name": "B1",
          "midi": 35,
          "time": 128.6956200000005,
          "velocity": 0.7480314960629921,
          "duration": 0.2173912499999915
        },
        {
          "name": "A#2",
          "midi": 46,
          "time": 128.9130112500005,
          "velocity": 0.7480314960629921,
          "duration": 0.2173912499999915
        },
        {
          "name": "A#2",
          "midi": 46,
          "time": 129.13040250000049,
          "velocity": 0.7480314960629921,
          "duration": 0.2173912499999915
        },
        {
          "name": "D2",
          "midi": 38,
          "time": 129.13040250000049,
          "velocity": 0.7480314960629921,
          "duration": 0.2173912499999915
        },
        {
          "name": "A#2",
          "midi": 46,
          "time": 129.34779375000048,
          "velocity": 0.7480314960629921,
          "duration": 0.10869562499999574
        },
        {
          "name": "B1",
          "midi": 35,
          "time": 129.34779375000048,
          "velocity": 0.7480314960629921,
          "duration": 0.10869562499999574
        },
        {
          "name": "D2",
          "midi": 38,
          "time": 129.45648937500047,
          "velocity": 0.7480314960629921,
          "duration": 0.10869562499999574
        },
        {
          "name": "A#2",
          "midi": 46,
          "time": 129.56518500000047,
          "velocity": 0.7480314960629921,
          "duration": 0.10869562499999574
        },
        {
          "name": "D2",
          "midi": 38,
          "time": 129.56518500000047,
          "velocity": 0.7480314960629921,
          "duration": 0.10869562499999574
        },
        {
          "name": "A#2",
          "midi": 46,
          "time": 129.78257625000046,
          "velocity": 0.7480314960629921,
          "duration": 0.10869562499999574
        },
        {
          "name": "B1",
          "midi": 35,
          "time": 129.78257625000046,
          "velocity": 0.7480314960629921,
          "duration": 0.10869562499999574
        },
        {
          "name": "A#2",
          "midi": 46,
          "time": 129.99996750000045,
          "velocity": 0.7480314960629921,
          "duration": 0.10869562499999574
        },
        {
          "name": "D2",
          "midi": 38,
          "time": 129.99996750000045,
          "velocity": 0.7480314960629921,
          "duration": 0.10869562499999574
        },
        {
          "name": "A#2",
          "midi": 46,
          "time": 130.10866312500045,
          "velocity": 0.7480314960629921,
          "duration": 0.10869562499999574
        },
        {
          "name": "A#2",
          "midi": 46,
          "time": 130.21735875000044,
          "velocity": 0.7480314960629921,
          "duration": 0.2173912499999915
        },
        {
          "name": "A#2",
          "midi": 46,
          "time": 130.43475000000043,
          "velocity": 0.7480314960629921,
          "duration": 0.2173912499999915
        },
        {
          "name": "B1",
          "midi": 35,
          "time": 130.43475000000043,
          "velocity": 0.7480314960629921,
          "duration": 0.2173912499999915
        },
        {
          "name": "A#2",
          "midi": 46,
          "time": 130.65214125000043,
          "velocity": 0.7480314960629921,
          "duration": 0.2173912499999915
        },
        {
          "name": "A#2",
          "midi": 46,
          "time": 130.86953250000042,
          "velocity": 0.7480314960629921,
          "duration": 0.2173912499999915
        },
        {
          "name": "D2",
          "midi": 38,
          "time": 130.86953250000042,
          "velocity": 0.7480314960629921,
          "duration": 0.2173912499999915
        },
        {
          "name": "A#2",
          "midi": 46,
          "time": 131.0869237500004,
          "velocity": 0.7480314960629921,
          "duration": 0.2173912499999915
        },
        {
          "name": "A#2",
          "midi": 46,
          "time": 131.3043150000004,
          "velocity": 0.7480314960629921,
          "duration": 0.2173912499999915
        },
        {
          "name": "B1",
          "midi": 35,
          "time": 131.3043150000004,
          "velocity": 0.7480314960629921,
          "duration": 0.2173912499999915
        },
        {
          "name": "A#2",
          "midi": 46,
          "time": 131.5217062500004,
          "velocity": 0.7480314960629921,
          "duration": 0.2173912499999915
        },
        {
          "name": "A#2",
          "midi": 46,
          "time": 131.73909750000038,
          "velocity": 0.7480314960629921,
          "duration": 0.2173912499999915
        },
        {
          "name": "D2",
          "midi": 38,
          "time": 131.73909750000038,
          "velocity": 0.7480314960629921,
          "duration": 0.2173912499999915
        },
        {
          "name": "A#2",
          "midi": 46,
          "time": 131.95648875000037,
          "velocity": 0.7480314960629921,
          "duration": 0.2173912499999915
        },
        {
          "name": "C#3",
          "midi": 49,
          "time": 132.17388000000037,
          "velocity": 0.7480314960629921,
          "duration": 0.2173912499999915
        },
        {
          "name": "B1",
          "midi": 35,
          "time": 132.17388000000037,
          "velocity": 0.7480314960629921,
          "duration": 0.2173912499999915
        },
        {
          "name": "A#2",
          "midi": 46,
          "time": 132.39127125000036,
          "velocity": 0.7480314960629921,
          "duration": 0.2173912499999915
        },
        {
          "name": "A#2",
          "midi": 46,
          "time": 132.60866250000035,
          "velocity": 0.7480314960629921,
          "duration": 0.2173912499999915
        },
        {
          "name": "D2",
          "midi": 38,
          "time": 132.60866250000035,
          "velocity": 0.7480314960629921,
          "duration": 0.2173912499999915
        },
        {
          "name": "A#2",
          "midi": 46,
          "time": 132.82605375000034,
          "velocity": 0.7480314960629921,
          "duration": 0.10869562499999574
        },
        {
          "name": "B1",
          "midi": 35,
          "time": 132.82605375000034,
          "velocity": 0.7480314960629921,
          "duration": 0.10869562499999574
        },
        {
          "name": "D2",
          "midi": 38,
          "time": 132.93474937500034,
          "velocity": 0.7480314960629921,
          "duration": 0.10869562499999574
        },
        {
          "name": "A#2",
          "midi": 46,
          "time": 133.04344500000033,
          "velocity": 0.7480314960629921,
          "duration": 0.10869562499999574
        },
        {
          "name": "D2",
          "midi": 38,
          "time": 133.04344500000033,
          "velocity": 0.7480314960629921,
          "duration": 0.10869562499999574
        },
        {
          "name": "A#2",
          "midi": 46,
          "time": 133.26083625000032,
          "velocity": 0.7480314960629921,
          "duration": 0.10869562499999574
        },
        {
          "name": "B1",
          "midi": 35,
          "time": 133.26083625000032,
          "velocity": 0.7480314960629921,
          "duration": 0.10869562499999574
        },
        {
          "name": "A#2",
          "midi": 46,
          "time": 133.47822750000032,
          "velocity": 0.7480314960629921,
          "duration": 0.10869562499999574
        },
        {
          "name": "D2",
          "midi": 38,
          "time": 133.47822750000032,
          "velocity": 0.7480314960629921,
          "duration": 0.10869562499999574
        },
        {
          "name": "A#2",
          "midi": 46,
          "time": 133.5869231250003,
          "velocity": 0.7480314960629921,
          "duration": 0.10869562499999574
        },
        {
          "name": "A#2",
          "midi": 46,
          "time": 133.6956187500003,
          "velocity": 0.7480314960629921,
          "duration": 0.2173912499999915
        },
        {
          "name": "A#2",
          "midi": 46,
          "time": 133.9130100000003,
          "velocity": 0.7480314960629921,
          "duration": 0.2173912499999915
        },
        {
          "name": "B1",
          "midi": 35,
          "time": 133.9130100000003,
          "velocity": 0.7480314960629921,
          "duration": 0.2173912499999915
        },
        {
          "name": "A#2",
          "midi": 46,
          "time": 134.1304012500003,
          "velocity": 0.7480314960629921,
          "duration": 0.2173912499999915
        },
        {
          "name": "A#2",
          "midi": 46,
          "time": 134.34779250000028,
          "velocity": 0.7480314960629921,
          "duration": 0.2173912499999915
        },
        {
          "name": "D2",
          "midi": 38,
          "time": 134.34779250000028,
          "velocity": 0.7480314960629921,
          "duration": 0.2173912499999915
        },
        {
          "name": "A#2",
          "midi": 46,
          "time": 134.56518375000027,
          "velocity": 0.7480314960629921,
          "duration": 0.2173912499999915
        },
        {
          "name": "A#2",
          "midi": 46,
          "time": 134.78257500000026,
          "velocity": 0.7480314960629921,
          "duration": 0.2173912499999915
        },
        {
          "name": "D2",
          "midi": 38,
          "time": 134.78257500000026,
          "velocity": 0.7480314960629921,
          "duration": 0.2173912499999915
        },
        {
          "name": "D2",
          "midi": 38,
          "time": 134.99996625000026,
          "velocity": 0.7480314960629921,
          "duration": 0.10869562499999574
        },
        {
          "name": "D2",
          "midi": 38,
          "time": 135.10866187500025,
          "velocity": 0.7480314960629921,
          "duration": 0.10869562499999574
        },
        {
          "name": "D2",
          "midi": 38,
          "time": 135.21735750000025,
          "velocity": 0.7480314960629921,
          "duration": 0.10869562499999574
        },
        {
          "name": "D2",
          "midi": 38,
          "time": 135.32605312500024,
          "velocity": 0.7480314960629921,
          "duration": 0.10869562499999574
        },
        {
          "name": "D2",
          "midi": 38,
          "time": 135.43474875000024,
          "velocity": 0.7480314960629921,
          "duration": 0.10869562499999574
        },
        {
          "name": "D2",
          "midi": 38,
          "time": 135.54344437500023,
          "velocity": 0.7480314960629921,
          "duration": 0.10869562499999574
        },
        {
          "name": "C#3",
          "midi": 49,
          "time": 135.65214000000023,
          "velocity": 0.7480314960629921,
          "duration": 0.2173912499999915
        },
        {
          "name": "B1",
          "midi": 35,
          "time": 135.65214000000023,
          "velocity": 0.7480314960629921,
          "duration": 0.2173912499999915
        },
        {
          "name": "A#2",
          "midi": 46,
          "time": 135.86953125000022,
          "velocity": 0.7480314960629921,
          "duration": 0.2173912499999915
        },
        {
          "name": "A#2",
          "midi": 46,
          "time": 136.0869225000002,
          "velocity": 0.7480314960629921,
          "duration": 0.2173912499999915
        },
        {
          "name": "D2",
          "midi": 38,
          "time": 136.0869225000002,
          "velocity": 0.7480314960629921,
          "duration": 0.2173912499999915
        },
        {
          "name": "A#2",
          "midi": 46,
          "time": 136.3043137500002,
          "velocity": 0.7480314960629921,
          "duration": 0.10869562499999574
        },
        {
          "name": "B1",
          "midi": 35,
          "time": 136.3043137500002,
          "velocity": 0.7480314960629921,
          "duration": 0.10869562499999574
        },
        {
          "name": "D2",
          "midi": 38,
          "time": 136.4130093750002,
          "velocity": 0.7480314960629921,
          "duration": 0.10869562499999574
        },
        {
          "name": "A#2",
          "midi": 46,
          "time": 136.5217050000002,
          "velocity": 0.7480314960629921,
          "duration": 0.10869562499999574
        },
        {
          "name": "D2",
          "midi": 38,
          "time": 136.5217050000002,
          "velocity": 0.7480314960629921,
          "duration": 0.10869562499999574
        },
        {
          "name": "A#2",
          "midi": 46,
          "time": 136.7390962500002,
          "velocity": 0.7480314960629921,
          "duration": 0.10869562499999574
        },
        {
          "name": "B1",
          "midi": 35,
          "time": 136.7390962500002,
          "velocity": 0.7480314960629921,
          "duration": 0.10869562499999574
        },
        {
          "name": "A#2",
          "midi": 46,
          "time": 136.95648750000018,
          "velocity": 0.7480314960629921,
          "duration": 0.10869562499999574
        },
        {
          "name": "D2",
          "midi": 38,
          "time": 136.95648750000018,
          "velocity": 0.7480314960629921,
          "duration": 0.10869562499999574
        },
        {
          "name": "A#2",
          "midi": 46,
          "time": 137.06518312500017,
          "velocity": 0.7480314960629921,
          "duration": 0.10869562499999574
        },
        {
          "name": "A#2",
          "midi": 46,
          "time": 137.17387875000017,
          "velocity": 0.7480314960629921,
          "duration": 0.2173912499999915
        },
        {
          "name": "A#2",
          "midi": 46,
          "time": 137.39127000000016,
          "velocity": 0.7480314960629921,
          "duration": 0.2173912499999915
        },
        {
          "name": "B1",
          "midi": 35,
          "time": 137.39127000000016,
          "velocity": 0.7480314960629921,
          "duration": 0.2173912499999915
        },
        {
          "name": "A#2",
          "midi": 46,
          "time": 137.60866125000015,
          "velocity": 0.7480314960629921,
          "duration": 0.2173912499999915
        },
        {
          "name": "A#2",
          "midi": 46,
          "time": 137.82605250000015,
          "velocity": 0.7480314960629921,
          "duration": 0.2173912499999915
        },
        {
          "name": "D2",
          "midi": 38,
          "time": 137.82605250000015,
          "velocity": 0.7480314960629921,
          "duration": 0.2173912499999915
        },
        {
          "name": "A#2",
          "midi": 46,
          "time": 138.04344375000014,
          "velocity": 0.7480314960629921,
          "duration": 0.2173912499999915
        },
        {
          "name": "A#2",
          "midi": 46,
          "time": 138.26083500000013,
          "velocity": 0.7480314960629921,
          "duration": 0.2173912499999915
        },
        {
          "name": "B1",
          "midi": 35,
          "time": 138.26083500000013,
          "velocity": 0.7480314960629921,
          "duration": 0.2173912499999915
        },
        {
          "name": "A#2",
          "midi": 46,
          "time": 138.47822625000012,
          "velocity": 0.7480314960629921,
          "duration": 0.2173912499999915
        },
        {
          "name": "A#2",
          "midi": 46,
          "time": 138.6956175000001,
          "velocity": 0.7480314960629921,
          "duration": 0.2173912499999915
        },
        {
          "name": "D2",
          "midi": 38,
          "time": 138.6956175000001,
          "velocity": 0.7480314960629921,
          "duration": 0.2173912499999915
        },
        {
          "name": "A#2",
          "midi": 46,
          "time": 138.9130087500001,
          "velocity": 0.7480314960629921,
          "duration": 0.2173912499999915
        },
        {
          "name": "C#3",
          "midi": 49,
          "time": 139.1304000000001,
          "velocity": 0.7480314960629921,
          "duration": 0.2173912499999915
        },
        {
          "name": "B1",
          "midi": 35,
          "time": 139.1304000000001,
          "velocity": 0.7480314960629921,
          "duration": 0.2173912499999915
        },
        {
          "name": "A#2",
          "midi": 46,
          "time": 139.34779125000009,
          "velocity": 0.7480314960629921,
          "duration": 0.2173912499999915
        },
        {
          "name": "A#2",
          "midi": 46,
          "time": 139.56518250000008,
          "velocity": 0.7480314960629921,
          "duration": 0.2173912499999915
        },
        {
          "name": "D2",
          "midi": 38,
          "time": 139.56518250000008,
          "velocity": 0.7480314960629921,
          "duration": 0.2173912499999915
        },
        {
          "name": "A#2",
          "midi": 46,
          "time": 139.78257375000007,
          "velocity": 0.7480314960629921,
          "duration": 0.10869562499999574
        },
        {
          "name": "B1",
          "midi": 35,
          "time": 139.78257375000007,
          "velocity": 0.7480314960629921,
          "duration": 0.10869562499999574
        },
        {
          "name": "D2",
          "midi": 38,
          "time": 139.89126937500006,
          "velocity": 0.7480314960629921,
          "duration": 0.10869562499999574
        },
        {
          "name": "A#2",
          "midi": 46,
          "time": 139.99996500000006,
          "velocity": 0.7480314960629921,
          "duration": 0.10869562499999574
        },
        {
          "name": "D2",
          "midi": 38,
          "time": 139.99996500000006,
          "velocity": 0.7480314960629921,
          "duration": 0.10869562499999574
        },
        {
          "name": "A#2",
          "midi": 46,
          "time": 140.21735625000005,
          "velocity": 0.7480314960629921,
          "duration": 0.10869562499999574
        },
        {
          "name": "B1",
          "midi": 35,
          "time": 140.21735625000005,
          "velocity": 0.7480314960629921,
          "duration": 0.10869562499999574
        },
        {
          "name": "A#2",
          "midi": 46,
          "time": 140.43474750000004,
          "velocity": 0.7480314960629921,
          "duration": 0.10869562499999574
        },
        {
          "name": "D2",
          "midi": 38,
          "time": 140.43474750000004,
          "velocity": 0.7480314960629921,
          "duration": 0.10869562499999574
        },
        {
          "name": "A#2",
          "midi": 46,
          "time": 140.54344312500004,
          "velocity": 0.7480314960629921,
          "duration": 0.10869562499999574
        },
        {
          "name": "A#2",
          "midi": 46,
          "time": 140.65213875000003,
          "velocity": 0.7480314960629921,
          "duration": 0.2173912499999915
        },
        {
          "name": "A#2",
          "midi": 46,
          "time": 140.86953000000003,
          "velocity": 0.7480314960629921,
          "duration": 0.2173912499999915
        },
        {
          "name": "B1",
          "midi": 35,
          "time": 140.86953000000003,
          "velocity": 0.7480314960629921,
          "duration": 0.2173912499999915
        },
        {
          "name": "A#2",
          "midi": 46,
          "time": 141.08692125000002,
          "velocity": 0.7480314960629921,
          "duration": 0.2173912499999915
        },
        {
          "name": "A#2",
          "midi": 46,
          "time": 141.3043125,
          "velocity": 0.7480314960629921,
          "duration": 0.2173912499999915
        },
        {
          "name": "D2",
          "midi": 38,
          "time": 141.3043125,
          "velocity": 0.7480314960629921,
          "duration": 0.2173912499999915
        },
        {
          "name": "A#2",
          "midi": 46,
          "time": 141.52170375,
          "velocity": 0.7480314960629921,
          "duration": 0.2173912499999915
        },
        {
          "name": "A#2",
          "midi": 46,
          "time": 141.739095,
          "velocity": 0.7480314960629921,
          "duration": 0.2173912499999915
        },
        {
          "name": "D2",
          "midi": 38,
          "time": 141.739095,
          "velocity": 0.7480314960629921,
          "duration": 0.2173912499999915
        },
        {
          "name": "D2",
          "midi": 38,
          "time": 141.95648624999998,
          "velocity": 0.7480314960629921,
          "duration": 0.10869562499999574
        },
        {
          "name": "D2",
          "midi": 38,
          "time": 142.06518187499998,
          "velocity": 0.7480314960629921,
          "duration": 0.10869562499999574
        },
        {
          "name": "D2",
          "midi": 38,
          "time": 142.17387749999997,
          "velocity": 0.7480314960629921,
          "duration": 0.10869562499999574
        },
        {
          "name": "D2",
          "midi": 38,
          "time": 142.28257312499997,
          "velocity": 0.7480314960629921,
          "duration": 0.10869562499999574
        },
        {
          "name": "D2",
          "midi": 38,
          "time": 142.39126874999997,
          "velocity": 0.7480314960629921,
          "duration": 0.10869562499999574
        },
        {
          "name": "D2",
          "midi": 38,
          "time": 142.49996437499996,
          "velocity": 0.7480314960629921,
          "duration": 0.10869562499999574
        },
        {
          "name": "C#3",
          "midi": 49,
          "time": 142.60865999999996,
          "velocity": 0.7480314960629921,
          "duration": 0.2173912499999915
        },
        {
          "name": "B1",
          "midi": 35,
          "time": 142.60865999999996,
          "velocity": 0.7480314960629921,
          "duration": 0.2173912499999915
        },
        {
          "name": "A#2",
          "midi": 46,
          "time": 142.82605124999995,
          "velocity": 0.7480314960629921,
          "duration": 0.2173912499999915
        },
        {
          "name": "A#2",
          "midi": 46,
          "time": 143.04344249999994,
          "velocity": 0.7480314960629921,
          "duration": 0.2173912499999915
        },
        {
          "name": "D2",
          "midi": 38,
          "time": 143.04344249999994,
          "velocity": 0.7480314960629921,
          "duration": 0.2173912499999915
        },
        {
          "name": "A#2",
          "midi": 46,
          "time": 143.26083374999993,
          "velocity": 0.7480314960629921,
          "duration": 0.10869562499999574
        },
        {
          "name": "B1",
          "midi": 35,
          "time": 143.26083374999993,
          "velocity": 0.7480314960629921,
          "duration": 0.10869562499999574
        },
        {
          "name": "D2",
          "midi": 38,
          "time": 143.36952937499993,
          "velocity": 0.7480314960629921,
          "duration": 0.10869562499999574
        },
        {
          "name": "A#2",
          "midi": 46,
          "time": 143.47822499999992,
          "velocity": 0.7480314960629921,
          "duration": 0.10869562499999574
        },
        {
          "name": "D2",
          "midi": 38,
          "time": 143.47822499999992,
          "velocity": 0.7480314960629921,
          "duration": 0.10869562499999574
        },
        {
          "name": "A#2",
          "midi": 46,
          "time": 143.69561624999992,
          "velocity": 0.7480314960629921,
          "duration": 0.10869562499999574
        },
        {
          "name": "B1",
          "midi": 35,
          "time": 143.69561624999992,
          "velocity": 0.7480314960629921,
          "duration": 0.10869562499999574
        },
        {
          "name": "A#2",
          "midi": 46,
          "time": 143.9130074999999,
          "velocity": 0.7480314960629921,
          "duration": 0.10869562499999574
        },
        {
          "name": "D2",
          "midi": 38,
          "time": 143.9130074999999,
          "velocity": 0.7480314960629921,
          "duration": 0.10869562499999574
        },
        {
          "name": "A#2",
          "midi": 46,
          "time": 144.0217031249999,
          "velocity": 0.7480314960629921,
          "duration": 0.10869562499999574
        },
        {
          "name": "A#2",
          "midi": 46,
          "time": 144.1303987499999,
          "velocity": 0.7480314960629921,
          "duration": 0.2173912499999915
        },
        {
          "name": "A#2",
          "midi": 46,
          "time": 144.3477899999999,
          "velocity": 0.7480314960629921,
          "duration": 0.2173912499999915
        },
        {
          "name": "B1",
          "midi": 35,
          "time": 144.3477899999999,
          "velocity": 0.7480314960629921,
          "duration": 0.2173912499999915
        },
        {
          "name": "A#2",
          "midi": 46,
          "time": 144.56518124999988,
          "velocity": 0.7480314960629921,
          "duration": 0.2173912499999915
        },
        {
          "name": "A#2",
          "midi": 46,
          "time": 144.78257249999987,
          "velocity": 0.7480314960629921,
          "duration": 0.2173912499999915
        },
        {
          "name": "D2",
          "midi": 38,
          "time": 144.78257249999987,
          "velocity": 0.7480314960629921,
          "duration": 0.2173912499999915
        },
        {
          "name": "A#2",
          "midi": 46,
          "time": 144.99996374999986,
          "velocity": 0.7480314960629921,
          "duration": 0.2173912499999915
        },
        {
          "name": "A#2",
          "midi": 46,
          "time": 145.21735499999986,
          "velocity": 0.7480314960629921,
          "duration": 0.2173912499999915
        },
        {
          "name": "B1",
          "midi": 35,
          "time": 145.21735499999986,
          "velocity": 0.7480314960629921,
          "duration": 0.2173912499999915
        },
        {
          "name": "A#2",
          "midi": 46,
          "time": 145.43474624999985,
          "velocity": 0.7480314960629921,
          "duration": 0.2173912499999915
        },
        {
          "name": "A#2",
          "midi": 46,
          "time": 145.65213749999984,
          "velocity": 0.7480314960629921,
          "duration": 0.2173912499999915
        },
        {
          "name": "D2",
          "midi": 38,
          "time": 145.65213749999984,
          "velocity": 0.7480314960629921,
          "duration": 0.2173912499999915
        },
        {
          "name": "A#2",
          "midi": 46,
          "time": 145.86952874999983,
          "velocity": 0.7480314960629921,
          "duration": 0.2173912499999915
        },
        {
          "name": "C#3",
          "midi": 49,
          "time": 146.08691999999982,
          "velocity": 0.7480314960629921,
          "duration": 0.2173912499999915
        },
        {
          "name": "B1",
          "midi": 35,
          "time": 146.08691999999982,
          "velocity": 0.7480314960629921,
          "duration": 0.2173912499999915
        },
        {
          "name": "A#2",
          "midi": 46,
          "time": 146.3043112499998,
          "velocity": 0.7480314960629921,
          "duration": 0.2173912499999915
        },
        {
          "name": "A#2",
          "midi": 46,
          "time": 146.5217024999998,
          "velocity": 0.7480314960629921,
          "duration": 0.2173912499999915
        },
        {
          "name": "D2",
          "midi": 38,
          "time": 146.5217024999998,
          "velocity": 0.7480314960629921,
          "duration": 0.2173912499999915
        },
        {
          "name": "A#2",
          "midi": 46,
          "time": 146.7390937499998,
          "velocity": 0.7480314960629921,
          "duration": 0.10869562499999574
        },
        {
          "name": "B1",
          "midi": 35,
          "time": 146.7390937499998,
          "velocity": 0.7480314960629921,
          "duration": 0.10869562499999574
        },
        {
          "name": "D2",
          "midi": 38,
          "time": 146.8477893749998,
          "velocity": 0.7480314960629921,
          "duration": 0.10869562499999574
        },
        {
          "name": "A#2",
          "midi": 46,
          "time": 146.9564849999998,
          "velocity": 0.7480314960629921,
          "duration": 0.10869562499999574
        },
        {
          "name": "D2",
          "midi": 38,
          "time": 146.9564849999998,
          "velocity": 0.7480314960629921,
          "duration": 0.10869562499999574
        },
        {
          "name": "A#2",
          "midi": 46,
          "time": 147.17387624999978,
          "velocity": 0.7480314960629921,
          "duration": 0.10869562499999574
        },
        {
          "name": "B1",
          "midi": 35,
          "time": 147.17387624999978,
          "velocity": 0.7480314960629921,
          "duration": 0.10869562499999574
        },
        {
          "name": "A#2",
          "midi": 46,
          "time": 147.39126749999977,
          "velocity": 0.7480314960629921,
          "duration": 0.10869562499999574
        },
        {
          "name": "D2",
          "midi": 38,
          "time": 147.39126749999977,
          "velocity": 0.7480314960629921,
          "duration": 0.10869562499999574
        },
        {
          "name": "A#2",
          "midi": 46,
          "time": 147.49996312499977,
          "velocity": 0.7480314960629921,
          "duration": 0.10869562499999574
        },
        {
          "name": "A#2",
          "midi": 46,
          "time": 147.60865874999976,
          "velocity": 0.7480314960629921,
          "duration": 0.2173912499999915
        },
        {
          "name": "A#2",
          "midi": 46,
          "time": 147.82604999999975,
          "velocity": 0.7480314960629921,
          "duration": 0.2173912499999915
        },
        {
          "name": "B1",
          "midi": 35,
          "time": 147.82604999999975,
          "velocity": 0.7480314960629921,
          "duration": 0.2173912499999915
        },
        {
          "name": "A#2",
          "midi": 46,
          "time": 148.04344124999974,
          "velocity": 0.7480314960629921,
          "duration": 0.2173912499999915
        },
        {
          "name": "A#2",
          "midi": 46,
          "time": 148.26083249999974,
          "velocity": 0.7480314960629921,
          "duration": 0.2173912499999915
        },
        {
          "name": "D2",
          "midi": 38,
          "time": 148.26083249999974,
          "velocity": 0.7480314960629921,
          "duration": 0.2173912499999915
        },
        {
          "name": "A#2",
          "midi": 46,
          "time": 148.47822374999973,
          "velocity": 0.7480314960629921,
          "duration": 0.2173912499999915
        },
        {
          "name": "A#2",
          "midi": 46,
          "time": 148.69561499999972,
          "velocity": 0.7480314960629921,
          "duration": 0.2173912499999915
        },
        {
          "name": "B1",
          "midi": 35,
          "time": 148.69561499999972,
          "velocity": 0.7480314960629921,
          "duration": 0.2173912499999915
        },
        {
          "name": "A#2",
          "midi": 46,
          "time": 148.9130062499997,
          "velocity": 0.7480314960629921,
          "duration": 0.2173912499999915
        },
        {
          "name": "A#2",
          "midi": 46,
          "time": 149.1303974999997,
          "velocity": 0.7480314960629921,
          "duration": 0.2173912499999915
        },
        {
          "name": "D2",
          "midi": 38,
          "time": 149.1303974999997,
          "velocity": 0.7480314960629921,
          "duration": 0.2173912499999915
        },
        {
          "name": "A#2",
          "midi": 46,
          "time": 149.3477887499997,
          "velocity": 0.7480314960629921,
          "duration": 0.2173912499999915
        },
        {
          "name": "C#3",
          "midi": 49,
          "time": 149.56517999999969,
          "velocity": 0.7480314960629921,
          "duration": 0.2173912499999915
        },
        {
          "name": "B1",
          "midi": 35,
          "time": 149.56517999999969,
          "velocity": 0.7480314960629921,
          "duration": 0.2173912499999915
        },
        {
          "name": "A#2",
          "midi": 46,
          "time": 149.78257124999968,
          "velocity": 0.7480314960629921,
          "duration": 0.2173912499999915
        },
        {
          "name": "A#2",
          "midi": 46,
          "time": 149.99996249999967,
          "velocity": 0.7480314960629921,
          "duration": 0.2173912499999915
        },
        {
          "name": "D2",
          "midi": 38,
          "time": 149.99996249999967,
          "velocity": 0.7480314960629921,
          "duration": 0.2173912499999915
        },
        {
          "name": "A#2",
          "midi": 46,
          "time": 150.21735374999966,
          "velocity": 0.7480314960629921,
          "duration": 0.10869562499999574
        },
        {
          "name": "B1",
          "midi": 35,
          "time": 150.21735374999966,
          "velocity": 0.7480314960629921,
          "duration": 0.10869562499999574
        },
        {
          "name": "D2",
          "midi": 38,
          "time": 150.32604937499966,
          "velocity": 0.7480314960629921,
          "duration": 0.10869562499999574
        },
        {
          "name": "A#2",
          "midi": 46,
          "time": 150.43474499999965,
          "velocity": 0.7480314960629921,
          "duration": 0.10869562499999574
        },
        {
          "name": "D2",
          "midi": 38,
          "time": 150.43474499999965,
          "velocity": 0.7480314960629921,
          "duration": 0.10869562499999574
        },
        {
          "name": "A#2",
          "midi": 46,
          "time": 150.65213624999964,
          "velocity": 0.7480314960629921,
          "duration": 0.10869562499999574
        },
        {
          "name": "B1",
          "midi": 35,
          "time": 150.65213624999964,
          "velocity": 0.7480314960629921,
          "duration": 0.10869562499999574
        },
        {
          "name": "A#2",
          "midi": 46,
          "time": 150.86952749999963,
          "velocity": 0.7480314960629921,
          "duration": 0.10869562499999574
        },
        {
          "name": "D2",
          "midi": 38,
          "time": 150.86952749999963,
          "velocity": 0.7480314960629921,
          "duration": 0.10869562499999574
        },
        {
          "name": "A#2",
          "midi": 46,
          "time": 150.97822312499963,
          "velocity": 0.7480314960629921,
          "duration": 0.10869562499999574
        },
        {
          "name": "A#2",
          "midi": 46,
          "time": 151.08691874999963,
          "velocity": 0.7480314960629921,
          "duration": 0.2173912499999915
        },
        {
          "name": "A#2",
          "midi": 46,
          "time": 151.30430999999962,
          "velocity": 0.7480314960629921,
          "duration": 0.2173912499999915
        },
        {
          "name": "B1",
          "midi": 35,
          "time": 151.30430999999962,
          "velocity": 0.7480314960629921,
          "duration": 0.2173912499999915
        },
        {
          "name": "A#2",
          "midi": 46,
          "time": 151.5217012499996,
          "velocity": 0.7480314960629921,
          "duration": 0.2173912499999915
        },
        {
          "name": "A#2",
          "midi": 46,
          "time": 151.7390924999996,
          "velocity": 0.7480314960629921,
          "duration": 0.2173912499999915
        },
        {
          "name": "D2",
          "midi": 38,
          "time": 151.7390924999996,
          "velocity": 0.7480314960629921,
          "duration": 0.2173912499999915
        },
        {
          "name": "A#2",
          "midi": 46,
          "time": 151.9564837499996,
          "velocity": 0.7480314960629921,
          "duration": 0.2173912499999915
        },
        {
          "name": "A#2",
          "midi": 46,
          "time": 152.17387499999958,
          "velocity": 0.7480314960629921,
          "duration": 0.2173912499999915
        },
        {
          "name": "B1",
          "midi": 35,
          "time": 152.17387499999958,
          "velocity": 0.7480314960629921,
          "duration": 0.2173912499999915
        },
        {
          "name": "A#2",
          "midi": 46,
          "time": 152.39126624999957,
          "velocity": 0.7480314960629921,
          "duration": 0.2173912499999915
        },
        {
          "name": "A#2",
          "midi": 46,
          "time": 152.60865749999957,
          "velocity": 0.7480314960629921,
          "duration": 0.2173912499999915
        },
        {
          "name": "D2",
          "midi": 38,
          "time": 152.60865749999957,
          "velocity": 0.7480314960629921,
          "duration": 0.2173912499999915
        },
        {
          "name": "A#2",
          "midi": 46,
          "time": 152.82604874999956,
          "velocity": 0.7480314960629921,
          "duration": 0.2173912499999915
        },
        {
          "name": "C#3",
          "midi": 49,
          "time": 153.04343999999955,
          "velocity": 0.7480314960629921,
          "duration": 0.2173912499999915
        },
        {
          "name": "B1",
          "midi": 35,
          "time": 153.04343999999955,
          "velocity": 0.7480314960629921,
          "duration": 0.2173912499999915
        },
        {
          "name": "A#2",
          "midi": 46,
          "time": 153.26083124999954,
          "velocity": 0.7480314960629921,
          "duration": 0.2173912499999915
        },
        {
          "name": "A#2",
          "midi": 46,
          "time": 153.47822249999953,
          "velocity": 0.7480314960629921,
          "duration": 0.2173912499999915
        },
        {
          "name": "D2",
          "midi": 38,
          "time": 153.47822249999953,
          "velocity": 0.7480314960629921,
          "duration": 0.2173912499999915
        },
        {
          "name": "A#2",
          "midi": 46,
          "time": 153.69561374999952,
          "velocity": 0.7480314960629921,
          "duration": 0.10869562499999574
        },
        {
          "name": "B1",
          "midi": 35,
          "time": 153.69561374999952,
          "velocity": 0.7480314960629921,
          "duration": 0.10869562499999574
        },
        {
          "name": "D2",
          "midi": 38,
          "time": 153.80430937499952,
          "velocity": 0.7480314960629921,
          "duration": 0.10869562499999574
        },
        {
          "name": "A#2",
          "midi": 46,
          "time": 153.91300499999952,
          "velocity": 0.7480314960629921,
          "duration": 0.10869562499999574
        },
        {
          "name": "D2",
          "midi": 38,
          "time": 153.91300499999952,
          "velocity": 0.7480314960629921,
          "duration": 0.10869562499999574
        },
        {
          "name": "A#2",
          "midi": 46,
          "time": 154.1303962499995,
          "velocity": 0.7480314960629921,
          "duration": 0.10869562499999574
        },
        {
          "name": "B1",
          "midi": 35,
          "time": 154.1303962499995,
          "velocity": 0.7480314960629921,
          "duration": 0.10869562499999574
        },
        {
          "name": "A#2",
          "midi": 46,
          "time": 154.3477874999995,
          "velocity": 0.7480314960629921,
          "duration": 0.10869562499999574
        },
        {
          "name": "D2",
          "midi": 38,
          "time": 154.3477874999995,
          "velocity": 0.7480314960629921,
          "duration": 0.10869562499999574
        },
        {
          "name": "A#2",
          "midi": 46,
          "time": 154.4564831249995,
          "velocity": 0.7480314960629921,
          "duration": 0.10869562499999574
        },
        {
          "name": "A#2",
          "midi": 46,
          "time": 154.5651787499995,
          "velocity": 0.7480314960629921,
          "duration": 0.2173912499999915
        },
        {
          "name": "A#2",
          "midi": 46,
          "time": 154.78256999999948,
          "velocity": 0.7480314960629921,
          "duration": 0.2173912499999915
        },
        {
          "name": "B1",
          "midi": 35,
          "time": 154.78256999999948,
          "velocity": 0.7480314960629921,
          "duration": 0.2173912499999915
        },
        {
          "name": "A#2",
          "midi": 46,
          "time": 154.99996124999947,
          "velocity": 0.7480314960629921,
          "duration": 0.2173912499999915
        },
        {
          "name": "A#2",
          "midi": 46,
          "time": 155.21735249999946,
          "velocity": 0.7480314960629921,
          "duration": 0.2173912499999915
        },
        {
          "name": "D2",
          "midi": 38,
          "time": 155.21735249999946,
          "velocity": 0.7480314960629921,
          "duration": 0.2173912499999915
        },
        {
          "name": "A#2",
          "midi": 46,
          "time": 155.43474374999946,
          "velocity": 0.7480314960629921,
          "duration": 0.2173912499999915
        },
        {
          "name": "A#2",
          "midi": 46,
          "time": 155.65213499999945,
          "velocity": 0.7480314960629921,
          "duration": 0.2173912499999915
        },
        {
          "name": "B1",
          "midi": 35,
          "time": 155.65213499999945,
          "velocity": 0.7480314960629921,
          "duration": 0.2173912499999915
        },
        {
          "name": "A#2",
          "midi": 46,
          "time": 155.86952624999944,
          "velocity": 0.7480314960629921,
          "duration": 0.2173912499999915
        },
        {
          "name": "A#2",
          "midi": 46,
          "time": 156.08691749999943,
          "velocity": 0.7480314960629921,
          "duration": 0.2173912499999915
        },
        {
          "name": "D2",
          "midi": 38,
          "time": 156.08691749999943,
          "velocity": 0.7480314960629921,
          "duration": 0.2173912499999915
        },
        {
          "name": "A#2",
          "midi": 46,
          "time": 156.30430874999942,
          "velocity": 0.7480314960629921,
          "duration": 0.2173912499999915
        },
        {
          "name": "C#3",
          "midi": 49,
          "time": 156.5216999999994,
          "velocity": 0.7480314960629921,
          "duration": 0.2173912499999915
        },
        {
          "name": "B1",
          "midi": 35,
          "time": 156.5216999999994,
          "velocity": 0.7480314960629921,
          "duration": 0.2173912499999915
        },
        {
          "name": "A#2",
          "midi": 46,
          "time": 156.7390912499994,
          "velocity": 0.7480314960629921,
          "duration": 0.2173912499999915
        },
        {
          "name": "A#2",
          "midi": 46,
          "time": 156.9564824999994,
          "velocity": 0.7480314960629921,
          "duration": 0.2173912499999915
        },
        {
          "name": "D2",
          "midi": 38,
          "time": 156.9564824999994,
          "velocity": 0.7480314960629921,
          "duration": 0.2173912499999915
        },
        {
          "name": "A#2",
          "midi": 46,
          "time": 157.1738737499994,
          "velocity": 0.7480314960629921,
          "duration": 0.10869562499999574
        },
        {
          "name": "B1",
          "midi": 35,
          "time": 157.1738737499994,
          "velocity": 0.7480314960629921,
          "duration": 0.10869562499999574
        },
        {
          "name": "D2",
          "midi": 38,
          "time": 157.28256937499938,
          "velocity": 0.7480314960629921,
          "duration": 0.10869562499999574
        },
        {
          "name": "A#2",
          "midi": 46,
          "time": 157.39126499999938,
          "velocity": 0.7480314960629921,
          "duration": 0.10869562499999574
        },
        {
          "name": "D2",
          "midi": 38,
          "time": 157.39126499999938,
          "velocity": 0.7480314960629921,
          "duration": 0.10869562499999574
        },
        {
          "name": "A#2",
          "midi": 46,
          "time": 157.60865624999937,
          "velocity": 0.7480314960629921,
          "duration": 0.10869562499999574
        },
        {
          "name": "B1",
          "midi": 35,
          "time": 157.60865624999937,
          "velocity": 0.7480314960629921,
          "duration": 0.10869562499999574
        },
        {
          "name": "A#2",
          "midi": 46,
          "time": 157.82604749999936,
          "velocity": 0.7480314960629921,
          "duration": 0.10869562499999574
        },
        {
          "name": "D2",
          "midi": 38,
          "time": 157.82604749999936,
          "velocity": 0.7480314960629921,
          "duration": 0.10869562499999574
        },
        {
          "name": "A#2",
          "midi": 46,
          "time": 157.93474312499936,
          "velocity": 0.7480314960629921,
          "duration": 0.10869562499999574
        },
        {
          "name": "A#2",
          "midi": 46,
          "time": 158.04343874999935,
          "velocity": 0.7480314960629921,
          "duration": 0.2173912499999915
        },
        {
          "name": "A#2",
          "midi": 46,
          "time": 158.26082999999934,
          "velocity": 0.7480314960629921,
          "duration": 0.2173912499999915
        },
        {
          "name": "B1",
          "midi": 35,
          "time": 158.26082999999934,
          "velocity": 0.7480314960629921,
          "duration": 0.2173912499999915
        },
        {
          "name": "A#2",
          "midi": 46,
          "time": 158.47822124999934,
          "velocity": 0.7480314960629921,
          "duration": 0.2173912499999915
        },
        {
          "name": "A#2",
          "midi": 46,
          "time": 158.69561249999933,
          "velocity": 0.7480314960629921,
          "duration": 0.2173912499999915
        },
        {
          "name": "D2",
          "midi": 38,
          "time": 158.69561249999933,
          "velocity": 0.7480314960629921,
          "duration": 0.2173912499999915
        },
        {
          "name": "A#2",
          "midi": 46,
          "time": 158.91300374999932,
          "velocity": 0.7480314960629921,
          "duration": 0.2173912499999915
        },
        {
          "name": "A#2",
          "midi": 46,
          "time": 159.1303949999993,
          "velocity": 0.7480314960629921,
          "duration": 0.2173912499999915
        },
        {
          "name": "B1",
          "midi": 35,
          "time": 159.1303949999993,
          "velocity": 0.7480314960629921,
          "duration": 0.2173912499999915
        },
        {
          "name": "A#2",
          "midi": 46,
          "time": 159.3477862499993,
          "velocity": 0.7480314960629921,
          "duration": 0.2173912499999915
        },
        {
          "name": "A#2",
          "midi": 46,
          "time": 159.5651774999993,
          "velocity": 0.7480314960629921,
          "duration": 0.2173912499999915
        },
        {
          "name": "D2",
          "midi": 38,
          "time": 159.5651774999993,
          "velocity": 0.7480314960629921,
          "duration": 0.2173912499999915
        },
        {
          "name": "A#2",
          "midi": 46,
          "time": 159.78256874999929,
          "velocity": 0.7480314960629921,
          "duration": 0.2173912499999915
        },
        {
          "name": "C#3",
          "midi": 49,
          "time": 159.99995999999928,
          "velocity": 0.7480314960629921,
          "duration": 0.2173912499999915
        },
        {
          "name": "B1",
          "midi": 35,
          "time": 159.99995999999928,
          "velocity": 0.7480314960629921,
          "duration": 0.2173912499999915
        },
        {
          "name": "A#2",
          "midi": 46,
          "time": 160.21735124999927,
          "velocity": 0.7480314960629921,
          "duration": 0.2173912499999915
        },
        {
          "name": "A#2",
          "midi": 46,
          "time": 160.43474249999926,
          "velocity": 0.7480314960629921,
          "duration": 0.2173912499999915
        },
        {
          "name": "D2",
          "midi": 38,
          "time": 160.43474249999926,
          "velocity": 0.7480314960629921,
          "duration": 0.2173912499999915
        },
        {
          "name": "A#2",
          "midi": 46,
          "time": 160.65213374999925,
          "velocity": 0.7480314960629921,
          "duration": 0.10869562499999574
        },
        {
          "name": "B1",
          "midi": 35,
          "time": 160.65213374999925,
          "velocity": 0.7480314960629921,
          "duration": 0.10869562499999574
        },
        {
          "name": "D2",
          "midi": 38,
          "time": 160.76082937499925,
          "velocity": 0.7480314960629921,
          "duration": 0.10869562499999574
        },
        {
          "name": "A#2",
          "midi": 46,
          "time": 160.86952499999924,
          "velocity": 0.7480314960629921,
          "duration": 0.10869562499999574
        },
        {
          "name": "D2",
          "midi": 38,
          "time": 160.86952499999924,
          "velocity": 0.7480314960629921,
          "duration": 0.10869562499999574
        },
        {
          "name": "A#2",
          "midi": 46,
          "time": 161.08691624999923,
          "velocity": 0.7480314960629921,
          "duration": 0.10869562499999574
        },
        {
          "name": "B1",
          "midi": 35,
          "time": 161.08691624999923,
          "velocity": 0.7480314960629921,
          "duration": 0.10869562499999574
        },
        {
          "name": "A#2",
          "midi": 46,
          "time": 161.30430749999923,
          "velocity": 0.7480314960629921,
          "duration": 0.10869562499999574
        },
        {
          "name": "D2",
          "midi": 38,
          "time": 161.30430749999923,
          "velocity": 0.7480314960629921,
          "duration": 0.10869562499999574
        },
        {
          "name": "A#2",
          "midi": 46,
          "time": 161.41300312499922,
          "velocity": 0.7480314960629921,
          "duration": 0.10869562499999574
        },
        {
          "name": "A#2",
          "midi": 46,
          "time": 161.52169874999922,
          "velocity": 0.7480314960629921,
          "duration": 0.2173912499999915
        },
        {
          "name": "A#2",
          "midi": 46,
          "time": 161.7390899999992,
          "velocity": 0.7480314960629921,
          "duration": 0.2173912499999915
        },
        {
          "name": "B1",
          "midi": 35,
          "time": 161.7390899999992,
          "velocity": 0.7480314960629921,
          "duration": 0.2173912499999915
        },
        {
          "name": "A#2",
          "midi": 46,
          "time": 161.9564812499992,
          "velocity": 0.7480314960629921,
          "duration": 0.2173912499999915
        },
        {
          "name": "A#2",
          "midi": 46,
          "time": 162.1738724999992,
          "velocity": 0.7480314960629921,
          "duration": 0.2173912499999915
        },
        {
          "name": "D2",
          "midi": 38,
          "time": 162.1738724999992,
          "velocity": 0.7480314960629921,
          "duration": 0.2173912499999915
        },
        {
          "name": "A#2",
          "midi": 46,
          "time": 162.39126374999918,
          "velocity": 0.7480314960629921,
          "duration": 0.2173912499999915
        },
        {
          "name": "D2",
          "midi": 38,
          "time": 162.60865499999917,
          "velocity": 0.7480314960629921,
          "duration": 0.10869562499999574
        },
        {
          "name": "D2",
          "midi": 38,
          "time": 162.71735062499917,
          "velocity": 0.7480314960629921,
          "duration": 0.10869562499999574
        },
        {
          "name": "D2",
          "midi": 38,
          "time": 162.82604624999917,
          "velocity": 0.7480314960629921,
          "duration": 0.10869562499999574
        },
        {
          "name": "D2",
          "midi": 38,
          "time": 162.93474187499916,
          "velocity": 0.7480314960629921,
          "duration": 0.10869562499999574
        },
        {
          "name": "D2",
          "midi": 38,
          "time": 163.04343749999916,
          "velocity": 0.7480314960629921,
          "duration": 0.10869562499999574
        },
        {
          "name": "D2",
          "midi": 38,
          "time": 163.15213312499915,
          "velocity": 0.7480314960629921,
          "duration": 0.10869562499999574
        },
        {
          "name": "D2",
          "midi": 38,
          "time": 163.26082874999915,
          "velocity": 0.7480314960629921,
          "duration": 0.10869562499999574
        },
        {
          "name": "D2",
          "midi": 38,
          "time": 163.36952437499914,
          "velocity": 0.7480314960629921,
          "duration": 0.10869562499999574
        },
        {
          "name": "C#3",
          "midi": 49,
          "time": 163.47821999999914,
          "velocity": 0.7480314960629921,
          "duration": 3.478260000000006
        }
      ],
      "controlChanges": {
        "6": [
          {
            "number": 6,
            "time": 0.0036231874999999997,
            "value": 0.09448818897637795
          }
        ],
        "7": [
          {
            "number": 7,
            "time": 0,
            "value": 0.8818897637795275
          }
        ],
        "10": [
          {
            "number": 10,
            "time": 0,
            "value": 0.5039370078740157
          }
        ],
        "38": [
          {
            "number": 38,
            "time": 0.0054347812499999995,
            "value": 0
          }
        ],
        "91": [
          {
            "number": 91,
            "time": 0.0054347812499999995,
            "value": 0
          }
        ],
        "92": [
          {
            "number": 92,
            "time": 0.0054347812499999995,
            "value": 0
          }
        ],
        "93": [
          {
            "number": 93,
            "time": 0.0054347812499999995,
            "value": 0
          }
        ],
        "95": [
          {
            "number": 95,
            "time": 0.0054347812499999995,
            "value": 0
          }
        ],
        "100": [
          {
            "number": 100,
            "time": 0.0018115937499999998,
            "value": 0
          }
        ],
        "101": [
          {
            "number": 101,
            "time": 0,
            "value": 0
          }
        ]
      },
      "id": 3,
      "instrumentNumber": 0,
      "instrument": "standard kit",
      "instrumentFamily": "drums",
      "channelNumber": 9,
      "isPercussion": true
    },
    {
      "startTime": 13.913039999999999,
      "duration": 163.47821999999917,
      "length": 1303,
      "notes": [
        {
          "name": "F3",
          "midi": 53,
          "time": 13.913039999999999,
          "velocity": 0.7480314960629921,
          "duration": 0.21739125000000037
        },
        {
          "name": "C3",
          "midi": 48,
          "time": 13.913039999999999,
          "velocity": 0.7480314960629921,
          "duration": 0.21739125000000037
        },
        {
          "name": "F2",
          "midi": 41,
          "time": 13.913039999999999,
          "velocity": 0.7480314960629921,
          "duration": 0.21739125000000037
        },
        {
          "name": "F3",
          "midi": 53,
          "time": 14.130431249999999,
          "velocity": 0.7480314960629921,
          "duration": 0.21739125000000037
        },
        {
          "name": "C3",
          "midi": 48,
          "time": 14.130431249999999,
          "velocity": 0.7480314960629921,
          "duration": 0.21739125000000037
        },
        {
          "name": "F2",
          "midi": 41,
          "time": 14.130431249999999,
          "velocity": 0.7480314960629921,
          "duration": 0.21739125000000037
        },
        {
          "name": "F3",
          "midi": 53,
          "time": 14.3478225,
          "velocity": 0.7480314960629921,
          "duration": 0.21739125000000037
        },
        {
          "name": "C3",
          "midi": 48,
          "time": 14.3478225,
          "velocity": 0.7480314960629921,
          "duration": 0.21739125000000037
        },
        {
          "name": "F2",
          "midi": 41,
          "time": 14.3478225,
          "velocity": 0.7480314960629921,
          "duration": 0.21739125000000037
        },
        {
          "name": "F3",
          "midi": 53,
          "time": 14.56521375,
          "velocity": 0.7480314960629921,
          "duration": 0.21739125000000037
        },
        {
          "name": "C3",
          "midi": 48,
          "time": 14.56521375,
          "velocity": 0.7480314960629921,
          "duration": 0.21739125000000037
        },
        {
          "name": "F2",
          "midi": 41,
          "time": 14.56521375,
          "velocity": 0.7480314960629921,
          "duration": 0.21739125000000037
        },
        {
          "name": "A3",
          "midi": 57,
          "time": 14.782605,
          "velocity": 0.7480314960629921,
          "duration": 0.21739125000000037
        },
        {
          "name": "E3",
          "midi": 52,
          "time": 14.782605,
          "velocity": 0.7480314960629921,
          "duration": 0.21739125000000037
        },
        {
          "name": "A2",
          "midi": 45,
          "time": 14.782605,
          "velocity": 0.7480314960629921,
          "duration": 0.21739125000000037
        },
        {
          "name": "A3",
          "midi": 57,
          "time": 14.99999625,
          "velocity": 0.7480314960629921,
          "duration": 0.21739125000000037
        },
        {
          "name": "E3",
          "midi": 52,
          "time": 14.99999625,
          "velocity": 0.7480314960629921,
          "duration": 0.21739125000000037
        },
        {
          "name": "A2",
          "midi": 45,
          "time": 14.99999625,
          "velocity": 0.7480314960629921,
          "duration": 0.21739125000000037
        },
        {
          "name": "A3",
          "midi": 57,
          "time": 15.217387500000001,
          "velocity": 0.7480314960629921,
          "duration": 0.21739125000000037
        },
        {
          "name": "E3",
          "midi": 52,
          "time": 15.217387500000001,
          "velocity": 0.7480314960629921,
          "duration": 0.21739125000000037
        },
        {
          "name": "A2",
          "midi": 45,
          "time": 15.217387500000001,
          "velocity": 0.7480314960629921,
          "duration": 0.21739125000000037
        },
        {
          "name": "A3",
          "midi": 57,
          "time": 15.434778750000001,
          "velocity": 0.7480314960629921,
          "duration": 0.21739125000000037
        },
        {
          "name": "E3",
          "midi": 52,
          "time": 15.434778750000001,
          "velocity": 0.7480314960629921,
          "duration": 0.21739125000000037
        },
        {
          "name": "A2",
          "midi": 45,
          "time": 15.434778750000001,
          "velocity": 0.7480314960629921,
          "duration": 0.21739125000000037
        },
        {
          "name": "F3",
          "midi": 53,
          "time": 15.652170000000002,
          "velocity": 0.7480314960629921,
          "duration": 0.21739125000000037
        },
        {
          "name": "C3",
          "midi": 48,
          "time": 15.652170000000002,
          "velocity": 0.7480314960629921,
          "duration": 0.21739125000000037
        },
        {
          "name": "F2",
          "midi": 41,
          "time": 15.652170000000002,
          "velocity": 0.7480314960629921,
          "duration": 0.21739125000000037
        },
        {
          "name": "F3",
          "midi": 53,
          "time": 15.869561250000002,
          "velocity": 0.7480314960629921,
          "duration": 0.21739125000000037
        },
        {
          "name": "C3",
          "midi": 48,
          "time": 15.869561250000002,
          "velocity": 0.7480314960629921,
          "duration": 0.21739125000000037
        },
        {
          "name": "F2",
          "midi": 41,
          "time": 15.869561250000002,
          "velocity": 0.7480314960629921,
          "duration": 0.21739125000000037
        },
        {
          "name": "F3",
          "midi": 53,
          "time": 16.086952500000002,
          "velocity": 0.7480314960629921,
          "duration": 0.2173912499999986
        },
        {
          "name": "C3",
          "midi": 48,
          "time": 16.086952500000002,
          "velocity": 0.7480314960629921,
          "duration": 0.2173912499999986
        },
        {
          "name": "F2",
          "midi": 41,
          "time": 16.086952500000002,
          "velocity": 0.7480314960629921,
          "duration": 0.2173912499999986
        },
        {
          "name": "F3",
          "midi": 53,
          "time": 16.30434375,
          "velocity": 0.7480314960629921,
          "duration": 0.2173912499999986
        },
        {
          "name": "C3",
          "midi": 48,
          "time": 16.30434375,
          "velocity": 0.7480314960629921,
          "duration": 0.2173912499999986
        },
        {
          "name": "F2",
          "midi": 41,
          "time": 16.30434375,
          "velocity": 0.7480314960629921,
          "duration": 0.2173912499999986
        },
        {
          "name": "D4",
          "midi": 62,
          "time": 16.521735,
          "velocity": 0.7480314960629921,
          "duration": 0.2173912499999986
        },
        {
          "name": "A3",
          "midi": 57,
          "time": 16.521735,
          "velocity": 0.7480314960629921,
          "duration": 0.2173912499999986
        },
        {
          "name": "D3",
          "midi": 50,
          "time": 16.521735,
          "velocity": 0.7480314960629921,
          "duration": 0.2173912499999986
        },
        {
          "name": "D4",
          "midi": 62,
          "time": 16.739126249999998,
          "velocity": 0.7480314960629921,
          "duration": 0.2173912499999986
        },
        {
          "name": "A3",
          "midi": 57,
          "time": 16.739126249999998,
          "velocity": 0.7480314960629921,
          "duration": 0.2173912499999986
        },
        {
          "name": "D3",
          "midi": 50,
          "time": 16.739126249999998,
          "velocity": 0.7480314960629921,
          "duration": 0.2173912499999986
        },
        {
          "name": "D4",
          "midi": 62,
          "time": 16.956517499999997,
          "velocity": 0.7480314960629921,
          "duration": 0.2173912499999986
        },
        {
          "name": "A3",
          "midi": 57,
          "time": 16.956517499999997,
          "velocity": 0.7480314960629921,
          "duration": 0.2173912499999986
        },
        {
          "name": "D3",
          "midi": 50,
          "time": 16.956517499999997,
          "velocity": 0.7480314960629921,
          "duration": 0.2173912499999986
        },
        {
          "name": "D4",
          "midi": 62,
          "time": 17.173908749999995,
          "velocity": 0.7480314960629921,
          "duration": 0.2173912499999986
        },
        {
          "name": "A3",
          "midi": 57,
          "time": 17.173908749999995,
          "velocity": 0.7480314960629921,
          "duration": 0.2173912499999986
        },
        {
          "name": "D3",
          "midi": 50,
          "time": 17.173908749999995,
          "velocity": 0.7480314960629921,
          "duration": 0.2173912499999986
        },
        {
          "name": "A#3",
          "midi": 58,
          "time": 17.391299999999994,
          "velocity": 0.7480314960629921,
          "duration": 0.2173912499999986
        },
        {
          "name": "F3",
          "midi": 53,
          "time": 17.391299999999994,
          "velocity": 0.7480314960629921,
          "duration": 0.2173912499999986
        },
        {
          "name": "A#2",
          "midi": 46,
          "time": 17.391299999999994,
          "velocity": 0.7480314960629921,
          "duration": 0.2173912499999986
        },
        {
          "name": "A#3",
          "midi": 58,
          "time": 17.608691249999993,
          "velocity": 0.7480314960629921,
          "duration": 0.2173912499999986
        },
        {
          "name": "F3",
          "midi": 53,
          "time": 17.608691249999993,
          "velocity": 0.7480314960629921,
          "duration": 0.2173912499999986
        },
        {
          "name": "A#2",
          "midi": 46,
          "time": 17.608691249999993,
          "velocity": 0.7480314960629921,
          "duration": 0.2173912499999986
        },
        {
          "name": "A#3",
          "midi": 58,
          "time": 17.82608249999999,
          "velocity": 0.7480314960629921,
          "duration": 0.2173912499999986
        },
        {
          "name": "F3",
          "midi": 53,
          "time": 17.82608249999999,
          "velocity": 0.7480314960629921,
          "duration": 0.2173912499999986
        },
        {
          "name": "A#2",
          "midi": 46,
          "time": 17.82608249999999,
          "velocity": 0.7480314960629921,
          "duration": 0.2173912499999986
        },
        {
          "name": "A#3",
          "midi": 58,
          "time": 18.04347374999999,
          "velocity": 0.7480314960629921,
          "duration": 0.2173912499999986
        },
        {
          "name": "F3",
          "midi": 53,
          "time": 18.04347374999999,
          "velocity": 0.7480314960629921,
          "duration": 0.2173912499999986
        },
        {
          "name": "A#2",
          "midi": 46,
          "time": 18.04347374999999,
          "velocity": 0.7480314960629921,
          "duration": 0.2173912499999986
        },
        {
          "name": "C4",
          "midi": 60,
          "time": 18.26086499999999,
          "velocity": 0.7480314960629921,
          "duration": 0.2173912499999986
        },
        {
          "name": "F3",
          "midi": 53,
          "time": 18.26086499999999,
          "velocity": 0.7480314960629921,
          "duration": 0.2173912499999986
        },
        {
          "name": "C3",
          "midi": 48,
          "time": 18.26086499999999,
          "velocity": 0.7480314960629921,
          "duration": 0.2173912499999986
        },
        {
          "name": "C4",
          "midi": 60,
          "time": 18.478256249999987,
          "velocity": 0.7480314960629921,
          "duration": 0.2173912499999986
        },
        {
          "name": "F3",
          "midi": 53,
          "time": 18.478256249999987,
          "velocity": 0.7480314960629921,
          "duration": 0.2173912499999986
        },
        {
          "name": "C3",
          "midi": 48,
          "time": 18.478256249999987,
          "velocity": 0.7480314960629921,
          "duration": 0.2173912499999986
        },
        {
          "name": "C4",
          "midi": 60,
          "time": 18.695647499999986,
          "velocity": 0.7480314960629921,
          "duration": 0.2173912499999986
        },
        {
          "name": "F3",
          "midi": 53,
          "time": 18.695647499999986,
          "velocity": 0.7480314960629921,
          "duration": 0.2173912499999986
        },
        {
          "name": "C3",
          "midi": 48,
          "time": 18.695647499999986,
          "velocity": 0.7480314960629921,
          "duration": 0.2173912499999986
        },
        {
          "name": "C4",
          "midi": 60,
          "time": 18.913038749999984,
          "velocity": 0.7480314960629921,
          "duration": 0.2173912499999986
        },
        {
          "name": "F3",
          "midi": 53,
          "time": 18.913038749999984,
          "velocity": 0.7480314960629921,
          "duration": 0.2173912499999986
        },
        {
          "name": "C3",
          "midi": 48,
          "time": 18.913038749999984,
          "velocity": 0.7480314960629921,
          "duration": 0.2173912499999986
        },
        {
          "name": "G3",
          "midi": 55,
          "time": 19.130429999999983,
          "velocity": 0.7480314960629921,
          "duration": 0.2173912499999986
        },
        {
          "name": "D3",
          "midi": 50,
          "time": 19.130429999999983,
          "velocity": 0.7480314960629921,
          "duration": 0.2173912499999986
        },
        {
          "name": "G2",
          "midi": 43,
          "time": 19.130429999999983,
          "velocity": 0.7480314960629921,
          "duration": 0.2173912499999986
        },
        {
          "name": "G3",
          "midi": 55,
          "time": 19.34782124999998,
          "velocity": 0.7480314960629921,
          "duration": 0.2173912499999986
        },
        {
          "name": "D3",
          "midi": 50,
          "time": 19.34782124999998,
          "velocity": 0.7480314960629921,
          "duration": 0.2173912499999986
        },
        {
          "name": "G2",
          "midi": 43,
          "time": 19.34782124999998,
          "velocity": 0.7480314960629921,
          "duration": 0.2173912499999986
        },
        {
          "name": "G3",
          "midi": 55,
          "time": 19.56521249999998,
          "velocity": 0.7480314960629921,
          "duration": 0.2173912499999986
        },
        {
          "name": "D3",
          "midi": 50,
          "time": 19.56521249999998,
          "velocity": 0.7480314960629921,
          "duration": 0.2173912499999986
        },
        {
          "name": "G2",
          "midi": 43,
          "time": 19.56521249999998,
          "velocity": 0.7480314960629921,
          "duration": 0.2173912499999986
        },
        {
          "name": "G3",
          "midi": 55,
          "time": 19.78260374999998,
          "velocity": 0.7480314960629921,
          "duration": 0.2173912499999986
        },
        {
          "name": "D3",
          "midi": 50,
          "time": 19.78260374999998,
          "velocity": 0.7480314960629921,
          "duration": 0.2173912499999986
        },
        {
          "name": "G2",
          "midi": 43,
          "time": 19.78260374999998,
          "velocity": 0.7480314960629921,
          "duration": 0.2173912499999986
        },
        {
          "name": "G3",
          "midi": 55,
          "time": 20.217386249999976,
          "velocity": 0.7480314960629921,
          "duration": 0.2173912499999986
        },
        {
          "name": "D3",
          "midi": 50,
          "time": 20.217386249999976,
          "velocity": 0.7480314960629921,
          "duration": 0.2173912499999986
        },
        {
          "name": "G2",
          "midi": 43,
          "time": 20.217386249999976,
          "velocity": 0.7480314960629921,
          "duration": 0.2173912499999986
        },
        {
          "name": "G3",
          "midi": 55,
          "time": 20.434777499999974,
          "velocity": 0.7480314960629921,
          "duration": 0.2173912499999986
        },
        {
          "name": "D3",
          "midi": 50,
          "time": 20.434777499999974,
          "velocity": 0.7480314960629921,
          "duration": 0.2173912499999986
        },
        {
          "name": "G2",
          "midi": 43,
          "time": 20.434777499999974,
          "velocity": 0.7480314960629921,
          "duration": 0.2173912499999986
        },
        {
          "name": "G3",
          "midi": 55,
          "time": 20.652168749999973,
          "velocity": 0.7480314960629921,
          "duration": 0.2173912499999986
        },
        {
          "name": "D3",
          "midi": 50,
          "time": 20.652168749999973,
          "velocity": 0.7480314960629921,
          "duration": 0.2173912499999986
        },
        {
          "name": "G2",
          "midi": 43,
          "time": 20.652168749999973,
          "velocity": 0.7480314960629921,
          "duration": 0.2173912499999986
        },
        {
          "name": "F3",
          "midi": 53,
          "time": 20.86955999999997,
          "velocity": 0.7480314960629921,
          "duration": 0.2173912499999986
        },
        {
          "name": "C3",
          "midi": 48,
          "time": 20.86955999999997,
          "velocity": 0.7480314960629921,
          "duration": 0.2173912499999986
        },
        {
          "name": "F2",
          "midi": 41,
          "time": 20.86955999999997,
          "velocity": 0.7480314960629921,
          "duration": 0.2173912499999986
        },
        {
          "name": "F3",
          "midi": 53,
          "time": 21.08695124999997,
          "velocity": 0.7480314960629921,
          "duration": 0.2173912499999986
        },
        {
          "name": "C3",
          "midi": 48,
          "time": 21.08695124999997,
          "velocity": 0.7480314960629921,
          "duration": 0.2173912499999986
        },
        {
          "name": "F2",
          "midi": 41,
          "time": 21.08695124999997,
          "velocity": 0.7480314960629921,
          "duration": 0.2173912499999986
        },
        {
          "name": "F3",
          "midi": 53,
          "time": 21.30434249999997,
          "velocity": 0.7480314960629921,
          "duration": 0.2173912499999986
        },
        {
          "name": "C3",
          "midi": 48,
          "time": 21.30434249999997,
          "velocity": 0.7480314960629921,
          "duration": 0.2173912499999986
        },
        {
          "name": "F2",
          "midi": 41,
          "time": 21.30434249999997,
          "velocity": 0.7480314960629921,
          "duration": 0.2173912499999986
        },
        {
          "name": "F3",
          "midi": 53,
          "time": 21.521733749999967,
          "velocity": 0.7480314960629921,
          "duration": 0.2173912499999986
        },
        {
          "name": "C3",
          "midi": 48,
          "time": 21.521733749999967,
          "velocity": 0.7480314960629921,
          "duration": 0.2173912499999986
        },
        {
          "name": "F2",
          "midi": 41,
          "time": 21.521733749999967,
          "velocity": 0.7480314960629921,
          "duration": 0.2173912499999986
        },
        {
          "name": "A#3",
          "midi": 58,
          "time": 21.739124999999966,
          "velocity": 0.7480314960629921,
          "duration": 0.2173912499999986
        },
        {
          "name": "F3",
          "midi": 53,
          "time": 21.739124999999966,
          "velocity": 0.7480314960629921,
          "duration": 0.2173912499999986
        },
        {
          "name": "A#2",
          "midi": 46,
          "time": 21.739124999999966,
          "velocity": 0.7480314960629921,
          "duration": 0.2173912499999986
        },
        {
          "name": "A#3",
          "midi": 58,
          "time": 21.956516249999964,
          "velocity": 0.7480314960629921,
          "duration": 0.2173912499999986
        },
        {
          "name": "F3",
          "midi": 53,
          "time": 21.956516249999964,
          "velocity": 0.7480314960629921,
          "duration": 0.2173912499999986
        },
        {
          "name": "A#2",
          "midi": 46,
          "time": 21.956516249999964,
          "velocity": 0.7480314960629921,
          "duration": 0.2173912499999986
        },
        {
          "name": "A#3",
          "midi": 58,
          "time": 22.173907499999963,
          "velocity": 0.7480314960629921,
          "duration": 0.2173912499999986
        },
        {
          "name": "F3",
          "midi": 53,
          "time": 22.173907499999963,
          "velocity": 0.7480314960629921,
          "duration": 0.2173912499999986
        },
        {
          "name": "A#2",
          "midi": 46,
          "time": 22.173907499999963,
          "velocity": 0.7480314960629921,
          "duration": 0.2173912499999986
        },
        {
          "name": "A#3",
          "midi": 58,
          "time": 22.39129874999996,
          "velocity": 0.7480314960629921,
          "duration": 0.2173912499999986
        },
        {
          "name": "F3",
          "midi": 53,
          "time": 22.39129874999996,
          "velocity": 0.7480314960629921,
          "duration": 0.2173912499999986
        },
        {
          "name": "A#2",
          "midi": 46,
          "time": 22.39129874999996,
          "velocity": 0.7480314960629921,
          "duration": 0.2173912499999986
        },
        {
          "name": "G3",
          "midi": 55,
          "time": 22.60868999999996,
          "velocity": 0.7480314960629921,
          "duration": 0.2173912499999986
        },
        {
          "name": "D3",
          "midi": 50,
          "time": 22.60868999999996,
          "velocity": 0.7480314960629921,
          "duration": 0.2173912499999986
        },
        {
          "name": "G2",
          "midi": 43,
          "time": 22.60868999999996,
          "velocity": 0.7480314960629921,
          "duration": 0.2173912499999986
        },
        {
          "name": "G3",
          "midi": 55,
          "time": 22.82608124999996,
          "velocity": 0.7480314960629921,
          "duration": 0.2173912499999986
        },
        {
          "name": "D3",
          "midi": 50,
          "time": 22.82608124999996,
          "velocity": 0.7480314960629921,
          "duration": 0.2173912499999986
        },
        {
          "name": "G2",
          "midi": 43,
          "time": 22.82608124999996,
          "velocity": 0.7480314960629921,
          "duration": 0.2173912499999986
        },
        {
          "name": "G3",
          "midi": 55,
          "time": 23.043472499999957,
          "velocity": 0.7480314960629921,
          "duration": 0.2173912499999986
        },
        {
          "name": "D3",
          "midi": 50,
          "time": 23.043472499999957,
          "velocity": 0.7480314960629921,
          "duration": 0.2173912499999986
        },
        {
          "name": "G2",
          "midi": 43,
          "time": 23.043472499999957,
          "velocity": 0.7480314960629921,
          "duration": 0.2173912499999986
        },
        {
          "name": "G3",
          "midi": 55,
          "time": 23.260863749999956,
          "velocity": 0.7480314960629921,
          "duration": 0.2173912499999986
        },
        {
          "name": "D3",
          "midi": 50,
          "time": 23.260863749999956,
          "velocity": 0.7480314960629921,
          "duration": 0.2173912499999986
        },
        {
          "name": "G2",
          "midi": 43,
          "time": 23.260863749999956,
          "velocity": 0.7480314960629921,
          "duration": 0.2173912499999986
        },
        {
          "name": "A#3",
          "midi": 58,
          "time": 23.478254999999955,
          "velocity": 0.7480314960629921,
          "duration": 0.2173912499999986
        },
        {
          "name": "F3",
          "midi": 53,
          "time": 23.478254999999955,
          "velocity": 0.7480314960629921,
          "duration": 0.2173912499999986
        },
        {
          "name": "A#2",
          "midi": 46,
          "time": 23.478254999999955,
          "velocity": 0.7480314960629921,
          "duration": 0.2173912499999986
        },
        {
          "name": "A#3",
          "midi": 58,
          "time": 23.695646249999953,
          "velocity": 0.7480314960629921,
          "duration": 0.2173912499999986
        },
        {
          "name": "F3",
          "midi": 53,
          "time": 23.695646249999953,
          "velocity": 0.7480314960629921,
          "duration": 0.2173912499999986
        },
        {
          "name": "A#2",
          "midi": 46,
          "time": 23.695646249999953,
          "velocity": 0.7480314960629921,
          "duration": 0.2173912499999986
        },
        {
          "name": "A#3",
          "midi": 58,
          "time": 23.91303749999995,
          "velocity": 0.7480314960629921,
          "duration": 0.2173912499999986
        },
        {
          "name": "F3",
          "midi": 53,
          "time": 23.91303749999995,
          "velocity": 0.7480314960629921,
          "duration": 0.2173912499999986
        },
        {
          "name": "A#2",
          "midi": 46,
          "time": 23.91303749999995,
          "velocity": 0.7480314960629921,
          "duration": 0.2173912499999986
        },
        {
          "name": "A#3",
          "midi": 58,
          "time": 24.13042874999995,
          "velocity": 0.7480314960629921,
          "duration": 0.2173912499999986
        },
        {
          "name": "F3",
          "midi": 53,
          "time": 24.13042874999995,
          "velocity": 0.7480314960629921,
          "duration": 0.2173912499999986
        },
        {
          "name": "A#2",
          "midi": 46,
          "time": 24.13042874999995,
          "velocity": 0.7480314960629921,
          "duration": 0.2173912499999986
        },
        {
          "name": "F3",
          "midi": 53,
          "time": 24.34781999999995,
          "velocity": 0.7480314960629921,
          "duration": 0.2173912499999986
        },
        {
          "name": "C3",
          "midi": 48,
          "time": 24.34781999999995,
          "velocity": 0.7480314960629921,
          "duration": 0.2173912499999986
        },
        {
          "name": "F2",
          "midi": 41,
          "time": 24.34781999999995,
          "velocity": 0.7480314960629921,
          "duration": 0.2173912499999986
        },
        {
          "name": "F3",
          "midi": 53,
          "time": 24.565211249999948,
          "velocity": 0.7480314960629921,
          "duration": 0.2173912499999986
        },
        {
          "name": "C3",
          "midi": 48,
          "time": 24.565211249999948,
          "velocity": 0.7480314960629921,
          "duration": 0.2173912499999986
        },
        {
          "name": "F2",
          "midi": 41,
          "time": 24.565211249999948,
          "velocity": 0.7480314960629921,
          "duration": 0.2173912499999986
        },
        {
          "name": "F3",
          "midi": 53,
          "time": 24.782602499999946,
          "velocity": 0.7480314960629921,
          "duration": 0.2173912499999986
        },
        {
          "name": "C3",
          "midi": 48,
          "time": 24.782602499999946,
          "velocity": 0.7480314960629921,
          "duration": 0.2173912499999986
        },
        {
          "name": "F2",
          "midi": 41,
          "time": 24.782602499999946,
          "velocity": 0.7480314960629921,
          "duration": 0.2173912499999986
        },
        {
          "name": "F3",
          "midi": 53,
          "time": 24.999993749999945,
          "velocity": 0.7480314960629921,
          "duration": 0.2173912499999986
        },
        {
          "name": "C3",
          "midi": 48,
          "time": 24.999993749999945,
          "velocity": 0.7480314960629921,
          "duration": 0.2173912499999986
        },
        {
          "name": "F2",
          "midi": 41,
          "time": 24.999993749999945,
          "velocity": 0.7480314960629921,
          "duration": 0.2173912499999986
        },
        {
          "name": "A#3",
          "midi": 58,
          "time": 25.217384999999943,
          "velocity": 0.7480314960629921,
          "duration": 0.2173912499999986
        },
        {
          "name": "F3",
          "midi": 53,
          "time": 25.217384999999943,
          "velocity": 0.7480314960629921,
          "duration": 0.2173912499999986
        },
        {
          "name": "A#2",
          "midi": 46,
          "time": 25.217384999999943,
          "velocity": 0.7480314960629921,
          "duration": 0.2173912499999986
        },
        {
          "name": "A#3",
          "midi": 58,
          "time": 25.434776249999942,
          "velocity": 0.7480314960629921,
          "duration": 0.2173912499999986
        },
        {
          "name": "F3",
          "midi": 53,
          "time": 25.434776249999942,
          "velocity": 0.7480314960629921,
          "duration": 0.2173912499999986
        },
        {
          "name": "A#2",
          "midi": 46,
          "time": 25.434776249999942,
          "velocity": 0.7480314960629921,
          "duration": 0.2173912499999986
        },
        {
          "name": "A#3",
          "midi": 58,
          "time": 25.65216749999994,
          "velocity": 0.7480314960629921,
          "duration": 0.2173912499999986
        },
        {
          "name": "F3",
          "midi": 53,
          "time": 25.65216749999994,
          "velocity": 0.7480314960629921,
          "duration": 0.2173912499999986
        },
        {
          "name": "A#2",
          "midi": 46,
          "time": 25.65216749999994,
          "velocity": 0.7480314960629921,
          "duration": 0.2173912499999986
        },
        {
          "name": "A#3",
          "midi": 58,
          "time": 25.86955874999994,
          "velocity": 0.7480314960629921,
          "duration": 0.2173912499999986
        },
        {
          "name": "F3",
          "midi": 53,
          "time": 25.86955874999994,
          "velocity": 0.7480314960629921,
          "duration": 0.2173912499999986
        },
        {
          "name": "A#2",
          "midi": 46,
          "time": 25.86955874999994,
          "velocity": 0.7480314960629921,
          "duration": 0.2173912499999986
        },
        {
          "name": "G3",
          "midi": 55,
          "time": 26.086949999999938,
          "velocity": 0.7480314960629921,
          "duration": 0.2173912499999986
        },
        {
          "name": "D3",
          "midi": 50,
          "time": 26.086949999999938,
          "velocity": 0.7480314960629921,
          "duration": 0.2173912499999986
        },
        {
          "name": "G2",
          "midi": 43,
          "time": 26.086949999999938,
          "velocity": 0.7480314960629921,
          "duration": 0.2173912499999986
        },
        {
          "name": "G3",
          "midi": 55,
          "time": 26.304341249999936,
          "velocity": 0.7480314960629921,
          "duration": 0.2173912499999986
        },
        {
          "name": "D3",
          "midi": 50,
          "time": 26.304341249999936,
          "velocity": 0.7480314960629921,
          "duration": 0.2173912499999986
        },
        {
          "name": "G2",
          "midi": 43,
          "time": 26.304341249999936,
          "velocity": 0.7480314960629921,
          "duration": 0.2173912499999986
        },
        {
          "name": "G3",
          "midi": 55,
          "time": 26.521732499999935,
          "velocity": 0.7480314960629921,
          "duration": 0.2173912499999986
        },
        {
          "name": "D3",
          "midi": 50,
          "time": 26.521732499999935,
          "velocity": 0.7480314960629921,
          "duration": 0.2173912499999986
        },
        {
          "name": "G2",
          "midi": 43,
          "time": 26.521732499999935,
          "velocity": 0.7480314960629921,
          "duration": 0.2173912499999986
        },
        {
          "name": "G3",
          "midi": 55,
          "time": 26.739123749999933,
          "velocity": 0.7480314960629921,
          "duration": 0.2173912499999986
        },
        {
          "name": "D3",
          "midi": 50,
          "time": 26.739123749999933,
          "velocity": 0.7480314960629921,
          "duration": 0.2173912499999986
        },
        {
          "name": "G2",
          "midi": 43,
          "time": 26.739123749999933,
          "velocity": 0.7480314960629921,
          "duration": 0.2173912499999986
        },
        {
          "name": "A#3",
          "midi": 58,
          "time": 26.956514999999932,
          "velocity": 0.7480314960629921,
          "duration": 0.2173912499999986
        },
        {
          "name": "F3",
          "midi": 53,
          "time": 26.956514999999932,
          "velocity": 0.7480314960629921,
          "duration": 0.2173912499999986
        },
        {
          "name": "A#2",
          "midi": 46,
          "time": 26.956514999999932,
          "velocity": 0.7480314960629921,
          "duration": 0.2173912499999986
        },
        {
          "name": "A#3",
          "midi": 58,
          "time": 27.17390624999993,
          "velocity": 0.7480314960629921,
          "duration": 0.2173912499999986
        },
        {
          "name": "F3",
          "midi": 53,
          "time": 27.17390624999993,
          "velocity": 0.7480314960629921,
          "duration": 0.2173912499999986
        },
        {
          "name": "A#2",
          "midi": 46,
          "time": 27.17390624999993,
          "velocity": 0.7480314960629921,
          "duration": 0.2173912499999986
        },
        {
          "name": "A#3",
          "midi": 58,
          "time": 27.39129749999993,
          "velocity": 0.7480314960629921,
          "duration": 0.2173912499999986
        },
        {
          "name": "F3",
          "midi": 53,
          "time": 27.39129749999993,
          "velocity": 0.7480314960629921,
          "duration": 0.2173912499999986
        },
        {
          "name": "A#2",
          "midi": 46,
          "time": 27.39129749999993,
          "velocity": 0.7480314960629921,
          "duration": 0.2173912499999986
        },
        {
          "name": "A#3",
          "midi": 58,
          "time": 27.608688749999928,
          "velocity": 0.7480314960629921,
          "duration": 0.2173912499999986
        },
        {
          "name": "F3",
          "midi": 53,
          "time": 27.608688749999928,
          "velocity": 0.7480314960629921,
          "duration": 0.2173912499999986
        },
        {
          "name": "A#2",
          "midi": 46,
          "time": 27.608688749999928,
          "velocity": 0.7480314960629921,
          "duration": 0.2173912499999986
        },
        {
          "name": "F3",
          "midi": 53,
          "time": 27.826079999999926,
          "velocity": 0.7480314960629921,
          "duration": 0.2173912499999986
        },
        {
          "name": "C3",
          "midi": 48,
          "time": 27.826079999999926,
          "velocity": 0.7480314960629921,
          "duration": 0.2173912499999986
        },
        {
          "name": "F2",
          "midi": 41,
          "time": 27.826079999999926,
          "velocity": 0.7480314960629921,
          "duration": 0.2173912499999986
        },
        {
          "name": "F3",
          "midi": 53,
          "time": 28.043471249999925,
          "velocity": 0.7480314960629921,
          "duration": 0.2173912499999986
        },
        {
          "name": "C3",
          "midi": 48,
          "time": 28.043471249999925,
          "velocity": 0.7480314960629921,
          "duration": 0.2173912499999986
        },
        {
          "name": "F2",
          "midi": 41,
          "time": 28.043471249999925,
          "velocity": 0.7480314960629921,
          "duration": 0.2173912499999986
        },
        {
          "name": "F3",
          "midi": 53,
          "time": 28.260862499999924,
          "velocity": 0.7480314960629921,
          "duration": 0.2173912499999986
        },
        {
          "name": "C3",
          "midi": 48,
          "time": 28.260862499999924,
          "velocity": 0.7480314960629921,
          "duration": 0.2173912499999986
        },
        {
          "name": "F2",
          "midi": 41,
          "time": 28.260862499999924,
          "velocity": 0.7480314960629921,
          "duration": 0.2173912499999986
        },
        {
          "name": "F3",
          "midi": 53,
          "time": 28.478253749999922,
          "velocity": 0.7480314960629921,
          "duration": 0.2173912499999986
        },
        {
          "name": "C3",
          "midi": 48,
          "time": 28.478253749999922,
          "velocity": 0.7480314960629921,
          "duration": 0.2173912499999986
        },
        {
          "name": "F2",
          "midi": 41,
          "time": 28.478253749999922,
          "velocity": 0.7480314960629921,
          "duration": 0.2173912499999986
        },
        {
          "name": "A#3",
          "midi": 58,
          "time": 28.69564499999992,
          "velocity": 0.7480314960629921,
          "duration": 0.2173912499999986
        },
        {
          "name": "F3",
          "midi": 53,
          "time": 28.69564499999992,
          "velocity": 0.7480314960629921,
          "duration": 0.2173912499999986
        },
        {
          "name": "A#2",
          "midi": 46,
          "time": 28.69564499999992,
          "velocity": 0.7480314960629921,
          "duration": 0.2173912499999986
        },
        {
          "name": "A#3",
          "midi": 58,
          "time": 28.91303624999992,
          "velocity": 0.7480314960629921,
          "duration": 0.2173912499999986
        },
        {
          "name": "F3",
          "midi": 53,
          "time": 28.91303624999992,
          "velocity": 0.7480314960629921,
          "duration": 0.2173912499999986
        },
        {
          "name": "A#2",
          "midi": 46,
          "time": 28.91303624999992,
          "velocity": 0.7480314960629921,
          "duration": 0.2173912499999986
        },
        {
          "name": "A#3",
          "midi": 58,
          "time": 29.130427499999918,
          "velocity": 0.7480314960629921,
          "duration": 0.2173912499999986
        },
        {
          "name": "F3",
          "midi": 53,
          "time": 29.130427499999918,
          "velocity": 0.7480314960629921,
          "duration": 0.2173912499999986
        },
        {
          "name": "A#2",
          "midi": 46,
          "time": 29.130427499999918,
          "velocity": 0.7480314960629921,
          "duration": 0.2173912499999986
        },
        {
          "name": "A#3",
          "midi": 58,
          "time": 29.347818749999917,
          "velocity": 0.7480314960629921,
          "duration": 0.2173912499999986
        },
        {
          "name": "F3",
          "midi": 53,
          "time": 29.347818749999917,
          "velocity": 0.7480314960629921,
          "duration": 0.2173912499999986
        },
        {
          "name": "A#2",
          "midi": 46,
          "time": 29.347818749999917,
          "velocity": 0.7480314960629921,
          "duration": 0.2173912499999986
        },
        {
          "name": "G3",
          "midi": 55,
          "time": 29.565209999999915,
          "velocity": 0.7480314960629921,
          "duration": 0.2173912499999986
        },
        {
          "name": "D3",
          "midi": 50,
          "time": 29.565209999999915,
          "velocity": 0.7480314960629921,
          "duration": 0.2173912499999986
        },
        {
          "name": "G2",
          "midi": 43,
          "time": 29.565209999999915,
          "velocity": 0.7480314960629921,
          "duration": 0.2173912499999986
        },
        {
          "name": "G3",
          "midi": 55,
          "time": 29.782601249999914,
          "velocity": 0.7480314960629921,
          "duration": 0.2173912499999986
        },
        {
          "name": "D3",
          "midi": 50,
          "time": 29.782601249999914,
          "velocity": 0.7480314960629921,
          "duration": 0.2173912499999986
        },
        {
          "name": "G2",
          "midi": 43,
          "time": 29.782601249999914,
          "velocity": 0.7480314960629921,
          "duration": 0.2173912499999986
        },
        {
          "name": "G3",
          "midi": 55,
          "time": 29.999992499999912,
          "velocity": 0.7480314960629921,
          "duration": 0.2173912499999986
        },
        {
          "name": "D3",
          "midi": 50,
          "time": 29.999992499999912,
          "velocity": 0.7480314960629921,
          "duration": 0.2173912499999986
        },
        {
          "name": "G2",
          "midi": 43,
          "time": 29.999992499999912,
          "velocity": 0.7480314960629921,
          "duration": 0.2173912499999986
        },
        {
          "name": "G3",
          "midi": 55,
          "time": 30.21738374999991,
          "velocity": 0.7480314960629921,
          "duration": 0.2173912499999986
        },
        {
          "name": "D3",
          "midi": 50,
          "time": 30.21738374999991,
          "velocity": 0.7480314960629921,
          "duration": 0.2173912499999986
        },
        {
          "name": "G2",
          "midi": 43,
          "time": 30.21738374999991,
          "velocity": 0.7480314960629921,
          "duration": 0.2173912499999986
        },
        {
          "name": "A#3",
          "midi": 58,
          "time": 30.43477499999991,
          "velocity": 0.7480314960629921,
          "duration": 0.2173912499999986
        },
        {
          "name": "F3",
          "midi": 53,
          "time": 30.43477499999991,
          "velocity": 0.7480314960629921,
          "duration": 0.2173912499999986
        },
        {
          "name": "A#2",
          "midi": 46,
          "time": 30.43477499999991,
          "velocity": 0.7480314960629921,
          "duration": 0.2173912499999986
        },
        {
          "name": "A#3",
          "midi": 58,
          "time": 30.652166249999908,
          "velocity": 0.7480314960629921,
          "duration": 0.2173912499999986
        },
        {
          "name": "F3",
          "midi": 53,
          "time": 30.652166249999908,
          "velocity": 0.7480314960629921,
          "duration": 0.2173912499999986
        },
        {
          "name": "A#2",
          "midi": 46,
          "time": 30.652166249999908,
          "velocity": 0.7480314960629921,
          "duration": 0.2173912499999986
        },
        {
          "name": "A#3",
          "midi": 58,
          "time": 30.869557499999907,
          "velocity": 0.7480314960629921,
          "duration": 0.2173912499999986
        },
        {
          "name": "F3",
          "midi": 53,
          "time": 30.869557499999907,
          "velocity": 0.7480314960629921,
          "duration": 0.2173912499999986
        },
        {
          "name": "A#2",
          "midi": 46,
          "time": 30.869557499999907,
          "velocity": 0.7480314960629921,
          "duration": 0.2173912499999986
        },
        {
          "name": "A#3",
          "midi": 58,
          "time": 31.086948749999905,
          "velocity": 0.7480314960629921,
          "duration": 0.2173912499999986
        },
        {
          "name": "F3",
          "midi": 53,
          "time": 31.086948749999905,
          "velocity": 0.7480314960629921,
          "duration": 0.2173912499999986
        },
        {
          "name": "A#2",
          "midi": 46,
          "time": 31.086948749999905,
          "velocity": 0.7480314960629921,
          "duration": 0.2173912499999986
        },
        {
          "name": "F3",
          "midi": 53,
          "time": 31.304339999999904,
          "velocity": 0.7480314960629921,
          "duration": 0.2173912499999986
        },
        {
          "name": "C3",
          "midi": 48,
          "time": 31.304339999999904,
          "velocity": 0.7480314960629921,
          "duration": 0.2173912499999986
        },
        {
          "name": "F2",
          "midi": 41,
          "time": 31.304339999999904,
          "velocity": 0.7480314960629921,
          "duration": 0.2173912499999986
        },
        {
          "name": "F3",
          "midi": 53,
          "time": 31.521731249999903,
          "velocity": 0.7480314960629921,
          "duration": 0.2173912499999986
        },
        {
          "name": "C3",
          "midi": 48,
          "time": 31.521731249999903,
          "velocity": 0.7480314960629921,
          "duration": 0.2173912499999986
        },
        {
          "name": "F2",
          "midi": 41,
          "time": 31.521731249999903,
          "velocity": 0.7480314960629921,
          "duration": 0.2173912499999986
        },
        {
          "name": "F3",
          "midi": 53,
          "time": 31.7391224999999,
          "velocity": 0.7480314960629921,
          "duration": 0.2173912499999986
        },
        {
          "name": "C3",
          "midi": 48,
          "time": 31.7391224999999,
          "velocity": 0.7480314960629921,
          "duration": 0.2173912499999986
        },
        {
          "name": "F2",
          "midi": 41,
          "time": 31.7391224999999,
          "velocity": 0.7480314960629921,
          "duration": 0.2173912499999986
        },
        {
          "name": "F3",
          "midi": 53,
          "time": 31.9565137499999,
          "velocity": 0.7480314960629921,
          "duration": 0.2173912499999986
        },
        {
          "name": "C3",
          "midi": 48,
          "time": 31.9565137499999,
          "velocity": 0.7480314960629921,
          "duration": 0.2173912499999986
        },
        {
          "name": "F2",
          "midi": 41,
          "time": 31.9565137499999,
          "velocity": 0.7480314960629921,
          "duration": 0.2173912499999986
        },
        {
          "name": "A#3",
          "midi": 58,
          "time": 32.1739049999999,
          "velocity": 0.7480314960629921,
          "duration": 0.2173912499999986
        },
        {
          "name": "F3",
          "midi": 53,
          "time": 32.1739049999999,
          "velocity": 0.7480314960629921,
          "duration": 0.2173912499999986
        },
        {
          "name": "A#2",
          "midi": 46,
          "time": 32.1739049999999,
          "velocity": 0.7480314960629921,
          "duration": 0.2173912499999986
        },
        {
          "name": "A#3",
          "midi": 58,
          "time": 32.3912962499999,
          "velocity": 0.7480314960629921,
          "duration": 0.2173912499999986
        },
        {
          "name": "F3",
          "midi": 53,
          "time": 32.3912962499999,
          "velocity": 0.7480314960629921,
          "duration": 0.2173912499999986
        },
        {
          "name": "A#2",
          "midi": 46,
          "time": 32.3912962499999,
          "velocity": 0.7480314960629921,
          "duration": 0.2173912499999986
        },
        {
          "name": "A#3",
          "midi": 58,
          "time": 32.608687499999895,
          "velocity": 0.7480314960629921,
          "duration": 0.2173912499999986
        },
        {
          "name": "F3",
          "midi": 53,
          "time": 32.608687499999895,
          "velocity": 0.7480314960629921,
          "duration": 0.2173912499999986
        },
        {
          "name": "A#2",
          "midi": 46,
          "time": 32.608687499999895,
          "velocity": 0.7480314960629921,
          "duration": 0.2173912499999986
        },
        {
          "name": "A#3",
          "midi": 58,
          "time": 32.826078749999894,
          "velocity": 0.7480314960629921,
          "duration": 0.2173912499999986
        },
        {
          "name": "F3",
          "midi": 53,
          "time": 32.826078749999894,
          "velocity": 0.7480314960629921,
          "duration": 0.2173912499999986
        },
        {
          "name": "A#2",
          "midi": 46,
          "time": 32.826078749999894,
          "velocity": 0.7480314960629921,
          "duration": 0.2173912499999986
        },
        {
          "name": "G3",
          "midi": 55,
          "time": 33.04346999999989,
          "velocity": 0.7480314960629921,
          "duration": 0.2173912499999986
        },
        {
          "name": "D3",
          "midi": 50,
          "time": 33.04346999999989,
          "velocity": 0.7480314960629921,
          "duration": 0.2173912499999986
        },
        {
          "name": "G2",
          "midi": 43,
          "time": 33.04346999999989,
          "velocity": 0.7480314960629921,
          "duration": 0.2173912499999986
        },
        {
          "name": "G3",
          "midi": 55,
          "time": 33.26086124999989,
          "velocity": 0.7480314960629921,
          "duration": 0.2173912499999986
        },
        {
          "name": "D3",
          "midi": 50,
          "time": 33.26086124999989,
          "velocity": 0.7480314960629921,
          "duration": 0.2173912499999986
        },
        {
          "name": "G2",
          "midi": 43,
          "time": 33.26086124999989,
          "velocity": 0.7480314960629921,
          "duration": 0.2173912499999986
        },
        {
          "name": "G3",
          "midi": 55,
          "time": 33.47825249999989,
          "velocity": 0.7480314960629921,
          "duration": 0.2173912499999986
        },
        {
          "name": "D3",
          "midi": 50,
          "time": 33.47825249999989,
          "velocity": 0.7480314960629921,
          "duration": 0.2173912499999986
        },
        {
          "name": "G2",
          "midi": 43,
          "time": 33.47825249999989,
          "velocity": 0.7480314960629921,
          "duration": 0.2173912499999986
        },
        {
          "name": "G3",
          "midi": 55,
          "time": 33.69564374999989,
          "velocity": 0.7480314960629921,
          "duration": 0.2173912499999986
        },
        {
          "name": "D3",
          "midi": 50,
          "time": 33.69564374999989,
          "velocity": 0.7480314960629921,
          "duration": 0.2173912499999986
        },
        {
          "name": "G2",
          "midi": 43,
          "time": 33.69564374999989,
          "velocity": 0.7480314960629921,
          "duration": 0.2173912499999986
        },
        {
          "name": "A#3",
          "midi": 58,
          "time": 33.91303499999989,
          "velocity": 0.7480314960629921,
          "duration": 0.2173912499999986
        },
        {
          "name": "F3",
          "midi": 53,
          "time": 33.91303499999989,
          "velocity": 0.7480314960629921,
          "duration": 0.2173912499999986
        },
        {
          "name": "A#2",
          "midi": 46,
          "time": 33.91303499999989,
          "velocity": 0.7480314960629921,
          "duration": 0.2173912499999986
        },
        {
          "name": "A#3",
          "midi": 58,
          "time": 34.130426249999886,
          "velocity": 0.7480314960629921,
          "duration": 0.2173912499999986
        },
        {
          "name": "F3",
          "midi": 53,
          "time": 34.130426249999886,
          "velocity": 0.7480314960629921,
          "duration": 0.2173912499999986
        },
        {
          "name": "A#2",
          "midi": 46,
          "time": 34.130426249999886,
          "velocity": 0.7480314960629921,
          "duration": 0.2173912499999986
        },
        {
          "name": "A#3",
          "midi": 58,
          "time": 34.347817499999884,
          "velocity": 0.7480314960629921,
          "duration": 0.2173912499999986
        },
        {
          "name": "F3",
          "midi": 53,
          "time": 34.347817499999884,
          "velocity": 0.7480314960629921,
          "duration": 0.2173912499999986
        },
        {
          "name": "A#2",
          "midi": 46,
          "time": 34.347817499999884,
          "velocity": 0.7480314960629921,
          "duration": 0.2173912499999986
        },
        {
          "name": "A#3",
          "midi": 58,
          "time": 34.56520874999988,
          "velocity": 0.7480314960629921,
          "duration": 0.2173912499999986
        },
        {
          "name": "F3",
          "midi": 53,
          "time": 34.56520874999988,
          "velocity": 0.7480314960629921,
          "duration": 0.2173912499999986
        },
        {
          "name": "A#2",
          "midi": 46,
          "time": 34.56520874999988,
          "velocity": 0.7480314960629921,
          "duration": 0.2173912499999986
        },
        {
          "name": "F3",
          "midi": 53,
          "time": 34.78259999999988,
          "velocity": 0.7480314960629921,
          "duration": 0.2173912499999986
        },
        {
          "name": "C3",
          "midi": 48,
          "time": 34.78259999999988,
          "velocity": 0.7480314960629921,
          "duration": 0.2173912499999986
        },
        {
          "name": "F2",
          "midi": 41,
          "time": 34.78259999999988,
          "velocity": 0.7480314960629921,
          "duration": 0.2173912499999986
        },
        {
          "name": "F3",
          "midi": 53,
          "time": 34.99999124999988,
          "velocity": 0.7480314960629921,
          "duration": 0.2173912499999986
        },
        {
          "name": "C3",
          "midi": 48,
          "time": 34.99999124999988,
          "velocity": 0.7480314960629921,
          "duration": 0.2173912499999986
        },
        {
          "name": "F2",
          "midi": 41,
          "time": 34.99999124999988,
          "velocity": 0.7480314960629921,
          "duration": 0.2173912499999986
        },
        {
          "name": "F3",
          "midi": 53,
          "time": 35.21738249999988,
          "velocity": 0.7480314960629921,
          "duration": 0.2173912499999986
        },
        {
          "name": "C3",
          "midi": 48,
          "time": 35.21738249999988,
          "velocity": 0.7480314960629921,
          "duration": 0.2173912499999986
        },
        {
          "name": "F2",
          "midi": 41,
          "time": 35.21738249999988,
          "velocity": 0.7480314960629921,
          "duration": 0.2173912499999986
        },
        {
          "name": "F3",
          "midi": 53,
          "time": 35.43477374999988,
          "velocity": 0.7480314960629921,
          "duration": 0.2173912499999986
        },
        {
          "name": "C3",
          "midi": 48,
          "time": 35.43477374999988,
          "velocity": 0.7480314960629921,
          "duration": 0.2173912499999986
        },
        {
          "name": "F2",
          "midi": 41,
          "time": 35.43477374999988,
          "velocity": 0.7480314960629921,
          "duration": 0.2173912499999986
        },
        {
          "name": "A#3",
          "midi": 58,
          "time": 35.652164999999876,
          "velocity": 0.7480314960629921,
          "duration": 0.2173912499999986
        },
        {
          "name": "F3",
          "midi": 53,
          "time": 35.652164999999876,
          "velocity": 0.7480314960629921,
          "duration": 0.2173912499999986
        },
        {
          "name": "A#2",
          "midi": 46,
          "time": 35.652164999999876,
          "velocity": 0.7480314960629921,
          "duration": 0.2173912499999986
        },
        {
          "name": "A#3",
          "midi": 58,
          "time": 35.869556249999874,
          "velocity": 0.7480314960629921,
          "duration": 0.2173912499999986
        },
        {
          "name": "F3",
          "midi": 53,
          "time": 35.869556249999874,
          "velocity": 0.7480314960629921,
          "duration": 0.2173912499999986
        },
        {
          "name": "A#2",
          "midi": 46,
          "time": 35.869556249999874,
          "velocity": 0.7480314960629921,
          "duration": 0.2173912499999986
        },
        {
          "name": "A#3",
          "midi": 58,
          "time": 36.08694749999987,
          "velocity": 0.7480314960629921,
          "duration": 0.2173912499999986
        },
        {
          "name": "F3",
          "midi": 53,
          "time": 36.08694749999987,
          "velocity": 0.7480314960629921,
          "duration": 0.2173912499999986
        },
        {
          "name": "A#2",
          "midi": 46,
          "time": 36.08694749999987,
          "velocity": 0.7480314960629921,
          "duration": 0.2173912499999986
        },
        {
          "name": "A#3",
          "midi": 58,
          "time": 36.30433874999987,
          "velocity": 0.7480314960629921,
          "duration": 0.2173912499999986
        },
        {
          "name": "F3",
          "midi": 53,
          "time": 36.30433874999987,
          "velocity": 0.7480314960629921,
          "duration": 0.2173912499999986
        },
        {
          "name": "A#2",
          "midi": 46,
          "time": 36.30433874999987,
          "velocity": 0.7480314960629921,
          "duration": 0.2173912499999986
        },
        {
          "name": "G3",
          "midi": 55,
          "time": 36.52172999999987,
          "velocity": 0.7480314960629921,
          "duration": 0.2173912499999986
        },
        {
          "name": "D3",
          "midi": 50,
          "time": 36.52172999999987,
          "velocity": 0.7480314960629921,
          "duration": 0.2173912499999986
        },
        {
          "name": "G2",
          "midi": 43,
          "time": 36.52172999999987,
          "velocity": 0.7480314960629921,
          "duration": 0.2173912499999986
        },
        {
          "name": "G3",
          "midi": 55,
          "time": 36.73912124999987,
          "velocity": 0.7480314960629921,
          "duration": 0.2173912499999986
        },
        {
          "name": "D3",
          "midi": 50,
          "time": 36.73912124999987,
          "velocity": 0.7480314960629921,
          "duration": 0.2173912499999986
        },
        {
          "name": "G2",
          "midi": 43,
          "time": 36.73912124999987,
          "velocity": 0.7480314960629921,
          "duration": 0.2173912499999986
        },
        {
          "name": "G3",
          "midi": 55,
          "time": 36.95651249999987,
          "velocity": 0.7480314960629921,
          "duration": 0.2173912499999986
        },
        {
          "name": "D3",
          "midi": 50,
          "time": 36.95651249999987,
          "velocity": 0.7480314960629921,
          "duration": 0.2173912499999986
        },
        {
          "name": "G2",
          "midi": 43,
          "time": 36.95651249999987,
          "velocity": 0.7480314960629921,
          "duration": 0.2173912499999986
        },
        {
          "name": "G3",
          "midi": 55,
          "time": 37.173903749999866,
          "velocity": 0.7480314960629921,
          "duration": 0.2173912499999986
        },
        {
          "name": "D3",
          "midi": 50,
          "time": 37.173903749999866,
          "velocity": 0.7480314960629921,
          "duration": 0.2173912499999986
        },
        {
          "name": "G2",
          "midi": 43,
          "time": 37.173903749999866,
          "velocity": 0.7480314960629921,
          "duration": 0.2173912499999986
        },
        {
          "name": "A#3",
          "midi": 58,
          "time": 37.391294999999865,
          "velocity": 0.7480314960629921,
          "duration": 0.2173912499999986
        },
        {
          "name": "F3",
          "midi": 53,
          "time": 37.391294999999865,
          "velocity": 0.7480314960629921,
          "duration": 0.2173912499999986
        },
        {
          "name": "A#2",
          "midi": 46,
          "time": 37.391294999999865,
          "velocity": 0.7480314960629921,
          "duration": 0.2173912499999986
        },
        {
          "name": "A#3",
          "midi": 58,
          "time": 37.60868624999986,
          "velocity": 0.7480314960629921,
          "duration": 0.2173912499999986
        },
        {
          "name": "F3",
          "midi": 53,
          "time": 37.60868624999986,
          "velocity": 0.7480314960629921,
          "duration": 0.2173912499999986
        },
        {
          "name": "A#2",
          "midi": 46,
          "time": 37.60868624999986,
          "velocity": 0.7480314960629921,
          "duration": 0.2173912499999986
        },
        {
          "name": "A#3",
          "midi": 58,
          "time": 37.82607749999986,
          "velocity": 0.7480314960629921,
          "duration": 0.2173912499999986
        },
        {
          "name": "F3",
          "midi": 53,
          "time": 37.82607749999986,
          "velocity": 0.7480314960629921,
          "duration": 0.2173912499999986
        },
        {
          "name": "A#2",
          "midi": 46,
          "time": 37.82607749999986,
          "velocity": 0.7480314960629921,
          "duration": 0.2173912499999986
        },
        {
          "name": "A#3",
          "midi": 58,
          "time": 38.04346874999986,
          "velocity": 0.7480314960629921,
          "duration": 0.2173912499999986
        },
        {
          "name": "F3",
          "midi": 53,
          "time": 38.04346874999986,
          "velocity": 0.7480314960629921,
          "duration": 0.2173912499999986
        },
        {
          "name": "A#2",
          "midi": 46,
          "time": 38.04346874999986,
          "velocity": 0.7480314960629921,
          "duration": 0.2173912499999986
        },
        {
          "name": "F3",
          "midi": 53,
          "time": 38.26085999999986,
          "velocity": 0.7480314960629921,
          "duration": 0.2173912499999986
        },
        {
          "name": "C3",
          "midi": 48,
          "time": 38.26085999999986,
          "velocity": 0.7480314960629921,
          "duration": 0.2173912499999986
        },
        {
          "name": "F2",
          "midi": 41,
          "time": 38.26085999999986,
          "velocity": 0.7480314960629921,
          "duration": 0.2173912499999986
        },
        {
          "name": "F3",
          "midi": 53,
          "time": 38.47825124999986,
          "velocity": 0.7480314960629921,
          "duration": 0.2173912499999986
        },
        {
          "name": "C3",
          "midi": 48,
          "time": 38.47825124999986,
          "velocity": 0.7480314960629921,
          "duration": 0.2173912499999986
        },
        {
          "name": "F2",
          "midi": 41,
          "time": 38.47825124999986,
          "velocity": 0.7480314960629921,
          "duration": 0.2173912499999986
        },
        {
          "name": "F3",
          "midi": 53,
          "time": 38.695642499999856,
          "velocity": 0.7480314960629921,
          "duration": 0.2173912499999986
        },
        {
          "name": "C3",
          "midi": 48,
          "time": 38.695642499999856,
          "velocity": 0.7480314960629921,
          "duration": 0.2173912499999986
        },
        {
          "name": "F2",
          "midi": 41,
          "time": 38.695642499999856,
          "velocity": 0.7480314960629921,
          "duration": 0.2173912499999986
        },
        {
          "name": "F3",
          "midi": 53,
          "time": 38.913033749999855,
          "velocity": 0.7480314960629921,
          "duration": 0.2173912499999986
        },
        {
          "name": "C3",
          "midi": 48,
          "time": 38.913033749999855,
          "velocity": 0.7480314960629921,
          "duration": 0.2173912499999986
        },
        {
          "name": "F2",
          "midi": 41,
          "time": 38.913033749999855,
          "velocity": 0.7480314960629921,
          "duration": 0.2173912499999986
        },
        {
          "name": "A#3",
          "midi": 58,
          "time": 39.13042499999985,
          "velocity": 0.7480314960629921,
          "duration": 0.2173912499999986
        },
        {
          "name": "F3",
          "midi": 53,
          "time": 39.13042499999985,
          "velocity": 0.7480314960629921,
          "duration": 0.2173912499999986
        },
        {
          "name": "A#2",
          "midi": 46,
          "time": 39.13042499999985,
          "velocity": 0.7480314960629921,
          "duration": 0.2173912499999986
        },
        {
          "name": "A#3",
          "midi": 58,
          "time": 39.34781624999985,
          "velocity": 0.7480314960629921,
          "duration": 0.2173912499999986
        },
        {
          "name": "F3",
          "midi": 53,
          "time": 39.34781624999985,
          "velocity": 0.7480314960629921,
          "duration": 0.2173912499999986
        },
        {
          "name": "A#2",
          "midi": 46,
          "time": 39.34781624999985,
          "velocity": 0.7480314960629921,
          "duration": 0.2173912499999986
        },
        {
          "name": "A#3",
          "midi": 58,
          "time": 39.56520749999985,
          "velocity": 0.7480314960629921,
          "duration": 0.2173912499999986
        },
        {
          "name": "F3",
          "midi": 53,
          "time": 39.56520749999985,
          "velocity": 0.7480314960629921,
          "duration": 0.2173912499999986
        },
        {
          "name": "A#2",
          "midi": 46,
          "time": 39.56520749999985,
          "velocity": 0.7480314960629921,
          "duration": 0.2173912499999986
        },
        {
          "name": "A#3",
          "midi": 58,
          "time": 39.78259874999985,
          "velocity": 0.7480314960629921,
          "duration": 0.2173912499999986
        },
        {
          "name": "F3",
          "midi": 53,
          "time": 39.78259874999985,
          "velocity": 0.7480314960629921,
          "duration": 0.2173912499999986
        },
        {
          "name": "A#2",
          "midi": 46,
          "time": 39.78259874999985,
          "velocity": 0.7480314960629921,
          "duration": 0.2173912499999986
        },
        {
          "name": "G3",
          "midi": 55,
          "time": 39.99998999999985,
          "velocity": 0.7480314960629921,
          "duration": 0.2173912499999986
        },
        {
          "name": "D3",
          "midi": 50,
          "time": 39.99998999999985,
          "velocity": 0.7480314960629921,
          "duration": 0.2173912499999986
        },
        {
          "name": "G2",
          "midi": 43,
          "time": 39.99998999999985,
          "velocity": 0.7480314960629921,
          "duration": 0.2173912499999986
        },
        {
          "name": "G3",
          "midi": 55,
          "time": 40.217381249999846,
          "velocity": 0.7480314960629921,
          "duration": 0.2173912499999986
        },
        {
          "name": "D3",
          "midi": 50,
          "time": 40.217381249999846,
          "velocity": 0.7480314960629921,
          "duration": 0.2173912499999986
        },
        {
          "name": "G2",
          "midi": 43,
          "time": 40.217381249999846,
          "velocity": 0.7480314960629921,
          "duration": 0.2173912499999986
        },
        {
          "name": "G3",
          "midi": 55,
          "time": 40.434772499999845,
          "velocity": 0.7480314960629921,
          "duration": 0.2173912499999986
        },
        {
          "name": "D3",
          "midi": 50,
          "time": 40.434772499999845,
          "velocity": 0.7480314960629921,
          "duration": 0.2173912499999986
        },
        {
          "name": "G2",
          "midi": 43,
          "time": 40.434772499999845,
          "velocity": 0.7480314960629921,
          "duration": 0.2173912499999986
        },
        {
          "name": "G3",
          "midi": 55,
          "time": 40.65216374999984,
          "velocity": 0.7480314960629921,
          "duration": 0.2173912499999986
        },
        {
          "name": "D3",
          "midi": 50,
          "time": 40.65216374999984,
          "velocity": 0.7480314960629921,
          "duration": 0.2173912499999986
        },
        {
          "name": "G2",
          "midi": 43,
          "time": 40.65216374999984,
          "velocity": 0.7480314960629921,
          "duration": 0.2173912499999986
        },
        {
          "name": "A#3",
          "midi": 58,
          "time": 40.86955499999984,
          "velocity": 0.7480314960629921,
          "duration": 0.2173912499999986
        },
        {
          "name": "F3",
          "midi": 53,
          "time": 40.86955499999984,
          "velocity": 0.7480314960629921,
          "duration": 0.2173912499999986
        },
        {
          "name": "A#2",
          "midi": 46,
          "time": 40.86955499999984,
          "velocity": 0.7480314960629921,
          "duration": 0.2173912499999986
        },
        {
          "name": "A#3",
          "midi": 58,
          "time": 41.08694624999984,
          "velocity": 0.7480314960629921,
          "duration": 0.2173912499999986
        },
        {
          "name": "F3",
          "midi": 53,
          "time": 41.08694624999984,
          "velocity": 0.7480314960629921,
          "duration": 0.2173912499999986
        },
        {
          "name": "A#2",
          "midi": 46,
          "time": 41.08694624999984,
          "velocity": 0.7480314960629921,
          "duration": 0.2173912499999986
        },
        {
          "name": "A#3",
          "midi": 58,
          "time": 41.30433749999984,
          "velocity": 0.7480314960629921,
          "duration": 0.2173912499999986
        },
        {
          "name": "F3",
          "midi": 53,
          "time": 41.30433749999984,
          "velocity": 0.7480314960629921,
          "duration": 0.2173912499999986
        },
        {
          "name": "A#2",
          "midi": 46,
          "time": 41.30433749999984,
          "velocity": 0.7480314960629921,
          "duration": 0.2173912499999986
        },
        {
          "name": "A#3",
          "midi": 58,
          "time": 41.52172874999984,
          "velocity": 0.7480314960629921,
          "duration": 0.2173912499999986
        },
        {
          "name": "F3",
          "midi": 53,
          "time": 41.52172874999984,
          "velocity": 0.7480314960629921,
          "duration": 0.2173912499999986
        },
        {
          "name": "A#2",
          "midi": 46,
          "time": 41.52172874999984,
          "velocity": 0.7480314960629921,
          "duration": 0.2173912499999986
        },
        {
          "name": "F3",
          "midi": 53,
          "time": 41.739119999999836,
          "velocity": 0.7480314960629921,
          "duration": 0.2173912499999986
        },
        {
          "name": "C3",
          "midi": 48,
          "time": 41.739119999999836,
          "velocity": 0.7480314960629921,
          "duration": 0.2173912499999986
        },
        {
          "name": "F2",
          "midi": 41,
          "time": 41.739119999999836,
          "velocity": 0.7480314960629921,
          "duration": 0.2173912499999986
        },
        {
          "name": "F3",
          "midi": 53,
          "time": 41.956511249999835,
          "velocity": 0.7480314960629921,
          "duration": 0.2173912499999986
        },
        {
          "name": "C3",
          "midi": 48,
          "time": 41.956511249999835,
          "velocity": 0.7480314960629921,
          "duration": 0.2173912499999986
        },
        {
          "name": "F2",
          "midi": 41,
          "time": 41.956511249999835,
          "velocity": 0.7480314960629921,
          "duration": 0.2173912499999986
        },
        {
          "name": "F3",
          "midi": 53,
          "time": 42.17390249999983,
          "velocity": 0.7480314960629921,
          "duration": 0.2173912499999986
        },
        {
          "name": "C3",
          "midi": 48,
          "time": 42.17390249999983,
          "velocity": 0.7480314960629921,
          "duration": 0.2173912499999986
        },
        {
          "name": "F2",
          "midi": 41,
          "time": 42.17390249999983,
          "velocity": 0.7480314960629921,
          "duration": 0.2173912499999986
        },
        {
          "name": "F3",
          "midi": 53,
          "time": 42.39129374999983,
          "velocity": 0.7480314960629921,
          "duration": 0.2173912499999986
        },
        {
          "name": "C3",
          "midi": 48,
          "time": 42.39129374999983,
          "velocity": 0.7480314960629921,
          "duration": 0.2173912499999986
        },
        {
          "name": "F2",
          "midi": 41,
          "time": 42.39129374999983,
          "velocity": 0.7480314960629921,
          "duration": 0.2173912499999986
        },
        {
          "name": "A#3",
          "midi": 58,
          "time": 42.60868499999983,
          "velocity": 0.7480314960629921,
          "duration": 0.2173912499999986
        },
        {
          "name": "F3",
          "midi": 53,
          "time": 42.60868499999983,
          "velocity": 0.7480314960629921,
          "duration": 0.2173912499999986
        },
        {
          "name": "A#2",
          "midi": 46,
          "time": 42.60868499999983,
          "velocity": 0.7480314960629921,
          "duration": 0.2173912499999986
        },
        {
          "name": "A#3",
          "midi": 58,
          "time": 42.82607624999983,
          "velocity": 0.7480314960629921,
          "duration": 0.2173912499999986
        },
        {
          "name": "F3",
          "midi": 53,
          "time": 42.82607624999983,
          "velocity": 0.7480314960629921,
          "duration": 0.2173912499999986
        },
        {
          "name": "A#2",
          "midi": 46,
          "time": 42.82607624999983,
          "velocity": 0.7480314960629921,
          "duration": 0.2173912499999986
        },
        {
          "name": "A#3",
          "midi": 58,
          "time": 43.04346749999983,
          "velocity": 0.7480314960629921,
          "duration": 0.2173912499999986
        },
        {
          "name": "F3",
          "midi": 53,
          "time": 43.04346749999983,
          "velocity": 0.7480314960629921,
          "duration": 0.2173912499999986
        },
        {
          "name": "A#2",
          "midi": 46,
          "time": 43.04346749999983,
          "velocity": 0.7480314960629921,
          "duration": 0.2173912499999986
        },
        {
          "name": "A#3",
          "midi": 58,
          "time": 43.26085874999983,
          "velocity": 0.7480314960629921,
          "duration": 0.2173912499999986
        },
        {
          "name": "F3",
          "midi": 53,
          "time": 43.26085874999983,
          "velocity": 0.7480314960629921,
          "duration": 0.2173912499999986
        },
        {
          "name": "A#2",
          "midi": 46,
          "time": 43.26085874999983,
          "velocity": 0.7480314960629921,
          "duration": 0.2173912499999986
        },
        {
          "name": "G3",
          "midi": 55,
          "time": 43.478249999999825,
          "velocity": 0.7480314960629921,
          "duration": 0.2173912499999986
        },
        {
          "name": "D3",
          "midi": 50,
          "time": 43.478249999999825,
          "velocity": 0.7480314960629921,
          "duration": 0.2173912499999986
        },
        {
          "name": "G2",
          "midi": 43,
          "time": 43.478249999999825,
          "velocity": 0.7480314960629921,
          "duration": 0.2173912499999986
        },
        {
          "name": "G3",
          "midi": 55,
          "time": 43.695641249999824,
          "velocity": 0.7480314960629921,
          "duration": 0.2173912499999986
        },
        {
          "name": "D3",
          "midi": 50,
          "time": 43.695641249999824,
          "velocity": 0.7480314960629921,
          "duration": 0.2173912499999986
        },
        {
          "name": "G2",
          "midi": 43,
          "time": 43.695641249999824,
          "velocity": 0.7480314960629921,
          "duration": 0.2173912499999986
        },
        {
          "name": "G3",
          "midi": 55,
          "time": 43.91303249999982,
          "velocity": 0.7480314960629921,
          "duration": 0.2173912499999986
        },
        {
          "name": "D3",
          "midi": 50,
          "time": 43.91303249999982,
          "velocity": 0.7480314960629921,
          "duration": 0.2173912499999986
        },
        {
          "name": "G2",
          "midi": 43,
          "time": 43.91303249999982,
          "velocity": 0.7480314960629921,
          "duration": 0.2173912499999986
        },
        {
          "name": "G3",
          "midi": 55,
          "time": 44.13042374999982,
          "velocity": 0.7480314960629921,
          "duration": 0.2173912499999986
        },
        {
          "name": "D3",
          "midi": 50,
          "time": 44.13042374999982,
          "velocity": 0.7480314960629921,
          "duration": 0.2173912499999986
        },
        {
          "name": "G2",
          "midi": 43,
          "time": 44.13042374999982,
          "velocity": 0.7480314960629921,
          "duration": 0.2173912499999986
        },
        {
          "name": "A#3",
          "midi": 58,
          "time": 44.34781499999982,
          "velocity": 0.7480314960629921,
          "duration": 0.2173912499999986
        },
        {
          "name": "F3",
          "midi": 53,
          "time": 44.34781499999982,
          "velocity": 0.7480314960629921,
          "duration": 0.2173912499999986
        },
        {
          "name": "A#2",
          "midi": 46,
          "time": 44.34781499999982,
          "velocity": 0.7480314960629921,
          "duration": 0.2173912499999986
        },
        {
          "name": "A#3",
          "midi": 58,
          "time": 44.56520624999982,
          "velocity": 0.7480314960629921,
          "duration": 0.2173912499999986
        },
        {
          "name": "F3",
          "midi": 53,
          "time": 44.56520624999982,
          "velocity": 0.7480314960629921,
          "duration": 0.2173912499999986
        },
        {
          "name": "A#2",
          "midi": 46,
          "time": 44.56520624999982,
          "velocity": 0.7480314960629921,
          "duration": 0.2173912499999986
        },
        {
          "name": "A#3",
          "midi": 58,
          "time": 44.78259749999982,
          "velocity": 0.7480314960629921,
          "duration": 0.2173912499999986
        },
        {
          "name": "F3",
          "midi": 53,
          "time": 44.78259749999982,
          "velocity": 0.7480314960629921,
          "duration": 0.2173912499999986
        },
        {
          "name": "A#2",
          "midi": 46,
          "time": 44.78259749999982,
          "velocity": 0.7480314960629921,
          "duration": 0.2173912499999986
        },
        {
          "name": "A#3",
          "midi": 58,
          "time": 44.999988749999815,
          "velocity": 0.7480314960629921,
          "duration": 0.2173912499999986
        },
        {
          "name": "F3",
          "midi": 53,
          "time": 44.999988749999815,
          "velocity": 0.7480314960629921,
          "duration": 0.2173912499999986
        },
        {
          "name": "A#2",
          "midi": 46,
          "time": 44.999988749999815,
          "velocity": 0.7480314960629921,
          "duration": 0.2173912499999986
        },
        {
          "name": "F3",
          "midi": 53,
          "time": 45.217379999999814,
          "velocity": 0.7480314960629921,
          "duration": 0.2173912499999986
        },
        {
          "name": "C3",
          "midi": 48,
          "time": 45.217379999999814,
          "velocity": 0.7480314960629921,
          "duration": 0.2173912499999986
        },
        {
          "name": "F2",
          "midi": 41,
          "time": 45.217379999999814,
          "velocity": 0.7480314960629921,
          "duration": 0.2173912499999986
        },
        {
          "name": "F3",
          "midi": 53,
          "time": 45.43477124999981,
          "velocity": 0.7480314960629921,
          "duration": 0.2173912499999986
        },
        {
          "name": "C3",
          "midi": 48,
          "time": 45.43477124999981,
          "velocity": 0.7480314960629921,
          "duration": 0.2173912499999986
        },
        {
          "name": "F2",
          "midi": 41,
          "time": 45.43477124999981,
          "velocity": 0.7480314960629921,
          "duration": 0.2173912499999986
        },
        {
          "name": "F3",
          "midi": 53,
          "time": 45.65216249999981,
          "velocity": 0.7480314960629921,
          "duration": 0.2173912499999986
        },
        {
          "name": "C3",
          "midi": 48,
          "time": 45.65216249999981,
          "velocity": 0.7480314960629921,
          "duration": 0.2173912499999986
        },
        {
          "name": "F2",
          "midi": 41,
          "time": 45.65216249999981,
          "velocity": 0.7480314960629921,
          "duration": 0.2173912499999986
        },
        {
          "name": "F3",
          "midi": 53,
          "time": 45.86955374999981,
          "velocity": 0.7480314960629921,
          "duration": 0.2173912499999986
        },
        {
          "name": "C3",
          "midi": 48,
          "time": 45.86955374999981,
          "velocity": 0.7480314960629921,
          "duration": 0.2173912499999986
        },
        {
          "name": "F2",
          "midi": 41,
          "time": 45.86955374999981,
          "velocity": 0.7480314960629921,
          "duration": 0.2173912499999986
        },
        {
          "name": "A#3",
          "midi": 58,
          "time": 46.08694499999981,
          "velocity": 0.7480314960629921,
          "duration": 0.2173912499999986
        },
        {
          "name": "F3",
          "midi": 53,
          "time": 46.08694499999981,
          "velocity": 0.7480314960629921,
          "duration": 0.2173912499999986
        },
        {
          "name": "A#2",
          "midi": 46,
          "time": 46.08694499999981,
          "velocity": 0.7480314960629921,
          "duration": 0.2173912499999986
        },
        {
          "name": "A#3",
          "midi": 58,
          "time": 46.30433624999981,
          "velocity": 0.7480314960629921,
          "duration": 0.2173912499999986
        },
        {
          "name": "F3",
          "midi": 53,
          "time": 46.30433624999981,
          "velocity": 0.7480314960629921,
          "duration": 0.2173912499999986
        },
        {
          "name": "A#2",
          "midi": 46,
          "time": 46.30433624999981,
          "velocity": 0.7480314960629921,
          "duration": 0.2173912499999986
        },
        {
          "name": "A#3",
          "midi": 58,
          "time": 46.521727499999805,
          "velocity": 0.7480314960629921,
          "duration": 0.2173912499999986
        },
        {
          "name": "F3",
          "midi": 53,
          "time": 46.521727499999805,
          "velocity": 0.7480314960629921,
          "duration": 0.2173912499999986
        },
        {
          "name": "A#2",
          "midi": 46,
          "time": 46.521727499999805,
          "velocity": 0.7480314960629921,
          "duration": 0.2173912499999986
        },
        {
          "name": "A#3",
          "midi": 58,
          "time": 46.739118749999804,
          "velocity": 0.7480314960629921,
          "duration": 0.2173912499999986
        },
        {
          "name": "F3",
          "midi": 53,
          "time": 46.739118749999804,
          "velocity": 0.7480314960629921,
          "duration": 0.2173912499999986
        },
        {
          "name": "A#2",
          "midi": 46,
          "time": 46.739118749999804,
          "velocity": 0.7480314960629921,
          "duration": 0.2173912499999986
        },
        {
          "name": "G3",
          "midi": 55,
          "time": 46.9565099999998,
          "velocity": 0.7480314960629921,
          "duration": 0.2173912499999986
        },
        {
          "name": "D3",
          "midi": 50,
          "time": 46.9565099999998,
          "velocity": 0.7480314960629921,
          "duration": 0.2173912499999986
        },
        {
          "name": "G2",
          "midi": 43,
          "time": 46.9565099999998,
          "velocity": 0.7480314960629921,
          "duration": 0.2173912499999986
        },
        {
          "name": "G3",
          "midi": 55,
          "time": 47.1739012499998,
          "velocity": 0.7480314960629921,
          "duration": 0.2173912499999986
        },
        {
          "name": "D3",
          "midi": 50,
          "time": 47.1739012499998,
          "velocity": 0.7480314960629921,
          "duration": 0.2173912499999986
        },
        {
          "name": "G2",
          "midi": 43,
          "time": 47.1739012499998,
          "velocity": 0.7480314960629921,
          "duration": 0.2173912499999986
        },
        {
          "name": "G3",
          "midi": 55,
          "time": 47.3912924999998,
          "velocity": 0.7480314960629921,
          "duration": 0.2173912499999986
        },
        {
          "name": "D3",
          "midi": 50,
          "time": 47.3912924999998,
          "velocity": 0.7480314960629921,
          "duration": 0.2173912499999986
        },
        {
          "name": "G2",
          "midi": 43,
          "time": 47.3912924999998,
          "velocity": 0.7480314960629921,
          "duration": 0.2173912499999986
        },
        {
          "name": "G3",
          "midi": 55,
          "time": 47.6086837499998,
          "velocity": 0.7480314960629921,
          "duration": 0.2173912499999986
        },
        {
          "name": "D3",
          "midi": 50,
          "time": 47.6086837499998,
          "velocity": 0.7480314960629921,
          "duration": 0.2173912499999986
        },
        {
          "name": "G2",
          "midi": 43,
          "time": 47.6086837499998,
          "velocity": 0.7480314960629921,
          "duration": 0.2173912499999986
        },
        {
          "name": "A#3",
          "midi": 58,
          "time": 47.8260749999998,
          "velocity": 0.7480314960629921,
          "duration": 0.2173912499999986
        },
        {
          "name": "F3",
          "midi": 53,
          "time": 47.8260749999998,
          "velocity": 0.7480314960629921,
          "duration": 0.2173912499999986
        },
        {
          "name": "A#2",
          "midi": 46,
          "time": 47.8260749999998,
          "velocity": 0.7480314960629921,
          "duration": 0.2173912499999986
        },
        {
          "name": "A#3",
          "midi": 58,
          "time": 48.043466249999796,
          "velocity": 0.7480314960629921,
          "duration": 0.2173912499999986
        },
        {
          "name": "F3",
          "midi": 53,
          "time": 48.043466249999796,
          "velocity": 0.7480314960629921,
          "duration": 0.2173912499999986
        },
        {
          "name": "A#2",
          "midi": 46,
          "time": 48.043466249999796,
          "velocity": 0.7480314960629921,
          "duration": 0.2173912499999986
        },
        {
          "name": "A#3",
          "midi": 58,
          "time": 48.260857499999794,
          "velocity": 0.7480314960629921,
          "duration": 0.2173912499999986
        },
        {
          "name": "F3",
          "midi": 53,
          "time": 48.260857499999794,
          "velocity": 0.7480314960629921,
          "duration": 0.2173912499999986
        },
        {
          "name": "A#2",
          "midi": 46,
          "time": 48.260857499999794,
          "velocity": 0.7480314960629921,
          "duration": 0.2173912499999986
        },
        {
          "name": "A#3",
          "midi": 58,
          "time": 48.47824874999979,
          "velocity": 0.7480314960629921,
          "duration": 0.2173912499999986
        },
        {
          "name": "F3",
          "midi": 53,
          "time": 48.47824874999979,
          "velocity": 0.7480314960629921,
          "duration": 0.2173912499999986
        },
        {
          "name": "A#2",
          "midi": 46,
          "time": 48.47824874999979,
          "velocity": 0.7480314960629921,
          "duration": 0.2173912499999986
        },
        {
          "name": "A#3",
          "midi": 58,
          "time": 48.69563999999979,
          "velocity": 0.7480314960629921,
          "duration": 0.2173912499999986
        },
        {
          "name": "F3",
          "midi": 53,
          "time": 48.69563999999979,
          "velocity": 0.7480314960629921,
          "duration": 0.2173912499999986
        },
        {
          "name": "A#2",
          "midi": 46,
          "time": 48.69563999999979,
          "velocity": 0.7480314960629921,
          "duration": 0.2173912499999986
        },
        {
          "name": "A#3",
          "midi": 58,
          "time": 48.91303124999979,
          "velocity": 0.7480314960629921,
          "duration": 0.2173912499999986
        },
        {
          "name": "F3",
          "midi": 53,
          "time": 48.91303124999979,
          "velocity": 0.7480314960629921,
          "duration": 0.2173912499999986
        },
        {
          "name": "A#2",
          "midi": 46,
          "time": 48.91303124999979,
          "velocity": 0.7480314960629921,
          "duration": 0.2173912499999986
        },
        {
          "name": "A#3",
          "midi": 58,
          "time": 49.13042249999979,
          "velocity": 0.7480314960629921,
          "duration": 0.2173912499999986
        },
        {
          "name": "F3",
          "midi": 53,
          "time": 49.13042249999979,
          "velocity": 0.7480314960629921,
          "duration": 0.2173912499999986
        },
        {
          "name": "A#2",
          "midi": 46,
          "time": 49.13042249999979,
          "velocity": 0.7480314960629921,
          "duration": 0.2173912499999986
        },
        {
          "name": "A#3",
          "midi": 58,
          "time": 49.34781374999979,
          "velocity": 0.7480314960629921,
          "duration": 0.2173912499999986
        },
        {
          "name": "F3",
          "midi": 53,
          "time": 49.34781374999979,
          "velocity": 0.7480314960629921,
          "duration": 0.2173912499999986
        },
        {
          "name": "A#2",
          "midi": 46,
          "time": 49.34781374999979,
          "velocity": 0.7480314960629921,
          "duration": 0.2173912499999986
        },
        {
          "name": "A#3",
          "midi": 58,
          "time": 49.565204999999786,
          "velocity": 0.7480314960629921,
          "duration": 0.2173912499999986
        },
        {
          "name": "F3",
          "midi": 53,
          "time": 49.565204999999786,
          "velocity": 0.7480314960629921,
          "duration": 0.2173912499999986
        },
        {
          "name": "A#2",
          "midi": 46,
          "time": 49.565204999999786,
          "velocity": 0.7480314960629921,
          "duration": 0.2173912499999986
        },
        {
          "name": "A#3",
          "midi": 58,
          "time": 49.782596249999784,
          "velocity": 0.7480314960629921,
          "duration": 0.2173912499999986
        },
        {
          "name": "F3",
          "midi": 53,
          "time": 49.782596249999784,
          "velocity": 0.7480314960629921,
          "duration": 0.2173912499999986
        },
        {
          "name": "A#2",
          "midi": 46,
          "time": 49.782596249999784,
          "velocity": 0.7480314960629921,
          "duration": 0.2173912499999986
        },
        {
          "name": "A#3",
          "midi": 58,
          "time": 49.99998749999978,
          "velocity": 0.7480314960629921,
          "duration": 0.2173912499999986
        },
        {
          "name": "F3",
          "midi": 53,
          "time": 49.99998749999978,
          "velocity": 0.7480314960629921,
          "duration": 0.2173912499999986
        },
        {
          "name": "A#2",
          "midi": 46,
          "time": 49.99998749999978,
          "velocity": 0.7480314960629921,
          "duration": 0.2173912499999986
        },
        {
          "name": "A#3",
          "midi": 58,
          "time": 50.21737874999978,
          "velocity": 0.7480314960629921,
          "duration": 0.2173912499999986
        },
        {
          "name": "F3",
          "midi": 53,
          "time": 50.21737874999978,
          "velocity": 0.7480314960629921,
          "duration": 0.2173912499999986
        },
        {
          "name": "A#2",
          "midi": 46,
          "time": 50.21737874999978,
          "velocity": 0.7480314960629921,
          "duration": 0.2173912499999986
        },
        {
          "name": "A#3",
          "midi": 58,
          "time": 50.43476999999978,
          "velocity": 0.7480314960629921,
          "duration": 0.2173912499999986
        },
        {
          "name": "F3",
          "midi": 53,
          "time": 50.43476999999978,
          "velocity": 0.7480314960629921,
          "duration": 0.2173912499999986
        },
        {
          "name": "A#2",
          "midi": 46,
          "time": 50.43476999999978,
          "velocity": 0.7480314960629921,
          "duration": 0.2173912499999986
        },
        {
          "name": "A#3",
          "midi": 58,
          "time": 50.65216124999978,
          "velocity": 0.7480314960629921,
          "duration": 0.2173912499999986
        },
        {
          "name": "F3",
          "midi": 53,
          "time": 50.65216124999978,
          "velocity": 0.7480314960629921,
          "duration": 0.2173912499999986
        },
        {
          "name": "A#2",
          "midi": 46,
          "time": 50.65216124999978,
          "velocity": 0.7480314960629921,
          "duration": 0.2173912499999986
        },
        {
          "name": "A#3",
          "midi": 58,
          "time": 50.86955249999978,
          "velocity": 0.7480314960629921,
          "duration": 0.2173912499999986
        },
        {
          "name": "F3",
          "midi": 53,
          "time": 50.86955249999978,
          "velocity": 0.7480314960629921,
          "duration": 0.2173912499999986
        },
        {
          "name": "A#2",
          "midi": 46,
          "time": 50.86955249999978,
          "velocity": 0.7480314960629921,
          "duration": 0.2173912499999986
        },
        {
          "name": "A#3",
          "midi": 58,
          "time": 51.086943749999776,
          "velocity": 0.7480314960629921,
          "duration": 0.2173912499999986
        },
        {
          "name": "F3",
          "midi": 53,
          "time": 51.086943749999776,
          "velocity": 0.7480314960629921,
          "duration": 0.2173912499999986
        },
        {
          "name": "A#2",
          "midi": 46,
          "time": 51.086943749999776,
          "velocity": 0.7480314960629921,
          "duration": 0.2173912499999986
        },
        {
          "name": "A#3",
          "midi": 58,
          "time": 51.304334999999774,
          "velocity": 0.7480314960629921,
          "duration": 0.2173912499999986
        },
        {
          "name": "F3",
          "midi": 53,
          "time": 51.304334999999774,
          "velocity": 0.7480314960629921,
          "duration": 0.2173912499999986
        },
        {
          "name": "A#2",
          "midi": 46,
          "time": 51.304334999999774,
          "velocity": 0.7480314960629921,
          "duration": 0.2173912499999986
        },
        {
          "name": "A#3",
          "midi": 58,
          "time": 51.52172624999977,
          "velocity": 0.7480314960629921,
          "duration": 0.2173912499999986
        },
        {
          "name": "F3",
          "midi": 53,
          "time": 51.52172624999977,
          "velocity": 0.7480314960629921,
          "duration": 0.2173912499999986
        },
        {
          "name": "A#2",
          "midi": 46,
          "time": 51.52172624999977,
          "velocity": 0.7480314960629921,
          "duration": 0.2173912499999986
        },
        {
          "name": "A#3",
          "midi": 58,
          "time": 51.73911749999977,
          "velocity": 0.7480314960629921,
          "duration": 0.2173912499999986
        },
        {
          "name": "F3",
          "midi": 53,
          "time": 51.73911749999977,
          "velocity": 0.7480314960629921,
          "duration": 0.2173912499999986
        },
        {
          "name": "A#2",
          "midi": 46,
          "time": 51.73911749999977,
          "velocity": 0.7480314960629921,
          "duration": 0.2173912499999986
        },
        {
          "name": "A#3",
          "midi": 58,
          "time": 51.95650874999977,
          "velocity": 0.7480314960629921,
          "duration": 0.2173912499999986
        },
        {
          "name": "F3",
          "midi": 53,
          "time": 51.95650874999977,
          "velocity": 0.7480314960629921,
          "duration": 0.2173912499999986
        },
        {
          "name": "A#2",
          "midi": 46,
          "time": 51.95650874999977,
          "velocity": 0.7480314960629921,
          "duration": 0.2173912499999986
        },
        {
          "name": "A#3",
          "midi": 58,
          "time": 52.17389999999977,
          "velocity": 0.7480314960629921,
          "duration": 0.2173912499999986
        },
        {
          "name": "F3",
          "midi": 53,
          "time": 52.17389999999977,
          "velocity": 0.7480314960629921,
          "duration": 0.2173912499999986
        },
        {
          "name": "A#2",
          "midi": 46,
          "time": 52.17389999999977,
          "velocity": 0.7480314960629921,
          "duration": 0.2173912499999986
        },
        {
          "name": "A#3",
          "midi": 58,
          "time": 52.39129124999977,
          "velocity": 0.7480314960629921,
          "duration": 0.2173912499999986
        },
        {
          "name": "F3",
          "midi": 53,
          "time": 52.39129124999977,
          "velocity": 0.7480314960629921,
          "duration": 0.2173912499999986
        },
        {
          "name": "A#2",
          "midi": 46,
          "time": 52.39129124999977,
          "velocity": 0.7480314960629921,
          "duration": 0.2173912499999986
        },
        {
          "name": "A#3",
          "midi": 58,
          "time": 52.608682499999766,
          "velocity": 0.7480314960629921,
          "duration": 0.2173912499999986
        },
        {
          "name": "F3",
          "midi": 53,
          "time": 52.608682499999766,
          "velocity": 0.7480314960629921,
          "duration": 0.2173912499999986
        },
        {
          "name": "A#2",
          "midi": 46,
          "time": 52.608682499999766,
          "velocity": 0.7480314960629921,
          "duration": 0.2173912499999986
        },
        {
          "name": "A#3",
          "midi": 58,
          "time": 52.826073749999765,
          "velocity": 0.7480314960629921,
          "duration": 0.2173912499999986
        },
        {
          "name": "F3",
          "midi": 53,
          "time": 52.826073749999765,
          "velocity": 0.7480314960629921,
          "duration": 0.2173912499999986
        },
        {
          "name": "A#2",
          "midi": 46,
          "time": 52.826073749999765,
          "velocity": 0.7480314960629921,
          "duration": 0.2173912499999986
        },
        {
          "name": "F3",
          "midi": 53,
          "time": 53.04346499999976,
          "velocity": 0.7480314960629921,
          "duration": 0.2173912499999986
        },
        {
          "name": "C3",
          "midi": 48,
          "time": 53.04346499999976,
          "velocity": 0.7480314960629921,
          "duration": 0.2173912499999986
        },
        {
          "name": "F2",
          "midi": 41,
          "time": 53.04346499999976,
          "velocity": 0.7480314960629921,
          "duration": 0.2173912499999986
        },
        {
          "name": "F3",
          "midi": 53,
          "time": 53.26085624999976,
          "velocity": 0.7480314960629921,
          "duration": 0.2173912499999986
        },
        {
          "name": "C3",
          "midi": 48,
          "time": 53.26085624999976,
          "velocity": 0.7480314960629921,
          "duration": 0.2173912499999986
        },
        {
          "name": "F2",
          "midi": 41,
          "time": 53.26085624999976,
          "velocity": 0.7480314960629921,
          "duration": 0.2173912499999986
        },
        {
          "name": "F3",
          "midi": 53,
          "time": 53.47824749999976,
          "velocity": 0.7480314960629921,
          "duration": 0.2173912499999986
        },
        {
          "name": "C3",
          "midi": 48,
          "time": 53.47824749999976,
          "velocity": 0.7480314960629921,
          "duration": 0.2173912499999986
        },
        {
          "name": "F2",
          "midi": 41,
          "time": 53.47824749999976,
          "velocity": 0.7480314960629921,
          "duration": 0.2173912499999986
        },
        {
          "name": "F3",
          "midi": 53,
          "time": 53.69563874999976,
          "velocity": 0.7480314960629921,
          "duration": 0.2173912499999986
        },
        {
          "name": "C3",
          "midi": 48,
          "time": 53.69563874999976,
          "velocity": 0.7480314960629921,
          "duration": 0.2173912499999986
        },
        {
          "name": "F2",
          "midi": 41,
          "time": 53.69563874999976,
          "velocity": 0.7480314960629921,
          "duration": 0.2173912499999986
        },
        {
          "name": "C4",
          "midi": 60,
          "time": 53.91302999999976,
          "velocity": 0.7480314960629921,
          "duration": 0.2173912499999986
        },
        {
          "name": "G3",
          "midi": 55,
          "time": 53.91302999999976,
          "velocity": 0.7480314960629921,
          "duration": 0.2173912499999986
        },
        {
          "name": "C3",
          "midi": 48,
          "time": 53.91302999999976,
          "velocity": 0.7480314960629921,
          "duration": 0.2173912499999986
        },
        {
          "name": "C4",
          "midi": 60,
          "time": 54.130421249999756,
          "velocity": 0.7480314960629921,
          "duration": 0.2173912499999986
        },
        {
          "name": "G3",
          "midi": 55,
          "time": 54.130421249999756,
          "velocity": 0.7480314960629921,
          "duration": 0.2173912499999986
        },
        {
          "name": "C3",
          "midi": 48,
          "time": 54.130421249999756,
          "velocity": 0.7480314960629921,
          "duration": 0.2173912499999986
        },
        {
          "name": "C4",
          "midi": 60,
          "time": 54.347812499999755,
          "velocity": 0.7480314960629921,
          "duration": 0.2173912499999986
        },
        {
          "name": "G3",
          "midi": 55,
          "time": 54.347812499999755,
          "velocity": 0.7480314960629921,
          "duration": 0.2173912499999986
        },
        {
          "name": "C3",
          "midi": 48,
          "time": 54.347812499999755,
          "velocity": 0.7480314960629921,
          "duration": 0.2173912499999986
        },
        {
          "name": "C4",
          "midi": 60,
          "time": 54.56520374999975,
          "velocity": 0.7480314960629921,
          "duration": 0.2173912499999986
        },
        {
          "name": "G3",
          "midi": 55,
          "time": 54.56520374999975,
          "velocity": 0.7480314960629921,
          "duration": 0.2173912499999986
        },
        {
          "name": "C3",
          "midi": 48,
          "time": 54.56520374999975,
          "velocity": 0.7480314960629921,
          "duration": 0.2173912499999986
        },
        {
          "name": "F3",
          "midi": 53,
          "time": 54.78259499999975,
          "velocity": 0.7480314960629921,
          "duration": 0.2173912499999986
        },
        {
          "name": "C3",
          "midi": 48,
          "time": 54.78259499999975,
          "velocity": 0.7480314960629921,
          "duration": 0.2173912499999986
        },
        {
          "name": "F2",
          "midi": 41,
          "time": 54.78259499999975,
          "velocity": 0.7480314960629921,
          "duration": 0.2173912499999986
        },
        {
          "name": "F3",
          "midi": 53,
          "time": 54.99998624999975,
          "velocity": 0.7480314960629921,
          "duration": 0.2173912499999986
        },
        {
          "name": "C3",
          "midi": 48,
          "time": 54.99998624999975,
          "velocity": 0.7480314960629921,
          "duration": 0.2173912499999986
        },
        {
          "name": "F2",
          "midi": 41,
          "time": 54.99998624999975,
          "velocity": 0.7480314960629921,
          "duration": 0.2173912499999986
        },
        {
          "name": "F3",
          "midi": 53,
          "time": 55.21737749999975,
          "velocity": 0.7480314960629921,
          "duration": 0.2173912499999986
        },
        {
          "name": "C3",
          "midi": 48,
          "time": 55.21737749999975,
          "velocity": 0.7480314960629921,
          "duration": 0.2173912499999986
        },
        {
          "name": "F2",
          "midi": 41,
          "time": 55.21737749999975,
          "velocity": 0.7480314960629921,
          "duration": 0.2173912499999986
        },
        {
          "name": "F3",
          "midi": 53,
          "time": 55.43476874999975,
          "velocity": 0.7480314960629921,
          "duration": 0.2173912499999986
        },
        {
          "name": "C3",
          "midi": 48,
          "time": 55.43476874999975,
          "velocity": 0.7480314960629921,
          "duration": 0.2173912499999986
        },
        {
          "name": "F2",
          "midi": 41,
          "time": 55.43476874999975,
          "velocity": 0.7480314960629921,
          "duration": 0.2173912499999986
        },
        {
          "name": "D4",
          "midi": 62,
          "time": 55.652159999999746,
          "velocity": 0.7480314960629921,
          "duration": 0.2173912499999986
        },
        {
          "name": "A3",
          "midi": 57,
          "time": 55.652159999999746,
          "velocity": 0.7480314960629921,
          "duration": 0.2173912499999986
        },
        {
          "name": "D3",
          "midi": 50,
          "time": 55.652159999999746,
          "velocity": 0.7480314960629921,
          "duration": 0.2173912499999986
        },
        {
          "name": "D4",
          "midi": 62,
          "time": 55.869551249999745,
          "velocity": 0.7480314960629921,
          "duration": 0.2173912499999986
        },
        {
          "name": "A3",
          "midi": 57,
          "time": 55.869551249999745,
          "velocity": 0.7480314960629921,
          "duration": 0.2173912499999986
        },
        {
          "name": "D3",
          "midi": 50,
          "time": 55.869551249999745,
          "velocity": 0.7480314960629921,
          "duration": 0.2173912499999986
        },
        {
          "name": "D4",
          "midi": 62,
          "time": 56.08694249999974,
          "velocity": 0.7480314960629921,
          "duration": 0.2173912499999986
        },
        {
          "name": "A3",
          "midi": 57,
          "time": 56.08694249999974,
          "velocity": 0.7480314960629921,
          "duration": 0.2173912499999986
        },
        {
          "name": "D3",
          "midi": 50,
          "time": 56.08694249999974,
          "velocity": 0.7480314960629921,
          "duration": 0.2173912499999986
        },
        {
          "name": "D4",
          "midi": 62,
          "time": 56.30433374999974,
          "velocity": 0.7480314960629921,
          "duration": 0.2173912499999986
        },
        {
          "name": "A3",
          "midi": 57,
          "time": 56.30433374999974,
          "velocity": 0.7480314960629921,
          "duration": 0.2173912499999986
        },
        {
          "name": "D3",
          "midi": 50,
          "time": 56.30433374999974,
          "velocity": 0.7480314960629921,
          "duration": 0.2173912499999986
        },
        {
          "name": "A3",
          "midi": 57,
          "time": 56.52172499999974,
          "velocity": 0.7480314960629921,
          "duration": 0.2173912499999986
        },
        {
          "name": "E3",
          "midi": 52,
          "time": 56.52172499999974,
          "velocity": 0.7480314960629921,
          "duration": 0.2173912499999986
        },
        {
          "name": "A2",
          "midi": 45,
          "time": 56.52172499999974,
          "velocity": 0.7480314960629921,
          "duration": 0.2173912499999986
        },
        {
          "name": "A3",
          "midi": 57,
          "time": 56.73911624999974,
          "velocity": 0.7480314960629921,
          "duration": 0.2173912499999986
        },
        {
          "name": "E3",
          "midi": 52,
          "time": 56.73911624999974,
          "velocity": 0.7480314960629921,
          "duration": 0.2173912499999986
        },
        {
          "name": "A2",
          "midi": 45,
          "time": 56.73911624999974,
          "velocity": 0.7480314960629921,
          "duration": 0.2173912499999986
        },
        {
          "name": "A3",
          "midi": 57,
          "time": 56.95650749999974,
          "velocity": 0.7480314960629921,
          "duration": 0.2173912499999986
        },
        {
          "name": "E3",
          "midi": 52,
          "time": 56.95650749999974,
          "velocity": 0.7480314960629921,
          "duration": 0.2173912499999986
        },
        {
          "name": "A2",
          "midi": 45,
          "time": 56.95650749999974,
          "velocity": 0.7480314960629921,
          "duration": 0.2173912499999986
        },
        {
          "name": "A3",
          "midi": 57,
          "time": 57.173898749999736,
          "velocity": 0.7480314960629921,
          "duration": 0.2173912499999986
        },
        {
          "name": "E3",
          "midi": 52,
          "time": 57.173898749999736,
          "velocity": 0.7480314960629921,
          "duration": 0.2173912499999986
        },
        {
          "name": "A2",
          "midi": 45,
          "time": 57.173898749999736,
          "velocity": 0.7480314960629921,
          "duration": 0.2173912499999986
        },
        {
          "name": "A#3",
          "midi": 58,
          "time": 57.391289999999735,
          "velocity": 0.7480314960629921,
          "duration": 0.2173912499999986
        },
        {
          "name": "F3",
          "midi": 53,
          "time": 57.391289999999735,
          "velocity": 0.7480314960629921,
          "duration": 0.2173912499999986
        },
        {
          "name": "A#2",
          "midi": 46,
          "time": 57.391289999999735,
          "velocity": 0.7480314960629921,
          "duration": 0.2173912499999986
        },
        {
          "name": "A#3",
          "midi": 58,
          "time": 57.608681249999734,
          "velocity": 0.7480314960629921,
          "duration": 0.2173912499999986
        },
        {
          "name": "F3",
          "midi": 53,
          "time": 57.608681249999734,
          "velocity": 0.7480314960629921,
          "duration": 0.2173912499999986
        },
        {
          "name": "A#2",
          "midi": 46,
          "time": 57.608681249999734,
          "velocity": 0.7480314960629921,
          "duration": 0.2173912499999986
        },
        {
          "name": "A#3",
          "midi": 58,
          "time": 57.82607249999973,
          "velocity": 0.7480314960629921,
          "duration": 0.2173912499999986
        },
        {
          "name": "F3",
          "midi": 53,
          "time": 57.82607249999973,
          "velocity": 0.7480314960629921,
          "duration": 0.2173912499999986
        },
        {
          "name": "A#2",
          "midi": 46,
          "time": 57.82607249999973,
          "velocity": 0.7480314960629921,
          "duration": 0.2173912499999986
        },
        {
          "name": "A#3",
          "midi": 58,
          "time": 58.04346374999973,
          "velocity": 0.7480314960629921,
          "duration": 0.2173912499999986
        },
        {
          "name": "F3",
          "midi": 53,
          "time": 58.04346374999973,
          "velocity": 0.7480314960629921,
          "duration": 0.2173912499999986
        },
        {
          "name": "A#2",
          "midi": 46,
          "time": 58.04346374999973,
          "velocity": 0.7480314960629921,
          "duration": 0.2173912499999986
        },
        {
          "name": "C4",
          "midi": 60,
          "time": 58.26085499999973,
          "velocity": 0.7480314960629921,
          "duration": 0.2173912499999986
        },
        {
          "name": "G3",
          "midi": 55,
          "time": 58.26085499999973,
          "velocity": 0.7480314960629921,
          "duration": 0.2173912499999986
        },
        {
          "name": "C3",
          "midi": 48,
          "time": 58.26085499999973,
          "velocity": 0.7480314960629921,
          "duration": 0.2173912499999986
        },
        {
          "name": "C4",
          "midi": 60,
          "time": 58.47824624999973,
          "velocity": 0.7480314960629921,
          "duration": 0.2173912499999986
        },
        {
          "name": "G3",
          "midi": 55,
          "time": 58.47824624999973,
          "velocity": 0.7480314960629921,
          "duration": 0.2173912499999986
        },
        {
          "name": "C3",
          "midi": 48,
          "time": 58.47824624999973,
          "velocity": 0.7480314960629921,
          "duration": 0.2173912499999986
        },
        {
          "name": "C4",
          "midi": 60,
          "time": 58.69563749999973,
          "velocity": 0.7480314960629921,
          "duration": 0.2173912499999986
        },
        {
          "name": "G3",
          "midi": 55,
          "time": 58.69563749999973,
          "velocity": 0.7480314960629921,
          "duration": 0.2173912499999986
        },
        {
          "name": "C3",
          "midi": 48,
          "time": 58.69563749999973,
          "velocity": 0.7480314960629921,
          "duration": 0.2173912499999986
        },
        {
          "name": "C4",
          "midi": 60,
          "time": 58.913028749999725,
          "velocity": 0.7480314960629921,
          "duration": 0.2173912499999986
        },
        {
          "name": "G3",
          "midi": 55,
          "time": 58.913028749999725,
          "velocity": 0.7480314960629921,
          "duration": 0.2173912499999986
        },
        {
          "name": "C3",
          "midi": 48,
          "time": 58.913028749999725,
          "velocity": 0.7480314960629921,
          "duration": 0.2173912499999986
        },
        {
          "name": "F3",
          "midi": 53,
          "time": 66.08693999999973,
          "velocity": 0.7480314960629921,
          "duration": 0.2173912500000057
        },
        {
          "name": "C3",
          "midi": 48,
          "time": 66.08693999999973,
          "velocity": 0.7480314960629921,
          "duration": 0.2173912500000057
        },
        {
          "name": "F2",
          "midi": 41,
          "time": 66.08693999999973,
          "velocity": 0.7480314960629921,
          "duration": 0.2173912500000057
        },
        {
          "name": "F3",
          "midi": 53,
          "time": 66.30433124999973,
          "velocity": 0.7480314960629921,
          "duration": 0.2173912500000057
        },
        {
          "name": "C3",
          "midi": 48,
          "time": 66.30433124999973,
          "velocity": 0.7480314960629921,
          "duration": 0.2173912500000057
        },
        {
          "name": "F2",
          "midi": 41,
          "time": 66.30433124999973,
          "velocity": 0.7480314960629921,
          "duration": 0.2173912500000057
        },
        {
          "name": "F3",
          "midi": 53,
          "time": 66.52172249999974,
          "velocity": 0.7480314960629921,
          "duration": 0.2173912500000057
        },
        {
          "name": "C3",
          "midi": 48,
          "time": 66.52172249999974,
          "velocity": 0.7480314960629921,
          "duration": 0.2173912500000057
        },
        {
          "name": "F2",
          "midi": 41,
          "time": 66.52172249999974,
          "velocity": 0.7480314960629921,
          "duration": 0.2173912500000057
        },
        {
          "name": "F3",
          "midi": 53,
          "time": 66.73911374999975,
          "velocity": 0.7480314960629921,
          "duration": 0.2173912500000057
        },
        {
          "name": "C3",
          "midi": 48,
          "time": 66.73911374999975,
          "velocity": 0.7480314960629921,
          "duration": 0.2173912500000057
        },
        {
          "name": "F2",
          "midi": 41,
          "time": 66.73911374999975,
          "velocity": 0.7480314960629921,
          "duration": 0.2173912500000057
        },
        {
          "name": "A3",
          "midi": 57,
          "time": 66.95650499999975,
          "velocity": 0.7480314960629921,
          "duration": 0.2173912500000057
        },
        {
          "name": "E3",
          "midi": 52,
          "time": 66.95650499999975,
          "velocity": 0.7480314960629921,
          "duration": 0.2173912500000057
        },
        {
          "name": "A2",
          "midi": 45,
          "time": 66.95650499999975,
          "velocity": 0.7480314960629921,
          "duration": 0.2173912500000057
        },
        {
          "name": "A3",
          "midi": 57,
          "time": 67.17389624999976,
          "velocity": 0.7480314960629921,
          "duration": 0.2173912500000057
        },
        {
          "name": "E3",
          "midi": 52,
          "time": 67.17389624999976,
          "velocity": 0.7480314960629921,
          "duration": 0.2173912500000057
        },
        {
          "name": "A2",
          "midi": 45,
          "time": 67.17389624999976,
          "velocity": 0.7480314960629921,
          "duration": 0.2173912500000057
        },
        {
          "name": "A3",
          "midi": 57,
          "time": 67.39128749999976,
          "velocity": 0.7480314960629921,
          "duration": 0.2173912500000057
        },
        {
          "name": "E3",
          "midi": 52,
          "time": 67.39128749999976,
          "velocity": 0.7480314960629921,
          "duration": 0.2173912500000057
        },
        {
          "name": "A2",
          "midi": 45,
          "time": 67.39128749999976,
          "velocity": 0.7480314960629921,
          "duration": 0.2173912500000057
        },
        {
          "name": "A3",
          "midi": 57,
          "time": 67.60867874999977,
          "velocity": 0.7480314960629921,
          "duration": 0.2173912500000057
        },
        {
          "name": "E3",
          "midi": 52,
          "time": 67.60867874999977,
          "velocity": 0.7480314960629921,
          "duration": 0.2173912500000057
        },
        {
          "name": "A2",
          "midi": 45,
          "time": 67.60867874999977,
          "velocity": 0.7480314960629921,
          "duration": 0.2173912500000057
        },
        {
          "name": "F3",
          "midi": 53,
          "time": 67.82606999999977,
          "velocity": 0.7480314960629921,
          "duration": 0.2173912500000057
        },
        {
          "name": "C3",
          "midi": 48,
          "time": 67.82606999999977,
          "velocity": 0.7480314960629921,
          "duration": 0.2173912500000057
        },
        {
          "name": "F2",
          "midi": 41,
          "time": 67.82606999999977,
          "velocity": 0.7480314960629921,
          "duration": 0.2173912500000057
        },
        {
          "name": "F3",
          "midi": 53,
          "time": 68.04346124999978,
          "velocity": 0.7480314960629921,
          "duration": 0.2173912500000057
        },
        {
          "name": "C3",
          "midi": 48,
          "time": 68.04346124999978,
          "velocity": 0.7480314960629921,
          "duration": 0.2173912500000057
        },
        {
          "name": "F2",
          "midi": 41,
          "time": 68.04346124999978,
          "velocity": 0.7480314960629921,
          "duration": 0.2173912500000057
        },
        {
          "name": "F3",
          "midi": 53,
          "time": 68.26085249999979,
          "velocity": 0.7480314960629921,
          "duration": 0.2173912500000057
        },
        {
          "name": "C3",
          "midi": 48,
          "time": 68.26085249999979,
          "velocity": 0.7480314960629921,
          "duration": 0.2173912500000057
        },
        {
          "name": "F2",
          "midi": 41,
          "time": 68.26085249999979,
          "velocity": 0.7480314960629921,
          "duration": 0.2173912500000057
        },
        {
          "name": "F3",
          "midi": 53,
          "time": 68.47824374999979,
          "velocity": 0.7480314960629921,
          "duration": 0.2173912500000057
        },
        {
          "name": "C3",
          "midi": 48,
          "time": 68.47824374999979,
          "velocity": 0.7480314960629921,
          "duration": 0.2173912500000057
        },
        {
          "name": "F2",
          "midi": 41,
          "time": 68.47824374999979,
          "velocity": 0.7480314960629921,
          "duration": 0.2173912500000057
        },
        {
          "name": "D4",
          "midi": 62,
          "time": 68.6956349999998,
          "velocity": 0.7480314960629921,
          "duration": 0.2173912500000057
        },
        {
          "name": "A3",
          "midi": 57,
          "time": 68.6956349999998,
          "velocity": 0.7480314960629921,
          "duration": 0.2173912500000057
        },
        {
          "name": "D3",
          "midi": 50,
          "time": 68.6956349999998,
          "velocity": 0.7480314960629921,
          "duration": 0.2173912500000057
        },
        {
          "name": "D4",
          "midi": 62,
          "time": 68.9130262499998,
          "velocity": 0.7480314960629921,
          "duration": 0.2173912500000057
        },
        {
          "name": "A3",
          "midi": 57,
          "time": 68.9130262499998,
          "velocity": 0.7480314960629921,
          "duration": 0.2173912500000057
        },
        {
          "name": "D3",
          "midi": 50,
          "time": 68.9130262499998,
          "velocity": 0.7480314960629921,
          "duration": 0.2173912500000057
        },
        {
          "name": "D4",
          "midi": 62,
          "time": 69.13041749999981,
          "velocity": 0.7480314960629921,
          "duration": 0.2173912500000057
        },
        {
          "name": "A3",
          "midi": 57,
          "time": 69.13041749999981,
          "velocity": 0.7480314960629921,
          "duration": 0.2173912500000057
        },
        {
          "name": "D3",
          "midi": 50,
          "time": 69.13041749999981,
          "velocity": 0.7480314960629921,
          "duration": 0.2173912500000057
        },
        {
          "name": "D4",
          "midi": 62,
          "time": 69.34780874999981,
          "velocity": 0.7480314960629921,
          "duration": 0.2173912500000057
        },
        {
          "name": "A3",
          "midi": 57,
          "time": 69.34780874999981,
          "velocity": 0.7480314960629921,
          "duration": 0.2173912500000057
        },
        {
          "name": "D3",
          "midi": 50,
          "time": 69.34780874999981,
          "velocity": 0.7480314960629921,
          "duration": 0.2173912500000057
        },
        {
          "name": "A#3",
          "midi": 58,
          "time": 69.56519999999982,
          "velocity": 0.7480314960629921,
          "duration": 0.2173912500000057
        },
        {
          "name": "F3",
          "midi": 53,
          "time": 69.56519999999982,
          "velocity": 0.7480314960629921,
          "duration": 0.2173912500000057
        },
        {
          "name": "A#2",
          "midi": 46,
          "time": 69.56519999999982,
          "velocity": 0.7480314960629921,
          "duration": 0.2173912500000057
        },
        {
          "name": "A#3",
          "midi": 58,
          "time": 69.78259124999983,
          "velocity": 0.7480314960629921,
          "duration": 0.2173912500000057
        },
        {
          "name": "F3",
          "midi": 53,
          "time": 69.78259124999983,
          "velocity": 0.7480314960629921,
          "duration": 0.2173912500000057
        },
        {
          "name": "A#2",
          "midi": 46,
          "time": 69.78259124999983,
          "velocity": 0.7480314960629921,
          "duration": 0.2173912500000057
        },
        {
          "name": "A#3",
          "midi": 58,
          "time": 69.99998249999983,
          "velocity": 0.7480314960629921,
          "duration": 0.2173912500000057
        },
        {
          "name": "F3",
          "midi": 53,
          "time": 69.99998249999983,
          "velocity": 0.7480314960629921,
          "duration": 0.2173912500000057
        },
        {
          "name": "A#2",
          "midi": 46,
          "time": 69.99998249999983,
          "velocity": 0.7480314960629921,
          "duration": 0.2173912500000057
        },
        {
          "name": "A#3",
          "midi": 58,
          "time": 70.21737374999984,
          "velocity": 0.7480314960629921,
          "duration": 0.2173912500000057
        },
        {
          "name": "F3",
          "midi": 53,
          "time": 70.21737374999984,
          "velocity": 0.7480314960629921,
          "duration": 0.2173912500000057
        },
        {
          "name": "A#2",
          "midi": 46,
          "time": 70.21737374999984,
          "velocity": 0.7480314960629921,
          "duration": 0.2173912500000057
        },
        {
          "name": "C4",
          "midi": 60,
          "time": 70.43476499999984,
          "velocity": 0.7480314960629921,
          "duration": 0.2173912500000057
        },
        {
          "name": "F3",
          "midi": 53,
          "time": 70.43476499999984,
          "velocity": 0.7480314960629921,
          "duration": 0.2173912500000057
        },
        {
          "name": "C3",
          "midi": 48,
          "time": 70.43476499999984,
          "velocity": 0.7480314960629921,
          "duration": 0.2173912500000057
        },
        {
          "name": "C4",
          "midi": 60,
          "time": 70.65215624999985,
          "velocity": 0.7480314960629921,
          "duration": 0.2173912500000057
        },
        {
          "name": "F3",
          "midi": 53,
          "time": 70.65215624999985,
          "velocity": 0.7480314960629921,
          "duration": 0.2173912500000057
        },
        {
          "name": "C3",
          "midi": 48,
          "time": 70.65215624999985,
          "velocity": 0.7480314960629921,
          "duration": 0.2173912500000057
        },
        {
          "name": "C4",
          "midi": 60,
          "time": 70.86954749999985,
          "velocity": 0.7480314960629921,
          "duration": 0.2173912500000057
        },
        {
          "name": "F3",
          "midi": 53,
          "time": 70.86954749999985,
          "velocity": 0.7480314960629921,
          "duration": 0.2173912500000057
        },
        {
          "name": "C3",
          "midi": 48,
          "time": 70.86954749999985,
          "velocity": 0.7480314960629921,
          "duration": 0.2173912500000057
        },
        {
          "name": "C4",
          "midi": 60,
          "time": 71.08693874999986,
          "velocity": 0.7480314960629921,
          "duration": 0.2173912500000057
        },
        {
          "name": "F3",
          "midi": 53,
          "time": 71.08693874999986,
          "velocity": 0.7480314960629921,
          "duration": 0.2173912500000057
        },
        {
          "name": "C3",
          "midi": 48,
          "time": 71.08693874999986,
          "velocity": 0.7480314960629921,
          "duration": 0.2173912500000057
        },
        {
          "name": "G3",
          "midi": 55,
          "time": 71.30432999999987,
          "velocity": 0.7480314960629921,
          "duration": 0.2173912500000057
        },
        {
          "name": "D3",
          "midi": 50,
          "time": 71.30432999999987,
          "velocity": 0.7480314960629921,
          "duration": 0.2173912500000057
        },
        {
          "name": "G2",
          "midi": 43,
          "time": 71.30432999999987,
          "velocity": 0.7480314960629921,
          "duration": 0.2173912500000057
        },
        {
          "name": "G3",
          "midi": 55,
          "time": 71.52172124999987,
          "velocity": 0.7480314960629921,
          "duration": 0.2173912500000057
        },
        {
          "name": "D3",
          "midi": 50,
          "time": 71.52172124999987,
          "velocity": 0.7480314960629921,
          "duration": 0.2173912500000057
        },
        {
          "name": "G2",
          "midi": 43,
          "time": 71.52172124999987,
          "velocity": 0.7480314960629921,
          "duration": 0.2173912500000057
        },
        {
          "name": "G3",
          "midi": 55,
          "time": 71.73911249999988,
          "velocity": 0.7480314960629921,
          "duration": 0.2173912500000057
        },
        {
          "name": "D3",
          "midi": 50,
          "time": 71.73911249999988,
          "velocity": 0.7480314960629921,
          "duration": 0.2173912500000057
        },
        {
          "name": "G2",
          "midi": 43,
          "time": 71.73911249999988,
          "velocity": 0.7480314960629921,
          "duration": 0.2173912500000057
        },
        {
          "name": "G3",
          "midi": 55,
          "time": 71.95650374999988,
          "velocity": 0.7480314960629921,
          "duration": 0.2173912500000057
        },
        {
          "name": "D3",
          "midi": 50,
          "time": 71.95650374999988,
          "velocity": 0.7480314960629921,
          "duration": 0.2173912500000057
        },
        {
          "name": "G2",
          "midi": 43,
          "time": 71.95650374999988,
          "velocity": 0.7480314960629921,
          "duration": 0.2173912500000057
        },
        {
          "name": "G3",
          "midi": 55,
          "time": 72.3912862499999,
          "velocity": 0.7480314960629921,
          "duration": 0.2173912500000057
        },
        {
          "name": "D3",
          "midi": 50,
          "time": 72.3912862499999,
          "velocity": 0.7480314960629921,
          "duration": 0.2173912500000057
        },
        {
          "name": "G2",
          "midi": 43,
          "time": 72.3912862499999,
          "velocity": 0.7480314960629921,
          "duration": 0.2173912500000057
        },
        {
          "name": "G3",
          "midi": 55,
          "time": 72.6086774999999,
          "velocity": 0.7480314960629921,
          "duration": 0.2173912500000057
        },
        {
          "name": "D3",
          "midi": 50,
          "time": 72.6086774999999,
          "velocity": 0.7480314960629921,
          "duration": 0.2173912500000057
        },
        {
          "name": "G2",
          "midi": 43,
          "time": 72.6086774999999,
          "velocity": 0.7480314960629921,
          "duration": 0.2173912500000057
        },
        {
          "name": "G3",
          "midi": 55,
          "time": 72.8260687499999,
          "velocity": 0.7480314960629921,
          "duration": 0.2173912500000057
        },
        {
          "name": "D3",
          "midi": 50,
          "time": 72.8260687499999,
          "velocity": 0.7480314960629921,
          "duration": 0.2173912500000057
        },
        {
          "name": "G2",
          "midi": 43,
          "time": 72.8260687499999,
          "velocity": 0.7480314960629921,
          "duration": 0.2173912500000057
        },
        {
          "name": "A#3",
          "midi": 58,
          "time": 100.86953999999992,
          "velocity": 0.7480314960629921,
          "duration": 0.2173912500000057
        },
        {
          "name": "F3",
          "midi": 53,
          "time": 100.86953999999992,
          "velocity": 0.7480314960629921,
          "duration": 0.2173912500000057
        },
        {
          "name": "A#2",
          "midi": 46,
          "time": 100.86953999999992,
          "velocity": 0.7480314960629921,
          "duration": 0.2173912500000057
        },
        {
          "name": "A#3",
          "midi": 58,
          "time": 101.08693124999992,
          "velocity": 0.7480314960629921,
          "duration": 0.2173912500000057
        },
        {
          "name": "F3",
          "midi": 53,
          "time": 101.08693124999992,
          "velocity": 0.7480314960629921,
          "duration": 0.2173912500000057
        },
        {
          "name": "A#2",
          "midi": 46,
          "time": 101.08693124999992,
          "velocity": 0.7480314960629921,
          "duration": 0.2173912500000057
        },
        {
          "name": "A#3",
          "midi": 58,
          "time": 101.30432249999993,
          "velocity": 0.7480314960629921,
          "duration": 0.2173912500000057
        },
        {
          "name": "F3",
          "midi": 53,
          "time": 101.30432249999993,
          "velocity": 0.7480314960629921,
          "duration": 0.2173912500000057
        },
        {
          "name": "A#2",
          "midi": 46,
          "time": 101.30432249999993,
          "velocity": 0.7480314960629921,
          "duration": 0.2173912500000057
        },
        {
          "name": "A#3",
          "midi": 58,
          "time": 101.52171374999993,
          "velocity": 0.7480314960629921,
          "duration": 0.2173912500000057
        },
        {
          "name": "F3",
          "midi": 53,
          "time": 101.52171374999993,
          "velocity": 0.7480314960629921,
          "duration": 0.2173912500000057
        },
        {
          "name": "A#2",
          "midi": 46,
          "time": 101.52171374999993,
          "velocity": 0.7480314960629921,
          "duration": 0.2173912500000057
        },
        {
          "name": "F3",
          "midi": 53,
          "time": 101.73910499999994,
          "velocity": 0.7480314960629921,
          "duration": 0.2173912500000057
        },
        {
          "name": "C3",
          "midi": 48,
          "time": 101.73910499999994,
          "velocity": 0.7480314960629921,
          "duration": 0.2173912500000057
        },
        {
          "name": "F2",
          "midi": 41,
          "time": 101.73910499999994,
          "velocity": 0.7480314960629921,
          "duration": 0.2173912500000057
        },
        {
          "name": "F3",
          "midi": 53,
          "time": 101.95649624999994,
          "velocity": 0.7480314960629921,
          "duration": 0.2173912500000057
        },
        {
          "name": "C3",
          "midi": 48,
          "time": 101.95649624999994,
          "velocity": 0.7480314960629921,
          "duration": 0.2173912500000057
        },
        {
          "name": "F2",
          "midi": 41,
          "time": 101.95649624999994,
          "velocity": 0.7480314960629921,
          "duration": 0.2173912500000057
        },
        {
          "name": "F3",
          "midi": 53,
          "time": 102.17388749999995,
          "velocity": 0.7480314960629921,
          "duration": 0.2173912500000057
        },
        {
          "name": "C3",
          "midi": 48,
          "time": 102.17388749999995,
          "velocity": 0.7480314960629921,
          "duration": 0.2173912500000057
        },
        {
          "name": "F2",
          "midi": 41,
          "time": 102.17388749999995,
          "velocity": 0.7480314960629921,
          "duration": 0.2173912500000057
        },
        {
          "name": "F3",
          "midi": 53,
          "time": 102.39127874999996,
          "velocity": 0.7480314960629921,
          "duration": 0.2173912500000057
        },
        {
          "name": "C3",
          "midi": 48,
          "time": 102.39127874999996,
          "velocity": 0.7480314960629921,
          "duration": 0.2173912500000057
        },
        {
          "name": "F2",
          "midi": 41,
          "time": 102.39127874999996,
          "velocity": 0.7480314960629921,
          "duration": 0.2173912500000057
        },
        {
          "name": "C4",
          "midi": 60,
          "time": 102.60866999999996,
          "velocity": 0.7480314960629921,
          "duration": 0.2173912500000057
        },
        {
          "name": "G3",
          "midi": 55,
          "time": 102.60866999999996,
          "velocity": 0.7480314960629921,
          "duration": 0.2173912500000057
        },
        {
          "name": "C3",
          "midi": 48,
          "time": 102.60866999999996,
          "velocity": 0.7480314960629921,
          "duration": 0.2173912500000057
        },
        {
          "name": "C4",
          "midi": 60,
          "time": 102.82606124999997,
          "velocity": 0.7480314960629921,
          "duration": 0.2173912500000057
        },
        {
          "name": "G3",
          "midi": 55,
          "time": 102.82606124999997,
          "velocity": 0.7480314960629921,
          "duration": 0.2173912500000057
        },
        {
          "name": "C3",
          "midi": 48,
          "time": 102.82606124999997,
          "velocity": 0.7480314960629921,
          "duration": 0.2173912500000057
        },
        {
          "name": "C4",
          "midi": 60,
          "time": 103.04345249999997,
          "velocity": 0.7480314960629921,
          "duration": 0.2173912500000057
        },
        {
          "name": "G3",
          "midi": 55,
          "time": 103.04345249999997,
          "velocity": 0.7480314960629921,
          "duration": 0.2173912500000057
        },
        {
          "name": "C3",
          "midi": 48,
          "time": 103.04345249999997,
          "velocity": 0.7480314960629921,
          "duration": 0.2173912500000057
        },
        {
          "name": "C4",
          "midi": 60,
          "time": 103.26084374999998,
          "velocity": 0.7480314960629921,
          "duration": 0.2173912500000057
        },
        {
          "name": "G3",
          "midi": 55,
          "time": 103.26084374999998,
          "velocity": 0.7480314960629921,
          "duration": 0.2173912500000057
        },
        {
          "name": "C3",
          "midi": 48,
          "time": 103.26084374999998,
          "velocity": 0.7480314960629921,
          "duration": 0.2173912500000057
        },
        {
          "name": "F3",
          "midi": 53,
          "time": 103.47823499999998,
          "velocity": 0.7480314960629921,
          "duration": 0.2173912500000057
        },
        {
          "name": "C3",
          "midi": 48,
          "time": 103.47823499999998,
          "velocity": 0.7480314960629921,
          "duration": 0.2173912500000057
        },
        {
          "name": "F2",
          "midi": 41,
          "time": 103.47823499999998,
          "velocity": 0.7480314960629921,
          "duration": 0.2173912500000057
        },
        {
          "name": "F3",
          "midi": 53,
          "time": 103.69562624999999,
          "velocity": 0.7480314960629921,
          "duration": 0.2173912500000057
        },
        {
          "name": "C3",
          "midi": 48,
          "time": 103.69562624999999,
          "velocity": 0.7480314960629921,
          "duration": 0.2173912500000057
        },
        {
          "name": "F2",
          "midi": 41,
          "time": 103.69562624999999,
          "velocity": 0.7480314960629921,
          "duration": 0.2173912500000057
        },
        {
          "name": "F3",
          "midi": 53,
          "time": 103.9130175,
          "velocity": 0.7480314960629921,
          "duration": 0.2173912500000057
        },
        {
          "name": "C3",
          "midi": 48,
          "time": 103.9130175,
          "velocity": 0.7480314960629921,
          "duration": 0.2173912500000057
        },
        {
          "name": "F2",
          "midi": 41,
          "time": 103.9130175,
          "velocity": 0.7480314960629921,
          "duration": 0.2173912500000057
        },
        {
          "name": "F3",
          "midi": 53,
          "time": 104.13040875,
          "velocity": 0.7480314960629921,
          "duration": 0.2173912500000057
        },
        {
          "name": "C3",
          "midi": 48,
          "time": 104.13040875,
          "velocity": 0.7480314960629921,
          "duration": 0.2173912500000057
        },
        {
          "name": "F2",
          "midi": 41,
          "time": 104.13040875,
          "velocity": 0.7480314960629921,
          "duration": 0.2173912500000057
        },
        {
          "name": "D4",
          "midi": 62,
          "time": 104.3478,
          "velocity": 0.7480314960629921,
          "duration": 0.2173912500000057
        },
        {
          "name": "A3",
          "midi": 57,
          "time": 104.3478,
          "velocity": 0.7480314960629921,
          "duration": 0.2173912500000057
        },
        {
          "name": "D3",
          "midi": 50,
          "time": 104.3478,
          "velocity": 0.7480314960629921,
          "duration": 0.2173912500000057
        },
        {
          "name": "D4",
          "midi": 62,
          "time": 104.56519125000001,
          "velocity": 0.7480314960629921,
          "duration": 0.2173912500000057
        },
        {
          "name": "A3",
          "midi": 57,
          "time": 104.56519125000001,
          "velocity": 0.7480314960629921,
          "duration": 0.2173912500000057
        },
        {
          "name": "D3",
          "midi": 50,
          "time": 104.56519125000001,
          "velocity": 0.7480314960629921,
          "duration": 0.2173912500000057
        },
        {
          "name": "D4",
          "midi": 62,
          "time": 104.78258250000002,
          "velocity": 0.7480314960629921,
          "duration": 0.2173912500000057
        },
        {
          "name": "A3",
          "midi": 57,
          "time": 104.78258250000002,
          "velocity": 0.7480314960629921,
          "duration": 0.2173912500000057
        },
        {
          "name": "D3",
          "midi": 50,
          "time": 104.78258250000002,
          "velocity": 0.7480314960629921,
          "duration": 0.2173912500000057
        },
        {
          "name": "D4",
          "midi": 62,
          "time": 104.99997375000002,
          "velocity": 0.7480314960629921,
          "duration": 0.2173912500000057
        },
        {
          "name": "A3",
          "midi": 57,
          "time": 104.99997375000002,
          "velocity": 0.7480314960629921,
          "duration": 0.2173912500000057
        },
        {
          "name": "D3",
          "midi": 50,
          "time": 104.99997375000002,
          "velocity": 0.7480314960629921,
          "duration": 0.2173912500000057
        },
        {
          "name": "A3",
          "midi": 57,
          "time": 105.21736500000003,
          "velocity": 0.7480314960629921,
          "duration": 0.2173912500000057
        },
        {
          "name": "E3",
          "midi": 52,
          "time": 105.21736500000003,
          "velocity": 0.7480314960629921,
          "duration": 0.2173912500000057
        },
        {
          "name": "A2",
          "midi": 45,
          "time": 105.21736500000003,
          "velocity": 0.7480314960629921,
          "duration": 0.2173912500000057
        },
        {
          "name": "A3",
          "midi": 57,
          "time": 105.43475625000004,
          "velocity": 0.7480314960629921,
          "duration": 0.2173912500000057
        },
        {
          "name": "E3",
          "midi": 52,
          "time": 105.43475625000004,
          "velocity": 0.7480314960629921,
          "duration": 0.2173912500000057
        },
        {
          "name": "A2",
          "midi": 45,
          "time": 105.43475625000004,
          "velocity": 0.7480314960629921,
          "duration": 0.2173912500000057
        },
        {
          "name": "A3",
          "midi": 57,
          "time": 105.65214750000004,
          "velocity": 0.7480314960629921,
          "duration": 0.2173912500000057
        },
        {
          "name": "E3",
          "midi": 52,
          "time": 105.65214750000004,
          "velocity": 0.7480314960629921,
          "duration": 0.2173912500000057
        },
        {
          "name": "A2",
          "midi": 45,
          "time": 105.65214750000004,
          "velocity": 0.7480314960629921,
          "duration": 0.2173912500000057
        },
        {
          "name": "A3",
          "midi": 57,
          "time": 105.86953875000005,
          "velocity": 0.7480314960629921,
          "duration": 0.2173912500000057
        },
        {
          "name": "E3",
          "midi": 52,
          "time": 105.86953875000005,
          "velocity": 0.7480314960629921,
          "duration": 0.2173912500000057
        },
        {
          "name": "A2",
          "midi": 45,
          "time": 105.86953875000005,
          "velocity": 0.7480314960629921,
          "duration": 0.2173912500000057
        },
        {
          "name": "A#3",
          "midi": 58,
          "time": 106.08693000000005,
          "velocity": 0.7480314960629921,
          "duration": 0.2173912500000057
        },
        {
          "name": "F3",
          "midi": 53,
          "time": 106.08693000000005,
          "velocity": 0.7480314960629921,
          "duration": 0.2173912500000057
        },
        {
          "name": "A#2",
          "midi": 46,
          "time": 106.08693000000005,
          "velocity": 0.7480314960629921,
          "duration": 0.2173912500000057
        },
        {
          "name": "A#3",
          "midi": 58,
          "time": 106.30432125000006,
          "velocity": 0.7480314960629921,
          "duration": 0.2173912500000057
        },
        {
          "name": "F3",
          "midi": 53,
          "time": 106.30432125000006,
          "velocity": 0.7480314960629921,
          "duration": 0.2173912500000057
        },
        {
          "name": "A#2",
          "midi": 46,
          "time": 106.30432125000006,
          "velocity": 0.7480314960629921,
          "duration": 0.2173912500000057
        },
        {
          "name": "A#3",
          "midi": 58,
          "time": 106.52171250000006,
          "velocity": 0.7480314960629921,
          "duration": 0.2173912500000057
        },
        {
          "name": "F3",
          "midi": 53,
          "time": 106.52171250000006,
          "velocity": 0.7480314960629921,
          "duration": 0.2173912500000057
        },
        {
          "name": "A#2",
          "midi": 46,
          "time": 106.52171250000006,
          "velocity": 0.7480314960629921,
          "duration": 0.2173912500000057
        },
        {
          "name": "A#3",
          "midi": 58,
          "time": 106.73910375000007,
          "velocity": 0.7480314960629921,
          "duration": 0.2173912500000057
        },
        {
          "name": "F3",
          "midi": 53,
          "time": 106.73910375000007,
          "velocity": 0.7480314960629921,
          "duration": 0.2173912500000057
        },
        {
          "name": "A#2",
          "midi": 46,
          "time": 106.73910375000007,
          "velocity": 0.7480314960629921,
          "duration": 0.2173912500000057
        },
        {
          "name": "C4",
          "midi": 60,
          "time": 106.95649500000007,
          "velocity": 0.7480314960629921,
          "duration": 0.2173912500000057
        },
        {
          "name": "G3",
          "midi": 55,
          "time": 106.95649500000007,
          "velocity": 0.7480314960629921,
          "duration": 0.2173912500000057
        },
        {
          "name": "C3",
          "midi": 48,
          "time": 106.95649500000007,
          "velocity": 0.7480314960629921,
          "duration": 0.2173912500000057
        },
        {
          "name": "C4",
          "midi": 60,
          "time": 107.17388625000008,
          "velocity": 0.7480314960629921,
          "duration": 0.2173912500000057
        },
        {
          "name": "G3",
          "midi": 55,
          "time": 107.17388625000008,
          "velocity": 0.7480314960629921,
          "duration": 0.2173912500000057
        },
        {
          "name": "C3",
          "midi": 48,
          "time": 107.17388625000008,
          "velocity": 0.7480314960629921,
          "duration": 0.2173912500000057
        },
        {
          "name": "C4",
          "midi": 60,
          "time": 107.39127750000009,
          "velocity": 0.7480314960629921,
          "duration": 0.2173912500000057
        },
        {
          "name": "G3",
          "midi": 55,
          "time": 107.39127750000009,
          "velocity": 0.7480314960629921,
          "duration": 0.2173912500000057
        },
        {
          "name": "C3",
          "midi": 48,
          "time": 107.39127750000009,
          "velocity": 0.7480314960629921,
          "duration": 0.2173912500000057
        },
        {
          "name": "C4",
          "midi": 60,
          "time": 107.60866875000009,
          "velocity": 0.7480314960629921,
          "duration": 0.2173912500000057
        },
        {
          "name": "G3",
          "midi": 55,
          "time": 107.60866875000009,
          "velocity": 0.7480314960629921,
          "duration": 0.2173912500000057
        },
        {
          "name": "C3",
          "midi": 48,
          "time": 107.60866875000009,
          "velocity": 0.7480314960629921,
          "duration": 0.2173912500000057
        },
        {
          "name": "F3",
          "midi": 53,
          "time": 114.7825800000001,
          "velocity": 0.7480314960629921,
          "duration": 0.2173912500000057
        },
        {
          "name": "C3",
          "midi": 48,
          "time": 114.7825800000001,
          "velocity": 0.7480314960629921,
          "duration": 0.2173912500000057
        },
        {
          "name": "F2",
          "midi": 41,
          "time": 114.7825800000001,
          "velocity": 0.7480314960629921,
          "duration": 0.2173912500000057
        },
        {
          "name": "F3",
          "midi": 53,
          "time": 114.9999712500001,
          "velocity": 0.7480314960629921,
          "duration": 0.2173912500000057
        },
        {
          "name": "C3",
          "midi": 48,
          "time": 114.9999712500001,
          "velocity": 0.7480314960629921,
          "duration": 0.2173912500000057
        },
        {
          "name": "F2",
          "midi": 41,
          "time": 114.9999712500001,
          "velocity": 0.7480314960629921,
          "duration": 0.2173912500000057
        },
        {
          "name": "F3",
          "midi": 53,
          "time": 115.2173625000001,
          "velocity": 0.7480314960629921,
          "duration": 0.2173912500000057
        },
        {
          "name": "C3",
          "midi": 48,
          "time": 115.2173625000001,
          "velocity": 0.7480314960629921,
          "duration": 0.2173912500000057
        },
        {
          "name": "F2",
          "midi": 41,
          "time": 115.2173625000001,
          "velocity": 0.7480314960629921,
          "duration": 0.2173912500000057
        },
        {
          "name": "F3",
          "midi": 53,
          "time": 115.43475375000011,
          "velocity": 0.7480314960629921,
          "duration": 0.2173912500000057
        },
        {
          "name": "C3",
          "midi": 48,
          "time": 115.43475375000011,
          "velocity": 0.7480314960629921,
          "duration": 0.2173912500000057
        },
        {
          "name": "F2",
          "midi": 41,
          "time": 115.43475375000011,
          "velocity": 0.7480314960629921,
          "duration": 0.2173912500000057
        },
        {
          "name": "A3",
          "midi": 57,
          "time": 115.65214500000012,
          "velocity": 0.7480314960629921,
          "duration": 0.2173912500000057
        },
        {
          "name": "E3",
          "midi": 52,
          "time": 115.65214500000012,
          "velocity": 0.7480314960629921,
          "duration": 0.2173912500000057
        },
        {
          "name": "A2",
          "midi": 45,
          "time": 115.65214500000012,
          "velocity": 0.7480314960629921,
          "duration": 0.2173912500000057
        },
        {
          "name": "A3",
          "midi": 57,
          "time": 115.86953625000012,
          "velocity": 0.7480314960629921,
          "duration": 0.2173912500000057
        },
        {
          "name": "E3",
          "midi": 52,
          "time": 115.86953625000012,
          "velocity": 0.7480314960629921,
          "duration": 0.2173912500000057
        },
        {
          "name": "A2",
          "midi": 45,
          "time": 115.86953625000012,
          "velocity": 0.7480314960629921,
          "duration": 0.2173912500000057
        },
        {
          "name": "A3",
          "midi": 57,
          "time": 116.08692750000013,
          "velocity": 0.7480314960629921,
          "duration": 0.2173912500000057
        },
        {
          "name": "E3",
          "midi": 52,
          "time": 116.08692750000013,
          "velocity": 0.7480314960629921,
          "duration": 0.2173912500000057
        },
        {
          "name": "A2",
          "midi": 45,
          "time": 116.08692750000013,
          "velocity": 0.7480314960629921,
          "duration": 0.2173912500000057
        },
        {
          "name": "A3",
          "midi": 57,
          "time": 116.30431875000014,
          "velocity": 0.7480314960629921,
          "duration": 0.2173912500000057
        },
        {
          "name": "E3",
          "midi": 52,
          "time": 116.30431875000014,
          "velocity": 0.7480314960629921,
          "duration": 0.2173912500000057
        },
        {
          "name": "A2",
          "midi": 45,
          "time": 116.30431875000014,
          "velocity": 0.7480314960629921,
          "duration": 0.2173912500000057
        },
        {
          "name": "F3",
          "midi": 53,
          "time": 116.52171000000014,
          "velocity": 0.7480314960629921,
          "duration": 0.2173912500000057
        },
        {
          "name": "C3",
          "midi": 48,
          "time": 116.52171000000014,
          "velocity": 0.7480314960629921,
          "duration": 0.2173912500000057
        },
        {
          "name": "F2",
          "midi": 41,
          "time": 116.52171000000014,
          "velocity": 0.7480314960629921,
          "duration": 0.2173912500000057
        },
        {
          "name": "F3",
          "midi": 53,
          "time": 116.73910125000015,
          "velocity": 0.7480314960629921,
          "duration": 0.2173912500000057
        },
        {
          "name": "C3",
          "midi": 48,
          "time": 116.73910125000015,
          "velocity": 0.7480314960629921,
          "duration": 0.2173912500000057
        },
        {
          "name": "F2",
          "midi": 41,
          "time": 116.73910125000015,
          "velocity": 0.7480314960629921,
          "duration": 0.2173912500000057
        },
        {
          "name": "F3",
          "midi": 53,
          "time": 116.95649250000015,
          "velocity": 0.7480314960629921,
          "duration": 0.2173912500000057
        },
        {
          "name": "C3",
          "midi": 48,
          "time": 116.95649250000015,
          "velocity": 0.7480314960629921,
          "duration": 0.2173912500000057
        },
        {
          "name": "F2",
          "midi": 41,
          "time": 116.95649250000015,
          "velocity": 0.7480314960629921,
          "duration": 0.2173912500000057
        },
        {
          "name": "F3",
          "midi": 53,
          "time": 117.17388375000016,
          "velocity": 0.7480314960629921,
          "duration": 0.2173912500000057
        },
        {
          "name": "C3",
          "midi": 48,
          "time": 117.17388375000016,
          "velocity": 0.7480314960629921,
          "duration": 0.2173912500000057
        },
        {
          "name": "F2",
          "midi": 41,
          "time": 117.17388375000016,
          "velocity": 0.7480314960629921,
          "duration": 0.2173912500000057
        },
        {
          "name": "D4",
          "midi": 62,
          "time": 117.39127500000016,
          "velocity": 0.7480314960629921,
          "duration": 0.2173912500000057
        },
        {
          "name": "A3",
          "midi": 57,
          "time": 117.39127500000016,
          "velocity": 0.7480314960629921,
          "duration": 0.2173912500000057
        },
        {
          "name": "D3",
          "midi": 50,
          "time": 117.39127500000016,
          "velocity": 0.7480314960629921,
          "duration": 0.2173912500000057
        },
        {
          "name": "D4",
          "midi": 62,
          "time": 117.60866625000017,
          "velocity": 0.7480314960629921,
          "duration": 0.2173912500000057
        },
        {
          "name": "A3",
          "midi": 57,
          "time": 117.60866625000017,
          "velocity": 0.7480314960629921,
          "duration": 0.2173912500000057
        },
        {
          "name": "D3",
          "midi": 50,
          "time": 117.60866625000017,
          "velocity": 0.7480314960629921,
          "duration": 0.2173912500000057
        },
        {
          "name": "D4",
          "midi": 62,
          "time": 117.82605750000018,
          "velocity": 0.7480314960629921,
          "duration": 0.2173912500000057
        },
        {
          "name": "A3",
          "midi": 57,
          "time": 117.82605750000018,
          "velocity": 0.7480314960629921,
          "duration": 0.2173912500000057
        },
        {
          "name": "D3",
          "midi": 50,
          "time": 117.82605750000018,
          "velocity": 0.7480314960629921,
          "duration": 0.2173912500000057
        },
        {
          "name": "D4",
          "midi": 62,
          "time": 118.04344875000018,
          "velocity": 0.7480314960629921,
          "duration": 0.2173912500000057
        },
        {
          "name": "A3",
          "midi": 57,
          "time": 118.04344875000018,
          "velocity": 0.7480314960629921,
          "duration": 0.2173912500000057
        },
        {
          "name": "D3",
          "midi": 50,
          "time": 118.04344875000018,
          "velocity": 0.7480314960629921,
          "duration": 0.2173912500000057
        },
        {
          "name": "A#3",
          "midi": 58,
          "time": 118.26084000000019,
          "velocity": 0.7480314960629921,
          "duration": 0.2173912500000057
        },
        {
          "name": "F3",
          "midi": 53,
          "time": 118.26084000000019,
          "velocity": 0.7480314960629921,
          "duration": 0.2173912500000057
        },
        {
          "name": "A#2",
          "midi": 46,
          "time": 118.26084000000019,
          "velocity": 0.7480314960629921,
          "duration": 0.2173912500000057
        },
        {
          "name": "A#3",
          "midi": 58,
          "time": 118.47823125000019,
          "velocity": 0.7480314960629921,
          "duration": 0.2173912500000057
        },
        {
          "name": "F3",
          "midi": 53,
          "time": 118.47823125000019,
          "velocity": 0.7480314960629921,
          "duration": 0.2173912500000057
        },
        {
          "name": "A#2",
          "midi": 46,
          "time": 118.47823125000019,
          "velocity": 0.7480314960629921,
          "duration": 0.2173912500000057
        },
        {
          "name": "A#3",
          "midi": 58,
          "time": 118.6956225000002,
          "velocity": 0.7480314960629921,
          "duration": 0.2173912500000057
        },
        {
          "name": "F3",
          "midi": 53,
          "time": 118.6956225000002,
          "velocity": 0.7480314960629921,
          "duration": 0.2173912500000057
        },
        {
          "name": "A#2",
          "midi": 46,
          "time": 118.6956225000002,
          "velocity": 0.7480314960629921,
          "duration": 0.2173912500000057
        },
        {
          "name": "A#3",
          "midi": 58,
          "time": 118.9130137500002,
          "velocity": 0.7480314960629921,
          "duration": 0.2173912500000057
        },
        {
          "name": "F3",
          "midi": 53,
          "time": 118.9130137500002,
          "velocity": 0.7480314960629921,
          "duration": 0.2173912500000057
        },
        {
          "name": "A#2",
          "midi": 46,
          "time": 118.9130137500002,
          "velocity": 0.7480314960629921,
          "duration": 0.2173912500000057
        },
        {
          "name": "C4",
          "midi": 60,
          "time": 119.13040500000021,
          "velocity": 0.7480314960629921,
          "duration": 0.2173912500000057
        },
        {
          "name": "F3",
          "midi": 53,
          "time": 119.13040500000021,
          "velocity": 0.7480314960629921,
          "duration": 0.2173912500000057
        },
        {
          "name": "C3",
          "midi": 48,
          "time": 119.13040500000021,
          "velocity": 0.7480314960629921,
          "duration": 0.2173912500000057
        },
        {
          "name": "C4",
          "midi": 60,
          "time": 119.34779625000021,
          "velocity": 0.7480314960629921,
          "duration": 0.2173912500000057
        },
        {
          "name": "F3",
          "midi": 53,
          "time": 119.34779625000021,
          "velocity": 0.7480314960629921,
          "duration": 0.2173912500000057
        },
        {
          "name": "C3",
          "midi": 48,
          "time": 119.34779625000021,
          "velocity": 0.7480314960629921,
          "duration": 0.2173912500000057
        },
        {
          "name": "C4",
          "midi": 60,
          "time": 119.56518750000022,
          "velocity": 0.7480314960629921,
          "duration": 0.2173912500000057
        },
        {
          "name": "F3",
          "midi": 53,
          "time": 119.56518750000022,
          "velocity": 0.7480314960629921,
          "duration": 0.2173912500000057
        },
        {
          "name": "C3",
          "midi": 48,
          "time": 119.56518750000022,
          "velocity": 0.7480314960629921,
          "duration": 0.2173912500000057
        },
        {
          "name": "C4",
          "midi": 60,
          "time": 119.78257875000023,
          "velocity": 0.7480314960629921,
          "duration": 0.2173912500000057
        },
        {
          "name": "F3",
          "midi": 53,
          "time": 119.78257875000023,
          "velocity": 0.7480314960629921,
          "duration": 0.2173912500000057
        },
        {
          "name": "C3",
          "midi": 48,
          "time": 119.78257875000023,
          "velocity": 0.7480314960629921,
          "duration": 0.2173912500000057
        },
        {
          "name": "G3",
          "midi": 55,
          "time": 119.99997000000023,
          "velocity": 0.7480314960629921,
          "duration": 0.2173912500000057
        },
        {
          "name": "D3",
          "midi": 50,
          "time": 119.99997000000023,
          "velocity": 0.7480314960629921,
          "duration": 0.2173912500000057
        },
        {
          "name": "G2",
          "midi": 43,
          "time": 119.99997000000023,
          "velocity": 0.7480314960629921,
          "duration": 0.2173912500000057
        },
        {
          "name": "G3",
          "midi": 55,
          "time": 120.21736125000024,
          "velocity": 0.7480314960629921,
          "duration": 0.2173912500000057
        },
        {
          "name": "D3",
          "midi": 50,
          "time": 120.21736125000024,
          "velocity": 0.7480314960629921,
          "duration": 0.2173912500000057
        },
        {
          "name": "G2",
          "midi": 43,
          "time": 120.21736125000024,
          "velocity": 0.7480314960629921,
          "duration": 0.2173912500000057
        },
        {
          "name": "G3",
          "midi": 55,
          "time": 120.43475250000024,
          "velocity": 0.7480314960629921,
          "duration": 0.2173912500000057
        },
        {
          "name": "D3",
          "midi": 50,
          "time": 120.43475250000024,
          "velocity": 0.7480314960629921,
          "duration": 0.2173912500000057
        },
        {
          "name": "G2",
          "midi": 43,
          "time": 120.43475250000024,
          "velocity": 0.7480314960629921,
          "duration": 0.2173912500000057
        },
        {
          "name": "G3",
          "midi": 55,
          "time": 120.65214375000025,
          "velocity": 0.7480314960629921,
          "duration": 0.2173912500000057
        },
        {
          "name": "D3",
          "midi": 50,
          "time": 120.65214375000025,
          "velocity": 0.7480314960629921,
          "duration": 0.2173912500000057
        },
        {
          "name": "G2",
          "midi": 43,
          "time": 120.65214375000025,
          "velocity": 0.7480314960629921,
          "duration": 0.2173912500000057
        },
        {
          "name": "G3",
          "midi": 55,
          "time": 121.08692625000026,
          "velocity": 0.7480314960629921,
          "duration": 0.2173912500000057
        },
        {
          "name": "D3",
          "midi": 50,
          "time": 121.08692625000026,
          "velocity": 0.7480314960629921,
          "duration": 0.2173912500000057
        },
        {
          "name": "G2",
          "midi": 43,
          "time": 121.08692625000026,
          "velocity": 0.7480314960629921,
          "duration": 0.2173912500000057
        },
        {
          "name": "G3",
          "midi": 55,
          "time": 121.30431750000027,
          "velocity": 0.7480314960629921,
          "duration": 0.2173912500000057
        },
        {
          "name": "D3",
          "midi": 50,
          "time": 121.30431750000027,
          "velocity": 0.7480314960629921,
          "duration": 0.2173912500000057
        },
        {
          "name": "G2",
          "midi": 43,
          "time": 121.30431750000027,
          "velocity": 0.7480314960629921,
          "duration": 0.2173912500000057
        },
        {
          "name": "G3",
          "midi": 55,
          "time": 121.52170875000027,
          "velocity": 0.7480314960629921,
          "duration": 0.2173912500000057
        },
        {
          "name": "D3",
          "midi": 50,
          "time": 121.52170875000027,
          "velocity": 0.7480314960629921,
          "duration": 0.2173912500000057
        },
        {
          "name": "G2",
          "midi": 43,
          "time": 121.52170875000027,
          "velocity": 0.7480314960629921,
          "duration": 0.2173912500000057
        },
        {
          "name": "F3",
          "midi": 53,
          "time": 121.73910000000028,
          "velocity": 0.7480314960629921,
          "duration": 0.2173912500000057
        },
        {
          "name": "C3",
          "midi": 48,
          "time": 121.73910000000028,
          "velocity": 0.7480314960629921,
          "duration": 0.2173912500000057
        },
        {
          "name": "F2",
          "midi": 41,
          "time": 121.73910000000028,
          "velocity": 0.7480314960629921,
          "duration": 0.2173912500000057
        },
        {
          "name": "F3",
          "midi": 53,
          "time": 121.95649125000028,
          "velocity": 0.7480314960629921,
          "duration": 0.2173912500000057
        },
        {
          "name": "C3",
          "midi": 48,
          "time": 121.95649125000028,
          "velocity": 0.7480314960629921,
          "duration": 0.2173912500000057
        },
        {
          "name": "F2",
          "midi": 41,
          "time": 121.95649125000028,
          "velocity": 0.7480314960629921,
          "duration": 0.2173912500000057
        },
        {
          "name": "F3",
          "midi": 53,
          "time": 122.17388250000029,
          "velocity": 0.7480314960629921,
          "duration": 0.2173912500000057
        },
        {
          "name": "C3",
          "midi": 48,
          "time": 122.17388250000029,
          "velocity": 0.7480314960629921,
          "duration": 0.2173912500000057
        },
        {
          "name": "F2",
          "midi": 41,
          "time": 122.17388250000029,
          "velocity": 0.7480314960629921,
          "duration": 0.2173912500000057
        },
        {
          "name": "F3",
          "midi": 53,
          "time": 122.3912737500003,
          "velocity": 0.7480314960629921,
          "duration": 0.2173912500000057
        },
        {
          "name": "C3",
          "midi": 48,
          "time": 122.3912737500003,
          "velocity": 0.7480314960629921,
          "duration": 0.2173912500000057
        },
        {
          "name": "F2",
          "midi": 41,
          "time": 122.3912737500003,
          "velocity": 0.7480314960629921,
          "duration": 0.2173912500000057
        },
        {
          "name": "A#3",
          "midi": 58,
          "time": 122.6086650000003,
          "velocity": 0.7480314960629921,
          "duration": 0.2173912500000057
        },
        {
          "name": "F3",
          "midi": 53,
          "time": 122.6086650000003,
          "velocity": 0.7480314960629921,
          "duration": 0.2173912500000057
        },
        {
          "name": "A#2",
          "midi": 46,
          "time": 122.6086650000003,
          "velocity": 0.7480314960629921,
          "duration": 0.2173912500000057
        },
        {
          "name": "A#3",
          "midi": 58,
          "time": 122.8260562500003,
          "velocity": 0.7480314960629921,
          "duration": 0.2173912500000057
        },
        {
          "name": "F3",
          "midi": 53,
          "time": 122.8260562500003,
          "velocity": 0.7480314960629921,
          "duration": 0.2173912500000057
        },
        {
          "name": "A#2",
          "midi": 46,
          "time": 122.8260562500003,
          "velocity": 0.7480314960629921,
          "duration": 0.2173912500000057
        },
        {
          "name": "A#3",
          "midi": 58,
          "time": 123.04344750000031,
          "velocity": 0.7480314960629921,
          "duration": 0.2173912500000057
        },
        {
          "name": "F3",
          "midi": 53,
          "time": 123.04344750000031,
          "velocity": 0.7480314960629921,
          "duration": 0.2173912500000057
        },
        {
          "name": "A#2",
          "midi": 46,
          "time": 123.04344750000031,
          "velocity": 0.7480314960629921,
          "duration": 0.2173912500000057
        },
        {
          "name": "A#3",
          "midi": 58,
          "time": 123.26083875000032,
          "velocity": 0.7480314960629921,
          "duration": 0.2173912500000057
        },
        {
          "name": "F3",
          "midi": 53,
          "time": 123.26083875000032,
          "velocity": 0.7480314960629921,
          "duration": 0.2173912500000057
        },
        {
          "name": "A#2",
          "midi": 46,
          "time": 123.26083875000032,
          "velocity": 0.7480314960629921,
          "duration": 0.2173912500000057
        },
        {
          "name": "G3",
          "midi": 55,
          "time": 123.47823000000032,
          "velocity": 0.7480314960629921,
          "duration": 0.2173912500000057
        },
        {
          "name": "D3",
          "midi": 50,
          "time": 123.47823000000032,
          "velocity": 0.7480314960629921,
          "duration": 0.2173912500000057
        },
        {
          "name": "G2",
          "midi": 43,
          "time": 123.47823000000032,
          "velocity": 0.7480314960629921,
          "duration": 0.2173912500000057
        },
        {
          "name": "G3",
          "midi": 55,
          "time": 123.69562125000033,
          "velocity": 0.7480314960629921,
          "duration": 0.2173912500000057
        },
        {
          "name": "D3",
          "midi": 50,
          "time": 123.69562125000033,
          "velocity": 0.7480314960629921,
          "duration": 0.2173912500000057
        },
        {
          "name": "G2",
          "midi": 43,
          "time": 123.69562125000033,
          "velocity": 0.7480314960629921,
          "duration": 0.2173912500000057
        },
        {
          "name": "G3",
          "midi": 55,
          "time": 123.91301250000033,
          "velocity": 0.7480314960629921,
          "duration": 0.2173912500000057
        },
        {
          "name": "D3",
          "midi": 50,
          "time": 123.91301250000033,
          "velocity": 0.7480314960629921,
          "duration": 0.2173912500000057
        },
        {
          "name": "G2",
          "midi": 43,
          "time": 123.91301250000033,
          "velocity": 0.7480314960629921,
          "duration": 0.2173912500000057
        },
        {
          "name": "G3",
          "midi": 55,
          "time": 124.13040375000034,
          "velocity": 0.7480314960629921,
          "duration": 0.2173912500000057
        },
        {
          "name": "D3",
          "midi": 50,
          "time": 124.13040375000034,
          "velocity": 0.7480314960629921,
          "duration": 0.2173912500000057
        },
        {
          "name": "G2",
          "midi": 43,
          "time": 124.13040375000034,
          "velocity": 0.7480314960629921,
          "duration": 0.2173912500000057
        },
        {
          "name": "A#3",
          "midi": 58,
          "time": 124.34779500000035,
          "velocity": 0.7480314960629921,
          "duration": 0.2173912500000057
        },
        {
          "name": "F3",
          "midi": 53,
          "time": 124.34779500000035,
          "velocity": 0.7480314960629921,
          "duration": 0.2173912500000057
        },
        {
          "name": "A#2",
          "midi": 46,
          "time": 124.34779500000035,
          "velocity": 0.7480314960629921,
          "duration": 0.2173912500000057
        },
        {
          "name": "A#3",
          "midi": 58,
          "time": 124.56518625000035,
          "velocity": 0.7480314960629921,
          "duration": 0.2173912500000057
        },
        {
          "name": "F3",
          "midi": 53,
          "time": 124.56518625000035,
          "velocity": 0.7480314960629921,
          "duration": 0.2173912500000057
        },
        {
          "name": "A#2",
          "midi": 46,
          "time": 124.56518625000035,
          "velocity": 0.7480314960629921,
          "duration": 0.2173912500000057
        },
        {
          "name": "A#3",
          "midi": 58,
          "time": 124.78257750000036,
          "velocity": 0.7480314960629921,
          "duration": 0.2173912500000057
        },
        {
          "name": "F3",
          "midi": 53,
          "time": 124.78257750000036,
          "velocity": 0.7480314960629921,
          "duration": 0.2173912500000057
        },
        {
          "name": "A#2",
          "midi": 46,
          "time": 124.78257750000036,
          "velocity": 0.7480314960629921,
          "duration": 0.2173912500000057
        },
        {
          "name": "A#3",
          "midi": 58,
          "time": 124.99996875000036,
          "velocity": 0.7480314960629921,
          "duration": 0.2173912500000057
        },
        {
          "name": "F3",
          "midi": 53,
          "time": 124.99996875000036,
          "velocity": 0.7480314960629921,
          "duration": 0.2173912500000057
        },
        {
          "name": "A#2",
          "midi": 46,
          "time": 124.99996875000036,
          "velocity": 0.7480314960629921,
          "duration": 0.2173912500000057
        },
        {
          "name": "F3",
          "midi": 53,
          "time": 125.21736000000037,
          "velocity": 0.7480314960629921,
          "duration": 0.2173912500000057
        },
        {
          "name": "C3",
          "midi": 48,
          "time": 125.21736000000037,
          "velocity": 0.7480314960629921,
          "duration": 0.2173912500000057
        },
        {
          "name": "F2",
          "midi": 41,
          "time": 125.21736000000037,
          "velocity": 0.7480314960629921,
          "duration": 0.2173912500000057
        },
        {
          "name": "F3",
          "midi": 53,
          "time": 125.43475125000037,
          "velocity": 0.7480314960629921,
          "duration": 0.2173912500000057
        },
        {
          "name": "C3",
          "midi": 48,
          "time": 125.43475125000037,
          "velocity": 0.7480314960629921,
          "duration": 0.2173912500000057
        },
        {
          "name": "F2",
          "midi": 41,
          "time": 125.43475125000037,
          "velocity": 0.7480314960629921,
          "duration": 0.2173912500000057
        },
        {
          "name": "F3",
          "midi": 53,
          "time": 125.65214250000038,
          "velocity": 0.7480314960629921,
          "duration": 0.2173912500000057
        },
        {
          "name": "C3",
          "midi": 48,
          "time": 125.65214250000038,
          "velocity": 0.7480314960629921,
          "duration": 0.2173912500000057
        },
        {
          "name": "F2",
          "midi": 41,
          "time": 125.65214250000038,
          "velocity": 0.7480314960629921,
          "duration": 0.2173912500000057
        },
        {
          "name": "F3",
          "midi": 53,
          "time": 125.86953375000039,
          "velocity": 0.7480314960629921,
          "duration": 0.2173912500000057
        },
        {
          "name": "C3",
          "midi": 48,
          "time": 125.86953375000039,
          "velocity": 0.7480314960629921,
          "duration": 0.2173912500000057
        },
        {
          "name": "F2",
          "midi": 41,
          "time": 125.86953375000039,
          "velocity": 0.7480314960629921,
          "duration": 0.2173912500000057
        },
        {
          "name": "A#3",
          "midi": 58,
          "time": 126.08692500000039,
          "velocity": 0.7480314960629921,
          "duration": 0.2173912500000057
        },
        {
          "name": "F3",
          "midi": 53,
          "time": 126.08692500000039,
          "velocity": 0.7480314960629921,
          "duration": 0.2173912500000057
        },
        {
          "name": "A#2",
          "midi": 46,
          "time": 126.08692500000039,
          "velocity": 0.7480314960629921,
          "duration": 0.2173912500000057
        },
        {
          "name": "A#3",
          "midi": 58,
          "time": 126.3043162500004,
          "velocity": 0.7480314960629921,
          "duration": 0.2173912500000057
        },
        {
          "name": "F3",
          "midi": 53,
          "time": 126.3043162500004,
          "velocity": 0.7480314960629921,
          "duration": 0.2173912500000057
        },
        {
          "name": "A#2",
          "midi": 46,
          "time": 126.3043162500004,
          "velocity": 0.7480314960629921,
          "duration": 0.2173912500000057
        },
        {
          "name": "A#3",
          "midi": 58,
          "time": 126.5217075000004,
          "velocity": 0.7480314960629921,
          "duration": 0.2173912500000057
        },
        {
          "name": "F3",
          "midi": 53,
          "time": 126.5217075000004,
          "velocity": 0.7480314960629921,
          "duration": 0.2173912500000057
        },
        {
          "name": "A#2",
          "midi": 46,
          "time": 126.5217075000004,
          "velocity": 0.7480314960629921,
          "duration": 0.2173912500000057
        },
        {
          "name": "A#3",
          "midi": 58,
          "time": 126.73909875000041,
          "velocity": 0.7480314960629921,
          "duration": 0.2173912500000057
        },
        {
          "name": "F3",
          "midi": 53,
          "time": 126.73909875000041,
          "velocity": 0.7480314960629921,
          "duration": 0.2173912500000057
        },
        {
          "name": "A#2",
          "midi": 46,
          "time": 126.73909875000041,
          "velocity": 0.7480314960629921,
          "duration": 0.2173912500000057
        },
        {
          "name": "G3",
          "midi": 55,
          "time": 126.95649000000041,
          "velocity": 0.7480314960629921,
          "duration": 0.2173912500000057
        },
        {
          "name": "D3",
          "midi": 50,
          "time": 126.95649000000041,
          "velocity": 0.7480314960629921,
          "duration": 0.2173912500000057
        },
        {
          "name": "G2",
          "midi": 43,
          "time": 126.95649000000041,
          "velocity": 0.7480314960629921,
          "duration": 0.2173912500000057
        },
        {
          "name": "G3",
          "midi": 55,
          "time": 127.17388125000042,
          "velocity": 0.7480314960629921,
          "duration": 0.2173912500000057
        },
        {
          "name": "D3",
          "midi": 50,
          "time": 127.17388125000042,
          "velocity": 0.7480314960629921,
          "duration": 0.2173912500000057
        },
        {
          "name": "G2",
          "midi": 43,
          "time": 127.17388125000042,
          "velocity": 0.7480314960629921,
          "duration": 0.2173912500000057
        },
        {
          "name": "G3",
          "midi": 55,
          "time": 127.39127250000043,
          "velocity": 0.7480314960629921,
          "duration": 0.2173912500000057
        },
        {
          "name": "D3",
          "midi": 50,
          "time": 127.39127250000043,
          "velocity": 0.7480314960629921,
          "duration": 0.2173912500000057
        },
        {
          "name": "G2",
          "midi": 43,
          "time": 127.39127250000043,
          "velocity": 0.7480314960629921,
          "duration": 0.2173912500000057
        },
        {
          "name": "G3",
          "midi": 55,
          "time": 127.60866375000043,
          "velocity": 0.7480314960629921,
          "duration": 0.2173912500000057
        },
        {
          "name": "D3",
          "midi": 50,
          "time": 127.60866375000043,
          "velocity": 0.7480314960629921,
          "duration": 0.2173912500000057
        },
        {
          "name": "G2",
          "midi": 43,
          "time": 127.60866375000043,
          "velocity": 0.7480314960629921,
          "duration": 0.2173912500000057
        },
        {
          "name": "A#3",
          "midi": 58,
          "time": 127.82605500000044,
          "velocity": 0.7480314960629921,
          "duration": 0.2173912500000057
        },
        {
          "name": "F3",
          "midi": 53,
          "time": 127.82605500000044,
          "velocity": 0.7480314960629921,
          "duration": 0.2173912500000057
        },
        {
          "name": "A#2",
          "midi": 46,
          "time": 127.82605500000044,
          "velocity": 0.7480314960629921,
          "duration": 0.2173912500000057
        },
        {
          "name": "A#3",
          "midi": 58,
          "time": 128.04344625000044,
          "velocity": 0.7480314960629921,
          "duration": 0.2173912499999915
        },
        {
          "name": "F3",
          "midi": 53,
          "time": 128.04344625000044,
          "velocity": 0.7480314960629921,
          "duration": 0.2173912499999915
        },
        {
          "name": "A#2",
          "midi": 46,
          "time": 128.04344625000044,
          "velocity": 0.7480314960629921,
          "duration": 0.2173912499999915
        },
        {
          "name": "A#3",
          "midi": 58,
          "time": 128.26083750000043,
          "velocity": 0.7480314960629921,
          "duration": 0.2173912499999915
        },
        {
          "name": "F3",
          "midi": 53,
          "time": 128.26083750000043,
          "velocity": 0.7480314960629921,
          "duration": 0.2173912499999915
        },
        {
          "name": "A#2",
          "midi": 46,
          "time": 128.26083750000043,
          "velocity": 0.7480314960629921,
          "duration": 0.2173912499999915
        },
        {
          "name": "A#3",
          "midi": 58,
          "time": 128.47822875000043,
          "velocity": 0.7480314960629921,
          "duration": 0.2173912499999915
        },
        {
          "name": "F3",
          "midi": 53,
          "time": 128.47822875000043,
          "velocity": 0.7480314960629921,
          "duration": 0.2173912499999915
        },
        {
          "name": "A#2",
          "midi": 46,
          "time": 128.47822875000043,
          "velocity": 0.7480314960629921,
          "duration": 0.2173912499999915
        },
        {
          "name": "F3",
          "midi": 53,
          "time": 128.69562000000042,
          "velocity": 0.7480314960629921,
          "duration": 0.2173912499999915
        },
        {
          "name": "C3",
          "midi": 48,
          "time": 128.69562000000042,
          "velocity": 0.7480314960629921,
          "duration": 0.2173912499999915
        },
        {
          "name": "F2",
          "midi": 41,
          "time": 128.69562000000042,
          "velocity": 0.7480314960629921,
          "duration": 0.2173912499999915
        },
        {
          "name": "F3",
          "midi": 53,
          "time": 128.9130112500004,
          "velocity": 0.7480314960629921,
          "duration": 0.2173912499999915
        },
        {
          "name": "C3",
          "midi": 48,
          "time": 128.9130112500004,
          "velocity": 0.7480314960629921,
          "duration": 0.2173912499999915
        },
        {
          "name": "F2",
          "midi": 41,
          "time": 128.9130112500004,
          "velocity": 0.7480314960629921,
          "duration": 0.2173912499999915
        },
        {
          "name": "F3",
          "midi": 53,
          "time": 129.1304025000004,
          "velocity": 0.7480314960629921,
          "duration": 0.2173912499999915
        },
        {
          "name": "C3",
          "midi": 48,
          "time": 129.1304025000004,
          "velocity": 0.7480314960629921,
          "duration": 0.2173912499999915
        },
        {
          "name": "F2",
          "midi": 41,
          "time": 129.1304025000004,
          "velocity": 0.7480314960629921,
          "duration": 0.2173912499999915
        },
        {
          "name": "F3",
          "midi": 53,
          "time": 129.3477937500004,
          "velocity": 0.7480314960629921,
          "duration": 0.2173912499999915
        },
        {
          "name": "C3",
          "midi": 48,
          "time": 129.3477937500004,
          "velocity": 0.7480314960629921,
          "duration": 0.2173912499999915
        },
        {
          "name": "F2",
          "midi": 41,
          "time": 129.3477937500004,
          "velocity": 0.7480314960629921,
          "duration": 0.2173912499999915
        },
        {
          "name": "A#3",
          "midi": 58,
          "time": 129.56518500000038,
          "velocity": 0.7480314960629921,
          "duration": 0.2173912499999915
        },
        {
          "name": "F3",
          "midi": 53,
          "time": 129.56518500000038,
          "velocity": 0.7480314960629921,
          "duration": 0.2173912499999915
        },
        {
          "name": "A#2",
          "midi": 46,
          "time": 129.56518500000038,
          "velocity": 0.7480314960629921,
          "duration": 0.2173912499999915
        },
        {
          "name": "A#3",
          "midi": 58,
          "time": 129.78257625000037,
          "velocity": 0.7480314960629921,
          "duration": 0.2173912499999915
        },
        {
          "name": "F3",
          "midi": 53,
          "time": 129.78257625000037,
          "velocity": 0.7480314960629921,
          "duration": 0.2173912499999915
        },
        {
          "name": "A#2",
          "midi": 46,
          "time": 129.78257625000037,
          "velocity": 0.7480314960629921,
          "duration": 0.2173912499999915
        },
        {
          "name": "A#3",
          "midi": 58,
          "time": 129.99996750000037,
          "velocity": 0.7480314960629921,
          "duration": 0.2173912499999915
        },
        {
          "name": "F3",
          "midi": 53,
          "time": 129.99996750000037,
          "velocity": 0.7480314960629921,
          "duration": 0.2173912499999915
        },
        {
          "name": "A#2",
          "midi": 46,
          "time": 129.99996750000037,
          "velocity": 0.7480314960629921,
          "duration": 0.2173912499999915
        },
        {
          "name": "A#3",
          "midi": 58,
          "time": 130.21735875000036,
          "velocity": 0.7480314960629921,
          "duration": 0.2173912499999915
        },
        {
          "name": "F3",
          "midi": 53,
          "time": 130.21735875000036,
          "velocity": 0.7480314960629921,
          "duration": 0.2173912499999915
        },
        {
          "name": "A#2",
          "midi": 46,
          "time": 130.21735875000036,
          "velocity": 0.7480314960629921,
          "duration": 0.2173912499999915
        },
        {
          "name": "G3",
          "midi": 55,
          "time": 130.43475000000035,
          "velocity": 0.7480314960629921,
          "duration": 0.2173912499999915
        },
        {
          "name": "D3",
          "midi": 50,
          "time": 130.43475000000035,
          "velocity": 0.7480314960629921,
          "duration": 0.2173912499999915
        },
        {
          "name": "G2",
          "midi": 43,
          "time": 130.43475000000035,
          "velocity": 0.7480314960629921,
          "duration": 0.2173912499999915
        },
        {
          "name": "G3",
          "midi": 55,
          "time": 130.65214125000034,
          "velocity": 0.7480314960629921,
          "duration": 0.2173912499999915
        },
        {
          "name": "D3",
          "midi": 50,
          "time": 130.65214125000034,
          "velocity": 0.7480314960629921,
          "duration": 0.2173912499999915
        },
        {
          "name": "G2",
          "midi": 43,
          "time": 130.65214125000034,
          "velocity": 0.7480314960629921,
          "duration": 0.2173912499999915
        },
        {
          "name": "G3",
          "midi": 55,
          "time": 130.86953250000033,
          "velocity": 0.7480314960629921,
          "duration": 0.2173912499999915
        },
        {
          "name": "D3",
          "midi": 50,
          "time": 130.86953250000033,
          "velocity": 0.7480314960629921,
          "duration": 0.2173912499999915
        },
        {
          "name": "G2",
          "midi": 43,
          "time": 130.86953250000033,
          "velocity": 0.7480314960629921,
          "duration": 0.2173912499999915
        },
        {
          "name": "G3",
          "midi": 55,
          "time": 131.08692375000032,
          "velocity": 0.7480314960629921,
          "duration": 0.2173912499999915
        },
        {
          "name": "D3",
          "midi": 50,
          "time": 131.08692375000032,
          "velocity": 0.7480314960629921,
          "duration": 0.2173912499999915
        },
        {
          "name": "G2",
          "midi": 43,
          "time": 131.08692375000032,
          "velocity": 0.7480314960629921,
          "duration": 0.2173912499999915
        },
        {
          "name": "A#3",
          "midi": 58,
          "time": 131.30431500000032,
          "velocity": 0.7480314960629921,
          "duration": 0.2173912499999915
        },
        {
          "name": "F3",
          "midi": 53,
          "time": 131.30431500000032,
          "velocity": 0.7480314960629921,
          "duration": 0.2173912499999915
        },
        {
          "name": "A#2",
          "midi": 46,
          "time": 131.30431500000032,
          "velocity": 0.7480314960629921,
          "duration": 0.2173912499999915
        },
        {
          "name": "A#3",
          "midi": 58,
          "time": 131.5217062500003,
          "velocity": 0.7480314960629921,
          "duration": 0.2173912499999915
        },
        {
          "name": "F3",
          "midi": 53,
          "time": 131.5217062500003,
          "velocity": 0.7480314960629921,
          "duration": 0.2173912499999915
        },
        {
          "name": "A#2",
          "midi": 46,
          "time": 131.5217062500003,
          "velocity": 0.7480314960629921,
          "duration": 0.2173912499999915
        },
        {
          "name": "A#3",
          "midi": 58,
          "time": 131.7390975000003,
          "velocity": 0.7480314960629921,
          "duration": 0.2173912499999915
        },
        {
          "name": "F3",
          "midi": 53,
          "time": 131.7390975000003,
          "velocity": 0.7480314960629921,
          "duration": 0.2173912499999915
        },
        {
          "name": "A#2",
          "midi": 46,
          "time": 131.7390975000003,
          "velocity": 0.7480314960629921,
          "duration": 0.2173912499999915
        },
        {
          "name": "A#3",
          "midi": 58,
          "time": 131.9564887500003,
          "velocity": 0.7480314960629921,
          "duration": 0.2173912499999915
        },
        {
          "name": "F3",
          "midi": 53,
          "time": 131.9564887500003,
          "velocity": 0.7480314960629921,
          "duration": 0.2173912499999915
        },
        {
          "name": "A#2",
          "midi": 46,
          "time": 131.9564887500003,
          "velocity": 0.7480314960629921,
          "duration": 0.2173912499999915
        },
        {
          "name": "F3",
          "midi": 53,
          "time": 132.17388000000028,
          "velocity": 0.7480314960629921,
          "duration": 0.2173912499999915
        },
        {
          "name": "C3",
          "midi": 48,
          "time": 132.17388000000028,
          "velocity": 0.7480314960629921,
          "duration": 0.2173912499999915
        },
        {
          "name": "F2",
          "midi": 41,
          "time": 132.17388000000028,
          "velocity": 0.7480314960629921,
          "duration": 0.2173912499999915
        },
        {
          "name": "F3",
          "midi": 53,
          "time": 132.39127125000027,
          "velocity": 0.7480314960629921,
          "duration": 0.2173912499999915
        },
        {
          "name": "C3",
          "midi": 48,
          "time": 132.39127125000027,
          "velocity": 0.7480314960629921,
          "duration": 0.2173912499999915
        },
        {
          "name": "F2",
          "midi": 41,
          "time": 132.39127125000027,
          "velocity": 0.7480314960629921,
          "duration": 0.2173912499999915
        },
        {
          "name": "F3",
          "midi": 53,
          "time": 132.60866250000026,
          "velocity": 0.7480314960629921,
          "duration": 0.2173912499999915
        },
        {
          "name": "C3",
          "midi": 48,
          "time": 132.60866250000026,
          "velocity": 0.7480314960629921,
          "duration": 0.2173912499999915
        },
        {
          "name": "F2",
          "midi": 41,
          "time": 132.60866250000026,
          "velocity": 0.7480314960629921,
          "duration": 0.2173912499999915
        },
        {
          "name": "F3",
          "midi": 53,
          "time": 132.82605375000026,
          "velocity": 0.7480314960629921,
          "duration": 0.2173912499999915
        },
        {
          "name": "C3",
          "midi": 48,
          "time": 132.82605375000026,
          "velocity": 0.7480314960629921,
          "duration": 0.2173912499999915
        },
        {
          "name": "F2",
          "midi": 41,
          "time": 132.82605375000026,
          "velocity": 0.7480314960629921,
          "duration": 0.2173912499999915
        },
        {
          "name": "A#3",
          "midi": 58,
          "time": 133.04344500000025,
          "velocity": 0.7480314960629921,
          "duration": 0.2173912499999915
        },
        {
          "name": "F3",
          "midi": 53,
          "time": 133.04344500000025,
          "velocity": 0.7480314960629921,
          "duration": 0.2173912499999915
        },
        {
          "name": "A#2",
          "midi": 46,
          "time": 133.04344500000025,
          "velocity": 0.7480314960629921,
          "duration": 0.2173912499999915
        },
        {
          "name": "A#3",
          "midi": 58,
          "time": 133.26083625000024,
          "velocity": 0.7480314960629921,
          "duration": 0.2173912499999915
        },
        {
          "name": "F3",
          "midi": 53,
          "time": 133.26083625000024,
          "velocity": 0.7480314960629921,
          "duration": 0.2173912499999915
        },
        {
          "name": "A#2",
          "midi": 46,
          "time": 133.26083625000024,
          "velocity": 0.7480314960629921,
          "duration": 0.2173912499999915
        },
        {
          "name": "A#3",
          "midi": 58,
          "time": 133.47822750000023,
          "velocity": 0.7480314960629921,
          "duration": 0.2173912499999915
        },
        {
          "name": "F3",
          "midi": 53,
          "time": 133.47822750000023,
          "velocity": 0.7480314960629921,
          "duration": 0.2173912499999915
        },
        {
          "name": "A#2",
          "midi": 46,
          "time": 133.47822750000023,
          "velocity": 0.7480314960629921,
          "duration": 0.2173912499999915
        },
        {
          "name": "A#3",
          "midi": 58,
          "time": 133.69561875000022,
          "velocity": 0.7480314960629921,
          "duration": 0.2173912499999915
        },
        {
          "name": "F3",
          "midi": 53,
          "time": 133.69561875000022,
          "velocity": 0.7480314960629921,
          "duration": 0.2173912499999915
        },
        {
          "name": "A#2",
          "midi": 46,
          "time": 133.69561875000022,
          "velocity": 0.7480314960629921,
          "duration": 0.2173912499999915
        },
        {
          "name": "G3",
          "midi": 55,
          "time": 133.9130100000002,
          "velocity": 0.7480314960629921,
          "duration": 0.2173912499999915
        },
        {
          "name": "D3",
          "midi": 50,
          "time": 133.9130100000002,
          "velocity": 0.7480314960629921,
          "duration": 0.2173912499999915
        },
        {
          "name": "G2",
          "midi": 43,
          "time": 133.9130100000002,
          "velocity": 0.7480314960629921,
          "duration": 0.2173912499999915
        },
        {
          "name": "G3",
          "midi": 55,
          "time": 134.1304012500002,
          "velocity": 0.7480314960629921,
          "duration": 0.2173912499999915
        },
        {
          "name": "D3",
          "midi": 50,
          "time": 134.1304012500002,
          "velocity": 0.7480314960629921,
          "duration": 0.2173912499999915
        },
        {
          "name": "G2",
          "midi": 43,
          "time": 134.1304012500002,
          "velocity": 0.7480314960629921,
          "duration": 0.2173912499999915
        },
        {
          "name": "G3",
          "midi": 55,
          "time": 134.3477925000002,
          "velocity": 0.7480314960629921,
          "duration": 0.2173912499999915
        },
        {
          "name": "D3",
          "midi": 50,
          "time": 134.3477925000002,
          "velocity": 0.7480314960629921,
          "duration": 0.2173912499999915
        },
        {
          "name": "G2",
          "midi": 43,
          "time": 134.3477925000002,
          "velocity": 0.7480314960629921,
          "duration": 0.2173912499999915
        },
        {
          "name": "G3",
          "midi": 55,
          "time": 134.5651837500002,
          "velocity": 0.7480314960629921,
          "duration": 0.2173912499999915
        },
        {
          "name": "D3",
          "midi": 50,
          "time": 134.5651837500002,
          "velocity": 0.7480314960629921,
          "duration": 0.2173912499999915
        },
        {
          "name": "G2",
          "midi": 43,
          "time": 134.5651837500002,
          "velocity": 0.7480314960629921,
          "duration": 0.2173912499999915
        },
        {
          "name": "A#3",
          "midi": 58,
          "time": 134.78257500000018,
          "velocity": 0.7480314960629921,
          "duration": 0.2173912499999915
        },
        {
          "name": "F3",
          "midi": 53,
          "time": 134.78257500000018,
          "velocity": 0.7480314960629921,
          "duration": 0.2173912499999915
        },
        {
          "name": "A#2",
          "midi": 46,
          "time": 134.78257500000018,
          "velocity": 0.7480314960629921,
          "duration": 0.2173912499999915
        },
        {
          "name": "A#3",
          "midi": 58,
          "time": 134.99996625000017,
          "velocity": 0.7480314960629921,
          "duration": 0.2173912499999915
        },
        {
          "name": "F3",
          "midi": 53,
          "time": 134.99996625000017,
          "velocity": 0.7480314960629921,
          "duration": 0.2173912499999915
        },
        {
          "name": "A#2",
          "midi": 46,
          "time": 134.99996625000017,
          "velocity": 0.7480314960629921,
          "duration": 0.2173912499999915
        },
        {
          "name": "A#3",
          "midi": 58,
          "time": 135.21735750000016,
          "velocity": 0.7480314960629921,
          "duration": 0.2173912499999915
        },
        {
          "name": "F3",
          "midi": 53,
          "time": 135.21735750000016,
          "velocity": 0.7480314960629921,
          "duration": 0.2173912499999915
        },
        {
          "name": "A#2",
          "midi": 46,
          "time": 135.21735750000016,
          "velocity": 0.7480314960629921,
          "duration": 0.2173912499999915
        },
        {
          "name": "A#3",
          "midi": 58,
          "time": 135.43474875000015,
          "velocity": 0.7480314960629921,
          "duration": 0.2173912499999915
        },
        {
          "name": "F3",
          "midi": 53,
          "time": 135.43474875000015,
          "velocity": 0.7480314960629921,
          "duration": 0.2173912499999915
        },
        {
          "name": "A#2",
          "midi": 46,
          "time": 135.43474875000015,
          "velocity": 0.7480314960629921,
          "duration": 0.2173912499999915
        },
        {
          "name": "A4",
          "midi": 69,
          "time": 135.65214000000014,
          "velocity": 0.7480314960629921,
          "duration": 0.2173912499999915
        },
        {
          "name": "F4",
          "midi": 65,
          "time": 135.65214000000014,
          "velocity": 0.7480314960629921,
          "duration": 0.2173912499999915
        },
        {
          "name": "A4",
          "midi": 69,
          "time": 135.86953125000014,
          "velocity": 0.7480314960629921,
          "duration": 0.2173912499999915
        },
        {
          "name": "F4",
          "midi": 65,
          "time": 135.86953125000014,
          "velocity": 0.7480314960629921,
          "duration": 0.2173912499999915
        },
        {
          "name": "A4",
          "midi": 69,
          "time": 136.08692250000013,
          "velocity": 0.7480314960629921,
          "duration": 0.2173912499999915
        },
        {
          "name": "F4",
          "midi": 65,
          "time": 136.08692250000013,
          "velocity": 0.7480314960629921,
          "duration": 0.2173912499999915
        },
        {
          "name": "A4",
          "midi": 69,
          "time": 136.30431375000012,
          "velocity": 0.7480314960629921,
          "duration": 0.2173912499999915
        },
        {
          "name": "F4",
          "midi": 65,
          "time": 136.30431375000012,
          "velocity": 0.7480314960629921,
          "duration": 0.2173912499999915
        },
        {
          "name": "A#4",
          "midi": 70,
          "time": 136.5217050000001,
          "velocity": 0.7480314960629921,
          "duration": 0.2173912499999915
        },
        {
          "name": "F4",
          "midi": 65,
          "time": 136.5217050000001,
          "velocity": 0.7480314960629921,
          "duration": 0.2173912499999915
        },
        {
          "name": "A#4",
          "midi": 70,
          "time": 136.7390962500001,
          "velocity": 0.7480314960629921,
          "duration": 0.2173912499999915
        },
        {
          "name": "F4",
          "midi": 65,
          "time": 136.7390962500001,
          "velocity": 0.7480314960629921,
          "duration": 0.2173912499999915
        },
        {
          "name": "A#4",
          "midi": 70,
          "time": 136.9564875000001,
          "velocity": 0.7480314960629921,
          "duration": 0.2173912499999915
        },
        {
          "name": "F4",
          "midi": 65,
          "time": 136.9564875000001,
          "velocity": 0.7480314960629921,
          "duration": 0.2173912499999915
        },
        {
          "name": "A#4",
          "midi": 70,
          "time": 137.17387875000009,
          "velocity": 0.7480314960629921,
          "duration": 0.2173912499999915
        },
        {
          "name": "F4",
          "midi": 65,
          "time": 137.17387875000009,
          "velocity": 0.7480314960629921,
          "duration": 0.2173912499999915
        },
        {
          "name": "G4",
          "midi": 67,
          "time": 137.39127000000008,
          "velocity": 0.7480314960629921,
          "duration": 0.2173912499999915
        },
        {
          "name": "G4",
          "midi": 67,
          "time": 137.60866125000007,
          "velocity": 0.7480314960629921,
          "duration": 0.2173912499999915
        },
        {
          "name": "G4",
          "midi": 67,
          "time": 137.82605250000006,
          "velocity": 0.7480314960629921,
          "duration": 0.2173912499999915
        },
        {
          "name": "G4",
          "midi": 67,
          "time": 138.04344375000005,
          "velocity": 0.7480314960629921,
          "duration": 0.2173912499999915
        },
        {
          "name": "A#4",
          "midi": 70,
          "time": 138.26083500000004,
          "velocity": 0.7480314960629921,
          "duration": 0.2173912499999915
        },
        {
          "name": "F4",
          "midi": 65,
          "time": 138.26083500000004,
          "velocity": 0.7480314960629921,
          "duration": 0.2173912499999915
        },
        {
          "name": "A#4",
          "midi": 70,
          "time": 138.47822625000003,
          "velocity": 0.7480314960629921,
          "duration": 0.2173912499999915
        },
        {
          "name": "F4",
          "midi": 65,
          "time": 138.47822625000003,
          "velocity": 0.7480314960629921,
          "duration": 0.2173912499999915
        },
        {
          "name": "A#4",
          "midi": 70,
          "time": 138.69561750000003,
          "velocity": 0.7480314960629921,
          "duration": 0.2173912499999915
        },
        {
          "name": "F4",
          "midi": 65,
          "time": 138.69561750000003,
          "velocity": 0.7480314960629921,
          "duration": 0.2173912499999915
        },
        {
          "name": "A#4",
          "midi": 70,
          "time": 138.91300875000002,
          "velocity": 0.7480314960629921,
          "duration": 0.2173912499999915
        },
        {
          "name": "F4",
          "midi": 65,
          "time": 138.91300875000002,
          "velocity": 0.7480314960629921,
          "duration": 0.2173912499999915
        },
        {
          "name": "A4",
          "midi": 69,
          "time": 139.1304,
          "velocity": 0.7480314960629921,
          "duration": 0.2173912499999915
        },
        {
          "name": "F4",
          "midi": 65,
          "time": 139.1304,
          "velocity": 0.7480314960629921,
          "duration": 0.2173912499999915
        },
        {
          "name": "A4",
          "midi": 69,
          "time": 139.34779125,
          "velocity": 0.7480314960629921,
          "duration": 0.2173912499999915
        },
        {
          "name": "F4",
          "midi": 65,
          "time": 139.34779125,
          "velocity": 0.7480314960629921,
          "duration": 0.2173912499999915
        },
        {
          "name": "A4",
          "midi": 69,
          "time": 139.5651825,
          "velocity": 0.7480314960629921,
          "duration": 0.2173912499999915
        },
        {
          "name": "F4",
          "midi": 65,
          "time": 139.5651825,
          "velocity": 0.7480314960629921,
          "duration": 0.2173912499999915
        },
        {
          "name": "A4",
          "midi": 69,
          "time": 139.78257374999998,
          "velocity": 0.7480314960629921,
          "duration": 0.2173912499999915
        },
        {
          "name": "F4",
          "midi": 65,
          "time": 139.78257374999998,
          "velocity": 0.7480314960629921,
          "duration": 0.2173912499999915
        },
        {
          "name": "A#4",
          "midi": 70,
          "time": 139.99996499999997,
          "velocity": 0.7480314960629921,
          "duration": 0.2173912499999915
        },
        {
          "name": "F4",
          "midi": 65,
          "time": 139.99996499999997,
          "velocity": 0.7480314960629921,
          "duration": 0.2173912499999915
        },
        {
          "name": "A#4",
          "midi": 70,
          "time": 140.21735624999997,
          "velocity": 0.7480314960629921,
          "duration": 0.2173912499999915
        },
        {
          "name": "F4",
          "midi": 65,
          "time": 140.21735624999997,
          "velocity": 0.7480314960629921,
          "duration": 0.2173912499999915
        },
        {
          "name": "A#4",
          "midi": 70,
          "time": 140.43474749999996,
          "velocity": 0.7480314960629921,
          "duration": 0.2173912499999915
        },
        {
          "name": "F4",
          "midi": 65,
          "time": 140.43474749999996,
          "velocity": 0.7480314960629921,
          "duration": 0.2173912499999915
        },
        {
          "name": "A#4",
          "midi": 70,
          "time": 140.65213874999995,
          "velocity": 0.7480314960629921,
          "duration": 0.2173912499999915
        },
        {
          "name": "F4",
          "midi": 65,
          "time": 140.65213874999995,
          "velocity": 0.7480314960629921,
          "duration": 0.2173912499999915
        },
        {
          "name": "A#4",
          "midi": 70,
          "time": 140.86952999999994,
          "velocity": 0.7480314960629921,
          "duration": 0.2173912499999915
        },
        {
          "name": "G4",
          "midi": 67,
          "time": 140.86952999999994,
          "velocity": 0.7480314960629921,
          "duration": 0.2173912499999915
        },
        {
          "name": "A#4",
          "midi": 70,
          "time": 141.08692124999993,
          "velocity": 0.7480314960629921,
          "duration": 0.2173912499999915
        },
        {
          "name": "G4",
          "midi": 67,
          "time": 141.08692124999993,
          "velocity": 0.7480314960629921,
          "duration": 0.2173912499999915
        },
        {
          "name": "A#4",
          "midi": 70,
          "time": 141.30431249999992,
          "velocity": 0.7480314960629921,
          "duration": 0.2173912499999915
        },
        {
          "name": "G4",
          "midi": 67,
          "time": 141.30431249999992,
          "velocity": 0.7480314960629921,
          "duration": 0.2173912499999915
        },
        {
          "name": "A#4",
          "midi": 70,
          "time": 141.52170374999992,
          "velocity": 0.7480314960629921,
          "duration": 0.2173912499999915
        },
        {
          "name": "G4",
          "midi": 67,
          "time": 141.52170374999992,
          "velocity": 0.7480314960629921,
          "duration": 0.2173912499999915
        },
        {
          "name": "A#4",
          "midi": 70,
          "time": 141.7390949999999,
          "velocity": 0.7480314960629921,
          "duration": 0.2173912499999915
        },
        {
          "name": "F4",
          "midi": 65,
          "time": 141.7390949999999,
          "velocity": 0.7480314960629921,
          "duration": 0.2173912499999915
        },
        {
          "name": "A#4",
          "midi": 70,
          "time": 141.9564862499999,
          "velocity": 0.7480314960629921,
          "duration": 0.2173912499999915
        },
        {
          "name": "F4",
          "midi": 65,
          "time": 141.9564862499999,
          "velocity": 0.7480314960629921,
          "duration": 0.2173912499999915
        },
        {
          "name": "A#4",
          "midi": 70,
          "time": 142.1738774999999,
          "velocity": 0.7480314960629921,
          "duration": 0.2173912499999915
        },
        {
          "name": "F4",
          "midi": 65,
          "time": 142.1738774999999,
          "velocity": 0.7480314960629921,
          "duration": 0.2173912499999915
        },
        {
          "name": "A#4",
          "midi": 70,
          "time": 142.39126874999988,
          "velocity": 0.7480314960629921,
          "duration": 0.2173912499999915
        },
        {
          "name": "F4",
          "midi": 65,
          "time": 142.39126874999988,
          "velocity": 0.7480314960629921,
          "duration": 0.2173912499999915
        },
        {
          "name": "A4",
          "midi": 69,
          "time": 142.60865999999987,
          "velocity": 0.7480314960629921,
          "duration": 0.2173912499999915
        },
        {
          "name": "F4",
          "midi": 65,
          "time": 142.60865999999987,
          "velocity": 0.7480314960629921,
          "duration": 0.2173912499999915
        },
        {
          "name": "A4",
          "midi": 69,
          "time": 142.82605124999986,
          "velocity": 0.7480314960629921,
          "duration": 0.2173912499999915
        },
        {
          "name": "F4",
          "midi": 65,
          "time": 142.82605124999986,
          "velocity": 0.7480314960629921,
          "duration": 0.2173912499999915
        },
        {
          "name": "A4",
          "midi": 69,
          "time": 143.04344249999986,
          "velocity": 0.7480314960629921,
          "duration": 0.2173912499999915
        },
        {
          "name": "F4",
          "midi": 65,
          "time": 143.04344249999986,
          "velocity": 0.7480314960629921,
          "duration": 0.2173912499999915
        },
        {
          "name": "A4",
          "midi": 69,
          "time": 143.26083374999985,
          "velocity": 0.7480314960629921,
          "duration": 0.2173912499999915
        },
        {
          "name": "F4",
          "midi": 65,
          "time": 143.26083374999985,
          "velocity": 0.7480314960629921,
          "duration": 0.2173912499999915
        },
        {
          "name": "A#4",
          "midi": 70,
          "time": 143.47822499999984,
          "velocity": 0.7480314960629921,
          "duration": 0.2173912499999915
        },
        {
          "name": "F4",
          "midi": 65,
          "time": 143.47822499999984,
          "velocity": 0.7480314960629921,
          "duration": 0.2173912499999915
        },
        {
          "name": "A#4",
          "midi": 70,
          "time": 143.69561624999983,
          "velocity": 0.7480314960629921,
          "duration": 0.2173912499999915
        },
        {
          "name": "F4",
          "midi": 65,
          "time": 143.69561624999983,
          "velocity": 0.7480314960629921,
          "duration": 0.2173912499999915
        },
        {
          "name": "A#4",
          "midi": 70,
          "time": 143.91300749999982,
          "velocity": 0.7480314960629921,
          "duration": 0.2173912499999915
        },
        {
          "name": "F4",
          "midi": 65,
          "time": 143.91300749999982,
          "velocity": 0.7480314960629921,
          "duration": 0.2173912499999915
        },
        {
          "name": "A#4",
          "midi": 70,
          "time": 144.1303987499998,
          "velocity": 0.7480314960629921,
          "duration": 0.2173912499999915
        },
        {
          "name": "F4",
          "midi": 65,
          "time": 144.1303987499998,
          "velocity": 0.7480314960629921,
          "duration": 0.2173912499999915
        },
        {
          "name": "A#4",
          "midi": 70,
          "time": 144.3477899999998,
          "velocity": 0.7480314960629921,
          "duration": 0.2173912499999915
        },
        {
          "name": "G4",
          "midi": 67,
          "time": 144.3477899999998,
          "velocity": 0.7480314960629921,
          "duration": 0.2173912499999915
        },
        {
          "name": "A#4",
          "midi": 70,
          "time": 144.5651812499998,
          "velocity": 0.7480314960629921,
          "duration": 0.2173912499999915
        },
        {
          "name": "G4",
          "midi": 67,
          "time": 144.5651812499998,
          "velocity": 0.7480314960629921,
          "duration": 0.2173912499999915
        },
        {
          "name": "A#4",
          "midi": 70,
          "time": 144.7825724999998,
          "velocity": 0.7480314960629921,
          "duration": 0.2173912499999915
        },
        {
          "name": "G4",
          "midi": 67,
          "time": 144.7825724999998,
          "velocity": 0.7480314960629921,
          "duration": 0.2173912499999915
        },
        {
          "name": "A#4",
          "midi": 70,
          "time": 144.99996374999978,
          "velocity": 0.7480314960629921,
          "duration": 0.2173912499999915
        },
        {
          "name": "G4",
          "midi": 67,
          "time": 144.99996374999978,
          "velocity": 0.7480314960629921,
          "duration": 0.2173912499999915
        },
        {
          "name": "A#4",
          "midi": 70,
          "time": 145.21735499999977,
          "velocity": 0.7480314960629921,
          "duration": 0.2173912499999915
        },
        {
          "name": "F4",
          "midi": 65,
          "time": 145.21735499999977,
          "velocity": 0.7480314960629921,
          "duration": 0.2173912499999915
        },
        {
          "name": "A#4",
          "midi": 70,
          "time": 145.43474624999976,
          "velocity": 0.7480314960629921,
          "duration": 0.2173912499999915
        },
        {
          "name": "F4",
          "midi": 65,
          "time": 145.43474624999976,
          "velocity": 0.7480314960629921,
          "duration": 0.2173912499999915
        },
        {
          "name": "A#4",
          "midi": 70,
          "time": 145.65213749999975,
          "velocity": 0.7480314960629921,
          "duration": 0.2173912499999915
        },
        {
          "name": "F4",
          "midi": 65,
          "time": 145.65213749999975,
          "velocity": 0.7480314960629921,
          "duration": 0.2173912499999915
        },
        {
          "name": "A#4",
          "midi": 70,
          "time": 145.86952874999974,
          "velocity": 0.7480314960629921,
          "duration": 0.2173912499999915
        },
        {
          "name": "F4",
          "midi": 65,
          "time": 145.86952874999974,
          "velocity": 0.7480314960629921,
          "duration": 0.2173912499999915
        },
        {
          "name": "A4",
          "midi": 69,
          "time": 146.08691999999974,
          "velocity": 0.7480314960629921,
          "duration": 0.2173912499999915
        },
        {
          "name": "F4",
          "midi": 65,
          "time": 146.08691999999974,
          "velocity": 0.7480314960629921,
          "duration": 0.2173912499999915
        },
        {
          "name": "A4",
          "midi": 69,
          "time": 146.30431124999973,
          "velocity": 0.7480314960629921,
          "duration": 0.2173912499999915
        },
        {
          "name": "F4",
          "midi": 65,
          "time": 146.30431124999973,
          "velocity": 0.7480314960629921,
          "duration": 0.2173912499999915
        },
        {
          "name": "A4",
          "midi": 69,
          "time": 146.52170249999972,
          "velocity": 0.7480314960629921,
          "duration": 0.2173912499999915
        },
        {
          "name": "F4",
          "midi": 65,
          "time": 146.52170249999972,
          "velocity": 0.7480314960629921,
          "duration": 0.2173912499999915
        },
        {
          "name": "A4",
          "midi": 69,
          "time": 146.7390937499997,
          "velocity": 0.7480314960629921,
          "duration": 0.2173912499999915
        },
        {
          "name": "F4",
          "midi": 65,
          "time": 146.7390937499997,
          "velocity": 0.7480314960629921,
          "duration": 0.2173912499999915
        },
        {
          "name": "A#4",
          "midi": 70,
          "time": 146.9564849999997,
          "velocity": 0.7480314960629921,
          "duration": 0.2173912499999915
        },
        {
          "name": "F4",
          "midi": 65,
          "time": 146.9564849999997,
          "velocity": 0.7480314960629921,
          "duration": 0.2173912499999915
        },
        {
          "name": "A#4",
          "midi": 70,
          "time": 147.1738762499997,
          "velocity": 0.7480314960629921,
          "duration": 0.2173912499999915
        },
        {
          "name": "F4",
          "midi": 65,
          "time": 147.1738762499997,
          "velocity": 0.7480314960629921,
          "duration": 0.2173912499999915
        },
        {
          "name": "A#4",
          "midi": 70,
          "time": 147.39126749999969,
          "velocity": 0.7480314960629921,
          "duration": 0.2173912499999915
        },
        {
          "name": "F4",
          "midi": 65,
          "time": 147.39126749999969,
          "velocity": 0.7480314960629921,
          "duration": 0.2173912499999915
        },
        {
          "name": "A#4",
          "midi": 70,
          "time": 147.60865874999968,
          "velocity": 0.7480314960629921,
          "duration": 0.2173912499999915
        },
        {
          "name": "F4",
          "midi": 65,
          "time": 147.60865874999968,
          "velocity": 0.7480314960629921,
          "duration": 0.2173912499999915
        },
        {
          "name": "G4",
          "midi": 67,
          "time": 147.82604999999967,
          "velocity": 0.7480314960629921,
          "duration": 0.2173912499999915
        },
        {
          "name": "G4",
          "midi": 67,
          "time": 148.04344124999966,
          "velocity": 0.7480314960629921,
          "duration": 0.2173912499999915
        },
        {
          "name": "G4",
          "midi": 67,
          "time": 148.26083249999965,
          "velocity": 0.7480314960629921,
          "duration": 0.2173912499999915
        },
        {
          "name": "G4",
          "midi": 67,
          "time": 148.47822374999964,
          "velocity": 0.7480314960629921,
          "duration": 0.2173912499999915
        },
        {
          "name": "A#4",
          "midi": 70,
          "time": 148.69561499999963,
          "velocity": 0.7480314960629921,
          "duration": 0.2173912499999915
        },
        {
          "name": "F4",
          "midi": 65,
          "time": 148.69561499999963,
          "velocity": 0.7480314960629921,
          "duration": 0.2173912499999915
        },
        {
          "name": "A#4",
          "midi": 70,
          "time": 148.91300624999963,
          "velocity": 0.7480314960629921,
          "duration": 0.2173912499999915
        },
        {
          "name": "F4",
          "midi": 65,
          "time": 148.91300624999963,
          "velocity": 0.7480314960629921,
          "duration": 0.2173912499999915
        },
        {
          "name": "A#4",
          "midi": 70,
          "time": 149.13039749999962,
          "velocity": 0.7480314960629921,
          "duration": 0.2173912499999915
        },
        {
          "name": "F4",
          "midi": 65,
          "time": 149.13039749999962,
          "velocity": 0.7480314960629921,
          "duration": 0.2173912499999915
        },
        {
          "name": "A#4",
          "midi": 70,
          "time": 149.3477887499996,
          "velocity": 0.7480314960629921,
          "duration": 0.2173912499999915
        },
        {
          "name": "F4",
          "midi": 65,
          "time": 149.3477887499996,
          "velocity": 0.7480314960629921,
          "duration": 0.2173912499999915
        },
        {
          "name": "F4",
          "midi": 65,
          "time": 149.5651799999996,
          "velocity": 0.7480314960629921,
          "duration": 0.2173912499999915
        },
        {
          "name": "F4",
          "midi": 65,
          "time": 149.7825712499996,
          "velocity": 0.7480314960629921,
          "duration": 0.2173912499999915
        },
        {
          "name": "G4",
          "midi": 67,
          "time": 149.99996249999958,
          "velocity": 0.7480314960629921,
          "duration": 0.2173912500000199
        },
        {
          "name": "F4",
          "midi": 65,
          "time": 150.2173537499996,
          "velocity": 0.7480314960629921,
          "duration": 0.2173912499999915
        },
        {
          "name": "A#4",
          "midi": 70,
          "time": 150.4347449999996,
          "velocity": 0.7480314960629921,
          "duration": 0.2173912499999915
        },
        {
          "name": "A#4",
          "midi": 70,
          "time": 150.6521362499996,
          "velocity": 0.7480314960629921,
          "duration": 0.2173912499999915
        },
        {
          "name": "A#4",
          "midi": 70,
          "time": 150.86952749999958,
          "velocity": 0.7480314960629921,
          "duration": 0.2173912499999915
        },
        {
          "name": "A#4",
          "midi": 70,
          "time": 151.08691874999957,
          "velocity": 0.7480314960629921,
          "duration": 0.2173912499999915
        },
        {
          "name": "G4",
          "midi": 67,
          "time": 151.30430999999956,
          "velocity": 0.7480314960629921,
          "duration": 0.2173912499999915
        },
        {
          "name": "F4",
          "midi": 65,
          "time": 151.52170124999955,
          "velocity": 0.7480314960629921,
          "duration": 0.2173912499999915
        },
        {
          "name": "G4",
          "midi": 67,
          "time": 151.73909249999954,
          "velocity": 0.7480314960629921,
          "duration": 0.2173912499999915
        },
        {
          "name": "F4",
          "midi": 65,
          "time": 151.95648374999953,
          "velocity": 0.7480314960629921,
          "duration": 0.2173912499999915
        },
        {
          "name": "A#4",
          "midi": 70,
          "time": 152.17387499999953,
          "velocity": 0.7480314960629921,
          "duration": 0.2173912499999915
        },
        {
          "name": "A#4",
          "midi": 70,
          "time": 152.39126624999952,
          "velocity": 0.7480314960629921,
          "duration": 0.2173912499999915
        },
        {
          "name": "A#4",
          "midi": 70,
          "time": 152.6086574999995,
          "velocity": 0.7480314960629921,
          "duration": 0.2173912499999915
        },
        {
          "name": "A#4",
          "midi": 70,
          "time": 152.8260487499995,
          "velocity": 0.7480314960629921,
          "duration": 0.2173912499999915
        },
        {
          "name": "F4",
          "midi": 65,
          "time": 153.0434399999995,
          "velocity": 0.7480314960629921,
          "duration": 0.2173912499999915
        },
        {
          "name": "F4",
          "midi": 65,
          "time": 153.26083124999948,
          "velocity": 0.7480314960629921,
          "duration": 0.2173912499999915
        },
        {
          "name": "F4",
          "midi": 65,
          "time": 153.47822249999948,
          "velocity": 0.7480314960629921,
          "duration": 0.2173912499999915
        },
        {
          "name": "F4",
          "midi": 65,
          "time": 153.69561374999947,
          "velocity": 0.7480314960629921,
          "duration": 0.2173912499999915
        },
        {
          "name": "A4",
          "midi": 69,
          "time": 153.91300499999946,
          "velocity": 0.7480314960629921,
          "duration": 0.14492749999999432
        },
        {
          "name": "A#4",
          "midi": 70,
          "time": 154.05793249999945,
          "velocity": 0.6771653543307087,
          "duration": 0.14492749999999432
        },
        {
          "name": "A4",
          "midi": 69,
          "time": 154.20285999999945,
          "velocity": 0.6771653543307087,
          "duration": 0.14492749999999432
        },
        {
          "name": "G4",
          "midi": 67,
          "time": 154.34778749999944,
          "velocity": 0.7480314960629921,
          "duration": 0.4347825000000114
        },
        {
          "name": "G4",
          "midi": 67,
          "time": 154.78256999999945,
          "velocity": 0.7480314960629921,
          "duration": 0.2173912500000199
        },
        {
          "name": "G4",
          "midi": 67,
          "time": 154.99996124999947,
          "velocity": 0.7480314960629921,
          "duration": 0.2173912499999915
        },
        {
          "name": "G4",
          "midi": 67,
          "time": 155.21735249999946,
          "velocity": 0.7480314960629921,
          "duration": 0.2173912500000199
        },
        {
          "name": "G4",
          "midi": 67,
          "time": 155.43474374999948,
          "velocity": 0.7480314960629921,
          "duration": 0.2173912499999915
        },
        {
          "name": "A#4",
          "midi": 70,
          "time": 155.65213499999948,
          "velocity": 0.7480314960629921,
          "duration": 0.2173912499999915
        },
        {
          "name": "A#4",
          "midi": 70,
          "time": 155.86952624999947,
          "velocity": 0.7480314960629921,
          "duration": 0.2173912499999915
        },
        {
          "name": "A#4",
          "midi": 70,
          "time": 156.08691749999946,
          "velocity": 0.7480314960629921,
          "duration": 0.2173912499999915
        },
        {
          "name": "A#4",
          "midi": 70,
          "time": 156.30430874999945,
          "velocity": 0.7480314960629921,
          "duration": 0.2173912499999915
        },
        {
          "name": "A4",
          "midi": 69,
          "time": 156.52169999999944,
          "velocity": 0.7480314960629921,
          "duration": 0.2173912499999915
        },
        {
          "name": "F4",
          "midi": 65,
          "time": 156.52169999999944,
          "velocity": 0.7480314960629921,
          "duration": 0.2173912499999915
        },
        {
          "name": "A4",
          "midi": 69,
          "time": 156.73909124999943,
          "velocity": 0.7480314960629921,
          "duration": 0.2173912499999915
        },
        {
          "name": "F4",
          "midi": 65,
          "time": 156.73909124999943,
          "velocity": 0.7480314960629921,
          "duration": 0.2173912499999915
        },
        {
          "name": "A4",
          "midi": 69,
          "time": 156.95648249999942,
          "velocity": 0.7480314960629921,
          "duration": 0.2173912499999915
        },
        {
          "name": "F4",
          "midi": 65,
          "time": 156.95648249999942,
          "velocity": 0.7480314960629921,
          "duration": 0.2173912499999915
        },
        {
          "name": "A4",
          "midi": 69,
          "time": 157.17387374999942,
          "velocity": 0.7480314960629921,
          "duration": 0.2173912499999915
        },
        {
          "name": "F4",
          "midi": 65,
          "time": 157.17387374999942,
          "velocity": 0.7480314960629921,
          "duration": 0.2173912499999915
        },
        {
          "name": "A#4",
          "midi": 70,
          "time": 157.3912649999994,
          "velocity": 0.7480314960629921,
          "duration": 0.2173912499999915
        },
        {
          "name": "F4",
          "midi": 65,
          "time": 157.3912649999994,
          "velocity": 0.7480314960629921,
          "duration": 0.2173912499999915
        },
        {
          "name": "A#4",
          "midi": 70,
          "time": 157.6086562499994,
          "velocity": 0.7480314960629921,
          "duration": 0.2173912499999915
        },
        {
          "name": "F4",
          "midi": 65,
          "time": 157.6086562499994,
          "velocity": 0.7480314960629921,
          "duration": 0.2173912499999915
        },
        {
          "name": "A#4",
          "midi": 70,
          "time": 157.8260474999994,
          "velocity": 0.7480314960629921,
          "duration": 0.2173912499999915
        },
        {
          "name": "F4",
          "midi": 65,
          "time": 157.8260474999994,
          "velocity": 0.7480314960629921,
          "duration": 0.2173912499999915
        },
        {
          "name": "A#4",
          "midi": 70,
          "time": 158.04343874999938,
          "velocity": 0.7480314960629921,
          "duration": 0.2173912499999915
        },
        {
          "name": "F4",
          "midi": 65,
          "time": 158.04343874999938,
          "velocity": 0.7480314960629921,
          "duration": 0.2173912499999915
        },
        {
          "name": "G4",
          "midi": 67,
          "time": 158.26082999999937,
          "velocity": 0.7480314960629921,
          "duration": 0.2173912499999915
        },
        {
          "name": "G4",
          "midi": 67,
          "time": 158.47822124999936,
          "velocity": 0.7480314960629921,
          "duration": 0.2173912499999915
        },
        {
          "name": "G4",
          "midi": 67,
          "time": 158.69561249999936,
          "velocity": 0.7480314960629921,
          "duration": 0.2173912499999915
        },
        {
          "name": "G4",
          "midi": 67,
          "time": 158.91300374999935,
          "velocity": 0.7480314960629921,
          "duration": 0.2173912499999915
        },
        {
          "name": "A#4",
          "midi": 70,
          "time": 159.13039499999934,
          "velocity": 0.7480314960629921,
          "duration": 0.2173912499999915
        },
        {
          "name": "F4",
          "midi": 65,
          "time": 159.13039499999934,
          "velocity": 0.7480314960629921,
          "duration": 0.2173912499999915
        },
        {
          "name": "A#4",
          "midi": 70,
          "time": 159.34778624999933,
          "velocity": 0.7480314960629921,
          "duration": 0.2173912499999915
        },
        {
          "name": "F4",
          "midi": 65,
          "time": 159.34778624999933,
          "velocity": 0.7480314960629921,
          "duration": 0.2173912499999915
        },
        {
          "name": "A#4",
          "midi": 70,
          "time": 159.56517749999932,
          "velocity": 0.7480314960629921,
          "duration": 0.2173912499999915
        },
        {
          "name": "F4",
          "midi": 65,
          "time": 159.56517749999932,
          "velocity": 0.7480314960629921,
          "duration": 0.2173912499999915
        },
        {
          "name": "A#4",
          "midi": 70,
          "time": 159.7825687499993,
          "velocity": 0.7480314960629921,
          "duration": 0.2173912499999915
        },
        {
          "name": "F4",
          "midi": 65,
          "time": 159.7825687499993,
          "velocity": 0.7480314960629921,
          "duration": 0.2173912499999915
        },
        {
          "name": "A4",
          "midi": 69,
          "time": 159.9999599999993,
          "velocity": 0.7480314960629921,
          "duration": 0.2173912499999915
        },
        {
          "name": "F4",
          "midi": 65,
          "time": 159.9999599999993,
          "velocity": 0.7480314960629921,
          "duration": 0.2173912499999915
        },
        {
          "name": "A4",
          "midi": 69,
          "time": 160.2173512499993,
          "velocity": 0.7480314960629921,
          "duration": 0.2173912499999915
        },
        {
          "name": "F4",
          "midi": 65,
          "time": 160.2173512499993,
          "velocity": 0.7480314960629921,
          "duration": 0.2173912499999915
        },
        {
          "name": "A4",
          "midi": 69,
          "time": 160.4347424999993,
          "velocity": 0.7480314960629921,
          "duration": 0.2173912499999915
        },
        {
          "name": "F4",
          "midi": 65,
          "time": 160.4347424999993,
          "velocity": 0.7480314960629921,
          "duration": 0.2173912499999915
        },
        {
          "name": "A4",
          "midi": 69,
          "time": 160.65213374999928,
          "velocity": 0.7480314960629921,
          "duration": 0.2173912499999915
        },
        {
          "name": "F4",
          "midi": 65,
          "time": 160.65213374999928,
          "velocity": 0.7480314960629921,
          "duration": 0.2173912499999915
        },
        {
          "name": "A#4",
          "midi": 70,
          "time": 160.86952499999927,
          "velocity": 0.7480314960629921,
          "duration": 0.2173912499999915
        },
        {
          "name": "F4",
          "midi": 65,
          "time": 160.86952499999927,
          "velocity": 0.7480314960629921,
          "duration": 0.2173912499999915
        },
        {
          "name": "A#4",
          "midi": 70,
          "time": 161.08691624999926,
          "velocity": 0.7480314960629921,
          "duration": 0.2173912499999915
        },
        {
          "name": "F4",
          "midi": 65,
          "time": 161.08691624999926,
          "velocity": 0.7480314960629921,
          "duration": 0.2173912499999915
        },
        {
          "name": "A#4",
          "midi": 70,
          "time": 161.30430749999925,
          "velocity": 0.7480314960629921,
          "duration": 0.2173912499999915
        },
        {
          "name": "F4",
          "midi": 65,
          "time": 161.30430749999925,
          "velocity": 0.7480314960629921,
          "duration": 0.2173912499999915
        },
        {
          "name": "A#4",
          "midi": 70,
          "time": 161.52169874999925,
          "velocity": 0.7480314960629921,
          "duration": 0.2173912499999915
        },
        {
          "name": "F4",
          "midi": 65,
          "time": 161.52169874999925,
          "velocity": 0.7480314960629921,
          "duration": 0.2173912499999915
        },
        {
          "name": "G4",
          "midi": 67,
          "time": 161.73908999999924,
          "velocity": 0.7480314960629921,
          "duration": 0.2173912499999915
        },
        {
          "name": "G4",
          "midi": 67,
          "time": 161.95648124999923,
          "velocity": 0.7480314960629921,
          "duration": 0.2173912499999915
        },
        {
          "name": "G4",
          "midi": 67,
          "time": 162.17387249999922,
          "velocity": 0.7480314960629921,
          "duration": 0.2173912499999915
        },
        {
          "name": "G4",
          "midi": 67,
          "time": 162.3912637499992,
          "velocity": 0.7480314960629921,
          "duration": 0.2173912499999915
        },
        {
          "name": "A#4",
          "midi": 70,
          "time": 162.6086549999992,
          "velocity": 0.7480314960629921,
          "duration": 0.2173912499999915
        },
        {
          "name": "F4",
          "midi": 65,
          "time": 162.6086549999992,
          "velocity": 0.7480314960629921,
          "duration": 0.2173912499999915
        },
        {
          "name": "A#4",
          "midi": 70,
          "time": 162.8260462499992,
          "velocity": 0.7480314960629921,
          "duration": 0.2173912499999915
        },
        {
          "name": "F4",
          "midi": 65,
          "time": 162.8260462499992,
          "velocity": 0.7480314960629921,
          "duration": 0.2173912499999915
        },
        {
          "name": "A#4",
          "midi": 70,
          "time": 163.0434374999992,
          "velocity": 0.7480314960629921,
          "duration": 0.2173912499999915
        },
        {
          "name": "F4",
          "midi": 65,
          "time": 163.0434374999992,
          "velocity": 0.7480314960629921,
          "duration": 0.2173912499999915
        },
        {
          "name": "A#4",
          "midi": 70,
          "time": 163.26082874999918,
          "velocity": 0.7480314960629921,
          "duration": 0.2173912499999915
        },
        {
          "name": "F4",
          "midi": 65,
          "time": 163.26082874999918,
          "velocity": 0.7480314960629921,
          "duration": 0.2173912499999915
        }
      ],
      "controlChanges": {
        "6": [
          {
            "number": 6,
            "time": 0.0036231874999999997,
            "value": 0.09448818897637795
          },
          {
            "number": 6,
            "time": 0.00905796875,
            "value": 0.09448818897637795
          }
        ],
        "7": [
          {
            "number": 7,
            "time": 0,
            "value": 0.6929133858267716
          },
          {
            "number": 7,
            "time": 0.010869562499999999,
            "value": 0.6929133858267716
          },
          {
            "number": 7,
            "time": 135.65214000000014,
            "value": 0.8818897637795275
          },
          {
            "number": 7,
            "time": 135.65214000000014,
            "value": 0.8818897637795275
          }
        ],
        "10": [
          {
            "number": 10,
            "time": 0,
            "value": 0.6299212598425197
          },
          {
            "number": 10,
            "time": 0.010869562499999999,
            "value": 0.6299212598425197
          }
        ],
        "38": [
          {
            "number": 38,
            "time": 0.0054347812499999995,
            "value": 0
          },
          {
            "number": 38,
            "time": 0.010869562499999999,
            "value": 0
          }
        ],
        "91": [
          {
            "number": 91,
            "time": 0.010869562499999999,
            "value": 0
          },
          {
            "number": 91,
            "time": 0.010869562499999999,
            "value": 0
          }
        ],
        "92": [
          {
            "number": 92,
            "time": 0.010869562499999999,
            "value": 0
          },
          {
            "number": 92,
            "time": 0.010869562499999999,
            "value": 0
          }
        ],
        "93": [
          {
            "number": 93,
            "time": 0.010869562499999999,
            "value": 0
          },
          {
            "number": 93,
            "time": 0.010869562499999999,
            "value": 0
          }
        ],
        "95": [
          {
            "number": 95,
            "time": 0.010869562499999999,
            "value": 0
          },
          {
            "number": 95,
            "time": 0.010869562499999999,
            "value": 0
          }
        ],
        "100": [
          {
            "number": 100,
            "time": 0.0018115937499999998,
            "value": 0
          },
          {
            "number": 100,
            "time": 0.007246374999999999,
            "value": 0
          }
        ],
        "101": [
          {
            "number": 101,
            "time": 0,
            "value": 0
          },
          {
            "number": 101,
            "time": 0.0054347812499999995,
            "value": 0
          }
        ]
      },
      "id": 4,
      "instrumentNumber": 29,
      "instrument": "overdriven guitar",
      "instrumentFamily": "guitar",
      "channelNumber": 2,
      "isPercussion": false
    }
  ]
}