{
  "header": {
    "PPQ": 960,
    "timeSignature": [
      4,
      4
    ],
    "bpm": 145.00003625000906,
    "name": ""
  },
  "startTime": 0,
  "duration": 263.17234799999903,
  "tracks": [
    {
      "startTime": 0,
      "duration": 0,
      "length": 0,
      "notes": [],
      "controlChanges": {
        "6": [
          {
            "number": 6,
            "time": 0,
            "value": 0.09448818897637795
          },
          {
            "number": 6,
            "time": 0,
            "value": 0.09448818897637795
          },
          {
            "number": 6,
            "time": 0,
            "value": 0.09448818897637795
          },
          {
            "number": 6,
            "time": 0,
            "value": 0.09448818897637795
          },
          {
            "number": 6,
            "time": 0,
            "value": 0.09448818897637795
          },
          {
            "number": 6,
            "time": 0,
            "value": 0.09448818897637795
          },
          {
            "number": 6,
            "time": 0,
            "value": 0.09448818897637795
          },
          {
            "number": 6,
            "time": 0,
            "value": 0.09448818897637795
          },
          {
            "number": 6,
            "time": 0,
            "value": 0.09448818897637795
          },
          {
            "number": 6,
            "time": 0,
            "value": 0.09448818897637795
          },
          {
            "number": 6,
            "time": 0,
            "value": 0.09448818897637795
          },
          {
            "number": 6,
            "time": 0,
            "value": 0.09448818897637795
          },
          {
            "number": 6,
            "time": 0,
            "value": 0.09448818897637795
          },
          {
            "number": 6,
            "time": 0,
            "value": 0.09448818897637795
          },
          {
            "number": 6,
            "time": 0,
            "value": 0.09448818897637795
          },
          {
            "number": 6,
            "time": 0,
            "value": 0.09448818897637795
          }
        ],
        "38": [
          {
            "number": 38,
            "time": 0,
            "value": 0
          },
          {
            "number": 38,
            "time": 0,
            "value": 0
          },
          {
            "number": 38,
            "time": 0,
            "value": 0
          },
          {
            "number": 38,
            "time": 0,
            "value": 0
          },
          {
            "number": 38,
            "time": 0,
            "value": 0
          },
          {
            "number": 38,
            "time": 0,
            "value": 0
          },
          {
            "number": 38,
            "time": 0,
            "value": 0
          },
          {
            "number": 38,
            "time": 0,
            "value": 0
          },
          {
            "number": 38,
            "time": 0,
            "value": 0
          },
          {
            "number": 38,
            "time": 0,
            "value": 0
          },
          {
            "number": 38,
            "time": 0,
            "value": 0
          },
          {
            "number": 38,
            "time": 0,
            "value": 0
          },
          {
            "number": 38,
            "time": 0,
            "value": 0
          },
          {
            "number": 38,
            "time": 0,
            "value": 0
          },
          {
            "number": 38,
            "time": 0,
            "value": 0
          },
          {
            "number": 38,
            "time": 0,
            "value": 0
          }
        ],
        "100": [
          {
            "number": 100,
            "time": 0,
            "value": 0
          },
          {
            "number": 100,
            "time": 0,
            "value": 0
          },
          {
            "number": 100,
            "time": 0,
            "value": 0
          },
          {
            "number": 100,
            "time": 0,
            "value": 0
          },
          {
            "number": 100,
            "time": 0,
            "value": 0
          },
          {
            "number": 100,
            "time": 0,
            "value": 0
          },
          {
            "number": 100,
            "time": 0,
            "value": 0
          },
          {
            "number": 100,
            "time": 0,
            "value": 0
          },
          {
            "number": 100,
            "time": 0,
            "value": 0
          },
          {
            "number": 100,
            "time": 0,
            "value": 0
          },
          {
            "number": 100,
            "time": 0,
            "value": 0
          },
          {
            "number": 100,
            "time": 0,
            "value": 0
          },
          {
            "number": 100,
            "time": 0,
            "value": 0
          },
          {
            "number": 100,
            "time": 0,
            "value": 0
          },
          {
            "number": 100,
            "time": 0,
            "value": 0
          },
          {
            "number": 100,
            "time": 0,
            "value": 0
          }
        ],
        "101": [
          {
            "number": 101,
            "time": 0,
            "value": 0
          },
          {
            "number": 101,
            "time": 0,
            "value": 0
          },
          {
            "number": 101,
            "time": 0,
            "value": 0
          },
          {
            "number": 101,
            "time": 0,
            "value": 0
          },
          {
            "number": 101,
            "time": 0,
            "value": 0
          },
          {
            "number": 101,
            "time": 0,
            "value": 0
          },
          {
            "number": 101,
            "time": 0,
            "value": 0
          },
          {
            "number": 101,
            "time": 0,
            "value": 0
          },
          {
            "number": 101,
            "time": 0,
            "value": 0
          },
          {
            "number": 101,
            "time": 0,
            "value": 0
          },
          {
            "number": 101,
            "time": 0,
            "value": 0
          },
          {
            "number": 101,
            "time": 0,
            "value": 0
          },
          {
            "number": 101,
            "time": 0,
            "value": 0
          },
          {
            "number": 101,
            "time": 0,
            "value": 0
          },
          {
            "number": 101,
            "time": 0,
            "value": 0
          },
          {
            "number": 101,
            "time": 0,
            "value": 0
          }
        ]
      },
      "id": 0
    },
    {
      "startTime": 0,
      "duration": 263.17234799999903,
      "length": 4042,
      "notes": [
        {
          "name": "A4",
          "midi": 69,
          "time": 0,
          "velocity": 0.7480314960629921,
          "duration": 0.2068965
        },
        {
          "name": "B3",
          "midi": 59,
          "time": 0,
          "velocity": 0.7480314960629921,
          "duration": 0.2068965
        },
        {
          "name": "D4",
          "midi": 62,
          "time": 0,
          "velocity": 0.7480314960629921,
          "duration": 0.2068965
        },
        {
          "name": "D3",
          "midi": 50,
          "time": 0,
          "velocity": 0.7480314960629921,
          "duration": 0.2068965
        },
        {
          "name": "A4",
          "midi": 69,
          "time": 0.2068965,
          "velocity": 0.7480314960629921,
          "duration": 0.2068965
        },
        {
          "name": "B3",
          "midi": 59,
          "time": 0.2068965,
          "velocity": 0.7480314960629921,
          "duration": 0.2068965
        },
        {
          "name": "C4",
          "midi": 60,
          "time": 0.2068965,
          "velocity": 0.5511811023622047,
          "duration": 0.2068965
        },
        {
          "name": "D3",
          "midi": 50,
          "time": 0.2068965,
          "velocity": 0.7480314960629921,
          "duration": 0.2068965
        },
        {
          "name": "A4",
          "midi": 69,
          "time": 0.413793,
          "velocity": 0.7480314960629921,
          "duration": 0.20689649999999998
        },
        {
          "name": "B3",
          "midi": 59,
          "time": 0.413793,
          "velocity": 0.7480314960629921,
          "duration": 0.20689649999999998
        },
        {
          "name": "C4",
          "midi": 60,
          "time": 0.413793,
          "velocity": 0.7480314960629921,
          "duration": 0.20689649999999998
        },
        {
          "name": "D3",
          "midi": 50,
          "time": 0.413793,
          "velocity": 0.7480314960629921,
          "duration": 0.20689649999999998
        },
        {
          "name": "A4",
          "midi": 69,
          "time": 0.6206895,
          "velocity": 0.7480314960629921,
          "duration": 0.20689650000000004
        },
        {
          "name": "B3",
          "midi": 59,
          "time": 0.6206895,
          "velocity": 0.7480314960629921,
          "duration": 0.20689650000000004
        },
        {
          "name": "C4",
          "midi": 60,
          "time": 0.6206895,
          "velocity": 0.7480314960629921,
          "duration": 0.20689650000000004
        },
        {
          "name": "D3",
          "midi": 50,
          "time": 0.6206895,
          "velocity": 0.7480314960629921,
          "duration": 0.20689650000000004
        },
        {
          "name": "A4",
          "midi": 69,
          "time": 0.827586,
          "velocity": 0.7480314960629921,
          "duration": 0.41379299999999997
        },
        {
          "name": "B3",
          "midi": 59,
          "time": 0.827586,
          "velocity": 0.7480314960629921,
          "duration": 0.41379299999999997
        },
        {
          "name": "C4",
          "midi": 60,
          "time": 0.827586,
          "velocity": 0.7480314960629921,
          "duration": 0.41379299999999997
        },
        {
          "name": "D3",
          "midi": 50,
          "time": 0.827586,
          "velocity": 0.7480314960629921,
          "duration": 0.41379299999999997
        },
        {
          "name": "A4",
          "midi": 69,
          "time": 1.241379,
          "velocity": 0.7480314960629921,
          "duration": 0.20689650000000004
        },
        {
          "name": "B3",
          "midi": 59,
          "time": 1.241379,
          "velocity": 0.7480314960629921,
          "duration": 0.20689650000000004
        },
        {
          "name": "C4",
          "midi": 60,
          "time": 1.241379,
          "velocity": 0.7480314960629921,
          "duration": 0.20689650000000004
        },
        {
          "name": "D3",
          "midi": 50,
          "time": 1.241379,
          "velocity": 0.7480314960629921,
          "duration": 0.20689650000000004
        },
        {
          "name": "A4",
          "midi": 69,
          "time": 1.4482755,
          "velocity": 0.7480314960629921,
          "duration": 0.20689650000000004
        },
        {
          "name": "B3",
          "midi": 59,
          "time": 1.4482755,
          "velocity": 0.7480314960629921,
          "duration": 0.20689650000000004
        },
        {
          "name": "C4",
          "midi": 60,
          "time": 1.4482755,
          "velocity": 0.7480314960629921,
          "duration": 0.20689650000000004
        },
        {
          "name": "D3",
          "midi": 50,
          "time": 1.4482755,
          "velocity": 0.7480314960629921,
          "duration": 0.20689650000000004
        },
        {
          "name": "A4",
          "midi": 69,
          "time": 1.655172,
          "velocity": 0.7480314960629921,
          "duration": 0.20689650000000004
        },
        {
          "name": "B3",
          "midi": 59,
          "time": 1.655172,
          "velocity": 0.7480314960629921,
          "duration": 0.20689650000000004
        },
        {
          "name": "C4",
          "midi": 60,
          "time": 1.655172,
          "velocity": 0.7480314960629921,
          "duration": 0.20689650000000004
        },
        {
          "name": "D3",
          "midi": 50,
          "time": 1.655172,
          "velocity": 0.7480314960629921,
          "duration": 0.20689650000000004
        },
        {
          "name": "A4",
          "midi": 69,
          "time": 1.8620685000000001,
          "velocity": 0.7480314960629921,
          "duration": 0.20689649999999982
        },
        {
          "name": "B3",
          "midi": 59,
          "time": 1.8620685000000001,
          "velocity": 0.7480314960629921,
          "duration": 0.20689649999999982
        },
        {
          "name": "C4",
          "midi": 60,
          "time": 1.8620685000000001,
          "velocity": 0.7480314960629921,
          "duration": 0.20689649999999982
        },
        {
          "name": "D3",
          "midi": 50,
          "time": 1.8620685000000001,
          "velocity": 0.7480314960629921,
          "duration": 0.20689649999999982
        },
        {
          "name": "A4",
          "midi": 69,
          "time": 2.068965,
          "velocity": 0.7480314960629921,
          "duration": 0.4137930000000001
        },
        {
          "name": "B3",
          "midi": 59,
          "time": 2.068965,
          "velocity": 0.7480314960629921,
          "duration": 0.4137930000000001
        },
        {
          "name": "C4",
          "midi": 60,
          "time": 2.068965,
          "velocity": 0.7480314960629921,
          "duration": 0.4137930000000001
        },
        {
          "name": "D3",
          "midi": 50,
          "time": 2.068965,
          "velocity": 0.7480314960629921,
          "duration": 0.4137930000000001
        },
        {
          "name": "A4",
          "midi": 69,
          "time": 2.482758,
          "velocity": 0.7480314960629921,
          "duration": 0.20689650000000004
        },
        {
          "name": "B3",
          "midi": 59,
          "time": 2.482758,
          "velocity": 0.7480314960629921,
          "duration": 0.20689650000000004
        },
        {
          "name": "C4",
          "midi": 60,
          "time": 2.482758,
          "velocity": 0.7480314960629921,
          "duration": 0.20689650000000004
        },
        {
          "name": "D3",
          "midi": 50,
          "time": 2.482758,
          "velocity": 0.7480314960629921,
          "duration": 0.20689650000000004
        },
        {
          "name": "A4",
          "midi": 69,
          "time": 2.6896545,
          "velocity": 0.7480314960629921,
          "duration": 0.20689650000000004
        },
        {
          "name": "B3",
          "midi": 59,
          "time": 2.6896545,
          "velocity": 0.7480314960629921,
          "duration": 0.20689650000000004
        },
        {
          "name": "C4",
          "midi": 60,
          "time": 2.6896545,
          "velocity": 0.7480314960629921,
          "duration": 0.20689650000000004
        },
        {
          "name": "D3",
          "midi": 50,
          "time": 2.6896545,
          "velocity": 0.7480314960629921,
          "duration": 0.20689650000000004
        },
        {
          "name": "A4",
          "midi": 69,
          "time": 2.896551,
          "velocity": 0.7480314960629921,
          "duration": 0.20689650000000004
        },
        {
          "name": "B3",
          "midi": 59,
          "time": 2.896551,
          "velocity": 0.7480314960629921,
          "duration": 0.20689650000000004
        },
        {
          "name": "C4",
          "midi": 60,
          "time": 2.896551,
          "velocity": 0.7480314960629921,
          "duration": 0.20689650000000004
        },
        {
          "name": "D3",
          "midi": 50,
          "time": 2.896551,
          "velocity": 0.7480314960629921,
          "duration": 0.20689650000000004
        },
        {
          "name": "A4",
          "midi": 69,
          "time": 3.310344,
          "velocity": 0.7480314960629921,
          "duration": 0.20689650000000004
        },
        {
          "name": "B3",
          "midi": 59,
          "time": 3.310344,
          "velocity": 0.7480314960629921,
          "duration": 0.20689650000000004
        },
        {
          "name": "D4",
          "midi": 62,
          "time": 3.310344,
          "velocity": 0.7480314960629921,
          "duration": 0.20689650000000004
        },
        {
          "name": "D3",
          "midi": 50,
          "time": 3.310344,
          "velocity": 0.7480314960629921,
          "duration": 0.20689650000000004
        },
        {
          "name": "A4",
          "midi": 69,
          "time": 3.5172405,
          "velocity": 0.7480314960629921,
          "duration": 0.20689650000000004
        },
        {
          "name": "B3",
          "midi": 59,
          "time": 3.5172405,
          "velocity": 0.7480314960629921,
          "duration": 0.20689650000000004
        },
        {
          "name": "C4",
          "midi": 60,
          "time": 3.5172405,
          "velocity": 0.5511811023622047,
          "duration": 0.20689650000000004
        },
        {
          "name": "D3",
          "midi": 50,
          "time": 3.5172405,
          "velocity": 0.7480314960629921,
          "duration": 0.20689650000000004
        },
        {
          "name": "A4",
          "midi": 69,
          "time": 3.7241370000000003,
          "velocity": 0.7480314960629921,
          "duration": 0.20689650000000004
        },
        {
          "name": "B3",
          "midi": 59,
          "time": 3.7241370000000003,
          "velocity": 0.7480314960629921,
          "duration": 0.20689650000000004
        },
        {
          "name": "C4",
          "midi": 60,
          "time": 3.7241370000000003,
          "velocity": 0.7480314960629921,
          "duration": 0.20689650000000004
        },
        {
          "name": "D3",
          "midi": 50,
          "time": 3.7241370000000003,
          "velocity": 0.7480314960629921,
          "duration": 0.20689650000000004
        },
        {
          "name": "A4",
          "midi": 69,
          "time": 3.9310335000000003,
          "velocity": 0.7480314960629921,
          "duration": 0.2068964999999996
        },
        {
          "name": "B3",
          "midi": 59,
          "time": 3.9310335000000003,
          "velocity": 0.7480314960629921,
          "duration": 0.2068964999999996
        },
        {
          "name": "C4",
          "midi": 60,
          "time": 3.9310335000000003,
          "velocity": 0.7480314960629921,
          "duration": 0.2068964999999996
        },
        {
          "name": "D3",
          "midi": 50,
          "time": 3.9310335000000003,
          "velocity": 0.7480314960629921,
          "duration": 0.2068964999999996
        },
        {
          "name": "A4",
          "midi": 69,
          "time": 4.13793,
          "velocity": 0.7480314960629921,
          "duration": 0.4137930000000001
        },
        {
          "name": "B3",
          "midi": 59,
          "time": 4.13793,
          "velocity": 0.7480314960629921,
          "duration": 0.4137930000000001
        },
        {
          "name": "C4",
          "midi": 60,
          "time": 4.13793,
          "velocity": 0.7480314960629921,
          "duration": 0.4137930000000001
        },
        {
          "name": "D3",
          "midi": 50,
          "time": 4.13793,
          "velocity": 0.7480314960629921,
          "duration": 0.4137930000000001
        },
        {
          "name": "A4",
          "midi": 69,
          "time": 4.551723,
          "velocity": 0.7480314960629921,
          "duration": 0.20689650000000004
        },
        {
          "name": "B3",
          "midi": 59,
          "time": 4.551723,
          "velocity": 0.7480314960629921,
          "duration": 0.20689650000000004
        },
        {
          "name": "C4",
          "midi": 60,
          "time": 4.551723,
          "velocity": 0.7480314960629921,
          "duration": 0.20689650000000004
        },
        {
          "name": "D3",
          "midi": 50,
          "time": 4.551723,
          "velocity": 0.7480314960629921,
          "duration": 0.20689650000000004
        },
        {
          "name": "A4",
          "midi": 69,
          "time": 4.7586195,
          "velocity": 0.7480314960629921,
          "duration": 0.20689650000000004
        },
        {
          "name": "B3",
          "midi": 59,
          "time": 4.7586195,
          "velocity": 0.7480314960629921,
          "duration": 0.20689650000000004
        },
        {
          "name": "C4",
          "midi": 60,
          "time": 4.7586195,
          "velocity": 0.7480314960629921,
          "duration": 0.20689650000000004
        },
        {
          "name": "D3",
          "midi": 50,
          "time": 4.7586195,
          "velocity": 0.7480314960629921,
          "duration": 0.20689650000000004
        },
        {
          "name": "A4",
          "midi": 69,
          "time": 4.965516,
          "velocity": 0.7480314960629921,
          "duration": 0.20689650000000004
        },
        {
          "name": "B3",
          "midi": 59,
          "time": 4.965516,
          "velocity": 0.7480314960629921,
          "duration": 0.20689650000000004
        },
        {
          "name": "C4",
          "midi": 60,
          "time": 4.965516,
          "velocity": 0.7480314960629921,
          "duration": 0.20689650000000004
        },
        {
          "name": "D3",
          "midi": 50,
          "time": 4.965516,
          "velocity": 0.7480314960629921,
          "duration": 0.20689650000000004
        },
        {
          "name": "A4",
          "midi": 69,
          "time": 5.1724125,
          "velocity": 0.7480314960629921,
          "duration": 0.20689650000000004
        },
        {
          "name": "B3",
          "midi": 59,
          "time": 5.1724125,
          "velocity": 0.7480314960629921,
          "duration": 0.20689650000000004
        },
        {
          "name": "C4",
          "midi": 60,
          "time": 5.1724125,
          "velocity": 0.7480314960629921,
          "duration": 0.20689650000000004
        },
        {
          "name": "D3",
          "midi": 50,
          "time": 5.1724125,
          "velocity": 0.7480314960629921,
          "duration": 0.20689650000000004
        },
        {
          "name": "A4",
          "midi": 69,
          "time": 5.379309,
          "velocity": 0.7480314960629921,
          "duration": 0.4137930000000001
        },
        {
          "name": "B3",
          "midi": 59,
          "time": 5.379309,
          "velocity": 0.7480314960629921,
          "duration": 0.4137930000000001
        },
        {
          "name": "C4",
          "midi": 60,
          "time": 5.379309,
          "velocity": 0.7480314960629921,
          "duration": 0.4137930000000001
        },
        {
          "name": "D3",
          "midi": 50,
          "time": 5.379309,
          "velocity": 0.7480314960629921,
          "duration": 0.4137930000000001
        },
        {
          "name": "A4",
          "midi": 69,
          "time": 5.793102,
          "velocity": 0.7480314960629921,
          "duration": 0.20689650000000004
        },
        {
          "name": "B3",
          "midi": 59,
          "time": 5.793102,
          "velocity": 0.7480314960629921,
          "duration": 0.20689650000000004
        },
        {
          "name": "C4",
          "midi": 60,
          "time": 5.793102,
          "velocity": 0.7480314960629921,
          "duration": 0.20689650000000004
        },
        {
          "name": "D3",
          "midi": 50,
          "time": 5.793102,
          "velocity": 0.7480314960629921,
          "duration": 0.20689650000000004
        },
        {
          "name": "A4",
          "midi": 69,
          "time": 5.9999985,
          "velocity": 0.7480314960629921,
          "duration": 0.20689650000000004
        },
        {
          "name": "B3",
          "midi": 59,
          "time": 5.9999985,
          "velocity": 0.7480314960629921,
          "duration": 0.20689650000000004
        },
        {
          "name": "C4",
          "midi": 60,
          "time": 5.9999985,
          "velocity": 0.7480314960629921,
          "duration": 0.20689650000000004
        },
        {
          "name": "D3",
          "midi": 50,
          "time": 5.9999985,
          "velocity": 0.7480314960629921,
          "duration": 0.20689650000000004
        },
        {
          "name": "A4",
          "midi": 69,
          "time": 6.206895,
          "velocity": 0.7480314960629921,
          "duration": 0.20689650000000004
        },
        {
          "name": "B3",
          "midi": 59,
          "time": 6.206895,
          "velocity": 0.7480314960629921,
          "duration": 0.20689650000000004
        },
        {
          "name": "C4",
          "midi": 60,
          "time": 6.206895,
          "velocity": 0.7480314960629921,
          "duration": 0.20689650000000004
        },
        {
          "name": "D3",
          "midi": 50,
          "time": 6.206895,
          "velocity": 0.7480314960629921,
          "duration": 0.20689650000000004
        },
        {
          "name": "A4",
          "midi": 69,
          "time": 6.620688,
          "velocity": 0.7480314960629921,
          "duration": 0.20689650000000004
        },
        {
          "name": "B3",
          "midi": 59,
          "time": 6.620688,
          "velocity": 0.7480314960629921,
          "duration": 0.20689650000000004
        },
        {
          "name": "D4",
          "midi": 62,
          "time": 6.620688,
          "velocity": 0.7480314960629921,
          "duration": 0.20689650000000004
        },
        {
          "name": "D3",
          "midi": 50,
          "time": 6.620688,
          "velocity": 0.7480314960629921,
          "duration": 0.20689650000000004
        },
        {
          "name": "A4",
          "midi": 69,
          "time": 6.8275845,
          "velocity": 0.7480314960629921,
          "duration": 0.20689650000000004
        },
        {
          "name": "B3",
          "midi": 59,
          "time": 6.8275845,
          "velocity": 0.7480314960629921,
          "duration": 0.20689650000000004
        },
        {
          "name": "C4",
          "midi": 60,
          "time": 6.8275845,
          "velocity": 0.5511811023622047,
          "duration": 0.20689650000000004
        },
        {
          "name": "D3",
          "midi": 50,
          "time": 6.8275845,
          "velocity": 0.7480314960629921,
          "duration": 0.20689650000000004
        },
        {
          "name": "A4",
          "midi": 69,
          "time": 7.034481,
          "velocity": 0.7480314960629921,
          "duration": 0.20689650000000004
        },
        {
          "name": "B3",
          "midi": 59,
          "time": 7.034481,
          "velocity": 0.7480314960629921,
          "duration": 0.20689650000000004
        },
        {
          "name": "C4",
          "midi": 60,
          "time": 7.034481,
          "velocity": 0.7480314960629921,
          "duration": 0.20689650000000004
        },
        {
          "name": "D3",
          "midi": 50,
          "time": 7.034481,
          "velocity": 0.7480314960629921,
          "duration": 0.20689650000000004
        },
        {
          "name": "A4",
          "midi": 69,
          "time": 7.2413775000000005,
          "velocity": 0.7480314960629921,
          "duration": 0.20689650000000004
        },
        {
          "name": "B3",
          "midi": 59,
          "time": 7.2413775000000005,
          "velocity": 0.7480314960629921,
          "duration": 0.20689650000000004
        },
        {
          "name": "C4",
          "midi": 60,
          "time": 7.2413775000000005,
          "velocity": 0.7480314960629921,
          "duration": 0.20689650000000004
        },
        {
          "name": "D3",
          "midi": 50,
          "time": 7.2413775000000005,
          "velocity": 0.7480314960629921,
          "duration": 0.20689650000000004
        },
        {
          "name": "A4",
          "midi": 69,
          "time": 7.4482740000000005,
          "velocity": 0.7480314960629921,
          "duration": 0.4137930000000001
        },
        {
          "name": "B3",
          "midi": 59,
          "time": 7.4482740000000005,
          "velocity": 0.7480314960629921,
          "duration": 0.4137930000000001
        },
        {
          "name": "C4",
          "midi": 60,
          "time": 7.4482740000000005,
          "velocity": 0.7480314960629921,
          "duration": 0.4137930000000001
        },
        {
          "name": "D3",
          "midi": 50,
          "time": 7.4482740000000005,
          "velocity": 0.7480314960629921,
          "duration": 0.4137930000000001
        },
        {
          "name": "A4",
          "midi": 69,
          "time": 7.862067000000001,
          "velocity": 0.7480314960629921,
          "duration": 0.20689650000000004
        },
        {
          "name": "B3",
          "midi": 59,
          "time": 7.862067000000001,
          "velocity": 0.7480314960629921,
          "duration": 0.20689650000000004
        },
        {
          "name": "C4",
          "midi": 60,
          "time": 7.862067000000001,
          "velocity": 0.7480314960629921,
          "duration": 0.20689650000000004
        },
        {
          "name": "D3",
          "midi": 50,
          "time": 7.862067000000001,
          "velocity": 0.7480314960629921,
          "duration": 0.20689650000000004
        },
        {
          "name": "A4",
          "midi": 69,
          "time": 8.0689635,
          "velocity": 0.7480314960629921,
          "duration": 0.20689649999999915
        },
        {
          "name": "B3",
          "midi": 59,
          "time": 8.0689635,
          "velocity": 0.7480314960629921,
          "duration": 0.20689649999999915
        },
        {
          "name": "C4",
          "midi": 60,
          "time": 8.0689635,
          "velocity": 0.7480314960629921,
          "duration": 0.20689649999999915
        },
        {
          "name": "D3",
          "midi": 50,
          "time": 8.0689635,
          "velocity": 0.7480314960629921,
          "duration": 0.20689649999999915
        },
        {
          "name": "A4",
          "midi": 69,
          "time": 8.27586,
          "velocity": 0.7480314960629921,
          "duration": 0.20689649999999915
        },
        {
          "name": "B3",
          "midi": 59,
          "time": 8.27586,
          "velocity": 0.7480314960629921,
          "duration": 0.20689649999999915
        },
        {
          "name": "C4",
          "midi": 60,
          "time": 8.27586,
          "velocity": 0.7480314960629921,
          "duration": 0.20689649999999915
        },
        {
          "name": "D3",
          "midi": 50,
          "time": 8.27586,
          "velocity": 0.7480314960629921,
          "duration": 0.20689649999999915
        },
        {
          "name": "A4",
          "midi": 69,
          "time": 8.482756499999999,
          "velocity": 0.7480314960629921,
          "duration": 0.20689649999999915
        },
        {
          "name": "B3",
          "midi": 59,
          "time": 8.482756499999999,
          "velocity": 0.7480314960629921,
          "duration": 0.20689649999999915
        },
        {
          "name": "C4",
          "midi": 60,
          "time": 8.482756499999999,
          "velocity": 0.7480314960629921,
          "duration": 0.20689649999999915
        },
        {
          "name": "D3",
          "midi": 50,
          "time": 8.482756499999999,
          "velocity": 0.7480314960629921,
          "duration": 0.20689649999999915
        },
        {
          "name": "A4",
          "midi": 69,
          "time": 8.689652999999998,
          "velocity": 0.7480314960629921,
          "duration": 0.4137930000000001
        },
        {
          "name": "B3",
          "midi": 59,
          "time": 8.689652999999998,
          "velocity": 0.7480314960629921,
          "duration": 0.4137930000000001
        },
        {
          "name": "C4",
          "midi": 60,
          "time": 8.689652999999998,
          "velocity": 0.7480314960629921,
          "duration": 0.4137930000000001
        },
        {
          "name": "D3",
          "midi": 50,
          "time": 8.689652999999998,
          "velocity": 0.7480314960629921,
          "duration": 0.4137930000000001
        },
        {
          "name": "A4",
          "midi": 69,
          "time": 9.103445999999998,
          "velocity": 0.7480314960629921,
          "duration": 0.20689649999999915
        },
        {
          "name": "B3",
          "midi": 59,
          "time": 9.103445999999998,
          "velocity": 0.7480314960629921,
          "duration": 0.20689649999999915
        },
        {
          "name": "C4",
          "midi": 60,
          "time": 9.103445999999998,
          "velocity": 0.7480314960629921,
          "duration": 0.20689649999999915
        },
        {
          "name": "D3",
          "midi": 50,
          "time": 9.103445999999998,
          "velocity": 0.7480314960629921,
          "duration": 0.20689649999999915
        },
        {
          "name": "A4",
          "midi": 69,
          "time": 9.310342499999997,
          "velocity": 0.7480314960629921,
          "duration": 0.20689649999999915
        },
        {
          "name": "B3",
          "midi": 59,
          "time": 9.310342499999997,
          "velocity": 0.7480314960629921,
          "duration": 0.20689649999999915
        },
        {
          "name": "C4",
          "midi": 60,
          "time": 9.310342499999997,
          "velocity": 0.7480314960629921,
          "duration": 0.20689649999999915
        },
        {
          "name": "D3",
          "midi": 50,
          "time": 9.310342499999997,
          "velocity": 0.7480314960629921,
          "duration": 0.20689649999999915
        },
        {
          "name": "A4",
          "midi": 69,
          "time": 9.517238999999996,
          "velocity": 0.7480314960629921,
          "duration": 0.20689649999999915
        },
        {
          "name": "B3",
          "midi": 59,
          "time": 9.517238999999996,
          "velocity": 0.7480314960629921,
          "duration": 0.20689649999999915
        },
        {
          "name": "C4",
          "midi": 60,
          "time": 9.517238999999996,
          "velocity": 0.7480314960629921,
          "duration": 0.20689649999999915
        },
        {
          "name": "D3",
          "midi": 50,
          "time": 9.517238999999996,
          "velocity": 0.7480314960629921,
          "duration": 0.20689649999999915
        },
        {
          "name": "A4",
          "midi": 69,
          "time": 9.931031999999995,
          "velocity": 0.7480314960629921,
          "duration": 0.20689649999999915
        },
        {
          "name": "B3",
          "midi": 59,
          "time": 9.931031999999995,
          "velocity": 0.7480314960629921,
          "duration": 0.20689649999999915
        },
        {
          "name": "D4",
          "midi": 62,
          "time": 9.931031999999995,
          "velocity": 0.7480314960629921,
          "duration": 0.20689649999999915
        },
        {
          "name": "D3",
          "midi": 50,
          "time": 9.931031999999995,
          "velocity": 0.7480314960629921,
          "duration": 0.20689649999999915
        },
        {
          "name": "A4",
          "midi": 69,
          "time": 10.137928499999994,
          "velocity": 0.7480314960629921,
          "duration": 0.20689649999999915
        },
        {
          "name": "B3",
          "midi": 59,
          "time": 10.137928499999994,
          "velocity": 0.7480314960629921,
          "duration": 0.20689649999999915
        },
        {
          "name": "C4",
          "midi": 60,
          "time": 10.137928499999994,
          "velocity": 0.5511811023622047,
          "duration": 0.20689649999999915
        },
        {
          "name": "D3",
          "midi": 50,
          "time": 10.137928499999994,
          "velocity": 0.7480314960629921,
          "duration": 0.20689649999999915
        },
        {
          "name": "A4",
          "midi": 69,
          "time": 10.344824999999993,
          "velocity": 0.7480314960629921,
          "duration": 0.20689649999999915
        },
        {
          "name": "B3",
          "midi": 59,
          "time": 10.344824999999993,
          "velocity": 0.7480314960629921,
          "duration": 0.20689649999999915
        },
        {
          "name": "C4",
          "midi": 60,
          "time": 10.344824999999993,
          "velocity": 0.7480314960629921,
          "duration": 0.20689649999999915
        },
        {
          "name": "D3",
          "midi": 50,
          "time": 10.344824999999993,
          "velocity": 0.7480314960629921,
          "duration": 0.20689649999999915
        },
        {
          "name": "A4",
          "midi": 69,
          "time": 10.551721499999992,
          "velocity": 0.7480314960629921,
          "duration": 0.20689649999999915
        },
        {
          "name": "B3",
          "midi": 59,
          "time": 10.551721499999992,
          "velocity": 0.7480314960629921,
          "duration": 0.20689649999999915
        },
        {
          "name": "C4",
          "midi": 60,
          "time": 10.551721499999992,
          "velocity": 0.7480314960629921,
          "duration": 0.20689649999999915
        },
        {
          "name": "D3",
          "midi": 50,
          "time": 10.551721499999992,
          "velocity": 0.7480314960629921,
          "duration": 0.20689649999999915
        },
        {
          "name": "A4",
          "midi": 69,
          "time": 10.758617999999991,
          "velocity": 0.7480314960629921,
          "duration": 0.4137930000000001
        },
        {
          "name": "B3",
          "midi": 59,
          "time": 10.758617999999991,
          "velocity": 0.7480314960629921,
          "duration": 0.4137930000000001
        },
        {
          "name": "C4",
          "midi": 60,
          "time": 10.758617999999991,
          "velocity": 0.7480314960629921,
          "duration": 0.4137930000000001
        },
        {
          "name": "D3",
          "midi": 50,
          "time": 10.758617999999991,
          "velocity": 0.7480314960629921,
          "duration": 0.4137930000000001
        },
        {
          "name": "A4",
          "midi": 69,
          "time": 11.172410999999991,
          "velocity": 0.7480314960629921,
          "duration": 0.20689649999999915
        },
        {
          "name": "B3",
          "midi": 59,
          "time": 11.172410999999991,
          "velocity": 0.7480314960629921,
          "duration": 0.20689649999999915
        },
        {
          "name": "C4",
          "midi": 60,
          "time": 11.172410999999991,
          "velocity": 0.7480314960629921,
          "duration": 0.20689649999999915
        },
        {
          "name": "D3",
          "midi": 50,
          "time": 11.172410999999991,
          "velocity": 0.7480314960629921,
          "duration": 0.20689649999999915
        },
        {
          "name": "A4",
          "midi": 69,
          "time": 11.37930749999999,
          "velocity": 0.7480314960629921,
          "duration": 0.20689649999999915
        },
        {
          "name": "B3",
          "midi": 59,
          "time": 11.37930749999999,
          "velocity": 0.7480314960629921,
          "duration": 0.20689649999999915
        },
        {
          "name": "C4",
          "midi": 60,
          "time": 11.37930749999999,
          "velocity": 0.7480314960629921,
          "duration": 0.20689649999999915
        },
        {
          "name": "D3",
          "midi": 50,
          "time": 11.37930749999999,
          "velocity": 0.7480314960629921,
          "duration": 0.20689649999999915
        },
        {
          "name": "A4",
          "midi": 69,
          "time": 11.58620399999999,
          "velocity": 0.7480314960629921,
          "duration": 0.20689649999999915
        },
        {
          "name": "B3",
          "midi": 59,
          "time": 11.58620399999999,
          "velocity": 0.7480314960629921,
          "duration": 0.20689649999999915
        },
        {
          "name": "C4",
          "midi": 60,
          "time": 11.58620399999999,
          "velocity": 0.7480314960629921,
          "duration": 0.20689649999999915
        },
        {
          "name": "D3",
          "midi": 50,
          "time": 11.58620399999999,
          "velocity": 0.7480314960629921,
          "duration": 0.20689649999999915
        },
        {
          "name": "A4",
          "midi": 69,
          "time": 11.793100499999989,
          "velocity": 0.7480314960629921,
          "duration": 0.20689649999999915
        },
        {
          "name": "B3",
          "midi": 59,
          "time": 11.793100499999989,
          "velocity": 0.7480314960629921,
          "duration": 0.20689649999999915
        },
        {
          "name": "C4",
          "midi": 60,
          "time": 11.793100499999989,
          "velocity": 0.7480314960629921,
          "duration": 0.20689649999999915
        },
        {
          "name": "D3",
          "midi": 50,
          "time": 11.793100499999989,
          "velocity": 0.7480314960629921,
          "duration": 0.20689649999999915
        },
        {
          "name": "A4",
          "midi": 69,
          "time": 11.999996999999988,
          "velocity": 0.7480314960629921,
          "duration": 0.4137930000000001
        },
        {
          "name": "B3",
          "midi": 59,
          "time": 11.999996999999988,
          "velocity": 0.7480314960629921,
          "duration": 0.4137930000000001
        },
        {
          "name": "C4",
          "midi": 60,
          "time": 11.999996999999988,
          "velocity": 0.7480314960629921,
          "duration": 0.4137930000000001
        },
        {
          "name": "D3",
          "midi": 50,
          "time": 11.999996999999988,
          "velocity": 0.7480314960629921,
          "duration": 0.4137930000000001
        },
        {
          "name": "A4",
          "midi": 69,
          "time": 12.413789999999988,
          "velocity": 0.7480314960629921,
          "duration": 0.20689649999999915
        },
        {
          "name": "B3",
          "midi": 59,
          "time": 12.413789999999988,
          "velocity": 0.7480314960629921,
          "duration": 0.20689649999999915
        },
        {
          "name": "C4",
          "midi": 60,
          "time": 12.413789999999988,
          "velocity": 0.7480314960629921,
          "duration": 0.20689649999999915
        },
        {
          "name": "D3",
          "midi": 50,
          "time": 12.413789999999988,
          "velocity": 0.7480314960629921,
          "duration": 0.20689649999999915
        },
        {
          "name": "A4",
          "midi": 69,
          "time": 12.620686499999987,
          "velocity": 0.7480314960629921,
          "duration": 0.20689649999999915
        },
        {
          "name": "B3",
          "midi": 59,
          "time": 12.620686499999987,
          "velocity": 0.7480314960629921,
          "duration": 0.20689649999999915
        },
        {
          "name": "C4",
          "midi": 60,
          "time": 12.620686499999987,
          "velocity": 0.7480314960629921,
          "duration": 0.20689649999999915
        },
        {
          "name": "D3",
          "midi": 50,
          "time": 12.620686499999987,
          "velocity": 0.7480314960629921,
          "duration": 0.20689649999999915
        },
        {
          "name": "A4",
          "midi": 69,
          "time": 12.827582999999986,
          "velocity": 0.7480314960629921,
          "duration": 0.20689649999999915
        },
        {
          "name": "B3",
          "midi": 59,
          "time": 12.827582999999986,
          "velocity": 0.7480314960629921,
          "duration": 0.20689649999999915
        },
        {
          "name": "C4",
          "midi": 60,
          "time": 12.827582999999986,
          "velocity": 0.7480314960629921,
          "duration": 0.20689649999999915
        },
        {
          "name": "D3",
          "midi": 50,
          "time": 12.827582999999986,
          "velocity": 0.7480314960629921,
          "duration": 0.20689649999999915
        },
        {
          "name": "D4",
          "midi": 62,
          "time": 13.241375999999985,
          "velocity": 0.7480314960629921,
          "duration": 0.20689649999999915
        },
        {
          "name": "A3",
          "midi": 57,
          "time": 13.241375999999985,
          "velocity": 0.7480314960629921,
          "duration": 0.20689649999999915
        },
        {
          "name": "D3",
          "midi": 50,
          "time": 13.241375999999985,
          "velocity": 0.7480314960629921,
          "duration": 0.20689649999999915
        },
        {
          "name": "D4",
          "midi": 62,
          "time": 13.448272499999984,
          "velocity": 0.7480314960629921,
          "duration": 0.20689649999999915
        },
        {
          "name": "A3",
          "midi": 57,
          "time": 13.448272499999984,
          "velocity": 0.7480314960629921,
          "duration": 0.20689649999999915
        },
        {
          "name": "D3",
          "midi": 50,
          "time": 13.448272499999984,
          "velocity": 0.7480314960629921,
          "duration": 0.20689649999999915
        },
        {
          "name": "D4",
          "midi": 62,
          "time": 13.655168999999983,
          "velocity": 0.7480314960629921,
          "duration": 0.20689649999999915
        },
        {
          "name": "A3",
          "midi": 57,
          "time": 13.655168999999983,
          "velocity": 0.7480314960629921,
          "duration": 0.20689649999999915
        },
        {
          "name": "D3",
          "midi": 50,
          "time": 13.655168999999983,
          "velocity": 0.7480314960629921,
          "duration": 0.20689649999999915
        },
        {
          "name": "D4",
          "midi": 62,
          "time": 13.862065499999982,
          "velocity": 0.7480314960629921,
          "duration": 0.20689649999999915
        },
        {
          "name": "A3",
          "midi": 57,
          "time": 13.862065499999982,
          "velocity": 0.7480314960629921,
          "duration": 0.20689649999999915
        },
        {
          "name": "D3",
          "midi": 50,
          "time": 13.862065499999982,
          "velocity": 0.7480314960629921,
          "duration": 0.20689649999999915
        },
        {
          "name": "D4",
          "midi": 62,
          "time": 14.068961999999981,
          "velocity": 0.7480314960629921,
          "duration": 0.20689649999999915
        },
        {
          "name": "A3",
          "midi": 57,
          "time": 14.068961999999981,
          "velocity": 0.7480314960629921,
          "duration": 0.20689649999999915
        },
        {
          "name": "D3",
          "midi": 50,
          "time": 14.068961999999981,
          "velocity": 0.7480314960629921,
          "duration": 0.20689649999999915
        },
        {
          "name": "D4",
          "midi": 62,
          "time": 14.27585849999998,
          "velocity": 0.7480314960629921,
          "duration": 0.20689649999999915
        },
        {
          "name": "A3",
          "midi": 57,
          "time": 14.27585849999998,
          "velocity": 0.7480314960629921,
          "duration": 0.20689649999999915
        },
        {
          "name": "D3",
          "midi": 50,
          "time": 14.27585849999998,
          "velocity": 0.7480314960629921,
          "duration": 0.20689649999999915
        },
        {
          "name": "D4",
          "midi": 62,
          "time": 14.48275499999998,
          "velocity": 0.7480314960629921,
          "duration": 0.20689649999999915
        },
        {
          "name": "A3",
          "midi": 57,
          "time": 14.48275499999998,
          "velocity": 0.7480314960629921,
          "duration": 0.20689649999999915
        },
        {
          "name": "D3",
          "midi": 50,
          "time": 14.48275499999998,
          "velocity": 0.7480314960629921,
          "duration": 0.20689649999999915
        },
        {
          "name": "D4",
          "midi": 62,
          "time": 14.689651499999979,
          "velocity": 0.7480314960629921,
          "duration": 0.20689649999999915
        },
        {
          "name": "A3",
          "midi": 57,
          "time": 14.689651499999979,
          "velocity": 0.7480314960629921,
          "duration": 0.20689649999999915
        },
        {
          "name": "D3",
          "midi": 50,
          "time": 14.689651499999979,
          "velocity": 0.7480314960629921,
          "duration": 0.20689649999999915
        },
        {
          "name": "D4",
          "midi": 62,
          "time": 14.896547999999978,
          "velocity": 0.7480314960629921,
          "duration": 0.20689649999999915
        },
        {
          "name": "A3",
          "midi": 57,
          "time": 14.896547999999978,
          "velocity": 0.7480314960629921,
          "duration": 0.20689649999999915
        },
        {
          "name": "D3",
          "midi": 50,
          "time": 14.896547999999978,
          "velocity": 0.7480314960629921,
          "duration": 0.20689649999999915
        },
        {
          "name": "D4",
          "midi": 62,
          "time": 15.103444499999977,
          "velocity": 0.7480314960629921,
          "duration": 0.20689649999999915
        },
        {
          "name": "A3",
          "midi": 57,
          "time": 15.103444499999977,
          "velocity": 0.7480314960629921,
          "duration": 0.20689649999999915
        },
        {
          "name": "D3",
          "midi": 50,
          "time": 15.103444499999977,
          "velocity": 0.7480314960629921,
          "duration": 0.20689649999999915
        },
        {
          "name": "D4",
          "midi": 62,
          "time": 15.310340999999976,
          "velocity": 0.7480314960629921,
          "duration": 0.20689649999999915
        },
        {
          "name": "A3",
          "midi": 57,
          "time": 15.310340999999976,
          "velocity": 0.7480314960629921,
          "duration": 0.20689649999999915
        },
        {
          "name": "D3",
          "midi": 50,
          "time": 15.310340999999976,
          "velocity": 0.7480314960629921,
          "duration": 0.20689649999999915
        },
        {
          "name": "D4",
          "midi": 62,
          "time": 15.517237499999975,
          "velocity": 0.7480314960629921,
          "duration": 0.20689649999999915
        },
        {
          "name": "A3",
          "midi": 57,
          "time": 15.517237499999975,
          "velocity": 0.7480314960629921,
          "duration": 0.20689649999999915
        },
        {
          "name": "D3",
          "midi": 50,
          "time": 15.517237499999975,
          "velocity": 0.7480314960629921,
          "duration": 0.20689649999999915
        },
        {
          "name": "D4",
          "midi": 62,
          "time": 15.724133999999975,
          "velocity": 0.7480314960629921,
          "duration": 0.20689649999999915
        },
        {
          "name": "A3",
          "midi": 57,
          "time": 15.724133999999975,
          "velocity": 0.7480314960629921,
          "duration": 0.20689649999999915
        },
        {
          "name": "D3",
          "midi": 50,
          "time": 15.724133999999975,
          "velocity": 0.7480314960629921,
          "duration": 0.20689649999999915
        },
        {
          "name": "D4",
          "midi": 62,
          "time": 15.931030499999974,
          "velocity": 0.7480314960629921,
          "duration": 0.20689649999999915
        },
        {
          "name": "A3",
          "midi": 57,
          "time": 15.931030499999974,
          "velocity": 0.7480314960629921,
          "duration": 0.20689649999999915
        },
        {
          "name": "D3",
          "midi": 50,
          "time": 15.931030499999974,
          "velocity": 0.7480314960629921,
          "duration": 0.20689649999999915
        },
        {
          "name": "C4",
          "midi": 60,
          "time": 16.137926999999973,
          "velocity": 0.7480314960629921,
          "duration": 0.20689649999999915
        },
        {
          "name": "G3",
          "midi": 55,
          "time": 16.137926999999973,
          "velocity": 0.7480314960629921,
          "duration": 0.20689649999999915
        },
        {
          "name": "C3",
          "midi": 48,
          "time": 16.137926999999973,
          "velocity": 0.7480314960629921,
          "duration": 0.20689649999999915
        },
        {
          "name": "C4",
          "midi": 60,
          "time": 16.344823499999972,
          "velocity": 0.7480314960629921,
          "duration": 0.20689649999999915
        },
        {
          "name": "G3",
          "midi": 55,
          "time": 16.344823499999972,
          "velocity": 0.7480314960629921,
          "duration": 0.20689649999999915
        },
        {
          "name": "C3",
          "midi": 48,
          "time": 16.344823499999972,
          "velocity": 0.7480314960629921,
          "duration": 0.20689649999999915
        },
        {
          "name": "C4",
          "midi": 60,
          "time": 16.55171999999997,
          "velocity": 0.7480314960629921,
          "duration": 0.20689649999999915
        },
        {
          "name": "G3",
          "midi": 55,
          "time": 16.55171999999997,
          "velocity": 0.7480314960629921,
          "duration": 0.20689649999999915
        },
        {
          "name": "C3",
          "midi": 48,
          "time": 16.55171999999997,
          "velocity": 0.7480314960629921,
          "duration": 0.20689649999999915
        },
        {
          "name": "C4",
          "midi": 60,
          "time": 16.75861649999997,
          "velocity": 0.7480314960629921,
          "duration": 0.20689649999999915
        },
        {
          "name": "G3",
          "midi": 55,
          "time": 16.75861649999997,
          "velocity": 0.7480314960629921,
          "duration": 0.20689649999999915
        },
        {
          "name": "C3",
          "midi": 48,
          "time": 16.75861649999997,
          "velocity": 0.7480314960629921,
          "duration": 0.20689649999999915
        },
        {
          "name": "C4",
          "midi": 60,
          "time": 16.96551299999997,
          "velocity": 0.7480314960629921,
          "duration": 0.20689649999999915
        },
        {
          "name": "G3",
          "midi": 55,
          "time": 16.96551299999997,
          "velocity": 0.7480314960629921,
          "duration": 0.20689649999999915
        },
        {
          "name": "C3",
          "midi": 48,
          "time": 16.96551299999997,
          "velocity": 0.7480314960629921,
          "duration": 0.20689649999999915
        },
        {
          "name": "C4",
          "midi": 60,
          "time": 17.17240949999997,
          "velocity": 0.7480314960629921,
          "duration": 0.20689649999999915
        },
        {
          "name": "G3",
          "midi": 55,
          "time": 17.17240949999997,
          "velocity": 0.7480314960629921,
          "duration": 0.20689649999999915
        },
        {
          "name": "C3",
          "midi": 48,
          "time": 17.17240949999997,
          "velocity": 0.7480314960629921,
          "duration": 0.20689649999999915
        },
        {
          "name": "C4",
          "midi": 60,
          "time": 17.379305999999968,
          "velocity": 0.7480314960629921,
          "duration": 0.20689649999999915
        },
        {
          "name": "G3",
          "midi": 55,
          "time": 17.379305999999968,
          "velocity": 0.7480314960629921,
          "duration": 0.20689649999999915
        },
        {
          "name": "C3",
          "midi": 48,
          "time": 17.379305999999968,
          "velocity": 0.7480314960629921,
          "duration": 0.20689649999999915
        },
        {
          "name": "C4",
          "midi": 60,
          "time": 17.586202499999967,
          "velocity": 0.7480314960629921,
          "duration": 0.20689649999999915
        },
        {
          "name": "G3",
          "midi": 55,
          "time": 17.586202499999967,
          "velocity": 0.7480314960629921,
          "duration": 0.20689649999999915
        },
        {
          "name": "C3",
          "midi": 48,
          "time": 17.586202499999967,
          "velocity": 0.7480314960629921,
          "duration": 0.20689649999999915
        },
        {
          "name": "C4",
          "midi": 60,
          "time": 17.793098999999966,
          "velocity": 0.7480314960629921,
          "duration": 0.20689649999999915
        },
        {
          "name": "G3",
          "midi": 55,
          "time": 17.793098999999966,
          "velocity": 0.7480314960629921,
          "duration": 0.20689649999999915
        },
        {
          "name": "C3",
          "midi": 48,
          "time": 17.793098999999966,
          "velocity": 0.7480314960629921,
          "duration": 0.20689649999999915
        },
        {
          "name": "C4",
          "midi": 60,
          "time": 17.999995499999965,
          "velocity": 0.7480314960629921,
          "duration": 0.20689649999999915
        },
        {
          "name": "G3",
          "midi": 55,
          "time": 17.999995499999965,
          "velocity": 0.7480314960629921,
          "duration": 0.20689649999999915
        },
        {
          "name": "C3",
          "midi": 48,
          "time": 17.999995499999965,
          "velocity": 0.7480314960629921,
          "duration": 0.20689649999999915
        },
        {
          "name": "C4",
          "midi": 60,
          "time": 18.206891999999964,
          "velocity": 0.7480314960629921,
          "duration": 0.20689649999999915
        },
        {
          "name": "G3",
          "midi": 55,
          "time": 18.206891999999964,
          "velocity": 0.7480314960629921,
          "duration": 0.20689649999999915
        },
        {
          "name": "C3",
          "midi": 48,
          "time": 18.206891999999964,
          "velocity": 0.7480314960629921,
          "duration": 0.20689649999999915
        },
        {
          "name": "C4",
          "midi": 60,
          "time": 18.413788499999963,
          "velocity": 0.7480314960629921,
          "duration": 0.20689649999999915
        },
        {
          "name": "G3",
          "midi": 55,
          "time": 18.413788499999963,
          "velocity": 0.7480314960629921,
          "duration": 0.20689649999999915
        },
        {
          "name": "C3",
          "midi": 48,
          "time": 18.413788499999963,
          "velocity": 0.7480314960629921,
          "duration": 0.20689649999999915
        },
        {
          "name": "C4",
          "midi": 60,
          "time": 18.620684999999963,
          "velocity": 0.7480314960629921,
          "duration": 0.20689649999999915
        },
        {
          "name": "G3",
          "midi": 55,
          "time": 18.620684999999963,
          "velocity": 0.7480314960629921,
          "duration": 0.20689649999999915
        },
        {
          "name": "C3",
          "midi": 48,
          "time": 18.620684999999963,
          "velocity": 0.7480314960629921,
          "duration": 0.20689649999999915
        },
        {
          "name": "C4",
          "midi": 60,
          "time": 18.827581499999962,
          "velocity": 0.7480314960629921,
          "duration": 0.20689649999999915
        },
        {
          "name": "G3",
          "midi": 55,
          "time": 18.827581499999962,
          "velocity": 0.7480314960629921,
          "duration": 0.20689649999999915
        },
        {
          "name": "C3",
          "midi": 48,
          "time": 18.827581499999962,
          "velocity": 0.7480314960629921,
          "duration": 0.20689649999999915
        },
        {
          "name": "B3",
          "midi": 59,
          "time": 19.03447799999996,
          "velocity": 0.7480314960629921,
          "duration": 0.20689649999999915
        },
        {
          "name": "F#3",
          "midi": 54,
          "time": 19.03447799999996,
          "velocity": 0.7480314960629921,
          "duration": 0.20689649999999915
        },
        {
          "name": "B2",
          "midi": 47,
          "time": 19.03447799999996,
          "velocity": 0.7480314960629921,
          "duration": 0.20689649999999915
        },
        {
          "name": "B3",
          "midi": 59,
          "time": 19.24137449999996,
          "velocity": 0.7480314960629921,
          "duration": 0.20689649999999915
        },
        {
          "name": "F#3",
          "midi": 54,
          "time": 19.24137449999996,
          "velocity": 0.7480314960629921,
          "duration": 0.20689649999999915
        },
        {
          "name": "B2",
          "midi": 47,
          "time": 19.24137449999996,
          "velocity": 0.7480314960629921,
          "duration": 0.20689649999999915
        },
        {
          "name": "B3",
          "midi": 59,
          "time": 19.44827099999996,
          "velocity": 0.7480314960629921,
          "duration": 0.20689649999999915
        },
        {
          "name": "F#3",
          "midi": 54,
          "time": 19.44827099999996,
          "velocity": 0.7480314960629921,
          "duration": 0.20689649999999915
        },
        {
          "name": "B2",
          "midi": 47,
          "time": 19.44827099999996,
          "velocity": 0.7480314960629921,
          "duration": 0.20689649999999915
        },
        {
          "name": "B3",
          "midi": 59,
          "time": 19.65516749999996,
          "velocity": 0.7480314960629921,
          "duration": 0.20689649999999915
        },
        {
          "name": "F#3",
          "midi": 54,
          "time": 19.65516749999996,
          "velocity": 0.7480314960629921,
          "duration": 0.20689649999999915
        },
        {
          "name": "B2",
          "midi": 47,
          "time": 19.65516749999996,
          "velocity": 0.7480314960629921,
          "duration": 0.20689649999999915
        },
        {
          "name": "B3",
          "midi": 59,
          "time": 19.862063999999958,
          "velocity": 0.7480314960629921,
          "duration": 0.20689649999999915
        },
        {
          "name": "F#3",
          "midi": 54,
          "time": 19.862063999999958,
          "velocity": 0.7480314960629921,
          "duration": 0.20689649999999915
        },
        {
          "name": "B2",
          "midi": 47,
          "time": 19.862063999999958,
          "velocity": 0.7480314960629921,
          "duration": 0.20689649999999915
        },
        {
          "name": "B3",
          "midi": 59,
          "time": 20.068960499999957,
          "velocity": 0.7480314960629921,
          "duration": 0.20689649999999915
        },
        {
          "name": "F#3",
          "midi": 54,
          "time": 20.068960499999957,
          "velocity": 0.7480314960629921,
          "duration": 0.20689649999999915
        },
        {
          "name": "B2",
          "midi": 47,
          "time": 20.068960499999957,
          "velocity": 0.7480314960629921,
          "duration": 0.20689649999999915
        },
        {
          "name": "B3",
          "midi": 59,
          "time": 20.275856999999956,
          "velocity": 0.7480314960629921,
          "duration": 0.20689649999999915
        },
        {
          "name": "F#3",
          "midi": 54,
          "time": 20.275856999999956,
          "velocity": 0.7480314960629921,
          "duration": 0.20689649999999915
        },
        {
          "name": "B2",
          "midi": 47,
          "time": 20.275856999999956,
          "velocity": 0.7480314960629921,
          "duration": 0.20689649999999915
        },
        {
          "name": "B3",
          "midi": 59,
          "time": 20.482753499999955,
          "velocity": 0.7480314960629921,
          "duration": 0.20689649999999915
        },
        {
          "name": "F#3",
          "midi": 54,
          "time": 20.482753499999955,
          "velocity": 0.7480314960629921,
          "duration": 0.20689649999999915
        },
        {
          "name": "B2",
          "midi": 47,
          "time": 20.482753499999955,
          "velocity": 0.7480314960629921,
          "duration": 0.20689649999999915
        },
        {
          "name": "B3",
          "midi": 59,
          "time": 20.689649999999954,
          "velocity": 0.7480314960629921,
          "duration": 0.20689649999999915
        },
        {
          "name": "F#3",
          "midi": 54,
          "time": 20.689649999999954,
          "velocity": 0.7480314960629921,
          "duration": 0.20689649999999915
        },
        {
          "name": "B2",
          "midi": 47,
          "time": 20.689649999999954,
          "velocity": 0.7480314960629921,
          "duration": 0.20689649999999915
        },
        {
          "name": "B3",
          "midi": 59,
          "time": 20.896546499999953,
          "velocity": 0.7480314960629921,
          "duration": 0.20689649999999915
        },
        {
          "name": "F#3",
          "midi": 54,
          "time": 20.896546499999953,
          "velocity": 0.7480314960629921,
          "duration": 0.20689649999999915
        },
        {
          "name": "B2",
          "midi": 47,
          "time": 20.896546499999953,
          "velocity": 0.7480314960629921,
          "duration": 0.20689649999999915
        },
        {
          "name": "B3",
          "midi": 59,
          "time": 21.103442999999952,
          "velocity": 0.7480314960629921,
          "duration": 0.20689649999999915
        },
        {
          "name": "F#3",
          "midi": 54,
          "time": 21.103442999999952,
          "velocity": 0.7480314960629921,
          "duration": 0.20689649999999915
        },
        {
          "name": "B2",
          "midi": 47,
          "time": 21.103442999999952,
          "velocity": 0.7480314960629921,
          "duration": 0.20689649999999915
        },
        {
          "name": "B3",
          "midi": 59,
          "time": 21.31033949999995,
          "velocity": 0.7480314960629921,
          "duration": 0.20689649999999915
        },
        {
          "name": "F#3",
          "midi": 54,
          "time": 21.31033949999995,
          "velocity": 0.7480314960629921,
          "duration": 0.20689649999999915
        },
        {
          "name": "B2",
          "midi": 47,
          "time": 21.31033949999995,
          "velocity": 0.7480314960629921,
          "duration": 0.20689649999999915
        },
        {
          "name": "B3",
          "midi": 59,
          "time": 21.51723599999995,
          "velocity": 0.7480314960629921,
          "duration": 0.20689649999999915
        },
        {
          "name": "F#3",
          "midi": 54,
          "time": 21.51723599999995,
          "velocity": 0.7480314960629921,
          "duration": 0.20689649999999915
        },
        {
          "name": "B2",
          "midi": 47,
          "time": 21.51723599999995,
          "velocity": 0.7480314960629921,
          "duration": 0.20689649999999915
        },
        {
          "name": "B3",
          "midi": 59,
          "time": 21.72413249999995,
          "velocity": 0.7480314960629921,
          "duration": 0.20689649999999915
        },
        {
          "name": "F#3",
          "midi": 54,
          "time": 21.72413249999995,
          "velocity": 0.7480314960629921,
          "duration": 0.20689649999999915
        },
        {
          "name": "B2",
          "midi": 47,
          "time": 21.72413249999995,
          "velocity": 0.7480314960629921,
          "duration": 0.20689649999999915
        },
        {
          "name": "D4",
          "midi": 62,
          "time": 21.93102899999995,
          "velocity": 0.7480314960629921,
          "duration": 0.20689649999999915
        },
        {
          "name": "A3",
          "midi": 57,
          "time": 21.93102899999995,
          "velocity": 0.7480314960629921,
          "duration": 0.20689649999999915
        },
        {
          "name": "D3",
          "midi": 50,
          "time": 21.93102899999995,
          "velocity": 0.7480314960629921,
          "duration": 0.20689649999999915
        },
        {
          "name": "D4",
          "midi": 62,
          "time": 22.137925499999948,
          "velocity": 0.7480314960629921,
          "duration": 0.20689649999999915
        },
        {
          "name": "A3",
          "midi": 57,
          "time": 22.137925499999948,
          "velocity": 0.7480314960629921,
          "duration": 0.20689649999999915
        },
        {
          "name": "D3",
          "midi": 50,
          "time": 22.137925499999948,
          "velocity": 0.7480314960629921,
          "duration": 0.20689649999999915
        },
        {
          "name": "D4",
          "midi": 62,
          "time": 22.344821999999947,
          "velocity": 0.7480314960629921,
          "duration": 0.20689649999999915
        },
        {
          "name": "A3",
          "midi": 57,
          "time": 22.344821999999947,
          "velocity": 0.7480314960629921,
          "duration": 0.20689649999999915
        },
        {
          "name": "D3",
          "midi": 50,
          "time": 22.344821999999947,
          "velocity": 0.7480314960629921,
          "duration": 0.20689649999999915
        },
        {
          "name": "D4",
          "midi": 62,
          "time": 22.551718499999946,
          "velocity": 0.7480314960629921,
          "duration": 0.20689649999999915
        },
        {
          "name": "A3",
          "midi": 57,
          "time": 22.551718499999946,
          "velocity": 0.7480314960629921,
          "duration": 0.20689649999999915
        },
        {
          "name": "D3",
          "midi": 50,
          "time": 22.551718499999946,
          "velocity": 0.7480314960629921,
          "duration": 0.20689649999999915
        },
        {
          "name": "D4",
          "midi": 62,
          "time": 22.758614999999946,
          "velocity": 0.7480314960629921,
          "duration": 0.20689649999999915
        },
        {
          "name": "A3",
          "midi": 57,
          "time": 22.758614999999946,
          "velocity": 0.7480314960629921,
          "duration": 0.20689649999999915
        },
        {
          "name": "D3",
          "midi": 50,
          "time": 22.758614999999946,
          "velocity": 0.7480314960629921,
          "duration": 0.20689649999999915
        },
        {
          "name": "D4",
          "midi": 62,
          "time": 22.965511499999945,
          "velocity": 0.7480314960629921,
          "duration": 0.20689649999999915
        },
        {
          "name": "A3",
          "midi": 57,
          "time": 22.965511499999945,
          "velocity": 0.7480314960629921,
          "duration": 0.20689649999999915
        },
        {
          "name": "D3",
          "midi": 50,
          "time": 22.965511499999945,
          "velocity": 0.7480314960629921,
          "duration": 0.20689649999999915
        },
        {
          "name": "D4",
          "midi": 62,
          "time": 23.172407999999944,
          "velocity": 0.7480314960629921,
          "duration": 0.20689649999999915
        },
        {
          "name": "A3",
          "midi": 57,
          "time": 23.172407999999944,
          "velocity": 0.7480314960629921,
          "duration": 0.20689649999999915
        },
        {
          "name": "D3",
          "midi": 50,
          "time": 23.172407999999944,
          "velocity": 0.7480314960629921,
          "duration": 0.20689649999999915
        },
        {
          "name": "D4",
          "midi": 62,
          "time": 23.379304499999943,
          "velocity": 0.7480314960629921,
          "duration": 0.20689649999999915
        },
        {
          "name": "A3",
          "midi": 57,
          "time": 23.379304499999943,
          "velocity": 0.7480314960629921,
          "duration": 0.20689649999999915
        },
        {
          "name": "D3",
          "midi": 50,
          "time": 23.379304499999943,
          "velocity": 0.7480314960629921,
          "duration": 0.20689649999999915
        },
        {
          "name": "D4",
          "midi": 62,
          "time": 23.586200999999942,
          "velocity": 0.7480314960629921,
          "duration": 0.20689649999999915
        },
        {
          "name": "A3",
          "midi": 57,
          "time": 23.586200999999942,
          "velocity": 0.7480314960629921,
          "duration": 0.20689649999999915
        },
        {
          "name": "D3",
          "midi": 50,
          "time": 23.586200999999942,
          "velocity": 0.7480314960629921,
          "duration": 0.20689649999999915
        },
        {
          "name": "D4",
          "midi": 62,
          "time": 23.79309749999994,
          "velocity": 0.7480314960629921,
          "duration": 0.20689649999999915
        },
        {
          "name": "A3",
          "midi": 57,
          "time": 23.79309749999994,
          "velocity": 0.7480314960629921,
          "duration": 0.20689649999999915
        },
        {
          "name": "D3",
          "midi": 50,
          "time": 23.79309749999994,
          "velocity": 0.7480314960629921,
          "duration": 0.20689649999999915
        },
        {
          "name": "D4",
          "midi": 62,
          "time": 23.99999399999994,
          "velocity": 0.7480314960629921,
          "duration": 0.20689649999999915
        },
        {
          "name": "A3",
          "midi": 57,
          "time": 23.99999399999994,
          "velocity": 0.7480314960629921,
          "duration": 0.20689649999999915
        },
        {
          "name": "D3",
          "midi": 50,
          "time": 23.99999399999994,
          "velocity": 0.7480314960629921,
          "duration": 0.20689649999999915
        },
        {
          "name": "D4",
          "midi": 62,
          "time": 24.20689049999994,
          "velocity": 0.7480314960629921,
          "duration": 0.20689649999999915
        },
        {
          "name": "A3",
          "midi": 57,
          "time": 24.20689049999994,
          "velocity": 0.7480314960629921,
          "duration": 0.20689649999999915
        },
        {
          "name": "D3",
          "midi": 50,
          "time": 24.20689049999994,
          "velocity": 0.7480314960629921,
          "duration": 0.20689649999999915
        },
        {
          "name": "D4",
          "midi": 62,
          "time": 24.41378699999994,
          "velocity": 0.7480314960629921,
          "duration": 0.20689649999999915
        },
        {
          "name": "A3",
          "midi": 57,
          "time": 24.41378699999994,
          "velocity": 0.7480314960629921,
          "duration": 0.20689649999999915
        },
        {
          "name": "D3",
          "midi": 50,
          "time": 24.41378699999994,
          "velocity": 0.7480314960629921,
          "duration": 0.20689649999999915
        },
        {
          "name": "D4",
          "midi": 62,
          "time": 24.620683499999938,
          "velocity": 0.7480314960629921,
          "duration": 0.20689649999999915
        },
        {
          "name": "A3",
          "midi": 57,
          "time": 24.620683499999938,
          "velocity": 0.7480314960629921,
          "duration": 0.20689649999999915
        },
        {
          "name": "D3",
          "midi": 50,
          "time": 24.620683499999938,
          "velocity": 0.7480314960629921,
          "duration": 0.20689649999999915
        },
        {
          "name": "C4",
          "midi": 60,
          "time": 24.827579999999937,
          "velocity": 0.7480314960629921,
          "duration": 0.20689649999999915
        },
        {
          "name": "G3",
          "midi": 55,
          "time": 24.827579999999937,
          "velocity": 0.7480314960629921,
          "duration": 0.20689649999999915
        },
        {
          "name": "C3",
          "midi": 48,
          "time": 24.827579999999937,
          "velocity": 0.7480314960629921,
          "duration": 0.20689649999999915
        },
        {
          "name": "C4",
          "midi": 60,
          "time": 25.034476499999936,
          "velocity": 0.7480314960629921,
          "duration": 0.20689649999999915
        },
        {
          "name": "G3",
          "midi": 55,
          "time": 25.034476499999936,
          "velocity": 0.7480314960629921,
          "duration": 0.20689649999999915
        },
        {
          "name": "C3",
          "midi": 48,
          "time": 25.034476499999936,
          "velocity": 0.7480314960629921,
          "duration": 0.20689649999999915
        },
        {
          "name": "C4",
          "midi": 60,
          "time": 25.241372999999935,
          "velocity": 0.7480314960629921,
          "duration": 0.20689649999999915
        },
        {
          "name": "G3",
          "midi": 55,
          "time": 25.241372999999935,
          "velocity": 0.7480314960629921,
          "duration": 0.20689649999999915
        },
        {
          "name": "C3",
          "midi": 48,
          "time": 25.241372999999935,
          "velocity": 0.7480314960629921,
          "duration": 0.20689649999999915
        },
        {
          "name": "C4",
          "midi": 60,
          "time": 25.448269499999935,
          "velocity": 0.7480314960629921,
          "duration": 0.20689649999999915
        },
        {
          "name": "G3",
          "midi": 55,
          "time": 25.448269499999935,
          "velocity": 0.7480314960629921,
          "duration": 0.20689649999999915
        },
        {
          "name": "C3",
          "midi": 48,
          "time": 25.448269499999935,
          "velocity": 0.7480314960629921,
          "duration": 0.20689649999999915
        },
        {
          "name": "C4",
          "midi": 60,
          "time": 25.655165999999934,
          "velocity": 0.7480314960629921,
          "duration": 0.20689649999999915
        },
        {
          "name": "G3",
          "midi": 55,
          "time": 25.655165999999934,
          "velocity": 0.7480314960629921,
          "duration": 0.20689649999999915
        },
        {
          "name": "C3",
          "midi": 48,
          "time": 25.655165999999934,
          "velocity": 0.7480314960629921,
          "duration": 0.20689649999999915
        },
        {
          "name": "C4",
          "midi": 60,
          "time": 25.862062499999933,
          "velocity": 0.7480314960629921,
          "duration": 0.20689649999999915
        },
        {
          "name": "G3",
          "midi": 55,
          "time": 25.862062499999933,
          "velocity": 0.7480314960629921,
          "duration": 0.20689649999999915
        },
        {
          "name": "C3",
          "midi": 48,
          "time": 25.862062499999933,
          "velocity": 0.7480314960629921,
          "duration": 0.20689649999999915
        },
        {
          "name": "C4",
          "midi": 60,
          "time": 26.068958999999932,
          "velocity": 0.7480314960629921,
          "duration": 0.20689649999999915
        },
        {
          "name": "G3",
          "midi": 55,
          "time": 26.068958999999932,
          "velocity": 0.7480314960629921,
          "duration": 0.20689649999999915
        },
        {
          "name": "C3",
          "midi": 48,
          "time": 26.068958999999932,
          "velocity": 0.7480314960629921,
          "duration": 0.20689649999999915
        },
        {
          "name": "C4",
          "midi": 60,
          "time": 26.27585549999993,
          "velocity": 0.7480314960629921,
          "duration": 0.20689649999999915
        },
        {
          "name": "G3",
          "midi": 55,
          "time": 26.27585549999993,
          "velocity": 0.7480314960629921,
          "duration": 0.20689649999999915
        },
        {
          "name": "C3",
          "midi": 48,
          "time": 26.27585549999993,
          "velocity": 0.7480314960629921,
          "duration": 0.20689649999999915
        },
        {
          "name": "C4",
          "midi": 60,
          "time": 26.48275199999993,
          "velocity": 0.7480314960629921,
          "duration": 0.20689649999999915
        },
        {
          "name": "G3",
          "midi": 55,
          "time": 26.48275199999993,
          "velocity": 0.7480314960629921,
          "duration": 0.20689649999999915
        },
        {
          "name": "C3",
          "midi": 48,
          "time": 26.48275199999993,
          "velocity": 0.7480314960629921,
          "duration": 0.20689649999999915
        },
        {
          "name": "C4",
          "midi": 60,
          "time": 26.68964849999993,
          "velocity": 0.7480314960629921,
          "duration": 0.20689649999999915
        },
        {
          "name": "G3",
          "midi": 55,
          "time": 26.68964849999993,
          "velocity": 0.7480314960629921,
          "duration": 0.20689649999999915
        },
        {
          "name": "C3",
          "midi": 48,
          "time": 26.68964849999993,
          "velocity": 0.7480314960629921,
          "duration": 0.20689649999999915
        },
        {
          "name": "C4",
          "midi": 60,
          "time": 26.89654499999993,
          "velocity": 0.7480314960629921,
          "duration": 0.20689649999999915
        },
        {
          "name": "G3",
          "midi": 55,
          "time": 26.89654499999993,
          "velocity": 0.7480314960629921,
          "duration": 0.20689649999999915
        },
        {
          "name": "C3",
          "midi": 48,
          "time": 26.89654499999993,
          "velocity": 0.7480314960629921,
          "duration": 0.20689649999999915
        },
        {
          "name": "C4",
          "midi": 60,
          "time": 27.103441499999928,
          "velocity": 0.7480314960629921,
          "duration": 0.20689649999999915
        },
        {
          "name": "G3",
          "midi": 55,
          "time": 27.103441499999928,
          "velocity": 0.7480314960629921,
          "duration": 0.20689649999999915
        },
        {
          "name": "C3",
          "midi": 48,
          "time": 27.103441499999928,
          "velocity": 0.7480314960629921,
          "duration": 0.20689649999999915
        },
        {
          "name": "C4",
          "midi": 60,
          "time": 27.310337999999927,
          "velocity": 0.7480314960629921,
          "duration": 0.20689649999999915
        },
        {
          "name": "G3",
          "midi": 55,
          "time": 27.310337999999927,
          "velocity": 0.7480314960629921,
          "duration": 0.20689649999999915
        },
        {
          "name": "C3",
          "midi": 48,
          "time": 27.310337999999927,
          "velocity": 0.7480314960629921,
          "duration": 0.20689649999999915
        },
        {
          "name": "C4",
          "midi": 60,
          "time": 27.517234499999926,
          "velocity": 0.7480314960629921,
          "duration": 0.20689649999999915
        },
        {
          "name": "G3",
          "midi": 55,
          "time": 27.517234499999926,
          "velocity": 0.7480314960629921,
          "duration": 0.20689649999999915
        },
        {
          "name": "C3",
          "midi": 48,
          "time": 27.517234499999926,
          "velocity": 0.7480314960629921,
          "duration": 0.20689649999999915
        },
        {
          "name": "B3",
          "midi": 59,
          "time": 27.724130999999925,
          "velocity": 0.7480314960629921,
          "duration": 0.20689649999999915
        },
        {
          "name": "F#3",
          "midi": 54,
          "time": 27.724130999999925,
          "velocity": 0.7480314960629921,
          "duration": 0.20689649999999915
        },
        {
          "name": "B2",
          "midi": 47,
          "time": 27.724130999999925,
          "velocity": 0.7480314960629921,
          "duration": 0.20689649999999915
        },
        {
          "name": "B3",
          "midi": 59,
          "time": 27.931027499999924,
          "velocity": 0.7480314960629921,
          "duration": 0.20689649999999915
        },
        {
          "name": "F#3",
          "midi": 54,
          "time": 27.931027499999924,
          "velocity": 0.7480314960629921,
          "duration": 0.20689649999999915
        },
        {
          "name": "B2",
          "midi": 47,
          "time": 27.931027499999924,
          "velocity": 0.7480314960629921,
          "duration": 0.20689649999999915
        },
        {
          "name": "B3",
          "midi": 59,
          "time": 28.137923999999924,
          "velocity": 0.7480314960629921,
          "duration": 0.20689649999999915
        },
        {
          "name": "F#3",
          "midi": 54,
          "time": 28.137923999999924,
          "velocity": 0.7480314960629921,
          "duration": 0.20689649999999915
        },
        {
          "name": "B2",
          "midi": 47,
          "time": 28.137923999999924,
          "velocity": 0.7480314960629921,
          "duration": 0.20689649999999915
        },
        {
          "name": "B3",
          "midi": 59,
          "time": 28.344820499999923,
          "velocity": 0.7480314960629921,
          "duration": 0.20689649999999915
        },
        {
          "name": "F#3",
          "midi": 54,
          "time": 28.344820499999923,
          "velocity": 0.7480314960629921,
          "duration": 0.20689649999999915
        },
        {
          "name": "B2",
          "midi": 47,
          "time": 28.344820499999923,
          "velocity": 0.7480314960629921,
          "duration": 0.20689649999999915
        },
        {
          "name": "B3",
          "midi": 59,
          "time": 28.551716999999922,
          "velocity": 0.7480314960629921,
          "duration": 0.20689649999999915
        },
        {
          "name": "F#3",
          "midi": 54,
          "time": 28.551716999999922,
          "velocity": 0.7480314960629921,
          "duration": 0.20689649999999915
        },
        {
          "name": "B2",
          "midi": 47,
          "time": 28.551716999999922,
          "velocity": 0.7480314960629921,
          "duration": 0.20689649999999915
        },
        {
          "name": "B3",
          "midi": 59,
          "time": 28.75861349999992,
          "velocity": 0.7480314960629921,
          "duration": 0.20689649999999915
        },
        {
          "name": "F#3",
          "midi": 54,
          "time": 28.75861349999992,
          "velocity": 0.7480314960629921,
          "duration": 0.20689649999999915
        },
        {
          "name": "B2",
          "midi": 47,
          "time": 28.75861349999992,
          "velocity": 0.7480314960629921,
          "duration": 0.20689649999999915
        },
        {
          "name": "B3",
          "midi": 59,
          "time": 28.96550999999992,
          "velocity": 0.7480314960629921,
          "duration": 0.20689649999999915
        },
        {
          "name": "F#3",
          "midi": 54,
          "time": 28.96550999999992,
          "velocity": 0.7480314960629921,
          "duration": 0.20689649999999915
        },
        {
          "name": "B2",
          "midi": 47,
          "time": 28.96550999999992,
          "velocity": 0.7480314960629921,
          "duration": 0.20689649999999915
        },
        {
          "name": "B3",
          "midi": 59,
          "time": 29.17240649999992,
          "velocity": 0.7480314960629921,
          "duration": 0.20689649999999915
        },
        {
          "name": "F#3",
          "midi": 54,
          "time": 29.17240649999992,
          "velocity": 0.7480314960629921,
          "duration": 0.20689649999999915
        },
        {
          "name": "B2",
          "midi": 47,
          "time": 29.17240649999992,
          "velocity": 0.7480314960629921,
          "duration": 0.20689649999999915
        },
        {
          "name": "B3",
          "midi": 59,
          "time": 29.37930299999992,
          "velocity": 0.7480314960629921,
          "duration": 0.20689649999999915
        },
        {
          "name": "F#3",
          "midi": 54,
          "time": 29.37930299999992,
          "velocity": 0.7480314960629921,
          "duration": 0.20689649999999915
        },
        {
          "name": "B2",
          "midi": 47,
          "time": 29.37930299999992,
          "velocity": 0.7480314960629921,
          "duration": 0.20689649999999915
        },
        {
          "name": "B3",
          "midi": 59,
          "time": 29.586199499999918,
          "velocity": 0.7480314960629921,
          "duration": 0.20689649999999915
        },
        {
          "name": "F#3",
          "midi": 54,
          "time": 29.586199499999918,
          "velocity": 0.7480314960629921,
          "duration": 0.20689649999999915
        },
        {
          "name": "B2",
          "midi": 47,
          "time": 29.586199499999918,
          "velocity": 0.7480314960629921,
          "duration": 0.20689649999999915
        },
        {
          "name": "B3",
          "midi": 59,
          "time": 29.793095999999917,
          "velocity": 0.7480314960629921,
          "duration": 0.20689649999999915
        },
        {
          "name": "F#3",
          "midi": 54,
          "time": 29.793095999999917,
          "velocity": 0.7480314960629921,
          "duration": 0.20689649999999915
        },
        {
          "name": "B2",
          "midi": 47,
          "time": 29.793095999999917,
          "velocity": 0.7480314960629921,
          "duration": 0.20689649999999915
        },
        {
          "name": "B3",
          "midi": 59,
          "time": 29.999992499999916,
          "velocity": 0.7480314960629921,
          "duration": 0.20689649999999915
        },
        {
          "name": "F#3",
          "midi": 54,
          "time": 29.999992499999916,
          "velocity": 0.7480314960629921,
          "duration": 0.20689649999999915
        },
        {
          "name": "B2",
          "midi": 47,
          "time": 29.999992499999916,
          "velocity": 0.7480314960629921,
          "duration": 0.20689649999999915
        },
        {
          "name": "B3",
          "midi": 59,
          "time": 30.206888999999915,
          "velocity": 0.7480314960629921,
          "duration": 0.20689649999999915
        },
        {
          "name": "F#3",
          "midi": 54,
          "time": 30.206888999999915,
          "velocity": 0.7480314960629921,
          "duration": 0.20689649999999915
        },
        {
          "name": "B2",
          "midi": 47,
          "time": 30.206888999999915,
          "velocity": 0.7480314960629921,
          "duration": 0.20689649999999915
        },
        {
          "name": "B3",
          "midi": 59,
          "time": 30.413785499999914,
          "velocity": 0.7480314960629921,
          "duration": 0.20689649999999915
        },
        {
          "name": "F#3",
          "midi": 54,
          "time": 30.413785499999914,
          "velocity": 0.7480314960629921,
          "duration": 0.20689649999999915
        },
        {
          "name": "B2",
          "midi": 47,
          "time": 30.413785499999914,
          "velocity": 0.7480314960629921,
          "duration": 0.20689649999999915
        },
        {
          "name": "D4",
          "midi": 62,
          "time": 30.620681999999913,
          "velocity": 0.7480314960629921,
          "duration": 0.20689649999999915
        },
        {
          "name": "A3",
          "midi": 57,
          "time": 30.620681999999913,
          "velocity": 0.7480314960629921,
          "duration": 0.20689649999999915
        },
        {
          "name": "D3",
          "midi": 50,
          "time": 30.620681999999913,
          "velocity": 0.7480314960629921,
          "duration": 0.20689649999999915
        },
        {
          "name": "D4",
          "midi": 62,
          "time": 30.827578499999913,
          "velocity": 0.7480314960629921,
          "duration": 0.20689649999999915
        },
        {
          "name": "A3",
          "midi": 57,
          "time": 30.827578499999913,
          "velocity": 0.7480314960629921,
          "duration": 0.20689649999999915
        },
        {
          "name": "D3",
          "midi": 50,
          "time": 30.827578499999913,
          "velocity": 0.7480314960629921,
          "duration": 0.20689649999999915
        },
        {
          "name": "D4",
          "midi": 62,
          "time": 31.03447499999991,
          "velocity": 0.7480314960629921,
          "duration": 0.20689649999999915
        },
        {
          "name": "A3",
          "midi": 57,
          "time": 31.03447499999991,
          "velocity": 0.7480314960629921,
          "duration": 0.20689649999999915
        },
        {
          "name": "D3",
          "midi": 50,
          "time": 31.03447499999991,
          "velocity": 0.7480314960629921,
          "duration": 0.20689649999999915
        },
        {
          "name": "D4",
          "midi": 62,
          "time": 31.24137149999991,
          "velocity": 0.7480314960629921,
          "duration": 0.20689649999999915
        },
        {
          "name": "A3",
          "midi": 57,
          "time": 31.24137149999991,
          "velocity": 0.7480314960629921,
          "duration": 0.20689649999999915
        },
        {
          "name": "D3",
          "midi": 50,
          "time": 31.24137149999991,
          "velocity": 0.7480314960629921,
          "duration": 0.20689649999999915
        },
        {
          "name": "D4",
          "midi": 62,
          "time": 31.44826799999991,
          "velocity": 0.7480314960629921,
          "duration": 0.20689649999999915
        },
        {
          "name": "A3",
          "midi": 57,
          "time": 31.44826799999991,
          "velocity": 0.7480314960629921,
          "duration": 0.20689649999999915
        },
        {
          "name": "D3",
          "midi": 50,
          "time": 31.44826799999991,
          "velocity": 0.7480314960629921,
          "duration": 0.20689649999999915
        },
        {
          "name": "D4",
          "midi": 62,
          "time": 31.65516449999991,
          "velocity": 0.7480314960629921,
          "duration": 0.20689649999999915
        },
        {
          "name": "A3",
          "midi": 57,
          "time": 31.65516449999991,
          "velocity": 0.7480314960629921,
          "duration": 0.20689649999999915
        },
        {
          "name": "D3",
          "midi": 50,
          "time": 31.65516449999991,
          "velocity": 0.7480314960629921,
          "duration": 0.20689649999999915
        },
        {
          "name": "D4",
          "midi": 62,
          "time": 31.86206099999991,
          "velocity": 0.7480314960629921,
          "duration": 0.2068965000000027
        },
        {
          "name": "A3",
          "midi": 57,
          "time": 31.86206099999991,
          "velocity": 0.7480314960629921,
          "duration": 0.2068965000000027
        },
        {
          "name": "D3",
          "midi": 50,
          "time": 31.86206099999991,
          "velocity": 0.7480314960629921,
          "duration": 0.2068965000000027
        },
        {
          "name": "D4",
          "midi": 62,
          "time": 32.06895749999991,
          "velocity": 0.7480314960629921,
          "duration": 0.20689649999999915
        },
        {
          "name": "A3",
          "midi": 57,
          "time": 32.06895749999991,
          "velocity": 0.7480314960629921,
          "duration": 0.20689649999999915
        },
        {
          "name": "D3",
          "midi": 50,
          "time": 32.06895749999991,
          "velocity": 0.7480314960629921,
          "duration": 0.20689649999999915
        },
        {
          "name": "D4",
          "midi": 62,
          "time": 32.27585399999991,
          "velocity": 0.7480314960629921,
          "duration": 0.20689649999999915
        },
        {
          "name": "A3",
          "midi": 57,
          "time": 32.27585399999991,
          "velocity": 0.7480314960629921,
          "duration": 0.20689649999999915
        },
        {
          "name": "D3",
          "midi": 50,
          "time": 32.27585399999991,
          "velocity": 0.7480314960629921,
          "duration": 0.20689649999999915
        },
        {
          "name": "D4",
          "midi": 62,
          "time": 32.48275049999991,
          "velocity": 0.7480314960629921,
          "duration": 0.20689649999999915
        },
        {
          "name": "A3",
          "midi": 57,
          "time": 32.48275049999991,
          "velocity": 0.7480314960629921,
          "duration": 0.20689649999999915
        },
        {
          "name": "D3",
          "midi": 50,
          "time": 32.48275049999991,
          "velocity": 0.7480314960629921,
          "duration": 0.20689649999999915
        },
        {
          "name": "D4",
          "midi": 62,
          "time": 32.68964699999991,
          "velocity": 0.7480314960629921,
          "duration": 0.20689649999999915
        },
        {
          "name": "A3",
          "midi": 57,
          "time": 32.68964699999991,
          "velocity": 0.7480314960629921,
          "duration": 0.20689649999999915
        },
        {
          "name": "D3",
          "midi": 50,
          "time": 32.68964699999991,
          "velocity": 0.7480314960629921,
          "duration": 0.20689649999999915
        },
        {
          "name": "D4",
          "midi": 62,
          "time": 32.89654349999991,
          "velocity": 0.7480314960629921,
          "duration": 0.20689649999999915
        },
        {
          "name": "A3",
          "midi": 57,
          "time": 32.89654349999991,
          "velocity": 0.7480314960629921,
          "duration": 0.20689649999999915
        },
        {
          "name": "D3",
          "midi": 50,
          "time": 32.89654349999991,
          "velocity": 0.7480314960629921,
          "duration": 0.20689649999999915
        },
        {
          "name": "D4",
          "midi": 62,
          "time": 33.10343999999991,
          "velocity": 0.7480314960629921,
          "duration": 0.20689649999999915
        },
        {
          "name": "A3",
          "midi": 57,
          "time": 33.10343999999991,
          "velocity": 0.7480314960629921,
          "duration": 0.20689649999999915
        },
        {
          "name": "D3",
          "midi": 50,
          "time": 33.10343999999991,
          "velocity": 0.7480314960629921,
          "duration": 0.20689649999999915
        },
        {
          "name": "D4",
          "midi": 62,
          "time": 33.310336499999906,
          "velocity": 0.7480314960629921,
          "duration": 0.20689649999999915
        },
        {
          "name": "A3",
          "midi": 57,
          "time": 33.310336499999906,
          "velocity": 0.7480314960629921,
          "duration": 0.20689649999999915
        },
        {
          "name": "D3",
          "midi": 50,
          "time": 33.310336499999906,
          "velocity": 0.7480314960629921,
          "duration": 0.20689649999999915
        },
        {
          "name": "C4",
          "midi": 60,
          "time": 33.517232999999905,
          "velocity": 0.7480314960629921,
          "duration": 0.20689649999999915
        },
        {
          "name": "G3",
          "midi": 55,
          "time": 33.517232999999905,
          "velocity": 0.7480314960629921,
          "duration": 0.20689649999999915
        },
        {
          "name": "C3",
          "midi": 48,
          "time": 33.517232999999905,
          "velocity": 0.7480314960629921,
          "duration": 0.20689649999999915
        },
        {
          "name": "C4",
          "midi": 60,
          "time": 33.724129499999904,
          "velocity": 0.7480314960629921,
          "duration": 0.20689649999999915
        },
        {
          "name": "G3",
          "midi": 55,
          "time": 33.724129499999904,
          "velocity": 0.7480314960629921,
          "duration": 0.20689649999999915
        },
        {
          "name": "C3",
          "midi": 48,
          "time": 33.724129499999904,
          "velocity": 0.7480314960629921,
          "duration": 0.20689649999999915
        },
        {
          "name": "C4",
          "midi": 60,
          "time": 33.9310259999999,
          "velocity": 0.7480314960629921,
          "duration": 0.20689649999999915
        },
        {
          "name": "G3",
          "midi": 55,
          "time": 33.9310259999999,
          "velocity": 0.7480314960629921,
          "duration": 0.20689649999999915
        },
        {
          "name": "C3",
          "midi": 48,
          "time": 33.9310259999999,
          "velocity": 0.7480314960629921,
          "duration": 0.20689649999999915
        },
        {
          "name": "C4",
          "midi": 60,
          "time": 34.1379224999999,
          "velocity": 0.7480314960629921,
          "duration": 0.20689649999999915
        },
        {
          "name": "G3",
          "midi": 55,
          "time": 34.1379224999999,
          "velocity": 0.7480314960629921,
          "duration": 0.20689649999999915
        },
        {
          "name": "C3",
          "midi": 48,
          "time": 34.1379224999999,
          "velocity": 0.7480314960629921,
          "duration": 0.20689649999999915
        },
        {
          "name": "C4",
          "midi": 60,
          "time": 34.3448189999999,
          "velocity": 0.7480314960629921,
          "duration": 0.20689649999999915
        },
        {
          "name": "G3",
          "midi": 55,
          "time": 34.3448189999999,
          "velocity": 0.7480314960629921,
          "duration": 0.20689649999999915
        },
        {
          "name": "C3",
          "midi": 48,
          "time": 34.3448189999999,
          "velocity": 0.7480314960629921,
          "duration": 0.20689649999999915
        },
        {
          "name": "C4",
          "midi": 60,
          "time": 34.5517154999999,
          "velocity": 0.7480314960629921,
          "duration": 0.20689649999999915
        },
        {
          "name": "G3",
          "midi": 55,
          "time": 34.5517154999999,
          "velocity": 0.7480314960629921,
          "duration": 0.20689649999999915
        },
        {
          "name": "C3",
          "midi": 48,
          "time": 34.5517154999999,
          "velocity": 0.7480314960629921,
          "duration": 0.20689649999999915
        },
        {
          "name": "C4",
          "midi": 60,
          "time": 34.7586119999999,
          "velocity": 0.7480314960629921,
          "duration": 0.20689649999999915
        },
        {
          "name": "G3",
          "midi": 55,
          "time": 34.7586119999999,
          "velocity": 0.7480314960629921,
          "duration": 0.20689649999999915
        },
        {
          "name": "C3",
          "midi": 48,
          "time": 34.7586119999999,
          "velocity": 0.7480314960629921,
          "duration": 0.20689649999999915
        },
        {
          "name": "C4",
          "midi": 60,
          "time": 34.9655084999999,
          "velocity": 0.7480314960629921,
          "duration": 0.20689649999999915
        },
        {
          "name": "G3",
          "midi": 55,
          "time": 34.9655084999999,
          "velocity": 0.7480314960629921,
          "duration": 0.20689649999999915
        },
        {
          "name": "C3",
          "midi": 48,
          "time": 34.9655084999999,
          "velocity": 0.7480314960629921,
          "duration": 0.20689649999999915
        },
        {
          "name": "C4",
          "midi": 60,
          "time": 35.1724049999999,
          "velocity": 0.7480314960629921,
          "duration": 0.20689649999999915
        },
        {
          "name": "G3",
          "midi": 55,
          "time": 35.1724049999999,
          "velocity": 0.7480314960629921,
          "duration": 0.20689649999999915
        },
        {
          "name": "C3",
          "midi": 48,
          "time": 35.1724049999999,
          "velocity": 0.7480314960629921,
          "duration": 0.20689649999999915
        },
        {
          "name": "C4",
          "midi": 60,
          "time": 35.3793014999999,
          "velocity": 0.7480314960629921,
          "duration": 0.20689649999999915
        },
        {
          "name": "G3",
          "midi": 55,
          "time": 35.3793014999999,
          "velocity": 0.7480314960629921,
          "duration": 0.20689649999999915
        },
        {
          "name": "C3",
          "midi": 48,
          "time": 35.3793014999999,
          "velocity": 0.7480314960629921,
          "duration": 0.20689649999999915
        },
        {
          "name": "C4",
          "midi": 60,
          "time": 35.5861979999999,
          "velocity": 0.7480314960629921,
          "duration": 0.20689649999999915
        },
        {
          "name": "G3",
          "midi": 55,
          "time": 35.5861979999999,
          "velocity": 0.7480314960629921,
          "duration": 0.20689649999999915
        },
        {
          "name": "C3",
          "midi": 48,
          "time": 35.5861979999999,
          "velocity": 0.7480314960629921,
          "duration": 0.20689649999999915
        },
        {
          "name": "C4",
          "midi": 60,
          "time": 35.793094499999896,
          "velocity": 0.7480314960629921,
          "duration": 0.20689649999999915
        },
        {
          "name": "G3",
          "midi": 55,
          "time": 35.793094499999896,
          "velocity": 0.7480314960629921,
          "duration": 0.20689649999999915
        },
        {
          "name": "C3",
          "midi": 48,
          "time": 35.793094499999896,
          "velocity": 0.7480314960629921,
          "duration": 0.20689649999999915
        },
        {
          "name": "C4",
          "midi": 60,
          "time": 35.999990999999895,
          "velocity": 0.7480314960629921,
          "duration": 0.20689649999999915
        },
        {
          "name": "G3",
          "midi": 55,
          "time": 35.999990999999895,
          "velocity": 0.7480314960629921,
          "duration": 0.20689649999999915
        },
        {
          "name": "C3",
          "midi": 48,
          "time": 35.999990999999895,
          "velocity": 0.7480314960629921,
          "duration": 0.20689649999999915
        },
        {
          "name": "C4",
          "midi": 60,
          "time": 36.206887499999894,
          "velocity": 0.7480314960629921,
          "duration": 0.20689649999999915
        },
        {
          "name": "G3",
          "midi": 55,
          "time": 36.206887499999894,
          "velocity": 0.7480314960629921,
          "duration": 0.20689649999999915
        },
        {
          "name": "C3",
          "midi": 48,
          "time": 36.206887499999894,
          "velocity": 0.7480314960629921,
          "duration": 0.20689649999999915
        },
        {
          "name": "B3",
          "midi": 59,
          "time": 36.41378399999989,
          "velocity": 0.7480314960629921,
          "duration": 0.20689649999999915
        },
        {
          "name": "F#3",
          "midi": 54,
          "time": 36.41378399999989,
          "velocity": 0.7480314960629921,
          "duration": 0.20689649999999915
        },
        {
          "name": "B2",
          "midi": 47,
          "time": 36.41378399999989,
          "velocity": 0.7480314960629921,
          "duration": 0.20689649999999915
        },
        {
          "name": "B3",
          "midi": 59,
          "time": 36.62068049999989,
          "velocity": 0.7480314960629921,
          "duration": 0.20689649999999915
        },
        {
          "name": "F#3",
          "midi": 54,
          "time": 36.62068049999989,
          "velocity": 0.7480314960629921,
          "duration": 0.20689649999999915
        },
        {
          "name": "B2",
          "midi": 47,
          "time": 36.62068049999989,
          "velocity": 0.7480314960629921,
          "duration": 0.20689649999999915
        },
        {
          "name": "B3",
          "midi": 59,
          "time": 36.82757699999989,
          "velocity": 0.7480314960629921,
          "duration": 0.20689649999999915
        },
        {
          "name": "F#3",
          "midi": 54,
          "time": 36.82757699999989,
          "velocity": 0.7480314960629921,
          "duration": 0.20689649999999915
        },
        {
          "name": "B2",
          "midi": 47,
          "time": 36.82757699999989,
          "velocity": 0.7480314960629921,
          "duration": 0.20689649999999915
        },
        {
          "name": "B3",
          "midi": 59,
          "time": 37.03447349999989,
          "velocity": 0.7480314960629921,
          "duration": 0.20689649999999915
        },
        {
          "name": "F#3",
          "midi": 54,
          "time": 37.03447349999989,
          "velocity": 0.7480314960629921,
          "duration": 0.20689649999999915
        },
        {
          "name": "B2",
          "midi": 47,
          "time": 37.03447349999989,
          "velocity": 0.7480314960629921,
          "duration": 0.20689649999999915
        },
        {
          "name": "B3",
          "midi": 59,
          "time": 37.24136999999989,
          "velocity": 0.7480314960629921,
          "duration": 0.20689649999999915
        },
        {
          "name": "F#3",
          "midi": 54,
          "time": 37.24136999999989,
          "velocity": 0.7480314960629921,
          "duration": 0.20689649999999915
        },
        {
          "name": "B2",
          "midi": 47,
          "time": 37.24136999999989,
          "velocity": 0.7480314960629921,
          "duration": 0.20689649999999915
        },
        {
          "name": "B3",
          "midi": 59,
          "time": 37.44826649999989,
          "velocity": 0.7480314960629921,
          "duration": 0.20689649999999915
        },
        {
          "name": "F#3",
          "midi": 54,
          "time": 37.44826649999989,
          "velocity": 0.7480314960629921,
          "duration": 0.20689649999999915
        },
        {
          "name": "B2",
          "midi": 47,
          "time": 37.44826649999989,
          "velocity": 0.7480314960629921,
          "duration": 0.20689649999999915
        },
        {
          "name": "B3",
          "midi": 59,
          "time": 37.65516299999989,
          "velocity": 0.7480314960629921,
          "duration": 0.20689649999999915
        },
        {
          "name": "F#3",
          "midi": 54,
          "time": 37.65516299999989,
          "velocity": 0.7480314960629921,
          "duration": 0.20689649999999915
        },
        {
          "name": "B2",
          "midi": 47,
          "time": 37.65516299999989,
          "velocity": 0.7480314960629921,
          "duration": 0.20689649999999915
        },
        {
          "name": "B3",
          "midi": 59,
          "time": 37.86205949999989,
          "velocity": 0.7480314960629921,
          "duration": 0.20689649999999915
        },
        {
          "name": "F#3",
          "midi": 54,
          "time": 37.86205949999989,
          "velocity": 0.7480314960629921,
          "duration": 0.20689649999999915
        },
        {
          "name": "B2",
          "midi": 47,
          "time": 37.86205949999989,
          "velocity": 0.7480314960629921,
          "duration": 0.20689649999999915
        },
        {
          "name": "B3",
          "midi": 59,
          "time": 38.068955999999886,
          "velocity": 0.7480314960629921,
          "duration": 0.20689649999999915
        },
        {
          "name": "F#3",
          "midi": 54,
          "time": 38.068955999999886,
          "velocity": 0.7480314960629921,
          "duration": 0.20689649999999915
        },
        {
          "name": "B2",
          "midi": 47,
          "time": 38.068955999999886,
          "velocity": 0.7480314960629921,
          "duration": 0.20689649999999915
        },
        {
          "name": "B3",
          "midi": 59,
          "time": 38.275852499999885,
          "velocity": 0.7480314960629921,
          "duration": 0.20689649999999915
        },
        {
          "name": "F#3",
          "midi": 54,
          "time": 38.275852499999885,
          "velocity": 0.7480314960629921,
          "duration": 0.20689649999999915
        },
        {
          "name": "B2",
          "midi": 47,
          "time": 38.275852499999885,
          "velocity": 0.7480314960629921,
          "duration": 0.20689649999999915
        },
        {
          "name": "B3",
          "midi": 59,
          "time": 38.482748999999885,
          "velocity": 0.7480314960629921,
          "duration": 0.20689649999999915
        },
        {
          "name": "F#3",
          "midi": 54,
          "time": 38.482748999999885,
          "velocity": 0.7480314960629921,
          "duration": 0.20689649999999915
        },
        {
          "name": "B2",
          "midi": 47,
          "time": 38.482748999999885,
          "velocity": 0.7480314960629921,
          "duration": 0.20689649999999915
        },
        {
          "name": "B3",
          "midi": 59,
          "time": 38.689645499999884,
          "velocity": 0.7480314960629921,
          "duration": 0.20689649999999915
        },
        {
          "name": "F#3",
          "midi": 54,
          "time": 38.689645499999884,
          "velocity": 0.7480314960629921,
          "duration": 0.20689649999999915
        },
        {
          "name": "B2",
          "midi": 47,
          "time": 38.689645499999884,
          "velocity": 0.7480314960629921,
          "duration": 0.20689649999999915
        },
        {
          "name": "B3",
          "midi": 59,
          "time": 38.89654199999988,
          "velocity": 0.7480314960629921,
          "duration": 0.20689649999999915
        },
        {
          "name": "F#3",
          "midi": 54,
          "time": 38.89654199999988,
          "velocity": 0.7480314960629921,
          "duration": 0.20689649999999915
        },
        {
          "name": "B2",
          "midi": 47,
          "time": 38.89654199999988,
          "velocity": 0.7480314960629921,
          "duration": 0.20689649999999915
        },
        {
          "name": "B3",
          "midi": 59,
          "time": 39.10343849999988,
          "velocity": 0.7480314960629921,
          "duration": 0.20689649999999915
        },
        {
          "name": "F#3",
          "midi": 54,
          "time": 39.10343849999988,
          "velocity": 0.7480314960629921,
          "duration": 0.20689649999999915
        },
        {
          "name": "B2",
          "midi": 47,
          "time": 39.10343849999988,
          "velocity": 0.7480314960629921,
          "duration": 0.20689649999999915
        },
        {
          "name": "B3",
          "midi": 59,
          "time": 39.31033499999988,
          "velocity": 0.7480314960629921,
          "duration": 0.20689649999999915
        },
        {
          "name": "F#3",
          "midi": 54,
          "time": 39.31033499999988,
          "velocity": 0.7480314960629921,
          "duration": 0.20689649999999915
        },
        {
          "name": "B2",
          "midi": 47,
          "time": 39.31033499999988,
          "velocity": 0.7480314960629921,
          "duration": 0.20689649999999915
        },
        {
          "name": "B3",
          "midi": 59,
          "time": 39.51723149999988,
          "velocity": 0.7480314960629921,
          "duration": 0.20689649999999915
        },
        {
          "name": "F#3",
          "midi": 54,
          "time": 39.51723149999988,
          "velocity": 0.7480314960629921,
          "duration": 0.20689649999999915
        },
        {
          "name": "B2",
          "midi": 47,
          "time": 39.51723149999988,
          "velocity": 0.7480314960629921,
          "duration": 0.20689649999999915
        },
        {
          "name": "A4",
          "midi": 69,
          "time": 39.72412799999988,
          "velocity": 0.7480314960629921,
          "duration": 0.20689649999999915
        },
        {
          "name": "B3",
          "midi": 59,
          "time": 39.72412799999988,
          "velocity": 0.7480314960629921,
          "duration": 0.20689649999999915
        },
        {
          "name": "D4",
          "midi": 62,
          "time": 39.72412799999988,
          "velocity": 0.7480314960629921,
          "duration": 0.20689649999999915
        },
        {
          "name": "D3",
          "midi": 50,
          "time": 39.72412799999988,
          "velocity": 0.7480314960629921,
          "duration": 0.20689649999999915
        },
        {
          "name": "A4",
          "midi": 69,
          "time": 39.93102449999988,
          "velocity": 0.7480314960629921,
          "duration": 0.20689649999999915
        },
        {
          "name": "B3",
          "midi": 59,
          "time": 39.93102449999988,
          "velocity": 0.7480314960629921,
          "duration": 0.20689649999999915
        },
        {
          "name": "C4",
          "midi": 60,
          "time": 39.93102449999988,
          "velocity": 0.5511811023622047,
          "duration": 0.20689649999999915
        },
        {
          "name": "D3",
          "midi": 50,
          "time": 39.93102449999988,
          "velocity": 0.7480314960629921,
          "duration": 0.20689649999999915
        },
        {
          "name": "A4",
          "midi": 69,
          "time": 40.13792099999988,
          "velocity": 0.7480314960629921,
          "duration": 0.20689649999999915
        },
        {
          "name": "B3",
          "midi": 59,
          "time": 40.13792099999988,
          "velocity": 0.7480314960629921,
          "duration": 0.20689649999999915
        },
        {
          "name": "C4",
          "midi": 60,
          "time": 40.13792099999988,
          "velocity": 0.7480314960629921,
          "duration": 0.20689649999999915
        },
        {
          "name": "D3",
          "midi": 50,
          "time": 40.13792099999988,
          "velocity": 0.7480314960629921,
          "duration": 0.20689649999999915
        },
        {
          "name": "A4",
          "midi": 69,
          "time": 40.34481749999988,
          "velocity": 0.7480314960629921,
          "duration": 0.20689649999999915
        },
        {
          "name": "B3",
          "midi": 59,
          "time": 40.34481749999988,
          "velocity": 0.7480314960629921,
          "duration": 0.20689649999999915
        },
        {
          "name": "C4",
          "midi": 60,
          "time": 40.34481749999988,
          "velocity": 0.7480314960629921,
          "duration": 0.20689649999999915
        },
        {
          "name": "D3",
          "midi": 50,
          "time": 40.34481749999988,
          "velocity": 0.7480314960629921,
          "duration": 0.20689649999999915
        },
        {
          "name": "A4",
          "midi": 69,
          "time": 40.551713999999876,
          "velocity": 0.7480314960629921,
          "duration": 0.4137929999999983
        },
        {
          "name": "B3",
          "midi": 59,
          "time": 40.551713999999876,
          "velocity": 0.7480314960629921,
          "duration": 0.4137929999999983
        },
        {
          "name": "C4",
          "midi": 60,
          "time": 40.551713999999876,
          "velocity": 0.7480314960629921,
          "duration": 0.4137929999999983
        },
        {
          "name": "D3",
          "midi": 50,
          "time": 40.551713999999876,
          "velocity": 0.7480314960629921,
          "duration": 0.4137929999999983
        },
        {
          "name": "A4",
          "midi": 69,
          "time": 40.965506999999874,
          "velocity": 0.7480314960629921,
          "duration": 0.20689649999999915
        },
        {
          "name": "B3",
          "midi": 59,
          "time": 40.965506999999874,
          "velocity": 0.7480314960629921,
          "duration": 0.20689649999999915
        },
        {
          "name": "C4",
          "midi": 60,
          "time": 40.965506999999874,
          "velocity": 0.7480314960629921,
          "duration": 0.20689649999999915
        },
        {
          "name": "D3",
          "midi": 50,
          "time": 40.965506999999874,
          "velocity": 0.7480314960629921,
          "duration": 0.20689649999999915
        },
        {
          "name": "A4",
          "midi": 69,
          "time": 41.172403499999874,
          "velocity": 0.7480314960629921,
          "duration": 0.20689649999999915
        },
        {
          "name": "B3",
          "midi": 59,
          "time": 41.172403499999874,
          "velocity": 0.7480314960629921,
          "duration": 0.20689649999999915
        },
        {
          "name": "C4",
          "midi": 60,
          "time": 41.172403499999874,
          "velocity": 0.7480314960629921,
          "duration": 0.20689649999999915
        },
        {
          "name": "D3",
          "midi": 50,
          "time": 41.172403499999874,
          "velocity": 0.7480314960629921,
          "duration": 0.20689649999999915
        },
        {
          "name": "A4",
          "midi": 69,
          "time": 41.37929999999987,
          "velocity": 0.7480314960629921,
          "duration": 0.20689649999999915
        },
        {
          "name": "B3",
          "midi": 59,
          "time": 41.37929999999987,
          "velocity": 0.7480314960629921,
          "duration": 0.20689649999999915
        },
        {
          "name": "C4",
          "midi": 60,
          "time": 41.37929999999987,
          "velocity": 0.7480314960629921,
          "duration": 0.20689649999999915
        },
        {
          "name": "D3",
          "midi": 50,
          "time": 41.37929999999987,
          "velocity": 0.7480314960629921,
          "duration": 0.20689649999999915
        },
        {
          "name": "A4",
          "midi": 69,
          "time": 41.58619649999987,
          "velocity": 0.7480314960629921,
          "duration": 0.20689649999999915
        },
        {
          "name": "B3",
          "midi": 59,
          "time": 41.58619649999987,
          "velocity": 0.7480314960629921,
          "duration": 0.20689649999999915
        },
        {
          "name": "C4",
          "midi": 60,
          "time": 41.58619649999987,
          "velocity": 0.7480314960629921,
          "duration": 0.20689649999999915
        },
        {
          "name": "D3",
          "midi": 50,
          "time": 41.58619649999987,
          "velocity": 0.7480314960629921,
          "duration": 0.20689649999999915
        },
        {
          "name": "A4",
          "midi": 69,
          "time": 41.79309299999987,
          "velocity": 0.7480314960629921,
          "duration": 0.4137929999999983
        },
        {
          "name": "B3",
          "midi": 59,
          "time": 41.79309299999987,
          "velocity": 0.7480314960629921,
          "duration": 0.4137929999999983
        },
        {
          "name": "C4",
          "midi": 60,
          "time": 41.79309299999987,
          "velocity": 0.7480314960629921,
          "duration": 0.4137929999999983
        },
        {
          "name": "D3",
          "midi": 50,
          "time": 41.79309299999987,
          "velocity": 0.7480314960629921,
          "duration": 0.4137929999999983
        },
        {
          "name": "A4",
          "midi": 69,
          "time": 42.20688599999987,
          "velocity": 0.7480314960629921,
          "duration": 0.20689649999999915
        },
        {
          "name": "B3",
          "midi": 59,
          "time": 42.20688599999987,
          "velocity": 0.7480314960629921,
          "duration": 0.20689649999999915
        },
        {
          "name": "C4",
          "midi": 60,
          "time": 42.20688599999987,
          "velocity": 0.7480314960629921,
          "duration": 0.20689649999999915
        },
        {
          "name": "D3",
          "midi": 50,
          "time": 42.20688599999987,
          "velocity": 0.7480314960629921,
          "duration": 0.20689649999999915
        },
        {
          "name": "A4",
          "midi": 69,
          "time": 42.41378249999987,
          "velocity": 0.7480314960629921,
          "duration": 0.20689649999999915
        },
        {
          "name": "B3",
          "midi": 59,
          "time": 42.41378249999987,
          "velocity": 0.7480314960629921,
          "duration": 0.20689649999999915
        },
        {
          "name": "C4",
          "midi": 60,
          "time": 42.41378249999987,
          "velocity": 0.7480314960629921,
          "duration": 0.20689649999999915
        },
        {
          "name": "D3",
          "midi": 50,
          "time": 42.41378249999987,
          "velocity": 0.7480314960629921,
          "duration": 0.20689649999999915
        },
        {
          "name": "A4",
          "midi": 69,
          "time": 42.62067899999987,
          "velocity": 0.7480314960629921,
          "duration": 0.20689649999999915
        },
        {
          "name": "B3",
          "midi": 59,
          "time": 42.62067899999987,
          "velocity": 0.7480314960629921,
          "duration": 0.20689649999999915
        },
        {
          "name": "C4",
          "midi": 60,
          "time": 42.62067899999987,
          "velocity": 0.7480314960629921,
          "duration": 0.20689649999999915
        },
        {
          "name": "D3",
          "midi": 50,
          "time": 42.62067899999987,
          "velocity": 0.7480314960629921,
          "duration": 0.20689649999999915
        },
        {
          "name": "A4",
          "midi": 69,
          "time": 43.034471999999866,
          "velocity": 0.7480314960629921,
          "duration": 0.20689649999999915
        },
        {
          "name": "B3",
          "midi": 59,
          "time": 43.034471999999866,
          "velocity": 0.7480314960629921,
          "duration": 0.20689649999999915
        },
        {
          "name": "D4",
          "midi": 62,
          "time": 43.034471999999866,
          "velocity": 0.7480314960629921,
          "duration": 0.20689649999999915
        },
        {
          "name": "D3",
          "midi": 50,
          "time": 43.034471999999866,
          "velocity": 0.7480314960629921,
          "duration": 0.20689649999999915
        },
        {
          "name": "A4",
          "midi": 69,
          "time": 43.241368499999865,
          "velocity": 0.7480314960629921,
          "duration": 0.20689649999999915
        },
        {
          "name": "B3",
          "midi": 59,
          "time": 43.241368499999865,
          "velocity": 0.7480314960629921,
          "duration": 0.20689649999999915
        },
        {
          "name": "C4",
          "midi": 60,
          "time": 43.241368499999865,
          "velocity": 0.5511811023622047,
          "duration": 0.20689649999999915
        },
        {
          "name": "D3",
          "midi": 50,
          "time": 43.241368499999865,
          "velocity": 0.7480314960629921,
          "duration": 0.20689649999999915
        },
        {
          "name": "A4",
          "midi": 69,
          "time": 43.448264999999864,
          "velocity": 0.7480314960629921,
          "duration": 0.20689649999999915
        },
        {
          "name": "B3",
          "midi": 59,
          "time": 43.448264999999864,
          "velocity": 0.7480314960629921,
          "duration": 0.20689649999999915
        },
        {
          "name": "C4",
          "midi": 60,
          "time": 43.448264999999864,
          "velocity": 0.7480314960629921,
          "duration": 0.20689649999999915
        },
        {
          "name": "D3",
          "midi": 50,
          "time": 43.448264999999864,
          "velocity": 0.7480314960629921,
          "duration": 0.20689649999999915
        },
        {
          "name": "A4",
          "midi": 69,
          "time": 43.65516149999986,
          "velocity": 0.7480314960629921,
          "duration": 0.20689649999999915
        },
        {
          "name": "B3",
          "midi": 59,
          "time": 43.65516149999986,
          "velocity": 0.7480314960629921,
          "duration": 0.20689649999999915
        },
        {
          "name": "C4",
          "midi": 60,
          "time": 43.65516149999986,
          "velocity": 0.7480314960629921,
          "duration": 0.20689649999999915
        },
        {
          "name": "D3",
          "midi": 50,
          "time": 43.65516149999986,
          "velocity": 0.7480314960629921,
          "duration": 0.20689649999999915
        },
        {
          "name": "A4",
          "midi": 69,
          "time": 43.86205799999986,
          "velocity": 0.7480314960629921,
          "duration": 0.4137929999999983
        },
        {
          "name": "B3",
          "midi": 59,
          "time": 43.86205799999986,
          "velocity": 0.7480314960629921,
          "duration": 0.4137929999999983
        },
        {
          "name": "C4",
          "midi": 60,
          "time": 43.86205799999986,
          "velocity": 0.7480314960629921,
          "duration": 0.4137929999999983
        },
        {
          "name": "D3",
          "midi": 50,
          "time": 43.86205799999986,
          "velocity": 0.7480314960629921,
          "duration": 0.4137929999999983
        },
        {
          "name": "A4",
          "midi": 69,
          "time": 44.27585099999986,
          "velocity": 0.7480314960629921,
          "duration": 0.20689649999999915
        },
        {
          "name": "B3",
          "midi": 59,
          "time": 44.27585099999986,
          "velocity": 0.7480314960629921,
          "duration": 0.20689649999999915
        },
        {
          "name": "C4",
          "midi": 60,
          "time": 44.27585099999986,
          "velocity": 0.7480314960629921,
          "duration": 0.20689649999999915
        },
        {
          "name": "D3",
          "midi": 50,
          "time": 44.27585099999986,
          "velocity": 0.7480314960629921,
          "duration": 0.20689649999999915
        },
        {
          "name": "A4",
          "midi": 69,
          "time": 44.48274749999986,
          "velocity": 0.7480314960629921,
          "duration": 0.20689649999999915
        },
        {
          "name": "B3",
          "midi": 59,
          "time": 44.48274749999986,
          "velocity": 0.7480314960629921,
          "duration": 0.20689649999999915
        },
        {
          "name": "C4",
          "midi": 60,
          "time": 44.48274749999986,
          "velocity": 0.7480314960629921,
          "duration": 0.20689649999999915
        },
        {
          "name": "D3",
          "midi": 50,
          "time": 44.48274749999986,
          "velocity": 0.7480314960629921,
          "duration": 0.20689649999999915
        },
        {
          "name": "A4",
          "midi": 69,
          "time": 44.68964399999986,
          "velocity": 0.7480314960629921,
          "duration": 0.20689649999999915
        },
        {
          "name": "B3",
          "midi": 59,
          "time": 44.68964399999986,
          "velocity": 0.7480314960629921,
          "duration": 0.20689649999999915
        },
        {
          "name": "C4",
          "midi": 60,
          "time": 44.68964399999986,
          "velocity": 0.7480314960629921,
          "duration": 0.20689649999999915
        },
        {
          "name": "D3",
          "midi": 50,
          "time": 44.68964399999986,
          "velocity": 0.7480314960629921,
          "duration": 0.20689649999999915
        },
        {
          "name": "A4",
          "midi": 69,
          "time": 44.89654049999986,
          "velocity": 0.7480314960629921,
          "duration": 0.20689649999999915
        },
        {
          "name": "B3",
          "midi": 59,
          "time": 44.89654049999986,
          "velocity": 0.7480314960629921,
          "duration": 0.20689649999999915
        },
        {
          "name": "C4",
          "midi": 60,
          "time": 44.89654049999986,
          "velocity": 0.7480314960629921,
          "duration": 0.20689649999999915
        },
        {
          "name": "D3",
          "midi": 50,
          "time": 44.89654049999986,
          "velocity": 0.7480314960629921,
          "duration": 0.20689649999999915
        },
        {
          "name": "A4",
          "midi": 69,
          "time": 45.10343699999986,
          "velocity": 0.7480314960629921,
          "duration": 0.4137929999999983
        },
        {
          "name": "B3",
          "midi": 59,
          "time": 45.10343699999986,
          "velocity": 0.7480314960629921,
          "duration": 0.4137929999999983
        },
        {
          "name": "C4",
          "midi": 60,
          "time": 45.10343699999986,
          "velocity": 0.7480314960629921,
          "duration": 0.4137929999999983
        },
        {
          "name": "D3",
          "midi": 50,
          "time": 45.10343699999986,
          "velocity": 0.7480314960629921,
          "duration": 0.4137929999999983
        },
        {
          "name": "A4",
          "midi": 69,
          "time": 45.517229999999856,
          "velocity": 0.7480314960629921,
          "duration": 0.20689649999999915
        },
        {
          "name": "B3",
          "midi": 59,
          "time": 45.517229999999856,
          "velocity": 0.7480314960629921,
          "duration": 0.20689649999999915
        },
        {
          "name": "C4",
          "midi": 60,
          "time": 45.517229999999856,
          "velocity": 0.7480314960629921,
          "duration": 0.20689649999999915
        },
        {
          "name": "D3",
          "midi": 50,
          "time": 45.517229999999856,
          "velocity": 0.7480314960629921,
          "duration": 0.20689649999999915
        },
        {
          "name": "A4",
          "midi": 69,
          "time": 45.724126499999855,
          "velocity": 0.7480314960629921,
          "duration": 0.20689649999999915
        },
        {
          "name": "B3",
          "midi": 59,
          "time": 45.724126499999855,
          "velocity": 0.7480314960629921,
          "duration": 0.20689649999999915
        },
        {
          "name": "C4",
          "midi": 60,
          "time": 45.724126499999855,
          "velocity": 0.7480314960629921,
          "duration": 0.20689649999999915
        },
        {
          "name": "D3",
          "midi": 50,
          "time": 45.724126499999855,
          "velocity": 0.7480314960629921,
          "duration": 0.20689649999999915
        },
        {
          "name": "A4",
          "midi": 69,
          "time": 45.931022999999854,
          "velocity": 0.7480314960629921,
          "duration": 0.20689649999999915
        },
        {
          "name": "B3",
          "midi": 59,
          "time": 45.931022999999854,
          "velocity": 0.7480314960629921,
          "duration": 0.20689649999999915
        },
        {
          "name": "C4",
          "midi": 60,
          "time": 45.931022999999854,
          "velocity": 0.7480314960629921,
          "duration": 0.20689649999999915
        },
        {
          "name": "D3",
          "midi": 50,
          "time": 45.931022999999854,
          "velocity": 0.7480314960629921,
          "duration": 0.20689649999999915
        },
        {
          "name": "F#4",
          "midi": 66,
          "time": 46.34481599999985,
          "velocity": 0.7480314960629921,
          "duration": 0.20689649999999915
        },
        {
          "name": "D4",
          "midi": 62,
          "time": 46.34481599999985,
          "velocity": 0.7480314960629921,
          "duration": 0.20689649999999915
        },
        {
          "name": "A3",
          "midi": 57,
          "time": 46.34481599999985,
          "velocity": 0.7480314960629921,
          "duration": 0.20689649999999915
        },
        {
          "name": "D3",
          "midi": 50,
          "time": 46.34481599999985,
          "velocity": 0.7480314960629921,
          "duration": 0.20689649999999915
        },
        {
          "name": "F#4",
          "midi": 66,
          "time": 46.55171249999985,
          "velocity": 0.7480314960629921,
          "duration": 0.20689649999999915
        },
        {
          "name": "D4",
          "midi": 62,
          "time": 46.55171249999985,
          "velocity": 0.7480314960629921,
          "duration": 0.20689649999999915
        },
        {
          "name": "A3",
          "midi": 57,
          "time": 46.55171249999985,
          "velocity": 0.7480314960629921,
          "duration": 0.20689649999999915
        },
        {
          "name": "D3",
          "midi": 50,
          "time": 46.55171249999985,
          "velocity": 0.7480314960629921,
          "duration": 0.20689649999999915
        },
        {
          "name": "F#4",
          "midi": 66,
          "time": 46.75860899999985,
          "velocity": 0.7480314960629921,
          "duration": 0.20689649999999915
        },
        {
          "name": "D4",
          "midi": 62,
          "time": 46.75860899999985,
          "velocity": 0.7480314960629921,
          "duration": 0.20689649999999915
        },
        {
          "name": "A3",
          "midi": 57,
          "time": 46.75860899999985,
          "velocity": 0.7480314960629921,
          "duration": 0.20689649999999915
        },
        {
          "name": "D3",
          "midi": 50,
          "time": 46.75860899999985,
          "velocity": 0.7480314960629921,
          "duration": 0.20689649999999915
        },
        {
          "name": "F#4",
          "midi": 66,
          "time": 46.96550549999985,
          "velocity": 0.7480314960629921,
          "duration": 0.20689649999999915
        },
        {
          "name": "D4",
          "midi": 62,
          "time": 46.96550549999985,
          "velocity": 0.7480314960629921,
          "duration": 0.20689649999999915
        },
        {
          "name": "A3",
          "midi": 57,
          "time": 46.96550549999985,
          "velocity": 0.7480314960629921,
          "duration": 0.20689649999999915
        },
        {
          "name": "D3",
          "midi": 50,
          "time": 46.96550549999985,
          "velocity": 0.7480314960629921,
          "duration": 0.20689649999999915
        },
        {
          "name": "F#4",
          "midi": 66,
          "time": 47.17240199999985,
          "velocity": 0.7480314960629921,
          "duration": 0.20689649999999915
        },
        {
          "name": "D4",
          "midi": 62,
          "time": 47.17240199999985,
          "velocity": 0.7480314960629921,
          "duration": 0.20689649999999915
        },
        {
          "name": "A3",
          "midi": 57,
          "time": 47.17240199999985,
          "velocity": 0.7480314960629921,
          "duration": 0.20689649999999915
        },
        {
          "name": "D3",
          "midi": 50,
          "time": 47.17240199999985,
          "velocity": 0.7480314960629921,
          "duration": 0.20689649999999915
        },
        {
          "name": "F#4",
          "midi": 66,
          "time": 47.37929849999985,
          "velocity": 0.7480314960629921,
          "duration": 0.20689649999999915
        },
        {
          "name": "D4",
          "midi": 62,
          "time": 47.37929849999985,
          "velocity": 0.7480314960629921,
          "duration": 0.20689649999999915
        },
        {
          "name": "A3",
          "midi": 57,
          "time": 47.37929849999985,
          "velocity": 0.7480314960629921,
          "duration": 0.20689649999999915
        },
        {
          "name": "D3",
          "midi": 50,
          "time": 47.37929849999985,
          "velocity": 0.7480314960629921,
          "duration": 0.20689649999999915
        },
        {
          "name": "F#4",
          "midi": 66,
          "time": 47.58619499999985,
          "velocity": 0.7480314960629921,
          "duration": 0.20689649999999915
        },
        {
          "name": "D4",
          "midi": 62,
          "time": 47.58619499999985,
          "velocity": 0.7480314960629921,
          "duration": 0.20689649999999915
        },
        {
          "name": "A3",
          "midi": 57,
          "time": 47.58619499999985,
          "velocity": 0.7480314960629921,
          "duration": 0.20689649999999915
        },
        {
          "name": "D3",
          "midi": 50,
          "time": 47.58619499999985,
          "velocity": 0.7480314960629921,
          "duration": 0.20689649999999915
        },
        {
          "name": "F#4",
          "midi": 66,
          "time": 47.793091499999846,
          "velocity": 0.7480314960629921,
          "duration": 0.20689649999999915
        },
        {
          "name": "D4",
          "midi": 62,
          "time": 47.793091499999846,
          "velocity": 0.7480314960629921,
          "duration": 0.20689649999999915
        },
        {
          "name": "A3",
          "midi": 57,
          "time": 47.793091499999846,
          "velocity": 0.7480314960629921,
          "duration": 0.20689649999999915
        },
        {
          "name": "D3",
          "midi": 50,
          "time": 47.793091499999846,
          "velocity": 0.7480314960629921,
          "duration": 0.20689649999999915
        },
        {
          "name": "F#4",
          "midi": 66,
          "time": 47.999987999999846,
          "velocity": 0.7480314960629921,
          "duration": 0.20689649999999915
        },
        {
          "name": "D4",
          "midi": 62,
          "time": 47.999987999999846,
          "velocity": 0.7480314960629921,
          "duration": 0.20689649999999915
        },
        {
          "name": "A3",
          "midi": 57,
          "time": 47.999987999999846,
          "velocity": 0.7480314960629921,
          "duration": 0.20689649999999915
        },
        {
          "name": "D3",
          "midi": 50,
          "time": 47.999987999999846,
          "velocity": 0.7480314960629921,
          "duration": 0.20689649999999915
        },
        {
          "name": "F#4",
          "midi": 66,
          "time": 48.206884499999845,
          "velocity": 0.7480314960629921,
          "duration": 0.20689649999999915
        },
        {
          "name": "D4",
          "midi": 62,
          "time": 48.206884499999845,
          "velocity": 0.7480314960629921,
          "duration": 0.20689649999999915
        },
        {
          "name": "A3",
          "midi": 57,
          "time": 48.206884499999845,
          "velocity": 0.7480314960629921,
          "duration": 0.20689649999999915
        },
        {
          "name": "D3",
          "midi": 50,
          "time": 48.206884499999845,
          "velocity": 0.7480314960629921,
          "duration": 0.20689649999999915
        },
        {
          "name": "F#4",
          "midi": 66,
          "time": 48.413780999999844,
          "velocity": 0.7480314960629921,
          "duration": 0.20689649999999915
        },
        {
          "name": "D4",
          "midi": 62,
          "time": 48.413780999999844,
          "velocity": 0.7480314960629921,
          "duration": 0.20689649999999915
        },
        {
          "name": "A3",
          "midi": 57,
          "time": 48.413780999999844,
          "velocity": 0.7480314960629921,
          "duration": 0.20689649999999915
        },
        {
          "name": "D3",
          "midi": 50,
          "time": 48.413780999999844,
          "velocity": 0.7480314960629921,
          "duration": 0.20689649999999915
        },
        {
          "name": "F#4",
          "midi": 66,
          "time": 48.62067749999984,
          "velocity": 0.7480314960629921,
          "duration": 0.20689649999999915
        },
        {
          "name": "D4",
          "midi": 62,
          "time": 48.62067749999984,
          "velocity": 0.7480314960629921,
          "duration": 0.20689649999999915
        },
        {
          "name": "A3",
          "midi": 57,
          "time": 48.62067749999984,
          "velocity": 0.7480314960629921,
          "duration": 0.20689649999999915
        },
        {
          "name": "D3",
          "midi": 50,
          "time": 48.62067749999984,
          "velocity": 0.7480314960629921,
          "duration": 0.20689649999999915
        },
        {
          "name": "F#4",
          "midi": 66,
          "time": 48.82757399999984,
          "velocity": 0.7480314960629921,
          "duration": 0.20689649999999915
        },
        {
          "name": "D4",
          "midi": 62,
          "time": 48.82757399999984,
          "velocity": 0.7480314960629921,
          "duration": 0.20689649999999915
        },
        {
          "name": "A3",
          "midi": 57,
          "time": 48.82757399999984,
          "velocity": 0.7480314960629921,
          "duration": 0.20689649999999915
        },
        {
          "name": "D3",
          "midi": 50,
          "time": 48.82757399999984,
          "velocity": 0.7480314960629921,
          "duration": 0.20689649999999915
        },
        {
          "name": "F#4",
          "midi": 66,
          "time": 49.03447049999984,
          "velocity": 0.7480314960629921,
          "duration": 0.20689649999999915
        },
        {
          "name": "D4",
          "midi": 62,
          "time": 49.03447049999984,
          "velocity": 0.7480314960629921,
          "duration": 0.20689649999999915
        },
        {
          "name": "A3",
          "midi": 57,
          "time": 49.03447049999984,
          "velocity": 0.7480314960629921,
          "duration": 0.20689649999999915
        },
        {
          "name": "D3",
          "midi": 50,
          "time": 49.03447049999984,
          "velocity": 0.7480314960629921,
          "duration": 0.20689649999999915
        },
        {
          "name": "F#4",
          "midi": 66,
          "time": 49.24136699999984,
          "velocity": 0.7480314960629921,
          "duration": 0.20689649999999915
        },
        {
          "name": "D4",
          "midi": 62,
          "time": 49.24136699999984,
          "velocity": 0.7480314960629921,
          "duration": 0.20689649999999915
        },
        {
          "name": "A3",
          "midi": 57,
          "time": 49.24136699999984,
          "velocity": 0.7480314960629921,
          "duration": 0.20689649999999915
        },
        {
          "name": "D3",
          "midi": 50,
          "time": 49.24136699999984,
          "velocity": 0.7480314960629921,
          "duration": 0.20689649999999915
        },
        {
          "name": "F#4",
          "midi": 66,
          "time": 49.44826349999984,
          "velocity": 0.7480314960629921,
          "duration": 0.20689649999999915
        },
        {
          "name": "D4",
          "midi": 62,
          "time": 49.44826349999984,
          "velocity": 0.7480314960629921,
          "duration": 0.20689649999999915
        },
        {
          "name": "A3",
          "midi": 57,
          "time": 49.44826349999984,
          "velocity": 0.7480314960629921,
          "duration": 0.20689649999999915
        },
        {
          "name": "D3",
          "midi": 50,
          "time": 49.44826349999984,
          "velocity": 0.7480314960629921,
          "duration": 0.20689649999999915
        },
        {
          "name": "C4",
          "midi": 60,
          "time": 49.65515999999984,
          "velocity": 0.7480314960629921,
          "duration": 0.20689649999999915
        },
        {
          "name": "A3",
          "midi": 57,
          "time": 49.65515999999984,
          "velocity": 0.7480314960629921,
          "duration": 0.20689649999999915
        },
        {
          "name": "E3",
          "midi": 52,
          "time": 49.65515999999984,
          "velocity": 0.7480314960629921,
          "duration": 0.20689649999999915
        },
        {
          "name": "A2",
          "midi": 45,
          "time": 49.65515999999984,
          "velocity": 0.7480314960629921,
          "duration": 0.20689649999999915
        },
        {
          "name": "C4",
          "midi": 60,
          "time": 49.86205649999984,
          "velocity": 0.7480314960629921,
          "duration": 0.20689649999999915
        },
        {
          "name": "A3",
          "midi": 57,
          "time": 49.86205649999984,
          "velocity": 0.7480314960629921,
          "duration": 0.20689649999999915
        },
        {
          "name": "E3",
          "midi": 52,
          "time": 49.86205649999984,
          "velocity": 0.7480314960629921,
          "duration": 0.20689649999999915
        },
        {
          "name": "A2",
          "midi": 45,
          "time": 49.86205649999984,
          "velocity": 0.7480314960629921,
          "duration": 0.20689649999999915
        },
        {
          "name": "C4",
          "midi": 60,
          "time": 50.06895299999984,
          "velocity": 0.7480314960629921,
          "duration": 0.20689649999999915
        },
        {
          "name": "A3",
          "midi": 57,
          "time": 50.06895299999984,
          "velocity": 0.7480314960629921,
          "duration": 0.20689649999999915
        },
        {
          "name": "E3",
          "midi": 52,
          "time": 50.06895299999984,
          "velocity": 0.7480314960629921,
          "duration": 0.20689649999999915
        },
        {
          "name": "A2",
          "midi": 45,
          "time": 50.06895299999984,
          "velocity": 0.7480314960629921,
          "duration": 0.20689649999999915
        },
        {
          "name": "C4",
          "midi": 60,
          "time": 50.275849499999836,
          "velocity": 0.7480314960629921,
          "duration": 0.20689649999999915
        },
        {
          "name": "A3",
          "midi": 57,
          "time": 50.275849499999836,
          "velocity": 0.7480314960629921,
          "duration": 0.20689649999999915
        },
        {
          "name": "E3",
          "midi": 52,
          "time": 50.275849499999836,
          "velocity": 0.7480314960629921,
          "duration": 0.20689649999999915
        },
        {
          "name": "A2",
          "midi": 45,
          "time": 50.275849499999836,
          "velocity": 0.7480314960629921,
          "duration": 0.20689649999999915
        },
        {
          "name": "C4",
          "midi": 60,
          "time": 50.482745999999835,
          "velocity": 0.7480314960629921,
          "duration": 0.20689649999999915
        },
        {
          "name": "A3",
          "midi": 57,
          "time": 50.482745999999835,
          "velocity": 0.7480314960629921,
          "duration": 0.20689649999999915
        },
        {
          "name": "E3",
          "midi": 52,
          "time": 50.482745999999835,
          "velocity": 0.7480314960629921,
          "duration": 0.20689649999999915
        },
        {
          "name": "A2",
          "midi": 45,
          "time": 50.482745999999835,
          "velocity": 0.7480314960629921,
          "duration": 0.20689649999999915
        },
        {
          "name": "C4",
          "midi": 60,
          "time": 50.689642499999835,
          "velocity": 0.7480314960629921,
          "duration": 0.20689649999999915
        },
        {
          "name": "A3",
          "midi": 57,
          "time": 50.689642499999835,
          "velocity": 0.7480314960629921,
          "duration": 0.20689649999999915
        },
        {
          "name": "E3",
          "midi": 52,
          "time": 50.689642499999835,
          "velocity": 0.7480314960629921,
          "duration": 0.20689649999999915
        },
        {
          "name": "A2",
          "midi": 45,
          "time": 50.689642499999835,
          "velocity": 0.7480314960629921,
          "duration": 0.20689649999999915
        },
        {
          "name": "C4",
          "midi": 60,
          "time": 50.896538999999834,
          "velocity": 0.7480314960629921,
          "duration": 0.20689649999999915
        },
        {
          "name": "A3",
          "midi": 57,
          "time": 50.896538999999834,
          "velocity": 0.7480314960629921,
          "duration": 0.20689649999999915
        },
        {
          "name": "E3",
          "midi": 52,
          "time": 50.896538999999834,
          "velocity": 0.7480314960629921,
          "duration": 0.20689649999999915
        },
        {
          "name": "A2",
          "midi": 45,
          "time": 50.896538999999834,
          "velocity": 0.7480314960629921,
          "duration": 0.20689649999999915
        },
        {
          "name": "C4",
          "midi": 60,
          "time": 51.10343549999983,
          "velocity": 0.7480314960629921,
          "duration": 0.20689649999999915
        },
        {
          "name": "A3",
          "midi": 57,
          "time": 51.10343549999983,
          "velocity": 0.7480314960629921,
          "duration": 0.20689649999999915
        },
        {
          "name": "E3",
          "midi": 52,
          "time": 51.10343549999983,
          "velocity": 0.7480314960629921,
          "duration": 0.20689649999999915
        },
        {
          "name": "A2",
          "midi": 45,
          "time": 51.10343549999983,
          "velocity": 0.7480314960629921,
          "duration": 0.20689649999999915
        },
        {
          "name": "C4",
          "midi": 60,
          "time": 51.31033199999983,
          "velocity": 0.7480314960629921,
          "duration": 0.20689649999999915
        },
        {
          "name": "A3",
          "midi": 57,
          "time": 51.31033199999983,
          "velocity": 0.7480314960629921,
          "duration": 0.20689649999999915
        },
        {
          "name": "E3",
          "midi": 52,
          "time": 51.31033199999983,
          "velocity": 0.7480314960629921,
          "duration": 0.20689649999999915
        },
        {
          "name": "A2",
          "midi": 45,
          "time": 51.31033199999983,
          "velocity": 0.7480314960629921,
          "duration": 0.20689649999999915
        },
        {
          "name": "C4",
          "midi": 60,
          "time": 51.51722849999983,
          "velocity": 0.7480314960629921,
          "duration": 0.20689649999999915
        },
        {
          "name": "A3",
          "midi": 57,
          "time": 51.51722849999983,
          "velocity": 0.7480314960629921,
          "duration": 0.20689649999999915
        },
        {
          "name": "E3",
          "midi": 52,
          "time": 51.51722849999983,
          "velocity": 0.7480314960629921,
          "duration": 0.20689649999999915
        },
        {
          "name": "A2",
          "midi": 45,
          "time": 51.51722849999983,
          "velocity": 0.7480314960629921,
          "duration": 0.20689649999999915
        },
        {
          "name": "C4",
          "midi": 60,
          "time": 51.72412499999983,
          "velocity": 0.7480314960629921,
          "duration": 0.20689649999999915
        },
        {
          "name": "A3",
          "midi": 57,
          "time": 51.72412499999983,
          "velocity": 0.7480314960629921,
          "duration": 0.20689649999999915
        },
        {
          "name": "E3",
          "midi": 52,
          "time": 51.72412499999983,
          "velocity": 0.7480314960629921,
          "duration": 0.20689649999999915
        },
        {
          "name": "A2",
          "midi": 45,
          "time": 51.72412499999983,
          "velocity": 0.7480314960629921,
          "duration": 0.20689649999999915
        },
        {
          "name": "C4",
          "midi": 60,
          "time": 51.93102149999983,
          "velocity": 0.7480314960629921,
          "duration": 0.20689649999999915
        },
        {
          "name": "A3",
          "midi": 57,
          "time": 51.93102149999983,
          "velocity": 0.7480314960629921,
          "duration": 0.20689649999999915
        },
        {
          "name": "E3",
          "midi": 52,
          "time": 51.93102149999983,
          "velocity": 0.7480314960629921,
          "duration": 0.20689649999999915
        },
        {
          "name": "A2",
          "midi": 45,
          "time": 51.93102149999983,
          "velocity": 0.7480314960629921,
          "duration": 0.20689649999999915
        },
        {
          "name": "C4",
          "midi": 60,
          "time": 52.13791799999983,
          "velocity": 0.7480314960629921,
          "duration": 0.20689649999999915
        },
        {
          "name": "A3",
          "midi": 57,
          "time": 52.13791799999983,
          "velocity": 0.7480314960629921,
          "duration": 0.20689649999999915
        },
        {
          "name": "E3",
          "midi": 52,
          "time": 52.13791799999983,
          "velocity": 0.7480314960629921,
          "duration": 0.20689649999999915
        },
        {
          "name": "A2",
          "midi": 45,
          "time": 52.13791799999983,
          "velocity": 0.7480314960629921,
          "duration": 0.20689649999999915
        },
        {
          "name": "C4",
          "midi": 60,
          "time": 52.34481449999983,
          "velocity": 0.7480314960629921,
          "duration": 0.20689649999999915
        },
        {
          "name": "A3",
          "midi": 57,
          "time": 52.34481449999983,
          "velocity": 0.7480314960629921,
          "duration": 0.20689649999999915
        },
        {
          "name": "E3",
          "midi": 52,
          "time": 52.34481449999983,
          "velocity": 0.7480314960629921,
          "duration": 0.20689649999999915
        },
        {
          "name": "A2",
          "midi": 45,
          "time": 52.34481449999983,
          "velocity": 0.7480314960629921,
          "duration": 0.20689649999999915
        },
        {
          "name": "C4",
          "midi": 60,
          "time": 52.55171099999983,
          "velocity": 0.7480314960629921,
          "duration": 0.20689649999999915
        },
        {
          "name": "A3",
          "midi": 57,
          "time": 52.55171099999983,
          "velocity": 0.7480314960629921,
          "duration": 0.20689649999999915
        },
        {
          "name": "E3",
          "midi": 52,
          "time": 52.55171099999983,
          "velocity": 0.7480314960629921,
          "duration": 0.20689649999999915
        },
        {
          "name": "A2",
          "midi": 45,
          "time": 52.55171099999983,
          "velocity": 0.7480314960629921,
          "duration": 0.20689649999999915
        },
        {
          "name": "C4",
          "midi": 60,
          "time": 52.758607499999826,
          "velocity": 0.7480314960629921,
          "duration": 0.20689649999999915
        },
        {
          "name": "A3",
          "midi": 57,
          "time": 52.758607499999826,
          "velocity": 0.7480314960629921,
          "duration": 0.20689649999999915
        },
        {
          "name": "E3",
          "midi": 52,
          "time": 52.758607499999826,
          "velocity": 0.7480314960629921,
          "duration": 0.20689649999999915
        },
        {
          "name": "A2",
          "midi": 45,
          "time": 52.758607499999826,
          "velocity": 0.7480314960629921,
          "duration": 0.20689649999999915
        },
        {
          "name": "E4",
          "midi": 64,
          "time": 52.965503999999825,
          "velocity": 0.7480314960629921,
          "duration": 0.20689649999999915
        },
        {
          "name": "C4",
          "midi": 60,
          "time": 52.965503999999825,
          "velocity": 0.7480314960629921,
          "duration": 0.20689649999999915
        },
        {
          "name": "G3",
          "midi": 55,
          "time": 52.965503999999825,
          "velocity": 0.7480314960629921,
          "duration": 0.20689649999999915
        },
        {
          "name": "C3",
          "midi": 48,
          "time": 52.965503999999825,
          "velocity": 0.7480314960629921,
          "duration": 0.20689649999999915
        },
        {
          "name": "E4",
          "midi": 64,
          "time": 53.172400499999824,
          "velocity": 0.7480314960629921,
          "duration": 0.20689649999999915
        },
        {
          "name": "C4",
          "midi": 60,
          "time": 53.172400499999824,
          "velocity": 0.7480314960629921,
          "duration": 0.20689649999999915
        },
        {
          "name": "G3",
          "midi": 55,
          "time": 53.172400499999824,
          "velocity": 0.7480314960629921,
          "duration": 0.20689649999999915
        },
        {
          "name": "C3",
          "midi": 48,
          "time": 53.172400499999824,
          "velocity": 0.7480314960629921,
          "duration": 0.20689649999999915
        },
        {
          "name": "E4",
          "midi": 64,
          "time": 53.37929699999982,
          "velocity": 0.7480314960629921,
          "duration": 0.20689649999999915
        },
        {
          "name": "C4",
          "midi": 60,
          "time": 53.37929699999982,
          "velocity": 0.7480314960629921,
          "duration": 0.20689649999999915
        },
        {
          "name": "G3",
          "midi": 55,
          "time": 53.37929699999982,
          "velocity": 0.7480314960629921,
          "duration": 0.20689649999999915
        },
        {
          "name": "C3",
          "midi": 48,
          "time": 53.37929699999982,
          "velocity": 0.7480314960629921,
          "duration": 0.20689649999999915
        },
        {
          "name": "E4",
          "midi": 64,
          "time": 53.58619349999982,
          "velocity": 0.7480314960629921,
          "duration": 0.20689649999999915
        },
        {
          "name": "C4",
          "midi": 60,
          "time": 53.58619349999982,
          "velocity": 0.7480314960629921,
          "duration": 0.20689649999999915
        },
        {
          "name": "G3",
          "midi": 55,
          "time": 53.58619349999982,
          "velocity": 0.7480314960629921,
          "duration": 0.20689649999999915
        },
        {
          "name": "C3",
          "midi": 48,
          "time": 53.58619349999982,
          "velocity": 0.7480314960629921,
          "duration": 0.20689649999999915
        },
        {
          "name": "E4",
          "midi": 64,
          "time": 53.79308999999982,
          "velocity": 0.7480314960629921,
          "duration": 0.20689649999999915
        },
        {
          "name": "C4",
          "midi": 60,
          "time": 53.79308999999982,
          "velocity": 0.7480314960629921,
          "duration": 0.20689649999999915
        },
        {
          "name": "G3",
          "midi": 55,
          "time": 53.79308999999982,
          "velocity": 0.7480314960629921,
          "duration": 0.20689649999999915
        },
        {
          "name": "C3",
          "midi": 48,
          "time": 53.79308999999982,
          "velocity": 0.7480314960629921,
          "duration": 0.20689649999999915
        },
        {
          "name": "E4",
          "midi": 64,
          "time": 53.99998649999982,
          "velocity": 0.7480314960629921,
          "duration": 0.20689649999999915
        },
        {
          "name": "C4",
          "midi": 60,
          "time": 53.99998649999982,
          "velocity": 0.7480314960629921,
          "duration": 0.20689649999999915
        },
        {
          "name": "G3",
          "midi": 55,
          "time": 53.99998649999982,
          "velocity": 0.7480314960629921,
          "duration": 0.20689649999999915
        },
        {
          "name": "C3",
          "midi": 48,
          "time": 53.99998649999982,
          "velocity": 0.7480314960629921,
          "duration": 0.20689649999999915
        },
        {
          "name": "E4",
          "midi": 64,
          "time": 54.20688299999982,
          "velocity": 0.7480314960629921,
          "duration": 0.20689649999999915
        },
        {
          "name": "C4",
          "midi": 60,
          "time": 54.20688299999982,
          "velocity": 0.7480314960629921,
          "duration": 0.20689649999999915
        },
        {
          "name": "G3",
          "midi": 55,
          "time": 54.20688299999982,
          "velocity": 0.7480314960629921,
          "duration": 0.20689649999999915
        },
        {
          "name": "C3",
          "midi": 48,
          "time": 54.20688299999982,
          "velocity": 0.7480314960629921,
          "duration": 0.20689649999999915
        },
        {
          "name": "E4",
          "midi": 64,
          "time": 54.41377949999982,
          "velocity": 0.7480314960629921,
          "duration": 0.20689649999999915
        },
        {
          "name": "C4",
          "midi": 60,
          "time": 54.41377949999982,
          "velocity": 0.7480314960629921,
          "duration": 0.20689649999999915
        },
        {
          "name": "G3",
          "midi": 55,
          "time": 54.41377949999982,
          "velocity": 0.7480314960629921,
          "duration": 0.20689649999999915
        },
        {
          "name": "C3",
          "midi": 48,
          "time": 54.41377949999982,
          "velocity": 0.7480314960629921,
          "duration": 0.20689649999999915
        },
        {
          "name": "G3",
          "midi": 55,
          "time": 54.62067599999982,
          "velocity": 0.7480314960629921,
          "duration": 0.20689649999999915
        },
        {
          "name": "E3",
          "midi": 52,
          "time": 54.62067599999982,
          "velocity": 0.7480314960629921,
          "duration": 0.20689649999999915
        },
        {
          "name": "B2",
          "midi": 47,
          "time": 54.62067599999982,
          "velocity": 0.7480314960629921,
          "duration": 0.20689649999999915
        },
        {
          "name": "E2",
          "midi": 40,
          "time": 54.62067599999982,
          "velocity": 0.7480314960629921,
          "duration": 0.20689649999999915
        },
        {
          "name": "G3",
          "midi": 55,
          "time": 54.82757249999982,
          "velocity": 0.7480314960629921,
          "duration": 0.20689649999999915
        },
        {
          "name": "E3",
          "midi": 52,
          "time": 54.82757249999982,
          "velocity": 0.7480314960629921,
          "duration": 0.20689649999999915
        },
        {
          "name": "B2",
          "midi": 47,
          "time": 54.82757249999982,
          "velocity": 0.7480314960629921,
          "duration": 0.20689649999999915
        },
        {
          "name": "E2",
          "midi": 40,
          "time": 54.82757249999982,
          "velocity": 0.7480314960629921,
          "duration": 0.20689649999999915
        },
        {
          "name": "G3",
          "midi": 55,
          "time": 55.03446899999982,
          "velocity": 0.7480314960629921,
          "duration": 0.20689649999999915
        },
        {
          "name": "E3",
          "midi": 52,
          "time": 55.03446899999982,
          "velocity": 0.7480314960629921,
          "duration": 0.20689649999999915
        },
        {
          "name": "B2",
          "midi": 47,
          "time": 55.03446899999982,
          "velocity": 0.7480314960629921,
          "duration": 0.20689649999999915
        },
        {
          "name": "E2",
          "midi": 40,
          "time": 55.03446899999982,
          "velocity": 0.7480314960629921,
          "duration": 0.20689649999999915
        },
        {
          "name": "G3",
          "midi": 55,
          "time": 55.241365499999816,
          "velocity": 0.7480314960629921,
          "duration": 0.20689649999999915
        },
        {
          "name": "E3",
          "midi": 52,
          "time": 55.241365499999816,
          "velocity": 0.7480314960629921,
          "duration": 0.20689649999999915
        },
        {
          "name": "B2",
          "midi": 47,
          "time": 55.241365499999816,
          "velocity": 0.7480314960629921,
          "duration": 0.20689649999999915
        },
        {
          "name": "E2",
          "midi": 40,
          "time": 55.241365499999816,
          "velocity": 0.7480314960629921,
          "duration": 0.20689649999999915
        },
        {
          "name": "G3",
          "midi": 55,
          "time": 55.448261999999815,
          "velocity": 0.7480314960629921,
          "duration": 0.20689649999999915
        },
        {
          "name": "E3",
          "midi": 52,
          "time": 55.448261999999815,
          "velocity": 0.7480314960629921,
          "duration": 0.20689649999999915
        },
        {
          "name": "B2",
          "midi": 47,
          "time": 55.448261999999815,
          "velocity": 0.7480314960629921,
          "duration": 0.20689649999999915
        },
        {
          "name": "E2",
          "midi": 40,
          "time": 55.448261999999815,
          "velocity": 0.7480314960629921,
          "duration": 0.20689649999999915
        },
        {
          "name": "G3",
          "midi": 55,
          "time": 55.655158499999814,
          "velocity": 0.7480314960629921,
          "duration": 0.20689649999999915
        },
        {
          "name": "E3",
          "midi": 52,
          "time": 55.655158499999814,
          "velocity": 0.7480314960629921,
          "duration": 0.20689649999999915
        },
        {
          "name": "B2",
          "midi": 47,
          "time": 55.655158499999814,
          "velocity": 0.7480314960629921,
          "duration": 0.20689649999999915
        },
        {
          "name": "E2",
          "midi": 40,
          "time": 55.655158499999814,
          "velocity": 0.7480314960629921,
          "duration": 0.20689649999999915
        },
        {
          "name": "G3",
          "midi": 55,
          "time": 55.86205499999981,
          "velocity": 0.7480314960629921,
          "duration": 0.20689649999999915
        },
        {
          "name": "E3",
          "midi": 52,
          "time": 55.86205499999981,
          "velocity": 0.7480314960629921,
          "duration": 0.20689649999999915
        },
        {
          "name": "B2",
          "midi": 47,
          "time": 55.86205499999981,
          "velocity": 0.7480314960629921,
          "duration": 0.20689649999999915
        },
        {
          "name": "E2",
          "midi": 40,
          "time": 55.86205499999981,
          "velocity": 0.7480314960629921,
          "duration": 0.20689649999999915
        },
        {
          "name": "G3",
          "midi": 55,
          "time": 56.06895149999981,
          "velocity": 0.7480314960629921,
          "duration": 0.20689649999999915
        },
        {
          "name": "E3",
          "midi": 52,
          "time": 56.06895149999981,
          "velocity": 0.7480314960629921,
          "duration": 0.20689649999999915
        },
        {
          "name": "B2",
          "midi": 47,
          "time": 56.06895149999981,
          "velocity": 0.7480314960629921,
          "duration": 0.20689649999999915
        },
        {
          "name": "E2",
          "midi": 40,
          "time": 56.06895149999981,
          "velocity": 0.7480314960629921,
          "duration": 0.20689649999999915
        },
        {
          "name": "A4",
          "midi": 69,
          "time": 56.27584799999981,
          "velocity": 0.7480314960629921,
          "duration": 0.20689649999999915
        },
        {
          "name": "B3",
          "midi": 59,
          "time": 56.27584799999981,
          "velocity": 0.7480314960629921,
          "duration": 0.20689649999999915
        },
        {
          "name": "D4",
          "midi": 62,
          "time": 56.27584799999981,
          "velocity": 0.7480314960629921,
          "duration": 0.20689649999999915
        },
        {
          "name": "D3",
          "midi": 50,
          "time": 56.27584799999981,
          "velocity": 0.7480314960629921,
          "duration": 0.20689649999999915
        },
        {
          "name": "A4",
          "midi": 69,
          "time": 56.48274449999981,
          "velocity": 0.7480314960629921,
          "duration": 0.20689649999999915
        },
        {
          "name": "B3",
          "midi": 59,
          "time": 56.48274449999981,
          "velocity": 0.7480314960629921,
          "duration": 0.20689649999999915
        },
        {
          "name": "C4",
          "midi": 60,
          "time": 56.48274449999981,
          "velocity": 0.5511811023622047,
          "duration": 0.20689649999999915
        },
        {
          "name": "D3",
          "midi": 50,
          "time": 56.48274449999981,
          "velocity": 0.7480314960629921,
          "duration": 0.20689649999999915
        },
        {
          "name": "A4",
          "midi": 69,
          "time": 56.68964099999981,
          "velocity": 0.7480314960629921,
          "duration": 0.20689649999999915
        },
        {
          "name": "B3",
          "midi": 59,
          "time": 56.68964099999981,
          "velocity": 0.7480314960629921,
          "duration": 0.20689649999999915
        },
        {
          "name": "C4",
          "midi": 60,
          "time": 56.68964099999981,
          "velocity": 0.7480314960629921,
          "duration": 0.20689649999999915
        },
        {
          "name": "D3",
          "midi": 50,
          "time": 56.68964099999981,
          "velocity": 0.7480314960629921,
          "duration": 0.20689649999999915
        },
        {
          "name": "A4",
          "midi": 69,
          "time": 56.89653749999981,
          "velocity": 0.7480314960629921,
          "duration": 0.20689649999999915
        },
        {
          "name": "B3",
          "midi": 59,
          "time": 56.89653749999981,
          "velocity": 0.7480314960629921,
          "duration": 0.20689649999999915
        },
        {
          "name": "C4",
          "midi": 60,
          "time": 56.89653749999981,
          "velocity": 0.7480314960629921,
          "duration": 0.20689649999999915
        },
        {
          "name": "D3",
          "midi": 50,
          "time": 56.89653749999981,
          "velocity": 0.7480314960629921,
          "duration": 0.20689649999999915
        },
        {
          "name": "A4",
          "midi": 69,
          "time": 57.10343399999981,
          "velocity": 0.7480314960629921,
          "duration": 0.4137929999999983
        },
        {
          "name": "B3",
          "midi": 59,
          "time": 57.10343399999981,
          "velocity": 0.7480314960629921,
          "duration": 0.4137929999999983
        },
        {
          "name": "C4",
          "midi": 60,
          "time": 57.10343399999981,
          "velocity": 0.7480314960629921,
          "duration": 0.4137929999999983
        },
        {
          "name": "D3",
          "midi": 50,
          "time": 57.10343399999981,
          "velocity": 0.7480314960629921,
          "duration": 0.4137929999999983
        },
        {
          "name": "A4",
          "midi": 69,
          "time": 57.51722699999981,
          "velocity": 0.7480314960629921,
          "duration": 0.20689649999999915
        },
        {
          "name": "B3",
          "midi": 59,
          "time": 57.51722699999981,
          "velocity": 0.7480314960629921,
          "duration": 0.20689649999999915
        },
        {
          "name": "C4",
          "midi": 60,
          "time": 57.51722699999981,
          "velocity": 0.7480314960629921,
          "duration": 0.20689649999999915
        },
        {
          "name": "D3",
          "midi": 50,
          "time": 57.51722699999981,
          "velocity": 0.7480314960629921,
          "duration": 0.20689649999999915
        },
        {
          "name": "A4",
          "midi": 69,
          "time": 57.724123499999806,
          "velocity": 0.7480314960629921,
          "duration": 0.20689649999999915
        },
        {
          "name": "B3",
          "midi": 59,
          "time": 57.724123499999806,
          "velocity": 0.7480314960629921,
          "duration": 0.20689649999999915
        },
        {
          "name": "C4",
          "midi": 60,
          "time": 57.724123499999806,
          "velocity": 0.7480314960629921,
          "duration": 0.20689649999999915
        },
        {
          "name": "D3",
          "midi": 50,
          "time": 57.724123499999806,
          "velocity": 0.7480314960629921,
          "duration": 0.20689649999999915
        },
        {
          "name": "A4",
          "midi": 69,
          "time": 57.931019999999805,
          "velocity": 0.7480314960629921,
          "duration": 0.20689649999999915
        },
        {
          "name": "B3",
          "midi": 59,
          "time": 57.931019999999805,
          "velocity": 0.7480314960629921,
          "duration": 0.20689649999999915
        },
        {
          "name": "C4",
          "midi": 60,
          "time": 57.931019999999805,
          "velocity": 0.7480314960629921,
          "duration": 0.20689649999999915
        },
        {
          "name": "D3",
          "midi": 50,
          "time": 57.931019999999805,
          "velocity": 0.7480314960629921,
          "duration": 0.20689649999999915
        },
        {
          "name": "A4",
          "midi": 69,
          "time": 58.137916499999804,
          "velocity": 0.7480314960629921,
          "duration": 0.20689649999999915
        },
        {
          "name": "B3",
          "midi": 59,
          "time": 58.137916499999804,
          "velocity": 0.7480314960629921,
          "duration": 0.20689649999999915
        },
        {
          "name": "C4",
          "midi": 60,
          "time": 58.137916499999804,
          "velocity": 0.7480314960629921,
          "duration": 0.20689649999999915
        },
        {
          "name": "D3",
          "midi": 50,
          "time": 58.137916499999804,
          "velocity": 0.7480314960629921,
          "duration": 0.20689649999999915
        },
        {
          "name": "A4",
          "midi": 69,
          "time": 58.3448129999998,
          "velocity": 0.7480314960629921,
          "duration": 0.4137929999999983
        },
        {
          "name": "B3",
          "midi": 59,
          "time": 58.3448129999998,
          "velocity": 0.7480314960629921,
          "duration": 0.4137929999999983
        },
        {
          "name": "C4",
          "midi": 60,
          "time": 58.3448129999998,
          "velocity": 0.7480314960629921,
          "duration": 0.4137929999999983
        },
        {
          "name": "D3",
          "midi": 50,
          "time": 58.3448129999998,
          "velocity": 0.7480314960629921,
          "duration": 0.4137929999999983
        },
        {
          "name": "A4",
          "midi": 69,
          "time": 58.7586059999998,
          "velocity": 0.7480314960629921,
          "duration": 0.20689649999999915
        },
        {
          "name": "B3",
          "midi": 59,
          "time": 58.7586059999998,
          "velocity": 0.7480314960629921,
          "duration": 0.20689649999999915
        },
        {
          "name": "C4",
          "midi": 60,
          "time": 58.7586059999998,
          "velocity": 0.7480314960629921,
          "duration": 0.20689649999999915
        },
        {
          "name": "D3",
          "midi": 50,
          "time": 58.7586059999998,
          "velocity": 0.7480314960629921,
          "duration": 0.20689649999999915
        },
        {
          "name": "A4",
          "midi": 69,
          "time": 58.9655024999998,
          "velocity": 0.7480314960629921,
          "duration": 0.20689649999999915
        },
        {
          "name": "B3",
          "midi": 59,
          "time": 58.9655024999998,
          "velocity": 0.7480314960629921,
          "duration": 0.20689649999999915
        },
        {
          "name": "C4",
          "midi": 60,
          "time": 58.9655024999998,
          "velocity": 0.7480314960629921,
          "duration": 0.20689649999999915
        },
        {
          "name": "D3",
          "midi": 50,
          "time": 58.9655024999998,
          "velocity": 0.7480314960629921,
          "duration": 0.20689649999999915
        },
        {
          "name": "A4",
          "midi": 69,
          "time": 59.1723989999998,
          "velocity": 0.7480314960629921,
          "duration": 0.20689649999999915
        },
        {
          "name": "B3",
          "midi": 59,
          "time": 59.1723989999998,
          "velocity": 0.7480314960629921,
          "duration": 0.20689649999999915
        },
        {
          "name": "C4",
          "midi": 60,
          "time": 59.1723989999998,
          "velocity": 0.7480314960629921,
          "duration": 0.20689649999999915
        },
        {
          "name": "D3",
          "midi": 50,
          "time": 59.1723989999998,
          "velocity": 0.7480314960629921,
          "duration": 0.20689649999999915
        },
        {
          "name": "F#4",
          "midi": 66,
          "time": 59.5861919999998,
          "velocity": 0.7480314960629921,
          "duration": 0.20689649999999915
        },
        {
          "name": "D4",
          "midi": 62,
          "time": 59.5861919999998,
          "velocity": 0.7480314960629921,
          "duration": 0.20689649999999915
        },
        {
          "name": "A3",
          "midi": 57,
          "time": 59.5861919999998,
          "velocity": 0.7480314960629921,
          "duration": 0.20689649999999915
        },
        {
          "name": "D3",
          "midi": 50,
          "time": 59.5861919999998,
          "velocity": 0.7480314960629921,
          "duration": 0.20689649999999915
        },
        {
          "name": "F#4",
          "midi": 66,
          "time": 59.7930884999998,
          "velocity": 0.7480314960629921,
          "duration": 0.20689649999999915
        },
        {
          "name": "D4",
          "midi": 62,
          "time": 59.7930884999998,
          "velocity": 0.7480314960629921,
          "duration": 0.20689649999999915
        },
        {
          "name": "A3",
          "midi": 57,
          "time": 59.7930884999998,
          "velocity": 0.7480314960629921,
          "duration": 0.20689649999999915
        },
        {
          "name": "D3",
          "midi": 50,
          "time": 59.7930884999998,
          "velocity": 0.7480314960629921,
          "duration": 0.20689649999999915
        },
        {
          "name": "F#4",
          "midi": 66,
          "time": 59.999984999999796,
          "velocity": 0.7480314960629921,
          "duration": 0.20689649999999915
        },
        {
          "name": "D4",
          "midi": 62,
          "time": 59.999984999999796,
          "velocity": 0.7480314960629921,
          "duration": 0.20689649999999915
        },
        {
          "name": "A3",
          "midi": 57,
          "time": 59.999984999999796,
          "velocity": 0.7480314960629921,
          "duration": 0.20689649999999915
        },
        {
          "name": "D3",
          "midi": 50,
          "time": 59.999984999999796,
          "velocity": 0.7480314960629921,
          "duration": 0.20689649999999915
        },
        {
          "name": "F#4",
          "midi": 66,
          "time": 60.206881499999795,
          "velocity": 0.7480314960629921,
          "duration": 0.20689649999999915
        },
        {
          "name": "D4",
          "midi": 62,
          "time": 60.206881499999795,
          "velocity": 0.7480314960629921,
          "duration": 0.20689649999999915
        },
        {
          "name": "A3",
          "midi": 57,
          "time": 60.206881499999795,
          "velocity": 0.7480314960629921,
          "duration": 0.20689649999999915
        },
        {
          "name": "D3",
          "midi": 50,
          "time": 60.206881499999795,
          "velocity": 0.7480314960629921,
          "duration": 0.20689649999999915
        },
        {
          "name": "F#4",
          "midi": 66,
          "time": 60.413777999999795,
          "velocity": 0.7480314960629921,
          "duration": 0.20689649999999915
        },
        {
          "name": "D4",
          "midi": 62,
          "time": 60.413777999999795,
          "velocity": 0.7480314960629921,
          "duration": 0.20689649999999915
        },
        {
          "name": "A3",
          "midi": 57,
          "time": 60.413777999999795,
          "velocity": 0.7480314960629921,
          "duration": 0.20689649999999915
        },
        {
          "name": "D3",
          "midi": 50,
          "time": 60.413777999999795,
          "velocity": 0.7480314960629921,
          "duration": 0.20689649999999915
        },
        {
          "name": "F#4",
          "midi": 66,
          "time": 60.620674499999794,
          "velocity": 0.7480314960629921,
          "duration": 0.20689649999999915
        },
        {
          "name": "D4",
          "midi": 62,
          "time": 60.620674499999794,
          "velocity": 0.7480314960629921,
          "duration": 0.20689649999999915
        },
        {
          "name": "A3",
          "midi": 57,
          "time": 60.620674499999794,
          "velocity": 0.7480314960629921,
          "duration": 0.20689649999999915
        },
        {
          "name": "D3",
          "midi": 50,
          "time": 60.620674499999794,
          "velocity": 0.7480314960629921,
          "duration": 0.20689649999999915
        },
        {
          "name": "F#4",
          "midi": 66,
          "time": 60.82757099999979,
          "velocity": 0.7480314960629921,
          "duration": 0.20689649999999915
        },
        {
          "name": "D4",
          "midi": 62,
          "time": 60.82757099999979,
          "velocity": 0.7480314960629921,
          "duration": 0.20689649999999915
        },
        {
          "name": "A3",
          "midi": 57,
          "time": 60.82757099999979,
          "velocity": 0.7480314960629921,
          "duration": 0.20689649999999915
        },
        {
          "name": "D3",
          "midi": 50,
          "time": 60.82757099999979,
          "velocity": 0.7480314960629921,
          "duration": 0.20689649999999915
        },
        {
          "name": "F#4",
          "midi": 66,
          "time": 61.03446749999979,
          "velocity": 0.7480314960629921,
          "duration": 0.20689649999999915
        },
        {
          "name": "D4",
          "midi": 62,
          "time": 61.03446749999979,
          "velocity": 0.7480314960629921,
          "duration": 0.20689649999999915
        },
        {
          "name": "A3",
          "midi": 57,
          "time": 61.03446749999979,
          "velocity": 0.7480314960629921,
          "duration": 0.20689649999999915
        },
        {
          "name": "D3",
          "midi": 50,
          "time": 61.03446749999979,
          "velocity": 0.7480314960629921,
          "duration": 0.20689649999999915
        },
        {
          "name": "F#4",
          "midi": 66,
          "time": 61.24136399999979,
          "velocity": 0.7480314960629921,
          "duration": 0.20689649999999915
        },
        {
          "name": "D4",
          "midi": 62,
          "time": 61.24136399999979,
          "velocity": 0.7480314960629921,
          "duration": 0.20689649999999915
        },
        {
          "name": "A3",
          "midi": 57,
          "time": 61.24136399999979,
          "velocity": 0.7480314960629921,
          "duration": 0.20689649999999915
        },
        {
          "name": "D3",
          "midi": 50,
          "time": 61.24136399999979,
          "velocity": 0.7480314960629921,
          "duration": 0.20689649999999915
        },
        {
          "name": "F#4",
          "midi": 66,
          "time": 61.44826049999979,
          "velocity": 0.7480314960629921,
          "duration": 0.20689649999999915
        },
        {
          "name": "D4",
          "midi": 62,
          "time": 61.44826049999979,
          "velocity": 0.7480314960629921,
          "duration": 0.20689649999999915
        },
        {
          "name": "A3",
          "midi": 57,
          "time": 61.44826049999979,
          "velocity": 0.7480314960629921,
          "duration": 0.20689649999999915
        },
        {
          "name": "D3",
          "midi": 50,
          "time": 61.44826049999979,
          "velocity": 0.7480314960629921,
          "duration": 0.20689649999999915
        },
        {
          "name": "F#4",
          "midi": 66,
          "time": 61.65515699999979,
          "velocity": 0.7480314960629921,
          "duration": 0.20689649999999915
        },
        {
          "name": "D4",
          "midi": 62,
          "time": 61.65515699999979,
          "velocity": 0.7480314960629921,
          "duration": 0.20689649999999915
        },
        {
          "name": "A3",
          "midi": 57,
          "time": 61.65515699999979,
          "velocity": 0.7480314960629921,
          "duration": 0.20689649999999915
        },
        {
          "name": "D3",
          "midi": 50,
          "time": 61.65515699999979,
          "velocity": 0.7480314960629921,
          "duration": 0.20689649999999915
        },
        {
          "name": "F#4",
          "midi": 66,
          "time": 61.86205349999979,
          "velocity": 0.7480314960629921,
          "duration": 0.20689649999999915
        },
        {
          "name": "D4",
          "midi": 62,
          "time": 61.86205349999979,
          "velocity": 0.7480314960629921,
          "duration": 0.20689649999999915
        },
        {
          "name": "A3",
          "midi": 57,
          "time": 61.86205349999979,
          "velocity": 0.7480314960629921,
          "duration": 0.20689649999999915
        },
        {
          "name": "D3",
          "midi": 50,
          "time": 61.86205349999979,
          "velocity": 0.7480314960629921,
          "duration": 0.20689649999999915
        },
        {
          "name": "F#4",
          "midi": 66,
          "time": 62.06894999999979,
          "velocity": 0.7480314960629921,
          "duration": 0.20689649999999915
        },
        {
          "name": "D4",
          "midi": 62,
          "time": 62.06894999999979,
          "velocity": 0.7480314960629921,
          "duration": 0.20689649999999915
        },
        {
          "name": "A3",
          "midi": 57,
          "time": 62.06894999999979,
          "velocity": 0.7480314960629921,
          "duration": 0.20689649999999915
        },
        {
          "name": "D3",
          "midi": 50,
          "time": 62.06894999999979,
          "velocity": 0.7480314960629921,
          "duration": 0.20689649999999915
        },
        {
          "name": "F#4",
          "midi": 66,
          "time": 62.27584649999979,
          "velocity": 0.7480314960629921,
          "duration": 0.20689649999999915
        },
        {
          "name": "D4",
          "midi": 62,
          "time": 62.27584649999979,
          "velocity": 0.7480314960629921,
          "duration": 0.20689649999999915
        },
        {
          "name": "A3",
          "midi": 57,
          "time": 62.27584649999979,
          "velocity": 0.7480314960629921,
          "duration": 0.20689649999999915
        },
        {
          "name": "D3",
          "midi": 50,
          "time": 62.27584649999979,
          "velocity": 0.7480314960629921,
          "duration": 0.20689649999999915
        },
        {
          "name": "F#4",
          "midi": 66,
          "time": 62.482742999999786,
          "velocity": 0.7480314960629921,
          "duration": 0.20689649999999915
        },
        {
          "name": "D4",
          "midi": 62,
          "time": 62.482742999999786,
          "velocity": 0.7480314960629921,
          "duration": 0.20689649999999915
        },
        {
          "name": "A3",
          "midi": 57,
          "time": 62.482742999999786,
          "velocity": 0.7480314960629921,
          "duration": 0.20689649999999915
        },
        {
          "name": "D3",
          "midi": 50,
          "time": 62.482742999999786,
          "velocity": 0.7480314960629921,
          "duration": 0.20689649999999915
        },
        {
          "name": "F#4",
          "midi": 66,
          "time": 62.689639499999785,
          "velocity": 0.7480314960629921,
          "duration": 0.20689649999999915
        },
        {
          "name": "D4",
          "midi": 62,
          "time": 62.689639499999785,
          "velocity": 0.7480314960629921,
          "duration": 0.20689649999999915
        },
        {
          "name": "A3",
          "midi": 57,
          "time": 62.689639499999785,
          "velocity": 0.7480314960629921,
          "duration": 0.20689649999999915
        },
        {
          "name": "D3",
          "midi": 50,
          "time": 62.689639499999785,
          "velocity": 0.7480314960629921,
          "duration": 0.20689649999999915
        },
        {
          "name": "C4",
          "midi": 60,
          "time": 62.896535999999784,
          "velocity": 0.7480314960629921,
          "duration": 0.20689649999999915
        },
        {
          "name": "A3",
          "midi": 57,
          "time": 62.896535999999784,
          "velocity": 0.7480314960629921,
          "duration": 0.20689649999999915
        },
        {
          "name": "E3",
          "midi": 52,
          "time": 62.896535999999784,
          "velocity": 0.7480314960629921,
          "duration": 0.20689649999999915
        },
        {
          "name": "A2",
          "midi": 45,
          "time": 62.896535999999784,
          "velocity": 0.7480314960629921,
          "duration": 0.20689649999999915
        },
        {
          "name": "C4",
          "midi": 60,
          "time": 63.10343249999978,
          "velocity": 0.7480314960629921,
          "duration": 0.20689649999999915
        },
        {
          "name": "A3",
          "midi": 57,
          "time": 63.10343249999978,
          "velocity": 0.7480314960629921,
          "duration": 0.20689649999999915
        },
        {
          "name": "E3",
          "midi": 52,
          "time": 63.10343249999978,
          "velocity": 0.7480314960629921,
          "duration": 0.20689649999999915
        },
        {
          "name": "A2",
          "midi": 45,
          "time": 63.10343249999978,
          "velocity": 0.7480314960629921,
          "duration": 0.20689649999999915
        },
        {
          "name": "C4",
          "midi": 60,
          "time": 63.31032899999978,
          "velocity": 0.7480314960629921,
          "duration": 0.20689649999999915
        },
        {
          "name": "A3",
          "midi": 57,
          "time": 63.31032899999978,
          "velocity": 0.7480314960629921,
          "duration": 0.20689649999999915
        },
        {
          "name": "E3",
          "midi": 52,
          "time": 63.31032899999978,
          "velocity": 0.7480314960629921,
          "duration": 0.20689649999999915
        },
        {
          "name": "A2",
          "midi": 45,
          "time": 63.31032899999978,
          "velocity": 0.7480314960629921,
          "duration": 0.20689649999999915
        },
        {
          "name": "C4",
          "midi": 60,
          "time": 63.51722549999978,
          "velocity": 0.7480314960629921,
          "duration": 0.20689649999999915
        },
        {
          "name": "A3",
          "midi": 57,
          "time": 63.51722549999978,
          "velocity": 0.7480314960629921,
          "duration": 0.20689649999999915
        },
        {
          "name": "E3",
          "midi": 52,
          "time": 63.51722549999978,
          "velocity": 0.7480314960629921,
          "duration": 0.20689649999999915
        },
        {
          "name": "A2",
          "midi": 45,
          "time": 63.51722549999978,
          "velocity": 0.7480314960629921,
          "duration": 0.20689649999999915
        },
        {
          "name": "C4",
          "midi": 60,
          "time": 63.72412199999978,
          "velocity": 0.7480314960629921,
          "duration": 0.20689649999999915
        },
        {
          "name": "A3",
          "midi": 57,
          "time": 63.72412199999978,
          "velocity": 0.7480314960629921,
          "duration": 0.20689649999999915
        },
        {
          "name": "E3",
          "midi": 52,
          "time": 63.72412199999978,
          "velocity": 0.7480314960629921,
          "duration": 0.20689649999999915
        },
        {
          "name": "A2",
          "midi": 45,
          "time": 63.72412199999978,
          "velocity": 0.7480314960629921,
          "duration": 0.20689649999999915
        },
        {
          "name": "C4",
          "midi": 60,
          "time": 63.93101849999978,
          "velocity": 0.7480314960629921,
          "duration": 0.20689649999999915
        },
        {
          "name": "A3",
          "midi": 57,
          "time": 63.93101849999978,
          "velocity": 0.7480314960629921,
          "duration": 0.20689649999999915
        },
        {
          "name": "E3",
          "midi": 52,
          "time": 63.93101849999978,
          "velocity": 0.7480314960629921,
          "duration": 0.20689649999999915
        },
        {
          "name": "A2",
          "midi": 45,
          "time": 63.93101849999978,
          "velocity": 0.7480314960629921,
          "duration": 0.20689649999999915
        },
        {
          "name": "C4",
          "midi": 60,
          "time": 64.13791499999978,
          "velocity": 0.7480314960629921,
          "duration": 0.20689649999999915
        },
        {
          "name": "A3",
          "midi": 57,
          "time": 64.13791499999978,
          "velocity": 0.7480314960629921,
          "duration": 0.20689649999999915
        },
        {
          "name": "E3",
          "midi": 52,
          "time": 64.13791499999978,
          "velocity": 0.7480314960629921,
          "duration": 0.20689649999999915
        },
        {
          "name": "A2",
          "midi": 45,
          "time": 64.13791499999978,
          "velocity": 0.7480314960629921,
          "duration": 0.20689649999999915
        },
        {
          "name": "C4",
          "midi": 60,
          "time": 64.34481149999978,
          "velocity": 0.7480314960629921,
          "duration": 0.20689649999999915
        },
        {
          "name": "A3",
          "midi": 57,
          "time": 64.34481149999978,
          "velocity": 0.7480314960629921,
          "duration": 0.20689649999999915
        },
        {
          "name": "E3",
          "midi": 52,
          "time": 64.34481149999978,
          "velocity": 0.7480314960629921,
          "duration": 0.20689649999999915
        },
        {
          "name": "A2",
          "midi": 45,
          "time": 64.34481149999978,
          "velocity": 0.7480314960629921,
          "duration": 0.20689649999999915
        },
        {
          "name": "C4",
          "midi": 60,
          "time": 64.55170799999978,
          "velocity": 0.7480314960629921,
          "duration": 0.20689649999999915
        },
        {
          "name": "A3",
          "midi": 57,
          "time": 64.55170799999978,
          "velocity": 0.7480314960629921,
          "duration": 0.20689649999999915
        },
        {
          "name": "E3",
          "midi": 52,
          "time": 64.55170799999978,
          "velocity": 0.7480314960629921,
          "duration": 0.20689649999999915
        },
        {
          "name": "A2",
          "midi": 45,
          "time": 64.55170799999978,
          "velocity": 0.7480314960629921,
          "duration": 0.20689649999999915
        },
        {
          "name": "C4",
          "midi": 60,
          "time": 64.75860449999978,
          "velocity": 0.7480314960629921,
          "duration": 0.20689649999999915
        },
        {
          "name": "A3",
          "midi": 57,
          "time": 64.75860449999978,
          "velocity": 0.7480314960629921,
          "duration": 0.20689649999999915
        },
        {
          "name": "E3",
          "midi": 52,
          "time": 64.75860449999978,
          "velocity": 0.7480314960629921,
          "duration": 0.20689649999999915
        },
        {
          "name": "A2",
          "midi": 45,
          "time": 64.75860449999978,
          "velocity": 0.7480314960629921,
          "duration": 0.20689649999999915
        },
        {
          "name": "C4",
          "midi": 60,
          "time": 64.96550099999978,
          "velocity": 0.7480314960629921,
          "duration": 0.20689649999999915
        },
        {
          "name": "A3",
          "midi": 57,
          "time": 64.96550099999978,
          "velocity": 0.7480314960629921,
          "duration": 0.20689649999999915
        },
        {
          "name": "E3",
          "midi": 52,
          "time": 64.96550099999978,
          "velocity": 0.7480314960629921,
          "duration": 0.20689649999999915
        },
        {
          "name": "A2",
          "midi": 45,
          "time": 64.96550099999978,
          "velocity": 0.7480314960629921,
          "duration": 0.20689649999999915
        },
        {
          "name": "C4",
          "midi": 60,
          "time": 65.17239749999978,
          "velocity": 0.7480314960629921,
          "duration": 0.20689649999999915
        },
        {
          "name": "A3",
          "midi": 57,
          "time": 65.17239749999978,
          "velocity": 0.7480314960629921,
          "duration": 0.20689649999999915
        },
        {
          "name": "E3",
          "midi": 52,
          "time": 65.17239749999978,
          "velocity": 0.7480314960629921,
          "duration": 0.20689649999999915
        },
        {
          "name": "A2",
          "midi": 45,
          "time": 65.17239749999978,
          "velocity": 0.7480314960629921,
          "duration": 0.20689649999999915
        },
        {
          "name": "C4",
          "midi": 60,
          "time": 65.37929399999977,
          "velocity": 0.7480314960629921,
          "duration": 0.20689649999999915
        },
        {
          "name": "A3",
          "midi": 57,
          "time": 65.37929399999977,
          "velocity": 0.7480314960629921,
          "duration": 0.20689649999999915
        },
        {
          "name": "E3",
          "midi": 52,
          "time": 65.37929399999977,
          "velocity": 0.7480314960629921,
          "duration": 0.20689649999999915
        },
        {
          "name": "A2",
          "midi": 45,
          "time": 65.37929399999977,
          "velocity": 0.7480314960629921,
          "duration": 0.20689649999999915
        },
        {
          "name": "C4",
          "midi": 60,
          "time": 65.58619049999977,
          "velocity": 0.7480314960629921,
          "duration": 0.20689649999999915
        },
        {
          "name": "A3",
          "midi": 57,
          "time": 65.58619049999977,
          "velocity": 0.7480314960629921,
          "duration": 0.20689649999999915
        },
        {
          "name": "E3",
          "midi": 52,
          "time": 65.58619049999977,
          "velocity": 0.7480314960629921,
          "duration": 0.20689649999999915
        },
        {
          "name": "A2",
          "midi": 45,
          "time": 65.58619049999977,
          "velocity": 0.7480314960629921,
          "duration": 0.20689649999999915
        },
        {
          "name": "C4",
          "midi": 60,
          "time": 65.79308699999977,
          "velocity": 0.7480314960629921,
          "duration": 0.20689649999999915
        },
        {
          "name": "A3",
          "midi": 57,
          "time": 65.79308699999977,
          "velocity": 0.7480314960629921,
          "duration": 0.20689649999999915
        },
        {
          "name": "E3",
          "midi": 52,
          "time": 65.79308699999977,
          "velocity": 0.7480314960629921,
          "duration": 0.20689649999999915
        },
        {
          "name": "A2",
          "midi": 45,
          "time": 65.79308699999977,
          "velocity": 0.7480314960629921,
          "duration": 0.20689649999999915
        },
        {
          "name": "C4",
          "midi": 60,
          "time": 65.99998349999977,
          "velocity": 0.7480314960629921,
          "duration": 0.20689649999999915
        },
        {
          "name": "A3",
          "midi": 57,
          "time": 65.99998349999977,
          "velocity": 0.7480314960629921,
          "duration": 0.20689649999999915
        },
        {
          "name": "E3",
          "midi": 52,
          "time": 65.99998349999977,
          "velocity": 0.7480314960629921,
          "duration": 0.20689649999999915
        },
        {
          "name": "A2",
          "midi": 45,
          "time": 65.99998349999977,
          "velocity": 0.7480314960629921,
          "duration": 0.20689649999999915
        },
        {
          "name": "E4",
          "midi": 64,
          "time": 66.20687999999977,
          "velocity": 0.7480314960629921,
          "duration": 0.20689649999999915
        },
        {
          "name": "C4",
          "midi": 60,
          "time": 66.20687999999977,
          "velocity": 0.7480314960629921,
          "duration": 0.20689649999999915
        },
        {
          "name": "G3",
          "midi": 55,
          "time": 66.20687999999977,
          "velocity": 0.7480314960629921,
          "duration": 0.20689649999999915
        },
        {
          "name": "C3",
          "midi": 48,
          "time": 66.20687999999977,
          "velocity": 0.7480314960629921,
          "duration": 0.20689649999999915
        },
        {
          "name": "E4",
          "midi": 64,
          "time": 66.41377649999977,
          "velocity": 0.7480314960629921,
          "duration": 0.20689649999999915
        },
        {
          "name": "C4",
          "midi": 60,
          "time": 66.41377649999977,
          "velocity": 0.7480314960629921,
          "duration": 0.20689649999999915
        },
        {
          "name": "G3",
          "midi": 55,
          "time": 66.41377649999977,
          "velocity": 0.7480314960629921,
          "duration": 0.20689649999999915
        },
        {
          "name": "C3",
          "midi": 48,
          "time": 66.41377649999977,
          "velocity": 0.7480314960629921,
          "duration": 0.20689649999999915
        },
        {
          "name": "E4",
          "midi": 64,
          "time": 66.62067299999977,
          "velocity": 0.7480314960629921,
          "duration": 0.20689649999999915
        },
        {
          "name": "C4",
          "midi": 60,
          "time": 66.62067299999977,
          "velocity": 0.7480314960629921,
          "duration": 0.20689649999999915
        },
        {
          "name": "G3",
          "midi": 55,
          "time": 66.62067299999977,
          "velocity": 0.7480314960629921,
          "duration": 0.20689649999999915
        },
        {
          "name": "C3",
          "midi": 48,
          "time": 66.62067299999977,
          "velocity": 0.7480314960629921,
          "duration": 0.20689649999999915
        },
        {
          "name": "E4",
          "midi": 64,
          "time": 66.82756949999977,
          "velocity": 0.7480314960629921,
          "duration": 0.20689649999999915
        },
        {
          "name": "C4",
          "midi": 60,
          "time": 66.82756949999977,
          "velocity": 0.7480314960629921,
          "duration": 0.20689649999999915
        },
        {
          "name": "G3",
          "midi": 55,
          "time": 66.82756949999977,
          "velocity": 0.7480314960629921,
          "duration": 0.20689649999999915
        },
        {
          "name": "C3",
          "midi": 48,
          "time": 66.82756949999977,
          "velocity": 0.7480314960629921,
          "duration": 0.20689649999999915
        },
        {
          "name": "E4",
          "midi": 64,
          "time": 67.03446599999977,
          "velocity": 0.7480314960629921,
          "duration": 0.20689649999999915
        },
        {
          "name": "C4",
          "midi": 60,
          "time": 67.03446599999977,
          "velocity": 0.7480314960629921,
          "duration": 0.20689649999999915
        },
        {
          "name": "G3",
          "midi": 55,
          "time": 67.03446599999977,
          "velocity": 0.7480314960629921,
          "duration": 0.20689649999999915
        },
        {
          "name": "C3",
          "midi": 48,
          "time": 67.03446599999977,
          "velocity": 0.7480314960629921,
          "duration": 0.20689649999999915
        },
        {
          "name": "E4",
          "midi": 64,
          "time": 67.24136249999977,
          "velocity": 0.7480314960629921,
          "duration": 0.20689649999999915
        },
        {
          "name": "C4",
          "midi": 60,
          "time": 67.24136249999977,
          "velocity": 0.7480314960629921,
          "duration": 0.20689649999999915
        },
        {
          "name": "G3",
          "midi": 55,
          "time": 67.24136249999977,
          "velocity": 0.7480314960629921,
          "duration": 0.20689649999999915
        },
        {
          "name": "C3",
          "midi": 48,
          "time": 67.24136249999977,
          "velocity": 0.7480314960629921,
          "duration": 0.20689649999999915
        },
        {
          "name": "E4",
          "midi": 64,
          "time": 67.44825899999977,
          "velocity": 0.7480314960629921,
          "duration": 0.20689649999999915
        },
        {
          "name": "C4",
          "midi": 60,
          "time": 67.44825899999977,
          "velocity": 0.7480314960629921,
          "duration": 0.20689649999999915
        },
        {
          "name": "G3",
          "midi": 55,
          "time": 67.44825899999977,
          "velocity": 0.7480314960629921,
          "duration": 0.20689649999999915
        },
        {
          "name": "C3",
          "midi": 48,
          "time": 67.44825899999977,
          "velocity": 0.7480314960629921,
          "duration": 0.20689649999999915
        },
        {
          "name": "E4",
          "midi": 64,
          "time": 67.65515549999976,
          "velocity": 0.7480314960629921,
          "duration": 0.20689649999999915
        },
        {
          "name": "C4",
          "midi": 60,
          "time": 67.65515549999976,
          "velocity": 0.7480314960629921,
          "duration": 0.20689649999999915
        },
        {
          "name": "G3",
          "midi": 55,
          "time": 67.65515549999976,
          "velocity": 0.7480314960629921,
          "duration": 0.20689649999999915
        },
        {
          "name": "C3",
          "midi": 48,
          "time": 67.65515549999976,
          "velocity": 0.7480314960629921,
          "duration": 0.20689649999999915
        },
        {
          "name": "G3",
          "midi": 55,
          "time": 67.86205199999976,
          "velocity": 0.7480314960629921,
          "duration": 0.20689649999999915
        },
        {
          "name": "E3",
          "midi": 52,
          "time": 67.86205199999976,
          "velocity": 0.7480314960629921,
          "duration": 0.20689649999999915
        },
        {
          "name": "B2",
          "midi": 47,
          "time": 67.86205199999976,
          "velocity": 0.7480314960629921,
          "duration": 0.20689649999999915
        },
        {
          "name": "E2",
          "midi": 40,
          "time": 67.86205199999976,
          "velocity": 0.7480314960629921,
          "duration": 0.20689649999999915
        },
        {
          "name": "G3",
          "midi": 55,
          "time": 68.06894849999976,
          "velocity": 0.7480314960629921,
          "duration": 0.20689649999999915
        },
        {
          "name": "E3",
          "midi": 52,
          "time": 68.06894849999976,
          "velocity": 0.7480314960629921,
          "duration": 0.20689649999999915
        },
        {
          "name": "B2",
          "midi": 47,
          "time": 68.06894849999976,
          "velocity": 0.7480314960629921,
          "duration": 0.20689649999999915
        },
        {
          "name": "E2",
          "midi": 40,
          "time": 68.06894849999976,
          "velocity": 0.7480314960629921,
          "duration": 0.20689649999999915
        },
        {
          "name": "G3",
          "midi": 55,
          "time": 68.27584499999976,
          "velocity": 0.7480314960629921,
          "duration": 0.20689649999999915
        },
        {
          "name": "E3",
          "midi": 52,
          "time": 68.27584499999976,
          "velocity": 0.7480314960629921,
          "duration": 0.20689649999999915
        },
        {
          "name": "B2",
          "midi": 47,
          "time": 68.27584499999976,
          "velocity": 0.7480314960629921,
          "duration": 0.20689649999999915
        },
        {
          "name": "E2",
          "midi": 40,
          "time": 68.27584499999976,
          "velocity": 0.7480314960629921,
          "duration": 0.20689649999999915
        },
        {
          "name": "G3",
          "midi": 55,
          "time": 68.48274149999976,
          "velocity": 0.7480314960629921,
          "duration": 0.20689649999999915
        },
        {
          "name": "E3",
          "midi": 52,
          "time": 68.48274149999976,
          "velocity": 0.7480314960629921,
          "duration": 0.20689649999999915
        },
        {
          "name": "B2",
          "midi": 47,
          "time": 68.48274149999976,
          "velocity": 0.7480314960629921,
          "duration": 0.20689649999999915
        },
        {
          "name": "E2",
          "midi": 40,
          "time": 68.48274149999976,
          "velocity": 0.7480314960629921,
          "duration": 0.20689649999999915
        },
        {
          "name": "G3",
          "midi": 55,
          "time": 68.68963799999976,
          "velocity": 0.7480314960629921,
          "duration": 0.20689649999999915
        },
        {
          "name": "E3",
          "midi": 52,
          "time": 68.68963799999976,
          "velocity": 0.7480314960629921,
          "duration": 0.20689649999999915
        },
        {
          "name": "B2",
          "midi": 47,
          "time": 68.68963799999976,
          "velocity": 0.7480314960629921,
          "duration": 0.20689649999999915
        },
        {
          "name": "E2",
          "midi": 40,
          "time": 68.68963799999976,
          "velocity": 0.7480314960629921,
          "duration": 0.20689649999999915
        },
        {
          "name": "G3",
          "midi": 55,
          "time": 68.89653449999976,
          "velocity": 0.7480314960629921,
          "duration": 0.20689649999999915
        },
        {
          "name": "E3",
          "midi": 52,
          "time": 68.89653449999976,
          "velocity": 0.7480314960629921,
          "duration": 0.20689649999999915
        },
        {
          "name": "B2",
          "midi": 47,
          "time": 68.89653449999976,
          "velocity": 0.7480314960629921,
          "duration": 0.20689649999999915
        },
        {
          "name": "E2",
          "midi": 40,
          "time": 68.89653449999976,
          "velocity": 0.7480314960629921,
          "duration": 0.20689649999999915
        },
        {
          "name": "G3",
          "midi": 55,
          "time": 69.10343099999976,
          "velocity": 0.7480314960629921,
          "duration": 0.20689649999999915
        },
        {
          "name": "E3",
          "midi": 52,
          "time": 69.10343099999976,
          "velocity": 0.7480314960629921,
          "duration": 0.20689649999999915
        },
        {
          "name": "B2",
          "midi": 47,
          "time": 69.10343099999976,
          "velocity": 0.7480314960629921,
          "duration": 0.20689649999999915
        },
        {
          "name": "E2",
          "midi": 40,
          "time": 69.10343099999976,
          "velocity": 0.7480314960629921,
          "duration": 0.20689649999999915
        },
        {
          "name": "G3",
          "midi": 55,
          "time": 69.31032749999976,
          "velocity": 0.7480314960629921,
          "duration": 0.20689649999999915
        },
        {
          "name": "E3",
          "midi": 52,
          "time": 69.31032749999976,
          "velocity": 0.7480314960629921,
          "duration": 0.20689649999999915
        },
        {
          "name": "B2",
          "midi": 47,
          "time": 69.31032749999976,
          "velocity": 0.7480314960629921,
          "duration": 0.20689649999999915
        },
        {
          "name": "E2",
          "midi": 40,
          "time": 69.31032749999976,
          "velocity": 0.7480314960629921,
          "duration": 0.20689649999999915
        },
        {
          "name": "A4",
          "midi": 69,
          "time": 69.51722399999976,
          "velocity": 0.7480314960629921,
          "duration": 0.20689649999999915
        },
        {
          "name": "B3",
          "midi": 59,
          "time": 69.51722399999976,
          "velocity": 0.7480314960629921,
          "duration": 0.20689649999999915
        },
        {
          "name": "D4",
          "midi": 62,
          "time": 69.51722399999976,
          "velocity": 0.7480314960629921,
          "duration": 0.20689649999999915
        },
        {
          "name": "D3",
          "midi": 50,
          "time": 69.51722399999976,
          "velocity": 0.7480314960629921,
          "duration": 0.20689649999999915
        },
        {
          "name": "A4",
          "midi": 69,
          "time": 69.72412049999976,
          "velocity": 0.7480314960629921,
          "duration": 0.20689649999999915
        },
        {
          "name": "B3",
          "midi": 59,
          "time": 69.72412049999976,
          "velocity": 0.7480314960629921,
          "duration": 0.20689649999999915
        },
        {
          "name": "C4",
          "midi": 60,
          "time": 69.72412049999976,
          "velocity": 0.5511811023622047,
          "duration": 0.20689649999999915
        },
        {
          "name": "D3",
          "midi": 50,
          "time": 69.72412049999976,
          "velocity": 0.7480314960629921,
          "duration": 0.20689649999999915
        },
        {
          "name": "A4",
          "midi": 69,
          "time": 69.93101699999976,
          "velocity": 0.7480314960629921,
          "duration": 0.20689649999999915
        },
        {
          "name": "B3",
          "midi": 59,
          "time": 69.93101699999976,
          "velocity": 0.7480314960629921,
          "duration": 0.20689649999999915
        },
        {
          "name": "C4",
          "midi": 60,
          "time": 69.93101699999976,
          "velocity": 0.7480314960629921,
          "duration": 0.20689649999999915
        },
        {
          "name": "D3",
          "midi": 50,
          "time": 69.93101699999976,
          "velocity": 0.7480314960629921,
          "duration": 0.20689649999999915
        },
        {
          "name": "A4",
          "midi": 69,
          "time": 70.13791349999975,
          "velocity": 0.7480314960629921,
          "duration": 0.20689649999999915
        },
        {
          "name": "B3",
          "midi": 59,
          "time": 70.13791349999975,
          "velocity": 0.7480314960629921,
          "duration": 0.20689649999999915
        },
        {
          "name": "C4",
          "midi": 60,
          "time": 70.13791349999975,
          "velocity": 0.7480314960629921,
          "duration": 0.20689649999999915
        },
        {
          "name": "D3",
          "midi": 50,
          "time": 70.13791349999975,
          "velocity": 0.7480314960629921,
          "duration": 0.20689649999999915
        },
        {
          "name": "A4",
          "midi": 69,
          "time": 70.34480999999975,
          "velocity": 0.7480314960629921,
          "duration": 0.4137929999999983
        },
        {
          "name": "B3",
          "midi": 59,
          "time": 70.34480999999975,
          "velocity": 0.7480314960629921,
          "duration": 0.4137929999999983
        },
        {
          "name": "C4",
          "midi": 60,
          "time": 70.34480999999975,
          "velocity": 0.7480314960629921,
          "duration": 0.4137929999999983
        },
        {
          "name": "D3",
          "midi": 50,
          "time": 70.34480999999975,
          "velocity": 0.7480314960629921,
          "duration": 0.4137929999999983
        },
        {
          "name": "A4",
          "midi": 69,
          "time": 70.75860299999975,
          "velocity": 0.7480314960629921,
          "duration": 0.20689649999999915
        },
        {
          "name": "B3",
          "midi": 59,
          "time": 70.75860299999975,
          "velocity": 0.7480314960629921,
          "duration": 0.20689649999999915
        },
        {
          "name": "C4",
          "midi": 60,
          "time": 70.75860299999975,
          "velocity": 0.7480314960629921,
          "duration": 0.20689649999999915
        },
        {
          "name": "D3",
          "midi": 50,
          "time": 70.75860299999975,
          "velocity": 0.7480314960629921,
          "duration": 0.20689649999999915
        },
        {
          "name": "A4",
          "midi": 69,
          "time": 70.96549949999975,
          "velocity": 0.7480314960629921,
          "duration": 0.20689649999999915
        },
        {
          "name": "B3",
          "midi": 59,
          "time": 70.96549949999975,
          "velocity": 0.7480314960629921,
          "duration": 0.20689649999999915
        },
        {
          "name": "C4",
          "midi": 60,
          "time": 70.96549949999975,
          "velocity": 0.7480314960629921,
          "duration": 0.20689649999999915
        },
        {
          "name": "D3",
          "midi": 50,
          "time": 70.96549949999975,
          "velocity": 0.7480314960629921,
          "duration": 0.20689649999999915
        },
        {
          "name": "A4",
          "midi": 69,
          "time": 71.17239599999975,
          "velocity": 0.7480314960629921,
          "duration": 0.20689649999999915
        },
        {
          "name": "B3",
          "midi": 59,
          "time": 71.17239599999975,
          "velocity": 0.7480314960629921,
          "duration": 0.20689649999999915
        },
        {
          "name": "C4",
          "midi": 60,
          "time": 71.17239599999975,
          "velocity": 0.7480314960629921,
          "duration": 0.20689649999999915
        },
        {
          "name": "D3",
          "midi": 50,
          "time": 71.17239599999975,
          "velocity": 0.7480314960629921,
          "duration": 0.20689649999999915
        },
        {
          "name": "A4",
          "midi": 69,
          "time": 71.37929249999975,
          "velocity": 0.7480314960629921,
          "duration": 0.20689649999999915
        },
        {
          "name": "B3",
          "midi": 59,
          "time": 71.37929249999975,
          "velocity": 0.7480314960629921,
          "duration": 0.20689649999999915
        },
        {
          "name": "C4",
          "midi": 60,
          "time": 71.37929249999975,
          "velocity": 0.7480314960629921,
          "duration": 0.20689649999999915
        },
        {
          "name": "D3",
          "midi": 50,
          "time": 71.37929249999975,
          "velocity": 0.7480314960629921,
          "duration": 0.20689649999999915
        },
        {
          "name": "A4",
          "midi": 69,
          "time": 71.58618899999975,
          "velocity": 0.7480314960629921,
          "duration": 0.4137929999999983
        },
        {
          "name": "B3",
          "midi": 59,
          "time": 71.58618899999975,
          "velocity": 0.7480314960629921,
          "duration": 0.4137929999999983
        },
        {
          "name": "C4",
          "midi": 60,
          "time": 71.58618899999975,
          "velocity": 0.7480314960629921,
          "duration": 0.4137929999999983
        },
        {
          "name": "D3",
          "midi": 50,
          "time": 71.58618899999975,
          "velocity": 0.7480314960629921,
          "duration": 0.4137929999999983
        },
        {
          "name": "A4",
          "midi": 69,
          "time": 71.99998199999975,
          "velocity": 0.7480314960629921,
          "duration": 0.20689649999999915
        },
        {
          "name": "B3",
          "midi": 59,
          "time": 71.99998199999975,
          "velocity": 0.7480314960629921,
          "duration": 0.20689649999999915
        },
        {
          "name": "C4",
          "midi": 60,
          "time": 71.99998199999975,
          "velocity": 0.7480314960629921,
          "duration": 0.20689649999999915
        },
        {
          "name": "D3",
          "midi": 50,
          "time": 71.99998199999975,
          "velocity": 0.7480314960629921,
          "duration": 0.20689649999999915
        },
        {
          "name": "A4",
          "midi": 69,
          "time": 72.20687849999975,
          "velocity": 0.7480314960629921,
          "duration": 0.20689649999999915
        },
        {
          "name": "B3",
          "midi": 59,
          "time": 72.20687849999975,
          "velocity": 0.7480314960629921,
          "duration": 0.20689649999999915
        },
        {
          "name": "C4",
          "midi": 60,
          "time": 72.20687849999975,
          "velocity": 0.7480314960629921,
          "duration": 0.20689649999999915
        },
        {
          "name": "D3",
          "midi": 50,
          "time": 72.20687849999975,
          "velocity": 0.7480314960629921,
          "duration": 0.20689649999999915
        },
        {
          "name": "A4",
          "midi": 69,
          "time": 72.41377499999975,
          "velocity": 0.7480314960629921,
          "duration": 0.20689649999999915
        },
        {
          "name": "B3",
          "midi": 59,
          "time": 72.41377499999975,
          "velocity": 0.7480314960629921,
          "duration": 0.20689649999999915
        },
        {
          "name": "C4",
          "midi": 60,
          "time": 72.41377499999975,
          "velocity": 0.7480314960629921,
          "duration": 0.20689649999999915
        },
        {
          "name": "D3",
          "midi": 50,
          "time": 72.41377499999975,
          "velocity": 0.7480314960629921,
          "duration": 0.20689649999999915
        },
        {
          "name": "A4",
          "midi": 69,
          "time": 72.82756799999974,
          "velocity": 0.7480314960629921,
          "duration": 0.20689649999999915
        },
        {
          "name": "B3",
          "midi": 59,
          "time": 72.82756799999974,
          "velocity": 0.7480314960629921,
          "duration": 0.20689649999999915
        },
        {
          "name": "D4",
          "midi": 62,
          "time": 72.82756799999974,
          "velocity": 0.7480314960629921,
          "duration": 0.20689649999999915
        },
        {
          "name": "D3",
          "midi": 50,
          "time": 72.82756799999974,
          "velocity": 0.7480314960629921,
          "duration": 0.20689649999999915
        },
        {
          "name": "A4",
          "midi": 69,
          "time": 73.03446449999974,
          "velocity": 0.7480314960629921,
          "duration": 0.20689649999999915
        },
        {
          "name": "B3",
          "midi": 59,
          "time": 73.03446449999974,
          "velocity": 0.7480314960629921,
          "duration": 0.20689649999999915
        },
        {
          "name": "C4",
          "midi": 60,
          "time": 73.03446449999974,
          "velocity": 0.5511811023622047,
          "duration": 0.20689649999999915
        },
        {
          "name": "D3",
          "midi": 50,
          "time": 73.03446449999974,
          "velocity": 0.7480314960629921,
          "duration": 0.20689649999999915
        },
        {
          "name": "A4",
          "midi": 69,
          "time": 73.24136099999974,
          "velocity": 0.7480314960629921,
          "duration": 0.20689649999999915
        },
        {
          "name": "B3",
          "midi": 59,
          "time": 73.24136099999974,
          "velocity": 0.7480314960629921,
          "duration": 0.20689649999999915
        },
        {
          "name": "C4",
          "midi": 60,
          "time": 73.24136099999974,
          "velocity": 0.7480314960629921,
          "duration": 0.20689649999999915
        },
        {
          "name": "D3",
          "midi": 50,
          "time": 73.24136099999974,
          "velocity": 0.7480314960629921,
          "duration": 0.20689649999999915
        },
        {
          "name": "A4",
          "midi": 69,
          "time": 73.44825749999974,
          "velocity": 0.7480314960629921,
          "duration": 0.20689649999999915
        },
        {
          "name": "B3",
          "midi": 59,
          "time": 73.44825749999974,
          "velocity": 0.7480314960629921,
          "duration": 0.20689649999999915
        },
        {
          "name": "C4",
          "midi": 60,
          "time": 73.44825749999974,
          "velocity": 0.7480314960629921,
          "duration": 0.20689649999999915
        },
        {
          "name": "D3",
          "midi": 50,
          "time": 73.44825749999974,
          "velocity": 0.7480314960629921,
          "duration": 0.20689649999999915
        },
        {
          "name": "A4",
          "midi": 69,
          "time": 73.65515399999974,
          "velocity": 0.7480314960629921,
          "duration": 0.4137929999999983
        },
        {
          "name": "B3",
          "midi": 59,
          "time": 73.65515399999974,
          "velocity": 0.7480314960629921,
          "duration": 0.4137929999999983
        },
        {
          "name": "C4",
          "midi": 60,
          "time": 73.65515399999974,
          "velocity": 0.7480314960629921,
          "duration": 0.4137929999999983
        },
        {
          "name": "D3",
          "midi": 50,
          "time": 73.65515399999974,
          "velocity": 0.7480314960629921,
          "duration": 0.4137929999999983
        },
        {
          "name": "A4",
          "midi": 69,
          "time": 74.06894699999974,
          "velocity": 0.7480314960629921,
          "duration": 0.20689649999999915
        },
        {
          "name": "B3",
          "midi": 59,
          "time": 74.06894699999974,
          "velocity": 0.7480314960629921,
          "duration": 0.20689649999999915
        },
        {
          "name": "C4",
          "midi": 60,
          "time": 74.06894699999974,
          "velocity": 0.7480314960629921,
          "duration": 0.20689649999999915
        },
        {
          "name": "D3",
          "midi": 50,
          "time": 74.06894699999974,
          "velocity": 0.7480314960629921,
          "duration": 0.20689649999999915
        },
        {
          "name": "A4",
          "midi": 69,
          "time": 74.27584349999974,
          "velocity": 0.7480314960629921,
          "duration": 0.20689649999999915
        },
        {
          "name": "B3",
          "midi": 59,
          "time": 74.27584349999974,
          "velocity": 0.7480314960629921,
          "duration": 0.20689649999999915
        },
        {
          "name": "C4",
          "midi": 60,
          "time": 74.27584349999974,
          "velocity": 0.7480314960629921,
          "duration": 0.20689649999999915
        },
        {
          "name": "D3",
          "midi": 50,
          "time": 74.27584349999974,
          "velocity": 0.7480314960629921,
          "duration": 0.20689649999999915
        },
        {
          "name": "A4",
          "midi": 69,
          "time": 74.48273999999974,
          "velocity": 0.7480314960629921,
          "duration": 0.20689649999999915
        },
        {
          "name": "B3",
          "midi": 59,
          "time": 74.48273999999974,
          "velocity": 0.7480314960629921,
          "duration": 0.20689649999999915
        },
        {
          "name": "C4",
          "midi": 60,
          "time": 74.48273999999974,
          "velocity": 0.7480314960629921,
          "duration": 0.20689649999999915
        },
        {
          "name": "D3",
          "midi": 50,
          "time": 74.48273999999974,
          "velocity": 0.7480314960629921,
          "duration": 0.20689649999999915
        },
        {
          "name": "A4",
          "midi": 69,
          "time": 74.68963649999974,
          "velocity": 0.7480314960629921,
          "duration": 0.20689649999999915
        },
        {
          "name": "B3",
          "midi": 59,
          "time": 74.68963649999974,
          "velocity": 0.7480314960629921,
          "duration": 0.20689649999999915
        },
        {
          "name": "C4",
          "midi": 60,
          "time": 74.68963649999974,
          "velocity": 0.7480314960629921,
          "duration": 0.20689649999999915
        },
        {
          "name": "D3",
          "midi": 50,
          "time": 74.68963649999974,
          "velocity": 0.7480314960629921,
          "duration": 0.20689649999999915
        },
        {
          "name": "A4",
          "midi": 69,
          "time": 74.89653299999974,
          "velocity": 0.7480314960629921,
          "duration": 0.4137929999999983
        },
        {
          "name": "B3",
          "midi": 59,
          "time": 74.89653299999974,
          "velocity": 0.7480314960629921,
          "duration": 0.4137929999999983
        },
        {
          "name": "C4",
          "midi": 60,
          "time": 74.89653299999974,
          "velocity": 0.7480314960629921,
          "duration": 0.4137929999999983
        },
        {
          "name": "D3",
          "midi": 50,
          "time": 74.89653299999974,
          "velocity": 0.7480314960629921,
          "duration": 0.4137929999999983
        },
        {
          "name": "A4",
          "midi": 69,
          "time": 75.31032599999973,
          "velocity": 0.7480314960629921,
          "duration": 0.20689649999999915
        },
        {
          "name": "B3",
          "midi": 59,
          "time": 75.31032599999973,
          "velocity": 0.7480314960629921,
          "duration": 0.20689649999999915
        },
        {
          "name": "C4",
          "midi": 60,
          "time": 75.31032599999973,
          "velocity": 0.7480314960629921,
          "duration": 0.20689649999999915
        },
        {
          "name": "D3",
          "midi": 50,
          "time": 75.31032599999973,
          "velocity": 0.7480314960629921,
          "duration": 0.20689649999999915
        },
        {
          "name": "A4",
          "midi": 69,
          "time": 75.51722249999973,
          "velocity": 0.7480314960629921,
          "duration": 0.20689649999999915
        },
        {
          "name": "B3",
          "midi": 59,
          "time": 75.51722249999973,
          "velocity": 0.7480314960629921,
          "duration": 0.20689649999999915
        },
        {
          "name": "C4",
          "midi": 60,
          "time": 75.51722249999973,
          "velocity": 0.7480314960629921,
          "duration": 0.20689649999999915
        },
        {
          "name": "D3",
          "midi": 50,
          "time": 75.51722249999973,
          "velocity": 0.7480314960629921,
          "duration": 0.20689649999999915
        },
        {
          "name": "A4",
          "midi": 69,
          "time": 75.72411899999973,
          "velocity": 0.7480314960629921,
          "duration": 0.20689649999999915
        },
        {
          "name": "B3",
          "midi": 59,
          "time": 75.72411899999973,
          "velocity": 0.7480314960629921,
          "duration": 0.20689649999999915
        },
        {
          "name": "C4",
          "midi": 60,
          "time": 75.72411899999973,
          "velocity": 0.7480314960629921,
          "duration": 0.20689649999999915
        },
        {
          "name": "D3",
          "midi": 50,
          "time": 75.72411899999973,
          "velocity": 0.7480314960629921,
          "duration": 0.20689649999999915
        },
        {
          "name": "C4",
          "midi": 60,
          "time": 76.13791199999973,
          "velocity": 0.7480314960629921,
          "duration": 0.20689649999999915
        },
        {
          "name": "G3",
          "midi": 55,
          "time": 76.13791199999973,
          "velocity": 0.7480314960629921,
          "duration": 0.20689649999999915
        },
        {
          "name": "C3",
          "midi": 48,
          "time": 76.13791199999973,
          "velocity": 0.7480314960629921,
          "duration": 0.20689649999999915
        },
        {
          "name": "C4",
          "midi": 60,
          "time": 76.34480849999973,
          "velocity": 0.7480314960629921,
          "duration": 0.20689649999999915
        },
        {
          "name": "G3",
          "midi": 55,
          "time": 76.34480849999973,
          "velocity": 0.7480314960629921,
          "duration": 0.20689649999999915
        },
        {
          "name": "C3",
          "midi": 48,
          "time": 76.34480849999973,
          "velocity": 0.7480314960629921,
          "duration": 0.20689649999999915
        },
        {
          "name": "C4",
          "midi": 60,
          "time": 76.55170499999973,
          "velocity": 0.7480314960629921,
          "duration": 0.20689649999999915
        },
        {
          "name": "G3",
          "midi": 55,
          "time": 76.55170499999973,
          "velocity": 0.7480314960629921,
          "duration": 0.20689649999999915
        },
        {
          "name": "C3",
          "midi": 48,
          "time": 76.55170499999973,
          "velocity": 0.7480314960629921,
          "duration": 0.20689649999999915
        },
        {
          "name": "C4",
          "midi": 60,
          "time": 76.75860149999973,
          "velocity": 0.7480314960629921,
          "duration": 0.20689649999999915
        },
        {
          "name": "G3",
          "midi": 55,
          "time": 76.75860149999973,
          "velocity": 0.7480314960629921,
          "duration": 0.20689649999999915
        },
        {
          "name": "C3",
          "midi": 48,
          "time": 76.75860149999973,
          "velocity": 0.7480314960629921,
          "duration": 0.20689649999999915
        },
        {
          "name": "C4",
          "midi": 60,
          "time": 76.96549799999973,
          "velocity": 0.7480314960629921,
          "duration": 0.20689649999999915
        },
        {
          "name": "G3",
          "midi": 55,
          "time": 76.96549799999973,
          "velocity": 0.7480314960629921,
          "duration": 0.20689649999999915
        },
        {
          "name": "C3",
          "midi": 48,
          "time": 76.96549799999973,
          "velocity": 0.7480314960629921,
          "duration": 0.20689649999999915
        },
        {
          "name": "C4",
          "midi": 60,
          "time": 77.17239449999973,
          "velocity": 0.7480314960629921,
          "duration": 0.20689649999999915
        },
        {
          "name": "G3",
          "midi": 55,
          "time": 77.17239449999973,
          "velocity": 0.7480314960629921,
          "duration": 0.20689649999999915
        },
        {
          "name": "C3",
          "midi": 48,
          "time": 77.17239449999973,
          "velocity": 0.7480314960629921,
          "duration": 0.20689649999999915
        },
        {
          "name": "C4",
          "midi": 60,
          "time": 77.37929099999972,
          "velocity": 0.7480314960629921,
          "duration": 0.20689649999999915
        },
        {
          "name": "G3",
          "midi": 55,
          "time": 77.37929099999972,
          "velocity": 0.7480314960629921,
          "duration": 0.20689649999999915
        },
        {
          "name": "C3",
          "midi": 48,
          "time": 77.37929099999972,
          "velocity": 0.7480314960629921,
          "duration": 0.20689649999999915
        },
        {
          "name": "C4",
          "midi": 60,
          "time": 77.58618749999972,
          "velocity": 0.7480314960629921,
          "duration": 0.20689649999999915
        },
        {
          "name": "G3",
          "midi": 55,
          "time": 77.58618749999972,
          "velocity": 0.7480314960629921,
          "duration": 0.20689649999999915
        },
        {
          "name": "C3",
          "midi": 48,
          "time": 77.58618749999972,
          "velocity": 0.7480314960629921,
          "duration": 0.20689649999999915
        },
        {
          "name": "G4",
          "midi": 67,
          "time": 77.79308399999972,
          "velocity": 0.7480314960629921,
          "duration": 0.20689649999999915
        },
        {
          "name": "E4",
          "midi": 64,
          "time": 77.79308399999972,
          "velocity": 0.7480314960629921,
          "duration": 0.20689649999999915
        },
        {
          "name": "B3",
          "midi": 59,
          "time": 77.79308399999972,
          "velocity": 0.7480314960629921,
          "duration": 0.20689649999999915
        },
        {
          "name": "E3",
          "midi": 52,
          "time": 77.79308399999972,
          "velocity": 0.7480314960629921,
          "duration": 0.20689649999999915
        },
        {
          "name": "G4",
          "midi": 67,
          "time": 77.99998049999972,
          "velocity": 0.7480314960629921,
          "duration": 0.20689649999999915
        },
        {
          "name": "E4",
          "midi": 64,
          "time": 77.99998049999972,
          "velocity": 0.7480314960629921,
          "duration": 0.20689649999999915
        },
        {
          "name": "B3",
          "midi": 59,
          "time": 77.99998049999972,
          "velocity": 0.7480314960629921,
          "duration": 0.20689649999999915
        },
        {
          "name": "E3",
          "midi": 52,
          "time": 77.99998049999972,
          "velocity": 0.7480314960629921,
          "duration": 0.20689649999999915
        },
        {
          "name": "G4",
          "midi": 67,
          "time": 78.20687699999972,
          "velocity": 0.7480314960629921,
          "duration": 0.20689649999999915
        },
        {
          "name": "E4",
          "midi": 64,
          "time": 78.20687699999972,
          "velocity": 0.7480314960629921,
          "duration": 0.20689649999999915
        },
        {
          "name": "B3",
          "midi": 59,
          "time": 78.20687699999972,
          "velocity": 0.7480314960629921,
          "duration": 0.20689649999999915
        },
        {
          "name": "E3",
          "midi": 52,
          "time": 78.20687699999972,
          "velocity": 0.7480314960629921,
          "duration": 0.20689649999999915
        },
        {
          "name": "G4",
          "midi": 67,
          "time": 78.41377349999972,
          "velocity": 0.7480314960629921,
          "duration": 0.20689649999999915
        },
        {
          "name": "E4",
          "midi": 64,
          "time": 78.41377349999972,
          "velocity": 0.7480314960629921,
          "duration": 0.20689649999999915
        },
        {
          "name": "B3",
          "midi": 59,
          "time": 78.41377349999972,
          "velocity": 0.7480314960629921,
          "duration": 0.20689649999999915
        },
        {
          "name": "E3",
          "midi": 52,
          "time": 78.41377349999972,
          "velocity": 0.7480314960629921,
          "duration": 0.20689649999999915
        },
        {
          "name": "G4",
          "midi": 67,
          "time": 78.62066999999972,
          "velocity": 0.7480314960629921,
          "duration": 0.20689649999999915
        },
        {
          "name": "E4",
          "midi": 64,
          "time": 78.62066999999972,
          "velocity": 0.7480314960629921,
          "duration": 0.20689649999999915
        },
        {
          "name": "B3",
          "midi": 59,
          "time": 78.62066999999972,
          "velocity": 0.7480314960629921,
          "duration": 0.20689649999999915
        },
        {
          "name": "E3",
          "midi": 52,
          "time": 78.62066999999972,
          "velocity": 0.7480314960629921,
          "duration": 0.20689649999999915
        },
        {
          "name": "G4",
          "midi": 67,
          "time": 78.82756649999972,
          "velocity": 0.7480314960629921,
          "duration": 0.20689649999999915
        },
        {
          "name": "E4",
          "midi": 64,
          "time": 78.82756649999972,
          "velocity": 0.7480314960629921,
          "duration": 0.20689649999999915
        },
        {
          "name": "B3",
          "midi": 59,
          "time": 78.82756649999972,
          "velocity": 0.7480314960629921,
          "duration": 0.20689649999999915
        },
        {
          "name": "E3",
          "midi": 52,
          "time": 78.82756649999972,
          "velocity": 0.7480314960629921,
          "duration": 0.20689649999999915
        },
        {
          "name": "G4",
          "midi": 67,
          "time": 79.03446299999972,
          "velocity": 0.7480314960629921,
          "duration": 0.20689649999999915
        },
        {
          "name": "E4",
          "midi": 64,
          "time": 79.03446299999972,
          "velocity": 0.7480314960629921,
          "duration": 0.20689649999999915
        },
        {
          "name": "B3",
          "midi": 59,
          "time": 79.03446299999972,
          "velocity": 0.7480314960629921,
          "duration": 0.20689649999999915
        },
        {
          "name": "E3",
          "midi": 52,
          "time": 79.03446299999972,
          "velocity": 0.7480314960629921,
          "duration": 0.20689649999999915
        },
        {
          "name": "G4",
          "midi": 67,
          "time": 79.24135949999972,
          "velocity": 0.7480314960629921,
          "duration": 0.20689649999999915
        },
        {
          "name": "E4",
          "midi": 64,
          "time": 79.24135949999972,
          "velocity": 0.7480314960629921,
          "duration": 0.20689649999999915
        },
        {
          "name": "B3",
          "midi": 59,
          "time": 79.24135949999972,
          "velocity": 0.7480314960629921,
          "duration": 0.20689649999999915
        },
        {
          "name": "E3",
          "midi": 52,
          "time": 79.24135949999972,
          "velocity": 0.7480314960629921,
          "duration": 0.20689649999999915
        },
        {
          "name": "D4",
          "midi": 62,
          "time": 79.44825599999972,
          "velocity": 0.7480314960629921,
          "duration": 0.20689649999999915
        },
        {
          "name": "A3",
          "midi": 57,
          "time": 79.44825599999972,
          "velocity": 0.7480314960629921,
          "duration": 0.20689649999999915
        },
        {
          "name": "D3",
          "midi": 50,
          "time": 79.44825599999972,
          "velocity": 0.7480314960629921,
          "duration": 0.20689649999999915
        },
        {
          "name": "D4",
          "midi": 62,
          "time": 79.65515249999972,
          "velocity": 0.7480314960629921,
          "duration": 0.20689649999999915
        },
        {
          "name": "A3",
          "midi": 57,
          "time": 79.65515249999972,
          "velocity": 0.7480314960629921,
          "duration": 0.20689649999999915
        },
        {
          "name": "D3",
          "midi": 50,
          "time": 79.65515249999972,
          "velocity": 0.7480314960629921,
          "duration": 0.20689649999999915
        },
        {
          "name": "D4",
          "midi": 62,
          "time": 79.86204899999971,
          "velocity": 0.7480314960629921,
          "duration": 0.20689649999999915
        },
        {
          "name": "A3",
          "midi": 57,
          "time": 79.86204899999971,
          "velocity": 0.7480314960629921,
          "duration": 0.20689649999999915
        },
        {
          "name": "D3",
          "midi": 50,
          "time": 79.86204899999971,
          "velocity": 0.7480314960629921,
          "duration": 0.20689649999999915
        },
        {
          "name": "D4",
          "midi": 62,
          "time": 80.06894549999971,
          "velocity": 0.7480314960629921,
          "duration": 0.20689649999999915
        },
        {
          "name": "A3",
          "midi": 57,
          "time": 80.06894549999971,
          "velocity": 0.7480314960629921,
          "duration": 0.20689649999999915
        },
        {
          "name": "D3",
          "midi": 50,
          "time": 80.06894549999971,
          "velocity": 0.7480314960629921,
          "duration": 0.20689649999999915
        },
        {
          "name": "D4",
          "midi": 62,
          "time": 80.27584199999971,
          "velocity": 0.7480314960629921,
          "duration": 0.20689649999999915
        },
        {
          "name": "A3",
          "midi": 57,
          "time": 80.27584199999971,
          "velocity": 0.7480314960629921,
          "duration": 0.20689649999999915
        },
        {
          "name": "D3",
          "midi": 50,
          "time": 80.27584199999971,
          "velocity": 0.7480314960629921,
          "duration": 0.20689649999999915
        },
        {
          "name": "D4",
          "midi": 62,
          "time": 80.48273849999971,
          "velocity": 0.7480314960629921,
          "duration": 0.20689649999999915
        },
        {
          "name": "A3",
          "midi": 57,
          "time": 80.48273849999971,
          "velocity": 0.7480314960629921,
          "duration": 0.20689649999999915
        },
        {
          "name": "D3",
          "midi": 50,
          "time": 80.48273849999971,
          "velocity": 0.7480314960629921,
          "duration": 0.20689649999999915
        },
        {
          "name": "D4",
          "midi": 62,
          "time": 80.68963499999971,
          "velocity": 0.7480314960629921,
          "duration": 0.20689649999999915
        },
        {
          "name": "A3",
          "midi": 57,
          "time": 80.68963499999971,
          "velocity": 0.7480314960629921,
          "duration": 0.20689649999999915
        },
        {
          "name": "D3",
          "midi": 50,
          "time": 80.68963499999971,
          "velocity": 0.7480314960629921,
          "duration": 0.20689649999999915
        },
        {
          "name": "D4",
          "midi": 62,
          "time": 80.89653149999971,
          "velocity": 0.7480314960629921,
          "duration": 0.20689649999999915
        },
        {
          "name": "A3",
          "midi": 57,
          "time": 80.89653149999971,
          "velocity": 0.7480314960629921,
          "duration": 0.20689649999999915
        },
        {
          "name": "D3",
          "midi": 50,
          "time": 80.89653149999971,
          "velocity": 0.7480314960629921,
          "duration": 0.20689649999999915
        },
        {
          "name": "C4",
          "midi": 60,
          "time": 81.10342799999971,
          "velocity": 0.7480314960629921,
          "duration": 0.20689649999999915
        },
        {
          "name": "G3",
          "midi": 55,
          "time": 81.10342799999971,
          "velocity": 0.7480314960629921,
          "duration": 0.20689649999999915
        },
        {
          "name": "C3",
          "midi": 48,
          "time": 81.10342799999971,
          "velocity": 0.7480314960629921,
          "duration": 0.20689649999999915
        },
        {
          "name": "C4",
          "midi": 60,
          "time": 81.31032449999971,
          "velocity": 0.7480314960629921,
          "duration": 0.20689649999999915
        },
        {
          "name": "G3",
          "midi": 55,
          "time": 81.31032449999971,
          "velocity": 0.7480314960629921,
          "duration": 0.20689649999999915
        },
        {
          "name": "C3",
          "midi": 48,
          "time": 81.31032449999971,
          "velocity": 0.7480314960629921,
          "duration": 0.20689649999999915
        },
        {
          "name": "C4",
          "midi": 60,
          "time": 81.51722099999971,
          "velocity": 0.7480314960629921,
          "duration": 0.20689649999999915
        },
        {
          "name": "G3",
          "midi": 55,
          "time": 81.51722099999971,
          "velocity": 0.7480314960629921,
          "duration": 0.20689649999999915
        },
        {
          "name": "C3",
          "midi": 48,
          "time": 81.51722099999971,
          "velocity": 0.7480314960629921,
          "duration": 0.20689649999999915
        },
        {
          "name": "C4",
          "midi": 60,
          "time": 81.7241174999997,
          "velocity": 0.7480314960629921,
          "duration": 0.20689649999999915
        },
        {
          "name": "G3",
          "midi": 55,
          "time": 81.7241174999997,
          "velocity": 0.7480314960629921,
          "duration": 0.20689649999999915
        },
        {
          "name": "C3",
          "midi": 48,
          "time": 81.7241174999997,
          "velocity": 0.7480314960629921,
          "duration": 0.20689649999999915
        },
        {
          "name": "C4",
          "midi": 60,
          "time": 81.9310139999997,
          "velocity": 0.7480314960629921,
          "duration": 0.20689649999999915
        },
        {
          "name": "G3",
          "midi": 55,
          "time": 81.9310139999997,
          "velocity": 0.7480314960629921,
          "duration": 0.20689649999999915
        },
        {
          "name": "C3",
          "midi": 48,
          "time": 81.9310139999997,
          "velocity": 0.7480314960629921,
          "duration": 0.20689649999999915
        },
        {
          "name": "C4",
          "midi": 60,
          "time": 82.1379104999997,
          "velocity": 0.7480314960629921,
          "duration": 0.20689649999999915
        },
        {
          "name": "G3",
          "midi": 55,
          "time": 82.1379104999997,
          "velocity": 0.7480314960629921,
          "duration": 0.20689649999999915
        },
        {
          "name": "C3",
          "midi": 48,
          "time": 82.1379104999997,
          "velocity": 0.7480314960629921,
          "duration": 0.20689649999999915
        },
        {
          "name": "C4",
          "midi": 60,
          "time": 82.3448069999997,
          "velocity": 0.7480314960629921,
          "duration": 0.20689649999999915
        },
        {
          "name": "G3",
          "midi": 55,
          "time": 82.3448069999997,
          "velocity": 0.7480314960629921,
          "duration": 0.20689649999999915
        },
        {
          "name": "C3",
          "midi": 48,
          "time": 82.3448069999997,
          "velocity": 0.7480314960629921,
          "duration": 0.20689649999999915
        },
        {
          "name": "C4",
          "midi": 60,
          "time": 82.5517034999997,
          "velocity": 0.7480314960629921,
          "duration": 0.20689649999999915
        },
        {
          "name": "G3",
          "midi": 55,
          "time": 82.5517034999997,
          "velocity": 0.7480314960629921,
          "duration": 0.20689649999999915
        },
        {
          "name": "C3",
          "midi": 48,
          "time": 82.5517034999997,
          "velocity": 0.7480314960629921,
          "duration": 0.20689649999999915
        },
        {
          "name": "G4",
          "midi": 67,
          "time": 82.7585999999997,
          "velocity": 0.7480314960629921,
          "duration": 0.20689649999999915
        },
        {
          "name": "E4",
          "midi": 64,
          "time": 82.7585999999997,
          "velocity": 0.7480314960629921,
          "duration": 0.20689649999999915
        },
        {
          "name": "B3",
          "midi": 59,
          "time": 82.7585999999997,
          "velocity": 0.7480314960629921,
          "duration": 0.20689649999999915
        },
        {
          "name": "E3",
          "midi": 52,
          "time": 82.7585999999997,
          "velocity": 0.7480314960629921,
          "duration": 0.20689649999999915
        },
        {
          "name": "G4",
          "midi": 67,
          "time": 82.9654964999997,
          "velocity": 0.7480314960629921,
          "duration": 0.20689649999999915
        },
        {
          "name": "E4",
          "midi": 64,
          "time": 82.9654964999997,
          "velocity": 0.7480314960629921,
          "duration": 0.20689649999999915
        },
        {
          "name": "B3",
          "midi": 59,
          "time": 82.9654964999997,
          "velocity": 0.7480314960629921,
          "duration": 0.20689649999999915
        },
        {
          "name": "E3",
          "midi": 52,
          "time": 82.9654964999997,
          "velocity": 0.7480314960629921,
          "duration": 0.20689649999999915
        },
        {
          "name": "G4",
          "midi": 67,
          "time": 83.1723929999997,
          "velocity": 0.7480314960629921,
          "duration": 0.20689649999999915
        },
        {
          "name": "E4",
          "midi": 64,
          "time": 83.1723929999997,
          "velocity": 0.7480314960629921,
          "duration": 0.20689649999999915
        },
        {
          "name": "B3",
          "midi": 59,
          "time": 83.1723929999997,
          "velocity": 0.7480314960629921,
          "duration": 0.20689649999999915
        },
        {
          "name": "E3",
          "midi": 52,
          "time": 83.1723929999997,
          "velocity": 0.7480314960629921,
          "duration": 0.20689649999999915
        },
        {
          "name": "G4",
          "midi": 67,
          "time": 83.3792894999997,
          "velocity": 0.7480314960629921,
          "duration": 0.20689649999999915
        },
        {
          "name": "E4",
          "midi": 64,
          "time": 83.3792894999997,
          "velocity": 0.7480314960629921,
          "duration": 0.20689649999999915
        },
        {
          "name": "B3",
          "midi": 59,
          "time": 83.3792894999997,
          "velocity": 0.7480314960629921,
          "duration": 0.20689649999999915
        },
        {
          "name": "E3",
          "midi": 52,
          "time": 83.3792894999997,
          "velocity": 0.7480314960629921,
          "duration": 0.20689649999999915
        },
        {
          "name": "G4",
          "midi": 67,
          "time": 83.5861859999997,
          "velocity": 0.7480314960629921,
          "duration": 0.20689649999999915
        },
        {
          "name": "E4",
          "midi": 64,
          "time": 83.5861859999997,
          "velocity": 0.7480314960629921,
          "duration": 0.20689649999999915
        },
        {
          "name": "B3",
          "midi": 59,
          "time": 83.5861859999997,
          "velocity": 0.7480314960629921,
          "duration": 0.20689649999999915
        },
        {
          "name": "E3",
          "midi": 52,
          "time": 83.5861859999997,
          "velocity": 0.7480314960629921,
          "duration": 0.20689649999999915
        },
        {
          "name": "G4",
          "midi": 67,
          "time": 83.7930824999997,
          "velocity": 0.7480314960629921,
          "duration": 0.20689649999999915
        },
        {
          "name": "E4",
          "midi": 64,
          "time": 83.7930824999997,
          "velocity": 0.7480314960629921,
          "duration": 0.20689649999999915
        },
        {
          "name": "B3",
          "midi": 59,
          "time": 83.7930824999997,
          "velocity": 0.7480314960629921,
          "duration": 0.20689649999999915
        },
        {
          "name": "E3",
          "midi": 52,
          "time": 83.7930824999997,
          "velocity": 0.7480314960629921,
          "duration": 0.20689649999999915
        },
        {
          "name": "G4",
          "midi": 67,
          "time": 83.9999789999997,
          "velocity": 0.7480314960629921,
          "duration": 0.20689649999999915
        },
        {
          "name": "E4",
          "midi": 64,
          "time": 83.9999789999997,
          "velocity": 0.7480314960629921,
          "duration": 0.20689649999999915
        },
        {
          "name": "B3",
          "midi": 59,
          "time": 83.9999789999997,
          "velocity": 0.7480314960629921,
          "duration": 0.20689649999999915
        },
        {
          "name": "E3",
          "midi": 52,
          "time": 83.9999789999997,
          "velocity": 0.7480314960629921,
          "duration": 0.20689649999999915
        },
        {
          "name": "G4",
          "midi": 67,
          "time": 84.2068754999997,
          "velocity": 0.7480314960629921,
          "duration": 0.20689649999999915
        },
        {
          "name": "E4",
          "midi": 64,
          "time": 84.2068754999997,
          "velocity": 0.7480314960629921,
          "duration": 0.20689649999999915
        },
        {
          "name": "B3",
          "midi": 59,
          "time": 84.2068754999997,
          "velocity": 0.7480314960629921,
          "duration": 0.20689649999999915
        },
        {
          "name": "E3",
          "midi": 52,
          "time": 84.2068754999997,
          "velocity": 0.7480314960629921,
          "duration": 0.20689649999999915
        },
        {
          "name": "D4",
          "midi": 62,
          "time": 84.4137719999997,
          "velocity": 0.7480314960629921,
          "duration": 0.20689649999999915
        },
        {
          "name": "A3",
          "midi": 57,
          "time": 84.4137719999997,
          "velocity": 0.7480314960629921,
          "duration": 0.20689649999999915
        },
        {
          "name": "D3",
          "midi": 50,
          "time": 84.4137719999997,
          "velocity": 0.7480314960629921,
          "duration": 0.20689649999999915
        },
        {
          "name": "D4",
          "midi": 62,
          "time": 84.6206684999997,
          "velocity": 0.7480314960629921,
          "duration": 0.20689649999999915
        },
        {
          "name": "A3",
          "midi": 57,
          "time": 84.6206684999997,
          "velocity": 0.7480314960629921,
          "duration": 0.20689649999999915
        },
        {
          "name": "D3",
          "midi": 50,
          "time": 84.6206684999997,
          "velocity": 0.7480314960629921,
          "duration": 0.20689649999999915
        },
        {
          "name": "D4",
          "midi": 62,
          "time": 84.8275649999997,
          "velocity": 0.7480314960629921,
          "duration": 0.20689649999999915
        },
        {
          "name": "A3",
          "midi": 57,
          "time": 84.8275649999997,
          "velocity": 0.7480314960629921,
          "duration": 0.20689649999999915
        },
        {
          "name": "D3",
          "midi": 50,
          "time": 84.8275649999997,
          "velocity": 0.7480314960629921,
          "duration": 0.20689649999999915
        },
        {
          "name": "D4",
          "midi": 62,
          "time": 85.0344614999997,
          "velocity": 0.7480314960629921,
          "duration": 0.20689649999999915
        },
        {
          "name": "A3",
          "midi": 57,
          "time": 85.0344614999997,
          "velocity": 0.7480314960629921,
          "duration": 0.20689649999999915
        },
        {
          "name": "D3",
          "midi": 50,
          "time": 85.0344614999997,
          "velocity": 0.7480314960629921,
          "duration": 0.20689649999999915
        },
        {
          "name": "D4",
          "midi": 62,
          "time": 85.24135799999969,
          "velocity": 0.7480314960629921,
          "duration": 0.20689649999999915
        },
        {
          "name": "A3",
          "midi": 57,
          "time": 85.24135799999969,
          "velocity": 0.7480314960629921,
          "duration": 0.20689649999999915
        },
        {
          "name": "D3",
          "midi": 50,
          "time": 85.24135799999969,
          "velocity": 0.7480314960629921,
          "duration": 0.20689649999999915
        },
        {
          "name": "D4",
          "midi": 62,
          "time": 85.44825449999969,
          "velocity": 0.7480314960629921,
          "duration": 0.20689649999999915
        },
        {
          "name": "A3",
          "midi": 57,
          "time": 85.44825449999969,
          "velocity": 0.7480314960629921,
          "duration": 0.20689649999999915
        },
        {
          "name": "D3",
          "midi": 50,
          "time": 85.44825449999969,
          "velocity": 0.7480314960629921,
          "duration": 0.20689649999999915
        },
        {
          "name": "D4",
          "midi": 62,
          "time": 85.65515099999969,
          "velocity": 0.7480314960629921,
          "duration": 0.20689649999999915
        },
        {
          "name": "A3",
          "midi": 57,
          "time": 85.65515099999969,
          "velocity": 0.7480314960629921,
          "duration": 0.20689649999999915
        },
        {
          "name": "D3",
          "midi": 50,
          "time": 85.65515099999969,
          "velocity": 0.7480314960629921,
          "duration": 0.20689649999999915
        },
        {
          "name": "D4",
          "midi": 62,
          "time": 85.86204749999969,
          "velocity": 0.7480314960629921,
          "duration": 0.20689649999999915
        },
        {
          "name": "A3",
          "midi": 57,
          "time": 85.86204749999969,
          "velocity": 0.7480314960629921,
          "duration": 0.20689649999999915
        },
        {
          "name": "D3",
          "midi": 50,
          "time": 85.86204749999969,
          "velocity": 0.7480314960629921,
          "duration": 0.20689649999999915
        },
        {
          "name": "C4",
          "midi": 60,
          "time": 86.06894399999969,
          "velocity": 0.7480314960629921,
          "duration": 0.20689649999999915
        },
        {
          "name": "G3",
          "midi": 55,
          "time": 86.06894399999969,
          "velocity": 0.7480314960629921,
          "duration": 0.20689649999999915
        },
        {
          "name": "C3",
          "midi": 48,
          "time": 86.06894399999969,
          "velocity": 0.7480314960629921,
          "duration": 0.20689649999999915
        },
        {
          "name": "C4",
          "midi": 60,
          "time": 86.27584049999969,
          "velocity": 0.7480314960629921,
          "duration": 0.20689649999999915
        },
        {
          "name": "G3",
          "midi": 55,
          "time": 86.27584049999969,
          "velocity": 0.7480314960629921,
          "duration": 0.20689649999999915
        },
        {
          "name": "C3",
          "midi": 48,
          "time": 86.27584049999969,
          "velocity": 0.7480314960629921,
          "duration": 0.20689649999999915
        },
        {
          "name": "C4",
          "midi": 60,
          "time": 86.48273699999969,
          "velocity": 0.7480314960629921,
          "duration": 0.20689649999999915
        },
        {
          "name": "G3",
          "midi": 55,
          "time": 86.48273699999969,
          "velocity": 0.7480314960629921,
          "duration": 0.20689649999999915
        },
        {
          "name": "C3",
          "midi": 48,
          "time": 86.48273699999969,
          "velocity": 0.7480314960629921,
          "duration": 0.20689649999999915
        },
        {
          "name": "C4",
          "midi": 60,
          "time": 86.68963349999969,
          "velocity": 0.7480314960629921,
          "duration": 0.20689649999999915
        },
        {
          "name": "G3",
          "midi": 55,
          "time": 86.68963349999969,
          "velocity": 0.7480314960629921,
          "duration": 0.20689649999999915
        },
        {
          "name": "C3",
          "midi": 48,
          "time": 86.68963349999969,
          "velocity": 0.7480314960629921,
          "duration": 0.20689649999999915
        },
        {
          "name": "C4",
          "midi": 60,
          "time": 86.89652999999969,
          "velocity": 0.7480314960629921,
          "duration": 0.20689649999999915
        },
        {
          "name": "G3",
          "midi": 55,
          "time": 86.89652999999969,
          "velocity": 0.7480314960629921,
          "duration": 0.20689649999999915
        },
        {
          "name": "C3",
          "midi": 48,
          "time": 86.89652999999969,
          "velocity": 0.7480314960629921,
          "duration": 0.20689649999999915
        },
        {
          "name": "C4",
          "midi": 60,
          "time": 87.10342649999969,
          "velocity": 0.7480314960629921,
          "duration": 0.20689649999999915
        },
        {
          "name": "G3",
          "midi": 55,
          "time": 87.10342649999969,
          "velocity": 0.7480314960629921,
          "duration": 0.20689649999999915
        },
        {
          "name": "C3",
          "midi": 48,
          "time": 87.10342649999969,
          "velocity": 0.7480314960629921,
          "duration": 0.20689649999999915
        },
        {
          "name": "C4",
          "midi": 60,
          "time": 87.31032299999968,
          "velocity": 0.7480314960629921,
          "duration": 0.20689649999999915
        },
        {
          "name": "G3",
          "midi": 55,
          "time": 87.31032299999968,
          "velocity": 0.7480314960629921,
          "duration": 0.20689649999999915
        },
        {
          "name": "C3",
          "midi": 48,
          "time": 87.31032299999968,
          "velocity": 0.7480314960629921,
          "duration": 0.20689649999999915
        },
        {
          "name": "C4",
          "midi": 60,
          "time": 87.51721949999968,
          "velocity": 0.7480314960629921,
          "duration": 0.20689649999999915
        },
        {
          "name": "G3",
          "midi": 55,
          "time": 87.51721949999968,
          "velocity": 0.7480314960629921,
          "duration": 0.20689649999999915
        },
        {
          "name": "C3",
          "midi": 48,
          "time": 87.51721949999968,
          "velocity": 0.7480314960629921,
          "duration": 0.20689649999999915
        },
        {
          "name": "G4",
          "midi": 67,
          "time": 87.72411599999968,
          "velocity": 0.7480314960629921,
          "duration": 0.20689649999999915
        },
        {
          "name": "E4",
          "midi": 64,
          "time": 87.72411599999968,
          "velocity": 0.7480314960629921,
          "duration": 0.20689649999999915
        },
        {
          "name": "B3",
          "midi": 59,
          "time": 87.72411599999968,
          "velocity": 0.7480314960629921,
          "duration": 0.20689649999999915
        },
        {
          "name": "E3",
          "midi": 52,
          "time": 87.72411599999968,
          "velocity": 0.7480314960629921,
          "duration": 0.20689649999999915
        },
        {
          "name": "G4",
          "midi": 67,
          "time": 87.93101249999968,
          "velocity": 0.7480314960629921,
          "duration": 0.20689649999999915
        },
        {
          "name": "E4",
          "midi": 64,
          "time": 87.93101249999968,
          "velocity": 0.7480314960629921,
          "duration": 0.20689649999999915
        },
        {
          "name": "B3",
          "midi": 59,
          "time": 87.93101249999968,
          "velocity": 0.7480314960629921,
          "duration": 0.20689649999999915
        },
        {
          "name": "E3",
          "midi": 52,
          "time": 87.93101249999968,
          "velocity": 0.7480314960629921,
          "duration": 0.20689649999999915
        },
        {
          "name": "G4",
          "midi": 67,
          "time": 88.13790899999968,
          "velocity": 0.7480314960629921,
          "duration": 0.20689649999999915
        },
        {
          "name": "E4",
          "midi": 64,
          "time": 88.13790899999968,
          "velocity": 0.7480314960629921,
          "duration": 0.20689649999999915
        },
        {
          "name": "B3",
          "midi": 59,
          "time": 88.13790899999968,
          "velocity": 0.7480314960629921,
          "duration": 0.20689649999999915
        },
        {
          "name": "E3",
          "midi": 52,
          "time": 88.13790899999968,
          "velocity": 0.7480314960629921,
          "duration": 0.20689649999999915
        },
        {
          "name": "G4",
          "midi": 67,
          "time": 88.34480549999968,
          "velocity": 0.7480314960629921,
          "duration": 0.20689649999999915
        },
        {
          "name": "E4",
          "midi": 64,
          "time": 88.34480549999968,
          "velocity": 0.7480314960629921,
          "duration": 0.20689649999999915
        },
        {
          "name": "B3",
          "midi": 59,
          "time": 88.34480549999968,
          "velocity": 0.7480314960629921,
          "duration": 0.20689649999999915
        },
        {
          "name": "E3",
          "midi": 52,
          "time": 88.34480549999968,
          "velocity": 0.7480314960629921,
          "duration": 0.20689649999999915
        },
        {
          "name": "G4",
          "midi": 67,
          "time": 88.55170199999968,
          "velocity": 0.7480314960629921,
          "duration": 0.20689649999999915
        },
        {
          "name": "E4",
          "midi": 64,
          "time": 88.55170199999968,
          "velocity": 0.7480314960629921,
          "duration": 0.20689649999999915
        },
        {
          "name": "B3",
          "midi": 59,
          "time": 88.55170199999968,
          "velocity": 0.7480314960629921,
          "duration": 0.20689649999999915
        },
        {
          "name": "E3",
          "midi": 52,
          "time": 88.55170199999968,
          "velocity": 0.7480314960629921,
          "duration": 0.20689649999999915
        },
        {
          "name": "G4",
          "midi": 67,
          "time": 88.75859849999968,
          "velocity": 0.7480314960629921,
          "duration": 0.20689649999999915
        },
        {
          "name": "E4",
          "midi": 64,
          "time": 88.75859849999968,
          "velocity": 0.7480314960629921,
          "duration": 0.20689649999999915
        },
        {
          "name": "B3",
          "midi": 59,
          "time": 88.75859849999968,
          "velocity": 0.7480314960629921,
          "duration": 0.20689649999999915
        },
        {
          "name": "E3",
          "midi": 52,
          "time": 88.75859849999968,
          "velocity": 0.7480314960629921,
          "duration": 0.20689649999999915
        },
        {
          "name": "G4",
          "midi": 67,
          "time": 88.96549499999968,
          "velocity": 0.7480314960629921,
          "duration": 0.20689649999999915
        },
        {
          "name": "E4",
          "midi": 64,
          "time": 88.96549499999968,
          "velocity": 0.7480314960629921,
          "duration": 0.20689649999999915
        },
        {
          "name": "B3",
          "midi": 59,
          "time": 88.96549499999968,
          "velocity": 0.7480314960629921,
          "duration": 0.20689649999999915
        },
        {
          "name": "E3",
          "midi": 52,
          "time": 88.96549499999968,
          "velocity": 0.7480314960629921,
          "duration": 0.20689649999999915
        },
        {
          "name": "G4",
          "midi": 67,
          "time": 89.17239149999968,
          "velocity": 0.7480314960629921,
          "duration": 0.20689649999999915
        },
        {
          "name": "E4",
          "midi": 64,
          "time": 89.17239149999968,
          "velocity": 0.7480314960629921,
          "duration": 0.20689649999999915
        },
        {
          "name": "B3",
          "midi": 59,
          "time": 89.17239149999968,
          "velocity": 0.7480314960629921,
          "duration": 0.20689649999999915
        },
        {
          "name": "E3",
          "midi": 52,
          "time": 89.17239149999968,
          "velocity": 0.7480314960629921,
          "duration": 0.20689649999999915
        },
        {
          "name": "D4",
          "midi": 62,
          "time": 89.37928799999968,
          "velocity": 0.7480314960629921,
          "duration": 0.20689649999999915
        },
        {
          "name": "A3",
          "midi": 57,
          "time": 89.37928799999968,
          "velocity": 0.7480314960629921,
          "duration": 0.20689649999999915
        },
        {
          "name": "D3",
          "midi": 50,
          "time": 89.37928799999968,
          "velocity": 0.7480314960629921,
          "duration": 0.20689649999999915
        },
        {
          "name": "D4",
          "midi": 62,
          "time": 89.58618449999967,
          "velocity": 0.7480314960629921,
          "duration": 0.20689649999999915
        },
        {
          "name": "A3",
          "midi": 57,
          "time": 89.58618449999967,
          "velocity": 0.7480314960629921,
          "duration": 0.20689649999999915
        },
        {
          "name": "D3",
          "midi": 50,
          "time": 89.58618449999967,
          "velocity": 0.7480314960629921,
          "duration": 0.20689649999999915
        },
        {
          "name": "D4",
          "midi": 62,
          "time": 89.79308099999967,
          "velocity": 0.7480314960629921,
          "duration": 0.20689649999999915
        },
        {
          "name": "A3",
          "midi": 57,
          "time": 89.79308099999967,
          "velocity": 0.7480314960629921,
          "duration": 0.20689649999999915
        },
        {
          "name": "D3",
          "midi": 50,
          "time": 89.79308099999967,
          "velocity": 0.7480314960629921,
          "duration": 0.20689649999999915
        },
        {
          "name": "D4",
          "midi": 62,
          "time": 89.99997749999967,
          "velocity": 0.7480314960629921,
          "duration": 0.20689649999999915
        },
        {
          "name": "A3",
          "midi": 57,
          "time": 89.99997749999967,
          "velocity": 0.7480314960629921,
          "duration": 0.20689649999999915
        },
        {
          "name": "D3",
          "midi": 50,
          "time": 89.99997749999967,
          "velocity": 0.7480314960629921,
          "duration": 0.20689649999999915
        },
        {
          "name": "D4",
          "midi": 62,
          "time": 90.20687399999967,
          "velocity": 0.7480314960629921,
          "duration": 0.20689649999999915
        },
        {
          "name": "A3",
          "midi": 57,
          "time": 90.20687399999967,
          "velocity": 0.7480314960629921,
          "duration": 0.20689649999999915
        },
        {
          "name": "D3",
          "midi": 50,
          "time": 90.20687399999967,
          "velocity": 0.7480314960629921,
          "duration": 0.20689649999999915
        },
        {
          "name": "D4",
          "midi": 62,
          "time": 90.41377049999967,
          "velocity": 0.7480314960629921,
          "duration": 0.20689649999999915
        },
        {
          "name": "A3",
          "midi": 57,
          "time": 90.41377049999967,
          "velocity": 0.7480314960629921,
          "duration": 0.20689649999999915
        },
        {
          "name": "D3",
          "midi": 50,
          "time": 90.41377049999967,
          "velocity": 0.7480314960629921,
          "duration": 0.20689649999999915
        },
        {
          "name": "D4",
          "midi": 62,
          "time": 90.62066699999967,
          "velocity": 0.7480314960629921,
          "duration": 0.20689649999999915
        },
        {
          "name": "A3",
          "midi": 57,
          "time": 90.62066699999967,
          "velocity": 0.7480314960629921,
          "duration": 0.20689649999999915
        },
        {
          "name": "D3",
          "midi": 50,
          "time": 90.62066699999967,
          "velocity": 0.7480314960629921,
          "duration": 0.20689649999999915
        },
        {
          "name": "D4",
          "midi": 62,
          "time": 90.82756349999967,
          "velocity": 0.7480314960629921,
          "duration": 0.20689649999999915
        },
        {
          "name": "A3",
          "midi": 57,
          "time": 90.82756349999967,
          "velocity": 0.7480314960629921,
          "duration": 0.20689649999999915
        },
        {
          "name": "D3",
          "midi": 50,
          "time": 90.82756349999967,
          "velocity": 0.7480314960629921,
          "duration": 0.20689649999999915
        },
        {
          "name": "C4",
          "midi": 60,
          "time": 91.03445999999967,
          "velocity": 0.7480314960629921,
          "duration": 0.20689649999999915
        },
        {
          "name": "G3",
          "midi": 55,
          "time": 91.03445999999967,
          "velocity": 0.7480314960629921,
          "duration": 0.20689649999999915
        },
        {
          "name": "C3",
          "midi": 48,
          "time": 91.03445999999967,
          "velocity": 0.7480314960629921,
          "duration": 0.20689649999999915
        },
        {
          "name": "C4",
          "midi": 60,
          "time": 91.24135649999967,
          "velocity": 0.7480314960629921,
          "duration": 0.20689649999999915
        },
        {
          "name": "G3",
          "midi": 55,
          "time": 91.24135649999967,
          "velocity": 0.7480314960629921,
          "duration": 0.20689649999999915
        },
        {
          "name": "C3",
          "midi": 48,
          "time": 91.24135649999967,
          "velocity": 0.7480314960629921,
          "duration": 0.20689649999999915
        },
        {
          "name": "C4",
          "midi": 60,
          "time": 91.44825299999967,
          "velocity": 0.7480314960629921,
          "duration": 0.20689649999999915
        },
        {
          "name": "G3",
          "midi": 55,
          "time": 91.44825299999967,
          "velocity": 0.7480314960629921,
          "duration": 0.20689649999999915
        },
        {
          "name": "C3",
          "midi": 48,
          "time": 91.44825299999967,
          "velocity": 0.7480314960629921,
          "duration": 0.20689649999999915
        },
        {
          "name": "C4",
          "midi": 60,
          "time": 91.65514949999967,
          "velocity": 0.7480314960629921,
          "duration": 0.20689649999999915
        },
        {
          "name": "G3",
          "midi": 55,
          "time": 91.65514949999967,
          "velocity": 0.7480314960629921,
          "duration": 0.20689649999999915
        },
        {
          "name": "C3",
          "midi": 48,
          "time": 91.65514949999967,
          "velocity": 0.7480314960629921,
          "duration": 0.20689649999999915
        },
        {
          "name": "C4",
          "midi": 60,
          "time": 91.86204599999967,
          "velocity": 0.7480314960629921,
          "duration": 0.20689649999999915
        },
        {
          "name": "G3",
          "midi": 55,
          "time": 91.86204599999967,
          "velocity": 0.7480314960629921,
          "duration": 0.20689649999999915
        },
        {
          "name": "C3",
          "midi": 48,
          "time": 91.86204599999967,
          "velocity": 0.7480314960629921,
          "duration": 0.20689649999999915
        },
        {
          "name": "C4",
          "midi": 60,
          "time": 92.06894249999966,
          "velocity": 0.7480314960629921,
          "duration": 0.20689649999999915
        },
        {
          "name": "G3",
          "midi": 55,
          "time": 92.06894249999966,
          "velocity": 0.7480314960629921,
          "duration": 0.20689649999999915
        },
        {
          "name": "C3",
          "midi": 48,
          "time": 92.06894249999966,
          "velocity": 0.7480314960629921,
          "duration": 0.20689649999999915
        },
        {
          "name": "C4",
          "midi": 60,
          "time": 92.27583899999966,
          "velocity": 0.7480314960629921,
          "duration": 0.20689649999999915
        },
        {
          "name": "G3",
          "midi": 55,
          "time": 92.27583899999966,
          "velocity": 0.7480314960629921,
          "duration": 0.20689649999999915
        },
        {
          "name": "C3",
          "midi": 48,
          "time": 92.27583899999966,
          "velocity": 0.7480314960629921,
          "duration": 0.20689649999999915
        },
        {
          "name": "C4",
          "midi": 60,
          "time": 92.48273549999966,
          "velocity": 0.7480314960629921,
          "duration": 0.20689649999999915
        },
        {
          "name": "G3",
          "midi": 55,
          "time": 92.48273549999966,
          "velocity": 0.7480314960629921,
          "duration": 0.20689649999999915
        },
        {
          "name": "C3",
          "midi": 48,
          "time": 92.48273549999966,
          "velocity": 0.7480314960629921,
          "duration": 0.20689649999999915
        },
        {
          "name": "G4",
          "midi": 67,
          "time": 92.68963199999966,
          "velocity": 0.7480314960629921,
          "duration": 0.20689649999999915
        },
        {
          "name": "E4",
          "midi": 64,
          "time": 92.68963199999966,
          "velocity": 0.7480314960629921,
          "duration": 0.20689649999999915
        },
        {
          "name": "B3",
          "midi": 59,
          "time": 92.68963199999966,
          "velocity": 0.7480314960629921,
          "duration": 0.20689649999999915
        },
        {
          "name": "E3",
          "midi": 52,
          "time": 92.68963199999966,
          "velocity": 0.7480314960629921,
          "duration": 0.20689649999999915
        },
        {
          "name": "G4",
          "midi": 67,
          "time": 92.89652849999966,
          "velocity": 0.7480314960629921,
          "duration": 0.20689649999999915
        },
        {
          "name": "E4",
          "midi": 64,
          "time": 92.89652849999966,
          "velocity": 0.7480314960629921,
          "duration": 0.20689649999999915
        },
        {
          "name": "B3",
          "midi": 59,
          "time": 92.89652849999966,
          "velocity": 0.7480314960629921,
          "duration": 0.20689649999999915
        },
        {
          "name": "E3",
          "midi": 52,
          "time": 92.89652849999966,
          "velocity": 0.7480314960629921,
          "duration": 0.20689649999999915
        },
        {
          "name": "G4",
          "midi": 67,
          "time": 93.10342499999966,
          "velocity": 0.7480314960629921,
          "duration": 0.20689649999999915
        },
        {
          "name": "E4",
          "midi": 64,
          "time": 93.10342499999966,
          "velocity": 0.7480314960629921,
          "duration": 0.20689649999999915
        },
        {
          "name": "B3",
          "midi": 59,
          "time": 93.10342499999966,
          "velocity": 0.7480314960629921,
          "duration": 0.20689649999999915
        },
        {
          "name": "E3",
          "midi": 52,
          "time": 93.10342499999966,
          "velocity": 0.7480314960629921,
          "duration": 0.20689649999999915
        },
        {
          "name": "G4",
          "midi": 67,
          "time": 93.31032149999966,
          "velocity": 0.7480314960629921,
          "duration": 0.20689649999999915
        },
        {
          "name": "E4",
          "midi": 64,
          "time": 93.31032149999966,
          "velocity": 0.7480314960629921,
          "duration": 0.20689649999999915
        },
        {
          "name": "B3",
          "midi": 59,
          "time": 93.31032149999966,
          "velocity": 0.7480314960629921,
          "duration": 0.20689649999999915
        },
        {
          "name": "E3",
          "midi": 52,
          "time": 93.31032149999966,
          "velocity": 0.7480314960629921,
          "duration": 0.20689649999999915
        },
        {
          "name": "G4",
          "midi": 67,
          "time": 93.51721799999966,
          "velocity": 0.7480314960629921,
          "duration": 0.20689649999999915
        },
        {
          "name": "E4",
          "midi": 64,
          "time": 93.51721799999966,
          "velocity": 0.7480314960629921,
          "duration": 0.20689649999999915
        },
        {
          "name": "B3",
          "midi": 59,
          "time": 93.51721799999966,
          "velocity": 0.7480314960629921,
          "duration": 0.20689649999999915
        },
        {
          "name": "E3",
          "midi": 52,
          "time": 93.51721799999966,
          "velocity": 0.7480314960629921,
          "duration": 0.20689649999999915
        },
        {
          "name": "G4",
          "midi": 67,
          "time": 93.72411449999966,
          "velocity": 0.7480314960629921,
          "duration": 0.20689649999999915
        },
        {
          "name": "E4",
          "midi": 64,
          "time": 93.72411449999966,
          "velocity": 0.7480314960629921,
          "duration": 0.20689649999999915
        },
        {
          "name": "B3",
          "midi": 59,
          "time": 93.72411449999966,
          "velocity": 0.7480314960629921,
          "duration": 0.20689649999999915
        },
        {
          "name": "E3",
          "midi": 52,
          "time": 93.72411449999966,
          "velocity": 0.7480314960629921,
          "duration": 0.20689649999999915
        },
        {
          "name": "G4",
          "midi": 67,
          "time": 93.93101099999966,
          "velocity": 0.7480314960629921,
          "duration": 0.20689649999999915
        },
        {
          "name": "E4",
          "midi": 64,
          "time": 93.93101099999966,
          "velocity": 0.7480314960629921,
          "duration": 0.20689649999999915
        },
        {
          "name": "B3",
          "midi": 59,
          "time": 93.93101099999966,
          "velocity": 0.7480314960629921,
          "duration": 0.20689649999999915
        },
        {
          "name": "E3",
          "midi": 52,
          "time": 93.93101099999966,
          "velocity": 0.7480314960629921,
          "duration": 0.20689649999999915
        },
        {
          "name": "G4",
          "midi": 67,
          "time": 94.13790749999966,
          "velocity": 0.7480314960629921,
          "duration": 0.20689649999999915
        },
        {
          "name": "E4",
          "midi": 64,
          "time": 94.13790749999966,
          "velocity": 0.7480314960629921,
          "duration": 0.20689649999999915
        },
        {
          "name": "B3",
          "midi": 59,
          "time": 94.13790749999966,
          "velocity": 0.7480314960629921,
          "duration": 0.20689649999999915
        },
        {
          "name": "E3",
          "midi": 52,
          "time": 94.13790749999966,
          "velocity": 0.7480314960629921,
          "duration": 0.20689649999999915
        },
        {
          "name": "D4",
          "midi": 62,
          "time": 94.34480399999966,
          "velocity": 0.7480314960629921,
          "duration": 0.20689649999999915
        },
        {
          "name": "A3",
          "midi": 57,
          "time": 94.34480399999966,
          "velocity": 0.7480314960629921,
          "duration": 0.20689649999999915
        },
        {
          "name": "D3",
          "midi": 50,
          "time": 94.34480399999966,
          "velocity": 0.7480314960629921,
          "duration": 0.20689649999999915
        },
        {
          "name": "D4",
          "midi": 62,
          "time": 94.55170049999965,
          "velocity": 0.7480314960629921,
          "duration": 0.20689649999999915
        },
        {
          "name": "A3",
          "midi": 57,
          "time": 94.55170049999965,
          "velocity": 0.7480314960629921,
          "duration": 0.20689649999999915
        },
        {
          "name": "D3",
          "midi": 50,
          "time": 94.55170049999965,
          "velocity": 0.7480314960629921,
          "duration": 0.20689649999999915
        },
        {
          "name": "D4",
          "midi": 62,
          "time": 94.75859699999965,
          "velocity": 0.7480314960629921,
          "duration": 0.20689649999999915
        },
        {
          "name": "A3",
          "midi": 57,
          "time": 94.75859699999965,
          "velocity": 0.7480314960629921,
          "duration": 0.20689649999999915
        },
        {
          "name": "D3",
          "midi": 50,
          "time": 94.75859699999965,
          "velocity": 0.7480314960629921,
          "duration": 0.20689649999999915
        },
        {
          "name": "D4",
          "midi": 62,
          "time": 94.96549349999965,
          "velocity": 0.7480314960629921,
          "duration": 0.20689649999999915
        },
        {
          "name": "A3",
          "midi": 57,
          "time": 94.96549349999965,
          "velocity": 0.7480314960629921,
          "duration": 0.20689649999999915
        },
        {
          "name": "D3",
          "midi": 50,
          "time": 94.96549349999965,
          "velocity": 0.7480314960629921,
          "duration": 0.20689649999999915
        },
        {
          "name": "D4",
          "midi": 62,
          "time": 95.17238999999965,
          "velocity": 0.7480314960629921,
          "duration": 0.20689649999999915
        },
        {
          "name": "A3",
          "midi": 57,
          "time": 95.17238999999965,
          "velocity": 0.7480314960629921,
          "duration": 0.20689649999999915
        },
        {
          "name": "D3",
          "midi": 50,
          "time": 95.17238999999965,
          "velocity": 0.7480314960629921,
          "duration": 0.20689649999999915
        },
        {
          "name": "D4",
          "midi": 62,
          "time": 95.37928649999965,
          "velocity": 0.7480314960629921,
          "duration": 0.20689649999999915
        },
        {
          "name": "A3",
          "midi": 57,
          "time": 95.37928649999965,
          "velocity": 0.7480314960629921,
          "duration": 0.20689649999999915
        },
        {
          "name": "D3",
          "midi": 50,
          "time": 95.37928649999965,
          "velocity": 0.7480314960629921,
          "duration": 0.20689649999999915
        },
        {
          "name": "D4",
          "midi": 62,
          "time": 95.58618299999965,
          "velocity": 0.7480314960629921,
          "duration": 0.20689649999999915
        },
        {
          "name": "A3",
          "midi": 57,
          "time": 95.58618299999965,
          "velocity": 0.7480314960629921,
          "duration": 0.20689649999999915
        },
        {
          "name": "D3",
          "midi": 50,
          "time": 95.58618299999965,
          "velocity": 0.7480314960629921,
          "duration": 0.20689649999999915
        },
        {
          "name": "D4",
          "midi": 62,
          "time": 95.79307949999965,
          "velocity": 0.7480314960629921,
          "duration": 0.20689649999999915
        },
        {
          "name": "A3",
          "midi": 57,
          "time": 95.79307949999965,
          "velocity": 0.7480314960629921,
          "duration": 0.20689649999999915
        },
        {
          "name": "D3",
          "midi": 50,
          "time": 95.79307949999965,
          "velocity": 0.7480314960629921,
          "duration": 0.20689649999999915
        },
        {
          "name": "A4",
          "midi": 69,
          "time": 95.99997599999965,
          "velocity": 0.7480314960629921,
          "duration": 0.20689649999999915
        },
        {
          "name": "B3",
          "midi": 59,
          "time": 95.99997599999965,
          "velocity": 0.7480314960629921,
          "duration": 0.20689649999999915
        },
        {
          "name": "D4",
          "midi": 62,
          "time": 95.99997599999965,
          "velocity": 0.7480314960629921,
          "duration": 0.20689649999999915
        },
        {
          "name": "D3",
          "midi": 50,
          "time": 95.99997599999965,
          "velocity": 0.7480314960629921,
          "duration": 0.20689649999999915
        },
        {
          "name": "A4",
          "midi": 69,
          "time": 96.20687249999965,
          "velocity": 0.7480314960629921,
          "duration": 0.20689649999999915
        },
        {
          "name": "B3",
          "midi": 59,
          "time": 96.20687249999965,
          "velocity": 0.7480314960629921,
          "duration": 0.20689649999999915
        },
        {
          "name": "C4",
          "midi": 60,
          "time": 96.20687249999965,
          "velocity": 0.5511811023622047,
          "duration": 0.20689649999999915
        },
        {
          "name": "D3",
          "midi": 50,
          "time": 96.20687249999965,
          "velocity": 0.7480314960629921,
          "duration": 0.20689649999999915
        },
        {
          "name": "A4",
          "midi": 69,
          "time": 96.41376899999965,
          "velocity": 0.7480314960629921,
          "duration": 0.20689649999999915
        },
        {
          "name": "B3",
          "midi": 59,
          "time": 96.41376899999965,
          "velocity": 0.7480314960629921,
          "duration": 0.20689649999999915
        },
        {
          "name": "C4",
          "midi": 60,
          "time": 96.41376899999965,
          "velocity": 0.7480314960629921,
          "duration": 0.20689649999999915
        },
        {
          "name": "D3",
          "midi": 50,
          "time": 96.41376899999965,
          "velocity": 0.7480314960629921,
          "duration": 0.20689649999999915
        },
        {
          "name": "A4",
          "midi": 69,
          "time": 96.62066549999965,
          "velocity": 0.7480314960629921,
          "duration": 0.20689649999999915
        },
        {
          "name": "B3",
          "midi": 59,
          "time": 96.62066549999965,
          "velocity": 0.7480314960629921,
          "duration": 0.20689649999999915
        },
        {
          "name": "C4",
          "midi": 60,
          "time": 96.62066549999965,
          "velocity": 0.7480314960629921,
          "duration": 0.20689649999999915
        },
        {
          "name": "D3",
          "midi": 50,
          "time": 96.62066549999965,
          "velocity": 0.7480314960629921,
          "duration": 0.20689649999999915
        },
        {
          "name": "A4",
          "midi": 69,
          "time": 96.82756199999965,
          "velocity": 0.7480314960629921,
          "duration": 0.4137929999999983
        },
        {
          "name": "B3",
          "midi": 59,
          "time": 96.82756199999965,
          "velocity": 0.7480314960629921,
          "duration": 0.4137929999999983
        },
        {
          "name": "C4",
          "midi": 60,
          "time": 96.82756199999965,
          "velocity": 0.7480314960629921,
          "duration": 0.4137929999999983
        },
        {
          "name": "D3",
          "midi": 50,
          "time": 96.82756199999965,
          "velocity": 0.7480314960629921,
          "duration": 0.4137929999999983
        },
        {
          "name": "A4",
          "midi": 69,
          "time": 97.24135499999964,
          "velocity": 0.7480314960629921,
          "duration": 0.20689649999999915
        },
        {
          "name": "B3",
          "midi": 59,
          "time": 97.24135499999964,
          "velocity": 0.7480314960629921,
          "duration": 0.20689649999999915
        },
        {
          "name": "C4",
          "midi": 60,
          "time": 97.24135499999964,
          "velocity": 0.7480314960629921,
          "duration": 0.20689649999999915
        },
        {
          "name": "D3",
          "midi": 50,
          "time": 97.24135499999964,
          "velocity": 0.7480314960629921,
          "duration": 0.20689649999999915
        },
        {
          "name": "A4",
          "midi": 69,
          "time": 97.44825149999964,
          "velocity": 0.7480314960629921,
          "duration": 0.20689649999999915
        },
        {
          "name": "B3",
          "midi": 59,
          "time": 97.44825149999964,
          "velocity": 0.7480314960629921,
          "duration": 0.20689649999999915
        },
        {
          "name": "C4",
          "midi": 60,
          "time": 97.44825149999964,
          "velocity": 0.7480314960629921,
          "duration": 0.20689649999999915
        },
        {
          "name": "D3",
          "midi": 50,
          "time": 97.44825149999964,
          "velocity": 0.7480314960629921,
          "duration": 0.20689649999999915
        },
        {
          "name": "A4",
          "midi": 69,
          "time": 97.65514799999964,
          "velocity": 0.7480314960629921,
          "duration": 0.20689649999999915
        },
        {
          "name": "B3",
          "midi": 59,
          "time": 97.65514799999964,
          "velocity": 0.7480314960629921,
          "duration": 0.20689649999999915
        },
        {
          "name": "C4",
          "midi": 60,
          "time": 97.65514799999964,
          "velocity": 0.7480314960629921,
          "duration": 0.20689649999999915
        },
        {
          "name": "D3",
          "midi": 50,
          "time": 97.65514799999964,
          "velocity": 0.7480314960629921,
          "duration": 0.20689649999999915
        },
        {
          "name": "A4",
          "midi": 69,
          "time": 97.86204449999964,
          "velocity": 0.7480314960629921,
          "duration": 0.20689649999999915
        },
        {
          "name": "B3",
          "midi": 59,
          "time": 97.86204449999964,
          "velocity": 0.7480314960629921,
          "duration": 0.20689649999999915
        },
        {
          "name": "C4",
          "midi": 60,
          "time": 97.86204449999964,
          "velocity": 0.7480314960629921,
          "duration": 0.20689649999999915
        },
        {
          "name": "D3",
          "midi": 50,
          "time": 97.86204449999964,
          "velocity": 0.7480314960629921,
          "duration": 0.20689649999999915
        },
        {
          "name": "A4",
          "midi": 69,
          "time": 98.06894099999964,
          "velocity": 0.7480314960629921,
          "duration": 0.4137929999999983
        },
        {
          "name": "B3",
          "midi": 59,
          "time": 98.06894099999964,
          "velocity": 0.7480314960629921,
          "duration": 0.4137929999999983
        },
        {
          "name": "C4",
          "midi": 60,
          "time": 98.06894099999964,
          "velocity": 0.7480314960629921,
          "duration": 0.4137929999999983
        },
        {
          "name": "D3",
          "midi": 50,
          "time": 98.06894099999964,
          "velocity": 0.7480314960629921,
          "duration": 0.4137929999999983
        },
        {
          "name": "A4",
          "midi": 69,
          "time": 98.48273399999964,
          "velocity": 0.7480314960629921,
          "duration": 0.20689649999999915
        },
        {
          "name": "B3",
          "midi": 59,
          "time": 98.48273399999964,
          "velocity": 0.7480314960629921,
          "duration": 0.20689649999999915
        },
        {
          "name": "C4",
          "midi": 60,
          "time": 98.48273399999964,
          "velocity": 0.7480314960629921,
          "duration": 0.20689649999999915
        },
        {
          "name": "D3",
          "midi": 50,
          "time": 98.48273399999964,
          "velocity": 0.7480314960629921,
          "duration": 0.20689649999999915
        },
        {
          "name": "A4",
          "midi": 69,
          "time": 98.68963049999964,
          "velocity": 0.7480314960629921,
          "duration": 0.20689649999999915
        },
        {
          "name": "B3",
          "midi": 59,
          "time": 98.68963049999964,
          "velocity": 0.7480314960629921,
          "duration": 0.20689649999999915
        },
        {
          "name": "C4",
          "midi": 60,
          "time": 98.68963049999964,
          "velocity": 0.7480314960629921,
          "duration": 0.20689649999999915
        },
        {
          "name": "D3",
          "midi": 50,
          "time": 98.68963049999964,
          "velocity": 0.7480314960629921,
          "duration": 0.20689649999999915
        },
        {
          "name": "A4",
          "midi": 69,
          "time": 98.89652699999964,
          "velocity": 0.7480314960629921,
          "duration": 0.20689649999999915
        },
        {
          "name": "B3",
          "midi": 59,
          "time": 98.89652699999964,
          "velocity": 0.7480314960629921,
          "duration": 0.20689649999999915
        },
        {
          "name": "C4",
          "midi": 60,
          "time": 98.89652699999964,
          "velocity": 0.7480314960629921,
          "duration": 0.20689649999999915
        },
        {
          "name": "D3",
          "midi": 50,
          "time": 98.89652699999964,
          "velocity": 0.7480314960629921,
          "duration": 0.20689649999999915
        },
        {
          "name": "A4",
          "midi": 69,
          "time": 99.31031999999963,
          "velocity": 0.7480314960629921,
          "duration": 0.20689649999999915
        },
        {
          "name": "B3",
          "midi": 59,
          "time": 99.31031999999963,
          "velocity": 0.7480314960629921,
          "duration": 0.20689649999999915
        },
        {
          "name": "D4",
          "midi": 62,
          "time": 99.31031999999963,
          "velocity": 0.7480314960629921,
          "duration": 0.20689649999999915
        },
        {
          "name": "D3",
          "midi": 50,
          "time": 99.31031999999963,
          "velocity": 0.7480314960629921,
          "duration": 0.20689649999999915
        },
        {
          "name": "A4",
          "midi": 69,
          "time": 99.51721649999963,
          "velocity": 0.7480314960629921,
          "duration": 0.20689649999999915
        },
        {
          "name": "B3",
          "midi": 59,
          "time": 99.51721649999963,
          "velocity": 0.7480314960629921,
          "duration": 0.20689649999999915
        },
        {
          "name": "C4",
          "midi": 60,
          "time": 99.51721649999963,
          "velocity": 0.5511811023622047,
          "duration": 0.20689649999999915
        },
        {
          "name": "D3",
          "midi": 50,
          "time": 99.51721649999963,
          "velocity": 0.7480314960629921,
          "duration": 0.20689649999999915
        },
        {
          "name": "A4",
          "midi": 69,
          "time": 99.72411299999963,
          "velocity": 0.7480314960629921,
          "duration": 0.20689649999999915
        },
        {
          "name": "B3",
          "midi": 59,
          "time": 99.72411299999963,
          "velocity": 0.7480314960629921,
          "duration": 0.20689649999999915
        },
        {
          "name": "C4",
          "midi": 60,
          "time": 99.72411299999963,
          "velocity": 0.7480314960629921,
          "duration": 0.20689649999999915
        },
        {
          "name": "D3",
          "midi": 50,
          "time": 99.72411299999963,
          "velocity": 0.7480314960629921,
          "duration": 0.20689649999999915
        },
        {
          "name": "A4",
          "midi": 69,
          "time": 99.93100949999963,
          "velocity": 0.7480314960629921,
          "duration": 0.20689649999999915
        },
        {
          "name": "B3",
          "midi": 59,
          "time": 99.93100949999963,
          "velocity": 0.7480314960629921,
          "duration": 0.20689649999999915
        },
        {
          "name": "C4",
          "midi": 60,
          "time": 99.93100949999963,
          "velocity": 0.7480314960629921,
          "duration": 0.20689649999999915
        },
        {
          "name": "D3",
          "midi": 50,
          "time": 99.93100949999963,
          "velocity": 0.7480314960629921,
          "duration": 0.20689649999999915
        },
        {
          "name": "A4",
          "midi": 69,
          "time": 100.13790599999963,
          "velocity": 0.7480314960629921,
          "duration": 0.4137929999999983
        },
        {
          "name": "B3",
          "midi": 59,
          "time": 100.13790599999963,
          "velocity": 0.7480314960629921,
          "duration": 0.4137929999999983
        },
        {
          "name": "C4",
          "midi": 60,
          "time": 100.13790599999963,
          "velocity": 0.7480314960629921,
          "duration": 0.4137929999999983
        },
        {
          "name": "D3",
          "midi": 50,
          "time": 100.13790599999963,
          "velocity": 0.7480314960629921,
          "duration": 0.4137929999999983
        },
        {
          "name": "A4",
          "midi": 69,
          "time": 100.55169899999963,
          "velocity": 0.7480314960629921,
          "duration": 0.20689649999999915
        },
        {
          "name": "B3",
          "midi": 59,
          "time": 100.55169899999963,
          "velocity": 0.7480314960629921,
          "duration": 0.20689649999999915
        },
        {
          "name": "C4",
          "midi": 60,
          "time": 100.55169899999963,
          "velocity": 0.7480314960629921,
          "duration": 0.20689649999999915
        },
        {
          "name": "D3",
          "midi": 50,
          "time": 100.55169899999963,
          "velocity": 0.7480314960629921,
          "duration": 0.20689649999999915
        },
        {
          "name": "A4",
          "midi": 69,
          "time": 100.75859549999963,
          "velocity": 0.7480314960629921,
          "duration": 0.20689649999999915
        },
        {
          "name": "B3",
          "midi": 59,
          "time": 100.75859549999963,
          "velocity": 0.7480314960629921,
          "duration": 0.20689649999999915
        },
        {
          "name": "C4",
          "midi": 60,
          "time": 100.75859549999963,
          "velocity": 0.7480314960629921,
          "duration": 0.20689649999999915
        },
        {
          "name": "D3",
          "midi": 50,
          "time": 100.75859549999963,
          "velocity": 0.7480314960629921,
          "duration": 0.20689649999999915
        },
        {
          "name": "A4",
          "midi": 69,
          "time": 100.96549199999963,
          "velocity": 0.7480314960629921,
          "duration": 0.20689649999999915
        },
        {
          "name": "B3",
          "midi": 59,
          "time": 100.96549199999963,
          "velocity": 0.7480314960629921,
          "duration": 0.20689649999999915
        },
        {
          "name": "C4",
          "midi": 60,
          "time": 100.96549199999963,
          "velocity": 0.7480314960629921,
          "duration": 0.20689649999999915
        },
        {
          "name": "D3",
          "midi": 50,
          "time": 100.96549199999963,
          "velocity": 0.7480314960629921,
          "duration": 0.20689649999999915
        },
        {
          "name": "A4",
          "midi": 69,
          "time": 101.17238849999963,
          "velocity": 0.7480314960629921,
          "duration": 0.20689649999999915
        },
        {
          "name": "B3",
          "midi": 59,
          "time": 101.17238849999963,
          "velocity": 0.7480314960629921,
          "duration": 0.20689649999999915
        },
        {
          "name": "C4",
          "midi": 60,
          "time": 101.17238849999963,
          "velocity": 0.7480314960629921,
          "duration": 0.20689649999999915
        },
        {
          "name": "D3",
          "midi": 50,
          "time": 101.17238849999963,
          "velocity": 0.7480314960629921,
          "duration": 0.20689649999999915
        },
        {
          "name": "A4",
          "midi": 69,
          "time": 101.37928499999963,
          "velocity": 0.7480314960629921,
          "duration": 0.4137929999999983
        },
        {
          "name": "B3",
          "midi": 59,
          "time": 101.37928499999963,
          "velocity": 0.7480314960629921,
          "duration": 0.4137929999999983
        },
        {
          "name": "C4",
          "midi": 60,
          "time": 101.37928499999963,
          "velocity": 0.7480314960629921,
          "duration": 0.4137929999999983
        },
        {
          "name": "D3",
          "midi": 50,
          "time": 101.37928499999963,
          "velocity": 0.7480314960629921,
          "duration": 0.4137929999999983
        },
        {
          "name": "A4",
          "midi": 69,
          "time": 101.79307799999962,
          "velocity": 0.7480314960629921,
          "duration": 0.20689649999999915
        },
        {
          "name": "B3",
          "midi": 59,
          "time": 101.79307799999962,
          "velocity": 0.7480314960629921,
          "duration": 0.20689649999999915
        },
        {
          "name": "C4",
          "midi": 60,
          "time": 101.79307799999962,
          "velocity": 0.7480314960629921,
          "duration": 0.20689649999999915
        },
        {
          "name": "D3",
          "midi": 50,
          "time": 101.79307799999962,
          "velocity": 0.7480314960629921,
          "duration": 0.20689649999999915
        },
        {
          "name": "A4",
          "midi": 69,
          "time": 101.99997449999962,
          "velocity": 0.7480314960629921,
          "duration": 0.20689649999999915
        },
        {
          "name": "B3",
          "midi": 59,
          "time": 101.99997449999962,
          "velocity": 0.7480314960629921,
          "duration": 0.20689649999999915
        },
        {
          "name": "C4",
          "midi": 60,
          "time": 101.99997449999962,
          "velocity": 0.7480314960629921,
          "duration": 0.20689649999999915
        },
        {
          "name": "D3",
          "midi": 50,
          "time": 101.99997449999962,
          "velocity": 0.7480314960629921,
          "duration": 0.20689649999999915
        },
        {
          "name": "A4",
          "midi": 69,
          "time": 102.20687099999962,
          "velocity": 0.7480314960629921,
          "duration": 0.20689649999999915
        },
        {
          "name": "B3",
          "midi": 59,
          "time": 102.20687099999962,
          "velocity": 0.7480314960629921,
          "duration": 0.20689649999999915
        },
        {
          "name": "C4",
          "midi": 60,
          "time": 102.20687099999962,
          "velocity": 0.7480314960629921,
          "duration": 0.20689649999999915
        },
        {
          "name": "D3",
          "midi": 50,
          "time": 102.20687099999962,
          "velocity": 0.7480314960629921,
          "duration": 0.20689649999999915
        },
        {
          "name": "F#4",
          "midi": 66,
          "time": 102.62066399999962,
          "velocity": 0.7480314960629921,
          "duration": 0.20689649999999915
        },
        {
          "name": "D4",
          "midi": 62,
          "time": 102.62066399999962,
          "velocity": 0.7480314960629921,
          "duration": 0.20689649999999915
        },
        {
          "name": "A3",
          "midi": 57,
          "time": 102.62066399999962,
          "velocity": 0.7480314960629921,
          "duration": 0.20689649999999915
        },
        {
          "name": "D3",
          "midi": 50,
          "time": 102.62066399999962,
          "velocity": 0.7480314960629921,
          "duration": 0.20689649999999915
        },
        {
          "name": "F#4",
          "midi": 66,
          "time": 102.82756049999962,
          "velocity": 0.7480314960629921,
          "duration": 0.20689649999999915
        },
        {
          "name": "D4",
          "midi": 62,
          "time": 102.82756049999962,
          "velocity": 0.7480314960629921,
          "duration": 0.20689649999999915
        },
        {
          "name": "A3",
          "midi": 57,
          "time": 102.82756049999962,
          "velocity": 0.7480314960629921,
          "duration": 0.20689649999999915
        },
        {
          "name": "D3",
          "midi": 50,
          "time": 102.82756049999962,
          "velocity": 0.7480314960629921,
          "duration": 0.20689649999999915
        },
        {
          "name": "F#4",
          "midi": 66,
          "time": 103.03445699999962,
          "velocity": 0.7480314960629921,
          "duration": 0.20689649999999915
        },
        {
          "name": "D4",
          "midi": 62,
          "time": 103.03445699999962,
          "velocity": 0.7480314960629921,
          "duration": 0.20689649999999915
        },
        {
          "name": "A3",
          "midi": 57,
          "time": 103.03445699999962,
          "velocity": 0.7480314960629921,
          "duration": 0.20689649999999915
        },
        {
          "name": "D3",
          "midi": 50,
          "time": 103.03445699999962,
          "velocity": 0.7480314960629921,
          "duration": 0.20689649999999915
        },
        {
          "name": "F#4",
          "midi": 66,
          "time": 103.24135349999962,
          "velocity": 0.7480314960629921,
          "duration": 0.20689649999999915
        },
        {
          "name": "D4",
          "midi": 62,
          "time": 103.24135349999962,
          "velocity": 0.7480314960629921,
          "duration": 0.20689649999999915
        },
        {
          "name": "A3",
          "midi": 57,
          "time": 103.24135349999962,
          "velocity": 0.7480314960629921,
          "duration": 0.20689649999999915
        },
        {
          "name": "D3",
          "midi": 50,
          "time": 103.24135349999962,
          "velocity": 0.7480314960629921,
          "duration": 0.20689649999999915
        },
        {
          "name": "F#4",
          "midi": 66,
          "time": 103.44824999999962,
          "velocity": 0.7480314960629921,
          "duration": 0.20689649999999915
        },
        {
          "name": "D4",
          "midi": 62,
          "time": 103.44824999999962,
          "velocity": 0.7480314960629921,
          "duration": 0.20689649999999915
        },
        {
          "name": "A3",
          "midi": 57,
          "time": 103.44824999999962,
          "velocity": 0.7480314960629921,
          "duration": 0.20689649999999915
        },
        {
          "name": "D3",
          "midi": 50,
          "time": 103.44824999999962,
          "velocity": 0.7480314960629921,
          "duration": 0.20689649999999915
        },
        {
          "name": "F#4",
          "midi": 66,
          "time": 103.65514649999962,
          "velocity": 0.7480314960629921,
          "duration": 0.20689649999999915
        },
        {
          "name": "D4",
          "midi": 62,
          "time": 103.65514649999962,
          "velocity": 0.7480314960629921,
          "duration": 0.20689649999999915
        },
        {
          "name": "A3",
          "midi": 57,
          "time": 103.65514649999962,
          "velocity": 0.7480314960629921,
          "duration": 0.20689649999999915
        },
        {
          "name": "D3",
          "midi": 50,
          "time": 103.65514649999962,
          "velocity": 0.7480314960629921,
          "duration": 0.20689649999999915
        },
        {
          "name": "F#4",
          "midi": 66,
          "time": 103.86204299999962,
          "velocity": 0.7480314960629921,
          "duration": 0.20689649999999915
        },
        {
          "name": "D4",
          "midi": 62,
          "time": 103.86204299999962,
          "velocity": 0.7480314960629921,
          "duration": 0.20689649999999915
        },
        {
          "name": "A3",
          "midi": 57,
          "time": 103.86204299999962,
          "velocity": 0.7480314960629921,
          "duration": 0.20689649999999915
        },
        {
          "name": "D3",
          "midi": 50,
          "time": 103.86204299999962,
          "velocity": 0.7480314960629921,
          "duration": 0.20689649999999915
        },
        {
          "name": "F#4",
          "midi": 66,
          "time": 104.06893949999962,
          "velocity": 0.7480314960629921,
          "duration": 0.20689649999999915
        },
        {
          "name": "D4",
          "midi": 62,
          "time": 104.06893949999962,
          "velocity": 0.7480314960629921,
          "duration": 0.20689649999999915
        },
        {
          "name": "A3",
          "midi": 57,
          "time": 104.06893949999962,
          "velocity": 0.7480314960629921,
          "duration": 0.20689649999999915
        },
        {
          "name": "D3",
          "midi": 50,
          "time": 104.06893949999962,
          "velocity": 0.7480314960629921,
          "duration": 0.20689649999999915
        },
        {
          "name": "F#4",
          "midi": 66,
          "time": 104.27583599999961,
          "velocity": 0.7480314960629921,
          "duration": 0.20689649999999915
        },
        {
          "name": "D4",
          "midi": 62,
          "time": 104.27583599999961,
          "velocity": 0.7480314960629921,
          "duration": 0.20689649999999915
        },
        {
          "name": "A3",
          "midi": 57,
          "time": 104.27583599999961,
          "velocity": 0.7480314960629921,
          "duration": 0.20689649999999915
        },
        {
          "name": "D3",
          "midi": 50,
          "time": 104.27583599999961,
          "velocity": 0.7480314960629921,
          "duration": 0.20689649999999915
        },
        {
          "name": "F#4",
          "midi": 66,
          "time": 104.48273249999961,
          "velocity": 0.7480314960629921,
          "duration": 0.20689649999999915
        },
        {
          "name": "D4",
          "midi": 62,
          "time": 104.48273249999961,
          "velocity": 0.7480314960629921,
          "duration": 0.20689649999999915
        },
        {
          "name": "A3",
          "midi": 57,
          "time": 104.48273249999961,
          "velocity": 0.7480314960629921,
          "duration": 0.20689649999999915
        },
        {
          "name": "D3",
          "midi": 50,
          "time": 104.48273249999961,
          "velocity": 0.7480314960629921,
          "duration": 0.20689649999999915
        },
        {
          "name": "F#4",
          "midi": 66,
          "time": 104.68962899999961,
          "velocity": 0.7480314960629921,
          "duration": 0.20689649999999915
        },
        {
          "name": "D4",
          "midi": 62,
          "time": 104.68962899999961,
          "velocity": 0.7480314960629921,
          "duration": 0.20689649999999915
        },
        {
          "name": "A3",
          "midi": 57,
          "time": 104.68962899999961,
          "velocity": 0.7480314960629921,
          "duration": 0.20689649999999915
        },
        {
          "name": "D3",
          "midi": 50,
          "time": 104.68962899999961,
          "velocity": 0.7480314960629921,
          "duration": 0.20689649999999915
        },
        {
          "name": "F#4",
          "midi": 66,
          "time": 104.89652549999961,
          "velocity": 0.7480314960629921,
          "duration": 0.20689649999999915
        },
        {
          "name": "D4",
          "midi": 62,
          "time": 104.89652549999961,
          "velocity": 0.7480314960629921,
          "duration": 0.20689649999999915
        },
        {
          "name": "A3",
          "midi": 57,
          "time": 104.89652549999961,
          "velocity": 0.7480314960629921,
          "duration": 0.20689649999999915
        },
        {
          "name": "D3",
          "midi": 50,
          "time": 104.89652549999961,
          "velocity": 0.7480314960629921,
          "duration": 0.20689649999999915
        },
        {
          "name": "F#4",
          "midi": 66,
          "time": 105.10342199999961,
          "velocity": 0.7480314960629921,
          "duration": 0.20689649999999915
        },
        {
          "name": "D4",
          "midi": 62,
          "time": 105.10342199999961,
          "velocity": 0.7480314960629921,
          "duration": 0.20689649999999915
        },
        {
          "name": "A3",
          "midi": 57,
          "time": 105.10342199999961,
          "velocity": 0.7480314960629921,
          "duration": 0.20689649999999915
        },
        {
          "name": "D3",
          "midi": 50,
          "time": 105.10342199999961,
          "velocity": 0.7480314960629921,
          "duration": 0.20689649999999915
        },
        {
          "name": "F#4",
          "midi": 66,
          "time": 105.31031849999961,
          "velocity": 0.7480314960629921,
          "duration": 0.20689649999999915
        },
        {
          "name": "D4",
          "midi": 62,
          "time": 105.31031849999961,
          "velocity": 0.7480314960629921,
          "duration": 0.20689649999999915
        },
        {
          "name": "A3",
          "midi": 57,
          "time": 105.31031849999961,
          "velocity": 0.7480314960629921,
          "duration": 0.20689649999999915
        },
        {
          "name": "D3",
          "midi": 50,
          "time": 105.31031849999961,
          "velocity": 0.7480314960629921,
          "duration": 0.20689649999999915
        },
        {
          "name": "F#4",
          "midi": 66,
          "time": 105.51721499999961,
          "velocity": 0.7480314960629921,
          "duration": 0.20689649999999915
        },
        {
          "name": "D4",
          "midi": 62,
          "time": 105.51721499999961,
          "velocity": 0.7480314960629921,
          "duration": 0.20689649999999915
        },
        {
          "name": "A3",
          "midi": 57,
          "time": 105.51721499999961,
          "velocity": 0.7480314960629921,
          "duration": 0.20689649999999915
        },
        {
          "name": "D3",
          "midi": 50,
          "time": 105.51721499999961,
          "velocity": 0.7480314960629921,
          "duration": 0.20689649999999915
        },
        {
          "name": "F#4",
          "midi": 66,
          "time": 105.72411149999961,
          "velocity": 0.7480314960629921,
          "duration": 0.20689649999999915
        },
        {
          "name": "D4",
          "midi": 62,
          "time": 105.72411149999961,
          "velocity": 0.7480314960629921,
          "duration": 0.20689649999999915
        },
        {
          "name": "A3",
          "midi": 57,
          "time": 105.72411149999961,
          "velocity": 0.7480314960629921,
          "duration": 0.20689649999999915
        },
        {
          "name": "D3",
          "midi": 50,
          "time": 105.72411149999961,
          "velocity": 0.7480314960629921,
          "duration": 0.20689649999999915
        },
        {
          "name": "C4",
          "midi": 60,
          "time": 105.93100799999961,
          "velocity": 0.7480314960629921,
          "duration": 0.20689649999999915
        },
        {
          "name": "A3",
          "midi": 57,
          "time": 105.93100799999961,
          "velocity": 0.7480314960629921,
          "duration": 0.20689649999999915
        },
        {
          "name": "E3",
          "midi": 52,
          "time": 105.93100799999961,
          "velocity": 0.7480314960629921,
          "duration": 0.20689649999999915
        },
        {
          "name": "A2",
          "midi": 45,
          "time": 105.93100799999961,
          "velocity": 0.7480314960629921,
          "duration": 0.20689649999999915
        },
        {
          "name": "C4",
          "midi": 60,
          "time": 106.1379044999996,
          "velocity": 0.7480314960629921,
          "duration": 0.20689649999999915
        },
        {
          "name": "A3",
          "midi": 57,
          "time": 106.1379044999996,
          "velocity": 0.7480314960629921,
          "duration": 0.20689649999999915
        },
        {
          "name": "E3",
          "midi": 52,
          "time": 106.1379044999996,
          "velocity": 0.7480314960629921,
          "duration": 0.20689649999999915
        },
        {
          "name": "A2",
          "midi": 45,
          "time": 106.1379044999996,
          "velocity": 0.7480314960629921,
          "duration": 0.20689649999999915
        },
        {
          "name": "C4",
          "midi": 60,
          "time": 106.3448009999996,
          "velocity": 0.7480314960629921,
          "duration": 0.20689649999999915
        },
        {
          "name": "A3",
          "midi": 57,
          "time": 106.3448009999996,
          "velocity": 0.7480314960629921,
          "duration": 0.20689649999999915
        },
        {
          "name": "E3",
          "midi": 52,
          "time": 106.3448009999996,
          "velocity": 0.7480314960629921,
          "duration": 0.20689649999999915
        },
        {
          "name": "A2",
          "midi": 45,
          "time": 106.3448009999996,
          "velocity": 0.7480314960629921,
          "duration": 0.20689649999999915
        },
        {
          "name": "C4",
          "midi": 60,
          "time": 106.5516974999996,
          "velocity": 0.7480314960629921,
          "duration": 0.20689649999999915
        },
        {
          "name": "A3",
          "midi": 57,
          "time": 106.5516974999996,
          "velocity": 0.7480314960629921,
          "duration": 0.20689649999999915
        },
        {
          "name": "E3",
          "midi": 52,
          "time": 106.5516974999996,
          "velocity": 0.7480314960629921,
          "duration": 0.20689649999999915
        },
        {
          "name": "A2",
          "midi": 45,
          "time": 106.5516974999996,
          "velocity": 0.7480314960629921,
          "duration": 0.20689649999999915
        },
        {
          "name": "C4",
          "midi": 60,
          "time": 106.7585939999996,
          "velocity": 0.7480314960629921,
          "duration": 0.20689649999999915
        },
        {
          "name": "A3",
          "midi": 57,
          "time": 106.7585939999996,
          "velocity": 0.7480314960629921,
          "duration": 0.20689649999999915
        },
        {
          "name": "E3",
          "midi": 52,
          "time": 106.7585939999996,
          "velocity": 0.7480314960629921,
          "duration": 0.20689649999999915
        },
        {
          "name": "A2",
          "midi": 45,
          "time": 106.7585939999996,
          "velocity": 0.7480314960629921,
          "duration": 0.20689649999999915
        },
        {
          "name": "C4",
          "midi": 60,
          "time": 106.9654904999996,
          "velocity": 0.7480314960629921,
          "duration": 0.20689649999999915
        },
        {
          "name": "A3",
          "midi": 57,
          "time": 106.9654904999996,
          "velocity": 0.7480314960629921,
          "duration": 0.20689649999999915
        },
        {
          "name": "E3",
          "midi": 52,
          "time": 106.9654904999996,
          "velocity": 0.7480314960629921,
          "duration": 0.20689649999999915
        },
        {
          "name": "A2",
          "midi": 45,
          "time": 106.9654904999996,
          "velocity": 0.7480314960629921,
          "duration": 0.20689649999999915
        },
        {
          "name": "C4",
          "midi": 60,
          "time": 107.1723869999996,
          "velocity": 0.7480314960629921,
          "duration": 0.20689649999999915
        },
        {
          "name": "A3",
          "midi": 57,
          "time": 107.1723869999996,
          "velocity": 0.7480314960629921,
          "duration": 0.20689649999999915
        },
        {
          "name": "E3",
          "midi": 52,
          "time": 107.1723869999996,
          "velocity": 0.7480314960629921,
          "duration": 0.20689649999999915
        },
        {
          "name": "A2",
          "midi": 45,
          "time": 107.1723869999996,
          "velocity": 0.7480314960629921,
          "duration": 0.20689649999999915
        },
        {
          "name": "C4",
          "midi": 60,
          "time": 107.3792834999996,
          "velocity": 0.7480314960629921,
          "duration": 0.20689649999999915
        },
        {
          "name": "A3",
          "midi": 57,
          "time": 107.3792834999996,
          "velocity": 0.7480314960629921,
          "duration": 0.20689649999999915
        },
        {
          "name": "E3",
          "midi": 52,
          "time": 107.3792834999996,
          "velocity": 0.7480314960629921,
          "duration": 0.20689649999999915
        },
        {
          "name": "A2",
          "midi": 45,
          "time": 107.3792834999996,
          "velocity": 0.7480314960629921,
          "duration": 0.20689649999999915
        },
        {
          "name": "C4",
          "midi": 60,
          "time": 107.5861799999996,
          "velocity": 0.7480314960629921,
          "duration": 0.20689649999999915
        },
        {
          "name": "A3",
          "midi": 57,
          "time": 107.5861799999996,
          "velocity": 0.7480314960629921,
          "duration": 0.20689649999999915
        },
        {
          "name": "E3",
          "midi": 52,
          "time": 107.5861799999996,
          "velocity": 0.7480314960629921,
          "duration": 0.20689649999999915
        },
        {
          "name": "A2",
          "midi": 45,
          "time": 107.5861799999996,
          "velocity": 0.7480314960629921,
          "duration": 0.20689649999999915
        },
        {
          "name": "C4",
          "midi": 60,
          "time": 107.7930764999996,
          "velocity": 0.7480314960629921,
          "duration": 0.20689649999999915
        },
        {
          "name": "A3",
          "midi": 57,
          "time": 107.7930764999996,
          "velocity": 0.7480314960629921,
          "duration": 0.20689649999999915
        },
        {
          "name": "E3",
          "midi": 52,
          "time": 107.7930764999996,
          "velocity": 0.7480314960629921,
          "duration": 0.20689649999999915
        },
        {
          "name": "A2",
          "midi": 45,
          "time": 107.7930764999996,
          "velocity": 0.7480314960629921,
          "duration": 0.20689649999999915
        },
        {
          "name": "C4",
          "midi": 60,
          "time": 107.9999729999996,
          "velocity": 0.7480314960629921,
          "duration": 0.20689649999999915
        },
        {
          "name": "A3",
          "midi": 57,
          "time": 107.9999729999996,
          "velocity": 0.7480314960629921,
          "duration": 0.20689649999999915
        },
        {
          "name": "E3",
          "midi": 52,
          "time": 107.9999729999996,
          "velocity": 0.7480314960629921,
          "duration": 0.20689649999999915
        },
        {
          "name": "A2",
          "midi": 45,
          "time": 107.9999729999996,
          "velocity": 0.7480314960629921,
          "duration": 0.20689649999999915
        },
        {
          "name": "C4",
          "midi": 60,
          "time": 108.2068694999996,
          "velocity": 0.7480314960629921,
          "duration": 0.20689649999999915
        },
        {
          "name": "A3",
          "midi": 57,
          "time": 108.2068694999996,
          "velocity": 0.7480314960629921,
          "duration": 0.20689649999999915
        },
        {
          "name": "E3",
          "midi": 52,
          "time": 108.2068694999996,
          "velocity": 0.7480314960629921,
          "duration": 0.20689649999999915
        },
        {
          "name": "A2",
          "midi": 45,
          "time": 108.2068694999996,
          "velocity": 0.7480314960629921,
          "duration": 0.20689649999999915
        },
        {
          "name": "C4",
          "midi": 60,
          "time": 108.4137659999996,
          "velocity": 0.7480314960629921,
          "duration": 0.20689649999999915
        },
        {
          "name": "A3",
          "midi": 57,
          "time": 108.4137659999996,
          "velocity": 0.7480314960629921,
          "duration": 0.20689649999999915
        },
        {
          "name": "E3",
          "midi": 52,
          "time": 108.4137659999996,
          "velocity": 0.7480314960629921,
          "duration": 0.20689649999999915
        },
        {
          "name": "A2",
          "midi": 45,
          "time": 108.4137659999996,
          "velocity": 0.7480314960629921,
          "duration": 0.20689649999999915
        },
        {
          "name": "C4",
          "midi": 60,
          "time": 108.6206624999996,
          "velocity": 0.7480314960629921,
          "duration": 0.20689649999999915
        },
        {
          "name": "A3",
          "midi": 57,
          "time": 108.6206624999996,
          "velocity": 0.7480314960629921,
          "duration": 0.20689649999999915
        },
        {
          "name": "E3",
          "midi": 52,
          "time": 108.6206624999996,
          "velocity": 0.7480314960629921,
          "duration": 0.20689649999999915
        },
        {
          "name": "A2",
          "midi": 45,
          "time": 108.6206624999996,
          "velocity": 0.7480314960629921,
          "duration": 0.20689649999999915
        },
        {
          "name": "C4",
          "midi": 60,
          "time": 108.8275589999996,
          "velocity": 0.7480314960629921,
          "duration": 0.20689649999999915
        },
        {
          "name": "A3",
          "midi": 57,
          "time": 108.8275589999996,
          "velocity": 0.7480314960629921,
          "duration": 0.20689649999999915
        },
        {
          "name": "E3",
          "midi": 52,
          "time": 108.8275589999996,
          "velocity": 0.7480314960629921,
          "duration": 0.20689649999999915
        },
        {
          "name": "A2",
          "midi": 45,
          "time": 108.8275589999996,
          "velocity": 0.7480314960629921,
          "duration": 0.20689649999999915
        },
        {
          "name": "C4",
          "midi": 60,
          "time": 109.0344554999996,
          "velocity": 0.7480314960629921,
          "duration": 0.20689649999999915
        },
        {
          "name": "A3",
          "midi": 57,
          "time": 109.0344554999996,
          "velocity": 0.7480314960629921,
          "duration": 0.20689649999999915
        },
        {
          "name": "E3",
          "midi": 52,
          "time": 109.0344554999996,
          "velocity": 0.7480314960629921,
          "duration": 0.20689649999999915
        },
        {
          "name": "A2",
          "midi": 45,
          "time": 109.0344554999996,
          "velocity": 0.7480314960629921,
          "duration": 0.20689649999999915
        },
        {
          "name": "E4",
          "midi": 64,
          "time": 109.2413519999996,
          "velocity": 0.7480314960629921,
          "duration": 0.20689649999999915
        },
        {
          "name": "C4",
          "midi": 60,
          "time": 109.2413519999996,
          "velocity": 0.7480314960629921,
          "duration": 0.20689649999999915
        },
        {
          "name": "G3",
          "midi": 55,
          "time": 109.2413519999996,
          "velocity": 0.7480314960629921,
          "duration": 0.20689649999999915
        },
        {
          "name": "C3",
          "midi": 48,
          "time": 109.2413519999996,
          "velocity": 0.7480314960629921,
          "duration": 0.20689649999999915
        },
        {
          "name": "E4",
          "midi": 64,
          "time": 109.4482484999996,
          "velocity": 0.7480314960629921,
          "duration": 0.20689649999999915
        },
        {
          "name": "C4",
          "midi": 60,
          "time": 109.4482484999996,
          "velocity": 0.7480314960629921,
          "duration": 0.20689649999999915
        },
        {
          "name": "G3",
          "midi": 55,
          "time": 109.4482484999996,
          "velocity": 0.7480314960629921,
          "duration": 0.20689649999999915
        },
        {
          "name": "C3",
          "midi": 48,
          "time": 109.4482484999996,
          "velocity": 0.7480314960629921,
          "duration": 0.20689649999999915
        },
        {
          "name": "E4",
          "midi": 64,
          "time": 109.65514499999959,
          "velocity": 0.7480314960629921,
          "duration": 0.20689649999999915
        },
        {
          "name": "C4",
          "midi": 60,
          "time": 109.65514499999959,
          "velocity": 0.7480314960629921,
          "duration": 0.20689649999999915
        },
        {
          "name": "G3",
          "midi": 55,
          "time": 109.65514499999959,
          "velocity": 0.7480314960629921,
          "duration": 0.20689649999999915
        },
        {
          "name": "C3",
          "midi": 48,
          "time": 109.65514499999959,
          "velocity": 0.7480314960629921,
          "duration": 0.20689649999999915
        },
        {
          "name": "E4",
          "midi": 64,
          "time": 109.86204149999959,
          "velocity": 0.7480314960629921,
          "duration": 0.20689649999999915
        },
        {
          "name": "C4",
          "midi": 60,
          "time": 109.86204149999959,
          "velocity": 0.7480314960629921,
          "duration": 0.20689649999999915
        },
        {
          "name": "G3",
          "midi": 55,
          "time": 109.86204149999959,
          "velocity": 0.7480314960629921,
          "duration": 0.20689649999999915
        },
        {
          "name": "C3",
          "midi": 48,
          "time": 109.86204149999959,
          "velocity": 0.7480314960629921,
          "duration": 0.20689649999999915
        },
        {
          "name": "E4",
          "midi": 64,
          "time": 110.06893799999959,
          "velocity": 0.7480314960629921,
          "duration": 0.20689649999999915
        },
        {
          "name": "C4",
          "midi": 60,
          "time": 110.06893799999959,
          "velocity": 0.7480314960629921,
          "duration": 0.20689649999999915
        },
        {
          "name": "G3",
          "midi": 55,
          "time": 110.06893799999959,
          "velocity": 0.7480314960629921,
          "duration": 0.20689649999999915
        },
        {
          "name": "C3",
          "midi": 48,
          "time": 110.06893799999959,
          "velocity": 0.7480314960629921,
          "duration": 0.20689649999999915
        },
        {
          "name": "E4",
          "midi": 64,
          "time": 110.27583449999959,
          "velocity": 0.7480314960629921,
          "duration": 0.20689649999999915
        },
        {
          "name": "C4",
          "midi": 60,
          "time": 110.27583449999959,
          "velocity": 0.7480314960629921,
          "duration": 0.20689649999999915
        },
        {
          "name": "G3",
          "midi": 55,
          "time": 110.27583449999959,
          "velocity": 0.7480314960629921,
          "duration": 0.20689649999999915
        },
        {
          "name": "C3",
          "midi": 48,
          "time": 110.27583449999959,
          "velocity": 0.7480314960629921,
          "duration": 0.20689649999999915
        },
        {
          "name": "E4",
          "midi": 64,
          "time": 110.48273099999959,
          "velocity": 0.7480314960629921,
          "duration": 0.20689649999999915
        },
        {
          "name": "C4",
          "midi": 60,
          "time": 110.48273099999959,
          "velocity": 0.7480314960629921,
          "duration": 0.20689649999999915
        },
        {
          "name": "G3",
          "midi": 55,
          "time": 110.48273099999959,
          "velocity": 0.7480314960629921,
          "duration": 0.20689649999999915
        },
        {
          "name": "C3",
          "midi": 48,
          "time": 110.48273099999959,
          "velocity": 0.7480314960629921,
          "duration": 0.20689649999999915
        },
        {
          "name": "E4",
          "midi": 64,
          "time": 110.68962749999959,
          "velocity": 0.7480314960629921,
          "duration": 0.20689649999999915
        },
        {
          "name": "C4",
          "midi": 60,
          "time": 110.68962749999959,
          "velocity": 0.7480314960629921,
          "duration": 0.20689649999999915
        },
        {
          "name": "G3",
          "midi": 55,
          "time": 110.68962749999959,
          "velocity": 0.7480314960629921,
          "duration": 0.20689649999999915
        },
        {
          "name": "C3",
          "midi": 48,
          "time": 110.68962749999959,
          "velocity": 0.7480314960629921,
          "duration": 0.20689649999999915
        },
        {
          "name": "G3",
          "midi": 55,
          "time": 110.89652399999959,
          "velocity": 0.7480314960629921,
          "duration": 0.20689649999999915
        },
        {
          "name": "E3",
          "midi": 52,
          "time": 110.89652399999959,
          "velocity": 0.7480314960629921,
          "duration": 0.20689649999999915
        },
        {
          "name": "B2",
          "midi": 47,
          "time": 110.89652399999959,
          "velocity": 0.7480314960629921,
          "duration": 0.20689649999999915
        },
        {
          "name": "E2",
          "midi": 40,
          "time": 110.89652399999959,
          "velocity": 0.7480314960629921,
          "duration": 0.20689649999999915
        },
        {
          "name": "G3",
          "midi": 55,
          "time": 111.10342049999959,
          "velocity": 0.7480314960629921,
          "duration": 0.20689649999999915
        },
        {
          "name": "E3",
          "midi": 52,
          "time": 111.10342049999959,
          "velocity": 0.7480314960629921,
          "duration": 0.20689649999999915
        },
        {
          "name": "B2",
          "midi": 47,
          "time": 111.10342049999959,
          "velocity": 0.7480314960629921,
          "duration": 0.20689649999999915
        },
        {
          "name": "E2",
          "midi": 40,
          "time": 111.10342049999959,
          "velocity": 0.7480314960629921,
          "duration": 0.20689649999999915
        },
        {
          "name": "G3",
          "midi": 55,
          "time": 111.31031699999959,
          "velocity": 0.7480314960629921,
          "duration": 0.20689649999999915
        },
        {
          "name": "E3",
          "midi": 52,
          "time": 111.31031699999959,
          "velocity": 0.7480314960629921,
          "duration": 0.20689649999999915
        },
        {
          "name": "B2",
          "midi": 47,
          "time": 111.31031699999959,
          "velocity": 0.7480314960629921,
          "duration": 0.20689649999999915
        },
        {
          "name": "E2",
          "midi": 40,
          "time": 111.31031699999959,
          "velocity": 0.7480314960629921,
          "duration": 0.20689649999999915
        },
        {
          "name": "G3",
          "midi": 55,
          "time": 111.51721349999958,
          "velocity": 0.7480314960629921,
          "duration": 0.20689649999999915
        },
        {
          "name": "E3",
          "midi": 52,
          "time": 111.51721349999958,
          "velocity": 0.7480314960629921,
          "duration": 0.20689649999999915
        },
        {
          "name": "B2",
          "midi": 47,
          "time": 111.51721349999958,
          "velocity": 0.7480314960629921,
          "duration": 0.20689649999999915
        },
        {
          "name": "E2",
          "midi": 40,
          "time": 111.51721349999958,
          "velocity": 0.7480314960629921,
          "duration": 0.20689649999999915
        },
        {
          "name": "G3",
          "midi": 55,
          "time": 111.72410999999958,
          "velocity": 0.7480314960629921,
          "duration": 0.20689649999999915
        },
        {
          "name": "E3",
          "midi": 52,
          "time": 111.72410999999958,
          "velocity": 0.7480314960629921,
          "duration": 0.20689649999999915
        },
        {
          "name": "B2",
          "midi": 47,
          "time": 111.72410999999958,
          "velocity": 0.7480314960629921,
          "duration": 0.20689649999999915
        },
        {
          "name": "E2",
          "midi": 40,
          "time": 111.72410999999958,
          "velocity": 0.7480314960629921,
          "duration": 0.20689649999999915
        },
        {
          "name": "G3",
          "midi": 55,
          "time": 111.93100649999958,
          "velocity": 0.7480314960629921,
          "duration": 0.20689649999999915
        },
        {
          "name": "E3",
          "midi": 52,
          "time": 111.93100649999958,
          "velocity": 0.7480314960629921,
          "duration": 0.20689649999999915
        },
        {
          "name": "B2",
          "midi": 47,
          "time": 111.93100649999958,
          "velocity": 0.7480314960629921,
          "duration": 0.20689649999999915
        },
        {
          "name": "E2",
          "midi": 40,
          "time": 111.93100649999958,
          "velocity": 0.7480314960629921,
          "duration": 0.20689649999999915
        },
        {
          "name": "G3",
          "midi": 55,
          "time": 112.13790299999958,
          "velocity": 0.7480314960629921,
          "duration": 0.20689649999999915
        },
        {
          "name": "E3",
          "midi": 52,
          "time": 112.13790299999958,
          "velocity": 0.7480314960629921,
          "duration": 0.20689649999999915
        },
        {
          "name": "B2",
          "midi": 47,
          "time": 112.13790299999958,
          "velocity": 0.7480314960629921,
          "duration": 0.20689649999999915
        },
        {
          "name": "E2",
          "midi": 40,
          "time": 112.13790299999958,
          "velocity": 0.7480314960629921,
          "duration": 0.20689649999999915
        },
        {
          "name": "G3",
          "midi": 55,
          "time": 112.34479949999958,
          "velocity": 0.7480314960629921,
          "duration": 0.20689649999999915
        },
        {
          "name": "E3",
          "midi": 52,
          "time": 112.34479949999958,
          "velocity": 0.7480314960629921,
          "duration": 0.20689649999999915
        },
        {
          "name": "B2",
          "midi": 47,
          "time": 112.34479949999958,
          "velocity": 0.7480314960629921,
          "duration": 0.20689649999999915
        },
        {
          "name": "E2",
          "midi": 40,
          "time": 112.34479949999958,
          "velocity": 0.7480314960629921,
          "duration": 0.20689649999999915
        },
        {
          "name": "A4",
          "midi": 69,
          "time": 112.55169599999958,
          "velocity": 0.7480314960629921,
          "duration": 0.20689649999999915
        },
        {
          "name": "B3",
          "midi": 59,
          "time": 112.55169599999958,
          "velocity": 0.7480314960629921,
          "duration": 0.20689649999999915
        },
        {
          "name": "D4",
          "midi": 62,
          "time": 112.55169599999958,
          "velocity": 0.7480314960629921,
          "duration": 0.20689649999999915
        },
        {
          "name": "D3",
          "midi": 50,
          "time": 112.55169599999958,
          "velocity": 0.7480314960629921,
          "duration": 0.20689649999999915
        },
        {
          "name": "A4",
          "midi": 69,
          "time": 112.75859249999958,
          "velocity": 0.7480314960629921,
          "duration": 0.20689649999999915
        },
        {
          "name": "B3",
          "midi": 59,
          "time": 112.75859249999958,
          "velocity": 0.7480314960629921,
          "duration": 0.20689649999999915
        },
        {
          "name": "C4",
          "midi": 60,
          "time": 112.75859249999958,
          "velocity": 0.5511811023622047,
          "duration": 0.20689649999999915
        },
        {
          "name": "D3",
          "midi": 50,
          "time": 112.75859249999958,
          "velocity": 0.7480314960629921,
          "duration": 0.20689649999999915
        },
        {
          "name": "A4",
          "midi": 69,
          "time": 112.96548899999958,
          "velocity": 0.7480314960629921,
          "duration": 0.20689649999999915
        },
        {
          "name": "B3",
          "midi": 59,
          "time": 112.96548899999958,
          "velocity": 0.7480314960629921,
          "duration": 0.20689649999999915
        },
        {
          "name": "C4",
          "midi": 60,
          "time": 112.96548899999958,
          "velocity": 0.7480314960629921,
          "duration": 0.20689649999999915
        },
        {
          "name": "D3",
          "midi": 50,
          "time": 112.96548899999958,
          "velocity": 0.7480314960629921,
          "duration": 0.20689649999999915
        },
        {
          "name": "A4",
          "midi": 69,
          "time": 113.17238549999958,
          "velocity": 0.7480314960629921,
          "duration": 0.20689649999999915
        },
        {
          "name": "B3",
          "midi": 59,
          "time": 113.17238549999958,
          "velocity": 0.7480314960629921,
          "duration": 0.20689649999999915
        },
        {
          "name": "C4",
          "midi": 60,
          "time": 113.17238549999958,
          "velocity": 0.7480314960629921,
          "duration": 0.20689649999999915
        },
        {
          "name": "D3",
          "midi": 50,
          "time": 113.17238549999958,
          "velocity": 0.7480314960629921,
          "duration": 0.20689649999999915
        },
        {
          "name": "A4",
          "midi": 69,
          "time": 113.37928199999958,
          "velocity": 0.7480314960629921,
          "duration": 0.4137929999999983
        },
        {
          "name": "B3",
          "midi": 59,
          "time": 113.37928199999958,
          "velocity": 0.7480314960629921,
          "duration": 0.4137929999999983
        },
        {
          "name": "C4",
          "midi": 60,
          "time": 113.37928199999958,
          "velocity": 0.7480314960629921,
          "duration": 0.4137929999999983
        },
        {
          "name": "D3",
          "midi": 50,
          "time": 113.37928199999958,
          "velocity": 0.7480314960629921,
          "duration": 0.4137929999999983
        },
        {
          "name": "A4",
          "midi": 69,
          "time": 113.79307499999958,
          "velocity": 0.7480314960629921,
          "duration": 0.20689649999999915
        },
        {
          "name": "B3",
          "midi": 59,
          "time": 113.79307499999958,
          "velocity": 0.7480314960629921,
          "duration": 0.20689649999999915
        },
        {
          "name": "C4",
          "midi": 60,
          "time": 113.79307499999958,
          "velocity": 0.7480314960629921,
          "duration": 0.20689649999999915
        },
        {
          "name": "D3",
          "midi": 50,
          "time": 113.79307499999958,
          "velocity": 0.7480314960629921,
          "duration": 0.20689649999999915
        },
        {
          "name": "A4",
          "midi": 69,
          "time": 113.99997149999957,
          "velocity": 0.7480314960629921,
          "duration": 0.20689649999999915
        },
        {
          "name": "B3",
          "midi": 59,
          "time": 113.99997149999957,
          "velocity": 0.7480314960629921,
          "duration": 0.20689649999999915
        },
        {
          "name": "C4",
          "midi": 60,
          "time": 113.99997149999957,
          "velocity": 0.7480314960629921,
          "duration": 0.20689649999999915
        },
        {
          "name": "D3",
          "midi": 50,
          "time": 113.99997149999957,
          "velocity": 0.7480314960629921,
          "duration": 0.20689649999999915
        },
        {
          "name": "A4",
          "midi": 69,
          "time": 114.20686799999957,
          "velocity": 0.7480314960629921,
          "duration": 0.20689649999999915
        },
        {
          "name": "B3",
          "midi": 59,
          "time": 114.20686799999957,
          "velocity": 0.7480314960629921,
          "duration": 0.20689649999999915
        },
        {
          "name": "C4",
          "midi": 60,
          "time": 114.20686799999957,
          "velocity": 0.7480314960629921,
          "duration": 0.20689649999999915
        },
        {
          "name": "D3",
          "midi": 50,
          "time": 114.20686799999957,
          "velocity": 0.7480314960629921,
          "duration": 0.20689649999999915
        },
        {
          "name": "A4",
          "midi": 69,
          "time": 114.41376449999957,
          "velocity": 0.7480314960629921,
          "duration": 0.20689649999999915
        },
        {
          "name": "B3",
          "midi": 59,
          "time": 114.41376449999957,
          "velocity": 0.7480314960629921,
          "duration": 0.20689649999999915
        },
        {
          "name": "C4",
          "midi": 60,
          "time": 114.41376449999957,
          "velocity": 0.7480314960629921,
          "duration": 0.20689649999999915
        },
        {
          "name": "D3",
          "midi": 50,
          "time": 114.41376449999957,
          "velocity": 0.7480314960629921,
          "duration": 0.20689649999999915
        },
        {
          "name": "A4",
          "midi": 69,
          "time": 114.62066099999957,
          "velocity": 0.7480314960629921,
          "duration": 0.4137929999999983
        },
        {
          "name": "B3",
          "midi": 59,
          "time": 114.62066099999957,
          "velocity": 0.7480314960629921,
          "duration": 0.4137929999999983
        },
        {
          "name": "C4",
          "midi": 60,
          "time": 114.62066099999957,
          "velocity": 0.7480314960629921,
          "duration": 0.4137929999999983
        },
        {
          "name": "D3",
          "midi": 50,
          "time": 114.62066099999957,
          "velocity": 0.7480314960629921,
          "duration": 0.4137929999999983
        },
        {
          "name": "A4",
          "midi": 69,
          "time": 115.03445399999957,
          "velocity": 0.7480314960629921,
          "duration": 0.20689649999999915
        },
        {
          "name": "B3",
          "midi": 59,
          "time": 115.03445399999957,
          "velocity": 0.7480314960629921,
          "duration": 0.20689649999999915
        },
        {
          "name": "C4",
          "midi": 60,
          "time": 115.03445399999957,
          "velocity": 0.7480314960629921,
          "duration": 0.20689649999999915
        },
        {
          "name": "D3",
          "midi": 50,
          "time": 115.03445399999957,
          "velocity": 0.7480314960629921,
          "duration": 0.20689649999999915
        },
        {
          "name": "A4",
          "midi": 69,
          "time": 115.24135049999957,
          "velocity": 0.7480314960629921,
          "duration": 0.20689649999999915
        },
        {
          "name": "B3",
          "midi": 59,
          "time": 115.24135049999957,
          "velocity": 0.7480314960629921,
          "duration": 0.20689649999999915
        },
        {
          "name": "C4",
          "midi": 60,
          "time": 115.24135049999957,
          "velocity": 0.7480314960629921,
          "duration": 0.20689649999999915
        },
        {
          "name": "D3",
          "midi": 50,
          "time": 115.24135049999957,
          "velocity": 0.7480314960629921,
          "duration": 0.20689649999999915
        },
        {
          "name": "A4",
          "midi": 69,
          "time": 115.44824699999957,
          "velocity": 0.7480314960629921,
          "duration": 0.20689649999999915
        },
        {
          "name": "B3",
          "midi": 59,
          "time": 115.44824699999957,
          "velocity": 0.7480314960629921,
          "duration": 0.20689649999999915
        },
        {
          "name": "C4",
          "midi": 60,
          "time": 115.44824699999957,
          "velocity": 0.7480314960629921,
          "duration": 0.20689649999999915
        },
        {
          "name": "D3",
          "midi": 50,
          "time": 115.44824699999957,
          "velocity": 0.7480314960629921,
          "duration": 0.20689649999999915
        },
        {
          "name": "F#4",
          "midi": 66,
          "time": 115.86203999999957,
          "velocity": 0.7480314960629921,
          "duration": 0.20689649999999915
        },
        {
          "name": "D4",
          "midi": 62,
          "time": 115.86203999999957,
          "velocity": 0.7480314960629921,
          "duration": 0.20689649999999915
        },
        {
          "name": "A3",
          "midi": 57,
          "time": 115.86203999999957,
          "velocity": 0.7480314960629921,
          "duration": 0.20689649999999915
        },
        {
          "name": "D3",
          "midi": 50,
          "time": 115.86203999999957,
          "velocity": 0.7480314960629921,
          "duration": 0.20689649999999915
        },
        {
          "name": "F#4",
          "midi": 66,
          "time": 116.06893649999957,
          "velocity": 0.7480314960629921,
          "duration": 0.20689649999999915
        },
        {
          "name": "D4",
          "midi": 62,
          "time": 116.06893649999957,
          "velocity": 0.7480314960629921,
          "duration": 0.20689649999999915
        },
        {
          "name": "A3",
          "midi": 57,
          "time": 116.06893649999957,
          "velocity": 0.7480314960629921,
          "duration": 0.20689649999999915
        },
        {
          "name": "D3",
          "midi": 50,
          "time": 116.06893649999957,
          "velocity": 0.7480314960629921,
          "duration": 0.20689649999999915
        },
        {
          "name": "F#4",
          "midi": 66,
          "time": 116.27583299999957,
          "velocity": 0.7480314960629921,
          "duration": 0.20689649999999915
        },
        {
          "name": "D4",
          "midi": 62,
          "time": 116.27583299999957,
          "velocity": 0.7480314960629921,
          "duration": 0.20689649999999915
        },
        {
          "name": "A3",
          "midi": 57,
          "time": 116.27583299999957,
          "velocity": 0.7480314960629921,
          "duration": 0.20689649999999915
        },
        {
          "name": "D3",
          "midi": 50,
          "time": 116.27583299999957,
          "velocity": 0.7480314960629921,
          "duration": 0.20689649999999915
        },
        {
          "name": "F#4",
          "midi": 66,
          "time": 116.48272949999956,
          "velocity": 0.7480314960629921,
          "duration": 0.20689649999999915
        },
        {
          "name": "D4",
          "midi": 62,
          "time": 116.48272949999956,
          "velocity": 0.7480314960629921,
          "duration": 0.20689649999999915
        },
        {
          "name": "A3",
          "midi": 57,
          "time": 116.48272949999956,
          "velocity": 0.7480314960629921,
          "duration": 0.20689649999999915
        },
        {
          "name": "D3",
          "midi": 50,
          "time": 116.48272949999956,
          "velocity": 0.7480314960629921,
          "duration": 0.20689649999999915
        },
        {
          "name": "F#4",
          "midi": 66,
          "time": 116.68962599999956,
          "velocity": 0.7480314960629921,
          "duration": 0.20689649999999915
        },
        {
          "name": "D4",
          "midi": 62,
          "time": 116.68962599999956,
          "velocity": 0.7480314960629921,
          "duration": 0.20689649999999915
        },
        {
          "name": "A3",
          "midi": 57,
          "time": 116.68962599999956,
          "velocity": 0.7480314960629921,
          "duration": 0.20689649999999915
        },
        {
          "name": "D3",
          "midi": 50,
          "time": 116.68962599999956,
          "velocity": 0.7480314960629921,
          "duration": 0.20689649999999915
        },
        {
          "name": "F#4",
          "midi": 66,
          "time": 116.89652249999956,
          "velocity": 0.7480314960629921,
          "duration": 0.20689649999999915
        },
        {
          "name": "D4",
          "midi": 62,
          "time": 116.89652249999956,
          "velocity": 0.7480314960629921,
          "duration": 0.20689649999999915
        },
        {
          "name": "A3",
          "midi": 57,
          "time": 116.89652249999956,
          "velocity": 0.7480314960629921,
          "duration": 0.20689649999999915
        },
        {
          "name": "D3",
          "midi": 50,
          "time": 116.89652249999956,
          "velocity": 0.7480314960629921,
          "duration": 0.20689649999999915
        },
        {
          "name": "F#4",
          "midi": 66,
          "time": 117.10341899999956,
          "velocity": 0.7480314960629921,
          "duration": 0.20689649999999915
        },
        {
          "name": "D4",
          "midi": 62,
          "time": 117.10341899999956,
          "velocity": 0.7480314960629921,
          "duration": 0.20689649999999915
        },
        {
          "name": "A3",
          "midi": 57,
          "time": 117.10341899999956,
          "velocity": 0.7480314960629921,
          "duration": 0.20689649999999915
        },
        {
          "name": "D3",
          "midi": 50,
          "time": 117.10341899999956,
          "velocity": 0.7480314960629921,
          "duration": 0.20689649999999915
        },
        {
          "name": "F#4",
          "midi": 66,
          "time": 117.31031549999956,
          "velocity": 0.7480314960629921,
          "duration": 0.20689649999999915
        },
        {
          "name": "D4",
          "midi": 62,
          "time": 117.31031549999956,
          "velocity": 0.7480314960629921,
          "duration": 0.20689649999999915
        },
        {
          "name": "A3",
          "midi": 57,
          "time": 117.31031549999956,
          "velocity": 0.7480314960629921,
          "duration": 0.20689649999999915
        },
        {
          "name": "D3",
          "midi": 50,
          "time": 117.31031549999956,
          "velocity": 0.7480314960629921,
          "duration": 0.20689649999999915
        },
        {
          "name": "F#4",
          "midi": 66,
          "time": 117.51721199999956,
          "velocity": 0.7480314960629921,
          "duration": 0.20689649999999915
        },
        {
          "name": "D4",
          "midi": 62,
          "time": 117.51721199999956,
          "velocity": 0.7480314960629921,
          "duration": 0.20689649999999915
        },
        {
          "name": "A3",
          "midi": 57,
          "time": 117.51721199999956,
          "velocity": 0.7480314960629921,
          "duration": 0.20689649999999915
        },
        {
          "name": "D3",
          "midi": 50,
          "time": 117.51721199999956,
          "velocity": 0.7480314960629921,
          "duration": 0.20689649999999915
        },
        {
          "name": "F#4",
          "midi": 66,
          "time": 117.72410849999956,
          "velocity": 0.7480314960629921,
          "duration": 0.20689649999999915
        },
        {
          "name": "D4",
          "midi": 62,
          "time": 117.72410849999956,
          "velocity": 0.7480314960629921,
          "duration": 0.20689649999999915
        },
        {
          "name": "A3",
          "midi": 57,
          "time": 117.72410849999956,
          "velocity": 0.7480314960629921,
          "duration": 0.20689649999999915
        },
        {
          "name": "D3",
          "midi": 50,
          "time": 117.72410849999956,
          "velocity": 0.7480314960629921,
          "duration": 0.20689649999999915
        },
        {
          "name": "F#4",
          "midi": 66,
          "time": 117.93100499999956,
          "velocity": 0.7480314960629921,
          "duration": 0.20689649999999915
        },
        {
          "name": "D4",
          "midi": 62,
          "time": 117.93100499999956,
          "velocity": 0.7480314960629921,
          "duration": 0.20689649999999915
        },
        {
          "name": "A3",
          "midi": 57,
          "time": 117.93100499999956,
          "velocity": 0.7480314960629921,
          "duration": 0.20689649999999915
        },
        {
          "name": "D3",
          "midi": 50,
          "time": 117.93100499999956,
          "velocity": 0.7480314960629921,
          "duration": 0.20689649999999915
        },
        {
          "name": "F#4",
          "midi": 66,
          "time": 118.13790149999956,
          "velocity": 0.7480314960629921,
          "duration": 0.20689649999999915
        },
        {
          "name": "D4",
          "midi": 62,
          "time": 118.13790149999956,
          "velocity": 0.7480314960629921,
          "duration": 0.20689649999999915
        },
        {
          "name": "A3",
          "midi": 57,
          "time": 118.13790149999956,
          "velocity": 0.7480314960629921,
          "duration": 0.20689649999999915
        },
        {
          "name": "D3",
          "midi": 50,
          "time": 118.13790149999956,
          "velocity": 0.7480314960629921,
          "duration": 0.20689649999999915
        },
        {
          "name": "F#4",
          "midi": 66,
          "time": 118.34479799999956,
          "velocity": 0.7480314960629921,
          "duration": 0.20689649999999915
        },
        {
          "name": "D4",
          "midi": 62,
          "time": 118.34479799999956,
          "velocity": 0.7480314960629921,
          "duration": 0.20689649999999915
        },
        {
          "name": "A3",
          "midi": 57,
          "time": 118.34479799999956,
          "velocity": 0.7480314960629921,
          "duration": 0.20689649999999915
        },
        {
          "name": "D3",
          "midi": 50,
          "time": 118.34479799999956,
          "velocity": 0.7480314960629921,
          "duration": 0.20689649999999915
        },
        {
          "name": "F#4",
          "midi": 66,
          "time": 118.55169449999956,
          "velocity": 0.7480314960629921,
          "duration": 0.20689649999999915
        },
        {
          "name": "D4",
          "midi": 62,
          "time": 118.55169449999956,
          "velocity": 0.7480314960629921,
          "duration": 0.20689649999999915
        },
        {
          "name": "A3",
          "midi": 57,
          "time": 118.55169449999956,
          "velocity": 0.7480314960629921,
          "duration": 0.20689649999999915
        },
        {
          "name": "D3",
          "midi": 50,
          "time": 118.55169449999956,
          "velocity": 0.7480314960629921,
          "duration": 0.20689649999999915
        },
        {
          "name": "F#4",
          "midi": 66,
          "time": 118.75859099999956,
          "velocity": 0.7480314960629921,
          "duration": 0.20689649999999915
        },
        {
          "name": "D4",
          "midi": 62,
          "time": 118.75859099999956,
          "velocity": 0.7480314960629921,
          "duration": 0.20689649999999915
        },
        {
          "name": "A3",
          "midi": 57,
          "time": 118.75859099999956,
          "velocity": 0.7480314960629921,
          "duration": 0.20689649999999915
        },
        {
          "name": "D3",
          "midi": 50,
          "time": 118.75859099999956,
          "velocity": 0.7480314960629921,
          "duration": 0.20689649999999915
        },
        {
          "name": "F#4",
          "midi": 66,
          "time": 118.96548749999955,
          "velocity": 0.7480314960629921,
          "duration": 0.20689649999999915
        },
        {
          "name": "D4",
          "midi": 62,
          "time": 118.96548749999955,
          "velocity": 0.7480314960629921,
          "duration": 0.20689649999999915
        },
        {
          "name": "A3",
          "midi": 57,
          "time": 118.96548749999955,
          "velocity": 0.7480314960629921,
          "duration": 0.20689649999999915
        },
        {
          "name": "D3",
          "midi": 50,
          "time": 118.96548749999955,
          "velocity": 0.7480314960629921,
          "duration": 0.20689649999999915
        },
        {
          "name": "C4",
          "midi": 60,
          "time": 119.17238399999955,
          "velocity": 0.7480314960629921,
          "duration": 0.20689649999999915
        },
        {
          "name": "A3",
          "midi": 57,
          "time": 119.17238399999955,
          "velocity": 0.7480314960629921,
          "duration": 0.20689649999999915
        },
        {
          "name": "E3",
          "midi": 52,
          "time": 119.17238399999955,
          "velocity": 0.7480314960629921,
          "duration": 0.20689649999999915
        },
        {
          "name": "A2",
          "midi": 45,
          "time": 119.17238399999955,
          "velocity": 0.7480314960629921,
          "duration": 0.20689649999999915
        },
        {
          "name": "C4",
          "midi": 60,
          "time": 119.37928049999955,
          "velocity": 0.7480314960629921,
          "duration": 0.20689649999999915
        },
        {
          "name": "A3",
          "midi": 57,
          "time": 119.37928049999955,
          "velocity": 0.7480314960629921,
          "duration": 0.20689649999999915
        },
        {
          "name": "E3",
          "midi": 52,
          "time": 119.37928049999955,
          "velocity": 0.7480314960629921,
          "duration": 0.20689649999999915
        },
        {
          "name": "A2",
          "midi": 45,
          "time": 119.37928049999955,
          "velocity": 0.7480314960629921,
          "duration": 0.20689649999999915
        },
        {
          "name": "C4",
          "midi": 60,
          "time": 119.58617699999955,
          "velocity": 0.7480314960629921,
          "duration": 0.20689649999999915
        },
        {
          "name": "A3",
          "midi": 57,
          "time": 119.58617699999955,
          "velocity": 0.7480314960629921,
          "duration": 0.20689649999999915
        },
        {
          "name": "E3",
          "midi": 52,
          "time": 119.58617699999955,
          "velocity": 0.7480314960629921,
          "duration": 0.20689649999999915
        },
        {
          "name": "A2",
          "midi": 45,
          "time": 119.58617699999955,
          "velocity": 0.7480314960629921,
          "duration": 0.20689649999999915
        },
        {
          "name": "C4",
          "midi": 60,
          "time": 119.79307349999955,
          "velocity": 0.7480314960629921,
          "duration": 0.20689649999999915
        },
        {
          "name": "A3",
          "midi": 57,
          "time": 119.79307349999955,
          "velocity": 0.7480314960629921,
          "duration": 0.20689649999999915
        },
        {
          "name": "E3",
          "midi": 52,
          "time": 119.79307349999955,
          "velocity": 0.7480314960629921,
          "duration": 0.20689649999999915
        },
        {
          "name": "A2",
          "midi": 45,
          "time": 119.79307349999955,
          "velocity": 0.7480314960629921,
          "duration": 0.20689649999999915
        },
        {
          "name": "C4",
          "midi": 60,
          "time": 119.99996999999955,
          "velocity": 0.7480314960629921,
          "duration": 0.20689649999999915
        },
        {
          "name": "A3",
          "midi": 57,
          "time": 119.99996999999955,
          "velocity": 0.7480314960629921,
          "duration": 0.20689649999999915
        },
        {
          "name": "E3",
          "midi": 52,
          "time": 119.99996999999955,
          "velocity": 0.7480314960629921,
          "duration": 0.20689649999999915
        },
        {
          "name": "A2",
          "midi": 45,
          "time": 119.99996999999955,
          "velocity": 0.7480314960629921,
          "duration": 0.20689649999999915
        },
        {
          "name": "C4",
          "midi": 60,
          "time": 120.20686649999955,
          "velocity": 0.7480314960629921,
          "duration": 0.20689649999999915
        },
        {
          "name": "A3",
          "midi": 57,
          "time": 120.20686649999955,
          "velocity": 0.7480314960629921,
          "duration": 0.20689649999999915
        },
        {
          "name": "E3",
          "midi": 52,
          "time": 120.20686649999955,
          "velocity": 0.7480314960629921,
          "duration": 0.20689649999999915
        },
        {
          "name": "A2",
          "midi": 45,
          "time": 120.20686649999955,
          "velocity": 0.7480314960629921,
          "duration": 0.20689649999999915
        },
        {
          "name": "C4",
          "midi": 60,
          "time": 120.41376299999955,
          "velocity": 0.7480314960629921,
          "duration": 0.20689649999999915
        },
        {
          "name": "A3",
          "midi": 57,
          "time": 120.41376299999955,
          "velocity": 0.7480314960629921,
          "duration": 0.20689649999999915
        },
        {
          "name": "E3",
          "midi": 52,
          "time": 120.41376299999955,
          "velocity": 0.7480314960629921,
          "duration": 0.20689649999999915
        },
        {
          "name": "A2",
          "midi": 45,
          "time": 120.41376299999955,
          "velocity": 0.7480314960629921,
          "duration": 0.20689649999999915
        },
        {
          "name": "C4",
          "midi": 60,
          "time": 120.62065949999955,
          "velocity": 0.7480314960629921,
          "duration": 0.20689649999999915
        },
        {
          "name": "A3",
          "midi": 57,
          "time": 120.62065949999955,
          "velocity": 0.7480314960629921,
          "duration": 0.20689649999999915
        },
        {
          "name": "E3",
          "midi": 52,
          "time": 120.62065949999955,
          "velocity": 0.7480314960629921,
          "duration": 0.20689649999999915
        },
        {
          "name": "A2",
          "midi": 45,
          "time": 120.62065949999955,
          "velocity": 0.7480314960629921,
          "duration": 0.20689649999999915
        },
        {
          "name": "C4",
          "midi": 60,
          "time": 120.82755599999955,
          "velocity": 0.7480314960629921,
          "duration": 0.20689649999999915
        },
        {
          "name": "A3",
          "midi": 57,
          "time": 120.82755599999955,
          "velocity": 0.7480314960629921,
          "duration": 0.20689649999999915
        },
        {
          "name": "E3",
          "midi": 52,
          "time": 120.82755599999955,
          "velocity": 0.7480314960629921,
          "duration": 0.20689649999999915
        },
        {
          "name": "A2",
          "midi": 45,
          "time": 120.82755599999955,
          "velocity": 0.7480314960629921,
          "duration": 0.20689649999999915
        },
        {
          "name": "C4",
          "midi": 60,
          "time": 121.03445249999955,
          "velocity": 0.7480314960629921,
          "duration": 0.20689649999999915
        },
        {
          "name": "A3",
          "midi": 57,
          "time": 121.03445249999955,
          "velocity": 0.7480314960629921,
          "duration": 0.20689649999999915
        },
        {
          "name": "E3",
          "midi": 52,
          "time": 121.03445249999955,
          "velocity": 0.7480314960629921,
          "duration": 0.20689649999999915
        },
        {
          "name": "A2",
          "midi": 45,
          "time": 121.03445249999955,
          "velocity": 0.7480314960629921,
          "duration": 0.20689649999999915
        },
        {
          "name": "C4",
          "midi": 60,
          "time": 121.24134899999954,
          "velocity": 0.7480314960629921,
          "duration": 0.20689649999999915
        },
        {
          "name": "A3",
          "midi": 57,
          "time": 121.24134899999954,
          "velocity": 0.7480314960629921,
          "duration": 0.20689649999999915
        },
        {
          "name": "E3",
          "midi": 52,
          "time": 121.24134899999954,
          "velocity": 0.7480314960629921,
          "duration": 0.20689649999999915
        },
        {
          "name": "A2",
          "midi": 45,
          "time": 121.24134899999954,
          "velocity": 0.7480314960629921,
          "duration": 0.20689649999999915
        },
        {
          "name": "C4",
          "midi": 60,
          "time": 121.44824549999954,
          "velocity": 0.7480314960629921,
          "duration": 0.20689649999999915
        },
        {
          "name": "A3",
          "midi": 57,
          "time": 121.44824549999954,
          "velocity": 0.7480314960629921,
          "duration": 0.20689649999999915
        },
        {
          "name": "E3",
          "midi": 52,
          "time": 121.44824549999954,
          "velocity": 0.7480314960629921,
          "duration": 0.20689649999999915
        },
        {
          "name": "A2",
          "midi": 45,
          "time": 121.44824549999954,
          "velocity": 0.7480314960629921,
          "duration": 0.20689649999999915
        },
        {
          "name": "C4",
          "midi": 60,
          "time": 121.65514199999954,
          "velocity": 0.7480314960629921,
          "duration": 0.20689649999999915
        },
        {
          "name": "A3",
          "midi": 57,
          "time": 121.65514199999954,
          "velocity": 0.7480314960629921,
          "duration": 0.20689649999999915
        },
        {
          "name": "E3",
          "midi": 52,
          "time": 121.65514199999954,
          "velocity": 0.7480314960629921,
          "duration": 0.20689649999999915
        },
        {
          "name": "A2",
          "midi": 45,
          "time": 121.65514199999954,
          "velocity": 0.7480314960629921,
          "duration": 0.20689649999999915
        },
        {
          "name": "C4",
          "midi": 60,
          "time": 121.86203849999954,
          "velocity": 0.7480314960629921,
          "duration": 0.20689649999999915
        },
        {
          "name": "A3",
          "midi": 57,
          "time": 121.86203849999954,
          "velocity": 0.7480314960629921,
          "duration": 0.20689649999999915
        },
        {
          "name": "E3",
          "midi": 52,
          "time": 121.86203849999954,
          "velocity": 0.7480314960629921,
          "duration": 0.20689649999999915
        },
        {
          "name": "A2",
          "midi": 45,
          "time": 121.86203849999954,
          "velocity": 0.7480314960629921,
          "duration": 0.20689649999999915
        },
        {
          "name": "C4",
          "midi": 60,
          "time": 122.06893499999954,
          "velocity": 0.7480314960629921,
          "duration": 0.20689649999999915
        },
        {
          "name": "A3",
          "midi": 57,
          "time": 122.06893499999954,
          "velocity": 0.7480314960629921,
          "duration": 0.20689649999999915
        },
        {
          "name": "E3",
          "midi": 52,
          "time": 122.06893499999954,
          "velocity": 0.7480314960629921,
          "duration": 0.20689649999999915
        },
        {
          "name": "A2",
          "midi": 45,
          "time": 122.06893499999954,
          "velocity": 0.7480314960629921,
          "duration": 0.20689649999999915
        },
        {
          "name": "C4",
          "midi": 60,
          "time": 122.27583149999954,
          "velocity": 0.7480314960629921,
          "duration": 0.20689649999999915
        },
        {
          "name": "A3",
          "midi": 57,
          "time": 122.27583149999954,
          "velocity": 0.7480314960629921,
          "duration": 0.20689649999999915
        },
        {
          "name": "E3",
          "midi": 52,
          "time": 122.27583149999954,
          "velocity": 0.7480314960629921,
          "duration": 0.20689649999999915
        },
        {
          "name": "A2",
          "midi": 45,
          "time": 122.27583149999954,
          "velocity": 0.7480314960629921,
          "duration": 0.20689649999999915
        },
        {
          "name": "E4",
          "midi": 64,
          "time": 122.48272799999954,
          "velocity": 0.7480314960629921,
          "duration": 0.20689649999999915
        },
        {
          "name": "C4",
          "midi": 60,
          "time": 122.48272799999954,
          "velocity": 0.7480314960629921,
          "duration": 0.20689649999999915
        },
        {
          "name": "G3",
          "midi": 55,
          "time": 122.48272799999954,
          "velocity": 0.7480314960629921,
          "duration": 0.20689649999999915
        },
        {
          "name": "C3",
          "midi": 48,
          "time": 122.48272799999954,
          "velocity": 0.7480314960629921,
          "duration": 0.20689649999999915
        },
        {
          "name": "E4",
          "midi": 64,
          "time": 122.68962449999954,
          "velocity": 0.7480314960629921,
          "duration": 0.20689649999999915
        },
        {
          "name": "C4",
          "midi": 60,
          "time": 122.68962449999954,
          "velocity": 0.7480314960629921,
          "duration": 0.20689649999999915
        },
        {
          "name": "G3",
          "midi": 55,
          "time": 122.68962449999954,
          "velocity": 0.7480314960629921,
          "duration": 0.20689649999999915
        },
        {
          "name": "C3",
          "midi": 48,
          "time": 122.68962449999954,
          "velocity": 0.7480314960629921,
          "duration": 0.20689649999999915
        },
        {
          "name": "E4",
          "midi": 64,
          "time": 122.89652099999954,
          "velocity": 0.7480314960629921,
          "duration": 0.20689649999999915
        },
        {
          "name": "C4",
          "midi": 60,
          "time": 122.89652099999954,
          "velocity": 0.7480314960629921,
          "duration": 0.20689649999999915
        },
        {
          "name": "G3",
          "midi": 55,
          "time": 122.89652099999954,
          "velocity": 0.7480314960629921,
          "duration": 0.20689649999999915
        },
        {
          "name": "C3",
          "midi": 48,
          "time": 122.89652099999954,
          "velocity": 0.7480314960629921,
          "duration": 0.20689649999999915
        },
        {
          "name": "E4",
          "midi": 64,
          "time": 123.10341749999954,
          "velocity": 0.7480314960629921,
          "duration": 0.20689649999999915
        },
        {
          "name": "C4",
          "midi": 60,
          "time": 123.10341749999954,
          "velocity": 0.7480314960629921,
          "duration": 0.20689649999999915
        },
        {
          "name": "G3",
          "midi": 55,
          "time": 123.10341749999954,
          "velocity": 0.7480314960629921,
          "duration": 0.20689649999999915
        },
        {
          "name": "C3",
          "midi": 48,
          "time": 123.10341749999954,
          "velocity": 0.7480314960629921,
          "duration": 0.20689649999999915
        },
        {
          "name": "E4",
          "midi": 64,
          "time": 123.31031399999954,
          "velocity": 0.7480314960629921,
          "duration": 0.20689649999999915
        },
        {
          "name": "C4",
          "midi": 60,
          "time": 123.31031399999954,
          "velocity": 0.7480314960629921,
          "duration": 0.20689649999999915
        },
        {
          "name": "G3",
          "midi": 55,
          "time": 123.31031399999954,
          "velocity": 0.7480314960629921,
          "duration": 0.20689649999999915
        },
        {
          "name": "C3",
          "midi": 48,
          "time": 123.31031399999954,
          "velocity": 0.7480314960629921,
          "duration": 0.20689649999999915
        },
        {
          "name": "E4",
          "midi": 64,
          "time": 123.51721049999954,
          "velocity": 0.7480314960629921,
          "duration": 0.20689649999999915
        },
        {
          "name": "C4",
          "midi": 60,
          "time": 123.51721049999954,
          "velocity": 0.7480314960629921,
          "duration": 0.20689649999999915
        },
        {
          "name": "G3",
          "midi": 55,
          "time": 123.51721049999954,
          "velocity": 0.7480314960629921,
          "duration": 0.20689649999999915
        },
        {
          "name": "C3",
          "midi": 48,
          "time": 123.51721049999954,
          "velocity": 0.7480314960629921,
          "duration": 0.20689649999999915
        },
        {
          "name": "E4",
          "midi": 64,
          "time": 123.72410699999953,
          "velocity": 0.7480314960629921,
          "duration": 0.20689649999999915
        },
        {
          "name": "C4",
          "midi": 60,
          "time": 123.72410699999953,
          "velocity": 0.7480314960629921,
          "duration": 0.20689649999999915
        },
        {
          "name": "G3",
          "midi": 55,
          "time": 123.72410699999953,
          "velocity": 0.7480314960629921,
          "duration": 0.20689649999999915
        },
        {
          "name": "C3",
          "midi": 48,
          "time": 123.72410699999953,
          "velocity": 0.7480314960629921,
          "duration": 0.20689649999999915
        },
        {
          "name": "E4",
          "midi": 64,
          "time": 123.93100349999953,
          "velocity": 0.7480314960629921,
          "duration": 0.20689649999999915
        },
        {
          "name": "C4",
          "midi": 60,
          "time": 123.93100349999953,
          "velocity": 0.7480314960629921,
          "duration": 0.20689649999999915
        },
        {
          "name": "G3",
          "midi": 55,
          "time": 123.93100349999953,
          "velocity": 0.7480314960629921,
          "duration": 0.20689649999999915
        },
        {
          "name": "C3",
          "midi": 48,
          "time": 123.93100349999953,
          "velocity": 0.7480314960629921,
          "duration": 0.20689649999999915
        },
        {
          "name": "G3",
          "midi": 55,
          "time": 124.13789999999953,
          "velocity": 0.7480314960629921,
          "duration": 0.20689649999999915
        },
        {
          "name": "E3",
          "midi": 52,
          "time": 124.13789999999953,
          "velocity": 0.7480314960629921,
          "duration": 0.20689649999999915
        },
        {
          "name": "B2",
          "midi": 47,
          "time": 124.13789999999953,
          "velocity": 0.7480314960629921,
          "duration": 0.20689649999999915
        },
        {
          "name": "E2",
          "midi": 40,
          "time": 124.13789999999953,
          "velocity": 0.7480314960629921,
          "duration": 0.20689649999999915
        },
        {
          "name": "G3",
          "midi": 55,
          "time": 124.34479649999953,
          "velocity": 0.7480314960629921,
          "duration": 0.20689649999999915
        },
        {
          "name": "E3",
          "midi": 52,
          "time": 124.34479649999953,
          "velocity": 0.7480314960629921,
          "duration": 0.20689649999999915
        },
        {
          "name": "B2",
          "midi": 47,
          "time": 124.34479649999953,
          "velocity": 0.7480314960629921,
          "duration": 0.20689649999999915
        },
        {
          "name": "E2",
          "midi": 40,
          "time": 124.34479649999953,
          "velocity": 0.7480314960629921,
          "duration": 0.20689649999999915
        },
        {
          "name": "G3",
          "midi": 55,
          "time": 124.55169299999953,
          "velocity": 0.7480314960629921,
          "duration": 0.20689649999999915
        },
        {
          "name": "E3",
          "midi": 52,
          "time": 124.55169299999953,
          "velocity": 0.7480314960629921,
          "duration": 0.20689649999999915
        },
        {
          "name": "B2",
          "midi": 47,
          "time": 124.55169299999953,
          "velocity": 0.7480314960629921,
          "duration": 0.20689649999999915
        },
        {
          "name": "E2",
          "midi": 40,
          "time": 124.55169299999953,
          "velocity": 0.7480314960629921,
          "duration": 0.20689649999999915
        },
        {
          "name": "G3",
          "midi": 55,
          "time": 124.75858949999953,
          "velocity": 0.7480314960629921,
          "duration": 0.20689649999999915
        },
        {
          "name": "E3",
          "midi": 52,
          "time": 124.75858949999953,
          "velocity": 0.7480314960629921,
          "duration": 0.20689649999999915
        },
        {
          "name": "B2",
          "midi": 47,
          "time": 124.75858949999953,
          "velocity": 0.7480314960629921,
          "duration": 0.20689649999999915
        },
        {
          "name": "E2",
          "midi": 40,
          "time": 124.75858949999953,
          "velocity": 0.7480314960629921,
          "duration": 0.20689649999999915
        },
        {
          "name": "G3",
          "midi": 55,
          "time": 124.96548599999953,
          "velocity": 0.7480314960629921,
          "duration": 0.20689649999999915
        },
        {
          "name": "E3",
          "midi": 52,
          "time": 124.96548599999953,
          "velocity": 0.7480314960629921,
          "duration": 0.20689649999999915
        },
        {
          "name": "B2",
          "midi": 47,
          "time": 124.96548599999953,
          "velocity": 0.7480314960629921,
          "duration": 0.20689649999999915
        },
        {
          "name": "E2",
          "midi": 40,
          "time": 124.96548599999953,
          "velocity": 0.7480314960629921,
          "duration": 0.20689649999999915
        },
        {
          "name": "G3",
          "midi": 55,
          "time": 125.17238249999953,
          "velocity": 0.7480314960629921,
          "duration": 0.20689649999999915
        },
        {
          "name": "E3",
          "midi": 52,
          "time": 125.17238249999953,
          "velocity": 0.7480314960629921,
          "duration": 0.20689649999999915
        },
        {
          "name": "B2",
          "midi": 47,
          "time": 125.17238249999953,
          "velocity": 0.7480314960629921,
          "duration": 0.20689649999999915
        },
        {
          "name": "E2",
          "midi": 40,
          "time": 125.17238249999953,
          "velocity": 0.7480314960629921,
          "duration": 0.20689649999999915
        },
        {
          "name": "G3",
          "midi": 55,
          "time": 125.37927899999953,
          "velocity": 0.7480314960629921,
          "duration": 0.20689649999999915
        },
        {
          "name": "E3",
          "midi": 52,
          "time": 125.37927899999953,
          "velocity": 0.7480314960629921,
          "duration": 0.20689649999999915
        },
        {
          "name": "B2",
          "midi": 47,
          "time": 125.37927899999953,
          "velocity": 0.7480314960629921,
          "duration": 0.20689649999999915
        },
        {
          "name": "E2",
          "midi": 40,
          "time": 125.37927899999953,
          "velocity": 0.7480314960629921,
          "duration": 0.20689649999999915
        },
        {
          "name": "G3",
          "midi": 55,
          "time": 125.58617549999953,
          "velocity": 0.7480314960629921,
          "duration": 0.20689649999999915
        },
        {
          "name": "E3",
          "midi": 52,
          "time": 125.58617549999953,
          "velocity": 0.7480314960629921,
          "duration": 0.20689649999999915
        },
        {
          "name": "B2",
          "midi": 47,
          "time": 125.58617549999953,
          "velocity": 0.7480314960629921,
          "duration": 0.20689649999999915
        },
        {
          "name": "E2",
          "midi": 40,
          "time": 125.58617549999953,
          "velocity": 0.7480314960629921,
          "duration": 0.20689649999999915
        },
        {
          "name": "A4",
          "midi": 69,
          "time": 125.79307199999953,
          "velocity": 0.7480314960629921,
          "duration": 0.20689649999999915
        },
        {
          "name": "B3",
          "midi": 59,
          "time": 125.79307199999953,
          "velocity": 0.7480314960629921,
          "duration": 0.20689649999999915
        },
        {
          "name": "D4",
          "midi": 62,
          "time": 125.79307199999953,
          "velocity": 0.7480314960629921,
          "duration": 0.20689649999999915
        },
        {
          "name": "D3",
          "midi": 50,
          "time": 125.79307199999953,
          "velocity": 0.7480314960629921,
          "duration": 0.20689649999999915
        },
        {
          "name": "A4",
          "midi": 69,
          "time": 125.99996849999953,
          "velocity": 0.7480314960629921,
          "duration": 0.20689649999999915
        },
        {
          "name": "B3",
          "midi": 59,
          "time": 125.99996849999953,
          "velocity": 0.7480314960629921,
          "duration": 0.20689649999999915
        },
        {
          "name": "C4",
          "midi": 60,
          "time": 125.99996849999953,
          "velocity": 0.5511811023622047,
          "duration": 0.20689649999999915
        },
        {
          "name": "D3",
          "midi": 50,
          "time": 125.99996849999953,
          "velocity": 0.7480314960629921,
          "duration": 0.20689649999999915
        },
        {
          "name": "A4",
          "midi": 69,
          "time": 126.20686499999952,
          "velocity": 0.7480314960629921,
          "duration": 0.20689649999999915
        },
        {
          "name": "B3",
          "midi": 59,
          "time": 126.20686499999952,
          "velocity": 0.7480314960629921,
          "duration": 0.20689649999999915
        },
        {
          "name": "C4",
          "midi": 60,
          "time": 126.20686499999952,
          "velocity": 0.7480314960629921,
          "duration": 0.20689649999999915
        },
        {
          "name": "D3",
          "midi": 50,
          "time": 126.20686499999952,
          "velocity": 0.7480314960629921,
          "duration": 0.20689649999999915
        },
        {
          "name": "A4",
          "midi": 69,
          "time": 126.41376149999952,
          "velocity": 0.7480314960629921,
          "duration": 0.20689649999999915
        },
        {
          "name": "B3",
          "midi": 59,
          "time": 126.41376149999952,
          "velocity": 0.7480314960629921,
          "duration": 0.20689649999999915
        },
        {
          "name": "C4",
          "midi": 60,
          "time": 126.41376149999952,
          "velocity": 0.7480314960629921,
          "duration": 0.20689649999999915
        },
        {
          "name": "D3",
          "midi": 50,
          "time": 126.41376149999952,
          "velocity": 0.7480314960629921,
          "duration": 0.20689649999999915
        },
        {
          "name": "A4",
          "midi": 69,
          "time": 126.62065799999952,
          "velocity": 0.7480314960629921,
          "duration": 0.4137929999999983
        },
        {
          "name": "B3",
          "midi": 59,
          "time": 126.62065799999952,
          "velocity": 0.7480314960629921,
          "duration": 0.4137929999999983
        },
        {
          "name": "C4",
          "midi": 60,
          "time": 126.62065799999952,
          "velocity": 0.7480314960629921,
          "duration": 0.4137929999999983
        },
        {
          "name": "D3",
          "midi": 50,
          "time": 126.62065799999952,
          "velocity": 0.7480314960629921,
          "duration": 0.4137929999999983
        },
        {
          "name": "A4",
          "midi": 69,
          "time": 127.03445099999952,
          "velocity": 0.7480314960629921,
          "duration": 0.20689649999999915
        },
        {
          "name": "B3",
          "midi": 59,
          "time": 127.03445099999952,
          "velocity": 0.7480314960629921,
          "duration": 0.20689649999999915
        },
        {
          "name": "C4",
          "midi": 60,
          "time": 127.03445099999952,
          "velocity": 0.7480314960629921,
          "duration": 0.20689649999999915
        },
        {
          "name": "D3",
          "midi": 50,
          "time": 127.03445099999952,
          "velocity": 0.7480314960629921,
          "duration": 0.20689649999999915
        },
        {
          "name": "A4",
          "midi": 69,
          "time": 127.24134749999952,
          "velocity": 0.7480314960629921,
          "duration": 0.20689649999999915
        },
        {
          "name": "B3",
          "midi": 59,
          "time": 127.24134749999952,
          "velocity": 0.7480314960629921,
          "duration": 0.20689649999999915
        },
        {
          "name": "C4",
          "midi": 60,
          "time": 127.24134749999952,
          "velocity": 0.7480314960629921,
          "duration": 0.20689649999999915
        },
        {
          "name": "D3",
          "midi": 50,
          "time": 127.24134749999952,
          "velocity": 0.7480314960629921,
          "duration": 0.20689649999999915
        },
        {
          "name": "A4",
          "midi": 69,
          "time": 127.44824399999952,
          "velocity": 0.7480314960629921,
          "duration": 0.20689649999999915
        },
        {
          "name": "B3",
          "midi": 59,
          "time": 127.44824399999952,
          "velocity": 0.7480314960629921,
          "duration": 0.20689649999999915
        },
        {
          "name": "C4",
          "midi": 60,
          "time": 127.44824399999952,
          "velocity": 0.7480314960629921,
          "duration": 0.20689649999999915
        },
        {
          "name": "D3",
          "midi": 50,
          "time": 127.44824399999952,
          "velocity": 0.7480314960629921,
          "duration": 0.20689649999999915
        },
        {
          "name": "A4",
          "midi": 69,
          "time": 127.65514049999952,
          "velocity": 0.7480314960629921,
          "duration": 0.20689649999999915
        },
        {
          "name": "B3",
          "midi": 59,
          "time": 127.65514049999952,
          "velocity": 0.7480314960629921,
          "duration": 0.20689649999999915
        },
        {
          "name": "C4",
          "midi": 60,
          "time": 127.65514049999952,
          "velocity": 0.7480314960629921,
          "duration": 0.20689649999999915
        },
        {
          "name": "D3",
          "midi": 50,
          "time": 127.65514049999952,
          "velocity": 0.7480314960629921,
          "duration": 0.20689649999999915
        },
        {
          "name": "A4",
          "midi": 69,
          "time": 127.86203699999952,
          "velocity": 0.7480314960629921,
          "duration": 0.4137930000000125
        },
        {
          "name": "B3",
          "midi": 59,
          "time": 127.86203699999952,
          "velocity": 0.7480314960629921,
          "duration": 0.4137930000000125
        },
        {
          "name": "C4",
          "midi": 60,
          "time": 127.86203699999952,
          "velocity": 0.7480314960629921,
          "duration": 0.4137930000000125
        },
        {
          "name": "D3",
          "midi": 50,
          "time": 127.86203699999952,
          "velocity": 0.7480314960629921,
          "duration": 0.4137930000000125
        },
        {
          "name": "A4",
          "midi": 69,
          "time": 128.27582999999953,
          "velocity": 0.7480314960629921,
          "duration": 0.20689649999999915
        },
        {
          "name": "B3",
          "midi": 59,
          "time": 128.27582999999953,
          "velocity": 0.7480314960629921,
          "duration": 0.20689649999999915
        },
        {
          "name": "C4",
          "midi": 60,
          "time": 128.27582999999953,
          "velocity": 0.7480314960629921,
          "duration": 0.20689649999999915
        },
        {
          "name": "D3",
          "midi": 50,
          "time": 128.27582999999953,
          "velocity": 0.7480314960629921,
          "duration": 0.20689649999999915
        },
        {
          "name": "A4",
          "midi": 69,
          "time": 128.48272649999953,
          "velocity": 0.7480314960629921,
          "duration": 0.20689649999999915
        },
        {
          "name": "B3",
          "midi": 59,
          "time": 128.48272649999953,
          "velocity": 0.7480314960629921,
          "duration": 0.20689649999999915
        },
        {
          "name": "C4",
          "midi": 60,
          "time": 128.48272649999953,
          "velocity": 0.7480314960629921,
          "duration": 0.20689649999999915
        },
        {
          "name": "D3",
          "midi": 50,
          "time": 128.48272649999953,
          "velocity": 0.7480314960629921,
          "duration": 0.20689649999999915
        },
        {
          "name": "A4",
          "midi": 69,
          "time": 128.68962299999953,
          "velocity": 0.7480314960629921,
          "duration": 0.20689649999999915
        },
        {
          "name": "B3",
          "midi": 59,
          "time": 128.68962299999953,
          "velocity": 0.7480314960629921,
          "duration": 0.20689649999999915
        },
        {
          "name": "C4",
          "midi": 60,
          "time": 128.68962299999953,
          "velocity": 0.7480314960629921,
          "duration": 0.20689649999999915
        },
        {
          "name": "D3",
          "midi": 50,
          "time": 128.68962299999953,
          "velocity": 0.7480314960629921,
          "duration": 0.20689649999999915
        },
        {
          "name": "A4",
          "midi": 69,
          "time": 129.10341599999953,
          "velocity": 0.7480314960629921,
          "duration": 0.20689649999999915
        },
        {
          "name": "B3",
          "midi": 59,
          "time": 129.10341599999953,
          "velocity": 0.7480314960629921,
          "duration": 0.20689649999999915
        },
        {
          "name": "D4",
          "midi": 62,
          "time": 129.10341599999953,
          "velocity": 0.7480314960629921,
          "duration": 0.20689649999999915
        },
        {
          "name": "D3",
          "midi": 50,
          "time": 129.10341599999953,
          "velocity": 0.7480314960629921,
          "duration": 0.20689649999999915
        },
        {
          "name": "A4",
          "midi": 69,
          "time": 129.31031249999953,
          "velocity": 0.7480314960629921,
          "duration": 0.20689649999999915
        },
        {
          "name": "B3",
          "midi": 59,
          "time": 129.31031249999953,
          "velocity": 0.7480314960629921,
          "duration": 0.20689649999999915
        },
        {
          "name": "C4",
          "midi": 60,
          "time": 129.31031249999953,
          "velocity": 0.5511811023622047,
          "duration": 0.20689649999999915
        },
        {
          "name": "D3",
          "midi": 50,
          "time": 129.31031249999953,
          "velocity": 0.7480314960629921,
          "duration": 0.20689649999999915
        },
        {
          "name": "A4",
          "midi": 69,
          "time": 129.51720899999953,
          "velocity": 0.7480314960629921,
          "duration": 0.20689649999999915
        },
        {
          "name": "B3",
          "midi": 59,
          "time": 129.51720899999953,
          "velocity": 0.7480314960629921,
          "duration": 0.20689649999999915
        },
        {
          "name": "C4",
          "midi": 60,
          "time": 129.51720899999953,
          "velocity": 0.7480314960629921,
          "duration": 0.20689649999999915
        },
        {
          "name": "D3",
          "midi": 50,
          "time": 129.51720899999953,
          "velocity": 0.7480314960629921,
          "duration": 0.20689649999999915
        },
        {
          "name": "A4",
          "midi": 69,
          "time": 129.72410549999952,
          "velocity": 0.7480314960629921,
          "duration": 0.20689649999999915
        },
        {
          "name": "B3",
          "midi": 59,
          "time": 129.72410549999952,
          "velocity": 0.7480314960629921,
          "duration": 0.20689649999999915
        },
        {
          "name": "C4",
          "midi": 60,
          "time": 129.72410549999952,
          "velocity": 0.7480314960629921,
          "duration": 0.20689649999999915
        },
        {
          "name": "D3",
          "midi": 50,
          "time": 129.72410549999952,
          "velocity": 0.7480314960629921,
          "duration": 0.20689649999999915
        },
        {
          "name": "A4",
          "midi": 69,
          "time": 129.93100199999952,
          "velocity": 0.7480314960629921,
          "duration": 0.4137929999999983
        },
        {
          "name": "B3",
          "midi": 59,
          "time": 129.93100199999952,
          "velocity": 0.7480314960629921,
          "duration": 0.4137929999999983
        },
        {
          "name": "C4",
          "midi": 60,
          "time": 129.93100199999952,
          "velocity": 0.7480314960629921,
          "duration": 0.4137929999999983
        },
        {
          "name": "D3",
          "midi": 50,
          "time": 129.93100199999952,
          "velocity": 0.7480314960629921,
          "duration": 0.4137929999999983
        },
        {
          "name": "A4",
          "midi": 69,
          "time": 130.34479499999952,
          "velocity": 0.7480314960629921,
          "duration": 0.20689649999999915
        },
        {
          "name": "B3",
          "midi": 59,
          "time": 130.34479499999952,
          "velocity": 0.7480314960629921,
          "duration": 0.20689649999999915
        },
        {
          "name": "C4",
          "midi": 60,
          "time": 130.34479499999952,
          "velocity": 0.7480314960629921,
          "duration": 0.20689649999999915
        },
        {
          "name": "D3",
          "midi": 50,
          "time": 130.34479499999952,
          "velocity": 0.7480314960629921,
          "duration": 0.20689649999999915
        },
        {
          "name": "A4",
          "midi": 69,
          "time": 130.55169149999952,
          "velocity": 0.7480314960629921,
          "duration": 0.20689649999999915
        },
        {
          "name": "B3",
          "midi": 59,
          "time": 130.55169149999952,
          "velocity": 0.7480314960629921,
          "duration": 0.20689649999999915
        },
        {
          "name": "C4",
          "midi": 60,
          "time": 130.55169149999952,
          "velocity": 0.7480314960629921,
          "duration": 0.20689649999999915
        },
        {
          "name": "D3",
          "midi": 50,
          "time": 130.55169149999952,
          "velocity": 0.7480314960629921,
          "duration": 0.20689649999999915
        },
        {
          "name": "A4",
          "midi": 69,
          "time": 130.75858799999952,
          "velocity": 0.7480314960629921,
          "duration": 0.20689649999999915
        },
        {
          "name": "B3",
          "midi": 59,
          "time": 130.75858799999952,
          "velocity": 0.7480314960629921,
          "duration": 0.20689649999999915
        },
        {
          "name": "C4",
          "midi": 60,
          "time": 130.75858799999952,
          "velocity": 0.7480314960629921,
          "duration": 0.20689649999999915
        },
        {
          "name": "D3",
          "midi": 50,
          "time": 130.75858799999952,
          "velocity": 0.7480314960629921,
          "duration": 0.20689649999999915
        },
        {
          "name": "A4",
          "midi": 69,
          "time": 130.96548449999952,
          "velocity": 0.7480314960629921,
          "duration": 0.20689649999999915
        },
        {
          "name": "B3",
          "midi": 59,
          "time": 130.96548449999952,
          "velocity": 0.7480314960629921,
          "duration": 0.20689649999999915
        },
        {
          "name": "C4",
          "midi": 60,
          "time": 130.96548449999952,
          "velocity": 0.7480314960629921,
          "duration": 0.20689649999999915
        },
        {
          "name": "D3",
          "midi": 50,
          "time": 130.96548449999952,
          "velocity": 0.7480314960629921,
          "duration": 0.20689649999999915
        },
        {
          "name": "A4",
          "midi": 69,
          "time": 131.17238099999952,
          "velocity": 0.7480314960629921,
          "duration": 0.4137929999999983
        },
        {
          "name": "B3",
          "midi": 59,
          "time": 131.17238099999952,
          "velocity": 0.7480314960629921,
          "duration": 0.4137929999999983
        },
        {
          "name": "C4",
          "midi": 60,
          "time": 131.17238099999952,
          "velocity": 0.7480314960629921,
          "duration": 0.4137929999999983
        },
        {
          "name": "D3",
          "midi": 50,
          "time": 131.17238099999952,
          "velocity": 0.7480314960629921,
          "duration": 0.4137929999999983
        },
        {
          "name": "A4",
          "midi": 69,
          "time": 131.58617399999952,
          "velocity": 0.7480314960629921,
          "duration": 0.20689649999999915
        },
        {
          "name": "B3",
          "midi": 59,
          "time": 131.58617399999952,
          "velocity": 0.7480314960629921,
          "duration": 0.20689649999999915
        },
        {
          "name": "C4",
          "midi": 60,
          "time": 131.58617399999952,
          "velocity": 0.7480314960629921,
          "duration": 0.20689649999999915
        },
        {
          "name": "D3",
          "midi": 50,
          "time": 131.58617399999952,
          "velocity": 0.7480314960629921,
          "duration": 0.20689649999999915
        },
        {
          "name": "A4",
          "midi": 69,
          "time": 131.79307049999952,
          "velocity": 0.7480314960629921,
          "duration": 0.20689649999999915
        },
        {
          "name": "B3",
          "midi": 59,
          "time": 131.79307049999952,
          "velocity": 0.7480314960629921,
          "duration": 0.20689649999999915
        },
        {
          "name": "C4",
          "midi": 60,
          "time": 131.79307049999952,
          "velocity": 0.7480314960629921,
          "duration": 0.20689649999999915
        },
        {
          "name": "D3",
          "midi": 50,
          "time": 131.79307049999952,
          "velocity": 0.7480314960629921,
          "duration": 0.20689649999999915
        },
        {
          "name": "A4",
          "midi": 69,
          "time": 131.99996699999951,
          "velocity": 0.7480314960629921,
          "duration": 0.20689649999999915
        },
        {
          "name": "B3",
          "midi": 59,
          "time": 131.99996699999951,
          "velocity": 0.7480314960629921,
          "duration": 0.20689649999999915
        },
        {
          "name": "C4",
          "midi": 60,
          "time": 131.99996699999951,
          "velocity": 0.7480314960629921,
          "duration": 0.20689649999999915
        },
        {
          "name": "D3",
          "midi": 50,
          "time": 131.99996699999951,
          "velocity": 0.7480314960629921,
          "duration": 0.20689649999999915
        },
        {
          "name": "C4",
          "midi": 60,
          "time": 132.4137599999995,
          "velocity": 0.7480314960629921,
          "duration": 0.20689649999999915
        },
        {
          "name": "G3",
          "midi": 55,
          "time": 132.4137599999995,
          "velocity": 0.7480314960629921,
          "duration": 0.20689649999999915
        },
        {
          "name": "C3",
          "midi": 48,
          "time": 132.4137599999995,
          "velocity": 0.7480314960629921,
          "duration": 0.20689649999999915
        },
        {
          "name": "C4",
          "midi": 60,
          "time": 132.6206564999995,
          "velocity": 0.7480314960629921,
          "duration": 0.20689649999999915
        },
        {
          "name": "G3",
          "midi": 55,
          "time": 132.6206564999995,
          "velocity": 0.7480314960629921,
          "duration": 0.20689649999999915
        },
        {
          "name": "C3",
          "midi": 48,
          "time": 132.6206564999995,
          "velocity": 0.7480314960629921,
          "duration": 0.20689649999999915
        },
        {
          "name": "C4",
          "midi": 60,
          "time": 132.8275529999995,
          "velocity": 0.7480314960629921,
          "duration": 0.20689649999999915
        },
        {
          "name": "G3",
          "midi": 55,
          "time": 132.8275529999995,
          "velocity": 0.7480314960629921,
          "duration": 0.20689649999999915
        },
        {
          "name": "C3",
          "midi": 48,
          "time": 132.8275529999995,
          "velocity": 0.7480314960629921,
          "duration": 0.20689649999999915
        },
        {
          "name": "C4",
          "midi": 60,
          "time": 133.0344494999995,
          "velocity": 0.7480314960629921,
          "duration": 0.20689649999999915
        },
        {
          "name": "G3",
          "midi": 55,
          "time": 133.0344494999995,
          "velocity": 0.7480314960629921,
          "duration": 0.20689649999999915
        },
        {
          "name": "C3",
          "midi": 48,
          "time": 133.0344494999995,
          "velocity": 0.7480314960629921,
          "duration": 0.20689649999999915
        },
        {
          "name": "C4",
          "midi": 60,
          "time": 133.2413459999995,
          "velocity": 0.7480314960629921,
          "duration": 0.20689649999999915
        },
        {
          "name": "G3",
          "midi": 55,
          "time": 133.2413459999995,
          "velocity": 0.7480314960629921,
          "duration": 0.20689649999999915
        },
        {
          "name": "C3",
          "midi": 48,
          "time": 133.2413459999995,
          "velocity": 0.7480314960629921,
          "duration": 0.20689649999999915
        },
        {
          "name": "C4",
          "midi": 60,
          "time": 133.4482424999995,
          "velocity": 0.7480314960629921,
          "duration": 0.20689649999999915
        },
        {
          "name": "G3",
          "midi": 55,
          "time": 133.4482424999995,
          "velocity": 0.7480314960629921,
          "duration": 0.20689649999999915
        },
        {
          "name": "C3",
          "midi": 48,
          "time": 133.4482424999995,
          "velocity": 0.7480314960629921,
          "duration": 0.20689649999999915
        },
        {
          "name": "C4",
          "midi": 60,
          "time": 133.6551389999995,
          "velocity": 0.7480314960629921,
          "duration": 0.20689649999999915
        },
        {
          "name": "G3",
          "midi": 55,
          "time": 133.6551389999995,
          "velocity": 0.7480314960629921,
          "duration": 0.20689649999999915
        },
        {
          "name": "C3",
          "midi": 48,
          "time": 133.6551389999995,
          "velocity": 0.7480314960629921,
          "duration": 0.20689649999999915
        },
        {
          "name": "C4",
          "midi": 60,
          "time": 133.8620354999995,
          "velocity": 0.7480314960629921,
          "duration": 0.20689649999999915
        },
        {
          "name": "G3",
          "midi": 55,
          "time": 133.8620354999995,
          "velocity": 0.7480314960629921,
          "duration": 0.20689649999999915
        },
        {
          "name": "C3",
          "midi": 48,
          "time": 133.8620354999995,
          "velocity": 0.7480314960629921,
          "duration": 0.20689649999999915
        },
        {
          "name": "G4",
          "midi": 67,
          "time": 134.0689319999995,
          "velocity": 0.7480314960629921,
          "duration": 0.20689649999999915
        },
        {
          "name": "E4",
          "midi": 64,
          "time": 134.0689319999995,
          "velocity": 0.7480314960629921,
          "duration": 0.20689649999999915
        },
        {
          "name": "B3",
          "midi": 59,
          "time": 134.0689319999995,
          "velocity": 0.7480314960629921,
          "duration": 0.20689649999999915
        },
        {
          "name": "E3",
          "midi": 52,
          "time": 134.0689319999995,
          "velocity": 0.7480314960629921,
          "duration": 0.20689649999999915
        },
        {
          "name": "G4",
          "midi": 67,
          "time": 134.2758284999995,
          "velocity": 0.7480314960629921,
          "duration": 0.20689649999999915
        },
        {
          "name": "E4",
          "midi": 64,
          "time": 134.2758284999995,
          "velocity": 0.7480314960629921,
          "duration": 0.20689649999999915
        },
        {
          "name": "B3",
          "midi": 59,
          "time": 134.2758284999995,
          "velocity": 0.7480314960629921,
          "duration": 0.20689649999999915
        },
        {
          "name": "E3",
          "midi": 52,
          "time": 134.2758284999995,
          "velocity": 0.7480314960629921,
          "duration": 0.20689649999999915
        },
        {
          "name": "G4",
          "midi": 67,
          "time": 134.4827249999995,
          "velocity": 0.7480314960629921,
          "duration": 0.20689649999999915
        },
        {
          "name": "E4",
          "midi": 64,
          "time": 134.4827249999995,
          "velocity": 0.7480314960629921,
          "duration": 0.20689649999999915
        },
        {
          "name": "B3",
          "midi": 59,
          "time": 134.4827249999995,
          "velocity": 0.7480314960629921,
          "duration": 0.20689649999999915
        },
        {
          "name": "E3",
          "midi": 52,
          "time": 134.4827249999995,
          "velocity": 0.7480314960629921,
          "duration": 0.20689649999999915
        },
        {
          "name": "G4",
          "midi": 67,
          "time": 134.6896214999995,
          "velocity": 0.7480314960629921,
          "duration": 0.20689649999999915
        },
        {
          "name": "E4",
          "midi": 64,
          "time": 134.6896214999995,
          "velocity": 0.7480314960629921,
          "duration": 0.20689649999999915
        },
        {
          "name": "B3",
          "midi": 59,
          "time": 134.6896214999995,
          "velocity": 0.7480314960629921,
          "duration": 0.20689649999999915
        },
        {
          "name": "E3",
          "midi": 52,
          "time": 134.6896214999995,
          "velocity": 0.7480314960629921,
          "duration": 0.20689649999999915
        },
        {
          "name": "G4",
          "midi": 67,
          "time": 134.8965179999995,
          "velocity": 0.7480314960629921,
          "duration": 0.20689649999999915
        },
        {
          "name": "E4",
          "midi": 64,
          "time": 134.8965179999995,
          "velocity": 0.7480314960629921,
          "duration": 0.20689649999999915
        },
        {
          "name": "B3",
          "midi": 59,
          "time": 134.8965179999995,
          "velocity": 0.7480314960629921,
          "duration": 0.20689649999999915
        },
        {
          "name": "E3",
          "midi": 52,
          "time": 134.8965179999995,
          "velocity": 0.7480314960629921,
          "duration": 0.20689649999999915
        },
        {
          "name": "G4",
          "midi": 67,
          "time": 135.1034144999995,
          "velocity": 0.7480314960629921,
          "duration": 0.20689649999999915
        },
        {
          "name": "E4",
          "midi": 64,
          "time": 135.1034144999995,
          "velocity": 0.7480314960629921,
          "duration": 0.20689649999999915
        },
        {
          "name": "B3",
          "midi": 59,
          "time": 135.1034144999995,
          "velocity": 0.7480314960629921,
          "duration": 0.20689649999999915
        },
        {
          "name": "E3",
          "midi": 52,
          "time": 135.1034144999995,
          "velocity": 0.7480314960629921,
          "duration": 0.20689649999999915
        },
        {
          "name": "G4",
          "midi": 67,
          "time": 135.3103109999995,
          "velocity": 0.7480314960629921,
          "duration": 0.20689649999999915
        },
        {
          "name": "E4",
          "midi": 64,
          "time": 135.3103109999995,
          "velocity": 0.7480314960629921,
          "duration": 0.20689649999999915
        },
        {
          "name": "B3",
          "midi": 59,
          "time": 135.3103109999995,
          "velocity": 0.7480314960629921,
          "duration": 0.20689649999999915
        },
        {
          "name": "E3",
          "midi": 52,
          "time": 135.3103109999995,
          "velocity": 0.7480314960629921,
          "duration": 0.20689649999999915
        },
        {
          "name": "G4",
          "midi": 67,
          "time": 135.5172074999995,
          "velocity": 0.7480314960629921,
          "duration": 0.20689649999999915
        },
        {
          "name": "E4",
          "midi": 64,
          "time": 135.5172074999995,
          "velocity": 0.7480314960629921,
          "duration": 0.20689649999999915
        },
        {
          "name": "B3",
          "midi": 59,
          "time": 135.5172074999995,
          "velocity": 0.7480314960629921,
          "duration": 0.20689649999999915
        },
        {
          "name": "E3",
          "midi": 52,
          "time": 135.5172074999995,
          "velocity": 0.7480314960629921,
          "duration": 0.20689649999999915
        },
        {
          "name": "D4",
          "midi": 62,
          "time": 135.7241039999995,
          "velocity": 0.7480314960629921,
          "duration": 0.20689649999999915
        },
        {
          "name": "A3",
          "midi": 57,
          "time": 135.7241039999995,
          "velocity": 0.7480314960629921,
          "duration": 0.20689649999999915
        },
        {
          "name": "D3",
          "midi": 50,
          "time": 135.7241039999995,
          "velocity": 0.7480314960629921,
          "duration": 0.20689649999999915
        },
        {
          "name": "D4",
          "midi": 62,
          "time": 135.9310004999995,
          "velocity": 0.7480314960629921,
          "duration": 0.20689649999999915
        },
        {
          "name": "A3",
          "midi": 57,
          "time": 135.9310004999995,
          "velocity": 0.7480314960629921,
          "duration": 0.20689649999999915
        },
        {
          "name": "D3",
          "midi": 50,
          "time": 135.9310004999995,
          "velocity": 0.7480314960629921,
          "duration": 0.20689649999999915
        },
        {
          "name": "D4",
          "midi": 62,
          "time": 136.1378969999995,
          "velocity": 0.7480314960629921,
          "duration": 0.20689649999999915
        },
        {
          "name": "A3",
          "midi": 57,
          "time": 136.1378969999995,
          "velocity": 0.7480314960629921,
          "duration": 0.20689649999999915
        },
        {
          "name": "D3",
          "midi": 50,
          "time": 136.1378969999995,
          "velocity": 0.7480314960629921,
          "duration": 0.20689649999999915
        },
        {
          "name": "D4",
          "midi": 62,
          "time": 136.3447934999995,
          "velocity": 0.7480314960629921,
          "duration": 0.20689649999999915
        },
        {
          "name": "A3",
          "midi": 57,
          "time": 136.3447934999995,
          "velocity": 0.7480314960629921,
          "duration": 0.20689649999999915
        },
        {
          "name": "D3",
          "midi": 50,
          "time": 136.3447934999995,
          "velocity": 0.7480314960629921,
          "duration": 0.20689649999999915
        },
        {
          "name": "D4",
          "midi": 62,
          "time": 136.5516899999995,
          "velocity": 0.7480314960629921,
          "duration": 0.20689649999999915
        },
        {
          "name": "A3",
          "midi": 57,
          "time": 136.5516899999995,
          "velocity": 0.7480314960629921,
          "duration": 0.20689649999999915
        },
        {
          "name": "D3",
          "midi": 50,
          "time": 136.5516899999995,
          "velocity": 0.7480314960629921,
          "duration": 0.20689649999999915
        },
        {
          "name": "D4",
          "midi": 62,
          "time": 136.7585864999995,
          "velocity": 0.7480314960629921,
          "duration": 0.20689649999999915
        },
        {
          "name": "A3",
          "midi": 57,
          "time": 136.7585864999995,
          "velocity": 0.7480314960629921,
          "duration": 0.20689649999999915
        },
        {
          "name": "D3",
          "midi": 50,
          "time": 136.7585864999995,
          "velocity": 0.7480314960629921,
          "duration": 0.20689649999999915
        },
        {
          "name": "D4",
          "midi": 62,
          "time": 136.9654829999995,
          "velocity": 0.7480314960629921,
          "duration": 0.20689649999999915
        },
        {
          "name": "A3",
          "midi": 57,
          "time": 136.9654829999995,
          "velocity": 0.7480314960629921,
          "duration": 0.20689649999999915
        },
        {
          "name": "D3",
          "midi": 50,
          "time": 136.9654829999995,
          "velocity": 0.7480314960629921,
          "duration": 0.20689649999999915
        },
        {
          "name": "D4",
          "midi": 62,
          "time": 137.1723794999995,
          "velocity": 0.7480314960629921,
          "duration": 0.20689649999999915
        },
        {
          "name": "A3",
          "midi": 57,
          "time": 137.1723794999995,
          "velocity": 0.7480314960629921,
          "duration": 0.20689649999999915
        },
        {
          "name": "D3",
          "midi": 50,
          "time": 137.1723794999995,
          "velocity": 0.7480314960629921,
          "duration": 0.20689649999999915
        },
        {
          "name": "C4",
          "midi": 60,
          "time": 137.3792759999995,
          "velocity": 0.7480314960629921,
          "duration": 0.20689649999999915
        },
        {
          "name": "G3",
          "midi": 55,
          "time": 137.3792759999995,
          "velocity": 0.7480314960629921,
          "duration": 0.20689649999999915
        },
        {
          "name": "C3",
          "midi": 48,
          "time": 137.3792759999995,
          "velocity": 0.7480314960629921,
          "duration": 0.20689649999999915
        },
        {
          "name": "C4",
          "midi": 60,
          "time": 137.5861724999995,
          "velocity": 0.7480314960629921,
          "duration": 0.20689649999999915
        },
        {
          "name": "G3",
          "midi": 55,
          "time": 137.5861724999995,
          "velocity": 0.7480314960629921,
          "duration": 0.20689649999999915
        },
        {
          "name": "C3",
          "midi": 48,
          "time": 137.5861724999995,
          "velocity": 0.7480314960629921,
          "duration": 0.20689649999999915
        },
        {
          "name": "C4",
          "midi": 60,
          "time": 137.7930689999995,
          "velocity": 0.7480314960629921,
          "duration": 0.20689649999999915
        },
        {
          "name": "G3",
          "midi": 55,
          "time": 137.7930689999995,
          "velocity": 0.7480314960629921,
          "duration": 0.20689649999999915
        },
        {
          "name": "C3",
          "midi": 48,
          "time": 137.7930689999995,
          "velocity": 0.7480314960629921,
          "duration": 0.20689649999999915
        },
        {
          "name": "C4",
          "midi": 60,
          "time": 137.9999654999995,
          "velocity": 0.7480314960629921,
          "duration": 0.20689649999999915
        },
        {
          "name": "G3",
          "midi": 55,
          "time": 137.9999654999995,
          "velocity": 0.7480314960629921,
          "duration": 0.20689649999999915
        },
        {
          "name": "C3",
          "midi": 48,
          "time": 137.9999654999995,
          "velocity": 0.7480314960629921,
          "duration": 0.20689649999999915
        },
        {
          "name": "C4",
          "midi": 60,
          "time": 138.2068619999995,
          "velocity": 0.7480314960629921,
          "duration": 0.20689649999999915
        },
        {
          "name": "G3",
          "midi": 55,
          "time": 138.2068619999995,
          "velocity": 0.7480314960629921,
          "duration": 0.20689649999999915
        },
        {
          "name": "C3",
          "midi": 48,
          "time": 138.2068619999995,
          "velocity": 0.7480314960629921,
          "duration": 0.20689649999999915
        },
        {
          "name": "C4",
          "midi": 60,
          "time": 138.4137584999995,
          "velocity": 0.7480314960629921,
          "duration": 0.20689649999999915
        },
        {
          "name": "G3",
          "midi": 55,
          "time": 138.4137584999995,
          "velocity": 0.7480314960629921,
          "duration": 0.20689649999999915
        },
        {
          "name": "C3",
          "midi": 48,
          "time": 138.4137584999995,
          "velocity": 0.7480314960629921,
          "duration": 0.20689649999999915
        },
        {
          "name": "C4",
          "midi": 60,
          "time": 138.6206549999995,
          "velocity": 0.7480314960629921,
          "duration": 0.20689649999999915
        },
        {
          "name": "G3",
          "midi": 55,
          "time": 138.6206549999995,
          "velocity": 0.7480314960629921,
          "duration": 0.20689649999999915
        },
        {
          "name": "C3",
          "midi": 48,
          "time": 138.6206549999995,
          "velocity": 0.7480314960629921,
          "duration": 0.20689649999999915
        },
        {
          "name": "C4",
          "midi": 60,
          "time": 138.8275514999995,
          "velocity": 0.7480314960629921,
          "duration": 0.20689649999999915
        },
        {
          "name": "G3",
          "midi": 55,
          "time": 138.8275514999995,
          "velocity": 0.7480314960629921,
          "duration": 0.20689649999999915
        },
        {
          "name": "C3",
          "midi": 48,
          "time": 138.8275514999995,
          "velocity": 0.7480314960629921,
          "duration": 0.20689649999999915
        },
        {
          "name": "G4",
          "midi": 67,
          "time": 139.0344479999995,
          "velocity": 0.7480314960629921,
          "duration": 0.20689649999999915
        },
        {
          "name": "E4",
          "midi": 64,
          "time": 139.0344479999995,
          "velocity": 0.7480314960629921,
          "duration": 0.20689649999999915
        },
        {
          "name": "B3",
          "midi": 59,
          "time": 139.0344479999995,
          "velocity": 0.7480314960629921,
          "duration": 0.20689649999999915
        },
        {
          "name": "E3",
          "midi": 52,
          "time": 139.0344479999995,
          "velocity": 0.7480314960629921,
          "duration": 0.20689649999999915
        },
        {
          "name": "G4",
          "midi": 67,
          "time": 139.24134449999949,
          "velocity": 0.7480314960629921,
          "duration": 0.20689649999999915
        },
        {
          "name": "E4",
          "midi": 64,
          "time": 139.24134449999949,
          "velocity": 0.7480314960629921,
          "duration": 0.20689649999999915
        },
        {
          "name": "B3",
          "midi": 59,
          "time": 139.24134449999949,
          "velocity": 0.7480314960629921,
          "duration": 0.20689649999999915
        },
        {
          "name": "E3",
          "midi": 52,
          "time": 139.24134449999949,
          "velocity": 0.7480314960629921,
          "duration": 0.20689649999999915
        },
        {
          "name": "G4",
          "midi": 67,
          "time": 139.44824099999948,
          "velocity": 0.7480314960629921,
          "duration": 0.20689649999999915
        },
        {
          "name": "E4",
          "midi": 64,
          "time": 139.44824099999948,
          "velocity": 0.7480314960629921,
          "duration": 0.20689649999999915
        },
        {
          "name": "B3",
          "midi": 59,
          "time": 139.44824099999948,
          "velocity": 0.7480314960629921,
          "duration": 0.20689649999999915
        },
        {
          "name": "E3",
          "midi": 52,
          "time": 139.44824099999948,
          "velocity": 0.7480314960629921,
          "duration": 0.20689649999999915
        },
        {
          "name": "G4",
          "midi": 67,
          "time": 139.65513749999948,
          "velocity": 0.7480314960629921,
          "duration": 0.20689649999999915
        },
        {
          "name": "E4",
          "midi": 64,
          "time": 139.65513749999948,
          "velocity": 0.7480314960629921,
          "duration": 0.20689649999999915
        },
        {
          "name": "B3",
          "midi": 59,
          "time": 139.65513749999948,
          "velocity": 0.7480314960629921,
          "duration": 0.20689649999999915
        },
        {
          "name": "E3",
          "midi": 52,
          "time": 139.65513749999948,
          "velocity": 0.7480314960629921,
          "duration": 0.20689649999999915
        },
        {
          "name": "G4",
          "midi": 67,
          "time": 139.86203399999948,
          "velocity": 0.7480314960629921,
          "duration": 0.20689649999999915
        },
        {
          "name": "E4",
          "midi": 64,
          "time": 139.86203399999948,
          "velocity": 0.7480314960629921,
          "duration": 0.20689649999999915
        },
        {
          "name": "B3",
          "midi": 59,
          "time": 139.86203399999948,
          "velocity": 0.7480314960629921,
          "duration": 0.20689649999999915
        },
        {
          "name": "E3",
          "midi": 52,
          "time": 139.86203399999948,
          "velocity": 0.7480314960629921,
          "duration": 0.20689649999999915
        },
        {
          "name": "G4",
          "midi": 67,
          "time": 140.06893049999948,
          "velocity": 0.7480314960629921,
          "duration": 0.20689649999999915
        },
        {
          "name": "E4",
          "midi": 64,
          "time": 140.06893049999948,
          "velocity": 0.7480314960629921,
          "duration": 0.20689649999999915
        },
        {
          "name": "B3",
          "midi": 59,
          "time": 140.06893049999948,
          "velocity": 0.7480314960629921,
          "duration": 0.20689649999999915
        },
        {
          "name": "E3",
          "midi": 52,
          "time": 140.06893049999948,
          "velocity": 0.7480314960629921,
          "duration": 0.20689649999999915
        },
        {
          "name": "G4",
          "midi": 67,
          "time": 140.27582699999948,
          "velocity": 0.7480314960629921,
          "duration": 0.20689649999999915
        },
        {
          "name": "E4",
          "midi": 64,
          "time": 140.27582699999948,
          "velocity": 0.7480314960629921,
          "duration": 0.20689649999999915
        },
        {
          "name": "B3",
          "midi": 59,
          "time": 140.27582699999948,
          "velocity": 0.7480314960629921,
          "duration": 0.20689649999999915
        },
        {
          "name": "E3",
          "midi": 52,
          "time": 140.27582699999948,
          "velocity": 0.7480314960629921,
          "duration": 0.20689649999999915
        },
        {
          "name": "G4",
          "midi": 67,
          "time": 140.48272349999948,
          "velocity": 0.7480314960629921,
          "duration": 0.20689649999999915
        },
        {
          "name": "E4",
          "midi": 64,
          "time": 140.48272349999948,
          "velocity": 0.7480314960629921,
          "duration": 0.20689649999999915
        },
        {
          "name": "B3",
          "midi": 59,
          "time": 140.48272349999948,
          "velocity": 0.7480314960629921,
          "duration": 0.20689649999999915
        },
        {
          "name": "E3",
          "midi": 52,
          "time": 140.48272349999948,
          "velocity": 0.7480314960629921,
          "duration": 0.20689649999999915
        },
        {
          "name": "D4",
          "midi": 62,
          "time": 140.68961999999948,
          "velocity": 0.7480314960629921,
          "duration": 0.20689649999999915
        },
        {
          "name": "A3",
          "midi": 57,
          "time": 140.68961999999948,
          "velocity": 0.7480314960629921,
          "duration": 0.20689649999999915
        },
        {
          "name": "D3",
          "midi": 50,
          "time": 140.68961999999948,
          "velocity": 0.7480314960629921,
          "duration": 0.20689649999999915
        },
        {
          "name": "D4",
          "midi": 62,
          "time": 140.89651649999948,
          "velocity": 0.7480314960629921,
          "duration": 0.20689649999999915
        },
        {
          "name": "A3",
          "midi": 57,
          "time": 140.89651649999948,
          "velocity": 0.7480314960629921,
          "duration": 0.20689649999999915
        },
        {
          "name": "D3",
          "midi": 50,
          "time": 140.89651649999948,
          "velocity": 0.7480314960629921,
          "duration": 0.20689649999999915
        },
        {
          "name": "D4",
          "midi": 62,
          "time": 141.10341299999948,
          "velocity": 0.7480314960629921,
          "duration": 0.20689649999999915
        },
        {
          "name": "A3",
          "midi": 57,
          "time": 141.10341299999948,
          "velocity": 0.7480314960629921,
          "duration": 0.20689649999999915
        },
        {
          "name": "D3",
          "midi": 50,
          "time": 141.10341299999948,
          "velocity": 0.7480314960629921,
          "duration": 0.20689649999999915
        },
        {
          "name": "D4",
          "midi": 62,
          "time": 141.31030949999948,
          "velocity": 0.7480314960629921,
          "duration": 0.20689649999999915
        },
        {
          "name": "A3",
          "midi": 57,
          "time": 141.31030949999948,
          "velocity": 0.7480314960629921,
          "duration": 0.20689649999999915
        },
        {
          "name": "D3",
          "midi": 50,
          "time": 141.31030949999948,
          "velocity": 0.7480314960629921,
          "duration": 0.20689649999999915
        },
        {
          "name": "D4",
          "midi": 62,
          "time": 141.51720599999948,
          "velocity": 0.7480314960629921,
          "duration": 0.20689649999999915
        },
        {
          "name": "A3",
          "midi": 57,
          "time": 141.51720599999948,
          "velocity": 0.7480314960629921,
          "duration": 0.20689649999999915
        },
        {
          "name": "D3",
          "midi": 50,
          "time": 141.51720599999948,
          "velocity": 0.7480314960629921,
          "duration": 0.20689649999999915
        },
        {
          "name": "D4",
          "midi": 62,
          "time": 141.72410249999947,
          "velocity": 0.7480314960629921,
          "duration": 0.20689649999999915
        },
        {
          "name": "A3",
          "midi": 57,
          "time": 141.72410249999947,
          "velocity": 0.7480314960629921,
          "duration": 0.20689649999999915
        },
        {
          "name": "D3",
          "midi": 50,
          "time": 141.72410249999947,
          "velocity": 0.7480314960629921,
          "duration": 0.20689649999999915
        },
        {
          "name": "D4",
          "midi": 62,
          "time": 141.93099899999947,
          "velocity": 0.7480314960629921,
          "duration": 0.20689649999999915
        },
        {
          "name": "A3",
          "midi": 57,
          "time": 141.93099899999947,
          "velocity": 0.7480314960629921,
          "duration": 0.20689649999999915
        },
        {
          "name": "D3",
          "midi": 50,
          "time": 141.93099899999947,
          "velocity": 0.7480314960629921,
          "duration": 0.20689649999999915
        },
        {
          "name": "D4",
          "midi": 62,
          "time": 142.13789549999947,
          "velocity": 0.7480314960629921,
          "duration": 0.20689649999999915
        },
        {
          "name": "A3",
          "midi": 57,
          "time": 142.13789549999947,
          "velocity": 0.7480314960629921,
          "duration": 0.20689649999999915
        },
        {
          "name": "D3",
          "midi": 50,
          "time": 142.13789549999947,
          "velocity": 0.7480314960629921,
          "duration": 0.20689649999999915
        },
        {
          "name": "C4",
          "midi": 60,
          "time": 142.34479199999947,
          "velocity": 0.7480314960629921,
          "duration": 0.20689649999999915
        },
        {
          "name": "G3",
          "midi": 55,
          "time": 142.34479199999947,
          "velocity": 0.7480314960629921,
          "duration": 0.20689649999999915
        },
        {
          "name": "C3",
          "midi": 48,
          "time": 142.34479199999947,
          "velocity": 0.7480314960629921,
          "duration": 0.20689649999999915
        },
        {
          "name": "C4",
          "midi": 60,
          "time": 142.55168849999947,
          "velocity": 0.7480314960629921,
          "duration": 0.20689649999999915
        },
        {
          "name": "G3",
          "midi": 55,
          "time": 142.55168849999947,
          "velocity": 0.7480314960629921,
          "duration": 0.20689649999999915
        },
        {
          "name": "C3",
          "midi": 48,
          "time": 142.55168849999947,
          "velocity": 0.7480314960629921,
          "duration": 0.20689649999999915
        },
        {
          "name": "C4",
          "midi": 60,
          "time": 142.75858499999947,
          "velocity": 0.7480314960629921,
          "duration": 0.20689649999999915
        },
        {
          "name": "G3",
          "midi": 55,
          "time": 142.75858499999947,
          "velocity": 0.7480314960629921,
          "duration": 0.20689649999999915
        },
        {
          "name": "C3",
          "midi": 48,
          "time": 142.75858499999947,
          "velocity": 0.7480314960629921,
          "duration": 0.20689649999999915
        },
        {
          "name": "C4",
          "midi": 60,
          "time": 142.96548149999947,
          "velocity": 0.7480314960629921,
          "duration": 0.20689649999999915
        },
        {
          "name": "G3",
          "midi": 55,
          "time": 142.96548149999947,
          "velocity": 0.7480314960629921,
          "duration": 0.20689649999999915
        },
        {
          "name": "C3",
          "midi": 48,
          "time": 142.96548149999947,
          "velocity": 0.7480314960629921,
          "duration": 0.20689649999999915
        },
        {
          "name": "C4",
          "midi": 60,
          "time": 143.17237799999947,
          "velocity": 0.7480314960629921,
          "duration": 0.20689649999999915
        },
        {
          "name": "G3",
          "midi": 55,
          "time": 143.17237799999947,
          "velocity": 0.7480314960629921,
          "duration": 0.20689649999999915
        },
        {
          "name": "C3",
          "midi": 48,
          "time": 143.17237799999947,
          "velocity": 0.7480314960629921,
          "duration": 0.20689649999999915
        },
        {
          "name": "C4",
          "midi": 60,
          "time": 143.37927449999947,
          "velocity": 0.7480314960629921,
          "duration": 0.20689649999999915
        },
        {
          "name": "G3",
          "midi": 55,
          "time": 143.37927449999947,
          "velocity": 0.7480314960629921,
          "duration": 0.20689649999999915
        },
        {
          "name": "C3",
          "midi": 48,
          "time": 143.37927449999947,
          "velocity": 0.7480314960629921,
          "duration": 0.20689649999999915
        },
        {
          "name": "C4",
          "midi": 60,
          "time": 143.58617099999947,
          "velocity": 0.7480314960629921,
          "duration": 0.20689649999999915
        },
        {
          "name": "G3",
          "midi": 55,
          "time": 143.58617099999947,
          "velocity": 0.7480314960629921,
          "duration": 0.20689649999999915
        },
        {
          "name": "C3",
          "midi": 48,
          "time": 143.58617099999947,
          "velocity": 0.7480314960629921,
          "duration": 0.20689649999999915
        },
        {
          "name": "C4",
          "midi": 60,
          "time": 143.79306749999947,
          "velocity": 0.7480314960629921,
          "duration": 0.20689649999999915
        },
        {
          "name": "G3",
          "midi": 55,
          "time": 143.79306749999947,
          "velocity": 0.7480314960629921,
          "duration": 0.20689649999999915
        },
        {
          "name": "C3",
          "midi": 48,
          "time": 143.79306749999947,
          "velocity": 0.7480314960629921,
          "duration": 0.20689649999999915
        },
        {
          "name": "G4",
          "midi": 67,
          "time": 143.99996399999947,
          "velocity": 0.7480314960629921,
          "duration": 0.20689649999999915
        },
        {
          "name": "E4",
          "midi": 64,
          "time": 143.99996399999947,
          "velocity": 0.7480314960629921,
          "duration": 0.20689649999999915
        },
        {
          "name": "B3",
          "midi": 59,
          "time": 143.99996399999947,
          "velocity": 0.7480314960629921,
          "duration": 0.20689649999999915
        },
        {
          "name": "E3",
          "midi": 52,
          "time": 143.99996399999947,
          "velocity": 0.7480314960629921,
          "duration": 0.20689649999999915
        },
        {
          "name": "G4",
          "midi": 67,
          "time": 144.20686049999946,
          "velocity": 0.7480314960629921,
          "duration": 0.20689649999999915
        },
        {
          "name": "E4",
          "midi": 64,
          "time": 144.20686049999946,
          "velocity": 0.7480314960629921,
          "duration": 0.20689649999999915
        },
        {
          "name": "B3",
          "midi": 59,
          "time": 144.20686049999946,
          "velocity": 0.7480314960629921,
          "duration": 0.20689649999999915
        },
        {
          "name": "E3",
          "midi": 52,
          "time": 144.20686049999946,
          "velocity": 0.7480314960629921,
          "duration": 0.20689649999999915
        },
        {
          "name": "G4",
          "midi": 67,
          "time": 144.41375699999946,
          "velocity": 0.7480314960629921,
          "duration": 0.20689649999999915
        },
        {
          "name": "E4",
          "midi": 64,
          "time": 144.41375699999946,
          "velocity": 0.7480314960629921,
          "duration": 0.20689649999999915
        },
        {
          "name": "B3",
          "midi": 59,
          "time": 144.41375699999946,
          "velocity": 0.7480314960629921,
          "duration": 0.20689649999999915
        },
        {
          "name": "E3",
          "midi": 52,
          "time": 144.41375699999946,
          "velocity": 0.7480314960629921,
          "duration": 0.20689649999999915
        },
        {
          "name": "G4",
          "midi": 67,
          "time": 144.62065349999946,
          "velocity": 0.7480314960629921,
          "duration": 0.20689649999999915
        },
        {
          "name": "E4",
          "midi": 64,
          "time": 144.62065349999946,
          "velocity": 0.7480314960629921,
          "duration": 0.20689649999999915
        },
        {
          "name": "B3",
          "midi": 59,
          "time": 144.62065349999946,
          "velocity": 0.7480314960629921,
          "duration": 0.20689649999999915
        },
        {
          "name": "E3",
          "midi": 52,
          "time": 144.62065349999946,
          "velocity": 0.7480314960629921,
          "duration": 0.20689649999999915
        },
        {
          "name": "G4",
          "midi": 67,
          "time": 144.82754999999946,
          "velocity": 0.7480314960629921,
          "duration": 0.20689649999999915
        },
        {
          "name": "E4",
          "midi": 64,
          "time": 144.82754999999946,
          "velocity": 0.7480314960629921,
          "duration": 0.20689649999999915
        },
        {
          "name": "B3",
          "midi": 59,
          "time": 144.82754999999946,
          "velocity": 0.7480314960629921,
          "duration": 0.20689649999999915
        },
        {
          "name": "E3",
          "midi": 52,
          "time": 144.82754999999946,
          "velocity": 0.7480314960629921,
          "duration": 0.20689649999999915
        },
        {
          "name": "G4",
          "midi": 67,
          "time": 145.03444649999946,
          "velocity": 0.7480314960629921,
          "duration": 0.20689649999999915
        },
        {
          "name": "E4",
          "midi": 64,
          "time": 145.03444649999946,
          "velocity": 0.7480314960629921,
          "duration": 0.20689649999999915
        },
        {
          "name": "B3",
          "midi": 59,
          "time": 145.03444649999946,
          "velocity": 0.7480314960629921,
          "duration": 0.20689649999999915
        },
        {
          "name": "E3",
          "midi": 52,
          "time": 145.03444649999946,
          "velocity": 0.7480314960629921,
          "duration": 0.20689649999999915
        },
        {
          "name": "G4",
          "midi": 67,
          "time": 145.24134299999946,
          "velocity": 0.7480314960629921,
          "duration": 0.20689649999999915
        },
        {
          "name": "E4",
          "midi": 64,
          "time": 145.24134299999946,
          "velocity": 0.7480314960629921,
          "duration": 0.20689649999999915
        },
        {
          "name": "B3",
          "midi": 59,
          "time": 145.24134299999946,
          "velocity": 0.7480314960629921,
          "duration": 0.20689649999999915
        },
        {
          "name": "E3",
          "midi": 52,
          "time": 145.24134299999946,
          "velocity": 0.7480314960629921,
          "duration": 0.20689649999999915
        },
        {
          "name": "G4",
          "midi": 67,
          "time": 145.44823949999946,
          "velocity": 0.7480314960629921,
          "duration": 0.20689649999999915
        },
        {
          "name": "E4",
          "midi": 64,
          "time": 145.44823949999946,
          "velocity": 0.7480314960629921,
          "duration": 0.20689649999999915
        },
        {
          "name": "B3",
          "midi": 59,
          "time": 145.44823949999946,
          "velocity": 0.7480314960629921,
          "duration": 0.20689649999999915
        },
        {
          "name": "E3",
          "midi": 52,
          "time": 145.44823949999946,
          "velocity": 0.7480314960629921,
          "duration": 0.20689649999999915
        },
        {
          "name": "D4",
          "midi": 62,
          "time": 145.65513599999946,
          "velocity": 0.7480314960629921,
          "duration": 0.20689649999999915
        },
        {
          "name": "A3",
          "midi": 57,
          "time": 145.65513599999946,
          "velocity": 0.7480314960629921,
          "duration": 0.20689649999999915
        },
        {
          "name": "D3",
          "midi": 50,
          "time": 145.65513599999946,
          "velocity": 0.7480314960629921,
          "duration": 0.20689649999999915
        },
        {
          "name": "D4",
          "midi": 62,
          "time": 145.86203249999946,
          "velocity": 0.7480314960629921,
          "duration": 0.20689649999999915
        },
        {
          "name": "A3",
          "midi": 57,
          "time": 145.86203249999946,
          "velocity": 0.7480314960629921,
          "duration": 0.20689649999999915
        },
        {
          "name": "D3",
          "midi": 50,
          "time": 145.86203249999946,
          "velocity": 0.7480314960629921,
          "duration": 0.20689649999999915
        },
        {
          "name": "D4",
          "midi": 62,
          "time": 146.06892899999946,
          "velocity": 0.7480314960629921,
          "duration": 0.20689649999999915
        },
        {
          "name": "A3",
          "midi": 57,
          "time": 146.06892899999946,
          "velocity": 0.7480314960629921,
          "duration": 0.20689649999999915
        },
        {
          "name": "D3",
          "midi": 50,
          "time": 146.06892899999946,
          "velocity": 0.7480314960629921,
          "duration": 0.20689649999999915
        },
        {
          "name": "D4",
          "midi": 62,
          "time": 146.27582549999946,
          "velocity": 0.7480314960629921,
          "duration": 0.20689649999999915
        },
        {
          "name": "A3",
          "midi": 57,
          "time": 146.27582549999946,
          "velocity": 0.7480314960629921,
          "duration": 0.20689649999999915
        },
        {
          "name": "D3",
          "midi": 50,
          "time": 146.27582549999946,
          "velocity": 0.7480314960629921,
          "duration": 0.20689649999999915
        },
        {
          "name": "D4",
          "midi": 62,
          "time": 146.48272199999946,
          "velocity": 0.7480314960629921,
          "duration": 0.20689649999999915
        },
        {
          "name": "A3",
          "midi": 57,
          "time": 146.48272199999946,
          "velocity": 0.7480314960629921,
          "duration": 0.20689649999999915
        },
        {
          "name": "D3",
          "midi": 50,
          "time": 146.48272199999946,
          "velocity": 0.7480314960629921,
          "duration": 0.20689649999999915
        },
        {
          "name": "D4",
          "midi": 62,
          "time": 146.68961849999945,
          "velocity": 0.7480314960629921,
          "duration": 0.20689649999999915
        },
        {
          "name": "A3",
          "midi": 57,
          "time": 146.68961849999945,
          "velocity": 0.7480314960629921,
          "duration": 0.20689649999999915
        },
        {
          "name": "D3",
          "midi": 50,
          "time": 146.68961849999945,
          "velocity": 0.7480314960629921,
          "duration": 0.20689649999999915
        },
        {
          "name": "D4",
          "midi": 62,
          "time": 146.89651499999945,
          "velocity": 0.7480314960629921,
          "duration": 0.20689649999999915
        },
        {
          "name": "A3",
          "midi": 57,
          "time": 146.89651499999945,
          "velocity": 0.7480314960629921,
          "duration": 0.20689649999999915
        },
        {
          "name": "D3",
          "midi": 50,
          "time": 146.89651499999945,
          "velocity": 0.7480314960629921,
          "duration": 0.20689649999999915
        },
        {
          "name": "D4",
          "midi": 62,
          "time": 147.10341149999945,
          "velocity": 0.7480314960629921,
          "duration": 0.20689649999999915
        },
        {
          "name": "A3",
          "midi": 57,
          "time": 147.10341149999945,
          "velocity": 0.7480314960629921,
          "duration": 0.20689649999999915
        },
        {
          "name": "D3",
          "midi": 50,
          "time": 147.10341149999945,
          "velocity": 0.7480314960629921,
          "duration": 0.20689649999999915
        },
        {
          "name": "C4",
          "midi": 60,
          "time": 147.31030799999945,
          "velocity": 0.7480314960629921,
          "duration": 0.20689649999999915
        },
        {
          "name": "G3",
          "midi": 55,
          "time": 147.31030799999945,
          "velocity": 0.7480314960629921,
          "duration": 0.20689649999999915
        },
        {
          "name": "C3",
          "midi": 48,
          "time": 147.31030799999945,
          "velocity": 0.7480314960629921,
          "duration": 0.20689649999999915
        },
        {
          "name": "C4",
          "midi": 60,
          "time": 147.51720449999945,
          "velocity": 0.7480314960629921,
          "duration": 0.20689649999999915
        },
        {
          "name": "G3",
          "midi": 55,
          "time": 147.51720449999945,
          "velocity": 0.7480314960629921,
          "duration": 0.20689649999999915
        },
        {
          "name": "C3",
          "midi": 48,
          "time": 147.51720449999945,
          "velocity": 0.7480314960629921,
          "duration": 0.20689649999999915
        },
        {
          "name": "C4",
          "midi": 60,
          "time": 147.72410099999945,
          "velocity": 0.7480314960629921,
          "duration": 0.20689649999999915
        },
        {
          "name": "G3",
          "midi": 55,
          "time": 147.72410099999945,
          "velocity": 0.7480314960629921,
          "duration": 0.20689649999999915
        },
        {
          "name": "C3",
          "midi": 48,
          "time": 147.72410099999945,
          "velocity": 0.7480314960629921,
          "duration": 0.20689649999999915
        },
        {
          "name": "C4",
          "midi": 60,
          "time": 147.93099749999945,
          "velocity": 0.7480314960629921,
          "duration": 0.20689649999999915
        },
        {
          "name": "G3",
          "midi": 55,
          "time": 147.93099749999945,
          "velocity": 0.7480314960629921,
          "duration": 0.20689649999999915
        },
        {
          "name": "C3",
          "midi": 48,
          "time": 147.93099749999945,
          "velocity": 0.7480314960629921,
          "duration": 0.20689649999999915
        },
        {
          "name": "C4",
          "midi": 60,
          "time": 148.13789399999945,
          "velocity": 0.7480314960629921,
          "duration": 0.20689649999999915
        },
        {
          "name": "G3",
          "midi": 55,
          "time": 148.13789399999945,
          "velocity": 0.7480314960629921,
          "duration": 0.20689649999999915
        },
        {
          "name": "C3",
          "midi": 48,
          "time": 148.13789399999945,
          "velocity": 0.7480314960629921,
          "duration": 0.20689649999999915
        },
        {
          "name": "C4",
          "midi": 60,
          "time": 148.34479049999945,
          "velocity": 0.7480314960629921,
          "duration": 0.20689649999999915
        },
        {
          "name": "G3",
          "midi": 55,
          "time": 148.34479049999945,
          "velocity": 0.7480314960629921,
          "duration": 0.20689649999999915
        },
        {
          "name": "C3",
          "midi": 48,
          "time": 148.34479049999945,
          "velocity": 0.7480314960629921,
          "duration": 0.20689649999999915
        },
        {
          "name": "C4",
          "midi": 60,
          "time": 148.55168699999945,
          "velocity": 0.7480314960629921,
          "duration": 0.20689649999999915
        },
        {
          "name": "G3",
          "midi": 55,
          "time": 148.55168699999945,
          "velocity": 0.7480314960629921,
          "duration": 0.20689649999999915
        },
        {
          "name": "C3",
          "midi": 48,
          "time": 148.55168699999945,
          "velocity": 0.7480314960629921,
          "duration": 0.20689649999999915
        },
        {
          "name": "C4",
          "midi": 60,
          "time": 148.75858349999945,
          "velocity": 0.7480314960629921,
          "duration": 0.20689649999999915
        },
        {
          "name": "G3",
          "midi": 55,
          "time": 148.75858349999945,
          "velocity": 0.7480314960629921,
          "duration": 0.20689649999999915
        },
        {
          "name": "C3",
          "midi": 48,
          "time": 148.75858349999945,
          "velocity": 0.7480314960629921,
          "duration": 0.20689649999999915
        },
        {
          "name": "G4",
          "midi": 67,
          "time": 148.96547999999945,
          "velocity": 0.7480314960629921,
          "duration": 0.20689649999999915
        },
        {
          "name": "E4",
          "midi": 64,
          "time": 148.96547999999945,
          "velocity": 0.7480314960629921,
          "duration": 0.20689649999999915
        },
        {
          "name": "B3",
          "midi": 59,
          "time": 148.96547999999945,
          "velocity": 0.7480314960629921,
          "duration": 0.20689649999999915
        },
        {
          "name": "E3",
          "midi": 52,
          "time": 148.96547999999945,
          "velocity": 0.7480314960629921,
          "duration": 0.20689649999999915
        },
        {
          "name": "G4",
          "midi": 67,
          "time": 149.17237649999944,
          "velocity": 0.7480314960629921,
          "duration": 0.20689649999999915
        },
        {
          "name": "E4",
          "midi": 64,
          "time": 149.17237649999944,
          "velocity": 0.7480314960629921,
          "duration": 0.20689649999999915
        },
        {
          "name": "B3",
          "midi": 59,
          "time": 149.17237649999944,
          "velocity": 0.7480314960629921,
          "duration": 0.20689649999999915
        },
        {
          "name": "E3",
          "midi": 52,
          "time": 149.17237649999944,
          "velocity": 0.7480314960629921,
          "duration": 0.20689649999999915
        },
        {
          "name": "G4",
          "midi": 67,
          "time": 149.37927299999944,
          "velocity": 0.7480314960629921,
          "duration": 0.20689649999999915
        },
        {
          "name": "E4",
          "midi": 64,
          "time": 149.37927299999944,
          "velocity": 0.7480314960629921,
          "duration": 0.20689649999999915
        },
        {
          "name": "B3",
          "midi": 59,
          "time": 149.37927299999944,
          "velocity": 0.7480314960629921,
          "duration": 0.20689649999999915
        },
        {
          "name": "E3",
          "midi": 52,
          "time": 149.37927299999944,
          "velocity": 0.7480314960629921,
          "duration": 0.20689649999999915
        },
        {
          "name": "G4",
          "midi": 67,
          "time": 149.58616949999944,
          "velocity": 0.7480314960629921,
          "duration": 0.20689649999999915
        },
        {
          "name": "E4",
          "midi": 64,
          "time": 149.58616949999944,
          "velocity": 0.7480314960629921,
          "duration": 0.20689649999999915
        },
        {
          "name": "B3",
          "midi": 59,
          "time": 149.58616949999944,
          "velocity": 0.7480314960629921,
          "duration": 0.20689649999999915
        },
        {
          "name": "E3",
          "midi": 52,
          "time": 149.58616949999944,
          "velocity": 0.7480314960629921,
          "duration": 0.20689649999999915
        },
        {
          "name": "G4",
          "midi": 67,
          "time": 149.79306599999944,
          "velocity": 0.7480314960629921,
          "duration": 0.20689649999999915
        },
        {
          "name": "E4",
          "midi": 64,
          "time": 149.79306599999944,
          "velocity": 0.7480314960629921,
          "duration": 0.20689649999999915
        },
        {
          "name": "B3",
          "midi": 59,
          "time": 149.79306599999944,
          "velocity": 0.7480314960629921,
          "duration": 0.20689649999999915
        },
        {
          "name": "E3",
          "midi": 52,
          "time": 149.79306599999944,
          "velocity": 0.7480314960629921,
          "duration": 0.20689649999999915
        },
        {
          "name": "G4",
          "midi": 67,
          "time": 149.99996249999944,
          "velocity": 0.7480314960629921,
          "duration": 0.20689649999999915
        },
        {
          "name": "E4",
          "midi": 64,
          "time": 149.99996249999944,
          "velocity": 0.7480314960629921,
          "duration": 0.20689649999999915
        },
        {
          "name": "B3",
          "midi": 59,
          "time": 149.99996249999944,
          "velocity": 0.7480314960629921,
          "duration": 0.20689649999999915
        },
        {
          "name": "E3",
          "midi": 52,
          "time": 149.99996249999944,
          "velocity": 0.7480314960629921,
          "duration": 0.20689649999999915
        },
        {
          "name": "G4",
          "midi": 67,
          "time": 150.20685899999944,
          "velocity": 0.7480314960629921,
          "duration": 0.20689649999999915
        },
        {
          "name": "E4",
          "midi": 64,
          "time": 150.20685899999944,
          "velocity": 0.7480314960629921,
          "duration": 0.20689649999999915
        },
        {
          "name": "B3",
          "midi": 59,
          "time": 150.20685899999944,
          "velocity": 0.7480314960629921,
          "duration": 0.20689649999999915
        },
        {
          "name": "E3",
          "midi": 52,
          "time": 150.20685899999944,
          "velocity": 0.7480314960629921,
          "duration": 0.20689649999999915
        },
        {
          "name": "G4",
          "midi": 67,
          "time": 150.41375549999944,
          "velocity": 0.7480314960629921,
          "duration": 0.20689649999999915
        },
        {
          "name": "E4",
          "midi": 64,
          "time": 150.41375549999944,
          "velocity": 0.7480314960629921,
          "duration": 0.20689649999999915
        },
        {
          "name": "B3",
          "midi": 59,
          "time": 150.41375549999944,
          "velocity": 0.7480314960629921,
          "duration": 0.20689649999999915
        },
        {
          "name": "E3",
          "midi": 52,
          "time": 150.41375549999944,
          "velocity": 0.7480314960629921,
          "duration": 0.20689649999999915
        },
        {
          "name": "D4",
          "midi": 62,
          "time": 150.62065199999944,
          "velocity": 0.7480314960629921,
          "duration": 0.20689649999999915
        },
        {
          "name": "A3",
          "midi": 57,
          "time": 150.62065199999944,
          "velocity": 0.7480314960629921,
          "duration": 0.20689649999999915
        },
        {
          "name": "D3",
          "midi": 50,
          "time": 150.62065199999944,
          "velocity": 0.7480314960629921,
          "duration": 0.20689649999999915
        },
        {
          "name": "D4",
          "midi": 62,
          "time": 150.82754849999944,
          "velocity": 0.7480314960629921,
          "duration": 0.20689649999999915
        },
        {
          "name": "A3",
          "midi": 57,
          "time": 150.82754849999944,
          "velocity": 0.7480314960629921,
          "duration": 0.20689649999999915
        },
        {
          "name": "D3",
          "midi": 50,
          "time": 150.82754849999944,
          "velocity": 0.7480314960629921,
          "duration": 0.20689649999999915
        },
        {
          "name": "D4",
          "midi": 62,
          "time": 151.03444499999944,
          "velocity": 0.7480314960629921,
          "duration": 0.20689649999999915
        },
        {
          "name": "A3",
          "midi": 57,
          "time": 151.03444499999944,
          "velocity": 0.7480314960629921,
          "duration": 0.20689649999999915
        },
        {
          "name": "D3",
          "midi": 50,
          "time": 151.03444499999944,
          "velocity": 0.7480314960629921,
          "duration": 0.20689649999999915
        },
        {
          "name": "D4",
          "midi": 62,
          "time": 151.24134149999944,
          "velocity": 0.7480314960629921,
          "duration": 0.20689649999999915
        },
        {
          "name": "A3",
          "midi": 57,
          "time": 151.24134149999944,
          "velocity": 0.7480314960629921,
          "duration": 0.20689649999999915
        },
        {
          "name": "D3",
          "midi": 50,
          "time": 151.24134149999944,
          "velocity": 0.7480314960629921,
          "duration": 0.20689649999999915
        },
        {
          "name": "D4",
          "midi": 62,
          "time": 151.44823799999944,
          "velocity": 0.7480314960629921,
          "duration": 0.20689649999999915
        },
        {
          "name": "A3",
          "midi": 57,
          "time": 151.44823799999944,
          "velocity": 0.7480314960629921,
          "duration": 0.20689649999999915
        },
        {
          "name": "D3",
          "midi": 50,
          "time": 151.44823799999944,
          "velocity": 0.7480314960629921,
          "duration": 0.20689649999999915
        },
        {
          "name": "D4",
          "midi": 62,
          "time": 151.65513449999943,
          "velocity": 0.7480314960629921,
          "duration": 0.20689649999999915
        },
        {
          "name": "A3",
          "midi": 57,
          "time": 151.65513449999943,
          "velocity": 0.7480314960629921,
          "duration": 0.20689649999999915
        },
        {
          "name": "D3",
          "midi": 50,
          "time": 151.65513449999943,
          "velocity": 0.7480314960629921,
          "duration": 0.20689649999999915
        },
        {
          "name": "D4",
          "midi": 62,
          "time": 151.86203099999943,
          "velocity": 0.7480314960629921,
          "duration": 0.20689649999999915
        },
        {
          "name": "A3",
          "midi": 57,
          "time": 151.86203099999943,
          "velocity": 0.7480314960629921,
          "duration": 0.20689649999999915
        },
        {
          "name": "D3",
          "midi": 50,
          "time": 151.86203099999943,
          "velocity": 0.7480314960629921,
          "duration": 0.20689649999999915
        },
        {
          "name": "D4",
          "midi": 62,
          "time": 152.06892749999943,
          "velocity": 0.7480314960629921,
          "duration": 0.20689649999999915
        },
        {
          "name": "A3",
          "midi": 57,
          "time": 152.06892749999943,
          "velocity": 0.7480314960629921,
          "duration": 0.20689649999999915
        },
        {
          "name": "D3",
          "midi": 50,
          "time": 152.06892749999943,
          "velocity": 0.7480314960629921,
          "duration": 0.20689649999999915
        },
        {
          "name": "D4",
          "midi": 62,
          "time": 152.27582399999943,
          "velocity": 0.7480314960629921,
          "duration": 0.20689649999999915
        },
        {
          "name": "A3",
          "midi": 57,
          "time": 152.27582399999943,
          "velocity": 0.7480314960629921,
          "duration": 0.20689649999999915
        },
        {
          "name": "D3",
          "midi": 50,
          "time": 152.27582399999943,
          "velocity": 0.7480314960629921,
          "duration": 0.20689649999999915
        },
        {
          "name": "D4",
          "midi": 62,
          "time": 152.48272049999943,
          "velocity": 0.7480314960629921,
          "duration": 0.20689649999999915
        },
        {
          "name": "A3",
          "midi": 57,
          "time": 152.48272049999943,
          "velocity": 0.7480314960629921,
          "duration": 0.20689649999999915
        },
        {
          "name": "D3",
          "midi": 50,
          "time": 152.48272049999943,
          "velocity": 0.7480314960629921,
          "duration": 0.20689649999999915
        },
        {
          "name": "D4",
          "midi": 62,
          "time": 152.68961699999943,
          "velocity": 0.7480314960629921,
          "duration": 0.20689649999999915
        },
        {
          "name": "A3",
          "midi": 57,
          "time": 152.68961699999943,
          "velocity": 0.7480314960629921,
          "duration": 0.20689649999999915
        },
        {
          "name": "D3",
          "midi": 50,
          "time": 152.68961699999943,
          "velocity": 0.7480314960629921,
          "duration": 0.20689649999999915
        },
        {
          "name": "D4",
          "midi": 62,
          "time": 152.89651349999943,
          "velocity": 0.7480314960629921,
          "duration": 0.20689649999999915
        },
        {
          "name": "A3",
          "midi": 57,
          "time": 152.89651349999943,
          "velocity": 0.7480314960629921,
          "duration": 0.20689649999999915
        },
        {
          "name": "D3",
          "midi": 50,
          "time": 152.89651349999943,
          "velocity": 0.7480314960629921,
          "duration": 0.20689649999999915
        },
        {
          "name": "D4",
          "midi": 62,
          "time": 153.10340999999943,
          "velocity": 0.7480314960629921,
          "duration": 0.20689649999999915
        },
        {
          "name": "A3",
          "midi": 57,
          "time": 153.10340999999943,
          "velocity": 0.7480314960629921,
          "duration": 0.20689649999999915
        },
        {
          "name": "D3",
          "midi": 50,
          "time": 153.10340999999943,
          "velocity": 0.7480314960629921,
          "duration": 0.20689649999999915
        },
        {
          "name": "D4",
          "midi": 62,
          "time": 153.31030649999943,
          "velocity": 0.7480314960629921,
          "duration": 0.20689649999999915
        },
        {
          "name": "A3",
          "midi": 57,
          "time": 153.31030649999943,
          "velocity": 0.7480314960629921,
          "duration": 0.20689649999999915
        },
        {
          "name": "D3",
          "midi": 50,
          "time": 153.31030649999943,
          "velocity": 0.7480314960629921,
          "duration": 0.20689649999999915
        },
        {
          "name": "D4",
          "midi": 62,
          "time": 153.51720299999943,
          "velocity": 0.7480314960629921,
          "duration": 0.20689649999999915
        },
        {
          "name": "A3",
          "midi": 57,
          "time": 153.51720299999943,
          "velocity": 0.7480314960629921,
          "duration": 0.20689649999999915
        },
        {
          "name": "D3",
          "midi": 50,
          "time": 153.51720299999943,
          "velocity": 0.7480314960629921,
          "duration": 0.20689649999999915
        },
        {
          "name": "D4",
          "midi": 62,
          "time": 153.72409949999943,
          "velocity": 0.7480314960629921,
          "duration": 0.20689649999999915
        },
        {
          "name": "A3",
          "midi": 57,
          "time": 153.72409949999943,
          "velocity": 0.7480314960629921,
          "duration": 0.20689649999999915
        },
        {
          "name": "D3",
          "midi": 50,
          "time": 153.72409949999943,
          "velocity": 0.7480314960629921,
          "duration": 0.20689649999999915
        },
        {
          "name": "D4",
          "midi": 62,
          "time": 153.93099599999942,
          "velocity": 0.7480314960629921,
          "duration": 0.20689649999999915
        },
        {
          "name": "A3",
          "midi": 57,
          "time": 153.93099599999942,
          "velocity": 0.7480314960629921,
          "duration": 0.20689649999999915
        },
        {
          "name": "D3",
          "midi": 50,
          "time": 153.93099599999942,
          "velocity": 0.7480314960629921,
          "duration": 0.20689649999999915
        },
        {
          "name": "D4",
          "midi": 62,
          "time": 154.13789249999942,
          "velocity": 0.7480314960629921,
          "duration": 0.20689649999999915
        },
        {
          "name": "A3",
          "midi": 57,
          "time": 154.13789249999942,
          "velocity": 0.7480314960629921,
          "duration": 0.20689649999999915
        },
        {
          "name": "D3",
          "midi": 50,
          "time": 154.13789249999942,
          "velocity": 0.7480314960629921,
          "duration": 0.20689649999999915
        },
        {
          "name": "D4",
          "midi": 62,
          "time": 154.34478899999942,
          "velocity": 0.7480314960629921,
          "duration": 0.20689649999999915
        },
        {
          "name": "A3",
          "midi": 57,
          "time": 154.34478899999942,
          "velocity": 0.7480314960629921,
          "duration": 0.20689649999999915
        },
        {
          "name": "D3",
          "midi": 50,
          "time": 154.34478899999942,
          "velocity": 0.7480314960629921,
          "duration": 0.20689649999999915
        },
        {
          "name": "D4",
          "midi": 62,
          "time": 154.55168549999942,
          "velocity": 0.7480314960629921,
          "duration": 0.20689649999999915
        },
        {
          "name": "A3",
          "midi": 57,
          "time": 154.55168549999942,
          "velocity": 0.7480314960629921,
          "duration": 0.20689649999999915
        },
        {
          "name": "D3",
          "midi": 50,
          "time": 154.55168549999942,
          "velocity": 0.7480314960629921,
          "duration": 0.20689649999999915
        },
        {
          "name": "D4",
          "midi": 62,
          "time": 154.75858199999942,
          "velocity": 0.7480314960629921,
          "duration": 0.20689649999999915
        },
        {
          "name": "A3",
          "midi": 57,
          "time": 154.75858199999942,
          "velocity": 0.7480314960629921,
          "duration": 0.20689649999999915
        },
        {
          "name": "D3",
          "midi": 50,
          "time": 154.75858199999942,
          "velocity": 0.7480314960629921,
          "duration": 0.20689649999999915
        },
        {
          "name": "D4",
          "midi": 62,
          "time": 154.96547849999942,
          "velocity": 0.7480314960629921,
          "duration": 0.20689649999999915
        },
        {
          "name": "A3",
          "midi": 57,
          "time": 154.96547849999942,
          "velocity": 0.7480314960629921,
          "duration": 0.20689649999999915
        },
        {
          "name": "D3",
          "midi": 50,
          "time": 154.96547849999942,
          "velocity": 0.7480314960629921,
          "duration": 0.20689649999999915
        },
        {
          "name": "C4",
          "midi": 60,
          "time": 155.17237499999942,
          "velocity": 0.7480314960629921,
          "duration": 0.20689649999999915
        },
        {
          "name": "G3",
          "midi": 55,
          "time": 155.17237499999942,
          "velocity": 0.7480314960629921,
          "duration": 0.20689649999999915
        },
        {
          "name": "C3",
          "midi": 48,
          "time": 155.17237499999942,
          "velocity": 0.7480314960629921,
          "duration": 0.20689649999999915
        },
        {
          "name": "C4",
          "midi": 60,
          "time": 155.37927149999942,
          "velocity": 0.7480314960629921,
          "duration": 0.20689649999999915
        },
        {
          "name": "G3",
          "midi": 55,
          "time": 155.37927149999942,
          "velocity": 0.7480314960629921,
          "duration": 0.20689649999999915
        },
        {
          "name": "C3",
          "midi": 48,
          "time": 155.37927149999942,
          "velocity": 0.7480314960629921,
          "duration": 0.20689649999999915
        },
        {
          "name": "C4",
          "midi": 60,
          "time": 155.58616799999942,
          "velocity": 0.7480314960629921,
          "duration": 0.20689649999999915
        },
        {
          "name": "G3",
          "midi": 55,
          "time": 155.58616799999942,
          "velocity": 0.7480314960629921,
          "duration": 0.20689649999999915
        },
        {
          "name": "C3",
          "midi": 48,
          "time": 155.58616799999942,
          "velocity": 0.7480314960629921,
          "duration": 0.20689649999999915
        },
        {
          "name": "C4",
          "midi": 60,
          "time": 155.79306449999942,
          "velocity": 0.7480314960629921,
          "duration": 0.20689649999999915
        },
        {
          "name": "G3",
          "midi": 55,
          "time": 155.79306449999942,
          "velocity": 0.7480314960629921,
          "duration": 0.20689649999999915
        },
        {
          "name": "C3",
          "midi": 48,
          "time": 155.79306449999942,
          "velocity": 0.7480314960629921,
          "duration": 0.20689649999999915
        },
        {
          "name": "C4",
          "midi": 60,
          "time": 155.99996099999942,
          "velocity": 0.7480314960629921,
          "duration": 0.20689649999999915
        },
        {
          "name": "G3",
          "midi": 55,
          "time": 155.99996099999942,
          "velocity": 0.7480314960629921,
          "duration": 0.20689649999999915
        },
        {
          "name": "C3",
          "midi": 48,
          "time": 155.99996099999942,
          "velocity": 0.7480314960629921,
          "duration": 0.20689649999999915
        },
        {
          "name": "C4",
          "midi": 60,
          "time": 156.20685749999942,
          "velocity": 0.7480314960629921,
          "duration": 0.20689649999999915
        },
        {
          "name": "G3",
          "midi": 55,
          "time": 156.20685749999942,
          "velocity": 0.7480314960629921,
          "duration": 0.20689649999999915
        },
        {
          "name": "C3",
          "midi": 48,
          "time": 156.20685749999942,
          "velocity": 0.7480314960629921,
          "duration": 0.20689649999999915
        },
        {
          "name": "C4",
          "midi": 60,
          "time": 156.41375399999941,
          "velocity": 0.7480314960629921,
          "duration": 0.20689649999999915
        },
        {
          "name": "G3",
          "midi": 55,
          "time": 156.41375399999941,
          "velocity": 0.7480314960629921,
          "duration": 0.20689649999999915
        },
        {
          "name": "C3",
          "midi": 48,
          "time": 156.41375399999941,
          "velocity": 0.7480314960629921,
          "duration": 0.20689649999999915
        },
        {
          "name": "C4",
          "midi": 60,
          "time": 156.6206504999994,
          "velocity": 0.7480314960629921,
          "duration": 0.20689649999999915
        },
        {
          "name": "G3",
          "midi": 55,
          "time": 156.6206504999994,
          "velocity": 0.7480314960629921,
          "duration": 0.20689649999999915
        },
        {
          "name": "C3",
          "midi": 48,
          "time": 156.6206504999994,
          "velocity": 0.7480314960629921,
          "duration": 0.20689649999999915
        },
        {
          "name": "C4",
          "midi": 60,
          "time": 156.8275469999994,
          "velocity": 0.7480314960629921,
          "duration": 0.20689649999999915
        },
        {
          "name": "G3",
          "midi": 55,
          "time": 156.8275469999994,
          "velocity": 0.7480314960629921,
          "duration": 0.20689649999999915
        },
        {
          "name": "C3",
          "midi": 48,
          "time": 156.8275469999994,
          "velocity": 0.7480314960629921,
          "duration": 0.20689649999999915
        },
        {
          "name": "C4",
          "midi": 60,
          "time": 157.0344434999994,
          "velocity": 0.7480314960629921,
          "duration": 0.20689649999999915
        },
        {
          "name": "G3",
          "midi": 55,
          "time": 157.0344434999994,
          "velocity": 0.7480314960629921,
          "duration": 0.20689649999999915
        },
        {
          "name": "C3",
          "midi": 48,
          "time": 157.0344434999994,
          "velocity": 0.7480314960629921,
          "duration": 0.20689649999999915
        },
        {
          "name": "C4",
          "midi": 60,
          "time": 157.2413399999994,
          "velocity": 0.7480314960629921,
          "duration": 0.20689649999999915
        },
        {
          "name": "G3",
          "midi": 55,
          "time": 157.2413399999994,
          "velocity": 0.7480314960629921,
          "duration": 0.20689649999999915
        },
        {
          "name": "C3",
          "midi": 48,
          "time": 157.2413399999994,
          "velocity": 0.7480314960629921,
          "duration": 0.20689649999999915
        },
        {
          "name": "C4",
          "midi": 60,
          "time": 157.4482364999994,
          "velocity": 0.7480314960629921,
          "duration": 0.20689649999999915
        },
        {
          "name": "G3",
          "midi": 55,
          "time": 157.4482364999994,
          "velocity": 0.7480314960629921,
          "duration": 0.20689649999999915
        },
        {
          "name": "C3",
          "midi": 48,
          "time": 157.4482364999994,
          "velocity": 0.7480314960629921,
          "duration": 0.20689649999999915
        },
        {
          "name": "C4",
          "midi": 60,
          "time": 157.6551329999994,
          "velocity": 0.7480314960629921,
          "duration": 0.20689649999999915
        },
        {
          "name": "G3",
          "midi": 55,
          "time": 157.6551329999994,
          "velocity": 0.7480314960629921,
          "duration": 0.20689649999999915
        },
        {
          "name": "C3",
          "midi": 48,
          "time": 157.6551329999994,
          "velocity": 0.7480314960629921,
          "duration": 0.20689649999999915
        },
        {
          "name": "C4",
          "midi": 60,
          "time": 157.8620294999994,
          "velocity": 0.7480314960629921,
          "duration": 0.20689649999999915
        },
        {
          "name": "G3",
          "midi": 55,
          "time": 157.8620294999994,
          "velocity": 0.7480314960629921,
          "duration": 0.20689649999999915
        },
        {
          "name": "C3",
          "midi": 48,
          "time": 157.8620294999994,
          "velocity": 0.7480314960629921,
          "duration": 0.20689649999999915
        },
        {
          "name": "B3",
          "midi": 59,
          "time": 158.0689259999994,
          "velocity": 0.7480314960629921,
          "duration": 0.20689649999999915
        },
        {
          "name": "F#3",
          "midi": 54,
          "time": 158.0689259999994,
          "velocity": 0.7480314960629921,
          "duration": 0.20689649999999915
        },
        {
          "name": "B2",
          "midi": 47,
          "time": 158.0689259999994,
          "velocity": 0.7480314960629921,
          "duration": 0.20689649999999915
        },
        {
          "name": "B3",
          "midi": 59,
          "time": 158.2758224999994,
          "velocity": 0.7480314960629921,
          "duration": 0.20689649999999915
        },
        {
          "name": "F#3",
          "midi": 54,
          "time": 158.2758224999994,
          "velocity": 0.7480314960629921,
          "duration": 0.20689649999999915
        },
        {
          "name": "B2",
          "midi": 47,
          "time": 158.2758224999994,
          "velocity": 0.7480314960629921,
          "duration": 0.20689649999999915
        },
        {
          "name": "B3",
          "midi": 59,
          "time": 158.4827189999994,
          "velocity": 0.7480314960629921,
          "duration": 0.20689649999999915
        },
        {
          "name": "F#3",
          "midi": 54,
          "time": 158.4827189999994,
          "velocity": 0.7480314960629921,
          "duration": 0.20689649999999915
        },
        {
          "name": "B2",
          "midi": 47,
          "time": 158.4827189999994,
          "velocity": 0.7480314960629921,
          "duration": 0.20689649999999915
        },
        {
          "name": "B3",
          "midi": 59,
          "time": 158.6896154999994,
          "velocity": 0.7480314960629921,
          "duration": 0.20689649999999915
        },
        {
          "name": "F#3",
          "midi": 54,
          "time": 158.6896154999994,
          "velocity": 0.7480314960629921,
          "duration": 0.20689649999999915
        },
        {
          "name": "B2",
          "midi": 47,
          "time": 158.6896154999994,
          "velocity": 0.7480314960629921,
          "duration": 0.20689649999999915
        },
        {
          "name": "B3",
          "midi": 59,
          "time": 158.8965119999994,
          "velocity": 0.7480314960629921,
          "duration": 0.20689649999999915
        },
        {
          "name": "F#3",
          "midi": 54,
          "time": 158.8965119999994,
          "velocity": 0.7480314960629921,
          "duration": 0.20689649999999915
        },
        {
          "name": "B2",
          "midi": 47,
          "time": 158.8965119999994,
          "velocity": 0.7480314960629921,
          "duration": 0.20689649999999915
        },
        {
          "name": "B3",
          "midi": 59,
          "time": 159.1034084999994,
          "velocity": 0.7480314960629921,
          "duration": 0.20689649999999915
        },
        {
          "name": "F#3",
          "midi": 54,
          "time": 159.1034084999994,
          "velocity": 0.7480314960629921,
          "duration": 0.20689649999999915
        },
        {
          "name": "B2",
          "midi": 47,
          "time": 159.1034084999994,
          "velocity": 0.7480314960629921,
          "duration": 0.20689649999999915
        },
        {
          "name": "B3",
          "midi": 59,
          "time": 159.3103049999994,
          "velocity": 0.7480314960629921,
          "duration": 0.20689649999999915
        },
        {
          "name": "F#3",
          "midi": 54,
          "time": 159.3103049999994,
          "velocity": 0.7480314960629921,
          "duration": 0.20689649999999915
        },
        {
          "name": "B2",
          "midi": 47,
          "time": 159.3103049999994,
          "velocity": 0.7480314960629921,
          "duration": 0.20689649999999915
        },
        {
          "name": "B3",
          "midi": 59,
          "time": 159.5172014999994,
          "velocity": 0.7480314960629921,
          "duration": 0.20689649999999915
        },
        {
          "name": "F#3",
          "midi": 54,
          "time": 159.5172014999994,
          "velocity": 0.7480314960629921,
          "duration": 0.20689649999999915
        },
        {
          "name": "B2",
          "midi": 47,
          "time": 159.5172014999994,
          "velocity": 0.7480314960629921,
          "duration": 0.20689649999999915
        },
        {
          "name": "B3",
          "midi": 59,
          "time": 159.7240979999994,
          "velocity": 0.7480314960629921,
          "duration": 0.20689649999999915
        },
        {
          "name": "F#3",
          "midi": 54,
          "time": 159.7240979999994,
          "velocity": 0.7480314960629921,
          "duration": 0.20689649999999915
        },
        {
          "name": "B2",
          "midi": 47,
          "time": 159.7240979999994,
          "velocity": 0.7480314960629921,
          "duration": 0.20689649999999915
        },
        {
          "name": "B3",
          "midi": 59,
          "time": 159.9309944999994,
          "velocity": 0.7480314960629921,
          "duration": 0.20689649999999915
        },
        {
          "name": "F#3",
          "midi": 54,
          "time": 159.9309944999994,
          "velocity": 0.7480314960629921,
          "duration": 0.20689649999999915
        },
        {
          "name": "B2",
          "midi": 47,
          "time": 159.9309944999994,
          "velocity": 0.7480314960629921,
          "duration": 0.20689649999999915
        },
        {
          "name": "B3",
          "midi": 59,
          "time": 160.1378909999994,
          "velocity": 0.7480314960629921,
          "duration": 0.20689649999999915
        },
        {
          "name": "F#3",
          "midi": 54,
          "time": 160.1378909999994,
          "velocity": 0.7480314960629921,
          "duration": 0.20689649999999915
        },
        {
          "name": "B2",
          "midi": 47,
          "time": 160.1378909999994,
          "velocity": 0.7480314960629921,
          "duration": 0.20689649999999915
        },
        {
          "name": "B3",
          "midi": 59,
          "time": 160.3447874999994,
          "velocity": 0.7480314960629921,
          "duration": 0.20689649999999915
        },
        {
          "name": "F#3",
          "midi": 54,
          "time": 160.3447874999994,
          "velocity": 0.7480314960629921,
          "duration": 0.20689649999999915
        },
        {
          "name": "B2",
          "midi": 47,
          "time": 160.3447874999994,
          "velocity": 0.7480314960629921,
          "duration": 0.20689649999999915
        },
        {
          "name": "B3",
          "midi": 59,
          "time": 160.5516839999994,
          "velocity": 0.7480314960629921,
          "duration": 0.20689649999999915
        },
        {
          "name": "F#3",
          "midi": 54,
          "time": 160.5516839999994,
          "velocity": 0.7480314960629921,
          "duration": 0.20689649999999915
        },
        {
          "name": "B2",
          "midi": 47,
          "time": 160.5516839999994,
          "velocity": 0.7480314960629921,
          "duration": 0.20689649999999915
        },
        {
          "name": "B3",
          "midi": 59,
          "time": 160.7585804999994,
          "velocity": 0.7480314960629921,
          "duration": 0.20689649999999915
        },
        {
          "name": "F#3",
          "midi": 54,
          "time": 160.7585804999994,
          "velocity": 0.7480314960629921,
          "duration": 0.20689649999999915
        },
        {
          "name": "B2",
          "midi": 47,
          "time": 160.7585804999994,
          "velocity": 0.7480314960629921,
          "duration": 0.20689649999999915
        },
        {
          "name": "D4",
          "midi": 62,
          "time": 160.9654769999994,
          "velocity": 0.7480314960629921,
          "duration": 0.20689649999999915
        },
        {
          "name": "A3",
          "midi": 57,
          "time": 160.9654769999994,
          "velocity": 0.7480314960629921,
          "duration": 0.20689649999999915
        },
        {
          "name": "D3",
          "midi": 50,
          "time": 160.9654769999994,
          "velocity": 0.7480314960629921,
          "duration": 0.20689649999999915
        },
        {
          "name": "D4",
          "midi": 62,
          "time": 161.1723734999994,
          "velocity": 0.7480314960629921,
          "duration": 0.20689649999999915
        },
        {
          "name": "A3",
          "midi": 57,
          "time": 161.1723734999994,
          "velocity": 0.7480314960629921,
          "duration": 0.20689649999999915
        },
        {
          "name": "D3",
          "midi": 50,
          "time": 161.1723734999994,
          "velocity": 0.7480314960629921,
          "duration": 0.20689649999999915
        },
        {
          "name": "D4",
          "midi": 62,
          "time": 161.3792699999994,
          "velocity": 0.7480314960629921,
          "duration": 0.20689649999999915
        },
        {
          "name": "A3",
          "midi": 57,
          "time": 161.3792699999994,
          "velocity": 0.7480314960629921,
          "duration": 0.20689649999999915
        },
        {
          "name": "D3",
          "midi": 50,
          "time": 161.3792699999994,
          "velocity": 0.7480314960629921,
          "duration": 0.20689649999999915
        },
        {
          "name": "D4",
          "midi": 62,
          "time": 161.5861664999994,
          "velocity": 0.7480314960629921,
          "duration": 0.20689649999999915
        },
        {
          "name": "A3",
          "midi": 57,
          "time": 161.5861664999994,
          "velocity": 0.7480314960629921,
          "duration": 0.20689649999999915
        },
        {
          "name": "D3",
          "midi": 50,
          "time": 161.5861664999994,
          "velocity": 0.7480314960629921,
          "duration": 0.20689649999999915
        },
        {
          "name": "D4",
          "midi": 62,
          "time": 161.7930629999994,
          "velocity": 0.7480314960629921,
          "duration": 0.20689649999999915
        },
        {
          "name": "A3",
          "midi": 57,
          "time": 161.7930629999994,
          "velocity": 0.7480314960629921,
          "duration": 0.20689649999999915
        },
        {
          "name": "D3",
          "midi": 50,
          "time": 161.7930629999994,
          "velocity": 0.7480314960629921,
          "duration": 0.20689649999999915
        },
        {
          "name": "D4",
          "midi": 62,
          "time": 161.9999594999994,
          "velocity": 0.7480314960629921,
          "duration": 0.20689649999999915
        },
        {
          "name": "A3",
          "midi": 57,
          "time": 161.9999594999994,
          "velocity": 0.7480314960629921,
          "duration": 0.20689649999999915
        },
        {
          "name": "D3",
          "midi": 50,
          "time": 161.9999594999994,
          "velocity": 0.7480314960629921,
          "duration": 0.20689649999999915
        },
        {
          "name": "D4",
          "midi": 62,
          "time": 162.2068559999994,
          "velocity": 0.7480314960629921,
          "duration": 0.20689649999999915
        },
        {
          "name": "A3",
          "midi": 57,
          "time": 162.2068559999994,
          "velocity": 0.7480314960629921,
          "duration": 0.20689649999999915
        },
        {
          "name": "D3",
          "midi": 50,
          "time": 162.2068559999994,
          "velocity": 0.7480314960629921,
          "duration": 0.20689649999999915
        },
        {
          "name": "D4",
          "midi": 62,
          "time": 162.4137524999994,
          "velocity": 0.7480314960629921,
          "duration": 0.20689649999999915
        },
        {
          "name": "A3",
          "midi": 57,
          "time": 162.4137524999994,
          "velocity": 0.7480314960629921,
          "duration": 0.20689649999999915
        },
        {
          "name": "D3",
          "midi": 50,
          "time": 162.4137524999994,
          "velocity": 0.7480314960629921,
          "duration": 0.20689649999999915
        },
        {
          "name": "D4",
          "midi": 62,
          "time": 162.6206489999994,
          "velocity": 0.7480314960629921,
          "duration": 0.20689649999999915
        },
        {
          "name": "A3",
          "midi": 57,
          "time": 162.6206489999994,
          "velocity": 0.7480314960629921,
          "duration": 0.20689649999999915
        },
        {
          "name": "D3",
          "midi": 50,
          "time": 162.6206489999994,
          "velocity": 0.7480314960629921,
          "duration": 0.20689649999999915
        },
        {
          "name": "D4",
          "midi": 62,
          "time": 162.8275454999994,
          "velocity": 0.7480314960629921,
          "duration": 0.20689649999999915
        },
        {
          "name": "A3",
          "midi": 57,
          "time": 162.8275454999994,
          "velocity": 0.7480314960629921,
          "duration": 0.20689649999999915
        },
        {
          "name": "D3",
          "midi": 50,
          "time": 162.8275454999994,
          "velocity": 0.7480314960629921,
          "duration": 0.20689649999999915
        },
        {
          "name": "D4",
          "midi": 62,
          "time": 163.0344419999994,
          "velocity": 0.7480314960629921,
          "duration": 0.20689649999999915
        },
        {
          "name": "A3",
          "midi": 57,
          "time": 163.0344419999994,
          "velocity": 0.7480314960629921,
          "duration": 0.20689649999999915
        },
        {
          "name": "D3",
          "midi": 50,
          "time": 163.0344419999994,
          "velocity": 0.7480314960629921,
          "duration": 0.20689649999999915
        },
        {
          "name": "D4",
          "midi": 62,
          "time": 163.2413384999994,
          "velocity": 0.7480314960629921,
          "duration": 0.20689649999999915
        },
        {
          "name": "A3",
          "midi": 57,
          "time": 163.2413384999994,
          "velocity": 0.7480314960629921,
          "duration": 0.20689649999999915
        },
        {
          "name": "D3",
          "midi": 50,
          "time": 163.2413384999994,
          "velocity": 0.7480314960629921,
          "duration": 0.20689649999999915
        },
        {
          "name": "D4",
          "midi": 62,
          "time": 163.44823499999939,
          "velocity": 0.7480314960629921,
          "duration": 0.20689649999999915
        },
        {
          "name": "A3",
          "midi": 57,
          "time": 163.44823499999939,
          "velocity": 0.7480314960629921,
          "duration": 0.20689649999999915
        },
        {
          "name": "D3",
          "midi": 50,
          "time": 163.44823499999939,
          "velocity": 0.7480314960629921,
          "duration": 0.20689649999999915
        },
        {
          "name": "D4",
          "midi": 62,
          "time": 163.65513149999938,
          "velocity": 0.7480314960629921,
          "duration": 0.20689649999999915
        },
        {
          "name": "A3",
          "midi": 57,
          "time": 163.65513149999938,
          "velocity": 0.7480314960629921,
          "duration": 0.20689649999999915
        },
        {
          "name": "D3",
          "midi": 50,
          "time": 163.65513149999938,
          "velocity": 0.7480314960629921,
          "duration": 0.20689649999999915
        },
        {
          "name": "C4",
          "midi": 60,
          "time": 163.86202799999938,
          "velocity": 0.7480314960629921,
          "duration": 0.20689649999999915
        },
        {
          "name": "G3",
          "midi": 55,
          "time": 163.86202799999938,
          "velocity": 0.7480314960629921,
          "duration": 0.20689649999999915
        },
        {
          "name": "C3",
          "midi": 48,
          "time": 163.86202799999938,
          "velocity": 0.7480314960629921,
          "duration": 0.20689649999999915
        },
        {
          "name": "C4",
          "midi": 60,
          "time": 164.06892449999938,
          "velocity": 0.7480314960629921,
          "duration": 0.20689649999999915
        },
        {
          "name": "G3",
          "midi": 55,
          "time": 164.06892449999938,
          "velocity": 0.7480314960629921,
          "duration": 0.20689649999999915
        },
        {
          "name": "C3",
          "midi": 48,
          "time": 164.06892449999938,
          "velocity": 0.7480314960629921,
          "duration": 0.20689649999999915
        },
        {
          "name": "C4",
          "midi": 60,
          "time": 164.27582099999938,
          "velocity": 0.7480314960629921,
          "duration": 0.20689649999999915
        },
        {
          "name": "G3",
          "midi": 55,
          "time": 164.27582099999938,
          "velocity": 0.7480314960629921,
          "duration": 0.20689649999999915
        },
        {
          "name": "C3",
          "midi": 48,
          "time": 164.27582099999938,
          "velocity": 0.7480314960629921,
          "duration": 0.20689649999999915
        },
        {
          "name": "C4",
          "midi": 60,
          "time": 164.48271749999938,
          "velocity": 0.7480314960629921,
          "duration": 0.20689649999999915
        },
        {
          "name": "G3",
          "midi": 55,
          "time": 164.48271749999938,
          "velocity": 0.7480314960629921,
          "duration": 0.20689649999999915
        },
        {
          "name": "C3",
          "midi": 48,
          "time": 164.48271749999938,
          "velocity": 0.7480314960629921,
          "duration": 0.20689649999999915
        },
        {
          "name": "C4",
          "midi": 60,
          "time": 164.68961399999938,
          "velocity": 0.7480314960629921,
          "duration": 0.20689649999999915
        },
        {
          "name": "G3",
          "midi": 55,
          "time": 164.68961399999938,
          "velocity": 0.7480314960629921,
          "duration": 0.20689649999999915
        },
        {
          "name": "C3",
          "midi": 48,
          "time": 164.68961399999938,
          "velocity": 0.7480314960629921,
          "duration": 0.20689649999999915
        },
        {
          "name": "C4",
          "midi": 60,
          "time": 164.89651049999938,
          "velocity": 0.7480314960629921,
          "duration": 0.20689649999999915
        },
        {
          "name": "G3",
          "midi": 55,
          "time": 164.89651049999938,
          "velocity": 0.7480314960629921,
          "duration": 0.20689649999999915
        },
        {
          "name": "C3",
          "midi": 48,
          "time": 164.89651049999938,
          "velocity": 0.7480314960629921,
          "duration": 0.20689649999999915
        },
        {
          "name": "C4",
          "midi": 60,
          "time": 165.10340699999938,
          "velocity": 0.7480314960629921,
          "duration": 0.20689649999999915
        },
        {
          "name": "G3",
          "midi": 55,
          "time": 165.10340699999938,
          "velocity": 0.7480314960629921,
          "duration": 0.20689649999999915
        },
        {
          "name": "C3",
          "midi": 48,
          "time": 165.10340699999938,
          "velocity": 0.7480314960629921,
          "duration": 0.20689649999999915
        },
        {
          "name": "C4",
          "midi": 60,
          "time": 165.31030349999938,
          "velocity": 0.7480314960629921,
          "duration": 0.20689649999999915
        },
        {
          "name": "G3",
          "midi": 55,
          "time": 165.31030349999938,
          "velocity": 0.7480314960629921,
          "duration": 0.20689649999999915
        },
        {
          "name": "C3",
          "midi": 48,
          "time": 165.31030349999938,
          "velocity": 0.7480314960629921,
          "duration": 0.20689649999999915
        },
        {
          "name": "C4",
          "midi": 60,
          "time": 165.51719999999938,
          "velocity": 0.7480314960629921,
          "duration": 0.20689649999999915
        },
        {
          "name": "G3",
          "midi": 55,
          "time": 165.51719999999938,
          "velocity": 0.7480314960629921,
          "duration": 0.20689649999999915
        },
        {
          "name": "C3",
          "midi": 48,
          "time": 165.51719999999938,
          "velocity": 0.7480314960629921,
          "duration": 0.20689649999999915
        },
        {
          "name": "C4",
          "midi": 60,
          "time": 165.72409649999938,
          "velocity": 0.7480314960629921,
          "duration": 0.20689649999999915
        },
        {
          "name": "G3",
          "midi": 55,
          "time": 165.72409649999938,
          "velocity": 0.7480314960629921,
          "duration": 0.20689649999999915
        },
        {
          "name": "C3",
          "midi": 48,
          "time": 165.72409649999938,
          "velocity": 0.7480314960629921,
          "duration": 0.20689649999999915
        },
        {
          "name": "C4",
          "midi": 60,
          "time": 165.93099299999938,
          "velocity": 0.7480314960629921,
          "duration": 0.20689649999999915
        },
        {
          "name": "G3",
          "midi": 55,
          "time": 165.93099299999938,
          "velocity": 0.7480314960629921,
          "duration": 0.20689649999999915
        },
        {
          "name": "C3",
          "midi": 48,
          "time": 165.93099299999938,
          "velocity": 0.7480314960629921,
          "duration": 0.20689649999999915
        },
        {
          "name": "C4",
          "midi": 60,
          "time": 166.13788949999937,
          "velocity": 0.7480314960629921,
          "duration": 0.20689649999999915
        },
        {
          "name": "G3",
          "midi": 55,
          "time": 166.13788949999937,
          "velocity": 0.7480314960629921,
          "duration": 0.20689649999999915
        },
        {
          "name": "C3",
          "midi": 48,
          "time": 166.13788949999937,
          "velocity": 0.7480314960629921,
          "duration": 0.20689649999999915
        },
        {
          "name": "C4",
          "midi": 60,
          "time": 166.34478599999937,
          "velocity": 0.7480314960629921,
          "duration": 0.20689649999999915
        },
        {
          "name": "G3",
          "midi": 55,
          "time": 166.34478599999937,
          "velocity": 0.7480314960629921,
          "duration": 0.20689649999999915
        },
        {
          "name": "C3",
          "midi": 48,
          "time": 166.34478599999937,
          "velocity": 0.7480314960629921,
          "duration": 0.20689649999999915
        },
        {
          "name": "C4",
          "midi": 60,
          "time": 166.55168249999937,
          "velocity": 0.7480314960629921,
          "duration": 0.20689649999999915
        },
        {
          "name": "G3",
          "midi": 55,
          "time": 166.55168249999937,
          "velocity": 0.7480314960629921,
          "duration": 0.20689649999999915
        },
        {
          "name": "C3",
          "midi": 48,
          "time": 166.55168249999937,
          "velocity": 0.7480314960629921,
          "duration": 0.20689649999999915
        },
        {
          "name": "B3",
          "midi": 59,
          "time": 166.75857899999937,
          "velocity": 0.7480314960629921,
          "duration": 0.20689649999999915
        },
        {
          "name": "F#3",
          "midi": 54,
          "time": 166.75857899999937,
          "velocity": 0.7480314960629921,
          "duration": 0.20689649999999915
        },
        {
          "name": "B2",
          "midi": 47,
          "time": 166.75857899999937,
          "velocity": 0.7480314960629921,
          "duration": 0.20689649999999915
        },
        {
          "name": "B3",
          "midi": 59,
          "time": 166.96547549999937,
          "velocity": 0.7480314960629921,
          "duration": 0.20689649999999915
        },
        {
          "name": "F#3",
          "midi": 54,
          "time": 166.96547549999937,
          "velocity": 0.7480314960629921,
          "duration": 0.20689649999999915
        },
        {
          "name": "B2",
          "midi": 47,
          "time": 166.96547549999937,
          "velocity": 0.7480314960629921,
          "duration": 0.20689649999999915
        },
        {
          "name": "B3",
          "midi": 59,
          "time": 167.17237199999937,
          "velocity": 0.7480314960629921,
          "duration": 0.20689649999999915
        },
        {
          "name": "F#3",
          "midi": 54,
          "time": 167.17237199999937,
          "velocity": 0.7480314960629921,
          "duration": 0.20689649999999915
        },
        {
          "name": "B2",
          "midi": 47,
          "time": 167.17237199999937,
          "velocity": 0.7480314960629921,
          "duration": 0.20689649999999915
        },
        {
          "name": "B3",
          "midi": 59,
          "time": 167.37926849999937,
          "velocity": 0.7480314960629921,
          "duration": 0.20689649999999915
        },
        {
          "name": "F#3",
          "midi": 54,
          "time": 167.37926849999937,
          "velocity": 0.7480314960629921,
          "duration": 0.20689649999999915
        },
        {
          "name": "B2",
          "midi": 47,
          "time": 167.37926849999937,
          "velocity": 0.7480314960629921,
          "duration": 0.20689649999999915
        },
        {
          "name": "B3",
          "midi": 59,
          "time": 167.58616499999937,
          "velocity": 0.7480314960629921,
          "duration": 0.20689649999999915
        },
        {
          "name": "F#3",
          "midi": 54,
          "time": 167.58616499999937,
          "velocity": 0.7480314960629921,
          "duration": 0.20689649999999915
        },
        {
          "name": "B2",
          "midi": 47,
          "time": 167.58616499999937,
          "velocity": 0.7480314960629921,
          "duration": 0.20689649999999915
        },
        {
          "name": "B3",
          "midi": 59,
          "time": 167.79306149999937,
          "velocity": 0.7480314960629921,
          "duration": 0.20689649999999915
        },
        {
          "name": "F#3",
          "midi": 54,
          "time": 167.79306149999937,
          "velocity": 0.7480314960629921,
          "duration": 0.20689649999999915
        },
        {
          "name": "B2",
          "midi": 47,
          "time": 167.79306149999937,
          "velocity": 0.7480314960629921,
          "duration": 0.20689649999999915
        },
        {
          "name": "B3",
          "midi": 59,
          "time": 167.99995799999937,
          "velocity": 0.7480314960629921,
          "duration": 0.20689649999999915
        },
        {
          "name": "F#3",
          "midi": 54,
          "time": 167.99995799999937,
          "velocity": 0.7480314960629921,
          "duration": 0.20689649999999915
        },
        {
          "name": "B2",
          "midi": 47,
          "time": 167.99995799999937,
          "velocity": 0.7480314960629921,
          "duration": 0.20689649999999915
        },
        {
          "name": "B3",
          "midi": 59,
          "time": 168.20685449999937,
          "velocity": 0.7480314960629921,
          "duration": 0.20689649999999915
        },
        {
          "name": "F#3",
          "midi": 54,
          "time": 168.20685449999937,
          "velocity": 0.7480314960629921,
          "duration": 0.20689649999999915
        },
        {
          "name": "B2",
          "midi": 47,
          "time": 168.20685449999937,
          "velocity": 0.7480314960629921,
          "duration": 0.20689649999999915
        },
        {
          "name": "B3",
          "midi": 59,
          "time": 168.41375099999937,
          "velocity": 0.7480314960629921,
          "duration": 0.20689649999999915
        },
        {
          "name": "F#3",
          "midi": 54,
          "time": 168.41375099999937,
          "velocity": 0.7480314960629921,
          "duration": 0.20689649999999915
        },
        {
          "name": "B2",
          "midi": 47,
          "time": 168.41375099999937,
          "velocity": 0.7480314960629921,
          "duration": 0.20689649999999915
        },
        {
          "name": "B3",
          "midi": 59,
          "time": 168.62064749999936,
          "velocity": 0.7480314960629921,
          "duration": 0.20689649999999915
        },
        {
          "name": "F#3",
          "midi": 54,
          "time": 168.62064749999936,
          "velocity": 0.7480314960629921,
          "duration": 0.20689649999999915
        },
        {
          "name": "B2",
          "midi": 47,
          "time": 168.62064749999936,
          "velocity": 0.7480314960629921,
          "duration": 0.20689649999999915
        },
        {
          "name": "B3",
          "midi": 59,
          "time": 168.82754399999936,
          "velocity": 0.7480314960629921,
          "duration": 0.20689649999999915
        },
        {
          "name": "F#3",
          "midi": 54,
          "time": 168.82754399999936,
          "velocity": 0.7480314960629921,
          "duration": 0.20689649999999915
        },
        {
          "name": "B2",
          "midi": 47,
          "time": 168.82754399999936,
          "velocity": 0.7480314960629921,
          "duration": 0.20689649999999915
        },
        {
          "name": "B3",
          "midi": 59,
          "time": 169.03444049999936,
          "velocity": 0.7480314960629921,
          "duration": 0.20689649999999915
        },
        {
          "name": "F#3",
          "midi": 54,
          "time": 169.03444049999936,
          "velocity": 0.7480314960629921,
          "duration": 0.20689649999999915
        },
        {
          "name": "B2",
          "midi": 47,
          "time": 169.03444049999936,
          "velocity": 0.7480314960629921,
          "duration": 0.20689649999999915
        },
        {
          "name": "B3",
          "midi": 59,
          "time": 169.24133699999936,
          "velocity": 0.7480314960629921,
          "duration": 0.20689649999999915
        },
        {
          "name": "F#3",
          "midi": 54,
          "time": 169.24133699999936,
          "velocity": 0.7480314960629921,
          "duration": 0.20689649999999915
        },
        {
          "name": "B2",
          "midi": 47,
          "time": 169.24133699999936,
          "velocity": 0.7480314960629921,
          "duration": 0.20689649999999915
        },
        {
          "name": "B3",
          "midi": 59,
          "time": 169.44823349999936,
          "velocity": 0.7480314960629921,
          "duration": 0.20689649999999915
        },
        {
          "name": "F#3",
          "midi": 54,
          "time": 169.44823349999936,
          "velocity": 0.7480314960629921,
          "duration": 0.20689649999999915
        },
        {
          "name": "B2",
          "midi": 47,
          "time": 169.44823349999936,
          "velocity": 0.7480314960629921,
          "duration": 0.20689649999999915
        },
        {
          "name": "D4",
          "midi": 62,
          "time": 169.65512999999936,
          "velocity": 0.7480314960629921,
          "duration": 0.20689649999999915
        },
        {
          "name": "A3",
          "midi": 57,
          "time": 169.65512999999936,
          "velocity": 0.7480314960629921,
          "duration": 0.20689649999999915
        },
        {
          "name": "D3",
          "midi": 50,
          "time": 169.65512999999936,
          "velocity": 0.7480314960629921,
          "duration": 0.20689649999999915
        },
        {
          "name": "D4",
          "midi": 62,
          "time": 169.86202649999936,
          "velocity": 0.7480314960629921,
          "duration": 0.20689649999999915
        },
        {
          "name": "A3",
          "midi": 57,
          "time": 169.86202649999936,
          "velocity": 0.7480314960629921,
          "duration": 0.20689649999999915
        },
        {
          "name": "D3",
          "midi": 50,
          "time": 169.86202649999936,
          "velocity": 0.7480314960629921,
          "duration": 0.20689649999999915
        },
        {
          "name": "D4",
          "midi": 62,
          "time": 170.06892299999936,
          "velocity": 0.7480314960629921,
          "duration": 0.20689649999999915
        },
        {
          "name": "A3",
          "midi": 57,
          "time": 170.06892299999936,
          "velocity": 0.7480314960629921,
          "duration": 0.20689649999999915
        },
        {
          "name": "D3",
          "midi": 50,
          "time": 170.06892299999936,
          "velocity": 0.7480314960629921,
          "duration": 0.20689649999999915
        },
        {
          "name": "D4",
          "midi": 62,
          "time": 170.27581949999936,
          "velocity": 0.7480314960629921,
          "duration": 0.20689649999999915
        },
        {
          "name": "A3",
          "midi": 57,
          "time": 170.27581949999936,
          "velocity": 0.7480314960629921,
          "duration": 0.20689649999999915
        },
        {
          "name": "D3",
          "midi": 50,
          "time": 170.27581949999936,
          "velocity": 0.7480314960629921,
          "duration": 0.20689649999999915
        },
        {
          "name": "D4",
          "midi": 62,
          "time": 170.48271599999936,
          "velocity": 0.7480314960629921,
          "duration": 0.20689649999999915
        },
        {
          "name": "A3",
          "midi": 57,
          "time": 170.48271599999936,
          "velocity": 0.7480314960629921,
          "duration": 0.20689649999999915
        },
        {
          "name": "D3",
          "midi": 50,
          "time": 170.48271599999936,
          "velocity": 0.7480314960629921,
          "duration": 0.20689649999999915
        },
        {
          "name": "D4",
          "midi": 62,
          "time": 170.68961249999936,
          "velocity": 0.7480314960629921,
          "duration": 0.20689649999999915
        },
        {
          "name": "A3",
          "midi": 57,
          "time": 170.68961249999936,
          "velocity": 0.7480314960629921,
          "duration": 0.20689649999999915
        },
        {
          "name": "D3",
          "midi": 50,
          "time": 170.68961249999936,
          "velocity": 0.7480314960629921,
          "duration": 0.20689649999999915
        },
        {
          "name": "D4",
          "midi": 62,
          "time": 170.89650899999936,
          "velocity": 0.7480314960629921,
          "duration": 0.20689649999999915
        },
        {
          "name": "A3",
          "midi": 57,
          "time": 170.89650899999936,
          "velocity": 0.7480314960629921,
          "duration": 0.20689649999999915
        },
        {
          "name": "D3",
          "midi": 50,
          "time": 170.89650899999936,
          "velocity": 0.7480314960629921,
          "duration": 0.20689649999999915
        },
        {
          "name": "D4",
          "midi": 62,
          "time": 171.10340549999935,
          "velocity": 0.7480314960629921,
          "duration": 0.20689649999999915
        },
        {
          "name": "A3",
          "midi": 57,
          "time": 171.10340549999935,
          "velocity": 0.7480314960629921,
          "duration": 0.20689649999999915
        },
        {
          "name": "D3",
          "midi": 50,
          "time": 171.10340549999935,
          "velocity": 0.7480314960629921,
          "duration": 0.20689649999999915
        },
        {
          "name": "D4",
          "midi": 62,
          "time": 171.31030199999935,
          "velocity": 0.7480314960629921,
          "duration": 0.20689649999999915
        },
        {
          "name": "A3",
          "midi": 57,
          "time": 171.31030199999935,
          "velocity": 0.7480314960629921,
          "duration": 0.20689649999999915
        },
        {
          "name": "D3",
          "midi": 50,
          "time": 171.31030199999935,
          "velocity": 0.7480314960629921,
          "duration": 0.20689649999999915
        },
        {
          "name": "D4",
          "midi": 62,
          "time": 171.51719849999935,
          "velocity": 0.7480314960629921,
          "duration": 0.20689649999999915
        },
        {
          "name": "A3",
          "midi": 57,
          "time": 171.51719849999935,
          "velocity": 0.7480314960629921,
          "duration": 0.20689649999999915
        },
        {
          "name": "D3",
          "midi": 50,
          "time": 171.51719849999935,
          "velocity": 0.7480314960629921,
          "duration": 0.20689649999999915
        },
        {
          "name": "D4",
          "midi": 62,
          "time": 171.72409499999935,
          "velocity": 0.7480314960629921,
          "duration": 0.20689649999999915
        },
        {
          "name": "A3",
          "midi": 57,
          "time": 171.72409499999935,
          "velocity": 0.7480314960629921,
          "duration": 0.20689649999999915
        },
        {
          "name": "D3",
          "midi": 50,
          "time": 171.72409499999935,
          "velocity": 0.7480314960629921,
          "duration": 0.20689649999999915
        },
        {
          "name": "D4",
          "midi": 62,
          "time": 171.93099149999935,
          "velocity": 0.7480314960629921,
          "duration": 0.20689649999999915
        },
        {
          "name": "A3",
          "midi": 57,
          "time": 171.93099149999935,
          "velocity": 0.7480314960629921,
          "duration": 0.20689649999999915
        },
        {
          "name": "D3",
          "midi": 50,
          "time": 171.93099149999935,
          "velocity": 0.7480314960629921,
          "duration": 0.20689649999999915
        },
        {
          "name": "D4",
          "midi": 62,
          "time": 172.13788799999935,
          "velocity": 0.7480314960629921,
          "duration": 0.20689649999999915
        },
        {
          "name": "A3",
          "midi": 57,
          "time": 172.13788799999935,
          "velocity": 0.7480314960629921,
          "duration": 0.20689649999999915
        },
        {
          "name": "D3",
          "midi": 50,
          "time": 172.13788799999935,
          "velocity": 0.7480314960629921,
          "duration": 0.20689649999999915
        },
        {
          "name": "D4",
          "midi": 62,
          "time": 172.34478449999935,
          "velocity": 0.7480314960629921,
          "duration": 0.20689649999999915
        },
        {
          "name": "A3",
          "midi": 57,
          "time": 172.34478449999935,
          "velocity": 0.7480314960629921,
          "duration": 0.20689649999999915
        },
        {
          "name": "D3",
          "midi": 50,
          "time": 172.34478449999935,
          "velocity": 0.7480314960629921,
          "duration": 0.20689649999999915
        },
        {
          "name": "C4",
          "midi": 60,
          "time": 172.55168099999935,
          "velocity": 0.7480314960629921,
          "duration": 0.20689649999999915
        },
        {
          "name": "G3",
          "midi": 55,
          "time": 172.55168099999935,
          "velocity": 0.7480314960629921,
          "duration": 0.20689649999999915
        },
        {
          "name": "C3",
          "midi": 48,
          "time": 172.55168099999935,
          "velocity": 0.7480314960629921,
          "duration": 0.20689649999999915
        },
        {
          "name": "C4",
          "midi": 60,
          "time": 172.75857749999935,
          "velocity": 0.7480314960629921,
          "duration": 0.20689649999999915
        },
        {
          "name": "G3",
          "midi": 55,
          "time": 172.75857749999935,
          "velocity": 0.7480314960629921,
          "duration": 0.20689649999999915
        },
        {
          "name": "C3",
          "midi": 48,
          "time": 172.75857749999935,
          "velocity": 0.7480314960629921,
          "duration": 0.20689649999999915
        },
        {
          "name": "C4",
          "midi": 60,
          "time": 172.96547399999935,
          "velocity": 0.7480314960629921,
          "duration": 0.20689649999999915
        },
        {
          "name": "G3",
          "midi": 55,
          "time": 172.96547399999935,
          "velocity": 0.7480314960629921,
          "duration": 0.20689649999999915
        },
        {
          "name": "C3",
          "midi": 48,
          "time": 172.96547399999935,
          "velocity": 0.7480314960629921,
          "duration": 0.20689649999999915
        },
        {
          "name": "C4",
          "midi": 60,
          "time": 173.17237049999935,
          "velocity": 0.7480314960629921,
          "duration": 0.20689649999999915
        },
        {
          "name": "G3",
          "midi": 55,
          "time": 173.17237049999935,
          "velocity": 0.7480314960629921,
          "duration": 0.20689649999999915
        },
        {
          "name": "C3",
          "midi": 48,
          "time": 173.17237049999935,
          "velocity": 0.7480314960629921,
          "duration": 0.20689649999999915
        },
        {
          "name": "C4",
          "midi": 60,
          "time": 173.37926699999934,
          "velocity": 0.7480314960629921,
          "duration": 0.20689649999999915
        },
        {
          "name": "G3",
          "midi": 55,
          "time": 173.37926699999934,
          "velocity": 0.7480314960629921,
          "duration": 0.20689649999999915
        },
        {
          "name": "C3",
          "midi": 48,
          "time": 173.37926699999934,
          "velocity": 0.7480314960629921,
          "duration": 0.20689649999999915
        },
        {
          "name": "C4",
          "midi": 60,
          "time": 173.58616349999934,
          "velocity": 0.7480314960629921,
          "duration": 0.20689649999999915
        },
        {
          "name": "G3",
          "midi": 55,
          "time": 173.58616349999934,
          "velocity": 0.7480314960629921,
          "duration": 0.20689649999999915
        },
        {
          "name": "C3",
          "midi": 48,
          "time": 173.58616349999934,
          "velocity": 0.7480314960629921,
          "duration": 0.20689649999999915
        },
        {
          "name": "C4",
          "midi": 60,
          "time": 173.79305999999934,
          "velocity": 0.7480314960629921,
          "duration": 0.20689649999999915
        },
        {
          "name": "G3",
          "midi": 55,
          "time": 173.79305999999934,
          "velocity": 0.7480314960629921,
          "duration": 0.20689649999999915
        },
        {
          "name": "C3",
          "midi": 48,
          "time": 173.79305999999934,
          "velocity": 0.7480314960629921,
          "duration": 0.20689649999999915
        },
        {
          "name": "C4",
          "midi": 60,
          "time": 173.99995649999934,
          "velocity": 0.7480314960629921,
          "duration": 0.20689649999999915
        },
        {
          "name": "G3",
          "midi": 55,
          "time": 173.99995649999934,
          "velocity": 0.7480314960629921,
          "duration": 0.20689649999999915
        },
        {
          "name": "C3",
          "midi": 48,
          "time": 173.99995649999934,
          "velocity": 0.7480314960629921,
          "duration": 0.20689649999999915
        },
        {
          "name": "C4",
          "midi": 60,
          "time": 174.20685299999934,
          "velocity": 0.7480314960629921,
          "duration": 0.20689649999999915
        },
        {
          "name": "G3",
          "midi": 55,
          "time": 174.20685299999934,
          "velocity": 0.7480314960629921,
          "duration": 0.20689649999999915
        },
        {
          "name": "C3",
          "midi": 48,
          "time": 174.20685299999934,
          "velocity": 0.7480314960629921,
          "duration": 0.20689649999999915
        },
        {
          "name": "C4",
          "midi": 60,
          "time": 174.41374949999934,
          "velocity": 0.7480314960629921,
          "duration": 0.20689649999999915
        },
        {
          "name": "G3",
          "midi": 55,
          "time": 174.41374949999934,
          "velocity": 0.7480314960629921,
          "duration": 0.20689649999999915
        },
        {
          "name": "C3",
          "midi": 48,
          "time": 174.41374949999934,
          "velocity": 0.7480314960629921,
          "duration": 0.20689649999999915
        },
        {
          "name": "C4",
          "midi": 60,
          "time": 174.62064599999934,
          "velocity": 0.7480314960629921,
          "duration": 0.20689649999999915
        },
        {
          "name": "G3",
          "midi": 55,
          "time": 174.62064599999934,
          "velocity": 0.7480314960629921,
          "duration": 0.20689649999999915
        },
        {
          "name": "C3",
          "midi": 48,
          "time": 174.62064599999934,
          "velocity": 0.7480314960629921,
          "duration": 0.20689649999999915
        },
        {
          "name": "C4",
          "midi": 60,
          "time": 174.82754249999934,
          "velocity": 0.7480314960629921,
          "duration": 0.20689649999999915
        },
        {
          "name": "G3",
          "midi": 55,
          "time": 174.82754249999934,
          "velocity": 0.7480314960629921,
          "duration": 0.20689649999999915
        },
        {
          "name": "C3",
          "midi": 48,
          "time": 174.82754249999934,
          "velocity": 0.7480314960629921,
          "duration": 0.20689649999999915
        },
        {
          "name": "C4",
          "midi": 60,
          "time": 175.03443899999934,
          "velocity": 0.7480314960629921,
          "duration": 0.20689649999999915
        },
        {
          "name": "G3",
          "midi": 55,
          "time": 175.03443899999934,
          "velocity": 0.7480314960629921,
          "duration": 0.20689649999999915
        },
        {
          "name": "C3",
          "midi": 48,
          "time": 175.03443899999934,
          "velocity": 0.7480314960629921,
          "duration": 0.20689649999999915
        },
        {
          "name": "C4",
          "midi": 60,
          "time": 175.24133549999934,
          "velocity": 0.7480314960629921,
          "duration": 0.20689649999999915
        },
        {
          "name": "G3",
          "midi": 55,
          "time": 175.24133549999934,
          "velocity": 0.7480314960629921,
          "duration": 0.20689649999999915
        },
        {
          "name": "C3",
          "midi": 48,
          "time": 175.24133549999934,
          "velocity": 0.7480314960629921,
          "duration": 0.20689649999999915
        },
        {
          "name": "B3",
          "midi": 59,
          "time": 175.44823199999934,
          "velocity": 0.7480314960629921,
          "duration": 0.20689649999999915
        },
        {
          "name": "F#3",
          "midi": 54,
          "time": 175.44823199999934,
          "velocity": 0.7480314960629921,
          "duration": 0.20689649999999915
        },
        {
          "name": "B2",
          "midi": 47,
          "time": 175.44823199999934,
          "velocity": 0.7480314960629921,
          "duration": 0.20689649999999915
        },
        {
          "name": "B3",
          "midi": 59,
          "time": 175.65512849999934,
          "velocity": 0.7480314960629921,
          "duration": 0.20689649999999915
        },
        {
          "name": "F#3",
          "midi": 54,
          "time": 175.65512849999934,
          "velocity": 0.7480314960629921,
          "duration": 0.20689649999999915
        },
        {
          "name": "B2",
          "midi": 47,
          "time": 175.65512849999934,
          "velocity": 0.7480314960629921,
          "duration": 0.20689649999999915
        },
        {
          "name": "B3",
          "midi": 59,
          "time": 175.86202499999933,
          "velocity": 0.7480314960629921,
          "duration": 0.20689649999999915
        },
        {
          "name": "F#3",
          "midi": 54,
          "time": 175.86202499999933,
          "velocity": 0.7480314960629921,
          "duration": 0.20689649999999915
        },
        {
          "name": "B2",
          "midi": 47,
          "time": 175.86202499999933,
          "velocity": 0.7480314960629921,
          "duration": 0.20689649999999915
        },
        {
          "name": "B3",
          "midi": 59,
          "time": 176.06892149999933,
          "velocity": 0.7480314960629921,
          "duration": 0.20689649999999915
        },
        {
          "name": "F#3",
          "midi": 54,
          "time": 176.06892149999933,
          "velocity": 0.7480314960629921,
          "duration": 0.20689649999999915
        },
        {
          "name": "B2",
          "midi": 47,
          "time": 176.06892149999933,
          "velocity": 0.7480314960629921,
          "duration": 0.20689649999999915
        },
        {
          "name": "B3",
          "midi": 59,
          "time": 176.27581799999933,
          "velocity": 0.7480314960629921,
          "duration": 0.20689649999999915
        },
        {
          "name": "F#3",
          "midi": 54,
          "time": 176.27581799999933,
          "velocity": 0.7480314960629921,
          "duration": 0.20689649999999915
        },
        {
          "name": "B2",
          "midi": 47,
          "time": 176.27581799999933,
          "velocity": 0.7480314960629921,
          "duration": 0.20689649999999915
        },
        {
          "name": "B3",
          "midi": 59,
          "time": 176.48271449999933,
          "velocity": 0.7480314960629921,
          "duration": 0.20689649999999915
        },
        {
          "name": "F#3",
          "midi": 54,
          "time": 176.48271449999933,
          "velocity": 0.7480314960629921,
          "duration": 0.20689649999999915
        },
        {
          "name": "B2",
          "midi": 47,
          "time": 176.48271449999933,
          "velocity": 0.7480314960629921,
          "duration": 0.20689649999999915
        },
        {
          "name": "B3",
          "midi": 59,
          "time": 176.68961099999933,
          "velocity": 0.7480314960629921,
          "duration": 0.20689649999999915
        },
        {
          "name": "F#3",
          "midi": 54,
          "time": 176.68961099999933,
          "velocity": 0.7480314960629921,
          "duration": 0.20689649999999915
        },
        {
          "name": "B2",
          "midi": 47,
          "time": 176.68961099999933,
          "velocity": 0.7480314960629921,
          "duration": 0.20689649999999915
        },
        {
          "name": "B3",
          "midi": 59,
          "time": 176.89650749999933,
          "velocity": 0.7480314960629921,
          "duration": 0.20689649999999915
        },
        {
          "name": "F#3",
          "midi": 54,
          "time": 176.89650749999933,
          "velocity": 0.7480314960629921,
          "duration": 0.20689649999999915
        },
        {
          "name": "B2",
          "midi": 47,
          "time": 176.89650749999933,
          "velocity": 0.7480314960629921,
          "duration": 0.20689649999999915
        },
        {
          "name": "B3",
          "midi": 59,
          "time": 177.10340399999933,
          "velocity": 0.7480314960629921,
          "duration": 0.20689649999999915
        },
        {
          "name": "F#3",
          "midi": 54,
          "time": 177.10340399999933,
          "velocity": 0.7480314960629921,
          "duration": 0.20689649999999915
        },
        {
          "name": "B2",
          "midi": 47,
          "time": 177.10340399999933,
          "velocity": 0.7480314960629921,
          "duration": 0.20689649999999915
        },
        {
          "name": "B3",
          "midi": 59,
          "time": 177.31030049999933,
          "velocity": 0.7480314960629921,
          "duration": 0.20689649999999915
        },
        {
          "name": "F#3",
          "midi": 54,
          "time": 177.31030049999933,
          "velocity": 0.7480314960629921,
          "duration": 0.20689649999999915
        },
        {
          "name": "B2",
          "midi": 47,
          "time": 177.31030049999933,
          "velocity": 0.7480314960629921,
          "duration": 0.20689649999999915
        },
        {
          "name": "B3",
          "midi": 59,
          "time": 177.51719699999933,
          "velocity": 0.7480314960629921,
          "duration": 0.20689649999999915
        },
        {
          "name": "F#3",
          "midi": 54,
          "time": 177.51719699999933,
          "velocity": 0.7480314960629921,
          "duration": 0.20689649999999915
        },
        {
          "name": "B2",
          "midi": 47,
          "time": 177.51719699999933,
          "velocity": 0.7480314960629921,
          "duration": 0.20689649999999915
        },
        {
          "name": "B3",
          "midi": 59,
          "time": 177.72409349999933,
          "velocity": 0.7480314960629921,
          "duration": 0.20689649999999915
        },
        {
          "name": "F#3",
          "midi": 54,
          "time": 177.72409349999933,
          "velocity": 0.7480314960629921,
          "duration": 0.20689649999999915
        },
        {
          "name": "B2",
          "midi": 47,
          "time": 177.72409349999933,
          "velocity": 0.7480314960629921,
          "duration": 0.20689649999999915
        },
        {
          "name": "B3",
          "midi": 59,
          "time": 177.93098999999933,
          "velocity": 0.7480314960629921,
          "duration": 0.20689649999999915
        },
        {
          "name": "F#3",
          "midi": 54,
          "time": 177.93098999999933,
          "velocity": 0.7480314960629921,
          "duration": 0.20689649999999915
        },
        {
          "name": "B2",
          "midi": 47,
          "time": 177.93098999999933,
          "velocity": 0.7480314960629921,
          "duration": 0.20689649999999915
        },
        {
          "name": "B3",
          "midi": 59,
          "time": 178.13788649999933,
          "velocity": 0.7480314960629921,
          "duration": 0.20689649999999915
        },
        {
          "name": "F#3",
          "midi": 54,
          "time": 178.13788649999933,
          "velocity": 0.7480314960629921,
          "duration": 0.20689649999999915
        },
        {
          "name": "B2",
          "midi": 47,
          "time": 178.13788649999933,
          "velocity": 0.7480314960629921,
          "duration": 0.20689649999999915
        },
        {
          "name": "D4",
          "midi": 62,
          "time": 178.34478299999932,
          "velocity": 0.7480314960629921,
          "duration": 0.20689649999999915
        },
        {
          "name": "A3",
          "midi": 57,
          "time": 178.34478299999932,
          "velocity": 0.7480314960629921,
          "duration": 0.20689649999999915
        },
        {
          "name": "D3",
          "midi": 50,
          "time": 178.34478299999932,
          "velocity": 0.7480314960629921,
          "duration": 0.20689649999999915
        },
        {
          "name": "D4",
          "midi": 62,
          "time": 178.55167949999932,
          "velocity": 0.7480314960629921,
          "duration": 0.20689649999999915
        },
        {
          "name": "A3",
          "midi": 57,
          "time": 178.55167949999932,
          "velocity": 0.7480314960629921,
          "duration": 0.20689649999999915
        },
        {
          "name": "D3",
          "midi": 50,
          "time": 178.55167949999932,
          "velocity": 0.7480314960629921,
          "duration": 0.20689649999999915
        },
        {
          "name": "D4",
          "midi": 62,
          "time": 178.75857599999932,
          "velocity": 0.7480314960629921,
          "duration": 0.20689649999999915
        },
        {
          "name": "A3",
          "midi": 57,
          "time": 178.75857599999932,
          "velocity": 0.7480314960629921,
          "duration": 0.20689649999999915
        },
        {
          "name": "D3",
          "midi": 50,
          "time": 178.75857599999932,
          "velocity": 0.7480314960629921,
          "duration": 0.20689649999999915
        },
        {
          "name": "D4",
          "midi": 62,
          "time": 178.96547249999932,
          "velocity": 0.7480314960629921,
          "duration": 0.20689649999999915
        },
        {
          "name": "A3",
          "midi": 57,
          "time": 178.96547249999932,
          "velocity": 0.7480314960629921,
          "duration": 0.20689649999999915
        },
        {
          "name": "D3",
          "midi": 50,
          "time": 178.96547249999932,
          "velocity": 0.7480314960629921,
          "duration": 0.20689649999999915
        },
        {
          "name": "D4",
          "midi": 62,
          "time": 179.17236899999932,
          "velocity": 0.7480314960629921,
          "duration": 0.20689649999999915
        },
        {
          "name": "A3",
          "midi": 57,
          "time": 179.17236899999932,
          "velocity": 0.7480314960629921,
          "duration": 0.20689649999999915
        },
        {
          "name": "D3",
          "midi": 50,
          "time": 179.17236899999932,
          "velocity": 0.7480314960629921,
          "duration": 0.20689649999999915
        },
        {
          "name": "D4",
          "midi": 62,
          "time": 179.37926549999932,
          "velocity": 0.7480314960629921,
          "duration": 0.20689649999999915
        },
        {
          "name": "A3",
          "midi": 57,
          "time": 179.37926549999932,
          "velocity": 0.7480314960629921,
          "duration": 0.20689649999999915
        },
        {
          "name": "D3",
          "midi": 50,
          "time": 179.37926549999932,
          "velocity": 0.7480314960629921,
          "duration": 0.20689649999999915
        },
        {
          "name": "D4",
          "midi": 62,
          "time": 179.58616199999932,
          "velocity": 0.7480314960629921,
          "duration": 0.20689649999999915
        },
        {
          "name": "A3",
          "midi": 57,
          "time": 179.58616199999932,
          "velocity": 0.7480314960629921,
          "duration": 0.20689649999999915
        },
        {
          "name": "D3",
          "midi": 50,
          "time": 179.58616199999932,
          "velocity": 0.7480314960629921,
          "duration": 0.20689649999999915
        },
        {
          "name": "D4",
          "midi": 62,
          "time": 179.79305849999932,
          "velocity": 0.7480314960629921,
          "duration": 0.20689649999999915
        },
        {
          "name": "A3",
          "midi": 57,
          "time": 179.79305849999932,
          "velocity": 0.7480314960629921,
          "duration": 0.20689649999999915
        },
        {
          "name": "D3",
          "midi": 50,
          "time": 179.79305849999932,
          "velocity": 0.7480314960629921,
          "duration": 0.20689649999999915
        },
        {
          "name": "D4",
          "midi": 62,
          "time": 179.99995499999932,
          "velocity": 0.7480314960629921,
          "duration": 0.20689649999999915
        },
        {
          "name": "A3",
          "midi": 57,
          "time": 179.99995499999932,
          "velocity": 0.7480314960629921,
          "duration": 0.20689649999999915
        },
        {
          "name": "D3",
          "midi": 50,
          "time": 179.99995499999932,
          "velocity": 0.7480314960629921,
          "duration": 0.20689649999999915
        },
        {
          "name": "D4",
          "midi": 62,
          "time": 180.20685149999932,
          "velocity": 0.7480314960629921,
          "duration": 0.20689649999999915
        },
        {
          "name": "A3",
          "midi": 57,
          "time": 180.20685149999932,
          "velocity": 0.7480314960629921,
          "duration": 0.20689649999999915
        },
        {
          "name": "D3",
          "midi": 50,
          "time": 180.20685149999932,
          "velocity": 0.7480314960629921,
          "duration": 0.20689649999999915
        },
        {
          "name": "D4",
          "midi": 62,
          "time": 180.41374799999932,
          "velocity": 0.7480314960629921,
          "duration": 0.20689649999999915
        },
        {
          "name": "A3",
          "midi": 57,
          "time": 180.41374799999932,
          "velocity": 0.7480314960629921,
          "duration": 0.20689649999999915
        },
        {
          "name": "D3",
          "midi": 50,
          "time": 180.41374799999932,
          "velocity": 0.7480314960629921,
          "duration": 0.20689649999999915
        },
        {
          "name": "D4",
          "midi": 62,
          "time": 180.62064449999932,
          "velocity": 0.7480314960629921,
          "duration": 0.20689649999999915
        },
        {
          "name": "A3",
          "midi": 57,
          "time": 180.62064449999932,
          "velocity": 0.7480314960629921,
          "duration": 0.20689649999999915
        },
        {
          "name": "D3",
          "midi": 50,
          "time": 180.62064449999932,
          "velocity": 0.7480314960629921,
          "duration": 0.20689649999999915
        },
        {
          "name": "D4",
          "midi": 62,
          "time": 180.82754099999931,
          "velocity": 0.7480314960629921,
          "duration": 0.20689649999999915
        },
        {
          "name": "A3",
          "midi": 57,
          "time": 180.82754099999931,
          "velocity": 0.7480314960629921,
          "duration": 0.20689649999999915
        },
        {
          "name": "D3",
          "midi": 50,
          "time": 180.82754099999931,
          "velocity": 0.7480314960629921,
          "duration": 0.20689649999999915
        },
        {
          "name": "D4",
          "midi": 62,
          "time": 181.0344374999993,
          "velocity": 0.7480314960629921,
          "duration": 0.20689649999999915
        },
        {
          "name": "A3",
          "midi": 57,
          "time": 181.0344374999993,
          "velocity": 0.7480314960629921,
          "duration": 0.20689649999999915
        },
        {
          "name": "D3",
          "midi": 50,
          "time": 181.0344374999993,
          "velocity": 0.7480314960629921,
          "duration": 0.20689649999999915
        },
        {
          "name": "C4",
          "midi": 60,
          "time": 181.2413339999993,
          "velocity": 0.7480314960629921,
          "duration": 0.20689649999999915
        },
        {
          "name": "G3",
          "midi": 55,
          "time": 181.2413339999993,
          "velocity": 0.7480314960629921,
          "duration": 0.20689649999999915
        },
        {
          "name": "C3",
          "midi": 48,
          "time": 181.2413339999993,
          "velocity": 0.7480314960629921,
          "duration": 0.20689649999999915
        },
        {
          "name": "C4",
          "midi": 60,
          "time": 181.4482304999993,
          "velocity": 0.7480314960629921,
          "duration": 0.20689649999999915
        },
        {
          "name": "G3",
          "midi": 55,
          "time": 181.4482304999993,
          "velocity": 0.7480314960629921,
          "duration": 0.20689649999999915
        },
        {
          "name": "C3",
          "midi": 48,
          "time": 181.4482304999993,
          "velocity": 0.7480314960629921,
          "duration": 0.20689649999999915
        },
        {
          "name": "C4",
          "midi": 60,
          "time": 181.6551269999993,
          "velocity": 0.7480314960629921,
          "duration": 0.20689649999999915
        },
        {
          "name": "G3",
          "midi": 55,
          "time": 181.6551269999993,
          "velocity": 0.7480314960629921,
          "duration": 0.20689649999999915
        },
        {
          "name": "C3",
          "midi": 48,
          "time": 181.6551269999993,
          "velocity": 0.7480314960629921,
          "duration": 0.20689649999999915
        },
        {
          "name": "C4",
          "midi": 60,
          "time": 181.8620234999993,
          "velocity": 0.7480314960629921,
          "duration": 0.20689649999999915
        },
        {
          "name": "G3",
          "midi": 55,
          "time": 181.8620234999993,
          "velocity": 0.7480314960629921,
          "duration": 0.20689649999999915
        },
        {
          "name": "C3",
          "midi": 48,
          "time": 181.8620234999993,
          "velocity": 0.7480314960629921,
          "duration": 0.20689649999999915
        },
        {
          "name": "C4",
          "midi": 60,
          "time": 182.0689199999993,
          "velocity": 0.7480314960629921,
          "duration": 0.20689649999999915
        },
        {
          "name": "G3",
          "midi": 55,
          "time": 182.0689199999993,
          "velocity": 0.7480314960629921,
          "duration": 0.20689649999999915
        },
        {
          "name": "C3",
          "midi": 48,
          "time": 182.0689199999993,
          "velocity": 0.7480314960629921,
          "duration": 0.20689649999999915
        },
        {
          "name": "C4",
          "midi": 60,
          "time": 182.2758164999993,
          "velocity": 0.7480314960629921,
          "duration": 0.20689649999999915
        },
        {
          "name": "G3",
          "midi": 55,
          "time": 182.2758164999993,
          "velocity": 0.7480314960629921,
          "duration": 0.20689649999999915
        },
        {
          "name": "C3",
          "midi": 48,
          "time": 182.2758164999993,
          "velocity": 0.7480314960629921,
          "duration": 0.20689649999999915
        },
        {
          "name": "C4",
          "midi": 60,
          "time": 182.4827129999993,
          "velocity": 0.7480314960629921,
          "duration": 0.20689649999999915
        },
        {
          "name": "G3",
          "midi": 55,
          "time": 182.4827129999993,
          "velocity": 0.7480314960629921,
          "duration": 0.20689649999999915
        },
        {
          "name": "C3",
          "midi": 48,
          "time": 182.4827129999993,
          "velocity": 0.7480314960629921,
          "duration": 0.20689649999999915
        },
        {
          "name": "C4",
          "midi": 60,
          "time": 182.6896094999993,
          "velocity": 0.7480314960629921,
          "duration": 0.20689649999999915
        },
        {
          "name": "G3",
          "midi": 55,
          "time": 182.6896094999993,
          "velocity": 0.7480314960629921,
          "duration": 0.20689649999999915
        },
        {
          "name": "C3",
          "midi": 48,
          "time": 182.6896094999993,
          "velocity": 0.7480314960629921,
          "duration": 0.20689649999999915
        },
        {
          "name": "C4",
          "midi": 60,
          "time": 182.8965059999993,
          "velocity": 0.7480314960629921,
          "duration": 0.20689649999999915
        },
        {
          "name": "G3",
          "midi": 55,
          "time": 182.8965059999993,
          "velocity": 0.7480314960629921,
          "duration": 0.20689649999999915
        },
        {
          "name": "C3",
          "midi": 48,
          "time": 182.8965059999993,
          "velocity": 0.7480314960629921,
          "duration": 0.20689649999999915
        },
        {
          "name": "C4",
          "midi": 60,
          "time": 183.1034024999993,
          "velocity": 0.7480314960629921,
          "duration": 0.20689649999999915
        },
        {
          "name": "G3",
          "midi": 55,
          "time": 183.1034024999993,
          "velocity": 0.7480314960629921,
          "duration": 0.20689649999999915
        },
        {
          "name": "C3",
          "midi": 48,
          "time": 183.1034024999993,
          "velocity": 0.7480314960629921,
          "duration": 0.20689649999999915
        },
        {
          "name": "C4",
          "midi": 60,
          "time": 183.3102989999993,
          "velocity": 0.7480314960629921,
          "duration": 0.20689649999999915
        },
        {
          "name": "G3",
          "midi": 55,
          "time": 183.3102989999993,
          "velocity": 0.7480314960629921,
          "duration": 0.20689649999999915
        },
        {
          "name": "C3",
          "midi": 48,
          "time": 183.3102989999993,
          "velocity": 0.7480314960629921,
          "duration": 0.20689649999999915
        },
        {
          "name": "C4",
          "midi": 60,
          "time": 183.5171954999993,
          "velocity": 0.7480314960629921,
          "duration": 0.20689649999999915
        },
        {
          "name": "G3",
          "midi": 55,
          "time": 183.5171954999993,
          "velocity": 0.7480314960629921,
          "duration": 0.20689649999999915
        },
        {
          "name": "C3",
          "midi": 48,
          "time": 183.5171954999993,
          "velocity": 0.7480314960629921,
          "duration": 0.20689649999999915
        },
        {
          "name": "C4",
          "midi": 60,
          "time": 183.7240919999993,
          "velocity": 0.7480314960629921,
          "duration": 0.20689649999999915
        },
        {
          "name": "G3",
          "midi": 55,
          "time": 183.7240919999993,
          "velocity": 0.7480314960629921,
          "duration": 0.20689649999999915
        },
        {
          "name": "C3",
          "midi": 48,
          "time": 183.7240919999993,
          "velocity": 0.7480314960629921,
          "duration": 0.20689649999999915
        },
        {
          "name": "C4",
          "midi": 60,
          "time": 183.9309884999993,
          "velocity": 0.7480314960629921,
          "duration": 0.20689649999999915
        },
        {
          "name": "G3",
          "midi": 55,
          "time": 183.9309884999993,
          "velocity": 0.7480314960629921,
          "duration": 0.20689649999999915
        },
        {
          "name": "C3",
          "midi": 48,
          "time": 183.9309884999993,
          "velocity": 0.7480314960629921,
          "duration": 0.20689649999999915
        },
        {
          "name": "B3",
          "midi": 59,
          "time": 184.1378849999993,
          "velocity": 0.7480314960629921,
          "duration": 0.20689649999999915
        },
        {
          "name": "F#3",
          "midi": 54,
          "time": 184.1378849999993,
          "velocity": 0.7480314960629921,
          "duration": 0.20689649999999915
        },
        {
          "name": "B2",
          "midi": 47,
          "time": 184.1378849999993,
          "velocity": 0.7480314960629921,
          "duration": 0.20689649999999915
        },
        {
          "name": "B3",
          "midi": 59,
          "time": 184.3447814999993,
          "velocity": 0.7480314960629921,
          "duration": 0.20689649999999915
        },
        {
          "name": "F#3",
          "midi": 54,
          "time": 184.3447814999993,
          "velocity": 0.7480314960629921,
          "duration": 0.20689649999999915
        },
        {
          "name": "B2",
          "midi": 47,
          "time": 184.3447814999993,
          "velocity": 0.7480314960629921,
          "duration": 0.20689649999999915
        },
        {
          "name": "B3",
          "midi": 59,
          "time": 184.5516779999993,
          "velocity": 0.7480314960629921,
          "duration": 0.20689649999999915
        },
        {
          "name": "F#3",
          "midi": 54,
          "time": 184.5516779999993,
          "velocity": 0.7480314960629921,
          "duration": 0.20689649999999915
        },
        {
          "name": "B2",
          "midi": 47,
          "time": 184.5516779999993,
          "velocity": 0.7480314960629921,
          "duration": 0.20689649999999915
        },
        {
          "name": "B3",
          "midi": 59,
          "time": 184.7585744999993,
          "velocity": 0.7480314960629921,
          "duration": 0.20689649999999915
        },
        {
          "name": "F#3",
          "midi": 54,
          "time": 184.7585744999993,
          "velocity": 0.7480314960629921,
          "duration": 0.20689649999999915
        },
        {
          "name": "B2",
          "midi": 47,
          "time": 184.7585744999993,
          "velocity": 0.7480314960629921,
          "duration": 0.20689649999999915
        },
        {
          "name": "B3",
          "midi": 59,
          "time": 184.9654709999993,
          "velocity": 0.7480314960629921,
          "duration": 0.20689649999999915
        },
        {
          "name": "F#3",
          "midi": 54,
          "time": 184.9654709999993,
          "velocity": 0.7480314960629921,
          "duration": 0.20689649999999915
        },
        {
          "name": "B2",
          "midi": 47,
          "time": 184.9654709999993,
          "velocity": 0.7480314960629921,
          "duration": 0.20689649999999915
        },
        {
          "name": "B3",
          "midi": 59,
          "time": 185.1723674999993,
          "velocity": 0.7480314960629921,
          "duration": 0.20689649999999915
        },
        {
          "name": "F#3",
          "midi": 54,
          "time": 185.1723674999993,
          "velocity": 0.7480314960629921,
          "duration": 0.20689649999999915
        },
        {
          "name": "B2",
          "midi": 47,
          "time": 185.1723674999993,
          "velocity": 0.7480314960629921,
          "duration": 0.20689649999999915
        },
        {
          "name": "B3",
          "midi": 59,
          "time": 185.3792639999993,
          "velocity": 0.7480314960629921,
          "duration": 0.20689649999999915
        },
        {
          "name": "F#3",
          "midi": 54,
          "time": 185.3792639999993,
          "velocity": 0.7480314960629921,
          "duration": 0.20689649999999915
        },
        {
          "name": "B2",
          "midi": 47,
          "time": 185.3792639999993,
          "velocity": 0.7480314960629921,
          "duration": 0.20689649999999915
        },
        {
          "name": "B3",
          "midi": 59,
          "time": 185.5861604999993,
          "velocity": 0.7480314960629921,
          "duration": 0.20689649999999915
        },
        {
          "name": "F#3",
          "midi": 54,
          "time": 185.5861604999993,
          "velocity": 0.7480314960629921,
          "duration": 0.20689649999999915
        },
        {
          "name": "B2",
          "midi": 47,
          "time": 185.5861604999993,
          "velocity": 0.7480314960629921,
          "duration": 0.20689649999999915
        },
        {
          "name": "B3",
          "midi": 59,
          "time": 185.7930569999993,
          "velocity": 0.7480314960629921,
          "duration": 0.20689649999999915
        },
        {
          "name": "F#3",
          "midi": 54,
          "time": 185.7930569999993,
          "velocity": 0.7480314960629921,
          "duration": 0.20689649999999915
        },
        {
          "name": "B2",
          "midi": 47,
          "time": 185.7930569999993,
          "velocity": 0.7480314960629921,
          "duration": 0.20689649999999915
        },
        {
          "name": "B3",
          "midi": 59,
          "time": 185.9999534999993,
          "velocity": 0.7480314960629921,
          "duration": 0.20689649999999915
        },
        {
          "name": "F#3",
          "midi": 54,
          "time": 185.9999534999993,
          "velocity": 0.7480314960629921,
          "duration": 0.20689649999999915
        },
        {
          "name": "B2",
          "midi": 47,
          "time": 185.9999534999993,
          "velocity": 0.7480314960629921,
          "duration": 0.20689649999999915
        },
        {
          "name": "B3",
          "midi": 59,
          "time": 186.2068499999993,
          "velocity": 0.7480314960629921,
          "duration": 0.20689649999999915
        },
        {
          "name": "F#3",
          "midi": 54,
          "time": 186.2068499999993,
          "velocity": 0.7480314960629921,
          "duration": 0.20689649999999915
        },
        {
          "name": "B2",
          "midi": 47,
          "time": 186.2068499999993,
          "velocity": 0.7480314960629921,
          "duration": 0.20689649999999915
        },
        {
          "name": "B3",
          "midi": 59,
          "time": 186.4137464999993,
          "velocity": 0.7480314960629921,
          "duration": 0.20689649999999915
        },
        {
          "name": "F#3",
          "midi": 54,
          "time": 186.4137464999993,
          "velocity": 0.7480314960629921,
          "duration": 0.20689649999999915
        },
        {
          "name": "B2",
          "midi": 47,
          "time": 186.4137464999993,
          "velocity": 0.7480314960629921,
          "duration": 0.20689649999999915
        },
        {
          "name": "B3",
          "midi": 59,
          "time": 186.6206429999993,
          "velocity": 0.7480314960629921,
          "duration": 0.20689649999999915
        },
        {
          "name": "F#3",
          "midi": 54,
          "time": 186.6206429999993,
          "velocity": 0.7480314960629921,
          "duration": 0.20689649999999915
        },
        {
          "name": "B2",
          "midi": 47,
          "time": 186.6206429999993,
          "velocity": 0.7480314960629921,
          "duration": 0.20689649999999915
        },
        {
          "name": "B3",
          "midi": 59,
          "time": 186.8275394999993,
          "velocity": 0.7480314960629921,
          "duration": 0.20689649999999915
        },
        {
          "name": "F#3",
          "midi": 54,
          "time": 186.8275394999993,
          "velocity": 0.7480314960629921,
          "duration": 0.20689649999999915
        },
        {
          "name": "B2",
          "midi": 47,
          "time": 186.8275394999993,
          "velocity": 0.7480314960629921,
          "duration": 0.20689649999999915
        },
        {
          "name": "A4",
          "midi": 69,
          "time": 187.0344359999993,
          "velocity": 0.7480314960629921,
          "duration": 0.20689649999999915
        },
        {
          "name": "B3",
          "midi": 59,
          "time": 187.0344359999993,
          "velocity": 0.7480314960629921,
          "duration": 0.20689649999999915
        },
        {
          "name": "D4",
          "midi": 62,
          "time": 187.0344359999993,
          "velocity": 0.7480314960629921,
          "duration": 0.20689649999999915
        },
        {
          "name": "D3",
          "midi": 50,
          "time": 187.0344359999993,
          "velocity": 0.7480314960629921,
          "duration": 0.20689649999999915
        },
        {
          "name": "A2",
          "midi": 45,
          "time": 187.0344359999993,
          "velocity": 0.7480314960629921,
          "duration": 0.20689649999999915
        },
        {
          "name": "A4",
          "midi": 69,
          "time": 187.2413324999993,
          "velocity": 0.7480314960629921,
          "duration": 0.20689649999999915
        },
        {
          "name": "B3",
          "midi": 59,
          "time": 187.2413324999993,
          "velocity": 0.7480314960629921,
          "duration": 0.20689649999999915
        },
        {
          "name": "C4",
          "midi": 60,
          "time": 187.2413324999993,
          "velocity": 0.5511811023622047,
          "duration": 0.20689649999999915
        },
        {
          "name": "D3",
          "midi": 50,
          "time": 187.2413324999993,
          "velocity": 0.7480314960629921,
          "duration": 0.20689649999999915
        },
        {
          "name": "D3",
          "midi": 50,
          "time": 187.2413324999993,
          "velocity": 0.7480314960629921,
          "duration": 0.20689649999999915
        },
        {
          "name": "A4",
          "midi": 69,
          "time": 187.4482289999993,
          "velocity": 0.7480314960629921,
          "duration": 0.20689649999999915
        },
        {
          "name": "B3",
          "midi": 59,
          "time": 187.4482289999993,
          "velocity": 0.7480314960629921,
          "duration": 0.20689649999999915
        },
        {
          "name": "C4",
          "midi": 60,
          "time": 187.4482289999993,
          "velocity": 0.7480314960629921,
          "duration": 0.20689649999999915
        },
        {
          "name": "D3",
          "midi": 50,
          "time": 187.4482289999993,
          "velocity": 0.7480314960629921,
          "duration": 0.20689649999999915
        },
        {
          "name": "D3",
          "midi": 50,
          "time": 187.4482289999993,
          "velocity": 0.7480314960629921,
          "duration": 0.20689649999999915
        },
        {
          "name": "A4",
          "midi": 69,
          "time": 187.6551254999993,
          "velocity": 0.7480314960629921,
          "duration": 0.20689649999999915
        },
        {
          "name": "B3",
          "midi": 59,
          "time": 187.6551254999993,
          "velocity": 0.7480314960629921,
          "duration": 0.20689649999999915
        },
        {
          "name": "C4",
          "midi": 60,
          "time": 187.6551254999993,
          "velocity": 0.7480314960629921,
          "duration": 0.20689649999999915
        },
        {
          "name": "D3",
          "midi": 50,
          "time": 187.6551254999993,
          "velocity": 0.7480314960629921,
          "duration": 0.20689649999999915
        },
        {
          "name": "A2",
          "midi": 45,
          "time": 187.6551254999993,
          "velocity": 0.7480314960629921,
          "duration": 0.20689649999999915
        },
        {
          "name": "A4",
          "midi": 69,
          "time": 187.86202199999929,
          "velocity": 0.7480314960629921,
          "duration": 0.4137929999999983
        },
        {
          "name": "B3",
          "midi": 59,
          "time": 187.86202199999929,
          "velocity": 0.7480314960629921,
          "duration": 0.4137929999999983
        },
        {
          "name": "C4",
          "midi": 60,
          "time": 187.86202199999929,
          "velocity": 0.7480314960629921,
          "duration": 0.4137929999999983
        },
        {
          "name": "D3",
          "midi": 50,
          "time": 187.86202199999929,
          "velocity": 0.7480314960629921,
          "duration": 0.4137929999999983
        },
        {
          "name": "D3",
          "midi": 50,
          "time": 187.86202199999929,
          "velocity": 0.7480314960629921,
          "duration": 0.4137929999999983
        },
        {
          "name": "A4",
          "midi": 69,
          "time": 188.27581499999928,
          "velocity": 0.7480314960629921,
          "duration": 0.20689649999999915
        },
        {
          "name": "B3",
          "midi": 59,
          "time": 188.27581499999928,
          "velocity": 0.7480314960629921,
          "duration": 0.20689649999999915
        },
        {
          "name": "C4",
          "midi": 60,
          "time": 188.27581499999928,
          "velocity": 0.7480314960629921,
          "duration": 0.20689649999999915
        },
        {
          "name": "D3",
          "midi": 50,
          "time": 188.27581499999928,
          "velocity": 0.7480314960629921,
          "duration": 0.20689649999999915
        },
        {
          "name": "A2",
          "midi": 45,
          "time": 188.27581499999928,
          "velocity": 0.7480314960629921,
          "duration": 0.20689649999999915
        },
        {
          "name": "A4",
          "midi": 69,
          "time": 188.48271149999928,
          "velocity": 0.7480314960629921,
          "duration": 0.20689649999999915
        },
        {
          "name": "B3",
          "midi": 59,
          "time": 188.48271149999928,
          "velocity": 0.7480314960629921,
          "duration": 0.20689649999999915
        },
        {
          "name": "C4",
          "midi": 60,
          "time": 188.48271149999928,
          "velocity": 0.7480314960629921,
          "duration": 0.20689649999999915
        },
        {
          "name": "D3",
          "midi": 50,
          "time": 188.48271149999928,
          "velocity": 0.7480314960629921,
          "duration": 0.20689649999999915
        },
        {
          "name": "D3",
          "midi": 50,
          "time": 188.48271149999928,
          "velocity": 0.7480314960629921,
          "duration": 0.20689649999999915
        },
        {
          "name": "A4",
          "midi": 69,
          "time": 188.68960799999928,
          "velocity": 0.7480314960629921,
          "duration": 0.20689649999999915
        },
        {
          "name": "B3",
          "midi": 59,
          "time": 188.68960799999928,
          "velocity": 0.7480314960629921,
          "duration": 0.20689649999999915
        },
        {
          "name": "C4",
          "midi": 60,
          "time": 188.68960799999928,
          "velocity": 0.7480314960629921,
          "duration": 0.20689649999999915
        },
        {
          "name": "D3",
          "midi": 50,
          "time": 188.68960799999928,
          "velocity": 0.7480314960629921,
          "duration": 0.20689649999999915
        },
        {
          "name": "D3",
          "midi": 50,
          "time": 188.68960799999928,
          "velocity": 0.7480314960629921,
          "duration": 0.20689649999999915
        },
        {
          "name": "A4",
          "midi": 69,
          "time": 188.89650449999928,
          "velocity": 0.7480314960629921,
          "duration": 0.20689649999999915
        },
        {
          "name": "B3",
          "midi": 59,
          "time": 188.89650449999928,
          "velocity": 0.7480314960629921,
          "duration": 0.20689649999999915
        },
        {
          "name": "C4",
          "midi": 60,
          "time": 188.89650449999928,
          "velocity": 0.7480314960629921,
          "duration": 0.20689649999999915
        },
        {
          "name": "D3",
          "midi": 50,
          "time": 188.89650449999928,
          "velocity": 0.7480314960629921,
          "duration": 0.20689649999999915
        },
        {
          "name": "A2",
          "midi": 45,
          "time": 188.89650449999928,
          "velocity": 0.7480314960629921,
          "duration": 0.20689649999999915
        },
        {
          "name": "A4",
          "midi": 69,
          "time": 189.10340099999928,
          "velocity": 0.7480314960629921,
          "duration": 0.4137929999999983
        },
        {
          "name": "B3",
          "midi": 59,
          "time": 189.10340099999928,
          "velocity": 0.7480314960629921,
          "duration": 0.4137929999999983
        },
        {
          "name": "C4",
          "midi": 60,
          "time": 189.10340099999928,
          "velocity": 0.7480314960629921,
          "duration": 0.4137929999999983
        },
        {
          "name": "D3",
          "midi": 50,
          "time": 189.10340099999928,
          "velocity": 0.7480314960629921,
          "duration": 0.4137929999999983
        },
        {
          "name": "D3",
          "midi": 50,
          "time": 189.10340099999928,
          "velocity": 0.7480314960629921,
          "duration": 0.4137929999999983
        },
        {
          "name": "A4",
          "midi": 69,
          "time": 189.51719399999928,
          "velocity": 0.7480314960629921,
          "duration": 0.20689649999999915
        },
        {
          "name": "B3",
          "midi": 59,
          "time": 189.51719399999928,
          "velocity": 0.7480314960629921,
          "duration": 0.20689649999999915
        },
        {
          "name": "C4",
          "midi": 60,
          "time": 189.51719399999928,
          "velocity": 0.7480314960629921,
          "duration": 0.20689649999999915
        },
        {
          "name": "D3",
          "midi": 50,
          "time": 189.51719399999928,
          "velocity": 0.7480314960629921,
          "duration": 0.20689649999999915
        },
        {
          "name": "A2",
          "midi": 45,
          "time": 189.51719399999928,
          "velocity": 0.7480314960629921,
          "duration": 0.20689649999999915
        },
        {
          "name": "A4",
          "midi": 69,
          "time": 189.72409049999928,
          "velocity": 0.7480314960629921,
          "duration": 0.20689649999999915
        },
        {
          "name": "B3",
          "midi": 59,
          "time": 189.72409049999928,
          "velocity": 0.7480314960629921,
          "duration": 0.20689649999999915
        },
        {
          "name": "C4",
          "midi": 60,
          "time": 189.72409049999928,
          "velocity": 0.7480314960629921,
          "duration": 0.20689649999999915
        },
        {
          "name": "D3",
          "midi": 50,
          "time": 189.72409049999928,
          "velocity": 0.7480314960629921,
          "duration": 0.20689649999999915
        },
        {
          "name": "D3",
          "midi": 50,
          "time": 189.72409049999928,
          "velocity": 0.7480314960629921,
          "duration": 0.20689649999999915
        },
        {
          "name": "A4",
          "midi": 69,
          "time": 189.93098699999928,
          "velocity": 0.7480314960629921,
          "duration": 0.20689649999999915
        },
        {
          "name": "B3",
          "midi": 59,
          "time": 189.93098699999928,
          "velocity": 0.7480314960629921,
          "duration": 0.20689649999999915
        },
        {
          "name": "C4",
          "midi": 60,
          "time": 189.93098699999928,
          "velocity": 0.7480314960629921,
          "duration": 0.20689649999999915
        },
        {
          "name": "D3",
          "midi": 50,
          "time": 189.93098699999928,
          "velocity": 0.7480314960629921,
          "duration": 0.20689649999999915
        },
        {
          "name": "D3",
          "midi": 50,
          "time": 189.93098699999928,
          "velocity": 0.7480314960629921,
          "duration": 0.20689649999999915
        },
        {
          "name": "A4",
          "midi": 69,
          "time": 190.34477999999928,
          "velocity": 0.7480314960629921,
          "duration": 0.20689649999999915
        },
        {
          "name": "B3",
          "midi": 59,
          "time": 190.34477999999928,
          "velocity": 0.7480314960629921,
          "duration": 0.20689649999999915
        },
        {
          "name": "D4",
          "midi": 62,
          "time": 190.34477999999928,
          "velocity": 0.7480314960629921,
          "duration": 0.20689649999999915
        },
        {
          "name": "D3",
          "midi": 50,
          "time": 190.34477999999928,
          "velocity": 0.7480314960629921,
          "duration": 0.20689649999999915
        },
        {
          "name": "A2",
          "midi": 45,
          "time": 190.34477999999928,
          "velocity": 0.7480314960629921,
          "duration": 0.20689649999999915
        },
        {
          "name": "A4",
          "midi": 69,
          "time": 190.55167649999927,
          "velocity": 0.7480314960629921,
          "duration": 0.20689649999999915
        },
        {
          "name": "B3",
          "midi": 59,
          "time": 190.55167649999927,
          "velocity": 0.7480314960629921,
          "duration": 0.20689649999999915
        },
        {
          "name": "C4",
          "midi": 60,
          "time": 190.55167649999927,
          "velocity": 0.5511811023622047,
          "duration": 0.20689649999999915
        },
        {
          "name": "D3",
          "midi": 50,
          "time": 190.55167649999927,
          "velocity": 0.7480314960629921,
          "duration": 0.20689649999999915
        },
        {
          "name": "D3",
          "midi": 50,
          "time": 190.55167649999927,
          "velocity": 0.7480314960629921,
          "duration": 0.20689649999999915
        },
        {
          "name": "A4",
          "midi": 69,
          "time": 190.75857299999927,
          "velocity": 0.7480314960629921,
          "duration": 0.20689649999999915
        },
        {
          "name": "B3",
          "midi": 59,
          "time": 190.75857299999927,
          "velocity": 0.7480314960629921,
          "duration": 0.20689649999999915
        },
        {
          "name": "C4",
          "midi": 60,
          "time": 190.75857299999927,
          "velocity": 0.7480314960629921,
          "duration": 0.20689649999999915
        },
        {
          "name": "D3",
          "midi": 50,
          "time": 190.75857299999927,
          "velocity": 0.7480314960629921,
          "duration": 0.20689649999999915
        },
        {
          "name": "D3",
          "midi": 50,
          "time": 190.75857299999927,
          "velocity": 0.7480314960629921,
          "duration": 0.20689649999999915
        },
        {
          "name": "A4",
          "midi": 69,
          "time": 190.96546949999927,
          "velocity": 0.7480314960629921,
          "duration": 0.20689649999999915
        },
        {
          "name": "B3",
          "midi": 59,
          "time": 190.96546949999927,
          "velocity": 0.7480314960629921,
          "duration": 0.20689649999999915
        },
        {
          "name": "C4",
          "midi": 60,
          "time": 190.96546949999927,
          "velocity": 0.7480314960629921,
          "duration": 0.20689649999999915
        },
        {
          "name": "D3",
          "midi": 50,
          "time": 190.96546949999927,
          "velocity": 0.7480314960629921,
          "duration": 0.20689649999999915
        },
        {
          "name": "A2",
          "midi": 45,
          "time": 190.96546949999927,
          "velocity": 0.7480314960629921,
          "duration": 0.20689649999999915
        },
        {
          "name": "A4",
          "midi": 69,
          "time": 191.17236599999927,
          "velocity": 0.7480314960629921,
          "duration": 0.4137929999999983
        },
        {
          "name": "B3",
          "midi": 59,
          "time": 191.17236599999927,
          "velocity": 0.7480314960629921,
          "duration": 0.4137929999999983
        },
        {
          "name": "C4",
          "midi": 60,
          "time": 191.17236599999927,
          "velocity": 0.7480314960629921,
          "duration": 0.4137929999999983
        },
        {
          "name": "D3",
          "midi": 50,
          "time": 191.17236599999927,
          "velocity": 0.7480314960629921,
          "duration": 0.4137929999999983
        },
        {
          "name": "D3",
          "midi": 50,
          "time": 191.17236599999927,
          "velocity": 0.7480314960629921,
          "duration": 0.4137929999999983
        },
        {
          "name": "A4",
          "midi": 69,
          "time": 191.58615899999927,
          "velocity": 0.7480314960629921,
          "duration": 0.20689649999999915
        },
        {
          "name": "B3",
          "midi": 59,
          "time": 191.58615899999927,
          "velocity": 0.7480314960629921,
          "duration": 0.20689649999999915
        },
        {
          "name": "C4",
          "midi": 60,
          "time": 191.58615899999927,
          "velocity": 0.7480314960629921,
          "duration": 0.20689649999999915
        },
        {
          "name": "D3",
          "midi": 50,
          "time": 191.58615899999927,
          "velocity": 0.7480314960629921,
          "duration": 0.20689649999999915
        },
        {
          "name": "A2",
          "midi": 45,
          "time": 191.58615899999927,
          "velocity": 0.7480314960629921,
          "duration": 0.20689649999999915
        },
        {
          "name": "A4",
          "midi": 69,
          "time": 191.79305549999927,
          "velocity": 0.7480314960629921,
          "duration": 0.20689649999999915
        },
        {
          "name": "B3",
          "midi": 59,
          "time": 191.79305549999927,
          "velocity": 0.7480314960629921,
          "duration": 0.20689649999999915
        },
        {
          "name": "C4",
          "midi": 60,
          "time": 191.79305549999927,
          "velocity": 0.7480314960629921,
          "duration": 0.20689649999999915
        },
        {
          "name": "D3",
          "midi": 50,
          "time": 191.79305549999927,
          "velocity": 0.7480314960629921,
          "duration": 0.20689649999999915
        },
        {
          "name": "D3",
          "midi": 50,
          "time": 191.79305549999927,
          "velocity": 0.7480314960629921,
          "duration": 0.20689649999999915
        },
        {
          "name": "A4",
          "midi": 69,
          "time": 191.99995199999927,
          "velocity": 0.7480314960629921,
          "duration": 0.20689649999999915
        },
        {
          "name": "B3",
          "midi": 59,
          "time": 191.99995199999927,
          "velocity": 0.7480314960629921,
          "duration": 0.20689649999999915
        },
        {
          "name": "C4",
          "midi": 60,
          "time": 191.99995199999927,
          "velocity": 0.7480314960629921,
          "duration": 0.20689649999999915
        },
        {
          "name": "D3",
          "midi": 50,
          "time": 191.99995199999927,
          "velocity": 0.7480314960629921,
          "duration": 0.20689649999999915
        },
        {
          "name": "D3",
          "midi": 50,
          "time": 191.99995199999927,
          "velocity": 0.7480314960629921,
          "duration": 0.20689649999999915
        },
        {
          "name": "A4",
          "midi": 69,
          "time": 192.20684849999927,
          "velocity": 0.7480314960629921,
          "duration": 0.20689649999999915
        },
        {
          "name": "B3",
          "midi": 59,
          "time": 192.20684849999927,
          "velocity": 0.7480314960629921,
          "duration": 0.20689649999999915
        },
        {
          "name": "C4",
          "midi": 60,
          "time": 192.20684849999927,
          "velocity": 0.7480314960629921,
          "duration": 0.20689649999999915
        },
        {
          "name": "D3",
          "midi": 50,
          "time": 192.20684849999927,
          "velocity": 0.7480314960629921,
          "duration": 0.20689649999999915
        },
        {
          "name": "A2",
          "midi": 45,
          "time": 192.20684849999927,
          "velocity": 0.7480314960629921,
          "duration": 0.20689649999999915
        },
        {
          "name": "A4",
          "midi": 69,
          "time": 192.41374499999927,
          "velocity": 0.7480314960629921,
          "duration": 0.4137929999999983
        },
        {
          "name": "B3",
          "midi": 59,
          "time": 192.41374499999927,
          "velocity": 0.7480314960629921,
          "duration": 0.4137929999999983
        },
        {
          "name": "C4",
          "midi": 60,
          "time": 192.41374499999927,
          "velocity": 0.7480314960629921,
          "duration": 0.4137929999999983
        },
        {
          "name": "D3",
          "midi": 50,
          "time": 192.41374499999927,
          "velocity": 0.7480314960629921,
          "duration": 0.4137929999999983
        },
        {
          "name": "D3",
          "midi": 50,
          "time": 192.41374499999927,
          "velocity": 0.7480314960629921,
          "duration": 0.4137929999999983
        },
        {
          "name": "A4",
          "midi": 69,
          "time": 192.82753799999927,
          "velocity": 0.7480314960629921,
          "duration": 0.20689649999999915
        },
        {
          "name": "B3",
          "midi": 59,
          "time": 192.82753799999927,
          "velocity": 0.7480314960629921,
          "duration": 0.20689649999999915
        },
        {
          "name": "C4",
          "midi": 60,
          "time": 192.82753799999927,
          "velocity": 0.7480314960629921,
          "duration": 0.20689649999999915
        },
        {
          "name": "D3",
          "midi": 50,
          "time": 192.82753799999927,
          "velocity": 0.7480314960629921,
          "duration": 0.20689649999999915
        },
        {
          "name": "A2",
          "midi": 45,
          "time": 192.82753799999927,
          "velocity": 0.7480314960629921,
          "duration": 0.20689649999999915
        },
        {
          "name": "A4",
          "midi": 69,
          "time": 193.03443449999926,
          "velocity": 0.7480314960629921,
          "duration": 0.20689649999999915
        },
        {
          "name": "B3",
          "midi": 59,
          "time": 193.03443449999926,
          "velocity": 0.7480314960629921,
          "duration": 0.20689649999999915
        },
        {
          "name": "C4",
          "midi": 60,
          "time": 193.03443449999926,
          "velocity": 0.7480314960629921,
          "duration": 0.20689649999999915
        },
        {
          "name": "D3",
          "midi": 50,
          "time": 193.03443449999926,
          "velocity": 0.7480314960629921,
          "duration": 0.20689649999999915
        },
        {
          "name": "D3",
          "midi": 50,
          "time": 193.03443449999926,
          "velocity": 0.7480314960629921,
          "duration": 0.20689649999999915
        },
        {
          "name": "A4",
          "midi": 69,
          "time": 193.24133099999926,
          "velocity": 0.7480314960629921,
          "duration": 0.20689649999999915
        },
        {
          "name": "B3",
          "midi": 59,
          "time": 193.24133099999926,
          "velocity": 0.7480314960629921,
          "duration": 0.20689649999999915
        },
        {
          "name": "C4",
          "midi": 60,
          "time": 193.24133099999926,
          "velocity": 0.7480314960629921,
          "duration": 0.20689649999999915
        },
        {
          "name": "D3",
          "midi": 50,
          "time": 193.24133099999926,
          "velocity": 0.7480314960629921,
          "duration": 0.20689649999999915
        },
        {
          "name": "D3",
          "midi": 50,
          "time": 193.24133099999926,
          "velocity": 0.7480314960629921,
          "duration": 0.20689649999999915
        },
        {
          "name": "A4",
          "midi": 69,
          "time": 193.65512399999926,
          "velocity": 0.7480314960629921,
          "duration": 0.20689649999999915
        },
        {
          "name": "B3",
          "midi": 59,
          "time": 193.65512399999926,
          "velocity": 0.7480314960629921,
          "duration": 0.20689649999999915
        },
        {
          "name": "D4",
          "midi": 62,
          "time": 193.65512399999926,
          "velocity": 0.7480314960629921,
          "duration": 0.20689649999999915
        },
        {
          "name": "D3",
          "midi": 50,
          "time": 193.65512399999926,
          "velocity": 0.7480314960629921,
          "duration": 0.20689649999999915
        },
        {
          "name": "A2",
          "midi": 45,
          "time": 193.65512399999926,
          "velocity": 0.7480314960629921,
          "duration": 0.20689649999999915
        },
        {
          "name": "A4",
          "midi": 69,
          "time": 193.86202049999926,
          "velocity": 0.7480314960629921,
          "duration": 0.20689649999999915
        },
        {
          "name": "B3",
          "midi": 59,
          "time": 193.86202049999926,
          "velocity": 0.7480314960629921,
          "duration": 0.20689649999999915
        },
        {
          "name": "C4",
          "midi": 60,
          "time": 193.86202049999926,
          "velocity": 0.5511811023622047,
          "duration": 0.20689649999999915
        },
        {
          "name": "D3",
          "midi": 50,
          "time": 193.86202049999926,
          "velocity": 0.7480314960629921,
          "duration": 0.20689649999999915
        },
        {
          "name": "D3",
          "midi": 50,
          "time": 193.86202049999926,
          "velocity": 0.7480314960629921,
          "duration": 0.20689649999999915
        },
        {
          "name": "A4",
          "midi": 69,
          "time": 194.06891699999926,
          "velocity": 0.7480314960629921,
          "duration": 0.20689649999999915
        },
        {
          "name": "B3",
          "midi": 59,
          "time": 194.06891699999926,
          "velocity": 0.7480314960629921,
          "duration": 0.20689649999999915
        },
        {
          "name": "C4",
          "midi": 60,
          "time": 194.06891699999926,
          "velocity": 0.7480314960629921,
          "duration": 0.20689649999999915
        },
        {
          "name": "D3",
          "midi": 50,
          "time": 194.06891699999926,
          "velocity": 0.7480314960629921,
          "duration": 0.20689649999999915
        },
        {
          "name": "D3",
          "midi": 50,
          "time": 194.06891699999926,
          "velocity": 0.7480314960629921,
          "duration": 0.20689649999999915
        },
        {
          "name": "A4",
          "midi": 69,
          "time": 194.27581349999926,
          "velocity": 0.7480314960629921,
          "duration": 0.20689649999999915
        },
        {
          "name": "B3",
          "midi": 59,
          "time": 194.27581349999926,
          "velocity": 0.7480314960629921,
          "duration": 0.20689649999999915
        },
        {
          "name": "C4",
          "midi": 60,
          "time": 194.27581349999926,
          "velocity": 0.7480314960629921,
          "duration": 0.20689649999999915
        },
        {
          "name": "D3",
          "midi": 50,
          "time": 194.27581349999926,
          "velocity": 0.7480314960629921,
          "duration": 0.20689649999999915
        },
        {
          "name": "A2",
          "midi": 45,
          "time": 194.27581349999926,
          "velocity": 0.7480314960629921,
          "duration": 0.20689649999999915
        },
        {
          "name": "A4",
          "midi": 69,
          "time": 194.48270999999926,
          "velocity": 0.7480314960629921,
          "duration": 0.4137929999999983
        },
        {
          "name": "B3",
          "midi": 59,
          "time": 194.48270999999926,
          "velocity": 0.7480314960629921,
          "duration": 0.4137929999999983
        },
        {
          "name": "C4",
          "midi": 60,
          "time": 194.48270999999926,
          "velocity": 0.7480314960629921,
          "duration": 0.4137929999999983
        },
        {
          "name": "D3",
          "midi": 50,
          "time": 194.48270999999926,
          "velocity": 0.7480314960629921,
          "duration": 0.4137929999999983
        },
        {
          "name": "D3",
          "midi": 50,
          "time": 194.48270999999926,
          "velocity": 0.7480314960629921,
          "duration": 0.4137929999999983
        },
        {
          "name": "A4",
          "midi": 69,
          "time": 194.89650299999926,
          "velocity": 0.7480314960629921,
          "duration": 0.20689649999999915
        },
        {
          "name": "B3",
          "midi": 59,
          "time": 194.89650299999926,
          "velocity": 0.7480314960629921,
          "duration": 0.20689649999999915
        },
        {
          "name": "C4",
          "midi": 60,
          "time": 194.89650299999926,
          "velocity": 0.7480314960629921,
          "duration": 0.20689649999999915
        },
        {
          "name": "D3",
          "midi": 50,
          "time": 194.89650299999926,
          "velocity": 0.7480314960629921,
          "duration": 0.20689649999999915
        },
        {
          "name": "A2",
          "midi": 45,
          "time": 194.89650299999926,
          "velocity": 0.7480314960629921,
          "duration": 0.20689649999999915
        },
        {
          "name": "A4",
          "midi": 69,
          "time": 195.10339949999926,
          "velocity": 0.7480314960629921,
          "duration": 0.20689649999999915
        },
        {
          "name": "B3",
          "midi": 59,
          "time": 195.10339949999926,
          "velocity": 0.7480314960629921,
          "duration": 0.20689649999999915
        },
        {
          "name": "C4",
          "midi": 60,
          "time": 195.10339949999926,
          "velocity": 0.7480314960629921,
          "duration": 0.20689649999999915
        },
        {
          "name": "D3",
          "midi": 50,
          "time": 195.10339949999926,
          "velocity": 0.7480314960629921,
          "duration": 0.20689649999999915
        },
        {
          "name": "D3",
          "midi": 50,
          "time": 195.10339949999926,
          "velocity": 0.7480314960629921,
          "duration": 0.20689649999999915
        },
        {
          "name": "A4",
          "midi": 69,
          "time": 195.31029599999925,
          "velocity": 0.7480314960629921,
          "duration": 0.20689649999999915
        },
        {
          "name": "B3",
          "midi": 59,
          "time": 195.31029599999925,
          "velocity": 0.7480314960629921,
          "duration": 0.20689649999999915
        },
        {
          "name": "C4",
          "midi": 60,
          "time": 195.31029599999925,
          "velocity": 0.7480314960629921,
          "duration": 0.20689649999999915
        },
        {
          "name": "D3",
          "midi": 50,
          "time": 195.31029599999925,
          "velocity": 0.7480314960629921,
          "duration": 0.20689649999999915
        },
        {
          "name": "D3",
          "midi": 50,
          "time": 195.31029599999925,
          "velocity": 0.7480314960629921,
          "duration": 0.20689649999999915
        },
        {
          "name": "A4",
          "midi": 69,
          "time": 195.51719249999925,
          "velocity": 0.7480314960629921,
          "duration": 0.20689649999999915
        },
        {
          "name": "B3",
          "midi": 59,
          "time": 195.51719249999925,
          "velocity": 0.7480314960629921,
          "duration": 0.20689649999999915
        },
        {
          "name": "C4",
          "midi": 60,
          "time": 195.51719249999925,
          "velocity": 0.7480314960629921,
          "duration": 0.20689649999999915
        },
        {
          "name": "D3",
          "midi": 50,
          "time": 195.51719249999925,
          "velocity": 0.7480314960629921,
          "duration": 0.20689649999999915
        },
        {
          "name": "A2",
          "midi": 45,
          "time": 195.51719249999925,
          "velocity": 0.7480314960629921,
          "duration": 0.20689649999999915
        },
        {
          "name": "A4",
          "midi": 69,
          "time": 195.72408899999925,
          "velocity": 0.7480314960629921,
          "duration": 0.4137929999999983
        },
        {
          "name": "B3",
          "midi": 59,
          "time": 195.72408899999925,
          "velocity": 0.7480314960629921,
          "duration": 0.4137929999999983
        },
        {
          "name": "C4",
          "midi": 60,
          "time": 195.72408899999925,
          "velocity": 0.7480314960629921,
          "duration": 0.4137929999999983
        },
        {
          "name": "D3",
          "midi": 50,
          "time": 195.72408899999925,
          "velocity": 0.7480314960629921,
          "duration": 0.4137929999999983
        },
        {
          "name": "D3",
          "midi": 50,
          "time": 195.72408899999925,
          "velocity": 0.7480314960629921,
          "duration": 0.4137929999999983
        },
        {
          "name": "A4",
          "midi": 69,
          "time": 196.13788199999925,
          "velocity": 0.7480314960629921,
          "duration": 0.20689649999999915
        },
        {
          "name": "B3",
          "midi": 59,
          "time": 196.13788199999925,
          "velocity": 0.7480314960629921,
          "duration": 0.20689649999999915
        },
        {
          "name": "C4",
          "midi": 60,
          "time": 196.13788199999925,
          "velocity": 0.7480314960629921,
          "duration": 0.20689649999999915
        },
        {
          "name": "D3",
          "midi": 50,
          "time": 196.13788199999925,
          "velocity": 0.7480314960629921,
          "duration": 0.20689649999999915
        },
        {
          "name": "A2",
          "midi": 45,
          "time": 196.13788199999925,
          "velocity": 0.7480314960629921,
          "duration": 0.20689649999999915
        },
        {
          "name": "A4",
          "midi": 69,
          "time": 196.34477849999925,
          "velocity": 0.7480314960629921,
          "duration": 0.20689649999999915
        },
        {
          "name": "B3",
          "midi": 59,
          "time": 196.34477849999925,
          "velocity": 0.7480314960629921,
          "duration": 0.20689649999999915
        },
        {
          "name": "C4",
          "midi": 60,
          "time": 196.34477849999925,
          "velocity": 0.7480314960629921,
          "duration": 0.20689649999999915
        },
        {
          "name": "D3",
          "midi": 50,
          "time": 196.34477849999925,
          "velocity": 0.7480314960629921,
          "duration": 0.20689649999999915
        },
        {
          "name": "D3",
          "midi": 50,
          "time": 196.34477849999925,
          "velocity": 0.7480314960629921,
          "duration": 0.20689649999999915
        },
        {
          "name": "A4",
          "midi": 69,
          "time": 196.55167499999925,
          "velocity": 0.7480314960629921,
          "duration": 0.20689649999999915
        },
        {
          "name": "B3",
          "midi": 59,
          "time": 196.55167499999925,
          "velocity": 0.7480314960629921,
          "duration": 0.20689649999999915
        },
        {
          "name": "C4",
          "midi": 60,
          "time": 196.55167499999925,
          "velocity": 0.7480314960629921,
          "duration": 0.20689649999999915
        },
        {
          "name": "D3",
          "midi": 50,
          "time": 196.55167499999925,
          "velocity": 0.7480314960629921,
          "duration": 0.20689649999999915
        },
        {
          "name": "D3",
          "midi": 50,
          "time": 196.55167499999925,
          "velocity": 0.7480314960629921,
          "duration": 0.20689649999999915
        },
        {
          "name": "A4",
          "midi": 69,
          "time": 196.96546799999925,
          "velocity": 0.7480314960629921,
          "duration": 0.20689649999999915
        },
        {
          "name": "B3",
          "midi": 59,
          "time": 196.96546799999925,
          "velocity": 0.7480314960629921,
          "duration": 0.20689649999999915
        },
        {
          "name": "D4",
          "midi": 62,
          "time": 196.96546799999925,
          "velocity": 0.7480314960629921,
          "duration": 0.20689649999999915
        },
        {
          "name": "D3",
          "midi": 50,
          "time": 196.96546799999925,
          "velocity": 0.7480314960629921,
          "duration": 0.20689649999999915
        },
        {
          "name": "A2",
          "midi": 45,
          "time": 196.96546799999925,
          "velocity": 0.7480314960629921,
          "duration": 0.20689649999999915
        },
        {
          "name": "A4",
          "midi": 69,
          "time": 197.17236449999925,
          "velocity": 0.7480314960629921,
          "duration": 0.20689649999999915
        },
        {
          "name": "B3",
          "midi": 59,
          "time": 197.17236449999925,
          "velocity": 0.7480314960629921,
          "duration": 0.20689649999999915
        },
        {
          "name": "C4",
          "midi": 60,
          "time": 197.17236449999925,
          "velocity": 0.5511811023622047,
          "duration": 0.20689649999999915
        },
        {
          "name": "D3",
          "midi": 50,
          "time": 197.17236449999925,
          "velocity": 0.7480314960629921,
          "duration": 0.20689649999999915
        },
        {
          "name": "D3",
          "midi": 50,
          "time": 197.17236449999925,
          "velocity": 0.7480314960629921,
          "duration": 0.20689649999999915
        },
        {
          "name": "A4",
          "midi": 69,
          "time": 197.37926099999925,
          "velocity": 0.7480314960629921,
          "duration": 0.20689649999999915
        },
        {
          "name": "B3",
          "midi": 59,
          "time": 197.37926099999925,
          "velocity": 0.7480314960629921,
          "duration": 0.20689649999999915
        },
        {
          "name": "C4",
          "midi": 60,
          "time": 197.37926099999925,
          "velocity": 0.7480314960629921,
          "duration": 0.20689649999999915
        },
        {
          "name": "D3",
          "midi": 50,
          "time": 197.37926099999925,
          "velocity": 0.7480314960629921,
          "duration": 0.20689649999999915
        },
        {
          "name": "D3",
          "midi": 50,
          "time": 197.37926099999925,
          "velocity": 0.7480314960629921,
          "duration": 0.20689649999999915
        },
        {
          "name": "A4",
          "midi": 69,
          "time": 197.58615749999925,
          "velocity": 0.7480314960629921,
          "duration": 0.20689649999999915
        },
        {
          "name": "B3",
          "midi": 59,
          "time": 197.58615749999925,
          "velocity": 0.7480314960629921,
          "duration": 0.20689649999999915
        },
        {
          "name": "C4",
          "midi": 60,
          "time": 197.58615749999925,
          "velocity": 0.7480314960629921,
          "duration": 0.20689649999999915
        },
        {
          "name": "D3",
          "midi": 50,
          "time": 197.58615749999925,
          "velocity": 0.7480314960629921,
          "duration": 0.20689649999999915
        },
        {
          "name": "A2",
          "midi": 45,
          "time": 197.58615749999925,
          "velocity": 0.7480314960629921,
          "duration": 0.20689649999999915
        },
        {
          "name": "A4",
          "midi": 69,
          "time": 197.79305399999924,
          "velocity": 0.7480314960629921,
          "duration": 0.4137929999999983
        },
        {
          "name": "B3",
          "midi": 59,
          "time": 197.79305399999924,
          "velocity": 0.7480314960629921,
          "duration": 0.4137929999999983
        },
        {
          "name": "C4",
          "midi": 60,
          "time": 197.79305399999924,
          "velocity": 0.7480314960629921,
          "duration": 0.4137929999999983
        },
        {
          "name": "D3",
          "midi": 50,
          "time": 197.79305399999924,
          "velocity": 0.7480314960629921,
          "duration": 0.4137929999999983
        },
        {
          "name": "D3",
          "midi": 50,
          "time": 197.79305399999924,
          "velocity": 0.7480314960629921,
          "duration": 0.4137929999999983
        },
        {
          "name": "A4",
          "midi": 69,
          "time": 198.20684699999924,
          "velocity": 0.7480314960629921,
          "duration": 0.20689649999999915
        },
        {
          "name": "B3",
          "midi": 59,
          "time": 198.20684699999924,
          "velocity": 0.7480314960629921,
          "duration": 0.20689649999999915
        },
        {
          "name": "C4",
          "midi": 60,
          "time": 198.20684699999924,
          "velocity": 0.7480314960629921,
          "duration": 0.20689649999999915
        },
        {
          "name": "D3",
          "midi": 50,
          "time": 198.20684699999924,
          "velocity": 0.7480314960629921,
          "duration": 0.20689649999999915
        },
        {
          "name": "A2",
          "midi": 45,
          "time": 198.20684699999924,
          "velocity": 0.7480314960629921,
          "duration": 0.20689649999999915
        },
        {
          "name": "A4",
          "midi": 69,
          "time": 198.41374349999924,
          "velocity": 0.7480314960629921,
          "duration": 0.20689649999999915
        },
        {
          "name": "B3",
          "midi": 59,
          "time": 198.41374349999924,
          "velocity": 0.7480314960629921,
          "duration": 0.20689649999999915
        },
        {
          "name": "C4",
          "midi": 60,
          "time": 198.41374349999924,
          "velocity": 0.7480314960629921,
          "duration": 0.20689649999999915
        },
        {
          "name": "D3",
          "midi": 50,
          "time": 198.41374349999924,
          "velocity": 0.7480314960629921,
          "duration": 0.20689649999999915
        },
        {
          "name": "D3",
          "midi": 50,
          "time": 198.41374349999924,
          "velocity": 0.7480314960629921,
          "duration": 0.20689649999999915
        },
        {
          "name": "A4",
          "midi": 69,
          "time": 198.62063999999924,
          "velocity": 0.7480314960629921,
          "duration": 0.20689649999999915
        },
        {
          "name": "B3",
          "midi": 59,
          "time": 198.62063999999924,
          "velocity": 0.7480314960629921,
          "duration": 0.20689649999999915
        },
        {
          "name": "C4",
          "midi": 60,
          "time": 198.62063999999924,
          "velocity": 0.7480314960629921,
          "duration": 0.20689649999999915
        },
        {
          "name": "D3",
          "midi": 50,
          "time": 198.62063999999924,
          "velocity": 0.7480314960629921,
          "duration": 0.20689649999999915
        },
        {
          "name": "D3",
          "midi": 50,
          "time": 198.62063999999924,
          "velocity": 0.7480314960629921,
          "duration": 0.20689649999999915
        },
        {
          "name": "A4",
          "midi": 69,
          "time": 198.82753649999924,
          "velocity": 0.7480314960629921,
          "duration": 0.20689649999999915
        },
        {
          "name": "B3",
          "midi": 59,
          "time": 198.82753649999924,
          "velocity": 0.7480314960629921,
          "duration": 0.20689649999999915
        },
        {
          "name": "C4",
          "midi": 60,
          "time": 198.82753649999924,
          "velocity": 0.7480314960629921,
          "duration": 0.20689649999999915
        },
        {
          "name": "D3",
          "midi": 50,
          "time": 198.82753649999924,
          "velocity": 0.7480314960629921,
          "duration": 0.20689649999999915
        },
        {
          "name": "A2",
          "midi": 45,
          "time": 198.82753649999924,
          "velocity": 0.7480314960629921,
          "duration": 0.20689649999999915
        },
        {
          "name": "A4",
          "midi": 69,
          "time": 199.03443299999924,
          "velocity": 0.7480314960629921,
          "duration": 0.4137929999999983
        },
        {
          "name": "B3",
          "midi": 59,
          "time": 199.03443299999924,
          "velocity": 0.7480314960629921,
          "duration": 0.4137929999999983
        },
        {
          "name": "C4",
          "midi": 60,
          "time": 199.03443299999924,
          "velocity": 0.7480314960629921,
          "duration": 0.4137929999999983
        },
        {
          "name": "D3",
          "midi": 50,
          "time": 199.03443299999924,
          "velocity": 0.7480314960629921,
          "duration": 0.4137929999999983
        },
        {
          "name": "D3",
          "midi": 50,
          "time": 199.03443299999924,
          "velocity": 0.7480314960629921,
          "duration": 0.4137929999999983
        },
        {
          "name": "A4",
          "midi": 69,
          "time": 199.44822599999924,
          "velocity": 0.7480314960629921,
          "duration": 0.20689649999999915
        },
        {
          "name": "B3",
          "midi": 59,
          "time": 199.44822599999924,
          "velocity": 0.7480314960629921,
          "duration": 0.20689649999999915
        },
        {
          "name": "C4",
          "midi": 60,
          "time": 199.44822599999924,
          "velocity": 0.7480314960629921,
          "duration": 0.20689649999999915
        },
        {
          "name": "D3",
          "midi": 50,
          "time": 199.44822599999924,
          "velocity": 0.7480314960629921,
          "duration": 0.20689649999999915
        },
        {
          "name": "A2",
          "midi": 45,
          "time": 199.44822599999924,
          "velocity": 0.7480314960629921,
          "duration": 0.20689649999999915
        },
        {
          "name": "A4",
          "midi": 69,
          "time": 199.65512249999924,
          "velocity": 0.7480314960629921,
          "duration": 0.20689649999999915
        },
        {
          "name": "B3",
          "midi": 59,
          "time": 199.65512249999924,
          "velocity": 0.7480314960629921,
          "duration": 0.20689649999999915
        },
        {
          "name": "C4",
          "midi": 60,
          "time": 199.65512249999924,
          "velocity": 0.7480314960629921,
          "duration": 0.20689649999999915
        },
        {
          "name": "D3",
          "midi": 50,
          "time": 199.65512249999924,
          "velocity": 0.7480314960629921,
          "duration": 0.20689649999999915
        },
        {
          "name": "D3",
          "midi": 50,
          "time": 199.65512249999924,
          "velocity": 0.7480314960629921,
          "duration": 0.20689649999999915
        },
        {
          "name": "A4",
          "midi": 69,
          "time": 199.86201899999924,
          "velocity": 0.7480314960629921,
          "duration": 0.20689649999999915
        },
        {
          "name": "B3",
          "midi": 59,
          "time": 199.86201899999924,
          "velocity": 0.7480314960629921,
          "duration": 0.20689649999999915
        },
        {
          "name": "C4",
          "midi": 60,
          "time": 199.86201899999924,
          "velocity": 0.7480314960629921,
          "duration": 0.20689649999999915
        },
        {
          "name": "D3",
          "midi": 50,
          "time": 199.86201899999924,
          "velocity": 0.7480314960629921,
          "duration": 0.20689649999999915
        },
        {
          "name": "D3",
          "midi": 50,
          "time": 199.86201899999924,
          "velocity": 0.7480314960629921,
          "duration": 0.20689649999999915
        },
        {
          "name": "C4",
          "midi": 60,
          "time": 200.27581199999923,
          "velocity": 0.7480314960629921,
          "duration": 0.20689649999999915
        },
        {
          "name": "G3",
          "midi": 55,
          "time": 200.27581199999923,
          "velocity": 0.7480314960629921,
          "duration": 0.20689649999999915
        },
        {
          "name": "C3",
          "midi": 48,
          "time": 200.27581199999923,
          "velocity": 0.7480314960629921,
          "duration": 0.20689649999999915
        },
        {
          "name": "C4",
          "midi": 60,
          "time": 200.48270849999923,
          "velocity": 0.7480314960629921,
          "duration": 0.20689649999999915
        },
        {
          "name": "G3",
          "midi": 55,
          "time": 200.48270849999923,
          "velocity": 0.7480314960629921,
          "duration": 0.20689649999999915
        },
        {
          "name": "C3",
          "midi": 48,
          "time": 200.48270849999923,
          "velocity": 0.7480314960629921,
          "duration": 0.20689649999999915
        },
        {
          "name": "C4",
          "midi": 60,
          "time": 200.68960499999923,
          "velocity": 0.7480314960629921,
          "duration": 0.20689649999999915
        },
        {
          "name": "G3",
          "midi": 55,
          "time": 200.68960499999923,
          "velocity": 0.7480314960629921,
          "duration": 0.20689649999999915
        },
        {
          "name": "C3",
          "midi": 48,
          "time": 200.68960499999923,
          "velocity": 0.7480314960629921,
          "duration": 0.20689649999999915
        },
        {
          "name": "C4",
          "midi": 60,
          "time": 200.89650149999923,
          "velocity": 0.7480314960629921,
          "duration": 0.20689649999999915
        },
        {
          "name": "G3",
          "midi": 55,
          "time": 200.89650149999923,
          "velocity": 0.7480314960629921,
          "duration": 0.20689649999999915
        },
        {
          "name": "C3",
          "midi": 48,
          "time": 200.89650149999923,
          "velocity": 0.7480314960629921,
          "duration": 0.20689649999999915
        },
        {
          "name": "C4",
          "midi": 60,
          "time": 201.10339799999923,
          "velocity": 0.7480314960629921,
          "duration": 0.20689649999999915
        },
        {
          "name": "G3",
          "midi": 55,
          "time": 201.10339799999923,
          "velocity": 0.7480314960629921,
          "duration": 0.20689649999999915
        },
        {
          "name": "C3",
          "midi": 48,
          "time": 201.10339799999923,
          "velocity": 0.7480314960629921,
          "duration": 0.20689649999999915
        },
        {
          "name": "C4",
          "midi": 60,
          "time": 201.31029449999923,
          "velocity": 0.7480314960629921,
          "duration": 0.20689649999999915
        },
        {
          "name": "G3",
          "midi": 55,
          "time": 201.31029449999923,
          "velocity": 0.7480314960629921,
          "duration": 0.20689649999999915
        },
        {
          "name": "C3",
          "midi": 48,
          "time": 201.31029449999923,
          "velocity": 0.7480314960629921,
          "duration": 0.20689649999999915
        },
        {
          "name": "C4",
          "midi": 60,
          "time": 201.51719099999923,
          "velocity": 0.7480314960629921,
          "duration": 0.20689649999999915
        },
        {
          "name": "G3",
          "midi": 55,
          "time": 201.51719099999923,
          "velocity": 0.7480314960629921,
          "duration": 0.20689649999999915
        },
        {
          "name": "C3",
          "midi": 48,
          "time": 201.51719099999923,
          "velocity": 0.7480314960629921,
          "duration": 0.20689649999999915
        },
        {
          "name": "C4",
          "midi": 60,
          "time": 201.72408749999923,
          "velocity": 0.7480314960629921,
          "duration": 0.20689649999999915
        },
        {
          "name": "G3",
          "midi": 55,
          "time": 201.72408749999923,
          "velocity": 0.7480314960629921,
          "duration": 0.20689649999999915
        },
        {
          "name": "C3",
          "midi": 48,
          "time": 201.72408749999923,
          "velocity": 0.7480314960629921,
          "duration": 0.20689649999999915
        },
        {
          "name": "G4",
          "midi": 67,
          "time": 201.93098399999923,
          "velocity": 0.7480314960629921,
          "duration": 0.20689649999999915
        },
        {
          "name": "E4",
          "midi": 64,
          "time": 201.93098399999923,
          "velocity": 0.7480314960629921,
          "duration": 0.20689649999999915
        },
        {
          "name": "B3",
          "midi": 59,
          "time": 201.93098399999923,
          "velocity": 0.7480314960629921,
          "duration": 0.20689649999999915
        },
        {
          "name": "E3",
          "midi": 52,
          "time": 201.93098399999923,
          "velocity": 0.7480314960629921,
          "duration": 0.20689649999999915
        },
        {
          "name": "G4",
          "midi": 67,
          "time": 202.13788049999923,
          "velocity": 0.7480314960629921,
          "duration": 0.20689649999999915
        },
        {
          "name": "E4",
          "midi": 64,
          "time": 202.13788049999923,
          "velocity": 0.7480314960629921,
          "duration": 0.20689649999999915
        },
        {
          "name": "B3",
          "midi": 59,
          "time": 202.13788049999923,
          "velocity": 0.7480314960629921,
          "duration": 0.20689649999999915
        },
        {
          "name": "E3",
          "midi": 52,
          "time": 202.13788049999923,
          "velocity": 0.7480314960629921,
          "duration": 0.20689649999999915
        },
        {
          "name": "G4",
          "midi": 67,
          "time": 202.34477699999923,
          "velocity": 0.7480314960629921,
          "duration": 0.20689649999999915
        },
        {
          "name": "E4",
          "midi": 64,
          "time": 202.34477699999923,
          "velocity": 0.7480314960629921,
          "duration": 0.20689649999999915
        },
        {
          "name": "B3",
          "midi": 59,
          "time": 202.34477699999923,
          "velocity": 0.7480314960629921,
          "duration": 0.20689649999999915
        },
        {
          "name": "E3",
          "midi": 52,
          "time": 202.34477699999923,
          "velocity": 0.7480314960629921,
          "duration": 0.20689649999999915
        },
        {
          "name": "G4",
          "midi": 67,
          "time": 202.55167349999923,
          "velocity": 0.7480314960629921,
          "duration": 0.20689649999999915
        },
        {
          "name": "E4",
          "midi": 64,
          "time": 202.55167349999923,
          "velocity": 0.7480314960629921,
          "duration": 0.20689649999999915
        },
        {
          "name": "B3",
          "midi": 59,
          "time": 202.55167349999923,
          "velocity": 0.7480314960629921,
          "duration": 0.20689649999999915
        },
        {
          "name": "E3",
          "midi": 52,
          "time": 202.55167349999923,
          "velocity": 0.7480314960629921,
          "duration": 0.20689649999999915
        },
        {
          "name": "G4",
          "midi": 67,
          "time": 202.75856999999922,
          "velocity": 0.7480314960629921,
          "duration": 0.20689649999999915
        },
        {
          "name": "E4",
          "midi": 64,
          "time": 202.75856999999922,
          "velocity": 0.7480314960629921,
          "duration": 0.20689649999999915
        },
        {
          "name": "B3",
          "midi": 59,
          "time": 202.75856999999922,
          "velocity": 0.7480314960629921,
          "duration": 0.20689649999999915
        },
        {
          "name": "E3",
          "midi": 52,
          "time": 202.75856999999922,
          "velocity": 0.7480314960629921,
          "duration": 0.20689649999999915
        },
        {
          "name": "G4",
          "midi": 67,
          "time": 202.96546649999922,
          "velocity": 0.7480314960629921,
          "duration": 0.20689649999999915
        },
        {
          "name": "E4",
          "midi": 64,
          "time": 202.96546649999922,
          "velocity": 0.7480314960629921,
          "duration": 0.20689649999999915
        },
        {
          "name": "B3",
          "midi": 59,
          "time": 202.96546649999922,
          "velocity": 0.7480314960629921,
          "duration": 0.20689649999999915
        },
        {
          "name": "E3",
          "midi": 52,
          "time": 202.96546649999922,
          "velocity": 0.7480314960629921,
          "duration": 0.20689649999999915
        },
        {
          "name": "G4",
          "midi": 67,
          "time": 203.17236299999922,
          "velocity": 0.7480314960629921,
          "duration": 0.20689649999999915
        },
        {
          "name": "E4",
          "midi": 64,
          "time": 203.17236299999922,
          "velocity": 0.7480314960629921,
          "duration": 0.20689649999999915
        },
        {
          "name": "B3",
          "midi": 59,
          "time": 203.17236299999922,
          "velocity": 0.7480314960629921,
          "duration": 0.20689649999999915
        },
        {
          "name": "E3",
          "midi": 52,
          "time": 203.17236299999922,
          "velocity": 0.7480314960629921,
          "duration": 0.20689649999999915
        },
        {
          "name": "G4",
          "midi": 67,
          "time": 203.37925949999922,
          "velocity": 0.7480314960629921,
          "duration": 0.20689649999999915
        },
        {
          "name": "E4",
          "midi": 64,
          "time": 203.37925949999922,
          "velocity": 0.7480314960629921,
          "duration": 0.20689649999999915
        },
        {
          "name": "B3",
          "midi": 59,
          "time": 203.37925949999922,
          "velocity": 0.7480314960629921,
          "duration": 0.20689649999999915
        },
        {
          "name": "E3",
          "midi": 52,
          "time": 203.37925949999922,
          "velocity": 0.7480314960629921,
          "duration": 0.20689649999999915
        },
        {
          "name": "D4",
          "midi": 62,
          "time": 203.58615599999922,
          "velocity": 0.7480314960629921,
          "duration": 0.20689649999999915
        },
        {
          "name": "A3",
          "midi": 57,
          "time": 203.58615599999922,
          "velocity": 0.7480314960629921,
          "duration": 0.20689649999999915
        },
        {
          "name": "D3",
          "midi": 50,
          "time": 203.58615599999922,
          "velocity": 0.7480314960629921,
          "duration": 0.20689649999999915
        },
        {
          "name": "D4",
          "midi": 62,
          "time": 203.79305249999922,
          "velocity": 0.7480314960629921,
          "duration": 0.20689649999999915
        },
        {
          "name": "A3",
          "midi": 57,
          "time": 203.79305249999922,
          "velocity": 0.7480314960629921,
          "duration": 0.20689649999999915
        },
        {
          "name": "D3",
          "midi": 50,
          "time": 203.79305249999922,
          "velocity": 0.7480314960629921,
          "duration": 0.20689649999999915
        },
        {
          "name": "D4",
          "midi": 62,
          "time": 203.99994899999922,
          "velocity": 0.7480314960629921,
          "duration": 0.20689649999999915
        },
        {
          "name": "A3",
          "midi": 57,
          "time": 203.99994899999922,
          "velocity": 0.7480314960629921,
          "duration": 0.20689649999999915
        },
        {
          "name": "D3",
          "midi": 50,
          "time": 203.99994899999922,
          "velocity": 0.7480314960629921,
          "duration": 0.20689649999999915
        },
        {
          "name": "D4",
          "midi": 62,
          "time": 204.20684549999922,
          "velocity": 0.7480314960629921,
          "duration": 0.20689649999999915
        },
        {
          "name": "A3",
          "midi": 57,
          "time": 204.20684549999922,
          "velocity": 0.7480314960629921,
          "duration": 0.20689649999999915
        },
        {
          "name": "D3",
          "midi": 50,
          "time": 204.20684549999922,
          "velocity": 0.7480314960629921,
          "duration": 0.20689649999999915
        },
        {
          "name": "D4",
          "midi": 62,
          "time": 204.41374199999922,
          "velocity": 0.7480314960629921,
          "duration": 0.20689649999999915
        },
        {
          "name": "A3",
          "midi": 57,
          "time": 204.41374199999922,
          "velocity": 0.7480314960629921,
          "duration": 0.20689649999999915
        },
        {
          "name": "D3",
          "midi": 50,
          "time": 204.41374199999922,
          "velocity": 0.7480314960629921,
          "duration": 0.20689649999999915
        },
        {
          "name": "D4",
          "midi": 62,
          "time": 204.62063849999922,
          "velocity": 0.7480314960629921,
          "duration": 0.20689649999999915
        },
        {
          "name": "A3",
          "midi": 57,
          "time": 204.62063849999922,
          "velocity": 0.7480314960629921,
          "duration": 0.20689649999999915
        },
        {
          "name": "D3",
          "midi": 50,
          "time": 204.62063849999922,
          "velocity": 0.7480314960629921,
          "duration": 0.20689649999999915
        },
        {
          "name": "D4",
          "midi": 62,
          "time": 204.82753499999922,
          "velocity": 0.7480314960629921,
          "duration": 0.20689649999999915
        },
        {
          "name": "A3",
          "midi": 57,
          "time": 204.82753499999922,
          "velocity": 0.7480314960629921,
          "duration": 0.20689649999999915
        },
        {
          "name": "D3",
          "midi": 50,
          "time": 204.82753499999922,
          "velocity": 0.7480314960629921,
          "duration": 0.20689649999999915
        },
        {
          "name": "D4",
          "midi": 62,
          "time": 205.03443149999922,
          "velocity": 0.7480314960629921,
          "duration": 0.20689649999999915
        },
        {
          "name": "A3",
          "midi": 57,
          "time": 205.03443149999922,
          "velocity": 0.7480314960629921,
          "duration": 0.20689649999999915
        },
        {
          "name": "D3",
          "midi": 50,
          "time": 205.03443149999922,
          "velocity": 0.7480314960629921,
          "duration": 0.20689649999999915
        },
        {
          "name": "C4",
          "midi": 60,
          "time": 205.2413279999992,
          "velocity": 0.7480314960629921,
          "duration": 0.20689649999999915
        },
        {
          "name": "G3",
          "midi": 55,
          "time": 205.2413279999992,
          "velocity": 0.7480314960629921,
          "duration": 0.20689649999999915
        },
        {
          "name": "C3",
          "midi": 48,
          "time": 205.2413279999992,
          "velocity": 0.7480314960629921,
          "duration": 0.20689649999999915
        },
        {
          "name": "C4",
          "midi": 60,
          "time": 205.4482244999992,
          "velocity": 0.7480314960629921,
          "duration": 0.20689649999999915
        },
        {
          "name": "G3",
          "midi": 55,
          "time": 205.4482244999992,
          "velocity": 0.7480314960629921,
          "duration": 0.20689649999999915
        },
        {
          "name": "C3",
          "midi": 48,
          "time": 205.4482244999992,
          "velocity": 0.7480314960629921,
          "duration": 0.20689649999999915
        },
        {
          "name": "C4",
          "midi": 60,
          "time": 205.6551209999992,
          "velocity": 0.7480314960629921,
          "duration": 0.20689649999999915
        },
        {
          "name": "G3",
          "midi": 55,
          "time": 205.6551209999992,
          "velocity": 0.7480314960629921,
          "duration": 0.20689649999999915
        },
        {
          "name": "C3",
          "midi": 48,
          "time": 205.6551209999992,
          "velocity": 0.7480314960629921,
          "duration": 0.20689649999999915
        },
        {
          "name": "C4",
          "midi": 60,
          "time": 205.8620174999992,
          "velocity": 0.7480314960629921,
          "duration": 0.20689649999999915
        },
        {
          "name": "G3",
          "midi": 55,
          "time": 205.8620174999992,
          "velocity": 0.7480314960629921,
          "duration": 0.20689649999999915
        },
        {
          "name": "C3",
          "midi": 48,
          "time": 205.8620174999992,
          "velocity": 0.7480314960629921,
          "duration": 0.20689649999999915
        },
        {
          "name": "C4",
          "midi": 60,
          "time": 206.0689139999992,
          "velocity": 0.7480314960629921,
          "duration": 0.20689649999999915
        },
        {
          "name": "G3",
          "midi": 55,
          "time": 206.0689139999992,
          "velocity": 0.7480314960629921,
          "duration": 0.20689649999999915
        },
        {
          "name": "C3",
          "midi": 48,
          "time": 206.0689139999992,
          "velocity": 0.7480314960629921,
          "duration": 0.20689649999999915
        },
        {
          "name": "C4",
          "midi": 60,
          "time": 206.2758104999992,
          "velocity": 0.7480314960629921,
          "duration": 0.20689649999999915
        },
        {
          "name": "G3",
          "midi": 55,
          "time": 206.2758104999992,
          "velocity": 0.7480314960629921,
          "duration": 0.20689649999999915
        },
        {
          "name": "C3",
          "midi": 48,
          "time": 206.2758104999992,
          "velocity": 0.7480314960629921,
          "duration": 0.20689649999999915
        },
        {
          "name": "C4",
          "midi": 60,
          "time": 206.4827069999992,
          "velocity": 0.7480314960629921,
          "duration": 0.20689649999999915
        },
        {
          "name": "G3",
          "midi": 55,
          "time": 206.4827069999992,
          "velocity": 0.7480314960629921,
          "duration": 0.20689649999999915
        },
        {
          "name": "C3",
          "midi": 48,
          "time": 206.4827069999992,
          "velocity": 0.7480314960629921,
          "duration": 0.20689649999999915
        },
        {
          "name": "C4",
          "midi": 60,
          "time": 206.6896034999992,
          "velocity": 0.7480314960629921,
          "duration": 0.20689649999999915
        },
        {
          "name": "G3",
          "midi": 55,
          "time": 206.6896034999992,
          "velocity": 0.7480314960629921,
          "duration": 0.20689649999999915
        },
        {
          "name": "C3",
          "midi": 48,
          "time": 206.6896034999992,
          "velocity": 0.7480314960629921,
          "duration": 0.20689649999999915
        },
        {
          "name": "G4",
          "midi": 67,
          "time": 206.8964999999992,
          "velocity": 0.7480314960629921,
          "duration": 0.20689649999999915
        },
        {
          "name": "E4",
          "midi": 64,
          "time": 206.8964999999992,
          "velocity": 0.7480314960629921,
          "duration": 0.20689649999999915
        },
        {
          "name": "B3",
          "midi": 59,
          "time": 206.8964999999992,
          "velocity": 0.7480314960629921,
          "duration": 0.20689649999999915
        },
        {
          "name": "E3",
          "midi": 52,
          "time": 206.8964999999992,
          "velocity": 0.7480314960629921,
          "duration": 0.20689649999999915
        },
        {
          "name": "G4",
          "midi": 67,
          "time": 207.1033964999992,
          "velocity": 0.7480314960629921,
          "duration": 0.20689649999999915
        },
        {
          "name": "E4",
          "midi": 64,
          "time": 207.1033964999992,
          "velocity": 0.7480314960629921,
          "duration": 0.20689649999999915
        },
        {
          "name": "B3",
          "midi": 59,
          "time": 207.1033964999992,
          "velocity": 0.7480314960629921,
          "duration": 0.20689649999999915
        },
        {
          "name": "E3",
          "midi": 52,
          "time": 207.1033964999992,
          "velocity": 0.7480314960629921,
          "duration": 0.20689649999999915
        },
        {
          "name": "G4",
          "midi": 67,
          "time": 207.3102929999992,
          "velocity": 0.7480314960629921,
          "duration": 0.20689649999999915
        },
        {
          "name": "E4",
          "midi": 64,
          "time": 207.3102929999992,
          "velocity": 0.7480314960629921,
          "duration": 0.20689649999999915
        },
        {
          "name": "B3",
          "midi": 59,
          "time": 207.3102929999992,
          "velocity": 0.7480314960629921,
          "duration": 0.20689649999999915
        },
        {
          "name": "E3",
          "midi": 52,
          "time": 207.3102929999992,
          "velocity": 0.7480314960629921,
          "duration": 0.20689649999999915
        },
        {
          "name": "G4",
          "midi": 67,
          "time": 207.5171894999992,
          "velocity": 0.7480314960629921,
          "duration": 0.20689649999999915
        },
        {
          "name": "E4",
          "midi": 64,
          "time": 207.5171894999992,
          "velocity": 0.7480314960629921,
          "duration": 0.20689649999999915
        },
        {
          "name": "B3",
          "midi": 59,
          "time": 207.5171894999992,
          "velocity": 0.7480314960629921,
          "duration": 0.20689649999999915
        },
        {
          "name": "E3",
          "midi": 52,
          "time": 207.5171894999992,
          "velocity": 0.7480314960629921,
          "duration": 0.20689649999999915
        },
        {
          "name": "G4",
          "midi": 67,
          "time": 207.7240859999992,
          "velocity": 0.7480314960629921,
          "duration": 0.20689649999999915
        },
        {
          "name": "E4",
          "midi": 64,
          "time": 207.7240859999992,
          "velocity": 0.7480314960629921,
          "duration": 0.20689649999999915
        },
        {
          "name": "B3",
          "midi": 59,
          "time": 207.7240859999992,
          "velocity": 0.7480314960629921,
          "duration": 0.20689649999999915
        },
        {
          "name": "E3",
          "midi": 52,
          "time": 207.7240859999992,
          "velocity": 0.7480314960629921,
          "duration": 0.20689649999999915
        },
        {
          "name": "G4",
          "midi": 67,
          "time": 207.9309824999992,
          "velocity": 0.7480314960629921,
          "duration": 0.20689649999999915
        },
        {
          "name": "E4",
          "midi": 64,
          "time": 207.9309824999992,
          "velocity": 0.7480314960629921,
          "duration": 0.20689649999999915
        },
        {
          "name": "B3",
          "midi": 59,
          "time": 207.9309824999992,
          "velocity": 0.7480314960629921,
          "duration": 0.20689649999999915
        },
        {
          "name": "E3",
          "midi": 52,
          "time": 207.9309824999992,
          "velocity": 0.7480314960629921,
          "duration": 0.20689649999999915
        },
        {
          "name": "G4",
          "midi": 67,
          "time": 208.1378789999992,
          "velocity": 0.7480314960629921,
          "duration": 0.20689649999999915
        },
        {
          "name": "E4",
          "midi": 64,
          "time": 208.1378789999992,
          "velocity": 0.7480314960629921,
          "duration": 0.20689649999999915
        },
        {
          "name": "B3",
          "midi": 59,
          "time": 208.1378789999992,
          "velocity": 0.7480314960629921,
          "duration": 0.20689649999999915
        },
        {
          "name": "E3",
          "midi": 52,
          "time": 208.1378789999992,
          "velocity": 0.7480314960629921,
          "duration": 0.20689649999999915
        },
        {
          "name": "G4",
          "midi": 67,
          "time": 208.3447754999992,
          "velocity": 0.7480314960629921,
          "duration": 0.20689649999999915
        },
        {
          "name": "E4",
          "midi": 64,
          "time": 208.3447754999992,
          "velocity": 0.7480314960629921,
          "duration": 0.20689649999999915
        },
        {
          "name": "B3",
          "midi": 59,
          "time": 208.3447754999992,
          "velocity": 0.7480314960629921,
          "duration": 0.20689649999999915
        },
        {
          "name": "E3",
          "midi": 52,
          "time": 208.3447754999992,
          "velocity": 0.7480314960629921,
          "duration": 0.20689649999999915
        },
        {
          "name": "D4",
          "midi": 62,
          "time": 208.5516719999992,
          "velocity": 0.7480314960629921,
          "duration": 0.20689649999999915
        },
        {
          "name": "A3",
          "midi": 57,
          "time": 208.5516719999992,
          "velocity": 0.7480314960629921,
          "duration": 0.20689649999999915
        },
        {
          "name": "D3",
          "midi": 50,
          "time": 208.5516719999992,
          "velocity": 0.7480314960629921,
          "duration": 0.20689649999999915
        },
        {
          "name": "D4",
          "midi": 62,
          "time": 208.7585684999992,
          "velocity": 0.7480314960629921,
          "duration": 0.20689649999999915
        },
        {
          "name": "A3",
          "midi": 57,
          "time": 208.7585684999992,
          "velocity": 0.7480314960629921,
          "duration": 0.20689649999999915
        },
        {
          "name": "D3",
          "midi": 50,
          "time": 208.7585684999992,
          "velocity": 0.7480314960629921,
          "duration": 0.20689649999999915
        },
        {
          "name": "D4",
          "midi": 62,
          "time": 208.9654649999992,
          "velocity": 0.7480314960629921,
          "duration": 0.20689649999999915
        },
        {
          "name": "A3",
          "midi": 57,
          "time": 208.9654649999992,
          "velocity": 0.7480314960629921,
          "duration": 0.20689649999999915
        },
        {
          "name": "D3",
          "midi": 50,
          "time": 208.9654649999992,
          "velocity": 0.7480314960629921,
          "duration": 0.20689649999999915
        },
        {
          "name": "D4",
          "midi": 62,
          "time": 209.1723614999992,
          "velocity": 0.7480314960629921,
          "duration": 0.20689649999999915
        },
        {
          "name": "A3",
          "midi": 57,
          "time": 209.1723614999992,
          "velocity": 0.7480314960629921,
          "duration": 0.20689649999999915
        },
        {
          "name": "D3",
          "midi": 50,
          "time": 209.1723614999992,
          "velocity": 0.7480314960629921,
          "duration": 0.20689649999999915
        },
        {
          "name": "D4",
          "midi": 62,
          "time": 209.3792579999992,
          "velocity": 0.7480314960629921,
          "duration": 0.20689649999999915
        },
        {
          "name": "A3",
          "midi": 57,
          "time": 209.3792579999992,
          "velocity": 0.7480314960629921,
          "duration": 0.20689649999999915
        },
        {
          "name": "D3",
          "midi": 50,
          "time": 209.3792579999992,
          "velocity": 0.7480314960629921,
          "duration": 0.20689649999999915
        },
        {
          "name": "D4",
          "midi": 62,
          "time": 209.5861544999992,
          "velocity": 0.7480314960629921,
          "duration": 0.20689649999999915
        },
        {
          "name": "A3",
          "midi": 57,
          "time": 209.5861544999992,
          "velocity": 0.7480314960629921,
          "duration": 0.20689649999999915
        },
        {
          "name": "D3",
          "midi": 50,
          "time": 209.5861544999992,
          "velocity": 0.7480314960629921,
          "duration": 0.20689649999999915
        },
        {
          "name": "D4",
          "midi": 62,
          "time": 209.7930509999992,
          "velocity": 0.7480314960629921,
          "duration": 0.20689649999999915
        },
        {
          "name": "A3",
          "midi": 57,
          "time": 209.7930509999992,
          "velocity": 0.7480314960629921,
          "duration": 0.20689649999999915
        },
        {
          "name": "D3",
          "midi": 50,
          "time": 209.7930509999992,
          "velocity": 0.7480314960629921,
          "duration": 0.20689649999999915
        },
        {
          "name": "D4",
          "midi": 62,
          "time": 209.9999474999992,
          "velocity": 0.7480314960629921,
          "duration": 0.20689649999999915
        },
        {
          "name": "A3",
          "midi": 57,
          "time": 209.9999474999992,
          "velocity": 0.7480314960629921,
          "duration": 0.20689649999999915
        },
        {
          "name": "D3",
          "midi": 50,
          "time": 209.9999474999992,
          "velocity": 0.7480314960629921,
          "duration": 0.20689649999999915
        },
        {
          "name": "C4",
          "midi": 60,
          "time": 210.2068439999992,
          "velocity": 0.7480314960629921,
          "duration": 0.20689649999999915
        },
        {
          "name": "G3",
          "midi": 55,
          "time": 210.2068439999992,
          "velocity": 0.7480314960629921,
          "duration": 0.20689649999999915
        },
        {
          "name": "C3",
          "midi": 48,
          "time": 210.2068439999992,
          "velocity": 0.7480314960629921,
          "duration": 0.20689649999999915
        },
        {
          "name": "C4",
          "midi": 60,
          "time": 210.4137404999992,
          "velocity": 0.7480314960629921,
          "duration": 0.20689649999999915
        },
        {
          "name": "G3",
          "midi": 55,
          "time": 210.4137404999992,
          "velocity": 0.7480314960629921,
          "duration": 0.20689649999999915
        },
        {
          "name": "C3",
          "midi": 48,
          "time": 210.4137404999992,
          "velocity": 0.7480314960629921,
          "duration": 0.20689649999999915
        },
        {
          "name": "C4",
          "midi": 60,
          "time": 210.6206369999992,
          "velocity": 0.7480314960629921,
          "duration": 0.20689649999999915
        },
        {
          "name": "G3",
          "midi": 55,
          "time": 210.6206369999992,
          "velocity": 0.7480314960629921,
          "duration": 0.20689649999999915
        },
        {
          "name": "C3",
          "midi": 48,
          "time": 210.6206369999992,
          "velocity": 0.7480314960629921,
          "duration": 0.20689649999999915
        },
        {
          "name": "C4",
          "midi": 60,
          "time": 210.8275334999992,
          "velocity": 0.7480314960629921,
          "duration": 0.20689649999999915
        },
        {
          "name": "G3",
          "midi": 55,
          "time": 210.8275334999992,
          "velocity": 0.7480314960629921,
          "duration": 0.20689649999999915
        },
        {
          "name": "C3",
          "midi": 48,
          "time": 210.8275334999992,
          "velocity": 0.7480314960629921,
          "duration": 0.20689649999999915
        },
        {
          "name": "C4",
          "midi": 60,
          "time": 211.0344299999992,
          "velocity": 0.7480314960629921,
          "duration": 0.20689649999999915
        },
        {
          "name": "G3",
          "midi": 55,
          "time": 211.0344299999992,
          "velocity": 0.7480314960629921,
          "duration": 0.20689649999999915
        },
        {
          "name": "C3",
          "midi": 48,
          "time": 211.0344299999992,
          "velocity": 0.7480314960629921,
          "duration": 0.20689649999999915
        },
        {
          "name": "C4",
          "midi": 60,
          "time": 211.2413264999992,
          "velocity": 0.7480314960629921,
          "duration": 0.20689649999999915
        },
        {
          "name": "G3",
          "midi": 55,
          "time": 211.2413264999992,
          "velocity": 0.7480314960629921,
          "duration": 0.20689649999999915
        },
        {
          "name": "C3",
          "midi": 48,
          "time": 211.2413264999992,
          "velocity": 0.7480314960629921,
          "duration": 0.20689649999999915
        },
        {
          "name": "C4",
          "midi": 60,
          "time": 211.4482229999992,
          "velocity": 0.7480314960629921,
          "duration": 0.20689649999999915
        },
        {
          "name": "G3",
          "midi": 55,
          "time": 211.4482229999992,
          "velocity": 0.7480314960629921,
          "duration": 0.20689649999999915
        },
        {
          "name": "C3",
          "midi": 48,
          "time": 211.4482229999992,
          "velocity": 0.7480314960629921,
          "duration": 0.20689649999999915
        },
        {
          "name": "C4",
          "midi": 60,
          "time": 211.6551194999992,
          "velocity": 0.7480314960629921,
          "duration": 0.20689649999999915
        },
        {
          "name": "G3",
          "midi": 55,
          "time": 211.6551194999992,
          "velocity": 0.7480314960629921,
          "duration": 0.20689649999999915
        },
        {
          "name": "C3",
          "midi": 48,
          "time": 211.6551194999992,
          "velocity": 0.7480314960629921,
          "duration": 0.20689649999999915
        },
        {
          "name": "G4",
          "midi": 67,
          "time": 211.8620159999992,
          "velocity": 0.7480314960629921,
          "duration": 0.20689649999999915
        },
        {
          "name": "E4",
          "midi": 64,
          "time": 211.8620159999992,
          "velocity": 0.7480314960629921,
          "duration": 0.20689649999999915
        },
        {
          "name": "B3",
          "midi": 59,
          "time": 211.8620159999992,
          "velocity": 0.7480314960629921,
          "duration": 0.20689649999999915
        },
        {
          "name": "E3",
          "midi": 52,
          "time": 211.8620159999992,
          "velocity": 0.7480314960629921,
          "duration": 0.20689649999999915
        },
        {
          "name": "G4",
          "midi": 67,
          "time": 212.0689124999992,
          "velocity": 0.7480314960629921,
          "duration": 0.20689649999999915
        },
        {
          "name": "E4",
          "midi": 64,
          "time": 212.0689124999992,
          "velocity": 0.7480314960629921,
          "duration": 0.20689649999999915
        },
        {
          "name": "B3",
          "midi": 59,
          "time": 212.0689124999992,
          "velocity": 0.7480314960629921,
          "duration": 0.20689649999999915
        },
        {
          "name": "E3",
          "midi": 52,
          "time": 212.0689124999992,
          "velocity": 0.7480314960629921,
          "duration": 0.20689649999999915
        },
        {
          "name": "G4",
          "midi": 67,
          "time": 212.27580899999919,
          "velocity": 0.7480314960629921,
          "duration": 0.20689649999999915
        },
        {
          "name": "E4",
          "midi": 64,
          "time": 212.27580899999919,
          "velocity": 0.7480314960629921,
          "duration": 0.20689649999999915
        },
        {
          "name": "B3",
          "midi": 59,
          "time": 212.27580899999919,
          "velocity": 0.7480314960629921,
          "duration": 0.20689649999999915
        },
        {
          "name": "E3",
          "midi": 52,
          "time": 212.27580899999919,
          "velocity": 0.7480314960629921,
          "duration": 0.20689649999999915
        },
        {
          "name": "G4",
          "midi": 67,
          "time": 212.48270549999918,
          "velocity": 0.7480314960629921,
          "duration": 0.20689649999999915
        },
        {
          "name": "E4",
          "midi": 64,
          "time": 212.48270549999918,
          "velocity": 0.7480314960629921,
          "duration": 0.20689649999999915
        },
        {
          "name": "B3",
          "midi": 59,
          "time": 212.48270549999918,
          "velocity": 0.7480314960629921,
          "duration": 0.20689649999999915
        },
        {
          "name": "E3",
          "midi": 52,
          "time": 212.48270549999918,
          "velocity": 0.7480314960629921,
          "duration": 0.20689649999999915
        },
        {
          "name": "G4",
          "midi": 67,
          "time": 212.68960199999918,
          "velocity": 0.7480314960629921,
          "duration": 0.20689649999999915
        },
        {
          "name": "E4",
          "midi": 64,
          "time": 212.68960199999918,
          "velocity": 0.7480314960629921,
          "duration": 0.20689649999999915
        },
        {
          "name": "B3",
          "midi": 59,
          "time": 212.68960199999918,
          "velocity": 0.7480314960629921,
          "duration": 0.20689649999999915
        },
        {
          "name": "E3",
          "midi": 52,
          "time": 212.68960199999918,
          "velocity": 0.7480314960629921,
          "duration": 0.20689649999999915
        },
        {
          "name": "G4",
          "midi": 67,
          "time": 212.89649849999918,
          "velocity": 0.7480314960629921,
          "duration": 0.20689649999999915
        },
        {
          "name": "E4",
          "midi": 64,
          "time": 212.89649849999918,
          "velocity": 0.7480314960629921,
          "duration": 0.20689649999999915
        },
        {
          "name": "B3",
          "midi": 59,
          "time": 212.89649849999918,
          "velocity": 0.7480314960629921,
          "duration": 0.20689649999999915
        },
        {
          "name": "E3",
          "midi": 52,
          "time": 212.89649849999918,
          "velocity": 0.7480314960629921,
          "duration": 0.20689649999999915
        },
        {
          "name": "G4",
          "midi": 67,
          "time": 213.10339499999918,
          "velocity": 0.7480314960629921,
          "duration": 0.20689649999999915
        },
        {
          "name": "E4",
          "midi": 64,
          "time": 213.10339499999918,
          "velocity": 0.7480314960629921,
          "duration": 0.20689649999999915
        },
        {
          "name": "B3",
          "midi": 59,
          "time": 213.10339499999918,
          "velocity": 0.7480314960629921,
          "duration": 0.20689649999999915
        },
        {
          "name": "E3",
          "midi": 52,
          "time": 213.10339499999918,
          "velocity": 0.7480314960629921,
          "duration": 0.20689649999999915
        },
        {
          "name": "G4",
          "midi": 67,
          "time": 213.31029149999918,
          "velocity": 0.7480314960629921,
          "duration": 0.20689649999999915
        },
        {
          "name": "E4",
          "midi": 64,
          "time": 213.31029149999918,
          "velocity": 0.7480314960629921,
          "duration": 0.20689649999999915
        },
        {
          "name": "B3",
          "midi": 59,
          "time": 213.31029149999918,
          "velocity": 0.7480314960629921,
          "duration": 0.20689649999999915
        },
        {
          "name": "E3",
          "midi": 52,
          "time": 213.31029149999918,
          "velocity": 0.7480314960629921,
          "duration": 0.20689649999999915
        },
        {
          "name": "D4",
          "midi": 62,
          "time": 213.51718799999918,
          "velocity": 0.7480314960629921,
          "duration": 0.20689649999999915
        },
        {
          "name": "A3",
          "midi": 57,
          "time": 213.51718799999918,
          "velocity": 0.7480314960629921,
          "duration": 0.20689649999999915
        },
        {
          "name": "D3",
          "midi": 50,
          "time": 213.51718799999918,
          "velocity": 0.7480314960629921,
          "duration": 0.20689649999999915
        },
        {
          "name": "D4",
          "midi": 62,
          "time": 213.72408449999918,
          "velocity": 0.7480314960629921,
          "duration": 0.20689649999999915
        },
        {
          "name": "A3",
          "midi": 57,
          "time": 213.72408449999918,
          "velocity": 0.7480314960629921,
          "duration": 0.20689649999999915
        },
        {
          "name": "D3",
          "midi": 50,
          "time": 213.72408449999918,
          "velocity": 0.7480314960629921,
          "duration": 0.20689649999999915
        },
        {
          "name": "D4",
          "midi": 62,
          "time": 213.93098099999918,
          "velocity": 0.7480314960629921,
          "duration": 0.20689649999999915
        },
        {
          "name": "A3",
          "midi": 57,
          "time": 213.93098099999918,
          "velocity": 0.7480314960629921,
          "duration": 0.20689649999999915
        },
        {
          "name": "D3",
          "midi": 50,
          "time": 213.93098099999918,
          "velocity": 0.7480314960629921,
          "duration": 0.20689649999999915
        },
        {
          "name": "D4",
          "midi": 62,
          "time": 214.13787749999918,
          "velocity": 0.7480314960629921,
          "duration": 0.20689649999999915
        },
        {
          "name": "A3",
          "midi": 57,
          "time": 214.13787749999918,
          "velocity": 0.7480314960629921,
          "duration": 0.20689649999999915
        },
        {
          "name": "D3",
          "midi": 50,
          "time": 214.13787749999918,
          "velocity": 0.7480314960629921,
          "duration": 0.20689649999999915
        },
        {
          "name": "D4",
          "midi": 62,
          "time": 214.34477399999918,
          "velocity": 0.7480314960629921,
          "duration": 0.20689649999999915
        },
        {
          "name": "A3",
          "midi": 57,
          "time": 214.34477399999918,
          "velocity": 0.7480314960629921,
          "duration": 0.20689649999999915
        },
        {
          "name": "D3",
          "midi": 50,
          "time": 214.34477399999918,
          "velocity": 0.7480314960629921,
          "duration": 0.20689649999999915
        },
        {
          "name": "D4",
          "midi": 62,
          "time": 214.55167049999918,
          "velocity": 0.7480314960629921,
          "duration": 0.20689649999999915
        },
        {
          "name": "A3",
          "midi": 57,
          "time": 214.55167049999918,
          "velocity": 0.7480314960629921,
          "duration": 0.20689649999999915
        },
        {
          "name": "D3",
          "midi": 50,
          "time": 214.55167049999918,
          "velocity": 0.7480314960629921,
          "duration": 0.20689649999999915
        },
        {
          "name": "D4",
          "midi": 62,
          "time": 214.75856699999918,
          "velocity": 0.7480314960629921,
          "duration": 0.20689649999999915
        },
        {
          "name": "A3",
          "midi": 57,
          "time": 214.75856699999918,
          "velocity": 0.7480314960629921,
          "duration": 0.20689649999999915
        },
        {
          "name": "D3",
          "midi": 50,
          "time": 214.75856699999918,
          "velocity": 0.7480314960629921,
          "duration": 0.20689649999999915
        },
        {
          "name": "D4",
          "midi": 62,
          "time": 214.96546349999917,
          "velocity": 0.7480314960629921,
          "duration": 0.20689649999999915
        },
        {
          "name": "A3",
          "midi": 57,
          "time": 214.96546349999917,
          "velocity": 0.7480314960629921,
          "duration": 0.20689649999999915
        },
        {
          "name": "D3",
          "midi": 50,
          "time": 214.96546349999917,
          "velocity": 0.7480314960629921,
          "duration": 0.20689649999999915
        },
        {
          "name": "C4",
          "midi": 60,
          "time": 215.17235999999917,
          "velocity": 0.7480314960629921,
          "duration": 0.20689649999999915
        },
        {
          "name": "G3",
          "midi": 55,
          "time": 215.17235999999917,
          "velocity": 0.7480314960629921,
          "duration": 0.20689649999999915
        },
        {
          "name": "C3",
          "midi": 48,
          "time": 215.17235999999917,
          "velocity": 0.7480314960629921,
          "duration": 0.20689649999999915
        },
        {
          "name": "C4",
          "midi": 60,
          "time": 215.37925649999917,
          "velocity": 0.7480314960629921,
          "duration": 0.20689649999999915
        },
        {
          "name": "G3",
          "midi": 55,
          "time": 215.37925649999917,
          "velocity": 0.7480314960629921,
          "duration": 0.20689649999999915
        },
        {
          "name": "C3",
          "midi": 48,
          "time": 215.37925649999917,
          "velocity": 0.7480314960629921,
          "duration": 0.20689649999999915
        },
        {
          "name": "C4",
          "midi": 60,
          "time": 215.58615299999917,
          "velocity": 0.7480314960629921,
          "duration": 0.20689649999999915
        },
        {
          "name": "G3",
          "midi": 55,
          "time": 215.58615299999917,
          "velocity": 0.7480314960629921,
          "duration": 0.20689649999999915
        },
        {
          "name": "C3",
          "midi": 48,
          "time": 215.58615299999917,
          "velocity": 0.7480314960629921,
          "duration": 0.20689649999999915
        },
        {
          "name": "C4",
          "midi": 60,
          "time": 215.79304949999917,
          "velocity": 0.7480314960629921,
          "duration": 0.20689649999999915
        },
        {
          "name": "G3",
          "midi": 55,
          "time": 215.79304949999917,
          "velocity": 0.7480314960629921,
          "duration": 0.20689649999999915
        },
        {
          "name": "C3",
          "midi": 48,
          "time": 215.79304949999917,
          "velocity": 0.7480314960629921,
          "duration": 0.20689649999999915
        },
        {
          "name": "C4",
          "midi": 60,
          "time": 215.99994599999917,
          "velocity": 0.7480314960629921,
          "duration": 0.20689649999999915
        },
        {
          "name": "G3",
          "midi": 55,
          "time": 215.99994599999917,
          "velocity": 0.7480314960629921,
          "duration": 0.20689649999999915
        },
        {
          "name": "C3",
          "midi": 48,
          "time": 215.99994599999917,
          "velocity": 0.7480314960629921,
          "duration": 0.20689649999999915
        },
        {
          "name": "C4",
          "midi": 60,
          "time": 216.20684249999917,
          "velocity": 0.7480314960629921,
          "duration": 0.20689649999999915
        },
        {
          "name": "G3",
          "midi": 55,
          "time": 216.20684249999917,
          "velocity": 0.7480314960629921,
          "duration": 0.20689649999999915
        },
        {
          "name": "C3",
          "midi": 48,
          "time": 216.20684249999917,
          "velocity": 0.7480314960629921,
          "duration": 0.20689649999999915
        },
        {
          "name": "C4",
          "midi": 60,
          "time": 216.41373899999917,
          "velocity": 0.7480314960629921,
          "duration": 0.20689649999999915
        },
        {
          "name": "G3",
          "midi": 55,
          "time": 216.41373899999917,
          "velocity": 0.7480314960629921,
          "duration": 0.20689649999999915
        },
        {
          "name": "C3",
          "midi": 48,
          "time": 216.41373899999917,
          "velocity": 0.7480314960629921,
          "duration": 0.20689649999999915
        },
        {
          "name": "C4",
          "midi": 60,
          "time": 216.62063549999917,
          "velocity": 0.7480314960629921,
          "duration": 0.20689649999999915
        },
        {
          "name": "G3",
          "midi": 55,
          "time": 216.62063549999917,
          "velocity": 0.7480314960629921,
          "duration": 0.20689649999999915
        },
        {
          "name": "C3",
          "midi": 48,
          "time": 216.62063549999917,
          "velocity": 0.7480314960629921,
          "duration": 0.20689649999999915
        },
        {
          "name": "G4",
          "midi": 67,
          "time": 216.82753199999917,
          "velocity": 0.7480314960629921,
          "duration": 0.20689649999999915
        },
        {
          "name": "E4",
          "midi": 64,
          "time": 216.82753199999917,
          "velocity": 0.7480314960629921,
          "duration": 0.20689649999999915
        },
        {
          "name": "B3",
          "midi": 59,
          "time": 216.82753199999917,
          "velocity": 0.7480314960629921,
          "duration": 0.20689649999999915
        },
        {
          "name": "E3",
          "midi": 52,
          "time": 216.82753199999917,
          "velocity": 0.7480314960629921,
          "duration": 0.20689649999999915
        },
        {
          "name": "G4",
          "midi": 67,
          "time": 217.03442849999917,
          "velocity": 0.7480314960629921,
          "duration": 0.20689649999999915
        },
        {
          "name": "E4",
          "midi": 64,
          "time": 217.03442849999917,
          "velocity": 0.7480314960629921,
          "duration": 0.20689649999999915
        },
        {
          "name": "B3",
          "midi": 59,
          "time": 217.03442849999917,
          "velocity": 0.7480314960629921,
          "duration": 0.20689649999999915
        },
        {
          "name": "E3",
          "midi": 52,
          "time": 217.03442849999917,
          "velocity": 0.7480314960629921,
          "duration": 0.20689649999999915
        },
        {
          "name": "G4",
          "midi": 67,
          "time": 217.24132499999916,
          "velocity": 0.7480314960629921,
          "duration": 0.20689649999999915
        },
        {
          "name": "E4",
          "midi": 64,
          "time": 217.24132499999916,
          "velocity": 0.7480314960629921,
          "duration": 0.20689649999999915
        },
        {
          "name": "B3",
          "midi": 59,
          "time": 217.24132499999916,
          "velocity": 0.7480314960629921,
          "duration": 0.20689649999999915
        },
        {
          "name": "E3",
          "midi": 52,
          "time": 217.24132499999916,
          "velocity": 0.7480314960629921,
          "duration": 0.20689649999999915
        },
        {
          "name": "G4",
          "midi": 67,
          "time": 217.44822149999916,
          "velocity": 0.7480314960629921,
          "duration": 0.20689649999999915
        },
        {
          "name": "E4",
          "midi": 64,
          "time": 217.44822149999916,
          "velocity": 0.7480314960629921,
          "duration": 0.20689649999999915
        },
        {
          "name": "B3",
          "midi": 59,
          "time": 217.44822149999916,
          "velocity": 0.7480314960629921,
          "duration": 0.20689649999999915
        },
        {
          "name": "E3",
          "midi": 52,
          "time": 217.44822149999916,
          "velocity": 0.7480314960629921,
          "duration": 0.20689649999999915
        },
        {
          "name": "G4",
          "midi": 67,
          "time": 217.65511799999916,
          "velocity": 0.7480314960629921,
          "duration": 0.20689649999999915
        },
        {
          "name": "E4",
          "midi": 64,
          "time": 217.65511799999916,
          "velocity": 0.7480314960629921,
          "duration": 0.20689649999999915
        },
        {
          "name": "B3",
          "midi": 59,
          "time": 217.65511799999916,
          "velocity": 0.7480314960629921,
          "duration": 0.20689649999999915
        },
        {
          "name": "E3",
          "midi": 52,
          "time": 217.65511799999916,
          "velocity": 0.7480314960629921,
          "duration": 0.20689649999999915
        },
        {
          "name": "G4",
          "midi": 67,
          "time": 217.86201449999916,
          "velocity": 0.7480314960629921,
          "duration": 0.20689649999999915
        },
        {
          "name": "E4",
          "midi": 64,
          "time": 217.86201449999916,
          "velocity": 0.7480314960629921,
          "duration": 0.20689649999999915
        },
        {
          "name": "B3",
          "midi": 59,
          "time": 217.86201449999916,
          "velocity": 0.7480314960629921,
          "duration": 0.20689649999999915
        },
        {
          "name": "E3",
          "midi": 52,
          "time": 217.86201449999916,
          "velocity": 0.7480314960629921,
          "duration": 0.20689649999999915
        },
        {
          "name": "G4",
          "midi": 67,
          "time": 218.06891099999916,
          "velocity": 0.7480314960629921,
          "duration": 0.20689649999999915
        },
        {
          "name": "E4",
          "midi": 64,
          "time": 218.06891099999916,
          "velocity": 0.7480314960629921,
          "duration": 0.20689649999999915
        },
        {
          "name": "B3",
          "midi": 59,
          "time": 218.06891099999916,
          "velocity": 0.7480314960629921,
          "duration": 0.20689649999999915
        },
        {
          "name": "E3",
          "midi": 52,
          "time": 218.06891099999916,
          "velocity": 0.7480314960629921,
          "duration": 0.20689649999999915
        },
        {
          "name": "G4",
          "midi": 67,
          "time": 218.27580749999916,
          "velocity": 0.7480314960629921,
          "duration": 0.20689649999999915
        },
        {
          "name": "E4",
          "midi": 64,
          "time": 218.27580749999916,
          "velocity": 0.7480314960629921,
          "duration": 0.20689649999999915
        },
        {
          "name": "B3",
          "midi": 59,
          "time": 218.27580749999916,
          "velocity": 0.7480314960629921,
          "duration": 0.20689649999999915
        },
        {
          "name": "E3",
          "midi": 52,
          "time": 218.27580749999916,
          "velocity": 0.7480314960629921,
          "duration": 0.20689649999999915
        },
        {
          "name": "D4",
          "midi": 62,
          "time": 218.48270399999916,
          "velocity": 0.7480314960629921,
          "duration": 0.20689649999999915
        },
        {
          "name": "A3",
          "midi": 57,
          "time": 218.48270399999916,
          "velocity": 0.7480314960629921,
          "duration": 0.20689649999999915
        },
        {
          "name": "D3",
          "midi": 50,
          "time": 218.48270399999916,
          "velocity": 0.7480314960629921,
          "duration": 0.20689649999999915
        },
        {
          "name": "D4",
          "midi": 62,
          "time": 218.68960049999916,
          "velocity": 0.7480314960629921,
          "duration": 0.20689649999999915
        },
        {
          "name": "A3",
          "midi": 57,
          "time": 218.68960049999916,
          "velocity": 0.7480314960629921,
          "duration": 0.20689649999999915
        },
        {
          "name": "D3",
          "midi": 50,
          "time": 218.68960049999916,
          "velocity": 0.7480314960629921,
          "duration": 0.20689649999999915
        },
        {
          "name": "D4",
          "midi": 62,
          "time": 218.89649699999916,
          "velocity": 0.7480314960629921,
          "duration": 0.20689649999999915
        },
        {
          "name": "A3",
          "midi": 57,
          "time": 218.89649699999916,
          "velocity": 0.7480314960629921,
          "duration": 0.20689649999999915
        },
        {
          "name": "D3",
          "midi": 50,
          "time": 218.89649699999916,
          "velocity": 0.7480314960629921,
          "duration": 0.20689649999999915
        },
        {
          "name": "D4",
          "midi": 62,
          "time": 219.10339349999916,
          "velocity": 0.7480314960629921,
          "duration": 0.20689649999999915
        },
        {
          "name": "A3",
          "midi": 57,
          "time": 219.10339349999916,
          "velocity": 0.7480314960629921,
          "duration": 0.20689649999999915
        },
        {
          "name": "D3",
          "midi": 50,
          "time": 219.10339349999916,
          "velocity": 0.7480314960629921,
          "duration": 0.20689649999999915
        },
        {
          "name": "D4",
          "midi": 62,
          "time": 219.31028999999916,
          "velocity": 0.7480314960629921,
          "duration": 0.20689649999999915
        },
        {
          "name": "A3",
          "midi": 57,
          "time": 219.31028999999916,
          "velocity": 0.7480314960629921,
          "duration": 0.20689649999999915
        },
        {
          "name": "D3",
          "midi": 50,
          "time": 219.31028999999916,
          "velocity": 0.7480314960629921,
          "duration": 0.20689649999999915
        },
        {
          "name": "D4",
          "midi": 62,
          "time": 219.51718649999916,
          "velocity": 0.7480314960629921,
          "duration": 0.20689649999999915
        },
        {
          "name": "A3",
          "midi": 57,
          "time": 219.51718649999916,
          "velocity": 0.7480314960629921,
          "duration": 0.20689649999999915
        },
        {
          "name": "D3",
          "midi": 50,
          "time": 219.51718649999916,
          "velocity": 0.7480314960629921,
          "duration": 0.20689649999999915
        },
        {
          "name": "D4",
          "midi": 62,
          "time": 219.72408299999915,
          "velocity": 0.7480314960629921,
          "duration": 0.20689649999999915
        },
        {
          "name": "A3",
          "midi": 57,
          "time": 219.72408299999915,
          "velocity": 0.7480314960629921,
          "duration": 0.20689649999999915
        },
        {
          "name": "D3",
          "midi": 50,
          "time": 219.72408299999915,
          "velocity": 0.7480314960629921,
          "duration": 0.20689649999999915
        },
        {
          "name": "D4",
          "midi": 62,
          "time": 219.93097949999915,
          "velocity": 0.7480314960629921,
          "duration": 0.20689649999999915
        },
        {
          "name": "A3",
          "midi": 57,
          "time": 219.93097949999915,
          "velocity": 0.7480314960629921,
          "duration": 0.20689649999999915
        },
        {
          "name": "D3",
          "midi": 50,
          "time": 219.93097949999915,
          "velocity": 0.7480314960629921,
          "duration": 0.20689649999999915
        },
        {
          "name": "C4",
          "midi": 60,
          "time": 220.13787599999915,
          "velocity": 0.7480314960629921,
          "duration": 0.20689649999999915
        },
        {
          "name": "G3",
          "midi": 55,
          "time": 220.13787599999915,
          "velocity": 0.7480314960629921,
          "duration": 0.20689649999999915
        },
        {
          "name": "C3",
          "midi": 48,
          "time": 220.13787599999915,
          "velocity": 0.7480314960629921,
          "duration": 0.20689649999999915
        },
        {
          "name": "C4",
          "midi": 60,
          "time": 220.34477249999915,
          "velocity": 0.7480314960629921,
          "duration": 0.20689649999999915
        },
        {
          "name": "G3",
          "midi": 55,
          "time": 220.34477249999915,
          "velocity": 0.7480314960629921,
          "duration": 0.20689649999999915
        },
        {
          "name": "C3",
          "midi": 48,
          "time": 220.34477249999915,
          "velocity": 0.7480314960629921,
          "duration": 0.20689649999999915
        },
        {
          "name": "C4",
          "midi": 60,
          "time": 220.55166899999915,
          "velocity": 0.7480314960629921,
          "duration": 0.20689649999999915
        },
        {
          "name": "G3",
          "midi": 55,
          "time": 220.55166899999915,
          "velocity": 0.7480314960629921,
          "duration": 0.20689649999999915
        },
        {
          "name": "C3",
          "midi": 48,
          "time": 220.55166899999915,
          "velocity": 0.7480314960629921,
          "duration": 0.20689649999999915
        },
        {
          "name": "C4",
          "midi": 60,
          "time": 220.75856549999915,
          "velocity": 0.7480314960629921,
          "duration": 0.20689649999999915
        },
        {
          "name": "G3",
          "midi": 55,
          "time": 220.75856549999915,
          "velocity": 0.7480314960629921,
          "duration": 0.20689649999999915
        },
        {
          "name": "C3",
          "midi": 48,
          "time": 220.75856549999915,
          "velocity": 0.7480314960629921,
          "duration": 0.20689649999999915
        },
        {
          "name": "C4",
          "midi": 60,
          "time": 220.96546199999915,
          "velocity": 0.7480314960629921,
          "duration": 0.20689649999999915
        },
        {
          "name": "G3",
          "midi": 55,
          "time": 220.96546199999915,
          "velocity": 0.7480314960629921,
          "duration": 0.20689649999999915
        },
        {
          "name": "C3",
          "midi": 48,
          "time": 220.96546199999915,
          "velocity": 0.7480314960629921,
          "duration": 0.20689649999999915
        },
        {
          "name": "C4",
          "midi": 60,
          "time": 221.17235849999915,
          "velocity": 0.7480314960629921,
          "duration": 0.20689649999999915
        },
        {
          "name": "G3",
          "midi": 55,
          "time": 221.17235849999915,
          "velocity": 0.7480314960629921,
          "duration": 0.20689649999999915
        },
        {
          "name": "C3",
          "midi": 48,
          "time": 221.17235849999915,
          "velocity": 0.7480314960629921,
          "duration": 0.20689649999999915
        },
        {
          "name": "C4",
          "midi": 60,
          "time": 221.37925499999915,
          "velocity": 0.7480314960629921,
          "duration": 0.20689649999999915
        },
        {
          "name": "G3",
          "midi": 55,
          "time": 221.37925499999915,
          "velocity": 0.7480314960629921,
          "duration": 0.20689649999999915
        },
        {
          "name": "C3",
          "midi": 48,
          "time": 221.37925499999915,
          "velocity": 0.7480314960629921,
          "duration": 0.20689649999999915
        },
        {
          "name": "C4",
          "midi": 60,
          "time": 221.58615149999915,
          "velocity": 0.7480314960629921,
          "duration": 0.20689649999999915
        },
        {
          "name": "G3",
          "midi": 55,
          "time": 221.58615149999915,
          "velocity": 0.7480314960629921,
          "duration": 0.20689649999999915
        },
        {
          "name": "C3",
          "midi": 48,
          "time": 221.58615149999915,
          "velocity": 0.7480314960629921,
          "duration": 0.20689649999999915
        },
        {
          "name": "G4",
          "midi": 67,
          "time": 221.79304799999915,
          "velocity": 0.7480314960629921,
          "duration": 0.20689649999999915
        },
        {
          "name": "E4",
          "midi": 64,
          "time": 221.79304799999915,
          "velocity": 0.7480314960629921,
          "duration": 0.20689649999999915
        },
        {
          "name": "B3",
          "midi": 59,
          "time": 221.79304799999915,
          "velocity": 0.7480314960629921,
          "duration": 0.20689649999999915
        },
        {
          "name": "E3",
          "midi": 52,
          "time": 221.79304799999915,
          "velocity": 0.7480314960629921,
          "duration": 0.20689649999999915
        },
        {
          "name": "G4",
          "midi": 67,
          "time": 221.99994449999915,
          "velocity": 0.7480314960629921,
          "duration": 0.20689649999999915
        },
        {
          "name": "E4",
          "midi": 64,
          "time": 221.99994449999915,
          "velocity": 0.7480314960629921,
          "duration": 0.20689649999999915
        },
        {
          "name": "B3",
          "midi": 59,
          "time": 221.99994449999915,
          "velocity": 0.7480314960629921,
          "duration": 0.20689649999999915
        },
        {
          "name": "E3",
          "midi": 52,
          "time": 221.99994449999915,
          "velocity": 0.7480314960629921,
          "duration": 0.20689649999999915
        },
        {
          "name": "G4",
          "midi": 67,
          "time": 222.20684099999914,
          "velocity": 0.7480314960629921,
          "duration": 0.20689649999999915
        },
        {
          "name": "E4",
          "midi": 64,
          "time": 222.20684099999914,
          "velocity": 0.7480314960629921,
          "duration": 0.20689649999999915
        },
        {
          "name": "B3",
          "midi": 59,
          "time": 222.20684099999914,
          "velocity": 0.7480314960629921,
          "duration": 0.20689649999999915
        },
        {
          "name": "E3",
          "midi": 52,
          "time": 222.20684099999914,
          "velocity": 0.7480314960629921,
          "duration": 0.20689649999999915
        },
        {
          "name": "G4",
          "midi": 67,
          "time": 222.41373749999914,
          "velocity": 0.7480314960629921,
          "duration": 0.20689649999999915
        },
        {
          "name": "E4",
          "midi": 64,
          "time": 222.41373749999914,
          "velocity": 0.7480314960629921,
          "duration": 0.20689649999999915
        },
        {
          "name": "B3",
          "midi": 59,
          "time": 222.41373749999914,
          "velocity": 0.7480314960629921,
          "duration": 0.20689649999999915
        },
        {
          "name": "E3",
          "midi": 52,
          "time": 222.41373749999914,
          "velocity": 0.7480314960629921,
          "duration": 0.20689649999999915
        },
        {
          "name": "G4",
          "midi": 67,
          "time": 222.62063399999914,
          "velocity": 0.7480314960629921,
          "duration": 0.20689649999999915
        },
        {
          "name": "E4",
          "midi": 64,
          "time": 222.62063399999914,
          "velocity": 0.7480314960629921,
          "duration": 0.20689649999999915
        },
        {
          "name": "B3",
          "midi": 59,
          "time": 222.62063399999914,
          "velocity": 0.7480314960629921,
          "duration": 0.20689649999999915
        },
        {
          "name": "E3",
          "midi": 52,
          "time": 222.62063399999914,
          "velocity": 0.7480314960629921,
          "duration": 0.20689649999999915
        },
        {
          "name": "G4",
          "midi": 67,
          "time": 222.82753049999914,
          "velocity": 0.7480314960629921,
          "duration": 0.20689649999999915
        },
        {
          "name": "E4",
          "midi": 64,
          "time": 222.82753049999914,
          "velocity": 0.7480314960629921,
          "duration": 0.20689649999999915
        },
        {
          "name": "B3",
          "midi": 59,
          "time": 222.82753049999914,
          "velocity": 0.7480314960629921,
          "duration": 0.20689649999999915
        },
        {
          "name": "E3",
          "midi": 52,
          "time": 222.82753049999914,
          "velocity": 0.7480314960629921,
          "duration": 0.20689649999999915
        },
        {
          "name": "G4",
          "midi": 67,
          "time": 223.03442699999914,
          "velocity": 0.7480314960629921,
          "duration": 0.20689649999999915
        },
        {
          "name": "E4",
          "midi": 64,
          "time": 223.03442699999914,
          "velocity": 0.7480314960629921,
          "duration": 0.20689649999999915
        },
        {
          "name": "B3",
          "midi": 59,
          "time": 223.03442699999914,
          "velocity": 0.7480314960629921,
          "duration": 0.20689649999999915
        },
        {
          "name": "E3",
          "midi": 52,
          "time": 223.03442699999914,
          "velocity": 0.7480314960629921,
          "duration": 0.20689649999999915
        },
        {
          "name": "G4",
          "midi": 67,
          "time": 223.24132349999914,
          "velocity": 0.7480314960629921,
          "duration": 0.20689649999999915
        },
        {
          "name": "E4",
          "midi": 64,
          "time": 223.24132349999914,
          "velocity": 0.7480314960629921,
          "duration": 0.20689649999999915
        },
        {
          "name": "B3",
          "midi": 59,
          "time": 223.24132349999914,
          "velocity": 0.7480314960629921,
          "duration": 0.20689649999999915
        },
        {
          "name": "E3",
          "midi": 52,
          "time": 223.24132349999914,
          "velocity": 0.7480314960629921,
          "duration": 0.20689649999999915
        },
        {
          "name": "D4",
          "midi": 62,
          "time": 223.44821999999914,
          "velocity": 0.7480314960629921,
          "duration": 0.20689649999999915
        },
        {
          "name": "A3",
          "midi": 57,
          "time": 223.44821999999914,
          "velocity": 0.7480314960629921,
          "duration": 0.20689649999999915
        },
        {
          "name": "D3",
          "midi": 50,
          "time": 223.44821999999914,
          "velocity": 0.7480314960629921,
          "duration": 0.20689649999999915
        },
        {
          "name": "D4",
          "midi": 62,
          "time": 223.65511649999914,
          "velocity": 0.7480314960629921,
          "duration": 0.20689649999999915
        },
        {
          "name": "A3",
          "midi": 57,
          "time": 223.65511649999914,
          "velocity": 0.7480314960629921,
          "duration": 0.20689649999999915
        },
        {
          "name": "D3",
          "midi": 50,
          "time": 223.65511649999914,
          "velocity": 0.7480314960629921,
          "duration": 0.20689649999999915
        },
        {
          "name": "D4",
          "midi": 62,
          "time": 223.86201299999914,
          "velocity": 0.7480314960629921,
          "duration": 0.20689649999999915
        },
        {
          "name": "A3",
          "midi": 57,
          "time": 223.86201299999914,
          "velocity": 0.7480314960629921,
          "duration": 0.20689649999999915
        },
        {
          "name": "D3",
          "midi": 50,
          "time": 223.86201299999914,
          "velocity": 0.7480314960629921,
          "duration": 0.20689649999999915
        },
        {
          "name": "D4",
          "midi": 62,
          "time": 224.06890949999914,
          "velocity": 0.7480314960629921,
          "duration": 0.20689649999999915
        },
        {
          "name": "A3",
          "midi": 57,
          "time": 224.06890949999914,
          "velocity": 0.7480314960629921,
          "duration": 0.20689649999999915
        },
        {
          "name": "D3",
          "midi": 50,
          "time": 224.06890949999914,
          "velocity": 0.7480314960629921,
          "duration": 0.20689649999999915
        },
        {
          "name": "D4",
          "midi": 62,
          "time": 224.27580599999914,
          "velocity": 0.7480314960629921,
          "duration": 0.20689649999999915
        },
        {
          "name": "A3",
          "midi": 57,
          "time": 224.27580599999914,
          "velocity": 0.7480314960629921,
          "duration": 0.20689649999999915
        },
        {
          "name": "D3",
          "midi": 50,
          "time": 224.27580599999914,
          "velocity": 0.7480314960629921,
          "duration": 0.20689649999999915
        },
        {
          "name": "D4",
          "midi": 62,
          "time": 224.48270249999914,
          "velocity": 0.7480314960629921,
          "duration": 0.20689649999999915
        },
        {
          "name": "A3",
          "midi": 57,
          "time": 224.48270249999914,
          "velocity": 0.7480314960629921,
          "duration": 0.20689649999999915
        },
        {
          "name": "D3",
          "midi": 50,
          "time": 224.48270249999914,
          "velocity": 0.7480314960629921,
          "duration": 0.20689649999999915
        },
        {
          "name": "D4",
          "midi": 62,
          "time": 224.68959899999913,
          "velocity": 0.7480314960629921,
          "duration": 0.20689649999999915
        },
        {
          "name": "A3",
          "midi": 57,
          "time": 224.68959899999913,
          "velocity": 0.7480314960629921,
          "duration": 0.20689649999999915
        },
        {
          "name": "D3",
          "midi": 50,
          "time": 224.68959899999913,
          "velocity": 0.7480314960629921,
          "duration": 0.20689649999999915
        },
        {
          "name": "D4",
          "midi": 62,
          "time": 224.89649549999913,
          "velocity": 0.7480314960629921,
          "duration": 0.20689649999999915
        },
        {
          "name": "A3",
          "midi": 57,
          "time": 224.89649549999913,
          "velocity": 0.7480314960629921,
          "duration": 0.20689649999999915
        },
        {
          "name": "D3",
          "midi": 50,
          "time": 224.89649549999913,
          "velocity": 0.7480314960629921,
          "duration": 0.20689649999999915
        },
        {
          "name": "C4",
          "midi": 60,
          "time": 225.10339199999913,
          "velocity": 0.7480314960629921,
          "duration": 0.20689649999999915
        },
        {
          "name": "G3",
          "midi": 55,
          "time": 225.10339199999913,
          "velocity": 0.7480314960629921,
          "duration": 0.20689649999999915
        },
        {
          "name": "C3",
          "midi": 48,
          "time": 225.10339199999913,
          "velocity": 0.7480314960629921,
          "duration": 0.20689649999999915
        },
        {
          "name": "C4",
          "midi": 60,
          "time": 225.31028849999913,
          "velocity": 0.7480314960629921,
          "duration": 0.20689649999999915
        },
        {
          "name": "G3",
          "midi": 55,
          "time": 225.31028849999913,
          "velocity": 0.7480314960629921,
          "duration": 0.20689649999999915
        },
        {
          "name": "C3",
          "midi": 48,
          "time": 225.31028849999913,
          "velocity": 0.7480314960629921,
          "duration": 0.20689649999999915
        },
        {
          "name": "C4",
          "midi": 60,
          "time": 225.51718499999913,
          "velocity": 0.7480314960629921,
          "duration": 0.20689649999999915
        },
        {
          "name": "G3",
          "midi": 55,
          "time": 225.51718499999913,
          "velocity": 0.7480314960629921,
          "duration": 0.20689649999999915
        },
        {
          "name": "C3",
          "midi": 48,
          "time": 225.51718499999913,
          "velocity": 0.7480314960629921,
          "duration": 0.20689649999999915
        },
        {
          "name": "C4",
          "midi": 60,
          "time": 225.72408149999913,
          "velocity": 0.7480314960629921,
          "duration": 0.20689649999999915
        },
        {
          "name": "G3",
          "midi": 55,
          "time": 225.72408149999913,
          "velocity": 0.7480314960629921,
          "duration": 0.20689649999999915
        },
        {
          "name": "C3",
          "midi": 48,
          "time": 225.72408149999913,
          "velocity": 0.7480314960629921,
          "duration": 0.20689649999999915
        },
        {
          "name": "C4",
          "midi": 60,
          "time": 225.93097799999913,
          "velocity": 0.7480314960629921,
          "duration": 0.20689649999999915
        },
        {
          "name": "G3",
          "midi": 55,
          "time": 225.93097799999913,
          "velocity": 0.7480314960629921,
          "duration": 0.20689649999999915
        },
        {
          "name": "C3",
          "midi": 48,
          "time": 225.93097799999913,
          "velocity": 0.7480314960629921,
          "duration": 0.20689649999999915
        },
        {
          "name": "C4",
          "midi": 60,
          "time": 226.13787449999913,
          "velocity": 0.7480314960629921,
          "duration": 0.20689649999999915
        },
        {
          "name": "G3",
          "midi": 55,
          "time": 226.13787449999913,
          "velocity": 0.7480314960629921,
          "duration": 0.20689649999999915
        },
        {
          "name": "C3",
          "midi": 48,
          "time": 226.13787449999913,
          "velocity": 0.7480314960629921,
          "duration": 0.20689649999999915
        },
        {
          "name": "C4",
          "midi": 60,
          "time": 226.34477099999913,
          "velocity": 0.7480314960629921,
          "duration": 0.20689649999999915
        },
        {
          "name": "G3",
          "midi": 55,
          "time": 226.34477099999913,
          "velocity": 0.7480314960629921,
          "duration": 0.20689649999999915
        },
        {
          "name": "C3",
          "midi": 48,
          "time": 226.34477099999913,
          "velocity": 0.7480314960629921,
          "duration": 0.20689649999999915
        },
        {
          "name": "C4",
          "midi": 60,
          "time": 226.55166749999913,
          "velocity": 0.7480314960629921,
          "duration": 0.20689649999999915
        },
        {
          "name": "G3",
          "midi": 55,
          "time": 226.55166749999913,
          "velocity": 0.7480314960629921,
          "duration": 0.20689649999999915
        },
        {
          "name": "C3",
          "midi": 48,
          "time": 226.55166749999913,
          "velocity": 0.7480314960629921,
          "duration": 0.20689649999999915
        },
        {
          "name": "G4",
          "midi": 67,
          "time": 226.75856399999913,
          "velocity": 0.7480314960629921,
          "duration": 0.20689649999999915
        },
        {
          "name": "E4",
          "midi": 64,
          "time": 226.75856399999913,
          "velocity": 0.7480314960629921,
          "duration": 0.20689649999999915
        },
        {
          "name": "B3",
          "midi": 59,
          "time": 226.75856399999913,
          "velocity": 0.7480314960629921,
          "duration": 0.20689649999999915
        },
        {
          "name": "E3",
          "midi": 52,
          "time": 226.75856399999913,
          "velocity": 0.7480314960629921,
          "duration": 0.20689649999999915
        },
        {
          "name": "G4",
          "midi": 67,
          "time": 226.96546049999912,
          "velocity": 0.7480314960629921,
          "duration": 0.20689649999999915
        },
        {
          "name": "E4",
          "midi": 64,
          "time": 226.96546049999912,
          "velocity": 0.7480314960629921,
          "duration": 0.20689649999999915
        },
        {
          "name": "B3",
          "midi": 59,
          "time": 226.96546049999912,
          "velocity": 0.7480314960629921,
          "duration": 0.20689649999999915
        },
        {
          "name": "E3",
          "midi": 52,
          "time": 226.96546049999912,
          "velocity": 0.7480314960629921,
          "duration": 0.20689649999999915
        },
        {
          "name": "G4",
          "midi": 67,
          "time": 227.17235699999912,
          "velocity": 0.7480314960629921,
          "duration": 0.20689649999999915
        },
        {
          "name": "E4",
          "midi": 64,
          "time": 227.17235699999912,
          "velocity": 0.7480314960629921,
          "duration": 0.20689649999999915
        },
        {
          "name": "B3",
          "midi": 59,
          "time": 227.17235699999912,
          "velocity": 0.7480314960629921,
          "duration": 0.20689649999999915
        },
        {
          "name": "E3",
          "midi": 52,
          "time": 227.17235699999912,
          "velocity": 0.7480314960629921,
          "duration": 0.20689649999999915
        },
        {
          "name": "G4",
          "midi": 67,
          "time": 227.37925349999912,
          "velocity": 0.7480314960629921,
          "duration": 0.20689649999999915
        },
        {
          "name": "E4",
          "midi": 64,
          "time": 227.37925349999912,
          "velocity": 0.7480314960629921,
          "duration": 0.20689649999999915
        },
        {
          "name": "B3",
          "midi": 59,
          "time": 227.37925349999912,
          "velocity": 0.7480314960629921,
          "duration": 0.20689649999999915
        },
        {
          "name": "E3",
          "midi": 52,
          "time": 227.37925349999912,
          "velocity": 0.7480314960629921,
          "duration": 0.20689649999999915
        },
        {
          "name": "G4",
          "midi": 67,
          "time": 227.58614999999912,
          "velocity": 0.7480314960629921,
          "duration": 0.20689649999999915
        },
        {
          "name": "E4",
          "midi": 64,
          "time": 227.58614999999912,
          "velocity": 0.7480314960629921,
          "duration": 0.20689649999999915
        },
        {
          "name": "B3",
          "midi": 59,
          "time": 227.58614999999912,
          "velocity": 0.7480314960629921,
          "duration": 0.20689649999999915
        },
        {
          "name": "E3",
          "midi": 52,
          "time": 227.58614999999912,
          "velocity": 0.7480314960629921,
          "duration": 0.20689649999999915
        },
        {
          "name": "G4",
          "midi": 67,
          "time": 227.79304649999912,
          "velocity": 0.7480314960629921,
          "duration": 0.20689649999999915
        },
        {
          "name": "E4",
          "midi": 64,
          "time": 227.79304649999912,
          "velocity": 0.7480314960629921,
          "duration": 0.20689649999999915
        },
        {
          "name": "B3",
          "midi": 59,
          "time": 227.79304649999912,
          "velocity": 0.7480314960629921,
          "duration": 0.20689649999999915
        },
        {
          "name": "E3",
          "midi": 52,
          "time": 227.79304649999912,
          "velocity": 0.7480314960629921,
          "duration": 0.20689649999999915
        },
        {
          "name": "G4",
          "midi": 67,
          "time": 227.99994299999912,
          "velocity": 0.7480314960629921,
          "duration": 0.20689649999999915
        },
        {
          "name": "E4",
          "midi": 64,
          "time": 227.99994299999912,
          "velocity": 0.7480314960629921,
          "duration": 0.20689649999999915
        },
        {
          "name": "B3",
          "midi": 59,
          "time": 227.99994299999912,
          "velocity": 0.7480314960629921,
          "duration": 0.20689649999999915
        },
        {
          "name": "E3",
          "midi": 52,
          "time": 227.99994299999912,
          "velocity": 0.7480314960629921,
          "duration": 0.20689649999999915
        },
        {
          "name": "G4",
          "midi": 67,
          "time": 228.20683949999912,
          "velocity": 0.7480314960629921,
          "duration": 0.20689649999999915
        },
        {
          "name": "E4",
          "midi": 64,
          "time": 228.20683949999912,
          "velocity": 0.7480314960629921,
          "duration": 0.20689649999999915
        },
        {
          "name": "B3",
          "midi": 59,
          "time": 228.20683949999912,
          "velocity": 0.7480314960629921,
          "duration": 0.20689649999999915
        },
        {
          "name": "E3",
          "midi": 52,
          "time": 228.20683949999912,
          "velocity": 0.7480314960629921,
          "duration": 0.20689649999999915
        },
        {
          "name": "D4",
          "midi": 62,
          "time": 228.41373599999912,
          "velocity": 0.7480314960629921,
          "duration": 0.20689649999999915
        },
        {
          "name": "A3",
          "midi": 57,
          "time": 228.41373599999912,
          "velocity": 0.7480314960629921,
          "duration": 0.20689649999999915
        },
        {
          "name": "D3",
          "midi": 50,
          "time": 228.41373599999912,
          "velocity": 0.7480314960629921,
          "duration": 0.20689649999999915
        },
        {
          "name": "D4",
          "midi": 62,
          "time": 228.62063249999912,
          "velocity": 0.7480314960629921,
          "duration": 0.20689649999999915
        },
        {
          "name": "A3",
          "midi": 57,
          "time": 228.62063249999912,
          "velocity": 0.7480314960629921,
          "duration": 0.20689649999999915
        },
        {
          "name": "D3",
          "midi": 50,
          "time": 228.62063249999912,
          "velocity": 0.7480314960629921,
          "duration": 0.20689649999999915
        },
        {
          "name": "D4",
          "midi": 62,
          "time": 228.82752899999912,
          "velocity": 0.7480314960629921,
          "duration": 0.20689649999999915
        },
        {
          "name": "A3",
          "midi": 57,
          "time": 228.82752899999912,
          "velocity": 0.7480314960629921,
          "duration": 0.20689649999999915
        },
        {
          "name": "D3",
          "midi": 50,
          "time": 228.82752899999912,
          "velocity": 0.7480314960629921,
          "duration": 0.20689649999999915
        },
        {
          "name": "D4",
          "midi": 62,
          "time": 229.03442549999912,
          "velocity": 0.7480314960629921,
          "duration": 0.20689649999999915
        },
        {
          "name": "A3",
          "midi": 57,
          "time": 229.03442549999912,
          "velocity": 0.7480314960629921,
          "duration": 0.20689649999999915
        },
        {
          "name": "D3",
          "midi": 50,
          "time": 229.03442549999912,
          "velocity": 0.7480314960629921,
          "duration": 0.20689649999999915
        },
        {
          "name": "D4",
          "midi": 62,
          "time": 229.24132199999912,
          "velocity": 0.7480314960629921,
          "duration": 0.20689649999999915
        },
        {
          "name": "A3",
          "midi": 57,
          "time": 229.24132199999912,
          "velocity": 0.7480314960629921,
          "duration": 0.20689649999999915
        },
        {
          "name": "D3",
          "midi": 50,
          "time": 229.24132199999912,
          "velocity": 0.7480314960629921,
          "duration": 0.20689649999999915
        },
        {
          "name": "D4",
          "midi": 62,
          "time": 229.44821849999911,
          "velocity": 0.7480314960629921,
          "duration": 0.20689649999999915
        },
        {
          "name": "A3",
          "midi": 57,
          "time": 229.44821849999911,
          "velocity": 0.7480314960629921,
          "duration": 0.20689649999999915
        },
        {
          "name": "D3",
          "midi": 50,
          "time": 229.44821849999911,
          "velocity": 0.7480314960629921,
          "duration": 0.20689649999999915
        },
        {
          "name": "D4",
          "midi": 62,
          "time": 229.6551149999991,
          "velocity": 0.7480314960629921,
          "duration": 0.20689649999999915
        },
        {
          "name": "A3",
          "midi": 57,
          "time": 229.6551149999991,
          "velocity": 0.7480314960629921,
          "duration": 0.20689649999999915
        },
        {
          "name": "D3",
          "midi": 50,
          "time": 229.6551149999991,
          "velocity": 0.7480314960629921,
          "duration": 0.20689649999999915
        },
        {
          "name": "D4",
          "midi": 62,
          "time": 229.8620114999991,
          "velocity": 0.7480314960629921,
          "duration": 0.20689649999999915
        },
        {
          "name": "A3",
          "midi": 57,
          "time": 229.8620114999991,
          "velocity": 0.7480314960629921,
          "duration": 0.20689649999999915
        },
        {
          "name": "D3",
          "midi": 50,
          "time": 229.8620114999991,
          "velocity": 0.7480314960629921,
          "duration": 0.20689649999999915
        },
        {
          "name": "C4",
          "midi": 60,
          "time": 230.0689079999991,
          "velocity": 0.7480314960629921,
          "duration": 0.20689649999999915
        },
        {
          "name": "G3",
          "midi": 55,
          "time": 230.0689079999991,
          "velocity": 0.7480314960629921,
          "duration": 0.20689649999999915
        },
        {
          "name": "C3",
          "midi": 48,
          "time": 230.0689079999991,
          "velocity": 0.7480314960629921,
          "duration": 0.20689649999999915
        },
        {
          "name": "C4",
          "midi": 60,
          "time": 230.2758044999991,
          "velocity": 0.7480314960629921,
          "duration": 0.20689649999999915
        },
        {
          "name": "G3",
          "midi": 55,
          "time": 230.2758044999991,
          "velocity": 0.7480314960629921,
          "duration": 0.20689649999999915
        },
        {
          "name": "C3",
          "midi": 48,
          "time": 230.2758044999991,
          "velocity": 0.7480314960629921,
          "duration": 0.20689649999999915
        },
        {
          "name": "C4",
          "midi": 60,
          "time": 230.4827009999991,
          "velocity": 0.7480314960629921,
          "duration": 0.20689649999999915
        },
        {
          "name": "G3",
          "midi": 55,
          "time": 230.4827009999991,
          "velocity": 0.7480314960629921,
          "duration": 0.20689649999999915
        },
        {
          "name": "C3",
          "midi": 48,
          "time": 230.4827009999991,
          "velocity": 0.7480314960629921,
          "duration": 0.20689649999999915
        },
        {
          "name": "C4",
          "midi": 60,
          "time": 230.6895974999991,
          "velocity": 0.7480314960629921,
          "duration": 0.20689649999999915
        },
        {
          "name": "G3",
          "midi": 55,
          "time": 230.6895974999991,
          "velocity": 0.7480314960629921,
          "duration": 0.20689649999999915
        },
        {
          "name": "C3",
          "midi": 48,
          "time": 230.6895974999991,
          "velocity": 0.7480314960629921,
          "duration": 0.20689649999999915
        },
        {
          "name": "C4",
          "midi": 60,
          "time": 230.8964939999991,
          "velocity": 0.7480314960629921,
          "duration": 0.20689649999999915
        },
        {
          "name": "G3",
          "midi": 55,
          "time": 230.8964939999991,
          "velocity": 0.7480314960629921,
          "duration": 0.20689649999999915
        },
        {
          "name": "C3",
          "midi": 48,
          "time": 230.8964939999991,
          "velocity": 0.7480314960629921,
          "duration": 0.20689649999999915
        },
        {
          "name": "C4",
          "midi": 60,
          "time": 231.1033904999991,
          "velocity": 0.7480314960629921,
          "duration": 0.20689649999999915
        },
        {
          "name": "G3",
          "midi": 55,
          "time": 231.1033904999991,
          "velocity": 0.7480314960629921,
          "duration": 0.20689649999999915
        },
        {
          "name": "C3",
          "midi": 48,
          "time": 231.1033904999991,
          "velocity": 0.7480314960629921,
          "duration": 0.20689649999999915
        },
        {
          "name": "C4",
          "midi": 60,
          "time": 231.3102869999991,
          "velocity": 0.7480314960629921,
          "duration": 0.20689649999999915
        },
        {
          "name": "G3",
          "midi": 55,
          "time": 231.3102869999991,
          "velocity": 0.7480314960629921,
          "duration": 0.20689649999999915
        },
        {
          "name": "C3",
          "midi": 48,
          "time": 231.3102869999991,
          "velocity": 0.7480314960629921,
          "duration": 0.20689649999999915
        },
        {
          "name": "C4",
          "midi": 60,
          "time": 231.5171834999991,
          "velocity": 0.7480314960629921,
          "duration": 0.20689649999999915
        },
        {
          "name": "G3",
          "midi": 55,
          "time": 231.5171834999991,
          "velocity": 0.7480314960629921,
          "duration": 0.20689649999999915
        },
        {
          "name": "C3",
          "midi": 48,
          "time": 231.5171834999991,
          "velocity": 0.7480314960629921,
          "duration": 0.20689649999999915
        },
        {
          "name": "G4",
          "midi": 67,
          "time": 231.7240799999991,
          "velocity": 0.7480314960629921,
          "duration": 0.20689649999999915
        },
        {
          "name": "E4",
          "midi": 64,
          "time": 231.7240799999991,
          "velocity": 0.7480314960629921,
          "duration": 0.20689649999999915
        },
        {
          "name": "B3",
          "midi": 59,
          "time": 231.7240799999991,
          "velocity": 0.7480314960629921,
          "duration": 0.20689649999999915
        },
        {
          "name": "E3",
          "midi": 52,
          "time": 231.7240799999991,
          "velocity": 0.7480314960629921,
          "duration": 0.20689649999999915
        },
        {
          "name": "G4",
          "midi": 67,
          "time": 231.9309764999991,
          "velocity": 0.7480314960629921,
          "duration": 0.20689649999999915
        },
        {
          "name": "E4",
          "midi": 64,
          "time": 231.9309764999991,
          "velocity": 0.7480314960629921,
          "duration": 0.20689649999999915
        },
        {
          "name": "B3",
          "midi": 59,
          "time": 231.9309764999991,
          "velocity": 0.7480314960629921,
          "duration": 0.20689649999999915
        },
        {
          "name": "E3",
          "midi": 52,
          "time": 231.9309764999991,
          "velocity": 0.7480314960629921,
          "duration": 0.20689649999999915
        },
        {
          "name": "G4",
          "midi": 67,
          "time": 232.1378729999991,
          "velocity": 0.7480314960629921,
          "duration": 0.20689649999999915
        },
        {
          "name": "E4",
          "midi": 64,
          "time": 232.1378729999991,
          "velocity": 0.7480314960629921,
          "duration": 0.20689649999999915
        },
        {
          "name": "B3",
          "midi": 59,
          "time": 232.1378729999991,
          "velocity": 0.7480314960629921,
          "duration": 0.20689649999999915
        },
        {
          "name": "E3",
          "midi": 52,
          "time": 232.1378729999991,
          "velocity": 0.7480314960629921,
          "duration": 0.20689649999999915
        },
        {
          "name": "G4",
          "midi": 67,
          "time": 232.3447694999991,
          "velocity": 0.7480314960629921,
          "duration": 0.20689649999999915
        },
        {
          "name": "E4",
          "midi": 64,
          "time": 232.3447694999991,
          "velocity": 0.7480314960629921,
          "duration": 0.20689649999999915
        },
        {
          "name": "B3",
          "midi": 59,
          "time": 232.3447694999991,
          "velocity": 0.7480314960629921,
          "duration": 0.20689649999999915
        },
        {
          "name": "E3",
          "midi": 52,
          "time": 232.3447694999991,
          "velocity": 0.7480314960629921,
          "duration": 0.20689649999999915
        },
        {
          "name": "G4",
          "midi": 67,
          "time": 232.5516659999991,
          "velocity": 0.7480314960629921,
          "duration": 0.20689649999999915
        },
        {
          "name": "E4",
          "midi": 64,
          "time": 232.5516659999991,
          "velocity": 0.7480314960629921,
          "duration": 0.20689649999999915
        },
        {
          "name": "B3",
          "midi": 59,
          "time": 232.5516659999991,
          "velocity": 0.7480314960629921,
          "duration": 0.20689649999999915
        },
        {
          "name": "E3",
          "midi": 52,
          "time": 232.5516659999991,
          "velocity": 0.7480314960629921,
          "duration": 0.20689649999999915
        },
        {
          "name": "G4",
          "midi": 67,
          "time": 232.7585624999991,
          "velocity": 0.7480314960629921,
          "duration": 0.20689649999999915
        },
        {
          "name": "E4",
          "midi": 64,
          "time": 232.7585624999991,
          "velocity": 0.7480314960629921,
          "duration": 0.20689649999999915
        },
        {
          "name": "B3",
          "midi": 59,
          "time": 232.7585624999991,
          "velocity": 0.7480314960629921,
          "duration": 0.20689649999999915
        },
        {
          "name": "E3",
          "midi": 52,
          "time": 232.7585624999991,
          "velocity": 0.7480314960629921,
          "duration": 0.20689649999999915
        },
        {
          "name": "G4",
          "midi": 67,
          "time": 232.9654589999991,
          "velocity": 0.7480314960629921,
          "duration": 0.20689649999999915
        },
        {
          "name": "E4",
          "midi": 64,
          "time": 232.9654589999991,
          "velocity": 0.7480314960629921,
          "duration": 0.20689649999999915
        },
        {
          "name": "B3",
          "midi": 59,
          "time": 232.9654589999991,
          "velocity": 0.7480314960629921,
          "duration": 0.20689649999999915
        },
        {
          "name": "E3",
          "midi": 52,
          "time": 232.9654589999991,
          "velocity": 0.7480314960629921,
          "duration": 0.20689649999999915
        },
        {
          "name": "G4",
          "midi": 67,
          "time": 233.1723554999991,
          "velocity": 0.7480314960629921,
          "duration": 0.20689649999999915
        },
        {
          "name": "E4",
          "midi": 64,
          "time": 233.1723554999991,
          "velocity": 0.7480314960629921,
          "duration": 0.20689649999999915
        },
        {
          "name": "B3",
          "midi": 59,
          "time": 233.1723554999991,
          "velocity": 0.7480314960629921,
          "duration": 0.20689649999999915
        },
        {
          "name": "E3",
          "midi": 52,
          "time": 233.1723554999991,
          "velocity": 0.7480314960629921,
          "duration": 0.20689649999999915
        },
        {
          "name": "D4",
          "midi": 62,
          "time": 233.3792519999991,
          "velocity": 0.7480314960629921,
          "duration": 0.20689649999999915
        },
        {
          "name": "A3",
          "midi": 57,
          "time": 233.3792519999991,
          "velocity": 0.7480314960629921,
          "duration": 0.20689649999999915
        },
        {
          "name": "D3",
          "midi": 50,
          "time": 233.3792519999991,
          "velocity": 0.7480314960629921,
          "duration": 0.20689649999999915
        },
        {
          "name": "D4",
          "midi": 62,
          "time": 233.5861484999991,
          "velocity": 0.7480314960629921,
          "duration": 0.20689649999999915
        },
        {
          "name": "A3",
          "midi": 57,
          "time": 233.5861484999991,
          "velocity": 0.7480314960629921,
          "duration": 0.20689649999999915
        },
        {
          "name": "D3",
          "midi": 50,
          "time": 233.5861484999991,
          "velocity": 0.7480314960629921,
          "duration": 0.20689649999999915
        },
        {
          "name": "D4",
          "midi": 62,
          "time": 233.7930449999991,
          "velocity": 0.7480314960629921,
          "duration": 0.20689649999999915
        },
        {
          "name": "A3",
          "midi": 57,
          "time": 233.7930449999991,
          "velocity": 0.7480314960629921,
          "duration": 0.20689649999999915
        },
        {
          "name": "D3",
          "midi": 50,
          "time": 233.7930449999991,
          "velocity": 0.7480314960629921,
          "duration": 0.20689649999999915
        },
        {
          "name": "D4",
          "midi": 62,
          "time": 233.9999414999991,
          "velocity": 0.7480314960629921,
          "duration": 0.20689649999999915
        },
        {
          "name": "A3",
          "midi": 57,
          "time": 233.9999414999991,
          "velocity": 0.7480314960629921,
          "duration": 0.20689649999999915
        },
        {
          "name": "D3",
          "midi": 50,
          "time": 233.9999414999991,
          "velocity": 0.7480314960629921,
          "duration": 0.20689649999999915
        },
        {
          "name": "D4",
          "midi": 62,
          "time": 234.2068379999991,
          "velocity": 0.7480314960629921,
          "duration": 0.20689649999999915
        },
        {
          "name": "A3",
          "midi": 57,
          "time": 234.2068379999991,
          "velocity": 0.7480314960629921,
          "duration": 0.20689649999999915
        },
        {
          "name": "D3",
          "midi": 50,
          "time": 234.2068379999991,
          "velocity": 0.7480314960629921,
          "duration": 0.20689649999999915
        },
        {
          "name": "D4",
          "midi": 62,
          "time": 234.4137344999991,
          "velocity": 0.7480314960629921,
          "duration": 0.20689649999999915
        },
        {
          "name": "A3",
          "midi": 57,
          "time": 234.4137344999991,
          "velocity": 0.7480314960629921,
          "duration": 0.20689649999999915
        },
        {
          "name": "D3",
          "midi": 50,
          "time": 234.4137344999991,
          "velocity": 0.7480314960629921,
          "duration": 0.20689649999999915
        },
        {
          "name": "D4",
          "midi": 62,
          "time": 234.6206309999991,
          "velocity": 0.7480314960629921,
          "duration": 0.20689649999999915
        },
        {
          "name": "A3",
          "midi": 57,
          "time": 234.6206309999991,
          "velocity": 0.7480314960629921,
          "duration": 0.20689649999999915
        },
        {
          "name": "D3",
          "midi": 50,
          "time": 234.6206309999991,
          "velocity": 0.7480314960629921,
          "duration": 0.20689649999999915
        },
        {
          "name": "D4",
          "midi": 62,
          "time": 234.8275274999991,
          "velocity": 0.7480314960629921,
          "duration": 0.20689649999999915
        },
        {
          "name": "A3",
          "midi": 57,
          "time": 234.8275274999991,
          "velocity": 0.7480314960629921,
          "duration": 0.20689649999999915
        },
        {
          "name": "D3",
          "midi": 50,
          "time": 234.8275274999991,
          "velocity": 0.7480314960629921,
          "duration": 0.20689649999999915
        },
        {
          "name": "C4",
          "midi": 60,
          "time": 235.0344239999991,
          "velocity": 0.7480314960629921,
          "duration": 0.20689649999999915
        },
        {
          "name": "G3",
          "midi": 55,
          "time": 235.0344239999991,
          "velocity": 0.7480314960629921,
          "duration": 0.20689649999999915
        },
        {
          "name": "C3",
          "midi": 48,
          "time": 235.0344239999991,
          "velocity": 0.7480314960629921,
          "duration": 0.20689649999999915
        },
        {
          "name": "C4",
          "midi": 60,
          "time": 235.2413204999991,
          "velocity": 0.7480314960629921,
          "duration": 0.20689649999999915
        },
        {
          "name": "G3",
          "midi": 55,
          "time": 235.2413204999991,
          "velocity": 0.7480314960629921,
          "duration": 0.20689649999999915
        },
        {
          "name": "C3",
          "midi": 48,
          "time": 235.2413204999991,
          "velocity": 0.7480314960629921,
          "duration": 0.20689649999999915
        },
        {
          "name": "C4",
          "midi": 60,
          "time": 235.4482169999991,
          "velocity": 0.7480314960629921,
          "duration": 0.20689649999999915
        },
        {
          "name": "G3",
          "midi": 55,
          "time": 235.4482169999991,
          "velocity": 0.7480314960629921,
          "duration": 0.20689649999999915
        },
        {
          "name": "C3",
          "midi": 48,
          "time": 235.4482169999991,
          "velocity": 0.7480314960629921,
          "duration": 0.20689649999999915
        },
        {
          "name": "C4",
          "midi": 60,
          "time": 235.6551134999991,
          "velocity": 0.7480314960629921,
          "duration": 0.20689649999999915
        },
        {
          "name": "G3",
          "midi": 55,
          "time": 235.6551134999991,
          "velocity": 0.7480314960629921,
          "duration": 0.20689649999999915
        },
        {
          "name": "C3",
          "midi": 48,
          "time": 235.6551134999991,
          "velocity": 0.7480314960629921,
          "duration": 0.20689649999999915
        },
        {
          "name": "C4",
          "midi": 60,
          "time": 235.8620099999991,
          "velocity": 0.7480314960629921,
          "duration": 0.20689649999999915
        },
        {
          "name": "G3",
          "midi": 55,
          "time": 235.8620099999991,
          "velocity": 0.7480314960629921,
          "duration": 0.20689649999999915
        },
        {
          "name": "C3",
          "midi": 48,
          "time": 235.8620099999991,
          "velocity": 0.7480314960629921,
          "duration": 0.20689649999999915
        },
        {
          "name": "C4",
          "midi": 60,
          "time": 236.0689064999991,
          "velocity": 0.7480314960629921,
          "duration": 0.20689649999999915
        },
        {
          "name": "G3",
          "midi": 55,
          "time": 236.0689064999991,
          "velocity": 0.7480314960629921,
          "duration": 0.20689649999999915
        },
        {
          "name": "C3",
          "midi": 48,
          "time": 236.0689064999991,
          "velocity": 0.7480314960629921,
          "duration": 0.20689649999999915
        },
        {
          "name": "C4",
          "midi": 60,
          "time": 236.2758029999991,
          "velocity": 0.7480314960629921,
          "duration": 0.20689649999999915
        },
        {
          "name": "G3",
          "midi": 55,
          "time": 236.2758029999991,
          "velocity": 0.7480314960629921,
          "duration": 0.20689649999999915
        },
        {
          "name": "C3",
          "midi": 48,
          "time": 236.2758029999991,
          "velocity": 0.7480314960629921,
          "duration": 0.20689649999999915
        },
        {
          "name": "C4",
          "midi": 60,
          "time": 236.4826994999991,
          "velocity": 0.7480314960629921,
          "duration": 0.20689649999999915
        },
        {
          "name": "G3",
          "midi": 55,
          "time": 236.4826994999991,
          "velocity": 0.7480314960629921,
          "duration": 0.20689649999999915
        },
        {
          "name": "C3",
          "midi": 48,
          "time": 236.4826994999991,
          "velocity": 0.7480314960629921,
          "duration": 0.20689649999999915
        },
        {
          "name": "G4",
          "midi": 67,
          "time": 236.68959599999909,
          "velocity": 0.7480314960629921,
          "duration": 0.20689649999999915
        },
        {
          "name": "E4",
          "midi": 64,
          "time": 236.68959599999909,
          "velocity": 0.7480314960629921,
          "duration": 0.20689649999999915
        },
        {
          "name": "B3",
          "midi": 59,
          "time": 236.68959599999909,
          "velocity": 0.7480314960629921,
          "duration": 0.20689649999999915
        },
        {
          "name": "E3",
          "midi": 52,
          "time": 236.68959599999909,
          "velocity": 0.7480314960629921,
          "duration": 0.20689649999999915
        },
        {
          "name": "G4",
          "midi": 67,
          "time": 236.89649249999908,
          "velocity": 0.7480314960629921,
          "duration": 0.20689649999999915
        },
        {
          "name": "E4",
          "midi": 64,
          "time": 236.89649249999908,
          "velocity": 0.7480314960629921,
          "duration": 0.20689649999999915
        },
        {
          "name": "B3",
          "midi": 59,
          "time": 236.89649249999908,
          "velocity": 0.7480314960629921,
          "duration": 0.20689649999999915
        },
        {
          "name": "E3",
          "midi": 52,
          "time": 236.89649249999908,
          "velocity": 0.7480314960629921,
          "duration": 0.20689649999999915
        },
        {
          "name": "G4",
          "midi": 67,
          "time": 237.10338899999908,
          "velocity": 0.7480314960629921,
          "duration": 0.20689649999999915
        },
        {
          "name": "E4",
          "midi": 64,
          "time": 237.10338899999908,
          "velocity": 0.7480314960629921,
          "duration": 0.20689649999999915
        },
        {
          "name": "B3",
          "midi": 59,
          "time": 237.10338899999908,
          "velocity": 0.7480314960629921,
          "duration": 0.20689649999999915
        },
        {
          "name": "E3",
          "midi": 52,
          "time": 237.10338899999908,
          "velocity": 0.7480314960629921,
          "duration": 0.20689649999999915
        },
        {
          "name": "G4",
          "midi": 67,
          "time": 237.31028549999908,
          "velocity": 0.7480314960629921,
          "duration": 0.20689649999999915
        },
        {
          "name": "E4",
          "midi": 64,
          "time": 237.31028549999908,
          "velocity": 0.7480314960629921,
          "duration": 0.20689649999999915
        },
        {
          "name": "B3",
          "midi": 59,
          "time": 237.31028549999908,
          "velocity": 0.7480314960629921,
          "duration": 0.20689649999999915
        },
        {
          "name": "E3",
          "midi": 52,
          "time": 237.31028549999908,
          "velocity": 0.7480314960629921,
          "duration": 0.20689649999999915
        },
        {
          "name": "G4",
          "midi": 67,
          "time": 237.51718199999908,
          "velocity": 0.7480314960629921,
          "duration": 0.20689649999999915
        },
        {
          "name": "E4",
          "midi": 64,
          "time": 237.51718199999908,
          "velocity": 0.7480314960629921,
          "duration": 0.20689649999999915
        },
        {
          "name": "B3",
          "midi": 59,
          "time": 237.51718199999908,
          "velocity": 0.7480314960629921,
          "duration": 0.20689649999999915
        },
        {
          "name": "E3",
          "midi": 52,
          "time": 237.51718199999908,
          "velocity": 0.7480314960629921,
          "duration": 0.20689649999999915
        },
        {
          "name": "G4",
          "midi": 67,
          "time": 237.72407849999908,
          "velocity": 0.7480314960629921,
          "duration": 0.20689649999999915
        },
        {
          "name": "E4",
          "midi": 64,
          "time": 237.72407849999908,
          "velocity": 0.7480314960629921,
          "duration": 0.20689649999999915
        },
        {
          "name": "B3",
          "midi": 59,
          "time": 237.72407849999908,
          "velocity": 0.7480314960629921,
          "duration": 0.20689649999999915
        },
        {
          "name": "E3",
          "midi": 52,
          "time": 237.72407849999908,
          "velocity": 0.7480314960629921,
          "duration": 0.20689649999999915
        },
        {
          "name": "G4",
          "midi": 67,
          "time": 237.93097499999908,
          "velocity": 0.7480314960629921,
          "duration": 0.20689649999999915
        },
        {
          "name": "E4",
          "midi": 64,
          "time": 237.93097499999908,
          "velocity": 0.7480314960629921,
          "duration": 0.20689649999999915
        },
        {
          "name": "B3",
          "midi": 59,
          "time": 237.93097499999908,
          "velocity": 0.7480314960629921,
          "duration": 0.20689649999999915
        },
        {
          "name": "E3",
          "midi": 52,
          "time": 237.93097499999908,
          "velocity": 0.7480314960629921,
          "duration": 0.20689649999999915
        },
        {
          "name": "G4",
          "midi": 67,
          "time": 238.13787149999908,
          "velocity": 0.7480314960629921,
          "duration": 0.20689649999999915
        },
        {
          "name": "E4",
          "midi": 64,
          "time": 238.13787149999908,
          "velocity": 0.7480314960629921,
          "duration": 0.20689649999999915
        },
        {
          "name": "B3",
          "midi": 59,
          "time": 238.13787149999908,
          "velocity": 0.7480314960629921,
          "duration": 0.20689649999999915
        },
        {
          "name": "E3",
          "midi": 52,
          "time": 238.13787149999908,
          "velocity": 0.7480314960629921,
          "duration": 0.20689649999999915
        },
        {
          "name": "D4",
          "midi": 62,
          "time": 238.34476799999908,
          "velocity": 0.7480314960629921,
          "duration": 0.20689649999999915
        },
        {
          "name": "A3",
          "midi": 57,
          "time": 238.34476799999908,
          "velocity": 0.7480314960629921,
          "duration": 0.20689649999999915
        },
        {
          "name": "D3",
          "midi": 50,
          "time": 238.34476799999908,
          "velocity": 0.7480314960629921,
          "duration": 0.20689649999999915
        },
        {
          "name": "D4",
          "midi": 62,
          "time": 238.55166449999908,
          "velocity": 0.7480314960629921,
          "duration": 0.20689649999999915
        },
        {
          "name": "A3",
          "midi": 57,
          "time": 238.55166449999908,
          "velocity": 0.7480314960629921,
          "duration": 0.20689649999999915
        },
        {
          "name": "D3",
          "midi": 50,
          "time": 238.55166449999908,
          "velocity": 0.7480314960629921,
          "duration": 0.20689649999999915
        },
        {
          "name": "D4",
          "midi": 62,
          "time": 238.75856099999908,
          "velocity": 0.7480314960629921,
          "duration": 0.20689649999999915
        },
        {
          "name": "A3",
          "midi": 57,
          "time": 238.75856099999908,
          "velocity": 0.7480314960629921,
          "duration": 0.20689649999999915
        },
        {
          "name": "D3",
          "midi": 50,
          "time": 238.75856099999908,
          "velocity": 0.7480314960629921,
          "duration": 0.20689649999999915
        },
        {
          "name": "D4",
          "midi": 62,
          "time": 238.96545749999908,
          "velocity": 0.7480314960629921,
          "duration": 0.20689649999999915
        },
        {
          "name": "A3",
          "midi": 57,
          "time": 238.96545749999908,
          "velocity": 0.7480314960629921,
          "duration": 0.20689649999999915
        },
        {
          "name": "D3",
          "midi": 50,
          "time": 238.96545749999908,
          "velocity": 0.7480314960629921,
          "duration": 0.20689649999999915
        },
        {
          "name": "D4",
          "midi": 62,
          "time": 239.17235399999907,
          "velocity": 0.7480314960629921,
          "duration": 0.20689649999999915
        },
        {
          "name": "A3",
          "midi": 57,
          "time": 239.17235399999907,
          "velocity": 0.7480314960629921,
          "duration": 0.20689649999999915
        },
        {
          "name": "D3",
          "midi": 50,
          "time": 239.17235399999907,
          "velocity": 0.7480314960629921,
          "duration": 0.20689649999999915
        },
        {
          "name": "D4",
          "midi": 62,
          "time": 239.37925049999907,
          "velocity": 0.7480314960629921,
          "duration": 0.20689649999999915
        },
        {
          "name": "A3",
          "midi": 57,
          "time": 239.37925049999907,
          "velocity": 0.7480314960629921,
          "duration": 0.20689649999999915
        },
        {
          "name": "D3",
          "midi": 50,
          "time": 239.37925049999907,
          "velocity": 0.7480314960629921,
          "duration": 0.20689649999999915
        },
        {
          "name": "D4",
          "midi": 62,
          "time": 239.58614699999907,
          "velocity": 0.7480314960629921,
          "duration": 0.20689649999999915
        },
        {
          "name": "A3",
          "midi": 57,
          "time": 239.58614699999907,
          "velocity": 0.7480314960629921,
          "duration": 0.20689649999999915
        },
        {
          "name": "D3",
          "midi": 50,
          "time": 239.58614699999907,
          "velocity": 0.7480314960629921,
          "duration": 0.20689649999999915
        },
        {
          "name": "D4",
          "midi": 62,
          "time": 239.79304349999907,
          "velocity": 0.7480314960629921,
          "duration": 0.20689649999999915
        },
        {
          "name": "A3",
          "midi": 57,
          "time": 239.79304349999907,
          "velocity": 0.7480314960629921,
          "duration": 0.20689649999999915
        },
        {
          "name": "D3",
          "midi": 50,
          "time": 239.79304349999907,
          "velocity": 0.7480314960629921,
          "duration": 0.20689649999999915
        },
        {
          "name": "G3",
          "midi": 55,
          "time": 239.99993999999907,
          "velocity": 0.7480314960629921,
          "duration": 0.4137929999999699
        },
        {
          "name": "E3",
          "midi": 52,
          "time": 240.01287103124906,
          "velocity": 0.7480314960629921,
          "duration": 0.4008619687499788
        },
        {
          "name": "C3",
          "midi": 48,
          "time": 240.02580206249905,
          "velocity": 0.7480314960629921,
          "duration": 0.38793093749998775
        },
        {
          "name": "G3",
          "midi": 55,
          "time": 240.41373299999904,
          "velocity": 0.7480314960629921,
          "duration": 0.20689649999999915
        },
        {
          "name": "E3",
          "midi": 52,
          "time": 240.42019851562404,
          "velocity": 0.7480314960629921,
          "duration": 0.20043098437500362
        },
        {
          "name": "C3",
          "midi": 48,
          "time": 240.42666403124903,
          "velocity": 0.7480314960629921,
          "duration": 0.19396546875000809
        },
        {
          "name": "G4",
          "midi": 67,
          "time": 240.62062949999904,
          "velocity": 0.7480314960629921,
          "duration": 0.4137929999999983
        },
        {
          "name": "G3",
          "midi": 55,
          "time": 241.03442249999904,
          "velocity": 0.7480314960629921,
          "duration": 0.20689649999999915
        },
        {
          "name": "C3",
          "midi": 48,
          "time": 241.24131899999904,
          "velocity": 0.7480314960629921,
          "duration": 0.4137929999999983
        },
        {
          "name": "E2",
          "midi": 40,
          "time": 241.65511199999904,
          "velocity": 0.7480314960629921,
          "duration": 0.4137929999999983
        },
        {
          "name": "G3",
          "midi": 55,
          "time": 242.06890499999903,
          "velocity": 0.7480314960629921,
          "duration": 0.20689649999999915
        },
        {
          "name": "E3",
          "midi": 52,
          "time": 242.08183603124903,
          "velocity": 0.7480314960629921,
          "duration": 0.19396546875000809
        },
        {
          "name": "E4",
          "midi": 64,
          "time": 242.27580149999903,
          "velocity": 0.7480314960629921,
          "duration": 1.0344824999999958
        },
        {
          "name": "D4",
          "midi": 62,
          "time": 242.27580149999903,
          "velocity": 0.7480314960629921,
          "duration": 1.0344824999999958
        },
        {
          "name": "G3",
          "midi": 55,
          "time": 243.31028399999903,
          "velocity": 0.7480314960629921,
          "duration": 0.4137929999999983
        },
        {
          "name": "F#3",
          "midi": 54,
          "time": 243.31674951562402,
          "velocity": 0.7480314960629921,
          "duration": 0.40732748437500277
        },
        {
          "name": "D3",
          "midi": 50,
          "time": 243.32321503124902,
          "velocity": 0.7480314960629921,
          "duration": 0.40086196875000724
        },
        {
          "name": "D3",
          "midi": 50,
          "time": 243.72407699999903,
          "velocity": 0.7480314960629921,
          "duration": 0.20689650000002757
        },
        {
          "name": "F#3",
          "midi": 54,
          "time": 243.72752527499904,
          "velocity": 0.7480314960629921,
          "duration": 0.2034482250000167
        },
        {
          "name": "G3",
          "midi": 55,
          "time": 243.73097354999905,
          "velocity": 0.7480314960629921,
          "duration": 0.1999999500000058
        },
        {
          "name": "A4",
          "midi": 69,
          "time": 243.93097349999906,
          "velocity": 0.7480314960629921,
          "duration": 0.4137930000000267
        },
        {
          "name": "D4",
          "midi": 62,
          "time": 243.93442177499907,
          "velocity": 0.7480314960629921,
          "duration": 0.41034472500001584
        },
        {
          "name": "G3",
          "midi": 55,
          "time": 243.93787004999908,
          "velocity": 0.7480314960629921,
          "duration": 0.40689645000000496
        },
        {
          "name": "F#3",
          "midi": 54,
          "time": 243.9413183249991,
          "velocity": 0.7480314960629921,
          "duration": 0.4034481749999941
        },
        {
          "name": "G3",
          "midi": 55,
          "time": 244.34476649999908,
          "velocity": 0.7480314960629921,
          "duration": 0.4137929999999983
        },
        {
          "name": "C3",
          "midi": 48,
          "time": 244.75855949999908,
          "velocity": 0.7480314960629921,
          "duration": 0.20689649999999915
        },
        {
          "name": "G3",
          "midi": 55,
          "time": 244.96545599999908,
          "velocity": 0.7480314960629921,
          "duration": 0.4137929999999699
        },
        {
          "name": "E3",
          "midi": 52,
          "time": 244.97838703124907,
          "velocity": 0.7480314960629921,
          "duration": 0.4008619687499788
        },
        {
          "name": "C3",
          "midi": 48,
          "time": 244.99131806249906,
          "velocity": 0.7480314960629921,
          "duration": 0.38793093749998775
        },
        {
          "name": "G3",
          "midi": 55,
          "time": 245.37924899999905,
          "velocity": 0.7480314960629921,
          "duration": 0.20689649999999915
        },
        {
          "name": "E3",
          "midi": 52,
          "time": 245.38571451562404,
          "velocity": 0.7480314960629921,
          "duration": 0.20043098437500362
        },
        {
          "name": "C3",
          "midi": 48,
          "time": 245.39218003124904,
          "velocity": 0.7480314960629921,
          "duration": 0.19396546875000809
        },
        {
          "name": "G4",
          "midi": 67,
          "time": 245.58614549999905,
          "velocity": 0.7480314960629921,
          "duration": 0.4137929999999983
        },
        {
          "name": "G3",
          "midi": 55,
          "time": 245.99993849999905,
          "velocity": 0.7480314960629921,
          "duration": 0.20689649999999915
        },
        {
          "name": "C3",
          "midi": 48,
          "time": 246.20683499999905,
          "velocity": 0.7480314960629921,
          "duration": 0.4137929999999983
        },
        {
          "name": "E2",
          "midi": 40,
          "time": 246.62062799999904,
          "velocity": 0.7480314960629921,
          "duration": 0.4137929999999983
        },
        {
          "name": "G3",
          "midi": 55,
          "time": 247.03442099999904,
          "velocity": 0.7480314960629921,
          "duration": 0.20689649999999915
        },
        {
          "name": "E3",
          "midi": 52,
          "time": 247.04735203124903,
          "velocity": 0.7480314960629921,
          "duration": 0.19396546875000809
        },
        {
          "name": "E4",
          "midi": 64,
          "time": 247.24131749999904,
          "velocity": 0.7480314960629921,
          "duration": 1.0344824999999958
        },
        {
          "name": "D4",
          "midi": 62,
          "time": 247.24131749999904,
          "velocity": 0.7480314960629921,
          "duration": 1.0344824999999958
        },
        {
          "name": "G3",
          "midi": 55,
          "time": 248.27579999999904,
          "velocity": 0.7480314960629921,
          "duration": 0.4137929999999983
        },
        {
          "name": "F#3",
          "midi": 54,
          "time": 248.28226551562403,
          "velocity": 0.7480314960629921,
          "duration": 0.40732748437500277
        },
        {
          "name": "D3",
          "midi": 50,
          "time": 248.28873103124903,
          "velocity": 0.7480314960629921,
          "duration": 0.40086196875000724
        },
        {
          "name": "D3",
          "midi": 50,
          "time": 248.68959299999904,
          "velocity": 0.7480314960629921,
          "duration": 0.20689650000002757
        },
        {
          "name": "F#3",
          "midi": 54,
          "time": 248.69304127499905,
          "velocity": 0.7480314960629921,
          "duration": 0.2034482250000167
        },
        {
          "name": "G3",
          "midi": 55,
          "time": 248.69648954999906,
          "velocity": 0.7480314960629921,
          "duration": 0.1999999500000058
        },
        {
          "name": "A4",
          "midi": 69,
          "time": 248.89648949999906,
          "velocity": 0.7480314960629921,
          "duration": 0.4137930000000267
        },
        {
          "name": "D4",
          "midi": 62,
          "time": 248.89993777499907,
          "velocity": 0.7480314960629921,
          "duration": 0.41034472500001584
        },
        {
          "name": "G3",
          "midi": 55,
          "time": 248.90338604999909,
          "velocity": 0.7480314960629921,
          "duration": 0.40689645000000496
        },
        {
          "name": "F#3",
          "midi": 54,
          "time": 248.9068343249991,
          "velocity": 0.7480314960629921,
          "duration": 0.4034481749999941
        },
        {
          "name": "G3",
          "midi": 55,
          "time": 249.3102824999991,
          "velocity": 0.7480314960629921,
          "duration": 0.4137929999999983
        },
        {
          "name": "C3",
          "midi": 48,
          "time": 249.7240754999991,
          "velocity": 0.7480314960629921,
          "duration": 0.20689649999999915
        },
        {
          "name": "G3",
          "midi": 55,
          "time": 249.9309719999991,
          "velocity": 0.7480314960629921,
          "duration": 0.4137929999999699
        },
        {
          "name": "E3",
          "midi": 52,
          "time": 249.94390303124908,
          "velocity": 0.7480314960629921,
          "duration": 0.4008619687499788
        },
        {
          "name": "C3",
          "midi": 48,
          "time": 249.95683406249907,
          "velocity": 0.7480314960629921,
          "duration": 0.38793093749998775
        },
        {
          "name": "G3",
          "midi": 55,
          "time": 250.34476499999906,
          "velocity": 0.7480314960629921,
          "duration": 0.20689649999999915
        },
        {
          "name": "E3",
          "midi": 52,
          "time": 250.35123051562405,
          "velocity": 0.7480314960629921,
          "duration": 0.20043098437500362
        },
        {
          "name": "C3",
          "midi": 48,
          "time": 250.35769603124905,
          "velocity": 0.7480314960629921,
          "duration": 0.19396546875000809
        },
        {
          "name": "G4",
          "midi": 67,
          "time": 250.55166149999906,
          "velocity": 0.7480314960629921,
          "duration": 0.4137929999999983
        },
        {
          "name": "G3",
          "midi": 55,
          "time": 250.96545449999905,
          "velocity": 0.7480314960629921,
          "duration": 0.20689649999999915
        },
        {
          "name": "C3",
          "midi": 48,
          "time": 251.17235099999905,
          "velocity": 0.7480314960629921,
          "duration": 0.4137929999999983
        },
        {
          "name": "E2",
          "midi": 40,
          "time": 251.58614399999905,
          "velocity": 0.7480314960629921,
          "duration": 0.4137929999999983
        },
        {
          "name": "G3",
          "midi": 55,
          "time": 251.99993699999905,
          "velocity": 0.7480314960629921,
          "duration": 0.20689649999999915
        },
        {
          "name": "E3",
          "midi": 52,
          "time": 252.01286803124904,
          "velocity": 0.7480314960629921,
          "duration": 0.19396546875000809
        },
        {
          "name": "E4",
          "midi": 64,
          "time": 252.20683349999905,
          "velocity": 0.7480314960629921,
          "duration": 1.0344824999999958
        },
        {
          "name": "D4",
          "midi": 62,
          "time": 252.20683349999905,
          "velocity": 0.7480314960629921,
          "duration": 1.0344824999999958
        },
        {
          "name": "D4",
          "midi": 62,
          "time": 253.24131599999905,
          "velocity": 0.7480314960629921,
          "duration": 0.4137929999999983
        },
        {
          "name": "G3",
          "midi": 55,
          "time": 253.24778151562404,
          "velocity": 0.7480314960629921,
          "duration": 0.40732748437500277
        },
        {
          "name": "D3",
          "midi": 50,
          "time": 253.25424703124904,
          "velocity": 0.7480314960629921,
          "duration": 0.40086196875000724
        },
        {
          "name": "D3",
          "midi": 50,
          "time": 253.65510899999904,
          "velocity": 0.7480314960629921,
          "duration": 0.20689650000002757
        },
        {
          "name": "G3",
          "midi": 55,
          "time": 253.65855727499905,
          "velocity": 0.7480314960629921,
          "duration": 0.2034482250000167
        },
        {
          "name": "D4",
          "midi": 62,
          "time": 253.66200554999907,
          "velocity": 0.7480314960629921,
          "duration": 0.1999999500000058
        },
        {
          "name": "A4",
          "midi": 69,
          "time": 253.86200549999907,
          "velocity": 0.7480314960629921,
          "duration": 0.4137930000000267
        },
        {
          "name": "D4",
          "midi": 62,
          "time": 253.86545377499908,
          "velocity": 0.7480314960629921,
          "duration": 0.41034472500001584
        },
        {
          "name": "G3",
          "midi": 55,
          "time": 253.8689020499991,
          "velocity": 0.7480314960629921,
          "duration": 0.40689645000000496
        },
        {
          "name": "F#3",
          "midi": 54,
          "time": 253.8723503249991,
          "velocity": 0.7480314960629921,
          "duration": 0.4034481749999941
        },
        {
          "name": "A4",
          "midi": 69,
          "time": 254.2757984999991,
          "velocity": 0.7480314960629921,
          "duration": 0.20689650000002757
        },
        {
          "name": "D4",
          "midi": 62,
          "time": 254.2792467749991,
          "velocity": 0.7480314960629921,
          "duration": 0.2034482250000167
        },
        {
          "name": "G3",
          "midi": 55,
          "time": 254.28269504999912,
          "velocity": 0.7480314960629921,
          "duration": 0.1999999500000058
        },
        {
          "name": "F#3",
          "midi": 54,
          "time": 254.28614332499913,
          "velocity": 0.7480314960629921,
          "duration": 0.19655167499999493
        },
        {
          "name": "D3",
          "midi": 50,
          "time": 254.48269499999913,
          "velocity": 0.7480314960629921,
          "duration": 0.4137929999999983
        },
        {
          "name": "F#3",
          "midi": 54,
          "time": 254.48916051562412,
          "velocity": 0.7480314960629921,
          "duration": 0.40732748437500277
        },
        {
          "name": "G3",
          "midi": 55,
          "time": 254.49562603124912,
          "velocity": 0.7480314960629921,
          "duration": 0.40086196875000724
        },
        {
          "name": "G3",
          "midi": 55,
          "time": 254.89648799999912,
          "velocity": 0.7480314960629921,
          "duration": 0.4137929999999699
        },
        {
          "name": "E3",
          "midi": 52,
          "time": 254.90941903124912,
          "velocity": 0.7480314960629921,
          "duration": 0.4008619687499788
        },
        {
          "name": "C3",
          "midi": 48,
          "time": 254.9223500624991,
          "velocity": 0.7480314960629921,
          "duration": 0.38793093749998775
        },
        {
          "name": "G3",
          "midi": 55,
          "time": 255.3102809999991,
          "velocity": 0.7480314960629921,
          "duration": 0.20689649999999915
        },
        {
          "name": "E3",
          "midi": 52,
          "time": 255.3167465156241,
          "velocity": 0.7480314960629921,
          "duration": 0.20043098437500362
        },
        {
          "name": "C3",
          "midi": 48,
          "time": 255.32321203124908,
          "velocity": 0.7480314960629921,
          "duration": 0.19396546875000809
        },
        {
          "name": "G4",
          "midi": 67,
          "time": 255.5171774999991,
          "velocity": 0.7480314960629921,
          "duration": 0.4137929999999983
        },
        {
          "name": "G3",
          "midi": 55,
          "time": 255.9309704999991,
          "velocity": 0.7480314960629921,
          "duration": 0.20689650000002757
        },
        {
          "name": "C3",
          "midi": 48,
          "time": 256.1378669999991,
          "velocity": 0.7480314960629921,
          "duration": 0.4137929999999983
        },
        {
          "name": "E2",
          "midi": 40,
          "time": 256.5516599999991,
          "velocity": 0.7480314960629921,
          "duration": 0.4137929999999983
        },
        {
          "name": "G3",
          "midi": 55,
          "time": 256.9654529999991,
          "velocity": 0.7480314960629921,
          "duration": 0.20689649999997073
        },
        {
          "name": "E3",
          "midi": 52,
          "time": 256.9783840312491,
          "velocity": 0.7480314960629921,
          "duration": 0.19396546874997966
        },
        {
          "name": "E4",
          "midi": 64,
          "time": 257.1723494999991,
          "velocity": 0.7480314960629921,
          "duration": 1.0344825000000242
        },
        {
          "name": "D4",
          "midi": 62,
          "time": 257.1723494999991,
          "velocity": 0.7480314960629921,
          "duration": 1.0344825000000242
        },
        {
          "name": "G3",
          "midi": 55,
          "time": 258.2068319999991,
          "velocity": 0.7480314960629921,
          "duration": 0.4137929999999983
        },
        {
          "name": "F#3",
          "midi": 54,
          "time": 258.2132975156241,
          "velocity": 0.7480314960629921,
          "duration": 0.40732748437500277
        },
        {
          "name": "D3",
          "midi": 50,
          "time": 258.2197630312491,
          "velocity": 0.7480314960629921,
          "duration": 0.40086196875000724
        },
        {
          "name": "D3",
          "midi": 50,
          "time": 258.6206249999991,
          "velocity": 0.7480314960629921,
          "duration": 0.20689649999997073
        },
        {
          "name": "F#3",
          "midi": 54,
          "time": 258.6240732749991,
          "velocity": 0.7480314960629921,
          "duration": 0.20344822499998827
        },
        {
          "name": "G3",
          "midi": 55,
          "time": 258.6275215499991,
          "velocity": 0.7480314960629921,
          "duration": 0.1999999500000058
        },
        {
          "name": "A4",
          "midi": 69,
          "time": 258.8275214999991,
          "velocity": 0.7480314960629921,
          "duration": 0.41379299999994146
        },
        {
          "name": "D4",
          "midi": 62,
          "time": 258.83096977499906,
          "velocity": 0.7480314960629921,
          "duration": 0.410344724999959
        },
        {
          "name": "G3",
          "midi": 55,
          "time": 258.83441804999904,
          "velocity": 0.7480314960629921,
          "duration": 0.40689644999997654
        },
        {
          "name": "F#3",
          "midi": 54,
          "time": 258.837866324999,
          "velocity": 0.7480314960629921,
          "duration": 0.4034481749999941
        },
        {
          "name": "A4",
          "midi": 69,
          "time": 259.241314499999,
          "velocity": 0.7480314960629921,
          "duration": 0.20689649999997073
        },
        {
          "name": "D4",
          "midi": 62,
          "time": 259.244762774999,
          "velocity": 0.7480314960629921,
          "duration": 0.20344822499998827
        },
        {
          "name": "G3",
          "midi": 55,
          "time": 259.248211049999,
          "velocity": 0.7480314960629921,
          "duration": 0.1999999500000058
        },
        {
          "name": "F#3",
          "midi": 54,
          "time": 259.25165932499897,
          "velocity": 0.7480314960629921,
          "duration": 0.19655167500002335
        },
        {
          "name": "D3",
          "midi": 50,
          "time": 259.448210999999,
          "velocity": 0.7480314960629921,
          "duration": 0.4137929999999983
        },
        {
          "name": "F#3",
          "midi": 54,
          "time": 259.454676515624,
          "velocity": 0.7480314960629921,
          "duration": 0.40732748437500277
        },
        {
          "name": "G3",
          "midi": 55,
          "time": 259.461142031249,
          "velocity": 0.7480314960629921,
          "duration": 0.40086196875000724
        },
        {
          "name": "C3",
          "midi": 48,
          "time": 259.862003999999,
          "velocity": 0.7480314960629921,
          "duration": 3.3103440000000433
        },
        {
          "name": "E3",
          "midi": 52,
          "time": 259.913728124999,
          "velocity": 0.7480314960629921,
          "duration": 3.258619875000022
        },
        {
          "name": "G3",
          "midi": 55,
          "time": 259.96545224999903,
          "velocity": 0.7480314960629921,
          "duration": 3.206895750000001
        },
        {
          "name": "C4",
          "midi": 60,
          "time": 260.01717637499905,
          "velocity": 0.7480314960629921,
          "duration": 3.15517162499998
        }
      ],
      "controlChanges": {
        "7": [
          {
            "number": 7,
            "time": 0,
            "value": 0.8110236220472441
          },
          {
            "number": 7,
            "time": 0,
            "value": 0.8110236220472441
          }
        ],
        "10": [
          {
            "number": 10,
            "time": 0,
            "value": 0.30708661417322836
          },
          {
            "number": 10,
            "time": 0,
            "value": 0.30708661417322836
          }
        ],
        "11": [
          {
            "number": 11,
            "time": 0,
            "value": 1
          },
          {
            "number": 11,
            "time": 0,
            "value": 1
          }
        ],
        "91": [
          {
            "number": 91,
            "time": 0,
            "value": 0
          },
          {
            "number": 91,
            "time": 0,
            "value": 0
          }
        ],
        "92": [
          {
            "number": 92,
            "time": 0,
            "value": 0
          },
          {
            "number": 92,
            "time": 0,
            "value": 0
          }
        ],
        "93": [
          {
            "number": 93,
            "time": 0,
            "value": 0
          },
          {
            "number": 93,
            "time": 0,
            "value": 0
          }
        ],
        "95": [
          {
            "number": 95,
            "time": 0,
            "value": 0
          },
          {
            "number": 95,
            "time": 0,
            "value": 0
          }
        ]
      },
      "id": 1,
      "instrumentNumber": 29,
      "instrument": "overdriven guitar",
      "instrumentFamily": "guitar",
      "channelNumber": 1,
      "isPercussion": false
    },
    {
      "startTime": 0,
      "duration": 239.99993999999901,
      "length": 1294,
      "notes": [
        {
          "name": "A2",
          "midi": 45,
          "time": 0,
          "velocity": 0.7480314960629921,
          "duration": 0.2068965
        },
        {
          "name": "D3",
          "midi": 50,
          "time": 0.2068965,
          "velocity": 0.7480314960629921,
          "duration": 0.2068965
        },
        {
          "name": "D3",
          "midi": 50,
          "time": 0.413793,
          "velocity": 0.7480314960629921,
          "duration": 0.20689649999999998
        },
        {
          "name": "A2",
          "midi": 45,
          "time": 0.6206895,
          "velocity": 0.7480314960629921,
          "duration": 0.20689650000000004
        },
        {
          "name": "D3",
          "midi": 50,
          "time": 0.827586,
          "velocity": 0.7480314960629921,
          "duration": 0.41379299999999997
        },
        {
          "name": "A2",
          "midi": 45,
          "time": 1.241379,
          "velocity": 0.7480314960629921,
          "duration": 0.20689650000000004
        },
        {
          "name": "D3",
          "midi": 50,
          "time": 1.4482755,
          "velocity": 0.7480314960629921,
          "duration": 0.20689650000000004
        },
        {
          "name": "D3",
          "midi": 50,
          "time": 1.655172,
          "velocity": 0.7480314960629921,
          "duration": 0.20689650000000004
        },
        {
          "name": "A2",
          "midi": 45,
          "time": 1.8620685000000001,
          "velocity": 0.7480314960629921,
          "duration": 0.20689649999999982
        },
        {
          "name": "D3",
          "midi": 50,
          "time": 2.068965,
          "velocity": 0.7480314960629921,
          "duration": 0.4137930000000001
        },
        {
          "name": "A2",
          "midi": 45,
          "time": 2.482758,
          "velocity": 0.7480314960629921,
          "duration": 0.20689650000000004
        },
        {
          "name": "D3",
          "midi": 50,
          "time": 2.6896545,
          "velocity": 0.7480314960629921,
          "duration": 0.20689650000000004
        },
        {
          "name": "D3",
          "midi": 50,
          "time": 2.896551,
          "velocity": 0.7480314960629921,
          "duration": 0.20689650000000004
        },
        {
          "name": "A2",
          "midi": 45,
          "time": 3.310344,
          "velocity": 0.7480314960629921,
          "duration": 0.20689650000000004
        },
        {
          "name": "D3",
          "midi": 50,
          "time": 3.5172405,
          "velocity": 0.7480314960629921,
          "duration": 0.20689650000000004
        },
        {
          "name": "D3",
          "midi": 50,
          "time": 3.7241370000000003,
          "velocity": 0.7480314960629921,
          "duration": 0.20689650000000004
        },
        {
          "name": "A2",
          "midi": 45,
          "time": 3.9310335000000003,
          "velocity": 0.7480314960629921,
          "duration": 0.2068964999999996
        },
        {
          "name": "D3",
          "midi": 50,
          "time": 4.13793,
          "velocity": 0.7480314960629921,
          "duration": 0.4137930000000001
        },
        {
          "name": "A2",
          "midi": 45,
          "time": 4.551723,
          "velocity": 0.7480314960629921,
          "duration": 0.20689650000000004
        },
        {
          "name": "D3",
          "midi": 50,
          "time": 4.7586195,
          "velocity": 0.7480314960629921,
          "duration": 0.20689650000000004
        },
        {
          "name": "D3",
          "midi": 50,
          "time": 4.965516,
          "velocity": 0.7480314960629921,
          "duration": 0.20689650000000004
        },
        {
          "name": "A2",
          "midi": 45,
          "time": 5.1724125,
          "velocity": 0.7480314960629921,
          "duration": 0.20689650000000004
        },
        {
          "name": "D3",
          "midi": 50,
          "time": 5.379309,
          "velocity": 0.7480314960629921,
          "duration": 0.4137930000000001
        },
        {
          "name": "A2",
          "midi": 45,
          "time": 5.793102,
          "velocity": 0.7480314960629921,
          "duration": 0.20689650000000004
        },
        {
          "name": "D3",
          "midi": 50,
          "time": 5.9999985,
          "velocity": 0.7480314960629921,
          "duration": 0.20689650000000004
        },
        {
          "name": "D3",
          "midi": 50,
          "time": 6.206895,
          "velocity": 0.7480314960629921,
          "duration": 0.20689650000000004
        },
        {
          "name": "A2",
          "midi": 45,
          "time": 6.620688,
          "velocity": 0.7480314960629921,
          "duration": 0.20689650000000004
        },
        {
          "name": "D3",
          "midi": 50,
          "time": 6.8275845,
          "velocity": 0.7480314960629921,
          "duration": 0.20689650000000004
        },
        {
          "name": "D3",
          "midi": 50,
          "time": 7.034481,
          "velocity": 0.7480314960629921,
          "duration": 0.20689650000000004
        },
        {
          "name": "A2",
          "midi": 45,
          "time": 7.2413775000000005,
          "velocity": 0.7480314960629921,
          "duration": 0.20689650000000004
        },
        {
          "name": "D3",
          "midi": 50,
          "time": 7.4482740000000005,
          "velocity": 0.7480314960629921,
          "duration": 0.4137930000000001
        },
        {
          "name": "A2",
          "midi": 45,
          "time": 7.862067000000001,
          "velocity": 0.7480314960629921,
          "duration": 0.20689650000000004
        },
        {
          "name": "D3",
          "midi": 50,
          "time": 8.0689635,
          "velocity": 0.7480314960629921,
          "duration": 0.20689649999999915
        },
        {
          "name": "D3",
          "midi": 50,
          "time": 8.27586,
          "velocity": 0.7480314960629921,
          "duration": 0.20689649999999915
        },
        {
          "name": "A2",
          "midi": 45,
          "time": 8.482756499999999,
          "velocity": 0.7480314960629921,
          "duration": 0.20689649999999915
        },
        {
          "name": "D3",
          "midi": 50,
          "time": 8.689652999999998,
          "velocity": 0.7480314960629921,
          "duration": 0.4137930000000001
        },
        {
          "name": "A2",
          "midi": 45,
          "time": 9.103445999999998,
          "velocity": 0.7480314960629921,
          "duration": 0.20689649999999915
        },
        {
          "name": "D3",
          "midi": 50,
          "time": 9.310342499999997,
          "velocity": 0.7480314960629921,
          "duration": 0.20689649999999915
        },
        {
          "name": "D3",
          "midi": 50,
          "time": 9.517238999999996,
          "velocity": 0.7480314960629921,
          "duration": 0.20689649999999915
        },
        {
          "name": "A2",
          "midi": 45,
          "time": 9.931031999999995,
          "velocity": 0.7480314960629921,
          "duration": 0.20689649999999915
        },
        {
          "name": "D3",
          "midi": 50,
          "time": 10.137928499999994,
          "velocity": 0.7480314960629921,
          "duration": 0.20689649999999915
        },
        {
          "name": "D3",
          "midi": 50,
          "time": 10.344824999999993,
          "velocity": 0.7480314960629921,
          "duration": 0.20689649999999915
        },
        {
          "name": "A2",
          "midi": 45,
          "time": 10.551721499999992,
          "velocity": 0.7480314960629921,
          "duration": 0.20689649999999915
        },
        {
          "name": "D3",
          "midi": 50,
          "time": 10.758617999999991,
          "velocity": 0.7480314960629921,
          "duration": 0.4137930000000001
        },
        {
          "name": "A2",
          "midi": 45,
          "time": 11.172410999999991,
          "velocity": 0.7480314960629921,
          "duration": 0.20689649999999915
        },
        {
          "name": "D3",
          "midi": 50,
          "time": 11.37930749999999,
          "velocity": 0.7480314960629921,
          "duration": 0.20689649999999915
        },
        {
          "name": "D3",
          "midi": 50,
          "time": 11.58620399999999,
          "velocity": 0.7480314960629921,
          "duration": 0.20689649999999915
        },
        {
          "name": "A2",
          "midi": 45,
          "time": 11.793100499999989,
          "velocity": 0.7480314960629921,
          "duration": 0.20689649999999915
        },
        {
          "name": "D3",
          "midi": 50,
          "time": 11.999996999999988,
          "velocity": 0.7480314960629921,
          "duration": 0.4137930000000001
        },
        {
          "name": "A2",
          "midi": 45,
          "time": 12.413789999999988,
          "velocity": 0.7480314960629921,
          "duration": 0.20689649999999915
        },
        {
          "name": "D3",
          "midi": 50,
          "time": 12.620686499999987,
          "velocity": 0.7480314960629921,
          "duration": 0.20689649999999915
        },
        {
          "name": "D3",
          "midi": 50,
          "time": 12.827582999999986,
          "velocity": 0.7480314960629921,
          "duration": 0.20689649999999915
        },
        {
          "name": "D3",
          "midi": 50,
          "time": 13.241375999999985,
          "velocity": 0.7480314960629921,
          "duration": 0.20689649999999915
        },
        {
          "name": "D4",
          "midi": 62,
          "time": 13.448272499999984,
          "velocity": 0.7480314960629921,
          "duration": 0.20689649999999915
        },
        {
          "name": "C4",
          "midi": 60,
          "time": 13.655168999999983,
          "velocity": 0.7480314960629921,
          "duration": 0.20689649999999915
        },
        {
          "name": "D3",
          "midi": 50,
          "time": 13.862065499999982,
          "velocity": 0.7480314960629921,
          "duration": 0.20689649999999915
        },
        {
          "name": "G4",
          "midi": 67,
          "time": 14.068961999999981,
          "velocity": 0.7480314960629921,
          "duration": 0.20689649999999915
        },
        {
          "name": "F#4",
          "midi": 66,
          "time": 14.27585849999998,
          "velocity": 0.7480314960629921,
          "duration": 0.20689649999999915
        },
        {
          "name": "D3",
          "midi": 50,
          "time": 14.48275499999998,
          "velocity": 0.7480314960629921,
          "duration": 0.20689649999999915
        },
        {
          "name": "D4",
          "midi": 62,
          "time": 14.689651499999979,
          "velocity": 0.7480314960629921,
          "duration": 0.20689649999999915
        },
        {
          "name": "C4",
          "midi": 60,
          "time": 14.896547999999978,
          "velocity": 0.7480314960629921,
          "duration": 0.20689649999999915
        },
        {
          "name": "D3",
          "midi": 50,
          "time": 15.103444499999977,
          "velocity": 0.7480314960629921,
          "duration": 0.20689649999999915
        },
        {
          "name": "G4",
          "midi": 67,
          "time": 15.310340999999976,
          "velocity": 0.7480314960629921,
          "duration": 0.20689649999999915
        },
        {
          "name": "F#4",
          "midi": 66,
          "time": 15.517237499999975,
          "velocity": 0.7480314960629921,
          "duration": 0.20689649999999915
        },
        {
          "name": "A3",
          "midi": 57,
          "time": 15.724133999999975,
          "velocity": 0.7480314960629921,
          "duration": 0.20689649999999915
        },
        {
          "name": "G3",
          "midi": 55,
          "time": 15.931030499999974,
          "velocity": 0.7480314960629921,
          "duration": 0.20689649999999915
        },
        {
          "name": "C3",
          "midi": 48,
          "time": 16.137926999999973,
          "velocity": 0.7480314960629921,
          "duration": 0.20689649999999915
        },
        {
          "name": "D4",
          "midi": 62,
          "time": 16.344823499999972,
          "velocity": 0.7480314960629921,
          "duration": 0.20689649999999915
        },
        {
          "name": "C4",
          "midi": 60,
          "time": 16.55171999999997,
          "velocity": 0.7480314960629921,
          "duration": 0.20689649999999915
        },
        {
          "name": "C3",
          "midi": 48,
          "time": 16.75861649999997,
          "velocity": 0.7480314960629921,
          "duration": 0.20689649999999915
        },
        {
          "name": "G4",
          "midi": 67,
          "time": 16.96551299999997,
          "velocity": 0.7480314960629921,
          "duration": 0.20689649999999915
        },
        {
          "name": "F#4",
          "midi": 66,
          "time": 17.17240949999997,
          "velocity": 0.7480314960629921,
          "duration": 0.20689649999999915
        },
        {
          "name": "C3",
          "midi": 48,
          "time": 17.379305999999968,
          "velocity": 0.7480314960629921,
          "duration": 0.20689649999999915
        },
        {
          "name": "D4",
          "midi": 62,
          "time": 17.586202499999967,
          "velocity": 0.7480314960629921,
          "duration": 0.20689649999999915
        },
        {
          "name": "C4",
          "midi": 60,
          "time": 17.793098999999966,
          "velocity": 0.7480314960629921,
          "duration": 0.20689649999999915
        },
        {
          "name": "C3",
          "midi": 48,
          "time": 17.999995499999965,
          "velocity": 0.7480314960629921,
          "duration": 0.20689649999999915
        },
        {
          "name": "G4",
          "midi": 67,
          "time": 18.206891999999964,
          "velocity": 0.7480314960629921,
          "duration": 0.20689649999999915
        },
        {
          "name": "F#4",
          "midi": 66,
          "time": 18.413788499999963,
          "velocity": 0.7480314960629921,
          "duration": 0.20689649999999915
        },
        {
          "name": "A3",
          "midi": 57,
          "time": 18.620684999999963,
          "velocity": 0.7480314960629921,
          "duration": 0.20689649999999915
        },
        {
          "name": "G3",
          "midi": 55,
          "time": 18.827581499999962,
          "velocity": 0.7480314960629921,
          "duration": 0.20689649999999915
        },
        {
          "name": "B2",
          "midi": 47,
          "time": 19.03447799999996,
          "velocity": 0.7480314960629921,
          "duration": 0.20689649999999915
        },
        {
          "name": "D4",
          "midi": 62,
          "time": 19.24137449999996,
          "velocity": 0.7480314960629921,
          "duration": 0.20689649999999915
        },
        {
          "name": "C4",
          "midi": 60,
          "time": 19.44827099999996,
          "velocity": 0.7480314960629921,
          "duration": 0.20689649999999915
        },
        {
          "name": "B2",
          "midi": 47,
          "time": 19.65516749999996,
          "velocity": 0.7480314960629921,
          "duration": 0.20689649999999915
        },
        {
          "name": "G4",
          "midi": 67,
          "time": 19.862063999999958,
          "velocity": 0.7480314960629921,
          "duration": 0.20689649999999915
        },
        {
          "name": "F#4",
          "midi": 66,
          "time": 20.068960499999957,
          "velocity": 0.7480314960629921,
          "duration": 0.20689649999999915
        },
        {
          "name": "B2",
          "midi": 47,
          "time": 20.275856999999956,
          "velocity": 0.7480314960629921,
          "duration": 0.20689649999999915
        },
        {
          "name": "D4",
          "midi": 62,
          "time": 20.482753499999955,
          "velocity": 0.7480314960629921,
          "duration": 0.20689649999999915
        },
        {
          "name": "C4",
          "midi": 60,
          "time": 20.689649999999954,
          "velocity": 0.7480314960629921,
          "duration": 0.20689649999999915
        },
        {
          "name": "B2",
          "midi": 47,
          "time": 20.896546499999953,
          "velocity": 0.7480314960629921,
          "duration": 0.20689649999999915
        },
        {
          "name": "G4",
          "midi": 67,
          "time": 21.103442999999952,
          "velocity": 0.7480314960629921,
          "duration": 0.20689649999999915
        },
        {
          "name": "F#4",
          "midi": 66,
          "time": 21.31033949999995,
          "velocity": 0.7480314960629921,
          "duration": 0.20689649999999915
        },
        {
          "name": "A3",
          "midi": 57,
          "time": 21.51723599999995,
          "velocity": 0.7480314960629921,
          "duration": 0.20689649999999915
        },
        {
          "name": "G3",
          "midi": 55,
          "time": 21.72413249999995,
          "velocity": 0.7480314960629921,
          "duration": 0.20689649999999915
        },
        {
          "name": "D3",
          "midi": 50,
          "time": 21.93102899999995,
          "velocity": 0.7480314960629921,
          "duration": 0.20689649999999915
        },
        {
          "name": "D4",
          "midi": 62,
          "time": 22.137925499999948,
          "velocity": 0.7480314960629921,
          "duration": 0.20689649999999915
        },
        {
          "name": "C4",
          "midi": 60,
          "time": 22.344821999999947,
          "velocity": 0.7480314960629921,
          "duration": 0.20689649999999915
        },
        {
          "name": "D3",
          "midi": 50,
          "time": 22.551718499999946,
          "velocity": 0.7480314960629921,
          "duration": 0.20689649999999915
        },
        {
          "name": "G4",
          "midi": 67,
          "time": 22.758614999999946,
          "velocity": 0.7480314960629921,
          "duration": 0.20689649999999915
        },
        {
          "name": "F#4",
          "midi": 66,
          "time": 22.965511499999945,
          "velocity": 0.7480314960629921,
          "duration": 0.20689649999999915
        },
        {
          "name": "D3",
          "midi": 50,
          "time": 23.172407999999944,
          "velocity": 0.7480314960629921,
          "duration": 0.20689649999999915
        },
        {
          "name": "D4",
          "midi": 62,
          "time": 23.379304499999943,
          "velocity": 0.7480314960629921,
          "duration": 0.20689649999999915
        },
        {
          "name": "C4",
          "midi": 60,
          "time": 23.586200999999942,
          "velocity": 0.7480314960629921,
          "duration": 0.20689649999999915
        },
        {
          "name": "D3",
          "midi": 50,
          "time": 23.79309749999994,
          "velocity": 0.7480314960629921,
          "duration": 0.20689649999999915
        },
        {
          "name": "G4",
          "midi": 67,
          "time": 23.99999399999994,
          "velocity": 0.7480314960629921,
          "duration": 0.20689649999999915
        },
        {
          "name": "F#4",
          "midi": 66,
          "time": 24.20689049999994,
          "velocity": 0.7480314960629921,
          "duration": 0.20689649999999915
        },
        {
          "name": "A3",
          "midi": 57,
          "time": 24.41378699999994,
          "velocity": 0.7480314960629921,
          "duration": 0.20689649999999915
        },
        {
          "name": "G3",
          "midi": 55,
          "time": 24.620683499999938,
          "velocity": 0.7480314960629921,
          "duration": 0.20689649999999915
        },
        {
          "name": "C3",
          "midi": 48,
          "time": 24.827579999999937,
          "velocity": 0.7480314960629921,
          "duration": 0.20689649999999915
        },
        {
          "name": "D4",
          "midi": 62,
          "time": 25.034476499999936,
          "velocity": 0.7480314960629921,
          "duration": 0.20689649999999915
        },
        {
          "name": "C4",
          "midi": 60,
          "time": 25.241372999999935,
          "velocity": 0.7480314960629921,
          "duration": 0.20689649999999915
        },
        {
          "name": "C3",
          "midi": 48,
          "time": 25.448269499999935,
          "velocity": 0.7480314960629921,
          "duration": 0.20689649999999915
        },
        {
          "name": "G4",
          "midi": 67,
          "time": 25.655165999999934,
          "velocity": 0.7480314960629921,
          "duration": 0.20689649999999915
        },
        {
          "name": "F#4",
          "midi": 66,
          "time": 25.862062499999933,
          "velocity": 0.7480314960629921,
          "duration": 0.20689649999999915
        },
        {
          "name": "C3",
          "midi": 48,
          "time": 26.068958999999932,
          "velocity": 0.7480314960629921,
          "duration": 0.20689649999999915
        },
        {
          "name": "D4",
          "midi": 62,
          "time": 26.27585549999993,
          "velocity": 0.7480314960629921,
          "duration": 0.20689649999999915
        },
        {
          "name": "C4",
          "midi": 60,
          "time": 26.48275199999993,
          "velocity": 0.7480314960629921,
          "duration": 0.20689649999999915
        },
        {
          "name": "C3",
          "midi": 48,
          "time": 26.68964849999993,
          "velocity": 0.7480314960629921,
          "duration": 0.20689649999999915
        },
        {
          "name": "G4",
          "midi": 67,
          "time": 26.89654499999993,
          "velocity": 0.7480314960629921,
          "duration": 0.20689649999999915
        },
        {
          "name": "F#4",
          "midi": 66,
          "time": 27.103441499999928,
          "velocity": 0.7480314960629921,
          "duration": 0.20689649999999915
        },
        {
          "name": "A3",
          "midi": 57,
          "time": 27.310337999999927,
          "velocity": 0.7480314960629921,
          "duration": 0.20689649999999915
        },
        {
          "name": "G3",
          "midi": 55,
          "time": 27.517234499999926,
          "velocity": 0.7480314960629921,
          "duration": 0.20689649999999915
        },
        {
          "name": "B2",
          "midi": 47,
          "time": 27.724130999999925,
          "velocity": 0.7480314960629921,
          "duration": 0.20689649999999915
        },
        {
          "name": "D4",
          "midi": 62,
          "time": 27.931027499999924,
          "velocity": 0.7480314960629921,
          "duration": 0.20689649999999915
        },
        {
          "name": "C4",
          "midi": 60,
          "time": 28.137923999999924,
          "velocity": 0.7480314960629921,
          "duration": 0.20689649999999915
        },
        {
          "name": "B2",
          "midi": 47,
          "time": 28.344820499999923,
          "velocity": 0.7480314960629921,
          "duration": 0.20689649999999915
        },
        {
          "name": "G4",
          "midi": 67,
          "time": 28.551716999999922,
          "velocity": 0.7480314960629921,
          "duration": 0.20689649999999915
        },
        {
          "name": "F#4",
          "midi": 66,
          "time": 28.75861349999992,
          "velocity": 0.7480314960629921,
          "duration": 0.20689649999999915
        },
        {
          "name": "B2",
          "midi": 47,
          "time": 28.96550999999992,
          "velocity": 0.7480314960629921,
          "duration": 0.20689649999999915
        },
        {
          "name": "D4",
          "midi": 62,
          "time": 29.17240649999992,
          "velocity": 0.7480314960629921,
          "duration": 0.20689649999999915
        },
        {
          "name": "C4",
          "midi": 60,
          "time": 29.37930299999992,
          "velocity": 0.7480314960629921,
          "duration": 0.20689649999999915
        },
        {
          "name": "B2",
          "midi": 47,
          "time": 29.586199499999918,
          "velocity": 0.7480314960629921,
          "duration": 0.20689649999999915
        },
        {
          "name": "G4",
          "midi": 67,
          "time": 29.793095999999917,
          "velocity": 0.7480314960629921,
          "duration": 0.20689649999999915
        },
        {
          "name": "F#4",
          "midi": 66,
          "time": 29.999992499999916,
          "velocity": 0.7480314960629921,
          "duration": 0.20689649999999915
        },
        {
          "name": "A3",
          "midi": 57,
          "time": 30.206888999999915,
          "velocity": 0.7480314960629921,
          "duration": 0.20689649999999915
        },
        {
          "name": "G3",
          "midi": 55,
          "time": 30.413785499999914,
          "velocity": 0.7480314960629921,
          "duration": 0.20689649999999915
        },
        {
          "name": "D3",
          "midi": 50,
          "time": 30.620681999999913,
          "velocity": 0.7480314960629921,
          "duration": 0.20689649999999915
        },
        {
          "name": "D4",
          "midi": 62,
          "time": 30.827578499999913,
          "velocity": 0.7480314960629921,
          "duration": 0.20689649999999915
        },
        {
          "name": "C4",
          "midi": 60,
          "time": 31.03447499999991,
          "velocity": 0.7480314960629921,
          "duration": 0.20689649999999915
        },
        {
          "name": "D3",
          "midi": 50,
          "time": 31.24137149999991,
          "velocity": 0.7480314960629921,
          "duration": 0.20689649999999915
        },
        {
          "name": "G4",
          "midi": 67,
          "time": 31.44826799999991,
          "velocity": 0.7480314960629921,
          "duration": 0.20689649999999915
        },
        {
          "name": "F#4",
          "midi": 66,
          "time": 31.65516449999991,
          "velocity": 0.7480314960629921,
          "duration": 0.20689649999999915
        },
        {
          "name": "D3",
          "midi": 50,
          "time": 31.86206099999991,
          "velocity": 0.7480314960629921,
          "duration": 0.2068965000000027
        },
        {
          "name": "D4",
          "midi": 62,
          "time": 32.06895749999991,
          "velocity": 0.7480314960629921,
          "duration": 0.20689649999999915
        },
        {
          "name": "C4",
          "midi": 60,
          "time": 32.27585399999991,
          "velocity": 0.7480314960629921,
          "duration": 0.20689649999999915
        },
        {
          "name": "D3",
          "midi": 50,
          "time": 32.48275049999991,
          "velocity": 0.7480314960629921,
          "duration": 0.20689649999999915
        },
        {
          "name": "G4",
          "midi": 67,
          "time": 32.68964699999991,
          "velocity": 0.7480314960629921,
          "duration": 0.20689649999999915
        },
        {
          "name": "F#4",
          "midi": 66,
          "time": 32.89654349999991,
          "velocity": 0.7480314960629921,
          "duration": 0.20689649999999915
        },
        {
          "name": "A3",
          "midi": 57,
          "time": 33.10343999999991,
          "velocity": 0.7480314960629921,
          "duration": 0.20689649999999915
        },
        {
          "name": "G3",
          "midi": 55,
          "time": 33.310336499999906,
          "velocity": 0.7480314960629921,
          "duration": 0.20689649999999915
        },
        {
          "name": "C3",
          "midi": 48,
          "time": 33.517232999999905,
          "velocity": 0.7480314960629921,
          "duration": 0.20689649999999915
        },
        {
          "name": "D4",
          "midi": 62,
          "time": 33.724129499999904,
          "velocity": 0.7480314960629921,
          "duration": 0.20689649999999915
        },
        {
          "name": "C4",
          "midi": 60,
          "time": 33.9310259999999,
          "velocity": 0.7480314960629921,
          "duration": 0.20689649999999915
        },
        {
          "name": "C3",
          "midi": 48,
          "time": 34.1379224999999,
          "velocity": 0.7480314960629921,
          "duration": 0.20689649999999915
        },
        {
          "name": "G4",
          "midi": 67,
          "time": 34.3448189999999,
          "velocity": 0.7480314960629921,
          "duration": 0.20689649999999915
        },
        {
          "name": "F#4",
          "midi": 66,
          "time": 34.5517154999999,
          "velocity": 0.7480314960629921,
          "duration": 0.20689649999999915
        },
        {
          "name": "C3",
          "midi": 48,
          "time": 34.7586119999999,
          "velocity": 0.7480314960629921,
          "duration": 0.20689649999999915
        },
        {
          "name": "D4",
          "midi": 62,
          "time": 34.9655084999999,
          "velocity": 0.7480314960629921,
          "duration": 0.20689649999999915
        },
        {
          "name": "C4",
          "midi": 60,
          "time": 35.1724049999999,
          "velocity": 0.7480314960629921,
          "duration": 0.20689649999999915
        },
        {
          "name": "C3",
          "midi": 48,
          "time": 35.3793014999999,
          "velocity": 0.7480314960629921,
          "duration": 0.20689649999999915
        },
        {
          "name": "G4",
          "midi": 67,
          "time": 35.5861979999999,
          "velocity": 0.7480314960629921,
          "duration": 0.20689649999999915
        },
        {
          "name": "F#4",
          "midi": 66,
          "time": 35.793094499999896,
          "velocity": 0.7480314960629921,
          "duration": 0.20689649999999915
        },
        {
          "name": "A3",
          "midi": 57,
          "time": 35.999990999999895,
          "velocity": 0.7480314960629921,
          "duration": 0.20689649999999915
        },
        {
          "name": "G3",
          "midi": 55,
          "time": 36.206887499999894,
          "velocity": 0.7480314960629921,
          "duration": 0.20689649999999915
        },
        {
          "name": "B2",
          "midi": 47,
          "time": 36.41378399999989,
          "velocity": 0.7480314960629921,
          "duration": 0.20689649999999915
        },
        {
          "name": "D4",
          "midi": 62,
          "time": 36.62068049999989,
          "velocity": 0.7480314960629921,
          "duration": 0.20689649999999915
        },
        {
          "name": "C4",
          "midi": 60,
          "time": 36.82757699999989,
          "velocity": 0.7480314960629921,
          "duration": 0.20689649999999915
        },
        {
          "name": "B2",
          "midi": 47,
          "time": 37.03447349999989,
          "velocity": 0.7480314960629921,
          "duration": 0.20689649999999915
        },
        {
          "name": "G4",
          "midi": 67,
          "time": 37.24136999999989,
          "velocity": 0.7480314960629921,
          "duration": 0.20689649999999915
        },
        {
          "name": "F#4",
          "midi": 66,
          "time": 37.44826649999989,
          "velocity": 0.7480314960629921,
          "duration": 0.20689649999999915
        },
        {
          "name": "B2",
          "midi": 47,
          "time": 37.65516299999989,
          "velocity": 0.7480314960629921,
          "duration": 0.20689649999999915
        },
        {
          "name": "D4",
          "midi": 62,
          "time": 37.86205949999989,
          "velocity": 0.7480314960629921,
          "duration": 0.20689649999999915
        },
        {
          "name": "C4",
          "midi": 60,
          "time": 38.068955999999886,
          "velocity": 0.7480314960629921,
          "duration": 0.20689649999999915
        },
        {
          "name": "B2",
          "midi": 47,
          "time": 38.275852499999885,
          "velocity": 0.7480314960629921,
          "duration": 0.20689649999999915
        },
        {
          "name": "G4",
          "midi": 67,
          "time": 38.482748999999885,
          "velocity": 0.7480314960629921,
          "duration": 0.20689649999999915
        },
        {
          "name": "F#4",
          "midi": 66,
          "time": 38.689645499999884,
          "velocity": 0.7480314960629921,
          "duration": 0.20689649999999915
        },
        {
          "name": "A3",
          "midi": 57,
          "time": 38.89654199999988,
          "velocity": 0.7480314960629921,
          "duration": 0.20689649999999915
        },
        {
          "name": "G3",
          "midi": 55,
          "time": 39.10343849999988,
          "velocity": 0.7480314960629921,
          "duration": 0.20689649999999915
        },
        {
          "name": "A3",
          "midi": 57,
          "time": 39.31033499999988,
          "velocity": 0.7480314960629921,
          "duration": 0.4137929999999983
        },
        {
          "name": "A2",
          "midi": 45,
          "time": 39.72412799999988,
          "velocity": 0.7480314960629921,
          "duration": 0.20689649999999915
        },
        {
          "name": "D3",
          "midi": 50,
          "time": 39.93102449999988,
          "velocity": 0.7480314960629921,
          "duration": 0.20689649999999915
        },
        {
          "name": "D3",
          "midi": 50,
          "time": 40.13792099999988,
          "velocity": 0.7480314960629921,
          "duration": 0.20689649999999915
        },
        {
          "name": "A2",
          "midi": 45,
          "time": 40.34481749999988,
          "velocity": 0.7480314960629921,
          "duration": 0.20689649999999915
        },
        {
          "name": "D3",
          "midi": 50,
          "time": 40.551713999999876,
          "velocity": 0.7480314960629921,
          "duration": 0.4137929999999983
        },
        {
          "name": "A2",
          "midi": 45,
          "time": 40.965506999999874,
          "velocity": 0.7480314960629921,
          "duration": 0.20689649999999915
        },
        {
          "name": "D3",
          "midi": 50,
          "time": 41.172403499999874,
          "velocity": 0.7480314960629921,
          "duration": 0.20689649999999915
        },
        {
          "name": "D3",
          "midi": 50,
          "time": 41.37929999999987,
          "velocity": 0.7480314960629921,
          "duration": 0.20689649999999915
        },
        {
          "name": "A2",
          "midi": 45,
          "time": 41.58619649999987,
          "velocity": 0.7480314960629921,
          "duration": 0.20689649999999915
        },
        {
          "name": "D3",
          "midi": 50,
          "time": 41.79309299999987,
          "velocity": 0.7480314960629921,
          "duration": 0.4137929999999983
        },
        {
          "name": "A2",
          "midi": 45,
          "time": 42.20688599999987,
          "velocity": 0.7480314960629921,
          "duration": 0.20689649999999915
        },
        {
          "name": "D3",
          "midi": 50,
          "time": 42.41378249999987,
          "velocity": 0.7480314960629921,
          "duration": 0.20689649999999915
        },
        {
          "name": "D3",
          "midi": 50,
          "time": 42.62067899999987,
          "velocity": 0.7480314960629921,
          "duration": 0.20689649999999915
        },
        {
          "name": "A2",
          "midi": 45,
          "time": 43.034471999999866,
          "velocity": 0.7480314960629921,
          "duration": 0.20689649999999915
        },
        {
          "name": "D3",
          "midi": 50,
          "time": 43.241368499999865,
          "velocity": 0.7480314960629921,
          "duration": 0.20689649999999915
        },
        {
          "name": "D3",
          "midi": 50,
          "time": 43.448264999999864,
          "velocity": 0.7480314960629921,
          "duration": 0.20689649999999915
        },
        {
          "name": "A2",
          "midi": 45,
          "time": 43.65516149999986,
          "velocity": 0.7480314960629921,
          "duration": 0.20689649999999915
        },
        {
          "name": "D3",
          "midi": 50,
          "time": 43.86205799999986,
          "velocity": 0.7480314960629921,
          "duration": 0.4137929999999983
        },
        {
          "name": "A2",
          "midi": 45,
          "time": 44.27585099999986,
          "velocity": 0.7480314960629921,
          "duration": 0.20689649999999915
        },
        {
          "name": "D3",
          "midi": 50,
          "time": 44.48274749999986,
          "velocity": 0.7480314960629921,
          "duration": 0.20689649999999915
        },
        {
          "name": "D3",
          "midi": 50,
          "time": 44.68964399999986,
          "velocity": 0.7480314960629921,
          "duration": 0.20689649999999915
        },
        {
          "name": "A2",
          "midi": 45,
          "time": 44.89654049999986,
          "velocity": 0.7480314960629921,
          "duration": 0.20689649999999915
        },
        {
          "name": "D3",
          "midi": 50,
          "time": 45.10343699999986,
          "velocity": 0.7480314960629921,
          "duration": 0.4137929999999983
        },
        {
          "name": "A2",
          "midi": 45,
          "time": 45.517229999999856,
          "velocity": 0.7480314960629921,
          "duration": 0.20689649999999915
        },
        {
          "name": "D3",
          "midi": 50,
          "time": 45.724126499999855,
          "velocity": 0.7480314960629921,
          "duration": 0.20689649999999915
        },
        {
          "name": "D3",
          "midi": 50,
          "time": 45.931022999999854,
          "velocity": 0.7480314960629921,
          "duration": 0.20689649999999915
        },
        {
          "name": "D3",
          "midi": 50,
          "time": 46.34481599999985,
          "velocity": 0.7480314960629921,
          "duration": 0.20689649999999915
        },
        {
          "name": "A3",
          "midi": 57,
          "time": 46.55171249999985,
          "velocity": 0.7480314960629921,
          "duration": 0.20689649999999915
        },
        {
          "name": "D4",
          "midi": 62,
          "time": 46.75860899999985,
          "velocity": 0.7480314960629921,
          "duration": 0.20689649999999915
        },
        {
          "name": "E4",
          "midi": 64,
          "time": 46.96550549999985,
          "velocity": 0.7480314960629921,
          "duration": 0.4137929999999983
        },
        {
          "name": "D4",
          "midi": 62,
          "time": 47.37929849999985,
          "velocity": 0.7480314960629921,
          "duration": 0.20689649999999915
        },
        {
          "name": "A3",
          "midi": 57,
          "time": 47.58619499999985,
          "velocity": 0.7480314960629921,
          "duration": 0.20689649999999915
        },
        {
          "name": "F#4",
          "midi": 66,
          "time": 47.793091499999846,
          "velocity": 0.7480314960629921,
          "duration": 0.4137929999999983
        },
        {
          "name": "D4",
          "midi": 62,
          "time": 48.206884499999845,
          "velocity": 0.7480314960629921,
          "duration": 0.20689649999999915
        },
        {
          "name": "A3",
          "midi": 57,
          "time": 48.413780999999844,
          "velocity": 0.7480314960629921,
          "duration": 0.20689649999999915
        },
        {
          "name": "E4",
          "midi": 64,
          "time": 48.62067749999984,
          "velocity": 0.7480314960629921,
          "duration": 0.4137929999999983
        },
        {
          "name": "D4",
          "midi": 62,
          "time": 49.03447049999984,
          "velocity": 0.7480314960629921,
          "duration": 0.20689649999999915
        },
        {
          "name": "A3",
          "midi": 57,
          "time": 49.24136699999984,
          "velocity": 0.7480314960629921,
          "duration": 0.20689649999999915
        },
        {
          "name": "D3",
          "midi": 50,
          "time": 49.44826349999984,
          "velocity": 0.7480314960629921,
          "duration": 0.20689649999999915
        },
        {
          "name": "A2",
          "midi": 45,
          "time": 49.65515999999984,
          "velocity": 0.7480314960629921,
          "duration": 0.20689649999999915
        },
        {
          "name": "E3",
          "midi": 52,
          "time": 49.86205649999984,
          "velocity": 0.7480314960629921,
          "duration": 0.20689649999999915
        },
        {
          "name": "A3",
          "midi": 57,
          "time": 50.06895299999984,
          "velocity": 0.7480314960629921,
          "duration": 0.20689649999999915
        },
        {
          "name": "G4",
          "midi": 67,
          "time": 50.275849499999836,
          "velocity": 0.7480314960629921,
          "duration": 0.4137929999999983
        },
        {
          "name": "C4",
          "midi": 60,
          "time": 50.689642499999835,
          "velocity": 0.7480314960629921,
          "duration": 0.20689649999999915
        },
        {
          "name": "A3",
          "midi": 57,
          "time": 50.896538999999834,
          "velocity": 0.7480314960629921,
          "duration": 0.20689649999999915
        },
        {
          "name": "E4",
          "midi": 64,
          "time": 51.10343549999983,
          "velocity": 0.7480314960629921,
          "duration": 0.4137929999999983
        },
        {
          "name": "C4",
          "midi": 60,
          "time": 51.51722849999983,
          "velocity": 0.7480314960629921,
          "duration": 0.20689649999999915
        },
        {
          "name": "A3",
          "midi": 57,
          "time": 51.72412499999983,
          "velocity": 0.7480314960629921,
          "duration": 0.20689649999999915
        },
        {
          "name": "G4",
          "midi": 67,
          "time": 51.93102149999983,
          "velocity": 0.7480314960629921,
          "duration": 0.4137929999999983
        },
        {
          "name": "A2",
          "midi": 45,
          "time": 52.34481449999983,
          "velocity": 0.7480314960629921,
          "duration": 0.20689649999999915
        },
        {
          "name": "B2",
          "midi": 47,
          "time": 52.55171099999983,
          "velocity": 0.7480314960629921,
          "duration": 0.4137929999999983
        },
        {
          "name": "C3",
          "midi": 48,
          "time": 52.965503999999825,
          "velocity": 0.7480314960629921,
          "duration": 0.20689649999999915
        },
        {
          "name": "E3",
          "midi": 52,
          "time": 53.172400499999824,
          "velocity": 0.7480314960629921,
          "duration": 0.20689649999999915
        },
        {
          "name": "G3",
          "midi": 55,
          "time": 53.37929699999982,
          "velocity": 0.7480314960629921,
          "duration": 0.20689649999999915
        },
        {
          "name": "G4",
          "midi": 67,
          "time": 53.58619349999982,
          "velocity": 0.7480314960629921,
          "duration": 0.4137929999999983
        },
        {
          "name": "C4",
          "midi": 60,
          "time": 53.99998649999982,
          "velocity": 0.7480314960629921,
          "duration": 0.20689649999999915
        },
        {
          "name": "G3",
          "midi": 55,
          "time": 54.20688299999982,
          "velocity": 0.7480314960629921,
          "duration": 0.20689649999999915
        },
        {
          "name": "E3",
          "midi": 52,
          "time": 54.41377949999982,
          "velocity": 0.7480314960629921,
          "duration": 0.20689649999999915
        },
        {
          "name": "E2",
          "midi": 40,
          "time": 54.62067599999982,
          "velocity": 0.7480314960629921,
          "duration": 0.4137929999999983
        },
        {
          "name": "B2",
          "midi": 47,
          "time": 55.03446899999982,
          "velocity": 0.7480314960629921,
          "duration": 0.20689649999999915
        },
        {
          "name": "E4",
          "midi": 64,
          "time": 55.241365499999816,
          "velocity": 0.7480314960629921,
          "duration": 0.4137929999999983
        },
        {
          "name": "D4",
          "midi": 62,
          "time": 55.241365499999816,
          "velocity": 0.7480314960629921,
          "duration": 0.4137929999999983
        },
        {
          "name": "G3",
          "midi": 55,
          "time": 55.655158499999814,
          "velocity": 0.7480314960629921,
          "duration": 0.20689649999999915
        },
        {
          "name": "D3",
          "midi": 50,
          "time": 55.86205499999981,
          "velocity": 0.7480314960629921,
          "duration": 0.4137929999999983
        },
        {
          "name": "A2",
          "midi": 45,
          "time": 56.27584799999981,
          "velocity": 0.7480314960629921,
          "duration": 0.20689649999999915
        },
        {
          "name": "D3",
          "midi": 50,
          "time": 56.48274449999981,
          "velocity": 0.7480314960629921,
          "duration": 0.20689649999999915
        },
        {
          "name": "D3",
          "midi": 50,
          "time": 56.68964099999981,
          "velocity": 0.7480314960629921,
          "duration": 0.20689649999999915
        },
        {
          "name": "A2",
          "midi": 45,
          "time": 56.89653749999981,
          "velocity": 0.7480314960629921,
          "duration": 0.20689649999999915
        },
        {
          "name": "D3",
          "midi": 50,
          "time": 57.10343399999981,
          "velocity": 0.7480314960629921,
          "duration": 0.4137929999999983
        },
        {
          "name": "A2",
          "midi": 45,
          "time": 57.51722699999981,
          "velocity": 0.7480314960629921,
          "duration": 0.20689649999999915
        },
        {
          "name": "D3",
          "midi": 50,
          "time": 57.724123499999806,
          "velocity": 0.7480314960629921,
          "duration": 0.20689649999999915
        },
        {
          "name": "D3",
          "midi": 50,
          "time": 57.931019999999805,
          "velocity": 0.7480314960629921,
          "duration": 0.20689649999999915
        },
        {
          "name": "A2",
          "midi": 45,
          "time": 58.137916499999804,
          "velocity": 0.7480314960629921,
          "duration": 0.20689649999999915
        },
        {
          "name": "D3",
          "midi": 50,
          "time": 58.3448129999998,
          "velocity": 0.7480314960629921,
          "duration": 0.4137929999999983
        },
        {
          "name": "A2",
          "midi": 45,
          "time": 58.7586059999998,
          "velocity": 0.7480314960629921,
          "duration": 0.20689649999999915
        },
        {
          "name": "D3",
          "midi": 50,
          "time": 58.9655024999998,
          "velocity": 0.7480314960629921,
          "duration": 0.20689649999999915
        },
        {
          "name": "D3",
          "midi": 50,
          "time": 59.1723989999998,
          "velocity": 0.7480314960629921,
          "duration": 0.20689649999999915
        },
        {
          "name": "D3",
          "midi": 50,
          "time": 59.5861919999998,
          "velocity": 0.7480314960629921,
          "duration": 0.20689649999999915
        },
        {
          "name": "A3",
          "midi": 57,
          "time": 59.7930884999998,
          "velocity": 0.7480314960629921,
          "duration": 0.20689649999999915
        },
        {
          "name": "D4",
          "midi": 62,
          "time": 59.999984999999796,
          "velocity": 0.7480314960629921,
          "duration": 0.20689649999999915
        },
        {
          "name": "E4",
          "midi": 64,
          "time": 60.206881499999795,
          "velocity": 0.7480314960629921,
          "duration": 0.4137929999999983
        },
        {
          "name": "D4",
          "midi": 62,
          "time": 60.620674499999794,
          "velocity": 0.7480314960629921,
          "duration": 0.20689649999999915
        },
        {
          "name": "A3",
          "midi": 57,
          "time": 60.82757099999979,
          "velocity": 0.7480314960629921,
          "duration": 0.20689649999999915
        },
        {
          "name": "F#4",
          "midi": 66,
          "time": 61.03446749999979,
          "velocity": 0.7480314960629921,
          "duration": 0.4137929999999983
        },
        {
          "name": "D4",
          "midi": 62,
          "time": 61.44826049999979,
          "velocity": 0.7480314960629921,
          "duration": 0.20689649999999915
        },
        {
          "name": "A3",
          "midi": 57,
          "time": 61.65515699999979,
          "velocity": 0.7480314960629921,
          "duration": 0.20689649999999915
        },
        {
          "name": "E4",
          "midi": 64,
          "time": 61.86205349999979,
          "velocity": 0.7480314960629921,
          "duration": 0.4137929999999983
        },
        {
          "name": "D4",
          "midi": 62,
          "time": 62.27584649999979,
          "velocity": 0.7480314960629921,
          "duration": 0.20689649999999915
        },
        {
          "name": "A3",
          "midi": 57,
          "time": 62.482742999999786,
          "velocity": 0.7480314960629921,
          "duration": 0.20689649999999915
        },
        {
          "name": "D3",
          "midi": 50,
          "time": 62.689639499999785,
          "velocity": 0.7480314960629921,
          "duration": 0.20689649999999915
        },
        {
          "name": "A2",
          "midi": 45,
          "time": 62.896535999999784,
          "velocity": 0.7480314960629921,
          "duration": 0.20689649999999915
        },
        {
          "name": "E3",
          "midi": 52,
          "time": 63.10343249999978,
          "velocity": 0.7480314960629921,
          "duration": 0.20689649999999915
        },
        {
          "name": "A3",
          "midi": 57,
          "time": 63.31032899999978,
          "velocity": 0.7480314960629921,
          "duration": 0.20689649999999915
        },
        {
          "name": "G4",
          "midi": 67,
          "time": 63.51722549999978,
          "velocity": 0.7480314960629921,
          "duration": 0.4137929999999983
        },
        {
          "name": "C4",
          "midi": 60,
          "time": 63.93101849999978,
          "velocity": 0.7480314960629921,
          "duration": 0.20689649999999915
        },
        {
          "name": "A3",
          "midi": 57,
          "time": 64.13791499999978,
          "velocity": 0.7480314960629921,
          "duration": 0.20689649999999915
        },
        {
          "name": "E4",
          "midi": 64,
          "time": 64.34481149999978,
          "velocity": 0.7480314960629921,
          "duration": 0.4137929999999983
        },
        {
          "name": "C4",
          "midi": 60,
          "time": 64.75860449999978,
          "velocity": 0.7480314960629921,
          "duration": 0.20689649999999915
        },
        {
          "name": "A3",
          "midi": 57,
          "time": 64.96550099999978,
          "velocity": 0.7480314960629921,
          "duration": 0.20689649999999915
        },
        {
          "name": "G4",
          "midi": 67,
          "time": 65.17239749999978,
          "velocity": 0.7480314960629921,
          "duration": 0.4137929999999983
        },
        {
          "name": "A2",
          "midi": 45,
          "time": 65.58619049999977,
          "velocity": 0.7480314960629921,
          "duration": 0.20689649999999915
        },
        {
          "name": "B2",
          "midi": 47,
          "time": 65.79308699999977,
          "velocity": 0.7480314960629921,
          "duration": 0.4137929999999983
        },
        {
          "name": "C3",
          "midi": 48,
          "time": 66.20687999999977,
          "velocity": 0.7480314960629921,
          "duration": 0.20689649999999915
        },
        {
          "name": "E3",
          "midi": 52,
          "time": 66.41377649999977,
          "velocity": 0.7480314960629921,
          "duration": 0.20689649999999915
        },
        {
          "name": "G3",
          "midi": 55,
          "time": 66.62067299999977,
          "velocity": 0.7480314960629921,
          "duration": 0.20689649999999915
        },
        {
          "name": "G4",
          "midi": 67,
          "time": 66.82756949999977,
          "velocity": 0.7480314960629921,
          "duration": 0.4137929999999983
        },
        {
          "name": "C4",
          "midi": 60,
          "time": 67.24136249999977,
          "velocity": 0.7480314960629921,
          "duration": 0.20689649999999915
        },
        {
          "name": "G3",
          "midi": 55,
          "time": 67.44825899999977,
          "velocity": 0.7480314960629921,
          "duration": 0.20689649999999915
        },
        {
          "name": "E3",
          "midi": 52,
          "time": 67.65515549999976,
          "velocity": 0.7480314960629921,
          "duration": 0.20689649999999915
        },
        {
          "name": "E2",
          "midi": 40,
          "time": 67.86205199999976,
          "velocity": 0.7480314960629921,
          "duration": 0.4137929999999983
        },
        {
          "name": "B2",
          "midi": 47,
          "time": 68.27584499999976,
          "velocity": 0.7480314960629921,
          "duration": 0.20689649999999915
        },
        {
          "name": "E4",
          "midi": 64,
          "time": 68.48274149999976,
          "velocity": 0.7480314960629921,
          "duration": 0.4137929999999983
        },
        {
          "name": "D4",
          "midi": 62,
          "time": 68.48274149999976,
          "velocity": 0.7480314960629921,
          "duration": 0.4137929999999983
        },
        {
          "name": "G3",
          "midi": 55,
          "time": 68.89653449999976,
          "velocity": 0.7480314960629921,
          "duration": 0.20689649999999915
        },
        {
          "name": "D3",
          "midi": 50,
          "time": 69.10343099999976,
          "velocity": 0.7480314960629921,
          "duration": 0.4137929999999983
        },
        {
          "name": "A2",
          "midi": 45,
          "time": 69.51722399999976,
          "velocity": 0.7480314960629921,
          "duration": 0.20689649999999915
        },
        {
          "name": "D3",
          "midi": 50,
          "time": 69.72412049999976,
          "velocity": 0.7480314960629921,
          "duration": 0.20689649999999915
        },
        {
          "name": "D3",
          "midi": 50,
          "time": 69.93101699999976,
          "velocity": 0.7480314960629921,
          "duration": 0.20689649999999915
        },
        {
          "name": "A2",
          "midi": 45,
          "time": 70.13791349999975,
          "velocity": 0.7480314960629921,
          "duration": 0.20689649999999915
        },
        {
          "name": "D3",
          "midi": 50,
          "time": 70.34480999999975,
          "velocity": 0.7480314960629921,
          "duration": 0.4137929999999983
        },
        {
          "name": "A2",
          "midi": 45,
          "time": 70.75860299999975,
          "velocity": 0.7480314960629921,
          "duration": 0.20689649999999915
        },
        {
          "name": "D3",
          "midi": 50,
          "time": 70.96549949999975,
          "velocity": 0.7480314960629921,
          "duration": 0.20689649999999915
        },
        {
          "name": "D3",
          "midi": 50,
          "time": 71.17239599999975,
          "velocity": 0.7480314960629921,
          "duration": 0.20689649999999915
        },
        {
          "name": "A2",
          "midi": 45,
          "time": 71.37929249999975,
          "velocity": 0.7480314960629921,
          "duration": 0.20689649999999915
        },
        {
          "name": "D3",
          "midi": 50,
          "time": 71.58618899999975,
          "velocity": 0.7480314960629921,
          "duration": 0.4137929999999983
        },
        {
          "name": "A2",
          "midi": 45,
          "time": 71.99998199999975,
          "velocity": 0.7480314960629921,
          "duration": 0.20689649999999915
        },
        {
          "name": "D3",
          "midi": 50,
          "time": 72.20687849999975,
          "velocity": 0.7480314960629921,
          "duration": 0.20689649999999915
        },
        {
          "name": "D3",
          "midi": 50,
          "time": 72.41377499999975,
          "velocity": 0.7480314960629921,
          "duration": 0.20689649999999915
        },
        {
          "name": "A2",
          "midi": 45,
          "time": 72.82756799999974,
          "velocity": 0.7480314960629921,
          "duration": 0.20689649999999915
        },
        {
          "name": "D3",
          "midi": 50,
          "time": 73.03446449999974,
          "velocity": 0.7480314960629921,
          "duration": 0.20689649999999915
        },
        {
          "name": "D3",
          "midi": 50,
          "time": 73.24136099999974,
          "velocity": 0.7480314960629921,
          "duration": 0.20689649999999915
        },
        {
          "name": "A2",
          "midi": 45,
          "time": 73.44825749999974,
          "velocity": 0.7480314960629921,
          "duration": 0.20689649999999915
        },
        {
          "name": "D3",
          "midi": 50,
          "time": 73.65515399999974,
          "velocity": 0.7480314960629921,
          "duration": 0.4137929999999983
        },
        {
          "name": "A2",
          "midi": 45,
          "time": 74.06894699999974,
          "velocity": 0.7480314960629921,
          "duration": 0.20689649999999915
        },
        {
          "name": "D3",
          "midi": 50,
          "time": 74.27584349999974,
          "velocity": 0.7480314960629921,
          "duration": 0.20689649999999915
        },
        {
          "name": "D3",
          "midi": 50,
          "time": 74.48273999999974,
          "velocity": 0.7480314960629921,
          "duration": 0.20689649999999915
        },
        {
          "name": "A2",
          "midi": 45,
          "time": 74.68963649999974,
          "velocity": 0.7480314960629921,
          "duration": 0.20689649999999915
        },
        {
          "name": "D3",
          "midi": 50,
          "time": 74.89653299999974,
          "velocity": 0.7480314960629921,
          "duration": 0.4137929999999983
        },
        {
          "name": "A2",
          "midi": 45,
          "time": 75.31032599999973,
          "velocity": 0.7480314960629921,
          "duration": 0.20689649999999915
        },
        {
          "name": "D3",
          "midi": 50,
          "time": 75.51722249999973,
          "velocity": 0.7480314960629921,
          "duration": 0.20689649999999915
        },
        {
          "name": "D3",
          "midi": 50,
          "time": 75.72411899999973,
          "velocity": 0.7480314960629921,
          "duration": 0.20689649999999915
        },
        {
          "name": "G4",
          "midi": 67,
          "time": 76.13791199999973,
          "velocity": 0.7480314960629921,
          "duration": 0.20689649999999915
        },
        {
          "name": "G3",
          "midi": 55,
          "time": 76.13791199999973,
          "velocity": 0.7480314960629921,
          "duration": 0.20689649999999915
        },
        {
          "name": "G4",
          "midi": 67,
          "time": 76.34480849999973,
          "velocity": 0.7480314960629921,
          "duration": 0.20689649999999915
        },
        {
          "name": "G3",
          "midi": 55,
          "time": 76.34480849999973,
          "velocity": 0.7480314960629921,
          "duration": 0.20689649999999915
        },
        {
          "name": "G4",
          "midi": 67,
          "time": 76.55170499999973,
          "velocity": 0.7480314960629921,
          "duration": 0.20689649999999915
        },
        {
          "name": "G3",
          "midi": 55,
          "time": 76.55170499999973,
          "velocity": 0.7480314960629921,
          "duration": 0.20689649999999915
        },
        {
          "name": "G4",
          "midi": 67,
          "time": 76.75860149999973,
          "velocity": 0.7480314960629921,
          "duration": 0.20689649999999915
        },
        {
          "name": "G3",
          "midi": 55,
          "time": 76.75860149999973,
          "velocity": 0.7480314960629921,
          "duration": 0.20689649999999915
        },
        {
          "name": "G4",
          "midi": 67,
          "time": 76.96549799999973,
          "velocity": 0.7480314960629921,
          "duration": 0.20689649999999915
        },
        {
          "name": "G3",
          "midi": 55,
          "time": 76.96549799999973,
          "velocity": 0.7480314960629921,
          "duration": 0.20689649999999915
        },
        {
          "name": "G4",
          "midi": 67,
          "time": 77.17239449999973,
          "velocity": 0.7480314960629921,
          "duration": 0.20689649999999915
        },
        {
          "name": "G3",
          "midi": 55,
          "time": 77.17239449999973,
          "velocity": 0.7480314960629921,
          "duration": 0.20689649999999915
        },
        {
          "name": "G4",
          "midi": 67,
          "time": 77.37929099999972,
          "velocity": 0.7480314960629921,
          "duration": 0.20689649999999915
        },
        {
          "name": "G3",
          "midi": 55,
          "time": 77.37929099999972,
          "velocity": 0.7480314960629921,
          "duration": 0.20689649999999915
        },
        {
          "name": "G4",
          "midi": 67,
          "time": 77.58618749999972,
          "velocity": 0.7480314960629921,
          "duration": 0.20689649999999915
        },
        {
          "name": "G3",
          "midi": 55,
          "time": 77.58618749999972,
          "velocity": 0.7480314960629921,
          "duration": 0.20689649999999915
        },
        {
          "name": "G4",
          "midi": 67,
          "time": 77.79308399999972,
          "velocity": 0.7480314960629921,
          "duration": 0.20689649999999915
        },
        {
          "name": "G3",
          "midi": 55,
          "time": 77.79308399999972,
          "velocity": 0.7480314960629921,
          "duration": 0.20689649999999915
        },
        {
          "name": "G4",
          "midi": 67,
          "time": 77.99998049999972,
          "velocity": 0.7480314960629921,
          "duration": 0.20689649999999915
        },
        {
          "name": "G3",
          "midi": 55,
          "time": 77.99998049999972,
          "velocity": 0.7480314960629921,
          "duration": 0.20689649999999915
        },
        {
          "name": "G4",
          "midi": 67,
          "time": 78.20687699999972,
          "velocity": 0.7480314960629921,
          "duration": 0.20689649999999915
        },
        {
          "name": "G3",
          "midi": 55,
          "time": 78.20687699999972,
          "velocity": 0.7480314960629921,
          "duration": 0.20689649999999915
        },
        {
          "name": "G4",
          "midi": 67,
          "time": 78.41377349999972,
          "velocity": 0.7480314960629921,
          "duration": 0.20689649999999915
        },
        {
          "name": "G3",
          "midi": 55,
          "time": 78.41377349999972,
          "velocity": 0.7480314960629921,
          "duration": 0.20689649999999915
        },
        {
          "name": "G4",
          "midi": 67,
          "time": 78.62066999999972,
          "velocity": 0.7480314960629921,
          "duration": 0.20689649999999915
        },
        {
          "name": "G3",
          "midi": 55,
          "time": 78.62066999999972,
          "velocity": 0.7480314960629921,
          "duration": 0.20689649999999915
        },
        {
          "name": "G4",
          "midi": 67,
          "time": 78.82756649999972,
          "velocity": 0.7480314960629921,
          "duration": 0.20689649999999915
        },
        {
          "name": "G3",
          "midi": 55,
          "time": 78.82756649999972,
          "velocity": 0.7480314960629921,
          "duration": 0.20689649999999915
        },
        {
          "name": "G4",
          "midi": 67,
          "time": 79.03446299999972,
          "velocity": 0.7480314960629921,
          "duration": 0.20689649999999915
        },
        {
          "name": "G3",
          "midi": 55,
          "time": 79.03446299999972,
          "velocity": 0.7480314960629921,
          "duration": 0.20689649999999915
        },
        {
          "name": "G4",
          "midi": 67,
          "time": 79.24135949999972,
          "velocity": 0.7480314960629921,
          "duration": 0.20689649999999915
        },
        {
          "name": "G3",
          "midi": 55,
          "time": 79.24135949999972,
          "velocity": 0.7480314960629921,
          "duration": 0.20689649999999915
        },
        {
          "name": "F#4",
          "midi": 66,
          "time": 79.44825599999972,
          "velocity": 0.7480314960629921,
          "duration": 0.6206894999999975
        },
        {
          "name": "F#3",
          "midi": 54,
          "time": 79.44825599999972,
          "velocity": 0.7480314960629921,
          "duration": 0.6206894999999975
        },
        {
          "name": "D4",
          "midi": 62,
          "time": 80.06894549999971,
          "velocity": 0.7480314960629921,
          "duration": 0.6206894999999975
        },
        {
          "name": "D3",
          "midi": 50,
          "time": 80.06894549999971,
          "velocity": 0.7480314960629921,
          "duration": 0.6206894999999975
        },
        {
          "name": "F#4",
          "midi": 66,
          "time": 80.68963499999971,
          "velocity": 0.7480314960629921,
          "duration": 0.4137929999999983
        },
        {
          "name": "F#3",
          "midi": 54,
          "time": 80.68963499999971,
          "velocity": 0.7480314960629921,
          "duration": 0.4137929999999983
        },
        {
          "name": "G4",
          "midi": 67,
          "time": 81.10342799999971,
          "velocity": 0.7480314960629921,
          "duration": 0.20689649999999915
        },
        {
          "name": "G3",
          "midi": 55,
          "time": 81.10342799999971,
          "velocity": 0.7480314960629921,
          "duration": 0.20689649999999915
        },
        {
          "name": "G4",
          "midi": 67,
          "time": 81.31032449999971,
          "velocity": 0.7480314960629921,
          "duration": 0.20689649999999915
        },
        {
          "name": "G3",
          "midi": 55,
          "time": 81.31032449999971,
          "velocity": 0.7480314960629921,
          "duration": 0.20689649999999915
        },
        {
          "name": "G4",
          "midi": 67,
          "time": 81.51722099999971,
          "velocity": 0.7480314960629921,
          "duration": 0.20689649999999915
        },
        {
          "name": "G3",
          "midi": 55,
          "time": 81.51722099999971,
          "velocity": 0.7480314960629921,
          "duration": 0.20689649999999915
        },
        {
          "name": "G4",
          "midi": 67,
          "time": 81.7241174999997,
          "velocity": 0.7480314960629921,
          "duration": 0.20689649999999915
        },
        {
          "name": "G3",
          "midi": 55,
          "time": 81.7241174999997,
          "velocity": 0.7480314960629921,
          "duration": 0.20689649999999915
        },
        {
          "name": "G4",
          "midi": 67,
          "time": 81.9310139999997,
          "velocity": 0.7480314960629921,
          "duration": 0.20689649999999915
        },
        {
          "name": "G3",
          "midi": 55,
          "time": 81.9310139999997,
          "velocity": 0.7480314960629921,
          "duration": 0.20689649999999915
        },
        {
          "name": "G4",
          "midi": 67,
          "time": 82.1379104999997,
          "velocity": 0.7480314960629921,
          "duration": 0.20689649999999915
        },
        {
          "name": "G3",
          "midi": 55,
          "time": 82.1379104999997,
          "velocity": 0.7480314960629921,
          "duration": 0.20689649999999915
        },
        {
          "name": "G4",
          "midi": 67,
          "time": 82.3448069999997,
          "velocity": 0.7480314960629921,
          "duration": 0.20689649999999915
        },
        {
          "name": "G3",
          "midi": 55,
          "time": 82.3448069999997,
          "velocity": 0.7480314960629921,
          "duration": 0.20689649999999915
        },
        {
          "name": "G4",
          "midi": 67,
          "time": 82.5517034999997,
          "velocity": 0.7480314960629921,
          "duration": 0.20689649999999915
        },
        {
          "name": "G3",
          "midi": 55,
          "time": 82.5517034999997,
          "velocity": 0.7480314960629921,
          "duration": 0.20689649999999915
        },
        {
          "name": "G4",
          "midi": 67,
          "time": 82.7585999999997,
          "velocity": 0.7480314960629921,
          "duration": 0.20689649999999915
        },
        {
          "name": "G3",
          "midi": 55,
          "time": 82.7585999999997,
          "velocity": 0.7480314960629921,
          "duration": 0.20689649999999915
        },
        {
          "name": "G4",
          "midi": 67,
          "time": 82.9654964999997,
          "velocity": 0.7480314960629921,
          "duration": 0.20689649999999915
        },
        {
          "name": "G3",
          "midi": 55,
          "time": 82.9654964999997,
          "velocity": 0.7480314960629921,
          "duration": 0.20689649999999915
        },
        {
          "name": "G4",
          "midi": 67,
          "time": 83.1723929999997,
          "velocity": 0.7480314960629921,
          "duration": 0.20689649999999915
        },
        {
          "name": "G3",
          "midi": 55,
          "time": 83.1723929999997,
          "velocity": 0.7480314960629921,
          "duration": 0.20689649999999915
        },
        {
          "name": "G4",
          "midi": 67,
          "time": 83.3792894999997,
          "velocity": 0.7480314960629921,
          "duration": 0.20689649999999915
        },
        {
          "name": "G3",
          "midi": 55,
          "time": 83.3792894999997,
          "velocity": 0.7480314960629921,
          "duration": 0.20689649999999915
        },
        {
          "name": "G4",
          "midi": 67,
          "time": 83.5861859999997,
          "velocity": 0.7480314960629921,
          "duration": 0.20689649999999915
        },
        {
          "name": "G3",
          "midi": 55,
          "time": 83.5861859999997,
          "velocity": 0.7480314960629921,
          "duration": 0.20689649999999915
        },
        {
          "name": "G4",
          "midi": 67,
          "time": 83.7930824999997,
          "velocity": 0.7480314960629921,
          "duration": 0.20689649999999915
        },
        {
          "name": "G3",
          "midi": 55,
          "time": 83.7930824999997,
          "velocity": 0.7480314960629921,
          "duration": 0.20689649999999915
        },
        {
          "name": "G4",
          "midi": 67,
          "time": 83.9999789999997,
          "velocity": 0.7480314960629921,
          "duration": 0.20689649999999915
        },
        {
          "name": "G3",
          "midi": 55,
          "time": 83.9999789999997,
          "velocity": 0.7480314960629921,
          "duration": 0.20689649999999915
        },
        {
          "name": "G4",
          "midi": 67,
          "time": 84.2068754999997,
          "velocity": 0.7480314960629921,
          "duration": 0.20689649999999915
        },
        {
          "name": "G3",
          "midi": 55,
          "time": 84.2068754999997,
          "velocity": 0.7480314960629921,
          "duration": 0.20689649999999915
        },
        {
          "name": "F#4",
          "midi": 66,
          "time": 84.4137719999997,
          "velocity": 0.7480314960629921,
          "duration": 0.6206894999999975
        },
        {
          "name": "F#3",
          "midi": 54,
          "time": 84.4137719999997,
          "velocity": 0.7480314960629921,
          "duration": 0.6206894999999975
        },
        {
          "name": "D4",
          "midi": 62,
          "time": 85.0344614999997,
          "velocity": 0.7480314960629921,
          "duration": 0.6206894999999975
        },
        {
          "name": "D3",
          "midi": 50,
          "time": 85.0344614999997,
          "velocity": 0.7480314960629921,
          "duration": 0.6206894999999975
        },
        {
          "name": "F#4",
          "midi": 66,
          "time": 85.65515099999969,
          "velocity": 0.7480314960629921,
          "duration": 0.4137929999999983
        },
        {
          "name": "F#3",
          "midi": 54,
          "time": 85.65515099999969,
          "velocity": 0.7480314960629921,
          "duration": 0.4137929999999983
        },
        {
          "name": "G4",
          "midi": 67,
          "time": 86.06894399999969,
          "velocity": 0.7480314960629921,
          "duration": 0.20689649999999915
        },
        {
          "name": "G3",
          "midi": 55,
          "time": 86.06894399999969,
          "velocity": 0.7480314960629921,
          "duration": 0.20689649999999915
        },
        {
          "name": "G4",
          "midi": 67,
          "time": 86.27584049999969,
          "velocity": 0.7480314960629921,
          "duration": 0.20689649999999915
        },
        {
          "name": "G3",
          "midi": 55,
          "time": 86.27584049999969,
          "velocity": 0.7480314960629921,
          "duration": 0.20689649999999915
        },
        {
          "name": "G4",
          "midi": 67,
          "time": 86.48273699999969,
          "velocity": 0.7480314960629921,
          "duration": 0.20689649999999915
        },
        {
          "name": "G3",
          "midi": 55,
          "time": 86.48273699999969,
          "velocity": 0.7480314960629921,
          "duration": 0.20689649999999915
        },
        {
          "name": "G4",
          "midi": 67,
          "time": 86.68963349999969,
          "velocity": 0.7480314960629921,
          "duration": 0.20689649999999915
        },
        {
          "name": "G3",
          "midi": 55,
          "time": 86.68963349999969,
          "velocity": 0.7480314960629921,
          "duration": 0.20689649999999915
        },
        {
          "name": "G4",
          "midi": 67,
          "time": 86.89652999999969,
          "velocity": 0.7480314960629921,
          "duration": 0.20689649999999915
        },
        {
          "name": "G3",
          "midi": 55,
          "time": 86.89652999999969,
          "velocity": 0.7480314960629921,
          "duration": 0.20689649999999915
        },
        {
          "name": "G4",
          "midi": 67,
          "time": 87.10342649999969,
          "velocity": 0.7480314960629921,
          "duration": 0.20689649999999915
        },
        {
          "name": "G3",
          "midi": 55,
          "time": 87.10342649999969,
          "velocity": 0.7480314960629921,
          "duration": 0.20689649999999915
        },
        {
          "name": "G4",
          "midi": 67,
          "time": 87.31032299999968,
          "velocity": 0.7480314960629921,
          "duration": 0.20689649999999915
        },
        {
          "name": "G3",
          "midi": 55,
          "time": 87.31032299999968,
          "velocity": 0.7480314960629921,
          "duration": 0.20689649999999915
        },
        {
          "name": "G4",
          "midi": 67,
          "time": 87.51721949999968,
          "velocity": 0.7480314960629921,
          "duration": 0.20689649999999915
        },
        {
          "name": "G3",
          "midi": 55,
          "time": 87.51721949999968,
          "velocity": 0.7480314960629921,
          "duration": 0.20689649999999915
        },
        {
          "name": "G4",
          "midi": 67,
          "time": 87.72411599999968,
          "velocity": 0.7480314960629921,
          "duration": 0.20689649999999915
        },
        {
          "name": "G3",
          "midi": 55,
          "time": 87.72411599999968,
          "velocity": 0.7480314960629921,
          "duration": 0.20689649999999915
        },
        {
          "name": "G4",
          "midi": 67,
          "time": 87.93101249999968,
          "velocity": 0.7480314960629921,
          "duration": 0.20689649999999915
        },
        {
          "name": "G3",
          "midi": 55,
          "time": 87.93101249999968,
          "velocity": 0.7480314960629921,
          "duration": 0.20689649999999915
        },
        {
          "name": "G4",
          "midi": 67,
          "time": 88.13790899999968,
          "velocity": 0.7480314960629921,
          "duration": 0.20689649999999915
        },
        {
          "name": "G3",
          "midi": 55,
          "time": 88.13790899999968,
          "velocity": 0.7480314960629921,
          "duration": 0.20689649999999915
        },
        {
          "name": "G4",
          "midi": 67,
          "time": 88.34480549999968,
          "velocity": 0.7480314960629921,
          "duration": 0.20689649999999915
        },
        {
          "name": "G3",
          "midi": 55,
          "time": 88.34480549999968,
          "velocity": 0.7480314960629921,
          "duration": 0.20689649999999915
        },
        {
          "name": "G4",
          "midi": 67,
          "time": 88.55170199999968,
          "velocity": 0.7480314960629921,
          "duration": 0.20689649999999915
        },
        {
          "name": "G3",
          "midi": 55,
          "time": 88.55170199999968,
          "velocity": 0.7480314960629921,
          "duration": 0.20689649999999915
        },
        {
          "name": "G4",
          "midi": 67,
          "time": 88.75859849999968,
          "velocity": 0.7480314960629921,
          "duration": 0.20689649999999915
        },
        {
          "name": "G3",
          "midi": 55,
          "time": 88.75859849999968,
          "velocity": 0.7480314960629921,
          "duration": 0.20689649999999915
        },
        {
          "name": "G4",
          "midi": 67,
          "time": 88.96549499999968,
          "velocity": 0.7480314960629921,
          "duration": 0.20689649999999915
        },
        {
          "name": "G3",
          "midi": 55,
          "time": 88.96549499999968,
          "velocity": 0.7480314960629921,
          "duration": 0.20689649999999915
        },
        {
          "name": "G4",
          "midi": 67,
          "time": 89.17239149999968,
          "velocity": 0.7480314960629921,
          "duration": 0.20689649999999915
        },
        {
          "name": "G3",
          "midi": 55,
          "time": 89.17239149999968,
          "velocity": 0.7480314960629921,
          "duration": 0.20689649999999915
        },
        {
          "name": "F#4",
          "midi": 66,
          "time": 89.37928799999968,
          "velocity": 0.7480314960629921,
          "duration": 0.6206894999999975
        },
        {
          "name": "F#3",
          "midi": 54,
          "time": 89.37928799999968,
          "velocity": 0.7480314960629921,
          "duration": 0.6206894999999975
        },
        {
          "name": "D4",
          "midi": 62,
          "time": 89.99997749999967,
          "velocity": 0.7480314960629921,
          "duration": 0.6206894999999975
        },
        {
          "name": "D3",
          "midi": 50,
          "time": 89.99997749999967,
          "velocity": 0.7480314960629921,
          "duration": 0.6206894999999975
        },
        {
          "name": "F#4",
          "midi": 66,
          "time": 90.62066699999967,
          "velocity": 0.7480314960629921,
          "duration": 0.4137929999999983
        },
        {
          "name": "F#3",
          "midi": 54,
          "time": 90.62066699999967,
          "velocity": 0.7480314960629921,
          "duration": 0.4137929999999983
        },
        {
          "name": "G4",
          "midi": 67,
          "time": 91.03445999999967,
          "velocity": 0.7480314960629921,
          "duration": 0.20689649999999915
        },
        {
          "name": "G3",
          "midi": 55,
          "time": 91.03445999999967,
          "velocity": 0.7480314960629921,
          "duration": 0.20689649999999915
        },
        {
          "name": "G4",
          "midi": 67,
          "time": 91.24135649999967,
          "velocity": 0.7480314960629921,
          "duration": 0.20689649999999915
        },
        {
          "name": "G3",
          "midi": 55,
          "time": 91.24135649999967,
          "velocity": 0.7480314960629921,
          "duration": 0.20689649999999915
        },
        {
          "name": "G4",
          "midi": 67,
          "time": 91.44825299999967,
          "velocity": 0.7480314960629921,
          "duration": 0.20689649999999915
        },
        {
          "name": "G3",
          "midi": 55,
          "time": 91.44825299999967,
          "velocity": 0.7480314960629921,
          "duration": 0.20689649999999915
        },
        {
          "name": "G4",
          "midi": 67,
          "time": 91.65514949999967,
          "velocity": 0.7480314960629921,
          "duration": 0.20689649999999915
        },
        {
          "name": "G3",
          "midi": 55,
          "time": 91.65514949999967,
          "velocity": 0.7480314960629921,
          "duration": 0.20689649999999915
        },
        {
          "name": "G4",
          "midi": 67,
          "time": 91.86204599999967,
          "velocity": 0.7480314960629921,
          "duration": 0.20689649999999915
        },
        {
          "name": "G3",
          "midi": 55,
          "time": 91.86204599999967,
          "velocity": 0.7480314960629921,
          "duration": 0.20689649999999915
        },
        {
          "name": "G4",
          "midi": 67,
          "time": 92.06894249999966,
          "velocity": 0.7480314960629921,
          "duration": 0.20689649999999915
        },
        {
          "name": "G3",
          "midi": 55,
          "time": 92.06894249999966,
          "velocity": 0.7480314960629921,
          "duration": 0.20689649999999915
        },
        {
          "name": "G4",
          "midi": 67,
          "time": 92.27583899999966,
          "velocity": 0.7480314960629921,
          "duration": 0.20689649999999915
        },
        {
          "name": "G3",
          "midi": 55,
          "time": 92.27583899999966,
          "velocity": 0.7480314960629921,
          "duration": 0.20689649999999915
        },
        {
          "name": "G4",
          "midi": 67,
          "time": 92.48273549999966,
          "velocity": 0.7480314960629921,
          "duration": 0.20689649999999915
        },
        {
          "name": "G3",
          "midi": 55,
          "time": 92.48273549999966,
          "velocity": 0.7480314960629921,
          "duration": 0.20689649999999915
        },
        {
          "name": "G4",
          "midi": 67,
          "time": 92.68963199999966,
          "velocity": 0.7480314960629921,
          "duration": 0.20689649999999915
        },
        {
          "name": "G3",
          "midi": 55,
          "time": 92.68963199999966,
          "velocity": 0.7480314960629921,
          "duration": 0.20689649999999915
        },
        {
          "name": "G4",
          "midi": 67,
          "time": 92.89652849999966,
          "velocity": 0.7480314960629921,
          "duration": 0.20689649999999915
        },
        {
          "name": "G3",
          "midi": 55,
          "time": 92.89652849999966,
          "velocity": 0.7480314960629921,
          "duration": 0.20689649999999915
        },
        {
          "name": "G4",
          "midi": 67,
          "time": 93.10342499999966,
          "velocity": 0.7480314960629921,
          "duration": 0.20689649999999915
        },
        {
          "name": "G3",
          "midi": 55,
          "time": 93.10342499999966,
          "velocity": 0.7480314960629921,
          "duration": 0.20689649999999915
        },
        {
          "name": "G4",
          "midi": 67,
          "time": 93.31032149999966,
          "velocity": 0.7480314960629921,
          "duration": 0.20689649999999915
        },
        {
          "name": "G3",
          "midi": 55,
          "time": 93.31032149999966,
          "velocity": 0.7480314960629921,
          "duration": 0.20689649999999915
        },
        {
          "name": "G4",
          "midi": 67,
          "time": 93.51721799999966,
          "velocity": 0.7480314960629921,
          "duration": 0.20689649999999915
        },
        {
          "name": "G3",
          "midi": 55,
          "time": 93.51721799999966,
          "velocity": 0.7480314960629921,
          "duration": 0.20689649999999915
        },
        {
          "name": "G4",
          "midi": 67,
          "time": 93.72411449999966,
          "velocity": 0.7480314960629921,
          "duration": 0.20689649999999915
        },
        {
          "name": "G3",
          "midi": 55,
          "time": 93.72411449999966,
          "velocity": 0.7480314960629921,
          "duration": 0.20689649999999915
        },
        {
          "name": "G4",
          "midi": 67,
          "time": 93.93101099999966,
          "velocity": 0.7480314960629921,
          "duration": 0.20689649999999915
        },
        {
          "name": "G3",
          "midi": 55,
          "time": 93.93101099999966,
          "velocity": 0.7480314960629921,
          "duration": 0.20689649999999915
        },
        {
          "name": "G4",
          "midi": 67,
          "time": 94.13790749999966,
          "velocity": 0.7480314960629921,
          "duration": 0.20689649999999915
        },
        {
          "name": "G3",
          "midi": 55,
          "time": 94.13790749999966,
          "velocity": 0.7480314960629921,
          "duration": 0.20689649999999915
        },
        {
          "name": "F#4",
          "midi": 66,
          "time": 94.34480399999966,
          "velocity": 0.7480314960629921,
          "duration": 0.6206894999999975
        },
        {
          "name": "F#3",
          "midi": 54,
          "time": 94.34480399999966,
          "velocity": 0.7480314960629921,
          "duration": 0.6206894999999975
        },
        {
          "name": "D4",
          "midi": 62,
          "time": 94.96549349999965,
          "velocity": 0.7480314960629921,
          "duration": 0.6206894999999975
        },
        {
          "name": "D3",
          "midi": 50,
          "time": 94.96549349999965,
          "velocity": 0.7480314960629921,
          "duration": 0.6206894999999975
        },
        {
          "name": "F#4",
          "midi": 66,
          "time": 95.58618299999965,
          "velocity": 0.7480314960629921,
          "duration": 0.4137929999999983
        },
        {
          "name": "F#3",
          "midi": 54,
          "time": 95.58618299999965,
          "velocity": 0.7480314960629921,
          "duration": 0.4137929999999983
        },
        {
          "name": "A2",
          "midi": 45,
          "time": 95.99997599999965,
          "velocity": 0.7480314960629921,
          "duration": 0.20689649999999915
        },
        {
          "name": "D3",
          "midi": 50,
          "time": 96.20687249999965,
          "velocity": 0.7480314960629921,
          "duration": 0.20689649999999915
        },
        {
          "name": "D3",
          "midi": 50,
          "time": 96.41376899999965,
          "velocity": 0.7480314960629921,
          "duration": 0.20689649999999915
        },
        {
          "name": "A2",
          "midi": 45,
          "time": 96.62066549999965,
          "velocity": 0.7480314960629921,
          "duration": 0.20689649999999915
        },
        {
          "name": "D3",
          "midi": 50,
          "time": 96.82756199999965,
          "velocity": 0.7480314960629921,
          "duration": 0.4137929999999983
        },
        {
          "name": "A2",
          "midi": 45,
          "time": 97.24135499999964,
          "velocity": 0.7480314960629921,
          "duration": 0.20689649999999915
        },
        {
          "name": "D3",
          "midi": 50,
          "time": 97.44825149999964,
          "velocity": 0.7480314960629921,
          "duration": 0.20689649999999915
        },
        {
          "name": "D3",
          "midi": 50,
          "time": 97.65514799999964,
          "velocity": 0.7480314960629921,
          "duration": 0.20689649999999915
        },
        {
          "name": "A2",
          "midi": 45,
          "time": 97.86204449999964,
          "velocity": 0.7480314960629921,
          "duration": 0.20689649999999915
        },
        {
          "name": "D3",
          "midi": 50,
          "time": 98.06894099999964,
          "velocity": 0.7480314960629921,
          "duration": 0.4137929999999983
        },
        {
          "name": "A2",
          "midi": 45,
          "time": 98.48273399999964,
          "velocity": 0.7480314960629921,
          "duration": 0.20689649999999915
        },
        {
          "name": "D3",
          "midi": 50,
          "time": 98.68963049999964,
          "velocity": 0.7480314960629921,
          "duration": 0.20689649999999915
        },
        {
          "name": "D3",
          "midi": 50,
          "time": 98.89652699999964,
          "velocity": 0.7480314960629921,
          "duration": 0.20689649999999915
        },
        {
          "name": "A2",
          "midi": 45,
          "time": 99.31031999999963,
          "velocity": 0.7480314960629921,
          "duration": 0.20689649999999915
        },
        {
          "name": "D3",
          "midi": 50,
          "time": 99.51721649999963,
          "velocity": 0.7480314960629921,
          "duration": 0.20689649999999915
        },
        {
          "name": "D3",
          "midi": 50,
          "time": 99.72411299999963,
          "velocity": 0.7480314960629921,
          "duration": 0.20689649999999915
        },
        {
          "name": "A2",
          "midi": 45,
          "time": 99.93100949999963,
          "velocity": 0.7480314960629921,
          "duration": 0.20689649999999915
        },
        {
          "name": "D3",
          "midi": 50,
          "time": 100.13790599999963,
          "velocity": 0.7480314960629921,
          "duration": 0.4137929999999983
        },
        {
          "name": "A2",
          "midi": 45,
          "time": 100.55169899999963,
          "velocity": 0.7480314960629921,
          "duration": 0.20689649999999915
        },
        {
          "name": "D3",
          "midi": 50,
          "time": 100.75859549999963,
          "velocity": 0.7480314960629921,
          "duration": 0.20689649999999915
        },
        {
          "name": "D3",
          "midi": 50,
          "time": 100.96549199999963,
          "velocity": 0.7480314960629921,
          "duration": 0.20689649999999915
        },
        {
          "name": "A2",
          "midi": 45,
          "time": 101.17238849999963,
          "velocity": 0.7480314960629921,
          "duration": 0.20689649999999915
        },
        {
          "name": "D3",
          "midi": 50,
          "time": 101.37928499999963,
          "velocity": 0.7480314960629921,
          "duration": 0.4137929999999983
        },
        {
          "name": "A2",
          "midi": 45,
          "time": 101.79307799999962,
          "velocity": 0.7480314960629921,
          "duration": 0.20689649999999915
        },
        {
          "name": "D3",
          "midi": 50,
          "time": 101.99997449999962,
          "velocity": 0.7480314960629921,
          "duration": 0.20689649999999915
        },
        {
          "name": "D3",
          "midi": 50,
          "time": 102.20687099999962,
          "velocity": 0.7480314960629921,
          "duration": 0.20689649999999915
        },
        {
          "name": "D3",
          "midi": 50,
          "time": 102.62066399999962,
          "velocity": 0.7480314960629921,
          "duration": 0.20689649999999915
        },
        {
          "name": "A3",
          "midi": 57,
          "time": 102.82756049999962,
          "velocity": 0.7480314960629921,
          "duration": 0.20689649999999915
        },
        {
          "name": "D4",
          "midi": 62,
          "time": 103.03445699999962,
          "velocity": 0.7480314960629921,
          "duration": 0.20689649999999915
        },
        {
          "name": "E4",
          "midi": 64,
          "time": 103.24135349999962,
          "velocity": 0.7480314960629921,
          "duration": 0.4137929999999983
        },
        {
          "name": "D4",
          "midi": 62,
          "time": 103.65514649999962,
          "velocity": 0.7480314960629921,
          "duration": 0.20689649999999915
        },
        {
          "name": "A3",
          "midi": 57,
          "time": 103.86204299999962,
          "velocity": 0.7480314960629921,
          "duration": 0.20689649999999915
        },
        {
          "name": "F#4",
          "midi": 66,
          "time": 104.06893949999962,
          "velocity": 0.7480314960629921,
          "duration": 0.4137929999999983
        },
        {
          "name": "D4",
          "midi": 62,
          "time": 104.48273249999961,
          "velocity": 0.7480314960629921,
          "duration": 0.20689649999999915
        },
        {
          "name": "A3",
          "midi": 57,
          "time": 104.68962899999961,
          "velocity": 0.7480314960629921,
          "duration": 0.20689649999999915
        },
        {
          "name": "E4",
          "midi": 64,
          "time": 104.89652549999961,
          "velocity": 0.7480314960629921,
          "duration": 0.4137929999999983
        },
        {
          "name": "D4",
          "midi": 62,
          "time": 105.31031849999961,
          "velocity": 0.7480314960629921,
          "duration": 0.20689649999999915
        },
        {
          "name": "A3",
          "midi": 57,
          "time": 105.51721499999961,
          "velocity": 0.7480314960629921,
          "duration": 0.20689649999999915
        },
        {
          "name": "D3",
          "midi": 50,
          "time": 105.72411149999961,
          "velocity": 0.7480314960629921,
          "duration": 0.20689649999999915
        },
        {
          "name": "A2",
          "midi": 45,
          "time": 105.93100799999961,
          "velocity": 0.7480314960629921,
          "duration": 0.20689649999999915
        },
        {
          "name": "E3",
          "midi": 52,
          "time": 106.1379044999996,
          "velocity": 0.7480314960629921,
          "duration": 0.20689649999999915
        },
        {
          "name": "A3",
          "midi": 57,
          "time": 106.3448009999996,
          "velocity": 0.7480314960629921,
          "duration": 0.20689649999999915
        },
        {
          "name": "G4",
          "midi": 67,
          "time": 106.5516974999996,
          "velocity": 0.7480314960629921,
          "duration": 0.4137929999999983
        },
        {
          "name": "C4",
          "midi": 60,
          "time": 106.9654904999996,
          "velocity": 0.7480314960629921,
          "duration": 0.20689649999999915
        },
        {
          "name": "A3",
          "midi": 57,
          "time": 107.1723869999996,
          "velocity": 0.7480314960629921,
          "duration": 0.20689649999999915
        },
        {
          "name": "E4",
          "midi": 64,
          "time": 107.3792834999996,
          "velocity": 0.7480314960629921,
          "duration": 0.4137929999999983
        },
        {
          "name": "C4",
          "midi": 60,
          "time": 107.7930764999996,
          "velocity": 0.7480314960629921,
          "duration": 0.20689649999999915
        },
        {
          "name": "A3",
          "midi": 57,
          "time": 107.9999729999996,
          "velocity": 0.7480314960629921,
          "duration": 0.20689649999999915
        },
        {
          "name": "G4",
          "midi": 67,
          "time": 108.2068694999996,
          "velocity": 0.7480314960629921,
          "duration": 0.4137929999999983
        },
        {
          "name": "A2",
          "midi": 45,
          "time": 108.6206624999996,
          "velocity": 0.7480314960629921,
          "duration": 0.20689649999999915
        },
        {
          "name": "B2",
          "midi": 47,
          "time": 108.8275589999996,
          "velocity": 0.7480314960629921,
          "duration": 0.4137929999999983
        },
        {
          "name": "C3",
          "midi": 48,
          "time": 109.2413519999996,
          "velocity": 0.7480314960629921,
          "duration": 0.20689649999999915
        },
        {
          "name": "E3",
          "midi": 52,
          "time": 109.4482484999996,
          "velocity": 0.7480314960629921,
          "duration": 0.20689649999999915
        },
        {
          "name": "G3",
          "midi": 55,
          "time": 109.65514499999959,
          "velocity": 0.7480314960629921,
          "duration": 0.20689649999999915
        },
        {
          "name": "G4",
          "midi": 67,
          "time": 109.86204149999959,
          "velocity": 0.7480314960629921,
          "duration": 0.4137929999999983
        },
        {
          "name": "C4",
          "midi": 60,
          "time": 110.27583449999959,
          "velocity": 0.7480314960629921,
          "duration": 0.20689649999999915
        },
        {
          "name": "G3",
          "midi": 55,
          "time": 110.48273099999959,
          "velocity": 0.7480314960629921,
          "duration": 0.20689649999999915
        },
        {
          "name": "E3",
          "midi": 52,
          "time": 110.68962749999959,
          "velocity": 0.7480314960629921,
          "duration": 0.20689649999999915
        },
        {
          "name": "E2",
          "midi": 40,
          "time": 110.89652399999959,
          "velocity": 0.7480314960629921,
          "duration": 0.4137929999999983
        },
        {
          "name": "B2",
          "midi": 47,
          "time": 111.31031699999959,
          "velocity": 0.7480314960629921,
          "duration": 0.20689649999999915
        },
        {
          "name": "E4",
          "midi": 64,
          "time": 111.51721349999958,
          "velocity": 0.7480314960629921,
          "duration": 0.4137929999999983
        },
        {
          "name": "D4",
          "midi": 62,
          "time": 111.51721349999958,
          "velocity": 0.7480314960629921,
          "duration": 0.4137929999999983
        },
        {
          "name": "G3",
          "midi": 55,
          "time": 111.93100649999958,
          "velocity": 0.7480314960629921,
          "duration": 0.20689649999999915
        },
        {
          "name": "D3",
          "midi": 50,
          "time": 112.13790299999958,
          "velocity": 0.7480314960629921,
          "duration": 0.4137929999999983
        },
        {
          "name": "A2",
          "midi": 45,
          "time": 112.55169599999958,
          "velocity": 0.7480314960629921,
          "duration": 0.20689649999999915
        },
        {
          "name": "D3",
          "midi": 50,
          "time": 112.75859249999958,
          "velocity": 0.7480314960629921,
          "duration": 0.20689649999999915
        },
        {
          "name": "D3",
          "midi": 50,
          "time": 112.96548899999958,
          "velocity": 0.7480314960629921,
          "duration": 0.20689649999999915
        },
        {
          "name": "A2",
          "midi": 45,
          "time": 113.17238549999958,
          "velocity": 0.7480314960629921,
          "duration": 0.20689649999999915
        },
        {
          "name": "D3",
          "midi": 50,
          "time": 113.37928199999958,
          "velocity": 0.7480314960629921,
          "duration": 0.4137929999999983
        },
        {
          "name": "A2",
          "midi": 45,
          "time": 113.79307499999958,
          "velocity": 0.7480314960629921,
          "duration": 0.20689649999999915
        },
        {
          "name": "D3",
          "midi": 50,
          "time": 113.99997149999957,
          "velocity": 0.7480314960629921,
          "duration": 0.20689649999999915
        },
        {
          "name": "D3",
          "midi": 50,
          "time": 114.20686799999957,
          "velocity": 0.7480314960629921,
          "duration": 0.20689649999999915
        },
        {
          "name": "A2",
          "midi": 45,
          "time": 114.41376449999957,
          "velocity": 0.7480314960629921,
          "duration": 0.20689649999999915
        },
        {
          "name": "D3",
          "midi": 50,
          "time": 114.62066099999957,
          "velocity": 0.7480314960629921,
          "duration": 0.4137929999999983
        },
        {
          "name": "A2",
          "midi": 45,
          "time": 115.03445399999957,
          "velocity": 0.7480314960629921,
          "duration": 0.20689649999999915
        },
        {
          "name": "D3",
          "midi": 50,
          "time": 115.24135049999957,
          "velocity": 0.7480314960629921,
          "duration": 0.20689649999999915
        },
        {
          "name": "D3",
          "midi": 50,
          "time": 115.44824699999957,
          "velocity": 0.7480314960629921,
          "duration": 0.20689649999999915
        },
        {
          "name": "D3",
          "midi": 50,
          "time": 115.86203999999957,
          "velocity": 0.7480314960629921,
          "duration": 0.20689649999999915
        },
        {
          "name": "A3",
          "midi": 57,
          "time": 116.06893649999957,
          "velocity": 0.7480314960629921,
          "duration": 0.20689649999999915
        },
        {
          "name": "D4",
          "midi": 62,
          "time": 116.27583299999957,
          "velocity": 0.7480314960629921,
          "duration": 0.20689649999999915
        },
        {
          "name": "E4",
          "midi": 64,
          "time": 116.48272949999956,
          "velocity": 0.7480314960629921,
          "duration": 0.4137929999999983
        },
        {
          "name": "D4",
          "midi": 62,
          "time": 116.89652249999956,
          "velocity": 0.7480314960629921,
          "duration": 0.20689649999999915
        },
        {
          "name": "A3",
          "midi": 57,
          "time": 117.10341899999956,
          "velocity": 0.7480314960629921,
          "duration": 0.20689649999999915
        },
        {
          "name": "F#4",
          "midi": 66,
          "time": 117.31031549999956,
          "velocity": 0.7480314960629921,
          "duration": 0.4137929999999983
        },
        {
          "name": "D4",
          "midi": 62,
          "time": 117.72410849999956,
          "velocity": 0.7480314960629921,
          "duration": 0.20689649999999915
        },
        {
          "name": "A3",
          "midi": 57,
          "time": 117.93100499999956,
          "velocity": 0.7480314960629921,
          "duration": 0.20689649999999915
        },
        {
          "name": "E4",
          "midi": 64,
          "time": 118.13790149999956,
          "velocity": 0.7480314960629921,
          "duration": 0.4137929999999983
        },
        {
          "name": "D4",
          "midi": 62,
          "time": 118.55169449999956,
          "velocity": 0.7480314960629921,
          "duration": 0.20689649999999915
        },
        {
          "name": "A3",
          "midi": 57,
          "time": 118.75859099999956,
          "velocity": 0.7480314960629921,
          "duration": 0.20689649999999915
        },
        {
          "name": "D3",
          "midi": 50,
          "time": 118.96548749999955,
          "velocity": 0.7480314960629921,
          "duration": 0.20689649999999915
        },
        {
          "name": "A2",
          "midi": 45,
          "time": 119.17238399999955,
          "velocity": 0.7480314960629921,
          "duration": 0.20689649999999915
        },
        {
          "name": "E3",
          "midi": 52,
          "time": 119.37928049999955,
          "velocity": 0.7480314960629921,
          "duration": 0.20689649999999915
        },
        {
          "name": "A3",
          "midi": 57,
          "time": 119.58617699999955,
          "velocity": 0.7480314960629921,
          "duration": 0.20689649999999915
        },
        {
          "name": "G4",
          "midi": 67,
          "time": 119.79307349999955,
          "velocity": 0.7480314960629921,
          "duration": 0.4137929999999983
        },
        {
          "name": "C4",
          "midi": 60,
          "time": 120.20686649999955,
          "velocity": 0.7480314960629921,
          "duration": 0.20689649999999915
        },
        {
          "name": "A3",
          "midi": 57,
          "time": 120.41376299999955,
          "velocity": 0.7480314960629921,
          "duration": 0.20689649999999915
        },
        {
          "name": "E4",
          "midi": 64,
          "time": 120.62065949999955,
          "velocity": 0.7480314960629921,
          "duration": 0.4137929999999983
        },
        {
          "name": "C4",
          "midi": 60,
          "time": 121.03445249999955,
          "velocity": 0.7480314960629921,
          "duration": 0.20689649999999915
        },
        {
          "name": "A3",
          "midi": 57,
          "time": 121.24134899999954,
          "velocity": 0.7480314960629921,
          "duration": 0.20689649999999915
        },
        {
          "name": "G4",
          "midi": 67,
          "time": 121.44824549999954,
          "velocity": 0.7480314960629921,
          "duration": 0.4137929999999983
        },
        {
          "name": "A2",
          "midi": 45,
          "time": 121.86203849999954,
          "velocity": 0.7480314960629921,
          "duration": 0.20689649999999915
        },
        {
          "name": "B2",
          "midi": 47,
          "time": 122.06893499999954,
          "velocity": 0.7480314960629921,
          "duration": 0.4137929999999983
        },
        {
          "name": "C3",
          "midi": 48,
          "time": 122.48272799999954,
          "velocity": 0.7480314960629921,
          "duration": 0.20689649999999915
        },
        {
          "name": "E3",
          "midi": 52,
          "time": 122.68962449999954,
          "velocity": 0.7480314960629921,
          "duration": 0.20689649999999915
        },
        {
          "name": "G3",
          "midi": 55,
          "time": 122.89652099999954,
          "velocity": 0.7480314960629921,
          "duration": 0.20689649999999915
        },
        {
          "name": "G4",
          "midi": 67,
          "time": 123.10341749999954,
          "velocity": 0.7480314960629921,
          "duration": 0.4137929999999983
        },
        {
          "name": "C4",
          "midi": 60,
          "time": 123.51721049999954,
          "velocity": 0.7480314960629921,
          "duration": 0.20689649999999915
        },
        {
          "name": "G3",
          "midi": 55,
          "time": 123.72410699999953,
          "velocity": 0.7480314960629921,
          "duration": 0.20689649999999915
        },
        {
          "name": "E3",
          "midi": 52,
          "time": 123.93100349999953,
          "velocity": 0.7480314960629921,
          "duration": 0.20689649999999915
        },
        {
          "name": "E2",
          "midi": 40,
          "time": 124.13789999999953,
          "velocity": 0.7480314960629921,
          "duration": 0.4137929999999983
        },
        {
          "name": "B2",
          "midi": 47,
          "time": 124.55169299999953,
          "velocity": 0.7480314960629921,
          "duration": 0.20689649999999915
        },
        {
          "name": "E4",
          "midi": 64,
          "time": 124.75858949999953,
          "velocity": 0.7480314960629921,
          "duration": 0.4137929999999983
        },
        {
          "name": "D4",
          "midi": 62,
          "time": 124.75858949999953,
          "velocity": 0.7480314960629921,
          "duration": 0.4137929999999983
        },
        {
          "name": "G3",
          "midi": 55,
          "time": 125.17238249999953,
          "velocity": 0.7480314960629921,
          "duration": 0.20689649999999915
        },
        {
          "name": "D3",
          "midi": 50,
          "time": 125.37927899999953,
          "velocity": 0.7480314960629921,
          "duration": 0.4137929999999983
        },
        {
          "name": "A2",
          "midi": 45,
          "time": 125.79307199999953,
          "velocity": 0.7480314960629921,
          "duration": 0.20689649999999915
        },
        {
          "name": "D3",
          "midi": 50,
          "time": 125.99996849999953,
          "velocity": 0.7480314960629921,
          "duration": 0.20689649999999915
        },
        {
          "name": "D3",
          "midi": 50,
          "time": 126.20686499999952,
          "velocity": 0.7480314960629921,
          "duration": 0.20689649999999915
        },
        {
          "name": "A2",
          "midi": 45,
          "time": 126.41376149999952,
          "velocity": 0.7480314960629921,
          "duration": 0.20689649999999915
        },
        {
          "name": "D3",
          "midi": 50,
          "time": 126.62065799999952,
          "velocity": 0.7480314960629921,
          "duration": 0.4137929999999983
        },
        {
          "name": "A2",
          "midi": 45,
          "time": 127.03445099999952,
          "velocity": 0.7480314960629921,
          "duration": 0.20689649999999915
        },
        {
          "name": "D3",
          "midi": 50,
          "time": 127.24134749999952,
          "velocity": 0.7480314960629921,
          "duration": 0.20689649999999915
        },
        {
          "name": "D3",
          "midi": 50,
          "time": 127.44824399999952,
          "velocity": 0.7480314960629921,
          "duration": 0.20689649999999915
        },
        {
          "name": "A2",
          "midi": 45,
          "time": 127.65514049999952,
          "velocity": 0.7480314960629921,
          "duration": 0.20689649999999915
        },
        {
          "name": "D3",
          "midi": 50,
          "time": 127.86203699999952,
          "velocity": 0.7480314960629921,
          "duration": 0.4137930000000125
        },
        {
          "name": "A2",
          "midi": 45,
          "time": 128.27582999999953,
          "velocity": 0.7480314960629921,
          "duration": 0.20689649999999915
        },
        {
          "name": "D3",
          "midi": 50,
          "time": 128.48272649999953,
          "velocity": 0.7480314960629921,
          "duration": 0.20689649999999915
        },
        {
          "name": "D3",
          "midi": 50,
          "time": 128.68962299999953,
          "velocity": 0.7480314960629921,
          "duration": 0.20689649999999915
        },
        {
          "name": "A2",
          "midi": 45,
          "time": 129.10341599999953,
          "velocity": 0.7480314960629921,
          "duration": 0.20689649999999915
        },
        {
          "name": "D3",
          "midi": 50,
          "time": 129.31031249999953,
          "velocity": 0.7480314960629921,
          "duration": 0.20689649999999915
        },
        {
          "name": "D3",
          "midi": 50,
          "time": 129.51720899999953,
          "velocity": 0.7480314960629921,
          "duration": 0.20689649999999915
        },
        {
          "name": "A2",
          "midi": 45,
          "time": 129.72410549999952,
          "velocity": 0.7480314960629921,
          "duration": 0.20689649999999915
        },
        {
          "name": "D3",
          "midi": 50,
          "time": 129.93100199999952,
          "velocity": 0.7480314960629921,
          "duration": 0.4137929999999983
        },
        {
          "name": "A2",
          "midi": 45,
          "time": 130.34479499999952,
          "velocity": 0.7480314960629921,
          "duration": 0.20689649999999915
        },
        {
          "name": "D3",
          "midi": 50,
          "time": 130.55169149999952,
          "velocity": 0.7480314960629921,
          "duration": 0.20689649999999915
        },
        {
          "name": "D3",
          "midi": 50,
          "time": 130.75858799999952,
          "velocity": 0.7480314960629921,
          "duration": 0.20689649999999915
        },
        {
          "name": "A2",
          "midi": 45,
          "time": 130.96548449999952,
          "velocity": 0.7480314960629921,
          "duration": 0.20689649999999915
        },
        {
          "name": "D3",
          "midi": 50,
          "time": 131.17238099999952,
          "velocity": 0.7480314960629921,
          "duration": 0.4137929999999983
        },
        {
          "name": "A2",
          "midi": 45,
          "time": 131.58617399999952,
          "velocity": 0.7480314960629921,
          "duration": 0.20689649999999915
        },
        {
          "name": "D3",
          "midi": 50,
          "time": 131.79307049999952,
          "velocity": 0.7480314960629921,
          "duration": 0.20689649999999915
        },
        {
          "name": "D3",
          "midi": 50,
          "time": 131.99996699999951,
          "velocity": 0.7480314960629921,
          "duration": 0.20689649999999915
        },
        {
          "name": "G4",
          "midi": 67,
          "time": 132.4137599999995,
          "velocity": 0.7480314960629921,
          "duration": 0.20689649999999915
        },
        {
          "name": "G3",
          "midi": 55,
          "time": 132.4137599999995,
          "velocity": 0.7480314960629921,
          "duration": 0.20689649999999915
        },
        {
          "name": "G4",
          "midi": 67,
          "time": 132.6206564999995,
          "velocity": 0.7480314960629921,
          "duration": 0.20689649999999915
        },
        {
          "name": "G3",
          "midi": 55,
          "time": 132.6206564999995,
          "velocity": 0.7480314960629921,
          "duration": 0.20689649999999915
        },
        {
          "name": "G4",
          "midi": 67,
          "time": 132.8275529999995,
          "velocity": 0.7480314960629921,
          "duration": 0.20689649999999915
        },
        {
          "name": "G3",
          "midi": 55,
          "time": 132.8275529999995,
          "velocity": 0.7480314960629921,
          "duration": 0.20689649999999915
        },
        {
          "name": "G4",
          "midi": 67,
          "time": 133.0344494999995,
          "velocity": 0.7480314960629921,
          "duration": 0.20689649999999915
        },
        {
          "name": "G3",
          "midi": 55,
          "time": 133.0344494999995,
          "velocity": 0.7480314960629921,
          "duration": 0.20689649999999915
        },
        {
          "name": "G4",
          "midi": 67,
          "time": 133.2413459999995,
          "velocity": 0.7480314960629921,
          "duration": 0.20689649999999915
        },
        {
          "name": "G3",
          "midi": 55,
          "time": 133.2413459999995,
          "velocity": 0.7480314960629921,
          "duration": 0.20689649999999915
        },
        {
          "name": "G4",
          "midi": 67,
          "time": 133.4482424999995,
          "velocity": 0.7480314960629921,
          "duration": 0.20689649999999915
        },
        {
          "name": "G3",
          "midi": 55,
          "time": 133.4482424999995,
          "velocity": 0.7480314960629921,
          "duration": 0.20689649999999915
        },
        {
          "name": "G4",
          "midi": 67,
          "time": 133.6551389999995,
          "velocity": 0.7480314960629921,
          "duration": 0.20689649999999915
        },
        {
          "name": "G3",
          "midi": 55,
          "time": 133.6551389999995,
          "velocity": 0.7480314960629921,
          "duration": 0.20689649999999915
        },
        {
          "name": "G4",
          "midi": 67,
          "time": 133.8620354999995,
          "velocity": 0.7480314960629921,
          "duration": 0.20689649999999915
        },
        {
          "name": "G3",
          "midi": 55,
          "time": 133.8620354999995,
          "velocity": 0.7480314960629921,
          "duration": 0.20689649999999915
        },
        {
          "name": "G4",
          "midi": 67,
          "time": 134.0689319999995,
          "velocity": 0.7480314960629921,
          "duration": 0.20689649999999915
        },
        {
          "name": "G3",
          "midi": 55,
          "time": 134.0689319999995,
          "velocity": 0.7480314960629921,
          "duration": 0.20689649999999915
        },
        {
          "name": "G4",
          "midi": 67,
          "time": 134.2758284999995,
          "velocity": 0.7480314960629921,
          "duration": 0.20689649999999915
        },
        {
          "name": "G3",
          "midi": 55,
          "time": 134.2758284999995,
          "velocity": 0.7480314960629921,
          "duration": 0.20689649999999915
        },
        {
          "name": "G4",
          "midi": 67,
          "time": 134.4827249999995,
          "velocity": 0.7480314960629921,
          "duration": 0.20689649999999915
        },
        {
          "name": "G3",
          "midi": 55,
          "time": 134.4827249999995,
          "velocity": 0.7480314960629921,
          "duration": 0.20689649999999915
        },
        {
          "name": "G4",
          "midi": 67,
          "time": 134.6896214999995,
          "velocity": 0.7480314960629921,
          "duration": 0.20689649999999915
        },
        {
          "name": "G3",
          "midi": 55,
          "time": 134.6896214999995,
          "velocity": 0.7480314960629921,
          "duration": 0.20689649999999915
        },
        {
          "name": "G4",
          "midi": 67,
          "time": 134.8965179999995,
          "velocity": 0.7480314960629921,
          "duration": 0.20689649999999915
        },
        {
          "name": "G3",
          "midi": 55,
          "time": 134.8965179999995,
          "velocity": 0.7480314960629921,
          "duration": 0.20689649999999915
        },
        {
          "name": "G4",
          "midi": 67,
          "time": 135.1034144999995,
          "velocity": 0.7480314960629921,
          "duration": 0.20689649999999915
        },
        {
          "name": "G3",
          "midi": 55,
          "time": 135.1034144999995,
          "velocity": 0.7480314960629921,
          "duration": 0.20689649999999915
        },
        {
          "name": "G4",
          "midi": 67,
          "time": 135.3103109999995,
          "velocity": 0.7480314960629921,
          "duration": 0.20689649999999915
        },
        {
          "name": "G3",
          "midi": 55,
          "time": 135.3103109999995,
          "velocity": 0.7480314960629921,
          "duration": 0.20689649999999915
        },
        {
          "name": "G4",
          "midi": 67,
          "time": 135.5172074999995,
          "velocity": 0.7480314960629921,
          "duration": 0.20689649999999915
        },
        {
          "name": "G3",
          "midi": 55,
          "time": 135.5172074999995,
          "velocity": 0.7480314960629921,
          "duration": 0.20689649999999915
        },
        {
          "name": "F#4",
          "midi": 66,
          "time": 135.7241039999995,
          "velocity": 0.7480314960629921,
          "duration": 0.6206894999999975
        },
        {
          "name": "F#3",
          "midi": 54,
          "time": 135.7241039999995,
          "velocity": 0.7480314960629921,
          "duration": 0.6206894999999975
        },
        {
          "name": "D4",
          "midi": 62,
          "time": 136.3447934999995,
          "velocity": 0.7480314960629921,
          "duration": 0.6206894999999975
        },
        {
          "name": "D3",
          "midi": 50,
          "time": 136.3447934999995,
          "velocity": 0.7480314960629921,
          "duration": 0.6206894999999975
        },
        {
          "name": "F#4",
          "midi": 66,
          "time": 136.9654829999995,
          "velocity": 0.7480314960629921,
          "duration": 0.4137929999999983
        },
        {
          "name": "F#3",
          "midi": 54,
          "time": 136.9654829999995,
          "velocity": 0.7480314960629921,
          "duration": 0.4137929999999983
        },
        {
          "name": "G4",
          "midi": 67,
          "time": 137.3792759999995,
          "velocity": 0.7480314960629921,
          "duration": 0.20689649999999915
        },
        {
          "name": "G3",
          "midi": 55,
          "time": 137.3792759999995,
          "velocity": 0.7480314960629921,
          "duration": 0.20689649999999915
        },
        {
          "name": "G4",
          "midi": 67,
          "time": 137.5861724999995,
          "velocity": 0.7480314960629921,
          "duration": 0.20689649999999915
        },
        {
          "name": "G3",
          "midi": 55,
          "time": 137.5861724999995,
          "velocity": 0.7480314960629921,
          "duration": 0.20689649999999915
        },
        {
          "name": "G4",
          "midi": 67,
          "time": 137.7930689999995,
          "velocity": 0.7480314960629921,
          "duration": 0.20689649999999915
        },
        {
          "name": "G3",
          "midi": 55,
          "time": 137.7930689999995,
          "velocity": 0.7480314960629921,
          "duration": 0.20689649999999915
        },
        {
          "name": "G4",
          "midi": 67,
          "time": 137.9999654999995,
          "velocity": 0.7480314960629921,
          "duration": 0.20689649999999915
        },
        {
          "name": "G3",
          "midi": 55,
          "time": 137.9999654999995,
          "velocity": 0.7480314960629921,
          "duration": 0.20689649999999915
        },
        {
          "name": "G4",
          "midi": 67,
          "time": 138.2068619999995,
          "velocity": 0.7480314960629921,
          "duration": 0.20689649999999915
        },
        {
          "name": "G3",
          "midi": 55,
          "time": 138.2068619999995,
          "velocity": 0.7480314960629921,
          "duration": 0.20689649999999915
        },
        {
          "name": "G4",
          "midi": 67,
          "time": 138.4137584999995,
          "velocity": 0.7480314960629921,
          "duration": 0.20689649999999915
        },
        {
          "name": "G3",
          "midi": 55,
          "time": 138.4137584999995,
          "velocity": 0.7480314960629921,
          "duration": 0.20689649999999915
        },
        {
          "name": "G4",
          "midi": 67,
          "time": 138.6206549999995,
          "velocity": 0.7480314960629921,
          "duration": 0.20689649999999915
        },
        {
          "name": "G3",
          "midi": 55,
          "time": 138.6206549999995,
          "velocity": 0.7480314960629921,
          "duration": 0.20689649999999915
        },
        {
          "name": "G4",
          "midi": 67,
          "time": 138.8275514999995,
          "velocity": 0.7480314960629921,
          "duration": 0.20689649999999915
        },
        {
          "name": "G3",
          "midi": 55,
          "time": 138.8275514999995,
          "velocity": 0.7480314960629921,
          "duration": 0.20689649999999915
        },
        {
          "name": "G4",
          "midi": 67,
          "time": 139.0344479999995,
          "velocity": 0.7480314960629921,
          "duration": 0.20689649999999915
        },
        {
          "name": "G3",
          "midi": 55,
          "time": 139.0344479999995,
          "velocity": 0.7480314960629921,
          "duration": 0.20689649999999915
        },
        {
          "name": "G4",
          "midi": 67,
          "time": 139.24134449999949,
          "velocity": 0.7480314960629921,
          "duration": 0.20689649999999915
        },
        {
          "name": "G3",
          "midi": 55,
          "time": 139.24134449999949,
          "velocity": 0.7480314960629921,
          "duration": 0.20689649999999915
        },
        {
          "name": "G4",
          "midi": 67,
          "time": 139.44824099999948,
          "velocity": 0.7480314960629921,
          "duration": 0.20689649999999915
        },
        {
          "name": "G3",
          "midi": 55,
          "time": 139.44824099999948,
          "velocity": 0.7480314960629921,
          "duration": 0.20689649999999915
        },
        {
          "name": "G4",
          "midi": 67,
          "time": 139.65513749999948,
          "velocity": 0.7480314960629921,
          "duration": 0.20689649999999915
        },
        {
          "name": "G3",
          "midi": 55,
          "time": 139.65513749999948,
          "velocity": 0.7480314960629921,
          "duration": 0.20689649999999915
        },
        {
          "name": "G4",
          "midi": 67,
          "time": 139.86203399999948,
          "velocity": 0.7480314960629921,
          "duration": 0.20689649999999915
        },
        {
          "name": "G3",
          "midi": 55,
          "time": 139.86203399999948,
          "velocity": 0.7480314960629921,
          "duration": 0.20689649999999915
        },
        {
          "name": "G4",
          "midi": 67,
          "time": 140.06893049999948,
          "velocity": 0.7480314960629921,
          "duration": 0.20689649999999915
        },
        {
          "name": "G3",
          "midi": 55,
          "time": 140.06893049999948,
          "velocity": 0.7480314960629921,
          "duration": 0.20689649999999915
        },
        {
          "name": "G4",
          "midi": 67,
          "time": 140.27582699999948,
          "velocity": 0.7480314960629921,
          "duration": 0.20689649999999915
        },
        {
          "name": "G3",
          "midi": 55,
          "time": 140.27582699999948,
          "velocity": 0.7480314960629921,
          "duration": 0.20689649999999915
        },
        {
          "name": "G4",
          "midi": 67,
          "time": 140.48272349999948,
          "velocity": 0.7480314960629921,
          "duration": 0.20689649999999915
        },
        {
          "name": "G3",
          "midi": 55,
          "time": 140.48272349999948,
          "velocity": 0.7480314960629921,
          "duration": 0.20689649999999915
        },
        {
          "name": "F#4",
          "midi": 66,
          "time": 140.68961999999948,
          "velocity": 0.7480314960629921,
          "duration": 0.6206894999999975
        },
        {
          "name": "F#3",
          "midi": 54,
          "time": 140.68961999999948,
          "velocity": 0.7480314960629921,
          "duration": 0.6206894999999975
        },
        {
          "name": "D4",
          "midi": 62,
          "time": 141.31030949999948,
          "velocity": 0.7480314960629921,
          "duration": 0.6206894999999975
        },
        {
          "name": "D3",
          "midi": 50,
          "time": 141.31030949999948,
          "velocity": 0.7480314960629921,
          "duration": 0.6206894999999975
        },
        {
          "name": "F#4",
          "midi": 66,
          "time": 141.93099899999947,
          "velocity": 0.7480314960629921,
          "duration": 0.4137929999999983
        },
        {
          "name": "F#3",
          "midi": 54,
          "time": 141.93099899999947,
          "velocity": 0.7480314960629921,
          "duration": 0.4137929999999983
        },
        {
          "name": "G4",
          "midi": 67,
          "time": 142.34479199999947,
          "velocity": 0.7480314960629921,
          "duration": 0.20689649999999915
        },
        {
          "name": "G3",
          "midi": 55,
          "time": 142.34479199999947,
          "velocity": 0.7480314960629921,
          "duration": 0.20689649999999915
        },
        {
          "name": "G4",
          "midi": 67,
          "time": 142.55168849999947,
          "velocity": 0.7480314960629921,
          "duration": 0.20689649999999915
        },
        {
          "name": "G3",
          "midi": 55,
          "time": 142.55168849999947,
          "velocity": 0.7480314960629921,
          "duration": 0.20689649999999915
        },
        {
          "name": "G4",
          "midi": 67,
          "time": 142.75858499999947,
          "velocity": 0.7480314960629921,
          "duration": 0.20689649999999915
        },
        {
          "name": "G3",
          "midi": 55,
          "time": 142.75858499999947,
          "velocity": 0.7480314960629921,
          "duration": 0.20689649999999915
        },
        {
          "name": "G4",
          "midi": 67,
          "time": 142.96548149999947,
          "velocity": 0.7480314960629921,
          "duration": 0.20689649999999915
        },
        {
          "name": "G3",
          "midi": 55,
          "time": 142.96548149999947,
          "velocity": 0.7480314960629921,
          "duration": 0.20689649999999915
        },
        {
          "name": "G4",
          "midi": 67,
          "time": 143.17237799999947,
          "velocity": 0.7480314960629921,
          "duration": 0.20689649999999915
        },
        {
          "name": "G3",
          "midi": 55,
          "time": 143.17237799999947,
          "velocity": 0.7480314960629921,
          "duration": 0.20689649999999915
        },
        {
          "name": "G4",
          "midi": 67,
          "time": 143.37927449999947,
          "velocity": 0.7480314960629921,
          "duration": 0.20689649999999915
        },
        {
          "name": "G3",
          "midi": 55,
          "time": 143.37927449999947,
          "velocity": 0.7480314960629921,
          "duration": 0.20689649999999915
        },
        {
          "name": "G4",
          "midi": 67,
          "time": 143.58617099999947,
          "velocity": 0.7480314960629921,
          "duration": 0.20689649999999915
        },
        {
          "name": "G3",
          "midi": 55,
          "time": 143.58617099999947,
          "velocity": 0.7480314960629921,
          "duration": 0.20689649999999915
        },
        {
          "name": "G4",
          "midi": 67,
          "time": 143.79306749999947,
          "velocity": 0.7480314960629921,
          "duration": 0.20689649999999915
        },
        {
          "name": "G3",
          "midi": 55,
          "time": 143.79306749999947,
          "velocity": 0.7480314960629921,
          "duration": 0.20689649999999915
        },
        {
          "name": "G4",
          "midi": 67,
          "time": 143.99996399999947,
          "velocity": 0.7480314960629921,
          "duration": 0.20689649999999915
        },
        {
          "name": "G3",
          "midi": 55,
          "time": 143.99996399999947,
          "velocity": 0.7480314960629921,
          "duration": 0.20689649999999915
        },
        {
          "name": "G4",
          "midi": 67,
          "time": 144.20686049999946,
          "velocity": 0.7480314960629921,
          "duration": 0.20689649999999915
        },
        {
          "name": "G3",
          "midi": 55,
          "time": 144.20686049999946,
          "velocity": 0.7480314960629921,
          "duration": 0.20689649999999915
        },
        {
          "name": "G4",
          "midi": 67,
          "time": 144.41375699999946,
          "velocity": 0.7480314960629921,
          "duration": 0.20689649999999915
        },
        {
          "name": "G3",
          "midi": 55,
          "time": 144.41375699999946,
          "velocity": 0.7480314960629921,
          "duration": 0.20689649999999915
        },
        {
          "name": "G4",
          "midi": 67,
          "time": 144.62065349999946,
          "velocity": 0.7480314960629921,
          "duration": 0.20689649999999915
        },
        {
          "name": "G3",
          "midi": 55,
          "time": 144.62065349999946,
          "velocity": 0.7480314960629921,
          "duration": 0.20689649999999915
        },
        {
          "name": "G4",
          "midi": 67,
          "time": 144.82754999999946,
          "velocity": 0.7480314960629921,
          "duration": 0.20689649999999915
        },
        {
          "name": "G3",
          "midi": 55,
          "time": 144.82754999999946,
          "velocity": 0.7480314960629921,
          "duration": 0.20689649999999915
        },
        {
          "name": "G4",
          "midi": 67,
          "time": 145.03444649999946,
          "velocity": 0.7480314960629921,
          "duration": 0.20689649999999915
        },
        {
          "name": "G3",
          "midi": 55,
          "time": 145.03444649999946,
          "velocity": 0.7480314960629921,
          "duration": 0.20689649999999915
        },
        {
          "name": "G4",
          "midi": 67,
          "time": 145.24134299999946,
          "velocity": 0.7480314960629921,
          "duration": 0.20689649999999915
        },
        {
          "name": "G3",
          "midi": 55,
          "time": 145.24134299999946,
          "velocity": 0.7480314960629921,
          "duration": 0.20689649999999915
        },
        {
          "name": "G4",
          "midi": 67,
          "time": 145.44823949999946,
          "velocity": 0.7480314960629921,
          "duration": 0.20689649999999915
        },
        {
          "name": "G3",
          "midi": 55,
          "time": 145.44823949999946,
          "velocity": 0.7480314960629921,
          "duration": 0.20689649999999915
        },
        {
          "name": "F#4",
          "midi": 66,
          "time": 145.65513599999946,
          "velocity": 0.7480314960629921,
          "duration": 0.6206894999999975
        },
        {
          "name": "F#3",
          "midi": 54,
          "time": 145.65513599999946,
          "velocity": 0.7480314960629921,
          "duration": 0.6206894999999975
        },
        {
          "name": "D4",
          "midi": 62,
          "time": 146.27582549999946,
          "velocity": 0.7480314960629921,
          "duration": 0.6206894999999975
        },
        {
          "name": "D3",
          "midi": 50,
          "time": 146.27582549999946,
          "velocity": 0.7480314960629921,
          "duration": 0.6206894999999975
        },
        {
          "name": "F#4",
          "midi": 66,
          "time": 146.89651499999945,
          "velocity": 0.7480314960629921,
          "duration": 0.4137929999999983
        },
        {
          "name": "F#3",
          "midi": 54,
          "time": 146.89651499999945,
          "velocity": 0.7480314960629921,
          "duration": 0.4137929999999983
        },
        {
          "name": "G4",
          "midi": 67,
          "time": 147.31030799999945,
          "velocity": 0.7480314960629921,
          "duration": 0.20689649999999915
        },
        {
          "name": "G3",
          "midi": 55,
          "time": 147.31030799999945,
          "velocity": 0.7480314960629921,
          "duration": 0.20689649999999915
        },
        {
          "name": "G4",
          "midi": 67,
          "time": 147.51720449999945,
          "velocity": 0.7480314960629921,
          "duration": 0.20689649999999915
        },
        {
          "name": "G3",
          "midi": 55,
          "time": 147.51720449999945,
          "velocity": 0.7480314960629921,
          "duration": 0.20689649999999915
        },
        {
          "name": "G4",
          "midi": 67,
          "time": 147.72410099999945,
          "velocity": 0.7480314960629921,
          "duration": 0.20689649999999915
        },
        {
          "name": "G3",
          "midi": 55,
          "time": 147.72410099999945,
          "velocity": 0.7480314960629921,
          "duration": 0.20689649999999915
        },
        {
          "name": "G4",
          "midi": 67,
          "time": 147.93099749999945,
          "velocity": 0.7480314960629921,
          "duration": 0.20689649999999915
        },
        {
          "name": "G3",
          "midi": 55,
          "time": 147.93099749999945,
          "velocity": 0.7480314960629921,
          "duration": 0.20689649999999915
        },
        {
          "name": "G4",
          "midi": 67,
          "time": 148.13789399999945,
          "velocity": 0.7480314960629921,
          "duration": 0.20689649999999915
        },
        {
          "name": "G3",
          "midi": 55,
          "time": 148.13789399999945,
          "velocity": 0.7480314960629921,
          "duration": 0.20689649999999915
        },
        {
          "name": "G4",
          "midi": 67,
          "time": 148.34479049999945,
          "velocity": 0.7480314960629921,
          "duration": 0.20689649999999915
        },
        {
          "name": "G3",
          "midi": 55,
          "time": 148.34479049999945,
          "velocity": 0.7480314960629921,
          "duration": 0.20689649999999915
        },
        {
          "name": "G4",
          "midi": 67,
          "time": 148.55168699999945,
          "velocity": 0.7480314960629921,
          "duration": 0.20689649999999915
        },
        {
          "name": "G3",
          "midi": 55,
          "time": 148.55168699999945,
          "velocity": 0.7480314960629921,
          "duration": 0.20689649999999915
        },
        {
          "name": "G4",
          "midi": 67,
          "time": 148.75858349999945,
          "velocity": 0.7480314960629921,
          "duration": 0.20689649999999915
        },
        {
          "name": "G3",
          "midi": 55,
          "time": 148.75858349999945,
          "velocity": 0.7480314960629921,
          "duration": 0.20689649999999915
        },
        {
          "name": "G4",
          "midi": 67,
          "time": 148.96547999999945,
          "velocity": 0.7480314960629921,
          "duration": 0.20689649999999915
        },
        {
          "name": "G3",
          "midi": 55,
          "time": 148.96547999999945,
          "velocity": 0.7480314960629921,
          "duration": 0.20689649999999915
        },
        {
          "name": "G4",
          "midi": 67,
          "time": 149.17237649999944,
          "velocity": 0.7480314960629921,
          "duration": 0.20689649999999915
        },
        {
          "name": "G3",
          "midi": 55,
          "time": 149.17237649999944,
          "velocity": 0.7480314960629921,
          "duration": 0.20689649999999915
        },
        {
          "name": "G4",
          "midi": 67,
          "time": 149.37927299999944,
          "velocity": 0.7480314960629921,
          "duration": 0.20689649999999915
        },
        {
          "name": "G3",
          "midi": 55,
          "time": 149.37927299999944,
          "velocity": 0.7480314960629921,
          "duration": 0.20689649999999915
        },
        {
          "name": "G4",
          "midi": 67,
          "time": 149.58616949999944,
          "velocity": 0.7480314960629921,
          "duration": 0.20689649999999915
        },
        {
          "name": "G3",
          "midi": 55,
          "time": 149.58616949999944,
          "velocity": 0.7480314960629921,
          "duration": 0.20689649999999915
        },
        {
          "name": "G4",
          "midi": 67,
          "time": 149.79306599999944,
          "velocity": 0.7480314960629921,
          "duration": 0.20689649999999915
        },
        {
          "name": "G3",
          "midi": 55,
          "time": 149.79306599999944,
          "velocity": 0.7480314960629921,
          "duration": 0.20689649999999915
        },
        {
          "name": "G4",
          "midi": 67,
          "time": 149.99996249999944,
          "velocity": 0.7480314960629921,
          "duration": 0.20689649999999915
        },
        {
          "name": "G3",
          "midi": 55,
          "time": 149.99996249999944,
          "velocity": 0.7480314960629921,
          "duration": 0.20689649999999915
        },
        {
          "name": "G4",
          "midi": 67,
          "time": 150.20685899999944,
          "velocity": 0.7480314960629921,
          "duration": 0.20689649999999915
        },
        {
          "name": "G3",
          "midi": 55,
          "time": 150.20685899999944,
          "velocity": 0.7480314960629921,
          "duration": 0.20689649999999915
        },
        {
          "name": "G4",
          "midi": 67,
          "time": 150.41375549999944,
          "velocity": 0.7480314960629921,
          "duration": 0.20689649999999915
        },
        {
          "name": "G3",
          "midi": 55,
          "time": 150.41375549999944,
          "velocity": 0.7480314960629921,
          "duration": 0.20689649999999915
        },
        {
          "name": "F#4",
          "midi": 66,
          "time": 150.62065199999944,
          "velocity": 0.7480314960629921,
          "duration": 0.6206894999999975
        },
        {
          "name": "F#3",
          "midi": 54,
          "time": 150.62065199999944,
          "velocity": 0.7480314960629921,
          "duration": 0.6206894999999975
        },
        {
          "name": "D4",
          "midi": 62,
          "time": 151.24134149999944,
          "velocity": 0.7480314960629921,
          "duration": 0.6206894999999975
        },
        {
          "name": "D3",
          "midi": 50,
          "time": 151.24134149999944,
          "velocity": 0.7480314960629921,
          "duration": 0.6206894999999975
        },
        {
          "name": "F#4",
          "midi": 66,
          "time": 151.86203099999943,
          "velocity": 0.7480314960629921,
          "duration": 0.4137929999999983
        },
        {
          "name": "F#3",
          "midi": 54,
          "time": 151.86203099999943,
          "velocity": 0.7480314960629921,
          "duration": 0.4137929999999983
        },
        {
          "name": "D3",
          "midi": 50,
          "time": 152.27582399999943,
          "velocity": 0.7480314960629921,
          "duration": 0.20689649999999915
        },
        {
          "name": "D4",
          "midi": 62,
          "time": 152.48272049999943,
          "velocity": 0.7480314960629921,
          "duration": 0.20689649999999915
        },
        {
          "name": "C4",
          "midi": 60,
          "time": 152.68961699999943,
          "velocity": 0.7480314960629921,
          "duration": 0.20689649999999915
        },
        {
          "name": "D3",
          "midi": 50,
          "time": 152.89651349999943,
          "velocity": 0.7480314960629921,
          "duration": 0.20689649999999915
        },
        {
          "name": "G4",
          "midi": 67,
          "time": 153.10340999999943,
          "velocity": 0.7480314960629921,
          "duration": 0.20689649999999915
        },
        {
          "name": "F#4",
          "midi": 66,
          "time": 153.31030649999943,
          "velocity": 0.7480314960629921,
          "duration": 0.20689649999999915
        },
        {
          "name": "D3",
          "midi": 50,
          "time": 153.51720299999943,
          "velocity": 0.7480314960629921,
          "duration": 0.20689649999999915
        },
        {
          "name": "D4",
          "midi": 62,
          "time": 153.72409949999943,
          "velocity": 0.7480314960629921,
          "duration": 0.20689649999999915
        },
        {
          "name": "C4",
          "midi": 60,
          "time": 153.93099599999942,
          "velocity": 0.7480314960629921,
          "duration": 0.20689649999999915
        },
        {
          "name": "D3",
          "midi": 50,
          "time": 154.13789249999942,
          "velocity": 0.7480314960629921,
          "duration": 0.20689649999999915
        },
        {
          "name": "G4",
          "midi": 67,
          "time": 154.34478899999942,
          "velocity": 0.7480314960629921,
          "duration": 0.20689649999999915
        },
        {
          "name": "F#4",
          "midi": 66,
          "time": 154.55168549999942,
          "velocity": 0.7480314960629921,
          "duration": 0.20689649999999915
        },
        {
          "name": "A3",
          "midi": 57,
          "time": 154.75858199999942,
          "velocity": 0.7480314960629921,
          "duration": 0.20689649999999915
        },
        {
          "name": "G3",
          "midi": 55,
          "time": 154.96547849999942,
          "velocity": 0.7480314960629921,
          "duration": 0.20689649999999915
        },
        {
          "name": "C3",
          "midi": 48,
          "time": 155.17237499999942,
          "velocity": 0.7480314960629921,
          "duration": 0.20689649999999915
        },
        {
          "name": "D4",
          "midi": 62,
          "time": 155.37927149999942,
          "velocity": 0.7480314960629921,
          "duration": 0.20689649999999915
        },
        {
          "name": "C4",
          "midi": 60,
          "time": 155.58616799999942,
          "velocity": 0.7480314960629921,
          "duration": 0.20689649999999915
        },
        {
          "name": "C3",
          "midi": 48,
          "time": 155.79306449999942,
          "velocity": 0.7480314960629921,
          "duration": 0.20689649999999915
        },
        {
          "name": "G4",
          "midi": 67,
          "time": 155.99996099999942,
          "velocity": 0.7480314960629921,
          "duration": 0.20689649999999915
        },
        {
          "name": "F#4",
          "midi": 66,
          "time": 156.20685749999942,
          "velocity": 0.7480314960629921,
          "duration": 0.20689649999999915
        },
        {
          "name": "C3",
          "midi": 48,
          "time": 156.41375399999941,
          "velocity": 0.7480314960629921,
          "duration": 0.20689649999999915
        },
        {
          "name": "D4",
          "midi": 62,
          "time": 156.6206504999994,
          "velocity": 0.7480314960629921,
          "duration": 0.20689649999999915
        },
        {
          "name": "C4",
          "midi": 60,
          "time": 156.8275469999994,
          "velocity": 0.7480314960629921,
          "duration": 0.20689649999999915
        },
        {
          "name": "C3",
          "midi": 48,
          "time": 157.0344434999994,
          "velocity": 0.7480314960629921,
          "duration": 0.20689649999999915
        },
        {
          "name": "G4",
          "midi": 67,
          "time": 157.2413399999994,
          "velocity": 0.7480314960629921,
          "duration": 0.20689649999999915
        },
        {
          "name": "F#4",
          "midi": 66,
          "time": 157.4482364999994,
          "velocity": 0.7480314960629921,
          "duration": 0.20689649999999915
        },
        {
          "name": "A3",
          "midi": 57,
          "time": 157.6551329999994,
          "velocity": 0.7480314960629921,
          "duration": 0.20689649999999915
        },
        {
          "name": "G3",
          "midi": 55,
          "time": 157.8620294999994,
          "velocity": 0.7480314960629921,
          "duration": 0.20689649999999915
        },
        {
          "name": "B2",
          "midi": 47,
          "time": 158.0689259999994,
          "velocity": 0.7480314960629921,
          "duration": 0.20689649999999915
        },
        {
          "name": "D4",
          "midi": 62,
          "time": 158.2758224999994,
          "velocity": 0.7480314960629921,
          "duration": 0.20689649999999915
        },
        {
          "name": "C4",
          "midi": 60,
          "time": 158.4827189999994,
          "velocity": 0.7480314960629921,
          "duration": 0.20689649999999915
        },
        {
          "name": "B2",
          "midi": 47,
          "time": 158.6896154999994,
          "velocity": 0.7480314960629921,
          "duration": 0.20689649999999915
        },
        {
          "name": "G4",
          "midi": 67,
          "time": 158.8965119999994,
          "velocity": 0.7480314960629921,
          "duration": 0.20689649999999915
        },
        {
          "name": "F#4",
          "midi": 66,
          "time": 159.1034084999994,
          "velocity": 0.7480314960629921,
          "duration": 0.20689649999999915
        },
        {
          "name": "B2",
          "midi": 47,
          "time": 159.3103049999994,
          "velocity": 0.7480314960629921,
          "duration": 0.20689649999999915
        },
        {
          "name": "D4",
          "midi": 62,
          "time": 159.5172014999994,
          "velocity": 0.7480314960629921,
          "duration": 0.20689649999999915
        },
        {
          "name": "C4",
          "midi": 60,
          "time": 159.7240979999994,
          "velocity": 0.7480314960629921,
          "duration": 0.20689649999999915
        },
        {
          "name": "B2",
          "midi": 47,
          "time": 159.9309944999994,
          "velocity": 0.7480314960629921,
          "duration": 0.20689649999999915
        },
        {
          "name": "G4",
          "midi": 67,
          "time": 160.1378909999994,
          "velocity": 0.7480314960629921,
          "duration": 0.20689649999999915
        },
        {
          "name": "F#4",
          "midi": 66,
          "time": 160.3447874999994,
          "velocity": 0.7480314960629921,
          "duration": 0.20689649999999915
        },
        {
          "name": "A3",
          "midi": 57,
          "time": 160.5516839999994,
          "velocity": 0.7480314960629921,
          "duration": 0.20689649999999915
        },
        {
          "name": "G3",
          "midi": 55,
          "time": 160.7585804999994,
          "velocity": 0.7480314960629921,
          "duration": 0.20689649999999915
        },
        {
          "name": "D3",
          "midi": 50,
          "time": 160.9654769999994,
          "velocity": 0.7480314960629921,
          "duration": 0.20689649999999915
        },
        {
          "name": "D4",
          "midi": 62,
          "time": 161.1723734999994,
          "velocity": 0.7480314960629921,
          "duration": 0.20689649999999915
        },
        {
          "name": "C4",
          "midi": 60,
          "time": 161.3792699999994,
          "velocity": 0.7480314960629921,
          "duration": 0.20689649999999915
        },
        {
          "name": "D3",
          "midi": 50,
          "time": 161.5861664999994,
          "velocity": 0.7480314960629921,
          "duration": 0.20689649999999915
        },
        {
          "name": "G4",
          "midi": 67,
          "time": 161.7930629999994,
          "velocity": 0.7480314960629921,
          "duration": 0.20689649999999915
        },
        {
          "name": "F#4",
          "midi": 66,
          "time": 161.9999594999994,
          "velocity": 0.7480314960629921,
          "duration": 0.20689649999999915
        },
        {
          "name": "D3",
          "midi": 50,
          "time": 162.2068559999994,
          "velocity": 0.7480314960629921,
          "duration": 0.20689649999999915
        },
        {
          "name": "D4",
          "midi": 62,
          "time": 162.4137524999994,
          "velocity": 0.7480314960629921,
          "duration": 0.20689649999999915
        },
        {
          "name": "C4",
          "midi": 60,
          "time": 162.6206489999994,
          "velocity": 0.7480314960629921,
          "duration": 0.20689649999999915
        },
        {
          "name": "D3",
          "midi": 50,
          "time": 162.8275454999994,
          "velocity": 0.7480314960629921,
          "duration": 0.20689649999999915
        },
        {
          "name": "G4",
          "midi": 67,
          "time": 163.0344419999994,
          "velocity": 0.7480314960629921,
          "duration": 0.20689649999999915
        },
        {
          "name": "F#4",
          "midi": 66,
          "time": 163.2413384999994,
          "velocity": 0.7480314960629921,
          "duration": 0.20689649999999915
        },
        {
          "name": "A3",
          "midi": 57,
          "time": 163.44823499999939,
          "velocity": 0.7480314960629921,
          "duration": 0.20689649999999915
        },
        {
          "name": "G3",
          "midi": 55,
          "time": 163.65513149999938,
          "velocity": 0.7480314960629921,
          "duration": 0.20689649999999915
        },
        {
          "name": "C3",
          "midi": 48,
          "time": 163.86202799999938,
          "velocity": 0.7480314960629921,
          "duration": 0.20689649999999915
        },
        {
          "name": "D4",
          "midi": 62,
          "time": 164.06892449999938,
          "velocity": 0.7480314960629921,
          "duration": 0.20689649999999915
        },
        {
          "name": "C4",
          "midi": 60,
          "time": 164.27582099999938,
          "velocity": 0.7480314960629921,
          "duration": 0.20689649999999915
        },
        {
          "name": "C3",
          "midi": 48,
          "time": 164.48271749999938,
          "velocity": 0.7480314960629921,
          "duration": 0.20689649999999915
        },
        {
          "name": "G4",
          "midi": 67,
          "time": 164.68961399999938,
          "velocity": 0.7480314960629921,
          "duration": 0.20689649999999915
        },
        {
          "name": "F#4",
          "midi": 66,
          "time": 164.89651049999938,
          "velocity": 0.7480314960629921,
          "duration": 0.20689649999999915
        },
        {
          "name": "C3",
          "midi": 48,
          "time": 165.10340699999938,
          "velocity": 0.7480314960629921,
          "duration": 0.20689649999999915
        },
        {
          "name": "D4",
          "midi": 62,
          "time": 165.31030349999938,
          "velocity": 0.7480314960629921,
          "duration": 0.20689649999999915
        },
        {
          "name": "C4",
          "midi": 60,
          "time": 165.51719999999938,
          "velocity": 0.7480314960629921,
          "duration": 0.20689649999999915
        },
        {
          "name": "C3",
          "midi": 48,
          "time": 165.72409649999938,
          "velocity": 0.7480314960629921,
          "duration": 0.20689649999999915
        },
        {
          "name": "G4",
          "midi": 67,
          "time": 165.93099299999938,
          "velocity": 0.7480314960629921,
          "duration": 0.20689649999999915
        },
        {
          "name": "F#4",
          "midi": 66,
          "time": 166.13788949999937,
          "velocity": 0.7480314960629921,
          "duration": 0.20689649999999915
        },
        {
          "name": "A3",
          "midi": 57,
          "time": 166.34478599999937,
          "velocity": 0.7480314960629921,
          "duration": 0.20689649999999915
        },
        {
          "name": "G3",
          "midi": 55,
          "time": 166.55168249999937,
          "velocity": 0.7480314960629921,
          "duration": 0.20689649999999915
        },
        {
          "name": "B2",
          "midi": 47,
          "time": 166.75857899999937,
          "velocity": 0.7480314960629921,
          "duration": 0.20689649999999915
        },
        {
          "name": "D4",
          "midi": 62,
          "time": 166.96547549999937,
          "velocity": 0.7480314960629921,
          "duration": 0.20689649999999915
        },
        {
          "name": "C4",
          "midi": 60,
          "time": 167.17237199999937,
          "velocity": 0.7480314960629921,
          "duration": 0.20689649999999915
        },
        {
          "name": "B2",
          "midi": 47,
          "time": 167.37926849999937,
          "velocity": 0.7480314960629921,
          "duration": 0.20689649999999915
        },
        {
          "name": "G4",
          "midi": 67,
          "time": 167.58616499999937,
          "velocity": 0.7480314960629921,
          "duration": 0.20689649999999915
        },
        {
          "name": "F#4",
          "midi": 66,
          "time": 167.79306149999937,
          "velocity": 0.7480314960629921,
          "duration": 0.20689649999999915
        },
        {
          "name": "B2",
          "midi": 47,
          "time": 167.99995799999937,
          "velocity": 0.7480314960629921,
          "duration": 0.20689649999999915
        },
        {
          "name": "D4",
          "midi": 62,
          "time": 168.20685449999937,
          "velocity": 0.7480314960629921,
          "duration": 0.20689649999999915
        },
        {
          "name": "C4",
          "midi": 60,
          "time": 168.41375099999937,
          "velocity": 0.7480314960629921,
          "duration": 0.20689649999999915
        },
        {
          "name": "B2",
          "midi": 47,
          "time": 168.62064749999936,
          "velocity": 0.7480314960629921,
          "duration": 0.20689649999999915
        },
        {
          "name": "G4",
          "midi": 67,
          "time": 168.82754399999936,
          "velocity": 0.7480314960629921,
          "duration": 0.20689649999999915
        },
        {
          "name": "F#4",
          "midi": 66,
          "time": 169.03444049999936,
          "velocity": 0.7480314960629921,
          "duration": 0.20689649999999915
        },
        {
          "name": "A3",
          "midi": 57,
          "time": 169.24133699999936,
          "velocity": 0.7480314960629921,
          "duration": 0.20689649999999915
        },
        {
          "name": "G3",
          "midi": 55,
          "time": 169.44823349999936,
          "velocity": 0.7480314960629921,
          "duration": 0.20689649999999915
        },
        {
          "name": "D3",
          "midi": 50,
          "time": 169.65512999999936,
          "velocity": 0.7480314960629921,
          "duration": 0.20689649999999915
        },
        {
          "name": "D4",
          "midi": 62,
          "time": 169.86202649999936,
          "velocity": 0.7480314960629921,
          "duration": 0.20689649999999915
        },
        {
          "name": "C4",
          "midi": 60,
          "time": 170.06892299999936,
          "velocity": 0.7480314960629921,
          "duration": 0.20689649999999915
        },
        {
          "name": "D3",
          "midi": 50,
          "time": 170.27581949999936,
          "velocity": 0.7480314960629921,
          "duration": 0.20689649999999915
        },
        {
          "name": "G4",
          "midi": 67,
          "time": 170.48271599999936,
          "velocity": 0.7480314960629921,
          "duration": 0.20689649999999915
        },
        {
          "name": "F#4",
          "midi": 66,
          "time": 170.68961249999936,
          "velocity": 0.7480314960629921,
          "duration": 0.20689649999999915
        },
        {
          "name": "D3",
          "midi": 50,
          "time": 170.89650899999936,
          "velocity": 0.7480314960629921,
          "duration": 0.20689649999999915
        },
        {
          "name": "D4",
          "midi": 62,
          "time": 171.10340549999935,
          "velocity": 0.7480314960629921,
          "duration": 0.20689649999999915
        },
        {
          "name": "C4",
          "midi": 60,
          "time": 171.31030199999935,
          "velocity": 0.7480314960629921,
          "duration": 0.20689649999999915
        },
        {
          "name": "D3",
          "midi": 50,
          "time": 171.51719849999935,
          "velocity": 0.7480314960629921,
          "duration": 0.20689649999999915
        },
        {
          "name": "G4",
          "midi": 67,
          "time": 171.72409499999935,
          "velocity": 0.7480314960629921,
          "duration": 0.20689649999999915
        },
        {
          "name": "F#4",
          "midi": 66,
          "time": 171.93099149999935,
          "velocity": 0.7480314960629921,
          "duration": 0.20689649999999915
        },
        {
          "name": "A3",
          "midi": 57,
          "time": 172.13788799999935,
          "velocity": 0.7480314960629921,
          "duration": 0.20689649999999915
        },
        {
          "name": "G3",
          "midi": 55,
          "time": 172.34478449999935,
          "velocity": 0.7480314960629921,
          "duration": 0.20689649999999915
        },
        {
          "name": "C3",
          "midi": 48,
          "time": 172.55168099999935,
          "velocity": 0.7480314960629921,
          "duration": 0.20689649999999915
        },
        {
          "name": "D4",
          "midi": 62,
          "time": 172.75857749999935,
          "velocity": 0.7480314960629921,
          "duration": 0.20689649999999915
        },
        {
          "name": "C4",
          "midi": 60,
          "time": 172.96547399999935,
          "velocity": 0.7480314960629921,
          "duration": 0.20689649999999915
        },
        {
          "name": "C3",
          "midi": 48,
          "time": 173.17237049999935,
          "velocity": 0.7480314960629921,
          "duration": 0.20689649999999915
        },
        {
          "name": "G4",
          "midi": 67,
          "time": 173.37926699999934,
          "velocity": 0.7480314960629921,
          "duration": 0.20689649999999915
        },
        {
          "name": "F#4",
          "midi": 66,
          "time": 173.58616349999934,
          "velocity": 0.7480314960629921,
          "duration": 0.20689649999999915
        },
        {
          "name": "C3",
          "midi": 48,
          "time": 173.79305999999934,
          "velocity": 0.7480314960629921,
          "duration": 0.20689649999999915
        },
        {
          "name": "D4",
          "midi": 62,
          "time": 173.99995649999934,
          "velocity": 0.7480314960629921,
          "duration": 0.20689649999999915
        },
        {
          "name": "C4",
          "midi": 60,
          "time": 174.20685299999934,
          "velocity": 0.7480314960629921,
          "duration": 0.20689649999999915
        },
        {
          "name": "C3",
          "midi": 48,
          "time": 174.41374949999934,
          "velocity": 0.7480314960629921,
          "duration": 0.20689649999999915
        },
        {
          "name": "G4",
          "midi": 67,
          "time": 174.62064599999934,
          "velocity": 0.7480314960629921,
          "duration": 0.20689649999999915
        },
        {
          "name": "F#4",
          "midi": 66,
          "time": 174.82754249999934,
          "velocity": 0.7480314960629921,
          "duration": 0.20689649999999915
        },
        {
          "name": "A3",
          "midi": 57,
          "time": 175.03443899999934,
          "velocity": 0.7480314960629921,
          "duration": 0.20689649999999915
        },
        {
          "name": "G3",
          "midi": 55,
          "time": 175.24133549999934,
          "velocity": 0.7480314960629921,
          "duration": 0.20689649999999915
        },
        {
          "name": "B2",
          "midi": 47,
          "time": 175.44823199999934,
          "velocity": 0.7480314960629921,
          "duration": 0.20689649999999915
        },
        {
          "name": "D4",
          "midi": 62,
          "time": 175.65512849999934,
          "velocity": 0.7480314960629921,
          "duration": 0.20689649999999915
        },
        {
          "name": "C4",
          "midi": 60,
          "time": 175.86202499999933,
          "velocity": 0.7480314960629921,
          "duration": 0.20689649999999915
        },
        {
          "name": "B2",
          "midi": 47,
          "time": 176.06892149999933,
          "velocity": 0.7480314960629921,
          "duration": 0.20689649999999915
        },
        {
          "name": "G4",
          "midi": 67,
          "time": 176.27581799999933,
          "velocity": 0.7480314960629921,
          "duration": 0.20689649999999915
        },
        {
          "name": "F#4",
          "midi": 66,
          "time": 176.48271449999933,
          "velocity": 0.7480314960629921,
          "duration": 0.20689649999999915
        },
        {
          "name": "B2",
          "midi": 47,
          "time": 176.68961099999933,
          "velocity": 0.7480314960629921,
          "duration": 0.20689649999999915
        },
        {
          "name": "D4",
          "midi": 62,
          "time": 176.89650749999933,
          "velocity": 0.7480314960629921,
          "duration": 0.20689649999999915
        },
        {
          "name": "C4",
          "midi": 60,
          "time": 177.10340399999933,
          "velocity": 0.7480314960629921,
          "duration": 0.20689649999999915
        },
        {
          "name": "B2",
          "midi": 47,
          "time": 177.31030049999933,
          "velocity": 0.7480314960629921,
          "duration": 0.20689649999999915
        },
        {
          "name": "G4",
          "midi": 67,
          "time": 177.51719699999933,
          "velocity": 0.7480314960629921,
          "duration": 0.20689649999999915
        },
        {
          "name": "F#4",
          "midi": 66,
          "time": 177.72409349999933,
          "velocity": 0.7480314960629921,
          "duration": 0.20689649999999915
        },
        {
          "name": "A3",
          "midi": 57,
          "time": 177.93098999999933,
          "velocity": 0.7480314960629921,
          "duration": 0.20689649999999915
        },
        {
          "name": "G3",
          "midi": 55,
          "time": 178.13788649999933,
          "velocity": 0.7480314960629921,
          "duration": 0.20689649999999915
        },
        {
          "name": "D3",
          "midi": 50,
          "time": 178.34478299999932,
          "velocity": 0.7480314960629921,
          "duration": 0.20689649999999915
        },
        {
          "name": "D4",
          "midi": 62,
          "time": 178.55167949999932,
          "velocity": 0.7480314960629921,
          "duration": 0.20689649999999915
        },
        {
          "name": "C4",
          "midi": 60,
          "time": 178.75857599999932,
          "velocity": 0.7480314960629921,
          "duration": 0.20689649999999915
        },
        {
          "name": "D3",
          "midi": 50,
          "time": 178.96547249999932,
          "velocity": 0.7480314960629921,
          "duration": 0.20689649999999915
        },
        {
          "name": "G4",
          "midi": 67,
          "time": 179.17236899999932,
          "velocity": 0.7480314960629921,
          "duration": 0.20689649999999915
        },
        {
          "name": "F#4",
          "midi": 66,
          "time": 179.37926549999932,
          "velocity": 0.7480314960629921,
          "duration": 0.20689649999999915
        },
        {
          "name": "D3",
          "midi": 50,
          "time": 179.58616199999932,
          "velocity": 0.7480314960629921,
          "duration": 0.20689649999999915
        },
        {
          "name": "D4",
          "midi": 62,
          "time": 179.79305849999932,
          "velocity": 0.7480314960629921,
          "duration": 0.20689649999999915
        },
        {
          "name": "C4",
          "midi": 60,
          "time": 179.99995499999932,
          "velocity": 0.7480314960629921,
          "duration": 0.20689649999999915
        },
        {
          "name": "D3",
          "midi": 50,
          "time": 180.20685149999932,
          "velocity": 0.7480314960629921,
          "duration": 0.20689649999999915
        },
        {
          "name": "G4",
          "midi": 67,
          "time": 180.41374799999932,
          "velocity": 0.7480314960629921,
          "duration": 0.20689649999999915
        },
        {
          "name": "F#4",
          "midi": 66,
          "time": 180.62064449999932,
          "velocity": 0.7480314960629921,
          "duration": 0.20689649999999915
        },
        {
          "name": "A3",
          "midi": 57,
          "time": 180.82754099999931,
          "velocity": 0.7480314960629921,
          "duration": 0.20689649999999915
        },
        {
          "name": "G3",
          "midi": 55,
          "time": 181.0344374999993,
          "velocity": 0.7480314960629921,
          "duration": 0.20689649999999915
        },
        {
          "name": "C3",
          "midi": 48,
          "time": 181.2413339999993,
          "velocity": 0.7480314960629921,
          "duration": 0.20689649999999915
        },
        {
          "name": "D4",
          "midi": 62,
          "time": 181.4482304999993,
          "velocity": 0.7480314960629921,
          "duration": 0.20689649999999915
        },
        {
          "name": "C4",
          "midi": 60,
          "time": 181.6551269999993,
          "velocity": 0.7480314960629921,
          "duration": 0.20689649999999915
        },
        {
          "name": "C3",
          "midi": 48,
          "time": 181.8620234999993,
          "velocity": 0.7480314960629921,
          "duration": 0.20689649999999915
        },
        {
          "name": "G4",
          "midi": 67,
          "time": 182.0689199999993,
          "velocity": 0.7480314960629921,
          "duration": 0.20689649999999915
        },
        {
          "name": "F#4",
          "midi": 66,
          "time": 182.2758164999993,
          "velocity": 0.7480314960629921,
          "duration": 0.20689649999999915
        },
        {
          "name": "C3",
          "midi": 48,
          "time": 182.4827129999993,
          "velocity": 0.7480314960629921,
          "duration": 0.20689649999999915
        },
        {
          "name": "D4",
          "midi": 62,
          "time": 182.6896094999993,
          "velocity": 0.7480314960629921,
          "duration": 0.20689649999999915
        },
        {
          "name": "C4",
          "midi": 60,
          "time": 182.8965059999993,
          "velocity": 0.7480314960629921,
          "duration": 0.20689649999999915
        },
        {
          "name": "C3",
          "midi": 48,
          "time": 183.1034024999993,
          "velocity": 0.7480314960629921,
          "duration": 0.20689649999999915
        },
        {
          "name": "G4",
          "midi": 67,
          "time": 183.3102989999993,
          "velocity": 0.7480314960629921,
          "duration": 0.20689649999999915
        },
        {
          "name": "F#4",
          "midi": 66,
          "time": 183.5171954999993,
          "velocity": 0.7480314960629921,
          "duration": 0.20689649999999915
        },
        {
          "name": "A3",
          "midi": 57,
          "time": 183.7240919999993,
          "velocity": 0.7480314960629921,
          "duration": 0.20689649999999915
        },
        {
          "name": "G3",
          "midi": 55,
          "time": 183.9309884999993,
          "velocity": 0.7480314960629921,
          "duration": 0.20689649999999915
        },
        {
          "name": "B2",
          "midi": 47,
          "time": 184.1378849999993,
          "velocity": 0.7480314960629921,
          "duration": 0.20689649999999915
        },
        {
          "name": "D4",
          "midi": 62,
          "time": 184.3447814999993,
          "velocity": 0.7480314960629921,
          "duration": 0.20689649999999915
        },
        {
          "name": "C4",
          "midi": 60,
          "time": 184.5516779999993,
          "velocity": 0.7480314960629921,
          "duration": 0.20689649999999915
        },
        {
          "name": "B2",
          "midi": 47,
          "time": 184.7585744999993,
          "velocity": 0.7480314960629921,
          "duration": 0.20689649999999915
        },
        {
          "name": "G4",
          "midi": 67,
          "time": 184.9654709999993,
          "velocity": 0.7480314960629921,
          "duration": 0.20689649999999915
        },
        {
          "name": "F#4",
          "midi": 66,
          "time": 185.1723674999993,
          "velocity": 0.7480314960629921,
          "duration": 0.20689649999999915
        },
        {
          "name": "B2",
          "midi": 47,
          "time": 185.3792639999993,
          "velocity": 0.7480314960629921,
          "duration": 0.20689649999999915
        },
        {
          "name": "D4",
          "midi": 62,
          "time": 185.5861604999993,
          "velocity": 0.7480314960629921,
          "duration": 0.20689649999999915
        },
        {
          "name": "C4",
          "midi": 60,
          "time": 185.7930569999993,
          "velocity": 0.7480314960629921,
          "duration": 0.20689649999999915
        },
        {
          "name": "F#2",
          "midi": 42,
          "time": 185.9999534999993,
          "velocity": 0.7480314960629921,
          "duration": 0.41379299999994146
        },
        {
          "name": "F#3",
          "midi": 54,
          "time": 186.41374649999923,
          "velocity": 0.7480314960629921,
          "duration": 0.6206894999999975
        },
        {
          "name": "D3",
          "midi": 50,
          "time": 187.03443599999923,
          "velocity": 0.7480314960629921,
          "duration": 0.20689649999999915
        },
        {
          "name": "D4",
          "midi": 62,
          "time": 187.24133249999923,
          "velocity": 0.7480314960629921,
          "duration": 0.20689649999999915
        },
        {
          "name": "C4",
          "midi": 60,
          "time": 187.44822899999923,
          "velocity": 0.7480314960629921,
          "duration": 0.20689649999999915
        },
        {
          "name": "D3",
          "midi": 50,
          "time": 187.65512549999923,
          "velocity": 0.7480314960629921,
          "duration": 0.20689649999999915
        },
        {
          "name": "G4",
          "midi": 67,
          "time": 187.86202199999923,
          "velocity": 0.7480314960629921,
          "duration": 0.20689649999999915
        },
        {
          "name": "F#4",
          "midi": 66,
          "time": 188.06891849999923,
          "velocity": 0.7480314960629921,
          "duration": 0.20689649999999915
        },
        {
          "name": "D3",
          "midi": 50,
          "time": 188.27581499999923,
          "velocity": 0.7480314960629921,
          "duration": 0.20689649999999915
        },
        {
          "name": "D4",
          "midi": 62,
          "time": 188.48271149999923,
          "velocity": 0.7480314960629921,
          "duration": 0.20689649999999915
        },
        {
          "name": "C4",
          "midi": 60,
          "time": 188.68960799999923,
          "velocity": 0.7480314960629921,
          "duration": 0.20689649999999915
        },
        {
          "name": "D3",
          "midi": 50,
          "time": 188.89650449999922,
          "velocity": 0.7480314960629921,
          "duration": 0.20689649999999915
        },
        {
          "name": "G4",
          "midi": 67,
          "time": 189.10340099999922,
          "velocity": 0.7480314960629921,
          "duration": 0.20689649999999915
        },
        {
          "name": "F#4",
          "midi": 66,
          "time": 189.31029749999922,
          "velocity": 0.7480314960629921,
          "duration": 0.20689649999999915
        },
        {
          "name": "A3",
          "midi": 57,
          "time": 189.51719399999922,
          "velocity": 0.7480314960629921,
          "duration": 0.20689649999999915
        },
        {
          "name": "G3",
          "midi": 55,
          "time": 189.72409049999922,
          "velocity": 0.7480314960629921,
          "duration": 0.20689649999999915
        },
        {
          "name": "A3",
          "midi": 57,
          "time": 189.93098699999922,
          "velocity": 0.7480314960629921,
          "duration": 0.4137929999999983
        },
        {
          "name": "D3",
          "midi": 50,
          "time": 190.34477999999922,
          "velocity": 0.7480314960629921,
          "duration": 0.20689649999999915
        },
        {
          "name": "D4",
          "midi": 62,
          "time": 190.55167649999922,
          "velocity": 0.7480314960629921,
          "duration": 0.20689649999999915
        },
        {
          "name": "C4",
          "midi": 60,
          "time": 190.75857299999922,
          "velocity": 0.7480314960629921,
          "duration": 0.20689649999999915
        },
        {
          "name": "D3",
          "midi": 50,
          "time": 190.96546949999922,
          "velocity": 0.7480314960629921,
          "duration": 0.20689649999999915
        },
        {
          "name": "G4",
          "midi": 67,
          "time": 191.17236599999922,
          "velocity": 0.7480314960629921,
          "duration": 0.20689649999999915
        },
        {
          "name": "F#4",
          "midi": 66,
          "time": 191.37926249999921,
          "velocity": 0.7480314960629921,
          "duration": 0.20689649999999915
        },
        {
          "name": "D3",
          "midi": 50,
          "time": 191.5861589999992,
          "velocity": 0.7480314960629921,
          "duration": 0.20689649999999915
        },
        {
          "name": "D4",
          "midi": 62,
          "time": 191.7930554999992,
          "velocity": 0.7480314960629921,
          "duration": 0.20689649999999915
        },
        {
          "name": "C4",
          "midi": 60,
          "time": 191.9999519999992,
          "velocity": 0.7480314960629921,
          "duration": 0.20689649999999915
        },
        {
          "name": "D3",
          "midi": 50,
          "time": 192.2068484999992,
          "velocity": 0.7480314960629921,
          "duration": 0.20689649999999915
        },
        {
          "name": "G4",
          "midi": 67,
          "time": 192.4137449999992,
          "velocity": 0.7480314960629921,
          "duration": 0.20689649999999915
        },
        {
          "name": "F#4",
          "midi": 66,
          "time": 192.6206414999992,
          "velocity": 0.7480314960629921,
          "duration": 0.20689649999999915
        },
        {
          "name": "A3",
          "midi": 57,
          "time": 192.8275379999992,
          "velocity": 0.7480314960629921,
          "duration": 0.20689649999999915
        },
        {
          "name": "G3",
          "midi": 55,
          "time": 193.0344344999992,
          "velocity": 0.7480314960629921,
          "duration": 0.20689649999999915
        },
        {
          "name": "A3",
          "midi": 57,
          "time": 193.2413309999992,
          "velocity": 0.7480314960629921,
          "duration": 0.4137929999999983
        },
        {
          "name": "D3",
          "midi": 50,
          "time": 193.6551239999992,
          "velocity": 0.7480314960629921,
          "duration": 0.20689649999999915
        },
        {
          "name": "D4",
          "midi": 62,
          "time": 193.8620204999992,
          "velocity": 0.7480314960629921,
          "duration": 0.20689649999999915
        },
        {
          "name": "C4",
          "midi": 60,
          "time": 194.0689169999992,
          "velocity": 0.7480314960629921,
          "duration": 0.20689649999999915
        },
        {
          "name": "D3",
          "midi": 50,
          "time": 194.2758134999992,
          "velocity": 0.7480314960629921,
          "duration": 0.20689649999999915
        },
        {
          "name": "G4",
          "midi": 67,
          "time": 194.4827099999992,
          "velocity": 0.7480314960629921,
          "duration": 0.20689649999999915
        },
        {
          "name": "F#4",
          "midi": 66,
          "time": 194.6896064999992,
          "velocity": 0.7480314960629921,
          "duration": 0.20689649999999915
        },
        {
          "name": "D3",
          "midi": 50,
          "time": 194.8965029999992,
          "velocity": 0.7480314960629921,
          "duration": 0.20689649999999915
        },
        {
          "name": "D4",
          "midi": 62,
          "time": 195.1033994999992,
          "velocity": 0.7480314960629921,
          "duration": 0.20689649999999915
        },
        {
          "name": "C4",
          "midi": 60,
          "time": 195.3102959999992,
          "velocity": 0.7480314960629921,
          "duration": 0.20689649999999915
        },
        {
          "name": "D3",
          "midi": 50,
          "time": 195.5171924999992,
          "velocity": 0.7480314960629921,
          "duration": 0.20689649999999915
        },
        {
          "name": "G4",
          "midi": 67,
          "time": 195.7240889999992,
          "velocity": 0.7480314960629921,
          "duration": 0.20689649999999915
        },
        {
          "name": "F#4",
          "midi": 66,
          "time": 195.9309854999992,
          "velocity": 0.7480314960629921,
          "duration": 0.20689649999999915
        },
        {
          "name": "A3",
          "midi": 57,
          "time": 196.1378819999992,
          "velocity": 0.7480314960629921,
          "duration": 0.20689649999999915
        },
        {
          "name": "G3",
          "midi": 55,
          "time": 196.3447784999992,
          "velocity": 0.7480314960629921,
          "duration": 0.20689649999999915
        },
        {
          "name": "A3",
          "midi": 57,
          "time": 196.5516749999992,
          "velocity": 0.7480314960629921,
          "duration": 0.4137929999999983
        },
        {
          "name": "D3",
          "midi": 50,
          "time": 196.9654679999992,
          "velocity": 0.7480314960629921,
          "duration": 0.20689649999999915
        },
        {
          "name": "D4",
          "midi": 62,
          "time": 197.1723644999992,
          "velocity": 0.7480314960629921,
          "duration": 0.20689649999999915
        },
        {
          "name": "C4",
          "midi": 60,
          "time": 197.3792609999992,
          "velocity": 0.7480314960629921,
          "duration": 0.20689649999999915
        },
        {
          "name": "D3",
          "midi": 50,
          "time": 197.5861574999992,
          "velocity": 0.7480314960629921,
          "duration": 0.20689649999999915
        },
        {
          "name": "G4",
          "midi": 67,
          "time": 197.7930539999992,
          "velocity": 0.7480314960629921,
          "duration": 0.20689649999999915
        },
        {
          "name": "F#4",
          "midi": 66,
          "time": 197.9999504999992,
          "velocity": 0.7480314960629921,
          "duration": 0.20689649999999915
        },
        {
          "name": "D3",
          "midi": 50,
          "time": 198.2068469999992,
          "velocity": 0.7480314960629921,
          "duration": 0.20689649999999915
        },
        {
          "name": "D4",
          "midi": 62,
          "time": 198.41374349999919,
          "velocity": 0.7480314960629921,
          "duration": 0.20689649999999915
        },
        {
          "name": "C4",
          "midi": 60,
          "time": 198.62063999999918,
          "velocity": 0.7480314960629921,
          "duration": 0.20689649999999915
        },
        {
          "name": "D3",
          "midi": 50,
          "time": 198.82753649999918,
          "velocity": 0.7480314960629921,
          "duration": 0.20689649999999915
        },
        {
          "name": "G4",
          "midi": 67,
          "time": 199.03443299999918,
          "velocity": 0.7480314960629921,
          "duration": 0.20689649999999915
        },
        {
          "name": "F#4",
          "midi": 66,
          "time": 199.24132949999918,
          "velocity": 0.7480314960629921,
          "duration": 0.20689649999999915
        },
        {
          "name": "A3",
          "midi": 57,
          "time": 199.44822599999918,
          "velocity": 0.7480314960629921,
          "duration": 0.20689649999999915
        },
        {
          "name": "G3",
          "midi": 55,
          "time": 199.65512249999918,
          "velocity": 0.7480314960629921,
          "duration": 0.20689649999999915
        },
        {
          "name": "A3",
          "midi": 57,
          "time": 199.86201899999918,
          "velocity": 0.7480314960629921,
          "duration": 0.4137929999999983
        },
        {
          "name": "G4",
          "midi": 67,
          "time": 200.27581199999918,
          "velocity": 0.7480314960629921,
          "duration": 0.20689649999999915
        },
        {
          "name": "G3",
          "midi": 55,
          "time": 200.27581199999918,
          "velocity": 0.7480314960629921,
          "duration": 0.20689649999999915
        },
        {
          "name": "G4",
          "midi": 67,
          "time": 200.48270849999918,
          "velocity": 0.7480314960629921,
          "duration": 0.20689649999999915
        },
        {
          "name": "G3",
          "midi": 55,
          "time": 200.48270849999918,
          "velocity": 0.7480314960629921,
          "duration": 0.20689649999999915
        },
        {
          "name": "G4",
          "midi": 67,
          "time": 200.68960499999918,
          "velocity": 0.7480314960629921,
          "duration": 0.20689649999999915
        },
        {
          "name": "G3",
          "midi": 55,
          "time": 200.68960499999918,
          "velocity": 0.7480314960629921,
          "duration": 0.20689649999999915
        },
        {
          "name": "G4",
          "midi": 67,
          "time": 200.89650149999918,
          "velocity": 0.7480314960629921,
          "duration": 0.20689649999999915
        },
        {
          "name": "G3",
          "midi": 55,
          "time": 200.89650149999918,
          "velocity": 0.7480314960629921,
          "duration": 0.20689649999999915
        },
        {
          "name": "G4",
          "midi": 67,
          "time": 201.10339799999917,
          "velocity": 0.7480314960629921,
          "duration": 0.20689649999999915
        },
        {
          "name": "G3",
          "midi": 55,
          "time": 201.10339799999917,
          "velocity": 0.7480314960629921,
          "duration": 0.20689649999999915
        },
        {
          "name": "G4",
          "midi": 67,
          "time": 201.31029449999917,
          "velocity": 0.7480314960629921,
          "duration": 0.20689649999999915
        },
        {
          "name": "G3",
          "midi": 55,
          "time": 201.31029449999917,
          "velocity": 0.7480314960629921,
          "duration": 0.20689649999999915
        },
        {
          "name": "G4",
          "midi": 67,
          "time": 201.51719099999917,
          "velocity": 0.7480314960629921,
          "duration": 0.20689649999999915
        },
        {
          "name": "G3",
          "midi": 55,
          "time": 201.51719099999917,
          "velocity": 0.7480314960629921,
          "duration": 0.20689649999999915
        },
        {
          "name": "G4",
          "midi": 67,
          "time": 201.72408749999917,
          "velocity": 0.7480314960629921,
          "duration": 0.20689649999999915
        },
        {
          "name": "G3",
          "midi": 55,
          "time": 201.72408749999917,
          "velocity": 0.7480314960629921,
          "duration": 0.20689649999999915
        },
        {
          "name": "G4",
          "midi": 67,
          "time": 201.93098399999917,
          "velocity": 0.7480314960629921,
          "duration": 0.20689649999999915
        },
        {
          "name": "G3",
          "midi": 55,
          "time": 201.93098399999917,
          "velocity": 0.7480314960629921,
          "duration": 0.20689649999999915
        },
        {
          "name": "G4",
          "midi": 67,
          "time": 202.13788049999917,
          "velocity": 0.7480314960629921,
          "duration": 0.20689649999999915
        },
        {
          "name": "G3",
          "midi": 55,
          "time": 202.13788049999917,
          "velocity": 0.7480314960629921,
          "duration": 0.20689649999999915
        },
        {
          "name": "G4",
          "midi": 67,
          "time": 202.34477699999917,
          "velocity": 0.7480314960629921,
          "duration": 0.20689649999999915
        },
        {
          "name": "G3",
          "midi": 55,
          "time": 202.34477699999917,
          "velocity": 0.7480314960629921,
          "duration": 0.20689649999999915
        },
        {
          "name": "G4",
          "midi": 67,
          "time": 202.55167349999917,
          "velocity": 0.7480314960629921,
          "duration": 0.20689649999999915
        },
        {
          "name": "G3",
          "midi": 55,
          "time": 202.55167349999917,
          "velocity": 0.7480314960629921,
          "duration": 0.20689649999999915
        },
        {
          "name": "G4",
          "midi": 67,
          "time": 202.75856999999917,
          "velocity": 0.7480314960629921,
          "duration": 0.20689649999999915
        },
        {
          "name": "G3",
          "midi": 55,
          "time": 202.75856999999917,
          "velocity": 0.7480314960629921,
          "duration": 0.20689649999999915
        },
        {
          "name": "G4",
          "midi": 67,
          "time": 202.96546649999917,
          "velocity": 0.7480314960629921,
          "duration": 0.20689649999999915
        },
        {
          "name": "G3",
          "midi": 55,
          "time": 202.96546649999917,
          "velocity": 0.7480314960629921,
          "duration": 0.20689649999999915
        },
        {
          "name": "G4",
          "midi": 67,
          "time": 203.17236299999917,
          "velocity": 0.7480314960629921,
          "duration": 0.20689649999999915
        },
        {
          "name": "G3",
          "midi": 55,
          "time": 203.17236299999917,
          "velocity": 0.7480314960629921,
          "duration": 0.20689649999999915
        },
        {
          "name": "G4",
          "midi": 67,
          "time": 203.37925949999916,
          "velocity": 0.7480314960629921,
          "duration": 0.20689649999999915
        },
        {
          "name": "G3",
          "midi": 55,
          "time": 203.37925949999916,
          "velocity": 0.7480314960629921,
          "duration": 0.20689649999999915
        },
        {
          "name": "F#4",
          "midi": 66,
          "time": 203.58615599999916,
          "velocity": 0.7480314960629921,
          "duration": 0.6206894999999975
        },
        {
          "name": "F#3",
          "midi": 54,
          "time": 203.58615599999916,
          "velocity": 0.7480314960629921,
          "duration": 0.6206894999999975
        },
        {
          "name": "D4",
          "midi": 62,
          "time": 204.20684549999916,
          "velocity": 0.7480314960629921,
          "duration": 0.6206894999999975
        },
        {
          "name": "D3",
          "midi": 50,
          "time": 204.20684549999916,
          "velocity": 0.7480314960629921,
          "duration": 0.6206894999999975
        },
        {
          "name": "F#4",
          "midi": 66,
          "time": 204.82753499999916,
          "velocity": 0.7480314960629921,
          "duration": 0.4137929999999983
        },
        {
          "name": "F#3",
          "midi": 54,
          "time": 204.82753499999916,
          "velocity": 0.7480314960629921,
          "duration": 0.4137929999999983
        },
        {
          "name": "G4",
          "midi": 67,
          "time": 205.24132799999916,
          "velocity": 0.7480314960629921,
          "duration": 0.20689649999999915
        },
        {
          "name": "G3",
          "midi": 55,
          "time": 205.24132799999916,
          "velocity": 0.7480314960629921,
          "duration": 0.20689649999999915
        },
        {
          "name": "G4",
          "midi": 67,
          "time": 205.44822449999916,
          "velocity": 0.7480314960629921,
          "duration": 0.20689649999999915
        },
        {
          "name": "G3",
          "midi": 55,
          "time": 205.44822449999916,
          "velocity": 0.7480314960629921,
          "duration": 0.20689649999999915
        },
        {
          "name": "G4",
          "midi": 67,
          "time": 205.65512099999916,
          "velocity": 0.7480314960629921,
          "duration": 0.20689649999999915
        },
        {
          "name": "G3",
          "midi": 55,
          "time": 205.65512099999916,
          "velocity": 0.7480314960629921,
          "duration": 0.20689649999999915
        },
        {
          "name": "G4",
          "midi": 67,
          "time": 205.86201749999915,
          "velocity": 0.7480314960629921,
          "duration": 0.20689649999999915
        },
        {
          "name": "G3",
          "midi": 55,
          "time": 205.86201749999915,
          "velocity": 0.7480314960629921,
          "duration": 0.20689649999999915
        },
        {
          "name": "G4",
          "midi": 67,
          "time": 206.06891399999915,
          "velocity": 0.7480314960629921,
          "duration": 0.20689649999999915
        },
        {
          "name": "G3",
          "midi": 55,
          "time": 206.06891399999915,
          "velocity": 0.7480314960629921,
          "duration": 0.20689649999999915
        },
        {
          "name": "G4",
          "midi": 67,
          "time": 206.27581049999915,
          "velocity": 0.7480314960629921,
          "duration": 0.20689649999999915
        },
        {
          "name": "G3",
          "midi": 55,
          "time": 206.27581049999915,
          "velocity": 0.7480314960629921,
          "duration": 0.20689649999999915
        },
        {
          "name": "G4",
          "midi": 67,
          "time": 206.48270699999915,
          "velocity": 0.7480314960629921,
          "duration": 0.20689649999999915
        },
        {
          "name": "G3",
          "midi": 55,
          "time": 206.48270699999915,
          "velocity": 0.7480314960629921,
          "duration": 0.20689649999999915
        },
        {
          "name": "G4",
          "midi": 67,
          "time": 206.68960349999915,
          "velocity": 0.7480314960629921,
          "duration": 0.20689649999999915
        },
        {
          "name": "G3",
          "midi": 55,
          "time": 206.68960349999915,
          "velocity": 0.7480314960629921,
          "duration": 0.20689649999999915
        },
        {
          "name": "G4",
          "midi": 67,
          "time": 206.89649999999915,
          "velocity": 0.7480314960629921,
          "duration": 0.20689649999999915
        },
        {
          "name": "G3",
          "midi": 55,
          "time": 206.89649999999915,
          "velocity": 0.7480314960629921,
          "duration": 0.20689649999999915
        },
        {
          "name": "G4",
          "midi": 67,
          "time": 207.10339649999915,
          "velocity": 0.7480314960629921,
          "duration": 0.20689649999999915
        },
        {
          "name": "G3",
          "midi": 55,
          "time": 207.10339649999915,
          "velocity": 0.7480314960629921,
          "duration": 0.20689649999999915
        },
        {
          "name": "G4",
          "midi": 67,
          "time": 207.31029299999915,
          "velocity": 0.7480314960629921,
          "duration": 0.20689649999999915
        },
        {
          "name": "G3",
          "midi": 55,
          "time": 207.31029299999915,
          "velocity": 0.7480314960629921,
          "duration": 0.20689649999999915
        },
        {
          "name": "G4",
          "midi": 67,
          "time": 207.51718949999915,
          "velocity": 0.7480314960629921,
          "duration": 0.20689649999999915
        },
        {
          "name": "G3",
          "midi": 55,
          "time": 207.51718949999915,
          "velocity": 0.7480314960629921,
          "duration": 0.20689649999999915
        },
        {
          "name": "G4",
          "midi": 67,
          "time": 207.72408599999915,
          "velocity": 0.7480314960629921,
          "duration": 0.20689649999999915
        },
        {
          "name": "G3",
          "midi": 55,
          "time": 207.72408599999915,
          "velocity": 0.7480314960629921,
          "duration": 0.20689649999999915
        },
        {
          "name": "G4",
          "midi": 67,
          "time": 207.93098249999915,
          "velocity": 0.7480314960629921,
          "duration": 0.20689649999999915
        },
        {
          "name": "G3",
          "midi": 55,
          "time": 207.93098249999915,
          "velocity": 0.7480314960629921,
          "duration": 0.20689649999999915
        },
        {
          "name": "G4",
          "midi": 67,
          "time": 208.13787899999915,
          "velocity": 0.7480314960629921,
          "duration": 0.20689649999999915
        },
        {
          "name": "G3",
          "midi": 55,
          "time": 208.13787899999915,
          "velocity": 0.7480314960629921,
          "duration": 0.20689649999999915
        },
        {
          "name": "G4",
          "midi": 67,
          "time": 208.34477549999914,
          "velocity": 0.7480314960629921,
          "duration": 0.20689649999999915
        },
        {
          "name": "G3",
          "midi": 55,
          "time": 208.34477549999914,
          "velocity": 0.7480314960629921,
          "duration": 0.20689649999999915
        },
        {
          "name": "F#4",
          "midi": 66,
          "time": 208.55167199999914,
          "velocity": 0.7480314960629921,
          "duration": 0.6206894999999975
        },
        {
          "name": "F#3",
          "midi": 54,
          "time": 208.55167199999914,
          "velocity": 0.7480314960629921,
          "duration": 0.6206894999999975
        },
        {
          "name": "D4",
          "midi": 62,
          "time": 209.17236149999914,
          "velocity": 0.7480314960629921,
          "duration": 0.6206894999999975
        },
        {
          "name": "D3",
          "midi": 50,
          "time": 209.17236149999914,
          "velocity": 0.7480314960629921,
          "duration": 0.6206894999999975
        },
        {
          "name": "F#4",
          "midi": 66,
          "time": 209.79305099999914,
          "velocity": 0.7480314960629921,
          "duration": 0.4137929999999983
        },
        {
          "name": "F#3",
          "midi": 54,
          "time": 209.79305099999914,
          "velocity": 0.7480314960629921,
          "duration": 0.4137929999999983
        },
        {
          "name": "G4",
          "midi": 67,
          "time": 210.20684399999914,
          "velocity": 0.7480314960629921,
          "duration": 0.20689649999999915
        },
        {
          "name": "G3",
          "midi": 55,
          "time": 210.20684399999914,
          "velocity": 0.7480314960629921,
          "duration": 0.20689649999999915
        },
        {
          "name": "G4",
          "midi": 67,
          "time": 210.41374049999914,
          "velocity": 0.7480314960629921,
          "duration": 0.20689649999999915
        },
        {
          "name": "G3",
          "midi": 55,
          "time": 210.41374049999914,
          "velocity": 0.7480314960629921,
          "duration": 0.20689649999999915
        },
        {
          "name": "G4",
          "midi": 67,
          "time": 210.62063699999914,
          "velocity": 0.7480314960629921,
          "duration": 0.20689649999999915
        },
        {
          "name": "G3",
          "midi": 55,
          "time": 210.62063699999914,
          "velocity": 0.7480314960629921,
          "duration": 0.20689649999999915
        },
        {
          "name": "G4",
          "midi": 67,
          "time": 210.82753349999913,
          "velocity": 0.7480314960629921,
          "duration": 0.20689649999999915
        },
        {
          "name": "G3",
          "midi": 55,
          "time": 210.82753349999913,
          "velocity": 0.7480314960629921,
          "duration": 0.20689649999999915
        },
        {
          "name": "G4",
          "midi": 67,
          "time": 211.03442999999913,
          "velocity": 0.7480314960629921,
          "duration": 0.20689649999999915
        },
        {
          "name": "G3",
          "midi": 55,
          "time": 211.03442999999913,
          "velocity": 0.7480314960629921,
          "duration": 0.20689649999999915
        },
        {
          "name": "G4",
          "midi": 67,
          "time": 211.24132649999913,
          "velocity": 0.7480314960629921,
          "duration": 0.20689649999999915
        },
        {
          "name": "G3",
          "midi": 55,
          "time": 211.24132649999913,
          "velocity": 0.7480314960629921,
          "duration": 0.20689649999999915
        },
        {
          "name": "G4",
          "midi": 67,
          "time": 211.44822299999913,
          "velocity": 0.7480314960629921,
          "duration": 0.20689649999999915
        },
        {
          "name": "G3",
          "midi": 55,
          "time": 211.44822299999913,
          "velocity": 0.7480314960629921,
          "duration": 0.20689649999999915
        },
        {
          "name": "G4",
          "midi": 67,
          "time": 211.65511949999913,
          "velocity": 0.7480314960629921,
          "duration": 0.20689649999999915
        },
        {
          "name": "G3",
          "midi": 55,
          "time": 211.65511949999913,
          "velocity": 0.7480314960629921,
          "duration": 0.20689649999999915
        },
        {
          "name": "G4",
          "midi": 67,
          "time": 211.86201599999913,
          "velocity": 0.7480314960629921,
          "duration": 0.20689649999999915
        },
        {
          "name": "G3",
          "midi": 55,
          "time": 211.86201599999913,
          "velocity": 0.7480314960629921,
          "duration": 0.20689649999999915
        },
        {
          "name": "G4",
          "midi": 67,
          "time": 212.06891249999913,
          "velocity": 0.7480314960629921,
          "duration": 0.20689649999999915
        },
        {
          "name": "G3",
          "midi": 55,
          "time": 212.06891249999913,
          "velocity": 0.7480314960629921,
          "duration": 0.20689649999999915
        },
        {
          "name": "G4",
          "midi": 67,
          "time": 212.27580899999913,
          "velocity": 0.7480314960629921,
          "duration": 0.20689649999999915
        },
        {
          "name": "G3",
          "midi": 55,
          "time": 212.27580899999913,
          "velocity": 0.7480314960629921,
          "duration": 0.20689649999999915
        },
        {
          "name": "G4",
          "midi": 67,
          "time": 212.48270549999913,
          "velocity": 0.7480314960629921,
          "duration": 0.20689649999999915
        },
        {
          "name": "G3",
          "midi": 55,
          "time": 212.48270549999913,
          "velocity": 0.7480314960629921,
          "duration": 0.20689649999999915
        },
        {
          "name": "G4",
          "midi": 67,
          "time": 212.68960199999913,
          "velocity": 0.7480314960629921,
          "duration": 0.20689649999999915
        },
        {
          "name": "G3",
          "midi": 55,
          "time": 212.68960199999913,
          "velocity": 0.7480314960629921,
          "duration": 0.20689649999999915
        },
        {
          "name": "G4",
          "midi": 67,
          "time": 212.89649849999913,
          "velocity": 0.7480314960629921,
          "duration": 0.20689649999999915
        },
        {
          "name": "G3",
          "midi": 55,
          "time": 212.89649849999913,
          "velocity": 0.7480314960629921,
          "duration": 0.20689649999999915
        },
        {
          "name": "G4",
          "midi": 67,
          "time": 213.10339499999913,
          "velocity": 0.7480314960629921,
          "duration": 0.20689649999999915
        },
        {
          "name": "G3",
          "midi": 55,
          "time": 213.10339499999913,
          "velocity": 0.7480314960629921,
          "duration": 0.20689649999999915
        },
        {
          "name": "G4",
          "midi": 67,
          "time": 213.31029149999912,
          "velocity": 0.7480314960629921,
          "duration": 0.20689649999999915
        },
        {
          "name": "G3",
          "midi": 55,
          "time": 213.31029149999912,
          "velocity": 0.7480314960629921,
          "duration": 0.20689649999999915
        },
        {
          "name": "F#4",
          "midi": 66,
          "time": 213.51718799999912,
          "velocity": 0.7480314960629921,
          "duration": 0.6206894999999975
        },
        {
          "name": "F#3",
          "midi": 54,
          "time": 213.51718799999912,
          "velocity": 0.7480314960629921,
          "duration": 0.6206894999999975
        },
        {
          "name": "D4",
          "midi": 62,
          "time": 214.13787749999912,
          "velocity": 0.7480314960629921,
          "duration": 0.6206894999999975
        },
        {
          "name": "D3",
          "midi": 50,
          "time": 214.13787749999912,
          "velocity": 0.7480314960629921,
          "duration": 0.6206894999999975
        },
        {
          "name": "F#4",
          "midi": 66,
          "time": 214.75856699999912,
          "velocity": 0.7480314960629921,
          "duration": 0.4137929999999983
        },
        {
          "name": "F#3",
          "midi": 54,
          "time": 214.75856699999912,
          "velocity": 0.7480314960629921,
          "duration": 0.4137929999999983
        },
        {
          "name": "G4",
          "midi": 67,
          "time": 215.17235999999912,
          "velocity": 0.7480314960629921,
          "duration": 0.20689649999999915
        },
        {
          "name": "G3",
          "midi": 55,
          "time": 215.17235999999912,
          "velocity": 0.7480314960629921,
          "duration": 0.20689649999999915
        },
        {
          "name": "G4",
          "midi": 67,
          "time": 215.37925649999912,
          "velocity": 0.7480314960629921,
          "duration": 0.20689649999999915
        },
        {
          "name": "G3",
          "midi": 55,
          "time": 215.37925649999912,
          "velocity": 0.7480314960629921,
          "duration": 0.20689649999999915
        },
        {
          "name": "G4",
          "midi": 67,
          "time": 215.58615299999911,
          "velocity": 0.7480314960629921,
          "duration": 0.20689649999999915
        },
        {
          "name": "G3",
          "midi": 55,
          "time": 215.58615299999911,
          "velocity": 0.7480314960629921,
          "duration": 0.20689649999999915
        },
        {
          "name": "G4",
          "midi": 67,
          "time": 215.7930494999991,
          "velocity": 0.7480314960629921,
          "duration": 0.20689649999999915
        },
        {
          "name": "G3",
          "midi": 55,
          "time": 215.7930494999991,
          "velocity": 0.7480314960629921,
          "duration": 0.20689649999999915
        },
        {
          "name": "G4",
          "midi": 67,
          "time": 215.9999459999991,
          "velocity": 0.7480314960629921,
          "duration": 0.20689649999999915
        },
        {
          "name": "G3",
          "midi": 55,
          "time": 215.9999459999991,
          "velocity": 0.7480314960629921,
          "duration": 0.20689649999999915
        },
        {
          "name": "G4",
          "midi": 67,
          "time": 216.2068424999991,
          "velocity": 0.7480314960629921,
          "duration": 0.20689649999999915
        },
        {
          "name": "G3",
          "midi": 55,
          "time": 216.2068424999991,
          "velocity": 0.7480314960629921,
          "duration": 0.20689649999999915
        },
        {
          "name": "G4",
          "midi": 67,
          "time": 216.4137389999991,
          "velocity": 0.7480314960629921,
          "duration": 0.20689649999999915
        },
        {
          "name": "G3",
          "midi": 55,
          "time": 216.4137389999991,
          "velocity": 0.7480314960629921,
          "duration": 0.20689649999999915
        },
        {
          "name": "G4",
          "midi": 67,
          "time": 216.6206354999991,
          "velocity": 0.7480314960629921,
          "duration": 0.20689649999999915
        },
        {
          "name": "G3",
          "midi": 55,
          "time": 216.6206354999991,
          "velocity": 0.7480314960629921,
          "duration": 0.20689649999999915
        },
        {
          "name": "G4",
          "midi": 67,
          "time": 216.8275319999991,
          "velocity": 0.7480314960629921,
          "duration": 0.20689649999999915
        },
        {
          "name": "G3",
          "midi": 55,
          "time": 216.8275319999991,
          "velocity": 0.7480314960629921,
          "duration": 0.20689649999999915
        },
        {
          "name": "G4",
          "midi": 67,
          "time": 217.0344284999991,
          "velocity": 0.7480314960629921,
          "duration": 0.20689649999999915
        },
        {
          "name": "G3",
          "midi": 55,
          "time": 217.0344284999991,
          "velocity": 0.7480314960629921,
          "duration": 0.20689649999999915
        },
        {
          "name": "G4",
          "midi": 67,
          "time": 217.2413249999991,
          "velocity": 0.7480314960629921,
          "duration": 0.20689649999999915
        },
        {
          "name": "G3",
          "midi": 55,
          "time": 217.2413249999991,
          "velocity": 0.7480314960629921,
          "duration": 0.20689649999999915
        },
        {
          "name": "G4",
          "midi": 67,
          "time": 217.4482214999991,
          "velocity": 0.7480314960629921,
          "duration": 0.20689649999999915
        },
        {
          "name": "G3",
          "midi": 55,
          "time": 217.4482214999991,
          "velocity": 0.7480314960629921,
          "duration": 0.20689649999999915
        },
        {
          "name": "G4",
          "midi": 67,
          "time": 217.6551179999991,
          "velocity": 0.7480314960629921,
          "duration": 0.20689649999999915
        },
        {
          "name": "G3",
          "midi": 55,
          "time": 217.6551179999991,
          "velocity": 0.7480314960629921,
          "duration": 0.20689649999999915
        },
        {
          "name": "G4",
          "midi": 67,
          "time": 217.8620144999991,
          "velocity": 0.7480314960629921,
          "duration": 0.20689649999999915
        },
        {
          "name": "G3",
          "midi": 55,
          "time": 217.8620144999991,
          "velocity": 0.7480314960629921,
          "duration": 0.20689649999999915
        },
        {
          "name": "G4",
          "midi": 67,
          "time": 218.0689109999991,
          "velocity": 0.7480314960629921,
          "duration": 0.20689649999999915
        },
        {
          "name": "G3",
          "midi": 55,
          "time": 218.0689109999991,
          "velocity": 0.7480314960629921,
          "duration": 0.20689649999999915
        },
        {
          "name": "G4",
          "midi": 67,
          "time": 218.2758074999991,
          "velocity": 0.7480314960629921,
          "duration": 0.20689649999999915
        },
        {
          "name": "G3",
          "midi": 55,
          "time": 218.2758074999991,
          "velocity": 0.7480314960629921,
          "duration": 0.20689649999999915
        },
        {
          "name": "F#4",
          "midi": 66,
          "time": 218.4827039999991,
          "velocity": 0.7480314960629921,
          "duration": 0.6206894999999975
        },
        {
          "name": "F#3",
          "midi": 54,
          "time": 218.4827039999991,
          "velocity": 0.7480314960629921,
          "duration": 0.6206894999999975
        },
        {
          "name": "D4",
          "midi": 62,
          "time": 219.1033934999991,
          "velocity": 0.7480314960629921,
          "duration": 0.6206894999999975
        },
        {
          "name": "D3",
          "midi": 50,
          "time": 219.1033934999991,
          "velocity": 0.7480314960629921,
          "duration": 0.6206894999999975
        },
        {
          "name": "F#4",
          "midi": 66,
          "time": 219.7240829999991,
          "velocity": 0.7480314960629921,
          "duration": 0.4137929999999983
        },
        {
          "name": "F#3",
          "midi": 54,
          "time": 219.7240829999991,
          "velocity": 0.7480314960629921,
          "duration": 0.4137929999999983
        },
        {
          "name": "G4",
          "midi": 67,
          "time": 220.1378759999991,
          "velocity": 0.7480314960629921,
          "duration": 0.20689649999999915
        },
        {
          "name": "G3",
          "midi": 55,
          "time": 220.1378759999991,
          "velocity": 0.7480314960629921,
          "duration": 0.20689649999999915
        },
        {
          "name": "G4",
          "midi": 67,
          "time": 220.3447724999991,
          "velocity": 0.7480314960629921,
          "duration": 0.20689649999999915
        },
        {
          "name": "G3",
          "midi": 55,
          "time": 220.3447724999991,
          "velocity": 0.7480314960629921,
          "duration": 0.20689649999999915
        },
        {
          "name": "G4",
          "midi": 67,
          "time": 220.5516689999991,
          "velocity": 0.7480314960629921,
          "duration": 0.20689649999999915
        },
        {
          "name": "G3",
          "midi": 55,
          "time": 220.5516689999991,
          "velocity": 0.7480314960629921,
          "duration": 0.20689649999999915
        },
        {
          "name": "G4",
          "midi": 67,
          "time": 220.7585654999991,
          "velocity": 0.7480314960629921,
          "duration": 0.20689649999999915
        },
        {
          "name": "G3",
          "midi": 55,
          "time": 220.7585654999991,
          "velocity": 0.7480314960629921,
          "duration": 0.20689649999999915
        },
        {
          "name": "G4",
          "midi": 67,
          "time": 220.9654619999991,
          "velocity": 0.7480314960629921,
          "duration": 0.20689649999999915
        },
        {
          "name": "G3",
          "midi": 55,
          "time": 220.9654619999991,
          "velocity": 0.7480314960629921,
          "duration": 0.20689649999999915
        },
        {
          "name": "G4",
          "midi": 67,
          "time": 221.1723584999991,
          "velocity": 0.7480314960629921,
          "duration": 0.20689649999999915
        },
        {
          "name": "G3",
          "midi": 55,
          "time": 221.1723584999991,
          "velocity": 0.7480314960629921,
          "duration": 0.20689649999999915
        },
        {
          "name": "G4",
          "midi": 67,
          "time": 221.3792549999991,
          "velocity": 0.7480314960629921,
          "duration": 0.20689649999999915
        },
        {
          "name": "G3",
          "midi": 55,
          "time": 221.3792549999991,
          "velocity": 0.7480314960629921,
          "duration": 0.20689649999999915
        },
        {
          "name": "G4",
          "midi": 67,
          "time": 221.5861514999991,
          "velocity": 0.7480314960629921,
          "duration": 0.20689649999999915
        },
        {
          "name": "G3",
          "midi": 55,
          "time": 221.5861514999991,
          "velocity": 0.7480314960629921,
          "duration": 0.20689649999999915
        },
        {
          "name": "G4",
          "midi": 67,
          "time": 221.7930479999991,
          "velocity": 0.7480314960629921,
          "duration": 0.20689649999999915
        },
        {
          "name": "G3",
          "midi": 55,
          "time": 221.7930479999991,
          "velocity": 0.7480314960629921,
          "duration": 0.20689649999999915
        },
        {
          "name": "G4",
          "midi": 67,
          "time": 221.9999444999991,
          "velocity": 0.7480314960629921,
          "duration": 0.20689649999999915
        },
        {
          "name": "G3",
          "midi": 55,
          "time": 221.9999444999991,
          "velocity": 0.7480314960629921,
          "duration": 0.20689649999999915
        },
        {
          "name": "G4",
          "midi": 67,
          "time": 222.2068409999991,
          "velocity": 0.7480314960629921,
          "duration": 0.20689649999999915
        },
        {
          "name": "G3",
          "midi": 55,
          "time": 222.2068409999991,
          "velocity": 0.7480314960629921,
          "duration": 0.20689649999999915
        },
        {
          "name": "G4",
          "midi": 67,
          "time": 222.4137374999991,
          "velocity": 0.7480314960629921,
          "duration": 0.20689649999999915
        },
        {
          "name": "G3",
          "midi": 55,
          "time": 222.4137374999991,
          "velocity": 0.7480314960629921,
          "duration": 0.20689649999999915
        },
        {
          "name": "G4",
          "midi": 67,
          "time": 222.6206339999991,
          "velocity": 0.7480314960629921,
          "duration": 0.20689649999999915
        },
        {
          "name": "G3",
          "midi": 55,
          "time": 222.6206339999991,
          "velocity": 0.7480314960629921,
          "duration": 0.20689649999999915
        },
        {
          "name": "G4",
          "midi": 67,
          "time": 222.82753049999909,
          "velocity": 0.7480314960629921,
          "duration": 0.20689649999999915
        },
        {
          "name": "G3",
          "midi": 55,
          "time": 222.82753049999909,
          "velocity": 0.7480314960629921,
          "duration": 0.20689649999999915
        },
        {
          "name": "G4",
          "midi": 67,
          "time": 223.03442699999908,
          "velocity": 0.7480314960629921,
          "duration": 0.20689649999999915
        },
        {
          "name": "G3",
          "midi": 55,
          "time": 223.03442699999908,
          "velocity": 0.7480314960629921,
          "duration": 0.20689649999999915
        },
        {
          "name": "G4",
          "midi": 67,
          "time": 223.24132349999908,
          "velocity": 0.7480314960629921,
          "duration": 0.20689649999999915
        },
        {
          "name": "G3",
          "midi": 55,
          "time": 223.24132349999908,
          "velocity": 0.7480314960629921,
          "duration": 0.20689649999999915
        },
        {
          "name": "F#4",
          "midi": 66,
          "time": 223.44821999999908,
          "velocity": 0.7480314960629921,
          "duration": 0.6206894999999975
        },
        {
          "name": "F#3",
          "midi": 54,
          "time": 223.44821999999908,
          "velocity": 0.7480314960629921,
          "duration": 0.6206894999999975
        },
        {
          "name": "D4",
          "midi": 62,
          "time": 224.06890949999908,
          "velocity": 0.7480314960629921,
          "duration": 0.6206894999999975
        },
        {
          "name": "D3",
          "midi": 50,
          "time": 224.06890949999908,
          "velocity": 0.7480314960629921,
          "duration": 0.6206894999999975
        },
        {
          "name": "F#4",
          "midi": 66,
          "time": 224.68959899999908,
          "velocity": 0.7480314960629921,
          "duration": 0.4137929999999983
        },
        {
          "name": "F#3",
          "midi": 54,
          "time": 224.68959899999908,
          "velocity": 0.7480314960629921,
          "duration": 0.4137929999999983
        },
        {
          "name": "G4",
          "midi": 67,
          "time": 225.10339199999908,
          "velocity": 0.7480314960629921,
          "duration": 0.20689649999999915
        },
        {
          "name": "G3",
          "midi": 55,
          "time": 225.10339199999908,
          "velocity": 0.7480314960629921,
          "duration": 0.20689649999999915
        },
        {
          "name": "G4",
          "midi": 67,
          "time": 225.31028849999907,
          "velocity": 0.7480314960629921,
          "duration": 0.20689649999999915
        },
        {
          "name": "G3",
          "midi": 55,
          "time": 225.31028849999907,
          "velocity": 0.7480314960629921,
          "duration": 0.20689649999999915
        },
        {
          "name": "G4",
          "midi": 67,
          "time": 225.51718499999907,
          "velocity": 0.7480314960629921,
          "duration": 0.20689649999999915
        },
        {
          "name": "G3",
          "midi": 55,
          "time": 225.51718499999907,
          "velocity": 0.7480314960629921,
          "duration": 0.20689649999999915
        },
        {
          "name": "G4",
          "midi": 67,
          "time": 225.72408149999907,
          "velocity": 0.7480314960629921,
          "duration": 0.20689649999999915
        },
        {
          "name": "G3",
          "midi": 55,
          "time": 225.72408149999907,
          "velocity": 0.7480314960629921,
          "duration": 0.20689649999999915
        },
        {
          "name": "G4",
          "midi": 67,
          "time": 225.93097799999907,
          "velocity": 0.7480314960629921,
          "duration": 0.20689649999999915
        },
        {
          "name": "G3",
          "midi": 55,
          "time": 225.93097799999907,
          "velocity": 0.7480314960629921,
          "duration": 0.20689649999999915
        },
        {
          "name": "G4",
          "midi": 67,
          "time": 226.13787449999907,
          "velocity": 0.7480314960629921,
          "duration": 0.20689649999999915
        },
        {
          "name": "G3",
          "midi": 55,
          "time": 226.13787449999907,
          "velocity": 0.7480314960629921,
          "duration": 0.20689649999999915
        },
        {
          "name": "G4",
          "midi": 67,
          "time": 226.34477099999907,
          "velocity": 0.7480314960629921,
          "duration": 0.20689649999999915
        },
        {
          "name": "G3",
          "midi": 55,
          "time": 226.34477099999907,
          "velocity": 0.7480314960629921,
          "duration": 0.20689649999999915
        },
        {
          "name": "G4",
          "midi": 67,
          "time": 226.55166749999907,
          "velocity": 0.7480314960629921,
          "duration": 0.20689649999999915
        },
        {
          "name": "G3",
          "midi": 55,
          "time": 226.55166749999907,
          "velocity": 0.7480314960629921,
          "duration": 0.20689649999999915
        },
        {
          "name": "G4",
          "midi": 67,
          "time": 226.75856399999907,
          "velocity": 0.7480314960629921,
          "duration": 0.20689649999999915
        },
        {
          "name": "G3",
          "midi": 55,
          "time": 226.75856399999907,
          "velocity": 0.7480314960629921,
          "duration": 0.20689649999999915
        },
        {
          "name": "G4",
          "midi": 67,
          "time": 226.96546049999907,
          "velocity": 0.7480314960629921,
          "duration": 0.20689649999999915
        },
        {
          "name": "G3",
          "midi": 55,
          "time": 226.96546049999907,
          "velocity": 0.7480314960629921,
          "duration": 0.20689649999999915
        },
        {
          "name": "G4",
          "midi": 67,
          "time": 227.17235699999907,
          "velocity": 0.7480314960629921,
          "duration": 0.20689649999999915
        },
        {
          "name": "G3",
          "midi": 55,
          "time": 227.17235699999907,
          "velocity": 0.7480314960629921,
          "duration": 0.20689649999999915
        },
        {
          "name": "G4",
          "midi": 67,
          "time": 227.37925349999907,
          "velocity": 0.7480314960629921,
          "duration": 0.20689649999999915
        },
        {
          "name": "G3",
          "midi": 55,
          "time": 227.37925349999907,
          "velocity": 0.7480314960629921,
          "duration": 0.20689649999999915
        },
        {
          "name": "G4",
          "midi": 67,
          "time": 227.58614999999907,
          "velocity": 0.7480314960629921,
          "duration": 0.20689649999999915
        },
        {
          "name": "G3",
          "midi": 55,
          "time": 227.58614999999907,
          "velocity": 0.7480314960629921,
          "duration": 0.20689649999999915
        },
        {
          "name": "G4",
          "midi": 67,
          "time": 227.79304649999906,
          "velocity": 0.7480314960629921,
          "duration": 0.20689649999999915
        },
        {
          "name": "G3",
          "midi": 55,
          "time": 227.79304649999906,
          "velocity": 0.7480314960629921,
          "duration": 0.20689649999999915
        },
        {
          "name": "G4",
          "midi": 67,
          "time": 227.99994299999906,
          "velocity": 0.7480314960629921,
          "duration": 0.20689649999999915
        },
        {
          "name": "G3",
          "midi": 55,
          "time": 227.99994299999906,
          "velocity": 0.7480314960629921,
          "duration": 0.20689649999999915
        },
        {
          "name": "G4",
          "midi": 67,
          "time": 228.20683949999906,
          "velocity": 0.7480314960629921,
          "duration": 0.20689649999999915
        },
        {
          "name": "G3",
          "midi": 55,
          "time": 228.20683949999906,
          "velocity": 0.7480314960629921,
          "duration": 0.20689649999999915
        },
        {
          "name": "F#4",
          "midi": 66,
          "time": 228.41373599999906,
          "velocity": 0.7480314960629921,
          "duration": 0.6206894999999975
        },
        {
          "name": "F#3",
          "midi": 54,
          "time": 228.41373599999906,
          "velocity": 0.7480314960629921,
          "duration": 0.6206894999999975
        },
        {
          "name": "D4",
          "midi": 62,
          "time": 229.03442549999906,
          "velocity": 0.7480314960629921,
          "duration": 0.6206894999999975
        },
        {
          "name": "D3",
          "midi": 50,
          "time": 229.03442549999906,
          "velocity": 0.7480314960629921,
          "duration": 0.6206894999999975
        },
        {
          "name": "F#4",
          "midi": 66,
          "time": 229.65511499999906,
          "velocity": 0.7480314960629921,
          "duration": 0.4137929999999983
        },
        {
          "name": "F#3",
          "midi": 54,
          "time": 229.65511499999906,
          "velocity": 0.7480314960629921,
          "duration": 0.4137929999999983
        },
        {
          "name": "G4",
          "midi": 67,
          "time": 230.06890799999906,
          "velocity": 0.7480314960629921,
          "duration": 0.20689649999999915
        },
        {
          "name": "G3",
          "midi": 55,
          "time": 230.06890799999906,
          "velocity": 0.7480314960629921,
          "duration": 0.20689649999999915
        },
        {
          "name": "G4",
          "midi": 67,
          "time": 230.27580449999905,
          "velocity": 0.7480314960629921,
          "duration": 0.20689649999999915
        },
        {
          "name": "G3",
          "midi": 55,
          "time": 230.27580449999905,
          "velocity": 0.7480314960629921,
          "duration": 0.20689649999999915
        },
        {
          "name": "G4",
          "midi": 67,
          "time": 230.48270099999905,
          "velocity": 0.7480314960629921,
          "duration": 0.20689649999999915
        },
        {
          "name": "G3",
          "midi": 55,
          "time": 230.48270099999905,
          "velocity": 0.7480314960629921,
          "duration": 0.20689649999999915
        },
        {
          "name": "G4",
          "midi": 67,
          "time": 230.68959749999905,
          "velocity": 0.7480314960629921,
          "duration": 0.20689649999999915
        },
        {
          "name": "G3",
          "midi": 55,
          "time": 230.68959749999905,
          "velocity": 0.7480314960629921,
          "duration": 0.20689649999999915
        },
        {
          "name": "G4",
          "midi": 67,
          "time": 230.89649399999905,
          "velocity": 0.7480314960629921,
          "duration": 0.20689649999999915
        },
        {
          "name": "G3",
          "midi": 55,
          "time": 230.89649399999905,
          "velocity": 0.7480314960629921,
          "duration": 0.20689649999999915
        },
        {
          "name": "G4",
          "midi": 67,
          "time": 231.10339049999905,
          "velocity": 0.7480314960629921,
          "duration": 0.20689649999999915
        },
        {
          "name": "G3",
          "midi": 55,
          "time": 231.10339049999905,
          "velocity": 0.7480314960629921,
          "duration": 0.20689649999999915
        },
        {
          "name": "G4",
          "midi": 67,
          "time": 231.31028699999905,
          "velocity": 0.7480314960629921,
          "duration": 0.20689649999999915
        },
        {
          "name": "G3",
          "midi": 55,
          "time": 231.31028699999905,
          "velocity": 0.7480314960629921,
          "duration": 0.20689649999999915
        },
        {
          "name": "G4",
          "midi": 67,
          "time": 231.51718349999905,
          "velocity": 0.7480314960629921,
          "duration": 0.20689649999999915
        },
        {
          "name": "G3",
          "midi": 55,
          "time": 231.51718349999905,
          "velocity": 0.7480314960629921,
          "duration": 0.20689649999999915
        },
        {
          "name": "G4",
          "midi": 67,
          "time": 231.72407999999905,
          "velocity": 0.7480314960629921,
          "duration": 0.20689649999999915
        },
        {
          "name": "G3",
          "midi": 55,
          "time": 231.72407999999905,
          "velocity": 0.7480314960629921,
          "duration": 0.20689649999999915
        },
        {
          "name": "G4",
          "midi": 67,
          "time": 231.93097649999905,
          "velocity": 0.7480314960629921,
          "duration": 0.20689649999999915
        },
        {
          "name": "G3",
          "midi": 55,
          "time": 231.93097649999905,
          "velocity": 0.7480314960629921,
          "duration": 0.20689649999999915
        },
        {
          "name": "G4",
          "midi": 67,
          "time": 232.13787299999905,
          "velocity": 0.7480314960629921,
          "duration": 0.20689649999999915
        },
        {
          "name": "G3",
          "midi": 55,
          "time": 232.13787299999905,
          "velocity": 0.7480314960629921,
          "duration": 0.20689649999999915
        },
        {
          "name": "G4",
          "midi": 67,
          "time": 232.34476949999905,
          "velocity": 0.7480314960629921,
          "duration": 0.20689649999999915
        },
        {
          "name": "G3",
          "midi": 55,
          "time": 232.34476949999905,
          "velocity": 0.7480314960629921,
          "duration": 0.20689649999999915
        },
        {
          "name": "G4",
          "midi": 67,
          "time": 232.55166599999905,
          "velocity": 0.7480314960629921,
          "duration": 0.20689649999999915
        },
        {
          "name": "G3",
          "midi": 55,
          "time": 232.55166599999905,
          "velocity": 0.7480314960629921,
          "duration": 0.20689649999999915
        },
        {
          "name": "G4",
          "midi": 67,
          "time": 232.75856249999904,
          "velocity": 0.7480314960629921,
          "duration": 0.20689649999999915
        },
        {
          "name": "G3",
          "midi": 55,
          "time": 232.75856249999904,
          "velocity": 0.7480314960629921,
          "duration": 0.20689649999999915
        },
        {
          "name": "G4",
          "midi": 67,
          "time": 232.96545899999904,
          "velocity": 0.7480314960629921,
          "duration": 0.20689649999999915
        },
        {
          "name": "G3",
          "midi": 55,
          "time": 232.96545899999904,
          "velocity": 0.7480314960629921,
          "duration": 0.20689649999999915
        },
        {
          "name": "G4",
          "midi": 67,
          "time": 233.17235549999904,
          "velocity": 0.7480314960629921,
          "duration": 0.20689649999999915
        },
        {
          "name": "G3",
          "midi": 55,
          "time": 233.17235549999904,
          "velocity": 0.7480314960629921,
          "duration": 0.20689649999999915
        },
        {
          "name": "F#4",
          "midi": 66,
          "time": 233.37925199999904,
          "velocity": 0.7480314960629921,
          "duration": 0.6206894999999975
        },
        {
          "name": "F#3",
          "midi": 54,
          "time": 233.37925199999904,
          "velocity": 0.7480314960629921,
          "duration": 0.6206894999999975
        },
        {
          "name": "D4",
          "midi": 62,
          "time": 233.99994149999904,
          "velocity": 0.7480314960629921,
          "duration": 0.6206894999999975
        },
        {
          "name": "D3",
          "midi": 50,
          "time": 233.99994149999904,
          "velocity": 0.7480314960629921,
          "duration": 0.6206894999999975
        },
        {
          "name": "F#4",
          "midi": 66,
          "time": 234.62063099999904,
          "velocity": 0.7480314960629921,
          "duration": 0.4137929999999983
        },
        {
          "name": "F#3",
          "midi": 54,
          "time": 234.62063099999904,
          "velocity": 0.7480314960629921,
          "duration": 0.4137929999999983
        },
        {
          "name": "G4",
          "midi": 67,
          "time": 235.03442399999904,
          "velocity": 0.7480314960629921,
          "duration": 0.20689649999999915
        },
        {
          "name": "G3",
          "midi": 55,
          "time": 235.03442399999904,
          "velocity": 0.7480314960629921,
          "duration": 0.20689649999999915
        },
        {
          "name": "G4",
          "midi": 67,
          "time": 235.24132049999903,
          "velocity": 0.7480314960629921,
          "duration": 0.20689649999999915
        },
        {
          "name": "G3",
          "midi": 55,
          "time": 235.24132049999903,
          "velocity": 0.7480314960629921,
          "duration": 0.20689649999999915
        },
        {
          "name": "G4",
          "midi": 67,
          "time": 235.44821699999903,
          "velocity": 0.7480314960629921,
          "duration": 0.20689649999999915
        },
        {
          "name": "G3",
          "midi": 55,
          "time": 235.44821699999903,
          "velocity": 0.7480314960629921,
          "duration": 0.20689649999999915
        },
        {
          "name": "G4",
          "midi": 67,
          "time": 235.65511349999903,
          "velocity": 0.7480314960629921,
          "duration": 0.20689649999999915
        },
        {
          "name": "G3",
          "midi": 55,
          "time": 235.65511349999903,
          "velocity": 0.7480314960629921,
          "duration": 0.20689649999999915
        },
        {
          "name": "G4",
          "midi": 67,
          "time": 235.86200999999903,
          "velocity": 0.7480314960629921,
          "duration": 0.20689649999999915
        },
        {
          "name": "G3",
          "midi": 55,
          "time": 235.86200999999903,
          "velocity": 0.7480314960629921,
          "duration": 0.20689649999999915
        },
        {
          "name": "G4",
          "midi": 67,
          "time": 236.06890649999903,
          "velocity": 0.7480314960629921,
          "duration": 0.20689649999999915
        },
        {
          "name": "G3",
          "midi": 55,
          "time": 236.06890649999903,
          "velocity": 0.7480314960629921,
          "duration": 0.20689649999999915
        },
        {
          "name": "G4",
          "midi": 67,
          "time": 236.27580299999903,
          "velocity": 0.7480314960629921,
          "duration": 0.20689649999999915
        },
        {
          "name": "G3",
          "midi": 55,
          "time": 236.27580299999903,
          "velocity": 0.7480314960629921,
          "duration": 0.20689649999999915
        },
        {
          "name": "G4",
          "midi": 67,
          "time": 236.48269949999903,
          "velocity": 0.7480314960629921,
          "duration": 0.20689649999999915
        },
        {
          "name": "G3",
          "midi": 55,
          "time": 236.48269949999903,
          "velocity": 0.7480314960629921,
          "duration": 0.20689649999999915
        },
        {
          "name": "G4",
          "midi": 67,
          "time": 236.68959599999903,
          "velocity": 0.7480314960629921,
          "duration": 0.20689649999999915
        },
        {
          "name": "G3",
          "midi": 55,
          "time": 236.68959599999903,
          "velocity": 0.7480314960629921,
          "duration": 0.20689649999999915
        },
        {
          "name": "G4",
          "midi": 67,
          "time": 236.89649249999903,
          "velocity": 0.7480314960629921,
          "duration": 0.20689649999999915
        },
        {
          "name": "G3",
          "midi": 55,
          "time": 236.89649249999903,
          "velocity": 0.7480314960629921,
          "duration": 0.20689649999999915
        },
        {
          "name": "G4",
          "midi": 67,
          "time": 237.10338899999903,
          "velocity": 0.7480314960629921,
          "duration": 0.20689649999999915
        },
        {
          "name": "G3",
          "midi": 55,
          "time": 237.10338899999903,
          "velocity": 0.7480314960629921,
          "duration": 0.20689649999999915
        },
        {
          "name": "G4",
          "midi": 67,
          "time": 237.31028549999903,
          "velocity": 0.7480314960629921,
          "duration": 0.20689649999999915
        },
        {
          "name": "G3",
          "midi": 55,
          "time": 237.31028549999903,
          "velocity": 0.7480314960629921,
          "duration": 0.20689649999999915
        },
        {
          "name": "G4",
          "midi": 67,
          "time": 237.51718199999902,
          "velocity": 0.7480314960629921,
          "duration": 0.20689649999999915
        },
        {
          "name": "G3",
          "midi": 55,
          "time": 237.51718199999902,
          "velocity": 0.7480314960629921,
          "duration": 0.20689649999999915
        },
        {
          "name": "G4",
          "midi": 67,
          "time": 237.72407849999902,
          "velocity": 0.7480314960629921,
          "duration": 0.20689649999999915
        },
        {
          "name": "G3",
          "midi": 55,
          "time": 237.72407849999902,
          "velocity": 0.7480314960629921,
          "duration": 0.20689649999999915
        },
        {
          "name": "G4",
          "midi": 67,
          "time": 237.93097499999902,
          "velocity": 0.7480314960629921,
          "duration": 0.20689649999999915
        },
        {
          "name": "G3",
          "midi": 55,
          "time": 237.93097499999902,
          "velocity": 0.7480314960629921,
          "duration": 0.20689649999999915
        },
        {
          "name": "G4",
          "midi": 67,
          "time": 238.13787149999902,
          "velocity": 0.7480314960629921,
          "duration": 0.20689649999999915
        },
        {
          "name": "G3",
          "midi": 55,
          "time": 238.13787149999902,
          "velocity": 0.7480314960629921,
          "duration": 0.20689649999999915
        },
        {
          "name": "F#4",
          "midi": 66,
          "time": 238.34476799999902,
          "velocity": 0.7480314960629921,
          "duration": 0.6206894999999975
        },
        {
          "name": "F#3",
          "midi": 54,
          "time": 238.34476799999902,
          "velocity": 0.7480314960629921,
          "duration": 0.6206894999999975
        },
        {
          "name": "D4",
          "midi": 62,
          "time": 238.96545749999902,
          "velocity": 0.7480314960629921,
          "duration": 0.6206894999999975
        },
        {
          "name": "D3",
          "midi": 50,
          "time": 238.96545749999902,
          "velocity": 0.7480314960629921,
          "duration": 0.6206894999999975
        },
        {
          "name": "F#4",
          "midi": 66,
          "time": 239.58614699999902,
          "velocity": 0.7480314960629921,
          "duration": 0.4137929999999983
        },
        {
          "name": "F#3",
          "midi": 54,
          "time": 239.58614699999902,
          "velocity": 0.7480314960629921,
          "duration": 0.4137929999999983
        }
      ],
      "controlChanges": {
        "7": [
          {
            "number": 7,
            "time": 0,
            "value": 0.8110236220472441
          },
          {
            "number": 7,
            "time": 0,
            "value": 0.8110236220472441
          }
        ],
        "10": [
          {
            "number": 10,
            "time": 0,
            "value": 0.5590551181102362
          },
          {
            "number": 10,
            "time": 0,
            "value": 0.5590551181102362
          }
        ],
        "11": [
          {
            "number": 11,
            "time": 0,
            "value": 1
          },
          {
            "number": 11,
            "time": 0,
            "value": 1
          }
        ],
        "91": [
          {
            "number": 91,
            "time": 0,
            "value": 0
          },
          {
            "number": 91,
            "time": 0,
            "value": 0
          }
        ],
        "92": [
          {
            "number": 92,
            "time": 0,
            "value": 0
          },
          {
            "number": 92,
            "time": 0,
            "value": 0
          }
        ],
        "93": [
          {
            "number": 93,
            "time": 0,
            "value": 0
          },
          {
            "number": 93,
            "time": 0,
            "value": 0
          }
        ],
        "95": [
          {
            "number": 95,
            "time": 0,
            "value": 0
          },
          {
            "number": 95,
            "time": 0,
            "value": 0
          }
        ]
      },
      "id": 2,
      "instrumentNumber": 29,
      "instrument": "overdriven guitar",
      "instrumentFamily": "guitar",
      "channelNumber": 3,
      "isPercussion": false
    },
    {
      "startTime": 2.896551,
      "duration": 263.1723479999982,
      "length": 1031,
      "notes": [
        {
          "name": "D2",
          "midi": 38,
          "time": 2.896551,
          "velocity": 0.7480314960629921,
          "duration": 0.4137930000000001
        },
        {
          "name": "D2",
          "midi": 38,
          "time": 6.206895,
          "velocity": 0.7480314960629921,
          "duration": 0.4137930000000001
        },
        {
          "name": "D2",
          "midi": 38,
          "time": 9.517239,
          "velocity": 0.7480314960629921,
          "duration": 0.4137930000000001
        },
        {
          "name": "A1",
          "midi": 33,
          "time": 12.41379,
          "velocity": 0.7480314960629921,
          "duration": 0.8275859999999966
        },
        {
          "name": "D2",
          "midi": 38,
          "time": 13.241375999999997,
          "velocity": 0.7480314960629921,
          "duration": 0.20689649999999915
        },
        {
          "name": "D2",
          "midi": 38,
          "time": 13.448272499999996,
          "velocity": 0.7480314960629921,
          "duration": 0.20689649999999915
        },
        {
          "name": "D2",
          "midi": 38,
          "time": 13.655168999999995,
          "velocity": 0.7480314960629921,
          "duration": 0.20689649999999915
        },
        {
          "name": "D2",
          "midi": 38,
          "time": 13.862065499999995,
          "velocity": 0.7480314960629921,
          "duration": 0.20689649999999915
        },
        {
          "name": "D2",
          "midi": 38,
          "time": 14.068961999999994,
          "velocity": 0.7480314960629921,
          "duration": 0.20689649999999915
        },
        {
          "name": "D2",
          "midi": 38,
          "time": 14.275858499999993,
          "velocity": 0.7480314960629921,
          "duration": 0.20689649999999915
        },
        {
          "name": "D2",
          "midi": 38,
          "time": 14.482754999999992,
          "velocity": 0.7480314960629921,
          "duration": 0.20689649999999915
        },
        {
          "name": "D2",
          "midi": 38,
          "time": 14.689651499999991,
          "velocity": 0.7480314960629921,
          "duration": 0.20689649999999915
        },
        {
          "name": "D2",
          "midi": 38,
          "time": 14.89654799999999,
          "velocity": 0.7480314960629921,
          "duration": 0.20689649999999915
        },
        {
          "name": "D2",
          "midi": 38,
          "time": 15.10344449999999,
          "velocity": 0.7480314960629921,
          "duration": 0.20689649999999915
        },
        {
          "name": "D2",
          "midi": 38,
          "time": 15.310340999999989,
          "velocity": 0.7480314960629921,
          "duration": 0.20689649999999915
        },
        {
          "name": "D2",
          "midi": 38,
          "time": 15.517237499999988,
          "velocity": 0.7480314960629921,
          "duration": 0.20689649999999915
        },
        {
          "name": "D2",
          "midi": 38,
          "time": 15.724133999999987,
          "velocity": 0.7480314960629921,
          "duration": 0.20689649999999915
        },
        {
          "name": "D2",
          "midi": 38,
          "time": 15.931030499999986,
          "velocity": 0.7480314960629921,
          "duration": 0.20689650000000093
        },
        {
          "name": "C2",
          "midi": 36,
          "time": 16.137926999999987,
          "velocity": 0.7480314960629921,
          "duration": 0.20689649999999915
        },
        {
          "name": "C2",
          "midi": 36,
          "time": 16.344823499999986,
          "velocity": 0.7480314960629921,
          "duration": 0.20689649999999915
        },
        {
          "name": "C2",
          "midi": 36,
          "time": 16.551719999999985,
          "velocity": 0.7480314960629921,
          "duration": 0.20689649999999915
        },
        {
          "name": "C2",
          "midi": 36,
          "time": 16.758616499999984,
          "velocity": 0.7480314960629921,
          "duration": 0.20689649999999915
        },
        {
          "name": "C2",
          "midi": 36,
          "time": 16.965512999999984,
          "velocity": 0.7480314960629921,
          "duration": 0.20689649999999915
        },
        {
          "name": "C2",
          "midi": 36,
          "time": 17.172409499999983,
          "velocity": 0.7480314960629921,
          "duration": 0.20689649999999915
        },
        {
          "name": "C2",
          "midi": 36,
          "time": 17.379305999999982,
          "velocity": 0.7480314960629921,
          "duration": 0.20689649999999915
        },
        {
          "name": "C2",
          "midi": 36,
          "time": 17.58620249999998,
          "velocity": 0.7480314960629921,
          "duration": 0.20689649999999915
        },
        {
          "name": "C2",
          "midi": 36,
          "time": 17.79309899999998,
          "velocity": 0.7480314960629921,
          "duration": 0.20689649999999915
        },
        {
          "name": "C2",
          "midi": 36,
          "time": 17.99999549999998,
          "velocity": 0.7480314960629921,
          "duration": 0.20689649999999915
        },
        {
          "name": "C2",
          "midi": 36,
          "time": 18.20689199999998,
          "velocity": 0.7480314960629921,
          "duration": 0.20689649999999915
        },
        {
          "name": "C2",
          "midi": 36,
          "time": 18.413788499999978,
          "velocity": 0.7480314960629921,
          "duration": 0.20689649999999915
        },
        {
          "name": "C2",
          "midi": 36,
          "time": 18.620684999999977,
          "velocity": 0.7480314960629921,
          "duration": 0.20689649999999915
        },
        {
          "name": "C2",
          "midi": 36,
          "time": 18.827581499999976,
          "velocity": 0.7480314960629921,
          "duration": 0.20689649999999915
        },
        {
          "name": "B1",
          "midi": 35,
          "time": 19.034477999999975,
          "velocity": 0.7480314960629921,
          "duration": 0.20689649999999915
        },
        {
          "name": "B1",
          "midi": 35,
          "time": 19.241374499999974,
          "velocity": 0.7480314960629921,
          "duration": 0.20689649999999915
        },
        {
          "name": "B1",
          "midi": 35,
          "time": 19.448270999999973,
          "velocity": 0.7480314960629921,
          "duration": 0.20689649999999915
        },
        {
          "name": "B1",
          "midi": 35,
          "time": 19.655167499999973,
          "velocity": 0.7480314960629921,
          "duration": 0.20689649999999915
        },
        {
          "name": "B1",
          "midi": 35,
          "time": 19.86206399999997,
          "velocity": 0.7480314960629921,
          "duration": 0.20689649999999915
        },
        {
          "name": "B1",
          "midi": 35,
          "time": 20.06896049999997,
          "velocity": 0.7480314960629921,
          "duration": 0.20689649999999915
        },
        {
          "name": "B1",
          "midi": 35,
          "time": 20.27585699999997,
          "velocity": 0.7480314960629921,
          "duration": 0.20689649999999915
        },
        {
          "name": "B1",
          "midi": 35,
          "time": 20.48275349999997,
          "velocity": 0.7480314960629921,
          "duration": 0.20689649999999915
        },
        {
          "name": "B1",
          "midi": 35,
          "time": 20.68964999999997,
          "velocity": 0.7480314960629921,
          "duration": 0.20689649999999915
        },
        {
          "name": "B1",
          "midi": 35,
          "time": 20.896546499999967,
          "velocity": 0.7480314960629921,
          "duration": 0.20689649999999915
        },
        {
          "name": "B1",
          "midi": 35,
          "time": 21.103442999999967,
          "velocity": 0.7480314960629921,
          "duration": 0.20689649999999915
        },
        {
          "name": "B1",
          "midi": 35,
          "time": 21.310339499999966,
          "velocity": 0.7480314960629921,
          "duration": 0.20689649999999915
        },
        {
          "name": "B1",
          "midi": 35,
          "time": 21.517235999999965,
          "velocity": 0.7480314960629921,
          "duration": 0.20689649999999915
        },
        {
          "name": "B1",
          "midi": 35,
          "time": 21.724132499999964,
          "velocity": 0.7480314960629921,
          "duration": 0.20689649999999915
        },
        {
          "name": "D2",
          "midi": 38,
          "time": 21.931028999999963,
          "velocity": 0.7480314960629921,
          "duration": 0.20689649999999915
        },
        {
          "name": "D2",
          "midi": 38,
          "time": 22.137925499999962,
          "velocity": 0.7480314960629921,
          "duration": 0.20689649999999915
        },
        {
          "name": "D2",
          "midi": 38,
          "time": 22.34482199999996,
          "velocity": 0.7480314960629921,
          "duration": 0.20689649999999915
        },
        {
          "name": "D2",
          "midi": 38,
          "time": 22.55171849999996,
          "velocity": 0.7480314960629921,
          "duration": 0.20689649999999915
        },
        {
          "name": "D2",
          "midi": 38,
          "time": 22.75861499999996,
          "velocity": 0.7480314960629921,
          "duration": 0.20689649999999915
        },
        {
          "name": "D2",
          "midi": 38,
          "time": 22.96551149999996,
          "velocity": 0.7480314960629921,
          "duration": 0.20689649999999915
        },
        {
          "name": "D2",
          "midi": 38,
          "time": 23.172407999999958,
          "velocity": 0.7480314960629921,
          "duration": 0.20689649999999915
        },
        {
          "name": "D2",
          "midi": 38,
          "time": 23.379304499999957,
          "velocity": 0.7480314960629921,
          "duration": 0.20689649999999915
        },
        {
          "name": "D2",
          "midi": 38,
          "time": 23.586200999999956,
          "velocity": 0.7480314960629921,
          "duration": 0.20689649999999915
        },
        {
          "name": "D2",
          "midi": 38,
          "time": 23.793097499999956,
          "velocity": 0.7480314960629921,
          "duration": 0.20689649999999915
        },
        {
          "name": "D2",
          "midi": 38,
          "time": 23.999993999999955,
          "velocity": 0.7480314960629921,
          "duration": 0.20689649999999915
        },
        {
          "name": "D2",
          "midi": 38,
          "time": 24.206890499999954,
          "velocity": 0.7480314960629921,
          "duration": 0.20689649999999915
        },
        {
          "name": "D2",
          "midi": 38,
          "time": 24.413786999999953,
          "velocity": 0.7480314960629921,
          "duration": 0.20689649999999915
        },
        {
          "name": "D2",
          "midi": 38,
          "time": 24.620683499999952,
          "velocity": 0.7480314960629921,
          "duration": 0.20689649999999915
        },
        {
          "name": "C2",
          "midi": 36,
          "time": 24.82757999999995,
          "velocity": 0.7480314960629921,
          "duration": 0.20689649999999915
        },
        {
          "name": "C2",
          "midi": 36,
          "time": 25.03447649999995,
          "velocity": 0.7480314960629921,
          "duration": 0.20689649999999915
        },
        {
          "name": "C2",
          "midi": 36,
          "time": 25.24137299999995,
          "velocity": 0.7480314960629921,
          "duration": 0.20689649999999915
        },
        {
          "name": "C2",
          "midi": 36,
          "time": 25.44826949999995,
          "velocity": 0.7480314960629921,
          "duration": 0.20689649999999915
        },
        {
          "name": "C2",
          "midi": 36,
          "time": 25.655165999999948,
          "velocity": 0.7480314960629921,
          "duration": 0.20689649999999915
        },
        {
          "name": "C2",
          "midi": 36,
          "time": 25.862062499999947,
          "velocity": 0.7480314960629921,
          "duration": 0.20689649999999915
        },
        {
          "name": "C2",
          "midi": 36,
          "time": 26.068958999999946,
          "velocity": 0.7480314960629921,
          "duration": 0.20689649999999915
        },
        {
          "name": "C2",
          "midi": 36,
          "time": 26.275855499999945,
          "velocity": 0.7480314960629921,
          "duration": 0.20689649999999915
        },
        {
          "name": "C2",
          "midi": 36,
          "time": 26.482751999999945,
          "velocity": 0.7480314960629921,
          "duration": 0.20689649999999915
        },
        {
          "name": "C2",
          "midi": 36,
          "time": 26.689648499999944,
          "velocity": 0.7480314960629921,
          "duration": 0.20689649999999915
        },
        {
          "name": "C2",
          "midi": 36,
          "time": 26.896544999999943,
          "velocity": 0.7480314960629921,
          "duration": 0.20689649999999915
        },
        {
          "name": "C2",
          "midi": 36,
          "time": 27.103441499999942,
          "velocity": 0.7480314960629921,
          "duration": 0.20689649999999915
        },
        {
          "name": "C2",
          "midi": 36,
          "time": 27.31033799999994,
          "velocity": 0.7480314960629921,
          "duration": 0.20689649999999915
        },
        {
          "name": "C2",
          "midi": 36,
          "time": 27.51723449999994,
          "velocity": 0.7480314960629921,
          "duration": 0.20689649999999915
        },
        {
          "name": "B1",
          "midi": 35,
          "time": 27.72413099999994,
          "velocity": 0.7480314960629921,
          "duration": 0.20689649999999915
        },
        {
          "name": "B1",
          "midi": 35,
          "time": 27.93102749999994,
          "velocity": 0.7480314960629921,
          "duration": 0.20689649999999915
        },
        {
          "name": "B1",
          "midi": 35,
          "time": 28.137923999999938,
          "velocity": 0.7480314960629921,
          "duration": 0.20689649999999915
        },
        {
          "name": "B1",
          "midi": 35,
          "time": 28.344820499999937,
          "velocity": 0.7480314960629921,
          "duration": 0.20689649999999915
        },
        {
          "name": "B1",
          "midi": 35,
          "time": 28.551716999999936,
          "velocity": 0.7480314960629921,
          "duration": 0.20689649999999915
        },
        {
          "name": "B1",
          "midi": 35,
          "time": 28.758613499999935,
          "velocity": 0.7480314960629921,
          "duration": 0.20689649999999915
        },
        {
          "name": "B1",
          "midi": 35,
          "time": 28.965509999999934,
          "velocity": 0.7480314960629921,
          "duration": 0.20689649999999915
        },
        {
          "name": "B1",
          "midi": 35,
          "time": 29.172406499999934,
          "velocity": 0.7480314960629921,
          "duration": 0.20689649999999915
        },
        {
          "name": "B1",
          "midi": 35,
          "time": 29.379302999999933,
          "velocity": 0.7480314960629921,
          "duration": 0.20689649999999915
        },
        {
          "name": "B1",
          "midi": 35,
          "time": 29.586199499999932,
          "velocity": 0.7480314960629921,
          "duration": 0.20689649999999915
        },
        {
          "name": "B1",
          "midi": 35,
          "time": 29.79309599999993,
          "velocity": 0.7480314960629921,
          "duration": 0.20689649999999915
        },
        {
          "name": "B1",
          "midi": 35,
          "time": 29.99999249999993,
          "velocity": 0.7480314960629921,
          "duration": 0.20689649999999915
        },
        {
          "name": "B1",
          "midi": 35,
          "time": 30.20688899999993,
          "velocity": 0.7480314960629921,
          "duration": 0.20689649999999915
        },
        {
          "name": "B1",
          "midi": 35,
          "time": 30.41378549999993,
          "velocity": 0.7480314960629921,
          "duration": 0.20689649999999915
        },
        {
          "name": "D2",
          "midi": 38,
          "time": 30.620681999999928,
          "velocity": 0.7480314960629921,
          "duration": 0.20689649999999915
        },
        {
          "name": "D2",
          "midi": 38,
          "time": 30.827578499999927,
          "velocity": 0.7480314960629921,
          "duration": 0.20689649999999915
        },
        {
          "name": "D2",
          "midi": 38,
          "time": 31.034474999999926,
          "velocity": 0.7480314960629921,
          "duration": 0.20689649999999915
        },
        {
          "name": "D2",
          "midi": 38,
          "time": 31.241371499999925,
          "velocity": 0.7480314960629921,
          "duration": 0.20689649999999915
        },
        {
          "name": "D2",
          "midi": 38,
          "time": 31.448267999999924,
          "velocity": 0.7480314960629921,
          "duration": 0.20689649999999915
        },
        {
          "name": "D2",
          "midi": 38,
          "time": 31.655164499999923,
          "velocity": 0.7480314960629921,
          "duration": 0.20689649999999915
        },
        {
          "name": "D2",
          "midi": 38,
          "time": 31.862060999999922,
          "velocity": 0.7480314960629921,
          "duration": 0.2068965000000027
        },
        {
          "name": "D2",
          "midi": 38,
          "time": 32.068957499999925,
          "velocity": 0.7480314960629921,
          "duration": 0.20689649999999915
        },
        {
          "name": "D2",
          "midi": 38,
          "time": 32.275853999999924,
          "velocity": 0.7480314960629921,
          "duration": 0.20689649999999915
        },
        {
          "name": "D2",
          "midi": 38,
          "time": 32.48275049999992,
          "velocity": 0.7480314960629921,
          "duration": 0.20689649999999915
        },
        {
          "name": "D2",
          "midi": 38,
          "time": 32.68964699999992,
          "velocity": 0.7480314960629921,
          "duration": 0.20689649999999915
        },
        {
          "name": "D2",
          "midi": 38,
          "time": 32.89654349999992,
          "velocity": 0.7480314960629921,
          "duration": 0.20689649999999915
        },
        {
          "name": "D2",
          "midi": 38,
          "time": 33.10343999999992,
          "velocity": 0.7480314960629921,
          "duration": 0.20689649999999915
        },
        {
          "name": "D2",
          "midi": 38,
          "time": 33.31033649999992,
          "velocity": 0.7480314960629921,
          "duration": 0.20689649999999915
        },
        {
          "name": "C2",
          "midi": 36,
          "time": 33.51723299999992,
          "velocity": 0.7480314960629921,
          "duration": 0.20689649999999915
        },
        {
          "name": "C2",
          "midi": 36,
          "time": 33.72412949999992,
          "velocity": 0.7480314960629921,
          "duration": 0.20689649999999915
        },
        {
          "name": "C2",
          "midi": 36,
          "time": 33.93102599999992,
          "velocity": 0.7480314960629921,
          "duration": 0.20689649999999915
        },
        {
          "name": "C2",
          "midi": 36,
          "time": 34.13792249999992,
          "velocity": 0.7480314960629921,
          "duration": 0.20689649999999915
        },
        {
          "name": "C2",
          "midi": 36,
          "time": 34.344818999999916,
          "velocity": 0.7480314960629921,
          "duration": 0.20689649999999915
        },
        {
          "name": "C2",
          "midi": 36,
          "time": 34.551715499999915,
          "velocity": 0.7480314960629921,
          "duration": 0.20689649999999915
        },
        {
          "name": "C2",
          "midi": 36,
          "time": 34.758611999999914,
          "velocity": 0.7480314960629921,
          "duration": 0.20689649999999915
        },
        {
          "name": "C2",
          "midi": 36,
          "time": 34.96550849999991,
          "velocity": 0.7480314960629921,
          "duration": 0.20689649999999915
        },
        {
          "name": "C2",
          "midi": 36,
          "time": 35.17240499999991,
          "velocity": 0.7480314960629921,
          "duration": 0.20689649999999915
        },
        {
          "name": "C2",
          "midi": 36,
          "time": 35.37930149999991,
          "velocity": 0.7480314960629921,
          "duration": 0.20689649999999915
        },
        {
          "name": "C2",
          "midi": 36,
          "time": 35.58619799999991,
          "velocity": 0.7480314960629921,
          "duration": 0.20689649999999915
        },
        {
          "name": "C2",
          "midi": 36,
          "time": 35.79309449999991,
          "velocity": 0.7480314960629921,
          "duration": 0.20689649999999915
        },
        {
          "name": "G2",
          "midi": 43,
          "time": 35.99999099999991,
          "velocity": 0.7480314960629921,
          "duration": 0.20689649999999915
        },
        {
          "name": "G2",
          "midi": 43,
          "time": 36.20688749999991,
          "velocity": 0.7480314960629921,
          "duration": 0.20689649999999915
        },
        {
          "name": "B1",
          "midi": 35,
          "time": 36.41378399999991,
          "velocity": 0.7480314960629921,
          "duration": 0.20689649999999915
        },
        {
          "name": "B1",
          "midi": 35,
          "time": 36.62068049999991,
          "velocity": 0.7480314960629921,
          "duration": 0.20689649999999915
        },
        {
          "name": "B1",
          "midi": 35,
          "time": 36.827576999999906,
          "velocity": 0.7480314960629921,
          "duration": 0.20689649999999915
        },
        {
          "name": "B1",
          "midi": 35,
          "time": 37.034473499999905,
          "velocity": 0.7480314960629921,
          "duration": 0.20689649999999915
        },
        {
          "name": "B1",
          "midi": 35,
          "time": 37.241369999999904,
          "velocity": 0.7480314960629921,
          "duration": 0.20689649999999915
        },
        {
          "name": "B1",
          "midi": 35,
          "time": 37.4482664999999,
          "velocity": 0.7480314960629921,
          "duration": 0.20689649999999915
        },
        {
          "name": "B1",
          "midi": 35,
          "time": 37.6551629999999,
          "velocity": 0.7480314960629921,
          "duration": 0.20689649999999915
        },
        {
          "name": "B1",
          "midi": 35,
          "time": 37.8620594999999,
          "velocity": 0.7480314960629921,
          "duration": 0.20689649999999915
        },
        {
          "name": "B1",
          "midi": 35,
          "time": 38.0689559999999,
          "velocity": 0.7480314960629921,
          "duration": 0.20689649999999915
        },
        {
          "name": "B1",
          "midi": 35,
          "time": 38.2758524999999,
          "velocity": 0.7480314960629921,
          "duration": 0.20689649999999915
        },
        {
          "name": "B1",
          "midi": 35,
          "time": 38.4827489999999,
          "velocity": 0.7480314960629921,
          "duration": 0.20689649999999915
        },
        {
          "name": "B1",
          "midi": 35,
          "time": 38.6896454999999,
          "velocity": 0.7480314960629921,
          "duration": 0.20689649999999915
        },
        {
          "name": "B1",
          "midi": 35,
          "time": 38.8965419999999,
          "velocity": 0.7480314960629921,
          "duration": 0.20689649999999915
        },
        {
          "name": "B1",
          "midi": 35,
          "time": 39.103438499999896,
          "velocity": 0.7480314960629921,
          "duration": 0.20689649999999915
        },
        {
          "name": "B1",
          "midi": 35,
          "time": 39.310334999999895,
          "velocity": 0.7480314960629921,
          "duration": 0.20689649999999915
        },
        {
          "name": "B1",
          "midi": 35,
          "time": 39.517231499999895,
          "velocity": 0.7480314960629921,
          "duration": 0.20689649999999915
        },
        {
          "name": "A1",
          "midi": 33,
          "time": 39.724127999999894,
          "velocity": 0.7480314960629921,
          "duration": 0.20689649999999915
        },
        {
          "name": "D2",
          "midi": 38,
          "time": 39.93102449999989,
          "velocity": 0.7480314960629921,
          "duration": 0.20689649999999915
        },
        {
          "name": "D2",
          "midi": 38,
          "time": 40.13792099999989,
          "velocity": 0.7480314960629921,
          "duration": 0.20689649999999915
        },
        {
          "name": "A1",
          "midi": 33,
          "time": 40.34481749999989,
          "velocity": 0.7480314960629921,
          "duration": 0.20689649999999915
        },
        {
          "name": "D2",
          "midi": 38,
          "time": 40.55171399999989,
          "velocity": 0.7480314960629921,
          "duration": 0.4137929999999983
        },
        {
          "name": "A1",
          "midi": 33,
          "time": 40.96550699999989,
          "velocity": 0.7480314960629921,
          "duration": 0.20689649999999915
        },
        {
          "name": "D2",
          "midi": 38,
          "time": 41.17240349999989,
          "velocity": 0.7480314960629921,
          "duration": 0.20689649999999915
        },
        {
          "name": "D2",
          "midi": 38,
          "time": 41.37929999999989,
          "velocity": 0.7480314960629921,
          "duration": 0.20689649999999915
        },
        {
          "name": "A1",
          "midi": 33,
          "time": 41.586196499999886,
          "velocity": 0.7480314960629921,
          "duration": 0.20689649999999915
        },
        {
          "name": "D2",
          "midi": 38,
          "time": 41.793092999999885,
          "velocity": 0.7480314960629921,
          "duration": 0.4137929999999983
        },
        {
          "name": "A1",
          "midi": 33,
          "time": 42.20688599999988,
          "velocity": 0.7480314960629921,
          "duration": 0.20689649999999915
        },
        {
          "name": "D2",
          "midi": 38,
          "time": 42.41378249999988,
          "velocity": 0.7480314960629921,
          "duration": 0.20689649999999915
        },
        {
          "name": "D2",
          "midi": 38,
          "time": 42.62067899999988,
          "velocity": 0.7480314960629921,
          "duration": 0.20689649999999915
        },
        {
          "name": "A1",
          "midi": 33,
          "time": 43.03447199999988,
          "velocity": 0.7480314960629921,
          "duration": 0.20689649999999915
        },
        {
          "name": "D2",
          "midi": 38,
          "time": 43.24136849999988,
          "velocity": 0.7480314960629921,
          "duration": 0.20689649999999915
        },
        {
          "name": "D2",
          "midi": 38,
          "time": 43.44826499999988,
          "velocity": 0.7480314960629921,
          "duration": 0.20689649999999915
        },
        {
          "name": "A1",
          "midi": 33,
          "time": 43.65516149999988,
          "velocity": 0.7480314960629921,
          "duration": 0.20689649999999915
        },
        {
          "name": "D2",
          "midi": 38,
          "time": 43.86205799999988,
          "velocity": 0.7480314960629921,
          "duration": 0.4137929999999983
        },
        {
          "name": "A1",
          "midi": 33,
          "time": 44.275850999999875,
          "velocity": 0.7480314960629921,
          "duration": 0.20689649999999915
        },
        {
          "name": "D2",
          "midi": 38,
          "time": 44.482747499999874,
          "velocity": 0.7480314960629921,
          "duration": 0.20689649999999915
        },
        {
          "name": "D2",
          "midi": 38,
          "time": 44.68964399999987,
          "velocity": 0.7480314960629921,
          "duration": 0.20689649999999915
        },
        {
          "name": "A1",
          "midi": 33,
          "time": 44.89654049999987,
          "velocity": 0.7480314960629921,
          "duration": 0.20689649999999915
        },
        {
          "name": "D2",
          "midi": 38,
          "time": 45.10343699999987,
          "velocity": 0.7480314960629921,
          "duration": 0.4137929999999983
        },
        {
          "name": "A1",
          "midi": 33,
          "time": 45.51722999999987,
          "velocity": 0.7480314960629921,
          "duration": 0.20689649999999915
        },
        {
          "name": "D2",
          "midi": 38,
          "time": 45.72412649999987,
          "velocity": 0.7480314960629921,
          "duration": 0.20689649999999915
        },
        {
          "name": "D2",
          "midi": 38,
          "time": 45.93102299999987,
          "velocity": 0.7480314960629921,
          "duration": 0.20689649999999915
        },
        {
          "name": "D2",
          "midi": 38,
          "time": 46.34481599999987,
          "velocity": 0.7480314960629921,
          "duration": 0.20689649999999915
        },
        {
          "name": "D2",
          "midi": 38,
          "time": 46.551712499999866,
          "velocity": 0.7480314960629921,
          "duration": 0.20689649999999915
        },
        {
          "name": "D2",
          "midi": 38,
          "time": 46.758608999999865,
          "velocity": 0.7480314960629921,
          "duration": 0.20689649999999915
        },
        {
          "name": "D2",
          "midi": 38,
          "time": 46.965505499999864,
          "velocity": 0.7480314960629921,
          "duration": 0.20689649999999915
        },
        {
          "name": "D2",
          "midi": 38,
          "time": 47.17240199999986,
          "velocity": 0.7480314960629921,
          "duration": 0.20689649999999915
        },
        {
          "name": "D2",
          "midi": 38,
          "time": 47.37929849999986,
          "velocity": 0.7480314960629921,
          "duration": 0.20689649999999915
        },
        {
          "name": "D2",
          "midi": 38,
          "time": 47.58619499999986,
          "velocity": 0.7480314960629921,
          "duration": 0.20689649999999915
        },
        {
          "name": "D2",
          "midi": 38,
          "time": 47.79309149999986,
          "velocity": 0.7480314960629921,
          "duration": 0.20689649999999915
        },
        {
          "name": "D2",
          "midi": 38,
          "time": 47.99998799999986,
          "velocity": 0.7480314960629921,
          "duration": 0.20689649999999915
        },
        {
          "name": "D2",
          "midi": 38,
          "time": 48.20688449999986,
          "velocity": 0.7480314960629921,
          "duration": 0.20689649999999915
        },
        {
          "name": "D2",
          "midi": 38,
          "time": 48.41378099999986,
          "velocity": 0.7480314960629921,
          "duration": 0.20689649999999915
        },
        {
          "name": "D2",
          "midi": 38,
          "time": 48.62067749999986,
          "velocity": 0.7480314960629921,
          "duration": 0.20689649999999915
        },
        {
          "name": "D2",
          "midi": 38,
          "time": 48.827573999999856,
          "velocity": 0.7480314960629921,
          "duration": 0.20689649999999915
        },
        {
          "name": "D2",
          "midi": 38,
          "time": 49.034470499999856,
          "velocity": 0.7480314960629921,
          "duration": 0.20689649999999915
        },
        {
          "name": "D2",
          "midi": 38,
          "time": 49.241366999999855,
          "velocity": 0.7480314960629921,
          "duration": 0.20689649999999915
        },
        {
          "name": "D2",
          "midi": 38,
          "time": 49.448263499999854,
          "velocity": 0.7480314960629921,
          "duration": 0.20689649999999915
        },
        {
          "name": "A1",
          "midi": 33,
          "time": 49.65515999999985,
          "velocity": 0.7480314960629921,
          "duration": 0.20689649999999915
        },
        {
          "name": "A1",
          "midi": 33,
          "time": 49.86205649999985,
          "velocity": 0.7480314960629921,
          "duration": 0.20689649999999915
        },
        {
          "name": "A1",
          "midi": 33,
          "time": 50.06895299999985,
          "velocity": 0.7480314960629921,
          "duration": 0.20689649999999915
        },
        {
          "name": "A1",
          "midi": 33,
          "time": 50.27584949999985,
          "velocity": 0.7480314960629921,
          "duration": 0.20689649999999915
        },
        {
          "name": "A1",
          "midi": 33,
          "time": 50.48274599999985,
          "velocity": 0.7480314960629921,
          "duration": 0.20689649999999915
        },
        {
          "name": "A1",
          "midi": 33,
          "time": 50.68964249999985,
          "velocity": 0.7480314960629921,
          "duration": 0.20689649999999915
        },
        {
          "name": "A1",
          "midi": 33,
          "time": 50.89653899999985,
          "velocity": 0.7480314960629921,
          "duration": 0.20689649999999915
        },
        {
          "name": "A1",
          "midi": 33,
          "time": 51.10343549999985,
          "velocity": 0.7480314960629921,
          "duration": 0.20689649999999915
        },
        {
          "name": "A1",
          "midi": 33,
          "time": 51.310331999999846,
          "velocity": 0.7480314960629921,
          "duration": 0.20689649999999915
        },
        {
          "name": "A1",
          "midi": 33,
          "time": 51.517228499999845,
          "velocity": 0.7480314960629921,
          "duration": 0.20689649999999915
        },
        {
          "name": "A1",
          "midi": 33,
          "time": 51.724124999999844,
          "velocity": 0.7480314960629921,
          "duration": 0.20689649999999915
        },
        {
          "name": "A1",
          "midi": 33,
          "time": 51.931021499999844,
          "velocity": 0.7480314960629921,
          "duration": 0.20689649999999915
        },
        {
          "name": "A1",
          "midi": 33,
          "time": 52.13791799999984,
          "velocity": 0.7480314960629921,
          "duration": 0.20689649999999915
        },
        {
          "name": "A1",
          "midi": 33,
          "time": 52.34481449999984,
          "velocity": 0.7480314960629921,
          "duration": 0.20689649999999915
        },
        {
          "name": "B1",
          "midi": 35,
          "time": 52.55171099999984,
          "velocity": 0.7480314960629921,
          "duration": 0.4137929999999983
        },
        {
          "name": "C2",
          "midi": 36,
          "time": 52.96550399999984,
          "velocity": 0.7480314960629921,
          "duration": 0.20689649999999915
        },
        {
          "name": "C2",
          "midi": 36,
          "time": 53.17240049999984,
          "velocity": 0.7480314960629921,
          "duration": 0.20689649999999915
        },
        {
          "name": "C2",
          "midi": 36,
          "time": 53.37929699999984,
          "velocity": 0.7480314960629921,
          "duration": 0.20689649999999915
        },
        {
          "name": "C2",
          "midi": 36,
          "time": 53.58619349999984,
          "velocity": 0.7480314960629921,
          "duration": 0.20689649999999915
        },
        {
          "name": "C2",
          "midi": 36,
          "time": 53.793089999999836,
          "velocity": 0.7480314960629921,
          "duration": 0.20689649999999915
        },
        {
          "name": "C2",
          "midi": 36,
          "time": 53.999986499999835,
          "velocity": 0.7480314960629921,
          "duration": 0.20689649999999915
        },
        {
          "name": "C2",
          "midi": 36,
          "time": 54.206882999999834,
          "velocity": 0.7480314960629921,
          "duration": 0.20689649999999915
        },
        {
          "name": "C2",
          "midi": 36,
          "time": 54.41377949999983,
          "velocity": 0.7480314960629921,
          "duration": 0.20689649999999915
        },
        {
          "name": "E1",
          "midi": 28,
          "time": 54.62067599999983,
          "velocity": 0.7480314960629921,
          "duration": 0.20689649999999915
        },
        {
          "name": "E1",
          "midi": 28,
          "time": 54.82757249999983,
          "velocity": 0.7480314960629921,
          "duration": 0.20689649999999915
        },
        {
          "name": "E1",
          "midi": 28,
          "time": 55.03446899999983,
          "velocity": 0.7480314960629921,
          "duration": 0.20689649999999915
        },
        {
          "name": "E1",
          "midi": 28,
          "time": 55.24136549999983,
          "velocity": 0.7480314960629921,
          "duration": 0.20689649999999915
        },
        {
          "name": "E1",
          "midi": 28,
          "time": 55.44826199999983,
          "velocity": 0.7480314960629921,
          "duration": 0.20689649999999915
        },
        {
          "name": "E1",
          "midi": 28,
          "time": 55.65515849999983,
          "velocity": 0.7480314960629921,
          "duration": 0.20689649999999915
        },
        {
          "name": "E1",
          "midi": 28,
          "time": 55.86205499999983,
          "velocity": 0.7480314960629921,
          "duration": 0.20689649999999915
        },
        {
          "name": "E1",
          "midi": 28,
          "time": 56.06895149999983,
          "velocity": 0.7480314960629921,
          "duration": 0.20689649999999915
        },
        {
          "name": "A1",
          "midi": 33,
          "time": 56.275847999999826,
          "velocity": 0.7480314960629921,
          "duration": 0.20689649999999915
        },
        {
          "name": "D2",
          "midi": 38,
          "time": 56.482744499999825,
          "velocity": 0.7480314960629921,
          "duration": 0.20689649999999915
        },
        {
          "name": "D2",
          "midi": 38,
          "time": 56.689640999999824,
          "velocity": 0.7480314960629921,
          "duration": 0.20689649999999915
        },
        {
          "name": "A1",
          "midi": 33,
          "time": 56.89653749999982,
          "velocity": 0.7480314960629921,
          "duration": 0.20689649999999915
        },
        {
          "name": "D2",
          "midi": 38,
          "time": 57.10343399999982,
          "velocity": 0.7480314960629921,
          "duration": 0.4137929999999983
        },
        {
          "name": "A1",
          "midi": 33,
          "time": 57.51722699999982,
          "velocity": 0.7480314960629921,
          "duration": 0.20689649999999915
        },
        {
          "name": "D2",
          "midi": 38,
          "time": 57.72412349999982,
          "velocity": 0.7480314960629921,
          "duration": 0.20689649999999915
        },
        {
          "name": "D2",
          "midi": 38,
          "time": 57.93101999999982,
          "velocity": 0.7480314960629921,
          "duration": 0.20689649999999915
        },
        {
          "name": "A1",
          "midi": 33,
          "time": 58.13791649999982,
          "velocity": 0.7480314960629921,
          "duration": 0.20689649999999915
        },
        {
          "name": "D2",
          "midi": 38,
          "time": 58.34481299999982,
          "velocity": 0.7480314960629921,
          "duration": 0.4137929999999983
        },
        {
          "name": "A1",
          "midi": 33,
          "time": 58.758605999999816,
          "velocity": 0.7480314960629921,
          "duration": 0.20689649999999915
        },
        {
          "name": "D2",
          "midi": 38,
          "time": 58.965502499999815,
          "velocity": 0.7480314960629921,
          "duration": 0.20689649999999915
        },
        {
          "name": "D2",
          "midi": 38,
          "time": 59.172398999999814,
          "velocity": 0.7480314960629921,
          "duration": 0.20689649999999915
        },
        {
          "name": "D2",
          "midi": 38,
          "time": 59.58619199999981,
          "velocity": 0.7480314960629921,
          "duration": 0.20689649999999915
        },
        {
          "name": "D2",
          "midi": 38,
          "time": 59.79308849999981,
          "velocity": 0.7480314960629921,
          "duration": 0.20689649999999915
        },
        {
          "name": "D2",
          "midi": 38,
          "time": 59.99998499999981,
          "velocity": 0.7480314960629921,
          "duration": 0.20689649999999915
        },
        {
          "name": "D2",
          "midi": 38,
          "time": 60.20688149999981,
          "velocity": 0.7480314960629921,
          "duration": 0.20689649999999915
        },
        {
          "name": "D2",
          "midi": 38,
          "time": 60.41377799999981,
          "velocity": 0.7480314960629921,
          "duration": 0.20689649999999915
        },
        {
          "name": "D2",
          "midi": 38,
          "time": 60.62067449999981,
          "velocity": 0.7480314960629921,
          "duration": 0.20689649999999915
        },
        {
          "name": "D2",
          "midi": 38,
          "time": 60.82757099999981,
          "velocity": 0.7480314960629921,
          "duration": 0.20689649999999915
        },
        {
          "name": "D2",
          "midi": 38,
          "time": 61.034467499999806,
          "velocity": 0.7480314960629921,
          "duration": 0.20689649999999915
        },
        {
          "name": "D2",
          "midi": 38,
          "time": 61.241363999999805,
          "velocity": 0.7480314960629921,
          "duration": 0.20689649999999915
        },
        {
          "name": "D2",
          "midi": 38,
          "time": 61.448260499999805,
          "velocity": 0.7480314960629921,
          "duration": 0.20689649999999915
        },
        {
          "name": "D2",
          "midi": 38,
          "time": 61.655156999999804,
          "velocity": 0.7480314960629921,
          "duration": 0.20689649999999915
        },
        {
          "name": "D2",
          "midi": 38,
          "time": 61.8620534999998,
          "velocity": 0.7480314960629921,
          "duration": 0.20689649999999915
        },
        {
          "name": "D2",
          "midi": 38,
          "time": 62.0689499999998,
          "velocity": 0.7480314960629921,
          "duration": 0.20689649999999915
        },
        {
          "name": "D2",
          "midi": 38,
          "time": 62.2758464999998,
          "velocity": 0.7480314960629921,
          "duration": 0.20689649999999915
        },
        {
          "name": "D2",
          "midi": 38,
          "time": 62.4827429999998,
          "velocity": 0.7480314960629921,
          "duration": 0.20689649999999915
        },
        {
          "name": "D2",
          "midi": 38,
          "time": 62.6896394999998,
          "velocity": 0.7480314960629921,
          "duration": 0.20689649999999915
        },
        {
          "name": "A1",
          "midi": 33,
          "time": 62.8965359999998,
          "velocity": 0.7480314960629921,
          "duration": 0.20689649999999915
        },
        {
          "name": "A1",
          "midi": 33,
          "time": 63.1034324999998,
          "velocity": 0.7480314960629921,
          "duration": 0.20689649999999915
        },
        {
          "name": "A1",
          "midi": 33,
          "time": 63.3103289999998,
          "velocity": 0.7480314960629921,
          "duration": 0.20689649999999915
        },
        {
          "name": "A1",
          "midi": 33,
          "time": 63.517225499999796,
          "velocity": 0.7480314960629921,
          "duration": 0.20689649999999915
        },
        {
          "name": "A1",
          "midi": 33,
          "time": 63.724121999999795,
          "velocity": 0.7480314960629921,
          "duration": 0.20689649999999915
        },
        {
          "name": "A1",
          "midi": 33,
          "time": 63.931018499999794,
          "velocity": 0.7480314960629921,
          "duration": 0.20689649999999915
        },
        {
          "name": "A1",
          "midi": 33,
          "time": 64.1379149999998,
          "velocity": 0.7480314960629921,
          "duration": 0.20689649999999915
        },
        {
          "name": "A1",
          "midi": 33,
          "time": 64.34481149999979,
          "velocity": 0.7480314960629921,
          "duration": 0.20689649999999915
        },
        {
          "name": "A1",
          "midi": 33,
          "time": 64.55170799999979,
          "velocity": 0.7480314960629921,
          "duration": 0.20689649999999915
        },
        {
          "name": "A1",
          "midi": 33,
          "time": 64.75860449999979,
          "velocity": 0.7480314960629921,
          "duration": 0.20689649999999915
        },
        {
          "name": "A1",
          "midi": 33,
          "time": 64.96550099999979,
          "velocity": 0.7480314960629921,
          "duration": 0.20689649999999915
        },
        {
          "name": "A1",
          "midi": 33,
          "time": 65.17239749999979,
          "velocity": 0.7480314960629921,
          "duration": 0.20689649999999915
        },
        {
          "name": "A1",
          "midi": 33,
          "time": 65.37929399999979,
          "velocity": 0.7480314960629921,
          "duration": 0.20689649999999915
        },
        {
          "name": "A1",
          "midi": 33,
          "time": 65.58619049999979,
          "velocity": 0.7480314960629921,
          "duration": 0.20689649999999915
        },
        {
          "name": "B1",
          "midi": 35,
          "time": 65.79308699999979,
          "velocity": 0.7480314960629921,
          "duration": 0.4137929999999983
        },
        {
          "name": "C2",
          "midi": 36,
          "time": 66.20687999999979,
          "velocity": 0.7480314960629921,
          "duration": 0.20689649999999915
        },
        {
          "name": "C2",
          "midi": 36,
          "time": 66.41377649999978,
          "velocity": 0.7480314960629921,
          "duration": 0.20689649999999915
        },
        {
          "name": "C2",
          "midi": 36,
          "time": 66.62067299999978,
          "velocity": 0.7480314960629921,
          "duration": 0.20689649999999915
        },
        {
          "name": "C2",
          "midi": 36,
          "time": 66.82756949999978,
          "velocity": 0.7480314960629921,
          "duration": 0.20689649999999915
        },
        {
          "name": "C2",
          "midi": 36,
          "time": 67.03446599999978,
          "velocity": 0.7480314960629921,
          "duration": 0.20689649999999915
        },
        {
          "name": "C2",
          "midi": 36,
          "time": 67.24136249999978,
          "velocity": 0.7480314960629921,
          "duration": 0.20689649999999915
        },
        {
          "name": "C2",
          "midi": 36,
          "time": 67.44825899999978,
          "velocity": 0.7480314960629921,
          "duration": 0.20689649999999915
        },
        {
          "name": "C2",
          "midi": 36,
          "time": 67.65515549999978,
          "velocity": 0.7480314960629921,
          "duration": 0.20689649999999915
        },
        {
          "name": "E1",
          "midi": 28,
          "time": 67.86205199999978,
          "velocity": 0.7480314960629921,
          "duration": 0.20689649999999915
        },
        {
          "name": "E1",
          "midi": 28,
          "time": 68.06894849999978,
          "velocity": 0.7480314960629921,
          "duration": 0.20689649999999915
        },
        {
          "name": "E1",
          "midi": 28,
          "time": 68.27584499999978,
          "velocity": 0.7480314960629921,
          "duration": 0.20689649999999915
        },
        {
          "name": "E1",
          "midi": 28,
          "time": 68.48274149999978,
          "velocity": 0.7480314960629921,
          "duration": 0.20689649999999915
        },
        {
          "name": "E1",
          "midi": 28,
          "time": 68.68963799999977,
          "velocity": 0.7480314960629921,
          "duration": 0.20689649999999915
        },
        {
          "name": "E1",
          "midi": 28,
          "time": 68.89653449999977,
          "velocity": 0.7480314960629921,
          "duration": 0.20689649999999915
        },
        {
          "name": "E1",
          "midi": 28,
          "time": 69.10343099999977,
          "velocity": 0.7480314960629921,
          "duration": 0.20689649999999915
        },
        {
          "name": "E1",
          "midi": 28,
          "time": 69.31032749999977,
          "velocity": 0.7480314960629921,
          "duration": 0.20689649999999915
        },
        {
          "name": "A1",
          "midi": 33,
          "time": 69.51722399999977,
          "velocity": 0.7480314960629921,
          "duration": 0.20689649999999915
        },
        {
          "name": "D2",
          "midi": 38,
          "time": 69.72412049999977,
          "velocity": 0.7480314960629921,
          "duration": 0.20689649999999915
        },
        {
          "name": "D2",
          "midi": 38,
          "time": 69.93101699999977,
          "velocity": 0.7480314960629921,
          "duration": 0.20689649999999915
        },
        {
          "name": "A1",
          "midi": 33,
          "time": 70.13791349999977,
          "velocity": 0.7480314960629921,
          "duration": 0.20689649999999915
        },
        {
          "name": "D2",
          "midi": 38,
          "time": 70.34480999999977,
          "velocity": 0.7480314960629921,
          "duration": 0.4137929999999983
        },
        {
          "name": "A1",
          "midi": 33,
          "time": 70.75860299999977,
          "velocity": 0.7480314960629921,
          "duration": 0.20689649999999915
        },
        {
          "name": "D2",
          "midi": 38,
          "time": 70.96549949999977,
          "velocity": 0.7480314960629921,
          "duration": 0.20689649999999915
        },
        {
          "name": "D2",
          "midi": 38,
          "time": 71.17239599999976,
          "velocity": 0.7480314960629921,
          "duration": 0.20689649999999915
        },
        {
          "name": "A1",
          "midi": 33,
          "time": 71.37929249999976,
          "velocity": 0.7480314960629921,
          "duration": 0.20689649999999915
        },
        {
          "name": "D2",
          "midi": 38,
          "time": 71.58618899999976,
          "velocity": 0.7480314960629921,
          "duration": 0.4137929999999983
        },
        {
          "name": "A1",
          "midi": 33,
          "time": 71.99998199999976,
          "velocity": 0.7480314960629921,
          "duration": 0.20689649999999915
        },
        {
          "name": "D2",
          "midi": 38,
          "time": 72.20687849999976,
          "velocity": 0.7480314960629921,
          "duration": 0.20689649999999915
        },
        {
          "name": "D2",
          "midi": 38,
          "time": 72.41377499999976,
          "velocity": 0.7480314960629921,
          "duration": 0.20689649999999915
        },
        {
          "name": "A1",
          "midi": 33,
          "time": 72.82756799999976,
          "velocity": 0.7480314960629921,
          "duration": 0.20689649999999915
        },
        {
          "name": "D2",
          "midi": 38,
          "time": 73.03446449999976,
          "velocity": 0.7480314960629921,
          "duration": 0.20689649999999915
        },
        {
          "name": "D2",
          "midi": 38,
          "time": 73.24136099999976,
          "velocity": 0.7480314960629921,
          "duration": 0.20689649999999915
        },
        {
          "name": "A1",
          "midi": 33,
          "time": 73.44825749999976,
          "velocity": 0.7480314960629921,
          "duration": 0.20689649999999915
        },
        {
          "name": "D2",
          "midi": 38,
          "time": 73.65515399999975,
          "velocity": 0.7480314960629921,
          "duration": 0.4137929999999983
        },
        {
          "name": "A1",
          "midi": 33,
          "time": 74.06894699999975,
          "velocity": 0.7480314960629921,
          "duration": 0.20689649999999915
        },
        {
          "name": "D2",
          "midi": 38,
          "time": 74.27584349999975,
          "velocity": 0.7480314960629921,
          "duration": 0.20689649999999915
        },
        {
          "name": "D2",
          "midi": 38,
          "time": 74.48273999999975,
          "velocity": 0.7480314960629921,
          "duration": 0.20689649999999915
        },
        {
          "name": "A1",
          "midi": 33,
          "time": 74.68963649999975,
          "velocity": 0.7480314960629921,
          "duration": 0.20689649999999915
        },
        {
          "name": "D2",
          "midi": 38,
          "time": 74.89653299999975,
          "velocity": 0.7480314960629921,
          "duration": 0.4137929999999983
        },
        {
          "name": "A1",
          "midi": 33,
          "time": 75.31032599999975,
          "velocity": 0.7480314960629921,
          "duration": 0.20689649999999915
        },
        {
          "name": "D2",
          "midi": 38,
          "time": 75.51722249999975,
          "velocity": 0.7480314960629921,
          "duration": 0.20689649999999915
        },
        {
          "name": "D2",
          "midi": 38,
          "time": 75.72411899999975,
          "velocity": 0.7480314960629921,
          "duration": 0.20689649999999915
        },
        {
          "name": "C2",
          "midi": 36,
          "time": 76.13791199999974,
          "velocity": 0.7480314960629921,
          "duration": 0.20689649999999915
        },
        {
          "name": "C2",
          "midi": 36,
          "time": 76.34480849999974,
          "velocity": 0.7480314960629921,
          "duration": 0.20689649999999915
        },
        {
          "name": "C2",
          "midi": 36,
          "time": 76.55170499999974,
          "velocity": 0.7480314960629921,
          "duration": 0.20689649999999915
        },
        {
          "name": "C2",
          "midi": 36,
          "time": 76.75860149999974,
          "velocity": 0.7480314960629921,
          "duration": 0.20689649999999915
        },
        {
          "name": "C2",
          "midi": 36,
          "time": 76.96549799999974,
          "velocity": 0.7480314960629921,
          "duration": 0.20689649999999915
        },
        {
          "name": "C2",
          "midi": 36,
          "time": 77.17239449999974,
          "velocity": 0.7480314960629921,
          "duration": 0.20689649999999915
        },
        {
          "name": "C2",
          "midi": 36,
          "time": 77.37929099999974,
          "velocity": 0.7480314960629921,
          "duration": 0.20689649999999915
        },
        {
          "name": "C2",
          "midi": 36,
          "time": 77.58618749999974,
          "velocity": 0.7480314960629921,
          "duration": 0.20689649999999915
        },
        {
          "name": "E2",
          "midi": 40,
          "time": 77.79308399999974,
          "velocity": 0.7480314960629921,
          "duration": 0.20689649999999915
        },
        {
          "name": "E2",
          "midi": 40,
          "time": 77.99998049999974,
          "velocity": 0.7480314960629921,
          "duration": 0.20689649999999915
        },
        {
          "name": "E2",
          "midi": 40,
          "time": 78.20687699999974,
          "velocity": 0.7480314960629921,
          "duration": 0.20689649999999915
        },
        {
          "name": "E2",
          "midi": 40,
          "time": 78.41377349999973,
          "velocity": 0.7480314960629921,
          "duration": 0.20689649999999915
        },
        {
          "name": "E2",
          "midi": 40,
          "time": 78.62066999999973,
          "velocity": 0.7480314960629921,
          "duration": 0.20689649999999915
        },
        {
          "name": "E2",
          "midi": 40,
          "time": 78.82756649999973,
          "velocity": 0.7480314960629921,
          "duration": 0.20689649999999915
        },
        {
          "name": "E2",
          "midi": 40,
          "time": 79.03446299999973,
          "velocity": 0.7480314960629921,
          "duration": 0.20689649999999915
        },
        {
          "name": "E2",
          "midi": 40,
          "time": 79.24135949999973,
          "velocity": 0.7480314960629921,
          "duration": 0.20689649999999915
        },
        {
          "name": "D2",
          "midi": 38,
          "time": 79.44825599999973,
          "velocity": 0.7480314960629921,
          "duration": 0.20689649999999915
        },
        {
          "name": "D2",
          "midi": 38,
          "time": 79.65515249999973,
          "velocity": 0.7480314960629921,
          "duration": 0.20689649999999915
        },
        {
          "name": "D2",
          "midi": 38,
          "time": 79.86204899999973,
          "velocity": 0.7480314960629921,
          "duration": 0.20689649999999915
        },
        {
          "name": "D2",
          "midi": 38,
          "time": 80.06894549999973,
          "velocity": 0.7480314960629921,
          "duration": 0.20689649999999915
        },
        {
          "name": "D2",
          "midi": 38,
          "time": 80.27584199999973,
          "velocity": 0.7480314960629921,
          "duration": 0.20689649999999915
        },
        {
          "name": "D2",
          "midi": 38,
          "time": 80.48273849999973,
          "velocity": 0.7480314960629921,
          "duration": 0.20689649999999915
        },
        {
          "name": "D2",
          "midi": 38,
          "time": 80.68963499999973,
          "velocity": 0.7480314960629921,
          "duration": 0.20689649999999915
        },
        {
          "name": "D2",
          "midi": 38,
          "time": 80.89653149999972,
          "velocity": 0.7480314960629921,
          "duration": 0.20689649999999915
        },
        {
          "name": "C2",
          "midi": 36,
          "time": 81.10342799999972,
          "velocity": 0.7480314960629921,
          "duration": 0.20689649999999915
        },
        {
          "name": "C2",
          "midi": 36,
          "time": 81.31032449999972,
          "velocity": 0.7480314960629921,
          "duration": 0.20689649999999915
        },
        {
          "name": "C2",
          "midi": 36,
          "time": 81.51722099999972,
          "velocity": 0.7480314960629921,
          "duration": 0.20689649999999915
        },
        {
          "name": "C2",
          "midi": 36,
          "time": 81.72411749999972,
          "velocity": 0.7480314960629921,
          "duration": 0.20689649999999915
        },
        {
          "name": "C2",
          "midi": 36,
          "time": 81.93101399999972,
          "velocity": 0.7480314960629921,
          "duration": 0.20689649999999915
        },
        {
          "name": "C2",
          "midi": 36,
          "time": 82.13791049999972,
          "velocity": 0.7480314960629921,
          "duration": 0.20689649999999915
        },
        {
          "name": "C2",
          "midi": 36,
          "time": 82.34480699999972,
          "velocity": 0.7480314960629921,
          "duration": 0.20689649999999915
        },
        {
          "name": "C2",
          "midi": 36,
          "time": 82.55170349999972,
          "velocity": 0.7480314960629921,
          "duration": 0.20689649999999915
        },
        {
          "name": "E2",
          "midi": 40,
          "time": 82.75859999999972,
          "velocity": 0.7480314960629921,
          "duration": 0.20689649999999915
        },
        {
          "name": "E2",
          "midi": 40,
          "time": 82.96549649999972,
          "velocity": 0.7480314960629921,
          "duration": 0.20689649999999915
        },
        {
          "name": "E2",
          "midi": 40,
          "time": 83.17239299999972,
          "velocity": 0.7480314960629921,
          "duration": 0.20689649999999915
        },
        {
          "name": "E2",
          "midi": 40,
          "time": 83.37928949999971,
          "velocity": 0.7480314960629921,
          "duration": 0.20689649999999915
        },
        {
          "name": "E2",
          "midi": 40,
          "time": 83.58618599999971,
          "velocity": 0.7480314960629921,
          "duration": 0.20689649999999915
        },
        {
          "name": "E2",
          "midi": 40,
          "time": 83.79308249999971,
          "velocity": 0.7480314960629921,
          "duration": 0.20689649999999915
        },
        {
          "name": "E2",
          "midi": 40,
          "time": 83.99997899999971,
          "velocity": 0.7480314960629921,
          "duration": 0.20689649999999915
        },
        {
          "name": "E2",
          "midi": 40,
          "time": 84.20687549999971,
          "velocity": 0.7480314960629921,
          "duration": 0.20689649999999915
        },
        {
          "name": "D2",
          "midi": 38,
          "time": 84.41377199999971,
          "velocity": 0.7480314960629921,
          "duration": 0.20689649999999915
        },
        {
          "name": "D2",
          "midi": 38,
          "time": 84.62066849999971,
          "velocity": 0.7480314960629921,
          "duration": 0.20689649999999915
        },
        {
          "name": "D2",
          "midi": 38,
          "time": 84.82756499999971,
          "velocity": 0.7480314960629921,
          "duration": 0.20689649999999915
        },
        {
          "name": "D2",
          "midi": 38,
          "time": 85.03446149999971,
          "velocity": 0.7480314960629921,
          "duration": 0.20689649999999915
        },
        {
          "name": "D2",
          "midi": 38,
          "time": 85.2413579999997,
          "velocity": 0.7480314960629921,
          "duration": 0.20689649999999915
        },
        {
          "name": "D2",
          "midi": 38,
          "time": 85.4482544999997,
          "velocity": 0.7480314960629921,
          "duration": 0.20689649999999915
        },
        {
          "name": "D2",
          "midi": 38,
          "time": 85.6551509999997,
          "velocity": 0.7480314960629921,
          "duration": 0.20689649999999915
        },
        {
          "name": "D2",
          "midi": 38,
          "time": 85.8620474999997,
          "velocity": 0.7480314960629921,
          "duration": 0.20689649999999915
        },
        {
          "name": "C2",
          "midi": 36,
          "time": 86.0689439999997,
          "velocity": 0.7480314960629921,
          "duration": 0.20689649999999915
        },
        {
          "name": "C2",
          "midi": 36,
          "time": 86.2758404999997,
          "velocity": 0.7480314960629921,
          "duration": 0.20689649999999915
        },
        {
          "name": "C2",
          "midi": 36,
          "time": 86.4827369999997,
          "velocity": 0.7480314960629921,
          "duration": 0.20689649999999915
        },
        {
          "name": "C2",
          "midi": 36,
          "time": 86.6896334999997,
          "velocity": 0.7480314960629921,
          "duration": 0.20689649999999915
        },
        {
          "name": "C2",
          "midi": 36,
          "time": 86.8965299999997,
          "velocity": 0.7480314960629921,
          "duration": 0.20689649999999915
        },
        {
          "name": "C2",
          "midi": 36,
          "time": 87.1034264999997,
          "velocity": 0.7480314960629921,
          "duration": 0.20689649999999915
        },
        {
          "name": "C2",
          "midi": 36,
          "time": 87.3103229999997,
          "velocity": 0.7480314960629921,
          "duration": 0.20689649999999915
        },
        {
          "name": "C2",
          "midi": 36,
          "time": 87.5172194999997,
          "velocity": 0.7480314960629921,
          "duration": 0.20689649999999915
        },
        {
          "name": "E2",
          "midi": 40,
          "time": 87.7241159999997,
          "velocity": 0.7480314960629921,
          "duration": 0.20689649999999915
        },
        {
          "name": "E2",
          "midi": 40,
          "time": 87.9310124999997,
          "velocity": 0.7480314960629921,
          "duration": 0.20689649999999915
        },
        {
          "name": "E2",
          "midi": 40,
          "time": 88.1379089999997,
          "velocity": 0.7480314960629921,
          "duration": 0.20689649999999915
        },
        {
          "name": "E2",
          "midi": 40,
          "time": 88.3448054999997,
          "velocity": 0.7480314960629921,
          "duration": 0.20689649999999915
        },
        {
          "name": "E2",
          "midi": 40,
          "time": 88.5517019999997,
          "velocity": 0.7480314960629921,
          "duration": 0.20689649999999915
        },
        {
          "name": "E2",
          "midi": 40,
          "time": 88.75859849999969,
          "velocity": 0.7480314960629921,
          "duration": 0.20689649999999915
        },
        {
          "name": "E2",
          "midi": 40,
          "time": 88.96549499999969,
          "velocity": 0.7480314960629921,
          "duration": 0.20689649999999915
        },
        {
          "name": "E2",
          "midi": 40,
          "time": 89.17239149999969,
          "velocity": 0.7480314960629921,
          "duration": 0.20689649999999915
        },
        {
          "name": "D2",
          "midi": 38,
          "time": 89.37928799999969,
          "velocity": 0.7480314960629921,
          "duration": 0.20689649999999915
        },
        {
          "name": "D2",
          "midi": 38,
          "time": 89.58618449999969,
          "velocity": 0.7480314960629921,
          "duration": 0.20689649999999915
        },
        {
          "name": "D2",
          "midi": 38,
          "time": 89.79308099999969,
          "velocity": 0.7480314960629921,
          "duration": 0.20689649999999915
        },
        {
          "name": "D2",
          "midi": 38,
          "time": 89.99997749999969,
          "velocity": 0.7480314960629921,
          "duration": 0.20689649999999915
        },
        {
          "name": "D2",
          "midi": 38,
          "time": 90.20687399999969,
          "velocity": 0.7480314960629921,
          "duration": 0.20689649999999915
        },
        {
          "name": "D2",
          "midi": 38,
          "time": 90.41377049999969,
          "velocity": 0.7480314960629921,
          "duration": 0.20689649999999915
        },
        {
          "name": "D2",
          "midi": 38,
          "time": 90.62066699999968,
          "velocity": 0.7480314960629921,
          "duration": 0.20689649999999915
        },
        {
          "name": "D2",
          "midi": 38,
          "time": 90.82756349999968,
          "velocity": 0.7480314960629921,
          "duration": 0.20689649999999915
        },
        {
          "name": "C2",
          "midi": 36,
          "time": 91.03445999999968,
          "velocity": 0.7480314960629921,
          "duration": 0.20689649999999915
        },
        {
          "name": "C2",
          "midi": 36,
          "time": 91.24135649999968,
          "velocity": 0.7480314960629921,
          "duration": 0.20689649999999915
        },
        {
          "name": "C2",
          "midi": 36,
          "time": 91.44825299999968,
          "velocity": 0.7480314960629921,
          "duration": 0.20689649999999915
        },
        {
          "name": "C2",
          "midi": 36,
          "time": 91.65514949999968,
          "velocity": 0.7480314960629921,
          "duration": 0.20689649999999915
        },
        {
          "name": "C2",
          "midi": 36,
          "time": 91.86204599999968,
          "velocity": 0.7480314960629921,
          "duration": 0.20689649999999915
        },
        {
          "name": "C2",
          "midi": 36,
          "time": 92.06894249999968,
          "velocity": 0.7480314960629921,
          "duration": 0.20689649999999915
        },
        {
          "name": "C2",
          "midi": 36,
          "time": 92.27583899999968,
          "velocity": 0.7480314960629921,
          "duration": 0.20689649999999915
        },
        {
          "name": "C2",
          "midi": 36,
          "time": 92.48273549999968,
          "velocity": 0.7480314960629921,
          "duration": 0.20689649999999915
        },
        {
          "name": "E2",
          "midi": 40,
          "time": 92.68963199999968,
          "velocity": 0.7480314960629921,
          "duration": 0.20689649999999915
        },
        {
          "name": "E2",
          "midi": 40,
          "time": 92.89652849999968,
          "velocity": 0.7480314960629921,
          "duration": 0.20689649999999915
        },
        {
          "name": "E2",
          "midi": 40,
          "time": 93.10342499999967,
          "velocity": 0.7480314960629921,
          "duration": 0.20689649999999915
        },
        {
          "name": "E2",
          "midi": 40,
          "time": 93.31032149999967,
          "velocity": 0.7480314960629921,
          "duration": 0.20689649999999915
        },
        {
          "name": "E2",
          "midi": 40,
          "time": 93.51721799999967,
          "velocity": 0.7480314960629921,
          "duration": 0.20689649999999915
        },
        {
          "name": "E2",
          "midi": 40,
          "time": 93.72411449999967,
          "velocity": 0.7480314960629921,
          "duration": 0.20689649999999915
        },
        {
          "name": "E2",
          "midi": 40,
          "time": 93.93101099999967,
          "velocity": 0.7480314960629921,
          "duration": 0.20689649999999915
        },
        {
          "name": "E2",
          "midi": 40,
          "time": 94.13790749999967,
          "velocity": 0.7480314960629921,
          "duration": 0.20689649999999915
        },
        {
          "name": "D2",
          "midi": 38,
          "time": 94.34480399999967,
          "velocity": 0.7480314960629921,
          "duration": 0.20689649999999915
        },
        {
          "name": "D2",
          "midi": 38,
          "time": 94.55170049999967,
          "velocity": 0.7480314960629921,
          "duration": 0.20689649999999915
        },
        {
          "name": "D2",
          "midi": 38,
          "time": 94.75859699999967,
          "velocity": 0.7480314960629921,
          "duration": 0.20689649999999915
        },
        {
          "name": "D2",
          "midi": 38,
          "time": 94.96549349999967,
          "velocity": 0.7480314960629921,
          "duration": 0.20689649999999915
        },
        {
          "name": "D2",
          "midi": 38,
          "time": 95.17238999999967,
          "velocity": 0.7480314960629921,
          "duration": 0.20689649999999915
        },
        {
          "name": "D2",
          "midi": 38,
          "time": 95.37928649999967,
          "velocity": 0.7480314960629921,
          "duration": 0.20689649999999915
        },
        {
          "name": "D2",
          "midi": 38,
          "time": 95.58618299999966,
          "velocity": 0.7480314960629921,
          "duration": 0.20689649999999915
        },
        {
          "name": "D2",
          "midi": 38,
          "time": 95.79307949999966,
          "velocity": 0.7480314960629921,
          "duration": 0.20689649999999915
        },
        {
          "name": "A1",
          "midi": 33,
          "time": 95.99997599999966,
          "velocity": 0.7480314960629921,
          "duration": 0.20689649999999915
        },
        {
          "name": "D2",
          "midi": 38,
          "time": 96.20687249999966,
          "velocity": 0.7480314960629921,
          "duration": 0.20689649999999915
        },
        {
          "name": "D2",
          "midi": 38,
          "time": 96.41376899999966,
          "velocity": 0.7480314960629921,
          "duration": 0.20689649999999915
        },
        {
          "name": "A1",
          "midi": 33,
          "time": 96.62066549999966,
          "velocity": 0.7480314960629921,
          "duration": 0.20689649999999915
        },
        {
          "name": "D2",
          "midi": 38,
          "time": 96.82756199999966,
          "velocity": 0.7480314960629921,
          "duration": 0.4137929999999983
        },
        {
          "name": "A1",
          "midi": 33,
          "time": 97.24135499999966,
          "velocity": 0.7480314960629921,
          "duration": 0.20689649999999915
        },
        {
          "name": "D2",
          "midi": 38,
          "time": 97.44825149999966,
          "velocity": 0.7480314960629921,
          "duration": 0.20689649999999915
        },
        {
          "name": "D2",
          "midi": 38,
          "time": 97.65514799999966,
          "velocity": 0.7480314960629921,
          "duration": 0.20689649999999915
        },
        {
          "name": "A1",
          "midi": 33,
          "time": 97.86204449999966,
          "velocity": 0.7480314960629921,
          "duration": 0.20689649999999915
        },
        {
          "name": "D2",
          "midi": 38,
          "time": 98.06894099999965,
          "velocity": 0.7480314960629921,
          "duration": 0.4137929999999983
        },
        {
          "name": "A1",
          "midi": 33,
          "time": 98.48273399999965,
          "velocity": 0.7480314960629921,
          "duration": 0.20689649999999915
        },
        {
          "name": "D2",
          "midi": 38,
          "time": 98.68963049999965,
          "velocity": 0.7480314960629921,
          "duration": 0.20689649999999915
        },
        {
          "name": "D2",
          "midi": 38,
          "time": 98.89652699999965,
          "velocity": 0.7480314960629921,
          "duration": 0.20689649999999915
        },
        {
          "name": "A1",
          "midi": 33,
          "time": 99.31031999999965,
          "velocity": 0.7480314960629921,
          "duration": 0.20689649999999915
        },
        {
          "name": "D2",
          "midi": 38,
          "time": 99.51721649999965,
          "velocity": 0.7480314960629921,
          "duration": 0.20689649999999915
        },
        {
          "name": "D2",
          "midi": 38,
          "time": 99.72411299999965,
          "velocity": 0.7480314960629921,
          "duration": 0.20689649999999915
        },
        {
          "name": "A1",
          "midi": 33,
          "time": 99.93100949999965,
          "velocity": 0.7480314960629921,
          "duration": 0.20689649999999915
        },
        {
          "name": "D2",
          "midi": 38,
          "time": 100.13790599999965,
          "velocity": 0.7480314960629921,
          "duration": 0.4137929999999983
        },
        {
          "name": "A1",
          "midi": 33,
          "time": 100.55169899999964,
          "velocity": 0.7480314960629921,
          "duration": 0.20689649999999915
        },
        {
          "name": "D2",
          "midi": 38,
          "time": 100.75859549999964,
          "velocity": 0.7480314960629921,
          "duration": 0.20689649999999915
        },
        {
          "name": "D2",
          "midi": 38,
          "time": 100.96549199999964,
          "velocity": 0.7480314960629921,
          "duration": 0.20689649999999915
        },
        {
          "name": "A1",
          "midi": 33,
          "time": 101.17238849999964,
          "velocity": 0.7480314960629921,
          "duration": 0.20689649999999915
        },
        {
          "name": "D2",
          "midi": 38,
          "time": 101.37928499999964,
          "velocity": 0.7480314960629921,
          "duration": 0.4137929999999983
        },
        {
          "name": "A1",
          "midi": 33,
          "time": 101.79307799999964,
          "velocity": 0.7480314960629921,
          "duration": 0.20689649999999915
        },
        {
          "name": "D2",
          "midi": 38,
          "time": 101.99997449999964,
          "velocity": 0.7480314960629921,
          "duration": 0.20689649999999915
        },
        {
          "name": "D2",
          "midi": 38,
          "time": 102.20687099999964,
          "velocity": 0.7480314960629921,
          "duration": 0.20689649999999915
        },
        {
          "name": "D2",
          "midi": 38,
          "time": 102.62066399999964,
          "velocity": 0.7480314960629921,
          "duration": 0.20689649999999915
        },
        {
          "name": "D2",
          "midi": 38,
          "time": 102.82756049999963,
          "velocity": 0.7480314960629921,
          "duration": 0.20689649999999915
        },
        {
          "name": "D2",
          "midi": 38,
          "time": 103.03445699999963,
          "velocity": 0.7480314960629921,
          "duration": 0.20689649999999915
        },
        {
          "name": "D2",
          "midi": 38,
          "time": 103.24135349999963,
          "velocity": 0.7480314960629921,
          "duration": 0.20689649999999915
        },
        {
          "name": "D2",
          "midi": 38,
          "time": 103.44824999999963,
          "velocity": 0.7480314960629921,
          "duration": 0.20689649999999915
        },
        {
          "name": "D2",
          "midi": 38,
          "time": 103.65514649999963,
          "velocity": 0.7480314960629921,
          "duration": 0.20689649999999915
        },
        {
          "name": "D2",
          "midi": 38,
          "time": 103.86204299999963,
          "velocity": 0.7480314960629921,
          "duration": 0.20689649999999915
        },
        {
          "name": "D2",
          "midi": 38,
          "time": 104.06893949999963,
          "velocity": 0.7480314960629921,
          "duration": 0.20689649999999915
        },
        {
          "name": "D2",
          "midi": 38,
          "time": 104.27583599999963,
          "velocity": 0.7480314960629921,
          "duration": 0.20689649999999915
        },
        {
          "name": "D2",
          "midi": 38,
          "time": 104.48273249999963,
          "velocity": 0.7480314960629921,
          "duration": 0.20689649999999915
        },
        {
          "name": "D2",
          "midi": 38,
          "time": 104.68962899999963,
          "velocity": 0.7480314960629921,
          "duration": 0.20689649999999915
        },
        {
          "name": "D2",
          "midi": 38,
          "time": 104.89652549999963,
          "velocity": 0.7480314960629921,
          "duration": 0.20689649999999915
        },
        {
          "name": "D2",
          "midi": 38,
          "time": 105.10342199999963,
          "velocity": 0.7480314960629921,
          "duration": 0.20689649999999915
        },
        {
          "name": "D2",
          "midi": 38,
          "time": 105.31031849999962,
          "velocity": 0.7480314960629921,
          "duration": 0.20689649999999915
        },
        {
          "name": "D2",
          "midi": 38,
          "time": 105.51721499999962,
          "velocity": 0.7480314960629921,
          "duration": 0.20689649999999915
        },
        {
          "name": "D2",
          "midi": 38,
          "time": 105.72411149999962,
          "velocity": 0.7480314960629921,
          "duration": 0.20689649999999915
        },
        {
          "name": "A1",
          "midi": 33,
          "time": 105.93100799999962,
          "velocity": 0.7480314960629921,
          "duration": 0.20689649999999915
        },
        {
          "name": "A1",
          "midi": 33,
          "time": 106.13790449999962,
          "velocity": 0.7480314960629921,
          "duration": 0.20689649999999915
        },
        {
          "name": "A1",
          "midi": 33,
          "time": 106.34480099999962,
          "velocity": 0.7480314960629921,
          "duration": 0.20689649999999915
        },
        {
          "name": "A1",
          "midi": 33,
          "time": 106.55169749999962,
          "velocity": 0.7480314960629921,
          "duration": 0.20689649999999915
        },
        {
          "name": "A1",
          "midi": 33,
          "time": 106.75859399999962,
          "velocity": 0.7480314960629921,
          "duration": 0.20689649999999915
        },
        {
          "name": "A1",
          "midi": 33,
          "time": 106.96549049999962,
          "velocity": 0.7480314960629921,
          "duration": 0.20689649999999915
        },
        {
          "name": "A1",
          "midi": 33,
          "time": 107.17238699999962,
          "velocity": 0.7480314960629921,
          "duration": 0.20689649999999915
        },
        {
          "name": "A1",
          "midi": 33,
          "time": 107.37928349999962,
          "velocity": 0.7480314960629921,
          "duration": 0.20689649999999915
        },
        {
          "name": "A1",
          "midi": 33,
          "time": 107.58617999999962,
          "velocity": 0.7480314960629921,
          "duration": 0.20689649999999915
        },
        {
          "name": "A1",
          "midi": 33,
          "time": 107.79307649999961,
          "velocity": 0.7480314960629921,
          "duration": 0.20689649999999915
        },
        {
          "name": "A1",
          "midi": 33,
          "time": 107.99997299999961,
          "velocity": 0.7480314960629921,
          "duration": 0.20689649999999915
        },
        {
          "name": "A1",
          "midi": 33,
          "time": 108.20686949999961,
          "velocity": 0.7480314960629921,
          "duration": 0.20689649999999915
        },
        {
          "name": "A1",
          "midi": 33,
          "time": 108.41376599999961,
          "velocity": 0.7480314960629921,
          "duration": 0.20689649999999915
        },
        {
          "name": "A1",
          "midi": 33,
          "time": 108.62066249999961,
          "velocity": 0.7480314960629921,
          "duration": 0.20689649999999915
        },
        {
          "name": "B1",
          "midi": 35,
          "time": 108.82755899999961,
          "velocity": 0.7480314960629921,
          "duration": 0.4137929999999983
        },
        {
          "name": "C2",
          "midi": 36,
          "time": 109.24135199999961,
          "velocity": 0.7480314960629921,
          "duration": 0.20689649999999915
        },
        {
          "name": "C2",
          "midi": 36,
          "time": 109.44824849999961,
          "velocity": 0.7480314960629921,
          "duration": 0.20689649999999915
        },
        {
          "name": "C2",
          "midi": 36,
          "time": 109.6551449999996,
          "velocity": 0.7480314960629921,
          "duration": 0.20689649999999915
        },
        {
          "name": "C2",
          "midi": 36,
          "time": 109.8620414999996,
          "velocity": 0.7480314960629921,
          "duration": 0.20689649999999915
        },
        {
          "name": "C2",
          "midi": 36,
          "time": 110.0689379999996,
          "velocity": 0.7480314960629921,
          "duration": 0.20689649999999915
        },
        {
          "name": "C2",
          "midi": 36,
          "time": 110.2758344999996,
          "velocity": 0.7480314960629921,
          "duration": 0.20689649999999915
        },
        {
          "name": "C2",
          "midi": 36,
          "time": 110.4827309999996,
          "velocity": 0.7480314960629921,
          "duration": 0.20689649999999915
        },
        {
          "name": "C2",
          "midi": 36,
          "time": 110.6896274999996,
          "velocity": 0.7480314960629921,
          "duration": 0.20689649999999915
        },
        {
          "name": "E1",
          "midi": 28,
          "time": 110.8965239999996,
          "velocity": 0.7480314960629921,
          "duration": 0.20689649999999915
        },
        {
          "name": "E1",
          "midi": 28,
          "time": 111.1034204999996,
          "velocity": 0.7480314960629921,
          "duration": 0.20689649999999915
        },
        {
          "name": "E1",
          "midi": 28,
          "time": 111.3103169999996,
          "velocity": 0.7480314960629921,
          "duration": 0.20689649999999915
        },
        {
          "name": "E1",
          "midi": 28,
          "time": 111.5172134999996,
          "velocity": 0.7480314960629921,
          "duration": 0.20689649999999915
        },
        {
          "name": "E1",
          "midi": 28,
          "time": 111.7241099999996,
          "velocity": 0.7480314960629921,
          "duration": 0.20689649999999915
        },
        {
          "name": "E1",
          "midi": 28,
          "time": 111.9310064999996,
          "velocity": 0.7480314960629921,
          "duration": 0.20689649999999915
        },
        {
          "name": "E1",
          "midi": 28,
          "time": 112.1379029999996,
          "velocity": 0.7480314960629921,
          "duration": 0.20689649999999915
        },
        {
          "name": "E1",
          "midi": 28,
          "time": 112.3447994999996,
          "velocity": 0.7480314960629921,
          "duration": 0.20689649999999915
        },
        {
          "name": "A1",
          "midi": 33,
          "time": 112.5516959999996,
          "velocity": 0.7480314960629921,
          "duration": 0.20689649999999915
        },
        {
          "name": "D2",
          "midi": 38,
          "time": 112.7585924999996,
          "velocity": 0.7480314960629921,
          "duration": 0.20689649999999915
        },
        {
          "name": "D2",
          "midi": 38,
          "time": 112.9654889999996,
          "velocity": 0.7480314960629921,
          "duration": 0.20689649999999915
        },
        {
          "name": "A1",
          "midi": 33,
          "time": 113.17238549999959,
          "velocity": 0.7480314960629921,
          "duration": 0.20689649999999915
        },
        {
          "name": "D2",
          "midi": 38,
          "time": 113.37928199999959,
          "velocity": 0.7480314960629921,
          "duration": 0.4137929999999983
        },
        {
          "name": "A1",
          "midi": 33,
          "time": 113.79307499999959,
          "velocity": 0.7480314960629921,
          "duration": 0.20689649999999915
        },
        {
          "name": "D2",
          "midi": 38,
          "time": 113.99997149999959,
          "velocity": 0.7480314960629921,
          "duration": 0.20689649999999915
        },
        {
          "name": "D2",
          "midi": 38,
          "time": 114.20686799999959,
          "velocity": 0.7480314960629921,
          "duration": 0.20689649999999915
        },
        {
          "name": "A1",
          "midi": 33,
          "time": 114.41376449999959,
          "velocity": 0.7480314960629921,
          "duration": 0.20689649999999915
        },
        {
          "name": "D2",
          "midi": 38,
          "time": 114.62066099999959,
          "velocity": 0.7480314960629921,
          "duration": 0.4137929999999983
        },
        {
          "name": "A1",
          "midi": 33,
          "time": 115.03445399999958,
          "velocity": 0.7480314960629921,
          "duration": 0.20689649999999915
        },
        {
          "name": "D2",
          "midi": 38,
          "time": 115.24135049999958,
          "velocity": 0.7480314960629921,
          "duration": 0.20689649999999915
        },
        {
          "name": "D2",
          "midi": 38,
          "time": 115.44824699999958,
          "velocity": 0.7480314960629921,
          "duration": 0.20689649999999915
        },
        {
          "name": "D2",
          "midi": 38,
          "time": 115.86203999999958,
          "velocity": 0.7480314960629921,
          "duration": 0.20689649999999915
        },
        {
          "name": "D2",
          "midi": 38,
          "time": 116.06893649999958,
          "velocity": 0.7480314960629921,
          "duration": 0.20689649999999915
        },
        {
          "name": "D2",
          "midi": 38,
          "time": 116.27583299999958,
          "velocity": 0.7480314960629921,
          "duration": 0.20689649999999915
        },
        {
          "name": "D2",
          "midi": 38,
          "time": 116.48272949999958,
          "velocity": 0.7480314960629921,
          "duration": 0.20689649999999915
        },
        {
          "name": "D2",
          "midi": 38,
          "time": 116.68962599999958,
          "velocity": 0.7480314960629921,
          "duration": 0.20689649999999915
        },
        {
          "name": "D2",
          "midi": 38,
          "time": 116.89652249999958,
          "velocity": 0.7480314960629921,
          "duration": 0.20689649999999915
        },
        {
          "name": "D2",
          "midi": 38,
          "time": 117.10341899999958,
          "velocity": 0.7480314960629921,
          "duration": 0.20689649999999915
        },
        {
          "name": "D2",
          "midi": 38,
          "time": 117.31031549999958,
          "velocity": 0.7480314960629921,
          "duration": 0.20689649999999915
        },
        {
          "name": "D2",
          "midi": 38,
          "time": 117.51721199999957,
          "velocity": 0.7480314960629921,
          "duration": 0.20689649999999915
        },
        {
          "name": "D2",
          "midi": 38,
          "time": 117.72410849999957,
          "velocity": 0.7480314960629921,
          "duration": 0.20689649999999915
        },
        {
          "name": "D2",
          "midi": 38,
          "time": 117.93100499999957,
          "velocity": 0.7480314960629921,
          "duration": 0.20689649999999915
        },
        {
          "name": "D2",
          "midi": 38,
          "time": 118.13790149999957,
          "velocity": 0.7480314960629921,
          "duration": 0.20689649999999915
        },
        {
          "name": "D2",
          "midi": 38,
          "time": 118.34479799999957,
          "velocity": 0.7480314960629921,
          "duration": 0.20689649999999915
        },
        {
          "name": "D2",
          "midi": 38,
          "time": 118.55169449999957,
          "velocity": 0.7480314960629921,
          "duration": 0.20689649999999915
        },
        {
          "name": "D2",
          "midi": 38,
          "time": 118.75859099999957,
          "velocity": 0.7480314960629921,
          "duration": 0.20689649999999915
        },
        {
          "name": "D2",
          "midi": 38,
          "time": 118.96548749999957,
          "velocity": 0.7480314960629921,
          "duration": 0.20689649999999915
        },
        {
          "name": "A1",
          "midi": 33,
          "time": 119.17238399999957,
          "velocity": 0.7480314960629921,
          "duration": 0.20689649999999915
        },
        {
          "name": "A1",
          "midi": 33,
          "time": 119.37928049999957,
          "velocity": 0.7480314960629921,
          "duration": 0.20689649999999915
        },
        {
          "name": "A1",
          "midi": 33,
          "time": 119.58617699999957,
          "velocity": 0.7480314960629921,
          "duration": 0.20689649999999915
        },
        {
          "name": "A1",
          "midi": 33,
          "time": 119.79307349999957,
          "velocity": 0.7480314960629921,
          "duration": 0.20689649999999915
        },
        {
          "name": "A1",
          "midi": 33,
          "time": 119.99996999999956,
          "velocity": 0.7480314960629921,
          "duration": 0.20689649999999915
        },
        {
          "name": "A1",
          "midi": 33,
          "time": 120.20686649999956,
          "velocity": 0.7480314960629921,
          "duration": 0.20689649999999915
        },
        {
          "name": "A1",
          "midi": 33,
          "time": 120.41376299999956,
          "velocity": 0.7480314960629921,
          "duration": 0.20689649999999915
        },
        {
          "name": "A1",
          "midi": 33,
          "time": 120.62065949999956,
          "velocity": 0.7480314960629921,
          "duration": 0.20689649999999915
        },
        {
          "name": "A1",
          "midi": 33,
          "time": 120.82755599999956,
          "velocity": 0.7480314960629921,
          "duration": 0.20689649999999915
        },
        {
          "name": "A1",
          "midi": 33,
          "time": 121.03445249999956,
          "velocity": 0.7480314960629921,
          "duration": 0.20689649999999915
        },
        {
          "name": "A1",
          "midi": 33,
          "time": 121.24134899999956,
          "velocity": 0.7480314960629921,
          "duration": 0.20689649999999915
        },
        {
          "name": "A1",
          "midi": 33,
          "time": 121.44824549999956,
          "velocity": 0.7480314960629921,
          "duration": 0.20689649999999915
        },
        {
          "name": "A1",
          "midi": 33,
          "time": 121.65514199999956,
          "velocity": 0.7480314960629921,
          "duration": 0.20689649999999915
        },
        {
          "name": "A1",
          "midi": 33,
          "time": 121.86203849999956,
          "velocity": 0.7480314960629921,
          "duration": 0.20689649999999915
        },
        {
          "name": "B1",
          "midi": 35,
          "time": 122.06893499999956,
          "velocity": 0.7480314960629921,
          "duration": 0.4137929999999983
        },
        {
          "name": "C2",
          "midi": 36,
          "time": 122.48272799999955,
          "velocity": 0.7480314960629921,
          "duration": 0.20689649999999915
        },
        {
          "name": "C2",
          "midi": 36,
          "time": 122.68962449999955,
          "velocity": 0.7480314960629921,
          "duration": 0.20689649999999915
        },
        {
          "name": "C2",
          "midi": 36,
          "time": 122.89652099999955,
          "velocity": 0.7480314960629921,
          "duration": 0.20689649999999915
        },
        {
          "name": "C2",
          "midi": 36,
          "time": 123.10341749999955,
          "velocity": 0.7480314960629921,
          "duration": 0.20689649999999915
        },
        {
          "name": "C2",
          "midi": 36,
          "time": 123.31031399999955,
          "velocity": 0.7480314960629921,
          "duration": 0.20689649999999915
        },
        {
          "name": "C2",
          "midi": 36,
          "time": 123.51721049999955,
          "velocity": 0.7480314960629921,
          "duration": 0.20689649999999915
        },
        {
          "name": "C2",
          "midi": 36,
          "time": 123.72410699999955,
          "velocity": 0.7480314960629921,
          "duration": 0.20689649999999915
        },
        {
          "name": "C2",
          "midi": 36,
          "time": 123.93100349999955,
          "velocity": 0.7480314960629921,
          "duration": 0.20689649999999915
        },
        {
          "name": "E1",
          "midi": 28,
          "time": 124.13789999999955,
          "velocity": 0.7480314960629921,
          "duration": 0.20689649999999915
        },
        {
          "name": "E1",
          "midi": 28,
          "time": 124.34479649999955,
          "velocity": 0.7480314960629921,
          "duration": 0.20689649999999915
        },
        {
          "name": "E1",
          "midi": 28,
          "time": 124.55169299999955,
          "velocity": 0.7480314960629921,
          "duration": 0.20689649999999915
        },
        {
          "name": "E1",
          "midi": 28,
          "time": 124.75858949999954,
          "velocity": 0.7480314960629921,
          "duration": 0.20689649999999915
        },
        {
          "name": "E1",
          "midi": 28,
          "time": 124.96548599999954,
          "velocity": 0.7480314960629921,
          "duration": 0.20689649999999915
        },
        {
          "name": "E1",
          "midi": 28,
          "time": 125.17238249999954,
          "velocity": 0.7480314960629921,
          "duration": 0.20689649999999915
        },
        {
          "name": "E1",
          "midi": 28,
          "time": 125.37927899999954,
          "velocity": 0.7480314960629921,
          "duration": 0.20689649999999915
        },
        {
          "name": "E1",
          "midi": 28,
          "time": 125.58617549999954,
          "velocity": 0.7480314960629921,
          "duration": 0.20689649999999915
        },
        {
          "name": "A1",
          "midi": 33,
          "time": 125.79307199999954,
          "velocity": 0.7480314960629921,
          "duration": 0.20689649999999915
        },
        {
          "name": "D2",
          "midi": 38,
          "time": 125.99996849999954,
          "velocity": 0.7480314960629921,
          "duration": 0.20689649999999915
        },
        {
          "name": "D2",
          "midi": 38,
          "time": 126.20686499999954,
          "velocity": 0.7480314960629921,
          "duration": 0.20689649999999915
        },
        {
          "name": "A1",
          "midi": 33,
          "time": 126.41376149999954,
          "velocity": 0.7480314960629921,
          "duration": 0.20689649999999915
        },
        {
          "name": "D2",
          "midi": 38,
          "time": 126.62065799999954,
          "velocity": 0.7480314960629921,
          "duration": 0.4137929999999983
        },
        {
          "name": "A1",
          "midi": 33,
          "time": 127.03445099999954,
          "velocity": 0.7480314960629921,
          "duration": 0.20689649999999915
        },
        {
          "name": "D2",
          "midi": 38,
          "time": 127.24134749999953,
          "velocity": 0.7480314960629921,
          "duration": 0.20689649999999915
        },
        {
          "name": "D2",
          "midi": 38,
          "time": 127.44824399999953,
          "velocity": 0.7480314960629921,
          "duration": 0.20689649999999915
        },
        {
          "name": "A1",
          "midi": 33,
          "time": 127.65514049999953,
          "velocity": 0.7480314960629921,
          "duration": 0.20689649999999915
        },
        {
          "name": "D2",
          "midi": 38,
          "time": 127.86203699999953,
          "velocity": 0.7480314960629921,
          "duration": 0.4137929999999983
        },
        {
          "name": "A1",
          "midi": 33,
          "time": 128.27582999999953,
          "velocity": 0.7480314960629921,
          "duration": 0.20689649999999915
        },
        {
          "name": "D2",
          "midi": 38,
          "time": 128.48272649999953,
          "velocity": 0.7480314960629921,
          "duration": 0.20689649999999915
        },
        {
          "name": "D2",
          "midi": 38,
          "time": 128.68962299999953,
          "velocity": 0.7480314960629921,
          "duration": 0.20689649999999915
        },
        {
          "name": "A1",
          "midi": 33,
          "time": 129.10341599999953,
          "velocity": 0.7480314960629921,
          "duration": 0.20689649999999915
        },
        {
          "name": "D2",
          "midi": 38,
          "time": 129.31031249999953,
          "velocity": 0.7480314960629921,
          "duration": 0.20689649999999915
        },
        {
          "name": "D2",
          "midi": 38,
          "time": 129.51720899999953,
          "velocity": 0.7480314960629921,
          "duration": 0.20689649999999915
        },
        {
          "name": "A1",
          "midi": 33,
          "time": 129.72410549999952,
          "velocity": 0.7480314960629921,
          "duration": 0.20689649999999915
        },
        {
          "name": "D2",
          "midi": 38,
          "time": 129.93100199999952,
          "velocity": 0.7480314960629921,
          "duration": 0.4137929999999983
        },
        {
          "name": "A1",
          "midi": 33,
          "time": 130.34479499999952,
          "velocity": 0.7480314960629921,
          "duration": 0.20689649999999915
        },
        {
          "name": "D2",
          "midi": 38,
          "time": 130.55169149999952,
          "velocity": 0.7480314960629921,
          "duration": 0.20689649999999915
        },
        {
          "name": "D2",
          "midi": 38,
          "time": 130.75858799999952,
          "velocity": 0.7480314960629921,
          "duration": 0.20689649999999915
        },
        {
          "name": "A1",
          "midi": 33,
          "time": 130.96548449999952,
          "velocity": 0.7480314960629921,
          "duration": 0.20689649999999915
        },
        {
          "name": "D2",
          "midi": 38,
          "time": 131.17238099999952,
          "velocity": 0.7480314960629921,
          "duration": 0.4137929999999983
        },
        {
          "name": "A1",
          "midi": 33,
          "time": 131.58617399999952,
          "velocity": 0.7480314960629921,
          "duration": 0.20689649999999915
        },
        {
          "name": "D2",
          "midi": 38,
          "time": 131.79307049999952,
          "velocity": 0.7480314960629921,
          "duration": 0.20689649999999915
        },
        {
          "name": "D2",
          "midi": 38,
          "time": 131.99996699999951,
          "velocity": 0.7480314960629921,
          "duration": 0.20689649999999915
        },
        {
          "name": "C2",
          "midi": 36,
          "time": 132.4137599999995,
          "velocity": 0.7480314960629921,
          "duration": 0.20689649999999915
        },
        {
          "name": "C2",
          "midi": 36,
          "time": 132.6206564999995,
          "velocity": 0.7480314960629921,
          "duration": 0.20689649999999915
        },
        {
          "name": "C2",
          "midi": 36,
          "time": 132.8275529999995,
          "velocity": 0.7480314960629921,
          "duration": 0.20689649999999915
        },
        {
          "name": "C2",
          "midi": 36,
          "time": 133.0344494999995,
          "velocity": 0.7480314960629921,
          "duration": 0.20689649999999915
        },
        {
          "name": "C2",
          "midi": 36,
          "time": 133.2413459999995,
          "velocity": 0.7480314960629921,
          "duration": 0.20689649999999915
        },
        {
          "name": "C2",
          "midi": 36,
          "time": 133.4482424999995,
          "velocity": 0.7480314960629921,
          "duration": 0.20689649999999915
        },
        {
          "name": "C2",
          "midi": 36,
          "time": 133.6551389999995,
          "velocity": 0.7480314960629921,
          "duration": 0.20689649999999915
        },
        {
          "name": "C2",
          "midi": 36,
          "time": 133.8620354999995,
          "velocity": 0.7480314960629921,
          "duration": 0.20689649999999915
        },
        {
          "name": "E2",
          "midi": 40,
          "time": 134.0689319999995,
          "velocity": 0.7480314960629921,
          "duration": 0.20689649999999915
        },
        {
          "name": "E2",
          "midi": 40,
          "time": 134.2758284999995,
          "velocity": 0.7480314960629921,
          "duration": 0.20689649999999915
        },
        {
          "name": "E2",
          "midi": 40,
          "time": 134.4827249999995,
          "velocity": 0.7480314960629921,
          "duration": 0.20689649999999915
        },
        {
          "name": "E2",
          "midi": 40,
          "time": 134.6896214999995,
          "velocity": 0.7480314960629921,
          "duration": 0.20689649999999915
        },
        {
          "name": "E2",
          "midi": 40,
          "time": 134.8965179999995,
          "velocity": 0.7480314960629921,
          "duration": 0.20689649999999915
        },
        {
          "name": "E2",
          "midi": 40,
          "time": 135.1034144999995,
          "velocity": 0.7480314960629921,
          "duration": 0.20689649999999915
        },
        {
          "name": "E2",
          "midi": 40,
          "time": 135.3103109999995,
          "velocity": 0.7480314960629921,
          "duration": 0.20689649999999915
        },
        {
          "name": "E2",
          "midi": 40,
          "time": 135.5172074999995,
          "velocity": 0.7480314960629921,
          "duration": 0.20689649999999915
        },
        {
          "name": "D2",
          "midi": 38,
          "time": 135.7241039999995,
          "velocity": 0.7480314960629921,
          "duration": 0.20689649999999915
        },
        {
          "name": "D2",
          "midi": 38,
          "time": 135.9310004999995,
          "velocity": 0.7480314960629921,
          "duration": 0.20689649999999915
        },
        {
          "name": "D2",
          "midi": 38,
          "time": 136.1378969999995,
          "velocity": 0.7480314960629921,
          "duration": 0.20689649999999915
        },
        {
          "name": "D2",
          "midi": 38,
          "time": 136.3447934999995,
          "velocity": 0.7480314960629921,
          "duration": 0.20689649999999915
        },
        {
          "name": "D2",
          "midi": 38,
          "time": 136.5516899999995,
          "velocity": 0.7480314960629921,
          "duration": 0.20689649999999915
        },
        {
          "name": "D2",
          "midi": 38,
          "time": 136.7585864999995,
          "velocity": 0.7480314960629921,
          "duration": 0.20689649999999915
        },
        {
          "name": "D2",
          "midi": 38,
          "time": 136.9654829999995,
          "velocity": 0.7480314960629921,
          "duration": 0.20689649999999915
        },
        {
          "name": "D2",
          "midi": 38,
          "time": 137.1723794999995,
          "velocity": 0.7480314960629921,
          "duration": 0.20689649999999915
        },
        {
          "name": "C2",
          "midi": 36,
          "time": 137.3792759999995,
          "velocity": 0.7480314960629921,
          "duration": 0.20689649999999915
        },
        {
          "name": "C2",
          "midi": 36,
          "time": 137.5861724999995,
          "velocity": 0.7480314960629921,
          "duration": 0.20689649999999915
        },
        {
          "name": "C2",
          "midi": 36,
          "time": 137.7930689999995,
          "velocity": 0.7480314960629921,
          "duration": 0.20689649999999915
        },
        {
          "name": "C2",
          "midi": 36,
          "time": 137.9999654999995,
          "velocity": 0.7480314960629921,
          "duration": 0.20689649999999915
        },
        {
          "name": "C2",
          "midi": 36,
          "time": 138.2068619999995,
          "velocity": 0.7480314960629921,
          "duration": 0.20689649999999915
        },
        {
          "name": "C2",
          "midi": 36,
          "time": 138.4137584999995,
          "velocity": 0.7480314960629921,
          "duration": 0.20689649999999915
        },
        {
          "name": "C2",
          "midi": 36,
          "time": 138.6206549999995,
          "velocity": 0.7480314960629921,
          "duration": 0.20689649999999915
        },
        {
          "name": "C2",
          "midi": 36,
          "time": 138.8275514999995,
          "velocity": 0.7480314960629921,
          "duration": 0.20689649999999915
        },
        {
          "name": "E2",
          "midi": 40,
          "time": 139.0344479999995,
          "velocity": 0.7480314960629921,
          "duration": 0.20689649999999915
        },
        {
          "name": "E2",
          "midi": 40,
          "time": 139.24134449999949,
          "velocity": 0.7480314960629921,
          "duration": 0.20689649999999915
        },
        {
          "name": "E2",
          "midi": 40,
          "time": 139.44824099999948,
          "velocity": 0.7480314960629921,
          "duration": 0.20689649999999915
        },
        {
          "name": "E2",
          "midi": 40,
          "time": 139.65513749999948,
          "velocity": 0.7480314960629921,
          "duration": 0.20689649999999915
        },
        {
          "name": "E2",
          "midi": 40,
          "time": 139.86203399999948,
          "velocity": 0.7480314960629921,
          "duration": 0.20689649999999915
        },
        {
          "name": "E2",
          "midi": 40,
          "time": 140.06893049999948,
          "velocity": 0.7480314960629921,
          "duration": 0.20689649999999915
        },
        {
          "name": "E2",
          "midi": 40,
          "time": 140.27582699999948,
          "velocity": 0.7480314960629921,
          "duration": 0.20689649999999915
        },
        {
          "name": "E2",
          "midi": 40,
          "time": 140.48272349999948,
          "velocity": 0.7480314960629921,
          "duration": 0.20689649999999915
        },
        {
          "name": "D2",
          "midi": 38,
          "time": 140.68961999999948,
          "velocity": 0.7480314960629921,
          "duration": 0.20689649999999915
        },
        {
          "name": "D2",
          "midi": 38,
          "time": 140.89651649999948,
          "velocity": 0.7480314960629921,
          "duration": 0.20689649999999915
        },
        {
          "name": "D2",
          "midi": 38,
          "time": 141.10341299999948,
          "velocity": 0.7480314960629921,
          "duration": 0.20689649999999915
        },
        {
          "name": "D2",
          "midi": 38,
          "time": 141.31030949999948,
          "velocity": 0.7480314960629921,
          "duration": 0.20689649999999915
        },
        {
          "name": "D2",
          "midi": 38,
          "time": 141.51720599999948,
          "velocity": 0.7480314960629921,
          "duration": 0.20689649999999915
        },
        {
          "name": "D2",
          "midi": 38,
          "time": 141.72410249999947,
          "velocity": 0.7480314960629921,
          "duration": 0.20689649999999915
        },
        {
          "name": "D2",
          "midi": 38,
          "time": 141.93099899999947,
          "velocity": 0.7480314960629921,
          "duration": 0.20689649999999915
        },
        {
          "name": "D2",
          "midi": 38,
          "time": 142.13789549999947,
          "velocity": 0.7480314960629921,
          "duration": 0.20689649999999915
        },
        {
          "name": "C2",
          "midi": 36,
          "time": 142.34479199999947,
          "velocity": 0.7480314960629921,
          "duration": 0.20689649999999915
        },
        {
          "name": "C2",
          "midi": 36,
          "time": 142.55168849999947,
          "velocity": 0.7480314960629921,
          "duration": 0.20689649999999915
        },
        {
          "name": "C2",
          "midi": 36,
          "time": 142.75858499999947,
          "velocity": 0.7480314960629921,
          "duration": 0.20689649999999915
        },
        {
          "name": "C2",
          "midi": 36,
          "time": 142.96548149999947,
          "velocity": 0.7480314960629921,
          "duration": 0.20689649999999915
        },
        {
          "name": "C2",
          "midi": 36,
          "time": 143.17237799999947,
          "velocity": 0.7480314960629921,
          "duration": 0.20689649999999915
        },
        {
          "name": "C2",
          "midi": 36,
          "time": 143.37927449999947,
          "velocity": 0.7480314960629921,
          "duration": 0.20689649999999915
        },
        {
          "name": "C2",
          "midi": 36,
          "time": 143.58617099999947,
          "velocity": 0.7480314960629921,
          "duration": 0.20689649999999915
        },
        {
          "name": "C2",
          "midi": 36,
          "time": 143.79306749999947,
          "velocity": 0.7480314960629921,
          "duration": 0.20689649999999915
        },
        {
          "name": "E2",
          "midi": 40,
          "time": 143.99996399999947,
          "velocity": 0.7480314960629921,
          "duration": 0.20689649999999915
        },
        {
          "name": "E2",
          "midi": 40,
          "time": 144.20686049999946,
          "velocity": 0.7480314960629921,
          "duration": 0.20689649999999915
        },
        {
          "name": "E2",
          "midi": 40,
          "time": 144.41375699999946,
          "velocity": 0.7480314960629921,
          "duration": 0.20689649999999915
        },
        {
          "name": "E2",
          "midi": 40,
          "time": 144.62065349999946,
          "velocity": 0.7480314960629921,
          "duration": 0.20689649999999915
        },
        {
          "name": "E2",
          "midi": 40,
          "time": 144.82754999999946,
          "velocity": 0.7480314960629921,
          "duration": 0.20689649999999915
        },
        {
          "name": "E2",
          "midi": 40,
          "time": 145.03444649999946,
          "velocity": 0.7480314960629921,
          "duration": 0.20689649999999915
        },
        {
          "name": "E2",
          "midi": 40,
          "time": 145.24134299999946,
          "velocity": 0.7480314960629921,
          "duration": 0.20689649999999915
        },
        {
          "name": "E2",
          "midi": 40,
          "time": 145.44823949999946,
          "velocity": 0.7480314960629921,
          "duration": 0.20689649999999915
        },
        {
          "name": "D2",
          "midi": 38,
          "time": 145.65513599999946,
          "velocity": 0.7480314960629921,
          "duration": 0.20689649999999915
        },
        {
          "name": "D2",
          "midi": 38,
          "time": 145.86203249999946,
          "velocity": 0.7480314960629921,
          "duration": 0.20689649999999915
        },
        {
          "name": "D2",
          "midi": 38,
          "time": 146.06892899999946,
          "velocity": 0.7480314960629921,
          "duration": 0.20689649999999915
        },
        {
          "name": "D2",
          "midi": 38,
          "time": 146.27582549999946,
          "velocity": 0.7480314960629921,
          "duration": 0.20689649999999915
        },
        {
          "name": "D2",
          "midi": 38,
          "time": 146.48272199999946,
          "velocity": 0.7480314960629921,
          "duration": 0.20689649999999915
        },
        {
          "name": "D2",
          "midi": 38,
          "time": 146.68961849999945,
          "velocity": 0.7480314960629921,
          "duration": 0.20689649999999915
        },
        {
          "name": "D2",
          "midi": 38,
          "time": 146.89651499999945,
          "velocity": 0.7480314960629921,
          "duration": 0.20689649999999915
        },
        {
          "name": "D2",
          "midi": 38,
          "time": 147.10341149999945,
          "velocity": 0.7480314960629921,
          "duration": 0.20689649999999915
        },
        {
          "name": "C2",
          "midi": 36,
          "time": 147.31030799999945,
          "velocity": 0.7480314960629921,
          "duration": 0.20689649999999915
        },
        {
          "name": "C2",
          "midi": 36,
          "time": 147.51720449999945,
          "velocity": 0.7480314960629921,
          "duration": 0.20689649999999915
        },
        {
          "name": "C2",
          "midi": 36,
          "time": 147.72410099999945,
          "velocity": 0.7480314960629921,
          "duration": 0.20689649999999915
        },
        {
          "name": "C2",
          "midi": 36,
          "time": 147.93099749999945,
          "velocity": 0.7480314960629921,
          "duration": 0.20689649999999915
        },
        {
          "name": "C2",
          "midi": 36,
          "time": 148.13789399999945,
          "velocity": 0.7480314960629921,
          "duration": 0.20689649999999915
        },
        {
          "name": "C2",
          "midi": 36,
          "time": 148.34479049999945,
          "velocity": 0.7480314960629921,
          "duration": 0.20689649999999915
        },
        {
          "name": "C2",
          "midi": 36,
          "time": 148.55168699999945,
          "velocity": 0.7480314960629921,
          "duration": 0.20689649999999915
        },
        {
          "name": "C2",
          "midi": 36,
          "time": 148.75858349999945,
          "velocity": 0.7480314960629921,
          "duration": 0.20689649999999915
        },
        {
          "name": "E2",
          "midi": 40,
          "time": 148.96547999999945,
          "velocity": 0.7480314960629921,
          "duration": 0.20689649999999915
        },
        {
          "name": "E2",
          "midi": 40,
          "time": 149.17237649999944,
          "velocity": 0.7480314960629921,
          "duration": 0.20689649999999915
        },
        {
          "name": "E2",
          "midi": 40,
          "time": 149.37927299999944,
          "velocity": 0.7480314960629921,
          "duration": 0.20689649999999915
        },
        {
          "name": "E2",
          "midi": 40,
          "time": 149.58616949999944,
          "velocity": 0.7480314960629921,
          "duration": 0.20689649999999915
        },
        {
          "name": "E2",
          "midi": 40,
          "time": 149.79306599999944,
          "velocity": 0.7480314960629921,
          "duration": 0.20689649999999915
        },
        {
          "name": "E2",
          "midi": 40,
          "time": 149.99996249999944,
          "velocity": 0.7480314960629921,
          "duration": 0.20689649999999915
        },
        {
          "name": "E2",
          "midi": 40,
          "time": 150.20685899999944,
          "velocity": 0.7480314960629921,
          "duration": 0.20689649999999915
        },
        {
          "name": "E2",
          "midi": 40,
          "time": 150.41375549999944,
          "velocity": 0.7480314960629921,
          "duration": 0.20689649999999915
        },
        {
          "name": "D2",
          "midi": 38,
          "time": 150.62065199999944,
          "velocity": 0.7480314960629921,
          "duration": 0.20689649999999915
        },
        {
          "name": "D2",
          "midi": 38,
          "time": 150.82754849999944,
          "velocity": 0.7480314960629921,
          "duration": 0.20689649999999915
        },
        {
          "name": "D2",
          "midi": 38,
          "time": 151.03444499999944,
          "velocity": 0.7480314960629921,
          "duration": 0.20689649999999915
        },
        {
          "name": "D2",
          "midi": 38,
          "time": 151.24134149999944,
          "velocity": 0.7480314960629921,
          "duration": 0.20689649999999915
        },
        {
          "name": "D2",
          "midi": 38,
          "time": 151.44823799999944,
          "velocity": 0.7480314960629921,
          "duration": 0.20689649999999915
        },
        {
          "name": "D2",
          "midi": 38,
          "time": 151.65513449999943,
          "velocity": 0.7480314960629921,
          "duration": 0.20689649999999915
        },
        {
          "name": "D2",
          "midi": 38,
          "time": 151.86203099999943,
          "velocity": 0.7480314960629921,
          "duration": 0.20689649999999915
        },
        {
          "name": "D2",
          "midi": 38,
          "time": 152.06892749999943,
          "velocity": 0.7480314960629921,
          "duration": 0.20689649999999915
        },
        {
          "name": "D2",
          "midi": 38,
          "time": 152.27582399999943,
          "velocity": 0.7480314960629921,
          "duration": 0.20689649999999915
        },
        {
          "name": "D2",
          "midi": 38,
          "time": 152.48272049999943,
          "velocity": 0.7480314960629921,
          "duration": 0.20689649999999915
        },
        {
          "name": "D2",
          "midi": 38,
          "time": 152.89651349999943,
          "velocity": 0.7480314960629921,
          "duration": 0.20689649999999915
        },
        {
          "name": "D2",
          "midi": 38,
          "time": 153.10340999999943,
          "velocity": 0.7480314960629921,
          "duration": 0.20689649999999915
        },
        {
          "name": "D2",
          "midi": 38,
          "time": 153.31030649999943,
          "velocity": 0.7480314960629921,
          "duration": 0.20689649999999915
        },
        {
          "name": "D2",
          "midi": 38,
          "time": 153.72409949999943,
          "velocity": 0.7480314960629921,
          "duration": 0.20689649999999915
        },
        {
          "name": "D2",
          "midi": 38,
          "time": 153.93099599999942,
          "velocity": 0.7480314960629921,
          "duration": 0.20689649999999915
        },
        {
          "name": "D2",
          "midi": 38,
          "time": 154.13789249999942,
          "velocity": 0.7480314960629921,
          "duration": 0.20689649999999915
        },
        {
          "name": "D2",
          "midi": 38,
          "time": 154.55168549999942,
          "velocity": 0.7480314960629921,
          "duration": 0.20689649999999915
        },
        {
          "name": "D2",
          "midi": 38,
          "time": 154.75858199999942,
          "velocity": 0.7480314960629921,
          "duration": 0.20689649999999915
        },
        {
          "name": "D2",
          "midi": 38,
          "time": 154.96547849999942,
          "velocity": 0.7480314960629921,
          "duration": 0.20689649999999915
        },
        {
          "name": "C2",
          "midi": 36,
          "time": 155.17237499999942,
          "velocity": 0.7480314960629921,
          "duration": 0.20689649999999915
        },
        {
          "name": "C2",
          "midi": 36,
          "time": 155.37927149999942,
          "velocity": 0.7480314960629921,
          "duration": 0.20689649999999915
        },
        {
          "name": "C2",
          "midi": 36,
          "time": 155.79306449999942,
          "velocity": 0.7480314960629921,
          "duration": 0.20689649999999915
        },
        {
          "name": "C2",
          "midi": 36,
          "time": 155.99996099999942,
          "velocity": 0.7480314960629921,
          "duration": 0.20689649999999915
        },
        {
          "name": "C2",
          "midi": 36,
          "time": 156.20685749999942,
          "velocity": 0.7480314960629921,
          "duration": 0.20689649999999915
        },
        {
          "name": "C2",
          "midi": 36,
          "time": 156.6206504999994,
          "velocity": 0.7480314960629921,
          "duration": 0.20689649999999915
        },
        {
          "name": "C2",
          "midi": 36,
          "time": 156.8275469999994,
          "velocity": 0.7480314960629921,
          "duration": 0.20689649999999915
        },
        {
          "name": "C2",
          "midi": 36,
          "time": 157.0344434999994,
          "velocity": 0.7480314960629921,
          "duration": 0.20689649999999915
        },
        {
          "name": "C2",
          "midi": 36,
          "time": 157.4482364999994,
          "velocity": 0.7480314960629921,
          "duration": 0.20689649999999915
        },
        {
          "name": "C2",
          "midi": 36,
          "time": 157.6551329999994,
          "velocity": 0.7480314960629921,
          "duration": 0.20689649999999915
        },
        {
          "name": "C2",
          "midi": 36,
          "time": 157.8620294999994,
          "velocity": 0.7480314960629921,
          "duration": 0.20689649999999915
        },
        {
          "name": "B1",
          "midi": 35,
          "time": 158.0689259999994,
          "velocity": 0.7480314960629921,
          "duration": 0.20689649999999915
        },
        {
          "name": "B1",
          "midi": 35,
          "time": 158.2758224999994,
          "velocity": 0.7480314960629921,
          "duration": 0.20689649999999915
        },
        {
          "name": "B1",
          "midi": 35,
          "time": 158.6896154999994,
          "velocity": 0.7480314960629921,
          "duration": 0.20689649999999915
        },
        {
          "name": "B1",
          "midi": 35,
          "time": 158.8965119999994,
          "velocity": 0.7480314960629921,
          "duration": 0.20689649999999915
        },
        {
          "name": "B1",
          "midi": 35,
          "time": 159.1034084999994,
          "velocity": 0.7480314960629921,
          "duration": 0.20689649999999915
        },
        {
          "name": "B1",
          "midi": 35,
          "time": 159.5172014999994,
          "velocity": 0.7480314960629921,
          "duration": 0.20689649999999915
        },
        {
          "name": "B1",
          "midi": 35,
          "time": 159.7240979999994,
          "velocity": 0.7480314960629921,
          "duration": 0.20689649999999915
        },
        {
          "name": "B1",
          "midi": 35,
          "time": 159.9309944999994,
          "velocity": 0.7480314960629921,
          "duration": 0.20689649999999915
        },
        {
          "name": "B1",
          "midi": 35,
          "time": 160.3447874999994,
          "velocity": 0.7480314960629921,
          "duration": 0.20689649999999915
        },
        {
          "name": "B1",
          "midi": 35,
          "time": 160.5516839999994,
          "velocity": 0.7480314960629921,
          "duration": 0.20689649999999915
        },
        {
          "name": "B1",
          "midi": 35,
          "time": 160.7585804999994,
          "velocity": 0.7480314960629921,
          "duration": 0.20689649999999915
        },
        {
          "name": "D2",
          "midi": 38,
          "time": 160.9654769999994,
          "velocity": 0.7480314960629921,
          "duration": 0.20689649999999915
        },
        {
          "name": "D2",
          "midi": 38,
          "time": 161.1723734999994,
          "velocity": 0.7480314960629921,
          "duration": 0.20689649999999915
        },
        {
          "name": "D2",
          "midi": 38,
          "time": 161.5861664999994,
          "velocity": 0.7480314960629921,
          "duration": 0.20689649999999915
        },
        {
          "name": "D2",
          "midi": 38,
          "time": 161.7930629999994,
          "velocity": 0.7480314960629921,
          "duration": 0.20689649999999915
        },
        {
          "name": "D2",
          "midi": 38,
          "time": 161.9999594999994,
          "velocity": 0.7480314960629921,
          "duration": 0.20689649999999915
        },
        {
          "name": "D2",
          "midi": 38,
          "time": 162.4137524999994,
          "velocity": 0.7480314960629921,
          "duration": 0.20689649999999915
        },
        {
          "name": "D2",
          "midi": 38,
          "time": 162.6206489999994,
          "velocity": 0.7480314960629921,
          "duration": 0.20689649999999915
        },
        {
          "name": "D2",
          "midi": 38,
          "time": 162.8275454999994,
          "velocity": 0.7480314960629921,
          "duration": 0.20689649999999915
        },
        {
          "name": "D2",
          "midi": 38,
          "time": 163.2413384999994,
          "velocity": 0.7480314960629921,
          "duration": 0.20689649999999915
        },
        {
          "name": "D2",
          "midi": 38,
          "time": 163.44823499999939,
          "velocity": 0.7480314960629921,
          "duration": 0.20689649999999915
        },
        {
          "name": "D2",
          "midi": 38,
          "time": 163.65513149999938,
          "velocity": 0.7480314960629921,
          "duration": 0.20689649999999915
        },
        {
          "name": "C2",
          "midi": 36,
          "time": 163.86202799999938,
          "velocity": 0.7480314960629921,
          "duration": 0.20689649999999915
        },
        {
          "name": "C2",
          "midi": 36,
          "time": 164.06892449999938,
          "velocity": 0.7480314960629921,
          "duration": 0.20689649999999915
        },
        {
          "name": "C2",
          "midi": 36,
          "time": 164.48271749999938,
          "velocity": 0.7480314960629921,
          "duration": 0.20689649999999915
        },
        {
          "name": "C2",
          "midi": 36,
          "time": 164.68961399999938,
          "velocity": 0.7480314960629921,
          "duration": 0.20689649999999915
        },
        {
          "name": "C2",
          "midi": 36,
          "time": 164.89651049999938,
          "velocity": 0.7480314960629921,
          "duration": 0.20689649999999915
        },
        {
          "name": "C2",
          "midi": 36,
          "time": 165.31030349999938,
          "velocity": 0.7480314960629921,
          "duration": 0.20689649999999915
        },
        {
          "name": "C2",
          "midi": 36,
          "time": 165.51719999999938,
          "velocity": 0.7480314960629921,
          "duration": 0.20689649999999915
        },
        {
          "name": "C2",
          "midi": 36,
          "time": 165.72409649999938,
          "velocity": 0.7480314960629921,
          "duration": 0.20689649999999915
        },
        {
          "name": "C2",
          "midi": 36,
          "time": 166.13788949999937,
          "velocity": 0.7480314960629921,
          "duration": 0.20689649999999915
        },
        {
          "name": "C2",
          "midi": 36,
          "time": 166.34478599999937,
          "velocity": 0.7480314960629921,
          "duration": 0.20689649999999915
        },
        {
          "name": "C2",
          "midi": 36,
          "time": 166.55168249999937,
          "velocity": 0.7480314960629921,
          "duration": 0.20689649999999915
        },
        {
          "name": "B1",
          "midi": 35,
          "time": 166.75857899999937,
          "velocity": 0.7480314960629921,
          "duration": 0.20689649999999915
        },
        {
          "name": "B1",
          "midi": 35,
          "time": 166.96547549999937,
          "velocity": 0.7480314960629921,
          "duration": 0.20689649999999915
        },
        {
          "name": "B1",
          "midi": 35,
          "time": 167.37926849999937,
          "velocity": 0.7480314960629921,
          "duration": 0.20689649999999915
        },
        {
          "name": "B1",
          "midi": 35,
          "time": 167.58616499999937,
          "velocity": 0.7480314960629921,
          "duration": 0.20689649999999915
        },
        {
          "name": "B1",
          "midi": 35,
          "time": 167.79306149999937,
          "velocity": 0.7480314960629921,
          "duration": 0.20689649999999915
        },
        {
          "name": "B1",
          "midi": 35,
          "time": 168.20685449999937,
          "velocity": 0.7480314960629921,
          "duration": 0.20689649999999915
        },
        {
          "name": "B1",
          "midi": 35,
          "time": 168.41375099999937,
          "velocity": 0.7480314960629921,
          "duration": 0.20689649999999915
        },
        {
          "name": "B1",
          "midi": 35,
          "time": 168.62064749999936,
          "velocity": 0.7480314960629921,
          "duration": 0.20689649999999915
        },
        {
          "name": "B1",
          "midi": 35,
          "time": 169.03444049999936,
          "velocity": 0.7480314960629921,
          "duration": 0.20689649999999915
        },
        {
          "name": "B1",
          "midi": 35,
          "time": 169.24133699999936,
          "velocity": 0.7480314960629921,
          "duration": 0.20689649999999915
        },
        {
          "name": "B1",
          "midi": 35,
          "time": 169.44823349999936,
          "velocity": 0.7480314960629921,
          "duration": 0.20689649999999915
        },
        {
          "name": "D2",
          "midi": 38,
          "time": 169.65512999999936,
          "velocity": 0.7480314960629921,
          "duration": 0.20689649999999915
        },
        {
          "name": "D2",
          "midi": 38,
          "time": 169.86202649999936,
          "velocity": 0.7480314960629921,
          "duration": 0.20689649999999915
        },
        {
          "name": "D2",
          "midi": 38,
          "time": 170.27581949999936,
          "velocity": 0.7480314960629921,
          "duration": 0.20689649999999915
        },
        {
          "name": "D2",
          "midi": 38,
          "time": 170.48271599999936,
          "velocity": 0.7480314960629921,
          "duration": 0.20689649999999915
        },
        {
          "name": "D2",
          "midi": 38,
          "time": 170.68961249999936,
          "velocity": 0.7480314960629921,
          "duration": 0.20689649999999915
        },
        {
          "name": "D2",
          "midi": 38,
          "time": 171.10340549999935,
          "velocity": 0.7480314960629921,
          "duration": 0.20689649999999915
        },
        {
          "name": "D2",
          "midi": 38,
          "time": 171.31030199999935,
          "velocity": 0.7480314960629921,
          "duration": 0.20689649999999915
        },
        {
          "name": "D2",
          "midi": 38,
          "time": 171.51719849999935,
          "velocity": 0.7480314960629921,
          "duration": 0.20689649999999915
        },
        {
          "name": "D2",
          "midi": 38,
          "time": 171.93099149999935,
          "velocity": 0.7480314960629921,
          "duration": 0.20689649999999915
        },
        {
          "name": "D2",
          "midi": 38,
          "time": 172.13788799999935,
          "velocity": 0.7480314960629921,
          "duration": 0.20689649999999915
        },
        {
          "name": "D2",
          "midi": 38,
          "time": 172.34478449999935,
          "velocity": 0.7480314960629921,
          "duration": 0.20689649999999915
        },
        {
          "name": "C2",
          "midi": 36,
          "time": 172.55168099999935,
          "velocity": 0.7480314960629921,
          "duration": 0.20689649999999915
        },
        {
          "name": "C2",
          "midi": 36,
          "time": 172.75857749999935,
          "velocity": 0.7480314960629921,
          "duration": 0.20689649999999915
        },
        {
          "name": "C2",
          "midi": 36,
          "time": 173.17237049999935,
          "velocity": 0.7480314960629921,
          "duration": 0.20689649999999915
        },
        {
          "name": "C2",
          "midi": 36,
          "time": 173.37926699999934,
          "velocity": 0.7480314960629921,
          "duration": 0.20689649999999915
        },
        {
          "name": "C2",
          "midi": 36,
          "time": 173.58616349999934,
          "velocity": 0.7480314960629921,
          "duration": 0.20689649999999915
        },
        {
          "name": "C2",
          "midi": 36,
          "time": 173.99995649999934,
          "velocity": 0.7480314960629921,
          "duration": 0.20689649999999915
        },
        {
          "name": "C2",
          "midi": 36,
          "time": 174.20685299999934,
          "velocity": 0.7480314960629921,
          "duration": 0.20689649999999915
        },
        {
          "name": "C2",
          "midi": 36,
          "time": 174.41374949999934,
          "velocity": 0.7480314960629921,
          "duration": 0.20689649999999915
        },
        {
          "name": "C2",
          "midi": 36,
          "time": 174.82754249999934,
          "velocity": 0.7480314960629921,
          "duration": 0.20689649999997073
        },
        {
          "name": "G2",
          "midi": 43,
          "time": 175.0344389999993,
          "velocity": 0.7480314960629921,
          "duration": 0.20689649999999915
        },
        {
          "name": "G2",
          "midi": 43,
          "time": 175.2413354999993,
          "velocity": 0.7480314960629921,
          "duration": 0.20689649999999915
        },
        {
          "name": "B1",
          "midi": 35,
          "time": 175.4482319999993,
          "velocity": 0.7480314960629921,
          "duration": 0.20689649999999915
        },
        {
          "name": "B1",
          "midi": 35,
          "time": 175.6551284999993,
          "velocity": 0.7480314960629921,
          "duration": 0.20689649999999915
        },
        {
          "name": "B1",
          "midi": 35,
          "time": 176.0689214999993,
          "velocity": 0.7480314960629921,
          "duration": 0.20689649999999915
        },
        {
          "name": "B1",
          "midi": 35,
          "time": 176.2758179999993,
          "velocity": 0.7480314960629921,
          "duration": 0.20689649999999915
        },
        {
          "name": "B1",
          "midi": 35,
          "time": 176.4827144999993,
          "velocity": 0.7480314960629921,
          "duration": 0.20689649999999915
        },
        {
          "name": "B1",
          "midi": 35,
          "time": 176.8965074999993,
          "velocity": 0.7480314960629921,
          "duration": 0.20689649999999915
        },
        {
          "name": "B1",
          "midi": 35,
          "time": 177.1034039999993,
          "velocity": 0.7480314960629921,
          "duration": 0.20689649999999915
        },
        {
          "name": "B1",
          "midi": 35,
          "time": 177.3103004999993,
          "velocity": 0.7480314960629921,
          "duration": 0.20689649999999915
        },
        {
          "name": "B1",
          "midi": 35,
          "time": 177.7240934999993,
          "velocity": 0.7480314960629921,
          "duration": 0.20689649999999915
        },
        {
          "name": "B1",
          "midi": 35,
          "time": 177.9309899999993,
          "velocity": 0.7480314960629921,
          "duration": 0.20689649999999915
        },
        {
          "name": "B1",
          "midi": 35,
          "time": 178.1378864999993,
          "velocity": 0.7480314960629921,
          "duration": 0.20689649999999915
        },
        {
          "name": "D2",
          "midi": 38,
          "time": 178.3447829999993,
          "velocity": 0.7480314960629921,
          "duration": 0.20689649999999915
        },
        {
          "name": "D2",
          "midi": 38,
          "time": 178.5516794999993,
          "velocity": 0.7480314960629921,
          "duration": 0.20689649999999915
        },
        {
          "name": "D2",
          "midi": 38,
          "time": 178.9654724999993,
          "velocity": 0.7480314960629921,
          "duration": 0.20689649999999915
        },
        {
          "name": "D2",
          "midi": 38,
          "time": 179.1723689999993,
          "velocity": 0.7480314960629921,
          "duration": 0.20689649999999915
        },
        {
          "name": "D2",
          "midi": 38,
          "time": 179.3792654999993,
          "velocity": 0.7480314960629921,
          "duration": 0.20689649999999915
        },
        {
          "name": "D2",
          "midi": 38,
          "time": 179.7930584999993,
          "velocity": 0.7480314960629921,
          "duration": 0.20689649999999915
        },
        {
          "name": "D2",
          "midi": 38,
          "time": 179.9999549999993,
          "velocity": 0.7480314960629921,
          "duration": 0.20689649999999915
        },
        {
          "name": "D2",
          "midi": 38,
          "time": 180.2068514999993,
          "velocity": 0.7480314960629921,
          "duration": 0.20689649999999915
        },
        {
          "name": "D2",
          "midi": 38,
          "time": 180.6206444999993,
          "velocity": 0.7480314960629921,
          "duration": 0.20689649999999915
        },
        {
          "name": "D2",
          "midi": 38,
          "time": 180.8275409999993,
          "velocity": 0.7480314960629921,
          "duration": 0.20689649999999915
        },
        {
          "name": "D2",
          "midi": 38,
          "time": 181.03443749999929,
          "velocity": 0.7480314960629921,
          "duration": 0.20689649999999915
        },
        {
          "name": "C2",
          "midi": 36,
          "time": 181.24133399999928,
          "velocity": 0.7480314960629921,
          "duration": 0.20689649999999915
        },
        {
          "name": "C2",
          "midi": 36,
          "time": 181.44823049999928,
          "velocity": 0.7480314960629921,
          "duration": 0.20689649999999915
        },
        {
          "name": "C2",
          "midi": 36,
          "time": 181.86202349999928,
          "velocity": 0.7480314960629921,
          "duration": 0.20689649999999915
        },
        {
          "name": "C2",
          "midi": 36,
          "time": 182.06891999999928,
          "velocity": 0.7480314960629921,
          "duration": 0.20689649999999915
        },
        {
          "name": "C2",
          "midi": 36,
          "time": 182.27581649999928,
          "velocity": 0.7480314960629921,
          "duration": 0.20689649999999915
        },
        {
          "name": "C2",
          "midi": 36,
          "time": 182.68960949999928,
          "velocity": 0.7480314960629921,
          "duration": 0.20689649999999915
        },
        {
          "name": "C2",
          "midi": 36,
          "time": 182.89650599999928,
          "velocity": 0.7480314960629921,
          "duration": 0.20689649999999915
        },
        {
          "name": "C2",
          "midi": 36,
          "time": 183.10340249999928,
          "velocity": 0.7480314960629921,
          "duration": 0.20689649999999915
        },
        {
          "name": "C2",
          "midi": 36,
          "time": 183.51719549999927,
          "velocity": 0.7480314960629921,
          "duration": 0.20689649999997073
        },
        {
          "name": "G2",
          "midi": 43,
          "time": 183.72409199999925,
          "velocity": 0.7480314960629921,
          "duration": 0.20689649999999915
        },
        {
          "name": "G2",
          "midi": 43,
          "time": 183.93098849999924,
          "velocity": 0.7480314960629921,
          "duration": 0.20689649999999915
        },
        {
          "name": "B1",
          "midi": 35,
          "time": 184.13788499999924,
          "velocity": 0.7480314960629921,
          "duration": 0.20689649999999915
        },
        {
          "name": "B1",
          "midi": 35,
          "time": 184.34478149999924,
          "velocity": 0.7480314960629921,
          "duration": 0.20689649999999915
        },
        {
          "name": "B1",
          "midi": 35,
          "time": 184.75857449999924,
          "velocity": 0.7480314960629921,
          "duration": 0.20689649999999915
        },
        {
          "name": "B1",
          "midi": 35,
          "time": 184.96547099999924,
          "velocity": 0.7480314960629921,
          "duration": 0.20689649999999915
        },
        {
          "name": "B1",
          "midi": 35,
          "time": 185.17236749999924,
          "velocity": 0.7480314960629921,
          "duration": 0.20689649999999915
        },
        {
          "name": "B1",
          "midi": 35,
          "time": 185.58616049999924,
          "velocity": 0.7480314960629921,
          "duration": 0.20689649999999915
        },
        {
          "name": "B1",
          "midi": 35,
          "time": 185.79305699999924,
          "velocity": 0.7480314960629921,
          "duration": 0.20689649999999915
        },
        {
          "name": "B1",
          "midi": 35,
          "time": 185.99995349999924,
          "velocity": 0.7480314960629921,
          "duration": 0.20689649999999915
        },
        {
          "name": "B1",
          "midi": 35,
          "time": 186.41374649999923,
          "velocity": 0.7480314960629921,
          "duration": 0.20689649999999915
        },
        {
          "name": "B1",
          "midi": 35,
          "time": 186.62064299999923,
          "velocity": 0.7480314960629921,
          "duration": 0.20689649999999915
        },
        {
          "name": "B1",
          "midi": 35,
          "time": 186.82753949999923,
          "velocity": 0.7480314960629921,
          "duration": 0.20689649999999915
        },
        {
          "name": "A1",
          "midi": 33,
          "time": 187.03443599999923,
          "velocity": 0.7480314960629921,
          "duration": 0.20689649999999915
        },
        {
          "name": "D2",
          "midi": 38,
          "time": 187.24133249999923,
          "velocity": 0.7480314960629921,
          "duration": 0.20689649999999915
        },
        {
          "name": "D2",
          "midi": 38,
          "time": 187.44822899999923,
          "velocity": 0.7480314960629921,
          "duration": 0.20689649999999915
        },
        {
          "name": "A1",
          "midi": 33,
          "time": 187.65512549999923,
          "velocity": 0.7480314960629921,
          "duration": 0.20689649999999915
        },
        {
          "name": "D2",
          "midi": 38,
          "time": 187.86202199999923,
          "velocity": 0.7480314960629921,
          "duration": 0.4137929999999983
        },
        {
          "name": "A1",
          "midi": 33,
          "time": 188.27581499999923,
          "velocity": 0.7480314960629921,
          "duration": 0.20689649999999915
        },
        {
          "name": "D2",
          "midi": 38,
          "time": 188.48271149999923,
          "velocity": 0.7480314960629921,
          "duration": 0.20689649999999915
        },
        {
          "name": "D2",
          "midi": 38,
          "time": 188.68960799999923,
          "velocity": 0.7480314960629921,
          "duration": 0.20689649999999915
        },
        {
          "name": "A1",
          "midi": 33,
          "time": 188.89650449999922,
          "velocity": 0.7480314960629921,
          "duration": 0.20689649999999915
        },
        {
          "name": "D2",
          "midi": 38,
          "time": 189.10340099999922,
          "velocity": 0.7480314960629921,
          "duration": 0.4137929999999983
        },
        {
          "name": "A1",
          "midi": 33,
          "time": 189.51719399999922,
          "velocity": 0.7480314960629921,
          "duration": 0.20689649999999915
        },
        {
          "name": "D2",
          "midi": 38,
          "time": 189.72409049999922,
          "velocity": 0.7480314960629921,
          "duration": 0.20689649999999915
        },
        {
          "name": "D2",
          "midi": 38,
          "time": 189.93098699999922,
          "velocity": 0.7480314960629921,
          "duration": 0.20689649999999915
        },
        {
          "name": "A1",
          "midi": 33,
          "time": 190.34477999999922,
          "velocity": 0.7480314960629921,
          "duration": 0.20689649999999915
        },
        {
          "name": "D2",
          "midi": 38,
          "time": 190.55167649999922,
          "velocity": 0.7480314960629921,
          "duration": 0.20689649999999915
        },
        {
          "name": "D2",
          "midi": 38,
          "time": 190.75857299999922,
          "velocity": 0.7480314960629921,
          "duration": 0.20689649999999915
        },
        {
          "name": "A1",
          "midi": 33,
          "time": 190.96546949999922,
          "velocity": 0.7480314960629921,
          "duration": 0.20689649999999915
        },
        {
          "name": "D2",
          "midi": 38,
          "time": 191.17236599999922,
          "velocity": 0.7480314960629921,
          "duration": 0.4137929999999983
        },
        {
          "name": "A1",
          "midi": 33,
          "time": 191.5861589999992,
          "velocity": 0.7480314960629921,
          "duration": 0.20689649999999915
        },
        {
          "name": "D2",
          "midi": 38,
          "time": 191.7930554999992,
          "velocity": 0.7480314960629921,
          "duration": 0.20689649999999915
        },
        {
          "name": "D2",
          "midi": 38,
          "time": 191.9999519999992,
          "velocity": 0.7480314960629921,
          "duration": 0.20689649999999915
        },
        {
          "name": "A1",
          "midi": 33,
          "time": 192.2068484999992,
          "velocity": 0.7480314960629921,
          "duration": 0.20689649999999915
        },
        {
          "name": "D2",
          "midi": 38,
          "time": 192.4137449999992,
          "velocity": 0.7480314960629921,
          "duration": 0.4137929999999983
        },
        {
          "name": "A1",
          "midi": 33,
          "time": 192.8275379999992,
          "velocity": 0.7480314960629921,
          "duration": 0.20689649999999915
        },
        {
          "name": "D2",
          "midi": 38,
          "time": 193.0344344999992,
          "velocity": 0.7480314960629921,
          "duration": 0.20689649999999915
        },
        {
          "name": "D2",
          "midi": 38,
          "time": 193.2413309999992,
          "velocity": 0.7480314960629921,
          "duration": 0.20689649999999915
        },
        {
          "name": "A1",
          "midi": 33,
          "time": 193.6551239999992,
          "velocity": 0.7480314960629921,
          "duration": 0.20689649999999915
        },
        {
          "name": "D2",
          "midi": 38,
          "time": 193.8620204999992,
          "velocity": 0.7480314960629921,
          "duration": 0.20689649999999915
        },
        {
          "name": "D2",
          "midi": 38,
          "time": 194.0689169999992,
          "velocity": 0.7480314960629921,
          "duration": 0.20689649999999915
        },
        {
          "name": "A1",
          "midi": 33,
          "time": 194.2758134999992,
          "velocity": 0.7480314960629921,
          "duration": 0.20689649999999915
        },
        {
          "name": "D2",
          "midi": 38,
          "time": 194.4827099999992,
          "velocity": 0.7480314960629921,
          "duration": 0.4137929999999983
        },
        {
          "name": "A1",
          "midi": 33,
          "time": 194.8965029999992,
          "velocity": 0.7480314960629921,
          "duration": 0.20689649999999915
        },
        {
          "name": "D2",
          "midi": 38,
          "time": 195.1033994999992,
          "velocity": 0.7480314960629921,
          "duration": 0.20689649999999915
        },
        {
          "name": "D2",
          "midi": 38,
          "time": 195.3102959999992,
          "velocity": 0.7480314960629921,
          "duration": 0.20689649999999915
        },
        {
          "name": "A1",
          "midi": 33,
          "time": 195.5171924999992,
          "velocity": 0.7480314960629921,
          "duration": 0.20689649999999915
        },
        {
          "name": "D2",
          "midi": 38,
          "time": 195.7240889999992,
          "velocity": 0.7480314960629921,
          "duration": 0.4137929999999983
        },
        {
          "name": "A1",
          "midi": 33,
          "time": 196.1378819999992,
          "velocity": 0.7480314960629921,
          "duration": 0.20689649999999915
        },
        {
          "name": "D2",
          "midi": 38,
          "time": 196.3447784999992,
          "velocity": 0.7480314960629921,
          "duration": 0.20689649999999915
        },
        {
          "name": "D2",
          "midi": 38,
          "time": 196.5516749999992,
          "velocity": 0.7480314960629921,
          "duration": 0.20689649999999915
        },
        {
          "name": "A1",
          "midi": 33,
          "time": 196.9654679999992,
          "velocity": 0.7480314960629921,
          "duration": 0.20689649999999915
        },
        {
          "name": "D2",
          "midi": 38,
          "time": 197.1723644999992,
          "velocity": 0.7480314960629921,
          "duration": 0.20689649999999915
        },
        {
          "name": "D2",
          "midi": 38,
          "time": 197.3792609999992,
          "velocity": 0.7480314960629921,
          "duration": 0.20689649999999915
        },
        {
          "name": "A1",
          "midi": 33,
          "time": 197.5861574999992,
          "velocity": 0.7480314960629921,
          "duration": 0.20689649999999915
        },
        {
          "name": "D2",
          "midi": 38,
          "time": 197.7930539999992,
          "velocity": 0.7480314960629921,
          "duration": 0.4137929999999983
        },
        {
          "name": "A1",
          "midi": 33,
          "time": 198.2068469999992,
          "velocity": 0.7480314960629921,
          "duration": 0.20689649999999915
        },
        {
          "name": "D2",
          "midi": 38,
          "time": 198.41374349999919,
          "velocity": 0.7480314960629921,
          "duration": 0.20689649999999915
        },
        {
          "name": "D2",
          "midi": 38,
          "time": 198.62063999999918,
          "velocity": 0.7480314960629921,
          "duration": 0.20689649999999915
        },
        {
          "name": "A1",
          "midi": 33,
          "time": 198.82753649999918,
          "velocity": 0.7480314960629921,
          "duration": 0.20689649999999915
        },
        {
          "name": "D2",
          "midi": 38,
          "time": 199.03443299999918,
          "velocity": 0.7480314960629921,
          "duration": 0.4137929999999983
        },
        {
          "name": "A1",
          "midi": 33,
          "time": 199.44822599999918,
          "velocity": 0.7480314960629921,
          "duration": 0.20689649999999915
        },
        {
          "name": "D2",
          "midi": 38,
          "time": 199.65512249999918,
          "velocity": 0.7480314960629921,
          "duration": 0.20689649999999915
        },
        {
          "name": "D2",
          "midi": 38,
          "time": 199.86201899999918,
          "velocity": 0.7480314960629921,
          "duration": 0.20689649999999915
        },
        {
          "name": "C2",
          "midi": 36,
          "time": 200.27581199999918,
          "velocity": 0.7480314960629921,
          "duration": 0.20689649999999915
        },
        {
          "name": "C2",
          "midi": 36,
          "time": 200.48270849999918,
          "velocity": 0.7480314960629921,
          "duration": 0.20689649999999915
        },
        {
          "name": "C2",
          "midi": 36,
          "time": 200.68960499999918,
          "velocity": 0.7480314960629921,
          "duration": 0.20689649999999915
        },
        {
          "name": "C2",
          "midi": 36,
          "time": 200.89650149999918,
          "velocity": 0.7480314960629921,
          "duration": 0.20689649999999915
        },
        {
          "name": "C2",
          "midi": 36,
          "time": 201.10339799999917,
          "velocity": 0.7480314960629921,
          "duration": 0.20689649999999915
        },
        {
          "name": "C2",
          "midi": 36,
          "time": 201.31029449999917,
          "velocity": 0.7480314960629921,
          "duration": 0.20689649999999915
        },
        {
          "name": "C2",
          "midi": 36,
          "time": 201.51719099999917,
          "velocity": 0.7480314960629921,
          "duration": 0.20689649999999915
        },
        {
          "name": "C2",
          "midi": 36,
          "time": 201.72408749999917,
          "velocity": 0.7480314960629921,
          "duration": 0.20689649999999915
        },
        {
          "name": "E2",
          "midi": 40,
          "time": 201.93098399999917,
          "velocity": 0.7480314960629921,
          "duration": 0.20689649999999915
        },
        {
          "name": "E2",
          "midi": 40,
          "time": 202.13788049999917,
          "velocity": 0.7480314960629921,
          "duration": 0.20689649999999915
        },
        {
          "name": "E2",
          "midi": 40,
          "time": 202.34477699999917,
          "velocity": 0.7480314960629921,
          "duration": 0.20689649999999915
        },
        {
          "name": "E2",
          "midi": 40,
          "time": 202.55167349999917,
          "velocity": 0.7480314960629921,
          "duration": 0.20689649999999915
        },
        {
          "name": "E2",
          "midi": 40,
          "time": 202.75856999999917,
          "velocity": 0.7480314960629921,
          "duration": 0.20689649999999915
        },
        {
          "name": "E2",
          "midi": 40,
          "time": 202.96546649999917,
          "velocity": 0.7480314960629921,
          "duration": 0.20689649999999915
        },
        {
          "name": "E2",
          "midi": 40,
          "time": 203.17236299999917,
          "velocity": 0.7480314960629921,
          "duration": 0.20689649999999915
        },
        {
          "name": "E2",
          "midi": 40,
          "time": 203.37925949999916,
          "velocity": 0.7480314960629921,
          "duration": 0.20689649999999915
        },
        {
          "name": "D2",
          "midi": 38,
          "time": 203.58615599999916,
          "velocity": 0.7480314960629921,
          "duration": 0.20689649999999915
        },
        {
          "name": "D2",
          "midi": 38,
          "time": 203.79305249999916,
          "velocity": 0.7480314960629921,
          "duration": 0.20689649999999915
        },
        {
          "name": "D2",
          "midi": 38,
          "time": 203.99994899999916,
          "velocity": 0.7480314960629921,
          "duration": 0.20689649999999915
        },
        {
          "name": "D2",
          "midi": 38,
          "time": 204.20684549999916,
          "velocity": 0.7480314960629921,
          "duration": 0.20689649999999915
        },
        {
          "name": "D2",
          "midi": 38,
          "time": 204.41374199999916,
          "velocity": 0.7480314960629921,
          "duration": 0.20689649999999915
        },
        {
          "name": "D2",
          "midi": 38,
          "time": 204.62063849999916,
          "velocity": 0.7480314960629921,
          "duration": 0.20689649999999915
        },
        {
          "name": "D2",
          "midi": 38,
          "time": 204.82753499999916,
          "velocity": 0.7480314960629921,
          "duration": 0.20689649999999915
        },
        {
          "name": "D2",
          "midi": 38,
          "time": 205.03443149999916,
          "velocity": 0.7480314960629921,
          "duration": 0.20689649999999915
        },
        {
          "name": "C2",
          "midi": 36,
          "time": 205.24132799999916,
          "velocity": 0.7480314960629921,
          "duration": 0.20689649999999915
        },
        {
          "name": "C2",
          "midi": 36,
          "time": 205.44822449999916,
          "velocity": 0.7480314960629921,
          "duration": 0.20689649999999915
        },
        {
          "name": "C2",
          "midi": 36,
          "time": 205.65512099999916,
          "velocity": 0.7480314960629921,
          "duration": 0.20689649999999915
        },
        {
          "name": "C2",
          "midi": 36,
          "time": 205.86201749999915,
          "velocity": 0.7480314960629921,
          "duration": 0.20689649999999915
        },
        {
          "name": "C2",
          "midi": 36,
          "time": 206.06891399999915,
          "velocity": 0.7480314960629921,
          "duration": 0.20689649999999915
        },
        {
          "name": "C2",
          "midi": 36,
          "time": 206.27581049999915,
          "velocity": 0.7480314960629921,
          "duration": 0.20689649999999915
        },
        {
          "name": "C2",
          "midi": 36,
          "time": 206.48270699999915,
          "velocity": 0.7480314960629921,
          "duration": 0.20689649999999915
        },
        {
          "name": "C2",
          "midi": 36,
          "time": 206.68960349999915,
          "velocity": 0.7480314960629921,
          "duration": 0.20689649999999915
        },
        {
          "name": "E2",
          "midi": 40,
          "time": 206.89649999999915,
          "velocity": 0.7480314960629921,
          "duration": 0.20689649999999915
        },
        {
          "name": "E2",
          "midi": 40,
          "time": 207.10339649999915,
          "velocity": 0.7480314960629921,
          "duration": 0.20689649999999915
        },
        {
          "name": "E2",
          "midi": 40,
          "time": 207.31029299999915,
          "velocity": 0.7480314960629921,
          "duration": 0.20689649999999915
        },
        {
          "name": "E2",
          "midi": 40,
          "time": 207.51718949999915,
          "velocity": 0.7480314960629921,
          "duration": 0.20689649999999915
        },
        {
          "name": "E2",
          "midi": 40,
          "time": 207.72408599999915,
          "velocity": 0.7480314960629921,
          "duration": 0.20689649999999915
        },
        {
          "name": "E2",
          "midi": 40,
          "time": 207.93098249999915,
          "velocity": 0.7480314960629921,
          "duration": 0.20689649999999915
        },
        {
          "name": "E2",
          "midi": 40,
          "time": 208.13787899999915,
          "velocity": 0.7480314960629921,
          "duration": 0.20689649999999915
        },
        {
          "name": "E2",
          "midi": 40,
          "time": 208.34477549999914,
          "velocity": 0.7480314960629921,
          "duration": 0.20689649999999915
        },
        {
          "name": "D2",
          "midi": 38,
          "time": 208.55167199999914,
          "velocity": 0.7480314960629921,
          "duration": 0.20689649999999915
        },
        {
          "name": "D2",
          "midi": 38,
          "time": 208.75856849999914,
          "velocity": 0.7480314960629921,
          "duration": 0.20689649999999915
        },
        {
          "name": "D2",
          "midi": 38,
          "time": 208.96546499999914,
          "velocity": 0.7480314960629921,
          "duration": 0.20689649999999915
        },
        {
          "name": "D2",
          "midi": 38,
          "time": 209.17236149999914,
          "velocity": 0.7480314960629921,
          "duration": 0.20689649999999915
        },
        {
          "name": "D2",
          "midi": 38,
          "time": 209.37925799999914,
          "velocity": 0.7480314960629921,
          "duration": 0.20689649999997073
        },
        {
          "name": "G2",
          "midi": 43,
          "time": 209.5861544999991,
          "velocity": 0.7480314960629921,
          "duration": 0.20689649999999915
        },
        {
          "name": "G2",
          "midi": 43,
          "time": 209.7930509999991,
          "velocity": 0.7480314960629921,
          "duration": 0.20689649999999915
        },
        {
          "name": "G2",
          "midi": 43,
          "time": 209.9999474999991,
          "velocity": 0.7480314960629921,
          "duration": 0.20689649999999915
        },
        {
          "name": "C2",
          "midi": 36,
          "time": 210.2068439999991,
          "velocity": 0.7480314960629921,
          "duration": 0.20689649999999915
        },
        {
          "name": "C2",
          "midi": 36,
          "time": 210.4137404999991,
          "velocity": 0.7480314960629921,
          "duration": 0.20689649999999915
        },
        {
          "name": "C2",
          "midi": 36,
          "time": 210.6206369999991,
          "velocity": 0.7480314960629921,
          "duration": 0.20689649999999915
        },
        {
          "name": "C2",
          "midi": 36,
          "time": 210.8275334999991,
          "velocity": 0.7480314960629921,
          "duration": 0.20689649999999915
        },
        {
          "name": "C2",
          "midi": 36,
          "time": 211.0344299999991,
          "velocity": 0.7480314960629921,
          "duration": 0.20689649999999915
        },
        {
          "name": "C2",
          "midi": 36,
          "time": 211.2413264999991,
          "velocity": 0.7480314960629921,
          "duration": 0.20689649999999915
        },
        {
          "name": "C2",
          "midi": 36,
          "time": 211.4482229999991,
          "velocity": 0.7480314960629921,
          "duration": 0.20689649999999915
        },
        {
          "name": "C2",
          "midi": 36,
          "time": 211.6551194999991,
          "velocity": 0.7480314960629921,
          "duration": 0.20689649999999915
        },
        {
          "name": "E2",
          "midi": 40,
          "time": 211.8620159999991,
          "velocity": 0.7480314960629921,
          "duration": 0.20689649999999915
        },
        {
          "name": "E2",
          "midi": 40,
          "time": 212.0689124999991,
          "velocity": 0.7480314960629921,
          "duration": 0.20689649999999915
        },
        {
          "name": "E2",
          "midi": 40,
          "time": 212.2758089999991,
          "velocity": 0.7480314960629921,
          "duration": 0.20689649999999915
        },
        {
          "name": "E2",
          "midi": 40,
          "time": 212.4827054999991,
          "velocity": 0.7480314960629921,
          "duration": 0.20689649999999915
        },
        {
          "name": "E2",
          "midi": 40,
          "time": 212.6896019999991,
          "velocity": 0.7480314960629921,
          "duration": 0.20689649999999915
        },
        {
          "name": "E2",
          "midi": 40,
          "time": 212.8964984999991,
          "velocity": 0.7480314960629921,
          "duration": 0.20689649999999915
        },
        {
          "name": "E2",
          "midi": 40,
          "time": 213.1033949999991,
          "velocity": 0.7480314960629921,
          "duration": 0.20689649999999915
        },
        {
          "name": "E2",
          "midi": 40,
          "time": 213.3102914999991,
          "velocity": 0.7480314960629921,
          "duration": 0.20689649999999915
        },
        {
          "name": "D2",
          "midi": 38,
          "time": 213.5171879999991,
          "velocity": 0.7480314960629921,
          "duration": 0.20689649999999915
        },
        {
          "name": "D2",
          "midi": 38,
          "time": 213.7240844999991,
          "velocity": 0.7480314960629921,
          "duration": 0.20689649999999915
        },
        {
          "name": "D2",
          "midi": 38,
          "time": 213.9309809999991,
          "velocity": 0.7480314960629921,
          "duration": 0.20689649999999915
        },
        {
          "name": "D2",
          "midi": 38,
          "time": 214.1378774999991,
          "velocity": 0.7480314960629921,
          "duration": 0.20689649999999915
        },
        {
          "name": "D2",
          "midi": 38,
          "time": 214.3447739999991,
          "velocity": 0.7480314960629921,
          "duration": 0.20689649999999915
        },
        {
          "name": "D2",
          "midi": 38,
          "time": 214.5516704999991,
          "velocity": 0.7480314960629921,
          "duration": 0.20689649999999915
        },
        {
          "name": "D2",
          "midi": 38,
          "time": 214.7585669999991,
          "velocity": 0.7480314960629921,
          "duration": 0.20689649999999915
        },
        {
          "name": "D2",
          "midi": 38,
          "time": 214.9654634999991,
          "velocity": 0.7480314960629921,
          "duration": 0.20689649999999915
        },
        {
          "name": "C2",
          "midi": 36,
          "time": 215.1723599999991,
          "velocity": 0.7480314960629921,
          "duration": 0.20689649999999915
        },
        {
          "name": "C2",
          "midi": 36,
          "time": 215.3792564999991,
          "velocity": 0.7480314960629921,
          "duration": 0.20689649999999915
        },
        {
          "name": "C2",
          "midi": 36,
          "time": 215.5861529999991,
          "velocity": 0.7480314960629921,
          "duration": 0.20689649999999915
        },
        {
          "name": "C2",
          "midi": 36,
          "time": 215.79304949999909,
          "velocity": 0.7480314960629921,
          "duration": 0.20689649999999915
        },
        {
          "name": "C2",
          "midi": 36,
          "time": 215.99994599999908,
          "velocity": 0.7480314960629921,
          "duration": 0.20689649999999915
        },
        {
          "name": "C2",
          "midi": 36,
          "time": 216.20684249999908,
          "velocity": 0.7480314960629921,
          "duration": 0.20689649999999915
        },
        {
          "name": "C2",
          "midi": 36,
          "time": 216.41373899999908,
          "velocity": 0.7480314960629921,
          "duration": 0.20689649999999915
        },
        {
          "name": "C2",
          "midi": 36,
          "time": 216.62063549999908,
          "velocity": 0.7480314960629921,
          "duration": 0.20689649999999915
        },
        {
          "name": "E2",
          "midi": 40,
          "time": 216.82753199999908,
          "velocity": 0.7480314960629921,
          "duration": 0.20689649999999915
        },
        {
          "name": "E2",
          "midi": 40,
          "time": 217.03442849999908,
          "velocity": 0.7480314960629921,
          "duration": 0.20689649999999915
        },
        {
          "name": "E2",
          "midi": 40,
          "time": 217.24132499999908,
          "velocity": 0.7480314960629921,
          "duration": 0.20689649999999915
        },
        {
          "name": "E2",
          "midi": 40,
          "time": 217.44822149999908,
          "velocity": 0.7480314960629921,
          "duration": 0.20689649999999915
        },
        {
          "name": "E2",
          "midi": 40,
          "time": 217.65511799999908,
          "velocity": 0.7480314960629921,
          "duration": 0.20689649999999915
        },
        {
          "name": "E2",
          "midi": 40,
          "time": 217.86201449999908,
          "velocity": 0.7480314960629921,
          "duration": 0.20689649999999915
        },
        {
          "name": "E2",
          "midi": 40,
          "time": 218.06891099999908,
          "velocity": 0.7480314960629921,
          "duration": 0.20689649999999915
        },
        {
          "name": "E2",
          "midi": 40,
          "time": 218.27580749999908,
          "velocity": 0.7480314960629921,
          "duration": 0.20689649999999915
        },
        {
          "name": "D2",
          "midi": 38,
          "time": 218.48270399999907,
          "velocity": 0.7480314960629921,
          "duration": 0.20689649999999915
        },
        {
          "name": "D2",
          "midi": 38,
          "time": 218.68960049999907,
          "velocity": 0.7480314960629921,
          "duration": 0.20689649999999915
        },
        {
          "name": "D2",
          "midi": 38,
          "time": 218.89649699999907,
          "velocity": 0.7480314960629921,
          "duration": 0.20689649999999915
        },
        {
          "name": "D2",
          "midi": 38,
          "time": 219.10339349999907,
          "velocity": 0.7480314960629921,
          "duration": 0.20689649999999915
        },
        {
          "name": "D2",
          "midi": 38,
          "time": 219.31028999999907,
          "velocity": 0.7480314960629921,
          "duration": 0.20689649999997073
        },
        {
          "name": "G2",
          "midi": 43,
          "time": 219.51718649999904,
          "velocity": 0.7480314960629921,
          "duration": 0.20689649999999915
        },
        {
          "name": "G2",
          "midi": 43,
          "time": 219.72408299999904,
          "velocity": 0.7480314960629921,
          "duration": 0.20689649999999915
        },
        {
          "name": "G2",
          "midi": 43,
          "time": 219.93097949999904,
          "velocity": 0.7480314960629921,
          "duration": 0.20689649999999915
        },
        {
          "name": "C2",
          "midi": 36,
          "time": 220.13787599999904,
          "velocity": 0.7480314960629921,
          "duration": 0.20689649999999915
        },
        {
          "name": "C2",
          "midi": 36,
          "time": 220.34477249999904,
          "velocity": 0.7480314960629921,
          "duration": 0.20689649999999915
        },
        {
          "name": "C2",
          "midi": 36,
          "time": 220.55166899999904,
          "velocity": 0.7480314960629921,
          "duration": 0.20689649999999915
        },
        {
          "name": "C2",
          "midi": 36,
          "time": 220.75856549999904,
          "velocity": 0.7480314960629921,
          "duration": 0.20689649999999915
        },
        {
          "name": "C2",
          "midi": 36,
          "time": 220.96546199999904,
          "velocity": 0.7480314960629921,
          "duration": 0.20689649999999915
        },
        {
          "name": "C2",
          "midi": 36,
          "time": 221.17235849999904,
          "velocity": 0.7480314960629921,
          "duration": 0.20689649999999915
        },
        {
          "name": "C2",
          "midi": 36,
          "time": 221.37925499999903,
          "velocity": 0.7480314960629921,
          "duration": 0.20689649999999915
        },
        {
          "name": "C2",
          "midi": 36,
          "time": 221.58615149999903,
          "velocity": 0.7480314960629921,
          "duration": 0.20689649999999915
        },
        {
          "name": "E2",
          "midi": 40,
          "time": 221.79304799999903,
          "velocity": 0.7480314960629921,
          "duration": 0.20689649999999915
        },
        {
          "name": "E2",
          "midi": 40,
          "time": 221.99994449999903,
          "velocity": 0.7480314960629921,
          "duration": 0.20689649999999915
        },
        {
          "name": "E2",
          "midi": 40,
          "time": 222.20684099999903,
          "velocity": 0.7480314960629921,
          "duration": 0.20689649999999915
        },
        {
          "name": "E2",
          "midi": 40,
          "time": 222.41373749999903,
          "velocity": 0.7480314960629921,
          "duration": 0.20689649999999915
        },
        {
          "name": "E2",
          "midi": 40,
          "time": 222.62063399999903,
          "velocity": 0.7480314960629921,
          "duration": 0.20689649999999915
        },
        {
          "name": "E2",
          "midi": 40,
          "time": 222.82753049999903,
          "velocity": 0.7480314960629921,
          "duration": 0.20689649999999915
        },
        {
          "name": "E2",
          "midi": 40,
          "time": 223.03442699999903,
          "velocity": 0.7480314960629921,
          "duration": 0.20689649999999915
        },
        {
          "name": "E2",
          "midi": 40,
          "time": 223.24132349999903,
          "velocity": 0.7480314960629921,
          "duration": 0.20689649999999915
        },
        {
          "name": "D2",
          "midi": 38,
          "time": 223.44821999999903,
          "velocity": 0.7480314960629921,
          "duration": 0.20689649999999915
        },
        {
          "name": "D2",
          "midi": 38,
          "time": 223.65511649999902,
          "velocity": 0.7480314960629921,
          "duration": 0.20689649999999915
        },
        {
          "name": "D2",
          "midi": 38,
          "time": 223.86201299999902,
          "velocity": 0.7480314960629921,
          "duration": 0.20689649999999915
        },
        {
          "name": "D2",
          "midi": 38,
          "time": 224.06890949999902,
          "velocity": 0.7480314960629921,
          "duration": 0.20689649999999915
        },
        {
          "name": "D2",
          "midi": 38,
          "time": 224.27580599999902,
          "velocity": 0.7480314960629921,
          "duration": 0.20689649999999915
        },
        {
          "name": "D2",
          "midi": 38,
          "time": 224.48270249999902,
          "velocity": 0.7480314960629921,
          "duration": 0.20689649999999915
        },
        {
          "name": "D2",
          "midi": 38,
          "time": 224.68959899999902,
          "velocity": 0.7480314960629921,
          "duration": 0.20689649999999915
        },
        {
          "name": "D2",
          "midi": 38,
          "time": 224.89649549999902,
          "velocity": 0.7480314960629921,
          "duration": 0.20689649999999915
        },
        {
          "name": "C2",
          "midi": 36,
          "time": 225.10339199999902,
          "velocity": 0.7480314960629921,
          "duration": 0.20689649999999915
        },
        {
          "name": "C2",
          "midi": 36,
          "time": 225.31028849999902,
          "velocity": 0.7480314960629921,
          "duration": 0.20689649999999915
        },
        {
          "name": "C2",
          "midi": 36,
          "time": 225.51718499999902,
          "velocity": 0.7480314960629921,
          "duration": 0.20689649999999915
        },
        {
          "name": "C2",
          "midi": 36,
          "time": 225.72408149999902,
          "velocity": 0.7480314960629921,
          "duration": 0.20689649999999915
        },
        {
          "name": "C2",
          "midi": 36,
          "time": 225.93097799999902,
          "velocity": 0.7480314960629921,
          "duration": 0.20689649999999915
        },
        {
          "name": "C2",
          "midi": 36,
          "time": 226.13787449999901,
          "velocity": 0.7480314960629921,
          "duration": 0.20689649999999915
        },
        {
          "name": "C2",
          "midi": 36,
          "time": 226.344770999999,
          "velocity": 0.7480314960629921,
          "duration": 0.20689649999999915
        },
        {
          "name": "C2",
          "midi": 36,
          "time": 226.551667499999,
          "velocity": 0.7480314960629921,
          "duration": 0.20689649999999915
        },
        {
          "name": "E2",
          "midi": 40,
          "time": 226.758563999999,
          "velocity": 0.7480314960629921,
          "duration": 0.20689649999999915
        },
        {
          "name": "E2",
          "midi": 40,
          "time": 226.965460499999,
          "velocity": 0.7480314960629921,
          "duration": 0.20689649999999915
        },
        {
          "name": "E2",
          "midi": 40,
          "time": 227.172356999999,
          "velocity": 0.7480314960629921,
          "duration": 0.20689649999999915
        },
        {
          "name": "E2",
          "midi": 40,
          "time": 227.379253499999,
          "velocity": 0.7480314960629921,
          "duration": 0.20689649999999915
        },
        {
          "name": "E2",
          "midi": 40,
          "time": 227.586149999999,
          "velocity": 0.7480314960629921,
          "duration": 0.20689649999999915
        },
        {
          "name": "E2",
          "midi": 40,
          "time": 227.793046499999,
          "velocity": 0.7480314960629921,
          "duration": 0.20689649999999915
        },
        {
          "name": "E2",
          "midi": 40,
          "time": 227.999942999999,
          "velocity": 0.7480314960629921,
          "duration": 0.20689649999999915
        },
        {
          "name": "E2",
          "midi": 40,
          "time": 228.206839499999,
          "velocity": 0.7480314960629921,
          "duration": 0.20689649999999915
        },
        {
          "name": "D2",
          "midi": 38,
          "time": 228.413735999999,
          "velocity": 0.7480314960629921,
          "duration": 0.20689649999999915
        },
        {
          "name": "D2",
          "midi": 38,
          "time": 228.620632499999,
          "velocity": 0.7480314960629921,
          "duration": 0.20689649999999915
        },
        {
          "name": "D2",
          "midi": 38,
          "time": 228.827528999999,
          "velocity": 0.7480314960629921,
          "duration": 0.20689649999999915
        },
        {
          "name": "D2",
          "midi": 38,
          "time": 229.034425499999,
          "velocity": 0.7480314960629921,
          "duration": 0.20689649999999915
        },
        {
          "name": "D2",
          "midi": 38,
          "time": 229.241321999999,
          "velocity": 0.7480314960629921,
          "duration": 0.20689649999997073
        },
        {
          "name": "G2",
          "midi": 43,
          "time": 229.44821849999897,
          "velocity": 0.7480314960629921,
          "duration": 0.20689649999999915
        },
        {
          "name": "G2",
          "midi": 43,
          "time": 229.65511499999897,
          "velocity": 0.7480314960629921,
          "duration": 0.20689649999999915
        },
        {
          "name": "G2",
          "midi": 43,
          "time": 229.86201149999897,
          "velocity": 0.7480314960629921,
          "duration": 0.20689649999999915
        },
        {
          "name": "C2",
          "midi": 36,
          "time": 230.06890799999897,
          "velocity": 0.7480314960629921,
          "duration": 0.20689649999999915
        },
        {
          "name": "C2",
          "midi": 36,
          "time": 230.27580449999897,
          "velocity": 0.7480314960629921,
          "duration": 0.20689649999999915
        },
        {
          "name": "C2",
          "midi": 36,
          "time": 230.48270099999897,
          "velocity": 0.7480314960629921,
          "duration": 0.20689649999999915
        },
        {
          "name": "C2",
          "midi": 36,
          "time": 230.68959749999897,
          "velocity": 0.7480314960629921,
          "duration": 0.20689649999999915
        },
        {
          "name": "C2",
          "midi": 36,
          "time": 230.89649399999897,
          "velocity": 0.7480314960629921,
          "duration": 0.20689649999999915
        },
        {
          "name": "C2",
          "midi": 36,
          "time": 231.10339049999897,
          "velocity": 0.7480314960629921,
          "duration": 0.20689649999999915
        },
        {
          "name": "C2",
          "midi": 36,
          "time": 231.31028699999897,
          "velocity": 0.7480314960629921,
          "duration": 0.20689649999999915
        },
        {
          "name": "C2",
          "midi": 36,
          "time": 231.51718349999896,
          "velocity": 0.7480314960629921,
          "duration": 0.20689649999999915
        },
        {
          "name": "D2",
          "midi": 38,
          "time": 231.72407999999896,
          "velocity": 0.7480314960629921,
          "duration": 0.20689649999999915
        },
        {
          "name": "E2",
          "midi": 40,
          "time": 231.93097649999896,
          "velocity": 0.7480314960629921,
          "duration": 0.20689649999999915
        },
        {
          "name": "G2",
          "midi": 43,
          "time": 232.13787299999896,
          "velocity": 0.7480314960629921,
          "duration": 0.20689649999999915
        },
        {
          "name": "A2",
          "midi": 45,
          "time": 232.34476949999896,
          "velocity": 0.7480314960629921,
          "duration": 0.20689649999999915
        },
        {
          "name": "B2",
          "midi": 47,
          "time": 232.55166599999896,
          "velocity": 0.7480314960629921,
          "duration": 0.20689649999999915
        },
        {
          "name": "A2",
          "midi": 45,
          "time": 232.75856249999896,
          "velocity": 0.7480314960629921,
          "duration": 0.20689649999999915
        },
        {
          "name": "G2",
          "midi": 43,
          "time": 232.96545899999896,
          "velocity": 0.7480314960629921,
          "duration": 0.20689649999999915
        },
        {
          "name": "E2",
          "midi": 40,
          "time": 233.17235549999896,
          "velocity": 0.7480314960629921,
          "duration": 0.20689649999999915
        },
        {
          "name": "D2",
          "midi": 38,
          "time": 233.37925199999896,
          "velocity": 0.7480314960629921,
          "duration": 0.20689649999999915
        },
        {
          "name": "D2",
          "midi": 38,
          "time": 233.58614849999896,
          "velocity": 0.7480314960629921,
          "duration": 0.20689649999999915
        },
        {
          "name": "D2",
          "midi": 38,
          "time": 233.79304499999895,
          "velocity": 0.7480314960629921,
          "duration": 0.20689649999999915
        },
        {
          "name": "D2",
          "midi": 38,
          "time": 233.99994149999895,
          "velocity": 0.7480314960629921,
          "duration": 0.20689649999999915
        },
        {
          "name": "D2",
          "midi": 38,
          "time": 234.20683799999895,
          "velocity": 0.7480314960629921,
          "duration": 0.20689649999999915
        },
        {
          "name": "D2",
          "midi": 38,
          "time": 234.41373449999895,
          "velocity": 0.7480314960629921,
          "duration": 0.20689649999999915
        },
        {
          "name": "D2",
          "midi": 38,
          "time": 234.62063099999895,
          "velocity": 0.7480314960629921,
          "duration": 0.20689649999999915
        },
        {
          "name": "D2",
          "midi": 38,
          "time": 234.82752749999895,
          "velocity": 0.7480314960629921,
          "duration": 0.20689649999999915
        },
        {
          "name": "C2",
          "midi": 36,
          "time": 235.03442399999895,
          "velocity": 0.7480314960629921,
          "duration": 0.20689649999999915
        },
        {
          "name": "C2",
          "midi": 36,
          "time": 235.24132049999895,
          "velocity": 0.7480314960629921,
          "duration": 0.20689649999999915
        },
        {
          "name": "C2",
          "midi": 36,
          "time": 235.44821699999895,
          "velocity": 0.7480314960629921,
          "duration": 0.20689649999999915
        },
        {
          "name": "C2",
          "midi": 36,
          "time": 235.65511349999895,
          "velocity": 0.7480314960629921,
          "duration": 0.20689649999999915
        },
        {
          "name": "C2",
          "midi": 36,
          "time": 235.86200999999895,
          "velocity": 0.7480314960629921,
          "duration": 0.20689649999999915
        },
        {
          "name": "C2",
          "midi": 36,
          "time": 236.06890649999895,
          "velocity": 0.7480314960629921,
          "duration": 0.20689649999999915
        },
        {
          "name": "C2",
          "midi": 36,
          "time": 236.27580299999894,
          "velocity": 0.7480314960629921,
          "duration": 0.20689649999999915
        },
        {
          "name": "C2",
          "midi": 36,
          "time": 236.48269949999894,
          "velocity": 0.7480314960629921,
          "duration": 0.20689649999999915
        },
        {
          "name": "E2",
          "midi": 40,
          "time": 236.68959599999894,
          "velocity": 0.7480314960629921,
          "duration": 0.20689649999999915
        },
        {
          "name": "E2",
          "midi": 40,
          "time": 236.89649249999894,
          "velocity": 0.7480314960629921,
          "duration": 0.20689649999999915
        },
        {
          "name": "E2",
          "midi": 40,
          "time": 237.10338899999894,
          "velocity": 0.7480314960629921,
          "duration": 0.20689649999999915
        },
        {
          "name": "E2",
          "midi": 40,
          "time": 237.31028549999894,
          "velocity": 0.7480314960629921,
          "duration": 0.20689649999999915
        },
        {
          "name": "E2",
          "midi": 40,
          "time": 237.51718199999894,
          "velocity": 0.7480314960629921,
          "duration": 0.20689649999999915
        },
        {
          "name": "E2",
          "midi": 40,
          "time": 237.72407849999894,
          "velocity": 0.7480314960629921,
          "duration": 0.20689649999999915
        },
        {
          "name": "E2",
          "midi": 40,
          "time": 237.93097499999894,
          "velocity": 0.7480314960629921,
          "duration": 0.20689649999999915
        },
        {
          "name": "E2",
          "midi": 40,
          "time": 238.13787149999894,
          "velocity": 0.7480314960629921,
          "duration": 0.20689649999999915
        },
        {
          "name": "D2",
          "midi": 38,
          "time": 238.34476799999894,
          "velocity": 0.7480314960629921,
          "duration": 0.20689649999999915
        },
        {
          "name": "D2",
          "midi": 38,
          "time": 238.55166449999894,
          "velocity": 0.7480314960629921,
          "duration": 0.20689649999999915
        },
        {
          "name": "D2",
          "midi": 38,
          "time": 238.75856099999893,
          "velocity": 0.7480314960629921,
          "duration": 0.20689649999999915
        },
        {
          "name": "D2",
          "midi": 38,
          "time": 238.96545749999893,
          "velocity": 0.7480314960629921,
          "duration": 0.20689649999999915
        },
        {
          "name": "D2",
          "midi": 38,
          "time": 239.17235399999893,
          "velocity": 0.7480314960629921,
          "duration": 0.20689649999997073
        },
        {
          "name": "G2",
          "midi": 43,
          "time": 239.3792504999989,
          "velocity": 0.7480314960629921,
          "duration": 0.20689649999999915
        },
        {
          "name": "G2",
          "midi": 43,
          "time": 239.5861469999989,
          "velocity": 0.7480314960629921,
          "duration": 0.20689649999999915
        },
        {
          "name": "G2",
          "midi": 43,
          "time": 239.7930434999989,
          "velocity": 0.7480314960629921,
          "duration": 0.20689649999999915
        },
        {
          "name": "C2",
          "midi": 36,
          "time": 239.9999399999989,
          "velocity": 0.7480314960629921,
          "duration": 1.6551719999997658
        },
        {
          "name": "E2",
          "midi": 40,
          "time": 241.65511199999867,
          "velocity": 0.7480314960629921,
          "duration": 1.6551719999999932
        },
        {
          "name": "D2",
          "midi": 38,
          "time": 243.31028399999866,
          "velocity": 0.7480314960629921,
          "duration": 1.6551719999999932
        },
        {
          "name": "C2",
          "midi": 36,
          "time": 244.96545599999865,
          "velocity": 0.7480314960629921,
          "duration": 1.6551719999997658
        },
        {
          "name": "E2",
          "midi": 40,
          "time": 246.62062799999842,
          "velocity": 0.7480314960629921,
          "duration": 1.6551719999999932
        },
        {
          "name": "D2",
          "midi": 38,
          "time": 248.2757999999984,
          "velocity": 0.7480314960629921,
          "duration": 1.6551719999999932
        },
        {
          "name": "C2",
          "midi": 36,
          "time": 249.9309719999984,
          "velocity": 0.7480314960629921,
          "duration": 1.6551719999997658
        },
        {
          "name": "E2",
          "midi": 40,
          "time": 251.58614399999817,
          "velocity": 0.7480314960629921,
          "duration": 1.6551719999999932
        },
        {
          "name": "D2",
          "midi": 38,
          "time": 253.24131599999816,
          "velocity": 0.7480314960629921,
          "duration": 1.6551719999999932
        },
        {
          "name": "C2",
          "midi": 36,
          "time": 254.89648799999816,
          "velocity": 0.7480314960629921,
          "duration": 1.65517200000005
        },
        {
          "name": "E2",
          "midi": 40,
          "time": 256.5516599999982,
          "velocity": 0.7480314960629921,
          "duration": 1.6551719999999932
        },
        {
          "name": "D2",
          "midi": 38,
          "time": 258.2068319999982,
          "velocity": 0.7480314960629921,
          "duration": 1.6551719999999932
        },
        {
          "name": "C2",
          "midi": 36,
          "time": 259.8620039999982,
          "velocity": 0.7480314960629921,
          "duration": 3.3103439999999864
        }
      ],
      "controlChanges": {
        "7": [
          {
            "number": 7,
            "time": 0,
            "value": 0.8740157480314961
          },
          {
            "number": 7,
            "time": 0,
            "value": 0.8740157480314961
          }
        ],
        "10": [
          {
            "number": 10,
            "time": 0,
            "value": 0.49606299212598426
          },
          {
            "number": 10,
            "time": 0,
            "value": 0.49606299212598426
          }
        ],
        "11": [
          {
            "number": 11,
            "time": 0,
            "value": 1
          },
          {
            "number": 11,
            "time": 0,
            "value": 1
          }
        ],
        "91": [
          {
            "number": 91,
            "time": 0,
            "value": 0
          },
          {
            "number": 91,
            "time": 0,
            "value": 0
          }
        ],
        "92": [
          {
            "number": 92,
            "time": 0,
            "value": 0
          },
          {
            "number": 92,
            "time": 0,
            "value": 0
          }
        ],
        "93": [
          {
            "number": 93,
            "time": 0,
            "value": 0
          },
          {
            "number": 93,
            "time": 0,
            "value": 0
          }
        ],
        "95": [
          {
            "number": 95,
            "time": 0,
            "value": 0
          },
          {
            "number": 95,
            "time": 0,
            "value": 0
          }
        ]
      },
      "id": 3,
      "instrumentNumber": 33,
      "instrument": "electric bass (finger)",
      "instrumentFamily": "bass",
      "channelNumber": 7,
      "isPercussion": false
    },
    {
      "startTime": 11.999997,
      "duration": 246.62062800000035,
      "length": 1641,
      "notes": [
        {
          "name": "B1",
          "midi": 35,
          "time": 11.999997,
          "velocity": 0.7480314960629921,
          "duration": 0.4137930000000001
        },
        {
          "name": "B1",
          "midi": 35,
          "time": 12.41379,
          "velocity": 0.7480314960629921,
          "duration": 0.4137930000000001
        },
        {
          "name": "D2",
          "midi": 38,
          "time": 12.827583,
          "velocity": 0.7480314960629921,
          "duration": 0.4137930000000001
        },
        {
          "name": "E2",
          "midi": 40,
          "time": 12.827583,
          "velocity": 0.7480314960629921,
          "duration": 0.4137930000000001
        },
        {
          "name": "C#3",
          "midi": 49,
          "time": 13.241376,
          "velocity": 0.7480314960629921,
          "duration": 0.20689649999999915
        },
        {
          "name": "B1",
          "midi": 35,
          "time": 13.241376,
          "velocity": 0.7480314960629921,
          "duration": 0.20689649999999915
        },
        {
          "name": "B1",
          "midi": 35,
          "time": 13.4482725,
          "velocity": 0.7480314960629921,
          "duration": 0.20689649999999915
        },
        {
          "name": "F#2",
          "midi": 42,
          "time": 13.655168999999999,
          "velocity": 0.7480314960629921,
          "duration": 0.20689649999999915
        },
        {
          "name": "E2",
          "midi": 40,
          "time": 13.655168999999999,
          "velocity": 0.7480314960629921,
          "duration": 0.20689649999999915
        },
        {
          "name": "B1",
          "midi": 35,
          "time": 13.862065499999998,
          "velocity": 0.7480314960629921,
          "duration": 0.20689649999999915
        },
        {
          "name": "F#2",
          "midi": 42,
          "time": 14.068961999999997,
          "velocity": 0.7480314960629921,
          "duration": 0.20689649999999915
        },
        {
          "name": "B1",
          "midi": 35,
          "time": 14.068961999999997,
          "velocity": 0.7480314960629921,
          "duration": 0.20689649999999915
        },
        {
          "name": "B1",
          "midi": 35,
          "time": 14.275858499999996,
          "velocity": 0.7480314960629921,
          "duration": 0.20689649999999915
        },
        {
          "name": "F#2",
          "midi": 42,
          "time": 14.482754999999996,
          "velocity": 0.7480314960629921,
          "duration": 0.20689649999999915
        },
        {
          "name": "E2",
          "midi": 40,
          "time": 14.482754999999996,
          "velocity": 0.7480314960629921,
          "duration": 0.20689649999999915
        },
        {
          "name": "B1",
          "midi": 35,
          "time": 14.689651499999995,
          "velocity": 0.7480314960629921,
          "duration": 0.20689649999999915
        },
        {
          "name": "F#2",
          "midi": 42,
          "time": 14.896547999999994,
          "velocity": 0.7480314960629921,
          "duration": 0.20689649999999915
        },
        {
          "name": "B1",
          "midi": 35,
          "time": 14.896547999999994,
          "velocity": 0.7480314960629921,
          "duration": 0.20689649999999915
        },
        {
          "name": "B1",
          "midi": 35,
          "time": 15.103444499999993,
          "velocity": 0.7480314960629921,
          "duration": 0.20689649999999915
        },
        {
          "name": "F#2",
          "midi": 42,
          "time": 15.310340999999992,
          "velocity": 0.7480314960629921,
          "duration": 0.20689649999999915
        },
        {
          "name": "E2",
          "midi": 40,
          "time": 15.310340999999992,
          "velocity": 0.7480314960629921,
          "duration": 0.20689649999999915
        },
        {
          "name": "B1",
          "midi": 35,
          "time": 15.517237499999991,
          "velocity": 0.7480314960629921,
          "duration": 0.20689649999999915
        },
        {
          "name": "F#2",
          "midi": 42,
          "time": 15.72413399999999,
          "velocity": 0.7480314960629921,
          "duration": 0.10344824999999958
        },
        {
          "name": "E2",
          "midi": 40,
          "time": 15.72413399999999,
          "velocity": 0.7480314960629921,
          "duration": 0.10344824999999958
        },
        {
          "name": "E2",
          "midi": 40,
          "time": 15.82758224999999,
          "velocity": 0.7480314960629921,
          "duration": 0.10344824999999958
        },
        {
          "name": "B1",
          "midi": 35,
          "time": 15.93103049999999,
          "velocity": 0.7480314960629921,
          "duration": 0.20689650000000093
        },
        {
          "name": "F#2",
          "midi": 42,
          "time": 16.13792699999999,
          "velocity": 0.7480314960629921,
          "duration": 0.20689649999999915
        },
        {
          "name": "B1",
          "midi": 35,
          "time": 16.13792699999999,
          "velocity": 0.7480314960629921,
          "duration": 0.20689649999999915
        },
        {
          "name": "B1",
          "midi": 35,
          "time": 16.34482349999999,
          "velocity": 0.7480314960629921,
          "duration": 0.20689649999999915
        },
        {
          "name": "F#2",
          "midi": 42,
          "time": 16.55171999999999,
          "velocity": 0.7480314960629921,
          "duration": 0.20689649999999915
        },
        {
          "name": "E2",
          "midi": 40,
          "time": 16.55171999999999,
          "velocity": 0.7480314960629921,
          "duration": 0.20689649999999915
        },
        {
          "name": "B1",
          "midi": 35,
          "time": 16.758616499999988,
          "velocity": 0.7480314960629921,
          "duration": 0.20689649999999915
        },
        {
          "name": "F#2",
          "midi": 42,
          "time": 16.965512999999987,
          "velocity": 0.7480314960629921,
          "duration": 0.20689649999999915
        },
        {
          "name": "B1",
          "midi": 35,
          "time": 16.965512999999987,
          "velocity": 0.7480314960629921,
          "duration": 0.20689649999999915
        },
        {
          "name": "B1",
          "midi": 35,
          "time": 17.172409499999986,
          "velocity": 0.7480314960629921,
          "duration": 0.20689649999999915
        },
        {
          "name": "F#2",
          "midi": 42,
          "time": 17.379305999999985,
          "velocity": 0.7480314960629921,
          "duration": 0.20689649999999915
        },
        {
          "name": "E2",
          "midi": 40,
          "time": 17.379305999999985,
          "velocity": 0.7480314960629921,
          "duration": 0.20689649999999915
        },
        {
          "name": "B1",
          "midi": 35,
          "time": 17.586202499999985,
          "velocity": 0.7480314960629921,
          "duration": 0.20689649999999915
        },
        {
          "name": "F#2",
          "midi": 42,
          "time": 17.793098999999984,
          "velocity": 0.7480314960629921,
          "duration": 0.20689649999999915
        },
        {
          "name": "B1",
          "midi": 35,
          "time": 17.793098999999984,
          "velocity": 0.7480314960629921,
          "duration": 0.20689649999999915
        },
        {
          "name": "B1",
          "midi": 35,
          "time": 17.999995499999983,
          "velocity": 0.7480314960629921,
          "duration": 0.20689649999999915
        },
        {
          "name": "F#2",
          "midi": 42,
          "time": 18.206891999999982,
          "velocity": 0.7480314960629921,
          "duration": 0.20689649999999915
        },
        {
          "name": "E2",
          "midi": 40,
          "time": 18.206891999999982,
          "velocity": 0.7480314960629921,
          "duration": 0.20689649999999915
        },
        {
          "name": "B1",
          "midi": 35,
          "time": 18.41378849999998,
          "velocity": 0.7480314960629921,
          "duration": 0.20689649999999915
        },
        {
          "name": "F#2",
          "midi": 42,
          "time": 18.62068499999998,
          "velocity": 0.7480314960629921,
          "duration": 0.10344824999999958
        },
        {
          "name": "E2",
          "midi": 40,
          "time": 18.62068499999998,
          "velocity": 0.7480314960629921,
          "duration": 0.10344824999999958
        },
        {
          "name": "E2",
          "midi": 40,
          "time": 18.72413324999998,
          "velocity": 0.7480314960629921,
          "duration": 0.10344824999999958
        },
        {
          "name": "B1",
          "midi": 35,
          "time": 18.82758149999998,
          "velocity": 0.7480314960629921,
          "duration": 0.20689649999999915
        },
        {
          "name": "F#2",
          "midi": 42,
          "time": 19.03447799999998,
          "velocity": 0.7480314960629921,
          "duration": 0.20689649999999915
        },
        {
          "name": "B1",
          "midi": 35,
          "time": 19.03447799999998,
          "velocity": 0.7480314960629921,
          "duration": 0.20689649999999915
        },
        {
          "name": "B1",
          "midi": 35,
          "time": 19.241374499999978,
          "velocity": 0.7480314960629921,
          "duration": 0.20689649999999915
        },
        {
          "name": "F#2",
          "midi": 42,
          "time": 19.448270999999977,
          "velocity": 0.7480314960629921,
          "duration": 0.20689649999999915
        },
        {
          "name": "E2",
          "midi": 40,
          "time": 19.448270999999977,
          "velocity": 0.7480314960629921,
          "duration": 0.20689649999999915
        },
        {
          "name": "B1",
          "midi": 35,
          "time": 19.655167499999976,
          "velocity": 0.7480314960629921,
          "duration": 0.20689649999999915
        },
        {
          "name": "F#2",
          "midi": 42,
          "time": 19.862063999999975,
          "velocity": 0.7480314960629921,
          "duration": 0.20689649999999915
        },
        {
          "name": "B1",
          "midi": 35,
          "time": 19.862063999999975,
          "velocity": 0.7480314960629921,
          "duration": 0.20689649999999915
        },
        {
          "name": "B1",
          "midi": 35,
          "time": 20.068960499999974,
          "velocity": 0.7480314960629921,
          "duration": 0.20689649999999915
        },
        {
          "name": "F#2",
          "midi": 42,
          "time": 20.275856999999974,
          "velocity": 0.7480314960629921,
          "duration": 0.20689649999999915
        },
        {
          "name": "E2",
          "midi": 40,
          "time": 20.275856999999974,
          "velocity": 0.7480314960629921,
          "duration": 0.20689649999999915
        },
        {
          "name": "B1",
          "midi": 35,
          "time": 20.482753499999973,
          "velocity": 0.7480314960629921,
          "duration": 0.20689649999999915
        },
        {
          "name": "F#2",
          "midi": 42,
          "time": 20.689649999999972,
          "velocity": 0.7480314960629921,
          "duration": 0.20689649999999915
        },
        {
          "name": "B1",
          "midi": 35,
          "time": 20.689649999999972,
          "velocity": 0.7480314960629921,
          "duration": 0.20689649999999915
        },
        {
          "name": "B1",
          "midi": 35,
          "time": 20.89654649999997,
          "velocity": 0.7480314960629921,
          "duration": 0.20689649999999915
        },
        {
          "name": "F#2",
          "midi": 42,
          "time": 21.10344299999997,
          "velocity": 0.7480314960629921,
          "duration": 0.20689649999999915
        },
        {
          "name": "E2",
          "midi": 40,
          "time": 21.10344299999997,
          "velocity": 0.7480314960629921,
          "duration": 0.20689649999999915
        },
        {
          "name": "B1",
          "midi": 35,
          "time": 21.31033949999997,
          "velocity": 0.7480314960629921,
          "duration": 0.20689649999999915
        },
        {
          "name": "F#2",
          "midi": 42,
          "time": 21.51723599999997,
          "velocity": 0.7480314960629921,
          "duration": 0.10344824999999958
        },
        {
          "name": "E2",
          "midi": 40,
          "time": 21.51723599999997,
          "velocity": 0.7480314960629921,
          "duration": 0.10344824999999958
        },
        {
          "name": "E2",
          "midi": 40,
          "time": 21.620684249999968,
          "velocity": 0.7480314960629921,
          "duration": 0.10344824999999958
        },
        {
          "name": "B1",
          "midi": 35,
          "time": 21.724132499999968,
          "velocity": 0.7480314960629921,
          "duration": 0.20689649999999915
        },
        {
          "name": "F#2",
          "midi": 42,
          "time": 21.931028999999967,
          "velocity": 0.7480314960629921,
          "duration": 0.20689649999999915
        },
        {
          "name": "B1",
          "midi": 35,
          "time": 21.931028999999967,
          "velocity": 0.7480314960629921,
          "duration": 0.20689649999999915
        },
        {
          "name": "B1",
          "midi": 35,
          "time": 22.137925499999966,
          "velocity": 0.7480314960629921,
          "duration": 0.20689649999999915
        },
        {
          "name": "F#2",
          "midi": 42,
          "time": 22.344821999999965,
          "velocity": 0.7480314960629921,
          "duration": 0.20689649999999915
        },
        {
          "name": "E2",
          "midi": 40,
          "time": 22.344821999999965,
          "velocity": 0.7480314960629921,
          "duration": 0.20689649999999915
        },
        {
          "name": "B1",
          "midi": 35,
          "time": 22.551718499999964,
          "velocity": 0.7480314960629921,
          "duration": 0.20689649999999915
        },
        {
          "name": "F#2",
          "midi": 42,
          "time": 22.758614999999963,
          "velocity": 0.7480314960629921,
          "duration": 0.20689649999999915
        },
        {
          "name": "B1",
          "midi": 35,
          "time": 22.758614999999963,
          "velocity": 0.7480314960629921,
          "duration": 0.20689649999999915
        },
        {
          "name": "B1",
          "midi": 35,
          "time": 22.965511499999963,
          "velocity": 0.7480314960629921,
          "duration": 0.20689649999999915
        },
        {
          "name": "F#2",
          "midi": 42,
          "time": 23.17240799999996,
          "velocity": 0.7480314960629921,
          "duration": 0.20689649999999915
        },
        {
          "name": "E2",
          "midi": 40,
          "time": 23.17240799999996,
          "velocity": 0.7480314960629921,
          "duration": 0.20689649999999915
        },
        {
          "name": "B1",
          "midi": 35,
          "time": 23.37930449999996,
          "velocity": 0.7480314960629921,
          "duration": 0.20689649999999915
        },
        {
          "name": "F#2",
          "midi": 42,
          "time": 23.58620099999996,
          "velocity": 0.7480314960629921,
          "duration": 0.20689649999999915
        },
        {
          "name": "B1",
          "midi": 35,
          "time": 23.58620099999996,
          "velocity": 0.7480314960629921,
          "duration": 0.20689649999999915
        },
        {
          "name": "E2",
          "midi": 40,
          "time": 23.79309749999996,
          "velocity": 0.7480314960629921,
          "duration": 0.10344824999999958
        },
        {
          "name": "E2",
          "midi": 40,
          "time": 23.89654574999996,
          "velocity": 0.7480314960629921,
          "duration": 0.20689649999999915
        },
        {
          "name": "G2",
          "midi": 43,
          "time": 24.103442249999958,
          "velocity": 0.7480314960629921,
          "duration": 0.10344824999999958
        },
        {
          "name": "G2",
          "midi": 43,
          "time": 24.206890499999957,
          "velocity": 0.7480314960629921,
          "duration": 0.20689649999999915
        },
        {
          "name": "G2",
          "midi": 43,
          "time": 24.413786999999957,
          "velocity": 0.7480314960629921,
          "duration": 0.20689649999999915
        },
        {
          "name": "A3",
          "midi": 57,
          "time": 24.620683499999956,
          "velocity": 0.7480314960629921,
          "duration": 0.4137929999999983
        },
        {
          "name": "E2",
          "midi": 40,
          "time": 24.620683499999956,
          "velocity": 0.7480314960629921,
          "duration": 0.20689649999999915
        },
        {
          "name": "B1",
          "midi": 35,
          "time": 24.827579999999955,
          "velocity": 0.7480314960629921,
          "duration": 0.20689649999999915
        },
        {
          "name": "B1",
          "midi": 35,
          "time": 25.034476499999954,
          "velocity": 0.7480314960629921,
          "duration": 0.20689649999999915
        },
        {
          "name": "F#2",
          "midi": 42,
          "time": 25.241372999999953,
          "velocity": 0.7480314960629921,
          "duration": 0.20689649999999915
        },
        {
          "name": "E2",
          "midi": 40,
          "time": 25.241372999999953,
          "velocity": 0.7480314960629921,
          "duration": 0.20689649999999915
        },
        {
          "name": "B1",
          "midi": 35,
          "time": 25.448269499999952,
          "velocity": 0.7480314960629921,
          "duration": 0.20689649999999915
        },
        {
          "name": "F#2",
          "midi": 42,
          "time": 25.65516599999995,
          "velocity": 0.7480314960629921,
          "duration": 0.20689649999999915
        },
        {
          "name": "B1",
          "midi": 35,
          "time": 25.65516599999995,
          "velocity": 0.7480314960629921,
          "duration": 0.20689649999999915
        },
        {
          "name": "B1",
          "midi": 35,
          "time": 25.86206249999995,
          "velocity": 0.7480314960629921,
          "duration": 0.20689649999999915
        },
        {
          "name": "F#2",
          "midi": 42,
          "time": 26.06895899999995,
          "velocity": 0.7480314960629921,
          "duration": 0.20689649999999915
        },
        {
          "name": "E2",
          "midi": 40,
          "time": 26.06895899999995,
          "velocity": 0.7480314960629921,
          "duration": 0.20689649999999915
        },
        {
          "name": "B1",
          "midi": 35,
          "time": 26.27585549999995,
          "velocity": 0.7480314960629921,
          "duration": 0.20689649999999915
        },
        {
          "name": "F#2",
          "midi": 42,
          "time": 26.482751999999948,
          "velocity": 0.7480314960629921,
          "duration": 0.20689649999999915
        },
        {
          "name": "B1",
          "midi": 35,
          "time": 26.482751999999948,
          "velocity": 0.7480314960629921,
          "duration": 0.20689649999999915
        },
        {
          "name": "B1",
          "midi": 35,
          "time": 26.689648499999947,
          "velocity": 0.7480314960629921,
          "duration": 0.20689649999999915
        },
        {
          "name": "F#2",
          "midi": 42,
          "time": 26.896544999999946,
          "velocity": 0.7480314960629921,
          "duration": 0.20689649999999915
        },
        {
          "name": "E2",
          "midi": 40,
          "time": 26.896544999999946,
          "velocity": 0.7480314960629921,
          "duration": 0.20689649999999915
        },
        {
          "name": "B1",
          "midi": 35,
          "time": 27.103441499999946,
          "velocity": 0.7480314960629921,
          "duration": 0.20689649999999915
        },
        {
          "name": "F#2",
          "midi": 42,
          "time": 27.310337999999945,
          "velocity": 0.7480314960629921,
          "duration": 0.10344824999999958
        },
        {
          "name": "E2",
          "midi": 40,
          "time": 27.310337999999945,
          "velocity": 0.7480314960629921,
          "duration": 0.10344824999999958
        },
        {
          "name": "E2",
          "midi": 40,
          "time": 27.413786249999944,
          "velocity": 0.7480314960629921,
          "duration": 0.10344824999999958
        },
        {
          "name": "B1",
          "midi": 35,
          "time": 27.517234499999944,
          "velocity": 0.7480314960629921,
          "duration": 0.20689649999999915
        },
        {
          "name": "F#2",
          "midi": 42,
          "time": 27.724130999999943,
          "velocity": 0.7480314960629921,
          "duration": 0.20689649999999915
        },
        {
          "name": "B1",
          "midi": 35,
          "time": 27.724130999999943,
          "velocity": 0.7480314960629921,
          "duration": 0.20689649999999915
        },
        {
          "name": "B1",
          "midi": 35,
          "time": 27.931027499999942,
          "velocity": 0.7480314960629921,
          "duration": 0.20689649999999915
        },
        {
          "name": "F#2",
          "midi": 42,
          "time": 28.13792399999994,
          "velocity": 0.7480314960629921,
          "duration": 0.20689649999999915
        },
        {
          "name": "E2",
          "midi": 40,
          "time": 28.13792399999994,
          "velocity": 0.7480314960629921,
          "duration": 0.20689649999999915
        },
        {
          "name": "B1",
          "midi": 35,
          "time": 28.34482049999994,
          "velocity": 0.7480314960629921,
          "duration": 0.20689649999999915
        },
        {
          "name": "F#2",
          "midi": 42,
          "time": 28.55171699999994,
          "velocity": 0.7480314960629921,
          "duration": 0.20689649999999915
        },
        {
          "name": "B1",
          "midi": 35,
          "time": 28.55171699999994,
          "velocity": 0.7480314960629921,
          "duration": 0.20689649999999915
        },
        {
          "name": "B1",
          "midi": 35,
          "time": 28.75861349999994,
          "velocity": 0.7480314960629921,
          "duration": 0.20689649999999915
        },
        {
          "name": "F#2",
          "midi": 42,
          "time": 28.965509999999938,
          "velocity": 0.7480314960629921,
          "duration": 0.20689649999999915
        },
        {
          "name": "E2",
          "midi": 40,
          "time": 28.965509999999938,
          "velocity": 0.7480314960629921,
          "duration": 0.20689649999999915
        },
        {
          "name": "B1",
          "midi": 35,
          "time": 29.172406499999937,
          "velocity": 0.7480314960629921,
          "duration": 0.20689649999999915
        },
        {
          "name": "F#2",
          "midi": 42,
          "time": 29.379302999999936,
          "velocity": 0.7480314960629921,
          "duration": 0.20689649999999915
        },
        {
          "name": "B1",
          "midi": 35,
          "time": 29.379302999999936,
          "velocity": 0.7480314960629921,
          "duration": 0.20689649999999915
        },
        {
          "name": "B1",
          "midi": 35,
          "time": 29.586199499999935,
          "velocity": 0.7480314960629921,
          "duration": 0.20689649999999915
        },
        {
          "name": "F#2",
          "midi": 42,
          "time": 29.793095999999935,
          "velocity": 0.7480314960629921,
          "duration": 0.20689649999999915
        },
        {
          "name": "E2",
          "midi": 40,
          "time": 29.793095999999935,
          "velocity": 0.7480314960629921,
          "duration": 0.20689649999999915
        },
        {
          "name": "B1",
          "midi": 35,
          "time": 29.999992499999934,
          "velocity": 0.7480314960629921,
          "duration": 0.20689649999999915
        },
        {
          "name": "F#2",
          "midi": 42,
          "time": 30.206888999999933,
          "velocity": 0.7480314960629921,
          "duration": 0.10344824999999958
        },
        {
          "name": "E2",
          "midi": 40,
          "time": 30.206888999999933,
          "velocity": 0.7480314960629921,
          "duration": 0.10344824999999958
        },
        {
          "name": "E2",
          "midi": 40,
          "time": 30.310337249999932,
          "velocity": 0.7480314960629921,
          "duration": 0.10344824999999958
        },
        {
          "name": "B1",
          "midi": 35,
          "time": 30.413785499999932,
          "velocity": 0.7480314960629921,
          "duration": 0.20689649999999915
        },
        {
          "name": "C#3",
          "midi": 49,
          "time": 30.62068199999993,
          "velocity": 0.7480314960629921,
          "duration": 0.20689649999999915
        },
        {
          "name": "B1",
          "midi": 35,
          "time": 30.62068199999993,
          "velocity": 0.7480314960629921,
          "duration": 0.20689649999999915
        },
        {
          "name": "B1",
          "midi": 35,
          "time": 30.82757849999993,
          "velocity": 0.7480314960629921,
          "duration": 0.20689649999999915
        },
        {
          "name": "F#2",
          "midi": 42,
          "time": 31.03447499999993,
          "velocity": 0.7480314960629921,
          "duration": 0.20689649999999915
        },
        {
          "name": "E2",
          "midi": 40,
          "time": 31.03447499999993,
          "velocity": 0.7480314960629921,
          "duration": 0.20689649999999915
        },
        {
          "name": "B1",
          "midi": 35,
          "time": 31.24137149999993,
          "velocity": 0.7480314960629921,
          "duration": 0.20689649999999915
        },
        {
          "name": "F#2",
          "midi": 42,
          "time": 31.448267999999928,
          "velocity": 0.7480314960629921,
          "duration": 0.20689649999999915
        },
        {
          "name": "B1",
          "midi": 35,
          "time": 31.448267999999928,
          "velocity": 0.7480314960629921,
          "duration": 0.20689649999999915
        },
        {
          "name": "B1",
          "midi": 35,
          "time": 31.655164499999927,
          "velocity": 0.7480314960629921,
          "duration": 0.20689649999999915
        },
        {
          "name": "F#2",
          "midi": 42,
          "time": 31.862060999999926,
          "velocity": 0.7480314960629921,
          "duration": 0.20689649999999915
        },
        {
          "name": "E2",
          "midi": 40,
          "time": 31.862060999999926,
          "velocity": 0.7480314960629921,
          "duration": 0.20689649999999915
        },
        {
          "name": "B1",
          "midi": 35,
          "time": 32.068957499999925,
          "velocity": 0.7480314960629921,
          "duration": 0.20689649999999915
        },
        {
          "name": "F#2",
          "midi": 42,
          "time": 32.275853999999924,
          "velocity": 0.7480314960629921,
          "duration": 0.20689649999999915
        },
        {
          "name": "B1",
          "midi": 35,
          "time": 32.275853999999924,
          "velocity": 0.7480314960629921,
          "duration": 0.20689649999999915
        },
        {
          "name": "B1",
          "midi": 35,
          "time": 32.48275049999992,
          "velocity": 0.7480314960629921,
          "duration": 0.20689649999999915
        },
        {
          "name": "F#2",
          "midi": 42,
          "time": 32.68964699999992,
          "velocity": 0.7480314960629921,
          "duration": 0.20689649999999915
        },
        {
          "name": "E2",
          "midi": 40,
          "time": 32.68964699999992,
          "velocity": 0.7480314960629921,
          "duration": 0.20689649999999915
        },
        {
          "name": "B1",
          "midi": 35,
          "time": 32.89654349999992,
          "velocity": 0.7480314960629921,
          "duration": 0.20689649999999915
        },
        {
          "name": "F#2",
          "midi": 42,
          "time": 33.10343999999992,
          "velocity": 0.7480314960629921,
          "duration": 0.10344824999999958
        },
        {
          "name": "E2",
          "midi": 40,
          "time": 33.10343999999992,
          "velocity": 0.7480314960629921,
          "duration": 0.10344824999999958
        },
        {
          "name": "E2",
          "midi": 40,
          "time": 33.20688824999992,
          "velocity": 0.7480314960629921,
          "duration": 0.10344824999999958
        },
        {
          "name": "B1",
          "midi": 35,
          "time": 33.31033649999992,
          "velocity": 0.7480314960629921,
          "duration": 0.20689649999999915
        },
        {
          "name": "F#2",
          "midi": 42,
          "time": 33.51723299999992,
          "velocity": 0.7480314960629921,
          "duration": 0.20689649999999915
        },
        {
          "name": "B1",
          "midi": 35,
          "time": 33.51723299999992,
          "velocity": 0.7480314960629921,
          "duration": 0.20689649999999915
        },
        {
          "name": "B1",
          "midi": 35,
          "time": 33.72412949999992,
          "velocity": 0.7480314960629921,
          "duration": 0.20689649999999915
        },
        {
          "name": "F#2",
          "midi": 42,
          "time": 33.93102599999992,
          "velocity": 0.7480314960629921,
          "duration": 0.20689649999999915
        },
        {
          "name": "E2",
          "midi": 40,
          "time": 33.93102599999992,
          "velocity": 0.7480314960629921,
          "duration": 0.20689649999999915
        },
        {
          "name": "B1",
          "midi": 35,
          "time": 34.13792249999992,
          "velocity": 0.7480314960629921,
          "duration": 0.20689649999999915
        },
        {
          "name": "F#2",
          "midi": 42,
          "time": 34.344818999999916,
          "velocity": 0.7480314960629921,
          "duration": 0.20689649999999915
        },
        {
          "name": "B1",
          "midi": 35,
          "time": 34.344818999999916,
          "velocity": 0.7480314960629921,
          "duration": 0.20689649999999915
        },
        {
          "name": "B1",
          "midi": 35,
          "time": 34.551715499999915,
          "velocity": 0.7480314960629921,
          "duration": 0.20689649999999915
        },
        {
          "name": "F#2",
          "midi": 42,
          "time": 34.758611999999914,
          "velocity": 0.7480314960629921,
          "duration": 0.20689649999999915
        },
        {
          "name": "E2",
          "midi": 40,
          "time": 34.758611999999914,
          "velocity": 0.7480314960629921,
          "duration": 0.20689649999999915
        },
        {
          "name": "B1",
          "midi": 35,
          "time": 34.96550849999991,
          "velocity": 0.7480314960629921,
          "duration": 0.20689649999999915
        },
        {
          "name": "F#2",
          "midi": 42,
          "time": 35.17240499999991,
          "velocity": 0.7480314960629921,
          "duration": 0.20689649999999915
        },
        {
          "name": "B1",
          "midi": 35,
          "time": 35.17240499999991,
          "velocity": 0.7480314960629921,
          "duration": 0.20689649999999915
        },
        {
          "name": "B1",
          "midi": 35,
          "time": 35.37930149999991,
          "velocity": 0.7480314960629921,
          "duration": 0.20689649999999915
        },
        {
          "name": "F#2",
          "midi": 42,
          "time": 35.58619799999991,
          "velocity": 0.7480314960629921,
          "duration": 0.20689649999999915
        },
        {
          "name": "E2",
          "midi": 40,
          "time": 35.58619799999991,
          "velocity": 0.7480314960629921,
          "duration": 0.20689649999999915
        },
        {
          "name": "B1",
          "midi": 35,
          "time": 35.79309449999991,
          "velocity": 0.7480314960629921,
          "duration": 0.20689649999999915
        },
        {
          "name": "F#2",
          "midi": 42,
          "time": 35.99999099999991,
          "velocity": 0.7480314960629921,
          "duration": 0.10344824999999958
        },
        {
          "name": "E2",
          "midi": 40,
          "time": 35.99999099999991,
          "velocity": 0.7480314960629921,
          "duration": 0.10344824999999958
        },
        {
          "name": "E2",
          "midi": 40,
          "time": 36.10343924999991,
          "velocity": 0.7480314960629921,
          "duration": 0.10344824999999958
        },
        {
          "name": "B1",
          "midi": 35,
          "time": 36.20688749999991,
          "velocity": 0.7480314960629921,
          "duration": 0.20689649999999915
        },
        {
          "name": "F#2",
          "midi": 42,
          "time": 36.41378399999991,
          "velocity": 0.7480314960629921,
          "duration": 0.20689649999999915
        },
        {
          "name": "B1",
          "midi": 35,
          "time": 36.41378399999991,
          "velocity": 0.7480314960629921,
          "duration": 0.20689649999999915
        },
        {
          "name": "B1",
          "midi": 35,
          "time": 36.62068049999991,
          "velocity": 0.7480314960629921,
          "duration": 0.20689649999999915
        },
        {
          "name": "F#2",
          "midi": 42,
          "time": 36.827576999999906,
          "velocity": 0.7480314960629921,
          "duration": 0.20689649999999915
        },
        {
          "name": "E2",
          "midi": 40,
          "time": 36.827576999999906,
          "velocity": 0.7480314960629921,
          "duration": 0.20689649999999915
        },
        {
          "name": "B1",
          "midi": 35,
          "time": 37.034473499999905,
          "velocity": 0.7480314960629921,
          "duration": 0.20689649999999915
        },
        {
          "name": "F#2",
          "midi": 42,
          "time": 37.241369999999904,
          "velocity": 0.7480314960629921,
          "duration": 0.20689649999999915
        },
        {
          "name": "B1",
          "midi": 35,
          "time": 37.241369999999904,
          "velocity": 0.7480314960629921,
          "duration": 0.20689649999999915
        },
        {
          "name": "B1",
          "midi": 35,
          "time": 37.4482664999999,
          "velocity": 0.7480314960629921,
          "duration": 0.20689649999999915
        },
        {
          "name": "F#2",
          "midi": 42,
          "time": 37.6551629999999,
          "velocity": 0.7480314960629921,
          "duration": 0.20689649999999915
        },
        {
          "name": "E2",
          "midi": 40,
          "time": 37.6551629999999,
          "velocity": 0.7480314960629921,
          "duration": 0.20689649999999915
        },
        {
          "name": "B1",
          "midi": 35,
          "time": 37.8620594999999,
          "velocity": 0.7480314960629921,
          "duration": 0.20689649999999915
        },
        {
          "name": "A#2",
          "midi": 46,
          "time": 38.0689559999999,
          "velocity": 0.7480314960629921,
          "duration": 0.20689649999999915
        },
        {
          "name": "B1",
          "midi": 35,
          "time": 38.0689559999999,
          "velocity": 0.7480314960629921,
          "duration": 0.20689649999999915
        },
        {
          "name": "B1",
          "midi": 35,
          "time": 38.2758524999999,
          "velocity": 0.7480314960629921,
          "duration": 0.20689649999999915
        },
        {
          "name": "A#2",
          "midi": 46,
          "time": 38.4827489999999,
          "velocity": 0.7480314960629921,
          "duration": 0.20689649999999915
        },
        {
          "name": "E2",
          "midi": 40,
          "time": 38.4827489999999,
          "velocity": 0.7480314960629921,
          "duration": 0.20689649999999915
        },
        {
          "name": "B1",
          "midi": 35,
          "time": 38.6896454999999,
          "velocity": 0.7480314960629921,
          "duration": 0.20689649999999915
        },
        {
          "name": "A#2",
          "midi": 46,
          "time": 38.8965419999999,
          "velocity": 0.7480314960629921,
          "duration": 0.20689649999999915
        },
        {
          "name": "B1",
          "midi": 35,
          "time": 38.8965419999999,
          "velocity": 0.7480314960629921,
          "duration": 0.20689649999999915
        },
        {
          "name": "B1",
          "midi": 35,
          "time": 39.103438499999896,
          "velocity": 0.7480314960629921,
          "duration": 0.20689649999999915
        },
        {
          "name": "A#2",
          "midi": 46,
          "time": 39.310334999999895,
          "velocity": 0.7480314960629921,
          "duration": 0.4137929999999983
        },
        {
          "name": "E2",
          "midi": 40,
          "time": 39.310334999999895,
          "velocity": 0.7480314960629921,
          "duration": 0.4137929999999983
        },
        {
          "name": "C#3",
          "midi": 49,
          "time": 39.724127999999894,
          "velocity": 0.7480314960629921,
          "duration": 0.20689649999999915
        },
        {
          "name": "B1",
          "midi": 35,
          "time": 39.724127999999894,
          "velocity": 0.7480314960629921,
          "duration": 0.20689649999999915
        },
        {
          "name": "B1",
          "midi": 35,
          "time": 39.93102449999989,
          "velocity": 0.7480314960629921,
          "duration": 0.20689649999999915
        },
        {
          "name": "A#2",
          "midi": 46,
          "time": 40.13792099999989,
          "velocity": 0.7480314960629921,
          "duration": 0.20689649999999915
        },
        {
          "name": "E2",
          "midi": 40,
          "time": 40.13792099999989,
          "velocity": 0.7480314960629921,
          "duration": 0.20689649999999915
        },
        {
          "name": "B1",
          "midi": 35,
          "time": 40.34481749999989,
          "velocity": 0.7480314960629921,
          "duration": 0.20689649999999915
        },
        {
          "name": "A#2",
          "midi": 46,
          "time": 40.55171399999989,
          "velocity": 0.7480314960629921,
          "duration": 0.4137929999999983
        },
        {
          "name": "B1",
          "midi": 35,
          "time": 40.55171399999989,
          "velocity": 0.7480314960629921,
          "duration": 0.4137929999999983
        },
        {
          "name": "A#2",
          "midi": 46,
          "time": 40.96550699999989,
          "velocity": 0.7480314960629921,
          "duration": 0.20689649999999915
        },
        {
          "name": "E2",
          "midi": 40,
          "time": 40.96550699999989,
          "velocity": 0.7480314960629921,
          "duration": 0.20689649999999915
        },
        {
          "name": "B1",
          "midi": 35,
          "time": 41.17240349999989,
          "velocity": 0.7480314960629921,
          "duration": 0.4137929999999983
        },
        {
          "name": "A#2",
          "midi": 46,
          "time": 41.37929999999989,
          "velocity": 0.7480314960629921,
          "duration": 0.20689649999999915
        },
        {
          "name": "B1",
          "midi": 35,
          "time": 41.586196499999886,
          "velocity": 0.7480314960629921,
          "duration": 0.20689649999999915
        },
        {
          "name": "A#2",
          "midi": 46,
          "time": 41.793092999999885,
          "velocity": 0.7480314960629921,
          "duration": 0.4137929999999983
        },
        {
          "name": "E2",
          "midi": 40,
          "time": 41.793092999999885,
          "velocity": 0.7480314960629921,
          "duration": 0.4137929999999983
        },
        {
          "name": "A#2",
          "midi": 46,
          "time": 42.20688599999988,
          "velocity": 0.7480314960629921,
          "duration": 0.20689649999999915
        },
        {
          "name": "B1",
          "midi": 35,
          "time": 42.20688599999988,
          "velocity": 0.7480314960629921,
          "duration": 0.20689649999999915
        },
        {
          "name": "A2",
          "midi": 45,
          "time": 42.41378249999988,
          "velocity": 0.7480314960629921,
          "duration": 0.07758618750000323
        },
        {
          "name": "G2",
          "midi": 43,
          "time": 42.491368687499886,
          "velocity": 0.7480314960629921,
          "duration": 0.07758618750000323
        },
        {
          "name": "F2",
          "midi": 41,
          "time": 42.56895487499989,
          "velocity": 0.7480314960629921,
          "duration": 0.4655171249999981
        },
        {
          "name": "C#3",
          "midi": 49,
          "time": 43.03447199999989,
          "velocity": 0.7480314960629921,
          "duration": 0.20689649999999915
        },
        {
          "name": "B1",
          "midi": 35,
          "time": 43.03447199999989,
          "velocity": 0.7480314960629921,
          "duration": 0.20689649999999915
        },
        {
          "name": "B1",
          "midi": 35,
          "time": 43.241368499999886,
          "velocity": 0.7480314960629921,
          "duration": 0.20689649999999915
        },
        {
          "name": "A#2",
          "midi": 46,
          "time": 43.448264999999886,
          "velocity": 0.7480314960629921,
          "duration": 0.20689649999999915
        },
        {
          "name": "E2",
          "midi": 40,
          "time": 43.448264999999886,
          "velocity": 0.7480314960629921,
          "duration": 0.20689649999999915
        },
        {
          "name": "B1",
          "midi": 35,
          "time": 43.655161499999885,
          "velocity": 0.7480314960629921,
          "duration": 0.20689649999999915
        },
        {
          "name": "A#2",
          "midi": 46,
          "time": 43.862057999999884,
          "velocity": 0.7480314960629921,
          "duration": 0.4137929999999983
        },
        {
          "name": "B1",
          "midi": 35,
          "time": 43.862057999999884,
          "velocity": 0.7480314960629921,
          "duration": 0.4137929999999983
        },
        {
          "name": "A#2",
          "midi": 46,
          "time": 44.27585099999988,
          "velocity": 0.7480314960629921,
          "duration": 0.20689649999999915
        },
        {
          "name": "E2",
          "midi": 40,
          "time": 44.27585099999988,
          "velocity": 0.7480314960629921,
          "duration": 0.20689649999999915
        },
        {
          "name": "B1",
          "midi": 35,
          "time": 44.48274749999988,
          "velocity": 0.7480314960629921,
          "duration": 0.4137929999999983
        },
        {
          "name": "A#2",
          "midi": 46,
          "time": 44.68964399999988,
          "velocity": 0.7480314960629921,
          "duration": 0.20689649999999915
        },
        {
          "name": "B1",
          "midi": 35,
          "time": 44.89654049999988,
          "velocity": 0.7480314960629921,
          "duration": 0.20689649999999915
        },
        {
          "name": "A#2",
          "midi": 46,
          "time": 45.10343699999988,
          "velocity": 0.7480314960629921,
          "duration": 0.4137929999999983
        },
        {
          "name": "E2",
          "midi": 40,
          "time": 45.10343699999988,
          "velocity": 0.7480314960629921,
          "duration": 0.4137929999999983
        },
        {
          "name": "A#2",
          "midi": 46,
          "time": 45.51722999999988,
          "velocity": 0.7480314960629921,
          "duration": 0.4137929999999983
        },
        {
          "name": "B1",
          "midi": 35,
          "time": 45.51722999999988,
          "velocity": 0.7480314960629921,
          "duration": 0.4137929999999983
        },
        {
          "name": "A#2",
          "midi": 46,
          "time": 45.931022999999875,
          "velocity": 0.7480314960629921,
          "duration": 0.4137929999999983
        },
        {
          "name": "E2",
          "midi": 40,
          "time": 45.931022999999875,
          "velocity": 0.7480314960629921,
          "duration": 0.4137929999999983
        },
        {
          "name": "C#3",
          "midi": 49,
          "time": 46.344815999999874,
          "velocity": 0.7480314960629921,
          "duration": 0.20689649999999915
        },
        {
          "name": "B1",
          "midi": 35,
          "time": 46.344815999999874,
          "velocity": 0.7480314960629921,
          "duration": 0.20689649999999915
        },
        {
          "name": "B1",
          "midi": 35,
          "time": 46.55171249999987,
          "velocity": 0.7480314960629921,
          "duration": 0.20689649999999915
        },
        {
          "name": "A#2",
          "midi": 46,
          "time": 46.75860899999987,
          "velocity": 0.7480314960629921,
          "duration": 0.20689649999999915
        },
        {
          "name": "E2",
          "midi": 40,
          "time": 46.75860899999987,
          "velocity": 0.7480314960629921,
          "duration": 0.20689649999999915
        },
        {
          "name": "B1",
          "midi": 35,
          "time": 46.96550549999987,
          "velocity": 0.7480314960629921,
          "duration": 0.20689649999999915
        },
        {
          "name": "A#2",
          "midi": 46,
          "time": 47.17240199999987,
          "velocity": 0.7480314960629921,
          "duration": 0.20689649999999915
        },
        {
          "name": "B1",
          "midi": 35,
          "time": 47.17240199999987,
          "velocity": 0.7480314960629921,
          "duration": 0.20689649999999915
        },
        {
          "name": "B1",
          "midi": 35,
          "time": 47.37929849999987,
          "velocity": 0.7480314960629921,
          "duration": 0.20689649999999915
        },
        {
          "name": "A#2",
          "midi": 46,
          "time": 47.58619499999987,
          "velocity": 0.7480314960629921,
          "duration": 0.20689649999999915
        },
        {
          "name": "E2",
          "midi": 40,
          "time": 47.58619499999987,
          "velocity": 0.7480314960629921,
          "duration": 0.20689649999999915
        },
        {
          "name": "B1",
          "midi": 35,
          "time": 47.79309149999987,
          "velocity": 0.7480314960629921,
          "duration": 0.20689649999999915
        },
        {
          "name": "A#2",
          "midi": 46,
          "time": 47.99998799999987,
          "velocity": 0.7480314960629921,
          "duration": 0.20689649999999915
        },
        {
          "name": "B1",
          "midi": 35,
          "time": 47.99998799999987,
          "velocity": 0.7480314960629921,
          "duration": 0.20689649999999915
        },
        {
          "name": "B1",
          "midi": 35,
          "time": 48.206884499999866,
          "velocity": 0.7480314960629921,
          "duration": 0.20689649999999915
        },
        {
          "name": "A#2",
          "midi": 46,
          "time": 48.413780999999865,
          "velocity": 0.7480314960629921,
          "duration": 0.20689649999999915
        },
        {
          "name": "E2",
          "midi": 40,
          "time": 48.413780999999865,
          "velocity": 0.7480314960629921,
          "duration": 0.20689649999999915
        },
        {
          "name": "B1",
          "midi": 35,
          "time": 48.620677499999864,
          "velocity": 0.7480314960629921,
          "duration": 0.20689649999999915
        },
        {
          "name": "A#2",
          "midi": 46,
          "time": 48.82757399999986,
          "velocity": 0.7480314960629921,
          "duration": 0.20689649999999915
        },
        {
          "name": "B1",
          "midi": 35,
          "time": 48.82757399999986,
          "velocity": 0.7480314960629921,
          "duration": 0.20689649999999915
        },
        {
          "name": "B1",
          "midi": 35,
          "time": 49.03447049999986,
          "velocity": 0.7480314960629921,
          "duration": 0.20689649999999915
        },
        {
          "name": "A#2",
          "midi": 46,
          "time": 49.24136699999986,
          "velocity": 0.7480314960629921,
          "duration": 0.20689649999999915
        },
        {
          "name": "E2",
          "midi": 40,
          "time": 49.24136699999986,
          "velocity": 0.7480314960629921,
          "duration": 0.20689649999999915
        },
        {
          "name": "B1",
          "midi": 35,
          "time": 49.44826349999986,
          "velocity": 0.7480314960629921,
          "duration": 0.20689649999999915
        },
        {
          "name": "C#3",
          "midi": 49,
          "time": 49.65515999999986,
          "velocity": 0.7480314960629921,
          "duration": 0.20689649999999915
        },
        {
          "name": "B1",
          "midi": 35,
          "time": 49.65515999999986,
          "velocity": 0.7480314960629921,
          "duration": 0.20689649999999915
        },
        {
          "name": "B1",
          "midi": 35,
          "time": 49.86205649999986,
          "velocity": 0.7480314960629921,
          "duration": 0.20689649999999915
        },
        {
          "name": "A#2",
          "midi": 46,
          "time": 50.06895299999986,
          "velocity": 0.7480314960629921,
          "duration": 0.20689649999999915
        },
        {
          "name": "E2",
          "midi": 40,
          "time": 50.06895299999986,
          "velocity": 0.7480314960629921,
          "duration": 0.20689649999999915
        },
        {
          "name": "B1",
          "midi": 35,
          "time": 50.27584949999986,
          "velocity": 0.7480314960629921,
          "duration": 0.20689649999999915
        },
        {
          "name": "A#2",
          "midi": 46,
          "time": 50.48274599999986,
          "velocity": 0.7480314960629921,
          "duration": 0.20689649999999915
        },
        {
          "name": "B1",
          "midi": 35,
          "time": 50.48274599999986,
          "velocity": 0.7480314960629921,
          "duration": 0.20689649999999915
        },
        {
          "name": "B1",
          "midi": 35,
          "time": 50.689642499999856,
          "velocity": 0.7480314960629921,
          "duration": 0.20689649999999915
        },
        {
          "name": "A#2",
          "midi": 46,
          "time": 50.896538999999855,
          "velocity": 0.7480314960629921,
          "duration": 0.20689649999999915
        },
        {
          "name": "E2",
          "midi": 40,
          "time": 50.896538999999855,
          "velocity": 0.7480314960629921,
          "duration": 0.20689649999999915
        },
        {
          "name": "B1",
          "midi": 35,
          "time": 51.103435499999854,
          "velocity": 0.7480314960629921,
          "duration": 0.20689649999999915
        },
        {
          "name": "A#2",
          "midi": 46,
          "time": 51.31033199999985,
          "velocity": 0.7480314960629921,
          "duration": 0.20689649999999915
        },
        {
          "name": "B1",
          "midi": 35,
          "time": 51.31033199999985,
          "velocity": 0.7480314960629921,
          "duration": 0.20689649999999915
        },
        {
          "name": "B1",
          "midi": 35,
          "time": 51.51722849999985,
          "velocity": 0.7480314960629921,
          "duration": 0.20689649999999915
        },
        {
          "name": "A#2",
          "midi": 46,
          "time": 51.72412499999985,
          "velocity": 0.7480314960629921,
          "duration": 0.20689649999999915
        },
        {
          "name": "E2",
          "midi": 40,
          "time": 51.72412499999985,
          "velocity": 0.7480314960629921,
          "duration": 0.20689649999999915
        },
        {
          "name": "B1",
          "midi": 35,
          "time": 51.93102149999985,
          "velocity": 0.7480314960629921,
          "duration": 0.20689649999999915
        },
        {
          "name": "A#2",
          "midi": 46,
          "time": 52.13791799999985,
          "velocity": 0.7480314960629921,
          "duration": 0.20689649999999915
        },
        {
          "name": "B1",
          "midi": 35,
          "time": 52.13791799999985,
          "velocity": 0.7480314960629921,
          "duration": 0.20689649999999915
        },
        {
          "name": "B1",
          "midi": 35,
          "time": 52.34481449999985,
          "velocity": 0.7480314960629921,
          "duration": 0.20689649999999915
        },
        {
          "name": "A#2",
          "midi": 46,
          "time": 52.55171099999985,
          "velocity": 0.7480314960629921,
          "duration": 0.20689649999999915
        },
        {
          "name": "E2",
          "midi": 40,
          "time": 52.55171099999985,
          "velocity": 0.7480314960629921,
          "duration": 0.20689649999999915
        },
        {
          "name": "B1",
          "midi": 35,
          "time": 52.75860749999985,
          "velocity": 0.7480314960629921,
          "duration": 0.20689649999999915
        },
        {
          "name": "C#3",
          "midi": 49,
          "time": 52.96550399999985,
          "velocity": 0.7480314960629921,
          "duration": 0.20689649999999915
        },
        {
          "name": "B1",
          "midi": 35,
          "time": 52.96550399999985,
          "velocity": 0.7480314960629921,
          "duration": 0.20689649999999915
        },
        {
          "name": "B1",
          "midi": 35,
          "time": 53.172400499999846,
          "velocity": 0.7480314960629921,
          "duration": 0.20689649999999915
        },
        {
          "name": "A#2",
          "midi": 46,
          "time": 53.379296999999845,
          "velocity": 0.7480314960629921,
          "duration": 0.20689649999999915
        },
        {
          "name": "E2",
          "midi": 40,
          "time": 53.379296999999845,
          "velocity": 0.7480314960629921,
          "duration": 0.20689649999999915
        },
        {
          "name": "B1",
          "midi": 35,
          "time": 53.586193499999844,
          "velocity": 0.7480314960629921,
          "duration": 0.20689649999999915
        },
        {
          "name": "A#2",
          "midi": 46,
          "time": 53.79308999999984,
          "velocity": 0.7480314960629921,
          "duration": 0.20689649999999915
        },
        {
          "name": "B1",
          "midi": 35,
          "time": 53.79308999999984,
          "velocity": 0.7480314960629921,
          "duration": 0.20689649999999915
        },
        {
          "name": "B1",
          "midi": 35,
          "time": 53.99998649999984,
          "velocity": 0.7480314960629921,
          "duration": 0.20689649999999915
        },
        {
          "name": "A#2",
          "midi": 46,
          "time": 54.20688299999984,
          "velocity": 0.7480314960629921,
          "duration": 0.20689649999999915
        },
        {
          "name": "E2",
          "midi": 40,
          "time": 54.20688299999984,
          "velocity": 0.7480314960629921,
          "duration": 0.20689649999999915
        },
        {
          "name": "B1",
          "midi": 35,
          "time": 54.41377949999984,
          "velocity": 0.7480314960629921,
          "duration": 0.20689649999999915
        },
        {
          "name": "C#3",
          "midi": 49,
          "time": 54.62067599999984,
          "velocity": 0.7480314960629921,
          "duration": 0.20689649999999915
        },
        {
          "name": "B1",
          "midi": 35,
          "time": 54.62067599999984,
          "velocity": 0.7480314960629921,
          "duration": 0.20689649999999915
        },
        {
          "name": "B1",
          "midi": 35,
          "time": 54.82757249999984,
          "velocity": 0.7480314960629921,
          "duration": 0.20689649999999915
        },
        {
          "name": "A#2",
          "midi": 46,
          "time": 55.03446899999984,
          "velocity": 0.7480314960629921,
          "duration": 0.20689649999999915
        },
        {
          "name": "E2",
          "midi": 40,
          "time": 55.03446899999984,
          "velocity": 0.7480314960629921,
          "duration": 0.20689649999999915
        },
        {
          "name": "B1",
          "midi": 35,
          "time": 55.24136549999984,
          "velocity": 0.7480314960629921,
          "duration": 0.20689649999999915
        },
        {
          "name": "A#2",
          "midi": 46,
          "time": 55.448261999999836,
          "velocity": 0.7480314960629921,
          "duration": 0.20689649999999915
        },
        {
          "name": "B1",
          "midi": 35,
          "time": 55.448261999999836,
          "velocity": 0.7480314960629921,
          "duration": 0.20689649999999915
        },
        {
          "name": "B1",
          "midi": 35,
          "time": 55.655158499999835,
          "velocity": 0.7480314960629921,
          "duration": 0.20689649999999915
        },
        {
          "name": "A#2",
          "midi": 46,
          "time": 55.862054999999835,
          "velocity": 0.7480314960629921,
          "duration": 0.4137929999999983
        },
        {
          "name": "E2",
          "midi": 40,
          "time": 55.862054999999835,
          "velocity": 0.7480314960629921,
          "duration": 0.4137929999999983
        },
        {
          "name": "C#3",
          "midi": 49,
          "time": 56.27584799999983,
          "velocity": 0.7480314960629921,
          "duration": 0.20689649999999915
        },
        {
          "name": "B1",
          "midi": 35,
          "time": 56.27584799999983,
          "velocity": 0.7480314960629921,
          "duration": 0.20689649999999915
        },
        {
          "name": "B1",
          "midi": 35,
          "time": 56.48274449999983,
          "velocity": 0.7480314960629921,
          "duration": 0.20689649999999915
        },
        {
          "name": "A#2",
          "midi": 46,
          "time": 56.68964099999983,
          "velocity": 0.7480314960629921,
          "duration": 0.20689649999999915
        },
        {
          "name": "E2",
          "midi": 40,
          "time": 56.68964099999983,
          "velocity": 0.7480314960629921,
          "duration": 0.20689649999999915
        },
        {
          "name": "B1",
          "midi": 35,
          "time": 56.89653749999983,
          "velocity": 0.7480314960629921,
          "duration": 0.20689649999999915
        },
        {
          "name": "A#2",
          "midi": 46,
          "time": 57.10343399999983,
          "velocity": 0.7480314960629921,
          "duration": 0.4137929999999983
        },
        {
          "name": "B1",
          "midi": 35,
          "time": 57.10343399999983,
          "velocity": 0.7480314960629921,
          "duration": 0.4137929999999983
        },
        {
          "name": "A#2",
          "midi": 46,
          "time": 57.51722699999983,
          "velocity": 0.7480314960629921,
          "duration": 0.20689649999999915
        },
        {
          "name": "E2",
          "midi": 40,
          "time": 57.51722699999983,
          "velocity": 0.7480314960629921,
          "duration": 0.20689649999999915
        },
        {
          "name": "B1",
          "midi": 35,
          "time": 57.72412349999983,
          "velocity": 0.7480314960629921,
          "duration": 0.4137929999999983
        },
        {
          "name": "A#2",
          "midi": 46,
          "time": 57.931019999999826,
          "velocity": 0.7480314960629921,
          "duration": 0.20689649999999915
        },
        {
          "name": "B1",
          "midi": 35,
          "time": 58.137916499999825,
          "velocity": 0.7480314960629921,
          "duration": 0.20689649999999915
        },
        {
          "name": "A#2",
          "midi": 46,
          "time": 58.344812999999824,
          "velocity": 0.7480314960629921,
          "duration": 0.4137929999999983
        },
        {
          "name": "E2",
          "midi": 40,
          "time": 58.344812999999824,
          "velocity": 0.7480314960629921,
          "duration": 0.4137929999999983
        },
        {
          "name": "A#2",
          "midi": 46,
          "time": 58.75860599999982,
          "velocity": 0.7480314960629921,
          "duration": 0.20689649999999915
        },
        {
          "name": "B1",
          "midi": 35,
          "time": 58.75860599999982,
          "velocity": 0.7480314960629921,
          "duration": 0.20689649999999915
        },
        {
          "name": "A2",
          "midi": 45,
          "time": 58.96550249999982,
          "velocity": 0.7480314960629921,
          "duration": 0.07758618750000323
        },
        {
          "name": "G2",
          "midi": 43,
          "time": 59.043088687499825,
          "velocity": 0.7480314960629921,
          "duration": 0.07758618750000323
        },
        {
          "name": "F2",
          "midi": 41,
          "time": 59.12067487499983,
          "velocity": 0.7480314960629921,
          "duration": 0.4655171249999981
        },
        {
          "name": "C#3",
          "midi": 49,
          "time": 59.586191999999826,
          "velocity": 0.7480314960629921,
          "duration": 0.20689649999999915
        },
        {
          "name": "B1",
          "midi": 35,
          "time": 59.586191999999826,
          "velocity": 0.7480314960629921,
          "duration": 0.20689649999999915
        },
        {
          "name": "B1",
          "midi": 35,
          "time": 59.793088499999826,
          "velocity": 0.7480314960629921,
          "duration": 0.20689649999999915
        },
        {
          "name": "A#2",
          "midi": 46,
          "time": 59.999984999999825,
          "velocity": 0.7480314960629921,
          "duration": 0.20689649999999915
        },
        {
          "name": "E2",
          "midi": 40,
          "time": 59.999984999999825,
          "velocity": 0.7480314960629921,
          "duration": 0.20689649999999915
        },
        {
          "name": "B1",
          "midi": 35,
          "time": 60.206881499999824,
          "velocity": 0.7480314960629921,
          "duration": 0.20689649999999915
        },
        {
          "name": "A#2",
          "midi": 46,
          "time": 60.41377799999982,
          "velocity": 0.7480314960629921,
          "duration": 0.20689649999999915
        },
        {
          "name": "B1",
          "midi": 35,
          "time": 60.41377799999982,
          "velocity": 0.7480314960629921,
          "duration": 0.20689649999999915
        },
        {
          "name": "B1",
          "midi": 35,
          "time": 60.62067449999982,
          "velocity": 0.7480314960629921,
          "duration": 0.20689649999999915
        },
        {
          "name": "A#2",
          "midi": 46,
          "time": 60.82757099999982,
          "velocity": 0.7480314960629921,
          "duration": 0.20689649999999915
        },
        {
          "name": "E2",
          "midi": 40,
          "time": 60.82757099999982,
          "velocity": 0.7480314960629921,
          "duration": 0.20689649999999915
        },
        {
          "name": "B1",
          "midi": 35,
          "time": 61.03446749999982,
          "velocity": 0.7480314960629921,
          "duration": 0.20689649999999915
        },
        {
          "name": "A#2",
          "midi": 46,
          "time": 61.24136399999982,
          "velocity": 0.7480314960629921,
          "duration": 0.20689649999999915
        },
        {
          "name": "B1",
          "midi": 35,
          "time": 61.24136399999982,
          "velocity": 0.7480314960629921,
          "duration": 0.20689649999999915
        },
        {
          "name": "B1",
          "midi": 35,
          "time": 61.44826049999982,
          "velocity": 0.7480314960629921,
          "duration": 0.20689649999999915
        },
        {
          "name": "A#2",
          "midi": 46,
          "time": 61.65515699999982,
          "velocity": 0.7480314960629921,
          "duration": 0.20689649999999915
        },
        {
          "name": "E2",
          "midi": 40,
          "time": 61.65515699999982,
          "velocity": 0.7480314960629921,
          "duration": 0.20689649999999915
        },
        {
          "name": "B1",
          "midi": 35,
          "time": 61.86205349999982,
          "velocity": 0.7480314960629921,
          "duration": 0.20689649999999915
        },
        {
          "name": "A#2",
          "midi": 46,
          "time": 62.068949999999816,
          "velocity": 0.7480314960629921,
          "duration": 0.20689649999999915
        },
        {
          "name": "B1",
          "midi": 35,
          "time": 62.068949999999816,
          "velocity": 0.7480314960629921,
          "duration": 0.20689649999999915
        },
        {
          "name": "B1",
          "midi": 35,
          "time": 62.275846499999815,
          "velocity": 0.7480314960629921,
          "duration": 0.20689649999999915
        },
        {
          "name": "A#2",
          "midi": 46,
          "time": 62.482742999999815,
          "velocity": 0.7480314960629921,
          "duration": 0.20689649999999915
        },
        {
          "name": "E2",
          "midi": 40,
          "time": 62.482742999999815,
          "velocity": 0.7480314960629921,
          "duration": 0.20689649999999915
        },
        {
          "name": "B1",
          "midi": 35,
          "time": 62.689639499999814,
          "velocity": 0.7480314960629921,
          "duration": 0.20689649999999915
        },
        {
          "name": "C#3",
          "midi": 49,
          "time": 62.89653599999981,
          "velocity": 0.7480314960629921,
          "duration": 0.20689649999999915
        },
        {
          "name": "B1",
          "midi": 35,
          "time": 62.89653599999981,
          "velocity": 0.7480314960629921,
          "duration": 0.20689649999999915
        },
        {
          "name": "B1",
          "midi": 35,
          "time": 63.10343249999981,
          "velocity": 0.7480314960629921,
          "duration": 0.20689649999999915
        },
        {
          "name": "A#2",
          "midi": 46,
          "time": 63.31032899999981,
          "velocity": 0.7480314960629921,
          "duration": 0.20689649999999915
        },
        {
          "name": "E2",
          "midi": 40,
          "time": 63.31032899999981,
          "velocity": 0.7480314960629921,
          "duration": 0.20689649999999915
        },
        {
          "name": "B1",
          "midi": 35,
          "time": 63.51722549999981,
          "velocity": 0.7480314960629921,
          "duration": 0.20689649999999915
        },
        {
          "name": "A#2",
          "midi": 46,
          "time": 63.72412199999981,
          "velocity": 0.7480314960629921,
          "duration": 0.20689649999999915
        },
        {
          "name": "B1",
          "midi": 35,
          "time": 63.72412199999981,
          "velocity": 0.7480314960629921,
          "duration": 0.20689649999999915
        },
        {
          "name": "B1",
          "midi": 35,
          "time": 63.93101849999981,
          "velocity": 0.7480314960629921,
          "duration": 0.20689649999999915
        },
        {
          "name": "A#2",
          "midi": 46,
          "time": 64.13791499999981,
          "velocity": 0.7480314960629921,
          "duration": 0.20689649999999915
        },
        {
          "name": "E2",
          "midi": 40,
          "time": 64.13791499999981,
          "velocity": 0.7480314960629921,
          "duration": 0.20689649999999915
        },
        {
          "name": "B1",
          "midi": 35,
          "time": 64.3448114999998,
          "velocity": 0.7480314960629921,
          "duration": 0.20689649999999915
        },
        {
          "name": "A#2",
          "midi": 46,
          "time": 64.5517079999998,
          "velocity": 0.7480314960629921,
          "duration": 0.20689649999999915
        },
        {
          "name": "B1",
          "midi": 35,
          "time": 64.5517079999998,
          "velocity": 0.7480314960629921,
          "duration": 0.20689649999999915
        },
        {
          "name": "B1",
          "midi": 35,
          "time": 64.7586044999998,
          "velocity": 0.7480314960629921,
          "duration": 0.20689649999999915
        },
        {
          "name": "A#2",
          "midi": 46,
          "time": 64.9655009999998,
          "velocity": 0.7480314960629921,
          "duration": 0.20689649999999915
        },
        {
          "name": "E2",
          "midi": 40,
          "time": 64.9655009999998,
          "velocity": 0.7480314960629921,
          "duration": 0.20689649999999915
        },
        {
          "name": "B1",
          "midi": 35,
          "time": 65.1723974999998,
          "velocity": 0.7480314960629921,
          "duration": 0.20689649999999915
        },
        {
          "name": "A#2",
          "midi": 46,
          "time": 65.3792939999998,
          "velocity": 0.7480314960629921,
          "duration": 0.20689649999999915
        },
        {
          "name": "B1",
          "midi": 35,
          "time": 65.3792939999998,
          "velocity": 0.7480314960629921,
          "duration": 0.20689649999999915
        },
        {
          "name": "B1",
          "midi": 35,
          "time": 65.5861904999998,
          "velocity": 0.7480314960629921,
          "duration": 0.20689649999999915
        },
        {
          "name": "A#2",
          "midi": 46,
          "time": 65.7930869999998,
          "velocity": 0.7480314960629921,
          "duration": 0.20689649999999915
        },
        {
          "name": "E2",
          "midi": 40,
          "time": 65.7930869999998,
          "velocity": 0.7480314960629921,
          "duration": 0.20689649999999915
        },
        {
          "name": "B1",
          "midi": 35,
          "time": 65.9999834999998,
          "velocity": 0.7480314960629921,
          "duration": 0.20689649999999915
        },
        {
          "name": "C#3",
          "midi": 49,
          "time": 66.2068799999998,
          "velocity": 0.7480314960629921,
          "duration": 0.20689649999999915
        },
        {
          "name": "B1",
          "midi": 35,
          "time": 66.2068799999998,
          "velocity": 0.7480314960629921,
          "duration": 0.20689649999999915
        },
        {
          "name": "B1",
          "midi": 35,
          "time": 66.4137764999998,
          "velocity": 0.7480314960629921,
          "duration": 0.20689649999999915
        },
        {
          "name": "A#2",
          "midi": 46,
          "time": 66.6206729999998,
          "velocity": 0.7480314960629921,
          "duration": 0.20689649999999915
        },
        {
          "name": "E2",
          "midi": 40,
          "time": 66.6206729999998,
          "velocity": 0.7480314960629921,
          "duration": 0.20689649999999915
        },
        {
          "name": "B1",
          "midi": 35,
          "time": 66.8275694999998,
          "velocity": 0.7480314960629921,
          "duration": 0.20689649999999915
        },
        {
          "name": "A#2",
          "midi": 46,
          "time": 67.0344659999998,
          "velocity": 0.7480314960629921,
          "duration": 0.20689649999999915
        },
        {
          "name": "B1",
          "midi": 35,
          "time": 67.0344659999998,
          "velocity": 0.7480314960629921,
          "duration": 0.20689649999999915
        },
        {
          "name": "B1",
          "midi": 35,
          "time": 67.2413624999998,
          "velocity": 0.7480314960629921,
          "duration": 0.20689649999999915
        },
        {
          "name": "A#2",
          "midi": 46,
          "time": 67.4482589999998,
          "velocity": 0.7480314960629921,
          "duration": 0.20689649999999915
        },
        {
          "name": "E2",
          "midi": 40,
          "time": 67.4482589999998,
          "velocity": 0.7480314960629921,
          "duration": 0.20689649999999915
        },
        {
          "name": "B1",
          "midi": 35,
          "time": 67.6551554999998,
          "velocity": 0.7480314960629921,
          "duration": 0.20689649999999915
        },
        {
          "name": "C#3",
          "midi": 49,
          "time": 67.86205199999979,
          "velocity": 0.7480314960629921,
          "duration": 0.20689649999999915
        },
        {
          "name": "B1",
          "midi": 35,
          "time": 67.86205199999979,
          "velocity": 0.7480314960629921,
          "duration": 0.20689649999999915
        },
        {
          "name": "B1",
          "midi": 35,
          "time": 68.06894849999979,
          "velocity": 0.7480314960629921,
          "duration": 0.20689649999999915
        },
        {
          "name": "A#2",
          "midi": 46,
          "time": 68.27584499999979,
          "velocity": 0.7480314960629921,
          "duration": 0.20689649999999915
        },
        {
          "name": "E2",
          "midi": 40,
          "time": 68.27584499999979,
          "velocity": 0.7480314960629921,
          "duration": 0.20689649999999915
        },
        {
          "name": "B1",
          "midi": 35,
          "time": 68.48274149999979,
          "velocity": 0.7480314960629921,
          "duration": 0.20689649999999915
        },
        {
          "name": "A#2",
          "midi": 46,
          "time": 68.68963799999979,
          "velocity": 0.7480314960629921,
          "duration": 0.20689649999999915
        },
        {
          "name": "B1",
          "midi": 35,
          "time": 68.68963799999979,
          "velocity": 0.7480314960629921,
          "duration": 0.20689649999999915
        },
        {
          "name": "B1",
          "midi": 35,
          "time": 68.89653449999979,
          "velocity": 0.7480314960629921,
          "duration": 0.20689649999999915
        },
        {
          "name": "A#2",
          "midi": 46,
          "time": 69.10343099999979,
          "velocity": 0.7480314960629921,
          "duration": 0.4137929999999983
        },
        {
          "name": "E2",
          "midi": 40,
          "time": 69.10343099999979,
          "velocity": 0.7480314960629921,
          "duration": 0.4137929999999983
        },
        {
          "name": "C#3",
          "midi": 49,
          "time": 69.51722399999979,
          "velocity": 0.7480314960629921,
          "duration": 0.20689649999999915
        },
        {
          "name": "B1",
          "midi": 35,
          "time": 69.51722399999979,
          "velocity": 0.7480314960629921,
          "duration": 0.20689649999999915
        },
        {
          "name": "B1",
          "midi": 35,
          "time": 69.72412049999978,
          "velocity": 0.7480314960629921,
          "duration": 0.20689649999999915
        },
        {
          "name": "A#2",
          "midi": 46,
          "time": 69.93101699999978,
          "velocity": 0.7480314960629921,
          "duration": 0.20689649999999915
        },
        {
          "name": "E2",
          "midi": 40,
          "time": 69.93101699999978,
          "velocity": 0.7480314960629921,
          "duration": 0.20689649999999915
        },
        {
          "name": "B1",
          "midi": 35,
          "time": 70.13791349999978,
          "velocity": 0.7480314960629921,
          "duration": 0.20689649999999915
        },
        {
          "name": "A#2",
          "midi": 46,
          "time": 70.34480999999978,
          "velocity": 0.7480314960629921,
          "duration": 0.4137929999999983
        },
        {
          "name": "B1",
          "midi": 35,
          "time": 70.34480999999978,
          "velocity": 0.7480314960629921,
          "duration": 0.4137929999999983
        },
        {
          "name": "A#2",
          "midi": 46,
          "time": 70.75860299999978,
          "velocity": 0.7480314960629921,
          "duration": 0.20689649999999915
        },
        {
          "name": "E2",
          "midi": 40,
          "time": 70.75860299999978,
          "velocity": 0.7480314960629921,
          "duration": 0.20689649999999915
        },
        {
          "name": "B1",
          "midi": 35,
          "time": 70.96549949999978,
          "velocity": 0.7480314960629921,
          "duration": 0.4137929999999983
        },
        {
          "name": "A#2",
          "midi": 46,
          "time": 71.17239599999978,
          "velocity": 0.7480314960629921,
          "duration": 0.20689649999999915
        },
        {
          "name": "B1",
          "midi": 35,
          "time": 71.37929249999978,
          "velocity": 0.7480314960629921,
          "duration": 0.20689649999999915
        },
        {
          "name": "A#2",
          "midi": 46,
          "time": 71.58618899999978,
          "velocity": 0.7480314960629921,
          "duration": 0.4137929999999983
        },
        {
          "name": "E2",
          "midi": 40,
          "time": 71.58618899999978,
          "velocity": 0.7480314960629921,
          "duration": 0.4137929999999983
        },
        {
          "name": "A#2",
          "midi": 46,
          "time": 71.99998199999978,
          "velocity": 0.7480314960629921,
          "duration": 0.20689649999999915
        },
        {
          "name": "B1",
          "midi": 35,
          "time": 71.99998199999978,
          "velocity": 0.7480314960629921,
          "duration": 0.20689649999999915
        },
        {
          "name": "A2",
          "midi": 45,
          "time": 72.20687849999977,
          "velocity": 0.7480314960629921,
          "duration": 0.07758618750000323
        },
        {
          "name": "G2",
          "midi": 43,
          "time": 72.28446468749978,
          "velocity": 0.7480314960629921,
          "duration": 0.07758618750000323
        },
        {
          "name": "F2",
          "midi": 41,
          "time": 72.36205087499978,
          "velocity": 0.7480314960629921,
          "duration": 0.4655171250000052
        },
        {
          "name": "C#3",
          "midi": 49,
          "time": 72.82756799999979,
          "velocity": 0.7480314960629921,
          "duration": 0.20689649999999915
        },
        {
          "name": "B1",
          "midi": 35,
          "time": 72.82756799999979,
          "velocity": 0.7480314960629921,
          "duration": 0.20689649999999915
        },
        {
          "name": "B1",
          "midi": 35,
          "time": 73.03446449999979,
          "velocity": 0.7480314960629921,
          "duration": 0.20689649999999915
        },
        {
          "name": "A#2",
          "midi": 46,
          "time": 73.24136099999978,
          "velocity": 0.7480314960629921,
          "duration": 0.20689649999999915
        },
        {
          "name": "E2",
          "midi": 40,
          "time": 73.24136099999978,
          "velocity": 0.7480314960629921,
          "duration": 0.20689649999999915
        },
        {
          "name": "B1",
          "midi": 35,
          "time": 73.44825749999978,
          "velocity": 0.7480314960629921,
          "duration": 0.20689649999999915
        },
        {
          "name": "A#2",
          "midi": 46,
          "time": 73.65515399999978,
          "velocity": 0.7480314960629921,
          "duration": 0.4137929999999983
        },
        {
          "name": "B1",
          "midi": 35,
          "time": 73.65515399999978,
          "velocity": 0.7480314960629921,
          "duration": 0.4137929999999983
        },
        {
          "name": "A#2",
          "midi": 46,
          "time": 74.06894699999978,
          "velocity": 0.7480314960629921,
          "duration": 0.20689649999999915
        },
        {
          "name": "E2",
          "midi": 40,
          "time": 74.06894699999978,
          "velocity": 0.7480314960629921,
          "duration": 0.20689649999999915
        },
        {
          "name": "B1",
          "midi": 35,
          "time": 74.27584349999978,
          "velocity": 0.7480314960629921,
          "duration": 0.4137929999999983
        },
        {
          "name": "A#2",
          "midi": 46,
          "time": 74.48273999999978,
          "velocity": 0.7480314960629921,
          "duration": 0.20689649999999915
        },
        {
          "name": "B1",
          "midi": 35,
          "time": 74.68963649999978,
          "velocity": 0.7480314960629921,
          "duration": 0.20689649999999915
        },
        {
          "name": "A#2",
          "midi": 46,
          "time": 74.89653299999978,
          "velocity": 0.7480314960629921,
          "duration": 0.4137929999999983
        },
        {
          "name": "E2",
          "midi": 40,
          "time": 74.89653299999978,
          "velocity": 0.7480314960629921,
          "duration": 0.4137929999999983
        },
        {
          "name": "A#2",
          "midi": 46,
          "time": 75.31032599999978,
          "velocity": 0.7480314960629921,
          "duration": 0.20689649999999915
        },
        {
          "name": "B1",
          "midi": 35,
          "time": 75.31032599999978,
          "velocity": 0.7480314960629921,
          "duration": 0.20689649999999915
        },
        {
          "name": "E2",
          "midi": 40,
          "time": 75.51722249999978,
          "velocity": 0.7480314960629921,
          "duration": 0.10344824999999958
        },
        {
          "name": "E2",
          "midi": 40,
          "time": 75.62067074999977,
          "velocity": 0.7480314960629921,
          "duration": 0.10344824999999958
        },
        {
          "name": "E2",
          "midi": 40,
          "time": 75.72411899999977,
          "velocity": 0.7480314960629921,
          "duration": 0.10344824999999958
        },
        {
          "name": "E2",
          "midi": 40,
          "time": 75.82756724999977,
          "velocity": 0.7480314960629921,
          "duration": 0.10344824999999958
        },
        {
          "name": "E2",
          "midi": 40,
          "time": 75.93101549999977,
          "velocity": 0.7480314960629921,
          "duration": 0.10344824999999958
        },
        {
          "name": "E2",
          "midi": 40,
          "time": 76.03446374999977,
          "velocity": 0.7480314960629921,
          "duration": 0.10344824999999958
        },
        {
          "name": "C#3",
          "midi": 49,
          "time": 76.13791199999977,
          "velocity": 0.7480314960629921,
          "duration": 0.20689649999999915
        },
        {
          "name": "B1",
          "midi": 35,
          "time": 76.13791199999977,
          "velocity": 0.7480314960629921,
          "duration": 0.20689649999999915
        },
        {
          "name": "B1",
          "midi": 35,
          "time": 76.34480849999977,
          "velocity": 0.7480314960629921,
          "duration": 0.20689649999999915
        },
        {
          "name": "A3",
          "midi": 57,
          "time": 76.55170499999977,
          "velocity": 0.7480314960629921,
          "duration": 0.20689649999999915
        },
        {
          "name": "E2",
          "midi": 40,
          "time": 76.55170499999977,
          "velocity": 0.7480314960629921,
          "duration": 0.20689649999999915
        },
        {
          "name": "B1",
          "midi": 35,
          "time": 76.75860149999977,
          "velocity": 0.7480314960629921,
          "duration": 0.20689649999999915
        },
        {
          "name": "A3",
          "midi": 57,
          "time": 76.96549799999977,
          "velocity": 0.7480314960629921,
          "duration": 0.20689649999999915
        },
        {
          "name": "B1",
          "midi": 35,
          "time": 76.96549799999977,
          "velocity": 0.7480314960629921,
          "duration": 0.20689649999999915
        },
        {
          "name": "B1",
          "midi": 35,
          "time": 77.17239449999977,
          "velocity": 0.7480314960629921,
          "duration": 0.20689649999999915
        },
        {
          "name": "A3",
          "midi": 57,
          "time": 77.37929099999977,
          "velocity": 0.7480314960629921,
          "duration": 0.20689649999999915
        },
        {
          "name": "E2",
          "midi": 40,
          "time": 77.37929099999977,
          "velocity": 0.7480314960629921,
          "duration": 0.20689649999999915
        },
        {
          "name": "B1",
          "midi": 35,
          "time": 77.58618749999977,
          "velocity": 0.7480314960629921,
          "duration": 0.20689649999999915
        },
        {
          "name": "A3",
          "midi": 57,
          "time": 77.79308399999977,
          "velocity": 0.7480314960629921,
          "duration": 0.20689649999999915
        },
        {
          "name": "B1",
          "midi": 35,
          "time": 77.79308399999977,
          "velocity": 0.7480314960629921,
          "duration": 0.20689649999999915
        },
        {
          "name": "B1",
          "midi": 35,
          "time": 77.99998049999977,
          "velocity": 0.7480314960629921,
          "duration": 0.20689649999999915
        },
        {
          "name": "A3",
          "midi": 57,
          "time": 78.20687699999976,
          "velocity": 0.7480314960629921,
          "duration": 0.20689649999999915
        },
        {
          "name": "E2",
          "midi": 40,
          "time": 78.20687699999976,
          "velocity": 0.7480314960629921,
          "duration": 0.20689649999999915
        },
        {
          "name": "B1",
          "midi": 35,
          "time": 78.41377349999976,
          "velocity": 0.7480314960629921,
          "duration": 0.20689649999999915
        },
        {
          "name": "A3",
          "midi": 57,
          "time": 78.62066999999976,
          "velocity": 0.7480314960629921,
          "duration": 0.20689649999999915
        },
        {
          "name": "B1",
          "midi": 35,
          "time": 78.62066999999976,
          "velocity": 0.7480314960629921,
          "duration": 0.20689649999999915
        },
        {
          "name": "B1",
          "midi": 35,
          "time": 78.82756649999976,
          "velocity": 0.7480314960629921,
          "duration": 0.20689649999999915
        },
        {
          "name": "A3",
          "midi": 57,
          "time": 79.03446299999976,
          "velocity": 0.7480314960629921,
          "duration": 0.20689649999999915
        },
        {
          "name": "E2",
          "midi": 40,
          "time": 79.03446299999976,
          "velocity": 0.7480314960629921,
          "duration": 0.20689649999999915
        },
        {
          "name": "B1",
          "midi": 35,
          "time": 79.24135949999976,
          "velocity": 0.7480314960629921,
          "duration": 0.20689649999999915
        },
        {
          "name": "A3",
          "midi": 57,
          "time": 79.44825599999976,
          "velocity": 0.7480314960629921,
          "duration": 0.20689649999999915
        },
        {
          "name": "B1",
          "midi": 35,
          "time": 79.44825599999976,
          "velocity": 0.7480314960629921,
          "duration": 0.20689649999999915
        },
        {
          "name": "B1",
          "midi": 35,
          "time": 79.65515249999976,
          "velocity": 0.7480314960629921,
          "duration": 0.20689649999999915
        },
        {
          "name": "A3",
          "midi": 57,
          "time": 79.86204899999976,
          "velocity": 0.7480314960629921,
          "duration": 0.20689649999999915
        },
        {
          "name": "E2",
          "midi": 40,
          "time": 79.86204899999976,
          "velocity": 0.7480314960629921,
          "duration": 0.20689649999999915
        },
        {
          "name": "B1",
          "midi": 35,
          "time": 80.06894549999976,
          "velocity": 0.7480314960629921,
          "duration": 0.20689649999999915
        },
        {
          "name": "A3",
          "midi": 57,
          "time": 80.27584199999976,
          "velocity": 0.7480314960629921,
          "duration": 0.20689649999999915
        },
        {
          "name": "B1",
          "midi": 35,
          "time": 80.27584199999976,
          "velocity": 0.7480314960629921,
          "duration": 0.20689649999999915
        },
        {
          "name": "B1",
          "midi": 35,
          "time": 80.48273849999975,
          "velocity": 0.7480314960629921,
          "duration": 0.20689649999999915
        },
        {
          "name": "A3",
          "midi": 57,
          "time": 80.68963499999975,
          "velocity": 0.7480314960629921,
          "duration": 0.20689649999999915
        },
        {
          "name": "E2",
          "midi": 40,
          "time": 80.68963499999975,
          "velocity": 0.7480314960629921,
          "duration": 0.20689649999999915
        },
        {
          "name": "B1",
          "midi": 35,
          "time": 80.89653149999975,
          "velocity": 0.7480314960629921,
          "duration": 0.20689649999999915
        },
        {
          "name": "C#3",
          "midi": 49,
          "time": 81.10342799999975,
          "velocity": 0.7480314960629921,
          "duration": 0.20689649999999915
        },
        {
          "name": "B1",
          "midi": 35,
          "time": 81.10342799999975,
          "velocity": 0.7480314960629921,
          "duration": 0.20689649999999915
        },
        {
          "name": "B1",
          "midi": 35,
          "time": 81.31032449999975,
          "velocity": 0.7480314960629921,
          "duration": 0.20689649999999915
        },
        {
          "name": "A3",
          "midi": 57,
          "time": 81.51722099999975,
          "velocity": 0.7480314960629921,
          "duration": 0.20689649999999915
        },
        {
          "name": "E2",
          "midi": 40,
          "time": 81.51722099999975,
          "velocity": 0.7480314960629921,
          "duration": 0.20689649999999915
        },
        {
          "name": "B1",
          "midi": 35,
          "time": 81.72411749999975,
          "velocity": 0.7480314960629921,
          "duration": 0.20689649999999915
        },
        {
          "name": "A3",
          "midi": 57,
          "time": 81.93101399999975,
          "velocity": 0.7480314960629921,
          "duration": 0.20689649999999915
        },
        {
          "name": "B1",
          "midi": 35,
          "time": 81.93101399999975,
          "velocity": 0.7480314960629921,
          "duration": 0.20689649999999915
        },
        {
          "name": "B1",
          "midi": 35,
          "time": 82.13791049999975,
          "velocity": 0.7480314960629921,
          "duration": 0.20689649999999915
        },
        {
          "name": "G3",
          "midi": 55,
          "time": 82.34480699999975,
          "velocity": 0.7480314960629921,
          "duration": 0.20689649999999915
        },
        {
          "name": "E2",
          "midi": 40,
          "time": 82.34480699999975,
          "velocity": 0.7480314960629921,
          "duration": 0.20689649999999915
        },
        {
          "name": "B1",
          "midi": 35,
          "time": 82.55170349999975,
          "velocity": 0.7480314960629921,
          "duration": 0.20689649999999915
        },
        {
          "name": "C#3",
          "midi": 49,
          "time": 82.75859999999975,
          "velocity": 0.7480314960629921,
          "duration": 0.20689649999999915
        },
        {
          "name": "B1",
          "midi": 35,
          "time": 82.75859999999975,
          "velocity": 0.7480314960629921,
          "duration": 0.20689649999999915
        },
        {
          "name": "B1",
          "midi": 35,
          "time": 82.96549649999974,
          "velocity": 0.7480314960629921,
          "duration": 0.20689649999999915
        },
        {
          "name": "A3",
          "midi": 57,
          "time": 83.17239299999974,
          "velocity": 0.7480314960629921,
          "duration": 0.20689649999999915
        },
        {
          "name": "E2",
          "midi": 40,
          "time": 83.17239299999974,
          "velocity": 0.7480314960629921,
          "duration": 0.20689649999999915
        },
        {
          "name": "B1",
          "midi": 35,
          "time": 83.37928949999974,
          "velocity": 0.7480314960629921,
          "duration": 0.20689649999999915
        },
        {
          "name": "A3",
          "midi": 57,
          "time": 83.58618599999974,
          "velocity": 0.7480314960629921,
          "duration": 0.20689649999999915
        },
        {
          "name": "B1",
          "midi": 35,
          "time": 83.58618599999974,
          "velocity": 0.7480314960629921,
          "duration": 0.20689649999999915
        },
        {
          "name": "B1",
          "midi": 35,
          "time": 83.79308249999974,
          "velocity": 0.7480314960629921,
          "duration": 0.20689649999999915
        },
        {
          "name": "A3",
          "midi": 57,
          "time": 83.99997899999974,
          "velocity": 0.7480314960629921,
          "duration": 0.20689649999999915
        },
        {
          "name": "E2",
          "midi": 40,
          "time": 83.99997899999974,
          "velocity": 0.7480314960629921,
          "duration": 0.20689649999999915
        },
        {
          "name": "B1",
          "midi": 35,
          "time": 84.20687549999974,
          "velocity": 0.7480314960629921,
          "duration": 0.20689649999999915
        },
        {
          "name": "A3",
          "midi": 57,
          "time": 84.41377199999974,
          "velocity": 0.7480314960629921,
          "duration": 0.20689649999999915
        },
        {
          "name": "B1",
          "midi": 35,
          "time": 84.41377199999974,
          "velocity": 0.7480314960629921,
          "duration": 0.20689649999999915
        },
        {
          "name": "B1",
          "midi": 35,
          "time": 84.62066849999974,
          "velocity": 0.7480314960629921,
          "duration": 0.20689649999999915
        },
        {
          "name": "A3",
          "midi": 57,
          "time": 84.82756499999974,
          "velocity": 0.7480314960629921,
          "duration": 0.20689649999999915
        },
        {
          "name": "E2",
          "midi": 40,
          "time": 84.82756499999974,
          "velocity": 0.7480314960629921,
          "duration": 0.20689649999999915
        },
        {
          "name": "B1",
          "midi": 35,
          "time": 85.03446149999974,
          "velocity": 0.7480314960629921,
          "duration": 0.20689649999999915
        },
        {
          "name": "A3",
          "midi": 57,
          "time": 85.24135799999974,
          "velocity": 0.7480314960629921,
          "duration": 0.20689649999999915
        },
        {
          "name": "B1",
          "midi": 35,
          "time": 85.24135799999974,
          "velocity": 0.7480314960629921,
          "duration": 0.20689649999999915
        },
        {
          "name": "B1",
          "midi": 35,
          "time": 85.44825449999973,
          "velocity": 0.7480314960629921,
          "duration": 0.20689649999999915
        },
        {
          "name": "A3",
          "midi": 57,
          "time": 85.65515099999973,
          "velocity": 0.7480314960629921,
          "duration": 0.20689649999999915
        },
        {
          "name": "E2",
          "midi": 40,
          "time": 85.65515099999973,
          "velocity": 0.7480314960629921,
          "duration": 0.20689649999999915
        },
        {
          "name": "B1",
          "midi": 35,
          "time": 85.86204749999973,
          "velocity": 0.7480314960629921,
          "duration": 0.20689649999999915
        },
        {
          "name": "C#3",
          "midi": 49,
          "time": 86.06894399999973,
          "velocity": 0.7480314960629921,
          "duration": 0.20689649999999915
        },
        {
          "name": "B1",
          "midi": 35,
          "time": 86.06894399999973,
          "velocity": 0.7480314960629921,
          "duration": 0.20689649999999915
        },
        {
          "name": "B1",
          "midi": 35,
          "time": 86.27584049999973,
          "velocity": 0.7480314960629921,
          "duration": 0.20689649999999915
        },
        {
          "name": "A3",
          "midi": 57,
          "time": 86.48273699999973,
          "velocity": 0.7480314960629921,
          "duration": 0.20689649999999915
        },
        {
          "name": "E2",
          "midi": 40,
          "time": 86.48273699999973,
          "velocity": 0.7480314960629921,
          "duration": 0.20689649999999915
        },
        {
          "name": "B1",
          "midi": 35,
          "time": 86.68963349999973,
          "velocity": 0.7480314960629921,
          "duration": 0.20689649999999915
        },
        {
          "name": "A3",
          "midi": 57,
          "time": 86.89652999999973,
          "velocity": 0.7480314960629921,
          "duration": 0.20689649999999915
        },
        {
          "name": "B1",
          "midi": 35,
          "time": 86.89652999999973,
          "velocity": 0.7480314960629921,
          "duration": 0.20689649999999915
        },
        {
          "name": "E2",
          "midi": 40,
          "time": 87.10342649999973,
          "velocity": 0.7480314960629921,
          "duration": 0.10344824999999958
        },
        {
          "name": "E2",
          "midi": 40,
          "time": 87.20687474999973,
          "velocity": 0.7480314960629921,
          "duration": 0.10344824999999958
        },
        {
          "name": "E2",
          "midi": 40,
          "time": 87.31032299999973,
          "velocity": 0.7480314960629921,
          "duration": 0.10344824999999958
        },
        {
          "name": "E2",
          "midi": 40,
          "time": 87.41377124999973,
          "velocity": 0.7480314960629921,
          "duration": 0.10344824999999958
        },
        {
          "name": "E2",
          "midi": 40,
          "time": 87.51721949999973,
          "velocity": 0.7480314960629921,
          "duration": 0.10344824999999958
        },
        {
          "name": "E2",
          "midi": 40,
          "time": 87.62066774999973,
          "velocity": 0.7480314960629921,
          "duration": 0.10344824999999958
        },
        {
          "name": "A3",
          "midi": 57,
          "time": 87.72411599999973,
          "velocity": 0.7480314960629921,
          "duration": 0.20689649999999915
        },
        {
          "name": "B1",
          "midi": 35,
          "time": 87.72411599999973,
          "velocity": 0.7480314960629921,
          "duration": 0.20689649999999915
        },
        {
          "name": "B1",
          "midi": 35,
          "time": 87.93101249999972,
          "velocity": 0.7480314960629921,
          "duration": 0.20689649999999915
        },
        {
          "name": "A3",
          "midi": 57,
          "time": 88.13790899999972,
          "velocity": 0.7480314960629921,
          "duration": 0.20689649999999915
        },
        {
          "name": "E2",
          "midi": 40,
          "time": 88.13790899999972,
          "velocity": 0.7480314960629921,
          "duration": 0.20689649999999915
        },
        {
          "name": "B1",
          "midi": 35,
          "time": 88.34480549999972,
          "velocity": 0.7480314960629921,
          "duration": 0.20689649999999915
        },
        {
          "name": "A3",
          "midi": 57,
          "time": 88.55170199999972,
          "velocity": 0.7480314960629921,
          "duration": 0.20689649999999915
        },
        {
          "name": "B1",
          "midi": 35,
          "time": 88.55170199999972,
          "velocity": 0.7480314960629921,
          "duration": 0.20689649999999915
        },
        {
          "name": "B1",
          "midi": 35,
          "time": 88.75859849999972,
          "velocity": 0.7480314960629921,
          "duration": 0.20689649999999915
        },
        {
          "name": "A3",
          "midi": 57,
          "time": 88.96549499999972,
          "velocity": 0.7480314960629921,
          "duration": 0.20689649999999915
        },
        {
          "name": "E2",
          "midi": 40,
          "time": 88.96549499999972,
          "velocity": 0.7480314960629921,
          "duration": 0.20689649999999915
        },
        {
          "name": "B1",
          "midi": 35,
          "time": 89.17239149999972,
          "velocity": 0.7480314960629921,
          "duration": 0.20689649999999915
        },
        {
          "name": "A3",
          "midi": 57,
          "time": 89.37928799999972,
          "velocity": 0.7480314960629921,
          "duration": 0.20689649999999915
        },
        {
          "name": "B1",
          "midi": 35,
          "time": 89.37928799999972,
          "velocity": 0.7480314960629921,
          "duration": 0.20689649999999915
        },
        {
          "name": "B1",
          "midi": 35,
          "time": 89.58618449999972,
          "velocity": 0.7480314960629921,
          "duration": 0.20689649999999915
        },
        {
          "name": "A3",
          "midi": 57,
          "time": 89.79308099999972,
          "velocity": 0.7480314960629921,
          "duration": 0.20689649999999915
        },
        {
          "name": "E2",
          "midi": 40,
          "time": 89.79308099999972,
          "velocity": 0.7480314960629921,
          "duration": 0.20689649999999915
        },
        {
          "name": "B1",
          "midi": 35,
          "time": 89.99997749999972,
          "velocity": 0.7480314960629921,
          "duration": 0.20689649999999915
        },
        {
          "name": "A3",
          "midi": 57,
          "time": 90.20687399999971,
          "velocity": 0.7480314960629921,
          "duration": 0.20689649999999915
        },
        {
          "name": "B1",
          "midi": 35,
          "time": 90.20687399999971,
          "velocity": 0.7480314960629921,
          "duration": 0.20689649999999915
        },
        {
          "name": "B1",
          "midi": 35,
          "time": 90.41377049999971,
          "velocity": 0.7480314960629921,
          "duration": 0.20689649999999915
        },
        {
          "name": "A3",
          "midi": 57,
          "time": 90.62066699999971,
          "velocity": 0.7480314960629921,
          "duration": 0.20689649999999915
        },
        {
          "name": "E2",
          "midi": 40,
          "time": 90.62066699999971,
          "velocity": 0.7480314960629921,
          "duration": 0.20689649999999915
        },
        {
          "name": "B1",
          "midi": 35,
          "time": 90.82756349999971,
          "velocity": 0.7480314960629921,
          "duration": 0.20689649999999915
        },
        {
          "name": "C#3",
          "midi": 49,
          "time": 91.03445999999971,
          "velocity": 0.7480314960629921,
          "duration": 0.20689649999999915
        },
        {
          "name": "B1",
          "midi": 35,
          "time": 91.03445999999971,
          "velocity": 0.7480314960629921,
          "duration": 0.20689649999999915
        },
        {
          "name": "B1",
          "midi": 35,
          "time": 91.24135649999971,
          "velocity": 0.7480314960629921,
          "duration": 0.20689649999999915
        },
        {
          "name": "A3",
          "midi": 57,
          "time": 91.44825299999971,
          "velocity": 0.7480314960629921,
          "duration": 0.20689649999999915
        },
        {
          "name": "E2",
          "midi": 40,
          "time": 91.44825299999971,
          "velocity": 0.7480314960629921,
          "duration": 0.20689649999999915
        },
        {
          "name": "B1",
          "midi": 35,
          "time": 91.65514949999971,
          "velocity": 0.7480314960629921,
          "duration": 0.20689649999999915
        },
        {
          "name": "A3",
          "midi": 57,
          "time": 91.86204599999971,
          "velocity": 0.7480314960629921,
          "duration": 0.20689649999999915
        },
        {
          "name": "B1",
          "midi": 35,
          "time": 91.86204599999971,
          "velocity": 0.7480314960629921,
          "duration": 0.20689649999999915
        },
        {
          "name": "B1",
          "midi": 35,
          "time": 92.06894249999971,
          "velocity": 0.7480314960629921,
          "duration": 0.20689649999999915
        },
        {
          "name": "A3",
          "midi": 57,
          "time": 92.2758389999997,
          "velocity": 0.7480314960629921,
          "duration": 0.20689649999999915
        },
        {
          "name": "E2",
          "midi": 40,
          "time": 92.2758389999997,
          "velocity": 0.7480314960629921,
          "duration": 0.20689649999999915
        },
        {
          "name": "B1",
          "midi": 35,
          "time": 92.4827354999997,
          "velocity": 0.7480314960629921,
          "duration": 0.20689649999999915
        },
        {
          "name": "A3",
          "midi": 57,
          "time": 92.6896319999997,
          "velocity": 0.7480314960629921,
          "duration": 0.20689649999999915
        },
        {
          "name": "B1",
          "midi": 35,
          "time": 92.6896319999997,
          "velocity": 0.7480314960629921,
          "duration": 0.20689649999999915
        },
        {
          "name": "B1",
          "midi": 35,
          "time": 92.8965284999997,
          "velocity": 0.7480314960629921,
          "duration": 0.20689649999999915
        },
        {
          "name": "A3",
          "midi": 57,
          "time": 93.1034249999997,
          "velocity": 0.7480314960629921,
          "duration": 0.20689649999999915
        },
        {
          "name": "E2",
          "midi": 40,
          "time": 93.1034249999997,
          "velocity": 0.7480314960629921,
          "duration": 0.20689649999999915
        },
        {
          "name": "B1",
          "midi": 35,
          "time": 93.3103214999997,
          "velocity": 0.7480314960629921,
          "duration": 0.20689649999999915
        },
        {
          "name": "A3",
          "midi": 57,
          "time": 93.5172179999997,
          "velocity": 0.7480314960629921,
          "duration": 0.20689649999999915
        },
        {
          "name": "B1",
          "midi": 35,
          "time": 93.5172179999997,
          "velocity": 0.7480314960629921,
          "duration": 0.20689649999999915
        },
        {
          "name": "B1",
          "midi": 35,
          "time": 93.7241144999997,
          "velocity": 0.7480314960629921,
          "duration": 0.20689649999999915
        },
        {
          "name": "A3",
          "midi": 57,
          "time": 93.9310109999997,
          "velocity": 0.7480314960629921,
          "duration": 0.20689649999999915
        },
        {
          "name": "E2",
          "midi": 40,
          "time": 93.9310109999997,
          "velocity": 0.7480314960629921,
          "duration": 0.20689649999999915
        },
        {
          "name": "B1",
          "midi": 35,
          "time": 94.1379074999997,
          "velocity": 0.7480314960629921,
          "duration": 0.20689649999999915
        },
        {
          "name": "A3",
          "midi": 57,
          "time": 94.3448039999997,
          "velocity": 0.7480314960629921,
          "duration": 0.20689649999999915
        },
        {
          "name": "B1",
          "midi": 35,
          "time": 94.3448039999997,
          "velocity": 0.7480314960629921,
          "duration": 0.20689649999999915
        },
        {
          "name": "B1",
          "midi": 35,
          "time": 94.5517004999997,
          "velocity": 0.7480314960629921,
          "duration": 0.20689649999999915
        },
        {
          "name": "A3",
          "midi": 57,
          "time": 94.7585969999997,
          "velocity": 0.7480314960629921,
          "duration": 0.20689649999999915
        },
        {
          "name": "E2",
          "midi": 40,
          "time": 94.7585969999997,
          "velocity": 0.7480314960629921,
          "duration": 0.20689649999999915
        },
        {
          "name": "B1",
          "midi": 35,
          "time": 94.9654934999997,
          "velocity": 0.7480314960629921,
          "duration": 0.20689649999999915
        },
        {
          "name": "A3",
          "midi": 57,
          "time": 95.1723899999997,
          "velocity": 0.7480314960629921,
          "duration": 0.20689649999999915
        },
        {
          "name": "B1",
          "midi": 35,
          "time": 95.1723899999997,
          "velocity": 0.7480314960629921,
          "duration": 0.20689649999999915
        },
        {
          "name": "B1",
          "midi": 35,
          "time": 95.3792864999997,
          "velocity": 0.7480314960629921,
          "duration": 0.20689649999999915
        },
        {
          "name": "A#2",
          "midi": 46,
          "time": 95.58618299999969,
          "velocity": 0.7480314960629921,
          "duration": 0.4137929999999983
        },
        {
          "name": "E2",
          "midi": 40,
          "time": 95.58618299999969,
          "velocity": 0.7480314960629921,
          "duration": 0.4137929999999983
        },
        {
          "name": "G3",
          "midi": 55,
          "time": 95.99997599999969,
          "velocity": 0.7480314960629921,
          "duration": 0.20689649999999915
        },
        {
          "name": "C#3",
          "midi": 49,
          "time": 95.99997599999969,
          "velocity": 0.7480314960629921,
          "duration": 0.20689649999999915
        },
        {
          "name": "B1",
          "midi": 35,
          "time": 95.99997599999969,
          "velocity": 0.7480314960629921,
          "duration": 0.20689649999999915
        },
        {
          "name": "B1",
          "midi": 35,
          "time": 96.20687249999969,
          "velocity": 0.7480314960629921,
          "duration": 0.20689649999999915
        },
        {
          "name": "A#2",
          "midi": 46,
          "time": 96.41376899999969,
          "velocity": 0.7480314960629921,
          "duration": 0.20689649999999915
        },
        {
          "name": "E2",
          "midi": 40,
          "time": 96.41376899999969,
          "velocity": 0.7480314960629921,
          "duration": 0.20689649999999915
        },
        {
          "name": "B1",
          "midi": 35,
          "time": 96.62066549999969,
          "velocity": 0.7480314960629921,
          "duration": 0.20689649999999915
        },
        {
          "name": "A#2",
          "midi": 46,
          "time": 96.82756199999969,
          "velocity": 0.7480314960629921,
          "duration": 0.4137929999999983
        },
        {
          "name": "B1",
          "midi": 35,
          "time": 96.82756199999969,
          "velocity": 0.7480314960629921,
          "duration": 0.4137929999999983
        },
        {
          "name": "A#2",
          "midi": 46,
          "time": 97.24135499999969,
          "velocity": 0.7480314960629921,
          "duration": 0.20689649999999915
        },
        {
          "name": "E2",
          "midi": 40,
          "time": 97.24135499999969,
          "velocity": 0.7480314960629921,
          "duration": 0.20689649999999915
        },
        {
          "name": "B1",
          "midi": 35,
          "time": 97.44825149999969,
          "velocity": 0.7480314960629921,
          "duration": 0.4137929999999983
        },
        {
          "name": "A#2",
          "midi": 46,
          "time": 97.65514799999968,
          "velocity": 0.7480314960629921,
          "duration": 0.20689649999999915
        },
        {
          "name": "B1",
          "midi": 35,
          "time": 97.86204449999968,
          "velocity": 0.7480314960629921,
          "duration": 0.20689649999999915
        },
        {
          "name": "A#2",
          "midi": 46,
          "time": 98.06894099999968,
          "velocity": 0.7480314960629921,
          "duration": 0.4137929999999983
        },
        {
          "name": "E2",
          "midi": 40,
          "time": 98.06894099999968,
          "velocity": 0.7480314960629921,
          "duration": 0.4137929999999983
        },
        {
          "name": "A#2",
          "midi": 46,
          "time": 98.48273399999968,
          "velocity": 0.7480314960629921,
          "duration": 0.20689649999999915
        },
        {
          "name": "B1",
          "midi": 35,
          "time": 98.48273399999968,
          "velocity": 0.7480314960629921,
          "duration": 0.20689649999999915
        },
        {
          "name": "A2",
          "midi": 45,
          "time": 98.68963049999968,
          "velocity": 0.7480314960629921,
          "duration": 0.07758618750000323
        },
        {
          "name": "G2",
          "midi": 43,
          "time": 98.76721668749968,
          "velocity": 0.7480314960629921,
          "duration": 0.07758618750000323
        },
        {
          "name": "F2",
          "midi": 41,
          "time": 98.84480287499969,
          "velocity": 0.7480314960629921,
          "duration": 0.4655171250000052
        },
        {
          "name": "C#3",
          "midi": 49,
          "time": 99.31031999999969,
          "velocity": 0.7480314960629921,
          "duration": 0.20689649999999915
        },
        {
          "name": "B1",
          "midi": 35,
          "time": 99.31031999999969,
          "velocity": 0.7480314960629921,
          "duration": 0.20689649999999915
        },
        {
          "name": "B1",
          "midi": 35,
          "time": 99.51721649999969,
          "velocity": 0.7480314960629921,
          "duration": 0.20689649999999915
        },
        {
          "name": "A#2",
          "midi": 46,
          "time": 99.72411299999969,
          "velocity": 0.7480314960629921,
          "duration": 0.20689649999999915
        },
        {
          "name": "E2",
          "midi": 40,
          "time": 99.72411299999969,
          "velocity": 0.7480314960629921,
          "duration": 0.20689649999999915
        },
        {
          "name": "B1",
          "midi": 35,
          "time": 99.93100949999969,
          "velocity": 0.7480314960629921,
          "duration": 0.20689649999999915
        },
        {
          "name": "A#2",
          "midi": 46,
          "time": 100.13790599999969,
          "velocity": 0.7480314960629921,
          "duration": 0.4137929999999983
        },
        {
          "name": "B1",
          "midi": 35,
          "time": 100.13790599999969,
          "velocity": 0.7480314960629921,
          "duration": 0.4137929999999983
        },
        {
          "name": "A#2",
          "midi": 46,
          "time": 100.55169899999969,
          "velocity": 0.7480314960629921,
          "duration": 0.20689649999999915
        },
        {
          "name": "E2",
          "midi": 40,
          "time": 100.55169899999969,
          "velocity": 0.7480314960629921,
          "duration": 0.20689649999999915
        },
        {
          "name": "B1",
          "midi": 35,
          "time": 100.75859549999969,
          "velocity": 0.7480314960629921,
          "duration": 0.4137929999999983
        },
        {
          "name": "A#2",
          "midi": 46,
          "time": 100.96549199999968,
          "velocity": 0.7480314960629921,
          "duration": 0.20689649999999915
        },
        {
          "name": "B1",
          "midi": 35,
          "time": 101.17238849999968,
          "velocity": 0.7480314960629921,
          "duration": 0.20689649999999915
        },
        {
          "name": "A#2",
          "midi": 46,
          "time": 101.37928499999968,
          "velocity": 0.7480314960629921,
          "duration": 0.4137929999999983
        },
        {
          "name": "E2",
          "midi": 40,
          "time": 101.37928499999968,
          "velocity": 0.7480314960629921,
          "duration": 0.4137929999999983
        },
        {
          "name": "A#2",
          "midi": 46,
          "time": 101.79307799999968,
          "velocity": 0.7480314960629921,
          "duration": 0.20689649999999915
        },
        {
          "name": "B1",
          "midi": 35,
          "time": 101.79307799999968,
          "velocity": 0.7480314960629921,
          "duration": 0.20689649999999915
        },
        {
          "name": "E2",
          "midi": 40,
          "time": 101.99997449999968,
          "velocity": 0.7480314960629921,
          "duration": 0.10344824999999958
        },
        {
          "name": "E2",
          "midi": 40,
          "time": 102.10342274999968,
          "velocity": 0.7480314960629921,
          "duration": 0.10344824999999958
        },
        {
          "name": "E2",
          "midi": 40,
          "time": 102.20687099999968,
          "velocity": 0.7480314960629921,
          "duration": 0.10344824999999958
        },
        {
          "name": "E2",
          "midi": 40,
          "time": 102.31031924999968,
          "velocity": 0.7480314960629921,
          "duration": 0.10344824999999958
        },
        {
          "name": "E2",
          "midi": 40,
          "time": 102.41376749999968,
          "velocity": 0.7480314960629921,
          "duration": 0.10344824999999958
        },
        {
          "name": "E2",
          "midi": 40,
          "time": 102.51721574999968,
          "velocity": 0.7480314960629921,
          "duration": 0.10344824999999958
        },
        {
          "name": "C#3",
          "midi": 49,
          "time": 102.62066399999968,
          "velocity": 0.7480314960629921,
          "duration": 0.20689649999999915
        },
        {
          "name": "B1",
          "midi": 35,
          "time": 102.62066399999968,
          "velocity": 0.7480314960629921,
          "duration": 0.20689649999999915
        },
        {
          "name": "B1",
          "midi": 35,
          "time": 102.82756049999968,
          "velocity": 0.7480314960629921,
          "duration": 0.20689649999999915
        },
        {
          "name": "A#2",
          "midi": 46,
          "time": 103.03445699999968,
          "velocity": 0.7480314960629921,
          "duration": 0.20689649999999915
        },
        {
          "name": "E2",
          "midi": 40,
          "time": 103.03445699999968,
          "velocity": 0.7480314960629921,
          "duration": 0.20689649999999915
        },
        {
          "name": "B1",
          "midi": 35,
          "time": 103.24135349999968,
          "velocity": 0.7480314960629921,
          "duration": 0.20689649999999915
        },
        {
          "name": "A#2",
          "midi": 46,
          "time": 103.44824999999967,
          "velocity": 0.7480314960629921,
          "duration": 0.20689649999999915
        },
        {
          "name": "B1",
          "midi": 35,
          "time": 103.44824999999967,
          "velocity": 0.7480314960629921,
          "duration": 0.20689649999999915
        },
        {
          "name": "B1",
          "midi": 35,
          "time": 103.65514649999967,
          "velocity": 0.7480314960629921,
          "duration": 0.20689649999999915
        },
        {
          "name": "A#2",
          "midi": 46,
          "time": 103.86204299999967,
          "velocity": 0.7480314960629921,
          "duration": 0.20689649999999915
        },
        {
          "name": "E2",
          "midi": 40,
          "time": 103.86204299999967,
          "velocity": 0.7480314960629921,
          "duration": 0.20689649999999915
        },
        {
          "name": "B1",
          "midi": 35,
          "time": 104.06893949999967,
          "velocity": 0.7480314960629921,
          "duration": 0.20689649999999915
        },
        {
          "name": "A#2",
          "midi": 46,
          "time": 104.27583599999967,
          "velocity": 0.7480314960629921,
          "duration": 0.20689649999999915
        },
        {
          "name": "B1",
          "midi": 35,
          "time": 104.27583599999967,
          "velocity": 0.7480314960629921,
          "duration": 0.20689649999999915
        },
        {
          "name": "B1",
          "midi": 35,
          "time": 104.48273249999967,
          "velocity": 0.7480314960629921,
          "duration": 0.20689649999999915
        },
        {
          "name": "A#2",
          "midi": 46,
          "time": 104.68962899999967,
          "velocity": 0.7480314960629921,
          "duration": 0.20689649999999915
        },
        {
          "name": "E2",
          "midi": 40,
          "time": 104.68962899999967,
          "velocity": 0.7480314960629921,
          "duration": 0.20689649999999915
        },
        {
          "name": "B1",
          "midi": 35,
          "time": 104.89652549999967,
          "velocity": 0.7480314960629921,
          "duration": 0.20689649999999915
        },
        {
          "name": "A#2",
          "midi": 46,
          "time": 105.10342199999967,
          "velocity": 0.7480314960629921,
          "duration": 0.20689649999999915
        },
        {
          "name": "B1",
          "midi": 35,
          "time": 105.10342199999967,
          "velocity": 0.7480314960629921,
          "duration": 0.20689649999999915
        },
        {
          "name": "B1",
          "midi": 35,
          "time": 105.31031849999967,
          "velocity": 0.7480314960629921,
          "duration": 0.20689649999999915
        },
        {
          "name": "A#2",
          "midi": 46,
          "time": 105.51721499999967,
          "velocity": 0.7480314960629921,
          "duration": 0.20689649999999915
        },
        {
          "name": "E2",
          "midi": 40,
          "time": 105.51721499999967,
          "velocity": 0.7480314960629921,
          "duration": 0.20689649999999915
        },
        {
          "name": "B1",
          "midi": 35,
          "time": 105.72411149999967,
          "velocity": 0.7480314960629921,
          "duration": 0.20689649999999915
        },
        {
          "name": "C#3",
          "midi": 49,
          "time": 105.93100799999966,
          "velocity": 0.7480314960629921,
          "duration": 0.20689649999999915
        },
        {
          "name": "B1",
          "midi": 35,
          "time": 105.93100799999966,
          "velocity": 0.7480314960629921,
          "duration": 0.20689649999999915
        },
        {
          "name": "B1",
          "midi": 35,
          "time": 106.13790449999966,
          "velocity": 0.7480314960629921,
          "duration": 0.20689649999999915
        },
        {
          "name": "A#2",
          "midi": 46,
          "time": 106.34480099999966,
          "velocity": 0.7480314960629921,
          "duration": 0.20689649999999915
        },
        {
          "name": "E2",
          "midi": 40,
          "time": 106.34480099999966,
          "velocity": 0.7480314960629921,
          "duration": 0.20689649999999915
        },
        {
          "name": "B1",
          "midi": 35,
          "time": 106.55169749999966,
          "velocity": 0.7480314960629921,
          "duration": 0.20689649999999915
        },
        {
          "name": "A#2",
          "midi": 46,
          "time": 106.75859399999966,
          "velocity": 0.7480314960629921,
          "duration": 0.20689649999999915
        },
        {
          "name": "B1",
          "midi": 35,
          "time": 106.75859399999966,
          "velocity": 0.7480314960629921,
          "duration": 0.20689649999999915
        },
        {
          "name": "B1",
          "midi": 35,
          "time": 106.96549049999966,
          "velocity": 0.7480314960629921,
          "duration": 0.20689649999999915
        },
        {
          "name": "A#2",
          "midi": 46,
          "time": 107.17238699999966,
          "velocity": 0.7480314960629921,
          "duration": 0.20689649999999915
        },
        {
          "name": "E2",
          "midi": 40,
          "time": 107.17238699999966,
          "velocity": 0.7480314960629921,
          "duration": 0.20689649999999915
        },
        {
          "name": "B1",
          "midi": 35,
          "time": 107.37928349999966,
          "velocity": 0.7480314960629921,
          "duration": 0.20689649999999915
        },
        {
          "name": "A#2",
          "midi": 46,
          "time": 107.58617999999966,
          "velocity": 0.7480314960629921,
          "duration": 0.20689649999999915
        },
        {
          "name": "B1",
          "midi": 35,
          "time": 107.58617999999966,
          "velocity": 0.7480314960629921,
          "duration": 0.20689649999999915
        },
        {
          "name": "B1",
          "midi": 35,
          "time": 107.79307649999966,
          "velocity": 0.7480314960629921,
          "duration": 0.20689649999999915
        },
        {
          "name": "A#2",
          "midi": 46,
          "time": 107.99997299999966,
          "velocity": 0.7480314960629921,
          "duration": 0.20689649999999915
        },
        {
          "name": "E2",
          "midi": 40,
          "time": 107.99997299999966,
          "velocity": 0.7480314960629921,
          "duration": 0.20689649999999915
        },
        {
          "name": "B1",
          "midi": 35,
          "time": 108.20686949999966,
          "velocity": 0.7480314960629921,
          "duration": 0.20689649999999915
        },
        {
          "name": "A#2",
          "midi": 46,
          "time": 108.41376599999965,
          "velocity": 0.7480314960629921,
          "duration": 0.20689649999999915
        },
        {
          "name": "B1",
          "midi": 35,
          "time": 108.41376599999965,
          "velocity": 0.7480314960629921,
          "duration": 0.20689649999999915
        },
        {
          "name": "B1",
          "midi": 35,
          "time": 108.62066249999965,
          "velocity": 0.7480314960629921,
          "duration": 0.20689649999999915
        },
        {
          "name": "A#2",
          "midi": 46,
          "time": 108.82755899999965,
          "velocity": 0.7480314960629921,
          "duration": 0.20689649999999915
        },
        {
          "name": "E2",
          "midi": 40,
          "time": 108.82755899999965,
          "velocity": 0.7480314960629921,
          "duration": 0.20689649999999915
        },
        {
          "name": "B1",
          "midi": 35,
          "time": 109.03445549999965,
          "velocity": 0.7480314960629921,
          "duration": 0.20689649999999915
        },
        {
          "name": "C#3",
          "midi": 49,
          "time": 109.24135199999965,
          "velocity": 0.7480314960629921,
          "duration": 0.20689649999999915
        },
        {
          "name": "B1",
          "midi": 35,
          "time": 109.24135199999965,
          "velocity": 0.7480314960629921,
          "duration": 0.20689649999999915
        },
        {
          "name": "B1",
          "midi": 35,
          "time": 109.44824849999965,
          "velocity": 0.7480314960629921,
          "duration": 0.20689649999999915
        },
        {
          "name": "A#2",
          "midi": 46,
          "time": 109.65514499999965,
          "velocity": 0.7480314960629921,
          "duration": 0.20689649999999915
        },
        {
          "name": "E2",
          "midi": 40,
          "time": 109.65514499999965,
          "velocity": 0.7480314960629921,
          "duration": 0.20689649999999915
        },
        {
          "name": "B1",
          "midi": 35,
          "time": 109.86204149999965,
          "velocity": 0.7480314960629921,
          "duration": 0.20689649999999915
        },
        {
          "name": "A#2",
          "midi": 46,
          "time": 110.06893799999965,
          "velocity": 0.7480314960629921,
          "duration": 0.20689649999999915
        },
        {
          "name": "B1",
          "midi": 35,
          "time": 110.06893799999965,
          "velocity": 0.7480314960629921,
          "duration": 0.20689649999999915
        },
        {
          "name": "B1",
          "midi": 35,
          "time": 110.27583449999965,
          "velocity": 0.7480314960629921,
          "duration": 0.20689649999999915
        },
        {
          "name": "A#2",
          "midi": 46,
          "time": 110.48273099999965,
          "velocity": 0.7480314960629921,
          "duration": 0.20689649999999915
        },
        {
          "name": "E2",
          "midi": 40,
          "time": 110.48273099999965,
          "velocity": 0.7480314960629921,
          "duration": 0.20689649999999915
        },
        {
          "name": "B1",
          "midi": 35,
          "time": 110.68962749999965,
          "velocity": 0.7480314960629921,
          "duration": 0.20689649999999915
        },
        {
          "name": "C#3",
          "midi": 49,
          "time": 110.89652399999964,
          "velocity": 0.7480314960629921,
          "duration": 0.20689649999999915
        },
        {
          "name": "B1",
          "midi": 35,
          "time": 110.89652399999964,
          "velocity": 0.7480314960629921,
          "duration": 0.20689649999999915
        },
        {
          "name": "B1",
          "midi": 35,
          "time": 111.10342049999964,
          "velocity": 0.7480314960629921,
          "duration": 0.20689649999999915
        },
        {
          "name": "A#2",
          "midi": 46,
          "time": 111.31031699999964,
          "velocity": 0.7480314960629921,
          "duration": 0.20689649999999915
        },
        {
          "name": "E2",
          "midi": 40,
          "time": 111.31031699999964,
          "velocity": 0.7480314960629921,
          "duration": 0.20689649999999915
        },
        {
          "name": "B1",
          "midi": 35,
          "time": 111.51721349999964,
          "velocity": 0.7480314960629921,
          "duration": 0.20689649999999915
        },
        {
          "name": "A#2",
          "midi": 46,
          "time": 111.72410999999964,
          "velocity": 0.7480314960629921,
          "duration": 0.20689649999999915
        },
        {
          "name": "B1",
          "midi": 35,
          "time": 111.72410999999964,
          "velocity": 0.7480314960629921,
          "duration": 0.20689649999999915
        },
        {
          "name": "B1",
          "midi": 35,
          "time": 111.93100649999964,
          "velocity": 0.7480314960629921,
          "duration": 0.20689649999999915
        },
        {
          "name": "A#2",
          "midi": 46,
          "time": 112.13790299999964,
          "velocity": 0.7480314960629921,
          "duration": 0.4137929999999983
        },
        {
          "name": "E2",
          "midi": 40,
          "time": 112.13790299999964,
          "velocity": 0.7480314960629921,
          "duration": 0.4137929999999983
        },
        {
          "name": "C#3",
          "midi": 49,
          "time": 112.55169599999964,
          "velocity": 0.7480314960629921,
          "duration": 0.20689649999999915
        },
        {
          "name": "B1",
          "midi": 35,
          "time": 112.55169599999964,
          "velocity": 0.7480314960629921,
          "duration": 0.20689649999999915
        },
        {
          "name": "B1",
          "midi": 35,
          "time": 112.75859249999964,
          "velocity": 0.7480314960629921,
          "duration": 0.20689649999999915
        },
        {
          "name": "A#2",
          "midi": 46,
          "time": 112.96548899999964,
          "velocity": 0.7480314960629921,
          "duration": 0.20689649999999915
        },
        {
          "name": "E2",
          "midi": 40,
          "time": 112.96548899999964,
          "velocity": 0.7480314960629921,
          "duration": 0.20689649999999915
        },
        {
          "name": "B1",
          "midi": 35,
          "time": 113.17238549999963,
          "velocity": 0.7480314960629921,
          "duration": 0.20689649999999915
        },
        {
          "name": "A#2",
          "midi": 46,
          "time": 113.37928199999963,
          "velocity": 0.7480314960629921,
          "duration": 0.4137929999999983
        },
        {
          "name": "B1",
          "midi": 35,
          "time": 113.37928199999963,
          "velocity": 0.7480314960629921,
          "duration": 0.4137929999999983
        },
        {
          "name": "A#2",
          "midi": 46,
          "time": 113.79307499999963,
          "velocity": 0.7480314960629921,
          "duration": 0.20689649999999915
        },
        {
          "name": "E2",
          "midi": 40,
          "time": 113.79307499999963,
          "velocity": 0.7480314960629921,
          "duration": 0.20689649999999915
        },
        {
          "name": "B1",
          "midi": 35,
          "time": 113.99997149999963,
          "velocity": 0.7480314960629921,
          "duration": 0.4137929999999983
        },
        {
          "name": "A#2",
          "midi": 46,
          "time": 114.20686799999963,
          "velocity": 0.7480314960629921,
          "duration": 0.20689649999999915
        },
        {
          "name": "B1",
          "midi": 35,
          "time": 114.41376449999963,
          "velocity": 0.7480314960629921,
          "duration": 0.20689649999999915
        },
        {
          "name": "A#2",
          "midi": 46,
          "time": 114.62066099999963,
          "velocity": 0.7480314960629921,
          "duration": 0.4137929999999983
        },
        {
          "name": "E2",
          "midi": 40,
          "time": 114.62066099999963,
          "velocity": 0.7480314960629921,
          "duration": 0.4137929999999983
        },
        {
          "name": "A#2",
          "midi": 46,
          "time": 115.03445399999963,
          "velocity": 0.7480314960629921,
          "duration": 0.20689649999999915
        },
        {
          "name": "B1",
          "midi": 35,
          "time": 115.03445399999963,
          "velocity": 0.7480314960629921,
          "duration": 0.20689649999999915
        },
        {
          "name": "E2",
          "midi": 40,
          "time": 115.24135049999963,
          "velocity": 0.7480314960629921,
          "duration": 0.10344824999999958
        },
        {
          "name": "E2",
          "midi": 40,
          "time": 115.34479874999963,
          "velocity": 0.7480314960629921,
          "duration": 0.10344824999999958
        },
        {
          "name": "E2",
          "midi": 40,
          "time": 115.44824699999963,
          "velocity": 0.7480314960629921,
          "duration": 0.10344824999999958
        },
        {
          "name": "E2",
          "midi": 40,
          "time": 115.55169524999963,
          "velocity": 0.7480314960629921,
          "duration": 0.10344824999999958
        },
        {
          "name": "E2",
          "midi": 40,
          "time": 115.65514349999962,
          "velocity": 0.7480314960629921,
          "duration": 0.10344824999999958
        },
        {
          "name": "E2",
          "midi": 40,
          "time": 115.75859174999962,
          "velocity": 0.7480314960629921,
          "duration": 0.10344824999999958
        },
        {
          "name": "C#3",
          "midi": 49,
          "time": 115.86203999999962,
          "velocity": 0.7480314960629921,
          "duration": 0.20689649999999915
        },
        {
          "name": "B1",
          "midi": 35,
          "time": 115.86203999999962,
          "velocity": 0.7480314960629921,
          "duration": 0.20689649999999915
        },
        {
          "name": "B1",
          "midi": 35,
          "time": 116.06893649999962,
          "velocity": 0.7480314960629921,
          "duration": 0.20689649999999915
        },
        {
          "name": "A#2",
          "midi": 46,
          "time": 116.27583299999962,
          "velocity": 0.7480314960629921,
          "duration": 0.20689649999999915
        },
        {
          "name": "E2",
          "midi": 40,
          "time": 116.27583299999962,
          "velocity": 0.7480314960629921,
          "duration": 0.20689649999999915
        },
        {
          "name": "B1",
          "midi": 35,
          "time": 116.48272949999962,
          "velocity": 0.7480314960629921,
          "duration": 0.20689649999999915
        },
        {
          "name": "A#2",
          "midi": 46,
          "time": 116.68962599999962,
          "velocity": 0.7480314960629921,
          "duration": 0.20689649999999915
        },
        {
          "name": "B1",
          "midi": 35,
          "time": 116.68962599999962,
          "velocity": 0.7480314960629921,
          "duration": 0.20689649999999915
        },
        {
          "name": "B1",
          "midi": 35,
          "time": 116.89652249999962,
          "velocity": 0.7480314960629921,
          "duration": 0.20689649999999915
        },
        {
          "name": "A#2",
          "midi": 46,
          "time": 117.10341899999962,
          "velocity": 0.7480314960629921,
          "duration": 0.20689649999999915
        },
        {
          "name": "E2",
          "midi": 40,
          "time": 117.10341899999962,
          "velocity": 0.7480314960629921,
          "duration": 0.20689649999999915
        },
        {
          "name": "B1",
          "midi": 35,
          "time": 117.31031549999962,
          "velocity": 0.7480314960629921,
          "duration": 0.20689649999999915
        },
        {
          "name": "A#2",
          "midi": 46,
          "time": 117.51721199999962,
          "velocity": 0.7480314960629921,
          "duration": 0.20689649999999915
        },
        {
          "name": "B1",
          "midi": 35,
          "time": 117.51721199999962,
          "velocity": 0.7480314960629921,
          "duration": 0.20689649999999915
        },
        {
          "name": "B1",
          "midi": 35,
          "time": 117.72410849999962,
          "velocity": 0.7480314960629921,
          "duration": 0.20689649999999915
        },
        {
          "name": "A#2",
          "midi": 46,
          "time": 117.93100499999962,
          "velocity": 0.7480314960629921,
          "duration": 0.20689649999999915
        },
        {
          "name": "E2",
          "midi": 40,
          "time": 117.93100499999962,
          "velocity": 0.7480314960629921,
          "duration": 0.20689649999999915
        },
        {
          "name": "B1",
          "midi": 35,
          "time": 118.13790149999961,
          "velocity": 0.7480314960629921,
          "duration": 0.20689649999999915
        },
        {
          "name": "A#2",
          "midi": 46,
          "time": 118.34479799999961,
          "velocity": 0.7480314960629921,
          "duration": 0.20689649999999915
        },
        {
          "name": "B1",
          "midi": 35,
          "time": 118.34479799999961,
          "velocity": 0.7480314960629921,
          "duration": 0.20689649999999915
        },
        {
          "name": "B1",
          "midi": 35,
          "time": 118.55169449999961,
          "velocity": 0.7480314960629921,
          "duration": 0.20689649999999915
        },
        {
          "name": "A#2",
          "midi": 46,
          "time": 118.75859099999961,
          "velocity": 0.7480314960629921,
          "duration": 0.20689649999999915
        },
        {
          "name": "E2",
          "midi": 40,
          "time": 118.75859099999961,
          "velocity": 0.7480314960629921,
          "duration": 0.20689649999999915
        },
        {
          "name": "B1",
          "midi": 35,
          "time": 118.96548749999961,
          "velocity": 0.7480314960629921,
          "duration": 0.20689649999999915
        },
        {
          "name": "C#3",
          "midi": 49,
          "time": 119.17238399999961,
          "velocity": 0.7480314960629921,
          "duration": 0.20689649999999915
        },
        {
          "name": "B1",
          "midi": 35,
          "time": 119.17238399999961,
          "velocity": 0.7480314960629921,
          "duration": 0.20689649999999915
        },
        {
          "name": "B1",
          "midi": 35,
          "time": 119.37928049999961,
          "velocity": 0.7480314960629921,
          "duration": 0.20689649999999915
        },
        {
          "name": "A#2",
          "midi": 46,
          "time": 119.58617699999961,
          "velocity": 0.7480314960629921,
          "duration": 0.20689649999999915
        },
        {
          "name": "E2",
          "midi": 40,
          "time": 119.58617699999961,
          "velocity": 0.7480314960629921,
          "duration": 0.20689649999999915
        },
        {
          "name": "B1",
          "midi": 35,
          "time": 119.79307349999961,
          "velocity": 0.7480314960629921,
          "duration": 0.20689649999999915
        },
        {
          "name": "A#2",
          "midi": 46,
          "time": 119.9999699999996,
          "velocity": 0.7480314960629921,
          "duration": 0.20689649999999915
        },
        {
          "name": "B1",
          "midi": 35,
          "time": 119.9999699999996,
          "velocity": 0.7480314960629921,
          "duration": 0.20689649999999915
        },
        {
          "name": "B1",
          "midi": 35,
          "time": 120.2068664999996,
          "velocity": 0.7480314960629921,
          "duration": 0.20689649999999915
        },
        {
          "name": "A#2",
          "midi": 46,
          "time": 120.4137629999996,
          "velocity": 0.7480314960629921,
          "duration": 0.20689649999999915
        },
        {
          "name": "E2",
          "midi": 40,
          "time": 120.4137629999996,
          "velocity": 0.7480314960629921,
          "duration": 0.20689649999999915
        },
        {
          "name": "B1",
          "midi": 35,
          "time": 120.6206594999996,
          "velocity": 0.7480314960629921,
          "duration": 0.20689649999999915
        },
        {
          "name": "A#2",
          "midi": 46,
          "time": 120.8275559999996,
          "velocity": 0.7480314960629921,
          "duration": 0.20689649999999915
        },
        {
          "name": "B1",
          "midi": 35,
          "time": 120.8275559999996,
          "velocity": 0.7480314960629921,
          "duration": 0.20689649999999915
        },
        {
          "name": "B1",
          "midi": 35,
          "time": 121.0344524999996,
          "velocity": 0.7480314960629921,
          "duration": 0.20689649999999915
        },
        {
          "name": "A#2",
          "midi": 46,
          "time": 121.2413489999996,
          "velocity": 0.7480314960629921,
          "duration": 0.20689649999999915
        },
        {
          "name": "E2",
          "midi": 40,
          "time": 121.2413489999996,
          "velocity": 0.7480314960629921,
          "duration": 0.20689649999999915
        },
        {
          "name": "B1",
          "midi": 35,
          "time": 121.4482454999996,
          "velocity": 0.7480314960629921,
          "duration": 0.20689649999999915
        },
        {
          "name": "A#2",
          "midi": 46,
          "time": 121.6551419999996,
          "velocity": 0.7480314960629921,
          "duration": 0.20689649999999915
        },
        {
          "name": "B1",
          "midi": 35,
          "time": 121.6551419999996,
          "velocity": 0.7480314960629921,
          "duration": 0.20689649999999915
        },
        {
          "name": "B1",
          "midi": 35,
          "time": 121.8620384999996,
          "velocity": 0.7480314960629921,
          "duration": 0.20689649999999915
        },
        {
          "name": "A#2",
          "midi": 46,
          "time": 122.0689349999996,
          "velocity": 0.7480314960629921,
          "duration": 0.20689649999999915
        },
        {
          "name": "E2",
          "midi": 40,
          "time": 122.0689349999996,
          "velocity": 0.7480314960629921,
          "duration": 0.20689649999999915
        },
        {
          "name": "B1",
          "midi": 35,
          "time": 122.2758314999996,
          "velocity": 0.7480314960629921,
          "duration": 0.20689649999999915
        },
        {
          "name": "C#3",
          "midi": 49,
          "time": 122.4827279999996,
          "velocity": 0.7480314960629921,
          "duration": 0.20689649999999915
        },
        {
          "name": "B1",
          "midi": 35,
          "time": 122.4827279999996,
          "velocity": 0.7480314960629921,
          "duration": 0.20689649999999915
        },
        {
          "name": "B1",
          "midi": 35,
          "time": 122.6896244999996,
          "velocity": 0.7480314960629921,
          "duration": 0.20689649999999915
        },
        {
          "name": "A#2",
          "midi": 46,
          "time": 122.8965209999996,
          "velocity": 0.7480314960629921,
          "duration": 0.20689649999999915
        },
        {
          "name": "E2",
          "midi": 40,
          "time": 122.8965209999996,
          "velocity": 0.7480314960629921,
          "duration": 0.20689649999999915
        },
        {
          "name": "B1",
          "midi": 35,
          "time": 123.1034174999996,
          "velocity": 0.7480314960629921,
          "duration": 0.20689649999999915
        },
        {
          "name": "A#2",
          "midi": 46,
          "time": 123.3103139999996,
          "velocity": 0.7480314960629921,
          "duration": 0.20689649999999915
        },
        {
          "name": "B1",
          "midi": 35,
          "time": 123.3103139999996,
          "velocity": 0.7480314960629921,
          "duration": 0.20689649999999915
        },
        {
          "name": "B1",
          "midi": 35,
          "time": 123.51721049999959,
          "velocity": 0.7480314960629921,
          "duration": 0.20689649999999915
        },
        {
          "name": "A#2",
          "midi": 46,
          "time": 123.72410699999959,
          "velocity": 0.7480314960629921,
          "duration": 0.20689649999999915
        },
        {
          "name": "E2",
          "midi": 40,
          "time": 123.72410699999959,
          "velocity": 0.7480314960629921,
          "duration": 0.20689649999999915
        },
        {
          "name": "B1",
          "midi": 35,
          "time": 123.93100349999959,
          "velocity": 0.7480314960629921,
          "duration": 0.20689649999999915
        },
        {
          "name": "A3",
          "midi": 57,
          "time": 124.13789999999959,
          "velocity": 0.7480314960629921,
          "duration": 0.20689649999999915
        },
        {
          "name": "B1",
          "midi": 35,
          "time": 124.13789999999959,
          "velocity": 0.7480314960629921,
          "duration": 0.20689649999999915
        },
        {
          "name": "B1",
          "midi": 35,
          "time": 124.34479649999959,
          "velocity": 0.7480314960629921,
          "duration": 0.20689649999999915
        },
        {
          "name": "A#2",
          "midi": 46,
          "time": 124.55169299999959,
          "velocity": 0.7480314960629921,
          "duration": 0.20689649999999915
        },
        {
          "name": "E2",
          "midi": 40,
          "time": 124.55169299999959,
          "velocity": 0.7480314960629921,
          "duration": 0.20689649999999915
        },
        {
          "name": "B1",
          "midi": 35,
          "time": 124.75858949999959,
          "velocity": 0.7480314960629921,
          "duration": 0.20689649999999915
        },
        {
          "name": "A#2",
          "midi": 46,
          "time": 124.96548599999959,
          "velocity": 0.7480314960629921,
          "duration": 0.20689649999999915
        },
        {
          "name": "B1",
          "midi": 35,
          "time": 124.96548599999959,
          "velocity": 0.7480314960629921,
          "duration": 0.20689649999999915
        },
        {
          "name": "B1",
          "midi": 35,
          "time": 125.17238249999959,
          "velocity": 0.7480314960629921,
          "duration": 0.20689649999999915
        },
        {
          "name": "A#2",
          "midi": 46,
          "time": 125.37927899999958,
          "velocity": 0.7480314960629921,
          "duration": 0.4137929999999983
        },
        {
          "name": "E2",
          "midi": 40,
          "time": 125.37927899999958,
          "velocity": 0.7480314960629921,
          "duration": 0.4137929999999983
        },
        {
          "name": "C#3",
          "midi": 49,
          "time": 125.79307199999958,
          "velocity": 0.7480314960629921,
          "duration": 0.20689649999999915
        },
        {
          "name": "B1",
          "midi": 35,
          "time": 125.79307199999958,
          "velocity": 0.7480314960629921,
          "duration": 0.20689649999999915
        },
        {
          "name": "B1",
          "midi": 35,
          "time": 125.99996849999958,
          "velocity": 0.7480314960629921,
          "duration": 0.20689649999999915
        },
        {
          "name": "A#2",
          "midi": 46,
          "time": 126.20686499999958,
          "velocity": 0.7480314960629921,
          "duration": 0.20689649999999915
        },
        {
          "name": "E2",
          "midi": 40,
          "time": 126.20686499999958,
          "velocity": 0.7480314960629921,
          "duration": 0.20689649999999915
        },
        {
          "name": "B1",
          "midi": 35,
          "time": 126.41376149999958,
          "velocity": 0.7480314960629921,
          "duration": 0.20689649999999915
        },
        {
          "name": "A#2",
          "midi": 46,
          "time": 126.62065799999958,
          "velocity": 0.7480314960629921,
          "duration": 0.4137929999999983
        },
        {
          "name": "B1",
          "midi": 35,
          "time": 126.62065799999958,
          "velocity": 0.7480314960629921,
          "duration": 0.4137929999999983
        },
        {
          "name": "A#2",
          "midi": 46,
          "time": 127.03445099999958,
          "velocity": 0.7480314960629921,
          "duration": 0.20689649999999915
        },
        {
          "name": "E2",
          "midi": 40,
          "time": 127.03445099999958,
          "velocity": 0.7480314960629921,
          "duration": 0.20689649999999915
        },
        {
          "name": "B1",
          "midi": 35,
          "time": 127.24134749999958,
          "velocity": 0.7480314960629921,
          "duration": 0.4137929999999983
        },
        {
          "name": "A#2",
          "midi": 46,
          "time": 127.44824399999958,
          "velocity": 0.7480314960629921,
          "duration": 0.20689649999999915
        },
        {
          "name": "B1",
          "midi": 35,
          "time": 127.65514049999958,
          "velocity": 0.7480314960629921,
          "duration": 0.20689649999999915
        },
        {
          "name": "A#2",
          "midi": 46,
          "time": 127.86203699999957,
          "velocity": 0.7480314960629921,
          "duration": 0.4137930000000125
        },
        {
          "name": "E2",
          "midi": 40,
          "time": 127.86203699999957,
          "velocity": 0.7480314960629921,
          "duration": 0.4137930000000125
        },
        {
          "name": "A#2",
          "midi": 46,
          "time": 128.2758299999996,
          "velocity": 0.7480314960629921,
          "duration": 0.20689649999999915
        },
        {
          "name": "B1",
          "midi": 35,
          "time": 128.2758299999996,
          "velocity": 0.7480314960629921,
          "duration": 0.20689649999999915
        },
        {
          "name": "A2",
          "midi": 45,
          "time": 128.4827264999996,
          "velocity": 0.7480314960629921,
          "duration": 0.07758618750000323
        },
        {
          "name": "G2",
          "midi": 43,
          "time": 128.5603126874996,
          "velocity": 0.7480314960629921,
          "duration": 0.07758618750000323
        },
        {
          "name": "F2",
          "midi": 41,
          "time": 128.6378988749996,
          "velocity": 0.7480314960629921,
          "duration": 0.465517124999991
        },
        {
          "name": "C#3",
          "midi": 49,
          "time": 129.10341599999958,
          "velocity": 0.7480314960629921,
          "duration": 0.20689649999999915
        },
        {
          "name": "B1",
          "midi": 35,
          "time": 129.10341599999958,
          "velocity": 0.7480314960629921,
          "duration": 0.20689649999999915
        },
        {
          "name": "B1",
          "midi": 35,
          "time": 129.31031249999958,
          "velocity": 0.7480314960629921,
          "duration": 0.20689649999999915
        },
        {
          "name": "A#2",
          "midi": 46,
          "time": 129.51720899999958,
          "velocity": 0.7480314960629921,
          "duration": 0.20689649999999915
        },
        {
          "name": "E2",
          "midi": 40,
          "time": 129.51720899999958,
          "velocity": 0.7480314960629921,
          "duration": 0.20689649999999915
        },
        {
          "name": "B1",
          "midi": 35,
          "time": 129.72410549999958,
          "velocity": 0.7480314960629921,
          "duration": 0.20689649999999915
        },
        {
          "name": "A#2",
          "midi": 46,
          "time": 129.93100199999958,
          "velocity": 0.7480314960629921,
          "duration": 0.4137929999999983
        },
        {
          "name": "B1",
          "midi": 35,
          "time": 129.93100199999958,
          "velocity": 0.7480314960629921,
          "duration": 0.4137929999999983
        },
        {
          "name": "A#2",
          "midi": 46,
          "time": 130.34479499999958,
          "velocity": 0.7480314960629921,
          "duration": 0.20689649999999915
        },
        {
          "name": "E2",
          "midi": 40,
          "time": 130.34479499999958,
          "velocity": 0.7480314960629921,
          "duration": 0.20689649999999915
        },
        {
          "name": "B1",
          "midi": 35,
          "time": 130.55169149999958,
          "velocity": 0.7480314960629921,
          "duration": 0.4137929999999983
        },
        {
          "name": "A#2",
          "midi": 46,
          "time": 130.75858799999958,
          "velocity": 0.7480314960629921,
          "duration": 0.20689649999999915
        },
        {
          "name": "B1",
          "midi": 35,
          "time": 130.96548449999958,
          "velocity": 0.7480314960629921,
          "duration": 0.20689649999999915
        },
        {
          "name": "A#2",
          "midi": 46,
          "time": 131.17238099999958,
          "velocity": 0.7480314960629921,
          "duration": 0.10344825000001379
        },
        {
          "name": "E2",
          "midi": 40,
          "time": 131.17238099999958,
          "velocity": 0.7480314960629921,
          "duration": 0.10344825000001379
        },
        {
          "name": "E2",
          "midi": 40,
          "time": 131.2758292499996,
          "velocity": 0.7480314960629921,
          "duration": 0.10344825000001379
        },
        {
          "name": "E2",
          "midi": 40,
          "time": 131.3792774999996,
          "velocity": 0.7480314960629921,
          "duration": 0.10344825000001379
        },
        {
          "name": "E2",
          "midi": 40,
          "time": 131.48272574999962,
          "velocity": 0.7480314960629921,
          "duration": 0.10344825000001379
        },
        {
          "name": "B1",
          "midi": 35,
          "time": 131.58617399999963,
          "velocity": 0.7480314960629921,
          "duration": 0.20689649999999915
        },
        {
          "name": "E2",
          "midi": 40,
          "time": 131.79307049999963,
          "velocity": 0.7480314960629921,
          "duration": 0.10344825000001379
        },
        {
          "name": "E2",
          "midi": 40,
          "time": 131.89651874999964,
          "velocity": 0.7480314960629921,
          "duration": 0.20689649999999915
        },
        {
          "name": "E2",
          "midi": 40,
          "time": 132.10341524999964,
          "velocity": 0.7480314960629921,
          "duration": 0.10344825000001379
        },
        {
          "name": "E2",
          "midi": 40,
          "time": 132.20686349999966,
          "velocity": 0.7480314960629921,
          "duration": 0.10344825000001379
        },
        {
          "name": "E2",
          "midi": 40,
          "time": 132.31031174999967,
          "velocity": 0.7480314960629921,
          "duration": 0.10344825000001379
        },
        {
          "name": "C#3",
          "midi": 49,
          "time": 132.41375999999968,
          "velocity": 0.7480314960629921,
          "duration": 0.20689649999999915
        },
        {
          "name": "B1",
          "midi": 35,
          "time": 132.41375999999968,
          "velocity": 0.7480314960629921,
          "duration": 0.20689649999999915
        },
        {
          "name": "B1",
          "midi": 35,
          "time": 132.62065649999968,
          "velocity": 0.7480314960629921,
          "duration": 0.20689649999999915
        },
        {
          "name": "A3",
          "midi": 57,
          "time": 132.82755299999968,
          "velocity": 0.7480314960629921,
          "duration": 0.20689649999999915
        },
        {
          "name": "E2",
          "midi": 40,
          "time": 132.82755299999968,
          "velocity": 0.7480314960629921,
          "duration": 0.20689649999999915
        },
        {
          "name": "B1",
          "midi": 35,
          "time": 133.03444949999968,
          "velocity": 0.7480314960629921,
          "duration": 0.20689649999999915
        },
        {
          "name": "A3",
          "midi": 57,
          "time": 133.24134599999968,
          "velocity": 0.7480314960629921,
          "duration": 0.20689649999999915
        },
        {
          "name": "B1",
          "midi": 35,
          "time": 133.24134599999968,
          "velocity": 0.7480314960629921,
          "duration": 0.20689649999999915
        },
        {
          "name": "B1",
          "midi": 35,
          "time": 133.44824249999968,
          "velocity": 0.7480314960629921,
          "duration": 0.20689649999999915
        },
        {
          "name": "A3",
          "midi": 57,
          "time": 133.65513899999968,
          "velocity": 0.7480314960629921,
          "duration": 0.20689649999999915
        },
        {
          "name": "E2",
          "midi": 40,
          "time": 133.65513899999968,
          "velocity": 0.7480314960629921,
          "duration": 0.20689649999999915
        },
        {
          "name": "B1",
          "midi": 35,
          "time": 133.86203549999968,
          "velocity": 0.7480314960629921,
          "duration": 0.20689649999999915
        },
        {
          "name": "A3",
          "midi": 57,
          "time": 134.06893199999968,
          "velocity": 0.7480314960629921,
          "duration": 0.20689649999999915
        },
        {
          "name": "B1",
          "midi": 35,
          "time": 134.06893199999968,
          "velocity": 0.7480314960629921,
          "duration": 0.20689649999999915
        },
        {
          "name": "B1",
          "midi": 35,
          "time": 134.27582849999968,
          "velocity": 0.7480314960629921,
          "duration": 0.20689649999999915
        },
        {
          "name": "A3",
          "midi": 57,
          "time": 134.48272499999968,
          "velocity": 0.7480314960629921,
          "duration": 0.20689649999999915
        },
        {
          "name": "E2",
          "midi": 40,
          "time": 134.48272499999968,
          "velocity": 0.7480314960629921,
          "duration": 0.20689649999999915
        },
        {
          "name": "B1",
          "midi": 35,
          "time": 134.68962149999967,
          "velocity": 0.7480314960629921,
          "duration": 0.20689649999999915
        },
        {
          "name": "A3",
          "midi": 57,
          "time": 134.89651799999967,
          "velocity": 0.7480314960629921,
          "duration": 0.20689649999999915
        },
        {
          "name": "B1",
          "midi": 35,
          "time": 134.89651799999967,
          "velocity": 0.7480314960629921,
          "duration": 0.20689649999999915
        },
        {
          "name": "B1",
          "midi": 35,
          "time": 135.10341449999967,
          "velocity": 0.7480314960629921,
          "duration": 0.20689649999999915
        },
        {
          "name": "A3",
          "midi": 57,
          "time": 135.31031099999967,
          "velocity": 0.7480314960629921,
          "duration": 0.20689649999999915
        },
        {
          "name": "E2",
          "midi": 40,
          "time": 135.31031099999967,
          "velocity": 0.7480314960629921,
          "duration": 0.20689649999999915
        },
        {
          "name": "B1",
          "midi": 35,
          "time": 135.51720749999967,
          "velocity": 0.7480314960629921,
          "duration": 0.20689649999999915
        },
        {
          "name": "A3",
          "midi": 57,
          "time": 135.72410399999967,
          "velocity": 0.7480314960629921,
          "duration": 0.20689649999999915
        },
        {
          "name": "B1",
          "midi": 35,
          "time": 135.72410399999967,
          "velocity": 0.7480314960629921,
          "duration": 0.20689649999999915
        },
        {
          "name": "B1",
          "midi": 35,
          "time": 135.93100049999967,
          "velocity": 0.7480314960629921,
          "duration": 0.20689649999999915
        },
        {
          "name": "A3",
          "midi": 57,
          "time": 136.13789699999967,
          "velocity": 0.7480314960629921,
          "duration": 0.20689649999999915
        },
        {
          "name": "E2",
          "midi": 40,
          "time": 136.13789699999967,
          "velocity": 0.7480314960629921,
          "duration": 0.20689649999999915
        },
        {
          "name": "B1",
          "midi": 35,
          "time": 136.34479349999967,
          "velocity": 0.7480314960629921,
          "duration": 0.20689649999999915
        },
        {
          "name": "A3",
          "midi": 57,
          "time": 136.55168999999967,
          "velocity": 0.7480314960629921,
          "duration": 0.20689649999999915
        },
        {
          "name": "B1",
          "midi": 35,
          "time": 136.55168999999967,
          "velocity": 0.7480314960629921,
          "duration": 0.20689649999999915
        },
        {
          "name": "B1",
          "midi": 35,
          "time": 136.75858649999967,
          "velocity": 0.7480314960629921,
          "duration": 0.20689649999999915
        },
        {
          "name": "A3",
          "midi": 57,
          "time": 136.96548299999967,
          "velocity": 0.7480314960629921,
          "duration": 0.20689649999999915
        },
        {
          "name": "E2",
          "midi": 40,
          "time": 136.96548299999967,
          "velocity": 0.7480314960629921,
          "duration": 0.20689649999999915
        },
        {
          "name": "B1",
          "midi": 35,
          "time": 137.17237949999966,
          "velocity": 0.7480314960629921,
          "duration": 0.20689649999999915
        },
        {
          "name": "C#3",
          "midi": 49,
          "time": 137.37927599999966,
          "velocity": 0.7480314960629921,
          "duration": 0.20689649999999915
        },
        {
          "name": "B1",
          "midi": 35,
          "time": 137.37927599999966,
          "velocity": 0.7480314960629921,
          "duration": 0.20689649999999915
        },
        {
          "name": "B1",
          "midi": 35,
          "time": 137.58617249999966,
          "velocity": 0.7480314960629921,
          "duration": 0.20689649999999915
        },
        {
          "name": "A3",
          "midi": 57,
          "time": 137.79306899999966,
          "velocity": 0.7480314960629921,
          "duration": 0.20689649999999915
        },
        {
          "name": "E2",
          "midi": 40,
          "time": 137.79306899999966,
          "velocity": 0.7480314960629921,
          "duration": 0.20689649999999915
        },
        {
          "name": "B1",
          "midi": 35,
          "time": 137.99996549999966,
          "velocity": 0.7480314960629921,
          "duration": 0.20689649999999915
        },
        {
          "name": "A3",
          "midi": 57,
          "time": 138.20686199999966,
          "velocity": 0.7480314960629921,
          "duration": 0.20689649999999915
        },
        {
          "name": "B1",
          "midi": 35,
          "time": 138.20686199999966,
          "velocity": 0.7480314960629921,
          "duration": 0.20689649999999915
        },
        {
          "name": "B1",
          "midi": 35,
          "time": 138.41375849999966,
          "velocity": 0.7480314960629921,
          "duration": 0.20689649999999915
        },
        {
          "name": "G3",
          "midi": 55,
          "time": 138.62065499999966,
          "velocity": 0.7480314960629921,
          "duration": 0.20689649999999915
        },
        {
          "name": "E2",
          "midi": 40,
          "time": 138.62065499999966,
          "velocity": 0.7480314960629921,
          "duration": 0.20689649999999915
        },
        {
          "name": "B1",
          "midi": 35,
          "time": 138.82755149999966,
          "velocity": 0.7480314960629921,
          "duration": 0.20689649999999915
        },
        {
          "name": "C#3",
          "midi": 49,
          "time": 139.03444799999966,
          "velocity": 0.7480314960629921,
          "duration": 0.20689649999999915
        },
        {
          "name": "B1",
          "midi": 35,
          "time": 139.03444799999966,
          "velocity": 0.7480314960629921,
          "duration": 0.20689649999999915
        },
        {
          "name": "B1",
          "midi": 35,
          "time": 139.24134449999966,
          "velocity": 0.7480314960629921,
          "duration": 0.20689649999999915
        },
        {
          "name": "A3",
          "midi": 57,
          "time": 139.44824099999965,
          "velocity": 0.7480314960629921,
          "duration": 0.20689649999999915
        },
        {
          "name": "E2",
          "midi": 40,
          "time": 139.44824099999965,
          "velocity": 0.7480314960629921,
          "duration": 0.20689649999999915
        },
        {
          "name": "B1",
          "midi": 35,
          "time": 139.65513749999965,
          "velocity": 0.7480314960629921,
          "duration": 0.20689649999999915
        },
        {
          "name": "A3",
          "midi": 57,
          "time": 139.86203399999965,
          "velocity": 0.7480314960629921,
          "duration": 0.20689649999999915
        },
        {
          "name": "B1",
          "midi": 35,
          "time": 139.86203399999965,
          "velocity": 0.7480314960629921,
          "duration": 0.20689649999999915
        },
        {
          "name": "B1",
          "midi": 35,
          "time": 140.06893049999965,
          "velocity": 0.7480314960629921,
          "duration": 0.20689649999999915
        },
        {
          "name": "A3",
          "midi": 57,
          "time": 140.27582699999965,
          "velocity": 0.7480314960629921,
          "duration": 0.20689649999999915
        },
        {
          "name": "E2",
          "midi": 40,
          "time": 140.27582699999965,
          "velocity": 0.7480314960629921,
          "duration": 0.20689649999999915
        },
        {
          "name": "B1",
          "midi": 35,
          "time": 140.48272349999965,
          "velocity": 0.7480314960629921,
          "duration": 0.20689649999999915
        },
        {
          "name": "A3",
          "midi": 57,
          "time": 140.68961999999965,
          "velocity": 0.7480314960629921,
          "duration": 0.20689649999999915
        },
        {
          "name": "B1",
          "midi": 35,
          "time": 140.68961999999965,
          "velocity": 0.7480314960629921,
          "duration": 0.20689649999999915
        },
        {
          "name": "B1",
          "midi": 35,
          "time": 140.89651649999965,
          "velocity": 0.7480314960629921,
          "duration": 0.20689649999999915
        },
        {
          "name": "A3",
          "midi": 57,
          "time": 141.10341299999965,
          "velocity": 0.7480314960629921,
          "duration": 0.20689649999999915
        },
        {
          "name": "E2",
          "midi": 40,
          "time": 141.10341299999965,
          "velocity": 0.7480314960629921,
          "duration": 0.20689649999999915
        },
        {
          "name": "B1",
          "midi": 35,
          "time": 141.31030949999965,
          "velocity": 0.7480314960629921,
          "duration": 0.20689649999999915
        },
        {
          "name": "A3",
          "midi": 57,
          "time": 141.51720599999965,
          "velocity": 0.7480314960629921,
          "duration": 0.20689649999999915
        },
        {
          "name": "B1",
          "midi": 35,
          "time": 141.51720599999965,
          "velocity": 0.7480314960629921,
          "duration": 0.20689649999999915
        },
        {
          "name": "B1",
          "midi": 35,
          "time": 141.72410249999965,
          "velocity": 0.7480314960629921,
          "duration": 0.20689649999999915
        },
        {
          "name": "A3",
          "midi": 57,
          "time": 141.93099899999964,
          "velocity": 0.7480314960629921,
          "duration": 0.20689649999999915
        },
        {
          "name": "E2",
          "midi": 40,
          "time": 141.93099899999964,
          "velocity": 0.7480314960629921,
          "duration": 0.20689649999999915
        },
        {
          "name": "B1",
          "midi": 35,
          "time": 142.13789549999964,
          "velocity": 0.7480314960629921,
          "duration": 0.20689649999999915
        },
        {
          "name": "C#3",
          "midi": 49,
          "time": 142.34479199999964,
          "velocity": 0.7480314960629921,
          "duration": 0.20689649999999915
        },
        {
          "name": "B1",
          "midi": 35,
          "time": 142.34479199999964,
          "velocity": 0.7480314960629921,
          "duration": 0.20689649999999915
        },
        {
          "name": "B1",
          "midi": 35,
          "time": 142.55168849999964,
          "velocity": 0.7480314960629921,
          "duration": 0.20689649999999915
        },
        {
          "name": "A3",
          "midi": 57,
          "time": 142.75858499999964,
          "velocity": 0.7480314960629921,
          "duration": 0.20689649999999915
        },
        {
          "name": "E2",
          "midi": 40,
          "time": 142.75858499999964,
          "velocity": 0.7480314960629921,
          "duration": 0.20689649999999915
        },
        {
          "name": "B1",
          "midi": 35,
          "time": 142.96548149999964,
          "velocity": 0.7480314960629921,
          "duration": 0.20689649999999915
        },
        {
          "name": "A3",
          "midi": 57,
          "time": 143.17237799999964,
          "velocity": 0.7480314960629921,
          "duration": 0.20689649999999915
        },
        {
          "name": "B1",
          "midi": 35,
          "time": 143.17237799999964,
          "velocity": 0.7480314960629921,
          "duration": 0.20689649999999915
        },
        {
          "name": "E2",
          "midi": 40,
          "time": 143.37927449999964,
          "velocity": 0.7480314960629921,
          "duration": 0.10344825000001379
        },
        {
          "name": "E2",
          "midi": 40,
          "time": 143.48272274999965,
          "velocity": 0.7480314960629921,
          "duration": 0.10344825000001379
        },
        {
          "name": "E2",
          "midi": 40,
          "time": 143.58617099999967,
          "velocity": 0.7480314960629921,
          "duration": 0.10344825000001379
        },
        {
          "name": "E2",
          "midi": 40,
          "time": 143.68961924999968,
          "velocity": 0.7480314960629921,
          "duration": 0.10344825000001379
        },
        {
          "name": "E2",
          "midi": 40,
          "time": 143.7930674999997,
          "velocity": 0.7480314960629921,
          "duration": 0.10344825000001379
        },
        {
          "name": "E2",
          "midi": 40,
          "time": 143.8965157499997,
          "velocity": 0.7480314960629921,
          "duration": 0.10344825000001379
        },
        {
          "name": "A3",
          "midi": 57,
          "time": 143.99996399999972,
          "velocity": 0.7480314960629921,
          "duration": 0.20689649999999915
        },
        {
          "name": "B1",
          "midi": 35,
          "time": 143.99996399999972,
          "velocity": 0.7480314960629921,
          "duration": 0.20689649999999915
        },
        {
          "name": "B1",
          "midi": 35,
          "time": 144.20686049999972,
          "velocity": 0.7480314960629921,
          "duration": 0.20689649999999915
        },
        {
          "name": "A3",
          "midi": 57,
          "time": 144.41375699999972,
          "velocity": 0.7480314960629921,
          "duration": 0.20689649999999915
        },
        {
          "name": "E2",
          "midi": 40,
          "time": 144.41375699999972,
          "velocity": 0.7480314960629921,
          "duration": 0.20689649999999915
        },
        {
          "name": "B1",
          "midi": 35,
          "time": 144.62065349999972,
          "velocity": 0.7480314960629921,
          "duration": 0.20689649999999915
        },
        {
          "name": "A3",
          "midi": 57,
          "time": 144.82754999999972,
          "velocity": 0.7480314960629921,
          "duration": 0.20689649999999915
        },
        {
          "name": "B1",
          "midi": 35,
          "time": 144.82754999999972,
          "velocity": 0.7480314960629921,
          "duration": 0.20689649999999915
        },
        {
          "name": "B1",
          "midi": 35,
          "time": 145.03444649999972,
          "velocity": 0.7480314960629921,
          "duration": 0.20689649999999915
        },
        {
          "name": "A3",
          "midi": 57,
          "time": 145.24134299999972,
          "velocity": 0.7480314960629921,
          "duration": 0.20689649999999915
        },
        {
          "name": "E2",
          "midi": 40,
          "time": 145.24134299999972,
          "velocity": 0.7480314960629921,
          "duration": 0.20689649999999915
        },
        {
          "name": "B1",
          "midi": 35,
          "time": 145.44823949999972,
          "velocity": 0.7480314960629921,
          "duration": 0.20689649999999915
        },
        {
          "name": "A3",
          "midi": 57,
          "time": 145.65513599999971,
          "velocity": 0.7480314960629921,
          "duration": 0.20689649999999915
        },
        {
          "name": "B1",
          "midi": 35,
          "time": 145.65513599999971,
          "velocity": 0.7480314960629921,
          "duration": 0.20689649999999915
        },
        {
          "name": "B1",
          "midi": 35,
          "time": 145.8620324999997,
          "velocity": 0.7480314960629921,
          "duration": 0.20689649999999915
        },
        {
          "name": "A3",
          "midi": 57,
          "time": 146.0689289999997,
          "velocity": 0.7480314960629921,
          "duration": 0.20689649999999915
        },
        {
          "name": "E2",
          "midi": 40,
          "time": 146.0689289999997,
          "velocity": 0.7480314960629921,
          "duration": 0.20689649999999915
        },
        {
          "name": "B1",
          "midi": 35,
          "time": 146.2758254999997,
          "velocity": 0.7480314960629921,
          "duration": 0.20689649999999915
        },
        {
          "name": "A3",
          "midi": 57,
          "time": 146.4827219999997,
          "velocity": 0.7480314960629921,
          "duration": 0.20689649999999915
        },
        {
          "name": "B1",
          "midi": 35,
          "time": 146.4827219999997,
          "velocity": 0.7480314960629921,
          "duration": 0.20689649999999915
        },
        {
          "name": "B1",
          "midi": 35,
          "time": 146.6896184999997,
          "velocity": 0.7480314960629921,
          "duration": 0.20689649999999915
        },
        {
          "name": "A3",
          "midi": 57,
          "time": 146.8965149999997,
          "velocity": 0.7480314960629921,
          "duration": 0.20689649999999915
        },
        {
          "name": "E2",
          "midi": 40,
          "time": 146.8965149999997,
          "velocity": 0.7480314960629921,
          "duration": 0.20689649999999915
        },
        {
          "name": "B1",
          "midi": 35,
          "time": 147.1034114999997,
          "velocity": 0.7480314960629921,
          "duration": 0.20689649999999915
        },
        {
          "name": "C#3",
          "midi": 49,
          "time": 147.3103079999997,
          "velocity": 0.7480314960629921,
          "duration": 0.20689649999999915
        },
        {
          "name": "B1",
          "midi": 35,
          "time": 147.3103079999997,
          "velocity": 0.7480314960629921,
          "duration": 0.20689649999999915
        },
        {
          "name": "B1",
          "midi": 35,
          "time": 147.5172044999997,
          "velocity": 0.7480314960629921,
          "duration": 0.20689649999999915
        },
        {
          "name": "A3",
          "midi": 57,
          "time": 147.7241009999997,
          "velocity": 0.7480314960629921,
          "duration": 0.20689649999999915
        },
        {
          "name": "E2",
          "midi": 40,
          "time": 147.7241009999997,
          "velocity": 0.7480314960629921,
          "duration": 0.20689649999999915
        },
        {
          "name": "B1",
          "midi": 35,
          "time": 147.9309974999997,
          "velocity": 0.7480314960629921,
          "duration": 0.20689649999999915
        },
        {
          "name": "A3",
          "midi": 57,
          "time": 148.1378939999997,
          "velocity": 0.7480314960629921,
          "duration": 0.20689649999999915
        },
        {
          "name": "B1",
          "midi": 35,
          "time": 148.1378939999997,
          "velocity": 0.7480314960629921,
          "duration": 0.20689649999999915
        },
        {
          "name": "B1",
          "midi": 35,
          "time": 148.3447904999997,
          "velocity": 0.7480314960629921,
          "duration": 0.20689649999999915
        },
        {
          "name": "A3",
          "midi": 57,
          "time": 148.5516869999997,
          "velocity": 0.7480314960629921,
          "duration": 0.20689649999999915
        },
        {
          "name": "E2",
          "midi": 40,
          "time": 148.5516869999997,
          "velocity": 0.7480314960629921,
          "duration": 0.20689649999999915
        },
        {
          "name": "B1",
          "midi": 35,
          "time": 148.7585834999997,
          "velocity": 0.7480314960629921,
          "duration": 0.20689649999999915
        },
        {
          "name": "A3",
          "midi": 57,
          "time": 148.9654799999997,
          "velocity": 0.7480314960629921,
          "duration": 0.20689649999999915
        },
        {
          "name": "B1",
          "midi": 35,
          "time": 148.9654799999997,
          "velocity": 0.7480314960629921,
          "duration": 0.20689649999999915
        },
        {
          "name": "B1",
          "midi": 35,
          "time": 149.1723764999997,
          "velocity": 0.7480314960629921,
          "duration": 0.20689649999999915
        },
        {
          "name": "A3",
          "midi": 57,
          "time": 149.3792729999997,
          "velocity": 0.7480314960629921,
          "duration": 0.20689649999999915
        },
        {
          "name": "E2",
          "midi": 40,
          "time": 149.3792729999997,
          "velocity": 0.7480314960629921,
          "duration": 0.20689649999999915
        },
        {
          "name": "B1",
          "midi": 35,
          "time": 149.5861694999997,
          "velocity": 0.7480314960629921,
          "duration": 0.20689649999999915
        },
        {
          "name": "A3",
          "midi": 57,
          "time": 149.7930659999997,
          "velocity": 0.7480314960629921,
          "duration": 0.20689649999999915
        },
        {
          "name": "B1",
          "midi": 35,
          "time": 149.7930659999997,
          "velocity": 0.7480314960629921,
          "duration": 0.20689649999999915
        },
        {
          "name": "B1",
          "midi": 35,
          "time": 149.9999624999997,
          "velocity": 0.7480314960629921,
          "duration": 0.20689649999999915
        },
        {
          "name": "A3",
          "midi": 57,
          "time": 150.2068589999997,
          "velocity": 0.7480314960629921,
          "duration": 0.20689649999999915
        },
        {
          "name": "E2",
          "midi": 40,
          "time": 150.2068589999997,
          "velocity": 0.7480314960629921,
          "duration": 0.20689649999999915
        },
        {
          "name": "B1",
          "midi": 35,
          "time": 150.4137554999997,
          "velocity": 0.7480314960629921,
          "duration": 0.20689649999999915
        },
        {
          "name": "A3",
          "midi": 57,
          "time": 150.6206519999997,
          "velocity": 0.7480314960629921,
          "duration": 0.20689649999999915
        },
        {
          "name": "B1",
          "midi": 35,
          "time": 150.6206519999997,
          "velocity": 0.7480314960629921,
          "duration": 0.20689649999999915
        },
        {
          "name": "B1",
          "midi": 35,
          "time": 150.8275484999997,
          "velocity": 0.7480314960629921,
          "duration": 0.20689649999999915
        },
        {
          "name": "A3",
          "midi": 57,
          "time": 151.0344449999997,
          "velocity": 0.7480314960629921,
          "duration": 0.20689649999999915
        },
        {
          "name": "E2",
          "midi": 40,
          "time": 151.0344449999997,
          "velocity": 0.7480314960629921,
          "duration": 0.20689649999999915
        },
        {
          "name": "B1",
          "midi": 35,
          "time": 151.2413414999997,
          "velocity": 0.7480314960629921,
          "duration": 0.20689649999999915
        },
        {
          "name": "A3",
          "midi": 57,
          "time": 151.4482379999997,
          "velocity": 0.7480314960629921,
          "duration": 0.20689649999999915
        },
        {
          "name": "B1",
          "midi": 35,
          "time": 151.4482379999997,
          "velocity": 0.7480314960629921,
          "duration": 0.20689649999999915
        },
        {
          "name": "B1",
          "midi": 35,
          "time": 151.6551344999997,
          "velocity": 0.7480314960629921,
          "duration": 0.20689649999999915
        },
        {
          "name": "A#2",
          "midi": 46,
          "time": 151.8620309999997,
          "velocity": 0.7480314960629921,
          "duration": 0.4137929999999983
        },
        {
          "name": "E2",
          "midi": 40,
          "time": 151.8620309999997,
          "velocity": 0.7480314960629921,
          "duration": 0.4137929999999983
        },
        {
          "name": "C#3",
          "midi": 49,
          "time": 152.2758239999997,
          "velocity": 0.7480314960629921,
          "duration": 0.20689649999999915
        },
        {
          "name": "B1",
          "midi": 35,
          "time": 152.2758239999997,
          "velocity": 0.7480314960629921,
          "duration": 0.20689649999999915
        },
        {
          "name": "B1",
          "midi": 35,
          "time": 152.4827204999997,
          "velocity": 0.7480314960629921,
          "duration": 0.20689649999999915
        },
        {
          "name": "F#2",
          "midi": 42,
          "time": 152.68961699999969,
          "velocity": 0.7480314960629921,
          "duration": 0.20689649999999915
        },
        {
          "name": "E2",
          "midi": 40,
          "time": 152.68961699999969,
          "velocity": 0.7480314960629921,
          "duration": 0.20689649999999915
        },
        {
          "name": "B1",
          "midi": 35,
          "time": 152.89651349999968,
          "velocity": 0.7480314960629921,
          "duration": 0.20689649999999915
        },
        {
          "name": "F#2",
          "midi": 42,
          "time": 153.10340999999968,
          "velocity": 0.7480314960629921,
          "duration": 0.20689649999999915
        },
        {
          "name": "B1",
          "midi": 35,
          "time": 153.10340999999968,
          "velocity": 0.7480314960629921,
          "duration": 0.20689649999999915
        },
        {
          "name": "B1",
          "midi": 35,
          "time": 153.31030649999968,
          "velocity": 0.7480314960629921,
          "duration": 0.20689649999999915
        },
        {
          "name": "F#2",
          "midi": 42,
          "time": 153.51720299999968,
          "velocity": 0.7480314960629921,
          "duration": 0.20689649999999915
        },
        {
          "name": "E2",
          "midi": 40,
          "time": 153.51720299999968,
          "velocity": 0.7480314960629921,
          "duration": 0.20689649999999915
        },
        {
          "name": "B1",
          "midi": 35,
          "time": 153.72409949999968,
          "velocity": 0.7480314960629921,
          "duration": 0.20689649999999915
        },
        {
          "name": "F#2",
          "midi": 42,
          "time": 153.93099599999968,
          "velocity": 0.7480314960629921,
          "duration": 0.20689649999999915
        },
        {
          "name": "B1",
          "midi": 35,
          "time": 153.93099599999968,
          "velocity": 0.7480314960629921,
          "duration": 0.20689649999999915
        },
        {
          "name": "B1",
          "midi": 35,
          "time": 154.13789249999968,
          "velocity": 0.7480314960629921,
          "duration": 0.20689649999999915
        },
        {
          "name": "F#2",
          "midi": 42,
          "time": 154.34478899999968,
          "velocity": 0.7480314960629921,
          "duration": 0.20689649999999915
        },
        {
          "name": "E2",
          "midi": 40,
          "time": 154.34478899999968,
          "velocity": 0.7480314960629921,
          "duration": 0.20689649999999915
        },
        {
          "name": "B1",
          "midi": 35,
          "time": 154.55168549999968,
          "velocity": 0.7480314960629921,
          "duration": 0.20689649999999915
        },
        {
          "name": "F#2",
          "midi": 42,
          "time": 154.75858199999968,
          "velocity": 0.7480314960629921,
          "duration": 0.10344825000001379
        },
        {
          "name": "E2",
          "midi": 40,
          "time": 154.75858199999968,
          "velocity": 0.7480314960629921,
          "duration": 0.10344825000001379
        },
        {
          "name": "E2",
          "midi": 40,
          "time": 154.8620302499997,
          "velocity": 0.7480314960629921,
          "duration": 0.10344825000001379
        },
        {
          "name": "B1",
          "midi": 35,
          "time": 154.9654784999997,
          "velocity": 0.7480314960629921,
          "duration": 0.20689649999999915
        },
        {
          "name": "F#2",
          "midi": 42,
          "time": 155.1723749999997,
          "velocity": 0.7480314960629921,
          "duration": 0.20689649999999915
        },
        {
          "name": "B1",
          "midi": 35,
          "time": 155.1723749999997,
          "velocity": 0.7480314960629921,
          "duration": 0.20689649999999915
        },
        {
          "name": "B1",
          "midi": 35,
          "time": 155.3792714999997,
          "velocity": 0.7480314960629921,
          "duration": 0.20689649999999915
        },
        {
          "name": "F#2",
          "midi": 42,
          "time": 155.5861679999997,
          "velocity": 0.7480314960629921,
          "duration": 0.20689649999999915
        },
        {
          "name": "E2",
          "midi": 40,
          "time": 155.5861679999997,
          "velocity": 0.7480314960629921,
          "duration": 0.20689649999999915
        },
        {
          "name": "B1",
          "midi": 35,
          "time": 155.7930644999997,
          "velocity": 0.7480314960629921,
          "duration": 0.20689649999999915
        },
        {
          "name": "F#2",
          "midi": 42,
          "time": 155.9999609999997,
          "velocity": 0.7480314960629921,
          "duration": 0.20689649999999915
        },
        {
          "name": "B1",
          "midi": 35,
          "time": 155.9999609999997,
          "velocity": 0.7480314960629921,
          "duration": 0.20689649999999915
        },
        {
          "name": "B1",
          "midi": 35,
          "time": 156.2068574999997,
          "velocity": 0.7480314960629921,
          "duration": 0.20689649999999915
        },
        {
          "name": "F#2",
          "midi": 42,
          "time": 156.4137539999997,
          "velocity": 0.7480314960629921,
          "duration": 0.20689649999999915
        },
        {
          "name": "E2",
          "midi": 40,
          "time": 156.4137539999997,
          "velocity": 0.7480314960629921,
          "duration": 0.20689649999999915
        },
        {
          "name": "B1",
          "midi": 35,
          "time": 156.6206504999997,
          "velocity": 0.7480314960629921,
          "duration": 0.20689649999999915
        },
        {
          "name": "F#2",
          "midi": 42,
          "time": 156.8275469999997,
          "velocity": 0.7480314960629921,
          "duration": 0.20689649999999915
        },
        {
          "name": "B1",
          "midi": 35,
          "time": 156.8275469999997,
          "velocity": 0.7480314960629921,
          "duration": 0.20689649999999915
        },
        {
          "name": "B1",
          "midi": 35,
          "time": 157.0344434999997,
          "velocity": 0.7480314960629921,
          "duration": 0.20689649999999915
        },
        {
          "name": "F#2",
          "midi": 42,
          "time": 157.2413399999997,
          "velocity": 0.7480314960629921,
          "duration": 0.20689649999999915
        },
        {
          "name": "E2",
          "midi": 40,
          "time": 157.2413399999997,
          "velocity": 0.7480314960629921,
          "duration": 0.20689649999999915
        },
        {
          "name": "B1",
          "midi": 35,
          "time": 157.4482364999997,
          "velocity": 0.7480314960629921,
          "duration": 0.20689649999999915
        },
        {
          "name": "F#2",
          "midi": 42,
          "time": 157.6551329999997,
          "velocity": 0.7480314960629921,
          "duration": 0.10344825000001379
        },
        {
          "name": "E2",
          "midi": 40,
          "time": 157.6551329999997,
          "velocity": 0.7480314960629921,
          "duration": 0.10344825000001379
        },
        {
          "name": "E2",
          "midi": 40,
          "time": 157.7585812499997,
          "velocity": 0.7480314960629921,
          "duration": 0.10344825000001379
        },
        {
          "name": "B1",
          "midi": 35,
          "time": 157.86202949999972,
          "velocity": 0.7480314960629921,
          "duration": 0.20689649999999915
        },
        {
          "name": "F#2",
          "midi": 42,
          "time": 158.06892599999972,
          "velocity": 0.7480314960629921,
          "duration": 0.20689649999999915
        },
        {
          "name": "B1",
          "midi": 35,
          "time": 158.06892599999972,
          "velocity": 0.7480314960629921,
          "duration": 0.20689649999999915
        },
        {
          "name": "B1",
          "midi": 35,
          "time": 158.27582249999972,
          "velocity": 0.7480314960629921,
          "duration": 0.20689649999999915
        },
        {
          "name": "F#2",
          "midi": 42,
          "time": 158.48271899999972,
          "velocity": 0.7480314960629921,
          "duration": 0.20689649999999915
        },
        {
          "name": "E2",
          "midi": 40,
          "time": 158.48271899999972,
          "velocity": 0.7480314960629921,
          "duration": 0.20689649999999915
        },
        {
          "name": "B1",
          "midi": 35,
          "time": 158.68961549999972,
          "velocity": 0.7480314960629921,
          "duration": 0.20689649999999915
        },
        {
          "name": "F#2",
          "midi": 42,
          "time": 158.89651199999972,
          "velocity": 0.7480314960629921,
          "duration": 0.20689649999999915
        },
        {
          "name": "B1",
          "midi": 35,
          "time": 158.89651199999972,
          "velocity": 0.7480314960629921,
          "duration": 0.20689649999999915
        },
        {
          "name": "B1",
          "midi": 35,
          "time": 159.10340849999972,
          "velocity": 0.7480314960629921,
          "duration": 0.20689649999999915
        },
        {
          "name": "F#2",
          "midi": 42,
          "time": 159.31030499999972,
          "velocity": 0.7480314960629921,
          "duration": 0.20689649999999915
        },
        {
          "name": "E2",
          "midi": 40,
          "time": 159.31030499999972,
          "velocity": 0.7480314960629921,
          "duration": 0.20689649999999915
        },
        {
          "name": "B1",
          "midi": 35,
          "time": 159.51720149999971,
          "velocity": 0.7480314960629921,
          "duration": 0.20689649999999915
        },
        {
          "name": "F#2",
          "midi": 42,
          "time": 159.7240979999997,
          "velocity": 0.7480314960629921,
          "duration": 0.20689649999999915
        },
        {
          "name": "B1",
          "midi": 35,
          "time": 159.7240979999997,
          "velocity": 0.7480314960629921,
          "duration": 0.20689649999999915
        },
        {
          "name": "B1",
          "midi": 35,
          "time": 159.9309944999997,
          "velocity": 0.7480314960629921,
          "duration": 0.20689649999999915
        },
        {
          "name": "F#2",
          "midi": 42,
          "time": 160.1378909999997,
          "velocity": 0.7480314960629921,
          "duration": 0.20689649999999915
        },
        {
          "name": "E2",
          "midi": 40,
          "time": 160.1378909999997,
          "velocity": 0.7480314960629921,
          "duration": 0.20689649999999915
        },
        {
          "name": "B1",
          "midi": 35,
          "time": 160.3447874999997,
          "velocity": 0.7480314960629921,
          "duration": 0.20689649999999915
        },
        {
          "name": "F#2",
          "midi": 42,
          "time": 160.5516839999997,
          "velocity": 0.7480314960629921,
          "duration": 0.10344825000001379
        },
        {
          "name": "E2",
          "midi": 40,
          "time": 160.5516839999997,
          "velocity": 0.7480314960629921,
          "duration": 0.10344825000001379
        },
        {
          "name": "E2",
          "midi": 40,
          "time": 160.65513224999972,
          "velocity": 0.7480314960629921,
          "duration": 0.10344825000001379
        },
        {
          "name": "B1",
          "midi": 35,
          "time": 160.75858049999974,
          "velocity": 0.7480314960629921,
          "duration": 0.20689649999999915
        },
        {
          "name": "F#2",
          "midi": 42,
          "time": 160.96547699999974,
          "velocity": 0.7480314960629921,
          "duration": 0.20689649999999915
        },
        {
          "name": "B1",
          "midi": 35,
          "time": 160.96547699999974,
          "velocity": 0.7480314960629921,
          "duration": 0.20689649999999915
        },
        {
          "name": "B1",
          "midi": 35,
          "time": 161.17237349999974,
          "velocity": 0.7480314960629921,
          "duration": 0.20689649999999915
        },
        {
          "name": "F#2",
          "midi": 42,
          "time": 161.37926999999974,
          "velocity": 0.7480314960629921,
          "duration": 0.20689649999999915
        },
        {
          "name": "E2",
          "midi": 40,
          "time": 161.37926999999974,
          "velocity": 0.7480314960629921,
          "duration": 0.20689649999999915
        },
        {
          "name": "B1",
          "midi": 35,
          "time": 161.58616649999973,
          "velocity": 0.7480314960629921,
          "duration": 0.20689649999999915
        },
        {
          "name": "F#2",
          "midi": 42,
          "time": 161.79306299999973,
          "velocity": 0.7480314960629921,
          "duration": 0.20689649999999915
        },
        {
          "name": "B1",
          "midi": 35,
          "time": 161.79306299999973,
          "velocity": 0.7480314960629921,
          "duration": 0.20689649999999915
        },
        {
          "name": "B1",
          "midi": 35,
          "time": 161.99995949999973,
          "velocity": 0.7480314960629921,
          "duration": 0.20689649999999915
        },
        {
          "name": "F#2",
          "midi": 42,
          "time": 162.20685599999973,
          "velocity": 0.7480314960629921,
          "duration": 0.20689649999999915
        },
        {
          "name": "E2",
          "midi": 40,
          "time": 162.20685599999973,
          "velocity": 0.7480314960629921,
          "duration": 0.20689649999999915
        },
        {
          "name": "B1",
          "midi": 35,
          "time": 162.41375249999973,
          "velocity": 0.7480314960629921,
          "duration": 0.20689649999999915
        },
        {
          "name": "F#2",
          "midi": 42,
          "time": 162.62064899999973,
          "velocity": 0.7480314960629921,
          "duration": 0.20689649999999915
        },
        {
          "name": "B1",
          "midi": 35,
          "time": 162.62064899999973,
          "velocity": 0.7480314960629921,
          "duration": 0.20689649999999915
        },
        {
          "name": "E2",
          "midi": 40,
          "time": 162.82754549999973,
          "velocity": 0.7480314960629921,
          "duration": 0.10344825000001379
        },
        {
          "name": "E2",
          "midi": 40,
          "time": 162.93099374999974,
          "velocity": 0.7480314960629921,
          "duration": 0.20689650000002757
        },
        {
          "name": "F#2",
          "midi": 42,
          "time": 163.03444199999976,
          "velocity": 0.7480314960629921,
          "duration": 0.10344825000001379
        },
        {
          "name": "G2",
          "midi": 43,
          "time": 163.13789024999977,
          "velocity": 0.7480314960629921,
          "duration": 0.10344825000001379
        },
        {
          "name": "F2",
          "midi": 41,
          "time": 163.24133849999978,
          "velocity": 0.7480314960629921,
          "duration": 0.10344825000001379
        },
        {
          "name": "F2",
          "midi": 41,
          "time": 163.3447867499998,
          "velocity": 0.7480314960629921,
          "duration": 0.10344825000001379
        },
        {
          "name": "F#2",
          "midi": 42,
          "time": 163.4482349999998,
          "velocity": 0.7480314960629921,
          "duration": 0.4137929999999983
        },
        {
          "name": "E2",
          "midi": 40,
          "time": 163.4482349999998,
          "velocity": 0.7480314960629921,
          "duration": 0.4137929999999983
        },
        {
          "name": "C#3",
          "midi": 49,
          "time": 163.8620279999998,
          "velocity": 0.7480314960629921,
          "duration": 0.20689649999999915
        },
        {
          "name": "B1",
          "midi": 35,
          "time": 163.8620279999998,
          "velocity": 0.7480314960629921,
          "duration": 0.20689649999999915
        },
        {
          "name": "B1",
          "midi": 35,
          "time": 164.0689244999998,
          "velocity": 0.7480314960629921,
          "duration": 0.20689649999999915
        },
        {
          "name": "D#3",
          "midi": 51,
          "time": 164.2758209999998,
          "velocity": 0.7480314960629921,
          "duration": 0.20689649999999915
        },
        {
          "name": "E2",
          "midi": 40,
          "time": 164.2758209999998,
          "velocity": 0.7480314960629921,
          "duration": 0.20689649999999915
        },
        {
          "name": "B1",
          "midi": 35,
          "time": 164.4827174999998,
          "velocity": 0.7480314960629921,
          "duration": 0.20689649999999915
        },
        {
          "name": "D#3",
          "midi": 51,
          "time": 164.6896139999998,
          "velocity": 0.7480314960629921,
          "duration": 0.20689649999999915
        },
        {
          "name": "B1",
          "midi": 35,
          "time": 164.6896139999998,
          "velocity": 0.7480314960629921,
          "duration": 0.20689649999999915
        },
        {
          "name": "B1",
          "midi": 35,
          "time": 164.8965104999998,
          "velocity": 0.7480314960629921,
          "duration": 0.20689649999999915
        },
        {
          "name": "D#3",
          "midi": 51,
          "time": 165.1034069999998,
          "velocity": 0.7480314960629921,
          "duration": 0.20689649999999915
        },
        {
          "name": "E2",
          "midi": 40,
          "time": 165.1034069999998,
          "velocity": 0.7480314960629921,
          "duration": 0.20689649999999915
        },
        {
          "name": "B1",
          "midi": 35,
          "time": 165.3103034999998,
          "velocity": 0.7480314960629921,
          "duration": 0.20689649999999915
        },
        {
          "name": "D#3",
          "midi": 51,
          "time": 165.5171999999998,
          "velocity": 0.7480314960629921,
          "duration": 0.20689649999999915
        },
        {
          "name": "B1",
          "midi": 35,
          "time": 165.5171999999998,
          "velocity": 0.7480314960629921,
          "duration": 0.20689649999999915
        },
        {
          "name": "B1",
          "midi": 35,
          "time": 165.7240964999998,
          "velocity": 0.7480314960629921,
          "duration": 0.20689649999999915
        },
        {
          "name": "D#3",
          "midi": 51,
          "time": 165.9309929999998,
          "velocity": 0.7480314960629921,
          "duration": 0.20689649999999915
        },
        {
          "name": "E2",
          "midi": 40,
          "time": 165.9309929999998,
          "velocity": 0.7480314960629921,
          "duration": 0.20689649999999915
        },
        {
          "name": "B1",
          "midi": 35,
          "time": 166.1378894999998,
          "velocity": 0.7480314960629921,
          "duration": 0.20689649999999915
        },
        {
          "name": "D#3",
          "midi": 51,
          "time": 166.3447859999998,
          "velocity": 0.7480314960629921,
          "duration": 0.10344825000001379
        },
        {
          "name": "E2",
          "midi": 40,
          "time": 166.3447859999998,
          "velocity": 0.7480314960629921,
          "duration": 0.10344825000001379
        },
        {
          "name": "E2",
          "midi": 40,
          "time": 166.4482342499998,
          "velocity": 0.7480314960629921,
          "duration": 0.10344825000001379
        },
        {
          "name": "B1",
          "midi": 35,
          "time": 166.55168249999983,
          "velocity": 0.7480314960629921,
          "duration": 0.20689649999999915
        },
        {
          "name": "D#3",
          "midi": 51,
          "time": 166.75857899999983,
          "velocity": 0.7480314960629921,
          "duration": 0.20689649999999915
        },
        {
          "name": "B1",
          "midi": 35,
          "time": 166.75857899999983,
          "velocity": 0.7480314960629921,
          "duration": 0.20689649999999915
        },
        {
          "name": "B1",
          "midi": 35,
          "time": 166.96547549999983,
          "velocity": 0.7480314960629921,
          "duration": 0.20689649999999915
        },
        {
          "name": "D#3",
          "midi": 51,
          "time": 167.17237199999983,
          "velocity": 0.7480314960629921,
          "duration": 0.20689649999999915
        },
        {
          "name": "E2",
          "midi": 40,
          "time": 167.17237199999983,
          "velocity": 0.7480314960629921,
          "duration": 0.20689649999999915
        },
        {
          "name": "B1",
          "midi": 35,
          "time": 167.37926849999982,
          "velocity": 0.7480314960629921,
          "duration": 0.20689649999999915
        },
        {
          "name": "D#3",
          "midi": 51,
          "time": 167.58616499999982,
          "velocity": 0.7480314960629921,
          "duration": 0.20689649999999915
        },
        {
          "name": "B1",
          "midi": 35,
          "time": 167.58616499999982,
          "velocity": 0.7480314960629921,
          "duration": 0.20689649999999915
        },
        {
          "name": "B1",
          "midi": 35,
          "time": 167.79306149999982,
          "velocity": 0.7480314960629921,
          "duration": 0.20689649999999915
        },
        {
          "name": "D#3",
          "midi": 51,
          "time": 167.99995799999982,
          "velocity": 0.7480314960629921,
          "duration": 0.20689649999999915
        },
        {
          "name": "E2",
          "midi": 40,
          "time": 167.99995799999982,
          "velocity": 0.7480314960629921,
          "duration": 0.20689649999999915
        },
        {
          "name": "B1",
          "midi": 35,
          "time": 168.20685449999982,
          "velocity": 0.7480314960629921,
          "duration": 0.20689649999999915
        },
        {
          "name": "D#3",
          "midi": 51,
          "time": 168.41375099999982,
          "velocity": 0.7480314960629921,
          "duration": 0.20689649999999915
        },
        {
          "name": "B1",
          "midi": 35,
          "time": 168.41375099999982,
          "velocity": 0.7480314960629921,
          "duration": 0.20689649999999915
        },
        {
          "name": "B1",
          "midi": 35,
          "time": 168.62064749999982,
          "velocity": 0.7480314960629921,
          "duration": 0.20689649999999915
        },
        {
          "name": "D#3",
          "midi": 51,
          "time": 168.82754399999982,
          "velocity": 0.7480314960629921,
          "duration": 0.20689649999999915
        },
        {
          "name": "E2",
          "midi": 40,
          "time": 168.82754399999982,
          "velocity": 0.7480314960629921,
          "duration": 0.20689649999999915
        },
        {
          "name": "B1",
          "midi": 35,
          "time": 169.03444049999982,
          "velocity": 0.7480314960629921,
          "duration": 0.20689649999999915
        },
        {
          "name": "D#3",
          "midi": 51,
          "time": 169.24133699999982,
          "velocity": 0.7480314960629921,
          "duration": 0.10344825000001379
        },
        {
          "name": "E2",
          "midi": 40,
          "time": 169.24133699999982,
          "velocity": 0.7480314960629921,
          "duration": 0.10344825000001379
        },
        {
          "name": "E2",
          "midi": 40,
          "time": 169.34478524999983,
          "velocity": 0.7480314960629921,
          "duration": 0.10344825000001379
        },
        {
          "name": "B1",
          "midi": 35,
          "time": 169.44823349999984,
          "velocity": 0.7480314960629921,
          "duration": 0.20689649999999915
        },
        {
          "name": "C#3",
          "midi": 49,
          "time": 169.65512999999984,
          "velocity": 0.7480314960629921,
          "duration": 0.20689649999999915
        },
        {
          "name": "B1",
          "midi": 35,
          "time": 169.65512999999984,
          "velocity": 0.7480314960629921,
          "duration": 0.20689649999999915
        },
        {
          "name": "B1",
          "midi": 35,
          "time": 169.86202649999984,
          "velocity": 0.7480314960629921,
          "duration": 0.20689649999999915
        },
        {
          "name": "D#3",
          "midi": 51,
          "time": 170.06892299999984,
          "velocity": 0.7480314960629921,
          "duration": 0.20689649999999915
        },
        {
          "name": "E2",
          "midi": 40,
          "time": 170.06892299999984,
          "velocity": 0.7480314960629921,
          "duration": 0.20689649999999915
        },
        {
          "name": "B1",
          "midi": 35,
          "time": 170.27581949999984,
          "velocity": 0.7480314960629921,
          "duration": 0.20689649999999915
        },
        {
          "name": "D#3",
          "midi": 51,
          "time": 170.48271599999984,
          "velocity": 0.7480314960629921,
          "duration": 0.20689649999999915
        },
        {
          "name": "B1",
          "midi": 35,
          "time": 170.48271599999984,
          "velocity": 0.7480314960629921,
          "duration": 0.20689649999999915
        },
        {
          "name": "B1",
          "midi": 35,
          "time": 170.68961249999984,
          "velocity": 0.7480314960629921,
          "duration": 0.20689649999999915
        },
        {
          "name": "D#3",
          "midi": 51,
          "time": 170.89650899999984,
          "velocity": 0.7480314960629921,
          "duration": 0.20689649999999915
        },
        {
          "name": "E2",
          "midi": 40,
          "time": 170.89650899999984,
          "velocity": 0.7480314960629921,
          "duration": 0.20689649999999915
        },
        {
          "name": "B1",
          "midi": 35,
          "time": 171.10340549999984,
          "velocity": 0.7480314960629921,
          "duration": 0.20689649999999915
        },
        {
          "name": "D#3",
          "midi": 51,
          "time": 171.31030199999984,
          "velocity": 0.7480314960629921,
          "duration": 0.20689649999999915
        },
        {
          "name": "B1",
          "midi": 35,
          "time": 171.31030199999984,
          "velocity": 0.7480314960629921,
          "duration": 0.20689649999999915
        },
        {
          "name": "B1",
          "midi": 35,
          "time": 171.51719849999984,
          "velocity": 0.7480314960629921,
          "duration": 0.20689649999999915
        },
        {
          "name": "D#3",
          "midi": 51,
          "time": 171.72409499999983,
          "velocity": 0.7480314960629921,
          "duration": 0.4137929999999983
        },
        {
          "name": "G2",
          "midi": 43,
          "time": 171.72409499999983,
          "velocity": 1,
          "duration": 0.4137929999999983
        },
        {
          "name": "A#2",
          "midi": 46,
          "time": 172.13788799999983,
          "velocity": 0.7480314960629921,
          "duration": 0.4137929999999983
        },
        {
          "name": "E2",
          "midi": 40,
          "time": 172.13788799999983,
          "velocity": 0.7480314960629921,
          "duration": 0.4137929999999983
        },
        {
          "name": "C#3",
          "midi": 49,
          "time": 172.55168099999983,
          "velocity": 0.7480314960629921,
          "duration": 0.20689649999999915
        },
        {
          "name": "B1",
          "midi": 35,
          "time": 172.55168099999983,
          "velocity": 0.7480314960629921,
          "duration": 0.20689649999999915
        },
        {
          "name": "B1",
          "midi": 35,
          "time": 172.75857749999983,
          "velocity": 0.7480314960629921,
          "duration": 0.20689649999999915
        },
        {
          "name": "D#3",
          "midi": 51,
          "time": 172.96547399999983,
          "velocity": 0.7480314960629921,
          "duration": 0.20689649999999915
        },
        {
          "name": "E2",
          "midi": 40,
          "time": 172.96547399999983,
          "velocity": 0.7480314960629921,
          "duration": 0.20689649999999915
        },
        {
          "name": "B1",
          "midi": 35,
          "time": 173.17237049999983,
          "velocity": 0.7480314960629921,
          "duration": 0.20689649999999915
        },
        {
          "name": "D#3",
          "midi": 51,
          "time": 173.37926699999983,
          "velocity": 0.7480314960629921,
          "duration": 0.20689649999999915
        },
        {
          "name": "B1",
          "midi": 35,
          "time": 173.37926699999983,
          "velocity": 0.7480314960629921,
          "duration": 0.20689649999999915
        },
        {
          "name": "B1",
          "midi": 35,
          "time": 173.58616349999983,
          "velocity": 0.7480314960629921,
          "duration": 0.20689649999999915
        },
        {
          "name": "D#3",
          "midi": 51,
          "time": 173.79305999999983,
          "velocity": 0.7480314960629921,
          "duration": 0.20689649999999915
        },
        {
          "name": "E2",
          "midi": 40,
          "time": 173.79305999999983,
          "velocity": 0.7480314960629921,
          "duration": 0.20689649999999915
        },
        {
          "name": "B1",
          "midi": 35,
          "time": 173.99995649999983,
          "velocity": 0.7480314960629921,
          "duration": 0.20689649999999915
        },
        {
          "name": "D#3",
          "midi": 51,
          "time": 174.20685299999982,
          "velocity": 0.7480314960629921,
          "duration": 0.20689649999999915
        },
        {
          "name": "B1",
          "midi": 35,
          "time": 174.20685299999982,
          "velocity": 0.7480314960629921,
          "duration": 0.20689649999999915
        },
        {
          "name": "B1",
          "midi": 35,
          "time": 174.41374949999982,
          "velocity": 0.7480314960629921,
          "duration": 0.20689649999999915
        },
        {
          "name": "D#3",
          "midi": 51,
          "time": 174.62064599999982,
          "velocity": 0.7480314960629921,
          "duration": 0.20689649999999915
        },
        {
          "name": "E2",
          "midi": 40,
          "time": 174.62064599999982,
          "velocity": 0.7480314960629921,
          "duration": 0.20689649999999915
        },
        {
          "name": "B1",
          "midi": 35,
          "time": 174.82754249999982,
          "velocity": 0.7480314960629921,
          "duration": 0.20689649999999915
        },
        {
          "name": "D#3",
          "midi": 51,
          "time": 175.03443899999982,
          "velocity": 0.7480314960629921,
          "duration": 0.20689649999999915
        },
        {
          "name": "B1",
          "midi": 35,
          "time": 175.03443899999982,
          "velocity": 0.7480314960629921,
          "duration": 0.20689649999999915
        },
        {
          "name": "E2",
          "midi": 40,
          "time": 175.24133549999982,
          "velocity": 0.7480314960629921,
          "duration": 0.10344825000001379
        },
        {
          "name": "E2",
          "midi": 40,
          "time": 175.34478374999983,
          "velocity": 0.7480314960629921,
          "duration": 0.10344825000001379
        },
        {
          "name": "D#3",
          "midi": 51,
          "time": 175.44823199999985,
          "velocity": 0.7480314960629921,
          "duration": 0.20689649999999915
        },
        {
          "name": "B1",
          "midi": 35,
          "time": 175.44823199999985,
          "velocity": 0.7480314960629921,
          "duration": 0.20689649999999915
        },
        {
          "name": "B1",
          "midi": 35,
          "time": 175.65512849999985,
          "velocity": 0.7480314960629921,
          "duration": 0.20689649999999915
        },
        {
          "name": "D#3",
          "midi": 51,
          "time": 175.86202499999985,
          "velocity": 0.7480314960629921,
          "duration": 0.20689649999999915
        },
        {
          "name": "E2",
          "midi": 40,
          "time": 175.86202499999985,
          "velocity": 0.7480314960629921,
          "duration": 0.20689649999999915
        },
        {
          "name": "B1",
          "midi": 35,
          "time": 176.06892149999985,
          "velocity": 0.7480314960629921,
          "duration": 0.20689649999999915
        },
        {
          "name": "D#3",
          "midi": 51,
          "time": 176.27581799999984,
          "velocity": 0.7480314960629921,
          "duration": 0.20689649999999915
        },
        {
          "name": "B1",
          "midi": 35,
          "time": 176.27581799999984,
          "velocity": 0.7480314960629921,
          "duration": 0.20689649999999915
        },
        {
          "name": "B1",
          "midi": 35,
          "time": 176.48271449999984,
          "velocity": 0.7480314960629921,
          "duration": 0.20689649999999915
        },
        {
          "name": "D#3",
          "midi": 51,
          "time": 176.68961099999984,
          "velocity": 0.7480314960629921,
          "duration": 0.20689649999999915
        },
        {
          "name": "E2",
          "midi": 40,
          "time": 176.68961099999984,
          "velocity": 0.7480314960629921,
          "duration": 0.20689649999999915
        },
        {
          "name": "B1",
          "midi": 35,
          "time": 176.89650749999984,
          "velocity": 0.7480314960629921,
          "duration": 0.20689649999999915
        },
        {
          "name": "D#3",
          "midi": 51,
          "time": 177.10340399999984,
          "velocity": 0.7480314960629921,
          "duration": 0.20689649999999915
        },
        {
          "name": "B1",
          "midi": 35,
          "time": 177.10340399999984,
          "velocity": 0.7480314960629921,
          "duration": 0.20689649999999915
        },
        {
          "name": "B1",
          "midi": 35,
          "time": 177.31030049999984,
          "velocity": 0.7480314960629921,
          "duration": 0.20689649999999915
        },
        {
          "name": "D#3",
          "midi": 51,
          "time": 177.51719699999984,
          "velocity": 0.7480314960629921,
          "duration": 0.20689649999999915
        },
        {
          "name": "E2",
          "midi": 40,
          "time": 177.51719699999984,
          "velocity": 0.7480314960629921,
          "duration": 0.20689649999999915
        },
        {
          "name": "B1",
          "midi": 35,
          "time": 177.72409349999984,
          "velocity": 0.7480314960629921,
          "duration": 0.20689649999999915
        },
        {
          "name": "D#3",
          "midi": 51,
          "time": 177.93098999999984,
          "velocity": 0.7480314960629921,
          "duration": 0.10344825000001379
        },
        {
          "name": "E2",
          "midi": 40,
          "time": 177.93098999999984,
          "velocity": 0.7480314960629921,
          "duration": 0.10344825000001379
        },
        {
          "name": "E2",
          "midi": 40,
          "time": 178.03443824999985,
          "velocity": 0.7480314960629921,
          "duration": 0.10344825000001379
        },
        {
          "name": "B1",
          "midi": 35,
          "time": 178.13788649999987,
          "velocity": 0.7480314960629921,
          "duration": 0.20689649999999915
        },
        {
          "name": "C#3",
          "midi": 49,
          "time": 178.34478299999986,
          "velocity": 0.7480314960629921,
          "duration": 0.20689649999999915
        },
        {
          "name": "B1",
          "midi": 35,
          "time": 178.34478299999986,
          "velocity": 0.7480314960629921,
          "duration": 0.20689649999999915
        },
        {
          "name": "B1",
          "midi": 35,
          "time": 178.55167949999986,
          "velocity": 0.7480314960629921,
          "duration": 0.20689649999999915
        },
        {
          "name": "D#3",
          "midi": 51,
          "time": 178.75857599999986,
          "velocity": 0.7480314960629921,
          "duration": 0.20689649999999915
        },
        {
          "name": "E2",
          "midi": 40,
          "time": 178.75857599999986,
          "velocity": 0.7480314960629921,
          "duration": 0.20689649999999915
        },
        {
          "name": "B1",
          "midi": 35,
          "time": 178.96547249999986,
          "velocity": 0.7480314960629921,
          "duration": 0.20689649999999915
        },
        {
          "name": "D#3",
          "midi": 51,
          "time": 179.17236899999986,
          "velocity": 0.7480314960629921,
          "duration": 0.20689649999999915
        },
        {
          "name": "B1",
          "midi": 35,
          "time": 179.17236899999986,
          "velocity": 0.7480314960629921,
          "duration": 0.20689649999999915
        },
        {
          "name": "B1",
          "midi": 35,
          "time": 179.37926549999986,
          "velocity": 0.7480314960629921,
          "duration": 0.20689649999999915
        },
        {
          "name": "D#3",
          "midi": 51,
          "time": 179.58616199999986,
          "velocity": 0.7480314960629921,
          "duration": 0.20689649999999915
        },
        {
          "name": "E2",
          "midi": 40,
          "time": 179.58616199999986,
          "velocity": 0.7480314960629921,
          "duration": 0.20689649999999915
        },
        {
          "name": "B1",
          "midi": 35,
          "time": 179.79305849999986,
          "velocity": 0.7480314960629921,
          "duration": 0.20689649999999915
        },
        {
          "name": "D#3",
          "midi": 51,
          "time": 179.99995499999986,
          "velocity": 0.7480314960629921,
          "duration": 0.20689649999999915
        },
        {
          "name": "B1",
          "midi": 35,
          "time": 179.99995499999986,
          "velocity": 0.7480314960629921,
          "duration": 0.20689649999999915
        },
        {
          "name": "B1",
          "midi": 35,
          "time": 180.20685149999986,
          "velocity": 0.7480314960629921,
          "duration": 0.20689649999999915
        },
        {
          "name": "D#3",
          "midi": 51,
          "time": 180.41374799999986,
          "velocity": 0.7480314960629921,
          "duration": 0.20689649999999915
        },
        {
          "name": "E2",
          "midi": 40,
          "time": 180.41374799999986,
          "velocity": 0.7480314960629921,
          "duration": 0.20689649999999915
        },
        {
          "name": "B1",
          "midi": 35,
          "time": 180.62064449999986,
          "velocity": 0.7480314960629921,
          "duration": 0.20689649999999915
        },
        {
          "name": "D#3",
          "midi": 51,
          "time": 180.82754099999985,
          "velocity": 0.7480314960629921,
          "duration": 0.20689649999999915
        },
        {
          "name": "B1",
          "midi": 35,
          "time": 180.82754099999985,
          "velocity": 0.7480314960629921,
          "duration": 0.20689649999999915
        },
        {
          "name": "E2",
          "midi": 40,
          "time": 181.03443749999985,
          "velocity": 0.7480314960629921,
          "duration": 0.20689649999999915
        },
        {
          "name": "D#3",
          "midi": 51,
          "time": 181.24133399999985,
          "velocity": 0.7480314960629921,
          "duration": 0.20689649999999915
        },
        {
          "name": "B1",
          "midi": 35,
          "time": 181.24133399999985,
          "velocity": 0.7480314960629921,
          "duration": 0.20689649999999915
        },
        {
          "name": "B1",
          "midi": 35,
          "time": 181.44823049999985,
          "velocity": 0.7480314960629921,
          "duration": 0.20689649999999915
        },
        {
          "name": "D#3",
          "midi": 51,
          "time": 181.65512699999985,
          "velocity": 0.7480314960629921,
          "duration": 0.20689649999999915
        },
        {
          "name": "E2",
          "midi": 40,
          "time": 181.65512699999985,
          "velocity": 0.7480314960629921,
          "duration": 0.20689649999999915
        },
        {
          "name": "B1",
          "midi": 35,
          "time": 181.86202349999985,
          "velocity": 0.7480314960629921,
          "duration": 0.20689649999999915
        },
        {
          "name": "D#3",
          "midi": 51,
          "time": 182.06891999999985,
          "velocity": 0.7480314960629921,
          "duration": 0.20689649999999915
        },
        {
          "name": "B1",
          "midi": 35,
          "time": 182.06891999999985,
          "velocity": 0.7480314960629921,
          "duration": 0.20689649999999915
        },
        {
          "name": "B1",
          "midi": 35,
          "time": 182.27581649999985,
          "velocity": 0.7480314960629921,
          "duration": 0.20689649999999915
        },
        {
          "name": "D#3",
          "midi": 51,
          "time": 182.48271299999985,
          "velocity": 0.7480314960629921,
          "duration": 0.20689649999999915
        },
        {
          "name": "E2",
          "midi": 40,
          "time": 182.48271299999985,
          "velocity": 0.7480314960629921,
          "duration": 0.20689649999999915
        },
        {
          "name": "B1",
          "midi": 35,
          "time": 182.68960949999985,
          "velocity": 0.7480314960629921,
          "duration": 0.20689649999999915
        },
        {
          "name": "D#3",
          "midi": 51,
          "time": 182.89650599999985,
          "velocity": 0.7480314960629921,
          "duration": 0.20689649999999915
        },
        {
          "name": "B1",
          "midi": 35,
          "time": 182.89650599999985,
          "velocity": 0.7480314960629921,
          "duration": 0.20689649999999915
        },
        {
          "name": "B1",
          "midi": 35,
          "time": 183.10340249999985,
          "velocity": 0.7480314960629921,
          "duration": 0.20689649999999915
        },
        {
          "name": "D#3",
          "midi": 51,
          "time": 183.31029899999984,
          "velocity": 0.7480314960629921,
          "duration": 0.20689649999999915
        },
        {
          "name": "E2",
          "midi": 40,
          "time": 183.31029899999984,
          "velocity": 0.7480314960629921,
          "duration": 0.20689649999999915
        },
        {
          "name": "B1",
          "midi": 35,
          "time": 183.51719549999984,
          "velocity": 0.7480314960629921,
          "duration": 0.20689649999999915
        },
        {
          "name": "D#3",
          "midi": 51,
          "time": 183.72409199999984,
          "velocity": 0.7480314960629921,
          "duration": 0.10344825000001379
        },
        {
          "name": "E2",
          "midi": 40,
          "time": 183.72409199999984,
          "velocity": 0.7480314960629921,
          "duration": 0.10344825000001379
        },
        {
          "name": "E2",
          "midi": 40,
          "time": 183.82754024999986,
          "velocity": 0.7480314960629921,
          "duration": 0.10344825000001379
        },
        {
          "name": "B1",
          "midi": 35,
          "time": 183.93098849999987,
          "velocity": 0.7480314960629921,
          "duration": 0.20689649999999915
        },
        {
          "name": "D#3",
          "midi": 51,
          "time": 184.13788499999987,
          "velocity": 0.7480314960629921,
          "duration": 0.20689649999999915
        },
        {
          "name": "B1",
          "midi": 35,
          "time": 184.13788499999987,
          "velocity": 0.7480314960629921,
          "duration": 0.20689649999999915
        },
        {
          "name": "B1",
          "midi": 35,
          "time": 184.34478149999987,
          "velocity": 0.7480314960629921,
          "duration": 0.20689649999999915
        },
        {
          "name": "D#3",
          "midi": 51,
          "time": 184.55167799999987,
          "velocity": 0.7480314960629921,
          "duration": 0.20689649999999915
        },
        {
          "name": "E2",
          "midi": 40,
          "time": 184.55167799999987,
          "velocity": 0.7480314960629921,
          "duration": 0.20689649999999915
        },
        {
          "name": "B1",
          "midi": 35,
          "time": 184.75857449999987,
          "velocity": 0.7480314960629921,
          "duration": 0.20689649999999915
        },
        {
          "name": "D#3",
          "midi": 51,
          "time": 184.96547099999987,
          "velocity": 0.7480314960629921,
          "duration": 0.20689649999999915
        },
        {
          "name": "B1",
          "midi": 35,
          "time": 184.96547099999987,
          "velocity": 0.7480314960629921,
          "duration": 0.20689649999999915
        },
        {
          "name": "B1",
          "midi": 35,
          "time": 185.17236749999987,
          "velocity": 0.7480314960629921,
          "duration": 0.20689649999999915
        },
        {
          "name": "D#3",
          "midi": 51,
          "time": 185.37926399999986,
          "velocity": 0.7480314960629921,
          "duration": 0.20689649999999915
        },
        {
          "name": "E2",
          "midi": 40,
          "time": 185.37926399999986,
          "velocity": 0.7480314960629921,
          "duration": 0.20689649999999915
        },
        {
          "name": "B1",
          "midi": 35,
          "time": 185.58616049999986,
          "velocity": 0.7480314960629921,
          "duration": 0.20689649999999915
        },
        {
          "name": "D#3",
          "midi": 51,
          "time": 185.79305699999986,
          "velocity": 0.7480314960629921,
          "duration": 0.20689649999999915
        },
        {
          "name": "B1",
          "midi": 35,
          "time": 185.79305699999986,
          "velocity": 0.7480314960629921,
          "duration": 0.20689649999999915
        },
        {
          "name": "B1",
          "midi": 35,
          "time": 185.99995349999986,
          "velocity": 0.7480314960629921,
          "duration": 0.20689649999999915
        },
        {
          "name": "D#3",
          "midi": 51,
          "time": 186.20684999999986,
          "velocity": 0.7480314960629921,
          "duration": 0.20689649999999915
        },
        {
          "name": "E2",
          "midi": 40,
          "time": 186.20684999999986,
          "velocity": 0.7480314960629921,
          "duration": 0.20689649999999915
        },
        {
          "name": "B1",
          "midi": 35,
          "time": 186.41374649999986,
          "velocity": 0.7480314960629921,
          "duration": 0.20689649999999915
        },
        {
          "name": "D2",
          "midi": 38,
          "time": 186.62064299999986,
          "velocity": 0.7480314960629921,
          "duration": 0.4137929999999983
        },
        {
          "name": "E2",
          "midi": 40,
          "time": 186.62064299999986,
          "velocity": 0.7480314960629921,
          "duration": 0.4137929999999983
        },
        {
          "name": "A#2",
          "midi": 46,
          "time": 187.03443599999986,
          "velocity": 0.7480314960629921,
          "duration": 0.20689649999999915
        },
        {
          "name": "B1",
          "midi": 35,
          "time": 187.03443599999986,
          "velocity": 0.7480314960629921,
          "duration": 0.20689649999999915
        },
        {
          "name": "B1",
          "midi": 35,
          "time": 187.24133249999986,
          "velocity": 0.7480314960629921,
          "duration": 0.20689649999999915
        },
        {
          "name": "A#2",
          "midi": 46,
          "time": 187.44822899999986,
          "velocity": 0.7480314960629921,
          "duration": 0.20689649999999915
        },
        {
          "name": "E2",
          "midi": 40,
          "time": 187.44822899999986,
          "velocity": 0.7480314960629921,
          "duration": 0.20689649999999915
        },
        {
          "name": "B1",
          "midi": 35,
          "time": 187.65512549999985,
          "velocity": 0.7480314960629921,
          "duration": 0.20689649999999915
        },
        {
          "name": "A#2",
          "midi": 46,
          "time": 187.86202199999985,
          "velocity": 0.7480314960629921,
          "duration": 0.20689649999999915
        },
        {
          "name": "B1",
          "midi": 35,
          "time": 187.86202199999985,
          "velocity": 0.7480314960629921,
          "duration": 0.4137929999999983
        },
        {
          "name": "A#2",
          "midi": 46,
          "time": 188.27581499999985,
          "velocity": 0.7480314960629921,
          "duration": 0.20689649999999915
        },
        {
          "name": "E2",
          "midi": 40,
          "time": 188.27581499999985,
          "velocity": 0.7480314960629921,
          "duration": 0.20689649999999915
        },
        {
          "name": "B1",
          "midi": 35,
          "time": 188.48271149999985,
          "velocity": 0.7480314960629921,
          "duration": 0.4137929999999983
        },
        {
          "name": "A#2",
          "midi": 46,
          "time": 188.68960799999985,
          "velocity": 0.7480314960629921,
          "duration": 0.20689649999999915
        },
        {
          "name": "B1",
          "midi": 35,
          "time": 188.89650449999985,
          "velocity": 0.7480314960629921,
          "duration": 0.20689649999999915
        },
        {
          "name": "A#2",
          "midi": 46,
          "time": 189.10340099999985,
          "velocity": 0.7480314960629921,
          "duration": 0.4137929999999983
        },
        {
          "name": "E2",
          "midi": 40,
          "time": 189.10340099999985,
          "velocity": 0.7480314960629921,
          "duration": 0.4137929999999983
        },
        {
          "name": "A#2",
          "midi": 46,
          "time": 189.51719399999985,
          "velocity": 0.7480314960629921,
          "duration": 0.20689649999999915
        },
        {
          "name": "B1",
          "midi": 35,
          "time": 189.51719399999985,
          "velocity": 0.7480314960629921,
          "duration": 0.20689649999999915
        },
        {
          "name": "A2",
          "midi": 45,
          "time": 189.72409049999985,
          "velocity": 0.7480314960629921,
          "duration": 0.07758618750000323
        },
        {
          "name": "G2",
          "midi": 43,
          "time": 189.80167668749985,
          "velocity": 0.7480314960629921,
          "duration": 0.07758618750000323
        },
        {
          "name": "F2",
          "midi": 41,
          "time": 189.87926287499985,
          "velocity": 0.7480314960629921,
          "duration": 0.465517124999991
        },
        {
          "name": "C#3",
          "midi": 49,
          "time": 190.34477999999984,
          "velocity": 0.7480314960629921,
          "duration": 0.20689649999999915
        },
        {
          "name": "B1",
          "midi": 35,
          "time": 190.34477999999984,
          "velocity": 0.7480314960629921,
          "duration": 0.20689649999999915
        },
        {
          "name": "B1",
          "midi": 35,
          "time": 190.55167649999984,
          "velocity": 0.7480314960629921,
          "duration": 0.20689649999999915
        },
        {
          "name": "A#2",
          "midi": 46,
          "time": 190.75857299999984,
          "velocity": 0.7480314960629921,
          "duration": 0.20689649999999915
        },
        {
          "name": "E2",
          "midi": 40,
          "time": 190.75857299999984,
          "velocity": 0.7480314960629921,
          "duration": 0.20689649999999915
        },
        {
          "name": "B1",
          "midi": 35,
          "time": 190.96546949999984,
          "velocity": 0.7480314960629921,
          "duration": 0.20689649999999915
        },
        {
          "name": "A#2",
          "midi": 46,
          "time": 191.17236599999984,
          "velocity": 0.7480314960629921,
          "duration": 0.4137929999999983
        },
        {
          "name": "B1",
          "midi": 35,
          "time": 191.17236599999984,
          "velocity": 0.7480314960629921,
          "duration": 0.4137929999999983
        },
        {
          "name": "A#2",
          "midi": 46,
          "time": 191.58615899999984,
          "velocity": 0.7480314960629921,
          "duration": 0.20689649999999915
        },
        {
          "name": "E2",
          "midi": 40,
          "time": 191.58615899999984,
          "velocity": 0.7480314960629921,
          "duration": 0.20689649999999915
        },
        {
          "name": "B1",
          "midi": 35,
          "time": 191.79305549999984,
          "velocity": 0.7480314960629921,
          "duration": 0.20689649999999915
        },
        {
          "name": "A#2",
          "midi": 46,
          "time": 191.99995199999984,
          "velocity": 0.7480314960629921,
          "duration": 0.20689649999999915
        },
        {
          "name": "B1",
          "midi": 35,
          "time": 191.99995199999984,
          "velocity": 0.7480314960629921,
          "duration": 0.20689649999999915
        },
        {
          "name": "E2",
          "midi": 40,
          "time": 192.20684849999984,
          "velocity": 0.7480314960629921,
          "duration": 0.10344825000001379
        },
        {
          "name": "E2",
          "midi": 40,
          "time": 192.31029674999985,
          "velocity": 0.7480314960629921,
          "duration": 0.10344825000001379
        },
        {
          "name": "E2",
          "midi": 40,
          "time": 192.41374499999986,
          "velocity": 0.7480314960629921,
          "duration": 0.10344825000001379
        },
        {
          "name": "E2",
          "midi": 40,
          "time": 192.51719324999988,
          "velocity": 0.7480314960629921,
          "duration": 0.10344825000001379
        },
        {
          "name": "G2",
          "midi": 43,
          "time": 192.6206414999999,
          "velocity": 0.7480314960629921,
          "duration": 0.20689649999999915
        },
        {
          "name": "E2",
          "midi": 40,
          "time": 192.8275379999999,
          "velocity": 0.7480314960629921,
          "duration": 0.20689649999999915
        },
        {
          "name": "E2",
          "midi": 40,
          "time": 193.0344344999999,
          "velocity": 0.7480314960629921,
          "duration": 0.10344825000001379
        },
        {
          "name": "E2",
          "midi": 40,
          "time": 193.1378827499999,
          "velocity": 0.7480314960629921,
          "duration": 0.10344825000001379
        },
        {
          "name": "E2",
          "midi": 40,
          "time": 193.24133099999992,
          "velocity": 0.7480314960629921,
          "duration": 0.10344825000001379
        },
        {
          "name": "E2",
          "midi": 40,
          "time": 193.34477924999993,
          "velocity": 0.7480314960629921,
          "duration": 0.10344825000001379
        },
        {
          "name": "E2",
          "midi": 40,
          "time": 193.44822749999994,
          "velocity": 0.7480314960629921,
          "duration": 0.10344825000001379
        },
        {
          "name": "E2",
          "midi": 40,
          "time": 193.55167574999996,
          "velocity": 0.7480314960629921,
          "duration": 0.10344825000001379
        },
        {
          "name": "A#2",
          "midi": 46,
          "time": 193.65512399999997,
          "velocity": 0.7480314960629921,
          "duration": 0.20689649999999915
        },
        {
          "name": "B1",
          "midi": 35,
          "time": 193.65512399999997,
          "velocity": 0.7480314960629921,
          "duration": 0.20689649999999915
        },
        {
          "name": "B1",
          "midi": 35,
          "time": 193.86202049999997,
          "velocity": 0.7480314960629921,
          "duration": 0.20689649999999915
        },
        {
          "name": "A#2",
          "midi": 46,
          "time": 194.06891699999997,
          "velocity": 0.7480314960629921,
          "duration": 0.20689649999999915
        },
        {
          "name": "E2",
          "midi": 40,
          "time": 194.06891699999997,
          "velocity": 0.7480314960629921,
          "duration": 0.20689649999999915
        },
        {
          "name": "B1",
          "midi": 35,
          "time": 194.27581349999997,
          "velocity": 0.7480314960629921,
          "duration": 0.20689649999999915
        },
        {
          "name": "A#2",
          "midi": 46,
          "time": 194.48270999999997,
          "velocity": 0.7480314960629921,
          "duration": 0.20689649999999915
        },
        {
          "name": "B1",
          "midi": 35,
          "time": 194.48270999999997,
          "velocity": 0.7480314960629921,
          "duration": 0.4137929999999983
        },
        {
          "name": "A#2",
          "midi": 46,
          "time": 194.89650299999997,
          "velocity": 0.7480314960629921,
          "duration": 0.20689649999999915
        },
        {
          "name": "E2",
          "midi": 40,
          "time": 194.89650299999997,
          "velocity": 0.7480314960629921,
          "duration": 0.20689649999999915
        },
        {
          "name": "B1",
          "midi": 35,
          "time": 195.10339949999997,
          "velocity": 0.7480314960629921,
          "duration": 0.20689649999999915
        },
        {
          "name": "A#2",
          "midi": 46,
          "time": 195.31029599999997,
          "velocity": 0.7480314960629921,
          "duration": 0.20689649999999915
        },
        {
          "name": "B1",
          "midi": 35,
          "time": 195.31029599999997,
          "velocity": 0.7480314960629921,
          "duration": 0.20689649999999915
        },
        {
          "name": "E2",
          "midi": 40,
          "time": 195.51719249999996,
          "velocity": 0.7480314960629921,
          "duration": 0.10344825000001379
        },
        {
          "name": "E2",
          "midi": 40,
          "time": 195.62064074999998,
          "velocity": 0.7480314960629921,
          "duration": 0.10344825000001379
        },
        {
          "name": "E2",
          "midi": 40,
          "time": 195.724089,
          "velocity": 0.7480314960629921,
          "duration": 0.10344825000001379
        },
        {
          "name": "E2",
          "midi": 40,
          "time": 195.82753725,
          "velocity": 0.7480314960629921,
          "duration": 0.10344825000001379
        },
        {
          "name": "E2",
          "midi": 40,
          "time": 195.93098550000002,
          "velocity": 0.7480314960629921,
          "duration": 0.10344825000001379
        },
        {
          "name": "E2",
          "midi": 40,
          "time": 196.03443375000003,
          "velocity": 0.7480314960629921,
          "duration": 0.10344825000001379
        },
        {
          "name": "G2",
          "midi": 43,
          "time": 196.13788200000005,
          "velocity": 0.7480314960629921,
          "duration": 0.10344825000001379
        },
        {
          "name": "G2",
          "midi": 43,
          "time": 196.24133025000006,
          "velocity": 0.7480314960629921,
          "duration": 0.10344825000001379
        },
        {
          "name": "G2",
          "midi": 43,
          "time": 196.34477850000007,
          "velocity": 0.7480314960629921,
          "duration": 0.10344825000001379
        },
        {
          "name": "G2",
          "midi": 43,
          "time": 196.4482267500001,
          "velocity": 0.7480314960629921,
          "duration": 0.10344825000001379
        },
        {
          "name": "F2",
          "midi": 41,
          "time": 196.5516750000001,
          "velocity": 0.7480314960629921,
          "duration": 0.10344825000001379
        },
        {
          "name": "F2",
          "midi": 41,
          "time": 196.65512325000012,
          "velocity": 0.7480314960629921,
          "duration": 0.10344825000001379
        },
        {
          "name": "F2",
          "midi": 41,
          "time": 196.75857150000013,
          "velocity": 0.7480314960629921,
          "duration": 0.10344825000001379
        },
        {
          "name": "F2",
          "midi": 41,
          "time": 196.86201975000014,
          "velocity": 0.7480314960629921,
          "duration": 0.10344825000001379
        },
        {
          "name": "C#3",
          "midi": 49,
          "time": 196.96546800000016,
          "velocity": 0.7480314960629921,
          "duration": 0.20689649999999915
        },
        {
          "name": "B1",
          "midi": 35,
          "time": 196.96546800000016,
          "velocity": 0.7480314960629921,
          "duration": 0.20689649999999915
        },
        {
          "name": "B1",
          "midi": 35,
          "time": 197.17236450000016,
          "velocity": 0.7480314960629921,
          "duration": 0.20689649999999915
        },
        {
          "name": "A#2",
          "midi": 46,
          "time": 197.37926100000016,
          "velocity": 0.7480314960629921,
          "duration": 0.20689649999999915
        },
        {
          "name": "E2",
          "midi": 40,
          "time": 197.37926100000016,
          "velocity": 0.7480314960629921,
          "duration": 0.20689649999999915
        },
        {
          "name": "B1",
          "midi": 35,
          "time": 197.58615750000016,
          "velocity": 0.7480314960629921,
          "duration": 0.20689649999999915
        },
        {
          "name": "A#2",
          "midi": 46,
          "time": 197.79305400000015,
          "velocity": 0.7480314960629921,
          "duration": 0.4137929999999983
        },
        {
          "name": "B1",
          "midi": 35,
          "time": 197.79305400000015,
          "velocity": 0.7480314960629921,
          "duration": 0.4137929999999983
        },
        {
          "name": "A#2",
          "midi": 46,
          "time": 198.20684700000015,
          "velocity": 0.7480314960629921,
          "duration": 0.20689649999999915
        },
        {
          "name": "E2",
          "midi": 40,
          "time": 198.20684700000015,
          "velocity": 0.7480314960629921,
          "duration": 0.20689649999999915
        },
        {
          "name": "B1",
          "midi": 35,
          "time": 198.41374350000015,
          "velocity": 0.7480314960629921,
          "duration": 0.20689649999999915
        },
        {
          "name": "A#2",
          "midi": 46,
          "time": 198.62064000000015,
          "velocity": 0.7480314960629921,
          "duration": 0.20689649999999915
        },
        {
          "name": "B1",
          "midi": 35,
          "time": 198.62064000000015,
          "velocity": 0.7480314960629921,
          "duration": 0.20689649999999915
        },
        {
          "name": "E2",
          "midi": 40,
          "time": 198.82753650000015,
          "velocity": 0.7480314960629921,
          "duration": 0.10344825000001379
        },
        {
          "name": "E2",
          "midi": 40,
          "time": 198.93098475000016,
          "velocity": 0.7480314960629921,
          "duration": 0.10344825000001379
        },
        {
          "name": "E2",
          "midi": 40,
          "time": 199.03443300000018,
          "velocity": 0.7480314960629921,
          "duration": 0.10344825000001379
        },
        {
          "name": "E2",
          "midi": 40,
          "time": 199.1378812500002,
          "velocity": 0.7480314960629921,
          "duration": 0.10344825000001379
        },
        {
          "name": "G2",
          "midi": 43,
          "time": 199.2413295000002,
          "velocity": 0.7480314960629921,
          "duration": 0.20689649999999915
        },
        {
          "name": "E2",
          "midi": 40,
          "time": 199.4482260000002,
          "velocity": 0.7480314960629921,
          "duration": 0.10344825000001379
        },
        {
          "name": "E2",
          "midi": 40,
          "time": 199.55167425000022,
          "velocity": 0.7480314960629921,
          "duration": 0.20689649999999915
        },
        {
          "name": "E2",
          "midi": 40,
          "time": 199.75857075000022,
          "velocity": 0.7480314960629921,
          "duration": 0.10344825000001379
        },
        {
          "name": "E2",
          "midi": 40,
          "time": 199.86201900000023,
          "velocity": 0.7480314960629921,
          "duration": 0.10344825000001379
        },
        {
          "name": "E2",
          "midi": 40,
          "time": 199.96546725000024,
          "velocity": 0.7480314960629921,
          "duration": 0.31034475000001294
        },
        {
          "name": "C#3",
          "midi": 49,
          "time": 200.27581200000026,
          "velocity": 0.7480314960629921,
          "duration": 0.20689649999999915
        },
        {
          "name": "B1",
          "midi": 35,
          "time": 200.27581200000026,
          "velocity": 0.7480314960629921,
          "duration": 0.20689649999999915
        },
        {
          "name": "B1",
          "midi": 35,
          "time": 200.48270850000026,
          "velocity": 0.7480314960629921,
          "duration": 0.20689649999999915
        },
        {
          "name": "A3",
          "midi": 57,
          "time": 200.68960500000026,
          "velocity": 0.7480314960629921,
          "duration": 0.20689649999999915
        },
        {
          "name": "E2",
          "midi": 40,
          "time": 200.68960500000026,
          "velocity": 0.7480314960629921,
          "duration": 0.20689649999999915
        },
        {
          "name": "B1",
          "midi": 35,
          "time": 200.89650150000026,
          "velocity": 0.7480314960629921,
          "duration": 0.20689649999999915
        },
        {
          "name": "A3",
          "midi": 57,
          "time": 201.10339800000025,
          "velocity": 0.7480314960629921,
          "duration": 0.20689649999999915
        },
        {
          "name": "B1",
          "midi": 35,
          "time": 201.10339800000025,
          "velocity": 0.7480314960629921,
          "duration": 0.20689649999999915
        },
        {
          "name": "B1",
          "midi": 35,
          "time": 201.31029450000025,
          "velocity": 0.7480314960629921,
          "duration": 0.20689649999999915
        },
        {
          "name": "A3",
          "midi": 57,
          "time": 201.51719100000025,
          "velocity": 0.7480314960629921,
          "duration": 0.20689649999999915
        },
        {
          "name": "E2",
          "midi": 40,
          "time": 201.51719100000025,
          "velocity": 0.7480314960629921,
          "duration": 0.20689649999999915
        },
        {
          "name": "B1",
          "midi": 35,
          "time": 201.72408750000025,
          "velocity": 0.7480314960629921,
          "duration": 0.20689649999999915
        },
        {
          "name": "A3",
          "midi": 57,
          "time": 201.93098400000025,
          "velocity": 0.7480314960629921,
          "duration": 0.20689649999999915
        },
        {
          "name": "B1",
          "midi": 35,
          "time": 201.93098400000025,
          "velocity": 0.7480314960629921,
          "duration": 0.20689649999999915
        },
        {
          "name": "B1",
          "midi": 35,
          "time": 202.13788050000025,
          "velocity": 0.7480314960629921,
          "duration": 0.20689649999999915
        },
        {
          "name": "A3",
          "midi": 57,
          "time": 202.34477700000025,
          "velocity": 0.7480314960629921,
          "duration": 0.20689649999999915
        },
        {
          "name": "E2",
          "midi": 40,
          "time": 202.34477700000025,
          "velocity": 0.7480314960629921,
          "duration": 0.20689649999999915
        },
        {
          "name": "B1",
          "midi": 35,
          "time": 202.55167350000025,
          "velocity": 0.7480314960629921,
          "duration": 0.20689649999999915
        },
        {
          "name": "A3",
          "midi": 57,
          "time": 202.75857000000025,
          "velocity": 0.7480314960629921,
          "duration": 0.20689649999999915
        },
        {
          "name": "B1",
          "midi": 35,
          "time": 202.75857000000025,
          "velocity": 0.7480314960629921,
          "duration": 0.20689649999999915
        },
        {
          "name": "B1",
          "midi": 35,
          "time": 202.96546650000025,
          "velocity": 0.7480314960629921,
          "duration": 0.20689649999999915
        },
        {
          "name": "A3",
          "midi": 57,
          "time": 203.17236300000025,
          "velocity": 0.7480314960629921,
          "duration": 0.20689649999999915
        },
        {
          "name": "E2",
          "midi": 40,
          "time": 203.17236300000025,
          "velocity": 0.7480314960629921,
          "duration": 0.20689649999999915
        },
        {
          "name": "B1",
          "midi": 35,
          "time": 203.37925950000024,
          "velocity": 0.7480314960629921,
          "duration": 0.20689649999999915
        },
        {
          "name": "A3",
          "midi": 57,
          "time": 203.58615600000024,
          "velocity": 0.7480314960629921,
          "duration": 0.20689649999999915
        },
        {
          "name": "B1",
          "midi": 35,
          "time": 203.58615600000024,
          "velocity": 0.7480314960629921,
          "duration": 0.20689649999999915
        },
        {
          "name": "B1",
          "midi": 35,
          "time": 203.79305250000024,
          "velocity": 0.7480314960629921,
          "duration": 0.20689649999999915
        },
        {
          "name": "A3",
          "midi": 57,
          "time": 203.99994900000024,
          "velocity": 0.7480314960629921,
          "duration": 0.20689649999999915
        },
        {
          "name": "E2",
          "midi": 40,
          "time": 203.99994900000024,
          "velocity": 0.7480314960629921,
          "duration": 0.20689649999999915
        },
        {
          "name": "B1",
          "midi": 35,
          "time": 204.20684550000024,
          "velocity": 0.7480314960629921,
          "duration": 0.20689649999999915
        },
        {
          "name": "A3",
          "midi": 57,
          "time": 204.41374200000024,
          "velocity": 0.7480314960629921,
          "duration": 0.20689649999999915
        },
        {
          "name": "B1",
          "midi": 35,
          "time": 204.41374200000024,
          "velocity": 0.7480314960629921,
          "duration": 0.20689649999999915
        },
        {
          "name": "B1",
          "midi": 35,
          "time": 204.62063850000024,
          "velocity": 0.7480314960629921,
          "duration": 0.20689649999999915
        },
        {
          "name": "A3",
          "midi": 57,
          "time": 204.82753500000024,
          "velocity": 0.7480314960629921,
          "duration": 0.20689649999999915
        },
        {
          "name": "E2",
          "midi": 40,
          "time": 204.82753500000024,
          "velocity": 0.7480314960629921,
          "duration": 0.20689649999999915
        },
        {
          "name": "B1",
          "midi": 35,
          "time": 205.03443150000024,
          "velocity": 0.7480314960629921,
          "duration": 0.20689649999999915
        },
        {
          "name": "A3",
          "midi": 57,
          "time": 205.24132800000024,
          "velocity": 0.7480314960629921,
          "duration": 0.20689649999999915
        },
        {
          "name": "B1",
          "midi": 35,
          "time": 205.24132800000024,
          "velocity": 0.7480314960629921,
          "duration": 0.20689649999999915
        },
        {
          "name": "B1",
          "midi": 35,
          "time": 205.44822450000024,
          "velocity": 0.7480314960629921,
          "duration": 0.20689649999999915
        },
        {
          "name": "A3",
          "midi": 57,
          "time": 205.65512100000024,
          "velocity": 0.7480314960629921,
          "duration": 0.20689649999999915
        },
        {
          "name": "E2",
          "midi": 40,
          "time": 205.65512100000024,
          "velocity": 0.7480314960629921,
          "duration": 0.20689649999999915
        },
        {
          "name": "B1",
          "midi": 35,
          "time": 205.86201750000023,
          "velocity": 0.7480314960629921,
          "duration": 0.20689649999999915
        },
        {
          "name": "A3",
          "midi": 57,
          "time": 206.06891400000023,
          "velocity": 0.7480314960629921,
          "duration": 0.20689649999999915
        },
        {
          "name": "B1",
          "midi": 35,
          "time": 206.06891400000023,
          "velocity": 0.7480314960629921,
          "duration": 0.20689649999999915
        },
        {
          "name": "B1",
          "midi": 35,
          "time": 206.27581050000023,
          "velocity": 0.7480314960629921,
          "duration": 0.20689649999999915
        },
        {
          "name": "G3",
          "midi": 55,
          "time": 206.48270700000023,
          "velocity": 0.7480314960629921,
          "duration": 0.20689649999999915
        },
        {
          "name": "E2",
          "midi": 40,
          "time": 206.48270700000023,
          "velocity": 0.7480314960629921,
          "duration": 0.20689649999999915
        },
        {
          "name": "B1",
          "midi": 35,
          "time": 206.68960350000023,
          "velocity": 0.7480314960629921,
          "duration": 0.20689649999999915
        },
        {
          "name": "C#3",
          "midi": 49,
          "time": 206.89650000000023,
          "velocity": 0.7480314960629921,
          "duration": 0.20689649999999915
        },
        {
          "name": "B1",
          "midi": 35,
          "time": 206.89650000000023,
          "velocity": 0.7480314960629921,
          "duration": 0.20689649999999915
        },
        {
          "name": "B1",
          "midi": 35,
          "time": 207.10339650000023,
          "velocity": 0.7480314960629921,
          "duration": 0.20689649999999915
        },
        {
          "name": "A3",
          "midi": 57,
          "time": 207.31029300000023,
          "velocity": 0.7480314960629921,
          "duration": 0.20689649999999915
        },
        {
          "name": "E2",
          "midi": 40,
          "time": 207.31029300000023,
          "velocity": 0.7480314960629921,
          "duration": 0.20689649999999915
        },
        {
          "name": "B1",
          "midi": 35,
          "time": 207.51718950000023,
          "velocity": 0.7480314960629921,
          "duration": 0.20689649999999915
        },
        {
          "name": "A3",
          "midi": 57,
          "time": 207.72408600000023,
          "velocity": 0.7480314960629921,
          "duration": 0.20689649999999915
        },
        {
          "name": "B1",
          "midi": 35,
          "time": 207.72408600000023,
          "velocity": 0.7480314960629921,
          "duration": 0.20689649999999915
        },
        {
          "name": "B1",
          "midi": 35,
          "time": 207.93098250000023,
          "velocity": 0.7480314960629921,
          "duration": 0.20689649999999915
        },
        {
          "name": "A3",
          "midi": 57,
          "time": 208.13787900000023,
          "velocity": 0.7480314960629921,
          "duration": 0.20689649999999915
        },
        {
          "name": "E2",
          "midi": 40,
          "time": 208.13787900000023,
          "velocity": 0.7480314960629921,
          "duration": 0.20689649999999915
        },
        {
          "name": "B1",
          "midi": 35,
          "time": 208.34477550000022,
          "velocity": 0.7480314960629921,
          "duration": 0.20689649999999915
        },
        {
          "name": "A3",
          "midi": 57,
          "time": 208.55167200000022,
          "velocity": 0.7480314960629921,
          "duration": 0.20689649999999915
        },
        {
          "name": "B1",
          "midi": 35,
          "time": 208.55167200000022,
          "velocity": 0.7480314960629921,
          "duration": 0.20689649999999915
        },
        {
          "name": "B1",
          "midi": 35,
          "time": 208.75856850000022,
          "velocity": 0.7480314960629921,
          "duration": 0.20689649999999915
        },
        {
          "name": "A3",
          "midi": 57,
          "time": 208.96546500000022,
          "velocity": 0.7480314960629921,
          "duration": 0.20689649999999915
        },
        {
          "name": "E2",
          "midi": 40,
          "time": 208.96546500000022,
          "velocity": 0.7480314960629921,
          "duration": 0.20689649999999915
        },
        {
          "name": "B1",
          "midi": 35,
          "time": 209.17236150000022,
          "velocity": 0.7480314960629921,
          "duration": 0.20689649999999915
        },
        {
          "name": "A3",
          "midi": 57,
          "time": 209.37925800000022,
          "velocity": 0.7480314960629921,
          "duration": 0.20689649999999915
        },
        {
          "name": "B1",
          "midi": 35,
          "time": 209.37925800000022,
          "velocity": 0.7480314960629921,
          "duration": 0.20689649999999915
        },
        {
          "name": "B1",
          "midi": 35,
          "time": 209.58615450000022,
          "velocity": 0.7480314960629921,
          "duration": 0.20689649999999915
        },
        {
          "name": "A3",
          "midi": 57,
          "time": 209.79305100000022,
          "velocity": 0.7480314960629921,
          "duration": 0.20689649999999915
        },
        {
          "name": "E2",
          "midi": 40,
          "time": 209.79305100000022,
          "velocity": 0.7480314960629921,
          "duration": 0.20689649999999915
        },
        {
          "name": "B1",
          "midi": 35,
          "time": 209.99994750000022,
          "velocity": 0.7480314960629921,
          "duration": 0.20689649999999915
        },
        {
          "name": "A3",
          "midi": 57,
          "time": 210.20684400000022,
          "velocity": 0.7480314960629921,
          "duration": 0.20689649999999915
        },
        {
          "name": "B1",
          "midi": 35,
          "time": 210.20684400000022,
          "velocity": 0.7480314960629921,
          "duration": 0.20689649999999915
        },
        {
          "name": "B1",
          "midi": 35,
          "time": 210.41374050000022,
          "velocity": 0.7480314960629921,
          "duration": 0.20689649999999915
        },
        {
          "name": "A3",
          "midi": 57,
          "time": 210.62063700000022,
          "velocity": 0.7480314960629921,
          "duration": 0.20689649999999915
        },
        {
          "name": "E2",
          "midi": 40,
          "time": 210.62063700000022,
          "velocity": 0.7480314960629921,
          "duration": 0.20689649999999915
        },
        {
          "name": "B1",
          "midi": 35,
          "time": 210.82753350000021,
          "velocity": 0.7480314960629921,
          "duration": 0.20689649999999915
        },
        {
          "name": "A3",
          "midi": 57,
          "time": 211.0344300000002,
          "velocity": 0.7480314960629921,
          "duration": 0.20689649999999915
        },
        {
          "name": "B1",
          "midi": 35,
          "time": 211.0344300000002,
          "velocity": 0.7480314960629921,
          "duration": 0.20689649999999915
        },
        {
          "name": "E2",
          "midi": 40,
          "time": 211.2413265000002,
          "velocity": 0.7480314960629921,
          "duration": 0.10344825000001379
        },
        {
          "name": "E2",
          "midi": 40,
          "time": 211.34477475000023,
          "velocity": 0.7480314960629921,
          "duration": 0.10344825000001379
        },
        {
          "name": "E2",
          "midi": 40,
          "time": 211.44822300000024,
          "velocity": 0.7480314960629921,
          "duration": 0.10344825000001379
        },
        {
          "name": "E2",
          "midi": 40,
          "time": 211.55167125000025,
          "velocity": 0.7480314960629921,
          "duration": 0.10344825000001379
        },
        {
          "name": "E2",
          "midi": 40,
          "time": 211.65511950000027,
          "velocity": 0.7480314960629921,
          "duration": 0.10344825000001379
        },
        {
          "name": "E2",
          "midi": 40,
          "time": 211.75856775000028,
          "velocity": 0.7480314960629921,
          "duration": 0.10344825000001379
        },
        {
          "name": "A3",
          "midi": 57,
          "time": 211.8620160000003,
          "velocity": 0.7480314960629921,
          "duration": 0.20689649999999915
        },
        {
          "name": "B1",
          "midi": 35,
          "time": 211.8620160000003,
          "velocity": 0.7480314960629921,
          "duration": 0.20689649999999915
        },
        {
          "name": "B1",
          "midi": 35,
          "time": 212.0689125000003,
          "velocity": 0.7480314960629921,
          "duration": 0.20689649999999915
        },
        {
          "name": "A3",
          "midi": 57,
          "time": 212.2758090000003,
          "velocity": 0.7480314960629921,
          "duration": 0.20689649999999915
        },
        {
          "name": "E2",
          "midi": 40,
          "time": 212.2758090000003,
          "velocity": 0.7480314960629921,
          "duration": 0.20689649999999915
        },
        {
          "name": "B1",
          "midi": 35,
          "time": 212.4827055000003,
          "velocity": 0.7480314960629921,
          "duration": 0.20689649999999915
        },
        {
          "name": "A3",
          "midi": 57,
          "time": 212.6896020000003,
          "velocity": 0.7480314960629921,
          "duration": 0.20689649999999915
        },
        {
          "name": "B1",
          "midi": 35,
          "time": 212.6896020000003,
          "velocity": 0.7480314960629921,
          "duration": 0.20689649999999915
        },
        {
          "name": "B1",
          "midi": 35,
          "time": 212.8964985000003,
          "velocity": 0.7480314960629921,
          "duration": 0.20689649999999915
        },
        {
          "name": "A3",
          "midi": 57,
          "time": 213.1033950000003,
          "velocity": 0.7480314960629921,
          "duration": 0.20689649999999915
        },
        {
          "name": "E2",
          "midi": 40,
          "time": 213.1033950000003,
          "velocity": 0.7480314960629921,
          "duration": 0.20689649999999915
        },
        {
          "name": "B1",
          "midi": 35,
          "time": 213.3102915000003,
          "velocity": 0.7480314960629921,
          "duration": 0.20689649999999915
        },
        {
          "name": "A3",
          "midi": 57,
          "time": 213.5171880000003,
          "velocity": 0.7480314960629921,
          "duration": 0.20689649999999915
        },
        {
          "name": "B1",
          "midi": 35,
          "time": 213.5171880000003,
          "velocity": 0.7480314960629921,
          "duration": 0.20689649999999915
        },
        {
          "name": "B1",
          "midi": 35,
          "time": 213.7240845000003,
          "velocity": 0.7480314960629921,
          "duration": 0.20689649999999915
        },
        {
          "name": "A3",
          "midi": 57,
          "time": 213.9309810000003,
          "velocity": 0.7480314960629921,
          "duration": 0.20689649999999915
        },
        {
          "name": "E2",
          "midi": 40,
          "time": 213.9309810000003,
          "velocity": 0.7480314960629921,
          "duration": 0.20689649999999915
        },
        {
          "name": "B1",
          "midi": 35,
          "time": 214.1378775000003,
          "velocity": 0.7480314960629921,
          "duration": 0.20689649999999915
        },
        {
          "name": "A3",
          "midi": 57,
          "time": 214.34477400000029,
          "velocity": 0.7480314960629921,
          "duration": 0.20689649999999915
        },
        {
          "name": "B1",
          "midi": 35,
          "time": 214.34477400000029,
          "velocity": 0.7480314960629921,
          "duration": 0.20689649999999915
        },
        {
          "name": "B1",
          "midi": 35,
          "time": 214.55167050000028,
          "velocity": 0.7480314960629921,
          "duration": 0.20689649999999915
        },
        {
          "name": "A3",
          "midi": 57,
          "time": 214.75856700000028,
          "velocity": 0.7480314960629921,
          "duration": 0.20689649999999915
        },
        {
          "name": "E2",
          "midi": 40,
          "time": 214.75856700000028,
          "velocity": 0.7480314960629921,
          "duration": 0.20689649999999915
        },
        {
          "name": "B1",
          "midi": 35,
          "time": 214.96546350000028,
          "velocity": 0.7480314960629921,
          "duration": 0.20689649999999915
        },
        {
          "name": "A3",
          "midi": 57,
          "time": 215.17236000000028,
          "velocity": 0.7480314960629921,
          "duration": 0.20689649999999915
        },
        {
          "name": "B1",
          "midi": 35,
          "time": 215.17236000000028,
          "velocity": 0.7480314960629921,
          "duration": 0.20689649999999915
        },
        {
          "name": "B1",
          "midi": 35,
          "time": 215.37925650000028,
          "velocity": 0.7480314960629921,
          "duration": 0.20689649999999915
        },
        {
          "name": "A3",
          "midi": 57,
          "time": 215.58615300000028,
          "velocity": 0.7480314960629921,
          "duration": 0.20689649999999915
        },
        {
          "name": "E2",
          "midi": 40,
          "time": 215.58615300000028,
          "velocity": 0.7480314960629921,
          "duration": 0.20689649999999915
        },
        {
          "name": "B1",
          "midi": 35,
          "time": 215.79304950000028,
          "velocity": 0.7480314960629921,
          "duration": 0.20689649999999915
        },
        {
          "name": "A3",
          "midi": 57,
          "time": 215.99994600000028,
          "velocity": 0.7480314960629921,
          "duration": 0.20689649999999915
        },
        {
          "name": "B1",
          "midi": 35,
          "time": 215.99994600000028,
          "velocity": 0.7480314960629921,
          "duration": 0.20689649999999915
        },
        {
          "name": "B1",
          "midi": 35,
          "time": 216.20684250000028,
          "velocity": 0.7480314960629921,
          "duration": 0.20689649999999915
        },
        {
          "name": "G3",
          "midi": 55,
          "time": 216.41373900000028,
          "velocity": 0.7480314960629921,
          "duration": 0.20689649999999915
        },
        {
          "name": "B1",
          "midi": 35,
          "time": 216.41373900000028,
          "velocity": 0.7480314960629921,
          "duration": 0.20689649999999915
        },
        {
          "name": "E2",
          "midi": 40,
          "time": 216.62063550000028,
          "velocity": 0.7480314960629921,
          "duration": 0.20689649999999915
        },
        {
          "name": "C#3",
          "midi": 49,
          "time": 216.82753200000028,
          "velocity": 0.7480314960629921,
          "duration": 0.20689649999999915
        },
        {
          "name": "B1",
          "midi": 35,
          "time": 216.82753200000028,
          "velocity": 0.7480314960629921,
          "duration": 0.20689649999999915
        },
        {
          "name": "B1",
          "midi": 35,
          "time": 217.03442850000027,
          "velocity": 0.7480314960629921,
          "duration": 0.20689649999999915
        },
        {
          "name": "A3",
          "midi": 57,
          "time": 217.24132500000027,
          "velocity": 0.7480314960629921,
          "duration": 0.20689649999999915
        },
        {
          "name": "E2",
          "midi": 40,
          "time": 217.24132500000027,
          "velocity": 0.7480314960629921,
          "duration": 0.20689649999999915
        },
        {
          "name": "B1",
          "midi": 35,
          "time": 217.44822150000027,
          "velocity": 0.7480314960629921,
          "duration": 0.20689649999999915
        },
        {
          "name": "A3",
          "midi": 57,
          "time": 217.65511800000027,
          "velocity": 0.7480314960629921,
          "duration": 0.20689649999999915
        },
        {
          "name": "B1",
          "midi": 35,
          "time": 217.65511800000027,
          "velocity": 0.7480314960629921,
          "duration": 0.20689649999999915
        },
        {
          "name": "B1",
          "midi": 35,
          "time": 217.86201450000027,
          "velocity": 0.7480314960629921,
          "duration": 0.20689649999999915
        },
        {
          "name": "G3",
          "midi": 55,
          "time": 218.06891100000027,
          "velocity": 0.7480314960629921,
          "duration": 0.20689649999999915
        },
        {
          "name": "E2",
          "midi": 40,
          "time": 218.06891100000027,
          "velocity": 0.7480314960629921,
          "duration": 0.20689649999999915
        },
        {
          "name": "B1",
          "midi": 35,
          "time": 218.27580750000027,
          "velocity": 0.7480314960629921,
          "duration": 0.20689649999999915
        },
        {
          "name": "C#3",
          "midi": 49,
          "time": 218.48270400000027,
          "velocity": 0.7480314960629921,
          "duration": 0.20689649999999915
        },
        {
          "name": "B1",
          "midi": 35,
          "time": 218.48270400000027,
          "velocity": 0.7480314960629921,
          "duration": 0.20689649999999915
        },
        {
          "name": "B1",
          "midi": 35,
          "time": 218.68960050000027,
          "velocity": 0.7480314960629921,
          "duration": 0.20689649999999915
        },
        {
          "name": "A3",
          "midi": 57,
          "time": 218.89649700000027,
          "velocity": 0.7480314960629921,
          "duration": 0.20689649999999915
        },
        {
          "name": "E2",
          "midi": 40,
          "time": 218.89649700000027,
          "velocity": 0.7480314960629921,
          "duration": 0.20689649999999915
        },
        {
          "name": "B1",
          "midi": 35,
          "time": 219.10339350000027,
          "velocity": 0.7480314960629921,
          "duration": 0.20689649999999915
        },
        {
          "name": "A3",
          "midi": 57,
          "time": 219.31029000000026,
          "velocity": 0.7480314960629921,
          "duration": 0.20689649999999915
        },
        {
          "name": "B1",
          "midi": 35,
          "time": 219.31029000000026,
          "velocity": 0.7480314960629921,
          "duration": 0.20689649999999915
        },
        {
          "name": "B1",
          "midi": 35,
          "time": 219.51718650000026,
          "velocity": 0.7480314960629921,
          "duration": 0.20689649999999915
        },
        {
          "name": "A3",
          "midi": 57,
          "time": 219.72408300000026,
          "velocity": 0.7480314960629921,
          "duration": 0.20689649999999915
        },
        {
          "name": "E2",
          "midi": 40,
          "time": 219.72408300000026,
          "velocity": 0.7480314960629921,
          "duration": 0.20689649999999915
        },
        {
          "name": "B1",
          "midi": 35,
          "time": 219.93097950000026,
          "velocity": 0.7480314960629921,
          "duration": 0.20689649999999915
        },
        {
          "name": "A3",
          "midi": 57,
          "time": 220.13787600000026,
          "velocity": 0.7480314960629921,
          "duration": 0.20689649999999915
        },
        {
          "name": "B1",
          "midi": 35,
          "time": 220.13787600000026,
          "velocity": 0.7480314960629921,
          "duration": 0.20689649999999915
        },
        {
          "name": "B1",
          "midi": 35,
          "time": 220.34477250000026,
          "velocity": 0.7480314960629921,
          "duration": 0.20689649999999915
        },
        {
          "name": "A3",
          "midi": 57,
          "time": 220.55166900000026,
          "velocity": 0.7480314960629921,
          "duration": 0.20689649999999915
        },
        {
          "name": "E2",
          "midi": 40,
          "time": 220.55166900000026,
          "velocity": 0.7480314960629921,
          "duration": 0.20689649999999915
        },
        {
          "name": "B1",
          "midi": 35,
          "time": 220.75856550000026,
          "velocity": 0.7480314960629921,
          "duration": 0.20689649999999915
        },
        {
          "name": "A3",
          "midi": 57,
          "time": 220.96546200000026,
          "velocity": 0.7480314960629921,
          "duration": 0.20689649999999915
        },
        {
          "name": "B1",
          "midi": 35,
          "time": 220.96546200000026,
          "velocity": 0.7480314960629921,
          "duration": 0.20689649999999915
        },
        {
          "name": "E2",
          "midi": 40,
          "time": 221.17235850000026,
          "velocity": 0.7480314960629921,
          "duration": 0.10344825000001379
        },
        {
          "name": "E2",
          "midi": 40,
          "time": 221.27580675000027,
          "velocity": 0.7480314960629921,
          "duration": 0.10344825000001379
        },
        {
          "name": "E2",
          "midi": 40,
          "time": 221.58615150000028,
          "velocity": 0.7480314960629921,
          "duration": 0.10344825000001379
        },
        {
          "name": "E2",
          "midi": 40,
          "time": 221.6895997500003,
          "velocity": 0.7480314960629921,
          "duration": 0.10344825000001379
        },
        {
          "name": "A3",
          "midi": 57,
          "time": 221.7930480000003,
          "velocity": 0.7480314960629921,
          "duration": 0.20689649999999915
        },
        {
          "name": "B1",
          "midi": 35,
          "time": 221.7930480000003,
          "velocity": 0.7480314960629921,
          "duration": 0.20689649999999915
        },
        {
          "name": "B1",
          "midi": 35,
          "time": 221.9999445000003,
          "velocity": 0.7480314960629921,
          "duration": 0.20689649999999915
        },
        {
          "name": "A3",
          "midi": 57,
          "time": 222.2068410000003,
          "velocity": 0.7480314960629921,
          "duration": 0.20689649999999915
        },
        {
          "name": "E2",
          "midi": 40,
          "time": 222.2068410000003,
          "velocity": 0.7480314960629921,
          "duration": 0.20689649999999915
        },
        {
          "name": "B1",
          "midi": 35,
          "time": 222.4137375000003,
          "velocity": 0.7480314960629921,
          "duration": 0.20689649999999915
        },
        {
          "name": "A3",
          "midi": 57,
          "time": 222.6206340000003,
          "velocity": 0.7480314960629921,
          "duration": 0.20689649999999915
        },
        {
          "name": "B1",
          "midi": 35,
          "time": 222.6206340000003,
          "velocity": 0.7480314960629921,
          "duration": 0.20689649999999915
        },
        {
          "name": "B1",
          "midi": 35,
          "time": 222.8275305000003,
          "velocity": 0.7480314960629921,
          "duration": 0.20689649999999915
        },
        {
          "name": "A3",
          "midi": 57,
          "time": 223.0344270000003,
          "velocity": 0.7480314960629921,
          "duration": 0.20689649999999915
        },
        {
          "name": "E2",
          "midi": 40,
          "time": 223.0344270000003,
          "velocity": 0.7480314960629921,
          "duration": 0.20689649999999915
        },
        {
          "name": "B1",
          "midi": 35,
          "time": 223.2413235000003,
          "velocity": 0.7480314960629921,
          "duration": 0.20689649999999915
        },
        {
          "name": "A3",
          "midi": 57,
          "time": 223.4482200000003,
          "velocity": 0.7480314960629921,
          "duration": 0.20689649999999915
        },
        {
          "name": "B1",
          "midi": 35,
          "time": 223.4482200000003,
          "velocity": 0.7480314960629921,
          "duration": 0.20689649999999915
        },
        {
          "name": "B1",
          "midi": 35,
          "time": 223.6551165000003,
          "velocity": 0.7480314960629921,
          "duration": 0.20689649999999915
        },
        {
          "name": "A3",
          "midi": 57,
          "time": 223.8620130000003,
          "velocity": 0.7480314960629921,
          "duration": 0.20689649999999915
        },
        {
          "name": "E2",
          "midi": 40,
          "time": 223.8620130000003,
          "velocity": 0.7480314960629921,
          "duration": 0.20689649999999915
        },
        {
          "name": "B1",
          "midi": 35,
          "time": 224.0689095000003,
          "velocity": 0.7480314960629921,
          "duration": 0.20689649999999915
        },
        {
          "name": "A3",
          "midi": 57,
          "time": 224.2758060000003,
          "velocity": 0.7480314960629921,
          "duration": 0.20689649999999915
        },
        {
          "name": "B1",
          "midi": 35,
          "time": 224.2758060000003,
          "velocity": 0.7480314960629921,
          "duration": 0.20689649999999915
        },
        {
          "name": "B1",
          "midi": 35,
          "time": 224.4827025000003,
          "velocity": 0.7480314960629921,
          "duration": 0.20689649999999915
        },
        {
          "name": "A3",
          "midi": 57,
          "time": 224.6895990000003,
          "velocity": 0.7480314960629921,
          "duration": 0.20689649999999915
        },
        {
          "name": "E2",
          "midi": 40,
          "time": 224.6895990000003,
          "velocity": 0.7480314960629921,
          "duration": 0.20689649999999915
        },
        {
          "name": "B1",
          "midi": 35,
          "time": 224.8964955000003,
          "velocity": 0.7480314960629921,
          "duration": 0.20689649999999915
        },
        {
          "name": "A3",
          "midi": 57,
          "time": 225.1033920000003,
          "velocity": 0.7480314960629921,
          "duration": 0.20689649999999915
        },
        {
          "name": "B1",
          "midi": 35,
          "time": 225.1033920000003,
          "velocity": 0.7480314960629921,
          "duration": 0.20689649999999915
        },
        {
          "name": "B1",
          "midi": 35,
          "time": 225.3102885000003,
          "velocity": 0.7480314960629921,
          "duration": 0.20689649999999915
        },
        {
          "name": "A3",
          "midi": 57,
          "time": 225.5171850000003,
          "velocity": 0.7480314960629921,
          "duration": 0.20689649999999915
        },
        {
          "name": "E2",
          "midi": 40,
          "time": 225.5171850000003,
          "velocity": 0.7480314960629921,
          "duration": 0.20689649999999915
        },
        {
          "name": "B1",
          "midi": 35,
          "time": 225.7240815000003,
          "velocity": 0.7480314960629921,
          "duration": 0.20689649999999915
        },
        {
          "name": "A3",
          "midi": 57,
          "time": 225.9309780000003,
          "velocity": 0.7480314960629921,
          "duration": 0.20689649999999915
        },
        {
          "name": "B1",
          "midi": 35,
          "time": 225.9309780000003,
          "velocity": 0.7480314960629921,
          "duration": 0.20689649999999915
        },
        {
          "name": "B1",
          "midi": 35,
          "time": 226.1378745000003,
          "velocity": 0.7480314960629921,
          "duration": 0.20689649999999915
        },
        {
          "name": "A3",
          "midi": 57,
          "time": 226.3447710000003,
          "velocity": 0.7480314960629921,
          "duration": 0.20689649999999915
        },
        {
          "name": "E2",
          "midi": 40,
          "time": 226.3447710000003,
          "velocity": 0.7480314960629921,
          "duration": 0.20689649999999915
        },
        {
          "name": "E2",
          "midi": 40,
          "time": 226.5516675000003,
          "velocity": 0.7480314960629921,
          "duration": 0.10344825000001379
        },
        {
          "name": "E2",
          "midi": 40,
          "time": 226.6551157500003,
          "velocity": 0.7480314960629921,
          "duration": 0.10344825000001379
        },
        {
          "name": "A3",
          "midi": 57,
          "time": 226.75856400000032,
          "velocity": 0.7480314960629921,
          "duration": 0.20689649999999915
        },
        {
          "name": "B1",
          "midi": 35,
          "time": 226.75856400000032,
          "velocity": 0.7480314960629921,
          "duration": 0.20689649999999915
        },
        {
          "name": "B1",
          "midi": 35,
          "time": 226.96546050000032,
          "velocity": 0.7480314960629921,
          "duration": 0.20689649999999915
        },
        {
          "name": "A3",
          "midi": 57,
          "time": 227.17235700000032,
          "velocity": 0.7480314960629921,
          "duration": 0.20689649999999915
        },
        {
          "name": "E2",
          "midi": 40,
          "time": 227.17235700000032,
          "velocity": 0.7480314960629921,
          "duration": 0.20689649999999915
        },
        {
          "name": "B1",
          "midi": 35,
          "time": 227.37925350000032,
          "velocity": 0.7480314960629921,
          "duration": 0.20689649999999915
        },
        {
          "name": "A3",
          "midi": 57,
          "time": 227.58615000000032,
          "velocity": 0.7480314960629921,
          "duration": 0.20689649999999915
        },
        {
          "name": "B1",
          "midi": 35,
          "time": 227.58615000000032,
          "velocity": 0.7480314960629921,
          "duration": 0.20689649999999915
        },
        {
          "name": "B1",
          "midi": 35,
          "time": 227.79304650000032,
          "velocity": 0.7480314960629921,
          "duration": 0.20689649999999915
        },
        {
          "name": "A3",
          "midi": 57,
          "time": 227.99994300000031,
          "velocity": 0.7480314960629921,
          "duration": 0.20689649999999915
        },
        {
          "name": "E2",
          "midi": 40,
          "time": 227.99994300000031,
          "velocity": 0.7480314960629921,
          "duration": 0.20689649999999915
        },
        {
          "name": "B1",
          "midi": 35,
          "time": 228.2068395000003,
          "velocity": 0.7480314960629921,
          "duration": 0.20689649999999915
        },
        {
          "name": "A3",
          "midi": 57,
          "time": 228.4137360000003,
          "velocity": 0.7480314960629921,
          "duration": 0.20689649999999915
        },
        {
          "name": "B1",
          "midi": 35,
          "time": 228.4137360000003,
          "velocity": 0.7480314960629921,
          "duration": 0.20689649999999915
        },
        {
          "name": "B1",
          "midi": 35,
          "time": 228.6206325000003,
          "velocity": 0.7480314960629921,
          "duration": 0.20689649999999915
        },
        {
          "name": "A3",
          "midi": 57,
          "time": 228.8275290000003,
          "velocity": 0.7480314960629921,
          "duration": 0.20689649999999915
        },
        {
          "name": "E2",
          "midi": 40,
          "time": 228.8275290000003,
          "velocity": 0.7480314960629921,
          "duration": 0.20689649999999915
        },
        {
          "name": "B1",
          "midi": 35,
          "time": 229.0344255000003,
          "velocity": 0.7480314960629921,
          "duration": 0.20689649999999915
        },
        {
          "name": "A3",
          "midi": 57,
          "time": 229.2413220000003,
          "velocity": 0.7480314960629921,
          "duration": 0.20689649999999915
        },
        {
          "name": "B1",
          "midi": 35,
          "time": 229.2413220000003,
          "velocity": 0.7480314960629921,
          "duration": 0.20689649999999915
        },
        {
          "name": "B1",
          "midi": 35,
          "time": 229.4482185000003,
          "velocity": 0.7480314960629921,
          "duration": 0.20689649999999915
        },
        {
          "name": "A3",
          "midi": 57,
          "time": 229.6551150000003,
          "velocity": 0.7480314960629921,
          "duration": 0.20689649999999915
        },
        {
          "name": "E2",
          "midi": 40,
          "time": 229.6551150000003,
          "velocity": 0.7480314960629921,
          "duration": 0.20689649999999915
        },
        {
          "name": "B1",
          "midi": 35,
          "time": 229.8620115000003,
          "velocity": 0.7480314960629921,
          "duration": 0.20689649999999915
        },
        {
          "name": "A3",
          "midi": 57,
          "time": 230.0689080000003,
          "velocity": 0.7480314960629921,
          "duration": 0.20689649999999915
        },
        {
          "name": "B1",
          "midi": 35,
          "time": 230.0689080000003,
          "velocity": 0.7480314960629921,
          "duration": 0.20689649999999915
        },
        {
          "name": "B1",
          "midi": 35,
          "time": 230.2758045000003,
          "velocity": 0.7480314960629921,
          "duration": 0.20689649999999915
        },
        {
          "name": "A3",
          "midi": 57,
          "time": 230.4827010000003,
          "velocity": 0.7480314960629921,
          "duration": 0.20689649999999915
        },
        {
          "name": "E2",
          "midi": 40,
          "time": 230.4827010000003,
          "velocity": 0.7480314960629921,
          "duration": 0.20689649999999915
        },
        {
          "name": "B1",
          "midi": 35,
          "time": 230.6895975000003,
          "velocity": 0.7480314960629921,
          "duration": 0.20689649999999915
        },
        {
          "name": "A3",
          "midi": 57,
          "time": 230.8964940000003,
          "velocity": 0.7480314960629921,
          "duration": 0.20689649999999915
        },
        {
          "name": "B1",
          "midi": 35,
          "time": 230.8964940000003,
          "velocity": 0.7480314960629921,
          "duration": 0.20689649999999915
        },
        {
          "name": "B1",
          "midi": 35,
          "time": 231.1033905000003,
          "velocity": 0.7480314960629921,
          "duration": 0.20689649999999915
        },
        {
          "name": "A3",
          "midi": 57,
          "time": 231.3102870000003,
          "velocity": 0.7480314960629921,
          "duration": 0.20689649999999915
        },
        {
          "name": "E2",
          "midi": 40,
          "time": 231.3102870000003,
          "velocity": 0.7480314960629921,
          "duration": 0.20689649999999915
        },
        {
          "name": "E2",
          "midi": 40,
          "time": 231.5171835000003,
          "velocity": 0.7480314960629921,
          "duration": 0.10344825000001379
        },
        {
          "name": "E2",
          "midi": 40,
          "time": 231.6206317500003,
          "velocity": 0.7480314960629921,
          "duration": 0.10344825000001379
        },
        {
          "name": "A3",
          "midi": 57,
          "time": 231.72408000000033,
          "velocity": 0.7480314960629921,
          "duration": 0.20689649999999915
        },
        {
          "name": "B1",
          "midi": 35,
          "time": 231.72408000000033,
          "velocity": 0.7480314960629921,
          "duration": 0.20689649999999915
        },
        {
          "name": "B1",
          "midi": 35,
          "time": 231.93097650000033,
          "velocity": 0.7480314960629921,
          "duration": 0.20689649999999915
        },
        {
          "name": "A3",
          "midi": 57,
          "time": 232.13787300000033,
          "velocity": 0.7480314960629921,
          "duration": 0.20689649999999915
        },
        {
          "name": "E2",
          "midi": 40,
          "time": 232.13787300000033,
          "velocity": 0.7480314960629921,
          "duration": 0.20689649999999915
        },
        {
          "name": "B1",
          "midi": 35,
          "time": 232.34476950000033,
          "velocity": 0.7480314960629921,
          "duration": 0.20689649999999915
        },
        {
          "name": "A3",
          "midi": 57,
          "time": 232.55166600000032,
          "velocity": 0.7480314960629921,
          "duration": 0.20689649999999915
        },
        {
          "name": "B1",
          "midi": 35,
          "time": 232.55166600000032,
          "velocity": 0.7480314960629921,
          "duration": 0.20689649999999915
        },
        {
          "name": "B1",
          "midi": 35,
          "time": 232.75856250000032,
          "velocity": 0.7480314960629921,
          "duration": 0.20689649999999915
        },
        {
          "name": "A3",
          "midi": 57,
          "time": 232.96545900000032,
          "velocity": 0.7480314960629921,
          "duration": 0.20689649999999915
        },
        {
          "name": "E2",
          "midi": 40,
          "time": 232.96545900000032,
          "velocity": 0.7480314960629921,
          "duration": 0.20689649999999915
        },
        {
          "name": "B1",
          "midi": 35,
          "time": 233.17235550000032,
          "velocity": 0.7480314960629921,
          "duration": 0.20689649999999915
        },
        {
          "name": "A3",
          "midi": 57,
          "time": 233.37925200000032,
          "velocity": 0.7480314960629921,
          "duration": 0.20689649999999915
        },
        {
          "name": "B1",
          "midi": 35,
          "time": 233.37925200000032,
          "velocity": 0.7480314960629921,
          "duration": 0.20689649999999915
        },
        {
          "name": "B1",
          "midi": 35,
          "time": 233.58614850000032,
          "velocity": 0.7480314960629921,
          "duration": 0.20689649999999915
        },
        {
          "name": "A3",
          "midi": 57,
          "time": 233.79304500000032,
          "velocity": 0.7480314960629921,
          "duration": 0.20689649999999915
        },
        {
          "name": "E2",
          "midi": 40,
          "time": 233.79304500000032,
          "velocity": 0.7480314960629921,
          "duration": 0.20689649999999915
        },
        {
          "name": "B1",
          "midi": 35,
          "time": 233.99994150000032,
          "velocity": 0.7480314960629921,
          "duration": 0.20689649999999915
        },
        {
          "name": "A3",
          "midi": 57,
          "time": 234.20683800000032,
          "velocity": 0.7480314960629921,
          "duration": 0.20689649999999915
        },
        {
          "name": "B1",
          "midi": 35,
          "time": 234.20683800000032,
          "velocity": 0.7480314960629921,
          "duration": 0.20689649999999915
        },
        {
          "name": "B1",
          "midi": 35,
          "time": 234.41373450000032,
          "velocity": 0.7480314960629921,
          "duration": 0.20689649999999915
        },
        {
          "name": "A3",
          "midi": 57,
          "time": 234.62063100000032,
          "velocity": 0.7480314960629921,
          "duration": 0.20689649999999915
        },
        {
          "name": "E2",
          "midi": 40,
          "time": 234.62063100000032,
          "velocity": 0.7480314960629921,
          "duration": 0.20689649999999915
        },
        {
          "name": "B1",
          "midi": 35,
          "time": 234.82752750000031,
          "velocity": 0.7480314960629921,
          "duration": 0.20689649999999915
        },
        {
          "name": "A3",
          "midi": 57,
          "time": 235.0344240000003,
          "velocity": 0.7480314960629921,
          "duration": 0.20689649999999915
        },
        {
          "name": "B1",
          "midi": 35,
          "time": 235.0344240000003,
          "velocity": 0.7480314960629921,
          "duration": 0.20689649999999915
        },
        {
          "name": "B1",
          "midi": 35,
          "time": 235.2413205000003,
          "velocity": 0.7480314960629921,
          "duration": 0.20689649999999915
        },
        {
          "name": "A3",
          "midi": 57,
          "time": 235.4482170000003,
          "velocity": 0.7480314960629921,
          "duration": 0.20689649999999915
        },
        {
          "name": "E2",
          "midi": 40,
          "time": 235.4482170000003,
          "velocity": 0.7480314960629921,
          "duration": 0.20689649999999915
        },
        {
          "name": "B1",
          "midi": 35,
          "time": 235.6551135000003,
          "velocity": 0.7480314960629921,
          "duration": 0.20689649999999915
        },
        {
          "name": "A3",
          "midi": 57,
          "time": 235.8620100000003,
          "velocity": 0.7480314960629921,
          "duration": 0.20689649999999915
        },
        {
          "name": "B1",
          "midi": 35,
          "time": 235.8620100000003,
          "velocity": 0.7480314960629921,
          "duration": 0.20689649999999915
        },
        {
          "name": "B1",
          "midi": 35,
          "time": 236.0689065000003,
          "velocity": 0.7480314960629921,
          "duration": 0.20689649999999915
        },
        {
          "name": "G3",
          "midi": 55,
          "time": 236.2758030000003,
          "velocity": 0.7480314960629921,
          "duration": 0.20689649999999915
        },
        {
          "name": "E2",
          "midi": 40,
          "time": 236.2758030000003,
          "velocity": 0.7480314960629921,
          "duration": 0.20689649999999915
        },
        {
          "name": "B1",
          "midi": 35,
          "time": 236.4826995000003,
          "velocity": 0.7480314960629921,
          "duration": 0.20689649999999915
        },
        {
          "name": "C#3",
          "midi": 49,
          "time": 236.6895960000003,
          "velocity": 0.7480314960629921,
          "duration": 0.20689649999999915
        },
        {
          "name": "B1",
          "midi": 35,
          "time": 236.6895960000003,
          "velocity": 0.7480314960629921,
          "duration": 0.20689649999999915
        },
        {
          "name": "B1",
          "midi": 35,
          "time": 236.8964925000003,
          "velocity": 0.7480314960629921,
          "duration": 0.20689649999999915
        },
        {
          "name": "A3",
          "midi": 57,
          "time": 237.1033890000003,
          "velocity": 0.7480314960629921,
          "duration": 0.20689649999999915
        },
        {
          "name": "E2",
          "midi": 40,
          "time": 237.1033890000003,
          "velocity": 0.7480314960629921,
          "duration": 0.20689649999999915
        },
        {
          "name": "B1",
          "midi": 35,
          "time": 237.3102855000003,
          "velocity": 0.7480314960629921,
          "duration": 0.20689649999999915
        },
        {
          "name": "A3",
          "midi": 57,
          "time": 237.5171820000003,
          "velocity": 0.7480314960629921,
          "duration": 0.20689649999999915
        },
        {
          "name": "B1",
          "midi": 35,
          "time": 237.5171820000003,
          "velocity": 0.7480314960629921,
          "duration": 0.20689649999999915
        },
        {
          "name": "B1",
          "midi": 35,
          "time": 237.7240785000003,
          "velocity": 0.7480314960629921,
          "duration": 0.20689649999999915
        },
        {
          "name": "A3",
          "midi": 57,
          "time": 237.9309750000003,
          "velocity": 0.7480314960629921,
          "duration": 0.20689649999999915
        },
        {
          "name": "E2",
          "midi": 40,
          "time": 237.9309750000003,
          "velocity": 0.7480314960629921,
          "duration": 0.20689649999999915
        },
        {
          "name": "B1",
          "midi": 35,
          "time": 238.1378715000003,
          "velocity": 0.7480314960629921,
          "duration": 0.20689649999999915
        },
        {
          "name": "A3",
          "midi": 57,
          "time": 238.3447680000003,
          "velocity": 0.7480314960629921,
          "duration": 0.20689649999999915
        },
        {
          "name": "B1",
          "midi": 35,
          "time": 238.3447680000003,
          "velocity": 0.7480314960629921,
          "duration": 0.20689649999999915
        },
        {
          "name": "B1",
          "midi": 35,
          "time": 238.5516645000003,
          "velocity": 0.7480314960629921,
          "duration": 0.20689649999999915
        },
        {
          "name": "A3",
          "midi": 57,
          "time": 238.7585610000003,
          "velocity": 0.7480314960629921,
          "duration": 0.20689649999999915
        },
        {
          "name": "E2",
          "midi": 40,
          "time": 238.7585610000003,
          "velocity": 0.7480314960629921,
          "duration": 0.20689649999999915
        },
        {
          "name": "B1",
          "midi": 35,
          "time": 238.9654575000003,
          "velocity": 0.7480314960629921,
          "duration": 0.20689649999999915
        },
        {
          "name": "A3",
          "midi": 57,
          "time": 239.1723540000003,
          "velocity": 0.7480314960629921,
          "duration": 0.20689649999999915
        },
        {
          "name": "B1",
          "midi": 35,
          "time": 239.1723540000003,
          "velocity": 0.7480314960629921,
          "duration": 0.20689649999999915
        },
        {
          "name": "B1",
          "midi": 35,
          "time": 239.3792505000003,
          "velocity": 0.7480314960629921,
          "duration": 0.20689649999999915
        },
        {
          "name": "A3",
          "midi": 57,
          "time": 239.5861470000003,
          "velocity": 0.7480314960629921,
          "duration": 0.20689649999999915
        },
        {
          "name": "E2",
          "midi": 40,
          "time": 239.5861470000003,
          "velocity": 0.7480314960629921,
          "duration": 0.20689649999999915
        },
        {
          "name": "B1",
          "midi": 35,
          "time": 239.7930435000003,
          "velocity": 0.7480314960629921,
          "duration": 0.20689649999999915
        },
        {
          "name": "A3",
          "midi": 57,
          "time": 239.9999400000003,
          "velocity": 0.7480314960629921,
          "duration": 1.6551719999999932
        },
        {
          "name": "C#3",
          "midi": 49,
          "time": 239.9999400000003,
          "velocity": 0.7480314960629921,
          "duration": 1.6551719999999932
        },
        {
          "name": "B1",
          "midi": 35,
          "time": 239.9999400000003,
          "velocity": 0.7480314960629921,
          "duration": 1.6551719999999932
        },
        {
          "name": "D#3",
          "midi": 51,
          "time": 245.5861455000003,
          "velocity": 0.7480314960629921,
          "duration": 0.10344825000001379
        },
        {
          "name": "D#3",
          "midi": 51,
          "time": 245.6895937500003,
          "velocity": 0.7480314960629921,
          "duration": 0.10344825000001379
        },
        {
          "name": "D#3",
          "midi": 51,
          "time": 245.79304200000033,
          "velocity": 0.7480314960629921,
          "duration": 0.10344825000001379
        },
        {
          "name": "D#3",
          "midi": 51,
          "time": 245.89649025000034,
          "velocity": 0.7480314960629921,
          "duration": 0.10344825000001379
        },
        {
          "name": "D#3",
          "midi": 51,
          "time": 245.99993850000035,
          "velocity": 0.7480314960629921,
          "duration": 0.6206894999999975
        }
      ],
      "controlChanges": {
        "7": [
          {
            "number": 7,
            "time": 0,
            "value": 1
          }
        ],
        "10": [
          {
            "number": 10,
            "time": 0,
            "value": 0.49606299212598426
          }
        ],
        "11": [
          {
            "number": 11,
            "time": 0,
            "value": 1
          }
        ],
        "91": [
          {
            "number": 91,
            "time": 0,
            "value": 0
          }
        ],
        "92": [
          {
            "number": 92,
            "time": 0,
            "value": 0
          }
        ],
        "93": [
          {
            "number": 93,
            "time": 0,
            "value": 0
          }
        ],
        "95": [
          {
            "number": 95,
            "time": 0,
            "value": 0
          }
        ]
      },
      "id": 4,
      "instrumentNumber": 0,
      "instrument": "standard kit",
      "instrumentFamily": "drums",
      "channelNumber": 9,
      "isPercussion": true
    }
  ]
}