{
  "header": {
    "PPQ": 480,
    "timeSignature": [
      4,
      4
    ],
    "bpm": 85.00004250002125,
    "name": "Iron Man"
  },
  "startTime": 0,
  "duration": 339.17630100001566,
  "tracks": [
    {
      "startTime": 0,
      "duration": 0,
      "length": 0,
      "notes": [],
      "controlChanges": {},
      "id": 0,
      "name": "Iron Man"
    },
    {
      "startTime": 5.647056,
      "duration": 339.1763009999968,
      "length": 744,
      "notes": [
        {
          "name": "F#1",
          "midi": 30,
          "time": 5.647056,
          "velocity": 0.5905511811023622,
          "duration": 5.647056
        },
        {
          "name": "F#1",
          "midi": 30,
          "time": 11.294112,
          "velocity": 0.5905511811023622,
          "duration": 5.647056000000001
        },
        {
          "name": "F#1",
          "midi": 30,
          "time": 16.941168,
          "velocity": 0.5905511811023622,
          "duration": 5.647055999999999
        },
        {
          "name": "F#1",
          "midi": 30,
          "time": 22.588224,
          "velocity": 0.5905511811023622,
          "duration": 5.647056000000003
        },
        {
          "name": "E2",
          "midi": 40,
          "time": 27.882339,
          "velocity": 0.7874015748031497,
          "duration": 0.3529410000000013
        },
        {
          "name": "B1",
          "midi": 35,
          "time": 28.235280000000003,
          "velocity": 0.7874015748031497,
          "duration": 0.705881999999999
        },
        {
          "name": "D2",
          "midi": 38,
          "time": 28.941162000000002,
          "velocity": 0.7874015748031497,
          "duration": 0.705881999999999
        },
        {
          "name": "D2",
          "midi": 38,
          "time": 29.647044,
          "velocity": 0.7874015748031497,
          "duration": 0.3529410000000013
        },
        {
          "name": "E2",
          "midi": 40,
          "time": 29.999985000000002,
          "velocity": 0.7874015748031497,
          "duration": 0.3529410000000013
        },
        {
          "name": "E2",
          "midi": 40,
          "time": 30.352926000000004,
          "velocity": 0.7874015748031497,
          "duration": 0.705881999999999
        },
        {
          "name": "G2",
          "midi": 43,
          "time": 31.058808000000003,
          "velocity": 0.7874015748031497,
          "duration": 0.17647050000000064
        },
        {
          "name": "F#2",
          "midi": 42,
          "time": 31.235278500000003,
          "velocity": 0.7874015748031497,
          "duration": 0.17647050000000064
        },
        {
          "name": "G2",
          "midi": 43,
          "time": 31.411749000000004,
          "velocity": 0.7874015748031497,
          "duration": 0.17647050000000064
        },
        {
          "name": "F#2",
          "midi": 42,
          "time": 31.588219500000005,
          "velocity": 0.7874015748031497,
          "duration": 0.17647050000000064
        },
        {
          "name": "G2",
          "midi": 43,
          "time": 31.764690000000005,
          "velocity": 0.7874015748031497,
          "duration": 0.17647050000000064
        },
        {
          "name": "F#2",
          "midi": 42,
          "time": 31.941160500000006,
          "velocity": 0.7874015748031497,
          "duration": 0.1764704999999971
        },
        {
          "name": "D2",
          "midi": 38,
          "time": 32.117631,
          "velocity": 0.7874015748031497,
          "duration": 0.34411747499999734
        },
        {
          "name": "D2",
          "midi": 38,
          "time": 32.470572,
          "velocity": 0.7874015748031497,
          "duration": 0.3529409999999942
        },
        {
          "name": "E2",
          "midi": 40,
          "time": 32.82351299999999,
          "velocity": 0.7874015748031497,
          "duration": 0.3529410000000013
        },
        {
          "name": "E2",
          "midi": 40,
          "time": 33.17645399999999,
          "velocity": 0.7874015748031497,
          "duration": 0.7058820000000026
        },
        {
          "name": "B1",
          "midi": 35,
          "time": 33.882335999999995,
          "velocity": 0.7874015748031497,
          "duration": 0.7058820000000026
        },
        {
          "name": "D2",
          "midi": 38,
          "time": 34.588218,
          "velocity": 0.7874015748031497,
          "duration": 0.7058819999999955
        },
        {
          "name": "D2",
          "midi": 38,
          "time": 35.29409999999999,
          "velocity": 0.7874015748031497,
          "duration": 0.3529409999999942
        },
        {
          "name": "E2",
          "midi": 40,
          "time": 35.64704099999999,
          "velocity": 0.7874015748031497,
          "duration": 0.3529410000000013
        },
        {
          "name": "E2",
          "midi": 40,
          "time": 35.99998199999999,
          "velocity": 0.7874015748031497,
          "duration": 0.7058820000000026
        },
        {
          "name": "G2",
          "midi": 43,
          "time": 36.70586399999999,
          "velocity": 0.7874015748031497,
          "duration": 0.17647050000000064
        },
        {
          "name": "F#2",
          "midi": 42,
          "time": 36.88233449999999,
          "velocity": 0.7874015748031497,
          "duration": 0.17647050000000064
        },
        {
          "name": "G2",
          "midi": 43,
          "time": 37.05880499999999,
          "velocity": 0.7874015748031497,
          "duration": 0.17647050000000064
        },
        {
          "name": "F#2",
          "midi": 42,
          "time": 37.23527549999999,
          "velocity": 0.7874015748031497,
          "duration": 0.17647050000000064
        },
        {
          "name": "G2",
          "midi": 43,
          "time": 37.411745999999994,
          "velocity": 0.7874015748031497,
          "duration": 0.17647050000000064
        },
        {
          "name": "F#2",
          "midi": 42,
          "time": 37.588216499999994,
          "velocity": 0.7874015748031497,
          "duration": 0.17647050000000064
        },
        {
          "name": "D2",
          "midi": 38,
          "time": 37.764686999999995,
          "velocity": 0.7874015748031497,
          "duration": 0.34411747499999734
        },
        {
          "name": "D2",
          "midi": 38,
          "time": 38.11762799999999,
          "velocity": 0.7874015748031497,
          "duration": 0.3529409999999942
        },
        {
          "name": "E2",
          "midi": 40,
          "time": 38.47056899999998,
          "velocity": 0.7874015748031497,
          "duration": 0.3529410000000013
        },
        {
          "name": "E2",
          "midi": 40,
          "time": 38.823509999999985,
          "velocity": 0.7874015748031497,
          "duration": 0.7058820000000026
        },
        {
          "name": "B1",
          "midi": 35,
          "time": 39.52939199999999,
          "velocity": 0.7874015748031497,
          "duration": 0.7058820000000026
        },
        {
          "name": "D2",
          "midi": 38,
          "time": 40.23527399999999,
          "velocity": 0.7874015748031497,
          "duration": 0.7058819999999955
        },
        {
          "name": "D2",
          "midi": 38,
          "time": 40.941155999999985,
          "velocity": 0.7874015748031497,
          "duration": 0.3529409999999942
        },
        {
          "name": "E2",
          "midi": 40,
          "time": 41.29409699999998,
          "velocity": 0.7874015748031497,
          "duration": 0.3529410000000013
        },
        {
          "name": "E2",
          "midi": 40,
          "time": 41.64703799999998,
          "velocity": 0.7874015748031497,
          "duration": 0.7058820000000026
        },
        {
          "name": "G2",
          "midi": 43,
          "time": 42.35291999999998,
          "velocity": 0.7874015748031497,
          "duration": 0.17647050000000064
        },
        {
          "name": "F#2",
          "midi": 42,
          "time": 42.529390499999984,
          "velocity": 0.7874015748031497,
          "duration": 0.17647050000000064
        },
        {
          "name": "G2",
          "midi": 43,
          "time": 42.705860999999985,
          "velocity": 0.7874015748031497,
          "duration": 0.17647050000000064
        },
        {
          "name": "F#2",
          "midi": 42,
          "time": 42.882331499999985,
          "velocity": 0.7874015748031497,
          "duration": 0.17647050000000064
        },
        {
          "name": "G2",
          "midi": 43,
          "time": 43.058801999999986,
          "velocity": 0.7874015748031497,
          "duration": 0.17647050000000064
        },
        {
          "name": "F#2",
          "midi": 42,
          "time": 43.23527249999999,
          "velocity": 0.7874015748031497,
          "duration": 0.17647050000000064
        },
        {
          "name": "D2",
          "midi": 38,
          "time": 43.41174299999999,
          "velocity": 0.7874015748031497,
          "duration": 0.34411747499999734
        },
        {
          "name": "D2",
          "midi": 38,
          "time": 43.76468399999998,
          "velocity": 0.7874015748031497,
          "duration": 0.3529409999999942
        },
        {
          "name": "E2",
          "midi": 40,
          "time": 44.117624999999975,
          "velocity": 0.7874015748031497,
          "duration": 0.3529410000000013
        },
        {
          "name": "E2",
          "midi": 40,
          "time": 44.47056599999998,
          "velocity": 0.7874015748031497,
          "duration": 0.7058820000000026
        },
        {
          "name": "B1",
          "midi": 35,
          "time": 45.17644799999998,
          "velocity": 0.7874015748031497,
          "duration": 0.7058820000000026
        },
        {
          "name": "D2",
          "midi": 38,
          "time": 45.88232999999998,
          "velocity": 0.7874015748031497,
          "duration": 0.7058819999999955
        },
        {
          "name": "D2",
          "midi": 38,
          "time": 46.58821199999998,
          "velocity": 0.7874015748031497,
          "duration": 0.3529409999999942
        },
        {
          "name": "E2",
          "midi": 40,
          "time": 46.94115299999997,
          "velocity": 0.7874015748031497,
          "duration": 0.3529410000000013
        },
        {
          "name": "E2",
          "midi": 40,
          "time": 47.29409399999997,
          "velocity": 0.7874015748031497,
          "duration": 0.7058820000000026
        },
        {
          "name": "G2",
          "midi": 43,
          "time": 47.999975999999975,
          "velocity": 0.7874015748031497,
          "duration": 0.17647050000000064
        },
        {
          "name": "F#2",
          "midi": 42,
          "time": 48.176446499999976,
          "velocity": 0.7874015748031497,
          "duration": 0.17647050000000064
        },
        {
          "name": "G2",
          "midi": 43,
          "time": 48.35291699999998,
          "velocity": 0.7874015748031497,
          "duration": 0.17647050000000064
        },
        {
          "name": "F#2",
          "midi": 42,
          "time": 48.52938749999998,
          "velocity": 0.7874015748031497,
          "duration": 0.17647050000000064
        },
        {
          "name": "G2",
          "midi": 43,
          "time": 48.70585799999998,
          "velocity": 0.7874015748031497,
          "duration": 0.17647050000000064
        },
        {
          "name": "F#2",
          "midi": 42,
          "time": 48.88232849999998,
          "velocity": 0.7874015748031497,
          "duration": 0.17647050000000064
        },
        {
          "name": "D2",
          "midi": 38,
          "time": 49.05879899999998,
          "velocity": 0.7874015748031497,
          "duration": 0.34411747499999734
        },
        {
          "name": "D2",
          "midi": 38,
          "time": 49.41173999999997,
          "velocity": 0.7874015748031497,
          "duration": 0.3529409999999942
        },
        {
          "name": "E2",
          "midi": 40,
          "time": 49.76468099999997,
          "velocity": 0.7874015748031497,
          "duration": 0.3529410000000013
        },
        {
          "name": "E2",
          "midi": 40,
          "time": 50.11762199999997,
          "velocity": 0.7874015748031497,
          "duration": 0.7058820000000026
        },
        {
          "name": "B1",
          "midi": 35,
          "time": 50.82350399999997,
          "velocity": 0.7874015748031497,
          "duration": 0.7058820000000026
        },
        {
          "name": "D2",
          "midi": 38,
          "time": 51.529385999999974,
          "velocity": 0.7874015748031497,
          "duration": 0.7058819999999955
        },
        {
          "name": "D2",
          "midi": 38,
          "time": 52.23526799999997,
          "velocity": 0.7874015748031497,
          "duration": 0.3529409999999942
        },
        {
          "name": "E2",
          "midi": 40,
          "time": 52.588208999999964,
          "velocity": 0.7874015748031497,
          "duration": 0.3529410000000013
        },
        {
          "name": "E2",
          "midi": 40,
          "time": 52.941149999999965,
          "velocity": 0.7874015748031497,
          "duration": 0.7058820000000026
        },
        {
          "name": "G2",
          "midi": 43,
          "time": 53.64703199999997,
          "velocity": 0.7874015748031497,
          "duration": 0.17647050000000064
        },
        {
          "name": "F#2",
          "midi": 42,
          "time": 53.82350249999997,
          "velocity": 0.7874015748031497,
          "duration": 0.17647050000000064
        },
        {
          "name": "G2",
          "midi": 43,
          "time": 53.99997299999997,
          "velocity": 0.7874015748031497,
          "duration": 0.17647050000000064
        },
        {
          "name": "F#2",
          "midi": 42,
          "time": 54.17644349999997,
          "velocity": 0.7874015748031497,
          "duration": 0.17647050000000064
        },
        {
          "name": "G2",
          "midi": 43,
          "time": 54.35291399999997,
          "velocity": 0.7874015748031497,
          "duration": 0.17647050000000064
        },
        {
          "name": "F#2",
          "midi": 42,
          "time": 54.52938449999997,
          "velocity": 0.7874015748031497,
          "duration": 0.17647050000000064
        },
        {
          "name": "D2",
          "midi": 38,
          "time": 54.70585499999997,
          "velocity": 0.7874015748031497,
          "duration": 0.34411747499999734
        },
        {
          "name": "D2",
          "midi": 38,
          "time": 55.058795999999965,
          "velocity": 0.7874015748031497,
          "duration": 0.3529409999999942
        },
        {
          "name": "E2",
          "midi": 40,
          "time": 55.41173699999996,
          "velocity": 0.7874015748031497,
          "duration": 0.3529410000000013
        },
        {
          "name": "E2",
          "midi": 40,
          "time": 55.76467799999996,
          "velocity": 0.7874015748031497,
          "duration": 0.7058820000000026
        },
        {
          "name": "B1",
          "midi": 35,
          "time": 56.47055999999996,
          "velocity": 0.7874015748031497,
          "duration": 0.7058820000000026
        },
        {
          "name": "D2",
          "midi": 38,
          "time": 57.176441999999966,
          "velocity": 0.7874015748031497,
          "duration": 0.7058819999999955
        },
        {
          "name": "D2",
          "midi": 38,
          "time": 57.88232399999996,
          "velocity": 0.7874015748031497,
          "duration": 0.3529409999999942
        },
        {
          "name": "E2",
          "midi": 40,
          "time": 58.235264999999956,
          "velocity": 0.7874015748031497,
          "duration": 0.3529410000000013
        },
        {
          "name": "E2",
          "midi": 40,
          "time": 58.58820599999996,
          "velocity": 0.7874015748031497,
          "duration": 0.7058820000000026
        },
        {
          "name": "G2",
          "midi": 43,
          "time": 59.29408799999996,
          "velocity": 0.7874015748031497,
          "duration": 0.17647050000000064
        },
        {
          "name": "F#2",
          "midi": 42,
          "time": 59.47055849999996,
          "velocity": 0.7874015748031497,
          "duration": 0.17647050000000064
        },
        {
          "name": "G2",
          "midi": 43,
          "time": 59.64702899999996,
          "velocity": 0.7874015748031497,
          "duration": 0.17647050000000064
        },
        {
          "name": "F#2",
          "midi": 42,
          "time": 59.82349949999996,
          "velocity": 0.7874015748031497,
          "duration": 0.17647050000000064
        },
        {
          "name": "G2",
          "midi": 43,
          "time": 59.99996999999996,
          "velocity": 0.7874015748031497,
          "duration": 0.17647050000000064
        },
        {
          "name": "F#2",
          "midi": 42,
          "time": 60.17644049999996,
          "velocity": 0.7874015748031497,
          "duration": 0.17647050000000064
        },
        {
          "name": "D2",
          "midi": 38,
          "time": 60.35291099999996,
          "velocity": 0.7874015748031497,
          "duration": 0.34411747499999734
        },
        {
          "name": "D2",
          "midi": 38,
          "time": 60.70585199999996,
          "velocity": 0.7874015748031497,
          "duration": 0.3529409999999942
        },
        {
          "name": "E2",
          "midi": 40,
          "time": 61.05879299999995,
          "velocity": 0.7874015748031497,
          "duration": 0.3529410000000013
        },
        {
          "name": "E2",
          "midi": 40,
          "time": 61.41173399999995,
          "velocity": 0.7874015748031497,
          "duration": 0.7058820000000026
        },
        {
          "name": "B1",
          "midi": 35,
          "time": 62.117615999999956,
          "velocity": 0.7874015748031497,
          "duration": 0.3529410000000013
        },
        {
          "name": "B1",
          "midi": 35,
          "time": 62.47055699999996,
          "velocity": 0.7874015748031497,
          "duration": 0.7058820000000026
        },
        {
          "name": "D2",
          "midi": 38,
          "time": 63.17643899999996,
          "velocity": 0.7874015748031497,
          "duration": 0.7058820000000026
        },
        {
          "name": "B1",
          "midi": 35,
          "time": 63.88232099999996,
          "velocity": 0.7874015748031497,
          "duration": 0.3529410000000013
        },
        {
          "name": "B1",
          "midi": 35,
          "time": 64.23526199999996,
          "velocity": 0.7874015748031497,
          "duration": 0.3529410000000013
        },
        {
          "name": "A#1",
          "midi": 34,
          "time": 64.58820299999996,
          "velocity": 0.7874015748031497,
          "duration": 0.3529410000000013
        },
        {
          "name": "A1",
          "midi": 33,
          "time": 64.94114399999997,
          "velocity": 0.7874015748031497,
          "duration": 0.3529410000000013
        },
        {
          "name": "A1",
          "midi": 33,
          "time": 65.29408499999997,
          "velocity": 0.7874015748031497,
          "duration": 0.3529410000000013
        },
        {
          "name": "A1",
          "midi": 33,
          "time": 65.64702599999997,
          "velocity": 0.7874015748031497,
          "duration": 0.08823524999999677
        },
        {
          "name": "A1",
          "midi": 33,
          "time": 65.82349649999996,
          "velocity": 0.7874015748031497,
          "duration": 0.08823524999999677
        },
        {
          "name": "A1",
          "midi": 33,
          "time": 65.99996699999996,
          "velocity": 0.7874015748031497,
          "duration": 0.08823524999999677
        },
        {
          "name": "G#1",
          "midi": 32,
          "time": 66.17643749999995,
          "velocity": 0.7874015748031497,
          "duration": 0.17647049999999354
        },
        {
          "name": "G#1",
          "midi": 32,
          "time": 66.35290799999994,
          "velocity": 0.7874015748031497,
          "duration": 0.17647049999999354
        },
        {
          "name": "A1",
          "midi": 33,
          "time": 66.52937849999994,
          "velocity": 0.7874015748031497,
          "duration": 0.17647049999999354
        },
        {
          "name": "A1",
          "midi": 33,
          "time": 66.70584899999993,
          "velocity": 0.7874015748031497,
          "duration": 0.3529410000000013
        },
        {
          "name": "A1",
          "midi": 33,
          "time": 67.05878999999993,
          "velocity": 0.7874015748031497,
          "duration": 0.3529410000000013
        },
        {
          "name": "A#1",
          "midi": 34,
          "time": 67.41173099999993,
          "velocity": 0.7874015748031497,
          "duration": 0.3529410000000013
        },
        {
          "name": "B1",
          "midi": 35,
          "time": 67.76467199999993,
          "velocity": 0.7874015748031497,
          "duration": 0.3529410000000013
        },
        {
          "name": "B1",
          "midi": 35,
          "time": 68.11761299999993,
          "velocity": 0.7874015748031497,
          "duration": 0.7058820000000026
        },
        {
          "name": "D2",
          "midi": 38,
          "time": 68.82349499999994,
          "velocity": 0.7874015748031497,
          "duration": 0.7058820000000026
        },
        {
          "name": "B1",
          "midi": 35,
          "time": 69.52937699999994,
          "velocity": 0.7874015748031497,
          "duration": 0.3529410000000013
        },
        {
          "name": "B1",
          "midi": 35,
          "time": 69.88231799999994,
          "velocity": 0.7874015748031497,
          "duration": 0.3529410000000013
        },
        {
          "name": "A#1",
          "midi": 34,
          "time": 70.23525899999994,
          "velocity": 0.7874015748031497,
          "duration": 0.3529410000000013
        },
        {
          "name": "A1",
          "midi": 33,
          "time": 70.58819999999994,
          "velocity": 0.7874015748031497,
          "duration": 0.3529410000000013
        },
        {
          "name": "A1",
          "midi": 33,
          "time": 70.94114099999994,
          "velocity": 0.7874015748031497,
          "duration": 0.3529410000000013
        },
        {
          "name": "A1",
          "midi": 33,
          "time": 71.29408199999995,
          "velocity": 0.7874015748031497,
          "duration": 0.08823524999999677
        },
        {
          "name": "A1",
          "midi": 33,
          "time": 71.47055249999994,
          "velocity": 0.7874015748031497,
          "duration": 0.08823524999999677
        },
        {
          "name": "A1",
          "midi": 33,
          "time": 71.64702299999993,
          "velocity": 0.7874015748031497,
          "duration": 0.08823524999999677
        },
        {
          "name": "G#1",
          "midi": 32,
          "time": 71.82349349999993,
          "velocity": 0.7874015748031497,
          "duration": 0.17647049999999354
        },
        {
          "name": "G#1",
          "midi": 32,
          "time": 71.99996399999992,
          "velocity": 0.7874015748031497,
          "duration": 0.17647049999999354
        },
        {
          "name": "A1",
          "midi": 33,
          "time": 72.17643449999991,
          "velocity": 0.7874015748031497,
          "duration": 0.17647049999999354
        },
        {
          "name": "A1",
          "midi": 33,
          "time": 72.35290499999991,
          "velocity": 0.7874015748031497,
          "duration": 0.3529410000000013
        },
        {
          "name": "A1",
          "midi": 33,
          "time": 72.70584599999991,
          "velocity": 0.7874015748031497,
          "duration": 0.3529410000000013
        },
        {
          "name": "A#1",
          "midi": 34,
          "time": 73.05878699999991,
          "velocity": 0.7874015748031497,
          "duration": 0.3529410000000013
        },
        {
          "name": "B1",
          "midi": 35,
          "time": 73.41172799999991,
          "velocity": 0.7874015748031497,
          "duration": 0.3529410000000013
        },
        {
          "name": "B1",
          "midi": 35,
          "time": 73.76466899999991,
          "velocity": 0.7874015748031497,
          "duration": 0.7058820000000026
        },
        {
          "name": "D2",
          "midi": 38,
          "time": 74.47055099999992,
          "velocity": 0.7874015748031497,
          "duration": 0.7058820000000026
        },
        {
          "name": "B1",
          "midi": 35,
          "time": 75.17643299999992,
          "velocity": 0.7874015748031497,
          "duration": 0.3529410000000013
        },
        {
          "name": "B1",
          "midi": 35,
          "time": 75.52937399999992,
          "velocity": 0.7874015748031497,
          "duration": 0.3529410000000013
        },
        {
          "name": "A#1",
          "midi": 34,
          "time": 75.88231499999992,
          "velocity": 0.7874015748031497,
          "duration": 0.3529410000000013
        },
        {
          "name": "A1",
          "midi": 33,
          "time": 76.23525599999992,
          "velocity": 0.7874015748031497,
          "duration": 0.3529410000000013
        },
        {
          "name": "A1",
          "midi": 33,
          "time": 76.58819699999992,
          "velocity": 0.7874015748031497,
          "duration": 0.3529410000000013
        },
        {
          "name": "A1",
          "midi": 33,
          "time": 76.94113799999992,
          "velocity": 0.7874015748031497,
          "duration": 0.3529410000000013
        },
        {
          "name": "B1",
          "midi": 35,
          "time": 79.05878399999993,
          "velocity": 0.7874015748031497,
          "duration": 0.7058820000000026
        },
        {
          "name": "D2",
          "midi": 38,
          "time": 79.76466599999993,
          "velocity": 0.7874015748031497,
          "duration": 0.7058820000000026
        },
        {
          "name": "D2",
          "midi": 38,
          "time": 80.47054799999994,
          "velocity": 0.7874015748031497,
          "duration": 0.3529410000000013
        },
        {
          "name": "E2",
          "midi": 40,
          "time": 80.82348899999994,
          "velocity": 0.7874015748031497,
          "duration": 0.3529410000000013
        },
        {
          "name": "E2",
          "midi": 40,
          "time": 81.17642999999994,
          "velocity": 0.7874015748031497,
          "duration": 0.7058820000000026
        },
        {
          "name": "G2",
          "midi": 43,
          "time": 81.88231199999994,
          "velocity": 0.7874015748031497,
          "duration": 0.17647049999999354
        },
        {
          "name": "F#2",
          "midi": 42,
          "time": 82.05878249999994,
          "velocity": 0.7874015748031497,
          "duration": 0.17647049999999354
        },
        {
          "name": "G2",
          "midi": 43,
          "time": 82.23525299999993,
          "velocity": 0.7874015748031497,
          "duration": 0.17647049999999354
        },
        {
          "name": "F#2",
          "midi": 42,
          "time": 82.41172349999992,
          "velocity": 0.7874015748031497,
          "duration": 0.17647049999999354
        },
        {
          "name": "G2",
          "midi": 43,
          "time": 82.58819399999992,
          "velocity": 0.7874015748031497,
          "duration": 0.17647049999999354
        },
        {
          "name": "F#2",
          "midi": 42,
          "time": 82.76466449999991,
          "velocity": 0.7874015748031497,
          "duration": 0.17647049999999354
        },
        {
          "name": "D2",
          "midi": 38,
          "time": 82.9411349999999,
          "velocity": 0.7874015748031497,
          "duration": 0.34411747500000445
        },
        {
          "name": "D2",
          "midi": 38,
          "time": 83.2940759999999,
          "velocity": 0.7874015748031497,
          "duration": 0.3529410000000013
        },
        {
          "name": "E2",
          "midi": 40,
          "time": 83.6470169999999,
          "velocity": 0.7874015748031497,
          "duration": 0.3529410000000013
        },
        {
          "name": "E2",
          "midi": 40,
          "time": 83.9999579999999,
          "velocity": 0.7874015748031497,
          "duration": 0.7058820000000026
        },
        {
          "name": "B1",
          "midi": 35,
          "time": 84.70583999999991,
          "velocity": 0.7874015748031497,
          "duration": 0.7058820000000026
        },
        {
          "name": "D2",
          "midi": 38,
          "time": 85.41172199999991,
          "velocity": 0.7874015748031497,
          "duration": 0.7058820000000026
        },
        {
          "name": "D2",
          "midi": 38,
          "time": 86.11760399999991,
          "velocity": 0.7874015748031497,
          "duration": 0.3529410000000013
        },
        {
          "name": "E2",
          "midi": 40,
          "time": 86.47054499999992,
          "velocity": 0.7874015748031497,
          "duration": 0.3529410000000013
        },
        {
          "name": "E2",
          "midi": 40,
          "time": 86.82348599999992,
          "velocity": 0.7874015748031497,
          "duration": 0.7058820000000026
        },
        {
          "name": "G2",
          "midi": 43,
          "time": 87.52936799999992,
          "velocity": 0.7874015748031497,
          "duration": 0.17647049999999354
        },
        {
          "name": "F#2",
          "midi": 42,
          "time": 87.70583849999991,
          "velocity": 0.7874015748031497,
          "duration": 0.17647049999999354
        },
        {
          "name": "G2",
          "midi": 43,
          "time": 87.8823089999999,
          "velocity": 0.7874015748031497,
          "duration": 0.17647049999999354
        },
        {
          "name": "F#2",
          "midi": 42,
          "time": 88.0587794999999,
          "velocity": 0.7874015748031497,
          "duration": 0.17647049999999354
        },
        {
          "name": "G2",
          "midi": 43,
          "time": 88.2352499999999,
          "velocity": 0.7874015748031497,
          "duration": 0.17647049999999354
        },
        {
          "name": "F#2",
          "midi": 42,
          "time": 88.41172049999989,
          "velocity": 0.7874015748031497,
          "duration": 0.17647049999999354
        },
        {
          "name": "D2",
          "midi": 38,
          "time": 88.58819099999988,
          "velocity": 0.7874015748031497,
          "duration": 0.34411747500000445
        },
        {
          "name": "D2",
          "midi": 38,
          "time": 88.94113199999988,
          "velocity": 0.7874015748031497,
          "duration": 0.3529410000000013
        },
        {
          "name": "E2",
          "midi": 40,
          "time": 89.29407299999988,
          "velocity": 0.7874015748031497,
          "duration": 0.3529410000000013
        },
        {
          "name": "E2",
          "midi": 40,
          "time": 89.64701399999988,
          "velocity": 0.7874015748031497,
          "duration": 0.7058820000000026
        },
        {
          "name": "B1",
          "midi": 35,
          "time": 90.35289599999989,
          "velocity": 0.7874015748031497,
          "duration": 0.7058820000000026
        },
        {
          "name": "D2",
          "midi": 38,
          "time": 91.05877799999989,
          "velocity": 0.7874015748031497,
          "duration": 0.7058820000000026
        },
        {
          "name": "D2",
          "midi": 38,
          "time": 91.76465999999989,
          "velocity": 0.7874015748031497,
          "duration": 0.3529410000000013
        },
        {
          "name": "E2",
          "midi": 40,
          "time": 92.1176009999999,
          "velocity": 0.7874015748031497,
          "duration": 0.3529410000000013
        },
        {
          "name": "E2",
          "midi": 40,
          "time": 92.4705419999999,
          "velocity": 0.7874015748031497,
          "duration": 0.7058820000000026
        },
        {
          "name": "G2",
          "midi": 43,
          "time": 93.1764239999999,
          "velocity": 0.7874015748031497,
          "duration": 0.17647049999999354
        },
        {
          "name": "F#2",
          "midi": 42,
          "time": 93.35289449999989,
          "velocity": 0.7874015748031497,
          "duration": 0.17647049999999354
        },
        {
          "name": "G2",
          "midi": 43,
          "time": 93.52936499999988,
          "velocity": 0.7874015748031497,
          "duration": 0.17647049999999354
        },
        {
          "name": "F#2",
          "midi": 42,
          "time": 93.70583549999988,
          "velocity": 0.7874015748031497,
          "duration": 0.17647049999999354
        },
        {
          "name": "G2",
          "midi": 43,
          "time": 93.88230599999987,
          "velocity": 0.7874015748031497,
          "duration": 0.17647049999999354
        },
        {
          "name": "F#2",
          "midi": 42,
          "time": 94.05877649999987,
          "velocity": 0.7874015748031497,
          "duration": 0.17647049999999354
        },
        {
          "name": "D2",
          "midi": 38,
          "time": 94.23524699999986,
          "velocity": 0.7874015748031497,
          "duration": 0.34411747500000445
        },
        {
          "name": "D2",
          "midi": 38,
          "time": 94.58818799999986,
          "velocity": 0.7874015748031497,
          "duration": 0.3529410000000013
        },
        {
          "name": "E2",
          "midi": 40,
          "time": 94.94112899999986,
          "velocity": 0.7874015748031497,
          "duration": 0.3529410000000013
        },
        {
          "name": "E2",
          "midi": 40,
          "time": 95.29406999999986,
          "velocity": 0.7874015748031497,
          "duration": 0.7058820000000026
        },
        {
          "name": "B1",
          "midi": 35,
          "time": 95.99995199999987,
          "velocity": 0.7874015748031497,
          "duration": 0.7058820000000026
        },
        {
          "name": "D2",
          "midi": 38,
          "time": 96.70583399999987,
          "velocity": 0.7874015748031497,
          "duration": 0.7058820000000026
        },
        {
          "name": "D2",
          "midi": 38,
          "time": 97.41171599999987,
          "velocity": 0.7874015748031497,
          "duration": 0.3529410000000013
        },
        {
          "name": "E2",
          "midi": 40,
          "time": 97.76465699999987,
          "velocity": 0.7874015748031497,
          "duration": 0.3529410000000013
        },
        {
          "name": "E2",
          "midi": 40,
          "time": 98.11759799999987,
          "velocity": 0.7874015748031497,
          "duration": 0.7058820000000026
        },
        {
          "name": "G2",
          "midi": 43,
          "time": 98.82347999999988,
          "velocity": 0.7874015748031497,
          "duration": 0.17647049999999354
        },
        {
          "name": "F#2",
          "midi": 42,
          "time": 98.99995049999987,
          "velocity": 0.7874015748031497,
          "duration": 0.17647049999999354
        },
        {
          "name": "G2",
          "midi": 43,
          "time": 99.17642099999986,
          "velocity": 0.7874015748031497,
          "duration": 0.17647049999999354
        },
        {
          "name": "F#2",
          "midi": 42,
          "time": 99.35289149999986,
          "velocity": 0.7874015748031497,
          "duration": 0.17647049999999354
        },
        {
          "name": "G2",
          "midi": 43,
          "time": 99.52936199999985,
          "velocity": 0.7874015748031497,
          "duration": 0.17647049999999354
        },
        {
          "name": "F#2",
          "midi": 42,
          "time": 99.70583249999984,
          "velocity": 0.7874015748031497,
          "duration": 0.17647049999999354
        },
        {
          "name": "D2",
          "midi": 38,
          "time": 99.88230299999984,
          "velocity": 0.7874015748031497,
          "duration": 0.34411747500000445
        },
        {
          "name": "D2",
          "midi": 38,
          "time": 100.23524399999984,
          "velocity": 0.7874015748031497,
          "duration": 0.3529410000000013
        },
        {
          "name": "E2",
          "midi": 40,
          "time": 100.58818499999984,
          "velocity": 0.7874015748031497,
          "duration": 0.3529410000000013
        },
        {
          "name": "E2",
          "midi": 40,
          "time": 100.94112599999984,
          "velocity": 0.7874015748031497,
          "duration": 0.7058820000000026
        },
        {
          "name": "E2",
          "midi": 40,
          "time": 101.64700799999984,
          "velocity": 0.7874015748031497,
          "duration": 0.3529410000000013
        },
        {
          "name": "E2",
          "midi": 40,
          "time": 101.99994899999984,
          "velocity": 0.7874015748031497,
          "duration": 0.3529410000000013
        },
        {
          "name": "E3",
          "midi": 52,
          "time": 102.35288999999985,
          "velocity": 0.7874015748031497,
          "duration": 0.3529410000000013
        },
        {
          "name": "E3",
          "midi": 52,
          "time": 102.70583099999985,
          "velocity": 0.7874015748031497,
          "duration": 0.17647049999999354
        },
        {
          "name": "E3",
          "midi": 52,
          "time": 102.88230149999984,
          "velocity": 0.7874015748031497,
          "duration": 0.17647049999999354
        },
        {
          "name": "E3",
          "midi": 52,
          "time": 103.05877199999983,
          "velocity": 0.7874015748031497,
          "duration": 0.17647049999999354
        },
        {
          "name": "E3",
          "midi": 52,
          "time": 103.23524249999983,
          "velocity": 0.7874015748031497,
          "duration": 0.3529410000000013
        },
        {
          "name": "E3",
          "midi": 52,
          "time": 103.58818349999983,
          "velocity": 0.7874015748031497,
          "duration": 0.3529410000000013
        },
        {
          "name": "D3",
          "midi": 50,
          "time": 103.94112449999983,
          "velocity": 0.7874015748031497,
          "duration": 0.17647049999999354
        },
        {
          "name": "B2",
          "midi": 47,
          "time": 104.11759499999982,
          "velocity": 0.7874015748031497,
          "duration": 0.3529410000000013
        },
        {
          "name": "D2",
          "midi": 38,
          "time": 104.47053599999983,
          "velocity": 0.7874015748031497,
          "duration": 2.823527999999996
        },
        {
          "name": "B1",
          "midi": 35,
          "time": 107.29406399999982,
          "velocity": 0.7874015748031497,
          "duration": 0.3529410000000013
        },
        {
          "name": "B1",
          "midi": 35,
          "time": 107.64700499999982,
          "velocity": 0.7874015748031497,
          "duration": 0.3529410000000013
        },
        {
          "name": "D2",
          "midi": 38,
          "time": 107.99994599999982,
          "velocity": 0.7874015748031497,
          "duration": 0.17647049999999354
        },
        {
          "name": "D#2",
          "midi": 39,
          "time": 108.17641649999982,
          "velocity": 0.7874015748031497,
          "duration": 0.17647049999999354
        },
        {
          "name": "E2",
          "midi": 40,
          "time": 108.35288699999981,
          "velocity": 0.7874015748031497,
          "duration": 0.3529410000000013
        },
        {
          "name": "E2",
          "midi": 40,
          "time": 108.70582799999981,
          "velocity": 0.7874015748031497,
          "duration": 0.17647049999999354
        },
        {
          "name": "F2",
          "midi": 41,
          "time": 108.8822984999998,
          "velocity": 0.7874015748031497,
          "duration": 0.17647049999999354
        },
        {
          "name": "F#2",
          "midi": 42,
          "time": 109.0587689999998,
          "velocity": 0.7874015748031497,
          "duration": 0.3529410000000013
        },
        {
          "name": "A2",
          "midi": 45,
          "time": 109.4117099999998,
          "velocity": 0.7874015748031497,
          "duration": 0.17647049999999354
        },
        {
          "name": "A#2",
          "midi": 46,
          "time": 109.5881804999998,
          "velocity": 0.7874015748031497,
          "duration": 0.17647049999999354
        },
        {
          "name": "B2",
          "midi": 47,
          "time": 109.76465099999979,
          "velocity": 0.7874015748031497,
          "duration": 0.3529410000000013
        },
        {
          "name": "B1",
          "midi": 35,
          "time": 110.11759199999979,
          "velocity": 0.7874015748031497,
          "duration": 0.3529410000000013
        },
        {
          "name": "B1",
          "midi": 35,
          "time": 110.47053299999979,
          "velocity": 0.7874015748031497,
          "duration": 0.3529410000000013
        },
        {
          "name": "D2",
          "midi": 38,
          "time": 110.82347399999979,
          "velocity": 0.7874015748031497,
          "duration": 0.17647049999999354
        },
        {
          "name": "D#2",
          "midi": 39,
          "time": 110.99994449999978,
          "velocity": 0.7874015748031497,
          "duration": 0.17647049999999354
        },
        {
          "name": "E2",
          "midi": 40,
          "time": 111.17641499999978,
          "velocity": 0.7874015748031497,
          "duration": 0.3529410000000013
        },
        {
          "name": "E2",
          "midi": 40,
          "time": 111.52935599999978,
          "velocity": 0.7874015748031497,
          "duration": 0.17647049999999354
        },
        {
          "name": "F2",
          "midi": 41,
          "time": 111.70582649999977,
          "velocity": 0.7874015748031497,
          "duration": 0.17647049999999354
        },
        {
          "name": "F#2",
          "midi": 42,
          "time": 111.88229699999977,
          "velocity": 0.7874015748031497,
          "duration": 0.3529410000000013
        },
        {
          "name": "A2",
          "midi": 45,
          "time": 112.23523799999977,
          "velocity": 0.7874015748031497,
          "duration": 0.17647049999999354
        },
        {
          "name": "A#2",
          "midi": 46,
          "time": 112.41170849999976,
          "velocity": 0.7874015748031497,
          "duration": 0.17647049999999354
        },
        {
          "name": "B2",
          "midi": 47,
          "time": 112.58817899999976,
          "velocity": 0.7874015748031497,
          "duration": 0.3529410000000013
        },
        {
          "name": "E2",
          "midi": 40,
          "time": 112.94111999999976,
          "velocity": 0.7874015748031497,
          "duration": 0.3529410000000013
        },
        {
          "name": "E2",
          "midi": 40,
          "time": 113.29406099999976,
          "velocity": 0.7874015748031497,
          "duration": 0.3529410000000013
        },
        {
          "name": "E3",
          "midi": 52,
          "time": 113.64700199999976,
          "velocity": 0.7874015748031497,
          "duration": 0.3529410000000013
        },
        {
          "name": "E3",
          "midi": 52,
          "time": 113.99994299999976,
          "velocity": 0.7874015748031497,
          "duration": 0.17647049999999354
        },
        {
          "name": "E3",
          "midi": 52,
          "time": 114.17641349999975,
          "velocity": 0.7874015748031497,
          "duration": 0.17647049999999354
        },
        {
          "name": "E3",
          "midi": 52,
          "time": 114.35288399999975,
          "velocity": 0.7874015748031497,
          "duration": 0.17647049999999354
        },
        {
          "name": "E3",
          "midi": 52,
          "time": 114.52935449999974,
          "velocity": 0.7874015748031497,
          "duration": 0.3529410000000013
        },
        {
          "name": "E3",
          "midi": 52,
          "time": 114.88229549999974,
          "velocity": 0.7874015748031497,
          "duration": 0.3529410000000013
        },
        {
          "name": "D3",
          "midi": 50,
          "time": 115.23523649999974,
          "velocity": 0.7874015748031497,
          "duration": 0.17647049999999354
        },
        {
          "name": "B2",
          "midi": 47,
          "time": 115.41170699999974,
          "velocity": 0.7874015748031497,
          "duration": 0.3529410000000013
        },
        {
          "name": "D2",
          "midi": 38,
          "time": 115.76464799999974,
          "velocity": 0.7874015748031497,
          "duration": 2.823527999999996
        },
        {
          "name": "B1",
          "midi": 35,
          "time": 118.58817599999973,
          "velocity": 0.7874015748031497,
          "duration": 0.3529410000000013
        },
        {
          "name": "B1",
          "midi": 35,
          "time": 118.94111699999974,
          "velocity": 0.7874015748031497,
          "duration": 0.3529410000000013
        },
        {
          "name": "D2",
          "midi": 38,
          "time": 119.29405799999974,
          "velocity": 0.7874015748031497,
          "duration": 0.17647049999999354
        },
        {
          "name": "D#2",
          "midi": 39,
          "time": 119.47052849999973,
          "velocity": 0.7874015748031497,
          "duration": 0.17647049999999354
        },
        {
          "name": "E2",
          "midi": 40,
          "time": 119.64699899999972,
          "velocity": 0.7874015748031497,
          "duration": 0.3529410000000013
        },
        {
          "name": "E2",
          "midi": 40,
          "time": 119.99993999999973,
          "velocity": 0.7874015748031497,
          "duration": 0.17647049999999354
        },
        {
          "name": "F2",
          "midi": 41,
          "time": 120.17641049999972,
          "velocity": 0.7874015748031497,
          "duration": 0.17647049999999354
        },
        {
          "name": "F#2",
          "midi": 42,
          "time": 120.35288099999971,
          "velocity": 0.7874015748031497,
          "duration": 0.3529410000000013
        },
        {
          "name": "A2",
          "midi": 45,
          "time": 120.70582199999971,
          "velocity": 0.7874015748031497,
          "duration": 0.17647049999999354
        },
        {
          "name": "A#2",
          "midi": 46,
          "time": 120.8822924999997,
          "velocity": 0.7874015748031497,
          "duration": 0.17647049999999354
        },
        {
          "name": "B2",
          "midi": 47,
          "time": 121.0587629999997,
          "velocity": 0.7874015748031497,
          "duration": 0.3529410000000013
        },
        {
          "name": "B1",
          "midi": 35,
          "time": 121.4117039999997,
          "velocity": 0.7874015748031497,
          "duration": 0.3529410000000013
        },
        {
          "name": "B1",
          "midi": 35,
          "time": 121.7646449999997,
          "velocity": 0.7874015748031497,
          "duration": 0.3529410000000013
        },
        {
          "name": "D2",
          "midi": 38,
          "time": 122.1175859999997,
          "velocity": 0.7874015748031497,
          "duration": 0.17647049999999354
        },
        {
          "name": "D#2",
          "midi": 39,
          "time": 122.2940564999997,
          "velocity": 0.7874015748031497,
          "duration": 0.17647049999999354
        },
        {
          "name": "E2",
          "midi": 40,
          "time": 122.47052699999969,
          "velocity": 0.7874015748031497,
          "duration": 0.3529410000000013
        },
        {
          "name": "E2",
          "midi": 40,
          "time": 122.82346799999969,
          "velocity": 0.7874015748031497,
          "duration": 0.17647049999999354
        },
        {
          "name": "F2",
          "midi": 41,
          "time": 122.99993849999969,
          "velocity": 0.7874015748031497,
          "duration": 0.17647049999999354
        },
        {
          "name": "F#2",
          "midi": 42,
          "time": 123.17640899999968,
          "velocity": 0.7874015748031497,
          "duration": 0.3529410000000013
        },
        {
          "name": "A2",
          "midi": 45,
          "time": 123.52934999999968,
          "velocity": 0.7874015748031497,
          "duration": 0.17647049999999354
        },
        {
          "name": "A#2",
          "midi": 46,
          "time": 123.70582049999967,
          "velocity": 0.7874015748031497,
          "duration": 0.17647049999999354
        },
        {
          "name": "B2",
          "midi": 47,
          "time": 123.88229099999967,
          "velocity": 0.7874015748031497,
          "duration": 0.3529410000000013
        },
        {
          "name": "B1",
          "midi": 35,
          "time": 124.23523199999967,
          "velocity": 0.7874015748031497,
          "duration": 0.7058820000000026
        },
        {
          "name": "D2",
          "midi": 38,
          "time": 124.94111399999967,
          "velocity": 0.7874015748031497,
          "duration": 0.7058820000000026
        },
        {
          "name": "D2",
          "midi": 38,
          "time": 125.64699599999967,
          "velocity": 0.7874015748031497,
          "duration": 0.3529410000000013
        },
        {
          "name": "E2",
          "midi": 40,
          "time": 125.99993699999968,
          "velocity": 0.7874015748031497,
          "duration": 0.3529410000000013
        },
        {
          "name": "E2",
          "midi": 40,
          "time": 126.35287799999968,
          "velocity": 0.7874015748031497,
          "duration": 0.7058820000000026
        },
        {
          "name": "G2",
          "midi": 43,
          "time": 127.05875999999968,
          "velocity": 0.7874015748031497,
          "duration": 0.17647049999999354
        },
        {
          "name": "F#2",
          "midi": 42,
          "time": 127.23523049999967,
          "velocity": 0.7874015748031497,
          "duration": 0.17647049999999354
        },
        {
          "name": "G2",
          "midi": 43,
          "time": 127.41170099999967,
          "velocity": 0.7874015748031497,
          "duration": 0.17647049999999354
        },
        {
          "name": "F#2",
          "midi": 42,
          "time": 127.58817149999966,
          "velocity": 0.7874015748031497,
          "duration": 0.17647049999999354
        },
        {
          "name": "G2",
          "midi": 43,
          "time": 127.76464199999965,
          "velocity": 0.7874015748031497,
          "duration": 0.17647049999999354
        },
        {
          "name": "F#2",
          "midi": 42,
          "time": 127.94111249999965,
          "velocity": 0.7874015748031497,
          "duration": 0.17647049999997932
        },
        {
          "name": "D2",
          "midi": 38,
          "time": 128.11758299999963,
          "velocity": 0.7874015748031497,
          "duration": 0.34411747499999024
        },
        {
          "name": "D2",
          "midi": 38,
          "time": 128.4705239999996,
          "velocity": 0.7874015748031497,
          "duration": 0.35294099999998707
        },
        {
          "name": "E2",
          "midi": 40,
          "time": 128.8234649999996,
          "velocity": 0.7874015748031497,
          "duration": 0.35294099999998707
        },
        {
          "name": "E2",
          "midi": 40,
          "time": 129.1764059999996,
          "velocity": 0.7874015748031497,
          "duration": 0.7058820000000026
        },
        {
          "name": "B1",
          "midi": 35,
          "time": 129.8822879999996,
          "velocity": 0.7874015748031497,
          "duration": 0.7058820000000026
        },
        {
          "name": "D2",
          "midi": 38,
          "time": 130.5881699999996,
          "velocity": 0.7874015748031497,
          "duration": 0.7058820000000026
        },
        {
          "name": "D2",
          "midi": 38,
          "time": 131.2940519999996,
          "velocity": 0.7874015748031497,
          "duration": 0.35294099999998707
        },
        {
          "name": "E2",
          "midi": 40,
          "time": 131.64699299999958,
          "velocity": 0.7874015748031497,
          "duration": 0.35294099999998707
        },
        {
          "name": "E2",
          "midi": 40,
          "time": 131.99993399999957,
          "velocity": 0.7874015748031497,
          "duration": 0.7058820000000026
        },
        {
          "name": "G2",
          "midi": 43,
          "time": 132.70581599999957,
          "velocity": 0.7874015748031497,
          "duration": 0.17647049999999354
        },
        {
          "name": "F#2",
          "midi": 42,
          "time": 132.88228649999957,
          "velocity": 0.7874015748031497,
          "duration": 0.17647049999999354
        },
        {
          "name": "G2",
          "midi": 43,
          "time": 133.05875699999956,
          "velocity": 0.7874015748031497,
          "duration": 0.17647049999999354
        },
        {
          "name": "F#2",
          "midi": 42,
          "time": 133.23522749999955,
          "velocity": 0.7874015748031497,
          "duration": 0.17647049999999354
        },
        {
          "name": "G2",
          "midi": 43,
          "time": 133.41169799999955,
          "velocity": 0.7874015748031497,
          "duration": 0.17647049999999354
        },
        {
          "name": "F#2",
          "midi": 42,
          "time": 133.58816849999954,
          "velocity": 0.7874015748031497,
          "duration": 0.17647049999999354
        },
        {
          "name": "D2",
          "midi": 38,
          "time": 133.76463899999953,
          "velocity": 0.7874015748031497,
          "duration": 0.34411747499999024
        },
        {
          "name": "D2",
          "midi": 38,
          "time": 134.11757999999952,
          "velocity": 0.7874015748031497,
          "duration": 0.35294099999998707
        },
        {
          "name": "E2",
          "midi": 40,
          "time": 134.4705209999995,
          "velocity": 0.7874015748031497,
          "duration": 0.35294099999998707
        },
        {
          "name": "E2",
          "midi": 40,
          "time": 134.8234619999995,
          "velocity": 0.7874015748031497,
          "duration": 0.7058820000000026
        },
        {
          "name": "B1",
          "midi": 35,
          "time": 135.5293439999995,
          "velocity": 0.7874015748031497,
          "duration": 0.7058820000000026
        },
        {
          "name": "D2",
          "midi": 38,
          "time": 136.2352259999995,
          "velocity": 0.7874015748031497,
          "duration": 0.7058820000000026
        },
        {
          "name": "D2",
          "midi": 38,
          "time": 136.9411079999995,
          "velocity": 0.7874015748031497,
          "duration": 0.35294099999998707
        },
        {
          "name": "E2",
          "midi": 40,
          "time": 137.2940489999995,
          "velocity": 0.7874015748031497,
          "duration": 0.35294099999998707
        },
        {
          "name": "E2",
          "midi": 40,
          "time": 137.64698999999948,
          "velocity": 0.7874015748031497,
          "duration": 0.7058820000000026
        },
        {
          "name": "G2",
          "midi": 43,
          "time": 138.35287199999948,
          "velocity": 0.7874015748031497,
          "duration": 0.17647049999999354
        },
        {
          "name": "F#2",
          "midi": 42,
          "time": 138.52934249999947,
          "velocity": 0.7874015748031497,
          "duration": 0.17647049999999354
        },
        {
          "name": "G2",
          "midi": 43,
          "time": 138.70581299999947,
          "velocity": 0.7874015748031497,
          "duration": 0.17647049999999354
        },
        {
          "name": "F#2",
          "midi": 42,
          "time": 138.88228349999946,
          "velocity": 0.7874015748031497,
          "duration": 0.17647049999999354
        },
        {
          "name": "G2",
          "midi": 43,
          "time": 139.05875399999945,
          "velocity": 0.7874015748031497,
          "duration": 0.17647049999999354
        },
        {
          "name": "F#2",
          "midi": 42,
          "time": 139.23522449999945,
          "velocity": 0.7874015748031497,
          "duration": 0.17647049999999354
        },
        {
          "name": "D2",
          "midi": 38,
          "time": 139.41169499999944,
          "velocity": 0.7874015748031497,
          "duration": 0.34411747499999024
        },
        {
          "name": "D2",
          "midi": 38,
          "time": 139.76463599999943,
          "velocity": 0.7874015748031497,
          "duration": 0.35294099999998707
        },
        {
          "name": "E2",
          "midi": 40,
          "time": 140.11757699999941,
          "velocity": 0.7874015748031497,
          "duration": 0.35294099999998707
        },
        {
          "name": "E2",
          "midi": 40,
          "time": 140.4705179999994,
          "velocity": 0.7874015748031497,
          "duration": 0.7058820000000026
        },
        {
          "name": "B1",
          "midi": 35,
          "time": 141.1763999999994,
          "velocity": 0.7874015748031497,
          "duration": 0.7058820000000026
        },
        {
          "name": "D2",
          "midi": 38,
          "time": 141.8822819999994,
          "velocity": 0.7874015748031497,
          "duration": 0.7058820000000026
        },
        {
          "name": "D2",
          "midi": 38,
          "time": 142.5881639999994,
          "velocity": 0.7874015748031497,
          "duration": 0.35294099999998707
        },
        {
          "name": "E2",
          "midi": 40,
          "time": 142.9411049999994,
          "velocity": 0.7874015748031497,
          "duration": 0.35294099999998707
        },
        {
          "name": "E2",
          "midi": 40,
          "time": 143.29404599999938,
          "velocity": 0.7874015748031497,
          "duration": 0.7058820000000026
        },
        {
          "name": "G2",
          "midi": 43,
          "time": 143.9999279999994,
          "velocity": 0.7874015748031497,
          "duration": 0.17647049999999354
        },
        {
          "name": "F#2",
          "midi": 42,
          "time": 144.17639849999938,
          "velocity": 0.7874015748031497,
          "duration": 0.17647049999999354
        },
        {
          "name": "G2",
          "midi": 43,
          "time": 144.35286899999937,
          "velocity": 0.7874015748031497,
          "duration": 0.17647049999999354
        },
        {
          "name": "F#2",
          "midi": 42,
          "time": 144.52933949999937,
          "velocity": 0.7874015748031497,
          "duration": 0.17647049999999354
        },
        {
          "name": "G2",
          "midi": 43,
          "time": 144.70580999999936,
          "velocity": 0.7874015748031497,
          "duration": 0.17647049999999354
        },
        {
          "name": "F#2",
          "midi": 42,
          "time": 144.88228049999935,
          "velocity": 0.7874015748031497,
          "duration": 0.17647049999999354
        },
        {
          "name": "D2",
          "midi": 38,
          "time": 145.05875099999935,
          "velocity": 0.7874015748031497,
          "duration": 0.34411747499999024
        },
        {
          "name": "D2",
          "midi": 38,
          "time": 145.41169199999933,
          "velocity": 0.7874015748031497,
          "duration": 0.35294099999998707
        },
        {
          "name": "E2",
          "midi": 40,
          "time": 145.76463299999932,
          "velocity": 0.7874015748031497,
          "duration": 0.35294099999998707
        },
        {
          "name": "E2",
          "midi": 40,
          "time": 146.1175739999993,
          "velocity": 0.7874015748031497,
          "duration": 0.7058820000000026
        },
        {
          "name": "E2",
          "midi": 40,
          "time": 146.8234559999993,
          "velocity": 0.7874015748031497,
          "duration": 0.35294099999998707
        },
        {
          "name": "E2",
          "midi": 40,
          "time": 147.1763969999993,
          "velocity": 0.7874015748031497,
          "duration": 0.35294099999998707
        },
        {
          "name": "E3",
          "midi": 52,
          "time": 147.52933799999929,
          "velocity": 0.7874015748031497,
          "duration": 0.35294099999998707
        },
        {
          "name": "E3",
          "midi": 52,
          "time": 147.88227899999927,
          "velocity": 0.7874015748031497,
          "duration": 0.17647049999999354
        },
        {
          "name": "E3",
          "midi": 52,
          "time": 148.05874949999927,
          "velocity": 0.7874015748031497,
          "duration": 0.17647049999999354
        },
        {
          "name": "E3",
          "midi": 52,
          "time": 148.23521999999926,
          "velocity": 0.7874015748031497,
          "duration": 0.17647049999999354
        },
        {
          "name": "E3",
          "midi": 52,
          "time": 148.41169049999925,
          "velocity": 0.7874015748031497,
          "duration": 0.35294099999998707
        },
        {
          "name": "E3",
          "midi": 52,
          "time": 148.76463149999924,
          "velocity": 0.7874015748031497,
          "duration": 0.35294099999998707
        },
        {
          "name": "D3",
          "midi": 50,
          "time": 149.11757249999923,
          "velocity": 0.7874015748031497,
          "duration": 0.17647049999999354
        },
        {
          "name": "B2",
          "midi": 47,
          "time": 149.29404299999922,
          "velocity": 0.7874015748031497,
          "duration": 0.35294099999998707
        },
        {
          "name": "D2",
          "midi": 38,
          "time": 149.6469839999992,
          "velocity": 0.7874015748031497,
          "duration": 2.8235280000000103
        },
        {
          "name": "B1",
          "midi": 35,
          "time": 152.47051199999922,
          "velocity": 0.7874015748031497,
          "duration": 0.35294099999998707
        },
        {
          "name": "B1",
          "midi": 35,
          "time": 152.8234529999992,
          "velocity": 0.7874015748031497,
          "duration": 0.35294099999998707
        },
        {
          "name": "D2",
          "midi": 38,
          "time": 153.1763939999992,
          "velocity": 0.7874015748031497,
          "duration": 0.17647049999999354
        },
        {
          "name": "D#2",
          "midi": 39,
          "time": 153.35286449999919,
          "velocity": 0.7874015748031497,
          "duration": 0.17647049999999354
        },
        {
          "name": "E2",
          "midi": 40,
          "time": 153.52933499999918,
          "velocity": 0.7874015748031497,
          "duration": 0.35294099999998707
        },
        {
          "name": "E2",
          "midi": 40,
          "time": 153.88227599999917,
          "velocity": 0.7874015748031497,
          "duration": 0.17647049999999354
        },
        {
          "name": "F2",
          "midi": 41,
          "time": 154.05874649999916,
          "velocity": 0.7874015748031497,
          "duration": 0.17647049999999354
        },
        {
          "name": "F#2",
          "midi": 42,
          "time": 154.23521699999915,
          "velocity": 0.7874015748031497,
          "duration": 0.35294099999998707
        },
        {
          "name": "A2",
          "midi": 45,
          "time": 154.58815799999914,
          "velocity": 0.7874015748031497,
          "duration": 0.17647049999999354
        },
        {
          "name": "A#2",
          "midi": 46,
          "time": 154.76462849999913,
          "velocity": 0.7874015748031497,
          "duration": 0.17647049999999354
        },
        {
          "name": "B2",
          "midi": 47,
          "time": 154.94109899999913,
          "velocity": 0.7874015748031497,
          "duration": 0.35294099999998707
        },
        {
          "name": "B1",
          "midi": 35,
          "time": 155.29403999999911,
          "velocity": 0.7874015748031497,
          "duration": 0.35294099999998707
        },
        {
          "name": "B1",
          "midi": 35,
          "time": 155.6469809999991,
          "velocity": 0.7874015748031497,
          "duration": 0.35294099999998707
        },
        {
          "name": "D2",
          "midi": 38,
          "time": 155.9999219999991,
          "velocity": 0.7874015748031497,
          "duration": 0.17647049999999354
        },
        {
          "name": "D#2",
          "midi": 39,
          "time": 156.17639249999908,
          "velocity": 0.7874015748031497,
          "duration": 0.17647049999999354
        },
        {
          "name": "E2",
          "midi": 40,
          "time": 156.35286299999908,
          "velocity": 0.7874015748031497,
          "duration": 0.35294099999998707
        },
        {
          "name": "E2",
          "midi": 40,
          "time": 156.70580399999906,
          "velocity": 0.7874015748031497,
          "duration": 0.17647049999999354
        },
        {
          "name": "F2",
          "midi": 41,
          "time": 156.88227449999906,
          "velocity": 0.7874015748031497,
          "duration": 0.17647049999999354
        },
        {
          "name": "F#2",
          "midi": 42,
          "time": 157.05874499999905,
          "velocity": 0.7874015748031497,
          "duration": 0.35294099999998707
        },
        {
          "name": "A2",
          "midi": 45,
          "time": 157.41168599999904,
          "velocity": 0.7874015748031497,
          "duration": 0.17647049999999354
        },
        {
          "name": "A#2",
          "midi": 46,
          "time": 157.58815649999903,
          "velocity": 0.7874015748031497,
          "duration": 0.17647049999999354
        },
        {
          "name": "B2",
          "midi": 47,
          "time": 157.76462699999902,
          "velocity": 0.7874015748031497,
          "duration": 0.35294099999998707
        },
        {
          "name": "E2",
          "midi": 40,
          "time": 158.117567999999,
          "velocity": 0.7874015748031497,
          "duration": 0.35294099999998707
        },
        {
          "name": "E2",
          "midi": 40,
          "time": 158.470508999999,
          "velocity": 0.7874015748031497,
          "duration": 0.35294099999998707
        },
        {
          "name": "E3",
          "midi": 52,
          "time": 158.82344999999899,
          "velocity": 0.7874015748031497,
          "duration": 0.35294099999998707
        },
        {
          "name": "E3",
          "midi": 52,
          "time": 159.17639099999897,
          "velocity": 0.7874015748031497,
          "duration": 0.17647049999999354
        },
        {
          "name": "E3",
          "midi": 52,
          "time": 159.35286149999897,
          "velocity": 0.7874015748031497,
          "duration": 0.17647049999999354
        },
        {
          "name": "E3",
          "midi": 52,
          "time": 159.52933199999896,
          "velocity": 0.7874015748031497,
          "duration": 0.17647049999999354
        },
        {
          "name": "E3",
          "midi": 52,
          "time": 159.70580249999895,
          "velocity": 0.7874015748031497,
          "duration": 0.35294099999998707
        },
        {
          "name": "E3",
          "midi": 52,
          "time": 160.05874349999894,
          "velocity": 0.7874015748031497,
          "duration": 0.35294099999998707
        },
        {
          "name": "D3",
          "midi": 50,
          "time": 160.41168449999893,
          "velocity": 0.7874015748031497,
          "duration": 0.17647049999999354
        },
        {
          "name": "B2",
          "midi": 47,
          "time": 160.58815499999892,
          "velocity": 0.7874015748031497,
          "duration": 0.35294099999998707
        },
        {
          "name": "D2",
          "midi": 38,
          "time": 160.9410959999989,
          "velocity": 0.7874015748031497,
          "duration": 2.8235280000000103
        },
        {
          "name": "B1",
          "midi": 35,
          "time": 163.76462399999892,
          "velocity": 0.7874015748031497,
          "duration": 0.35294099999998707
        },
        {
          "name": "B1",
          "midi": 35,
          "time": 164.1175649999989,
          "velocity": 0.7874015748031497,
          "duration": 0.35294099999998707
        },
        {
          "name": "D2",
          "midi": 38,
          "time": 164.4705059999989,
          "velocity": 0.7874015748031497,
          "duration": 0.17647049999999354
        },
        {
          "name": "D#2",
          "midi": 39,
          "time": 164.64697649999889,
          "velocity": 0.7874015748031497,
          "duration": 0.17647049999999354
        },
        {
          "name": "E2",
          "midi": 40,
          "time": 164.82344699999888,
          "velocity": 0.7874015748031497,
          "duration": 0.35294099999998707
        },
        {
          "name": "E2",
          "midi": 40,
          "time": 165.17638799999887,
          "velocity": 0.7874015748031497,
          "duration": 0.17647049999999354
        },
        {
          "name": "F2",
          "midi": 41,
          "time": 165.35285849999886,
          "velocity": 0.7874015748031497,
          "duration": 0.17647049999999354
        },
        {
          "name": "F#2",
          "midi": 42,
          "time": 165.52932899999885,
          "velocity": 0.7874015748031497,
          "duration": 0.35294099999998707
        },
        {
          "name": "A2",
          "midi": 45,
          "time": 165.88226999999884,
          "velocity": 0.7874015748031497,
          "duration": 0.17647049999999354
        },
        {
          "name": "A#2",
          "midi": 46,
          "time": 166.05874049999883,
          "velocity": 0.7874015748031497,
          "duration": 0.17647049999999354
        },
        {
          "name": "B2",
          "midi": 47,
          "time": 166.23521099999883,
          "velocity": 0.7874015748031497,
          "duration": 0.35294099999998707
        },
        {
          "name": "B1",
          "midi": 35,
          "time": 166.58815199999881,
          "velocity": 0.7874015748031497,
          "duration": 0.35294099999998707
        },
        {
          "name": "B1",
          "midi": 35,
          "time": 166.9410929999988,
          "velocity": 0.7874015748031497,
          "duration": 0.35294099999998707
        },
        {
          "name": "D2",
          "midi": 38,
          "time": 167.2940339999988,
          "velocity": 0.7874015748031497,
          "duration": 0.17647049999999354
        },
        {
          "name": "D#2",
          "midi": 39,
          "time": 167.47050449999878,
          "velocity": 0.7874015748031497,
          "duration": 0.17647049999999354
        },
        {
          "name": "E2",
          "midi": 40,
          "time": 167.64697499999878,
          "velocity": 0.7874015748031497,
          "duration": 0.35294099999998707
        },
        {
          "name": "E2",
          "midi": 40,
          "time": 167.99991599999876,
          "velocity": 0.7874015748031497,
          "duration": 0.17647049999999354
        },
        {
          "name": "F2",
          "midi": 41,
          "time": 168.17638649999876,
          "velocity": 0.7874015748031497,
          "duration": 0.17647049999999354
        },
        {
          "name": "F#2",
          "midi": 42,
          "time": 168.35285699999875,
          "velocity": 0.7874015748031497,
          "duration": 0.35294099999998707
        },
        {
          "name": "A2",
          "midi": 45,
          "time": 168.70579799999874,
          "velocity": 0.7874015748031497,
          "duration": 0.17647049999999354
        },
        {
          "name": "A#2",
          "midi": 46,
          "time": 168.88226849999873,
          "velocity": 0.7874015748031497,
          "duration": 0.17647049999999354
        },
        {
          "name": "B2",
          "midi": 47,
          "time": 169.05873899999872,
          "velocity": 0.7874015748031497,
          "duration": 0.35294099999998707
        },
        {
          "name": "C#3",
          "midi": 49,
          "time": 169.4116799999987,
          "velocity": 0.7874015748031497,
          "duration": 0.17647049999999354
        },
        {
          "name": "B2",
          "midi": 47,
          "time": 169.5881504999987,
          "velocity": 0.7874015748031497,
          "duration": 0.17647049999999354
        },
        {
          "name": "G#2",
          "midi": 44,
          "time": 169.9410914999987,
          "velocity": 0.7874015748031497,
          "duration": 0.17647049999999354
        },
        {
          "name": "F#2",
          "midi": 42,
          "time": 170.29403249999868,
          "velocity": 0.7874015748031497,
          "duration": 0.17647049999999354
        },
        {
          "name": "E2",
          "midi": 40,
          "time": 170.64697349999867,
          "velocity": 0.7874015748031497,
          "duration": 0.17647049999999354
        },
        {
          "name": "C#2",
          "midi": 37,
          "time": 170.99403214999865,
          "velocity": 0.7874015748031497,
          "duration": 0.17647049999999354
        },
        {
          "name": "B1",
          "midi": 35,
          "time": 171.35285549999864,
          "velocity": 0.7874015748031497,
          "duration": 0.17647049999999354
        },
        {
          "name": "B1",
          "midi": 35,
          "time": 171.52932599999863,
          "velocity": 0.7874015748031497,
          "duration": 0.17647049999999354
        },
        {
          "name": "C#2",
          "midi": 37,
          "time": 171.70579649999863,
          "velocity": 0.7874015748031497,
          "duration": 0.17647049999999354
        },
        {
          "name": "C#2",
          "midi": 37,
          "time": 171.88226699999862,
          "velocity": 0.7874015748031497,
          "duration": 0.17647049999999354
        },
        {
          "name": "C#3",
          "midi": 49,
          "time": 172.2352079999986,
          "velocity": 0.7874015748031497,
          "duration": 0.17647049999999354
        },
        {
          "name": "B2",
          "midi": 47,
          "time": 172.4116784999986,
          "velocity": 0.7874015748031497,
          "duration": 0.17647049999999354
        },
        {
          "name": "G#2",
          "midi": 44,
          "time": 172.7646194999986,
          "velocity": 0.7874015748031497,
          "duration": 0.17647049999999354
        },
        {
          "name": "F#2",
          "midi": 42,
          "time": 173.11756049999858,
          "velocity": 0.7874015748031497,
          "duration": 0.17647049999999354
        },
        {
          "name": "E2",
          "midi": 40,
          "time": 173.47050149999856,
          "velocity": 0.7874015748031497,
          "duration": 0.17647049999999354
        },
        {
          "name": "C#2",
          "midi": 37,
          "time": 173.81756014999854,
          "velocity": 0.7874015748031497,
          "duration": 0.17647049999999354
        },
        {
          "name": "B1",
          "midi": 35,
          "time": 174.17638349999854,
          "velocity": 0.7874015748031497,
          "duration": 0.17647049999999354
        },
        {
          "name": "B1",
          "midi": 35,
          "time": 174.35285399999853,
          "velocity": 0.7874015748031497,
          "duration": 0.17647049999999354
        },
        {
          "name": "C#2",
          "midi": 37,
          "time": 174.52932449999852,
          "velocity": 0.7874015748031497,
          "duration": 0.17647049999999354
        },
        {
          "name": "C#2",
          "midi": 37,
          "time": 174.70579499999852,
          "velocity": 0.7874015748031497,
          "duration": 0.17647049999999354
        },
        {
          "name": "B1",
          "midi": 35,
          "time": 175.0587359999985,
          "velocity": 0.7874015748031497,
          "duration": 0.17647049999999354
        },
        {
          "name": "C#2",
          "midi": 37,
          "time": 175.2352064999985,
          "velocity": 0.7874015748031497,
          "duration": 0.17647049999999354
        },
        {
          "name": "C#2",
          "midi": 37,
          "time": 175.4116769999985,
          "velocity": 0.7874015748031497,
          "duration": 0.17647049999999354
        },
        {
          "name": "C#2",
          "midi": 37,
          "time": 175.58814749999848,
          "velocity": 0.7874015748031497,
          "duration": 0.08823524999999677
        },
        {
          "name": "C#2",
          "midi": 37,
          "time": 175.76461799999848,
          "velocity": 0.7874015748031497,
          "duration": 0.08823524999999677
        },
        {
          "name": "C#2",
          "midi": 37,
          "time": 175.94108849999847,
          "velocity": 0.7874015748031497,
          "duration": 0.08823524999999677
        },
        {
          "name": "C#2",
          "midi": 37,
          "time": 176.11755899999847,
          "velocity": 0.7874015748031497,
          "duration": 0.08823524999999677
        },
        {
          "name": "C#2",
          "midi": 37,
          "time": 176.29402949999846,
          "velocity": 0.7874015748031497,
          "duration": 0.08823524999999677
        },
        {
          "name": "B1",
          "midi": 35,
          "time": 176.47049999999845,
          "velocity": 0.7874015748031497,
          "duration": 0.17647049999999354
        },
        {
          "name": "C#2",
          "midi": 37,
          "time": 176.64697049999845,
          "velocity": 0.7874015748031497,
          "duration": 0.35294099999998707
        },
        {
          "name": "D2",
          "midi": 38,
          "time": 176.99991149999843,
          "velocity": 0.7874015748031497,
          "duration": 0.35294099999998707
        },
        {
          "name": "C#2",
          "midi": 37,
          "time": 177.35285249999842,
          "velocity": 0.7874015748031497,
          "duration": 0.35294099999998707
        },
        {
          "name": "B1",
          "midi": 35,
          "time": 177.7057934999984,
          "velocity": 0.7874015748031497,
          "duration": 0.17647049999999354
        },
        {
          "name": "B1",
          "midi": 35,
          "time": 177.8822639999984,
          "velocity": 0.7874015748031497,
          "duration": 0.17647049999999354
        },
        {
          "name": "C#2",
          "midi": 37,
          "time": 178.0587344999984,
          "velocity": 0.7874015748031497,
          "duration": 0.17647049999999354
        },
        {
          "name": "C#2",
          "midi": 37,
          "time": 178.2352049999984,
          "velocity": 0.7874015748031497,
          "duration": 0.17647049999999354
        },
        {
          "name": "C#2",
          "midi": 37,
          "time": 178.41167549999838,
          "velocity": 0.7874015748031497,
          "duration": 0.08823524999999677
        },
        {
          "name": "C#2",
          "midi": 37,
          "time": 178.58814599999837,
          "velocity": 0.7874015748031497,
          "duration": 0.08823524999999677
        },
        {
          "name": "C#2",
          "midi": 37,
          "time": 178.76461649999837,
          "velocity": 0.7874015748031497,
          "duration": 0.08823524999999677
        },
        {
          "name": "C#2",
          "midi": 37,
          "time": 178.94108699999836,
          "velocity": 0.7874015748031497,
          "duration": 0.08823524999999677
        },
        {
          "name": "C#2",
          "midi": 37,
          "time": 179.11755749999836,
          "velocity": 0.7874015748031497,
          "duration": 0.08823524999999677
        },
        {
          "name": "B1",
          "midi": 35,
          "time": 179.29402799999835,
          "velocity": 0.7874015748031497,
          "duration": 0.17647049999999354
        },
        {
          "name": "C#2",
          "midi": 37,
          "time": 179.47049849999834,
          "velocity": 0.7874015748031497,
          "duration": 0.35294099999998707
        },
        {
          "name": "D2",
          "midi": 38,
          "time": 179.82343949999833,
          "velocity": 0.7874015748031497,
          "duration": 0.35294099999998707
        },
        {
          "name": "C#2",
          "midi": 37,
          "time": 180.17638049999832,
          "velocity": 0.7874015748031497,
          "duration": 0.35294099999998707
        },
        {
          "name": "B1",
          "midi": 35,
          "time": 180.5293214999983,
          "velocity": 0.7874015748031497,
          "duration": 0.17647049999999354
        },
        {
          "name": "B1",
          "midi": 35,
          "time": 180.7057919999983,
          "velocity": 0.7874015748031497,
          "duration": 0.17647049999999354
        },
        {
          "name": "C#2",
          "midi": 37,
          "time": 180.8822624999983,
          "velocity": 0.7874015748031497,
          "duration": 0.17647049999999354
        },
        {
          "name": "C#2",
          "midi": 37,
          "time": 181.05873299999828,
          "velocity": 0.7874015748031497,
          "duration": 0.17647049999999354
        },
        {
          "name": "C#2",
          "midi": 37,
          "time": 181.23520349999828,
          "velocity": 0.7874015748031497,
          "duration": 0.08823524999999677
        },
        {
          "name": "C#2",
          "midi": 37,
          "time": 181.41167399999827,
          "velocity": 0.7874015748031497,
          "duration": 0.08823524999999677
        },
        {
          "name": "C#2",
          "midi": 37,
          "time": 181.58814449999826,
          "velocity": 0.7874015748031497,
          "duration": 0.08823524999999677
        },
        {
          "name": "C#2",
          "midi": 37,
          "time": 181.76461499999826,
          "velocity": 0.7874015748031497,
          "duration": 0.08823524999999677
        },
        {
          "name": "C#2",
          "midi": 37,
          "time": 181.94108549999825,
          "velocity": 0.7874015748031497,
          "duration": 0.08823524999999677
        },
        {
          "name": "B1",
          "midi": 35,
          "time": 182.11755599999825,
          "velocity": 0.7874015748031497,
          "duration": 0.17647049999999354
        },
        {
          "name": "C#2",
          "midi": 37,
          "time": 182.29402649999824,
          "velocity": 0.7874015748031497,
          "duration": 0.35294099999998707
        },
        {
          "name": "D2",
          "midi": 38,
          "time": 182.64696749999823,
          "velocity": 0.7874015748031497,
          "duration": 0.35294099999998707
        },
        {
          "name": "C#2",
          "midi": 37,
          "time": 182.9999084999982,
          "velocity": 0.7874015748031497,
          "duration": 0.35294099999998707
        },
        {
          "name": "B1",
          "midi": 35,
          "time": 183.3528494999982,
          "velocity": 0.7874015748031497,
          "duration": 0.17647049999999354
        },
        {
          "name": "B1",
          "midi": 35,
          "time": 183.5293199999982,
          "velocity": 0.7874015748031497,
          "duration": 0.17647049999999354
        },
        {
          "name": "C#2",
          "midi": 37,
          "time": 183.7057904999982,
          "velocity": 0.7874015748031497,
          "duration": 0.17647049999999354
        },
        {
          "name": "C#2",
          "midi": 37,
          "time": 183.88226099999818,
          "velocity": 0.7874015748031497,
          "duration": 0.17647049999999354
        },
        {
          "name": "C#2",
          "midi": 37,
          "time": 184.05873149999817,
          "velocity": 0.7874015748031497,
          "duration": 0.08823524999999677
        },
        {
          "name": "C#2",
          "midi": 37,
          "time": 184.23520199999817,
          "velocity": 0.7874015748031497,
          "duration": 0.08823524999999677
        },
        {
          "name": "C#2",
          "midi": 37,
          "time": 184.41167249999816,
          "velocity": 0.7874015748031497,
          "duration": 0.08823524999999677
        },
        {
          "name": "C#2",
          "midi": 37,
          "time": 184.58814299999815,
          "velocity": 0.7874015748031497,
          "duration": 0.08823524999999677
        },
        {
          "name": "C#2",
          "midi": 37,
          "time": 184.76461349999815,
          "velocity": 0.7874015748031497,
          "duration": 0.08823524999999677
        },
        {
          "name": "B1",
          "midi": 35,
          "time": 184.94108399999814,
          "velocity": 0.7874015748031497,
          "duration": 0.17647049999999354
        },
        {
          "name": "C#2",
          "midi": 37,
          "time": 185.11755449999814,
          "velocity": 0.7874015748031497,
          "duration": 0.35294099999998707
        },
        {
          "name": "D2",
          "midi": 38,
          "time": 185.47049549999812,
          "velocity": 0.7874015748031497,
          "duration": 0.35294099999998707
        },
        {
          "name": "C#2",
          "midi": 37,
          "time": 185.8234364999981,
          "velocity": 0.7874015748031497,
          "duration": 0.35294099999998707
        },
        {
          "name": "B1",
          "midi": 35,
          "time": 186.1763774999981,
          "velocity": 0.7874015748031497,
          "duration": 0.17647049999999354
        },
        {
          "name": "B1",
          "midi": 35,
          "time": 186.3528479999981,
          "velocity": 0.7874015748031497,
          "duration": 0.17647049999999354
        },
        {
          "name": "C#2",
          "midi": 37,
          "time": 186.52931849999808,
          "velocity": 0.7874015748031497,
          "duration": 0.17647049999999354
        },
        {
          "name": "C#2",
          "midi": 37,
          "time": 186.70578899999808,
          "velocity": 0.7874015748031497,
          "duration": 0.17647049999999354
        },
        {
          "name": "C#2",
          "midi": 37,
          "time": 186.88225949999807,
          "velocity": 0.7874015748031497,
          "duration": 0.08823524999999677
        },
        {
          "name": "C#2",
          "midi": 37,
          "time": 187.05872999999806,
          "velocity": 0.7874015748031497,
          "duration": 0.08823524999999677
        },
        {
          "name": "C#2",
          "midi": 37,
          "time": 187.23520049999806,
          "velocity": 0.7874015748031497,
          "duration": 0.08823524999999677
        },
        {
          "name": "C#2",
          "midi": 37,
          "time": 187.41167099999805,
          "velocity": 0.7874015748031497,
          "duration": 0.08823524999999677
        },
        {
          "name": "C#2",
          "midi": 37,
          "time": 187.58814149999804,
          "velocity": 0.7874015748031497,
          "duration": 0.08823524999999677
        },
        {
          "name": "B1",
          "midi": 35,
          "time": 187.76461199999804,
          "velocity": 0.7874015748031497,
          "duration": 0.17647049999999354
        },
        {
          "name": "C#2",
          "midi": 37,
          "time": 187.94108249999803,
          "velocity": 0.7874015748031497,
          "duration": 0.35294099999998707
        },
        {
          "name": "D2",
          "midi": 38,
          "time": 188.29402349999802,
          "velocity": 0.7874015748031497,
          "duration": 0.35294099999998707
        },
        {
          "name": "C#2",
          "midi": 37,
          "time": 188.646964499998,
          "velocity": 0.7874015748031497,
          "duration": 0.35294099999998707
        },
        {
          "name": "B1",
          "midi": 35,
          "time": 188.999905499998,
          "velocity": 0.7874015748031497,
          "duration": 0.17647049999999354
        },
        {
          "name": "B1",
          "midi": 35,
          "time": 189.176375999998,
          "velocity": 0.7874015748031497,
          "duration": 0.17647049999999354
        },
        {
          "name": "C#2",
          "midi": 37,
          "time": 189.35284649999798,
          "velocity": 0.7874015748031497,
          "duration": 0.17647049999999354
        },
        {
          "name": "C#2",
          "midi": 37,
          "time": 189.52931699999797,
          "velocity": 0.7874015748031497,
          "duration": 0.17647049999999354
        },
        {
          "name": "C#2",
          "midi": 37,
          "time": 189.70578749999797,
          "velocity": 0.7874015748031497,
          "duration": 0.08823524999999677
        },
        {
          "name": "C#2",
          "midi": 37,
          "time": 189.88225799999796,
          "velocity": 0.7874015748031497,
          "duration": 0.08823524999999677
        },
        {
          "name": "C#2",
          "midi": 37,
          "time": 190.05872849999795,
          "velocity": 0.7874015748031497,
          "duration": 0.08823524999999677
        },
        {
          "name": "C#2",
          "midi": 37,
          "time": 190.23519899999795,
          "velocity": 0.7874015748031497,
          "duration": 0.08823524999999677
        },
        {
          "name": "C#2",
          "midi": 37,
          "time": 190.41166949999794,
          "velocity": 0.7874015748031497,
          "duration": 0.08823524999999677
        },
        {
          "name": "B1",
          "midi": 35,
          "time": 190.58813999999794,
          "velocity": 0.7874015748031497,
          "duration": 0.17647049999999354
        },
        {
          "name": "C#2",
          "midi": 37,
          "time": 190.76461049999793,
          "velocity": 0.7874015748031497,
          "duration": 0.35294099999998707
        },
        {
          "name": "D2",
          "midi": 38,
          "time": 191.11755149999792,
          "velocity": 0.7874015748031497,
          "duration": 0.35294099999998707
        },
        {
          "name": "C#2",
          "midi": 37,
          "time": 191.4704924999979,
          "velocity": 0.7874015748031497,
          "duration": 0.35294099999998707
        },
        {
          "name": "B1",
          "midi": 35,
          "time": 191.8234334999979,
          "velocity": 0.7874015748031497,
          "duration": 0.17647049999999354
        },
        {
          "name": "B1",
          "midi": 35,
          "time": 191.99990399999788,
          "velocity": 0.7874015748031497,
          "duration": 0.17647049999999354
        },
        {
          "name": "C#2",
          "midi": 37,
          "time": 192.17637449999788,
          "velocity": 0.7874015748031497,
          "duration": 0.17647049999999354
        },
        {
          "name": "C#2",
          "midi": 37,
          "time": 192.35284499999787,
          "velocity": 0.7874015748031497,
          "duration": 0.17647049999999354
        },
        {
          "name": "C#2",
          "midi": 37,
          "time": 192.52931549999786,
          "velocity": 0.7874015748031497,
          "duration": 0.08823524999999677
        },
        {
          "name": "C#2",
          "midi": 37,
          "time": 192.70578599999786,
          "velocity": 0.7874015748031497,
          "duration": 0.08823524999999677
        },
        {
          "name": "C#2",
          "midi": 37,
          "time": 192.88225649999785,
          "velocity": 0.7874015748031497,
          "duration": 0.08823524999999677
        },
        {
          "name": "C#2",
          "midi": 37,
          "time": 193.05872699999784,
          "velocity": 0.7874015748031497,
          "duration": 0.08823524999999677
        },
        {
          "name": "C#2",
          "midi": 37,
          "time": 193.23519749999784,
          "velocity": 0.7874015748031497,
          "duration": 0.08823524999999677
        },
        {
          "name": "B1",
          "midi": 35,
          "time": 193.41166799999783,
          "velocity": 0.7874015748031497,
          "duration": 0.17647049999999354
        },
        {
          "name": "C#2",
          "midi": 37,
          "time": 193.58813849999783,
          "velocity": 0.7874015748031497,
          "duration": 0.35294099999998707
        },
        {
          "name": "D2",
          "midi": 38,
          "time": 193.9410794999978,
          "velocity": 0.7874015748031497,
          "duration": 0.35294099999998707
        },
        {
          "name": "C#2",
          "midi": 37,
          "time": 194.2940204999978,
          "velocity": 0.7874015748031497,
          "duration": 0.35294099999998707
        },
        {
          "name": "B1",
          "midi": 35,
          "time": 194.6469614999978,
          "velocity": 0.7874015748031497,
          "duration": 0.17647049999999354
        },
        {
          "name": "B1",
          "midi": 35,
          "time": 194.82343199999778,
          "velocity": 0.7874015748031497,
          "duration": 0.17647049999999354
        },
        {
          "name": "C#2",
          "midi": 37,
          "time": 194.99990249999777,
          "velocity": 0.7874015748031497,
          "duration": 0.17647049999999354
        },
        {
          "name": "C#2",
          "midi": 37,
          "time": 195.17637299999777,
          "velocity": 0.7874015748031497,
          "duration": 0.17647049999999354
        },
        {
          "name": "C#2",
          "midi": 37,
          "time": 195.35284349999776,
          "velocity": 0.7874015748031497,
          "duration": 0.08823524999999677
        },
        {
          "name": "C#2",
          "midi": 37,
          "time": 195.52931399999775,
          "velocity": 0.7874015748031497,
          "duration": 0.08823524999999677
        },
        {
          "name": "C#2",
          "midi": 37,
          "time": 195.70578449999775,
          "velocity": 0.7874015748031497,
          "duration": 0.08823524999999677
        },
        {
          "name": "C#2",
          "midi": 37,
          "time": 195.88225499999774,
          "velocity": 0.7874015748031497,
          "duration": 0.08823524999999677
        },
        {
          "name": "C#2",
          "midi": 37,
          "time": 196.05872549999773,
          "velocity": 0.7874015748031497,
          "duration": 0.08823524999999677
        },
        {
          "name": "B1",
          "midi": 35,
          "time": 196.23519599999773,
          "velocity": 0.7874015748031497,
          "duration": 0.17647049999999354
        },
        {
          "name": "C#2",
          "midi": 37,
          "time": 196.41166649999772,
          "velocity": 0.7874015748031497,
          "duration": 0.35294099999998707
        },
        {
          "name": "D2",
          "midi": 38,
          "time": 196.7646074999977,
          "velocity": 0.7874015748031497,
          "duration": 0.35294099999998707
        },
        {
          "name": "C#2",
          "midi": 37,
          "time": 197.1175484999977,
          "velocity": 0.7874015748031497,
          "duration": 0.35294099999998707
        },
        {
          "name": "B1",
          "midi": 35,
          "time": 197.47048949999768,
          "velocity": 0.7874015748031497,
          "duration": 0.17647049999999354
        },
        {
          "name": "C#3",
          "midi": 49,
          "time": 197.64695999999768,
          "velocity": 0.7874015748031497,
          "duration": 0.17647049999999354
        },
        {
          "name": "B2",
          "midi": 47,
          "time": 197.82343049999767,
          "velocity": 0.7874015748031497,
          "duration": 0.17647049999999354
        },
        {
          "name": "G#2",
          "midi": 44,
          "time": 198.17637149999766,
          "velocity": 0.7874015748031497,
          "duration": 0.17647049999999354
        },
        {
          "name": "F#2",
          "midi": 42,
          "time": 198.52931249999764,
          "velocity": 0.7874015748031497,
          "duration": 0.17647049999999354
        },
        {
          "name": "E2",
          "midi": 40,
          "time": 198.88225349999763,
          "velocity": 0.7874015748031497,
          "duration": 0.17647049999999354
        },
        {
          "name": "C#2",
          "midi": 37,
          "time": 199.2293121499976,
          "velocity": 0.7874015748031497,
          "duration": 0.17647049999999354
        },
        {
          "name": "B1",
          "midi": 35,
          "time": 199.5881354999976,
          "velocity": 0.7874015748031497,
          "duration": 0.17647049999999354
        },
        {
          "name": "B1",
          "midi": 35,
          "time": 199.7646059999976,
          "velocity": 0.7874015748031497,
          "duration": 0.17647049999999354
        },
        {
          "name": "C#2",
          "midi": 37,
          "time": 199.9410764999976,
          "velocity": 0.7874015748031497,
          "duration": 0.17647049999999354
        },
        {
          "name": "C#2",
          "midi": 37,
          "time": 200.1175469999976,
          "velocity": 0.7874015748031497,
          "duration": 0.17647049999999354
        },
        {
          "name": "C#3",
          "midi": 49,
          "time": 200.47048799999757,
          "velocity": 0.7874015748031497,
          "duration": 0.17647049999999354
        },
        {
          "name": "B2",
          "midi": 47,
          "time": 200.64695849999757,
          "velocity": 0.7874015748031497,
          "duration": 0.17647049999999354
        },
        {
          "name": "G#2",
          "midi": 44,
          "time": 200.99989949999755,
          "velocity": 0.7874015748031497,
          "duration": 0.17647049999999354
        },
        {
          "name": "F#2",
          "midi": 42,
          "time": 201.35284049999754,
          "velocity": 0.7874015748031497,
          "duration": 0.17647049999999354
        },
        {
          "name": "E2",
          "midi": 40,
          "time": 201.70578149999753,
          "velocity": 0.7874015748031497,
          "duration": 0.17647049999999354
        },
        {
          "name": "C#2",
          "midi": 37,
          "time": 202.0528401499975,
          "velocity": 0.7874015748031497,
          "duration": 0.17647049999999354
        },
        {
          "name": "B1",
          "midi": 35,
          "time": 202.4116634999975,
          "velocity": 0.7874015748031497,
          "duration": 0.17647049999999354
        },
        {
          "name": "B1",
          "midi": 35,
          "time": 202.5881339999975,
          "velocity": 0.7874015748031497,
          "duration": 0.17647049999999354
        },
        {
          "name": "C#2",
          "midi": 37,
          "time": 202.7646044999975,
          "velocity": 0.7874015748031497,
          "duration": 0.17647049999999354
        },
        {
          "name": "C#2",
          "midi": 37,
          "time": 202.94107499999748,
          "velocity": 0.7874015748031497,
          "duration": 0.17647049999999354
        },
        {
          "name": "B1",
          "midi": 35,
          "time": 203.29401599999747,
          "velocity": 0.7874015748031497,
          "duration": 0.35294099999998707
        },
        {
          "name": "B1",
          "midi": 35,
          "time": 203.64695699999746,
          "velocity": 0.7874015748031497,
          "duration": 0.35294099999998707
        },
        {
          "name": "D2",
          "midi": 38,
          "time": 203.99989799999744,
          "velocity": 0.7874015748031497,
          "duration": 0.17647049999999354
        },
        {
          "name": "D#2",
          "midi": 39,
          "time": 204.17636849999744,
          "velocity": 0.7874015748031497,
          "duration": 0.17647049999999354
        },
        {
          "name": "E2",
          "midi": 40,
          "time": 204.35283899999743,
          "velocity": 0.7874015748031497,
          "duration": 0.35294099999998707
        },
        {
          "name": "E2",
          "midi": 40,
          "time": 204.70577999999742,
          "velocity": 0.7874015748031497,
          "duration": 0.17647049999999354
        },
        {
          "name": "F2",
          "midi": 41,
          "time": 204.8822504999974,
          "velocity": 0.7874015748031497,
          "duration": 0.17647049999999354
        },
        {
          "name": "F#2",
          "midi": 42,
          "time": 205.0587209999974,
          "velocity": 0.7874015748031497,
          "duration": 0.35294099999998707
        },
        {
          "name": "A2",
          "midi": 45,
          "time": 205.4116619999974,
          "velocity": 0.7874015748031497,
          "duration": 0.17647049999999354
        },
        {
          "name": "A#2",
          "midi": 46,
          "time": 205.58813249999739,
          "velocity": 0.7874015748031497,
          "duration": 0.17647049999999354
        },
        {
          "name": "B2",
          "midi": 47,
          "time": 205.76460299999738,
          "velocity": 0.7874015748031497,
          "duration": 0.35294099999998707
        },
        {
          "name": "B1",
          "midi": 35,
          "time": 206.11754399999737,
          "velocity": 0.7874015748031497,
          "duration": 0.35294099999998707
        },
        {
          "name": "B1",
          "midi": 35,
          "time": 206.47048499999735,
          "velocity": 0.7874015748031497,
          "duration": 0.35294099999998707
        },
        {
          "name": "D2",
          "midi": 38,
          "time": 206.82342599999734,
          "velocity": 0.7874015748031497,
          "duration": 0.17647049999999354
        },
        {
          "name": "D#2",
          "midi": 39,
          "time": 206.99989649999733,
          "velocity": 0.7874015748031497,
          "duration": 0.17647049999999354
        },
        {
          "name": "E2",
          "midi": 40,
          "time": 207.17636699999733,
          "velocity": 0.7874015748031497,
          "duration": 0.35294099999998707
        },
        {
          "name": "E2",
          "midi": 40,
          "time": 207.52930799999731,
          "velocity": 0.7874015748031497,
          "duration": 0.17647049999999354
        },
        {
          "name": "F2",
          "midi": 41,
          "time": 207.7057784999973,
          "velocity": 0.7874015748031497,
          "duration": 0.17647049999999354
        },
        {
          "name": "F#2",
          "midi": 42,
          "time": 207.8822489999973,
          "velocity": 0.7874015748031497,
          "duration": 0.35294099999998707
        },
        {
          "name": "A2",
          "midi": 45,
          "time": 208.2351899999973,
          "velocity": 0.7874015748031497,
          "duration": 0.17647049999999354
        },
        {
          "name": "A#2",
          "midi": 46,
          "time": 208.41166049999728,
          "velocity": 0.7874015748031497,
          "duration": 0.17647049999999354
        },
        {
          "name": "B2",
          "midi": 47,
          "time": 208.58813099999728,
          "velocity": 0.7874015748031497,
          "duration": 0.35294099999998707
        },
        {
          "name": "B1",
          "midi": 35,
          "time": 208.94107199999726,
          "velocity": 0.7874015748031497,
          "duration": 0.35294099999998707
        },
        {
          "name": "B1",
          "midi": 35,
          "time": 209.29401299999725,
          "velocity": 0.7874015748031497,
          "duration": 0.35294099999998707
        },
        {
          "name": "D2",
          "midi": 38,
          "time": 209.64695399999724,
          "velocity": 0.7874015748031497,
          "duration": 0.17647049999999354
        },
        {
          "name": "D#2",
          "midi": 39,
          "time": 209.82342449999723,
          "velocity": 0.7874015748031497,
          "duration": 0.17647049999999354
        },
        {
          "name": "E2",
          "midi": 40,
          "time": 209.99989499999722,
          "velocity": 0.7874015748031497,
          "duration": 0.35294099999998707
        },
        {
          "name": "E2",
          "midi": 40,
          "time": 210.3528359999972,
          "velocity": 0.7874015748031497,
          "duration": 0.17647049999999354
        },
        {
          "name": "F2",
          "midi": 41,
          "time": 210.5293064999972,
          "velocity": 0.7874015748031497,
          "duration": 0.17647049999999354
        },
        {
          "name": "F#2",
          "midi": 42,
          "time": 210.7057769999972,
          "velocity": 0.7874015748031497,
          "duration": 0.35294099999998707
        },
        {
          "name": "A2",
          "midi": 45,
          "time": 211.05871799999719,
          "velocity": 0.7874015748031497,
          "duration": 0.17647049999999354
        },
        {
          "name": "A#2",
          "midi": 46,
          "time": 211.23518849999718,
          "velocity": 0.7874015748031497,
          "duration": 0.17647049999999354
        },
        {
          "name": "B2",
          "midi": 47,
          "time": 211.41165899999717,
          "velocity": 0.7874015748031497,
          "duration": 0.35294099999998707
        },
        {
          "name": "B1",
          "midi": 35,
          "time": 211.76459999999716,
          "velocity": 0.7874015748031497,
          "duration": 0.35294099999998707
        },
        {
          "name": "B1",
          "midi": 35,
          "time": 212.11754099999715,
          "velocity": 0.7874015748031497,
          "duration": 0.35294099999998707
        },
        {
          "name": "D2",
          "midi": 38,
          "time": 212.47048199999713,
          "velocity": 0.7874015748031497,
          "duration": 0.17647049999999354
        },
        {
          "name": "D#2",
          "midi": 39,
          "time": 212.64695249999713,
          "velocity": 0.7874015748031497,
          "duration": 0.17647049999999354
        },
        {
          "name": "E2",
          "midi": 40,
          "time": 212.82342299999712,
          "velocity": 0.7874015748031497,
          "duration": 0.35294099999998707
        },
        {
          "name": "E2",
          "midi": 40,
          "time": 213.1763639999971,
          "velocity": 0.7874015748031497,
          "duration": 0.17647049999999354
        },
        {
          "name": "F2",
          "midi": 41,
          "time": 213.3528344999971,
          "velocity": 0.7874015748031497,
          "duration": 0.17647049999999354
        },
        {
          "name": "F#2",
          "midi": 42,
          "time": 213.5293049999971,
          "velocity": 0.7874015748031497,
          "duration": 0.35294099999998707
        },
        {
          "name": "B1",
          "midi": 35,
          "time": 214.58812799999708,
          "velocity": 0.7874015748031497,
          "duration": 0.7058820000000026
        },
        {
          "name": "D2",
          "midi": 38,
          "time": 215.2940099999971,
          "velocity": 0.7874015748031497,
          "duration": 0.7058820000000026
        },
        {
          "name": "D2",
          "midi": 38,
          "time": 215.9998919999971,
          "velocity": 0.7874015748031497,
          "duration": 0.35294099999998707
        },
        {
          "name": "E2",
          "midi": 40,
          "time": 216.35283299999708,
          "velocity": 0.7874015748031497,
          "duration": 0.35294099999998707
        },
        {
          "name": "E2",
          "midi": 40,
          "time": 216.70577399999706,
          "velocity": 0.7874015748031497,
          "duration": 0.7058820000000026
        },
        {
          "name": "G2",
          "midi": 43,
          "time": 217.41165599999707,
          "velocity": 0.7874015748031497,
          "duration": 0.17647049999999354
        },
        {
          "name": "F#2",
          "midi": 42,
          "time": 217.58812649999706,
          "velocity": 0.7874015748031497,
          "duration": 0.17647049999999354
        },
        {
          "name": "G2",
          "midi": 43,
          "time": 217.76459699999705,
          "velocity": 0.7874015748031497,
          "duration": 0.17647049999999354
        },
        {
          "name": "F#2",
          "midi": 42,
          "time": 217.94106749999705,
          "velocity": 0.7874015748031497,
          "duration": 0.17647049999999354
        },
        {
          "name": "G2",
          "midi": 43,
          "time": 218.11753799999704,
          "velocity": 0.7874015748031497,
          "duration": 0.17647049999999354
        },
        {
          "name": "F#2",
          "midi": 42,
          "time": 218.29400849999703,
          "velocity": 0.7874015748031497,
          "duration": 0.17647049999999354
        },
        {
          "name": "D2",
          "midi": 38,
          "time": 218.47047899999703,
          "velocity": 0.7874015748031497,
          "duration": 0.34411747499999024
        },
        {
          "name": "D2",
          "midi": 38,
          "time": 218.82341999999701,
          "velocity": 0.7874015748031497,
          "duration": 0.35294099999998707
        },
        {
          "name": "E2",
          "midi": 40,
          "time": 219.176360999997,
          "velocity": 0.7874015748031497,
          "duration": 0.35294099999998707
        },
        {
          "name": "E2",
          "midi": 40,
          "time": 219.529301999997,
          "velocity": 0.7874015748031497,
          "duration": 0.7058820000000026
        },
        {
          "name": "B1",
          "midi": 35,
          "time": 220.235183999997,
          "velocity": 0.7874015748031497,
          "duration": 0.7058820000000026
        },
        {
          "name": "D2",
          "midi": 38,
          "time": 220.941065999997,
          "velocity": 0.7874015748031497,
          "duration": 0.7058820000000026
        },
        {
          "name": "D2",
          "midi": 38,
          "time": 221.646947999997,
          "velocity": 0.7874015748031497,
          "duration": 0.35294099999998707
        },
        {
          "name": "E2",
          "midi": 40,
          "time": 221.99988899999698,
          "velocity": 0.7874015748031497,
          "duration": 0.35294099999998707
        },
        {
          "name": "E2",
          "midi": 40,
          "time": 222.35282999999697,
          "velocity": 0.7874015748031497,
          "duration": 0.7058820000000026
        },
        {
          "name": "G2",
          "midi": 43,
          "time": 223.05871199999697,
          "velocity": 0.7874015748031497,
          "duration": 0.17647049999999354
        },
        {
          "name": "F#2",
          "midi": 42,
          "time": 223.23518249999697,
          "velocity": 0.7874015748031497,
          "duration": 0.17647049999999354
        },
        {
          "name": "G2",
          "midi": 43,
          "time": 223.41165299999696,
          "velocity": 0.7874015748031497,
          "duration": 0.17647049999999354
        },
        {
          "name": "F#2",
          "midi": 42,
          "time": 223.58812349999695,
          "velocity": 0.7874015748031497,
          "duration": 0.17647049999999354
        },
        {
          "name": "G2",
          "midi": 43,
          "time": 223.76459399999695,
          "velocity": 0.7874015748031497,
          "duration": 0.17647049999999354
        },
        {
          "name": "F#2",
          "midi": 42,
          "time": 223.94106449999694,
          "velocity": 0.7874015748031497,
          "duration": 0.17647049999999354
        },
        {
          "name": "D2",
          "midi": 38,
          "time": 224.11753499999693,
          "velocity": 0.7874015748031497,
          "duration": 0.34411747499999024
        },
        {
          "name": "D2",
          "midi": 38,
          "time": 224.47047599999692,
          "velocity": 0.7874015748031497,
          "duration": 0.35294099999998707
        },
        {
          "name": "E2",
          "midi": 40,
          "time": 224.8234169999969,
          "velocity": 0.7874015748031497,
          "duration": 0.35294099999998707
        },
        {
          "name": "E2",
          "midi": 40,
          "time": 225.1763579999969,
          "velocity": 0.7874015748031497,
          "duration": 0.7058820000000026
        },
        {
          "name": "B1",
          "midi": 35,
          "time": 225.8822399999969,
          "velocity": 0.7874015748031497,
          "duration": 0.7058820000000026
        },
        {
          "name": "D2",
          "midi": 38,
          "time": 226.5881219999969,
          "velocity": 0.7874015748031497,
          "duration": 0.7058820000000026
        },
        {
          "name": "D2",
          "midi": 38,
          "time": 227.2940039999969,
          "velocity": 0.7874015748031497,
          "duration": 0.35294099999998707
        },
        {
          "name": "E2",
          "midi": 40,
          "time": 227.6469449999969,
          "velocity": 0.7874015748031497,
          "duration": 0.35294099999998707
        },
        {
          "name": "E2",
          "midi": 40,
          "time": 227.99988599999688,
          "velocity": 0.7874015748031497,
          "duration": 0.7058820000000026
        },
        {
          "name": "G2",
          "midi": 43,
          "time": 228.70576799999688,
          "velocity": 0.7874015748031497,
          "duration": 0.17647049999999354
        },
        {
          "name": "F#2",
          "midi": 42,
          "time": 228.88223849999687,
          "velocity": 0.7874015748031497,
          "duration": 0.17647049999999354
        },
        {
          "name": "G2",
          "midi": 43,
          "time": 229.05870899999687,
          "velocity": 0.7874015748031497,
          "duration": 0.17647049999999354
        },
        {
          "name": "F#2",
          "midi": 42,
          "time": 229.23517949999686,
          "velocity": 0.7874015748031497,
          "duration": 0.17647049999999354
        },
        {
          "name": "G2",
          "midi": 43,
          "time": 229.41164999999685,
          "velocity": 0.7874015748031497,
          "duration": 0.17647049999999354
        },
        {
          "name": "F#2",
          "midi": 42,
          "time": 229.58812049999685,
          "velocity": 0.7874015748031497,
          "duration": 0.17647049999999354
        },
        {
          "name": "D2",
          "midi": 38,
          "time": 229.76459099999684,
          "velocity": 0.7874015748031497,
          "duration": 0.34411747499999024
        },
        {
          "name": "D2",
          "midi": 38,
          "time": 230.11753199999683,
          "velocity": 0.7874015748031497,
          "duration": 0.35294099999998707
        },
        {
          "name": "E2",
          "midi": 40,
          "time": 230.47047299999682,
          "velocity": 0.7874015748031497,
          "duration": 0.35294099999998707
        },
        {
          "name": "E2",
          "midi": 40,
          "time": 230.8234139999968,
          "velocity": 0.7874015748031497,
          "duration": 0.7058820000000026
        },
        {
          "name": "B1",
          "midi": 35,
          "time": 231.5292959999968,
          "velocity": 0.7874015748031497,
          "duration": 0.7058820000000026
        },
        {
          "name": "D2",
          "midi": 38,
          "time": 232.2351779999968,
          "velocity": 0.7874015748031497,
          "duration": 0.7058820000000026
        },
        {
          "name": "D2",
          "midi": 38,
          "time": 232.9410599999968,
          "velocity": 0.7874015748031497,
          "duration": 0.35294099999998707
        },
        {
          "name": "E2",
          "midi": 40,
          "time": 233.2940009999968,
          "velocity": 0.7874015748031497,
          "duration": 0.35294099999998707
        },
        {
          "name": "E2",
          "midi": 40,
          "time": 233.64694199999678,
          "velocity": 0.7874015748031497,
          "duration": 0.7058820000000026
        },
        {
          "name": "G2",
          "midi": 43,
          "time": 234.3528239999968,
          "velocity": 0.7874015748031497,
          "duration": 0.17647049999999354
        },
        {
          "name": "F#2",
          "midi": 42,
          "time": 234.52929449999678,
          "velocity": 0.7874015748031497,
          "duration": 0.17647049999999354
        },
        {
          "name": "G2",
          "midi": 43,
          "time": 234.70576499999677,
          "velocity": 0.7874015748031497,
          "duration": 0.17647049999999354
        },
        {
          "name": "F#2",
          "midi": 42,
          "time": 234.88223549999677,
          "velocity": 0.7874015748031497,
          "duration": 0.17647049999999354
        },
        {
          "name": "G2",
          "midi": 43,
          "time": 235.05870599999676,
          "velocity": 0.7874015748031497,
          "duration": 0.17647049999999354
        },
        {
          "name": "F#2",
          "midi": 42,
          "time": 235.23517649999675,
          "velocity": 0.7874015748031497,
          "duration": 0.17647049999999354
        },
        {
          "name": "D2",
          "midi": 38,
          "time": 235.41164699999675,
          "velocity": 0.7874015748031497,
          "duration": 0.34411747499999024
        },
        {
          "name": "D2",
          "midi": 38,
          "time": 235.76458799999673,
          "velocity": 0.7874015748031497,
          "duration": 0.35294099999998707
        },
        {
          "name": "E2",
          "midi": 40,
          "time": 236.11752899999672,
          "velocity": 0.7874015748031497,
          "duration": 0.35294099999998707
        },
        {
          "name": "E2",
          "midi": 40,
          "time": 236.4704699999967,
          "velocity": 0.7874015748031497,
          "duration": 0.7058820000000026
        },
        {
          "name": "B1",
          "midi": 35,
          "time": 237.1763519999967,
          "velocity": 0.7874015748031497,
          "duration": 0.35294099999998707
        },
        {
          "name": "B1",
          "midi": 35,
          "time": 237.5292929999967,
          "velocity": 0.7874015748031497,
          "duration": 0.7058820000000026
        },
        {
          "name": "D2",
          "midi": 38,
          "time": 238.2351749999967,
          "velocity": 0.7874015748031497,
          "duration": 0.7058820000000026
        },
        {
          "name": "B1",
          "midi": 35,
          "time": 238.9410569999967,
          "velocity": 0.7874015748031497,
          "duration": 0.35294099999998707
        },
        {
          "name": "B1",
          "midi": 35,
          "time": 239.2939979999967,
          "velocity": 0.7874015748031497,
          "duration": 0.35294099999998707
        },
        {
          "name": "A#1",
          "midi": 34,
          "time": 239.64693899999668,
          "velocity": 0.7874015748031497,
          "duration": 0.35294099999998707
        },
        {
          "name": "A1",
          "midi": 33,
          "time": 239.99987999999666,
          "velocity": 0.7874015748031497,
          "duration": 0.35294099999998707
        },
        {
          "name": "A1",
          "midi": 33,
          "time": 240.35282099999665,
          "velocity": 0.7874015748031497,
          "duration": 0.35294099999998707
        },
        {
          "name": "A1",
          "midi": 33,
          "time": 240.70576199999664,
          "velocity": 0.7874015748031497,
          "duration": 0.08823524999999677
        },
        {
          "name": "A1",
          "midi": 33,
          "time": 240.88223249999663,
          "velocity": 0.7874015748031497,
          "duration": 0.08823524999999677
        },
        {
          "name": "A1",
          "midi": 33,
          "time": 241.05870299999663,
          "velocity": 0.7874015748031497,
          "duration": 0.08823524999999677
        },
        {
          "name": "G#1",
          "midi": 32,
          "time": 241.23517349999662,
          "velocity": 0.7874015748031497,
          "duration": 0.17647049999999354
        },
        {
          "name": "G#1",
          "midi": 32,
          "time": 241.4116439999966,
          "velocity": 0.7874015748031497,
          "duration": 0.17647049999999354
        },
        {
          "name": "A1",
          "midi": 33,
          "time": 241.5881144999966,
          "velocity": 0.7874015748031497,
          "duration": 0.17647049999999354
        },
        {
          "name": "A1",
          "midi": 33,
          "time": 241.7645849999966,
          "velocity": 0.7874015748031497,
          "duration": 0.35294099999998707
        },
        {
          "name": "A1",
          "midi": 33,
          "time": 242.1175259999966,
          "velocity": 0.7874015748031497,
          "duration": 0.35294099999998707
        },
        {
          "name": "A#1",
          "midi": 34,
          "time": 242.47046699999657,
          "velocity": 0.7874015748031497,
          "duration": 0.35294099999998707
        },
        {
          "name": "B1",
          "midi": 35,
          "time": 242.82340799999656,
          "velocity": 0.7874015748031497,
          "duration": 0.35294099999998707
        },
        {
          "name": "B1",
          "midi": 35,
          "time": 243.17634899999655,
          "velocity": 0.7874015748031497,
          "duration": 0.7058820000000026
        },
        {
          "name": "D2",
          "midi": 38,
          "time": 243.88223099999655,
          "velocity": 0.7874015748031497,
          "duration": 0.7058820000000026
        },
        {
          "name": "B1",
          "midi": 35,
          "time": 244.58811299999655,
          "velocity": 0.7874015748031497,
          "duration": 0.35294099999998707
        },
        {
          "name": "B1",
          "midi": 35,
          "time": 244.94105399999654,
          "velocity": 0.7874015748031497,
          "duration": 0.35294099999998707
        },
        {
          "name": "A#1",
          "midi": 34,
          "time": 245.29399499999653,
          "velocity": 0.7874015748031497,
          "duration": 0.35294099999998707
        },
        {
          "name": "A1",
          "midi": 33,
          "time": 245.64693599999651,
          "velocity": 0.7874015748031497,
          "duration": 0.35294099999998707
        },
        {
          "name": "A1",
          "midi": 33,
          "time": 245.9998769999965,
          "velocity": 0.7874015748031497,
          "duration": 0.35294099999998707
        },
        {
          "name": "A1",
          "midi": 33,
          "time": 246.3528179999965,
          "velocity": 0.7874015748031497,
          "duration": 0.08823524999999677
        },
        {
          "name": "A1",
          "midi": 33,
          "time": 246.52928849999648,
          "velocity": 0.7874015748031497,
          "duration": 0.08823524999999677
        },
        {
          "name": "A1",
          "midi": 33,
          "time": 246.70575899999648,
          "velocity": 0.7874015748031497,
          "duration": 0.08823524999999677
        },
        {
          "name": "G#1",
          "midi": 32,
          "time": 246.88222949999647,
          "velocity": 0.7874015748031497,
          "duration": 0.17647049999999354
        },
        {
          "name": "G#1",
          "midi": 32,
          "time": 247.05869999999646,
          "velocity": 0.7874015748031497,
          "duration": 0.17647049999999354
        },
        {
          "name": "A1",
          "midi": 33,
          "time": 247.23517049999646,
          "velocity": 0.7874015748031497,
          "duration": 0.17647049999999354
        },
        {
          "name": "A1",
          "midi": 33,
          "time": 247.41164099999645,
          "velocity": 0.7874015748031497,
          "duration": 0.35294099999998707
        },
        {
          "name": "A1",
          "midi": 33,
          "time": 247.76458199999644,
          "velocity": 0.7874015748031497,
          "duration": 0.35294099999998707
        },
        {
          "name": "A#1",
          "midi": 34,
          "time": 248.11752299999642,
          "velocity": 0.7874015748031497,
          "duration": 0.35294099999998707
        },
        {
          "name": "B1",
          "midi": 35,
          "time": 248.4704639999964,
          "velocity": 0.7874015748031497,
          "duration": 0.35294099999998707
        },
        {
          "name": "B1",
          "midi": 35,
          "time": 248.8234049999964,
          "velocity": 0.7874015748031497,
          "duration": 0.7058820000000026
        },
        {
          "name": "D2",
          "midi": 38,
          "time": 249.5292869999964,
          "velocity": 0.7874015748031497,
          "duration": 0.7058820000000026
        },
        {
          "name": "B1",
          "midi": 35,
          "time": 250.2351689999964,
          "velocity": 0.7874015748031497,
          "duration": 0.35294099999998707
        },
        {
          "name": "B1",
          "midi": 35,
          "time": 250.5881099999964,
          "velocity": 0.7874015748031497,
          "duration": 0.35294099999998707
        },
        {
          "name": "A#1",
          "midi": 34,
          "time": 250.94105099999638,
          "velocity": 0.7874015748031497,
          "duration": 0.35294099999998707
        },
        {
          "name": "A1",
          "midi": 33,
          "time": 251.29399199999636,
          "velocity": 0.7874015748031497,
          "duration": 0.35294099999998707
        },
        {
          "name": "A1",
          "midi": 33,
          "time": 251.64693299999635,
          "velocity": 0.7874015748031497,
          "duration": 0.35294099999998707
        },
        {
          "name": "A1",
          "midi": 33,
          "time": 251.99987399999634,
          "velocity": 0.7874015748031497,
          "duration": 0.35294099999998707
        },
        {
          "name": "F#1",
          "midi": 30,
          "time": 259.76457599999634,
          "velocity": 0.5905511811023622,
          "duration": 5.6470560000000205
        },
        {
          "name": "F#1",
          "midi": 30,
          "time": 265.41163199999636,
          "velocity": 0.5905511811023622,
          "duration": 5.6470560000000205
        },
        {
          "name": "E2",
          "midi": 40,
          "time": 271.0586879999964,
          "velocity": 0.7874015748031497,
          "duration": 1.4117640000000051
        },
        {
          "name": "D2",
          "midi": 38,
          "time": 272.4704519999964,
          "velocity": 0.7874015748031497,
          "duration": 1.4117640000000051
        },
        {
          "name": "C#2",
          "midi": 37,
          "time": 273.8822159999964,
          "velocity": 0.7874015748031497,
          "duration": 1.4117640000000051
        },
        {
          "name": "C2",
          "midi": 36,
          "time": 275.2939799999964,
          "velocity": 0.7874015748031497,
          "duration": 1.4117640000000051
        },
        {
          "name": "E2",
          "midi": 40,
          "time": 276.7057439999964,
          "velocity": 0.7874015748031497,
          "duration": 1.4117640000000051
        },
        {
          "name": "D2",
          "midi": 38,
          "time": 278.1175079999964,
          "velocity": 0.7874015748031497,
          "duration": 1.4117640000000051
        },
        {
          "name": "C#2",
          "midi": 37,
          "time": 279.5292719999964,
          "velocity": 0.7874015748031497,
          "duration": 1.4117640000000051
        },
        {
          "name": "C2",
          "midi": 36,
          "time": 280.9410359999964,
          "velocity": 0.7874015748031497,
          "duration": 1.4117640000000051
        },
        {
          "name": "E2",
          "midi": 40,
          "time": 282.3527999999964,
          "velocity": 0.7874015748031497,
          "duration": 1.4117640000000051
        },
        {
          "name": "D2",
          "midi": 38,
          "time": 283.7645639999964,
          "velocity": 0.7874015748031497,
          "duration": 1.4117640000000051
        },
        {
          "name": "C#2",
          "midi": 37,
          "time": 285.17632799999643,
          "velocity": 0.7874015748031497,
          "duration": 1.4117640000000051
        },
        {
          "name": "C2",
          "midi": 36,
          "time": 286.58809199999644,
          "velocity": 0.7874015748031497,
          "duration": 1.4117640000000051
        },
        {
          "name": "E2",
          "midi": 40,
          "time": 287.99985599999644,
          "velocity": 0.7874015748031497,
          "duration": 1.4117640000000051
        },
        {
          "name": "D2",
          "midi": 38,
          "time": 289.41161999999645,
          "velocity": 0.7874015748031497,
          "duration": 1.4117640000000051
        },
        {
          "name": "C#2",
          "midi": 37,
          "time": 290.82338399999645,
          "velocity": 0.7874015748031497,
          "duration": 1.4117640000000051
        },
        {
          "name": "C2",
          "midi": 36,
          "time": 292.23514799999646,
          "velocity": 0.7874015748031497,
          "duration": 1.4117640000000051
        },
        {
          "name": "E2",
          "midi": 40,
          "time": 293.64691199999646,
          "velocity": 0.7874015748031497,
          "duration": 1.4117640000000051
        },
        {
          "name": "D2",
          "midi": 38,
          "time": 295.05867599999647,
          "velocity": 0.7874015748031497,
          "duration": 1.4117640000000051
        },
        {
          "name": "C#2",
          "midi": 37,
          "time": 296.4704399999965,
          "velocity": 0.7874015748031497,
          "duration": 1.4117640000000051
        },
        {
          "name": "C2",
          "midi": 36,
          "time": 297.8822039999965,
          "velocity": 0.7874015748031497,
          "duration": 1.4117640000000051
        },
        {
          "name": "E2",
          "midi": 40,
          "time": 299.2939679999965,
          "velocity": 0.7874015748031497,
          "duration": 1.4117640000000051
        },
        {
          "name": "D2",
          "midi": 38,
          "time": 300.7057319999965,
          "velocity": 0.7874015748031497,
          "duration": 1.4117640000000051
        },
        {
          "name": "C#2",
          "midi": 37,
          "time": 302.1174959999965,
          "velocity": 0.7874015748031497,
          "duration": 1.4117640000000051
        },
        {
          "name": "C2",
          "midi": 36,
          "time": 303.5292599999965,
          "velocity": 0.7874015748031497,
          "duration": 1.4117640000000051
        },
        {
          "name": "E2",
          "midi": 40,
          "time": 304.9410239999965,
          "velocity": 0.7874015748031497,
          "duration": 1.4117640000000051
        },
        {
          "name": "D2",
          "midi": 38,
          "time": 306.3527879999965,
          "velocity": 0.7874015748031497,
          "duration": 1.4117640000000051
        },
        {
          "name": "C#2",
          "midi": 37,
          "time": 307.7645519999965,
          "velocity": 0.7874015748031497,
          "duration": 1.4117640000000051
        },
        {
          "name": "C2",
          "midi": 36,
          "time": 309.1763159999965,
          "velocity": 0.7874015748031497,
          "duration": 1.4117640000000051
        },
        {
          "name": "E2",
          "midi": 40,
          "time": 310.5880799999965,
          "velocity": 0.7874015748031497,
          "duration": 1.4117640000000051
        },
        {
          "name": "D2",
          "midi": 38,
          "time": 311.99984399999653,
          "velocity": 0.7874015748031497,
          "duration": 1.4117640000000051
        },
        {
          "name": "C#2",
          "midi": 37,
          "time": 313.41160799999653,
          "velocity": 0.7874015748031497,
          "duration": 1.4117640000000051
        },
        {
          "name": "C2",
          "midi": 36,
          "time": 314.82337199999654,
          "velocity": 0.7874015748031497,
          "duration": 1.4117640000000051
        },
        {
          "name": "E2",
          "midi": 40,
          "time": 316.23513599999654,
          "velocity": 0.7874015748031497,
          "duration": 1.4117640000000051
        },
        {
          "name": "D2",
          "midi": 38,
          "time": 317.64689999999655,
          "velocity": 0.7874015748031497,
          "duration": 1.4117640000000051
        },
        {
          "name": "C#2",
          "midi": 37,
          "time": 319.05866399999655,
          "velocity": 0.7874015748031497,
          "duration": 1.4117640000000051
        },
        {
          "name": "C2",
          "midi": 36,
          "time": 320.47042799999656,
          "velocity": 0.7874015748031497,
          "duration": 1.4117640000000051
        },
        {
          "name": "E2",
          "midi": 40,
          "time": 321.88219199999656,
          "velocity": 0.7874015748031497,
          "duration": 1.4117640000000051
        },
        {
          "name": "D2",
          "midi": 38,
          "time": 323.29395599999657,
          "velocity": 0.7874015748031497,
          "duration": 1.4117640000000051
        },
        {
          "name": "C2",
          "midi": 36,
          "time": 324.7057199999966,
          "velocity": 0.7874015748031497,
          "duration": 1.4117640000000051
        },
        {
          "name": "F#2",
          "midi": 42,
          "time": 326.1174839999966,
          "velocity": 0.7874015748031497,
          "duration": 0.23529400000001033
        },
        {
          "name": "G2",
          "midi": 43,
          "time": 326.3527779999966,
          "velocity": 0.7874015748031497,
          "duration": 0.23529400000001033
        },
        {
          "name": "F#2",
          "midi": 42,
          "time": 326.5880719999966,
          "velocity": 0.7874015748031497,
          "duration": 0.23529400000001033
        },
        {
          "name": "G2",
          "midi": 43,
          "time": 326.8233659999966,
          "velocity": 0.7874015748031497,
          "duration": 0.23529400000001033
        },
        {
          "name": "F#2",
          "midi": 42,
          "time": 327.0586599999966,
          "velocity": 0.7874015748031497,
          "duration": 0.23529400000001033
        },
        {
          "name": "D2",
          "midi": 38,
          "time": 327.29395399999663,
          "velocity": 0.7874015748031497,
          "duration": 0.23529400000001033
        },
        {
          "name": "E2",
          "midi": 40,
          "time": 327.52924799999664,
          "velocity": 0.7874015748031497,
          "duration": 1.4117640000000051
        },
        {
          "name": "D2",
          "midi": 38,
          "time": 328.94101199999665,
          "velocity": 0.7874015748031497,
          "duration": 1.4117640000000051
        },
        {
          "name": "C2",
          "midi": 36,
          "time": 330.35277599999665,
          "velocity": 0.7874015748031497,
          "duration": 1.4117640000000051
        },
        {
          "name": "F#2",
          "midi": 42,
          "time": 331.76453999999666,
          "velocity": 0.7874015748031497,
          "duration": 0.23529400000001033
        },
        {
          "name": "G2",
          "midi": 43,
          "time": 331.99983399999667,
          "velocity": 0.7874015748031497,
          "duration": 0.23529400000001033
        },
        {
          "name": "F#2",
          "midi": 42,
          "time": 332.2351279999967,
          "velocity": 0.7874015748031497,
          "duration": 0.23529400000001033
        },
        {
          "name": "G2",
          "midi": 43,
          "time": 332.4704219999967,
          "velocity": 0.7874015748031497,
          "duration": 0.23529400000001033
        },
        {
          "name": "F#2",
          "midi": 42,
          "time": 332.7057159999967,
          "velocity": 0.7874015748031497,
          "duration": 0.23529400000001033
        },
        {
          "name": "D2",
          "midi": 38,
          "time": 332.9410099999967,
          "velocity": 0.7874015748031497,
          "duration": 0.23529400000001033
        },
        {
          "name": "E2",
          "midi": 40,
          "time": 333.1763039999967,
          "velocity": 0.7874015748031497,
          "duration": 1.4117640000000051
        },
        {
          "name": "D2",
          "midi": 38,
          "time": 334.5880679999967,
          "velocity": 0.7874015748031497,
          "duration": 1.4117640000000051
        },
        {
          "name": "C2",
          "midi": 36,
          "time": 335.99983199999673,
          "velocity": 0.7874015748031497,
          "duration": 1.4117640000000051
        },
        {
          "name": "F#1",
          "midi": 30,
          "time": 337.41159599999673,
          "velocity": 0.7874015748031497,
          "duration": 0.23529400000001033
        },
        {
          "name": "G1",
          "midi": 31,
          "time": 337.64688999999674,
          "velocity": 0.7874015748031497,
          "duration": 0.23529400000001033
        },
        {
          "name": "F#1",
          "midi": 30,
          "time": 337.88218399999676,
          "velocity": 0.7874015748031497,
          "duration": 0.23529400000001033
        },
        {
          "name": "G1",
          "midi": 31,
          "time": 338.11747799999677,
          "velocity": 0.7874015748031497,
          "duration": 0.23529400000001033
        },
        {
          "name": "F#1",
          "midi": 30,
          "time": 338.3527719999968,
          "velocity": 0.7874015748031497,
          "duration": 0.23529400000001033
        },
        {
          "name": "D2",
          "midi": 38,
          "time": 338.5880659999968,
          "velocity": 0.7874015748031497,
          "duration": 0.23529400000001033
        },
        {
          "name": "E1",
          "midi": 28,
          "time": 338.8233599999968,
          "velocity": 0.7874015748031497,
          "duration": 0.35294099999998707
        }
      ],
      "controlChanges": {
        "7": [
          {
            "number": 7,
            "time": 0,
            "value": 0.8661417322834646
          }
        ],
        "10": [
          {
            "number": 10,
            "time": 0,
            "value": 0.5039370078740157
          }
        ],
        "32": [
          {
            "number": 32,
            "time": 0,
            "value": 0
          }
        ],
        "91": [
          {
            "number": 91,
            "time": 0,
            "value": 0.06299212598425197
          }
        ],
        "93": [
          {
            "number": 93,
            "time": 0,
            "value": 0.06299212598425197
          }
        ]
      },
      "id": 1,
      "name": "Bass",
      "instrumentNumber": 33,
      "instrument": "electric bass (finger)",
      "instrumentFamily": "bass",
      "channelNumber": 0,
      "isPercussion": false
    },
    {
      "startTime": 33.882336,
      "duration": 239.99987999999863,
      "length": 190,
      "notes": [
        {
          "name": "B4",
          "midi": 71,
          "time": 33.882336,
          "velocity": 0.7874015748031497,
          "duration": 0.7058820000000026
        },
        {
          "name": "D5",
          "midi": 74,
          "time": 34.588218000000005,
          "velocity": 0.7874015748031497,
          "duration": 0.7058820000000026
        },
        {
          "name": "D5",
          "midi": 74,
          "time": 35.29410000000001,
          "velocity": 0.7874015748031497,
          "duration": 0.3529410000000013
        },
        {
          "name": "E5",
          "midi": 76,
          "time": 35.64704100000001,
          "velocity": 0.7874015748031497,
          "duration": 0.3529410000000013
        },
        {
          "name": "E5",
          "midi": 76,
          "time": 35.99998200000001,
          "velocity": 0.7874015748031497,
          "duration": 0.3529410000000013
        },
        {
          "name": "G5",
          "midi": 79,
          "time": 36.70586400000001,
          "velocity": 0.7874015748031497,
          "duration": 0.17647050000000064
        },
        {
          "name": "F#5",
          "midi": 78,
          "time": 36.88233450000001,
          "velocity": 0.7874015748031497,
          "duration": 0.17647050000000064
        },
        {
          "name": "G5",
          "midi": 79,
          "time": 37.058805000000014,
          "velocity": 0.7874015748031497,
          "duration": 0.17647050000000064
        },
        {
          "name": "F#5",
          "midi": 78,
          "time": 37.235275500000014,
          "velocity": 0.7874015748031497,
          "duration": 0.17647050000000064
        },
        {
          "name": "G5",
          "midi": 79,
          "time": 37.411746000000015,
          "velocity": 0.7874015748031497,
          "duration": 0.17647050000000064
        },
        {
          "name": "F#5",
          "midi": 78,
          "time": 37.588216500000016,
          "velocity": 0.7874015748031497,
          "duration": 0.17647050000000064
        },
        {
          "name": "D5",
          "midi": 74,
          "time": 37.764687000000016,
          "velocity": 0.7874015748031497,
          "duration": 0.34411747499999734
        },
        {
          "name": "D5",
          "midi": 74,
          "time": 38.11762800000001,
          "velocity": 0.7874015748031497,
          "duration": 0.3529410000000013
        },
        {
          "name": "E5",
          "midi": 76,
          "time": 38.47056900000001,
          "velocity": 0.7874015748031497,
          "duration": 0.3529410000000013
        },
        {
          "name": "E5",
          "midi": 76,
          "time": 38.82351000000001,
          "velocity": 0.7874015748031497,
          "duration": 0.7058820000000026
        },
        {
          "name": "B4",
          "midi": 71,
          "time": 39.529392000000016,
          "velocity": 0.7874015748031497,
          "duration": 0.7058820000000026
        },
        {
          "name": "D5",
          "midi": 74,
          "time": 40.23527400000002,
          "velocity": 0.7874015748031497,
          "duration": 0.7058820000000026
        },
        {
          "name": "D5",
          "midi": 74,
          "time": 40.94115600000002,
          "velocity": 0.7874015748031497,
          "duration": 0.3529410000000013
        },
        {
          "name": "E5",
          "midi": 76,
          "time": 41.29409700000002,
          "velocity": 0.7874015748031497,
          "duration": 0.3529410000000013
        },
        {
          "name": "E5",
          "midi": 76,
          "time": 41.64703800000002,
          "velocity": 0.7874015748031497,
          "duration": 0.3529410000000013
        },
        {
          "name": "G5",
          "midi": 79,
          "time": 42.352920000000026,
          "velocity": 0.7874015748031497,
          "duration": 0.17647050000000064
        },
        {
          "name": "F#5",
          "midi": 78,
          "time": 42.52939050000003,
          "velocity": 0.7874015748031497,
          "duration": 0.17647050000000064
        },
        {
          "name": "G5",
          "midi": 79,
          "time": 42.70586100000003,
          "velocity": 0.7874015748031497,
          "duration": 0.17647050000000064
        },
        {
          "name": "F#5",
          "midi": 78,
          "time": 42.88233150000003,
          "velocity": 0.7874015748031497,
          "duration": 0.17647050000000064
        },
        {
          "name": "G5",
          "midi": 79,
          "time": 43.05880200000003,
          "velocity": 0.7874015748031497,
          "duration": 0.17647050000000064
        },
        {
          "name": "F#5",
          "midi": 78,
          "time": 43.23527250000003,
          "velocity": 0.7874015748031497,
          "duration": 0.17647050000000064
        },
        {
          "name": "D5",
          "midi": 74,
          "time": 43.41174300000003,
          "velocity": 0.7874015748031497,
          "duration": 0.34411747499999734
        },
        {
          "name": "D5",
          "midi": 74,
          "time": 43.764684000000024,
          "velocity": 0.7874015748031497,
          "duration": 0.3529410000000013
        },
        {
          "name": "E5",
          "midi": 76,
          "time": 44.117625000000025,
          "velocity": 0.7874015748031497,
          "duration": 0.3529410000000013
        },
        {
          "name": "E5",
          "midi": 76,
          "time": 44.47056600000003,
          "velocity": 0.7874015748031497,
          "duration": 0.7058820000000026
        },
        {
          "name": "B4",
          "midi": 71,
          "time": 50.82350400000003,
          "velocity": 0.7874015748031497,
          "duration": 0.7058820000000026
        },
        {
          "name": "D5",
          "midi": 74,
          "time": 51.52938600000003,
          "velocity": 0.7874015748031497,
          "duration": 0.7058820000000026
        },
        {
          "name": "D5",
          "midi": 74,
          "time": 52.23526800000003,
          "velocity": 0.7874015748031497,
          "duration": 0.3529410000000013
        },
        {
          "name": "E5",
          "midi": 76,
          "time": 52.588209000000035,
          "velocity": 0.7874015748031497,
          "duration": 0.3529410000000013
        },
        {
          "name": "E5",
          "midi": 76,
          "time": 52.941150000000036,
          "velocity": 0.7874015748031497,
          "duration": 0.3529410000000013
        },
        {
          "name": "G5",
          "midi": 79,
          "time": 53.64703200000004,
          "velocity": 0.7874015748031497,
          "duration": 0.17647050000000064
        },
        {
          "name": "F#5",
          "midi": 78,
          "time": 53.82350250000004,
          "velocity": 0.7874015748031497,
          "duration": 0.17647050000000064
        },
        {
          "name": "G5",
          "midi": 79,
          "time": 53.99997300000004,
          "velocity": 0.7874015748031497,
          "duration": 0.17647050000000064
        },
        {
          "name": "F#5",
          "midi": 78,
          "time": 54.17644350000004,
          "velocity": 0.7874015748031497,
          "duration": 0.17647050000000064
        },
        {
          "name": "G5",
          "midi": 79,
          "time": 54.35291400000004,
          "velocity": 0.7874015748031497,
          "duration": 0.17647050000000064
        },
        {
          "name": "F#5",
          "midi": 78,
          "time": 54.52938450000004,
          "velocity": 0.7874015748031497,
          "duration": 0.17647050000000064
        },
        {
          "name": "D5",
          "midi": 74,
          "time": 54.70585500000004,
          "velocity": 0.7874015748031497,
          "duration": 0.34411747499999734
        },
        {
          "name": "D5",
          "midi": 74,
          "time": 55.05879600000004,
          "velocity": 0.7874015748031497,
          "duration": 0.3529410000000013
        },
        {
          "name": "E5",
          "midi": 76,
          "time": 55.41173700000004,
          "velocity": 0.7874015748031497,
          "duration": 0.3529410000000013
        },
        {
          "name": "E5",
          "midi": 76,
          "time": 55.76467800000004,
          "velocity": 0.7874015748031497,
          "duration": 0.7058820000000026
        },
        {
          "name": "B4",
          "midi": 71,
          "time": 56.47056000000004,
          "velocity": 0.7874015748031497,
          "duration": 0.7058820000000026
        },
        {
          "name": "D5",
          "midi": 74,
          "time": 57.176442000000044,
          "velocity": 0.7874015748031497,
          "duration": 0.7058820000000026
        },
        {
          "name": "D5",
          "midi": 74,
          "time": 57.88232400000005,
          "velocity": 0.7874015748031497,
          "duration": 0.3529410000000013
        },
        {
          "name": "E5",
          "midi": 76,
          "time": 58.23526500000005,
          "velocity": 0.7874015748031497,
          "duration": 0.3529410000000013
        },
        {
          "name": "E5",
          "midi": 76,
          "time": 58.58820600000005,
          "velocity": 0.7874015748031497,
          "duration": 0.3529410000000013
        },
        {
          "name": "G5",
          "midi": 79,
          "time": 59.29408800000005,
          "velocity": 0.7874015748031497,
          "duration": 0.17647050000000064
        },
        {
          "name": "F#5",
          "midi": 78,
          "time": 59.47055850000005,
          "velocity": 0.7874015748031497,
          "duration": 0.17647050000000064
        },
        {
          "name": "G5",
          "midi": 79,
          "time": 59.64702900000005,
          "velocity": 0.7874015748031497,
          "duration": 0.17647050000000064
        },
        {
          "name": "F#5",
          "midi": 78,
          "time": 59.823499500000054,
          "velocity": 0.7874015748031497,
          "duration": 0.17647050000000064
        },
        {
          "name": "G5",
          "midi": 79,
          "time": 59.999970000000054,
          "velocity": 0.7874015748031497,
          "duration": 0.17647050000000064
        },
        {
          "name": "F#5",
          "midi": 78,
          "time": 60.176440500000055,
          "velocity": 0.7874015748031497,
          "duration": 0.17647050000000064
        },
        {
          "name": "D5",
          "midi": 74,
          "time": 60.352911000000056,
          "velocity": 0.7874015748031497,
          "duration": 0.34411747499999734
        },
        {
          "name": "D5",
          "midi": 74,
          "time": 60.70585200000005,
          "velocity": 0.7874015748031497,
          "duration": 0.3529410000000013
        },
        {
          "name": "E5",
          "midi": 76,
          "time": 61.05879300000005,
          "velocity": 0.7874015748031497,
          "duration": 0.3529410000000013
        },
        {
          "name": "E5",
          "midi": 76,
          "time": 61.41173400000005,
          "velocity": 0.7874015748031497,
          "duration": 0.7058820000000026
        },
        {
          "name": "B4",
          "midi": 71,
          "time": 90.35289600000006,
          "velocity": 0.7874015748031497,
          "duration": 0.7058820000000026
        },
        {
          "name": "D5",
          "midi": 74,
          "time": 91.05877800000006,
          "velocity": 0.7874015748031497,
          "duration": 0.7058820000000026
        },
        {
          "name": "D5",
          "midi": 74,
          "time": 91.76466000000006,
          "velocity": 0.7874015748031497,
          "duration": 0.3529410000000013
        },
        {
          "name": "E5",
          "midi": 76,
          "time": 92.11760100000006,
          "velocity": 0.7874015748031497,
          "duration": 0.3529410000000013
        },
        {
          "name": "E5",
          "midi": 76,
          "time": 92.47054200000007,
          "velocity": 0.7874015748031497,
          "duration": 0.3529410000000013
        },
        {
          "name": "G5",
          "midi": 79,
          "time": 93.17642400000007,
          "velocity": 0.7874015748031497,
          "duration": 0.17647049999999354
        },
        {
          "name": "F#5",
          "midi": 78,
          "time": 93.35289450000006,
          "velocity": 0.7874015748031497,
          "duration": 0.17647049999999354
        },
        {
          "name": "G5",
          "midi": 79,
          "time": 93.52936500000006,
          "velocity": 0.7874015748031497,
          "duration": 0.17647049999999354
        },
        {
          "name": "F#5",
          "midi": 78,
          "time": 93.70583550000005,
          "velocity": 0.7874015748031497,
          "duration": 0.17647049999999354
        },
        {
          "name": "G5",
          "midi": 79,
          "time": 93.88230600000004,
          "velocity": 0.7874015748031497,
          "duration": 0.17647049999999354
        },
        {
          "name": "F#5",
          "midi": 78,
          "time": 94.05877650000004,
          "velocity": 0.7874015748031497,
          "duration": 0.17647049999999354
        },
        {
          "name": "D5",
          "midi": 74,
          "time": 94.23524700000003,
          "velocity": 0.7874015748031497,
          "duration": 0.34411747500000445
        },
        {
          "name": "D5",
          "midi": 74,
          "time": 94.58818800000003,
          "velocity": 0.7874015748031497,
          "duration": 0.3529410000000013
        },
        {
          "name": "E5",
          "midi": 76,
          "time": 94.94112900000003,
          "velocity": 0.7874015748031497,
          "duration": 0.3529410000000013
        },
        {
          "name": "E5",
          "midi": 76,
          "time": 95.29407000000003,
          "velocity": 0.7874015748031497,
          "duration": 0.7058820000000026
        },
        {
          "name": "B4",
          "midi": 71,
          "time": 95.99995200000004,
          "velocity": 0.7874015748031497,
          "duration": 0.7058820000000026
        },
        {
          "name": "D5",
          "midi": 74,
          "time": 96.70583400000004,
          "velocity": 0.7874015748031497,
          "duration": 0.7058820000000026
        },
        {
          "name": "D5",
          "midi": 74,
          "time": 97.41171600000004,
          "velocity": 0.7874015748031497,
          "duration": 0.3529410000000013
        },
        {
          "name": "E5",
          "midi": 76,
          "time": 97.76465700000004,
          "velocity": 0.7874015748031497,
          "duration": 0.3529410000000013
        },
        {
          "name": "E5",
          "midi": 76,
          "time": 98.11759800000004,
          "velocity": 0.7874015748031497,
          "duration": 0.3529410000000013
        },
        {
          "name": "G5",
          "midi": 79,
          "time": 98.82348000000005,
          "velocity": 0.7874015748031497,
          "duration": 0.17647049999999354
        },
        {
          "name": "F#5",
          "midi": 78,
          "time": 98.99995050000004,
          "velocity": 0.7874015748031497,
          "duration": 0.17647049999999354
        },
        {
          "name": "G5",
          "midi": 79,
          "time": 99.17642100000003,
          "velocity": 0.7874015748031497,
          "duration": 0.17647049999999354
        },
        {
          "name": "F#5",
          "midi": 78,
          "time": 99.35289150000003,
          "velocity": 0.7874015748031497,
          "duration": 0.17647049999999354
        },
        {
          "name": "G5",
          "midi": 79,
          "time": 99.52936200000002,
          "velocity": 0.7874015748031497,
          "duration": 0.17647049999999354
        },
        {
          "name": "F#5",
          "midi": 78,
          "time": 99.70583250000001,
          "velocity": 0.7874015748031497,
          "duration": 0.17647049999999354
        },
        {
          "name": "D5",
          "midi": 74,
          "time": 99.88230300000001,
          "velocity": 0.7874015748031497,
          "duration": 0.34411747500000445
        },
        {
          "name": "D5",
          "midi": 74,
          "time": 100.23524400000001,
          "velocity": 0.7874015748031497,
          "duration": 0.3529410000000013
        },
        {
          "name": "E5",
          "midi": 76,
          "time": 100.58818500000001,
          "velocity": 0.7874015748031497,
          "duration": 0.3529410000000013
        },
        {
          "name": "E5",
          "midi": 76,
          "time": 100.94112600000001,
          "velocity": 0.7874015748031497,
          "duration": 0.7058820000000026
        },
        {
          "name": "E5",
          "midi": 76,
          "time": 103.05877200000002,
          "velocity": 0.7874015748031497,
          "duration": 0.17647049999999354
        },
        {
          "name": "E5",
          "midi": 76,
          "time": 103.23524250000001,
          "velocity": 0.7874015748031497,
          "duration": 0.17647049999999354
        },
        {
          "name": "E5",
          "midi": 76,
          "time": 103.411713,
          "velocity": 0.7874015748031497,
          "duration": 0.17647049999999354
        },
        {
          "name": "G5",
          "midi": 79,
          "time": 103.5881835,
          "velocity": 0.7874015748031497,
          "duration": 0.3529410000000013
        },
        {
          "name": "E5",
          "midi": 76,
          "time": 103.9411245,
          "velocity": 0.7874015748031497,
          "duration": 0.3529410000000013
        },
        {
          "name": "F#5",
          "midi": 78,
          "time": 105.8823,
          "velocity": 0.7874015748031497,
          "duration": 0.17647049999999354
        },
        {
          "name": "F#5",
          "midi": 78,
          "time": 106.0587705,
          "velocity": 0.7874015748031497,
          "duration": 0.34411747500000445
        },
        {
          "name": "F#5",
          "midi": 78,
          "time": 106.4117115,
          "velocity": 0.7874015748031497,
          "duration": 0.3529410000000013
        },
        {
          "name": "E5",
          "midi": 76,
          "time": 106.7646525,
          "velocity": 0.7874015748031497,
          "duration": 0.17205873749999512
        },
        {
          "name": "D5",
          "midi": 74,
          "time": 106.9308288875,
          "velocity": 0.7874015748031497,
          "duration": 0.34411747499999024
        },
        {
          "name": "B4",
          "midi": 71,
          "time": 107.29406399999999,
          "velocity": 0.7874015748031497,
          "duration": 0.7058820000000026
        },
        {
          "name": "E5",
          "midi": 76,
          "time": 114.35288399999999,
          "velocity": 0.7874015748031497,
          "duration": 0.17647049999999354
        },
        {
          "name": "E5",
          "midi": 76,
          "time": 114.52935449999998,
          "velocity": 0.7874015748031497,
          "duration": 0.17647049999999354
        },
        {
          "name": "E5",
          "midi": 76,
          "time": 114.70582499999998,
          "velocity": 0.7874015748031497,
          "duration": 0.17647049999999354
        },
        {
          "name": "G5",
          "midi": 79,
          "time": 114.88229549999997,
          "velocity": 0.7874015748031497,
          "duration": 0.3529410000000013
        },
        {
          "name": "E5",
          "midi": 76,
          "time": 115.23523649999997,
          "velocity": 0.7874015748031497,
          "duration": 0.3529410000000013
        },
        {
          "name": "F#5",
          "midi": 78,
          "time": 117.17641199999997,
          "velocity": 0.7874015748031497,
          "duration": 0.17647049999999354
        },
        {
          "name": "F#5",
          "midi": 78,
          "time": 117.35288249999996,
          "velocity": 0.7874015748031497,
          "duration": 0.34411747500000445
        },
        {
          "name": "F#5",
          "midi": 78,
          "time": 117.70582349999997,
          "velocity": 0.7874015748031497,
          "duration": 0.3529410000000013
        },
        {
          "name": "E5",
          "midi": 76,
          "time": 118.05876449999997,
          "velocity": 0.7874015748031497,
          "duration": 0.17205873749999512
        },
        {
          "name": "D5",
          "midi": 74,
          "time": 118.22494088749997,
          "velocity": 0.7874015748031497,
          "duration": 0.34411747499999024
        },
        {
          "name": "B4",
          "midi": 71,
          "time": 118.58817599999996,
          "velocity": 0.7874015748031497,
          "duration": 0.7058820000000026
        },
        {
          "name": "B4",
          "midi": 71,
          "time": 135.52934399999995,
          "velocity": 0.7874015748031497,
          "duration": 0.7058820000000026
        },
        {
          "name": "D5",
          "midi": 74,
          "time": 136.23522599999995,
          "velocity": 0.7874015748031497,
          "duration": 0.7058820000000026
        },
        {
          "name": "D5",
          "midi": 74,
          "time": 136.94110799999996,
          "velocity": 0.7874015748031497,
          "duration": 0.35294099999998707
        },
        {
          "name": "E5",
          "midi": 76,
          "time": 137.29404899999994,
          "velocity": 0.7874015748031497,
          "duration": 0.35294099999998707
        },
        {
          "name": "E5",
          "midi": 76,
          "time": 137.64698999999993,
          "velocity": 0.7874015748031497,
          "duration": 0.35294099999998707
        },
        {
          "name": "G5",
          "midi": 79,
          "time": 138.3528719999999,
          "velocity": 0.7874015748031497,
          "duration": 0.17647049999999354
        },
        {
          "name": "F#5",
          "midi": 78,
          "time": 138.5293424999999,
          "velocity": 0.7874015748031497,
          "duration": 0.17647049999999354
        },
        {
          "name": "G5",
          "midi": 79,
          "time": 138.7058129999999,
          "velocity": 0.7874015748031497,
          "duration": 0.17647049999999354
        },
        {
          "name": "F#5",
          "midi": 78,
          "time": 138.8822834999999,
          "velocity": 0.7874015748031497,
          "duration": 0.17647049999999354
        },
        {
          "name": "G5",
          "midi": 79,
          "time": 139.05875399999988,
          "velocity": 0.7874015748031497,
          "duration": 0.17647049999999354
        },
        {
          "name": "F#5",
          "midi": 78,
          "time": 139.23522449999987,
          "velocity": 0.7874015748031497,
          "duration": 0.17647049999999354
        },
        {
          "name": "D5",
          "midi": 74,
          "time": 139.41169499999987,
          "velocity": 0.7874015748031497,
          "duration": 0.34411747499999024
        },
        {
          "name": "D5",
          "midi": 74,
          "time": 139.76463599999985,
          "velocity": 0.7874015748031497,
          "duration": 0.35294099999998707
        },
        {
          "name": "E5",
          "midi": 76,
          "time": 140.11757699999984,
          "velocity": 0.7874015748031497,
          "duration": 0.35294099999998707
        },
        {
          "name": "E5",
          "midi": 76,
          "time": 140.47051799999983,
          "velocity": 0.7874015748031497,
          "duration": 0.7058820000000026
        },
        {
          "name": "B4",
          "midi": 71,
          "time": 141.17639999999983,
          "velocity": 0.7874015748031497,
          "duration": 0.7058820000000026
        },
        {
          "name": "D5",
          "midi": 74,
          "time": 141.88228199999983,
          "velocity": 0.7874015748031497,
          "duration": 0.7058820000000026
        },
        {
          "name": "D5",
          "midi": 74,
          "time": 142.58816399999984,
          "velocity": 0.7874015748031497,
          "duration": 0.35294099999998707
        },
        {
          "name": "E5",
          "midi": 76,
          "time": 142.94110499999982,
          "velocity": 0.7874015748031497,
          "duration": 0.35294099999998707
        },
        {
          "name": "E5",
          "midi": 76,
          "time": 143.2940459999998,
          "velocity": 0.7874015748031497,
          "duration": 0.35294099999998707
        },
        {
          "name": "G5",
          "midi": 79,
          "time": 143.99992799999978,
          "velocity": 0.7874015748031497,
          "duration": 0.17647049999999354
        },
        {
          "name": "F#5",
          "midi": 78,
          "time": 144.17639849999978,
          "velocity": 0.7874015748031497,
          "duration": 0.17647049999999354
        },
        {
          "name": "G5",
          "midi": 79,
          "time": 144.35286899999977,
          "velocity": 0.7874015748031497,
          "duration": 0.17647049999999354
        },
        {
          "name": "F#5",
          "midi": 78,
          "time": 144.52933949999976,
          "velocity": 0.7874015748031497,
          "duration": 0.17647049999999354
        },
        {
          "name": "G5",
          "midi": 79,
          "time": 144.70580999999976,
          "velocity": 0.7874015748031497,
          "duration": 0.17647049999999354
        },
        {
          "name": "F#5",
          "midi": 78,
          "time": 144.88228049999975,
          "velocity": 0.7874015748031497,
          "duration": 0.17647049999999354
        },
        {
          "name": "D5",
          "midi": 74,
          "time": 145.05875099999975,
          "velocity": 0.7874015748031497,
          "duration": 0.34411747499999024
        },
        {
          "name": "D5",
          "midi": 74,
          "time": 145.41169199999973,
          "velocity": 0.7874015748031497,
          "duration": 0.35294099999998707
        },
        {
          "name": "E5",
          "midi": 76,
          "time": 145.76463299999972,
          "velocity": 0.7874015748031497,
          "duration": 0.35294099999998707
        },
        {
          "name": "E5",
          "midi": 76,
          "time": 146.1175739999997,
          "velocity": 0.7874015748031497,
          "duration": 0.7058820000000026
        },
        {
          "name": "E5",
          "midi": 76,
          "time": 148.2352199999997,
          "velocity": 0.7874015748031497,
          "duration": 0.17647049999999354
        },
        {
          "name": "E5",
          "midi": 76,
          "time": 148.4116904999997,
          "velocity": 0.7874015748031497,
          "duration": 0.17647049999999354
        },
        {
          "name": "E5",
          "midi": 76,
          "time": 148.5881609999997,
          "velocity": 0.7874015748031497,
          "duration": 0.17647049999999354
        },
        {
          "name": "G5",
          "midi": 79,
          "time": 148.7646314999997,
          "velocity": 0.7874015748031497,
          "duration": 0.35294099999998707
        },
        {
          "name": "E5",
          "midi": 76,
          "time": 149.11757249999968,
          "velocity": 0.7874015748031497,
          "duration": 0.35294099999998707
        },
        {
          "name": "F#5",
          "midi": 78,
          "time": 151.05874799999967,
          "velocity": 0.7874015748031497,
          "duration": 0.17647049999999354
        },
        {
          "name": "F#5",
          "midi": 78,
          "time": 151.23521849999966,
          "velocity": 0.7874015748031497,
          "duration": 0.34411747499999024
        },
        {
          "name": "F#5",
          "midi": 78,
          "time": 151.58815949999965,
          "velocity": 0.7874015748031497,
          "duration": 0.35294099999998707
        },
        {
          "name": "E5",
          "midi": 76,
          "time": 151.94110049999964,
          "velocity": 0.7874015748031497,
          "duration": 0.17205873750000933
        },
        {
          "name": "D5",
          "midi": 74,
          "time": 152.10727688749964,
          "velocity": 0.7874015748031497,
          "duration": 0.34411747500001866
        },
        {
          "name": "B4",
          "midi": 71,
          "time": 152.47051199999964,
          "velocity": 0.7874015748031497,
          "duration": 0.7058820000000026
        },
        {
          "name": "E5",
          "midi": 76,
          "time": 159.52933199999964,
          "velocity": 0.7874015748031497,
          "duration": 0.17647049999999354
        },
        {
          "name": "E5",
          "midi": 76,
          "time": 159.70580249999963,
          "velocity": 0.7874015748031497,
          "duration": 0.17647049999999354
        },
        {
          "name": "E5",
          "midi": 76,
          "time": 159.88227299999963,
          "velocity": 0.7874015748031497,
          "duration": 0.17647049999999354
        },
        {
          "name": "G5",
          "midi": 79,
          "time": 160.05874349999962,
          "velocity": 0.7874015748031497,
          "duration": 0.35294099999998707
        },
        {
          "name": "E5",
          "midi": 76,
          "time": 160.4116844999996,
          "velocity": 0.7874015748031497,
          "duration": 0.35294099999998707
        },
        {
          "name": "F#5",
          "midi": 78,
          "time": 162.3528599999996,
          "velocity": 0.7874015748031497,
          "duration": 0.17647049999999354
        },
        {
          "name": "F#5",
          "midi": 78,
          "time": 162.5293304999996,
          "velocity": 0.7874015748031497,
          "duration": 0.34411747499999024
        },
        {
          "name": "F#5",
          "midi": 78,
          "time": 162.88227149999958,
          "velocity": 0.7874015748031497,
          "duration": 0.35294099999998707
        },
        {
          "name": "E5",
          "midi": 76,
          "time": 163.23521249999956,
          "velocity": 0.7874015748031497,
          "duration": 0.17205873750000933
        },
        {
          "name": "D5",
          "midi": 74,
          "time": 163.40138888749956,
          "velocity": 0.7874015748031497,
          "duration": 0.34411747500001866
        },
        {
          "name": "B4",
          "midi": 71,
          "time": 163.76462399999957,
          "velocity": 0.7874015748031497,
          "duration": 0.7058820000000026
        },
        {
          "name": "B4",
          "midi": 71,
          "time": 225.88223999999957,
          "velocity": 0.7874015748031497,
          "duration": 0.7058820000000026
        },
        {
          "name": "D5",
          "midi": 74,
          "time": 226.58812199999957,
          "velocity": 0.7874015748031497,
          "duration": 0.7058820000000026
        },
        {
          "name": "D5",
          "midi": 74,
          "time": 227.29400399999957,
          "velocity": 0.7874015748031497,
          "duration": 0.35294099999998707
        },
        {
          "name": "E5",
          "midi": 76,
          "time": 227.64694499999956,
          "velocity": 0.7874015748031497,
          "duration": 0.35294099999998707
        },
        {
          "name": "E5",
          "midi": 76,
          "time": 227.99988599999955,
          "velocity": 0.7874015748031497,
          "duration": 0.35294099999998707
        },
        {
          "name": "G5",
          "midi": 79,
          "time": 228.70576799999952,
          "velocity": 0.7874015748031497,
          "duration": 0.17647049999999354
        },
        {
          "name": "F#5",
          "midi": 78,
          "time": 228.88223849999952,
          "velocity": 0.7874015748031497,
          "duration": 0.17647049999999354
        },
        {
          "name": "G5",
          "midi": 79,
          "time": 229.0587089999995,
          "velocity": 0.7874015748031497,
          "duration": 0.17647049999999354
        },
        {
          "name": "F#5",
          "midi": 78,
          "time": 229.2351794999995,
          "velocity": 0.7874015748031497,
          "duration": 0.17647049999999354
        },
        {
          "name": "G5",
          "midi": 79,
          "time": 229.4116499999995,
          "velocity": 0.7874015748031497,
          "duration": 0.17647049999999354
        },
        {
          "name": "F#5",
          "midi": 78,
          "time": 229.5881204999995,
          "velocity": 0.7874015748031497,
          "duration": 0.17647049999999354
        },
        {
          "name": "D5",
          "midi": 74,
          "time": 229.76459099999948,
          "velocity": 0.7874015748031497,
          "duration": 0.34411747499999024
        },
        {
          "name": "D5",
          "midi": 74,
          "time": 230.11753199999947,
          "velocity": 0.7874015748031497,
          "duration": 0.35294099999998707
        },
        {
          "name": "E5",
          "midi": 76,
          "time": 230.47047299999946,
          "velocity": 0.7874015748031497,
          "duration": 0.35294099999998707
        },
        {
          "name": "E5",
          "midi": 76,
          "time": 230.82341399999945,
          "velocity": 0.7874015748031497,
          "duration": 0.7058820000000026
        },
        {
          "name": "B4",
          "midi": 71,
          "time": 231.52929599999945,
          "velocity": 0.7874015748031497,
          "duration": 0.7058820000000026
        },
        {
          "name": "D5",
          "midi": 74,
          "time": 232.23517799999945,
          "velocity": 0.7874015748031497,
          "duration": 0.7058820000000026
        },
        {
          "name": "D5",
          "midi": 74,
          "time": 232.94105999999945,
          "velocity": 0.7874015748031497,
          "duration": 0.35294099999998707
        },
        {
          "name": "E5",
          "midi": 76,
          "time": 233.29400099999944,
          "velocity": 0.7874015748031497,
          "duration": 0.35294099999998707
        },
        {
          "name": "E5",
          "midi": 76,
          "time": 233.64694199999943,
          "velocity": 0.7874015748031497,
          "duration": 0.35294099999998707
        },
        {
          "name": "G5",
          "midi": 79,
          "time": 234.3528239999994,
          "velocity": 0.7874015748031497,
          "duration": 0.17647049999999354
        },
        {
          "name": "G5",
          "midi": 79,
          "time": 234.7057649999994,
          "velocity": 0.7874015748031497,
          "duration": 0.17647049999999354
        },
        {
          "name": "G5",
          "midi": 79,
          "time": 235.05870599999938,
          "velocity": 0.7874015748031497,
          "duration": 0.529411500000009
        },
        {
          "name": "D5",
          "midi": 74,
          "time": 235.76458799999938,
          "velocity": 0.7874015748031497,
          "duration": 0.35294099999998707
        },
        {
          "name": "E5",
          "midi": 76,
          "time": 236.11752899999937,
          "velocity": 0.7874015748031497,
          "duration": 0.35294099999998707
        },
        {
          "name": "E5",
          "midi": 76,
          "time": 236.47046999999935,
          "velocity": 1,
          "duration": 3.529409999999274
        }
      ],
      "controlChanges": {
        "7": [
          {
            "number": 7,
            "time": 0,
            "value": 0.8661417322834646
          }
        ],
        "10": [
          {
            "number": 10,
            "time": 0,
            "value": 0.5039370078740157
          }
        ],
        "32": [
          {
            "number": 32,
            "time": 0,
            "value": 0
          }
        ],
        "91": [
          {
            "number": 91,
            "time": 0,
            "value": 0.1889763779527559
          }
        ],
        "93": [
          {
            "number": 93,
            "time": 0,
            "value": 0.31496062992125984
          }
        ]
      },
      "id": 2,
      "name": "Vocal",
      "instrumentNumber": 56,
      "instrument": "trumpet",
      "instrumentFamily": "brass",
      "channelNumber": 1,
      "isPercussion": false
    },
    {
      "startTime": 185.646966,
      "duration": 321.88219199999986,
      "length": 75,
      "notes": [
        {
          "name": "G#4",
          "midi": 68,
          "time": 185.646966,
          "velocity": 0.7874015748031497,
          "duration": 0.7058819999999741
        },
        {
          "name": "G#4",
          "midi": 68,
          "time": 186.35284799999997,
          "velocity": 0.7874015748031497,
          "duration": 0.5338232624999932
        },
        {
          "name": "G#4",
          "midi": 68,
          "time": 186.88225949999995,
          "velocity": 0.7874015748031497,
          "duration": 0.5338232625000217
        },
        {
          "name": "G#4",
          "midi": 68,
          "time": 187.41167099999996,
          "velocity": 0.7874015748031497,
          "duration": 0.34411747500001866
        },
        {
          "name": "G#4",
          "midi": 68,
          "time": 187.76461199999997,
          "velocity": 0.7874015748031497,
          "duration": 0.5338232624999932
        },
        {
          "name": "G#4",
          "midi": 68,
          "time": 188.29402349999995,
          "velocity": 0.7874015748031497,
          "duration": 0.5338232625000217
        },
        {
          "name": "G#4",
          "midi": 68,
          "time": 188.82343499999996,
          "velocity": 0.7874015748031497,
          "duration": 0.34411747500001866
        },
        {
          "name": "C#5",
          "midi": 73,
          "time": 189.17637599999998,
          "velocity": 0.7874015748031497,
          "duration": 0.5338232624999932
        },
        {
          "name": "G#4",
          "midi": 68,
          "time": 189.17637599999998,
          "velocity": 0.7874015748031497,
          "duration": 0.5338232624999932
        },
        {
          "name": "C#5",
          "midi": 73,
          "time": 189.70578749999996,
          "velocity": 0.7874015748031497,
          "duration": 0.5338232625000217
        },
        {
          "name": "G#4",
          "midi": 68,
          "time": 189.70578749999996,
          "velocity": 0.7874015748031497,
          "duration": 0.5338232625000217
        },
        {
          "name": "C#5",
          "midi": 73,
          "time": 190.23519899999997,
          "velocity": 0.7874015748031497,
          "duration": 0.34411747500001866
        },
        {
          "name": "G#4",
          "midi": 68,
          "time": 190.23519899999997,
          "velocity": 0.7874015748031497,
          "duration": 0.34411747500001866
        },
        {
          "name": "C#5",
          "midi": 73,
          "time": 190.58813999999998,
          "velocity": 0.7874015748031497,
          "duration": 0.5338232624999932
        },
        {
          "name": "G#4",
          "midi": 68,
          "time": 190.58813999999998,
          "velocity": 0.7874015748031497,
          "duration": 0.5338232624999932
        },
        {
          "name": "C#5",
          "midi": 73,
          "time": 191.11755149999996,
          "velocity": 0.7874015748031497,
          "duration": 0.5338232625000217
        },
        {
          "name": "G#4",
          "midi": 68,
          "time": 191.11755149999996,
          "velocity": 0.7874015748031497,
          "duration": 0.5338232625000217
        },
        {
          "name": "C#5",
          "midi": 73,
          "time": 191.64696299999997,
          "velocity": 0.7874015748031497,
          "duration": 0.34411747500001866
        },
        {
          "name": "G#4",
          "midi": 68,
          "time": 191.64696299999997,
          "velocity": 0.7874015748031497,
          "duration": 0.34411747500001866
        },
        {
          "name": "G#4",
          "midi": 68,
          "time": 191.999904,
          "velocity": 0.7874015748031497,
          "duration": 0.5338232624999932
        },
        {
          "name": "G#5",
          "midi": 80,
          "time": 191.999904,
          "velocity": 0.7874015748031497,
          "duration": 0.5338232624999932
        },
        {
          "name": "C#5",
          "midi": 73,
          "time": 191.999904,
          "velocity": 0.7874015748031497,
          "duration": 0.5338232624999932
        },
        {
          "name": "G#4",
          "midi": 68,
          "time": 192.52931549999997,
          "velocity": 0.7874015748031497,
          "duration": 0.5338232625000217
        },
        {
          "name": "G#5",
          "midi": 80,
          "time": 192.52931549999997,
          "velocity": 0.7874015748031497,
          "duration": 0.5338232625000217
        },
        {
          "name": "C#5",
          "midi": 73,
          "time": 192.52931549999997,
          "velocity": 0.7874015748031497,
          "duration": 0.5338232625000217
        },
        {
          "name": "G#4",
          "midi": 68,
          "time": 193.05872699999998,
          "velocity": 0.7874015748031497,
          "duration": 0.34411747500001866
        },
        {
          "name": "G#5",
          "midi": 80,
          "time": 193.05872699999998,
          "velocity": 0.7874015748031497,
          "duration": 0.34411747500001866
        },
        {
          "name": "C#5",
          "midi": 73,
          "time": 193.05872699999998,
          "velocity": 0.7874015748031497,
          "duration": 0.34411747500001866
        },
        {
          "name": "G#4",
          "midi": 68,
          "time": 193.411668,
          "velocity": 0.7874015748031497,
          "duration": 0.5338232624999932
        },
        {
          "name": "G#5",
          "midi": 80,
          "time": 193.411668,
          "velocity": 0.7874015748031497,
          "duration": 0.5338232624999932
        },
        {
          "name": "C#5",
          "midi": 73,
          "time": 193.411668,
          "velocity": 0.7874015748031497,
          "duration": 0.5338232624999932
        },
        {
          "name": "G#4",
          "midi": 68,
          "time": 193.94107949999997,
          "velocity": 0.7874015748031497,
          "duration": 0.5338232625000217
        },
        {
          "name": "G#5",
          "midi": 80,
          "time": 193.94107949999997,
          "velocity": 0.7874015748031497,
          "duration": 0.5338232625000217
        },
        {
          "name": "C#5",
          "midi": 73,
          "time": 193.94107949999997,
          "velocity": 0.7874015748031497,
          "duration": 0.5338232625000217
        },
        {
          "name": "G#4",
          "midi": 68,
          "time": 194.47049099999998,
          "velocity": 0.7874015748031497,
          "duration": 0.34411747500001866
        },
        {
          "name": "G#5",
          "midi": 80,
          "time": 194.47049099999998,
          "velocity": 0.7874015748031497,
          "duration": 0.34411747500001866
        },
        {
          "name": "C#5",
          "midi": 73,
          "time": 194.47049099999998,
          "velocity": 0.7874015748031497,
          "duration": 0.34411747500001866
        },
        {
          "name": "G#4",
          "midi": 68,
          "time": 194.823432,
          "velocity": 0.7874015748031497,
          "duration": 0.5338232624999932
        },
        {
          "name": "G#5",
          "midi": 80,
          "time": 194.823432,
          "velocity": 0.7874015748031497,
          "duration": 0.5338232624999932
        },
        {
          "name": "C#5",
          "midi": 73,
          "time": 194.823432,
          "velocity": 0.7874015748031497,
          "duration": 0.5338232624999932
        },
        {
          "name": "G#4",
          "midi": 68,
          "time": 195.35284349999998,
          "velocity": 0.7874015748031497,
          "duration": 0.5338232625000217
        },
        {
          "name": "G#5",
          "midi": 80,
          "time": 195.35284349999998,
          "velocity": 0.7874015748031497,
          "duration": 0.5338232625000217
        },
        {
          "name": "C#5",
          "midi": 73,
          "time": 195.35284349999998,
          "velocity": 0.7874015748031497,
          "duration": 0.5338232625000217
        },
        {
          "name": "G#4",
          "midi": 68,
          "time": 195.882255,
          "velocity": 0.7874015748031497,
          "duration": 0.34411747500001866
        },
        {
          "name": "G#5",
          "midi": 80,
          "time": 195.882255,
          "velocity": 0.7874015748031497,
          "duration": 0.34411747500001866
        },
        {
          "name": "C#5",
          "midi": 73,
          "time": 195.882255,
          "velocity": 0.7874015748031497,
          "duration": 0.34411747500001866
        },
        {
          "name": "G#4",
          "midi": 68,
          "time": 196.235196,
          "velocity": 0.7874015748031497,
          "duration": 0.5338232624999932
        },
        {
          "name": "G#5",
          "midi": 80,
          "time": 196.235196,
          "velocity": 0.7874015748031497,
          "duration": 0.5338232624999932
        },
        {
          "name": "C#5",
          "midi": 73,
          "time": 196.235196,
          "velocity": 0.7874015748031497,
          "duration": 0.5338232624999932
        },
        {
          "name": "G#4",
          "midi": 68,
          "time": 196.76460749999998,
          "velocity": 0.7874015748031497,
          "duration": 0.5338232625000217
        },
        {
          "name": "G#5",
          "midi": 80,
          "time": 196.76460749999998,
          "velocity": 0.7874015748031497,
          "duration": 0.5338232625000217
        },
        {
          "name": "C#5",
          "midi": 73,
          "time": 196.76460749999998,
          "velocity": 0.7874015748031497,
          "duration": 0.5338232625000217
        },
        {
          "name": "G#4",
          "midi": 68,
          "time": 197.294019,
          "velocity": 0.7874015748031497,
          "duration": 0.34411747500001866
        },
        {
          "name": "G#5",
          "midi": 80,
          "time": 197.294019,
          "velocity": 0.7874015748031497,
          "duration": 0.34411747500001866
        },
        {
          "name": "C#5",
          "midi": 73,
          "time": 197.294019,
          "velocity": 0.7874015748031497,
          "duration": 0.34411747500001866
        },
        {
          "name": "E4",
          "midi": 64,
          "time": 299.293968,
          "velocity": 0.7874015748031497,
          "duration": 1.4117640000000051
        },
        {
          "name": "F#4",
          "midi": 66,
          "time": 300.705732,
          "velocity": 0.7874015748031497,
          "duration": 1.4117640000000051
        },
        {
          "name": "G4",
          "midi": 67,
          "time": 302.117496,
          "velocity": 0.7874015748031497,
          "duration": 1.4117640000000051
        },
        {
          "name": "A4",
          "midi": 69,
          "time": 303.52926,
          "velocity": 0.7874015748031497,
          "duration": 0.7058819999999741
        },
        {
          "name": "G4",
          "midi": 67,
          "time": 304.235142,
          "velocity": 0.7874015748031497,
          "duration": 0.7058819999999741
        },
        {
          "name": "E4",
          "midi": 64,
          "time": 304.94102399999997,
          "velocity": 0.7874015748031497,
          "duration": 1.4117640000000051
        },
        {
          "name": "F#4",
          "midi": 66,
          "time": 306.352788,
          "velocity": 0.7874015748031497,
          "duration": 1.4117640000000051
        },
        {
          "name": "G4",
          "midi": 67,
          "time": 307.764552,
          "velocity": 0.7874015748031497,
          "duration": 1.4117640000000051
        },
        {
          "name": "A4",
          "midi": 69,
          "time": 309.176316,
          "velocity": 0.7874015748031497,
          "duration": 0.7058819999999741
        },
        {
          "name": "G4",
          "midi": 67,
          "time": 309.88219799999996,
          "velocity": 0.7874015748031497,
          "duration": 0.7058819999999741
        },
        {
          "name": "E4",
          "midi": 64,
          "time": 310.58807999999993,
          "velocity": 0.7874015748031497,
          "duration": 1.4117640000000051
        },
        {
          "name": "F#4",
          "midi": 66,
          "time": 311.99984399999994,
          "velocity": 0.7874015748031497,
          "duration": 1.4117640000000051
        },
        {
          "name": "G4",
          "midi": 67,
          "time": 313.41160799999994,
          "velocity": 0.7874015748031497,
          "duration": 1.4117640000000051
        },
        {
          "name": "A4",
          "midi": 69,
          "time": 314.82337199999995,
          "velocity": 0.7874015748031497,
          "duration": 0.7058819999999741
        },
        {
          "name": "G4",
          "midi": 67,
          "time": 315.5292539999999,
          "velocity": 0.7874015748031497,
          "duration": 0.7058819999999741
        },
        {
          "name": "E4",
          "midi": 64,
          "time": 316.2351359999999,
          "velocity": 0.7874015748031497,
          "duration": 1.4117640000000051
        },
        {
          "name": "F#4",
          "midi": 66,
          "time": 317.6468999999999,
          "velocity": 0.7874015748031497,
          "duration": 1.4117640000000051
        },
        {
          "name": "G4",
          "midi": 67,
          "time": 319.0586639999999,
          "velocity": 0.7874015748031497,
          "duration": 1.4117640000000051
        },
        {
          "name": "A4",
          "midi": 69,
          "time": 320.4704279999999,
          "velocity": 0.7874015748031497,
          "duration": 0.7058819999999741
        },
        {
          "name": "G4",
          "midi": 67,
          "time": 321.1763099999999,
          "velocity": 0.7874015748031497,
          "duration": 0.7058819999999741
        }
      ],
      "controlChanges": {
        "7": [
          {
            "number": 7,
            "time": 0,
            "value": 0.8661417322834646
          }
        ],
        "10": [
          {
            "number": 10,
            "time": 0,
            "value": 0.5039370078740157
          }
        ],
        "32": [
          {
            "number": 32,
            "time": 0,
            "value": 0
          }
        ],
        "91": [
          {
            "number": 91,
            "time": 0,
            "value": 0.12598425196850394
          }
        ],
        "93": [
          {
            "number": 93,
            "time": 0,
            "value": 0.12598425196850394
          }
        ]
      },
      "id": 3,
      "name": "Lead Guitar",
      "instrumentNumber": 29,
      "instrument": "overdriven guitar",
      "instrumentFamily": "guitar",
      "channelNumber": 2,
      "isPercussion": false
    },
    {
      "startTime": 5.647056,
      "duration": 339.1763009999969,
      "length": 2196,
      "notes": [
        {
          "name": "F3",
          "midi": 53,
          "time": 5.647056,
          "velocity": 0.5905511811023622,
          "duration": 2.1176460000000006
        },
        {
          "name": "C4",
          "midi": 60,
          "time": 5.647056,
          "velocity": 0.5905511811023622,
          "duration": 2.1176460000000006
        },
        {
          "name": "F4",
          "midi": 65,
          "time": 5.647056,
          "velocity": 0.5905511811023622,
          "duration": 2.1176460000000006
        },
        {
          "name": "C4",
          "midi": 60,
          "time": 9.176466000000001,
          "velocity": 0.5905511811023622,
          "duration": 0.7058820000000008
        },
        {
          "name": "F4",
          "midi": 65,
          "time": 9.176466000000001,
          "velocity": 0.5905511811023622,
          "duration": 0.7058820000000008
        },
        {
          "name": "F3",
          "midi": 53,
          "time": 9.176466000000001,
          "velocity": 0.5905511811023622,
          "duration": 0.7058820000000008
        },
        {
          "name": "C4",
          "midi": 60,
          "time": 9.882348000000002,
          "velocity": 0.5905511811023622,
          "duration": 0.7058820000000008
        },
        {
          "name": "F4",
          "midi": 65,
          "time": 9.882348000000002,
          "velocity": 0.5905511811023622,
          "duration": 0.7058820000000008
        },
        {
          "name": "F3",
          "midi": 53,
          "time": 9.882348000000002,
          "velocity": 0.5905511811023622,
          "duration": 0.7058820000000008
        },
        {
          "name": "C4",
          "midi": 60,
          "time": 10.588230000000003,
          "velocity": 0.5905511811023622,
          "duration": 0.7058820000000008
        },
        {
          "name": "F4",
          "midi": 65,
          "time": 10.588230000000003,
          "velocity": 0.5905511811023622,
          "duration": 0.7058820000000008
        },
        {
          "name": "F3",
          "midi": 53,
          "time": 10.588230000000003,
          "velocity": 0.5905511811023622,
          "duration": 0.7058820000000008
        },
        {
          "name": "F4",
          "midi": 65,
          "time": 11.294112000000004,
          "velocity": 0.5905511811023622,
          "duration": 2.1176460000000006
        },
        {
          "name": "C4",
          "midi": 60,
          "time": 11.294112000000004,
          "velocity": 0.5905511811023622,
          "duration": 2.1176460000000006
        },
        {
          "name": "F3",
          "midi": 53,
          "time": 11.294112000000004,
          "velocity": 0.5905511811023622,
          "duration": 2.1176460000000006
        },
        {
          "name": "C4",
          "midi": 60,
          "time": 14.823522000000004,
          "velocity": 0.5905511811023622,
          "duration": 0.7058820000000008
        },
        {
          "name": "F4",
          "midi": 65,
          "time": 14.823522000000004,
          "velocity": 0.5905511811023622,
          "duration": 0.7058820000000008
        },
        {
          "name": "F3",
          "midi": 53,
          "time": 14.823522000000004,
          "velocity": 0.5905511811023622,
          "duration": 0.7058820000000008
        },
        {
          "name": "C4",
          "midi": 60,
          "time": 15.529404000000005,
          "velocity": 0.5905511811023622,
          "duration": 0.7058820000000008
        },
        {
          "name": "F4",
          "midi": 65,
          "time": 15.529404000000005,
          "velocity": 0.5905511811023622,
          "duration": 0.7058820000000008
        },
        {
          "name": "F3",
          "midi": 53,
          "time": 15.529404000000005,
          "velocity": 0.5905511811023622,
          "duration": 0.7058820000000008
        },
        {
          "name": "C4",
          "midi": 60,
          "time": 16.235286000000006,
          "velocity": 0.5905511811023622,
          "duration": 0.705881999999999
        },
        {
          "name": "F4",
          "midi": 65,
          "time": 16.235286000000006,
          "velocity": 0.5905511811023622,
          "duration": 0.705881999999999
        },
        {
          "name": "F3",
          "midi": 53,
          "time": 16.235286000000006,
          "velocity": 0.5905511811023622,
          "duration": 0.705881999999999
        },
        {
          "name": "F4",
          "midi": 65,
          "time": 16.941168000000005,
          "velocity": 0.5905511811023622,
          "duration": 2.1176460000000006
        },
        {
          "name": "C4",
          "midi": 60,
          "time": 16.941168000000005,
          "velocity": 0.5905511811023622,
          "duration": 2.1176460000000006
        },
        {
          "name": "F3",
          "midi": 53,
          "time": 16.941168000000005,
          "velocity": 0.5905511811023622,
          "duration": 2.1176460000000006
        },
        {
          "name": "C4",
          "midi": 60,
          "time": 20.470578000000007,
          "velocity": 0.5905511811023622,
          "duration": 0.705881999999999
        },
        {
          "name": "F4",
          "midi": 65,
          "time": 20.470578000000007,
          "velocity": 0.5905511811023622,
          "duration": 0.705881999999999
        },
        {
          "name": "F3",
          "midi": 53,
          "time": 20.470578000000007,
          "velocity": 0.5905511811023622,
          "duration": 0.705881999999999
        },
        {
          "name": "C4",
          "midi": 60,
          "time": 21.176460000000006,
          "velocity": 0.5905511811023622,
          "duration": 0.705881999999999
        },
        {
          "name": "F4",
          "midi": 65,
          "time": 21.176460000000006,
          "velocity": 0.5905511811023622,
          "duration": 0.705881999999999
        },
        {
          "name": "F3",
          "midi": 53,
          "time": 21.176460000000006,
          "velocity": 0.5905511811023622,
          "duration": 0.705881999999999
        },
        {
          "name": "C4",
          "midi": 60,
          "time": 21.882342000000005,
          "velocity": 0.5905511811023622,
          "duration": 0.705881999999999
        },
        {
          "name": "F4",
          "midi": 65,
          "time": 21.882342000000005,
          "velocity": 0.5905511811023622,
          "duration": 0.705881999999999
        },
        {
          "name": "F3",
          "midi": 53,
          "time": 21.882342000000005,
          "velocity": 0.5905511811023622,
          "duration": 0.705881999999999
        },
        {
          "name": "B2",
          "midi": 47,
          "time": 22.588224000000004,
          "velocity": 0.7874015748031497,
          "duration": 0.705881999999999
        },
        {
          "name": "F#3",
          "midi": 54,
          "time": 22.588224000000004,
          "velocity": 0.7874015748031497,
          "duration": 0.705881999999999
        },
        {
          "name": "B3",
          "midi": 59,
          "time": 22.588224000000004,
          "velocity": 0.7874015748031497,
          "duration": 0.705881999999999
        },
        {
          "name": "F#3",
          "midi": 54,
          "time": 22.588224000000004,
          "velocity": 0.7874015748031497,
          "duration": 0.705881999999999
        },
        {
          "name": "B3",
          "midi": 59,
          "time": 22.588224000000004,
          "velocity": 0.7874015748031497,
          "duration": 0.705881999999999
        },
        {
          "name": "F#3",
          "midi": 54,
          "time": 22.588224000000004,
          "velocity": 0.7874015748031497,
          "duration": 0.705881999999999
        },
        {
          "name": "B3",
          "midi": 59,
          "time": 22.588224000000004,
          "velocity": 0.7874015748031497,
          "duration": 0.705881999999999
        },
        {
          "name": "D4",
          "midi": 62,
          "time": 23.294106000000003,
          "velocity": 0.7874015748031497,
          "duration": 0.705881999999999
        },
        {
          "name": "A3",
          "midi": 57,
          "time": 23.294106000000003,
          "velocity": 0.7874015748031497,
          "duration": 0.705881999999999
        },
        {
          "name": "D3",
          "midi": 50,
          "time": 23.294106000000003,
          "velocity": 0.7874015748031497,
          "duration": 0.705881999999999
        },
        {
          "name": "D4",
          "midi": 62,
          "time": 23.999988000000002,
          "velocity": 0.7874015748031497,
          "duration": 0.3529410000000013
        },
        {
          "name": "A3",
          "midi": 57,
          "time": 23.999988000000002,
          "velocity": 0.7874015748031497,
          "duration": 0.3529410000000013
        },
        {
          "name": "D3",
          "midi": 50,
          "time": 23.999988000000002,
          "velocity": 0.7874015748031497,
          "duration": 0.3529410000000013
        },
        {
          "name": "E4",
          "midi": 64,
          "time": 24.352929000000003,
          "velocity": 0.7874015748031497,
          "duration": 0.3529410000000013
        },
        {
          "name": "B3",
          "midi": 59,
          "time": 24.352929000000003,
          "velocity": 0.7874015748031497,
          "duration": 0.3529410000000013
        },
        {
          "name": "E3",
          "midi": 52,
          "time": 24.352929000000003,
          "velocity": 0.7874015748031497,
          "duration": 0.3529410000000013
        },
        {
          "name": "E4",
          "midi": 64,
          "time": 24.705870000000004,
          "velocity": 0.7874015748031497,
          "duration": 0.705881999999999
        },
        {
          "name": "B3",
          "midi": 59,
          "time": 24.705870000000004,
          "velocity": 0.7874015748031497,
          "duration": 0.705881999999999
        },
        {
          "name": "E3",
          "midi": 52,
          "time": 24.705870000000004,
          "velocity": 0.7874015748031497,
          "duration": 0.705881999999999
        },
        {
          "name": "G4",
          "midi": 67,
          "time": 25.411752000000003,
          "velocity": 0.7874015748031497,
          "duration": 0.17647050000000064
        },
        {
          "name": "D4",
          "midi": 62,
          "time": 25.411752000000003,
          "velocity": 0.7874015748031497,
          "duration": 0.17647050000000064
        },
        {
          "name": "G3",
          "midi": 55,
          "time": 25.411752000000003,
          "velocity": 0.7874015748031497,
          "duration": 0.17647050000000064
        },
        {
          "name": "F#4",
          "midi": 66,
          "time": 25.588222500000004,
          "velocity": 0.7874015748031497,
          "duration": 0.17647050000000064
        },
        {
          "name": "C#4",
          "midi": 61,
          "time": 25.588222500000004,
          "velocity": 0.7874015748031497,
          "duration": 0.17647050000000064
        },
        {
          "name": "F#3",
          "midi": 54,
          "time": 25.588222500000004,
          "velocity": 0.7874015748031497,
          "duration": 0.17647050000000064
        },
        {
          "name": "G4",
          "midi": 67,
          "time": 25.764693000000005,
          "velocity": 0.7874015748031497,
          "duration": 0.17647050000000064
        },
        {
          "name": "D4",
          "midi": 62,
          "time": 25.764693000000005,
          "velocity": 0.7874015748031497,
          "duration": 0.17647050000000064
        },
        {
          "name": "G3",
          "midi": 55,
          "time": 25.764693000000005,
          "velocity": 0.7874015748031497,
          "duration": 0.17647050000000064
        },
        {
          "name": "F#4",
          "midi": 66,
          "time": 25.941163500000005,
          "velocity": 0.7874015748031497,
          "duration": 0.17647050000000064
        },
        {
          "name": "C#4",
          "midi": 61,
          "time": 25.941163500000005,
          "velocity": 0.7874015748031497,
          "duration": 0.17647050000000064
        },
        {
          "name": "F#3",
          "midi": 54,
          "time": 25.941163500000005,
          "velocity": 0.7874015748031497,
          "duration": 0.17647050000000064
        },
        {
          "name": "G4",
          "midi": 67,
          "time": 26.117634000000006,
          "velocity": 0.7874015748031497,
          "duration": 0.17647050000000064
        },
        {
          "name": "D4",
          "midi": 62,
          "time": 26.117634000000006,
          "velocity": 0.7874015748031497,
          "duration": 0.17647050000000064
        },
        {
          "name": "G3",
          "midi": 55,
          "time": 26.117634000000006,
          "velocity": 0.7874015748031497,
          "duration": 0.17647050000000064
        },
        {
          "name": "F#4",
          "midi": 66,
          "time": 26.294104500000007,
          "velocity": 0.7874015748031497,
          "duration": 0.17647050000000064
        },
        {
          "name": "C#4",
          "midi": 61,
          "time": 26.294104500000007,
          "velocity": 0.7874015748031497,
          "duration": 0.17647050000000064
        },
        {
          "name": "F#3",
          "midi": 54,
          "time": 26.294104500000007,
          "velocity": 0.7874015748031497,
          "duration": 0.17647050000000064
        },
        {
          "name": "D4",
          "midi": 62,
          "time": 26.470575000000007,
          "velocity": 0.7874015748031497,
          "duration": 0.3441174750000009
        },
        {
          "name": "A3",
          "midi": 57,
          "time": 26.470575000000007,
          "velocity": 0.7874015748031497,
          "duration": 0.3441174750000009
        },
        {
          "name": "D3",
          "midi": 50,
          "time": 26.470575000000007,
          "velocity": 0.7874015748031497,
          "duration": 0.3441174750000009
        },
        {
          "name": "D4",
          "midi": 62,
          "time": 26.82351600000001,
          "velocity": 0.7874015748031497,
          "duration": 0.3529410000000013
        },
        {
          "name": "A3",
          "midi": 57,
          "time": 26.82351600000001,
          "velocity": 0.7874015748031497,
          "duration": 0.3529410000000013
        },
        {
          "name": "D3",
          "midi": 50,
          "time": 26.82351600000001,
          "velocity": 0.7874015748031497,
          "duration": 0.3529410000000013
        },
        {
          "name": "E4",
          "midi": 64,
          "time": 27.17645700000001,
          "velocity": 0.7874015748031497,
          "duration": 0.3529410000000013
        },
        {
          "name": "B3",
          "midi": 59,
          "time": 27.17645700000001,
          "velocity": 0.7874015748031497,
          "duration": 0.3529410000000013
        },
        {
          "name": "E3",
          "midi": 52,
          "time": 27.17645700000001,
          "velocity": 0.7874015748031497,
          "duration": 0.3529410000000013
        },
        {
          "name": "E4",
          "midi": 64,
          "time": 27.52939800000001,
          "velocity": 0.7874015748031497,
          "duration": 0.705881999999999
        },
        {
          "name": "B3",
          "midi": 59,
          "time": 27.52939800000001,
          "velocity": 0.7874015748031497,
          "duration": 0.705881999999999
        },
        {
          "name": "E3",
          "midi": 52,
          "time": 27.52939800000001,
          "velocity": 0.7874015748031497,
          "duration": 0.705881999999999
        },
        {
          "name": "B3",
          "midi": 59,
          "time": 28.23528000000001,
          "velocity": 0.7874015748031497,
          "duration": 0.705881999999999
        },
        {
          "name": "F#3",
          "midi": 54,
          "time": 28.23528000000001,
          "velocity": 0.7874015748031497,
          "duration": 0.705881999999999
        },
        {
          "name": "B2",
          "midi": 47,
          "time": 28.23528000000001,
          "velocity": 0.7874015748031497,
          "duration": 0.705881999999999
        },
        {
          "name": "D4",
          "midi": 62,
          "time": 28.94116200000001,
          "velocity": 0.7874015748031497,
          "duration": 0.705881999999999
        },
        {
          "name": "A3",
          "midi": 57,
          "time": 28.94116200000001,
          "velocity": 0.7874015748031497,
          "duration": 0.705881999999999
        },
        {
          "name": "D3",
          "midi": 50,
          "time": 28.94116200000001,
          "velocity": 0.7874015748031497,
          "duration": 0.705881999999999
        },
        {
          "name": "D4",
          "midi": 62,
          "time": 29.647044000000008,
          "velocity": 0.7874015748031497,
          "duration": 0.3529410000000013
        },
        {
          "name": "A3",
          "midi": 57,
          "time": 29.647044000000008,
          "velocity": 0.7874015748031497,
          "duration": 0.3529410000000013
        },
        {
          "name": "D3",
          "midi": 50,
          "time": 29.647044000000008,
          "velocity": 0.7874015748031497,
          "duration": 0.3529410000000013
        },
        {
          "name": "E4",
          "midi": 64,
          "time": 29.99998500000001,
          "velocity": 0.7874015748031497,
          "duration": 0.3529410000000013
        },
        {
          "name": "B3",
          "midi": 59,
          "time": 29.99998500000001,
          "velocity": 0.7874015748031497,
          "duration": 0.3529410000000013
        },
        {
          "name": "E3",
          "midi": 52,
          "time": 29.99998500000001,
          "velocity": 0.7874015748031497,
          "duration": 0.3529410000000013
        },
        {
          "name": "E4",
          "midi": 64,
          "time": 30.35292600000001,
          "velocity": 0.7874015748031497,
          "duration": 0.705881999999999
        },
        {
          "name": "B3",
          "midi": 59,
          "time": 30.35292600000001,
          "velocity": 0.7874015748031497,
          "duration": 0.705881999999999
        },
        {
          "name": "E3",
          "midi": 52,
          "time": 30.35292600000001,
          "velocity": 0.7874015748031497,
          "duration": 0.705881999999999
        },
        {
          "name": "G4",
          "midi": 67,
          "time": 31.05880800000001,
          "velocity": 0.7874015748031497,
          "duration": 0.17647050000000064
        },
        {
          "name": "D4",
          "midi": 62,
          "time": 31.05880800000001,
          "velocity": 0.7874015748031497,
          "duration": 0.17647050000000064
        },
        {
          "name": "G3",
          "midi": 55,
          "time": 31.05880800000001,
          "velocity": 0.7874015748031497,
          "duration": 0.17647050000000064
        },
        {
          "name": "F#4",
          "midi": 66,
          "time": 31.23527850000001,
          "velocity": 0.7874015748031497,
          "duration": 0.17647050000000064
        },
        {
          "name": "C#4",
          "midi": 61,
          "time": 31.23527850000001,
          "velocity": 0.7874015748031497,
          "duration": 0.17647050000000064
        },
        {
          "name": "F#3",
          "midi": 54,
          "time": 31.23527850000001,
          "velocity": 0.7874015748031497,
          "duration": 0.17647050000000064
        },
        {
          "name": "G4",
          "midi": 67,
          "time": 31.41174900000001,
          "velocity": 0.7874015748031497,
          "duration": 0.17647050000000064
        },
        {
          "name": "D4",
          "midi": 62,
          "time": 31.41174900000001,
          "velocity": 0.7874015748031497,
          "duration": 0.17647050000000064
        },
        {
          "name": "G3",
          "midi": 55,
          "time": 31.41174900000001,
          "velocity": 0.7874015748031497,
          "duration": 0.17647050000000064
        },
        {
          "name": "F#4",
          "midi": 66,
          "time": 31.58821950000001,
          "velocity": 0.7874015748031497,
          "duration": 0.17647050000000064
        },
        {
          "name": "C#4",
          "midi": 61,
          "time": 31.58821950000001,
          "velocity": 0.7874015748031497,
          "duration": 0.17647050000000064
        },
        {
          "name": "F#3",
          "midi": 54,
          "time": 31.58821950000001,
          "velocity": 0.7874015748031497,
          "duration": 0.17647050000000064
        },
        {
          "name": "G4",
          "midi": 67,
          "time": 31.764690000000012,
          "velocity": 0.7874015748031497,
          "duration": 0.17647050000000064
        },
        {
          "name": "D4",
          "midi": 62,
          "time": 31.764690000000012,
          "velocity": 0.7874015748031497,
          "duration": 0.17647050000000064
        },
        {
          "name": "G3",
          "midi": 55,
          "time": 31.764690000000012,
          "velocity": 0.7874015748031497,
          "duration": 0.17647050000000064
        },
        {
          "name": "F#4",
          "midi": 66,
          "time": 31.941160500000013,
          "velocity": 0.7874015748031497,
          "duration": 0.1764704999999971
        },
        {
          "name": "C#4",
          "midi": 61,
          "time": 31.941160500000013,
          "velocity": 0.7874015748031497,
          "duration": 0.1764704999999971
        },
        {
          "name": "F#3",
          "midi": 54,
          "time": 31.941160500000013,
          "velocity": 0.7874015748031497,
          "duration": 0.1764704999999971
        },
        {
          "name": "D4",
          "midi": 62,
          "time": 32.11763100000001,
          "velocity": 0.7874015748031497,
          "duration": 0.34411747499999734
        },
        {
          "name": "A3",
          "midi": 57,
          "time": 32.11763100000001,
          "velocity": 0.7874015748031497,
          "duration": 0.34411747499999734
        },
        {
          "name": "D3",
          "midi": 50,
          "time": 32.11763100000001,
          "velocity": 0.7874015748031497,
          "duration": 0.34411747499999734
        },
        {
          "name": "D4",
          "midi": 62,
          "time": 32.470572000000004,
          "velocity": 0.7874015748031497,
          "duration": 0.3529409999999942
        },
        {
          "name": "A3",
          "midi": 57,
          "time": 32.470572000000004,
          "velocity": 0.7874015748031497,
          "duration": 0.3529409999999942
        },
        {
          "name": "D3",
          "midi": 50,
          "time": 32.470572000000004,
          "velocity": 0.7874015748031497,
          "duration": 0.3529409999999942
        },
        {
          "name": "E4",
          "midi": 64,
          "time": 32.823513,
          "velocity": 0.7874015748031497,
          "duration": 0.3529410000000013
        },
        {
          "name": "B3",
          "midi": 59,
          "time": 32.823513,
          "velocity": 0.7874015748031497,
          "duration": 0.3529410000000013
        },
        {
          "name": "E3",
          "midi": 52,
          "time": 32.823513,
          "velocity": 0.7874015748031497,
          "duration": 0.3529410000000013
        },
        {
          "name": "E4",
          "midi": 64,
          "time": 33.176454,
          "velocity": 0.7874015748031497,
          "duration": 0.7058820000000026
        },
        {
          "name": "B3",
          "midi": 59,
          "time": 33.176454,
          "velocity": 0.7874015748031497,
          "duration": 0.7058820000000026
        },
        {
          "name": "E3",
          "midi": 52,
          "time": 33.176454,
          "velocity": 0.7874015748031497,
          "duration": 0.7058820000000026
        },
        {
          "name": "B3",
          "midi": 59,
          "time": 33.882336,
          "velocity": 0.7874015748031497,
          "duration": 0.7058820000000026
        },
        {
          "name": "F#3",
          "midi": 54,
          "time": 33.882336,
          "velocity": 0.7874015748031497,
          "duration": 0.7058820000000026
        },
        {
          "name": "B2",
          "midi": 47,
          "time": 33.882336,
          "velocity": 0.7874015748031497,
          "duration": 0.7058820000000026
        },
        {
          "name": "D4",
          "midi": 62,
          "time": 34.588218000000005,
          "velocity": 0.7874015748031497,
          "duration": 0.7058820000000026
        },
        {
          "name": "A3",
          "midi": 57,
          "time": 34.588218000000005,
          "velocity": 0.7874015748031497,
          "duration": 0.7058820000000026
        },
        {
          "name": "D3",
          "midi": 50,
          "time": 34.588218000000005,
          "velocity": 0.7874015748031497,
          "duration": 0.7058820000000026
        },
        {
          "name": "D4",
          "midi": 62,
          "time": 35.29410000000001,
          "velocity": 0.7874015748031497,
          "duration": 0.3529409999999942
        },
        {
          "name": "A3",
          "midi": 57,
          "time": 35.29410000000001,
          "velocity": 0.7874015748031497,
          "duration": 0.3529409999999942
        },
        {
          "name": "D3",
          "midi": 50,
          "time": 35.29410000000001,
          "velocity": 0.7874015748031497,
          "duration": 0.3529409999999942
        },
        {
          "name": "E4",
          "midi": 64,
          "time": 35.647041,
          "velocity": 0.7874015748031497,
          "duration": 0.3529410000000013
        },
        {
          "name": "B3",
          "midi": 59,
          "time": 35.647041,
          "velocity": 0.7874015748031497,
          "duration": 0.3529410000000013
        },
        {
          "name": "E3",
          "midi": 52,
          "time": 35.647041,
          "velocity": 0.7874015748031497,
          "duration": 0.3529410000000013
        },
        {
          "name": "E4",
          "midi": 64,
          "time": 35.999982,
          "velocity": 0.7874015748031497,
          "duration": 0.7058820000000026
        },
        {
          "name": "B3",
          "midi": 59,
          "time": 35.999982,
          "velocity": 0.7874015748031497,
          "duration": 0.7058820000000026
        },
        {
          "name": "E3",
          "midi": 52,
          "time": 35.999982,
          "velocity": 0.7874015748031497,
          "duration": 0.7058820000000026
        },
        {
          "name": "G4",
          "midi": 67,
          "time": 36.705864000000005,
          "velocity": 0.7874015748031497,
          "duration": 0.17647050000000064
        },
        {
          "name": "D4",
          "midi": 62,
          "time": 36.705864000000005,
          "velocity": 0.7874015748031497,
          "duration": 0.17647050000000064
        },
        {
          "name": "G3",
          "midi": 55,
          "time": 36.705864000000005,
          "velocity": 0.7874015748031497,
          "duration": 0.17647050000000064
        },
        {
          "name": "F#4",
          "midi": 66,
          "time": 36.882334500000006,
          "velocity": 0.7874015748031497,
          "duration": 0.17647050000000064
        },
        {
          "name": "C#4",
          "midi": 61,
          "time": 36.882334500000006,
          "velocity": 0.7874015748031497,
          "duration": 0.17647050000000064
        },
        {
          "name": "F#3",
          "midi": 54,
          "time": 36.882334500000006,
          "velocity": 0.7874015748031497,
          "duration": 0.17647050000000064
        },
        {
          "name": "G4",
          "midi": 67,
          "time": 37.05880500000001,
          "velocity": 0.7874015748031497,
          "duration": 0.17647050000000064
        },
        {
          "name": "D4",
          "midi": 62,
          "time": 37.05880500000001,
          "velocity": 0.7874015748031497,
          "duration": 0.17647050000000064
        },
        {
          "name": "G3",
          "midi": 55,
          "time": 37.05880500000001,
          "velocity": 0.7874015748031497,
          "duration": 0.17647050000000064
        },
        {
          "name": "F#4",
          "midi": 66,
          "time": 37.23527550000001,
          "velocity": 0.7874015748031497,
          "duration": 0.17647050000000064
        },
        {
          "name": "C#4",
          "midi": 61,
          "time": 37.23527550000001,
          "velocity": 0.7874015748031497,
          "duration": 0.17647050000000064
        },
        {
          "name": "F#3",
          "midi": 54,
          "time": 37.23527550000001,
          "velocity": 0.7874015748031497,
          "duration": 0.17647050000000064
        },
        {
          "name": "G4",
          "midi": 67,
          "time": 37.41174600000001,
          "velocity": 0.7874015748031497,
          "duration": 0.17647050000000064
        },
        {
          "name": "D4",
          "midi": 62,
          "time": 37.41174600000001,
          "velocity": 0.7874015748031497,
          "duration": 0.17647050000000064
        },
        {
          "name": "G3",
          "midi": 55,
          "time": 37.41174600000001,
          "velocity": 0.7874015748031497,
          "duration": 0.17647050000000064
        },
        {
          "name": "F#4",
          "midi": 66,
          "time": 37.58821650000001,
          "velocity": 0.7874015748031497,
          "duration": 0.17647050000000064
        },
        {
          "name": "C#4",
          "midi": 61,
          "time": 37.58821650000001,
          "velocity": 0.7874015748031497,
          "duration": 0.17647050000000064
        },
        {
          "name": "F#3",
          "midi": 54,
          "time": 37.58821650000001,
          "velocity": 0.7874015748031497,
          "duration": 0.17647050000000064
        },
        {
          "name": "D4",
          "midi": 62,
          "time": 37.76468700000001,
          "velocity": 0.7874015748031497,
          "duration": 0.34411747499999734
        },
        {
          "name": "A3",
          "midi": 57,
          "time": 37.76468700000001,
          "velocity": 0.7874015748031497,
          "duration": 0.34411747499999734
        },
        {
          "name": "D3",
          "midi": 50,
          "time": 37.76468700000001,
          "velocity": 0.7874015748031497,
          "duration": 0.34411747499999734
        },
        {
          "name": "D4",
          "midi": 62,
          "time": 38.117628,
          "velocity": 0.7874015748031497,
          "duration": 0.3529409999999942
        },
        {
          "name": "A3",
          "midi": 57,
          "time": 38.117628,
          "velocity": 0.7874015748031497,
          "duration": 0.3529409999999942
        },
        {
          "name": "D3",
          "midi": 50,
          "time": 38.117628,
          "velocity": 0.7874015748031497,
          "duration": 0.3529409999999942
        },
        {
          "name": "E4",
          "midi": 64,
          "time": 38.470569,
          "velocity": 0.7874015748031497,
          "duration": 0.3529410000000013
        },
        {
          "name": "B3",
          "midi": 59,
          "time": 38.470569,
          "velocity": 0.7874015748031497,
          "duration": 0.3529410000000013
        },
        {
          "name": "E3",
          "midi": 52,
          "time": 38.470569,
          "velocity": 0.7874015748031497,
          "duration": 0.3529410000000013
        },
        {
          "name": "E4",
          "midi": 64,
          "time": 38.82351,
          "velocity": 0.7874015748031497,
          "duration": 0.7058820000000026
        },
        {
          "name": "B3",
          "midi": 59,
          "time": 38.82351,
          "velocity": 0.7874015748031497,
          "duration": 0.7058820000000026
        },
        {
          "name": "E3",
          "midi": 52,
          "time": 38.82351,
          "velocity": 0.7874015748031497,
          "duration": 0.7058820000000026
        },
        {
          "name": "B3",
          "midi": 59,
          "time": 39.529392,
          "velocity": 0.7874015748031497,
          "duration": 0.7058820000000026
        },
        {
          "name": "F#3",
          "midi": 54,
          "time": 39.529392,
          "velocity": 0.7874015748031497,
          "duration": 0.7058820000000026
        },
        {
          "name": "B2",
          "midi": 47,
          "time": 39.529392,
          "velocity": 0.7874015748031497,
          "duration": 0.7058820000000026
        },
        {
          "name": "D4",
          "midi": 62,
          "time": 40.235274000000004,
          "velocity": 0.7874015748031497,
          "duration": 0.7058820000000026
        },
        {
          "name": "A3",
          "midi": 57,
          "time": 40.235274000000004,
          "velocity": 0.7874015748031497,
          "duration": 0.7058820000000026
        },
        {
          "name": "D3",
          "midi": 50,
          "time": 40.235274000000004,
          "velocity": 0.7874015748031497,
          "duration": 0.7058820000000026
        },
        {
          "name": "D4",
          "midi": 62,
          "time": 40.94115600000001,
          "velocity": 0.7874015748031497,
          "duration": 0.3529409999999942
        },
        {
          "name": "A3",
          "midi": 57,
          "time": 40.94115600000001,
          "velocity": 0.7874015748031497,
          "duration": 0.3529409999999942
        },
        {
          "name": "D3",
          "midi": 50,
          "time": 40.94115600000001,
          "velocity": 0.7874015748031497,
          "duration": 0.3529409999999942
        },
        {
          "name": "E4",
          "midi": 64,
          "time": 41.294097,
          "velocity": 0.7874015748031497,
          "duration": 0.3529410000000013
        },
        {
          "name": "B3",
          "midi": 59,
          "time": 41.294097,
          "velocity": 0.7874015748031497,
          "duration": 0.3529410000000013
        },
        {
          "name": "E3",
          "midi": 52,
          "time": 41.294097,
          "velocity": 0.7874015748031497,
          "duration": 0.3529410000000013
        },
        {
          "name": "E4",
          "midi": 64,
          "time": 41.647038,
          "velocity": 0.7874015748031497,
          "duration": 0.7058820000000026
        },
        {
          "name": "B3",
          "midi": 59,
          "time": 41.647038,
          "velocity": 0.7874015748031497,
          "duration": 0.7058820000000026
        },
        {
          "name": "E3",
          "midi": 52,
          "time": 41.647038,
          "velocity": 0.7874015748031497,
          "duration": 0.7058820000000026
        },
        {
          "name": "G4",
          "midi": 67,
          "time": 42.352920000000005,
          "velocity": 0.7874015748031497,
          "duration": 0.17647050000000064
        },
        {
          "name": "D4",
          "midi": 62,
          "time": 42.352920000000005,
          "velocity": 0.7874015748031497,
          "duration": 0.17647050000000064
        },
        {
          "name": "G3",
          "midi": 55,
          "time": 42.352920000000005,
          "velocity": 0.7874015748031497,
          "duration": 0.17647050000000064
        },
        {
          "name": "F#4",
          "midi": 66,
          "time": 42.529390500000005,
          "velocity": 0.7874015748031497,
          "duration": 0.17647050000000064
        },
        {
          "name": "C#4",
          "midi": 61,
          "time": 42.529390500000005,
          "velocity": 0.7874015748031497,
          "duration": 0.17647050000000064
        },
        {
          "name": "F#3",
          "midi": 54,
          "time": 42.529390500000005,
          "velocity": 0.7874015748031497,
          "duration": 0.17647050000000064
        },
        {
          "name": "G4",
          "midi": 67,
          "time": 42.705861000000006,
          "velocity": 0.7874015748031497,
          "duration": 0.17647050000000064
        },
        {
          "name": "D4",
          "midi": 62,
          "time": 42.705861000000006,
          "velocity": 0.7874015748031497,
          "duration": 0.17647050000000064
        },
        {
          "name": "G3",
          "midi": 55,
          "time": 42.705861000000006,
          "velocity": 0.7874015748031497,
          "duration": 0.17647050000000064
        },
        {
          "name": "F#4",
          "midi": 66,
          "time": 42.88233150000001,
          "velocity": 0.7874015748031497,
          "duration": 0.17647050000000064
        },
        {
          "name": "C#4",
          "midi": 61,
          "time": 42.88233150000001,
          "velocity": 0.7874015748031497,
          "duration": 0.17647050000000064
        },
        {
          "name": "F#3",
          "midi": 54,
          "time": 42.88233150000001,
          "velocity": 0.7874015748031497,
          "duration": 0.17647050000000064
        },
        {
          "name": "G4",
          "midi": 67,
          "time": 43.05880200000001,
          "velocity": 0.7874015748031497,
          "duration": 0.17647050000000064
        },
        {
          "name": "D4",
          "midi": 62,
          "time": 43.05880200000001,
          "velocity": 0.7874015748031497,
          "duration": 0.17647050000000064
        },
        {
          "name": "G3",
          "midi": 55,
          "time": 43.05880200000001,
          "velocity": 0.7874015748031497,
          "duration": 0.17647050000000064
        },
        {
          "name": "F#4",
          "midi": 66,
          "time": 43.23527250000001,
          "velocity": 0.7874015748031497,
          "duration": 0.17647050000000064
        },
        {
          "name": "C#4",
          "midi": 61,
          "time": 43.23527250000001,
          "velocity": 0.7874015748031497,
          "duration": 0.17647050000000064
        },
        {
          "name": "F#3",
          "midi": 54,
          "time": 43.23527250000001,
          "velocity": 0.7874015748031497,
          "duration": 0.17647050000000064
        },
        {
          "name": "D4",
          "midi": 62,
          "time": 43.41174300000001,
          "velocity": 0.7874015748031497,
          "duration": 0.34411747499999734
        },
        {
          "name": "A3",
          "midi": 57,
          "time": 43.41174300000001,
          "velocity": 0.7874015748031497,
          "duration": 0.34411747499999734
        },
        {
          "name": "D3",
          "midi": 50,
          "time": 43.41174300000001,
          "velocity": 0.7874015748031497,
          "duration": 0.34411747499999734
        },
        {
          "name": "D4",
          "midi": 62,
          "time": 43.764684,
          "velocity": 0.7874015748031497,
          "duration": 0.3529409999999942
        },
        {
          "name": "A3",
          "midi": 57,
          "time": 43.764684,
          "velocity": 0.7874015748031497,
          "duration": 0.3529409999999942
        },
        {
          "name": "D3",
          "midi": 50,
          "time": 43.764684,
          "velocity": 0.7874015748031497,
          "duration": 0.3529409999999942
        },
        {
          "name": "E4",
          "midi": 64,
          "time": 44.117625,
          "velocity": 0.7874015748031497,
          "duration": 0.3529410000000013
        },
        {
          "name": "B3",
          "midi": 59,
          "time": 44.117625,
          "velocity": 0.7874015748031497,
          "duration": 0.3529410000000013
        },
        {
          "name": "E3",
          "midi": 52,
          "time": 44.117625,
          "velocity": 0.7874015748031497,
          "duration": 0.3529410000000013
        },
        {
          "name": "E4",
          "midi": 64,
          "time": 44.470566,
          "velocity": 0.7874015748031497,
          "duration": 0.7058820000000026
        },
        {
          "name": "B3",
          "midi": 59,
          "time": 44.470566,
          "velocity": 0.7874015748031497,
          "duration": 0.7058820000000026
        },
        {
          "name": "E3",
          "midi": 52,
          "time": 44.470566,
          "velocity": 0.7874015748031497,
          "duration": 0.7058820000000026
        },
        {
          "name": "B3",
          "midi": 59,
          "time": 45.176448,
          "velocity": 0.7874015748031497,
          "duration": 0.7058820000000026
        },
        {
          "name": "F#3",
          "midi": 54,
          "time": 45.176448,
          "velocity": 0.7874015748031497,
          "duration": 0.7058820000000026
        },
        {
          "name": "B2",
          "midi": 47,
          "time": 45.176448,
          "velocity": 0.7874015748031497,
          "duration": 0.7058820000000026
        },
        {
          "name": "D4",
          "midi": 62,
          "time": 45.88233,
          "velocity": 0.7874015748031497,
          "duration": 0.7058820000000026
        },
        {
          "name": "A3",
          "midi": 57,
          "time": 45.88233,
          "velocity": 0.7874015748031497,
          "duration": 0.7058820000000026
        },
        {
          "name": "D3",
          "midi": 50,
          "time": 45.88233,
          "velocity": 0.7874015748031497,
          "duration": 0.7058820000000026
        },
        {
          "name": "D4",
          "midi": 62,
          "time": 46.588212000000006,
          "velocity": 0.7874015748031497,
          "duration": 0.3529409999999942
        },
        {
          "name": "A3",
          "midi": 57,
          "time": 46.588212000000006,
          "velocity": 0.7874015748031497,
          "duration": 0.3529409999999942
        },
        {
          "name": "D3",
          "midi": 50,
          "time": 46.588212000000006,
          "velocity": 0.7874015748031497,
          "duration": 0.3529409999999942
        },
        {
          "name": "E4",
          "midi": 64,
          "time": 46.941153,
          "velocity": 0.7874015748031497,
          "duration": 0.3529410000000013
        },
        {
          "name": "B3",
          "midi": 59,
          "time": 46.941153,
          "velocity": 0.7874015748031497,
          "duration": 0.3529410000000013
        },
        {
          "name": "E3",
          "midi": 52,
          "time": 46.941153,
          "velocity": 0.7874015748031497,
          "duration": 0.3529410000000013
        },
        {
          "name": "E4",
          "midi": 64,
          "time": 47.294094,
          "velocity": 0.7874015748031497,
          "duration": 0.7058820000000026
        },
        {
          "name": "B3",
          "midi": 59,
          "time": 47.294094,
          "velocity": 0.7874015748031497,
          "duration": 0.7058820000000026
        },
        {
          "name": "E3",
          "midi": 52,
          "time": 47.294094,
          "velocity": 0.7874015748031497,
          "duration": 0.7058820000000026
        },
        {
          "name": "G4",
          "midi": 67,
          "time": 47.999976000000004,
          "velocity": 0.7874015748031497,
          "duration": 0.17647050000000064
        },
        {
          "name": "D4",
          "midi": 62,
          "time": 47.999976000000004,
          "velocity": 0.7874015748031497,
          "duration": 0.17647050000000064
        },
        {
          "name": "G3",
          "midi": 55,
          "time": 47.999976000000004,
          "velocity": 0.7874015748031497,
          "duration": 0.17647050000000064
        },
        {
          "name": "F#4",
          "midi": 66,
          "time": 48.176446500000004,
          "velocity": 0.7874015748031497,
          "duration": 0.17647050000000064
        },
        {
          "name": "C#4",
          "midi": 61,
          "time": 48.176446500000004,
          "velocity": 0.7874015748031497,
          "duration": 0.17647050000000064
        },
        {
          "name": "F#3",
          "midi": 54,
          "time": 48.176446500000004,
          "velocity": 0.7874015748031497,
          "duration": 0.17647050000000064
        },
        {
          "name": "G4",
          "midi": 67,
          "time": 48.352917000000005,
          "velocity": 0.7874015748031497,
          "duration": 0.17647050000000064
        },
        {
          "name": "D4",
          "midi": 62,
          "time": 48.352917000000005,
          "velocity": 0.7874015748031497,
          "duration": 0.17647050000000064
        },
        {
          "name": "G3",
          "midi": 55,
          "time": 48.352917000000005,
          "velocity": 0.7874015748031497,
          "duration": 0.17647050000000064
        },
        {
          "name": "F#4",
          "midi": 66,
          "time": 48.529387500000006,
          "velocity": 0.7874015748031497,
          "duration": 0.17647050000000064
        },
        {
          "name": "C#4",
          "midi": 61,
          "time": 48.529387500000006,
          "velocity": 0.7874015748031497,
          "duration": 0.17647050000000064
        },
        {
          "name": "F#3",
          "midi": 54,
          "time": 48.529387500000006,
          "velocity": 0.7874015748031497,
          "duration": 0.17647050000000064
        },
        {
          "name": "G4",
          "midi": 67,
          "time": 48.705858000000006,
          "velocity": 0.7874015748031497,
          "duration": 0.17647050000000064
        },
        {
          "name": "D4",
          "midi": 62,
          "time": 48.705858000000006,
          "velocity": 0.7874015748031497,
          "duration": 0.17647050000000064
        },
        {
          "name": "G3",
          "midi": 55,
          "time": 48.705858000000006,
          "velocity": 0.7874015748031497,
          "duration": 0.17647050000000064
        },
        {
          "name": "F#4",
          "midi": 66,
          "time": 48.88232850000001,
          "velocity": 0.7874015748031497,
          "duration": 0.17647050000000064
        },
        {
          "name": "C#4",
          "midi": 61,
          "time": 48.88232850000001,
          "velocity": 0.7874015748031497,
          "duration": 0.17647050000000064
        },
        {
          "name": "F#3",
          "midi": 54,
          "time": 48.88232850000001,
          "velocity": 0.7874015748031497,
          "duration": 0.17647050000000064
        },
        {
          "name": "D4",
          "midi": 62,
          "time": 49.05879900000001,
          "velocity": 0.7874015748031497,
          "duration": 0.34411747499999734
        },
        {
          "name": "A3",
          "midi": 57,
          "time": 49.05879900000001,
          "velocity": 0.7874015748031497,
          "duration": 0.34411747499999734
        },
        {
          "name": "D3",
          "midi": 50,
          "time": 49.05879900000001,
          "velocity": 0.7874015748031497,
          "duration": 0.34411747499999734
        },
        {
          "name": "D4",
          "midi": 62,
          "time": 49.41174,
          "velocity": 0.7874015748031497,
          "duration": 0.3529409999999942
        },
        {
          "name": "A3",
          "midi": 57,
          "time": 49.41174,
          "velocity": 0.7874015748031497,
          "duration": 0.3529409999999942
        },
        {
          "name": "D3",
          "midi": 50,
          "time": 49.41174,
          "velocity": 0.7874015748031497,
          "duration": 0.3529409999999942
        },
        {
          "name": "E4",
          "midi": 64,
          "time": 49.764680999999996,
          "velocity": 0.7874015748031497,
          "duration": 0.3529410000000013
        },
        {
          "name": "B3",
          "midi": 59,
          "time": 49.764680999999996,
          "velocity": 0.7874015748031497,
          "duration": 0.3529410000000013
        },
        {
          "name": "E3",
          "midi": 52,
          "time": 49.764680999999996,
          "velocity": 0.7874015748031497,
          "duration": 0.3529410000000013
        },
        {
          "name": "E4",
          "midi": 64,
          "time": 50.117622,
          "velocity": 0.7874015748031497,
          "duration": 0.7058820000000026
        },
        {
          "name": "B3",
          "midi": 59,
          "time": 50.117622,
          "velocity": 0.7874015748031497,
          "duration": 0.7058820000000026
        },
        {
          "name": "E3",
          "midi": 52,
          "time": 50.117622,
          "velocity": 0.7874015748031497,
          "duration": 0.7058820000000026
        },
        {
          "name": "B3",
          "midi": 59,
          "time": 50.823504,
          "velocity": 0.7874015748031497,
          "duration": 0.7058820000000026
        },
        {
          "name": "F#3",
          "midi": 54,
          "time": 50.823504,
          "velocity": 0.7874015748031497,
          "duration": 0.7058820000000026
        },
        {
          "name": "B2",
          "midi": 47,
          "time": 50.823504,
          "velocity": 0.7874015748031497,
          "duration": 0.7058820000000026
        },
        {
          "name": "D4",
          "midi": 62,
          "time": 51.529386,
          "velocity": 0.7874015748031497,
          "duration": 0.7058820000000026
        },
        {
          "name": "A3",
          "midi": 57,
          "time": 51.529386,
          "velocity": 0.7874015748031497,
          "duration": 0.7058820000000026
        },
        {
          "name": "D3",
          "midi": 50,
          "time": 51.529386,
          "velocity": 0.7874015748031497,
          "duration": 0.7058820000000026
        },
        {
          "name": "D4",
          "midi": 62,
          "time": 52.235268000000005,
          "velocity": 0.7874015748031497,
          "duration": 0.3529409999999942
        },
        {
          "name": "A3",
          "midi": 57,
          "time": 52.235268000000005,
          "velocity": 0.7874015748031497,
          "duration": 0.3529409999999942
        },
        {
          "name": "D3",
          "midi": 50,
          "time": 52.235268000000005,
          "velocity": 0.7874015748031497,
          "duration": 0.3529409999999942
        },
        {
          "name": "E4",
          "midi": 64,
          "time": 52.588209,
          "velocity": 0.7874015748031497,
          "duration": 0.3529410000000013
        },
        {
          "name": "B3",
          "midi": 59,
          "time": 52.588209,
          "velocity": 0.7874015748031497,
          "duration": 0.3529410000000013
        },
        {
          "name": "E3",
          "midi": 52,
          "time": 52.588209,
          "velocity": 0.7874015748031497,
          "duration": 0.3529410000000013
        },
        {
          "name": "E4",
          "midi": 64,
          "time": 52.94115,
          "velocity": 0.7874015748031497,
          "duration": 0.7058820000000026
        },
        {
          "name": "B3",
          "midi": 59,
          "time": 52.94115,
          "velocity": 0.7874015748031497,
          "duration": 0.7058820000000026
        },
        {
          "name": "E3",
          "midi": 52,
          "time": 52.94115,
          "velocity": 0.7874015748031497,
          "duration": 0.7058820000000026
        },
        {
          "name": "G4",
          "midi": 67,
          "time": 53.647032,
          "velocity": 0.7874015748031497,
          "duration": 0.17647050000000064
        },
        {
          "name": "D4",
          "midi": 62,
          "time": 53.647032,
          "velocity": 0.7874015748031497,
          "duration": 0.17647050000000064
        },
        {
          "name": "G3",
          "midi": 55,
          "time": 53.647032,
          "velocity": 0.7874015748031497,
          "duration": 0.17647050000000064
        },
        {
          "name": "F#4",
          "midi": 66,
          "time": 53.823502500000004,
          "velocity": 0.7874015748031497,
          "duration": 0.17647050000000064
        },
        {
          "name": "C#4",
          "midi": 61,
          "time": 53.823502500000004,
          "velocity": 0.7874015748031497,
          "duration": 0.17647050000000064
        },
        {
          "name": "F#3",
          "midi": 54,
          "time": 53.823502500000004,
          "velocity": 0.7874015748031497,
          "duration": 0.17647050000000064
        },
        {
          "name": "G4",
          "midi": 67,
          "time": 53.999973000000004,
          "velocity": 0.7874015748031497,
          "duration": 0.17647050000000064
        },
        {
          "name": "D4",
          "midi": 62,
          "time": 53.999973000000004,
          "velocity": 0.7874015748031497,
          "duration": 0.17647050000000064
        },
        {
          "name": "G3",
          "midi": 55,
          "time": 53.999973000000004,
          "velocity": 0.7874015748031497,
          "duration": 0.17647050000000064
        },
        {
          "name": "F#4",
          "midi": 66,
          "time": 54.176443500000005,
          "velocity": 0.7874015748031497,
          "duration": 0.17647050000000064
        },
        {
          "name": "C#4",
          "midi": 61,
          "time": 54.176443500000005,
          "velocity": 0.7874015748031497,
          "duration": 0.17647050000000064
        },
        {
          "name": "F#3",
          "midi": 54,
          "time": 54.176443500000005,
          "velocity": 0.7874015748031497,
          "duration": 0.17647050000000064
        },
        {
          "name": "G4",
          "midi": 67,
          "time": 54.352914000000006,
          "velocity": 0.7874015748031497,
          "duration": 0.17647050000000064
        },
        {
          "name": "D4",
          "midi": 62,
          "time": 54.352914000000006,
          "velocity": 0.7874015748031497,
          "duration": 0.17647050000000064
        },
        {
          "name": "G3",
          "midi": 55,
          "time": 54.352914000000006,
          "velocity": 0.7874015748031497,
          "duration": 0.17647050000000064
        },
        {
          "name": "F#4",
          "midi": 66,
          "time": 54.529384500000006,
          "velocity": 0.7874015748031497,
          "duration": 0.17647050000000064
        },
        {
          "name": "C#4",
          "midi": 61,
          "time": 54.529384500000006,
          "velocity": 0.7874015748031497,
          "duration": 0.17647050000000064
        },
        {
          "name": "F#3",
          "midi": 54,
          "time": 54.529384500000006,
          "velocity": 0.7874015748031497,
          "duration": 0.17647050000000064
        },
        {
          "name": "D4",
          "midi": 62,
          "time": 54.70585500000001,
          "velocity": 0.7874015748031497,
          "duration": 0.34411747499999734
        },
        {
          "name": "A3",
          "midi": 57,
          "time": 54.70585500000001,
          "velocity": 0.7874015748031497,
          "duration": 0.34411747499999734
        },
        {
          "name": "D3",
          "midi": 50,
          "time": 54.70585500000001,
          "velocity": 0.7874015748031497,
          "duration": 0.34411747499999734
        },
        {
          "name": "D4",
          "midi": 62,
          "time": 55.058796,
          "velocity": 0.7874015748031497,
          "duration": 0.3529409999999942
        },
        {
          "name": "A3",
          "midi": 57,
          "time": 55.058796,
          "velocity": 0.7874015748031497,
          "duration": 0.3529409999999942
        },
        {
          "name": "D3",
          "midi": 50,
          "time": 55.058796,
          "velocity": 0.7874015748031497,
          "duration": 0.3529409999999942
        },
        {
          "name": "E4",
          "midi": 64,
          "time": 55.411736999999995,
          "velocity": 0.7874015748031497,
          "duration": 0.3529410000000013
        },
        {
          "name": "B3",
          "midi": 59,
          "time": 55.411736999999995,
          "velocity": 0.7874015748031497,
          "duration": 0.3529410000000013
        },
        {
          "name": "E3",
          "midi": 52,
          "time": 55.411736999999995,
          "velocity": 0.7874015748031497,
          "duration": 0.3529410000000013
        },
        {
          "name": "E4",
          "midi": 64,
          "time": 55.764677999999996,
          "velocity": 0.7874015748031497,
          "duration": 0.7058820000000026
        },
        {
          "name": "B3",
          "midi": 59,
          "time": 55.764677999999996,
          "velocity": 0.7874015748031497,
          "duration": 0.7058820000000026
        },
        {
          "name": "E3",
          "midi": 52,
          "time": 55.764677999999996,
          "velocity": 0.7874015748031497,
          "duration": 0.7058820000000026
        },
        {
          "name": "B3",
          "midi": 59,
          "time": 56.47056,
          "velocity": 0.7874015748031497,
          "duration": 0.7058820000000026
        },
        {
          "name": "F#3",
          "midi": 54,
          "time": 56.47056,
          "velocity": 0.7874015748031497,
          "duration": 0.7058820000000026
        },
        {
          "name": "B2",
          "midi": 47,
          "time": 56.47056,
          "velocity": 0.7874015748031497,
          "duration": 0.7058820000000026
        },
        {
          "name": "D4",
          "midi": 62,
          "time": 57.176442,
          "velocity": 0.7874015748031497,
          "duration": 0.7058820000000026
        },
        {
          "name": "A3",
          "midi": 57,
          "time": 57.176442,
          "velocity": 0.7874015748031497,
          "duration": 0.7058820000000026
        },
        {
          "name": "D3",
          "midi": 50,
          "time": 57.176442,
          "velocity": 0.7874015748031497,
          "duration": 0.7058820000000026
        },
        {
          "name": "D4",
          "midi": 62,
          "time": 57.882324000000004,
          "velocity": 0.7874015748031497,
          "duration": 0.3529409999999942
        },
        {
          "name": "A3",
          "midi": 57,
          "time": 57.882324000000004,
          "velocity": 0.7874015748031497,
          "duration": 0.3529409999999942
        },
        {
          "name": "D3",
          "midi": 50,
          "time": 57.882324000000004,
          "velocity": 0.7874015748031497,
          "duration": 0.3529409999999942
        },
        {
          "name": "E4",
          "midi": 64,
          "time": 58.235265,
          "velocity": 0.7874015748031497,
          "duration": 0.3529410000000013
        },
        {
          "name": "B3",
          "midi": 59,
          "time": 58.235265,
          "velocity": 0.7874015748031497,
          "duration": 0.3529410000000013
        },
        {
          "name": "E3",
          "midi": 52,
          "time": 58.235265,
          "velocity": 0.7874015748031497,
          "duration": 0.3529410000000013
        },
        {
          "name": "E4",
          "midi": 64,
          "time": 58.588206,
          "velocity": 0.7874015748031497,
          "duration": 0.7058820000000026
        },
        {
          "name": "B3",
          "midi": 59,
          "time": 58.588206,
          "velocity": 0.7874015748031497,
          "duration": 0.7058820000000026
        },
        {
          "name": "E3",
          "midi": 52,
          "time": 58.588206,
          "velocity": 0.7874015748031497,
          "duration": 0.7058820000000026
        },
        {
          "name": "G4",
          "midi": 67,
          "time": 59.294088,
          "velocity": 0.7874015748031497,
          "duration": 0.17647050000000064
        },
        {
          "name": "D4",
          "midi": 62,
          "time": 59.294088,
          "velocity": 0.7874015748031497,
          "duration": 0.17647050000000064
        },
        {
          "name": "G3",
          "midi": 55,
          "time": 59.294088,
          "velocity": 0.7874015748031497,
          "duration": 0.17647050000000064
        },
        {
          "name": "F#4",
          "midi": 66,
          "time": 59.4705585,
          "velocity": 0.7874015748031497,
          "duration": 0.17647050000000064
        },
        {
          "name": "C#4",
          "midi": 61,
          "time": 59.4705585,
          "velocity": 0.7874015748031497,
          "duration": 0.17647050000000064
        },
        {
          "name": "F#3",
          "midi": 54,
          "time": 59.4705585,
          "velocity": 0.7874015748031497,
          "duration": 0.17647050000000064
        },
        {
          "name": "G4",
          "midi": 67,
          "time": 59.647029,
          "velocity": 0.7874015748031497,
          "duration": 0.17647050000000064
        },
        {
          "name": "D4",
          "midi": 62,
          "time": 59.647029,
          "velocity": 0.7874015748031497,
          "duration": 0.17647050000000064
        },
        {
          "name": "G3",
          "midi": 55,
          "time": 59.647029,
          "velocity": 0.7874015748031497,
          "duration": 0.17647050000000064
        },
        {
          "name": "F#4",
          "midi": 66,
          "time": 59.823499500000004,
          "velocity": 0.7874015748031497,
          "duration": 0.17647050000000064
        },
        {
          "name": "C#4",
          "midi": 61,
          "time": 59.823499500000004,
          "velocity": 0.7874015748031497,
          "duration": 0.17647050000000064
        },
        {
          "name": "F#3",
          "midi": 54,
          "time": 59.823499500000004,
          "velocity": 0.7874015748031497,
          "duration": 0.17647050000000064
        },
        {
          "name": "G4",
          "midi": 67,
          "time": 59.999970000000005,
          "velocity": 0.7874015748031497,
          "duration": 0.17647050000000064
        },
        {
          "name": "D4",
          "midi": 62,
          "time": 59.999970000000005,
          "velocity": 0.7874015748031497,
          "duration": 0.17647050000000064
        },
        {
          "name": "G3",
          "midi": 55,
          "time": 59.999970000000005,
          "velocity": 0.7874015748031497,
          "duration": 0.17647050000000064
        },
        {
          "name": "F#4",
          "midi": 66,
          "time": 60.176440500000005,
          "velocity": 0.7874015748031497,
          "duration": 0.17647050000000064
        },
        {
          "name": "C#4",
          "midi": 61,
          "time": 60.176440500000005,
          "velocity": 0.7874015748031497,
          "duration": 0.17647050000000064
        },
        {
          "name": "F#3",
          "midi": 54,
          "time": 60.176440500000005,
          "velocity": 0.7874015748031497,
          "duration": 0.17647050000000064
        },
        {
          "name": "D4",
          "midi": 62,
          "time": 60.352911000000006,
          "velocity": 0.7874015748031497,
          "duration": 0.34411747499999734
        },
        {
          "name": "A3",
          "midi": 57,
          "time": 60.352911000000006,
          "velocity": 0.7874015748031497,
          "duration": 0.34411747499999734
        },
        {
          "name": "D3",
          "midi": 50,
          "time": 60.352911000000006,
          "velocity": 0.7874015748031497,
          "duration": 0.34411747499999734
        },
        {
          "name": "D4",
          "midi": 62,
          "time": 60.705852,
          "velocity": 0.7874015748031497,
          "duration": 0.3529409999999942
        },
        {
          "name": "A3",
          "midi": 57,
          "time": 60.705852,
          "velocity": 0.7874015748031497,
          "duration": 0.3529409999999942
        },
        {
          "name": "D3",
          "midi": 50,
          "time": 60.705852,
          "velocity": 0.7874015748031497,
          "duration": 0.3529409999999942
        },
        {
          "name": "E4",
          "midi": 64,
          "time": 61.058792999999994,
          "velocity": 0.7874015748031497,
          "duration": 0.3529410000000013
        },
        {
          "name": "B3",
          "midi": 59,
          "time": 61.058792999999994,
          "velocity": 0.7874015748031497,
          "duration": 0.3529410000000013
        },
        {
          "name": "E3",
          "midi": 52,
          "time": 61.058792999999994,
          "velocity": 0.7874015748031497,
          "duration": 0.3529410000000013
        },
        {
          "name": "E4",
          "midi": 64,
          "time": 61.411733999999996,
          "velocity": 0.7874015748031497,
          "duration": 0.7058820000000026
        },
        {
          "name": "B3",
          "midi": 59,
          "time": 61.411733999999996,
          "velocity": 0.7874015748031497,
          "duration": 0.7058820000000026
        },
        {
          "name": "E3",
          "midi": 52,
          "time": 61.411733999999996,
          "velocity": 0.7874015748031497,
          "duration": 0.7058820000000026
        },
        {
          "name": "F#3",
          "midi": 54,
          "time": 62.117616,
          "velocity": 0.7874015748031497,
          "duration": 0.3529410000000013
        },
        {
          "name": "B3",
          "midi": 59,
          "time": 62.117616,
          "velocity": 0.7874015748031497,
          "duration": 0.3529410000000013
        },
        {
          "name": "B2",
          "midi": 47,
          "time": 62.117616,
          "velocity": 0.7874015748031497,
          "duration": 0.3529410000000013
        },
        {
          "name": "F#3",
          "midi": 54,
          "time": 62.470557,
          "velocity": 0.7874015748031497,
          "duration": 0.3529410000000013
        },
        {
          "name": "B3",
          "midi": 59,
          "time": 62.470557,
          "velocity": 0.7874015748031497,
          "duration": 0.3529410000000013
        },
        {
          "name": "B2",
          "midi": 47,
          "time": 62.470557,
          "velocity": 0.7874015748031497,
          "duration": 0.3529410000000013
        },
        {
          "name": "E2",
          "midi": 40,
          "time": 62.823498,
          "velocity": 0.7874015748031497,
          "duration": 0.08823524999999677
        },
        {
          "name": "B1",
          "midi": 35,
          "time": 62.823498,
          "velocity": 0.7874015748031497,
          "duration": 0.08823524999999677
        },
        {
          "name": "E2",
          "midi": 40,
          "time": 62.999968499999994,
          "velocity": 0.7874015748031497,
          "duration": 0.08823524999999677
        },
        {
          "name": "B1",
          "midi": 35,
          "time": 62.999968499999994,
          "velocity": 0.7874015748031497,
          "duration": 0.08823524999999677
        },
        {
          "name": "A3",
          "midi": 57,
          "time": 63.17643899999999,
          "velocity": 0.7874015748031497,
          "duration": 0.3529410000000013
        },
        {
          "name": "D4",
          "midi": 62,
          "time": 63.17643899999999,
          "velocity": 0.7874015748031497,
          "duration": 0.3529410000000013
        },
        {
          "name": "D3",
          "midi": 50,
          "time": 63.17643899999999,
          "velocity": 0.7874015748031497,
          "duration": 0.3529410000000013
        },
        {
          "name": "E2",
          "midi": 40,
          "time": 63.52937999999999,
          "velocity": 0.7874015748031497,
          "duration": 0.08823524999999677
        },
        {
          "name": "B1",
          "midi": 35,
          "time": 63.52937999999999,
          "velocity": 0.7874015748031497,
          "duration": 0.08823524999999677
        },
        {
          "name": "E2",
          "midi": 40,
          "time": 63.70585049999998,
          "velocity": 0.7874015748031497,
          "duration": 0.08823524999999677
        },
        {
          "name": "B1",
          "midi": 35,
          "time": 63.70585049999998,
          "velocity": 0.7874015748031497,
          "duration": 0.08823524999999677
        },
        {
          "name": "F#3",
          "midi": 54,
          "time": 63.882320999999976,
          "velocity": 0.7874015748031497,
          "duration": 0.3529410000000013
        },
        {
          "name": "B3",
          "midi": 59,
          "time": 63.882320999999976,
          "velocity": 0.7874015748031497,
          "duration": 0.3529410000000013
        },
        {
          "name": "B2",
          "midi": 47,
          "time": 63.882320999999976,
          "velocity": 0.7874015748031497,
          "duration": 0.3529410000000013
        },
        {
          "name": "F#3",
          "midi": 54,
          "time": 64.23526199999998,
          "velocity": 0.7874015748031497,
          "duration": 0.3529410000000013
        },
        {
          "name": "B3",
          "midi": 59,
          "time": 64.23526199999998,
          "velocity": 0.7874015748031497,
          "duration": 0.3529410000000013
        },
        {
          "name": "B2",
          "midi": 47,
          "time": 64.23526199999998,
          "velocity": 0.7874015748031497,
          "duration": 0.3529410000000013
        },
        {
          "name": "F3",
          "midi": 53,
          "time": 64.58820299999998,
          "velocity": 0.7874015748031497,
          "duration": 0.3529410000000013
        },
        {
          "name": "A#3",
          "midi": 58,
          "time": 64.58820299999998,
          "velocity": 0.7874015748031497,
          "duration": 0.3529410000000013
        },
        {
          "name": "A#2",
          "midi": 46,
          "time": 64.58820299999998,
          "velocity": 0.7874015748031497,
          "duration": 0.3529410000000013
        },
        {
          "name": "E3",
          "midi": 52,
          "time": 64.94114399999998,
          "velocity": 0.7874015748031497,
          "duration": 0.3529410000000013
        },
        {
          "name": "A3",
          "midi": 57,
          "time": 64.94114399999998,
          "velocity": 0.7874015748031497,
          "duration": 0.3529410000000013
        },
        {
          "name": "A2",
          "midi": 45,
          "time": 64.94114399999998,
          "velocity": 0.7874015748031497,
          "duration": 0.3529410000000013
        },
        {
          "name": "E3",
          "midi": 52,
          "time": 65.29408499999998,
          "velocity": 0.7874015748031497,
          "duration": 0.3529410000000013
        },
        {
          "name": "A3",
          "midi": 57,
          "time": 65.29408499999998,
          "velocity": 0.7874015748031497,
          "duration": 0.3529410000000013
        },
        {
          "name": "A2",
          "midi": 45,
          "time": 65.29408499999998,
          "velocity": 0.7874015748031497,
          "duration": 0.3529410000000013
        },
        {
          "name": "D2",
          "midi": 38,
          "time": 65.64702599999998,
          "velocity": 0.7874015748031497,
          "duration": 0.08823524999999677
        },
        {
          "name": "A1",
          "midi": 33,
          "time": 65.64702599999998,
          "velocity": 0.7874015748031497,
          "duration": 0.08823524999999677
        },
        {
          "name": "D2",
          "midi": 38,
          "time": 65.82349649999998,
          "velocity": 0.7874015748031497,
          "duration": 0.08823524999999677
        },
        {
          "name": "A1",
          "midi": 33,
          "time": 65.82349649999998,
          "velocity": 0.7874015748031497,
          "duration": 0.08823524999999677
        },
        {
          "name": "D2",
          "midi": 38,
          "time": 65.99996699999997,
          "velocity": 0.7874015748031497,
          "duration": 0.08823524999999677
        },
        {
          "name": "A1",
          "midi": 33,
          "time": 65.99996699999997,
          "velocity": 0.7874015748031497,
          "duration": 0.08823524999999677
        },
        {
          "name": "D#3",
          "midi": 51,
          "time": 66.17643749999996,
          "velocity": 0.7874015748031497,
          "duration": 0.17647049999999354
        },
        {
          "name": "G#3",
          "midi": 56,
          "time": 66.17643749999996,
          "velocity": 0.7874015748031497,
          "duration": 0.17647049999999354
        },
        {
          "name": "G#2",
          "midi": 44,
          "time": 66.17643749999996,
          "velocity": 0.7874015748031497,
          "duration": 0.17647049999999354
        },
        {
          "name": "D#3",
          "midi": 51,
          "time": 66.35290799999996,
          "velocity": 0.7874015748031497,
          "duration": 0.17647049999999354
        },
        {
          "name": "G#3",
          "midi": 56,
          "time": 66.35290799999996,
          "velocity": 0.7874015748031497,
          "duration": 0.17647049999999354
        },
        {
          "name": "G#2",
          "midi": 44,
          "time": 66.35290799999996,
          "velocity": 0.7874015748031497,
          "duration": 0.17647049999999354
        },
        {
          "name": "E3",
          "midi": 52,
          "time": 66.52937849999995,
          "velocity": 0.7874015748031497,
          "duration": 0.17647049999999354
        },
        {
          "name": "A3",
          "midi": 57,
          "time": 66.52937849999995,
          "velocity": 0.7874015748031497,
          "duration": 0.17647049999999354
        },
        {
          "name": "A2",
          "midi": 45,
          "time": 66.52937849999995,
          "velocity": 0.7874015748031497,
          "duration": 0.17647049999999354
        },
        {
          "name": "E3",
          "midi": 52,
          "time": 66.70584899999994,
          "velocity": 0.7874015748031497,
          "duration": 0.3529410000000013
        },
        {
          "name": "A3",
          "midi": 57,
          "time": 66.70584899999994,
          "velocity": 0.7874015748031497,
          "duration": 0.3529410000000013
        },
        {
          "name": "A2",
          "midi": 45,
          "time": 66.70584899999994,
          "velocity": 0.7874015748031497,
          "duration": 0.3529410000000013
        },
        {
          "name": "E3",
          "midi": 52,
          "time": 67.05878999999995,
          "velocity": 0.7874015748031497,
          "duration": 0.3529410000000013
        },
        {
          "name": "A3",
          "midi": 57,
          "time": 67.05878999999995,
          "velocity": 0.7874015748031497,
          "duration": 0.3529410000000013
        },
        {
          "name": "A2",
          "midi": 45,
          "time": 67.05878999999995,
          "velocity": 0.7874015748031497,
          "duration": 0.3529410000000013
        },
        {
          "name": "F3",
          "midi": 53,
          "time": 67.41173099999995,
          "velocity": 0.7874015748031497,
          "duration": 0.3529410000000013
        },
        {
          "name": "A#3",
          "midi": 58,
          "time": 67.41173099999995,
          "velocity": 0.7874015748031497,
          "duration": 0.3529410000000013
        },
        {
          "name": "A#2",
          "midi": 46,
          "time": 67.41173099999995,
          "velocity": 0.7874015748031497,
          "duration": 0.3529410000000013
        },
        {
          "name": "F#3",
          "midi": 54,
          "time": 67.76467199999995,
          "velocity": 0.7874015748031497,
          "duration": 0.3529410000000013
        },
        {
          "name": "B3",
          "midi": 59,
          "time": 67.76467199999995,
          "velocity": 0.7874015748031497,
          "duration": 0.3529410000000013
        },
        {
          "name": "B2",
          "midi": 47,
          "time": 67.76467199999995,
          "velocity": 0.7874015748031497,
          "duration": 0.3529410000000013
        },
        {
          "name": "F#3",
          "midi": 54,
          "time": 68.11761299999995,
          "velocity": 0.7874015748031497,
          "duration": 0.3529410000000013
        },
        {
          "name": "B3",
          "midi": 59,
          "time": 68.11761299999995,
          "velocity": 0.7874015748031497,
          "duration": 0.3529410000000013
        },
        {
          "name": "B2",
          "midi": 47,
          "time": 68.11761299999995,
          "velocity": 0.7874015748031497,
          "duration": 0.3529410000000013
        },
        {
          "name": "E2",
          "midi": 40,
          "time": 68.47055399999995,
          "velocity": 0.7874015748031497,
          "duration": 0.08823524999999677
        },
        {
          "name": "B1",
          "midi": 35,
          "time": 68.47055399999995,
          "velocity": 0.7874015748031497,
          "duration": 0.08823524999999677
        },
        {
          "name": "E2",
          "midi": 40,
          "time": 68.64702449999994,
          "velocity": 0.7874015748031497,
          "duration": 0.08823524999999677
        },
        {
          "name": "B1",
          "midi": 35,
          "time": 68.64702449999994,
          "velocity": 0.7874015748031497,
          "duration": 0.08823524999999677
        },
        {
          "name": "A3",
          "midi": 57,
          "time": 68.82349499999994,
          "velocity": 0.7874015748031497,
          "duration": 0.3529410000000013
        },
        {
          "name": "D4",
          "midi": 62,
          "time": 68.82349499999994,
          "velocity": 0.7874015748031497,
          "duration": 0.3529410000000013
        },
        {
          "name": "D3",
          "midi": 50,
          "time": 68.82349499999994,
          "velocity": 0.7874015748031497,
          "duration": 0.3529410000000013
        },
        {
          "name": "E2",
          "midi": 40,
          "time": 69.17643599999994,
          "velocity": 0.7874015748031497,
          "duration": 0.08823524999999677
        },
        {
          "name": "B1",
          "midi": 35,
          "time": 69.17643599999994,
          "velocity": 0.7874015748031497,
          "duration": 0.08823524999999677
        },
        {
          "name": "E2",
          "midi": 40,
          "time": 69.35290649999993,
          "velocity": 0.7874015748031497,
          "duration": 0.08823524999999677
        },
        {
          "name": "B1",
          "midi": 35,
          "time": 69.35290649999993,
          "velocity": 0.7874015748031497,
          "duration": 0.08823524999999677
        },
        {
          "name": "F#3",
          "midi": 54,
          "time": 69.52937699999993,
          "velocity": 0.7874015748031497,
          "duration": 0.3529410000000013
        },
        {
          "name": "B3",
          "midi": 59,
          "time": 69.52937699999993,
          "velocity": 0.7874015748031497,
          "duration": 0.3529410000000013
        },
        {
          "name": "B2",
          "midi": 47,
          "time": 69.52937699999993,
          "velocity": 0.7874015748031497,
          "duration": 0.3529410000000013
        },
        {
          "name": "F#3",
          "midi": 54,
          "time": 69.88231799999993,
          "velocity": 0.7874015748031497,
          "duration": 0.3529410000000013
        },
        {
          "name": "B3",
          "midi": 59,
          "time": 69.88231799999993,
          "velocity": 0.7874015748031497,
          "duration": 0.3529410000000013
        },
        {
          "name": "B2",
          "midi": 47,
          "time": 69.88231799999993,
          "velocity": 0.7874015748031497,
          "duration": 0.3529410000000013
        },
        {
          "name": "F3",
          "midi": 53,
          "time": 70.23525899999993,
          "velocity": 0.7874015748031497,
          "duration": 0.3529410000000013
        },
        {
          "name": "A#3",
          "midi": 58,
          "time": 70.23525899999993,
          "velocity": 0.7874015748031497,
          "duration": 0.3529410000000013
        },
        {
          "name": "A#2",
          "midi": 46,
          "time": 70.23525899999993,
          "velocity": 0.7874015748031497,
          "duration": 0.3529410000000013
        },
        {
          "name": "E3",
          "midi": 52,
          "time": 70.58819999999993,
          "velocity": 0.7874015748031497,
          "duration": 0.3529410000000013
        },
        {
          "name": "A3",
          "midi": 57,
          "time": 70.58819999999993,
          "velocity": 0.7874015748031497,
          "duration": 0.3529410000000013
        },
        {
          "name": "A2",
          "midi": 45,
          "time": 70.58819999999993,
          "velocity": 0.7874015748031497,
          "duration": 0.3529410000000013
        },
        {
          "name": "E3",
          "midi": 52,
          "time": 70.94114099999993,
          "velocity": 0.7874015748031497,
          "duration": 0.3529410000000013
        },
        {
          "name": "A3",
          "midi": 57,
          "time": 70.94114099999993,
          "velocity": 0.7874015748031497,
          "duration": 0.3529410000000013
        },
        {
          "name": "A2",
          "midi": 45,
          "time": 70.94114099999993,
          "velocity": 0.7874015748031497,
          "duration": 0.3529410000000013
        },
        {
          "name": "D2",
          "midi": 38,
          "time": 71.29408199999993,
          "velocity": 0.7874015748031497,
          "duration": 0.08823524999999677
        },
        {
          "name": "A1",
          "midi": 33,
          "time": 71.29408199999993,
          "velocity": 0.7874015748031497,
          "duration": 0.08823524999999677
        },
        {
          "name": "D2",
          "midi": 38,
          "time": 71.47055249999993,
          "velocity": 0.7874015748031497,
          "duration": 0.08823524999999677
        },
        {
          "name": "A1",
          "midi": 33,
          "time": 71.47055249999993,
          "velocity": 0.7874015748031497,
          "duration": 0.08823524999999677
        },
        {
          "name": "D2",
          "midi": 38,
          "time": 71.64702299999992,
          "velocity": 0.7874015748031497,
          "duration": 0.08823524999999677
        },
        {
          "name": "A1",
          "midi": 33,
          "time": 71.64702299999992,
          "velocity": 0.7874015748031497,
          "duration": 0.08823524999999677
        },
        {
          "name": "D#3",
          "midi": 51,
          "time": 71.82349349999991,
          "velocity": 0.7874015748031497,
          "duration": 0.17647049999999354
        },
        {
          "name": "G#3",
          "midi": 56,
          "time": 71.82349349999991,
          "velocity": 0.7874015748031497,
          "duration": 0.17647049999999354
        },
        {
          "name": "G#2",
          "midi": 44,
          "time": 71.82349349999991,
          "velocity": 0.7874015748031497,
          "duration": 0.17647049999999354
        },
        {
          "name": "D#3",
          "midi": 51,
          "time": 71.9999639999999,
          "velocity": 0.7874015748031497,
          "duration": 0.17647049999999354
        },
        {
          "name": "G#3",
          "midi": 56,
          "time": 71.9999639999999,
          "velocity": 0.7874015748031497,
          "duration": 0.17647049999999354
        },
        {
          "name": "G#2",
          "midi": 44,
          "time": 71.9999639999999,
          "velocity": 0.7874015748031497,
          "duration": 0.17647049999999354
        },
        {
          "name": "E3",
          "midi": 52,
          "time": 72.1764344999999,
          "velocity": 0.7874015748031497,
          "duration": 0.17647049999999354
        },
        {
          "name": "A3",
          "midi": 57,
          "time": 72.1764344999999,
          "velocity": 0.7874015748031497,
          "duration": 0.17647049999999354
        },
        {
          "name": "A2",
          "midi": 45,
          "time": 72.1764344999999,
          "velocity": 0.7874015748031497,
          "duration": 0.17647049999999354
        },
        {
          "name": "E3",
          "midi": 52,
          "time": 72.3529049999999,
          "velocity": 0.7874015748031497,
          "duration": 0.3529410000000013
        },
        {
          "name": "A3",
          "midi": 57,
          "time": 72.3529049999999,
          "velocity": 0.7874015748031497,
          "duration": 0.3529410000000013
        },
        {
          "name": "A2",
          "midi": 45,
          "time": 72.3529049999999,
          "velocity": 0.7874015748031497,
          "duration": 0.3529410000000013
        },
        {
          "name": "E3",
          "midi": 52,
          "time": 72.7058459999999,
          "velocity": 0.7874015748031497,
          "duration": 0.3529410000000013
        },
        {
          "name": "A3",
          "midi": 57,
          "time": 72.7058459999999,
          "velocity": 0.7874015748031497,
          "duration": 0.3529410000000013
        },
        {
          "name": "A2",
          "midi": 45,
          "time": 72.7058459999999,
          "velocity": 0.7874015748031497,
          "duration": 0.3529410000000013
        },
        {
          "name": "F3",
          "midi": 53,
          "time": 73.0587869999999,
          "velocity": 0.7874015748031497,
          "duration": 0.3529410000000013
        },
        {
          "name": "A#3",
          "midi": 58,
          "time": 73.0587869999999,
          "velocity": 0.7874015748031497,
          "duration": 0.3529410000000013
        },
        {
          "name": "A#2",
          "midi": 46,
          "time": 73.0587869999999,
          "velocity": 0.7874015748031497,
          "duration": 0.3529410000000013
        },
        {
          "name": "F#3",
          "midi": 54,
          "time": 73.4117279999999,
          "velocity": 0.7874015748031497,
          "duration": 0.3529410000000013
        },
        {
          "name": "B3",
          "midi": 59,
          "time": 73.4117279999999,
          "velocity": 0.7874015748031497,
          "duration": 0.3529410000000013
        },
        {
          "name": "B2",
          "midi": 47,
          "time": 73.4117279999999,
          "velocity": 0.7874015748031497,
          "duration": 0.3529410000000013
        },
        {
          "name": "F#3",
          "midi": 54,
          "time": 73.7646689999999,
          "velocity": 0.7874015748031497,
          "duration": 0.3529410000000013
        },
        {
          "name": "B3",
          "midi": 59,
          "time": 73.7646689999999,
          "velocity": 0.7874015748031497,
          "duration": 0.3529410000000013
        },
        {
          "name": "B2",
          "midi": 47,
          "time": 73.7646689999999,
          "velocity": 0.7874015748031497,
          "duration": 0.3529410000000013
        },
        {
          "name": "E2",
          "midi": 40,
          "time": 74.1176099999999,
          "velocity": 0.7874015748031497,
          "duration": 0.08823524999999677
        },
        {
          "name": "B1",
          "midi": 35,
          "time": 74.1176099999999,
          "velocity": 0.7874015748031497,
          "duration": 0.08823524999999677
        },
        {
          "name": "E2",
          "midi": 40,
          "time": 74.2940804999999,
          "velocity": 0.7874015748031497,
          "duration": 0.08823524999999677
        },
        {
          "name": "B1",
          "midi": 35,
          "time": 74.2940804999999,
          "velocity": 0.7874015748031497,
          "duration": 0.08823524999999677
        },
        {
          "name": "A3",
          "midi": 57,
          "time": 74.47055099999989,
          "velocity": 0.7874015748031497,
          "duration": 0.3529410000000013
        },
        {
          "name": "D4",
          "midi": 62,
          "time": 74.47055099999989,
          "velocity": 0.7874015748031497,
          "duration": 0.3529410000000013
        },
        {
          "name": "D3",
          "midi": 50,
          "time": 74.47055099999989,
          "velocity": 0.7874015748031497,
          "duration": 0.3529410000000013
        },
        {
          "name": "E2",
          "midi": 40,
          "time": 74.82349199999989,
          "velocity": 0.7874015748031497,
          "duration": 0.08823524999999677
        },
        {
          "name": "B1",
          "midi": 35,
          "time": 74.82349199999989,
          "velocity": 0.7874015748031497,
          "duration": 0.08823524999999677
        },
        {
          "name": "E2",
          "midi": 40,
          "time": 74.99996249999988,
          "velocity": 0.7874015748031497,
          "duration": 0.08823524999999677
        },
        {
          "name": "B1",
          "midi": 35,
          "time": 74.99996249999988,
          "velocity": 0.7874015748031497,
          "duration": 0.08823524999999677
        },
        {
          "name": "F#3",
          "midi": 54,
          "time": 75.17643299999988,
          "velocity": 0.7874015748031497,
          "duration": 0.3529410000000013
        },
        {
          "name": "B3",
          "midi": 59,
          "time": 75.17643299999988,
          "velocity": 0.7874015748031497,
          "duration": 0.3529410000000013
        },
        {
          "name": "B2",
          "midi": 47,
          "time": 75.17643299999988,
          "velocity": 0.7874015748031497,
          "duration": 0.3529410000000013
        },
        {
          "name": "F#3",
          "midi": 54,
          "time": 75.52937399999988,
          "velocity": 0.7874015748031497,
          "duration": 0.3529410000000013
        },
        {
          "name": "B3",
          "midi": 59,
          "time": 75.52937399999988,
          "velocity": 0.7874015748031497,
          "duration": 0.3529410000000013
        },
        {
          "name": "B2",
          "midi": 47,
          "time": 75.52937399999988,
          "velocity": 0.7874015748031497,
          "duration": 0.3529410000000013
        },
        {
          "name": "F3",
          "midi": 53,
          "time": 75.88231499999988,
          "velocity": 0.7874015748031497,
          "duration": 0.3529410000000013
        },
        {
          "name": "A#3",
          "midi": 58,
          "time": 75.88231499999988,
          "velocity": 0.7874015748031497,
          "duration": 0.3529410000000013
        },
        {
          "name": "A#2",
          "midi": 46,
          "time": 75.88231499999988,
          "velocity": 0.7874015748031497,
          "duration": 0.3529410000000013
        },
        {
          "name": "E3",
          "midi": 52,
          "time": 76.23525599999988,
          "velocity": 0.7874015748031497,
          "duration": 0.3529410000000013
        },
        {
          "name": "A3",
          "midi": 57,
          "time": 76.23525599999988,
          "velocity": 0.7874015748031497,
          "duration": 0.3529410000000013
        },
        {
          "name": "A2",
          "midi": 45,
          "time": 76.23525599999988,
          "velocity": 0.7874015748031497,
          "duration": 0.3529410000000013
        },
        {
          "name": "E3",
          "midi": 52,
          "time": 76.58819699999988,
          "velocity": 0.7874015748031497,
          "duration": 0.3529410000000013
        },
        {
          "name": "A3",
          "midi": 57,
          "time": 76.58819699999988,
          "velocity": 0.7874015748031497,
          "duration": 0.3529410000000013
        },
        {
          "name": "A2",
          "midi": 45,
          "time": 76.58819699999988,
          "velocity": 0.7874015748031497,
          "duration": 0.3529410000000013
        },
        {
          "name": "A3",
          "midi": 57,
          "time": 76.94113799999988,
          "velocity": 0.7874015748031497,
          "duration": 0.3529410000000013
        },
        {
          "name": "A2",
          "midi": 45,
          "time": 76.94113799999988,
          "velocity": 0.7874015748031497,
          "duration": 0.3529410000000013
        },
        {
          "name": "E3",
          "midi": 52,
          "time": 76.94113799999988,
          "velocity": 0.7874015748031497,
          "duration": 0.3529410000000013
        },
        {
          "name": "B3",
          "midi": 59,
          "time": 79.05878399999989,
          "velocity": 0.7874015748031497,
          "duration": 0.7058820000000026
        },
        {
          "name": "F#3",
          "midi": 54,
          "time": 79.05878399999989,
          "velocity": 0.7874015748031497,
          "duration": 0.7058820000000026
        },
        {
          "name": "B2",
          "midi": 47,
          "time": 79.05878399999989,
          "velocity": 0.7874015748031497,
          "duration": 0.7058820000000026
        },
        {
          "name": "D4",
          "midi": 62,
          "time": 79.76466599999989,
          "velocity": 0.7874015748031497,
          "duration": 0.7058820000000026
        },
        {
          "name": "A3",
          "midi": 57,
          "time": 79.76466599999989,
          "velocity": 0.7874015748031497,
          "duration": 0.7058820000000026
        },
        {
          "name": "D3",
          "midi": 50,
          "time": 79.76466599999989,
          "velocity": 0.7874015748031497,
          "duration": 0.7058820000000026
        },
        {
          "name": "D4",
          "midi": 62,
          "time": 80.4705479999999,
          "velocity": 0.7874015748031497,
          "duration": 0.3529410000000013
        },
        {
          "name": "A3",
          "midi": 57,
          "time": 80.4705479999999,
          "velocity": 0.7874015748031497,
          "duration": 0.3529410000000013
        },
        {
          "name": "D3",
          "midi": 50,
          "time": 80.4705479999999,
          "velocity": 0.7874015748031497,
          "duration": 0.3529410000000013
        },
        {
          "name": "E4",
          "midi": 64,
          "time": 80.8234889999999,
          "velocity": 0.7874015748031497,
          "duration": 0.3529410000000013
        },
        {
          "name": "B3",
          "midi": 59,
          "time": 80.8234889999999,
          "velocity": 0.7874015748031497,
          "duration": 0.3529410000000013
        },
        {
          "name": "E3",
          "midi": 52,
          "time": 80.8234889999999,
          "velocity": 0.7874015748031497,
          "duration": 0.3529410000000013
        },
        {
          "name": "E4",
          "midi": 64,
          "time": 81.1764299999999,
          "velocity": 0.7874015748031497,
          "duration": 0.7058820000000026
        },
        {
          "name": "B3",
          "midi": 59,
          "time": 81.1764299999999,
          "velocity": 0.7874015748031497,
          "duration": 0.7058820000000026
        },
        {
          "name": "E3",
          "midi": 52,
          "time": 81.1764299999999,
          "velocity": 0.7874015748031497,
          "duration": 0.7058820000000026
        },
        {
          "name": "G4",
          "midi": 67,
          "time": 81.8823119999999,
          "velocity": 0.7874015748031497,
          "duration": 0.17647049999999354
        },
        {
          "name": "D4",
          "midi": 62,
          "time": 81.8823119999999,
          "velocity": 0.7874015748031497,
          "duration": 0.17647049999999354
        },
        {
          "name": "G3",
          "midi": 55,
          "time": 81.8823119999999,
          "velocity": 0.7874015748031497,
          "duration": 0.17647049999999354
        },
        {
          "name": "F#4",
          "midi": 66,
          "time": 82.0587824999999,
          "velocity": 0.7874015748031497,
          "duration": 0.17647049999999354
        },
        {
          "name": "C#4",
          "midi": 61,
          "time": 82.0587824999999,
          "velocity": 0.7874015748031497,
          "duration": 0.17647049999999354
        },
        {
          "name": "F#3",
          "midi": 54,
          "time": 82.0587824999999,
          "velocity": 0.7874015748031497,
          "duration": 0.17647049999999354
        },
        {
          "name": "G4",
          "midi": 67,
          "time": 82.23525299999989,
          "velocity": 0.7874015748031497,
          "duration": 0.17647049999999354
        },
        {
          "name": "D4",
          "midi": 62,
          "time": 82.23525299999989,
          "velocity": 0.7874015748031497,
          "duration": 0.17647049999999354
        },
        {
          "name": "G3",
          "midi": 55,
          "time": 82.23525299999989,
          "velocity": 0.7874015748031497,
          "duration": 0.17647049999999354
        },
        {
          "name": "F#4",
          "midi": 66,
          "time": 82.41172349999988,
          "velocity": 0.7874015748031497,
          "duration": 0.17647049999999354
        },
        {
          "name": "C#4",
          "midi": 61,
          "time": 82.41172349999988,
          "velocity": 0.7874015748031497,
          "duration": 0.17647049999999354
        },
        {
          "name": "F#3",
          "midi": 54,
          "time": 82.41172349999988,
          "velocity": 0.7874015748031497,
          "duration": 0.17647049999999354
        },
        {
          "name": "G4",
          "midi": 67,
          "time": 82.58819399999987,
          "velocity": 0.7874015748031497,
          "duration": 0.17647049999999354
        },
        {
          "name": "D4",
          "midi": 62,
          "time": 82.58819399999987,
          "velocity": 0.7874015748031497,
          "duration": 0.17647049999999354
        },
        {
          "name": "G3",
          "midi": 55,
          "time": 82.58819399999987,
          "velocity": 0.7874015748031497,
          "duration": 0.17647049999999354
        },
        {
          "name": "F#4",
          "midi": 66,
          "time": 82.76466449999987,
          "velocity": 0.7874015748031497,
          "duration": 0.17647049999999354
        },
        {
          "name": "C#4",
          "midi": 61,
          "time": 82.76466449999987,
          "velocity": 0.7874015748031497,
          "duration": 0.17647049999999354
        },
        {
          "name": "F#3",
          "midi": 54,
          "time": 82.76466449999987,
          "velocity": 0.7874015748031497,
          "duration": 0.17647049999999354
        },
        {
          "name": "D4",
          "midi": 62,
          "time": 82.94113499999986,
          "velocity": 0.7874015748031497,
          "duration": 0.34411747500000445
        },
        {
          "name": "A3",
          "midi": 57,
          "time": 82.94113499999986,
          "velocity": 0.7874015748031497,
          "duration": 0.34411747500000445
        },
        {
          "name": "D3",
          "midi": 50,
          "time": 82.94113499999986,
          "velocity": 0.7874015748031497,
          "duration": 0.34411747500000445
        },
        {
          "name": "D4",
          "midi": 62,
          "time": 83.29407599999986,
          "velocity": 0.7874015748031497,
          "duration": 0.3529410000000013
        },
        {
          "name": "A3",
          "midi": 57,
          "time": 83.29407599999986,
          "velocity": 0.7874015748031497,
          "duration": 0.3529410000000013
        },
        {
          "name": "D3",
          "midi": 50,
          "time": 83.29407599999986,
          "velocity": 0.7874015748031497,
          "duration": 0.3529410000000013
        },
        {
          "name": "E4",
          "midi": 64,
          "time": 83.64701699999986,
          "velocity": 0.7874015748031497,
          "duration": 0.3529410000000013
        },
        {
          "name": "B3",
          "midi": 59,
          "time": 83.64701699999986,
          "velocity": 0.7874015748031497,
          "duration": 0.3529410000000013
        },
        {
          "name": "E3",
          "midi": 52,
          "time": 83.64701699999986,
          "velocity": 0.7874015748031497,
          "duration": 0.3529410000000013
        },
        {
          "name": "E4",
          "midi": 64,
          "time": 83.99995799999986,
          "velocity": 0.7874015748031497,
          "duration": 0.7058820000000026
        },
        {
          "name": "B3",
          "midi": 59,
          "time": 83.99995799999986,
          "velocity": 0.7874015748031497,
          "duration": 0.7058820000000026
        },
        {
          "name": "E3",
          "midi": 52,
          "time": 83.99995799999986,
          "velocity": 0.7874015748031497,
          "duration": 0.7058820000000026
        },
        {
          "name": "B3",
          "midi": 59,
          "time": 84.70583999999987,
          "velocity": 0.7874015748031497,
          "duration": 0.7058820000000026
        },
        {
          "name": "F#3",
          "midi": 54,
          "time": 84.70583999999987,
          "velocity": 0.7874015748031497,
          "duration": 0.7058820000000026
        },
        {
          "name": "B2",
          "midi": 47,
          "time": 84.70583999999987,
          "velocity": 0.7874015748031497,
          "duration": 0.7058820000000026
        },
        {
          "name": "D4",
          "midi": 62,
          "time": 85.41172199999987,
          "velocity": 0.7874015748031497,
          "duration": 0.7058820000000026
        },
        {
          "name": "A3",
          "midi": 57,
          "time": 85.41172199999987,
          "velocity": 0.7874015748031497,
          "duration": 0.7058820000000026
        },
        {
          "name": "D3",
          "midi": 50,
          "time": 85.41172199999987,
          "velocity": 0.7874015748031497,
          "duration": 0.7058820000000026
        },
        {
          "name": "D4",
          "midi": 62,
          "time": 86.11760399999987,
          "velocity": 0.7874015748031497,
          "duration": 0.3529410000000013
        },
        {
          "name": "A3",
          "midi": 57,
          "time": 86.11760399999987,
          "velocity": 0.7874015748031497,
          "duration": 0.3529410000000013
        },
        {
          "name": "D3",
          "midi": 50,
          "time": 86.11760399999987,
          "velocity": 0.7874015748031497,
          "duration": 0.3529410000000013
        },
        {
          "name": "E4",
          "midi": 64,
          "time": 86.47054499999987,
          "velocity": 0.7874015748031497,
          "duration": 0.3529410000000013
        },
        {
          "name": "B3",
          "midi": 59,
          "time": 86.47054499999987,
          "velocity": 0.7874015748031497,
          "duration": 0.3529410000000013
        },
        {
          "name": "E3",
          "midi": 52,
          "time": 86.47054499999987,
          "velocity": 0.7874015748031497,
          "duration": 0.3529410000000013
        },
        {
          "name": "E4",
          "midi": 64,
          "time": 86.82348599999987,
          "velocity": 0.7874015748031497,
          "duration": 0.7058820000000026
        },
        {
          "name": "B3",
          "midi": 59,
          "time": 86.82348599999987,
          "velocity": 0.7874015748031497,
          "duration": 0.7058820000000026
        },
        {
          "name": "E3",
          "midi": 52,
          "time": 86.82348599999987,
          "velocity": 0.7874015748031497,
          "duration": 0.7058820000000026
        },
        {
          "name": "G4",
          "midi": 67,
          "time": 87.52936799999988,
          "velocity": 0.7874015748031497,
          "duration": 0.17647049999999354
        },
        {
          "name": "D4",
          "midi": 62,
          "time": 87.52936799999988,
          "velocity": 0.7874015748031497,
          "duration": 0.17647049999999354
        },
        {
          "name": "G3",
          "midi": 55,
          "time": 87.52936799999988,
          "velocity": 0.7874015748031497,
          "duration": 0.17647049999999354
        },
        {
          "name": "F#4",
          "midi": 66,
          "time": 87.70583849999987,
          "velocity": 0.7874015748031497,
          "duration": 0.17647049999999354
        },
        {
          "name": "C#4",
          "midi": 61,
          "time": 87.70583849999987,
          "velocity": 0.7874015748031497,
          "duration": 0.17647049999999354
        },
        {
          "name": "F#3",
          "midi": 54,
          "time": 87.70583849999987,
          "velocity": 0.7874015748031497,
          "duration": 0.17647049999999354
        },
        {
          "name": "G4",
          "midi": 67,
          "time": 87.88230899999986,
          "velocity": 0.7874015748031497,
          "duration": 0.17647049999999354
        },
        {
          "name": "D4",
          "midi": 62,
          "time": 87.88230899999986,
          "velocity": 0.7874015748031497,
          "duration": 0.17647049999999354
        },
        {
          "name": "G3",
          "midi": 55,
          "time": 87.88230899999986,
          "velocity": 0.7874015748031497,
          "duration": 0.17647049999999354
        },
        {
          "name": "F#4",
          "midi": 66,
          "time": 88.05877949999986,
          "velocity": 0.7874015748031497,
          "duration": 0.17647049999999354
        },
        {
          "name": "C#4",
          "midi": 61,
          "time": 88.05877949999986,
          "velocity": 0.7874015748031497,
          "duration": 0.17647049999999354
        },
        {
          "name": "F#3",
          "midi": 54,
          "time": 88.05877949999986,
          "velocity": 0.7874015748031497,
          "duration": 0.17647049999999354
        },
        {
          "name": "G4",
          "midi": 67,
          "time": 88.23524999999985,
          "velocity": 0.7874015748031497,
          "duration": 0.17647049999999354
        },
        {
          "name": "D4",
          "midi": 62,
          "time": 88.23524999999985,
          "velocity": 0.7874015748031497,
          "duration": 0.17647049999999354
        },
        {
          "name": "G3",
          "midi": 55,
          "time": 88.23524999999985,
          "velocity": 0.7874015748031497,
          "duration": 0.17647049999999354
        },
        {
          "name": "F#4",
          "midi": 66,
          "time": 88.41172049999984,
          "velocity": 0.7874015748031497,
          "duration": 0.17647049999999354
        },
        {
          "name": "C#4",
          "midi": 61,
          "time": 88.41172049999984,
          "velocity": 0.7874015748031497,
          "duration": 0.17647049999999354
        },
        {
          "name": "F#3",
          "midi": 54,
          "time": 88.41172049999984,
          "velocity": 0.7874015748031497,
          "duration": 0.17647049999999354
        },
        {
          "name": "D4",
          "midi": 62,
          "time": 88.58819099999984,
          "velocity": 0.7874015748031497,
          "duration": 0.34411747500000445
        },
        {
          "name": "A3",
          "midi": 57,
          "time": 88.58819099999984,
          "velocity": 0.7874015748031497,
          "duration": 0.34411747500000445
        },
        {
          "name": "D3",
          "midi": 50,
          "time": 88.58819099999984,
          "velocity": 0.7874015748031497,
          "duration": 0.34411747500000445
        },
        {
          "name": "D4",
          "midi": 62,
          "time": 88.94113199999984,
          "velocity": 0.7874015748031497,
          "duration": 0.3529410000000013
        },
        {
          "name": "A3",
          "midi": 57,
          "time": 88.94113199999984,
          "velocity": 0.7874015748031497,
          "duration": 0.3529410000000013
        },
        {
          "name": "D3",
          "midi": 50,
          "time": 88.94113199999984,
          "velocity": 0.7874015748031497,
          "duration": 0.3529410000000013
        },
        {
          "name": "E4",
          "midi": 64,
          "time": 89.29407299999984,
          "velocity": 0.7874015748031497,
          "duration": 0.3529410000000013
        },
        {
          "name": "B3",
          "midi": 59,
          "time": 89.29407299999984,
          "velocity": 0.7874015748031497,
          "duration": 0.3529410000000013
        },
        {
          "name": "E3",
          "midi": 52,
          "time": 89.29407299999984,
          "velocity": 0.7874015748031497,
          "duration": 0.3529410000000013
        },
        {
          "name": "E4",
          "midi": 64,
          "time": 89.64701399999984,
          "velocity": 0.7874015748031497,
          "duration": 0.7058820000000026
        },
        {
          "name": "B3",
          "midi": 59,
          "time": 89.64701399999984,
          "velocity": 0.7874015748031497,
          "duration": 0.7058820000000026
        },
        {
          "name": "E3",
          "midi": 52,
          "time": 89.64701399999984,
          "velocity": 0.7874015748031497,
          "duration": 0.7058820000000026
        },
        {
          "name": "B3",
          "midi": 59,
          "time": 90.35289599999984,
          "velocity": 0.7874015748031497,
          "duration": 0.7058820000000026
        },
        {
          "name": "F#3",
          "midi": 54,
          "time": 90.35289599999984,
          "velocity": 0.7874015748031497,
          "duration": 0.7058820000000026
        },
        {
          "name": "B2",
          "midi": 47,
          "time": 90.35289599999984,
          "velocity": 0.7874015748031497,
          "duration": 0.7058820000000026
        },
        {
          "name": "D4",
          "midi": 62,
          "time": 91.05877799999985,
          "velocity": 0.7874015748031497,
          "duration": 0.7058820000000026
        },
        {
          "name": "A3",
          "midi": 57,
          "time": 91.05877799999985,
          "velocity": 0.7874015748031497,
          "duration": 0.7058820000000026
        },
        {
          "name": "D3",
          "midi": 50,
          "time": 91.05877799999985,
          "velocity": 0.7874015748031497,
          "duration": 0.7058820000000026
        },
        {
          "name": "D4",
          "midi": 62,
          "time": 91.76465999999985,
          "velocity": 0.7874015748031497,
          "duration": 0.3529410000000013
        },
        {
          "name": "A3",
          "midi": 57,
          "time": 91.76465999999985,
          "velocity": 0.7874015748031497,
          "duration": 0.3529410000000013
        },
        {
          "name": "D3",
          "midi": 50,
          "time": 91.76465999999985,
          "velocity": 0.7874015748031497,
          "duration": 0.3529410000000013
        },
        {
          "name": "E4",
          "midi": 64,
          "time": 92.11760099999985,
          "velocity": 0.7874015748031497,
          "duration": 0.3529410000000013
        },
        {
          "name": "B3",
          "midi": 59,
          "time": 92.11760099999985,
          "velocity": 0.7874015748031497,
          "duration": 0.3529410000000013
        },
        {
          "name": "E3",
          "midi": 52,
          "time": 92.11760099999985,
          "velocity": 0.7874015748031497,
          "duration": 0.3529410000000013
        },
        {
          "name": "E4",
          "midi": 64,
          "time": 92.47054199999985,
          "velocity": 0.7874015748031497,
          "duration": 0.7058820000000026
        },
        {
          "name": "B3",
          "midi": 59,
          "time": 92.47054199999985,
          "velocity": 0.7874015748031497,
          "duration": 0.7058820000000026
        },
        {
          "name": "E3",
          "midi": 52,
          "time": 92.47054199999985,
          "velocity": 0.7874015748031497,
          "duration": 0.7058820000000026
        },
        {
          "name": "G4",
          "midi": 67,
          "time": 93.17642399999986,
          "velocity": 0.7874015748031497,
          "duration": 0.17647049999999354
        },
        {
          "name": "D4",
          "midi": 62,
          "time": 93.17642399999986,
          "velocity": 0.7874015748031497,
          "duration": 0.17647049999999354
        },
        {
          "name": "G3",
          "midi": 55,
          "time": 93.17642399999986,
          "velocity": 0.7874015748031497,
          "duration": 0.17647049999999354
        },
        {
          "name": "F#4",
          "midi": 66,
          "time": 93.35289449999985,
          "velocity": 0.7874015748031497,
          "duration": 0.17647049999999354
        },
        {
          "name": "C#4",
          "midi": 61,
          "time": 93.35289449999985,
          "velocity": 0.7874015748031497,
          "duration": 0.17647049999999354
        },
        {
          "name": "F#3",
          "midi": 54,
          "time": 93.35289449999985,
          "velocity": 0.7874015748031497,
          "duration": 0.17647049999999354
        },
        {
          "name": "G4",
          "midi": 67,
          "time": 93.52936499999984,
          "velocity": 0.7874015748031497,
          "duration": 0.17647049999999354
        },
        {
          "name": "D4",
          "midi": 62,
          "time": 93.52936499999984,
          "velocity": 0.7874015748031497,
          "duration": 0.17647049999999354
        },
        {
          "name": "G3",
          "midi": 55,
          "time": 93.52936499999984,
          "velocity": 0.7874015748031497,
          "duration": 0.17647049999999354
        },
        {
          "name": "F#4",
          "midi": 66,
          "time": 93.70583549999984,
          "velocity": 0.7874015748031497,
          "duration": 0.17647049999999354
        },
        {
          "name": "C#4",
          "midi": 61,
          "time": 93.70583549999984,
          "velocity": 0.7874015748031497,
          "duration": 0.17647049999999354
        },
        {
          "name": "F#3",
          "midi": 54,
          "time": 93.70583549999984,
          "velocity": 0.7874015748031497,
          "duration": 0.17647049999999354
        },
        {
          "name": "G4",
          "midi": 67,
          "time": 93.88230599999983,
          "velocity": 0.7874015748031497,
          "duration": 0.17647049999999354
        },
        {
          "name": "D4",
          "midi": 62,
          "time": 93.88230599999983,
          "velocity": 0.7874015748031497,
          "duration": 0.17647049999999354
        },
        {
          "name": "G3",
          "midi": 55,
          "time": 93.88230599999983,
          "velocity": 0.7874015748031497,
          "duration": 0.17647049999999354
        },
        {
          "name": "F#4",
          "midi": 66,
          "time": 94.05877649999982,
          "velocity": 0.7874015748031497,
          "duration": 0.17647049999999354
        },
        {
          "name": "C#4",
          "midi": 61,
          "time": 94.05877649999982,
          "velocity": 0.7874015748031497,
          "duration": 0.17647049999999354
        },
        {
          "name": "F#3",
          "midi": 54,
          "time": 94.05877649999982,
          "velocity": 0.7874015748031497,
          "duration": 0.17647049999999354
        },
        {
          "name": "D4",
          "midi": 62,
          "time": 94.23524699999982,
          "velocity": 0.7874015748031497,
          "duration": 0.34411747500000445
        },
        {
          "name": "A3",
          "midi": 57,
          "time": 94.23524699999982,
          "velocity": 0.7874015748031497,
          "duration": 0.34411747500000445
        },
        {
          "name": "D3",
          "midi": 50,
          "time": 94.23524699999982,
          "velocity": 0.7874015748031497,
          "duration": 0.34411747500000445
        },
        {
          "name": "D4",
          "midi": 62,
          "time": 94.58818799999982,
          "velocity": 0.7874015748031497,
          "duration": 0.3529410000000013
        },
        {
          "name": "A3",
          "midi": 57,
          "time": 94.58818799999982,
          "velocity": 0.7874015748031497,
          "duration": 0.3529410000000013
        },
        {
          "name": "D3",
          "midi": 50,
          "time": 94.58818799999982,
          "velocity": 0.7874015748031497,
          "duration": 0.3529410000000013
        },
        {
          "name": "E4",
          "midi": 64,
          "time": 94.94112899999982,
          "velocity": 0.7874015748031497,
          "duration": 0.3529410000000013
        },
        {
          "name": "B3",
          "midi": 59,
          "time": 94.94112899999982,
          "velocity": 0.7874015748031497,
          "duration": 0.3529410000000013
        },
        {
          "name": "E3",
          "midi": 52,
          "time": 94.94112899999982,
          "velocity": 0.7874015748031497,
          "duration": 0.3529410000000013
        },
        {
          "name": "E4",
          "midi": 64,
          "time": 95.29406999999982,
          "velocity": 0.7874015748031497,
          "duration": 0.7058820000000026
        },
        {
          "name": "B3",
          "midi": 59,
          "time": 95.29406999999982,
          "velocity": 0.7874015748031497,
          "duration": 0.7058820000000026
        },
        {
          "name": "E3",
          "midi": 52,
          "time": 95.29406999999982,
          "velocity": 0.7874015748031497,
          "duration": 0.7058820000000026
        },
        {
          "name": "B3",
          "midi": 59,
          "time": 95.99995199999982,
          "velocity": 0.7874015748031497,
          "duration": 0.7058820000000026
        },
        {
          "name": "F#3",
          "midi": 54,
          "time": 95.99995199999982,
          "velocity": 0.7874015748031497,
          "duration": 0.7058820000000026
        },
        {
          "name": "B2",
          "midi": 47,
          "time": 95.99995199999982,
          "velocity": 0.7874015748031497,
          "duration": 0.7058820000000026
        },
        {
          "name": "D4",
          "midi": 62,
          "time": 96.70583399999983,
          "velocity": 0.7874015748031497,
          "duration": 0.7058820000000026
        },
        {
          "name": "A3",
          "midi": 57,
          "time": 96.70583399999983,
          "velocity": 0.7874015748031497,
          "duration": 0.7058820000000026
        },
        {
          "name": "D3",
          "midi": 50,
          "time": 96.70583399999983,
          "velocity": 0.7874015748031497,
          "duration": 0.7058820000000026
        },
        {
          "name": "D4",
          "midi": 62,
          "time": 97.41171599999983,
          "velocity": 0.7874015748031497,
          "duration": 0.3529410000000013
        },
        {
          "name": "A3",
          "midi": 57,
          "time": 97.41171599999983,
          "velocity": 0.7874015748031497,
          "duration": 0.3529410000000013
        },
        {
          "name": "D3",
          "midi": 50,
          "time": 97.41171599999983,
          "velocity": 0.7874015748031497,
          "duration": 0.3529410000000013
        },
        {
          "name": "E4",
          "midi": 64,
          "time": 97.76465699999983,
          "velocity": 0.7874015748031497,
          "duration": 0.3529410000000013
        },
        {
          "name": "B3",
          "midi": 59,
          "time": 97.76465699999983,
          "velocity": 0.7874015748031497,
          "duration": 0.3529410000000013
        },
        {
          "name": "E3",
          "midi": 52,
          "time": 97.76465699999983,
          "velocity": 0.7874015748031497,
          "duration": 0.3529410000000013
        },
        {
          "name": "E4",
          "midi": 64,
          "time": 98.11759799999983,
          "velocity": 0.7874015748031497,
          "duration": 0.7058820000000026
        },
        {
          "name": "B3",
          "midi": 59,
          "time": 98.11759799999983,
          "velocity": 0.7874015748031497,
          "duration": 0.7058820000000026
        },
        {
          "name": "E3",
          "midi": 52,
          "time": 98.11759799999983,
          "velocity": 0.7874015748031497,
          "duration": 0.7058820000000026
        },
        {
          "name": "G4",
          "midi": 67,
          "time": 98.82347999999983,
          "velocity": 0.7874015748031497,
          "duration": 0.17647049999999354
        },
        {
          "name": "D4",
          "midi": 62,
          "time": 98.82347999999983,
          "velocity": 0.7874015748031497,
          "duration": 0.17647049999999354
        },
        {
          "name": "G3",
          "midi": 55,
          "time": 98.82347999999983,
          "velocity": 0.7874015748031497,
          "duration": 0.17647049999999354
        },
        {
          "name": "F#4",
          "midi": 66,
          "time": 98.99995049999983,
          "velocity": 0.7874015748031497,
          "duration": 0.17647049999999354
        },
        {
          "name": "C#4",
          "midi": 61,
          "time": 98.99995049999983,
          "velocity": 0.7874015748031497,
          "duration": 0.17647049999999354
        },
        {
          "name": "F#3",
          "midi": 54,
          "time": 98.99995049999983,
          "velocity": 0.7874015748031497,
          "duration": 0.17647049999999354
        },
        {
          "name": "G4",
          "midi": 67,
          "time": 99.17642099999982,
          "velocity": 0.7874015748031497,
          "duration": 0.17647049999999354
        },
        {
          "name": "D4",
          "midi": 62,
          "time": 99.17642099999982,
          "velocity": 0.7874015748031497,
          "duration": 0.17647049999999354
        },
        {
          "name": "G3",
          "midi": 55,
          "time": 99.17642099999982,
          "velocity": 0.7874015748031497,
          "duration": 0.17647049999999354
        },
        {
          "name": "F#4",
          "midi": 66,
          "time": 99.35289149999981,
          "velocity": 0.7874015748031497,
          "duration": 0.17647049999999354
        },
        {
          "name": "C#4",
          "midi": 61,
          "time": 99.35289149999981,
          "velocity": 0.7874015748031497,
          "duration": 0.17647049999999354
        },
        {
          "name": "F#3",
          "midi": 54,
          "time": 99.35289149999981,
          "velocity": 0.7874015748031497,
          "duration": 0.17647049999999354
        },
        {
          "name": "G4",
          "midi": 67,
          "time": 99.52936199999981,
          "velocity": 0.7874015748031497,
          "duration": 0.17647049999999354
        },
        {
          "name": "D4",
          "midi": 62,
          "time": 99.52936199999981,
          "velocity": 0.7874015748031497,
          "duration": 0.17647049999999354
        },
        {
          "name": "G3",
          "midi": 55,
          "time": 99.52936199999981,
          "velocity": 0.7874015748031497,
          "duration": 0.17647049999999354
        },
        {
          "name": "F#4",
          "midi": 66,
          "time": 99.7058324999998,
          "velocity": 0.7874015748031497,
          "duration": 0.17647049999999354
        },
        {
          "name": "C#4",
          "midi": 61,
          "time": 99.7058324999998,
          "velocity": 0.7874015748031497,
          "duration": 0.17647049999999354
        },
        {
          "name": "F#3",
          "midi": 54,
          "time": 99.7058324999998,
          "velocity": 0.7874015748031497,
          "duration": 0.17647049999999354
        },
        {
          "name": "D4",
          "midi": 62,
          "time": 99.8823029999998,
          "velocity": 0.7874015748031497,
          "duration": 0.34411747500000445
        },
        {
          "name": "A3",
          "midi": 57,
          "time": 99.8823029999998,
          "velocity": 0.7874015748031497,
          "duration": 0.34411747500000445
        },
        {
          "name": "D3",
          "midi": 50,
          "time": 99.8823029999998,
          "velocity": 0.7874015748031497,
          "duration": 0.34411747500000445
        },
        {
          "name": "D4",
          "midi": 62,
          "time": 100.2352439999998,
          "velocity": 0.7874015748031497,
          "duration": 0.3529410000000013
        },
        {
          "name": "A3",
          "midi": 57,
          "time": 100.2352439999998,
          "velocity": 0.7874015748031497,
          "duration": 0.3529410000000013
        },
        {
          "name": "D3",
          "midi": 50,
          "time": 100.2352439999998,
          "velocity": 0.7874015748031497,
          "duration": 0.3529410000000013
        },
        {
          "name": "E4",
          "midi": 64,
          "time": 100.5881849999998,
          "velocity": 0.7874015748031497,
          "duration": 0.3529410000000013
        },
        {
          "name": "B3",
          "midi": 59,
          "time": 100.5881849999998,
          "velocity": 0.7874015748031497,
          "duration": 0.3529410000000013
        },
        {
          "name": "E3",
          "midi": 52,
          "time": 100.5881849999998,
          "velocity": 0.7874015748031497,
          "duration": 0.3529410000000013
        },
        {
          "name": "E4",
          "midi": 64,
          "time": 100.9411259999998,
          "velocity": 0.7874015748031497,
          "duration": 0.7058820000000026
        },
        {
          "name": "B3",
          "midi": 59,
          "time": 100.9411259999998,
          "velocity": 0.7874015748031497,
          "duration": 0.7058820000000026
        },
        {
          "name": "E3",
          "midi": 52,
          "time": 100.9411259999998,
          "velocity": 0.7874015748031497,
          "duration": 0.7058820000000026
        },
        {
          "name": "E3",
          "midi": 52,
          "time": 101.6470079999998,
          "velocity": 0.7874015748031497,
          "duration": 2.823527999999996
        },
        {
          "name": "B3",
          "midi": 59,
          "time": 101.6470079999998,
          "velocity": 0.7874015748031497,
          "duration": 2.823527999999996
        },
        {
          "name": "E4",
          "midi": 64,
          "time": 101.6470079999998,
          "velocity": 0.7874015748031497,
          "duration": 2.823527999999996
        },
        {
          "name": "D3",
          "midi": 50,
          "time": 104.4705359999998,
          "velocity": 0.7874015748031497,
          "duration": 2.823527999999996
        },
        {
          "name": "D4",
          "midi": 62,
          "time": 104.4705359999998,
          "velocity": 0.7874015748031497,
          "duration": 2.823527999999996
        },
        {
          "name": "A3",
          "midi": 57,
          "time": 104.4705359999998,
          "velocity": 0.7874015748031497,
          "duration": 2.823527999999996
        },
        {
          "name": "F#3",
          "midi": 54,
          "time": 107.29406399999979,
          "velocity": 0.7874015748031497,
          "duration": 0.3529410000000013
        },
        {
          "name": "B3",
          "midi": 59,
          "time": 107.29406399999979,
          "velocity": 0.7874015748031497,
          "duration": 0.3529410000000013
        },
        {
          "name": "B2",
          "midi": 47,
          "time": 107.29406399999979,
          "velocity": 0.7874015748031497,
          "duration": 0.3529410000000013
        },
        {
          "name": "F#3",
          "midi": 54,
          "time": 107.6470049999998,
          "velocity": 0.7874015748031497,
          "duration": 0.3529410000000013
        },
        {
          "name": "B3",
          "midi": 59,
          "time": 107.6470049999998,
          "velocity": 0.7874015748031497,
          "duration": 0.3529410000000013
        },
        {
          "name": "B2",
          "midi": 47,
          "time": 107.6470049999998,
          "velocity": 0.7874015748031497,
          "duration": 0.3529410000000013
        },
        {
          "name": "A3",
          "midi": 57,
          "time": 107.9999459999998,
          "velocity": 0.7874015748031497,
          "duration": 0.17647049999999354
        },
        {
          "name": "D4",
          "midi": 62,
          "time": 107.9999459999998,
          "velocity": 0.7874015748031497,
          "duration": 0.17647049999999354
        },
        {
          "name": "D3",
          "midi": 50,
          "time": 107.9999459999998,
          "velocity": 0.7874015748031497,
          "duration": 0.17647049999999354
        },
        {
          "name": "A#3",
          "midi": 58,
          "time": 108.17641649999979,
          "velocity": 0.7874015748031497,
          "duration": 0.17647049999999354
        },
        {
          "name": "D#4",
          "midi": 63,
          "time": 108.17641649999979,
          "velocity": 0.7874015748031497,
          "duration": 0.17647049999999354
        },
        {
          "name": "D#3",
          "midi": 51,
          "time": 108.17641649999979,
          "velocity": 0.7874015748031497,
          "duration": 0.17647049999999354
        },
        {
          "name": "B3",
          "midi": 59,
          "time": 108.35288699999978,
          "velocity": 0.7874015748031497,
          "duration": 0.3529410000000013
        },
        {
          "name": "E4",
          "midi": 64,
          "time": 108.35288699999978,
          "velocity": 0.7874015748031497,
          "duration": 0.3529410000000013
        },
        {
          "name": "E3",
          "midi": 52,
          "time": 108.35288699999978,
          "velocity": 0.7874015748031497,
          "duration": 0.3529410000000013
        },
        {
          "name": "B3",
          "midi": 59,
          "time": 108.70582799999978,
          "velocity": 0.7874015748031497,
          "duration": 0.17647049999999354
        },
        {
          "name": "E4",
          "midi": 64,
          "time": 108.70582799999978,
          "velocity": 0.7874015748031497,
          "duration": 0.17647049999999354
        },
        {
          "name": "E3",
          "midi": 52,
          "time": 108.70582799999978,
          "velocity": 0.7874015748031497,
          "duration": 0.17647049999999354
        },
        {
          "name": "C4",
          "midi": 60,
          "time": 108.88229849999978,
          "velocity": 0.7874015748031497,
          "duration": 0.17647049999999354
        },
        {
          "name": "F4",
          "midi": 65,
          "time": 108.88229849999978,
          "velocity": 0.7874015748031497,
          "duration": 0.17647049999999354
        },
        {
          "name": "F3",
          "midi": 53,
          "time": 108.88229849999978,
          "velocity": 0.7874015748031497,
          "duration": 0.17647049999999354
        },
        {
          "name": "C#4",
          "midi": 61,
          "time": 109.05876899999977,
          "velocity": 0.7874015748031497,
          "duration": 0.3529410000000013
        },
        {
          "name": "F#4",
          "midi": 66,
          "time": 109.05876899999977,
          "velocity": 0.7874015748031497,
          "duration": 0.3529410000000013
        },
        {
          "name": "F#3",
          "midi": 54,
          "time": 109.05876899999977,
          "velocity": 0.7874015748031497,
          "duration": 0.3529410000000013
        },
        {
          "name": "E4",
          "midi": 64,
          "time": 109.41170999999977,
          "velocity": 0.7874015748031497,
          "duration": 0.17647049999999354
        },
        {
          "name": "A4",
          "midi": 69,
          "time": 109.41170999999977,
          "velocity": 0.7874015748031497,
          "duration": 0.17647049999999354
        },
        {
          "name": "A3",
          "midi": 57,
          "time": 109.41170999999977,
          "velocity": 0.7874015748031497,
          "duration": 0.17647049999999354
        },
        {
          "name": "F4",
          "midi": 65,
          "time": 109.58818049999977,
          "velocity": 0.7874015748031497,
          "duration": 0.17647049999999354
        },
        {
          "name": "A#4",
          "midi": 70,
          "time": 109.58818049999977,
          "velocity": 0.7874015748031497,
          "duration": 0.17647049999999354
        },
        {
          "name": "A#3",
          "midi": 58,
          "time": 109.58818049999977,
          "velocity": 0.7874015748031497,
          "duration": 0.17647049999999354
        },
        {
          "name": "F#4",
          "midi": 66,
          "time": 109.76465099999976,
          "velocity": 0.7874015748031497,
          "duration": 0.3529410000000013
        },
        {
          "name": "B4",
          "midi": 71,
          "time": 109.76465099999976,
          "velocity": 0.7874015748031497,
          "duration": 0.3529410000000013
        },
        {
          "name": "B3",
          "midi": 59,
          "time": 109.76465099999976,
          "velocity": 0.7874015748031497,
          "duration": 0.3529410000000013
        },
        {
          "name": "F#3",
          "midi": 54,
          "time": 110.11759199999976,
          "velocity": 0.7874015748031497,
          "duration": 0.3529410000000013
        },
        {
          "name": "B3",
          "midi": 59,
          "time": 110.11759199999976,
          "velocity": 0.7874015748031497,
          "duration": 0.3529410000000013
        },
        {
          "name": "B2",
          "midi": 47,
          "time": 110.11759199999976,
          "velocity": 0.7874015748031497,
          "duration": 0.3529410000000013
        },
        {
          "name": "F#3",
          "midi": 54,
          "time": 110.47053299999976,
          "velocity": 0.7874015748031497,
          "duration": 0.3529410000000013
        },
        {
          "name": "B3",
          "midi": 59,
          "time": 110.47053299999976,
          "velocity": 0.7874015748031497,
          "duration": 0.3529410000000013
        },
        {
          "name": "B2",
          "midi": 47,
          "time": 110.47053299999976,
          "velocity": 0.7874015748031497,
          "duration": 0.3529410000000013
        },
        {
          "name": "A3",
          "midi": 57,
          "time": 110.82347399999976,
          "velocity": 0.7874015748031497,
          "duration": 0.17647049999999354
        },
        {
          "name": "D4",
          "midi": 62,
          "time": 110.82347399999976,
          "velocity": 0.7874015748031497,
          "duration": 0.17647049999999354
        },
        {
          "name": "D3",
          "midi": 50,
          "time": 110.82347399999976,
          "velocity": 0.7874015748031497,
          "duration": 0.17647049999999354
        },
        {
          "name": "A#3",
          "midi": 58,
          "time": 110.99994449999976,
          "velocity": 0.7874015748031497,
          "duration": 0.17647049999999354
        },
        {
          "name": "D#4",
          "midi": 63,
          "time": 110.99994449999976,
          "velocity": 0.7874015748031497,
          "duration": 0.17647049999999354
        },
        {
          "name": "D#3",
          "midi": 51,
          "time": 110.99994449999976,
          "velocity": 0.7874015748031497,
          "duration": 0.17647049999999354
        },
        {
          "name": "B3",
          "midi": 59,
          "time": 111.17641499999975,
          "velocity": 0.7874015748031497,
          "duration": 0.3529410000000013
        },
        {
          "name": "E4",
          "midi": 64,
          "time": 111.17641499999975,
          "velocity": 0.7874015748031497,
          "duration": 0.3529410000000013
        },
        {
          "name": "E3",
          "midi": 52,
          "time": 111.17641499999975,
          "velocity": 0.7874015748031497,
          "duration": 0.3529410000000013
        },
        {
          "name": "B3",
          "midi": 59,
          "time": 111.52935599999975,
          "velocity": 0.7874015748031497,
          "duration": 0.17647049999999354
        },
        {
          "name": "E4",
          "midi": 64,
          "time": 111.52935599999975,
          "velocity": 0.7874015748031497,
          "duration": 0.17647049999999354
        },
        {
          "name": "E3",
          "midi": 52,
          "time": 111.52935599999975,
          "velocity": 0.7874015748031497,
          "duration": 0.17647049999999354
        },
        {
          "name": "C4",
          "midi": 60,
          "time": 111.70582649999974,
          "velocity": 0.7874015748031497,
          "duration": 0.17647049999999354
        },
        {
          "name": "F4",
          "midi": 65,
          "time": 111.70582649999974,
          "velocity": 0.7874015748031497,
          "duration": 0.17647049999999354
        },
        {
          "name": "F3",
          "midi": 53,
          "time": 111.70582649999974,
          "velocity": 0.7874015748031497,
          "duration": 0.17647049999999354
        },
        {
          "name": "C#4",
          "midi": 61,
          "time": 111.88229699999974,
          "velocity": 0.7874015748031497,
          "duration": 0.3529410000000013
        },
        {
          "name": "F#4",
          "midi": 66,
          "time": 111.88229699999974,
          "velocity": 0.7874015748031497,
          "duration": 0.3529410000000013
        },
        {
          "name": "F#3",
          "midi": 54,
          "time": 111.88229699999974,
          "velocity": 0.7874015748031497,
          "duration": 0.3529410000000013
        },
        {
          "name": "E4",
          "midi": 64,
          "time": 112.23523799999974,
          "velocity": 0.7874015748031497,
          "duration": 0.17647049999999354
        },
        {
          "name": "A4",
          "midi": 69,
          "time": 112.23523799999974,
          "velocity": 0.7874015748031497,
          "duration": 0.17647049999999354
        },
        {
          "name": "A3",
          "midi": 57,
          "time": 112.23523799999974,
          "velocity": 0.7874015748031497,
          "duration": 0.17647049999999354
        },
        {
          "name": "F4",
          "midi": 65,
          "time": 112.41170849999973,
          "velocity": 0.7874015748031497,
          "duration": 0.17647049999999354
        },
        {
          "name": "A#4",
          "midi": 70,
          "time": 112.41170849999973,
          "velocity": 0.7874015748031497,
          "duration": 0.17647049999999354
        },
        {
          "name": "A#3",
          "midi": 58,
          "time": 112.41170849999973,
          "velocity": 0.7874015748031497,
          "duration": 0.17647049999999354
        },
        {
          "name": "F#4",
          "midi": 66,
          "time": 112.58817899999973,
          "velocity": 0.7874015748031497,
          "duration": 0.3529410000000013
        },
        {
          "name": "B4",
          "midi": 71,
          "time": 112.58817899999973,
          "velocity": 0.7874015748031497,
          "duration": 0.3529410000000013
        },
        {
          "name": "B3",
          "midi": 59,
          "time": 112.58817899999973,
          "velocity": 0.7874015748031497,
          "duration": 0.3529410000000013
        },
        {
          "name": "E3",
          "midi": 52,
          "time": 112.94111999999973,
          "velocity": 0.7874015748031497,
          "duration": 2.823527999999996
        },
        {
          "name": "B3",
          "midi": 59,
          "time": 112.94111999999973,
          "velocity": 0.7874015748031497,
          "duration": 2.823527999999996
        },
        {
          "name": "E4",
          "midi": 64,
          "time": 112.94111999999973,
          "velocity": 0.7874015748031497,
          "duration": 2.823527999999996
        },
        {
          "name": "D3",
          "midi": 50,
          "time": 115.76464799999972,
          "velocity": 0.7874015748031497,
          "duration": 2.823527999999996
        },
        {
          "name": "D4",
          "midi": 62,
          "time": 115.76464799999972,
          "velocity": 0.7874015748031497,
          "duration": 2.823527999999996
        },
        {
          "name": "A3",
          "midi": 57,
          "time": 115.76464799999972,
          "velocity": 0.7874015748031497,
          "duration": 2.823527999999996
        },
        {
          "name": "F#3",
          "midi": 54,
          "time": 118.58817599999972,
          "velocity": 0.7874015748031497,
          "duration": 0.3529410000000013
        },
        {
          "name": "B3",
          "midi": 59,
          "time": 118.58817599999972,
          "velocity": 0.7874015748031497,
          "duration": 0.3529410000000013
        },
        {
          "name": "B2",
          "midi": 47,
          "time": 118.58817599999972,
          "velocity": 0.7874015748031497,
          "duration": 0.3529410000000013
        },
        {
          "name": "F#3",
          "midi": 54,
          "time": 118.94111699999972,
          "velocity": 0.7874015748031497,
          "duration": 0.3529410000000013
        },
        {
          "name": "B3",
          "midi": 59,
          "time": 118.94111699999972,
          "velocity": 0.7874015748031497,
          "duration": 0.3529410000000013
        },
        {
          "name": "B2",
          "midi": 47,
          "time": 118.94111699999972,
          "velocity": 0.7874015748031497,
          "duration": 0.3529410000000013
        },
        {
          "name": "A3",
          "midi": 57,
          "time": 119.29405799999972,
          "velocity": 0.7874015748031497,
          "duration": 0.17647049999999354
        },
        {
          "name": "D4",
          "midi": 62,
          "time": 119.29405799999972,
          "velocity": 0.7874015748031497,
          "duration": 0.17647049999999354
        },
        {
          "name": "D3",
          "midi": 50,
          "time": 119.29405799999972,
          "velocity": 0.7874015748031497,
          "duration": 0.17647049999999354
        },
        {
          "name": "A#3",
          "midi": 58,
          "time": 119.47052849999972,
          "velocity": 0.7874015748031497,
          "duration": 0.17647049999999354
        },
        {
          "name": "D#4",
          "midi": 63,
          "time": 119.47052849999972,
          "velocity": 0.7874015748031497,
          "duration": 0.17647049999999354
        },
        {
          "name": "D#3",
          "midi": 51,
          "time": 119.47052849999972,
          "velocity": 0.7874015748031497,
          "duration": 0.17647049999999354
        },
        {
          "name": "B3",
          "midi": 59,
          "time": 119.64699899999971,
          "velocity": 0.7874015748031497,
          "duration": 0.3529410000000013
        },
        {
          "name": "E4",
          "midi": 64,
          "time": 119.64699899999971,
          "velocity": 0.7874015748031497,
          "duration": 0.3529410000000013
        },
        {
          "name": "E3",
          "midi": 52,
          "time": 119.64699899999971,
          "velocity": 0.7874015748031497,
          "duration": 0.3529410000000013
        },
        {
          "name": "B3",
          "midi": 59,
          "time": 119.99993999999971,
          "velocity": 0.7874015748031497,
          "duration": 0.17647049999999354
        },
        {
          "name": "E4",
          "midi": 64,
          "time": 119.99993999999971,
          "velocity": 0.7874015748031497,
          "duration": 0.17647049999999354
        },
        {
          "name": "E3",
          "midi": 52,
          "time": 119.99993999999971,
          "velocity": 0.7874015748031497,
          "duration": 0.17647049999999354
        },
        {
          "name": "C4",
          "midi": 60,
          "time": 120.1764104999997,
          "velocity": 0.7874015748031497,
          "duration": 0.17647049999999354
        },
        {
          "name": "F4",
          "midi": 65,
          "time": 120.1764104999997,
          "velocity": 0.7874015748031497,
          "duration": 0.17647049999999354
        },
        {
          "name": "F3",
          "midi": 53,
          "time": 120.1764104999997,
          "velocity": 0.7874015748031497,
          "duration": 0.17647049999999354
        },
        {
          "name": "C#4",
          "midi": 61,
          "time": 120.3528809999997,
          "velocity": 0.7874015748031497,
          "duration": 0.3529410000000013
        },
        {
          "name": "F#4",
          "midi": 66,
          "time": 120.3528809999997,
          "velocity": 0.7874015748031497,
          "duration": 0.3529410000000013
        },
        {
          "name": "F#3",
          "midi": 54,
          "time": 120.3528809999997,
          "velocity": 0.7874015748031497,
          "duration": 0.3529410000000013
        },
        {
          "name": "E4",
          "midi": 64,
          "time": 120.7058219999997,
          "velocity": 0.7874015748031497,
          "duration": 0.17647049999999354
        },
        {
          "name": "A4",
          "midi": 69,
          "time": 120.7058219999997,
          "velocity": 0.7874015748031497,
          "duration": 0.17647049999999354
        },
        {
          "name": "A3",
          "midi": 57,
          "time": 120.7058219999997,
          "velocity": 0.7874015748031497,
          "duration": 0.17647049999999354
        },
        {
          "name": "F4",
          "midi": 65,
          "time": 120.88229249999969,
          "velocity": 0.7874015748031497,
          "duration": 0.17647049999999354
        },
        {
          "name": "A#4",
          "midi": 70,
          "time": 120.88229249999969,
          "velocity": 0.7874015748031497,
          "duration": 0.17647049999999354
        },
        {
          "name": "A#3",
          "midi": 58,
          "time": 120.88229249999969,
          "velocity": 0.7874015748031497,
          "duration": 0.17647049999999354
        },
        {
          "name": "F#4",
          "midi": 66,
          "time": 121.05876299999969,
          "velocity": 0.7874015748031497,
          "duration": 0.3529410000000013
        },
        {
          "name": "B4",
          "midi": 71,
          "time": 121.05876299999969,
          "velocity": 0.7874015748031497,
          "duration": 0.3529410000000013
        },
        {
          "name": "B3",
          "midi": 59,
          "time": 121.05876299999969,
          "velocity": 0.7874015748031497,
          "duration": 0.3529410000000013
        },
        {
          "name": "F#3",
          "midi": 54,
          "time": 121.41170399999969,
          "velocity": 0.7874015748031497,
          "duration": 0.3529410000000013
        },
        {
          "name": "B3",
          "midi": 59,
          "time": 121.41170399999969,
          "velocity": 0.7874015748031497,
          "duration": 0.3529410000000013
        },
        {
          "name": "B2",
          "midi": 47,
          "time": 121.41170399999969,
          "velocity": 0.7874015748031497,
          "duration": 0.3529410000000013
        },
        {
          "name": "F#3",
          "midi": 54,
          "time": 121.76464499999969,
          "velocity": 0.7874015748031497,
          "duration": 0.3529410000000013
        },
        {
          "name": "B3",
          "midi": 59,
          "time": 121.76464499999969,
          "velocity": 0.7874015748031497,
          "duration": 0.3529410000000013
        },
        {
          "name": "B2",
          "midi": 47,
          "time": 121.76464499999969,
          "velocity": 0.7874015748031497,
          "duration": 0.3529410000000013
        },
        {
          "name": "A3",
          "midi": 57,
          "time": 122.11758599999969,
          "velocity": 0.7874015748031497,
          "duration": 0.17647049999999354
        },
        {
          "name": "D4",
          "midi": 62,
          "time": 122.11758599999969,
          "velocity": 0.7874015748031497,
          "duration": 0.17647049999999354
        },
        {
          "name": "D3",
          "midi": 50,
          "time": 122.11758599999969,
          "velocity": 0.7874015748031497,
          "duration": 0.17647049999999354
        },
        {
          "name": "A#3",
          "midi": 58,
          "time": 122.29405649999968,
          "velocity": 0.7874015748031497,
          "duration": 0.17647049999999354
        },
        {
          "name": "D#4",
          "midi": 63,
          "time": 122.29405649999968,
          "velocity": 0.7874015748031497,
          "duration": 0.17647049999999354
        },
        {
          "name": "D#3",
          "midi": 51,
          "time": 122.29405649999968,
          "velocity": 0.7874015748031497,
          "duration": 0.17647049999999354
        },
        {
          "name": "B3",
          "midi": 59,
          "time": 122.47052699999968,
          "velocity": 0.7874015748031497,
          "duration": 0.3529410000000013
        },
        {
          "name": "E4",
          "midi": 64,
          "time": 122.47052699999968,
          "velocity": 0.7874015748031497,
          "duration": 0.3529410000000013
        },
        {
          "name": "E3",
          "midi": 52,
          "time": 122.47052699999968,
          "velocity": 0.7874015748031497,
          "duration": 0.3529410000000013
        },
        {
          "name": "B3",
          "midi": 59,
          "time": 122.82346799999968,
          "velocity": 0.7874015748031497,
          "duration": 0.17647049999999354
        },
        {
          "name": "E4",
          "midi": 64,
          "time": 122.82346799999968,
          "velocity": 0.7874015748031497,
          "duration": 0.17647049999999354
        },
        {
          "name": "E3",
          "midi": 52,
          "time": 122.82346799999968,
          "velocity": 0.7874015748031497,
          "duration": 0.17647049999999354
        },
        {
          "name": "C4",
          "midi": 60,
          "time": 122.99993849999967,
          "velocity": 0.7874015748031497,
          "duration": 0.17647049999999354
        },
        {
          "name": "F4",
          "midi": 65,
          "time": 122.99993849999967,
          "velocity": 0.7874015748031497,
          "duration": 0.17647049999999354
        },
        {
          "name": "F3",
          "midi": 53,
          "time": 122.99993849999967,
          "velocity": 0.7874015748031497,
          "duration": 0.17647049999999354
        },
        {
          "name": "C#4",
          "midi": 61,
          "time": 123.17640899999967,
          "velocity": 0.7874015748031497,
          "duration": 0.3529410000000013
        },
        {
          "name": "F#4",
          "midi": 66,
          "time": 123.17640899999967,
          "velocity": 0.7874015748031497,
          "duration": 0.3529410000000013
        },
        {
          "name": "F#3",
          "midi": 54,
          "time": 123.17640899999967,
          "velocity": 0.7874015748031497,
          "duration": 0.3529410000000013
        },
        {
          "name": "E4",
          "midi": 64,
          "time": 123.52934999999967,
          "velocity": 0.7874015748031497,
          "duration": 0.17647049999999354
        },
        {
          "name": "A4",
          "midi": 69,
          "time": 123.52934999999967,
          "velocity": 0.7874015748031497,
          "duration": 0.17647049999999354
        },
        {
          "name": "A3",
          "midi": 57,
          "time": 123.52934999999967,
          "velocity": 0.7874015748031497,
          "duration": 0.17647049999999354
        },
        {
          "name": "F4",
          "midi": 65,
          "time": 123.70582049999966,
          "velocity": 0.7874015748031497,
          "duration": 0.17647049999999354
        },
        {
          "name": "A#4",
          "midi": 70,
          "time": 123.70582049999966,
          "velocity": 0.7874015748031497,
          "duration": 0.17647049999999354
        },
        {
          "name": "A#3",
          "midi": 58,
          "time": 123.70582049999966,
          "velocity": 0.7874015748031497,
          "duration": 0.17647049999999354
        },
        {
          "name": "F#4",
          "midi": 66,
          "time": 123.88229099999965,
          "velocity": 0.7874015748031497,
          "duration": 0.3529410000000013
        },
        {
          "name": "B4",
          "midi": 71,
          "time": 123.88229099999965,
          "velocity": 0.7874015748031497,
          "duration": 0.3529410000000013
        },
        {
          "name": "B3",
          "midi": 59,
          "time": 123.88229099999965,
          "velocity": 0.7874015748031497,
          "duration": 0.3529410000000013
        },
        {
          "name": "B3",
          "midi": 59,
          "time": 124.23523199999966,
          "velocity": 0.7874015748031497,
          "duration": 0.7058820000000026
        },
        {
          "name": "F#3",
          "midi": 54,
          "time": 124.23523199999966,
          "velocity": 0.7874015748031497,
          "duration": 0.7058820000000026
        },
        {
          "name": "B2",
          "midi": 47,
          "time": 124.23523199999966,
          "velocity": 0.7874015748031497,
          "duration": 0.7058820000000026
        },
        {
          "name": "D4",
          "midi": 62,
          "time": 124.94111399999966,
          "velocity": 0.7874015748031497,
          "duration": 0.7058820000000026
        },
        {
          "name": "A3",
          "midi": 57,
          "time": 124.94111399999966,
          "velocity": 0.7874015748031497,
          "duration": 0.7058820000000026
        },
        {
          "name": "D3",
          "midi": 50,
          "time": 124.94111399999966,
          "velocity": 0.7874015748031497,
          "duration": 0.7058820000000026
        },
        {
          "name": "D4",
          "midi": 62,
          "time": 125.64699599999966,
          "velocity": 0.7874015748031497,
          "duration": 0.3529410000000013
        },
        {
          "name": "A3",
          "midi": 57,
          "time": 125.64699599999966,
          "velocity": 0.7874015748031497,
          "duration": 0.3529410000000013
        },
        {
          "name": "D3",
          "midi": 50,
          "time": 125.64699599999966,
          "velocity": 0.7874015748031497,
          "duration": 0.3529410000000013
        },
        {
          "name": "E4",
          "midi": 64,
          "time": 125.99993699999966,
          "velocity": 0.7874015748031497,
          "duration": 0.3529410000000013
        },
        {
          "name": "B3",
          "midi": 59,
          "time": 125.99993699999966,
          "velocity": 0.7874015748031497,
          "duration": 0.3529410000000013
        },
        {
          "name": "E3",
          "midi": 52,
          "time": 125.99993699999966,
          "velocity": 0.7874015748031497,
          "duration": 0.3529410000000013
        },
        {
          "name": "E4",
          "midi": 64,
          "time": 126.35287799999966,
          "velocity": 0.7874015748031497,
          "duration": 0.7058820000000026
        },
        {
          "name": "B3",
          "midi": 59,
          "time": 126.35287799999966,
          "velocity": 0.7874015748031497,
          "duration": 0.7058820000000026
        },
        {
          "name": "E3",
          "midi": 52,
          "time": 126.35287799999966,
          "velocity": 0.7874015748031497,
          "duration": 0.7058820000000026
        },
        {
          "name": "G4",
          "midi": 67,
          "time": 127.05875999999967,
          "velocity": 0.7874015748031497,
          "duration": 0.17647049999999354
        },
        {
          "name": "D4",
          "midi": 62,
          "time": 127.05875999999967,
          "velocity": 0.7874015748031497,
          "duration": 0.17647049999999354
        },
        {
          "name": "G3",
          "midi": 55,
          "time": 127.05875999999967,
          "velocity": 0.7874015748031497,
          "duration": 0.17647049999999354
        },
        {
          "name": "F#4",
          "midi": 66,
          "time": 127.23523049999966,
          "velocity": 0.7874015748031497,
          "duration": 0.17647049999999354
        },
        {
          "name": "C#4",
          "midi": 61,
          "time": 127.23523049999966,
          "velocity": 0.7874015748031497,
          "duration": 0.17647049999999354
        },
        {
          "name": "F#3",
          "midi": 54,
          "time": 127.23523049999966,
          "velocity": 0.7874015748031497,
          "duration": 0.17647049999999354
        },
        {
          "name": "G4",
          "midi": 67,
          "time": 127.41170099999965,
          "velocity": 0.7874015748031497,
          "duration": 0.17647049999999354
        },
        {
          "name": "D4",
          "midi": 62,
          "time": 127.41170099999965,
          "velocity": 0.7874015748031497,
          "duration": 0.17647049999999354
        },
        {
          "name": "G3",
          "midi": 55,
          "time": 127.41170099999965,
          "velocity": 0.7874015748031497,
          "duration": 0.17647049999999354
        },
        {
          "name": "F#4",
          "midi": 66,
          "time": 127.58817149999965,
          "velocity": 0.7874015748031497,
          "duration": 0.17647049999999354
        },
        {
          "name": "C#4",
          "midi": 61,
          "time": 127.58817149999965,
          "velocity": 0.7874015748031497,
          "duration": 0.17647049999999354
        },
        {
          "name": "F#3",
          "midi": 54,
          "time": 127.58817149999965,
          "velocity": 0.7874015748031497,
          "duration": 0.17647049999999354
        },
        {
          "name": "G4",
          "midi": 67,
          "time": 127.76464199999964,
          "velocity": 0.7874015748031497,
          "duration": 0.17647049999999354
        },
        {
          "name": "D4",
          "midi": 62,
          "time": 127.76464199999964,
          "velocity": 0.7874015748031497,
          "duration": 0.17647049999999354
        },
        {
          "name": "G3",
          "midi": 55,
          "time": 127.76464199999964,
          "velocity": 0.7874015748031497,
          "duration": 0.17647049999999354
        },
        {
          "name": "F#4",
          "midi": 66,
          "time": 127.94111249999963,
          "velocity": 0.7874015748031497,
          "duration": 0.17647049999999354
        },
        {
          "name": "C#4",
          "midi": 61,
          "time": 127.94111249999963,
          "velocity": 0.7874015748031497,
          "duration": 0.17647049999999354
        },
        {
          "name": "F#3",
          "midi": 54,
          "time": 127.94111249999963,
          "velocity": 0.7874015748031497,
          "duration": 0.17647049999999354
        },
        {
          "name": "D4",
          "midi": 62,
          "time": 128.11758299999963,
          "velocity": 0.7874015748031497,
          "duration": 0.34411747499999024
        },
        {
          "name": "A3",
          "midi": 57,
          "time": 128.11758299999963,
          "velocity": 0.7874015748031497,
          "duration": 0.34411747499999024
        },
        {
          "name": "D3",
          "midi": 50,
          "time": 128.11758299999963,
          "velocity": 0.7874015748031497,
          "duration": 0.34411747499999024
        },
        {
          "name": "D4",
          "midi": 62,
          "time": 128.4705239999996,
          "velocity": 0.7874015748031497,
          "duration": 0.35294099999998707
        },
        {
          "name": "A3",
          "midi": 57,
          "time": 128.4705239999996,
          "velocity": 0.7874015748031497,
          "duration": 0.35294099999998707
        },
        {
          "name": "D3",
          "midi": 50,
          "time": 128.4705239999996,
          "velocity": 0.7874015748031497,
          "duration": 0.35294099999998707
        },
        {
          "name": "E4",
          "midi": 64,
          "time": 128.8234649999996,
          "velocity": 0.7874015748031497,
          "duration": 0.35294099999998707
        },
        {
          "name": "B3",
          "midi": 59,
          "time": 128.8234649999996,
          "velocity": 0.7874015748031497,
          "duration": 0.35294099999998707
        },
        {
          "name": "E3",
          "midi": 52,
          "time": 128.8234649999996,
          "velocity": 0.7874015748031497,
          "duration": 0.35294099999998707
        },
        {
          "name": "E4",
          "midi": 64,
          "time": 129.1764059999996,
          "velocity": 0.7874015748031497,
          "duration": 0.7058820000000026
        },
        {
          "name": "B3",
          "midi": 59,
          "time": 129.1764059999996,
          "velocity": 0.7874015748031497,
          "duration": 0.7058820000000026
        },
        {
          "name": "E3",
          "midi": 52,
          "time": 129.1764059999996,
          "velocity": 0.7874015748031497,
          "duration": 0.7058820000000026
        },
        {
          "name": "B3",
          "midi": 59,
          "time": 129.8822879999996,
          "velocity": 0.7874015748031497,
          "duration": 0.7058820000000026
        },
        {
          "name": "F#3",
          "midi": 54,
          "time": 129.8822879999996,
          "velocity": 0.7874015748031497,
          "duration": 0.7058820000000026
        },
        {
          "name": "B2",
          "midi": 47,
          "time": 129.8822879999996,
          "velocity": 0.7874015748031497,
          "duration": 0.7058820000000026
        },
        {
          "name": "D4",
          "midi": 62,
          "time": 130.5881699999996,
          "velocity": 0.7874015748031497,
          "duration": 0.7058820000000026
        },
        {
          "name": "A3",
          "midi": 57,
          "time": 130.5881699999996,
          "velocity": 0.7874015748031497,
          "duration": 0.7058820000000026
        },
        {
          "name": "D3",
          "midi": 50,
          "time": 130.5881699999996,
          "velocity": 0.7874015748031497,
          "duration": 0.7058820000000026
        },
        {
          "name": "D4",
          "midi": 62,
          "time": 131.2940519999996,
          "velocity": 0.7874015748031497,
          "duration": 0.35294099999998707
        },
        {
          "name": "A3",
          "midi": 57,
          "time": 131.2940519999996,
          "velocity": 0.7874015748031497,
          "duration": 0.35294099999998707
        },
        {
          "name": "D3",
          "midi": 50,
          "time": 131.2940519999996,
          "velocity": 0.7874015748031497,
          "duration": 0.35294099999998707
        },
        {
          "name": "E4",
          "midi": 64,
          "time": 131.64699299999958,
          "velocity": 0.7874015748031497,
          "duration": 0.35294099999998707
        },
        {
          "name": "B3",
          "midi": 59,
          "time": 131.64699299999958,
          "velocity": 0.7874015748031497,
          "duration": 0.35294099999998707
        },
        {
          "name": "E3",
          "midi": 52,
          "time": 131.64699299999958,
          "velocity": 0.7874015748031497,
          "duration": 0.35294099999998707
        },
        {
          "name": "E4",
          "midi": 64,
          "time": 131.99993399999957,
          "velocity": 0.7874015748031497,
          "duration": 0.7058820000000026
        },
        {
          "name": "B3",
          "midi": 59,
          "time": 131.99993399999957,
          "velocity": 0.7874015748031497,
          "duration": 0.7058820000000026
        },
        {
          "name": "E3",
          "midi": 52,
          "time": 131.99993399999957,
          "velocity": 0.7874015748031497,
          "duration": 0.7058820000000026
        },
        {
          "name": "G4",
          "midi": 67,
          "time": 132.70581599999957,
          "velocity": 0.7874015748031497,
          "duration": 0.17647049999999354
        },
        {
          "name": "D4",
          "midi": 62,
          "time": 132.70581599999957,
          "velocity": 0.7874015748031497,
          "duration": 0.17647049999999354
        },
        {
          "name": "G3",
          "midi": 55,
          "time": 132.70581599999957,
          "velocity": 0.7874015748031497,
          "duration": 0.17647049999999354
        },
        {
          "name": "F#4",
          "midi": 66,
          "time": 132.88228649999957,
          "velocity": 0.7874015748031497,
          "duration": 0.17647049999999354
        },
        {
          "name": "C#4",
          "midi": 61,
          "time": 132.88228649999957,
          "velocity": 0.7874015748031497,
          "duration": 0.17647049999999354
        },
        {
          "name": "F#3",
          "midi": 54,
          "time": 132.88228649999957,
          "velocity": 0.7874015748031497,
          "duration": 0.17647049999999354
        },
        {
          "name": "G4",
          "midi": 67,
          "time": 133.05875699999956,
          "velocity": 0.7874015748031497,
          "duration": 0.17647049999999354
        },
        {
          "name": "D4",
          "midi": 62,
          "time": 133.05875699999956,
          "velocity": 0.7874015748031497,
          "duration": 0.17647049999999354
        },
        {
          "name": "G3",
          "midi": 55,
          "time": 133.05875699999956,
          "velocity": 0.7874015748031497,
          "duration": 0.17647049999999354
        },
        {
          "name": "F#4",
          "midi": 66,
          "time": 133.23522749999955,
          "velocity": 0.7874015748031497,
          "duration": 0.17647049999999354
        },
        {
          "name": "C#4",
          "midi": 61,
          "time": 133.23522749999955,
          "velocity": 0.7874015748031497,
          "duration": 0.17647049999999354
        },
        {
          "name": "F#3",
          "midi": 54,
          "time": 133.23522749999955,
          "velocity": 0.7874015748031497,
          "duration": 0.17647049999999354
        },
        {
          "name": "G4",
          "midi": 67,
          "time": 133.41169799999955,
          "velocity": 0.7874015748031497,
          "duration": 0.17647049999999354
        },
        {
          "name": "D4",
          "midi": 62,
          "time": 133.41169799999955,
          "velocity": 0.7874015748031497,
          "duration": 0.17647049999999354
        },
        {
          "name": "G3",
          "midi": 55,
          "time": 133.41169799999955,
          "velocity": 0.7874015748031497,
          "duration": 0.17647049999999354
        },
        {
          "name": "F#4",
          "midi": 66,
          "time": 133.58816849999954,
          "velocity": 0.7874015748031497,
          "duration": 0.17647049999999354
        },
        {
          "name": "C#4",
          "midi": 61,
          "time": 133.58816849999954,
          "velocity": 0.7874015748031497,
          "duration": 0.17647049999999354
        },
        {
          "name": "F#3",
          "midi": 54,
          "time": 133.58816849999954,
          "velocity": 0.7874015748031497,
          "duration": 0.17647049999999354
        },
        {
          "name": "D4",
          "midi": 62,
          "time": 133.76463899999953,
          "velocity": 0.7874015748031497,
          "duration": 0.34411747499999024
        },
        {
          "name": "A3",
          "midi": 57,
          "time": 133.76463899999953,
          "velocity": 0.7874015748031497,
          "duration": 0.34411747499999024
        },
        {
          "name": "D3",
          "midi": 50,
          "time": 133.76463899999953,
          "velocity": 0.7874015748031497,
          "duration": 0.34411747499999024
        },
        {
          "name": "D4",
          "midi": 62,
          "time": 134.11757999999952,
          "velocity": 0.7874015748031497,
          "duration": 0.35294099999998707
        },
        {
          "name": "A3",
          "midi": 57,
          "time": 134.11757999999952,
          "velocity": 0.7874015748031497,
          "duration": 0.35294099999998707
        },
        {
          "name": "D3",
          "midi": 50,
          "time": 134.11757999999952,
          "velocity": 0.7874015748031497,
          "duration": 0.35294099999998707
        },
        {
          "name": "E4",
          "midi": 64,
          "time": 134.4705209999995,
          "velocity": 0.7874015748031497,
          "duration": 0.35294099999998707
        },
        {
          "name": "B3",
          "midi": 59,
          "time": 134.4705209999995,
          "velocity": 0.7874015748031497,
          "duration": 0.35294099999998707
        },
        {
          "name": "E3",
          "midi": 52,
          "time": 134.4705209999995,
          "velocity": 0.7874015748031497,
          "duration": 0.35294099999998707
        },
        {
          "name": "E4",
          "midi": 64,
          "time": 134.8234619999995,
          "velocity": 0.7874015748031497,
          "duration": 0.7058820000000026
        },
        {
          "name": "B3",
          "midi": 59,
          "time": 134.8234619999995,
          "velocity": 0.7874015748031497,
          "duration": 0.7058820000000026
        },
        {
          "name": "E3",
          "midi": 52,
          "time": 134.8234619999995,
          "velocity": 0.7874015748031497,
          "duration": 0.7058820000000026
        },
        {
          "name": "B3",
          "midi": 59,
          "time": 135.5293439999995,
          "velocity": 0.7874015748031497,
          "duration": 0.7058820000000026
        },
        {
          "name": "F#3",
          "midi": 54,
          "time": 135.5293439999995,
          "velocity": 0.7874015748031497,
          "duration": 0.7058820000000026
        },
        {
          "name": "B2",
          "midi": 47,
          "time": 135.5293439999995,
          "velocity": 0.7874015748031497,
          "duration": 0.7058820000000026
        },
        {
          "name": "D4",
          "midi": 62,
          "time": 136.2352259999995,
          "velocity": 0.7874015748031497,
          "duration": 0.7058820000000026
        },
        {
          "name": "A3",
          "midi": 57,
          "time": 136.2352259999995,
          "velocity": 0.7874015748031497,
          "duration": 0.7058820000000026
        },
        {
          "name": "D3",
          "midi": 50,
          "time": 136.2352259999995,
          "velocity": 0.7874015748031497,
          "duration": 0.7058820000000026
        },
        {
          "name": "D4",
          "midi": 62,
          "time": 136.9411079999995,
          "velocity": 0.7874015748031497,
          "duration": 0.35294099999998707
        },
        {
          "name": "A3",
          "midi": 57,
          "time": 136.9411079999995,
          "velocity": 0.7874015748031497,
          "duration": 0.35294099999998707
        },
        {
          "name": "D3",
          "midi": 50,
          "time": 136.9411079999995,
          "velocity": 0.7874015748031497,
          "duration": 0.35294099999998707
        },
        {
          "name": "E4",
          "midi": 64,
          "time": 137.2940489999995,
          "velocity": 0.7874015748031497,
          "duration": 0.35294099999998707
        },
        {
          "name": "B3",
          "midi": 59,
          "time": 137.2940489999995,
          "velocity": 0.7874015748031497,
          "duration": 0.35294099999998707
        },
        {
          "name": "E3",
          "midi": 52,
          "time": 137.2940489999995,
          "velocity": 0.7874015748031497,
          "duration": 0.35294099999998707
        },
        {
          "name": "E4",
          "midi": 64,
          "time": 137.64698999999948,
          "velocity": 0.7874015748031497,
          "duration": 0.7058820000000026
        },
        {
          "name": "B3",
          "midi": 59,
          "time": 137.64698999999948,
          "velocity": 0.7874015748031497,
          "duration": 0.7058820000000026
        },
        {
          "name": "E3",
          "midi": 52,
          "time": 137.64698999999948,
          "velocity": 0.7874015748031497,
          "duration": 0.7058820000000026
        },
        {
          "name": "G4",
          "midi": 67,
          "time": 138.35287199999948,
          "velocity": 0.7874015748031497,
          "duration": 0.17647049999999354
        },
        {
          "name": "D4",
          "midi": 62,
          "time": 138.35287199999948,
          "velocity": 0.7874015748031497,
          "duration": 0.17647049999999354
        },
        {
          "name": "G3",
          "midi": 55,
          "time": 138.35287199999948,
          "velocity": 0.7874015748031497,
          "duration": 0.17647049999999354
        },
        {
          "name": "F#4",
          "midi": 66,
          "time": 138.52934249999947,
          "velocity": 0.7874015748031497,
          "duration": 0.17647049999999354
        },
        {
          "name": "C#4",
          "midi": 61,
          "time": 138.52934249999947,
          "velocity": 0.7874015748031497,
          "duration": 0.17647049999999354
        },
        {
          "name": "F#3",
          "midi": 54,
          "time": 138.52934249999947,
          "velocity": 0.7874015748031497,
          "duration": 0.17647049999999354
        },
        {
          "name": "G4",
          "midi": 67,
          "time": 138.70581299999947,
          "velocity": 0.7874015748031497,
          "duration": 0.17647049999999354
        },
        {
          "name": "D4",
          "midi": 62,
          "time": 138.70581299999947,
          "velocity": 0.7874015748031497,
          "duration": 0.17647049999999354
        },
        {
          "name": "G3",
          "midi": 55,
          "time": 138.70581299999947,
          "velocity": 0.7874015748031497,
          "duration": 0.17647049999999354
        },
        {
          "name": "F#4",
          "midi": 66,
          "time": 138.88228349999946,
          "velocity": 0.7874015748031497,
          "duration": 0.17647049999999354
        },
        {
          "name": "C#4",
          "midi": 61,
          "time": 138.88228349999946,
          "velocity": 0.7874015748031497,
          "duration": 0.17647049999999354
        },
        {
          "name": "F#3",
          "midi": 54,
          "time": 138.88228349999946,
          "velocity": 0.7874015748031497,
          "duration": 0.17647049999999354
        },
        {
          "name": "G4",
          "midi": 67,
          "time": 139.05875399999945,
          "velocity": 0.7874015748031497,
          "duration": 0.17647049999999354
        },
        {
          "name": "D4",
          "midi": 62,
          "time": 139.05875399999945,
          "velocity": 0.7874015748031497,
          "duration": 0.17647049999999354
        },
        {
          "name": "G3",
          "midi": 55,
          "time": 139.05875399999945,
          "velocity": 0.7874015748031497,
          "duration": 0.17647049999999354
        },
        {
          "name": "F#4",
          "midi": 66,
          "time": 139.23522449999945,
          "velocity": 0.7874015748031497,
          "duration": 0.17647049999999354
        },
        {
          "name": "C#4",
          "midi": 61,
          "time": 139.23522449999945,
          "velocity": 0.7874015748031497,
          "duration": 0.17647049999999354
        },
        {
          "name": "F#3",
          "midi": 54,
          "time": 139.23522449999945,
          "velocity": 0.7874015748031497,
          "duration": 0.17647049999999354
        },
        {
          "name": "D4",
          "midi": 62,
          "time": 139.41169499999944,
          "velocity": 0.7874015748031497,
          "duration": 0.34411747499999024
        },
        {
          "name": "A3",
          "midi": 57,
          "time": 139.41169499999944,
          "velocity": 0.7874015748031497,
          "duration": 0.34411747499999024
        },
        {
          "name": "D3",
          "midi": 50,
          "time": 139.41169499999944,
          "velocity": 0.7874015748031497,
          "duration": 0.34411747499999024
        },
        {
          "name": "D4",
          "midi": 62,
          "time": 139.76463599999943,
          "velocity": 0.7874015748031497,
          "duration": 0.35294099999998707
        },
        {
          "name": "A3",
          "midi": 57,
          "time": 139.76463599999943,
          "velocity": 0.7874015748031497,
          "duration": 0.35294099999998707
        },
        {
          "name": "D3",
          "midi": 50,
          "time": 139.76463599999943,
          "velocity": 0.7874015748031497,
          "duration": 0.35294099999998707
        },
        {
          "name": "E4",
          "midi": 64,
          "time": 140.11757699999941,
          "velocity": 0.7874015748031497,
          "duration": 0.35294099999998707
        },
        {
          "name": "B3",
          "midi": 59,
          "time": 140.11757699999941,
          "velocity": 0.7874015748031497,
          "duration": 0.35294099999998707
        },
        {
          "name": "E3",
          "midi": 52,
          "time": 140.11757699999941,
          "velocity": 0.7874015748031497,
          "duration": 0.35294099999998707
        },
        {
          "name": "E4",
          "midi": 64,
          "time": 140.4705179999994,
          "velocity": 0.7874015748031497,
          "duration": 0.7058820000000026
        },
        {
          "name": "B3",
          "midi": 59,
          "time": 140.4705179999994,
          "velocity": 0.7874015748031497,
          "duration": 0.7058820000000026
        },
        {
          "name": "E3",
          "midi": 52,
          "time": 140.4705179999994,
          "velocity": 0.7874015748031497,
          "duration": 0.7058820000000026
        },
        {
          "name": "B3",
          "midi": 59,
          "time": 141.1763999999994,
          "velocity": 0.7874015748031497,
          "duration": 0.7058820000000026
        },
        {
          "name": "F#3",
          "midi": 54,
          "time": 141.1763999999994,
          "velocity": 0.7874015748031497,
          "duration": 0.7058820000000026
        },
        {
          "name": "B2",
          "midi": 47,
          "time": 141.1763999999994,
          "velocity": 0.7874015748031497,
          "duration": 0.7058820000000026
        },
        {
          "name": "D4",
          "midi": 62,
          "time": 141.8822819999994,
          "velocity": 0.7874015748031497,
          "duration": 0.7058820000000026
        },
        {
          "name": "A3",
          "midi": 57,
          "time": 141.8822819999994,
          "velocity": 0.7874015748031497,
          "duration": 0.7058820000000026
        },
        {
          "name": "D3",
          "midi": 50,
          "time": 141.8822819999994,
          "velocity": 0.7874015748031497,
          "duration": 0.7058820000000026
        },
        {
          "name": "D4",
          "midi": 62,
          "time": 142.5881639999994,
          "velocity": 0.7874015748031497,
          "duration": 0.35294099999998707
        },
        {
          "name": "A3",
          "midi": 57,
          "time": 142.5881639999994,
          "velocity": 0.7874015748031497,
          "duration": 0.35294099999998707
        },
        {
          "name": "D3",
          "midi": 50,
          "time": 142.5881639999994,
          "velocity": 0.7874015748031497,
          "duration": 0.35294099999998707
        },
        {
          "name": "E4",
          "midi": 64,
          "time": 142.9411049999994,
          "velocity": 0.7874015748031497,
          "duration": 0.35294099999998707
        },
        {
          "name": "B3",
          "midi": 59,
          "time": 142.9411049999994,
          "velocity": 0.7874015748031497,
          "duration": 0.35294099999998707
        },
        {
          "name": "E3",
          "midi": 52,
          "time": 142.9411049999994,
          "velocity": 0.7874015748031497,
          "duration": 0.35294099999998707
        },
        {
          "name": "E4",
          "midi": 64,
          "time": 143.29404599999938,
          "velocity": 0.7874015748031497,
          "duration": 0.7058820000000026
        },
        {
          "name": "B3",
          "midi": 59,
          "time": 143.29404599999938,
          "velocity": 0.7874015748031497,
          "duration": 0.7058820000000026
        },
        {
          "name": "E3",
          "midi": 52,
          "time": 143.29404599999938,
          "velocity": 0.7874015748031497,
          "duration": 0.7058820000000026
        },
        {
          "name": "G4",
          "midi": 67,
          "time": 143.9999279999994,
          "velocity": 0.7874015748031497,
          "duration": 0.17647049999999354
        },
        {
          "name": "D4",
          "midi": 62,
          "time": 143.9999279999994,
          "velocity": 0.7874015748031497,
          "duration": 0.17647049999999354
        },
        {
          "name": "G3",
          "midi": 55,
          "time": 143.9999279999994,
          "velocity": 0.7874015748031497,
          "duration": 0.17647049999999354
        },
        {
          "name": "F#4",
          "midi": 66,
          "time": 144.17639849999938,
          "velocity": 0.7874015748031497,
          "duration": 0.17647049999999354
        },
        {
          "name": "C#4",
          "midi": 61,
          "time": 144.17639849999938,
          "velocity": 0.7874015748031497,
          "duration": 0.17647049999999354
        },
        {
          "name": "F#3",
          "midi": 54,
          "time": 144.17639849999938,
          "velocity": 0.7874015748031497,
          "duration": 0.17647049999999354
        },
        {
          "name": "G4",
          "midi": 67,
          "time": 144.35286899999937,
          "velocity": 0.7874015748031497,
          "duration": 0.17647049999999354
        },
        {
          "name": "D4",
          "midi": 62,
          "time": 144.35286899999937,
          "velocity": 0.7874015748031497,
          "duration": 0.17647049999999354
        },
        {
          "name": "G3",
          "midi": 55,
          "time": 144.35286899999937,
          "velocity": 0.7874015748031497,
          "duration": 0.17647049999999354
        },
        {
          "name": "F#4",
          "midi": 66,
          "time": 144.52933949999937,
          "velocity": 0.7874015748031497,
          "duration": 0.17647049999999354
        },
        {
          "name": "C#4",
          "midi": 61,
          "time": 144.52933949999937,
          "velocity": 0.7874015748031497,
          "duration": 0.17647049999999354
        },
        {
          "name": "F#3",
          "midi": 54,
          "time": 144.52933949999937,
          "velocity": 0.7874015748031497,
          "duration": 0.17647049999999354
        },
        {
          "name": "G4",
          "midi": 67,
          "time": 144.70580999999936,
          "velocity": 0.7874015748031497,
          "duration": 0.17647049999999354
        },
        {
          "name": "D4",
          "midi": 62,
          "time": 144.70580999999936,
          "velocity": 0.7874015748031497,
          "duration": 0.17647049999999354
        },
        {
          "name": "G3",
          "midi": 55,
          "time": 144.70580999999936,
          "velocity": 0.7874015748031497,
          "duration": 0.17647049999999354
        },
        {
          "name": "F#4",
          "midi": 66,
          "time": 144.88228049999935,
          "velocity": 0.7874015748031497,
          "duration": 0.17647049999999354
        },
        {
          "name": "C#4",
          "midi": 61,
          "time": 144.88228049999935,
          "velocity": 0.7874015748031497,
          "duration": 0.17647049999999354
        },
        {
          "name": "F#3",
          "midi": 54,
          "time": 144.88228049999935,
          "velocity": 0.7874015748031497,
          "duration": 0.17647049999999354
        },
        {
          "name": "D4",
          "midi": 62,
          "time": 145.05875099999935,
          "velocity": 0.7874015748031497,
          "duration": 0.34411747499999024
        },
        {
          "name": "A3",
          "midi": 57,
          "time": 145.05875099999935,
          "velocity": 0.7874015748031497,
          "duration": 0.34411747499999024
        },
        {
          "name": "D3",
          "midi": 50,
          "time": 145.05875099999935,
          "velocity": 0.7874015748031497,
          "duration": 0.34411747499999024
        },
        {
          "name": "D4",
          "midi": 62,
          "time": 145.41169199999933,
          "velocity": 0.7874015748031497,
          "duration": 0.35294099999998707
        },
        {
          "name": "A3",
          "midi": 57,
          "time": 145.41169199999933,
          "velocity": 0.7874015748031497,
          "duration": 0.35294099999998707
        },
        {
          "name": "D3",
          "midi": 50,
          "time": 145.41169199999933,
          "velocity": 0.7874015748031497,
          "duration": 0.35294099999998707
        },
        {
          "name": "E4",
          "midi": 64,
          "time": 145.76463299999932,
          "velocity": 0.7874015748031497,
          "duration": 0.35294099999998707
        },
        {
          "name": "B3",
          "midi": 59,
          "time": 145.76463299999932,
          "velocity": 0.7874015748031497,
          "duration": 0.35294099999998707
        },
        {
          "name": "E3",
          "midi": 52,
          "time": 145.76463299999932,
          "velocity": 0.7874015748031497,
          "duration": 0.35294099999998707
        },
        {
          "name": "E4",
          "midi": 64,
          "time": 146.1175739999993,
          "velocity": 0.7874015748031497,
          "duration": 0.7058820000000026
        },
        {
          "name": "B3",
          "midi": 59,
          "time": 146.1175739999993,
          "velocity": 0.7874015748031497,
          "duration": 0.7058820000000026
        },
        {
          "name": "E3",
          "midi": 52,
          "time": 146.1175739999993,
          "velocity": 0.7874015748031497,
          "duration": 0.7058820000000026
        },
        {
          "name": "E3",
          "midi": 52,
          "time": 146.8234559999993,
          "velocity": 0.7874015748031497,
          "duration": 2.8235280000000103
        },
        {
          "name": "B3",
          "midi": 59,
          "time": 146.8234559999993,
          "velocity": 0.7874015748031497,
          "duration": 2.8235280000000103
        },
        {
          "name": "E4",
          "midi": 64,
          "time": 146.8234559999993,
          "velocity": 0.7874015748031497,
          "duration": 2.8235280000000103
        },
        {
          "name": "D3",
          "midi": 50,
          "time": 149.64698399999932,
          "velocity": 0.7874015748031497,
          "duration": 2.8235280000000103
        },
        {
          "name": "D4",
          "midi": 62,
          "time": 149.64698399999932,
          "velocity": 0.7874015748031497,
          "duration": 2.8235280000000103
        },
        {
          "name": "A3",
          "midi": 57,
          "time": 149.64698399999932,
          "velocity": 0.7874015748031497,
          "duration": 2.8235280000000103
        },
        {
          "name": "F#3",
          "midi": 54,
          "time": 152.47051199999933,
          "velocity": 0.7874015748031497,
          "duration": 0.35294099999998707
        },
        {
          "name": "B3",
          "midi": 59,
          "time": 152.47051199999933,
          "velocity": 0.7874015748031497,
          "duration": 0.35294099999998707
        },
        {
          "name": "B2",
          "midi": 47,
          "time": 152.47051199999933,
          "velocity": 0.7874015748031497,
          "duration": 0.35294099999998707
        },
        {
          "name": "F#3",
          "midi": 54,
          "time": 152.82345299999932,
          "velocity": 0.7874015748031497,
          "duration": 0.35294099999998707
        },
        {
          "name": "B3",
          "midi": 59,
          "time": 152.82345299999932,
          "velocity": 0.7874015748031497,
          "duration": 0.35294099999998707
        },
        {
          "name": "B2",
          "midi": 47,
          "time": 152.82345299999932,
          "velocity": 0.7874015748031497,
          "duration": 0.35294099999998707
        },
        {
          "name": "A3",
          "midi": 57,
          "time": 153.1763939999993,
          "velocity": 0.7874015748031497,
          "duration": 0.17647049999999354
        },
        {
          "name": "D4",
          "midi": 62,
          "time": 153.1763939999993,
          "velocity": 0.7874015748031497,
          "duration": 0.17647049999999354
        },
        {
          "name": "D3",
          "midi": 50,
          "time": 153.1763939999993,
          "velocity": 0.7874015748031497,
          "duration": 0.17647049999999354
        },
        {
          "name": "A#3",
          "midi": 58,
          "time": 153.3528644999993,
          "velocity": 0.7874015748031497,
          "duration": 0.17647049999999354
        },
        {
          "name": "D#4",
          "midi": 63,
          "time": 153.3528644999993,
          "velocity": 0.7874015748031497,
          "duration": 0.17647049999999354
        },
        {
          "name": "D#3",
          "midi": 51,
          "time": 153.3528644999993,
          "velocity": 0.7874015748031497,
          "duration": 0.17647049999999354
        },
        {
          "name": "B3",
          "midi": 59,
          "time": 153.5293349999993,
          "velocity": 0.7874015748031497,
          "duration": 0.35294099999998707
        },
        {
          "name": "E4",
          "midi": 64,
          "time": 153.5293349999993,
          "velocity": 0.7874015748031497,
          "duration": 0.35294099999998707
        },
        {
          "name": "E3",
          "midi": 52,
          "time": 153.5293349999993,
          "velocity": 0.7874015748031497,
          "duration": 0.35294099999998707
        },
        {
          "name": "B3",
          "midi": 59,
          "time": 153.88227599999928,
          "velocity": 0.7874015748031497,
          "duration": 0.17647049999999354
        },
        {
          "name": "E4",
          "midi": 64,
          "time": 153.88227599999928,
          "velocity": 0.7874015748031497,
          "duration": 0.17647049999999354
        },
        {
          "name": "E3",
          "midi": 52,
          "time": 153.88227599999928,
          "velocity": 0.7874015748031497,
          "duration": 0.17647049999999354
        },
        {
          "name": "C4",
          "midi": 60,
          "time": 154.05874649999927,
          "velocity": 0.7874015748031497,
          "duration": 0.17647049999999354
        },
        {
          "name": "F4",
          "midi": 65,
          "time": 154.05874649999927,
          "velocity": 0.7874015748031497,
          "duration": 0.17647049999999354
        },
        {
          "name": "F3",
          "midi": 53,
          "time": 154.05874649999927,
          "velocity": 0.7874015748031497,
          "duration": 0.17647049999999354
        },
        {
          "name": "C#4",
          "midi": 61,
          "time": 154.23521699999927,
          "velocity": 0.7874015748031497,
          "duration": 0.35294099999998707
        },
        {
          "name": "F#4",
          "midi": 66,
          "time": 154.23521699999927,
          "velocity": 0.7874015748031497,
          "duration": 0.35294099999998707
        },
        {
          "name": "F#3",
          "midi": 54,
          "time": 154.23521699999927,
          "velocity": 0.7874015748031497,
          "duration": 0.35294099999998707
        },
        {
          "name": "E4",
          "midi": 64,
          "time": 154.58815799999925,
          "velocity": 0.7874015748031497,
          "duration": 0.17647049999999354
        },
        {
          "name": "A4",
          "midi": 69,
          "time": 154.58815799999925,
          "velocity": 0.7874015748031497,
          "duration": 0.17647049999999354
        },
        {
          "name": "A3",
          "midi": 57,
          "time": 154.58815799999925,
          "velocity": 0.7874015748031497,
          "duration": 0.17647049999999354
        },
        {
          "name": "F4",
          "midi": 65,
          "time": 154.76462849999925,
          "velocity": 0.7874015748031497,
          "duration": 0.17647049999999354
        },
        {
          "name": "A#4",
          "midi": 70,
          "time": 154.76462849999925,
          "velocity": 0.7874015748031497,
          "duration": 0.17647049999999354
        },
        {
          "name": "A#3",
          "midi": 58,
          "time": 154.76462849999925,
          "velocity": 0.7874015748031497,
          "duration": 0.17647049999999354
        },
        {
          "name": "F#4",
          "midi": 66,
          "time": 154.94109899999924,
          "velocity": 0.7874015748031497,
          "duration": 0.35294099999998707
        },
        {
          "name": "B4",
          "midi": 71,
          "time": 154.94109899999924,
          "velocity": 0.7874015748031497,
          "duration": 0.35294099999998707
        },
        {
          "name": "B3",
          "midi": 59,
          "time": 154.94109899999924,
          "velocity": 0.7874015748031497,
          "duration": 0.35294099999998707
        },
        {
          "name": "F#3",
          "midi": 54,
          "time": 155.29403999999923,
          "velocity": 0.7874015748031497,
          "duration": 0.35294099999998707
        },
        {
          "name": "B3",
          "midi": 59,
          "time": 155.29403999999923,
          "velocity": 0.7874015748031497,
          "duration": 0.35294099999998707
        },
        {
          "name": "B2",
          "midi": 47,
          "time": 155.29403999999923,
          "velocity": 0.7874015748031497,
          "duration": 0.35294099999998707
        },
        {
          "name": "F#3",
          "midi": 54,
          "time": 155.64698099999922,
          "velocity": 0.7874015748031497,
          "duration": 0.35294099999998707
        },
        {
          "name": "B3",
          "midi": 59,
          "time": 155.64698099999922,
          "velocity": 0.7874015748031497,
          "duration": 0.35294099999998707
        },
        {
          "name": "B2",
          "midi": 47,
          "time": 155.64698099999922,
          "velocity": 0.7874015748031497,
          "duration": 0.35294099999998707
        },
        {
          "name": "A3",
          "midi": 57,
          "time": 155.9999219999992,
          "velocity": 0.7874015748031497,
          "duration": 0.17647049999999354
        },
        {
          "name": "D4",
          "midi": 62,
          "time": 155.9999219999992,
          "velocity": 0.7874015748031497,
          "duration": 0.17647049999999354
        },
        {
          "name": "D3",
          "midi": 50,
          "time": 155.9999219999992,
          "velocity": 0.7874015748031497,
          "duration": 0.17647049999999354
        },
        {
          "name": "A#3",
          "midi": 58,
          "time": 156.1763924999992,
          "velocity": 0.7874015748031497,
          "duration": 0.17647049999999354
        },
        {
          "name": "D#4",
          "midi": 63,
          "time": 156.1763924999992,
          "velocity": 0.7874015748031497,
          "duration": 0.17647049999999354
        },
        {
          "name": "D#3",
          "midi": 51,
          "time": 156.1763924999992,
          "velocity": 0.7874015748031497,
          "duration": 0.17647049999999354
        },
        {
          "name": "B3",
          "midi": 59,
          "time": 156.3528629999992,
          "velocity": 0.7874015748031497,
          "duration": 0.35294099999998707
        },
        {
          "name": "E4",
          "midi": 64,
          "time": 156.3528629999992,
          "velocity": 0.7874015748031497,
          "duration": 0.35294099999998707
        },
        {
          "name": "E3",
          "midi": 52,
          "time": 156.3528629999992,
          "velocity": 0.7874015748031497,
          "duration": 0.35294099999998707
        },
        {
          "name": "B3",
          "midi": 59,
          "time": 156.70580399999918,
          "velocity": 0.7874015748031497,
          "duration": 0.17647049999999354
        },
        {
          "name": "E4",
          "midi": 64,
          "time": 156.70580399999918,
          "velocity": 0.7874015748031497,
          "duration": 0.17647049999999354
        },
        {
          "name": "E3",
          "midi": 52,
          "time": 156.70580399999918,
          "velocity": 0.7874015748031497,
          "duration": 0.17647049999999354
        },
        {
          "name": "C4",
          "midi": 60,
          "time": 156.88227449999917,
          "velocity": 0.7874015748031497,
          "duration": 0.17647049999999354
        },
        {
          "name": "F4",
          "midi": 65,
          "time": 156.88227449999917,
          "velocity": 0.7874015748031497,
          "duration": 0.17647049999999354
        },
        {
          "name": "F3",
          "midi": 53,
          "time": 156.88227449999917,
          "velocity": 0.7874015748031497,
          "duration": 0.17647049999999354
        },
        {
          "name": "C#4",
          "midi": 61,
          "time": 157.05874499999916,
          "velocity": 0.7874015748031497,
          "duration": 0.35294099999998707
        },
        {
          "name": "F#4",
          "midi": 66,
          "time": 157.05874499999916,
          "velocity": 0.7874015748031497,
          "duration": 0.35294099999998707
        },
        {
          "name": "F#3",
          "midi": 54,
          "time": 157.05874499999916,
          "velocity": 0.7874015748031497,
          "duration": 0.35294099999998707
        },
        {
          "name": "E4",
          "midi": 64,
          "time": 157.41168599999915,
          "velocity": 0.7874015748031497,
          "duration": 0.17647049999999354
        },
        {
          "name": "A4",
          "midi": 69,
          "time": 157.41168599999915,
          "velocity": 0.7874015748031497,
          "duration": 0.17647049999999354
        },
        {
          "name": "A3",
          "midi": 57,
          "time": 157.41168599999915,
          "velocity": 0.7874015748031497,
          "duration": 0.17647049999999354
        },
        {
          "name": "F4",
          "midi": 65,
          "time": 157.58815649999914,
          "velocity": 0.7874015748031497,
          "duration": 0.17647049999999354
        },
        {
          "name": "A#4",
          "midi": 70,
          "time": 157.58815649999914,
          "velocity": 0.7874015748031497,
          "duration": 0.17647049999999354
        },
        {
          "name": "A#3",
          "midi": 58,
          "time": 157.58815649999914,
          "velocity": 0.7874015748031497,
          "duration": 0.17647049999999354
        },
        {
          "name": "F#4",
          "midi": 66,
          "time": 157.76462699999914,
          "velocity": 0.7874015748031497,
          "duration": 0.35294099999998707
        },
        {
          "name": "B4",
          "midi": 71,
          "time": 157.76462699999914,
          "velocity": 0.7874015748031497,
          "duration": 0.35294099999998707
        },
        {
          "name": "B3",
          "midi": 59,
          "time": 157.76462699999914,
          "velocity": 0.7874015748031497,
          "duration": 0.35294099999998707
        },
        {
          "name": "E3",
          "midi": 52,
          "time": 158.11756799999912,
          "velocity": 0.7874015748031497,
          "duration": 2.8235280000000103
        },
        {
          "name": "B3",
          "midi": 59,
          "time": 158.11756799999912,
          "velocity": 0.7874015748031497,
          "duration": 2.8235280000000103
        },
        {
          "name": "E4",
          "midi": 64,
          "time": 158.11756799999912,
          "velocity": 0.7874015748031497,
          "duration": 2.8235280000000103
        },
        {
          "name": "D3",
          "midi": 50,
          "time": 160.94109599999913,
          "velocity": 0.7874015748031497,
          "duration": 2.8235280000000103
        },
        {
          "name": "D4",
          "midi": 62,
          "time": 160.94109599999913,
          "velocity": 0.7874015748031497,
          "duration": 2.8235280000000103
        },
        {
          "name": "A3",
          "midi": 57,
          "time": 160.94109599999913,
          "velocity": 0.7874015748031497,
          "duration": 2.8235280000000103
        },
        {
          "name": "F#3",
          "midi": 54,
          "time": 163.76462399999915,
          "velocity": 0.7874015748031497,
          "duration": 0.35294099999998707
        },
        {
          "name": "B3",
          "midi": 59,
          "time": 163.76462399999915,
          "velocity": 0.7874015748031497,
          "duration": 0.35294099999998707
        },
        {
          "name": "B2",
          "midi": 47,
          "time": 163.76462399999915,
          "velocity": 0.7874015748031497,
          "duration": 0.35294099999998707
        },
        {
          "name": "F#3",
          "midi": 54,
          "time": 164.11756499999913,
          "velocity": 0.7874015748031497,
          "duration": 0.35294099999998707
        },
        {
          "name": "B3",
          "midi": 59,
          "time": 164.11756499999913,
          "velocity": 0.7874015748031497,
          "duration": 0.35294099999998707
        },
        {
          "name": "B2",
          "midi": 47,
          "time": 164.11756499999913,
          "velocity": 0.7874015748031497,
          "duration": 0.35294099999998707
        },
        {
          "name": "A3",
          "midi": 57,
          "time": 164.47050599999912,
          "velocity": 0.7874015748031497,
          "duration": 0.17647049999999354
        },
        {
          "name": "D4",
          "midi": 62,
          "time": 164.47050599999912,
          "velocity": 0.7874015748031497,
          "duration": 0.17647049999999354
        },
        {
          "name": "D3",
          "midi": 50,
          "time": 164.47050599999912,
          "velocity": 0.7874015748031497,
          "duration": 0.17647049999999354
        },
        {
          "name": "A#3",
          "midi": 58,
          "time": 164.6469764999991,
          "velocity": 0.7874015748031497,
          "duration": 0.17647049999999354
        },
        {
          "name": "D#4",
          "midi": 63,
          "time": 164.6469764999991,
          "velocity": 0.7874015748031497,
          "duration": 0.17647049999999354
        },
        {
          "name": "D#3",
          "midi": 51,
          "time": 164.6469764999991,
          "velocity": 0.7874015748031497,
          "duration": 0.17647049999999354
        },
        {
          "name": "B3",
          "midi": 59,
          "time": 164.8234469999991,
          "velocity": 0.7874015748031497,
          "duration": 0.35294099999998707
        },
        {
          "name": "E4",
          "midi": 64,
          "time": 164.8234469999991,
          "velocity": 0.7874015748031497,
          "duration": 0.35294099999998707
        },
        {
          "name": "E3",
          "midi": 52,
          "time": 164.8234469999991,
          "velocity": 0.7874015748031497,
          "duration": 0.35294099999998707
        },
        {
          "name": "B3",
          "midi": 59,
          "time": 165.1763879999991,
          "velocity": 0.7874015748031497,
          "duration": 0.17647049999999354
        },
        {
          "name": "E4",
          "midi": 64,
          "time": 165.1763879999991,
          "velocity": 0.7874015748031497,
          "duration": 0.17647049999999354
        },
        {
          "name": "E3",
          "midi": 52,
          "time": 165.1763879999991,
          "velocity": 0.7874015748031497,
          "duration": 0.17647049999999354
        },
        {
          "name": "C4",
          "midi": 60,
          "time": 165.3528584999991,
          "velocity": 0.7874015748031497,
          "duration": 0.17647049999999354
        },
        {
          "name": "F4",
          "midi": 65,
          "time": 165.3528584999991,
          "velocity": 0.7874015748031497,
          "duration": 0.17647049999999354
        },
        {
          "name": "F3",
          "midi": 53,
          "time": 165.3528584999991,
          "velocity": 0.7874015748031497,
          "duration": 0.17647049999999354
        },
        {
          "name": "C#4",
          "midi": 61,
          "time": 165.52932899999908,
          "velocity": 0.7874015748031497,
          "duration": 0.35294099999998707
        },
        {
          "name": "F#4",
          "midi": 66,
          "time": 165.52932899999908,
          "velocity": 0.7874015748031497,
          "duration": 0.35294099999998707
        },
        {
          "name": "F#3",
          "midi": 54,
          "time": 165.52932899999908,
          "velocity": 0.7874015748031497,
          "duration": 0.35294099999998707
        },
        {
          "name": "E4",
          "midi": 64,
          "time": 165.88226999999907,
          "velocity": 0.7874015748031497,
          "duration": 0.17647049999999354
        },
        {
          "name": "A4",
          "midi": 69,
          "time": 165.88226999999907,
          "velocity": 0.7874015748031497,
          "duration": 0.17647049999999354
        },
        {
          "name": "A3",
          "midi": 57,
          "time": 165.88226999999907,
          "velocity": 0.7874015748031497,
          "duration": 0.17647049999999354
        },
        {
          "name": "F4",
          "midi": 65,
          "time": 166.05874049999906,
          "velocity": 0.7874015748031497,
          "duration": 0.17647049999999354
        },
        {
          "name": "A#4",
          "midi": 70,
          "time": 166.05874049999906,
          "velocity": 0.7874015748031497,
          "duration": 0.17647049999999354
        },
        {
          "name": "A#3",
          "midi": 58,
          "time": 166.05874049999906,
          "velocity": 0.7874015748031497,
          "duration": 0.17647049999999354
        },
        {
          "name": "F#4",
          "midi": 66,
          "time": 166.23521099999905,
          "velocity": 0.7874015748031497,
          "duration": 0.35294099999998707
        },
        {
          "name": "B4",
          "midi": 71,
          "time": 166.23521099999905,
          "velocity": 0.7874015748031497,
          "duration": 0.35294099999998707
        },
        {
          "name": "B3",
          "midi": 59,
          "time": 166.23521099999905,
          "velocity": 0.7874015748031497,
          "duration": 0.35294099999998707
        },
        {
          "name": "F#3",
          "midi": 54,
          "time": 166.58815199999904,
          "velocity": 0.7874015748031497,
          "duration": 0.35294099999998707
        },
        {
          "name": "B3",
          "midi": 59,
          "time": 166.58815199999904,
          "velocity": 0.7874015748031497,
          "duration": 0.35294099999998707
        },
        {
          "name": "B2",
          "midi": 47,
          "time": 166.58815199999904,
          "velocity": 0.7874015748031497,
          "duration": 0.35294099999998707
        },
        {
          "name": "F#3",
          "midi": 54,
          "time": 166.94109299999903,
          "velocity": 0.7874015748031497,
          "duration": 0.35294099999998707
        },
        {
          "name": "B3",
          "midi": 59,
          "time": 166.94109299999903,
          "velocity": 0.7874015748031497,
          "duration": 0.35294099999998707
        },
        {
          "name": "B2",
          "midi": 47,
          "time": 166.94109299999903,
          "velocity": 0.7874015748031497,
          "duration": 0.35294099999998707
        },
        {
          "name": "A3",
          "midi": 57,
          "time": 167.29403399999902,
          "velocity": 0.7874015748031497,
          "duration": 0.17647049999999354
        },
        {
          "name": "D4",
          "midi": 62,
          "time": 167.29403399999902,
          "velocity": 0.7874015748031497,
          "duration": 0.17647049999999354
        },
        {
          "name": "D3",
          "midi": 50,
          "time": 167.29403399999902,
          "velocity": 0.7874015748031497,
          "duration": 0.17647049999999354
        },
        {
          "name": "A#3",
          "midi": 58,
          "time": 167.470504499999,
          "velocity": 0.7874015748031497,
          "duration": 0.17647049999999354
        },
        {
          "name": "D#4",
          "midi": 63,
          "time": 167.470504499999,
          "velocity": 0.7874015748031497,
          "duration": 0.17647049999999354
        },
        {
          "name": "D#3",
          "midi": 51,
          "time": 167.470504499999,
          "velocity": 0.7874015748031497,
          "duration": 0.17647049999999354
        },
        {
          "name": "B3",
          "midi": 59,
          "time": 167.646974999999,
          "velocity": 0.7874015748031497,
          "duration": 0.35294099999998707
        },
        {
          "name": "E4",
          "midi": 64,
          "time": 167.646974999999,
          "velocity": 0.7874015748031497,
          "duration": 0.35294099999998707
        },
        {
          "name": "E3",
          "midi": 52,
          "time": 167.646974999999,
          "velocity": 0.7874015748031497,
          "duration": 0.35294099999998707
        },
        {
          "name": "B3",
          "midi": 59,
          "time": 167.999915999999,
          "velocity": 0.7874015748031497,
          "duration": 0.17647049999999354
        },
        {
          "name": "E4",
          "midi": 64,
          "time": 167.999915999999,
          "velocity": 0.7874015748031497,
          "duration": 0.17647049999999354
        },
        {
          "name": "E3",
          "midi": 52,
          "time": 167.999915999999,
          "velocity": 0.7874015748031497,
          "duration": 0.17647049999999354
        },
        {
          "name": "C4",
          "midi": 60,
          "time": 168.17638649999898,
          "velocity": 0.7874015748031497,
          "duration": 0.17647049999999354
        },
        {
          "name": "F4",
          "midi": 65,
          "time": 168.17638649999898,
          "velocity": 0.7874015748031497,
          "duration": 0.17647049999999354
        },
        {
          "name": "F3",
          "midi": 53,
          "time": 168.17638649999898,
          "velocity": 0.7874015748031497,
          "duration": 0.17647049999999354
        },
        {
          "name": "C#4",
          "midi": 61,
          "time": 168.35285699999898,
          "velocity": 0.7874015748031497,
          "duration": 0.35294099999998707
        },
        {
          "name": "F#4",
          "midi": 66,
          "time": 168.35285699999898,
          "velocity": 0.7874015748031497,
          "duration": 0.35294099999998707
        },
        {
          "name": "F#3",
          "midi": 54,
          "time": 168.35285699999898,
          "velocity": 0.7874015748031497,
          "duration": 0.35294099999998707
        },
        {
          "name": "E4",
          "midi": 64,
          "time": 168.70579799999896,
          "velocity": 0.7874015748031497,
          "duration": 0.17647049999999354
        },
        {
          "name": "A4",
          "midi": 69,
          "time": 168.70579799999896,
          "velocity": 0.7874015748031497,
          "duration": 0.17647049999999354
        },
        {
          "name": "A3",
          "midi": 57,
          "time": 168.70579799999896,
          "velocity": 0.7874015748031497,
          "duration": 0.17647049999999354
        },
        {
          "name": "F4",
          "midi": 65,
          "time": 168.88226849999896,
          "velocity": 0.7874015748031497,
          "duration": 0.17647049999999354
        },
        {
          "name": "A#4",
          "midi": 70,
          "time": 168.88226849999896,
          "velocity": 0.7874015748031497,
          "duration": 0.17647049999999354
        },
        {
          "name": "A#3",
          "midi": 58,
          "time": 168.88226849999896,
          "velocity": 0.7874015748031497,
          "duration": 0.17647049999999354
        },
        {
          "name": "F#4",
          "midi": 66,
          "time": 169.05873899999895,
          "velocity": 0.7874015748031497,
          "duration": 0.35294099999998707
        },
        {
          "name": "B4",
          "midi": 71,
          "time": 169.05873899999895,
          "velocity": 0.7874015748031497,
          "duration": 0.35294099999998707
        },
        {
          "name": "B3",
          "midi": 59,
          "time": 169.05873899999895,
          "velocity": 0.7874015748031497,
          "duration": 0.35294099999998707
        },
        {
          "name": "G#4",
          "midi": 68,
          "time": 169.41167999999894,
          "velocity": 0.7874015748031497,
          "duration": 0.17647049999999354
        },
        {
          "name": "C#4",
          "midi": 61,
          "time": 169.41167999999894,
          "velocity": 0.7874015748031497,
          "duration": 0.17647049999999354
        },
        {
          "name": "C#5",
          "midi": 73,
          "time": 169.41167999999894,
          "velocity": 0.7874015748031497,
          "duration": 0.17647049999999354
        },
        {
          "name": "F#4",
          "midi": 66,
          "time": 169.58815049999893,
          "velocity": 0.7874015748031497,
          "duration": 0.17647049999999354
        },
        {
          "name": "B3",
          "midi": 59,
          "time": 169.58815049999893,
          "velocity": 0.7874015748031497,
          "duration": 0.17647049999999354
        },
        {
          "name": "B4",
          "midi": 71,
          "time": 169.58815049999893,
          "velocity": 0.7874015748031497,
          "duration": 0.17647049999999354
        },
        {
          "name": "D#4",
          "midi": 63,
          "time": 169.94109149999892,
          "velocity": 0.7874015748031497,
          "duration": 0.17647049999999354
        },
        {
          "name": "G#3",
          "midi": 56,
          "time": 169.94109149999892,
          "velocity": 0.7874015748031497,
          "duration": 0.17647049999999354
        },
        {
          "name": "G#4",
          "midi": 68,
          "time": 169.94109149999892,
          "velocity": 0.7874015748031497,
          "duration": 0.17647049999999354
        },
        {
          "name": "C#4",
          "midi": 61,
          "time": 170.2940324999989,
          "velocity": 0.7874015748031497,
          "duration": 0.17647049999999354
        },
        {
          "name": "F#3",
          "midi": 54,
          "time": 170.2940324999989,
          "velocity": 0.7874015748031497,
          "duration": 0.17647049999999354
        },
        {
          "name": "F#4",
          "midi": 66,
          "time": 170.2940324999989,
          "velocity": 0.7874015748031497,
          "duration": 0.17647049999999354
        },
        {
          "name": "B3",
          "midi": 59,
          "time": 170.6469734999989,
          "velocity": 0.7874015748031497,
          "duration": 0.17647049999999354
        },
        {
          "name": "E3",
          "midi": 52,
          "time": 170.6469734999989,
          "velocity": 0.7874015748031497,
          "duration": 0.17647049999999354
        },
        {
          "name": "E4",
          "midi": 64,
          "time": 170.6469734999989,
          "velocity": 0.7874015748031497,
          "duration": 0.17647049999999354
        },
        {
          "name": "G#3",
          "midi": 56,
          "time": 170.99403214999887,
          "velocity": 0.7874015748031497,
          "duration": 0.17647049999999354
        },
        {
          "name": "C#3",
          "midi": 49,
          "time": 170.99403214999887,
          "velocity": 0.7874015748031497,
          "duration": 0.17647049999999354
        },
        {
          "name": "C#4",
          "midi": 61,
          "time": 170.99403214999887,
          "velocity": 0.7874015748031497,
          "duration": 0.17647049999999354
        },
        {
          "name": "F#3",
          "midi": 54,
          "time": 171.35285549999887,
          "velocity": 0.7874015748031497,
          "duration": 0.17647049999999354
        },
        {
          "name": "B2",
          "midi": 47,
          "time": 171.35285549999887,
          "velocity": 0.7874015748031497,
          "duration": 0.17647049999999354
        },
        {
          "name": "B3",
          "midi": 59,
          "time": 171.35285549999887,
          "velocity": 0.7874015748031497,
          "duration": 0.17647049999999354
        },
        {
          "name": "F#3",
          "midi": 54,
          "time": 171.52932599999886,
          "velocity": 0.7874015748031497,
          "duration": 0.17647049999999354
        },
        {
          "name": "B2",
          "midi": 47,
          "time": 171.52932599999886,
          "velocity": 0.7874015748031497,
          "duration": 0.17647049999999354
        },
        {
          "name": "B3",
          "midi": 59,
          "time": 171.52932599999886,
          "velocity": 0.7874015748031497,
          "duration": 0.17647049999999354
        },
        {
          "name": "G#3",
          "midi": 56,
          "time": 171.70579649999885,
          "velocity": 0.7874015748031497,
          "duration": 0.17647049999999354
        },
        {
          "name": "C#3",
          "midi": 49,
          "time": 171.70579649999885,
          "velocity": 0.7874015748031497,
          "duration": 0.17647049999999354
        },
        {
          "name": "C#4",
          "midi": 61,
          "time": 171.70579649999885,
          "velocity": 0.7874015748031497,
          "duration": 0.17647049999999354
        },
        {
          "name": "G#3",
          "midi": 56,
          "time": 171.88226699999885,
          "velocity": 0.7874015748031497,
          "duration": 0.17647049999999354
        },
        {
          "name": "C#3",
          "midi": 49,
          "time": 171.88226699999885,
          "velocity": 0.7874015748031497,
          "duration": 0.17647049999999354
        },
        {
          "name": "C#4",
          "midi": 61,
          "time": 171.88226699999885,
          "velocity": 0.7874015748031497,
          "duration": 0.17647049999999354
        },
        {
          "name": "G#4",
          "midi": 68,
          "time": 172.23520799999883,
          "velocity": 0.7874015748031497,
          "duration": 0.17647049999999354
        },
        {
          "name": "C#4",
          "midi": 61,
          "time": 172.23520799999883,
          "velocity": 0.7874015748031497,
          "duration": 0.17647049999999354
        },
        {
          "name": "C#5",
          "midi": 73,
          "time": 172.23520799999883,
          "velocity": 0.7874015748031497,
          "duration": 0.17647049999999354
        },
        {
          "name": "F#4",
          "midi": 66,
          "time": 172.41167849999883,
          "velocity": 0.7874015748031497,
          "duration": 0.17647049999999354
        },
        {
          "name": "B3",
          "midi": 59,
          "time": 172.41167849999883,
          "velocity": 0.7874015748031497,
          "duration": 0.17647049999999354
        },
        {
          "name": "B4",
          "midi": 71,
          "time": 172.41167849999883,
          "velocity": 0.7874015748031497,
          "duration": 0.17647049999999354
        },
        {
          "name": "D#4",
          "midi": 63,
          "time": 172.76461949999882,
          "velocity": 0.7874015748031497,
          "duration": 0.17647049999999354
        },
        {
          "name": "G#3",
          "midi": 56,
          "time": 172.76461949999882,
          "velocity": 0.7874015748031497,
          "duration": 0.17647049999999354
        },
        {
          "name": "G#4",
          "midi": 68,
          "time": 172.76461949999882,
          "velocity": 0.7874015748031497,
          "duration": 0.17647049999999354
        },
        {
          "name": "C#4",
          "midi": 61,
          "time": 173.1175604999988,
          "velocity": 0.7874015748031497,
          "duration": 0.17647049999999354
        },
        {
          "name": "F#3",
          "midi": 54,
          "time": 173.1175604999988,
          "velocity": 0.7874015748031497,
          "duration": 0.17647049999999354
        },
        {
          "name": "F#4",
          "midi": 66,
          "time": 173.1175604999988,
          "velocity": 0.7874015748031497,
          "duration": 0.17647049999999354
        },
        {
          "name": "B3",
          "midi": 59,
          "time": 173.4705014999988,
          "velocity": 0.7874015748031497,
          "duration": 0.17647049999999354
        },
        {
          "name": "E3",
          "midi": 52,
          "time": 173.4705014999988,
          "velocity": 0.7874015748031497,
          "duration": 0.17647049999999354
        },
        {
          "name": "E4",
          "midi": 64,
          "time": 173.4705014999988,
          "velocity": 0.7874015748031497,
          "duration": 0.17647049999999354
        },
        {
          "name": "G#3",
          "midi": 56,
          "time": 173.81756014999877,
          "velocity": 0.7874015748031497,
          "duration": 0.17647049999999354
        },
        {
          "name": "C#3",
          "midi": 49,
          "time": 173.81756014999877,
          "velocity": 0.7874015748031497,
          "duration": 0.17647049999999354
        },
        {
          "name": "C#4",
          "midi": 61,
          "time": 173.81756014999877,
          "velocity": 0.7874015748031497,
          "duration": 0.17647049999999354
        },
        {
          "name": "F#3",
          "midi": 54,
          "time": 174.17638349999876,
          "velocity": 0.7874015748031497,
          "duration": 0.17647049999999354
        },
        {
          "name": "B2",
          "midi": 47,
          "time": 174.17638349999876,
          "velocity": 0.7874015748031497,
          "duration": 0.17647049999999354
        },
        {
          "name": "B3",
          "midi": 59,
          "time": 174.17638349999876,
          "velocity": 0.7874015748031497,
          "duration": 0.17647049999999354
        },
        {
          "name": "F#3",
          "midi": 54,
          "time": 174.35285399999876,
          "velocity": 0.7874015748031497,
          "duration": 0.17647049999999354
        },
        {
          "name": "B2",
          "midi": 47,
          "time": 174.35285399999876,
          "velocity": 0.7874015748031497,
          "duration": 0.17647049999999354
        },
        {
          "name": "B3",
          "midi": 59,
          "time": 174.35285399999876,
          "velocity": 0.7874015748031497,
          "duration": 0.17647049999999354
        },
        {
          "name": "G#3",
          "midi": 56,
          "time": 174.52932449999875,
          "velocity": 0.7874015748031497,
          "duration": 0.17647049999999354
        },
        {
          "name": "C#3",
          "midi": 49,
          "time": 174.52932449999875,
          "velocity": 0.7874015748031497,
          "duration": 0.17647049999999354
        },
        {
          "name": "C#4",
          "midi": 61,
          "time": 174.52932449999875,
          "velocity": 0.7874015748031497,
          "duration": 0.17647049999999354
        },
        {
          "name": "G#3",
          "midi": 56,
          "time": 174.70579499999874,
          "velocity": 0.7874015748031497,
          "duration": 0.17647049999999354
        },
        {
          "name": "C#3",
          "midi": 49,
          "time": 174.70579499999874,
          "velocity": 0.7874015748031497,
          "duration": 0.17647049999999354
        },
        {
          "name": "C#4",
          "midi": 61,
          "time": 174.70579499999874,
          "velocity": 0.7874015748031497,
          "duration": 0.17647049999999354
        },
        {
          "name": "B3",
          "midi": 59,
          "time": 175.05873599999873,
          "velocity": 0.7874015748031497,
          "duration": 0.17647049999999354
        },
        {
          "name": "F#3",
          "midi": 54,
          "time": 175.05873599999873,
          "velocity": 0.7874015748031497,
          "duration": 0.17647049999999354
        },
        {
          "name": "B2",
          "midi": 47,
          "time": 175.05873599999873,
          "velocity": 0.7874015748031497,
          "duration": 0.17647049999999354
        },
        {
          "name": "C#4",
          "midi": 61,
          "time": 175.23520649999872,
          "velocity": 0.7874015748031497,
          "duration": 0.17647049999999354
        },
        {
          "name": "G#3",
          "midi": 56,
          "time": 175.23520649999872,
          "velocity": 0.7874015748031497,
          "duration": 0.17647049999999354
        },
        {
          "name": "C#3",
          "midi": 49,
          "time": 175.23520649999872,
          "velocity": 0.7874015748031497,
          "duration": 0.17647049999999354
        },
        {
          "name": "C#4",
          "midi": 61,
          "time": 175.41167699999872,
          "velocity": 0.7874015748031497,
          "duration": 0.17647049999999354
        },
        {
          "name": "G#3",
          "midi": 56,
          "time": 175.41167699999872,
          "velocity": 0.7874015748031497,
          "duration": 0.17647049999999354
        },
        {
          "name": "C#3",
          "midi": 49,
          "time": 175.41167699999872,
          "velocity": 0.7874015748031497,
          "duration": 0.17647049999999354
        },
        {
          "name": "G#2",
          "midi": 44,
          "time": 175.5881474999987,
          "velocity": 0.7874015748031497,
          "duration": 0.08823524999999677
        },
        {
          "name": "C#2",
          "midi": 37,
          "time": 175.5881474999987,
          "velocity": 0.7874015748031497,
          "duration": 0.08823524999999677
        },
        {
          "name": "C#2",
          "midi": 37,
          "time": 175.7646179999987,
          "velocity": 0.7874015748031497,
          "duration": 0.08823524999999677
        },
        {
          "name": "G#2",
          "midi": 44,
          "time": 175.7646179999987,
          "velocity": 0.7874015748031497,
          "duration": 0.08823524999999677
        },
        {
          "name": "C#2",
          "midi": 37,
          "time": 175.9410884999987,
          "velocity": 0.7874015748031497,
          "duration": 0.08823524999999677
        },
        {
          "name": "G#2",
          "midi": 44,
          "time": 175.9410884999987,
          "velocity": 0.7874015748031497,
          "duration": 0.08823524999999677
        },
        {
          "name": "C#2",
          "midi": 37,
          "time": 176.1175589999987,
          "velocity": 0.7874015748031497,
          "duration": 0.08823524999999677
        },
        {
          "name": "G#2",
          "midi": 44,
          "time": 176.1175589999987,
          "velocity": 0.7874015748031497,
          "duration": 0.08823524999999677
        },
        {
          "name": "C#2",
          "midi": 37,
          "time": 176.2940294999987,
          "velocity": 0.7874015748031497,
          "duration": 0.08823524999999677
        },
        {
          "name": "G#2",
          "midi": 44,
          "time": 176.2940294999987,
          "velocity": 0.7874015748031497,
          "duration": 0.08823524999999677
        },
        {
          "name": "B3",
          "midi": 59,
          "time": 176.47049999999868,
          "velocity": 0.7874015748031497,
          "duration": 0.17647049999999354
        },
        {
          "name": "F#3",
          "midi": 54,
          "time": 176.47049999999868,
          "velocity": 0.7874015748031497,
          "duration": 0.17647049999999354
        },
        {
          "name": "B2",
          "midi": 47,
          "time": 176.47049999999868,
          "velocity": 0.7874015748031497,
          "duration": 0.17647049999999354
        },
        {
          "name": "C#4",
          "midi": 61,
          "time": 176.64697049999867,
          "velocity": 0.7874015748031497,
          "duration": 0.35294099999998707
        },
        {
          "name": "G#3",
          "midi": 56,
          "time": 176.64697049999867,
          "velocity": 0.7874015748031497,
          "duration": 0.35294099999998707
        },
        {
          "name": "C#3",
          "midi": 49,
          "time": 176.64697049999867,
          "velocity": 0.7874015748031497,
          "duration": 0.35294099999998707
        },
        {
          "name": "D4",
          "midi": 62,
          "time": 176.99991149999866,
          "velocity": 0.7874015748031497,
          "duration": 0.35294099999998707
        },
        {
          "name": "A3",
          "midi": 57,
          "time": 176.99991149999866,
          "velocity": 0.7874015748031497,
          "duration": 0.35294099999998707
        },
        {
          "name": "D3",
          "midi": 50,
          "time": 176.99991149999866,
          "velocity": 0.7874015748031497,
          "duration": 0.35294099999998707
        },
        {
          "name": "C#4",
          "midi": 61,
          "time": 177.35285249999865,
          "velocity": 0.7874015748031497,
          "duration": 0.35294099999998707
        },
        {
          "name": "G#3",
          "midi": 56,
          "time": 177.35285249999865,
          "velocity": 0.7874015748031497,
          "duration": 0.35294099999998707
        },
        {
          "name": "C#3",
          "midi": 49,
          "time": 177.35285249999865,
          "velocity": 0.7874015748031497,
          "duration": 0.35294099999998707
        },
        {
          "name": "B3",
          "midi": 59,
          "time": 177.70579349999863,
          "velocity": 0.7874015748031497,
          "duration": 0.17647049999999354
        },
        {
          "name": "F#3",
          "midi": 54,
          "time": 177.70579349999863,
          "velocity": 0.7874015748031497,
          "duration": 0.17647049999999354
        },
        {
          "name": "B2",
          "midi": 47,
          "time": 177.70579349999863,
          "velocity": 0.7874015748031497,
          "duration": 0.17647049999999354
        },
        {
          "name": "B3",
          "midi": 59,
          "time": 177.88226399999863,
          "velocity": 0.7874015748031497,
          "duration": 0.17647049999999354
        },
        {
          "name": "F#3",
          "midi": 54,
          "time": 177.88226399999863,
          "velocity": 0.7874015748031497,
          "duration": 0.17647049999999354
        },
        {
          "name": "B2",
          "midi": 47,
          "time": 177.88226399999863,
          "velocity": 0.7874015748031497,
          "duration": 0.17647049999999354
        },
        {
          "name": "C#4",
          "midi": 61,
          "time": 178.05873449999862,
          "velocity": 0.7874015748031497,
          "duration": 0.17647049999999354
        },
        {
          "name": "G#3",
          "midi": 56,
          "time": 178.05873449999862,
          "velocity": 0.7874015748031497,
          "duration": 0.17647049999999354
        },
        {
          "name": "C#3",
          "midi": 49,
          "time": 178.05873449999862,
          "velocity": 0.7874015748031497,
          "duration": 0.17647049999999354
        },
        {
          "name": "C#4",
          "midi": 61,
          "time": 178.23520499999861,
          "velocity": 0.7874015748031497,
          "duration": 0.17647049999999354
        },
        {
          "name": "G#3",
          "midi": 56,
          "time": 178.23520499999861,
          "velocity": 0.7874015748031497,
          "duration": 0.17647049999999354
        },
        {
          "name": "C#3",
          "midi": 49,
          "time": 178.23520499999861,
          "velocity": 0.7874015748031497,
          "duration": 0.17647049999999354
        },
        {
          "name": "C#2",
          "midi": 37,
          "time": 178.4116754999986,
          "velocity": 0.7874015748031497,
          "duration": 0.08823524999999677
        },
        {
          "name": "G#2",
          "midi": 44,
          "time": 178.4116754999986,
          "velocity": 0.7874015748031497,
          "duration": 0.08823524999999677
        },
        {
          "name": "C#2",
          "midi": 37,
          "time": 178.5881459999986,
          "velocity": 0.7874015748031497,
          "duration": 0.08823524999999677
        },
        {
          "name": "G#2",
          "midi": 44,
          "time": 178.5881459999986,
          "velocity": 0.7874015748031497,
          "duration": 0.08823524999999677
        },
        {
          "name": "C#2",
          "midi": 37,
          "time": 178.7646164999986,
          "velocity": 0.7874015748031497,
          "duration": 0.08823524999999677
        },
        {
          "name": "G#2",
          "midi": 44,
          "time": 178.7646164999986,
          "velocity": 0.7874015748031497,
          "duration": 0.08823524999999677
        },
        {
          "name": "C#2",
          "midi": 37,
          "time": 178.9410869999986,
          "velocity": 0.7874015748031497,
          "duration": 0.08823524999999677
        },
        {
          "name": "G#2",
          "midi": 44,
          "time": 178.9410869999986,
          "velocity": 0.7874015748031497,
          "duration": 0.08823524999999677
        },
        {
          "name": "C#2",
          "midi": 37,
          "time": 179.11755749999858,
          "velocity": 0.7874015748031497,
          "duration": 0.08823524999999677
        },
        {
          "name": "G#2",
          "midi": 44,
          "time": 179.11755749999858,
          "velocity": 0.7874015748031497,
          "duration": 0.08823524999999677
        },
        {
          "name": "B3",
          "midi": 59,
          "time": 179.29402799999858,
          "velocity": 0.7874015748031497,
          "duration": 0.17647049999999354
        },
        {
          "name": "F#3",
          "midi": 54,
          "time": 179.29402799999858,
          "velocity": 0.7874015748031497,
          "duration": 0.17647049999999354
        },
        {
          "name": "B2",
          "midi": 47,
          "time": 179.29402799999858,
          "velocity": 0.7874015748031497,
          "duration": 0.17647049999999354
        },
        {
          "name": "C#4",
          "midi": 61,
          "time": 179.47049849999857,
          "velocity": 0.7874015748031497,
          "duration": 0.35294099999998707
        },
        {
          "name": "G#3",
          "midi": 56,
          "time": 179.47049849999857,
          "velocity": 0.7874015748031497,
          "duration": 0.35294099999998707
        },
        {
          "name": "C#3",
          "midi": 49,
          "time": 179.47049849999857,
          "velocity": 0.7874015748031497,
          "duration": 0.35294099999998707
        },
        {
          "name": "D4",
          "midi": 62,
          "time": 179.82343949999856,
          "velocity": 0.7874015748031497,
          "duration": 0.35294099999998707
        },
        {
          "name": "A3",
          "midi": 57,
          "time": 179.82343949999856,
          "velocity": 0.7874015748031497,
          "duration": 0.35294099999998707
        },
        {
          "name": "D3",
          "midi": 50,
          "time": 179.82343949999856,
          "velocity": 0.7874015748031497,
          "duration": 0.35294099999998707
        },
        {
          "name": "C#4",
          "midi": 61,
          "time": 180.17638049999854,
          "velocity": 0.7874015748031497,
          "duration": 0.35294099999998707
        },
        {
          "name": "G#3",
          "midi": 56,
          "time": 180.17638049999854,
          "velocity": 0.7874015748031497,
          "duration": 0.35294099999998707
        },
        {
          "name": "C#3",
          "midi": 49,
          "time": 180.17638049999854,
          "velocity": 0.7874015748031497,
          "duration": 0.35294099999998707
        },
        {
          "name": "B3",
          "midi": 59,
          "time": 180.52932149999853,
          "velocity": 0.7874015748031497,
          "duration": 0.17647049999999354
        },
        {
          "name": "F#3",
          "midi": 54,
          "time": 180.52932149999853,
          "velocity": 0.7874015748031497,
          "duration": 0.17647049999999354
        },
        {
          "name": "B2",
          "midi": 47,
          "time": 180.52932149999853,
          "velocity": 0.7874015748031497,
          "duration": 0.17647049999999354
        },
        {
          "name": "B3",
          "midi": 59,
          "time": 180.70579199999852,
          "velocity": 0.7874015748031497,
          "duration": 0.17647049999999354
        },
        {
          "name": "F#3",
          "midi": 54,
          "time": 180.70579199999852,
          "velocity": 0.7874015748031497,
          "duration": 0.17647049999999354
        },
        {
          "name": "B2",
          "midi": 47,
          "time": 180.70579199999852,
          "velocity": 0.7874015748031497,
          "duration": 0.17647049999999354
        },
        {
          "name": "C#4",
          "midi": 61,
          "time": 180.88226249999852,
          "velocity": 0.7874015748031497,
          "duration": 0.17647049999999354
        },
        {
          "name": "G#3",
          "midi": 56,
          "time": 180.88226249999852,
          "velocity": 0.7874015748031497,
          "duration": 0.17647049999999354
        },
        {
          "name": "C#3",
          "midi": 49,
          "time": 180.88226249999852,
          "velocity": 0.7874015748031497,
          "duration": 0.17647049999999354
        },
        {
          "name": "C#4",
          "midi": 61,
          "time": 181.0587329999985,
          "velocity": 0.7874015748031497,
          "duration": 0.17647049999999354
        },
        {
          "name": "G#3",
          "midi": 56,
          "time": 181.0587329999985,
          "velocity": 0.7874015748031497,
          "duration": 0.17647049999999354
        },
        {
          "name": "C#3",
          "midi": 49,
          "time": 181.0587329999985,
          "velocity": 0.7874015748031497,
          "duration": 0.17647049999999354
        },
        {
          "name": "C#2",
          "midi": 37,
          "time": 181.2352034999985,
          "velocity": 0.7874015748031497,
          "duration": 0.08823524999999677
        },
        {
          "name": "G#2",
          "midi": 44,
          "time": 181.2352034999985,
          "velocity": 0.7874015748031497,
          "duration": 0.08823524999999677
        },
        {
          "name": "C#2",
          "midi": 37,
          "time": 181.4116739999985,
          "velocity": 0.7874015748031497,
          "duration": 0.08823524999999677
        },
        {
          "name": "G#2",
          "midi": 44,
          "time": 181.4116739999985,
          "velocity": 0.7874015748031497,
          "duration": 0.08823524999999677
        },
        {
          "name": "C#2",
          "midi": 37,
          "time": 181.5881444999985,
          "velocity": 0.7874015748031497,
          "duration": 0.08823524999999677
        },
        {
          "name": "G#2",
          "midi": 44,
          "time": 181.5881444999985,
          "velocity": 0.7874015748031497,
          "duration": 0.08823524999999677
        },
        {
          "name": "C#2",
          "midi": 37,
          "time": 181.76461499999849,
          "velocity": 0.7874015748031497,
          "duration": 0.08823524999999677
        },
        {
          "name": "G#2",
          "midi": 44,
          "time": 181.76461499999849,
          "velocity": 0.7874015748031497,
          "duration": 0.08823524999999677
        },
        {
          "name": "C#2",
          "midi": 37,
          "time": 181.94108549999848,
          "velocity": 0.7874015748031497,
          "duration": 0.08823524999999677
        },
        {
          "name": "G#2",
          "midi": 44,
          "time": 181.94108549999848,
          "velocity": 0.7874015748031497,
          "duration": 0.08823524999999677
        },
        {
          "name": "B3",
          "midi": 59,
          "time": 182.11755599999847,
          "velocity": 0.7874015748031497,
          "duration": 0.17647049999999354
        },
        {
          "name": "F#3",
          "midi": 54,
          "time": 182.11755599999847,
          "velocity": 0.7874015748031497,
          "duration": 0.17647049999999354
        },
        {
          "name": "B2",
          "midi": 47,
          "time": 182.11755599999847,
          "velocity": 0.7874015748031497,
          "duration": 0.17647049999999354
        },
        {
          "name": "C#4",
          "midi": 61,
          "time": 182.29402649999847,
          "velocity": 0.7874015748031497,
          "duration": 0.35294099999998707
        },
        {
          "name": "G#3",
          "midi": 56,
          "time": 182.29402649999847,
          "velocity": 0.7874015748031497,
          "duration": 0.35294099999998707
        },
        {
          "name": "C#3",
          "midi": 49,
          "time": 182.29402649999847,
          "velocity": 0.7874015748031497,
          "duration": 0.35294099999998707
        },
        {
          "name": "D4",
          "midi": 62,
          "time": 182.64696749999845,
          "velocity": 0.7874015748031497,
          "duration": 0.35294099999998707
        },
        {
          "name": "A3",
          "midi": 57,
          "time": 182.64696749999845,
          "velocity": 0.7874015748031497,
          "duration": 0.35294099999998707
        },
        {
          "name": "D3",
          "midi": 50,
          "time": 182.64696749999845,
          "velocity": 0.7874015748031497,
          "duration": 0.35294099999998707
        },
        {
          "name": "C#4",
          "midi": 61,
          "time": 182.99990849999844,
          "velocity": 0.7874015748031497,
          "duration": 0.35294099999998707
        },
        {
          "name": "G#3",
          "midi": 56,
          "time": 182.99990849999844,
          "velocity": 0.7874015748031497,
          "duration": 0.35294099999998707
        },
        {
          "name": "C#3",
          "midi": 49,
          "time": 182.99990849999844,
          "velocity": 0.7874015748031497,
          "duration": 0.35294099999998707
        },
        {
          "name": "B3",
          "midi": 59,
          "time": 183.35284949999843,
          "velocity": 0.7874015748031497,
          "duration": 0.17647049999999354
        },
        {
          "name": "F#3",
          "midi": 54,
          "time": 183.35284949999843,
          "velocity": 0.7874015748031497,
          "duration": 0.17647049999999354
        },
        {
          "name": "B2",
          "midi": 47,
          "time": 183.35284949999843,
          "velocity": 0.7874015748031497,
          "duration": 0.17647049999999354
        },
        {
          "name": "B3",
          "midi": 59,
          "time": 183.52931999999842,
          "velocity": 0.7874015748031497,
          "duration": 0.17647049999999354
        },
        {
          "name": "F#3",
          "midi": 54,
          "time": 183.52931999999842,
          "velocity": 0.7874015748031497,
          "duration": 0.17647049999999354
        },
        {
          "name": "B2",
          "midi": 47,
          "time": 183.52931999999842,
          "velocity": 0.7874015748031497,
          "duration": 0.17647049999999354
        },
        {
          "name": "C#4",
          "midi": 61,
          "time": 183.70579049999841,
          "velocity": 0.7874015748031497,
          "duration": 0.17647049999999354
        },
        {
          "name": "G#3",
          "midi": 56,
          "time": 183.70579049999841,
          "velocity": 0.7874015748031497,
          "duration": 0.17647049999999354
        },
        {
          "name": "C#3",
          "midi": 49,
          "time": 183.70579049999841,
          "velocity": 0.7874015748031497,
          "duration": 0.17647049999999354
        },
        {
          "name": "C#4",
          "midi": 61,
          "time": 183.8822609999984,
          "velocity": 0.7874015748031497,
          "duration": 0.17647049999999354
        },
        {
          "name": "G#3",
          "midi": 56,
          "time": 183.8822609999984,
          "velocity": 0.7874015748031497,
          "duration": 0.17647049999999354
        },
        {
          "name": "C#3",
          "midi": 49,
          "time": 183.8822609999984,
          "velocity": 0.7874015748031497,
          "duration": 0.17647049999999354
        },
        {
          "name": "C#2",
          "midi": 37,
          "time": 184.0587314999984,
          "velocity": 0.7874015748031497,
          "duration": 0.08823524999999677
        },
        {
          "name": "G#2",
          "midi": 44,
          "time": 184.0587314999984,
          "velocity": 0.7874015748031497,
          "duration": 0.08823524999999677
        },
        {
          "name": "C#2",
          "midi": 37,
          "time": 184.2352019999984,
          "velocity": 0.7874015748031497,
          "duration": 0.08823524999999677
        },
        {
          "name": "G#2",
          "midi": 44,
          "time": 184.2352019999984,
          "velocity": 0.7874015748031497,
          "duration": 0.08823524999999677
        },
        {
          "name": "C#2",
          "midi": 37,
          "time": 184.4116724999984,
          "velocity": 0.7874015748031497,
          "duration": 0.08823524999999677
        },
        {
          "name": "G#2",
          "midi": 44,
          "time": 184.4116724999984,
          "velocity": 0.7874015748031497,
          "duration": 0.08823524999999677
        },
        {
          "name": "C#2",
          "midi": 37,
          "time": 184.58814299999838,
          "velocity": 0.7874015748031497,
          "duration": 0.08823524999999677
        },
        {
          "name": "G#2",
          "midi": 44,
          "time": 184.58814299999838,
          "velocity": 0.7874015748031497,
          "duration": 0.08823524999999677
        },
        {
          "name": "C#2",
          "midi": 37,
          "time": 184.76461349999838,
          "velocity": 0.7874015748031497,
          "duration": 0.08823524999999677
        },
        {
          "name": "G#2",
          "midi": 44,
          "time": 184.76461349999838,
          "velocity": 0.7874015748031497,
          "duration": 0.08823524999999677
        },
        {
          "name": "B3",
          "midi": 59,
          "time": 184.94108399999837,
          "velocity": 0.7874015748031497,
          "duration": 0.17647049999999354
        },
        {
          "name": "F#3",
          "midi": 54,
          "time": 184.94108399999837,
          "velocity": 0.7874015748031497,
          "duration": 0.17647049999999354
        },
        {
          "name": "B2",
          "midi": 47,
          "time": 184.94108399999837,
          "velocity": 0.7874015748031497,
          "duration": 0.17647049999999354
        },
        {
          "name": "C#4",
          "midi": 61,
          "time": 185.11755449999836,
          "velocity": 0.7874015748031497,
          "duration": 0.35294099999998707
        },
        {
          "name": "G#3",
          "midi": 56,
          "time": 185.11755449999836,
          "velocity": 0.7874015748031497,
          "duration": 0.35294099999998707
        },
        {
          "name": "C#3",
          "midi": 49,
          "time": 185.11755449999836,
          "velocity": 0.7874015748031497,
          "duration": 0.35294099999998707
        },
        {
          "name": "D4",
          "midi": 62,
          "time": 185.47049549999835,
          "velocity": 0.7874015748031497,
          "duration": 0.35294099999998707
        },
        {
          "name": "A3",
          "midi": 57,
          "time": 185.47049549999835,
          "velocity": 0.7874015748031497,
          "duration": 0.35294099999998707
        },
        {
          "name": "D3",
          "midi": 50,
          "time": 185.47049549999835,
          "velocity": 0.7874015748031497,
          "duration": 0.35294099999998707
        },
        {
          "name": "C#4",
          "midi": 61,
          "time": 185.82343649999834,
          "velocity": 0.7874015748031497,
          "duration": 0.35294099999998707
        },
        {
          "name": "G#3",
          "midi": 56,
          "time": 185.82343649999834,
          "velocity": 0.7874015748031497,
          "duration": 0.35294099999998707
        },
        {
          "name": "C#3",
          "midi": 49,
          "time": 185.82343649999834,
          "velocity": 0.7874015748031497,
          "duration": 0.35294099999998707
        },
        {
          "name": "B3",
          "midi": 59,
          "time": 186.17637749999832,
          "velocity": 0.7874015748031497,
          "duration": 0.17647049999999354
        },
        {
          "name": "F#3",
          "midi": 54,
          "time": 186.17637749999832,
          "velocity": 0.7874015748031497,
          "duration": 0.17647049999999354
        },
        {
          "name": "B2",
          "midi": 47,
          "time": 186.17637749999832,
          "velocity": 0.7874015748031497,
          "duration": 0.17647049999999354
        },
        {
          "name": "B3",
          "midi": 59,
          "time": 186.35284799999832,
          "velocity": 0.7874015748031497,
          "duration": 0.17647049999999354
        },
        {
          "name": "F#3",
          "midi": 54,
          "time": 186.35284799999832,
          "velocity": 0.7874015748031497,
          "duration": 0.17647049999999354
        },
        {
          "name": "B2",
          "midi": 47,
          "time": 186.35284799999832,
          "velocity": 0.7874015748031497,
          "duration": 0.17647049999999354
        },
        {
          "name": "C#4",
          "midi": 61,
          "time": 186.5293184999983,
          "velocity": 0.7874015748031497,
          "duration": 0.17647049999999354
        },
        {
          "name": "G#3",
          "midi": 56,
          "time": 186.5293184999983,
          "velocity": 0.7874015748031497,
          "duration": 0.17647049999999354
        },
        {
          "name": "C#3",
          "midi": 49,
          "time": 186.5293184999983,
          "velocity": 0.7874015748031497,
          "duration": 0.17647049999999354
        },
        {
          "name": "C#4",
          "midi": 61,
          "time": 186.7057889999983,
          "velocity": 0.7874015748031497,
          "duration": 0.17647049999999354
        },
        {
          "name": "G#3",
          "midi": 56,
          "time": 186.7057889999983,
          "velocity": 0.7874015748031497,
          "duration": 0.17647049999999354
        },
        {
          "name": "C#3",
          "midi": 49,
          "time": 186.7057889999983,
          "velocity": 0.7874015748031497,
          "duration": 0.17647049999999354
        },
        {
          "name": "C#2",
          "midi": 37,
          "time": 186.8822594999983,
          "velocity": 0.7874015748031497,
          "duration": 0.08823524999999677
        },
        {
          "name": "G#2",
          "midi": 44,
          "time": 186.8822594999983,
          "velocity": 0.7874015748031497,
          "duration": 0.08823524999999677
        },
        {
          "name": "C#2",
          "midi": 37,
          "time": 187.0587299999983,
          "velocity": 0.7874015748031497,
          "duration": 0.08823524999999677
        },
        {
          "name": "G#2",
          "midi": 44,
          "time": 187.0587299999983,
          "velocity": 0.7874015748031497,
          "duration": 0.08823524999999677
        },
        {
          "name": "C#2",
          "midi": 37,
          "time": 187.23520049999829,
          "velocity": 0.7874015748031497,
          "duration": 0.08823524999999677
        },
        {
          "name": "G#2",
          "midi": 44,
          "time": 187.23520049999829,
          "velocity": 0.7874015748031497,
          "duration": 0.08823524999999677
        },
        {
          "name": "C#2",
          "midi": 37,
          "time": 187.41167099999828,
          "velocity": 0.7874015748031497,
          "duration": 0.08823524999999677
        },
        {
          "name": "G#2",
          "midi": 44,
          "time": 187.41167099999828,
          "velocity": 0.7874015748031497,
          "duration": 0.08823524999999677
        },
        {
          "name": "C#2",
          "midi": 37,
          "time": 187.58814149999827,
          "velocity": 0.7874015748031497,
          "duration": 0.08823524999999677
        },
        {
          "name": "G#2",
          "midi": 44,
          "time": 187.58814149999827,
          "velocity": 0.7874015748031497,
          "duration": 0.08823524999999677
        },
        {
          "name": "B3",
          "midi": 59,
          "time": 187.76461199999827,
          "velocity": 0.7874015748031497,
          "duration": 0.17647049999999354
        },
        {
          "name": "F#3",
          "midi": 54,
          "time": 187.76461199999827,
          "velocity": 0.7874015748031497,
          "duration": 0.17647049999999354
        },
        {
          "name": "B2",
          "midi": 47,
          "time": 187.76461199999827,
          "velocity": 0.7874015748031497,
          "duration": 0.17647049999999354
        },
        {
          "name": "C#4",
          "midi": 61,
          "time": 187.94108249999826,
          "velocity": 0.7874015748031497,
          "duration": 0.35294099999998707
        },
        {
          "name": "G#3",
          "midi": 56,
          "time": 187.94108249999826,
          "velocity": 0.7874015748031497,
          "duration": 0.35294099999998707
        },
        {
          "name": "C#3",
          "midi": 49,
          "time": 187.94108249999826,
          "velocity": 0.7874015748031497,
          "duration": 0.35294099999998707
        },
        {
          "name": "D4",
          "midi": 62,
          "time": 188.29402349999825,
          "velocity": 0.7874015748031497,
          "duration": 0.35294099999998707
        },
        {
          "name": "A3",
          "midi": 57,
          "time": 188.29402349999825,
          "velocity": 0.7874015748031497,
          "duration": 0.35294099999998707
        },
        {
          "name": "D3",
          "midi": 50,
          "time": 188.29402349999825,
          "velocity": 0.7874015748031497,
          "duration": 0.35294099999998707
        },
        {
          "name": "C#4",
          "midi": 61,
          "time": 188.64696449999823,
          "velocity": 0.7874015748031497,
          "duration": 0.35294099999998707
        },
        {
          "name": "G#3",
          "midi": 56,
          "time": 188.64696449999823,
          "velocity": 0.7874015748031497,
          "duration": 0.35294099999998707
        },
        {
          "name": "C#3",
          "midi": 49,
          "time": 188.64696449999823,
          "velocity": 0.7874015748031497,
          "duration": 0.35294099999998707
        },
        {
          "name": "B3",
          "midi": 59,
          "time": 188.99990549999822,
          "velocity": 0.7874015748031497,
          "duration": 0.17647049999999354
        },
        {
          "name": "F#3",
          "midi": 54,
          "time": 188.99990549999822,
          "velocity": 0.7874015748031497,
          "duration": 0.17647049999999354
        },
        {
          "name": "B2",
          "midi": 47,
          "time": 188.99990549999822,
          "velocity": 0.7874015748031497,
          "duration": 0.17647049999999354
        },
        {
          "name": "B3",
          "midi": 59,
          "time": 189.1763759999982,
          "velocity": 0.7874015748031497,
          "duration": 0.17647049999999354
        },
        {
          "name": "F#3",
          "midi": 54,
          "time": 189.1763759999982,
          "velocity": 0.7874015748031497,
          "duration": 0.17647049999999354
        },
        {
          "name": "B2",
          "midi": 47,
          "time": 189.1763759999982,
          "velocity": 0.7874015748031497,
          "duration": 0.17647049999999354
        },
        {
          "name": "C#4",
          "midi": 61,
          "time": 189.3528464999982,
          "velocity": 0.7874015748031497,
          "duration": 0.17647049999999354
        },
        {
          "name": "G#3",
          "midi": 56,
          "time": 189.3528464999982,
          "velocity": 0.7874015748031497,
          "duration": 0.17647049999999354
        },
        {
          "name": "C#3",
          "midi": 49,
          "time": 189.3528464999982,
          "velocity": 0.7874015748031497,
          "duration": 0.17647049999999354
        },
        {
          "name": "C#4",
          "midi": 61,
          "time": 189.5293169999982,
          "velocity": 0.7874015748031497,
          "duration": 0.17647049999999354
        },
        {
          "name": "G#3",
          "midi": 56,
          "time": 189.5293169999982,
          "velocity": 0.7874015748031497,
          "duration": 0.17647049999999354
        },
        {
          "name": "C#3",
          "midi": 49,
          "time": 189.5293169999982,
          "velocity": 0.7874015748031497,
          "duration": 0.17647049999999354
        },
        {
          "name": "C#2",
          "midi": 37,
          "time": 189.7057874999982,
          "velocity": 0.7874015748031497,
          "duration": 0.08823524999999677
        },
        {
          "name": "G#2",
          "midi": 44,
          "time": 189.7057874999982,
          "velocity": 0.7874015748031497,
          "duration": 0.08823524999999677
        },
        {
          "name": "C#2",
          "midi": 37,
          "time": 189.8822579999982,
          "velocity": 0.7874015748031497,
          "duration": 0.08823524999999677
        },
        {
          "name": "G#2",
          "midi": 44,
          "time": 189.8822579999982,
          "velocity": 0.7874015748031497,
          "duration": 0.08823524999999677
        },
        {
          "name": "C#2",
          "midi": 37,
          "time": 190.05872849999818,
          "velocity": 0.7874015748031497,
          "duration": 0.08823524999999677
        },
        {
          "name": "G#2",
          "midi": 44,
          "time": 190.05872849999818,
          "velocity": 0.7874015748031497,
          "duration": 0.08823524999999677
        },
        {
          "name": "C#2",
          "midi": 37,
          "time": 190.23519899999818,
          "velocity": 0.7874015748031497,
          "duration": 0.08823524999999677
        },
        {
          "name": "G#2",
          "midi": 44,
          "time": 190.23519899999818,
          "velocity": 0.7874015748031497,
          "duration": 0.08823524999999677
        },
        {
          "name": "C#2",
          "midi": 37,
          "time": 190.41166949999817,
          "velocity": 0.7874015748031497,
          "duration": 0.08823524999999677
        },
        {
          "name": "G#2",
          "midi": 44,
          "time": 190.41166949999817,
          "velocity": 0.7874015748031497,
          "duration": 0.08823524999999677
        },
        {
          "name": "B3",
          "midi": 59,
          "time": 190.58813999999816,
          "velocity": 0.7874015748031497,
          "duration": 0.17647049999999354
        },
        {
          "name": "F#3",
          "midi": 54,
          "time": 190.58813999999816,
          "velocity": 0.7874015748031497,
          "duration": 0.17647049999999354
        },
        {
          "name": "B2",
          "midi": 47,
          "time": 190.58813999999816,
          "velocity": 0.7874015748031497,
          "duration": 0.17647049999999354
        },
        {
          "name": "C#4",
          "midi": 61,
          "time": 190.76461049999816,
          "velocity": 0.7874015748031497,
          "duration": 0.35294099999998707
        },
        {
          "name": "G#3",
          "midi": 56,
          "time": 190.76461049999816,
          "velocity": 0.7874015748031497,
          "duration": 0.35294099999998707
        },
        {
          "name": "C#3",
          "midi": 49,
          "time": 190.76461049999816,
          "velocity": 0.7874015748031497,
          "duration": 0.35294099999998707
        },
        {
          "name": "D4",
          "midi": 62,
          "time": 191.11755149999814,
          "velocity": 0.7874015748031497,
          "duration": 0.35294099999998707
        },
        {
          "name": "A3",
          "midi": 57,
          "time": 191.11755149999814,
          "velocity": 0.7874015748031497,
          "duration": 0.35294099999998707
        },
        {
          "name": "D3",
          "midi": 50,
          "time": 191.11755149999814,
          "velocity": 0.7874015748031497,
          "duration": 0.35294099999998707
        },
        {
          "name": "C#4",
          "midi": 61,
          "time": 191.47049249999813,
          "velocity": 0.7874015748031497,
          "duration": 0.35294099999998707
        },
        {
          "name": "G#3",
          "midi": 56,
          "time": 191.47049249999813,
          "velocity": 0.7874015748031497,
          "duration": 0.35294099999998707
        },
        {
          "name": "C#3",
          "midi": 49,
          "time": 191.47049249999813,
          "velocity": 0.7874015748031497,
          "duration": 0.35294099999998707
        },
        {
          "name": "B3",
          "midi": 59,
          "time": 191.82343349999812,
          "velocity": 0.7874015748031497,
          "duration": 0.17647049999999354
        },
        {
          "name": "F#3",
          "midi": 54,
          "time": 191.82343349999812,
          "velocity": 0.7874015748031497,
          "duration": 0.17647049999999354
        },
        {
          "name": "B2",
          "midi": 47,
          "time": 191.82343349999812,
          "velocity": 0.7874015748031497,
          "duration": 0.17647049999999354
        },
        {
          "name": "B3",
          "midi": 59,
          "time": 191.9999039999981,
          "velocity": 0.7874015748031497,
          "duration": 0.17647049999999354
        },
        {
          "name": "F#3",
          "midi": 54,
          "time": 191.9999039999981,
          "velocity": 0.7874015748031497,
          "duration": 0.17647049999999354
        },
        {
          "name": "B2",
          "midi": 47,
          "time": 191.9999039999981,
          "velocity": 0.7874015748031497,
          "duration": 0.17647049999999354
        },
        {
          "name": "C#4",
          "midi": 61,
          "time": 192.1763744999981,
          "velocity": 0.7874015748031497,
          "duration": 0.17647049999999354
        },
        {
          "name": "G#3",
          "midi": 56,
          "time": 192.1763744999981,
          "velocity": 0.7874015748031497,
          "duration": 0.17647049999999354
        },
        {
          "name": "C#3",
          "midi": 49,
          "time": 192.1763744999981,
          "velocity": 0.7874015748031497,
          "duration": 0.17647049999999354
        },
        {
          "name": "C#4",
          "midi": 61,
          "time": 192.3528449999981,
          "velocity": 0.7874015748031497,
          "duration": 0.17647049999999354
        },
        {
          "name": "G#3",
          "midi": 56,
          "time": 192.3528449999981,
          "velocity": 0.7874015748031497,
          "duration": 0.17647049999999354
        },
        {
          "name": "C#3",
          "midi": 49,
          "time": 192.3528449999981,
          "velocity": 0.7874015748031497,
          "duration": 0.17647049999999354
        },
        {
          "name": "C#2",
          "midi": 37,
          "time": 192.5293154999981,
          "velocity": 0.7874015748031497,
          "duration": 0.08823524999999677
        },
        {
          "name": "G#2",
          "midi": 44,
          "time": 192.5293154999981,
          "velocity": 0.7874015748031497,
          "duration": 0.08823524999999677
        },
        {
          "name": "C#2",
          "midi": 37,
          "time": 192.70578599999808,
          "velocity": 0.7874015748031497,
          "duration": 0.08823524999999677
        },
        {
          "name": "G#2",
          "midi": 44,
          "time": 192.70578599999808,
          "velocity": 0.7874015748031497,
          "duration": 0.08823524999999677
        },
        {
          "name": "C#2",
          "midi": 37,
          "time": 192.88225649999808,
          "velocity": 0.7874015748031497,
          "duration": 0.08823524999999677
        },
        {
          "name": "G#2",
          "midi": 44,
          "time": 192.88225649999808,
          "velocity": 0.7874015748031497,
          "duration": 0.08823524999999677
        },
        {
          "name": "C#2",
          "midi": 37,
          "time": 193.05872699999807,
          "velocity": 0.7874015748031497,
          "duration": 0.08823524999999677
        },
        {
          "name": "G#2",
          "midi": 44,
          "time": 193.05872699999807,
          "velocity": 0.7874015748031497,
          "duration": 0.08823524999999677
        },
        {
          "name": "C#2",
          "midi": 37,
          "time": 193.23519749999807,
          "velocity": 0.7874015748031497,
          "duration": 0.08823524999999677
        },
        {
          "name": "G#2",
          "midi": 44,
          "time": 193.23519749999807,
          "velocity": 0.7874015748031497,
          "duration": 0.08823524999999677
        },
        {
          "name": "B3",
          "midi": 59,
          "time": 193.41166799999806,
          "velocity": 0.7874015748031497,
          "duration": 0.17647049999999354
        },
        {
          "name": "F#3",
          "midi": 54,
          "time": 193.41166799999806,
          "velocity": 0.7874015748031497,
          "duration": 0.17647049999999354
        },
        {
          "name": "B2",
          "midi": 47,
          "time": 193.41166799999806,
          "velocity": 0.7874015748031497,
          "duration": 0.17647049999999354
        },
        {
          "name": "C#4",
          "midi": 61,
          "time": 193.58813849999805,
          "velocity": 0.7874015748031497,
          "duration": 0.35294099999998707
        },
        {
          "name": "G#3",
          "midi": 56,
          "time": 193.58813849999805,
          "velocity": 0.7874015748031497,
          "duration": 0.35294099999998707
        },
        {
          "name": "C#3",
          "midi": 49,
          "time": 193.58813849999805,
          "velocity": 0.7874015748031497,
          "duration": 0.35294099999998707
        },
        {
          "name": "D4",
          "midi": 62,
          "time": 193.94107949999804,
          "velocity": 0.7874015748031497,
          "duration": 0.35294099999998707
        },
        {
          "name": "A3",
          "midi": 57,
          "time": 193.94107949999804,
          "velocity": 0.7874015748031497,
          "duration": 0.35294099999998707
        },
        {
          "name": "D3",
          "midi": 50,
          "time": 193.94107949999804,
          "velocity": 0.7874015748031497,
          "duration": 0.35294099999998707
        },
        {
          "name": "C#4",
          "midi": 61,
          "time": 194.29402049999803,
          "velocity": 0.7874015748031497,
          "duration": 0.35294099999998707
        },
        {
          "name": "G#3",
          "midi": 56,
          "time": 194.29402049999803,
          "velocity": 0.7874015748031497,
          "duration": 0.35294099999998707
        },
        {
          "name": "C#3",
          "midi": 49,
          "time": 194.29402049999803,
          "velocity": 0.7874015748031497,
          "duration": 0.35294099999998707
        },
        {
          "name": "B3",
          "midi": 59,
          "time": 194.646961499998,
          "velocity": 0.7874015748031497,
          "duration": 0.17647049999999354
        },
        {
          "name": "F#3",
          "midi": 54,
          "time": 194.646961499998,
          "velocity": 0.7874015748031497,
          "duration": 0.17647049999999354
        },
        {
          "name": "B2",
          "midi": 47,
          "time": 194.646961499998,
          "velocity": 0.7874015748031497,
          "duration": 0.17647049999999354
        },
        {
          "name": "B3",
          "midi": 59,
          "time": 194.823431999998,
          "velocity": 0.7874015748031497,
          "duration": 0.17647049999999354
        },
        {
          "name": "F#3",
          "midi": 54,
          "time": 194.823431999998,
          "velocity": 0.7874015748031497,
          "duration": 0.17647049999999354
        },
        {
          "name": "B2",
          "midi": 47,
          "time": 194.823431999998,
          "velocity": 0.7874015748031497,
          "duration": 0.17647049999999354
        },
        {
          "name": "C#4",
          "midi": 61,
          "time": 194.999902499998,
          "velocity": 0.7874015748031497,
          "duration": 0.17647049999999354
        },
        {
          "name": "G#3",
          "midi": 56,
          "time": 194.999902499998,
          "velocity": 0.7874015748031497,
          "duration": 0.17647049999999354
        },
        {
          "name": "C#3",
          "midi": 49,
          "time": 194.999902499998,
          "velocity": 0.7874015748031497,
          "duration": 0.17647049999999354
        },
        {
          "name": "C#4",
          "midi": 61,
          "time": 195.176372999998,
          "velocity": 0.7874015748031497,
          "duration": 0.17647049999999354
        },
        {
          "name": "G#3",
          "midi": 56,
          "time": 195.176372999998,
          "velocity": 0.7874015748031497,
          "duration": 0.17647049999999354
        },
        {
          "name": "C#3",
          "midi": 49,
          "time": 195.176372999998,
          "velocity": 0.7874015748031497,
          "duration": 0.17647049999999354
        },
        {
          "name": "C#2",
          "midi": 37,
          "time": 195.352843499998,
          "velocity": 0.7874015748031497,
          "duration": 0.08823524999999677
        },
        {
          "name": "G#2",
          "midi": 44,
          "time": 195.352843499998,
          "velocity": 0.7874015748031497,
          "duration": 0.08823524999999677
        },
        {
          "name": "C#2",
          "midi": 37,
          "time": 195.52931399999798,
          "velocity": 0.7874015748031497,
          "duration": 0.08823524999999677
        },
        {
          "name": "G#2",
          "midi": 44,
          "time": 195.52931399999798,
          "velocity": 0.7874015748031497,
          "duration": 0.08823524999999677
        },
        {
          "name": "C#2",
          "midi": 37,
          "time": 195.70578449999797,
          "velocity": 0.7874015748031497,
          "duration": 0.08823524999999677
        },
        {
          "name": "G#2",
          "midi": 44,
          "time": 195.70578449999797,
          "velocity": 0.7874015748031497,
          "duration": 0.08823524999999677
        },
        {
          "name": "C#2",
          "midi": 37,
          "time": 195.88225499999797,
          "velocity": 0.7874015748031497,
          "duration": 0.08823524999999677
        },
        {
          "name": "G#2",
          "midi": 44,
          "time": 195.88225499999797,
          "velocity": 0.7874015748031497,
          "duration": 0.08823524999999677
        },
        {
          "name": "C#2",
          "midi": 37,
          "time": 196.05872549999796,
          "velocity": 0.7874015748031497,
          "duration": 0.08823524999999677
        },
        {
          "name": "G#2",
          "midi": 44,
          "time": 196.05872549999796,
          "velocity": 0.7874015748031497,
          "duration": 0.08823524999999677
        },
        {
          "name": "B3",
          "midi": 59,
          "time": 196.23519599999796,
          "velocity": 0.7874015748031497,
          "duration": 0.17647049999999354
        },
        {
          "name": "F#3",
          "midi": 54,
          "time": 196.23519599999796,
          "velocity": 0.7874015748031497,
          "duration": 0.17647049999999354
        },
        {
          "name": "B2",
          "midi": 47,
          "time": 196.23519599999796,
          "velocity": 0.7874015748031497,
          "duration": 0.17647049999999354
        },
        {
          "name": "C#4",
          "midi": 61,
          "time": 196.41166649999795,
          "velocity": 0.7874015748031497,
          "duration": 0.35294099999998707
        },
        {
          "name": "G#3",
          "midi": 56,
          "time": 196.41166649999795,
          "velocity": 0.7874015748031497,
          "duration": 0.35294099999998707
        },
        {
          "name": "C#3",
          "midi": 49,
          "time": 196.41166649999795,
          "velocity": 0.7874015748031497,
          "duration": 0.35294099999998707
        },
        {
          "name": "D4",
          "midi": 62,
          "time": 196.76460749999794,
          "velocity": 0.7874015748031497,
          "duration": 0.35294099999998707
        },
        {
          "name": "A3",
          "midi": 57,
          "time": 196.76460749999794,
          "velocity": 0.7874015748031497,
          "duration": 0.35294099999998707
        },
        {
          "name": "D3",
          "midi": 50,
          "time": 196.76460749999794,
          "velocity": 0.7874015748031497,
          "duration": 0.35294099999998707
        },
        {
          "name": "C#4",
          "midi": 61,
          "time": 197.11754849999792,
          "velocity": 0.7874015748031497,
          "duration": 0.35294099999998707
        },
        {
          "name": "G#3",
          "midi": 56,
          "time": 197.11754849999792,
          "velocity": 0.7874015748031497,
          "duration": 0.35294099999998707
        },
        {
          "name": "C#3",
          "midi": 49,
          "time": 197.11754849999792,
          "velocity": 0.7874015748031497,
          "duration": 0.35294099999998707
        },
        {
          "name": "B3",
          "midi": 59,
          "time": 197.4704894999979,
          "velocity": 0.7874015748031497,
          "duration": 0.17647049999999354
        },
        {
          "name": "F#3",
          "midi": 54,
          "time": 197.4704894999979,
          "velocity": 0.7874015748031497,
          "duration": 0.17647049999999354
        },
        {
          "name": "B2",
          "midi": 47,
          "time": 197.4704894999979,
          "velocity": 0.7874015748031497,
          "duration": 0.17647049999999354
        },
        {
          "name": "G#4",
          "midi": 68,
          "time": 197.6469599999979,
          "velocity": 0.7874015748031497,
          "duration": 0.17647049999999354
        },
        {
          "name": "C#4",
          "midi": 61,
          "time": 197.6469599999979,
          "velocity": 0.7874015748031497,
          "duration": 0.17647049999999354
        },
        {
          "name": "C#5",
          "midi": 73,
          "time": 197.6469599999979,
          "velocity": 0.7874015748031497,
          "duration": 0.17647049999999354
        },
        {
          "name": "F#4",
          "midi": 66,
          "time": 197.8234304999979,
          "velocity": 0.7874015748031497,
          "duration": 0.17647049999999354
        },
        {
          "name": "B3",
          "midi": 59,
          "time": 197.8234304999979,
          "velocity": 0.7874015748031497,
          "duration": 0.17647049999999354
        },
        {
          "name": "B4",
          "midi": 71,
          "time": 197.8234304999979,
          "velocity": 0.7874015748031497,
          "duration": 0.17647049999999354
        },
        {
          "name": "D#4",
          "midi": 63,
          "time": 198.17637149999788,
          "velocity": 0.7874015748031497,
          "duration": 0.17647049999999354
        },
        {
          "name": "G#3",
          "midi": 56,
          "time": 198.17637149999788,
          "velocity": 0.7874015748031497,
          "duration": 0.17647049999999354
        },
        {
          "name": "G#4",
          "midi": 68,
          "time": 198.17637149999788,
          "velocity": 0.7874015748031497,
          "duration": 0.17647049999999354
        },
        {
          "name": "C#4",
          "midi": 61,
          "time": 198.52931249999787,
          "velocity": 0.7874015748031497,
          "duration": 0.17647049999999354
        },
        {
          "name": "F#3",
          "midi": 54,
          "time": 198.52931249999787,
          "velocity": 0.7874015748031497,
          "duration": 0.17647049999999354
        },
        {
          "name": "F#4",
          "midi": 66,
          "time": 198.52931249999787,
          "velocity": 0.7874015748031497,
          "duration": 0.17647049999999354
        },
        {
          "name": "B3",
          "midi": 59,
          "time": 198.88225349999786,
          "velocity": 0.7874015748031497,
          "duration": 0.17647049999999354
        },
        {
          "name": "E3",
          "midi": 52,
          "time": 198.88225349999786,
          "velocity": 0.7874015748031497,
          "duration": 0.17647049999999354
        },
        {
          "name": "E4",
          "midi": 64,
          "time": 198.88225349999786,
          "velocity": 0.7874015748031497,
          "duration": 0.17647049999999354
        },
        {
          "name": "G#3",
          "midi": 56,
          "time": 199.22931214999784,
          "velocity": 0.7874015748031497,
          "duration": 0.17647049999999354
        },
        {
          "name": "C#3",
          "midi": 49,
          "time": 199.22931214999784,
          "velocity": 0.7874015748031497,
          "duration": 0.17647049999999354
        },
        {
          "name": "C#4",
          "midi": 61,
          "time": 199.22931214999784,
          "velocity": 0.7874015748031497,
          "duration": 0.17647049999999354
        },
        {
          "name": "F#3",
          "midi": 54,
          "time": 199.58813549999783,
          "velocity": 0.7874015748031497,
          "duration": 0.17647049999999354
        },
        {
          "name": "B2",
          "midi": 47,
          "time": 199.58813549999783,
          "velocity": 0.7874015748031497,
          "duration": 0.17647049999999354
        },
        {
          "name": "B3",
          "midi": 59,
          "time": 199.58813549999783,
          "velocity": 0.7874015748031497,
          "duration": 0.17647049999999354
        },
        {
          "name": "F#3",
          "midi": 54,
          "time": 199.76460599999783,
          "velocity": 0.7874015748031497,
          "duration": 0.17647049999999354
        },
        {
          "name": "B2",
          "midi": 47,
          "time": 199.76460599999783,
          "velocity": 0.7874015748031497,
          "duration": 0.17647049999999354
        },
        {
          "name": "B3",
          "midi": 59,
          "time": 199.76460599999783,
          "velocity": 0.7874015748031497,
          "duration": 0.17647049999999354
        },
        {
          "name": "G#3",
          "midi": 56,
          "time": 199.94107649999782,
          "velocity": 0.7874015748031497,
          "duration": 0.17647049999999354
        },
        {
          "name": "C#3",
          "midi": 49,
          "time": 199.94107649999782,
          "velocity": 0.7874015748031497,
          "duration": 0.17647049999999354
        },
        {
          "name": "C#4",
          "midi": 61,
          "time": 199.94107649999782,
          "velocity": 0.7874015748031497,
          "duration": 0.17647049999999354
        },
        {
          "name": "G#3",
          "midi": 56,
          "time": 200.1175469999978,
          "velocity": 0.7874015748031497,
          "duration": 0.17647049999999354
        },
        {
          "name": "C#3",
          "midi": 49,
          "time": 200.1175469999978,
          "velocity": 0.7874015748031497,
          "duration": 0.17647049999999354
        },
        {
          "name": "C#4",
          "midi": 61,
          "time": 200.1175469999978,
          "velocity": 0.7874015748031497,
          "duration": 0.17647049999999354
        },
        {
          "name": "G#4",
          "midi": 68,
          "time": 200.4704879999978,
          "velocity": 0.7874015748031497,
          "duration": 0.17647049999999354
        },
        {
          "name": "C#4",
          "midi": 61,
          "time": 200.4704879999978,
          "velocity": 0.7874015748031497,
          "duration": 0.17647049999999354
        },
        {
          "name": "C#5",
          "midi": 73,
          "time": 200.4704879999978,
          "velocity": 0.7874015748031497,
          "duration": 0.17647049999999354
        },
        {
          "name": "F#4",
          "midi": 66,
          "time": 200.6469584999978,
          "velocity": 0.7874015748031497,
          "duration": 0.17647049999999354
        },
        {
          "name": "B3",
          "midi": 59,
          "time": 200.6469584999978,
          "velocity": 0.7874015748031497,
          "duration": 0.17647049999999354
        },
        {
          "name": "B4",
          "midi": 71,
          "time": 200.6469584999978,
          "velocity": 0.7874015748031497,
          "duration": 0.17647049999999354
        },
        {
          "name": "D#4",
          "midi": 63,
          "time": 200.99989949999778,
          "velocity": 0.7874015748031497,
          "duration": 0.17647049999999354
        },
        {
          "name": "G#3",
          "midi": 56,
          "time": 200.99989949999778,
          "velocity": 0.7874015748031497,
          "duration": 0.17647049999999354
        },
        {
          "name": "G#4",
          "midi": 68,
          "time": 200.99989949999778,
          "velocity": 0.7874015748031497,
          "duration": 0.17647049999999354
        },
        {
          "name": "C#4",
          "midi": 61,
          "time": 201.35284049999777,
          "velocity": 0.7874015748031497,
          "duration": 0.17647049999999354
        },
        {
          "name": "F#3",
          "midi": 54,
          "time": 201.35284049999777,
          "velocity": 0.7874015748031497,
          "duration": 0.17647049999999354
        },
        {
          "name": "F#4",
          "midi": 66,
          "time": 201.35284049999777,
          "velocity": 0.7874015748031497,
          "duration": 0.17647049999999354
        },
        {
          "name": "B3",
          "midi": 59,
          "time": 201.70578149999776,
          "velocity": 0.7874015748031497,
          "duration": 0.17647049999999354
        },
        {
          "name": "E3",
          "midi": 52,
          "time": 201.70578149999776,
          "velocity": 0.7874015748031497,
          "duration": 0.17647049999999354
        },
        {
          "name": "E4",
          "midi": 64,
          "time": 201.70578149999776,
          "velocity": 0.7874015748031497,
          "duration": 0.17647049999999354
        },
        {
          "name": "G#3",
          "midi": 56,
          "time": 202.05284014999773,
          "velocity": 0.7874015748031497,
          "duration": 0.17647049999999354
        },
        {
          "name": "C#3",
          "midi": 49,
          "time": 202.05284014999773,
          "velocity": 0.7874015748031497,
          "duration": 0.17647049999999354
        },
        {
          "name": "C#4",
          "midi": 61,
          "time": 202.05284014999773,
          "velocity": 0.7874015748031497,
          "duration": 0.17647049999999354
        },
        {
          "name": "F#3",
          "midi": 54,
          "time": 202.41166349999773,
          "velocity": 0.7874015748031497,
          "duration": 0.17647049999999354
        },
        {
          "name": "B2",
          "midi": 47,
          "time": 202.41166349999773,
          "velocity": 0.7874015748031497,
          "duration": 0.17647049999999354
        },
        {
          "name": "B3",
          "midi": 59,
          "time": 202.41166349999773,
          "velocity": 0.7874015748031497,
          "duration": 0.17647049999999354
        },
        {
          "name": "F#3",
          "midi": 54,
          "time": 202.58813399999772,
          "velocity": 0.7874015748031497,
          "duration": 0.17647049999999354
        },
        {
          "name": "B2",
          "midi": 47,
          "time": 202.58813399999772,
          "velocity": 0.7874015748031497,
          "duration": 0.17647049999999354
        },
        {
          "name": "B3",
          "midi": 59,
          "time": 202.58813399999772,
          "velocity": 0.7874015748031497,
          "duration": 0.17647049999999354
        },
        {
          "name": "G#3",
          "midi": 56,
          "time": 202.76460449999772,
          "velocity": 0.7874015748031497,
          "duration": 0.17647049999999354
        },
        {
          "name": "C#3",
          "midi": 49,
          "time": 202.76460449999772,
          "velocity": 0.7874015748031497,
          "duration": 0.17647049999999354
        },
        {
          "name": "C#4",
          "midi": 61,
          "time": 202.76460449999772,
          "velocity": 0.7874015748031497,
          "duration": 0.17647049999999354
        },
        {
          "name": "G#3",
          "midi": 56,
          "time": 202.9410749999977,
          "velocity": 0.7874015748031497,
          "duration": 0.17647049999999354
        },
        {
          "name": "C#3",
          "midi": 49,
          "time": 202.9410749999977,
          "velocity": 0.7874015748031497,
          "duration": 0.17647049999999354
        },
        {
          "name": "C#4",
          "midi": 61,
          "time": 202.9410749999977,
          "velocity": 0.7874015748031497,
          "duration": 0.17647049999999354
        },
        {
          "name": "F#3",
          "midi": 54,
          "time": 203.2940159999977,
          "velocity": 0.7874015748031497,
          "duration": 0.35294099999998707
        },
        {
          "name": "B3",
          "midi": 59,
          "time": 203.2940159999977,
          "velocity": 0.7874015748031497,
          "duration": 0.35294099999998707
        },
        {
          "name": "B2",
          "midi": 47,
          "time": 203.2940159999977,
          "velocity": 0.7874015748031497,
          "duration": 0.35294099999998707
        },
        {
          "name": "F#3",
          "midi": 54,
          "time": 203.64695699999768,
          "velocity": 0.7874015748031497,
          "duration": 0.35294099999998707
        },
        {
          "name": "B3",
          "midi": 59,
          "time": 203.64695699999768,
          "velocity": 0.7874015748031497,
          "duration": 0.35294099999998707
        },
        {
          "name": "B2",
          "midi": 47,
          "time": 203.64695699999768,
          "velocity": 0.7874015748031497,
          "duration": 0.35294099999998707
        },
        {
          "name": "A3",
          "midi": 57,
          "time": 203.99989799999767,
          "velocity": 0.7874015748031497,
          "duration": 0.17647049999999354
        },
        {
          "name": "D4",
          "midi": 62,
          "time": 203.99989799999767,
          "velocity": 0.7874015748031497,
          "duration": 0.17647049999999354
        },
        {
          "name": "D3",
          "midi": 50,
          "time": 203.99989799999767,
          "velocity": 0.7874015748031497,
          "duration": 0.17647049999999354
        },
        {
          "name": "A#3",
          "midi": 58,
          "time": 204.17636849999766,
          "velocity": 0.7874015748031497,
          "duration": 0.17647049999999354
        },
        {
          "name": "D#4",
          "midi": 63,
          "time": 204.17636849999766,
          "velocity": 0.7874015748031497,
          "duration": 0.17647049999999354
        },
        {
          "name": "D#3",
          "midi": 51,
          "time": 204.17636849999766,
          "velocity": 0.7874015748031497,
          "duration": 0.17647049999999354
        },
        {
          "name": "B3",
          "midi": 59,
          "time": 204.35283899999766,
          "velocity": 0.7874015748031497,
          "duration": 0.35294099999998707
        },
        {
          "name": "E4",
          "midi": 64,
          "time": 204.35283899999766,
          "velocity": 0.7874015748031497,
          "duration": 0.35294099999998707
        },
        {
          "name": "E3",
          "midi": 52,
          "time": 204.35283899999766,
          "velocity": 0.7874015748031497,
          "duration": 0.35294099999998707
        },
        {
          "name": "B3",
          "midi": 59,
          "time": 204.70577999999765,
          "velocity": 0.7874015748031497,
          "duration": 0.17647049999999354
        },
        {
          "name": "E4",
          "midi": 64,
          "time": 204.70577999999765,
          "velocity": 0.7874015748031497,
          "duration": 0.17647049999999354
        },
        {
          "name": "E3",
          "midi": 52,
          "time": 204.70577999999765,
          "velocity": 0.7874015748031497,
          "duration": 0.17647049999999354
        },
        {
          "name": "C4",
          "midi": 60,
          "time": 204.88225049999764,
          "velocity": 0.7874015748031497,
          "duration": 0.17647049999999354
        },
        {
          "name": "F4",
          "midi": 65,
          "time": 204.88225049999764,
          "velocity": 0.7874015748031497,
          "duration": 0.17647049999999354
        },
        {
          "name": "F3",
          "midi": 53,
          "time": 204.88225049999764,
          "velocity": 0.7874015748031497,
          "duration": 0.17647049999999354
        },
        {
          "name": "C#4",
          "midi": 61,
          "time": 205.05872099999763,
          "velocity": 0.7874015748031497,
          "duration": 0.35294099999998707
        },
        {
          "name": "F#4",
          "midi": 66,
          "time": 205.05872099999763,
          "velocity": 0.7874015748031497,
          "duration": 0.35294099999998707
        },
        {
          "name": "F#3",
          "midi": 54,
          "time": 205.05872099999763,
          "velocity": 0.7874015748031497,
          "duration": 0.35294099999998707
        },
        {
          "name": "E4",
          "midi": 64,
          "time": 205.41166199999762,
          "velocity": 0.7874015748031497,
          "duration": 0.17647049999999354
        },
        {
          "name": "A4",
          "midi": 69,
          "time": 205.41166199999762,
          "velocity": 0.7874015748031497,
          "duration": 0.17647049999999354
        },
        {
          "name": "A3",
          "midi": 57,
          "time": 205.41166199999762,
          "velocity": 0.7874015748031497,
          "duration": 0.17647049999999354
        },
        {
          "name": "F4",
          "midi": 65,
          "time": 205.5881324999976,
          "velocity": 0.7874015748031497,
          "duration": 0.17647049999999354
        },
        {
          "name": "A#4",
          "midi": 70,
          "time": 205.5881324999976,
          "velocity": 0.7874015748031497,
          "duration": 0.17647049999999354
        },
        {
          "name": "A#3",
          "midi": 58,
          "time": 205.5881324999976,
          "velocity": 0.7874015748031497,
          "duration": 0.17647049999999354
        },
        {
          "name": "F#4",
          "midi": 66,
          "time": 205.7646029999976,
          "velocity": 0.7874015748031497,
          "duration": 0.35294099999998707
        },
        {
          "name": "B4",
          "midi": 71,
          "time": 205.7646029999976,
          "velocity": 0.7874015748031497,
          "duration": 0.35294099999998707
        },
        {
          "name": "B3",
          "midi": 59,
          "time": 205.7646029999976,
          "velocity": 0.7874015748031497,
          "duration": 0.35294099999998707
        },
        {
          "name": "F#3",
          "midi": 54,
          "time": 206.1175439999976,
          "velocity": 0.7874015748031497,
          "duration": 0.35294099999998707
        },
        {
          "name": "B3",
          "midi": 59,
          "time": 206.1175439999976,
          "velocity": 0.7874015748031497,
          "duration": 0.35294099999998707
        },
        {
          "name": "B2",
          "midi": 47,
          "time": 206.1175439999976,
          "velocity": 0.7874015748031497,
          "duration": 0.35294099999998707
        },
        {
          "name": "F#3",
          "midi": 54,
          "time": 206.47048499999758,
          "velocity": 0.7874015748031497,
          "duration": 0.35294099999998707
        },
        {
          "name": "B3",
          "midi": 59,
          "time": 206.47048499999758,
          "velocity": 0.7874015748031497,
          "duration": 0.35294099999998707
        },
        {
          "name": "B2",
          "midi": 47,
          "time": 206.47048499999758,
          "velocity": 0.7874015748031497,
          "duration": 0.35294099999998707
        },
        {
          "name": "A3",
          "midi": 57,
          "time": 206.82342599999757,
          "velocity": 0.7874015748031497,
          "duration": 0.17647049999999354
        },
        {
          "name": "D4",
          "midi": 62,
          "time": 206.82342599999757,
          "velocity": 0.7874015748031497,
          "duration": 0.17647049999999354
        },
        {
          "name": "D3",
          "midi": 50,
          "time": 206.82342599999757,
          "velocity": 0.7874015748031497,
          "duration": 0.17647049999999354
        },
        {
          "name": "A#3",
          "midi": 58,
          "time": 206.99989649999756,
          "velocity": 0.7874015748031497,
          "duration": 0.17647049999999354
        },
        {
          "name": "D#4",
          "midi": 63,
          "time": 206.99989649999756,
          "velocity": 0.7874015748031497,
          "duration": 0.17647049999999354
        },
        {
          "name": "D#3",
          "midi": 51,
          "time": 206.99989649999756,
          "velocity": 0.7874015748031497,
          "duration": 0.17647049999999354
        },
        {
          "name": "B3",
          "midi": 59,
          "time": 207.17636699999755,
          "velocity": 0.7874015748031497,
          "duration": 0.35294099999998707
        },
        {
          "name": "E4",
          "midi": 64,
          "time": 207.17636699999755,
          "velocity": 0.7874015748031497,
          "duration": 0.35294099999998707
        },
        {
          "name": "E3",
          "midi": 52,
          "time": 207.17636699999755,
          "velocity": 0.7874015748031497,
          "duration": 0.35294099999998707
        },
        {
          "name": "B3",
          "midi": 59,
          "time": 207.52930799999754,
          "velocity": 0.7874015748031497,
          "duration": 0.17647049999999354
        },
        {
          "name": "E4",
          "midi": 64,
          "time": 207.52930799999754,
          "velocity": 0.7874015748031497,
          "duration": 0.17647049999999354
        },
        {
          "name": "E3",
          "midi": 52,
          "time": 207.52930799999754,
          "velocity": 0.7874015748031497,
          "duration": 0.17647049999999354
        },
        {
          "name": "C4",
          "midi": 60,
          "time": 207.70577849999754,
          "velocity": 0.7874015748031497,
          "duration": 0.17647049999999354
        },
        {
          "name": "F4",
          "midi": 65,
          "time": 207.70577849999754,
          "velocity": 0.7874015748031497,
          "duration": 0.17647049999999354
        },
        {
          "name": "F3",
          "midi": 53,
          "time": 207.70577849999754,
          "velocity": 0.7874015748031497,
          "duration": 0.17647049999999354
        },
        {
          "name": "C#4",
          "midi": 61,
          "time": 207.88224899999753,
          "velocity": 0.7874015748031497,
          "duration": 0.35294099999998707
        },
        {
          "name": "F#4",
          "midi": 66,
          "time": 207.88224899999753,
          "velocity": 0.7874015748031497,
          "duration": 0.35294099999998707
        },
        {
          "name": "F#3",
          "midi": 54,
          "time": 207.88224899999753,
          "velocity": 0.7874015748031497,
          "duration": 0.35294099999998707
        },
        {
          "name": "E4",
          "midi": 64,
          "time": 208.23518999999752,
          "velocity": 0.7874015748031497,
          "duration": 0.17647049999999354
        },
        {
          "name": "A4",
          "midi": 69,
          "time": 208.23518999999752,
          "velocity": 0.7874015748031497,
          "duration": 0.17647049999999354
        },
        {
          "name": "A3",
          "midi": 57,
          "time": 208.23518999999752,
          "velocity": 0.7874015748031497,
          "duration": 0.17647049999999354
        },
        {
          "name": "F4",
          "midi": 65,
          "time": 208.4116604999975,
          "velocity": 0.7874015748031497,
          "duration": 0.17647049999999354
        },
        {
          "name": "A#4",
          "midi": 70,
          "time": 208.4116604999975,
          "velocity": 0.7874015748031497,
          "duration": 0.17647049999999354
        },
        {
          "name": "A#3",
          "midi": 58,
          "time": 208.4116604999975,
          "velocity": 0.7874015748031497,
          "duration": 0.17647049999999354
        },
        {
          "name": "F#4",
          "midi": 66,
          "time": 208.5881309999975,
          "velocity": 0.7874015748031497,
          "duration": 0.35294099999998707
        },
        {
          "name": "B4",
          "midi": 71,
          "time": 208.5881309999975,
          "velocity": 0.7874015748031497,
          "duration": 0.35294099999998707
        },
        {
          "name": "B3",
          "midi": 59,
          "time": 208.5881309999975,
          "velocity": 0.7874015748031497,
          "duration": 0.35294099999998707
        },
        {
          "name": "F#3",
          "midi": 54,
          "time": 208.9410719999975,
          "velocity": 0.7874015748031497,
          "duration": 0.35294099999998707
        },
        {
          "name": "B3",
          "midi": 59,
          "time": 208.9410719999975,
          "velocity": 0.7874015748031497,
          "duration": 0.35294099999998707
        },
        {
          "name": "B2",
          "midi": 47,
          "time": 208.9410719999975,
          "velocity": 0.7874015748031497,
          "duration": 0.35294099999998707
        },
        {
          "name": "F#3",
          "midi": 54,
          "time": 209.29401299999748,
          "velocity": 0.7874015748031497,
          "duration": 0.35294099999998707
        },
        {
          "name": "B3",
          "midi": 59,
          "time": 209.29401299999748,
          "velocity": 0.7874015748031497,
          "duration": 0.35294099999998707
        },
        {
          "name": "B2",
          "midi": 47,
          "time": 209.29401299999748,
          "velocity": 0.7874015748031497,
          "duration": 0.35294099999998707
        },
        {
          "name": "A3",
          "midi": 57,
          "time": 209.64695399999746,
          "velocity": 0.7874015748031497,
          "duration": 0.17647049999999354
        },
        {
          "name": "D4",
          "midi": 62,
          "time": 209.64695399999746,
          "velocity": 0.7874015748031497,
          "duration": 0.17647049999999354
        },
        {
          "name": "D3",
          "midi": 50,
          "time": 209.64695399999746,
          "velocity": 0.7874015748031497,
          "duration": 0.17647049999999354
        },
        {
          "name": "A#3",
          "midi": 58,
          "time": 209.82342449999746,
          "velocity": 0.7874015748031497,
          "duration": 0.17647049999999354
        },
        {
          "name": "D#4",
          "midi": 63,
          "time": 209.82342449999746,
          "velocity": 0.7874015748031497,
          "duration": 0.17647049999999354
        },
        {
          "name": "D#3",
          "midi": 51,
          "time": 209.82342449999746,
          "velocity": 0.7874015748031497,
          "duration": 0.17647049999999354
        },
        {
          "name": "B3",
          "midi": 59,
          "time": 209.99989499999745,
          "velocity": 0.7874015748031497,
          "duration": 0.35294099999998707
        },
        {
          "name": "E4",
          "midi": 64,
          "time": 209.99989499999745,
          "velocity": 0.7874015748031497,
          "duration": 0.35294099999998707
        },
        {
          "name": "E3",
          "midi": 52,
          "time": 209.99989499999745,
          "velocity": 0.7874015748031497,
          "duration": 0.35294099999998707
        },
        {
          "name": "B3",
          "midi": 59,
          "time": 210.35283599999744,
          "velocity": 0.7874015748031497,
          "duration": 0.17647049999999354
        },
        {
          "name": "E4",
          "midi": 64,
          "time": 210.35283599999744,
          "velocity": 0.7874015748031497,
          "duration": 0.17647049999999354
        },
        {
          "name": "E3",
          "midi": 52,
          "time": 210.35283599999744,
          "velocity": 0.7874015748031497,
          "duration": 0.17647049999999354
        },
        {
          "name": "C4",
          "midi": 60,
          "time": 210.52930649999743,
          "velocity": 0.7874015748031497,
          "duration": 0.17647049999999354
        },
        {
          "name": "F4",
          "midi": 65,
          "time": 210.52930649999743,
          "velocity": 0.7874015748031497,
          "duration": 0.17647049999999354
        },
        {
          "name": "F3",
          "midi": 53,
          "time": 210.52930649999743,
          "velocity": 0.7874015748031497,
          "duration": 0.17647049999999354
        },
        {
          "name": "C#4",
          "midi": 61,
          "time": 210.70577699999743,
          "velocity": 0.7874015748031497,
          "duration": 0.35294099999998707
        },
        {
          "name": "F#4",
          "midi": 66,
          "time": 210.70577699999743,
          "velocity": 0.7874015748031497,
          "duration": 0.35294099999998707
        },
        {
          "name": "F#3",
          "midi": 54,
          "time": 210.70577699999743,
          "velocity": 0.7874015748031497,
          "duration": 0.35294099999998707
        },
        {
          "name": "E4",
          "midi": 64,
          "time": 211.0587179999974,
          "velocity": 0.7874015748031497,
          "duration": 0.17647049999999354
        },
        {
          "name": "A4",
          "midi": 69,
          "time": 211.0587179999974,
          "velocity": 0.7874015748031497,
          "duration": 0.17647049999999354
        },
        {
          "name": "A3",
          "midi": 57,
          "time": 211.0587179999974,
          "velocity": 0.7874015748031497,
          "duration": 0.17647049999999354
        },
        {
          "name": "F4",
          "midi": 65,
          "time": 211.2351884999974,
          "velocity": 0.7874015748031497,
          "duration": 0.17647049999999354
        },
        {
          "name": "A#4",
          "midi": 70,
          "time": 211.2351884999974,
          "velocity": 0.7874015748031497,
          "duration": 0.17647049999999354
        },
        {
          "name": "A#3",
          "midi": 58,
          "time": 211.2351884999974,
          "velocity": 0.7874015748031497,
          "duration": 0.17647049999999354
        },
        {
          "name": "F#4",
          "midi": 66,
          "time": 211.4116589999974,
          "velocity": 0.7874015748031497,
          "duration": 0.35294099999998707
        },
        {
          "name": "B4",
          "midi": 71,
          "time": 211.4116589999974,
          "velocity": 0.7874015748031497,
          "duration": 0.35294099999998707
        },
        {
          "name": "B3",
          "midi": 59,
          "time": 211.4116589999974,
          "velocity": 0.7874015748031497,
          "duration": 0.35294099999998707
        },
        {
          "name": "F#3",
          "midi": 54,
          "time": 211.7645999999974,
          "velocity": 0.7874015748031497,
          "duration": 0.35294099999998707
        },
        {
          "name": "B3",
          "midi": 59,
          "time": 211.7645999999974,
          "velocity": 0.7874015748031497,
          "duration": 0.35294099999998707
        },
        {
          "name": "B2",
          "midi": 47,
          "time": 211.7645999999974,
          "velocity": 0.7874015748031497,
          "duration": 0.35294099999998707
        },
        {
          "name": "F#3",
          "midi": 54,
          "time": 212.11754099999737,
          "velocity": 0.7874015748031497,
          "duration": 0.35294099999998707
        },
        {
          "name": "B3",
          "midi": 59,
          "time": 212.11754099999737,
          "velocity": 0.7874015748031497,
          "duration": 0.35294099999998707
        },
        {
          "name": "B2",
          "midi": 47,
          "time": 212.11754099999737,
          "velocity": 0.7874015748031497,
          "duration": 0.35294099999998707
        },
        {
          "name": "A3",
          "midi": 57,
          "time": 212.47048199999736,
          "velocity": 0.7874015748031497,
          "duration": 0.17647049999999354
        },
        {
          "name": "D4",
          "midi": 62,
          "time": 212.47048199999736,
          "velocity": 0.7874015748031497,
          "duration": 0.17647049999999354
        },
        {
          "name": "D3",
          "midi": 50,
          "time": 212.47048199999736,
          "velocity": 0.7874015748031497,
          "duration": 0.17647049999999354
        },
        {
          "name": "A#3",
          "midi": 58,
          "time": 212.64695249999735,
          "velocity": 0.7874015748031497,
          "duration": 0.17647049999999354
        },
        {
          "name": "D#4",
          "midi": 63,
          "time": 212.64695249999735,
          "velocity": 0.7874015748031497,
          "duration": 0.17647049999999354
        },
        {
          "name": "D#3",
          "midi": 51,
          "time": 212.64695249999735,
          "velocity": 0.7874015748031497,
          "duration": 0.17647049999999354
        },
        {
          "name": "B3",
          "midi": 59,
          "time": 212.82342299999735,
          "velocity": 0.7874015748031497,
          "duration": 0.35294099999998707
        },
        {
          "name": "E4",
          "midi": 64,
          "time": 212.82342299999735,
          "velocity": 0.7874015748031497,
          "duration": 0.35294099999998707
        },
        {
          "name": "E3",
          "midi": 52,
          "time": 212.82342299999735,
          "velocity": 0.7874015748031497,
          "duration": 0.35294099999998707
        },
        {
          "name": "B3",
          "midi": 59,
          "time": 213.17636399999733,
          "velocity": 0.7874015748031497,
          "duration": 0.17647049999999354
        },
        {
          "name": "E4",
          "midi": 64,
          "time": 213.17636399999733,
          "velocity": 0.7874015748031497,
          "duration": 0.17647049999999354
        },
        {
          "name": "E3",
          "midi": 52,
          "time": 213.17636399999733,
          "velocity": 0.7874015748031497,
          "duration": 0.17647049999999354
        },
        {
          "name": "C4",
          "midi": 60,
          "time": 213.35283449999733,
          "velocity": 0.7874015748031497,
          "duration": 0.17647049999999354
        },
        {
          "name": "F4",
          "midi": 65,
          "time": 213.35283449999733,
          "velocity": 0.7874015748031497,
          "duration": 0.17647049999999354
        },
        {
          "name": "F3",
          "midi": 53,
          "time": 213.35283449999733,
          "velocity": 0.7874015748031497,
          "duration": 0.17647049999999354
        },
        {
          "name": "C#4",
          "midi": 61,
          "time": 213.52930499999732,
          "velocity": 0.7874015748031497,
          "duration": 0.35294099999998707
        },
        {
          "name": "F#4",
          "midi": 66,
          "time": 213.52930499999732,
          "velocity": 0.7874015748031497,
          "duration": 0.35294099999998707
        },
        {
          "name": "F#3",
          "midi": 54,
          "time": 213.52930499999732,
          "velocity": 0.7874015748031497,
          "duration": 0.35294099999998707
        },
        {
          "name": "F#3",
          "midi": 54,
          "time": 213.8822459999973,
          "velocity": 0.7874015748031497,
          "duration": 0.08823524999999677
        },
        {
          "name": "B2",
          "midi": 47,
          "time": 213.8822459999973,
          "velocity": 0.7874015748031497,
          "duration": 0.08823524999999677
        },
        {
          "name": "B2",
          "midi": 47,
          "time": 214.0587164999973,
          "velocity": 0.7874015748031497,
          "duration": 0.08823524999999677
        },
        {
          "name": "F#3",
          "midi": 54,
          "time": 214.0587164999973,
          "velocity": 0.7874015748031497,
          "duration": 0.08823524999999677
        },
        {
          "name": "B2",
          "midi": 47,
          "time": 214.2351869999973,
          "velocity": 0.7874015748031497,
          "duration": 0.08823524999999677
        },
        {
          "name": "F#3",
          "midi": 54,
          "time": 214.2351869999973,
          "velocity": 0.7874015748031497,
          "duration": 0.08823524999999677
        },
        {
          "name": "B3",
          "midi": 59,
          "time": 214.58812799999728,
          "velocity": 0.7874015748031497,
          "duration": 0.7058820000000026
        },
        {
          "name": "F#3",
          "midi": 54,
          "time": 214.58812799999728,
          "velocity": 0.7874015748031497,
          "duration": 0.7058820000000026
        },
        {
          "name": "B2",
          "midi": 47,
          "time": 214.58812799999728,
          "velocity": 0.7874015748031497,
          "duration": 0.7058820000000026
        },
        {
          "name": "D4",
          "midi": 62,
          "time": 215.2940099999973,
          "velocity": 0.7874015748031497,
          "duration": 0.7058820000000026
        },
        {
          "name": "A3",
          "midi": 57,
          "time": 215.2940099999973,
          "velocity": 0.7874015748031497,
          "duration": 0.7058820000000026
        },
        {
          "name": "D3",
          "midi": 50,
          "time": 215.2940099999973,
          "velocity": 0.7874015748031497,
          "duration": 0.7058820000000026
        },
        {
          "name": "D4",
          "midi": 62,
          "time": 215.9998919999973,
          "velocity": 0.7874015748031497,
          "duration": 0.35294099999998707
        },
        {
          "name": "A3",
          "midi": 57,
          "time": 215.9998919999973,
          "velocity": 0.7874015748031497,
          "duration": 0.35294099999998707
        },
        {
          "name": "D3",
          "midi": 50,
          "time": 215.9998919999973,
          "velocity": 0.7874015748031497,
          "duration": 0.35294099999998707
        },
        {
          "name": "E4",
          "midi": 64,
          "time": 216.35283299999728,
          "velocity": 0.7874015748031497,
          "duration": 0.35294099999998707
        },
        {
          "name": "B3",
          "midi": 59,
          "time": 216.35283299999728,
          "velocity": 0.7874015748031497,
          "duration": 0.35294099999998707
        },
        {
          "name": "E3",
          "midi": 52,
          "time": 216.35283299999728,
          "velocity": 0.7874015748031497,
          "duration": 0.35294099999998707
        },
        {
          "name": "E4",
          "midi": 64,
          "time": 216.70577399999726,
          "velocity": 0.7874015748031497,
          "duration": 0.7058820000000026
        },
        {
          "name": "B3",
          "midi": 59,
          "time": 216.70577399999726,
          "velocity": 0.7874015748031497,
          "duration": 0.7058820000000026
        },
        {
          "name": "E3",
          "midi": 52,
          "time": 216.70577399999726,
          "velocity": 0.7874015748031497,
          "duration": 0.7058820000000026
        },
        {
          "name": "G4",
          "midi": 67,
          "time": 217.41165599999727,
          "velocity": 0.7874015748031497,
          "duration": 0.17647049999999354
        },
        {
          "name": "D4",
          "midi": 62,
          "time": 217.41165599999727,
          "velocity": 0.7874015748031497,
          "duration": 0.17647049999999354
        },
        {
          "name": "G3",
          "midi": 55,
          "time": 217.41165599999727,
          "velocity": 0.7874015748031497,
          "duration": 0.17647049999999354
        },
        {
          "name": "F#4",
          "midi": 66,
          "time": 217.58812649999726,
          "velocity": 0.7874015748031497,
          "duration": 0.17647049999999354
        },
        {
          "name": "C#4",
          "midi": 61,
          "time": 217.58812649999726,
          "velocity": 0.7874015748031497,
          "duration": 0.17647049999999354
        },
        {
          "name": "F#3",
          "midi": 54,
          "time": 217.58812649999726,
          "velocity": 0.7874015748031497,
          "duration": 0.17647049999999354
        },
        {
          "name": "G4",
          "midi": 67,
          "time": 217.76459699999725,
          "velocity": 0.7874015748031497,
          "duration": 0.17647049999999354
        },
        {
          "name": "D4",
          "midi": 62,
          "time": 217.76459699999725,
          "velocity": 0.7874015748031497,
          "duration": 0.17647049999999354
        },
        {
          "name": "G3",
          "midi": 55,
          "time": 217.76459699999725,
          "velocity": 0.7874015748031497,
          "duration": 0.17647049999999354
        },
        {
          "name": "F#4",
          "midi": 66,
          "time": 217.94106749999725,
          "velocity": 0.7874015748031497,
          "duration": 0.17647049999999354
        },
        {
          "name": "C#4",
          "midi": 61,
          "time": 217.94106749999725,
          "velocity": 0.7874015748031497,
          "duration": 0.17647049999999354
        },
        {
          "name": "F#3",
          "midi": 54,
          "time": 217.94106749999725,
          "velocity": 0.7874015748031497,
          "duration": 0.17647049999999354
        },
        {
          "name": "G4",
          "midi": 67,
          "time": 218.11753799999724,
          "velocity": 0.7874015748031497,
          "duration": 0.17647049999999354
        },
        {
          "name": "D4",
          "midi": 62,
          "time": 218.11753799999724,
          "velocity": 0.7874015748031497,
          "duration": 0.17647049999999354
        },
        {
          "name": "G3",
          "midi": 55,
          "time": 218.11753799999724,
          "velocity": 0.7874015748031497,
          "duration": 0.17647049999999354
        },
        {
          "name": "F#4",
          "midi": 66,
          "time": 218.29400849999723,
          "velocity": 0.7874015748031497,
          "duration": 0.17647049999999354
        },
        {
          "name": "C#4",
          "midi": 61,
          "time": 218.29400849999723,
          "velocity": 0.7874015748031497,
          "duration": 0.17647049999999354
        },
        {
          "name": "F#3",
          "midi": 54,
          "time": 218.29400849999723,
          "velocity": 0.7874015748031497,
          "duration": 0.17647049999999354
        },
        {
          "name": "D4",
          "midi": 62,
          "time": 218.47047899999723,
          "velocity": 0.7874015748031497,
          "duration": 0.34411747499999024
        },
        {
          "name": "A3",
          "midi": 57,
          "time": 218.47047899999723,
          "velocity": 0.7874015748031497,
          "duration": 0.34411747499999024
        },
        {
          "name": "D3",
          "midi": 50,
          "time": 218.47047899999723,
          "velocity": 0.7874015748031497,
          "duration": 0.34411747499999024
        },
        {
          "name": "D4",
          "midi": 62,
          "time": 218.8234199999972,
          "velocity": 0.7874015748031497,
          "duration": 0.35294099999998707
        },
        {
          "name": "A3",
          "midi": 57,
          "time": 218.8234199999972,
          "velocity": 0.7874015748031497,
          "duration": 0.35294099999998707
        },
        {
          "name": "D3",
          "midi": 50,
          "time": 218.8234199999972,
          "velocity": 0.7874015748031497,
          "duration": 0.35294099999998707
        },
        {
          "name": "E4",
          "midi": 64,
          "time": 219.1763609999972,
          "velocity": 0.7874015748031497,
          "duration": 0.35294099999998707
        },
        {
          "name": "B3",
          "midi": 59,
          "time": 219.1763609999972,
          "velocity": 0.7874015748031497,
          "duration": 0.35294099999998707
        },
        {
          "name": "E3",
          "midi": 52,
          "time": 219.1763609999972,
          "velocity": 0.7874015748031497,
          "duration": 0.35294099999998707
        },
        {
          "name": "E4",
          "midi": 64,
          "time": 219.5293019999972,
          "velocity": 0.7874015748031497,
          "duration": 0.7058820000000026
        },
        {
          "name": "B3",
          "midi": 59,
          "time": 219.5293019999972,
          "velocity": 0.7874015748031497,
          "duration": 0.7058820000000026
        },
        {
          "name": "E3",
          "midi": 52,
          "time": 219.5293019999972,
          "velocity": 0.7874015748031497,
          "duration": 0.7058820000000026
        },
        {
          "name": "B3",
          "midi": 59,
          "time": 220.2351839999972,
          "velocity": 0.7874015748031497,
          "duration": 0.7058820000000026
        },
        {
          "name": "F#3",
          "midi": 54,
          "time": 220.2351839999972,
          "velocity": 0.7874015748031497,
          "duration": 0.7058820000000026
        },
        {
          "name": "B2",
          "midi": 47,
          "time": 220.2351839999972,
          "velocity": 0.7874015748031497,
          "duration": 0.7058820000000026
        },
        {
          "name": "D4",
          "midi": 62,
          "time": 220.9410659999972,
          "velocity": 0.7874015748031497,
          "duration": 0.7058820000000026
        },
        {
          "name": "A3",
          "midi": 57,
          "time": 220.9410659999972,
          "velocity": 0.7874015748031497,
          "duration": 0.7058820000000026
        },
        {
          "name": "D3",
          "midi": 50,
          "time": 220.9410659999972,
          "velocity": 0.7874015748031497,
          "duration": 0.7058820000000026
        },
        {
          "name": "D4",
          "midi": 62,
          "time": 221.6469479999972,
          "velocity": 0.7874015748031497,
          "duration": 0.35294099999998707
        },
        {
          "name": "A3",
          "midi": 57,
          "time": 221.6469479999972,
          "velocity": 0.7874015748031497,
          "duration": 0.35294099999998707
        },
        {
          "name": "D3",
          "midi": 50,
          "time": 221.6469479999972,
          "velocity": 0.7874015748031497,
          "duration": 0.35294099999998707
        },
        {
          "name": "E4",
          "midi": 64,
          "time": 221.99988899999718,
          "velocity": 0.7874015748031497,
          "duration": 0.35294099999998707
        },
        {
          "name": "B3",
          "midi": 59,
          "time": 221.99988899999718,
          "velocity": 0.7874015748031497,
          "duration": 0.35294099999998707
        },
        {
          "name": "E3",
          "midi": 52,
          "time": 221.99988899999718,
          "velocity": 0.7874015748031497,
          "duration": 0.35294099999998707
        },
        {
          "name": "E4",
          "midi": 64,
          "time": 222.35282999999717,
          "velocity": 0.7874015748031497,
          "duration": 0.7058820000000026
        },
        {
          "name": "B3",
          "midi": 59,
          "time": 222.35282999999717,
          "velocity": 0.7874015748031497,
          "duration": 0.7058820000000026
        },
        {
          "name": "E3",
          "midi": 52,
          "time": 222.35282999999717,
          "velocity": 0.7874015748031497,
          "duration": 0.7058820000000026
        },
        {
          "name": "G4",
          "midi": 67,
          "time": 223.05871199999717,
          "velocity": 0.7874015748031497,
          "duration": 0.17647049999999354
        },
        {
          "name": "D4",
          "midi": 62,
          "time": 223.05871199999717,
          "velocity": 0.7874015748031497,
          "duration": 0.17647049999999354
        },
        {
          "name": "G3",
          "midi": 55,
          "time": 223.05871199999717,
          "velocity": 0.7874015748031497,
          "duration": 0.17647049999999354
        },
        {
          "name": "F#4",
          "midi": 66,
          "time": 223.23518249999717,
          "velocity": 0.7874015748031497,
          "duration": 0.17647049999999354
        },
        {
          "name": "C#4",
          "midi": 61,
          "time": 223.23518249999717,
          "velocity": 0.7874015748031497,
          "duration": 0.17647049999999354
        },
        {
          "name": "F#3",
          "midi": 54,
          "time": 223.23518249999717,
          "velocity": 0.7874015748031497,
          "duration": 0.17647049999999354
        },
        {
          "name": "G4",
          "midi": 67,
          "time": 223.41165299999716,
          "velocity": 0.7874015748031497,
          "duration": 0.17647049999999354
        },
        {
          "name": "D4",
          "midi": 62,
          "time": 223.41165299999716,
          "velocity": 0.7874015748031497,
          "duration": 0.17647049999999354
        },
        {
          "name": "G3",
          "midi": 55,
          "time": 223.41165299999716,
          "velocity": 0.7874015748031497,
          "duration": 0.17647049999999354
        },
        {
          "name": "F#4",
          "midi": 66,
          "time": 223.58812349999715,
          "velocity": 0.7874015748031497,
          "duration": 0.17647049999999354
        },
        {
          "name": "C#4",
          "midi": 61,
          "time": 223.58812349999715,
          "velocity": 0.7874015748031497,
          "duration": 0.17647049999999354
        },
        {
          "name": "F#3",
          "midi": 54,
          "time": 223.58812349999715,
          "velocity": 0.7874015748031497,
          "duration": 0.17647049999999354
        },
        {
          "name": "G4",
          "midi": 67,
          "time": 223.76459399999715,
          "velocity": 0.7874015748031497,
          "duration": 0.17647049999999354
        },
        {
          "name": "D4",
          "midi": 62,
          "time": 223.76459399999715,
          "velocity": 0.7874015748031497,
          "duration": 0.17647049999999354
        },
        {
          "name": "G3",
          "midi": 55,
          "time": 223.76459399999715,
          "velocity": 0.7874015748031497,
          "duration": 0.17647049999999354
        },
        {
          "name": "F#4",
          "midi": 66,
          "time": 223.94106449999714,
          "velocity": 0.7874015748031497,
          "duration": 0.17647049999999354
        },
        {
          "name": "C#4",
          "midi": 61,
          "time": 223.94106449999714,
          "velocity": 0.7874015748031497,
          "duration": 0.17647049999999354
        },
        {
          "name": "F#3",
          "midi": 54,
          "time": 223.94106449999714,
          "velocity": 0.7874015748031497,
          "duration": 0.17647049999999354
        },
        {
          "name": "D4",
          "midi": 62,
          "time": 224.11753499999713,
          "velocity": 0.7874015748031497,
          "duration": 0.34411747499999024
        },
        {
          "name": "A3",
          "midi": 57,
          "time": 224.11753499999713,
          "velocity": 0.7874015748031497,
          "duration": 0.34411747499999024
        },
        {
          "name": "D3",
          "midi": 50,
          "time": 224.11753499999713,
          "velocity": 0.7874015748031497,
          "duration": 0.34411747499999024
        },
        {
          "name": "D4",
          "midi": 62,
          "time": 224.47047599999712,
          "velocity": 0.7874015748031497,
          "duration": 0.35294099999998707
        },
        {
          "name": "A3",
          "midi": 57,
          "time": 224.47047599999712,
          "velocity": 0.7874015748031497,
          "duration": 0.35294099999998707
        },
        {
          "name": "D3",
          "midi": 50,
          "time": 224.47047599999712,
          "velocity": 0.7874015748031497,
          "duration": 0.35294099999998707
        },
        {
          "name": "E4",
          "midi": 64,
          "time": 224.8234169999971,
          "velocity": 0.7874015748031497,
          "duration": 0.35294099999998707
        },
        {
          "name": "B3",
          "midi": 59,
          "time": 224.8234169999971,
          "velocity": 0.7874015748031497,
          "duration": 0.35294099999998707
        },
        {
          "name": "E3",
          "midi": 52,
          "time": 224.8234169999971,
          "velocity": 0.7874015748031497,
          "duration": 0.35294099999998707
        },
        {
          "name": "E4",
          "midi": 64,
          "time": 225.1763579999971,
          "velocity": 0.7874015748031497,
          "duration": 0.7058820000000026
        },
        {
          "name": "B3",
          "midi": 59,
          "time": 225.1763579999971,
          "velocity": 0.7874015748031497,
          "duration": 0.7058820000000026
        },
        {
          "name": "E3",
          "midi": 52,
          "time": 225.1763579999971,
          "velocity": 0.7874015748031497,
          "duration": 0.7058820000000026
        },
        {
          "name": "B3",
          "midi": 59,
          "time": 225.8822399999971,
          "velocity": 0.7874015748031497,
          "duration": 0.7058820000000026
        },
        {
          "name": "F#3",
          "midi": 54,
          "time": 225.8822399999971,
          "velocity": 0.7874015748031497,
          "duration": 0.7058820000000026
        },
        {
          "name": "B2",
          "midi": 47,
          "time": 225.8822399999971,
          "velocity": 0.7874015748031497,
          "duration": 0.7058820000000026
        },
        {
          "name": "D4",
          "midi": 62,
          "time": 226.5881219999971,
          "velocity": 0.7874015748031497,
          "duration": 0.7058820000000026
        },
        {
          "name": "A3",
          "midi": 57,
          "time": 226.5881219999971,
          "velocity": 0.7874015748031497,
          "duration": 0.7058820000000026
        },
        {
          "name": "D3",
          "midi": 50,
          "time": 226.5881219999971,
          "velocity": 0.7874015748031497,
          "duration": 0.7058820000000026
        },
        {
          "name": "D4",
          "midi": 62,
          "time": 227.2940039999971,
          "velocity": 0.7874015748031497,
          "duration": 0.35294099999998707
        },
        {
          "name": "A3",
          "midi": 57,
          "time": 227.2940039999971,
          "velocity": 0.7874015748031497,
          "duration": 0.35294099999998707
        },
        {
          "name": "D3",
          "midi": 50,
          "time": 227.2940039999971,
          "velocity": 0.7874015748031497,
          "duration": 0.35294099999998707
        },
        {
          "name": "E4",
          "midi": 64,
          "time": 227.6469449999971,
          "velocity": 0.7874015748031497,
          "duration": 0.35294099999998707
        },
        {
          "name": "B3",
          "midi": 59,
          "time": 227.6469449999971,
          "velocity": 0.7874015748031497,
          "duration": 0.35294099999998707
        },
        {
          "name": "E3",
          "midi": 52,
          "time": 227.6469449999971,
          "velocity": 0.7874015748031497,
          "duration": 0.35294099999998707
        },
        {
          "name": "E4",
          "midi": 64,
          "time": 227.99988599999708,
          "velocity": 0.7874015748031497,
          "duration": 0.7058820000000026
        },
        {
          "name": "B3",
          "midi": 59,
          "time": 227.99988599999708,
          "velocity": 0.7874015748031497,
          "duration": 0.7058820000000026
        },
        {
          "name": "E3",
          "midi": 52,
          "time": 227.99988599999708,
          "velocity": 0.7874015748031497,
          "duration": 0.7058820000000026
        },
        {
          "name": "G4",
          "midi": 67,
          "time": 228.70576799999708,
          "velocity": 0.7874015748031497,
          "duration": 0.17647049999999354
        },
        {
          "name": "D4",
          "midi": 62,
          "time": 228.70576799999708,
          "velocity": 0.7874015748031497,
          "duration": 0.17647049999999354
        },
        {
          "name": "G3",
          "midi": 55,
          "time": 228.70576799999708,
          "velocity": 0.7874015748031497,
          "duration": 0.17647049999999354
        },
        {
          "name": "F#4",
          "midi": 66,
          "time": 228.88223849999707,
          "velocity": 0.7874015748031497,
          "duration": 0.17647049999999354
        },
        {
          "name": "C#4",
          "midi": 61,
          "time": 228.88223849999707,
          "velocity": 0.7874015748031497,
          "duration": 0.17647049999999354
        },
        {
          "name": "F#3",
          "midi": 54,
          "time": 228.88223849999707,
          "velocity": 0.7874015748031497,
          "duration": 0.17647049999999354
        },
        {
          "name": "G4",
          "midi": 67,
          "time": 229.05870899999707,
          "velocity": 0.7874015748031497,
          "duration": 0.17647049999999354
        },
        {
          "name": "D4",
          "midi": 62,
          "time": 229.05870899999707,
          "velocity": 0.7874015748031497,
          "duration": 0.17647049999999354
        },
        {
          "name": "G3",
          "midi": 55,
          "time": 229.05870899999707,
          "velocity": 0.7874015748031497,
          "duration": 0.17647049999999354
        },
        {
          "name": "F#4",
          "midi": 66,
          "time": 229.23517949999706,
          "velocity": 0.7874015748031497,
          "duration": 0.17647049999999354
        },
        {
          "name": "C#4",
          "midi": 61,
          "time": 229.23517949999706,
          "velocity": 0.7874015748031497,
          "duration": 0.17647049999999354
        },
        {
          "name": "F#3",
          "midi": 54,
          "time": 229.23517949999706,
          "velocity": 0.7874015748031497,
          "duration": 0.17647049999999354
        },
        {
          "name": "G4",
          "midi": 67,
          "time": 229.41164999999705,
          "velocity": 0.7874015748031497,
          "duration": 0.17647049999999354
        },
        {
          "name": "D4",
          "midi": 62,
          "time": 229.41164999999705,
          "velocity": 0.7874015748031497,
          "duration": 0.17647049999999354
        },
        {
          "name": "G3",
          "midi": 55,
          "time": 229.41164999999705,
          "velocity": 0.7874015748031497,
          "duration": 0.17647049999999354
        },
        {
          "name": "F#4",
          "midi": 66,
          "time": 229.58812049999705,
          "velocity": 0.7874015748031497,
          "duration": 0.17647049999999354
        },
        {
          "name": "C#4",
          "midi": 61,
          "time": 229.58812049999705,
          "velocity": 0.7874015748031497,
          "duration": 0.17647049999999354
        },
        {
          "name": "F#3",
          "midi": 54,
          "time": 229.58812049999705,
          "velocity": 0.7874015748031497,
          "duration": 0.17647049999999354
        },
        {
          "name": "D4",
          "midi": 62,
          "time": 229.76459099999704,
          "velocity": 0.7874015748031497,
          "duration": 0.34411747499999024
        },
        {
          "name": "A3",
          "midi": 57,
          "time": 229.76459099999704,
          "velocity": 0.7874015748031497,
          "duration": 0.34411747499999024
        },
        {
          "name": "D3",
          "midi": 50,
          "time": 229.76459099999704,
          "velocity": 0.7874015748031497,
          "duration": 0.34411747499999024
        },
        {
          "name": "D4",
          "midi": 62,
          "time": 230.11753199999703,
          "velocity": 0.7874015748031497,
          "duration": 0.35294099999998707
        },
        {
          "name": "A3",
          "midi": 57,
          "time": 230.11753199999703,
          "velocity": 0.7874015748031497,
          "duration": 0.35294099999998707
        },
        {
          "name": "D3",
          "midi": 50,
          "time": 230.11753199999703,
          "velocity": 0.7874015748031497,
          "duration": 0.35294099999998707
        },
        {
          "name": "E4",
          "midi": 64,
          "time": 230.470472999997,
          "velocity": 0.7874015748031497,
          "duration": 0.35294099999998707
        },
        {
          "name": "B3",
          "midi": 59,
          "time": 230.470472999997,
          "velocity": 0.7874015748031497,
          "duration": 0.35294099999998707
        },
        {
          "name": "E3",
          "midi": 52,
          "time": 230.470472999997,
          "velocity": 0.7874015748031497,
          "duration": 0.35294099999998707
        },
        {
          "name": "E4",
          "midi": 64,
          "time": 230.823413999997,
          "velocity": 0.7874015748031497,
          "duration": 0.7058820000000026
        },
        {
          "name": "B3",
          "midi": 59,
          "time": 230.823413999997,
          "velocity": 0.7874015748031497,
          "duration": 0.7058820000000026
        },
        {
          "name": "E3",
          "midi": 52,
          "time": 230.823413999997,
          "velocity": 0.7874015748031497,
          "duration": 0.7058820000000026
        },
        {
          "name": "B3",
          "midi": 59,
          "time": 231.529295999997,
          "velocity": 0.7874015748031497,
          "duration": 0.7058820000000026
        },
        {
          "name": "F#3",
          "midi": 54,
          "time": 231.529295999997,
          "velocity": 0.7874015748031497,
          "duration": 0.7058820000000026
        },
        {
          "name": "B2",
          "midi": 47,
          "time": 231.529295999997,
          "velocity": 0.7874015748031497,
          "duration": 0.7058820000000026
        },
        {
          "name": "D4",
          "midi": 62,
          "time": 232.235177999997,
          "velocity": 0.7874015748031497,
          "duration": 0.7058820000000026
        },
        {
          "name": "A3",
          "midi": 57,
          "time": 232.235177999997,
          "velocity": 0.7874015748031497,
          "duration": 0.7058820000000026
        },
        {
          "name": "D3",
          "midi": 50,
          "time": 232.235177999997,
          "velocity": 0.7874015748031497,
          "duration": 0.7058820000000026
        },
        {
          "name": "D4",
          "midi": 62,
          "time": 232.941059999997,
          "velocity": 0.7874015748031497,
          "duration": 0.35294099999998707
        },
        {
          "name": "A3",
          "midi": 57,
          "time": 232.941059999997,
          "velocity": 0.7874015748031497,
          "duration": 0.35294099999998707
        },
        {
          "name": "D3",
          "midi": 50,
          "time": 232.941059999997,
          "velocity": 0.7874015748031497,
          "duration": 0.35294099999998707
        },
        {
          "name": "E4",
          "midi": 64,
          "time": 233.294000999997,
          "velocity": 0.7874015748031497,
          "duration": 0.35294099999998707
        },
        {
          "name": "B3",
          "midi": 59,
          "time": 233.294000999997,
          "velocity": 0.7874015748031497,
          "duration": 0.35294099999998707
        },
        {
          "name": "E3",
          "midi": 52,
          "time": 233.294000999997,
          "velocity": 0.7874015748031497,
          "duration": 0.35294099999998707
        },
        {
          "name": "E4",
          "midi": 64,
          "time": 233.64694199999698,
          "velocity": 0.7874015748031497,
          "duration": 0.7058820000000026
        },
        {
          "name": "B3",
          "midi": 59,
          "time": 233.64694199999698,
          "velocity": 0.7874015748031497,
          "duration": 0.7058820000000026
        },
        {
          "name": "E3",
          "midi": 52,
          "time": 233.64694199999698,
          "velocity": 0.7874015748031497,
          "duration": 0.7058820000000026
        },
        {
          "name": "G4",
          "midi": 67,
          "time": 234.35282399999699,
          "velocity": 0.7874015748031497,
          "duration": 0.17647049999999354
        },
        {
          "name": "D4",
          "midi": 62,
          "time": 234.35282399999699,
          "velocity": 0.7874015748031497,
          "duration": 0.17647049999999354
        },
        {
          "name": "G3",
          "midi": 55,
          "time": 234.35282399999699,
          "velocity": 0.7874015748031497,
          "duration": 0.17647049999999354
        },
        {
          "name": "F#4",
          "midi": 66,
          "time": 234.52929449999698,
          "velocity": 0.7874015748031497,
          "duration": 0.17647049999999354
        },
        {
          "name": "C#4",
          "midi": 61,
          "time": 234.52929449999698,
          "velocity": 0.7874015748031497,
          "duration": 0.17647049999999354
        },
        {
          "name": "F#3",
          "midi": 54,
          "time": 234.52929449999698,
          "velocity": 0.7874015748031497,
          "duration": 0.17647049999999354
        },
        {
          "name": "G4",
          "midi": 67,
          "time": 234.70576499999697,
          "velocity": 0.7874015748031497,
          "duration": 0.17647049999999354
        },
        {
          "name": "D4",
          "midi": 62,
          "time": 234.70576499999697,
          "velocity": 0.7874015748031497,
          "duration": 0.17647049999999354
        },
        {
          "name": "G3",
          "midi": 55,
          "time": 234.70576499999697,
          "velocity": 0.7874015748031497,
          "duration": 0.17647049999999354
        },
        {
          "name": "F#4",
          "midi": 66,
          "time": 234.88223549999697,
          "velocity": 0.7874015748031497,
          "duration": 0.17647049999999354
        },
        {
          "name": "C#4",
          "midi": 61,
          "time": 234.88223549999697,
          "velocity": 0.7874015748031497,
          "duration": 0.17647049999999354
        },
        {
          "name": "F#3",
          "midi": 54,
          "time": 234.88223549999697,
          "velocity": 0.7874015748031497,
          "duration": 0.17647049999999354
        },
        {
          "name": "G4",
          "midi": 67,
          "time": 235.05870599999696,
          "velocity": 0.7874015748031497,
          "duration": 0.17647049999999354
        },
        {
          "name": "D4",
          "midi": 62,
          "time": 235.05870599999696,
          "velocity": 0.7874015748031497,
          "duration": 0.17647049999999354
        },
        {
          "name": "G3",
          "midi": 55,
          "time": 235.05870599999696,
          "velocity": 0.7874015748031497,
          "duration": 0.17647049999999354
        },
        {
          "name": "F#4",
          "midi": 66,
          "time": 235.23517649999695,
          "velocity": 0.7874015748031497,
          "duration": 0.17647049999999354
        },
        {
          "name": "C#4",
          "midi": 61,
          "time": 235.23517649999695,
          "velocity": 0.7874015748031497,
          "duration": 0.17647049999999354
        },
        {
          "name": "F#3",
          "midi": 54,
          "time": 235.23517649999695,
          "velocity": 0.7874015748031497,
          "duration": 0.17647049999999354
        },
        {
          "name": "D4",
          "midi": 62,
          "time": 235.41164699999695,
          "velocity": 0.7874015748031497,
          "duration": 0.34411747499999024
        },
        {
          "name": "A3",
          "midi": 57,
          "time": 235.41164699999695,
          "velocity": 0.7874015748031497,
          "duration": 0.34411747499999024
        },
        {
          "name": "D3",
          "midi": 50,
          "time": 235.41164699999695,
          "velocity": 0.7874015748031497,
          "duration": 0.34411747499999024
        },
        {
          "name": "D4",
          "midi": 62,
          "time": 235.76458799999693,
          "velocity": 0.7874015748031497,
          "duration": 0.35294099999998707
        },
        {
          "name": "A3",
          "midi": 57,
          "time": 235.76458799999693,
          "velocity": 0.7874015748031497,
          "duration": 0.35294099999998707
        },
        {
          "name": "D3",
          "midi": 50,
          "time": 235.76458799999693,
          "velocity": 0.7874015748031497,
          "duration": 0.35294099999998707
        },
        {
          "name": "E4",
          "midi": 64,
          "time": 236.11752899999692,
          "velocity": 0.7874015748031497,
          "duration": 0.35294099999998707
        },
        {
          "name": "B3",
          "midi": 59,
          "time": 236.11752899999692,
          "velocity": 0.7874015748031497,
          "duration": 0.35294099999998707
        },
        {
          "name": "E3",
          "midi": 52,
          "time": 236.11752899999692,
          "velocity": 0.7874015748031497,
          "duration": 0.35294099999998707
        },
        {
          "name": "E4",
          "midi": 64,
          "time": 236.4704699999969,
          "velocity": 0.7874015748031497,
          "duration": 0.7058820000000026
        },
        {
          "name": "B3",
          "midi": 59,
          "time": 236.4704699999969,
          "velocity": 0.7874015748031497,
          "duration": 0.7058820000000026
        },
        {
          "name": "E3",
          "midi": 52,
          "time": 236.4704699999969,
          "velocity": 0.7874015748031497,
          "duration": 0.7058820000000026
        },
        {
          "name": "F#3",
          "midi": 54,
          "time": 237.1763519999969,
          "velocity": 0.7874015748031497,
          "duration": 0.35294099999998707
        },
        {
          "name": "B3",
          "midi": 59,
          "time": 237.1763519999969,
          "velocity": 0.7874015748031497,
          "duration": 0.35294099999998707
        },
        {
          "name": "B2",
          "midi": 47,
          "time": 237.1763519999969,
          "velocity": 0.7874015748031497,
          "duration": 0.35294099999998707
        },
        {
          "name": "F#3",
          "midi": 54,
          "time": 237.5292929999969,
          "velocity": 0.7874015748031497,
          "duration": 0.35294099999998707
        },
        {
          "name": "B3",
          "midi": 59,
          "time": 237.5292929999969,
          "velocity": 0.7874015748031497,
          "duration": 0.35294099999998707
        },
        {
          "name": "B2",
          "midi": 47,
          "time": 237.5292929999969,
          "velocity": 0.7874015748031497,
          "duration": 0.35294099999998707
        },
        {
          "name": "E2",
          "midi": 40,
          "time": 237.88223399999688,
          "velocity": 0.7874015748031497,
          "duration": 0.08823524999999677
        },
        {
          "name": "B1",
          "midi": 35,
          "time": 237.88223399999688,
          "velocity": 0.7874015748031497,
          "duration": 0.08823524999999677
        },
        {
          "name": "E2",
          "midi": 40,
          "time": 238.05870449999688,
          "velocity": 0.7874015748031497,
          "duration": 0.08823524999999677
        },
        {
          "name": "B1",
          "midi": 35,
          "time": 238.05870449999688,
          "velocity": 0.7874015748031497,
          "duration": 0.08823524999999677
        },
        {
          "name": "A3",
          "midi": 57,
          "time": 238.23517499999687,
          "velocity": 0.7874015748031497,
          "duration": 0.35294099999998707
        },
        {
          "name": "D4",
          "midi": 62,
          "time": 238.23517499999687,
          "velocity": 0.7874015748031497,
          "duration": 0.35294099999998707
        },
        {
          "name": "D3",
          "midi": 50,
          "time": 238.23517499999687,
          "velocity": 0.7874015748031497,
          "duration": 0.35294099999998707
        },
        {
          "name": "E2",
          "midi": 40,
          "time": 238.58811599999686,
          "velocity": 0.7874015748031497,
          "duration": 0.08823524999999677
        },
        {
          "name": "B1",
          "midi": 35,
          "time": 238.58811599999686,
          "velocity": 0.7874015748031497,
          "duration": 0.08823524999999677
        },
        {
          "name": "E2",
          "midi": 40,
          "time": 238.76458649999685,
          "velocity": 0.7874015748031497,
          "duration": 0.08823524999999677
        },
        {
          "name": "B1",
          "midi": 35,
          "time": 238.76458649999685,
          "velocity": 0.7874015748031497,
          "duration": 0.08823524999999677
        },
        {
          "name": "F#3",
          "midi": 54,
          "time": 238.94105699999685,
          "velocity": 0.7874015748031497,
          "duration": 0.35294099999998707
        },
        {
          "name": "B3",
          "midi": 59,
          "time": 238.94105699999685,
          "velocity": 0.7874015748031497,
          "duration": 0.35294099999998707
        },
        {
          "name": "B2",
          "midi": 47,
          "time": 238.94105699999685,
          "velocity": 0.7874015748031497,
          "duration": 0.35294099999998707
        },
        {
          "name": "F#3",
          "midi": 54,
          "time": 239.29399799999683,
          "velocity": 0.7874015748031497,
          "duration": 0.35294099999998707
        },
        {
          "name": "B3",
          "midi": 59,
          "time": 239.29399799999683,
          "velocity": 0.7874015748031497,
          "duration": 0.35294099999998707
        },
        {
          "name": "B2",
          "midi": 47,
          "time": 239.29399799999683,
          "velocity": 0.7874015748031497,
          "duration": 0.35294099999998707
        },
        {
          "name": "F3",
          "midi": 53,
          "time": 239.64693899999682,
          "velocity": 0.7874015748031497,
          "duration": 0.35294099999998707
        },
        {
          "name": "A#3",
          "midi": 58,
          "time": 239.64693899999682,
          "velocity": 0.7874015748031497,
          "duration": 0.35294099999998707
        },
        {
          "name": "A#2",
          "midi": 46,
          "time": 239.64693899999682,
          "velocity": 0.7874015748031497,
          "duration": 0.35294099999998707
        },
        {
          "name": "E3",
          "midi": 52,
          "time": 239.9998799999968,
          "velocity": 0.7874015748031497,
          "duration": 0.35294099999998707
        },
        {
          "name": "A3",
          "midi": 57,
          "time": 239.9998799999968,
          "velocity": 0.7874015748031497,
          "duration": 0.35294099999998707
        },
        {
          "name": "A2",
          "midi": 45,
          "time": 239.9998799999968,
          "velocity": 0.7874015748031497,
          "duration": 0.35294099999998707
        },
        {
          "name": "E3",
          "midi": 52,
          "time": 240.3528209999968,
          "velocity": 0.7874015748031497,
          "duration": 0.35294099999998707
        },
        {
          "name": "A3",
          "midi": 57,
          "time": 240.3528209999968,
          "velocity": 0.7874015748031497,
          "duration": 0.35294099999998707
        },
        {
          "name": "A2",
          "midi": 45,
          "time": 240.3528209999968,
          "velocity": 0.7874015748031497,
          "duration": 0.35294099999998707
        },
        {
          "name": "D2",
          "midi": 38,
          "time": 240.70576199999678,
          "velocity": 0.7874015748031497,
          "duration": 0.08823524999999677
        },
        {
          "name": "A1",
          "midi": 33,
          "time": 240.70576199999678,
          "velocity": 0.7874015748031497,
          "duration": 0.08823524999999677
        },
        {
          "name": "D2",
          "midi": 38,
          "time": 240.88223249999677,
          "velocity": 0.7874015748031497,
          "duration": 0.08823524999999677
        },
        {
          "name": "A1",
          "midi": 33,
          "time": 240.88223249999677,
          "velocity": 0.7874015748031497,
          "duration": 0.08823524999999677
        },
        {
          "name": "D2",
          "midi": 38,
          "time": 241.05870299999677,
          "velocity": 0.7874015748031497,
          "duration": 0.08823524999999677
        },
        {
          "name": "A1",
          "midi": 33,
          "time": 241.05870299999677,
          "velocity": 0.7874015748031497,
          "duration": 0.08823524999999677
        },
        {
          "name": "D#3",
          "midi": 51,
          "time": 241.23517349999676,
          "velocity": 0.7874015748031497,
          "duration": 0.17647049999999354
        },
        {
          "name": "G#3",
          "midi": 56,
          "time": 241.23517349999676,
          "velocity": 0.7874015748031497,
          "duration": 0.17647049999999354
        },
        {
          "name": "G#2",
          "midi": 44,
          "time": 241.23517349999676,
          "velocity": 0.7874015748031497,
          "duration": 0.17647049999999354
        },
        {
          "name": "D#3",
          "midi": 51,
          "time": 241.41164399999676,
          "velocity": 0.7874015748031497,
          "duration": 0.17647049999999354
        },
        {
          "name": "G#3",
          "midi": 56,
          "time": 241.41164399999676,
          "velocity": 0.7874015748031497,
          "duration": 0.17647049999999354
        },
        {
          "name": "G#2",
          "midi": 44,
          "time": 241.41164399999676,
          "velocity": 0.7874015748031497,
          "duration": 0.17647049999999354
        },
        {
          "name": "E3",
          "midi": 52,
          "time": 241.58811449999675,
          "velocity": 0.7874015748031497,
          "duration": 0.17647049999999354
        },
        {
          "name": "A3",
          "midi": 57,
          "time": 241.58811449999675,
          "velocity": 0.7874015748031497,
          "duration": 0.17647049999999354
        },
        {
          "name": "A2",
          "midi": 45,
          "time": 241.58811449999675,
          "velocity": 0.7874015748031497,
          "duration": 0.17647049999999354
        },
        {
          "name": "E3",
          "midi": 52,
          "time": 241.76458499999674,
          "velocity": 0.7874015748031497,
          "duration": 0.35294099999998707
        },
        {
          "name": "A3",
          "midi": 57,
          "time": 241.76458499999674,
          "velocity": 0.7874015748031497,
          "duration": 0.35294099999998707
        },
        {
          "name": "A2",
          "midi": 45,
          "time": 241.76458499999674,
          "velocity": 0.7874015748031497,
          "duration": 0.35294099999998707
        },
        {
          "name": "E3",
          "midi": 52,
          "time": 242.11752599999673,
          "velocity": 0.7874015748031497,
          "duration": 0.35294099999998707
        },
        {
          "name": "A3",
          "midi": 57,
          "time": 242.11752599999673,
          "velocity": 0.7874015748031497,
          "duration": 0.35294099999998707
        },
        {
          "name": "A2",
          "midi": 45,
          "time": 242.11752599999673,
          "velocity": 0.7874015748031497,
          "duration": 0.35294099999998707
        },
        {
          "name": "F3",
          "midi": 53,
          "time": 242.47046699999672,
          "velocity": 0.7874015748031497,
          "duration": 0.35294099999998707
        },
        {
          "name": "A#3",
          "midi": 58,
          "time": 242.47046699999672,
          "velocity": 0.7874015748031497,
          "duration": 0.35294099999998707
        },
        {
          "name": "A#2",
          "midi": 46,
          "time": 242.47046699999672,
          "velocity": 0.7874015748031497,
          "duration": 0.35294099999998707
        },
        {
          "name": "F#3",
          "midi": 54,
          "time": 242.8234079999967,
          "velocity": 0.7874015748031497,
          "duration": 0.35294099999998707
        },
        {
          "name": "B3",
          "midi": 59,
          "time": 242.8234079999967,
          "velocity": 0.7874015748031497,
          "duration": 0.35294099999998707
        },
        {
          "name": "B2",
          "midi": 47,
          "time": 242.8234079999967,
          "velocity": 0.7874015748031497,
          "duration": 0.35294099999998707
        },
        {
          "name": "F#3",
          "midi": 54,
          "time": 243.1763489999967,
          "velocity": 0.7874015748031497,
          "duration": 0.35294099999998707
        },
        {
          "name": "B3",
          "midi": 59,
          "time": 243.1763489999967,
          "velocity": 0.7874015748031497,
          "duration": 0.35294099999998707
        },
        {
          "name": "B2",
          "midi": 47,
          "time": 243.1763489999967,
          "velocity": 0.7874015748031497,
          "duration": 0.35294099999998707
        },
        {
          "name": "E2",
          "midi": 40,
          "time": 243.52928999999668,
          "velocity": 0.7874015748031497,
          "duration": 0.08823524999999677
        },
        {
          "name": "B1",
          "midi": 35,
          "time": 243.52928999999668,
          "velocity": 0.7874015748031497,
          "duration": 0.08823524999999677
        },
        {
          "name": "E2",
          "midi": 40,
          "time": 243.70576049999667,
          "velocity": 0.7874015748031497,
          "duration": 0.08823524999999677
        },
        {
          "name": "B1",
          "midi": 35,
          "time": 243.70576049999667,
          "velocity": 0.7874015748031497,
          "duration": 0.08823524999999677
        },
        {
          "name": "A3",
          "midi": 57,
          "time": 243.88223099999666,
          "velocity": 0.7874015748031497,
          "duration": 0.35294099999998707
        },
        {
          "name": "D4",
          "midi": 62,
          "time": 243.88223099999666,
          "velocity": 0.7874015748031497,
          "duration": 0.35294099999998707
        },
        {
          "name": "D3",
          "midi": 50,
          "time": 243.88223099999666,
          "velocity": 0.7874015748031497,
          "duration": 0.35294099999998707
        },
        {
          "name": "E2",
          "midi": 40,
          "time": 244.23517199999665,
          "velocity": 0.7874015748031497,
          "duration": 0.08823524999999677
        },
        {
          "name": "B1",
          "midi": 35,
          "time": 244.23517199999665,
          "velocity": 0.7874015748031497,
          "duration": 0.08823524999999677
        },
        {
          "name": "E2",
          "midi": 40,
          "time": 244.41164249999665,
          "velocity": 0.7874015748031497,
          "duration": 0.08823524999999677
        },
        {
          "name": "B1",
          "midi": 35,
          "time": 244.41164249999665,
          "velocity": 0.7874015748031497,
          "duration": 0.08823524999999677
        },
        {
          "name": "F#3",
          "midi": 54,
          "time": 244.58811299999664,
          "velocity": 0.7874015748031497,
          "duration": 0.35294099999998707
        },
        {
          "name": "B3",
          "midi": 59,
          "time": 244.58811299999664,
          "velocity": 0.7874015748031497,
          "duration": 0.35294099999998707
        },
        {
          "name": "B2",
          "midi": 47,
          "time": 244.58811299999664,
          "velocity": 0.7874015748031497,
          "duration": 0.35294099999998707
        },
        {
          "name": "F#3",
          "midi": 54,
          "time": 244.94105399999663,
          "velocity": 0.7874015748031497,
          "duration": 0.35294099999998707
        },
        {
          "name": "B3",
          "midi": 59,
          "time": 244.94105399999663,
          "velocity": 0.7874015748031497,
          "duration": 0.35294099999998707
        },
        {
          "name": "B2",
          "midi": 47,
          "time": 244.94105399999663,
          "velocity": 0.7874015748031497,
          "duration": 0.35294099999998707
        },
        {
          "name": "F3",
          "midi": 53,
          "time": 245.2939949999966,
          "velocity": 0.7874015748031497,
          "duration": 0.35294099999998707
        },
        {
          "name": "A#3",
          "midi": 58,
          "time": 245.2939949999966,
          "velocity": 0.7874015748031497,
          "duration": 0.35294099999998707
        },
        {
          "name": "A#2",
          "midi": 46,
          "time": 245.2939949999966,
          "velocity": 0.7874015748031497,
          "duration": 0.35294099999998707
        },
        {
          "name": "E3",
          "midi": 52,
          "time": 245.6469359999966,
          "velocity": 0.7874015748031497,
          "duration": 0.35294099999998707
        },
        {
          "name": "A3",
          "midi": 57,
          "time": 245.6469359999966,
          "velocity": 0.7874015748031497,
          "duration": 0.35294099999998707
        },
        {
          "name": "A2",
          "midi": 45,
          "time": 245.6469359999966,
          "velocity": 0.7874015748031497,
          "duration": 0.35294099999998707
        },
        {
          "name": "E3",
          "midi": 52,
          "time": 245.9998769999966,
          "velocity": 0.7874015748031497,
          "duration": 0.35294099999998707
        },
        {
          "name": "A3",
          "midi": 57,
          "time": 245.9998769999966,
          "velocity": 0.7874015748031497,
          "duration": 0.35294099999998707
        },
        {
          "name": "A2",
          "midi": 45,
          "time": 245.9998769999966,
          "velocity": 0.7874015748031497,
          "duration": 0.35294099999998707
        },
        {
          "name": "D2",
          "midi": 38,
          "time": 246.35281799999657,
          "velocity": 0.7874015748031497,
          "duration": 0.08823524999999677
        },
        {
          "name": "A1",
          "midi": 33,
          "time": 246.35281799999657,
          "velocity": 0.7874015748031497,
          "duration": 0.08823524999999677
        },
        {
          "name": "D2",
          "midi": 38,
          "time": 246.52928849999657,
          "velocity": 0.7874015748031497,
          "duration": 0.08823524999999677
        },
        {
          "name": "A1",
          "midi": 33,
          "time": 246.52928849999657,
          "velocity": 0.7874015748031497,
          "duration": 0.08823524999999677
        },
        {
          "name": "D2",
          "midi": 38,
          "time": 246.70575899999656,
          "velocity": 0.7874015748031497,
          "duration": 0.08823524999999677
        },
        {
          "name": "A1",
          "midi": 33,
          "time": 246.70575899999656,
          "velocity": 0.7874015748031497,
          "duration": 0.08823524999999677
        },
        {
          "name": "D#3",
          "midi": 51,
          "time": 246.88222949999655,
          "velocity": 0.7874015748031497,
          "duration": 0.17647049999999354
        },
        {
          "name": "G#3",
          "midi": 56,
          "time": 246.88222949999655,
          "velocity": 0.7874015748031497,
          "duration": 0.17647049999999354
        },
        {
          "name": "G#2",
          "midi": 44,
          "time": 246.88222949999655,
          "velocity": 0.7874015748031497,
          "duration": 0.17647049999999354
        },
        {
          "name": "D#3",
          "midi": 51,
          "time": 247.05869999999655,
          "velocity": 0.7874015748031497,
          "duration": 0.17647049999999354
        },
        {
          "name": "G#3",
          "midi": 56,
          "time": 247.05869999999655,
          "velocity": 0.7874015748031497,
          "duration": 0.17647049999999354
        },
        {
          "name": "G#2",
          "midi": 44,
          "time": 247.05869999999655,
          "velocity": 0.7874015748031497,
          "duration": 0.17647049999999354
        },
        {
          "name": "E3",
          "midi": 52,
          "time": 247.23517049999654,
          "velocity": 0.7874015748031497,
          "duration": 0.17647049999999354
        },
        {
          "name": "A3",
          "midi": 57,
          "time": 247.23517049999654,
          "velocity": 0.7874015748031497,
          "duration": 0.17647049999999354
        },
        {
          "name": "A2",
          "midi": 45,
          "time": 247.23517049999654,
          "velocity": 0.7874015748031497,
          "duration": 0.17647049999999354
        },
        {
          "name": "E3",
          "midi": 52,
          "time": 247.41164099999654,
          "velocity": 0.7874015748031497,
          "duration": 0.35294099999998707
        },
        {
          "name": "A3",
          "midi": 57,
          "time": 247.41164099999654,
          "velocity": 0.7874015748031497,
          "duration": 0.35294099999998707
        },
        {
          "name": "A2",
          "midi": 45,
          "time": 247.41164099999654,
          "velocity": 0.7874015748031497,
          "duration": 0.35294099999998707
        },
        {
          "name": "E3",
          "midi": 52,
          "time": 247.76458199999652,
          "velocity": 0.7874015748031497,
          "duration": 0.35294099999998707
        },
        {
          "name": "A3",
          "midi": 57,
          "time": 247.76458199999652,
          "velocity": 0.7874015748031497,
          "duration": 0.35294099999998707
        },
        {
          "name": "A2",
          "midi": 45,
          "time": 247.76458199999652,
          "velocity": 0.7874015748031497,
          "duration": 0.35294099999998707
        },
        {
          "name": "F3",
          "midi": 53,
          "time": 248.1175229999965,
          "velocity": 0.7874015748031497,
          "duration": 0.35294099999998707
        },
        {
          "name": "A#3",
          "midi": 58,
          "time": 248.1175229999965,
          "velocity": 0.7874015748031497,
          "duration": 0.35294099999998707
        },
        {
          "name": "A#2",
          "midi": 46,
          "time": 248.1175229999965,
          "velocity": 0.7874015748031497,
          "duration": 0.35294099999998707
        },
        {
          "name": "F#3",
          "midi": 54,
          "time": 248.4704639999965,
          "velocity": 0.7874015748031497,
          "duration": 0.35294099999998707
        },
        {
          "name": "B3",
          "midi": 59,
          "time": 248.4704639999965,
          "velocity": 0.7874015748031497,
          "duration": 0.35294099999998707
        },
        {
          "name": "B2",
          "midi": 47,
          "time": 248.4704639999965,
          "velocity": 0.7874015748031497,
          "duration": 0.35294099999998707
        },
        {
          "name": "F#3",
          "midi": 54,
          "time": 248.82340499999648,
          "velocity": 0.7874015748031497,
          "duration": 0.35294099999998707
        },
        {
          "name": "B3",
          "midi": 59,
          "time": 248.82340499999648,
          "velocity": 0.7874015748031497,
          "duration": 0.35294099999998707
        },
        {
          "name": "B2",
          "midi": 47,
          "time": 248.82340499999648,
          "velocity": 0.7874015748031497,
          "duration": 0.35294099999998707
        },
        {
          "name": "E2",
          "midi": 40,
          "time": 249.17634599999647,
          "velocity": 0.7874015748031497,
          "duration": 0.08823524999999677
        },
        {
          "name": "B1",
          "midi": 35,
          "time": 249.17634599999647,
          "velocity": 0.7874015748031497,
          "duration": 0.08823524999999677
        },
        {
          "name": "E2",
          "midi": 40,
          "time": 249.35281649999646,
          "velocity": 0.7874015748031497,
          "duration": 0.08823524999999677
        },
        {
          "name": "B1",
          "midi": 35,
          "time": 249.35281649999646,
          "velocity": 0.7874015748031497,
          "duration": 0.08823524999999677
        },
        {
          "name": "A3",
          "midi": 57,
          "time": 249.52928699999646,
          "velocity": 0.7874015748031497,
          "duration": 0.35294099999998707
        },
        {
          "name": "D4",
          "midi": 62,
          "time": 249.52928699999646,
          "velocity": 0.7874015748031497,
          "duration": 0.35294099999998707
        },
        {
          "name": "D3",
          "midi": 50,
          "time": 249.52928699999646,
          "velocity": 0.7874015748031497,
          "duration": 0.35294099999998707
        },
        {
          "name": "E2",
          "midi": 40,
          "time": 249.88222799999645,
          "velocity": 0.7874015748031497,
          "duration": 0.08823524999999677
        },
        {
          "name": "B1",
          "midi": 35,
          "time": 249.88222799999645,
          "velocity": 0.7874015748031497,
          "duration": 0.08823524999999677
        },
        {
          "name": "E2",
          "midi": 40,
          "time": 250.05869849999644,
          "velocity": 0.7874015748031497,
          "duration": 0.08823524999999677
        },
        {
          "name": "B1",
          "midi": 35,
          "time": 250.05869849999644,
          "velocity": 0.7874015748031497,
          "duration": 0.08823524999999677
        },
        {
          "name": "F#3",
          "midi": 54,
          "time": 250.23516899999643,
          "velocity": 0.7874015748031497,
          "duration": 0.35294099999998707
        },
        {
          "name": "B3",
          "midi": 59,
          "time": 250.23516899999643,
          "velocity": 0.7874015748031497,
          "duration": 0.35294099999998707
        },
        {
          "name": "B2",
          "midi": 47,
          "time": 250.23516899999643,
          "velocity": 0.7874015748031497,
          "duration": 0.35294099999998707
        },
        {
          "name": "F#3",
          "midi": 54,
          "time": 250.58810999999642,
          "velocity": 0.7874015748031497,
          "duration": 0.35294099999998707
        },
        {
          "name": "B3",
          "midi": 59,
          "time": 250.58810999999642,
          "velocity": 0.7874015748031497,
          "duration": 0.35294099999998707
        },
        {
          "name": "B2",
          "midi": 47,
          "time": 250.58810999999642,
          "velocity": 0.7874015748031497,
          "duration": 0.35294099999998707
        },
        {
          "name": "F3",
          "midi": 53,
          "time": 250.9410509999964,
          "velocity": 0.7874015748031497,
          "duration": 0.35294099999998707
        },
        {
          "name": "A#3",
          "midi": 58,
          "time": 250.9410509999964,
          "velocity": 0.7874015748031497,
          "duration": 0.35294099999998707
        },
        {
          "name": "A#2",
          "midi": 46,
          "time": 250.9410509999964,
          "velocity": 0.7874015748031497,
          "duration": 0.35294099999998707
        },
        {
          "name": "E3",
          "midi": 52,
          "time": 251.2939919999964,
          "velocity": 0.7874015748031497,
          "duration": 0.35294099999998707
        },
        {
          "name": "A3",
          "midi": 57,
          "time": 251.2939919999964,
          "velocity": 0.7874015748031497,
          "duration": 0.35294099999998707
        },
        {
          "name": "A2",
          "midi": 45,
          "time": 251.2939919999964,
          "velocity": 0.7874015748031497,
          "duration": 0.35294099999998707
        },
        {
          "name": "E3",
          "midi": 52,
          "time": 251.64693299999638,
          "velocity": 0.7874015748031497,
          "duration": 0.35294099999998707
        },
        {
          "name": "A3",
          "midi": 57,
          "time": 251.64693299999638,
          "velocity": 0.7874015748031497,
          "duration": 0.35294099999998707
        },
        {
          "name": "A2",
          "midi": 45,
          "time": 251.64693299999638,
          "velocity": 0.7874015748031497,
          "duration": 0.35294099999998707
        },
        {
          "name": "A3",
          "midi": 57,
          "time": 251.99987399999637,
          "velocity": 0.7874015748031497,
          "duration": 0.35294099999998707
        },
        {
          "name": "A2",
          "midi": 45,
          "time": 251.99987399999637,
          "velocity": 0.7874015748031497,
          "duration": 0.35294099999998707
        },
        {
          "name": "E3",
          "midi": 52,
          "time": 251.99987399999637,
          "velocity": 0.7874015748031497,
          "duration": 0.35294099999998707
        },
        {
          "name": "E4",
          "midi": 64,
          "time": 259.76457599999634,
          "velocity": 0.5905511811023622,
          "duration": 5.647056000000077
        },
        {
          "name": "B3",
          "midi": 59,
          "time": 259.76457599999634,
          "velocity": 0.5905511811023622,
          "duration": 5.647056000000077
        },
        {
          "name": "E3",
          "midi": 52,
          "time": 259.76457599999634,
          "velocity": 0.5905511811023622,
          "duration": 5.647056000000077
        },
        {
          "name": "E4",
          "midi": 64,
          "time": 265.4116319999964,
          "velocity": 0.5905511811023622,
          "duration": 5.647056000000077
        },
        {
          "name": "B3",
          "midi": 59,
          "time": 265.4116319999964,
          "velocity": 0.5905511811023622,
          "duration": 5.647056000000077
        },
        {
          "name": "E3",
          "midi": 52,
          "time": 265.4116319999964,
          "velocity": 0.5905511811023622,
          "duration": 5.647056000000077
        },
        {
          "name": "E3",
          "midi": 52,
          "time": 271.0586879999965,
          "velocity": 0.7874015748031497,
          "duration": 1.4117640000000051
        },
        {
          "name": "E4",
          "midi": 64,
          "time": 271.0586879999965,
          "velocity": 0.7874015748031497,
          "duration": 1.4117640000000051
        },
        {
          "name": "B3",
          "midi": 59,
          "time": 271.0586879999965,
          "velocity": 0.7874015748031497,
          "duration": 1.4117640000000051
        },
        {
          "name": "D3",
          "midi": 50,
          "time": 272.4704519999965,
          "velocity": 0.7874015748031497,
          "duration": 1.4117640000000051
        },
        {
          "name": "D4",
          "midi": 62,
          "time": 272.4704519999965,
          "velocity": 0.7874015748031497,
          "duration": 1.4117640000000051
        },
        {
          "name": "A3",
          "midi": 57,
          "time": 272.4704519999965,
          "velocity": 0.7874015748031497,
          "duration": 1.4117640000000051
        },
        {
          "name": "C#3",
          "midi": 49,
          "time": 273.8822159999965,
          "velocity": 0.7874015748031497,
          "duration": 1.4117640000000051
        },
        {
          "name": "C#4",
          "midi": 61,
          "time": 273.8822159999965,
          "velocity": 0.7874015748031497,
          "duration": 1.4117640000000051
        },
        {
          "name": "G#3",
          "midi": 56,
          "time": 273.8822159999965,
          "velocity": 0.7874015748031497,
          "duration": 1.4117640000000051
        },
        {
          "name": "C3",
          "midi": 48,
          "time": 275.2939799999965,
          "velocity": 0.7874015748031497,
          "duration": 1.4117640000000051
        },
        {
          "name": "C4",
          "midi": 60,
          "time": 275.2939799999965,
          "velocity": 0.7874015748031497,
          "duration": 1.4117640000000051
        },
        {
          "name": "G3",
          "midi": 55,
          "time": 275.2939799999965,
          "velocity": 0.7874015748031497,
          "duration": 1.4117640000000051
        },
        {
          "name": "E3",
          "midi": 52,
          "time": 276.7057439999965,
          "velocity": 0.7874015748031497,
          "duration": 1.4117640000000051
        },
        {
          "name": "E4",
          "midi": 64,
          "time": 276.7057439999965,
          "velocity": 0.7874015748031497,
          "duration": 1.4117640000000051
        },
        {
          "name": "B3",
          "midi": 59,
          "time": 276.7057439999965,
          "velocity": 0.7874015748031497,
          "duration": 1.4117640000000051
        },
        {
          "name": "D3",
          "midi": 50,
          "time": 278.1175079999965,
          "velocity": 0.7874015748031497,
          "duration": 1.4117640000000051
        },
        {
          "name": "D4",
          "midi": 62,
          "time": 278.1175079999965,
          "velocity": 0.7874015748031497,
          "duration": 1.4117640000000051
        },
        {
          "name": "A3",
          "midi": 57,
          "time": 278.1175079999965,
          "velocity": 0.7874015748031497,
          "duration": 1.4117640000000051
        },
        {
          "name": "C#3",
          "midi": 49,
          "time": 279.5292719999965,
          "velocity": 0.7874015748031497,
          "duration": 1.4117640000000051
        },
        {
          "name": "C#4",
          "midi": 61,
          "time": 279.5292719999965,
          "velocity": 0.7874015748031497,
          "duration": 1.4117640000000051
        },
        {
          "name": "G#3",
          "midi": 56,
          "time": 279.5292719999965,
          "velocity": 0.7874015748031497,
          "duration": 1.4117640000000051
        },
        {
          "name": "C3",
          "midi": 48,
          "time": 280.94103599999653,
          "velocity": 0.7874015748031497,
          "duration": 1.4117640000000051
        },
        {
          "name": "C4",
          "midi": 60,
          "time": 280.94103599999653,
          "velocity": 0.7874015748031497,
          "duration": 1.4117640000000051
        },
        {
          "name": "G3",
          "midi": 55,
          "time": 280.94103599999653,
          "velocity": 0.7874015748031497,
          "duration": 1.4117640000000051
        },
        {
          "name": "E3",
          "midi": 52,
          "time": 282.35279999999653,
          "velocity": 0.7874015748031497,
          "duration": 1.4117640000000051
        },
        {
          "name": "E4",
          "midi": 64,
          "time": 282.35279999999653,
          "velocity": 0.7874015748031497,
          "duration": 1.4117640000000051
        },
        {
          "name": "B3",
          "midi": 59,
          "time": 282.35279999999653,
          "velocity": 0.7874015748031497,
          "duration": 1.4117640000000051
        },
        {
          "name": "D3",
          "midi": 50,
          "time": 283.76456399999654,
          "velocity": 0.7874015748031497,
          "duration": 1.4117640000000051
        },
        {
          "name": "D4",
          "midi": 62,
          "time": 283.76456399999654,
          "velocity": 0.7874015748031497,
          "duration": 1.4117640000000051
        },
        {
          "name": "A3",
          "midi": 57,
          "time": 283.76456399999654,
          "velocity": 0.7874015748031497,
          "duration": 1.4117640000000051
        },
        {
          "name": "C#3",
          "midi": 49,
          "time": 285.17632799999654,
          "velocity": 0.7874015748031497,
          "duration": 1.4117640000000051
        },
        {
          "name": "C#4",
          "midi": 61,
          "time": 285.17632799999654,
          "velocity": 0.7874015748031497,
          "duration": 1.4117640000000051
        },
        {
          "name": "G#3",
          "midi": 56,
          "time": 285.17632799999654,
          "velocity": 0.7874015748031497,
          "duration": 1.4117640000000051
        },
        {
          "name": "C3",
          "midi": 48,
          "time": 286.58809199999655,
          "velocity": 0.7874015748031497,
          "duration": 1.4117640000000051
        },
        {
          "name": "C4",
          "midi": 60,
          "time": 286.58809199999655,
          "velocity": 0.7874015748031497,
          "duration": 1.4117640000000051
        },
        {
          "name": "G3",
          "midi": 55,
          "time": 286.58809199999655,
          "velocity": 0.7874015748031497,
          "duration": 1.4117640000000051
        },
        {
          "name": "E3",
          "midi": 52,
          "time": 287.99985599999656,
          "velocity": 0.7874015748031497,
          "duration": 1.4117640000000051
        },
        {
          "name": "E4",
          "midi": 64,
          "time": 287.99985599999656,
          "velocity": 0.7874015748031497,
          "duration": 1.4117640000000051
        },
        {
          "name": "B3",
          "midi": 59,
          "time": 287.99985599999656,
          "velocity": 0.7874015748031497,
          "duration": 1.4117640000000051
        },
        {
          "name": "D3",
          "midi": 50,
          "time": 289.41161999999656,
          "velocity": 0.7874015748031497,
          "duration": 1.4117640000000051
        },
        {
          "name": "D4",
          "midi": 62,
          "time": 289.41161999999656,
          "velocity": 0.7874015748031497,
          "duration": 1.4117640000000051
        },
        {
          "name": "A3",
          "midi": 57,
          "time": 289.41161999999656,
          "velocity": 0.7874015748031497,
          "duration": 1.4117640000000051
        },
        {
          "name": "C#3",
          "midi": 49,
          "time": 290.82338399999657,
          "velocity": 0.7874015748031497,
          "duration": 1.4117640000000051
        },
        {
          "name": "C#4",
          "midi": 61,
          "time": 290.82338399999657,
          "velocity": 0.7874015748031497,
          "duration": 1.4117640000000051
        },
        {
          "name": "G#3",
          "midi": 56,
          "time": 290.82338399999657,
          "velocity": 0.7874015748031497,
          "duration": 1.4117640000000051
        },
        {
          "name": "C3",
          "midi": 48,
          "time": 292.23514799999657,
          "velocity": 0.7874015748031497,
          "duration": 1.4117640000000051
        },
        {
          "name": "C4",
          "midi": 60,
          "time": 292.23514799999657,
          "velocity": 0.7874015748031497,
          "duration": 1.4117640000000051
        },
        {
          "name": "G3",
          "midi": 55,
          "time": 292.23514799999657,
          "velocity": 0.7874015748031497,
          "duration": 1.4117640000000051
        },
        {
          "name": "E3",
          "midi": 52,
          "time": 293.6469119999966,
          "velocity": 0.7874015748031497,
          "duration": 1.4117640000000051
        },
        {
          "name": "E4",
          "midi": 64,
          "time": 293.6469119999966,
          "velocity": 0.7874015748031497,
          "duration": 1.4117640000000051
        },
        {
          "name": "B3",
          "midi": 59,
          "time": 293.6469119999966,
          "velocity": 0.7874015748031497,
          "duration": 1.4117640000000051
        },
        {
          "name": "D3",
          "midi": 50,
          "time": 295.0586759999966,
          "velocity": 0.7874015748031497,
          "duration": 1.4117640000000051
        },
        {
          "name": "D4",
          "midi": 62,
          "time": 295.0586759999966,
          "velocity": 0.7874015748031497,
          "duration": 1.4117640000000051
        },
        {
          "name": "A3",
          "midi": 57,
          "time": 295.0586759999966,
          "velocity": 0.7874015748031497,
          "duration": 1.4117640000000051
        },
        {
          "name": "C#3",
          "midi": 49,
          "time": 296.4704399999966,
          "velocity": 0.7874015748031497,
          "duration": 1.4117640000000051
        },
        {
          "name": "C#4",
          "midi": 61,
          "time": 296.4704399999966,
          "velocity": 0.7874015748031497,
          "duration": 1.4117640000000051
        },
        {
          "name": "G#3",
          "midi": 56,
          "time": 296.4704399999966,
          "velocity": 0.7874015748031497,
          "duration": 1.4117640000000051
        },
        {
          "name": "C3",
          "midi": 48,
          "time": 297.8822039999966,
          "velocity": 0.7874015748031497,
          "duration": 1.4117640000000051
        },
        {
          "name": "C4",
          "midi": 60,
          "time": 297.8822039999966,
          "velocity": 0.7874015748031497,
          "duration": 1.4117640000000051
        },
        {
          "name": "G3",
          "midi": 55,
          "time": 297.8822039999966,
          "velocity": 0.7874015748031497,
          "duration": 1.4117640000000051
        },
        {
          "name": "E3",
          "midi": 52,
          "time": 299.2939679999966,
          "velocity": 0.7874015748031497,
          "duration": 1.4117640000000051
        },
        {
          "name": "E4",
          "midi": 64,
          "time": 299.2939679999966,
          "velocity": 0.7874015748031497,
          "duration": 1.4117640000000051
        },
        {
          "name": "B3",
          "midi": 59,
          "time": 299.2939679999966,
          "velocity": 0.7874015748031497,
          "duration": 1.4117640000000051
        },
        {
          "name": "D3",
          "midi": 50,
          "time": 300.7057319999966,
          "velocity": 0.7874015748031497,
          "duration": 1.4117640000000051
        },
        {
          "name": "D4",
          "midi": 62,
          "time": 300.7057319999966,
          "velocity": 0.7874015748031497,
          "duration": 1.4117640000000051
        },
        {
          "name": "A3",
          "midi": 57,
          "time": 300.7057319999966,
          "velocity": 0.7874015748031497,
          "duration": 1.4117640000000051
        },
        {
          "name": "C#3",
          "midi": 49,
          "time": 302.1174959999966,
          "velocity": 0.7874015748031497,
          "duration": 1.4117640000000051
        },
        {
          "name": "C#4",
          "midi": 61,
          "time": 302.1174959999966,
          "velocity": 0.7874015748031497,
          "duration": 1.4117640000000051
        },
        {
          "name": "G#3",
          "midi": 56,
          "time": 302.1174959999966,
          "velocity": 0.7874015748031497,
          "duration": 1.4117640000000051
        },
        {
          "name": "C3",
          "midi": 48,
          "time": 303.5292599999966,
          "velocity": 0.7874015748031497,
          "duration": 1.4117640000000051
        },
        {
          "name": "C4",
          "midi": 60,
          "time": 303.5292599999966,
          "velocity": 0.7874015748031497,
          "duration": 1.4117640000000051
        },
        {
          "name": "G3",
          "midi": 55,
          "time": 303.5292599999966,
          "velocity": 0.7874015748031497,
          "duration": 1.4117640000000051
        },
        {
          "name": "E3",
          "midi": 52,
          "time": 304.9410239999966,
          "velocity": 0.7874015748031497,
          "duration": 1.4117640000000051
        },
        {
          "name": "E4",
          "midi": 64,
          "time": 304.9410239999966,
          "velocity": 0.7874015748031497,
          "duration": 1.4117640000000051
        },
        {
          "name": "B3",
          "midi": 59,
          "time": 304.9410239999966,
          "velocity": 0.7874015748031497,
          "duration": 1.4117640000000051
        },
        {
          "name": "D3",
          "midi": 50,
          "time": 306.3527879999966,
          "velocity": 0.7874015748031497,
          "duration": 1.4117640000000051
        },
        {
          "name": "D4",
          "midi": 62,
          "time": 306.3527879999966,
          "velocity": 0.7874015748031497,
          "duration": 1.4117640000000051
        },
        {
          "name": "A3",
          "midi": 57,
          "time": 306.3527879999966,
          "velocity": 0.7874015748031497,
          "duration": 1.4117640000000051
        },
        {
          "name": "C#3",
          "midi": 49,
          "time": 307.7645519999966,
          "velocity": 0.7874015748031497,
          "duration": 1.4117640000000051
        },
        {
          "name": "C#4",
          "midi": 61,
          "time": 307.7645519999966,
          "velocity": 0.7874015748031497,
          "duration": 1.4117640000000051
        },
        {
          "name": "G#3",
          "midi": 56,
          "time": 307.7645519999966,
          "velocity": 0.7874015748031497,
          "duration": 1.4117640000000051
        },
        {
          "name": "C3",
          "midi": 48,
          "time": 309.17631599999663,
          "velocity": 0.7874015748031497,
          "duration": 1.4117640000000051
        },
        {
          "name": "C4",
          "midi": 60,
          "time": 309.17631599999663,
          "velocity": 0.7874015748031497,
          "duration": 1.4117640000000051
        },
        {
          "name": "G3",
          "midi": 55,
          "time": 309.17631599999663,
          "velocity": 0.7874015748031497,
          "duration": 1.4117640000000051
        },
        {
          "name": "E3",
          "midi": 52,
          "time": 310.58807999999664,
          "velocity": 0.7874015748031497,
          "duration": 1.4117640000000051
        },
        {
          "name": "E4",
          "midi": 64,
          "time": 310.58807999999664,
          "velocity": 0.7874015748031497,
          "duration": 1.4117640000000051
        },
        {
          "name": "B3",
          "midi": 59,
          "time": 310.58807999999664,
          "velocity": 0.7874015748031497,
          "duration": 1.4117640000000051
        },
        {
          "name": "D3",
          "midi": 50,
          "time": 311.99984399999664,
          "velocity": 0.7874015748031497,
          "duration": 1.4117640000000051
        },
        {
          "name": "D4",
          "midi": 62,
          "time": 311.99984399999664,
          "velocity": 0.7874015748031497,
          "duration": 1.4117640000000051
        },
        {
          "name": "A3",
          "midi": 57,
          "time": 311.99984399999664,
          "velocity": 0.7874015748031497,
          "duration": 1.4117640000000051
        },
        {
          "name": "C#3",
          "midi": 49,
          "time": 313.41160799999665,
          "velocity": 0.7874015748031497,
          "duration": 1.4117640000000051
        },
        {
          "name": "C#4",
          "midi": 61,
          "time": 313.41160799999665,
          "velocity": 0.7874015748031497,
          "duration": 1.4117640000000051
        },
        {
          "name": "G#3",
          "midi": 56,
          "time": 313.41160799999665,
          "velocity": 0.7874015748031497,
          "duration": 1.4117640000000051
        },
        {
          "name": "C3",
          "midi": 48,
          "time": 314.82337199999665,
          "velocity": 0.7874015748031497,
          "duration": 1.4117640000000051
        },
        {
          "name": "C4",
          "midi": 60,
          "time": 314.82337199999665,
          "velocity": 0.7874015748031497,
          "duration": 1.4117640000000051
        },
        {
          "name": "G3",
          "midi": 55,
          "time": 314.82337199999665,
          "velocity": 0.7874015748031497,
          "duration": 1.4117640000000051
        },
        {
          "name": "E3",
          "midi": 52,
          "time": 316.23513599999666,
          "velocity": 0.7874015748031497,
          "duration": 1.4117640000000051
        },
        {
          "name": "E4",
          "midi": 64,
          "time": 316.23513599999666,
          "velocity": 0.7874015748031497,
          "duration": 1.4117640000000051
        },
        {
          "name": "B3",
          "midi": 59,
          "time": 316.23513599999666,
          "velocity": 0.7874015748031497,
          "duration": 1.4117640000000051
        },
        {
          "name": "D3",
          "midi": 50,
          "time": 317.64689999999666,
          "velocity": 0.7874015748031497,
          "duration": 1.4117640000000051
        },
        {
          "name": "D4",
          "midi": 62,
          "time": 317.64689999999666,
          "velocity": 0.7874015748031497,
          "duration": 1.4117640000000051
        },
        {
          "name": "A3",
          "midi": 57,
          "time": 317.64689999999666,
          "velocity": 0.7874015748031497,
          "duration": 1.4117640000000051
        },
        {
          "name": "C#3",
          "midi": 49,
          "time": 319.05866399999667,
          "velocity": 0.7874015748031497,
          "duration": 1.4117640000000051
        },
        {
          "name": "C#4",
          "midi": 61,
          "time": 319.05866399999667,
          "velocity": 0.7874015748031497,
          "duration": 1.4117640000000051
        },
        {
          "name": "G#3",
          "midi": 56,
          "time": 319.05866399999667,
          "velocity": 0.7874015748031497,
          "duration": 1.4117640000000051
        },
        {
          "name": "C3",
          "midi": 48,
          "time": 320.4704279999967,
          "velocity": 0.7874015748031497,
          "duration": 1.4117640000000051
        },
        {
          "name": "C4",
          "midi": 60,
          "time": 320.4704279999967,
          "velocity": 0.7874015748031497,
          "duration": 1.4117640000000051
        },
        {
          "name": "G3",
          "midi": 55,
          "time": 320.4704279999967,
          "velocity": 0.7874015748031497,
          "duration": 1.4117640000000051
        },
        {
          "name": "E3",
          "midi": 52,
          "time": 321.8821919999967,
          "velocity": 0.7874015748031497,
          "duration": 1.4117640000000051
        },
        {
          "name": "E4",
          "midi": 64,
          "time": 321.8821919999967,
          "velocity": 0.7874015748031497,
          "duration": 1.4117640000000051
        },
        {
          "name": "B3",
          "midi": 59,
          "time": 321.8821919999967,
          "velocity": 0.7874015748031497,
          "duration": 1.4117640000000051
        },
        {
          "name": "D3",
          "midi": 50,
          "time": 323.2939559999967,
          "velocity": 0.7874015748031497,
          "duration": 1.4117640000000051
        },
        {
          "name": "D4",
          "midi": 62,
          "time": 323.2939559999967,
          "velocity": 0.7874015748031497,
          "duration": 1.4117640000000051
        },
        {
          "name": "A3",
          "midi": 57,
          "time": 323.2939559999967,
          "velocity": 0.7874015748031497,
          "duration": 1.4117640000000051
        },
        {
          "name": "C#3",
          "midi": 49,
          "time": 324.7057199999967,
          "velocity": 0.7874015748031497,
          "duration": 1.4117640000000051
        },
        {
          "name": "C#4",
          "midi": 61,
          "time": 324.7057199999967,
          "velocity": 0.7874015748031497,
          "duration": 1.4117640000000051
        },
        {
          "name": "G#3",
          "midi": 56,
          "time": 324.7057199999967,
          "velocity": 0.7874015748031497,
          "duration": 1.4117640000000051
        },
        {
          "name": "C#4",
          "midi": 61,
          "time": 326.1174839999967,
          "velocity": 0.7874015748031497,
          "duration": 0.23529400000001033
        },
        {
          "name": "F#4",
          "midi": 66,
          "time": 326.1174839999967,
          "velocity": 0.7874015748031497,
          "duration": 0.23529400000001033
        },
        {
          "name": "F#3",
          "midi": 54,
          "time": 326.1174839999967,
          "velocity": 0.7874015748031497,
          "duration": 0.23529400000001033
        },
        {
          "name": "D4",
          "midi": 62,
          "time": 326.3527779999967,
          "velocity": 0.7874015748031497,
          "duration": 0.23529400000001033
        },
        {
          "name": "G4",
          "midi": 67,
          "time": 326.3527779999967,
          "velocity": 0.7874015748031497,
          "duration": 0.23529400000001033
        },
        {
          "name": "G3",
          "midi": 55,
          "time": 326.3527779999967,
          "velocity": 0.7874015748031497,
          "duration": 0.23529400000001033
        },
        {
          "name": "C#4",
          "midi": 61,
          "time": 326.5880719999967,
          "velocity": 0.7874015748031497,
          "duration": 0.23529400000001033
        },
        {
          "name": "F#4",
          "midi": 66,
          "time": 326.5880719999967,
          "velocity": 0.7874015748031497,
          "duration": 0.23529400000001033
        },
        {
          "name": "F#3",
          "midi": 54,
          "time": 326.5880719999967,
          "velocity": 0.7874015748031497,
          "duration": 0.23529400000001033
        },
        {
          "name": "D4",
          "midi": 62,
          "time": 326.8233659999967,
          "velocity": 0.7874015748031497,
          "duration": 0.23529400000001033
        },
        {
          "name": "G4",
          "midi": 67,
          "time": 326.8233659999967,
          "velocity": 0.7874015748031497,
          "duration": 0.23529400000001033
        },
        {
          "name": "G3",
          "midi": 55,
          "time": 326.8233659999967,
          "velocity": 0.7874015748031497,
          "duration": 0.23529400000001033
        },
        {
          "name": "C#4",
          "midi": 61,
          "time": 327.05865999999673,
          "velocity": 0.7874015748031497,
          "duration": 0.23529400000001033
        },
        {
          "name": "F#4",
          "midi": 66,
          "time": 327.05865999999673,
          "velocity": 0.7874015748031497,
          "duration": 0.23529400000001033
        },
        {
          "name": "F#3",
          "midi": 54,
          "time": 327.05865999999673,
          "velocity": 0.7874015748031497,
          "duration": 0.23529400000001033
        },
        {
          "name": "A3",
          "midi": 57,
          "time": 327.29395399999675,
          "velocity": 0.7874015748031497,
          "duration": 0.23529400000001033
        },
        {
          "name": "D4",
          "midi": 62,
          "time": 327.29395399999675,
          "velocity": 0.7874015748031497,
          "duration": 0.23529400000001033
        },
        {
          "name": "D3",
          "midi": 50,
          "time": 327.29395399999675,
          "velocity": 0.7874015748031497,
          "duration": 0.23529400000001033
        },
        {
          "name": "E3",
          "midi": 52,
          "time": 327.52924799999676,
          "velocity": 0.7874015748031497,
          "duration": 1.4117640000000051
        },
        {
          "name": "E4",
          "midi": 64,
          "time": 327.52924799999676,
          "velocity": 0.7874015748031497,
          "duration": 1.4117640000000051
        },
        {
          "name": "B3",
          "midi": 59,
          "time": 327.52924799999676,
          "velocity": 0.7874015748031497,
          "duration": 1.4117640000000051
        },
        {
          "name": "D3",
          "midi": 50,
          "time": 328.94101199999676,
          "velocity": 0.7874015748031497,
          "duration": 1.4117640000000051
        },
        {
          "name": "D4",
          "midi": 62,
          "time": 328.94101199999676,
          "velocity": 0.7874015748031497,
          "duration": 1.4117640000000051
        },
        {
          "name": "A3",
          "midi": 57,
          "time": 328.94101199999676,
          "velocity": 0.7874015748031497,
          "duration": 1.4117640000000051
        },
        {
          "name": "C#3",
          "midi": 49,
          "time": 330.35277599999677,
          "velocity": 0.7874015748031497,
          "duration": 1.4117640000000051
        },
        {
          "name": "C#4",
          "midi": 61,
          "time": 330.35277599999677,
          "velocity": 0.7874015748031497,
          "duration": 1.4117640000000051
        },
        {
          "name": "G#3",
          "midi": 56,
          "time": 330.35277599999677,
          "velocity": 0.7874015748031497,
          "duration": 1.4117640000000051
        },
        {
          "name": "C#4",
          "midi": 61,
          "time": 331.76453999999677,
          "velocity": 0.7874015748031497,
          "duration": 0.23529400000001033
        },
        {
          "name": "F#4",
          "midi": 66,
          "time": 331.76453999999677,
          "velocity": 0.7874015748031497,
          "duration": 0.23529400000001033
        },
        {
          "name": "F#3",
          "midi": 54,
          "time": 331.76453999999677,
          "velocity": 0.7874015748031497,
          "duration": 0.23529400000001033
        },
        {
          "name": "D4",
          "midi": 62,
          "time": 331.9998339999968,
          "velocity": 0.7874015748031497,
          "duration": 0.23529400000001033
        },
        {
          "name": "G4",
          "midi": 67,
          "time": 331.9998339999968,
          "velocity": 0.7874015748031497,
          "duration": 0.23529400000001033
        },
        {
          "name": "G3",
          "midi": 55,
          "time": 331.9998339999968,
          "velocity": 0.7874015748031497,
          "duration": 0.23529400000001033
        },
        {
          "name": "C#4",
          "midi": 61,
          "time": 332.2351279999968,
          "velocity": 0.7874015748031497,
          "duration": 0.23529400000001033
        },
        {
          "name": "F#4",
          "midi": 66,
          "time": 332.2351279999968,
          "velocity": 0.7874015748031497,
          "duration": 0.23529400000001033
        },
        {
          "name": "F#3",
          "midi": 54,
          "time": 332.2351279999968,
          "velocity": 0.7874015748031497,
          "duration": 0.23529400000001033
        },
        {
          "name": "D4",
          "midi": 62,
          "time": 332.4704219999968,
          "velocity": 0.7874015748031497,
          "duration": 0.23529400000001033
        },
        {
          "name": "G4",
          "midi": 67,
          "time": 332.4704219999968,
          "velocity": 0.7874015748031497,
          "duration": 0.23529400000001033
        },
        {
          "name": "G3",
          "midi": 55,
          "time": 332.4704219999968,
          "velocity": 0.7874015748031497,
          "duration": 0.23529400000001033
        },
        {
          "name": "C#4",
          "midi": 61,
          "time": 332.7057159999968,
          "velocity": 0.7874015748031497,
          "duration": 0.23529400000001033
        },
        {
          "name": "F#4",
          "midi": 66,
          "time": 332.7057159999968,
          "velocity": 0.7874015748031497,
          "duration": 0.23529400000001033
        },
        {
          "name": "F#3",
          "midi": 54,
          "time": 332.7057159999968,
          "velocity": 0.7874015748031497,
          "duration": 0.23529400000001033
        },
        {
          "name": "A3",
          "midi": 57,
          "time": 332.9410099999968,
          "velocity": 0.7874015748031497,
          "duration": 0.23529400000001033
        },
        {
          "name": "D4",
          "midi": 62,
          "time": 332.9410099999968,
          "velocity": 0.7874015748031497,
          "duration": 0.23529400000001033
        },
        {
          "name": "D3",
          "midi": 50,
          "time": 332.9410099999968,
          "velocity": 0.7874015748031497,
          "duration": 0.23529400000001033
        },
        {
          "name": "E3",
          "midi": 52,
          "time": 333.17630399999683,
          "velocity": 0.7874015748031497,
          "duration": 1.4117640000000051
        },
        {
          "name": "E4",
          "midi": 64,
          "time": 333.17630399999683,
          "velocity": 0.7874015748031497,
          "duration": 1.4117640000000051
        },
        {
          "name": "B3",
          "midi": 59,
          "time": 333.17630399999683,
          "velocity": 0.7874015748031497,
          "duration": 1.4117640000000051
        },
        {
          "name": "D3",
          "midi": 50,
          "time": 334.58806799999684,
          "velocity": 0.7874015748031497,
          "duration": 1.4117640000000051
        },
        {
          "name": "D4",
          "midi": 62,
          "time": 334.58806799999684,
          "velocity": 0.7874015748031497,
          "duration": 1.4117640000000051
        },
        {
          "name": "A3",
          "midi": 57,
          "time": 334.58806799999684,
          "velocity": 0.7874015748031497,
          "duration": 1.4117640000000051
        },
        {
          "name": "C#3",
          "midi": 49,
          "time": 335.99983199999684,
          "velocity": 0.7874015748031497,
          "duration": 1.4117640000000051
        },
        {
          "name": "C#4",
          "midi": 61,
          "time": 335.99983199999684,
          "velocity": 0.7874015748031497,
          "duration": 1.4117640000000051
        },
        {
          "name": "G#3",
          "midi": 56,
          "time": 335.99983199999684,
          "velocity": 0.7874015748031497,
          "duration": 1.4117640000000051
        },
        {
          "name": "C#4",
          "midi": 61,
          "time": 337.41159599999685,
          "velocity": 0.7874015748031497,
          "duration": 0.23529400000001033
        },
        {
          "name": "F#4",
          "midi": 66,
          "time": 337.41159599999685,
          "velocity": 0.7874015748031497,
          "duration": 0.23529400000001033
        },
        {
          "name": "F#3",
          "midi": 54,
          "time": 337.41159599999685,
          "velocity": 0.7874015748031497,
          "duration": 0.23529400000001033
        },
        {
          "name": "D4",
          "midi": 62,
          "time": 337.64688999999686,
          "velocity": 0.7874015748031497,
          "duration": 0.23529400000001033
        },
        {
          "name": "G4",
          "midi": 67,
          "time": 337.64688999999686,
          "velocity": 0.7874015748031497,
          "duration": 0.23529400000001033
        },
        {
          "name": "G3",
          "midi": 55,
          "time": 337.64688999999686,
          "velocity": 0.7874015748031497,
          "duration": 0.23529400000001033
        },
        {
          "name": "C#4",
          "midi": 61,
          "time": 337.88218399999687,
          "velocity": 0.7874015748031497,
          "duration": 0.23529400000001033
        },
        {
          "name": "F#4",
          "midi": 66,
          "time": 337.88218399999687,
          "velocity": 0.7874015748031497,
          "duration": 0.23529400000001033
        },
        {
          "name": "F#3",
          "midi": 54,
          "time": 337.88218399999687,
          "velocity": 0.7874015748031497,
          "duration": 0.23529400000001033
        },
        {
          "name": "D4",
          "midi": 62,
          "time": 338.1174779999969,
          "velocity": 0.7874015748031497,
          "duration": 0.23529400000001033
        },
        {
          "name": "G4",
          "midi": 67,
          "time": 338.1174779999969,
          "velocity": 0.7874015748031497,
          "duration": 0.23529400000001033
        },
        {
          "name": "G3",
          "midi": 55,
          "time": 338.1174779999969,
          "velocity": 0.7874015748031497,
          "duration": 0.23529400000001033
        },
        {
          "name": "C#4",
          "midi": 61,
          "time": 338.3527719999969,
          "velocity": 0.7874015748031497,
          "duration": 0.23529400000001033
        },
        {
          "name": "F#4",
          "midi": 66,
          "time": 338.3527719999969,
          "velocity": 0.7874015748031497,
          "duration": 0.23529400000001033
        },
        {
          "name": "F#3",
          "midi": 54,
          "time": 338.3527719999969,
          "velocity": 0.7874015748031497,
          "duration": 0.23529400000001033
        },
        {
          "name": "A3",
          "midi": 57,
          "time": 338.5880659999969,
          "velocity": 0.7874015748031497,
          "duration": 0.23529400000001033
        },
        {
          "name": "D4",
          "midi": 62,
          "time": 338.5880659999969,
          "velocity": 0.7874015748031497,
          "duration": 0.23529400000001033
        },
        {
          "name": "D3",
          "midi": 50,
          "time": 338.5880659999969,
          "velocity": 0.7874015748031497,
          "duration": 0.23529400000001033
        },
        {
          "name": "E3",
          "midi": 52,
          "time": 338.8233599999969,
          "velocity": 0.7874015748031497,
          "duration": 0.35294099999998707
        },
        {
          "name": "B3",
          "midi": 59,
          "time": 338.8233599999969,
          "velocity": 0.7874015748031497,
          "duration": 0.35294099999998707
        },
        {
          "name": "E4",
          "midi": 64,
          "time": 338.8233599999969,
          "velocity": 0.7874015748031497,
          "duration": 0.35294099999998707
        }
      ],
      "controlChanges": {
        "7": [
          {
            "number": 7,
            "time": 0,
            "value": 0.6299212598425197
          }
        ],
        "10": [
          {
            "number": 10,
            "time": 0,
            "value": 0
          }
        ],
        "32": [
          {
            "number": 32,
            "time": 0,
            "value": 0
          }
        ],
        "91": [
          {
            "number": 91,
            "time": 0,
            "value": 0.1889763779527559
          }
        ],
        "93": [
          {
            "number": 93,
            "time": 0,
            "value": 0.1889763779527559
          }
        ]
      },
      "id": 4,
      "name": "Rhythm Guitar",
      "instrumentNumber": 30,
      "instrument": "distortion guitar",
      "instrumentFamily": "guitar",
      "channelNumber": 3,
      "isPercussion": false
    },
    {
      "startTime": 5.647056,
      "duration": 339.1763009999969,
      "length": 2196,
      "notes": [
        {
          "name": "F3",
          "midi": 53,
          "time": 5.647056,
          "velocity": 0.5905511811023622,
          "duration": 2.1176460000000006
        },
        {
          "name": "C4",
          "midi": 60,
          "time": 5.647056,
          "velocity": 0.5905511811023622,
          "duration": 2.1176460000000006
        },
        {
          "name": "F4",
          "midi": 65,
          "time": 5.647056,
          "velocity": 0.5905511811023622,
          "duration": 2.1176460000000006
        },
        {
          "name": "C4",
          "midi": 60,
          "time": 9.176466000000001,
          "velocity": 0.5905511811023622,
          "duration": 0.7058820000000008
        },
        {
          "name": "F4",
          "midi": 65,
          "time": 9.176466000000001,
          "velocity": 0.5905511811023622,
          "duration": 0.7058820000000008
        },
        {
          "name": "F3",
          "midi": 53,
          "time": 9.176466000000001,
          "velocity": 0.5905511811023622,
          "duration": 0.7058820000000008
        },
        {
          "name": "C4",
          "midi": 60,
          "time": 9.882348000000002,
          "velocity": 0.5905511811023622,
          "duration": 0.7058820000000008
        },
        {
          "name": "F4",
          "midi": 65,
          "time": 9.882348000000002,
          "velocity": 0.5905511811023622,
          "duration": 0.7058820000000008
        },
        {
          "name": "F3",
          "midi": 53,
          "time": 9.882348000000002,
          "velocity": 0.5905511811023622,
          "duration": 0.7058820000000008
        },
        {
          "name": "C4",
          "midi": 60,
          "time": 10.588230000000003,
          "velocity": 0.5905511811023622,
          "duration": 0.7058820000000008
        },
        {
          "name": "F4",
          "midi": 65,
          "time": 10.588230000000003,
          "velocity": 0.5905511811023622,
          "duration": 0.7058820000000008
        },
        {
          "name": "F3",
          "midi": 53,
          "time": 10.588230000000003,
          "velocity": 0.5905511811023622,
          "duration": 0.7058820000000008
        },
        {
          "name": "F4",
          "midi": 65,
          "time": 11.294112000000004,
          "velocity": 0.5905511811023622,
          "duration": 2.1176460000000006
        },
        {
          "name": "C4",
          "midi": 60,
          "time": 11.294112000000004,
          "velocity": 0.5905511811023622,
          "duration": 2.1176460000000006
        },
        {
          "name": "F3",
          "midi": 53,
          "time": 11.294112000000004,
          "velocity": 0.5905511811023622,
          "duration": 2.1176460000000006
        },
        {
          "name": "C4",
          "midi": 60,
          "time": 14.823522000000004,
          "velocity": 0.5905511811023622,
          "duration": 0.7058820000000008
        },
        {
          "name": "F4",
          "midi": 65,
          "time": 14.823522000000004,
          "velocity": 0.5905511811023622,
          "duration": 0.7058820000000008
        },
        {
          "name": "F3",
          "midi": 53,
          "time": 14.823522000000004,
          "velocity": 0.5905511811023622,
          "duration": 0.7058820000000008
        },
        {
          "name": "C4",
          "midi": 60,
          "time": 15.529404000000005,
          "velocity": 0.5905511811023622,
          "duration": 0.7058820000000008
        },
        {
          "name": "F4",
          "midi": 65,
          "time": 15.529404000000005,
          "velocity": 0.5905511811023622,
          "duration": 0.7058820000000008
        },
        {
          "name": "F3",
          "midi": 53,
          "time": 15.529404000000005,
          "velocity": 0.5905511811023622,
          "duration": 0.7058820000000008
        },
        {
          "name": "C4",
          "midi": 60,
          "time": 16.235286000000006,
          "velocity": 0.5905511811023622,
          "duration": 0.705881999999999
        },
        {
          "name": "F4",
          "midi": 65,
          "time": 16.235286000000006,
          "velocity": 0.5905511811023622,
          "duration": 0.705881999999999
        },
        {
          "name": "F3",
          "midi": 53,
          "time": 16.235286000000006,
          "velocity": 0.5905511811023622,
          "duration": 0.705881999999999
        },
        {
          "name": "F4",
          "midi": 65,
          "time": 16.941168000000005,
          "velocity": 0.5905511811023622,
          "duration": 2.1176460000000006
        },
        {
          "name": "C4",
          "midi": 60,
          "time": 16.941168000000005,
          "velocity": 0.5905511811023622,
          "duration": 2.1176460000000006
        },
        {
          "name": "F3",
          "midi": 53,
          "time": 16.941168000000005,
          "velocity": 0.5905511811023622,
          "duration": 2.1176460000000006
        },
        {
          "name": "C4",
          "midi": 60,
          "time": 20.470578000000007,
          "velocity": 0.5905511811023622,
          "duration": 0.705881999999999
        },
        {
          "name": "F4",
          "midi": 65,
          "time": 20.470578000000007,
          "velocity": 0.5905511811023622,
          "duration": 0.705881999999999
        },
        {
          "name": "F3",
          "midi": 53,
          "time": 20.470578000000007,
          "velocity": 0.5905511811023622,
          "duration": 0.705881999999999
        },
        {
          "name": "C4",
          "midi": 60,
          "time": 21.176460000000006,
          "velocity": 0.5905511811023622,
          "duration": 0.705881999999999
        },
        {
          "name": "F4",
          "midi": 65,
          "time": 21.176460000000006,
          "velocity": 0.5905511811023622,
          "duration": 0.705881999999999
        },
        {
          "name": "F3",
          "midi": 53,
          "time": 21.176460000000006,
          "velocity": 0.5905511811023622,
          "duration": 0.705881999999999
        },
        {
          "name": "C4",
          "midi": 60,
          "time": 21.882342000000005,
          "velocity": 0.5905511811023622,
          "duration": 0.705881999999999
        },
        {
          "name": "F4",
          "midi": 65,
          "time": 21.882342000000005,
          "velocity": 0.5905511811023622,
          "duration": 0.705881999999999
        },
        {
          "name": "F3",
          "midi": 53,
          "time": 21.882342000000005,
          "velocity": 0.5905511811023622,
          "duration": 0.705881999999999
        },
        {
          "name": "B2",
          "midi": 47,
          "time": 22.588224000000004,
          "velocity": 0.7874015748031497,
          "duration": 0.705881999999999
        },
        {
          "name": "F#3",
          "midi": 54,
          "time": 22.588224000000004,
          "velocity": 0.7874015748031497,
          "duration": 0.705881999999999
        },
        {
          "name": "B3",
          "midi": 59,
          "time": 22.588224000000004,
          "velocity": 0.7874015748031497,
          "duration": 0.705881999999999
        },
        {
          "name": "F#3",
          "midi": 54,
          "time": 22.588224000000004,
          "velocity": 0.7874015748031497,
          "duration": 0.705881999999999
        },
        {
          "name": "B3",
          "midi": 59,
          "time": 22.588224000000004,
          "velocity": 0.7874015748031497,
          "duration": 0.705881999999999
        },
        {
          "name": "F#3",
          "midi": 54,
          "time": 22.588224000000004,
          "velocity": 0.7874015748031497,
          "duration": 0.705881999999999
        },
        {
          "name": "B3",
          "midi": 59,
          "time": 22.588224000000004,
          "velocity": 0.7874015748031497,
          "duration": 0.705881999999999
        },
        {
          "name": "D4",
          "midi": 62,
          "time": 23.294106000000003,
          "velocity": 0.7874015748031497,
          "duration": 0.705881999999999
        },
        {
          "name": "A3",
          "midi": 57,
          "time": 23.294106000000003,
          "velocity": 0.7874015748031497,
          "duration": 0.705881999999999
        },
        {
          "name": "D3",
          "midi": 50,
          "time": 23.294106000000003,
          "velocity": 0.7874015748031497,
          "duration": 0.705881999999999
        },
        {
          "name": "D4",
          "midi": 62,
          "time": 23.999988000000002,
          "velocity": 0.7874015748031497,
          "duration": 0.3529410000000013
        },
        {
          "name": "A3",
          "midi": 57,
          "time": 23.999988000000002,
          "velocity": 0.7874015748031497,
          "duration": 0.3529410000000013
        },
        {
          "name": "D3",
          "midi": 50,
          "time": 23.999988000000002,
          "velocity": 0.7874015748031497,
          "duration": 0.3529410000000013
        },
        {
          "name": "E4",
          "midi": 64,
          "time": 24.352929000000003,
          "velocity": 0.7874015748031497,
          "duration": 0.3529410000000013
        },
        {
          "name": "B3",
          "midi": 59,
          "time": 24.352929000000003,
          "velocity": 0.7874015748031497,
          "duration": 0.3529410000000013
        },
        {
          "name": "E3",
          "midi": 52,
          "time": 24.352929000000003,
          "velocity": 0.7874015748031497,
          "duration": 0.3529410000000013
        },
        {
          "name": "E4",
          "midi": 64,
          "time": 24.705870000000004,
          "velocity": 0.7874015748031497,
          "duration": 0.705881999999999
        },
        {
          "name": "B3",
          "midi": 59,
          "time": 24.705870000000004,
          "velocity": 0.7874015748031497,
          "duration": 0.705881999999999
        },
        {
          "name": "E3",
          "midi": 52,
          "time": 24.705870000000004,
          "velocity": 0.7874015748031497,
          "duration": 0.705881999999999
        },
        {
          "name": "G4",
          "midi": 67,
          "time": 25.411752000000003,
          "velocity": 0.7874015748031497,
          "duration": 0.17647050000000064
        },
        {
          "name": "D4",
          "midi": 62,
          "time": 25.411752000000003,
          "velocity": 0.7874015748031497,
          "duration": 0.17647050000000064
        },
        {
          "name": "G3",
          "midi": 55,
          "time": 25.411752000000003,
          "velocity": 0.7874015748031497,
          "duration": 0.17647050000000064
        },
        {
          "name": "F#4",
          "midi": 66,
          "time": 25.588222500000004,
          "velocity": 0.7874015748031497,
          "duration": 0.17647050000000064
        },
        {
          "name": "C#4",
          "midi": 61,
          "time": 25.588222500000004,
          "velocity": 0.7874015748031497,
          "duration": 0.17647050000000064
        },
        {
          "name": "F#3",
          "midi": 54,
          "time": 25.588222500000004,
          "velocity": 0.7874015748031497,
          "duration": 0.17647050000000064
        },
        {
          "name": "G4",
          "midi": 67,
          "time": 25.764693000000005,
          "velocity": 0.7874015748031497,
          "duration": 0.17647050000000064
        },
        {
          "name": "D4",
          "midi": 62,
          "time": 25.764693000000005,
          "velocity": 0.7874015748031497,
          "duration": 0.17647050000000064
        },
        {
          "name": "G3",
          "midi": 55,
          "time": 25.764693000000005,
          "velocity": 0.7874015748031497,
          "duration": 0.17647050000000064
        },
        {
          "name": "F#4",
          "midi": 66,
          "time": 25.941163500000005,
          "velocity": 0.7874015748031497,
          "duration": 0.17647050000000064
        },
        {
          "name": "C#4",
          "midi": 61,
          "time": 25.941163500000005,
          "velocity": 0.7874015748031497,
          "duration": 0.17647050000000064
        },
        {
          "name": "F#3",
          "midi": 54,
          "time": 25.941163500000005,
          "velocity": 0.7874015748031497,
          "duration": 0.17647050000000064
        },
        {
          "name": "G4",
          "midi": 67,
          "time": 26.117634000000006,
          "velocity": 0.7874015748031497,
          "duration": 0.17647050000000064
        },
        {
          "name": "D4",
          "midi": 62,
          "time": 26.117634000000006,
          "velocity": 0.7874015748031497,
          "duration": 0.17647050000000064
        },
        {
          "name": "G3",
          "midi": 55,
          "time": 26.117634000000006,
          "velocity": 0.7874015748031497,
          "duration": 0.17647050000000064
        },
        {
          "name": "F#4",
          "midi": 66,
          "time": 26.294104500000007,
          "velocity": 0.7874015748031497,
          "duration": 0.17647050000000064
        },
        {
          "name": "C#4",
          "midi": 61,
          "time": 26.294104500000007,
          "velocity": 0.7874015748031497,
          "duration": 0.17647050000000064
        },
        {
          "name": "F#3",
          "midi": 54,
          "time": 26.294104500000007,
          "velocity": 0.7874015748031497,
          "duration": 0.17647050000000064
        },
        {
          "name": "D4",
          "midi": 62,
          "time": 26.470575000000007,
          "velocity": 0.7874015748031497,
          "duration": 0.3441174750000009
        },
        {
          "name": "A3",
          "midi": 57,
          "time": 26.470575000000007,
          "velocity": 0.7874015748031497,
          "duration": 0.3441174750000009
        },
        {
          "name": "D3",
          "midi": 50,
          "time": 26.470575000000007,
          "velocity": 0.7874015748031497,
          "duration": 0.3441174750000009
        },
        {
          "name": "D4",
          "midi": 62,
          "time": 26.82351600000001,
          "velocity": 0.7874015748031497,
          "duration": 0.3529410000000013
        },
        {
          "name": "A3",
          "midi": 57,
          "time": 26.82351600000001,
          "velocity": 0.7874015748031497,
          "duration": 0.3529410000000013
        },
        {
          "name": "D3",
          "midi": 50,
          "time": 26.82351600000001,
          "velocity": 0.7874015748031497,
          "duration": 0.3529410000000013
        },
        {
          "name": "E4",
          "midi": 64,
          "time": 27.17645700000001,
          "velocity": 0.7874015748031497,
          "duration": 0.3529410000000013
        },
        {
          "name": "B3",
          "midi": 59,
          "time": 27.17645700000001,
          "velocity": 0.7874015748031497,
          "duration": 0.3529410000000013
        },
        {
          "name": "E3",
          "midi": 52,
          "time": 27.17645700000001,
          "velocity": 0.7874015748031497,
          "duration": 0.3529410000000013
        },
        {
          "name": "E4",
          "midi": 64,
          "time": 27.52939800000001,
          "velocity": 0.7874015748031497,
          "duration": 0.705881999999999
        },
        {
          "name": "B3",
          "midi": 59,
          "time": 27.52939800000001,
          "velocity": 0.7874015748031497,
          "duration": 0.705881999999999
        },
        {
          "name": "E3",
          "midi": 52,
          "time": 27.52939800000001,
          "velocity": 0.7874015748031497,
          "duration": 0.705881999999999
        },
        {
          "name": "B3",
          "midi": 59,
          "time": 28.23528000000001,
          "velocity": 0.7874015748031497,
          "duration": 0.705881999999999
        },
        {
          "name": "F#3",
          "midi": 54,
          "time": 28.23528000000001,
          "velocity": 0.7874015748031497,
          "duration": 0.705881999999999
        },
        {
          "name": "B2",
          "midi": 47,
          "time": 28.23528000000001,
          "velocity": 0.7874015748031497,
          "duration": 0.705881999999999
        },
        {
          "name": "D4",
          "midi": 62,
          "time": 28.94116200000001,
          "velocity": 0.7874015748031497,
          "duration": 0.705881999999999
        },
        {
          "name": "A3",
          "midi": 57,
          "time": 28.94116200000001,
          "velocity": 0.7874015748031497,
          "duration": 0.705881999999999
        },
        {
          "name": "D3",
          "midi": 50,
          "time": 28.94116200000001,
          "velocity": 0.7874015748031497,
          "duration": 0.705881999999999
        },
        {
          "name": "D4",
          "midi": 62,
          "time": 29.647044000000008,
          "velocity": 0.7874015748031497,
          "duration": 0.3529410000000013
        },
        {
          "name": "A3",
          "midi": 57,
          "time": 29.647044000000008,
          "velocity": 0.7874015748031497,
          "duration": 0.3529410000000013
        },
        {
          "name": "D3",
          "midi": 50,
          "time": 29.647044000000008,
          "velocity": 0.7874015748031497,
          "duration": 0.3529410000000013
        },
        {
          "name": "E4",
          "midi": 64,
          "time": 29.99998500000001,
          "velocity": 0.7874015748031497,
          "duration": 0.3529410000000013
        },
        {
          "name": "B3",
          "midi": 59,
          "time": 29.99998500000001,
          "velocity": 0.7874015748031497,
          "duration": 0.3529410000000013
        },
        {
          "name": "E3",
          "midi": 52,
          "time": 29.99998500000001,
          "velocity": 0.7874015748031497,
          "duration": 0.3529410000000013
        },
        {
          "name": "E4",
          "midi": 64,
          "time": 30.35292600000001,
          "velocity": 0.7874015748031497,
          "duration": 0.705881999999999
        },
        {
          "name": "B3",
          "midi": 59,
          "time": 30.35292600000001,
          "velocity": 0.7874015748031497,
          "duration": 0.705881999999999
        },
        {
          "name": "E3",
          "midi": 52,
          "time": 30.35292600000001,
          "velocity": 0.7874015748031497,
          "duration": 0.705881999999999
        },
        {
          "name": "G4",
          "midi": 67,
          "time": 31.05880800000001,
          "velocity": 0.7874015748031497,
          "duration": 0.17647050000000064
        },
        {
          "name": "D4",
          "midi": 62,
          "time": 31.05880800000001,
          "velocity": 0.7874015748031497,
          "duration": 0.17647050000000064
        },
        {
          "name": "G3",
          "midi": 55,
          "time": 31.05880800000001,
          "velocity": 0.7874015748031497,
          "duration": 0.17647050000000064
        },
        {
          "name": "F#4",
          "midi": 66,
          "time": 31.23527850000001,
          "velocity": 0.7874015748031497,
          "duration": 0.17647050000000064
        },
        {
          "name": "C#4",
          "midi": 61,
          "time": 31.23527850000001,
          "velocity": 0.7874015748031497,
          "duration": 0.17647050000000064
        },
        {
          "name": "F#3",
          "midi": 54,
          "time": 31.23527850000001,
          "velocity": 0.7874015748031497,
          "duration": 0.17647050000000064
        },
        {
          "name": "G4",
          "midi": 67,
          "time": 31.41174900000001,
          "velocity": 0.7874015748031497,
          "duration": 0.17647050000000064
        },
        {
          "name": "D4",
          "midi": 62,
          "time": 31.41174900000001,
          "velocity": 0.7874015748031497,
          "duration": 0.17647050000000064
        },
        {
          "name": "G3",
          "midi": 55,
          "time": 31.41174900000001,
          "velocity": 0.7874015748031497,
          "duration": 0.17647050000000064
        },
        {
          "name": "F#4",
          "midi": 66,
          "time": 31.58821950000001,
          "velocity": 0.7874015748031497,
          "duration": 0.17647050000000064
        },
        {
          "name": "C#4",
          "midi": 61,
          "time": 31.58821950000001,
          "velocity": 0.7874015748031497,
          "duration": 0.17647050000000064
        },
        {
          "name": "F#3",
          "midi": 54,
          "time": 31.58821950000001,
          "velocity": 0.7874015748031497,
          "duration": 0.17647050000000064
        },
        {
          "name": "G4",
          "midi": 67,
          "time": 31.764690000000012,
          "velocity": 0.7874015748031497,
          "duration": 0.17647050000000064
        },
        {
          "name": "D4",
          "midi": 62,
          "time": 31.764690000000012,
          "velocity": 0.7874015748031497,
          "duration": 0.17647050000000064
        },
        {
          "name": "G3",
          "midi": 55,
          "time": 31.764690000000012,
          "velocity": 0.7874015748031497,
          "duration": 0.17647050000000064
        },
        {
          "name": "F#4",
          "midi": 66,
          "time": 31.941160500000013,
          "velocity": 0.7874015748031497,
          "duration": 0.1764704999999971
        },
        {
          "name": "C#4",
          "midi": 61,
          "time": 31.941160500000013,
          "velocity": 0.7874015748031497,
          "duration": 0.1764704999999971
        },
        {
          "name": "F#3",
          "midi": 54,
          "time": 31.941160500000013,
          "velocity": 0.7874015748031497,
          "duration": 0.1764704999999971
        },
        {
          "name": "D4",
          "midi": 62,
          "time": 32.11763100000001,
          "velocity": 0.7874015748031497,
          "duration": 0.34411747499999734
        },
        {
          "name": "A3",
          "midi": 57,
          "time": 32.11763100000001,
          "velocity": 0.7874015748031497,
          "duration": 0.34411747499999734
        },
        {
          "name": "D3",
          "midi": 50,
          "time": 32.11763100000001,
          "velocity": 0.7874015748031497,
          "duration": 0.34411747499999734
        },
        {
          "name": "D4",
          "midi": 62,
          "time": 32.470572000000004,
          "velocity": 0.7874015748031497,
          "duration": 0.3529409999999942
        },
        {
          "name": "A3",
          "midi": 57,
          "time": 32.470572000000004,
          "velocity": 0.7874015748031497,
          "duration": 0.3529409999999942
        },
        {
          "name": "D3",
          "midi": 50,
          "time": 32.470572000000004,
          "velocity": 0.7874015748031497,
          "duration": 0.3529409999999942
        },
        {
          "name": "E4",
          "midi": 64,
          "time": 32.823513,
          "velocity": 0.7874015748031497,
          "duration": 0.3529410000000013
        },
        {
          "name": "B3",
          "midi": 59,
          "time": 32.823513,
          "velocity": 0.7874015748031497,
          "duration": 0.3529410000000013
        },
        {
          "name": "E3",
          "midi": 52,
          "time": 32.823513,
          "velocity": 0.7874015748031497,
          "duration": 0.3529410000000013
        },
        {
          "name": "E4",
          "midi": 64,
          "time": 33.176454,
          "velocity": 0.7874015748031497,
          "duration": 0.7058820000000026
        },
        {
          "name": "B3",
          "midi": 59,
          "time": 33.176454,
          "velocity": 0.7874015748031497,
          "duration": 0.7058820000000026
        },
        {
          "name": "E3",
          "midi": 52,
          "time": 33.176454,
          "velocity": 0.7874015748031497,
          "duration": 0.7058820000000026
        },
        {
          "name": "B3",
          "midi": 59,
          "time": 33.882336,
          "velocity": 0.7874015748031497,
          "duration": 0.7058820000000026
        },
        {
          "name": "F#3",
          "midi": 54,
          "time": 33.882336,
          "velocity": 0.7874015748031497,
          "duration": 0.7058820000000026
        },
        {
          "name": "B2",
          "midi": 47,
          "time": 33.882336,
          "velocity": 0.7874015748031497,
          "duration": 0.7058820000000026
        },
        {
          "name": "D4",
          "midi": 62,
          "time": 34.588218000000005,
          "velocity": 0.7874015748031497,
          "duration": 0.7058820000000026
        },
        {
          "name": "A3",
          "midi": 57,
          "time": 34.588218000000005,
          "velocity": 0.7874015748031497,
          "duration": 0.7058820000000026
        },
        {
          "name": "D3",
          "midi": 50,
          "time": 34.588218000000005,
          "velocity": 0.7874015748031497,
          "duration": 0.7058820000000026
        },
        {
          "name": "D4",
          "midi": 62,
          "time": 35.29410000000001,
          "velocity": 0.7874015748031497,
          "duration": 0.3529409999999942
        },
        {
          "name": "A3",
          "midi": 57,
          "time": 35.29410000000001,
          "velocity": 0.7874015748031497,
          "duration": 0.3529409999999942
        },
        {
          "name": "D3",
          "midi": 50,
          "time": 35.29410000000001,
          "velocity": 0.7874015748031497,
          "duration": 0.3529409999999942
        },
        {
          "name": "E4",
          "midi": 64,
          "time": 35.647041,
          "velocity": 0.7874015748031497,
          "duration": 0.3529410000000013
        },
        {
          "name": "B3",
          "midi": 59,
          "time": 35.647041,
          "velocity": 0.7874015748031497,
          "duration": 0.3529410000000013
        },
        {
          "name": "E3",
          "midi": 52,
          "time": 35.647041,
          "velocity": 0.7874015748031497,
          "duration": 0.3529410000000013
        },
        {
          "name": "E4",
          "midi": 64,
          "time": 35.999982,
          "velocity": 0.7874015748031497,
          "duration": 0.7058820000000026
        },
        {
          "name": "B3",
          "midi": 59,
          "time": 35.999982,
          "velocity": 0.7874015748031497,
          "duration": 0.7058820000000026
        },
        {
          "name": "E3",
          "midi": 52,
          "time": 35.999982,
          "velocity": 0.7874015748031497,
          "duration": 0.7058820000000026
        },
        {
          "name": "G4",
          "midi": 67,
          "time": 36.705864000000005,
          "velocity": 0.7874015748031497,
          "duration": 0.17647050000000064
        },
        {
          "name": "D4",
          "midi": 62,
          "time": 36.705864000000005,
          "velocity": 0.7874015748031497,
          "duration": 0.17647050000000064
        },
        {
          "name": "G3",
          "midi": 55,
          "time": 36.705864000000005,
          "velocity": 0.7874015748031497,
          "duration": 0.17647050000000064
        },
        {
          "name": "F#4",
          "midi": 66,
          "time": 36.882334500000006,
          "velocity": 0.7874015748031497,
          "duration": 0.17647050000000064
        },
        {
          "name": "C#4",
          "midi": 61,
          "time": 36.882334500000006,
          "velocity": 0.7874015748031497,
          "duration": 0.17647050000000064
        },
        {
          "name": "F#3",
          "midi": 54,
          "time": 36.882334500000006,
          "velocity": 0.7874015748031497,
          "duration": 0.17647050000000064
        },
        {
          "name": "G4",
          "midi": 67,
          "time": 37.05880500000001,
          "velocity": 0.7874015748031497,
          "duration": 0.17647050000000064
        },
        {
          "name": "D4",
          "midi": 62,
          "time": 37.05880500000001,
          "velocity": 0.7874015748031497,
          "duration": 0.17647050000000064
        },
        {
          "name": "G3",
          "midi": 55,
          "time": 37.05880500000001,
          "velocity": 0.7874015748031497,
          "duration": 0.17647050000000064
        },
        {
          "name": "F#4",
          "midi": 66,
          "time": 37.23527550000001,
          "velocity": 0.7874015748031497,
          "duration": 0.17647050000000064
        },
        {
          "name": "C#4",
          "midi": 61,
          "time": 37.23527550000001,
          "velocity": 0.7874015748031497,
          "duration": 0.17647050000000064
        },
        {
          "name": "F#3",
          "midi": 54,
          "time": 37.23527550000001,
          "velocity": 0.7874015748031497,
          "duration": 0.17647050000000064
        },
        {
          "name": "G4",
          "midi": 67,
          "time": 37.41174600000001,
          "velocity": 0.7874015748031497,
          "duration": 0.17647050000000064
        },
        {
          "name": "D4",
          "midi": 62,
          "time": 37.41174600000001,
          "velocity": 0.7874015748031497,
          "duration": 0.17647050000000064
        },
        {
          "name": "G3",
          "midi": 55,
          "time": 37.41174600000001,
          "velocity": 0.7874015748031497,
          "duration": 0.17647050000000064
        },
        {
          "name": "F#4",
          "midi": 66,
          "time": 37.58821650000001,
          "velocity": 0.7874015748031497,
          "duration": 0.17647050000000064
        },
        {
          "name": "C#4",
          "midi": 61,
          "time": 37.58821650000001,
          "velocity": 0.7874015748031497,
          "duration": 0.17647050000000064
        },
        {
          "name": "F#3",
          "midi": 54,
          "time": 37.58821650000001,
          "velocity": 0.7874015748031497,
          "duration": 0.17647050000000064
        },
        {
          "name": "D4",
          "midi": 62,
          "time": 37.76468700000001,
          "velocity": 0.7874015748031497,
          "duration": 0.34411747499999734
        },
        {
          "name": "A3",
          "midi": 57,
          "time": 37.76468700000001,
          "velocity": 0.7874015748031497,
          "duration": 0.34411747499999734
        },
        {
          "name": "D3",
          "midi": 50,
          "time": 37.76468700000001,
          "velocity": 0.7874015748031497,
          "duration": 0.34411747499999734
        },
        {
          "name": "D4",
          "midi": 62,
          "time": 38.117628,
          "velocity": 0.7874015748031497,
          "duration": 0.3529409999999942
        },
        {
          "name": "A3",
          "midi": 57,
          "time": 38.117628,
          "velocity": 0.7874015748031497,
          "duration": 0.3529409999999942
        },
        {
          "name": "D3",
          "midi": 50,
          "time": 38.117628,
          "velocity": 0.7874015748031497,
          "duration": 0.3529409999999942
        },
        {
          "name": "E4",
          "midi": 64,
          "time": 38.470569,
          "velocity": 0.7874015748031497,
          "duration": 0.3529410000000013
        },
        {
          "name": "B3",
          "midi": 59,
          "time": 38.470569,
          "velocity": 0.7874015748031497,
          "duration": 0.3529410000000013
        },
        {
          "name": "E3",
          "midi": 52,
          "time": 38.470569,
          "velocity": 0.7874015748031497,
          "duration": 0.3529410000000013
        },
        {
          "name": "E4",
          "midi": 64,
          "time": 38.82351,
          "velocity": 0.7874015748031497,
          "duration": 0.7058820000000026
        },
        {
          "name": "B3",
          "midi": 59,
          "time": 38.82351,
          "velocity": 0.7874015748031497,
          "duration": 0.7058820000000026
        },
        {
          "name": "E3",
          "midi": 52,
          "time": 38.82351,
          "velocity": 0.7874015748031497,
          "duration": 0.7058820000000026
        },
        {
          "name": "B3",
          "midi": 59,
          "time": 39.529392,
          "velocity": 0.7874015748031497,
          "duration": 0.7058820000000026
        },
        {
          "name": "F#3",
          "midi": 54,
          "time": 39.529392,
          "velocity": 0.7874015748031497,
          "duration": 0.7058820000000026
        },
        {
          "name": "B2",
          "midi": 47,
          "time": 39.529392,
          "velocity": 0.7874015748031497,
          "duration": 0.7058820000000026
        },
        {
          "name": "D4",
          "midi": 62,
          "time": 40.235274000000004,
          "velocity": 0.7874015748031497,
          "duration": 0.7058820000000026
        },
        {
          "name": "A3",
          "midi": 57,
          "time": 40.235274000000004,
          "velocity": 0.7874015748031497,
          "duration": 0.7058820000000026
        },
        {
          "name": "D3",
          "midi": 50,
          "time": 40.235274000000004,
          "velocity": 0.7874015748031497,
          "duration": 0.7058820000000026
        },
        {
          "name": "D4",
          "midi": 62,
          "time": 40.94115600000001,
          "velocity": 0.7874015748031497,
          "duration": 0.3529409999999942
        },
        {
          "name": "A3",
          "midi": 57,
          "time": 40.94115600000001,
          "velocity": 0.7874015748031497,
          "duration": 0.3529409999999942
        },
        {
          "name": "D3",
          "midi": 50,
          "time": 40.94115600000001,
          "velocity": 0.7874015748031497,
          "duration": 0.3529409999999942
        },
        {
          "name": "E4",
          "midi": 64,
          "time": 41.294097,
          "velocity": 0.7874015748031497,
          "duration": 0.3529410000000013
        },
        {
          "name": "B3",
          "midi": 59,
          "time": 41.294097,
          "velocity": 0.7874015748031497,
          "duration": 0.3529410000000013
        },
        {
          "name": "E3",
          "midi": 52,
          "time": 41.294097,
          "velocity": 0.7874015748031497,
          "duration": 0.3529410000000013
        },
        {
          "name": "E4",
          "midi": 64,
          "time": 41.647038,
          "velocity": 0.7874015748031497,
          "duration": 0.7058820000000026
        },
        {
          "name": "B3",
          "midi": 59,
          "time": 41.647038,
          "velocity": 0.7874015748031497,
          "duration": 0.7058820000000026
        },
        {
          "name": "E3",
          "midi": 52,
          "time": 41.647038,
          "velocity": 0.7874015748031497,
          "duration": 0.7058820000000026
        },
        {
          "name": "G4",
          "midi": 67,
          "time": 42.352920000000005,
          "velocity": 0.7874015748031497,
          "duration": 0.17647050000000064
        },
        {
          "name": "D4",
          "midi": 62,
          "time": 42.352920000000005,
          "velocity": 0.7874015748031497,
          "duration": 0.17647050000000064
        },
        {
          "name": "G3",
          "midi": 55,
          "time": 42.352920000000005,
          "velocity": 0.7874015748031497,
          "duration": 0.17647050000000064
        },
        {
          "name": "F#4",
          "midi": 66,
          "time": 42.529390500000005,
          "velocity": 0.7874015748031497,
          "duration": 0.17647050000000064
        },
        {
          "name": "C#4",
          "midi": 61,
          "time": 42.529390500000005,
          "velocity": 0.7874015748031497,
          "duration": 0.17647050000000064
        },
        {
          "name": "F#3",
          "midi": 54,
          "time": 42.529390500000005,
          "velocity": 0.7874015748031497,
          "duration": 0.17647050000000064
        },
        {
          "name": "G4",
          "midi": 67,
          "time": 42.705861000000006,
          "velocity": 0.7874015748031497,
          "duration": 0.17647050000000064
        },
        {
          "name": "D4",
          "midi": 62,
          "time": 42.705861000000006,
          "velocity": 0.7874015748031497,
          "duration": 0.17647050000000064
        },
        {
          "name": "G3",
          "midi": 55,
          "time": 42.705861000000006,
          "velocity": 0.7874015748031497,
          "duration": 0.17647050000000064
        },
        {
          "name": "F#4",
          "midi": 66,
          "time": 42.88233150000001,
          "velocity": 0.7874015748031497,
          "duration": 0.17647050000000064
        },
        {
          "name": "C#4",
          "midi": 61,
          "time": 42.88233150000001,
          "velocity": 0.7874015748031497,
          "duration": 0.17647050000000064
        },
        {
          "name": "F#3",
          "midi": 54,
          "time": 42.88233150000001,
          "velocity": 0.7874015748031497,
          "duration": 0.17647050000000064
        },
        {
          "name": "G4",
          "midi": 67,
          "time": 43.05880200000001,
          "velocity": 0.7874015748031497,
          "duration": 0.17647050000000064
        },
        {
          "name": "D4",
          "midi": 62,
          "time": 43.05880200000001,
          "velocity": 0.7874015748031497,
          "duration": 0.17647050000000064
        },
        {
          "name": "G3",
          "midi": 55,
          "time": 43.05880200000001,
          "velocity": 0.7874015748031497,
          "duration": 0.17647050000000064
        },
        {
          "name": "F#4",
          "midi": 66,
          "time": 43.23527250000001,
          "velocity": 0.7874015748031497,
          "duration": 0.17647050000000064
        },
        {
          "name": "C#4",
          "midi": 61,
          "time": 43.23527250000001,
          "velocity": 0.7874015748031497,
          "duration": 0.17647050000000064
        },
        {
          "name": "F#3",
          "midi": 54,
          "time": 43.23527250000001,
          "velocity": 0.7874015748031497,
          "duration": 0.17647050000000064
        },
        {
          "name": "D4",
          "midi": 62,
          "time": 43.41174300000001,
          "velocity": 0.7874015748031497,
          "duration": 0.34411747499999734
        },
        {
          "name": "A3",
          "midi": 57,
          "time": 43.41174300000001,
          "velocity": 0.7874015748031497,
          "duration": 0.34411747499999734
        },
        {
          "name": "D3",
          "midi": 50,
          "time": 43.41174300000001,
          "velocity": 0.7874015748031497,
          "duration": 0.34411747499999734
        },
        {
          "name": "D4",
          "midi": 62,
          "time": 43.764684,
          "velocity": 0.7874015748031497,
          "duration": 0.3529409999999942
        },
        {
          "name": "A3",
          "midi": 57,
          "time": 43.764684,
          "velocity": 0.7874015748031497,
          "duration": 0.3529409999999942
        },
        {
          "name": "D3",
          "midi": 50,
          "time": 43.764684,
          "velocity": 0.7874015748031497,
          "duration": 0.3529409999999942
        },
        {
          "name": "E4",
          "midi": 64,
          "time": 44.117625,
          "velocity": 0.7874015748031497,
          "duration": 0.3529410000000013
        },
        {
          "name": "B3",
          "midi": 59,
          "time": 44.117625,
          "velocity": 0.7874015748031497,
          "duration": 0.3529410000000013
        },
        {
          "name": "E3",
          "midi": 52,
          "time": 44.117625,
          "velocity": 0.7874015748031497,
          "duration": 0.3529410000000013
        },
        {
          "name": "E4",
          "midi": 64,
          "time": 44.470566,
          "velocity": 0.7874015748031497,
          "duration": 0.7058820000000026
        },
        {
          "name": "B3",
          "midi": 59,
          "time": 44.470566,
          "velocity": 0.7874015748031497,
          "duration": 0.7058820000000026
        },
        {
          "name": "E3",
          "midi": 52,
          "time": 44.470566,
          "velocity": 0.7874015748031497,
          "duration": 0.7058820000000026
        },
        {
          "name": "B3",
          "midi": 59,
          "time": 45.176448,
          "velocity": 0.7874015748031497,
          "duration": 0.7058820000000026
        },
        {
          "name": "F#3",
          "midi": 54,
          "time": 45.176448,
          "velocity": 0.7874015748031497,
          "duration": 0.7058820000000026
        },
        {
          "name": "B2",
          "midi": 47,
          "time": 45.176448,
          "velocity": 0.7874015748031497,
          "duration": 0.7058820000000026
        },
        {
          "name": "D4",
          "midi": 62,
          "time": 45.88233,
          "velocity": 0.7874015748031497,
          "duration": 0.7058820000000026
        },
        {
          "name": "A3",
          "midi": 57,
          "time": 45.88233,
          "velocity": 0.7874015748031497,
          "duration": 0.7058820000000026
        },
        {
          "name": "D3",
          "midi": 50,
          "time": 45.88233,
          "velocity": 0.7874015748031497,
          "duration": 0.7058820000000026
        },
        {
          "name": "D4",
          "midi": 62,
          "time": 46.588212000000006,
          "velocity": 0.7874015748031497,
          "duration": 0.3529409999999942
        },
        {
          "name": "A3",
          "midi": 57,
          "time": 46.588212000000006,
          "velocity": 0.7874015748031497,
          "duration": 0.3529409999999942
        },
        {
          "name": "D3",
          "midi": 50,
          "time": 46.588212000000006,
          "velocity": 0.7874015748031497,
          "duration": 0.3529409999999942
        },
        {
          "name": "E4",
          "midi": 64,
          "time": 46.941153,
          "velocity": 0.7874015748031497,
          "duration": 0.3529410000000013
        },
        {
          "name": "B3",
          "midi": 59,
          "time": 46.941153,
          "velocity": 0.7874015748031497,
          "duration": 0.3529410000000013
        },
        {
          "name": "E3",
          "midi": 52,
          "time": 46.941153,
          "velocity": 0.7874015748031497,
          "duration": 0.3529410000000013
        },
        {
          "name": "E4",
          "midi": 64,
          "time": 47.294094,
          "velocity": 0.7874015748031497,
          "duration": 0.7058820000000026
        },
        {
          "name": "B3",
          "midi": 59,
          "time": 47.294094,
          "velocity": 0.7874015748031497,
          "duration": 0.7058820000000026
        },
        {
          "name": "E3",
          "midi": 52,
          "time": 47.294094,
          "velocity": 0.7874015748031497,
          "duration": 0.7058820000000026
        },
        {
          "name": "G4",
          "midi": 67,
          "time": 47.999976000000004,
          "velocity": 0.7874015748031497,
          "duration": 0.17647050000000064
        },
        {
          "name": "D4",
          "midi": 62,
          "time": 47.999976000000004,
          "velocity": 0.7874015748031497,
          "duration": 0.17647050000000064
        },
        {
          "name": "G3",
          "midi": 55,
          "time": 47.999976000000004,
          "velocity": 0.7874015748031497,
          "duration": 0.17647050000000064
        },
        {
          "name": "F#4",
          "midi": 66,
          "time": 48.176446500000004,
          "velocity": 0.7874015748031497,
          "duration": 0.17647050000000064
        },
        {
          "name": "C#4",
          "midi": 61,
          "time": 48.176446500000004,
          "velocity": 0.7874015748031497,
          "duration": 0.17647050000000064
        },
        {
          "name": "F#3",
          "midi": 54,
          "time": 48.176446500000004,
          "velocity": 0.7874015748031497,
          "duration": 0.17647050000000064
        },
        {
          "name": "G4",
          "midi": 67,
          "time": 48.352917000000005,
          "velocity": 0.7874015748031497,
          "duration": 0.17647050000000064
        },
        {
          "name": "D4",
          "midi": 62,
          "time": 48.352917000000005,
          "velocity": 0.7874015748031497,
          "duration": 0.17647050000000064
        },
        {
          "name": "G3",
          "midi": 55,
          "time": 48.352917000000005,
          "velocity": 0.7874015748031497,
          "duration": 0.17647050000000064
        },
        {
          "name": "F#4",
          "midi": 66,
          "time": 48.529387500000006,
          "velocity": 0.7874015748031497,
          "duration": 0.17647050000000064
        },
        {
          "name": "C#4",
          "midi": 61,
          "time": 48.529387500000006,
          "velocity": 0.7874015748031497,
          "duration": 0.17647050000000064
        },
        {
          "name": "F#3",
          "midi": 54,
          "time": 48.529387500000006,
          "velocity": 0.7874015748031497,
          "duration": 0.17647050000000064
        },
        {
          "name": "G4",
          "midi": 67,
          "time": 48.705858000000006,
          "velocity": 0.7874015748031497,
          "duration": 0.17647050000000064
        },
        {
          "name": "D4",
          "midi": 62,
          "time": 48.705858000000006,
          "velocity": 0.7874015748031497,
          "duration": 0.17647050000000064
        },
        {
          "name": "G3",
          "midi": 55,
          "time": 48.705858000000006,
          "velocity": 0.7874015748031497,
          "duration": 0.17647050000000064
        },
        {
          "name": "F#4",
          "midi": 66,
          "time": 48.88232850000001,
          "velocity": 0.7874015748031497,
          "duration": 0.17647050000000064
        },
        {
          "name": "C#4",
          "midi": 61,
          "time": 48.88232850000001,
          "velocity": 0.7874015748031497,
          "duration": 0.17647050000000064
        },
        {
          "name": "F#3",
          "midi": 54,
          "time": 48.88232850000001,
          "velocity": 0.7874015748031497,
          "duration": 0.17647050000000064
        },
        {
          "name": "D4",
          "midi": 62,
          "time": 49.05879900000001,
          "velocity": 0.7874015748031497,
          "duration": 0.34411747499999734
        },
        {
          "name": "A3",
          "midi": 57,
          "time": 49.05879900000001,
          "velocity": 0.7874015748031497,
          "duration": 0.34411747499999734
        },
        {
          "name": "D3",
          "midi": 50,
          "time": 49.05879900000001,
          "velocity": 0.7874015748031497,
          "duration": 0.34411747499999734
        },
        {
          "name": "D4",
          "midi": 62,
          "time": 49.41174,
          "velocity": 0.7874015748031497,
          "duration": 0.3529409999999942
        },
        {
          "name": "A3",
          "midi": 57,
          "time": 49.41174,
          "velocity": 0.7874015748031497,
          "duration": 0.3529409999999942
        },
        {
          "name": "D3",
          "midi": 50,
          "time": 49.41174,
          "velocity": 0.7874015748031497,
          "duration": 0.3529409999999942
        },
        {
          "name": "E4",
          "midi": 64,
          "time": 49.764680999999996,
          "velocity": 0.7874015748031497,
          "duration": 0.3529410000000013
        },
        {
          "name": "B3",
          "midi": 59,
          "time": 49.764680999999996,
          "velocity": 0.7874015748031497,
          "duration": 0.3529410000000013
        },
        {
          "name": "E3",
          "midi": 52,
          "time": 49.764680999999996,
          "velocity": 0.7874015748031497,
          "duration": 0.3529410000000013
        },
        {
          "name": "E4",
          "midi": 64,
          "time": 50.117622,
          "velocity": 0.7874015748031497,
          "duration": 0.7058820000000026
        },
        {
          "name": "B3",
          "midi": 59,
          "time": 50.117622,
          "velocity": 0.7874015748031497,
          "duration": 0.7058820000000026
        },
        {
          "name": "E3",
          "midi": 52,
          "time": 50.117622,
          "velocity": 0.7874015748031497,
          "duration": 0.7058820000000026
        },
        {
          "name": "B3",
          "midi": 59,
          "time": 50.823504,
          "velocity": 0.7874015748031497,
          "duration": 0.7058820000000026
        },
        {
          "name": "F#3",
          "midi": 54,
          "time": 50.823504,
          "velocity": 0.7874015748031497,
          "duration": 0.7058820000000026
        },
        {
          "name": "B2",
          "midi": 47,
          "time": 50.823504,
          "velocity": 0.7874015748031497,
          "duration": 0.7058820000000026
        },
        {
          "name": "D4",
          "midi": 62,
          "time": 51.529386,
          "velocity": 0.7874015748031497,
          "duration": 0.7058820000000026
        },
        {
          "name": "A3",
          "midi": 57,
          "time": 51.529386,
          "velocity": 0.7874015748031497,
          "duration": 0.7058820000000026
        },
        {
          "name": "D3",
          "midi": 50,
          "time": 51.529386,
          "velocity": 0.7874015748031497,
          "duration": 0.7058820000000026
        },
        {
          "name": "D4",
          "midi": 62,
          "time": 52.235268000000005,
          "velocity": 0.7874015748031497,
          "duration": 0.3529409999999942
        },
        {
          "name": "A3",
          "midi": 57,
          "time": 52.235268000000005,
          "velocity": 0.7874015748031497,
          "duration": 0.3529409999999942
        },
        {
          "name": "D3",
          "midi": 50,
          "time": 52.235268000000005,
          "velocity": 0.7874015748031497,
          "duration": 0.3529409999999942
        },
        {
          "name": "E4",
          "midi": 64,
          "time": 52.588209,
          "velocity": 0.7874015748031497,
          "duration": 0.3529410000000013
        },
        {
          "name": "B3",
          "midi": 59,
          "time": 52.588209,
          "velocity": 0.7874015748031497,
          "duration": 0.3529410000000013
        },
        {
          "name": "E3",
          "midi": 52,
          "time": 52.588209,
          "velocity": 0.7874015748031497,
          "duration": 0.3529410000000013
        },
        {
          "name": "E4",
          "midi": 64,
          "time": 52.94115,
          "velocity": 0.7874015748031497,
          "duration": 0.7058820000000026
        },
        {
          "name": "B3",
          "midi": 59,
          "time": 52.94115,
          "velocity": 0.7874015748031497,
          "duration": 0.7058820000000026
        },
        {
          "name": "E3",
          "midi": 52,
          "time": 52.94115,
          "velocity": 0.7874015748031497,
          "duration": 0.7058820000000026
        },
        {
          "name": "G4",
          "midi": 67,
          "time": 53.647032,
          "velocity": 0.7874015748031497,
          "duration": 0.17647050000000064
        },
        {
          "name": "D4",
          "midi": 62,
          "time": 53.647032,
          "velocity": 0.7874015748031497,
          "duration": 0.17647050000000064
        },
        {
          "name": "G3",
          "midi": 55,
          "time": 53.647032,
          "velocity": 0.7874015748031497,
          "duration": 0.17647050000000064
        },
        {
          "name": "F#4",
          "midi": 66,
          "time": 53.823502500000004,
          "velocity": 0.7874015748031497,
          "duration": 0.17647050000000064
        },
        {
          "name": "C#4",
          "midi": 61,
          "time": 53.823502500000004,
          "velocity": 0.7874015748031497,
          "duration": 0.17647050000000064
        },
        {
          "name": "F#3",
          "midi": 54,
          "time": 53.823502500000004,
          "velocity": 0.7874015748031497,
          "duration": 0.17647050000000064
        },
        {
          "name": "G4",
          "midi": 67,
          "time": 53.999973000000004,
          "velocity": 0.7874015748031497,
          "duration": 0.17647050000000064
        },
        {
          "name": "D4",
          "midi": 62,
          "time": 53.999973000000004,
          "velocity": 0.7874015748031497,
          "duration": 0.17647050000000064
        },
        {
          "name": "G3",
          "midi": 55,
          "time": 53.999973000000004,
          "velocity": 0.7874015748031497,
          "duration": 0.17647050000000064
        },
        {
          "name": "F#4",
          "midi": 66,
          "time": 54.176443500000005,
          "velocity": 0.7874015748031497,
          "duration": 0.17647050000000064
        },
        {
          "name": "C#4",
          "midi": 61,
          "time": 54.176443500000005,
          "velocity": 0.7874015748031497,
          "duration": 0.17647050000000064
        },
        {
          "name": "F#3",
          "midi": 54,
          "time": 54.176443500000005,
          "velocity": 0.7874015748031497,
          "duration": 0.17647050000000064
        },
        {
          "name": "G4",
          "midi": 67,
          "time": 54.352914000000006,
          "velocity": 0.7874015748031497,
          "duration": 0.17647050000000064
        },
        {
          "name": "D4",
          "midi": 62,
          "time": 54.352914000000006,
          "velocity": 0.7874015748031497,
          "duration": 0.17647050000000064
        },
        {
          "name": "G3",
          "midi": 55,
          "time": 54.352914000000006,
          "velocity": 0.7874015748031497,
          "duration": 0.17647050000000064
        },
        {
          "name": "F#4",
          "midi": 66,
          "time": 54.529384500000006,
          "velocity": 0.7874015748031497,
          "duration": 0.17647050000000064
        },
        {
          "name": "C#4",
          "midi": 61,
          "time": 54.529384500000006,
          "velocity": 0.7874015748031497,
          "duration": 0.17647050000000064
        },
        {
          "name": "F#3",
          "midi": 54,
          "time": 54.529384500000006,
          "velocity": 0.7874015748031497,
          "duration": 0.17647050000000064
        },
        {
          "name": "D4",
          "midi": 62,
          "time": 54.70585500000001,
          "velocity": 0.7874015748031497,
          "duration": 0.34411747499999734
        },
        {
          "name": "A3",
          "midi": 57,
          "time": 54.70585500000001,
          "velocity": 0.7874015748031497,
          "duration": 0.34411747499999734
        },
        {
          "name": "D3",
          "midi": 50,
          "time": 54.70585500000001,
          "velocity": 0.7874015748031497,
          "duration": 0.34411747499999734
        },
        {
          "name": "D4",
          "midi": 62,
          "time": 55.058796,
          "velocity": 0.7874015748031497,
          "duration": 0.3529409999999942
        },
        {
          "name": "A3",
          "midi": 57,
          "time": 55.058796,
          "velocity": 0.7874015748031497,
          "duration": 0.3529409999999942
        },
        {
          "name": "D3",
          "midi": 50,
          "time": 55.058796,
          "velocity": 0.7874015748031497,
          "duration": 0.3529409999999942
        },
        {
          "name": "E4",
          "midi": 64,
          "time": 55.411736999999995,
          "velocity": 0.7874015748031497,
          "duration": 0.3529410000000013
        },
        {
          "name": "B3",
          "midi": 59,
          "time": 55.411736999999995,
          "velocity": 0.7874015748031497,
          "duration": 0.3529410000000013
        },
        {
          "name": "E3",
          "midi": 52,
          "time": 55.411736999999995,
          "velocity": 0.7874015748031497,
          "duration": 0.3529410000000013
        },
        {
          "name": "E4",
          "midi": 64,
          "time": 55.764677999999996,
          "velocity": 0.7874015748031497,
          "duration": 0.7058820000000026
        },
        {
          "name": "B3",
          "midi": 59,
          "time": 55.764677999999996,
          "velocity": 0.7874015748031497,
          "duration": 0.7058820000000026
        },
        {
          "name": "E3",
          "midi": 52,
          "time": 55.764677999999996,
          "velocity": 0.7874015748031497,
          "duration": 0.7058820000000026
        },
        {
          "name": "B3",
          "midi": 59,
          "time": 56.47056,
          "velocity": 0.7874015748031497,
          "duration": 0.7058820000000026
        },
        {
          "name": "F#3",
          "midi": 54,
          "time": 56.47056,
          "velocity": 0.7874015748031497,
          "duration": 0.7058820000000026
        },
        {
          "name": "B2",
          "midi": 47,
          "time": 56.47056,
          "velocity": 0.7874015748031497,
          "duration": 0.7058820000000026
        },
        {
          "name": "D4",
          "midi": 62,
          "time": 57.176442,
          "velocity": 0.7874015748031497,
          "duration": 0.7058820000000026
        },
        {
          "name": "A3",
          "midi": 57,
          "time": 57.176442,
          "velocity": 0.7874015748031497,
          "duration": 0.7058820000000026
        },
        {
          "name": "D3",
          "midi": 50,
          "time": 57.176442,
          "velocity": 0.7874015748031497,
          "duration": 0.7058820000000026
        },
        {
          "name": "D4",
          "midi": 62,
          "time": 57.882324000000004,
          "velocity": 0.7874015748031497,
          "duration": 0.3529409999999942
        },
        {
          "name": "A3",
          "midi": 57,
          "time": 57.882324000000004,
          "velocity": 0.7874015748031497,
          "duration": 0.3529409999999942
        },
        {
          "name": "D3",
          "midi": 50,
          "time": 57.882324000000004,
          "velocity": 0.7874015748031497,
          "duration": 0.3529409999999942
        },
        {
          "name": "E4",
          "midi": 64,
          "time": 58.235265,
          "velocity": 0.7874015748031497,
          "duration": 0.3529410000000013
        },
        {
          "name": "B3",
          "midi": 59,
          "time": 58.235265,
          "velocity": 0.7874015748031497,
          "duration": 0.3529410000000013
        },
        {
          "name": "E3",
          "midi": 52,
          "time": 58.235265,
          "velocity": 0.7874015748031497,
          "duration": 0.3529410000000013
        },
        {
          "name": "E4",
          "midi": 64,
          "time": 58.588206,
          "velocity": 0.7874015748031497,
          "duration": 0.7058820000000026
        },
        {
          "name": "B3",
          "midi": 59,
          "time": 58.588206,
          "velocity": 0.7874015748031497,
          "duration": 0.7058820000000026
        },
        {
          "name": "E3",
          "midi": 52,
          "time": 58.588206,
          "velocity": 0.7874015748031497,
          "duration": 0.7058820000000026
        },
        {
          "name": "G4",
          "midi": 67,
          "time": 59.294088,
          "velocity": 0.7874015748031497,
          "duration": 0.17647050000000064
        },
        {
          "name": "D4",
          "midi": 62,
          "time": 59.294088,
          "velocity": 0.7874015748031497,
          "duration": 0.17647050000000064
        },
        {
          "name": "G3",
          "midi": 55,
          "time": 59.294088,
          "velocity": 0.7874015748031497,
          "duration": 0.17647050000000064
        },
        {
          "name": "F#4",
          "midi": 66,
          "time": 59.4705585,
          "velocity": 0.7874015748031497,
          "duration": 0.17647050000000064
        },
        {
          "name": "C#4",
          "midi": 61,
          "time": 59.4705585,
          "velocity": 0.7874015748031497,
          "duration": 0.17647050000000064
        },
        {
          "name": "F#3",
          "midi": 54,
          "time": 59.4705585,
          "velocity": 0.7874015748031497,
          "duration": 0.17647050000000064
        },
        {
          "name": "G4",
          "midi": 67,
          "time": 59.647029,
          "velocity": 0.7874015748031497,
          "duration": 0.17647050000000064
        },
        {
          "name": "D4",
          "midi": 62,
          "time": 59.647029,
          "velocity": 0.7874015748031497,
          "duration": 0.17647050000000064
        },
        {
          "name": "G3",
          "midi": 55,
          "time": 59.647029,
          "velocity": 0.7874015748031497,
          "duration": 0.17647050000000064
        },
        {
          "name": "F#4",
          "midi": 66,
          "time": 59.823499500000004,
          "velocity": 0.7874015748031497,
          "duration": 0.17647050000000064
        },
        {
          "name": "C#4",
          "midi": 61,
          "time": 59.823499500000004,
          "velocity": 0.7874015748031497,
          "duration": 0.17647050000000064
        },
        {
          "name": "F#3",
          "midi": 54,
          "time": 59.823499500000004,
          "velocity": 0.7874015748031497,
          "duration": 0.17647050000000064
        },
        {
          "name": "G4",
          "midi": 67,
          "time": 59.999970000000005,
          "velocity": 0.7874015748031497,
          "duration": 0.17647050000000064
        },
        {
          "name": "D4",
          "midi": 62,
          "time": 59.999970000000005,
          "velocity": 0.7874015748031497,
          "duration": 0.17647050000000064
        },
        {
          "name": "G3",
          "midi": 55,
          "time": 59.999970000000005,
          "velocity": 0.7874015748031497,
          "duration": 0.17647050000000064
        },
        {
          "name": "F#4",
          "midi": 66,
          "time": 60.176440500000005,
          "velocity": 0.7874015748031497,
          "duration": 0.17647050000000064
        },
        {
          "name": "C#4",
          "midi": 61,
          "time": 60.176440500000005,
          "velocity": 0.7874015748031497,
          "duration": 0.17647050000000064
        },
        {
          "name": "F#3",
          "midi": 54,
          "time": 60.176440500000005,
          "velocity": 0.7874015748031497,
          "duration": 0.17647050000000064
        },
        {
          "name": "D4",
          "midi": 62,
          "time": 60.352911000000006,
          "velocity": 0.7874015748031497,
          "duration": 0.34411747499999734
        },
        {
          "name": "A3",
          "midi": 57,
          "time": 60.352911000000006,
          "velocity": 0.7874015748031497,
          "duration": 0.34411747499999734
        },
        {
          "name": "D3",
          "midi": 50,
          "time": 60.352911000000006,
          "velocity": 0.7874015748031497,
          "duration": 0.34411747499999734
        },
        {
          "name": "D4",
          "midi": 62,
          "time": 60.705852,
          "velocity": 0.7874015748031497,
          "duration": 0.3529409999999942
        },
        {
          "name": "A3",
          "midi": 57,
          "time": 60.705852,
          "velocity": 0.7874015748031497,
          "duration": 0.3529409999999942
        },
        {
          "name": "D3",
          "midi": 50,
          "time": 60.705852,
          "velocity": 0.7874015748031497,
          "duration": 0.3529409999999942
        },
        {
          "name": "E4",
          "midi": 64,
          "time": 61.058792999999994,
          "velocity": 0.7874015748031497,
          "duration": 0.3529410000000013
        },
        {
          "name": "B3",
          "midi": 59,
          "time": 61.058792999999994,
          "velocity": 0.7874015748031497,
          "duration": 0.3529410000000013
        },
        {
          "name": "E3",
          "midi": 52,
          "time": 61.058792999999994,
          "velocity": 0.7874015748031497,
          "duration": 0.3529410000000013
        },
        {
          "name": "E4",
          "midi": 64,
          "time": 61.411733999999996,
          "velocity": 0.7874015748031497,
          "duration": 0.7058820000000026
        },
        {
          "name": "B3",
          "midi": 59,
          "time": 61.411733999999996,
          "velocity": 0.7874015748031497,
          "duration": 0.7058820000000026
        },
        {
          "name": "E3",
          "midi": 52,
          "time": 61.411733999999996,
          "velocity": 0.7874015748031497,
          "duration": 0.7058820000000026
        },
        {
          "name": "F#3",
          "midi": 54,
          "time": 62.117616,
          "velocity": 0.7874015748031497,
          "duration": 0.3529410000000013
        },
        {
          "name": "B3",
          "midi": 59,
          "time": 62.117616,
          "velocity": 0.7874015748031497,
          "duration": 0.3529410000000013
        },
        {
          "name": "B2",
          "midi": 47,
          "time": 62.117616,
          "velocity": 0.7874015748031497,
          "duration": 0.3529410000000013
        },
        {
          "name": "F#3",
          "midi": 54,
          "time": 62.470557,
          "velocity": 0.7874015748031497,
          "duration": 0.3529410000000013
        },
        {
          "name": "B3",
          "midi": 59,
          "time": 62.470557,
          "velocity": 0.7874015748031497,
          "duration": 0.3529410000000013
        },
        {
          "name": "B2",
          "midi": 47,
          "time": 62.470557,
          "velocity": 0.7874015748031497,
          "duration": 0.3529410000000013
        },
        {
          "name": "E2",
          "midi": 40,
          "time": 62.823498,
          "velocity": 0.7874015748031497,
          "duration": 0.08823524999999677
        },
        {
          "name": "B1",
          "midi": 35,
          "time": 62.823498,
          "velocity": 0.7874015748031497,
          "duration": 0.08823524999999677
        },
        {
          "name": "E2",
          "midi": 40,
          "time": 62.999968499999994,
          "velocity": 0.7874015748031497,
          "duration": 0.08823524999999677
        },
        {
          "name": "B1",
          "midi": 35,
          "time": 62.999968499999994,
          "velocity": 0.7874015748031497,
          "duration": 0.08823524999999677
        },
        {
          "name": "A3",
          "midi": 57,
          "time": 63.17643899999999,
          "velocity": 0.7874015748031497,
          "duration": 0.3529410000000013
        },
        {
          "name": "D4",
          "midi": 62,
          "time": 63.17643899999999,
          "velocity": 0.7874015748031497,
          "duration": 0.3529410000000013
        },
        {
          "name": "D3",
          "midi": 50,
          "time": 63.17643899999999,
          "velocity": 0.7874015748031497,
          "duration": 0.3529410000000013
        },
        {
          "name": "E2",
          "midi": 40,
          "time": 63.52937999999999,
          "velocity": 0.7874015748031497,
          "duration": 0.08823524999999677
        },
        {
          "name": "B1",
          "midi": 35,
          "time": 63.52937999999999,
          "velocity": 0.7874015748031497,
          "duration": 0.08823524999999677
        },
        {
          "name": "E2",
          "midi": 40,
          "time": 63.70585049999998,
          "velocity": 0.7874015748031497,
          "duration": 0.08823524999999677
        },
        {
          "name": "B1",
          "midi": 35,
          "time": 63.70585049999998,
          "velocity": 0.7874015748031497,
          "duration": 0.08823524999999677
        },
        {
          "name": "F#3",
          "midi": 54,
          "time": 63.882320999999976,
          "velocity": 0.7874015748031497,
          "duration": 0.3529410000000013
        },
        {
          "name": "B3",
          "midi": 59,
          "time": 63.882320999999976,
          "velocity": 0.7874015748031497,
          "duration": 0.3529410000000013
        },
        {
          "name": "B2",
          "midi": 47,
          "time": 63.882320999999976,
          "velocity": 0.7874015748031497,
          "duration": 0.3529410000000013
        },
        {
          "name": "F#3",
          "midi": 54,
          "time": 64.23526199999998,
          "velocity": 0.7874015748031497,
          "duration": 0.3529410000000013
        },
        {
          "name": "B3",
          "midi": 59,
          "time": 64.23526199999998,
          "velocity": 0.7874015748031497,
          "duration": 0.3529410000000013
        },
        {
          "name": "B2",
          "midi": 47,
          "time": 64.23526199999998,
          "velocity": 0.7874015748031497,
          "duration": 0.3529410000000013
        },
        {
          "name": "F3",
          "midi": 53,
          "time": 64.58820299999998,
          "velocity": 0.7874015748031497,
          "duration": 0.3529410000000013
        },
        {
          "name": "A#3",
          "midi": 58,
          "time": 64.58820299999998,
          "velocity": 0.7874015748031497,
          "duration": 0.3529410000000013
        },
        {
          "name": "A#2",
          "midi": 46,
          "time": 64.58820299999998,
          "velocity": 0.7874015748031497,
          "duration": 0.3529410000000013
        },
        {
          "name": "E3",
          "midi": 52,
          "time": 64.94114399999998,
          "velocity": 0.7874015748031497,
          "duration": 0.3529410000000013
        },
        {
          "name": "A3",
          "midi": 57,
          "time": 64.94114399999998,
          "velocity": 0.7874015748031497,
          "duration": 0.3529410000000013
        },
        {
          "name": "A2",
          "midi": 45,
          "time": 64.94114399999998,
          "velocity": 0.7874015748031497,
          "duration": 0.3529410000000013
        },
        {
          "name": "E3",
          "midi": 52,
          "time": 65.29408499999998,
          "velocity": 0.7874015748031497,
          "duration": 0.3529410000000013
        },
        {
          "name": "A3",
          "midi": 57,
          "time": 65.29408499999998,
          "velocity": 0.7874015748031497,
          "duration": 0.3529410000000013
        },
        {
          "name": "A2",
          "midi": 45,
          "time": 65.29408499999998,
          "velocity": 0.7874015748031497,
          "duration": 0.3529410000000013
        },
        {
          "name": "D2",
          "midi": 38,
          "time": 65.64702599999998,
          "velocity": 0.7874015748031497,
          "duration": 0.08823524999999677
        },
        {
          "name": "A1",
          "midi": 33,
          "time": 65.64702599999998,
          "velocity": 0.7874015748031497,
          "duration": 0.08823524999999677
        },
        {
          "name": "D2",
          "midi": 38,
          "time": 65.82349649999998,
          "velocity": 0.7874015748031497,
          "duration": 0.08823524999999677
        },
        {
          "name": "A1",
          "midi": 33,
          "time": 65.82349649999998,
          "velocity": 0.7874015748031497,
          "duration": 0.08823524999999677
        },
        {
          "name": "D2",
          "midi": 38,
          "time": 65.99996699999997,
          "velocity": 0.7874015748031497,
          "duration": 0.08823524999999677
        },
        {
          "name": "A1",
          "midi": 33,
          "time": 65.99996699999997,
          "velocity": 0.7874015748031497,
          "duration": 0.08823524999999677
        },
        {
          "name": "D#3",
          "midi": 51,
          "time": 66.17643749999996,
          "velocity": 0.7874015748031497,
          "duration": 0.17647049999999354
        },
        {
          "name": "G#3",
          "midi": 56,
          "time": 66.17643749999996,
          "velocity": 0.7874015748031497,
          "duration": 0.17647049999999354
        },
        {
          "name": "G#2",
          "midi": 44,
          "time": 66.17643749999996,
          "velocity": 0.7874015748031497,
          "duration": 0.17647049999999354
        },
        {
          "name": "D#3",
          "midi": 51,
          "time": 66.35290799999996,
          "velocity": 0.7874015748031497,
          "duration": 0.17647049999999354
        },
        {
          "name": "G#3",
          "midi": 56,
          "time": 66.35290799999996,
          "velocity": 0.7874015748031497,
          "duration": 0.17647049999999354
        },
        {
          "name": "G#2",
          "midi": 44,
          "time": 66.35290799999996,
          "velocity": 0.7874015748031497,
          "duration": 0.17647049999999354
        },
        {
          "name": "E3",
          "midi": 52,
          "time": 66.52937849999995,
          "velocity": 0.7874015748031497,
          "duration": 0.17647049999999354
        },
        {
          "name": "A3",
          "midi": 57,
          "time": 66.52937849999995,
          "velocity": 0.7874015748031497,
          "duration": 0.17647049999999354
        },
        {
          "name": "A2",
          "midi": 45,
          "time": 66.52937849999995,
          "velocity": 0.7874015748031497,
          "duration": 0.17647049999999354
        },
        {
          "name": "E3",
          "midi": 52,
          "time": 66.70584899999994,
          "velocity": 0.7874015748031497,
          "duration": 0.3529410000000013
        },
        {
          "name": "A3",
          "midi": 57,
          "time": 66.70584899999994,
          "velocity": 0.7874015748031497,
          "duration": 0.3529410000000013
        },
        {
          "name": "A2",
          "midi": 45,
          "time": 66.70584899999994,
          "velocity": 0.7874015748031497,
          "duration": 0.3529410000000013
        },
        {
          "name": "E3",
          "midi": 52,
          "time": 67.05878999999995,
          "velocity": 0.7874015748031497,
          "duration": 0.3529410000000013
        },
        {
          "name": "A3",
          "midi": 57,
          "time": 67.05878999999995,
          "velocity": 0.7874015748031497,
          "duration": 0.3529410000000013
        },
        {
          "name": "A2",
          "midi": 45,
          "time": 67.05878999999995,
          "velocity": 0.7874015748031497,
          "duration": 0.3529410000000013
        },
        {
          "name": "F3",
          "midi": 53,
          "time": 67.41173099999995,
          "velocity": 0.7874015748031497,
          "duration": 0.3529410000000013
        },
        {
          "name": "A#3",
          "midi": 58,
          "time": 67.41173099999995,
          "velocity": 0.7874015748031497,
          "duration": 0.3529410000000013
        },
        {
          "name": "A#2",
          "midi": 46,
          "time": 67.41173099999995,
          "velocity": 0.7874015748031497,
          "duration": 0.3529410000000013
        },
        {
          "name": "F#3",
          "midi": 54,
          "time": 67.76467199999995,
          "velocity": 0.7874015748031497,
          "duration": 0.3529410000000013
        },
        {
          "name": "B3",
          "midi": 59,
          "time": 67.76467199999995,
          "velocity": 0.7874015748031497,
          "duration": 0.3529410000000013
        },
        {
          "name": "B2",
          "midi": 47,
          "time": 67.76467199999995,
          "velocity": 0.7874015748031497,
          "duration": 0.3529410000000013
        },
        {
          "name": "F#3",
          "midi": 54,
          "time": 68.11761299999995,
          "velocity": 0.7874015748031497,
          "duration": 0.3529410000000013
        },
        {
          "name": "B3",
          "midi": 59,
          "time": 68.11761299999995,
          "velocity": 0.7874015748031497,
          "duration": 0.3529410000000013
        },
        {
          "name": "B2",
          "midi": 47,
          "time": 68.11761299999995,
          "velocity": 0.7874015748031497,
          "duration": 0.3529410000000013
        },
        {
          "name": "E2",
          "midi": 40,
          "time": 68.47055399999995,
          "velocity": 0.7874015748031497,
          "duration": 0.08823524999999677
        },
        {
          "name": "B1",
          "midi": 35,
          "time": 68.47055399999995,
          "velocity": 0.7874015748031497,
          "duration": 0.08823524999999677
        },
        {
          "name": "E2",
          "midi": 40,
          "time": 68.64702449999994,
          "velocity": 0.7874015748031497,
          "duration": 0.08823524999999677
        },
        {
          "name": "B1",
          "midi": 35,
          "time": 68.64702449999994,
          "velocity": 0.7874015748031497,
          "duration": 0.08823524999999677
        },
        {
          "name": "A3",
          "midi": 57,
          "time": 68.82349499999994,
          "velocity": 0.7874015748031497,
          "duration": 0.3529410000000013
        },
        {
          "name": "D4",
          "midi": 62,
          "time": 68.82349499999994,
          "velocity": 0.7874015748031497,
          "duration": 0.3529410000000013
        },
        {
          "name": "D3",
          "midi": 50,
          "time": 68.82349499999994,
          "velocity": 0.7874015748031497,
          "duration": 0.3529410000000013
        },
        {
          "name": "E2",
          "midi": 40,
          "time": 69.17643599999994,
          "velocity": 0.7874015748031497,
          "duration": 0.08823524999999677
        },
        {
          "name": "B1",
          "midi": 35,
          "time": 69.17643599999994,
          "velocity": 0.7874015748031497,
          "duration": 0.08823524999999677
        },
        {
          "name": "E2",
          "midi": 40,
          "time": 69.35290649999993,
          "velocity": 0.7874015748031497,
          "duration": 0.08823524999999677
        },
        {
          "name": "B1",
          "midi": 35,
          "time": 69.35290649999993,
          "velocity": 0.7874015748031497,
          "duration": 0.08823524999999677
        },
        {
          "name": "F#3",
          "midi": 54,
          "time": 69.52937699999993,
          "velocity": 0.7874015748031497,
          "duration": 0.3529410000000013
        },
        {
          "name": "B3",
          "midi": 59,
          "time": 69.52937699999993,
          "velocity": 0.7874015748031497,
          "duration": 0.3529410000000013
        },
        {
          "name": "B2",
          "midi": 47,
          "time": 69.52937699999993,
          "velocity": 0.7874015748031497,
          "duration": 0.3529410000000013
        },
        {
          "name": "F#3",
          "midi": 54,
          "time": 69.88231799999993,
          "velocity": 0.7874015748031497,
          "duration": 0.3529410000000013
        },
        {
          "name": "B3",
          "midi": 59,
          "time": 69.88231799999993,
          "velocity": 0.7874015748031497,
          "duration": 0.3529410000000013
        },
        {
          "name": "B2",
          "midi": 47,
          "time": 69.88231799999993,
          "velocity": 0.7874015748031497,
          "duration": 0.3529410000000013
        },
        {
          "name": "F3",
          "midi": 53,
          "time": 70.23525899999993,
          "velocity": 0.7874015748031497,
          "duration": 0.3529410000000013
        },
        {
          "name": "A#3",
          "midi": 58,
          "time": 70.23525899999993,
          "velocity": 0.7874015748031497,
          "duration": 0.3529410000000013
        },
        {
          "name": "A#2",
          "midi": 46,
          "time": 70.23525899999993,
          "velocity": 0.7874015748031497,
          "duration": 0.3529410000000013
        },
        {
          "name": "E3",
          "midi": 52,
          "time": 70.58819999999993,
          "velocity": 0.7874015748031497,
          "duration": 0.3529410000000013
        },
        {
          "name": "A3",
          "midi": 57,
          "time": 70.58819999999993,
          "velocity": 0.7874015748031497,
          "duration": 0.3529410000000013
        },
        {
          "name": "A2",
          "midi": 45,
          "time": 70.58819999999993,
          "velocity": 0.7874015748031497,
          "duration": 0.3529410000000013
        },
        {
          "name": "E3",
          "midi": 52,
          "time": 70.94114099999993,
          "velocity": 0.7874015748031497,
          "duration": 0.3529410000000013
        },
        {
          "name": "A3",
          "midi": 57,
          "time": 70.94114099999993,
          "velocity": 0.7874015748031497,
          "duration": 0.3529410000000013
        },
        {
          "name": "A2",
          "midi": 45,
          "time": 70.94114099999993,
          "velocity": 0.7874015748031497,
          "duration": 0.3529410000000013
        },
        {
          "name": "D2",
          "midi": 38,
          "time": 71.29408199999993,
          "velocity": 0.7874015748031497,
          "duration": 0.08823524999999677
        },
        {
          "name": "A1",
          "midi": 33,
          "time": 71.29408199999993,
          "velocity": 0.7874015748031497,
          "duration": 0.08823524999999677
        },
        {
          "name": "D2",
          "midi": 38,
          "time": 71.47055249999993,
          "velocity": 0.7874015748031497,
          "duration": 0.08823524999999677
        },
        {
          "name": "A1",
          "midi": 33,
          "time": 71.47055249999993,
          "velocity": 0.7874015748031497,
          "duration": 0.08823524999999677
        },
        {
          "name": "D2",
          "midi": 38,
          "time": 71.64702299999992,
          "velocity": 0.7874015748031497,
          "duration": 0.08823524999999677
        },
        {
          "name": "A1",
          "midi": 33,
          "time": 71.64702299999992,
          "velocity": 0.7874015748031497,
          "duration": 0.08823524999999677
        },
        {
          "name": "D#3",
          "midi": 51,
          "time": 71.82349349999991,
          "velocity": 0.7874015748031497,
          "duration": 0.17647049999999354
        },
        {
          "name": "G#3",
          "midi": 56,
          "time": 71.82349349999991,
          "velocity": 0.7874015748031497,
          "duration": 0.17647049999999354
        },
        {
          "name": "G#2",
          "midi": 44,
          "time": 71.82349349999991,
          "velocity": 0.7874015748031497,
          "duration": 0.17647049999999354
        },
        {
          "name": "D#3",
          "midi": 51,
          "time": 71.9999639999999,
          "velocity": 0.7874015748031497,
          "duration": 0.17647049999999354
        },
        {
          "name": "G#3",
          "midi": 56,
          "time": 71.9999639999999,
          "velocity": 0.7874015748031497,
          "duration": 0.17647049999999354
        },
        {
          "name": "G#2",
          "midi": 44,
          "time": 71.9999639999999,
          "velocity": 0.7874015748031497,
          "duration": 0.17647049999999354
        },
        {
          "name": "E3",
          "midi": 52,
          "time": 72.1764344999999,
          "velocity": 0.7874015748031497,
          "duration": 0.17647049999999354
        },
        {
          "name": "A3",
          "midi": 57,
          "time": 72.1764344999999,
          "velocity": 0.7874015748031497,
          "duration": 0.17647049999999354
        },
        {
          "name": "A2",
          "midi": 45,
          "time": 72.1764344999999,
          "velocity": 0.7874015748031497,
          "duration": 0.17647049999999354
        },
        {
          "name": "E3",
          "midi": 52,
          "time": 72.3529049999999,
          "velocity": 0.7874015748031497,
          "duration": 0.3529410000000013
        },
        {
          "name": "A3",
          "midi": 57,
          "time": 72.3529049999999,
          "velocity": 0.7874015748031497,
          "duration": 0.3529410000000013
        },
        {
          "name": "A2",
          "midi": 45,
          "time": 72.3529049999999,
          "velocity": 0.7874015748031497,
          "duration": 0.3529410000000013
        },
        {
          "name": "E3",
          "midi": 52,
          "time": 72.7058459999999,
          "velocity": 0.7874015748031497,
          "duration": 0.3529410000000013
        },
        {
          "name": "A3",
          "midi": 57,
          "time": 72.7058459999999,
          "velocity": 0.7874015748031497,
          "duration": 0.3529410000000013
        },
        {
          "name": "A2",
          "midi": 45,
          "time": 72.7058459999999,
          "velocity": 0.7874015748031497,
          "duration": 0.3529410000000013
        },
        {
          "name": "F3",
          "midi": 53,
          "time": 73.0587869999999,
          "velocity": 0.7874015748031497,
          "duration": 0.3529410000000013
        },
        {
          "name": "A#3",
          "midi": 58,
          "time": 73.0587869999999,
          "velocity": 0.7874015748031497,
          "duration": 0.3529410000000013
        },
        {
          "name": "A#2",
          "midi": 46,
          "time": 73.0587869999999,
          "velocity": 0.7874015748031497,
          "duration": 0.3529410000000013
        },
        {
          "name": "F#3",
          "midi": 54,
          "time": 73.4117279999999,
          "velocity": 0.7874015748031497,
          "duration": 0.3529410000000013
        },
        {
          "name": "B3",
          "midi": 59,
          "time": 73.4117279999999,
          "velocity": 0.7874015748031497,
          "duration": 0.3529410000000013
        },
        {
          "name": "B2",
          "midi": 47,
          "time": 73.4117279999999,
          "velocity": 0.7874015748031497,
          "duration": 0.3529410000000013
        },
        {
          "name": "F#3",
          "midi": 54,
          "time": 73.7646689999999,
          "velocity": 0.7874015748031497,
          "duration": 0.3529410000000013
        },
        {
          "name": "B3",
          "midi": 59,
          "time": 73.7646689999999,
          "velocity": 0.7874015748031497,
          "duration": 0.3529410000000013
        },
        {
          "name": "B2",
          "midi": 47,
          "time": 73.7646689999999,
          "velocity": 0.7874015748031497,
          "duration": 0.3529410000000013
        },
        {
          "name": "E2",
          "midi": 40,
          "time": 74.1176099999999,
          "velocity": 0.7874015748031497,
          "duration": 0.08823524999999677
        },
        {
          "name": "B1",
          "midi": 35,
          "time": 74.1176099999999,
          "velocity": 0.7874015748031497,
          "duration": 0.08823524999999677
        },
        {
          "name": "E2",
          "midi": 40,
          "time": 74.2940804999999,
          "velocity": 0.7874015748031497,
          "duration": 0.08823524999999677
        },
        {
          "name": "B1",
          "midi": 35,
          "time": 74.2940804999999,
          "velocity": 0.7874015748031497,
          "duration": 0.08823524999999677
        },
        {
          "name": "A3",
          "midi": 57,
          "time": 74.47055099999989,
          "velocity": 0.7874015748031497,
          "duration": 0.3529410000000013
        },
        {
          "name": "D4",
          "midi": 62,
          "time": 74.47055099999989,
          "velocity": 0.7874015748031497,
          "duration": 0.3529410000000013
        },
        {
          "name": "D3",
          "midi": 50,
          "time": 74.47055099999989,
          "velocity": 0.7874015748031497,
          "duration": 0.3529410000000013
        },
        {
          "name": "E2",
          "midi": 40,
          "time": 74.82349199999989,
          "velocity": 0.7874015748031497,
          "duration": 0.08823524999999677
        },
        {
          "name": "B1",
          "midi": 35,
          "time": 74.82349199999989,
          "velocity": 0.7874015748031497,
          "duration": 0.08823524999999677
        },
        {
          "name": "E2",
          "midi": 40,
          "time": 74.99996249999988,
          "velocity": 0.7874015748031497,
          "duration": 0.08823524999999677
        },
        {
          "name": "B1",
          "midi": 35,
          "time": 74.99996249999988,
          "velocity": 0.7874015748031497,
          "duration": 0.08823524999999677
        },
        {
          "name": "F#3",
          "midi": 54,
          "time": 75.17643299999988,
          "velocity": 0.7874015748031497,
          "duration": 0.3529410000000013
        },
        {
          "name": "B3",
          "midi": 59,
          "time": 75.17643299999988,
          "velocity": 0.7874015748031497,
          "duration": 0.3529410000000013
        },
        {
          "name": "B2",
          "midi": 47,
          "time": 75.17643299999988,
          "velocity": 0.7874015748031497,
          "duration": 0.3529410000000013
        },
        {
          "name": "F#3",
          "midi": 54,
          "time": 75.52937399999988,
          "velocity": 0.7874015748031497,
          "duration": 0.3529410000000013
        },
        {
          "name": "B3",
          "midi": 59,
          "time": 75.52937399999988,
          "velocity": 0.7874015748031497,
          "duration": 0.3529410000000013
        },
        {
          "name": "B2",
          "midi": 47,
          "time": 75.52937399999988,
          "velocity": 0.7874015748031497,
          "duration": 0.3529410000000013
        },
        {
          "name": "F3",
          "midi": 53,
          "time": 75.88231499999988,
          "velocity": 0.7874015748031497,
          "duration": 0.3529410000000013
        },
        {
          "name": "A#3",
          "midi": 58,
          "time": 75.88231499999988,
          "velocity": 0.7874015748031497,
          "duration": 0.3529410000000013
        },
        {
          "name": "A#2",
          "midi": 46,
          "time": 75.88231499999988,
          "velocity": 0.7874015748031497,
          "duration": 0.3529410000000013
        },
        {
          "name": "E3",
          "midi": 52,
          "time": 76.23525599999988,
          "velocity": 0.7874015748031497,
          "duration": 0.3529410000000013
        },
        {
          "name": "A3",
          "midi": 57,
          "time": 76.23525599999988,
          "velocity": 0.7874015748031497,
          "duration": 0.3529410000000013
        },
        {
          "name": "A2",
          "midi": 45,
          "time": 76.23525599999988,
          "velocity": 0.7874015748031497,
          "duration": 0.3529410000000013
        },
        {
          "name": "E3",
          "midi": 52,
          "time": 76.58819699999988,
          "velocity": 0.7874015748031497,
          "duration": 0.3529410000000013
        },
        {
          "name": "A3",
          "midi": 57,
          "time": 76.58819699999988,
          "velocity": 0.7874015748031497,
          "duration": 0.3529410000000013
        },
        {
          "name": "A2",
          "midi": 45,
          "time": 76.58819699999988,
          "velocity": 0.7874015748031497,
          "duration": 0.3529410000000013
        },
        {
          "name": "A3",
          "midi": 57,
          "time": 76.94113799999988,
          "velocity": 0.7874015748031497,
          "duration": 0.3529410000000013
        },
        {
          "name": "A2",
          "midi": 45,
          "time": 76.94113799999988,
          "velocity": 0.7874015748031497,
          "duration": 0.3529410000000013
        },
        {
          "name": "E3",
          "midi": 52,
          "time": 76.94113799999988,
          "velocity": 0.7874015748031497,
          "duration": 0.3529410000000013
        },
        {
          "name": "B3",
          "midi": 59,
          "time": 79.05878399999989,
          "velocity": 0.7874015748031497,
          "duration": 0.7058820000000026
        },
        {
          "name": "F#3",
          "midi": 54,
          "time": 79.05878399999989,
          "velocity": 0.7874015748031497,
          "duration": 0.7058820000000026
        },
        {
          "name": "B2",
          "midi": 47,
          "time": 79.05878399999989,
          "velocity": 0.7874015748031497,
          "duration": 0.7058820000000026
        },
        {
          "name": "D4",
          "midi": 62,
          "time": 79.76466599999989,
          "velocity": 0.7874015748031497,
          "duration": 0.7058820000000026
        },
        {
          "name": "A3",
          "midi": 57,
          "time": 79.76466599999989,
          "velocity": 0.7874015748031497,
          "duration": 0.7058820000000026
        },
        {
          "name": "D3",
          "midi": 50,
          "time": 79.76466599999989,
          "velocity": 0.7874015748031497,
          "duration": 0.7058820000000026
        },
        {
          "name": "D4",
          "midi": 62,
          "time": 80.4705479999999,
          "velocity": 0.7874015748031497,
          "duration": 0.3529410000000013
        },
        {
          "name": "A3",
          "midi": 57,
          "time": 80.4705479999999,
          "velocity": 0.7874015748031497,
          "duration": 0.3529410000000013
        },
        {
          "name": "D3",
          "midi": 50,
          "time": 80.4705479999999,
          "velocity": 0.7874015748031497,
          "duration": 0.3529410000000013
        },
        {
          "name": "E4",
          "midi": 64,
          "time": 80.8234889999999,
          "velocity": 0.7874015748031497,
          "duration": 0.3529410000000013
        },
        {
          "name": "B3",
          "midi": 59,
          "time": 80.8234889999999,
          "velocity": 0.7874015748031497,
          "duration": 0.3529410000000013
        },
        {
          "name": "E3",
          "midi": 52,
          "time": 80.8234889999999,
          "velocity": 0.7874015748031497,
          "duration": 0.3529410000000013
        },
        {
          "name": "E4",
          "midi": 64,
          "time": 81.1764299999999,
          "velocity": 0.7874015748031497,
          "duration": 0.7058820000000026
        },
        {
          "name": "B3",
          "midi": 59,
          "time": 81.1764299999999,
          "velocity": 0.7874015748031497,
          "duration": 0.7058820000000026
        },
        {
          "name": "E3",
          "midi": 52,
          "time": 81.1764299999999,
          "velocity": 0.7874015748031497,
          "duration": 0.7058820000000026
        },
        {
          "name": "G4",
          "midi": 67,
          "time": 81.8823119999999,
          "velocity": 0.7874015748031497,
          "duration": 0.17647049999999354
        },
        {
          "name": "D4",
          "midi": 62,
          "time": 81.8823119999999,
          "velocity": 0.7874015748031497,
          "duration": 0.17647049999999354
        },
        {
          "name": "G3",
          "midi": 55,
          "time": 81.8823119999999,
          "velocity": 0.7874015748031497,
          "duration": 0.17647049999999354
        },
        {
          "name": "F#4",
          "midi": 66,
          "time": 82.0587824999999,
          "velocity": 0.7874015748031497,
          "duration": 0.17647049999999354
        },
        {
          "name": "C#4",
          "midi": 61,
          "time": 82.0587824999999,
          "velocity": 0.7874015748031497,
          "duration": 0.17647049999999354
        },
        {
          "name": "F#3",
          "midi": 54,
          "time": 82.0587824999999,
          "velocity": 0.7874015748031497,
          "duration": 0.17647049999999354
        },
        {
          "name": "G4",
          "midi": 67,
          "time": 82.23525299999989,
          "velocity": 0.7874015748031497,
          "duration": 0.17647049999999354
        },
        {
          "name": "D4",
          "midi": 62,
          "time": 82.23525299999989,
          "velocity": 0.7874015748031497,
          "duration": 0.17647049999999354
        },
        {
          "name": "G3",
          "midi": 55,
          "time": 82.23525299999989,
          "velocity": 0.7874015748031497,
          "duration": 0.17647049999999354
        },
        {
          "name": "F#4",
          "midi": 66,
          "time": 82.41172349999988,
          "velocity": 0.7874015748031497,
          "duration": 0.17647049999999354
        },
        {
          "name": "C#4",
          "midi": 61,
          "time": 82.41172349999988,
          "velocity": 0.7874015748031497,
          "duration": 0.17647049999999354
        },
        {
          "name": "F#3",
          "midi": 54,
          "time": 82.41172349999988,
          "velocity": 0.7874015748031497,
          "duration": 0.17647049999999354
        },
        {
          "name": "G4",
          "midi": 67,
          "time": 82.58819399999987,
          "velocity": 0.7874015748031497,
          "duration": 0.17647049999999354
        },
        {
          "name": "D4",
          "midi": 62,
          "time": 82.58819399999987,
          "velocity": 0.7874015748031497,
          "duration": 0.17647049999999354
        },
        {
          "name": "G3",
          "midi": 55,
          "time": 82.58819399999987,
          "velocity": 0.7874015748031497,
          "duration": 0.17647049999999354
        },
        {
          "name": "F#4",
          "midi": 66,
          "time": 82.76466449999987,
          "velocity": 0.7874015748031497,
          "duration": 0.17647049999999354
        },
        {
          "name": "C#4",
          "midi": 61,
          "time": 82.76466449999987,
          "velocity": 0.7874015748031497,
          "duration": 0.17647049999999354
        },
        {
          "name": "F#3",
          "midi": 54,
          "time": 82.76466449999987,
          "velocity": 0.7874015748031497,
          "duration": 0.17647049999999354
        },
        {
          "name": "D4",
          "midi": 62,
          "time": 82.94113499999986,
          "velocity": 0.7874015748031497,
          "duration": 0.34411747500000445
        },
        {
          "name": "A3",
          "midi": 57,
          "time": 82.94113499999986,
          "velocity": 0.7874015748031497,
          "duration": 0.34411747500000445
        },
        {
          "name": "D3",
          "midi": 50,
          "time": 82.94113499999986,
          "velocity": 0.7874015748031497,
          "duration": 0.34411747500000445
        },
        {
          "name": "D4",
          "midi": 62,
          "time": 83.29407599999986,
          "velocity": 0.7874015748031497,
          "duration": 0.3529410000000013
        },
        {
          "name": "A3",
          "midi": 57,
          "time": 83.29407599999986,
          "velocity": 0.7874015748031497,
          "duration": 0.3529410000000013
        },
        {
          "name": "D3",
          "midi": 50,
          "time": 83.29407599999986,
          "velocity": 0.7874015748031497,
          "duration": 0.3529410000000013
        },
        {
          "name": "E4",
          "midi": 64,
          "time": 83.64701699999986,
          "velocity": 0.7874015748031497,
          "duration": 0.3529410000000013
        },
        {
          "name": "B3",
          "midi": 59,
          "time": 83.64701699999986,
          "velocity": 0.7874015748031497,
          "duration": 0.3529410000000013
        },
        {
          "name": "E3",
          "midi": 52,
          "time": 83.64701699999986,
          "velocity": 0.7874015748031497,
          "duration": 0.3529410000000013
        },
        {
          "name": "E4",
          "midi": 64,
          "time": 83.99995799999986,
          "velocity": 0.7874015748031497,
          "duration": 0.7058820000000026
        },
        {
          "name": "B3",
          "midi": 59,
          "time": 83.99995799999986,
          "velocity": 0.7874015748031497,
          "duration": 0.7058820000000026
        },
        {
          "name": "E3",
          "midi": 52,
          "time": 83.99995799999986,
          "velocity": 0.7874015748031497,
          "duration": 0.7058820000000026
        },
        {
          "name": "B3",
          "midi": 59,
          "time": 84.70583999999987,
          "velocity": 0.7874015748031497,
          "duration": 0.7058820000000026
        },
        {
          "name": "F#3",
          "midi": 54,
          "time": 84.70583999999987,
          "velocity": 0.7874015748031497,
          "duration": 0.7058820000000026
        },
        {
          "name": "B2",
          "midi": 47,
          "time": 84.70583999999987,
          "velocity": 0.7874015748031497,
          "duration": 0.7058820000000026
        },
        {
          "name": "D4",
          "midi": 62,
          "time": 85.41172199999987,
          "velocity": 0.7874015748031497,
          "duration": 0.7058820000000026
        },
        {
          "name": "A3",
          "midi": 57,
          "time": 85.41172199999987,
          "velocity": 0.7874015748031497,
          "duration": 0.7058820000000026
        },
        {
          "name": "D3",
          "midi": 50,
          "time": 85.41172199999987,
          "velocity": 0.7874015748031497,
          "duration": 0.7058820000000026
        },
        {
          "name": "D4",
          "midi": 62,
          "time": 86.11760399999987,
          "velocity": 0.7874015748031497,
          "duration": 0.3529410000000013
        },
        {
          "name": "A3",
          "midi": 57,
          "time": 86.11760399999987,
          "velocity": 0.7874015748031497,
          "duration": 0.3529410000000013
        },
        {
          "name": "D3",
          "midi": 50,
          "time": 86.11760399999987,
          "velocity": 0.7874015748031497,
          "duration": 0.3529410000000013
        },
        {
          "name": "E4",
          "midi": 64,
          "time": 86.47054499999987,
          "velocity": 0.7874015748031497,
          "duration": 0.3529410000000013
        },
        {
          "name": "B3",
          "midi": 59,
          "time": 86.47054499999987,
          "velocity": 0.7874015748031497,
          "duration": 0.3529410000000013
        },
        {
          "name": "E3",
          "midi": 52,
          "time": 86.47054499999987,
          "velocity": 0.7874015748031497,
          "duration": 0.3529410000000013
        },
        {
          "name": "E4",
          "midi": 64,
          "time": 86.82348599999987,
          "velocity": 0.7874015748031497,
          "duration": 0.7058820000000026
        },
        {
          "name": "B3",
          "midi": 59,
          "time": 86.82348599999987,
          "velocity": 0.7874015748031497,
          "duration": 0.7058820000000026
        },
        {
          "name": "E3",
          "midi": 52,
          "time": 86.82348599999987,
          "velocity": 0.7874015748031497,
          "duration": 0.7058820000000026
        },
        {
          "name": "G4",
          "midi": 67,
          "time": 87.52936799999988,
          "velocity": 0.7874015748031497,
          "duration": 0.17647049999999354
        },
        {
          "name": "D4",
          "midi": 62,
          "time": 87.52936799999988,
          "velocity": 0.7874015748031497,
          "duration": 0.17647049999999354
        },
        {
          "name": "G3",
          "midi": 55,
          "time": 87.52936799999988,
          "velocity": 0.7874015748031497,
          "duration": 0.17647049999999354
        },
        {
          "name": "F#4",
          "midi": 66,
          "time": 87.70583849999987,
          "velocity": 0.7874015748031497,
          "duration": 0.17647049999999354
        },
        {
          "name": "C#4",
          "midi": 61,
          "time": 87.70583849999987,
          "velocity": 0.7874015748031497,
          "duration": 0.17647049999999354
        },
        {
          "name": "F#3",
          "midi": 54,
          "time": 87.70583849999987,
          "velocity": 0.7874015748031497,
          "duration": 0.17647049999999354
        },
        {
          "name": "G4",
          "midi": 67,
          "time": 87.88230899999986,
          "velocity": 0.7874015748031497,
          "duration": 0.17647049999999354
        },
        {
          "name": "D4",
          "midi": 62,
          "time": 87.88230899999986,
          "velocity": 0.7874015748031497,
          "duration": 0.17647049999999354
        },
        {
          "name": "G3",
          "midi": 55,
          "time": 87.88230899999986,
          "velocity": 0.7874015748031497,
          "duration": 0.17647049999999354
        },
        {
          "name": "F#4",
          "midi": 66,
          "time": 88.05877949999986,
          "velocity": 0.7874015748031497,
          "duration": 0.17647049999999354
        },
        {
          "name": "C#4",
          "midi": 61,
          "time": 88.05877949999986,
          "velocity": 0.7874015748031497,
          "duration": 0.17647049999999354
        },
        {
          "name": "F#3",
          "midi": 54,
          "time": 88.05877949999986,
          "velocity": 0.7874015748031497,
          "duration": 0.17647049999999354
        },
        {
          "name": "G4",
          "midi": 67,
          "time": 88.23524999999985,
          "velocity": 0.7874015748031497,
          "duration": 0.17647049999999354
        },
        {
          "name": "D4",
          "midi": 62,
          "time": 88.23524999999985,
          "velocity": 0.7874015748031497,
          "duration": 0.17647049999999354
        },
        {
          "name": "G3",
          "midi": 55,
          "time": 88.23524999999985,
          "velocity": 0.7874015748031497,
          "duration": 0.17647049999999354
        },
        {
          "name": "F#4",
          "midi": 66,
          "time": 88.41172049999984,
          "velocity": 0.7874015748031497,
          "duration": 0.17647049999999354
        },
        {
          "name": "C#4",
          "midi": 61,
          "time": 88.41172049999984,
          "velocity": 0.7874015748031497,
          "duration": 0.17647049999999354
        },
        {
          "name": "F#3",
          "midi": 54,
          "time": 88.41172049999984,
          "velocity": 0.7874015748031497,
          "duration": 0.17647049999999354
        },
        {
          "name": "D4",
          "midi": 62,
          "time": 88.58819099999984,
          "velocity": 0.7874015748031497,
          "duration": 0.34411747500000445
        },
        {
          "name": "A3",
          "midi": 57,
          "time": 88.58819099999984,
          "velocity": 0.7874015748031497,
          "duration": 0.34411747500000445
        },
        {
          "name": "D3",
          "midi": 50,
          "time": 88.58819099999984,
          "velocity": 0.7874015748031497,
          "duration": 0.34411747500000445
        },
        {
          "name": "D4",
          "midi": 62,
          "time": 88.94113199999984,
          "velocity": 0.7874015748031497,
          "duration": 0.3529410000000013
        },
        {
          "name": "A3",
          "midi": 57,
          "time": 88.94113199999984,
          "velocity": 0.7874015748031497,
          "duration": 0.3529410000000013
        },
        {
          "name": "D3",
          "midi": 50,
          "time": 88.94113199999984,
          "velocity": 0.7874015748031497,
          "duration": 0.3529410000000013
        },
        {
          "name": "E4",
          "midi": 64,
          "time": 89.29407299999984,
          "velocity": 0.7874015748031497,
          "duration": 0.3529410000000013
        },
        {
          "name": "B3",
          "midi": 59,
          "time": 89.29407299999984,
          "velocity": 0.7874015748031497,
          "duration": 0.3529410000000013
        },
        {
          "name": "E3",
          "midi": 52,
          "time": 89.29407299999984,
          "velocity": 0.7874015748031497,
          "duration": 0.3529410000000013
        },
        {
          "name": "E4",
          "midi": 64,
          "time": 89.64701399999984,
          "velocity": 0.7874015748031497,
          "duration": 0.7058820000000026
        },
        {
          "name": "B3",
          "midi": 59,
          "time": 89.64701399999984,
          "velocity": 0.7874015748031497,
          "duration": 0.7058820000000026
        },
        {
          "name": "E3",
          "midi": 52,
          "time": 89.64701399999984,
          "velocity": 0.7874015748031497,
          "duration": 0.7058820000000026
        },
        {
          "name": "B3",
          "midi": 59,
          "time": 90.35289599999984,
          "velocity": 0.7874015748031497,
          "duration": 0.7058820000000026
        },
        {
          "name": "F#3",
          "midi": 54,
          "time": 90.35289599999984,
          "velocity": 0.7874015748031497,
          "duration": 0.7058820000000026
        },
        {
          "name": "B2",
          "midi": 47,
          "time": 90.35289599999984,
          "velocity": 0.7874015748031497,
          "duration": 0.7058820000000026
        },
        {
          "name": "D4",
          "midi": 62,
          "time": 91.05877799999985,
          "velocity": 0.7874015748031497,
          "duration": 0.7058820000000026
        },
        {
          "name": "A3",
          "midi": 57,
          "time": 91.05877799999985,
          "velocity": 0.7874015748031497,
          "duration": 0.7058820000000026
        },
        {
          "name": "D3",
          "midi": 50,
          "time": 91.05877799999985,
          "velocity": 0.7874015748031497,
          "duration": 0.7058820000000026
        },
        {
          "name": "D4",
          "midi": 62,
          "time": 91.76465999999985,
          "velocity": 0.7874015748031497,
          "duration": 0.3529410000000013
        },
        {
          "name": "A3",
          "midi": 57,
          "time": 91.76465999999985,
          "velocity": 0.7874015748031497,
          "duration": 0.3529410000000013
        },
        {
          "name": "D3",
          "midi": 50,
          "time": 91.76465999999985,
          "velocity": 0.7874015748031497,
          "duration": 0.3529410000000013
        },
        {
          "name": "E4",
          "midi": 64,
          "time": 92.11760099999985,
          "velocity": 0.7874015748031497,
          "duration": 0.3529410000000013
        },
        {
          "name": "B3",
          "midi": 59,
          "time": 92.11760099999985,
          "velocity": 0.7874015748031497,
          "duration": 0.3529410000000013
        },
        {
          "name": "E3",
          "midi": 52,
          "time": 92.11760099999985,
          "velocity": 0.7874015748031497,
          "duration": 0.3529410000000013
        },
        {
          "name": "E4",
          "midi": 64,
          "time": 92.47054199999985,
          "velocity": 0.7874015748031497,
          "duration": 0.7058820000000026
        },
        {
          "name": "B3",
          "midi": 59,
          "time": 92.47054199999985,
          "velocity": 0.7874015748031497,
          "duration": 0.7058820000000026
        },
        {
          "name": "E3",
          "midi": 52,
          "time": 92.47054199999985,
          "velocity": 0.7874015748031497,
          "duration": 0.7058820000000026
        },
        {
          "name": "G4",
          "midi": 67,
          "time": 93.17642399999986,
          "velocity": 0.7874015748031497,
          "duration": 0.17647049999999354
        },
        {
          "name": "D4",
          "midi": 62,
          "time": 93.17642399999986,
          "velocity": 0.7874015748031497,
          "duration": 0.17647049999999354
        },
        {
          "name": "G3",
          "midi": 55,
          "time": 93.17642399999986,
          "velocity": 0.7874015748031497,
          "duration": 0.17647049999999354
        },
        {
          "name": "F#4",
          "midi": 66,
          "time": 93.35289449999985,
          "velocity": 0.7874015748031497,
          "duration": 0.17647049999999354
        },
        {
          "name": "C#4",
          "midi": 61,
          "time": 93.35289449999985,
          "velocity": 0.7874015748031497,
          "duration": 0.17647049999999354
        },
        {
          "name": "F#3",
          "midi": 54,
          "time": 93.35289449999985,
          "velocity": 0.7874015748031497,
          "duration": 0.17647049999999354
        },
        {
          "name": "G4",
          "midi": 67,
          "time": 93.52936499999984,
          "velocity": 0.7874015748031497,
          "duration": 0.17647049999999354
        },
        {
          "name": "D4",
          "midi": 62,
          "time": 93.52936499999984,
          "velocity": 0.7874015748031497,
          "duration": 0.17647049999999354
        },
        {
          "name": "G3",
          "midi": 55,
          "time": 93.52936499999984,
          "velocity": 0.7874015748031497,
          "duration": 0.17647049999999354
        },
        {
          "name": "F#4",
          "midi": 66,
          "time": 93.70583549999984,
          "velocity": 0.7874015748031497,
          "duration": 0.17647049999999354
        },
        {
          "name": "C#4",
          "midi": 61,
          "time": 93.70583549999984,
          "velocity": 0.7874015748031497,
          "duration": 0.17647049999999354
        },
        {
          "name": "F#3",
          "midi": 54,
          "time": 93.70583549999984,
          "velocity": 0.7874015748031497,
          "duration": 0.17647049999999354
        },
        {
          "name": "G4",
          "midi": 67,
          "time": 93.88230599999983,
          "velocity": 0.7874015748031497,
          "duration": 0.17647049999999354
        },
        {
          "name": "D4",
          "midi": 62,
          "time": 93.88230599999983,
          "velocity": 0.7874015748031497,
          "duration": 0.17647049999999354
        },
        {
          "name": "G3",
          "midi": 55,
          "time": 93.88230599999983,
          "velocity": 0.7874015748031497,
          "duration": 0.17647049999999354
        },
        {
          "name": "F#4",
          "midi": 66,
          "time": 94.05877649999982,
          "velocity": 0.7874015748031497,
          "duration": 0.17647049999999354
        },
        {
          "name": "C#4",
          "midi": 61,
          "time": 94.05877649999982,
          "velocity": 0.7874015748031497,
          "duration": 0.17647049999999354
        },
        {
          "name": "F#3",
          "midi": 54,
          "time": 94.05877649999982,
          "velocity": 0.7874015748031497,
          "duration": 0.17647049999999354
        },
        {
          "name": "D4",
          "midi": 62,
          "time": 94.23524699999982,
          "velocity": 0.7874015748031497,
          "duration": 0.34411747500000445
        },
        {
          "name": "A3",
          "midi": 57,
          "time": 94.23524699999982,
          "velocity": 0.7874015748031497,
          "duration": 0.34411747500000445
        },
        {
          "name": "D3",
          "midi": 50,
          "time": 94.23524699999982,
          "velocity": 0.7874015748031497,
          "duration": 0.34411747500000445
        },
        {
          "name": "D4",
          "midi": 62,
          "time": 94.58818799999982,
          "velocity": 0.7874015748031497,
          "duration": 0.3529410000000013
        },
        {
          "name": "A3",
          "midi": 57,
          "time": 94.58818799999982,
          "velocity": 0.7874015748031497,
          "duration": 0.3529410000000013
        },
        {
          "name": "D3",
          "midi": 50,
          "time": 94.58818799999982,
          "velocity": 0.7874015748031497,
          "duration": 0.3529410000000013
        },
        {
          "name": "E4",
          "midi": 64,
          "time": 94.94112899999982,
          "velocity": 0.7874015748031497,
          "duration": 0.3529410000000013
        },
        {
          "name": "B3",
          "midi": 59,
          "time": 94.94112899999982,
          "velocity": 0.7874015748031497,
          "duration": 0.3529410000000013
        },
        {
          "name": "E3",
          "midi": 52,
          "time": 94.94112899999982,
          "velocity": 0.7874015748031497,
          "duration": 0.3529410000000013
        },
        {
          "name": "E4",
          "midi": 64,
          "time": 95.29406999999982,
          "velocity": 0.7874015748031497,
          "duration": 0.7058820000000026
        },
        {
          "name": "B3",
          "midi": 59,
          "time": 95.29406999999982,
          "velocity": 0.7874015748031497,
          "duration": 0.7058820000000026
        },
        {
          "name": "E3",
          "midi": 52,
          "time": 95.29406999999982,
          "velocity": 0.7874015748031497,
          "duration": 0.7058820000000026
        },
        {
          "name": "B3",
          "midi": 59,
          "time": 95.99995199999982,
          "velocity": 0.7874015748031497,
          "duration": 0.7058820000000026
        },
        {
          "name": "F#3",
          "midi": 54,
          "time": 95.99995199999982,
          "velocity": 0.7874015748031497,
          "duration": 0.7058820000000026
        },
        {
          "name": "B2",
          "midi": 47,
          "time": 95.99995199999982,
          "velocity": 0.7874015748031497,
          "duration": 0.7058820000000026
        },
        {
          "name": "D4",
          "midi": 62,
          "time": 96.70583399999983,
          "velocity": 0.7874015748031497,
          "duration": 0.7058820000000026
        },
        {
          "name": "A3",
          "midi": 57,
          "time": 96.70583399999983,
          "velocity": 0.7874015748031497,
          "duration": 0.7058820000000026
        },
        {
          "name": "D3",
          "midi": 50,
          "time": 96.70583399999983,
          "velocity": 0.7874015748031497,
          "duration": 0.7058820000000026
        },
        {
          "name": "D4",
          "midi": 62,
          "time": 97.41171599999983,
          "velocity": 0.7874015748031497,
          "duration": 0.3529410000000013
        },
        {
          "name": "A3",
          "midi": 57,
          "time": 97.41171599999983,
          "velocity": 0.7874015748031497,
          "duration": 0.3529410000000013
        },
        {
          "name": "D3",
          "midi": 50,
          "time": 97.41171599999983,
          "velocity": 0.7874015748031497,
          "duration": 0.3529410000000013
        },
        {
          "name": "E4",
          "midi": 64,
          "time": 97.76465699999983,
          "velocity": 0.7874015748031497,
          "duration": 0.3529410000000013
        },
        {
          "name": "B3",
          "midi": 59,
          "time": 97.76465699999983,
          "velocity": 0.7874015748031497,
          "duration": 0.3529410000000013
        },
        {
          "name": "E3",
          "midi": 52,
          "time": 97.76465699999983,
          "velocity": 0.7874015748031497,
          "duration": 0.3529410000000013
        },
        {
          "name": "E4",
          "midi": 64,
          "time": 98.11759799999983,
          "velocity": 0.7874015748031497,
          "duration": 0.7058820000000026
        },
        {
          "name": "B3",
          "midi": 59,
          "time": 98.11759799999983,
          "velocity": 0.7874015748031497,
          "duration": 0.7058820000000026
        },
        {
          "name": "E3",
          "midi": 52,
          "time": 98.11759799999983,
          "velocity": 0.7874015748031497,
          "duration": 0.7058820000000026
        },
        {
          "name": "G4",
          "midi": 67,
          "time": 98.82347999999983,
          "velocity": 0.7874015748031497,
          "duration": 0.17647049999999354
        },
        {
          "name": "D4",
          "midi": 62,
          "time": 98.82347999999983,
          "velocity": 0.7874015748031497,
          "duration": 0.17647049999999354
        },
        {
          "name": "G3",
          "midi": 55,
          "time": 98.82347999999983,
          "velocity": 0.7874015748031497,
          "duration": 0.17647049999999354
        },
        {
          "name": "F#4",
          "midi": 66,
          "time": 98.99995049999983,
          "velocity": 0.7874015748031497,
          "duration": 0.17647049999999354
        },
        {
          "name": "C#4",
          "midi": 61,
          "time": 98.99995049999983,
          "velocity": 0.7874015748031497,
          "duration": 0.17647049999999354
        },
        {
          "name": "F#3",
          "midi": 54,
          "time": 98.99995049999983,
          "velocity": 0.7874015748031497,
          "duration": 0.17647049999999354
        },
        {
          "name": "G4",
          "midi": 67,
          "time": 99.17642099999982,
          "velocity": 0.7874015748031497,
          "duration": 0.17647049999999354
        },
        {
          "name": "D4",
          "midi": 62,
          "time": 99.17642099999982,
          "velocity": 0.7874015748031497,
          "duration": 0.17647049999999354
        },
        {
          "name": "G3",
          "midi": 55,
          "time": 99.17642099999982,
          "velocity": 0.7874015748031497,
          "duration": 0.17647049999999354
        },
        {
          "name": "F#4",
          "midi": 66,
          "time": 99.35289149999981,
          "velocity": 0.7874015748031497,
          "duration": 0.17647049999999354
        },
        {
          "name": "C#4",
          "midi": 61,
          "time": 99.35289149999981,
          "velocity": 0.7874015748031497,
          "duration": 0.17647049999999354
        },
        {
          "name": "F#3",
          "midi": 54,
          "time": 99.35289149999981,
          "velocity": 0.7874015748031497,
          "duration": 0.17647049999999354
        },
        {
          "name": "G4",
          "midi": 67,
          "time": 99.52936199999981,
          "velocity": 0.7874015748031497,
          "duration": 0.17647049999999354
        },
        {
          "name": "D4",
          "midi": 62,
          "time": 99.52936199999981,
          "velocity": 0.7874015748031497,
          "duration": 0.17647049999999354
        },
        {
          "name": "G3",
          "midi": 55,
          "time": 99.52936199999981,
          "velocity": 0.7874015748031497,
          "duration": 0.17647049999999354
        },
        {
          "name": "F#4",
          "midi": 66,
          "time": 99.7058324999998,
          "velocity": 0.7874015748031497,
          "duration": 0.17647049999999354
        },
        {
          "name": "C#4",
          "midi": 61,
          "time": 99.7058324999998,
          "velocity": 0.7874015748031497,
          "duration": 0.17647049999999354
        },
        {
          "name": "F#3",
          "midi": 54,
          "time": 99.7058324999998,
          "velocity": 0.7874015748031497,
          "duration": 0.17647049999999354
        },
        {
          "name": "D4",
          "midi": 62,
          "time": 99.8823029999998,
          "velocity": 0.7874015748031497,
          "duration": 0.34411747500000445
        },
        {
          "name": "A3",
          "midi": 57,
          "time": 99.8823029999998,
          "velocity": 0.7874015748031497,
          "duration": 0.34411747500000445
        },
        {
          "name": "D3",
          "midi": 50,
          "time": 99.8823029999998,
          "velocity": 0.7874015748031497,
          "duration": 0.34411747500000445
        },
        {
          "name": "D4",
          "midi": 62,
          "time": 100.2352439999998,
          "velocity": 0.7874015748031497,
          "duration": 0.3529410000000013
        },
        {
          "name": "A3",
          "midi": 57,
          "time": 100.2352439999998,
          "velocity": 0.7874015748031497,
          "duration": 0.3529410000000013
        },
        {
          "name": "D3",
          "midi": 50,
          "time": 100.2352439999998,
          "velocity": 0.7874015748031497,
          "duration": 0.3529410000000013
        },
        {
          "name": "E4",
          "midi": 64,
          "time": 100.5881849999998,
          "velocity": 0.7874015748031497,
          "duration": 0.3529410000000013
        },
        {
          "name": "B3",
          "midi": 59,
          "time": 100.5881849999998,
          "velocity": 0.7874015748031497,
          "duration": 0.3529410000000013
        },
        {
          "name": "E3",
          "midi": 52,
          "time": 100.5881849999998,
          "velocity": 0.7874015748031497,
          "duration": 0.3529410000000013
        },
        {
          "name": "E4",
          "midi": 64,
          "time": 100.9411259999998,
          "velocity": 0.7874015748031497,
          "duration": 0.7058820000000026
        },
        {
          "name": "B3",
          "midi": 59,
          "time": 100.9411259999998,
          "velocity": 0.7874015748031497,
          "duration": 0.7058820000000026
        },
        {
          "name": "E3",
          "midi": 52,
          "time": 100.9411259999998,
          "velocity": 0.7874015748031497,
          "duration": 0.7058820000000026
        },
        {
          "name": "E3",
          "midi": 52,
          "time": 101.6470079999998,
          "velocity": 0.7874015748031497,
          "duration": 2.823527999999996
        },
        {
          "name": "B3",
          "midi": 59,
          "time": 101.6470079999998,
          "velocity": 0.7874015748031497,
          "duration": 2.823527999999996
        },
        {
          "name": "E4",
          "midi": 64,
          "time": 101.6470079999998,
          "velocity": 0.7874015748031497,
          "duration": 2.823527999999996
        },
        {
          "name": "D3",
          "midi": 50,
          "time": 104.4705359999998,
          "velocity": 0.7874015748031497,
          "duration": 2.823527999999996
        },
        {
          "name": "D4",
          "midi": 62,
          "time": 104.4705359999998,
          "velocity": 0.7874015748031497,
          "duration": 2.823527999999996
        },
        {
          "name": "A3",
          "midi": 57,
          "time": 104.4705359999998,
          "velocity": 0.7874015748031497,
          "duration": 2.823527999999996
        },
        {
          "name": "F#3",
          "midi": 54,
          "time": 107.29406399999979,
          "velocity": 0.7874015748031497,
          "duration": 0.3529410000000013
        },
        {
          "name": "B3",
          "midi": 59,
          "time": 107.29406399999979,
          "velocity": 0.7874015748031497,
          "duration": 0.3529410000000013
        },
        {
          "name": "B2",
          "midi": 47,
          "time": 107.29406399999979,
          "velocity": 0.7874015748031497,
          "duration": 0.3529410000000013
        },
        {
          "name": "F#3",
          "midi": 54,
          "time": 107.6470049999998,
          "velocity": 0.7874015748031497,
          "duration": 0.3529410000000013
        },
        {
          "name": "B3",
          "midi": 59,
          "time": 107.6470049999998,
          "velocity": 0.7874015748031497,
          "duration": 0.3529410000000013
        },
        {
          "name": "B2",
          "midi": 47,
          "time": 107.6470049999998,
          "velocity": 0.7874015748031497,
          "duration": 0.3529410000000013
        },
        {
          "name": "A3",
          "midi": 57,
          "time": 107.9999459999998,
          "velocity": 0.7874015748031497,
          "duration": 0.17647049999999354
        },
        {
          "name": "D4",
          "midi": 62,
          "time": 107.9999459999998,
          "velocity": 0.7874015748031497,
          "duration": 0.17647049999999354
        },
        {
          "name": "D3",
          "midi": 50,
          "time": 107.9999459999998,
          "velocity": 0.7874015748031497,
          "duration": 0.17647049999999354
        },
        {
          "name": "A#3",
          "midi": 58,
          "time": 108.17641649999979,
          "velocity": 0.7874015748031497,
          "duration": 0.17647049999999354
        },
        {
          "name": "D#4",
          "midi": 63,
          "time": 108.17641649999979,
          "velocity": 0.7874015748031497,
          "duration": 0.17647049999999354
        },
        {
          "name": "D#3",
          "midi": 51,
          "time": 108.17641649999979,
          "velocity": 0.7874015748031497,
          "duration": 0.17647049999999354
        },
        {
          "name": "B3",
          "midi": 59,
          "time": 108.35288699999978,
          "velocity": 0.7874015748031497,
          "duration": 0.3529410000000013
        },
        {
          "name": "E4",
          "midi": 64,
          "time": 108.35288699999978,
          "velocity": 0.7874015748031497,
          "duration": 0.3529410000000013
        },
        {
          "name": "E3",
          "midi": 52,
          "time": 108.35288699999978,
          "velocity": 0.7874015748031497,
          "duration": 0.3529410000000013
        },
        {
          "name": "B3",
          "midi": 59,
          "time": 108.70582799999978,
          "velocity": 0.7874015748031497,
          "duration": 0.17647049999999354
        },
        {
          "name": "E4",
          "midi": 64,
          "time": 108.70582799999978,
          "velocity": 0.7874015748031497,
          "duration": 0.17647049999999354
        },
        {
          "name": "E3",
          "midi": 52,
          "time": 108.70582799999978,
          "velocity": 0.7874015748031497,
          "duration": 0.17647049999999354
        },
        {
          "name": "C4",
          "midi": 60,
          "time": 108.88229849999978,
          "velocity": 0.7874015748031497,
          "duration": 0.17647049999999354
        },
        {
          "name": "F4",
          "midi": 65,
          "time": 108.88229849999978,
          "velocity": 0.7874015748031497,
          "duration": 0.17647049999999354
        },
        {
          "name": "F3",
          "midi": 53,
          "time": 108.88229849999978,
          "velocity": 0.7874015748031497,
          "duration": 0.17647049999999354
        },
        {
          "name": "C#4",
          "midi": 61,
          "time": 109.05876899999977,
          "velocity": 0.7874015748031497,
          "duration": 0.3529410000000013
        },
        {
          "name": "F#4",
          "midi": 66,
          "time": 109.05876899999977,
          "velocity": 0.7874015748031497,
          "duration": 0.3529410000000013
        },
        {
          "name": "F#3",
          "midi": 54,
          "time": 109.05876899999977,
          "velocity": 0.7874015748031497,
          "duration": 0.3529410000000013
        },
        {
          "name": "E4",
          "midi": 64,
          "time": 109.41170999999977,
          "velocity": 0.7874015748031497,
          "duration": 0.17647049999999354
        },
        {
          "name": "A4",
          "midi": 69,
          "time": 109.41170999999977,
          "velocity": 0.7874015748031497,
          "duration": 0.17647049999999354
        },
        {
          "name": "A3",
          "midi": 57,
          "time": 109.41170999999977,
          "velocity": 0.7874015748031497,
          "duration": 0.17647049999999354
        },
        {
          "name": "F4",
          "midi": 65,
          "time": 109.58818049999977,
          "velocity": 0.7874015748031497,
          "duration": 0.17647049999999354
        },
        {
          "name": "A#4",
          "midi": 70,
          "time": 109.58818049999977,
          "velocity": 0.7874015748031497,
          "duration": 0.17647049999999354
        },
        {
          "name": "A#3",
          "midi": 58,
          "time": 109.58818049999977,
          "velocity": 0.7874015748031497,
          "duration": 0.17647049999999354
        },
        {
          "name": "F#4",
          "midi": 66,
          "time": 109.76465099999976,
          "velocity": 0.7874015748031497,
          "duration": 0.3529410000000013
        },
        {
          "name": "B4",
          "midi": 71,
          "time": 109.76465099999976,
          "velocity": 0.7874015748031497,
          "duration": 0.3529410000000013
        },
        {
          "name": "B3",
          "midi": 59,
          "time": 109.76465099999976,
          "velocity": 0.7874015748031497,
          "duration": 0.3529410000000013
        },
        {
          "name": "F#3",
          "midi": 54,
          "time": 110.11759199999976,
          "velocity": 0.7874015748031497,
          "duration": 0.3529410000000013
        },
        {
          "name": "B3",
          "midi": 59,
          "time": 110.11759199999976,
          "velocity": 0.7874015748031497,
          "duration": 0.3529410000000013
        },
        {
          "name": "B2",
          "midi": 47,
          "time": 110.11759199999976,
          "velocity": 0.7874015748031497,
          "duration": 0.3529410000000013
        },
        {
          "name": "F#3",
          "midi": 54,
          "time": 110.47053299999976,
          "velocity": 0.7874015748031497,
          "duration": 0.3529410000000013
        },
        {
          "name": "B3",
          "midi": 59,
          "time": 110.47053299999976,
          "velocity": 0.7874015748031497,
          "duration": 0.3529410000000013
        },
        {
          "name": "B2",
          "midi": 47,
          "time": 110.47053299999976,
          "velocity": 0.7874015748031497,
          "duration": 0.3529410000000013
        },
        {
          "name": "A3",
          "midi": 57,
          "time": 110.82347399999976,
          "velocity": 0.7874015748031497,
          "duration": 0.17647049999999354
        },
        {
          "name": "D4",
          "midi": 62,
          "time": 110.82347399999976,
          "velocity": 0.7874015748031497,
          "duration": 0.17647049999999354
        },
        {
          "name": "D3",
          "midi": 50,
          "time": 110.82347399999976,
          "velocity": 0.7874015748031497,
          "duration": 0.17647049999999354
        },
        {
          "name": "A#3",
          "midi": 58,
          "time": 110.99994449999976,
          "velocity": 0.7874015748031497,
          "duration": 0.17647049999999354
        },
        {
          "name": "D#4",
          "midi": 63,
          "time": 110.99994449999976,
          "velocity": 0.7874015748031497,
          "duration": 0.17647049999999354
        },
        {
          "name": "D#3",
          "midi": 51,
          "time": 110.99994449999976,
          "velocity": 0.7874015748031497,
          "duration": 0.17647049999999354
        },
        {
          "name": "B3",
          "midi": 59,
          "time": 111.17641499999975,
          "velocity": 0.7874015748031497,
          "duration": 0.3529410000000013
        },
        {
          "name": "E4",
          "midi": 64,
          "time": 111.17641499999975,
          "velocity": 0.7874015748031497,
          "duration": 0.3529410000000013
        },
        {
          "name": "E3",
          "midi": 52,
          "time": 111.17641499999975,
          "velocity": 0.7874015748031497,
          "duration": 0.3529410000000013
        },
        {
          "name": "B3",
          "midi": 59,
          "time": 111.52935599999975,
          "velocity": 0.7874015748031497,
          "duration": 0.17647049999999354
        },
        {
          "name": "E4",
          "midi": 64,
          "time": 111.52935599999975,
          "velocity": 0.7874015748031497,
          "duration": 0.17647049999999354
        },
        {
          "name": "E3",
          "midi": 52,
          "time": 111.52935599999975,
          "velocity": 0.7874015748031497,
          "duration": 0.17647049999999354
        },
        {
          "name": "C4",
          "midi": 60,
          "time": 111.70582649999974,
          "velocity": 0.7874015748031497,
          "duration": 0.17647049999999354
        },
        {
          "name": "F4",
          "midi": 65,
          "time": 111.70582649999974,
          "velocity": 0.7874015748031497,
          "duration": 0.17647049999999354
        },
        {
          "name": "F3",
          "midi": 53,
          "time": 111.70582649999974,
          "velocity": 0.7874015748031497,
          "duration": 0.17647049999999354
        },
        {
          "name": "C#4",
          "midi": 61,
          "time": 111.88229699999974,
          "velocity": 0.7874015748031497,
          "duration": 0.3529410000000013
        },
        {
          "name": "F#4",
          "midi": 66,
          "time": 111.88229699999974,
          "velocity": 0.7874015748031497,
          "duration": 0.3529410000000013
        },
        {
          "name": "F#3",
          "midi": 54,
          "time": 111.88229699999974,
          "velocity": 0.7874015748031497,
          "duration": 0.3529410000000013
        },
        {
          "name": "E4",
          "midi": 64,
          "time": 112.23523799999974,
          "velocity": 0.7874015748031497,
          "duration": 0.17647049999999354
        },
        {
          "name": "A4",
          "midi": 69,
          "time": 112.23523799999974,
          "velocity": 0.7874015748031497,
          "duration": 0.17647049999999354
        },
        {
          "name": "A3",
          "midi": 57,
          "time": 112.23523799999974,
          "velocity": 0.7874015748031497,
          "duration": 0.17647049999999354
        },
        {
          "name": "F4",
          "midi": 65,
          "time": 112.41170849999973,
          "velocity": 0.7874015748031497,
          "duration": 0.17647049999999354
        },
        {
          "name": "A#4",
          "midi": 70,
          "time": 112.41170849999973,
          "velocity": 0.7874015748031497,
          "duration": 0.17647049999999354
        },
        {
          "name": "A#3",
          "midi": 58,
          "time": 112.41170849999973,
          "velocity": 0.7874015748031497,
          "duration": 0.17647049999999354
        },
        {
          "name": "F#4",
          "midi": 66,
          "time": 112.58817899999973,
          "velocity": 0.7874015748031497,
          "duration": 0.3529410000000013
        },
        {
          "name": "B4",
          "midi": 71,
          "time": 112.58817899999973,
          "velocity": 0.7874015748031497,
          "duration": 0.3529410000000013
        },
        {
          "name": "B3",
          "midi": 59,
          "time": 112.58817899999973,
          "velocity": 0.7874015748031497,
          "duration": 0.3529410000000013
        },
        {
          "name": "E3",
          "midi": 52,
          "time": 112.94111999999973,
          "velocity": 0.7874015748031497,
          "duration": 2.823527999999996
        },
        {
          "name": "B3",
          "midi": 59,
          "time": 112.94111999999973,
          "velocity": 0.7874015748031497,
          "duration": 2.823527999999996
        },
        {
          "name": "E4",
          "midi": 64,
          "time": 112.94111999999973,
          "velocity": 0.7874015748031497,
          "duration": 2.823527999999996
        },
        {
          "name": "D3",
          "midi": 50,
          "time": 115.76464799999972,
          "velocity": 0.7874015748031497,
          "duration": 2.823527999999996
        },
        {
          "name": "D4",
          "midi": 62,
          "time": 115.76464799999972,
          "velocity": 0.7874015748031497,
          "duration": 2.823527999999996
        },
        {
          "name": "A3",
          "midi": 57,
          "time": 115.76464799999972,
          "velocity": 0.7874015748031497,
          "duration": 2.823527999999996
        },
        {
          "name": "F#3",
          "midi": 54,
          "time": 118.58817599999972,
          "velocity": 0.7874015748031497,
          "duration": 0.3529410000000013
        },
        {
          "name": "B3",
          "midi": 59,
          "time": 118.58817599999972,
          "velocity": 0.7874015748031497,
          "duration": 0.3529410000000013
        },
        {
          "name": "B2",
          "midi": 47,
          "time": 118.58817599999972,
          "velocity": 0.7874015748031497,
          "duration": 0.3529410000000013
        },
        {
          "name": "F#3",
          "midi": 54,
          "time": 118.94111699999972,
          "velocity": 0.7874015748031497,
          "duration": 0.3529410000000013
        },
        {
          "name": "B3",
          "midi": 59,
          "time": 118.94111699999972,
          "velocity": 0.7874015748031497,
          "duration": 0.3529410000000013
        },
        {
          "name": "B2",
          "midi": 47,
          "time": 118.94111699999972,
          "velocity": 0.7874015748031497,
          "duration": 0.3529410000000013
        },
        {
          "name": "A3",
          "midi": 57,
          "time": 119.29405799999972,
          "velocity": 0.7874015748031497,
          "duration": 0.17647049999999354
        },
        {
          "name": "D4",
          "midi": 62,
          "time": 119.29405799999972,
          "velocity": 0.7874015748031497,
          "duration": 0.17647049999999354
        },
        {
          "name": "D3",
          "midi": 50,
          "time": 119.29405799999972,
          "velocity": 0.7874015748031497,
          "duration": 0.17647049999999354
        },
        {
          "name": "A#3",
          "midi": 58,
          "time": 119.47052849999972,
          "velocity": 0.7874015748031497,
          "duration": 0.17647049999999354
        },
        {
          "name": "D#4",
          "midi": 63,
          "time": 119.47052849999972,
          "velocity": 0.7874015748031497,
          "duration": 0.17647049999999354
        },
        {
          "name": "D#3",
          "midi": 51,
          "time": 119.47052849999972,
          "velocity": 0.7874015748031497,
          "duration": 0.17647049999999354
        },
        {
          "name": "B3",
          "midi": 59,
          "time": 119.64699899999971,
          "velocity": 0.7874015748031497,
          "duration": 0.3529410000000013
        },
        {
          "name": "E4",
          "midi": 64,
          "time": 119.64699899999971,
          "velocity": 0.7874015748031497,
          "duration": 0.3529410000000013
        },
        {
          "name": "E3",
          "midi": 52,
          "time": 119.64699899999971,
          "velocity": 0.7874015748031497,
          "duration": 0.3529410000000013
        },
        {
          "name": "B3",
          "midi": 59,
          "time": 119.99993999999971,
          "velocity": 0.7874015748031497,
          "duration": 0.17647049999999354
        },
        {
          "name": "E4",
          "midi": 64,
          "time": 119.99993999999971,
          "velocity": 0.7874015748031497,
          "duration": 0.17647049999999354
        },
        {
          "name": "E3",
          "midi": 52,
          "time": 119.99993999999971,
          "velocity": 0.7874015748031497,
          "duration": 0.17647049999999354
        },
        {
          "name": "C4",
          "midi": 60,
          "time": 120.1764104999997,
          "velocity": 0.7874015748031497,
          "duration": 0.17647049999999354
        },
        {
          "name": "F4",
          "midi": 65,
          "time": 120.1764104999997,
          "velocity": 0.7874015748031497,
          "duration": 0.17647049999999354
        },
        {
          "name": "F3",
          "midi": 53,
          "time": 120.1764104999997,
          "velocity": 0.7874015748031497,
          "duration": 0.17647049999999354
        },
        {
          "name": "C#4",
          "midi": 61,
          "time": 120.3528809999997,
          "velocity": 0.7874015748031497,
          "duration": 0.3529410000000013
        },
        {
          "name": "F#4",
          "midi": 66,
          "time": 120.3528809999997,
          "velocity": 0.7874015748031497,
          "duration": 0.3529410000000013
        },
        {
          "name": "F#3",
          "midi": 54,
          "time": 120.3528809999997,
          "velocity": 0.7874015748031497,
          "duration": 0.3529410000000013
        },
        {
          "name": "E4",
          "midi": 64,
          "time": 120.7058219999997,
          "velocity": 0.7874015748031497,
          "duration": 0.17647049999999354
        },
        {
          "name": "A4",
          "midi": 69,
          "time": 120.7058219999997,
          "velocity": 0.7874015748031497,
          "duration": 0.17647049999999354
        },
        {
          "name": "A3",
          "midi": 57,
          "time": 120.7058219999997,
          "velocity": 0.7874015748031497,
          "duration": 0.17647049999999354
        },
        {
          "name": "F4",
          "midi": 65,
          "time": 120.88229249999969,
          "velocity": 0.7874015748031497,
          "duration": 0.17647049999999354
        },
        {
          "name": "A#4",
          "midi": 70,
          "time": 120.88229249999969,
          "velocity": 0.7874015748031497,
          "duration": 0.17647049999999354
        },
        {
          "name": "A#3",
          "midi": 58,
          "time": 120.88229249999969,
          "velocity": 0.7874015748031497,
          "duration": 0.17647049999999354
        },
        {
          "name": "F#4",
          "midi": 66,
          "time": 121.05876299999969,
          "velocity": 0.7874015748031497,
          "duration": 0.3529410000000013
        },
        {
          "name": "B4",
          "midi": 71,
          "time": 121.05876299999969,
          "velocity": 0.7874015748031497,
          "duration": 0.3529410000000013
        },
        {
          "name": "B3",
          "midi": 59,
          "time": 121.05876299999969,
          "velocity": 0.7874015748031497,
          "duration": 0.3529410000000013
        },
        {
          "name": "F#3",
          "midi": 54,
          "time": 121.41170399999969,
          "velocity": 0.7874015748031497,
          "duration": 0.3529410000000013
        },
        {
          "name": "B3",
          "midi": 59,
          "time": 121.41170399999969,
          "velocity": 0.7874015748031497,
          "duration": 0.3529410000000013
        },
        {
          "name": "B2",
          "midi": 47,
          "time": 121.41170399999969,
          "velocity": 0.7874015748031497,
          "duration": 0.3529410000000013
        },
        {
          "name": "F#3",
          "midi": 54,
          "time": 121.76464499999969,
          "velocity": 0.7874015748031497,
          "duration": 0.3529410000000013
        },
        {
          "name": "B3",
          "midi": 59,
          "time": 121.76464499999969,
          "velocity": 0.7874015748031497,
          "duration": 0.3529410000000013
        },
        {
          "name": "B2",
          "midi": 47,
          "time": 121.76464499999969,
          "velocity": 0.7874015748031497,
          "duration": 0.3529410000000013
        },
        {
          "name": "A3",
          "midi": 57,
          "time": 122.11758599999969,
          "velocity": 0.7874015748031497,
          "duration": 0.17647049999999354
        },
        {
          "name": "D4",
          "midi": 62,
          "time": 122.11758599999969,
          "velocity": 0.7874015748031497,
          "duration": 0.17647049999999354
        },
        {
          "name": "D3",
          "midi": 50,
          "time": 122.11758599999969,
          "velocity": 0.7874015748031497,
          "duration": 0.17647049999999354
        },
        {
          "name": "A#3",
          "midi": 58,
          "time": 122.29405649999968,
          "velocity": 0.7874015748031497,
          "duration": 0.17647049999999354
        },
        {
          "name": "D#4",
          "midi": 63,
          "time": 122.29405649999968,
          "velocity": 0.7874015748031497,
          "duration": 0.17647049999999354
        },
        {
          "name": "D#3",
          "midi": 51,
          "time": 122.29405649999968,
          "velocity": 0.7874015748031497,
          "duration": 0.17647049999999354
        },
        {
          "name": "B3",
          "midi": 59,
          "time": 122.47052699999968,
          "velocity": 0.7874015748031497,
          "duration": 0.3529410000000013
        },
        {
          "name": "E4",
          "midi": 64,
          "time": 122.47052699999968,
          "velocity": 0.7874015748031497,
          "duration": 0.3529410000000013
        },
        {
          "name": "E3",
          "midi": 52,
          "time": 122.47052699999968,
          "velocity": 0.7874015748031497,
          "duration": 0.3529410000000013
        },
        {
          "name": "B3",
          "midi": 59,
          "time": 122.82346799999968,
          "velocity": 0.7874015748031497,
          "duration": 0.17647049999999354
        },
        {
          "name": "E4",
          "midi": 64,
          "time": 122.82346799999968,
          "velocity": 0.7874015748031497,
          "duration": 0.17647049999999354
        },
        {
          "name": "E3",
          "midi": 52,
          "time": 122.82346799999968,
          "velocity": 0.7874015748031497,
          "duration": 0.17647049999999354
        },
        {
          "name": "C4",
          "midi": 60,
          "time": 122.99993849999967,
          "velocity": 0.7874015748031497,
          "duration": 0.17647049999999354
        },
        {
          "name": "F4",
          "midi": 65,
          "time": 122.99993849999967,
          "velocity": 0.7874015748031497,
          "duration": 0.17647049999999354
        },
        {
          "name": "F3",
          "midi": 53,
          "time": 122.99993849999967,
          "velocity": 0.7874015748031497,
          "duration": 0.17647049999999354
        },
        {
          "name": "C#4",
          "midi": 61,
          "time": 123.17640899999967,
          "velocity": 0.7874015748031497,
          "duration": 0.3529410000000013
        },
        {
          "name": "F#4",
          "midi": 66,
          "time": 123.17640899999967,
          "velocity": 0.7874015748031497,
          "duration": 0.3529410000000013
        },
        {
          "name": "F#3",
          "midi": 54,
          "time": 123.17640899999967,
          "velocity": 0.7874015748031497,
          "duration": 0.3529410000000013
        },
        {
          "name": "E4",
          "midi": 64,
          "time": 123.52934999999967,
          "velocity": 0.7874015748031497,
          "duration": 0.17647049999999354
        },
        {
          "name": "A4",
          "midi": 69,
          "time": 123.52934999999967,
          "velocity": 0.7874015748031497,
          "duration": 0.17647049999999354
        },
        {
          "name": "A3",
          "midi": 57,
          "time": 123.52934999999967,
          "velocity": 0.7874015748031497,
          "duration": 0.17647049999999354
        },
        {
          "name": "F4",
          "midi": 65,
          "time": 123.70582049999966,
          "velocity": 0.7874015748031497,
          "duration": 0.17647049999999354
        },
        {
          "name": "A#4",
          "midi": 70,
          "time": 123.70582049999966,
          "velocity": 0.7874015748031497,
          "duration": 0.17647049999999354
        },
        {
          "name": "A#3",
          "midi": 58,
          "time": 123.70582049999966,
          "velocity": 0.7874015748031497,
          "duration": 0.17647049999999354
        },
        {
          "name": "F#4",
          "midi": 66,
          "time": 123.88229099999965,
          "velocity": 0.7874015748031497,
          "duration": 0.3529410000000013
        },
        {
          "name": "B4",
          "midi": 71,
          "time": 123.88229099999965,
          "velocity": 0.7874015748031497,
          "duration": 0.3529410000000013
        },
        {
          "name": "B3",
          "midi": 59,
          "time": 123.88229099999965,
          "velocity": 0.7874015748031497,
          "duration": 0.3529410000000013
        },
        {
          "name": "B3",
          "midi": 59,
          "time": 124.23523199999966,
          "velocity": 0.7874015748031497,
          "duration": 0.7058820000000026
        },
        {
          "name": "F#3",
          "midi": 54,
          "time": 124.23523199999966,
          "velocity": 0.7874015748031497,
          "duration": 0.7058820000000026
        },
        {
          "name": "B2",
          "midi": 47,
          "time": 124.23523199999966,
          "velocity": 0.7874015748031497,
          "duration": 0.7058820000000026
        },
        {
          "name": "D4",
          "midi": 62,
          "time": 124.94111399999966,
          "velocity": 0.7874015748031497,
          "duration": 0.7058820000000026
        },
        {
          "name": "A3",
          "midi": 57,
          "time": 124.94111399999966,
          "velocity": 0.7874015748031497,
          "duration": 0.7058820000000026
        },
        {
          "name": "D3",
          "midi": 50,
          "time": 124.94111399999966,
          "velocity": 0.7874015748031497,
          "duration": 0.7058820000000026
        },
        {
          "name": "D4",
          "midi": 62,
          "time": 125.64699599999966,
          "velocity": 0.7874015748031497,
          "duration": 0.3529410000000013
        },
        {
          "name": "A3",
          "midi": 57,
          "time": 125.64699599999966,
          "velocity": 0.7874015748031497,
          "duration": 0.3529410000000013
        },
        {
          "name": "D3",
          "midi": 50,
          "time": 125.64699599999966,
          "velocity": 0.7874015748031497,
          "duration": 0.3529410000000013
        },
        {
          "name": "E4",
          "midi": 64,
          "time": 125.99993699999966,
          "velocity": 0.7874015748031497,
          "duration": 0.3529410000000013
        },
        {
          "name": "B3",
          "midi": 59,
          "time": 125.99993699999966,
          "velocity": 0.7874015748031497,
          "duration": 0.3529410000000013
        },
        {
          "name": "E3",
          "midi": 52,
          "time": 125.99993699999966,
          "velocity": 0.7874015748031497,
          "duration": 0.3529410000000013
        },
        {
          "name": "E4",
          "midi": 64,
          "time": 126.35287799999966,
          "velocity": 0.7874015748031497,
          "duration": 0.7058820000000026
        },
        {
          "name": "B3",
          "midi": 59,
          "time": 126.35287799999966,
          "velocity": 0.7874015748031497,
          "duration": 0.7058820000000026
        },
        {
          "name": "E3",
          "midi": 52,
          "time": 126.35287799999966,
          "velocity": 0.7874015748031497,
          "duration": 0.7058820000000026
        },
        {
          "name": "G4",
          "midi": 67,
          "time": 127.05875999999967,
          "velocity": 0.7874015748031497,
          "duration": 0.17647049999999354
        },
        {
          "name": "D4",
          "midi": 62,
          "time": 127.05875999999967,
          "velocity": 0.7874015748031497,
          "duration": 0.17647049999999354
        },
        {
          "name": "G3",
          "midi": 55,
          "time": 127.05875999999967,
          "velocity": 0.7874015748031497,
          "duration": 0.17647049999999354
        },
        {
          "name": "F#4",
          "midi": 66,
          "time": 127.23523049999966,
          "velocity": 0.7874015748031497,
          "duration": 0.17647049999999354
        },
        {
          "name": "C#4",
          "midi": 61,
          "time": 127.23523049999966,
          "velocity": 0.7874015748031497,
          "duration": 0.17647049999999354
        },
        {
          "name": "F#3",
          "midi": 54,
          "time": 127.23523049999966,
          "velocity": 0.7874015748031497,
          "duration": 0.17647049999999354
        },
        {
          "name": "G4",
          "midi": 67,
          "time": 127.41170099999965,
          "velocity": 0.7874015748031497,
          "duration": 0.17647049999999354
        },
        {
          "name": "D4",
          "midi": 62,
          "time": 127.41170099999965,
          "velocity": 0.7874015748031497,
          "duration": 0.17647049999999354
        },
        {
          "name": "G3",
          "midi": 55,
          "time": 127.41170099999965,
          "velocity": 0.7874015748031497,
          "duration": 0.17647049999999354
        },
        {
          "name": "F#4",
          "midi": 66,
          "time": 127.58817149999965,
          "velocity": 0.7874015748031497,
          "duration": 0.17647049999999354
        },
        {
          "name": "C#4",
          "midi": 61,
          "time": 127.58817149999965,
          "velocity": 0.7874015748031497,
          "duration": 0.17647049999999354
        },
        {
          "name": "F#3",
          "midi": 54,
          "time": 127.58817149999965,
          "velocity": 0.7874015748031497,
          "duration": 0.17647049999999354
        },
        {
          "name": "G4",
          "midi": 67,
          "time": 127.76464199999964,
          "velocity": 0.7874015748031497,
          "duration": 0.17647049999999354
        },
        {
          "name": "D4",
          "midi": 62,
          "time": 127.76464199999964,
          "velocity": 0.7874015748031497,
          "duration": 0.17647049999999354
        },
        {
          "name": "G3",
          "midi": 55,
          "time": 127.76464199999964,
          "velocity": 0.7874015748031497,
          "duration": 0.17647049999999354
        },
        {
          "name": "F#4",
          "midi": 66,
          "time": 127.94111249999963,
          "velocity": 0.7874015748031497,
          "duration": 0.17647049999999354
        },
        {
          "name": "C#4",
          "midi": 61,
          "time": 127.94111249999963,
          "velocity": 0.7874015748031497,
          "duration": 0.17647049999999354
        },
        {
          "name": "F#3",
          "midi": 54,
          "time": 127.94111249999963,
          "velocity": 0.7874015748031497,
          "duration": 0.17647049999999354
        },
        {
          "name": "D4",
          "midi": 62,
          "time": 128.11758299999963,
          "velocity": 0.7874015748031497,
          "duration": 0.34411747499999024
        },
        {
          "name": "A3",
          "midi": 57,
          "time": 128.11758299999963,
          "velocity": 0.7874015748031497,
          "duration": 0.34411747499999024
        },
        {
          "name": "D3",
          "midi": 50,
          "time": 128.11758299999963,
          "velocity": 0.7874015748031497,
          "duration": 0.34411747499999024
        },
        {
          "name": "D4",
          "midi": 62,
          "time": 128.4705239999996,
          "velocity": 0.7874015748031497,
          "duration": 0.35294099999998707
        },
        {
          "name": "A3",
          "midi": 57,
          "time": 128.4705239999996,
          "velocity": 0.7874015748031497,
          "duration": 0.35294099999998707
        },
        {
          "name": "D3",
          "midi": 50,
          "time": 128.4705239999996,
          "velocity": 0.7874015748031497,
          "duration": 0.35294099999998707
        },
        {
          "name": "E4",
          "midi": 64,
          "time": 128.8234649999996,
          "velocity": 0.7874015748031497,
          "duration": 0.35294099999998707
        },
        {
          "name": "B3",
          "midi": 59,
          "time": 128.8234649999996,
          "velocity": 0.7874015748031497,
          "duration": 0.35294099999998707
        },
        {
          "name": "E3",
          "midi": 52,
          "time": 128.8234649999996,
          "velocity": 0.7874015748031497,
          "duration": 0.35294099999998707
        },
        {
          "name": "E4",
          "midi": 64,
          "time": 129.1764059999996,
          "velocity": 0.7874015748031497,
          "duration": 0.7058820000000026
        },
        {
          "name": "B3",
          "midi": 59,
          "time": 129.1764059999996,
          "velocity": 0.7874015748031497,
          "duration": 0.7058820000000026
        },
        {
          "name": "E3",
          "midi": 52,
          "time": 129.1764059999996,
          "velocity": 0.7874015748031497,
          "duration": 0.7058820000000026
        },
        {
          "name": "B3",
          "midi": 59,
          "time": 129.8822879999996,
          "velocity": 0.7874015748031497,
          "duration": 0.7058820000000026
        },
        {
          "name": "F#3",
          "midi": 54,
          "time": 129.8822879999996,
          "velocity": 0.7874015748031497,
          "duration": 0.7058820000000026
        },
        {
          "name": "B2",
          "midi": 47,
          "time": 129.8822879999996,
          "velocity": 0.7874015748031497,
          "duration": 0.7058820000000026
        },
        {
          "name": "D4",
          "midi": 62,
          "time": 130.5881699999996,
          "velocity": 0.7874015748031497,
          "duration": 0.7058820000000026
        },
        {
          "name": "A3",
          "midi": 57,
          "time": 130.5881699999996,
          "velocity": 0.7874015748031497,
          "duration": 0.7058820000000026
        },
        {
          "name": "D3",
          "midi": 50,
          "time": 130.5881699999996,
          "velocity": 0.7874015748031497,
          "duration": 0.7058820000000026
        },
        {
          "name": "D4",
          "midi": 62,
          "time": 131.2940519999996,
          "velocity": 0.7874015748031497,
          "duration": 0.35294099999998707
        },
        {
          "name": "A3",
          "midi": 57,
          "time": 131.2940519999996,
          "velocity": 0.7874015748031497,
          "duration": 0.35294099999998707
        },
        {
          "name": "D3",
          "midi": 50,
          "time": 131.2940519999996,
          "velocity": 0.7874015748031497,
          "duration": 0.35294099999998707
        },
        {
          "name": "E4",
          "midi": 64,
          "time": 131.64699299999958,
          "velocity": 0.7874015748031497,
          "duration": 0.35294099999998707
        },
        {
          "name": "B3",
          "midi": 59,
          "time": 131.64699299999958,
          "velocity": 0.7874015748031497,
          "duration": 0.35294099999998707
        },
        {
          "name": "E3",
          "midi": 52,
          "time": 131.64699299999958,
          "velocity": 0.7874015748031497,
          "duration": 0.35294099999998707
        },
        {
          "name": "E4",
          "midi": 64,
          "time": 131.99993399999957,
          "velocity": 0.7874015748031497,
          "duration": 0.7058820000000026
        },
        {
          "name": "B3",
          "midi": 59,
          "time": 131.99993399999957,
          "velocity": 0.7874015748031497,
          "duration": 0.7058820000000026
        },
        {
          "name": "E3",
          "midi": 52,
          "time": 131.99993399999957,
          "velocity": 0.7874015748031497,
          "duration": 0.7058820000000026
        },
        {
          "name": "G4",
          "midi": 67,
          "time": 132.70581599999957,
          "velocity": 0.7874015748031497,
          "duration": 0.17647049999999354
        },
        {
          "name": "D4",
          "midi": 62,
          "time": 132.70581599999957,
          "velocity": 0.7874015748031497,
          "duration": 0.17647049999999354
        },
        {
          "name": "G3",
          "midi": 55,
          "time": 132.70581599999957,
          "velocity": 0.7874015748031497,
          "duration": 0.17647049999999354
        },
        {
          "name": "F#4",
          "midi": 66,
          "time": 132.88228649999957,
          "velocity": 0.7874015748031497,
          "duration": 0.17647049999999354
        },
        {
          "name": "C#4",
          "midi": 61,
          "time": 132.88228649999957,
          "velocity": 0.7874015748031497,
          "duration": 0.17647049999999354
        },
        {
          "name": "F#3",
          "midi": 54,
          "time": 132.88228649999957,
          "velocity": 0.7874015748031497,
          "duration": 0.17647049999999354
        },
        {
          "name": "G4",
          "midi": 67,
          "time": 133.05875699999956,
          "velocity": 0.7874015748031497,
          "duration": 0.17647049999999354
        },
        {
          "name": "D4",
          "midi": 62,
          "time": 133.05875699999956,
          "velocity": 0.7874015748031497,
          "duration": 0.17647049999999354
        },
        {
          "name": "G3",
          "midi": 55,
          "time": 133.05875699999956,
          "velocity": 0.7874015748031497,
          "duration": 0.17647049999999354
        },
        {
          "name": "F#4",
          "midi": 66,
          "time": 133.23522749999955,
          "velocity": 0.7874015748031497,
          "duration": 0.17647049999999354
        },
        {
          "name": "C#4",
          "midi": 61,
          "time": 133.23522749999955,
          "velocity": 0.7874015748031497,
          "duration": 0.17647049999999354
        },
        {
          "name": "F#3",
          "midi": 54,
          "time": 133.23522749999955,
          "velocity": 0.7874015748031497,
          "duration": 0.17647049999999354
        },
        {
          "name": "G4",
          "midi": 67,
          "time": 133.41169799999955,
          "velocity": 0.7874015748031497,
          "duration": 0.17647049999999354
        },
        {
          "name": "D4",
          "midi": 62,
          "time": 133.41169799999955,
          "velocity": 0.7874015748031497,
          "duration": 0.17647049999999354
        },
        {
          "name": "G3",
          "midi": 55,
          "time": 133.41169799999955,
          "velocity": 0.7874015748031497,
          "duration": 0.17647049999999354
        },
        {
          "name": "F#4",
          "midi": 66,
          "time": 133.58816849999954,
          "velocity": 0.7874015748031497,
          "duration": 0.17647049999999354
        },
        {
          "name": "C#4",
          "midi": 61,
          "time": 133.58816849999954,
          "velocity": 0.7874015748031497,
          "duration": 0.17647049999999354
        },
        {
          "name": "F#3",
          "midi": 54,
          "time": 133.58816849999954,
          "velocity": 0.7874015748031497,
          "duration": 0.17647049999999354
        },
        {
          "name": "D4",
          "midi": 62,
          "time": 133.76463899999953,
          "velocity": 0.7874015748031497,
          "duration": 0.34411747499999024
        },
        {
          "name": "A3",
          "midi": 57,
          "time": 133.76463899999953,
          "velocity": 0.7874015748031497,
          "duration": 0.34411747499999024
        },
        {
          "name": "D3",
          "midi": 50,
          "time": 133.76463899999953,
          "velocity": 0.7874015748031497,
          "duration": 0.34411747499999024
        },
        {
          "name": "D4",
          "midi": 62,
          "time": 134.11757999999952,
          "velocity": 0.7874015748031497,
          "duration": 0.35294099999998707
        },
        {
          "name": "A3",
          "midi": 57,
          "time": 134.11757999999952,
          "velocity": 0.7874015748031497,
          "duration": 0.35294099999998707
        },
        {
          "name": "D3",
          "midi": 50,
          "time": 134.11757999999952,
          "velocity": 0.7874015748031497,
          "duration": 0.35294099999998707
        },
        {
          "name": "E4",
          "midi": 64,
          "time": 134.4705209999995,
          "velocity": 0.7874015748031497,
          "duration": 0.35294099999998707
        },
        {
          "name": "B3",
          "midi": 59,
          "time": 134.4705209999995,
          "velocity": 0.7874015748031497,
          "duration": 0.35294099999998707
        },
        {
          "name": "E3",
          "midi": 52,
          "time": 134.4705209999995,
          "velocity": 0.7874015748031497,
          "duration": 0.35294099999998707
        },
        {
          "name": "E4",
          "midi": 64,
          "time": 134.8234619999995,
          "velocity": 0.7874015748031497,
          "duration": 0.7058820000000026
        },
        {
          "name": "B3",
          "midi": 59,
          "time": 134.8234619999995,
          "velocity": 0.7874015748031497,
          "duration": 0.7058820000000026
        },
        {
          "name": "E3",
          "midi": 52,
          "time": 134.8234619999995,
          "velocity": 0.7874015748031497,
          "duration": 0.7058820000000026
        },
        {
          "name": "B3",
          "midi": 59,
          "time": 135.5293439999995,
          "velocity": 0.7874015748031497,
          "duration": 0.7058820000000026
        },
        {
          "name": "F#3",
          "midi": 54,
          "time": 135.5293439999995,
          "velocity": 0.7874015748031497,
          "duration": 0.7058820000000026
        },
        {
          "name": "B2",
          "midi": 47,
          "time": 135.5293439999995,
          "velocity": 0.7874015748031497,
          "duration": 0.7058820000000026
        },
        {
          "name": "D4",
          "midi": 62,
          "time": 136.2352259999995,
          "velocity": 0.7874015748031497,
          "duration": 0.7058820000000026
        },
        {
          "name": "A3",
          "midi": 57,
          "time": 136.2352259999995,
          "velocity": 0.7874015748031497,
          "duration": 0.7058820000000026
        },
        {
          "name": "D3",
          "midi": 50,
          "time": 136.2352259999995,
          "velocity": 0.7874015748031497,
          "duration": 0.7058820000000026
        },
        {
          "name": "D4",
          "midi": 62,
          "time": 136.9411079999995,
          "velocity": 0.7874015748031497,
          "duration": 0.35294099999998707
        },
        {
          "name": "A3",
          "midi": 57,
          "time": 136.9411079999995,
          "velocity": 0.7874015748031497,
          "duration": 0.35294099999998707
        },
        {
          "name": "D3",
          "midi": 50,
          "time": 136.9411079999995,
          "velocity": 0.7874015748031497,
          "duration": 0.35294099999998707
        },
        {
          "name": "E4",
          "midi": 64,
          "time": 137.2940489999995,
          "velocity": 0.7874015748031497,
          "duration": 0.35294099999998707
        },
        {
          "name": "B3",
          "midi": 59,
          "time": 137.2940489999995,
          "velocity": 0.7874015748031497,
          "duration": 0.35294099999998707
        },
        {
          "name": "E3",
          "midi": 52,
          "time": 137.2940489999995,
          "velocity": 0.7874015748031497,
          "duration": 0.35294099999998707
        },
        {
          "name": "E4",
          "midi": 64,
          "time": 137.64698999999948,
          "velocity": 0.7874015748031497,
          "duration": 0.7058820000000026
        },
        {
          "name": "B3",
          "midi": 59,
          "time": 137.64698999999948,
          "velocity": 0.7874015748031497,
          "duration": 0.7058820000000026
        },
        {
          "name": "E3",
          "midi": 52,
          "time": 137.64698999999948,
          "velocity": 0.7874015748031497,
          "duration": 0.7058820000000026
        },
        {
          "name": "G4",
          "midi": 67,
          "time": 138.35287199999948,
          "velocity": 0.7874015748031497,
          "duration": 0.17647049999999354
        },
        {
          "name": "D4",
          "midi": 62,
          "time": 138.35287199999948,
          "velocity": 0.7874015748031497,
          "duration": 0.17647049999999354
        },
        {
          "name": "G3",
          "midi": 55,
          "time": 138.35287199999948,
          "velocity": 0.7874015748031497,
          "duration": 0.17647049999999354
        },
        {
          "name": "F#4",
          "midi": 66,
          "time": 138.52934249999947,
          "velocity": 0.7874015748031497,
          "duration": 0.17647049999999354
        },
        {
          "name": "C#4",
          "midi": 61,
          "time": 138.52934249999947,
          "velocity": 0.7874015748031497,
          "duration": 0.17647049999999354
        },
        {
          "name": "F#3",
          "midi": 54,
          "time": 138.52934249999947,
          "velocity": 0.7874015748031497,
          "duration": 0.17647049999999354
        },
        {
          "name": "G4",
          "midi": 67,
          "time": 138.70581299999947,
          "velocity": 0.7874015748031497,
          "duration": 0.17647049999999354
        },
        {
          "name": "D4",
          "midi": 62,
          "time": 138.70581299999947,
          "velocity": 0.7874015748031497,
          "duration": 0.17647049999999354
        },
        {
          "name": "G3",
          "midi": 55,
          "time": 138.70581299999947,
          "velocity": 0.7874015748031497,
          "duration": 0.17647049999999354
        },
        {
          "name": "F#4",
          "midi": 66,
          "time": 138.88228349999946,
          "velocity": 0.7874015748031497,
          "duration": 0.17647049999999354
        },
        {
          "name": "C#4",
          "midi": 61,
          "time": 138.88228349999946,
          "velocity": 0.7874015748031497,
          "duration": 0.17647049999999354
        },
        {
          "name": "F#3",
          "midi": 54,
          "time": 138.88228349999946,
          "velocity": 0.7874015748031497,
          "duration": 0.17647049999999354
        },
        {
          "name": "G4",
          "midi": 67,
          "time": 139.05875399999945,
          "velocity": 0.7874015748031497,
          "duration": 0.17647049999999354
        },
        {
          "name": "D4",
          "midi": 62,
          "time": 139.05875399999945,
          "velocity": 0.7874015748031497,
          "duration": 0.17647049999999354
        },
        {
          "name": "G3",
          "midi": 55,
          "time": 139.05875399999945,
          "velocity": 0.7874015748031497,
          "duration": 0.17647049999999354
        },
        {
          "name": "F#4",
          "midi": 66,
          "time": 139.23522449999945,
          "velocity": 0.7874015748031497,
          "duration": 0.17647049999999354
        },
        {
          "name": "C#4",
          "midi": 61,
          "time": 139.23522449999945,
          "velocity": 0.7874015748031497,
          "duration": 0.17647049999999354
        },
        {
          "name": "F#3",
          "midi": 54,
          "time": 139.23522449999945,
          "velocity": 0.7874015748031497,
          "duration": 0.17647049999999354
        },
        {
          "name": "D4",
          "midi": 62,
          "time": 139.41169499999944,
          "velocity": 0.7874015748031497,
          "duration": 0.34411747499999024
        },
        {
          "name": "A3",
          "midi": 57,
          "time": 139.41169499999944,
          "velocity": 0.7874015748031497,
          "duration": 0.34411747499999024
        },
        {
          "name": "D3",
          "midi": 50,
          "time": 139.41169499999944,
          "velocity": 0.7874015748031497,
          "duration": 0.34411747499999024
        },
        {
          "name": "D4",
          "midi": 62,
          "time": 139.76463599999943,
          "velocity": 0.7874015748031497,
          "duration": 0.35294099999998707
        },
        {
          "name": "A3",
          "midi": 57,
          "time": 139.76463599999943,
          "velocity": 0.7874015748031497,
          "duration": 0.35294099999998707
        },
        {
          "name": "D3",
          "midi": 50,
          "time": 139.76463599999943,
          "velocity": 0.7874015748031497,
          "duration": 0.35294099999998707
        },
        {
          "name": "E4",
          "midi": 64,
          "time": 140.11757699999941,
          "velocity": 0.7874015748031497,
          "duration": 0.35294099999998707
        },
        {
          "name": "B3",
          "midi": 59,
          "time": 140.11757699999941,
          "velocity": 0.7874015748031497,
          "duration": 0.35294099999998707
        },
        {
          "name": "E3",
          "midi": 52,
          "time": 140.11757699999941,
          "velocity": 0.7874015748031497,
          "duration": 0.35294099999998707
        },
        {
          "name": "E4",
          "midi": 64,
          "time": 140.4705179999994,
          "velocity": 0.7874015748031497,
          "duration": 0.7058820000000026
        },
        {
          "name": "B3",
          "midi": 59,
          "time": 140.4705179999994,
          "velocity": 0.7874015748031497,
          "duration": 0.7058820000000026
        },
        {
          "name": "E3",
          "midi": 52,
          "time": 140.4705179999994,
          "velocity": 0.7874015748031497,
          "duration": 0.7058820000000026
        },
        {
          "name": "B3",
          "midi": 59,
          "time": 141.1763999999994,
          "velocity": 0.7874015748031497,
          "duration": 0.7058820000000026
        },
        {
          "name": "F#3",
          "midi": 54,
          "time": 141.1763999999994,
          "velocity": 0.7874015748031497,
          "duration": 0.7058820000000026
        },
        {
          "name": "B2",
          "midi": 47,
          "time": 141.1763999999994,
          "velocity": 0.7874015748031497,
          "duration": 0.7058820000000026
        },
        {
          "name": "D4",
          "midi": 62,
          "time": 141.8822819999994,
          "velocity": 0.7874015748031497,
          "duration": 0.7058820000000026
        },
        {
          "name": "A3",
          "midi": 57,
          "time": 141.8822819999994,
          "velocity": 0.7874015748031497,
          "duration": 0.7058820000000026
        },
        {
          "name": "D3",
          "midi": 50,
          "time": 141.8822819999994,
          "velocity": 0.7874015748031497,
          "duration": 0.7058820000000026
        },
        {
          "name": "D4",
          "midi": 62,
          "time": 142.5881639999994,
          "velocity": 0.7874015748031497,
          "duration": 0.35294099999998707
        },
        {
          "name": "A3",
          "midi": 57,
          "time": 142.5881639999994,
          "velocity": 0.7874015748031497,
          "duration": 0.35294099999998707
        },
        {
          "name": "D3",
          "midi": 50,
          "time": 142.5881639999994,
          "velocity": 0.7874015748031497,
          "duration": 0.35294099999998707
        },
        {
          "name": "E4",
          "midi": 64,
          "time": 142.9411049999994,
          "velocity": 0.7874015748031497,
          "duration": 0.35294099999998707
        },
        {
          "name": "B3",
          "midi": 59,
          "time": 142.9411049999994,
          "velocity": 0.7874015748031497,
          "duration": 0.35294099999998707
        },
        {
          "name": "E3",
          "midi": 52,
          "time": 142.9411049999994,
          "velocity": 0.7874015748031497,
          "duration": 0.35294099999998707
        },
        {
          "name": "E4",
          "midi": 64,
          "time": 143.29404599999938,
          "velocity": 0.7874015748031497,
          "duration": 0.7058820000000026
        },
        {
          "name": "B3",
          "midi": 59,
          "time": 143.29404599999938,
          "velocity": 0.7874015748031497,
          "duration": 0.7058820000000026
        },
        {
          "name": "E3",
          "midi": 52,
          "time": 143.29404599999938,
          "velocity": 0.7874015748031497,
          "duration": 0.7058820000000026
        },
        {
          "name": "G4",
          "midi": 67,
          "time": 143.9999279999994,
          "velocity": 0.7874015748031497,
          "duration": 0.17647049999999354
        },
        {
          "name": "D4",
          "midi": 62,
          "time": 143.9999279999994,
          "velocity": 0.7874015748031497,
          "duration": 0.17647049999999354
        },
        {
          "name": "G3",
          "midi": 55,
          "time": 143.9999279999994,
          "velocity": 0.7874015748031497,
          "duration": 0.17647049999999354
        },
        {
          "name": "F#4",
          "midi": 66,
          "time": 144.17639849999938,
          "velocity": 0.7874015748031497,
          "duration": 0.17647049999999354
        },
        {
          "name": "C#4",
          "midi": 61,
          "time": 144.17639849999938,
          "velocity": 0.7874015748031497,
          "duration": 0.17647049999999354
        },
        {
          "name": "F#3",
          "midi": 54,
          "time": 144.17639849999938,
          "velocity": 0.7874015748031497,
          "duration": 0.17647049999999354
        },
        {
          "name": "G4",
          "midi": 67,
          "time": 144.35286899999937,
          "velocity": 0.7874015748031497,
          "duration": 0.17647049999999354
        },
        {
          "name": "D4",
          "midi": 62,
          "time": 144.35286899999937,
          "velocity": 0.7874015748031497,
          "duration": 0.17647049999999354
        },
        {
          "name": "G3",
          "midi": 55,
          "time": 144.35286899999937,
          "velocity": 0.7874015748031497,
          "duration": 0.17647049999999354
        },
        {
          "name": "F#4",
          "midi": 66,
          "time": 144.52933949999937,
          "velocity": 0.7874015748031497,
          "duration": 0.17647049999999354
        },
        {
          "name": "C#4",
          "midi": 61,
          "time": 144.52933949999937,
          "velocity": 0.7874015748031497,
          "duration": 0.17647049999999354
        },
        {
          "name": "F#3",
          "midi": 54,
          "time": 144.52933949999937,
          "velocity": 0.7874015748031497,
          "duration": 0.17647049999999354
        },
        {
          "name": "G4",
          "midi": 67,
          "time": 144.70580999999936,
          "velocity": 0.7874015748031497,
          "duration": 0.17647049999999354
        },
        {
          "name": "D4",
          "midi": 62,
          "time": 144.70580999999936,
          "velocity": 0.7874015748031497,
          "duration": 0.17647049999999354
        },
        {
          "name": "G3",
          "midi": 55,
          "time": 144.70580999999936,
          "velocity": 0.7874015748031497,
          "duration": 0.17647049999999354
        },
        {
          "name": "F#4",
          "midi": 66,
          "time": 144.88228049999935,
          "velocity": 0.7874015748031497,
          "duration": 0.17647049999999354
        },
        {
          "name": "C#4",
          "midi": 61,
          "time": 144.88228049999935,
          "velocity": 0.7874015748031497,
          "duration": 0.17647049999999354
        },
        {
          "name": "F#3",
          "midi": 54,
          "time": 144.88228049999935,
          "velocity": 0.7874015748031497,
          "duration": 0.17647049999999354
        },
        {
          "name": "D4",
          "midi": 62,
          "time": 145.05875099999935,
          "velocity": 0.7874015748031497,
          "duration": 0.34411747499999024
        },
        {
          "name": "A3",
          "midi": 57,
          "time": 145.05875099999935,
          "velocity": 0.7874015748031497,
          "duration": 0.34411747499999024
        },
        {
          "name": "D3",
          "midi": 50,
          "time": 145.05875099999935,
          "velocity": 0.7874015748031497,
          "duration": 0.34411747499999024
        },
        {
          "name": "D4",
          "midi": 62,
          "time": 145.41169199999933,
          "velocity": 0.7874015748031497,
          "duration": 0.35294099999998707
        },
        {
          "name": "A3",
          "midi": 57,
          "time": 145.41169199999933,
          "velocity": 0.7874015748031497,
          "duration": 0.35294099999998707
        },
        {
          "name": "D3",
          "midi": 50,
          "time": 145.41169199999933,
          "velocity": 0.7874015748031497,
          "duration": 0.35294099999998707
        },
        {
          "name": "E4",
          "midi": 64,
          "time": 145.76463299999932,
          "velocity": 0.7874015748031497,
          "duration": 0.35294099999998707
        },
        {
          "name": "B3",
          "midi": 59,
          "time": 145.76463299999932,
          "velocity": 0.7874015748031497,
          "duration": 0.35294099999998707
        },
        {
          "name": "E3",
          "midi": 52,
          "time": 145.76463299999932,
          "velocity": 0.7874015748031497,
          "duration": 0.35294099999998707
        },
        {
          "name": "E4",
          "midi": 64,
          "time": 146.1175739999993,
          "velocity": 0.7874015748031497,
          "duration": 0.7058820000000026
        },
        {
          "name": "B3",
          "midi": 59,
          "time": 146.1175739999993,
          "velocity": 0.7874015748031497,
          "duration": 0.7058820000000026
        },
        {
          "name": "E3",
          "midi": 52,
          "time": 146.1175739999993,
          "velocity": 0.7874015748031497,
          "duration": 0.7058820000000026
        },
        {
          "name": "E3",
          "midi": 52,
          "time": 146.8234559999993,
          "velocity": 0.7874015748031497,
          "duration": 2.8235280000000103
        },
        {
          "name": "B3",
          "midi": 59,
          "time": 146.8234559999993,
          "velocity": 0.7874015748031497,
          "duration": 2.8235280000000103
        },
        {
          "name": "E4",
          "midi": 64,
          "time": 146.8234559999993,
          "velocity": 0.7874015748031497,
          "duration": 2.8235280000000103
        },
        {
          "name": "D3",
          "midi": 50,
          "time": 149.64698399999932,
          "velocity": 0.7874015748031497,
          "duration": 2.8235280000000103
        },
        {
          "name": "D4",
          "midi": 62,
          "time": 149.64698399999932,
          "velocity": 0.7874015748031497,
          "duration": 2.8235280000000103
        },
        {
          "name": "A3",
          "midi": 57,
          "time": 149.64698399999932,
          "velocity": 0.7874015748031497,
          "duration": 2.8235280000000103
        },
        {
          "name": "F#3",
          "midi": 54,
          "time": 152.47051199999933,
          "velocity": 0.7874015748031497,
          "duration": 0.35294099999998707
        },
        {
          "name": "B3",
          "midi": 59,
          "time": 152.47051199999933,
          "velocity": 0.7874015748031497,
          "duration": 0.35294099999998707
        },
        {
          "name": "B2",
          "midi": 47,
          "time": 152.47051199999933,
          "velocity": 0.7874015748031497,
          "duration": 0.35294099999998707
        },
        {
          "name": "F#3",
          "midi": 54,
          "time": 152.82345299999932,
          "velocity": 0.7874015748031497,
          "duration": 0.35294099999998707
        },
        {
          "name": "B3",
          "midi": 59,
          "time": 152.82345299999932,
          "velocity": 0.7874015748031497,
          "duration": 0.35294099999998707
        },
        {
          "name": "B2",
          "midi": 47,
          "time": 152.82345299999932,
          "velocity": 0.7874015748031497,
          "duration": 0.35294099999998707
        },
        {
          "name": "A3",
          "midi": 57,
          "time": 153.1763939999993,
          "velocity": 0.7874015748031497,
          "duration": 0.17647049999999354
        },
        {
          "name": "D4",
          "midi": 62,
          "time": 153.1763939999993,
          "velocity": 0.7874015748031497,
          "duration": 0.17647049999999354
        },
        {
          "name": "D3",
          "midi": 50,
          "time": 153.1763939999993,
          "velocity": 0.7874015748031497,
          "duration": 0.17647049999999354
        },
        {
          "name": "A#3",
          "midi": 58,
          "time": 153.3528644999993,
          "velocity": 0.7874015748031497,
          "duration": 0.17647049999999354
        },
        {
          "name": "D#4",
          "midi": 63,
          "time": 153.3528644999993,
          "velocity": 0.7874015748031497,
          "duration": 0.17647049999999354
        },
        {
          "name": "D#3",
          "midi": 51,
          "time": 153.3528644999993,
          "velocity": 0.7874015748031497,
          "duration": 0.17647049999999354
        },
        {
          "name": "B3",
          "midi": 59,
          "time": 153.5293349999993,
          "velocity": 0.7874015748031497,
          "duration": 0.35294099999998707
        },
        {
          "name": "E4",
          "midi": 64,
          "time": 153.5293349999993,
          "velocity": 0.7874015748031497,
          "duration": 0.35294099999998707
        },
        {
          "name": "E3",
          "midi": 52,
          "time": 153.5293349999993,
          "velocity": 0.7874015748031497,
          "duration": 0.35294099999998707
        },
        {
          "name": "B3",
          "midi": 59,
          "time": 153.88227599999928,
          "velocity": 0.7874015748031497,
          "duration": 0.17647049999999354
        },
        {
          "name": "E4",
          "midi": 64,
          "time": 153.88227599999928,
          "velocity": 0.7874015748031497,
          "duration": 0.17647049999999354
        },
        {
          "name": "E3",
          "midi": 52,
          "time": 153.88227599999928,
          "velocity": 0.7874015748031497,
          "duration": 0.17647049999999354
        },
        {
          "name": "C4",
          "midi": 60,
          "time": 154.05874649999927,
          "velocity": 0.7874015748031497,
          "duration": 0.17647049999999354
        },
        {
          "name": "F4",
          "midi": 65,
          "time": 154.05874649999927,
          "velocity": 0.7874015748031497,
          "duration": 0.17647049999999354
        },
        {
          "name": "F3",
          "midi": 53,
          "time": 154.05874649999927,
          "velocity": 0.7874015748031497,
          "duration": 0.17647049999999354
        },
        {
          "name": "C#4",
          "midi": 61,
          "time": 154.23521699999927,
          "velocity": 0.7874015748031497,
          "duration": 0.35294099999998707
        },
        {
          "name": "F#4",
          "midi": 66,
          "time": 154.23521699999927,
          "velocity": 0.7874015748031497,
          "duration": 0.35294099999998707
        },
        {
          "name": "F#3",
          "midi": 54,
          "time": 154.23521699999927,
          "velocity": 0.7874015748031497,
          "duration": 0.35294099999998707
        },
        {
          "name": "E4",
          "midi": 64,
          "time": 154.58815799999925,
          "velocity": 0.7874015748031497,
          "duration": 0.17647049999999354
        },
        {
          "name": "A4",
          "midi": 69,
          "time": 154.58815799999925,
          "velocity": 0.7874015748031497,
          "duration": 0.17647049999999354
        },
        {
          "name": "A3",
          "midi": 57,
          "time": 154.58815799999925,
          "velocity": 0.7874015748031497,
          "duration": 0.17647049999999354
        },
        {
          "name": "F4",
          "midi": 65,
          "time": 154.76462849999925,
          "velocity": 0.7874015748031497,
          "duration": 0.17647049999999354
        },
        {
          "name": "A#4",
          "midi": 70,
          "time": 154.76462849999925,
          "velocity": 0.7874015748031497,
          "duration": 0.17647049999999354
        },
        {
          "name": "A#3",
          "midi": 58,
          "time": 154.76462849999925,
          "velocity": 0.7874015748031497,
          "duration": 0.17647049999999354
        },
        {
          "name": "F#4",
          "midi": 66,
          "time": 154.94109899999924,
          "velocity": 0.7874015748031497,
          "duration": 0.35294099999998707
        },
        {
          "name": "B4",
          "midi": 71,
          "time": 154.94109899999924,
          "velocity": 0.7874015748031497,
          "duration": 0.35294099999998707
        },
        {
          "name": "B3",
          "midi": 59,
          "time": 154.94109899999924,
          "velocity": 0.7874015748031497,
          "duration": 0.35294099999998707
        },
        {
          "name": "F#3",
          "midi": 54,
          "time": 155.29403999999923,
          "velocity": 0.7874015748031497,
          "duration": 0.35294099999998707
        },
        {
          "name": "B3",
          "midi": 59,
          "time": 155.29403999999923,
          "velocity": 0.7874015748031497,
          "duration": 0.35294099999998707
        },
        {
          "name": "B2",
          "midi": 47,
          "time": 155.29403999999923,
          "velocity": 0.7874015748031497,
          "duration": 0.35294099999998707
        },
        {
          "name": "F#3",
          "midi": 54,
          "time": 155.64698099999922,
          "velocity": 0.7874015748031497,
          "duration": 0.35294099999998707
        },
        {
          "name": "B3",
          "midi": 59,
          "time": 155.64698099999922,
          "velocity": 0.7874015748031497,
          "duration": 0.35294099999998707
        },
        {
          "name": "B2",
          "midi": 47,
          "time": 155.64698099999922,
          "velocity": 0.7874015748031497,
          "duration": 0.35294099999998707
        },
        {
          "name": "A3",
          "midi": 57,
          "time": 155.9999219999992,
          "velocity": 0.7874015748031497,
          "duration": 0.17647049999999354
        },
        {
          "name": "D4",
          "midi": 62,
          "time": 155.9999219999992,
          "velocity": 0.7874015748031497,
          "duration": 0.17647049999999354
        },
        {
          "name": "D3",
          "midi": 50,
          "time": 155.9999219999992,
          "velocity": 0.7874015748031497,
          "duration": 0.17647049999999354
        },
        {
          "name": "A#3",
          "midi": 58,
          "time": 156.1763924999992,
          "velocity": 0.7874015748031497,
          "duration": 0.17647049999999354
        },
        {
          "name": "D#4",
          "midi": 63,
          "time": 156.1763924999992,
          "velocity": 0.7874015748031497,
          "duration": 0.17647049999999354
        },
        {
          "name": "D#3",
          "midi": 51,
          "time": 156.1763924999992,
          "velocity": 0.7874015748031497,
          "duration": 0.17647049999999354
        },
        {
          "name": "B3",
          "midi": 59,
          "time": 156.3528629999992,
          "velocity": 0.7874015748031497,
          "duration": 0.35294099999998707
        },
        {
          "name": "E4",
          "midi": 64,
          "time": 156.3528629999992,
          "velocity": 0.7874015748031497,
          "duration": 0.35294099999998707
        },
        {
          "name": "E3",
          "midi": 52,
          "time": 156.3528629999992,
          "velocity": 0.7874015748031497,
          "duration": 0.35294099999998707
        },
        {
          "name": "B3",
          "midi": 59,
          "time": 156.70580399999918,
          "velocity": 0.7874015748031497,
          "duration": 0.17647049999999354
        },
        {
          "name": "E4",
          "midi": 64,
          "time": 156.70580399999918,
          "velocity": 0.7874015748031497,
          "duration": 0.17647049999999354
        },
        {
          "name": "E3",
          "midi": 52,
          "time": 156.70580399999918,
          "velocity": 0.7874015748031497,
          "duration": 0.17647049999999354
        },
        {
          "name": "C4",
          "midi": 60,
          "time": 156.88227449999917,
          "velocity": 0.7874015748031497,
          "duration": 0.17647049999999354
        },
        {
          "name": "F4",
          "midi": 65,
          "time": 156.88227449999917,
          "velocity": 0.7874015748031497,
          "duration": 0.17647049999999354
        },
        {
          "name": "F3",
          "midi": 53,
          "time": 156.88227449999917,
          "velocity": 0.7874015748031497,
          "duration": 0.17647049999999354
        },
        {
          "name": "C#4",
          "midi": 61,
          "time": 157.05874499999916,
          "velocity": 0.7874015748031497,
          "duration": 0.35294099999998707
        },
        {
          "name": "F#4",
          "midi": 66,
          "time": 157.05874499999916,
          "velocity": 0.7874015748031497,
          "duration": 0.35294099999998707
        },
        {
          "name": "F#3",
          "midi": 54,
          "time": 157.05874499999916,
          "velocity": 0.7874015748031497,
          "duration": 0.35294099999998707
        },
        {
          "name": "E4",
          "midi": 64,
          "time": 157.41168599999915,
          "velocity": 0.7874015748031497,
          "duration": 0.17647049999999354
        },
        {
          "name": "A4",
          "midi": 69,
          "time": 157.41168599999915,
          "velocity": 0.7874015748031497,
          "duration": 0.17647049999999354
        },
        {
          "name": "A3",
          "midi": 57,
          "time": 157.41168599999915,
          "velocity": 0.7874015748031497,
          "duration": 0.17647049999999354
        },
        {
          "name": "F4",
          "midi": 65,
          "time": 157.58815649999914,
          "velocity": 0.7874015748031497,
          "duration": 0.17647049999999354
        },
        {
          "name": "A#4",
          "midi": 70,
          "time": 157.58815649999914,
          "velocity": 0.7874015748031497,
          "duration": 0.17647049999999354
        },
        {
          "name": "A#3",
          "midi": 58,
          "time": 157.58815649999914,
          "velocity": 0.7874015748031497,
          "duration": 0.17647049999999354
        },
        {
          "name": "F#4",
          "midi": 66,
          "time": 157.76462699999914,
          "velocity": 0.7874015748031497,
          "duration": 0.35294099999998707
        },
        {
          "name": "B4",
          "midi": 71,
          "time": 157.76462699999914,
          "velocity": 0.7874015748031497,
          "duration": 0.35294099999998707
        },
        {
          "name": "B3",
          "midi": 59,
          "time": 157.76462699999914,
          "velocity": 0.7874015748031497,
          "duration": 0.35294099999998707
        },
        {
          "name": "E3",
          "midi": 52,
          "time": 158.11756799999912,
          "velocity": 0.7874015748031497,
          "duration": 2.8235280000000103
        },
        {
          "name": "B3",
          "midi": 59,
          "time": 158.11756799999912,
          "velocity": 0.7874015748031497,
          "duration": 2.8235280000000103
        },
        {
          "name": "E4",
          "midi": 64,
          "time": 158.11756799999912,
          "velocity": 0.7874015748031497,
          "duration": 2.8235280000000103
        },
        {
          "name": "D3",
          "midi": 50,
          "time": 160.94109599999913,
          "velocity": 0.7874015748031497,
          "duration": 2.8235280000000103
        },
        {
          "name": "D4",
          "midi": 62,
          "time": 160.94109599999913,
          "velocity": 0.7874015748031497,
          "duration": 2.8235280000000103
        },
        {
          "name": "A3",
          "midi": 57,
          "time": 160.94109599999913,
          "velocity": 0.7874015748031497,
          "duration": 2.8235280000000103
        },
        {
          "name": "F#3",
          "midi": 54,
          "time": 163.76462399999915,
          "velocity": 0.7874015748031497,
          "duration": 0.35294099999998707
        },
        {
          "name": "B3",
          "midi": 59,
          "time": 163.76462399999915,
          "velocity": 0.7874015748031497,
          "duration": 0.35294099999998707
        },
        {
          "name": "B2",
          "midi": 47,
          "time": 163.76462399999915,
          "velocity": 0.7874015748031497,
          "duration": 0.35294099999998707
        },
        {
          "name": "F#3",
          "midi": 54,
          "time": 164.11756499999913,
          "velocity": 0.7874015748031497,
          "duration": 0.35294099999998707
        },
        {
          "name": "B3",
          "midi": 59,
          "time": 164.11756499999913,
          "velocity": 0.7874015748031497,
          "duration": 0.35294099999998707
        },
        {
          "name": "B2",
          "midi": 47,
          "time": 164.11756499999913,
          "velocity": 0.7874015748031497,
          "duration": 0.35294099999998707
        },
        {
          "name": "A3",
          "midi": 57,
          "time": 164.47050599999912,
          "velocity": 0.7874015748031497,
          "duration": 0.17647049999999354
        },
        {
          "name": "D4",
          "midi": 62,
          "time": 164.47050599999912,
          "velocity": 0.7874015748031497,
          "duration": 0.17647049999999354
        },
        {
          "name": "D3",
          "midi": 50,
          "time": 164.47050599999912,
          "velocity": 0.7874015748031497,
          "duration": 0.17647049999999354
        },
        {
          "name": "A#3",
          "midi": 58,
          "time": 164.6469764999991,
          "velocity": 0.7874015748031497,
          "duration": 0.17647049999999354
        },
        {
          "name": "D#4",
          "midi": 63,
          "time": 164.6469764999991,
          "velocity": 0.7874015748031497,
          "duration": 0.17647049999999354
        },
        {
          "name": "D#3",
          "midi": 51,
          "time": 164.6469764999991,
          "velocity": 0.7874015748031497,
          "duration": 0.17647049999999354
        },
        {
          "name": "B3",
          "midi": 59,
          "time": 164.8234469999991,
          "velocity": 0.7874015748031497,
          "duration": 0.35294099999998707
        },
        {
          "name": "E4",
          "midi": 64,
          "time": 164.8234469999991,
          "velocity": 0.7874015748031497,
          "duration": 0.35294099999998707
        },
        {
          "name": "E3",
          "midi": 52,
          "time": 164.8234469999991,
          "velocity": 0.7874015748031497,
          "duration": 0.35294099999998707
        },
        {
          "name": "B3",
          "midi": 59,
          "time": 165.1763879999991,
          "velocity": 0.7874015748031497,
          "duration": 0.17647049999999354
        },
        {
          "name": "E4",
          "midi": 64,
          "time": 165.1763879999991,
          "velocity": 0.7874015748031497,
          "duration": 0.17647049999999354
        },
        {
          "name": "E3",
          "midi": 52,
          "time": 165.1763879999991,
          "velocity": 0.7874015748031497,
          "duration": 0.17647049999999354
        },
        {
          "name": "C4",
          "midi": 60,
          "time": 165.3528584999991,
          "velocity": 0.7874015748031497,
          "duration": 0.17647049999999354
        },
        {
          "name": "F4",
          "midi": 65,
          "time": 165.3528584999991,
          "velocity": 0.7874015748031497,
          "duration": 0.17647049999999354
        },
        {
          "name": "F3",
          "midi": 53,
          "time": 165.3528584999991,
          "velocity": 0.7874015748031497,
          "duration": 0.17647049999999354
        },
        {
          "name": "C#4",
          "midi": 61,
          "time": 165.52932899999908,
          "velocity": 0.7874015748031497,
          "duration": 0.35294099999998707
        },
        {
          "name": "F#4",
          "midi": 66,
          "time": 165.52932899999908,
          "velocity": 0.7874015748031497,
          "duration": 0.35294099999998707
        },
        {
          "name": "F#3",
          "midi": 54,
          "time": 165.52932899999908,
          "velocity": 0.7874015748031497,
          "duration": 0.35294099999998707
        },
        {
          "name": "E4",
          "midi": 64,
          "time": 165.88226999999907,
          "velocity": 0.7874015748031497,
          "duration": 0.17647049999999354
        },
        {
          "name": "A4",
          "midi": 69,
          "time": 165.88226999999907,
          "velocity": 0.7874015748031497,
          "duration": 0.17647049999999354
        },
        {
          "name": "A3",
          "midi": 57,
          "time": 165.88226999999907,
          "velocity": 0.7874015748031497,
          "duration": 0.17647049999999354
        },
        {
          "name": "F4",
          "midi": 65,
          "time": 166.05874049999906,
          "velocity": 0.7874015748031497,
          "duration": 0.17647049999999354
        },
        {
          "name": "A#4",
          "midi": 70,
          "time": 166.05874049999906,
          "velocity": 0.7874015748031497,
          "duration": 0.17647049999999354
        },
        {
          "name": "A#3",
          "midi": 58,
          "time": 166.05874049999906,
          "velocity": 0.7874015748031497,
          "duration": 0.17647049999999354
        },
        {
          "name": "F#4",
          "midi": 66,
          "time": 166.23521099999905,
          "velocity": 0.7874015748031497,
          "duration": 0.35294099999998707
        },
        {
          "name": "B4",
          "midi": 71,
          "time": 166.23521099999905,
          "velocity": 0.7874015748031497,
          "duration": 0.35294099999998707
        },
        {
          "name": "B3",
          "midi": 59,
          "time": 166.23521099999905,
          "velocity": 0.7874015748031497,
          "duration": 0.35294099999998707
        },
        {
          "name": "F#3",
          "midi": 54,
          "time": 166.58815199999904,
          "velocity": 0.7874015748031497,
          "duration": 0.35294099999998707
        },
        {
          "name": "B3",
          "midi": 59,
          "time": 166.58815199999904,
          "velocity": 0.7874015748031497,
          "duration": 0.35294099999998707
        },
        {
          "name": "B2",
          "midi": 47,
          "time": 166.58815199999904,
          "velocity": 0.7874015748031497,
          "duration": 0.35294099999998707
        },
        {
          "name": "F#3",
          "midi": 54,
          "time": 166.94109299999903,
          "velocity": 0.7874015748031497,
          "duration": 0.35294099999998707
        },
        {
          "name": "B3",
          "midi": 59,
          "time": 166.94109299999903,
          "velocity": 0.7874015748031497,
          "duration": 0.35294099999998707
        },
        {
          "name": "B2",
          "midi": 47,
          "time": 166.94109299999903,
          "velocity": 0.7874015748031497,
          "duration": 0.35294099999998707
        },
        {
          "name": "A3",
          "midi": 57,
          "time": 167.29403399999902,
          "velocity": 0.7874015748031497,
          "duration": 0.17647049999999354
        },
        {
          "name": "D4",
          "midi": 62,
          "time": 167.29403399999902,
          "velocity": 0.7874015748031497,
          "duration": 0.17647049999999354
        },
        {
          "name": "D3",
          "midi": 50,
          "time": 167.29403399999902,
          "velocity": 0.7874015748031497,
          "duration": 0.17647049999999354
        },
        {
          "name": "A#3",
          "midi": 58,
          "time": 167.470504499999,
          "velocity": 0.7874015748031497,
          "duration": 0.17647049999999354
        },
        {
          "name": "D#4",
          "midi": 63,
          "time": 167.470504499999,
          "velocity": 0.7874015748031497,
          "duration": 0.17647049999999354
        },
        {
          "name": "D#3",
          "midi": 51,
          "time": 167.470504499999,
          "velocity": 0.7874015748031497,
          "duration": 0.17647049999999354
        },
        {
          "name": "B3",
          "midi": 59,
          "time": 167.646974999999,
          "velocity": 0.7874015748031497,
          "duration": 0.35294099999998707
        },
        {
          "name": "E4",
          "midi": 64,
          "time": 167.646974999999,
          "velocity": 0.7874015748031497,
          "duration": 0.35294099999998707
        },
        {
          "name": "E3",
          "midi": 52,
          "time": 167.646974999999,
          "velocity": 0.7874015748031497,
          "duration": 0.35294099999998707
        },
        {
          "name": "B3",
          "midi": 59,
          "time": 167.999915999999,
          "velocity": 0.7874015748031497,
          "duration": 0.17647049999999354
        },
        {
          "name": "E4",
          "midi": 64,
          "time": 167.999915999999,
          "velocity": 0.7874015748031497,
          "duration": 0.17647049999999354
        },
        {
          "name": "E3",
          "midi": 52,
          "time": 167.999915999999,
          "velocity": 0.7874015748031497,
          "duration": 0.17647049999999354
        },
        {
          "name": "C4",
          "midi": 60,
          "time": 168.17638649999898,
          "velocity": 0.7874015748031497,
          "duration": 0.17647049999999354
        },
        {
          "name": "F4",
          "midi": 65,
          "time": 168.17638649999898,
          "velocity": 0.7874015748031497,
          "duration": 0.17647049999999354
        },
        {
          "name": "F3",
          "midi": 53,
          "time": 168.17638649999898,
          "velocity": 0.7874015748031497,
          "duration": 0.17647049999999354
        },
        {
          "name": "C#4",
          "midi": 61,
          "time": 168.35285699999898,
          "velocity": 0.7874015748031497,
          "duration": 0.35294099999998707
        },
        {
          "name": "F#4",
          "midi": 66,
          "time": 168.35285699999898,
          "velocity": 0.7874015748031497,
          "duration": 0.35294099999998707
        },
        {
          "name": "F#3",
          "midi": 54,
          "time": 168.35285699999898,
          "velocity": 0.7874015748031497,
          "duration": 0.35294099999998707
        },
        {
          "name": "E4",
          "midi": 64,
          "time": 168.70579799999896,
          "velocity": 0.7874015748031497,
          "duration": 0.17647049999999354
        },
        {
          "name": "A4",
          "midi": 69,
          "time": 168.70579799999896,
          "velocity": 0.7874015748031497,
          "duration": 0.17647049999999354
        },
        {
          "name": "A3",
          "midi": 57,
          "time": 168.70579799999896,
          "velocity": 0.7874015748031497,
          "duration": 0.17647049999999354
        },
        {
          "name": "F4",
          "midi": 65,
          "time": 168.88226849999896,
          "velocity": 0.7874015748031497,
          "duration": 0.17647049999999354
        },
        {
          "name": "A#4",
          "midi": 70,
          "time": 168.88226849999896,
          "velocity": 0.7874015748031497,
          "duration": 0.17647049999999354
        },
        {
          "name": "A#3",
          "midi": 58,
          "time": 168.88226849999896,
          "velocity": 0.7874015748031497,
          "duration": 0.17647049999999354
        },
        {
          "name": "F#4",
          "midi": 66,
          "time": 169.05873899999895,
          "velocity": 0.7874015748031497,
          "duration": 0.35294099999998707
        },
        {
          "name": "B4",
          "midi": 71,
          "time": 169.05873899999895,
          "velocity": 0.7874015748031497,
          "duration": 0.35294099999998707
        },
        {
          "name": "B3",
          "midi": 59,
          "time": 169.05873899999895,
          "velocity": 0.7874015748031497,
          "duration": 0.35294099999998707
        },
        {
          "name": "G#4",
          "midi": 68,
          "time": 169.41167999999894,
          "velocity": 0.7874015748031497,
          "duration": 0.17647049999999354
        },
        {
          "name": "C#4",
          "midi": 61,
          "time": 169.41167999999894,
          "velocity": 0.7874015748031497,
          "duration": 0.17647049999999354
        },
        {
          "name": "C#5",
          "midi": 73,
          "time": 169.41167999999894,
          "velocity": 0.7874015748031497,
          "duration": 0.17647049999999354
        },
        {
          "name": "F#4",
          "midi": 66,
          "time": 169.58815049999893,
          "velocity": 0.7874015748031497,
          "duration": 0.17647049999999354
        },
        {
          "name": "B3",
          "midi": 59,
          "time": 169.58815049999893,
          "velocity": 0.7874015748031497,
          "duration": 0.17647049999999354
        },
        {
          "name": "B4",
          "midi": 71,
          "time": 169.58815049999893,
          "velocity": 0.7874015748031497,
          "duration": 0.17647049999999354
        },
        {
          "name": "D#4",
          "midi": 63,
          "time": 169.94109149999892,
          "velocity": 0.7874015748031497,
          "duration": 0.17647049999999354
        },
        {
          "name": "G#3",
          "midi": 56,
          "time": 169.94109149999892,
          "velocity": 0.7874015748031497,
          "duration": 0.17647049999999354
        },
        {
          "name": "G#4",
          "midi": 68,
          "time": 169.94109149999892,
          "velocity": 0.7874015748031497,
          "duration": 0.17647049999999354
        },
        {
          "name": "C#4",
          "midi": 61,
          "time": 170.2940324999989,
          "velocity": 0.7874015748031497,
          "duration": 0.17647049999999354
        },
        {
          "name": "F#3",
          "midi": 54,
          "time": 170.2940324999989,
          "velocity": 0.7874015748031497,
          "duration": 0.17647049999999354
        },
        {
          "name": "F#4",
          "midi": 66,
          "time": 170.2940324999989,
          "velocity": 0.7874015748031497,
          "duration": 0.17647049999999354
        },
        {
          "name": "B3",
          "midi": 59,
          "time": 170.6469734999989,
          "velocity": 0.7874015748031497,
          "duration": 0.17647049999999354
        },
        {
          "name": "E3",
          "midi": 52,
          "time": 170.6469734999989,
          "velocity": 0.7874015748031497,
          "duration": 0.17647049999999354
        },
        {
          "name": "E4",
          "midi": 64,
          "time": 170.6469734999989,
          "velocity": 0.7874015748031497,
          "duration": 0.17647049999999354
        },
        {
          "name": "G#3",
          "midi": 56,
          "time": 170.99403214999887,
          "velocity": 0.7874015748031497,
          "duration": 0.17647049999999354
        },
        {
          "name": "C#3",
          "midi": 49,
          "time": 170.99403214999887,
          "velocity": 0.7874015748031497,
          "duration": 0.17647049999999354
        },
        {
          "name": "C#4",
          "midi": 61,
          "time": 170.99403214999887,
          "velocity": 0.7874015748031497,
          "duration": 0.17647049999999354
        },
        {
          "name": "F#3",
          "midi": 54,
          "time": 171.35285549999887,
          "velocity": 0.7874015748031497,
          "duration": 0.17647049999999354
        },
        {
          "name": "B2",
          "midi": 47,
          "time": 171.35285549999887,
          "velocity": 0.7874015748031497,
          "duration": 0.17647049999999354
        },
        {
          "name": "B3",
          "midi": 59,
          "time": 171.35285549999887,
          "velocity": 0.7874015748031497,
          "duration": 0.17647049999999354
        },
        {
          "name": "F#3",
          "midi": 54,
          "time": 171.52932599999886,
          "velocity": 0.7874015748031497,
          "duration": 0.17647049999999354
        },
        {
          "name": "B2",
          "midi": 47,
          "time": 171.52932599999886,
          "velocity": 0.7874015748031497,
          "duration": 0.17647049999999354
        },
        {
          "name": "B3",
          "midi": 59,
          "time": 171.52932599999886,
          "velocity": 0.7874015748031497,
          "duration": 0.17647049999999354
        },
        {
          "name": "G#3",
          "midi": 56,
          "time": 171.70579649999885,
          "velocity": 0.7874015748031497,
          "duration": 0.17647049999999354
        },
        {
          "name": "C#3",
          "midi": 49,
          "time": 171.70579649999885,
          "velocity": 0.7874015748031497,
          "duration": 0.17647049999999354
        },
        {
          "name": "C#4",
          "midi": 61,
          "time": 171.70579649999885,
          "velocity": 0.7874015748031497,
          "duration": 0.17647049999999354
        },
        {
          "name": "G#3",
          "midi": 56,
          "time": 171.88226699999885,
          "velocity": 0.7874015748031497,
          "duration": 0.17647049999999354
        },
        {
          "name": "C#3",
          "midi": 49,
          "time": 171.88226699999885,
          "velocity": 0.7874015748031497,
          "duration": 0.17647049999999354
        },
        {
          "name": "C#4",
          "midi": 61,
          "time": 171.88226699999885,
          "velocity": 0.7874015748031497,
          "duration": 0.17647049999999354
        },
        {
          "name": "G#4",
          "midi": 68,
          "time": 172.23520799999883,
          "velocity": 0.7874015748031497,
          "duration": 0.17647049999999354
        },
        {
          "name": "C#4",
          "midi": 61,
          "time": 172.23520799999883,
          "velocity": 0.7874015748031497,
          "duration": 0.17647049999999354
        },
        {
          "name": "C#5",
          "midi": 73,
          "time": 172.23520799999883,
          "velocity": 0.7874015748031497,
          "duration": 0.17647049999999354
        },
        {
          "name": "F#4",
          "midi": 66,
          "time": 172.41167849999883,
          "velocity": 0.7874015748031497,
          "duration": 0.17647049999999354
        },
        {
          "name": "B3",
          "midi": 59,
          "time": 172.41167849999883,
          "velocity": 0.7874015748031497,
          "duration": 0.17647049999999354
        },
        {
          "name": "B4",
          "midi": 71,
          "time": 172.41167849999883,
          "velocity": 0.7874015748031497,
          "duration": 0.17647049999999354
        },
        {
          "name": "D#4",
          "midi": 63,
          "time": 172.76461949999882,
          "velocity": 0.7874015748031497,
          "duration": 0.17647049999999354
        },
        {
          "name": "G#3",
          "midi": 56,
          "time": 172.76461949999882,
          "velocity": 0.7874015748031497,
          "duration": 0.17647049999999354
        },
        {
          "name": "G#4",
          "midi": 68,
          "time": 172.76461949999882,
          "velocity": 0.7874015748031497,
          "duration": 0.17647049999999354
        },
        {
          "name": "C#4",
          "midi": 61,
          "time": 173.1175604999988,
          "velocity": 0.7874015748031497,
          "duration": 0.17647049999999354
        },
        {
          "name": "F#3",
          "midi": 54,
          "time": 173.1175604999988,
          "velocity": 0.7874015748031497,
          "duration": 0.17647049999999354
        },
        {
          "name": "F#4",
          "midi": 66,
          "time": 173.1175604999988,
          "velocity": 0.7874015748031497,
          "duration": 0.17647049999999354
        },
        {
          "name": "B3",
          "midi": 59,
          "time": 173.4705014999988,
          "velocity": 0.7874015748031497,
          "duration": 0.17647049999999354
        },
        {
          "name": "E3",
          "midi": 52,
          "time": 173.4705014999988,
          "velocity": 0.7874015748031497,
          "duration": 0.17647049999999354
        },
        {
          "name": "E4",
          "midi": 64,
          "time": 173.4705014999988,
          "velocity": 0.7874015748031497,
          "duration": 0.17647049999999354
        },
        {
          "name": "G#3",
          "midi": 56,
          "time": 173.81756014999877,
          "velocity": 0.7874015748031497,
          "duration": 0.17647049999999354
        },
        {
          "name": "C#3",
          "midi": 49,
          "time": 173.81756014999877,
          "velocity": 0.7874015748031497,
          "duration": 0.17647049999999354
        },
        {
          "name": "C#4",
          "midi": 61,
          "time": 173.81756014999877,
          "velocity": 0.7874015748031497,
          "duration": 0.17647049999999354
        },
        {
          "name": "F#3",
          "midi": 54,
          "time": 174.17638349999876,
          "velocity": 0.7874015748031497,
          "duration": 0.17647049999999354
        },
        {
          "name": "B2",
          "midi": 47,
          "time": 174.17638349999876,
          "velocity": 0.7874015748031497,
          "duration": 0.17647049999999354
        },
        {
          "name": "B3",
          "midi": 59,
          "time": 174.17638349999876,
          "velocity": 0.7874015748031497,
          "duration": 0.17647049999999354
        },
        {
          "name": "F#3",
          "midi": 54,
          "time": 174.35285399999876,
          "velocity": 0.7874015748031497,
          "duration": 0.17647049999999354
        },
        {
          "name": "B2",
          "midi": 47,
          "time": 174.35285399999876,
          "velocity": 0.7874015748031497,
          "duration": 0.17647049999999354
        },
        {
          "name": "B3",
          "midi": 59,
          "time": 174.35285399999876,
          "velocity": 0.7874015748031497,
          "duration": 0.17647049999999354
        },
        {
          "name": "G#3",
          "midi": 56,
          "time": 174.52932449999875,
          "velocity": 0.7874015748031497,
          "duration": 0.17647049999999354
        },
        {
          "name": "C#3",
          "midi": 49,
          "time": 174.52932449999875,
          "velocity": 0.7874015748031497,
          "duration": 0.17647049999999354
        },
        {
          "name": "C#4",
          "midi": 61,
          "time": 174.52932449999875,
          "velocity": 0.7874015748031497,
          "duration": 0.17647049999999354
        },
        {
          "name": "G#3",
          "midi": 56,
          "time": 174.70579499999874,
          "velocity": 0.7874015748031497,
          "duration": 0.17647049999999354
        },
        {
          "name": "C#3",
          "midi": 49,
          "time": 174.70579499999874,
          "velocity": 0.7874015748031497,
          "duration": 0.17647049999999354
        },
        {
          "name": "C#4",
          "midi": 61,
          "time": 174.70579499999874,
          "velocity": 0.7874015748031497,
          "duration": 0.17647049999999354
        },
        {
          "name": "B3",
          "midi": 59,
          "time": 175.05873599999873,
          "velocity": 0.7874015748031497,
          "duration": 0.17647049999999354
        },
        {
          "name": "F#3",
          "midi": 54,
          "time": 175.05873599999873,
          "velocity": 0.7874015748031497,
          "duration": 0.17647049999999354
        },
        {
          "name": "B2",
          "midi": 47,
          "time": 175.05873599999873,
          "velocity": 0.7874015748031497,
          "duration": 0.17647049999999354
        },
        {
          "name": "C#4",
          "midi": 61,
          "time": 175.23520649999872,
          "velocity": 0.7874015748031497,
          "duration": 0.17647049999999354
        },
        {
          "name": "G#3",
          "midi": 56,
          "time": 175.23520649999872,
          "velocity": 0.7874015748031497,
          "duration": 0.17647049999999354
        },
        {
          "name": "C#3",
          "midi": 49,
          "time": 175.23520649999872,
          "velocity": 0.7874015748031497,
          "duration": 0.17647049999999354
        },
        {
          "name": "C#4",
          "midi": 61,
          "time": 175.41167699999872,
          "velocity": 0.7874015748031497,
          "duration": 0.17647049999999354
        },
        {
          "name": "G#3",
          "midi": 56,
          "time": 175.41167699999872,
          "velocity": 0.7874015748031497,
          "duration": 0.17647049999999354
        },
        {
          "name": "C#3",
          "midi": 49,
          "time": 175.41167699999872,
          "velocity": 0.7874015748031497,
          "duration": 0.17647049999999354
        },
        {
          "name": "G#2",
          "midi": 44,
          "time": 175.5881474999987,
          "velocity": 0.7874015748031497,
          "duration": 0.08823524999999677
        },
        {
          "name": "C#2",
          "midi": 37,
          "time": 175.5881474999987,
          "velocity": 0.7874015748031497,
          "duration": 0.08823524999999677
        },
        {
          "name": "C#2",
          "midi": 37,
          "time": 175.7646179999987,
          "velocity": 0.7874015748031497,
          "duration": 0.08823524999999677
        },
        {
          "name": "G#2",
          "midi": 44,
          "time": 175.7646179999987,
          "velocity": 0.7874015748031497,
          "duration": 0.08823524999999677
        },
        {
          "name": "C#2",
          "midi": 37,
          "time": 175.9410884999987,
          "velocity": 0.7874015748031497,
          "duration": 0.08823524999999677
        },
        {
          "name": "G#2",
          "midi": 44,
          "time": 175.9410884999987,
          "velocity": 0.7874015748031497,
          "duration": 0.08823524999999677
        },
        {
          "name": "C#2",
          "midi": 37,
          "time": 176.1175589999987,
          "velocity": 0.7874015748031497,
          "duration": 0.08823524999999677
        },
        {
          "name": "G#2",
          "midi": 44,
          "time": 176.1175589999987,
          "velocity": 0.7874015748031497,
          "duration": 0.08823524999999677
        },
        {
          "name": "C#2",
          "midi": 37,
          "time": 176.2940294999987,
          "velocity": 0.7874015748031497,
          "duration": 0.08823524999999677
        },
        {
          "name": "G#2",
          "midi": 44,
          "time": 176.2940294999987,
          "velocity": 0.7874015748031497,
          "duration": 0.08823524999999677
        },
        {
          "name": "B3",
          "midi": 59,
          "time": 176.47049999999868,
          "velocity": 0.7874015748031497,
          "duration": 0.17647049999999354
        },
        {
          "name": "F#3",
          "midi": 54,
          "time": 176.47049999999868,
          "velocity": 0.7874015748031497,
          "duration": 0.17647049999999354
        },
        {
          "name": "B2",
          "midi": 47,
          "time": 176.47049999999868,
          "velocity": 0.7874015748031497,
          "duration": 0.17647049999999354
        },
        {
          "name": "C#4",
          "midi": 61,
          "time": 176.64697049999867,
          "velocity": 0.7874015748031497,
          "duration": 0.35294099999998707
        },
        {
          "name": "G#3",
          "midi": 56,
          "time": 176.64697049999867,
          "velocity": 0.7874015748031497,
          "duration": 0.35294099999998707
        },
        {
          "name": "C#3",
          "midi": 49,
          "time": 176.64697049999867,
          "velocity": 0.7874015748031497,
          "duration": 0.35294099999998707
        },
        {
          "name": "D4",
          "midi": 62,
          "time": 176.99991149999866,
          "velocity": 0.7874015748031497,
          "duration": 0.35294099999998707
        },
        {
          "name": "A3",
          "midi": 57,
          "time": 176.99991149999866,
          "velocity": 0.7874015748031497,
          "duration": 0.35294099999998707
        },
        {
          "name": "D3",
          "midi": 50,
          "time": 176.99991149999866,
          "velocity": 0.7874015748031497,
          "duration": 0.35294099999998707
        },
        {
          "name": "C#4",
          "midi": 61,
          "time": 177.35285249999865,
          "velocity": 0.7874015748031497,
          "duration": 0.35294099999998707
        },
        {
          "name": "G#3",
          "midi": 56,
          "time": 177.35285249999865,
          "velocity": 0.7874015748031497,
          "duration": 0.35294099999998707
        },
        {
          "name": "C#3",
          "midi": 49,
          "time": 177.35285249999865,
          "velocity": 0.7874015748031497,
          "duration": 0.35294099999998707
        },
        {
          "name": "B3",
          "midi": 59,
          "time": 177.70579349999863,
          "velocity": 0.7874015748031497,
          "duration": 0.17647049999999354
        },
        {
          "name": "F#3",
          "midi": 54,
          "time": 177.70579349999863,
          "velocity": 0.7874015748031497,
          "duration": 0.17647049999999354
        },
        {
          "name": "B2",
          "midi": 47,
          "time": 177.70579349999863,
          "velocity": 0.7874015748031497,
          "duration": 0.17647049999999354
        },
        {
          "name": "B3",
          "midi": 59,
          "time": 177.88226399999863,
          "velocity": 0.7874015748031497,
          "duration": 0.17647049999999354
        },
        {
          "name": "F#3",
          "midi": 54,
          "time": 177.88226399999863,
          "velocity": 0.7874015748031497,
          "duration": 0.17647049999999354
        },
        {
          "name": "B2",
          "midi": 47,
          "time": 177.88226399999863,
          "velocity": 0.7874015748031497,
          "duration": 0.17647049999999354
        },
        {
          "name": "C#4",
          "midi": 61,
          "time": 178.05873449999862,
          "velocity": 0.7874015748031497,
          "duration": 0.17647049999999354
        },
        {
          "name": "G#3",
          "midi": 56,
          "time": 178.05873449999862,
          "velocity": 0.7874015748031497,
          "duration": 0.17647049999999354
        },
        {
          "name": "C#3",
          "midi": 49,
          "time": 178.05873449999862,
          "velocity": 0.7874015748031497,
          "duration": 0.17647049999999354
        },
        {
          "name": "C#4",
          "midi": 61,
          "time": 178.23520499999861,
          "velocity": 0.7874015748031497,
          "duration": 0.17647049999999354
        },
        {
          "name": "G#3",
          "midi": 56,
          "time": 178.23520499999861,
          "velocity": 0.7874015748031497,
          "duration": 0.17647049999999354
        },
        {
          "name": "C#3",
          "midi": 49,
          "time": 178.23520499999861,
          "velocity": 0.7874015748031497,
          "duration": 0.17647049999999354
        },
        {
          "name": "C#2",
          "midi": 37,
          "time": 178.4116754999986,
          "velocity": 0.7874015748031497,
          "duration": 0.08823524999999677
        },
        {
          "name": "G#2",
          "midi": 44,
          "time": 178.4116754999986,
          "velocity": 0.7874015748031497,
          "duration": 0.08823524999999677
        },
        {
          "name": "C#2",
          "midi": 37,
          "time": 178.5881459999986,
          "velocity": 0.7874015748031497,
          "duration": 0.08823524999999677
        },
        {
          "name": "G#2",
          "midi": 44,
          "time": 178.5881459999986,
          "velocity": 0.7874015748031497,
          "duration": 0.08823524999999677
        },
        {
          "name": "C#2",
          "midi": 37,
          "time": 178.7646164999986,
          "velocity": 0.7874015748031497,
          "duration": 0.08823524999999677
        },
        {
          "name": "G#2",
          "midi": 44,
          "time": 178.7646164999986,
          "velocity": 0.7874015748031497,
          "duration": 0.08823524999999677
        },
        {
          "name": "C#2",
          "midi": 37,
          "time": 178.9410869999986,
          "velocity": 0.7874015748031497,
          "duration": 0.08823524999999677
        },
        {
          "name": "G#2",
          "midi": 44,
          "time": 178.9410869999986,
          "velocity": 0.7874015748031497,
          "duration": 0.08823524999999677
        },
        {
          "name": "C#2",
          "midi": 37,
          "time": 179.11755749999858,
          "velocity": 0.7874015748031497,
          "duration": 0.08823524999999677
        },
        {
          "name": "G#2",
          "midi": 44,
          "time": 179.11755749999858,
          "velocity": 0.7874015748031497,
          "duration": 0.08823524999999677
        },
        {
          "name": "B3",
          "midi": 59,
          "time": 179.29402799999858,
          "velocity": 0.7874015748031497,
          "duration": 0.17647049999999354
        },
        {
          "name": "F#3",
          "midi": 54,
          "time": 179.29402799999858,
          "velocity": 0.7874015748031497,
          "duration": 0.17647049999999354
        },
        {
          "name": "B2",
          "midi": 47,
          "time": 179.29402799999858,
          "velocity": 0.7874015748031497,
          "duration": 0.17647049999999354
        },
        {
          "name": "C#4",
          "midi": 61,
          "time": 179.47049849999857,
          "velocity": 0.7874015748031497,
          "duration": 0.35294099999998707
        },
        {
          "name": "G#3",
          "midi": 56,
          "time": 179.47049849999857,
          "velocity": 0.7874015748031497,
          "duration": 0.35294099999998707
        },
        {
          "name": "C#3",
          "midi": 49,
          "time": 179.47049849999857,
          "velocity": 0.7874015748031497,
          "duration": 0.35294099999998707
        },
        {
          "name": "D4",
          "midi": 62,
          "time": 179.82343949999856,
          "velocity": 0.7874015748031497,
          "duration": 0.35294099999998707
        },
        {
          "name": "A3",
          "midi": 57,
          "time": 179.82343949999856,
          "velocity": 0.7874015748031497,
          "duration": 0.35294099999998707
        },
        {
          "name": "D3",
          "midi": 50,
          "time": 179.82343949999856,
          "velocity": 0.7874015748031497,
          "duration": 0.35294099999998707
        },
        {
          "name": "C#4",
          "midi": 61,
          "time": 180.17638049999854,
          "velocity": 0.7874015748031497,
          "duration": 0.35294099999998707
        },
        {
          "name": "G#3",
          "midi": 56,
          "time": 180.17638049999854,
          "velocity": 0.7874015748031497,
          "duration": 0.35294099999998707
        },
        {
          "name": "C#3",
          "midi": 49,
          "time": 180.17638049999854,
          "velocity": 0.7874015748031497,
          "duration": 0.35294099999998707
        },
        {
          "name": "B3",
          "midi": 59,
          "time": 180.52932149999853,
          "velocity": 0.7874015748031497,
          "duration": 0.17647049999999354
        },
        {
          "name": "F#3",
          "midi": 54,
          "time": 180.52932149999853,
          "velocity": 0.7874015748031497,
          "duration": 0.17647049999999354
        },
        {
          "name": "B2",
          "midi": 47,
          "time": 180.52932149999853,
          "velocity": 0.7874015748031497,
          "duration": 0.17647049999999354
        },
        {
          "name": "B3",
          "midi": 59,
          "time": 180.70579199999852,
          "velocity": 0.7874015748031497,
          "duration": 0.17647049999999354
        },
        {
          "name": "F#3",
          "midi": 54,
          "time": 180.70579199999852,
          "velocity": 0.7874015748031497,
          "duration": 0.17647049999999354
        },
        {
          "name": "B2",
          "midi": 47,
          "time": 180.70579199999852,
          "velocity": 0.7874015748031497,
          "duration": 0.17647049999999354
        },
        {
          "name": "C#4",
          "midi": 61,
          "time": 180.88226249999852,
          "velocity": 0.7874015748031497,
          "duration": 0.17647049999999354
        },
        {
          "name": "G#3",
          "midi": 56,
          "time": 180.88226249999852,
          "velocity": 0.7874015748031497,
          "duration": 0.17647049999999354
        },
        {
          "name": "C#3",
          "midi": 49,
          "time": 180.88226249999852,
          "velocity": 0.7874015748031497,
          "duration": 0.17647049999999354
        },
        {
          "name": "C#4",
          "midi": 61,
          "time": 181.0587329999985,
          "velocity": 0.7874015748031497,
          "duration": 0.17647049999999354
        },
        {
          "name": "G#3",
          "midi": 56,
          "time": 181.0587329999985,
          "velocity": 0.7874015748031497,
          "duration": 0.17647049999999354
        },
        {
          "name": "C#3",
          "midi": 49,
          "time": 181.0587329999985,
          "velocity": 0.7874015748031497,
          "duration": 0.17647049999999354
        },
        {
          "name": "C#2",
          "midi": 37,
          "time": 181.2352034999985,
          "velocity": 0.7874015748031497,
          "duration": 0.08823524999999677
        },
        {
          "name": "G#2",
          "midi": 44,
          "time": 181.2352034999985,
          "velocity": 0.7874015748031497,
          "duration": 0.08823524999999677
        },
        {
          "name": "C#2",
          "midi": 37,
          "time": 181.4116739999985,
          "velocity": 0.7874015748031497,
          "duration": 0.08823524999999677
        },
        {
          "name": "G#2",
          "midi": 44,
          "time": 181.4116739999985,
          "velocity": 0.7874015748031497,
          "duration": 0.08823524999999677
        },
        {
          "name": "C#2",
          "midi": 37,
          "time": 181.5881444999985,
          "velocity": 0.7874015748031497,
          "duration": 0.08823524999999677
        },
        {
          "name": "G#2",
          "midi": 44,
          "time": 181.5881444999985,
          "velocity": 0.7874015748031497,
          "duration": 0.08823524999999677
        },
        {
          "name": "C#2",
          "midi": 37,
          "time": 181.76461499999849,
          "velocity": 0.7874015748031497,
          "duration": 0.08823524999999677
        },
        {
          "name": "G#2",
          "midi": 44,
          "time": 181.76461499999849,
          "velocity": 0.7874015748031497,
          "duration": 0.08823524999999677
        },
        {
          "name": "C#2",
          "midi": 37,
          "time": 181.94108549999848,
          "velocity": 0.7874015748031497,
          "duration": 0.08823524999999677
        },
        {
          "name": "G#2",
          "midi": 44,
          "time": 181.94108549999848,
          "velocity": 0.7874015748031497,
          "duration": 0.08823524999999677
        },
        {
          "name": "B3",
          "midi": 59,
          "time": 182.11755599999847,
          "velocity": 0.7874015748031497,
          "duration": 0.17647049999999354
        },
        {
          "name": "F#3",
          "midi": 54,
          "time": 182.11755599999847,
          "velocity": 0.7874015748031497,
          "duration": 0.17647049999999354
        },
        {
          "name": "B2",
          "midi": 47,
          "time": 182.11755599999847,
          "velocity": 0.7874015748031497,
          "duration": 0.17647049999999354
        },
        {
          "name": "C#4",
          "midi": 61,
          "time": 182.29402649999847,
          "velocity": 0.7874015748031497,
          "duration": 0.35294099999998707
        },
        {
          "name": "G#3",
          "midi": 56,
          "time": 182.29402649999847,
          "velocity": 0.7874015748031497,
          "duration": 0.35294099999998707
        },
        {
          "name": "C#3",
          "midi": 49,
          "time": 182.29402649999847,
          "velocity": 0.7874015748031497,
          "duration": 0.35294099999998707
        },
        {
          "name": "D4",
          "midi": 62,
          "time": 182.64696749999845,
          "velocity": 0.7874015748031497,
          "duration": 0.35294099999998707
        },
        {
          "name": "A3",
          "midi": 57,
          "time": 182.64696749999845,
          "velocity": 0.7874015748031497,
          "duration": 0.35294099999998707
        },
        {
          "name": "D3",
          "midi": 50,
          "time": 182.64696749999845,
          "velocity": 0.7874015748031497,
          "duration": 0.35294099999998707
        },
        {
          "name": "C#4",
          "midi": 61,
          "time": 182.99990849999844,
          "velocity": 0.7874015748031497,
          "duration": 0.35294099999998707
        },
        {
          "name": "G#3",
          "midi": 56,
          "time": 182.99990849999844,
          "velocity": 0.7874015748031497,
          "duration": 0.35294099999998707
        },
        {
          "name": "C#3",
          "midi": 49,
          "time": 182.99990849999844,
          "velocity": 0.7874015748031497,
          "duration": 0.35294099999998707
        },
        {
          "name": "B3",
          "midi": 59,
          "time": 183.35284949999843,
          "velocity": 0.7874015748031497,
          "duration": 0.17647049999999354
        },
        {
          "name": "F#3",
          "midi": 54,
          "time": 183.35284949999843,
          "velocity": 0.7874015748031497,
          "duration": 0.17647049999999354
        },
        {
          "name": "B2",
          "midi": 47,
          "time": 183.35284949999843,
          "velocity": 0.7874015748031497,
          "duration": 0.17647049999999354
        },
        {
          "name": "B3",
          "midi": 59,
          "time": 183.52931999999842,
          "velocity": 0.7874015748031497,
          "duration": 0.17647049999999354
        },
        {
          "name": "F#3",
          "midi": 54,
          "time": 183.52931999999842,
          "velocity": 0.7874015748031497,
          "duration": 0.17647049999999354
        },
        {
          "name": "B2",
          "midi": 47,
          "time": 183.52931999999842,
          "velocity": 0.7874015748031497,
          "duration": 0.17647049999999354
        },
        {
          "name": "C#4",
          "midi": 61,
          "time": 183.70579049999841,
          "velocity": 0.7874015748031497,
          "duration": 0.17647049999999354
        },
        {
          "name": "G#3",
          "midi": 56,
          "time": 183.70579049999841,
          "velocity": 0.7874015748031497,
          "duration": 0.17647049999999354
        },
        {
          "name": "C#3",
          "midi": 49,
          "time": 183.70579049999841,
          "velocity": 0.7874015748031497,
          "duration": 0.17647049999999354
        },
        {
          "name": "C#4",
          "midi": 61,
          "time": 183.8822609999984,
          "velocity": 0.7874015748031497,
          "duration": 0.17647049999999354
        },
        {
          "name": "G#3",
          "midi": 56,
          "time": 183.8822609999984,
          "velocity": 0.7874015748031497,
          "duration": 0.17647049999999354
        },
        {
          "name": "C#3",
          "midi": 49,
          "time": 183.8822609999984,
          "velocity": 0.7874015748031497,
          "duration": 0.17647049999999354
        },
        {
          "name": "C#2",
          "midi": 37,
          "time": 184.0587314999984,
          "velocity": 0.7874015748031497,
          "duration": 0.08823524999999677
        },
        {
          "name": "G#2",
          "midi": 44,
          "time": 184.0587314999984,
          "velocity": 0.7874015748031497,
          "duration": 0.08823524999999677
        },
        {
          "name": "C#2",
          "midi": 37,
          "time": 184.2352019999984,
          "velocity": 0.7874015748031497,
          "duration": 0.08823524999999677
        },
        {
          "name": "G#2",
          "midi": 44,
          "time": 184.2352019999984,
          "velocity": 0.7874015748031497,
          "duration": 0.08823524999999677
        },
        {
          "name": "C#2",
          "midi": 37,
          "time": 184.4116724999984,
          "velocity": 0.7874015748031497,
          "duration": 0.08823524999999677
        },
        {
          "name": "G#2",
          "midi": 44,
          "time": 184.4116724999984,
          "velocity": 0.7874015748031497,
          "duration": 0.08823524999999677
        },
        {
          "name": "C#2",
          "midi": 37,
          "time": 184.58814299999838,
          "velocity": 0.7874015748031497,
          "duration": 0.08823524999999677
        },
        {
          "name": "G#2",
          "midi": 44,
          "time": 184.58814299999838,
          "velocity": 0.7874015748031497,
          "duration": 0.08823524999999677
        },
        {
          "name": "C#2",
          "midi": 37,
          "time": 184.76461349999838,
          "velocity": 0.7874015748031497,
          "duration": 0.08823524999999677
        },
        {
          "name": "G#2",
          "midi": 44,
          "time": 184.76461349999838,
          "velocity": 0.7874015748031497,
          "duration": 0.08823524999999677
        },
        {
          "name": "B3",
          "midi": 59,
          "time": 184.94108399999837,
          "velocity": 0.7874015748031497,
          "duration": 0.17647049999999354
        },
        {
          "name": "F#3",
          "midi": 54,
          "time": 184.94108399999837,
          "velocity": 0.7874015748031497,
          "duration": 0.17647049999999354
        },
        {
          "name": "B2",
          "midi": 47,
          "time": 184.94108399999837,
          "velocity": 0.7874015748031497,
          "duration": 0.17647049999999354
        },
        {
          "name": "C#4",
          "midi": 61,
          "time": 185.11755449999836,
          "velocity": 0.7874015748031497,
          "duration": 0.35294099999998707
        },
        {
          "name": "G#3",
          "midi": 56,
          "time": 185.11755449999836,
          "velocity": 0.7874015748031497,
          "duration": 0.35294099999998707
        },
        {
          "name": "C#3",
          "midi": 49,
          "time": 185.11755449999836,
          "velocity": 0.7874015748031497,
          "duration": 0.35294099999998707
        },
        {
          "name": "D4",
          "midi": 62,
          "time": 185.47049549999835,
          "velocity": 0.7874015748031497,
          "duration": 0.35294099999998707
        },
        {
          "name": "A3",
          "midi": 57,
          "time": 185.47049549999835,
          "velocity": 0.7874015748031497,
          "duration": 0.35294099999998707
        },
        {
          "name": "D3",
          "midi": 50,
          "time": 185.47049549999835,
          "velocity": 0.7874015748031497,
          "duration": 0.35294099999998707
        },
        {
          "name": "C#4",
          "midi": 61,
          "time": 185.82343649999834,
          "velocity": 0.7874015748031497,
          "duration": 0.35294099999998707
        },
        {
          "name": "G#3",
          "midi": 56,
          "time": 185.82343649999834,
          "velocity": 0.7874015748031497,
          "duration": 0.35294099999998707
        },
        {
          "name": "C#3",
          "midi": 49,
          "time": 185.82343649999834,
          "velocity": 0.7874015748031497,
          "duration": 0.35294099999998707
        },
        {
          "name": "B3",
          "midi": 59,
          "time": 186.17637749999832,
          "velocity": 0.7874015748031497,
          "duration": 0.17647049999999354
        },
        {
          "name": "F#3",
          "midi": 54,
          "time": 186.17637749999832,
          "velocity": 0.7874015748031497,
          "duration": 0.17647049999999354
        },
        {
          "name": "B2",
          "midi": 47,
          "time": 186.17637749999832,
          "velocity": 0.7874015748031497,
          "duration": 0.17647049999999354
        },
        {
          "name": "B3",
          "midi": 59,
          "time": 186.35284799999832,
          "velocity": 0.7874015748031497,
          "duration": 0.17647049999999354
        },
        {
          "name": "F#3",
          "midi": 54,
          "time": 186.35284799999832,
          "velocity": 0.7874015748031497,
          "duration": 0.17647049999999354
        },
        {
          "name": "B2",
          "midi": 47,
          "time": 186.35284799999832,
          "velocity": 0.7874015748031497,
          "duration": 0.17647049999999354
        },
        {
          "name": "C#4",
          "midi": 61,
          "time": 186.5293184999983,
          "velocity": 0.7874015748031497,
          "duration": 0.17647049999999354
        },
        {
          "name": "G#3",
          "midi": 56,
          "time": 186.5293184999983,
          "velocity": 0.7874015748031497,
          "duration": 0.17647049999999354
        },
        {
          "name": "C#3",
          "midi": 49,
          "time": 186.5293184999983,
          "velocity": 0.7874015748031497,
          "duration": 0.17647049999999354
        },
        {
          "name": "C#4",
          "midi": 61,
          "time": 186.7057889999983,
          "velocity": 0.7874015748031497,
          "duration": 0.17647049999999354
        },
        {
          "name": "G#3",
          "midi": 56,
          "time": 186.7057889999983,
          "velocity": 0.7874015748031497,
          "duration": 0.17647049999999354
        },
        {
          "name": "C#3",
          "midi": 49,
          "time": 186.7057889999983,
          "velocity": 0.7874015748031497,
          "duration": 0.17647049999999354
        },
        {
          "name": "C#2",
          "midi": 37,
          "time": 186.8822594999983,
          "velocity": 0.7874015748031497,
          "duration": 0.08823524999999677
        },
        {
          "name": "G#2",
          "midi": 44,
          "time": 186.8822594999983,
          "velocity": 0.7874015748031497,
          "duration": 0.08823524999999677
        },
        {
          "name": "C#2",
          "midi": 37,
          "time": 187.0587299999983,
          "velocity": 0.7874015748031497,
          "duration": 0.08823524999999677
        },
        {
          "name": "G#2",
          "midi": 44,
          "time": 187.0587299999983,
          "velocity": 0.7874015748031497,
          "duration": 0.08823524999999677
        },
        {
          "name": "C#2",
          "midi": 37,
          "time": 187.23520049999829,
          "velocity": 0.7874015748031497,
          "duration": 0.08823524999999677
        },
        {
          "name": "G#2",
          "midi": 44,
          "time": 187.23520049999829,
          "velocity": 0.7874015748031497,
          "duration": 0.08823524999999677
        },
        {
          "name": "C#2",
          "midi": 37,
          "time": 187.41167099999828,
          "velocity": 0.7874015748031497,
          "duration": 0.08823524999999677
        },
        {
          "name": "G#2",
          "midi": 44,
          "time": 187.41167099999828,
          "velocity": 0.7874015748031497,
          "duration": 0.08823524999999677
        },
        {
          "name": "C#2",
          "midi": 37,
          "time": 187.58814149999827,
          "velocity": 0.7874015748031497,
          "duration": 0.08823524999999677
        },
        {
          "name": "G#2",
          "midi": 44,
          "time": 187.58814149999827,
          "velocity": 0.7874015748031497,
          "duration": 0.08823524999999677
        },
        {
          "name": "B3",
          "midi": 59,
          "time": 187.76461199999827,
          "velocity": 0.7874015748031497,
          "duration": 0.17647049999999354
        },
        {
          "name": "F#3",
          "midi": 54,
          "time": 187.76461199999827,
          "velocity": 0.7874015748031497,
          "duration": 0.17647049999999354
        },
        {
          "name": "B2",
          "midi": 47,
          "time": 187.76461199999827,
          "velocity": 0.7874015748031497,
          "duration": 0.17647049999999354
        },
        {
          "name": "C#4",
          "midi": 61,
          "time": 187.94108249999826,
          "velocity": 0.7874015748031497,
          "duration": 0.35294099999998707
        },
        {
          "name": "G#3",
          "midi": 56,
          "time": 187.94108249999826,
          "velocity": 0.7874015748031497,
          "duration": 0.35294099999998707
        },
        {
          "name": "C#3",
          "midi": 49,
          "time": 187.94108249999826,
          "velocity": 0.7874015748031497,
          "duration": 0.35294099999998707
        },
        {
          "name": "D4",
          "midi": 62,
          "time": 188.29402349999825,
          "velocity": 0.7874015748031497,
          "duration": 0.35294099999998707
        },
        {
          "name": "A3",
          "midi": 57,
          "time": 188.29402349999825,
          "velocity": 0.7874015748031497,
          "duration": 0.35294099999998707
        },
        {
          "name": "D3",
          "midi": 50,
          "time": 188.29402349999825,
          "velocity": 0.7874015748031497,
          "duration": 0.35294099999998707
        },
        {
          "name": "C#4",
          "midi": 61,
          "time": 188.64696449999823,
          "velocity": 0.7874015748031497,
          "duration": 0.35294099999998707
        },
        {
          "name": "G#3",
          "midi": 56,
          "time": 188.64696449999823,
          "velocity": 0.7874015748031497,
          "duration": 0.35294099999998707
        },
        {
          "name": "C#3",
          "midi": 49,
          "time": 188.64696449999823,
          "velocity": 0.7874015748031497,
          "duration": 0.35294099999998707
        },
        {
          "name": "B3",
          "midi": 59,
          "time": 188.99990549999822,
          "velocity": 0.7874015748031497,
          "duration": 0.17647049999999354
        },
        {
          "name": "F#3",
          "midi": 54,
          "time": 188.99990549999822,
          "velocity": 0.7874015748031497,
          "duration": 0.17647049999999354
        },
        {
          "name": "B2",
          "midi": 47,
          "time": 188.99990549999822,
          "velocity": 0.7874015748031497,
          "duration": 0.17647049999999354
        },
        {
          "name": "B3",
          "midi": 59,
          "time": 189.1763759999982,
          "velocity": 0.7874015748031497,
          "duration": 0.17647049999999354
        },
        {
          "name": "F#3",
          "midi": 54,
          "time": 189.1763759999982,
          "velocity": 0.7874015748031497,
          "duration": 0.17647049999999354
        },
        {
          "name": "B2",
          "midi": 47,
          "time": 189.1763759999982,
          "velocity": 0.7874015748031497,
          "duration": 0.17647049999999354
        },
        {
          "name": "C#4",
          "midi": 61,
          "time": 189.3528464999982,
          "velocity": 0.7874015748031497,
          "duration": 0.17647049999999354
        },
        {
          "name": "G#3",
          "midi": 56,
          "time": 189.3528464999982,
          "velocity": 0.7874015748031497,
          "duration": 0.17647049999999354
        },
        {
          "name": "C#3",
          "midi": 49,
          "time": 189.3528464999982,
          "velocity": 0.7874015748031497,
          "duration": 0.17647049999999354
        },
        {
          "name": "C#4",
          "midi": 61,
          "time": 189.5293169999982,
          "velocity": 0.7874015748031497,
          "duration": 0.17647049999999354
        },
        {
          "name": "G#3",
          "midi": 56,
          "time": 189.5293169999982,
          "velocity": 0.7874015748031497,
          "duration": 0.17647049999999354
        },
        {
          "name": "C#3",
          "midi": 49,
          "time": 189.5293169999982,
          "velocity": 0.7874015748031497,
          "duration": 0.17647049999999354
        },
        {
          "name": "C#2",
          "midi": 37,
          "time": 189.7057874999982,
          "velocity": 0.7874015748031497,
          "duration": 0.08823524999999677
        },
        {
          "name": "G#2",
          "midi": 44,
          "time": 189.7057874999982,
          "velocity": 0.7874015748031497,
          "duration": 0.08823524999999677
        },
        {
          "name": "C#2",
          "midi": 37,
          "time": 189.8822579999982,
          "velocity": 0.7874015748031497,
          "duration": 0.08823524999999677
        },
        {
          "name": "G#2",
          "midi": 44,
          "time": 189.8822579999982,
          "velocity": 0.7874015748031497,
          "duration": 0.08823524999999677
        },
        {
          "name": "C#2",
          "midi": 37,
          "time": 190.05872849999818,
          "velocity": 0.7874015748031497,
          "duration": 0.08823524999999677
        },
        {
          "name": "G#2",
          "midi": 44,
          "time": 190.05872849999818,
          "velocity": 0.7874015748031497,
          "duration": 0.08823524999999677
        },
        {
          "name": "C#2",
          "midi": 37,
          "time": 190.23519899999818,
          "velocity": 0.7874015748031497,
          "duration": 0.08823524999999677
        },
        {
          "name": "G#2",
          "midi": 44,
          "time": 190.23519899999818,
          "velocity": 0.7874015748031497,
          "duration": 0.08823524999999677
        },
        {
          "name": "C#2",
          "midi": 37,
          "time": 190.41166949999817,
          "velocity": 0.7874015748031497,
          "duration": 0.08823524999999677
        },
        {
          "name": "G#2",
          "midi": 44,
          "time": 190.41166949999817,
          "velocity": 0.7874015748031497,
          "duration": 0.08823524999999677
        },
        {
          "name": "B3",
          "midi": 59,
          "time": 190.58813999999816,
          "velocity": 0.7874015748031497,
          "duration": 0.17647049999999354
        },
        {
          "name": "F#3",
          "midi": 54,
          "time": 190.58813999999816,
          "velocity": 0.7874015748031497,
          "duration": 0.17647049999999354
        },
        {
          "name": "B2",
          "midi": 47,
          "time": 190.58813999999816,
          "velocity": 0.7874015748031497,
          "duration": 0.17647049999999354
        },
        {
          "name": "C#4",
          "midi": 61,
          "time": 190.76461049999816,
          "velocity": 0.7874015748031497,
          "duration": 0.35294099999998707
        },
        {
          "name": "G#3",
          "midi": 56,
          "time": 190.76461049999816,
          "velocity": 0.7874015748031497,
          "duration": 0.35294099999998707
        },
        {
          "name": "C#3",
          "midi": 49,
          "time": 190.76461049999816,
          "velocity": 0.7874015748031497,
          "duration": 0.35294099999998707
        },
        {
          "name": "D4",
          "midi": 62,
          "time": 191.11755149999814,
          "velocity": 0.7874015748031497,
          "duration": 0.35294099999998707
        },
        {
          "name": "A3",
          "midi": 57,
          "time": 191.11755149999814,
          "velocity": 0.7874015748031497,
          "duration": 0.35294099999998707
        },
        {
          "name": "D3",
          "midi": 50,
          "time": 191.11755149999814,
          "velocity": 0.7874015748031497,
          "duration": 0.35294099999998707
        },
        {
          "name": "C#4",
          "midi": 61,
          "time": 191.47049249999813,
          "velocity": 0.7874015748031497,
          "duration": 0.35294099999998707
        },
        {
          "name": "G#3",
          "midi": 56,
          "time": 191.47049249999813,
          "velocity": 0.7874015748031497,
          "duration": 0.35294099999998707
        },
        {
          "name": "C#3",
          "midi": 49,
          "time": 191.47049249999813,
          "velocity": 0.7874015748031497,
          "duration": 0.35294099999998707
        },
        {
          "name": "B3",
          "midi": 59,
          "time": 191.82343349999812,
          "velocity": 0.7874015748031497,
          "duration": 0.17647049999999354
        },
        {
          "name": "F#3",
          "midi": 54,
          "time": 191.82343349999812,
          "velocity": 0.7874015748031497,
          "duration": 0.17647049999999354
        },
        {
          "name": "B2",
          "midi": 47,
          "time": 191.82343349999812,
          "velocity": 0.7874015748031497,
          "duration": 0.17647049999999354
        },
        {
          "name": "B3",
          "midi": 59,
          "time": 191.9999039999981,
          "velocity": 0.7874015748031497,
          "duration": 0.17647049999999354
        },
        {
          "name": "F#3",
          "midi": 54,
          "time": 191.9999039999981,
          "velocity": 0.7874015748031497,
          "duration": 0.17647049999999354
        },
        {
          "name": "B2",
          "midi": 47,
          "time": 191.9999039999981,
          "velocity": 0.7874015748031497,
          "duration": 0.17647049999999354
        },
        {
          "name": "C#4",
          "midi": 61,
          "time": 192.1763744999981,
          "velocity": 0.7874015748031497,
          "duration": 0.17647049999999354
        },
        {
          "name": "G#3",
          "midi": 56,
          "time": 192.1763744999981,
          "velocity": 0.7874015748031497,
          "duration": 0.17647049999999354
        },
        {
          "name": "C#3",
          "midi": 49,
          "time": 192.1763744999981,
          "velocity": 0.7874015748031497,
          "duration": 0.17647049999999354
        },
        {
          "name": "C#4",
          "midi": 61,
          "time": 192.3528449999981,
          "velocity": 0.7874015748031497,
          "duration": 0.17647049999999354
        },
        {
          "name": "G#3",
          "midi": 56,
          "time": 192.3528449999981,
          "velocity": 0.7874015748031497,
          "duration": 0.17647049999999354
        },
        {
          "name": "C#3",
          "midi": 49,
          "time": 192.3528449999981,
          "velocity": 0.7874015748031497,
          "duration": 0.17647049999999354
        },
        {
          "name": "C#2",
          "midi": 37,
          "time": 192.5293154999981,
          "velocity": 0.7874015748031497,
          "duration": 0.08823524999999677
        },
        {
          "name": "G#2",
          "midi": 44,
          "time": 192.5293154999981,
          "velocity": 0.7874015748031497,
          "duration": 0.08823524999999677
        },
        {
          "name": "C#2",
          "midi": 37,
          "time": 192.70578599999808,
          "velocity": 0.7874015748031497,
          "duration": 0.08823524999999677
        },
        {
          "name": "G#2",
          "midi": 44,
          "time": 192.70578599999808,
          "velocity": 0.7874015748031497,
          "duration": 0.08823524999999677
        },
        {
          "name": "C#2",
          "midi": 37,
          "time": 192.88225649999808,
          "velocity": 0.7874015748031497,
          "duration": 0.08823524999999677
        },
        {
          "name": "G#2",
          "midi": 44,
          "time": 192.88225649999808,
          "velocity": 0.7874015748031497,
          "duration": 0.08823524999999677
        },
        {
          "name": "C#2",
          "midi": 37,
          "time": 193.05872699999807,
          "velocity": 0.7874015748031497,
          "duration": 0.08823524999999677
        },
        {
          "name": "G#2",
          "midi": 44,
          "time": 193.05872699999807,
          "velocity": 0.7874015748031497,
          "duration": 0.08823524999999677
        },
        {
          "name": "C#2",
          "midi": 37,
          "time": 193.23519749999807,
          "velocity": 0.7874015748031497,
          "duration": 0.08823524999999677
        },
        {
          "name": "G#2",
          "midi": 44,
          "time": 193.23519749999807,
          "velocity": 0.7874015748031497,
          "duration": 0.08823524999999677
        },
        {
          "name": "B3",
          "midi": 59,
          "time": 193.41166799999806,
          "velocity": 0.7874015748031497,
          "duration": 0.17647049999999354
        },
        {
          "name": "F#3",
          "midi": 54,
          "time": 193.41166799999806,
          "velocity": 0.7874015748031497,
          "duration": 0.17647049999999354
        },
        {
          "name": "B2",
          "midi": 47,
          "time": 193.41166799999806,
          "velocity": 0.7874015748031497,
          "duration": 0.17647049999999354
        },
        {
          "name": "C#4",
          "midi": 61,
          "time": 193.58813849999805,
          "velocity": 0.7874015748031497,
          "duration": 0.35294099999998707
        },
        {
          "name": "G#3",
          "midi": 56,
          "time": 193.58813849999805,
          "velocity": 0.7874015748031497,
          "duration": 0.35294099999998707
        },
        {
          "name": "C#3",
          "midi": 49,
          "time": 193.58813849999805,
          "velocity": 0.7874015748031497,
          "duration": 0.35294099999998707
        },
        {
          "name": "D4",
          "midi": 62,
          "time": 193.94107949999804,
          "velocity": 0.7874015748031497,
          "duration": 0.35294099999998707
        },
        {
          "name": "A3",
          "midi": 57,
          "time": 193.94107949999804,
          "velocity": 0.7874015748031497,
          "duration": 0.35294099999998707
        },
        {
          "name": "D3",
          "midi": 50,
          "time": 193.94107949999804,
          "velocity": 0.7874015748031497,
          "duration": 0.35294099999998707
        },
        {
          "name": "C#4",
          "midi": 61,
          "time": 194.29402049999803,
          "velocity": 0.7874015748031497,
          "duration": 0.35294099999998707
        },
        {
          "name": "G#3",
          "midi": 56,
          "time": 194.29402049999803,
          "velocity": 0.7874015748031497,
          "duration": 0.35294099999998707
        },
        {
          "name": "C#3",
          "midi": 49,
          "time": 194.29402049999803,
          "velocity": 0.7874015748031497,
          "duration": 0.35294099999998707
        },
        {
          "name": "B3",
          "midi": 59,
          "time": 194.646961499998,
          "velocity": 0.7874015748031497,
          "duration": 0.17647049999999354
        },
        {
          "name": "F#3",
          "midi": 54,
          "time": 194.646961499998,
          "velocity": 0.7874015748031497,
          "duration": 0.17647049999999354
        },
        {
          "name": "B2",
          "midi": 47,
          "time": 194.646961499998,
          "velocity": 0.7874015748031497,
          "duration": 0.17647049999999354
        },
        {
          "name": "B3",
          "midi": 59,
          "time": 194.823431999998,
          "velocity": 0.7874015748031497,
          "duration": 0.17647049999999354
        },
        {
          "name": "F#3",
          "midi": 54,
          "time": 194.823431999998,
          "velocity": 0.7874015748031497,
          "duration": 0.17647049999999354
        },
        {
          "name": "B2",
          "midi": 47,
          "time": 194.823431999998,
          "velocity": 0.7874015748031497,
          "duration": 0.17647049999999354
        },
        {
          "name": "C#4",
          "midi": 61,
          "time": 194.999902499998,
          "velocity": 0.7874015748031497,
          "duration": 0.17647049999999354
        },
        {
          "name": "G#3",
          "midi": 56,
          "time": 194.999902499998,
          "velocity": 0.7874015748031497,
          "duration": 0.17647049999999354
        },
        {
          "name": "C#3",
          "midi": 49,
          "time": 194.999902499998,
          "velocity": 0.7874015748031497,
          "duration": 0.17647049999999354
        },
        {
          "name": "C#4",
          "midi": 61,
          "time": 195.176372999998,
          "velocity": 0.7874015748031497,
          "duration": 0.17647049999999354
        },
        {
          "name": "G#3",
          "midi": 56,
          "time": 195.176372999998,
          "velocity": 0.7874015748031497,
          "duration": 0.17647049999999354
        },
        {
          "name": "C#3",
          "midi": 49,
          "time": 195.176372999998,
          "velocity": 0.7874015748031497,
          "duration": 0.17647049999999354
        },
        {
          "name": "C#2",
          "midi": 37,
          "time": 195.352843499998,
          "velocity": 0.7874015748031497,
          "duration": 0.08823524999999677
        },
        {
          "name": "G#2",
          "midi": 44,
          "time": 195.352843499998,
          "velocity": 0.7874015748031497,
          "duration": 0.08823524999999677
        },
        {
          "name": "C#2",
          "midi": 37,
          "time": 195.52931399999798,
          "velocity": 0.7874015748031497,
          "duration": 0.08823524999999677
        },
        {
          "name": "G#2",
          "midi": 44,
          "time": 195.52931399999798,
          "velocity": 0.7874015748031497,
          "duration": 0.08823524999999677
        },
        {
          "name": "C#2",
          "midi": 37,
          "time": 195.70578449999797,
          "velocity": 0.7874015748031497,
          "duration": 0.08823524999999677
        },
        {
          "name": "G#2",
          "midi": 44,
          "time": 195.70578449999797,
          "velocity": 0.7874015748031497,
          "duration": 0.08823524999999677
        },
        {
          "name": "C#2",
          "midi": 37,
          "time": 195.88225499999797,
          "velocity": 0.7874015748031497,
          "duration": 0.08823524999999677
        },
        {
          "name": "G#2",
          "midi": 44,
          "time": 195.88225499999797,
          "velocity": 0.7874015748031497,
          "duration": 0.08823524999999677
        },
        {
          "name": "C#2",
          "midi": 37,
          "time": 196.05872549999796,
          "velocity": 0.7874015748031497,
          "duration": 0.08823524999999677
        },
        {
          "name": "G#2",
          "midi": 44,
          "time": 196.05872549999796,
          "velocity": 0.7874015748031497,
          "duration": 0.08823524999999677
        },
        {
          "name": "B3",
          "midi": 59,
          "time": 196.23519599999796,
          "velocity": 0.7874015748031497,
          "duration": 0.17647049999999354
        },
        {
          "name": "F#3",
          "midi": 54,
          "time": 196.23519599999796,
          "velocity": 0.7874015748031497,
          "duration": 0.17647049999999354
        },
        {
          "name": "B2",
          "midi": 47,
          "time": 196.23519599999796,
          "velocity": 0.7874015748031497,
          "duration": 0.17647049999999354
        },
        {
          "name": "C#4",
          "midi": 61,
          "time": 196.41166649999795,
          "velocity": 0.7874015748031497,
          "duration": 0.35294099999998707
        },
        {
          "name": "G#3",
          "midi": 56,
          "time": 196.41166649999795,
          "velocity": 0.7874015748031497,
          "duration": 0.35294099999998707
        },
        {
          "name": "C#3",
          "midi": 49,
          "time": 196.41166649999795,
          "velocity": 0.7874015748031497,
          "duration": 0.35294099999998707
        },
        {
          "name": "D4",
          "midi": 62,
          "time": 196.76460749999794,
          "velocity": 0.7874015748031497,
          "duration": 0.35294099999998707
        },
        {
          "name": "A3",
          "midi": 57,
          "time": 196.76460749999794,
          "velocity": 0.7874015748031497,
          "duration": 0.35294099999998707
        },
        {
          "name": "D3",
          "midi": 50,
          "time": 196.76460749999794,
          "velocity": 0.7874015748031497,
          "duration": 0.35294099999998707
        },
        {
          "name": "C#4",
          "midi": 61,
          "time": 197.11754849999792,
          "velocity": 0.7874015748031497,
          "duration": 0.35294099999998707
        },
        {
          "name": "G#3",
          "midi": 56,
          "time": 197.11754849999792,
          "velocity": 0.7874015748031497,
          "duration": 0.35294099999998707
        },
        {
          "name": "C#3",
          "midi": 49,
          "time": 197.11754849999792,
          "velocity": 0.7874015748031497,
          "duration": 0.35294099999998707
        },
        {
          "name": "B3",
          "midi": 59,
          "time": 197.4704894999979,
          "velocity": 0.7874015748031497,
          "duration": 0.17647049999999354
        },
        {
          "name": "F#3",
          "midi": 54,
          "time": 197.4704894999979,
          "velocity": 0.7874015748031497,
          "duration": 0.17647049999999354
        },
        {
          "name": "B2",
          "midi": 47,
          "time": 197.4704894999979,
          "velocity": 0.7874015748031497,
          "duration": 0.17647049999999354
        },
        {
          "name": "G#4",
          "midi": 68,
          "time": 197.6469599999979,
          "velocity": 0.7874015748031497,
          "duration": 0.17647049999999354
        },
        {
          "name": "C#4",
          "midi": 61,
          "time": 197.6469599999979,
          "velocity": 0.7874015748031497,
          "duration": 0.17647049999999354
        },
        {
          "name": "C#5",
          "midi": 73,
          "time": 197.6469599999979,
          "velocity": 0.7874015748031497,
          "duration": 0.17647049999999354
        },
        {
          "name": "F#4",
          "midi": 66,
          "time": 197.8234304999979,
          "velocity": 0.7874015748031497,
          "duration": 0.17647049999999354
        },
        {
          "name": "B3",
          "midi": 59,
          "time": 197.8234304999979,
          "velocity": 0.7874015748031497,
          "duration": 0.17647049999999354
        },
        {
          "name": "B4",
          "midi": 71,
          "time": 197.8234304999979,
          "velocity": 0.7874015748031497,
          "duration": 0.17647049999999354
        },
        {
          "name": "D#4",
          "midi": 63,
          "time": 198.17637149999788,
          "velocity": 0.7874015748031497,
          "duration": 0.17647049999999354
        },
        {
          "name": "G#3",
          "midi": 56,
          "time": 198.17637149999788,
          "velocity": 0.7874015748031497,
          "duration": 0.17647049999999354
        },
        {
          "name": "G#4",
          "midi": 68,
          "time": 198.17637149999788,
          "velocity": 0.7874015748031497,
          "duration": 0.17647049999999354
        },
        {
          "name": "C#4",
          "midi": 61,
          "time": 198.52931249999787,
          "velocity": 0.7874015748031497,
          "duration": 0.17647049999999354
        },
        {
          "name": "F#3",
          "midi": 54,
          "time": 198.52931249999787,
          "velocity": 0.7874015748031497,
          "duration": 0.17647049999999354
        },
        {
          "name": "F#4",
          "midi": 66,
          "time": 198.52931249999787,
          "velocity": 0.7874015748031497,
          "duration": 0.17647049999999354
        },
        {
          "name": "B3",
          "midi": 59,
          "time": 198.88225349999786,
          "velocity": 0.7874015748031497,
          "duration": 0.17647049999999354
        },
        {
          "name": "E3",
          "midi": 52,
          "time": 198.88225349999786,
          "velocity": 0.7874015748031497,
          "duration": 0.17647049999999354
        },
        {
          "name": "E4",
          "midi": 64,
          "time": 198.88225349999786,
          "velocity": 0.7874015748031497,
          "duration": 0.17647049999999354
        },
        {
          "name": "G#3",
          "midi": 56,
          "time": 199.22931214999784,
          "velocity": 0.7874015748031497,
          "duration": 0.17647049999999354
        },
        {
          "name": "C#3",
          "midi": 49,
          "time": 199.22931214999784,
          "velocity": 0.7874015748031497,
          "duration": 0.17647049999999354
        },
        {
          "name": "C#4",
          "midi": 61,
          "time": 199.22931214999784,
          "velocity": 0.7874015748031497,
          "duration": 0.17647049999999354
        },
        {
          "name": "F#3",
          "midi": 54,
          "time": 199.58813549999783,
          "velocity": 0.7874015748031497,
          "duration": 0.17647049999999354
        },
        {
          "name": "B2",
          "midi": 47,
          "time": 199.58813549999783,
          "velocity": 0.7874015748031497,
          "duration": 0.17647049999999354
        },
        {
          "name": "B3",
          "midi": 59,
          "time": 199.58813549999783,
          "velocity": 0.7874015748031497,
          "duration": 0.17647049999999354
        },
        {
          "name": "F#3",
          "midi": 54,
          "time": 199.76460599999783,
          "velocity": 0.7874015748031497,
          "duration": 0.17647049999999354
        },
        {
          "name": "B2",
          "midi": 47,
          "time": 199.76460599999783,
          "velocity": 0.7874015748031497,
          "duration": 0.17647049999999354
        },
        {
          "name": "B3",
          "midi": 59,
          "time": 199.76460599999783,
          "velocity": 0.7874015748031497,
          "duration": 0.17647049999999354
        },
        {
          "name": "G#3",
          "midi": 56,
          "time": 199.94107649999782,
          "velocity": 0.7874015748031497,
          "duration": 0.17647049999999354
        },
        {
          "name": "C#3",
          "midi": 49,
          "time": 199.94107649999782,
          "velocity": 0.7874015748031497,
          "duration": 0.17647049999999354
        },
        {
          "name": "C#4",
          "midi": 61,
          "time": 199.94107649999782,
          "velocity": 0.7874015748031497,
          "duration": 0.17647049999999354
        },
        {
          "name": "G#3",
          "midi": 56,
          "time": 200.1175469999978,
          "velocity": 0.7874015748031497,
          "duration": 0.17647049999999354
        },
        {
          "name": "C#3",
          "midi": 49,
          "time": 200.1175469999978,
          "velocity": 0.7874015748031497,
          "duration": 0.17647049999999354
        },
        {
          "name": "C#4",
          "midi": 61,
          "time": 200.1175469999978,
          "velocity": 0.7874015748031497,
          "duration": 0.17647049999999354
        },
        {
          "name": "G#4",
          "midi": 68,
          "time": 200.4704879999978,
          "velocity": 0.7874015748031497,
          "duration": 0.17647049999999354
        },
        {
          "name": "C#4",
          "midi": 61,
          "time": 200.4704879999978,
          "velocity": 0.7874015748031497,
          "duration": 0.17647049999999354
        },
        {
          "name": "C#5",
          "midi": 73,
          "time": 200.4704879999978,
          "velocity": 0.7874015748031497,
          "duration": 0.17647049999999354
        },
        {
          "name": "F#4",
          "midi": 66,
          "time": 200.6469584999978,
          "velocity": 0.7874015748031497,
          "duration": 0.17647049999999354
        },
        {
          "name": "B3",
          "midi": 59,
          "time": 200.6469584999978,
          "velocity": 0.7874015748031497,
          "duration": 0.17647049999999354
        },
        {
          "name": "B4",
          "midi": 71,
          "time": 200.6469584999978,
          "velocity": 0.7874015748031497,
          "duration": 0.17647049999999354
        },
        {
          "name": "D#4",
          "midi": 63,
          "time": 200.99989949999778,
          "velocity": 0.7874015748031497,
          "duration": 0.17647049999999354
        },
        {
          "name": "G#3",
          "midi": 56,
          "time": 200.99989949999778,
          "velocity": 0.7874015748031497,
          "duration": 0.17647049999999354
        },
        {
          "name": "G#4",
          "midi": 68,
          "time": 200.99989949999778,
          "velocity": 0.7874015748031497,
          "duration": 0.17647049999999354
        },
        {
          "name": "C#4",
          "midi": 61,
          "time": 201.35284049999777,
          "velocity": 0.7874015748031497,
          "duration": 0.17647049999999354
        },
        {
          "name": "F#3",
          "midi": 54,
          "time": 201.35284049999777,
          "velocity": 0.7874015748031497,
          "duration": 0.17647049999999354
        },
        {
          "name": "F#4",
          "midi": 66,
          "time": 201.35284049999777,
          "velocity": 0.7874015748031497,
          "duration": 0.17647049999999354
        },
        {
          "name": "B3",
          "midi": 59,
          "time": 201.70578149999776,
          "velocity": 0.7874015748031497,
          "duration": 0.17647049999999354
        },
        {
          "name": "E3",
          "midi": 52,
          "time": 201.70578149999776,
          "velocity": 0.7874015748031497,
          "duration": 0.17647049999999354
        },
        {
          "name": "E4",
          "midi": 64,
          "time": 201.70578149999776,
          "velocity": 0.7874015748031497,
          "duration": 0.17647049999999354
        },
        {
          "name": "G#3",
          "midi": 56,
          "time": 202.05284014999773,
          "velocity": 0.7874015748031497,
          "duration": 0.17647049999999354
        },
        {
          "name": "C#3",
          "midi": 49,
          "time": 202.05284014999773,
          "velocity": 0.7874015748031497,
          "duration": 0.17647049999999354
        },
        {
          "name": "C#4",
          "midi": 61,
          "time": 202.05284014999773,
          "velocity": 0.7874015748031497,
          "duration": 0.17647049999999354
        },
        {
          "name": "F#3",
          "midi": 54,
          "time": 202.41166349999773,
          "velocity": 0.7874015748031497,
          "duration": 0.17647049999999354
        },
        {
          "name": "B2",
          "midi": 47,
          "time": 202.41166349999773,
          "velocity": 0.7874015748031497,
          "duration": 0.17647049999999354
        },
        {
          "name": "B3",
          "midi": 59,
          "time": 202.41166349999773,
          "velocity": 0.7874015748031497,
          "duration": 0.17647049999999354
        },
        {
          "name": "F#3",
          "midi": 54,
          "time": 202.58813399999772,
          "velocity": 0.7874015748031497,
          "duration": 0.17647049999999354
        },
        {
          "name": "B2",
          "midi": 47,
          "time": 202.58813399999772,
          "velocity": 0.7874015748031497,
          "duration": 0.17647049999999354
        },
        {
          "name": "B3",
          "midi": 59,
          "time": 202.58813399999772,
          "velocity": 0.7874015748031497,
          "duration": 0.17647049999999354
        },
        {
          "name": "G#3",
          "midi": 56,
          "time": 202.76460449999772,
          "velocity": 0.7874015748031497,
          "duration": 0.17647049999999354
        },
        {
          "name": "C#3",
          "midi": 49,
          "time": 202.76460449999772,
          "velocity": 0.7874015748031497,
          "duration": 0.17647049999999354
        },
        {
          "name": "C#4",
          "midi": 61,
          "time": 202.76460449999772,
          "velocity": 0.7874015748031497,
          "duration": 0.17647049999999354
        },
        {
          "name": "G#3",
          "midi": 56,
          "time": 202.9410749999977,
          "velocity": 0.7874015748031497,
          "duration": 0.17647049999999354
        },
        {
          "name": "C#3",
          "midi": 49,
          "time": 202.9410749999977,
          "velocity": 0.7874015748031497,
          "duration": 0.17647049999999354
        },
        {
          "name": "C#4",
          "midi": 61,
          "time": 202.9410749999977,
          "velocity": 0.7874015748031497,
          "duration": 0.17647049999999354
        },
        {
          "name": "F#3",
          "midi": 54,
          "time": 203.2940159999977,
          "velocity": 0.7874015748031497,
          "duration": 0.35294099999998707
        },
        {
          "name": "B3",
          "midi": 59,
          "time": 203.2940159999977,
          "velocity": 0.7874015748031497,
          "duration": 0.35294099999998707
        },
        {
          "name": "B2",
          "midi": 47,
          "time": 203.2940159999977,
          "velocity": 0.7874015748031497,
          "duration": 0.35294099999998707
        },
        {
          "name": "F#3",
          "midi": 54,
          "time": 203.64695699999768,
          "velocity": 0.7874015748031497,
          "duration": 0.35294099999998707
        },
        {
          "name": "B3",
          "midi": 59,
          "time": 203.64695699999768,
          "velocity": 0.7874015748031497,
          "duration": 0.35294099999998707
        },
        {
          "name": "B2",
          "midi": 47,
          "time": 203.64695699999768,
          "velocity": 0.7874015748031497,
          "duration": 0.35294099999998707
        },
        {
          "name": "A3",
          "midi": 57,
          "time": 203.99989799999767,
          "velocity": 0.7874015748031497,
          "duration": 0.17647049999999354
        },
        {
          "name": "D4",
          "midi": 62,
          "time": 203.99989799999767,
          "velocity": 0.7874015748031497,
          "duration": 0.17647049999999354
        },
        {
          "name": "D3",
          "midi": 50,
          "time": 203.99989799999767,
          "velocity": 0.7874015748031497,
          "duration": 0.17647049999999354
        },
        {
          "name": "A#3",
          "midi": 58,
          "time": 204.17636849999766,
          "velocity": 0.7874015748031497,
          "duration": 0.17647049999999354
        },
        {
          "name": "D#4",
          "midi": 63,
          "time": 204.17636849999766,
          "velocity": 0.7874015748031497,
          "duration": 0.17647049999999354
        },
        {
          "name": "D#3",
          "midi": 51,
          "time": 204.17636849999766,
          "velocity": 0.7874015748031497,
          "duration": 0.17647049999999354
        },
        {
          "name": "B3",
          "midi": 59,
          "time": 204.35283899999766,
          "velocity": 0.7874015748031497,
          "duration": 0.35294099999998707
        },
        {
          "name": "E4",
          "midi": 64,
          "time": 204.35283899999766,
          "velocity": 0.7874015748031497,
          "duration": 0.35294099999998707
        },
        {
          "name": "E3",
          "midi": 52,
          "time": 204.35283899999766,
          "velocity": 0.7874015748031497,
          "duration": 0.35294099999998707
        },
        {
          "name": "B3",
          "midi": 59,
          "time": 204.70577999999765,
          "velocity": 0.7874015748031497,
          "duration": 0.17647049999999354
        },
        {
          "name": "E4",
          "midi": 64,
          "time": 204.70577999999765,
          "velocity": 0.7874015748031497,
          "duration": 0.17647049999999354
        },
        {
          "name": "E3",
          "midi": 52,
          "time": 204.70577999999765,
          "velocity": 0.7874015748031497,
          "duration": 0.17647049999999354
        },
        {
          "name": "C4",
          "midi": 60,
          "time": 204.88225049999764,
          "velocity": 0.7874015748031497,
          "duration": 0.17647049999999354
        },
        {
          "name": "F4",
          "midi": 65,
          "time": 204.88225049999764,
          "velocity": 0.7874015748031497,
          "duration": 0.17647049999999354
        },
        {
          "name": "F3",
          "midi": 53,
          "time": 204.88225049999764,
          "velocity": 0.7874015748031497,
          "duration": 0.17647049999999354
        },
        {
          "name": "C#4",
          "midi": 61,
          "time": 205.05872099999763,
          "velocity": 0.7874015748031497,
          "duration": 0.35294099999998707
        },
        {
          "name": "F#4",
          "midi": 66,
          "time": 205.05872099999763,
          "velocity": 0.7874015748031497,
          "duration": 0.35294099999998707
        },
        {
          "name": "F#3",
          "midi": 54,
          "time": 205.05872099999763,
          "velocity": 0.7874015748031497,
          "duration": 0.35294099999998707
        },
        {
          "name": "E4",
          "midi": 64,
          "time": 205.41166199999762,
          "velocity": 0.7874015748031497,
          "duration": 0.17647049999999354
        },
        {
          "name": "A4",
          "midi": 69,
          "time": 205.41166199999762,
          "velocity": 0.7874015748031497,
          "duration": 0.17647049999999354
        },
        {
          "name": "A3",
          "midi": 57,
          "time": 205.41166199999762,
          "velocity": 0.7874015748031497,
          "duration": 0.17647049999999354
        },
        {
          "name": "F4",
          "midi": 65,
          "time": 205.5881324999976,
          "velocity": 0.7874015748031497,
          "duration": 0.17647049999999354
        },
        {
          "name": "A#4",
          "midi": 70,
          "time": 205.5881324999976,
          "velocity": 0.7874015748031497,
          "duration": 0.17647049999999354
        },
        {
          "name": "A#3",
          "midi": 58,
          "time": 205.5881324999976,
          "velocity": 0.7874015748031497,
          "duration": 0.17647049999999354
        },
        {
          "name": "F#4",
          "midi": 66,
          "time": 205.7646029999976,
          "velocity": 0.7874015748031497,
          "duration": 0.35294099999998707
        },
        {
          "name": "B4",
          "midi": 71,
          "time": 205.7646029999976,
          "velocity": 0.7874015748031497,
          "duration": 0.35294099999998707
        },
        {
          "name": "B3",
          "midi": 59,
          "time": 205.7646029999976,
          "velocity": 0.7874015748031497,
          "duration": 0.35294099999998707
        },
        {
          "name": "F#3",
          "midi": 54,
          "time": 206.1175439999976,
          "velocity": 0.7874015748031497,
          "duration": 0.35294099999998707
        },
        {
          "name": "B3",
          "midi": 59,
          "time": 206.1175439999976,
          "velocity": 0.7874015748031497,
          "duration": 0.35294099999998707
        },
        {
          "name": "B2",
          "midi": 47,
          "time": 206.1175439999976,
          "velocity": 0.7874015748031497,
          "duration": 0.35294099999998707
        },
        {
          "name": "F#3",
          "midi": 54,
          "time": 206.47048499999758,
          "velocity": 0.7874015748031497,
          "duration": 0.35294099999998707
        },
        {
          "name": "B3",
          "midi": 59,
          "time": 206.47048499999758,
          "velocity": 0.7874015748031497,
          "duration": 0.35294099999998707
        },
        {
          "name": "B2",
          "midi": 47,
          "time": 206.47048499999758,
          "velocity": 0.7874015748031497,
          "duration": 0.35294099999998707
        },
        {
          "name": "A3",
          "midi": 57,
          "time": 206.82342599999757,
          "velocity": 0.7874015748031497,
          "duration": 0.17647049999999354
        },
        {
          "name": "D4",
          "midi": 62,
          "time": 206.82342599999757,
          "velocity": 0.7874015748031497,
          "duration": 0.17647049999999354
        },
        {
          "name": "D3",
          "midi": 50,
          "time": 206.82342599999757,
          "velocity": 0.7874015748031497,
          "duration": 0.17647049999999354
        },
        {
          "name": "A#3",
          "midi": 58,
          "time": 206.99989649999756,
          "velocity": 0.7874015748031497,
          "duration": 0.17647049999999354
        },
        {
          "name": "D#4",
          "midi": 63,
          "time": 206.99989649999756,
          "velocity": 0.7874015748031497,
          "duration": 0.17647049999999354
        },
        {
          "name": "D#3",
          "midi": 51,
          "time": 206.99989649999756,
          "velocity": 0.7874015748031497,
          "duration": 0.17647049999999354
        },
        {
          "name": "B3",
          "midi": 59,
          "time": 207.17636699999755,
          "velocity": 0.7874015748031497,
          "duration": 0.35294099999998707
        },
        {
          "name": "E4",
          "midi": 64,
          "time": 207.17636699999755,
          "velocity": 0.7874015748031497,
          "duration": 0.35294099999998707
        },
        {
          "name": "E3",
          "midi": 52,
          "time": 207.17636699999755,
          "velocity": 0.7874015748031497,
          "duration": 0.35294099999998707
        },
        {
          "name": "B3",
          "midi": 59,
          "time": 207.52930799999754,
          "velocity": 0.7874015748031497,
          "duration": 0.17647049999999354
        },
        {
          "name": "E4",
          "midi": 64,
          "time": 207.52930799999754,
          "velocity": 0.7874015748031497,
          "duration": 0.17647049999999354
        },
        {
          "name": "E3",
          "midi": 52,
          "time": 207.52930799999754,
          "velocity": 0.7874015748031497,
          "duration": 0.17647049999999354
        },
        {
          "name": "C4",
          "midi": 60,
          "time": 207.70577849999754,
          "velocity": 0.7874015748031497,
          "duration": 0.17647049999999354
        },
        {
          "name": "F4",
          "midi": 65,
          "time": 207.70577849999754,
          "velocity": 0.7874015748031497,
          "duration": 0.17647049999999354
        },
        {
          "name": "F3",
          "midi": 53,
          "time": 207.70577849999754,
          "velocity": 0.7874015748031497,
          "duration": 0.17647049999999354
        },
        {
          "name": "C#4",
          "midi": 61,
          "time": 207.88224899999753,
          "velocity": 0.7874015748031497,
          "duration": 0.35294099999998707
        },
        {
          "name": "F#4",
          "midi": 66,
          "time": 207.88224899999753,
          "velocity": 0.7874015748031497,
          "duration": 0.35294099999998707
        },
        {
          "name": "F#3",
          "midi": 54,
          "time": 207.88224899999753,
          "velocity": 0.7874015748031497,
          "duration": 0.35294099999998707
        },
        {
          "name": "E4",
          "midi": 64,
          "time": 208.23518999999752,
          "velocity": 0.7874015748031497,
          "duration": 0.17647049999999354
        },
        {
          "name": "A4",
          "midi": 69,
          "time": 208.23518999999752,
          "velocity": 0.7874015748031497,
          "duration": 0.17647049999999354
        },
        {
          "name": "A3",
          "midi": 57,
          "time": 208.23518999999752,
          "velocity": 0.7874015748031497,
          "duration": 0.17647049999999354
        },
        {
          "name": "F4",
          "midi": 65,
          "time": 208.4116604999975,
          "velocity": 0.7874015748031497,
          "duration": 0.17647049999999354
        },
        {
          "name": "A#4",
          "midi": 70,
          "time": 208.4116604999975,
          "velocity": 0.7874015748031497,
          "duration": 0.17647049999999354
        },
        {
          "name": "A#3",
          "midi": 58,
          "time": 208.4116604999975,
          "velocity": 0.7874015748031497,
          "duration": 0.17647049999999354
        },
        {
          "name": "F#4",
          "midi": 66,
          "time": 208.5881309999975,
          "velocity": 0.7874015748031497,
          "duration": 0.35294099999998707
        },
        {
          "name": "B4",
          "midi": 71,
          "time": 208.5881309999975,
          "velocity": 0.7874015748031497,
          "duration": 0.35294099999998707
        },
        {
          "name": "B3",
          "midi": 59,
          "time": 208.5881309999975,
          "velocity": 0.7874015748031497,
          "duration": 0.35294099999998707
        },
        {
          "name": "F#3",
          "midi": 54,
          "time": 208.9410719999975,
          "velocity": 0.7874015748031497,
          "duration": 0.35294099999998707
        },
        {
          "name": "B3",
          "midi": 59,
          "time": 208.9410719999975,
          "velocity": 0.7874015748031497,
          "duration": 0.35294099999998707
        },
        {
          "name": "B2",
          "midi": 47,
          "time": 208.9410719999975,
          "velocity": 0.7874015748031497,
          "duration": 0.35294099999998707
        },
        {
          "name": "F#3",
          "midi": 54,
          "time": 209.29401299999748,
          "velocity": 0.7874015748031497,
          "duration": 0.35294099999998707
        },
        {
          "name": "B3",
          "midi": 59,
          "time": 209.29401299999748,
          "velocity": 0.7874015748031497,
          "duration": 0.35294099999998707
        },
        {
          "name": "B2",
          "midi": 47,
          "time": 209.29401299999748,
          "velocity": 0.7874015748031497,
          "duration": 0.35294099999998707
        },
        {
          "name": "A3",
          "midi": 57,
          "time": 209.64695399999746,
          "velocity": 0.7874015748031497,
          "duration": 0.17647049999999354
        },
        {
          "name": "D4",
          "midi": 62,
          "time": 209.64695399999746,
          "velocity": 0.7874015748031497,
          "duration": 0.17647049999999354
        },
        {
          "name": "D3",
          "midi": 50,
          "time": 209.64695399999746,
          "velocity": 0.7874015748031497,
          "duration": 0.17647049999999354
        },
        {
          "name": "A#3",
          "midi": 58,
          "time": 209.82342449999746,
          "velocity": 0.7874015748031497,
          "duration": 0.17647049999999354
        },
        {
          "name": "D#4",
          "midi": 63,
          "time": 209.82342449999746,
          "velocity": 0.7874015748031497,
          "duration": 0.17647049999999354
        },
        {
          "name": "D#3",
          "midi": 51,
          "time": 209.82342449999746,
          "velocity": 0.7874015748031497,
          "duration": 0.17647049999999354
        },
        {
          "name": "B3",
          "midi": 59,
          "time": 209.99989499999745,
          "velocity": 0.7874015748031497,
          "duration": 0.35294099999998707
        },
        {
          "name": "E4",
          "midi": 64,
          "time": 209.99989499999745,
          "velocity": 0.7874015748031497,
          "duration": 0.35294099999998707
        },
        {
          "name": "E3",
          "midi": 52,
          "time": 209.99989499999745,
          "velocity": 0.7874015748031497,
          "duration": 0.35294099999998707
        },
        {
          "name": "B3",
          "midi": 59,
          "time": 210.35283599999744,
          "velocity": 0.7874015748031497,
          "duration": 0.17647049999999354
        },
        {
          "name": "E4",
          "midi": 64,
          "time": 210.35283599999744,
          "velocity": 0.7874015748031497,
          "duration": 0.17647049999999354
        },
        {
          "name": "E3",
          "midi": 52,
          "time": 210.35283599999744,
          "velocity": 0.7874015748031497,
          "duration": 0.17647049999999354
        },
        {
          "name": "C4",
          "midi": 60,
          "time": 210.52930649999743,
          "velocity": 0.7874015748031497,
          "duration": 0.17647049999999354
        },
        {
          "name": "F4",
          "midi": 65,
          "time": 210.52930649999743,
          "velocity": 0.7874015748031497,
          "duration": 0.17647049999999354
        },
        {
          "name": "F3",
          "midi": 53,
          "time": 210.52930649999743,
          "velocity": 0.7874015748031497,
          "duration": 0.17647049999999354
        },
        {
          "name": "C#4",
          "midi": 61,
          "time": 210.70577699999743,
          "velocity": 0.7874015748031497,
          "duration": 0.35294099999998707
        },
        {
          "name": "F#4",
          "midi": 66,
          "time": 210.70577699999743,
          "velocity": 0.7874015748031497,
          "duration": 0.35294099999998707
        },
        {
          "name": "F#3",
          "midi": 54,
          "time": 210.70577699999743,
          "velocity": 0.7874015748031497,
          "duration": 0.35294099999998707
        },
        {
          "name": "E4",
          "midi": 64,
          "time": 211.0587179999974,
          "velocity": 0.7874015748031497,
          "duration": 0.17647049999999354
        },
        {
          "name": "A4",
          "midi": 69,
          "time": 211.0587179999974,
          "velocity": 0.7874015748031497,
          "duration": 0.17647049999999354
        },
        {
          "name": "A3",
          "midi": 57,
          "time": 211.0587179999974,
          "velocity": 0.7874015748031497,
          "duration": 0.17647049999999354
        },
        {
          "name": "F4",
          "midi": 65,
          "time": 211.2351884999974,
          "velocity": 0.7874015748031497,
          "duration": 0.17647049999999354
        },
        {
          "name": "A#4",
          "midi": 70,
          "time": 211.2351884999974,
          "velocity": 0.7874015748031497,
          "duration": 0.17647049999999354
        },
        {
          "name": "A#3",
          "midi": 58,
          "time": 211.2351884999974,
          "velocity": 0.7874015748031497,
          "duration": 0.17647049999999354
        },
        {
          "name": "F#4",
          "midi": 66,
          "time": 211.4116589999974,
          "velocity": 0.7874015748031497,
          "duration": 0.35294099999998707
        },
        {
          "name": "B4",
          "midi": 71,
          "time": 211.4116589999974,
          "velocity": 0.7874015748031497,
          "duration": 0.35294099999998707
        },
        {
          "name": "B3",
          "midi": 59,
          "time": 211.4116589999974,
          "velocity": 0.7874015748031497,
          "duration": 0.35294099999998707
        },
        {
          "name": "F#3",
          "midi": 54,
          "time": 211.7645999999974,
          "velocity": 0.7874015748031497,
          "duration": 0.35294099999998707
        },
        {
          "name": "B3",
          "midi": 59,
          "time": 211.7645999999974,
          "velocity": 0.7874015748031497,
          "duration": 0.35294099999998707
        },
        {
          "name": "B2",
          "midi": 47,
          "time": 211.7645999999974,
          "velocity": 0.7874015748031497,
          "duration": 0.35294099999998707
        },
        {
          "name": "F#3",
          "midi": 54,
          "time": 212.11754099999737,
          "velocity": 0.7874015748031497,
          "duration": 0.35294099999998707
        },
        {
          "name": "B3",
          "midi": 59,
          "time": 212.11754099999737,
          "velocity": 0.7874015748031497,
          "duration": 0.35294099999998707
        },
        {
          "name": "B2",
          "midi": 47,
          "time": 212.11754099999737,
          "velocity": 0.7874015748031497,
          "duration": 0.35294099999998707
        },
        {
          "name": "A3",
          "midi": 57,
          "time": 212.47048199999736,
          "velocity": 0.7874015748031497,
          "duration": 0.17647049999999354
        },
        {
          "name": "D4",
          "midi": 62,
          "time": 212.47048199999736,
          "velocity": 0.7874015748031497,
          "duration": 0.17647049999999354
        },
        {
          "name": "D3",
          "midi": 50,
          "time": 212.47048199999736,
          "velocity": 0.7874015748031497,
          "duration": 0.17647049999999354
        },
        {
          "name": "A#3",
          "midi": 58,
          "time": 212.64695249999735,
          "velocity": 0.7874015748031497,
          "duration": 0.17647049999999354
        },
        {
          "name": "D#4",
          "midi": 63,
          "time": 212.64695249999735,
          "velocity": 0.7874015748031497,
          "duration": 0.17647049999999354
        },
        {
          "name": "D#3",
          "midi": 51,
          "time": 212.64695249999735,
          "velocity": 0.7874015748031497,
          "duration": 0.17647049999999354
        },
        {
          "name": "B3",
          "midi": 59,
          "time": 212.82342299999735,
          "velocity": 0.7874015748031497,
          "duration": 0.35294099999998707
        },
        {
          "name": "E4",
          "midi": 64,
          "time": 212.82342299999735,
          "velocity": 0.7874015748031497,
          "duration": 0.35294099999998707
        },
        {
          "name": "E3",
          "midi": 52,
          "time": 212.82342299999735,
          "velocity": 0.7874015748031497,
          "duration": 0.35294099999998707
        },
        {
          "name": "B3",
          "midi": 59,
          "time": 213.17636399999733,
          "velocity": 0.7874015748031497,
          "duration": 0.17647049999999354
        },
        {
          "name": "E4",
          "midi": 64,
          "time": 213.17636399999733,
          "velocity": 0.7874015748031497,
          "duration": 0.17647049999999354
        },
        {
          "name": "E3",
          "midi": 52,
          "time": 213.17636399999733,
          "velocity": 0.7874015748031497,
          "duration": 0.17647049999999354
        },
        {
          "name": "C4",
          "midi": 60,
          "time": 213.35283449999733,
          "velocity": 0.7874015748031497,
          "duration": 0.17647049999999354
        },
        {
          "name": "F4",
          "midi": 65,
          "time": 213.35283449999733,
          "velocity": 0.7874015748031497,
          "duration": 0.17647049999999354
        },
        {
          "name": "F3",
          "midi": 53,
          "time": 213.35283449999733,
          "velocity": 0.7874015748031497,
          "duration": 0.17647049999999354
        },
        {
          "name": "C#4",
          "midi": 61,
          "time": 213.52930499999732,
          "velocity": 0.7874015748031497,
          "duration": 0.35294099999998707
        },
        {
          "name": "F#4",
          "midi": 66,
          "time": 213.52930499999732,
          "velocity": 0.7874015748031497,
          "duration": 0.35294099999998707
        },
        {
          "name": "F#3",
          "midi": 54,
          "time": 213.52930499999732,
          "velocity": 0.7874015748031497,
          "duration": 0.35294099999998707
        },
        {
          "name": "F#3",
          "midi": 54,
          "time": 213.8822459999973,
          "velocity": 0.7874015748031497,
          "duration": 0.08823524999999677
        },
        {
          "name": "B2",
          "midi": 47,
          "time": 213.8822459999973,
          "velocity": 0.7874015748031497,
          "duration": 0.08823524999999677
        },
        {
          "name": "B2",
          "midi": 47,
          "time": 214.0587164999973,
          "velocity": 0.7874015748031497,
          "duration": 0.08823524999999677
        },
        {
          "name": "F#3",
          "midi": 54,
          "time": 214.0587164999973,
          "velocity": 0.7874015748031497,
          "duration": 0.08823524999999677
        },
        {
          "name": "B2",
          "midi": 47,
          "time": 214.2351869999973,
          "velocity": 0.7874015748031497,
          "duration": 0.08823524999999677
        },
        {
          "name": "F#3",
          "midi": 54,
          "time": 214.2351869999973,
          "velocity": 0.7874015748031497,
          "duration": 0.08823524999999677
        },
        {
          "name": "B3",
          "midi": 59,
          "time": 214.58812799999728,
          "velocity": 0.7874015748031497,
          "duration": 0.7058820000000026
        },
        {
          "name": "F#3",
          "midi": 54,
          "time": 214.58812799999728,
          "velocity": 0.7874015748031497,
          "duration": 0.7058820000000026
        },
        {
          "name": "B2",
          "midi": 47,
          "time": 214.58812799999728,
          "velocity": 0.7874015748031497,
          "duration": 0.7058820000000026
        },
        {
          "name": "D4",
          "midi": 62,
          "time": 215.2940099999973,
          "velocity": 0.7874015748031497,
          "duration": 0.7058820000000026
        },
        {
          "name": "A3",
          "midi": 57,
          "time": 215.2940099999973,
          "velocity": 0.7874015748031497,
          "duration": 0.7058820000000026
        },
        {
          "name": "D3",
          "midi": 50,
          "time": 215.2940099999973,
          "velocity": 0.7874015748031497,
          "duration": 0.7058820000000026
        },
        {
          "name": "D4",
          "midi": 62,
          "time": 215.9998919999973,
          "velocity": 0.7874015748031497,
          "duration": 0.35294099999998707
        },
        {
          "name": "A3",
          "midi": 57,
          "time": 215.9998919999973,
          "velocity": 0.7874015748031497,
          "duration": 0.35294099999998707
        },
        {
          "name": "D3",
          "midi": 50,
          "time": 215.9998919999973,
          "velocity": 0.7874015748031497,
          "duration": 0.35294099999998707
        },
        {
          "name": "E4",
          "midi": 64,
          "time": 216.35283299999728,
          "velocity": 0.7874015748031497,
          "duration": 0.35294099999998707
        },
        {
          "name": "B3",
          "midi": 59,
          "time": 216.35283299999728,
          "velocity": 0.7874015748031497,
          "duration": 0.35294099999998707
        },
        {
          "name": "E3",
          "midi": 52,
          "time": 216.35283299999728,
          "velocity": 0.7874015748031497,
          "duration": 0.35294099999998707
        },
        {
          "name": "E4",
          "midi": 64,
          "time": 216.70577399999726,
          "velocity": 0.7874015748031497,
          "duration": 0.7058820000000026
        },
        {
          "name": "B3",
          "midi": 59,
          "time": 216.70577399999726,
          "velocity": 0.7874015748031497,
          "duration": 0.7058820000000026
        },
        {
          "name": "E3",
          "midi": 52,
          "time": 216.70577399999726,
          "velocity": 0.7874015748031497,
          "duration": 0.7058820000000026
        },
        {
          "name": "G4",
          "midi": 67,
          "time": 217.41165599999727,
          "velocity": 0.7874015748031497,
          "duration": 0.17647049999999354
        },
        {
          "name": "D4",
          "midi": 62,
          "time": 217.41165599999727,
          "velocity": 0.7874015748031497,
          "duration": 0.17647049999999354
        },
        {
          "name": "G3",
          "midi": 55,
          "time": 217.41165599999727,
          "velocity": 0.7874015748031497,
          "duration": 0.17647049999999354
        },
        {
          "name": "F#4",
          "midi": 66,
          "time": 217.58812649999726,
          "velocity": 0.7874015748031497,
          "duration": 0.17647049999999354
        },
        {
          "name": "C#4",
          "midi": 61,
          "time": 217.58812649999726,
          "velocity": 0.7874015748031497,
          "duration": 0.17647049999999354
        },
        {
          "name": "F#3",
          "midi": 54,
          "time": 217.58812649999726,
          "velocity": 0.7874015748031497,
          "duration": 0.17647049999999354
        },
        {
          "name": "G4",
          "midi": 67,
          "time": 217.76459699999725,
          "velocity": 0.7874015748031497,
          "duration": 0.17647049999999354
        },
        {
          "name": "D4",
          "midi": 62,
          "time": 217.76459699999725,
          "velocity": 0.7874015748031497,
          "duration": 0.17647049999999354
        },
        {
          "name": "G3",
          "midi": 55,
          "time": 217.76459699999725,
          "velocity": 0.7874015748031497,
          "duration": 0.17647049999999354
        },
        {
          "name": "F#4",
          "midi": 66,
          "time": 217.94106749999725,
          "velocity": 0.7874015748031497,
          "duration": 0.17647049999999354
        },
        {
          "name": "C#4",
          "midi": 61,
          "time": 217.94106749999725,
          "velocity": 0.7874015748031497,
          "duration": 0.17647049999999354
        },
        {
          "name": "F#3",
          "midi": 54,
          "time": 217.94106749999725,
          "velocity": 0.7874015748031497,
          "duration": 0.17647049999999354
        },
        {
          "name": "G4",
          "midi": 67,
          "time": 218.11753799999724,
          "velocity": 0.7874015748031497,
          "duration": 0.17647049999999354
        },
        {
          "name": "D4",
          "midi": 62,
          "time": 218.11753799999724,
          "velocity": 0.7874015748031497,
          "duration": 0.17647049999999354
        },
        {
          "name": "G3",
          "midi": 55,
          "time": 218.11753799999724,
          "velocity": 0.7874015748031497,
          "duration": 0.17647049999999354
        },
        {
          "name": "F#4",
          "midi": 66,
          "time": 218.29400849999723,
          "velocity": 0.7874015748031497,
          "duration": 0.17647049999999354
        },
        {
          "name": "C#4",
          "midi": 61,
          "time": 218.29400849999723,
          "velocity": 0.7874015748031497,
          "duration": 0.17647049999999354
        },
        {
          "name": "F#3",
          "midi": 54,
          "time": 218.29400849999723,
          "velocity": 0.7874015748031497,
          "duration": 0.17647049999999354
        },
        {
          "name": "D4",
          "midi": 62,
          "time": 218.47047899999723,
          "velocity": 0.7874015748031497,
          "duration": 0.34411747499999024
        },
        {
          "name": "A3",
          "midi": 57,
          "time": 218.47047899999723,
          "velocity": 0.7874015748031497,
          "duration": 0.34411747499999024
        },
        {
          "name": "D3",
          "midi": 50,
          "time": 218.47047899999723,
          "velocity": 0.7874015748031497,
          "duration": 0.34411747499999024
        },
        {
          "name": "D4",
          "midi": 62,
          "time": 218.8234199999972,
          "velocity": 0.7874015748031497,
          "duration": 0.35294099999998707
        },
        {
          "name": "A3",
          "midi": 57,
          "time": 218.8234199999972,
          "velocity": 0.7874015748031497,
          "duration": 0.35294099999998707
        },
        {
          "name": "D3",
          "midi": 50,
          "time": 218.8234199999972,
          "velocity": 0.7874015748031497,
          "duration": 0.35294099999998707
        },
        {
          "name": "E4",
          "midi": 64,
          "time": 219.1763609999972,
          "velocity": 0.7874015748031497,
          "duration": 0.35294099999998707
        },
        {
          "name": "B3",
          "midi": 59,
          "time": 219.1763609999972,
          "velocity": 0.7874015748031497,
          "duration": 0.35294099999998707
        },
        {
          "name": "E3",
          "midi": 52,
          "time": 219.1763609999972,
          "velocity": 0.7874015748031497,
          "duration": 0.35294099999998707
        },
        {
          "name": "E4",
          "midi": 64,
          "time": 219.5293019999972,
          "velocity": 0.7874015748031497,
          "duration": 0.7058820000000026
        },
        {
          "name": "B3",
          "midi": 59,
          "time": 219.5293019999972,
          "velocity": 0.7874015748031497,
          "duration": 0.7058820000000026
        },
        {
          "name": "E3",
          "midi": 52,
          "time": 219.5293019999972,
          "velocity": 0.7874015748031497,
          "duration": 0.7058820000000026
        },
        {
          "name": "B3",
          "midi": 59,
          "time": 220.2351839999972,
          "velocity": 0.7874015748031497,
          "duration": 0.7058820000000026
        },
        {
          "name": "F#3",
          "midi": 54,
          "time": 220.2351839999972,
          "velocity": 0.7874015748031497,
          "duration": 0.7058820000000026
        },
        {
          "name": "B2",
          "midi": 47,
          "time": 220.2351839999972,
          "velocity": 0.7874015748031497,
          "duration": 0.7058820000000026
        },
        {
          "name": "D4",
          "midi": 62,
          "time": 220.9410659999972,
          "velocity": 0.7874015748031497,
          "duration": 0.7058820000000026
        },
        {
          "name": "A3",
          "midi": 57,
          "time": 220.9410659999972,
          "velocity": 0.7874015748031497,
          "duration": 0.7058820000000026
        },
        {
          "name": "D3",
          "midi": 50,
          "time": 220.9410659999972,
          "velocity": 0.7874015748031497,
          "duration": 0.7058820000000026
        },
        {
          "name": "D4",
          "midi": 62,
          "time": 221.6469479999972,
          "velocity": 0.7874015748031497,
          "duration": 0.35294099999998707
        },
        {
          "name": "A3",
          "midi": 57,
          "time": 221.6469479999972,
          "velocity": 0.7874015748031497,
          "duration": 0.35294099999998707
        },
        {
          "name": "D3",
          "midi": 50,
          "time": 221.6469479999972,
          "velocity": 0.7874015748031497,
          "duration": 0.35294099999998707
        },
        {
          "name": "E4",
          "midi": 64,
          "time": 221.99988899999718,
          "velocity": 0.7874015748031497,
          "duration": 0.35294099999998707
        },
        {
          "name": "B3",
          "midi": 59,
          "time": 221.99988899999718,
          "velocity": 0.7874015748031497,
          "duration": 0.35294099999998707
        },
        {
          "name": "E3",
          "midi": 52,
          "time": 221.99988899999718,
          "velocity": 0.7874015748031497,
          "duration": 0.35294099999998707
        },
        {
          "name": "E4",
          "midi": 64,
          "time": 222.35282999999717,
          "velocity": 0.7874015748031497,
          "duration": 0.7058820000000026
        },
        {
          "name": "B3",
          "midi": 59,
          "time": 222.35282999999717,
          "velocity": 0.7874015748031497,
          "duration": 0.7058820000000026
        },
        {
          "name": "E3",
          "midi": 52,
          "time": 222.35282999999717,
          "velocity": 0.7874015748031497,
          "duration": 0.7058820000000026
        },
        {
          "name": "G4",
          "midi": 67,
          "time": 223.05871199999717,
          "velocity": 0.7874015748031497,
          "duration": 0.17647049999999354
        },
        {
          "name": "D4",
          "midi": 62,
          "time": 223.05871199999717,
          "velocity": 0.7874015748031497,
          "duration": 0.17647049999999354
        },
        {
          "name": "G3",
          "midi": 55,
          "time": 223.05871199999717,
          "velocity": 0.7874015748031497,
          "duration": 0.17647049999999354
        },
        {
          "name": "F#4",
          "midi": 66,
          "time": 223.23518249999717,
          "velocity": 0.7874015748031497,
          "duration": 0.17647049999999354
        },
        {
          "name": "C#4",
          "midi": 61,
          "time": 223.23518249999717,
          "velocity": 0.7874015748031497,
          "duration": 0.17647049999999354
        },
        {
          "name": "F#3",
          "midi": 54,
          "time": 223.23518249999717,
          "velocity": 0.7874015748031497,
          "duration": 0.17647049999999354
        },
        {
          "name": "G4",
          "midi": 67,
          "time": 223.41165299999716,
          "velocity": 0.7874015748031497,
          "duration": 0.17647049999999354
        },
        {
          "name": "D4",
          "midi": 62,
          "time": 223.41165299999716,
          "velocity": 0.7874015748031497,
          "duration": 0.17647049999999354
        },
        {
          "name": "G3",
          "midi": 55,
          "time": 223.41165299999716,
          "velocity": 0.7874015748031497,
          "duration": 0.17647049999999354
        },
        {
          "name": "F#4",
          "midi": 66,
          "time": 223.58812349999715,
          "velocity": 0.7874015748031497,
          "duration": 0.17647049999999354
        },
        {
          "name": "C#4",
          "midi": 61,
          "time": 223.58812349999715,
          "velocity": 0.7874015748031497,
          "duration": 0.17647049999999354
        },
        {
          "name": "F#3",
          "midi": 54,
          "time": 223.58812349999715,
          "velocity": 0.7874015748031497,
          "duration": 0.17647049999999354
        },
        {
          "name": "G4",
          "midi": 67,
          "time": 223.76459399999715,
          "velocity": 0.7874015748031497,
          "duration": 0.17647049999999354
        },
        {
          "name": "D4",
          "midi": 62,
          "time": 223.76459399999715,
          "velocity": 0.7874015748031497,
          "duration": 0.17647049999999354
        },
        {
          "name": "G3",
          "midi": 55,
          "time": 223.76459399999715,
          "velocity": 0.7874015748031497,
          "duration": 0.17647049999999354
        },
        {
          "name": "F#4",
          "midi": 66,
          "time": 223.94106449999714,
          "velocity": 0.7874015748031497,
          "duration": 0.17647049999999354
        },
        {
          "name": "C#4",
          "midi": 61,
          "time": 223.94106449999714,
          "velocity": 0.7874015748031497,
          "duration": 0.17647049999999354
        },
        {
          "name": "F#3",
          "midi": 54,
          "time": 223.94106449999714,
          "velocity": 0.7874015748031497,
          "duration": 0.17647049999999354
        },
        {
          "name": "D4",
          "midi": 62,
          "time": 224.11753499999713,
          "velocity": 0.7874015748031497,
          "duration": 0.34411747499999024
        },
        {
          "name": "A3",
          "midi": 57,
          "time": 224.11753499999713,
          "velocity": 0.7874015748031497,
          "duration": 0.34411747499999024
        },
        {
          "name": "D3",
          "midi": 50,
          "time": 224.11753499999713,
          "velocity": 0.7874015748031497,
          "duration": 0.34411747499999024
        },
        {
          "name": "D4",
          "midi": 62,
          "time": 224.47047599999712,
          "velocity": 0.7874015748031497,
          "duration": 0.35294099999998707
        },
        {
          "name": "A3",
          "midi": 57,
          "time": 224.47047599999712,
          "velocity": 0.7874015748031497,
          "duration": 0.35294099999998707
        },
        {
          "name": "D3",
          "midi": 50,
          "time": 224.47047599999712,
          "velocity": 0.7874015748031497,
          "duration": 0.35294099999998707
        },
        {
          "name": "E4",
          "midi": 64,
          "time": 224.8234169999971,
          "velocity": 0.7874015748031497,
          "duration": 0.35294099999998707
        },
        {
          "name": "B3",
          "midi": 59,
          "time": 224.8234169999971,
          "velocity": 0.7874015748031497,
          "duration": 0.35294099999998707
        },
        {
          "name": "E3",
          "midi": 52,
          "time": 224.8234169999971,
          "velocity": 0.7874015748031497,
          "duration": 0.35294099999998707
        },
        {
          "name": "E4",
          "midi": 64,
          "time": 225.1763579999971,
          "velocity": 0.7874015748031497,
          "duration": 0.7058820000000026
        },
        {
          "name": "B3",
          "midi": 59,
          "time": 225.1763579999971,
          "velocity": 0.7874015748031497,
          "duration": 0.7058820000000026
        },
        {
          "name": "E3",
          "midi": 52,
          "time": 225.1763579999971,
          "velocity": 0.7874015748031497,
          "duration": 0.7058820000000026
        },
        {
          "name": "B3",
          "midi": 59,
          "time": 225.8822399999971,
          "velocity": 0.7874015748031497,
          "duration": 0.7058820000000026
        },
        {
          "name": "F#3",
          "midi": 54,
          "time": 225.8822399999971,
          "velocity": 0.7874015748031497,
          "duration": 0.7058820000000026
        },
        {
          "name": "B2",
          "midi": 47,
          "time": 225.8822399999971,
          "velocity": 0.7874015748031497,
          "duration": 0.7058820000000026
        },
        {
          "name": "D4",
          "midi": 62,
          "time": 226.5881219999971,
          "velocity": 0.7874015748031497,
          "duration": 0.7058820000000026
        },
        {
          "name": "A3",
          "midi": 57,
          "time": 226.5881219999971,
          "velocity": 0.7874015748031497,
          "duration": 0.7058820000000026
        },
        {
          "name": "D3",
          "midi": 50,
          "time": 226.5881219999971,
          "velocity": 0.7874015748031497,
          "duration": 0.7058820000000026
        },
        {
          "name": "D4",
          "midi": 62,
          "time": 227.2940039999971,
          "velocity": 0.7874015748031497,
          "duration": 0.35294099999998707
        },
        {
          "name": "A3",
          "midi": 57,
          "time": 227.2940039999971,
          "velocity": 0.7874015748031497,
          "duration": 0.35294099999998707
        },
        {
          "name": "D3",
          "midi": 50,
          "time": 227.2940039999971,
          "velocity": 0.7874015748031497,
          "duration": 0.35294099999998707
        },
        {
          "name": "E4",
          "midi": 64,
          "time": 227.6469449999971,
          "velocity": 0.7874015748031497,
          "duration": 0.35294099999998707
        },
        {
          "name": "B3",
          "midi": 59,
          "time": 227.6469449999971,
          "velocity": 0.7874015748031497,
          "duration": 0.35294099999998707
        },
        {
          "name": "E3",
          "midi": 52,
          "time": 227.6469449999971,
          "velocity": 0.7874015748031497,
          "duration": 0.35294099999998707
        },
        {
          "name": "E4",
          "midi": 64,
          "time": 227.99988599999708,
          "velocity": 0.7874015748031497,
          "duration": 0.7058820000000026
        },
        {
          "name": "B3",
          "midi": 59,
          "time": 227.99988599999708,
          "velocity": 0.7874015748031497,
          "duration": 0.7058820000000026
        },
        {
          "name": "E3",
          "midi": 52,
          "time": 227.99988599999708,
          "velocity": 0.7874015748031497,
          "duration": 0.7058820000000026
        },
        {
          "name": "G4",
          "midi": 67,
          "time": 228.70576799999708,
          "velocity": 0.7874015748031497,
          "duration": 0.17647049999999354
        },
        {
          "name": "D4",
          "midi": 62,
          "time": 228.70576799999708,
          "velocity": 0.7874015748031497,
          "duration": 0.17647049999999354
        },
        {
          "name": "G3",
          "midi": 55,
          "time": 228.70576799999708,
          "velocity": 0.7874015748031497,
          "duration": 0.17647049999999354
        },
        {
          "name": "F#4",
          "midi": 66,
          "time": 228.88223849999707,
          "velocity": 0.7874015748031497,
          "duration": 0.17647049999999354
        },
        {
          "name": "C#4",
          "midi": 61,
          "time": 228.88223849999707,
          "velocity": 0.7874015748031497,
          "duration": 0.17647049999999354
        },
        {
          "name": "F#3",
          "midi": 54,
          "time": 228.88223849999707,
          "velocity": 0.7874015748031497,
          "duration": 0.17647049999999354
        },
        {
          "name": "G4",
          "midi": 67,
          "time": 229.05870899999707,
          "velocity": 0.7874015748031497,
          "duration": 0.17647049999999354
        },
        {
          "name": "D4",
          "midi": 62,
          "time": 229.05870899999707,
          "velocity": 0.7874015748031497,
          "duration": 0.17647049999999354
        },
        {
          "name": "G3",
          "midi": 55,
          "time": 229.05870899999707,
          "velocity": 0.7874015748031497,
          "duration": 0.17647049999999354
        },
        {
          "name": "F#4",
          "midi": 66,
          "time": 229.23517949999706,
          "velocity": 0.7874015748031497,
          "duration": 0.17647049999999354
        },
        {
          "name": "C#4",
          "midi": 61,
          "time": 229.23517949999706,
          "velocity": 0.7874015748031497,
          "duration": 0.17647049999999354
        },
        {
          "name": "F#3",
          "midi": 54,
          "time": 229.23517949999706,
          "velocity": 0.7874015748031497,
          "duration": 0.17647049999999354
        },
        {
          "name": "G4",
          "midi": 67,
          "time": 229.41164999999705,
          "velocity": 0.7874015748031497,
          "duration": 0.17647049999999354
        },
        {
          "name": "D4",
          "midi": 62,
          "time": 229.41164999999705,
          "velocity": 0.7874015748031497,
          "duration": 0.17647049999999354
        },
        {
          "name": "G3",
          "midi": 55,
          "time": 229.41164999999705,
          "velocity": 0.7874015748031497,
          "duration": 0.17647049999999354
        },
        {
          "name": "F#4",
          "midi": 66,
          "time": 229.58812049999705,
          "velocity": 0.7874015748031497,
          "duration": 0.17647049999999354
        },
        {
          "name": "C#4",
          "midi": 61,
          "time": 229.58812049999705,
          "velocity": 0.7874015748031497,
          "duration": 0.17647049999999354
        },
        {
          "name": "F#3",
          "midi": 54,
          "time": 229.58812049999705,
          "velocity": 0.7874015748031497,
          "duration": 0.17647049999999354
        },
        {
          "name": "D4",
          "midi": 62,
          "time": 229.76459099999704,
          "velocity": 0.7874015748031497,
          "duration": 0.34411747499999024
        },
        {
          "name": "A3",
          "midi": 57,
          "time": 229.76459099999704,
          "velocity": 0.7874015748031497,
          "duration": 0.34411747499999024
        },
        {
          "name": "D3",
          "midi": 50,
          "time": 229.76459099999704,
          "velocity": 0.7874015748031497,
          "duration": 0.34411747499999024
        },
        {
          "name": "D4",
          "midi": 62,
          "time": 230.11753199999703,
          "velocity": 0.7874015748031497,
          "duration": 0.35294099999998707
        },
        {
          "name": "A3",
          "midi": 57,
          "time": 230.11753199999703,
          "velocity": 0.7874015748031497,
          "duration": 0.35294099999998707
        },
        {
          "name": "D3",
          "midi": 50,
          "time": 230.11753199999703,
          "velocity": 0.7874015748031497,
          "duration": 0.35294099999998707
        },
        {
          "name": "E4",
          "midi": 64,
          "time": 230.470472999997,
          "velocity": 0.7874015748031497,
          "duration": 0.35294099999998707
        },
        {
          "name": "B3",
          "midi": 59,
          "time": 230.470472999997,
          "velocity": 0.7874015748031497,
          "duration": 0.35294099999998707
        },
        {
          "name": "E3",
          "midi": 52,
          "time": 230.470472999997,
          "velocity": 0.7874015748031497,
          "duration": 0.35294099999998707
        },
        {
          "name": "E4",
          "midi": 64,
          "time": 230.823413999997,
          "velocity": 0.7874015748031497,
          "duration": 0.7058820000000026
        },
        {
          "name": "B3",
          "midi": 59,
          "time": 230.823413999997,
          "velocity": 0.7874015748031497,
          "duration": 0.7058820000000026
        },
        {
          "name": "E3",
          "midi": 52,
          "time": 230.823413999997,
          "velocity": 0.7874015748031497,
          "duration": 0.7058820000000026
        },
        {
          "name": "B3",
          "midi": 59,
          "time": 231.529295999997,
          "velocity": 0.7874015748031497,
          "duration": 0.7058820000000026
        },
        {
          "name": "F#3",
          "midi": 54,
          "time": 231.529295999997,
          "velocity": 0.7874015748031497,
          "duration": 0.7058820000000026
        },
        {
          "name": "B2",
          "midi": 47,
          "time": 231.529295999997,
          "velocity": 0.7874015748031497,
          "duration": 0.7058820000000026
        },
        {
          "name": "D4",
          "midi": 62,
          "time": 232.235177999997,
          "velocity": 0.7874015748031497,
          "duration": 0.7058820000000026
        },
        {
          "name": "A3",
          "midi": 57,
          "time": 232.235177999997,
          "velocity": 0.7874015748031497,
          "duration": 0.7058820000000026
        },
        {
          "name": "D3",
          "midi": 50,
          "time": 232.235177999997,
          "velocity": 0.7874015748031497,
          "duration": 0.7058820000000026
        },
        {
          "name": "D4",
          "midi": 62,
          "time": 232.941059999997,
          "velocity": 0.7874015748031497,
          "duration": 0.35294099999998707
        },
        {
          "name": "A3",
          "midi": 57,
          "time": 232.941059999997,
          "velocity": 0.7874015748031497,
          "duration": 0.35294099999998707
        },
        {
          "name": "D3",
          "midi": 50,
          "time": 232.941059999997,
          "velocity": 0.7874015748031497,
          "duration": 0.35294099999998707
        },
        {
          "name": "E4",
          "midi": 64,
          "time": 233.294000999997,
          "velocity": 0.7874015748031497,
          "duration": 0.35294099999998707
        },
        {
          "name": "B3",
          "midi": 59,
          "time": 233.294000999997,
          "velocity": 0.7874015748031497,
          "duration": 0.35294099999998707
        },
        {
          "name": "E3",
          "midi": 52,
          "time": 233.294000999997,
          "velocity": 0.7874015748031497,
          "duration": 0.35294099999998707
        },
        {
          "name": "E4",
          "midi": 64,
          "time": 233.64694199999698,
          "velocity": 0.7874015748031497,
          "duration": 0.7058820000000026
        },
        {
          "name": "B3",
          "midi": 59,
          "time": 233.64694199999698,
          "velocity": 0.7874015748031497,
          "duration": 0.7058820000000026
        },
        {
          "name": "E3",
          "midi": 52,
          "time": 233.64694199999698,
          "velocity": 0.7874015748031497,
          "duration": 0.7058820000000026
        },
        {
          "name": "G4",
          "midi": 67,
          "time": 234.35282399999699,
          "velocity": 0.7874015748031497,
          "duration": 0.17647049999999354
        },
        {
          "name": "D4",
          "midi": 62,
          "time": 234.35282399999699,
          "velocity": 0.7874015748031497,
          "duration": 0.17647049999999354
        },
        {
          "name": "G3",
          "midi": 55,
          "time": 234.35282399999699,
          "velocity": 0.7874015748031497,
          "duration": 0.17647049999999354
        },
        {
          "name": "F#4",
          "midi": 66,
          "time": 234.52929449999698,
          "velocity": 0.7874015748031497,
          "duration": 0.17647049999999354
        },
        {
          "name": "C#4",
          "midi": 61,
          "time": 234.52929449999698,
          "velocity": 0.7874015748031497,
          "duration": 0.17647049999999354
        },
        {
          "name": "F#3",
          "midi": 54,
          "time": 234.52929449999698,
          "velocity": 0.7874015748031497,
          "duration": 0.17647049999999354
        },
        {
          "name": "G4",
          "midi": 67,
          "time": 234.70576499999697,
          "velocity": 0.7874015748031497,
          "duration": 0.17647049999999354
        },
        {
          "name": "D4",
          "midi": 62,
          "time": 234.70576499999697,
          "velocity": 0.7874015748031497,
          "duration": 0.17647049999999354
        },
        {
          "name": "G3",
          "midi": 55,
          "time": 234.70576499999697,
          "velocity": 0.7874015748031497,
          "duration": 0.17647049999999354
        },
        {
          "name": "F#4",
          "midi": 66,
          "time": 234.88223549999697,
          "velocity": 0.7874015748031497,
          "duration": 0.17647049999999354
        },
        {
          "name": "C#4",
          "midi": 61,
          "time": 234.88223549999697,
          "velocity": 0.7874015748031497,
          "duration": 0.17647049999999354
        },
        {
          "name": "F#3",
          "midi": 54,
          "time": 234.88223549999697,
          "velocity": 0.7874015748031497,
          "duration": 0.17647049999999354
        },
        {
          "name": "G4",
          "midi": 67,
          "time": 235.05870599999696,
          "velocity": 0.7874015748031497,
          "duration": 0.17647049999999354
        },
        {
          "name": "D4",
          "midi": 62,
          "time": 235.05870599999696,
          "velocity": 0.7874015748031497,
          "duration": 0.17647049999999354
        },
        {
          "name": "G3",
          "midi": 55,
          "time": 235.05870599999696,
          "velocity": 0.7874015748031497,
          "duration": 0.17647049999999354
        },
        {
          "name": "F#4",
          "midi": 66,
          "time": 235.23517649999695,
          "velocity": 0.7874015748031497,
          "duration": 0.17647049999999354
        },
        {
          "name": "C#4",
          "midi": 61,
          "time": 235.23517649999695,
          "velocity": 0.7874015748031497,
          "duration": 0.17647049999999354
        },
        {
          "name": "F#3",
          "midi": 54,
          "time": 235.23517649999695,
          "velocity": 0.7874015748031497,
          "duration": 0.17647049999999354
        },
        {
          "name": "D4",
          "midi": 62,
          "time": 235.41164699999695,
          "velocity": 0.7874015748031497,
          "duration": 0.34411747499999024
        },
        {
          "name": "A3",
          "midi": 57,
          "time": 235.41164699999695,
          "velocity": 0.7874015748031497,
          "duration": 0.34411747499999024
        },
        {
          "name": "D3",
          "midi": 50,
          "time": 235.41164699999695,
          "velocity": 0.7874015748031497,
          "duration": 0.34411747499999024
        },
        {
          "name": "D4",
          "midi": 62,
          "time": 235.76458799999693,
          "velocity": 0.7874015748031497,
          "duration": 0.35294099999998707
        },
        {
          "name": "A3",
          "midi": 57,
          "time": 235.76458799999693,
          "velocity": 0.7874015748031497,
          "duration": 0.35294099999998707
        },
        {
          "name": "D3",
          "midi": 50,
          "time": 235.76458799999693,
          "velocity": 0.7874015748031497,
          "duration": 0.35294099999998707
        },
        {
          "name": "E4",
          "midi": 64,
          "time": 236.11752899999692,
          "velocity": 0.7874015748031497,
          "duration": 0.35294099999998707
        },
        {
          "name": "B3",
          "midi": 59,
          "time": 236.11752899999692,
          "velocity": 0.7874015748031497,
          "duration": 0.35294099999998707
        },
        {
          "name": "E3",
          "midi": 52,
          "time": 236.11752899999692,
          "velocity": 0.7874015748031497,
          "duration": 0.35294099999998707
        },
        {
          "name": "E4",
          "midi": 64,
          "time": 236.4704699999969,
          "velocity": 0.7874015748031497,
          "duration": 0.7058820000000026
        },
        {
          "name": "B3",
          "midi": 59,
          "time": 236.4704699999969,
          "velocity": 0.7874015748031497,
          "duration": 0.7058820000000026
        },
        {
          "name": "E3",
          "midi": 52,
          "time": 236.4704699999969,
          "velocity": 0.7874015748031497,
          "duration": 0.7058820000000026
        },
        {
          "name": "F#3",
          "midi": 54,
          "time": 237.1763519999969,
          "velocity": 0.7874015748031497,
          "duration": 0.35294099999998707
        },
        {
          "name": "B3",
          "midi": 59,
          "time": 237.1763519999969,
          "velocity": 0.7874015748031497,
          "duration": 0.35294099999998707
        },
        {
          "name": "B2",
          "midi": 47,
          "time": 237.1763519999969,
          "velocity": 0.7874015748031497,
          "duration": 0.35294099999998707
        },
        {
          "name": "F#3",
          "midi": 54,
          "time": 237.5292929999969,
          "velocity": 0.7874015748031497,
          "duration": 0.35294099999998707
        },
        {
          "name": "B3",
          "midi": 59,
          "time": 237.5292929999969,
          "velocity": 0.7874015748031497,
          "duration": 0.35294099999998707
        },
        {
          "name": "B2",
          "midi": 47,
          "time": 237.5292929999969,
          "velocity": 0.7874015748031497,
          "duration": 0.35294099999998707
        },
        {
          "name": "E2",
          "midi": 40,
          "time": 237.88223399999688,
          "velocity": 0.7874015748031497,
          "duration": 0.08823524999999677
        },
        {
          "name": "B1",
          "midi": 35,
          "time": 237.88223399999688,
          "velocity": 0.7874015748031497,
          "duration": 0.08823524999999677
        },
        {
          "name": "E2",
          "midi": 40,
          "time": 238.05870449999688,
          "velocity": 0.7874015748031497,
          "duration": 0.08823524999999677
        },
        {
          "name": "B1",
          "midi": 35,
          "time": 238.05870449999688,
          "velocity": 0.7874015748031497,
          "duration": 0.08823524999999677
        },
        {
          "name": "A3",
          "midi": 57,
          "time": 238.23517499999687,
          "velocity": 0.7874015748031497,
          "duration": 0.35294099999998707
        },
        {
          "name": "D4",
          "midi": 62,
          "time": 238.23517499999687,
          "velocity": 0.7874015748031497,
          "duration": 0.35294099999998707
        },
        {
          "name": "D3",
          "midi": 50,
          "time": 238.23517499999687,
          "velocity": 0.7874015748031497,
          "duration": 0.35294099999998707
        },
        {
          "name": "E2",
          "midi": 40,
          "time": 238.58811599999686,
          "velocity": 0.7874015748031497,
          "duration": 0.08823524999999677
        },
        {
          "name": "B1",
          "midi": 35,
          "time": 238.58811599999686,
          "velocity": 0.7874015748031497,
          "duration": 0.08823524999999677
        },
        {
          "name": "E2",
          "midi": 40,
          "time": 238.76458649999685,
          "velocity": 0.7874015748031497,
          "duration": 0.08823524999999677
        },
        {
          "name": "B1",
          "midi": 35,
          "time": 238.76458649999685,
          "velocity": 0.7874015748031497,
          "duration": 0.08823524999999677
        },
        {
          "name": "F#3",
          "midi": 54,
          "time": 238.94105699999685,
          "velocity": 0.7874015748031497,
          "duration": 0.35294099999998707
        },
        {
          "name": "B3",
          "midi": 59,
          "time": 238.94105699999685,
          "velocity": 0.7874015748031497,
          "duration": 0.35294099999998707
        },
        {
          "name": "B2",
          "midi": 47,
          "time": 238.94105699999685,
          "velocity": 0.7874015748031497,
          "duration": 0.35294099999998707
        },
        {
          "name": "F#3",
          "midi": 54,
          "time": 239.29399799999683,
          "velocity": 0.7874015748031497,
          "duration": 0.35294099999998707
        },
        {
          "name": "B3",
          "midi": 59,
          "time": 239.29399799999683,
          "velocity": 0.7874015748031497,
          "duration": 0.35294099999998707
        },
        {
          "name": "B2",
          "midi": 47,
          "time": 239.29399799999683,
          "velocity": 0.7874015748031497,
          "duration": 0.35294099999998707
        },
        {
          "name": "F3",
          "midi": 53,
          "time": 239.64693899999682,
          "velocity": 0.7874015748031497,
          "duration": 0.35294099999998707
        },
        {
          "name": "A#3",
          "midi": 58,
          "time": 239.64693899999682,
          "velocity": 0.7874015748031497,
          "duration": 0.35294099999998707
        },
        {
          "name": "A#2",
          "midi": 46,
          "time": 239.64693899999682,
          "velocity": 0.7874015748031497,
          "duration": 0.35294099999998707
        },
        {
          "name": "E3",
          "midi": 52,
          "time": 239.9998799999968,
          "velocity": 0.7874015748031497,
          "duration": 0.35294099999998707
        },
        {
          "name": "A3",
          "midi": 57,
          "time": 239.9998799999968,
          "velocity": 0.7874015748031497,
          "duration": 0.35294099999998707
        },
        {
          "name": "A2",
          "midi": 45,
          "time": 239.9998799999968,
          "velocity": 0.7874015748031497,
          "duration": 0.35294099999998707
        },
        {
          "name": "E3",
          "midi": 52,
          "time": 240.3528209999968,
          "velocity": 0.7874015748031497,
          "duration": 0.35294099999998707
        },
        {
          "name": "A3",
          "midi": 57,
          "time": 240.3528209999968,
          "velocity": 0.7874015748031497,
          "duration": 0.35294099999998707
        },
        {
          "name": "A2",
          "midi": 45,
          "time": 240.3528209999968,
          "velocity": 0.7874015748031497,
          "duration": 0.35294099999998707
        },
        {
          "name": "D2",
          "midi": 38,
          "time": 240.70576199999678,
          "velocity": 0.7874015748031497,
          "duration": 0.08823524999999677
        },
        {
          "name": "A1",
          "midi": 33,
          "time": 240.70576199999678,
          "velocity": 0.7874015748031497,
          "duration": 0.08823524999999677
        },
        {
          "name": "D2",
          "midi": 38,
          "time": 240.88223249999677,
          "velocity": 0.7874015748031497,
          "duration": 0.08823524999999677
        },
        {
          "name": "A1",
          "midi": 33,
          "time": 240.88223249999677,
          "velocity": 0.7874015748031497,
          "duration": 0.08823524999999677
        },
        {
          "name": "D2",
          "midi": 38,
          "time": 241.05870299999677,
          "velocity": 0.7874015748031497,
          "duration": 0.08823524999999677
        },
        {
          "name": "A1",
          "midi": 33,
          "time": 241.05870299999677,
          "velocity": 0.7874015748031497,
          "duration": 0.08823524999999677
        },
        {
          "name": "D#3",
          "midi": 51,
          "time": 241.23517349999676,
          "velocity": 0.7874015748031497,
          "duration": 0.17647049999999354
        },
        {
          "name": "G#3",
          "midi": 56,
          "time": 241.23517349999676,
          "velocity": 0.7874015748031497,
          "duration": 0.17647049999999354
        },
        {
          "name": "G#2",
          "midi": 44,
          "time": 241.23517349999676,
          "velocity": 0.7874015748031497,
          "duration": 0.17647049999999354
        },
        {
          "name": "D#3",
          "midi": 51,
          "time": 241.41164399999676,
          "velocity": 0.7874015748031497,
          "duration": 0.17647049999999354
        },
        {
          "name": "G#3",
          "midi": 56,
          "time": 241.41164399999676,
          "velocity": 0.7874015748031497,
          "duration": 0.17647049999999354
        },
        {
          "name": "G#2",
          "midi": 44,
          "time": 241.41164399999676,
          "velocity": 0.7874015748031497,
          "duration": 0.17647049999999354
        },
        {
          "name": "E3",
          "midi": 52,
          "time": 241.58811449999675,
          "velocity": 0.7874015748031497,
          "duration": 0.17647049999999354
        },
        {
          "name": "A3",
          "midi": 57,
          "time": 241.58811449999675,
          "velocity": 0.7874015748031497,
          "duration": 0.17647049999999354
        },
        {
          "name": "A2",
          "midi": 45,
          "time": 241.58811449999675,
          "velocity": 0.7874015748031497,
          "duration": 0.17647049999999354
        },
        {
          "name": "E3",
          "midi": 52,
          "time": 241.76458499999674,
          "velocity": 0.7874015748031497,
          "duration": 0.35294099999998707
        },
        {
          "name": "A3",
          "midi": 57,
          "time": 241.76458499999674,
          "velocity": 0.7874015748031497,
          "duration": 0.35294099999998707
        },
        {
          "name": "A2",
          "midi": 45,
          "time": 241.76458499999674,
          "velocity": 0.7874015748031497,
          "duration": 0.35294099999998707
        },
        {
          "name": "E3",
          "midi": 52,
          "time": 242.11752599999673,
          "velocity": 0.7874015748031497,
          "duration": 0.35294099999998707
        },
        {
          "name": "A3",
          "midi": 57,
          "time": 242.11752599999673,
          "velocity": 0.7874015748031497,
          "duration": 0.35294099999998707
        },
        {
          "name": "A2",
          "midi": 45,
          "time": 242.11752599999673,
          "velocity": 0.7874015748031497,
          "duration": 0.35294099999998707
        },
        {
          "name": "F3",
          "midi": 53,
          "time": 242.47046699999672,
          "velocity": 0.7874015748031497,
          "duration": 0.35294099999998707
        },
        {
          "name": "A#3",
          "midi": 58,
          "time": 242.47046699999672,
          "velocity": 0.7874015748031497,
          "duration": 0.35294099999998707
        },
        {
          "name": "A#2",
          "midi": 46,
          "time": 242.47046699999672,
          "velocity": 0.7874015748031497,
          "duration": 0.35294099999998707
        },
        {
          "name": "F#3",
          "midi": 54,
          "time": 242.8234079999967,
          "velocity": 0.7874015748031497,
          "duration": 0.35294099999998707
        },
        {
          "name": "B3",
          "midi": 59,
          "time": 242.8234079999967,
          "velocity": 0.7874015748031497,
          "duration": 0.35294099999998707
        },
        {
          "name": "B2",
          "midi": 47,
          "time": 242.8234079999967,
          "velocity": 0.7874015748031497,
          "duration": 0.35294099999998707
        },
        {
          "name": "F#3",
          "midi": 54,
          "time": 243.1763489999967,
          "velocity": 0.7874015748031497,
          "duration": 0.35294099999998707
        },
        {
          "name": "B3",
          "midi": 59,
          "time": 243.1763489999967,
          "velocity": 0.7874015748031497,
          "duration": 0.35294099999998707
        },
        {
          "name": "B2",
          "midi": 47,
          "time": 243.1763489999967,
          "velocity": 0.7874015748031497,
          "duration": 0.35294099999998707
        },
        {
          "name": "E2",
          "midi": 40,
          "time": 243.52928999999668,
          "velocity": 0.7874015748031497,
          "duration": 0.08823524999999677
        },
        {
          "name": "B1",
          "midi": 35,
          "time": 243.52928999999668,
          "velocity": 0.7874015748031497,
          "duration": 0.08823524999999677
        },
        {
          "name": "E2",
          "midi": 40,
          "time": 243.70576049999667,
          "velocity": 0.7874015748031497,
          "duration": 0.08823524999999677
        },
        {
          "name": "B1",
          "midi": 35,
          "time": 243.70576049999667,
          "velocity": 0.7874015748031497,
          "duration": 0.08823524999999677
        },
        {
          "name": "A3",
          "midi": 57,
          "time": 243.88223099999666,
          "velocity": 0.7874015748031497,
          "duration": 0.35294099999998707
        },
        {
          "name": "D4",
          "midi": 62,
          "time": 243.88223099999666,
          "velocity": 0.7874015748031497,
          "duration": 0.35294099999998707
        },
        {
          "name": "D3",
          "midi": 50,
          "time": 243.88223099999666,
          "velocity": 0.7874015748031497,
          "duration": 0.35294099999998707
        },
        {
          "name": "E2",
          "midi": 40,
          "time": 244.23517199999665,
          "velocity": 0.7874015748031497,
          "duration": 0.08823524999999677
        },
        {
          "name": "B1",
          "midi": 35,
          "time": 244.23517199999665,
          "velocity": 0.7874015748031497,
          "duration": 0.08823524999999677
        },
        {
          "name": "E2",
          "midi": 40,
          "time": 244.41164249999665,
          "velocity": 0.7874015748031497,
          "duration": 0.08823524999999677
        },
        {
          "name": "B1",
          "midi": 35,
          "time": 244.41164249999665,
          "velocity": 0.7874015748031497,
          "duration": 0.08823524999999677
        },
        {
          "name": "F#3",
          "midi": 54,
          "time": 244.58811299999664,
          "velocity": 0.7874015748031497,
          "duration": 0.35294099999998707
        },
        {
          "name": "B3",
          "midi": 59,
          "time": 244.58811299999664,
          "velocity": 0.7874015748031497,
          "duration": 0.35294099999998707
        },
        {
          "name": "B2",
          "midi": 47,
          "time": 244.58811299999664,
          "velocity": 0.7874015748031497,
          "duration": 0.35294099999998707
        },
        {
          "name": "F#3",
          "midi": 54,
          "time": 244.94105399999663,
          "velocity": 0.7874015748031497,
          "duration": 0.35294099999998707
        },
        {
          "name": "B3",
          "midi": 59,
          "time": 244.94105399999663,
          "velocity": 0.7874015748031497,
          "duration": 0.35294099999998707
        },
        {
          "name": "B2",
          "midi": 47,
          "time": 244.94105399999663,
          "velocity": 0.7874015748031497,
          "duration": 0.35294099999998707
        },
        {
          "name": "F3",
          "midi": 53,
          "time": 245.2939949999966,
          "velocity": 0.7874015748031497,
          "duration": 0.35294099999998707
        },
        {
          "name": "A#3",
          "midi": 58,
          "time": 245.2939949999966,
          "velocity": 0.7874015748031497,
          "duration": 0.35294099999998707
        },
        {
          "name": "A#2",
          "midi": 46,
          "time": 245.2939949999966,
          "velocity": 0.7874015748031497,
          "duration": 0.35294099999998707
        },
        {
          "name": "E3",
          "midi": 52,
          "time": 245.6469359999966,
          "velocity": 0.7874015748031497,
          "duration": 0.35294099999998707
        },
        {
          "name": "A3",
          "midi": 57,
          "time": 245.6469359999966,
          "velocity": 0.7874015748031497,
          "duration": 0.35294099999998707
        },
        {
          "name": "A2",
          "midi": 45,
          "time": 245.6469359999966,
          "velocity": 0.7874015748031497,
          "duration": 0.35294099999998707
        },
        {
          "name": "E3",
          "midi": 52,
          "time": 245.9998769999966,
          "velocity": 0.7874015748031497,
          "duration": 0.35294099999998707
        },
        {
          "name": "A3",
          "midi": 57,
          "time": 245.9998769999966,
          "velocity": 0.7874015748031497,
          "duration": 0.35294099999998707
        },
        {
          "name": "A2",
          "midi": 45,
          "time": 245.9998769999966,
          "velocity": 0.7874015748031497,
          "duration": 0.35294099999998707
        },
        {
          "name": "D2",
          "midi": 38,
          "time": 246.35281799999657,
          "velocity": 0.7874015748031497,
          "duration": 0.08823524999999677
        },
        {
          "name": "A1",
          "midi": 33,
          "time": 246.35281799999657,
          "velocity": 0.7874015748031497,
          "duration": 0.08823524999999677
        },
        {
          "name": "D2",
          "midi": 38,
          "time": 246.52928849999657,
          "velocity": 0.7874015748031497,
          "duration": 0.08823524999999677
        },
        {
          "name": "A1",
          "midi": 33,
          "time": 246.52928849999657,
          "velocity": 0.7874015748031497,
          "duration": 0.08823524999999677
        },
        {
          "name": "D2",
          "midi": 38,
          "time": 246.70575899999656,
          "velocity": 0.7874015748031497,
          "duration": 0.08823524999999677
        },
        {
          "name": "A1",
          "midi": 33,
          "time": 246.70575899999656,
          "velocity": 0.7874015748031497,
          "duration": 0.08823524999999677
        },
        {
          "name": "D#3",
          "midi": 51,
          "time": 246.88222949999655,
          "velocity": 0.7874015748031497,
          "duration": 0.17647049999999354
        },
        {
          "name": "G#3",
          "midi": 56,
          "time": 246.88222949999655,
          "velocity": 0.7874015748031497,
          "duration": 0.17647049999999354
        },
        {
          "name": "G#2",
          "midi": 44,
          "time": 246.88222949999655,
          "velocity": 0.7874015748031497,
          "duration": 0.17647049999999354
        },
        {
          "name": "D#3",
          "midi": 51,
          "time": 247.05869999999655,
          "velocity": 0.7874015748031497,
          "duration": 0.17647049999999354
        },
        {
          "name": "G#3",
          "midi": 56,
          "time": 247.05869999999655,
          "velocity": 0.7874015748031497,
          "duration": 0.17647049999999354
        },
        {
          "name": "G#2",
          "midi": 44,
          "time": 247.05869999999655,
          "velocity": 0.7874015748031497,
          "duration": 0.17647049999999354
        },
        {
          "name": "E3",
          "midi": 52,
          "time": 247.23517049999654,
          "velocity": 0.7874015748031497,
          "duration": 0.17647049999999354
        },
        {
          "name": "A3",
          "midi": 57,
          "time": 247.23517049999654,
          "velocity": 0.7874015748031497,
          "duration": 0.17647049999999354
        },
        {
          "name": "A2",
          "midi": 45,
          "time": 247.23517049999654,
          "velocity": 0.7874015748031497,
          "duration": 0.17647049999999354
        },
        {
          "name": "E3",
          "midi": 52,
          "time": 247.41164099999654,
          "velocity": 0.7874015748031497,
          "duration": 0.35294099999998707
        },
        {
          "name": "A3",
          "midi": 57,
          "time": 247.41164099999654,
          "velocity": 0.7874015748031497,
          "duration": 0.35294099999998707
        },
        {
          "name": "A2",
          "midi": 45,
          "time": 247.41164099999654,
          "velocity": 0.7874015748031497,
          "duration": 0.35294099999998707
        },
        {
          "name": "E3",
          "midi": 52,
          "time": 247.76458199999652,
          "velocity": 0.7874015748031497,
          "duration": 0.35294099999998707
        },
        {
          "name": "A3",
          "midi": 57,
          "time": 247.76458199999652,
          "velocity": 0.7874015748031497,
          "duration": 0.35294099999998707
        },
        {
          "name": "A2",
          "midi": 45,
          "time": 247.76458199999652,
          "velocity": 0.7874015748031497,
          "duration": 0.35294099999998707
        },
        {
          "name": "F3",
          "midi": 53,
          "time": 248.1175229999965,
          "velocity": 0.7874015748031497,
          "duration": 0.35294099999998707
        },
        {
          "name": "A#3",
          "midi": 58,
          "time": 248.1175229999965,
          "velocity": 0.7874015748031497,
          "duration": 0.35294099999998707
        },
        {
          "name": "A#2",
          "midi": 46,
          "time": 248.1175229999965,
          "velocity": 0.7874015748031497,
          "duration": 0.35294099999998707
        },
        {
          "name": "F#3",
          "midi": 54,
          "time": 248.4704639999965,
          "velocity": 0.7874015748031497,
          "duration": 0.35294099999998707
        },
        {
          "name": "B3",
          "midi": 59,
          "time": 248.4704639999965,
          "velocity": 0.7874015748031497,
          "duration": 0.35294099999998707
        },
        {
          "name": "B2",
          "midi": 47,
          "time": 248.4704639999965,
          "velocity": 0.7874015748031497,
          "duration": 0.35294099999998707
        },
        {
          "name": "F#3",
          "midi": 54,
          "time": 248.82340499999648,
          "velocity": 0.7874015748031497,
          "duration": 0.35294099999998707
        },
        {
          "name": "B3",
          "midi": 59,
          "time": 248.82340499999648,
          "velocity": 0.7874015748031497,
          "duration": 0.35294099999998707
        },
        {
          "name": "B2",
          "midi": 47,
          "time": 248.82340499999648,
          "velocity": 0.7874015748031497,
          "duration": 0.35294099999998707
        },
        {
          "name": "E2",
          "midi": 40,
          "time": 249.17634599999647,
          "velocity": 0.7874015748031497,
          "duration": 0.08823524999999677
        },
        {
          "name": "B1",
          "midi": 35,
          "time": 249.17634599999647,
          "velocity": 0.7874015748031497,
          "duration": 0.08823524999999677
        },
        {
          "name": "E2",
          "midi": 40,
          "time": 249.35281649999646,
          "velocity": 0.7874015748031497,
          "duration": 0.08823524999999677
        },
        {
          "name": "B1",
          "midi": 35,
          "time": 249.35281649999646,
          "velocity": 0.7874015748031497,
          "duration": 0.08823524999999677
        },
        {
          "name": "A3",
          "midi": 57,
          "time": 249.52928699999646,
          "velocity": 0.7874015748031497,
          "duration": 0.35294099999998707
        },
        {
          "name": "D4",
          "midi": 62,
          "time": 249.52928699999646,
          "velocity": 0.7874015748031497,
          "duration": 0.35294099999998707
        },
        {
          "name": "D3",
          "midi": 50,
          "time": 249.52928699999646,
          "velocity": 0.7874015748031497,
          "duration": 0.35294099999998707
        },
        {
          "name": "E2",
          "midi": 40,
          "time": 249.88222799999645,
          "velocity": 0.7874015748031497,
          "duration": 0.08823524999999677
        },
        {
          "name": "B1",
          "midi": 35,
          "time": 249.88222799999645,
          "velocity": 0.7874015748031497,
          "duration": 0.08823524999999677
        },
        {
          "name": "E2",
          "midi": 40,
          "time": 250.05869849999644,
          "velocity": 0.7874015748031497,
          "duration": 0.08823524999999677
        },
        {
          "name": "B1",
          "midi": 35,
          "time": 250.05869849999644,
          "velocity": 0.7874015748031497,
          "duration": 0.08823524999999677
        },
        {
          "name": "F#3",
          "midi": 54,
          "time": 250.23516899999643,
          "velocity": 0.7874015748031497,
          "duration": 0.35294099999998707
        },
        {
          "name": "B3",
          "midi": 59,
          "time": 250.23516899999643,
          "velocity": 0.7874015748031497,
          "duration": 0.35294099999998707
        },
        {
          "name": "B2",
          "midi": 47,
          "time": 250.23516899999643,
          "velocity": 0.7874015748031497,
          "duration": 0.35294099999998707
        },
        {
          "name": "F#3",
          "midi": 54,
          "time": 250.58810999999642,
          "velocity": 0.7874015748031497,
          "duration": 0.35294099999998707
        },
        {
          "name": "B3",
          "midi": 59,
          "time": 250.58810999999642,
          "velocity": 0.7874015748031497,
          "duration": 0.35294099999998707
        },
        {
          "name": "B2",
          "midi": 47,
          "time": 250.58810999999642,
          "velocity": 0.7874015748031497,
          "duration": 0.35294099999998707
        },
        {
          "name": "F3",
          "midi": 53,
          "time": 250.9410509999964,
          "velocity": 0.7874015748031497,
          "duration": 0.35294099999998707
        },
        {
          "name": "A#3",
          "midi": 58,
          "time": 250.9410509999964,
          "velocity": 0.7874015748031497,
          "duration": 0.35294099999998707
        },
        {
          "name": "A#2",
          "midi": 46,
          "time": 250.9410509999964,
          "velocity": 0.7874015748031497,
          "duration": 0.35294099999998707
        },
        {
          "name": "E3",
          "midi": 52,
          "time": 251.2939919999964,
          "velocity": 0.7874015748031497,
          "duration": 0.35294099999998707
        },
        {
          "name": "A3",
          "midi": 57,
          "time": 251.2939919999964,
          "velocity": 0.7874015748031497,
          "duration": 0.35294099999998707
        },
        {
          "name": "A2",
          "midi": 45,
          "time": 251.2939919999964,
          "velocity": 0.7874015748031497,
          "duration": 0.35294099999998707
        },
        {
          "name": "E3",
          "midi": 52,
          "time": 251.64693299999638,
          "velocity": 0.7874015748031497,
          "duration": 0.35294099999998707
        },
        {
          "name": "A3",
          "midi": 57,
          "time": 251.64693299999638,
          "velocity": 0.7874015748031497,
          "duration": 0.35294099999998707
        },
        {
          "name": "A2",
          "midi": 45,
          "time": 251.64693299999638,
          "velocity": 0.7874015748031497,
          "duration": 0.35294099999998707
        },
        {
          "name": "A3",
          "midi": 57,
          "time": 251.99987399999637,
          "velocity": 0.7874015748031497,
          "duration": 0.35294099999998707
        },
        {
          "name": "A2",
          "midi": 45,
          "time": 251.99987399999637,
          "velocity": 0.7874015748031497,
          "duration": 0.35294099999998707
        },
        {
          "name": "E3",
          "midi": 52,
          "time": 251.99987399999637,
          "velocity": 0.7874015748031497,
          "duration": 0.35294099999998707
        },
        {
          "name": "E4",
          "midi": 64,
          "time": 259.76457599999634,
          "velocity": 0.5905511811023622,
          "duration": 5.647056000000077
        },
        {
          "name": "B3",
          "midi": 59,
          "time": 259.76457599999634,
          "velocity": 0.5905511811023622,
          "duration": 5.647056000000077
        },
        {
          "name": "E3",
          "midi": 52,
          "time": 259.76457599999634,
          "velocity": 0.5905511811023622,
          "duration": 5.647056000000077
        },
        {
          "name": "E4",
          "midi": 64,
          "time": 265.4116319999964,
          "velocity": 0.5905511811023622,
          "duration": 5.647056000000077
        },
        {
          "name": "B3",
          "midi": 59,
          "time": 265.4116319999964,
          "velocity": 0.5905511811023622,
          "duration": 5.647056000000077
        },
        {
          "name": "E3",
          "midi": 52,
          "time": 265.4116319999964,
          "velocity": 0.5905511811023622,
          "duration": 5.647056000000077
        },
        {
          "name": "E3",
          "midi": 52,
          "time": 271.0586879999965,
          "velocity": 0.7874015748031497,
          "duration": 1.4117640000000051
        },
        {
          "name": "E4",
          "midi": 64,
          "time": 271.0586879999965,
          "velocity": 0.7874015748031497,
          "duration": 1.4117640000000051
        },
        {
          "name": "B3",
          "midi": 59,
          "time": 271.0586879999965,
          "velocity": 0.7874015748031497,
          "duration": 1.4117640000000051
        },
        {
          "name": "D3",
          "midi": 50,
          "time": 272.4704519999965,
          "velocity": 0.7874015748031497,
          "duration": 1.4117640000000051
        },
        {
          "name": "D4",
          "midi": 62,
          "time": 272.4704519999965,
          "velocity": 0.7874015748031497,
          "duration": 1.4117640000000051
        },
        {
          "name": "A3",
          "midi": 57,
          "time": 272.4704519999965,
          "velocity": 0.7874015748031497,
          "duration": 1.4117640000000051
        },
        {
          "name": "C#3",
          "midi": 49,
          "time": 273.8822159999965,
          "velocity": 0.7874015748031497,
          "duration": 1.4117640000000051
        },
        {
          "name": "C#4",
          "midi": 61,
          "time": 273.8822159999965,
          "velocity": 0.7874015748031497,
          "duration": 1.4117640000000051
        },
        {
          "name": "G#3",
          "midi": 56,
          "time": 273.8822159999965,
          "velocity": 0.7874015748031497,
          "duration": 1.4117640000000051
        },
        {
          "name": "C3",
          "midi": 48,
          "time": 275.2939799999965,
          "velocity": 0.7874015748031497,
          "duration": 1.4117640000000051
        },
        {
          "name": "C4",
          "midi": 60,
          "time": 275.2939799999965,
          "velocity": 0.7874015748031497,
          "duration": 1.4117640000000051
        },
        {
          "name": "G3",
          "midi": 55,
          "time": 275.2939799999965,
          "velocity": 0.7874015748031497,
          "duration": 1.4117640000000051
        },
        {
          "name": "E3",
          "midi": 52,
          "time": 276.7057439999965,
          "velocity": 0.7874015748031497,
          "duration": 1.4117640000000051
        },
        {
          "name": "E4",
          "midi": 64,
          "time": 276.7057439999965,
          "velocity": 0.7874015748031497,
          "duration": 1.4117640000000051
        },
        {
          "name": "B3",
          "midi": 59,
          "time": 276.7057439999965,
          "velocity": 0.7874015748031497,
          "duration": 1.4117640000000051
        },
        {
          "name": "D3",
          "midi": 50,
          "time": 278.1175079999965,
          "velocity": 0.7874015748031497,
          "duration": 1.4117640000000051
        },
        {
          "name": "D4",
          "midi": 62,
          "time": 278.1175079999965,
          "velocity": 0.7874015748031497,
          "duration": 1.4117640000000051
        },
        {
          "name": "A3",
          "midi": 57,
          "time": 278.1175079999965,
          "velocity": 0.7874015748031497,
          "duration": 1.4117640000000051
        },
        {
          "name": "C#3",
          "midi": 49,
          "time": 279.5292719999965,
          "velocity": 0.7874015748031497,
          "duration": 1.4117640000000051
        },
        {
          "name": "C#4",
          "midi": 61,
          "time": 279.5292719999965,
          "velocity": 0.7874015748031497,
          "duration": 1.4117640000000051
        },
        {
          "name": "G#3",
          "midi": 56,
          "time": 279.5292719999965,
          "velocity": 0.7874015748031497,
          "duration": 1.4117640000000051
        },
        {
          "name": "C3",
          "midi": 48,
          "time": 280.94103599999653,
          "velocity": 0.7874015748031497,
          "duration": 1.4117640000000051
        },
        {
          "name": "C4",
          "midi": 60,
          "time": 280.94103599999653,
          "velocity": 0.7874015748031497,
          "duration": 1.4117640000000051
        },
        {
          "name": "G3",
          "midi": 55,
          "time": 280.94103599999653,
          "velocity": 0.7874015748031497,
          "duration": 1.4117640000000051
        },
        {
          "name": "E3",
          "midi": 52,
          "time": 282.35279999999653,
          "velocity": 0.7874015748031497,
          "duration": 1.4117640000000051
        },
        {
          "name": "E4",
          "midi": 64,
          "time": 282.35279999999653,
          "velocity": 0.7874015748031497,
          "duration": 1.4117640000000051
        },
        {
          "name": "B3",
          "midi": 59,
          "time": 282.35279999999653,
          "velocity": 0.7874015748031497,
          "duration": 1.4117640000000051
        },
        {
          "name": "D3",
          "midi": 50,
          "time": 283.76456399999654,
          "velocity": 0.7874015748031497,
          "duration": 1.4117640000000051
        },
        {
          "name": "D4",
          "midi": 62,
          "time": 283.76456399999654,
          "velocity": 0.7874015748031497,
          "duration": 1.4117640000000051
        },
        {
          "name": "A3",
          "midi": 57,
          "time": 283.76456399999654,
          "velocity": 0.7874015748031497,
          "duration": 1.4117640000000051
        },
        {
          "name": "C#3",
          "midi": 49,
          "time": 285.17632799999654,
          "velocity": 0.7874015748031497,
          "duration": 1.4117640000000051
        },
        {
          "name": "C#4",
          "midi": 61,
          "time": 285.17632799999654,
          "velocity": 0.7874015748031497,
          "duration": 1.4117640000000051
        },
        {
          "name": "G#3",
          "midi": 56,
          "time": 285.17632799999654,
          "velocity": 0.7874015748031497,
          "duration": 1.4117640000000051
        },
        {
          "name": "C3",
          "midi": 48,
          "time": 286.58809199999655,
          "velocity": 0.7874015748031497,
          "duration": 1.4117640000000051
        },
        {
          "name": "C4",
          "midi": 60,
          "time": 286.58809199999655,
          "velocity": 0.7874015748031497,
          "duration": 1.4117640000000051
        },
        {
          "name": "G3",
          "midi": 55,
          "time": 286.58809199999655,
          "velocity": 0.7874015748031497,
          "duration": 1.4117640000000051
        },
        {
          "name": "E3",
          "midi": 52,
          "time": 287.99985599999656,
          "velocity": 0.7874015748031497,
          "duration": 1.4117640000000051
        },
        {
          "name": "E4",
          "midi": 64,
          "time": 287.99985599999656,
          "velocity": 0.7874015748031497,
          "duration": 1.4117640000000051
        },
        {
          "name": "B3",
          "midi": 59,
          "time": 287.99985599999656,
          "velocity": 0.7874015748031497,
          "duration": 1.4117640000000051
        },
        {
          "name": "D3",
          "midi": 50,
          "time": 289.41161999999656,
          "velocity": 0.7874015748031497,
          "duration": 1.4117640000000051
        },
        {
          "name": "D4",
          "midi": 62,
          "time": 289.41161999999656,
          "velocity": 0.7874015748031497,
          "duration": 1.4117640000000051
        },
        {
          "name": "A3",
          "midi": 57,
          "time": 289.41161999999656,
          "velocity": 0.7874015748031497,
          "duration": 1.4117640000000051
        },
        {
          "name": "C#3",
          "midi": 49,
          "time": 290.82338399999657,
          "velocity": 0.7874015748031497,
          "duration": 1.4117640000000051
        },
        {
          "name": "C#4",
          "midi": 61,
          "time": 290.82338399999657,
          "velocity": 0.7874015748031497,
          "duration": 1.4117640000000051
        },
        {
          "name": "G#3",
          "midi": 56,
          "time": 290.82338399999657,
          "velocity": 0.7874015748031497,
          "duration": 1.4117640000000051
        },
        {
          "name": "C3",
          "midi": 48,
          "time": 292.23514799999657,
          "velocity": 0.7874015748031497,
          "duration": 1.4117640000000051
        },
        {
          "name": "C4",
          "midi": 60,
          "time": 292.23514799999657,
          "velocity": 0.7874015748031497,
          "duration": 1.4117640000000051
        },
        {
          "name": "G3",
          "midi": 55,
          "time": 292.23514799999657,
          "velocity": 0.7874015748031497,
          "duration": 1.4117640000000051
        },
        {
          "name": "E3",
          "midi": 52,
          "time": 293.6469119999966,
          "velocity": 0.7874015748031497,
          "duration": 1.4117640000000051
        },
        {
          "name": "E4",
          "midi": 64,
          "time": 293.6469119999966,
          "velocity": 0.7874015748031497,
          "duration": 1.4117640000000051
        },
        {
          "name": "B3",
          "midi": 59,
          "time": 293.6469119999966,
          "velocity": 0.7874015748031497,
          "duration": 1.4117640000000051
        },
        {
          "name": "D3",
          "midi": 50,
          "time": 295.0586759999966,
          "velocity": 0.7874015748031497,
          "duration": 1.4117640000000051
        },
        {
          "name": "D4",
          "midi": 62,
          "time": 295.0586759999966,
          "velocity": 0.7874015748031497,
          "duration": 1.4117640000000051
        },
        {
          "name": "A3",
          "midi": 57,
          "time": 295.0586759999966,
          "velocity": 0.7874015748031497,
          "duration": 1.4117640000000051
        },
        {
          "name": "C#3",
          "midi": 49,
          "time": 296.4704399999966,
          "velocity": 0.7874015748031497,
          "duration": 1.4117640000000051
        },
        {
          "name": "C#4",
          "midi": 61,
          "time": 296.4704399999966,
          "velocity": 0.7874015748031497,
          "duration": 1.4117640000000051
        },
        {
          "name": "G#3",
          "midi": 56,
          "time": 296.4704399999966,
          "velocity": 0.7874015748031497,
          "duration": 1.4117640000000051
        },
        {
          "name": "C3",
          "midi": 48,
          "time": 297.8822039999966,
          "velocity": 0.7874015748031497,
          "duration": 1.4117640000000051
        },
        {
          "name": "C4",
          "midi": 60,
          "time": 297.8822039999966,
          "velocity": 0.7874015748031497,
          "duration": 1.4117640000000051
        },
        {
          "name": "G3",
          "midi": 55,
          "time": 297.8822039999966,
          "velocity": 0.7874015748031497,
          "duration": 1.4117640000000051
        },
        {
          "name": "E3",
          "midi": 52,
          "time": 299.2939679999966,
          "velocity": 0.7874015748031497,
          "duration": 1.4117640000000051
        },
        {
          "name": "E4",
          "midi": 64,
          "time": 299.2939679999966,
          "velocity": 0.7874015748031497,
          "duration": 1.4117640000000051
        },
        {
          "name": "B3",
          "midi": 59,
          "time": 299.2939679999966,
          "velocity": 0.7874015748031497,
          "duration": 1.4117640000000051
        },
        {
          "name": "D3",
          "midi": 50,
          "time": 300.7057319999966,
          "velocity": 0.7874015748031497,
          "duration": 1.4117640000000051
        },
        {
          "name": "D4",
          "midi": 62,
          "time": 300.7057319999966,
          "velocity": 0.7874015748031497,
          "duration": 1.4117640000000051
        },
        {
          "name": "A3",
          "midi": 57,
          "time": 300.7057319999966,
          "velocity": 0.7874015748031497,
          "duration": 1.4117640000000051
        },
        {
          "name": "C#3",
          "midi": 49,
          "time": 302.1174959999966,
          "velocity": 0.7874015748031497,
          "duration": 1.4117640000000051
        },
        {
          "name": "C#4",
          "midi": 61,
          "time": 302.1174959999966,
          "velocity": 0.7874015748031497,
          "duration": 1.4117640000000051
        },
        {
          "name": "G#3",
          "midi": 56,
          "time": 302.1174959999966,
          "velocity": 0.7874015748031497,
          "duration": 1.4117640000000051
        },
        {
          "name": "C3",
          "midi": 48,
          "time": 303.5292599999966,
          "velocity": 0.7874015748031497,
          "duration": 1.4117640000000051
        },
        {
          "name": "C4",
          "midi": 60,
          "time": 303.5292599999966,
          "velocity": 0.7874015748031497,
          "duration": 1.4117640000000051
        },
        {
          "name": "G3",
          "midi": 55,
          "time": 303.5292599999966,
          "velocity": 0.7874015748031497,
          "duration": 1.4117640000000051
        },
        {
          "name": "E3",
          "midi": 52,
          "time": 304.9410239999966,
          "velocity": 0.7874015748031497,
          "duration": 1.4117640000000051
        },
        {
          "name": "E4",
          "midi": 64,
          "time": 304.9410239999966,
          "velocity": 0.7874015748031497,
          "duration": 1.4117640000000051
        },
        {
          "name": "B3",
          "midi": 59,
          "time": 304.9410239999966,
          "velocity": 0.7874015748031497,
          "duration": 1.4117640000000051
        },
        {
          "name": "D3",
          "midi": 50,
          "time": 306.3527879999966,
          "velocity": 0.7874015748031497,
          "duration": 1.4117640000000051
        },
        {
          "name": "D4",
          "midi": 62,
          "time": 306.3527879999966,
          "velocity": 0.7874015748031497,
          "duration": 1.4117640000000051
        },
        {
          "name": "A3",
          "midi": 57,
          "time": 306.3527879999966,
          "velocity": 0.7874015748031497,
          "duration": 1.4117640000000051
        },
        {
          "name": "C#3",
          "midi": 49,
          "time": 307.7645519999966,
          "velocity": 0.7874015748031497,
          "duration": 1.4117640000000051
        },
        {
          "name": "C#4",
          "midi": 61,
          "time": 307.7645519999966,
          "velocity": 0.7874015748031497,
          "duration": 1.4117640000000051
        },
        {
          "name": "G#3",
          "midi": 56,
          "time": 307.7645519999966,
          "velocity": 0.7874015748031497,
          "duration": 1.4117640000000051
        },
        {
          "name": "C3",
          "midi": 48,
          "time": 309.17631599999663,
          "velocity": 0.7874015748031497,
          "duration": 1.4117640000000051
        },
        {
          "name": "C4",
          "midi": 60,
          "time": 309.17631599999663,
          "velocity": 0.7874015748031497,
          "duration": 1.4117640000000051
        },
        {
          "name": "G3",
          "midi": 55,
          "time": 309.17631599999663,
          "velocity": 0.7874015748031497,
          "duration": 1.4117640000000051
        },
        {
          "name": "E3",
          "midi": 52,
          "time": 310.58807999999664,
          "velocity": 0.7874015748031497,
          "duration": 1.4117640000000051
        },
        {
          "name": "E4",
          "midi": 64,
          "time": 310.58807999999664,
          "velocity": 0.7874015748031497,
          "duration": 1.4117640000000051
        },
        {
          "name": "B3",
          "midi": 59,
          "time": 310.58807999999664,
          "velocity": 0.7874015748031497,
          "duration": 1.4117640000000051
        },
        {
          "name": "D3",
          "midi": 50,
          "time": 311.99984399999664,
          "velocity": 0.7874015748031497,
          "duration": 1.4117640000000051
        },
        {
          "name": "D4",
          "midi": 62,
          "time": 311.99984399999664,
          "velocity": 0.7874015748031497,
          "duration": 1.4117640000000051
        },
        {
          "name": "A3",
          "midi": 57,
          "time": 311.99984399999664,
          "velocity": 0.7874015748031497,
          "duration": 1.4117640000000051
        },
        {
          "name": "C#3",
          "midi": 49,
          "time": 313.41160799999665,
          "velocity": 0.7874015748031497,
          "duration": 1.4117640000000051
        },
        {
          "name": "C#4",
          "midi": 61,
          "time": 313.41160799999665,
          "velocity": 0.7874015748031497,
          "duration": 1.4117640000000051
        },
        {
          "name": "G#3",
          "midi": 56,
          "time": 313.41160799999665,
          "velocity": 0.7874015748031497,
          "duration": 1.4117640000000051
        },
        {
          "name": "C3",
          "midi": 48,
          "time": 314.82337199999665,
          "velocity": 0.7874015748031497,
          "duration": 1.4117640000000051
        },
        {
          "name": "C4",
          "midi": 60,
          "time": 314.82337199999665,
          "velocity": 0.7874015748031497,
          "duration": 1.4117640000000051
        },
        {
          "name": "G3",
          "midi": 55,
          "time": 314.82337199999665,
          "velocity": 0.7874015748031497,
          "duration": 1.4117640000000051
        },
        {
          "name": "E3",
          "midi": 52,
          "time": 316.23513599999666,
          "velocity": 0.7874015748031497,
          "duration": 1.4117640000000051
        },
        {
          "name": "E4",
          "midi": 64,
          "time": 316.23513599999666,
          "velocity": 0.7874015748031497,
          "duration": 1.4117640000000051
        },
        {
          "name": "B3",
          "midi": 59,
          "time": 316.23513599999666,
          "velocity": 0.7874015748031497,
          "duration": 1.4117640000000051
        },
        {
          "name": "D3",
          "midi": 50,
          "time": 317.64689999999666,
          "velocity": 0.7874015748031497,
          "duration": 1.4117640000000051
        },
        {
          "name": "D4",
          "midi": 62,
          "time": 317.64689999999666,
          "velocity": 0.7874015748031497,
          "duration": 1.4117640000000051
        },
        {
          "name": "A3",
          "midi": 57,
          "time": 317.64689999999666,
          "velocity": 0.7874015748031497,
          "duration": 1.4117640000000051
        },
        {
          "name": "C#3",
          "midi": 49,
          "time": 319.05866399999667,
          "velocity": 0.7874015748031497,
          "duration": 1.4117640000000051
        },
        {
          "name": "C#4",
          "midi": 61,
          "time": 319.05866399999667,
          "velocity": 0.7874015748031497,
          "duration": 1.4117640000000051
        },
        {
          "name": "G#3",
          "midi": 56,
          "time": 319.05866399999667,
          "velocity": 0.7874015748031497,
          "duration": 1.4117640000000051
        },
        {
          "name": "C3",
          "midi": 48,
          "time": 320.4704279999967,
          "velocity": 0.7874015748031497,
          "duration": 1.4117640000000051
        },
        {
          "name": "C4",
          "midi": 60,
          "time": 320.4704279999967,
          "velocity": 0.7874015748031497,
          "duration": 1.4117640000000051
        },
        {
          "name": "G3",
          "midi": 55,
          "time": 320.4704279999967,
          "velocity": 0.7874015748031497,
          "duration": 1.4117640000000051
        },
        {
          "name": "E3",
          "midi": 52,
          "time": 321.8821919999967,
          "velocity": 0.7874015748031497,
          "duration": 1.4117640000000051
        },
        {
          "name": "E4",
          "midi": 64,
          "time": 321.8821919999967,
          "velocity": 0.7874015748031497,
          "duration": 1.4117640000000051
        },
        {
          "name": "B3",
          "midi": 59,
          "time": 321.8821919999967,
          "velocity": 0.7874015748031497,
          "duration": 1.4117640000000051
        },
        {
          "name": "D3",
          "midi": 50,
          "time": 323.2939559999967,
          "velocity": 0.7874015748031497,
          "duration": 1.4117640000000051
        },
        {
          "name": "D4",
          "midi": 62,
          "time": 323.2939559999967,
          "velocity": 0.7874015748031497,
          "duration": 1.4117640000000051
        },
        {
          "name": "A3",
          "midi": 57,
          "time": 323.2939559999967,
          "velocity": 0.7874015748031497,
          "duration": 1.4117640000000051
        },
        {
          "name": "C#3",
          "midi": 49,
          "time": 324.7057199999967,
          "velocity": 0.7874015748031497,
          "duration": 1.4117640000000051
        },
        {
          "name": "C#4",
          "midi": 61,
          "time": 324.7057199999967,
          "velocity": 0.7874015748031497,
          "duration": 1.4117640000000051
        },
        {
          "name": "G#3",
          "midi": 56,
          "time": 324.7057199999967,
          "velocity": 0.7874015748031497,
          "duration": 1.4117640000000051
        },
        {
          "name": "C#4",
          "midi": 61,
          "time": 326.1174839999967,
          "velocity": 0.7874015748031497,
          "duration": 0.23529400000001033
        },
        {
          "name": "F#4",
          "midi": 66,
          "time": 326.1174839999967,
          "velocity": 0.7874015748031497,
          "duration": 0.23529400000001033
        },
        {
          "name": "F#3",
          "midi": 54,
          "time": 326.1174839999967,
          "velocity": 0.7874015748031497,
          "duration": 0.23529400000001033
        },
        {
          "name": "D4",
          "midi": 62,
          "time": 326.3527779999967,
          "velocity": 0.7874015748031497,
          "duration": 0.23529400000001033
        },
        {
          "name": "G4",
          "midi": 67,
          "time": 326.3527779999967,
          "velocity": 0.7874015748031497,
          "duration": 0.23529400000001033
        },
        {
          "name": "G3",
          "midi": 55,
          "time": 326.3527779999967,
          "velocity": 0.7874015748031497,
          "duration": 0.23529400000001033
        },
        {
          "name": "C#4",
          "midi": 61,
          "time": 326.5880719999967,
          "velocity": 0.7874015748031497,
          "duration": 0.23529400000001033
        },
        {
          "name": "F#4",
          "midi": 66,
          "time": 326.5880719999967,
          "velocity": 0.7874015748031497,
          "duration": 0.23529400000001033
        },
        {
          "name": "F#3",
          "midi": 54,
          "time": 326.5880719999967,
          "velocity": 0.7874015748031497,
          "duration": 0.23529400000001033
        },
        {
          "name": "D4",
          "midi": 62,
          "time": 326.8233659999967,
          "velocity": 0.7874015748031497,
          "duration": 0.23529400000001033
        },
        {
          "name": "G4",
          "midi": 67,
          "time": 326.8233659999967,
          "velocity": 0.7874015748031497,
          "duration": 0.23529400000001033
        },
        {
          "name": "G3",
          "midi": 55,
          "time": 326.8233659999967,
          "velocity": 0.7874015748031497,
          "duration": 0.23529400000001033
        },
        {
          "name": "C#4",
          "midi": 61,
          "time": 327.05865999999673,
          "velocity": 0.7874015748031497,
          "duration": 0.23529400000001033
        },
        {
          "name": "F#4",
          "midi": 66,
          "time": 327.05865999999673,
          "velocity": 0.7874015748031497,
          "duration": 0.23529400000001033
        },
        {
          "name": "F#3",
          "midi": 54,
          "time": 327.05865999999673,
          "velocity": 0.7874015748031497,
          "duration": 0.23529400000001033
        },
        {
          "name": "A3",
          "midi": 57,
          "time": 327.29395399999675,
          "velocity": 0.7874015748031497,
          "duration": 0.23529400000001033
        },
        {
          "name": "D4",
          "midi": 62,
          "time": 327.29395399999675,
          "velocity": 0.7874015748031497,
          "duration": 0.23529400000001033
        },
        {
          "name": "D3",
          "midi": 50,
          "time": 327.29395399999675,
          "velocity": 0.7874015748031497,
          "duration": 0.23529400000001033
        },
        {
          "name": "E3",
          "midi": 52,
          "time": 327.52924799999676,
          "velocity": 0.7874015748031497,
          "duration": 1.4117640000000051
        },
        {
          "name": "E4",
          "midi": 64,
          "time": 327.52924799999676,
          "velocity": 0.7874015748031497,
          "duration": 1.4117640000000051
        },
        {
          "name": "B3",
          "midi": 59,
          "time": 327.52924799999676,
          "velocity": 0.7874015748031497,
          "duration": 1.4117640000000051
        },
        {
          "name": "D3",
          "midi": 50,
          "time": 328.94101199999676,
          "velocity": 0.7874015748031497,
          "duration": 1.4117640000000051
        },
        {
          "name": "D4",
          "midi": 62,
          "time": 328.94101199999676,
          "velocity": 0.7874015748031497,
          "duration": 1.4117640000000051
        },
        {
          "name": "A3",
          "midi": 57,
          "time": 328.94101199999676,
          "velocity": 0.7874015748031497,
          "duration": 1.4117640000000051
        },
        {
          "name": "C#3",
          "midi": 49,
          "time": 330.35277599999677,
          "velocity": 0.7874015748031497,
          "duration": 1.4117640000000051
        },
        {
          "name": "C#4",
          "midi": 61,
          "time": 330.35277599999677,
          "velocity": 0.7874015748031497,
          "duration": 1.4117640000000051
        },
        {
          "name": "G#3",
          "midi": 56,
          "time": 330.35277599999677,
          "velocity": 0.7874015748031497,
          "duration": 1.4117640000000051
        },
        {
          "name": "C#4",
          "midi": 61,
          "time": 331.76453999999677,
          "velocity": 0.7874015748031497,
          "duration": 0.23529400000001033
        },
        {
          "name": "F#4",
          "midi": 66,
          "time": 331.76453999999677,
          "velocity": 0.7874015748031497,
          "duration": 0.23529400000001033
        },
        {
          "name": "F#3",
          "midi": 54,
          "time": 331.76453999999677,
          "velocity": 0.7874015748031497,
          "duration": 0.23529400000001033
        },
        {
          "name": "D4",
          "midi": 62,
          "time": 331.9998339999968,
          "velocity": 0.7874015748031497,
          "duration": 0.23529400000001033
        },
        {
          "name": "G4",
          "midi": 67,
          "time": 331.9998339999968,
          "velocity": 0.7874015748031497,
          "duration": 0.23529400000001033
        },
        {
          "name": "G3",
          "midi": 55,
          "time": 331.9998339999968,
          "velocity": 0.7874015748031497,
          "duration": 0.23529400000001033
        },
        {
          "name": "C#4",
          "midi": 61,
          "time": 332.2351279999968,
          "velocity": 0.7874015748031497,
          "duration": 0.23529400000001033
        },
        {
          "name": "F#4",
          "midi": 66,
          "time": 332.2351279999968,
          "velocity": 0.7874015748031497,
          "duration": 0.23529400000001033
        },
        {
          "name": "F#3",
          "midi": 54,
          "time": 332.2351279999968,
          "velocity": 0.7874015748031497,
          "duration": 0.23529400000001033
        },
        {
          "name": "D4",
          "midi": 62,
          "time": 332.4704219999968,
          "velocity": 0.7874015748031497,
          "duration": 0.23529400000001033
        },
        {
          "name": "G4",
          "midi": 67,
          "time": 332.4704219999968,
          "velocity": 0.7874015748031497,
          "duration": 0.23529400000001033
        },
        {
          "name": "G3",
          "midi": 55,
          "time": 332.4704219999968,
          "velocity": 0.7874015748031497,
          "duration": 0.23529400000001033
        },
        {
          "name": "C#4",
          "midi": 61,
          "time": 332.7057159999968,
          "velocity": 0.7874015748031497,
          "duration": 0.23529400000001033
        },
        {
          "name": "F#4",
          "midi": 66,
          "time": 332.7057159999968,
          "velocity": 0.7874015748031497,
          "duration": 0.23529400000001033
        },
        {
          "name": "F#3",
          "midi": 54,
          "time": 332.7057159999968,
          "velocity": 0.7874015748031497,
          "duration": 0.23529400000001033
        },
        {
          "name": "A3",
          "midi": 57,
          "time": 332.9410099999968,
          "velocity": 0.7874015748031497,
          "duration": 0.23529400000001033
        },
        {
          "name": "D4",
          "midi": 62,
          "time": 332.9410099999968,
          "velocity": 0.7874015748031497,
          "duration": 0.23529400000001033
        },
        {
          "name": "D3",
          "midi": 50,
          "time": 332.9410099999968,
          "velocity": 0.7874015748031497,
          "duration": 0.23529400000001033
        },
        {
          "name": "E3",
          "midi": 52,
          "time": 333.17630399999683,
          "velocity": 0.7874015748031497,
          "duration": 1.4117640000000051
        },
        {
          "name": "E4",
          "midi": 64,
          "time": 333.17630399999683,
          "velocity": 0.7874015748031497,
          "duration": 1.4117640000000051
        },
        {
          "name": "B3",
          "midi": 59,
          "time": 333.17630399999683,
          "velocity": 0.7874015748031497,
          "duration": 1.4117640000000051
        },
        {
          "name": "D3",
          "midi": 50,
          "time": 334.58806799999684,
          "velocity": 0.7874015748031497,
          "duration": 1.4117640000000051
        },
        {
          "name": "D4",
          "midi": 62,
          "time": 334.58806799999684,
          "velocity": 0.7874015748031497,
          "duration": 1.4117640000000051
        },
        {
          "name": "A3",
          "midi": 57,
          "time": 334.58806799999684,
          "velocity": 0.7874015748031497,
          "duration": 1.4117640000000051
        },
        {
          "name": "C#3",
          "midi": 49,
          "time": 335.99983199999684,
          "velocity": 0.7874015748031497,
          "duration": 1.4117640000000051
        },
        {
          "name": "C#4",
          "midi": 61,
          "time": 335.99983199999684,
          "velocity": 0.7874015748031497,
          "duration": 1.4117640000000051
        },
        {
          "name": "G#3",
          "midi": 56,
          "time": 335.99983199999684,
          "velocity": 0.7874015748031497,
          "duration": 1.4117640000000051
        },
        {
          "name": "C#4",
          "midi": 61,
          "time": 337.41159599999685,
          "velocity": 0.7874015748031497,
          "duration": 0.23529400000001033
        },
        {
          "name": "F#4",
          "midi": 66,
          "time": 337.41159599999685,
          "velocity": 0.7874015748031497,
          "duration": 0.23529400000001033
        },
        {
          "name": "F#3",
          "midi": 54,
          "time": 337.41159599999685,
          "velocity": 0.7874015748031497,
          "duration": 0.23529400000001033
        },
        {
          "name": "D4",
          "midi": 62,
          "time": 337.64688999999686,
          "velocity": 0.7874015748031497,
          "duration": 0.23529400000001033
        },
        {
          "name": "G4",
          "midi": 67,
          "time": 337.64688999999686,
          "velocity": 0.7874015748031497,
          "duration": 0.23529400000001033
        },
        {
          "name": "G3",
          "midi": 55,
          "time": 337.64688999999686,
          "velocity": 0.7874015748031497,
          "duration": 0.23529400000001033
        },
        {
          "name": "C#4",
          "midi": 61,
          "time": 337.88218399999687,
          "velocity": 0.7874015748031497,
          "duration": 0.23529400000001033
        },
        {
          "name": "F#4",
          "midi": 66,
          "time": 337.88218399999687,
          "velocity": 0.7874015748031497,
          "duration": 0.23529400000001033
        },
        {
          "name": "F#3",
          "midi": 54,
          "time": 337.88218399999687,
          "velocity": 0.7874015748031497,
          "duration": 0.23529400000001033
        },
        {
          "name": "D4",
          "midi": 62,
          "time": 338.1174779999969,
          "velocity": 0.7874015748031497,
          "duration": 0.23529400000001033
        },
        {
          "name": "G4",
          "midi": 67,
          "time": 338.1174779999969,
          "velocity": 0.7874015748031497,
          "duration": 0.23529400000001033
        },
        {
          "name": "G3",
          "midi": 55,
          "time": 338.1174779999969,
          "velocity": 0.7874015748031497,
          "duration": 0.23529400000001033
        },
        {
          "name": "C#4",
          "midi": 61,
          "time": 338.3527719999969,
          "velocity": 0.7874015748031497,
          "duration": 0.23529400000001033
        },
        {
          "name": "F#4",
          "midi": 66,
          "time": 338.3527719999969,
          "velocity": 0.7874015748031497,
          "duration": 0.23529400000001033
        },
        {
          "name": "F#3",
          "midi": 54,
          "time": 338.3527719999969,
          "velocity": 0.7874015748031497,
          "duration": 0.23529400000001033
        },
        {
          "name": "A3",
          "midi": 57,
          "time": 338.5880659999969,
          "velocity": 0.7874015748031497,
          "duration": 0.23529400000001033
        },
        {
          "name": "D4",
          "midi": 62,
          "time": 338.5880659999969,
          "velocity": 0.7874015748031497,
          "duration": 0.23529400000001033
        },
        {
          "name": "D3",
          "midi": 50,
          "time": 338.5880659999969,
          "velocity": 0.7874015748031497,
          "duration": 0.23529400000001033
        },
        {
          "name": "E3",
          "midi": 52,
          "time": 338.8233599999969,
          "velocity": 0.7874015748031497,
          "duration": 0.35294099999998707
        },
        {
          "name": "B3",
          "midi": 59,
          "time": 338.8233599999969,
          "velocity": 0.7874015748031497,
          "duration": 0.35294099999998707
        },
        {
          "name": "E4",
          "midi": 64,
          "time": 338.8233599999969,
          "velocity": 0.7874015748031497,
          "duration": 0.35294099999998707
        }
      ],
      "controlChanges": {
        "7": [
          {
            "number": 7,
            "time": 0,
            "value": 0.6299212598425197
          }
        ],
        "10": [
          {
            "number": 10,
            "time": 0,
            "value": 1
          }
        ],
        "32": [
          {
            "number": 32,
            "time": 0,
            "value": 0
          }
        ],
        "91": [
          {
            "number": 91,
            "time": 0,
            "value": 0.1889763779527559
          }
        ],
        "93": [
          {
            "number": 93,
            "time": 0,
            "value": 0.1889763779527559
          }
        ]
      },
      "id": 5,
      "name": "Rhythm Guitar",
      "instrumentNumber": 29,
      "instrument": "overdriven guitar",
      "instrumentFamily": "guitar",
      "channelNumber": 4,
      "isPercussion": false
    },
    {
      "startTime": 0,
      "duration": 339.17630100001566,
      "length": 2721,
      "notes": [
        {
          "name": "G2",
          "midi": 43,
          "time": 0,
          "velocity": 0.7874015748031497,
          "duration": 0.1764705
        },
        {
          "name": "F2",
          "midi": 41,
          "time": 0,
          "velocity": 0.7874015748031497,
          "duration": 0.1764705
        },
        {
          "name": "C2",
          "midi": 36,
          "time": 0,
          "velocity": 0.7874015748031497,
          "duration": 0.1764705
        },
        {
          "name": "G2",
          "midi": 43,
          "time": 0.705882,
          "velocity": 0.7874015748031497,
          "duration": 0.17647049999999997
        },
        {
          "name": "F2",
          "midi": 41,
          "time": 0.705882,
          "velocity": 0.7874015748031497,
          "duration": 0.17647049999999997
        },
        {
          "name": "C2",
          "midi": 36,
          "time": 0.705882,
          "velocity": 0.7874015748031497,
          "duration": 0.17647049999999997
        },
        {
          "name": "G2",
          "midi": 43,
          "time": 1.411764,
          "velocity": 0.7874015748031497,
          "duration": 0.17647049999999997
        },
        {
          "name": "F2",
          "midi": 41,
          "time": 1.411764,
          "velocity": 0.7874015748031497,
          "duration": 0.17647049999999997
        },
        {
          "name": "C2",
          "midi": 36,
          "time": 1.411764,
          "velocity": 0.7874015748031497,
          "duration": 0.17647049999999997
        },
        {
          "name": "G2",
          "midi": 43,
          "time": 2.117646,
          "velocity": 0.7874015748031497,
          "duration": 0.1764705000000002
        },
        {
          "name": "F2",
          "midi": 41,
          "time": 2.117646,
          "velocity": 0.7874015748031497,
          "duration": 0.1764705000000002
        },
        {
          "name": "C2",
          "midi": 36,
          "time": 2.117646,
          "velocity": 0.7874015748031497,
          "duration": 0.1764705000000002
        },
        {
          "name": "G2",
          "midi": 43,
          "time": 2.8235280000000005,
          "velocity": 0.7874015748031497,
          "duration": 0.1764705000000002
        },
        {
          "name": "F2",
          "midi": 41,
          "time": 2.8235280000000005,
          "velocity": 0.7874015748031497,
          "duration": 0.1764705000000002
        },
        {
          "name": "C2",
          "midi": 36,
          "time": 2.8235280000000005,
          "velocity": 0.7874015748031497,
          "duration": 0.1764705000000002
        },
        {
          "name": "G2",
          "midi": 43,
          "time": 3.529410000000001,
          "velocity": 0.7874015748031497,
          "duration": 0.1764705000000002
        },
        {
          "name": "F2",
          "midi": 41,
          "time": 3.529410000000001,
          "velocity": 0.7874015748031497,
          "duration": 0.1764705000000002
        },
        {
          "name": "C2",
          "midi": 36,
          "time": 3.529410000000001,
          "velocity": 0.7874015748031497,
          "duration": 0.1764705000000002
        },
        {
          "name": "G2",
          "midi": 43,
          "time": 4.235292000000001,
          "velocity": 0.7874015748031497,
          "duration": 0.17647049999999975
        },
        {
          "name": "F2",
          "midi": 41,
          "time": 4.235292000000001,
          "velocity": 0.7874015748031497,
          "duration": 0.17647049999999975
        },
        {
          "name": "C2",
          "midi": 36,
          "time": 4.235292000000001,
          "velocity": 0.7874015748031497,
          "duration": 0.17647049999999975
        },
        {
          "name": "G2",
          "midi": 43,
          "time": 4.941174000000001,
          "velocity": 0.7874015748031497,
          "duration": 0.17647049999999975
        },
        {
          "name": "F2",
          "midi": 41,
          "time": 4.941174000000001,
          "velocity": 0.7874015748031497,
          "duration": 0.17647049999999975
        },
        {
          "name": "C2",
          "midi": 36,
          "time": 4.941174000000001,
          "velocity": 0.7874015748031497,
          "duration": 0.17647049999999975
        },
        {
          "name": "G2",
          "midi": 43,
          "time": 5.647056000000001,
          "velocity": 0.7874015748031497,
          "duration": 0.17647049999999975
        },
        {
          "name": "F2",
          "midi": 41,
          "time": 5.647056000000001,
          "velocity": 0.7874015748031497,
          "duration": 0.17647049999999975
        },
        {
          "name": "C2",
          "midi": 36,
          "time": 5.647056000000001,
          "velocity": 0.7874015748031497,
          "duration": 0.17647049999999975
        },
        {
          "name": "G2",
          "midi": 43,
          "time": 6.352938000000001,
          "velocity": 0.7874015748031497,
          "duration": 0.17647049999999975
        },
        {
          "name": "F2",
          "midi": 41,
          "time": 6.352938000000001,
          "velocity": 0.7874015748031497,
          "duration": 0.17647049999999975
        },
        {
          "name": "C2",
          "midi": 36,
          "time": 6.352938000000001,
          "velocity": 0.7874015748031497,
          "duration": 0.17647049999999975
        },
        {
          "name": "G2",
          "midi": 43,
          "time": 7.058820000000001,
          "velocity": 0.7874015748031497,
          "duration": 0.17647049999999975
        },
        {
          "name": "F2",
          "midi": 41,
          "time": 7.058820000000001,
          "velocity": 0.7874015748031497,
          "duration": 0.17647049999999975
        },
        {
          "name": "C2",
          "midi": 36,
          "time": 7.058820000000001,
          "velocity": 0.7874015748031497,
          "duration": 0.17647049999999975
        },
        {
          "name": "G2",
          "midi": 43,
          "time": 7.764702000000001,
          "velocity": 0.7874015748031497,
          "duration": 0.17647049999999975
        },
        {
          "name": "F2",
          "midi": 41,
          "time": 7.764702000000001,
          "velocity": 0.7874015748031497,
          "duration": 0.17647049999999975
        },
        {
          "name": "C2",
          "midi": 36,
          "time": 7.764702000000001,
          "velocity": 0.7874015748031497,
          "duration": 0.17647049999999975
        },
        {
          "name": "G2",
          "midi": 43,
          "time": 8.470584,
          "velocity": 0.7874015748031497,
          "duration": 0.17647050000000064
        },
        {
          "name": "F2",
          "midi": 41,
          "time": 8.470584,
          "velocity": 0.7874015748031497,
          "duration": 0.17647050000000064
        },
        {
          "name": "C2",
          "midi": 36,
          "time": 8.470584,
          "velocity": 0.7874015748031497,
          "duration": 0.17647050000000064
        },
        {
          "name": "G2",
          "midi": 43,
          "time": 9.176466000000001,
          "velocity": 0.7874015748031497,
          "duration": 0.17647050000000064
        },
        {
          "name": "F2",
          "midi": 41,
          "time": 9.176466000000001,
          "velocity": 0.7874015748031497,
          "duration": 0.17647050000000064
        },
        {
          "name": "C2",
          "midi": 36,
          "time": 9.176466000000001,
          "velocity": 0.7874015748031497,
          "duration": 0.17647050000000064
        },
        {
          "name": "G2",
          "midi": 43,
          "time": 9.882348000000002,
          "velocity": 0.7874015748031497,
          "duration": 0.17647050000000064
        },
        {
          "name": "F2",
          "midi": 41,
          "time": 9.882348000000002,
          "velocity": 0.7874015748031497,
          "duration": 0.17647050000000064
        },
        {
          "name": "C2",
          "midi": 36,
          "time": 9.882348000000002,
          "velocity": 0.7874015748031497,
          "duration": 0.17647050000000064
        },
        {
          "name": "G2",
          "midi": 43,
          "time": 10.588230000000003,
          "velocity": 0.7874015748031497,
          "duration": 0.17647050000000064
        },
        {
          "name": "F2",
          "midi": 41,
          "time": 10.588230000000003,
          "velocity": 0.7874015748031497,
          "duration": 0.17647050000000064
        },
        {
          "name": "C2",
          "midi": 36,
          "time": 10.588230000000003,
          "velocity": 0.7874015748031497,
          "duration": 0.17647050000000064
        },
        {
          "name": "G2",
          "midi": 43,
          "time": 11.294112000000004,
          "velocity": 0.7874015748031497,
          "duration": 0.17647050000000064
        },
        {
          "name": "F2",
          "midi": 41,
          "time": 11.294112000000004,
          "velocity": 0.7874015748031497,
          "duration": 0.17647050000000064
        },
        {
          "name": "C2",
          "midi": 36,
          "time": 11.294112000000004,
          "velocity": 0.7874015748031497,
          "duration": 0.17647050000000064
        },
        {
          "name": "G2",
          "midi": 43,
          "time": 11.999994000000004,
          "velocity": 0.7874015748031497,
          "duration": 0.17647050000000064
        },
        {
          "name": "F2",
          "midi": 41,
          "time": 11.999994000000004,
          "velocity": 0.7874015748031497,
          "duration": 0.17647050000000064
        },
        {
          "name": "C2",
          "midi": 36,
          "time": 11.999994000000004,
          "velocity": 0.7874015748031497,
          "duration": 0.17647050000000064
        },
        {
          "name": "G2",
          "midi": 43,
          "time": 12.705876000000005,
          "velocity": 0.7874015748031497,
          "duration": 0.17647050000000064
        },
        {
          "name": "F2",
          "midi": 41,
          "time": 12.705876000000005,
          "velocity": 0.7874015748031497,
          "duration": 0.17647050000000064
        },
        {
          "name": "C2",
          "midi": 36,
          "time": 12.705876000000005,
          "velocity": 0.7874015748031497,
          "duration": 0.17647050000000064
        },
        {
          "name": "G2",
          "midi": 43,
          "time": 13.411758000000006,
          "velocity": 0.7874015748031497,
          "duration": 0.17647050000000064
        },
        {
          "name": "F2",
          "midi": 41,
          "time": 13.411758000000006,
          "velocity": 0.7874015748031497,
          "duration": 0.17647050000000064
        },
        {
          "name": "C2",
          "midi": 36,
          "time": 13.411758000000006,
          "velocity": 0.7874015748031497,
          "duration": 0.17647050000000064
        },
        {
          "name": "G2",
          "midi": 43,
          "time": 14.117640000000007,
          "velocity": 0.7874015748031497,
          "duration": 0.17647050000000064
        },
        {
          "name": "F2",
          "midi": 41,
          "time": 14.117640000000007,
          "velocity": 0.7874015748031497,
          "duration": 0.17647050000000064
        },
        {
          "name": "C2",
          "midi": 36,
          "time": 14.117640000000007,
          "velocity": 0.7874015748031497,
          "duration": 0.17647050000000064
        },
        {
          "name": "G2",
          "midi": 43,
          "time": 14.823522000000008,
          "velocity": 0.7874015748031497,
          "duration": 0.17647050000000064
        },
        {
          "name": "F2",
          "midi": 41,
          "time": 14.823522000000008,
          "velocity": 0.7874015748031497,
          "duration": 0.17647050000000064
        },
        {
          "name": "C2",
          "midi": 36,
          "time": 14.823522000000008,
          "velocity": 0.7874015748031497,
          "duration": 0.17647050000000064
        },
        {
          "name": "G2",
          "midi": 43,
          "time": 15.529404000000008,
          "velocity": 0.7874015748031497,
          "duration": 0.17647050000000064
        },
        {
          "name": "F2",
          "midi": 41,
          "time": 15.529404000000008,
          "velocity": 0.7874015748031497,
          "duration": 0.17647050000000064
        },
        {
          "name": "C2",
          "midi": 36,
          "time": 15.529404000000008,
          "velocity": 0.7874015748031497,
          "duration": 0.17647050000000064
        },
        {
          "name": "G2",
          "midi": 43,
          "time": 16.23528600000001,
          "velocity": 0.7874015748031497,
          "duration": 0.17647050000000064
        },
        {
          "name": "F2",
          "midi": 41,
          "time": 16.23528600000001,
          "velocity": 0.7874015748031497,
          "duration": 0.17647050000000064
        },
        {
          "name": "C2",
          "midi": 36,
          "time": 16.23528600000001,
          "velocity": 0.7874015748031497,
          "duration": 0.17647050000000064
        },
        {
          "name": "G2",
          "midi": 43,
          "time": 16.941168000000008,
          "velocity": 0.7874015748031497,
          "duration": 0.17647050000000064
        },
        {
          "name": "F2",
          "midi": 41,
          "time": 16.941168000000008,
          "velocity": 0.7874015748031497,
          "duration": 0.17647050000000064
        },
        {
          "name": "C2",
          "midi": 36,
          "time": 16.941168000000008,
          "velocity": 0.7874015748031497,
          "duration": 0.17647050000000064
        },
        {
          "name": "G2",
          "midi": 43,
          "time": 17.647050000000007,
          "velocity": 0.7874015748031497,
          "duration": 0.17647050000000064
        },
        {
          "name": "F2",
          "midi": 41,
          "time": 17.647050000000007,
          "velocity": 0.7874015748031497,
          "duration": 0.17647050000000064
        },
        {
          "name": "C2",
          "midi": 36,
          "time": 17.647050000000007,
          "velocity": 0.7874015748031497,
          "duration": 0.17647050000000064
        },
        {
          "name": "G2",
          "midi": 43,
          "time": 18.352932000000006,
          "velocity": 0.7874015748031497,
          "duration": 0.17647050000000064
        },
        {
          "name": "F2",
          "midi": 41,
          "time": 18.352932000000006,
          "velocity": 0.7874015748031497,
          "duration": 0.17647050000000064
        },
        {
          "name": "C2",
          "midi": 36,
          "time": 18.352932000000006,
          "velocity": 0.7874015748031497,
          "duration": 0.17647050000000064
        },
        {
          "name": "G2",
          "midi": 43,
          "time": 19.058814000000005,
          "velocity": 0.7874015748031497,
          "duration": 0.17647050000000064
        },
        {
          "name": "F2",
          "midi": 41,
          "time": 19.058814000000005,
          "velocity": 0.7874015748031497,
          "duration": 0.17647050000000064
        },
        {
          "name": "C2",
          "midi": 36,
          "time": 19.058814000000005,
          "velocity": 0.7874015748031497,
          "duration": 0.17647050000000064
        },
        {
          "name": "G2",
          "midi": 43,
          "time": 19.764696000000004,
          "velocity": 0.7874015748031497,
          "duration": 0.17647050000000064
        },
        {
          "name": "F2",
          "midi": 41,
          "time": 19.764696000000004,
          "velocity": 0.7874015748031497,
          "duration": 0.17647050000000064
        },
        {
          "name": "C2",
          "midi": 36,
          "time": 19.764696000000004,
          "velocity": 0.7874015748031497,
          "duration": 0.17647050000000064
        },
        {
          "name": "G2",
          "midi": 43,
          "time": 20.470578000000003,
          "velocity": 0.7874015748031497,
          "duration": 0.17647050000000064
        },
        {
          "name": "F2",
          "midi": 41,
          "time": 20.470578000000003,
          "velocity": 0.7874015748031497,
          "duration": 0.17647050000000064
        },
        {
          "name": "C2",
          "midi": 36,
          "time": 20.470578000000003,
          "velocity": 0.7874015748031497,
          "duration": 0.17647050000000064
        },
        {
          "name": "G2",
          "midi": 43,
          "time": 21.176460000000002,
          "velocity": 0.7874015748031497,
          "duration": 0.17647050000000064
        },
        {
          "name": "F2",
          "midi": 41,
          "time": 21.176460000000002,
          "velocity": 0.7874015748031497,
          "duration": 0.17647050000000064
        },
        {
          "name": "C2",
          "midi": 36,
          "time": 21.176460000000002,
          "velocity": 0.7874015748031497,
          "duration": 0.17647050000000064
        },
        {
          "name": "G2",
          "midi": 43,
          "time": 21.882342,
          "velocity": 0.7874015748031497,
          "duration": 0.17647050000000064
        },
        {
          "name": "F2",
          "midi": 41,
          "time": 21.882342,
          "velocity": 0.7874015748031497,
          "duration": 0.17647050000000064
        },
        {
          "name": "C2",
          "midi": 36,
          "time": 21.882342,
          "velocity": 0.7874015748031497,
          "duration": 0.17647050000000064
        },
        {
          "name": "G2",
          "midi": 43,
          "time": 22.588224,
          "velocity": 0.7874015748031497,
          "duration": 0.17647050000000064
        },
        {
          "name": "F2",
          "midi": 41,
          "time": 22.588224,
          "velocity": 0.7874015748031497,
          "duration": 0.17647050000000064
        },
        {
          "name": "C2",
          "midi": 36,
          "time": 22.588224,
          "velocity": 0.7874015748031497,
          "duration": 0.17647050000000064
        },
        {
          "name": "G2",
          "midi": 43,
          "time": 23.294106,
          "velocity": 0.7874015748031497,
          "duration": 0.17647050000000064
        },
        {
          "name": "F2",
          "midi": 41,
          "time": 23.294106,
          "velocity": 0.7874015748031497,
          "duration": 0.17647050000000064
        },
        {
          "name": "C2",
          "midi": 36,
          "time": 23.294106,
          "velocity": 0.7874015748031497,
          "duration": 0.17647050000000064
        },
        {
          "name": "G2",
          "midi": 43,
          "time": 23.999988,
          "velocity": 0.7874015748031497,
          "duration": 0.17647050000000064
        },
        {
          "name": "F2",
          "midi": 41,
          "time": 23.999988,
          "velocity": 0.7874015748031497,
          "duration": 0.17647050000000064
        },
        {
          "name": "C2",
          "midi": 36,
          "time": 23.999988,
          "velocity": 0.7874015748031497,
          "duration": 0.17647050000000064
        },
        {
          "name": "G2",
          "midi": 43,
          "time": 24.705869999999997,
          "velocity": 0.7874015748031497,
          "duration": 0.17647050000000064
        },
        {
          "name": "F2",
          "midi": 41,
          "time": 24.705869999999997,
          "velocity": 0.7874015748031497,
          "duration": 0.17647050000000064
        },
        {
          "name": "C2",
          "midi": 36,
          "time": 24.705869999999997,
          "velocity": 0.7874015748031497,
          "duration": 0.17647050000000064
        },
        {
          "name": "G2",
          "midi": 43,
          "time": 25.411751999999996,
          "velocity": 0.7874015748031497,
          "duration": 0.17647050000000064
        },
        {
          "name": "F2",
          "midi": 41,
          "time": 25.411751999999996,
          "velocity": 0.7874015748031497,
          "duration": 0.17647050000000064
        },
        {
          "name": "C2",
          "midi": 36,
          "time": 25.411751999999996,
          "velocity": 0.7874015748031497,
          "duration": 0.17647050000000064
        },
        {
          "name": "G2",
          "midi": 43,
          "time": 26.117633999999995,
          "velocity": 0.7874015748031497,
          "duration": 0.17647050000000064
        },
        {
          "name": "F2",
          "midi": 41,
          "time": 26.117633999999995,
          "velocity": 0.7874015748031497,
          "duration": 0.17647050000000064
        },
        {
          "name": "C2",
          "midi": 36,
          "time": 26.117633999999995,
          "velocity": 0.7874015748031497,
          "duration": 0.17647050000000064
        },
        {
          "name": "E2",
          "midi": 40,
          "time": 26.823515999999994,
          "velocity": 0.7874015748031497,
          "duration": 0.17647050000000064
        },
        {
          "name": "F2",
          "midi": 41,
          "time": 26.823515999999994,
          "velocity": 0.7874015748031497,
          "duration": 0.17647050000000064
        },
        {
          "name": "C2",
          "midi": 36,
          "time": 26.999986499999995,
          "velocity": 0.7874015748031497,
          "duration": 0.17647050000000064
        },
        {
          "name": "E2",
          "midi": 40,
          "time": 27.176456999999996,
          "velocity": 0.7874015748031497,
          "duration": 0.17647050000000064
        },
        {
          "name": "F2",
          "midi": 41,
          "time": 27.176456999999996,
          "velocity": 0.7874015748031497,
          "duration": 0.17647050000000064
        },
        {
          "name": "C2",
          "midi": 36,
          "time": 27.352927499999996,
          "velocity": 0.7874015748031497,
          "duration": 0.17647050000000064
        },
        {
          "name": "E2",
          "midi": 40,
          "time": 27.529397999999997,
          "velocity": 0.7874015748031497,
          "duration": 0.17647050000000064
        },
        {
          "name": "F2",
          "midi": 41,
          "time": 27.529397999999997,
          "velocity": 0.7874015748031497,
          "duration": 0.17647050000000064
        },
        {
          "name": "C2",
          "midi": 36,
          "time": 27.705868499999998,
          "velocity": 0.7874015748031497,
          "duration": 0.17647050000000064
        },
        {
          "name": "A2",
          "midi": 45,
          "time": 27.882338999999998,
          "velocity": 0.7874015748031497,
          "duration": 0.17647050000000064
        },
        {
          "name": "G2",
          "midi": 43,
          "time": 27.882338999999998,
          "velocity": 0.7874015748031497,
          "duration": 0.17647050000000064
        },
        {
          "name": "C2",
          "midi": 36,
          "time": 28.23528,
          "velocity": 0.7874015748031497,
          "duration": 0.7058820000000026
        },
        {
          "name": "C#3",
          "midi": 49,
          "time": 28.23528,
          "velocity": 0.7874015748031497,
          "duration": 0.17647050000000064
        },
        {
          "name": "F#2",
          "midi": 42,
          "time": 28.588221,
          "velocity": 0.7874015748031497,
          "duration": 0.17647050000000064
        },
        {
          "name": "E2",
          "midi": 40,
          "time": 28.941162000000002,
          "velocity": 0.7874015748031497,
          "duration": 0.7058820000000026
        },
        {
          "name": "A3",
          "midi": 57,
          "time": 28.941162000000002,
          "velocity": 0.7874015748031497,
          "duration": 0.17647050000000064
        },
        {
          "name": "F#2",
          "midi": 42,
          "time": 29.294103000000003,
          "velocity": 0.7874015748031497,
          "duration": 0.17647050000000064
        },
        {
          "name": "C2",
          "midi": 36,
          "time": 29.647044000000005,
          "velocity": 0.7874015748031497,
          "duration": 0.3529410000000013
        },
        {
          "name": "F#2",
          "midi": 42,
          "time": 29.647044000000005,
          "velocity": 0.7874015748031497,
          "duration": 0.17647050000000064
        },
        {
          "name": "C2",
          "midi": 36,
          "time": 29.999985000000006,
          "velocity": 0.7874015748031497,
          "duration": 0.3529410000000013
        },
        {
          "name": "F#2",
          "midi": 42,
          "time": 29.999985000000006,
          "velocity": 0.7874015748031497,
          "duration": 0.17647050000000064
        },
        {
          "name": "E2",
          "midi": 40,
          "time": 30.352926000000007,
          "velocity": 0.7874015748031497,
          "duration": 0.7058820000000026
        },
        {
          "name": "F#2",
          "midi": 42,
          "time": 30.352926000000007,
          "velocity": 0.7874015748031497,
          "duration": 0.17647050000000064
        },
        {
          "name": "F#2",
          "midi": 42,
          "time": 30.70586700000001,
          "velocity": 0.7874015748031497,
          "duration": 0.17647050000000064
        },
        {
          "name": "C2",
          "midi": 36,
          "time": 31.05880800000001,
          "velocity": 0.7874015748031497,
          "duration": 0.17647050000000064
        },
        {
          "name": "F#2",
          "midi": 42,
          "time": 31.05880800000001,
          "velocity": 0.7874015748031497,
          "duration": 0.17647050000000064
        },
        {
          "name": "E2",
          "midi": 40,
          "time": 31.23527850000001,
          "velocity": 0.7874015748031497,
          "duration": 0.17647050000000064
        },
        {
          "name": "C2",
          "midi": 36,
          "time": 31.41174900000001,
          "velocity": 0.7874015748031497,
          "duration": 0.17647050000000064
        },
        {
          "name": "F#2",
          "midi": 42,
          "time": 31.41174900000001,
          "velocity": 0.7874015748031497,
          "duration": 0.17647050000000064
        },
        {
          "name": "C2",
          "midi": 36,
          "time": 31.58821950000001,
          "velocity": 0.7874015748031497,
          "duration": 0.17647050000000064
        },
        {
          "name": "E2",
          "midi": 40,
          "time": 31.764690000000012,
          "velocity": 0.7874015748031497,
          "duration": 0.17647050000000064
        },
        {
          "name": "F#2",
          "midi": 42,
          "time": 31.764690000000012,
          "velocity": 0.7874015748031497,
          "duration": 0.17647050000000064
        },
        {
          "name": "C2",
          "midi": 36,
          "time": 31.941160500000013,
          "velocity": 0.7874015748031497,
          "duration": 0.1764704999999971
        },
        {
          "name": "E2",
          "midi": 40,
          "time": 32.11763100000001,
          "velocity": 0.7874015748031497,
          "duration": 0.34411747499999734
        },
        {
          "name": "F#2",
          "midi": 42,
          "time": 32.11763100000001,
          "velocity": 0.7874015748031497,
          "duration": 0.17647050000000064
        },
        {
          "name": "C2",
          "midi": 36,
          "time": 32.470572000000004,
          "velocity": 0.7874015748031497,
          "duration": 0.3529410000000013
        },
        {
          "name": "F#2",
          "midi": 42,
          "time": 32.470572000000004,
          "velocity": 0.7874015748031497,
          "duration": 0.17647050000000064
        },
        {
          "name": "C2",
          "midi": 36,
          "time": 32.823513000000005,
          "velocity": 0.7874015748031497,
          "duration": 0.3529410000000013
        },
        {
          "name": "F#2",
          "midi": 42,
          "time": 32.823513000000005,
          "velocity": 0.7874015748031497,
          "duration": 0.17647050000000064
        },
        {
          "name": "E2",
          "midi": 40,
          "time": 33.17645400000001,
          "velocity": 0.7874015748031497,
          "duration": 0.7058820000000026
        },
        {
          "name": "A3",
          "midi": 57,
          "time": 33.17645400000001,
          "velocity": 0.7874015748031497,
          "duration": 0.17647050000000064
        },
        {
          "name": "F#2",
          "midi": 42,
          "time": 33.52939500000001,
          "velocity": 0.7874015748031497,
          "duration": 0.17647050000000064
        },
        {
          "name": "C2",
          "midi": 36,
          "time": 33.88233600000001,
          "velocity": 0.7874015748031497,
          "duration": 0.7058820000000026
        },
        {
          "name": "C#3",
          "midi": 49,
          "time": 33.88233600000001,
          "velocity": 0.7874015748031497,
          "duration": 0.17647050000000064
        },
        {
          "name": "F#2",
          "midi": 42,
          "time": 34.23527700000001,
          "velocity": 0.7874015748031497,
          "duration": 0.17647050000000064
        },
        {
          "name": "E2",
          "midi": 40,
          "time": 34.58821800000001,
          "velocity": 0.7874015748031497,
          "duration": 0.7058820000000026
        },
        {
          "name": "A3",
          "midi": 57,
          "time": 34.58821800000001,
          "velocity": 0.7874015748031497,
          "duration": 0.17647050000000064
        },
        {
          "name": "F#2",
          "midi": 42,
          "time": 34.94115900000001,
          "velocity": 0.7874015748031497,
          "duration": 0.17647050000000064
        },
        {
          "name": "C2",
          "midi": 36,
          "time": 35.294100000000014,
          "velocity": 0.7874015748031497,
          "duration": 0.3529410000000013
        },
        {
          "name": "F#2",
          "midi": 42,
          "time": 35.294100000000014,
          "velocity": 0.7874015748031497,
          "duration": 0.17647050000000064
        },
        {
          "name": "C2",
          "midi": 36,
          "time": 35.647041000000016,
          "velocity": 0.7874015748031497,
          "duration": 0.3529410000000013
        },
        {
          "name": "F#2",
          "midi": 42,
          "time": 35.647041000000016,
          "velocity": 0.7874015748031497,
          "duration": 0.17647050000000064
        },
        {
          "name": "E2",
          "midi": 40,
          "time": 35.99998200000002,
          "velocity": 0.7874015748031497,
          "duration": 0.7058820000000026
        },
        {
          "name": "F#2",
          "midi": 42,
          "time": 35.99998200000002,
          "velocity": 0.7874015748031497,
          "duration": 0.17647050000000064
        },
        {
          "name": "F#2",
          "midi": 42,
          "time": 36.35292300000002,
          "velocity": 0.7874015748031497,
          "duration": 0.17647050000000064
        },
        {
          "name": "C2",
          "midi": 36,
          "time": 36.70586400000002,
          "velocity": 0.7874015748031497,
          "duration": 0.17647050000000064
        },
        {
          "name": "F#2",
          "midi": 42,
          "time": 36.70586400000002,
          "velocity": 0.7874015748031497,
          "duration": 0.17647050000000064
        },
        {
          "name": "E2",
          "midi": 40,
          "time": 36.88233450000002,
          "velocity": 0.7874015748031497,
          "duration": 0.17647050000000064
        },
        {
          "name": "C2",
          "midi": 36,
          "time": 37.05880500000002,
          "velocity": 0.7874015748031497,
          "duration": 0.17647050000000064
        },
        {
          "name": "F#2",
          "midi": 42,
          "time": 37.05880500000002,
          "velocity": 0.7874015748031497,
          "duration": 0.17647050000000064
        },
        {
          "name": "C2",
          "midi": 36,
          "time": 37.23527550000002,
          "velocity": 0.7874015748031497,
          "duration": 0.17647050000000064
        },
        {
          "name": "E2",
          "midi": 40,
          "time": 37.41174600000002,
          "velocity": 0.7874015748031497,
          "duration": 0.17647050000000064
        },
        {
          "name": "F#2",
          "midi": 42,
          "time": 37.41174600000002,
          "velocity": 0.7874015748031497,
          "duration": 0.17647050000000064
        },
        {
          "name": "C2",
          "midi": 36,
          "time": 37.58821650000002,
          "velocity": 0.7874015748031497,
          "duration": 0.17647050000000064
        },
        {
          "name": "E2",
          "midi": 40,
          "time": 37.76468700000002,
          "velocity": 0.7874015748031497,
          "duration": 0.34411747499999734
        },
        {
          "name": "F#2",
          "midi": 42,
          "time": 37.76468700000002,
          "velocity": 0.7874015748031497,
          "duration": 0.17647050000000064
        },
        {
          "name": "C2",
          "midi": 36,
          "time": 38.11762800000002,
          "velocity": 0.7874015748031497,
          "duration": 0.3529410000000013
        },
        {
          "name": "F#2",
          "midi": 42,
          "time": 38.11762800000002,
          "velocity": 0.7874015748031497,
          "duration": 0.17647050000000064
        },
        {
          "name": "C2",
          "midi": 36,
          "time": 38.47056900000002,
          "velocity": 0.7874015748031497,
          "duration": 0.3529410000000013
        },
        {
          "name": "F#2",
          "midi": 42,
          "time": 38.47056900000002,
          "velocity": 0.7874015748031497,
          "duration": 0.17647050000000064
        },
        {
          "name": "E2",
          "midi": 40,
          "time": 38.82351000000002,
          "velocity": 0.7874015748031497,
          "duration": 0.7058820000000026
        },
        {
          "name": "A3",
          "midi": 57,
          "time": 38.82351000000002,
          "velocity": 0.7874015748031497,
          "duration": 0.17647050000000064
        },
        {
          "name": "F#2",
          "midi": 42,
          "time": 39.17645100000002,
          "velocity": 0.7874015748031497,
          "duration": 0.17647050000000064
        },
        {
          "name": "C2",
          "midi": 36,
          "time": 39.52939200000002,
          "velocity": 0.7874015748031497,
          "duration": 0.7058820000000026
        },
        {
          "name": "C#3",
          "midi": 49,
          "time": 39.52939200000002,
          "velocity": 0.7874015748031497,
          "duration": 0.17647050000000064
        },
        {
          "name": "F#2",
          "midi": 42,
          "time": 39.882333000000024,
          "velocity": 0.7874015748031497,
          "duration": 0.17647050000000064
        },
        {
          "name": "E2",
          "midi": 40,
          "time": 40.235274000000025,
          "velocity": 0.7874015748031497,
          "duration": 0.7058820000000026
        },
        {
          "name": "A3",
          "midi": 57,
          "time": 40.235274000000025,
          "velocity": 0.7874015748031497,
          "duration": 0.17647050000000064
        },
        {
          "name": "F#2",
          "midi": 42,
          "time": 40.58821500000003,
          "velocity": 0.7874015748031497,
          "duration": 0.17647050000000064
        },
        {
          "name": "C2",
          "midi": 36,
          "time": 40.94115600000003,
          "velocity": 0.7874015748031497,
          "duration": 0.3529410000000013
        },
        {
          "name": "F#2",
          "midi": 42,
          "time": 40.94115600000003,
          "velocity": 0.7874015748031497,
          "duration": 0.17647050000000064
        },
        {
          "name": "C2",
          "midi": 36,
          "time": 41.29409700000003,
          "velocity": 0.7874015748031497,
          "duration": 0.3529410000000013
        },
        {
          "name": "F#2",
          "midi": 42,
          "time": 41.29409700000003,
          "velocity": 0.7874015748031497,
          "duration": 0.17647050000000064
        },
        {
          "name": "E2",
          "midi": 40,
          "time": 41.64703800000003,
          "velocity": 0.7874015748031497,
          "duration": 0.7058820000000026
        },
        {
          "name": "F#2",
          "midi": 42,
          "time": 41.64703800000003,
          "velocity": 0.7874015748031497,
          "duration": 0.17647050000000064
        },
        {
          "name": "F#2",
          "midi": 42,
          "time": 41.99997900000003,
          "velocity": 0.7874015748031497,
          "duration": 0.17647050000000064
        },
        {
          "name": "C2",
          "midi": 36,
          "time": 42.35292000000003,
          "velocity": 0.7874015748031497,
          "duration": 0.17647050000000064
        },
        {
          "name": "F#2",
          "midi": 42,
          "time": 42.35292000000003,
          "velocity": 0.7874015748031497,
          "duration": 0.17647050000000064
        },
        {
          "name": "E2",
          "midi": 40,
          "time": 42.529390500000034,
          "velocity": 0.7874015748031497,
          "duration": 0.17647050000000064
        },
        {
          "name": "C2",
          "midi": 36,
          "time": 42.705861000000034,
          "velocity": 0.7874015748031497,
          "duration": 0.17647050000000064
        },
        {
          "name": "F#2",
          "midi": 42,
          "time": 42.705861000000034,
          "velocity": 0.7874015748031497,
          "duration": 0.17647050000000064
        },
        {
          "name": "C2",
          "midi": 36,
          "time": 42.882331500000035,
          "velocity": 0.7874015748031497,
          "duration": 0.17647050000000064
        },
        {
          "name": "E2",
          "midi": 40,
          "time": 43.058802000000036,
          "velocity": 0.7874015748031497,
          "duration": 0.17647050000000064
        },
        {
          "name": "F#2",
          "midi": 42,
          "time": 43.058802000000036,
          "velocity": 0.7874015748031497,
          "duration": 0.17647050000000064
        },
        {
          "name": "C2",
          "midi": 36,
          "time": 43.235272500000036,
          "velocity": 0.7874015748031497,
          "duration": 0.17647050000000064
        },
        {
          "name": "E2",
          "midi": 40,
          "time": 43.41174300000004,
          "velocity": 0.7874015748031497,
          "duration": 0.34411747499999734
        },
        {
          "name": "F#2",
          "midi": 42,
          "time": 43.41174300000004,
          "velocity": 0.7874015748031497,
          "duration": 0.17647050000000064
        },
        {
          "name": "C2",
          "midi": 36,
          "time": 43.76468400000003,
          "velocity": 0.7874015748031497,
          "duration": 0.3529410000000013
        },
        {
          "name": "F#2",
          "midi": 42,
          "time": 43.76468400000003,
          "velocity": 0.7874015748031497,
          "duration": 0.17647050000000064
        },
        {
          "name": "C2",
          "midi": 36,
          "time": 44.11762500000003,
          "velocity": 0.7874015748031497,
          "duration": 0.3529410000000013
        },
        {
          "name": "F#2",
          "midi": 42,
          "time": 44.11762500000003,
          "velocity": 0.7874015748031497,
          "duration": 0.17647050000000064
        },
        {
          "name": "E2",
          "midi": 40,
          "time": 44.470566000000034,
          "velocity": 0.7874015748031497,
          "duration": 0.7058820000000026
        },
        {
          "name": "A3",
          "midi": 57,
          "time": 44.470566000000034,
          "velocity": 0.7874015748031497,
          "duration": 0.17647050000000064
        },
        {
          "name": "F#2",
          "midi": 42,
          "time": 44.823507000000035,
          "velocity": 0.7874015748031497,
          "duration": 0.17647050000000064
        },
        {
          "name": "C2",
          "midi": 36,
          "time": 45.176448000000036,
          "velocity": 0.7874015748031497,
          "duration": 0.7058820000000026
        },
        {
          "name": "C#3",
          "midi": 49,
          "time": 45.176448000000036,
          "velocity": 0.7874015748031497,
          "duration": 0.17647050000000064
        },
        {
          "name": "F#2",
          "midi": 42,
          "time": 45.52938900000004,
          "velocity": 0.7874015748031497,
          "duration": 0.17647050000000064
        },
        {
          "name": "E2",
          "midi": 40,
          "time": 45.88233000000004,
          "velocity": 0.7874015748031497,
          "duration": 0.7058820000000026
        },
        {
          "name": "A3",
          "midi": 57,
          "time": 45.88233000000004,
          "velocity": 0.7874015748031497,
          "duration": 0.17647050000000064
        },
        {
          "name": "F#2",
          "midi": 42,
          "time": 46.23527100000004,
          "velocity": 0.7874015748031497,
          "duration": 0.17647050000000064
        },
        {
          "name": "C2",
          "midi": 36,
          "time": 46.58821200000004,
          "velocity": 0.7874015748031497,
          "duration": 0.3529410000000013
        },
        {
          "name": "F#2",
          "midi": 42,
          "time": 46.58821200000004,
          "velocity": 0.7874015748031497,
          "duration": 0.17647050000000064
        },
        {
          "name": "C2",
          "midi": 36,
          "time": 46.94115300000004,
          "velocity": 0.7874015748031497,
          "duration": 0.3529410000000013
        },
        {
          "name": "F#2",
          "midi": 42,
          "time": 46.94115300000004,
          "velocity": 0.7874015748031497,
          "duration": 0.17647050000000064
        },
        {
          "name": "E2",
          "midi": 40,
          "time": 47.294094000000044,
          "velocity": 0.7874015748031497,
          "duration": 0.7058820000000026
        },
        {
          "name": "F#2",
          "midi": 42,
          "time": 47.294094000000044,
          "velocity": 0.7874015748031497,
          "duration": 0.17647050000000064
        },
        {
          "name": "F#2",
          "midi": 42,
          "time": 47.647035000000045,
          "velocity": 0.7874015748031497,
          "duration": 0.17647050000000064
        },
        {
          "name": "C2",
          "midi": 36,
          "time": 47.999976000000046,
          "velocity": 0.7874015748031497,
          "duration": 0.17647050000000064
        },
        {
          "name": "F#2",
          "midi": 42,
          "time": 47.999976000000046,
          "velocity": 0.7874015748031497,
          "duration": 0.17647050000000064
        },
        {
          "name": "E2",
          "midi": 40,
          "time": 48.17644650000005,
          "velocity": 0.7874015748031497,
          "duration": 0.17647050000000064
        },
        {
          "name": "C2",
          "midi": 36,
          "time": 48.35291700000005,
          "velocity": 0.7874015748031497,
          "duration": 0.17647050000000064
        },
        {
          "name": "F#2",
          "midi": 42,
          "time": 48.35291700000005,
          "velocity": 0.7874015748031497,
          "duration": 0.17647050000000064
        },
        {
          "name": "C2",
          "midi": 36,
          "time": 48.52938750000005,
          "velocity": 0.7874015748031497,
          "duration": 0.17647050000000064
        },
        {
          "name": "E2",
          "midi": 40,
          "time": 48.70585800000005,
          "velocity": 0.7874015748031497,
          "duration": 0.17647050000000064
        },
        {
          "name": "F#2",
          "midi": 42,
          "time": 48.70585800000005,
          "velocity": 0.7874015748031497,
          "duration": 0.17647050000000064
        },
        {
          "name": "C2",
          "midi": 36,
          "time": 48.88232850000005,
          "velocity": 0.7874015748031497,
          "duration": 0.17647050000000064
        },
        {
          "name": "E2",
          "midi": 40,
          "time": 49.05879900000005,
          "velocity": 0.7874015748031497,
          "duration": 0.34411747499999734
        },
        {
          "name": "F#2",
          "midi": 42,
          "time": 49.05879900000005,
          "velocity": 0.7874015748031497,
          "duration": 0.17647050000000064
        },
        {
          "name": "C2",
          "midi": 36,
          "time": 49.411740000000044,
          "velocity": 0.7874015748031497,
          "duration": 0.3529410000000013
        },
        {
          "name": "F#2",
          "midi": 42,
          "time": 49.411740000000044,
          "velocity": 0.7874015748031497,
          "duration": 0.17647050000000064
        },
        {
          "name": "C2",
          "midi": 36,
          "time": 49.764681000000046,
          "velocity": 0.7874015748031497,
          "duration": 0.3529410000000013
        },
        {
          "name": "F#2",
          "midi": 42,
          "time": 49.764681000000046,
          "velocity": 0.7874015748031497,
          "duration": 0.17647050000000064
        },
        {
          "name": "E2",
          "midi": 40,
          "time": 50.11762200000005,
          "velocity": 0.7874015748031497,
          "duration": 0.7058820000000026
        },
        {
          "name": "A3",
          "midi": 57,
          "time": 50.11762200000005,
          "velocity": 0.7874015748031497,
          "duration": 0.17647050000000064
        },
        {
          "name": "F#2",
          "midi": 42,
          "time": 50.47056300000005,
          "velocity": 0.7874015748031497,
          "duration": 0.17647050000000064
        },
        {
          "name": "C2",
          "midi": 36,
          "time": 50.82350400000005,
          "velocity": 0.7874015748031497,
          "duration": 0.7058820000000026
        },
        {
          "name": "C#3",
          "midi": 49,
          "time": 50.82350400000005,
          "velocity": 0.7874015748031497,
          "duration": 0.17647050000000064
        },
        {
          "name": "F#2",
          "midi": 42,
          "time": 51.17644500000005,
          "velocity": 0.7874015748031497,
          "duration": 0.17647050000000064
        },
        {
          "name": "E2",
          "midi": 40,
          "time": 51.52938600000005,
          "velocity": 0.7874015748031497,
          "duration": 0.7058820000000026
        },
        {
          "name": "A3",
          "midi": 57,
          "time": 51.52938600000005,
          "velocity": 0.7874015748031497,
          "duration": 0.17647050000000064
        },
        {
          "name": "F#2",
          "midi": 42,
          "time": 51.88232700000005,
          "velocity": 0.7874015748031497,
          "duration": 0.17647050000000064
        },
        {
          "name": "C2",
          "midi": 36,
          "time": 52.235268000000055,
          "velocity": 0.7874015748031497,
          "duration": 0.3529410000000013
        },
        {
          "name": "F#2",
          "midi": 42,
          "time": 52.235268000000055,
          "velocity": 0.7874015748031497,
          "duration": 0.17647050000000064
        },
        {
          "name": "C2",
          "midi": 36,
          "time": 52.588209000000056,
          "velocity": 0.7874015748031497,
          "duration": 0.3529410000000013
        },
        {
          "name": "F#2",
          "midi": 42,
          "time": 52.588209000000056,
          "velocity": 0.7874015748031497,
          "duration": 0.17647050000000064
        },
        {
          "name": "E2",
          "midi": 40,
          "time": 52.94115000000006,
          "velocity": 0.7874015748031497,
          "duration": 0.7058820000000026
        },
        {
          "name": "F#2",
          "midi": 42,
          "time": 52.94115000000006,
          "velocity": 0.7874015748031497,
          "duration": 0.17647050000000064
        },
        {
          "name": "F#2",
          "midi": 42,
          "time": 53.29409100000006,
          "velocity": 0.7874015748031497,
          "duration": 0.17647050000000064
        },
        {
          "name": "C2",
          "midi": 36,
          "time": 53.64703200000006,
          "velocity": 0.7874015748031497,
          "duration": 0.17647050000000064
        },
        {
          "name": "F#2",
          "midi": 42,
          "time": 53.64703200000006,
          "velocity": 0.7874015748031497,
          "duration": 0.17647050000000064
        },
        {
          "name": "E2",
          "midi": 40,
          "time": 53.82350250000006,
          "velocity": 0.7874015748031497,
          "duration": 0.17647050000000064
        },
        {
          "name": "C2",
          "midi": 36,
          "time": 53.99997300000006,
          "velocity": 0.7874015748031497,
          "duration": 0.17647050000000064
        },
        {
          "name": "F#2",
          "midi": 42,
          "time": 53.99997300000006,
          "velocity": 0.7874015748031497,
          "duration": 0.17647050000000064
        },
        {
          "name": "C2",
          "midi": 36,
          "time": 54.17644350000006,
          "velocity": 0.7874015748031497,
          "duration": 0.17647050000000064
        },
        {
          "name": "E2",
          "midi": 40,
          "time": 54.35291400000006,
          "velocity": 0.7874015748031497,
          "duration": 0.17647050000000064
        },
        {
          "name": "F#2",
          "midi": 42,
          "time": 54.35291400000006,
          "velocity": 0.7874015748031497,
          "duration": 0.17647050000000064
        },
        {
          "name": "C2",
          "midi": 36,
          "time": 54.52938450000006,
          "velocity": 0.7874015748031497,
          "duration": 0.17647050000000064
        },
        {
          "name": "E2",
          "midi": 40,
          "time": 54.705855000000064,
          "velocity": 0.7874015748031497,
          "duration": 0.34411747499999734
        },
        {
          "name": "F#2",
          "midi": 42,
          "time": 54.705855000000064,
          "velocity": 0.7874015748031497,
          "duration": 0.17647050000000064
        },
        {
          "name": "C2",
          "midi": 36,
          "time": 55.05879600000006,
          "velocity": 0.7874015748031497,
          "duration": 0.3529410000000013
        },
        {
          "name": "F#2",
          "midi": 42,
          "time": 55.05879600000006,
          "velocity": 0.7874015748031497,
          "duration": 0.17647050000000064
        },
        {
          "name": "C2",
          "midi": 36,
          "time": 55.41173700000006,
          "velocity": 0.7874015748031497,
          "duration": 0.3529410000000013
        },
        {
          "name": "F#2",
          "midi": 42,
          "time": 55.41173700000006,
          "velocity": 0.7874015748031497,
          "duration": 0.17647050000000064
        },
        {
          "name": "E2",
          "midi": 40,
          "time": 55.76467800000006,
          "velocity": 0.7874015748031497,
          "duration": 0.7058820000000026
        },
        {
          "name": "A3",
          "midi": 57,
          "time": 55.76467800000006,
          "velocity": 0.7874015748031497,
          "duration": 0.17647050000000064
        },
        {
          "name": "A#2",
          "midi": 46,
          "time": 56.11761900000006,
          "velocity": 0.7874015748031497,
          "duration": 0.17647050000000064
        },
        {
          "name": "C2",
          "midi": 36,
          "time": 56.47056000000006,
          "velocity": 0.7874015748031497,
          "duration": 0.7058820000000026
        },
        {
          "name": "C#3",
          "midi": 49,
          "time": 56.47056000000006,
          "velocity": 0.7874015748031497,
          "duration": 0.17647050000000064
        },
        {
          "name": "F#2",
          "midi": 42,
          "time": 56.823501000000064,
          "velocity": 0.7874015748031497,
          "duration": 0.17647050000000064
        },
        {
          "name": "E2",
          "midi": 40,
          "time": 57.176442000000065,
          "velocity": 0.7874015748031497,
          "duration": 0.7058820000000026
        },
        {
          "name": "A3",
          "midi": 57,
          "time": 57.176442000000065,
          "velocity": 0.7874015748031497,
          "duration": 0.17647050000000064
        },
        {
          "name": "F#2",
          "midi": 42,
          "time": 57.52938300000007,
          "velocity": 0.7874015748031497,
          "duration": 0.17647050000000064
        },
        {
          "name": "C2",
          "midi": 36,
          "time": 57.88232400000007,
          "velocity": 0.7874015748031497,
          "duration": 0.3529410000000013
        },
        {
          "name": "F#2",
          "midi": 42,
          "time": 57.88232400000007,
          "velocity": 0.7874015748031497,
          "duration": 0.17647050000000064
        },
        {
          "name": "C2",
          "midi": 36,
          "time": 58.23526500000007,
          "velocity": 0.7874015748031497,
          "duration": 0.3529410000000013
        },
        {
          "name": "F#2",
          "midi": 42,
          "time": 58.23526500000007,
          "velocity": 0.7874015748031497,
          "duration": 0.17647050000000064
        },
        {
          "name": "E2",
          "midi": 40,
          "time": 58.58820600000007,
          "velocity": 0.7874015748031497,
          "duration": 0.7058820000000026
        },
        {
          "name": "F#2",
          "midi": 42,
          "time": 58.58820600000007,
          "velocity": 0.7874015748031497,
          "duration": 0.17647050000000064
        },
        {
          "name": "F#2",
          "midi": 42,
          "time": 58.94114700000007,
          "velocity": 0.7874015748031497,
          "duration": 0.17647050000000064
        },
        {
          "name": "C2",
          "midi": 36,
          "time": 59.29408800000007,
          "velocity": 0.7874015748031497,
          "duration": 0.17647050000000064
        },
        {
          "name": "F#2",
          "midi": 42,
          "time": 59.29408800000007,
          "velocity": 0.7874015748031497,
          "duration": 0.17647050000000064
        },
        {
          "name": "E2",
          "midi": 40,
          "time": 59.470558500000074,
          "velocity": 0.7874015748031497,
          "duration": 0.17647050000000064
        },
        {
          "name": "C2",
          "midi": 36,
          "time": 59.647029000000074,
          "velocity": 0.7874015748031497,
          "duration": 0.17647050000000064
        },
        {
          "name": "F#2",
          "midi": 42,
          "time": 59.647029000000074,
          "velocity": 0.7874015748031497,
          "duration": 0.17647050000000064
        },
        {
          "name": "C2",
          "midi": 36,
          "time": 59.823499500000075,
          "velocity": 0.7874015748031497,
          "duration": 0.17647050000000064
        },
        {
          "name": "E2",
          "midi": 40,
          "time": 59.999970000000076,
          "velocity": 0.7874015748031497,
          "duration": 0.17647050000000064
        },
        {
          "name": "F#2",
          "midi": 42,
          "time": 59.999970000000076,
          "velocity": 0.7874015748031497,
          "duration": 0.17647050000000064
        },
        {
          "name": "C2",
          "midi": 36,
          "time": 60.176440500000076,
          "velocity": 0.7874015748031497,
          "duration": 0.17647050000000064
        },
        {
          "name": "E2",
          "midi": 40,
          "time": 60.35291100000008,
          "velocity": 0.7874015748031497,
          "duration": 0.34411747499999734
        },
        {
          "name": "F#2",
          "midi": 42,
          "time": 60.35291100000008,
          "velocity": 0.7874015748031497,
          "duration": 0.17647050000000064
        },
        {
          "name": "F#2",
          "midi": 42,
          "time": 60.70585200000007,
          "velocity": 0.7874015748031497,
          "duration": 0.17647050000000064
        },
        {
          "name": "E2",
          "midi": 40,
          "time": 60.70585200000007,
          "velocity": 0.7874015748031497,
          "duration": 0.3529410000000013
        },
        {
          "name": "C2",
          "midi": 36,
          "time": 60.88232250000007,
          "velocity": 0.7874015748031497,
          "duration": 0.3529410000000013
        },
        {
          "name": "F#2",
          "midi": 42,
          "time": 61.05879300000007,
          "velocity": 0.7874015748031497,
          "duration": 0.17647050000000064
        },
        {
          "name": "E2",
          "midi": 40,
          "time": 61.05879300000007,
          "velocity": 0.7874015748031497,
          "duration": 0.3529410000000013
        },
        {
          "name": "C2",
          "midi": 36,
          "time": 61.23526350000007,
          "velocity": 0.7874015748031497,
          "duration": 0.3529410000000013
        },
        {
          "name": "E2",
          "midi": 40,
          "time": 61.411734000000074,
          "velocity": 0.7874015748031497,
          "duration": 0.7058820000000026
        },
        {
          "name": "F#2",
          "midi": 42,
          "time": 61.411734000000074,
          "velocity": 0.7874015748031497,
          "duration": 0.17647050000000064
        },
        {
          "name": "C2",
          "midi": 36,
          "time": 61.588204500000074,
          "velocity": 0.7874015748031497,
          "duration": 0.3529410000000013
        },
        {
          "name": "A#2",
          "midi": 46,
          "time": 61.764675000000075,
          "velocity": 0.7874015748031497,
          "duration": 0.17647050000000064
        },
        {
          "name": "E2",
          "midi": 40,
          "time": 61.764675000000075,
          "velocity": 0.7874015748031497,
          "duration": 0.3529410000000013
        },
        {
          "name": "C2",
          "midi": 36,
          "time": 62.117616000000076,
          "velocity": 0.7874015748031497,
          "duration": 0.3529410000000013
        },
        {
          "name": "C#3",
          "midi": 49,
          "time": 62.117616000000076,
          "velocity": 0.7874015748031497,
          "duration": 0.17647050000000064
        },
        {
          "name": "C2",
          "midi": 36,
          "time": 62.47055700000008,
          "velocity": 0.7874015748031497,
          "duration": 0.3529410000000013
        },
        {
          "name": "A3",
          "midi": 57,
          "time": 62.47055700000008,
          "velocity": 0.7874015748031497,
          "duration": 0.17647050000000064
        },
        {
          "name": "E2",
          "midi": 40,
          "time": 62.82349800000008,
          "velocity": 0.7874015748031497,
          "duration": 0.08823524999999677
        },
        {
          "name": "G3",
          "midi": 55,
          "time": 62.82349800000008,
          "velocity": 0.7874015748031497,
          "duration": 0.17647049999999354
        },
        {
          "name": "G3",
          "midi": 55,
          "time": 63.17643900000007,
          "velocity": 0.7874015748031497,
          "duration": 0.17647050000000064
        },
        {
          "name": "C2",
          "midi": 36,
          "time": 63.529380000000074,
          "velocity": 0.7874015748031497,
          "duration": 0.08823524999999677
        },
        {
          "name": "G3",
          "midi": 55,
          "time": 63.529380000000074,
          "velocity": 0.7874015748031497,
          "duration": 0.17647049999999354
        },
        {
          "name": "E2",
          "midi": 40,
          "time": 63.70585050000007,
          "velocity": 0.7874015748031497,
          "duration": 0.08823524999999677
        },
        {
          "name": "G3",
          "midi": 55,
          "time": 63.88232100000006,
          "velocity": 0.7874015748031497,
          "duration": 0.17647049999999354
        },
        {
          "name": "C2",
          "midi": 36,
          "time": 64.05879150000005,
          "velocity": 0.7874015748031497,
          "duration": 0.35294099999998707
        },
        {
          "name": "E2",
          "midi": 40,
          "time": 64.23526200000005,
          "velocity": 0.7874015748031497,
          "duration": 0.35294099999998707
        },
        {
          "name": "G3",
          "midi": 55,
          "time": 64.23526200000005,
          "velocity": 0.7874015748031497,
          "duration": 0.17647049999999354
        },
        {
          "name": "G3",
          "midi": 55,
          "time": 64.58820300000004,
          "velocity": 0.7874015748031497,
          "duration": 0.17647049999999354
        },
        {
          "name": "E2",
          "midi": 40,
          "time": 64.76467350000003,
          "velocity": 0.7874015748031497,
          "duration": 0.35294099999998707
        },
        {
          "name": "C2",
          "midi": 36,
          "time": 64.94114400000002,
          "velocity": 0.7874015748031497,
          "duration": 0.35294099999998707
        },
        {
          "name": "G3",
          "midi": 55,
          "time": 64.94114400000002,
          "velocity": 0.7874015748031497,
          "duration": 0.17647049999999354
        },
        {
          "name": "C2",
          "midi": 36,
          "time": 65.29408500000001,
          "velocity": 0.7874015748031497,
          "duration": 0.35294099999998707
        },
        {
          "name": "G3",
          "midi": 55,
          "time": 65.29408500000001,
          "velocity": 0.7874015748031497,
          "duration": 0.17647049999999354
        },
        {
          "name": "E2",
          "midi": 40,
          "time": 65.647026,
          "velocity": 0.7874015748031497,
          "duration": 0.08823524999999677
        },
        {
          "name": "G3",
          "midi": 55,
          "time": 65.647026,
          "velocity": 0.7874015748031497,
          "duration": 0.17647049999999354
        },
        {
          "name": "G3",
          "midi": 55,
          "time": 65.99996699999998,
          "velocity": 0.7874015748031497,
          "duration": 0.17647049999999354
        },
        {
          "name": "C2",
          "midi": 36,
          "time": 66.35290799999997,
          "velocity": 0.7874015748031497,
          "duration": 0.35294099999998707
        },
        {
          "name": "G3",
          "midi": 55,
          "time": 66.35290799999997,
          "velocity": 0.7874015748031497,
          "duration": 0.17647049999999354
        },
        {
          "name": "E2",
          "midi": 40,
          "time": 66.52937849999996,
          "velocity": 0.7874015748031497,
          "duration": 0.2647057499999903
        },
        {
          "name": "E2",
          "midi": 40,
          "time": 66.61761374999996,
          "velocity": 0.7874015748031497,
          "duration": 0.2647057499999903
        },
        {
          "name": "E2",
          "midi": 40,
          "time": 66.70584899999996,
          "velocity": 0.7874015748031497,
          "duration": 0.35294099999998707
        },
        {
          "name": "C2",
          "midi": 36,
          "time": 66.70584899999996,
          "velocity": 0.7874015748031497,
          "duration": 0.35294099999998707
        },
        {
          "name": "G3",
          "midi": 55,
          "time": 66.70584899999996,
          "velocity": 0.7874015748031497,
          "duration": 0.17647049999999354
        },
        {
          "name": "E2",
          "midi": 40,
          "time": 66.79408424999995,
          "velocity": 0.7874015748031497,
          "duration": 0.35294099999998707
        },
        {
          "name": "E2",
          "midi": 40,
          "time": 66.88231949999995,
          "velocity": 0.7874015748031497,
          "duration": 0.35294099999998707
        },
        {
          "name": "E2",
          "midi": 40,
          "time": 66.97055474999995,
          "velocity": 0.7874015748031497,
          "duration": 0.35294099999998707
        },
        {
          "name": "E2",
          "midi": 40,
          "time": 67.05878999999995,
          "velocity": 0.7874015748031497,
          "duration": 0.35294099999998707
        },
        {
          "name": "C2",
          "midi": 36,
          "time": 67.05878999999995,
          "velocity": 0.7874015748031497,
          "duration": 0.35294099999998707
        },
        {
          "name": "G3",
          "midi": 55,
          "time": 67.05878999999995,
          "velocity": 0.7874015748031497,
          "duration": 0.17647049999999354
        },
        {
          "name": "E2",
          "midi": 40,
          "time": 67.14702524999994,
          "velocity": 0.7874015748031497,
          "duration": 0.35294099999998707
        },
        {
          "name": "E2",
          "midi": 40,
          "time": 67.23526049999994,
          "velocity": 0.7874015748031497,
          "duration": 0.2647057499999903
        },
        {
          "name": "E2",
          "midi": 40,
          "time": 67.32349574999994,
          "velocity": 0.7874015748031497,
          "duration": 0.2647057499999903
        },
        {
          "name": "E2",
          "midi": 40,
          "time": 67.41173099999993,
          "velocity": 0.7874015748031497,
          "duration": 0.35294099999998707
        },
        {
          "name": "C2",
          "midi": 36,
          "time": 67.41173099999993,
          "velocity": 0.7874015748031497,
          "duration": 0.35294099999998707
        },
        {
          "name": "G3",
          "midi": 55,
          "time": 67.41173099999993,
          "velocity": 0.7874015748031497,
          "duration": 0.17647049999999354
        },
        {
          "name": "E2",
          "midi": 40,
          "time": 67.49996624999993,
          "velocity": 0.7874015748031497,
          "duration": 0.35294099999998707
        },
        {
          "name": "E2",
          "midi": 40,
          "time": 67.58820149999993,
          "velocity": 0.7874015748031497,
          "duration": 0.35294099999998707
        },
        {
          "name": "E2",
          "midi": 40,
          "time": 67.67643674999992,
          "velocity": 0.7874015748031497,
          "duration": 0.35294099999998707
        },
        {
          "name": "C2",
          "midi": 36,
          "time": 67.76467199999992,
          "velocity": 0.7874015748031497,
          "duration": 0.35294099999998707
        },
        {
          "name": "C#3",
          "midi": 49,
          "time": 67.76467199999992,
          "velocity": 0.7874015748031497,
          "duration": 0.17647049999999354
        },
        {
          "name": "C2",
          "midi": 36,
          "time": 68.1176129999999,
          "velocity": 0.7874015748031497,
          "duration": 0.35294099999998707
        },
        {
          "name": "A3",
          "midi": 57,
          "time": 68.1176129999999,
          "velocity": 0.7874015748031497,
          "duration": 0.17647049999999354
        },
        {
          "name": "E2",
          "midi": 40,
          "time": 68.4705539999999,
          "velocity": 0.7874015748031497,
          "duration": 0.08823524999999677
        },
        {
          "name": "G3",
          "midi": 55,
          "time": 68.4705539999999,
          "velocity": 0.7874015748031497,
          "duration": 0.17647049999999354
        },
        {
          "name": "G3",
          "midi": 55,
          "time": 68.82349499999988,
          "velocity": 0.7874015748031497,
          "duration": 0.17647049999999354
        },
        {
          "name": "C2",
          "midi": 36,
          "time": 69.17643599999987,
          "velocity": 0.7874015748031497,
          "duration": 0.08823524999999677
        },
        {
          "name": "G3",
          "midi": 55,
          "time": 69.17643599999987,
          "velocity": 0.7874015748031497,
          "duration": 0.17647049999999354
        },
        {
          "name": "E2",
          "midi": 40,
          "time": 69.35290649999986,
          "velocity": 0.7874015748031497,
          "duration": 0.08823524999999677
        },
        {
          "name": "G3",
          "midi": 55,
          "time": 69.52937699999985,
          "velocity": 0.7874015748031497,
          "duration": 0.17647049999999354
        },
        {
          "name": "C2",
          "midi": 36,
          "time": 69.70584749999985,
          "velocity": 0.7874015748031497,
          "duration": 0.35294099999998707
        },
        {
          "name": "E2",
          "midi": 40,
          "time": 69.88231799999984,
          "velocity": 0.7874015748031497,
          "duration": 0.35294099999998707
        },
        {
          "name": "G3",
          "midi": 55,
          "time": 69.88231799999984,
          "velocity": 0.7874015748031497,
          "duration": 0.17647049999999354
        },
        {
          "name": "G3",
          "midi": 55,
          "time": 70.23525899999983,
          "velocity": 0.7874015748031497,
          "duration": 0.17647049999999354
        },
        {
          "name": "E2",
          "midi": 40,
          "time": 70.41172949999982,
          "velocity": 0.7874015748031497,
          "duration": 0.35294099999998707
        },
        {
          "name": "C2",
          "midi": 36,
          "time": 70.58819999999982,
          "velocity": 0.7874015748031497,
          "duration": 0.35294099999998707
        },
        {
          "name": "G3",
          "midi": 55,
          "time": 70.58819999999982,
          "velocity": 0.7874015748031497,
          "duration": 0.17647049999999354
        },
        {
          "name": "C2",
          "midi": 36,
          "time": 70.9411409999998,
          "velocity": 0.7874015748031497,
          "duration": 0.35294099999998707
        },
        {
          "name": "G3",
          "midi": 55,
          "time": 70.9411409999998,
          "velocity": 0.7874015748031497,
          "duration": 0.17647049999999354
        },
        {
          "name": "E2",
          "midi": 40,
          "time": 71.29408199999979,
          "velocity": 0.7874015748031497,
          "duration": 0.08823524999999677
        },
        {
          "name": "G3",
          "midi": 55,
          "time": 71.29408199999979,
          "velocity": 0.7874015748031497,
          "duration": 0.17647049999999354
        },
        {
          "name": "G3",
          "midi": 55,
          "time": 71.64702299999978,
          "velocity": 0.7874015748031497,
          "duration": 0.17647049999999354
        },
        {
          "name": "G3",
          "midi": 55,
          "time": 71.99996399999976,
          "velocity": 0.7874015748031497,
          "duration": 0.17647049999999354
        },
        {
          "name": "C2",
          "midi": 36,
          "time": 71.99996399999976,
          "velocity": 0.7874015748031497,
          "duration": 0.08823524999999677
        },
        {
          "name": "E2",
          "midi": 40,
          "time": 72.17643449999976,
          "velocity": 0.7874015748031497,
          "duration": 0.08823524999999677
        },
        {
          "name": "G3",
          "midi": 55,
          "time": 72.35290499999975,
          "velocity": 0.7874015748031497,
          "duration": 0.17647049999999354
        },
        {
          "name": "C2",
          "midi": 36,
          "time": 72.52937549999974,
          "velocity": 0.7874015748031497,
          "duration": 0.35294099999998707
        },
        {
          "name": "G3",
          "midi": 55,
          "time": 72.70584599999974,
          "velocity": 0.7874015748031497,
          "duration": 0.17647049999999354
        },
        {
          "name": "E2",
          "midi": 40,
          "time": 72.70584599999974,
          "velocity": 0.7874015748031497,
          "duration": 0.35294099999998707
        },
        {
          "name": "G3",
          "midi": 55,
          "time": 73.05878699999973,
          "velocity": 0.7874015748031497,
          "duration": 0.17647049999999354
        },
        {
          "name": "E2",
          "midi": 40,
          "time": 73.23525749999972,
          "velocity": 0.7874015748031497,
          "duration": 0.35294099999998707
        },
        {
          "name": "C2",
          "midi": 36,
          "time": 73.41172799999971,
          "velocity": 0.7874015748031497,
          "duration": 0.35294099999998707
        },
        {
          "name": "C#3",
          "midi": 49,
          "time": 73.41172799999971,
          "velocity": 0.7874015748031497,
          "duration": 0.17647049999999354
        },
        {
          "name": "C2",
          "midi": 36,
          "time": 73.7646689999997,
          "velocity": 0.7874015748031497,
          "duration": 0.35294099999998707
        },
        {
          "name": "A3",
          "midi": 57,
          "time": 73.7646689999997,
          "velocity": 0.7874015748031497,
          "duration": 0.17647049999999354
        },
        {
          "name": "E2",
          "midi": 40,
          "time": 74.11760999999969,
          "velocity": 0.7874015748031497,
          "duration": 0.08823524999999677
        },
        {
          "name": "G3",
          "midi": 55,
          "time": 74.11760999999969,
          "velocity": 0.7874015748031497,
          "duration": 0.17647049999999354
        },
        {
          "name": "G3",
          "midi": 55,
          "time": 74.47055099999967,
          "velocity": 0.7874015748031497,
          "duration": 0.17647049999999354
        },
        {
          "name": "C2",
          "midi": 36,
          "time": 74.82349199999966,
          "velocity": 0.7874015748031497,
          "duration": 0.08823524999999677
        },
        {
          "name": "G3",
          "midi": 55,
          "time": 74.82349199999966,
          "velocity": 0.7874015748031497,
          "duration": 0.17647049999999354
        },
        {
          "name": "E2",
          "midi": 40,
          "time": 74.99996249999965,
          "velocity": 0.7874015748031497,
          "duration": 0.08823524999999677
        },
        {
          "name": "G3",
          "midi": 55,
          "time": 75.17643299999965,
          "velocity": 0.7874015748031497,
          "duration": 0.17647049999999354
        },
        {
          "name": "C2",
          "midi": 36,
          "time": 75.35290349999964,
          "velocity": 0.7874015748031497,
          "duration": 0.35294099999998707
        },
        {
          "name": "E2",
          "midi": 40,
          "time": 75.52937399999963,
          "velocity": 0.7874015748031497,
          "duration": 0.35294099999998707
        },
        {
          "name": "G3",
          "midi": 55,
          "time": 75.52937399999963,
          "velocity": 0.7874015748031497,
          "duration": 0.17647049999999354
        },
        {
          "name": "G3",
          "midi": 55,
          "time": 75.88231499999962,
          "velocity": 0.7874015748031497,
          "duration": 0.17647049999999354
        },
        {
          "name": "E2",
          "midi": 40,
          "time": 76.05878549999962,
          "velocity": 0.7874015748031497,
          "duration": 0.35294099999998707
        },
        {
          "name": "C2",
          "midi": 36,
          "time": 76.23525599999961,
          "velocity": 0.7874015748031497,
          "duration": 0.35294099999998707
        },
        {
          "name": "C#3",
          "midi": 49,
          "time": 76.23525599999961,
          "velocity": 0.7874015748031497,
          "duration": 0.17647049999999354
        },
        {
          "name": "C2",
          "midi": 36,
          "time": 76.5881969999996,
          "velocity": 0.7874015748031497,
          "duration": 0.35294099999998707
        },
        {
          "name": "A3",
          "midi": 57,
          "time": 76.5881969999996,
          "velocity": 0.7874015748031497,
          "duration": 0.17647049999999354
        },
        {
          "name": "E2",
          "midi": 40,
          "time": 76.94113799999958,
          "velocity": 0.7874015748031497,
          "duration": 0.08823524999999677
        },
        {
          "name": "C#3",
          "midi": 49,
          "time": 76.94113799999958,
          "velocity": 0.7874015748031497,
          "duration": 0.17647049999999354
        },
        {
          "name": "E2",
          "midi": 40,
          "time": 77.64701999999957,
          "velocity": 0.7874015748031497,
          "duration": 0.08823524999999677
        },
        {
          "name": "E2",
          "midi": 40,
          "time": 77.82349049999956,
          "velocity": 0.7874015748031497,
          "duration": 0.08823524999999677
        },
        {
          "name": "E2",
          "midi": 40,
          "time": 78.17643149999957,
          "velocity": 0.7874015748031497,
          "duration": 0.3529410000000013
        },
        {
          "name": "E2",
          "midi": 40,
          "time": 78.52937249999957,
          "velocity": 0.7874015748031497,
          "duration": 0.3529410000000013
        },
        {
          "name": "E2",
          "midi": 40,
          "time": 78.88231349999957,
          "velocity": 0.7874015748031497,
          "duration": 0.35294099999998707
        },
        {
          "name": "C2",
          "midi": 36,
          "time": 79.05878399999956,
          "velocity": 0.7874015748031497,
          "duration": 0.7058819999999741
        },
        {
          "name": "C#3",
          "midi": 49,
          "time": 79.05878399999956,
          "velocity": 0.7874015748031497,
          "duration": 0.17647049999999354
        },
        {
          "name": "F#2",
          "midi": 42,
          "time": 79.41172499999955,
          "velocity": 0.7874015748031497,
          "duration": 0.17647049999999354
        },
        {
          "name": "E2",
          "midi": 40,
          "time": 79.76466599999954,
          "velocity": 0.7874015748031497,
          "duration": 0.7058819999999741
        },
        {
          "name": "A3",
          "midi": 57,
          "time": 79.76466599999954,
          "velocity": 0.7874015748031497,
          "duration": 0.17647049999999354
        },
        {
          "name": "F#2",
          "midi": 42,
          "time": 80.11760699999952,
          "velocity": 0.7874015748031497,
          "duration": 0.17647049999999354
        },
        {
          "name": "C2",
          "midi": 36,
          "time": 80.47054799999951,
          "velocity": 0.7874015748031497,
          "duration": 0.35294099999998707
        },
        {
          "name": "F#2",
          "midi": 42,
          "time": 80.47054799999951,
          "velocity": 0.7874015748031497,
          "duration": 0.17647049999999354
        },
        {
          "name": "C2",
          "midi": 36,
          "time": 80.8234889999995,
          "velocity": 0.7874015748031497,
          "duration": 0.35294099999998707
        },
        {
          "name": "F#2",
          "midi": 42,
          "time": 80.8234889999995,
          "velocity": 0.7874015748031497,
          "duration": 0.17647049999999354
        },
        {
          "name": "E2",
          "midi": 40,
          "time": 81.17642999999948,
          "velocity": 0.7874015748031497,
          "duration": 0.7058819999999741
        },
        {
          "name": "F#2",
          "midi": 42,
          "time": 81.17642999999948,
          "velocity": 0.7874015748031497,
          "duration": 0.17647049999999354
        },
        {
          "name": "F#2",
          "midi": 42,
          "time": 81.52937099999947,
          "velocity": 0.7874015748031497,
          "duration": 0.17647049999999354
        },
        {
          "name": "C2",
          "midi": 36,
          "time": 81.88231199999946,
          "velocity": 0.7874015748031497,
          "duration": 0.17647049999999354
        },
        {
          "name": "F#2",
          "midi": 42,
          "time": 81.88231199999946,
          "velocity": 0.7874015748031497,
          "duration": 0.17647049999999354
        },
        {
          "name": "E2",
          "midi": 40,
          "time": 82.05878249999945,
          "velocity": 0.7874015748031497,
          "duration": 0.17647049999999354
        },
        {
          "name": "C2",
          "midi": 36,
          "time": 82.23525299999945,
          "velocity": 0.7874015748031497,
          "duration": 0.17647049999999354
        },
        {
          "name": "F#2",
          "midi": 42,
          "time": 82.23525299999945,
          "velocity": 0.7874015748031497,
          "duration": 0.17647049999999354
        },
        {
          "name": "C2",
          "midi": 36,
          "time": 82.41172349999944,
          "velocity": 0.7874015748031497,
          "duration": 0.17647049999999354
        },
        {
          "name": "E2",
          "midi": 40,
          "time": 82.58819399999943,
          "velocity": 0.7874015748031497,
          "duration": 0.17647049999999354
        },
        {
          "name": "F#2",
          "midi": 42,
          "time": 82.58819399999943,
          "velocity": 0.7874015748031497,
          "duration": 0.17647049999999354
        },
        {
          "name": "C2",
          "midi": 36,
          "time": 82.76466449999943,
          "velocity": 0.7874015748031497,
          "duration": 0.17647049999999354
        },
        {
          "name": "E2",
          "midi": 40,
          "time": 82.94113499999942,
          "velocity": 0.7874015748031497,
          "duration": 0.34411747499999024
        },
        {
          "name": "F#2",
          "midi": 42,
          "time": 82.94113499999942,
          "velocity": 0.7874015748031497,
          "duration": 0.17647049999999354
        },
        {
          "name": "C2",
          "midi": 36,
          "time": 83.29407599999941,
          "velocity": 0.7874015748031497,
          "duration": 0.35294099999998707
        },
        {
          "name": "F#2",
          "midi": 42,
          "time": 83.29407599999941,
          "velocity": 0.7874015748031497,
          "duration": 0.17647049999999354
        },
        {
          "name": "C2",
          "midi": 36,
          "time": 83.6470169999994,
          "velocity": 0.7874015748031497,
          "duration": 0.35294099999998707
        },
        {
          "name": "F#2",
          "midi": 42,
          "time": 83.6470169999994,
          "velocity": 0.7874015748031497,
          "duration": 0.17647049999999354
        },
        {
          "name": "E2",
          "midi": 40,
          "time": 83.99995799999938,
          "velocity": 0.7874015748031497,
          "duration": 0.7058819999999741
        },
        {
          "name": "A3",
          "midi": 57,
          "time": 83.99995799999938,
          "velocity": 0.7874015748031497,
          "duration": 0.17647049999999354
        },
        {
          "name": "F#2",
          "midi": 42,
          "time": 84.35289899999937,
          "velocity": 0.7874015748031497,
          "duration": 0.17647049999999354
        },
        {
          "name": "C2",
          "midi": 36,
          "time": 84.70583999999936,
          "velocity": 0.7874015748031497,
          "duration": 0.7058819999999741
        },
        {
          "name": "C#3",
          "midi": 49,
          "time": 84.70583999999936,
          "velocity": 0.7874015748031497,
          "duration": 0.17647049999999354
        },
        {
          "name": "F#2",
          "midi": 42,
          "time": 85.05878099999934,
          "velocity": 0.7874015748031497,
          "duration": 0.17647049999999354
        },
        {
          "name": "E2",
          "midi": 40,
          "time": 85.41172199999933,
          "velocity": 0.7874015748031497,
          "duration": 0.7058819999999741
        },
        {
          "name": "A3",
          "midi": 57,
          "time": 85.41172199999933,
          "velocity": 0.7874015748031497,
          "duration": 0.17647049999999354
        },
        {
          "name": "F#2",
          "midi": 42,
          "time": 85.76466299999932,
          "velocity": 0.7874015748031497,
          "duration": 0.17647049999999354
        },
        {
          "name": "C2",
          "midi": 36,
          "time": 86.1176039999993,
          "velocity": 0.7874015748031497,
          "duration": 0.35294099999998707
        },
        {
          "name": "F#2",
          "midi": 42,
          "time": 86.1176039999993,
          "velocity": 0.7874015748031497,
          "duration": 0.17647049999999354
        },
        {
          "name": "C2",
          "midi": 36,
          "time": 86.47054499999929,
          "velocity": 0.7874015748031497,
          "duration": 0.35294099999998707
        },
        {
          "name": "F#2",
          "midi": 42,
          "time": 86.47054499999929,
          "velocity": 0.7874015748031497,
          "duration": 0.17647049999999354
        },
        {
          "name": "E2",
          "midi": 40,
          "time": 86.82348599999928,
          "velocity": 0.7874015748031497,
          "duration": 0.7058819999999741
        },
        {
          "name": "F#2",
          "midi": 42,
          "time": 86.82348599999928,
          "velocity": 0.7874015748031497,
          "duration": 0.17647049999999354
        },
        {
          "name": "F#2",
          "midi": 42,
          "time": 87.17642699999926,
          "velocity": 0.7874015748031497,
          "duration": 0.17647049999999354
        },
        {
          "name": "C2",
          "midi": 36,
          "time": 87.52936799999925,
          "velocity": 0.7874015748031497,
          "duration": 0.17647049999999354
        },
        {
          "name": "F#2",
          "midi": 42,
          "time": 87.52936799999925,
          "velocity": 0.7874015748031497,
          "duration": 0.17647049999999354
        },
        {
          "name": "E2",
          "midi": 40,
          "time": 87.70583849999925,
          "velocity": 0.7874015748031497,
          "duration": 0.17647049999999354
        },
        {
          "name": "C2",
          "midi": 36,
          "time": 87.88230899999924,
          "velocity": 0.7874015748031497,
          "duration": 0.17647049999999354
        },
        {
          "name": "F#2",
          "midi": 42,
          "time": 87.88230899999924,
          "velocity": 0.7874015748031497,
          "duration": 0.17647049999999354
        },
        {
          "name": "C2",
          "midi": 36,
          "time": 88.05877949999923,
          "velocity": 0.7874015748031497,
          "duration": 0.17647049999999354
        },
        {
          "name": "E2",
          "midi": 40,
          "time": 88.23524999999923,
          "velocity": 0.7874015748031497,
          "duration": 0.17647049999999354
        },
        {
          "name": "F#2",
          "midi": 42,
          "time": 88.23524999999923,
          "velocity": 0.7874015748031497,
          "duration": 0.17647049999999354
        },
        {
          "name": "C2",
          "midi": 36,
          "time": 88.41172049999922,
          "velocity": 0.7874015748031497,
          "duration": 0.17647049999999354
        },
        {
          "name": "E2",
          "midi": 40,
          "time": 88.58819099999921,
          "velocity": 0.7874015748031497,
          "duration": 0.34411747499999024
        },
        {
          "name": "F#2",
          "midi": 42,
          "time": 88.58819099999921,
          "velocity": 0.7874015748031497,
          "duration": 0.17647049999999354
        },
        {
          "name": "C2",
          "midi": 36,
          "time": 88.9411319999992,
          "velocity": 0.7874015748031497,
          "duration": 0.35294099999998707
        },
        {
          "name": "F#2",
          "midi": 42,
          "time": 88.9411319999992,
          "velocity": 0.7874015748031497,
          "duration": 0.17647049999999354
        },
        {
          "name": "C2",
          "midi": 36,
          "time": 89.29407299999919,
          "velocity": 0.7874015748031497,
          "duration": 0.35294099999998707
        },
        {
          "name": "F#2",
          "midi": 42,
          "time": 89.29407299999919,
          "velocity": 0.7874015748031497,
          "duration": 0.17647049999999354
        },
        {
          "name": "E2",
          "midi": 40,
          "time": 89.64701399999917,
          "velocity": 0.7874015748031497,
          "duration": 0.7058819999999741
        },
        {
          "name": "A3",
          "midi": 57,
          "time": 89.64701399999917,
          "velocity": 0.7874015748031497,
          "duration": 0.17647049999999354
        },
        {
          "name": "F#2",
          "midi": 42,
          "time": 89.99995499999916,
          "velocity": 0.7874015748031497,
          "duration": 0.17647049999999354
        },
        {
          "name": "C2",
          "midi": 36,
          "time": 90.35289599999915,
          "velocity": 0.7874015748031497,
          "duration": 0.7058819999999741
        },
        {
          "name": "C#3",
          "midi": 49,
          "time": 90.35289599999915,
          "velocity": 0.7874015748031497,
          "duration": 0.17647049999999354
        },
        {
          "name": "F#2",
          "midi": 42,
          "time": 90.70583699999914,
          "velocity": 0.7874015748031497,
          "duration": 0.17647049999999354
        },
        {
          "name": "E2",
          "midi": 40,
          "time": 91.05877799999912,
          "velocity": 0.7874015748031497,
          "duration": 0.7058819999999741
        },
        {
          "name": "A3",
          "midi": 57,
          "time": 91.05877799999912,
          "velocity": 0.7874015748031497,
          "duration": 0.17647049999999354
        },
        {
          "name": "F#2",
          "midi": 42,
          "time": 91.41171899999911,
          "velocity": 0.7874015748031497,
          "duration": 0.17647049999999354
        },
        {
          "name": "C2",
          "midi": 36,
          "time": 91.7646599999991,
          "velocity": 0.7874015748031497,
          "duration": 0.35294099999998707
        },
        {
          "name": "F#2",
          "midi": 42,
          "time": 91.7646599999991,
          "velocity": 0.7874015748031497,
          "duration": 0.17647049999999354
        },
        {
          "name": "C2",
          "midi": 36,
          "time": 92.11760099999908,
          "velocity": 0.7874015748031497,
          "duration": 0.35294099999998707
        },
        {
          "name": "F#2",
          "midi": 42,
          "time": 92.11760099999908,
          "velocity": 0.7874015748031497,
          "duration": 0.17647049999999354
        },
        {
          "name": "E2",
          "midi": 40,
          "time": 92.47054199999907,
          "velocity": 0.7874015748031497,
          "duration": 0.7058819999999741
        },
        {
          "name": "F#2",
          "midi": 42,
          "time": 92.47054199999907,
          "velocity": 0.7874015748031497,
          "duration": 0.17647049999999354
        },
        {
          "name": "F#2",
          "midi": 42,
          "time": 92.82348299999906,
          "velocity": 0.7874015748031497,
          "duration": 0.17647049999999354
        },
        {
          "name": "C2",
          "midi": 36,
          "time": 93.17642399999905,
          "velocity": 0.7874015748031497,
          "duration": 0.17647049999999354
        },
        {
          "name": "F#2",
          "midi": 42,
          "time": 93.17642399999905,
          "velocity": 0.7874015748031497,
          "duration": 0.17647049999999354
        },
        {
          "name": "E2",
          "midi": 40,
          "time": 93.35289449999904,
          "velocity": 0.7874015748031497,
          "duration": 0.17647049999999354
        },
        {
          "name": "C2",
          "midi": 36,
          "time": 93.52936499999903,
          "velocity": 0.7874015748031497,
          "duration": 0.17647049999999354
        },
        {
          "name": "F#2",
          "midi": 42,
          "time": 93.52936499999903,
          "velocity": 0.7874015748031497,
          "duration": 0.17647049999999354
        },
        {
          "name": "C2",
          "midi": 36,
          "time": 93.70583549999903,
          "velocity": 0.7874015748031497,
          "duration": 0.17647049999999354
        },
        {
          "name": "E2",
          "midi": 40,
          "time": 93.88230599999902,
          "velocity": 0.7874015748031497,
          "duration": 0.17647049999999354
        },
        {
          "name": "F#2",
          "midi": 42,
          "time": 93.88230599999902,
          "velocity": 0.7874015748031497,
          "duration": 0.17647049999999354
        },
        {
          "name": "C2",
          "midi": 36,
          "time": 94.05877649999901,
          "velocity": 0.7874015748031497,
          "duration": 0.17647049999999354
        },
        {
          "name": "E2",
          "midi": 40,
          "time": 94.235246999999,
          "velocity": 0.7874015748031497,
          "duration": 0.34411747499999024
        },
        {
          "name": "F#2",
          "midi": 42,
          "time": 94.235246999999,
          "velocity": 0.7874015748031497,
          "duration": 0.17647049999999354
        },
        {
          "name": "C2",
          "midi": 36,
          "time": 94.588187999999,
          "velocity": 0.7874015748031497,
          "duration": 0.35294099999998707
        },
        {
          "name": "F#2",
          "midi": 42,
          "time": 94.588187999999,
          "velocity": 0.7874015748031497,
          "duration": 0.17647049999999354
        },
        {
          "name": "C2",
          "midi": 36,
          "time": 94.94112899999898,
          "velocity": 0.7874015748031497,
          "duration": 0.35294099999998707
        },
        {
          "name": "F#2",
          "midi": 42,
          "time": 94.94112899999898,
          "velocity": 0.7874015748031497,
          "duration": 0.17647049999999354
        },
        {
          "name": "E2",
          "midi": 40,
          "time": 95.29406999999897,
          "velocity": 0.7874015748031497,
          "duration": 0.7058819999999741
        },
        {
          "name": "A3",
          "midi": 57,
          "time": 95.29406999999897,
          "velocity": 0.7874015748031497,
          "duration": 0.17647049999999354
        },
        {
          "name": "A#2",
          "midi": 46,
          "time": 95.64701099999895,
          "velocity": 0.7874015748031497,
          "duration": 0.17647049999999354
        },
        {
          "name": "C2",
          "midi": 36,
          "time": 95.99995199999894,
          "velocity": 0.7874015748031497,
          "duration": 0.7058819999999741
        },
        {
          "name": "C#3",
          "midi": 49,
          "time": 95.99995199999894,
          "velocity": 0.7874015748031497,
          "duration": 0.17647049999999354
        },
        {
          "name": "F#2",
          "midi": 42,
          "time": 96.35289299999893,
          "velocity": 0.7874015748031497,
          "duration": 0.17647049999999354
        },
        {
          "name": "E2",
          "midi": 40,
          "time": 96.70583399999892,
          "velocity": 0.7874015748031497,
          "duration": 0.7058819999999741
        },
        {
          "name": "A3",
          "midi": 57,
          "time": 96.70583399999892,
          "velocity": 0.7874015748031497,
          "duration": 0.17647049999999354
        },
        {
          "name": "F#2",
          "midi": 42,
          "time": 97.0587749999989,
          "velocity": 0.7874015748031497,
          "duration": 0.17647049999999354
        },
        {
          "name": "C2",
          "midi": 36,
          "time": 97.41171599999889,
          "velocity": 0.7874015748031497,
          "duration": 0.35294099999998707
        },
        {
          "name": "F#2",
          "midi": 42,
          "time": 97.41171599999889,
          "velocity": 0.7874015748031497,
          "duration": 0.17647049999999354
        },
        {
          "name": "C2",
          "midi": 36,
          "time": 97.76465699999888,
          "velocity": 0.7874015748031497,
          "duration": 0.35294099999998707
        },
        {
          "name": "F#2",
          "midi": 42,
          "time": 97.76465699999888,
          "velocity": 0.7874015748031497,
          "duration": 0.17647049999999354
        },
        {
          "name": "E2",
          "midi": 40,
          "time": 98.11759799999886,
          "velocity": 0.7874015748031497,
          "duration": 0.7058819999999741
        },
        {
          "name": "F#2",
          "midi": 42,
          "time": 98.11759799999886,
          "velocity": 0.7874015748031497,
          "duration": 0.17647049999999354
        },
        {
          "name": "F#2",
          "midi": 42,
          "time": 98.47053899999885,
          "velocity": 0.7874015748031497,
          "duration": 0.17647049999999354
        },
        {
          "name": "C2",
          "midi": 36,
          "time": 98.82347999999884,
          "velocity": 0.7874015748031497,
          "duration": 0.17647049999999354
        },
        {
          "name": "F#2",
          "midi": 42,
          "time": 98.82347999999884,
          "velocity": 0.7874015748031497,
          "duration": 0.17647049999999354
        },
        {
          "name": "E2",
          "midi": 40,
          "time": 98.99995049999883,
          "velocity": 0.7874015748031497,
          "duration": 0.17647049999999354
        },
        {
          "name": "C2",
          "midi": 36,
          "time": 99.17642099999883,
          "velocity": 0.7874015748031497,
          "duration": 0.17647049999999354
        },
        {
          "name": "F#2",
          "midi": 42,
          "time": 99.17642099999883,
          "velocity": 0.7874015748031497,
          "duration": 0.17647049999999354
        },
        {
          "name": "C2",
          "midi": 36,
          "time": 99.35289149999882,
          "velocity": 0.7874015748031497,
          "duration": 0.17647049999999354
        },
        {
          "name": "E2",
          "midi": 40,
          "time": 99.52936199999881,
          "velocity": 0.7874015748031497,
          "duration": 0.17647049999999354
        },
        {
          "name": "F#2",
          "midi": 42,
          "time": 99.52936199999881,
          "velocity": 0.7874015748031497,
          "duration": 0.17647049999999354
        },
        {
          "name": "C2",
          "midi": 36,
          "time": 99.7058324999988,
          "velocity": 0.7874015748031497,
          "duration": 0.17647049999999354
        },
        {
          "name": "E2",
          "midi": 40,
          "time": 99.8823029999988,
          "velocity": 0.7874015748031497,
          "duration": 0.34411747499999024
        },
        {
          "name": "F#2",
          "midi": 42,
          "time": 99.8823029999988,
          "velocity": 0.7874015748031497,
          "duration": 0.17647049999999354
        },
        {
          "name": "F#2",
          "midi": 42,
          "time": 100.23524399999879,
          "velocity": 0.7874015748031497,
          "duration": 0.17647049999999354
        },
        {
          "name": "E2",
          "midi": 40,
          "time": 100.23524399999879,
          "velocity": 0.7874015748031497,
          "duration": 0.35294099999998707
        },
        {
          "name": "C2",
          "midi": 36,
          "time": 100.41171449999878,
          "velocity": 0.7874015748031497,
          "duration": 0.35294099999998707
        },
        {
          "name": "F#2",
          "midi": 42,
          "time": 100.58818499999877,
          "velocity": 0.7874015748031497,
          "duration": 0.17647049999999354
        },
        {
          "name": "E2",
          "midi": 40,
          "time": 100.58818499999877,
          "velocity": 0.7874015748031497,
          "duration": 0.35294099999998707
        },
        {
          "name": "C2",
          "midi": 36,
          "time": 100.76465549999877,
          "velocity": 0.7874015748031497,
          "duration": 0.35294099999998707
        },
        {
          "name": "E2",
          "midi": 40,
          "time": 100.94112599999876,
          "velocity": 0.7874015748031497,
          "duration": 0.7058819999999741
        },
        {
          "name": "F#2",
          "midi": 42,
          "time": 100.94112599999876,
          "velocity": 0.7874015748031497,
          "duration": 0.17647049999999354
        },
        {
          "name": "C2",
          "midi": 36,
          "time": 101.11759649999875,
          "velocity": 0.7874015748031497,
          "duration": 0.35294099999998707
        },
        {
          "name": "A#2",
          "midi": 46,
          "time": 101.29406699999875,
          "velocity": 0.7874015748031497,
          "duration": 0.17647049999999354
        },
        {
          "name": "E2",
          "midi": 40,
          "time": 101.29406699999875,
          "velocity": 0.7874015748031497,
          "duration": 0.35294099999998707
        },
        {
          "name": "C2",
          "midi": 36,
          "time": 101.64700799999873,
          "velocity": 0.7874015748031497,
          "duration": 0.35294099999998707
        },
        {
          "name": "C#3",
          "midi": 49,
          "time": 101.64700799999873,
          "velocity": 0.7874015748031497,
          "duration": 0.17647049999999354
        },
        {
          "name": "C2",
          "midi": 36,
          "time": 101.99994899999872,
          "velocity": 0.7874015748031497,
          "duration": 0.35294099999998707
        },
        {
          "name": "G3",
          "midi": 55,
          "time": 101.99994899999872,
          "velocity": 0.7874015748031497,
          "duration": 0.17647049999999354
        },
        {
          "name": "E2",
          "midi": 40,
          "time": 102.35288999999871,
          "velocity": 0.7874015748031497,
          "duration": 0.08823524999999677
        },
        {
          "name": "G3",
          "midi": 55,
          "time": 102.35288999999871,
          "velocity": 0.7874015748031497,
          "duration": 0.17647049999999354
        },
        {
          "name": "G3",
          "midi": 55,
          "time": 102.7058309999987,
          "velocity": 0.7874015748031497,
          "duration": 0.17647049999999354
        },
        {
          "name": "C2",
          "midi": 36,
          "time": 103.05877199999868,
          "velocity": 0.7874015748031497,
          "duration": 0.08823524999999677
        },
        {
          "name": "G3",
          "midi": 55,
          "time": 103.05877199999868,
          "velocity": 0.7874015748031497,
          "duration": 0.17647049999999354
        },
        {
          "name": "E2",
          "midi": 40,
          "time": 103.23524249999868,
          "velocity": 0.7874015748031497,
          "duration": 0.08823524999999677
        },
        {
          "name": "G3",
          "midi": 55,
          "time": 103.41171299999867,
          "velocity": 0.7874015748031497,
          "duration": 0.17647049999999354
        },
        {
          "name": "C2",
          "midi": 36,
          "time": 103.58818349999866,
          "velocity": 0.7874015748031497,
          "duration": 0.35294099999998707
        },
        {
          "name": "E2",
          "midi": 40,
          "time": 103.76465399999866,
          "velocity": 0.7874015748031497,
          "duration": 0.35294099999998707
        },
        {
          "name": "G3",
          "midi": 55,
          "time": 103.76465399999866,
          "velocity": 0.7874015748031497,
          "duration": 0.17647049999999354
        },
        {
          "name": "G3",
          "midi": 55,
          "time": 104.11759499999864,
          "velocity": 0.7874015748031497,
          "duration": 0.17647049999999354
        },
        {
          "name": "E2",
          "midi": 40,
          "time": 104.29406549999864,
          "velocity": 0.7874015748031497,
          "duration": 0.35294099999998707
        },
        {
          "name": "C2",
          "midi": 36,
          "time": 104.47053599999863,
          "velocity": 0.7874015748031497,
          "duration": 0.35294099999998707
        },
        {
          "name": "G3",
          "midi": 55,
          "time": 104.47053599999863,
          "velocity": 0.7874015748031497,
          "duration": 0.17647049999999354
        },
        {
          "name": "C2",
          "midi": 36,
          "time": 104.82347699999862,
          "velocity": 0.7874015748031497,
          "duration": 0.35294099999998707
        },
        {
          "name": "G3",
          "midi": 55,
          "time": 104.82347699999862,
          "velocity": 0.7874015748031497,
          "duration": 0.17647049999999354
        },
        {
          "name": "E2",
          "midi": 40,
          "time": 105.1764179999986,
          "velocity": 0.7874015748031497,
          "duration": 0.08823524999999677
        },
        {
          "name": "G3",
          "midi": 55,
          "time": 105.1764179999986,
          "velocity": 0.7874015748031497,
          "duration": 0.17647049999999354
        },
        {
          "name": "G3",
          "midi": 55,
          "time": 105.52935899999859,
          "velocity": 0.7874015748031497,
          "duration": 0.17647049999999354
        },
        {
          "name": "C2",
          "midi": 36,
          "time": 105.88229999999858,
          "velocity": 0.7874015748031497,
          "duration": 0.08823524999999677
        },
        {
          "name": "G3",
          "midi": 55,
          "time": 105.88229999999858,
          "velocity": 0.7874015748031497,
          "duration": 0.17647049999999354
        },
        {
          "name": "E2",
          "midi": 40,
          "time": 106.05877049999857,
          "velocity": 0.7874015748031497,
          "duration": 0.08823524999999677
        },
        {
          "name": "G3",
          "midi": 55,
          "time": 106.23524099999857,
          "velocity": 0.7874015748031497,
          "duration": 0.17647049999999354
        },
        {
          "name": "C2",
          "midi": 36,
          "time": 106.41171149999856,
          "velocity": 0.7874015748031497,
          "duration": 0.35294099999998707
        },
        {
          "name": "G3",
          "midi": 55,
          "time": 106.58818199999855,
          "velocity": 0.7874015748031497,
          "duration": 0.17647049999999354
        },
        {
          "name": "C2",
          "midi": 36,
          "time": 106.76465249999855,
          "velocity": 0.7874015748031497,
          "duration": 0.35294099999998707
        },
        {
          "name": "E2",
          "midi": 40,
          "time": 106.94112299999854,
          "velocity": 0.7874015748031497,
          "duration": 0.35294099999998707
        },
        {
          "name": "G3",
          "midi": 55,
          "time": 106.94112299999854,
          "velocity": 0.7874015748031497,
          "duration": 0.17647049999999354
        },
        {
          "name": "C2",
          "midi": 36,
          "time": 107.29406399999853,
          "velocity": 0.7874015748031497,
          "duration": 0.35294099999998707
        },
        {
          "name": "C#3",
          "midi": 49,
          "time": 107.29406399999853,
          "velocity": 0.7874015748031497,
          "duration": 0.17647049999999354
        },
        {
          "name": "C2",
          "midi": 36,
          "time": 107.64700499999852,
          "velocity": 0.7874015748031497,
          "duration": 0.35294099999998707
        },
        {
          "name": "A3",
          "midi": 57,
          "time": 107.64700499999852,
          "velocity": 0.7874015748031497,
          "duration": 0.17647049999999354
        },
        {
          "name": "E2",
          "midi": 40,
          "time": 107.9999459999985,
          "velocity": 0.7874015748031497,
          "duration": 0.08823524999999677
        },
        {
          "name": "G3",
          "midi": 55,
          "time": 107.9999459999985,
          "velocity": 0.7874015748031497,
          "duration": 0.17647049999999354
        },
        {
          "name": "G3",
          "midi": 55,
          "time": 108.35288699999849,
          "velocity": 0.7874015748031497,
          "duration": 0.17647049999999354
        },
        {
          "name": "C2",
          "midi": 36,
          "time": 108.70582799999848,
          "velocity": 0.7874015748031497,
          "duration": 0.08823524999999677
        },
        {
          "name": "G3",
          "midi": 55,
          "time": 108.70582799999848,
          "velocity": 0.7874015748031497,
          "duration": 0.17647049999999354
        },
        {
          "name": "E2",
          "midi": 40,
          "time": 108.88229849999847,
          "velocity": 0.7874015748031497,
          "duration": 0.08823524999999677
        },
        {
          "name": "G3",
          "midi": 55,
          "time": 109.05876899999846,
          "velocity": 0.7874015748031497,
          "duration": 0.17647049999999354
        },
        {
          "name": "C2",
          "midi": 36,
          "time": 109.23523949999846,
          "velocity": 0.7874015748031497,
          "duration": 0.35294099999998707
        },
        {
          "name": "E2",
          "midi": 40,
          "time": 109.41170999999845,
          "velocity": 0.7874015748031497,
          "duration": 0.35294099999998707
        },
        {
          "name": "G3",
          "midi": 55,
          "time": 109.41170999999845,
          "velocity": 0.7874015748031497,
          "duration": 0.17647049999999354
        },
        {
          "name": "G3",
          "midi": 55,
          "time": 109.76465099999844,
          "velocity": 0.7874015748031497,
          "duration": 0.17647049999999354
        },
        {
          "name": "E2",
          "midi": 40,
          "time": 109.94112149999843,
          "velocity": 0.7874015748031497,
          "duration": 0.35294099999998707
        },
        {
          "name": "C2",
          "midi": 36,
          "time": 110.11759199999842,
          "velocity": 0.7874015748031497,
          "duration": 0.35294099999998707
        },
        {
          "name": "C#3",
          "midi": 49,
          "time": 110.11759199999842,
          "velocity": 0.7874015748031497,
          "duration": 0.17647049999999354
        },
        {
          "name": "C2",
          "midi": 36,
          "time": 110.47053299999841,
          "velocity": 0.7874015748031497,
          "duration": 0.35294099999998707
        },
        {
          "name": "A3",
          "midi": 57,
          "time": 110.47053299999841,
          "velocity": 0.7874015748031497,
          "duration": 0.17647049999999354
        },
        {
          "name": "E2",
          "midi": 40,
          "time": 110.8234739999984,
          "velocity": 0.7874015748031497,
          "duration": 0.08823524999999677
        },
        {
          "name": "G3",
          "midi": 55,
          "time": 110.8234739999984,
          "velocity": 0.7874015748031497,
          "duration": 0.17647049999999354
        },
        {
          "name": "G3",
          "midi": 55,
          "time": 111.17641499999839,
          "velocity": 0.7874015748031497,
          "duration": 0.17647049999999354
        },
        {
          "name": "G3",
          "midi": 55,
          "time": 111.52935599999837,
          "velocity": 0.7874015748031497,
          "duration": 0.17647049999999354
        },
        {
          "name": "C2",
          "midi": 36,
          "time": 111.52935599999837,
          "velocity": 0.7874015748031497,
          "duration": 0.08823524999999677
        },
        {
          "name": "E2",
          "midi": 40,
          "time": 111.70582649999837,
          "velocity": 0.7874015748031497,
          "duration": 0.08823524999999677
        },
        {
          "name": "E2",
          "midi": 40,
          "time": 111.82347349999836,
          "velocity": 0.7874015748031497,
          "duration": 0.17647050000000775
        },
        {
          "name": "G3",
          "midi": 55,
          "time": 111.88229699999836,
          "velocity": 0.7874015748031497,
          "duration": 0.17647050000000775
        },
        {
          "name": "E2",
          "midi": 40,
          "time": 111.88229699999836,
          "velocity": 0.7874015748031497,
          "duration": 0.17647050000000775
        },
        {
          "name": "E2",
          "midi": 40,
          "time": 112.05876749999837,
          "velocity": 0.7874015748031497,
          "duration": 0.35294099999998707
        },
        {
          "name": "G3",
          "midi": 55,
          "time": 112.23523799999836,
          "velocity": 0.7874015748031497,
          "duration": 0.17647049999999354
        },
        {
          "name": "E2",
          "midi": 40,
          "time": 112.23523799999836,
          "velocity": 0.7874015748031497,
          "duration": 0.35294099999998707
        },
        {
          "name": "E2",
          "midi": 40,
          "time": 112.41170849999835,
          "velocity": 0.7874015748031497,
          "duration": 0.17647049999999354
        },
        {
          "name": "G3",
          "midi": 55,
          "time": 112.58817899999835,
          "velocity": 0.7874015748031497,
          "duration": 0.17647049999999354
        },
        {
          "name": "E2",
          "midi": 40,
          "time": 112.58817899999835,
          "velocity": 0.7874015748031497,
          "duration": 0.35294099999998707
        },
        {
          "name": "C2",
          "midi": 36,
          "time": 112.94111999999834,
          "velocity": 0.7874015748031497,
          "duration": 0.35294099999998707
        },
        {
          "name": "C#3",
          "midi": 49,
          "time": 112.94111999999834,
          "velocity": 0.7874015748031497,
          "duration": 0.17647049999999354
        },
        {
          "name": "C2",
          "midi": 36,
          "time": 113.29406099999832,
          "velocity": 0.7874015748031497,
          "duration": 0.35294099999998707
        },
        {
          "name": "G3",
          "midi": 55,
          "time": 113.29406099999832,
          "velocity": 0.7874015748031497,
          "duration": 0.17647049999999354
        },
        {
          "name": "E2",
          "midi": 40,
          "time": 113.64700199999831,
          "velocity": 0.7874015748031497,
          "duration": 0.08823524999999677
        },
        {
          "name": "G3",
          "midi": 55,
          "time": 113.64700199999831,
          "velocity": 0.7874015748031497,
          "duration": 0.17647049999999354
        },
        {
          "name": "G3",
          "midi": 55,
          "time": 113.9999429999983,
          "velocity": 0.7874015748031497,
          "duration": 0.17647049999999354
        },
        {
          "name": "C2",
          "midi": 36,
          "time": 114.35288399999828,
          "velocity": 0.7874015748031497,
          "duration": 0.08823524999999677
        },
        {
          "name": "G3",
          "midi": 55,
          "time": 114.35288399999828,
          "velocity": 0.7874015748031497,
          "duration": 0.17647049999999354
        },
        {
          "name": "E2",
          "midi": 40,
          "time": 114.52935449999828,
          "velocity": 0.7874015748031497,
          "duration": 0.08823524999999677
        },
        {
          "name": "G3",
          "midi": 55,
          "time": 114.70582499999827,
          "velocity": 0.7874015748031497,
          "duration": 0.17647049999999354
        },
        {
          "name": "C2",
          "midi": 36,
          "time": 114.88229549999826,
          "velocity": 0.7874015748031497,
          "duration": 0.35294099999998707
        },
        {
          "name": "E2",
          "midi": 40,
          "time": 115.05876599999826,
          "velocity": 0.7874015748031497,
          "duration": 0.35294099999998707
        },
        {
          "name": "G3",
          "midi": 55,
          "time": 115.05876599999826,
          "velocity": 0.7874015748031497,
          "duration": 0.17647049999999354
        },
        {
          "name": "G3",
          "midi": 55,
          "time": 115.41170699999824,
          "velocity": 0.7874015748031497,
          "duration": 0.17647049999999354
        },
        {
          "name": "E2",
          "midi": 40,
          "time": 115.58817749999824,
          "velocity": 0.7874015748031497,
          "duration": 0.35294099999998707
        },
        {
          "name": "C2",
          "midi": 36,
          "time": 115.76464799999823,
          "velocity": 0.7874015748031497,
          "duration": 0.35294099999998707
        },
        {
          "name": "G3",
          "midi": 55,
          "time": 115.76464799999823,
          "velocity": 0.7874015748031497,
          "duration": 0.17647049999999354
        },
        {
          "name": "C2",
          "midi": 36,
          "time": 116.11758899999822,
          "velocity": 0.7874015748031497,
          "duration": 0.35294099999998707
        },
        {
          "name": "G3",
          "midi": 55,
          "time": 116.11758899999822,
          "velocity": 0.7874015748031497,
          "duration": 0.17647049999999354
        },
        {
          "name": "E2",
          "midi": 40,
          "time": 116.4705299999982,
          "velocity": 0.7874015748031497,
          "duration": 0.08823524999999677
        },
        {
          "name": "G3",
          "midi": 55,
          "time": 116.4705299999982,
          "velocity": 0.7874015748031497,
          "duration": 0.17647049999999354
        },
        {
          "name": "G3",
          "midi": 55,
          "time": 116.8234709999982,
          "velocity": 0.7874015748031497,
          "duration": 0.17647049999999354
        },
        {
          "name": "C2",
          "midi": 36,
          "time": 117.17641199999818,
          "velocity": 0.7874015748031497,
          "duration": 0.08823524999999677
        },
        {
          "name": "G3",
          "midi": 55,
          "time": 117.17641199999818,
          "velocity": 0.7874015748031497,
          "duration": 0.17647049999999354
        },
        {
          "name": "E2",
          "midi": 40,
          "time": 117.35288249999817,
          "velocity": 0.7874015748031497,
          "duration": 0.08823524999999677
        },
        {
          "name": "G3",
          "midi": 55,
          "time": 117.52935299999817,
          "velocity": 0.7874015748031497,
          "duration": 0.17647049999999354
        },
        {
          "name": "C2",
          "midi": 36,
          "time": 117.70582349999816,
          "velocity": 0.7874015748031497,
          "duration": 0.35294099999998707
        },
        {
          "name": "G3",
          "midi": 55,
          "time": 117.88229399999815,
          "velocity": 0.7874015748031497,
          "duration": 0.17647049999999354
        },
        {
          "name": "C2",
          "midi": 36,
          "time": 118.05876449999815,
          "velocity": 0.7874015748031497,
          "duration": 0.35294099999998707
        },
        {
          "name": "E2",
          "midi": 40,
          "time": 118.23523499999814,
          "velocity": 0.7874015748031497,
          "duration": 0.35294099999998707
        },
        {
          "name": "G3",
          "midi": 55,
          "time": 118.23523499999814,
          "velocity": 0.7874015748031497,
          "duration": 0.17647049999999354
        },
        {
          "name": "C2",
          "midi": 36,
          "time": 118.58817599999813,
          "velocity": 0.7874015748031497,
          "duration": 0.35294099999998707
        },
        {
          "name": "C#3",
          "midi": 49,
          "time": 118.58817599999813,
          "velocity": 0.7874015748031497,
          "duration": 0.17647049999999354
        },
        {
          "name": "C2",
          "midi": 36,
          "time": 118.94111699999812,
          "velocity": 0.7874015748031497,
          "duration": 0.35294099999998707
        },
        {
          "name": "A3",
          "midi": 57,
          "time": 118.94111699999812,
          "velocity": 0.7874015748031497,
          "duration": 0.17647049999999354
        },
        {
          "name": "E2",
          "midi": 40,
          "time": 119.2940579999981,
          "velocity": 0.7874015748031497,
          "duration": 0.08823524999999677
        },
        {
          "name": "G3",
          "midi": 55,
          "time": 119.2940579999981,
          "velocity": 0.7874015748031497,
          "duration": 0.17647049999999354
        },
        {
          "name": "G3",
          "midi": 55,
          "time": 119.64699899999809,
          "velocity": 0.7874015748031497,
          "duration": 0.17647049999999354
        },
        {
          "name": "C2",
          "midi": 36,
          "time": 119.99993999999808,
          "velocity": 0.7874015748031497,
          "duration": 0.08823524999999677
        },
        {
          "name": "G3",
          "midi": 55,
          "time": 119.99993999999808,
          "velocity": 0.7874015748031497,
          "duration": 0.17647049999999354
        },
        {
          "name": "E2",
          "midi": 40,
          "time": 120.17641049999807,
          "velocity": 0.7874015748031497,
          "duration": 0.08823524999999677
        },
        {
          "name": "G3",
          "midi": 55,
          "time": 120.35288099999806,
          "velocity": 0.7874015748031497,
          "duration": 0.17647049999999354
        },
        {
          "name": "C2",
          "midi": 36,
          "time": 120.52935149999806,
          "velocity": 0.7874015748031497,
          "duration": 0.35294099999998707
        },
        {
          "name": "E2",
          "midi": 40,
          "time": 120.70582199999805,
          "velocity": 0.7874015748031497,
          "duration": 0.35294099999998707
        },
        {
          "name": "G3",
          "midi": 55,
          "time": 120.70582199999805,
          "velocity": 0.7874015748031497,
          "duration": 0.17647049999999354
        },
        {
          "name": "G3",
          "midi": 55,
          "time": 121.05876299999804,
          "velocity": 0.7874015748031497,
          "duration": 0.17647049999999354
        },
        {
          "name": "E2",
          "midi": 40,
          "time": 121.23523349999803,
          "velocity": 0.7874015748031497,
          "duration": 0.35294099999998707
        },
        {
          "name": "C2",
          "midi": 36,
          "time": 121.41170399999802,
          "velocity": 0.7874015748031497,
          "duration": 0.35294099999998707
        },
        {
          "name": "C#3",
          "midi": 49,
          "time": 121.41170399999802,
          "velocity": 0.7874015748031497,
          "duration": 0.17647049999999354
        },
        {
          "name": "C2",
          "midi": 36,
          "time": 121.76464499999801,
          "velocity": 0.7874015748031497,
          "duration": 0.35294099999998707
        },
        {
          "name": "A3",
          "midi": 57,
          "time": 121.76464499999801,
          "velocity": 0.7874015748031497,
          "duration": 0.17647049999999354
        },
        {
          "name": "E2",
          "midi": 40,
          "time": 122.117585999998,
          "velocity": 0.7874015748031497,
          "duration": 0.08823524999999677
        },
        {
          "name": "G3",
          "midi": 55,
          "time": 122.117585999998,
          "velocity": 0.7874015748031497,
          "duration": 0.17647049999999354
        },
        {
          "name": "G3",
          "midi": 55,
          "time": 122.47052699999799,
          "velocity": 0.7874015748031497,
          "duration": 0.17647049999999354
        },
        {
          "name": "G3",
          "midi": 55,
          "time": 122.82346799999797,
          "velocity": 0.7874015748031497,
          "duration": 0.17647049999999354
        },
        {
          "name": "C2",
          "midi": 36,
          "time": 122.82346799999797,
          "velocity": 0.7874015748031497,
          "duration": 0.08823524999999677
        },
        {
          "name": "E2",
          "midi": 40,
          "time": 122.99993849999797,
          "velocity": 0.7874015748031497,
          "duration": 0.08823524999999677
        },
        {
          "name": "G3",
          "midi": 55,
          "time": 123.17640899999796,
          "velocity": 0.7874015748031497,
          "duration": 0.17647049999999354
        },
        {
          "name": "C2",
          "midi": 36,
          "time": 123.35287949999795,
          "velocity": 0.7874015748031497,
          "duration": 0.35294099999998707
        },
        {
          "name": "G3",
          "midi": 55,
          "time": 123.52934999999795,
          "velocity": 0.7874015748031497,
          "duration": 0.17647049999999354
        },
        {
          "name": "E2",
          "midi": 40,
          "time": 123.52934999999795,
          "velocity": 0.7874015748031497,
          "duration": 0.17647049999999354
        },
        {
          "name": "C2",
          "midi": 36,
          "time": 123.70582049999794,
          "velocity": 0.7874015748031497,
          "duration": 0.35294099999998707
        },
        {
          "name": "G3",
          "midi": 55,
          "time": 123.88229099999793,
          "velocity": 0.7874015748031497,
          "duration": 0.17647049999999354
        },
        {
          "name": "E2",
          "midi": 40,
          "time": 123.88229099999793,
          "velocity": 0.7874015748031497,
          "duration": 0.35294099999998707
        },
        {
          "name": "C2",
          "midi": 36,
          "time": 124.23523199999792,
          "velocity": 0.7874015748031497,
          "duration": 0.7058819999999741
        },
        {
          "name": "C#3",
          "midi": 49,
          "time": 124.23523199999792,
          "velocity": 0.7874015748031497,
          "duration": 0.17647049999999354
        },
        {
          "name": "F#2",
          "midi": 42,
          "time": 124.58817299999791,
          "velocity": 0.7874015748031497,
          "duration": 0.17647049999999354
        },
        {
          "name": "E2",
          "midi": 40,
          "time": 124.9411139999979,
          "velocity": 0.7874015748031497,
          "duration": 0.7058819999999741
        },
        {
          "name": "A3",
          "midi": 57,
          "time": 124.9411139999979,
          "velocity": 0.7874015748031497,
          "duration": 0.17647049999999354
        },
        {
          "name": "F#2",
          "midi": 42,
          "time": 125.29405499999788,
          "velocity": 0.7874015748031497,
          "duration": 0.17647049999999354
        },
        {
          "name": "C2",
          "midi": 36,
          "time": 125.64699599999787,
          "velocity": 0.7874015748031497,
          "duration": 0.35294099999998707
        },
        {
          "name": "F#2",
          "midi": 42,
          "time": 125.64699599999787,
          "velocity": 0.7874015748031497,
          "duration": 0.17647049999999354
        },
        {
          "name": "C2",
          "midi": 36,
          "time": 125.99993699999786,
          "velocity": 0.7874015748031497,
          "duration": 0.35294099999998707
        },
        {
          "name": "F#2",
          "midi": 42,
          "time": 125.99993699999786,
          "velocity": 0.7874015748031497,
          "duration": 0.17647049999999354
        },
        {
          "name": "E2",
          "midi": 40,
          "time": 126.35287799999784,
          "velocity": 0.7874015748031497,
          "duration": 0.7058819999999741
        },
        {
          "name": "F#2",
          "midi": 42,
          "time": 126.35287799999784,
          "velocity": 0.7874015748031497,
          "duration": 0.17647049999999354
        },
        {
          "name": "F#2",
          "midi": 42,
          "time": 126.70581899999783,
          "velocity": 0.7874015748031497,
          "duration": 0.17647049999999354
        },
        {
          "name": "C2",
          "midi": 36,
          "time": 127.05875999999782,
          "velocity": 0.7874015748031497,
          "duration": 0.17647049999999354
        },
        {
          "name": "F#2",
          "midi": 42,
          "time": 127.05875999999782,
          "velocity": 0.7874015748031497,
          "duration": 0.17647049999999354
        },
        {
          "name": "E2",
          "midi": 40,
          "time": 127.23523049999781,
          "velocity": 0.7874015748031497,
          "duration": 0.17647049999999354
        },
        {
          "name": "C2",
          "midi": 36,
          "time": 127.4117009999978,
          "velocity": 0.7874015748031497,
          "duration": 0.17647049999999354
        },
        {
          "name": "F#2",
          "midi": 42,
          "time": 127.4117009999978,
          "velocity": 0.7874015748031497,
          "duration": 0.17647049999999354
        },
        {
          "name": "C2",
          "midi": 36,
          "time": 127.5881714999978,
          "velocity": 0.7874015748031497,
          "duration": 0.17647049999999354
        },
        {
          "name": "E2",
          "midi": 40,
          "time": 127.76464199999779,
          "velocity": 0.7874015748031497,
          "duration": 0.17647049999999354
        },
        {
          "name": "F#2",
          "midi": 42,
          "time": 127.76464199999779,
          "velocity": 0.7874015748031497,
          "duration": 0.17647049999999354
        },
        {
          "name": "C2",
          "midi": 36,
          "time": 127.94111249999779,
          "velocity": 0.7874015748031497,
          "duration": 0.17647049999999354
        },
        {
          "name": "E2",
          "midi": 40,
          "time": 128.11758299999778,
          "velocity": 0.7874015748031497,
          "duration": 0.34411747499999024
        },
        {
          "name": "F#2",
          "midi": 42,
          "time": 128.11758299999778,
          "velocity": 0.7874015748031497,
          "duration": 0.17647049999999354
        },
        {
          "name": "C2",
          "midi": 36,
          "time": 128.47052399999777,
          "velocity": 0.7874015748031497,
          "duration": 0.35294099999998707
        },
        {
          "name": "F#2",
          "midi": 42,
          "time": 128.47052399999777,
          "velocity": 0.7874015748031497,
          "duration": 0.17647049999999354
        },
        {
          "name": "C2",
          "midi": 36,
          "time": 128.82346499999775,
          "velocity": 0.7874015748031497,
          "duration": 0.35294099999998707
        },
        {
          "name": "F#2",
          "midi": 42,
          "time": 128.82346499999775,
          "velocity": 0.7874015748031497,
          "duration": 0.17647049999999354
        },
        {
          "name": "E2",
          "midi": 40,
          "time": 129.17640599999774,
          "velocity": 0.7874015748031497,
          "duration": 0.7058819999999741
        },
        {
          "name": "A3",
          "midi": 57,
          "time": 129.17640599999774,
          "velocity": 0.7874015748031497,
          "duration": 0.17647049999999354
        },
        {
          "name": "F#2",
          "midi": 42,
          "time": 129.52934699999773,
          "velocity": 0.7874015748031497,
          "duration": 0.17647049999999354
        },
        {
          "name": "C2",
          "midi": 36,
          "time": 129.88228799999771,
          "velocity": 0.7874015748031497,
          "duration": 0.7058819999999741
        },
        {
          "name": "C#3",
          "midi": 49,
          "time": 129.88228799999771,
          "velocity": 0.7874015748031497,
          "duration": 0.17647049999999354
        },
        {
          "name": "F#2",
          "midi": 42,
          "time": 130.2352289999977,
          "velocity": 0.7874015748031497,
          "duration": 0.17647049999999354
        },
        {
          "name": "E2",
          "midi": 40,
          "time": 130.5881699999977,
          "velocity": 0.7874015748031497,
          "duration": 0.7058819999999741
        },
        {
          "name": "A3",
          "midi": 57,
          "time": 130.5881699999977,
          "velocity": 0.7874015748031497,
          "duration": 0.17647049999999354
        },
        {
          "name": "F#2",
          "midi": 42,
          "time": 130.94111099999768,
          "velocity": 0.7874015748031497,
          "duration": 0.17647049999999354
        },
        {
          "name": "C2",
          "midi": 36,
          "time": 131.29405199999766,
          "velocity": 0.7874015748031497,
          "duration": 0.35294099999998707
        },
        {
          "name": "F#2",
          "midi": 42,
          "time": 131.29405199999766,
          "velocity": 0.7874015748031497,
          "duration": 0.17647049999999354
        },
        {
          "name": "C2",
          "midi": 36,
          "time": 131.64699299999765,
          "velocity": 0.7874015748031497,
          "duration": 0.35294099999998707
        },
        {
          "name": "F#2",
          "midi": 42,
          "time": 131.64699299999765,
          "velocity": 0.7874015748031497,
          "duration": 0.17647049999999354
        },
        {
          "name": "E2",
          "midi": 40,
          "time": 131.99993399999764,
          "velocity": 0.7874015748031497,
          "duration": 0.7058819999999741
        },
        {
          "name": "F#2",
          "midi": 42,
          "time": 131.99993399999764,
          "velocity": 0.7874015748031497,
          "duration": 0.17647049999999354
        },
        {
          "name": "F#2",
          "midi": 42,
          "time": 132.35287499999762,
          "velocity": 0.7874015748031497,
          "duration": 0.17647049999999354
        },
        {
          "name": "C2",
          "midi": 36,
          "time": 132.7058159999976,
          "velocity": 0.7874015748031497,
          "duration": 0.17647049999999354
        },
        {
          "name": "F#2",
          "midi": 42,
          "time": 132.7058159999976,
          "velocity": 0.7874015748031497,
          "duration": 0.17647049999999354
        },
        {
          "name": "E2",
          "midi": 40,
          "time": 132.8822864999976,
          "velocity": 0.7874015748031497,
          "duration": 0.17647049999999354
        },
        {
          "name": "C2",
          "midi": 36,
          "time": 133.0587569999976,
          "velocity": 0.7874015748031497,
          "duration": 0.17647049999999354
        },
        {
          "name": "F#2",
          "midi": 42,
          "time": 133.0587569999976,
          "velocity": 0.7874015748031497,
          "duration": 0.17647049999999354
        },
        {
          "name": "C2",
          "midi": 36,
          "time": 133.2352274999976,
          "velocity": 0.7874015748031497,
          "duration": 0.17647049999999354
        },
        {
          "name": "E2",
          "midi": 40,
          "time": 133.41169799999759,
          "velocity": 0.7874015748031497,
          "duration": 0.17647049999999354
        },
        {
          "name": "F#2",
          "midi": 42,
          "time": 133.41169799999759,
          "velocity": 0.7874015748031497,
          "duration": 0.17647049999999354
        },
        {
          "name": "C2",
          "midi": 36,
          "time": 133.58816849999758,
          "velocity": 0.7874015748031497,
          "duration": 0.17647049999999354
        },
        {
          "name": "E2",
          "midi": 40,
          "time": 133.76463899999757,
          "velocity": 0.7874015748031497,
          "duration": 0.34411747499999024
        },
        {
          "name": "F#2",
          "midi": 42,
          "time": 133.76463899999757,
          "velocity": 0.7874015748031497,
          "duration": 0.17647049999999354
        },
        {
          "name": "C2",
          "midi": 36,
          "time": 134.11757999999756,
          "velocity": 0.7874015748031497,
          "duration": 0.35294099999998707
        },
        {
          "name": "F#2",
          "midi": 42,
          "time": 134.11757999999756,
          "velocity": 0.7874015748031497,
          "duration": 0.17647049999999354
        },
        {
          "name": "C2",
          "midi": 36,
          "time": 134.47052099999755,
          "velocity": 0.7874015748031497,
          "duration": 0.35294099999998707
        },
        {
          "name": "F#2",
          "midi": 42,
          "time": 134.47052099999755,
          "velocity": 0.7874015748031497,
          "duration": 0.17647049999999354
        },
        {
          "name": "E2",
          "midi": 40,
          "time": 134.82346199999753,
          "velocity": 0.7874015748031497,
          "duration": 0.7058819999999741
        },
        {
          "name": "A3",
          "midi": 57,
          "time": 134.82346199999753,
          "velocity": 0.7874015748031497,
          "duration": 0.17647049999999354
        },
        {
          "name": "F#2",
          "midi": 42,
          "time": 135.17640299999752,
          "velocity": 0.7874015748031497,
          "duration": 0.17647049999999354
        },
        {
          "name": "C2",
          "midi": 36,
          "time": 135.5293439999975,
          "velocity": 0.7874015748031497,
          "duration": 0.7058819999999741
        },
        {
          "name": "C#3",
          "midi": 49,
          "time": 135.5293439999975,
          "velocity": 0.7874015748031497,
          "duration": 0.17647049999999354
        },
        {
          "name": "F#2",
          "midi": 42,
          "time": 135.8822849999975,
          "velocity": 0.7874015748031497,
          "duration": 0.17647049999999354
        },
        {
          "name": "E2",
          "midi": 40,
          "time": 136.23522599999748,
          "velocity": 0.7874015748031497,
          "duration": 0.7058819999999741
        },
        {
          "name": "A3",
          "midi": 57,
          "time": 136.23522599999748,
          "velocity": 0.7874015748031497,
          "duration": 0.17647049999999354
        },
        {
          "name": "F#2",
          "midi": 42,
          "time": 136.58816699999747,
          "velocity": 0.7874015748031497,
          "duration": 0.17647049999999354
        },
        {
          "name": "C2",
          "midi": 36,
          "time": 136.94110799999746,
          "velocity": 0.7874015748031497,
          "duration": 0.35294099999998707
        },
        {
          "name": "F#2",
          "midi": 42,
          "time": 136.94110799999746,
          "velocity": 0.7874015748031497,
          "duration": 0.17647049999999354
        },
        {
          "name": "C2",
          "midi": 36,
          "time": 137.29404899999744,
          "velocity": 0.7874015748031497,
          "duration": 0.35294099999998707
        },
        {
          "name": "F#2",
          "midi": 42,
          "time": 137.29404899999744,
          "velocity": 0.7874015748031497,
          "duration": 0.17647049999999354
        },
        {
          "name": "E2",
          "midi": 40,
          "time": 137.64698999999743,
          "velocity": 0.7874015748031497,
          "duration": 0.7058819999999741
        },
        {
          "name": "F#2",
          "midi": 42,
          "time": 137.64698999999743,
          "velocity": 0.7874015748031497,
          "duration": 0.17647049999999354
        },
        {
          "name": "F#2",
          "midi": 42,
          "time": 137.99993099999742,
          "velocity": 0.7874015748031497,
          "duration": 0.17647049999999354
        },
        {
          "name": "C2",
          "midi": 36,
          "time": 138.3528719999974,
          "velocity": 0.7874015748031497,
          "duration": 0.17647049999999354
        },
        {
          "name": "F#2",
          "midi": 42,
          "time": 138.3528719999974,
          "velocity": 0.7874015748031497,
          "duration": 0.17647049999999354
        },
        {
          "name": "E2",
          "midi": 40,
          "time": 138.5293424999974,
          "velocity": 0.7874015748031497,
          "duration": 0.17647049999999354
        },
        {
          "name": "C2",
          "midi": 36,
          "time": 138.7058129999974,
          "velocity": 0.7874015748031497,
          "duration": 0.17647049999999354
        },
        {
          "name": "F#2",
          "midi": 42,
          "time": 138.7058129999974,
          "velocity": 0.7874015748031497,
          "duration": 0.17647049999999354
        },
        {
          "name": "C2",
          "midi": 36,
          "time": 138.88228349999738,
          "velocity": 0.7874015748031497,
          "duration": 0.17647049999999354
        },
        {
          "name": "E2",
          "midi": 40,
          "time": 139.05875399999738,
          "velocity": 0.7874015748031497,
          "duration": 0.17647049999999354
        },
        {
          "name": "F#2",
          "midi": 42,
          "time": 139.05875399999738,
          "velocity": 0.7874015748031497,
          "duration": 0.17647049999999354
        },
        {
          "name": "C2",
          "midi": 36,
          "time": 139.23522449999737,
          "velocity": 0.7874015748031497,
          "duration": 0.17647049999999354
        },
        {
          "name": "E2",
          "midi": 40,
          "time": 139.41169499999737,
          "velocity": 0.7874015748031497,
          "duration": 0.34411747499999024
        },
        {
          "name": "F#2",
          "midi": 42,
          "time": 139.41169499999737,
          "velocity": 0.7874015748031497,
          "duration": 0.17647049999999354
        },
        {
          "name": "C2",
          "midi": 36,
          "time": 139.76463599999735,
          "velocity": 0.7874015748031497,
          "duration": 0.35294099999998707
        },
        {
          "name": "F#2",
          "midi": 42,
          "time": 139.76463599999735,
          "velocity": 0.7874015748031497,
          "duration": 0.17647049999999354
        },
        {
          "name": "C2",
          "midi": 36,
          "time": 140.11757699999734,
          "velocity": 0.7874015748031497,
          "duration": 0.35294099999998707
        },
        {
          "name": "F#2",
          "midi": 42,
          "time": 140.11757699999734,
          "velocity": 0.7874015748031497,
          "duration": 0.17647049999999354
        },
        {
          "name": "E2",
          "midi": 40,
          "time": 140.47051799999733,
          "velocity": 0.7874015748031497,
          "duration": 0.7058819999999741
        },
        {
          "name": "A3",
          "midi": 57,
          "time": 140.47051799999733,
          "velocity": 0.7874015748031497,
          "duration": 0.17647049999999354
        },
        {
          "name": "A#2",
          "midi": 46,
          "time": 140.8234589999973,
          "velocity": 0.7874015748031497,
          "duration": 0.17647049999999354
        },
        {
          "name": "C2",
          "midi": 36,
          "time": 141.1763999999973,
          "velocity": 0.7874015748031497,
          "duration": 0.7058819999999741
        },
        {
          "name": "C#3",
          "midi": 49,
          "time": 141.1763999999973,
          "velocity": 0.7874015748031497,
          "duration": 0.17647049999999354
        },
        {
          "name": "F#2",
          "midi": 42,
          "time": 141.5293409999973,
          "velocity": 0.7874015748031497,
          "duration": 0.17647049999999354
        },
        {
          "name": "E2",
          "midi": 40,
          "time": 141.88228199999728,
          "velocity": 0.7874015748031497,
          "duration": 0.7058819999999741
        },
        {
          "name": "A3",
          "midi": 57,
          "time": 141.88228199999728,
          "velocity": 0.7874015748031497,
          "duration": 0.17647049999999354
        },
        {
          "name": "F#2",
          "midi": 42,
          "time": 142.23522299999726,
          "velocity": 0.7874015748031497,
          "duration": 0.17647049999999354
        },
        {
          "name": "C2",
          "midi": 36,
          "time": 142.58816399999725,
          "velocity": 0.7874015748031497,
          "duration": 0.35294099999998707
        },
        {
          "name": "F#2",
          "midi": 42,
          "time": 142.58816399999725,
          "velocity": 0.7874015748031497,
          "duration": 0.17647049999999354
        },
        {
          "name": "C2",
          "midi": 36,
          "time": 142.94110499999724,
          "velocity": 0.7874015748031497,
          "duration": 0.35294099999998707
        },
        {
          "name": "F#2",
          "midi": 42,
          "time": 142.94110499999724,
          "velocity": 0.7874015748031497,
          "duration": 0.17647049999999354
        },
        {
          "name": "E2",
          "midi": 40,
          "time": 143.29404599999722,
          "velocity": 0.7874015748031497,
          "duration": 0.7058819999999741
        },
        {
          "name": "F#2",
          "midi": 42,
          "time": 143.29404599999722,
          "velocity": 0.7874015748031497,
          "duration": 0.17647049999999354
        },
        {
          "name": "F#2",
          "midi": 42,
          "time": 143.6469869999972,
          "velocity": 0.7874015748031497,
          "duration": 0.17647049999999354
        },
        {
          "name": "C2",
          "midi": 36,
          "time": 143.9999279999972,
          "velocity": 0.7874015748031497,
          "duration": 0.17647049999999354
        },
        {
          "name": "F#2",
          "midi": 42,
          "time": 143.9999279999972,
          "velocity": 0.7874015748031497,
          "duration": 0.17647049999999354
        },
        {
          "name": "E2",
          "midi": 40,
          "time": 144.1763984999972,
          "velocity": 0.7874015748031497,
          "duration": 0.17647049999999354
        },
        {
          "name": "C2",
          "midi": 36,
          "time": 144.35286899999718,
          "velocity": 0.7874015748031497,
          "duration": 0.17647049999999354
        },
        {
          "name": "F#2",
          "midi": 42,
          "time": 144.35286899999718,
          "velocity": 0.7874015748031497,
          "duration": 0.17647049999999354
        },
        {
          "name": "C2",
          "midi": 36,
          "time": 144.52933949999718,
          "velocity": 0.7874015748031497,
          "duration": 0.17647049999999354
        },
        {
          "name": "E2",
          "midi": 40,
          "time": 144.70580999999717,
          "velocity": 0.7874015748031497,
          "duration": 0.17647049999999354
        },
        {
          "name": "F#2",
          "midi": 42,
          "time": 144.70580999999717,
          "velocity": 0.7874015748031497,
          "duration": 0.17647049999999354
        },
        {
          "name": "C2",
          "midi": 36,
          "time": 144.88228049999717,
          "velocity": 0.7874015748031497,
          "duration": 0.17647049999999354
        },
        {
          "name": "E2",
          "midi": 40,
          "time": 145.05875099999716,
          "velocity": 0.7874015748031497,
          "duration": 0.34411747499999024
        },
        {
          "name": "F#2",
          "midi": 42,
          "time": 145.05875099999716,
          "velocity": 0.7874015748031497,
          "duration": 0.17647049999999354
        },
        {
          "name": "F#2",
          "midi": 42,
          "time": 145.41169199999715,
          "velocity": 0.7874015748031497,
          "duration": 0.17647049999999354
        },
        {
          "name": "E2",
          "midi": 40,
          "time": 145.41169199999715,
          "velocity": 0.7874015748031497,
          "duration": 0.35294099999998707
        },
        {
          "name": "C2",
          "midi": 36,
          "time": 145.58816249999714,
          "velocity": 0.7874015748031497,
          "duration": 0.35294099999998707
        },
        {
          "name": "F#2",
          "midi": 42,
          "time": 145.76463299999713,
          "velocity": 0.7874015748031497,
          "duration": 0.17647049999999354
        },
        {
          "name": "E2",
          "midi": 40,
          "time": 145.76463299999713,
          "velocity": 0.7874015748031497,
          "duration": 0.35294099999998707
        },
        {
          "name": "C2",
          "midi": 36,
          "time": 145.94110349999713,
          "velocity": 0.7874015748031497,
          "duration": 0.35294099999998707
        },
        {
          "name": "E2",
          "midi": 40,
          "time": 146.11757399999712,
          "velocity": 0.7874015748031497,
          "duration": 0.7058819999999741
        },
        {
          "name": "F#2",
          "midi": 42,
          "time": 146.11757399999712,
          "velocity": 0.7874015748031497,
          "duration": 0.17647049999999354
        },
        {
          "name": "C2",
          "midi": 36,
          "time": 146.2940444999971,
          "velocity": 0.7874015748031497,
          "duration": 0.35294099999998707
        },
        {
          "name": "A#2",
          "midi": 46,
          "time": 146.4705149999971,
          "velocity": 0.7874015748031497,
          "duration": 0.17647049999999354
        },
        {
          "name": "E2",
          "midi": 40,
          "time": 146.4705149999971,
          "velocity": 0.7874015748031497,
          "duration": 0.35294099999998707
        },
        {
          "name": "C2",
          "midi": 36,
          "time": 146.8234559999971,
          "velocity": 0.7874015748031497,
          "duration": 0.35294099999998707
        },
        {
          "name": "C#3",
          "midi": 49,
          "time": 146.8234559999971,
          "velocity": 0.7874015748031497,
          "duration": 0.17647049999999354
        },
        {
          "name": "C2",
          "midi": 36,
          "time": 147.17639699999708,
          "velocity": 0.7874015748031497,
          "duration": 0.35294099999998707
        },
        {
          "name": "G3",
          "midi": 55,
          "time": 147.17639699999708,
          "velocity": 0.7874015748031497,
          "duration": 0.17647049999999354
        },
        {
          "name": "E2",
          "midi": 40,
          "time": 147.52933799999707,
          "velocity": 0.7874015748031497,
          "duration": 0.08823524999999677
        },
        {
          "name": "G3",
          "midi": 55,
          "time": 147.52933799999707,
          "velocity": 0.7874015748031497,
          "duration": 0.17647049999999354
        },
        {
          "name": "G3",
          "midi": 55,
          "time": 147.88227899999706,
          "velocity": 0.7874015748031497,
          "duration": 0.17647049999999354
        },
        {
          "name": "C2",
          "midi": 36,
          "time": 148.23521999999704,
          "velocity": 0.7874015748031497,
          "duration": 0.08823524999999677
        },
        {
          "name": "G3",
          "midi": 55,
          "time": 148.23521999999704,
          "velocity": 0.7874015748031497,
          "duration": 0.17647049999999354
        },
        {
          "name": "E2",
          "midi": 40,
          "time": 148.41169049999704,
          "velocity": 0.7874015748031497,
          "duration": 0.08823524999999677
        },
        {
          "name": "G3",
          "midi": 55,
          "time": 148.58816099999703,
          "velocity": 0.7874015748031497,
          "duration": 0.17647049999999354
        },
        {
          "name": "C2",
          "midi": 36,
          "time": 148.76463149999702,
          "velocity": 0.7874015748031497,
          "duration": 0.35294099999998707
        },
        {
          "name": "E2",
          "midi": 40,
          "time": 148.94110199999702,
          "velocity": 0.7874015748031497,
          "duration": 0.35294099999998707
        },
        {
          "name": "G3",
          "midi": 55,
          "time": 148.94110199999702,
          "velocity": 0.7874015748031497,
          "duration": 0.17647049999999354
        },
        {
          "name": "G3",
          "midi": 55,
          "time": 149.294042999997,
          "velocity": 0.7874015748031497,
          "duration": 0.17647049999999354
        },
        {
          "name": "E2",
          "midi": 40,
          "time": 149.470513499997,
          "velocity": 0.7874015748031497,
          "duration": 0.35294099999998707
        },
        {
          "name": "C2",
          "midi": 36,
          "time": 149.646983999997,
          "velocity": 0.7874015748031497,
          "duration": 0.35294099999998707
        },
        {
          "name": "G3",
          "midi": 55,
          "time": 149.646983999997,
          "velocity": 0.7874015748031497,
          "duration": 0.17647049999999354
        },
        {
          "name": "C2",
          "midi": 36,
          "time": 149.99992499999698,
          "velocity": 0.7874015748031497,
          "duration": 0.35294099999998707
        },
        {
          "name": "G3",
          "midi": 55,
          "time": 149.99992499999698,
          "velocity": 0.7874015748031497,
          "duration": 0.17647049999999354
        },
        {
          "name": "E2",
          "midi": 40,
          "time": 150.35286599999696,
          "velocity": 0.7874015748031497,
          "duration": 0.08823524999999677
        },
        {
          "name": "G3",
          "midi": 55,
          "time": 150.35286599999696,
          "velocity": 0.7874015748031497,
          "duration": 0.17647049999999354
        },
        {
          "name": "G3",
          "midi": 55,
          "time": 150.70580699999695,
          "velocity": 0.7874015748031497,
          "duration": 0.17647049999999354
        },
        {
          "name": "C2",
          "midi": 36,
          "time": 151.05874799999694,
          "velocity": 0.7874015748031497,
          "duration": 0.08823524999999677
        },
        {
          "name": "G3",
          "midi": 55,
          "time": 151.05874799999694,
          "velocity": 0.7874015748031497,
          "duration": 0.17647049999999354
        },
        {
          "name": "E2",
          "midi": 40,
          "time": 151.23521849999693,
          "velocity": 0.7874015748031497,
          "duration": 0.08823524999999677
        },
        {
          "name": "G3",
          "midi": 55,
          "time": 151.41168899999693,
          "velocity": 0.7874015748031497,
          "duration": 0.17647049999999354
        },
        {
          "name": "C2",
          "midi": 36,
          "time": 151.58815949999692,
          "velocity": 0.7874015748031497,
          "duration": 0.35294099999998707
        },
        {
          "name": "G3",
          "midi": 55,
          "time": 151.7646299999969,
          "velocity": 0.7874015748031497,
          "duration": 0.17647049999999354
        },
        {
          "name": "C2",
          "midi": 36,
          "time": 151.9411004999969,
          "velocity": 0.7874015748031497,
          "duration": 0.35294099999998707
        },
        {
          "name": "E2",
          "midi": 40,
          "time": 152.1175709999969,
          "velocity": 0.7874015748031497,
          "duration": 0.35294099999998707
        },
        {
          "name": "G3",
          "midi": 55,
          "time": 152.1175709999969,
          "velocity": 0.7874015748031497,
          "duration": 0.17647049999999354
        },
        {
          "name": "C2",
          "midi": 36,
          "time": 152.4705119999969,
          "velocity": 0.7874015748031497,
          "duration": 0.35294099999998707
        },
        {
          "name": "C#3",
          "midi": 49,
          "time": 152.4705119999969,
          "velocity": 0.7874015748031497,
          "duration": 0.17647049999999354
        },
        {
          "name": "C2",
          "midi": 36,
          "time": 152.82345299999687,
          "velocity": 0.7874015748031497,
          "duration": 0.35294099999998707
        },
        {
          "name": "A3",
          "midi": 57,
          "time": 152.82345299999687,
          "velocity": 0.7874015748031497,
          "duration": 0.17647049999999354
        },
        {
          "name": "E2",
          "midi": 40,
          "time": 153.17639399999686,
          "velocity": 0.7874015748031497,
          "duration": 0.08823524999999677
        },
        {
          "name": "G3",
          "midi": 55,
          "time": 153.17639399999686,
          "velocity": 0.7874015748031497,
          "duration": 0.17647049999999354
        },
        {
          "name": "G3",
          "midi": 55,
          "time": 153.52933499999685,
          "velocity": 0.7874015748031497,
          "duration": 0.17647049999999354
        },
        {
          "name": "C2",
          "midi": 36,
          "time": 153.88227599999684,
          "velocity": 0.7874015748031497,
          "duration": 0.08823524999999677
        },
        {
          "name": "G3",
          "midi": 55,
          "time": 153.88227599999684,
          "velocity": 0.7874015748031497,
          "duration": 0.17647049999999354
        },
        {
          "name": "E2",
          "midi": 40,
          "time": 154.05874649999683,
          "velocity": 0.7874015748031497,
          "duration": 0.08823524999999677
        },
        {
          "name": "G3",
          "midi": 55,
          "time": 154.23521699999682,
          "velocity": 0.7874015748031497,
          "duration": 0.17647049999999354
        },
        {
          "name": "C2",
          "midi": 36,
          "time": 154.41168749999682,
          "velocity": 0.7874015748031497,
          "duration": 0.35294099999998707
        },
        {
          "name": "E2",
          "midi": 40,
          "time": 154.5881579999968,
          "velocity": 0.7874015748031497,
          "duration": 0.35294099999998707
        },
        {
          "name": "G3",
          "midi": 55,
          "time": 154.5881579999968,
          "velocity": 0.7874015748031497,
          "duration": 0.17647049999999354
        },
        {
          "name": "G3",
          "midi": 55,
          "time": 154.9410989999968,
          "velocity": 0.7874015748031497,
          "duration": 0.17647049999999354
        },
        {
          "name": "E2",
          "midi": 40,
          "time": 155.1175694999968,
          "velocity": 0.7874015748031497,
          "duration": 0.35294099999998707
        },
        {
          "name": "C2",
          "midi": 36,
          "time": 155.29403999999678,
          "velocity": 0.7874015748031497,
          "duration": 0.35294099999998707
        },
        {
          "name": "C#3",
          "midi": 49,
          "time": 155.29403999999678,
          "velocity": 0.7874015748031497,
          "duration": 0.17647049999999354
        },
        {
          "name": "C2",
          "midi": 36,
          "time": 155.64698099999677,
          "velocity": 0.7874015748031497,
          "duration": 0.35294099999998707
        },
        {
          "name": "A3",
          "midi": 57,
          "time": 155.64698099999677,
          "velocity": 0.7874015748031497,
          "duration": 0.17647049999999354
        },
        {
          "name": "E2",
          "midi": 40,
          "time": 155.99992199999676,
          "velocity": 0.7874015748031497,
          "duration": 0.08823524999999677
        },
        {
          "name": "G3",
          "midi": 55,
          "time": 155.99992199999676,
          "velocity": 0.7874015748031497,
          "duration": 0.17647049999999354
        },
        {
          "name": "G3",
          "midi": 55,
          "time": 156.35286299999674,
          "velocity": 0.7874015748031497,
          "duration": 0.17647049999999354
        },
        {
          "name": "G3",
          "midi": 55,
          "time": 156.70580399999673,
          "velocity": 0.7874015748031497,
          "duration": 0.17647049999999354
        },
        {
          "name": "C2",
          "midi": 36,
          "time": 156.70580399999673,
          "velocity": 0.7874015748031497,
          "duration": 0.08823524999999677
        },
        {
          "name": "E2",
          "midi": 40,
          "time": 156.88227449999673,
          "velocity": 0.7874015748031497,
          "duration": 0.08823524999999677
        },
        {
          "name": "E2",
          "midi": 40,
          "time": 156.99992149999673,
          "velocity": 0.7874015748031497,
          "duration": 0.17647049999999354
        },
        {
          "name": "G3",
          "midi": 55,
          "time": 157.05874499999672,
          "velocity": 0.7874015748031497,
          "duration": 0.17647049999999354
        },
        {
          "name": "E2",
          "midi": 40,
          "time": 157.05874499999672,
          "velocity": 0.7874015748031497,
          "duration": 0.17647049999999354
        },
        {
          "name": "E2",
          "midi": 40,
          "time": 157.2352154999967,
          "velocity": 0.7874015748031497,
          "duration": 0.35294099999998707
        },
        {
          "name": "G3",
          "midi": 55,
          "time": 157.4116859999967,
          "velocity": 0.7874015748031497,
          "duration": 0.17647049999999354
        },
        {
          "name": "E2",
          "midi": 40,
          "time": 157.4116859999967,
          "velocity": 0.7874015748031497,
          "duration": 0.35294099999998707
        },
        {
          "name": "E2",
          "midi": 40,
          "time": 157.5881564999967,
          "velocity": 0.7874015748031497,
          "duration": 0.17647049999999354
        },
        {
          "name": "G3",
          "midi": 55,
          "time": 157.7646269999967,
          "velocity": 0.7874015748031497,
          "duration": 0.17647049999999354
        },
        {
          "name": "E2",
          "midi": 40,
          "time": 157.7646269999967,
          "velocity": 0.7874015748031497,
          "duration": 0.35294099999998707
        },
        {
          "name": "C2",
          "midi": 36,
          "time": 158.11756799999668,
          "velocity": 0.7874015748031497,
          "duration": 0.35294099999998707
        },
        {
          "name": "C#3",
          "midi": 49,
          "time": 158.11756799999668,
          "velocity": 0.7874015748031497,
          "duration": 0.17647049999999354
        },
        {
          "name": "C2",
          "midi": 36,
          "time": 158.47050899999667,
          "velocity": 0.7874015748031497,
          "duration": 0.35294099999998707
        },
        {
          "name": "G3",
          "midi": 55,
          "time": 158.47050899999667,
          "velocity": 0.7874015748031497,
          "duration": 0.17647049999999354
        },
        {
          "name": "E2",
          "midi": 40,
          "time": 158.82344999999665,
          "velocity": 0.7874015748031497,
          "duration": 0.08823524999999677
        },
        {
          "name": "G3",
          "midi": 55,
          "time": 158.82344999999665,
          "velocity": 0.7874015748031497,
          "duration": 0.17647049999999354
        },
        {
          "name": "G3",
          "midi": 55,
          "time": 159.17639099999664,
          "velocity": 0.7874015748031497,
          "duration": 0.17647049999999354
        },
        {
          "name": "C2",
          "midi": 36,
          "time": 159.52933199999663,
          "velocity": 0.7874015748031497,
          "duration": 0.08823524999999677
        },
        {
          "name": "G3",
          "midi": 55,
          "time": 159.52933199999663,
          "velocity": 0.7874015748031497,
          "duration": 0.17647049999999354
        },
        {
          "name": "E2",
          "midi": 40,
          "time": 159.70580249999662,
          "velocity": 0.7874015748031497,
          "duration": 0.08823524999999677
        },
        {
          "name": "G3",
          "midi": 55,
          "time": 159.88227299999662,
          "velocity": 0.7874015748031497,
          "duration": 0.17647049999999354
        },
        {
          "name": "C2",
          "midi": 36,
          "time": 160.0587434999966,
          "velocity": 0.7874015748031497,
          "duration": 0.35294099999998707
        },
        {
          "name": "E2",
          "midi": 40,
          "time": 160.2352139999966,
          "velocity": 0.7874015748031497,
          "duration": 0.35294099999998707
        },
        {
          "name": "G3",
          "midi": 55,
          "time": 160.2352139999966,
          "velocity": 0.7874015748031497,
          "duration": 0.17647049999999354
        },
        {
          "name": "G3",
          "midi": 55,
          "time": 160.5881549999966,
          "velocity": 0.7874015748031497,
          "duration": 0.17647049999999354
        },
        {
          "name": "E2",
          "midi": 40,
          "time": 160.76462549999658,
          "velocity": 0.7874015748031497,
          "duration": 0.35294099999998707
        },
        {
          "name": "C2",
          "midi": 36,
          "time": 160.94109599999658,
          "velocity": 0.7874015748031497,
          "duration": 0.35294099999998707
        },
        {
          "name": "G3",
          "midi": 55,
          "time": 160.94109599999658,
          "velocity": 0.7874015748031497,
          "duration": 0.17647049999999354
        },
        {
          "name": "C2",
          "midi": 36,
          "time": 161.29403699999656,
          "velocity": 0.7874015748031497,
          "duration": 0.35294099999998707
        },
        {
          "name": "G3",
          "midi": 55,
          "time": 161.29403699999656,
          "velocity": 0.7874015748031497,
          "duration": 0.17647049999999354
        },
        {
          "name": "E2",
          "midi": 40,
          "time": 161.64697799999655,
          "velocity": 0.7874015748031497,
          "duration": 0.08823524999999677
        },
        {
          "name": "G3",
          "midi": 55,
          "time": 161.64697799999655,
          "velocity": 0.7874015748031497,
          "duration": 0.17647049999999354
        },
        {
          "name": "G3",
          "midi": 55,
          "time": 161.99991899999654,
          "velocity": 0.7874015748031497,
          "duration": 0.17647049999999354
        },
        {
          "name": "C2",
          "midi": 36,
          "time": 162.35285999999653,
          "velocity": 0.7874015748031497,
          "duration": 0.08823524999999677
        },
        {
          "name": "G3",
          "midi": 55,
          "time": 162.35285999999653,
          "velocity": 0.7874015748031497,
          "duration": 0.17647049999999354
        },
        {
          "name": "E2",
          "midi": 40,
          "time": 162.52933049999652,
          "velocity": 0.7874015748031497,
          "duration": 0.08823524999999677
        },
        {
          "name": "G3",
          "midi": 55,
          "time": 162.7058009999965,
          "velocity": 0.7874015748031497,
          "duration": 0.17647049999999354
        },
        {
          "name": "C2",
          "midi": 36,
          "time": 162.8822714999965,
          "velocity": 0.7874015748031497,
          "duration": 0.35294099999998707
        },
        {
          "name": "G3",
          "midi": 55,
          "time": 163.0587419999965,
          "velocity": 0.7874015748031497,
          "duration": 0.17647049999999354
        },
        {
          "name": "C2",
          "midi": 36,
          "time": 163.2352124999965,
          "velocity": 0.7874015748031497,
          "duration": 0.35294099999998707
        },
        {
          "name": "E2",
          "midi": 40,
          "time": 163.4116829999965,
          "velocity": 0.7874015748031497,
          "duration": 0.35294099999998707
        },
        {
          "name": "G3",
          "midi": 55,
          "time": 163.4116829999965,
          "velocity": 0.7874015748031497,
          "duration": 0.17647049999999354
        },
        {
          "name": "C2",
          "midi": 36,
          "time": 163.76462399999647,
          "velocity": 0.7874015748031497,
          "duration": 0.35294099999998707
        },
        {
          "name": "C#3",
          "midi": 49,
          "time": 163.76462399999647,
          "velocity": 0.7874015748031497,
          "duration": 0.17647049999999354
        },
        {
          "name": "C2",
          "midi": 36,
          "time": 164.11756499999646,
          "velocity": 0.7874015748031497,
          "duration": 0.35294099999998707
        },
        {
          "name": "A3",
          "midi": 57,
          "time": 164.11756499999646,
          "velocity": 0.7874015748031497,
          "duration": 0.17647049999999354
        },
        {
          "name": "E2",
          "midi": 40,
          "time": 164.47050599999645,
          "velocity": 0.7874015748031497,
          "duration": 0.08823524999999677
        },
        {
          "name": "G3",
          "midi": 55,
          "time": 164.47050599999645,
          "velocity": 0.7874015748031497,
          "duration": 0.17647049999999354
        },
        {
          "name": "G3",
          "midi": 55,
          "time": 164.82344699999643,
          "velocity": 0.7874015748031497,
          "duration": 0.17647049999999354
        },
        {
          "name": "C2",
          "midi": 36,
          "time": 165.17638799999642,
          "velocity": 0.7874015748031497,
          "duration": 0.08823524999999677
        },
        {
          "name": "G3",
          "midi": 55,
          "time": 165.17638799999642,
          "velocity": 0.7874015748031497,
          "duration": 0.17647049999999354
        },
        {
          "name": "E2",
          "midi": 40,
          "time": 165.35285849999642,
          "velocity": 0.7874015748031497,
          "duration": 0.08823524999999677
        },
        {
          "name": "G3",
          "midi": 55,
          "time": 165.5293289999964,
          "velocity": 0.7874015748031497,
          "duration": 0.17647049999999354
        },
        {
          "name": "C2",
          "midi": 36,
          "time": 165.7057994999964,
          "velocity": 0.7874015748031497,
          "duration": 0.35294099999998707
        },
        {
          "name": "E2",
          "midi": 40,
          "time": 165.8822699999964,
          "velocity": 0.7874015748031497,
          "duration": 0.35294099999998707
        },
        {
          "name": "G3",
          "midi": 55,
          "time": 165.8822699999964,
          "velocity": 0.7874015748031497,
          "duration": 0.17647049999999354
        },
        {
          "name": "G3",
          "midi": 55,
          "time": 166.23521099999638,
          "velocity": 0.7874015748031497,
          "duration": 0.17647049999999354
        },
        {
          "name": "E2",
          "midi": 40,
          "time": 166.41168149999638,
          "velocity": 0.7874015748031497,
          "duration": 0.35294099999998707
        },
        {
          "name": "C2",
          "midi": 36,
          "time": 166.58815199999637,
          "velocity": 0.7874015748031497,
          "duration": 0.35294099999998707
        },
        {
          "name": "C#3",
          "midi": 49,
          "time": 166.58815199999637,
          "velocity": 0.7874015748031497,
          "duration": 0.17647049999999354
        },
        {
          "name": "C2",
          "midi": 36,
          "time": 166.94109299999636,
          "velocity": 0.7874015748031497,
          "duration": 0.35294099999998707
        },
        {
          "name": "A3",
          "midi": 57,
          "time": 166.94109299999636,
          "velocity": 0.7874015748031497,
          "duration": 0.17647049999999354
        },
        {
          "name": "E2",
          "midi": 40,
          "time": 167.29403399999634,
          "velocity": 0.7874015748031497,
          "duration": 0.08823524999999677
        },
        {
          "name": "G3",
          "midi": 55,
          "time": 167.29403399999634,
          "velocity": 0.7874015748031497,
          "duration": 0.17647049999999354
        },
        {
          "name": "G3",
          "midi": 55,
          "time": 167.64697499999633,
          "velocity": 0.7874015748031497,
          "duration": 0.17647049999999354
        },
        {
          "name": "G3",
          "midi": 55,
          "time": 167.99991599999632,
          "velocity": 0.7874015748031497,
          "duration": 0.17647049999999354
        },
        {
          "name": "C2",
          "midi": 36,
          "time": 167.99991599999632,
          "velocity": 0.7874015748031497,
          "duration": 0.08823524999999677
        },
        {
          "name": "E2",
          "midi": 40,
          "time": 168.1763864999963,
          "velocity": 0.7874015748031497,
          "duration": 0.08823524999999677
        },
        {
          "name": "G3",
          "midi": 55,
          "time": 168.3528569999963,
          "velocity": 0.7874015748031497,
          "duration": 0.17647049999999354
        },
        {
          "name": "C2",
          "midi": 36,
          "time": 168.5293274999963,
          "velocity": 0.7874015748031497,
          "duration": 0.35294099999998707
        },
        {
          "name": "G3",
          "midi": 55,
          "time": 168.7057979999963,
          "velocity": 0.7874015748031497,
          "duration": 0.17647049999999354
        },
        {
          "name": "E2",
          "midi": 40,
          "time": 168.7057979999963,
          "velocity": 0.7874015748031497,
          "duration": 0.17647049999999354
        },
        {
          "name": "C2",
          "midi": 36,
          "time": 168.8822684999963,
          "velocity": 0.7874015748031497,
          "duration": 0.35294099999998707
        },
        {
          "name": "G3",
          "midi": 55,
          "time": 169.05873899999628,
          "velocity": 0.7874015748031497,
          "duration": 0.17647049999999354
        },
        {
          "name": "E2",
          "midi": 40,
          "time": 169.05873899999628,
          "velocity": 0.7874015748031497,
          "duration": 0.35294099999998707
        },
        {
          "name": "F#2",
          "midi": 42,
          "time": 169.41167999999627,
          "velocity": 0.7874015748031497,
          "duration": 0.17647049999999354
        },
        {
          "name": "E2",
          "midi": 40,
          "time": 169.41167999999627,
          "velocity": 0.7874015748031497,
          "duration": 0.17647049999999354
        },
        {
          "name": "F#2",
          "midi": 42,
          "time": 169.58815049999626,
          "velocity": 0.7874015748031497,
          "duration": 0.17647049999999354
        },
        {
          "name": "E2",
          "midi": 40,
          "time": 169.58815049999626,
          "velocity": 0.7874015748031497,
          "duration": 0.17647049999999354
        },
        {
          "name": "F#2",
          "midi": 42,
          "time": 169.94109149999625,
          "velocity": 0.7874015748031497,
          "duration": 0.17647049999999354
        },
        {
          "name": "E2",
          "midi": 40,
          "time": 169.94109149999625,
          "velocity": 0.7874015748031497,
          "duration": 0.17647049999999354
        },
        {
          "name": "F#2",
          "midi": 42,
          "time": 170.29403249999623,
          "velocity": 0.7874015748031497,
          "duration": 0.17647049999999354
        },
        {
          "name": "E2",
          "midi": 40,
          "time": 170.29403249999623,
          "velocity": 0.7874015748031497,
          "duration": 0.17647049999999354
        },
        {
          "name": "F#2",
          "midi": 42,
          "time": 170.64697349999622,
          "velocity": 0.7874015748031497,
          "duration": 0.17647049999999354
        },
        {
          "name": "E2",
          "midi": 40,
          "time": 170.64697349999622,
          "velocity": 0.7874015748031497,
          "duration": 0.17647049999999354
        },
        {
          "name": "F#2",
          "midi": 42,
          "time": 170.9999144999962,
          "velocity": 0.7874015748031497,
          "duration": 0.17647049999999354
        },
        {
          "name": "E2",
          "midi": 40,
          "time": 170.9999144999962,
          "velocity": 0.7874015748031497,
          "duration": 0.17647049999999354
        },
        {
          "name": "A2",
          "midi": 45,
          "time": 171.3528554999962,
          "velocity": 0.7874015748031497,
          "duration": 0.17647049999999354
        },
        {
          "name": "G2",
          "midi": 43,
          "time": 171.3528554999962,
          "velocity": 0.7874015748031497,
          "duration": 0.17647049999999354
        },
        {
          "name": "A2",
          "midi": 45,
          "time": 171.5293259999962,
          "velocity": 0.7874015748031497,
          "duration": 0.17647049999999354
        },
        {
          "name": "G2",
          "midi": 43,
          "time": 171.5293259999962,
          "velocity": 0.7874015748031497,
          "duration": 0.17647049999999354
        },
        {
          "name": "B2",
          "midi": 47,
          "time": 171.70579649999618,
          "velocity": 0.7874015748031497,
          "duration": 0.17647049999999354
        },
        {
          "name": "A2",
          "midi": 45,
          "time": 171.70579649999618,
          "velocity": 0.7874015748031497,
          "duration": 0.17647049999999354
        },
        {
          "name": "B2",
          "midi": 47,
          "time": 171.88226699999618,
          "velocity": 0.7874015748031497,
          "duration": 0.17647049999999354
        },
        {
          "name": "A2",
          "midi": 45,
          "time": 171.88226699999618,
          "velocity": 0.7874015748031497,
          "duration": 0.17647049999999354
        },
        {
          "name": "F#2",
          "midi": 42,
          "time": 172.23520799999616,
          "velocity": 0.7874015748031497,
          "duration": 0.17647049999999354
        },
        {
          "name": "E2",
          "midi": 40,
          "time": 172.23520799999616,
          "velocity": 0.7874015748031497,
          "duration": 0.17647049999999354
        },
        {
          "name": "F#2",
          "midi": 42,
          "time": 172.41167849999616,
          "velocity": 0.7874015748031497,
          "duration": 0.17647049999999354
        },
        {
          "name": "E2",
          "midi": 40,
          "time": 172.41167849999616,
          "velocity": 0.7874015748031497,
          "duration": 0.17647049999999354
        },
        {
          "name": "F#2",
          "midi": 42,
          "time": 172.76461949999614,
          "velocity": 0.7874015748031497,
          "duration": 0.17647049999999354
        },
        {
          "name": "E2",
          "midi": 40,
          "time": 172.76461949999614,
          "velocity": 0.7874015748031497,
          "duration": 0.17647049999999354
        },
        {
          "name": "F#2",
          "midi": 42,
          "time": 173.11756049999613,
          "velocity": 0.7874015748031497,
          "duration": 0.17647049999999354
        },
        {
          "name": "E2",
          "midi": 40,
          "time": 173.11756049999613,
          "velocity": 0.7874015748031497,
          "duration": 0.17647049999999354
        },
        {
          "name": "F#2",
          "midi": 42,
          "time": 173.47050149999612,
          "velocity": 0.7874015748031497,
          "duration": 0.17647049999999354
        },
        {
          "name": "E2",
          "midi": 40,
          "time": 173.47050149999612,
          "velocity": 0.7874015748031497,
          "duration": 0.17647049999999354
        },
        {
          "name": "F#2",
          "midi": 42,
          "time": 173.8234424999961,
          "velocity": 0.7874015748031497,
          "duration": 0.17647049999999354
        },
        {
          "name": "E2",
          "midi": 40,
          "time": 173.8234424999961,
          "velocity": 0.7874015748031497,
          "duration": 0.17647049999999354
        },
        {
          "name": "A2",
          "midi": 45,
          "time": 174.1763834999961,
          "velocity": 0.7874015748031497,
          "duration": 0.17647049999999354
        },
        {
          "name": "G2",
          "midi": 43,
          "time": 174.1763834999961,
          "velocity": 0.7874015748031497,
          "duration": 0.17647049999999354
        },
        {
          "name": "A2",
          "midi": 45,
          "time": 174.35285399999609,
          "velocity": 0.7874015748031497,
          "duration": 0.17647049999999354
        },
        {
          "name": "G2",
          "midi": 43,
          "time": 174.35285399999609,
          "velocity": 0.7874015748031497,
          "duration": 0.17647049999999354
        },
        {
          "name": "B2",
          "midi": 47,
          "time": 174.52932449999608,
          "velocity": 0.7874015748031497,
          "duration": 0.17647049999999354
        },
        {
          "name": "A2",
          "midi": 45,
          "time": 174.52932449999608,
          "velocity": 0.7874015748031497,
          "duration": 0.17647049999999354
        },
        {
          "name": "B2",
          "midi": 47,
          "time": 174.70579499999607,
          "velocity": 0.7874015748031497,
          "duration": 0.17647049999999354
        },
        {
          "name": "A2",
          "midi": 45,
          "time": 174.70579499999607,
          "velocity": 0.7874015748031497,
          "duration": 0.17647049999999354
        },
        {
          "name": "C2",
          "midi": 36,
          "time": 175.05873599999606,
          "velocity": 0.7874015748031497,
          "duration": 0.17647049999999354
        },
        {
          "name": "F#2",
          "midi": 42,
          "time": 175.05873599999606,
          "velocity": 0.7874015748031497,
          "duration": 0.17647049999999354
        },
        {
          "name": "C2",
          "midi": 36,
          "time": 175.23520649999605,
          "velocity": 0.7874015748031497,
          "duration": 0.17647049999999354
        },
        {
          "name": "F#2",
          "midi": 42,
          "time": 175.23520649999605,
          "velocity": 0.7874015748031497,
          "duration": 0.17647049999999354
        },
        {
          "name": "E2",
          "midi": 40,
          "time": 175.41167699999605,
          "velocity": 0.7874015748031497,
          "duration": 0.17647049999999354
        },
        {
          "name": "F#2",
          "midi": 42,
          "time": 175.41167699999605,
          "velocity": 0.7874015748031497,
          "duration": 0.17647049999999354
        },
        {
          "name": "F#2",
          "midi": 42,
          "time": 175.58814749999604,
          "velocity": 0.7874015748031497,
          "duration": 0.17647049999999354
        },
        {
          "name": "C2",
          "midi": 36,
          "time": 175.76461799999603,
          "velocity": 0.7874015748031497,
          "duration": 0.17647049999999354
        },
        {
          "name": "F#2",
          "midi": 42,
          "time": 175.76461799999603,
          "velocity": 0.7874015748031497,
          "duration": 0.17647049999999354
        },
        {
          "name": "C2",
          "midi": 36,
          "time": 175.94108849999603,
          "velocity": 0.7874015748031497,
          "duration": 0.17647049999999354
        },
        {
          "name": "F#2",
          "midi": 42,
          "time": 175.94108849999603,
          "velocity": 0.7874015748031497,
          "duration": 0.17647049999999354
        },
        {
          "name": "E2",
          "midi": 40,
          "time": 176.11755899999602,
          "velocity": 0.7874015748031497,
          "duration": 0.17647049999999354
        },
        {
          "name": "F#2",
          "midi": 42,
          "time": 176.11755899999602,
          "velocity": 0.7874015748031497,
          "duration": 0.17647049999999354
        },
        {
          "name": "F#2",
          "midi": 42,
          "time": 176.29402949999601,
          "velocity": 0.7874015748031497,
          "duration": 0.17647049999999354
        },
        {
          "name": "F#2",
          "midi": 42,
          "time": 176.470499999996,
          "velocity": 0.7874015748031497,
          "duration": 0.17647049999999354
        },
        {
          "name": "C2",
          "midi": 36,
          "time": 176.470499999996,
          "velocity": 0.7874015748031497,
          "duration": 0.17647049999999354
        },
        {
          "name": "F#2",
          "midi": 42,
          "time": 176.646970499996,
          "velocity": 0.7874015748031497,
          "duration": 0.17647049999999354
        },
        {
          "name": "C2",
          "midi": 36,
          "time": 176.646970499996,
          "velocity": 0.7874015748031497,
          "duration": 0.17647049999999354
        },
        {
          "name": "F#2",
          "midi": 42,
          "time": 176.823440999996,
          "velocity": 0.7874015748031497,
          "duration": 0.17647049999999354
        },
        {
          "name": "E2",
          "midi": 40,
          "time": 176.823440999996,
          "velocity": 0.7874015748031497,
          "duration": 0.17647049999999354
        },
        {
          "name": "F#2",
          "midi": 42,
          "time": 176.999911499996,
          "velocity": 0.7874015748031497,
          "duration": 0.17647049999999354
        },
        {
          "name": "C2",
          "midi": 36,
          "time": 176.999911499996,
          "velocity": 0.7874015748031497,
          "duration": 0.17647049999999354
        },
        {
          "name": "F#2",
          "midi": 42,
          "time": 177.17638199999598,
          "velocity": 0.7874015748031497,
          "duration": 0.17647049999999354
        },
        {
          "name": "C2",
          "midi": 36,
          "time": 177.35285249999598,
          "velocity": 0.7874015748031497,
          "duration": 0.17647049999999354
        },
        {
          "name": "F#2",
          "midi": 42,
          "time": 177.35285249999598,
          "velocity": 0.7874015748031497,
          "duration": 0.17647049999999354
        },
        {
          "name": "E2",
          "midi": 40,
          "time": 177.52932299999597,
          "velocity": 0.7874015748031497,
          "duration": 0.17647049999999354
        },
        {
          "name": "F#2",
          "midi": 42,
          "time": 177.52932299999597,
          "velocity": 0.7874015748031497,
          "duration": 0.17647049999999354
        },
        {
          "name": "F#2",
          "midi": 42,
          "time": 177.70579349999596,
          "velocity": 0.7874015748031497,
          "duration": 0.17647049999999354
        },
        {
          "name": "E2",
          "midi": 40,
          "time": 177.70579349999596,
          "velocity": 0.7874015748031497,
          "duration": 0.17647049999999354
        },
        {
          "name": "E2",
          "midi": 40,
          "time": 177.88226399999596,
          "velocity": 0.7874015748031497,
          "duration": 0.17647049999999354
        },
        {
          "name": "F#2",
          "midi": 42,
          "time": 177.88226399999596,
          "velocity": 0.7874015748031497,
          "duration": 0.17647049999999354
        },
        {
          "name": "F#2",
          "midi": 42,
          "time": 178.05873449999595,
          "velocity": 0.7874015748031497,
          "duration": 0.17647049999999354
        },
        {
          "name": "C2",
          "midi": 36,
          "time": 178.05873449999595,
          "velocity": 0.7874015748031497,
          "duration": 0.17647049999999354
        },
        {
          "name": "E2",
          "midi": 40,
          "time": 178.23520499999594,
          "velocity": 0.7874015748031497,
          "duration": 0.17647049999999354
        },
        {
          "name": "F#2",
          "midi": 42,
          "time": 178.23520499999594,
          "velocity": 0.7874015748031497,
          "duration": 0.17647049999999354
        },
        {
          "name": "F#2",
          "midi": 42,
          "time": 178.41167549999594,
          "velocity": 0.7874015748031497,
          "duration": 0.17647049999999354
        },
        {
          "name": "C2",
          "midi": 36,
          "time": 178.58814599999593,
          "velocity": 0.7874015748031497,
          "duration": 0.17647049999999354
        },
        {
          "name": "F#2",
          "midi": 42,
          "time": 178.58814599999593,
          "velocity": 0.7874015748031497,
          "duration": 0.17647049999999354
        },
        {
          "name": "C2",
          "midi": 36,
          "time": 178.76461649999592,
          "velocity": 0.7874015748031497,
          "duration": 0.17647049999999354
        },
        {
          "name": "F#2",
          "midi": 42,
          "time": 178.76461649999592,
          "velocity": 0.7874015748031497,
          "duration": 0.17647049999999354
        },
        {
          "name": "E2",
          "midi": 40,
          "time": 178.94108699999592,
          "velocity": 0.7874015748031497,
          "duration": 0.17647049999999354
        },
        {
          "name": "F#2",
          "midi": 42,
          "time": 178.94108699999592,
          "velocity": 0.7874015748031497,
          "duration": 0.17647049999999354
        },
        {
          "name": "F#2",
          "midi": 42,
          "time": 179.1175574999959,
          "velocity": 0.7874015748031497,
          "duration": 0.17647049999999354
        },
        {
          "name": "F#2",
          "midi": 42,
          "time": 179.2940279999959,
          "velocity": 0.7874015748031497,
          "duration": 0.17647049999999354
        },
        {
          "name": "C2",
          "midi": 36,
          "time": 179.2940279999959,
          "velocity": 0.7874015748031497,
          "duration": 0.17647049999999354
        },
        {
          "name": "F#2",
          "midi": 42,
          "time": 179.4704984999959,
          "velocity": 0.7874015748031497,
          "duration": 0.17647049999999354
        },
        {
          "name": "C2",
          "midi": 36,
          "time": 179.4704984999959,
          "velocity": 0.7874015748031497,
          "duration": 0.17647049999999354
        },
        {
          "name": "F#2",
          "midi": 42,
          "time": 179.6469689999959,
          "velocity": 0.7874015748031497,
          "duration": 0.17647049999999354
        },
        {
          "name": "E2",
          "midi": 40,
          "time": 179.6469689999959,
          "velocity": 0.7874015748031497,
          "duration": 0.17647049999999354
        },
        {
          "name": "F#2",
          "midi": 42,
          "time": 179.82343949999589,
          "velocity": 0.7874015748031497,
          "duration": 0.17647049999999354
        },
        {
          "name": "C2",
          "midi": 36,
          "time": 179.82343949999589,
          "velocity": 0.7874015748031497,
          "duration": 0.17647049999999354
        },
        {
          "name": "F#2",
          "midi": 42,
          "time": 179.99990999999588,
          "velocity": 0.7874015748031497,
          "duration": 0.17647049999999354
        },
        {
          "name": "C2",
          "midi": 36,
          "time": 180.17638049999587,
          "velocity": 0.7874015748031497,
          "duration": 0.17647049999999354
        },
        {
          "name": "F#2",
          "midi": 42,
          "time": 180.17638049999587,
          "velocity": 0.7874015748031497,
          "duration": 0.17647049999999354
        },
        {
          "name": "E2",
          "midi": 40,
          "time": 180.35285099999587,
          "velocity": 0.7874015748031497,
          "duration": 0.17647049999999354
        },
        {
          "name": "F#2",
          "midi": 42,
          "time": 180.35285099999587,
          "velocity": 0.7874015748031497,
          "duration": 0.17647049999999354
        },
        {
          "name": "F#2",
          "midi": 42,
          "time": 180.52932149999586,
          "velocity": 0.7874015748031497,
          "duration": 0.17647049999999354
        },
        {
          "name": "E2",
          "midi": 40,
          "time": 180.52932149999586,
          "velocity": 0.7874015748031497,
          "duration": 0.17647049999999354
        },
        {
          "name": "E2",
          "midi": 40,
          "time": 180.70579199999585,
          "velocity": 0.7874015748031497,
          "duration": 0.17647049999999354
        },
        {
          "name": "F#2",
          "midi": 42,
          "time": 180.70579199999585,
          "velocity": 0.7874015748031497,
          "duration": 0.17647049999999354
        },
        {
          "name": "F#2",
          "midi": 42,
          "time": 180.88226249999585,
          "velocity": 0.7874015748031497,
          "duration": 0.17647049999999354
        },
        {
          "name": "C2",
          "midi": 36,
          "time": 180.88226249999585,
          "velocity": 0.7874015748031497,
          "duration": 0.17647049999999354
        },
        {
          "name": "E2",
          "midi": 40,
          "time": 181.05873299999584,
          "velocity": 0.7874015748031497,
          "duration": 0.17647049999999354
        },
        {
          "name": "F#2",
          "midi": 42,
          "time": 181.05873299999584,
          "velocity": 0.7874015748031497,
          "duration": 0.17647049999999354
        },
        {
          "name": "F#2",
          "midi": 42,
          "time": 181.23520349999583,
          "velocity": 0.7874015748031497,
          "duration": 0.17647049999999354
        },
        {
          "name": "C2",
          "midi": 36,
          "time": 181.41167399999583,
          "velocity": 0.7874015748031497,
          "duration": 0.17647049999999354
        },
        {
          "name": "F#2",
          "midi": 42,
          "time": 181.41167399999583,
          "velocity": 0.7874015748031497,
          "duration": 0.17647049999999354
        },
        {
          "name": "C2",
          "midi": 36,
          "time": 181.58814449999582,
          "velocity": 0.7874015748031497,
          "duration": 0.17647049999999354
        },
        {
          "name": "F#2",
          "midi": 42,
          "time": 181.58814449999582,
          "velocity": 0.7874015748031497,
          "duration": 0.17647049999999354
        },
        {
          "name": "E2",
          "midi": 40,
          "time": 181.7646149999958,
          "velocity": 0.7874015748031497,
          "duration": 0.17647049999999354
        },
        {
          "name": "F#2",
          "midi": 42,
          "time": 181.7646149999958,
          "velocity": 0.7874015748031497,
          "duration": 0.17647049999999354
        },
        {
          "name": "F#2",
          "midi": 42,
          "time": 181.9410854999958,
          "velocity": 0.7874015748031497,
          "duration": 0.17647049999999354
        },
        {
          "name": "F#2",
          "midi": 42,
          "time": 182.1175559999958,
          "velocity": 0.7874015748031497,
          "duration": 0.17647049999999354
        },
        {
          "name": "C2",
          "midi": 36,
          "time": 182.1175559999958,
          "velocity": 0.7874015748031497,
          "duration": 0.17647049999999354
        },
        {
          "name": "F#2",
          "midi": 42,
          "time": 182.2940264999958,
          "velocity": 0.7874015748031497,
          "duration": 0.17647049999999354
        },
        {
          "name": "C2",
          "midi": 36,
          "time": 182.2940264999958,
          "velocity": 0.7874015748031497,
          "duration": 0.17647049999999354
        },
        {
          "name": "F#2",
          "midi": 42,
          "time": 182.4704969999958,
          "velocity": 0.7874015748031497,
          "duration": 0.17647049999999354
        },
        {
          "name": "E2",
          "midi": 40,
          "time": 182.4704969999958,
          "velocity": 0.7874015748031497,
          "duration": 0.17647049999999354
        },
        {
          "name": "F#2",
          "midi": 42,
          "time": 182.64696749999578,
          "velocity": 0.7874015748031497,
          "duration": 0.17647049999999354
        },
        {
          "name": "C2",
          "midi": 36,
          "time": 182.64696749999578,
          "velocity": 0.7874015748031497,
          "duration": 0.17647049999999354
        },
        {
          "name": "F#2",
          "midi": 42,
          "time": 182.82343799999578,
          "velocity": 0.7874015748031497,
          "duration": 0.17647049999999354
        },
        {
          "name": "C2",
          "midi": 36,
          "time": 182.99990849999577,
          "velocity": 0.7874015748031497,
          "duration": 0.17647049999999354
        },
        {
          "name": "F#2",
          "midi": 42,
          "time": 182.99990849999577,
          "velocity": 0.7874015748031497,
          "duration": 0.17647049999999354
        },
        {
          "name": "E2",
          "midi": 40,
          "time": 183.17637899999576,
          "velocity": 0.7874015748031497,
          "duration": 0.17647049999999354
        },
        {
          "name": "F#2",
          "midi": 42,
          "time": 183.17637899999576,
          "velocity": 0.7874015748031497,
          "duration": 0.17647049999999354
        },
        {
          "name": "F#2",
          "midi": 42,
          "time": 183.35284949999576,
          "velocity": 0.7874015748031497,
          "duration": 0.17647049999999354
        },
        {
          "name": "E2",
          "midi": 40,
          "time": 183.35284949999576,
          "velocity": 0.7874015748031497,
          "duration": 0.17647049999999354
        },
        {
          "name": "E2",
          "midi": 40,
          "time": 183.52931999999575,
          "velocity": 0.7874015748031497,
          "duration": 0.17647049999999354
        },
        {
          "name": "F#2",
          "midi": 42,
          "time": 183.52931999999575,
          "velocity": 0.7874015748031497,
          "duration": 0.17647049999999354
        },
        {
          "name": "F#2",
          "midi": 42,
          "time": 183.70579049999574,
          "velocity": 0.7874015748031497,
          "duration": 0.17647049999999354
        },
        {
          "name": "C2",
          "midi": 36,
          "time": 183.70579049999574,
          "velocity": 0.7874015748031497,
          "duration": 0.17647049999999354
        },
        {
          "name": "E2",
          "midi": 40,
          "time": 183.88226099999574,
          "velocity": 0.7874015748031497,
          "duration": 0.17647049999999354
        },
        {
          "name": "F#2",
          "midi": 42,
          "time": 183.88226099999574,
          "velocity": 0.7874015748031497,
          "duration": 0.17647049999999354
        },
        {
          "name": "F#2",
          "midi": 42,
          "time": 184.05873149999573,
          "velocity": 0.7874015748031497,
          "duration": 0.17647049999999354
        },
        {
          "name": "C2",
          "midi": 36,
          "time": 184.23520199999572,
          "velocity": 0.7874015748031497,
          "duration": 0.17647049999999354
        },
        {
          "name": "F#2",
          "midi": 42,
          "time": 184.23520199999572,
          "velocity": 0.7874015748031497,
          "duration": 0.17647049999999354
        },
        {
          "name": "C2",
          "midi": 36,
          "time": 184.41167249999572,
          "velocity": 0.7874015748031497,
          "duration": 0.17647049999999354
        },
        {
          "name": "F#2",
          "midi": 42,
          "time": 184.41167249999572,
          "velocity": 0.7874015748031497,
          "duration": 0.17647049999999354
        },
        {
          "name": "E2",
          "midi": 40,
          "time": 184.5881429999957,
          "velocity": 0.7874015748031497,
          "duration": 0.17647049999999354
        },
        {
          "name": "F#2",
          "midi": 42,
          "time": 184.5881429999957,
          "velocity": 0.7874015748031497,
          "duration": 0.17647049999999354
        },
        {
          "name": "F#2",
          "midi": 42,
          "time": 184.7646134999957,
          "velocity": 0.7874015748031497,
          "duration": 0.17647049999999354
        },
        {
          "name": "F#2",
          "midi": 42,
          "time": 184.9410839999957,
          "velocity": 0.7874015748031497,
          "duration": 0.17647049999999354
        },
        {
          "name": "C2",
          "midi": 36,
          "time": 184.9410839999957,
          "velocity": 0.7874015748031497,
          "duration": 0.17647049999999354
        },
        {
          "name": "F#2",
          "midi": 42,
          "time": 185.1175544999957,
          "velocity": 0.7874015748031497,
          "duration": 0.17647049999999354
        },
        {
          "name": "C2",
          "midi": 36,
          "time": 185.1175544999957,
          "velocity": 0.7874015748031497,
          "duration": 0.17647049999999354
        },
        {
          "name": "F#2",
          "midi": 42,
          "time": 185.29402499999568,
          "velocity": 0.7874015748031497,
          "duration": 0.17647049999999354
        },
        {
          "name": "E2",
          "midi": 40,
          "time": 185.29402499999568,
          "velocity": 0.7874015748031497,
          "duration": 0.17647049999999354
        },
        {
          "name": "F#2",
          "midi": 42,
          "time": 185.47049549999568,
          "velocity": 0.7874015748031497,
          "duration": 0.17647049999999354
        },
        {
          "name": "C2",
          "midi": 36,
          "time": 185.47049549999568,
          "velocity": 0.7874015748031497,
          "duration": 0.17647049999999354
        },
        {
          "name": "F#2",
          "midi": 42,
          "time": 185.64696599999567,
          "velocity": 0.7874015748031497,
          "duration": 0.17647049999999354
        },
        {
          "name": "C2",
          "midi": 36,
          "time": 185.82343649999567,
          "velocity": 0.7874015748031497,
          "duration": 0.17647049999999354
        },
        {
          "name": "F#2",
          "midi": 42,
          "time": 185.82343649999567,
          "velocity": 0.7874015748031497,
          "duration": 0.17647049999999354
        },
        {
          "name": "E2",
          "midi": 40,
          "time": 185.99990699999566,
          "velocity": 0.7874015748031497,
          "duration": 0.17647049999999354
        },
        {
          "name": "F#2",
          "midi": 42,
          "time": 185.99990699999566,
          "velocity": 0.7874015748031497,
          "duration": 0.17647049999999354
        },
        {
          "name": "F#2",
          "midi": 42,
          "time": 186.17637749999565,
          "velocity": 0.7874015748031497,
          "duration": 0.17647049999999354
        },
        {
          "name": "E2",
          "midi": 40,
          "time": 186.17637749999565,
          "velocity": 0.7874015748031497,
          "duration": 0.17647049999999354
        },
        {
          "name": "E2",
          "midi": 40,
          "time": 186.35284799999565,
          "velocity": 0.7874015748031497,
          "duration": 0.17647049999999354
        },
        {
          "name": "F#2",
          "midi": 42,
          "time": 186.35284799999565,
          "velocity": 0.7874015748031497,
          "duration": 0.17647049999999354
        },
        {
          "name": "F#2",
          "midi": 42,
          "time": 186.52931849999564,
          "velocity": 0.7874015748031497,
          "duration": 0.17647049999999354
        },
        {
          "name": "C2",
          "midi": 36,
          "time": 186.52931849999564,
          "velocity": 0.7874015748031497,
          "duration": 0.17647049999999354
        },
        {
          "name": "E2",
          "midi": 40,
          "time": 186.70578899999563,
          "velocity": 0.7874015748031497,
          "duration": 0.17647049999999354
        },
        {
          "name": "F#2",
          "midi": 42,
          "time": 186.70578899999563,
          "velocity": 0.7874015748031497,
          "duration": 0.17647049999999354
        },
        {
          "name": "F#2",
          "midi": 42,
          "time": 186.88225949999563,
          "velocity": 0.7874015748031497,
          "duration": 0.17647049999999354
        },
        {
          "name": "C2",
          "midi": 36,
          "time": 187.05872999999562,
          "velocity": 0.7874015748031497,
          "duration": 0.17647049999999354
        },
        {
          "name": "F#2",
          "midi": 42,
          "time": 187.05872999999562,
          "velocity": 0.7874015748031497,
          "duration": 0.17647049999999354
        },
        {
          "name": "C2",
          "midi": 36,
          "time": 187.2352004999956,
          "velocity": 0.7874015748031497,
          "duration": 0.17647049999999354
        },
        {
          "name": "F#2",
          "midi": 42,
          "time": 187.2352004999956,
          "velocity": 0.7874015748031497,
          "duration": 0.17647049999999354
        },
        {
          "name": "E2",
          "midi": 40,
          "time": 187.4116709999956,
          "velocity": 0.7874015748031497,
          "duration": 0.17647049999999354
        },
        {
          "name": "F#2",
          "midi": 42,
          "time": 187.4116709999956,
          "velocity": 0.7874015748031497,
          "duration": 0.17647049999999354
        },
        {
          "name": "F#2",
          "midi": 42,
          "time": 187.5881414999956,
          "velocity": 0.7874015748031497,
          "duration": 0.17647049999999354
        },
        {
          "name": "F#2",
          "midi": 42,
          "time": 187.7646119999956,
          "velocity": 0.7874015748031497,
          "duration": 0.17647049999999354
        },
        {
          "name": "C2",
          "midi": 36,
          "time": 187.7646119999956,
          "velocity": 0.7874015748031497,
          "duration": 0.17647049999999354
        },
        {
          "name": "F#2",
          "midi": 42,
          "time": 187.9410824999956,
          "velocity": 0.7874015748031497,
          "duration": 0.17647049999999354
        },
        {
          "name": "C2",
          "midi": 36,
          "time": 187.9410824999956,
          "velocity": 0.7874015748031497,
          "duration": 0.17647049999999354
        },
        {
          "name": "F#2",
          "midi": 42,
          "time": 188.11755299999558,
          "velocity": 0.7874015748031497,
          "duration": 0.17647049999999354
        },
        {
          "name": "E2",
          "midi": 40,
          "time": 188.11755299999558,
          "velocity": 0.7874015748031497,
          "duration": 0.17647049999999354
        },
        {
          "name": "F#2",
          "midi": 42,
          "time": 188.29402349999557,
          "velocity": 0.7874015748031497,
          "duration": 0.17647049999999354
        },
        {
          "name": "C2",
          "midi": 36,
          "time": 188.29402349999557,
          "velocity": 0.7874015748031497,
          "duration": 0.17647049999999354
        },
        {
          "name": "F#2",
          "midi": 42,
          "time": 188.47049399999557,
          "velocity": 0.7874015748031497,
          "duration": 0.17647049999999354
        },
        {
          "name": "C2",
          "midi": 36,
          "time": 188.64696449999556,
          "velocity": 0.7874015748031497,
          "duration": 0.17647049999999354
        },
        {
          "name": "F#2",
          "midi": 42,
          "time": 188.64696449999556,
          "velocity": 0.7874015748031497,
          "duration": 0.17647049999999354
        },
        {
          "name": "E2",
          "midi": 40,
          "time": 188.82343499999556,
          "velocity": 0.7874015748031497,
          "duration": 0.17647049999999354
        },
        {
          "name": "F#2",
          "midi": 42,
          "time": 188.82343499999556,
          "velocity": 0.7874015748031497,
          "duration": 0.17647049999999354
        },
        {
          "name": "F#2",
          "midi": 42,
          "time": 188.99990549999555,
          "velocity": 0.7874015748031497,
          "duration": 0.17647049999999354
        },
        {
          "name": "E2",
          "midi": 40,
          "time": 188.99990549999555,
          "velocity": 0.7874015748031497,
          "duration": 0.17647049999999354
        },
        {
          "name": "E2",
          "midi": 40,
          "time": 189.17637599999554,
          "velocity": 0.7874015748031497,
          "duration": 0.17647049999999354
        },
        {
          "name": "F#2",
          "midi": 42,
          "time": 189.17637599999554,
          "velocity": 0.7874015748031497,
          "duration": 0.17647049999999354
        },
        {
          "name": "F#2",
          "midi": 42,
          "time": 189.35284649999554,
          "velocity": 0.7874015748031497,
          "duration": 0.17647049999999354
        },
        {
          "name": "C2",
          "midi": 36,
          "time": 189.35284649999554,
          "velocity": 0.7874015748031497,
          "duration": 0.17647049999999354
        },
        {
          "name": "E2",
          "midi": 40,
          "time": 189.52931699999553,
          "velocity": 0.7874015748031497,
          "duration": 0.17647049999999354
        },
        {
          "name": "F#2",
          "midi": 42,
          "time": 189.52931699999553,
          "velocity": 0.7874015748031497,
          "duration": 0.17647049999999354
        },
        {
          "name": "F#2",
          "midi": 42,
          "time": 189.70578749999552,
          "velocity": 0.7874015748031497,
          "duration": 0.17647049999999354
        },
        {
          "name": "C2",
          "midi": 36,
          "time": 189.88225799999552,
          "velocity": 0.7874015748031497,
          "duration": 0.17647049999999354
        },
        {
          "name": "F#2",
          "midi": 42,
          "time": 189.88225799999552,
          "velocity": 0.7874015748031497,
          "duration": 0.17647049999999354
        },
        {
          "name": "C2",
          "midi": 36,
          "time": 190.0587284999955,
          "velocity": 0.7874015748031497,
          "duration": 0.17647049999999354
        },
        {
          "name": "F#2",
          "midi": 42,
          "time": 190.0587284999955,
          "velocity": 0.7874015748031497,
          "duration": 0.17647049999999354
        },
        {
          "name": "E2",
          "midi": 40,
          "time": 190.2351989999955,
          "velocity": 0.7874015748031497,
          "duration": 0.17647049999999354
        },
        {
          "name": "F#2",
          "midi": 42,
          "time": 190.2351989999955,
          "velocity": 0.7874015748031497,
          "duration": 0.17647049999999354
        },
        {
          "name": "F#2",
          "midi": 42,
          "time": 190.4116694999955,
          "velocity": 0.7874015748031497,
          "duration": 0.17647049999999354
        },
        {
          "name": "F#2",
          "midi": 42,
          "time": 190.5881399999955,
          "velocity": 0.7874015748031497,
          "duration": 0.17647049999999354
        },
        {
          "name": "C2",
          "midi": 36,
          "time": 190.5881399999955,
          "velocity": 0.7874015748031497,
          "duration": 0.17647049999999354
        },
        {
          "name": "F#2",
          "midi": 42,
          "time": 190.76461049999548,
          "velocity": 0.7874015748031497,
          "duration": 0.17647049999999354
        },
        {
          "name": "C2",
          "midi": 36,
          "time": 190.76461049999548,
          "velocity": 0.7874015748031497,
          "duration": 0.17647049999999354
        },
        {
          "name": "F#2",
          "midi": 42,
          "time": 190.94108099999548,
          "velocity": 0.7874015748031497,
          "duration": 0.17647049999999354
        },
        {
          "name": "E2",
          "midi": 40,
          "time": 190.94108099999548,
          "velocity": 0.7874015748031497,
          "duration": 0.17647049999999354
        },
        {
          "name": "F#2",
          "midi": 42,
          "time": 191.11755149999547,
          "velocity": 0.7874015748031497,
          "duration": 0.17647049999999354
        },
        {
          "name": "C2",
          "midi": 36,
          "time": 191.11755149999547,
          "velocity": 0.7874015748031497,
          "duration": 0.17647049999999354
        },
        {
          "name": "F#2",
          "midi": 42,
          "time": 191.29402199999546,
          "velocity": 0.7874015748031497,
          "duration": 0.17647049999999354
        },
        {
          "name": "C2",
          "midi": 36,
          "time": 191.47049249999546,
          "velocity": 0.7874015748031497,
          "duration": 0.17647049999999354
        },
        {
          "name": "F#2",
          "midi": 42,
          "time": 191.47049249999546,
          "velocity": 0.7874015748031497,
          "duration": 0.17647049999999354
        },
        {
          "name": "E2",
          "midi": 40,
          "time": 191.64696299999545,
          "velocity": 0.7874015748031497,
          "duration": 0.17647049999999354
        },
        {
          "name": "F#2",
          "midi": 42,
          "time": 191.64696299999545,
          "velocity": 0.7874015748031497,
          "duration": 0.17647049999999354
        },
        {
          "name": "F#2",
          "midi": 42,
          "time": 191.82343349999545,
          "velocity": 0.7874015748031497,
          "duration": 0.17647049999999354
        },
        {
          "name": "E2",
          "midi": 40,
          "time": 191.82343349999545,
          "velocity": 0.7874015748031497,
          "duration": 0.17647049999999354
        },
        {
          "name": "E2",
          "midi": 40,
          "time": 191.99990399999544,
          "velocity": 0.7874015748031497,
          "duration": 0.17647049999999354
        },
        {
          "name": "F#2",
          "midi": 42,
          "time": 191.99990399999544,
          "velocity": 0.7874015748031497,
          "duration": 0.17647049999999354
        },
        {
          "name": "F#2",
          "midi": 42,
          "time": 192.17637449999543,
          "velocity": 0.7874015748031497,
          "duration": 0.17647049999999354
        },
        {
          "name": "C2",
          "midi": 36,
          "time": 192.17637449999543,
          "velocity": 0.7874015748031497,
          "duration": 0.17647049999999354
        },
        {
          "name": "E2",
          "midi": 40,
          "time": 192.35284499999543,
          "velocity": 0.7874015748031497,
          "duration": 0.17647049999999354
        },
        {
          "name": "F#2",
          "midi": 42,
          "time": 192.35284499999543,
          "velocity": 0.7874015748031497,
          "duration": 0.17647049999999354
        },
        {
          "name": "F#2",
          "midi": 42,
          "time": 192.52931549999542,
          "velocity": 0.7874015748031497,
          "duration": 0.17647049999999354
        },
        {
          "name": "C2",
          "midi": 36,
          "time": 192.7057859999954,
          "velocity": 0.7874015748031497,
          "duration": 0.17647049999999354
        },
        {
          "name": "F#2",
          "midi": 42,
          "time": 192.7057859999954,
          "velocity": 0.7874015748031497,
          "duration": 0.17647049999999354
        },
        {
          "name": "C2",
          "midi": 36,
          "time": 192.8822564999954,
          "velocity": 0.7874015748031497,
          "duration": 0.17647049999999354
        },
        {
          "name": "F#2",
          "midi": 42,
          "time": 192.8822564999954,
          "velocity": 0.7874015748031497,
          "duration": 0.17647049999999354
        },
        {
          "name": "E2",
          "midi": 40,
          "time": 193.0587269999954,
          "velocity": 0.7874015748031497,
          "duration": 0.17647049999999354
        },
        {
          "name": "F#2",
          "midi": 42,
          "time": 193.0587269999954,
          "velocity": 0.7874015748031497,
          "duration": 0.17647049999999354
        },
        {
          "name": "F#2",
          "midi": 42,
          "time": 193.2351974999954,
          "velocity": 0.7874015748031497,
          "duration": 0.17647049999999354
        },
        {
          "name": "F#2",
          "midi": 42,
          "time": 193.4116679999954,
          "velocity": 0.7874015748031497,
          "duration": 0.17647049999999354
        },
        {
          "name": "C2",
          "midi": 36,
          "time": 193.4116679999954,
          "velocity": 0.7874015748031497,
          "duration": 0.17647049999999354
        },
        {
          "name": "F#2",
          "midi": 42,
          "time": 193.58813849999538,
          "velocity": 0.7874015748031497,
          "duration": 0.17647049999999354
        },
        {
          "name": "C2",
          "midi": 36,
          "time": 193.58813849999538,
          "velocity": 0.7874015748031497,
          "duration": 0.17647049999999354
        },
        {
          "name": "F#2",
          "midi": 42,
          "time": 193.76460899999537,
          "velocity": 0.7874015748031497,
          "duration": 0.17647049999999354
        },
        {
          "name": "E2",
          "midi": 40,
          "time": 193.76460899999537,
          "velocity": 0.7874015748031497,
          "duration": 0.17647049999999354
        },
        {
          "name": "F#2",
          "midi": 42,
          "time": 193.94107949999537,
          "velocity": 0.7874015748031497,
          "duration": 0.17647049999999354
        },
        {
          "name": "C2",
          "midi": 36,
          "time": 193.94107949999537,
          "velocity": 0.7874015748031497,
          "duration": 0.17647049999999354
        },
        {
          "name": "F#2",
          "midi": 42,
          "time": 194.11754999999536,
          "velocity": 0.7874015748031497,
          "duration": 0.17647049999999354
        },
        {
          "name": "C2",
          "midi": 36,
          "time": 194.29402049999536,
          "velocity": 0.7874015748031497,
          "duration": 0.17647049999999354
        },
        {
          "name": "F#2",
          "midi": 42,
          "time": 194.29402049999536,
          "velocity": 0.7874015748031497,
          "duration": 0.17647049999999354
        },
        {
          "name": "E2",
          "midi": 40,
          "time": 194.47049099999535,
          "velocity": 0.7874015748031497,
          "duration": 0.17647049999999354
        },
        {
          "name": "F#2",
          "midi": 42,
          "time": 194.47049099999535,
          "velocity": 0.7874015748031497,
          "duration": 0.17647049999999354
        },
        {
          "name": "F#2",
          "midi": 42,
          "time": 194.64696149999534,
          "velocity": 0.7874015748031497,
          "duration": 0.17647049999999354
        },
        {
          "name": "E2",
          "midi": 40,
          "time": 194.64696149999534,
          "velocity": 0.7874015748031497,
          "duration": 0.17647049999999354
        },
        {
          "name": "E2",
          "midi": 40,
          "time": 194.82343199999534,
          "velocity": 0.7874015748031497,
          "duration": 0.17647049999999354
        },
        {
          "name": "F#2",
          "midi": 42,
          "time": 194.82343199999534,
          "velocity": 0.7874015748031497,
          "duration": 0.17647049999999354
        },
        {
          "name": "F#2",
          "midi": 42,
          "time": 194.99990249999533,
          "velocity": 0.7874015748031497,
          "duration": 0.17647049999999354
        },
        {
          "name": "C2",
          "midi": 36,
          "time": 194.99990249999533,
          "velocity": 0.7874015748031497,
          "duration": 0.17647049999999354
        },
        {
          "name": "E2",
          "midi": 40,
          "time": 195.17637299999532,
          "velocity": 0.7874015748031497,
          "duration": 0.17647049999999354
        },
        {
          "name": "F#2",
          "midi": 42,
          "time": 195.17637299999532,
          "velocity": 0.7874015748031497,
          "duration": 0.17647049999999354
        },
        {
          "name": "F#2",
          "midi": 42,
          "time": 195.35284349999532,
          "velocity": 0.7874015748031497,
          "duration": 0.17647049999999354
        },
        {
          "name": "C2",
          "midi": 36,
          "time": 195.5293139999953,
          "velocity": 0.7874015748031497,
          "duration": 0.17647049999999354
        },
        {
          "name": "F#2",
          "midi": 42,
          "time": 195.5293139999953,
          "velocity": 0.7874015748031497,
          "duration": 0.17647049999999354
        },
        {
          "name": "C2",
          "midi": 36,
          "time": 195.7057844999953,
          "velocity": 0.7874015748031497,
          "duration": 0.17647049999999354
        },
        {
          "name": "F#2",
          "midi": 42,
          "time": 195.7057844999953,
          "velocity": 0.7874015748031497,
          "duration": 0.17647049999999354
        },
        {
          "name": "E2",
          "midi": 40,
          "time": 195.8822549999953,
          "velocity": 0.7874015748031497,
          "duration": 0.17647049999999354
        },
        {
          "name": "F#2",
          "midi": 42,
          "time": 195.8822549999953,
          "velocity": 0.7874015748031497,
          "duration": 0.17647049999999354
        },
        {
          "name": "F#2",
          "midi": 42,
          "time": 196.0587254999953,
          "velocity": 0.7874015748031497,
          "duration": 0.17647049999999354
        },
        {
          "name": "F#2",
          "midi": 42,
          "time": 196.23519599999528,
          "velocity": 0.7874015748031497,
          "duration": 0.17647049999999354
        },
        {
          "name": "C2",
          "midi": 36,
          "time": 196.23519599999528,
          "velocity": 0.7874015748031497,
          "duration": 0.17647049999999354
        },
        {
          "name": "F#2",
          "midi": 42,
          "time": 196.41166649999528,
          "velocity": 0.7874015748031497,
          "duration": 0.17647049999999354
        },
        {
          "name": "C2",
          "midi": 36,
          "time": 196.41166649999528,
          "velocity": 0.7874015748031497,
          "duration": 0.17647049999999354
        },
        {
          "name": "F#2",
          "midi": 42,
          "time": 196.58813699999527,
          "velocity": 0.7874015748031497,
          "duration": 0.17647049999999354
        },
        {
          "name": "E2",
          "midi": 40,
          "time": 196.58813699999527,
          "velocity": 0.7874015748031497,
          "duration": 0.17647049999999354
        },
        {
          "name": "F#2",
          "midi": 42,
          "time": 196.76460749999526,
          "velocity": 0.7874015748031497,
          "duration": 0.17647049999999354
        },
        {
          "name": "C2",
          "midi": 36,
          "time": 196.76460749999526,
          "velocity": 0.7874015748031497,
          "duration": 0.17647049999999354
        },
        {
          "name": "F#2",
          "midi": 42,
          "time": 196.94107799999526,
          "velocity": 0.7874015748031497,
          "duration": 0.17647049999999354
        },
        {
          "name": "C2",
          "midi": 36,
          "time": 197.11754849999525,
          "velocity": 0.7874015748031497,
          "duration": 0.17647049999999354
        },
        {
          "name": "F#2",
          "midi": 42,
          "time": 197.11754849999525,
          "velocity": 0.7874015748031497,
          "duration": 0.17647049999999354
        },
        {
          "name": "E2",
          "midi": 40,
          "time": 197.29401899999525,
          "velocity": 0.7874015748031497,
          "duration": 0.17647049999999354
        },
        {
          "name": "F#2",
          "midi": 42,
          "time": 197.29401899999525,
          "velocity": 0.7874015748031497,
          "duration": 0.17647049999999354
        },
        {
          "name": "F#2",
          "midi": 42,
          "time": 197.47048949999524,
          "velocity": 0.7874015748031497,
          "duration": 0.17647049999999354
        },
        {
          "name": "E2",
          "midi": 40,
          "time": 197.47048949999524,
          "velocity": 0.7874015748031497,
          "duration": 0.17647049999999354
        },
        {
          "name": "F#2",
          "midi": 42,
          "time": 197.64695999999523,
          "velocity": 0.7874015748031497,
          "duration": 0.17647049999999354
        },
        {
          "name": "E2",
          "midi": 40,
          "time": 197.64695999999523,
          "velocity": 0.7874015748031497,
          "duration": 0.17647049999999354
        },
        {
          "name": "F#2",
          "midi": 42,
          "time": 197.82343049999523,
          "velocity": 0.7874015748031497,
          "duration": 0.17647049999999354
        },
        {
          "name": "E2",
          "midi": 40,
          "time": 197.82343049999523,
          "velocity": 0.7874015748031497,
          "duration": 0.17647049999999354
        },
        {
          "name": "F#2",
          "midi": 42,
          "time": 198.1763714999952,
          "velocity": 0.7874015748031497,
          "duration": 0.17647049999999354
        },
        {
          "name": "E2",
          "midi": 40,
          "time": 198.1763714999952,
          "velocity": 0.7874015748031497,
          "duration": 0.17647049999999354
        },
        {
          "name": "F#2",
          "midi": 42,
          "time": 198.5293124999952,
          "velocity": 0.7874015748031497,
          "duration": 0.17647049999999354
        },
        {
          "name": "E2",
          "midi": 40,
          "time": 198.5293124999952,
          "velocity": 0.7874015748031497,
          "duration": 0.17647049999999354
        },
        {
          "name": "F#2",
          "midi": 42,
          "time": 198.8822534999952,
          "velocity": 0.7874015748031497,
          "duration": 0.17647049999999354
        },
        {
          "name": "E2",
          "midi": 40,
          "time": 198.8822534999952,
          "velocity": 0.7874015748031497,
          "duration": 0.17647049999999354
        },
        {
          "name": "F#2",
          "midi": 42,
          "time": 199.23519449999517,
          "velocity": 0.7874015748031497,
          "duration": 0.17647049999999354
        },
        {
          "name": "E2",
          "midi": 40,
          "time": 199.23519449999517,
          "velocity": 0.7874015748031497,
          "duration": 0.17647049999999354
        },
        {
          "name": "A2",
          "midi": 45,
          "time": 199.58813549999516,
          "velocity": 0.7874015748031497,
          "duration": 0.17647049999999354
        },
        {
          "name": "G2",
          "midi": 43,
          "time": 199.58813549999516,
          "velocity": 0.7874015748031497,
          "duration": 0.17647049999999354
        },
        {
          "name": "A2",
          "midi": 45,
          "time": 199.76460599999515,
          "velocity": 0.7874015748031497,
          "duration": 0.17647049999999354
        },
        {
          "name": "G2",
          "midi": 43,
          "time": 199.76460599999515,
          "velocity": 0.7874015748031497,
          "duration": 0.17647049999999354
        },
        {
          "name": "B2",
          "midi": 47,
          "time": 199.94107649999515,
          "velocity": 0.7874015748031497,
          "duration": 0.17647049999999354
        },
        {
          "name": "A2",
          "midi": 45,
          "time": 199.94107649999515,
          "velocity": 0.7874015748031497,
          "duration": 0.17647049999999354
        },
        {
          "name": "B2",
          "midi": 47,
          "time": 200.11754699999514,
          "velocity": 0.7874015748031497,
          "duration": 0.17647049999999354
        },
        {
          "name": "A2",
          "midi": 45,
          "time": 200.11754699999514,
          "velocity": 0.7874015748031497,
          "duration": 0.17647049999999354
        },
        {
          "name": "F#2",
          "midi": 42,
          "time": 200.47048799999513,
          "velocity": 0.7874015748031497,
          "duration": 0.17647049999999354
        },
        {
          "name": "E2",
          "midi": 40,
          "time": 200.47048799999513,
          "velocity": 0.7874015748031497,
          "duration": 0.17647049999999354
        },
        {
          "name": "F#2",
          "midi": 42,
          "time": 200.64695849999512,
          "velocity": 0.7874015748031497,
          "duration": 0.17647049999999354
        },
        {
          "name": "E2",
          "midi": 40,
          "time": 200.64695849999512,
          "velocity": 0.7874015748031497,
          "duration": 0.17647049999999354
        },
        {
          "name": "F#2",
          "midi": 42,
          "time": 200.9998994999951,
          "velocity": 0.7874015748031497,
          "duration": 0.17647049999999354
        },
        {
          "name": "E2",
          "midi": 40,
          "time": 200.9998994999951,
          "velocity": 0.7874015748031497,
          "duration": 0.17647049999999354
        },
        {
          "name": "F#2",
          "midi": 42,
          "time": 201.3528404999951,
          "velocity": 0.7874015748031497,
          "duration": 0.17647049999999354
        },
        {
          "name": "E2",
          "midi": 40,
          "time": 201.3528404999951,
          "velocity": 0.7874015748031497,
          "duration": 0.17647049999999354
        },
        {
          "name": "F#2",
          "midi": 42,
          "time": 201.70578149999508,
          "velocity": 0.7874015748031497,
          "duration": 0.17647049999999354
        },
        {
          "name": "E2",
          "midi": 40,
          "time": 201.70578149999508,
          "velocity": 0.7874015748031497,
          "duration": 0.17647049999999354
        },
        {
          "name": "F#2",
          "midi": 42,
          "time": 202.05872249999507,
          "velocity": 0.7874015748031497,
          "duration": 0.17647049999999354
        },
        {
          "name": "E2",
          "midi": 40,
          "time": 202.05872249999507,
          "velocity": 0.7874015748031497,
          "duration": 0.17647049999999354
        },
        {
          "name": "A2",
          "midi": 45,
          "time": 202.41166349999506,
          "velocity": 0.7874015748031497,
          "duration": 0.17647049999999354
        },
        {
          "name": "G2",
          "midi": 43,
          "time": 202.41166349999506,
          "velocity": 0.7874015748031497,
          "duration": 0.17647049999999354
        },
        {
          "name": "A2",
          "midi": 45,
          "time": 202.58813399999505,
          "velocity": 0.7874015748031497,
          "duration": 0.17647049999999354
        },
        {
          "name": "G2",
          "midi": 43,
          "time": 202.58813399999505,
          "velocity": 0.7874015748031497,
          "duration": 0.17647049999999354
        },
        {
          "name": "B2",
          "midi": 47,
          "time": 202.76460449999504,
          "velocity": 0.7874015748031497,
          "duration": 0.17647049999999354
        },
        {
          "name": "A2",
          "midi": 45,
          "time": 202.76460449999504,
          "velocity": 0.7874015748031497,
          "duration": 0.17647049999999354
        },
        {
          "name": "B2",
          "midi": 47,
          "time": 202.94107499999504,
          "velocity": 0.7874015748031497,
          "duration": 0.17647049999999354
        },
        {
          "name": "A2",
          "midi": 45,
          "time": 202.94107499999504,
          "velocity": 0.7874015748031497,
          "duration": 0.17647049999999354
        },
        {
          "name": "C2",
          "midi": 36,
          "time": 203.29401599999503,
          "velocity": 0.7874015748031497,
          "duration": 0.35294099999998707
        },
        {
          "name": "C#3",
          "midi": 49,
          "time": 203.29401599999503,
          "velocity": 0.7874015748031497,
          "duration": 0.17647049999999354
        },
        {
          "name": "C2",
          "midi": 36,
          "time": 203.646956999995,
          "velocity": 0.7874015748031497,
          "duration": 0.35294099999998707
        },
        {
          "name": "A3",
          "midi": 57,
          "time": 203.646956999995,
          "velocity": 0.7874015748031497,
          "duration": 0.17647049999999354
        },
        {
          "name": "E2",
          "midi": 40,
          "time": 203.999897999995,
          "velocity": 0.7874015748031497,
          "duration": 0.08823524999999677
        },
        {
          "name": "G3",
          "midi": 55,
          "time": 203.999897999995,
          "velocity": 0.7874015748031497,
          "duration": 0.17647049999999354
        },
        {
          "name": "G3",
          "midi": 55,
          "time": 204.352838999995,
          "velocity": 0.7874015748031497,
          "duration": 0.17647049999999354
        },
        {
          "name": "C2",
          "midi": 36,
          "time": 204.70577999999497,
          "velocity": 0.7874015748031497,
          "duration": 0.08823524999999677
        },
        {
          "name": "G3",
          "midi": 55,
          "time": 204.70577999999497,
          "velocity": 0.7874015748031497,
          "duration": 0.17647049999999354
        },
        {
          "name": "E2",
          "midi": 40,
          "time": 204.88225049999497,
          "velocity": 0.7874015748031497,
          "duration": 0.08823524999999677
        },
        {
          "name": "G3",
          "midi": 55,
          "time": 205.05872099999496,
          "velocity": 0.7874015748031497,
          "duration": 0.17647049999999354
        },
        {
          "name": "C2",
          "midi": 36,
          "time": 205.23519149999495,
          "velocity": 0.7874015748031497,
          "duration": 0.35294099999998707
        },
        {
          "name": "E2",
          "midi": 40,
          "time": 205.41166199999495,
          "velocity": 0.7874015748031497,
          "duration": 0.35294099999998707
        },
        {
          "name": "G3",
          "midi": 55,
          "time": 205.41166199999495,
          "velocity": 0.7874015748031497,
          "duration": 0.17647049999999354
        },
        {
          "name": "G3",
          "midi": 55,
          "time": 205.76460299999493,
          "velocity": 0.7874015748031497,
          "duration": 0.17647049999999354
        },
        {
          "name": "E2",
          "midi": 40,
          "time": 205.94107349999493,
          "velocity": 0.7874015748031497,
          "duration": 0.35294099999998707
        },
        {
          "name": "C2",
          "midi": 36,
          "time": 206.11754399999492,
          "velocity": 0.7874015748031497,
          "duration": 0.35294099999998707
        },
        {
          "name": "C#3",
          "midi": 49,
          "time": 206.11754399999492,
          "velocity": 0.7874015748031497,
          "duration": 0.17647049999999354
        },
        {
          "name": "C2",
          "midi": 36,
          "time": 206.4704849999949,
          "velocity": 0.7874015748031497,
          "duration": 0.35294099999998707
        },
        {
          "name": "A3",
          "midi": 57,
          "time": 206.4704849999949,
          "velocity": 0.7874015748031497,
          "duration": 0.17647049999999354
        },
        {
          "name": "E2",
          "midi": 40,
          "time": 206.8234259999949,
          "velocity": 0.7874015748031497,
          "duration": 0.08823524999999677
        },
        {
          "name": "G3",
          "midi": 55,
          "time": 206.8234259999949,
          "velocity": 0.7874015748031497,
          "duration": 0.17647049999999354
        },
        {
          "name": "G3",
          "midi": 55,
          "time": 207.17636699999488,
          "velocity": 0.7874015748031497,
          "duration": 0.17647049999999354
        },
        {
          "name": "G3",
          "midi": 55,
          "time": 207.52930799999487,
          "velocity": 0.7874015748031497,
          "duration": 0.17647049999999354
        },
        {
          "name": "C2",
          "midi": 36,
          "time": 207.52930799999487,
          "velocity": 0.7874015748031497,
          "duration": 0.08823524999999677
        },
        {
          "name": "E2",
          "midi": 40,
          "time": 207.70577849999486,
          "velocity": 0.7874015748031497,
          "duration": 0.08823524999999677
        },
        {
          "name": "E2",
          "midi": 40,
          "time": 207.82342549999487,
          "velocity": 0.7874015748031497,
          "duration": 0.17647049999999354
        },
        {
          "name": "G3",
          "midi": 55,
          "time": 207.88224899999486,
          "velocity": 0.7874015748031497,
          "duration": 0.17647049999999354
        },
        {
          "name": "E2",
          "midi": 40,
          "time": 207.88224899999486,
          "velocity": 0.7874015748031497,
          "duration": 0.17647049999999354
        },
        {
          "name": "E2",
          "midi": 40,
          "time": 208.05871949999485,
          "velocity": 0.7874015748031497,
          "duration": 0.35294099999998707
        },
        {
          "name": "G3",
          "midi": 55,
          "time": 208.23518999999484,
          "velocity": 0.7874015748031497,
          "duration": 0.17647049999999354
        },
        {
          "name": "E2",
          "midi": 40,
          "time": 208.23518999999484,
          "velocity": 0.7874015748031497,
          "duration": 0.35294099999998707
        },
        {
          "name": "E2",
          "midi": 40,
          "time": 208.41166049999484,
          "velocity": 0.7874015748031497,
          "duration": 0.17647049999999354
        },
        {
          "name": "G3",
          "midi": 55,
          "time": 208.58813099999483,
          "velocity": 0.7874015748031497,
          "duration": 0.17647049999999354
        },
        {
          "name": "E2",
          "midi": 40,
          "time": 208.58813099999483,
          "velocity": 0.7874015748031497,
          "duration": 0.35294099999998707
        },
        {
          "name": "C2",
          "midi": 36,
          "time": 208.94107199999482,
          "velocity": 0.7874015748031497,
          "duration": 0.35294099999998707
        },
        {
          "name": "C#3",
          "midi": 49,
          "time": 208.94107199999482,
          "velocity": 0.7874015748031497,
          "duration": 0.17647049999999354
        },
        {
          "name": "C2",
          "midi": 36,
          "time": 209.2940129999948,
          "velocity": 0.7874015748031497,
          "duration": 0.35294099999998707
        },
        {
          "name": "A3",
          "midi": 57,
          "time": 209.2940129999948,
          "velocity": 0.7874015748031497,
          "duration": 0.17647049999999354
        },
        {
          "name": "E2",
          "midi": 40,
          "time": 209.6469539999948,
          "velocity": 0.7874015748031497,
          "duration": 0.08823524999999677
        },
        {
          "name": "G3",
          "midi": 55,
          "time": 209.6469539999948,
          "velocity": 0.7874015748031497,
          "duration": 0.17647049999999354
        },
        {
          "name": "G3",
          "midi": 55,
          "time": 209.99989499999478,
          "velocity": 0.7874015748031497,
          "duration": 0.17647049999999354
        },
        {
          "name": "C2",
          "midi": 36,
          "time": 210.35283599999477,
          "velocity": 0.7874015748031497,
          "duration": 0.08823524999999677
        },
        {
          "name": "G3",
          "midi": 55,
          "time": 210.35283599999477,
          "velocity": 0.7874015748031497,
          "duration": 0.17647049999999354
        },
        {
          "name": "E2",
          "midi": 40,
          "time": 210.52930649999476,
          "velocity": 0.7874015748031497,
          "duration": 0.08823524999999677
        },
        {
          "name": "G3",
          "midi": 55,
          "time": 210.70577699999475,
          "velocity": 0.7874015748031497,
          "duration": 0.17647049999999354
        },
        {
          "name": "C2",
          "midi": 36,
          "time": 210.88224749999475,
          "velocity": 0.7874015748031497,
          "duration": 0.35294099999998707
        },
        {
          "name": "E2",
          "midi": 40,
          "time": 211.05871799999474,
          "velocity": 0.7874015748031497,
          "duration": 0.35294099999998707
        },
        {
          "name": "G3",
          "midi": 55,
          "time": 211.05871799999474,
          "velocity": 0.7874015748031497,
          "duration": 0.17647049999999354
        },
        {
          "name": "G3",
          "midi": 55,
          "time": 211.41165899999473,
          "velocity": 0.7874015748031497,
          "duration": 0.17647049999999354
        },
        {
          "name": "E2",
          "midi": 40,
          "time": 211.58812949999472,
          "velocity": 0.7874015748031497,
          "duration": 0.35294099999998707
        },
        {
          "name": "C2",
          "midi": 36,
          "time": 211.76459999999472,
          "velocity": 0.7874015748031497,
          "duration": 0.35294099999998707
        },
        {
          "name": "C#3",
          "midi": 49,
          "time": 211.76459999999472,
          "velocity": 0.7874015748031497,
          "duration": 0.17647049999999354
        },
        {
          "name": "C2",
          "midi": 36,
          "time": 212.1175409999947,
          "velocity": 0.7874015748031497,
          "duration": 0.35294099999998707
        },
        {
          "name": "A3",
          "midi": 57,
          "time": 212.1175409999947,
          "velocity": 0.7874015748031497,
          "duration": 0.17647049999999354
        },
        {
          "name": "E2",
          "midi": 40,
          "time": 212.4704819999947,
          "velocity": 0.7874015748031497,
          "duration": 0.08823524999999677
        },
        {
          "name": "G3",
          "midi": 55,
          "time": 212.4704819999947,
          "velocity": 0.7874015748031497,
          "duration": 0.17647049999999354
        },
        {
          "name": "G3",
          "midi": 55,
          "time": 212.82342299999468,
          "velocity": 0.7874015748031497,
          "duration": 0.17647049999999354
        },
        {
          "name": "G3",
          "midi": 55,
          "time": 213.17636399999466,
          "velocity": 0.7874015748031497,
          "duration": 0.17647049999999354
        },
        {
          "name": "C2",
          "midi": 36,
          "time": 213.17636399999466,
          "velocity": 0.7874015748031497,
          "duration": 0.08823524999999677
        },
        {
          "name": "E2",
          "midi": 40,
          "time": 213.35283449999466,
          "velocity": 0.7874015748031497,
          "duration": 0.08823524999999677
        },
        {
          "name": "G3",
          "midi": 55,
          "time": 213.52930499999465,
          "velocity": 0.7874015748031497,
          "duration": 0.17647049999999354
        },
        {
          "name": "C2",
          "midi": 36,
          "time": 213.70577549999464,
          "velocity": 0.7874015748031497,
          "duration": 0.35294099999998707
        },
        {
          "name": "G3",
          "midi": 55,
          "time": 213.88224599999464,
          "velocity": 0.7874015748031497,
          "duration": 0.17647049999999354
        },
        {
          "name": "E2",
          "midi": 40,
          "time": 213.88224599999464,
          "velocity": 0.7874015748031497,
          "duration": 0.35294099999998707
        },
        {
          "name": "G3",
          "midi": 55,
          "time": 214.23518699999462,
          "velocity": 0.7874015748031497,
          "duration": 0.17647049999999354
        },
        {
          "name": "E2",
          "midi": 40,
          "time": 214.41165749999462,
          "velocity": 0.7874015748031497,
          "duration": 0.35294099999998707
        },
        {
          "name": "C2",
          "midi": 36,
          "time": 214.5881279999946,
          "velocity": 0.7874015748031497,
          "duration": 0.7058819999999741
        },
        {
          "name": "C#3",
          "midi": 49,
          "time": 214.5881279999946,
          "velocity": 0.7874015748031497,
          "duration": 0.17647049999999354
        },
        {
          "name": "F#2",
          "midi": 42,
          "time": 214.9410689999946,
          "velocity": 0.7874015748031497,
          "duration": 0.17647049999999354
        },
        {
          "name": "E2",
          "midi": 40,
          "time": 215.29400999999459,
          "velocity": 0.7874015748031497,
          "duration": 0.7058819999999741
        },
        {
          "name": "A3",
          "midi": 57,
          "time": 215.29400999999459,
          "velocity": 0.7874015748031497,
          "duration": 0.17647049999999354
        },
        {
          "name": "F#2",
          "midi": 42,
          "time": 215.64695099999457,
          "velocity": 0.7874015748031497,
          "duration": 0.17647049999999354
        },
        {
          "name": "C2",
          "midi": 36,
          "time": 215.99989199999456,
          "velocity": 0.7874015748031497,
          "duration": 0.35294099999998707
        },
        {
          "name": "F#2",
          "midi": 42,
          "time": 215.99989199999456,
          "velocity": 0.7874015748031497,
          "duration": 0.17647049999999354
        },
        {
          "name": "C2",
          "midi": 36,
          "time": 216.35283299999455,
          "velocity": 0.7874015748031497,
          "duration": 0.35294099999998707
        },
        {
          "name": "F#2",
          "midi": 42,
          "time": 216.35283299999455,
          "velocity": 0.7874015748031497,
          "duration": 0.17647049999999354
        },
        {
          "name": "E2",
          "midi": 40,
          "time": 216.70577399999453,
          "velocity": 0.7874015748031497,
          "duration": 0.7058819999999741
        },
        {
          "name": "F#2",
          "midi": 42,
          "time": 216.70577399999453,
          "velocity": 0.7874015748031497,
          "duration": 0.17647049999999354
        },
        {
          "name": "F#2",
          "midi": 42,
          "time": 217.05871499999452,
          "velocity": 0.7874015748031497,
          "duration": 0.17647049999999354
        },
        {
          "name": "C2",
          "midi": 36,
          "time": 217.4116559999945,
          "velocity": 0.7874015748031497,
          "duration": 0.17647049999999354
        },
        {
          "name": "F#2",
          "midi": 42,
          "time": 217.4116559999945,
          "velocity": 0.7874015748031497,
          "duration": 0.17647049999999354
        },
        {
          "name": "E2",
          "midi": 40,
          "time": 217.5881264999945,
          "velocity": 0.7874015748031497,
          "duration": 0.17647049999999354
        },
        {
          "name": "C2",
          "midi": 36,
          "time": 217.7645969999945,
          "velocity": 0.7874015748031497,
          "duration": 0.17647049999999354
        },
        {
          "name": "F#2",
          "midi": 42,
          "time": 217.7645969999945,
          "velocity": 0.7874015748031497,
          "duration": 0.17647049999999354
        },
        {
          "name": "C2",
          "midi": 36,
          "time": 217.9410674999945,
          "velocity": 0.7874015748031497,
          "duration": 0.17647049999999354
        },
        {
          "name": "E2",
          "midi": 40,
          "time": 218.11753799999448,
          "velocity": 0.7874015748031497,
          "duration": 0.17647049999999354
        },
        {
          "name": "F#2",
          "midi": 42,
          "time": 218.11753799999448,
          "velocity": 0.7874015748031497,
          "duration": 0.17647049999999354
        },
        {
          "name": "C2",
          "midi": 36,
          "time": 218.29400849999448,
          "velocity": 0.7874015748031497,
          "duration": 0.17647049999999354
        },
        {
          "name": "E2",
          "midi": 40,
          "time": 218.47047899999447,
          "velocity": 0.7874015748031497,
          "duration": 0.34411747499999024
        },
        {
          "name": "F#2",
          "midi": 42,
          "time": 218.47047899999447,
          "velocity": 0.7874015748031497,
          "duration": 0.17647049999999354
        },
        {
          "name": "C2",
          "midi": 36,
          "time": 218.82341999999446,
          "velocity": 0.7874015748031497,
          "duration": 0.35294099999998707
        },
        {
          "name": "F#2",
          "midi": 42,
          "time": 218.82341999999446,
          "velocity": 0.7874015748031497,
          "duration": 0.17647049999999354
        },
        {
          "name": "C2",
          "midi": 36,
          "time": 219.17636099999444,
          "velocity": 0.7874015748031497,
          "duration": 0.35294099999998707
        },
        {
          "name": "F#2",
          "midi": 42,
          "time": 219.17636099999444,
          "velocity": 0.7874015748031497,
          "duration": 0.17647049999999354
        },
        {
          "name": "E2",
          "midi": 40,
          "time": 219.52930199999443,
          "velocity": 0.7874015748031497,
          "duration": 0.7058819999999741
        },
        {
          "name": "A3",
          "midi": 57,
          "time": 219.52930199999443,
          "velocity": 0.7874015748031497,
          "duration": 0.17647049999999354
        },
        {
          "name": "F#2",
          "midi": 42,
          "time": 219.88224299999442,
          "velocity": 0.7874015748031497,
          "duration": 0.17647049999999354
        },
        {
          "name": "C2",
          "midi": 36,
          "time": 220.2351839999944,
          "velocity": 0.7874015748031497,
          "duration": 0.7058819999999741
        },
        {
          "name": "C#3",
          "midi": 49,
          "time": 220.2351839999944,
          "velocity": 0.7874015748031497,
          "duration": 0.17647049999999354
        },
        {
          "name": "F#2",
          "midi": 42,
          "time": 220.5881249999944,
          "velocity": 0.7874015748031497,
          "duration": 0.17647049999999354
        },
        {
          "name": "E2",
          "midi": 40,
          "time": 220.94106599999438,
          "velocity": 0.7874015748031497,
          "duration": 0.7058819999999741
        },
        {
          "name": "A3",
          "midi": 57,
          "time": 220.94106599999438,
          "velocity": 0.7874015748031497,
          "duration": 0.17647049999999354
        },
        {
          "name": "F#2",
          "midi": 42,
          "time": 221.29400699999437,
          "velocity": 0.7874015748031497,
          "duration": 0.17647049999999354
        },
        {
          "name": "C2",
          "midi": 36,
          "time": 221.64694799999435,
          "velocity": 0.7874015748031497,
          "duration": 0.35294099999998707
        },
        {
          "name": "F#2",
          "midi": 42,
          "time": 221.64694799999435,
          "velocity": 0.7874015748031497,
          "duration": 0.17647049999999354
        },
        {
          "name": "C2",
          "midi": 36,
          "time": 221.99988899999434,
          "velocity": 0.7874015748031497,
          "duration": 0.35294099999998707
        },
        {
          "name": "F#2",
          "midi": 42,
          "time": 221.99988899999434,
          "velocity": 0.7874015748031497,
          "duration": 0.17647049999999354
        },
        {
          "name": "E2",
          "midi": 40,
          "time": 222.35282999999433,
          "velocity": 0.7874015748031497,
          "duration": 0.7058819999999741
        },
        {
          "name": "F#2",
          "midi": 42,
          "time": 222.35282999999433,
          "velocity": 0.7874015748031497,
          "duration": 0.17647049999999354
        },
        {
          "name": "F#2",
          "midi": 42,
          "time": 222.70577099999431,
          "velocity": 0.7874015748031497,
          "duration": 0.17647049999999354
        },
        {
          "name": "C2",
          "midi": 36,
          "time": 223.0587119999943,
          "velocity": 0.7874015748031497,
          "duration": 0.17647049999999354
        },
        {
          "name": "F#2",
          "midi": 42,
          "time": 223.0587119999943,
          "velocity": 0.7874015748031497,
          "duration": 0.17647049999999354
        },
        {
          "name": "E2",
          "midi": 40,
          "time": 223.2351824999943,
          "velocity": 0.7874015748031497,
          "duration": 0.17647049999999354
        },
        {
          "name": "C2",
          "midi": 36,
          "time": 223.4116529999943,
          "velocity": 0.7874015748031497,
          "duration": 0.17647049999999354
        },
        {
          "name": "F#2",
          "midi": 42,
          "time": 223.4116529999943,
          "velocity": 0.7874015748031497,
          "duration": 0.17647049999999354
        },
        {
          "name": "C2",
          "midi": 36,
          "time": 223.58812349999428,
          "velocity": 0.7874015748031497,
          "duration": 0.17647049999999354
        },
        {
          "name": "E2",
          "midi": 40,
          "time": 223.76459399999428,
          "velocity": 0.7874015748031497,
          "duration": 0.17647049999999354
        },
        {
          "name": "F#2",
          "midi": 42,
          "time": 223.76459399999428,
          "velocity": 0.7874015748031497,
          "duration": 0.17647049999999354
        },
        {
          "name": "C2",
          "midi": 36,
          "time": 223.94106449999427,
          "velocity": 0.7874015748031497,
          "duration": 0.17647049999999354
        },
        {
          "name": "E2",
          "midi": 40,
          "time": 224.11753499999426,
          "velocity": 0.7874015748031497,
          "duration": 0.34411747499999024
        },
        {
          "name": "F#2",
          "midi": 42,
          "time": 224.11753499999426,
          "velocity": 0.7874015748031497,
          "duration": 0.17647049999999354
        },
        {
          "name": "C2",
          "midi": 36,
          "time": 224.47047599999425,
          "velocity": 0.7874015748031497,
          "duration": 0.35294099999998707
        },
        {
          "name": "F#2",
          "midi": 42,
          "time": 224.47047599999425,
          "velocity": 0.7874015748031497,
          "duration": 0.17647049999999354
        },
        {
          "name": "C2",
          "midi": 36,
          "time": 224.82341699999424,
          "velocity": 0.7874015748031497,
          "duration": 0.35294099999998707
        },
        {
          "name": "F#2",
          "midi": 42,
          "time": 224.82341699999424,
          "velocity": 0.7874015748031497,
          "duration": 0.17647049999999354
        },
        {
          "name": "E2",
          "midi": 40,
          "time": 225.17635799999422,
          "velocity": 0.7874015748031497,
          "duration": 0.7058819999999741
        },
        {
          "name": "A3",
          "midi": 57,
          "time": 225.17635799999422,
          "velocity": 0.7874015748031497,
          "duration": 0.17647049999999354
        },
        {
          "name": "F#2",
          "midi": 42,
          "time": 225.5292989999942,
          "velocity": 0.7874015748031497,
          "duration": 0.17647049999999354
        },
        {
          "name": "C2",
          "midi": 36,
          "time": 225.8822399999942,
          "velocity": 0.7874015748031497,
          "duration": 0.7058819999999741
        },
        {
          "name": "C#3",
          "midi": 49,
          "time": 225.8822399999942,
          "velocity": 0.7874015748031497,
          "duration": 0.17647049999999354
        },
        {
          "name": "F#2",
          "midi": 42,
          "time": 226.23518099999418,
          "velocity": 0.7874015748031497,
          "duration": 0.17647049999999354
        },
        {
          "name": "E2",
          "midi": 40,
          "time": 226.58812199999417,
          "velocity": 0.7874015748031497,
          "duration": 0.7058819999999741
        },
        {
          "name": "A3",
          "midi": 57,
          "time": 226.58812199999417,
          "velocity": 0.7874015748031497,
          "duration": 0.17647049999999354
        },
        {
          "name": "F#2",
          "midi": 42,
          "time": 226.94106299999416,
          "velocity": 0.7874015748031497,
          "duration": 0.17647049999999354
        },
        {
          "name": "C2",
          "midi": 36,
          "time": 227.29400399999415,
          "velocity": 0.7874015748031497,
          "duration": 0.35294099999998707
        },
        {
          "name": "F#2",
          "midi": 42,
          "time": 227.29400399999415,
          "velocity": 0.7874015748031497,
          "duration": 0.17647049999999354
        },
        {
          "name": "C2",
          "midi": 36,
          "time": 227.64694499999413,
          "velocity": 0.7874015748031497,
          "duration": 0.35294099999998707
        },
        {
          "name": "F#2",
          "midi": 42,
          "time": 227.64694499999413,
          "velocity": 0.7874015748031497,
          "duration": 0.17647049999999354
        },
        {
          "name": "E2",
          "midi": 40,
          "time": 227.99988599999412,
          "velocity": 0.7874015748031497,
          "duration": 0.7058819999999741
        },
        {
          "name": "F#2",
          "midi": 42,
          "time": 227.99988599999412,
          "velocity": 0.7874015748031497,
          "duration": 0.17647049999999354
        },
        {
          "name": "F#2",
          "midi": 42,
          "time": 228.3528269999941,
          "velocity": 0.7874015748031497,
          "duration": 0.17647049999999354
        },
        {
          "name": "C2",
          "midi": 36,
          "time": 228.7057679999941,
          "velocity": 0.7874015748031497,
          "duration": 0.17647049999999354
        },
        {
          "name": "F#2",
          "midi": 42,
          "time": 228.7057679999941,
          "velocity": 0.7874015748031497,
          "duration": 0.17647049999999354
        },
        {
          "name": "E2",
          "midi": 40,
          "time": 228.8822384999941,
          "velocity": 0.7874015748031497,
          "duration": 0.17647049999999354
        },
        {
          "name": "C2",
          "midi": 36,
          "time": 229.05870899999408,
          "velocity": 0.7874015748031497,
          "duration": 0.17647049999999354
        },
        {
          "name": "F#2",
          "midi": 42,
          "time": 229.05870899999408,
          "velocity": 0.7874015748031497,
          "duration": 0.17647049999999354
        },
        {
          "name": "C2",
          "midi": 36,
          "time": 229.23517949999408,
          "velocity": 0.7874015748031497,
          "duration": 0.17647049999999354
        },
        {
          "name": "E2",
          "midi": 40,
          "time": 229.41164999999407,
          "velocity": 0.7874015748031497,
          "duration": 0.17647049999999354
        },
        {
          "name": "F#2",
          "midi": 42,
          "time": 229.41164999999407,
          "velocity": 0.7874015748031497,
          "duration": 0.17647049999999354
        },
        {
          "name": "C2",
          "midi": 36,
          "time": 229.58812049999406,
          "velocity": 0.7874015748031497,
          "duration": 0.17647049999999354
        },
        {
          "name": "E2",
          "midi": 40,
          "time": 229.76459099999406,
          "velocity": 0.7874015748031497,
          "duration": 0.34411747499999024
        },
        {
          "name": "F#2",
          "midi": 42,
          "time": 229.76459099999406,
          "velocity": 0.7874015748031497,
          "duration": 0.17647049999999354
        },
        {
          "name": "C2",
          "midi": 36,
          "time": 230.11753199999404,
          "velocity": 0.7874015748031497,
          "duration": 0.35294099999998707
        },
        {
          "name": "F#2",
          "midi": 42,
          "time": 230.11753199999404,
          "velocity": 0.7874015748031497,
          "duration": 0.17647049999999354
        },
        {
          "name": "C2",
          "midi": 36,
          "time": 230.47047299999403,
          "velocity": 0.7874015748031497,
          "duration": 0.35294099999998707
        },
        {
          "name": "F#2",
          "midi": 42,
          "time": 230.47047299999403,
          "velocity": 0.7874015748031497,
          "duration": 0.17647049999999354
        },
        {
          "name": "E2",
          "midi": 40,
          "time": 230.82341399999402,
          "velocity": 0.7874015748031497,
          "duration": 0.7058819999999741
        },
        {
          "name": "A3",
          "midi": 57,
          "time": 230.82341399999402,
          "velocity": 0.7874015748031497,
          "duration": 0.17647049999999354
        },
        {
          "name": "A#2",
          "midi": 46,
          "time": 231.176354999994,
          "velocity": 0.7874015748031497,
          "duration": 0.17647049999999354
        },
        {
          "name": "C2",
          "midi": 36,
          "time": 231.529295999994,
          "velocity": 0.7874015748031497,
          "duration": 0.7058819999999741
        },
        {
          "name": "C#3",
          "midi": 49,
          "time": 231.529295999994,
          "velocity": 0.7874015748031497,
          "duration": 0.17647049999999354
        },
        {
          "name": "F#2",
          "midi": 42,
          "time": 231.88223699999398,
          "velocity": 0.7874015748031497,
          "duration": 0.17647049999999354
        },
        {
          "name": "E2",
          "midi": 40,
          "time": 232.23517799999397,
          "velocity": 0.7874015748031497,
          "duration": 0.7058819999999741
        },
        {
          "name": "A3",
          "midi": 57,
          "time": 232.23517799999397,
          "velocity": 0.7874015748031497,
          "duration": 0.17647049999999354
        },
        {
          "name": "F#2",
          "midi": 42,
          "time": 232.58811899999395,
          "velocity": 0.7874015748031497,
          "duration": 0.17647049999999354
        },
        {
          "name": "C2",
          "midi": 36,
          "time": 232.94105999999394,
          "velocity": 0.7874015748031497,
          "duration": 0.35294099999998707
        },
        {
          "name": "F#2",
          "midi": 42,
          "time": 232.94105999999394,
          "velocity": 0.7874015748031497,
          "duration": 0.17647049999999354
        },
        {
          "name": "C2",
          "midi": 36,
          "time": 233.29400099999393,
          "velocity": 0.7874015748031497,
          "duration": 0.35294099999998707
        },
        {
          "name": "F#2",
          "midi": 42,
          "time": 233.29400099999393,
          "velocity": 0.7874015748031497,
          "duration": 0.17647049999999354
        },
        {
          "name": "E2",
          "midi": 40,
          "time": 233.6469419999939,
          "velocity": 0.7874015748031497,
          "duration": 0.7058819999999741
        },
        {
          "name": "F#2",
          "midi": 42,
          "time": 233.6469419999939,
          "velocity": 0.7874015748031497,
          "duration": 0.17647049999999354
        },
        {
          "name": "F#2",
          "midi": 42,
          "time": 233.9998829999939,
          "velocity": 0.7874015748031497,
          "duration": 0.17647049999999354
        },
        {
          "name": "C2",
          "midi": 36,
          "time": 234.3528239999939,
          "velocity": 0.7874015748031497,
          "duration": 0.17647049999999354
        },
        {
          "name": "F#2",
          "midi": 42,
          "time": 234.3528239999939,
          "velocity": 0.7874015748031497,
          "duration": 0.17647049999999354
        },
        {
          "name": "E2",
          "midi": 40,
          "time": 234.52929449999388,
          "velocity": 0.7874015748031497,
          "duration": 0.17647049999999354
        },
        {
          "name": "C2",
          "midi": 36,
          "time": 234.70576499999387,
          "velocity": 0.7874015748031497,
          "duration": 0.17647049999999354
        },
        {
          "name": "F#2",
          "midi": 42,
          "time": 234.70576499999387,
          "velocity": 0.7874015748031497,
          "duration": 0.17647049999999354
        },
        {
          "name": "C2",
          "midi": 36,
          "time": 234.88223549999387,
          "velocity": 0.7874015748031497,
          "duration": 0.17647049999999354
        },
        {
          "name": "E2",
          "midi": 40,
          "time": 235.05870599999386,
          "velocity": 0.7874015748031497,
          "duration": 0.17647049999999354
        },
        {
          "name": "F#2",
          "midi": 42,
          "time": 235.05870599999386,
          "velocity": 0.7874015748031497,
          "duration": 0.17647049999999354
        },
        {
          "name": "C2",
          "midi": 36,
          "time": 235.23517649999386,
          "velocity": 0.7874015748031497,
          "duration": 0.17647049999999354
        },
        {
          "name": "E2",
          "midi": 40,
          "time": 235.41164699999385,
          "velocity": 0.7874015748031497,
          "duration": 0.34411747499999024
        },
        {
          "name": "F#2",
          "midi": 42,
          "time": 235.41164699999385,
          "velocity": 0.7874015748031497,
          "duration": 0.17647049999999354
        },
        {
          "name": "F#2",
          "midi": 42,
          "time": 235.76458799999384,
          "velocity": 0.7874015748031497,
          "duration": 0.17647049999999354
        },
        {
          "name": "E2",
          "midi": 40,
          "time": 235.76458799999384,
          "velocity": 0.7874015748031497,
          "duration": 0.35294099999998707
        },
        {
          "name": "C2",
          "midi": 36,
          "time": 235.94105849999383,
          "velocity": 0.7874015748031497,
          "duration": 0.35294099999998707
        },
        {
          "name": "F#2",
          "midi": 42,
          "time": 236.11752899999382,
          "velocity": 0.7874015748031497,
          "duration": 0.17647049999999354
        },
        {
          "name": "E2",
          "midi": 40,
          "time": 236.11752899999382,
          "velocity": 0.7874015748031497,
          "duration": 0.35294099999998707
        },
        {
          "name": "C2",
          "midi": 36,
          "time": 236.29399949999382,
          "velocity": 0.7874015748031497,
          "duration": 0.35294099999998707
        },
        {
          "name": "E2",
          "midi": 40,
          "time": 236.4704699999938,
          "velocity": 0.7874015748031497,
          "duration": 0.7058819999999741
        },
        {
          "name": "F#2",
          "midi": 42,
          "time": 236.4704699999938,
          "velocity": 0.7874015748031497,
          "duration": 0.17647049999999354
        },
        {
          "name": "C2",
          "midi": 36,
          "time": 236.6469404999938,
          "velocity": 0.7874015748031497,
          "duration": 0.35294099999998707
        },
        {
          "name": "A#2",
          "midi": 46,
          "time": 236.8234109999938,
          "velocity": 0.7874015748031497,
          "duration": 0.17647049999999354
        },
        {
          "name": "E2",
          "midi": 40,
          "time": 236.8234109999938,
          "velocity": 0.7874015748031497,
          "duration": 0.35294099999998707
        },
        {
          "name": "C2",
          "midi": 36,
          "time": 237.17635199999378,
          "velocity": 0.7874015748031497,
          "duration": 0.35294099999998707
        },
        {
          "name": "C#3",
          "midi": 49,
          "time": 237.17635199999378,
          "velocity": 0.7874015748031497,
          "duration": 0.17647049999999354
        },
        {
          "name": "C2",
          "midi": 36,
          "time": 237.52929299999377,
          "velocity": 0.7874015748031497,
          "duration": 0.35294099999998707
        },
        {
          "name": "A3",
          "midi": 57,
          "time": 237.52929299999377,
          "velocity": 0.7874015748031497,
          "duration": 0.17647049999999354
        },
        {
          "name": "E2",
          "midi": 40,
          "time": 237.88223399999376,
          "velocity": 0.7874015748031497,
          "duration": 0.08823524999999677
        },
        {
          "name": "G3",
          "midi": 55,
          "time": 237.88223399999376,
          "velocity": 0.7874015748031497,
          "duration": 0.17647049999999354
        },
        {
          "name": "G3",
          "midi": 55,
          "time": 238.23517499999375,
          "velocity": 0.7874015748031497,
          "duration": 0.17647049999999354
        },
        {
          "name": "C2",
          "midi": 36,
          "time": 238.58811599999373,
          "velocity": 0.7874015748031497,
          "duration": 0.08823524999999677
        },
        {
          "name": "G3",
          "midi": 55,
          "time": 238.58811599999373,
          "velocity": 0.7874015748031497,
          "duration": 0.17647049999999354
        },
        {
          "name": "E2",
          "midi": 40,
          "time": 238.76458649999373,
          "velocity": 0.7874015748031497,
          "duration": 0.08823524999999677
        },
        {
          "name": "G3",
          "midi": 55,
          "time": 238.94105699999372,
          "velocity": 0.7874015748031497,
          "duration": 0.17647049999999354
        },
        {
          "name": "C2",
          "midi": 36,
          "time": 239.1175274999937,
          "velocity": 0.7874015748031497,
          "duration": 0.35294099999998707
        },
        {
          "name": "E2",
          "midi": 40,
          "time": 239.2939979999937,
          "velocity": 0.7874015748031497,
          "duration": 0.35294099999998707
        },
        {
          "name": "G3",
          "midi": 55,
          "time": 239.2939979999937,
          "velocity": 0.7874015748031497,
          "duration": 0.17647049999999354
        },
        {
          "name": "G3",
          "midi": 55,
          "time": 239.6469389999937,
          "velocity": 0.7874015748031497,
          "duration": 0.17647049999999354
        },
        {
          "name": "E2",
          "midi": 40,
          "time": 239.8234094999937,
          "velocity": 0.7874015748031497,
          "duration": 0.35294099999998707
        },
        {
          "name": "C2",
          "midi": 36,
          "time": 239.99987999999368,
          "velocity": 0.7874015748031497,
          "duration": 0.35294099999998707
        },
        {
          "name": "G3",
          "midi": 55,
          "time": 239.99987999999368,
          "velocity": 0.7874015748031497,
          "duration": 0.17647049999999354
        },
        {
          "name": "C2",
          "midi": 36,
          "time": 240.35282099999367,
          "velocity": 0.7874015748031497,
          "duration": 0.35294099999998707
        },
        {
          "name": "G3",
          "midi": 55,
          "time": 240.35282099999367,
          "velocity": 0.7874015748031497,
          "duration": 0.17647049999999354
        },
        {
          "name": "E2",
          "midi": 40,
          "time": 240.70576199999365,
          "velocity": 0.7874015748031497,
          "duration": 0.08823524999999677
        },
        {
          "name": "G3",
          "midi": 55,
          "time": 240.70576199999365,
          "velocity": 0.7874015748031497,
          "duration": 0.17647049999999354
        },
        {
          "name": "G3",
          "midi": 55,
          "time": 241.05870299999364,
          "velocity": 0.7874015748031497,
          "duration": 0.17647049999999354
        },
        {
          "name": "C2",
          "midi": 36,
          "time": 241.41164399999363,
          "velocity": 0.7874015748031497,
          "duration": 0.35294099999998707
        },
        {
          "name": "G3",
          "midi": 55,
          "time": 241.41164399999363,
          "velocity": 0.7874015748031497,
          "duration": 0.17647049999999354
        },
        {
          "name": "E2",
          "midi": 40,
          "time": 241.58811449999362,
          "velocity": 0.7874015748031497,
          "duration": 0.2647057499999903
        },
        {
          "name": "E2",
          "midi": 40,
          "time": 241.67634974999362,
          "velocity": 0.7874015748031497,
          "duration": 0.2647057499999903
        },
        {
          "name": "E2",
          "midi": 40,
          "time": 241.76458499999362,
          "velocity": 0.7874015748031497,
          "duration": 0.35294099999998707
        },
        {
          "name": "C2",
          "midi": 36,
          "time": 241.76458499999362,
          "velocity": 0.7874015748031497,
          "duration": 0.35294099999998707
        },
        {
          "name": "G3",
          "midi": 55,
          "time": 241.76458499999362,
          "velocity": 0.7874015748031497,
          "duration": 0.17647049999999354
        },
        {
          "name": "E2",
          "midi": 40,
          "time": 241.8528202499936,
          "velocity": 0.7874015748031497,
          "duration": 0.35294099999998707
        },
        {
          "name": "E2",
          "midi": 40,
          "time": 241.9410554999936,
          "velocity": 0.7874015748031497,
          "duration": 0.35294099999998707
        },
        {
          "name": "E2",
          "midi": 40,
          "time": 242.0292907499936,
          "velocity": 0.7874015748031497,
          "duration": 0.35294099999998707
        },
        {
          "name": "E2",
          "midi": 40,
          "time": 242.1175259999936,
          "velocity": 0.7874015748031497,
          "duration": 0.35294099999998707
        },
        {
          "name": "C2",
          "midi": 36,
          "time": 242.1175259999936,
          "velocity": 0.7874015748031497,
          "duration": 0.35294099999998707
        },
        {
          "name": "G3",
          "midi": 55,
          "time": 242.1175259999936,
          "velocity": 0.7874015748031497,
          "duration": 0.17647049999999354
        },
        {
          "name": "E2",
          "midi": 40,
          "time": 242.2057612499936,
          "velocity": 0.7874015748031497,
          "duration": 0.35294099999998707
        },
        {
          "name": "E2",
          "midi": 40,
          "time": 242.2939964999936,
          "velocity": 0.7874015748031497,
          "duration": 0.2647057499999903
        },
        {
          "name": "E2",
          "midi": 40,
          "time": 242.3822317499936,
          "velocity": 0.7874015748031497,
          "duration": 0.2647057499999903
        },
        {
          "name": "E2",
          "midi": 40,
          "time": 242.4704669999936,
          "velocity": 0.7874015748031497,
          "duration": 0.35294099999998707
        },
        {
          "name": "C2",
          "midi": 36,
          "time": 242.4704669999936,
          "velocity": 0.7874015748031497,
          "duration": 0.35294099999998707
        },
        {
          "name": "G3",
          "midi": 55,
          "time": 242.4704669999936,
          "velocity": 0.7874015748031497,
          "duration": 0.17647049999999354
        },
        {
          "name": "E2",
          "midi": 40,
          "time": 242.5587022499936,
          "velocity": 0.7874015748031497,
          "duration": 0.35294099999998707
        },
        {
          "name": "E2",
          "midi": 40,
          "time": 242.64693749999358,
          "velocity": 0.7874015748031497,
          "duration": 0.35294099999998707
        },
        {
          "name": "E2",
          "midi": 40,
          "time": 242.73517274999358,
          "velocity": 0.7874015748031497,
          "duration": 0.35294099999998707
        },
        {
          "name": "C2",
          "midi": 36,
          "time": 242.82340799999358,
          "velocity": 0.7874015748031497,
          "duration": 0.35294099999998707
        },
        {
          "name": "C#3",
          "midi": 49,
          "time": 242.82340799999358,
          "velocity": 0.7874015748031497,
          "duration": 0.17647049999999354
        },
        {
          "name": "C2",
          "midi": 36,
          "time": 243.17634899999356,
          "velocity": 0.7874015748031497,
          "duration": 0.35294099999998707
        },
        {
          "name": "A3",
          "midi": 57,
          "time": 243.17634899999356,
          "velocity": 0.7874015748031497,
          "duration": 0.17647049999999354
        },
        {
          "name": "E2",
          "midi": 40,
          "time": 243.52928999999355,
          "velocity": 0.7874015748031497,
          "duration": 0.08823524999999677
        },
        {
          "name": "G3",
          "midi": 55,
          "time": 243.52928999999355,
          "velocity": 0.7874015748031497,
          "duration": 0.17647049999999354
        },
        {
          "name": "G3",
          "midi": 55,
          "time": 243.88223099999354,
          "velocity": 0.7874015748031497,
          "duration": 0.17647049999999354
        },
        {
          "name": "C2",
          "midi": 36,
          "time": 244.23517199999353,
          "velocity": 0.7874015748031497,
          "duration": 0.08823524999999677
        },
        {
          "name": "G3",
          "midi": 55,
          "time": 244.23517199999353,
          "velocity": 0.7874015748031497,
          "duration": 0.17647049999999354
        },
        {
          "name": "E2",
          "midi": 40,
          "time": 244.41164249999352,
          "velocity": 0.7874015748031497,
          "duration": 0.08823524999999677
        },
        {
          "name": "G3",
          "midi": 55,
          "time": 244.5881129999935,
          "velocity": 0.7874015748031497,
          "duration": 0.17647049999999354
        },
        {
          "name": "C2",
          "midi": 36,
          "time": 244.7645834999935,
          "velocity": 0.7874015748031497,
          "duration": 0.35294099999998707
        },
        {
          "name": "E2",
          "midi": 40,
          "time": 244.9410539999935,
          "velocity": 0.7874015748031497,
          "duration": 0.35294099999998707
        },
        {
          "name": "G3",
          "midi": 55,
          "time": 244.9410539999935,
          "velocity": 0.7874015748031497,
          "duration": 0.17647049999999354
        },
        {
          "name": "G3",
          "midi": 55,
          "time": 245.2939949999935,
          "velocity": 0.7874015748031497,
          "duration": 0.17647049999999354
        },
        {
          "name": "E2",
          "midi": 40,
          "time": 245.47046549999348,
          "velocity": 0.7874015748031497,
          "duration": 0.35294099999998707
        },
        {
          "name": "C2",
          "midi": 36,
          "time": 245.64693599999347,
          "velocity": 0.7874015748031497,
          "duration": 0.35294099999998707
        },
        {
          "name": "G3",
          "midi": 55,
          "time": 245.64693599999347,
          "velocity": 0.7874015748031497,
          "duration": 0.17647049999999354
        },
        {
          "name": "C2",
          "midi": 36,
          "time": 245.99987699999346,
          "velocity": 0.7874015748031497,
          "duration": 0.35294099999998707
        },
        {
          "name": "G3",
          "midi": 55,
          "time": 245.99987699999346,
          "velocity": 0.7874015748031497,
          "duration": 0.17647049999999354
        },
        {
          "name": "E2",
          "midi": 40,
          "time": 246.35281799999345,
          "velocity": 0.7874015748031497,
          "duration": 0.08823524999999677
        },
        {
          "name": "G3",
          "midi": 55,
          "time": 246.35281799999345,
          "velocity": 0.7874015748031497,
          "duration": 0.17647049999999354
        },
        {
          "name": "G3",
          "midi": 55,
          "time": 246.70575899999344,
          "velocity": 0.7874015748031497,
          "duration": 0.17647049999999354
        },
        {
          "name": "G3",
          "midi": 55,
          "time": 247.05869999999342,
          "velocity": 0.7874015748031497,
          "duration": 0.17647049999999354
        },
        {
          "name": "C2",
          "midi": 36,
          "time": 247.05869999999342,
          "velocity": 0.7874015748031497,
          "duration": 0.08823524999999677
        },
        {
          "name": "E2",
          "midi": 40,
          "time": 247.23517049999342,
          "velocity": 0.7874015748031497,
          "duration": 0.08823524999999677
        },
        {
          "name": "G3",
          "midi": 55,
          "time": 247.4116409999934,
          "velocity": 0.7874015748031497,
          "duration": 0.17647049999999354
        },
        {
          "name": "C2",
          "midi": 36,
          "time": 247.5881114999934,
          "velocity": 0.7874015748031497,
          "duration": 0.35294099999998707
        },
        {
          "name": "G3",
          "midi": 55,
          "time": 247.7645819999934,
          "velocity": 0.7874015748031497,
          "duration": 0.17647049999999354
        },
        {
          "name": "E2",
          "midi": 40,
          "time": 247.7645819999934,
          "velocity": 0.7874015748031497,
          "duration": 0.35294099999998707
        },
        {
          "name": "G3",
          "midi": 55,
          "time": 248.11752299999338,
          "velocity": 0.7874015748031497,
          "duration": 0.17647049999999354
        },
        {
          "name": "E2",
          "midi": 40,
          "time": 248.29399349999338,
          "velocity": 0.7874015748031497,
          "duration": 0.35294099999998707
        },
        {
          "name": "C2",
          "midi": 36,
          "time": 248.47046399999337,
          "velocity": 0.7874015748031497,
          "duration": 0.35294099999998707
        },
        {
          "name": "C#3",
          "midi": 49,
          "time": 248.47046399999337,
          "velocity": 0.7874015748031497,
          "duration": 0.17647049999999354
        },
        {
          "name": "C2",
          "midi": 36,
          "time": 248.82340499999336,
          "velocity": 0.7874015748031497,
          "duration": 0.35294099999998707
        },
        {
          "name": "A3",
          "midi": 57,
          "time": 248.82340499999336,
          "velocity": 0.7874015748031497,
          "duration": 0.17647049999999354
        },
        {
          "name": "E2",
          "midi": 40,
          "time": 249.17634599999334,
          "velocity": 0.7874015748031497,
          "duration": 0.08823524999999677
        },
        {
          "name": "G3",
          "midi": 55,
          "time": 249.17634599999334,
          "velocity": 0.7874015748031497,
          "duration": 0.17647049999999354
        },
        {
          "name": "G3",
          "midi": 55,
          "time": 249.52928699999333,
          "velocity": 0.7874015748031497,
          "duration": 0.17647049999999354
        },
        {
          "name": "C2",
          "midi": 36,
          "time": 249.88222799999332,
          "velocity": 0.7874015748031497,
          "duration": 0.08823524999999677
        },
        {
          "name": "G3",
          "midi": 55,
          "time": 249.88222799999332,
          "velocity": 0.7874015748031497,
          "duration": 0.17647049999999354
        },
        {
          "name": "E2",
          "midi": 40,
          "time": 250.0586984999933,
          "velocity": 0.7874015748031497,
          "duration": 0.08823524999999677
        },
        {
          "name": "G3",
          "midi": 55,
          "time": 250.2351689999933,
          "velocity": 0.7874015748031497,
          "duration": 0.17647049999999354
        },
        {
          "name": "C2",
          "midi": 36,
          "time": 250.4116394999933,
          "velocity": 0.7874015748031497,
          "duration": 0.35294099999998707
        },
        {
          "name": "E2",
          "midi": 40,
          "time": 250.5881099999933,
          "velocity": 0.7874015748031497,
          "duration": 0.35294099999998707
        },
        {
          "name": "G3",
          "midi": 55,
          "time": 250.5881099999933,
          "velocity": 0.7874015748031497,
          "duration": 0.17647049999999354
        },
        {
          "name": "G3",
          "midi": 55,
          "time": 250.94105099999328,
          "velocity": 0.7874015748031497,
          "duration": 0.17647049999999354
        },
        {
          "name": "E2",
          "midi": 40,
          "time": 251.11752149999327,
          "velocity": 0.7874015748031497,
          "duration": 0.35294099999998707
        },
        {
          "name": "C2",
          "midi": 36,
          "time": 251.29399199999327,
          "velocity": 0.7874015748031497,
          "duration": 0.35294099999998707
        },
        {
          "name": "C#3",
          "midi": 49,
          "time": 251.29399199999327,
          "velocity": 0.7874015748031497,
          "duration": 0.17647049999999354
        },
        {
          "name": "C2",
          "midi": 36,
          "time": 251.64693299999325,
          "velocity": 0.7874015748031497,
          "duration": 0.35294099999998707
        },
        {
          "name": "A3",
          "midi": 57,
          "time": 251.64693299999325,
          "velocity": 0.7874015748031497,
          "duration": 0.17647049999999354
        },
        {
          "name": "E2",
          "midi": 40,
          "time": 251.99987399999324,
          "velocity": 0.7874015748031497,
          "duration": 0.08823524999999677
        },
        {
          "name": "C#3",
          "midi": 49,
          "time": 251.99987399999324,
          "velocity": 0.7874015748031497,
          "duration": 0.17647049999999354
        },
        {
          "name": "C2",
          "midi": 36,
          "time": 254.11751999999325,
          "velocity": 0.7874015748031497,
          "duration": 0.17647049999999354
        },
        {
          "name": "F#2",
          "midi": 42,
          "time": 254.11751999999325,
          "velocity": 0.7874015748031497,
          "duration": 0.17647049999999354
        },
        {
          "name": "F#2",
          "midi": 42,
          "time": 254.20575524999325,
          "velocity": 0.7874015748031497,
          "duration": 0.17647049999999354
        },
        {
          "name": "F#2",
          "midi": 42,
          "time": 254.29399049999324,
          "velocity": 0.7874015748031497,
          "duration": 0.17647049999999354
        },
        {
          "name": "F#2",
          "midi": 42,
          "time": 254.38222574999324,
          "velocity": 0.7874015748031497,
          "duration": 0.17647049999999354
        },
        {
          "name": "C2",
          "midi": 36,
          "time": 254.47046099999324,
          "velocity": 0.7874015748031497,
          "duration": 0.17647049999999354
        },
        {
          "name": "F#2",
          "midi": 42,
          "time": 254.47046099999324,
          "velocity": 0.7874015748031497,
          "duration": 0.17647049999999354
        },
        {
          "name": "F#2",
          "midi": 42,
          "time": 254.55869624999323,
          "velocity": 0.7874015748031497,
          "duration": 0.17647049999999354
        },
        {
          "name": "F#2",
          "midi": 42,
          "time": 254.64693149999323,
          "velocity": 0.7874015748031497,
          "duration": 0.17647049999999354
        },
        {
          "name": "F#2",
          "midi": 42,
          "time": 254.73516674999323,
          "velocity": 0.7874015748031497,
          "duration": 0.17647049999999354
        },
        {
          "name": "C2",
          "midi": 36,
          "time": 254.82340199999322,
          "velocity": 0.7874015748031497,
          "duration": 0.17647049999999354
        },
        {
          "name": "F#2",
          "midi": 42,
          "time": 254.82340199999322,
          "velocity": 0.7874015748031497,
          "duration": 0.17647049999999354
        },
        {
          "name": "F#2",
          "midi": 42,
          "time": 254.82340199999322,
          "velocity": 0.7874015748031497,
          "duration": 0.17647049999999354
        },
        {
          "name": "F#2",
          "midi": 42,
          "time": 254.91163724999322,
          "velocity": 0.7874015748031497,
          "duration": 0.17647049999999354
        },
        {
          "name": "F#2",
          "midi": 42,
          "time": 254.99987249999322,
          "velocity": 0.7874015748031497,
          "duration": 0.17647049999999354
        },
        {
          "name": "F#2",
          "midi": 42,
          "time": 255.0881077499932,
          "velocity": 0.7874015748031497,
          "duration": 0.17647049999999354
        },
        {
          "name": "C2",
          "midi": 36,
          "time": 255.1763429999932,
          "velocity": 0.7874015748031497,
          "duration": 0.17647049999999354
        },
        {
          "name": "F#2",
          "midi": 42,
          "time": 255.1763429999932,
          "velocity": 0.7874015748031497,
          "duration": 0.17647049999999354
        },
        {
          "name": "F#2",
          "midi": 42,
          "time": 255.2645782499932,
          "velocity": 0.7874015748031497,
          "duration": 0.17647049999999354
        },
        {
          "name": "F#2",
          "midi": 42,
          "time": 255.3528134999932,
          "velocity": 0.7874015748031497,
          "duration": 0.17647049999999354
        },
        {
          "name": "F#2",
          "midi": 42,
          "time": 255.4410487499932,
          "velocity": 0.7874015748031497,
          "duration": 0.17647049999999354
        },
        {
          "name": "C2",
          "midi": 36,
          "time": 255.5292839999932,
          "velocity": 0.7874015748031497,
          "duration": 0.17647049999999354
        },
        {
          "name": "F#2",
          "midi": 42,
          "time": 255.5292839999932,
          "velocity": 0.7874015748031497,
          "duration": 0.17647049999999354
        },
        {
          "name": "F#2",
          "midi": 42,
          "time": 255.5292839999932,
          "velocity": 0.7874015748031497,
          "duration": 0.17647049999999354
        },
        {
          "name": "F#2",
          "midi": 42,
          "time": 255.6175192499932,
          "velocity": 0.7874015748031497,
          "duration": 0.17647049999999354
        },
        {
          "name": "F#2",
          "midi": 42,
          "time": 255.7057544999932,
          "velocity": 0.7874015748031497,
          "duration": 0.17647049999999354
        },
        {
          "name": "F#2",
          "midi": 42,
          "time": 255.7939897499932,
          "velocity": 0.7874015748031497,
          "duration": 0.17647049999999354
        },
        {
          "name": "C2",
          "midi": 36,
          "time": 255.88222499999318,
          "velocity": 0.7874015748031497,
          "duration": 0.17647049999999354
        },
        {
          "name": "F#2",
          "midi": 42,
          "time": 255.88222499999318,
          "velocity": 0.7874015748031497,
          "duration": 0.17647049999999354
        },
        {
          "name": "F#2",
          "midi": 42,
          "time": 255.97046024999318,
          "velocity": 0.7874015748031497,
          "duration": 0.17647050000002196
        },
        {
          "name": "F#2",
          "midi": 42,
          "time": 256.0586954999932,
          "velocity": 0.7874015748031497,
          "duration": 0.17647050000005038
        },
        {
          "name": "F#2",
          "midi": 42,
          "time": 256.1469307499932,
          "velocity": 0.7874015748031497,
          "duration": 0.17647050000005038
        },
        {
          "name": "C2",
          "midi": 36,
          "time": 256.2351659999932,
          "velocity": 0.7874015748031497,
          "duration": 0.17647050000005038
        },
        {
          "name": "F#2",
          "midi": 42,
          "time": 256.2351659999932,
          "velocity": 0.7874015748031497,
          "duration": 0.17647050000005038
        },
        {
          "name": "F#2",
          "midi": 42,
          "time": 256.2351659999932,
          "velocity": 0.7874015748031497,
          "duration": 0.17647050000005038
        },
        {
          "name": "F#2",
          "midi": 42,
          "time": 256.32340124999325,
          "velocity": 0.7874015748031497,
          "duration": 0.17647050000005038
        },
        {
          "name": "F#2",
          "midi": 42,
          "time": 256.4116364999933,
          "velocity": 0.7874015748031497,
          "duration": 0.17647050000005038
        },
        {
          "name": "F#2",
          "midi": 42,
          "time": 256.4998717499933,
          "velocity": 0.7874015748031497,
          "duration": 0.17647050000005038
        },
        {
          "name": "C2",
          "midi": 36,
          "time": 256.58810699999333,
          "velocity": 0.7874015748031497,
          "duration": 0.17647050000005038
        },
        {
          "name": "F#2",
          "midi": 42,
          "time": 256.58810699999333,
          "velocity": 0.7874015748031497,
          "duration": 0.17647050000005038
        },
        {
          "name": "F#2",
          "midi": 42,
          "time": 256.67634224999335,
          "velocity": 0.7874015748031497,
          "duration": 0.17647050000005038
        },
        {
          "name": "F#2",
          "midi": 42,
          "time": 256.7645774999934,
          "velocity": 0.7874015748031497,
          "duration": 0.17647050000005038
        },
        {
          "name": "F#2",
          "midi": 42,
          "time": 256.8528127499934,
          "velocity": 0.7874015748031497,
          "duration": 0.17647050000005038
        },
        {
          "name": "C2",
          "midi": 36,
          "time": 256.94104799999343,
          "velocity": 0.7874015748031497,
          "duration": 0.17647050000005038
        },
        {
          "name": "F#2",
          "midi": 42,
          "time": 256.94104799999343,
          "velocity": 0.7874015748031497,
          "duration": 0.17647050000005038
        },
        {
          "name": "F#2",
          "midi": 42,
          "time": 257.02928324999345,
          "velocity": 0.7874015748031497,
          "duration": 0.17647050000005038
        },
        {
          "name": "F#2",
          "midi": 42,
          "time": 257.1175184999935,
          "velocity": 0.7874015748031497,
          "duration": 0.17647050000005038
        },
        {
          "name": "F#2",
          "midi": 42,
          "time": 257.2057537499935,
          "velocity": 0.7874015748031497,
          "duration": 0.17647050000005038
        },
        {
          "name": "C2",
          "midi": 36,
          "time": 257.29398899999353,
          "velocity": 0.7874015748031497,
          "duration": 0.17647050000005038
        },
        {
          "name": "F#2",
          "midi": 42,
          "time": 257.29398899999353,
          "velocity": 0.7874015748031497,
          "duration": 0.17647050000005038
        },
        {
          "name": "F#2",
          "midi": 42,
          "time": 257.38222424999356,
          "velocity": 0.7874015748031497,
          "duration": 0.17647050000005038
        },
        {
          "name": "F#2",
          "midi": 42,
          "time": 257.4704594999936,
          "velocity": 0.7874015748031497,
          "duration": 0.17647050000005038
        },
        {
          "name": "F#2",
          "midi": 42,
          "time": 257.5586947499936,
          "velocity": 0.7874015748031497,
          "duration": 0.17647050000005038
        },
        {
          "name": "C2",
          "midi": 36,
          "time": 257.64692999999363,
          "velocity": 0.7874015748031497,
          "duration": 0.17647050000005038
        },
        {
          "name": "F#2",
          "midi": 42,
          "time": 257.64692999999363,
          "velocity": 0.7874015748031497,
          "duration": 0.17647050000005038
        },
        {
          "name": "F#2",
          "midi": 42,
          "time": 257.64692999999363,
          "velocity": 0.7874015748031497,
          "duration": 0.17647050000005038
        },
        {
          "name": "F#2",
          "midi": 42,
          "time": 257.73516524999366,
          "velocity": 0.7874015748031497,
          "duration": 0.17647050000005038
        },
        {
          "name": "F#2",
          "midi": 42,
          "time": 257.8234004999937,
          "velocity": 0.7874015748031497,
          "duration": 0.17647050000005038
        },
        {
          "name": "F#2",
          "midi": 42,
          "time": 257.9116357499937,
          "velocity": 0.7874015748031497,
          "duration": 0.17647050000005038
        },
        {
          "name": "C2",
          "midi": 36,
          "time": 257.99987099999373,
          "velocity": 0.7874015748031497,
          "duration": 0.17647050000005038
        },
        {
          "name": "F#2",
          "midi": 42,
          "time": 257.99987099999373,
          "velocity": 0.7874015748031497,
          "duration": 0.17647050000005038
        },
        {
          "name": "F#2",
          "midi": 42,
          "time": 258.08810624999376,
          "velocity": 0.7874015748031497,
          "duration": 0.17647050000005038
        },
        {
          "name": "F#2",
          "midi": 42,
          "time": 258.1763414999938,
          "velocity": 0.7874015748031497,
          "duration": 0.17647050000005038
        },
        {
          "name": "F#2",
          "midi": 42,
          "time": 258.2645767499938,
          "velocity": 0.7874015748031497,
          "duration": 0.17647050000005038
        },
        {
          "name": "C2",
          "midi": 36,
          "time": 258.35281199999383,
          "velocity": 0.7874015748031497,
          "duration": 0.17647050000005038
        },
        {
          "name": "F#2",
          "midi": 42,
          "time": 258.35281199999383,
          "velocity": 0.7874015748031497,
          "duration": 0.17647050000005038
        },
        {
          "name": "F#2",
          "midi": 42,
          "time": 258.35281199999383,
          "velocity": 0.7874015748031497,
          "duration": 0.17647050000005038
        },
        {
          "name": "F#2",
          "midi": 42,
          "time": 258.44104724999386,
          "velocity": 0.7874015748031497,
          "duration": 0.17647050000005038
        },
        {
          "name": "F#2",
          "midi": 42,
          "time": 258.5292824999939,
          "velocity": 0.7874015748031497,
          "duration": 0.17647050000005038
        },
        {
          "name": "F#2",
          "midi": 42,
          "time": 258.6175177499939,
          "velocity": 0.7874015748031497,
          "duration": 0.17647050000005038
        },
        {
          "name": "C2",
          "midi": 36,
          "time": 258.70575299999393,
          "velocity": 0.7874015748031497,
          "duration": 0.17647050000005038
        },
        {
          "name": "F#2",
          "midi": 42,
          "time": 258.70575299999393,
          "velocity": 0.7874015748031497,
          "duration": 0.17647050000005038
        },
        {
          "name": "F#2",
          "midi": 42,
          "time": 258.79398824999396,
          "velocity": 0.7874015748031497,
          "duration": 0.17647050000005038
        },
        {
          "name": "F#2",
          "midi": 42,
          "time": 258.882223499994,
          "velocity": 0.7874015748031497,
          "duration": 0.17647050000005038
        },
        {
          "name": "F#2",
          "midi": 42,
          "time": 258.970458749994,
          "velocity": 0.7874015748031497,
          "duration": 0.17647050000005038
        },
        {
          "name": "C2",
          "midi": 36,
          "time": 259.05869399999403,
          "velocity": 0.7874015748031497,
          "duration": 0.17647050000005038
        },
        {
          "name": "F#2",
          "midi": 42,
          "time": 259.05869399999403,
          "velocity": 0.7874015748031497,
          "duration": 0.17647050000005038
        },
        {
          "name": "F#2",
          "midi": 42,
          "time": 259.05869399999403,
          "velocity": 0.7874015748031497,
          "duration": 0.17647050000005038
        },
        {
          "name": "F#2",
          "midi": 42,
          "time": 259.14692924999406,
          "velocity": 0.7874015748031497,
          "duration": 0.17647050000005038
        },
        {
          "name": "F#2",
          "midi": 42,
          "time": 259.2351644999941,
          "velocity": 0.7874015748031497,
          "duration": 0.17647050000005038
        },
        {
          "name": "F#2",
          "midi": 42,
          "time": 259.3233997499941,
          "velocity": 0.7874015748031497,
          "duration": 0.17647050000005038
        },
        {
          "name": "C2",
          "midi": 36,
          "time": 259.41163499999413,
          "velocity": 0.7874015748031497,
          "duration": 0.17647050000005038
        },
        {
          "name": "F#2",
          "midi": 42,
          "time": 259.41163499999413,
          "velocity": 0.7874015748031497,
          "duration": 0.17647050000005038
        },
        {
          "name": "F#2",
          "midi": 42,
          "time": 259.49987024999416,
          "velocity": 0.7874015748031497,
          "duration": 0.17647050000005038
        },
        {
          "name": "F#2",
          "midi": 42,
          "time": 259.5881054999942,
          "velocity": 0.7874015748031497,
          "duration": 0.17647050000005038
        },
        {
          "name": "F#2",
          "midi": 42,
          "time": 259.6763407499942,
          "velocity": 0.7874015748031497,
          "duration": 0.17647050000005038
        },
        {
          "name": "C2",
          "midi": 36,
          "time": 259.76457599999424,
          "velocity": 0.7874015748031497,
          "duration": 0.17647050000005038
        },
        {
          "name": "F#2",
          "midi": 42,
          "time": 259.76457599999424,
          "velocity": 0.7874015748031497,
          "duration": 0.17647050000005038
        },
        {
          "name": "F#2",
          "midi": 42,
          "time": 259.85281124999426,
          "velocity": 0.7874015748031497,
          "duration": 0.17647050000005038
        },
        {
          "name": "F#2",
          "midi": 42,
          "time": 259.9410464999943,
          "velocity": 0.7874015748031497,
          "duration": 0.17647050000005038
        },
        {
          "name": "F#2",
          "midi": 42,
          "time": 260.0292817499943,
          "velocity": 0.7874015748031497,
          "duration": 0.17647050000005038
        },
        {
          "name": "C2",
          "midi": 36,
          "time": 260.11751699999434,
          "velocity": 0.7874015748031497,
          "duration": 0.17647050000005038
        },
        {
          "name": "F#2",
          "midi": 42,
          "time": 260.11751699999434,
          "velocity": 0.7874015748031497,
          "duration": 0.17647050000005038
        },
        {
          "name": "F#2",
          "midi": 42,
          "time": 260.20575224999436,
          "velocity": 0.7874015748031497,
          "duration": 0.17647050000005038
        },
        {
          "name": "F#2",
          "midi": 42,
          "time": 260.2939874999944,
          "velocity": 0.7874015748031497,
          "duration": 0.17647050000005038
        },
        {
          "name": "F#2",
          "midi": 42,
          "time": 260.3822227499944,
          "velocity": 0.7874015748031497,
          "duration": 0.17647050000005038
        },
        {
          "name": "C2",
          "midi": 36,
          "time": 260.47045799999444,
          "velocity": 0.7874015748031497,
          "duration": 0.17647050000005038
        },
        {
          "name": "F#2",
          "midi": 42,
          "time": 260.47045799999444,
          "velocity": 0.7874015748031497,
          "duration": 0.17647050000005038
        },
        {
          "name": "F#2",
          "midi": 42,
          "time": 260.47045799999444,
          "velocity": 0.7874015748031497,
          "duration": 0.17647050000005038
        },
        {
          "name": "F#2",
          "midi": 42,
          "time": 260.55869324999446,
          "velocity": 0.7874015748031497,
          "duration": 0.17647050000005038
        },
        {
          "name": "F#2",
          "midi": 42,
          "time": 260.6469284999945,
          "velocity": 0.7874015748031497,
          "duration": 0.17647050000005038
        },
        {
          "name": "F#2",
          "midi": 42,
          "time": 260.7351637499945,
          "velocity": 0.7874015748031497,
          "duration": 0.17647050000005038
        },
        {
          "name": "C2",
          "midi": 36,
          "time": 260.82339899999454,
          "velocity": 0.7874015748031497,
          "duration": 0.17647050000005038
        },
        {
          "name": "F#2",
          "midi": 42,
          "time": 260.82339899999454,
          "velocity": 0.7874015748031497,
          "duration": 0.17647050000005038
        },
        {
          "name": "F#2",
          "midi": 42,
          "time": 260.91163424999456,
          "velocity": 0.7874015748031497,
          "duration": 0.17647050000005038
        },
        {
          "name": "F#2",
          "midi": 42,
          "time": 260.9998694999946,
          "velocity": 0.7874015748031497,
          "duration": 0.17647050000005038
        },
        {
          "name": "F#2",
          "midi": 42,
          "time": 261.0881047499946,
          "velocity": 0.7874015748031497,
          "duration": 0.17647050000005038
        },
        {
          "name": "C2",
          "midi": 36,
          "time": 261.17633999999464,
          "velocity": 0.7874015748031497,
          "duration": 0.17647050000005038
        },
        {
          "name": "F#2",
          "midi": 42,
          "time": 261.17633999999464,
          "velocity": 0.7874015748031497,
          "duration": 0.17647050000005038
        },
        {
          "name": "F#2",
          "midi": 42,
          "time": 261.17633999999464,
          "velocity": 0.7874015748031497,
          "duration": 0.17647050000005038
        },
        {
          "name": "F#2",
          "midi": 42,
          "time": 261.26457524999466,
          "velocity": 0.7874015748031497,
          "duration": 0.17647050000005038
        },
        {
          "name": "F#2",
          "midi": 42,
          "time": 261.3528104999947,
          "velocity": 0.7874015748031497,
          "duration": 0.17647050000005038
        },
        {
          "name": "F#2",
          "midi": 42,
          "time": 261.4410457499947,
          "velocity": 0.7874015748031497,
          "duration": 0.17647050000005038
        },
        {
          "name": "C2",
          "midi": 36,
          "time": 261.52928099999474,
          "velocity": 0.7874015748031497,
          "duration": 0.17647050000005038
        },
        {
          "name": "F#2",
          "midi": 42,
          "time": 261.52928099999474,
          "velocity": 0.7874015748031497,
          "duration": 0.17647050000005038
        },
        {
          "name": "F#2",
          "midi": 42,
          "time": 261.61751624999476,
          "velocity": 0.7874015748031497,
          "duration": 0.17647050000005038
        },
        {
          "name": "F#2",
          "midi": 42,
          "time": 261.7057514999948,
          "velocity": 0.7874015748031497,
          "duration": 0.17647050000005038
        },
        {
          "name": "F#2",
          "midi": 42,
          "time": 261.7939867499948,
          "velocity": 0.7874015748031497,
          "duration": 0.17647050000005038
        },
        {
          "name": "C2",
          "midi": 36,
          "time": 261.88222199999484,
          "velocity": 0.7874015748031497,
          "duration": 0.17647050000005038
        },
        {
          "name": "F#2",
          "midi": 42,
          "time": 261.88222199999484,
          "velocity": 0.7874015748031497,
          "duration": 0.17647050000005038
        },
        {
          "name": "F#2",
          "midi": 42,
          "time": 261.88222199999484,
          "velocity": 0.7874015748031497,
          "duration": 0.17647050000005038
        },
        {
          "name": "F#2",
          "midi": 42,
          "time": 261.97045724999487,
          "velocity": 0.7874015748031497,
          "duration": 0.17647050000005038
        },
        {
          "name": "F#2",
          "midi": 42,
          "time": 262.0586924999949,
          "velocity": 0.7874015748031497,
          "duration": 0.17647050000005038
        },
        {
          "name": "F#2",
          "midi": 42,
          "time": 262.1469277499949,
          "velocity": 0.7874015748031497,
          "duration": 0.17647050000005038
        },
        {
          "name": "C2",
          "midi": 36,
          "time": 262.23516299999494,
          "velocity": 0.7874015748031497,
          "duration": 0.17647050000005038
        },
        {
          "name": "F#2",
          "midi": 42,
          "time": 262.23516299999494,
          "velocity": 0.7874015748031497,
          "duration": 0.17647050000005038
        },
        {
          "name": "F#2",
          "midi": 42,
          "time": 262.32339824999497,
          "velocity": 0.7874015748031497,
          "duration": 0.17647050000005038
        },
        {
          "name": "F#2",
          "midi": 42,
          "time": 262.411633499995,
          "velocity": 0.7874015748031497,
          "duration": 0.17647050000005038
        },
        {
          "name": "F#2",
          "midi": 42,
          "time": 262.499868749995,
          "velocity": 0.7874015748031497,
          "duration": 0.17647050000005038
        },
        {
          "name": "C2",
          "midi": 36,
          "time": 262.58810399999504,
          "velocity": 0.7874015748031497,
          "duration": 0.17647050000005038
        },
        {
          "name": "F#2",
          "midi": 42,
          "time": 262.58810399999504,
          "velocity": 0.7874015748031497,
          "duration": 0.17647050000005038
        },
        {
          "name": "F#2",
          "midi": 42,
          "time": 262.67633924999507,
          "velocity": 0.7874015748031497,
          "duration": 0.17647050000005038
        },
        {
          "name": "F#2",
          "midi": 42,
          "time": 262.7645744999951,
          "velocity": 0.7874015748031497,
          "duration": 0.17647050000005038
        },
        {
          "name": "F#2",
          "midi": 42,
          "time": 262.8528097499951,
          "velocity": 0.7874015748031497,
          "duration": 0.17647050000005038
        },
        {
          "name": "C2",
          "midi": 36,
          "time": 262.94104499999514,
          "velocity": 0.7874015748031497,
          "duration": 0.17647050000005038
        },
        {
          "name": "F#2",
          "midi": 42,
          "time": 262.94104499999514,
          "velocity": 0.7874015748031497,
          "duration": 0.17647050000005038
        },
        {
          "name": "F#2",
          "midi": 42,
          "time": 263.02928024999517,
          "velocity": 0.7874015748031497,
          "duration": 0.17647050000005038
        },
        {
          "name": "F#2",
          "midi": 42,
          "time": 263.1175154999952,
          "velocity": 0.7874015748031497,
          "duration": 0.17647050000005038
        },
        {
          "name": "F#2",
          "midi": 42,
          "time": 263.2057507499952,
          "velocity": 0.7874015748031497,
          "duration": 0.17647050000005038
        },
        {
          "name": "C2",
          "midi": 36,
          "time": 263.29398599999524,
          "velocity": 0.7874015748031497,
          "duration": 0.17647050000005038
        },
        {
          "name": "F#2",
          "midi": 42,
          "time": 263.29398599999524,
          "velocity": 0.7874015748031497,
          "duration": 0.17647050000005038
        },
        {
          "name": "F#2",
          "midi": 42,
          "time": 263.29398599999524,
          "velocity": 0.7874015748031497,
          "duration": 0.17647050000005038
        },
        {
          "name": "F#2",
          "midi": 42,
          "time": 263.38222124999527,
          "velocity": 0.7874015748031497,
          "duration": 0.17647050000005038
        },
        {
          "name": "F#2",
          "midi": 42,
          "time": 263.4704564999953,
          "velocity": 0.7874015748031497,
          "duration": 0.17647050000005038
        },
        {
          "name": "F#2",
          "midi": 42,
          "time": 263.5586917499953,
          "velocity": 0.7874015748031497,
          "duration": 0.17647050000005038
        },
        {
          "name": "C2",
          "midi": 36,
          "time": 263.64692699999534,
          "velocity": 0.7874015748031497,
          "duration": 0.17647050000005038
        },
        {
          "name": "F#2",
          "midi": 42,
          "time": 263.64692699999534,
          "velocity": 0.7874015748031497,
          "duration": 0.17647050000005038
        },
        {
          "name": "F#2",
          "midi": 42,
          "time": 263.73516224999537,
          "velocity": 0.7874015748031497,
          "duration": 0.17647050000005038
        },
        {
          "name": "F#2",
          "midi": 42,
          "time": 263.8233974999954,
          "velocity": 0.7874015748031497,
          "duration": 0.17647050000005038
        },
        {
          "name": "F#2",
          "midi": 42,
          "time": 263.9116327499954,
          "velocity": 0.7874015748031497,
          "duration": 0.17647050000005038
        },
        {
          "name": "C2",
          "midi": 36,
          "time": 263.99986799999544,
          "velocity": 0.7874015748031497,
          "duration": 0.17647050000005038
        },
        {
          "name": "F#2",
          "midi": 42,
          "time": 263.99986799999544,
          "velocity": 0.7874015748031497,
          "duration": 0.17647050000005038
        },
        {
          "name": "F#2",
          "midi": 42,
          "time": 263.99986799999544,
          "velocity": 0.7874015748031497,
          "duration": 0.17647050000005038
        },
        {
          "name": "F#2",
          "midi": 42,
          "time": 264.08810324999547,
          "velocity": 0.7874015748031497,
          "duration": 0.17647050000005038
        },
        {
          "name": "F#2",
          "midi": 42,
          "time": 264.1763384999955,
          "velocity": 0.7874015748031497,
          "duration": 0.17647050000005038
        },
        {
          "name": "F#2",
          "midi": 42,
          "time": 264.2645737499955,
          "velocity": 0.7874015748031497,
          "duration": 0.17647050000005038
        },
        {
          "name": "C2",
          "midi": 36,
          "time": 264.35280899999555,
          "velocity": 0.7874015748031497,
          "duration": 0.17647050000005038
        },
        {
          "name": "F#2",
          "midi": 42,
          "time": 264.35280899999555,
          "velocity": 0.7874015748031497,
          "duration": 0.17647050000005038
        },
        {
          "name": "F#2",
          "midi": 42,
          "time": 264.44104424999557,
          "velocity": 0.7874015748031497,
          "duration": 0.17647050000005038
        },
        {
          "name": "F#2",
          "midi": 42,
          "time": 264.5292794999956,
          "velocity": 0.7874015748031497,
          "duration": 0.17647050000005038
        },
        {
          "name": "F#2",
          "midi": 42,
          "time": 264.6175147499956,
          "velocity": 0.7874015748031497,
          "duration": 0.17647050000005038
        },
        {
          "name": "C2",
          "midi": 36,
          "time": 264.70574999999565,
          "velocity": 0.7874015748031497,
          "duration": 0.17647050000005038
        },
        {
          "name": "F#2",
          "midi": 42,
          "time": 264.70574999999565,
          "velocity": 0.7874015748031497,
          "duration": 0.17647050000005038
        },
        {
          "name": "F#2",
          "midi": 42,
          "time": 264.70574999999565,
          "velocity": 0.7874015748031497,
          "duration": 0.17647050000005038
        },
        {
          "name": "F#2",
          "midi": 42,
          "time": 264.79398524999567,
          "velocity": 0.7874015748031497,
          "duration": 0.17647050000005038
        },
        {
          "name": "F#2",
          "midi": 42,
          "time": 264.8822204999957,
          "velocity": 0.7874015748031497,
          "duration": 0.17647050000005038
        },
        {
          "name": "F#2",
          "midi": 42,
          "time": 264.9704557499957,
          "velocity": 0.7874015748031497,
          "duration": 0.17647050000005038
        },
        {
          "name": "C2",
          "midi": 36,
          "time": 265.05869099999575,
          "velocity": 0.7874015748031497,
          "duration": 0.17647050000005038
        },
        {
          "name": "F#2",
          "midi": 42,
          "time": 265.05869099999575,
          "velocity": 0.7874015748031497,
          "duration": 0.17647050000005038
        },
        {
          "name": "F#2",
          "midi": 42,
          "time": 265.1469262499958,
          "velocity": 0.7874015748031497,
          "duration": 0.17647050000005038
        },
        {
          "name": "F#2",
          "midi": 42,
          "time": 265.2351614999958,
          "velocity": 0.7874015748031497,
          "duration": 0.17647050000005038
        },
        {
          "name": "F#2",
          "midi": 42,
          "time": 265.3233967499958,
          "velocity": 0.7874015748031497,
          "duration": 0.17647050000005038
        },
        {
          "name": "C2",
          "midi": 36,
          "time": 265.41163199999585,
          "velocity": 0.7874015748031497,
          "duration": 0.17647050000005038
        },
        {
          "name": "F#2",
          "midi": 42,
          "time": 265.41163199999585,
          "velocity": 0.7874015748031497,
          "duration": 0.17647050000005038
        },
        {
          "name": "F#2",
          "midi": 42,
          "time": 265.4998672499959,
          "velocity": 0.7874015748031497,
          "duration": 0.17647050000005038
        },
        {
          "name": "F#2",
          "midi": 42,
          "time": 265.5881024999959,
          "velocity": 0.7874015748031497,
          "duration": 0.17647050000005038
        },
        {
          "name": "F#2",
          "midi": 42,
          "time": 265.6763377499959,
          "velocity": 0.7874015748031497,
          "duration": 0.17647050000005038
        },
        {
          "name": "C2",
          "midi": 36,
          "time": 265.76457299999595,
          "velocity": 0.7874015748031497,
          "duration": 0.17647050000005038
        },
        {
          "name": "F#2",
          "midi": 42,
          "time": 265.76457299999595,
          "velocity": 0.7874015748031497,
          "duration": 0.17647050000005038
        },
        {
          "name": "F#2",
          "midi": 42,
          "time": 265.852808249996,
          "velocity": 0.7874015748031497,
          "duration": 0.17647050000005038
        },
        {
          "name": "F#2",
          "midi": 42,
          "time": 265.941043499996,
          "velocity": 0.7874015748031497,
          "duration": 0.17647050000005038
        },
        {
          "name": "F#2",
          "midi": 42,
          "time": 266.029278749996,
          "velocity": 0.7874015748031497,
          "duration": 0.17647050000005038
        },
        {
          "name": "C2",
          "midi": 36,
          "time": 266.11751399999605,
          "velocity": 0.7874015748031497,
          "duration": 0.17647050000005038
        },
        {
          "name": "F#2",
          "midi": 42,
          "time": 266.11751399999605,
          "velocity": 0.7874015748031497,
          "duration": 0.17647050000005038
        },
        {
          "name": "F#2",
          "midi": 42,
          "time": 266.11751399999605,
          "velocity": 0.7874015748031497,
          "duration": 0.17647050000005038
        },
        {
          "name": "F#2",
          "midi": 42,
          "time": 266.2057492499961,
          "velocity": 0.7874015748031497,
          "duration": 0.17647050000005038
        },
        {
          "name": "F#2",
          "midi": 42,
          "time": 266.2939844999961,
          "velocity": 0.7874015748031497,
          "duration": 0.17647050000005038
        },
        {
          "name": "F#2",
          "midi": 42,
          "time": 266.3822197499961,
          "velocity": 0.7874015748031497,
          "duration": 0.17647050000005038
        },
        {
          "name": "C2",
          "midi": 36,
          "time": 266.47045499999615,
          "velocity": 0.7874015748031497,
          "duration": 0.17647050000005038
        },
        {
          "name": "F#2",
          "midi": 42,
          "time": 266.47045499999615,
          "velocity": 0.7874015748031497,
          "duration": 0.17647050000005038
        },
        {
          "name": "F#2",
          "midi": 42,
          "time": 266.5586902499962,
          "velocity": 0.7874015748031497,
          "duration": 0.17647050000005038
        },
        {
          "name": "F#2",
          "midi": 42,
          "time": 266.6469254999962,
          "velocity": 0.7874015748031497,
          "duration": 0.17647050000005038
        },
        {
          "name": "F#2",
          "midi": 42,
          "time": 266.7351607499962,
          "velocity": 0.7874015748031497,
          "duration": 0.17647050000005038
        },
        {
          "name": "C2",
          "midi": 36,
          "time": 266.82339599999625,
          "velocity": 0.7874015748031497,
          "duration": 0.17647050000005038
        },
        {
          "name": "F#2",
          "midi": 42,
          "time": 266.82339599999625,
          "velocity": 0.7874015748031497,
          "duration": 0.17647050000005038
        },
        {
          "name": "F#2",
          "midi": 42,
          "time": 266.82339599999625,
          "velocity": 0.7874015748031497,
          "duration": 0.17647050000005038
        },
        {
          "name": "F#2",
          "midi": 42,
          "time": 266.9116312499963,
          "velocity": 0.7874015748031497,
          "duration": 0.17647050000005038
        },
        {
          "name": "F#2",
          "midi": 42,
          "time": 266.9998664999963,
          "velocity": 0.7874015748031497,
          "duration": 0.17647050000005038
        },
        {
          "name": "F#2",
          "midi": 42,
          "time": 267.0881017499963,
          "velocity": 0.7874015748031497,
          "duration": 0.17647050000005038
        },
        {
          "name": "C2",
          "midi": 36,
          "time": 267.17633699999635,
          "velocity": 0.7874015748031497,
          "duration": 0.17647050000005038
        },
        {
          "name": "F#2",
          "midi": 42,
          "time": 267.17633699999635,
          "velocity": 0.7874015748031497,
          "duration": 0.17647050000005038
        },
        {
          "name": "F#2",
          "midi": 42,
          "time": 267.2645722499964,
          "velocity": 0.7874015748031497,
          "duration": 0.17647050000005038
        },
        {
          "name": "F#2",
          "midi": 42,
          "time": 267.3528074999964,
          "velocity": 0.7874015748031497,
          "duration": 0.17647050000005038
        },
        {
          "name": "F#2",
          "midi": 42,
          "time": 267.4410427499964,
          "velocity": 0.7874015748031497,
          "duration": 0.17647050000005038
        },
        {
          "name": "C2",
          "midi": 36,
          "time": 267.52927799999645,
          "velocity": 0.7874015748031497,
          "duration": 0.17647050000005038
        },
        {
          "name": "F#2",
          "midi": 42,
          "time": 267.52927799999645,
          "velocity": 0.7874015748031497,
          "duration": 0.17647050000005038
        },
        {
          "name": "F#2",
          "midi": 42,
          "time": 267.52927799999645,
          "velocity": 0.7874015748031497,
          "duration": 0.17647050000005038
        },
        {
          "name": "F#2",
          "midi": 42,
          "time": 267.6175132499965,
          "velocity": 0.7874015748031497,
          "duration": 0.17647050000005038
        },
        {
          "name": "A#2",
          "midi": 46,
          "time": 267.7057484999965,
          "velocity": 0.7874015748031497,
          "duration": 0.17647050000005038
        },
        {
          "name": "F#2",
          "midi": 42,
          "time": 267.7939837499965,
          "velocity": 0.7874015748031497,
          "duration": 0.17647050000005038
        },
        {
          "name": "C2",
          "midi": 36,
          "time": 267.88221899999655,
          "velocity": 0.7874015748031497,
          "duration": 0.17647050000005038
        },
        {
          "name": "F#2",
          "midi": 42,
          "time": 267.88221899999655,
          "velocity": 0.7874015748031497,
          "duration": 0.17647050000005038
        },
        {
          "name": "F#2",
          "midi": 42,
          "time": 267.9704542499966,
          "velocity": 0.7874015748031497,
          "duration": 0.17647050000005038
        },
        {
          "name": "A#2",
          "midi": 46,
          "time": 268.0586894999966,
          "velocity": 0.7874015748031497,
          "duration": 0.17647050000005038
        },
        {
          "name": "F#2",
          "midi": 42,
          "time": 268.14692474999663,
          "velocity": 0.7874015748031497,
          "duration": 0.17647050000005038
        },
        {
          "name": "C2",
          "midi": 36,
          "time": 268.23515999999665,
          "velocity": 0.7874015748031497,
          "duration": 0.17647050000005038
        },
        {
          "name": "F#2",
          "midi": 42,
          "time": 268.23515999999665,
          "velocity": 0.7874015748031497,
          "duration": 0.17647050000005038
        },
        {
          "name": "F#2",
          "midi": 42,
          "time": 268.3233952499967,
          "velocity": 0.7874015748031497,
          "duration": 0.17647050000005038
        },
        {
          "name": "F#2",
          "midi": 42,
          "time": 268.4116304999967,
          "velocity": 0.7874015748031497,
          "duration": 0.17647050000005038
        },
        {
          "name": "F#2",
          "midi": 42,
          "time": 268.49986574999673,
          "velocity": 0.7874015748031497,
          "duration": 0.17647050000005038
        },
        {
          "name": "C2",
          "midi": 36,
          "time": 268.58810099999675,
          "velocity": 0.7874015748031497,
          "duration": 0.17647050000005038
        },
        {
          "name": "F#2",
          "midi": 42,
          "time": 268.58810099999675,
          "velocity": 0.7874015748031497,
          "duration": 0.17647050000005038
        },
        {
          "name": "F#2",
          "midi": 42,
          "time": 268.6763362499968,
          "velocity": 0.7874015748031497,
          "duration": 0.17647050000005038
        },
        {
          "name": "F#2",
          "midi": 42,
          "time": 268.7645714999968,
          "velocity": 0.7874015748031497,
          "duration": 0.17647050000005038
        },
        {
          "name": "F#2",
          "midi": 42,
          "time": 268.85280674999683,
          "velocity": 0.7874015748031497,
          "duration": 0.17647050000005038
        },
        {
          "name": "C2",
          "midi": 36,
          "time": 268.94104199999686,
          "velocity": 0.7874015748031497,
          "duration": 0.17647050000005038
        },
        {
          "name": "F#2",
          "midi": 42,
          "time": 268.94104199999686,
          "velocity": 0.7874015748031497,
          "duration": 0.17647050000005038
        },
        {
          "name": "F#2",
          "midi": 42,
          "time": 268.94104199999686,
          "velocity": 0.7874015748031497,
          "duration": 0.17647050000005038
        },
        {
          "name": "F#2",
          "midi": 42,
          "time": 269.0292772499969,
          "velocity": 0.7874015748031497,
          "duration": 0.17647050000005038
        },
        {
          "name": "F#2",
          "midi": 42,
          "time": 269.1175124999969,
          "velocity": 0.7874015748031497,
          "duration": 0.17647050000005038
        },
        {
          "name": "F#2",
          "midi": 42,
          "time": 269.20574774999693,
          "velocity": 0.7874015748031497,
          "duration": 0.17647050000005038
        },
        {
          "name": "C2",
          "midi": 36,
          "time": 269.29398299999696,
          "velocity": 0.7874015748031497,
          "duration": 0.17647050000005038
        },
        {
          "name": "F#2",
          "midi": 42,
          "time": 269.29398299999696,
          "velocity": 0.7874015748031497,
          "duration": 0.17647050000005038
        },
        {
          "name": "F#2",
          "midi": 42,
          "time": 269.382218249997,
          "velocity": 0.7874015748031497,
          "duration": 0.17647050000005038
        },
        {
          "name": "F#2",
          "midi": 42,
          "time": 269.470453499997,
          "velocity": 0.7874015748031497,
          "duration": 0.17647050000005038
        },
        {
          "name": "F#2",
          "midi": 42,
          "time": 269.55868874999703,
          "velocity": 0.7874015748031497,
          "duration": 0.17647050000005038
        },
        {
          "name": "C2",
          "midi": 36,
          "time": 269.64692399999706,
          "velocity": 0.7874015748031497,
          "duration": 0.17647050000005038
        },
        {
          "name": "A#2",
          "midi": 46,
          "time": 269.64692399999706,
          "velocity": 0.7874015748031497,
          "duration": 0.17647050000005038
        },
        {
          "name": "A#2",
          "midi": 46,
          "time": 269.64692399999706,
          "velocity": 0.7874015748031497,
          "duration": 0.17647050000005038
        },
        {
          "name": "A#2",
          "midi": 46,
          "time": 269.7351592499971,
          "velocity": 0.7874015748031497,
          "duration": 0.17647050000005038
        },
        {
          "name": "A#2",
          "midi": 46,
          "time": 269.8233944999971,
          "velocity": 0.7874015748031497,
          "duration": 0.17647050000005038
        },
        {
          "name": "A#2",
          "midi": 46,
          "time": 269.91162974999713,
          "velocity": 0.7874015748031497,
          "duration": 0.17647050000005038
        },
        {
          "name": "C2",
          "midi": 36,
          "time": 269.99986499999716,
          "velocity": 0.7874015748031497,
          "duration": 0.17647050000005038
        },
        {
          "name": "A#2",
          "midi": 46,
          "time": 269.99986499999716,
          "velocity": 0.7874015748031497,
          "duration": 0.17647050000005038
        },
        {
          "name": "A#2",
          "midi": 46,
          "time": 270.0881002499972,
          "velocity": 0.7874015748031497,
          "duration": 0.17647050000005038
        },
        {
          "name": "A#2",
          "midi": 46,
          "time": 270.1763354999972,
          "velocity": 0.7874015748031497,
          "duration": 0.17647050000005038
        },
        {
          "name": "A#2",
          "midi": 46,
          "time": 270.26457074999723,
          "velocity": 0.7874015748031497,
          "duration": 0.17647050000005038
        },
        {
          "name": "C2",
          "midi": 36,
          "time": 270.35280599999726,
          "velocity": 0.7874015748031497,
          "duration": 0.17647050000005038
        },
        {
          "name": "A#2",
          "midi": 46,
          "time": 270.35280599999726,
          "velocity": 0.7874015748031497,
          "duration": 0.17647050000005038
        },
        {
          "name": "A#2",
          "midi": 46,
          "time": 270.35280599999726,
          "velocity": 0.7874015748031497,
          "duration": 0.17647050000005038
        },
        {
          "name": "A#2",
          "midi": 46,
          "time": 270.4410412499973,
          "velocity": 0.7874015748031497,
          "duration": 0.17647050000005038
        },
        {
          "name": "A#2",
          "midi": 46,
          "time": 270.5292764999973,
          "velocity": 0.7874015748031497,
          "duration": 0.17647050000005038
        },
        {
          "name": "A#2",
          "midi": 46,
          "time": 270.61751174999733,
          "velocity": 0.7874015748031497,
          "duration": 0.17647050000005038
        },
        {
          "name": "C2",
          "midi": 36,
          "time": 270.70574699999736,
          "velocity": 0.7874015748031497,
          "duration": 0.17647050000005038
        },
        {
          "name": "A#2",
          "midi": 46,
          "time": 270.70574699999736,
          "velocity": 0.7874015748031497,
          "duration": 0.17647050000005038
        },
        {
          "name": "A#2",
          "midi": 46,
          "time": 270.7939822499974,
          "velocity": 0.7874015748031497,
          "duration": 0.17647050000005038
        },
        {
          "name": "A#2",
          "midi": 46,
          "time": 270.8822174999974,
          "velocity": 0.7874015748031497,
          "duration": 0.17647050000005038
        },
        {
          "name": "A#2",
          "midi": 46,
          "time": 270.97045274999743,
          "velocity": 0.7874015748031497,
          "duration": 0.17647050000005038
        },
        {
          "name": "C2",
          "midi": 36,
          "time": 271.05868799999746,
          "velocity": 0.7874015748031497,
          "duration": 0.17647050000005038
        },
        {
          "name": "F#2",
          "midi": 42,
          "time": 271.05868799999746,
          "velocity": 0.7874015748031497,
          "duration": 0.17647050000005038
        },
        {
          "name": "F#2",
          "midi": 42,
          "time": 271.1469232499975,
          "velocity": 0.7874015748031497,
          "duration": 0.17647050000005038
        },
        {
          "name": "F#2",
          "midi": 42,
          "time": 271.2351584999975,
          "velocity": 0.7874015748031497,
          "duration": 0.17647050000005038
        },
        {
          "name": "F#2",
          "midi": 42,
          "time": 271.32339374999754,
          "velocity": 0.7874015748031497,
          "duration": 0.17647050000005038
        },
        {
          "name": "C2",
          "midi": 36,
          "time": 271.41162899999756,
          "velocity": 0.7874015748031497,
          "duration": 0.17647050000005038
        },
        {
          "name": "F#2",
          "midi": 42,
          "time": 271.41162899999756,
          "velocity": 0.7874015748031497,
          "duration": 0.17647050000005038
        },
        {
          "name": "F#2",
          "midi": 42,
          "time": 271.4998642499976,
          "velocity": 0.7874015748031497,
          "duration": 0.17647050000005038
        },
        {
          "name": "F#2",
          "midi": 42,
          "time": 271.5880994999976,
          "velocity": 0.7874015748031497,
          "duration": 0.17647050000005038
        },
        {
          "name": "F#2",
          "midi": 42,
          "time": 271.67633474999764,
          "velocity": 0.7874015748031497,
          "duration": 0.17647050000005038
        },
        {
          "name": "C2",
          "midi": 36,
          "time": 271.76456999999766,
          "velocity": 0.7874015748031497,
          "duration": 0.17647050000005038
        },
        {
          "name": "F#2",
          "midi": 42,
          "time": 271.76456999999766,
          "velocity": 0.7874015748031497,
          "duration": 0.17647050000005038
        },
        {
          "name": "F#2",
          "midi": 42,
          "time": 271.76456999999766,
          "velocity": 0.7874015748031497,
          "duration": 0.17647050000005038
        },
        {
          "name": "F#2",
          "midi": 42,
          "time": 271.8528052499977,
          "velocity": 0.7874015748031497,
          "duration": 0.17647050000005038
        },
        {
          "name": "F#2",
          "midi": 42,
          "time": 271.9410404999977,
          "velocity": 0.7874015748031497,
          "duration": 0.17647050000005038
        },
        {
          "name": "F#2",
          "midi": 42,
          "time": 272.02927574999774,
          "velocity": 0.7874015748031497,
          "duration": 0.17647050000005038
        },
        {
          "name": "C2",
          "midi": 36,
          "time": 272.11751099999776,
          "velocity": 0.7874015748031497,
          "duration": 0.17647050000005038
        },
        {
          "name": "F#2",
          "midi": 42,
          "time": 272.11751099999776,
          "velocity": 0.7874015748031497,
          "duration": 0.17647050000005038
        },
        {
          "name": "F#2",
          "midi": 42,
          "time": 272.2057462499978,
          "velocity": 0.7874015748031497,
          "duration": 0.17647050000005038
        },
        {
          "name": "F#2",
          "midi": 42,
          "time": 272.2939814999978,
          "velocity": 0.7874015748031497,
          "duration": 0.17647050000005038
        },
        {
          "name": "F#2",
          "midi": 42,
          "time": 272.38221674999784,
          "velocity": 0.7874015748031497,
          "duration": 0.17647050000005038
        },
        {
          "name": "C2",
          "midi": 36,
          "time": 272.47045199999786,
          "velocity": 0.7874015748031497,
          "duration": 0.17647050000005038
        },
        {
          "name": "F#2",
          "midi": 42,
          "time": 272.47045199999786,
          "velocity": 0.7874015748031497,
          "duration": 0.17647050000005038
        },
        {
          "name": "F#2",
          "midi": 42,
          "time": 272.47045199999786,
          "velocity": 0.7874015748031497,
          "duration": 0.17647050000005038
        },
        {
          "name": "F#2",
          "midi": 42,
          "time": 272.5586872499979,
          "velocity": 0.7874015748031497,
          "duration": 0.17647050000005038
        },
        {
          "name": "F#2",
          "midi": 42,
          "time": 272.6469224999979,
          "velocity": 0.7874015748031497,
          "duration": 0.17647050000005038
        },
        {
          "name": "F#2",
          "midi": 42,
          "time": 272.73515774999794,
          "velocity": 0.7874015748031497,
          "duration": 0.17647050000005038
        },
        {
          "name": "C2",
          "midi": 36,
          "time": 272.82339299999796,
          "velocity": 0.7874015748031497,
          "duration": 0.17647050000005038
        },
        {
          "name": "F#2",
          "midi": 42,
          "time": 272.82339299999796,
          "velocity": 0.7874015748031497,
          "duration": 0.17647050000005038
        },
        {
          "name": "F#2",
          "midi": 42,
          "time": 272.911628249998,
          "velocity": 0.7874015748031497,
          "duration": 0.17647050000005038
        },
        {
          "name": "F#2",
          "midi": 42,
          "time": 272.999863499998,
          "velocity": 0.7874015748031497,
          "duration": 0.17647050000005038
        },
        {
          "name": "F#2",
          "midi": 42,
          "time": 273.08809874999804,
          "velocity": 0.7874015748031497,
          "duration": 0.17647050000005038
        },
        {
          "name": "C2",
          "midi": 36,
          "time": 273.17633399999806,
          "velocity": 0.7874015748031497,
          "duration": 0.17647050000005038
        },
        {
          "name": "F#2",
          "midi": 42,
          "time": 273.17633399999806,
          "velocity": 0.7874015748031497,
          "duration": 0.17647050000005038
        },
        {
          "name": "F#2",
          "midi": 42,
          "time": 273.17633399999806,
          "velocity": 0.7874015748031497,
          "duration": 0.17647050000005038
        },
        {
          "name": "F#2",
          "midi": 42,
          "time": 273.2645692499981,
          "velocity": 0.7874015748031497,
          "duration": 0.17647050000005038
        },
        {
          "name": "A#2",
          "midi": 46,
          "time": 273.3528044999981,
          "velocity": 0.7874015748031497,
          "duration": 0.17647050000005038
        },
        {
          "name": "F#2",
          "midi": 42,
          "time": 273.44103974999814,
          "velocity": 0.7874015748031497,
          "duration": 0.17647050000005038
        },
        {
          "name": "C2",
          "midi": 36,
          "time": 273.52927499999817,
          "velocity": 0.7874015748031497,
          "duration": 0.17647050000005038
        },
        {
          "name": "F#2",
          "midi": 42,
          "time": 273.52927499999817,
          "velocity": 0.7874015748031497,
          "duration": 0.17647050000005038
        },
        {
          "name": "F#2",
          "midi": 42,
          "time": 273.6175102499982,
          "velocity": 0.7874015748031497,
          "duration": 0.17647050000005038
        },
        {
          "name": "A#2",
          "midi": 46,
          "time": 273.7057454999982,
          "velocity": 0.7874015748031497,
          "duration": 0.17647050000005038
        },
        {
          "name": "F#2",
          "midi": 42,
          "time": 273.79398074999824,
          "velocity": 0.7874015748031497,
          "duration": 0.17647050000005038
        },
        {
          "name": "C2",
          "midi": 36,
          "time": 273.88221599999827,
          "velocity": 0.7874015748031497,
          "duration": 0.17647050000005038
        },
        {
          "name": "F#2",
          "midi": 42,
          "time": 273.88221599999827,
          "velocity": 0.7874015748031497,
          "duration": 0.17647050000005038
        },
        {
          "name": "F#2",
          "midi": 42,
          "time": 273.9704512499983,
          "velocity": 0.7874015748031497,
          "duration": 0.17647050000005038
        },
        {
          "name": "F#2",
          "midi": 42,
          "time": 274.0586864999983,
          "velocity": 0.7874015748031497,
          "duration": 0.17647050000005038
        },
        {
          "name": "F#2",
          "midi": 42,
          "time": 274.14692174999834,
          "velocity": 0.7874015748031497,
          "duration": 0.17647050000005038
        },
        {
          "name": "C2",
          "midi": 36,
          "time": 274.23515699999837,
          "velocity": 0.7874015748031497,
          "duration": 0.17647050000005038
        },
        {
          "name": "F#2",
          "midi": 42,
          "time": 274.23515699999837,
          "velocity": 0.7874015748031497,
          "duration": 0.17647050000005038
        },
        {
          "name": "F#2",
          "midi": 42,
          "time": 274.3233922499984,
          "velocity": 0.7874015748031497,
          "duration": 0.17647050000005038
        },
        {
          "name": "F#2",
          "midi": 42,
          "time": 274.4116274999984,
          "velocity": 0.7874015748031497,
          "duration": 0.17647050000005038
        },
        {
          "name": "F#2",
          "midi": 42,
          "time": 274.49986274999844,
          "velocity": 0.7874015748031497,
          "duration": 0.17647050000005038
        },
        {
          "name": "C2",
          "midi": 36,
          "time": 274.58809799999847,
          "velocity": 0.7874015748031497,
          "duration": 0.17647050000005038
        },
        {
          "name": "F#2",
          "midi": 42,
          "time": 274.58809799999847,
          "velocity": 0.7874015748031497,
          "duration": 0.17647050000005038
        },
        {
          "name": "F#2",
          "midi": 42,
          "time": 274.58809799999847,
          "velocity": 0.7874015748031497,
          "duration": 0.17647050000005038
        },
        {
          "name": "F#2",
          "midi": 42,
          "time": 274.6763332499985,
          "velocity": 0.7874015748031497,
          "duration": 0.17647050000005038
        },
        {
          "name": "F#2",
          "midi": 42,
          "time": 274.7645684999985,
          "velocity": 0.7874015748031497,
          "duration": 0.17647050000005038
        },
        {
          "name": "F#2",
          "midi": 42,
          "time": 274.85280374999854,
          "velocity": 0.7874015748031497,
          "duration": 0.17647050000005038
        },
        {
          "name": "C2",
          "midi": 36,
          "time": 274.94103899999857,
          "velocity": 0.7874015748031497,
          "duration": 0.17647050000005038
        },
        {
          "name": "F#2",
          "midi": 42,
          "time": 274.94103899999857,
          "velocity": 0.7874015748031497,
          "duration": 0.17647050000005038
        },
        {
          "name": "F#2",
          "midi": 42,
          "time": 275.0292742499986,
          "velocity": 0.7874015748031497,
          "duration": 0.17647050000005038
        },
        {
          "name": "F#2",
          "midi": 42,
          "time": 275.1175094999986,
          "velocity": 0.7874015748031497,
          "duration": 0.17647050000005038
        },
        {
          "name": "F#2",
          "midi": 42,
          "time": 275.20574474999864,
          "velocity": 0.7874015748031497,
          "duration": 0.17647050000005038
        },
        {
          "name": "C2",
          "midi": 36,
          "time": 275.29397999999867,
          "velocity": 0.7874015748031497,
          "duration": 0.17647050000005038
        },
        {
          "name": "F#2",
          "midi": 42,
          "time": 275.29397999999867,
          "velocity": 0.7874015748031497,
          "duration": 0.17647050000005038
        },
        {
          "name": "F#2",
          "midi": 42,
          "time": 275.29397999999867,
          "velocity": 0.7874015748031497,
          "duration": 0.17647050000005038
        },
        {
          "name": "F#2",
          "midi": 42,
          "time": 275.3822152499987,
          "velocity": 0.7874015748031497,
          "duration": 0.17647050000005038
        },
        {
          "name": "F#2",
          "midi": 42,
          "time": 275.4704504999987,
          "velocity": 0.7874015748031497,
          "duration": 0.17647050000005038
        },
        {
          "name": "F#2",
          "midi": 42,
          "time": 275.55868574999874,
          "velocity": 0.7874015748031497,
          "duration": 0.17647050000005038
        },
        {
          "name": "C2",
          "midi": 36,
          "time": 275.64692099999877,
          "velocity": 0.7874015748031497,
          "duration": 0.17647050000005038
        },
        {
          "name": "F#2",
          "midi": 42,
          "time": 275.64692099999877,
          "velocity": 0.7874015748031497,
          "duration": 0.17647050000005038
        },
        {
          "name": "F#2",
          "midi": 42,
          "time": 275.7351562499988,
          "velocity": 0.7874015748031497,
          "duration": 0.17647050000005038
        },
        {
          "name": "F#2",
          "midi": 42,
          "time": 275.8233914999988,
          "velocity": 0.7874015748031497,
          "duration": 0.17647050000005038
        },
        {
          "name": "F#2",
          "midi": 42,
          "time": 275.91162674999885,
          "velocity": 0.7874015748031497,
          "duration": 0.17647050000005038
        },
        {
          "name": "C2",
          "midi": 36,
          "time": 275.99986199999887,
          "velocity": 0.7874015748031497,
          "duration": 0.17647050000005038
        },
        {
          "name": "F#2",
          "midi": 42,
          "time": 275.99986199999887,
          "velocity": 0.7874015748031497,
          "duration": 0.17647050000005038
        },
        {
          "name": "F#2",
          "midi": 42,
          "time": 275.99986199999887,
          "velocity": 0.7874015748031497,
          "duration": 0.17647050000005038
        },
        {
          "name": "F#2",
          "midi": 42,
          "time": 276.0880972499989,
          "velocity": 0.7874015748031497,
          "duration": 0.17647050000005038
        },
        {
          "name": "A#2",
          "midi": 46,
          "time": 276.1763324999989,
          "velocity": 0.7874015748031497,
          "duration": 0.17647050000005038
        },
        {
          "name": "F#2",
          "midi": 42,
          "time": 276.26456774999895,
          "velocity": 0.7874015748031497,
          "duration": 0.17647050000005038
        },
        {
          "name": "C2",
          "midi": 36,
          "time": 276.35280299999897,
          "velocity": 0.7874015748031497,
          "duration": 0.17647050000005038
        },
        {
          "name": "F#2",
          "midi": 42,
          "time": 276.35280299999897,
          "velocity": 0.7874015748031497,
          "duration": 0.17647050000005038
        },
        {
          "name": "F#2",
          "midi": 42,
          "time": 276.441038249999,
          "velocity": 0.7874015748031497,
          "duration": 0.17647050000005038
        },
        {
          "name": "A#2",
          "midi": 46,
          "time": 276.529273499999,
          "velocity": 0.7874015748031497,
          "duration": 0.17647050000005038
        },
        {
          "name": "F#2",
          "midi": 42,
          "time": 276.61750874999905,
          "velocity": 0.7874015748031497,
          "duration": 0.17647050000005038
        },
        {
          "name": "C2",
          "midi": 36,
          "time": 276.7057439999991,
          "velocity": 0.7874015748031497,
          "duration": 0.17647050000005038
        },
        {
          "name": "G3",
          "midi": 55,
          "time": 276.7057439999991,
          "velocity": 0.7874015748031497,
          "duration": 0.17647050000005038
        },
        {
          "name": "F#2",
          "midi": 42,
          "time": 276.7939792499991,
          "velocity": 0.7874015748031497,
          "duration": 0.17647050000005038
        },
        {
          "name": "F#2",
          "midi": 42,
          "time": 276.8822144999991,
          "velocity": 0.7874015748031497,
          "duration": 0.17647050000005038
        },
        {
          "name": "F#2",
          "midi": 42,
          "time": 276.97044974999915,
          "velocity": 0.7874015748031497,
          "duration": 0.17647050000005038
        },
        {
          "name": "C2",
          "midi": 36,
          "time": 277.0586849999992,
          "velocity": 0.7874015748031497,
          "duration": 0.17647050000005038
        },
        {
          "name": "F#2",
          "midi": 42,
          "time": 277.0586849999992,
          "velocity": 0.7874015748031497,
          "duration": 0.17647050000005038
        },
        {
          "name": "F#2",
          "midi": 42,
          "time": 277.1469202499992,
          "velocity": 0.7874015748031497,
          "duration": 0.17647050000005038
        },
        {
          "name": "F#2",
          "midi": 42,
          "time": 277.2351554999992,
          "velocity": 0.7874015748031497,
          "duration": 0.17647050000005038
        },
        {
          "name": "F#2",
          "midi": 42,
          "time": 277.32339074999925,
          "velocity": 0.7874015748031497,
          "duration": 0.17647050000005038
        },
        {
          "name": "C2",
          "midi": 36,
          "time": 277.4116259999993,
          "velocity": 0.7874015748031497,
          "duration": 0.17647050000005038
        },
        {
          "name": "F#2",
          "midi": 42,
          "time": 277.4116259999993,
          "velocity": 0.7874015748031497,
          "duration": 0.17647050000005038
        },
        {
          "name": "F#2",
          "midi": 42,
          "time": 277.4116259999993,
          "velocity": 0.7874015748031497,
          "duration": 0.17647050000005038
        },
        {
          "name": "F#2",
          "midi": 42,
          "time": 277.4998612499993,
          "velocity": 0.7874015748031497,
          "duration": 0.17647050000005038
        },
        {
          "name": "F#2",
          "midi": 42,
          "time": 277.5880964999993,
          "velocity": 0.7874015748031497,
          "duration": 0.17647050000005038
        },
        {
          "name": "F#2",
          "midi": 42,
          "time": 277.67633174999935,
          "velocity": 0.7874015748031497,
          "duration": 0.17647050000005038
        },
        {
          "name": "C2",
          "midi": 36,
          "time": 277.7645669999994,
          "velocity": 0.7874015748031497,
          "duration": 0.17647050000005038
        },
        {
          "name": "F#2",
          "midi": 42,
          "time": 277.7645669999994,
          "velocity": 0.7874015748031497,
          "duration": 0.17647050000005038
        },
        {
          "name": "F#2",
          "midi": 42,
          "time": 277.8528022499994,
          "velocity": 0.7874015748031497,
          "duration": 0.17647050000005038
        },
        {
          "name": "F#2",
          "midi": 42,
          "time": 277.9410374999994,
          "velocity": 0.7874015748031497,
          "duration": 0.17647050000005038
        },
        {
          "name": "F#2",
          "midi": 42,
          "time": 278.02927274999945,
          "velocity": 0.7874015748031497,
          "duration": 0.17647050000005038
        },
        {
          "name": "C2",
          "midi": 36,
          "time": 278.1175079999995,
          "velocity": 0.7874015748031497,
          "duration": 0.17647050000005038
        },
        {
          "name": "F#2",
          "midi": 42,
          "time": 278.1175079999995,
          "velocity": 0.7874015748031497,
          "duration": 0.17647050000005038
        },
        {
          "name": "F#2",
          "midi": 42,
          "time": 278.1175079999995,
          "velocity": 0.7874015748031497,
          "duration": 0.17647050000005038
        },
        {
          "name": "F#2",
          "midi": 42,
          "time": 278.2057432499995,
          "velocity": 0.7874015748031497,
          "duration": 0.17647050000005038
        },
        {
          "name": "F#2",
          "midi": 42,
          "time": 278.2939784999995,
          "velocity": 0.7874015748031497,
          "duration": 0.17647050000005038
        },
        {
          "name": "F#2",
          "midi": 42,
          "time": 278.38221374999955,
          "velocity": 0.7874015748031497,
          "duration": 0.17647050000005038
        },
        {
          "name": "C2",
          "midi": 36,
          "time": 278.4704489999996,
          "velocity": 0.7874015748031497,
          "duration": 0.17647050000005038
        },
        {
          "name": "F#2",
          "midi": 42,
          "time": 278.4704489999996,
          "velocity": 0.7874015748031497,
          "duration": 0.17647050000005038
        },
        {
          "name": "F#2",
          "midi": 42,
          "time": 278.5586842499996,
          "velocity": 0.7874015748031497,
          "duration": 0.17647050000005038
        },
        {
          "name": "F#2",
          "midi": 42,
          "time": 278.6469194999996,
          "velocity": 0.7874015748031497,
          "duration": 0.17647050000005038
        },
        {
          "name": "F#2",
          "midi": 42,
          "time": 278.73515474999965,
          "velocity": 0.7874015748031497,
          "duration": 0.17647050000005038
        },
        {
          "name": "C2",
          "midi": 36,
          "time": 278.8233899999997,
          "velocity": 0.7874015748031497,
          "duration": 0.17647050000005038
        },
        {
          "name": "F#2",
          "midi": 42,
          "time": 278.8233899999997,
          "velocity": 0.7874015748031497,
          "duration": 0.17647050000005038
        },
        {
          "name": "F#2",
          "midi": 42,
          "time": 278.8233899999997,
          "velocity": 0.7874015748031497,
          "duration": 0.17647050000005038
        },
        {
          "name": "F#2",
          "midi": 42,
          "time": 278.9116252499997,
          "velocity": 0.7874015748031497,
          "duration": 0.17647050000005038
        },
        {
          "name": "A#2",
          "midi": 46,
          "time": 278.9998604999997,
          "velocity": 0.7874015748031497,
          "duration": 0.17647050000005038
        },
        {
          "name": "F#2",
          "midi": 42,
          "time": 279.08809574999975,
          "velocity": 0.7874015748031497,
          "duration": 0.17647050000005038
        },
        {
          "name": "C2",
          "midi": 36,
          "time": 279.1763309999998,
          "velocity": 0.7874015748031497,
          "duration": 0.17647050000005038
        },
        {
          "name": "F#2",
          "midi": 42,
          "time": 279.1763309999998,
          "velocity": 0.7874015748031497,
          "duration": 0.17647050000005038
        },
        {
          "name": "F#2",
          "midi": 42,
          "time": 279.2645662499998,
          "velocity": 0.7874015748031497,
          "duration": 0.17647050000005038
        },
        {
          "name": "A#2",
          "midi": 46,
          "time": 279.3528014999998,
          "velocity": 0.7874015748031497,
          "duration": 0.17647050000005038
        },
        {
          "name": "F#2",
          "midi": 42,
          "time": 279.44103674999985,
          "velocity": 0.7874015748031497,
          "duration": 0.17647050000005038
        },
        {
          "name": "C2",
          "midi": 36,
          "time": 279.5292719999999,
          "velocity": 0.7874015748031497,
          "duration": 0.17647050000005038
        },
        {
          "name": "F#2",
          "midi": 42,
          "time": 279.5292719999999,
          "velocity": 0.7874015748031497,
          "duration": 0.17647050000005038
        },
        {
          "name": "F#2",
          "midi": 42,
          "time": 279.6175072499999,
          "velocity": 0.7874015748031497,
          "duration": 0.17647050000005038
        },
        {
          "name": "F#2",
          "midi": 42,
          "time": 279.70574249999993,
          "velocity": 0.7874015748031497,
          "duration": 0.17647050000005038
        },
        {
          "name": "F#2",
          "midi": 42,
          "time": 279.79397774999995,
          "velocity": 0.7874015748031497,
          "duration": 0.17647050000005038
        },
        {
          "name": "C2",
          "midi": 36,
          "time": 279.882213,
          "velocity": 0.7874015748031497,
          "duration": 0.17647050000005038
        },
        {
          "name": "F#2",
          "midi": 42,
          "time": 279.882213,
          "velocity": 0.7874015748031497,
          "duration": 0.17647050000005038
        },
        {
          "name": "F#2",
          "midi": 42,
          "time": 279.97044825,
          "velocity": 0.7874015748031497,
          "duration": 0.17647050000005038
        },
        {
          "name": "F#2",
          "midi": 42,
          "time": 280.05868350000003,
          "velocity": 0.7874015748031497,
          "duration": 0.17647050000005038
        },
        {
          "name": "F#2",
          "midi": 42,
          "time": 280.14691875000005,
          "velocity": 0.7874015748031497,
          "duration": 0.17647050000005038
        },
        {
          "name": "C2",
          "midi": 36,
          "time": 280.2351540000001,
          "velocity": 0.7874015748031497,
          "duration": 0.17647050000005038
        },
        {
          "name": "F#2",
          "midi": 42,
          "time": 280.2351540000001,
          "velocity": 0.7874015748031497,
          "duration": 0.17647050000005038
        },
        {
          "name": "F#2",
          "midi": 42,
          "time": 280.2351540000001,
          "velocity": 0.7874015748031497,
          "duration": 0.17647050000005038
        },
        {
          "name": "F#2",
          "midi": 42,
          "time": 280.3233892500001,
          "velocity": 0.7874015748031497,
          "duration": 0.17647050000005038
        },
        {
          "name": "F#2",
          "midi": 42,
          "time": 280.41162450000013,
          "velocity": 0.7874015748031497,
          "duration": 0.17647050000005038
        },
        {
          "name": "F#2",
          "midi": 42,
          "time": 280.49985975000016,
          "velocity": 0.7874015748031497,
          "duration": 0.17647050000005038
        },
        {
          "name": "C2",
          "midi": 36,
          "time": 280.5880950000002,
          "velocity": 0.7874015748031497,
          "duration": 0.17647050000005038
        },
        {
          "name": "F#2",
          "midi": 42,
          "time": 280.5880950000002,
          "velocity": 0.7874015748031497,
          "duration": 0.17647050000005038
        },
        {
          "name": "F#2",
          "midi": 42,
          "time": 280.6763302500002,
          "velocity": 0.7874015748031497,
          "duration": 0.17647050000005038
        },
        {
          "name": "F#2",
          "midi": 42,
          "time": 280.76456550000023,
          "velocity": 0.7874015748031497,
          "duration": 0.17647050000005038
        },
        {
          "name": "F#2",
          "midi": 42,
          "time": 280.85280075000026,
          "velocity": 0.7874015748031497,
          "duration": 0.17647050000005038
        },
        {
          "name": "C2",
          "midi": 36,
          "time": 280.9410360000003,
          "velocity": 0.7874015748031497,
          "duration": 0.17647050000005038
        },
        {
          "name": "F#2",
          "midi": 42,
          "time": 280.9410360000003,
          "velocity": 0.7874015748031497,
          "duration": 0.17647050000005038
        },
        {
          "name": "F#2",
          "midi": 42,
          "time": 280.9410360000003,
          "velocity": 0.7874015748031497,
          "duration": 0.17647050000005038
        },
        {
          "name": "F#2",
          "midi": 42,
          "time": 281.0292712500003,
          "velocity": 0.7874015748031497,
          "duration": 0.17647050000005038
        },
        {
          "name": "F#2",
          "midi": 42,
          "time": 281.11750650000033,
          "velocity": 0.7874015748031497,
          "duration": 0.17647050000005038
        },
        {
          "name": "F#2",
          "midi": 42,
          "time": 281.20574175000036,
          "velocity": 0.7874015748031497,
          "duration": 0.17647050000005038
        },
        {
          "name": "C2",
          "midi": 36,
          "time": 281.2939770000004,
          "velocity": 0.7874015748031497,
          "duration": 0.17647050000005038
        },
        {
          "name": "F#2",
          "midi": 42,
          "time": 281.2939770000004,
          "velocity": 0.7874015748031497,
          "duration": 0.17647050000005038
        },
        {
          "name": "F#2",
          "midi": 42,
          "time": 281.3822122500004,
          "velocity": 0.7874015748031497,
          "duration": 0.17647050000005038
        },
        {
          "name": "F#2",
          "midi": 42,
          "time": 281.47044750000043,
          "velocity": 0.7874015748031497,
          "duration": 0.17647050000005038
        },
        {
          "name": "F#2",
          "midi": 42,
          "time": 281.55868275000046,
          "velocity": 0.7874015748031497,
          "duration": 0.17647050000005038
        },
        {
          "name": "C2",
          "midi": 36,
          "time": 281.6469180000005,
          "velocity": 0.7874015748031497,
          "duration": 0.17647050000005038
        },
        {
          "name": "F#2",
          "midi": 42,
          "time": 281.6469180000005,
          "velocity": 0.7874015748031497,
          "duration": 0.17647050000005038
        },
        {
          "name": "F#2",
          "midi": 42,
          "time": 281.6469180000005,
          "velocity": 0.7874015748031497,
          "duration": 0.17647050000005038
        },
        {
          "name": "F#2",
          "midi": 42,
          "time": 281.7351532500005,
          "velocity": 0.7874015748031497,
          "duration": 0.17647050000005038
        },
        {
          "name": "A#2",
          "midi": 46,
          "time": 281.82338850000053,
          "velocity": 0.7874015748031497,
          "duration": 0.17647050000005038
        },
        {
          "name": "F#2",
          "midi": 42,
          "time": 281.91162375000056,
          "velocity": 0.7874015748031497,
          "duration": 0.17647050000005038
        },
        {
          "name": "C2",
          "midi": 36,
          "time": 281.9998590000006,
          "velocity": 0.7874015748031497,
          "duration": 0.17647050000005038
        },
        {
          "name": "F#2",
          "midi": 42,
          "time": 281.9998590000006,
          "velocity": 0.7874015748031497,
          "duration": 0.17647050000005038
        },
        {
          "name": "F#2",
          "midi": 42,
          "time": 282.0880942500006,
          "velocity": 0.7874015748031497,
          "duration": 0.17647050000005038
        },
        {
          "name": "A#2",
          "midi": 46,
          "time": 282.17632950000063,
          "velocity": 0.7874015748031497,
          "duration": 0.17647050000005038
        },
        {
          "name": "F#2",
          "midi": 42,
          "time": 282.26456475000066,
          "velocity": 0.7874015748031497,
          "duration": 0.17647050000005038
        },
        {
          "name": "C2",
          "midi": 36,
          "time": 282.3528000000007,
          "velocity": 0.7874015748031497,
          "duration": 0.17647050000005038
        },
        {
          "name": "G3",
          "midi": 55,
          "time": 282.3528000000007,
          "velocity": 0.7874015748031497,
          "duration": 0.17647050000005038
        },
        {
          "name": "F#2",
          "midi": 42,
          "time": 282.4410352500007,
          "velocity": 0.7874015748031497,
          "duration": 0.17647050000005038
        },
        {
          "name": "F#2",
          "midi": 42,
          "time": 282.52927050000073,
          "velocity": 0.7874015748031497,
          "duration": 0.17647050000005038
        },
        {
          "name": "F#2",
          "midi": 42,
          "time": 282.61750575000076,
          "velocity": 0.7874015748031497,
          "duration": 0.17647050000005038
        },
        {
          "name": "C2",
          "midi": 36,
          "time": 282.7057410000008,
          "velocity": 0.7874015748031497,
          "duration": 0.17647050000005038
        },
        {
          "name": "F#2",
          "midi": 42,
          "time": 282.7057410000008,
          "velocity": 0.7874015748031497,
          "duration": 0.17647050000005038
        },
        {
          "name": "F#2",
          "midi": 42,
          "time": 282.7939762500008,
          "velocity": 0.7874015748031497,
          "duration": 0.17647050000005038
        },
        {
          "name": "F#2",
          "midi": 42,
          "time": 282.88221150000084,
          "velocity": 0.7874015748031497,
          "duration": 0.17647050000005038
        },
        {
          "name": "F#2",
          "midi": 42,
          "time": 282.97044675000086,
          "velocity": 0.7874015748031497,
          "duration": 0.17647050000005038
        },
        {
          "name": "C2",
          "midi": 36,
          "time": 283.0586820000009,
          "velocity": 0.7874015748031497,
          "duration": 0.17647050000005038
        },
        {
          "name": "F#2",
          "midi": 42,
          "time": 283.0586820000009,
          "velocity": 0.7874015748031497,
          "duration": 0.17647050000005038
        },
        {
          "name": "F#2",
          "midi": 42,
          "time": 283.0586820000009,
          "velocity": 0.7874015748031497,
          "duration": 0.17647050000005038
        },
        {
          "name": "F#2",
          "midi": 42,
          "time": 283.1469172500009,
          "velocity": 0.7874015748031497,
          "duration": 0.17647050000005038
        },
        {
          "name": "F#2",
          "midi": 42,
          "time": 283.23515250000094,
          "velocity": 0.7874015748031497,
          "duration": 0.17647050000005038
        },
        {
          "name": "F#2",
          "midi": 42,
          "time": 283.32338775000096,
          "velocity": 0.7874015748031497,
          "duration": 0.17647050000005038
        },
        {
          "name": "C2",
          "midi": 36,
          "time": 283.411623000001,
          "velocity": 0.7874015748031497,
          "duration": 0.17647050000005038
        },
        {
          "name": "F#2",
          "midi": 42,
          "time": 283.411623000001,
          "velocity": 0.7874015748031497,
          "duration": 0.17647050000005038
        },
        {
          "name": "F#2",
          "midi": 42,
          "time": 283.499858250001,
          "velocity": 0.7874015748031497,
          "duration": 0.17647050000005038
        },
        {
          "name": "F#2",
          "midi": 42,
          "time": 283.58809350000104,
          "velocity": 0.7874015748031497,
          "duration": 0.17647050000005038
        },
        {
          "name": "F#2",
          "midi": 42,
          "time": 283.67632875000106,
          "velocity": 0.7874015748031497,
          "duration": 0.17647050000005038
        },
        {
          "name": "C2",
          "midi": 36,
          "time": 283.7645640000011,
          "velocity": 0.7874015748031497,
          "duration": 0.17647050000005038
        },
        {
          "name": "F#2",
          "midi": 42,
          "time": 283.7645640000011,
          "velocity": 0.7874015748031497,
          "duration": 0.17647050000005038
        },
        {
          "name": "F#2",
          "midi": 42,
          "time": 283.7645640000011,
          "velocity": 0.7874015748031497,
          "duration": 0.17647050000005038
        },
        {
          "name": "F#2",
          "midi": 42,
          "time": 283.8527992500011,
          "velocity": 0.7874015748031497,
          "duration": 0.17647050000005038
        },
        {
          "name": "F#2",
          "midi": 42,
          "time": 283.94103450000114,
          "velocity": 0.7874015748031497,
          "duration": 0.17647050000005038
        },
        {
          "name": "F#2",
          "midi": 42,
          "time": 284.02926975000116,
          "velocity": 0.7874015748031497,
          "duration": 0.17647050000005038
        },
        {
          "name": "C2",
          "midi": 36,
          "time": 284.1175050000012,
          "velocity": 0.7874015748031497,
          "duration": 0.17647050000005038
        },
        {
          "name": "F#2",
          "midi": 42,
          "time": 284.1175050000012,
          "velocity": 0.7874015748031497,
          "duration": 0.17647050000005038
        },
        {
          "name": "F#2",
          "midi": 42,
          "time": 284.2057402500012,
          "velocity": 0.7874015748031497,
          "duration": 0.17647050000005038
        },
        {
          "name": "F#2",
          "midi": 42,
          "time": 284.29397550000124,
          "velocity": 0.7874015748031497,
          "duration": 0.17647050000005038
        },
        {
          "name": "F#2",
          "midi": 42,
          "time": 284.38221075000126,
          "velocity": 0.7874015748031497,
          "duration": 0.17647050000005038
        },
        {
          "name": "C2",
          "midi": 36,
          "time": 284.4704460000013,
          "velocity": 0.7874015748031497,
          "duration": 0.17647050000005038
        },
        {
          "name": "F#2",
          "midi": 42,
          "time": 284.4704460000013,
          "velocity": 0.7874015748031497,
          "duration": 0.17647050000005038
        },
        {
          "name": "F#2",
          "midi": 42,
          "time": 284.4704460000013,
          "velocity": 0.7874015748031497,
          "duration": 0.17647050000005038
        },
        {
          "name": "F#2",
          "midi": 42,
          "time": 284.5586812500013,
          "velocity": 0.7874015748031497,
          "duration": 0.17647050000005038
        },
        {
          "name": "A#2",
          "midi": 46,
          "time": 284.64691650000134,
          "velocity": 0.7874015748031497,
          "duration": 0.17647050000005038
        },
        {
          "name": "F#2",
          "midi": 42,
          "time": 284.73515175000136,
          "velocity": 0.7874015748031497,
          "duration": 0.17647050000005038
        },
        {
          "name": "C2",
          "midi": 36,
          "time": 284.8233870000014,
          "velocity": 0.7874015748031497,
          "duration": 0.17647050000005038
        },
        {
          "name": "F#2",
          "midi": 42,
          "time": 284.8233870000014,
          "velocity": 0.7874015748031497,
          "duration": 0.17647050000005038
        },
        {
          "name": "F#2",
          "midi": 42,
          "time": 284.9116222500014,
          "velocity": 0.7874015748031497,
          "duration": 0.17647050000005038
        },
        {
          "name": "A#2",
          "midi": 46,
          "time": 284.99985750000144,
          "velocity": 0.7874015748031497,
          "duration": 0.17647050000005038
        },
        {
          "name": "F#2",
          "midi": 42,
          "time": 285.08809275000146,
          "velocity": 0.7874015748031497,
          "duration": 0.17647050000005038
        },
        {
          "name": "C2",
          "midi": 36,
          "time": 285.1763280000015,
          "velocity": 0.7874015748031497,
          "duration": 0.17647050000005038
        },
        {
          "name": "F#2",
          "midi": 42,
          "time": 285.1763280000015,
          "velocity": 0.7874015748031497,
          "duration": 0.17647050000005038
        },
        {
          "name": "F#2",
          "midi": 42,
          "time": 285.2645632500015,
          "velocity": 0.7874015748031497,
          "duration": 0.17647050000005038
        },
        {
          "name": "F#2",
          "midi": 42,
          "time": 285.35279850000154,
          "velocity": 0.7874015748031497,
          "duration": 0.17647050000005038
        },
        {
          "name": "F#2",
          "midi": 42,
          "time": 285.44103375000157,
          "velocity": 0.7874015748031497,
          "duration": 0.17647050000005038
        },
        {
          "name": "C2",
          "midi": 36,
          "time": 285.5292690000016,
          "velocity": 0.7874015748031497,
          "duration": 0.17647050000005038
        },
        {
          "name": "F#2",
          "midi": 42,
          "time": 285.5292690000016,
          "velocity": 0.7874015748031497,
          "duration": 0.17647050000005038
        },
        {
          "name": "F#2",
          "midi": 42,
          "time": 285.6175042500016,
          "velocity": 0.7874015748031497,
          "duration": 0.17647050000005038
        },
        {
          "name": "F#2",
          "midi": 42,
          "time": 285.70573950000164,
          "velocity": 0.7874015748031497,
          "duration": 0.17647050000005038
        },
        {
          "name": "F#2",
          "midi": 42,
          "time": 285.79397475000167,
          "velocity": 0.7874015748031497,
          "duration": 0.17647050000005038
        },
        {
          "name": "C2",
          "midi": 36,
          "time": 285.8822100000017,
          "velocity": 0.7874015748031497,
          "duration": 0.17647050000005038
        },
        {
          "name": "F#2",
          "midi": 42,
          "time": 285.8822100000017,
          "velocity": 0.7874015748031497,
          "duration": 0.17647050000005038
        },
        {
          "name": "F#2",
          "midi": 42,
          "time": 285.8822100000017,
          "velocity": 0.7874015748031497,
          "duration": 0.17647050000005038
        },
        {
          "name": "F#2",
          "midi": 42,
          "time": 285.9704452500017,
          "velocity": 0.7874015748031497,
          "duration": 0.17647050000005038
        },
        {
          "name": "F#2",
          "midi": 42,
          "time": 286.05868050000174,
          "velocity": 0.7874015748031497,
          "duration": 0.17647050000005038
        },
        {
          "name": "F#2",
          "midi": 42,
          "time": 286.14691575000177,
          "velocity": 0.7874015748031497,
          "duration": 0.17647050000005038
        },
        {
          "name": "C2",
          "midi": 36,
          "time": 286.2351510000018,
          "velocity": 0.7874015748031497,
          "duration": 0.17647050000005038
        },
        {
          "name": "F#2",
          "midi": 42,
          "time": 286.2351510000018,
          "velocity": 0.7874015748031497,
          "duration": 0.17647050000005038
        },
        {
          "name": "F#2",
          "midi": 42,
          "time": 286.3233862500018,
          "velocity": 0.7874015748031497,
          "duration": 0.17647050000005038
        },
        {
          "name": "F#2",
          "midi": 42,
          "time": 286.41162150000184,
          "velocity": 0.7874015748031497,
          "duration": 0.17647050000005038
        },
        {
          "name": "F#2",
          "midi": 42,
          "time": 286.49985675000187,
          "velocity": 0.7874015748031497,
          "duration": 0.17647050000005038
        },
        {
          "name": "C2",
          "midi": 36,
          "time": 286.5880920000019,
          "velocity": 0.7874015748031497,
          "duration": 0.17647050000005038
        },
        {
          "name": "F#2",
          "midi": 42,
          "time": 286.5880920000019,
          "velocity": 0.7874015748031497,
          "duration": 0.17647050000005038
        },
        {
          "name": "F#2",
          "midi": 42,
          "time": 286.5880920000019,
          "velocity": 0.7874015748031497,
          "duration": 0.17647050000005038
        },
        {
          "name": "F#2",
          "midi": 42,
          "time": 286.6763272500019,
          "velocity": 0.7874015748031497,
          "duration": 0.17647050000005038
        },
        {
          "name": "F#2",
          "midi": 42,
          "time": 286.76456250000194,
          "velocity": 0.7874015748031497,
          "duration": 0.17647050000005038
        },
        {
          "name": "F#2",
          "midi": 42,
          "time": 286.85279775000197,
          "velocity": 0.7874015748031497,
          "duration": 0.17647050000005038
        },
        {
          "name": "C2",
          "midi": 36,
          "time": 286.941033000002,
          "velocity": 0.7874015748031497,
          "duration": 0.17647050000005038
        },
        {
          "name": "F#2",
          "midi": 42,
          "time": 286.941033000002,
          "velocity": 0.7874015748031497,
          "duration": 0.17647050000005038
        },
        {
          "name": "F#2",
          "midi": 42,
          "time": 287.029268250002,
          "velocity": 0.7874015748031497,
          "duration": 0.17647050000005038
        },
        {
          "name": "F#2",
          "midi": 42,
          "time": 287.11750350000204,
          "velocity": 0.7874015748031497,
          "duration": 0.17647050000005038
        },
        {
          "name": "F#2",
          "midi": 42,
          "time": 287.20573875000207,
          "velocity": 0.7874015748031497,
          "duration": 0.17647050000005038
        },
        {
          "name": "C2",
          "midi": 36,
          "time": 287.2939740000021,
          "velocity": 0.7874015748031497,
          "duration": 0.17647050000005038
        },
        {
          "name": "F#2",
          "midi": 42,
          "time": 287.2939740000021,
          "velocity": 0.7874015748031497,
          "duration": 0.17647050000005038
        },
        {
          "name": "F#2",
          "midi": 42,
          "time": 287.2939740000021,
          "velocity": 0.7874015748031497,
          "duration": 0.17647050000005038
        },
        {
          "name": "F#2",
          "midi": 42,
          "time": 287.3822092500021,
          "velocity": 0.7874015748031497,
          "duration": 0.17647050000005038
        },
        {
          "name": "A#2",
          "midi": 46,
          "time": 287.47044450000215,
          "velocity": 0.7874015748031497,
          "duration": 0.17647050000005038
        },
        {
          "name": "F#2",
          "midi": 42,
          "time": 287.55867975000217,
          "velocity": 0.7874015748031497,
          "duration": 0.17647050000005038
        },
        {
          "name": "C2",
          "midi": 36,
          "time": 287.6469150000022,
          "velocity": 0.7874015748031497,
          "duration": 0.17647050000005038
        },
        {
          "name": "F#2",
          "midi": 42,
          "time": 287.6469150000022,
          "velocity": 0.7874015748031497,
          "duration": 0.17647050000005038
        },
        {
          "name": "F#2",
          "midi": 42,
          "time": 287.7351502500022,
          "velocity": 0.7874015748031497,
          "duration": 0.17647050000005038
        },
        {
          "name": "A#2",
          "midi": 46,
          "time": 287.82338550000225,
          "velocity": 0.7874015748031497,
          "duration": 0.17647050000005038
        },
        {
          "name": "F#2",
          "midi": 42,
          "time": 287.91162075000227,
          "velocity": 0.7874015748031497,
          "duration": 0.17647050000005038
        },
        {
          "name": "C2",
          "midi": 36,
          "time": 287.9998560000023,
          "velocity": 0.7874015748031497,
          "duration": 0.17647050000005038
        },
        {
          "name": "G3",
          "midi": 55,
          "time": 287.9998560000023,
          "velocity": 0.7874015748031497,
          "duration": 0.17647050000005038
        },
        {
          "name": "F#2",
          "midi": 42,
          "time": 288.0880912500023,
          "velocity": 0.7874015748031497,
          "duration": 0.17647050000005038
        },
        {
          "name": "F#2",
          "midi": 42,
          "time": 288.17632650000235,
          "velocity": 0.7874015748031497,
          "duration": 0.17647050000005038
        },
        {
          "name": "F#2",
          "midi": 42,
          "time": 288.2645617500024,
          "velocity": 0.7874015748031497,
          "duration": 0.17647050000005038
        },
        {
          "name": "C2",
          "midi": 36,
          "time": 288.3527970000024,
          "velocity": 0.7874015748031497,
          "duration": 0.17647050000005038
        },
        {
          "name": "F#2",
          "midi": 42,
          "time": 288.3527970000024,
          "velocity": 0.7874015748031497,
          "duration": 0.17647050000005038
        },
        {
          "name": "F#2",
          "midi": 42,
          "time": 288.4410322500024,
          "velocity": 0.7874015748031497,
          "duration": 0.17647050000005038
        },
        {
          "name": "F#2",
          "midi": 42,
          "time": 288.52926750000245,
          "velocity": 0.7874015748031497,
          "duration": 0.17647050000005038
        },
        {
          "name": "F#2",
          "midi": 42,
          "time": 288.6175027500025,
          "velocity": 0.7874015748031497,
          "duration": 0.17647050000005038
        },
        {
          "name": "C2",
          "midi": 36,
          "time": 288.7057380000025,
          "velocity": 0.7874015748031497,
          "duration": 0.17647050000005038
        },
        {
          "name": "F#2",
          "midi": 42,
          "time": 288.7057380000025,
          "velocity": 0.7874015748031497,
          "duration": 0.17647050000005038
        },
        {
          "name": "F#2",
          "midi": 42,
          "time": 288.7057380000025,
          "velocity": 0.7874015748031497,
          "duration": 0.17647050000005038
        },
        {
          "name": "F#2",
          "midi": 42,
          "time": 288.7939732500025,
          "velocity": 0.7874015748031497,
          "duration": 0.17647050000005038
        },
        {
          "name": "F#2",
          "midi": 42,
          "time": 288.88220850000255,
          "velocity": 0.7874015748031497,
          "duration": 0.17647050000005038
        },
        {
          "name": "F#2",
          "midi": 42,
          "time": 288.9704437500026,
          "velocity": 0.7874015748031497,
          "duration": 0.17647050000005038
        },
        {
          "name": "C2",
          "midi": 36,
          "time": 289.0586790000026,
          "velocity": 0.7874015748031497,
          "duration": 0.17647050000005038
        },
        {
          "name": "F#2",
          "midi": 42,
          "time": 289.0586790000026,
          "velocity": 0.7874015748031497,
          "duration": 0.17647050000005038
        },
        {
          "name": "F#2",
          "midi": 42,
          "time": 289.1469142500026,
          "velocity": 0.7874015748031497,
          "duration": 0.17647050000005038
        },
        {
          "name": "F#2",
          "midi": 42,
          "time": 289.23514950000265,
          "velocity": 0.7874015748031497,
          "duration": 0.17647050000005038
        },
        {
          "name": "F#2",
          "midi": 42,
          "time": 289.3233847500027,
          "velocity": 0.7874015748031497,
          "duration": 0.17647050000005038
        },
        {
          "name": "C2",
          "midi": 36,
          "time": 289.4116200000027,
          "velocity": 0.7874015748031497,
          "duration": 0.17647050000005038
        },
        {
          "name": "F#2",
          "midi": 42,
          "time": 289.4116200000027,
          "velocity": 0.7874015748031497,
          "duration": 0.17647050000005038
        },
        {
          "name": "F#2",
          "midi": 42,
          "time": 289.4116200000027,
          "velocity": 0.7874015748031497,
          "duration": 0.17647050000005038
        },
        {
          "name": "F#2",
          "midi": 42,
          "time": 289.4998552500027,
          "velocity": 0.7874015748031497,
          "duration": 0.17647050000005038
        },
        {
          "name": "F#2",
          "midi": 42,
          "time": 289.58809050000275,
          "velocity": 0.7874015748031497,
          "duration": 0.17647050000005038
        },
        {
          "name": "F#2",
          "midi": 42,
          "time": 289.6763257500028,
          "velocity": 0.7874015748031497,
          "duration": 0.17647050000005038
        },
        {
          "name": "C2",
          "midi": 36,
          "time": 289.7645610000028,
          "velocity": 0.7874015748031497,
          "duration": 0.17647050000005038
        },
        {
          "name": "F#2",
          "midi": 42,
          "time": 289.7645610000028,
          "velocity": 0.7874015748031497,
          "duration": 0.17647050000005038
        },
        {
          "name": "F#2",
          "midi": 42,
          "time": 289.8527962500028,
          "velocity": 0.7874015748031497,
          "duration": 0.17647050000005038
        },
        {
          "name": "F#2",
          "midi": 42,
          "time": 289.94103150000285,
          "velocity": 0.7874015748031497,
          "duration": 0.17647050000005038
        },
        {
          "name": "F#2",
          "midi": 42,
          "time": 290.0292667500029,
          "velocity": 0.7874015748031497,
          "duration": 0.17647050000005038
        },
        {
          "name": "C2",
          "midi": 36,
          "time": 290.1175020000029,
          "velocity": 0.7874015748031497,
          "duration": 0.17647050000005038
        },
        {
          "name": "F#2",
          "midi": 42,
          "time": 290.1175020000029,
          "velocity": 0.7874015748031497,
          "duration": 0.17647050000005038
        },
        {
          "name": "F#2",
          "midi": 42,
          "time": 290.1175020000029,
          "velocity": 0.7874015748031497,
          "duration": 0.17647050000005038
        },
        {
          "name": "F#2",
          "midi": 42,
          "time": 290.2057372500029,
          "velocity": 0.7874015748031497,
          "duration": 0.17647050000005038
        },
        {
          "name": "A#2",
          "midi": 46,
          "time": 290.29397250000295,
          "velocity": 0.7874015748031497,
          "duration": 0.17647050000005038
        },
        {
          "name": "F#2",
          "midi": 42,
          "time": 290.382207750003,
          "velocity": 0.7874015748031497,
          "duration": 0.17647050000005038
        },
        {
          "name": "C2",
          "midi": 36,
          "time": 290.470443000003,
          "velocity": 0.7874015748031497,
          "duration": 0.17647050000005038
        },
        {
          "name": "F#2",
          "midi": 42,
          "time": 290.470443000003,
          "velocity": 0.7874015748031497,
          "duration": 0.17647050000005038
        },
        {
          "name": "F#2",
          "midi": 42,
          "time": 290.558678250003,
          "velocity": 0.7874015748031497,
          "duration": 0.17647050000005038
        },
        {
          "name": "A#2",
          "midi": 46,
          "time": 290.64691350000305,
          "velocity": 0.7874015748031497,
          "duration": 0.17647050000005038
        },
        {
          "name": "F#2",
          "midi": 42,
          "time": 290.7351487500031,
          "velocity": 0.7874015748031497,
          "duration": 0.17647050000005038
        },
        {
          "name": "C2",
          "midi": 36,
          "time": 290.8233840000031,
          "velocity": 0.7874015748031497,
          "duration": 0.17647050000005038
        },
        {
          "name": "F#2",
          "midi": 42,
          "time": 290.8233840000031,
          "velocity": 0.7874015748031497,
          "duration": 0.17647050000005038
        },
        {
          "name": "F#2",
          "midi": 42,
          "time": 290.9116192500031,
          "velocity": 0.7874015748031497,
          "duration": 0.17647050000005038
        },
        {
          "name": "F#2",
          "midi": 42,
          "time": 290.99985450000315,
          "velocity": 0.7874015748031497,
          "duration": 0.17647050000005038
        },
        {
          "name": "F#2",
          "midi": 42,
          "time": 291.0880897500032,
          "velocity": 0.7874015748031497,
          "duration": 0.17647050000005038
        },
        {
          "name": "C2",
          "midi": 36,
          "time": 291.1763250000032,
          "velocity": 0.7874015748031497,
          "duration": 0.17647050000005038
        },
        {
          "name": "F#2",
          "midi": 42,
          "time": 291.1763250000032,
          "velocity": 0.7874015748031497,
          "duration": 0.17647050000005038
        },
        {
          "name": "F#2",
          "midi": 42,
          "time": 291.2645602500032,
          "velocity": 0.7874015748031497,
          "duration": 0.17647050000005038
        },
        {
          "name": "F#2",
          "midi": 42,
          "time": 291.35279550000325,
          "velocity": 0.7874015748031497,
          "duration": 0.17647050000005038
        },
        {
          "name": "F#2",
          "midi": 42,
          "time": 291.4410307500033,
          "velocity": 0.7874015748031497,
          "duration": 0.17647050000005038
        },
        {
          "name": "C2",
          "midi": 36,
          "time": 291.5292660000033,
          "velocity": 0.7874015748031497,
          "duration": 0.17647050000005038
        },
        {
          "name": "F#2",
          "midi": 42,
          "time": 291.5292660000033,
          "velocity": 0.7874015748031497,
          "duration": 0.17647050000005038
        },
        {
          "name": "F#2",
          "midi": 42,
          "time": 291.5292660000033,
          "velocity": 0.7874015748031497,
          "duration": 0.17647050000005038
        },
        {
          "name": "F#2",
          "midi": 42,
          "time": 291.61750125000333,
          "velocity": 0.7874015748031497,
          "duration": 0.17647050000005038
        },
        {
          "name": "F#2",
          "midi": 42,
          "time": 291.70573650000335,
          "velocity": 0.7874015748031497,
          "duration": 0.17647050000005038
        },
        {
          "name": "F#2",
          "midi": 42,
          "time": 291.7939717500034,
          "velocity": 0.7874015748031497,
          "duration": 0.17647050000005038
        },
        {
          "name": "C2",
          "midi": 36,
          "time": 291.8822070000034,
          "velocity": 0.7874015748031497,
          "duration": 0.17647050000005038
        },
        {
          "name": "F#2",
          "midi": 42,
          "time": 291.8822070000034,
          "velocity": 0.7874015748031497,
          "duration": 0.17647050000005038
        },
        {
          "name": "F#2",
          "midi": 42,
          "time": 291.97044225000343,
          "velocity": 0.7874015748031497,
          "duration": 0.17647050000005038
        },
        {
          "name": "F#2",
          "midi": 42,
          "time": 292.05867750000345,
          "velocity": 0.7874015748031497,
          "duration": 0.17647050000005038
        },
        {
          "name": "F#2",
          "midi": 42,
          "time": 292.1469127500035,
          "velocity": 0.7874015748031497,
          "duration": 0.17647050000005038
        },
        {
          "name": "C2",
          "midi": 36,
          "time": 292.2351480000035,
          "velocity": 0.7874015748031497,
          "duration": 0.17647050000005038
        },
        {
          "name": "F#2",
          "midi": 42,
          "time": 292.2351480000035,
          "velocity": 0.7874015748031497,
          "duration": 0.17647050000005038
        },
        {
          "name": "F#2",
          "midi": 42,
          "time": 292.2351480000035,
          "velocity": 0.7874015748031497,
          "duration": 0.17647050000005038
        },
        {
          "name": "F#2",
          "midi": 42,
          "time": 292.32338325000353,
          "velocity": 0.7874015748031497,
          "duration": 0.17647050000005038
        },
        {
          "name": "F#2",
          "midi": 42,
          "time": 292.41161850000356,
          "velocity": 0.7874015748031497,
          "duration": 0.17647050000005038
        },
        {
          "name": "F#2",
          "midi": 42,
          "time": 292.4998537500036,
          "velocity": 0.7874015748031497,
          "duration": 0.17647050000005038
        },
        {
          "name": "C2",
          "midi": 36,
          "time": 292.5880890000036,
          "velocity": 0.7874015748031497,
          "duration": 0.17647050000005038
        },
        {
          "name": "F#2",
          "midi": 42,
          "time": 292.5880890000036,
          "velocity": 0.7874015748031497,
          "duration": 0.17647050000005038
        },
        {
          "name": "F#2",
          "midi": 42,
          "time": 292.67632425000363,
          "velocity": 0.7874015748031497,
          "duration": 0.17647050000005038
        },
        {
          "name": "F#2",
          "midi": 42,
          "time": 292.76455950000366,
          "velocity": 0.7874015748031497,
          "duration": 0.17647050000005038
        },
        {
          "name": "F#2",
          "midi": 42,
          "time": 292.8527947500037,
          "velocity": 0.7874015748031497,
          "duration": 0.17647050000005038
        },
        {
          "name": "C2",
          "midi": 36,
          "time": 292.9410300000037,
          "velocity": 0.7874015748031497,
          "duration": 0.17647050000005038
        },
        {
          "name": "F#2",
          "midi": 42,
          "time": 292.9410300000037,
          "velocity": 0.7874015748031497,
          "duration": 0.17647050000005038
        },
        {
          "name": "F#2",
          "midi": 42,
          "time": 292.9410300000037,
          "velocity": 0.7874015748031497,
          "duration": 0.17647050000005038
        },
        {
          "name": "F#2",
          "midi": 42,
          "time": 293.02926525000373,
          "velocity": 0.7874015748031497,
          "duration": 0.17647050000005038
        },
        {
          "name": "A#2",
          "midi": 46,
          "time": 293.11750050000376,
          "velocity": 0.7874015748031497,
          "duration": 0.17647050000005038
        },
        {
          "name": "F#2",
          "midi": 42,
          "time": 293.2057357500038,
          "velocity": 0.7874015748031497,
          "duration": 0.17647050000005038
        },
        {
          "name": "C2",
          "midi": 36,
          "time": 293.2939710000038,
          "velocity": 0.7874015748031497,
          "duration": 0.17647050000005038
        },
        {
          "name": "F#2",
          "midi": 42,
          "time": 293.2939710000038,
          "velocity": 0.7874015748031497,
          "duration": 0.17647050000005038
        },
        {
          "name": "F#2",
          "midi": 42,
          "time": 293.38220625000383,
          "velocity": 0.7874015748031497,
          "duration": 0.17647050000005038
        },
        {
          "name": "A#2",
          "midi": 46,
          "time": 293.47044150000386,
          "velocity": 0.7874015748031497,
          "duration": 0.17647050000005038
        },
        {
          "name": "F#2",
          "midi": 42,
          "time": 293.5586767500039,
          "velocity": 0.7874015748031497,
          "duration": 0.17647050000005038
        },
        {
          "name": "C2",
          "midi": 36,
          "time": 293.6469120000039,
          "velocity": 0.7874015748031497,
          "duration": 0.17647050000005038
        },
        {
          "name": "G3",
          "midi": 55,
          "time": 293.6469120000039,
          "velocity": 0.7874015748031497,
          "duration": 0.17647050000005038
        },
        {
          "name": "F#2",
          "midi": 42,
          "time": 293.73514725000393,
          "velocity": 0.7874015748031497,
          "duration": 0.17647050000005038
        },
        {
          "name": "E2",
          "midi": 40,
          "time": 293.82338250000396,
          "velocity": 0.7874015748031497,
          "duration": 0.17647050000005038
        },
        {
          "name": "F#2",
          "midi": 42,
          "time": 293.82338250000396,
          "velocity": 0.7874015748031497,
          "duration": 0.17647050000005038
        },
        {
          "name": "E2",
          "midi": 40,
          "time": 293.911617750004,
          "velocity": 0.7874015748031497,
          "duration": 0.17647050000005038
        },
        {
          "name": "F#2",
          "midi": 42,
          "time": 293.911617750004,
          "velocity": 0.7874015748031497,
          "duration": 0.17647050000005038
        },
        {
          "name": "C2",
          "midi": 36,
          "time": 293.999853000004,
          "velocity": 0.7874015748031497,
          "duration": 0.17647050000005038
        },
        {
          "name": "F#2",
          "midi": 42,
          "time": 293.999853000004,
          "velocity": 0.7874015748031497,
          "duration": 0.17647050000005038
        },
        {
          "name": "F#2",
          "midi": 42,
          "time": 294.08808825000403,
          "velocity": 0.7874015748031497,
          "duration": 0.17647050000005038
        },
        {
          "name": "E2",
          "midi": 40,
          "time": 294.17632350000406,
          "velocity": 0.7874015748031497,
          "duration": 0.17647050000005038
        },
        {
          "name": "F#2",
          "midi": 42,
          "time": 294.17632350000406,
          "velocity": 0.7874015748031497,
          "duration": 0.17647050000005038
        },
        {
          "name": "E2",
          "midi": 40,
          "time": 294.2645587500041,
          "velocity": 0.7874015748031497,
          "duration": 0.17647050000005038
        },
        {
          "name": "F#2",
          "midi": 42,
          "time": 294.2645587500041,
          "velocity": 0.7874015748031497,
          "duration": 0.17647050000005038
        },
        {
          "name": "C2",
          "midi": 36,
          "time": 294.3527940000041,
          "velocity": 0.7874015748031497,
          "duration": 0.17647050000005038
        },
        {
          "name": "F#2",
          "midi": 42,
          "time": 294.3527940000041,
          "velocity": 0.7874015748031497,
          "duration": 0.17647050000005038
        },
        {
          "name": "F#2",
          "midi": 42,
          "time": 294.3527940000041,
          "velocity": 0.7874015748031497,
          "duration": 0.17647050000005038
        },
        {
          "name": "F#2",
          "midi": 42,
          "time": 294.44102925000414,
          "velocity": 0.7874015748031497,
          "duration": 0.17647050000005038
        },
        {
          "name": "E2",
          "midi": 40,
          "time": 294.52926450000416,
          "velocity": 0.7874015748031497,
          "duration": 0.17647050000005038
        },
        {
          "name": "F#2",
          "midi": 42,
          "time": 294.52926450000416,
          "velocity": 0.7874015748031497,
          "duration": 0.17647050000005038
        },
        {
          "name": "E2",
          "midi": 40,
          "time": 294.6174997500042,
          "velocity": 0.7874015748031497,
          "duration": 0.17647050000005038
        },
        {
          "name": "F#2",
          "midi": 42,
          "time": 294.6174997500042,
          "velocity": 0.7874015748031497,
          "duration": 0.17647050000005038
        },
        {
          "name": "C2",
          "midi": 36,
          "time": 294.7057350000042,
          "velocity": 0.7874015748031497,
          "duration": 0.17647050000005038
        },
        {
          "name": "F#2",
          "midi": 42,
          "time": 294.7057350000042,
          "velocity": 0.7874015748031497,
          "duration": 0.17647050000005038
        },
        {
          "name": "F#2",
          "midi": 42,
          "time": 294.79397025000424,
          "velocity": 0.7874015748031497,
          "duration": 0.17647050000005038
        },
        {
          "name": "E2",
          "midi": 40,
          "time": 294.88220550000426,
          "velocity": 0.7874015748031497,
          "duration": 0.17647050000005038
        },
        {
          "name": "F#2",
          "midi": 42,
          "time": 294.88220550000426,
          "velocity": 0.7874015748031497,
          "duration": 0.17647050000005038
        },
        {
          "name": "E2",
          "midi": 40,
          "time": 294.9704407500043,
          "velocity": 0.7874015748031497,
          "duration": 0.17647050000005038
        },
        {
          "name": "F#2",
          "midi": 42,
          "time": 294.9704407500043,
          "velocity": 0.7874015748031497,
          "duration": 0.17647050000005038
        },
        {
          "name": "C2",
          "midi": 36,
          "time": 295.0586760000043,
          "velocity": 0.7874015748031497,
          "duration": 0.17647050000005038
        },
        {
          "name": "F#2",
          "midi": 42,
          "time": 295.0586760000043,
          "velocity": 0.7874015748031497,
          "duration": 0.17647050000005038
        },
        {
          "name": "F#2",
          "midi": 42,
          "time": 295.0586760000043,
          "velocity": 0.7874015748031497,
          "duration": 0.17647050000005038
        },
        {
          "name": "F#2",
          "midi": 42,
          "time": 295.14691125000434,
          "velocity": 0.7874015748031497,
          "duration": 0.17647050000005038
        },
        {
          "name": "E2",
          "midi": 40,
          "time": 295.23514650000436,
          "velocity": 0.7874015748031497,
          "duration": 0.17647050000005038
        },
        {
          "name": "F#2",
          "midi": 42,
          "time": 295.23514650000436,
          "velocity": 0.7874015748031497,
          "duration": 0.17647050000005038
        },
        {
          "name": "E2",
          "midi": 40,
          "time": 295.3233817500044,
          "velocity": 0.7874015748031497,
          "duration": 0.17647050000005038
        },
        {
          "name": "F#2",
          "midi": 42,
          "time": 295.3233817500044,
          "velocity": 0.7874015748031497,
          "duration": 0.17647050000005038
        },
        {
          "name": "C2",
          "midi": 36,
          "time": 295.4116170000044,
          "velocity": 0.7874015748031497,
          "duration": 0.17647050000005038
        },
        {
          "name": "F#2",
          "midi": 42,
          "time": 295.4116170000044,
          "velocity": 0.7874015748031497,
          "duration": 0.17647050000005038
        },
        {
          "name": "F#2",
          "midi": 42,
          "time": 295.49985225000444,
          "velocity": 0.7874015748031497,
          "duration": 0.17647050000005038
        },
        {
          "name": "E2",
          "midi": 40,
          "time": 295.58808750000446,
          "velocity": 0.7874015748031497,
          "duration": 0.17647050000005038
        },
        {
          "name": "F#2",
          "midi": 42,
          "time": 295.58808750000446,
          "velocity": 0.7874015748031497,
          "duration": 0.17647050000005038
        },
        {
          "name": "E2",
          "midi": 40,
          "time": 295.6763227500045,
          "velocity": 0.7874015748031497,
          "duration": 0.17647050000005038
        },
        {
          "name": "F#2",
          "midi": 42,
          "time": 295.6763227500045,
          "velocity": 0.7874015748031497,
          "duration": 0.17647050000005038
        },
        {
          "name": "C2",
          "midi": 36,
          "time": 295.7645580000045,
          "velocity": 0.7874015748031497,
          "duration": 0.17647050000005038
        },
        {
          "name": "F#2",
          "midi": 42,
          "time": 295.7645580000045,
          "velocity": 0.7874015748031497,
          "duration": 0.17647050000005038
        },
        {
          "name": "F#2",
          "midi": 42,
          "time": 295.7645580000045,
          "velocity": 0.7874015748031497,
          "duration": 0.17647050000005038
        },
        {
          "name": "F#2",
          "midi": 42,
          "time": 295.85279325000454,
          "velocity": 0.7874015748031497,
          "duration": 0.17647050000005038
        },
        {
          "name": "E2",
          "midi": 40,
          "time": 295.94102850000456,
          "velocity": 0.7874015748031497,
          "duration": 0.17647050000005038
        },
        {
          "name": "F#2",
          "midi": 42,
          "time": 295.94102850000456,
          "velocity": 0.7874015748031497,
          "duration": 0.17647050000005038
        },
        {
          "name": "E2",
          "midi": 40,
          "time": 296.0292637500046,
          "velocity": 0.7874015748031497,
          "duration": 0.17647050000005038
        },
        {
          "name": "F#2",
          "midi": 42,
          "time": 296.0292637500046,
          "velocity": 0.7874015748031497,
          "duration": 0.17647050000005038
        },
        {
          "name": "C2",
          "midi": 36,
          "time": 296.1174990000046,
          "velocity": 0.7874015748031497,
          "duration": 0.17647050000005038
        },
        {
          "name": "F#2",
          "midi": 42,
          "time": 296.1174990000046,
          "velocity": 0.7874015748031497,
          "duration": 0.17647050000005038
        },
        {
          "name": "F#2",
          "midi": 42,
          "time": 296.20573425000464,
          "velocity": 0.7874015748031497,
          "duration": 0.17647050000005038
        },
        {
          "name": "E2",
          "midi": 40,
          "time": 296.29396950000466,
          "velocity": 0.7874015748031497,
          "duration": 0.17647050000005038
        },
        {
          "name": "F#2",
          "midi": 42,
          "time": 296.29396950000466,
          "velocity": 0.7874015748031497,
          "duration": 0.17647050000005038
        },
        {
          "name": "E2",
          "midi": 40,
          "time": 296.3822047500047,
          "velocity": 0.7874015748031497,
          "duration": 0.17647050000005038
        },
        {
          "name": "F#2",
          "midi": 42,
          "time": 296.3822047500047,
          "velocity": 0.7874015748031497,
          "duration": 0.17647050000005038
        },
        {
          "name": "C2",
          "midi": 36,
          "time": 296.4704400000047,
          "velocity": 0.7874015748031497,
          "duration": 0.17647050000005038
        },
        {
          "name": "G3",
          "midi": 55,
          "time": 296.4704400000047,
          "velocity": 0.7874015748031497,
          "duration": 0.17647050000005038
        },
        {
          "name": "F#2",
          "midi": 42,
          "time": 296.55867525000474,
          "velocity": 0.7874015748031497,
          "duration": 0.17647050000005038
        },
        {
          "name": "E2",
          "midi": 40,
          "time": 296.64691050000476,
          "velocity": 0.7874015748031497,
          "duration": 0.17647050000005038
        },
        {
          "name": "F#2",
          "midi": 42,
          "time": 296.64691050000476,
          "velocity": 0.7874015748031497,
          "duration": 0.17647050000005038
        },
        {
          "name": "E2",
          "midi": 40,
          "time": 296.7351457500048,
          "velocity": 0.7874015748031497,
          "duration": 0.17647050000005038
        },
        {
          "name": "F#2",
          "midi": 42,
          "time": 296.7351457500048,
          "velocity": 0.7874015748031497,
          "duration": 0.17647050000005038
        },
        {
          "name": "C2",
          "midi": 36,
          "time": 296.8233810000048,
          "velocity": 0.7874015748031497,
          "duration": 0.17647050000005038
        },
        {
          "name": "F#2",
          "midi": 42,
          "time": 296.8233810000048,
          "velocity": 0.7874015748031497,
          "duration": 0.17647050000005038
        },
        {
          "name": "F#2",
          "midi": 42,
          "time": 296.91161625000484,
          "velocity": 0.7874015748031497,
          "duration": 0.17647050000005038
        },
        {
          "name": "E2",
          "midi": 40,
          "time": 296.99985150000487,
          "velocity": 0.7874015748031497,
          "duration": 0.17647050000005038
        },
        {
          "name": "F#2",
          "midi": 42,
          "time": 296.99985150000487,
          "velocity": 0.7874015748031497,
          "duration": 0.17647050000005038
        },
        {
          "name": "E2",
          "midi": 40,
          "time": 297.0880867500049,
          "velocity": 0.7874015748031497,
          "duration": 0.17647050000005038
        },
        {
          "name": "F#2",
          "midi": 42,
          "time": 297.0880867500049,
          "velocity": 0.7874015748031497,
          "duration": 0.17647050000005038
        },
        {
          "name": "C2",
          "midi": 36,
          "time": 297.1763220000049,
          "velocity": 0.7874015748031497,
          "duration": 0.17647050000005038
        },
        {
          "name": "F#2",
          "midi": 42,
          "time": 297.1763220000049,
          "velocity": 0.7874015748031497,
          "duration": 0.17647050000005038
        },
        {
          "name": "F#2",
          "midi": 42,
          "time": 297.1763220000049,
          "velocity": 0.7874015748031497,
          "duration": 0.17647050000005038
        },
        {
          "name": "F#2",
          "midi": 42,
          "time": 297.26455725000494,
          "velocity": 0.7874015748031497,
          "duration": 0.17647050000005038
        },
        {
          "name": "E2",
          "midi": 40,
          "time": 297.35279250000497,
          "velocity": 0.7874015748031497,
          "duration": 0.17647050000005038
        },
        {
          "name": "F#2",
          "midi": 42,
          "time": 297.35279250000497,
          "velocity": 0.7874015748031497,
          "duration": 0.17647050000005038
        },
        {
          "name": "E2",
          "midi": 40,
          "time": 297.441027750005,
          "velocity": 0.7874015748031497,
          "duration": 0.17647050000005038
        },
        {
          "name": "F#2",
          "midi": 42,
          "time": 297.441027750005,
          "velocity": 0.7874015748031497,
          "duration": 0.17647050000005038
        },
        {
          "name": "C2",
          "midi": 36,
          "time": 297.529263000005,
          "velocity": 0.7874015748031497,
          "duration": 0.17647050000005038
        },
        {
          "name": "F#2",
          "midi": 42,
          "time": 297.529263000005,
          "velocity": 0.7874015748031497,
          "duration": 0.17647050000005038
        },
        {
          "name": "F#2",
          "midi": 42,
          "time": 297.61749825000504,
          "velocity": 0.7874015748031497,
          "duration": 0.17647050000005038
        },
        {
          "name": "E2",
          "midi": 40,
          "time": 297.70573350000507,
          "velocity": 0.7874015748031497,
          "duration": 0.17647050000005038
        },
        {
          "name": "F#2",
          "midi": 42,
          "time": 297.70573350000507,
          "velocity": 0.7874015748031497,
          "duration": 0.17647050000005038
        },
        {
          "name": "E2",
          "midi": 40,
          "time": 297.7939687500051,
          "velocity": 0.7874015748031497,
          "duration": 0.17647050000005038
        },
        {
          "name": "F#2",
          "midi": 42,
          "time": 297.7939687500051,
          "velocity": 0.7874015748031497,
          "duration": 0.17647050000005038
        },
        {
          "name": "C2",
          "midi": 36,
          "time": 297.8822040000051,
          "velocity": 0.7874015748031497,
          "duration": 0.17647050000005038
        },
        {
          "name": "F#2",
          "midi": 42,
          "time": 297.8822040000051,
          "velocity": 0.7874015748031497,
          "duration": 0.17647050000005038
        },
        {
          "name": "F#2",
          "midi": 42,
          "time": 297.8822040000051,
          "velocity": 0.7874015748031497,
          "duration": 0.17647050000005038
        },
        {
          "name": "F#2",
          "midi": 42,
          "time": 297.97043925000514,
          "velocity": 0.7874015748031497,
          "duration": 0.17647050000005038
        },
        {
          "name": "E2",
          "midi": 40,
          "time": 298.05867450000517,
          "velocity": 0.7874015748031497,
          "duration": 0.17647050000005038
        },
        {
          "name": "F#2",
          "midi": 42,
          "time": 298.05867450000517,
          "velocity": 0.7874015748031497,
          "duration": 0.17647050000005038
        },
        {
          "name": "E2",
          "midi": 40,
          "time": 298.1469097500052,
          "velocity": 0.7874015748031497,
          "duration": 0.17647050000005038
        },
        {
          "name": "F#2",
          "midi": 42,
          "time": 298.1469097500052,
          "velocity": 0.7874015748031497,
          "duration": 0.17647050000005038
        },
        {
          "name": "C2",
          "midi": 36,
          "time": 298.2351450000052,
          "velocity": 0.7874015748031497,
          "duration": 0.17647050000005038
        },
        {
          "name": "F#2",
          "midi": 42,
          "time": 298.2351450000052,
          "velocity": 0.7874015748031497,
          "duration": 0.17647050000005038
        },
        {
          "name": "F#2",
          "midi": 42,
          "time": 298.32338025000524,
          "velocity": 0.7874015748031497,
          "duration": 0.17647050000005038
        },
        {
          "name": "E2",
          "midi": 40,
          "time": 298.41161550000527,
          "velocity": 0.7874015748031497,
          "duration": 0.17647050000005038
        },
        {
          "name": "F#2",
          "midi": 42,
          "time": 298.41161550000527,
          "velocity": 0.7874015748031497,
          "duration": 0.17647050000005038
        },
        {
          "name": "E2",
          "midi": 40,
          "time": 298.4998507500053,
          "velocity": 0.7874015748031497,
          "duration": 0.17647050000005038
        },
        {
          "name": "F#2",
          "midi": 42,
          "time": 298.4998507500053,
          "velocity": 0.7874015748031497,
          "duration": 0.17647050000005038
        },
        {
          "name": "C2",
          "midi": 36,
          "time": 298.5880860000053,
          "velocity": 0.7874015748031497,
          "duration": 0.17647050000005038
        },
        {
          "name": "F#2",
          "midi": 42,
          "time": 298.5880860000053,
          "velocity": 0.7874015748031497,
          "duration": 0.17647050000005038
        },
        {
          "name": "F#2",
          "midi": 42,
          "time": 298.5880860000053,
          "velocity": 0.7874015748031497,
          "duration": 0.17647050000005038
        },
        {
          "name": "F#2",
          "midi": 42,
          "time": 298.67632125000534,
          "velocity": 0.7874015748031497,
          "duration": 0.17647050000005038
        },
        {
          "name": "E2",
          "midi": 40,
          "time": 298.76455650000537,
          "velocity": 0.7874015748031497,
          "duration": 0.17647050000005038
        },
        {
          "name": "F#2",
          "midi": 42,
          "time": 298.76455650000537,
          "velocity": 0.7874015748031497,
          "duration": 0.17647050000005038
        },
        {
          "name": "E2",
          "midi": 40,
          "time": 298.8527917500054,
          "velocity": 0.7874015748031497,
          "duration": 0.17647050000005038
        },
        {
          "name": "F#2",
          "midi": 42,
          "time": 298.8527917500054,
          "velocity": 0.7874015748031497,
          "duration": 0.17647050000005038
        },
        {
          "name": "C2",
          "midi": 36,
          "time": 298.9410270000054,
          "velocity": 0.7874015748031497,
          "duration": 0.17647050000005038
        },
        {
          "name": "F#2",
          "midi": 42,
          "time": 298.9410270000054,
          "velocity": 0.7874015748031497,
          "duration": 0.17647050000005038
        },
        {
          "name": "F#2",
          "midi": 42,
          "time": 299.02926225000544,
          "velocity": 0.7874015748031497,
          "duration": 0.17647050000005038
        },
        {
          "name": "E2",
          "midi": 40,
          "time": 299.11749750000547,
          "velocity": 0.7874015748031497,
          "duration": 0.17647050000005038
        },
        {
          "name": "F#2",
          "midi": 42,
          "time": 299.11749750000547,
          "velocity": 0.7874015748031497,
          "duration": 0.17647050000005038
        },
        {
          "name": "E2",
          "midi": 40,
          "time": 299.2057327500055,
          "velocity": 0.7874015748031497,
          "duration": 0.17647050000005038
        },
        {
          "name": "F#2",
          "midi": 42,
          "time": 299.2057327500055,
          "velocity": 0.7874015748031497,
          "duration": 0.17647050000005038
        },
        {
          "name": "C2",
          "midi": 36,
          "time": 299.2939680000055,
          "velocity": 0.7874015748031497,
          "duration": 0.17647050000005038
        },
        {
          "name": "G3",
          "midi": 55,
          "time": 299.2939680000055,
          "velocity": 0.7874015748031497,
          "duration": 0.17647050000005038
        },
        {
          "name": "E2",
          "midi": 40,
          "time": 299.47043850000557,
          "velocity": 0.7874015748031497,
          "duration": 0.17647050000005038
        },
        {
          "name": "E2",
          "midi": 40,
          "time": 299.5586737500056,
          "velocity": 0.7874015748031497,
          "duration": 0.17647050000005038
        },
        {
          "name": "C2",
          "midi": 36,
          "time": 299.6469090000056,
          "velocity": 0.7874015748031497,
          "duration": 0.17647050000005038
        },
        {
          "name": "G3",
          "midi": 55,
          "time": 299.6469090000056,
          "velocity": 0.7874015748031497,
          "duration": 0.17647050000005038
        },
        {
          "name": "E2",
          "midi": 40,
          "time": 299.8233795000057,
          "velocity": 0.7874015748031497,
          "duration": 0.17647050000005038
        },
        {
          "name": "E2",
          "midi": 40,
          "time": 299.9116147500057,
          "velocity": 0.7874015748031497,
          "duration": 0.17647050000005038
        },
        {
          "name": "C2",
          "midi": 36,
          "time": 299.9998500000057,
          "velocity": 0.7874015748031497,
          "duration": 0.17647050000005038
        },
        {
          "name": "G3",
          "midi": 55,
          "time": 299.9998500000057,
          "velocity": 0.7874015748031497,
          "duration": 0.17647050000005038
        },
        {
          "name": "E2",
          "midi": 40,
          "time": 300.1763205000058,
          "velocity": 0.7874015748031497,
          "duration": 0.17647050000005038
        },
        {
          "name": "E2",
          "midi": 40,
          "time": 300.2645557500058,
          "velocity": 0.7874015748031497,
          "duration": 0.17647050000005038
        },
        {
          "name": "C2",
          "midi": 36,
          "time": 300.3527910000058,
          "velocity": 0.7874015748031497,
          "duration": 0.17647050000005038
        },
        {
          "name": "G3",
          "midi": 55,
          "time": 300.3527910000058,
          "velocity": 0.7874015748031497,
          "duration": 0.17647050000005038
        },
        {
          "name": "E2",
          "midi": 40,
          "time": 300.5292615000059,
          "velocity": 0.7874015748031497,
          "duration": 0.17647050000005038
        },
        {
          "name": "E2",
          "midi": 40,
          "time": 300.6174967500059,
          "velocity": 0.7874015748031497,
          "duration": 0.17647050000005038
        },
        {
          "name": "C2",
          "midi": 36,
          "time": 300.7057320000059,
          "velocity": 0.7874015748031497,
          "duration": 0.17647050000005038
        },
        {
          "name": "G3",
          "midi": 55,
          "time": 300.7057320000059,
          "velocity": 0.7874015748031497,
          "duration": 0.17647050000005038
        },
        {
          "name": "E2",
          "midi": 40,
          "time": 300.882202500006,
          "velocity": 0.7874015748031497,
          "duration": 0.17647050000005038
        },
        {
          "name": "E2",
          "midi": 40,
          "time": 300.970437750006,
          "velocity": 0.7874015748031497,
          "duration": 0.17647050000005038
        },
        {
          "name": "C2",
          "midi": 36,
          "time": 301.058673000006,
          "velocity": 0.7874015748031497,
          "duration": 0.17647050000005038
        },
        {
          "name": "G3",
          "midi": 55,
          "time": 301.058673000006,
          "velocity": 0.7874015748031497,
          "duration": 0.17647050000005038
        },
        {
          "name": "E2",
          "midi": 40,
          "time": 301.2351435000061,
          "velocity": 0.7874015748031497,
          "duration": 0.17647050000005038
        },
        {
          "name": "E2",
          "midi": 40,
          "time": 301.3233787500061,
          "velocity": 0.7874015748031497,
          "duration": 0.17647050000005038
        },
        {
          "name": "C2",
          "midi": 36,
          "time": 301.4116140000061,
          "velocity": 0.7874015748031497,
          "duration": 0.17647050000005038
        },
        {
          "name": "G3",
          "midi": 55,
          "time": 301.4116140000061,
          "velocity": 0.7874015748031497,
          "duration": 0.17647050000005038
        },
        {
          "name": "E2",
          "midi": 40,
          "time": 301.5880845000062,
          "velocity": 0.7874015748031497,
          "duration": 0.17647050000005038
        },
        {
          "name": "E2",
          "midi": 40,
          "time": 301.6763197500062,
          "velocity": 0.7874015748031497,
          "duration": 0.17647050000005038
        },
        {
          "name": "C2",
          "midi": 36,
          "time": 301.7645550000062,
          "velocity": 0.7874015748031497,
          "duration": 0.17647050000005038
        },
        {
          "name": "G3",
          "midi": 55,
          "time": 301.7645550000062,
          "velocity": 0.7874015748031497,
          "duration": 0.17647050000005038
        },
        {
          "name": "E2",
          "midi": 40,
          "time": 301.9410255000063,
          "velocity": 0.7874015748031497,
          "duration": 0.17647050000005038
        },
        {
          "name": "E2",
          "midi": 40,
          "time": 302.0292607500063,
          "velocity": 0.7874015748031497,
          "duration": 0.17647050000005038
        },
        {
          "name": "C2",
          "midi": 36,
          "time": 302.1174960000063,
          "velocity": 0.7874015748031497,
          "duration": 0.17647050000005038
        },
        {
          "name": "G3",
          "midi": 55,
          "time": 302.1174960000063,
          "velocity": 0.7874015748031497,
          "duration": 0.17647050000005038
        },
        {
          "name": "E2",
          "midi": 40,
          "time": 302.2939665000064,
          "velocity": 0.7874015748031497,
          "duration": 0.17647050000005038
        },
        {
          "name": "E2",
          "midi": 40,
          "time": 302.3822017500064,
          "velocity": 0.7874015748031497,
          "duration": 0.17647050000005038
        },
        {
          "name": "C2",
          "midi": 36,
          "time": 302.4704370000064,
          "velocity": 0.7874015748031497,
          "duration": 0.17647050000005038
        },
        {
          "name": "G3",
          "midi": 55,
          "time": 302.4704370000064,
          "velocity": 0.7874015748031497,
          "duration": 0.17647050000005038
        },
        {
          "name": "E2",
          "midi": 40,
          "time": 302.6469075000065,
          "velocity": 0.7874015748031497,
          "duration": 0.17647050000005038
        },
        {
          "name": "E2",
          "midi": 40,
          "time": 302.7351427500065,
          "velocity": 0.7874015748031497,
          "duration": 0.17647050000005038
        },
        {
          "name": "C2",
          "midi": 36,
          "time": 302.8233780000065,
          "velocity": 0.7874015748031497,
          "duration": 0.17647050000005038
        },
        {
          "name": "G3",
          "midi": 55,
          "time": 302.8233780000065,
          "velocity": 0.7874015748031497,
          "duration": 0.17647050000005038
        },
        {
          "name": "E2",
          "midi": 40,
          "time": 302.9998485000066,
          "velocity": 0.7874015748031497,
          "duration": 0.17647050000005038
        },
        {
          "name": "E2",
          "midi": 40,
          "time": 303.0880837500066,
          "velocity": 0.7874015748031497,
          "duration": 0.17647050000005038
        },
        {
          "name": "C2",
          "midi": 36,
          "time": 303.17631900000663,
          "velocity": 0.7874015748031497,
          "duration": 0.17647050000005038
        },
        {
          "name": "G3",
          "midi": 55,
          "time": 303.17631900000663,
          "velocity": 0.7874015748031497,
          "duration": 0.17647050000005038
        },
        {
          "name": "E2",
          "midi": 40,
          "time": 303.3527895000067,
          "velocity": 0.7874015748031497,
          "duration": 0.17647050000005038
        },
        {
          "name": "E2",
          "midi": 40,
          "time": 303.4410247500067,
          "velocity": 0.7874015748031497,
          "duration": 0.17647050000005038
        },
        {
          "name": "C2",
          "midi": 36,
          "time": 303.52926000000673,
          "velocity": 0.7874015748031497,
          "duration": 0.17647050000005038
        },
        {
          "name": "G3",
          "midi": 55,
          "time": 303.52926000000673,
          "velocity": 0.7874015748031497,
          "duration": 0.17647050000005038
        },
        {
          "name": "E2",
          "midi": 40,
          "time": 303.7057305000068,
          "velocity": 0.7874015748031497,
          "duration": 0.17647050000005038
        },
        {
          "name": "E2",
          "midi": 40,
          "time": 303.7939657500068,
          "velocity": 0.7874015748031497,
          "duration": 0.17647050000005038
        },
        {
          "name": "C2",
          "midi": 36,
          "time": 303.88220100000683,
          "velocity": 0.7874015748031497,
          "duration": 0.17647050000005038
        },
        {
          "name": "G3",
          "midi": 55,
          "time": 303.88220100000683,
          "velocity": 0.7874015748031497,
          "duration": 0.17647050000005038
        },
        {
          "name": "E2",
          "midi": 40,
          "time": 304.0586715000069,
          "velocity": 0.7874015748031497,
          "duration": 0.17647050000005038
        },
        {
          "name": "E2",
          "midi": 40,
          "time": 304.1469067500069,
          "velocity": 0.7874015748031497,
          "duration": 0.17647050000005038
        },
        {
          "name": "C2",
          "midi": 36,
          "time": 304.23514200000693,
          "velocity": 0.7874015748031497,
          "duration": 0.17647050000005038
        },
        {
          "name": "G3",
          "midi": 55,
          "time": 304.23514200000693,
          "velocity": 0.7874015748031497,
          "duration": 0.17647050000005038
        },
        {
          "name": "E2",
          "midi": 40,
          "time": 304.411612500007,
          "velocity": 0.7874015748031497,
          "duration": 0.17647050000005038
        },
        {
          "name": "E2",
          "midi": 40,
          "time": 304.499847750007,
          "velocity": 0.7874015748031497,
          "duration": 0.17647050000005038
        },
        {
          "name": "C2",
          "midi": 36,
          "time": 304.58808300000703,
          "velocity": 0.7874015748031497,
          "duration": 0.17647050000005038
        },
        {
          "name": "G3",
          "midi": 55,
          "time": 304.58808300000703,
          "velocity": 0.7874015748031497,
          "duration": 0.17647050000005038
        },
        {
          "name": "E2",
          "midi": 40,
          "time": 304.7645535000071,
          "velocity": 0.7874015748031497,
          "duration": 0.17647050000005038
        },
        {
          "name": "E2",
          "midi": 40,
          "time": 304.8527887500071,
          "velocity": 0.7874015748031497,
          "duration": 0.17647050000005038
        },
        {
          "name": "C2",
          "midi": 36,
          "time": 304.94102400000713,
          "velocity": 0.7874015748031497,
          "duration": 0.17647050000005038
        },
        {
          "name": "G3",
          "midi": 55,
          "time": 304.94102400000713,
          "velocity": 0.7874015748031497,
          "duration": 0.17647050000005038
        },
        {
          "name": "E2",
          "midi": 40,
          "time": 305.1174945000072,
          "velocity": 0.7874015748031497,
          "duration": 0.17647050000005038
        },
        {
          "name": "E2",
          "midi": 40,
          "time": 305.2057297500072,
          "velocity": 0.7874015748031497,
          "duration": 0.17647050000005038
        },
        {
          "name": "C2",
          "midi": 36,
          "time": 305.29396500000723,
          "velocity": 0.7874015748031497,
          "duration": 0.17647050000005038
        },
        {
          "name": "G3",
          "midi": 55,
          "time": 305.29396500000723,
          "velocity": 0.7874015748031497,
          "duration": 0.17647050000005038
        },
        {
          "name": "E2",
          "midi": 40,
          "time": 305.4704355000073,
          "velocity": 0.7874015748031497,
          "duration": 0.17647050000005038
        },
        {
          "name": "E2",
          "midi": 40,
          "time": 305.5586707500073,
          "velocity": 0.7874015748031497,
          "duration": 0.17647050000005038
        },
        {
          "name": "C2",
          "midi": 36,
          "time": 305.64690600000733,
          "velocity": 0.7874015748031497,
          "duration": 0.17647050000005038
        },
        {
          "name": "G3",
          "midi": 55,
          "time": 305.64690600000733,
          "velocity": 0.7874015748031497,
          "duration": 0.17647050000005038
        },
        {
          "name": "E2",
          "midi": 40,
          "time": 305.8233765000074,
          "velocity": 0.7874015748031497,
          "duration": 0.17647050000005038
        },
        {
          "name": "E2",
          "midi": 40,
          "time": 305.9116117500074,
          "velocity": 0.7874015748031497,
          "duration": 0.17647050000005038
        },
        {
          "name": "C2",
          "midi": 36,
          "time": 305.99984700000743,
          "velocity": 0.7874015748031497,
          "duration": 0.17647050000005038
        },
        {
          "name": "G3",
          "midi": 55,
          "time": 305.99984700000743,
          "velocity": 0.7874015748031497,
          "duration": 0.17647050000005038
        },
        {
          "name": "E2",
          "midi": 40,
          "time": 306.1763175000075,
          "velocity": 0.7874015748031497,
          "duration": 0.17647050000005038
        },
        {
          "name": "E2",
          "midi": 40,
          "time": 306.2645527500075,
          "velocity": 0.7874015748031497,
          "duration": 0.17647050000005038
        },
        {
          "name": "C2",
          "midi": 36,
          "time": 306.35278800000754,
          "velocity": 0.7874015748031497,
          "duration": 0.17647050000005038
        },
        {
          "name": "G3",
          "midi": 55,
          "time": 306.35278800000754,
          "velocity": 0.7874015748031497,
          "duration": 0.17647050000005038
        },
        {
          "name": "E2",
          "midi": 40,
          "time": 306.5292585000076,
          "velocity": 0.7874015748031497,
          "duration": 0.17647050000005038
        },
        {
          "name": "E2",
          "midi": 40,
          "time": 306.6174937500076,
          "velocity": 0.7874015748031497,
          "duration": 0.17647050000005038
        },
        {
          "name": "C2",
          "midi": 36,
          "time": 306.70572900000764,
          "velocity": 0.7874015748031497,
          "duration": 0.17647050000005038
        },
        {
          "name": "G3",
          "midi": 55,
          "time": 306.70572900000764,
          "velocity": 0.7874015748031497,
          "duration": 0.17647050000005038
        },
        {
          "name": "E2",
          "midi": 40,
          "time": 306.8821995000077,
          "velocity": 0.7874015748031497,
          "duration": 0.17647050000005038
        },
        {
          "name": "E2",
          "midi": 40,
          "time": 306.9704347500077,
          "velocity": 0.7874015748031497,
          "duration": 0.17647050000005038
        },
        {
          "name": "C2",
          "midi": 36,
          "time": 307.05867000000774,
          "velocity": 0.7874015748031497,
          "duration": 0.17647050000005038
        },
        {
          "name": "G3",
          "midi": 55,
          "time": 307.05867000000774,
          "velocity": 0.7874015748031497,
          "duration": 0.17647050000005038
        },
        {
          "name": "E2",
          "midi": 40,
          "time": 307.2351405000078,
          "velocity": 0.7874015748031497,
          "duration": 0.17647050000005038
        },
        {
          "name": "E2",
          "midi": 40,
          "time": 307.3233757500078,
          "velocity": 0.7874015748031497,
          "duration": 0.17647050000005038
        },
        {
          "name": "C2",
          "midi": 36,
          "time": 307.41161100000784,
          "velocity": 0.7874015748031497,
          "duration": 0.17647050000005038
        },
        {
          "name": "G3",
          "midi": 55,
          "time": 307.41161100000784,
          "velocity": 0.7874015748031497,
          "duration": 0.17647050000005038
        },
        {
          "name": "E2",
          "midi": 40,
          "time": 307.5880815000079,
          "velocity": 0.7874015748031497,
          "duration": 0.17647050000005038
        },
        {
          "name": "E2",
          "midi": 40,
          "time": 307.6763167500079,
          "velocity": 0.7874015748031497,
          "duration": 0.17647050000005038
        },
        {
          "name": "C2",
          "midi": 36,
          "time": 307.76455200000794,
          "velocity": 0.7874015748031497,
          "duration": 0.17647050000005038
        },
        {
          "name": "G3",
          "midi": 55,
          "time": 307.76455200000794,
          "velocity": 0.7874015748031497,
          "duration": 0.17647050000005038
        },
        {
          "name": "E2",
          "midi": 40,
          "time": 307.941022500008,
          "velocity": 0.7874015748031497,
          "duration": 0.17647050000005038
        },
        {
          "name": "E2",
          "midi": 40,
          "time": 308.029257750008,
          "velocity": 0.7874015748031497,
          "duration": 0.17647050000005038
        },
        {
          "name": "C2",
          "midi": 36,
          "time": 308.11749300000804,
          "velocity": 0.7874015748031497,
          "duration": 0.17647050000005038
        },
        {
          "name": "G3",
          "midi": 55,
          "time": 308.11749300000804,
          "velocity": 0.7874015748031497,
          "duration": 0.17647050000005038
        },
        {
          "name": "E2",
          "midi": 40,
          "time": 308.2939635000081,
          "velocity": 0.7874015748031497,
          "duration": 0.17647050000005038
        },
        {
          "name": "E2",
          "midi": 40,
          "time": 308.3821987500081,
          "velocity": 0.7874015748031497,
          "duration": 0.17647050000005038
        },
        {
          "name": "C2",
          "midi": 36,
          "time": 308.47043400000814,
          "velocity": 0.7874015748031497,
          "duration": 0.17647050000005038
        },
        {
          "name": "G3",
          "midi": 55,
          "time": 308.47043400000814,
          "velocity": 0.7874015748031497,
          "duration": 0.17647050000005038
        },
        {
          "name": "E2",
          "midi": 40,
          "time": 308.6469045000082,
          "velocity": 0.7874015748031497,
          "duration": 0.17647050000005038
        },
        {
          "name": "E2",
          "midi": 40,
          "time": 308.7351397500082,
          "velocity": 0.7874015748031497,
          "duration": 0.17647050000005038
        },
        {
          "name": "C2",
          "midi": 36,
          "time": 308.82337500000824,
          "velocity": 0.7874015748031497,
          "duration": 0.17647050000005038
        },
        {
          "name": "G3",
          "midi": 55,
          "time": 308.82337500000824,
          "velocity": 0.7874015748031497,
          "duration": 0.17647050000005038
        },
        {
          "name": "E2",
          "midi": 40,
          "time": 308.9998455000083,
          "velocity": 0.7874015748031497,
          "duration": 0.17647050000005038
        },
        {
          "name": "E2",
          "midi": 40,
          "time": 309.0880807500083,
          "velocity": 0.7874015748031497,
          "duration": 0.17647050000005038
        },
        {
          "name": "C2",
          "midi": 36,
          "time": 309.17631600000834,
          "velocity": 0.7874015748031497,
          "duration": 0.17647050000005038
        },
        {
          "name": "G3",
          "midi": 55,
          "time": 309.17631600000834,
          "velocity": 0.7874015748031497,
          "duration": 0.17647050000005038
        },
        {
          "name": "E2",
          "midi": 40,
          "time": 309.3527865000084,
          "velocity": 0.7874015748031497,
          "duration": 0.17647050000005038
        },
        {
          "name": "E2",
          "midi": 40,
          "time": 309.4410217500084,
          "velocity": 0.7874015748031497,
          "duration": 0.17647050000005038
        },
        {
          "name": "C2",
          "midi": 36,
          "time": 309.52925700000844,
          "velocity": 0.7874015748031497,
          "duration": 0.17647050000005038
        },
        {
          "name": "G3",
          "midi": 55,
          "time": 309.52925700000844,
          "velocity": 0.7874015748031497,
          "duration": 0.17647050000005038
        },
        {
          "name": "E2",
          "midi": 40,
          "time": 309.7057275000085,
          "velocity": 0.7874015748031497,
          "duration": 0.17647050000005038
        },
        {
          "name": "E2",
          "midi": 40,
          "time": 309.7939627500085,
          "velocity": 0.7874015748031497,
          "duration": 0.17647050000005038
        },
        {
          "name": "C2",
          "midi": 36,
          "time": 309.88219800000854,
          "velocity": 0.7874015748031497,
          "duration": 0.17647050000005038
        },
        {
          "name": "G3",
          "midi": 55,
          "time": 309.88219800000854,
          "velocity": 0.7874015748031497,
          "duration": 0.17647050000005038
        },
        {
          "name": "E2",
          "midi": 40,
          "time": 310.0586685000086,
          "velocity": 0.7874015748031497,
          "duration": 0.17647050000005038
        },
        {
          "name": "E2",
          "midi": 40,
          "time": 310.1469037500086,
          "velocity": 0.7874015748031497,
          "duration": 0.17647050000005038
        },
        {
          "name": "C2",
          "midi": 36,
          "time": 310.23513900000864,
          "velocity": 0.7874015748031497,
          "duration": 0.17647050000005038
        },
        {
          "name": "G3",
          "midi": 55,
          "time": 310.23513900000864,
          "velocity": 0.7874015748031497,
          "duration": 0.17647050000005038
        },
        {
          "name": "E2",
          "midi": 40,
          "time": 310.4116095000087,
          "velocity": 0.7874015748031497,
          "duration": 0.17647050000005038
        },
        {
          "name": "E2",
          "midi": 40,
          "time": 310.4998447500087,
          "velocity": 0.7874015748031497,
          "duration": 0.17647050000005038
        },
        {
          "name": "C2",
          "midi": 36,
          "time": 310.58808000000874,
          "velocity": 0.7874015748031497,
          "duration": 0.17647050000005038
        },
        {
          "name": "G3",
          "midi": 55,
          "time": 310.58808000000874,
          "velocity": 0.7874015748031497,
          "duration": 0.17647050000005038
        },
        {
          "name": "E2",
          "midi": 40,
          "time": 310.7645505000088,
          "velocity": 0.7874015748031497,
          "duration": 0.17647050000005038
        },
        {
          "name": "E2",
          "midi": 40,
          "time": 310.8527857500088,
          "velocity": 0.7874015748031497,
          "duration": 0.17647050000005038
        },
        {
          "name": "C2",
          "midi": 36,
          "time": 310.94102100000885,
          "velocity": 0.7874015748031497,
          "duration": 0.17647050000005038
        },
        {
          "name": "G3",
          "midi": 55,
          "time": 310.94102100000885,
          "velocity": 0.7874015748031497,
          "duration": 0.17647050000005038
        },
        {
          "name": "E2",
          "midi": 40,
          "time": 311.1174915000089,
          "velocity": 0.7874015748031497,
          "duration": 0.17647050000005038
        },
        {
          "name": "E2",
          "midi": 40,
          "time": 311.2057267500089,
          "velocity": 0.7874015748031497,
          "duration": 0.17647050000005038
        },
        {
          "name": "C2",
          "midi": 36,
          "time": 311.29396200000895,
          "velocity": 0.7874015748031497,
          "duration": 0.17647050000005038
        },
        {
          "name": "G3",
          "midi": 55,
          "time": 311.29396200000895,
          "velocity": 0.7874015748031497,
          "duration": 0.17647050000005038
        },
        {
          "name": "E2",
          "midi": 40,
          "time": 311.470432500009,
          "velocity": 0.7874015748031497,
          "duration": 0.17647050000005038
        },
        {
          "name": "E2",
          "midi": 40,
          "time": 311.558667750009,
          "velocity": 0.7874015748031497,
          "duration": 0.17647050000005038
        },
        {
          "name": "C2",
          "midi": 36,
          "time": 311.64690300000905,
          "velocity": 0.7874015748031497,
          "duration": 0.17647050000005038
        },
        {
          "name": "G3",
          "midi": 55,
          "time": 311.64690300000905,
          "velocity": 0.7874015748031497,
          "duration": 0.17647050000005038
        },
        {
          "name": "E2",
          "midi": 40,
          "time": 311.8233735000091,
          "velocity": 0.7874015748031497,
          "duration": 0.17647050000005038
        },
        {
          "name": "E2",
          "midi": 40,
          "time": 311.9116087500091,
          "velocity": 0.7874015748031497,
          "duration": 0.17647050000005038
        },
        {
          "name": "C2",
          "midi": 36,
          "time": 311.99984400000915,
          "velocity": 0.7874015748031497,
          "duration": 0.17647050000005038
        },
        {
          "name": "G3",
          "midi": 55,
          "time": 311.99984400000915,
          "velocity": 0.7874015748031497,
          "duration": 0.17647050000005038
        },
        {
          "name": "E2",
          "midi": 40,
          "time": 312.1763145000092,
          "velocity": 0.7874015748031497,
          "duration": 0.17647050000005038
        },
        {
          "name": "E2",
          "midi": 40,
          "time": 312.2645497500092,
          "velocity": 0.7874015748031497,
          "duration": 0.17647050000005038
        },
        {
          "name": "C2",
          "midi": 36,
          "time": 312.35278500000925,
          "velocity": 0.7874015748031497,
          "duration": 0.17647050000005038
        },
        {
          "name": "G3",
          "midi": 55,
          "time": 312.35278500000925,
          "velocity": 0.7874015748031497,
          "duration": 0.17647050000005038
        },
        {
          "name": "E2",
          "midi": 40,
          "time": 312.5292555000093,
          "velocity": 0.7874015748031497,
          "duration": 0.17647050000005038
        },
        {
          "name": "E2",
          "midi": 40,
          "time": 312.6174907500093,
          "velocity": 0.7874015748031497,
          "duration": 0.17647050000005038
        },
        {
          "name": "C2",
          "midi": 36,
          "time": 312.70572600000935,
          "velocity": 0.7874015748031497,
          "duration": 0.17647050000005038
        },
        {
          "name": "G3",
          "midi": 55,
          "time": 312.70572600000935,
          "velocity": 0.7874015748031497,
          "duration": 0.17647050000005038
        },
        {
          "name": "E2",
          "midi": 40,
          "time": 312.8821965000094,
          "velocity": 0.7874015748031497,
          "duration": 0.17647050000005038
        },
        {
          "name": "E2",
          "midi": 40,
          "time": 312.9704317500094,
          "velocity": 0.7874015748031497,
          "duration": 0.17647050000005038
        },
        {
          "name": "C2",
          "midi": 36,
          "time": 313.05866700000945,
          "velocity": 0.7874015748031497,
          "duration": 0.17647050000005038
        },
        {
          "name": "G3",
          "midi": 55,
          "time": 313.05866700000945,
          "velocity": 0.7874015748031497,
          "duration": 0.17647050000005038
        },
        {
          "name": "E2",
          "midi": 40,
          "time": 313.2351375000095,
          "velocity": 0.7874015748031497,
          "duration": 0.17647050000005038
        },
        {
          "name": "E2",
          "midi": 40,
          "time": 313.3233727500095,
          "velocity": 0.7874015748031497,
          "duration": 0.17647050000005038
        },
        {
          "name": "C2",
          "midi": 36,
          "time": 313.41160800000955,
          "velocity": 0.7874015748031497,
          "duration": 0.17647050000005038
        },
        {
          "name": "G3",
          "midi": 55,
          "time": 313.41160800000955,
          "velocity": 0.7874015748031497,
          "duration": 0.17647050000005038
        },
        {
          "name": "E2",
          "midi": 40,
          "time": 313.5880785000096,
          "velocity": 0.7874015748031497,
          "duration": 0.17647050000005038
        },
        {
          "name": "E2",
          "midi": 40,
          "time": 313.6763137500096,
          "velocity": 0.7874015748031497,
          "duration": 0.17647050000005038
        },
        {
          "name": "C2",
          "midi": 36,
          "time": 313.76454900000965,
          "velocity": 0.7874015748031497,
          "duration": 0.17647050000005038
        },
        {
          "name": "G3",
          "midi": 55,
          "time": 313.76454900000965,
          "velocity": 0.7874015748031497,
          "duration": 0.17647050000005038
        },
        {
          "name": "E2",
          "midi": 40,
          "time": 313.9410195000097,
          "velocity": 0.7874015748031497,
          "duration": 0.17647050000005038
        },
        {
          "name": "E2",
          "midi": 40,
          "time": 314.0292547500097,
          "velocity": 0.7874015748031497,
          "duration": 0.17647050000005038
        },
        {
          "name": "C2",
          "midi": 36,
          "time": 314.11749000000975,
          "velocity": 0.7874015748031497,
          "duration": 0.17647050000005038
        },
        {
          "name": "G3",
          "midi": 55,
          "time": 314.11749000000975,
          "velocity": 0.7874015748031497,
          "duration": 0.17647050000005038
        },
        {
          "name": "E2",
          "midi": 40,
          "time": 314.2939605000098,
          "velocity": 0.7874015748031497,
          "duration": 0.17647050000005038
        },
        {
          "name": "E2",
          "midi": 40,
          "time": 314.3821957500098,
          "velocity": 0.7874015748031497,
          "duration": 0.17647050000005038
        },
        {
          "name": "C2",
          "midi": 36,
          "time": 314.47043100000985,
          "velocity": 0.7874015748031497,
          "duration": 0.17647050000005038
        },
        {
          "name": "G3",
          "midi": 55,
          "time": 314.47043100000985,
          "velocity": 0.7874015748031497,
          "duration": 0.17647050000005038
        },
        {
          "name": "E2",
          "midi": 40,
          "time": 314.6469015000099,
          "velocity": 0.7874015748031497,
          "duration": 0.17647050000005038
        },
        {
          "name": "E2",
          "midi": 40,
          "time": 314.73513675000993,
          "velocity": 0.7874015748031497,
          "duration": 0.17647050000005038
        },
        {
          "name": "C2",
          "midi": 36,
          "time": 314.82337200000995,
          "velocity": 0.7874015748031497,
          "duration": 0.17647050000005038
        },
        {
          "name": "G3",
          "midi": 55,
          "time": 314.82337200000995,
          "velocity": 0.7874015748031497,
          "duration": 0.17647050000005038
        },
        {
          "name": "E2",
          "midi": 40,
          "time": 314.99984250001,
          "velocity": 0.7874015748031497,
          "duration": 0.17647050000005038
        },
        {
          "name": "E2",
          "midi": 40,
          "time": 315.08807775001003,
          "velocity": 0.7874015748031497,
          "duration": 0.17647050000005038
        },
        {
          "name": "C2",
          "midi": 36,
          "time": 315.17631300001005,
          "velocity": 0.7874015748031497,
          "duration": 0.17647050000005038
        },
        {
          "name": "G3",
          "midi": 55,
          "time": 315.17631300001005,
          "velocity": 0.7874015748031497,
          "duration": 0.17647050000005038
        },
        {
          "name": "E2",
          "midi": 40,
          "time": 315.3527835000101,
          "velocity": 0.7874015748031497,
          "duration": 0.17647050000005038
        },
        {
          "name": "E2",
          "midi": 40,
          "time": 315.44101875001013,
          "velocity": 0.7874015748031497,
          "duration": 0.17647050000005038
        },
        {
          "name": "C2",
          "midi": 36,
          "time": 315.52925400001016,
          "velocity": 0.7874015748031497,
          "duration": 0.17647050000005038
        },
        {
          "name": "G3",
          "midi": 55,
          "time": 315.52925400001016,
          "velocity": 0.7874015748031497,
          "duration": 0.17647050000005038
        },
        {
          "name": "E2",
          "midi": 40,
          "time": 315.7057245000102,
          "velocity": 0.7874015748031497,
          "duration": 0.17647050000005038
        },
        {
          "name": "E2",
          "midi": 40,
          "time": 315.79395975001023,
          "velocity": 0.7874015748031497,
          "duration": 0.17647050000005038
        },
        {
          "name": "C2",
          "midi": 36,
          "time": 315.88219500001026,
          "velocity": 0.7874015748031497,
          "duration": 0.17647050000005038
        },
        {
          "name": "G3",
          "midi": 55,
          "time": 315.88219500001026,
          "velocity": 0.7874015748031497,
          "duration": 0.17647050000005038
        },
        {
          "name": "E2",
          "midi": 40,
          "time": 316.0586655000103,
          "velocity": 0.7874015748031497,
          "duration": 0.17647050000005038
        },
        {
          "name": "E2",
          "midi": 40,
          "time": 316.14690075001033,
          "velocity": 0.7874015748031497,
          "duration": 0.17647050000005038
        },
        {
          "name": "C2",
          "midi": 36,
          "time": 316.23513600001036,
          "velocity": 0.7874015748031497,
          "duration": 0.17647050000005038
        },
        {
          "name": "G3",
          "midi": 55,
          "time": 316.23513600001036,
          "velocity": 0.7874015748031497,
          "duration": 0.17647050000005038
        },
        {
          "name": "E2",
          "midi": 40,
          "time": 316.4116065000104,
          "velocity": 0.7874015748031497,
          "duration": 0.17647050000005038
        },
        {
          "name": "E2",
          "midi": 40,
          "time": 316.49984175001043,
          "velocity": 0.7874015748031497,
          "duration": 0.17647050000005038
        },
        {
          "name": "C2",
          "midi": 36,
          "time": 316.58807700001046,
          "velocity": 0.7874015748031497,
          "duration": 0.17647050000005038
        },
        {
          "name": "G3",
          "midi": 55,
          "time": 316.58807700001046,
          "velocity": 0.7874015748031497,
          "duration": 0.17647050000005038
        },
        {
          "name": "E2",
          "midi": 40,
          "time": 316.7645475000105,
          "velocity": 0.7874015748031497,
          "duration": 0.17647050000005038
        },
        {
          "name": "E2",
          "midi": 40,
          "time": 316.85278275001053,
          "velocity": 0.7874015748031497,
          "duration": 0.17647050000005038
        },
        {
          "name": "C2",
          "midi": 36,
          "time": 316.94101800001056,
          "velocity": 0.7874015748031497,
          "duration": 0.17647050000005038
        },
        {
          "name": "G3",
          "midi": 55,
          "time": 316.94101800001056,
          "velocity": 0.7874015748031497,
          "duration": 0.17647050000005038
        },
        {
          "name": "E2",
          "midi": 40,
          "time": 317.1174885000106,
          "velocity": 0.7874015748031497,
          "duration": 0.17647050000005038
        },
        {
          "name": "E2",
          "midi": 40,
          "time": 317.20572375001063,
          "velocity": 0.7874015748031497,
          "duration": 0.17647050000005038
        },
        {
          "name": "C2",
          "midi": 36,
          "time": 317.29395900001066,
          "velocity": 0.7874015748031497,
          "duration": 0.17647050000005038
        },
        {
          "name": "G3",
          "midi": 55,
          "time": 317.29395900001066,
          "velocity": 0.7874015748031497,
          "duration": 0.17647050000005038
        },
        {
          "name": "E2",
          "midi": 40,
          "time": 317.4704295000107,
          "velocity": 0.7874015748031497,
          "duration": 0.17647050000005038
        },
        {
          "name": "E2",
          "midi": 40,
          "time": 317.55866475001073,
          "velocity": 0.7874015748031497,
          "duration": 0.17647050000005038
        },
        {
          "name": "C2",
          "midi": 36,
          "time": 317.64690000001076,
          "velocity": 0.7874015748031497,
          "duration": 0.17647050000005038
        },
        {
          "name": "G3",
          "midi": 55,
          "time": 317.64690000001076,
          "velocity": 0.7874015748031497,
          "duration": 0.17647050000005038
        },
        {
          "name": "E2",
          "midi": 40,
          "time": 317.8233705000108,
          "velocity": 0.7874015748031497,
          "duration": 0.17647050000005038
        },
        {
          "name": "E2",
          "midi": 40,
          "time": 317.91160575001084,
          "velocity": 0.7874015748031497,
          "duration": 0.17647050000005038
        },
        {
          "name": "C2",
          "midi": 36,
          "time": 317.99984100001086,
          "velocity": 0.7874015748031497,
          "duration": 0.17647050000005038
        },
        {
          "name": "G3",
          "midi": 55,
          "time": 317.99984100001086,
          "velocity": 0.7874015748031497,
          "duration": 0.17647050000005038
        },
        {
          "name": "E2",
          "midi": 40,
          "time": 318.1763115000109,
          "velocity": 0.7874015748031497,
          "duration": 0.17647050000005038
        },
        {
          "name": "E2",
          "midi": 40,
          "time": 318.26454675001094,
          "velocity": 0.7874015748031497,
          "duration": 0.17647050000005038
        },
        {
          "name": "C2",
          "midi": 36,
          "time": 318.35278200001096,
          "velocity": 0.7874015748031497,
          "duration": 0.17647050000005038
        },
        {
          "name": "G3",
          "midi": 55,
          "time": 318.35278200001096,
          "velocity": 0.7874015748031497,
          "duration": 0.17647050000005038
        },
        {
          "name": "E2",
          "midi": 40,
          "time": 318.529252500011,
          "velocity": 0.7874015748031497,
          "duration": 0.17647050000005038
        },
        {
          "name": "E2",
          "midi": 40,
          "time": 318.61748775001104,
          "velocity": 0.7874015748031497,
          "duration": 0.17647050000005038
        },
        {
          "name": "C2",
          "midi": 36,
          "time": 318.70572300001106,
          "velocity": 0.7874015748031497,
          "duration": 0.17647050000005038
        },
        {
          "name": "G3",
          "midi": 55,
          "time": 318.70572300001106,
          "velocity": 0.7874015748031497,
          "duration": 0.17647050000005038
        },
        {
          "name": "E2",
          "midi": 40,
          "time": 318.8821935000111,
          "velocity": 0.7874015748031497,
          "duration": 0.17647050000005038
        },
        {
          "name": "E2",
          "midi": 40,
          "time": 318.97042875001114,
          "velocity": 0.7874015748031497,
          "duration": 0.17647050000005038
        },
        {
          "name": "C2",
          "midi": 36,
          "time": 319.05866400001116,
          "velocity": 0.7874015748031497,
          "duration": 0.17647050000005038
        },
        {
          "name": "G3",
          "midi": 55,
          "time": 319.05866400001116,
          "velocity": 0.7874015748031497,
          "duration": 0.17647050000005038
        },
        {
          "name": "E2",
          "midi": 40,
          "time": 319.2351345000112,
          "velocity": 0.7874015748031497,
          "duration": 0.17647050000005038
        },
        {
          "name": "E2",
          "midi": 40,
          "time": 319.32336975001124,
          "velocity": 0.7874015748031497,
          "duration": 0.17647050000005038
        },
        {
          "name": "C2",
          "midi": 36,
          "time": 319.41160500001126,
          "velocity": 0.7874015748031497,
          "duration": 0.17647050000005038
        },
        {
          "name": "G3",
          "midi": 55,
          "time": 319.41160500001126,
          "velocity": 0.7874015748031497,
          "duration": 0.17647050000005038
        },
        {
          "name": "E2",
          "midi": 40,
          "time": 319.5880755000113,
          "velocity": 0.7874015748031497,
          "duration": 0.17647050000005038
        },
        {
          "name": "E2",
          "midi": 40,
          "time": 319.67631075001134,
          "velocity": 0.7874015748031497,
          "duration": 0.17647050000005038
        },
        {
          "name": "C2",
          "midi": 36,
          "time": 319.76454600001136,
          "velocity": 0.7874015748031497,
          "duration": 0.17647050000005038
        },
        {
          "name": "G3",
          "midi": 55,
          "time": 319.76454600001136,
          "velocity": 0.7874015748031497,
          "duration": 0.17647050000005038
        },
        {
          "name": "E2",
          "midi": 40,
          "time": 319.9410165000114,
          "velocity": 0.7874015748031497,
          "duration": 0.17647050000005038
        },
        {
          "name": "E2",
          "midi": 40,
          "time": 320.02925175001144,
          "velocity": 0.7874015748031497,
          "duration": 0.17647050000005038
        },
        {
          "name": "C2",
          "midi": 36,
          "time": 320.11748700001147,
          "velocity": 0.7874015748031497,
          "duration": 0.17647050000005038
        },
        {
          "name": "G3",
          "midi": 55,
          "time": 320.11748700001147,
          "velocity": 0.7874015748031497,
          "duration": 0.17647050000005038
        },
        {
          "name": "E2",
          "midi": 40,
          "time": 320.2939575000115,
          "velocity": 0.7874015748031497,
          "duration": 0.17647050000005038
        },
        {
          "name": "E2",
          "midi": 40,
          "time": 320.38219275001154,
          "velocity": 0.7874015748031497,
          "duration": 0.17647050000005038
        },
        {
          "name": "C2",
          "midi": 36,
          "time": 320.47042800001157,
          "velocity": 0.7874015748031497,
          "duration": 0.17647050000005038
        },
        {
          "name": "G3",
          "midi": 55,
          "time": 320.47042800001157,
          "velocity": 0.7874015748031497,
          "duration": 0.17647050000005038
        },
        {
          "name": "E2",
          "midi": 40,
          "time": 320.6468985000116,
          "velocity": 0.7874015748031497,
          "duration": 0.17647050000005038
        },
        {
          "name": "E2",
          "midi": 40,
          "time": 320.73513375001164,
          "velocity": 0.7874015748031497,
          "duration": 0.17647050000005038
        },
        {
          "name": "C2",
          "midi": 36,
          "time": 320.82336900001167,
          "velocity": 0.7874015748031497,
          "duration": 0.17647050000005038
        },
        {
          "name": "G3",
          "midi": 55,
          "time": 320.82336900001167,
          "velocity": 0.7874015748031497,
          "duration": 0.17647050000005038
        },
        {
          "name": "E2",
          "midi": 40,
          "time": 320.9998395000117,
          "velocity": 0.7874015748031497,
          "duration": 0.17647050000005038
        },
        {
          "name": "E2",
          "midi": 40,
          "time": 321.08807475001174,
          "velocity": 0.7874015748031497,
          "duration": 0.17647050000005038
        },
        {
          "name": "C2",
          "midi": 36,
          "time": 321.17631000001177,
          "velocity": 0.7874015748031497,
          "duration": 0.17647050000005038
        },
        {
          "name": "G3",
          "midi": 55,
          "time": 321.17631000001177,
          "velocity": 0.7874015748031497,
          "duration": 0.17647050000005038
        },
        {
          "name": "E2",
          "midi": 40,
          "time": 321.3527805000118,
          "velocity": 0.7874015748031497,
          "duration": 0.17647050000005038
        },
        {
          "name": "E2",
          "midi": 40,
          "time": 321.44101575001184,
          "velocity": 0.7874015748031497,
          "duration": 0.17647050000005038
        },
        {
          "name": "C2",
          "midi": 36,
          "time": 321.52925100001187,
          "velocity": 0.7874015748031497,
          "duration": 0.17647050000005038
        },
        {
          "name": "G3",
          "midi": 55,
          "time": 321.52925100001187,
          "velocity": 0.7874015748031497,
          "duration": 0.17647050000005038
        },
        {
          "name": "E2",
          "midi": 40,
          "time": 321.7057215000119,
          "velocity": 0.7874015748031497,
          "duration": 0.17647050000005038
        },
        {
          "name": "E2",
          "midi": 40,
          "time": 321.79395675001194,
          "velocity": 0.7874015748031497,
          "duration": 0.17647050000005038
        },
        {
          "name": "C2",
          "midi": 36,
          "time": 321.88219200001197,
          "velocity": 0.7874015748031497,
          "duration": 0.17647050000005038
        },
        {
          "name": "G3",
          "midi": 55,
          "time": 321.88219200001197,
          "velocity": 0.7874015748031497,
          "duration": 0.17647050000005038
        },
        {
          "name": "E2",
          "midi": 40,
          "time": 322.058662500012,
          "velocity": 0.7874015748031497,
          "duration": 0.17647050000005038
        },
        {
          "name": "E2",
          "midi": 40,
          "time": 322.14689775001204,
          "velocity": 0.7874015748031497,
          "duration": 0.17647050000005038
        },
        {
          "name": "C2",
          "midi": 36,
          "time": 322.23513300001207,
          "velocity": 0.7874015748031497,
          "duration": 0.17647050000005038
        },
        {
          "name": "G3",
          "midi": 55,
          "time": 322.23513300001207,
          "velocity": 0.7874015748031497,
          "duration": 0.17647050000005038
        },
        {
          "name": "E2",
          "midi": 40,
          "time": 322.4116035000121,
          "velocity": 0.7874015748031497,
          "duration": 0.17647050000005038
        },
        {
          "name": "E2",
          "midi": 40,
          "time": 322.49983875001215,
          "velocity": 0.7874015748031497,
          "duration": 0.17647050000005038
        },
        {
          "name": "C2",
          "midi": 36,
          "time": 322.58807400001217,
          "velocity": 0.7874015748031497,
          "duration": 0.17647050000005038
        },
        {
          "name": "G3",
          "midi": 55,
          "time": 322.58807400001217,
          "velocity": 0.7874015748031497,
          "duration": 0.17647050000005038
        },
        {
          "name": "E2",
          "midi": 40,
          "time": 322.7645445000122,
          "velocity": 0.7874015748031497,
          "duration": 0.17647050000005038
        },
        {
          "name": "E2",
          "midi": 40,
          "time": 322.85277975001225,
          "velocity": 0.7874015748031497,
          "duration": 0.17647050000005038
        },
        {
          "name": "C2",
          "midi": 36,
          "time": 322.94101500001227,
          "velocity": 0.7874015748031497,
          "duration": 0.17647050000005038
        },
        {
          "name": "G3",
          "midi": 55,
          "time": 322.94101500001227,
          "velocity": 0.7874015748031497,
          "duration": 0.17647050000005038
        },
        {
          "name": "E2",
          "midi": 40,
          "time": 323.1174855000123,
          "velocity": 0.7874015748031497,
          "duration": 0.17647050000005038
        },
        {
          "name": "E2",
          "midi": 40,
          "time": 323.20572075001235,
          "velocity": 0.7874015748031497,
          "duration": 0.17647050000005038
        },
        {
          "name": "C2",
          "midi": 36,
          "time": 323.2939560000124,
          "velocity": 0.7874015748031497,
          "duration": 0.17647050000005038
        },
        {
          "name": "G3",
          "midi": 55,
          "time": 323.2939560000124,
          "velocity": 0.7874015748031497,
          "duration": 0.17647050000005038
        },
        {
          "name": "E2",
          "midi": 40,
          "time": 323.4704265000124,
          "velocity": 0.7874015748031497,
          "duration": 0.17647050000005038
        },
        {
          "name": "E2",
          "midi": 40,
          "time": 323.55866175001245,
          "velocity": 0.7874015748031497,
          "duration": 0.17647050000005038
        },
        {
          "name": "C2",
          "midi": 36,
          "time": 323.6468970000125,
          "velocity": 0.7874015748031497,
          "duration": 0.17647050000005038
        },
        {
          "name": "G3",
          "midi": 55,
          "time": 323.6468970000125,
          "velocity": 0.7874015748031497,
          "duration": 0.17647050000005038
        },
        {
          "name": "E2",
          "midi": 40,
          "time": 323.8233675000125,
          "velocity": 0.7874015748031497,
          "duration": 0.17647050000005038
        },
        {
          "name": "E2",
          "midi": 40,
          "time": 323.91160275001255,
          "velocity": 0.7874015748031497,
          "duration": 0.17647050000005038
        },
        {
          "name": "C2",
          "midi": 36,
          "time": 323.9998380000126,
          "velocity": 0.7874015748031497,
          "duration": 0.17647050000005038
        },
        {
          "name": "G3",
          "midi": 55,
          "time": 323.9998380000126,
          "velocity": 0.7874015748031497,
          "duration": 0.17647050000005038
        },
        {
          "name": "E2",
          "midi": 40,
          "time": 324.1763085000126,
          "velocity": 0.7874015748031497,
          "duration": 0.17647050000005038
        },
        {
          "name": "E2",
          "midi": 40,
          "time": 324.26454375001265,
          "velocity": 0.7874015748031497,
          "duration": 0.17647050000005038
        },
        {
          "name": "C2",
          "midi": 36,
          "time": 324.3527790000127,
          "velocity": 0.7874015748031497,
          "duration": 0.17647050000005038
        },
        {
          "name": "G3",
          "midi": 55,
          "time": 324.3527790000127,
          "velocity": 0.7874015748031497,
          "duration": 0.17647050000005038
        },
        {
          "name": "E2",
          "midi": 40,
          "time": 324.5292495000127,
          "velocity": 0.7874015748031497,
          "duration": 0.17647050000005038
        },
        {
          "name": "E2",
          "midi": 40,
          "time": 324.61748475001275,
          "velocity": 0.7874015748031497,
          "duration": 0.17647050000005038
        },
        {
          "name": "C2",
          "midi": 36,
          "time": 324.7057200000128,
          "velocity": 0.7874015748031497,
          "duration": 0.17647050000005038
        },
        {
          "name": "G3",
          "midi": 55,
          "time": 324.7057200000128,
          "velocity": 0.7874015748031497,
          "duration": 0.17647050000005038
        },
        {
          "name": "E2",
          "midi": 40,
          "time": 324.8821905000128,
          "velocity": 0.7874015748031497,
          "duration": 0.17647050000005038
        },
        {
          "name": "E2",
          "midi": 40,
          "time": 324.97042575001285,
          "velocity": 0.7874015748031497,
          "duration": 0.17647050000005038
        },
        {
          "name": "C2",
          "midi": 36,
          "time": 325.0586610000129,
          "velocity": 0.7874015748031497,
          "duration": 0.17647050000005038
        },
        {
          "name": "G3",
          "midi": 55,
          "time": 325.0586610000129,
          "velocity": 0.7874015748031497,
          "duration": 0.17647050000005038
        },
        {
          "name": "E2",
          "midi": 40,
          "time": 325.2351315000129,
          "velocity": 0.7874015748031497,
          "duration": 0.17647050000005038
        },
        {
          "name": "E2",
          "midi": 40,
          "time": 325.32336675001295,
          "velocity": 0.7874015748031497,
          "duration": 0.17647050000005038
        },
        {
          "name": "C2",
          "midi": 36,
          "time": 325.411602000013,
          "velocity": 0.7874015748031497,
          "duration": 0.17647050000005038
        },
        {
          "name": "G3",
          "midi": 55,
          "time": 325.411602000013,
          "velocity": 0.7874015748031497,
          "duration": 0.17647050000005038
        },
        {
          "name": "E2",
          "midi": 40,
          "time": 325.588072500013,
          "velocity": 0.7874015748031497,
          "duration": 0.17647050000005038
        },
        {
          "name": "E2",
          "midi": 40,
          "time": 325.67630775001305,
          "velocity": 0.7874015748031497,
          "duration": 0.17647050000005038
        },
        {
          "name": "C2",
          "midi": 36,
          "time": 325.7645430000131,
          "velocity": 0.7874015748031497,
          "duration": 0.17647050000005038
        },
        {
          "name": "G3",
          "midi": 55,
          "time": 325.7645430000131,
          "velocity": 0.7874015748031497,
          "duration": 0.17647050000005038
        },
        {
          "name": "E2",
          "midi": 40,
          "time": 325.9410135000131,
          "velocity": 0.7874015748031497,
          "duration": 0.17647050000005038
        },
        {
          "name": "E2",
          "midi": 40,
          "time": 326.02924875001315,
          "velocity": 0.7874015748031497,
          "duration": 0.17647050000005038
        },
        {
          "name": "C#3",
          "midi": 49,
          "time": 326.1174840000132,
          "velocity": 0.7874015748031497,
          "duration": 0.23529400000001033
        },
        {
          "name": "C2",
          "midi": 36,
          "time": 326.1174840000132,
          "velocity": 0.7874015748031497,
          "duration": 0.23529400000001033
        },
        {
          "name": "E2",
          "midi": 40,
          "time": 326.1174840000132,
          "velocity": 0.7874015748031497,
          "duration": 0.23529400000001033
        },
        {
          "name": "A3",
          "midi": 57,
          "time": 326.3527780000132,
          "velocity": 0.7874015748031497,
          "duration": 0.23529400000001033
        },
        {
          "name": "C2",
          "midi": 36,
          "time": 326.3527780000132,
          "velocity": 0.7874015748031497,
          "duration": 0.23529400000001033
        },
        {
          "name": "E2",
          "midi": 40,
          "time": 326.3527780000132,
          "velocity": 0.7874015748031497,
          "duration": 0.23529400000001033
        },
        {
          "name": "C#3",
          "midi": 49,
          "time": 326.5880720000132,
          "velocity": 0.7874015748031497,
          "duration": 0.23529400000001033
        },
        {
          "name": "C2",
          "midi": 36,
          "time": 326.5880720000132,
          "velocity": 0.7874015748031497,
          "duration": 0.23529400000001033
        },
        {
          "name": "E2",
          "midi": 40,
          "time": 326.5880720000132,
          "velocity": 0.7874015748031497,
          "duration": 0.23529400000001033
        },
        {
          "name": "A3",
          "midi": 57,
          "time": 326.8233660000132,
          "velocity": 0.7874015748031497,
          "duration": 0.23529400000001033
        },
        {
          "name": "C2",
          "midi": 36,
          "time": 326.8233660000132,
          "velocity": 0.7874015748031497,
          "duration": 0.23529400000001033
        },
        {
          "name": "E2",
          "midi": 40,
          "time": 326.8233660000132,
          "velocity": 0.7874015748031497,
          "duration": 0.23529400000001033
        },
        {
          "name": "C#3",
          "midi": 49,
          "time": 327.0586600000132,
          "velocity": 0.7874015748031497,
          "duration": 0.23529400000001033
        },
        {
          "name": "C2",
          "midi": 36,
          "time": 327.0586600000132,
          "velocity": 0.7874015748031497,
          "duration": 0.23529400000001033
        },
        {
          "name": "E2",
          "midi": 40,
          "time": 327.0586600000132,
          "velocity": 0.7874015748031497,
          "duration": 0.23529400000001033
        },
        {
          "name": "C2",
          "midi": 36,
          "time": 327.29395400001323,
          "velocity": 0.7874015748031497,
          "duration": 0.23529400000001033
        },
        {
          "name": "E2",
          "midi": 40,
          "time": 327.29395400001323,
          "velocity": 0.7874015748031497,
          "duration": 0.23529400000001033
        },
        {
          "name": "A3",
          "midi": 57,
          "time": 327.29395400001323,
          "velocity": 0.7874015748031497,
          "duration": 0.23529400000001033
        },
        {
          "name": "C2",
          "midi": 36,
          "time": 327.52924800001324,
          "velocity": 0.7874015748031497,
          "duration": 0.17647049999999354
        },
        {
          "name": "G3",
          "midi": 55,
          "time": 327.52924800001324,
          "velocity": 0.7874015748031497,
          "duration": 0.17647049999999354
        },
        {
          "name": "E2",
          "midi": 40,
          "time": 327.70571850001323,
          "velocity": 0.7874015748031497,
          "duration": 0.17647050000005038
        },
        {
          "name": "E2",
          "midi": 40,
          "time": 327.79395375001326,
          "velocity": 0.7874015748031497,
          "duration": 0.17647050000005038
        },
        {
          "name": "C2",
          "midi": 36,
          "time": 327.8821890000133,
          "velocity": 0.7874015748031497,
          "duration": 0.17647050000005038
        },
        {
          "name": "G3",
          "midi": 55,
          "time": 327.8821890000133,
          "velocity": 0.7874015748031497,
          "duration": 0.17647050000005038
        },
        {
          "name": "E2",
          "midi": 40,
          "time": 328.05865950001333,
          "velocity": 0.7874015748031497,
          "duration": 0.17647050000005038
        },
        {
          "name": "E2",
          "midi": 40,
          "time": 328.14689475001336,
          "velocity": 0.7874015748031497,
          "duration": 0.17647050000005038
        },
        {
          "name": "C2",
          "midi": 36,
          "time": 328.2351300000134,
          "velocity": 0.7874015748031497,
          "duration": 0.17647050000005038
        },
        {
          "name": "G3",
          "midi": 55,
          "time": 328.2351300000134,
          "velocity": 0.7874015748031497,
          "duration": 0.17647050000005038
        },
        {
          "name": "E2",
          "midi": 40,
          "time": 328.41160050001344,
          "velocity": 0.7874015748031497,
          "duration": 0.17647050000005038
        },
        {
          "name": "E2",
          "midi": 40,
          "time": 328.49983575001346,
          "velocity": 0.7874015748031497,
          "duration": 0.17647050000005038
        },
        {
          "name": "C2",
          "midi": 36,
          "time": 328.5880710000135,
          "velocity": 0.7874015748031497,
          "duration": 0.17647050000005038
        },
        {
          "name": "G3",
          "midi": 55,
          "time": 328.5880710000135,
          "velocity": 0.7874015748031497,
          "duration": 0.17647050000005038
        },
        {
          "name": "E2",
          "midi": 40,
          "time": 328.76454150001354,
          "velocity": 0.7874015748031497,
          "duration": 0.17647050000005038
        },
        {
          "name": "E2",
          "midi": 40,
          "time": 328.85277675001356,
          "velocity": 0.7874015748031497,
          "duration": 0.17647050000005038
        },
        {
          "name": "C2",
          "midi": 36,
          "time": 328.9410120000136,
          "velocity": 0.7874015748031497,
          "duration": 0.17647050000005038
        },
        {
          "name": "G3",
          "midi": 55,
          "time": 328.9410120000136,
          "velocity": 0.7874015748031497,
          "duration": 0.17647050000005038
        },
        {
          "name": "E2",
          "midi": 40,
          "time": 329.11748250001364,
          "velocity": 0.7874015748031497,
          "duration": 0.17647050000005038
        },
        {
          "name": "E2",
          "midi": 40,
          "time": 329.20571775001366,
          "velocity": 0.7874015748031497,
          "duration": 0.17647050000005038
        },
        {
          "name": "C2",
          "midi": 36,
          "time": 329.2939530000137,
          "velocity": 0.7874015748031497,
          "duration": 0.17647050000005038
        },
        {
          "name": "G3",
          "midi": 55,
          "time": 329.2939530000137,
          "velocity": 0.7874015748031497,
          "duration": 0.17647050000005038
        },
        {
          "name": "E2",
          "midi": 40,
          "time": 329.47042350001374,
          "velocity": 0.7874015748031497,
          "duration": 0.17647050000005038
        },
        {
          "name": "E2",
          "midi": 40,
          "time": 329.55865875001376,
          "velocity": 0.7874015748031497,
          "duration": 0.17647050000005038
        },
        {
          "name": "C2",
          "midi": 36,
          "time": 329.6468940000138,
          "velocity": 0.7874015748031497,
          "duration": 0.17647050000005038
        },
        {
          "name": "G3",
          "midi": 55,
          "time": 329.6468940000138,
          "velocity": 0.7874015748031497,
          "duration": 0.17647050000005038
        },
        {
          "name": "E2",
          "midi": 40,
          "time": 329.82336450001384,
          "velocity": 0.7874015748031497,
          "duration": 0.17647050000005038
        },
        {
          "name": "E2",
          "midi": 40,
          "time": 329.91159975001386,
          "velocity": 0.7874015748031497,
          "duration": 0.17647050000005038
        },
        {
          "name": "C2",
          "midi": 36,
          "time": 329.9998350000139,
          "velocity": 0.7874015748031497,
          "duration": 0.17647050000005038
        },
        {
          "name": "G3",
          "midi": 55,
          "time": 329.9998350000139,
          "velocity": 0.7874015748031497,
          "duration": 0.17647050000005038
        },
        {
          "name": "E2",
          "midi": 40,
          "time": 330.17630550001394,
          "velocity": 0.7874015748031497,
          "duration": 0.17647050000005038
        },
        {
          "name": "E2",
          "midi": 40,
          "time": 330.26454075001396,
          "velocity": 0.7874015748031497,
          "duration": 0.17647050000005038
        },
        {
          "name": "C2",
          "midi": 36,
          "time": 330.352776000014,
          "velocity": 0.7874015748031497,
          "duration": 0.17647050000005038
        },
        {
          "name": "G3",
          "midi": 55,
          "time": 330.352776000014,
          "velocity": 0.7874015748031497,
          "duration": 0.17647050000005038
        },
        {
          "name": "E2",
          "midi": 40,
          "time": 330.52924650001404,
          "velocity": 0.7874015748031497,
          "duration": 0.17647050000005038
        },
        {
          "name": "E2",
          "midi": 40,
          "time": 330.61748175001406,
          "velocity": 0.7874015748031497,
          "duration": 0.17647050000005038
        },
        {
          "name": "C2",
          "midi": 36,
          "time": 330.7057170000141,
          "velocity": 0.7874015748031497,
          "duration": 0.17647050000005038
        },
        {
          "name": "G3",
          "midi": 55,
          "time": 330.7057170000141,
          "velocity": 0.7874015748031497,
          "duration": 0.17647050000005038
        },
        {
          "name": "E2",
          "midi": 40,
          "time": 330.88218750001414,
          "velocity": 0.7874015748031497,
          "duration": 0.17647050000005038
        },
        {
          "name": "E2",
          "midi": 40,
          "time": 330.97042275001417,
          "velocity": 0.7874015748031497,
          "duration": 0.17647050000005038
        },
        {
          "name": "C2",
          "midi": 36,
          "time": 331.0586580000142,
          "velocity": 0.7874015748031497,
          "duration": 0.17647050000005038
        },
        {
          "name": "G3",
          "midi": 55,
          "time": 331.0586580000142,
          "velocity": 0.7874015748031497,
          "duration": 0.17647050000005038
        },
        {
          "name": "E2",
          "midi": 40,
          "time": 331.23512850001424,
          "velocity": 0.7874015748031497,
          "duration": 0.17647050000005038
        },
        {
          "name": "E2",
          "midi": 40,
          "time": 331.32336375001427,
          "velocity": 0.7874015748031497,
          "duration": 0.17647050000005038
        },
        {
          "name": "C2",
          "midi": 36,
          "time": 331.4115990000143,
          "velocity": 0.7874015748031497,
          "duration": 0.17647050000005038
        },
        {
          "name": "G3",
          "midi": 55,
          "time": 331.4115990000143,
          "velocity": 0.7874015748031497,
          "duration": 0.17647050000005038
        },
        {
          "name": "E2",
          "midi": 40,
          "time": 331.58806950001434,
          "velocity": 0.7874015748031497,
          "duration": 0.17647050000005038
        },
        {
          "name": "E2",
          "midi": 40,
          "time": 331.67630475001437,
          "velocity": 0.7874015748031497,
          "duration": 0.17647050000005038
        },
        {
          "name": "C#3",
          "midi": 49,
          "time": 331.7645400000144,
          "velocity": 0.7874015748031497,
          "duration": 0.23529400000001033
        },
        {
          "name": "C2",
          "midi": 36,
          "time": 331.7645400000144,
          "velocity": 0.7874015748031497,
          "duration": 0.23529400000001033
        },
        {
          "name": "E2",
          "midi": 40,
          "time": 331.7645400000144,
          "velocity": 0.7874015748031497,
          "duration": 0.23529400000001033
        },
        {
          "name": "A3",
          "midi": 57,
          "time": 331.9998340000144,
          "velocity": 0.7874015748031497,
          "duration": 0.23529400000001033
        },
        {
          "name": "C2",
          "midi": 36,
          "time": 331.9998340000144,
          "velocity": 0.7874015748031497,
          "duration": 0.23529400000001033
        },
        {
          "name": "E2",
          "midi": 40,
          "time": 331.9998340000144,
          "velocity": 0.7874015748031497,
          "duration": 0.23529400000001033
        },
        {
          "name": "C#3",
          "midi": 49,
          "time": 332.2351280000144,
          "velocity": 0.7874015748031497,
          "duration": 0.23529400000001033
        },
        {
          "name": "C2",
          "midi": 36,
          "time": 332.2351280000144,
          "velocity": 0.7874015748031497,
          "duration": 0.23529400000001033
        },
        {
          "name": "E2",
          "midi": 40,
          "time": 332.2351280000144,
          "velocity": 0.7874015748031497,
          "duration": 0.23529400000001033
        },
        {
          "name": "A3",
          "midi": 57,
          "time": 332.4704220000144,
          "velocity": 0.7874015748031497,
          "duration": 0.23529400000001033
        },
        {
          "name": "C2",
          "midi": 36,
          "time": 332.4704220000144,
          "velocity": 0.7874015748031497,
          "duration": 0.23529400000001033
        },
        {
          "name": "E2",
          "midi": 40,
          "time": 332.4704220000144,
          "velocity": 0.7874015748031497,
          "duration": 0.23529400000001033
        },
        {
          "name": "C#3",
          "midi": 49,
          "time": 332.70571600001443,
          "velocity": 0.7874015748031497,
          "duration": 0.23529400000001033
        },
        {
          "name": "C2",
          "midi": 36,
          "time": 332.70571600001443,
          "velocity": 0.7874015748031497,
          "duration": 0.23529400000001033
        },
        {
          "name": "E2",
          "midi": 40,
          "time": 332.70571600001443,
          "velocity": 0.7874015748031497,
          "duration": 0.23529400000001033
        },
        {
          "name": "C2",
          "midi": 36,
          "time": 332.94101000001444,
          "velocity": 0.7874015748031497,
          "duration": 0.23529400000001033
        },
        {
          "name": "E2",
          "midi": 40,
          "time": 332.94101000001444,
          "velocity": 0.7874015748031497,
          "duration": 0.23529400000001033
        },
        {
          "name": "A3",
          "midi": 57,
          "time": 332.94101000001444,
          "velocity": 0.7874015748031497,
          "duration": 0.23529400000001033
        },
        {
          "name": "C2",
          "midi": 36,
          "time": 333.17630400001445,
          "velocity": 0.7874015748031497,
          "duration": 0.17647049999999354
        },
        {
          "name": "G3",
          "midi": 55,
          "time": 333.17630400001445,
          "velocity": 0.7874015748031497,
          "duration": 0.17647049999999354
        },
        {
          "name": "E2",
          "midi": 40,
          "time": 333.35277450001445,
          "velocity": 0.7874015748031497,
          "duration": 0.17647050000005038
        },
        {
          "name": "E2",
          "midi": 40,
          "time": 333.4410097500145,
          "velocity": 0.7874015748031497,
          "duration": 0.17647050000005038
        },
        {
          "name": "C2",
          "midi": 36,
          "time": 333.5292450000145,
          "velocity": 0.7874015748031497,
          "duration": 0.17647050000005038
        },
        {
          "name": "G3",
          "midi": 55,
          "time": 333.5292450000145,
          "velocity": 0.7874015748031497,
          "duration": 0.17647050000005038
        },
        {
          "name": "E2",
          "midi": 40,
          "time": 333.70571550001455,
          "velocity": 0.7874015748031497,
          "duration": 0.17647050000005038
        },
        {
          "name": "E2",
          "midi": 40,
          "time": 333.7939507500146,
          "velocity": 0.7874015748031497,
          "duration": 0.17647050000005038
        },
        {
          "name": "C2",
          "midi": 36,
          "time": 333.8821860000146,
          "velocity": 0.7874015748031497,
          "duration": 0.17647050000005038
        },
        {
          "name": "G3",
          "midi": 55,
          "time": 333.8821860000146,
          "velocity": 0.7874015748031497,
          "duration": 0.17647050000005038
        },
        {
          "name": "E2",
          "midi": 40,
          "time": 334.05865650001465,
          "velocity": 0.7874015748031497,
          "duration": 0.17647050000005038
        },
        {
          "name": "E2",
          "midi": 40,
          "time": 334.1468917500147,
          "velocity": 0.7874015748031497,
          "duration": 0.17647050000005038
        },
        {
          "name": "C2",
          "midi": 36,
          "time": 334.2351270000147,
          "velocity": 0.7874015748031497,
          "duration": 0.17647050000005038
        },
        {
          "name": "G3",
          "midi": 55,
          "time": 334.2351270000147,
          "velocity": 0.7874015748031497,
          "duration": 0.17647050000005038
        },
        {
          "name": "E2",
          "midi": 40,
          "time": 334.41159750001475,
          "velocity": 0.7874015748031497,
          "duration": 0.17647050000005038
        },
        {
          "name": "E2",
          "midi": 40,
          "time": 334.4998327500148,
          "velocity": 0.7874015748031497,
          "duration": 0.17647050000005038
        },
        {
          "name": "C2",
          "midi": 36,
          "time": 334.5880680000148,
          "velocity": 0.7874015748031497,
          "duration": 0.17647050000005038
        },
        {
          "name": "G3",
          "midi": 55,
          "time": 334.5880680000148,
          "velocity": 0.7874015748031497,
          "duration": 0.17647050000005038
        },
        {
          "name": "E2",
          "midi": 40,
          "time": 334.76453850001485,
          "velocity": 0.7874015748031497,
          "duration": 0.17647050000005038
        },
        {
          "name": "E2",
          "midi": 40,
          "time": 334.8527737500149,
          "velocity": 0.7874015748031497,
          "duration": 0.17647050000005038
        },
        {
          "name": "C2",
          "midi": 36,
          "time": 334.9410090000149,
          "velocity": 0.7874015748031497,
          "duration": 0.17647050000005038
        },
        {
          "name": "G3",
          "midi": 55,
          "time": 334.9410090000149,
          "velocity": 0.7874015748031497,
          "duration": 0.17647050000005038
        },
        {
          "name": "E2",
          "midi": 40,
          "time": 335.11747950001495,
          "velocity": 0.7874015748031497,
          "duration": 0.17647050000005038
        },
        {
          "name": "E2",
          "midi": 40,
          "time": 335.205714750015,
          "velocity": 0.7874015748031497,
          "duration": 0.17647050000005038
        },
        {
          "name": "C2",
          "midi": 36,
          "time": 335.293950000015,
          "velocity": 0.7874015748031497,
          "duration": 0.17647050000005038
        },
        {
          "name": "G3",
          "midi": 55,
          "time": 335.293950000015,
          "velocity": 0.7874015748031497,
          "duration": 0.17647050000005038
        },
        {
          "name": "E2",
          "midi": 40,
          "time": 335.47042050001505,
          "velocity": 0.7874015748031497,
          "duration": 0.17647050000005038
        },
        {
          "name": "E2",
          "midi": 40,
          "time": 335.5586557500151,
          "velocity": 0.7874015748031497,
          "duration": 0.17647050000005038
        },
        {
          "name": "C2",
          "midi": 36,
          "time": 335.6468910000151,
          "velocity": 0.7874015748031497,
          "duration": 0.17647050000005038
        },
        {
          "name": "G3",
          "midi": 55,
          "time": 335.6468910000151,
          "velocity": 0.7874015748031497,
          "duration": 0.17647050000005038
        },
        {
          "name": "E2",
          "midi": 40,
          "time": 335.82336150001515,
          "velocity": 0.7874015748031497,
          "duration": 0.17647050000005038
        },
        {
          "name": "E2",
          "midi": 40,
          "time": 335.9115967500152,
          "velocity": 0.7874015748031497,
          "duration": 0.17647050000005038
        },
        {
          "name": "C2",
          "midi": 36,
          "time": 335.9998320000152,
          "velocity": 0.7874015748031497,
          "duration": 0.17647050000005038
        },
        {
          "name": "G3",
          "midi": 55,
          "time": 335.9998320000152,
          "velocity": 0.7874015748031497,
          "duration": 0.17647050000005038
        },
        {
          "name": "E2",
          "midi": 40,
          "time": 336.17630250001525,
          "velocity": 0.7874015748031497,
          "duration": 0.17647050000005038
        },
        {
          "name": "E2",
          "midi": 40,
          "time": 336.2645377500153,
          "velocity": 0.7874015748031497,
          "duration": 0.17647050000005038
        },
        {
          "name": "C2",
          "midi": 36,
          "time": 336.3527730000153,
          "velocity": 0.7874015748031497,
          "duration": 0.17647050000005038
        },
        {
          "name": "G3",
          "midi": 55,
          "time": 336.3527730000153,
          "velocity": 0.7874015748031497,
          "duration": 0.17647050000005038
        },
        {
          "name": "E2",
          "midi": 40,
          "time": 336.52924350001535,
          "velocity": 0.7874015748031497,
          "duration": 0.17647050000005038
        },
        {
          "name": "E2",
          "midi": 40,
          "time": 336.6174787500154,
          "velocity": 0.7874015748031497,
          "duration": 0.17647050000005038
        },
        {
          "name": "C2",
          "midi": 36,
          "time": 336.7057140000154,
          "velocity": 0.7874015748031497,
          "duration": 0.17647050000005038
        },
        {
          "name": "G3",
          "midi": 55,
          "time": 336.7057140000154,
          "velocity": 0.7874015748031497,
          "duration": 0.17647050000005038
        },
        {
          "name": "E2",
          "midi": 40,
          "time": 336.88218450001546,
          "velocity": 0.7874015748031497,
          "duration": 0.17647050000005038
        },
        {
          "name": "E2",
          "midi": 40,
          "time": 336.9704197500155,
          "velocity": 0.7874015748031497,
          "duration": 0.17647050000005038
        },
        {
          "name": "C2",
          "midi": 36,
          "time": 337.0586550000155,
          "velocity": 0.7874015748031497,
          "duration": 0.17647050000005038
        },
        {
          "name": "G3",
          "midi": 55,
          "time": 337.0586550000155,
          "velocity": 0.7874015748031497,
          "duration": 0.17647050000005038
        },
        {
          "name": "E2",
          "midi": 40,
          "time": 337.23512550001556,
          "velocity": 0.7874015748031497,
          "duration": 0.17647050000005038
        },
        {
          "name": "E2",
          "midi": 40,
          "time": 337.3233607500156,
          "velocity": 0.7874015748031497,
          "duration": 0.17647050000005038
        },
        {
          "name": "C#3",
          "midi": 49,
          "time": 337.4115960000156,
          "velocity": 0.7874015748031497,
          "duration": 0.23529400000001033
        },
        {
          "name": "C2",
          "midi": 36,
          "time": 337.4115960000156,
          "velocity": 0.7874015748031497,
          "duration": 0.23529400000001033
        },
        {
          "name": "E2",
          "midi": 40,
          "time": 337.4115960000156,
          "velocity": 0.7874015748031497,
          "duration": 0.23529400000001033
        },
        {
          "name": "A3",
          "midi": 57,
          "time": 337.6468900000156,
          "velocity": 0.7874015748031497,
          "duration": 0.23529400000001033
        },
        {
          "name": "C2",
          "midi": 36,
          "time": 337.6468900000156,
          "velocity": 0.7874015748031497,
          "duration": 0.23529400000001033
        },
        {
          "name": "E2",
          "midi": 40,
          "time": 337.6468900000156,
          "velocity": 0.7874015748031497,
          "duration": 0.23529400000001033
        },
        {
          "name": "C#3",
          "midi": 49,
          "time": 337.8821840000156,
          "velocity": 0.7874015748031497,
          "duration": 0.23529400000001033
        },
        {
          "name": "C2",
          "midi": 36,
          "time": 337.8821840000156,
          "velocity": 0.7874015748031497,
          "duration": 0.23529400000001033
        },
        {
          "name": "E2",
          "midi": 40,
          "time": 337.8821840000156,
          "velocity": 0.7874015748031497,
          "duration": 0.23529400000001033
        },
        {
          "name": "A3",
          "midi": 57,
          "time": 338.11747800001564,
          "velocity": 0.7874015748031497,
          "duration": 0.23529400000001033
        },
        {
          "name": "C2",
          "midi": 36,
          "time": 338.11747800001564,
          "velocity": 0.7874015748031497,
          "duration": 0.23529400000001033
        },
        {
          "name": "E2",
          "midi": 40,
          "time": 338.11747800001564,
          "velocity": 0.7874015748031497,
          "duration": 0.23529400000001033
        },
        {
          "name": "C#3",
          "midi": 49,
          "time": 338.35277200001565,
          "velocity": 0.7874015748031497,
          "duration": 0.23529400000001033
        },
        {
          "name": "C2",
          "midi": 36,
          "time": 338.35277200001565,
          "velocity": 0.7874015748031497,
          "duration": 0.23529400000001033
        },
        {
          "name": "E2",
          "midi": 40,
          "time": 338.35277200001565,
          "velocity": 0.7874015748031497,
          "duration": 0.23529400000001033
        },
        {
          "name": "C2",
          "midi": 36,
          "time": 338.58806600001566,
          "velocity": 0.7874015748031497,
          "duration": 0.23529400000001033
        },
        {
          "name": "E2",
          "midi": 40,
          "time": 338.58806600001566,
          "velocity": 0.7874015748031497,
          "duration": 0.23529400000001033
        },
        {
          "name": "A3",
          "midi": 57,
          "time": 338.58806600001566,
          "velocity": 0.7874015748031497,
          "duration": 0.23529400000001033
        },
        {
          "name": "C#3",
          "midi": 49,
          "time": 338.82336000001567,
          "velocity": 0.7874015748031497,
          "duration": 0.35294099999998707
        },
        {
          "name": "C2",
          "midi": 36,
          "time": 338.82336000001567,
          "velocity": 0.7874015748031497,
          "duration": 0.35294099999998707
        }
      ],
      "controlChanges": {
        "7": [
          {
            "number": 7,
            "time": 0,
            "value": 0.7874015748031497
          }
        ],
        "10": [
          {
            "number": 10,
            "time": 0,
            "value": 0.5039370078740157
          }
        ],
        "32": [
          {
            "number": 32,
            "time": 0,
            "value": 0
          }
        ],
        "91": [
          {
            "number": 91,
            "time": 0,
            "value": 0.25196850393700787
          }
        ],
        "93": [
          {
            "number": 93,
            "time": 0,
            "value": 0.1889763779527559
          }
        ]
      },
      "id": 6,
      "name": "Drums",
      "instrumentNumber": 0,
      "instrument": "standard kit",
      "instrumentFamily": "drums",
      "channelNumber": 9,
      "isPercussion": true
    }
  ]
}